<?xml version="1.0" encoding="utf-8"?>
<!-- Generator: Adobe Illustrator 15.0.0, SVG Export Plug-In . SVG Version: 6.00 Build 0)  -->
<!DOCTYPE svg PUBLIC "-//W3C//DTD SVG 1.1//EN" "http://www.w3.org/Graphics/SVG/1.1/DTD/svg11.dtd">
<svg version="1.1" id="Layer_1" xmlns="http://www.w3.org/2000/svg" xmlns:xlink="http://www.w3.org/1999/xlink" x="0px" y="0px"
	 width="200px" height="200px" viewBox="0 0 200 200" enable-background="new 0 0 200 200" xml:space="preserve">
<g id="icon">
	<g id="Layer_2">
	</g>
	<g id="Layer_1_1_">
		<g>
			<g>
				<path fill="#A65E1E" d="M38.867,88.839c-2.51-14.502-2.531-23.389,1.701-29.279c4.232-5.889,3.563-11.49,18.068-14l44.108,1.557
					c29.003-5.02,39.564,1.336,44.586,30.34l13.475,45.521c2.377,13.727-1.503,16.852-5.033,22.528
					c-3.932,6.322-12.479,9.147-27.758,11.793l-39.992,6.683c-29.003,5.02-38.764-1.887-43.783-30.894L38.867,88.839z"/>
			</g>
			<g>
				
					<linearGradient id="SVGID_1_" gradientUnits="userSpaceOnUse" x1="462.0283" y1="94.8037" x2="455.7342" y2="-14.2931" gradientTransform="matrix(0.9614 0.275 0.275 -0.9614 -350.4001 8.5905)">
					<stop  offset="0" style="stop-color:#FFE300"/>
					<stop  offset="1" style="stop-color:#F7941E"/>
				</linearGradient>
				<path fill="url(#SVGID_1_)" d="M43.239,80.796c-5.021-29.002-0.084-35.549,28.92-40.568l36.96-4.152
					c29.001-5.021,39.562,1.332,44.584,30.338l7.402,43.146c5.021,29.006,0.283,34.682-28.723,39.696l-39.99,6.683
					c-29.003,5.021-38.764-1.89-43.784-30.894L43.239,80.796z"/>
			</g>
			<g>
				<g>
					<path fill="#FFFFFF" d="M75.546,143.294c-5.356,0-9.966-4.005-10.724-9.313c-0.844-5.92,3.285-11.424,9.205-12.271
						c0.511-0.071,1.03-0.108,1.543-0.108c5.358,0,9.969,4.004,10.726,9.312c0.409,2.868-0.323,5.727-2.062,8.042
						c-1.739,2.315-4.274,3.817-7.143,4.229C76.58,143.256,76.06,143.294,75.546,143.294z"/>
					<path fill="#A46F1C" d="M75.57,123.1c4.577,0,8.576,3.364,9.24,8.025c0.729,5.109-2.821,9.846-7.931,10.573
						c-0.448,0.062-0.894,0.095-1.334,0.095c-4.575,0-8.573-3.363-9.238-8.025c-0.729-5.106,2.822-9.843,7.932-10.572
						C74.687,123.131,75.131,123.1,75.57,123.1 M75.571,120.1C75.57,120.1,75.57,120.1,75.571,120.1
						c-0.585,0-1.175,0.043-1.756,0.125c-6.738,0.963-11.438,7.229-10.478,13.967c0.861,6.045,6.11,10.604,12.208,10.604
						c0.585,0,1.177-0.043,1.759-0.126c3.264-0.465,6.151-2.175,8.13-4.812c1.979-2.639,2.812-5.89,2.346-9.151
						C86.92,124.657,81.671,120.1,75.571,120.1L75.571,120.1z"/>
				</g>
				<g>
					<path fill="#FFFFFF" d="M132.189,135.466c-0.73,0-1.371-0.534-1.48-1.28c-4.629-31.24-31.916-54.796-63.474-54.796
						c-2.895,0-5.825,0.2-8.712,0.593c-0.068,0.009-0.137,0.014-0.204,0.014c-0.735,0-1.376-0.54-1.483-1.288l-2.089-14.643
						c-0.056-0.395,0.048-0.796,0.288-1.115c0.24-0.319,0.598-0.528,0.993-0.583c3.716-0.511,7.489-0.77,11.217-0.77
						c40.342,0,75.194,30.12,81.071,70.062c0.058,0.396-0.045,0.797-0.282,1.114c-0.239,0.318-0.597,0.531-0.99,0.588l-14.64,2.092
						C132.332,135.461,132.262,135.466,132.189,135.466z"/>
					<path fill="#A46F1C" d="M67.245,63.095c39.272,0,73.714,28.862,79.587,68.781l-14.641,2.09
						c-4.821-32.554-32.917-56.08-64.958-56.08c-2.942,0-5.92,0.199-8.914,0.607L56.232,63.85
						C59.935,63.342,63.606,63.095,67.245,63.095 M67.245,60.095c-3.795,0-7.638,0.264-11.421,0.784
						c-0.791,0.109-1.506,0.528-1.987,1.166c-0.48,0.637-0.688,1.44-0.574,2.23l2.089,14.643c0.213,1.496,1.496,2.576,2.966,2.576
						c0.135,0,0.271-0.009,0.409-0.027c2.819-0.385,5.683-0.579,8.509-0.579c30.819,0,57.47,23.008,61.989,53.519
						c0.221,1.489,1.502,2.561,2.965,2.561c0.144,0,0.283-0.01,0.43-0.03l14.64-2.09c0.79-0.111,1.503-0.535,1.979-1.175
						c0.479-0.639,0.682-1.442,0.562-2.231c-2.929-19.904-12.974-38.089-28.283-51.2C106.348,67.248,87.073,60.095,67.245,60.095
						L67.245,60.095z"/>
				</g>
				<g>
					<path fill="#FFFFFF" d="M103.048,139.627c-0.729,0-1.368-0.532-1.479-1.273c-2.566-16.832-17.333-29.523-34.348-29.523
						c-1.508,0-3.035,0.104-4.54,0.298c-0.066,0.009-0.132,0.015-0.197,0.015c-0.735,0-1.376-0.539-1.483-1.287l-2.092-14.647
						c-0.056-0.396,0.048-0.798,0.289-1.117c0.241-0.318,0.6-0.528,0.996-0.581c2.331-0.312,4.698-0.473,7.035-0.473
						c25.796,0,48.129,19.253,51.954,44.783c0.062,0.395-0.041,0.797-0.279,1.117c-0.238,0.318-0.596,0.53-0.99,0.59l-14.646,2.091
						C103.189,139.622,103.118,139.627,103.048,139.627z"/>
					<path fill="#A46F1C" d="M67.227,92.531c24.875,0,46.688,18.246,50.47,43.505l-14.646,2.091
						c-2.729-17.891-18.194-30.8-35.831-30.8c-1.563,0-3.146,0.103-4.735,0.312L60.392,92.99
						C62.688,92.682,64.97,92.531,67.227,92.531 M67.227,89.531c-2.404,0-4.838,0.163-7.234,0.485
						C59.2,90.123,58.482,90.541,58,91.18c-0.482,0.638-0.69,1.441-0.577,2.233l2.092,14.647c0.213,1.494,1.495,2.573,2.966,2.573
						c0.13,0,0.262-0.008,0.394-0.022c1.44-0.188,2.902-0.285,4.346-0.285c16.279,0,30.408,12.146,32.865,28.252
						c0.227,1.482,1.504,2.548,2.962,2.548c0.142,0,0.284-0.01,0.429-0.03l14.646-2.091c0.791-0.112,1.505-0.537,1.98-1.178
						c0.479-0.642,0.681-1.446,0.562-2.236c-1.925-12.858-8.438-24.601-18.347-33.062C92.507,94.147,80.044,89.531,67.227,89.531
						L67.227,89.531z"/>
				</g>
			</g>
		</g>
	</g>
</g>
</svg>
