<?xml version="1.0" encoding="utf-8"?>
<!-- Generator: Adobe Illustrator 15.0.0, SVG Export Plug-In . SVG Version: 6.00 Build 0)  -->
<!DOCTYPE svg PUBLIC "-//W3C//DTD SVG 1.1//EN" "http://www.w3.org/Graphics/SVG/1.1/DTD/svg11.dtd">
<svg version="1.1" id="Layer_1" xmlns="http://www.w3.org/2000/svg" xmlns:xlink="http://www.w3.org/1999/xlink" x="0px" y="0px"
	 width="200px" height="200px" viewBox="0 0 200 200" enable-background="new 0 0 200 200" xml:space="preserve">
<g id="icon">
	<g id="Layer_2">
	</g>
	<g id="Layer_1_1_">
		<g>
			<g>
				
					<linearGradient id="SVGID_1_" gradientUnits="userSpaceOnUse" x1="490.2969" y1="-708.3516" x2="584.5242" y2="-806.7119" gradientTransform="matrix(0.9245 -0.106 0.1001 -1.0931 -329.5992 -660.6893)">
					<stop  offset="0" style="stop-color:#70AB00"/>
					<stop  offset="1" style="stop-color:#284700"/>
				</linearGradient>
				<path fill="url(#SVGID_1_)" d="M127.312,71.759c24.442,23.816,18.469,71.204,18.469,71.204
					c-1.387,1.418-10.639,8.309-12.137,9.535c-22.496,18.447-57.133,16.199-80.049-6.131c-22.921-22.327-25.982-56.812-8.021-79.672
					c1.195-1.524,6.695-8.003,8.076-9.416C53.65,57.279,102.865,47.943,127.312,71.759z"/>
				
					<linearGradient id="SVGID_2_" gradientUnits="userSpaceOnUse" x1="240.1143" y1="-602.9307" x2="294.7809" y2="-738.2646" gradientTransform="matrix(1 0 0 -1 -150 -530)">
					<stop  offset="0.1758" style="stop-color:#96DC00"/>
					<stop  offset="1" style="stop-color:#366100"/>
				</linearGradient>
				<path fill="url(#SVGID_2_)" d="M141.547,57.225c24.93,24.288,26.822,62.673,4.234,85.738
					c-22.594,23.068-61.117,22.076-86.047-2.207c-24.93-24.287-26.82-62.677-4.229-85.742
					C78.097,31.948,116.62,32.938,141.547,57.225z"/>
				<g>
					<path fill="#FFFFFF" d="M134.846,80.863l-20.599,1.895l-3.823-21.478c-0.496-2.827-3.055-4.987-5.72-4.813l-14.726,1
						c-2.668,0.188-4.473,2.711-4.023,5.622l3.474,22.131l-20.77,2.208c-2.729,0.301-4.61,2.963-4.192,5.942l2.326,16.389
						c0.426,2.962,3.027,5.041,5.804,4.654l21.12-2.858l3.673,21.76c0.488,2.844,3.167,4.775,5.976,4.326l15.504-2.445
						c2.806-0.437,4.646-3.021,4.11-5.771l-4.024-21.109l20.95-2.545c2.742-0.322,4.508-2.768,3.939-5.468L140.74,85.36
						C140.182,82.64,137.543,80.626,134.846,80.863z"/>
					<path fill="none" stroke="#497E58" stroke-width="3" stroke-miterlimit="10" d="M134.846,80.863l-20.599,1.895l-3.823-21.478
						c-0.496-2.827-3.055-4.987-5.72-4.813l-14.726,1c-2.668,0.188-4.473,2.711-4.023,5.622l3.474,22.131l-20.77,2.208
						c-2.729,0.301-4.61,2.963-4.192,5.942l2.326,16.389c0.426,2.962,3.027,5.041,5.804,4.654l21.12-2.858l3.673,21.76
						c0.488,2.844,3.167,4.775,5.976,4.326l15.504-2.445c2.806-0.437,4.646-3.021,4.11-5.771l-4.024-21.109l20.95-2.545
						c2.742-0.322,4.508-2.768,3.939-5.468L140.74,85.36C140.182,82.64,137.543,80.626,134.846,80.863z"/>
				</g>
			</g>
		</g>
	</g>
</g>
</svg>
