<?xml version="1.0" encoding="utf-8"?>
<!-- Generator: Adobe Illustrator 15.0.0, SVG Export Plug-In . SVG Version: 6.00 Build 0)  -->
<!DOCTYPE svg PUBLIC "-//W3C//DTD SVG 1.1//EN" "http://www.w3.org/Graphics/SVG/1.1/DTD/svg11.dtd">
<svg version="1.1" id="Layer_1" xmlns="http://www.w3.org/2000/svg" xmlns:xlink="http://www.w3.org/1999/xlink" x="0px" y="0px"
	 width="200px" height="200px" viewBox="0 0 200 200" enable-background="new 0 0 200 200" xml:space="preserve">
<g id="icon">
	<g id="Layer_2">
	</g>
	<g id="Layer_1_1_">
		<g>
			
				<linearGradient id="SVGID_1_" gradientUnits="userSpaceOnUse" x1="492.7412" y1="-708.5879" x2="586.9681" y2="-806.9479" gradientTransform="matrix(0.9245 -0.106 0.1001 -1.0931 -329.5992 -660.6893)">
				<stop  offset="0" style="stop-color:#860A00"/>
				<stop  offset="1" style="stop-color:#320000"/>
			</linearGradient>
			<path fill="url(#SVGID_1_)" d="M129.548,71.759c24.445,23.816,18.468,71.204,18.468,71.204
				c-1.387,1.418-10.637,8.309-12.136,9.535c-22.495,18.447-57.133,16.197-80.048-6.131C32.91,124.04,29.849,89.556,47.81,66.695
				c1.196-1.524,6.695-8.003,8.077-9.416C55.887,57.279,105.102,47.943,129.548,71.759z"/>
			
				<linearGradient id="SVGID_2_" gradientUnits="userSpaceOnUse" x1="242.3496" y1="-602.9316" x2="297.0161" y2="-738.2653" gradientTransform="matrix(1 0 0 -1 -150 -530)">
				<stop  offset="0" style="stop-color:#FF0000"/>
				<stop  offset="0.1674" style="stop-color:#F60000"/>
				<stop  offset="0.4388" style="stop-color:#DE0000"/>
				<stop  offset="0.7785" style="stop-color:#B70000"/>
				<stop  offset="1" style="stop-color:#9A0000"/>
			</linearGradient>
			<path fill="url(#SVGID_2_)" d="M143.782,57.225c24.93,24.288,26.821,62.673,4.233,85.738
				c-22.596,23.066-61.118,22.075-86.045-2.207c-24.932-24.287-26.821-62.677-4.229-85.742
				C80.332,31.948,118.855,32.938,143.782,57.225z"/>
			<path fill="#FFFFFF" stroke="#A4321C" stroke-width="3" stroke-miterlimit="10" d="M116.758,62.857l-13.101,15.714L87.319,63.843
				c-2.144-1.941-5.298-1.928-7.038,0.048l-9.59,10.947c-1.733,1.988-1.379,5.272,0.787,7.315l16.51,15.497L74.97,113.736
				c-1.704,2.121-1.313,5.568,0.874,7.688l12.055,11.646c2.184,2.1,5.314,1.99,6.996-0.233l12.847-16.854l16.412,15.062
				c2.148,1.962,5.242,1.68,6.906-0.618l9.209-12.649c1.672-2.283,1.305-5.641-0.821-7.495l-16.243-14.294L136.133,79.5
				c1.699-2.149,1.369-5.337-0.744-7.129l-11.676-9.94C121.594,60.619,118.479,60.807,116.758,62.857z"/>
		</g>
	</g>
</g>
</svg>
