<?xml version="1.0" encoding="utf-8"?>
<!-- Generator: Adobe Illustrator 15.0.0, SVG Export Plug-In . SVG Version: 6.00 Build 0)  -->
<!DOCTYPE svg PUBLIC "-//W3C//DTD SVG 1.1//EN" "http://www.w3.org/Graphics/SVG/1.1/DTD/svg11.dtd">
<svg version="1.1" id="Layer_1" xmlns="http://www.w3.org/2000/svg" xmlns:xlink="http://www.w3.org/1999/xlink" x="0px" y="0px"
	 width="200px" height="200px" viewBox="0 0 200 200" enable-background="new 0 0 200 200" xml:space="preserve">
<g id="icon">
	<g id="Layer_2">
	</g>
	<g id="Layer_1_1_">
		<g>
			<g>
				
					<linearGradient id="SVGID_1_" gradientUnits="userSpaceOnUse" x1="492.7412" y1="-708.5869" x2="586.9688" y2="-806.9476" gradientTransform="matrix(0.9245 -0.106 0.1001 -1.0931 -329.5992 -660.6893)">
					<stop  offset="0" style="stop-color:#70AB00"/>
					<stop  offset="1" style="stop-color:#284700"/>
				</linearGradient>
				<path fill="url(#SVGID_1_)" d="M129.548,71.758c24.444,23.816,18.468,71.204,18.468,71.204
					c-1.387,1.418-10.637,8.308-12.137,9.535c-22.494,18.448-57.132,16.198-80.047-6.131C32.91,124.039,29.849,89.555,47.81,66.694
					c1.196-1.524,6.695-8.003,8.077-9.416C55.887,57.278,105.102,47.942,129.548,71.758z"/>
				
					<linearGradient id="SVGID_2_" gradientUnits="userSpaceOnUse" x1="242.3496" y1="-602.9316" x2="297.0163" y2="-738.2656" gradientTransform="matrix(1 0 0 -1 -150 -530)">
					<stop  offset="0.1758" style="stop-color:#96DC00"/>
					<stop  offset="1" style="stop-color:#366100"/>
				</linearGradient>
				<path fill="url(#SVGID_2_)" d="M143.781,57.224c24.931,24.288,26.822,62.674,4.234,85.738
					c-22.596,23.067-61.118,22.076-86.045-2.207c-24.932-24.287-26.821-62.677-4.229-85.742
					C80.332,31.947,118.855,32.937,143.781,57.224z"/>
				<g>
					<path fill="#FFFFFF" d="M113.018,139.239c-1.265,0-2.352-0.449-3.145-1.298l-0.083-0.1c-2.834-3.603-6.045-7.687-10.203-18.445
						c-2.982-7.724-4.352-14.56-5.169-18.644c-0.194-0.967-0.373-1.858-0.532-2.549l-12.749,2.771
						c-0.58,0.125-1.145,0.188-1.679,0.188c-2.11,0-3.828-0.98-4.836-2.761c-1.216-2.148-1.196-5.21,0.047-7.28l17.115-28.498
						c1.282-2.133,3.507-3.406,5.951-3.406c1.414,0,2.794,0.433,3.992,1.25l27.571,18.808c2.132,1.454,3.396,4.677,2.876,7.335
						c-0.427,2.188-1.98,3.725-4.262,4.218l-12.754,2.767c0.189,0.846,0.421,1.803,0.673,2.848
						c1.151,4.763,2.728,11.286,3.155,18.625c0.396,6.858,0.205,14.977-0.48,20.195C118.208,137.54,115.361,139.239,113.018,139.239
						z"/>
					<path fill="#497E58" d="M97.735,60.719c1.073,0,2.166,0.32,3.146,0.989l27.572,18.809c2.66,1.814,3.859,7.827-0.857,8.848
						l-14.207,3.082c0.807,4.344,3.527,12.854,4.104,22.712c0.389,6.702,0.214,14.698-0.474,19.913
						c-0.174,1.33-2.188,2.668-4.002,2.668c-0.771,0-1.504-0.24-2.049-0.822c-2.953-3.755-6.006-7.77-9.982-18.061
						c-4.317-11.188-5.167-20.318-6.048-22.415L80.82,99.508c-0.488,0.105-0.941,0.155-1.36,0.155c-4.327,0-5.011-5.257-3.503-7.769
						L93.07,63.397C94.114,61.661,95.896,60.72,97.735,60.719 M97.736,57.719L97.736,57.719c-2.977,0-5.682,1.545-7.237,4.132
						l-17.116,28.5c-1.504,2.505-1.531,6.202-0.066,8.791c1.268,2.238,3.506,3.522,6.142,3.522c0.641,0,1.312-0.075,1.996-0.225
						l11.279-2.447c0.071,0.351,0.144,0.71,0.214,1.059c0.827,4.131,2.212,11.047,5.24,18.887
						c3.928,10.164,6.919,14.379,10.423,18.834l0.078,0.104l0.088,0.093c1.068,1.146,2.574,1.774,4.24,1.774
						c3.031,0,6.562-2.12,6.978-5.277c0.696-5.306,0.894-13.531,0.491-20.479c-0.438-7.478-2.03-14.072-3.194-18.894
						c-0.114-0.47-0.224-0.921-0.326-1.352l11.267-2.444c2.896-0.626,4.869-2.593,5.416-5.396c0.638-3.257-0.871-7.066-3.504-8.862
						L102.572,59.23C101.125,58.242,99.452,57.719,97.736,57.719L97.736,57.719z"/>
				</g>
			</g>
		</g>
	</g>
</g>
</svg>
