<?xml version="1.0" encoding="utf-8"?>
<!-- Generator: Adobe Illustrator 15.0.0, SVG Export Plug-In . SVG Version: 6.00 Build 0)  -->
<!DOCTYPE svg PUBLIC "-//W3C//DTD SVG 1.1//EN" "http://www.w3.org/Graphics/SVG/1.1/DTD/svg11.dtd">
<svg version="1.1" id="Layer_1" xmlns="http://www.w3.org/2000/svg" xmlns:xlink="http://www.w3.org/1999/xlink" x="0px" y="0px"
	 width="200px" height="200px" viewBox="0 0 200 200" enable-background="new 0 0 200 200" xml:space="preserve">
<g id="icon">
	<g id="Layer_2">
	</g>
	<g id="Layer_1_1_">
		<g>
			<g>
				
					<linearGradient id="SVGID_1_" gradientUnits="userSpaceOnUse" x1="490.0195" y1="-708.3247" x2="584.2459" y2="-806.6841" gradientTransform="matrix(0.9245 -0.106 0.1001 -1.0931 -329.5992 -660.6893)">
					<stop  offset="0" style="stop-color:#08A4FF"/>
					<stop  offset="1" style="stop-color:#00497E"/>
				</linearGradient>
				<path fill="url(#SVGID_1_)" d="M127.059,71.759c24.445,23.816,18.469,71.204,18.469,71.204
					c-1.387,1.418-10.637,8.309-12.137,9.535c-22.494,18.447-57.133,16.199-80.048-6.131C30.421,124.04,27.359,89.556,45.32,66.695
					c1.196-1.524,6.695-8.003,8.077-9.416C53.397,57.279,102.611,47.943,127.059,71.759z"/>
				
					<linearGradient id="SVGID_2_" gradientUnits="userSpaceOnUse" x1="239.8604" y1="-602.9307" x2="294.5269" y2="-738.2645" gradientTransform="matrix(1 0 0 -1 -150 -530)">
					<stop  offset="0.1758" style="stop-color:#08A4FF"/>
					<stop  offset="1" style="stop-color:#367CBD"/>
				</linearGradient>
				<path fill="url(#SVGID_2_)" d="M141.293,57.225c24.93,24.288,26.822,62.673,4.232,85.738
					c-22.592,23.068-61.114,22.076-86.044-2.207C34.55,116.469,32.66,78.079,55.252,55.014
					C77.843,31.948,116.366,32.938,141.293,57.225z"/>
				<g>
					<path fill="#FFFFFF" d="M102.209,128.655c-2.532,0-4.88-1.076-6.126-2.808c-0.81-1.123-1.573-3.066-0.614-5.938l4.635-13.854
						c-7.297-2.938-15.453-4.855-23.684-5.572c-1.819-0.157-3.623-0.234-5.514-0.234c-1.371,0-2.582,0.039-3.653,0.074
						c-0.879,0.028-1.667,0.053-2.373,0.053c-2.775,0-5.58-0.328-6.713-4.252c-1.15-3.991-1.23-7.144-0.237-9.369
						c1.047-2.346,4.833-3.943,12.275-5.179c4.679-0.777,9.497-1.171,14.318-1.171c7.886,0,15.843,1.073,23.11,3.111l4.65-13.91
						c0.869-2.605,2.906-4.099,5.585-4.099c2.784,0,5.801,1.715,7.014,3.99l17.394,32.644c1.014,1.896,1.199,4.032,0.531,6.021
						c-0.664,1.976-2.097,3.555-4.031,4.446l-33.459,15.418C104.42,128.438,103.346,128.655,102.209,128.655L102.209,128.655z"/>
					<g>
						<path fill="#427796" d="M117.869,67.006c2.277,0,4.744,1.423,5.689,3.196l17.394,32.641c1.68,3.151,0.424,6.911-2.806,8.399
							l-33.457,15.419c-0.709,0.325-1.578,0.494-2.48,0.494c-3.216,0-6.87-2.125-5.317-6.771l5.079-15.184
							c-6.892-2.927-15.538-5.355-25.421-6.213c-2.128-0.186-3.999-0.24-5.644-0.24c-2.49,0-4.462,0.127-6.026,0.127
							c-2.988,0-4.491-0.465-5.271-3.168c-0.656-2.275-1.415-5.863-0.309-8.342c1.068-2.396,7.387-3.688,11.151-4.312
							c4.689-0.779,9.413-1.151,14.072-1.151c8.438,0,16.663,1.22,24.077,3.454l5.106-15.277
							C114.447,67.864,116.102,67.006,117.869,67.006 M117.869,64.006c-3.316,0-5.938,1.916-7.008,5.125l-4.201,12.567
							c-7.02-1.832-14.611-2.793-22.137-2.793c-4.903,0-9.804,0.401-14.563,1.191c-8.102,1.345-12.108,3.154-13.399,6.047
							c-1.143,2.558-1.087,6.056,0.165,10.396c1.541,5.337,5.843,5.337,8.154,5.337c0.74,0,1.557-0.026,2.421-0.054
							c1.062-0.034,2.265-0.073,3.605-0.073c1.847,0,3.608,0.075,5.384,0.229c7.593,0.656,15.118,2.359,21.938,4.953l-4.182,12.504
							c-0.906,2.709-0.615,5.299,0.819,7.291c1.546,2.146,4.291,3.43,7.343,3.43c1.351,0,2.644-0.266,3.733-0.771l33.461-15.42
							c2.312-1.064,4.027-2.96,4.826-5.331c0.801-2.381,0.576-4.938-0.631-7.202L126.203,68.79
							C124.729,66.018,121.223,64.006,117.869,64.006L117.869,64.006z"/>
					</g>
				</g>
			</g>
		</g>
	</g>
</g>
</svg>
