<?xml version="1.0" encoding="utf-8"?>
<!-- Generator: Adobe Illustrator 15.0.0, SVG Export Plug-In . SVG Version: 6.00 Build 0)  -->
<!DOCTYPE svg PUBLIC "-//W3C//DTD SVG 1.1//EN" "http://www.w3.org/Graphics/SVG/1.1/DTD/svg11.dtd">
<svg version="1.1" id="Layer_1" xmlns="http://www.w3.org/2000/svg" xmlns:xlink="http://www.w3.org/1999/xlink" x="0px" y="0px"
	 width="200px" height="200px" viewBox="0 0 200 200" enable-background="new 0 0 200 200" xml:space="preserve">
<g id="icon">
	<g id="Layer_2">
	</g>
	<g id="Layer_1_1_">
		<g>
			
				<linearGradient id="SVGID_1_" gradientUnits="userSpaceOnUse" x1="492.5771" y1="-707.0947" x2="586.8038" y2="-805.4542" gradientTransform="matrix(0.9245 -0.106 0.1001 -1.0931 -329.5992 -660.6893)">
				<stop  offset="0" style="stop-color:#08A4FF"/>
				<stop  offset="1" style="stop-color:#00497E"/>
			</linearGradient>
			<path fill="url(#SVGID_1_)" d="M129.548,70.145c24.445,23.816,18.468,71.205,18.468,71.205
				c-1.387,1.418-10.638,8.31-12.136,9.535c-22.496,18.447-57.133,16.199-80.049-6.132c-22.922-22.327-25.982-56.812-8.021-79.672
				c1.195-1.524,6.695-8.003,8.076-9.416C55.886,55.665,105.102,46.329,129.548,70.145z"/>
			
				<linearGradient id="SVGID_2_" gradientUnits="userSpaceOnUse" x1="242.3506" y1="-601.3154" x2="297.0182" y2="-736.6517" gradientTransform="matrix(1 0 0 -1 -150 -530)">
				<stop  offset="0.1758" style="stop-color:#08A4FF"/>
				<stop  offset="1" style="stop-color:#367CBD"/>
			</linearGradient>
			<path fill="url(#SVGID_2_)" d="M143.782,55.61c24.93,24.288,26.821,62.674,4.233,85.738
				c-22.596,23.069-61.119,22.077-86.046-2.207c-24.931-24.287-26.82-62.677-4.229-85.742
				C80.331,30.334,118.854,31.323,143.782,55.61z"/>
			<g>
				<path fill="#FFFFFF" d="M73.21,128.377c-0.786,0-1.428-0.544-1.953-1.075c-10.82-10.985-14.708-26.949-10.147-41.66
					c5.448-17.571,21.458-29.377,39.84-29.377c4.178,0,8.338,0.633,12.364,1.881c10.908,3.383,19.951,11.119,25.02,21.339
					l8.085-3.505c0.671-0.291,1.347-0.438,2.006-0.438c1.498,0,2.847,0.747,3.796,2.104c1.151,1.644,1.512,3.885,0.896,5.58
					l-9.151,25.11c-0.864,2.372-3.024,3.905-5.504,3.905c-0.812,0-1.608-0.166-2.37-0.495l-24.441-10.543
					c-2.037-0.877-3.635-3.286-3.639-5.485c-0.002-1.958,1.182-3.594,3.244-4.488l9.54-4.136c-0.005-0.141-0.004-0.282,0.003-0.426
					c-1.49-3.815-4.049-6.903-7.609-9.18c-4.024-2.574-8.76-3.934-13.687-3.934c-13.093,0-25.887,9.421-29.76,21.916
					c-3.022,9.747-1.527,20.231,4.102,28.767c0.993,1.509,1.232,2.49,0.801,3.291C74.361,128.051,73.812,128.377,73.21,128.377z"/>
				<path fill="#427796" d="M100.949,57.764c3.945,0,7.953,0.584,11.921,1.814c11.442,3.549,20.149,11.742,24.729,21.859
					l9.416-4.082c0.502-0.218,0.973-0.315,1.407-0.315c2.651,0,4.037,3.589,3.281,5.67l-9.147,25.108
					c-0.664,1.822-2.314,2.92-4.098,2.92c-0.588,0-1.188-0.119-1.773-0.372l-24.441-10.543c-2.363-1.018-4.551-5.418-0.393-7.221
					L122.466,88c-0.168-0.49-0.209-1.016-0.146-1.555c-1.451-3.902-4.047-7.49-8.324-10.225c-4.486-2.868-9.482-4.17-14.493-4.17
					c-13.425-0.001-26.968,9.344-31.192,22.971c-3.273,10.557-1.362,21.479,4.282,30.038c0.728,1.104,0.924,1.815,0.618,1.815
					c-0.16,0-0.456-0.194-0.885-0.629c-10.064-10.22-14.328-25.502-9.783-40.162C67.891,68.835,83.789,57.766,100.949,57.764
					 M100.953,54.764h-0.004c-9.03,0.001-18.049,2.936-25.395,8.264c-7.601,5.513-13.091,13.179-15.878,22.169
					c-4.725,15.239-0.697,31.775,10.511,43.156c0.701,0.709,1.676,1.521,3.022,1.521c1.154,0,2.21-0.629,2.755-1.644
					c0.922-1.711,0.021-3.479-0.868-4.824c-5.381-8.159-6.811-18.184-3.922-27.497c3.687-11.893,15.863-20.86,28.325-20.86
					c4.709,0,9.041,1.245,12.879,3.698c2.979,1.904,5.197,4.419,6.608,7.49l-8.329,3.61c-2.64,1.145-4.15,3.282-4.147,5.867
					c0.004,2.798,1.958,5.747,4.547,6.862l24.439,10.542c0.949,0.407,1.947,0.614,2.964,0.614c3.116,0,5.83-1.92,6.913-4.892
					l9.15-25.109c0.773-2.135,0.343-4.929-1.076-6.955c-1.223-1.744-3.053-2.743-5.023-2.743c-0.867,0-1.742,0.189-2.604,0.563
					l-6.799,2.947c-5.354-9.958-14.418-17.475-25.266-20.838C109.587,55.42,105.279,54.764,100.953,54.764L100.953,54.764z"/>
			</g>
		</g>
	</g>
</g>
</svg>
