<?xml version="1.0" encoding="utf-8"?>
<!-- Generator: Adobe Illustrator 15.0.0, SVG Export Plug-In . SVG Version: 6.00 Build 0)  -->
<!DOCTYPE svg PUBLIC "-//W3C//DTD SVG 1.1//EN" "http://www.w3.org/Graphics/SVG/1.1/DTD/svg11.dtd">
<svg version="1.1" id="Layer_1" xmlns="http://www.w3.org/2000/svg" xmlns:xlink="http://www.w3.org/1999/xlink" x="0px" y="0px"
	 width="200px" height="200px" viewBox="0 0 200 200" enable-background="new 0 0 200 200" xml:space="preserve">
<g id="icon">
	<g id="Layer_2">
	</g>
	<g id="Layer_1_1_">
		<g>
			<g>
				
					<linearGradient id="SVGID_1_" gradientUnits="userSpaceOnUse" x1="433.5186" y1="89.1353" x2="460.6179" y2="27.3491" gradientTransform="matrix(0.9614 0.275 0.275 -0.9614 -350.4001 8.5905)">
					<stop  offset="0" style="stop-color:#70AB00"/>
					<stop  offset="1" style="stop-color:#284700"/>
				</linearGradient>
				<path fill="url(#SVGID_1_)" d="M38.867,88.839c-2.51-14.501-2.531-23.389,1.701-29.279c4.232-5.889,3.564-11.489,18.068-14
					l44.109,1.558c29.002-5.02,39.563,1.335,44.585,30.339l13.475,45.521c2.377,13.727-1.503,16.853-5.033,22.528
					c-3.933,6.323-12.479,9.149-27.758,11.794l-39.991,6.682c-29.004,5.021-38.764-1.887-43.783-30.893L38.867,88.839z"/>
			</g>
			<g>
				
					<linearGradient id="SVGID_2_" gradientUnits="userSpaceOnUse" x1="462.0293" y1="94.8037" x2="453.2816" y2="-56.8207" gradientTransform="matrix(0.9614 0.275 0.275 -0.9614 -350.4001 8.5905)">
					<stop  offset="0.1758" style="stop-color:#96DC00"/>
					<stop  offset="1" style="stop-color:#366100"/>
				</linearGradient>
				<path fill="url(#SVGID_2_)" d="M43.24,80.796c-5.021-29.002-0.084-35.548,28.92-40.568l36.959-4.152
					c29-5.021,39.562,1.333,44.584,30.338l7.404,43.146c5.021,29.006,0.283,34.682-28.726,39.697l-39.988,6.682
					c-29.004,5.021-38.764-1.889-43.785-30.893L43.24,80.796z"/>
			</g>
			<path fill="#FFFFFF" stroke="#497E58" stroke-width="3" stroke-miterlimit="10" d="M127.186,103.021
				c-4.711,0-8.912,2.172-11.668,5.562l-21.91-10.271c0.062-0.559,0.103-1.123,0.103-1.698c0-2.6-0.661-5.044-1.823-7.177
				l17.545-12.23c2.483,1.822,5.543,2.91,8.857,2.91c8.298,0,15.021-6.727,15.021-15.024c0-8.297-6.727-15.024-15.021-15.024
				s-15.021,6.727-15.021,15.024c0,2.604,0.662,5.051,1.828,7.187L87.689,84.61c-2.511-1.887-5.621-3.018-9.004-3.018
				c-8.299,0-15.024,6.727-15.024,15.024c0,8.297,6.726,15.024,15.024,15.024c5.434,0,10.179-2.896,12.817-7.218l21.154,9.853
				c-0.312,1.205-0.496,2.465-0.496,3.77c0,8.298,6.727,15.023,15.023,15.023c8.299,0,15.022-6.729,15.022-15.023
				S135.482,103.021,127.186,103.021z"/>
		</g>
	</g>
</g>
</svg>
