<?xml version="1.0" encoding="utf-8"?>
<!-- Generator: Adobe Illustrator 15.0.0, SVG Export Plug-In . SVG Version: 6.00 Build 0)  -->
<!DOCTYPE svg PUBLIC "-//W3C//DTD SVG 1.1//EN" "http://www.w3.org/Graphics/SVG/1.1/DTD/svg11.dtd">
<svg version="1.1" id="Layer_1" xmlns="http://www.w3.org/2000/svg" xmlns:xlink="http://www.w3.org/1999/xlink" x="0px" y="0px"
	 width="200px" height="200px" viewBox="0 0 200 200" enable-background="new 0 0 200 200" xml:space="preserve">
<g id="icon">
	<g id="Layer_2">
	</g>
	<g id="Layer_1_1_">
		<g>
			<g>
				
					<radialGradient id="SVGID_1_" cx="179.9336" cy="-673.5288" r="64.8421" gradientTransform="matrix(1 0 0 -1 -150 -530)" gradientUnits="userSpaceOnUse">
					<stop  offset="0.0859" style="stop-color:#FFFA00"/>
					<stop  offset="0.3558" style="stop-color:#FFE300"/>
					<stop  offset="0.6258" style="stop-color:#F7941E"/>
					<stop  offset="1" style="stop-color:#CA7C00"/>
				</radialGradient>
				<path fill="url(#SVGID_1_)" d="M43.71,86.353l20.928-8.817l5.622,31.455c5.379,15.384,34.055,44.327,46.211,39.864
					c12.147-4.461,28.53-23.111,14.614-56.791l-13.803-28.601l12.331-11.278l14.666,29.576
					c15.628,35.873,13.205,79.512-15.28,89.963c-5.242,1.922-19.881,1.737-25.269,1.58c-23.851-0.697-48.5-24.127-54.399-55.502
					L43.71,86.353z"/>
				
					<radialGradient id="SVGID_2_" cx="71.6255" cy="-2263.0713" r="46.008" gradientTransform="matrix(0.9849 -0.1733 -0.0689 -0.3918 -141.9781 -717.9619)" gradientUnits="userSpaceOnUse">
					<stop  offset="0.1595" style="stop-color:#FFFA00"/>
					<stop  offset="1" style="stop-color:#FFFA00;stop-opacity:0"/>
				</radialGradient>
				<path opacity="0.34" fill="url(#SVGID_2_)" enable-background="new    " d="M43.71,86.353l20.928-8.817l5.622,31.455
					c5.379,15.384,34.055,44.327,46.211,39.864c12.147-4.461,28.53-23.111,14.614-56.791l-13.803-28.601l12.331-11.278
					l14.666,29.576c15.628,35.873,13.205,79.512-15.28,89.963c-5.242,1.922-19.881,1.737-25.269,1.58
					c-23.851-0.697-48.5-24.127-54.399-55.502L43.71,86.353z"/>
				
					<radialGradient id="SVGID_3_" cx="583.7461" cy="640.2764" r="20.7227" gradientTransform="matrix(0.0637 0.998 1.3971 -0.0892 -805.4186 -410.0917)" gradientUnits="userSpaceOnUse">
					<stop  offset="0.1595" style="stop-color:#FFFA00"/>
					<stop  offset="1" style="stop-color:#FFFA00;stop-opacity:0"/>
				</radialGradient>
				<path opacity="0.52" fill="url(#SVGID_3_)" enable-background="new    " d="M43.71,86.353l20.928-8.817l5.622,31.455
					c5.379,15.384,34.055,44.327,46.211,39.864c12.147-4.461,28.53-23.111,14.614-56.791l-13.803-28.601l12.331-11.278
					l14.666,29.576c15.628,35.873,13.205,79.512-15.28,89.963c-5.242,1.922-19.881,1.737-25.269,1.58
					c-23.851-0.697-48.5-24.127-54.399-55.502L43.71,86.353z"/>
				
					<radialGradient id="SVGID_4_" cx="5807.9062" cy="-3591.1797" r="34.7238" gradientTransform="matrix(-0.7064 0.1639 0.153 0.8146 4670.959 2053.0063)" gradientUnits="userSpaceOnUse">
					<stop  offset="0.0859" style="stop-color:#FFFA00"/>
					<stop  offset="0.3558" style="stop-color:#FFE300"/>
					<stop  offset="0.6258" style="stop-color:#F7941E"/>
					<stop  offset="1" style="stop-color:#CA7C00"/>
				</radialGradient>
				<polygon fill="url(#SVGID_4_)" points="50.901,89.852 73.678,58.583 58.06,57.423 30.111,63.466 35.284,88.695 				"/>
				
					<radialGradient id="SVGID_5_" cx="174.8994" cy="-521.3047" r="52.7248" gradientTransform="matrix(1 0 0 -1 -150 -530)" gradientUnits="userSpaceOnUse">
					<stop  offset="0.0859" style="stop-color:#FFFA00"/>
					<stop  offset="0.3558" style="stop-color:#FFE300"/>
					<stop  offset="0.6258" style="stop-color:#F7941E"/>
					<stop  offset="1" style="stop-color:#CA7C00"/>
				</radialGradient>
				<polygon fill="url(#SVGID_5_)" points="45.735,64.621 73.678,58.583 58.06,57.423 30.111,63.466 				"/>
				
					<radialGradient id="SVGID_6_" cx="266.1309" cy="-562.2148" r="19.9256" gradientTransform="matrix(1 0 0 -1 -150 -530)" gradientUnits="userSpaceOnUse">
					<stop  offset="0.0859" style="stop-color:#FFFA00"/>
					<stop  offset="0.3558" style="stop-color:#FFE300"/>
					<stop  offset="0.6258" style="stop-color:#F7941E"/>
					<stop  offset="1" style="stop-color:#CA7C00"/>
				</radialGradient>
				<polygon fill="url(#SVGID_6_)" points="117.283,63.466 132.768,61.111 148.4,26.601 132.918,28.958 106.611,40.023 				"/>
				
					<radialGradient id="SVGID_7_" cx="174.8965" cy="-521.3145" r="52.7212" gradientTransform="matrix(1 0 0 -1 -150 -530)" gradientUnits="userSpaceOnUse">
					<stop  offset="0.0859" style="stop-color:#FFFA00"/>
					<stop  offset="0.3558" style="stop-color:#FFE300"/>
					<stop  offset="0.6258" style="stop-color:#F7941E"/>
					<stop  offset="1" style="stop-color:#CA7C00"/>
				</radialGradient>
				<polygon fill="url(#SVGID_7_)" points="122.094,37.666 148.4,26.601 132.918,28.958 106.611,40.023 				"/>
				
					<linearGradient id="SVGID_8_" gradientUnits="userSpaceOnUse" x1="256.9111" y1="-618.5723" x2="305.8616" y2="-715.0747" gradientTransform="matrix(1 0 0 -1 -150 -530)">
					<stop  offset="0.1902" style="stop-color:#FFFA00"/>
					<stop  offset="0.546" style="stop-color:#FFE300"/>
					<stop  offset="1" style="stop-color:#F7941E"/>
				</linearGradient>
				<path fill="url(#SVGID_8_)" d="M59.329,87.51l19.525-3.697l5.624,31.451c8.216,38.979,35.483,37.276,47.635,32.812
					c12.146-4.459,27.91-25.428,14.512-58.043l-13.857-28.921l17.041-7.633l13.859,28.919c15.621,35.87,0.209,77.084-28.275,87.536
					c-10.639,3.903-21.887,3.311-32.428-0.916c-17.678-7.088-33.482-25.963-38.007-50.057L59.329,87.51z"/>
				
					<linearGradient id="SVGID_9_" gradientUnits="userSpaceOnUse" x1="191.2617" y1="-556.5938" x2="174.4926" y2="-518.6165" gradientTransform="matrix(1 0 0 -1 -150 -530)">
					<stop  offset="0.1902" style="stop-color:#FFFA00"/>
					<stop  offset="0.546" style="stop-color:#FFE300"/>
					<stop  offset="1" style="stop-color:#F7941E"/>
				</linearGradient>
				<polygon fill="url(#SVGID_9_)" points="78.854,83.812 73.678,58.583 45.735,64.621 50.901,89.852 				"/>
				
					<linearGradient id="SVGID_10_" gradientUnits="userSpaceOnUse" x1="267.9971" y1="-522.7061" x2="251.2265" y2="-484.7258" gradientTransform="matrix(1 0 0 -1 -150 -530)">
					<stop  offset="0.1902" style="stop-color:#FFFA00"/>
					<stop  offset="0.546" style="stop-color:#FFE300"/>
					<stop  offset="1" style="stop-color:#F7941E"/>
				</linearGradient>
				<polygon fill="url(#SVGID_10_)" points="132.768,61.111 159.07,50.049 148.4,26.601 122.094,37.666 				"/>
				
					<radialGradient id="SVGID_11_" cx="-646.96" cy="-5301.1377" r="215.4527" gradientTransform="matrix(0.6296 -0.7769 -0.1445 -0.1171 -238.5493 -1041.8909)" gradientUnits="userSpaceOnUse">
					<stop  offset="0.0245" style="stop-color:#FFFA97"/>
					<stop  offset="1" style="stop-color:#FFFA00;stop-opacity:0"/>
				</radialGradient>
				<path fill="url(#SVGID_11_)" d="M163.668,82.397l-13.672-28.533l9.074-3.815L148.4,26.601l-26.31,11.065l10.677,23.445
					l13.854,28.921c13.396,32.616-2.363,53.584-14.515,58.043c-12.149,4.465-39.417,6.165-47.632-32.812L78.851,83.81l-5.176-25.229
					L45.733,64.62l5.166,25.23l8.518-1.84l5.539,30.949c4.525,24.093,20.329,42.968,38.007,50.057
					c10.541,4.227,21.789,4.819,32.43,0.918C163.877,159.48,179.289,118.268,163.668,82.397z"/>
			</g>
			
				<radialGradient id="SVGID_12_" cx="243.2969" cy="-530.9658" r="306.8052" gradientTransform="matrix(1 0 0 -1 -150 -530)" gradientUnits="userSpaceOnUse">
				<stop  offset="0.0859" style="stop-color:#FFFA00"/>
				<stop  offset="0.3558" style="stop-color:#FFE300"/>
				<stop  offset="0.6258" style="stop-color:#F7941E"/>
				<stop  offset="1" style="stop-color:#CA7C00"/>
			</radialGradient>
			<path fill="url(#SVGID_12_)" d="M65.575,86.329l8.104-1.536c0,0,5.092,34.326,9.859,45.355
				c4.769,11.031,16.516,26.834,41.878,25.479c17.379-0.927,28.701-16.854,30.461-30.979c1.762-14.125,2.645-23.188-6.262-41.184
				c-8.902-17.993-11.77-24.528-11.77-24.528l7.127-3.282c0,0,6.346,11.681,14.098,29.874c8.342,19.577,9.629,36.105,0,55.352
				c-8.133,16.253-21.246,24.896-36.979,25.088c-15.729,0.192-33.482-5.83-43.24-27.115C69.094,117.568,65.575,86.329,65.575,86.329
				z"/>
			
				<radialGradient id="SVGID_13_" cx="243.2969" cy="-530.9658" r="306.8052" gradientTransform="matrix(1 0 0 -1 -150 -530)" gradientUnits="userSpaceOnUse">
				<stop  offset="0.0859" style="stop-color:#FFFA00"/>
				<stop  offset="0.3558" style="stop-color:#FFE300"/>
				<stop  offset="0.6258" style="stop-color:#F7941E"/>
				<stop  offset="1" style="stop-color:#CA7C00"/>
			</radialGradient>
			<path fill="url(#SVGID_13_)" d="M65.575,86.329l8.104-1.536c0,0,5.092,34.326,9.859,45.355
				c4.769,11.031,16.516,26.834,41.878,25.479c17.379-0.927,28.701-16.854,30.461-30.979c1.762-14.125,2.645-23.188-6.262-41.184
				c-8.902-17.993-11.77-24.528-11.77-24.528l7.127-3.282c0,0,6.346,11.681,14.098,29.874c8.342,19.577,9.629,36.105,0,55.352
				c-8.133,16.253-21.246,24.896-36.979,25.088c-15.729,0.192-33.482-5.83-43.24-27.115C69.094,117.568,65.575,86.329,65.575,86.329
				z"/>
			<g>
				
					<radialGradient id="SVGID_14_" cx="145.1699" cy="-603.5684" r="12.7603" gradientTransform="matrix(1 0 0 -1 -150 -530)" gradientUnits="userSpaceOnUse">
					<stop  offset="0.0859" style="stop-color:#FFFA00"/>
					<stop  offset="0.3558" style="stop-color:#FFE300"/>
					<stop  offset="0.6258" style="stop-color:#F7941E"/>
					<stop  offset="1" style="stop-color:#CA7C00"/>
				</radialGradient>
				<path fill="url(#SVGID_14_)" d="M71.699,85.459c0,0,5.091,34.326,9.858,45.357c4.769,11.031,16.517,26.832,41.878,25.479
					c3.078-0.163,5.963-0.809,8.643-1.816c-2.107,0.625-4.328,1.025-6.662,1.15c-25.363,1.354-37.11-14.449-41.878-25.48
					c-4.768-11.028-9.859-45.354-9.859-45.354l-8.104,1.536c0,0,0.012,0.108,0.033,0.285L71.699,85.459z"/>
				
					<radialGradient id="SVGID_15_" cx="143.4082" cy="-603.5684" r="12.8877" gradientTransform="matrix(1 0 0 -1 -150 -530)" gradientUnits="userSpaceOnUse">
					<stop  offset="0.0859" style="stop-color:#FFFA00"/>
					<stop  offset="0.3558" style="stop-color:#FFE300"/>
					<stop  offset="0.6258" style="stop-color:#F7941E"/>
					<stop  offset="1" style="stop-color:#CA7C00"/>
				</radialGradient>
				<path fill="url(#SVGID_15_)" d="M159.07,85.532c-7.752-18.193-14.098-29.874-14.098-29.874l-1.875,0.863
					c0.842,1.571,6.812,12.826,13.989,29.678c8.345,19.578,10.406,36.107,0.777,55.352c-5.769,11.521-14.818,19.196-24.746,22.77
					c10.812-3.229,20.569-11.035,26.719-23.317C169.469,121.757,167.412,105.109,159.07,85.532z"/>
			</g>
			
				<linearGradient id="SVGID_16_" gradientUnits="userSpaceOnUse" x1="249.8379" y1="-690.0693" x2="250.0124" y2="-687.1907" gradientTransform="matrix(1 0 0 -1 -150 -530)">
				<stop  offset="0" style="stop-color:#F7941E"/>
				<stop  offset="1" style="stop-color:#834200"/>
			</linearGradient>
			<circle fill="url(#SVGID_16_)" cx="100.001" cy="157.369" r="2.531"/>
			
				<linearGradient id="SVGID_17_" gradientUnits="userSpaceOnUse" x1="285.3574" y1="-691.6118" x2="285.5319" y2="-688.7324" gradientTransform="matrix(1 0 0 -1 -150 -530)">
				<stop  offset="0" style="stop-color:#F7941E"/>
				<stop  offset="1" style="stop-color:#834200"/>
			</linearGradient>
			<circle fill="url(#SVGID_17_)" cx="135.521" cy="158.911" r="2.53"/>
			
				<linearGradient id="SVGID_18_" gradientUnits="userSpaceOnUse" x1="228.6904" y1="-665.4517" x2="228.865" y2="-662.5715" gradientTransform="matrix(1 0 0 -1 -150 -530)">
				<stop  offset="0" style="stop-color:#F7941E"/>
				<stop  offset="1" style="stop-color:#834200"/>
			</linearGradient>
			<circle fill="url(#SVGID_18_)" cx="78.853" cy="132.75" r="2.53"/>
			
				<linearGradient id="SVGID_19_" gradientUnits="userSpaceOnUse" x1="220.582" y1="-632.6982" x2="220.7566" y2="-629.8185" gradientTransform="matrix(1 0 0 -1 -150 -530)">
				<stop  offset="0" style="stop-color:#F7941E"/>
				<stop  offset="1" style="stop-color:#834200"/>
			</linearGradient>
			<circle fill="url(#SVGID_19_)" cx="70.745" cy="100" r="2.53"/>
			
				<linearGradient id="SVGID_20_" gradientUnits="userSpaceOnUse" x1="296.7031" y1="-603.5581" x2="296.8696" y2="-600.8116" gradientTransform="matrix(1 0 0 -1 -150 -530)">
				<stop  offset="0" style="stop-color:#F7941E"/>
				<stop  offset="1" style="stop-color:#834200"/>
			</linearGradient>
			<circle fill="url(#SVGID_20_)" cx="146.859" cy="70.981" r="2.415"/>
			
				<linearGradient id="SVGID_21_" gradientUnits="userSpaceOnUse" x1="308.9121" y1="-634.186" x2="309.0786" y2="-631.439" gradientTransform="matrix(1 0 0 -1 -150 -530)">
				<stop  offset="0" style="stop-color:#F7941E"/>
				<stop  offset="1" style="stop-color:#834200"/>
			</linearGradient>
			<circle fill="url(#SVGID_21_)" cx="159.068" cy="101.613" r="2.413"/>
			
				<linearGradient id="SVGID_22_" gradientUnits="userSpaceOnUse" x1="307.2695" y1="-665.3223" x2="307.436" y2="-662.5759" gradientTransform="matrix(1 0 0 -1 -150 -530)">
				<stop  offset="0" style="stop-color:#F7941E"/>
				<stop  offset="1" style="stop-color:#834200"/>
			</linearGradient>
			<circle fill="url(#SVGID_22_)" cx="157.426" cy="132.75" r="2.414"/>
		</g>
	</g>
</g>
</svg>
