<?xml version="1.0" encoding="utf-8"?>
<!-- Generator: Adobe Illustrator 15.0.0, SVG Export Plug-In . SVG Version: 6.00 Build 0)  -->
<!DOCTYPE svg PUBLIC "-//W3C//DTD SVG 1.1//EN" "http://www.w3.org/Graphics/SVG/1.1/DTD/svg11.dtd">
<svg version="1.1" id="Layer_1" xmlns="http://www.w3.org/2000/svg" xmlns:xlink="http://www.w3.org/1999/xlink" x="0px" y="0px"
	 width="200px" height="200px" viewBox="0 0 200 200" enable-background="new 0 0 200 200" xml:space="preserve">
<g id="icon">
	<g id="Layer_2">
	</g>
	<g id="Layer_1_1_">
		<g>
			<g>
				<g>
					
						<linearGradient id="SVGID_1_" gradientUnits="userSpaceOnUse" x1="250.1768" y1="-633.7812" x2="250.1768" y2="-667.9197" gradientTransform="matrix(1 0 0 -1 -150 -530)">
						<stop  offset="0" style="stop-color:#FF0000"/>
						<stop  offset="0.1674" style="stop-color:#F60000"/>
						<stop  offset="0.4388" style="stop-color:#DE0000"/>
						<stop  offset="0.7785" style="stop-color:#B70000"/>
						<stop  offset="1" style="stop-color:#9A0000"/>
					</linearGradient>
					<polygon fill="url(#SVGID_1_)" points="45.658,60.035 42.153,68.08 78.56,142 89.11,163.811 99.313,163.938 158.202,72.285 
						153.348,64.068 					"/>
					
						<linearGradient id="SVGID_2_" gradientUnits="userSpaceOnUse" x1="286.1113" y1="-530.6133" x2="210.1337" y2="-657.2424" gradientTransform="matrix(1 0 0 -1 -150 -530)">
						<stop  offset="0" style="stop-color:#FF0000"/>
						<stop  offset="0.1674" style="stop-color:#F60000"/>
						<stop  offset="0.4388" style="stop-color:#DE0000"/>
						<stop  offset="0.7785" style="stop-color:#B70000"/>
						<stop  offset="1" style="stop-color:#9A0000"/>
					</linearGradient>
					<path fill="url(#SVGID_2_)" d="M94.288,155.354c0.289,7.543-3.797,10.619-9.127,6.875L54.169,136.78
						c-5.33-3.744-9.883-12.896-10.173-20.438l-2.647-42.828c-0.289-7.543,3.797-10.619,9.127-6.873l33.766,24.244
						c5.33,3.744,9.883,12.896,10.174,20.438L94.288,155.354z"/>
					
						<linearGradient id="SVGID_3_" gradientUnits="userSpaceOnUse" x1="250.7246" y1="-671.9102" x2="291.0609" y2="-797.6094" gradientTransform="matrix(1 -0.0609 0 -1 -150 -619.2346)">
						<stop  offset="0" style="stop-color:#FF0000"/>
						<stop  offset="0.1674" style="stop-color:#F60000"/>
						<stop  offset="0.4388" style="stop-color:#DE0000"/>
						<stop  offset="0.7785" style="stop-color:#B70000"/>
						<stop  offset="1" style="stop-color:#9A0000"/>
					</linearGradient>
					<path fill="url(#SVGID_3_)" d="M94.36,155.885c-0.616,6.9,3.705,9.965,9.65,6.844l39.951-22.615
						c5.947-3.118,11.268-11.243,11.883-18.146l3.225-44.223c0.617-6.902-3.7-9.967-9.647-6.846l-42.677,21
						c-5.946,3.121-11.266,11.246-11.883,18.146L94.36,155.885z"/>
					
						<linearGradient id="SVGID_4_" gradientUnits="userSpaceOnUse" x1="260.2881" y1="-554.3711" x2="263.7275" y2="-541.8632" gradientTransform="matrix(1 0 0 -1 -150 -530)">
						<stop  offset="0" style="stop-color:#FF0000"/>
						<stop  offset="0.1674" style="stop-color:#F60000"/>
						<stop  offset="0.4388" style="stop-color:#DE0000"/>
						<stop  offset="0.7785" style="stop-color:#B70000"/>
						<stop  offset="1" style="stop-color:#9A0000"/>
					</linearGradient>
					<path fill="url(#SVGID_4_)" d="M51.585,55.832c-6.474,2.758-8.188,5.176-3.16,9.074L86.11,91.574
						c5.028,3.902,12.591,3.678,19.063,0.92l41.214-20.295c8.932-4.209,9.536-7.996,2.616-12.055l-34.551-20.57
						c-6.479-3.848-12.527-4.646-19.001-1.889L51.585,55.832z"/>
				</g>
				<path fill="#FFFFFF" d="M135.332,111.684c-0.382,4.224-3.361,9.117-6.652,10.945c-3.291,1.826-5.65-0.111-5.269-4.33
					c0.383-4.215,3.36-9.115,6.653-10.943C133.355,105.529,135.716,107.469,135.332,111.684z"/>
				<path fill="#FFFFFF" d="M70.837,103.025c0.248,4.133,3.025,8.967,6.203,10.805c3.18,1.838,5.555-0.02,5.309-4.148
					c-0.248-4.129-3.025-8.965-6.206-10.805C72.966,97.039,70.589,98.898,70.837,103.025z"/>
				<path fill="#FFFFFF" d="M50.929,119.467c0.535,3.779,3.051,8.143,5.618,9.752c2.568,1.607,4.216-0.152,3.683-3.928
					c-0.535-3.777-3.051-8.143-5.619-9.75C52.042,113.932,50.394,115.691,50.929,119.467z"/>
				<path fill="#FFFFFF" d="M135.626,60.502c2.457,2.391,1.713,5.5-1.651,6.951c-3.369,1.451-8.086,0.689-10.541-1.699
					c-2.453-2.387-1.716-5.5,1.653-6.951C128.452,57.352,133.175,58.113,135.626,60.502z"/>
				<path fill="#FFFFFF" d="M73.97,58.625c2.457,2.391,1.713,5.502-1.65,6.953c-3.369,1.449-8.088,0.689-10.542-1.701
					c-2.453-2.385-1.714-5.5,1.654-6.949C66.798,55.475,71.519,56.238,73.97,58.625z"/>
				<path fill="#FFFFFF" d="M103.1,73.928c2.606,2.527,1.85,5.896-1.688,7.529c-3.537,1.635-8.514,0.912-11.117-1.613
					c-2.604-2.521-1.848-5.895,1.689-7.529C95.519,70.68,100.499,71.404,103.1,73.928z"/>
				<path fill="#FFFFFF" d="M108.178,45.77c2.456,2.201,1.713,5.064-1.65,6.4c-3.367,1.336-8.086,0.635-10.542-1.564
					c-2.452-2.197-1.713-5.064,1.654-6.4C101.005,42.87,105.727,43.57,108.178,45.77z"/>
			</g>
		</g>
	</g>
</g>
</svg>
