<?xml version="1.0" encoding="utf-8"?>
<!-- Generator: Adobe Illustrator 15.0.0, SVG Export Plug-In . SVG Version: 6.00 Build 0)  -->
<!DOCTYPE svg PUBLIC "-//W3C//DTD SVG 1.1//EN" "http://www.w3.org/Graphics/SVG/1.1/DTD/svg11.dtd">
<svg version="1.1" id="Layer_1" xmlns="http://www.w3.org/2000/svg" xmlns:xlink="http://www.w3.org/1999/xlink" x="0px" y="0px"
	 width="200px" height="200px" viewBox="0 0 200 200" enable-background="new 0 0 200 200" xml:space="preserve">
<g id="icon">
	<g id="Layer_2">
	</g>
	<g id="Layer_1_1_">
		<g>
			<g>
				
					<radialGradient id="SVGID_1_" cx="725.8691" cy="2376.6113" r="4.8918" fx="727.5462" fy="2378.5679" gradientTransform="matrix(0.957 0.2902 -0.2902 0.957 66.7561 -2308.7593)" gradientUnits="userSpaceOnUse">
					<stop  offset="0.2147" style="stop-color:#FFE300"/>
					<stop  offset="1" style="stop-color:#F7941E"/>
				</radialGradient>
				<path fill="url(#SVGID_1_)" d="M70.734,172.59c0,0-3.694,3.121-5.184,3.918c-1.488,0.797,2.196,0.166,3.359,1.268
					c1.164,1.104,2.487,2.502,4.891,1.982c2.404-0.52,3.25-0.013,3.25-0.013l-2.41-5.224L70.734,172.59z"/>
				
					<radialGradient id="SVGID_2_" cx="725.6367" cy="2372.8633" r="3.097" fx="726.6985" fy="2374.1021" gradientTransform="matrix(0.957 0.2902 -0.2902 0.957 66.7561 -2308.7593)" gradientUnits="userSpaceOnUse">
					<stop  offset="0.2147" style="stop-color:#FFE300"/>
					<stop  offset="1" style="stop-color:#F7941E"/>
				</radialGradient>
				<path fill="url(#SVGID_2_)" d="M76.357,173.794c-0.305,1.011-2.243,1.317-4.325,0.687c-2.085-0.633-3.521-1.965-3.216-2.974
					c0.305-1.01,2.243-1.317,4.324-0.687C75.224,171.454,76.666,172.785,76.357,173.794z"/>
				
					<radialGradient id="SVGID_3_" cx="722.9561" cy="2280.8428" r="65.1389" fx="710.1805" fy="2254.6838" gradientTransform="matrix(0.957 0.2902 -0.2902 0.957 67.6536 -2308.3237)" gradientUnits="userSpaceOnUse">
					<stop  offset="0.2147" style="stop-color:#FFE300"/>
					<stop  offset="1" style="stop-color:#F7941E"/>
				</radialGradient>
				<path fill="url(#SVGID_3_)" d="M122.553,142.252c4.545-4.479,9.852-8.501,12.445-10.513
					c9.229-7.157,16.406-17.146,20.057-29.175c9.357-30.863-8.076-63.475-38.941-72.833c-30.86-9.358-63.467,8.074-72.826,38.938
					c-3.647,12.03-3.225,24.322,0.476,35.4c1.045,3.123,3.449,9.277,4.658,15.572c1.232,6.422,1.342,9.373,1.73,15.42
					c1.014,15.859,5.186,31.729,22.787,37.062c16.799,5.096,28.582-6.186,39.251-17.922
					C114.73,151.414,117.393,147.339,122.553,142.252z"/>
				
					<radialGradient id="SVGID_4_" cx="717.1641" cy="2268.2002" r="37.8838" fx="703.9988" fy="2258.2593" gradientTransform="matrix(0.957 0.2902 -0.2902 0.957 66.7561 -2308.7593)" gradientUnits="userSpaceOnUse">
					<stop  offset="0.1648" style="stop-color:#FFEBBB"/>
					<stop  offset="1" style="stop-color:#FFEB86;stop-opacity:0"/>
				</radialGradient>
				<path fill="url(#SVGID_4_)" d="M131.105,81.021c-6.071,20.023-27.229,31.333-47.25,25.262
					c-20.021-6.072-31.332-27.225-25.259-47.248c6.069-20.022,27.222-31.333,47.25-25.261
					C125.868,39.846,137.177,60.999,131.105,81.021z"/>
				<defs>
					<filter id="Adobe_OpacityMaskFilter" filterUnits="userSpaceOnUse" x="54.233" y="114.484" width="53.121" height="57.29">
						<feColorMatrix  type="matrix" values="1 0 0 0 0  0 1 0 0 0  0 0 1 0 0  0 0 0 1 0"/>
					</filter>
				</defs>
				<mask maskUnits="userSpaceOnUse" x="54.233" y="114.484" width="53.121" height="57.29" id="SVGID_5_">
					<g filter="url(#Adobe_OpacityMaskFilter)">
						
							<linearGradient id="SVGID_6_" gradientUnits="userSpaceOnUse" x1="725.4141" y1="2367.1328" x2="725.4141" y2="2328.4424" gradientTransform="matrix(0.957 0.2902 -0.2902 0.957 66.7561 -2308.7593)">
							<stop  offset="0" style="stop-color:#FFFFFF"/>
							<stop  offset="0.0737" style="stop-color:#DEDEDE"/>
							<stop  offset="0.2168" style="stop-color:#A4A4A4"/>
							<stop  offset="0.36" style="stop-color:#727272"/>
							<stop  offset="0.4999" style="stop-color:#494949"/>
							<stop  offset="0.6359" style="stop-color:#292929"/>
							<stop  offset="0.7669" style="stop-color:#121212"/>
							<stop  offset="0.8908" style="stop-color:#050505"/>
							<stop  offset="1" style="stop-color:#000000"/>
						</linearGradient>
						<polygon fill="url(#SVGID_6_)" points="104.934,186.953 37.318,166.45 59.773,92.395 127.391,112.896 						"/>
					</g>
				</mask>
				
					<radialGradient id="SVGID_7_" cx="848.3057" cy="2342.6074" r="28.8408" gradientTransform="matrix(0.8737 0.2649 -0.2902 0.957 19.4548 -2323.4609)" gradientUnits="userSpaceOnUse">
					<stop  offset="0.4066" style="stop-color:#FF8B30"/>
					<stop  offset="0.4925" style="stop-color:#FB892F;stop-opacity:0"/>
				</radialGradient>
				<path mask="url(#SVGID_5_)" fill="url(#SVGID_7_)" d="M105.994,150.771c-4.623,15.242-19.654,24.178-33.57,19.957
					c-13.916-4.224-21.452-19.996-16.83-35.239c4.623-15.242,19.65-24.181,33.57-19.959
					C103.078,119.75,110.615,135.527,105.994,150.771z"/>
				
					<radialGradient id="SVGID_8_" cx="724.4199" cy="2342.084" r="28.2197" fx="734.0955" fy="2353.3718" gradientTransform="matrix(0.957 0.2902 -0.2902 0.957 66.7561 -2308.7593)" gradientUnits="userSpaceOnUse">
					<stop  offset="0.1648" style="stop-color:#FFEB5B"/>
					<stop  offset="1" style="stop-color:#FFEB86;stop-opacity:0"/>
				</radialGradient>
				<circle fill="url(#SVGID_8_)" cx="80.353" cy="142.842" r="28.213"/>
			</g>
			<path fill="#90278E" d="M116.334,120.105l9.396-9.396c0,0,3.109,14.4,13.146,17.521l-6.892,8.768
				C131.988,137,120.709,133.879,116.334,120.105z"/>
			<path fill="#BED63A" d="M50.321,103.312l-10.434-8.207c0,0,13.92-4.824,15.812-15.141l9.537,5.793
				C65.237,85.761,63.462,97.323,50.321,103.312z"/>
			<path fill="#EC297B" d="M29.677,168.361l2.807-5.801c0,0,3.719,6.106,8.799,5.938l-1.76,5.112
				C39.522,173.616,33.86,173.977,29.677,168.361z"/>
			<path fill="#EC297B" d="M61.983,124.038l2.807-5.797c0,0,3.719,6.108,8.799,5.944l-1.76,5.104
				C71.829,129.292,66.151,129.663,61.983,124.038z"/>
			
				<radialGradient id="SVGID_9_" cx="253.6211" cy="1326.2939" r="8.7667" gradientTransform="matrix(1 0 0 1 -200 -1182)" gradientUnits="userSpaceOnUse">
				<stop  offset="0" style="stop-color:#FF0000"/>
				<stop  offset="1" style="stop-color:#CF0000"/>
			</radialGradient>
			<path fill="url(#SVGID_9_)" d="M49.275,151.835l-5.495-7.969c0,0,10.75-0.354,14.303-7.113l5.379,6.103
				C63.462,142.854,59.726,150.516,49.275,151.835z"/>
			<path fill="#8BC53F" d="M98.786,175.598l2.466-8.492c0,0,6.441,7.406,13.307,6.027l-1.205,7.328
				C113.354,180.461,105.759,182.246,98.786,175.598z"/>
			<path fill="#FAAF40" d="M149.816,165.598l5.545-6.892c0,0,3.104,9.319,9.986,10.676l-3.943,6.293
				C161.404,175.675,153.719,174.421,149.816,165.598z"/>
			<path fill="#EC297B" d="M134.366,78.612l5.545-6.898c0,0,3.096,9.312,9.961,10.684l-3.927,6.293
				C145.945,88.69,138.259,87.421,134.366,78.612z"/>
			
				<radialGradient id="SVGID_10_" cx="229.9971" cy="1209.8262" r="8.1627" gradientTransform="matrix(1 0 0 1 -200 -1182)" gradientUnits="userSpaceOnUse">
				<stop  offset="0" style="stop-color:#FF0000"/>
				<stop  offset="1" style="stop-color:#CF0000"/>
			</radialGradient>
			<path fill="url(#SVGID_10_)" d="M27.805,35.434l-6.49-6.027c0,0,9.529-2.43,11.371-9.188l5.994,4.391
				C38.68,24.609,36.869,32.18,27.805,35.434z"/>
			
				<linearGradient id="SVGID_11_" gradientUnits="userSpaceOnUse" x1="344.1445" y1="1186.5859" x2="330.8602" y2="1243.4434" gradientTransform="matrix(1 0 0 1 -200 -1182)">
				<stop  offset="0" style="stop-color:#F0FFFF"/>
				<stop  offset="1" style="stop-color:#039DFF"/>
			</linearGradient>
			<path fill="url(#SVGID_11_)" d="M132.066,36.233l-2.59-8.461c0,0,9.455,2.641,14.428-2.273l3.021,6.781
				C146.926,32.28,141.547,37.952,132.066,36.233z"/>
			<path fill="#D6DE23" d="M160.672,51.753l-3.171-10.266c0,0,11.505,3.219,17.531-2.773l3.651,8.258
				C178.686,46.972,172.186,53.847,160.672,51.753z"/>
			<path fill="#FFF100" d="M52.193,26.055l6.724-6.734c0,0,2.241,10.32,9.421,12.543l-4.922,6.301
				C63.416,38.164,55.348,35.906,52.193,26.055z"/>
			<path fill="#37B34A" d="M143.379,166.301c0,2.281-1.844,4.141-4.135,4.141c-2.273,0-4.135-1.855-4.135-4.141
				c0-2.281,1.856-4.125,4.135-4.125C141.535,162.176,143.379,164.02,143.379,166.301z"/>
			<path fill="#EC297B" d="M113.693,132.875c0,2.281-1.842,4.125-4.125,4.125c-2.282,0-4.125-1.844-4.125-4.125
				c0-2.285,1.843-4.125,4.125-4.125C111.852,128.75,113.693,130.59,113.693,132.875z"/>
			<path fill="#1B75BB" d="M176.051,123.859c0,2.281-1.852,4.133-4.117,4.133c-2.309,0-4.146-1.852-4.146-4.133
				s1.842-4.125,4.146-4.125C174.199,119.734,176.051,121.578,176.051,123.859z"/>
			<path fill="#37B34A" d="M107.055,45.975c0,2.281-1.859,4.133-4.143,4.133c-2.284,0-4.126-1.852-4.126-4.133
				c0-2.281,1.844-4.125,4.126-4.125C105.193,41.85,107.055,43.693,107.055,45.975z"/>
			<path fill="#EC1C24" d="M44.465,54.965c0,2.273-1.843,4.133-4.125,4.133c-2.283,0-4.143-1.859-4.143-4.133
				c0-2.281,1.859-4.133,4.143-4.133C42.622,50.832,44.465,52.684,44.465,54.965z"/>
			<path fill="#EC1C24" d="M35.056,129.986c0,2.267-1.859,4.125-4.142,4.125c-2.267,0-4.126-1.858-4.126-4.125
				c0-2.288,1.859-4.133,4.126-4.133C33.196,125.854,35.056,127.698,35.056,129.986z"/>
		</g>
	</g>
</g>
</svg>
