<?xml version="1.0" encoding="utf-8"?>
<!-- Generator: Adobe Illustrator 15.0.0, SVG Export Plug-In . SVG Version: 6.00 Build 0)  -->
<!DOCTYPE svg PUBLIC "-//W3C//DTD SVG 1.1//EN" "http://www.w3.org/Graphics/SVG/1.1/DTD/svg11.dtd">
<svg version="1.1" id="Layer_1" xmlns="http://www.w3.org/2000/svg" xmlns:xlink="http://www.w3.org/1999/xlink" x="0px" y="0px"
	 width="200px" height="200px" viewBox="0 0 200 200" enable-background="new 0 0 200 200" xml:space="preserve">
<g id="icon">
	<g id="Layer_2">
	</g>
	<g id="Layer_1_1_">
		<g>
			
				<linearGradient id="SVGID_1_" gradientUnits="userSpaceOnUse" x1="1938.1904" y1="-2595.3594" x2="1940.5481" y2="-2612.8062" gradientTransform="matrix(0.7071 0.7072 0.7523 -0.7524 589.7025 -3103.4795)">
				<stop  offset="0" style="stop-color:#87511E"/>
				<stop  offset="1" style="stop-color:#EA9E31"/>
			</linearGradient>
			<path fill="url(#SVGID_1_)" d="M155.729,140.257c0,0-7.545,7.529-13.742,13.089c-23.793,21.334-61.938,18.791-88.021-7.218
				c-26.071-26.015-28.588-63.252-7.599-87.348c3.703-4.252,6.638-7.511,8.924-9.982c5.062-5.473,33.061,40.742,44.132,51.769
				C118.977,120.074,155.729,140.257,155.729,140.257z"/>
			
				<linearGradient id="SVGID_2_" gradientUnits="userSpaceOnUse" x1="4715.667" y1="-2679.4775" x2="4734.9863" y2="-2564.6982" gradientTransform="matrix(-0.2655 1.0124 0.9977 0.2032 3970.8491 -4165.6191)">
				<stop  offset="0" style="stop-color:#87511E"/>
				<stop  offset="0.1963" style="stop-color:#EA9E31"/>
				<stop  offset="1" style="stop-color:#E99A32"/>
			</linearGradient>
			<path fill="url(#SVGID_2_)" d="M37.042,72.96c-2.475,7.541-3.958,15.521-4.599,21.616L77.226,48.39
				c-0.711-2.387-1.557-5.342-2.511-8.172c-0.533-1.581-5.408-0.664-5.408-0.664L37.042,72.96z"/>
			
				<linearGradient id="SVGID_3_" gradientUnits="userSpaceOnUse" x1="4765.7158" y1="-2686.4395" x2="4785.4087" y2="-2569.4399" gradientTransform="matrix(-0.2655 1.0124 0.9977 0.2032 3970.8491 -4165.6191)">
				<stop  offset="0" style="stop-color:#87511E"/>
				<stop  offset="0.1963" style="stop-color:#EA9E31"/>
				<stop  offset="1" style="stop-color:#E99A32"/>
			</linearGradient>
			<path fill="url(#SVGID_3_)" d="M82.387,163.283c6.321,2.555,12.805,3.681,17.585,3.393l31.838-31.195
				c-1.463-3.256-5.215-7.188-9.263-11.644L82.387,163.283z"/>
			
				<linearGradient id="SVGID_4_" gradientUnits="userSpaceOnUse" x1="4901.7773" y1="-2767.4653" x2="4920.8496" y2="-2654.1533" gradientTransform="matrix(-0.2271 0.9739 0.9739 0.2271 3841.1255 -4036.0693)">
				<stop  offset="0" style="stop-color:#87511E"/>
				<stop  offset="0.1963" style="stop-color:#EA9E31"/>
				<stop  offset="1" style="stop-color:#E99A32"/>
			</linearGradient>
			<path fill="url(#SVGID_4_)" d="M120.628,165.3c8.155-1.668,12.511-3.815,18.604-9.909l15.668-14.312
				c-5.541,4.231-9.994,7.106-17.549,8.116L120.628,165.3z"/>
			
				<linearGradient id="SVGID_5_" gradientUnits="userSpaceOnUse" x1="4739.4824" y1="-2684.0303" x2="4759.3486" y2="-2566.0015" gradientTransform="matrix(-0.2655 1.0124 0.9977 0.2032 3970.8491 -4165.6191)">
				<stop  offset="0" style="stop-color:#87511E"/>
				<stop  offset="0.1963" style="stop-color:#EA9E31"/>
				<stop  offset="1" style="stop-color:#E99A32"/>
			</linearGradient>
			<path fill="url(#SVGID_5_)" d="M35.245,113.271c2.008,6.125,3.031,10.099,7.155,16.676l47.652-48.89
				c-2.771-4.234-5.719-9.578-8.772-15.216L35.245,113.271z"/>
			
				<linearGradient id="SVGID_6_" gradientUnits="userSpaceOnUse" x1="4757.6943" y1="-2686.9795" x2="4777.6685" y2="-2568.3096" gradientTransform="matrix(-0.2655 1.0124 0.9977 0.2032 3970.8491 -4165.6191)">
				<stop  offset="0" style="stop-color:#87511E"/>
				<stop  offset="0.1963" style="stop-color:#EA9E31"/>
				<stop  offset="1" style="stop-color:#E99A32"/>
			</linearGradient>
			<path fill="url(#SVGID_6_)" d="M52.849,144.207c4.7,5.288,7.331,7.417,13.422,10.536l45.387-45.372
				c-4.643-3.369-9.213-6.93-13.424-10.549L52.849,144.207z"/>
			
				<linearGradient id="SVGID_7_" gradientUnits="userSpaceOnUse" x1="1919.5332" y1="-2437.7847" x2="1919.5332" y2="-2585.2351" gradientTransform="matrix(0.7071 0.7071 0.7071 -0.7071 593.0917 -3107.7188)">
				<stop  offset="0" style="stop-color:#FFE300"/>
				<stop  offset="1" style="stop-color:#F7941E"/>
			</linearGradient>
			<path fill="url(#SVGID_7_)" d="M151.363,144.634c-23.651,23.705-64.373,21.474-90.923-4.993
				c-26.547-26.479-28.857-67.199-5.215-90.906c23.66-23.707,64.369-21.47,90.91,5.017
				C172.689,80.219,175.018,120.917,151.363,144.634z"/>
			<g>
				
					<linearGradient id="SVGID_8_" gradientUnits="userSpaceOnUse" x1="3986.4873" y1="-3900.8164" x2="4156.498" y2="-4097.7866" gradientTransform="matrix(0.0012 1 1 -0.0012 4037.4844 -3935.7949)">
					<stop  offset="0" style="stop-color:#FFE300"/>
					<stop  offset="1" style="stop-color:#F7941E"/>
				</linearGradient>
				<path fill="url(#SVGID_8_)" d="M105.994,160.887l-2.412-62.001l2.462-3.923l0.319-0.159l-0.252,0.039l0.117-0.18l-0.211,0.203
					l-4.576,0.791L44.427,64.484C37.866,77.995,38.924,88.1,38.924,88.1l60.104,7.979L41.101,107.07
					c1.52,8.421,7.071,16.527,7.071,16.527l54.559-27l0.572,0.079l-0.35-0.186l2.811-1.395l-2.25,2.081l-0.02-0.301l-0.092,0.409
					l-44.479,40.841c0,0,7.158,7.459,13.023,10.938l30.701-48.708l-14.084,56.958C88.567,157.312,96.628,160.846,105.994,160.887z"
					/>
				
					<linearGradient id="SVGID_9_" gradientUnits="userSpaceOnUse" x1="4836.4922" y1="-2658.0791" x2="5000.8306" y2="-2848.4773" gradientTransform="matrix(-0.2271 0.9739 0.9739 0.2271 3841.1255 -4036.0693)">
					<stop  offset="0" style="stop-color:#FFE300"/>
					<stop  offset="1" style="stop-color:#F7941E"/>
				</linearGradient>
				<path fill="url(#SVGID_9_)" d="M106.363,94.804l0.171-0.162l3.187-0.334l18.336,64.186c0,0,3.743,0.008,9.229-3.196
					c6.692-3.899,10.208-7.448,10.208-7.448L111.46,94.748l50.188,34.172c5.576-10.936,5.735-22.158,5.735-22.158l-53.321-12.897
					l51.201-5.32c-1.33-8.124-7.007-17.971-7.007-17.971l-48.094,22.274l-0.707-1.039l37.754-36.579c0,0-6.588-6.959-13.69-10.9
					l-24.771,46.037l-0.602-0.967l6.888-53.595c0,0-9.204-3.661-20.033-2.796l11.685,54.053L75.076,36.647
					c0,0-3.769,1.127-7.979,3.527c-4.525,2.611-9.491,6.483-9.491,6.483L107.2,89.483l0.583,2.682l-1.281,2.378l-0.271,0.12
					l0.222-0.016L106.363,94.804z M109.259,92.69l-0.579-0.136l0.424-0.409L109.259,92.69z M108.042,90.203l0.539,0.472
					l-0.791,1.475L108.042,90.203z M108.498,92.736l0.766,0.526l-2.515,1.164L108.498,92.736z"/>
			</g>
			
				<linearGradient id="SVGID_10_" gradientUnits="userSpaceOnUse" x1="1919.5303" y1="-2474.1226" x2="1919.5303" y2="-2593.6897" gradientTransform="matrix(0.7071 0.7071 0.7071 -0.7071 593.0917 -3107.7188)">
				<stop  offset="0" style="stop-color:#FFE300"/>
				<stop  offset="1" style="stop-color:#F7941E"/>
			</linearGradient>
			<path fill="url(#SVGID_10_)" d="M144.096,134.624c-19.183,19.222-52.375,17.188-74.159-4.515
				c-21.76-21.713-23.868-54.898-4.69-74.127c19.195-19.226,52.38-17.196,74.151,4.522
				C161.171,82.215,163.288,115.396,144.096,134.624z"/>
			
				<linearGradient id="SVGID_11_" gradientUnits="userSpaceOnUse" x1="1925.0762" y1="-2693.5718" x2="1914.2584" y2="-2529.5056" gradientTransform="matrix(0.7071 0.7071 0.7071 -0.7071 593.0917 -3107.7188)">
				<stop  offset="0" style="stop-color:#FFFFFF"/>
				<stop  offset="0.4839" style="stop-color:#FCFDFD"/>
				<stop  offset="0.7854" style="stop-color:#F4F5F8"/>
				<stop  offset="1" style="stop-color:#E8EAF1"/>
			</linearGradient>
			<path fill="url(#SVGID_11_)" d="M141.787,131.3c-17.409,17.449-47.874,15.211-68.095-4.946
				c-20.212-20.168-22.517-50.62-5.109-68.062c17.352-17.392,47.828-15.162,68.05,4.99C156.848,83.438,159.146,113.91,141.787,131.3
				z"/>
		</g>
	</g>
</g>
</svg>
