<?xml version="1.0" encoding="utf-8"?>
<!-- Generator: Adobe Illustrator 15.0.0, SVG Export Plug-In . SVG Version: 6.00 Build 0)  -->
<!DOCTYPE svg PUBLIC "-//W3C//DTD SVG 1.1//EN" "http://www.w3.org/Graphics/SVG/1.1/DTD/svg11.dtd">
<svg version="1.1" id="Layer_1" xmlns="http://www.w3.org/2000/svg" xmlns:xlink="http://www.w3.org/1999/xlink" x="0px" y="0px"
	 width="200px" height="200px" viewBox="0 0 200 200" enable-background="new 0 0 200 200" xml:space="preserve">
<g id="icon">
	<g id="Layer_2">
	</g>
	<g id="Layer_1_1_">
		<g>
			
				<radialGradient id="SVGID_1_" cx="292.5859" cy="1202.2939" r="19.2867" gradientTransform="matrix(1 0 0 1 -200 -1182)" gradientUnits="userSpaceOnUse">
				<stop  offset="0.2822" style="stop-color:#E1D7CB"/>
				<stop  offset="0.589" style="stop-color:#C6BCB0"/>
				<stop  offset="0.8282" style="stop-color:#796F63"/>
				<stop  offset="1" style="stop-color:#9B9185"/>
			</radialGradient>
			<path fill="url(#SVGID_1_)" d="M85.284,39.702c0,0-3.745-18.882-4.564-22.787c-0.82-3.905,15.53,12.09,15.908,14.038
				C97.004,32.901,85.284,39.702,85.284,39.702z"/>
			
				<radialGradient id="SVGID_2_" cx="65.5713" cy="1326.4219" r="6.4017" gradientTransform="matrix(1.0632 -0.0333 0.1202 0.9368 -149.4251 -1208.4276)" gradientUnits="userSpaceOnUse">
				<stop  offset="0.0184" style="stop-color:#E0D6C9"/>
				<stop  offset="0.4501" style="stop-color:#A3998C"/>
				<stop  offset="1" style="stop-color:#584E42"/>
			</radialGradient>
			<path fill="url(#SVGID_2_)" d="M83.812,36.775c0,0-1.924-14.558-2.461-17.11c-0.536-2.553,4.686,10.991,4.932,12.265
				C86.531,33.203,83.812,36.775,83.812,36.775z"/>
			
				<radialGradient id="SVGID_3_" cx="299.7363" cy="1343.3359" r="41.925" gradientTransform="matrix(1 0 0 1 -200 -1182)" gradientUnits="userSpaceOnUse">
				<stop  offset="0.4847" style="stop-color:#E0D6C9"/>
				<stop  offset="0.5713" style="stop-color:#DCD2C5"/>
				<stop  offset="0.6601" style="stop-color:#D0C6B9"/>
				<stop  offset="0.7498" style="stop-color:#BBB1A4"/>
				<stop  offset="0.8402" style="stop-color:#9E9488"/>
				<stop  offset="0.9303" style="stop-color:#7A7063"/>
				<stop  offset="1" style="stop-color:#584E42"/>
			</radialGradient>
			<path fill="url(#SVGID_3_)" d="M150.225,153.307c0,16.784-22.486,30.394-50.224,30.394c-27.739,0-50.226-13.604-50.226-30.394
				c0-0.918,0-9.207,0-9.207c2.275-15.509,24.004-21.184,50.226-21.184c26.429,0,48.237,5.501,50.224,21.184
				C150.225,144.1,150.225,152.514,150.225,153.307z"/>
			
				<radialGradient id="SVGID_4_" cx="171.4229" cy="1711.2725" r="68.8104" gradientTransform="matrix(0.9596 0 0 0.6579 -64.103 -963.3295)" gradientUnits="userSpaceOnUse">
				<stop  offset="0.4233" style="stop-color:#E2D8CC"/>
				<stop  offset="0.5195" style="stop-color:#DED4C8"/>
				<stop  offset="0.6181" style="stop-color:#D2C8BC"/>
				<stop  offset="0.7178" style="stop-color:#BDB3A7"/>
				<stop  offset="0.8183" style="stop-color:#A0968A"/>
				<stop  offset="0.9184" style="stop-color:#7C7266"/>
				<stop  offset="1" style="stop-color:#584E42"/>
			</radialGradient>
			<ellipse fill="url(#SVGID_4_)" cx="100" cy="144.1" rx="50.225" ry="30.391"/>
			
				<radialGradient id="SVGID_5_" cx="171.0254" cy="1905.6885" r="45.3883" gradientTransform="matrix(0.9596 0 0 0.5888 -64.103 -977.6904)" gradientUnits="userSpaceOnUse">
				<stop  offset="0" style="stop-color:#534C42"/>
				<stop  offset="0.0194" style="stop-color:#625B51"/>
				<stop  offset="0.0697" style="stop-color:#847C71"/>
				<stop  offset="0.1254" style="stop-color:#A1988D"/>
				<stop  offset="0.1871" style="stop-color:#B9AFA4"/>
				<stop  offset="0.2573" style="stop-color:#CBC1B6"/>
				<stop  offset="0.341" style="stop-color:#D7CEC2"/>
				<stop  offset="0.4513" style="stop-color:#DFD5C9"/>
				<stop  offset="0.6933" style="stop-color:#E1D7CB"/>
				<stop  offset="0.7446" style="stop-color:#DDD3C7"/>
				<stop  offset="0.7973" style="stop-color:#D1C7BB"/>
				<stop  offset="0.8505" style="stop-color:#BCB2A6"/>
				<stop  offset="0.9041" style="stop-color:#9F9589"/>
				<stop  offset="0.9575" style="stop-color:#7B7165"/>
				<stop  offset="1" style="stop-color:#584E42"/>
			</radialGradient>
			<ellipse fill="url(#SVGID_5_)" cx="100.012" cy="139.253" rx="45.691" ry="27.646"/>
			
				<radialGradient id="SVGID_6_" cx="84.2676" cy="1069.8584" r="58.1189" fx="84.1647" fy="1046.6923" gradientTransform="matrix(0.9866 -0.1633 0.2151 1.3001 -225.0227 -1294.0936)" gradientUnits="userSpaceOnUse">
				<stop  offset="0.2822" style="stop-color:#E1D7CB"/>
				<stop  offset="0.589" style="stop-color:#C6BCB0"/>
				<stop  offset="0.8282" style="stop-color:#796F63"/>
				<stop  offset="1" style="stop-color:#9B9185"/>
			</radialGradient>
			<path fill="url(#SVGID_6_)" d="M128.672,47.607C112.63,13.585,89.423,63.206,83.747,68.496c0,0,4.707,8.906-1.366,22.566
				c-7.611,15.027-19.315,19.877-19.315,19.877c0,7.043,1.417,13.769,3.996,19.938c1.715,4.104,4.07,9.021,8.058,13.824
				c4.475,5.387,13.98,9.312,25.194,9.312c11.345,0,21.086-3.91,25.34-9.508c3.74-4.89,6.671-10.354,8.447-14.964
				C136.341,123.745,148.665,90.01,128.672,47.607z"/>
			
				<linearGradient id="SVGID_7_" gradientUnits="userSpaceOnUse" x1="280.5293" y1="1247.084" x2="324.8262" y2="1247.084" gradientTransform="matrix(1 0 0 1 -200 -1182)">
				<stop  offset="0.0491" style="stop-color:#584E42"/>
				<stop  offset="1" style="stop-color:#584E42;stop-opacity:0"/>
			</linearGradient>
			<path fill="url(#SVGID_7_)" d="M83.747,68.496c0,0,4.707,8.906-1.366,22.566c-0.594,1.172-1.215,2.276-1.851,3.327
				c4.004-2.082,9.134-4.516,15.122-6.84c14.852-3.628,22.45-4.5,22.45-4.5c4.021-4.02,9.049-13.842,5.123-17.552
				c-7.018-6.635-5.771-31.585,0-24.2c0,0,2.209,1.101,1.438-0.351C108.999,21.31,88.966,63.632,83.747,68.496z"/>
			
				<radialGradient id="SVGID_8_" cx="3490.4482" cy="-6662.6406" r="40.299" fx="3490.377" fy="-6678.7041" gradientTransform="matrix(-0.7071 -0.7071 1.0178 -1.0178 9339.5674 -4250.499)" gradientUnits="userSpaceOnUse">
				<stop  offset="0.2822" style="stop-color:#E1D7CB"/>
				<stop  offset="0.589" style="stop-color:#C6BCB0"/>
				<stop  offset="0.8282" style="stop-color:#796F63"/>
				<stop  offset="1" style="stop-color:#9B9185"/>
			</radialGradient>
			<path fill="url(#SVGID_8_)" d="M52.127,86.623c-2.853,6.407,7.138,12.153,13.678,12.095c0,0,9.69-6.921,26.604-12.03
				c15.702-4.48,23.422-1.369,23.422-1.369c4.392-4.391,10.104-14.899,6.171-18.599c-7.036-6.617-4.584-32.776,1.116-25.316
				c0,0,4.714,2.191-1.688-4.211c-6.479-6.478-14.479-9.599-20.395-8.539c-5.186,0.914-10.267,2.65-14.153,4.508
				C81.983,35.504,56.987,75.7,52.127,86.623z"/>
			
				<radialGradient id="SVGID_9_" cx="3459.1367" cy="-6685.9199" r="40.2997" fx="3458.75" fy="-6686.7061" gradientTransform="matrix(-0.7071 -0.7071 1.0178 -1.0178 9344.3174 -4255.2471)" gradientUnits="userSpaceOnUse">
				<stop  offset="0.4233" style="stop-color:#584E42"/>
				<stop  offset="0.5231" style="stop-color:#887E72;stop-opacity:0.7609"/>
				<stop  offset="0.6183" style="stop-color:#AFA599;stop-opacity:0.5325"/>
				<stop  offset="0.7058" style="stop-color:#CAC0B4;stop-opacity:0.323"/>
				<stop  offset="0.7826" style="stop-color:#DBD1C5;stop-opacity:0.1388"/>
				<stop  offset="0.8405" style="stop-color:#E1D7CB;stop-opacity:0"/>
			</radialGradient>
			<path fill="url(#SVGID_9_)" d="M52.127,86.623c-2.853,6.407,7.138,12.153,13.678,12.095c0,0,9.69-6.921,26.604-12.03
				c15.702-4.48,23.422-1.369,23.422-1.369c4.392-4.391,10.104-14.899,6.171-18.599c-7.036-6.617-4.584-32.776,1.116-25.316
				c0,0,4.714,2.191-1.688-4.211c-6.479-6.478-14.479-9.599-20.395-8.539c-5.186,0.914-10.267,2.65-14.153,4.508
				C81.983,35.504,56.987,75.7,52.127,86.623z"/>
			
				<linearGradient id="SVGID_10_" gradientUnits="userSpaceOnUse" x1="300.7188" y1="1261.3584" x2="279.213" y2="1238.4407" gradientTransform="matrix(1 0 0 1 -200 -1182)">
				<stop  offset="0.4785" style="stop-color:#E1D7CB;stop-opacity:0"/>
				<stop  offset="1" style="stop-color:#E1D7CB"/>
			</linearGradient>
			<path fill="url(#SVGID_10_)" d="M52.127,86.623c-2.853,6.407,7.138,12.153,13.678,12.095c0,0,9.69-6.921,26.604-12.03
				c15.702-4.48,23.422-1.369,23.422-1.369c4.392-4.391,10.104-14.899,6.171-18.599c-7.036-6.617-4.584-32.776,1.116-25.316
				c0,0,4.714,2.191-1.688-4.211c-6.479-6.478-14.479-9.599-20.395-8.539c-5.186,0.914-10.267,2.65-14.153,4.508
				C81.983,35.504,56.987,75.7,52.127,86.623z"/>
			
				<radialGradient id="SVGID_11_" cx="-1913.752" cy="-120.9033" r="46.3931" fx="-1913.8341" fy="-139.3957" gradientTransform="matrix(-0.7071 -0.7071 0.9318 -0.9318 -1115.2521 -1393.5994)" gradientUnits="userSpaceOnUse">
				<stop  offset="0.2822" style="stop-color:#E1D7CB"/>
				<stop  offset="0.589" style="stop-color:#C6BCB0"/>
				<stop  offset="0.8282" style="stop-color:#796F63"/>
				<stop  offset="1" style="stop-color:#9B9185"/>
			</radialGradient>
			<path fill="url(#SVGID_11_)" d="M92.372,29.783c0,0,5.426-13.479,23.381-9.855c17.849,3.604,28.235,34.794,30.728,50.448
				c4.6,28.883-3.402,46.798-3.402,46.798h-5.241c0,0,4.067-15.574,0.753-37.431c-3.314-21.857-12.895-37.617-21.123-44.593
				c-13.014-11.026-21.812,1.625-21.812,1.625L92.372,29.783z"/>
			
				<radialGradient id="SVGID_12_" cx="290.3828" cy="1198.3184" r="48.7682" gradientTransform="matrix(1 0 0 1 -200 -1182)" gradientUnits="userSpaceOnUse">
				<stop  offset="0.2822" style="stop-color:#E1D7CB"/>
				<stop  offset="0.589" style="stop-color:#C6BCB0"/>
				<stop  offset="0.8282" style="stop-color:#796F63"/>
				<stop  offset="1" style="stop-color:#9B9185"/>
			</radialGradient>
			<path fill="url(#SVGID_12_)" d="M92.372,29.783c0,0,5.426-13.479,23.381-9.855c0,0-2.147-0.619-4.646-1.268
				c-13.772-3.582-25.375,9.399-25.375,9.399L92.372,29.783z"/>
			
				<radialGradient id="SVGID_13_" cx="-417.9614" cy="-1888.2495" r="18.8448" gradientTransform="matrix(-0.6454 0.9163 -0.4701 -0.5288 -1045.0347 -581.1437)" gradientUnits="userSpaceOnUse">
				<stop  offset="0.2822" style="stop-color:#E1D7CB"/>
				<stop  offset="0.589" style="stop-color:#C6BCB0"/>
				<stop  offset="0.8282" style="stop-color:#796F63"/>
				<stop  offset="1" style="stop-color:#9B9185"/>
			</radialGradient>
			<path fill="url(#SVGID_13_)" d="M119.716,25.773c-4.198,1.171-15.968,9.407-17.813,14.703c0,0,0.32,3.44,5.729,4.003
				c3.806,0.396,7.271-0.638,8.364-4.777C117.598,33.643,121.869,25.172,119.716,25.773z"/>
			
				<radialGradient id="SVGID_14_" cx="605.8438" cy="1023.4189" r="16.9986" gradientTransform="matrix(0.8595 0.0896 -0.2203 1.1405 -199.0588 -1182.1798)" gradientUnits="userSpaceOnUse">
				<stop  offset="0.0184" style="stop-color:#E0D6C9"/>
				<stop  offset="0.4501" style="stop-color:#A3998C"/>
				<stop  offset="1" style="stop-color:#584E42"/>
			</radialGradient>
			<path fill="url(#SVGID_14_)" d="M104.449,43.613c0,0-0.039-2.382,2.744-5.725c2.785-3.343,9.103-8.588,9.012-7.234
				c-0.089,1.353-1.521,9.998-2.453,11.716c-0.932,1.72-1.915,2.204-4.829,2.439C106.441,45.01,104.449,43.613,104.449,43.613z"/>
			
				<radialGradient id="SVGID_15_" cx="294.5781" cy="1205.5381" r="13.6464" gradientTransform="matrix(1 0 0 1 -200 -1182)" gradientUnits="userSpaceOnUse">
				<stop  offset="0.2822" style="stop-color:#E1D7CB"/>
				<stop  offset="0.589" style="stop-color:#C6BCB0"/>
				<stop  offset="0.8282" style="stop-color:#796F63"/>
				<stop  offset="1" style="stop-color:#9B9185"/>
			</radialGradient>
			<path fill="url(#SVGID_15_)" d="M95.651,36.775l-3.28-6.992l-6.641-1.724l2.504,6.114C88.235,34.173,93.993,35.375,95.651,36.775
				z"/>
			
				<radialGradient id="SVGID_16_" cx="300.1133" cy="1302.7852" r="5.6705" fx="300.1033" fy="1300.5248" gradientTransform="matrix(1 0 0 0.95 -200 -1179.073)" gradientUnits="userSpaceOnUse">
				<stop  offset="0.2822" style="stop-color:#E1D7CB"/>
				<stop  offset="0.589" style="stop-color:#C6BCB0"/>
				<stop  offset="0.8282" style="stop-color:#796F63"/>
				<stop  offset="1" style="stop-color:#9B9185"/>
			</radialGradient>
			<circle fill="url(#SVGID_16_)" cx="100.201" cy="59.572" r="4.42"/>
		</g>
	</g>
</g>
</svg>
