<?xml version="1.0" encoding="utf-8"?>
<!-- Generator: Adobe Illustrator 15.0.0, SVG Export Plug-In . SVG Version: 6.00 Build 0)  -->
<!DOCTYPE svg PUBLIC "-//W3C//DTD SVG 1.1//EN" "http://www.w3.org/Graphics/SVG/1.1/DTD/svg11.dtd">
<svg version="1.1" id="Layer_1" xmlns="http://www.w3.org/2000/svg" xmlns:xlink="http://www.w3.org/1999/xlink" x="0px" y="0px"
	 width="200px" height="200px" viewBox="0 0 200 200" enable-background="new 0 0 200 200" xml:space="preserve">
<g id="icon">
	<g id="Layer_2">
	</g>
	<g id="Layer_1_1_">
		<g>
			<g>
				
					<linearGradient id="SVGID_1_" gradientUnits="userSpaceOnUse" x1="250.499" y1="1300.3818" x2="373.3894" y2="1264.9288" gradientTransform="matrix(1 0 0 1 -200 -1182)">
					<stop  offset="0" style="stop-color:#FAB412"/>
					<stop  offset="0.3742" style="stop-color:#FFDF02"/>
					<stop  offset="0.4908" style="stop-color:#FFE300"/>
					<stop  offset="0.6007" style="stop-color:#FFDF02"/>
					<stop  offset="0.7182" style="stop-color:#FDD207"/>
					<stop  offset="0.8393" style="stop-color:#FBBC0F"/>
					<stop  offset="0.962" style="stop-color:#F89F1A"/>
					<stop  offset="1" style="stop-color:#F7941E"/>
				</linearGradient>
				<path fill="url(#SVGID_1_)" d="M162.107,109.876c-6.023-8.54-3.074-21.176-6.734-28.46
					c-8.562-30.869-39.863-48.896-68.219-49.68c-5.867-0.162-5.727-1.745-11.236-1.417c-4.256,0.368-6.621,2.132-9.398,4.763
					C47.268,43.936,44.301,54.25,35.144,66.829c-5.419,7.446-9.612,12.961-10.266,25.92c-1.267,25.06,15.942,45.001,39.032,57.252
					c2.881,2.433,7.02,5.854,9.488,8.276c10.357,10.152,24.549,18.039,40.204,18.47c32.041,0.881,59.75-14.97,61.438-33.841
					C176.213,129.734,172.156,124.114,162.107,109.876z"/>
				<path fill="#A65E1E" d="M174.877,142.387c0.152-1.688,0.207-3.305,0.182-4.869c-0.029,0.467-0.049,0.918-0.092,1.385
					c-1.715,19.133-29.674,35.211-62.002,34.342c-15.781-0.426-30.084-8.399-40.533-18.688c-2.49-2.453-5.332-4.924-8.244-7.383
					C41.616,135.15,24.837,115.484,24.92,90.92c-0.031,0.4-0.068,0.777-0.085,1.189c-1.297,25.392,15.986,46.146,39.257,58.542
					c2.912,2.472,5.758,4.942,8.246,7.392c10.441,10.276,24.748,18.258,40.535,18.681
					C145.199,177.589,173.156,161.509,174.877,142.387z"/>
				
					<radialGradient id="SVGID_2_" cx="319.6846" cy="1203.1289" r="67.0005" fx="319.5903" fy="1207.1078" gradientTransform="matrix(0.9996 0.0276 -0.0279 1.0096 -190.545 -1153.2634)" gradientUnits="userSpaceOnUse">
					<stop  offset="0.2147" style="stop-color:#FFE300"/>
					<stop  offset="1" style="stop-color:#F7941E"/>
				</radialGradient>
				<path fill="url(#SVGID_2_)" d="M95.209,146.645c34.777,0.957,61.264-10.136,63.783-47.664c-2.82-8.082-1.33-17.873-4.359-23.962
					c-8.547-31.185-39.85-49.377-68.203-50.164c-5.863-0.162-5.562-1.965-11.238-1.421c-4.25,0.41-6.621,2.156-9.396,4.813
					c-19.254,8.946-23.466,18.501-31.02,32.241c-0.187,0.333-0.37,0.655-0.56,0.974c-1.48,5.284-2.34,10.825-2.502,16.567
					C30.698,114.925,59.127,145.65,95.209,146.645z"/>
				<path fill="#A65E1E" d="M93.426,128.141l0.092-2.927c0.131-4.282-1.871-4.998-5.258-5.667l-4.49-0.679
					c-2.998-0.195-5.438-0.202-5.564,4.088l-0.109,3.635c-2.662,0.984-4.553,2.377-4.65,5.521l-0.211,6.854
					c-0.135,4.282,2.494,5.531,6.785,6.77l9.139,2.258c5.018,0.849,7.648-0.812,7.777-5.104l0.326-10.701
					C97.324,129.999,94.824,128.795,93.426,128.141z"/>
				
					<linearGradient id="SVGID_3_" gradientUnits="userSpaceOnUse" x1="284.8799" y1="1286.3633" x2="282.4601" y2="1357.9955" gradientTransform="matrix(1 0 0 1 -200 -1182)">
					<stop  offset="0" style="stop-color:#FFE300"/>
					<stop  offset="1" style="stop-color:#F7941E"/>
				</linearGradient>
				<path fill="url(#SVGID_3_)" d="M91.994,128.141l0.092-2.927c0.131-4.282-1.873-4.998-5.26-5.667l-4.488-0.679
					c-2.998-0.195-5.438-0.202-5.564,4.088l-0.111,3.635c-2.66,0.984-4.551,2.377-4.648,5.521l-0.211,6.854
					c-0.135,4.282,2.494,5.531,6.785,6.77l9.139,2.258c5.018,0.849,7.648-0.812,7.777-5.104l0.326-10.701
					C95.893,129.999,93.393,128.795,91.994,128.141z"/>
				<path fill="#A65E1E" d="M45.139,103.65l0.371-0.76c1.059-2.134,0.664-4.026-0.174-5.43l-4.567-6.629
					c-0.851-0.935-1.59-1.589-2.858,1.655l-1.077,2.754c-1.09,0.053-2.067,0.623-2.999,3.002l-0.627,1.574
					c-1.274,3.25-0.83,4.891,0.109,6.969l5.523,9.052c1.269,1.979,2.549,1.398,3.824-1.852l2.475-6.239
					C45.787,106.109,45.375,104.523,45.139,103.65z"/>
				
					<linearGradient id="SVGID_4_" gradientUnits="userSpaceOnUse" x1="252.5234" y1="1247.6338" x2="229.6067" y2="1306.0002" gradientTransform="matrix(1 0 0 1 -200 -1182)">
					<stop  offset="0" style="stop-color:#FFE300"/>
					<stop  offset="1" style="stop-color:#F7941E"/>
				</linearGradient>
				<path fill="url(#SVGID_4_)" d="M44.065,102.239l0.371-0.761c1.059-2.13,0.664-4.026-0.174-5.431l-4.567-6.629
					c-0.851-0.934-1.59-1.588-2.858,1.656L35.76,93.83c-1.09,0.053-2.067,0.623-2.999,3.002l-0.627,1.573
					c-1.274,3.251-0.83,4.892,0.109,6.969l5.523,9.052c1.269,1.98,2.549,1.4,3.824-1.85l2.475-6.24
					C44.712,104.698,44.301,103.109,44.065,102.239z"/>
				
					<linearGradient id="SVGID_5_" gradientUnits="userSpaceOnUse" x1="-4056.0186" y1="2040.4043" x2="-4029.8809" y2="2171.093" gradientTransform="matrix(-0.3187 0.2056 0.0326 0.9314 -1200.0171 -1018.4092)">
					<stop  offset="0" style="stop-color:#FFE300"/>
					<stop  offset="1" style="stop-color:#F7941E"/>
				</linearGradient>
				<path fill="url(#SVGID_5_)" d="M154.996,100.848l-0.357-5.677c-0.1-1.866-0.123-2.596,0.793-3.988c0,0,0.771-0.768,1.215-1.527
					c0.375-0.646,0.424-1.316,0.424-1.316c0.869-0.557,2.098-0.354,2.221,3.197l0.104,3.012c0.793,0.467,1.032,1.015,1.127,3.619
					l0.22,5.977c-0.017,2.533-0.404,4.236-1.24,6.357l-1.726,3.814c-0.832,1.838-3.375,2.822-3.498-0.729l-0.312-8.864
					C153.898,102.915,154.602,101.583,154.996,100.848z"/>
				<path fill="#A65E1E" d="M155.035,113.273l-0.312-8.866c-0.062-1.808,0.639-3.14,1.033-3.875l-0.357-5.675
					c-0.098-1.866-0.123-2.597,0.795-3.987c0,0,0.771-0.77,1.217-1.528c0.299-0.515,0.391-1.038,0.416-1.233
					c-0.262-0.011-0.521,0.08-0.756,0.23c0,0-0.049,0.67-0.424,1.316c-0.441,0.76-1.215,1.527-1.215,1.527
					c-0.916,1.393-0.893,2.122-0.793,3.988l0.357,5.676c-0.395,0.736-1.098,2.068-1.035,3.875l0.314,8.865
					c0.086,2.487,1.354,2.746,2.396,2.049C155.857,115.766,155.102,115.17,155.035,113.273z"/>
				
					<radialGradient id="SVGID_6_" cx="330.7686" cy="1195.8926" r="89.0464" gradientTransform="matrix(0.9996 0.0276 -0.0279 1.0096 -190.5699 -1153.2556)" gradientUnits="userSpaceOnUse">
					<stop  offset="0.2147" style="stop-color:#FFE300"/>
					<stop  offset="1" style="stop-color:#F7941E"/>
				</radialGradient>
				<path fill="url(#SVGID_6_)" d="M131.266,83.643c3.742-1.675,4.604-7.56,3.354-10.97c-6.986-19.011-21.174-34.723-35.578-42.72
					c-3.527-2.147-7.186-3.849-10.904-4.986c-2.734-0.683-5.166-1.251-5.727-1.353c-2.561-0.438-4.285-0.534-7.215-0.181
					c-3.824,0.466-6.146,1.832-8.604,4.067c21.379,2.26,41.91,23.402,50.974,50.633C119.105,82.778,124.641,86.507,131.266,83.643z"
					/>
				<path fill="#A65E1E" d="M113.82,70.96c-7.854-17.401-23.178-30.998-38.529-37.249c-3.762-1.709-10.135-3.437-16.465-1.831
					l7.762-4.38c21.379,2.26,41.91,23.402,50.971,50.633C119.105,82.778,115.23,74.083,113.82,70.96z"/>
			</g>
			
				<radialGradient id="SVGID_7_" cx="330.7686" cy="1195.8926" r="89.0464" gradientTransform="matrix(0.9996 0.0276 -0.0279 1.0096 -190.5699 -1153.2556)" gradientUnits="userSpaceOnUse">
				<stop  offset="0.2147" style="stop-color:#FFE300"/>
				<stop  offset="1" style="stop-color:#F7941E"/>
			</radialGradient>
			<path fill="url(#SVGID_7_)" d="M131.266,83.643c3.742-1.675,4.604-7.56,3.354-10.97c-6.986-19.011-21.174-34.723-35.578-42.72
				c-3.527-2.147-7.186-3.849-10.904-4.986c-2.734-0.683-5.166-1.251-5.727-1.353c-2.561-0.438-4.285-0.534-7.215-0.181
				c-3.824,0.466-6.146,1.832-8.604,4.067c21.379,2.26,41.91,23.402,50.974,50.633C119.105,82.778,124.641,86.507,131.266,83.643z"
				/>
		</g>
	</g>
</g>
</svg>
