<?xml version="1.0" encoding="utf-8"?>
<!-- Generator: Adobe Illustrator 15.0.0, SVG Export Plug-In . SVG Version: 6.00 Build 0)  -->
<!DOCTYPE svg PUBLIC "-//W3C//DTD SVG 1.1//EN" "http://www.w3.org/Graphics/SVG/1.1/DTD/svg11.dtd">
<svg version="1.1" id="Layer_1" xmlns="http://www.w3.org/2000/svg" xmlns:xlink="http://www.w3.org/1999/xlink" x="0px" y="0px"
	 width="200px" height="200px" viewBox="0 0 200 200" enable-background="new 0 0 200 200" xml:space="preserve">
<g id="icon">
	<g id="Layer_2">
	</g>
	<g id="Layer_1_1_">
		<g>
			
				<radialGradient id="SVGID_1_" cx="98.936" cy="-580.5156" r="5.6203" gradientTransform="matrix(1 0 0 -1 -150 -530)" gradientUnits="userSpaceOnUse">
				<stop  offset="0" style="stop-color:#C09756"/>
				<stop  offset="1" style="stop-color:#8B613D"/>
			</radialGradient>
			<polygon fill="url(#SVGID_1_)" points="21.671,95.433 14.024,83.964 29.986,82.144 173.854,96.469 184.018,98.633 
				181.128,103.697 86.099,168.742 			"/>
			
				<linearGradient id="SVGID_2_" gradientUnits="userSpaceOnUse" x1="194.9375" y1="-661.2695" x2="203.4168" y2="-653.7323" gradientTransform="matrix(1 0 0 -1 -150 -530)">
				<stop  offset="0" style="stop-color:#814719"/>
				<stop  offset="1" style="stop-color:#3D2B00"/>
			</linearGradient>
			<polygon fill="url(#SVGID_2_)" points="14.016,84.309 15.843,96.104 29.266,111.157 43.253,125.967 57.74,140.277 72,154.831 
				86.304,168.945 85.667,155.82 71.219,141.59 56.938,127.082 43.397,111.846 28.296,98.15 			"/>
			
				<linearGradient id="SVGID_3_" gradientUnits="userSpaceOnUse" x1="289.1494" y1="-669.2925" x2="283.4967" y2="-659.8712" gradientTransform="matrix(1 0 0 -1 -150 -530)">
				<stop  offset="0" style="stop-color:#814719"/>
				<stop  offset="1" style="stop-color:#3D2B00"/>
			</linearGradient>
			<polygon fill="url(#SVGID_3_)" points="185.062,97.4 168.995,106.924 152.314,116.568 135.632,126.223 119.059,136.061 
				102.691,146.253 85.729,155.602 86.241,169.529 102.887,159.898 118.236,148.41 135.33,139.715 151.182,129.018 167.459,119.002 
				183.586,108.805 			"/>
			
				<linearGradient id="SVGID_4_" gradientUnits="userSpaceOnUse" x1="252.0234" y1="-562.1382" x2="241.2991" y2="-868.862" gradientTransform="matrix(1 0 0 -1 -150 -530)">
				<stop  offset="0" style="stop-color:#AB7330"/>
				<stop  offset="0.1574" style="stop-color:#A66E30"/>
				<stop  offset="0.3431" style="stop-color:#986131"/>
				<stop  offset="0.543" style="stop-color:#804B32"/>
				<stop  offset="0.7517" style="stop-color:#5F2C34"/>
				<stop  offset="0.8182" style="stop-color:#532135"/>
				<stop  offset="1" style="stop-color:#7F3F00"/>
			</linearGradient>
			<polygon fill="url(#SVGID_4_)" points="108.921,30.103 103.323,33.665 98.919,38.121 92.69,39.275 88.398,43.936 83.125,46.825 
				77.529,49.13 71.251,50.184 66.25,53.564 61.348,57.113 55.435,58.84 51.661,64.444 45.171,65.132 40.17,68.514 35.666,72.801 
				29.286,73.685 24.757,77.929 19.19,80.3 13.263,83.419 18.76,87.352 22.485,92.087 27.839,95.202 31.536,99.957 35.823,104.133 
				40.244,108.174 43.94,112.939 47.252,118.085 51.141,122.662 56.194,126.081 61.483,129.27 65.671,133.548 68.884,138.798 
				73.646,142.508 77.794,146.829 81.232,151.873 85.677,157.182 90.782,152.636 96.036,150.161 100.498,146.359 106.123,144.504 
				111.146,141.643 115.171,137.105 120.561,134.852 125.744,132.266 131.38,130.438 135.209,125.57 139.754,121.912 
				145.29,119.908 151.044,118.27 154.82,113.311 160.359,111.309 164.502,106.966 169.521,104.088 175.214,102.336 
				181.062,100.841 186.736,96.6 181.713,91.49 175.293,89.903 171.305,85.475 167.402,80.955 163.041,76.963 158.423,73.276 
				153.605,69.814 148.951,66.166 143.752,63.149 140.227,58.173 135.628,54.451 131.165,50.572 126.572,46.846 122.861,42.087 
				117.346,39.433 112.32,36.041 			"/>
			
				<linearGradient id="SVGID_5_" gradientUnits="userSpaceOnUse" x1="188.6523" y1="-611.4443" x2="197.3968" y2="-628.739" gradientTransform="matrix(1 0 0 -1 -150 -530)">
				<stop  offset="0" style="stop-color:#AB7330"/>
				<stop  offset="0.1574" style="stop-color:#A66E30"/>
				<stop  offset="0.3431" style="stop-color:#986131"/>
				<stop  offset="0.543" style="stop-color:#804B32"/>
				<stop  offset="0.7517" style="stop-color:#5F2C34"/>
				<stop  offset="0.8182" style="stop-color:#532135"/>
				<stop  offset="1" style="stop-color:#7F3F00"/>
			</linearGradient>
			<path fill="url(#SVGID_5_)" d="M31.775,86.59c0,0,9.796-9.796,10.315-3.24s5.98-0.076,8.902,3.24
				c2.922,3.315,11.349,9.822,1.483,6.568c-9.866-3.253-8.37,3.612-13.828,0.886C33.188,91.318,27.21,90.402,31.775,86.59z"/>
			
				<linearGradient id="SVGID_6_" gradientUnits="userSpaceOnUse" x1="261.7764" y1="-617.2808" x2="261.3052" y2="-623.8765" gradientTransform="matrix(1 0 0 -1 -150 -530)">
				<stop  offset="0" style="stop-color:#AB7330"/>
				<stop  offset="0.1574" style="stop-color:#A66E30"/>
				<stop  offset="0.3431" style="stop-color:#986131"/>
				<stop  offset="0.543" style="stop-color:#804B32"/>
				<stop  offset="0.7517" style="stop-color:#5F2C34"/>
				<stop  offset="0.8182" style="stop-color:#532135"/>
				<stop  offset="1" style="stop-color:#7F3F00"/>
			</linearGradient>
			<path fill="url(#SVGID_6_)" d="M95.602,87.679c0,0,1.996-3.934,10.003-2.583c8.008,1.351,8.949,3.993,14.131,1.258
				c5.182-2.734,13.188,0.957,8.479,3.351c-4.711,2.394-6.124-1.516-11.775,2.087c-5.65,3.604-10.682,2.625-14.523,0.523
				C98.068,90.214,89.838,93.622,95.602,87.679z"/>
			
				<linearGradient id="SVGID_7_" gradientUnits="userSpaceOnUse" x1="220.165" y1="-629.0635" x2="227.0753" y2="-642.7305" gradientTransform="matrix(1 0 0 -1 -150 -530)">
				<stop  offset="0" style="stop-color:#AB7330"/>
				<stop  offset="0.1574" style="stop-color:#A66E30"/>
				<stop  offset="0.3431" style="stop-color:#986131"/>
				<stop  offset="0.543" style="stop-color:#804B32"/>
				<stop  offset="0.7517" style="stop-color:#5F2C34"/>
				<stop  offset="0.8182" style="stop-color:#532135"/>
				<stop  offset="1" style="stop-color:#7F3F00"/>
			</linearGradient>
			<path fill="url(#SVGID_7_)" d="M63.667,103.615c0,0,3.726-5.647,7.786-2.258c4.06,3.391,6.533-1.417,9.458,0.801
				c2.925,2.213,8.369,7.759,1.325,6.49c-7.043-1.271-8.475,0.961-12.882,1.162C64.947,110.014,60.36,106.547,63.667,103.615z"/>
			
				<linearGradient id="SVGID_8_" gradientUnits="userSpaceOnUse" x1="295.5205" y1="-616.2168" x2="303.7" y2="-632.3939" gradientTransform="matrix(1 0 0 -1 -150 -530)">
				<stop  offset="0" style="stop-color:#AB7330"/>
				<stop  offset="0.1574" style="stop-color:#A66E30"/>
				<stop  offset="0.3431" style="stop-color:#986131"/>
				<stop  offset="0.543" style="stop-color:#804B32"/>
				<stop  offset="0.7517" style="stop-color:#5F2C34"/>
				<stop  offset="0.8182" style="stop-color:#532135"/>
				<stop  offset="1" style="stop-color:#7F3F00"/>
			</linearGradient>
			<path fill="url(#SVGID_8_)" d="M139.172,95.534c0,0-3.298-8.867,3.297-5.599c6.596,3.268,6.992-4.33,13.152-1.002
				c6.16,3.328,10.871,10.088,3.334,9.77C151.419,98.384,135.874,101.133,139.172,95.534z"/>
			
				<linearGradient id="SVGID_9_" gradientUnits="userSpaceOnUse" x1="237.1104" y1="-658.1069" x2="238.0521" y2="-678.3531" gradientTransform="matrix(1 0 0 -1 -150 -530)">
				<stop  offset="0" style="stop-color:#AB7330"/>
				<stop  offset="0.1574" style="stop-color:#A66E30"/>
				<stop  offset="0.3431" style="stop-color:#986131"/>
				<stop  offset="0.543" style="stop-color:#804B32"/>
				<stop  offset="0.7517" style="stop-color:#5F2C34"/>
				<stop  offset="0.8182" style="stop-color:#532135"/>
				<stop  offset="1" style="stop-color:#7F3F00"/>
			</linearGradient>
			<path fill="url(#SVGID_9_)" d="M81.225,140.859c0,0-1.859-5.002,1.86-3.158c3.72,1.844,3.944-2.442,7.419-0.565
				c3.476,1.878,6.133,5.69,1.881,5.511C88.133,142.468,79.365,144.018,81.225,140.859z"/>
			
				<linearGradient id="SVGID_10_" gradientUnits="userSpaceOnUse" x1="258.8164" y1="-648.1699" x2="258.8164" y2="-659.0043" gradientTransform="matrix(1 0 0 -1 -150 -530)">
				<stop  offset="0" style="stop-color:#AB7330"/>
				<stop  offset="0.1574" style="stop-color:#A66E30"/>
				<stop  offset="0.3431" style="stop-color:#986131"/>
				<stop  offset="0.543" style="stop-color:#804B32"/>
				<stop  offset="0.7517" style="stop-color:#5F2C34"/>
				<stop  offset="0.8182" style="stop-color:#532135"/>
				<stop  offset="1" style="stop-color:#7F3F00"/>
			</linearGradient>
			<path fill="url(#SVGID_10_)" d="M90.605,118.984c0,0,3.126-4.693,9.1-1.396c5.973,3.301,7.236-1.873,10.609,1.893
				c3.371,3.765,3.64-4.944,10.336-1.532c6.695,3.411,11.877,6.819,2.457,6.059c-9.422-0.761-11.152,4.957-20.178,2.568
				C93.902,124.188,86.366,126.503,90.605,118.984z"/>
			
				<linearGradient id="SVGID_11_" gradientUnits="userSpaceOnUse" x1="224.3008" y1="-591.4336" x2="223.8296" y2="-602.7416" gradientTransform="matrix(1 0 0 -1 -150 -530)">
				<stop  offset="0" style="stop-color:#AB7330"/>
				<stop  offset="0.1574" style="stop-color:#A66E30"/>
				<stop  offset="0.3431" style="stop-color:#986131"/>
				<stop  offset="0.543" style="stop-color:#804B32"/>
				<stop  offset="0.7517" style="stop-color:#5F2C34"/>
				<stop  offset="0.8182" style="stop-color:#532135"/>
				<stop  offset="1" style="stop-color:#7F3F00"/>
			</linearGradient>
			<path fill="url(#SVGID_11_)" d="M66.161,63.238c4.324-1.392,5.652-3.03,5.652-3.03s7.11-2.278,12.505,0.992
				c5.395,3.27,3.981,8.274-2.142,6.007c-6.124-2.267,0.942,3.367-8.95,1.963C63.334,67.767,54.388,67.029,66.161,63.238z"/>
			
				<linearGradient id="SVGID_12_" gradientUnits="userSpaceOnUse" x1="264.4443" y1="-579.6938" x2="264.9154" y2="-591.9424" gradientTransform="matrix(1 0 0 -1 -150 -530)">
				<stop  offset="0" style="stop-color:#AB7330"/>
				<stop  offset="0.1574" style="stop-color:#A66E30"/>
				<stop  offset="0.3431" style="stop-color:#986131"/>
				<stop  offset="0.543" style="stop-color:#804B32"/>
				<stop  offset="0.7517" style="stop-color:#5F2C34"/>
				<stop  offset="0.8182" style="stop-color:#532135"/>
				<stop  offset="1" style="stop-color:#7F3F00"/>
			</linearGradient>
			<path fill="url(#SVGID_12_)" d="M105.257,49.352c0,0,4.239-6.827,8.95-3.391c4.71,3.435,12.718,1.214,10.833,6.564
				c-1.884,5.35-1.603-2.792-9.751,3.163S100.667,53.406,105.257,49.352z"/>
			
				<linearGradient id="SVGID_13_" gradientUnits="userSpaceOnUse" x1="1690.582" y1="-412.8428" x2="1696.2363" y2="-424.0258" gradientTransform="matrix(-1 0 0 1 1844.4023 496.5508)">
				<stop  offset="0" style="stop-color:#AB7330"/>
				<stop  offset="0.1574" style="stop-color:#A66E30"/>
				<stop  offset="0.3431" style="stop-color:#986131"/>
				<stop  offset="0.543" style="stop-color:#804B32"/>
				<stop  offset="0.7517" style="stop-color:#5F2C34"/>
				<stop  offset="0.8182" style="stop-color:#532135"/>
				<stop  offset="1" style="stop-color:#7F3F00"/>
			</linearGradient>
			<path fill="url(#SVGID_13_)" d="M158.268,80.381c0,0-6.334,6.334-6.67,2.095c-0.334-4.239-3.867,0.049-5.756-2.095
				c-1.89-2.145-7.339-6.352-0.96-4.248c6.382,2.103,5.412-2.336,8.942-0.573C157.354,77.323,161.221,77.916,158.268,80.381z"/>
			
				<linearGradient id="SVGID_14_" gradientUnits="userSpaceOnUse" x1="1748.9541" y1="-421.3359" x2="1748.5991" y2="-426.3067" gradientTransform="matrix(-1 0 0 1 1844.4023 496.5508)">
				<stop  offset="0" style="stop-color:#AB7330"/>
				<stop  offset="0.1574" style="stop-color:#A66E30"/>
				<stop  offset="0.3431" style="stop-color:#986131"/>
				<stop  offset="0.543" style="stop-color:#804B32"/>
				<stop  offset="0.7517" style="stop-color:#5F2C34"/>
				<stop  offset="0.8182" style="stop-color:#532135"/>
				<stop  offset="1" style="stop-color:#7F3F00"/>
			</linearGradient>
			<path fill="url(#SVGID_14_)" d="M107.639,74.912c0,0-1.504,2.964-7.539,1.947c-6.034-1.018-6.744-3.009-10.649-0.949
				c-3.904,2.061-9.938-0.721-6.389-2.524c3.55-1.804,4.615,1.143,8.874-1.573c4.26-2.716,8.049-1.978,10.947-0.395
				C105.779,73.001,111.982,70.434,107.639,74.912z"/>
			
				<linearGradient id="SVGID_15_" gradientUnits="userSpaceOnUse" x1="1709.2549" y1="-417.7114" x2="1716.1647" y2="-431.3776" gradientTransform="matrix(-1 0 0 1 1844.4023 496.5508)">
				<stop  offset="0" style="stop-color:#AB7330"/>
				<stop  offset="0.1574" style="stop-color:#A66E30"/>
				<stop  offset="0.3431" style="stop-color:#986131"/>
				<stop  offset="0.543" style="stop-color:#804B32"/>
				<stop  offset="0.7517" style="stop-color:#5F2C34"/>
				<stop  offset="0.8182" style="stop-color:#532135"/>
				<stop  offset="1" style="stop-color:#7F3F00"/>
			</linearGradient>
			<path fill="url(#SVGID_15_)" d="M141.646,74.287c0,0-3.729,5.647-7.787,2.257c-4.062-3.39-6.531,1.415-9.457-0.8
				c-2.926-2.213-8.369-7.759-1.325-6.49c7.044,1.268,8.476-0.961,12.882-1.163C140.365,67.888,144.953,71.354,141.646,74.287z"/>
			
				<linearGradient id="SVGID_16_" gradientUnits="userSpaceOnUse" x1="1768.3418" y1="-365.123" x2="1775.252" y2="-378.7899" gradientTransform="matrix(-1 0 0 1 1844.4023 496.5508)">
				<stop  offset="0" style="stop-color:#AB7330"/>
				<stop  offset="0.1574" style="stop-color:#A66E30"/>
				<stop  offset="0.3431" style="stop-color:#986131"/>
				<stop  offset="0.543" style="stop-color:#804B32"/>
				<stop  offset="0.7517" style="stop-color:#5F2C34"/>
				<stop  offset="0.8182" style="stop-color:#532135"/>
				<stop  offset="1" style="stop-color:#7F3F00"/>
			</linearGradient>
			<path fill="url(#SVGID_16_)" d="M82.559,126.875c0,0-3.726,5.646-7.786,2.257c-4.06-3.389-6.533,1.415-9.458-0.799
				c-2.926-2.214-8.369-7.76-1.325-6.491c7.044,1.268,8.475-0.961,12.882-1.162C81.279,120.477,85.866,123.943,82.559,126.875z"/>
			
				<linearGradient id="SVGID_17_" gradientUnits="userSpaceOnUse" x1="1780.6865" y1="-410.1914" x2="1787.0262" y2="-422.7298" gradientTransform="matrix(-1 0 0 1 1844.4023 496.5508)">
				<stop  offset="0" style="stop-color:#AB7330"/>
				<stop  offset="0.1574" style="stop-color:#A66E30"/>
				<stop  offset="0.3431" style="stop-color:#986131"/>
				<stop  offset="0.543" style="stop-color:#804B32"/>
				<stop  offset="0.7517" style="stop-color:#5F2C34"/>
				<stop  offset="0.8182" style="stop-color:#532135"/>
				<stop  offset="1" style="stop-color:#7F3F00"/>
			</linearGradient>
			<path fill="url(#SVGID_17_)" d="M68.636,79.138c0,0,2.556,6.873-2.556,4.34c-5.11-2.533-5.419,3.355-10.193,0.777
				c-4.775-2.58-8.426-7.819-2.584-7.573C59.144,76.929,71.192,74.799,68.636,79.138z"/>
			
				<linearGradient id="SVGID_18_" gradientUnits="userSpaceOnUse" x1="240.7754" y1="-636.7285" x2="257.7305" y2="-664.0449" gradientTransform="matrix(1 0 0 -1 -150 -530)">
				<stop  offset="0" style="stop-color:#AB7330"/>
				<stop  offset="0.1574" style="stop-color:#A66E30"/>
				<stop  offset="0.3431" style="stop-color:#986131"/>
				<stop  offset="0.543" style="stop-color:#804B32"/>
				<stop  offset="0.7517" style="stop-color:#5F2C34"/>
				<stop  offset="0.8182" style="stop-color:#532135"/>
				<stop  offset="1" style="stop-color:#7F3F00"/>
			</linearGradient>
			<path fill="url(#SVGID_18_)" d="M81.696,84.936c0,0,1.334,3.591-1.336,2.267c-2.67-1.323-2.831,1.754-5.325,0.406
				c-2.495-1.347-4.402-4.084-1.351-3.956C76.736,83.782,83.03,82.668,81.696,84.936z"/>
			
				<linearGradient id="SVGID_19_" gradientUnits="userSpaceOnUse" x1="246.6318" y1="-586.3823" x2="247.5739" y2="-595.8035" gradientTransform="matrix(1 0 0 -1 -150 -530)">
				<stop  offset="0" style="stop-color:#AB7330"/>
				<stop  offset="0.1574" style="stop-color:#A66E30"/>
				<stop  offset="0.3431" style="stop-color:#986131"/>
				<stop  offset="0.543" style="stop-color:#804B32"/>
				<stop  offset="0.7517" style="stop-color:#5F2C34"/>
				<stop  offset="0.8182" style="stop-color:#532135"/>
				<stop  offset="1" style="stop-color:#7F3F00"/>
			</linearGradient>
			<path fill="url(#SVGID_19_)" d="M114.708,58.916c0,0-3.126,4.695-9.101,1.396c-5.976-3.299-7.235,1.874-10.607-1.89
				c-3.373-3.764-3.64,4.945-10.336,1.533c-6.697-3.413-11.878-6.82-2.457-6.059c9.42,0.762,11.152-4.957,20.178-2.568
				C111.411,53.717,118.947,51.399,114.708,58.916z"/>
			
				<linearGradient id="SVGID_20_" gradientUnits="userSpaceOnUse" x1="1713.3906" y1="-380.0811" x2="1712.9197" y2="-391.3847" gradientTransform="matrix(-1 0 0 1 1844.4023 496.5508)">
				<stop  offset="0" style="stop-color:#AB7330"/>
				<stop  offset="0.1574" style="stop-color:#A66E30"/>
				<stop  offset="0.3431" style="stop-color:#986131"/>
				<stop  offset="0.543" style="stop-color:#804B32"/>
				<stop  offset="0.7517" style="stop-color:#5F2C34"/>
				<stop  offset="0.8182" style="stop-color:#532135"/>
				<stop  offset="1" style="stop-color:#7F3F00"/>
			</linearGradient>
			<path fill="url(#SVGID_20_)" d="M139.152,114.663c-4.324,1.394-5.652,3.03-5.652,3.03s-7.109,2.275-12.505-0.991
				c-5.396-3.269-3.981-8.274,2.142-6.009c6.125,2.268-0.941-3.366,8.95-1.963C141.979,110.135,150.925,110.873,139.152,114.663z"/>
			
				<linearGradient id="SVGID_21_" gradientUnits="userSpaceOnUse" x1="1754.9287" y1="-381.4282" x2="1755.3997" y2="-393.6748" gradientTransform="matrix(-1 0 0 1 1844.4023 496.5508)">
				<stop  offset="0" style="stop-color:#AB7330"/>
				<stop  offset="0.1574" style="stop-color:#A66E30"/>
				<stop  offset="0.3431" style="stop-color:#986131"/>
				<stop  offset="0.543" style="stop-color:#804B32"/>
				<stop  offset="0.7517" style="stop-color:#5F2C34"/>
				<stop  offset="0.8182" style="stop-color:#532135"/>
				<stop  offset="1" style="stop-color:#7F3F00"/>
			</linearGradient>
			<path fill="url(#SVGID_21_)" d="M98.662,115.466c0,0-4.239,6.826-8.95,3.392c-4.71-3.436-12.718-1.215-10.833-6.562
				c1.884-5.353,1.603,2.792,9.751-3.163S103.252,111.411,98.662,115.466z"/>
			
				<linearGradient id="SVGID_22_" gradientUnits="userSpaceOnUse" x1="1739.1221" y1="-455.4077" x2="1739.2476" y2="-458.6678" gradientTransform="matrix(-1 0 0 1 1844.4023 496.5508)">
				<stop  offset="0" style="stop-color:#AB7330"/>
				<stop  offset="0.1574" style="stop-color:#A66E30"/>
				<stop  offset="0.3431" style="stop-color:#986131"/>
				<stop  offset="0.543" style="stop-color:#804B32"/>
				<stop  offset="0.7517" style="stop-color:#5F2C34"/>
				<stop  offset="0.8182" style="stop-color:#532135"/>
				<stop  offset="1" style="stop-color:#7F3F00"/>
			</linearGradient>
			<path fill="url(#SVGID_22_)" d="M107.725,41.236c0,0-1.127,1.817-2.382,0.903c-1.254-0.914-3.385-0.323-2.884-1.747
				c0.502-1.424,0.426,0.743,2.596-0.842C107.223,37.965,108.945,40.157,107.725,41.236z"/>
		</g>
	</g>
</g>
</svg>
