<?xml version="1.0" encoding="utf-8"?>
<!-- Generator: Adobe Illustrator 15.0.0, SVG Export Plug-In . SVG Version: 6.00 Build 0)  -->
<!DOCTYPE svg PUBLIC "-//W3C//DTD SVG 1.1//EN" "http://www.w3.org/Graphics/SVG/1.1/DTD/svg11.dtd">
<svg version="1.1" id="Layer_1" xmlns="http://www.w3.org/2000/svg" xmlns:xlink="http://www.w3.org/1999/xlink" x="0px" y="0px"
	 width="200px" height="200px" viewBox="0 0 200 200" enable-background="new 0 0 200 200" xml:space="preserve">
<g id="icon">
	<g id="Layer_2">
	</g>
	<g id="Layer_1_1_">
		<g>
			
				<linearGradient id="SVGID_1_" gradientUnits="userSpaceOnUse" x1="314.3271" y1="1282.6533" x2="286.4217" y2="1318.5314" gradientTransform="matrix(1 0 0 1 -200 -1182)">
				<stop  offset="0" style="stop-color:#FFFFFF"/>
				<stop  offset="1" style="stop-color:#B3B3B3"/>
			</linearGradient>
			<polygon fill="url(#SVGID_1_)" points="92.066,182.367 52.739,143.316 51.303,128.592 91.812,166.457 			"/>
			
				<radialGradient id="SVGID_2_" cx="329.4941" cy="1303.4736" r="1049.467" gradientTransform="matrix(1 0 0 1 -200 -1182)" gradientUnits="userSpaceOnUse">
				<stop  offset="0" style="stop-color:#B89758"/>
				<stop  offset="1" style="stop-color:#885D14"/>
			</radialGradient>
			<polygon fill="url(#SVGID_2_)" points="149.55,133.039 106.12,103.061 51.303,128.592 91.812,166.457 			"/>
			
				<linearGradient id="SVGID_3_" gradientUnits="userSpaceOnUse" x1="297.2744" y1="1351.582" x2="304.8164" y2="1258.8147" gradientTransform="matrix(1 0 0 1 -200 -1182)">
				<stop  offset="0" style="stop-color:#FFFFFF"/>
				<stop  offset="1" style="stop-color:#B3B3B3"/>
			</linearGradient>
			<polygon fill="url(#SVGID_3_)" points="149.55,133.039 106.12,101.02 51.303,128.592 91.812,166.457 			"/>
			
				<linearGradient id="SVGID_4_" gradientUnits="userSpaceOnUse" x1="318.4219" y1="1336.3057" x2="351.7061" y2="1383.6997" gradientTransform="matrix(1 0 0 1 -200 -1182)">
				<stop  offset="0" style="stop-color:#FFFFFF"/>
				<stop  offset="1" style="stop-color:#B3B3B3"/>
			</linearGradient>
			<polygon fill="url(#SVGID_4_)" points="91.812,166.457 92.066,182.367 147.337,149.784 149.55,133.039 			"/>
			
				<linearGradient id="SVGID_5_" gradientUnits="userSpaceOnUse" x1="262.5107" y1="993.4805" x2="333.3358" y2="969.2509" gradientTransform="matrix(0.942 0.3377 -0.3355 0.9478 150.1078 -925.4349)">
				<stop  offset="0" style="stop-color:#B3B3B3"/>
				<stop  offset="0.0505" style="stop-color:#C2C2C2"/>
				<stop  offset="0.1572" style="stop-color:#DDDDDD"/>
				<stop  offset="0.2663" style="stop-color:#F0F0F0"/>
				<stop  offset="0.3781" style="stop-color:#FBFBFB"/>
				<stop  offset="0.497" style="stop-color:#FFFFFF"/>
				<stop  offset="0.5637" style="stop-color:#F8F8F8"/>
				<stop  offset="0.6639" style="stop-color:#E3E3E3"/>
				<stop  offset="0.8589" style="stop-color:#C2C2C2"/>
				<stop  offset="1" style="stop-color:#838383"/>
			</linearGradient>
			<path fill="url(#SVGID_5_)" d="M138.061,63.227l-2.963,64.406c-0.453,12.49-16.423,22.704-35.667,22.816
				c-19.247,0.111-35.182-9.914-35.59-22.401l-2.67-64.441C68.004,58.876,131.152,59.242,138.061,63.227z"/>
			
				<linearGradient id="SVGID_6_" gradientUnits="userSpaceOnUse" x1="265.8281" y1="1282.7773" x2="272.1328" y2="1282.7773" gradientTransform="matrix(1 0 0 1 -200 -1182)">
				<stop  offset="0" style="stop-color:#B3B3B3"/>
				<stop  offset="0.046" style="stop-color:#C9C9C9"/>
				<stop  offset="0.1011" style="stop-color:#DBDCDC"/>
				<stop  offset="0.1579" style="stop-color:#E6E7E7"/>
				<stop  offset="0.2182" style="stop-color:#EAEBEB"/>
				<stop  offset="0.6364" style="stop-color:#B3B3B3"/>
				<stop  offset="0.7206" style="stop-color:#ADADAD"/>
				<stop  offset="0.8278" style="stop-color:#9D9D9D"/>
				<stop  offset="0.9469" style="stop-color:#838383"/>
				<stop  offset="1" style="stop-color:#757575"/>
			</linearGradient>
			<path fill="url(#SVGID_6_)" d="M72.131,132.426c0.049,1.331-0.815,2.113-1.93,1.748l0,0c-1.113-0.363-2.057-1.738-2.106-3.068
				L65.83,69.129c-0.049-1.331,0.816-2.114,1.931-1.748l0,0c1.113,0.364,2.056,1.738,2.104,3.069L72.131,132.426z"/>
			
				<linearGradient id="SVGID_7_" gradientUnits="userSpaceOnUse" x1="324.5566" y1="1282.6514" x2="330.8602" y2="1282.8142" gradientTransform="matrix(1 0 0 1 -200 -1182)">
				<stop  offset="0" style="stop-color:#B3B3B3"/>
				<stop  offset="0.0753" style="stop-color:#C9C9C9"/>
				<stop  offset="0.1657" style="stop-color:#DBDCDC"/>
				<stop  offset="0.7607" style="stop-color:#B3B3B3"/>
				<stop  offset="1" style="stop-color:#838383"/>
			</linearGradient>
			<path fill="url(#SVGID_7_)" d="M126.162,132.855c-0.049,1.336,0.816,2,1.93,1.48l0,0c1.115-0.52,2.059-2.021,2.105-3.354
				l2.267-62.284c0.048-1.338-0.815-2.002-1.93-1.486l0,0c-1.115,0.518-2.058,2.021-2.104,3.358L126.162,132.855z"/>
			
				<linearGradient id="SVGID_8_" gradientUnits="userSpaceOnUse" x1="278.8252" y1="1289.9258" x2="284.0527" y2="1289.9258" gradientTransform="matrix(1 0 0 1 -200 -1182)">
				<stop  offset="0" style="stop-color:#B3B3B3"/>
				<stop  offset="0.0753" style="stop-color:#C9C9C9"/>
				<stop  offset="0.1657" style="stop-color:#DBDCDC"/>
				<stop  offset="0.2587" style="stop-color:#E6E7E7"/>
				<stop  offset="0.3576" style="stop-color:#EAEBEB"/>
				<stop  offset="0.8303" style="stop-color:#B3B3B3"/>
				<stop  offset="0.8696" style="stop-color:#ADADAD"/>
				<stop  offset="0.9196" style="stop-color:#9D9D9D"/>
				<stop  offset="0.9752" style="stop-color:#838383"/>
				<stop  offset="1" style="stop-color:#757575"/>
			</linearGradient>
			<path fill="url(#SVGID_8_)" d="M84.053,138.93c0.01,1.316-1.046,2.215-2.36,2.012l0,0c-1.314-0.205-2.388-1.438-2.398-2.754
				l-0.47-61.267c-0.01-1.315,1.047-2.214,2.361-2.01l0,0c1.314,0.204,2.387,1.437,2.397,2.752L84.053,138.93z"/>
			
				<linearGradient id="SVGID_9_" gradientUnits="userSpaceOnUse" x1="311.1973" y1="1289.9268" x2="316.7969" y2="1289.9268" gradientTransform="matrix(1 0 0 1 -200 -1182)">
				<stop  offset="0" style="stop-color:#B3B3B3"/>
				<stop  offset="0.0753" style="stop-color:#C9C9C9"/>
				<stop  offset="0.1657" style="stop-color:#DBDCDC"/>
				<stop  offset="0.2587" style="stop-color:#E6E7E7"/>
				<stop  offset="0.3576" style="stop-color:#EAEBEB"/>
				<stop  offset="0.8303" style="stop-color:#B3B3B3"/>
				<stop  offset="0.8696" style="stop-color:#ADADAD"/>
				<stop  offset="0.9196" style="stop-color:#9D9D9D"/>
				<stop  offset="0.9752" style="stop-color:#838383"/>
				<stop  offset="1" style="stop-color:#757575"/>
			</linearGradient>
			<path fill="url(#SVGID_9_)" d="M115.956,138.229c-0.021,1.315-1.099,2.543-2.412,2.744l0,0c-1.313,0.199-2.362-0.705-2.347-2.021
				l0.842-61.325c0.02-1.317,1.098-2.545,2.411-2.746l0,0c1.313-0.199,2.364,0.708,2.347,2.023L115.956,138.229z"/>
			
				<linearGradient id="SVGID_10_" gradientUnits="userSpaceOnUse" x1="295.2422" y1="1292.4766" x2="300" y2="1292.4766" gradientTransform="matrix(1 0 0 1 -200 -1182)">
				<stop  offset="0" style="stop-color:#B3B3B3"/>
				<stop  offset="0.0753" style="stop-color:#C9C9C9"/>
				<stop  offset="0.1657" style="stop-color:#DBDCDC"/>
				<stop  offset="0.2587" style="stop-color:#E6E7E7"/>
				<stop  offset="0.3576" style="stop-color:#EAEBEB"/>
				<stop  offset="0.8303" style="stop-color:#B3B3B3"/>
				<stop  offset="0.8696" style="stop-color:#ADADAD"/>
				<stop  offset="0.9196" style="stop-color:#9D9D9D"/>
				<stop  offset="0.9752" style="stop-color:#838383"/>
				<stop  offset="1" style="stop-color:#757575"/>
			</linearGradient>
			<path fill="url(#SVGID_10_)" d="M100,141.073c0,1.312-1.065,2.378-2.379,2.378l0,0c-1.314,0-2.379-1.064-2.379-2.378V79.882
				c0-1.314,1.065-2.379,2.379-2.379l0,0c1.313,0,2.379,1.065,2.379,2.379V141.073z"/>
			
				<linearGradient id="SVGID_11_" gradientUnits="userSpaceOnUse" x1="314.7451" y1="1193.166" x2="284.6632" y2="1231.8429" gradientTransform="matrix(0.9979 0.0183 0.0183 0.8433 -221.683 -996.1389)">
				<stop  offset="0" style="stop-color:#FFFFFF"/>
				<stop  offset="1" style="stop-color:#B3B3B3"/>
			</linearGradient>
			<polygon fill="url(#SVGID_11_)" points="92.043,89.759 47.99,53.875 46.848,39.878 91.46,73.002 			"/>
			
				<linearGradient id="SVGID_12_" gradientUnits="userSpaceOnUse" x1="295.334" y1="1245.3828" x2="317.8073" y2="1146.5005" gradientTransform="matrix(1 0 0 1 -200 -1182)">
				<stop  offset="0" style="stop-color:#FFFFFF"/>
				<stop  offset="1" style="stop-color:#B3B3B3"/>
			</linearGradient>
			<polygon fill="url(#SVGID_12_)" points="153.152,45.82 105.562,16.073 46.848,39.878 91.46,73.002 			"/>
			
				<linearGradient id="SVGID_13_" gradientUnits="userSpaceOnUse" x1="318.5996" y1="1249.7998" x2="358.9072" y2="1307.1945" gradientTransform="matrix(0.9979 0.0183 0.0183 0.8433 -221.683 -996.1389)">
				<stop  offset="0" style="stop-color:#FFFFFF"/>
				<stop  offset="1" style="stop-color:#B3B3B3"/>
			</linearGradient>
			<polygon fill="url(#SVGID_13_)" points="91.46,73.002 92.043,89.759 151.294,61.219 153.152,45.82 			"/>
		</g>
	</g>
</g>
</svg>
