<?xml version="1.0" encoding="utf-8"?>
<!-- Generator: Adobe Illustrator 15.0.0, SVG Export Plug-In . SVG Version: 6.00 Build 0)  -->
<!DOCTYPE svg PUBLIC "-//W3C//DTD SVG 1.1//EN" "http://www.w3.org/Graphics/SVG/1.1/DTD/svg11.dtd">
<svg version="1.1" id="Layer_1" xmlns="http://www.w3.org/2000/svg" xmlns:xlink="http://www.w3.org/1999/xlink" x="0px" y="0px"
	 width="200px" height="200px" viewBox="0 0 200 200" enable-background="new 0 0 200 200" xml:space="preserve">
<g id="icon">
	<g id="Layer_2">
	</g>
	<g id="Layer_1_1_">
		<g>
			
				<linearGradient id="SVGID_1_" gradientUnits="userSpaceOnUse" x1="300.6504" y1="1216.541" x2="240.5726" y2="1340.061" gradientTransform="matrix(1 0 0 1 -200 -1182)">
				<stop  offset="0" style="stop-color:#E85300"/>
				<stop  offset="1" style="stop-color:#812D00"/>
			</linearGradient>
			<polygon fill="url(#SVGID_1_)" points="89.313,176.971 38.808,126.818 32.55,55.439 87.573,101.449 			"/>
			
				<linearGradient id="SVGID_2_" gradientUnits="userSpaceOnUse" x1="317.2402" y1="1182.3057" x2="342.7401" y2="1098.3063" gradientTransform="matrix(1 0 0 1 -200 -1182)">
				<stop  offset="0" style="stop-color:#E85300"/>
				<stop  offset="1" style="stop-color:#812D00"/>
			</linearGradient>
			<polygon fill="url(#SVGID_2_)" points="166.725,61.15 105.948,23.029 32.55,55.439 87.573,101.449 			"/>
			
				<linearGradient id="SVGID_3_" gradientUnits="userSpaceOnUse" x1="321.7402" y1="1288.9355" x2="343.5413" y2="1331.0342" gradientTransform="matrix(1 0 0 1 -200 -1182)">
				<stop  offset="0" style="stop-color:#E85300"/>
				<stop  offset="1" style="stop-color:#812D00"/>
			</linearGradient>
			<polygon fill="url(#SVGID_3_)" points="87.573,101.449 89.313,176.971 160.298,135.125 166.725,61.15 			"/>
			
				<radialGradient id="SVGID_4_" cx="288.2812" cy="1255.1426" r="144.3379" gradientTransform="matrix(1 0 0 1 -200 -1182)" gradientUnits="userSpaceOnUse">
				<stop  offset="0" style="stop-color:#FFBDCF"/>
				<stop  offset="1" style="stop-color:#FF7E6D;stop-opacity:0"/>
			</radialGradient>
			<polygon fill="url(#SVGID_4_)" points="87.573,99.125 34.369,54.637 32.55,55.439 87.573,101.449 166.725,61.15 164.678,59.867 
							"/>
			
				<radialGradient id="SVGID_5_" cx="296.5371" cy="1260.8936" r="125.2653" gradientTransform="matrix(1 0 0 1 -200 -1182)" gradientUnits="userSpaceOnUse">
				<stop  offset="0" style="stop-color:#FFBDCF"/>
				<stop  offset="1" style="stop-color:#FF7E6D;stop-opacity:0"/>
			</radialGradient>
			<polygon fill="url(#SVGID_5_)" points="88.52,99.999 87.573,99.999 86.533,99.999 88.264,175.928 89.313,176.971 90.353,176.357 
							"/>
			<path fill="#E5E0E2" d="M147.618,64.922l-4.11-2.852l-4.137-2.809l-4.075-2.906l-4.092-2.882l-4.238-2.665l-4.135-2.823
				l-1.894-1.335l3.062-1.479l4.933-2.437l4.907-2.295l-3.942-2.269l-4.891,2.531l-4.925,2.524l-2.337,1.126l-3.014-2.263
				l-4.789-1.856l-3.732-3.416l-4.021-2.994l-4.021-3l-4.556-1.851l-4.693,1.185l4.556,2.91l4.289,2.705l1.909,1.391l-1.741,0.762
				l-4.471,2.03l-4.447,2.074l-4.388,2.19l-4.464,2.027l-4.474,2.01l-4.438,2.082l-4.455,2.05l-2.368,0.905l-1.614-1.419
				l-3.733-3.291l-4.317-2.281l-3.506,1.079l4.151,3.166l3.929,3.051l3.729,3.289l3.713,3.316l4.029,2.926l4.112,2.827l1.054,1.075
				l-1.438,0.742L70.3,69.908l-4.209,2.175l-4.214,2.155l-4.454,2.081l3.559,2.926l4.323-1.824l4.034-2.494l4.271-2.001l4.242-2.054
				l1.51-0.725l3.248,2.119l3.397,3.703l3.92,3.063l3.825,3.181l3.95,3.031l4.235,2.693l3.562,3.614l2.832-1.87l-3.238-3.283
				l-3.823-3.16L98.502,81l3.59-1.639l4.611-2.088l4.503-2.303l4.448-2.406l4.81-1.663l4.209-2.897l4.611-2.07l4.61-2.074
				l3.271-1.332l2.62,1.629l4.584,2.283l3.939,3.353l2.787-1.839L147.618,64.922z M107.921,72.074l-4.53,2.262l-4.548,2.23
				l-3.769,1.57l-1.445-1.224l-3.804-3.186l-3.957-2.999L82.02,67.59l-3.807-3.188l-3.719-3.296l-4.521-2.303l-2.882-3.062
				l2.405-1.07l4.5-1.992l4.396-2.202l4.345-2.301l1.055-0.356l3.122,1.938l3.742,3.44l3.922,3.211l3.918,3.214l4.37,2.632
				l3.696,3.499l4.106,2.982l1.638,1.234L107.921,72.074z M126.059,63.052l-4.539,2.255l-4.475,2.373l-1.318,0.639l-1.642-1.438
				l-3.989-3.093l-4.009-3.07l-3.967-3.121l-3.978-3.108l-4.068-2.991l-4.01-3.083l-2.481-1.925l3.96-2.671l4.5-1.977l4.498-1.979
				l1.848-0.714l3.555,2.623l4.39,2.558l4.465,2.445l3.886,3.319l4.541,2.336l3.781,3.468l4.282,2.72l1.649,1.126l-2.312,1.099
				L126.059,63.052z"/>
			<g>
				<polygon fill="#BD4136" points="69.846,69.018 65.629,71.197 61.419,73.35 56.996,75.416 56.64,75.583 57.487,76.292 
					61.875,74.241 66.089,72.086 70.298,69.911 74.53,67.775 75.968,67.033 74.914,65.958 70.802,63.131 66.773,60.205 
					63.06,56.889 59.331,53.6 55.402,50.549 51.251,47.383 54.757,46.304 59.074,48.585 62.807,51.876 64.421,53.295 66.789,52.39 
					71.244,50.34 75.682,48.258 80.156,46.248 84.62,44.221 89.008,42.031 93.455,39.957 97.926,37.927 99.667,37.165 
					97.758,35.774 93.469,33.069 89.276,30.391 88.179,30.875 88.377,31.002 92.933,33.912 97.199,36.601 97.673,36.946 
					97.527,37.009 93.044,39.045 88.588,41.123 84.177,43.325 79.745,45.337 75.275,47.345 70.822,49.434 66.404,51.466 
					64.631,52.145 63.47,51.124 59.738,47.834 59.649,47.755 59.545,47.7 55.234,45.422 50.039,47.717 50.645,48.179 54.796,51.344 
					58.692,54.37 62.397,57.639 66.106,60.951 66.143,60.985 66.184,61.014 70.213,63.939 74.267,66.726 74.305,66.765 
					74.071,66.886 				"/>
				<polygon fill="#BD4136" points="151.654,68.788 152.754,68.062 151.762,67.199 148.277,64.168 148.239,64.131 148.191,64.101 
					144.084,61.249 139.938,58.435 135.88,55.541 131.783,52.656 131.762,52.64 131.74,52.626 127.503,49.961 123.398,47.158 
					122.906,46.811 124.436,46.072 129.375,43.631 134.266,41.345 134.772,41.108 133.764,40.476 128.93,42.737 123.996,45.174 
					120.934,46.653 122.83,47.988 126.965,50.811 131.203,53.476 135.295,56.358 139.37,59.264 143.507,62.073 147.617,64.925 
					151.1,67.956 148.312,69.795 144.372,66.442 139.788,64.159 137.168,62.53 133.896,63.862 129.287,65.936 124.676,68.006 
					120.467,70.903 115.656,72.566 111.209,74.972 106.706,77.275 102.096,79.363 98.502,81 101.27,83.242 105.093,86.402 
					108.331,89.685 105.499,91.555 101.938,87.941 97.702,85.248 93.752,82.217 89.927,79.036 86.007,75.973 82.61,72.27 
					79.36,70.15 77.85,70.875 73.608,72.929 69.337,74.93 65.303,77.424 61.009,79.236 61.872,79.958 65.691,78.346 65.762,78.316 
					65.828,78.276 69.812,75.811 74.031,73.834 78.285,71.775 79.285,71.295 81.955,73.038 85.267,76.648 85.324,76.71 
					85.388,76.761 89.308,79.824 93.11,82.985 97.091,86.041 97.126,86.068 97.163,86.091 101.303,88.723 104.785,92.257 
					105.066,92.543 108.344,90.874 108.88,90.52 109.896,89.849 109.043,88.984 105.807,85.7 105.77,85.664 105.73,85.632 
					101.911,82.472 100.39,81.24 102.512,80.272 107.119,78.185 111.665,75.862 116.061,73.483 120.791,71.847 120.919,71.802 
					121.029,71.725 125.165,68.879 129.691,66.846 134.305,64.772 137.073,63.646 139.262,65.006 139.299,65.031 139.342,65.052 
					143.82,67.281 147.671,70.554 147.89,70.74 151.424,68.94 				"/>
				<polygon fill="#BD4136" points="93.607,28.974 98.163,30.825 102.186,33.825 106.206,36.819 109.936,40.235 114.725,42.091 
					117.741,44.354 120.078,43.228 125.003,40.704 129.895,38.173 132.302,39.559 129.02,37.5 124.547,39.815 119.626,42.337 
					117.857,43.188 115.332,41.291 115.223,41.208 115.094,41.158 110.48,39.37 106.887,36.081 106.85,36.047 106.809,36.017 
					102.788,33.022 98.765,30.023 98.662,29.947 98.544,29.898 94.298,28.173 90.985,29.636 				"/>
				<path fill="#BD4136" d="M102.871,62.257l-4.37-2.632l-3.918-3.214L90.658,53.2l-3.742-3.44l-3.122-1.938l-1.055,0.354
					l-4.345,2.301l-4.396,2.202l-4.5,1.992l-2.405,1.07l2.882,3.062l4.521,2.303l3.719,3.296l3.807,3.188l3.848,3.137l3.957,2.999
					l3.804,3.186l1.443,1.225l3.769-1.57l4.548-2.23l4.53-2.262l4.388-2.103l-1.635-1.234l-4.109-2.982L102.871,62.257z
					 M110.396,69.78l-2.903,1.394l-4.55,2.269l-4.51,2.213l-3.176,1.324l-0.979-0.828l-3.808-3.189l-3.996-3.029l-3.819-3.115
					l-3.796-3.18l-3.698-3.277l-0.096-0.085l-0.113-0.058l-4.366-2.225l-1.797-1.908l1.117-0.498l4.498-1.991l4.439-2.222
					l4.292-2.276l0.531-0.179l2.642,1.639l3.673,3.377l0.021,0.02l0.022,0.018l3.922,3.212l3.917,3.213l0.057,0.046l0.062,0.037
					l4.277,2.576l3.618,3.425l0.048,0.044l0.054,0.039l4.108,2.982L110.396,69.78z"/>
				<path fill="#BD4136" d="M115.727,68.318l1.318-0.639l4.475-2.373l4.539-2.255l4.564-2.209l2.312-1.099l-1.651-1.126l-4.282-2.72
					l-3.784-3.468l-4.54-2.336l-3.884-3.319l-4.465-2.445l-4.388-2.558l-3.555-2.623l-1.85,0.714l-4.498,1.979l-4.5,1.977
					l-3.96,2.671l2.481,1.925l4.01,3.083l4.068,2.991l3.978,3.108l3.967,3.121l4.008,3.07l3.99,3.093L115.727,68.318z
					 M106.702,59.925l-3.957-3.113l-3.979-3.11l-4.092-3.009l-3.993-3.069l-1.387-1.076l2.733-1.851l4.418-1.939l4.499-1.979
					l1.291-0.499l3.113,2.298l0.043,0.032l0.047,0.027l4.391,2.558l4.396,2.408l3.803,3.252l0.093,0.076l0.104,0.054l4.422,2.274
					l3.686,3.377l0.064,0.06l0.071,0.047l4.282,2.721l0.188,0.125l-0.738,0.352l-4.571,2.212l-4.549,2.26l-4.497,2.386l-0.688,0.333
					l-1.146-1.001l-0.021-0.02l-0.021-0.019l-3.99-3.093L106.702,59.925z"/>
			</g>
			<path opacity="0.37" fill="#B78F75" enable-background="new    " d="M93.534,30.023l4.134,1.679l3.921,2.924l3.981,2.965
				l3.695,3.382l0.139,0.126l0.176,0.068l4.66,1.807l2.902,2.179l0.483,0.365l0.548-0.264l2.359-1.137l4.929-2.525l4.404-2.281
				l1.804,1.038l-3.188,1.49l-4.924,2.433l-3.062,1.479l-1.53,0.738l1.39,0.979l1.906,1.344l4.166,2.844l4.217,2.651l4.063,2.862
				l4.097,2.921l4.127,2.802l4.064,2.821l2.449,2.131l-1.062,0.7l-3.37-2.866l-0.094-0.079l-0.107-0.055l-4.541-2.262l-2.58-1.604
				l-0.435-0.269l-0.473,0.192l-3.308,1.346l-4.609,2.074l-4.61,2.069l-0.084,0.037l-0.073,0.052L120.006,70l-4.682,1.618
				l-0.077,0.027l-0.071,0.038l-4.428,2.396l-4.46,2.282l-4.614,2.089l-3.59,1.638l-1.469,0.67l1.254,1.017l2.76,2.236l3.785,3.128
				l2.348,2.381l-1.131,0.746l-2.984-3.028l-0.08-0.081l-0.096-0.061l-4.199-2.67l-3.884-2.979l-3.849-3.2l-3.855-3.013
				l-3.342-3.642l-0.084-0.093l-0.105-0.069l-3.248-2.119l-0.473-0.308l-0.507,0.243l-1.513,0.727l-4.23,2.049l-4.271,2.001
				l-0.053,0.024l-0.049,0.031l-3.969,2.453l-3.695,1.559l-1.867-1.535l3.05-1.425l4.218-2.157l4.201-2.171l4.24-2.14l1.438-0.742
				l1.203-0.621l-0.948-0.968l-1.054-1.075l-0.067-0.068l-0.08-0.056l-4.091-2.812L67.4,59.424l-3.68-3.287l-3.729-3.289
				l-0.024-0.021l-0.024-0.02l-3.936-3.056l-2.605-1.987l1.252-0.386l3.847,2.033l3.646,3.213l1.614,1.419l0.453,0.398l0.564-0.216
				l2.368-0.904l0.03-0.012l0.03-0.015l4.462-2.053l4.424-2.075l4.478-2.012l4.496-2.043l4.364-2.179l4.438-2.07l4.458-2.024
				l1.741-0.762l1.596-0.699l-1.408-1.025l-1.909-1.391l-0.027-0.02l-0.028-0.018l-4.284-2.701l-2.605-1.665L93.534,30.023
				 M113.448,67.653l1.618,1.417l0.498,0.437l0.597-0.288l1.353-0.656l4.45-2.36l4.529-2.25l4.559-2.206l2.313-1.099l1.574-0.748
				l-1.439-0.981l-1.68-1.145l-4.209-2.672l-3.719-3.408l-0.103-0.091l-0.119-0.062l-4.438-2.282l-3.793-3.243l-0.08-0.067
				l-0.09-0.05l-4.439-2.432l-4.34-2.531l-3.514-2.591l-0.439-0.326l-0.516,0.198l-1.891,0.73l-4.497,1.979l-4.5,1.976l-0.082,0.037
				l-0.075,0.05L87.02,45.66l-1.146,0.772l1.091,0.847l2.485,1.928l4.026,3.096l4.045,2.974l3.976,3.106l3.978,3.129l4.004,3.066
				L113.448,67.653 M73.928,61.94l3.644,3.229l3.817,3.197l3.876,3.158l3.918,2.969l3.8,3.182l1.445,1.225l0.467,0.395l0.564-0.235
				l3.769-1.57l0.028-0.012l0.027-0.014l4.553-2.233l4.518-2.254l4.392-2.104l1.479-0.709l-1.312-0.99l-1.648-1.246l-4.059-2.943
				l-3.648-3.454l-0.078-0.075l-0.095-0.056l-4.308-2.595l-3.862-3.168l-3.9-3.193l-3.721-3.421l-0.069-0.063l-0.08-0.05
				l-3.122-1.938l-0.4-0.249l-0.446,0.151l-1.055,0.355l-0.077,0.026l-0.071,0.038l-4.324,2.291l-4.354,2.182l-4.502,1.993
				l-2.405,1.07L65.4,55.401l0.967,1.026l2.881,3.062l0.119,0.127l0.155,0.078L73.928,61.94 M93.607,28.974l-4.693,1.185l4.556,2.91
				l4.289,2.705l1.909,1.391l-1.741,0.762l-4.471,2.03l-4.447,2.074l-4.388,2.19l-4.464,2.027l-4.474,2.01l-4.438,2.082l-4.455,2.05
				l-2.368,0.905l-1.614-1.419l-3.733-3.291l-4.317-2.281l-3.506,1.079l4.151,3.166l3.929,3.051l3.729,3.289l3.713,3.316
				l4.029,2.926l4.112,2.827l1.054,1.075l-1.438,0.742l-4.232,2.136l-4.209,2.175l-4.214,2.155l-4.454,2.081l3.559,2.926
				l4.323-1.824l4.034-2.494l4.271-2.001l4.242-2.054l1.51-0.725l3.248,2.119l3.397,3.703l3.92,3.063l3.825,3.181l3.95,3.031
				l4.234,2.693l3.562,3.614l2.832-1.87l-3.238-3.283l-3.821-3.16L98.502,81l3.59-1.639l4.611-2.088l4.503-2.303l4.448-2.406
				l4.81-1.663l4.209-2.897l4.611-2.07l4.61-2.074l3.271-1.332l2.62,1.629l4.584,2.283l3.939,3.353l2.787-1.839l-3.482-3.031
				l-4.109-2.852l-4.137-2.809l-4.075-2.906l-4.092-2.882l-4.238-2.665l-4.135-2.823l-1.896-1.335l3.062-1.479l4.932-2.437
				l4.908-2.295l-3.942-2.269L125,40.702l-4.925,2.524l-2.339,1.126l-3.014-2.263l-4.789-1.856l-3.73-3.416l-4.021-2.994l-4.021-3
				L93.607,28.974L93.607,28.974z M115.727,68.318l-1.642-1.438l-3.989-3.093l-4.009-3.07l-3.967-3.121l-3.978-3.108l-4.068-2.991
				l-4.01-3.083l-2.481-1.925l3.96-2.671l4.5-1.977l4.498-1.979l1.848-0.714l3.555,2.623l4.39,2.558l4.465,2.445l3.886,3.319
				l4.541,2.336l3.781,3.468l4.282,2.72l1.649,1.126l-2.312,1.099l-4.563,2.209l-4.539,2.255l-4.476,2.373L115.727,68.318
				L115.727,68.318z M95.074,78.137l-1.445-1.224l-3.804-3.186l-3.957-2.999l-3.848-3.137l-3.807-3.188l-3.719-3.296l-4.521-2.303
				l-2.882-3.062l2.405-1.07l4.5-1.992l4.396-2.202l4.345-2.301l1.055-0.356l3.122,1.938l3.742,3.44l3.922,3.211l3.918,3.214
				l4.37,2.632l3.696,3.499l4.106,2.982l1.638,1.234l-4.391,2.103l-4.527,2.262l-4.551,2.23L95.074,78.137L95.074,78.137z"/>
			<polygon fill="#E5E0E2" points="130.3,119.182 130.546,114.18 130.812,109.186 131.104,106.137 135.639,103.77 140.225,101.115 
				144.954,98.744 149.703,96.403 154.389,93.937 159.104,91.525 164.245,89.694 164.422,87.66 164.395,84.354 159.893,87.17 
				155.598,89.781 150.9,91.619 150.372,91.865 150.542,88.599 150.839,83.408 151.085,78.221 151.354,73.037 151.757,68.771 
				148.312,70.524 147.816,74.907 148.068,80.207 147.693,85.471 147.387,90.734 147.232,93.328 146.355,93.736 142.143,96.482 
				137.37,98.167 133.305,101.197 128.968,103.71 124.516,105.997 120.154,108.459 115.287,109.959 111.188,112.913 
				108.159,113.989 108.266,109.943 108.432,104.861 108.542,99.781 108.677,94.707 108.961,90.56 105.519,92.312 105.145,96.581 
				105.521,101.759 105.279,106.916 105.107,112.072 104.984,115.575 102.247,117.421 97.993,120.09 93.431,122.171 88.87,124.305 
				88.954,128.609 93.376,125.818 98.554,124.268 102.639,120.648 107.45,118.421 112.258,116.188 117.355,114.502 121.393,110.802 
				126.214,108.59 127.648,107.871 127.283,111.055 127.52,116.166 127.146,121.242 126.84,126.318 126.611,129.999 
				125.718,130.469 121.204,133.055 116.193,134.707 111.938,137.771 107.027,139.609 102.699,142.536 98.291,145.322 
				93.579,147.539 88.872,149.805 88.954,154.113 93.252,151.35 98.298,149.789 102.264,146.225 105.434,144.725 105.174,147.729 
				105.548,152.625 105.332,157.504 105.18,162.382 105.018,167.175 108.236,164.747 108.35,160.02 108.491,155.218 
				108.585,150.418 108.698,145.623 108.857,143.102 111.628,141.785 116.596,140.094 120.514,136.451 125.206,134.25 
				129.814,131.895 134.379,129.463 138.841,126.833 143.443,124.477 144.443,123.973 144.227,125.909 144.463,130.648 
				144.13,135.355 143.857,140.064 143.575,144.688 146.807,142.256 147.037,137.693 147.298,133.062 147.512,128.434 
				147.745,123.809 147.884,122.241 148.064,122.15 152.624,119.703 157.213,117.309 161.998,115.555 162.244,112.721 
				162.116,110.623 157.863,113.352 153.018,115.335 148.318,117.588 143.951,120.448 139.032,122.28 134.812,125.415 
				130.324,128.052 129.779,128.337 130.003,124.184 			"/>
			<g>
				<polygon fill="#BD4136" points="131.295,119.246 131.542,114.23 131.811,109.244 132.045,106.773 136.1,104.661 140.7,102.002 
					145.4,99.645 150.145,97.307 154.854,94.828 159.5,92.452 164.149,90.795 164.245,89.693 159.098,91.527 154.382,93.938 
					149.695,96.405 144.947,98.746 140.218,101.117 135.632,103.771 131.098,106.139 130.809,109.188 130.539,114.182 
					130.293,119.182 129.996,124.186 129.771,128.335 130.316,128.05 134.805,125.413 139.023,122.277 143.943,120.445 
					148.311,117.586 153.007,115.333 157.855,113.354 162.107,110.624 162.239,112.777 162.555,109.153 161.572,109.784 
					157.396,112.464 152.631,114.412 152.605,114.424 152.581,114.438 147.883,116.691 147.822,116.718 147.766,116.755 
					143.494,119.555 138.682,121.348 138.547,121.396 138.434,121.482 134.257,124.586 130.873,126.573 130.998,124.241 				"/>
				<polygon fill="#BD4136" points="161.998,115.552 157.206,117.309 152.617,119.704 148.057,122.15 147.873,122.242 
					147.734,123.809 147.5,128.434 147.287,133.064 147.025,137.695 146.796,142.257 143.564,144.688 143.848,140.066 
					144.118,135.357 144.451,130.65 144.215,125.914 144.436,123.977 143.436,124.48 138.831,126.835 134.369,129.465 
					129.807,131.896 125.2,134.252 120.508,136.453 116.59,140.098 111.622,141.787 108.852,143.102 108.691,145.623 
					108.58,150.418 108.484,155.218 108.34,160.021 108.23,164.75 105.008,167.178 105.172,162.385 105.322,157.507 
					105.539,152.628 105.165,147.732 105.424,144.73 102.254,146.23 98.289,149.792 93.243,151.354 88.945,154.119 88.863,149.809 
					93.57,147.541 98.282,145.324 102.688,142.538 107.016,139.609 111.926,137.771 116.182,134.709 121.193,133.057 
					125.709,130.471 126.605,130.001 126.834,126.318 127.143,121.244 127.516,116.168 127.281,111.059 127.645,107.873 
					126.208,108.592 121.389,110.805 117.352,114.504 112.252,116.191 107.441,118.423 102.63,120.652 98.546,124.27 
					93.368,125.822 88.946,128.613 88.862,124.309 93.423,122.172 97.985,120.091 102.238,117.422 104.977,115.576 105.1,112.073 
					105.271,106.917 105.511,101.76 105.134,96.582 105.507,92.318 104.455,92.854 104.135,96.498 104.128,96.578 104.135,96.658 
					104.506,101.773 104.27,106.875 104.096,112.044 103.992,115.036 101.68,116.598 97.509,119.211 93.007,121.268 88.438,123.405 
					88.083,123.569 88.236,130.245 89.48,129.459 93.786,126.741 98.833,125.227 99.044,125.164 99.209,125.018 103.184,121.497 
					107.866,119.331 112.623,117.122 117.665,115.454 117.869,115.389 118.025,115.242 121.948,111.646 126.439,109.584 
					126.286,110.939 126.273,111.018 126.279,111.098 126.509,116.15 126.143,121.17 125.834,126.258 125.643,129.375 
					125.246,129.583 120.788,132.136 115.873,133.758 115.727,133.807 115.602,133.896 111.456,136.882 106.671,138.673 
					106.561,138.715 106.462,138.781 102.134,141.708 97.804,144.441 93.148,146.631 88.664,148.791 88.816,155.387 89.49,154.953 
					93.673,152.266 98.589,150.744 98.799,150.68 98.961,150.534 102.816,147.066 104.281,146.375 104.173,147.645 104.166,147.727 
					104.172,147.807 104.541,152.645 104.328,157.462 104.177,162.354 104.014,167.145 103.974,168.328 109.228,165.231 
					109.238,164.773 109.35,160.045 109.494,155.251 109.588,150.439 109.701,145.648 109.82,143.752 112.008,142.714 
					116.92,141.04 117.122,140.975 117.277,140.828 121.083,137.292 125.634,135.156 130.273,132.786 134.854,130.348 
					139.33,127.711 143.249,125.704 143.236,125.798 143.227,125.879 143.23,125.96 143.464,130.641 143.135,135.287 
					142.863,140.007 142.581,144.626 142.521,145.604 147.797,142.494 147.805,142.307 148.034,137.744 148.294,133.118 
					148.508,128.475 148.742,123.855 148.829,122.872 153.096,120.583 157.617,118.227 161.902,116.655 				"/>
				<polygon fill="#BD4136" points="109.417,104.895 109.527,99.808 109.663,94.738 109.984,90.039 108.947,90.567 108.665,94.708 
					108.529,99.782 108.419,104.859 108.255,109.941 108.15,113.99 111.18,112.914 115.279,109.96 120.146,108.46 124.503,105.998 
					128.956,103.711 133.294,101.198 137.355,98.168 142.127,96.483 146.34,93.737 147.219,93.329 147.371,90.735 147.68,85.471 
					148.055,80.207 147.803,74.907 148.297,70.532 147.239,71.071 146.816,74.796 146.807,74.876 146.811,74.956 147.061,80.196 
					146.689,85.4 146.381,90.677 146.264,92.674 145.926,92.83 145.863,92.86 145.802,92.898 141.689,95.579 137.032,97.225 
					136.886,97.275 136.766,97.366 132.744,100.361 128.479,102.833 124.045,105.107 119.744,107.536 114.977,109.005 
					114.822,109.055 114.688,109.15 110.707,112.02 109.186,112.561 109.253,109.971 				"/>
				<polygon fill="#BD4136" points="163.857,83.513 159.355,86.328 155.146,88.888 151.45,90.335 151.537,88.656 151.834,83.47 
					152.081,78.272 152.352,73.093 152.812,68.233 151.757,68.771 151.354,73.037 151.082,78.221 150.836,83.409 150.539,88.599 
					150.369,91.866 150.895,91.62 155.591,89.782 159.887,87.171 164.389,84.356 164.416,87.722 164.835,82.903 				"/>
			</g>
			<path opacity="0.37" fill="#B78F75" enable-background="new    " d="M130.302,119.188l0.246-5.002l0.269-4.994l0.291-3.049
				l4.535-2.367l4.586-2.652l4.729-2.371l4.749-2.341l4.688-2.467l4.715-2.411l5.135-1.83l0.181-2.083l-0.026-3.258l-4.502,2.815
				l-4.293,2.611l-4.696,1.838l-0.527,0.246l0.17-3.267l0.298-5.19l0.245-5.188l0.271-5.184l0.396-4.273l-3.446,1.755l-0.496,4.384
				l0.252,5.3l-0.375,5.264l-0.31,5.264l-0.151,2.594l-0.877,0.408l-4.213,2.746l-4.772,1.685l-4.065,3.03l-4.337,2.513
				l-4.452,2.287l-4.361,2.462l-4.863,1.5l-4.102,2.954l-3.026,1.076l0.104-4.046l0.166-5.082l0.109-5.08l0.135-5.074l0.284-4.15
				l-3.44,1.752l-0.375,4.271l0.377,5.178l-0.238,5.157l-0.176,5.156l-0.121,3.503l-2.736,1.846l-4.254,2.669l-4.562,2.081
				l-4.561,2.134l0.084,4.305l4.422-2.791l5.178-1.551l4.083-3.619l4.812-2.228l4.808-2.233l5.1-1.686l4.037-3.699l4.819-2.213
				l1.437-0.719l-0.363,3.184l0.232,5.111l-0.371,5.076l-0.309,5.076l-0.229,3.681l-0.896,0.47l-4.514,2.586l-5.014,1.652
				l-4.256,3.064l-4.91,1.838l-4.328,2.927l-4.405,2.786l-4.712,2.217l-4.707,2.266l0.082,4.312l4.298-2.768l5.046-1.561
				l3.969-3.564l3.17-1.5l-0.263,3.004l0.374,4.896l-0.216,4.879l-0.149,4.878l-0.162,4.794l3.221-2.429l0.111-4.729l0.143-4.801
				l0.094-4.8l0.113-4.795l0.16-2.522l2.77-1.312l4.967-1.688l3.92-3.646l4.691-2.201l4.607-2.354l4.562-2.434l4.462-2.63
				l4.604-2.354l1.002-0.504l-0.219,1.938l0.234,4.738l-0.333,4.709l-0.271,4.706l-0.282,4.623l3.229-2.434l0.229-4.562l0.261-4.634
				l0.216-4.629l0.231-4.627l0.139-1.563l0.183-0.093l4.562-2.445l4.589-2.396l4.783-1.75l0.247-2.852l-0.127-2.081l-4.253,2.729
				l-4.848,1.981l-4.699,2.253l-4.365,2.86l-4.919,1.832l-4.222,3.135l-4.486,2.64l-0.545,0.282l0.224-4.151L130.302,119.188z
				 M129.544,114.133l-0.245,4.99l-0.297,5.009l-0.225,4.153l-0.096,1.756l1.561-0.816l0.586-0.309l4.486-2.637l0.045-0.027
				l0.047-0.031l4.104-3.051l4.784-1.783l0.104-0.039l0.096-0.061l4.312-2.824l4.61-2.212l4.817-1.972l0.084-0.035l0.078-0.049
				l2.815-1.812l0.144,2.34l-4.496,1.646l-0.062,0.021l-0.058,0.029l-4.6,2.398l-4.537,2.437l-0.182,0.091l-0.498,0.25l-0.05,0.557
				l-0.144,1.604l-0.232,4.632l-0.212,4.619l-0.265,4.637l-0.205,4.098l-1.125,0.847l0.148-2.464l0.271-4.691l0.332-4.709
				l0.004-0.062l-0.002-0.062l-0.231-4.658l0.209-1.854l0.207-1.837l-1.649,0.831l-1.008,0.507l-4.604,2.354l-0.025,0.015
				l-0.023,0.019l-4.426,2.605l-4.549,2.423l-4.578,2.343l-4.691,2.2l-0.143,0.065l-0.113,0.104l-3.764,3.496l-4.768,1.623
				l-0.055,0.021l-0.056,0.023l-2.77,1.312l-0.531,0.254l-0.037,0.588l-0.162,2.562l-0.11,4.799l-0.096,4.789l-0.144,4.811
				l-0.103,4.245l-1.162,0.875l0.094-2.702l0.15-4.864l0.217-4.88l0.004-0.062l-0.006-0.061l-0.367-4.816l0.252-2.922l0.148-1.73
				l-1.572,0.74l-3.172,1.5l-0.131,0.062l-0.107,0.098l-3.803,3.418l-4.836,1.496l-0.13,0.041l-0.115,0.073l-2.791,1.796
				l-0.036-1.877l4.121-1.984l4.712-2.217l0.056-0.022l0.053-0.033l4.433-2.803l4.23-2.86l4.799-1.796l0.125-0.047l0.105-0.078
				l4.135-2.978l4.861-1.604l0.098-0.031l0.088-0.051l4.48-2.566l0.896-0.471l0.498-0.262l0.034-0.562l0.228-3.683l0.307-5.063
				l0.373-5.073l0.004-0.062l-0.002-0.062l-0.23-5.031l0.354-3.103l0.211-1.836l-1.651,0.826l-1.4,0.705l-4.82,2.211l-0.145,0.062
				l-0.115,0.104l-3.879,3.558l-4.896,1.616l-0.057,0.021l-0.053,0.022l-4.808,2.232l-4.812,2.229l-0.133,0.062l-0.109,0.1
				l-3.919,3.474l-4.967,1.487l-0.131,0.039l-0.115,0.072l-2.924,1.846l-0.036-1.883l3.963-1.854l4.57-2.077l0.061-0.026
				l0.056-0.035l4.281-2.688l2.738-1.846l0.423-0.285l0.02-0.509l0.121-3.507l0.174-5.145l0.239-5.154l0.002-0.062l-0.004-0.062
				l-0.371-5.099l0.397-4.528l1.365-0.795l-0.233,3.414l-0.136,5.08l-0.11,5.069l-0.164,5.088l-0.106,4.046l-0.035,1.456
				l1.373-0.485l3.027-1.076l0.133-0.049l0.117-0.082l3.965-2.855l4.711-1.453l0.104-0.031l0.098-0.053l4.322-2.443l4.453-2.285
				l0.021-0.014l0.021-0.013l4.336-2.515l0.051-0.027l0.048-0.035l3.941-2.938l4.63-1.635l0.113-0.04l0.1-0.062l4.153-2.707
				l0.812-0.379l0.541-0.252l0.035-0.596l0.15-2.594l0.311-5.251l0.375-5.264l0.004-0.061l-0.004-0.06l-0.248-5.22l0.522-4.646
				l1.354-0.772l-0.328,3.467l-0.27,5.188l-0.245,5.179l-0.297,5.195l-0.17,3.267l-0.087,1.66l1.507-0.702l0.5-0.232l4.668-1.826
				l0.081-0.032l0.074-0.045l4.305-2.618l2.986-1.867l0.021,2.771l-4.662,1.662l-0.062,0.021l-0.059,0.029l-4.729,2.417
				l-4.662,2.454l-4.755,2.344l-4.729,2.371l-0.024,0.014l-0.024,0.016l-4.55,2.633l-4.532,2.367l-0.48,0.252l-0.053,0.54
				l-0.293,3.09L129.544,114.133z"/>
			<path fill="#C7BDC1" d="M85.126,146.068l-4.168-3.316l-4.08-3.424l-1.312-1.225l-0.094-2.453l-0.226-5.174l-0.156-5.185
				l-0.8-5.147l0.054-4.317l2.951,3.225l3.712,3.401l3.716,3.411l4.073,2.474l0.424-4.165l-4.112-3.174l-3.938-3.179l-3.746-3.402
				l-3.73-3.427l-4.035-3.062l-4.113-2.977l-3.33-3.463l-0.057-1.482l-0.226-5.174l-0.155-5.181l-0.8-5.151l0.064-5.224
				l-3.248-2.703l0.023,4.87l0.219,5.083l0.245,5.086l0.19,5.093l0.094,2.199L57.827,98.4L54.4,94.614l-3.93-3.191l-3.839-3.301
				l-3.958-3.161l-4.235-2.847l-3.656-3.702l0.886,4.494l3.303,3.588l3.803,3.289l0.659,0.561l0.011,2.119l0.219,5.083l0.245,5.086
				l0.19,5.093l0.11,2.576l-3.174-2.82l-4.251-3.441l0.868,4.504l3.467,3.814l3.94,3.526l3.974,3.496l3.907,3.567l3.925,3.551
				l1.943,1.616l0.073,2.835l0.323,5.41l0.344,5.414l0.308,5.461l3.654,3.479l-0.369-5.656l-0.366-5.521l-0.336-5.527l-0.153-2.93
				l2.616,2.312l3.926,3.553l3.842,3.646l4.61,2.772l3.572,3.955l3.861,3.643l4.308,3.76l-0.454-4.717L85.126,146.068z
				 M64.932,128.723l-4.255-3.229l-3.676-3.889l-4.327-3.146l-3.577-4l-1.219-1.027l-0.093-2.408l-0.226-5.172l-0.156-5.183
				l-0.8-5.151l0.03-2.456l3.736,3.306l3.78,3.312l3.933,3.138l3.824,3.269l3.784,3.315l3.7,3.414l1.724,0.959l0.016,3.312
				l0.219,5.083l0.245,5.086l0.19,5.096l0.099,2.305l-2.773-2.617L64.932,128.723z"/>
			<g>
				<polygon fill="#8D411E" points="37.415,103.259 36.691,102.672 36.813,104.064 41.035,107.482 44.209,110.303 44.099,107.727 
					43.909,102.634 43.664,97.548 43.445,92.465 43.434,90.346 42.775,89.785 38.972,86.496 35.669,82.908 34.783,78.414 
					38.439,82.116 42.674,84.963 46.632,88.124 50.471,91.425 54.401,94.616 57.829,98.404 58.567,98.912 58.473,96.713 
					58.283,91.62 58.038,86.534 57.819,81.451 57.795,76.579 61.043,79.282 60.979,84.506 61.779,89.657 61.934,94.838 
					62.16,100.012 62.217,101.494 65.547,104.957 69.66,107.93 73.695,110.992 77.425,114.419 81.171,117.82 85.109,121 
					88.076,123.29 88.055,122.337 85.72,120.195 81.822,117.049 78.097,113.665 74.371,110.242 74.336,110.211 74.299,110.184 
					70.264,107.121 66.204,104.186 63.2,101.062 63.158,99.959 62.932,94.78 62.778,89.612 62.776,89.55 62.766,89.488 
					61.979,84.419 62.032,80.092 56.791,75.709 56.795,76.584 56.818,81.453 57.038,86.575 57.283,91.666 57.464,96.51 
					55.142,93.944 55.091,93.887 55.03,93.838 51.1,90.647 47.284,87.364 43.298,84.18 43.266,84.155 43.232,84.133 39.08,81.341 
					35.494,77.71 34.406,76.608 35.026,83.685 38.237,87.172 38.275,87.214 38.318,87.251 42.121,90.54 42.436,90.81 42.445,92.469 
					42.665,97.59 42.91,102.682 43.1,107.764 43.11,107.986 41.7,106.734 				"/>
				<polygon fill="#8D411E" points="88.796,154.526 84.713,150.962 80.852,147.32 77.28,143.365 72.67,140.592 68.828,136.946 
					64.902,133.393 62.286,131.08 62.439,134.01 62.775,139.537 63.141,145.059 63.51,150.715 59.856,147.236 59.548,141.775 
					59.204,136.361 58.881,130.951 58.808,128.116 56.865,126.5 52.94,122.949 49.033,119.382 45.059,115.886 41.119,112.359 
					37.652,108.545 36.833,104.297 37.302,109.636 40.38,113.023 40.415,113.062 40.453,113.096 44.393,116.622 48.373,120.124 
					52.266,123.68 56.195,127.234 57.821,128.589 57.883,130.973 58.208,136.416 58.552,141.834 58.826,146.696 64.627,152.457 
					64.509,150.646 64.14,144.986 63.774,139.465 63.438,133.943 63.41,133.404 64.241,134.135 68.158,137.68 71.982,141.311 
					72.061,141.387 72.155,141.443 76.638,144.139 80.111,147.989 80.137,148.016 80.166,148.043 84.027,151.684 88.364,155.469 
					88.827,155.873 				"/>
				<path fill="#8D411E" d="M71.35,122.167l-0.219-5.083l-0.016-3.312l-1.724-0.959l-3.7-3.414l-3.784-3.314l-3.824-3.27
					l-3.933-3.14l-3.78-3.312l-3.736-3.306l-0.03,2.456l0.8,5.151l0.156,5.184l0.226,5.172l0.093,2.408l1.219,1.026l3.577,4
					l4.327,3.146l3.676,3.89l4.255,3.229l4.179,3.314l2.772,2.62l-0.099-2.303l-0.19-5.097L71.35,122.167z M69.798,131.312
					l-0.031-0.027l-0.034-0.026l-4.179-3.313l-4.206-3.189l-3.619-3.828l-0.063-0.064l-0.075-0.057l-4.24-3.08l-3.507-3.922
					l-0.047-0.053l-0.054-0.046l-0.881-0.743l-0.076-1.967l-0.226-5.18l-0.155-5.168l-0.002-0.062l-0.01-0.062l-0.789-5.077
					l0.002-0.188l2.102,1.858l3.783,3.314l3.968,3.169l3.799,3.246l3.774,3.308l3.682,3.396l0.087,0.082l0.104,0.059l1.213,0.678
					l0.013,2.726l0.22,5.121l0.245,5.093l0.185,4.935L69.798,131.312z"/>
				<polygon fill="#8D411E" points="85.821,145.336 85.751,145.28 81.583,141.965 77.543,138.573 76.552,137.648 76.474,135.605 
					76.248,130.427 76.093,125.258 76.091,125.196 76.081,125.134 75.294,120.068 75.315,118.361 76.559,119.718 76.589,119.751 
					76.621,119.78 80.333,123.182 84.049,126.592 84.121,126.655 84.205,126.706 88.211,129.141 88.184,127.967 84.724,125.865 
					81.008,122.454 77.296,119.053 74.345,115.828 74.291,120.145 75.091,125.293 75.247,130.477 75.473,135.65 75.567,138.104 
					76.879,139.329 80.959,142.753 85.127,146.068 88.567,150.005 88.731,151.711 88.659,148.583 85.881,145.404 				"/>
			</g>
			<path opacity="0.37" fill="#A06B56" enable-background="new    " d="M58.806,78.721l1.231,1.025l-0.059,4.747l-0.001,0.084
				l0.013,0.082l0.79,5.09l0.154,5.133l0.226,5.168l0.057,1.482l0.015,0.381l0.264,0.274l3.33,3.463l0.062,0.062l0.072,0.056
				l4.095,2.957l3.998,3.032l3.7,3.398l3.746,3.399l0.021,0.021l0.022,0.021l3.954,3.19l3.672,2.834l-0.207,2.036l-2.635-1.604
				l-3.644-3.345l-3.68-3.373l-2.921-3.19l-1.707-1.861l-0.031,2.523l-0.054,4.316l-0.001,0.084l0.013,0.082l0.79,5.09l0.155,5.133
				l0.226,5.17l0.094,2.452l0.016,0.41l0.301,0.281l1.312,1.226l0.02,0.021l0.021,0.017l4.1,3.44l4.098,3.261l3.169,3.625
				l0.183,1.896l-2.385-2.082l-3.832-3.61l-3.546-3.929l-0.1-0.108l-0.127-0.076l-4.517-2.718l-3.78-3.587l-3.935-3.562
				l-2.616-2.312l-1.785-1.579l0.124,2.381l0.154,2.938l0.336,5.533l0.366,5.521l0.202,3.104l-1.514-1.439l-0.285-5.072
				l-0.344-5.408l-0.321-5.379l-0.073-2.836l-0.012-0.451l-0.349-0.289l-1.912-1.592l-3.921-3.548l-3.922-3.579l-3.967-3.488
				l-3.902-3.492l-3.243-3.57l-0.296-1.536l2.086,1.688l3.174,2.817l1.764,1.567l-0.101-2.356l-0.11-2.569l-0.19-5.104l-0.245-5.081
				l-0.218-5.046l-0.011-2.118l-0.002-0.46l-0.351-0.297l-0.652-0.555l-3.76-3.253l-3.073-3.338l-0.188-0.957l1.321,1.337
				l0.07,0.072l0.083,0.056l4.201,2.824l3.897,3.112L49.84,92.2l3.869,3.143l3.377,3.73l0.078,0.087l0.096,0.066l0.738,0.509
				l1.652,1.137l-0.086-2.004l-0.094-2.194l-0.19-5.103l-0.245-5.081l-0.218-5.046L58.806,78.721 M46.405,100.764l0.155,5.131
				l0.226,5.168l0.093,2.408l0.017,0.441l0.338,0.285l1.165,0.982l3.53,3.943l0.07,0.08l0.087,0.062l4.252,3.09l3.612,3.818
				l0.057,0.062l0.065,0.051l4.238,3.215l4.145,3.288l2.742,2.588l1.791,1.688l-0.105-2.459l-0.099-2.299l-0.19-5.104l-0.245-5.081
				l-0.218-5.045l-0.016-3.312l-0.003-0.584l-0.511-0.285l-1.619-0.897l-3.632-3.354l-3.794-3.321l-3.85-3.287l-3.897-3.11
				l-3.777-3.309l-3.736-3.306l-1.635-1.447l-0.027,2.184l-0.03,2.457l-0.001,0.083l0.013,0.082L46.405,100.764 M57.795,76.579
				l0.023,4.87l0.219,5.083l0.245,5.086l0.19,5.093l0.094,2.199l-0.738-0.508L54.4,94.614l-3.93-3.191l-3.839-3.301l-3.958-3.161
				l-4.235-2.847l-3.656-3.702l0.886,4.494l3.303,3.588l3.803,3.289l0.659,0.561l0.011,2.119l0.219,5.083l0.245,5.086l0.19,5.093
				l0.11,2.576l-3.174-2.82l-4.251-3.441l0.868,4.504l3.467,3.814l3.94,3.526l3.974,3.496l3.907,3.567l3.925,3.551l1.943,1.616
				l0.073,2.835l0.323,5.41l0.344,5.414l0.308,5.461l3.654,3.479l-0.369-5.656l-0.366-5.521l-0.336-5.527l-0.153-2.93l2.616,2.312
				l3.926,3.553l3.842,3.646l4.61,2.772l3.572,3.955l3.861,3.643l4.308,3.76l-0.454-4.717l-3.44-3.938l-4.168-3.314l-4.08-3.424
				l-1.312-1.227l-0.094-2.453l-0.226-5.174l-0.156-5.183l-0.8-5.149l0.054-4.315l2.951,3.225l3.712,3.401l3.716,3.41l4.073,2.475
				l0.424-4.165l-4.112-3.174l-3.938-3.181l-3.746-3.4l-3.73-3.427l-4.035-3.062l-4.113-2.973l-3.33-3.463l-0.057-1.482
				l-0.226-5.174l-0.155-5.181l-0.8-5.151l0.064-5.224L57.795,76.579L57.795,76.579z M71.884,134.652l-2.773-2.616l-4.179-3.313
				l-4.255-3.229l-3.676-3.889l-4.327-3.146l-3.577-4l-1.219-1.027l-0.093-2.408l-0.226-5.172l-0.156-5.183l-0.8-5.151l0.03-2.456
				l3.736,3.306l3.78,3.312l3.933,3.138l3.824,3.269l3.784,3.315l3.7,3.414l1.724,0.959l0.016,3.312l0.219,5.083l0.245,5.086
				l0.19,5.096L71.884,134.652L71.884,134.652z"/>
			<polygon fill="#E5E0E2" points="105.917,89.33 106.729,89.58 107.718,89.063 108.816,89.58 108.229,90.393 105.594,91.457 
				104.477,90.519 			"/>
			<polygon fill="#E5E0E2" points="148.107,68.303 147.471,69.069 148.407,69.682 150.417,68.992 151.596,67.832 150.251,67.213 			
				"/>
			<path fill="#E5E0E2" d="M61.716,77.503c-0.033,1.011-0.673,1.779-0.673,1.779l-1.006,0.464l-1.229-0.666v-2.501l-0.373-0.769
				L61.716,77.503z"/>
			<polygon fill="#E5E0E2" points="90.353,124.715 90.272,123.721 88.729,124.218 88.442,127.08 88.797,128.338 90.353,126.544 
				90.353,125.018 			"/>
			<polygon fill="#E5E0E2" points="90.272,150.24 89.531,149.588 88.566,150.004 88.566,153.705 89.021,154.721 90.272,153.266 
				90.272,151.08 			"/>
		</g>
	</g>
</g>
</svg>
