<?xml version="1.0" encoding="utf-8"?>
<!-- Generator: Adobe Illustrator 15.0.0, SVG Export Plug-In . SVG Version: 6.00 Build 0)  -->
<!DOCTYPE svg PUBLIC "-//W3C//DTD SVG 1.1//EN" "http://www.w3.org/Graphics/SVG/1.1/DTD/svg11.dtd">
<svg version="1.1" id="Layer_1" xmlns="http://www.w3.org/2000/svg" xmlns:xlink="http://www.w3.org/1999/xlink" x="0px" y="0px"
	 width="200px" height="200px" viewBox="0 0 200 200" enable-background="new 0 0 200 200" xml:space="preserve">
<g id="icon">
	<g id="Layer_2">
	</g>
	<g id="Layer_1_1_">
		<g>
			<g>
				<g>
					<g>
						
							<linearGradient id="SVGID_1_" gradientUnits="userSpaceOnUse" x1="273.8975" y1="-1176.6938" x2="250.6538" y2="-1194.671" gradientTransform="matrix(0.9994 -0.0333 -0.0333 -0.9994 -193.2092 -1136.4087)">
							<stop  offset="0" style="stop-color:#FF0000"/>
							<stop  offset="0.1674" style="stop-color:#F60000"/>
							<stop  offset="0.4388" style="stop-color:#DE0000"/>
							<stop  offset="0.7785" style="stop-color:#B70000"/>
							<stop  offset="1" style="stop-color:#9A0000"/>
						</linearGradient>
						<path fill="url(#SVGID_1_)" d="M91.198,56.933l-5.647,3.145c0,0-5.805,2.998-11.422-7.093
							c-4.33-7.778-3.832-20.308-3.832-20.308c-4.088-7.343-13.354-9.983-20.697-5.895c-7.345,4.088-9.982,13.354-5.896,20.698
							c0,0,11.35,6.964,15.771,14.906c5.089,9.142-0.517,12.495-0.517,12.495l-5.65,3.145c-5.706,3.178-7.757,10.379-4.581,16.086
							l10.953,19.676c3.177,5.706,10.379,7.758,16.085,4.58l37.892-21.092c5.706-3.178,7.758-10.38,4.581-16.087l-10.952-19.675
							C104.107,55.807,96.905,53.756,91.198,56.933z M54.892,36.291c1.89-1.052,4.276-0.373,5.329,1.518
							c1.052,1.89,0.373,4.277-1.518,5.329c-1.891,1.052-4.276,0.373-5.328-1.518C52.322,39.729,53.002,37.344,54.892,36.291z"/>
						
							<linearGradient id="SVGID_2_" gradientUnits="userSpaceOnUse" x1="233.2529" y1="-1201.0029" x2="248.9244" y2="-1299.3854" gradientTransform="matrix(0.9994 -0.0333 -0.0333 -0.9994 -193.2092 -1136.4087)">
							<stop  offset="0" style="stop-color:#FF0000"/>
							<stop  offset="0.1674" style="stop-color:#F60000"/>
							<stop  offset="0.4388" style="stop-color:#DE0000"/>
							<stop  offset="0.7785" style="stop-color:#B70000"/>
							<stop  offset="1" style="stop-color:#9A0000"/>
						</linearGradient>
						<path fill="url(#SVGID_2_)" d="M93.475,55.666l-5.647,3.145c0,0-5.806,2.998-11.423-7.093
							c-4.33-7.777-3.831-20.308-3.831-20.308c-4.089-7.343-13.355-9.983-20.698-5.895c-7.345,4.088-9.982,13.355-5.894,20.698
							c0,0,11.348,6.964,15.771,14.906c5.087,9.142-0.519,12.494-0.519,12.494l-5.648,3.146c-5.708,3.177-7.758,10.379-4.582,16.085
							l10.953,19.676c3.176,5.707,10.378,7.758,16.085,4.582l37.892-21.094c5.707-3.177,7.758-10.379,4.582-16.086l-10.953-19.675
							C106.384,54.54,99.181,52.489,93.475,55.666z M57.168,35.023c1.891-1.052,4.276-0.372,5.329,1.519
							c1.052,1.89,0.372,4.276-1.518,5.328c-1.891,1.053-4.277,0.373-5.329-1.518C54.598,38.462,55.277,36.077,57.168,35.023z"/>
						<g>
							
								<linearGradient id="SVGID_3_" gradientUnits="userSpaceOnUse" x1="249.0605" y1="-1199.0991" x2="258.6989" y2="-1259.6067" gradientTransform="matrix(0.9994 -0.0333 -0.0333 -0.9994 -193.2092 -1136.4087)">
								<stop  offset="0" style="stop-color:#FF6A42"/>
								<stop  offset="0.1615" style="stop-color:#F7613C"/>
								<stop  offset="0.4234" style="stop-color:#E0492E"/>
								<stop  offset="0.7513" style="stop-color:#BB2215"/>
								<stop  offset="1" style="stop-color:#9A0000"/>
							</linearGradient>
							<path fill="url(#SVGID_3_)" d="M76.471,53.72c5.617,10.091,11.423,7.093,11.423,7.093l5.648-3.145
								c5.706-3.177,12.909-1.126,16.086,4.581l10.953,19.674c0.767,1.376,1.222,2.839,1.401,4.312
								c0.103-2.131-0.354-4.314-1.469-6.314l-10.953-19.675c-3.182-5.707-10.38-7.758-16.086-4.581l-5.647,3.145
								c0,0-5.806,2.998-11.423-7.093c-2.767-4.969-3.561-11.874-3.775-16.215C72.692,39.396,73.227,47.892,76.471,53.72z"/>
							
								<linearGradient id="SVGID_4_" gradientUnits="userSpaceOnUse" x1="209.0176" y1="-1220.6904" x2="211.7401" y2="-1237.7814" gradientTransform="matrix(0.9994 -0.0333 -0.0333 -0.9994 -193.2092 -1136.4087)">
								<stop  offset="0" style="stop-color:#FF6A42"/>
								<stop  offset="0.1615" style="stop-color:#F7613C"/>
								<stop  offset="0.4234" style="stop-color:#E0492E"/>
								<stop  offset="0.7513" style="stop-color:#BB2215"/>
								<stop  offset="1" style="stop-color:#9A0000"/>
							</linearGradient>
							<path fill="url(#SVGID_4_)" d="M55.651,78.762l5.648-3.146c0,0,3.23-1.938,2.556-6.875c-0.279,3.466-2.622,4.872-2.622,4.872
								l-5.648,3.146c-4.331,2.411-6.549,7.138-5.983,11.772C49.794,84.585,51.944,80.824,55.651,78.762z"/>
							
								<linearGradient id="SVGID_5_" gradientUnits="userSpaceOnUse" x1="211.2988" y1="-1173.2261" x2="213.5712" y2="-1187.4916" gradientTransform="matrix(0.9994 -0.0333 -0.0333 -0.9994 -193.2092 -1136.4087)">
								<stop  offset="0" style="stop-color:#FF6A42"/>
								<stop  offset="0.1615" style="stop-color:#F7613C"/>
								<stop  offset="0.4234" style="stop-color:#E0492E"/>
								<stop  offset="0.7513" style="stop-color:#BB2215"/>
								<stop  offset="1" style="stop-color:#9A0000"/>
							</linearGradient>
							<path fill="url(#SVGID_5_)" d="M51.941,27.518c7.3-4.063,16.493-1.475,20.619,5.768c-0.015-1.17,0.013-1.875,0.013-1.875
								c-4.089-7.343-13.355-9.983-20.698-5.895c-5.507,3.066-8.367,9.042-7.731,14.937C44.273,35.244,47.059,30.235,51.941,27.518z
								"/>
							
								<linearGradient id="SVGID_6_" gradientUnits="userSpaceOnUse" x1="213.1074" y1="-1185.1519" x2="213.9994" y2="-1190.7517" gradientTransform="matrix(0.9994 -0.0333 -0.0333 -0.9994 -193.2092 -1136.4087)">
								<stop  offset="0" style="stop-color:#FF6A42"/>
								<stop  offset="0.1615" style="stop-color:#F7613C"/>
								<stop  offset="0.4234" style="stop-color:#E0492E"/>
								<stop  offset="0.7513" style="stop-color:#BB2215"/>
								<stop  offset="1" style="stop-color:#9A0000"/>
							</linearGradient>
							<path fill="url(#SVGID_6_)" d="M55.718,42.355c1.052,1.89,3.438,2.57,5.329,1.518c1.646-0.917,2.372-2.845,1.836-4.577
								c-0.234,1.053-0.887,2.008-1.903,2.574c-1.891,1.053-4.277,0.373-5.329-1.518c-0.135-0.244-0.24-0.496-0.32-0.752
								C55.129,40.505,55.231,41.481,55.718,42.355z"/>
						</g>
						<path fill="#C07026" d="M128.302,93.809c0,0,4.847-0.416,9.812,8.251c9.244,16.127,18.621,25.979,18.621,25.979
							c-25.649,19.852-74.708,44.208-74.697,44.208c0,0,2.223-3.813-5.931-19.104c-7.167-13.44-9.467-21.852-8.421-24.914
							C68.734,125.167,128.302,93.809,128.302,93.809z"/>
						
							<linearGradient id="SVGID_7_" gradientUnits="userSpaceOnUse" x1="249.8311" y1="-1265.7993" x2="299.456" y2="-1340.6721" gradientTransform="matrix(0.9994 -0.0333 -0.0333 -0.9994 -193.2092 -1136.4087)">
							<stop  offset="0" style="stop-color:#FAC28D"/>
							<stop  offset="1" style="stop-color:#7C5320"/>
						</linearGradient>
						<path fill="url(#SVGID_7_)" d="M127.275,97.417c0,0,3.972-0.545,9.918,9.621c8.688,14.858,15.125,20.396,15.125,20.396
							c-19.188,15.92-68.067,41.004-68.062,41c0,0,3.79,0.127-5.959-18.646c-5.866-11.294-7.135-18.128-6.262-20.692
							C72.913,126.534,127.275,97.417,127.275,97.417z"/>
						<polygon fill="#728BA4" points="114.371,68.973 129.087,93.94 65.607,129.244 52.354,103.885 						"/>
						
							<linearGradient id="SVGID_8_" gradientUnits="userSpaceOnUse" x1="193.7285" y1="-1252.5049" x2="314.275" y2="-1230.4622" gradientTransform="matrix(0.9994 -0.0333 -0.0333 -0.9994 -193.2092 -1136.4087)">
							<stop  offset="0" style="stop-color:#748B9F"/>
							<stop  offset="0.4785" style="stop-color:#FCFFFF"/>
							<stop  offset="0.638" style="stop-color:#88A2BD"/>
							<stop  offset="1" style="stop-color:#1E3849"/>
						</linearGradient>
						<polygon fill="url(#SVGID_8_)" points="114.525,71.504 126.066,91.691 68.087,124.881 58.048,104.287 						"/>
						<path fill="#D48158" d="M112.665,105.251c0,0,3.39,1.647,9.899,10.843c6.729,9.504,7.412,9.891,7.412,9.891
							s-1.024,2.392-9.289-7.623c-8.271-10.019-11.194-9.006-11.194-9.006l-17.128,9.787c0,0,3.08,1.295,7.209,8.892
							c4.132,7.588,5.849,12.009,5.849,12.009s-4.638-9.505-9.287-13.85c-4.649-4.342-13.608-5.311-13.608-5.311L112.665,105.251z"
							/>
						<path opacity="0.27" fill="#D48158" enable-background="new    " d="M98.542,112.871c0,0,2.851,1.385,8.325,9.115
							c5.658,7.992,6.232,8.312,6.232,8.312s-0.863,2.012-7.812-6.404c-6.956-8.43-9.414-7.572-9.414-7.572l-14.401,8.229
							c0,0,2.59,1.09,6.061,7.473c3.475,6.386,4.917,10.103,4.917,10.103s-3.898-7.992-7.808-11.646
							c-3.91-3.647-11.442-4.465-11.442-4.465L98.542,112.871z"/>
						<path opacity="0.27" fill="#D48158" enable-background="new    " d="M125.99,97.432c0,0,2.851,1.386,8.326,9.116
							c5.658,7.991,6.229,8.316,6.229,8.316s-0.857,2.008-7.812-6.409c-6.955-8.424-9.412-7.572-9.412-7.572l-14.399,8.229
							c0,0,2.593,1.095,6.062,7.478c3.478,6.381,4.916,10.103,4.916,10.103s-3.896-7.992-7.81-11.646
							c-3.907-3.646-11.44-4.465-11.44-4.465L125.99,97.432z"/>
						<path fill="#FFD4A2" d="M75.071,130.82c0,0-3.508,1.947,4.139,15.166c7.655,13.218,1.077,6.57,3.335,12.562
							c2.255,5.987,2.905,7.698,2.905,7.698s23.176-11.686,40.065-20.805c16.879-9.131,22.569-16.799,22.569-16.799
							s-38.604,21.859-45.416,24.998c-6.806,3.146-11.743,0.653-15.003-4.455C84.41,144.074,78.412,131.288,75.071,130.82z"/>
					</g>
				</g>
				<path fill="#C07026" d="M89.513,173.477c8.458-4.865,18.604-5.315,31.178-18.84c11.373-11.268,25.146-17.076,35.354-24.695
					c0.734-0.549,0.992-1.772-0.658-3.164c0,0-4.14-4.354-9.619-11.988c0.069,2.229,1.312,5.497,1.713,7.604
					c0.789,4.107-5.715,4.979-9.478,3.141c-3.765-1.844-5.024-0.479-5.594,2.078c-0.567,2.557-1.664,2.31-10.25,1.506
					c-8.585-0.803-6.918,6.109-14.765,12.472c-7.849,6.358-12.941,3.698-16.502,1.64c-3.561-2.06-5.778-3.729-6.481-0.438
					c-0.703,3.29-2.597,2.266-5.671,1.495c-3.075-0.771-6.592-8.272-9.482-8.611c-1.147-0.135-1.353,0.647-1.188,1.642
					c0.392,1.089,0.841,2.248,1.356,3.486l0.002,0.002h-0.001c1.335,3.2,3.094,6.899,5.328,11.088
					c8.151,15.289,5.93,19.104,5.93,19.104C80.683,170.984,82.054,178.355,89.513,173.477z"/>
				
					<radialGradient id="SVGID_9_" cx="265.7285" cy="-1277.4966" r="48.4153" gradientTransform="matrix(0.9994 -0.0333 -0.0333 -0.9994 -193.2092 -1136.4087)" gradientUnits="userSpaceOnUse">
					<stop  offset="0" style="stop-color:#FFE300"/>
					<stop  offset="0.4168" style="stop-color:#FFE101"/>
					<stop  offset="0.5985" style="stop-color:#FEDA04"/>
					<stop  offset="0.7345" style="stop-color:#FDCD08"/>
					<stop  offset="0.8479" style="stop-color:#FBBB0F"/>
					<stop  offset="0.9459" style="stop-color:#F9A418"/>
					<stop  offset="1" style="stop-color:#F7941E"/>
				</radialGradient>
				<path fill="url(#SVGID_9_)" d="M90.862,174.738c8.456-4.867,18.604-5.32,31.177-18.84c11.372-11.271,25.15-17.076,35.354-24.696
					c0.733-0.55,0.991-1.776-0.658-3.162c0,0-4.141-4.36-9.615-11.995c0.066,2.234,1.308,5.498,1.712,7.602
					c0.791,4.111-5.713,4.981-9.479,3.144c-3.765-1.847-5.021-0.479-5.594,2.079c-0.568,2.556-1.666,2.309-10.251,1.506
					c-8.585-0.807-6.917,6.105-14.763,12.471c-7.846,6.359-12.943,3.697-16.503,1.643c-3.562-2.062-5.78-3.729-6.482-0.438
					c-0.702,3.29-2.597,2.267-5.671,1.495c-3.074-0.77-6.592-8.271-9.482-8.611c-1.148-0.135-1.352,0.649-1.188,1.643
					c0.392,1.091,0.841,2.25,1.357,3.486l0.001,0.002h-0.001c1.335,3.199,3.095,6.898,5.327,11.088
					c8.153,15.289,5.931,19.104,5.931,19.104C82.032,172.248,83.401,179.618,90.862,174.738z"/>
			</g>
			
				<radialGradient id="SVGID_10_" cx="250.0566" cy="-1296.0537" r="79.7933" gradientTransform="matrix(0.9994 -0.0333 -0.0333 -0.9994 -193.2092 -1136.4087)" gradientUnits="userSpaceOnUse">
				<stop  offset="0" style="stop-color:#FFE300"/>
				<stop  offset="0.4168" style="stop-color:#FFE101"/>
				<stop  offset="0.5985" style="stop-color:#FEDA04"/>
				<stop  offset="0.7345" style="stop-color:#FDCD08"/>
				<stop  offset="0.8479" style="stop-color:#FBBB0F"/>
				<stop  offset="0.9459" style="stop-color:#F9A418"/>
				<stop  offset="1" style="stop-color:#F7941E"/>
			</radialGradient>
			<path fill="url(#SVGID_10_)" d="M72.08,139.925c0,0,5.213,6.702,7.673,8.626c2.46,1.926,6.744-1.314,6.744-1.314
				s5.177-2.396,4.564-0.147s-3.461,8.226-1.373,12.07c2.089,3.851,10.22,6.094,8.569,8.812c-1.651,2.723-2.921,1.84-6.357,4.268
				c-3.437,2.43-5.699,2.887-5.195,0.174c0.503-2.713,0.926-9.256-4.607-15.389C76.563,150.882,70.157,140.326,72.08,139.925z"/>
			
				<radialGradient id="SVGID_11_" cx="302.0781" cy="-1252.084" r="133.6836" gradientTransform="matrix(0.9994 -0.0333 -0.0333 -0.9994 -193.2092 -1136.4087)" gradientUnits="userSpaceOnUse">
				<stop  offset="0" style="stop-color:#FFE300"/>
				<stop  offset="0.4168" style="stop-color:#FFE101"/>
				<stop  offset="0.5985" style="stop-color:#FEDA04"/>
				<stop  offset="0.7345" style="stop-color:#FDCD08"/>
				<stop  offset="0.8479" style="stop-color:#FBBB0F"/>
				<stop  offset="0.9459" style="stop-color:#F9A418"/>
				<stop  offset="1" style="stop-color:#F7941E"/>
			</radialGradient>
			<path fill="url(#SVGID_11_)" d="M139.848,128.661c0,0-3.957-1.099-3.217,1.489c0.74,2.589,1.855,9.955,5.475,7.438
				C145.725,135.073,145.861,132.311,139.848,128.661z"/>
		</g>
	</g>
</g>
</svg>
