<?xml version="1.0" encoding="utf-8"?>
<!-- Generator: Adobe Illustrator 15.0.0, SVG Export Plug-In . SVG Version: 6.00 Build 0)  -->
<!DOCTYPE svg PUBLIC "-//W3C//DTD SVG 1.1//EN" "http://www.w3.org/Graphics/SVG/1.1/DTD/svg11.dtd">
<svg version="1.1" id="Layer_1" xmlns="http://www.w3.org/2000/svg" xmlns:xlink="http://www.w3.org/1999/xlink" x="0px" y="0px"
	 width="200px" height="200px" viewBox="0 0 200 200" enable-background="new 0 0 200 200" xml:space="preserve">
<g id="icon">
	<g id="Layer_2">
	</g>
	<g id="Layer_1_1_">
		<g>
			
				<radialGradient id="SVGID_1_" cx="3688.6348" cy="-518.002" r="16.4893" fx="3691.8374" fy="-510.6589" gradientTransform="matrix(-0.9776 0.2106 -0.2914 -1.3528 3602.2656 -1322.623)" gradientUnits="userSpaceOnUse">
				<stop  offset="0" style="stop-color:#72FF00"/>
				<stop  offset="0.1424" style="stop-color:#70FC00"/>
				<stop  offset="0.2522" style="stop-color:#68F201"/>
				<stop  offset="0.351" style="stop-color:#5CE201"/>
				<stop  offset="0.4434" style="stop-color:#4ACB02"/>
				<stop  offset="0.5306" style="stop-color:#33AD03"/>
				<stop  offset="0.5697" style="stop-color:#279D04"/>
				<stop  offset="0.7939" style="stop-color:#148305"/>
				<stop  offset="1" style="stop-color:#35AF03"/>
			</radialGradient>
			<path fill="url(#SVGID_1_)" d="M145.555,147.244c-1.734,2.357-9.421,8.562-9.421,17.389c0,7.159,5.804,12.963,12.962,12.963
				c7.16,0,12.963-5.804,12.963-12.963c0-3.211-0.521-5.74-1.731-8.857c-3.644-9.383-11.229-15.723-11.229-15.723
				S148.713,142.949,145.555,147.244z"/>
			
				<radialGradient id="SVGID_2_" cx="306.9268" cy="-692.2451" r="7.3191" gradientTransform="matrix(0.949 0.3153 0.5766 -1.7353 251.8007 -1138.7651)" gradientUnits="userSpaceOnUse">
				<stop  offset="0.5092" style="stop-color:#8AFF74"/>
				<stop  offset="1" style="stop-color:#08DE92;stop-opacity:0"/>
			</radialGradient>
			<path fill="url(#SVGID_2_)" d="M147.714,162.475c-0.729,5.217-3.94,9.244-6.499,8.645c-2.66-0.627-4.984-5.225-3.775-10.35
				c0.543-2.301,1.347-4.021,2.734-6.051c4.191-6.104,10.83-9.004,10.83-9.004S149.098,152.581,147.714,162.475z"/>
			
				<linearGradient id="SVGID_3_" gradientUnits="userSpaceOnUse" x1="-274.7734" y1="-181.8066" x2="-225.5767" y2="-181.8066" gradientTransform="matrix(0.7076 -0.7066 -0.7066 -0.7076 157.402 -213.9099)">
				<stop  offset="0.103" style="stop-color:#443F3D;stop-opacity:0.38"/>
				<stop  offset="0.1146" style="stop-color:#3B3B44;stop-opacity:0.3694"/>
				<stop  offset="0.1498" style="stop-color:#253154;stop-opacity:0.3369"/>
				<stop  offset="0.1913" style="stop-color:#142961;stop-opacity:0.2986"/>
				<stop  offset="0.2427" style="stop-color:#09236A;stop-opacity:0.2512"/>
				<stop  offset="0.3149" style="stop-color:#02206F;stop-opacity:0.1847"/>
				<stop  offset="0.5152" style="stop-color:#001F70;stop-opacity:0"/>
			</linearGradient>
			<path fill="url(#SVGID_3_)" d="M77.701,59.696C62.649,74.729,65.647,83,65.647,83s5.983,6.129,6.644,6.67
				c0.747,0.609,1.951,1.35,3.703,1.736c2.25,0.498,2.664-1.003,4.653,0.842c1.57,1.453,11.704,10.27,17.644,16.215
				c12.594,11.788,18.598,15.953,18.598,15.953c8.676,7.782,17.108,4.887,23.916-1.91c6.812-6.799,9.717-15.227,1.942-23.917
				c0,0-4.988-5.571-16.763-18.187c-6.646-6.656-14.635-16.592-16.035-18.107c-1.922-2.079-0.488-2.034-1.031-4.159
				c-0.368-1.436-1.1-2.45-1.74-3.104c-0.641-0.656-6.87-6.64-6.87-6.64S92.141,45.281,77.701,59.696z"/>
			
				<radialGradient id="SVGID_4_" cx="-97.5278" cy="-610.5557" r="31.8844" gradientTransform="matrix(0.9761 -0.2175 -0.2175 -0.9761 94.1743 -519.6863)" gradientUnits="userSpaceOnUse">
				<stop  offset="0" style="stop-color:#72FF00"/>
				<stop  offset="0.1424" style="stop-color:#70FC00"/>
				<stop  offset="0.2522" style="stop-color:#68F201"/>
				<stop  offset="0.351" style="stop-color:#5CE201"/>
				<stop  offset="0.4434" style="stop-color:#4ACB02"/>
				<stop  offset="0.5306" style="stop-color:#33AD03"/>
				<stop  offset="0.5697" style="stop-color:#279D04"/>
				<stop  offset="0.7939" style="stop-color:#148305"/>
				<stop  offset="1" style="stop-color:#35AF03"/>
			</radialGradient>
			<path fill="url(#SVGID_4_)" d="M121.38,100.924c-14.116,6.789-20.847,5.542-20.847,5.542l17.4,15.89
				c7.709,6.914,20.709,8.49,26.754,2.453c6.051-6.039,3.123-17.674-3.783-25.393l-7.868-8.58
				C133.036,90.836,134.917,94.414,121.38,100.924z"/>
			
				<radialGradient id="SVGID_5_" cx="-98.981" cy="-603.6846" r="10.2299" gradientTransform="matrix(0.9761 -0.2175 -0.2175 -0.9761 94.1743 -519.6863)" gradientUnits="userSpaceOnUse">
				<stop  offset="0" style="stop-color:#72FF00"/>
				<stop  offset="1" style="stop-color:#148305"/>
			</radialGradient>
			<path fill="url(#SVGID_5_)" d="M121.38,100.924c-14.116,6.789-20.847,5.542-20.847,5.542s3.91,4.739,23.045-2.891
				c15.518-6.187,9.458-12.739,9.458-12.739S134.917,94.414,121.38,100.924z"/>
			
				<linearGradient id="SVGID_6_" gradientUnits="userSpaceOnUse" x1="-274.229" y1="-181.6953" x2="-225.0356" y2="-181.6953" gradientTransform="matrix(0.7076 -0.7066 -0.7066 -0.7076 157.0328 -213.4099)">
				<stop  offset="0.503" style="stop-color:#685B72;stop-opacity:0"/>
				<stop  offset="0.6176" style="stop-color:#6A5D74;stop-opacity:0.1831"/>
				<stop  offset="0.6771" style="stop-color:#71657B;stop-opacity:0.278"/>
				<stop  offset="0.7239" style="stop-color:#7E7286;stop-opacity:0.3528"/>
				<stop  offset="0.7641" style="stop-color:#8F8697;stop-opacity:0.417"/>
				<stop  offset="0.8" style="stop-color:#A69EAC;stop-opacity:0.4744"/>
				<stop  offset="0.8329" style="stop-color:#C2BDC6;stop-opacity:0.527"/>
				<stop  offset="0.8629" style="stop-color:#E2E0E4;stop-opacity:0.575"/>
				<stop  offset="0.8848" style="stop-color:#FFFFFF;stop-opacity:0.61"/>
			</linearGradient>
			<path fill="url(#SVGID_6_)" d="M78.115,59.232C62.393,74.935,65.647,83,65.647,83s5.952,6.252,6.78,6.891
				c0.666,0.512,1.692,1.08,3.243,1.459c2.131,0.523,3.114-0.828,4.977,0.898c1.649,1.531,11.792,10.34,17.888,16.443
				c12.587,11.783,18.354,15.725,18.354,15.725c8.676,7.782,17.108,4.887,23.916-1.91c6.812-6.799,9.717-15.227,1.942-23.917
				c0,0-4.722-5.284-16.485-17.893c-7.13-7.14-14.835-16.802-16.312-18.401c-1.673-1.809-0.409-1.881-0.999-3.783
				c-0.457-1.478-1.104-2.523-1.68-3.227c-0.69-0.851-6.963-6.894-6.963-6.894S91.708,45.662,78.115,59.232z"/>
			
				<linearGradient id="SVGID_7_" gradientUnits="userSpaceOnUse" x1="1656.9287" y1="924.2959" x2="1644.7277" y2="884.0772" gradientTransform="matrix(-0.7076 0.7066 0.2801 0.2805 998.3445 -1357.1635)">
				<stop  offset="0" style="stop-color:#FF78FF;stop-opacity:0"/>
				<stop  offset="0.0985" style="stop-color:#F876F9;stop-opacity:0.0679"/>
				<stop  offset="0.241" style="stop-color:#E56FE9;stop-opacity:0.1661"/>
				<stop  offset="0.4103" style="stop-color:#C565CE;stop-opacity:0.2828"/>
				<stop  offset="0.6001" style="stop-color:#9957A9;stop-opacity:0.4137"/>
				<stop  offset="0.8045" style="stop-color:#62457A;stop-opacity:0.5546"/>
				<stop  offset="0.8848" style="stop-color:#4A3D66;stop-opacity:0.61"/>
			</linearGradient>
			<path fill="url(#SVGID_7_)" d="M78.188,60.898c10.67-10.652,20.496-14.354,24.023-10.343l-0.684-0.774
				c-3.526-4.012-13.371-0.289-24.067,10.391c-10.694,10.68-14.428,20.516-10.425,24.055l0.774,0.682
				C63.804,81.371,67.52,71.555,78.188,60.898z"/>
			
				<linearGradient id="SVGID_8_" gradientUnits="userSpaceOnUse" x1="-246.896" y1="-525.2881" x2="-259.2919" y2="-566.1484" gradientTransform="matrix(0.7076 -0.7066 -0.2801 -0.2805 109.8792 -261.194)">
				<stop  offset="0" style="stop-color:#FF78FF;stop-opacity:0"/>
				<stop  offset="0.0985" style="stop-color:#F876F9;stop-opacity:0.0679"/>
				<stop  offset="0.241" style="stop-color:#E56FE9;stop-opacity:0.1661"/>
				<stop  offset="0.4103" style="stop-color:#C565CE;stop-opacity:0.2828"/>
				<stop  offset="0.6001" style="stop-color:#9957A9;stop-opacity:0.4137"/>
				<stop  offset="0.8045" style="stop-color:#62457A;stop-opacity:0.5546"/>
				<stop  offset="0.8848" style="stop-color:#4A3D66;stop-opacity:0.61"/>
			</linearGradient>
			<path fill="url(#SVGID_8_)" d="M89.034,72.553C78.759,82.814,68.86,86.588,64.851,83.058l0.955,0.841
				c4.011,3.529,13.882-0.219,24.126-10.449c10.245-10.229,14.001-20.088,10.464-24.091l-0.838-0.954
				C103.091,52.408,99.312,62.29,89.034,72.553z"/>
			
				<linearGradient id="SVGID_9_" gradientUnits="userSpaceOnUse" x1="-247.0132" y1="-547.1396" x2="-259.0122" y2="-586.6919" gradientTransform="matrix(0.7076 -0.7066 -0.2801 -0.2805 109.8792 -261.194)">
				<stop  offset="0" style="stop-color:#FF78FF;stop-opacity:0"/>
				<stop  offset="0.0985" style="stop-color:#F876F9;stop-opacity:0.0679"/>
				<stop  offset="0.241" style="stop-color:#E56FE9;stop-opacity:0.1661"/>
				<stop  offset="0.4103" style="stop-color:#C565CE;stop-opacity:0.2828"/>
				<stop  offset="0.6001" style="stop-color:#9957A9;stop-opacity:0.4137"/>
				<stop  offset="0.8045" style="stop-color:#62457A;stop-opacity:0.5546"/>
				<stop  offset="0.8848" style="stop-color:#4A3D66;stop-opacity:0.61"/>
			</linearGradient>
			<path fill="url(#SVGID_9_)" d="M94.854,78.383c-9.944,9.934-19.526,13.589-23.407,10.17l0.925,0.812
				c3.883,3.418,13.436-0.209,23.355-10.113c9.917-9.902,13.552-19.447,10.128-23.322l-0.812-0.922
				C108.46,58.883,104.805,68.448,94.854,78.383z"/>
			
				<linearGradient id="SVGID_10_" gradientUnits="userSpaceOnUse" x1="160.3848" y1="-601.4766" x2="214.0411" y2="-601.4766" gradientTransform="matrix(1 7.000000e-04 7.000000e-04 -1 -180.3863 -512.7163)">
				<stop  offset="0" style="stop-color:#231F20;stop-opacity:0"/>
				<stop  offset="0.3431" style="stop-color:#252122;stop-opacity:0.1453"/>
				<stop  offset="0.4667" style="stop-color:#2C2829;stop-opacity:0.1977"/>
				<stop  offset="0.5548" style="stop-color:#373334;stop-opacity:0.235"/>
				<stop  offset="0.626" style="stop-color:#484445;stop-opacity:0.2652"/>
				<stop  offset="0.6871" style="stop-color:#5D5A5B;stop-opacity:0.2911"/>
				<stop  offset="0.7411" style="stop-color:#787676;stop-opacity:0.314"/>
				<stop  offset="0.79" style="stop-color:#989697;stop-opacity:0.3347"/>
				<stop  offset="0.8349" style="stop-color:#BDBCBC;stop-opacity:0.3537"/>
				<stop  offset="0.8749" style="stop-color:#E5E5E5;stop-opacity:0.3707"/>
				<stop  offset="0.897" style="stop-color:#FFFFFF;stop-opacity:0.38"/>
			</linearGradient>
			<path opacity="0.56" fill="url(#SVGID_10_)" enable-background="new    " d="M101.438,52.649c0,0,2.576,1.729,4.479,4.842
				c2.25,3.684,0.548,5.416,2.356,7.356c1.523,1.635,10.285,10.311,17.613,17.647c11.146,11.852,15.909,17.047,15.909,17.047
				c7.218,8.006,4.271,20.492,1.38,25.041c-3.089,3.131-17.34,6.109-25.335-1.119c0,0-5.991-4.283-17.825-15.439
				c-5.665-5.676-16.257-15.641-17.841-17.123c-2.01-1.879-4.062-0.369-7.816-2.657c-2.917-1.779-4.452-4.104-4.452-4.104
				s8.49-0.006,20.203-11.702c12.785-12.766,11.305-19.82,11.305-19.82L101.438,52.649z M100.308,48.391
				c0,0,1.592,9.727-11.523,22.826C74.601,85.383,65.647,83,65.647,83s5.252,5.6,6.248,6.301c0.667,0.47,1.64,0.963,3.024,1.298
				c2.131,0.517,3.777-0.157,5.728,1.649c1.604,1.488,11.718,10.256,18.056,16.602c12.581,11.775,18.186,15.566,18.186,15.566
				c8.676,7.782,23.678,5.445,27.387,1.268c4.611-4.638,6.246-18.401-1.525-27.095c0,0-4.062-4.577-15.796-17.151
				c-8.321-8.334-15.779-16.442-17.415-18.209c-1.84-1.988-0.939-4.095-1.432-6.263c-0.248-1.097-0.637-1.863-1.051-2.4
				C106.202,53.457,100.308,48.391,100.308,48.391L100.308,48.391z"/>
			
				<linearGradient id="SVGID_11_" gradientUnits="userSpaceOnUse" x1="-247.7021" y1="-186.0952" x2="-266.1605" y2="-186.0952" gradientTransform="matrix(0.7076 -0.7066 -0.7066 -0.7076 157.3668 -213.6794)">
				<stop  offset="0" style="stop-color:#FFFFFF;stop-opacity:0"/>
				<stop  offset="0.8485" style="stop-color:#FFFFFF;stop-opacity:0.38"/>
			</linearGradient>
			<path fill="url(#SVGID_11_)" d="M137.977,118.289c-0.068-0.904-1.24-1.616-2.295-1.73c-4.852-0.508-6.687,0.502-11.621-4.309
				c0,0-4.771-4.266-15.521-14.896c-2.493-2.467-7.812-7.896-11.116-11.168c-3.359-3.326-6.479-2.331-8.453-4.279
				c-3.317-3.273-4.932-5.848-4.932-5.848s-1.832,1.439-4.255,3.006c-2.995,1.965-6.074,3.262-6.074,3.262s2.288,2.199,5.878,5.651
				c2.108,2.028,3.907-1.833,6.72,0.868c2.78,2.675,15.25,13.936,17.908,16.503c11.273,10.896,14.089,12.648,14.089,12.648
				c7.113,6.604,12.229,5.205,18.188,2.525C137.035,120.282,138.047,119.189,137.977,118.289z"/>
			
				<radialGradient id="SVGID_12_" cx="1637.2422" cy="995.7334" r="113.0109" gradientTransform="matrix(0.3995 -0.9516 -0.8957 -0.3694 404.2499 2022.1968)" gradientUnits="userSpaceOnUse">
				<stop  offset="0" style="stop-color:#130C0E;stop-opacity:0"/>
				<stop  offset="0.9385" style="stop-color:#130C0E;stop-opacity:0.6112"/>
				<stop  offset="1" style="stop-color:#130C0E;stop-opacity:0.6512"/>
			</radialGradient>
			<path fill="url(#SVGID_12_)" d="M145.909,107.682c0,0-17.571-19.391-22.622-24.992c-7.062-7.823,3.544,5.235-0.725,2.561
				c-4.266-2.68-14.309-19.594-15.662-17.116c-1.356,2.472,8.248,16.804,10.574,18.452c2.326,1.646-1.229-3.686,2.729,0.236
				C124.166,90.747,146.827,120.156,145.909,107.682z"/>
			<g>
				
					<radialGradient id="SVGID_13_" cx="-249.6328" cy="-152.2773" r="20.4145" gradientTransform="matrix(0.7076 -0.7066 -0.7066 -0.7076 157.0328 -213.4099)" gradientUnits="userSpaceOnUse">
					<stop  offset="0.2727" style="stop-color:#3F4A5D"/>
					<stop  offset="0.3587" style="stop-color:#333B4B"/>
					<stop  offset="0.5179" style="stop-color:#20252F"/>
					<stop  offset="0.6781" style="stop-color:#13161B"/>
					<stop  offset="0.8387" style="stop-color:#0B0C0F"/>
					<stop  offset="1" style="stop-color:#08090B"/>
				</radialGradient>
				<path fill="url(#SVGID_13_)" d="M78.115,59.232C62.393,74.935,65.647,83,65.647,83s5.952,6.252,6.78,6.891
					c0.666,0.512,1.692,1.08,3.243,1.459c2.131,0.523,11.488,1.967,24.516-11.441c11.474-11.806,9.354-19.495,8.764-21.396
					c-0.457-1.478-1.104-2.523-1.679-3.227c-0.691-0.851-6.964-6.894-6.964-6.894S91.708,45.662,78.115,59.232z"/>
				<path d="M78.562,94.668C78.561,94.668,78.561,94.668,78.562,94.668c-1.281,0-2.527-0.14-3.606-0.405
					c-1.713-0.418-3.179-1.089-4.356-1.994c-0.884-0.683-4.843-4.805-7.125-7.202l-0.395-0.415l-0.214-0.531
					c-0.409-1.014-3.516-10.387,13.13-27.013c10.408-10.391,18.422-11.942,22.273-11.942c1.666,0,2.676,0.279,2.946,0.365
					l0.668,0.212l0.506,0.487c1.926,1.855,6.483,6.267,7.211,7.163c0.969,1.188,1.717,2.613,2.217,4.232
					c2.219,7.145-1.147,15.802-9.479,24.373C92.164,92.47,83.792,94.668,78.562,94.668z M68.401,81.542
					c2.589,2.71,5.368,5.56,5.894,6.002c0.311,0.238,0.966,0.618,2.087,0.892c0.434,0.106,1.162,0.232,2.179,0.232
					c3.335,0,10.3-1.409,19.474-10.85c6.729-6.923,9.587-13.463,8.05-18.416c-0.272-0.882-0.655-1.628-1.14-2.22
					c-0.422-0.497-3.299-3.325-6.058-5.991c-0.169-0.014-0.376-0.023-0.619-0.023c-2.354,0-8.823,0.993-18.034,10.188
					C68.546,73.029,68.235,79.79,68.401,81.542z"/>
			</g>
			<g>
				
					<radialGradient id="SVGID_14_" cx="-154.7969" cy="-539.3398" r="40.3373" gradientTransform="matrix(0.9761 -0.2175 -0.2175 -0.9761 94.1743 -519.6863)" gradientUnits="userSpaceOnUse">
					<stop  offset="0.2727" style="stop-color:#3F4A5D"/>
					<stop  offset="0.3587" style="stop-color:#333B4B"/>
					<stop  offset="0.5179" style="stop-color:#20252F"/>
					<stop  offset="0.6781" style="stop-color:#13161B"/>
					<stop  offset="0.8387" style="stop-color:#0B0C0F"/>
					<stop  offset="1" style="stop-color:#08090B"/>
				</radialGradient>
				<path fill="url(#SVGID_14_)" d="M96.687,52.866c-1.38-1.384-19.595-22.344-23.481-25.719c-8.169-8.024-21.293-7.908-29.319,0.26
					c-8.023,8.167-7.908,21.293,0.259,29.318c8.215,8.457,23.032,21.144,25.266,23.378c2.233,2.238,9.929,1.406,19.495-8.058
					C99.366,61.697,98.922,55.102,96.687,52.866z"/>
			</g>
			
				<radialGradient id="SVGID_15_" cx="-121.9556" cy="-580.1133" r="57.368" gradientTransform="matrix(0.9761 -0.2175 -0.2175 -0.9761 94.1743 -519.6863)" gradientUnits="userSpaceOnUse">
				<stop  offset="0.2727" style="stop-color:#3F4A5D"/>
				<stop  offset="0.3587" style="stop-color:#333B4B"/>
				<stop  offset="0.5179" style="stop-color:#20252F"/>
				<stop  offset="0.6781" style="stop-color:#13161B"/>
				<stop  offset="0.8387" style="stop-color:#0B0C0F"/>
				<stop  offset="1" style="stop-color:#08090B"/>
			</radialGradient>
			<path fill="url(#SVGID_15_)" d="M94.973,46.893c0,0,4.913-0.474,6.333,3.778c1.607,4.819,1.129,11.741-9.25,22.365
				C81.679,83.66,71.113,87.064,66.294,84.756c-4.017-1.925-2.763-6.604-2.763-6.604s3.113,4.1,7.618,3.56
				c3.626-0.435,10.553-1.497,18.857-10.283c7.439-7.87,9.034-13.147,8.451-17.755C97.873,49.067,94.973,46.893,94.973,46.893z"/>
		</g>
	</g>
</g>
</svg>
