<?xml version="1.0" encoding="utf-8"?>
<!-- Generator: Adobe Illustrator 15.0.0, SVG Export Plug-In . SVG Version: 6.00 Build 0)  -->
<!DOCTYPE svg PUBLIC "-//W3C//DTD SVG 1.1//EN" "http://www.w3.org/Graphics/SVG/1.1/DTD/svg11.dtd">
<svg version="1.1" id="Layer_1" xmlns="http://www.w3.org/2000/svg" xmlns:xlink="http://www.w3.org/1999/xlink" x="0px" y="0px"
	 width="200px" height="200px" viewBox="0 0 200 200" enable-background="new 0 0 200 200" xml:space="preserve">
<g id="icon">
	<g id="Layer_2">
	</g>
	<g id="Layer_1_1_">
		<g>
			<g>
				<g>
					
						<ellipse transform="matrix(0.8306 -0.5569 0.5569 0.8306 -66.3475 109.9427)" fill="#5B5B5B" cx="147.521" cy="164.016" rx="2.248" ry="10.92"/>
					<g>
						
							<linearGradient id="SVGID_1_" gradientUnits="userSpaceOnUse" x1="-572.2842" y1="1277.915" x2="-550.5085" y2="1290.1643" gradientTransform="matrix(-0.9944 0.1057 0.1057 0.9944 -635.6526 -1182.1718)">
							<stop  offset="0" style="stop-color:#363636"/>
							<stop  offset="0.3742" style="stop-color:#FAFAFA"/>
							<stop  offset="0.6319" style="stop-color:#F7F7F7"/>
							<stop  offset="1" style="stop-color:#303030"/>
						</linearGradient>
						<path fill="url(#SVGID_1_)" d="M72.533,34.53l-5.644-7.928c0,0-5.257-6.298-15.423,1.197c0,0-8.492,5.922-4.111,13.25
							l6.18,8.28l15.111-8.914L72.533,34.53z"/>
						
							<linearGradient id="SVGID_2_" gradientUnits="userSpaceOnUse" x1="-569.1436" y1="1279.1943" x2="-550.6879" y2="1289.576" gradientTransform="matrix(-0.9944 0.1057 0.1057 0.9944 -635.6526 -1182.1718)">
							<stop  offset="0" style="stop-color:#616161"/>
							<stop  offset="0.1538" style="stop-color:#FAFAFA"/>
							<stop  offset="0.3022" style="stop-color:#FFFFFF"/>
							<stop  offset="0.5055" style="stop-color:#707070"/>
							<stop  offset="1" style="stop-color:#4F4F4F"/>
						</linearGradient>
						<path fill="url(#SVGID_2_)" d="M51.968,27.769c3.686-2.774,6.705-3.641,9.115-3.649c-2.074,0.364-4.492,1.326-7.371,3.444
							c0,0-8.525,5.932-4.041,13.258l5.708,7.667l-1.351,0.776l-6.211-8.273C43.381,33.716,51.968,27.769,51.968,27.769z"/>
						
							<linearGradient id="SVGID_3_" gradientUnits="userSpaceOnUse" x1="-616.7324" y1="1346.167" x2="-585.1651" y2="1362.6077" gradientTransform="matrix(-0.9944 0.1057 0.1057 0.9944 -635.6526 -1182.1718)">
							<stop  offset="0" style="stop-color:#363636"/>
							<stop  offset="0.3742" style="stop-color:#FAFAFA"/>
							<stop  offset="0.6319" style="stop-color:#F7F7F7"/>
							<stop  offset="1" style="stop-color:#303030"/>
						</linearGradient>
						<path fill="url(#SVGID_3_)" d="M50.275,46.827c2.687-4.808,7.159-8.301,9.565-9.801c1.588-1.521,8.98-5.649,14.354-6.345
							c2.748-0.374,5.047,2.828,5.047,2.828l60.995,87.747c0,0,5.205,8.721,6.263,12.707c1.776,6.617,4.673,30.362,4.673,30.362
							s-1.438,0.325-2.486,1.089c-1.271,0.92-2.121,2.414-2.121,2.414S125.498,156.553,120,152.326
							c-3.37-2.512-9.542-10.561-9.542-10.561L50.695,53.572C50.695,53.572,48.811,48.928,50.275,46.827z"/>
						
							<linearGradient id="SVGID_4_" gradientUnits="userSpaceOnUse" x1="-635.6094" y1="1382.2627" x2="-604.5372" y2="1398.4456" gradientTransform="matrix(-0.9944 0.1057 0.1057 0.9944 -635.6526 -1182.1718)">
							<stop  offset="0" style="stop-color:#004772"/>
							<stop  offset="0.4908" style="stop-color:#47B6F0"/>
							<stop  offset="0.9571" style="stop-color:#00233D"/>
						</linearGradient>
						<path fill="url(#SVGID_4_)" d="M106.54,103.641c13.045-7.646,17.207-6.951,17.207-6.951l16.553,24.549
							c0,0,5.207,8.721,6.278,12.636c1.824,6.672,4.689,30.425,4.689,30.425s-1.521,0.279-2.486,1.089
							c-1.293,0.992-2.139,2.485-2.139,2.485s-21.002-11.293-26.556-15.572c-3.396-2.504-9.541-10.56-9.541-10.56L94.66,118.639
							C94.664,118.639,96.509,109.51,106.54,103.641z"/>
						
							<linearGradient id="SVGID_5_" gradientUnits="userSpaceOnUse" x1="-587.2197" y1="1288.915" x2="-555.7184" y2="1305.3041" gradientTransform="matrix(-0.9944 0.1057 0.1057 0.9944 -635.6526 -1182.1718)">
							<stop  offset="0" style="stop-color:#001E32"/>
							<stop  offset="0.1288" style="stop-color:#004772"/>
							<stop  offset="0.5714" style="stop-color:#47B6F0"/>
							<stop  offset="0.9387" style="stop-color:#00233D"/>
						</linearGradient>
						<path fill="url(#SVGID_5_)" d="M48.231,46.765c3.082-5.41,8.062-9.317,10.767-10.972c1.771-1.746,10.083-6.413,16.087-7.144
							c3.069-0.459,5.658,3.17,5.658,3.17l11.067,16.11c0,0,0.051,1.125-1.188,2.301l-1.307-1.873
							c-6.249,1.491-20.195,7.122-27.994,20.937c0,0,1.303,1.429,1.098,1.572c-1.271,0.896-2.176,0.475-2.176,0.475L48.702,54.325
							C48.702,54.325,46.599,49.147,48.231,46.765z"/>
						
							<linearGradient id="SVGID_6_" gradientUnits="userSpaceOnUse" x1="-584.4087" y1="1290.5352" x2="-554.3655" y2="1307.4353" gradientTransform="matrix(-0.9944 0.1057 0.1057 0.9944 -635.6526 -1182.1718)">
							<stop  offset="0" style="stop-color:#004772"/>
							<stop  offset="0.5714" style="stop-color:#47B6F0"/>
							<stop  offset="1" style="stop-color:#00233D"/>
						</linearGradient>
						<path fill="url(#SVGID_6_)" d="M50.583,47.084c2.75-4.827,7.12-8.32,9.533-9.794c1.609-1.566,8.998-5.697,14.409-6.388
							c0.165-0.018,0.412,0.022,0.621,0.032c-5.213,1.047-11.651,4.685-13.16,6.115c-2.396,1.539-6.835,5.021-9.598,9.811
							c-1.414,2.154,0.45,6.733,0.45,6.733l10.48,15.602c-0.32,0.562-0.609,1.118-0.899,1.672l-11.416-17.04
							C51.003,53.827,49.123,49.181,50.583,47.084z"/>
						
							<radialGradient id="SVGID_7_" cx="547.9922" cy="97.6587" r="38.298" gradientTransform="matrix(0.5318 0.8468 -0.3615 0.227 -124.916 -345.876)" gradientUnits="userSpaceOnUse">
							<stop  offset="0.2454" style="stop-color:#FAFAFA"/>
							<stop  offset="0.3558" style="stop-color:#F7F7F7"/>
							<stop  offset="1" style="stop-color:#303030"/>
						</radialGradient>
						<path fill="url(#SVGID_7_)" d="M120.503,152.555c2.988-5.188,7.828-8.96,10.388-10.65c1.754-1.658,9.805-6.217,15.647-6.932
							c0.073,0.021,0.187,0.061,0.248,0.041c1.771,6.711,4.386,29.312,4.386,29.312s-1.438,0.324-2.486,1.089
							c-1.271,0.92-2.121,2.414-2.121,2.414s-20.494-10.918-26.121-15.119C120.457,152.636,120.486,152.629,120.503,152.555z"/>
					</g>
					<g>
						
							<linearGradient id="SVGID_8_" gradientUnits="userSpaceOnUse" x1="-1542.9219" y1="1915.2148" x2="-1536.5382" y2="1915.2148" gradientTransform="matrix(0.8308 -0.5566 0.5566 0.8308 229.5799 -2343.0225)">
							<stop  offset="0" style="stop-color:#101010"/>
							<stop  offset="0.5714" style="stop-color:#888888"/>
							<stop  offset="1" style="stop-color:#000000"/>
						</linearGradient>
						<path fill="url(#SVGID_8_)" d="M108.727,68.754c2.225,3.088,1.271,7.046-2.123,8.84l0,0
							c-3.396,1.793-7.952,0.745-10.169-2.343l-24.99-32.459c-2.223-3.087-1.27-7.044,2.123-8.839l0,0
							c3.395-1.793,7.949-0.745,10.173,2.342L108.727,68.754z"/>
						
							<linearGradient id="SVGID_9_" gradientUnits="userSpaceOnUse" x1="-1558.0342" y1="1935.0771" x2="-1574.942" y2="1935.0771" gradientTransform="matrix(0.8116 -0.5842 0.5842 0.8116 229.4482 -2430.4666)">
							<stop  offset="0" style="stop-color:#001E32"/>
							<stop  offset="0.1288" style="stop-color:#004772"/>
							<stop  offset="0.5714" style="stop-color:#47B6F0"/>
							<stop  offset="1" style="stop-color:#00233D"/>
						</linearGradient>
						<path fill="url(#SVGID_9_)" d="M109.555,66.472c2.221,3.087,1.272,7.044-2.125,8.839l0,0
							c-3.396,1.792-7.95,0.744-10.173-2.342L72.272,40.508c-2.225-3.086-1.273-7.044,2.123-8.838l0,0
							c3.395-1.794,7.949-0.747,10.172,2.342L109.555,66.472z"/>
					</g>
				</g>
			</g>
		</g>
	</g>
</g>
</svg>
