<?xml version="1.0" encoding="utf-8"?>
<!-- Generator: Adobe Illustrator 15.0.0, SVG Export Plug-In . SVG Version: 6.00 Build 0)  -->
<!DOCTYPE svg PUBLIC "-//W3C//DTD SVG 1.1//EN" "http://www.w3.org/Graphics/SVG/1.1/DTD/svg11.dtd">
<svg version="1.1" id="Layer_1" xmlns="http://www.w3.org/2000/svg" xmlns:xlink="http://www.w3.org/1999/xlink" x="0px" y="0px"
	 width="200px" height="200px" viewBox="0 0 200 200" enable-background="new 0 0 200 200" xml:space="preserve">
<g id="icon">
	<g id="Layer_2">
	</g>
	<g id="Layer_1_1_">
		<g>
			<ellipse cx="134.975" cy="101.854" rx="11.5" ry="8.167"/>
			<g>
				<g>
					
						<radialGradient id="SVGID_1_" cx="248.916" cy="-631.2617" r="65.2763" gradientTransform="matrix(1 0 0 -1 -150 -530)" gradientUnits="userSpaceOnUse">
						<stop  offset="0" style="stop-color:#E1AC62"/>
						<stop  offset="1" style="stop-color:#4C2800"/>
					</radialGradient>
					<path fill="url(#SVGID_1_)" d="M158.052,74.283c-12.821-26.69-37.663-43.339-69.017-39.103
						c-35.8,4.839-59.429,38.362-52.778,74.878c6.651,36.518,41.064,62.194,76.863,57.354c31.473-4.253-7.06-31.474,1.942-41.582
						c7.592-8.524,17.097-5.228,29.174-7.399C169.775,113.826,162.906,84.39,158.052,74.283z M131.4,112.095
						c-4.672,0.632-9.164-2.72-10.031-7.483c-0.868-4.767,2.217-9.142,6.89-9.771c4.671-0.631,9.162,2.721,10.029,7.484
						C139.156,107.089,136.072,111.465,131.4,112.095z"/>
				</g>
				
					<linearGradient id="SVGID_2_" gradientUnits="userSpaceOnUse" x1="228.8047" y1="-539.9756" x2="293.4704" y2="-787.9723" gradientTransform="matrix(1 0 0 -1 -150 -530)">
					<stop  offset="0" style="stop-color:#FAC781"/>
					<stop  offset="1" style="stop-color:#895622"/>
				</linearGradient>
				<path fill="url(#SVGID_2_)" d="M159.932,70.783c-12.822-26.69-37.664-43.339-69.017-39.103
					c-35.799,4.84-59.429,38.363-52.778,74.88c6.651,36.517,41.064,62.193,76.864,57.354c31.472-4.253-7.062-31.475,1.94-41.582
					c7.593-8.525,17.098-5.227,29.176-7.4C171.657,110.326,164.786,80.89,159.932,70.783z M133.281,108.595
					c-4.674,0.632-9.164-2.72-10.032-7.483c-0.867-4.767,2.217-9.142,6.89-9.771c4.672-0.631,9.162,2.721,10.03,7.484
					C141.036,103.589,137.952,107.965,133.281,108.595z"/>
				
					<radialGradient id="SVGID_3_" cx="-124.3857" cy="-919.7529" r="66.2269" gradientTransform="matrix(0.9782 -0.1322 -0.1817 -0.9977 15.6274 -816.8868)" gradientUnits="userSpaceOnUse">
					<stop  offset="0" style="stop-color:#E1AC62"/>
					<stop  offset="1" style="stop-color:#4C2800"/>
				</radialGradient>
				<path opacity="0.49" fill="url(#SVGID_3_)" enable-background="new    " d="M73.644,66.687c0,0,3.682,18.145,6.25,29.136
					c2.31,9.891,4.002,18.87,4.002,18.87s-2.543-14.837-3.553-19.507c-2.764-12.773-2.495-11.85-6.158-29.148L73.644,66.687z"/>
				
					<radialGradient id="SVGID_4_" cx="-1377.8369" cy="-925.377" r="90.3331" gradientTransform="matrix(0.5116 -0.0691 -0.1817 -0.9977 600.9482 -895.6821)" gradientUnits="userSpaceOnUse">
					<stop  offset="0" style="stop-color:#E1AC62"/>
					<stop  offset="1" style="stop-color:#4C2800"/>
				</radialGradient>
				<path opacity="0.49" fill="url(#SVGID_4_)" enable-background="new    " d="M69.855,68.641c0,0,2.485,12.588,5.741,28.437
					c3.256,15.847,4.618,23.734,4.618,23.734l0.294,0.393c0,0-1.808-11.143-5.233-27.11c-3.425-15.969-4.854-25.434-4.854-25.434
					L69.855,68.641z"/>
				
					<radialGradient id="SVGID_5_" cx="-130.1357" cy="-848.8838" r="51.4756" gradientTransform="matrix(0.9782 -0.1322 -0.1817 -0.9977 15.6274 -816.8868)" gradientUnits="userSpaceOnUse">
					<stop  offset="0" style="stop-color:#E1AC62"/>
					<stop  offset="1" style="stop-color:#4C2800"/>
				</radialGradient>
				<polygon opacity="0.49" fill="url(#SVGID_5_)" enable-background="new    " points="70.421,50.018 69.64,42.628 71.306,49.707 
									"/>
				
					<radialGradient id="SVGID_6_" cx="-112.9614" cy="-852.9302" r="11.516" gradientTransform="matrix(0.9782 -0.1322 -0.1817 -0.9977 15.6274 -816.8868)" gradientUnits="userSpaceOnUse">
					<stop  offset="0" style="stop-color:#E1AC62"/>
					<stop  offset="1" style="stop-color:#4C2800"/>
				</radialGradient>
				<polygon opacity="0.49" fill="url(#SVGID_6_)" enable-background="new    " points="66.87,53.284 65.032,42.674 67.278,52.941 
									"/>
				<g>
					
						<linearGradient id="SVGID_7_" gradientUnits="userSpaceOnUse" x1="269.8857" y1="-581.5308" x2="385.8857" y2="-845.5309" gradientTransform="matrix(1 0 0 -1 -150 -530)">
						<stop  offset="0" style="stop-color:#FAC28D"/>
						<stop  offset="1" style="stop-color:#7C5320"/>
					</linearGradient>
					<path fill="url(#SVGID_7_)" d="M143.422,48.416c0,0-7.113-5.957-13.579-8.351c0,0,2.617,15.407,3.175,25.708
						c0.153,2.827,0.393,6.034,0.651,9.198c-0.78-5.288-2.338-15.911-3.021-21.176c-0.933-7.179-1.608-14.006-1.608-14.006
						l-1.997-1.651l0.797,11.616c0,0-0.797-11.616-2.506-12.73c-1.711-1.114-5.914-2.469-5.914-2.469s2.079,14.518,2.539,21.184
						c0.459,6.664,0.891,10.062,0.891,10.062s-0.674-1.639-1.07-4.852c-0.396-3.213-2.223-25.645-3.493-26.434
						c-1.274-0.789-8.894-2.258-8.894-2.258l0.562,2.039c0,0,6.013,33.012,6.636,38.501c0.624,5.488,0.773,10.465,2.124,22.006
						c1.351,11.542,4.632,21.283,4.632,21.283c2.771-1.336,12.94-1.363,12.94-1.363l-1.312-6.164l-1.841,0.25l0.486,4.735
						l-1.406-4.612c0,0-2.921,0.791-7.487-3.979c-4.564-4.766-3.979-11.387,2.069-13.357c6.047-1.971,7.709-0.08,7.709-0.08
						l-0.28-10.311c0.532,5.736,1.021,10.211,1.021,10.211s3.753,1.99,4.347,4.217c0.596,2.226-2.438-34.072-2.438-34.072
						s3.229,32.234,3.377,35.097c0.146,2.863,2.008,17.218,2.008,17.218l-2.697-9.628c0,0-0.395,1.977-2.129,2.785
						c-1.734,0.812-1.968,1.609-1.968,1.609l1.093,6.002c0,0,4.549,0.153,7.791-0.668c3.242-0.82,5.196-1.472,5.196-1.472
						s-3.021-20.732-4.017-31.361C144.811,70.521,143.422,48.416,143.422,48.416z"/>
					
						<linearGradient id="SVGID_8_" gradientUnits="userSpaceOnUse" x1="236.0918" y1="-596.3789" x2="352.0922" y2="-860.3797" gradientTransform="matrix(1 0 0 -1 -150 -530)">
						<stop  offset="0" style="stop-color:#FAC28D"/>
						<stop  offset="1" style="stop-color:#7C5320"/>
					</linearGradient>
					<path fill="url(#SVGID_8_)" d="M114.637,128.08c-0.111-0.453-0.265-0.695-0.449-0.775l0.715-1.062
						c0,0-4.879-22.242-6.072-31.905c-1.195-9.665-8.029-51.843-8.029-51.843s5.268,21.157,6.639,33.332
						c1.369,12.176,7.629,48.094,7.629,48.094l6.078-7.83c0,0-2.506-11.354-3.317-22.018c-0.812-10.665-6.072-59.714-11.433-61.208
						c-5.358-1.494-17.708-0.55-18.707,1.261c-1.135,2.054,8.154,45.804,8.154,45.804c-0.107-1.059-0.258-2.544-0.438-4.312
						l3.553,27.627c0,0-6.461-32.374-7.781-40.652c-1.32-8.278-6.834-29.25-6.834-29.25s-12.879,4.816-13.789,7.053
						c0,0,2.387,16.206,5.269,30.998c2.883,14.794,9.468,48.879,10.118,52.445c0.648,3.562,6.131,37.802,6.131,37.802
						s7.502,1.867,9.006,1.856c1.506-0.013-10.363-64.135-10.363-64.135s3.538,15.283,5.861,28.037
						c2.322,12.756,5.754,35.736,5.754,35.736s6.646,0.258,9.364-0.305c2.724-0.562-5.743-28.438-8.442-43.254
						c-2.58-14.164-7.453-41.867-7.879-44.289c-1.212-11.94-3.693-36.313-3.693-36.313s2.906,9.75,4.164,21.306
						c1.258,11.558,13.741,73.891,13.741,73.891l1.413-2.104c-0.476,1.105-0.796,1.972-0.796,1.972s-0.273,7.698,0.699,14.103
						c0.979,6.401,2.147,14.894,2.147,14.894s6.606,0.067,9.575-2.257c2.969-2.321,6.407-4.133,2.479-12.25
						C121.176,140.402,115.518,131.666,114.637,128.08z"/>
					
						<linearGradient id="SVGID_9_" gradientUnits="userSpaceOnUse" x1="284.3428" y1="-575.1807" x2="400.3451" y2="-839.1861" gradientTransform="matrix(1 0 0 -1 -150 -530)">
						<stop  offset="0" style="stop-color:#FAC28D"/>
						<stop  offset="1" style="stop-color:#7C5320"/>
					</linearGradient>
					<path fill="url(#SVGID_9_)" d="M156.756,66.793c-3.505-6.831-12.474-16.766-12.474-16.766
						c-1.453,9.615,6.424,62.168,6.424,62.168s1.955-0.647,5.624-3.258c3.669-2.611,4.41-5.785,4.41-5.785l-2.008-8.952l2.604,8.104
						c0,0,1.141,0.036,1.785-9.854C163.773,82.564,160.262,73.622,156.756,66.793z"/>
					
						<linearGradient id="SVGID_10_" gradientUnits="userSpaceOnUse" x1="-3704.8604" y1="-428.4067" x2="-3588.8596" y2="-692.4086" gradientTransform="matrix(-0.9645 0.2643 -0.3818 -1.3933 -3682.6348 439.5025)">
						<stop  offset="0" style="stop-color:#FAC28D"/>
						<stop  offset="1" style="stop-color:#7C5320"/>
					</linearGradient>
					<path fill="url(#SVGID_10_)" d="M39.475,85.021c0.772-10.445,8.962-25.185,8.962-25.185
						c5.07,13.014,17.539,88.323,17.539,88.323s-1.966-2.14-6.501-4.806c-4.535-2.668-5.978-7.334-5.978-7.334l-2.135-10.816
						l0.215,9.316c0,0-3.311-3.021-7.769-13.316C38.126,108.078,38.702,95.462,39.475,85.021z"/>
					
						<linearGradient id="SVGID_11_" gradientUnits="userSpaceOnUse" x1="211.0771" y1="-607.3735" x2="327.0762" y2="-871.3717" gradientTransform="matrix(1 0 0 -1 -150 -530)">
						<stop  offset="0" style="stop-color:#FAC28D"/>
						<stop  offset="1" style="stop-color:#7C5320"/>
					</linearGradient>
					<path fill="url(#SVGID_11_)" d="M85.429,124.143l-1.274-5.449c0,0-10.21-49.065-12.603-61.426
						c-2.393-12.36-2.539-17.818-2.539-17.818l-3.479,2.632c1.342,5.262,12.375,65.021,14.588,77.022
						c-1.166-5.026-2.045-8.938-2.329-10.504c-1.179-6.472-8.015-38.312-8.015-38.312s-2.205,1.063-2.212,3.373
						c-0.022,7.114,4.604,23.21,4.604,23.21s-4.679-12.245-5.21-24.472c-0.107-2.445,2.41-2.911,2.299-4.444
						c-0.371-5.139-4.611-25.321-4.611-25.321L59.47,46.79l1.613,15.062l-2.562-14.068c0,0-3.126,3.018-3.696,4.537
						c-0.571,1.518,0.218,4.294,0.218,4.294l-1.494-3.546c0,0-1.521,2.511-3.145,4.46c-1.624,1.95,7.38,40.515,7.38,40.515
						l4.435,3.147l-2.797-14.322l6.48,28.336L62.475,102.6l-4.333-2.585l6.002,28.304l3.741,20.539l1.771,3.51
						c0,0,6.766,4.562,9.729,5.312c2.748,0.698-8.074-46.878-9.67-53.834c1.316,5.725,8.889,38.682,9.637,42.788
						c0.82,4.502,1.67,12.267,1.67,12.267l9.268,2.783c0,0-5.939-24.466-9.66-40.406L85.429,124.143z"/>
				</g>
				
					<radialGradient id="SVGID_12_" cx="-1001.8511" cy="-858.9834" r="40.0473" gradientTransform="matrix(0.5961 -0.0806 -0.1817 -0.9977 481.4679 -880.2126)" gradientUnits="userSpaceOnUse">
					<stop  offset="0" style="stop-color:#E1AC62"/>
					<stop  offset="1" style="stop-color:#4C2800"/>
				</radialGradient>
				<path opacity="0.49" fill="url(#SVGID_12_)" enable-background="new    " d="M49.656,58.975c0,0,1.517,9.596,2.679,15.973
					c1.162,6.378,1.162,6.378,1.162,6.378l-0.526,0.263C52.971,81.588,49.745,62.614,49.656,58.975z"/>
				
					<radialGradient id="SVGID_13_" cx="-141.4097" cy="-922.877" r="84.5427" gradientTransform="matrix(0.9782 -0.1322 -0.1817 -0.9977 15.6274 -816.8868)" gradientUnits="userSpaceOnUse">
					<stop  offset="0" style="stop-color:#E1AC62"/>
					<stop  offset="1" style="stop-color:#4C2800"/>
				</radialGradient>
				<path fill="url(#SVGID_13_)" d="M70.078,118.482c0.415-0.825-1.526-14.592-1.526-14.592l2.446,14.467L70.078,118.482z"/>
				
					<radialGradient id="SVGID_14_" cx="-155.2212" cy="-934.7061" r="98.4913" gradientTransform="matrix(0.9782 -0.1322 -0.1817 -0.9977 15.6274 -816.8868)" gradientUnits="userSpaceOnUse">
					<stop  offset="0" style="stop-color:#E1AC62"/>
					<stop  offset="1" style="stop-color:#4C2800"/>
				</radialGradient>
				<polygon opacity="0.49" fill="url(#SVGID_14_)" enable-background="new    " points="58.519,104.67 63.901,130.079 
					63.671,130.879 58.036,105.119 				"/>
				
					<radialGradient id="SVGID_15_" cx="386.0322" cy="477.1943" r="23.8079" gradientTransform="matrix(0.214 0.9928 1.0023 -0.1704 -505.6748 -223.6318)" gradientUnits="userSpaceOnUse">
					<stop  offset="0" style="stop-color:#0DA0F8"/>
					<stop  offset="0.4663" style="stop-color:#08A4FF"/>
					<stop  offset="0.5379" style="stop-color:#079FF6"/>
					<stop  offset="0.653" style="stop-color:#0690DF"/>
					<stop  offset="0.7973" style="stop-color:#0479B8"/>
					<stop  offset="0.9636" style="stop-color:#015984"/>
					<stop  offset="1" style="stop-color:#005177"/>
				</radialGradient>
				<path fill="url(#SVGID_15_)" stroke="#2B5890" d="M51.694,82.722c0,0,4.469-4.17,8.652,0.857
					c4.184,5.028,6.008,1.987,8.221,6.951c2.211,4.966,2.143,13.12-4.587,12.056s-9.699,9.145-13.437,5.371
					c-3.737-3.771-2.281-10.57-2.281-10.57S43.976,79.816,51.694,82.722z"/>
				
					<radialGradient id="SVGID_16_" cx="310.7617" cy="635.1357" r="23.6923" gradientTransform="matrix(0.0275 1.0061 1.0917 0.0268 -630.3445 -278.6037)" gradientUnits="userSpaceOnUse">
					<stop  offset="0" style="stop-color:#FFE300"/>
					<stop  offset="1" style="stop-color:#F7941E"/>
				</radialGradient>
				<path fill="url(#SVGID_16_)" stroke="#BD7200" d="M81.157,51.431c0,0-6.74-13.518-13.549-2.943
					c-6.814,10.576-4.701,3.606-8.309,6.663c-3.607,3.058,0.914,17.789,8.407,15.089c7.495-2.701,6.716,3.219,10.708-3.376
					C82.405,60.27,90.2,57.248,81.157,51.431z"/>
				
					<radialGradient id="SVGID_17_" cx="227.8457" cy="766.5713" r="17.6356" gradientTransform="matrix(0.1893 1.2446 1.0711 -0.0933 -757.0946 -175.1105)" gradientUnits="userSpaceOnUse">
					<stop  offset="0" style="stop-color:#FF8177"/>
					<stop  offset="0.0692" style="stop-color:#FF635B"/>
					<stop  offset="0.1653" style="stop-color:#FF3F3A"/>
					<stop  offset="0.2626" style="stop-color:#FF2421"/>
					<stop  offset="0.3602" style="stop-color:#FF100F"/>
					<stop  offset="0.4585" style="stop-color:#FF0404"/>
					<stop  offset="0.5583" style="stop-color:#FF0000"/>
					<stop  offset="0.6219" style="stop-color:#F60000"/>
					<stop  offset="0.725" style="stop-color:#DE0000"/>
					<stop  offset="0.8549" style="stop-color:#B70000"/>
					<stop  offset="1" style="stop-color:#830000"/>
				</radialGradient>
				<path fill="url(#SVGID_17_)" stroke="#861E2D" d="M104.852,38.362c0,0-6.31-1.536-5.657,4.11
					c0.65,5.647,0.057,8.593-1.611,9.775c-1.67,1.181-0.621,4.864,4.895,4.118c5.52-0.746,8.801,6.934,13.439,3.44
					c4.639-3.494,9.363-6.521,3.025-12.355S111.923,37.885,104.852,38.362z"/>
				
					<radialGradient id="SVGID_18_" cx="408.3564" cy="412.2686" r="15.0195" gradientTransform="matrix(0.2413 0.9877 0.9803 -0.1961 -428.8386 -201.2618)" gradientUnits="userSpaceOnUse">
					<stop  offset="0" style="stop-color:#96DC00"/>
					<stop  offset="1" style="stop-color:#366100"/>
				</radialGradient>
				<path fill="url(#SVGID_18_)" stroke="#006838" d="M84.697,123.232c0,0-16.093-9.74-18.935-0.519
					c-2.842,9.226-1.774,17.151,5.35,16.958c7.125-0.191,14.521,1.111,13.66-5.688C83.91,127.184,93.188,130.541,84.697,123.232z"/>
			</g>
		</g>
	</g>
</g>
</svg>
