<?xml version="1.0" encoding="utf-8"?>
<!-- Generator: Adobe Illustrator 15.0.0, SVG Export Plug-In . SVG Version: 6.00 Build 0)  -->
<!DOCTYPE svg PUBLIC "-//W3C//DTD SVG 1.1//EN" "http://www.w3.org/Graphics/SVG/1.1/DTD/svg11.dtd">
<svg version="1.1" id="Layer_1" xmlns="http://www.w3.org/2000/svg" xmlns:xlink="http://www.w3.org/1999/xlink" x="0px" y="0px"
	 width="200px" height="200px" viewBox="0 0 200 200" enable-background="new 0 0 200 200" xml:space="preserve">
<g id="icon">
	<g id="Layer_2">
	</g>
	<g id="Layer_1_1_">
		<g>
			<g>
				
					<linearGradient id="SVGID_1_" gradientUnits="userSpaceOnUse" x1="-288.7515" y1="-882.0005" x2="-321.6552" y2="-882.9684" gradientTransform="matrix(0.9718 -0.2356 -0.2356 -0.9718 174.057 -825.7946)">
					<stop  offset="0" style="stop-color:#FF95CD"/>
					<stop  offset="0.1674" style="stop-color:#F690C7"/>
					<stop  offset="0.4388" style="stop-color:#DE82B7"/>
					<stop  offset="0.7785" style="stop-color:#B76C9C"/>
					<stop  offset="1" style="stop-color:#9A5B88"/>
				</linearGradient>
				<path fill="url(#SVGID_1_)" d="M161.271,104.373c-2.121-5.72-5.147-11.164-7.231-13.802l-42.997-54.422
					c-6.723-8.508-19.442-11.845-28.413-7.463L44.463,46.494c-2.8,1.368-5.75,3.583-7.116,5.889
					c-1.828,2.918-4.467,7.891-2.378,15.735c2.467,9.263,5.296,20.9,6.238,23.851c1.34,4.193,2.689,9.37,6.029,13.715l39.751,58.012
					c6.682,8.695,19.396,12.065,28.396,7.529l30.266-14.312c7.066-4.031,21.944-27.394,19.974-36.203
					C165.62,120.708,163.82,111.132,161.271,104.373z"/>
				
					<linearGradient id="SVGID_2_" gradientUnits="userSpaceOnUse" x1="-242.334" y1="-883.3506" x2="-225.1513" y2="-883.8003" gradientTransform="matrix(0.9718 -0.2356 -0.2356 -0.9718 174.057 -825.7946)">
					<stop  offset="0" style="stop-color:#FF95CD;stop-opacity:0"/>
					<stop  offset="0.1674" style="stop-color:#F690C7;stop-opacity:0.1674"/>
					<stop  offset="0.4388" style="stop-color:#DE82B7;stop-opacity:0.4388"/>
					<stop  offset="0.7785" style="stop-color:#B76C9C;stop-opacity:0.7785"/>
					<stop  offset="1" style="stop-color:#9A5B88"/>
				</linearGradient>
				<path fill="url(#SVGID_2_)" d="M161.271,104.373c-2.121-5.72-5.147-11.164-7.231-13.802l-42.997-54.422
					c-6.723-8.508-19.442-11.845-28.413-7.463L44.463,46.494c-2.8,1.368-5.75,3.583-7.116,5.889
					c-1.828,2.918-4.467,7.891-2.378,15.735c2.467,9.263,5.296,20.9,6.238,23.851c1.34,4.193,2.689,9.37,6.029,13.715l39.751,58.012
					c6.682,8.695,19.396,12.065,28.396,7.529l30.266-14.312c7.066-4.031,21.944-27.394,19.974-36.203
					C165.62,120.708,163.82,111.132,161.271,104.373z"/>
				
					<linearGradient id="SVGID_3_" gradientUnits="userSpaceOnUse" x1="-237.8013" y1="-922.9512" x2="-262.276" y2="-904.1795" gradientTransform="matrix(0.9718 -0.2356 -0.2356 -0.9718 174.057 -825.7946)">
					<stop  offset="0" style="stop-color:#FFCFE2;stop-opacity:0.7"/>
					<stop  offset="0.0846" style="stop-color:#FFBFDC;stop-opacity:0.6408"/>
					<stop  offset="0.2252" style="stop-color:#FFADD6;stop-opacity:0.5423"/>
					<stop  offset="0.3898" style="stop-color:#FF9FD1;stop-opacity:0.4272"/>
					<stop  offset="0.5987" style="stop-color:#FF97CE;stop-opacity:0.2809"/>
					<stop  offset="1" style="stop-color:#FF95CD;stop-opacity:0"/>
				</linearGradient>
				<path fill="url(#SVGID_3_)" d="M161.271,104.373c-2.121-5.72-5.147-11.164-7.231-13.802l-42.997-54.422
					c-6.723-8.508-19.442-11.845-28.413-7.463L44.463,46.494c-2.8,1.368-5.75,3.583-7.116,5.889
					c-1.828,2.918-4.467,7.891-2.378,15.735c2.467,9.263,5.296,20.9,6.238,23.851c1.34,4.193,2.689,9.37,6.029,13.715l39.751,58.012
					c6.682,8.695,19.396,12.065,28.396,7.529l30.266-14.312c7.066-4.031,21.944-27.394,19.974-36.203
					C165.62,120.708,163.82,111.132,161.271,104.373z"/>
				<g>
					
						<linearGradient id="SVGID_4_" gradientUnits="userSpaceOnUse" x1="-299.4189" y1="-876.7573" x2="-206.274" y2="-758.2664" gradientTransform="matrix(0.9718 -0.2356 -0.2356 -0.9718 174.057 -825.7946)">
						<stop  offset="0" style="stop-color:#FF95CD"/>
						<stop  offset="0.1674" style="stop-color:#F690C7"/>
						<stop  offset="0.4388" style="stop-color:#DE82B7"/>
						<stop  offset="0.7785" style="stop-color:#B76C9C"/>
						<stop  offset="1" style="stop-color:#9A5B88"/>
					</linearGradient>
					<path fill="url(#SVGID_4_)" d="M108.818,134.042c-8.97,4.39-21.69,1.051-28.411-7.456l-40.02-56.744
						c-6.718-8.507-4.896-18.962,4.076-23.348L82.63,28.686c8.971-4.381,21.69-1.044,28.413,7.463l42.997,54.422
						c6.724,8.506,4.896,18.96-4.073,23.348L108.818,134.042z"/>
				</g>
			</g>
		</g>
	</g>
</g>
</svg>
