<?xml version="1.0" encoding="utf-8"?>
<!-- Generator: Adobe Illustrator 15.0.0, SVG Export Plug-In . SVG Version: 6.00 Build 0)  -->
<!DOCTYPE svg PUBLIC "-//W3C//DTD SVG 1.1//EN" "http://www.w3.org/Graphics/SVG/1.1/DTD/svg11.dtd">
<svg version="1.1" id="Layer_1" xmlns="http://www.w3.org/2000/svg" xmlns:xlink="http://www.w3.org/1999/xlink" x="0px" y="0px"
	 width="200px" height="200px" viewBox="0 0 200 200" enable-background="new 0 0 200 200" xml:space="preserve">
<g id="icon">
	<g id="Layer_2">
	</g>
	<g id="Layer_1_1_">
		<g>
			<g>
				
					<linearGradient id="SVGID_1_" gradientUnits="userSpaceOnUse" x1="317.2373" y1="-569.1895" x2="291.8834" y2="-595.2015" gradientTransform="matrix(1 0 0 -1 -150 -530)">
					<stop  offset="0" style="stop-color:#FF00AC"/>
					<stop  offset="0.0089" style="stop-color:#FF06AF"/>
					<stop  offset="0.0814" style="stop-color:#FF36C4"/>
					<stop  offset="0.156" style="stop-color:#FF60D6"/>
					<stop  offset="0.2316" style="stop-color:#FF82E5"/>
					<stop  offset="0.3085" style="stop-color:#FF9CF0"/>
					<stop  offset="0.3873" style="stop-color:#FFAEF9"/>
					<stop  offset="0.4689" style="stop-color:#FFB9FD"/>
					<stop  offset="0.5583" style="stop-color:#FFBDFF"/>
					<stop  offset="0.623" style="stop-color:#FFB9FD"/>
					<stop  offset="0.6874" style="stop-color:#FFADF8"/>
					<stop  offset="0.7517" style="stop-color:#FF99F0"/>
					<stop  offset="0.816" style="stop-color:#FF7DE5"/>
					<stop  offset="0.8803" style="stop-color:#FF59D6"/>
					<stop  offset="0.9436" style="stop-color:#FF2DC4"/>
					<stop  offset="1" style="stop-color:#FF00B1"/>
				</linearGradient>
				<path fill="url(#SVGID_1_)" d="M53.428,37.67l-16.19,10.674c0,0-0.694,4.833-0.237,11.096c0.258,3.531,1.57,7.07,4.008,10.189
					l38.324,49.083c4.517,5.781,11.746,8.658,18.755,8.142c1.5-0.109,5.562,0.914,7.378,3.698
					c7.751,11.892,28.181,43.224,28.181,43.224c4.303,5.51,12.473,6.877,18.252,3.061l5.23-3.459
					c2.348-1.551,3.938-3.721,4.714-6.119c1.134-3.506,1.286-8.199,1.286-8.199s-29.283-30.604-38.968-41.062
					c-2.222-2.396-1.954-6.184-1.364-7.436c0.766-1.627,1.271-3.353,1.512-5.115c0.646-4.691,1.727-11.117-1.564-15.332
					l-40.649-47.64C75.34,33.822,62.506,31.671,53.428,37.67z"/>
				
					<linearGradient id="SVGID_2_" gradientUnits="userSpaceOnUse" x1="-910.6724" y1="2423.7969" x2="-876.859" y2="2424.1287" gradientTransform="matrix(0.8319 -0.5498 -0.6191 -0.7929 2344.1418 1534.0001)">
					<stop  offset="0" style="stop-color:#FF00AC"/>
					<stop  offset="0.0089" style="stop-color:#FF06AF"/>
					<stop  offset="0.0814" style="stop-color:#FF36C4"/>
					<stop  offset="0.156" style="stop-color:#FF60D6"/>
					<stop  offset="0.2316" style="stop-color:#FF82E5"/>
					<stop  offset="0.3085" style="stop-color:#FF9CF0"/>
					<stop  offset="0.3873" style="stop-color:#FFAEF9"/>
					<stop  offset="0.4689" style="stop-color:#FFB9FD"/>
					<stop  offset="0.5583" style="stop-color:#FFBDFF"/>
					<stop  offset="0.623" style="stop-color:#FFB9FD"/>
					<stop  offset="0.6874" style="stop-color:#FFADF8"/>
					<stop  offset="0.7517" style="stop-color:#FF99F0"/>
					<stop  offset="0.816" style="stop-color:#FF7DE5"/>
					<stop  offset="0.8803" style="stop-color:#FF59D6"/>
					<stop  offset="0.9436" style="stop-color:#FF2DC4"/>
					<stop  offset="1" style="stop-color:#FF00B1"/>
				</linearGradient>
				<path fill="url(#SVGID_2_)" d="M53.457,31.314l-8.273,5.469c-9.137,6.04-11.033,17.998-4.23,26.707l38.586,49.417
					c4.545,5.821,11.824,8.719,18.883,8.196c1.509-0.11,5.599,0.92,7.429,3.726c7.803,11.973,28.371,43.519,28.371,43.519
					c4.329,5.545,12.555,6.924,18.375,3.077l5.27-3.481c5.816-3.846,7.023-11.459,2.693-17.004c0,0-26.139-28.228-35.888-38.754
					c-2.235-2.414-1.968-6.224-1.375-7.482c2.82-5.998,2.168-13.294-2.389-19.134L82.32,36.149
					C75.52,27.438,62.598,25.274,53.457,31.314z"/>
				<g>
					
						<linearGradient id="SVGID_3_" gradientUnits="userSpaceOnUse" x1="263.459" y1="-567.9268" x2="212.4069" y2="-621.6312" gradientTransform="matrix(1 0 0 -1 -150 -530)">
						<stop  offset="0" style="stop-color:#6A6A86"/>
						<stop  offset="0.7627" style="stop-color:#1A1A21"/>
						<stop  offset="1" style="stop-color:#000000"/>
					</linearGradient>
					<path fill="url(#SVGID_3_)" d="M115.863,85.991c4.671,5.98,3.369,14.191-2.906,18.339l-11.553,7.637
						c-6.275,4.148-15.148,2.662-19.82-3.32L43.953,60.452c-4.67-5.982-3.369-14.193,2.906-18.341l11.553-7.635
						c6.275-4.148,15.148-2.662,19.82,3.32L115.863,85.991z"/>
				</g>
			</g>
			<g>
				<path d="M81.834,21.201c0.414,0.343,0.483,1.014,0.152,1.499L70.713,39.145c-0.332,0.485-0.938,0.6-1.354,0.257l0,0
					c-0.416-0.343-0.482-1.015-0.146-1.5L80.48,21.456C80.812,20.972,81.422,20.857,81.834,21.201L81.834,21.201z"/>
				<path d="M89.004,29.706c0.381,0.385,0.395,1.064,0.026,1.517L76.535,46.548c-0.369,0.452-0.979,0.507-1.361,0.121l0,0
					c-0.385-0.386-0.396-1.065-0.025-1.518l12.494-15.327C88.01,29.373,88.619,29.32,89.004,29.706L89.004,29.706z"/>
				<path d="M95.164,37.594c0.355,0.416,0.324,1.098-0.07,1.521L81.705,53.473c-0.395,0.423-1.003,0.428-1.36,0.013l0,0
					c-0.356-0.418-0.323-1.099,0.071-1.523l13.389-14.356C94.199,37.183,94.809,37.177,95.164,37.594L95.164,37.594z"/>
				<path d="M101.158,44.372c0.355,0.417,0.324,1.099-0.069,1.522L87.699,60.25c-0.395,0.424-1.002,0.429-1.359,0.012l0,0
					c-0.357-0.417-0.324-1.098,0.07-1.523l13.387-14.354C100.192,43.961,100.801,43.955,101.158,44.372L101.158,44.372z"/>
				<path d="M107.369,52.1c0.355,0.418,0.326,1.098-0.068,1.522L93.91,67.98c-0.393,0.422-1,0.428-1.357,0.012l0,0
					c-0.359-0.417-0.326-1.099,0.068-1.523l13.389-14.354C106.404,51.689,107.016,51.684,107.369,52.1L107.369,52.1z"/>
				<path d="M113.332,59.943c0.355,0.416,0.324,1.098-0.068,1.521L99.873,75.822c-0.393,0.423-1.002,0.429-1.36,0.012l0,0
					c-0.356-0.418-0.323-1.099,0.071-1.522l13.387-14.356C112.367,59.531,112.979,59.526,113.332,59.943L113.332,59.943z"/>
				<path d="M118.998,67.625c0.346,0.428,0.299,1.109-0.105,1.521l-13.693,13.987c-0.403,0.412-1.014,0.4-1.356-0.027l0,0
					c-0.348-0.428-0.3-1.109,0.104-1.522l13.697-13.985C118.045,67.186,118.652,67.199,118.998,67.625L118.998,67.625z"/>
				<path d="M124.255,75.624c0.308,0.463,0.206,1.141-0.228,1.512l-14.709,12.611c-0.432,0.371-1.031,0.297-1.34-0.166l0,0
					c-0.312-0.464-0.207-1.142,0.229-1.514l14.706-12.609C123.348,75.086,123.947,75.161,124.255,75.624L124.255,75.624z"/>
			</g>
			<g>
				<path d="M68.818,24.642c0.415,0.343,0.484,1.015,0.153,1.5L57.699,42.585c-0.333,0.485-0.938,0.6-1.354,0.257l0,0
					c-0.417-0.343-0.483-1.015-0.148-1.5l11.27-16.444C67.799,24.414,68.406,24.298,68.818,24.642L68.818,24.642z"/>
				<path d="M75.988,33.147c0.382,0.385,0.396,1.064,0.027,1.517L63.52,49.99c-0.367,0.452-0.977,0.506-1.361,0.12l0,0
					c-0.383-0.385-0.396-1.065-0.025-1.518L74.63,33.265C74.996,32.815,75.604,32.761,75.988,33.147L75.988,33.147z"/>
				<path d="M82.148,41.036c0.355,0.416,0.326,1.098-0.068,1.521L68.689,56.914c-0.395,0.424-1.002,0.429-1.359,0.013l0,0
					c-0.356-0.418-0.324-1.099,0.07-1.523l13.391-14.356C81.186,40.624,81.794,40.618,82.148,41.036L82.148,41.036z"/>
				<path d="M88.145,47.813c0.355,0.417,0.322,1.098-0.07,1.522L74.686,63.691c-0.396,0.424-1.003,0.43-1.361,0.013l0,0
					c-0.357-0.417-0.324-1.099,0.071-1.523l13.387-14.355C87.179,47.402,87.787,47.396,88.145,47.813L88.145,47.813z"/>
				<path d="M94.355,55.541c0.355,0.418,0.324,1.098-0.069,1.523l-13.39,14.357c-0.393,0.422-1,0.428-1.358,0.011l0,0
					c-0.359-0.417-0.325-1.099,0.068-1.523l13.391-14.355C93.391,55.13,94,55.125,94.355,55.541L94.355,55.541z"/>
				<path d="M100.318,63.384c0.354,0.416,0.323,1.097-0.07,1.521L86.857,79.262c-0.393,0.424-1,0.43-1.359,0.012l0,0
					c-0.357-0.416-0.324-1.098,0.07-1.522l13.388-14.355C99.353,62.972,99.963,62.967,100.318,63.384L100.318,63.384z"/>
				<path d="M105.984,71.066c0.345,0.428,0.297,1.109-0.105,1.521L92.182,86.575c-0.404,0.412-1.01,0.4-1.356-0.027l0,0
					c-0.347-0.428-0.3-1.109,0.104-1.522l13.695-13.986C105.029,70.626,105.639,70.64,105.984,71.066L105.984,71.066z"/>
				<path d="M111.24,79.065c0.307,0.463,0.205,1.14-0.229,1.512L96.3,93.187c-0.43,0.372-1.03,0.298-1.338-0.166l0,0
					c-0.31-0.464-0.208-1.142,0.228-1.514l14.708-12.608C110.332,78.528,110.934,78.602,111.24,79.065L111.24,79.065z"/>
			</g>
			<g>
				<path d="M61.4,35.294c0.416,0.343,0.484,1.014,0.154,1.5L50.282,53.237c-0.333,0.486-0.94,0.6-1.354,0.257l0,0
					c-0.416-0.343-0.482-1.015-0.148-1.5L60.05,35.55C60.381,35.065,60.988,34.95,61.4,35.294L61.4,35.294z"/>
				<path d="M68.57,43.798c0.381,0.385,0.396,1.064,0.029,1.517L56.103,60.641c-0.368,0.452-0.979,0.507-1.36,0.121l0,0
					c-0.385-0.386-0.398-1.065-0.027-1.518l12.496-15.327C67.577,43.466,68.188,43.412,68.57,43.798L68.57,43.798z"/>
				<path d="M74.73,51.688c0.355,0.416,0.326,1.097-0.068,1.521l-13.39,14.356c-0.394,0.424-1.003,0.429-1.358,0.013l0,0
					c-0.357-0.417-0.326-1.099,0.07-1.522L73.372,51.7C73.768,51.275,74.377,51.27,74.73,51.688L74.73,51.688z"/>
				<path d="M80.727,58.465c0.355,0.417,0.324,1.098-0.07,1.522L67.268,74.342c-0.395,0.424-1.003,0.43-1.36,0.014l0,0
					c-0.358-0.418-0.325-1.1,0.071-1.524l13.387-14.355C79.762,58.053,80.369,58.047,80.727,58.465L80.727,58.465z"/>
				<path d="M86.938,66.193c0.355,0.418,0.324,1.098-0.068,1.522L73.479,82.073c-0.393,0.423-1.001,0.428-1.357,0.012l0,0
					c-0.36-0.417-0.328-1.1,0.067-1.523l13.39-14.355C85.973,65.782,86.582,65.777,86.938,66.193L86.938,66.193z"/>
				<path d="M92.9,74.036c0.355,0.416,0.322,1.098-0.07,1.521L79.441,89.915c-0.395,0.423-1.002,0.429-1.361,0.012l0,0
					c-0.355-0.418-0.324-1.098,0.072-1.523l13.387-14.355C91.934,73.624,92.545,73.619,92.9,74.036L92.9,74.036z"/>
				<path d="M98.566,81.717c0.344,0.428,0.297,1.109-0.105,1.521L84.764,97.226c-0.402,0.413-1.01,0.401-1.357-0.026l0,0
					c-0.346-0.43-0.298-1.11,0.105-1.523L97.207,81.69C97.613,81.278,98.221,81.292,98.566,81.717L98.566,81.717z"/>
				<path d="M103.822,89.717c0.309,0.462,0.207,1.139-0.229,1.512l-14.709,12.609c-0.431,0.373-1.032,0.299-1.339-0.166l0,0
					c-0.309-0.463-0.207-1.141,0.229-1.514L102.48,89.55C102.916,89.178,103.516,89.252,103.822,89.717L103.822,89.717z"/>
			</g>
		</g>
	</g>
</g>
</svg>
