<?xml version="1.0" encoding="utf-8"?>
<!-- Generator: Adobe Illustrator 15.0.0, SVG Export Plug-In . SVG Version: 6.00 Build 0)  -->
<!DOCTYPE svg PUBLIC "-//W3C//DTD SVG 1.1//EN" "http://www.w3.org/Graphics/SVG/1.1/DTD/svg11.dtd">
<svg version="1.1" id="Layer_1" xmlns="http://www.w3.org/2000/svg" xmlns:xlink="http://www.w3.org/1999/xlink" x="0px" y="0px"
	 width="200px" height="200px" viewBox="0 0 200 200" enable-background="new 0 0 200 200" xml:space="preserve">
<g id="icon">
	<g id="Layer_2">
	</g>
	<g id="Layer_1_1_">
		<g>
			
				<radialGradient id="SVGID_1_" cx="275.0186" cy="-594.0024" r="63.4482" gradientTransform="matrix(1 0 0 -1 -150 -530)" gradientUnits="userSpaceOnUse">
				<stop  offset="0" style="stop-color:#FFE1C5"/>
				<stop  offset="1" style="stop-color:#C0977C"/>
			</radialGradient>
			<path fill="url(#SVGID_1_)" d="M71.368,35.35c-9.651,3.222-22.501,15.866-19.808,43.906
				c5.149,47.454,31.232,73.691,69.936,87.768c6.9,2.301,11.73,2.285,15.85,1.271c24.082-6.651,2.988-42.938,1.289-61.476
				c0.447,6.189-7.906,10.414-6.377,9.32c-9.875,0.926-9.109-15.104-10.018-25.746c-6.76,1.715-4.582,10.796-12.836,11.281
				c2.178-12.217,17.425-17.53,7.742-31.511c-17.583,5.43-23.404,20.55-27.125,37.401c-5.24-1.73-6.697-7.225-9.85-11.032
				c-2.191,0.621-1.301,3.785-1.552,6.008C65.464,85.598,73.49,55.688,92.587,48.467c0.127,9.335-9.104,10.957-7.861,21.212
				c14.342,3.387,20.391-2.281,32.336-6.873c-4.492-24.525-59.376-25.567-51.733,11.29C62.504,60.95,62.65,53.969,68.23,44.423
				c-3.393-0.366-4.275,1.334-6.461,1.964C61.412,40.686,73.686,37.831,71.368,35.35z"/>
			
				<radialGradient id="SVGID_2_" cx="638.7168" cy="-250.2573" r="49.8721" fx="640.7281" fy="-263.5875" gradientTransform="matrix(1.133 -0.086 -0.0118 -1.0295 -622.8745 -128.5623)" gradientUnits="userSpaceOnUse">
				<stop  offset="0" style="stop-color:#FFE1C5"/>
				<stop  offset="1" style="stop-color:#C0977C"/>
			</radialGradient>
			<path fill="url(#SVGID_2_)" d="M138.479,62.745c-14.502-11.473-17.961-31.126-49.333-31.69
				c-20.999,0.379-27.733,9.631-27.376,15.333c2.186-0.63,3.068-2.33,6.461-1.964c-5.58,9.545-5.727,16.527-2.901,29.672
				c-7.643-36.857,47.24-35.815,51.732-11.29c-11.944,4.592-17.996,10.26-32.335,6.873c-1.243-10.256,7.988-11.877,7.861-21.212
				C73.491,55.689,65.465,85.598,78.62,102.54c0.251-2.223-0.64-5.387,1.552-6.008c3.152,3.811,4.609,9.302,9.85,11.032
				c3.721-16.854,9.543-31.974,27.125-37.401c9.686,13.981-5.562,19.294-7.742,31.511c8.257-0.484,6.076-9.566,12.839-11.281
				c0.905,10.639,0.144,26.671,10.019,25.746c-1.529,1.094,6.823-3.131,6.379-9.32c-1.197-6.375,3.875-14.151,6.411-24.2
				C146.061,78.598,145.695,69.866,138.479,62.745z"/>
			
				<linearGradient id="SVGID_3_" gradientUnits="userSpaceOnUse" x1="220.2314" y1="-708.457" x2="265.0706" y2="-642.7452" gradientTransform="matrix(1 0 0 -1 -150 -530)">
				<stop  offset="0" style="stop-color:#FFE1C5"/>
				<stop  offset="0.5583" style="stop-color:#C0977C"/>
				<stop  offset="1" style="stop-color:#7E4C31"/>
			</linearGradient>
			<path fill="url(#SVGID_3_)" d="M122.375,104.784c0,0,3.766,10.456,0.477,14.417c-6.238,7.508,1.447,10.139-6.248,11.724
				c-7.69,1.584-29.557,1.267-23.535-9.665c6.02-10.931,10.695,1.73,16-0.633c6.757-3.01,2.062-11.248,7.535-17.465
				C121.605,97.484,122.375,104.784,122.375,104.784z"/>
			
				<linearGradient id="SVGID_4_" gradientUnits="userSpaceOnUse" x1="193.4912" y1="-673.4844" x2="255.9142" y2="-582.0035" gradientTransform="matrix(1 0 0 -1 -150 -530)">
				<stop  offset="0" style="stop-color:#FFE1C5"/>
				<stop  offset="0.5583" style="stop-color:#C0977C"/>
				<stop  offset="1" style="stop-color:#7E4C31"/>
			</linearGradient>
			<path fill="url(#SVGID_4_)" d="M119.339,83.506c0,0,7.104-14.373-7.524-30.302c-14.626-15.93-35.993-8.244-42.134,0
				c-6.143,8.243-10.197,35.083-5.443,27.478c4.752-7.604,3.904-15.823,15.842-26.615c9.381-8.481,15.93-6.97,25.664,0.951
				c9.731,7.921,13.625,23.073,9.506,28.488C111.127,88.92,117.816,89.27,119.339,83.506z"/>
			
				<radialGradient id="SVGID_5_" cx="650.8857" cy="-311.3623" r="29.351" gradientTransform="matrix(1.133 -0.086 -0.0118 -1.0295 -623.4272 -127.9353)" gradientUnits="userSpaceOnUse">
				<stop  offset="0" style="stop-color:#FFE1C5"/>
				<stop  offset="1" style="stop-color:#C0977C"/>
			</radialGradient>
			<path fill="url(#SVGID_5_)" d="M126.643,121.238c-5.887,1.344-1.016,10.568-5.578,13.941c-7.315,2.969-10.559,4.604-18.842,2.728
				c-19.929-6.286-26.869-18.233-28.48-16.726c-5.058,7.558,14.905,21.873,25.148,28.571c9.228,5.142,22.174,5.289,32.19,4.763
				C142.812,151.656,139.327,119.654,126.643,121.238z"/>
			
				<radialGradient id="SVGID_6_" cx="254.3828" cy="-593.4473" r="42.555" gradientTransform="matrix(1 0 0 -1 -150 -530)" gradientUnits="userSpaceOnUse">
				<stop  offset="0" style="stop-color:#FFE1C5"/>
				<stop  offset="1" style="stop-color:#C0977C"/>
			</radialGradient>
			<path fill="url(#SVGID_6_)" d="M126.643,62.938c0,0-9.971-32.794-43.396-28.358C49.818,39.016,52.67,83.692,55.521,90.663
				c2.852,6.97,3.802-4.97,3.802-16.98c0-12.011,4.594-31.181,22.179-33.558c17.586-2.376,33.428,7.129,37.547,20.438
				C123.168,73.869,130.117,72.443,126.643,62.938z"/>
		</g>
	</g>
</g>
</svg>
