<?xml version="1.0" encoding="utf-8"?>
<!-- Generator: Adobe Illustrator 15.0.0, SVG Export Plug-In . SVG Version: 6.00 Build 0)  -->
<!DOCTYPE svg PUBLIC "-//W3C//DTD SVG 1.1//EN" "http://www.w3.org/Graphics/SVG/1.1/DTD/svg11.dtd">
<svg version="1.1" id="Layer_1" xmlns="http://www.w3.org/2000/svg" xmlns:xlink="http://www.w3.org/1999/xlink" x="0px" y="0px"
	 width="200px" height="200px" viewBox="0 0 200 200" enable-background="new 0 0 200 200" xml:space="preserve">
<g id="icon">
	<g id="Layer_2">
	</g>
	<g id="Layer_1_1_">
		<g>
			<g>
				<g>
					
						<radialGradient id="SVGID_1_" cx="817.7002" cy="1893.1133" r="222.2321" gradientTransform="matrix(0.8338 -0.0752 0.1007 0.6496 -777.1602 -1094.1266)" gradientUnits="userSpaceOnUse">
						<stop  offset="0" style="stop-color:#830000"/>
						<stop  offset="1" style="stop-color:#531C00"/>
					</radialGradient>
					<path fill="url(#SVGID_1_)" d="M28.523,106.991c0,0,33.689-25.068,51.83-52.207c14.453-21.633,38.684-9.495,38.684-9.495
						s15.547-16.33,33.211-3.937c18.566,13.022,11.736,32.126,17.703,34.591c12.344,5.104-0.234,9.278-8.875,48.651
						c-7.205,32.836-51.07,47.489-79.723,33.281c-28.648-14.218-34.998-38.992-49.061-42.816
						C18.227,111.242,28.523,106.991,28.523,106.991z"/>
					
						<radialGradient id="SVGID_2_" cx="258" cy="-594" r="137.5145" gradientTransform="matrix(1 0 0 -1 -150 -530)" gradientUnits="userSpaceOnUse">
						<stop  offset="0.0307" style="stop-color:#FF8177"/>
						<stop  offset="0.1346" style="stop-color:#FF3F3A"/>
						<stop  offset="0.2166" style="stop-color:#FF1210"/>
						<stop  offset="0.2577" style="stop-color:#FF0000"/>
						<stop  offset="0.3283" style="stop-color:#F60000"/>
						<stop  offset="0.443" style="stop-color:#DE0000"/>
						<stop  offset="0.5873" style="stop-color:#B70000"/>
						<stop  offset="0.7485" style="stop-color:#830000"/>
					</radialGradient>
					<path fill="url(#SVGID_2_)" d="M35.438,106.576c0,0,31.598-23.114,47.98-47.626c13.057-19.543,37.938-7.36,37.938-7.36
						s11.699-15.821,27.652-4.625c16.773,11.764,7.854,29.391,14.17,31.567c11.406,3.933-0.209,8.382-8.014,43.948
						c-6.51,29.649-46.125,42.886-72.01,30.054c-25.875-12.837-31.607-35.212-44.311-38.669
						C26.141,110.413,35.438,106.576,35.438,106.576z"/>
					
						<radialGradient id="SVGID_3_" cx="455.6777" cy="1202.6797" r="46.2963" gradientTransform="matrix(1.0185 0.0132 0.0782 0.9828 -456.1891 -1091.2404)" gradientUnits="userSpaceOnUse">
						<stop  offset="0" style="stop-color:#830000"/>
						<stop  offset="1" style="stop-color:#531C00"/>
					</radialGradient>
					<path fill="url(#SVGID_3_)" d="M38.674,109.152c0,0,8.615-3.66,29.682-6.979c12.961-2.041,19.912-1.947,28.098-1.705
						c7.994,0.226,21.371,2.888,28.387-7.68c7.556-11.393,28.205-10.223,34.961-11.707c5.841-1.285,5.312,1.571,5.312,1.571
						S142,90.265,135.105,100.231c-5.672,8.214-8.35,10.559-14.604,12.707c-6.265,2.153-8.293-0.347-22.98-2.938
						c-15.127-2.68-31.596-0.448-41.795,0.116C37.543,111.117,38.674,109.152,38.674,109.152z"/>
					
						<radialGradient id="SVGID_4_" cx="306.0566" cy="1247.4941" r="46.1963" gradientTransform="matrix(0.9999 0.0166 -0.0166 0.9999 -136.2212 -1147.968)" gradientUnits="userSpaceOnUse">
						<stop  offset="0" style="stop-color:#830000"/>
						<stop  offset="1" style="stop-color:#531C00"/>
					</radialGradient>
					<path fill="url(#SVGID_4_)" d="M120.205,99.987l1.594-3.711c0,0,4.004-3.439,6.623-12.452
						c2.502-8.611,2.098-11.013,3.375-10.875c0.877,0.092,1.07,3.954,0.645,10.156c-0.279,4.185-0.729,4.914-1.918,7.399
						C129.34,92.99,120.205,99.987,120.205,99.987z"/>
				</g>
				
					<radialGradient id="SVGID_5_" cx="317.3691" cy="1481.1807" r="77.8142" gradientTransform="matrix(1.0015 -0.0832 -0.0166 0.9999 -133.657 -1331.5612)" gradientUnits="userSpaceOnUse">
					<stop  offset="0" style="stop-color:#830000"/>
					<stop  offset="1" style="stop-color:#531C00"/>
				</radialGradient>
				<path fill="url(#SVGID_5_)" d="M109.727,112.65c0,0,9.438,3.188,14.061,8.851c2.891,3.534,5.234,1.974,5.234,1.974
					s3.035-1.186,0.316-4.951c-4.031-5.584-6.801-7.11-6.801-7.11L109.727,112.65z"/>
			</g>
		</g>
	</g>
</g>
</svg>
