<?xml version="1.0" encoding="utf-8"?>
<!-- Generator: Adobe Illustrator 15.0.0, SVG Export Plug-In . SVG Version: 6.00 Build 0)  -->
<!DOCTYPE svg PUBLIC "-//W3C//DTD SVG 1.1//EN" "http://www.w3.org/Graphics/SVG/1.1/DTD/svg11.dtd">
<svg version="1.1" id="Layer_1" xmlns="http://www.w3.org/2000/svg" xmlns:xlink="http://www.w3.org/1999/xlink" x="0px" y="0px"
	 width="200px" height="200px" viewBox="0 0 200 200" enable-background="new 0 0 200 200" xml:space="preserve">
<g id="icon">
	<g id="Layer_2">
	</g>
	<g id="Layer_1_1_">
		<g>
			<g>
				<path fill="#FFFFFF" d="M124.331,67.747c-0.212-0.064-0.429-0.109-0.642-0.14c-3.475,0.27-6.834,3.581-7.953,8.382
					c-0.137,0.588-0.223,1.174-0.283,1.756c1.4-0.835,2.878-1.543,4.439-2.088c2.508-0.875,5.043-1.287,7.547-1.287
					c0.414,0,0.826,0.011,1.236,0.034C128.248,71.077,126.613,68.427,124.331,67.747z"/>
				<path fill="#FFFFFF" d="M77.327,80.452c-0.266-0.087-0.534-0.152-0.807-0.201c-4.433,0.087-8.944,3.663-10.711,9.093
					c-0.214,0.664-0.368,1.33-0.485,1.993c1.84-0.867,3.771-1.583,5.795-2.107c2.699-0.699,5.401-1.029,8.062-1.029
					c1.074,0,2.142,0.054,3.199,0.159C82.071,84.521,80.18,81.379,77.327,80.452z"/>
			</g>
			<g>
				
					<radialGradient id="SVGID_1_" cx="-708.5479" cy="207.4287" r="37.5247" fx="-708.6559" fy="198.1173" gradientTransform="matrix(0.8647 -0.2716 -0.255 -0.9621 791.0217 104.9375)" gradientUnits="userSpaceOnUse">
					<stop  offset="0.0859" style="stop-color:#FFFA00"/>
					<stop  offset="0.3558" style="stop-color:#FFE300"/>
					<stop  offset="1" style="stop-color:#F7941E"/>
				</radialGradient>
				<path fill="url(#SVGID_1_)" d="M119.895,75.657c-14.242,4.973-22.127,22.804-17.617,39.827
					c4.517,17.023,19.72,26.795,33.957,21.822c14.244-4.974,22.129-22.805,17.617-39.828
					C149.338,80.456,134.135,70.686,119.895,75.657z"/>
				<g>
					
						<radialGradient id="SVGID_2_" cx="-706.0688" cy="228.8076" r="12.1752" gradientTransform="matrix(0.8647 -0.2716 -0.255 -0.9621 791.0217 104.9375)" gradientUnits="userSpaceOnUse">
						<stop  offset="0.0859" style="stop-color:#FFFA00"/>
						<stop  offset="0.3558" style="stop-color:#FFE300"/>
						<stop  offset="1" style="stop-color:#F7941E"/>
					</radialGradient>
					<path fill="url(#SVGID_2_)" d="M131.698,80.483c1.661-7.137-1.691-14.326-7.489-16.058c-5.8-1.731-11.85,2.65-13.511,9.787
						c-1.666,7.137,1.688,14.326,7.487,16.058C123.982,92.003,130.033,87.62,131.698,80.483z M115.455,75.633
						c1.268-5.441,5.314-8.95,8.877-7.886c3.371,1.007,5.346,6.312,4.075,11.754c-1.269,5.442-5.356,8.938-8.667,7.949
						C116.24,86.404,114.186,81.075,115.455,75.633z"/>
					
						<radialGradient id="SVGID_3_" cx="-704.5205" cy="225.4893" r="8.6589" gradientTransform="matrix(0.8647 -0.2716 -0.255 -0.9621 791.0217 104.9375)" gradientUnits="userSpaceOnUse">
						<stop  offset="0.0859" style="stop-color:#FFFA00"/>
						<stop  offset="0.3558" style="stop-color:#FFE300"/>
						<stop  offset="0.6258" style="stop-color:#F7941E"/>
						<stop  offset="1" style="stop-color:#CA7C00"/>
					</radialGradient>
					<path fill="url(#SVGID_3_)" d="M131.698,80.483c1.661-7.137-1.237-12.657-7.087-14.149c-2.832-0.722-8.27,1.568-9.932,8.706
						c-1.662,7.136,0.781,13.559,6.607,15.184C123.701,90.896,130.033,87.62,131.698,80.483z M115.455,75.633
						c1.268-5.441,5.314-8.95,8.877-7.886c3.371,1.007,5.346,6.312,4.075,11.754c-1.269,5.442-5.356,8.938-8.667,7.949
						C116.24,86.404,114.186,81.075,115.455,75.633z"/>
					
						<radialGradient id="SVGID_4_" cx="-721.5371" cy="227.2422" r="5.8934" gradientTransform="matrix(0.8647 -0.2716 -0.255 -0.9621 791.0217 104.9375)" gradientUnits="userSpaceOnUse">
						<stop  offset="0.0245" style="stop-color:#FFFA00"/>
						<stop  offset="1" style="stop-color:#FFFA00;stop-opacity:0"/>
					</radialGradient>
					<path fill="url(#SVGID_4_)" d="M131.698,80.483c1.661-7.137-1.691-14.326-7.489-16.058c-5.8-1.731-11.85,2.65-13.511,9.787
						c-1.666,7.137,1.688,14.326,7.487,16.058C123.982,92.003,130.033,87.62,131.698,80.483z M115.455,75.633
						c1.268-5.441,5.314-8.95,8.877-7.886c3.371,1.007,5.346,6.312,4.075,11.754c-1.269,5.442-5.356,8.938-8.667,7.949
						C116.24,86.404,114.186,81.075,115.455,75.633z"/>
					
						<radialGradient id="SVGID_5_" cx="-700.6372" cy="240.502" r="3.2864" gradientTransform="matrix(0.8647 -0.2716 -0.255 -0.9621 791.0217 104.9375)" gradientUnits="userSpaceOnUse">
						<stop  offset="0.0245" style="stop-color:#FFFA00"/>
						<stop  offset="1" style="stop-color:#FFFA00;stop-opacity:0"/>
					</radialGradient>
					<path fill="url(#SVGID_5_)" d="M131.698,80.483c1.661-7.137-1.691-14.326-7.489-16.058c-5.8-1.731-11.85,2.65-13.511,9.787
						c-1.666,7.137,1.688,14.326,7.487,16.058C123.982,92.003,130.033,87.62,131.698,80.483z M115.455,75.633
						c1.268-5.441,5.314-8.95,8.877-7.886c3.371,1.007,5.346,6.312,4.075,11.754c-1.269,5.442-5.356,8.938-8.667,7.949
						C116.24,86.404,114.186,81.075,115.455,75.633z"/>
					
						<radialGradient id="SVGID_6_" cx="-709.5674" cy="236.5449" r="38.2454" gradientTransform="matrix(0.8647 -0.2716 -0.255 -0.9621 791.0217 104.9375)" gradientUnits="userSpaceOnUse">
						<stop  offset="0.0859" style="stop-color:#FFFA00"/>
						<stop  offset="0.3558" style="stop-color:#FFE300"/>
						<stop  offset="1" style="stop-color:#F7941E"/>
					</radialGradient>
					<path fill="url(#SVGID_6_)" d="M131.645,80.714c1.565-6.715-1.127-13.34-6.011-14.798s-10.11,2.801-11.677,9.515
						c-1.564,6.714,1.126,13.338,6.01,14.797C124.852,91.687,130.08,87.427,131.645,80.714z M115.736,75.989
						c1.347-5.771,5.932-9.403,10.05-8.173c3.905,1.167,6.284,6.878,4.938,12.649c-1.347,5.77-5.978,9.389-9.809,8.244
						C116.869,87.501,114.393,81.759,115.736,75.989z"/>
				</g>
				
					<radialGradient id="SVGID_7_" cx="-705.8452" cy="245.9229" r="6.3054" fx="-705.8634" fy="244.3583" gradientTransform="matrix(0.8647 -0.2716 -0.255 -0.9621 791.0217 104.9375)" gradientUnits="userSpaceOnUse">
					<stop  offset="0.0859" style="stop-color:#FFFA00"/>
					<stop  offset="0.3558" style="stop-color:#FFE300"/>
					<stop  offset="1" style="stop-color:#F7941E"/>
				</radialGradient>
				<path fill="url(#SVGID_7_)" d="M122.947,60.037c0.74,2.796-0.694,5.703-3.209,6.492c-2.512,0.789-5.149-0.837-5.891-3.634
					c-0.74-2.795,0.692-5.7,3.209-6.49C119.568,55.616,122.207,57.242,122.947,60.037z"/>
				
					<radialGradient id="SVGID_8_" cx="-705.3828" cy="258.3828" r="8.3495" gradientTransform="matrix(0.8647 -0.2716 -0.255 -0.9621 791.0217 104.9375)" gradientUnits="userSpaceOnUse">
					<stop  offset="0.0859" style="stop-color:#FFFA00"/>
					<stop  offset="0.3558" style="stop-color:#FFE300"/>
					<stop  offset="1" style="stop-color:#F7941E"/>
				</radialGradient>
				<path fill="url(#SVGID_8_)" d="M117.464,57.939c-0.522,0.164-1.069-0.175-1.224-0.755l-0.79-2.979
					c-0.401-1.515-1.158-2.223-2.304-3.293c-0.959-0.897-2.155-2.015-3.336-3.913c-1.324-2.134-1.361-5.094-0.09-7.037
					c1.168-1.78,3.129-2.364,5.389-1.601c3.408,1.154,4.428,5.488,4.471,5.672c0.133,0.586-0.205,1.175-0.715,1.317
					c-0.526,0.14-1.062-0.22-1.195-0.808c-0.008-0.029-0.796-3.308-3.115-4.093c-1.447-0.49-2.566-0.209-3.234,0.809
					c-0.784,1.204-0.738,3.145,0.109,4.516c1.025,1.651,2.062,2.619,2.979,3.474c1.214,1.136,2.358,2.208,2.934,4.363l0.789,2.979
					C118.283,57.171,117.984,57.775,117.464,57.939z"/>
				
					<radialGradient id="SVGID_9_" cx="-925.1958" cy="305.1875" r="37.3494" fx="-925.3033" fy="295.9198" gradientTransform="matrix(0.8048 -0.281 -0.255 -0.9621 948.384 129.4836)" gradientUnits="userSpaceOnUse">
					<stop  offset="0.0859" style="stop-color:#FFFA00"/>
					<stop  offset="0.3558" style="stop-color:#FFE300"/>
					<stop  offset="1" style="stop-color:#F7941E"/>
				</radialGradient>
				<path fill="url(#SVGID_9_)" d="M153.852,97.481c4.512,17.023-3.373,34.854-17.617,39.826
					c-14.237,4.976-29.44-4.797-33.957-21.822c-3.303-12.475,0.048-25.381,7.68-33.35c0,0,2.945,6.383,9.801,1.057
					c3.057-2.372,5.818-5.924,7.807-7.201c0,0,2.729,1.166,3.244,0.855c2.152-1.3,1.551-1.954,1.551-1.954
					C142.12,77.027,150.659,85.439,153.852,97.481z"/>
				
					<radialGradient id="SVGID_10_" cx="211.5645" cy="-583.3145" r="20.1379" gradientTransform="matrix(1 0 0 -1 -150 -530)" gradientUnits="userSpaceOnUse">
					<stop  offset="0.2761" style="stop-color:#90D2FF"/>
					<stop  offset="0.7055" style="stop-color:#328BFF"/>
					<stop  offset="1" style="stop-color:#7942FF"/>
				</radialGradient>
				<path fill="url(#SVGID_10_)" d="M152.07,98.707c3.843,14.502-2.875,29.691-15.006,33.928
					c-12.133,4.235-25.084-4.089-28.928-18.59c-3.848-14.503,2.871-29.692,15.006-33.929
					C135.273,75.882,148.227,84.204,152.07,98.707z"/>
				
					<radialGradient id="SVGID_11_" cx="-923.2622" cy="300.9922" r="30.5123" fx="-923.35" fy="293.421" gradientTransform="matrix(0.8048 -0.281 -0.255 -0.9621 948.384 129.4836)" gradientUnits="userSpaceOnUse">
					<stop  offset="0.2761" style="stop-color:#90D2FF"/>
					<stop  offset="0.7055" style="stop-color:#328BFF"/>
					<stop  offset="1" style="stop-color:#7942FF"/>
				</radialGradient>
				<path fill="url(#SVGID_11_)" d="M151.154,99.061c3.584,13.526-2.68,27.694-13.996,31.646
					c-11.315,3.95-23.396-3.812-26.982-17.34c-3.586-13.528,2.682-27.696,13.997-31.647
					C135.488,77.77,147.568,85.533,151.154,99.061z"/>
				
					<radialGradient id="SVGID_12_" cx="-922.563" cy="300.3789" r="25.9974" fx="-922.6376" fy="293.9281" gradientTransform="matrix(0.8048 -0.281 -0.255 -0.9621 948.384 129.4836)" gradientUnits="userSpaceOnUse">
					<stop  offset="0.2761" style="stop-color:#90D2FF"/>
					<stop  offset="0.7055" style="stop-color:#328BFF"/>
					<stop  offset="1" style="stop-color:#7942FF"/>
				</radialGradient>
				<path fill="url(#SVGID_12_)" d="M148.538,99.499c3.054,11.526-2.284,23.601-11.927,26.966
					c-9.641,3.366-19.938-3.249-22.991-14.773c-3.056-11.525,2.284-23.602,11.926-26.965
					C135.189,81.357,145.482,87.973,148.538,99.499z"/>
			</g>
			<path opacity="0.28" fill="#231F20" enable-background="new    " d="M114.254,115.215c-0.156-0.869-0.34-1.72-0.533-2.562
				c-0.055-0.229-0.111-0.461-0.166-0.69c-0.168-0.685-0.348-1.354-0.539-2.019c-0.047-0.161-0.091-0.327-0.139-0.49
				c-0.238-0.797-0.496-1.578-0.768-2.348c-0.067-0.186-0.137-0.363-0.205-0.549c-0.229-0.611-0.461-1.213-0.706-1.805
				c-0.082-0.195-0.162-0.395-0.245-0.588c-0.314-0.729-0.643-1.446-0.99-2.145c-0.041-0.082-0.084-0.162-0.125-0.244
				c-0.312-0.621-0.639-1.228-0.975-1.818c-0.105-0.186-0.213-0.369-0.319-0.553c-0.333-0.569-0.676-1.127-1.03-1.668
				c-0.058-0.09-0.113-0.184-0.173-0.273c-0.411-0.618-0.836-1.214-1.272-1.795c-0.109-0.15-0.228-0.296-0.342-0.445
				c-0.354-0.457-0.717-0.902-1.088-1.336c-0.111-0.133-0.222-0.268-0.337-0.396c-0.465-0.531-0.938-1.045-1.429-1.535
				c-0.079-0.082-0.162-0.157-0.243-0.235c-0.013,0.034-0.026,0.067-0.039,0.103c-0.19,0.504-0.372,1.016-0.543,1.535
				c-0.036,0.113-0.075,0.225-0.114,0.34c-0.19,0.611-0.373,1.23-0.539,1.859c-0.039,0.141-0.069,0.282-0.105,0.424
				c-0.137,0.529-0.262,1.064-0.373,1.605c-0.027,0.141-0.062,0.281-0.091,0.426c-0.132,0.645-0.244,1.295-0.344,1.953
				c-0.021,0.131-0.035,0.266-0.055,0.398c-0.08,0.557-0.146,1.116-0.205,1.682c-0.016,0.162-0.033,0.324-0.047,0.486
				c-0.062,0.672-0.108,1.348-0.138,2.028c-0.005,0.107-0.005,0.22-0.009,0.328c-0.021,0.592-0.027,1.185-0.023,1.779
				c0.001,0.178,0.002,0.352,0.005,0.525c0.014,0.689,0.039,1.385,0.084,2.078c0.007,0.072,0.015,0.145,0.02,0.213
				c0.046,0.637,0.107,1.271,0.183,1.906c0.021,0.186,0.043,0.364,0.066,0.547c0.092,0.705,0.195,1.408,0.322,2.11
				c1.812,10.041,6.914,17.824,13.363,21.761C115.367,129.302,115.523,122.253,114.254,115.215z"/>
			<g>
				
					<radialGradient id="SVGID_13_" cx="-363.2061" cy="-32.1807" r="43.0684" fx="-363.3299" fy="-42.8674" gradientTransform="matrix(0.9749 -0.2227 -0.2227 -0.9749 423.5198 2.715)" gradientUnits="userSpaceOnUse">
					<stop  offset="0.0859" style="stop-color:#FFFA00"/>
					<stop  offset="0.3558" style="stop-color:#FFE300"/>
					<stop  offset="1" style="stop-color:#F7941E"/>
				</radialGradient>
				<path fill="url(#SVGID_13_)" d="M71.119,89.229c-18.465,4.782-29.768,24.708-25.245,44.507
					c4.522,19.8,23.158,31.975,41.623,27.193c18.466-4.781,29.769-24.707,25.245-44.508C108.219,96.624,89.585,84.449,71.119,89.229
					z"/>
				<g>
					
						<radialGradient id="SVGID_14_" cx="-360.3574" cy="-7.6416" r="13.9744" gradientTransform="matrix(0.9749 -0.2227 -0.2227 -0.9749 423.5198 2.715)" gradientUnits="userSpaceOnUse">
						<stop  offset="0.0859" style="stop-color:#FFFA00"/>
						<stop  offset="0.3558" style="stop-color:#FFE300"/>
						<stop  offset="1" style="stop-color:#F7941E"/>
					</radialGradient>
					<path fill="url(#SVGID_14_)" d="M85.785,95.521c2.624-8.07-1.127-16.525-8.375-18.884c-7.252-2.356-15.257,2.274-17.881,10.345
						c-2.626,8.071,1.126,16.525,8.376,18.884C75.153,108.225,83.159,103.592,85.785,95.521z M65.478,88.917
						c2-6.154,7.398-9.914,11.851-8.466c4.218,1.371,6.346,7.578,4.345,13.732c-2.003,6.154-7.451,9.896-11.591,8.549
						C65.708,101.311,63.475,95.071,65.478,88.917z"/>
					
						<radialGradient id="SVGID_15_" cx="-358.5825" cy="-11.4551" r="9.9385" gradientTransform="matrix(0.9749 -0.2227 -0.2227 -0.9749 423.5198 2.715)" gradientUnits="userSpaceOnUse">
						<stop  offset="0.0859" style="stop-color:#FFFA00"/>
						<stop  offset="0.3558" style="stop-color:#FFE300"/>
						<stop  offset="0.6258" style="stop-color:#F7941E"/>
						<stop  offset="1" style="stop-color:#CA7C00"/>
					</radialGradient>
					<path fill="url(#SVGID_15_)" d="M85.785,95.521c2.624-8.07-0.669-14.583-8.001-16.67c-3.549-1.01-10.624,1.265-13.249,9.336
						s0.027,15.588,7.318,17.824C74.872,106.938,83.159,103.592,85.785,95.521z M65.478,88.917c2-6.154,7.398-9.914,11.851-8.466
						c4.218,1.371,6.346,7.578,4.345,13.732c-2.003,6.154-7.451,9.896-11.591,8.549C65.708,101.311,63.475,95.071,65.478,88.917z"/>
					
						<radialGradient id="SVGID_16_" cx="-378.1123" cy="-9.4375" r="6.7645" gradientTransform="matrix(0.9749 -0.2227 -0.2227 -0.9749 423.5198 2.715)" gradientUnits="userSpaceOnUse">
						<stop  offset="0.0245" style="stop-color:#FFFA00"/>
						<stop  offset="1" style="stop-color:#FFFA00;stop-opacity:0"/>
					</radialGradient>
					<path fill="url(#SVGID_16_)" d="M85.785,95.521c2.624-8.07-1.127-16.525-8.375-18.884c-7.252-2.356-15.257,2.274-17.881,10.345
						c-2.626,8.071,1.126,16.525,8.376,18.884C75.153,108.225,83.159,103.592,85.785,95.521z M65.478,88.917
						c2-6.154,7.398-9.914,11.851-8.466c4.218,1.371,6.346,7.578,4.345,13.732c-2.003,6.154-7.451,9.896-11.591,8.549
						C65.708,101.311,63.475,95.071,65.478,88.917z"/>
					
						<radialGradient id="SVGID_17_" cx="-354.1216" cy="5.7803" r="3.7719" gradientTransform="matrix(0.9749 -0.2227 -0.2227 -0.9749 423.5198 2.715)" gradientUnits="userSpaceOnUse">
						<stop  offset="0.0245" style="stop-color:#FFFA00"/>
						<stop  offset="1" style="stop-color:#FFFA00;stop-opacity:0"/>
					</radialGradient>
					<path fill="url(#SVGID_17_)" d="M85.785,95.521c2.624-8.07-1.127-16.525-8.375-18.884c-7.252-2.356-15.257,2.274-17.881,10.345
						c-2.626,8.071,1.126,16.525,8.376,18.884C75.153,108.225,83.159,103.592,85.785,95.521z M65.478,88.917
						c2-6.154,7.398-9.914,11.851-8.466c4.218,1.371,6.346,7.578,4.345,13.732c-2.003,6.154-7.451,9.896-11.591,8.549
						C65.708,101.311,63.475,95.071,65.478,88.917z"/>
					
						<radialGradient id="SVGID_18_" cx="-364.3755" cy="1.2354" r="43.8939" gradientTransform="matrix(0.9749 -0.2227 -0.2227 -0.9749 423.5198 2.715)" gradientUnits="userSpaceOnUse">
						<stop  offset="0.0859" style="stop-color:#FFFA00"/>
						<stop  offset="0.3558" style="stop-color:#FFE300"/>
						<stop  offset="1" style="stop-color:#F7941E"/>
					</radialGradient>
					<path fill="url(#SVGID_18_)" d="M85.7,95.78c2.471-7.594-0.479-15.358-6.586-17.344c-6.106-1.986-13.058,2.559-15.527,10.152
						c-2.47,7.592,0.479,15.357,6.586,17.344C76.279,107.918,83.231,103.372,85.7,95.78z M65.811,89.343
						c2.123-6.525,8.212-10.393,13.362-8.719c4.883,1.588,7.501,8.287,5.377,14.812c-2.121,6.525-8.269,10.375-13.06,8.816
						C66.43,102.607,63.689,95.868,65.811,89.343z"/>
				</g>
				
					<radialGradient id="SVGID_19_" cx="-360.103" cy="11.9951" r="7.2365" fx="-360.1238" fy="10.1994" gradientTransform="matrix(0.9749 -0.2227 -0.2227 -0.9749 423.5198 2.715)" gradientUnits="userSpaceOnUse">
					<stop  offset="0.0859" style="stop-color:#FFFA00"/>
					<stop  offset="0.3558" style="stop-color:#FFE300"/>
					<stop  offset="1" style="stop-color:#F7941E"/>
				</radialGradient>
				<circle fill="url(#SVGID_19_)" cx="70.232" cy="72.872" r="6.039"/>
				
					<radialGradient id="SVGID_20_" cx="-359.5693" cy="26.2988" r="9.5824" gradientTransform="matrix(0.9749 -0.2227 -0.2227 -0.9749 423.5198 2.715)" gradientUnits="userSpaceOnUse">
					<stop  offset="0.0859" style="stop-color:#FFFA00"/>
					<stop  offset="0.3558" style="stop-color:#FFE300"/>
					<stop  offset="1" style="stop-color:#F7941E"/>
				</radialGradient>
				<path fill="url(#SVGID_20_)" d="M69.295,68.77c-0.676,0.154-1.348-0.269-1.502-0.944l-0.792-3.465
					c-0.402-1.763-1.313-2.622-2.694-3.922c-1.156-1.09-2.597-2.448-3.961-4.699c-1.532-2.531-1.369-5.926,0.389-8.07
					c1.611-1.964,4.149-2.507,6.965-1.487c4.253,1.542,5.24,6.573,5.28,6.788c0.128,0.681-0.346,1.333-1.001,1.463
					c-0.681,0.127-1.336-0.321-1.464-1.002c-0.008-0.034-0.776-3.841-3.671-4.89c-1.805-0.655-3.248-0.406-4.17,0.718
					c-1.088,1.328-1.166,3.556-0.182,5.182c1.186,1.958,2.435,3.134,3.535,4.173c1.463,1.38,2.847,2.683,3.419,5.188l0.792,3.465
					C70.393,67.943,69.971,68.615,69.295,68.77z"/>
				
					<radialGradient id="SVGID_21_" cx="-557.7251" cy="56.3799" r="42.8643" fx="-557.8483" fy="45.7438" gradientTransform="matrix(0.9092 -0.2354 -0.2227 -0.9749 597.0378 36.4276)" gradientUnits="userSpaceOnUse">
					<stop  offset="0.0859" style="stop-color:#FFFA00"/>
					<stop  offset="0.3558" style="stop-color:#FFE300"/>
					<stop  offset="1" style="stop-color:#F7941E"/>
				</radialGradient>
				<path fill="url(#SVGID_21_)" d="M112.742,116.425c4.521,19.8-6.779,39.726-25.245,44.505
					c-18.465,4.781-37.101-7.394-41.623-27.193c-3.313-14.508,1.87-29.084,12.144-37.719c0,0,3.291,7.502,12.388,1.842
					c4.054-2.522,7.819-6.414,10.438-7.751c0,0,3.391,1.513,4.065,1.19c2.833-1.352,2.111-2.14,2.111-2.14
					C99.285,92.231,109.543,102.421,112.742,116.425z"/>
				
					<radialGradient id="SVGID_22_" cx="190.2285" cy="-639.9805" r="4.0138" gradientTransform="matrix(1 0 0 -1 -150 -530)" gradientUnits="userSpaceOnUse">
					<stop  offset="0.2761" style="stop-color:#90D2FF"/>
					<stop  offset="0.7055" style="stop-color:#328BFF"/>
					<stop  offset="1" style="stop-color:#7942FF"/>
				</radialGradient>
				<path fill="url(#SVGID_22_)" d="M110.391,117.715c3.854,16.865-5.772,33.84-21.506,37.913
					c-15.73,4.072-31.604-6.299-35.457-23.165c-3.853-16.865,5.775-33.841,21.505-37.913
					C90.663,90.477,106.537,100.85,110.391,117.715z"/>
				
					<radialGradient id="SVGID_23_" cx="-555.6704" cy="51.6128" r="35.1157" fx="-555.7713" fy="42.8993" gradientTransform="matrix(0.9092 -0.2354 -0.2227 -0.9749 597.0378 36.4276)" gradientUnits="userSpaceOnUse">
					<stop  offset="0.2761" style="stop-color:#90D2FF"/>
					<stop  offset="0.7055" style="stop-color:#328BFF"/>
					<stop  offset="1" style="stop-color:#7942FF"/>
				</radialGradient>
				<path fill="url(#SVGID_23_)" d="M109.124,118.061c3.603,15.775-5.401,31.651-20.116,35.463
					c-14.714,3.812-29.562-5.892-33.167-21.668c-3.603-15.774,5.403-31.652,20.116-35.461
					C90.671,92.581,105.52,102.283,109.124,118.061z"/>
				
					<radialGradient id="SVGID_24_" cx="-554.4375" cy="50.542" r="30.7422" fx="-554.5259" fy="42.9138" gradientTransform="matrix(0.9092 -0.2354 -0.2227 -0.9749 597.0378 36.4276)" gradientUnits="userSpaceOnUse">
					<stop  offset="0.2761" style="stop-color:#90D2FF"/>
					<stop  offset="0.7055" style="stop-color:#328BFF"/>
					<stop  offset="1" style="stop-color:#7942FF"/>
				</radialGradient>
				<path fill="url(#SVGID_24_)" d="M106.896,118.67c3.151,13.811-4.729,27.708-17.609,31.045
					c-12.881,3.335-25.88-5.156-29.035-18.969c-3.153-13.812,4.73-27.71,17.609-31.046
					C90.743,96.365,103.742,104.857,106.896,118.67z"/>
			</g>
			
				<linearGradient id="SVGID_25_" gradientUnits="userSpaceOnUse" x1="235.8965" y1="-660.3833" x2="228.5633" y2="-633.3826" gradientTransform="matrix(1 0 0 -1 -150 -530)">
				<stop  offset="0.1758" style="stop-color:#08DEFF;stop-opacity:0"/>
				<stop  offset="1" style="stop-color:#D3EBF4"/>
			</linearGradient>
			<ellipse fill="url(#SVGID_25_)" cx="82.482" cy="117.812" rx="17.758" ry="18.001"/>
			
				<linearGradient id="SVGID_26_" gradientUnits="userSpaceOnUse" x1="282.9805" y1="-639.5518" x2="276.9827" y2="-617.4681" gradientTransform="matrix(1 0 0 -1 -150 -530)">
				<stop  offset="0.1758" style="stop-color:#08DEFF;stop-opacity:0"/>
				<stop  offset="1" style="stop-color:#D3EBF4"/>
			</linearGradient>
			<ellipse fill="url(#SVGID_26_)" cx="130.188" cy="99.271" rx="13.291" ry="14.809"/>
		</g>
	</g>
</g>
</svg>
