<?xml version="1.0" encoding="utf-8"?>
<!-- Generator: Adobe Illustrator 15.0.0, SVG Export Plug-In . SVG Version: 6.00 Build 0)  -->
<!DOCTYPE svg PUBLIC "-//W3C//DTD SVG 1.1//EN" "http://www.w3.org/Graphics/SVG/1.1/DTD/svg11.dtd">
<svg version="1.1" id="Layer_1" xmlns="http://www.w3.org/2000/svg" xmlns:xlink="http://www.w3.org/1999/xlink" x="0px" y="0px"
	 width="200px" height="200px" viewBox="0 0 200 200" enable-background="new 0 0 200 200" xml:space="preserve">
<g id="icon">
	<g id="Layer_2">
	</g>
	<g id="Layer_1_1_">
		<g>
			<g>
				
					<radialGradient id="SVGID_1_" cx="440.9365" cy="2003.8643" r="175.5849" fx="433.9897" fy="1998.7512" gradientTransform="matrix(1 0 0 0.9138 -300 -1767.3743)" gradientUnits="userSpaceOnUse">
					<stop  offset="0.1288" style="stop-color:#FF8177"/>
					<stop  offset="0.1767" style="stop-color:#FF635B"/>
					<stop  offset="0.2433" style="stop-color:#FF3F3A"/>
					<stop  offset="0.3106" style="stop-color:#FF2421"/>
					<stop  offset="0.3782" style="stop-color:#FF100F"/>
					<stop  offset="0.4463" style="stop-color:#FF0404"/>
					<stop  offset="0.5153" style="stop-color:#FF0000"/>
					<stop  offset="0.533" style="stop-color:#F60000"/>
					<stop  offset="0.5617" style="stop-color:#DE0000"/>
					<stop  offset="0.5977" style="stop-color:#B70000"/>
					<stop  offset="0.638" style="stop-color:#830000"/>
					<stop  offset="0.7975" style="stop-color:#C50000"/>
				</radialGradient>
				<path fill="url(#SVGID_1_)" d="M141.902,168.646c-3.707,0-7.621-0.254-11.633-0.756c-21.756-2.729-42.619-12.599-43.496-13.018
					l-1.18-0.562l-0.392-1.25C85.161,152.93,80.605,137.734,70.75,117c-4.375-10.125-7.25-14.875-10.651-19.147
					C55,93.25,55.86,107.554,55.375,111.75c-1.405,12.108-1.398,20.891-1.396,20.984L54,134.375l-2.277,2.271l-2.848-1.771
					l0.41-2.035c0.03-0.154,3.369-15.559-5.69-37.465l-8.544-23.956c-0.926-5.294-5.926-11.544,1.639-30.306l0.074-0.19l0.099-0.178
					c0.213-0.384,5.354-9.394,16.28-9.394c3.545,0,7.288,0.976,11.123,2.9C77.401,40.84,83.39,51.833,89.181,62.464
					c2.565,4.708,5.218,9.577,8.479,14.044c8.751,11.987,22.354,27.203,29.979,31.914l0.659,0.408
					c13.896,8.584,31.187,19.27,37.761,33.094c5.623,11.824-0.899,21.4-1.186,21.805l-0.402,0.576l-0.619,0.338
					C163.559,164.807,156.355,168.646,141.902,168.646z"/>
			</g>
			<g>
				
					<radialGradient id="SVGID_2_" cx="311.7246" cy="1884.4824" r="48.9379" gradientTransform="matrix(1 0 0 1 -300 -1773)" gradientUnits="userSpaceOnUse">
					<stop  offset="0" style="stop-color:#000000"/>
					<stop  offset="0.3417" style="stop-color:#020202"/>
					<stop  offset="0.5121" style="stop-color:#0A0A0A"/>
					<stop  offset="0.6448" style="stop-color:#171717"/>
					<stop  offset="0.7578" style="stop-color:#2A2A2A"/>
					<stop  offset="0.8584" style="stop-color:#424242"/>
					<stop  offset="0.9488" style="stop-color:#606060"/>
					<stop  offset="1" style="stop-color:#747474"/>
				</radialGradient>
				<path fill="url(#SVGID_2_)" d="M46.734,85.057c11.215,8.82,12.847,12.002,12.847,12.002c-1.969,4.453-2.838,8.21-3.707,15.708
					c-1.446,12.472-1.315,22.002-1.315,22.002l-2.836,1.877l-3.209-2c0,0,3.414-16.979-6.152-40.108
					c-2.993-7.238-6.223-14.445-7.311-23.119C35.051,71.418,36.891,77.314,46.734,85.057z"/>
			</g>
			<g>
				<path d="M46.734,85.057c11.215,8.82,12.847,12.002,12.847,12.002c-1.969,4.453-2.838,8.21-3.707,15.708
					c-1.446,12.472-1.315,22.002-1.315,22.002l-2.836,1.877c0,0,1.435-11.832-2.166-33.666
					C48.282,95.252,46.734,85.057,46.734,85.057z"/>
			</g>
			
				<radialGradient id="SVGID_3_" cx="405.6748" cy="1836.2832" r="67.1271" gradientTransform="matrix(1 0 0 1 -300 -1773)" gradientUnits="userSpaceOnUse">
				<stop  offset="0" style="stop-color:#A70000"/>
				<stop  offset="0.1002" style="stop-color:#9E0000"/>
				<stop  offset="0.7041" style="stop-color:#6A0000"/>
				<stop  offset="1" style="stop-color:#560000"/>
			</radialGradient>
			<path fill="url(#SVGID_3_)" d="M51.928,36.934c0,0-14.624,1.008-5.127,17.546c9.324,16.237,34.589,52.182,54.752,68.608
				c9.359,7.625,26.209,7.762,35.516,3.072c6.104-3.072-0.657-6.748-7.174-10.881c-5.437-3.451-10.764-7.414-10.764-7.414
				S104.748,97.14,92.943,78.277C83.891,63.811,74.647,36.934,51.928,36.934z"/>
		</g>
	</g>
</g>
</svg>
