<?xml version="1.0" encoding="utf-8"?>
<!-- Generator: Adobe Illustrator 15.0.0, SVG Export Plug-In . SVG Version: 6.00 Build 0)  -->
<!DOCTYPE svg PUBLIC "-//W3C//DTD SVG 1.1//EN" "http://www.w3.org/Graphics/SVG/1.1/DTD/svg11.dtd">
<svg version="1.1" id="Layer_1" xmlns="http://www.w3.org/2000/svg" xmlns:xlink="http://www.w3.org/1999/xlink" x="0px" y="0px"
	 width="200px" height="200px" viewBox="0 0 200 200" enable-background="new 0 0 200 200" xml:space="preserve">
<g id="icon">
	<g id="Layer_2">
	</g>
	<g id="Layer_1_1_">
		<g>
			
				<radialGradient id="SVGID_1_" cx="355.916" cy="-1233.9229" r="58.8356" gradientTransform="matrix(1 0 0 -1 -250 -1121)" gradientUnits="userSpaceOnUse">
				<stop  offset="0.0859" style="stop-color:#FFFA00"/>
				<stop  offset="0.3558" style="stop-color:#FFE300"/>
				<stop  offset="1" style="stop-color:#F7941E"/>
			</radialGradient>
			<path fill="url(#SVGID_1_)" d="M149.878,145.002c18.34-30.664,10.876-68.881-16.67-85.354
				c-27.55-16.475-64.747-4.971-83.087,25.694c-18.339,30.666-10.876,68.879,16.675,85.355
				C94.341,187.172,131.539,175.666,149.878,145.002z M72.722,98.859c13.982-23.381,39.662-33.753,56.578-23.637
				c16.028,9.586,18.938,37.053,4.954,60.436c-13.982,23.382-39.855,33.633-55.585,24.225
				C62.05,149.943,58.737,122.24,72.722,98.859z"/>
			
				<radialGradient id="SVGID_2_" cx="363.3477" cy="-1248.2446" r="42.3844" gradientTransform="matrix(1 0 0 -1 -250 -1121)" gradientUnits="userSpaceOnUse">
				<stop  offset="0.0859" style="stop-color:#FFFA00"/>
				<stop  offset="0.3558" style="stop-color:#FFE300"/>
				<stop  offset="0.6258" style="stop-color:#F7941E"/>
				<stop  offset="1" style="stop-color:#CA7C00"/>
			</radialGradient>
			<path fill="url(#SVGID_2_)" d="M149.878,145.002c18.34-30.664,10.338-59.447-17.208-75.92
				c-27.55-16.475-44.79-4.767-63.13,25.899c-18.339,30.664-14.223,63.541,13.328,80.018
				C104.375,181.626,131.539,175.666,149.878,145.002z M72.722,98.859c13.982-23.381,39.662-33.753,56.578-23.637
				c16.028,9.586,18.938,37.053,4.954,60.436c-13.982,23.382-39.855,33.633-55.585,24.225
				C62.05,149.943,58.737,122.24,72.722,98.859z"/>
			
				<radialGradient id="SVGID_3_" cx="281.166" cy="-1241.4863" r="28.48" gradientTransform="matrix(1 0 0 -1 -250 -1121)" gradientUnits="userSpaceOnUse">
				<stop  offset="0.0245" style="stop-color:#FFFA00"/>
				<stop  offset="1" style="stop-color:#FFFA00;stop-opacity:0"/>
			</radialGradient>
			<path fill="url(#SVGID_3_)" d="M149.878,145.002c18.34-30.664,10.876-68.881-16.67-85.354
				c-27.55-16.475-64.747-4.971-83.087,25.694c-18.339,30.666-10.876,68.879,16.675,85.355
				C94.341,187.172,131.539,175.666,149.878,145.002z M72.722,98.859c13.982-23.381,39.662-33.753,56.578-23.637
				c16.028,9.586,18.938,37.053,4.954,60.436c-13.982,23.382-39.855,33.633-55.585,24.225
				C62.05,149.943,58.737,122.24,72.722,98.859z"/>
			
				<radialGradient id="SVGID_4_" cx="382.168" cy="-1177.416" r="15.8816" gradientTransform="matrix(1 0 0 -1 -250 -1121)" gradientUnits="userSpaceOnUse">
				<stop  offset="0.0245" style="stop-color:#FFFA00"/>
				<stop  offset="1" style="stop-color:#FFFA00;stop-opacity:0"/>
			</radialGradient>
			<path fill="url(#SVGID_4_)" d="M149.878,145.002c18.34-30.664,10.876-68.881-16.67-85.354
				c-27.55-16.475-64.747-4.971-83.087,25.694c-18.339,30.666-10.876,68.879,16.675,85.355
				C94.341,187.172,131.539,175.666,149.878,145.002z M72.722,98.859c13.982-23.381,39.662-33.753,56.578-23.637
				c16.028,9.586,18.938,37.053,4.954,60.436c-13.982,23.382-39.855,33.633-55.585,24.225
				C62.05,149.943,58.737,122.24,72.722,98.859z"/>
			
				<radialGradient id="SVGID_5_" cx="339.0088" cy="-1196.5479" r="184.7959" gradientTransform="matrix(1 0 0 -1 -250 -1121)" gradientUnits="userSpaceOnUse">
				<stop  offset="0.0859" style="stop-color:#FFFA00"/>
				<stop  offset="0.3558" style="stop-color:#FFE300"/>
				<stop  offset="1" style="stop-color:#F7941E"/>
			</radialGradient>
			<path fill="url(#SVGID_5_)" d="M149.289,145.986c17.253-28.848,12.432-63.482-10.77-77.357c-23.201-13.876-56-1.737-73.25,27.111
				c-17.254,28.848-12.433,63.482,10.77,77.359C99.244,186.975,132.037,174.836,149.289,145.986z M73.694,100.923
				c14.827-24.792,43.443-34.96,63.017-23.255c18.544,11.09,23.01,41.039,8.182,65.834c-14.828,24.791-43.668,34.824-61.87,23.938
				C63.796,155.939,58.865,125.719,73.694,100.923z"/>
			
				<radialGradient id="SVGID_6_" cx="349.7988" cy="-1172.8564" r="5.4775" gradientTransform="matrix(1 0 0 -1 -250 -1121)" gradientUnits="userSpaceOnUse">
				<stop  offset="0.5337" style="stop-color:#F7941E"/>
				<stop  offset="0.6442" style="stop-color:#FFE300"/>
				<stop  offset="0.9141" style="stop-color:#FFFA00"/>
			</radialGradient>
			<polygon fill="url(#SVGID_6_)" points="101.068,51.263 99.002,51.584 100.484,52.733 118.932,60.147 			"/>
			<g>
				<g>
					
						<linearGradient id="SVGID_7_" gradientUnits="userSpaceOnUse" x1="-255.2578" y1="-791.9683" x2="-254.1212" y2="-789.0134" gradientTransform="matrix(0.979 -0.2041 -0.2041 -0.979 169.3672 -796.3618)">
						<stop  offset="0" style="stop-color:#0097FF"/>
						<stop  offset="1" style="stop-color:#004C81"/>
					</linearGradient>
					<polygon fill="url(#SVGID_7_)" points="74.802,39.584 62.873,36.375 62.276,28.883 71.431,21.719 87.218,18.428 98.394,21.355 
						100.725,28.485 90.987,36.211 					"/>
					
						<linearGradient id="SVGID_8_" gradientUnits="userSpaceOnUse" x1="-255.0801" y1="-782.7114" x2="-263.4892" y2="-783.3932" gradientTransform="matrix(0.979 -0.2041 -0.2041 -0.979 169.3672 -796.3618)">
						<stop  offset="0" style="stop-color:#0097FF"/>
						<stop  offset="1" style="stop-color:#004C81"/>
					</linearGradient>
					<polygon fill="url(#SVGID_8_)" points="70.537,25.592 71.431,21.719 87.218,18.428 88.995,21.745 					"/>
					
						<linearGradient id="SVGID_9_" gradientUnits="userSpaceOnUse" x1="-250.4644" y1="-806.6177" x2="-220.1217" y2="-806.2767" gradientTransform="matrix(0.979 -0.2041 -0.2041 -0.979 169.3672 -796.3618)">
						<stop  offset="0" style="stop-color:#0097FF"/>
						<stop  offset="1" style="stop-color:#004C81"/>
					</linearGradient>
					<polygon fill="url(#SVGID_9_)" points="70.537,25.592 89.185,67.212 88.995,21.745 					"/>
					
						<linearGradient id="SVGID_10_" gradientUnits="userSpaceOnUse" x1="-245.9121" y1="-783.4917" x2="-231.3377" y2="-787.5827" gradientTransform="matrix(0.979 -0.2041 -0.2041 -0.979 169.3672 -796.3618)">
						<stop  offset="0" style="stop-color:#0097FF"/>
						<stop  offset="1" style="stop-color:#004C81"/>
					</linearGradient>
					<polygon fill="url(#SVGID_10_)" points="102.505,24.173 98.394,21.355 87.218,18.428 88.995,21.745 					"/>
					
						<linearGradient id="SVGID_11_" gradientUnits="userSpaceOnUse" x1="-266.2251" y1="-784.2754" x2="-272.7026" y2="-785.98" gradientTransform="matrix(0.979 -0.2041 -0.2041 -0.979 169.3672 -796.3618)">
						<stop  offset="0" style="stop-color:#FF0A00"/>
						<stop  offset="1" style="stop-color:#860A00"/>
					</linearGradient>
					<polygon fill="url(#SVGID_11_)" points="70.537,25.592 71.431,21.719 62.276,28.883 59.622,33.112 					"/>
					
						<linearGradient id="SVGID_12_" gradientUnits="userSpaceOnUse" x1="-253.0845" y1="-784.8457" x2="-252.7437" y2="-780.3001" gradientTransform="matrix(0.979 -0.2041 -0.2041 -0.979 169.3672 -796.3618)">
						<stop  offset="0" style="stop-color:#0097FF"/>
						<stop  offset="1" style="stop-color:#004C81"/>
					</linearGradient>
					<polygon fill="url(#SVGID_12_)" points="94.581,45.198 75.183,49.241 74.93,39.559 90.987,36.211 					"/>
					
						<linearGradient id="SVGID_13_" gradientUnits="userSpaceOnUse" x1="-258.6792" y1="-807.6763" x2="-237.3132" y2="-777.446" gradientTransform="matrix(0.979 -0.2041 -0.2041 -0.979 169.3672 -796.3618)">
						<stop  offset="0" style="stop-color:#0097FF"/>
						<stop  offset="1" style="stop-color:#004C81"/>
					</linearGradient>
					<polygon fill="url(#SVGID_13_)" points="89.058,36.614 76.636,39.202 80.625,48.106 89.1,46.34 					"/>
					
						<linearGradient id="SVGID_14_" gradientUnits="userSpaceOnUse" x1="-317.4736" y1="-790.0449" x2="-314.9736" y2="-790.613" gradientTransform="matrix(0.979 -0.2041 -0.2041 -0.979 169.3672 -796.3618)">
						<stop  offset="0" style="stop-color:#0097FF"/>
						<stop  offset="1" style="stop-color:#004C81"/>
					</linearGradient>
					<polygon fill="url(#SVGID_14_)" points="59.733,44.223 75.183,49.241 74.93,39.559 62.909,36.298 					"/>
					
						<linearGradient id="SVGID_15_" gradientUnits="userSpaceOnUse" x1="-284.0503" y1="-808.0908" x2="-249.0423" y2="-788.5409" gradientTransform="matrix(0.979 -0.2041 -0.2041 -0.979 169.3672 -796.3618)">
						<stop  offset="0" style="stop-color:#0097FF"/>
						<stop  offset="1" style="stop-color:#004C81"/>
					</linearGradient>
					<polygon fill="url(#SVGID_15_)" points="62.742,36.711 59.733,44.223 72.987,48.53 					"/>
					
						<linearGradient id="SVGID_16_" gradientUnits="userSpaceOnUse" x1="-276.0586" y1="-791.3477" x2="-276.0586" y2="-789.1317" gradientTransform="matrix(0.979 -0.2041 -0.2041 -0.979 169.3672 -796.3618)">
						<stop  offset="0" style="stop-color:#0097FF"/>
						<stop  offset="1" style="stop-color:#004C81"/>
					</linearGradient>
					<polygon fill="url(#SVGID_16_)" points="59.733,44.223 59.622,33.112 62.276,28.883 62.909,36.298 					"/>
					
						<linearGradient id="SVGID_17_" gradientUnits="userSpaceOnUse" x1="-281.3838" y1="-792.4331" x2="-275.247" y2="-796.8651" gradientTransform="matrix(0.979 -0.2041 -0.2041 -0.979 169.3672 -796.3618)">
						<stop  offset="0" style="stop-color:#0097FF"/>
						<stop  offset="1" style="stop-color:#004C81"/>
					</linearGradient>
					<polygon fill="url(#SVGID_17_)" points="59.622,33.112 59.733,44.223 62.742,36.711 					"/>
					
						<linearGradient id="SVGID_18_" gradientUnits="userSpaceOnUse" x1="-271.7256" y1="-786.1484" x2="-270.1064" y2="-785.2109" gradientTransform="matrix(0.979 -0.2041 -0.2041 -0.979 169.3672 -796.3618)">
						<stop  offset="0" style="stop-color:#0097FF"/>
						<stop  offset="1" style="stop-color:#004C81"/>
					</linearGradient>
					<polygon fill="url(#SVGID_18_)" points="62.276,28.883 59.622,33.112 62.468,31.149 					"/>
					
						<linearGradient id="SVGID_19_" gradientUnits="userSpaceOnUse" x1="-28.4727" y1="-800.582" x2="-12.5811" y2="-800.582" gradientTransform="matrix(-0.979 0.2041 -0.2041 -0.979 -84.3244 -743.0547)">
						<stop  offset="0" style="stop-color:#0097FF"/>
						<stop  offset="1" style="stop-color:#004C81"/>
					</linearGradient>
					<polygon fill="url(#SVGID_19_)" points="106.844,34.402 94.581,45.198 90.987,36.211 100.725,28.485 					"/>
					
						<linearGradient id="SVGID_20_" gradientUnits="userSpaceOnUse" x1="-242.6973" y1="-800.5469" x2="-230.7471" y2="-800.5469" gradientTransform="matrix(0.979 -0.2041 -0.2041 -0.979 169.3672 -796.3618)">
						<stop  offset="0" style="stop-color:#0097FF"/>
						<stop  offset="1" style="stop-color:#004C81"/>
					</linearGradient>
					<polygon fill="url(#SVGID_20_)" points="96.529,43.483 106.844,34.402 101.068,28.817 					"/>
					
						<linearGradient id="SVGID_21_" gradientUnits="userSpaceOnUse" x1="-328.9502" y1="-790.9526" x2="-322.3595" y2="-792.7708" gradientTransform="matrix(0.979 -0.2041 -0.2041 -0.979 169.3672 -796.3618)">
						<stop  offset="0" style="stop-color:#0097FF"/>
						<stop  offset="1" style="stop-color:#004C81"/>
					</linearGradient>
					<polygon fill="url(#SVGID_21_)" points="89.185,67.212 59.733,44.223 75.183,49.241 94.581,45.198 106.844,34.402 					"/>
					
						<linearGradient id="SVGID_22_" gradientUnits="userSpaceOnUse" x1="-253.2285" y1="-812.8105" x2="-240.7022" y2="-815.1112" gradientTransform="matrix(0.979 -0.2041 -0.2041 -0.979 169.3672 -796.3618)">
						<stop  offset="0" style="stop-color:#0097FF"/>
						<stop  offset="1" style="stop-color:#004C81"/>
					</linearGradient>
					<polygon fill="url(#SVGID_22_)" points="96.529,43.483 89.185,67.212 106.844,34.402 					"/>
					
						<linearGradient id="SVGID_23_" gradientUnits="userSpaceOnUse" x1="-240.1445" y1="-822.5137" x2="-242.8718" y2="-814.3317" gradientTransform="matrix(0.979 -0.2041 -0.2041 -0.979 169.3672 -796.3618)">
						<stop  offset="0" style="stop-color:#FFFFFF"/>
						<stop  offset="1" style="stop-color:#00FFFF;stop-opacity:0"/>
					</linearGradient>
					<polygon fill="url(#SVGID_23_)" points="96.529,43.483 89.185,67.212 106.844,34.402 					"/>
					
						<linearGradient id="SVGID_24_" gradientUnits="userSpaceOnUse" x1="-267.4346" y1="-812.1812" x2="-264.7073" y2="-816.9537" gradientTransform="matrix(0.979 -0.2041 -0.2041 -0.979 169.3672 -796.3618)">
						<stop  offset="0" style="stop-color:#0097FF"/>
						<stop  offset="1" style="stop-color:#004C81"/>
					</linearGradient>
					<polygon fill="url(#SVGID_24_)" points="89.185,67.212 59.733,44.223 75.183,49.241 					"/>
					
						<linearGradient id="SVGID_25_" gradientUnits="userSpaceOnUse" x1="-270.7031" y1="-817.0493" x2="-266.1019" y2="-814.3228" gradientTransform="matrix(0.979 -0.2041 -0.2041 -0.979 169.3672 -796.3618)">
						<stop  offset="0" style="stop-color:#0097FF"/>
						<stop  offset="1" style="stop-color:#004C81"/>
					</linearGradient>
					<polygon fill="url(#SVGID_25_)" points="72.987,48.53 59.733,44.223 89.185,67.212 					"/>
					
						<linearGradient id="SVGID_26_" gradientUnits="userSpaceOnUse" x1="-264.7676" y1="-818.7671" x2="-244.9541" y2="-818.7671" gradientTransform="matrix(0.979 -0.2041 -0.2041 -0.979 169.3672 -796.3618)">
						<stop  offset="0" style="stop-color:#0097FF"/>
						<stop  offset="1" style="stop-color:#004C81"/>
					</linearGradient>
					<polygon fill="url(#SVGID_26_)" points="89.185,67.212 75.183,49.241 94.581,45.198 					"/>
					
						<linearGradient id="SVGID_27_" gradientUnits="userSpaceOnUse" x1="-259.209" y1="-818.7666" x2="-250.5527" y2="-818.7666" gradientTransform="matrix(0.979 -0.2041 -0.2041 -0.979 169.3672 -796.3618)">
						<stop  offset="0" style="stop-color:#0097FF"/>
						<stop  offset="1" style="stop-color:#004C81"/>
					</linearGradient>
					<polygon fill="url(#SVGID_27_)" points="80.625,48.106 89.185,67.212 89.1,46.34 					"/>
					
						<linearGradient id="SVGID_28_" gradientUnits="userSpaceOnUse" x1="-28.4727" y1="-792.8213" x2="-22.8638" y2="-792.8213" gradientTransform="matrix(-0.979 0.2041 -0.2041 -0.979 -84.3244 -743.0547)">
						<stop  offset="0" style="stop-color:#0097FF"/>
						<stop  offset="1" style="stop-color:#004C81"/>
					</linearGradient>
					<polygon fill="url(#SVGID_28_)" points="106.844,34.402 102.505,24.173 98.394,21.355 100.725,28.485 					"/>
					
						<linearGradient id="SVGID_29_" gradientUnits="userSpaceOnUse" x1="-235.2607" y1="-795.0283" x2="-230.7471" y2="-795.0283" gradientTransform="matrix(0.979 -0.2041 -0.2041 -0.979 169.3672 -796.3618)">
						<stop  offset="0" style="stop-color:#0097FF"/>
						<stop  offset="1" style="stop-color:#004C81"/>
					</linearGradient>
					<polygon fill="url(#SVGID_29_)" points="106.844,34.402 102.505,24.173 101.068,28.817 					"/>
					
						<linearGradient id="SVGID_30_" gradientUnits="userSpaceOnUse" x1="-220.8135" y1="-783.7944" x2="-216.3822" y2="-782.5162" gradientTransform="matrix(0.979 -0.2041 -0.2041 -0.979 169.3672 -796.3618)">
						<stop  offset="0" style="stop-color:#0097FF"/>
						<stop  offset="1" style="stop-color:#004C81"/>
					</linearGradient>
					<polygon fill="url(#SVGID_30_)" points="102.505,24.173 98.394,21.355 99.115,23.563 					"/>
					
						<linearGradient id="SVGID_31_" gradientUnits="userSpaceOnUse" x1="-258.6475" y1="-800.835" x2="-256.2608" y2="-803.2214" gradientTransform="matrix(0.979 -0.2041 -0.2041 -0.979 169.3672 -796.3618)">
						<stop  offset="0" style="stop-color:#FFFFFF"/>
						<stop  offset="1" style="stop-color:#00FFFF;stop-opacity:0"/>
					</linearGradient>
					<polygon fill="url(#SVGID_31_)" points="94.581,45.198 75.183,49.241 74.93,39.559 90.987,36.211 					"/>
					
						<linearGradient id="SVGID_32_" gradientUnits="userSpaceOnUse" x1="-258.8535" y1="-782.5469" x2="-255.0068" y2="-790.2405" gradientTransform="matrix(0.979 -0.2041 -0.2041 -0.979 169.3672 -796.3618)">
						<stop  offset="0" style="stop-color:#FFFFFF"/>
						<stop  offset="1" style="stop-color:#00FFFF;stop-opacity:0"/>
					</linearGradient>
					<polygon fill="url(#SVGID_32_)" points="74.802,39.584 62.873,36.375 62.276,28.883 71.431,21.719 87.218,18.428 
						98.394,21.355 100.725,28.485 90.987,36.211 					"/>
					
						<linearGradient id="SVGID_33_" gradientUnits="userSpaceOnUse" x1="-261.9097" y1="-819.0996" x2="-256.0001" y2="-818.1906" gradientTransform="matrix(0.979 -0.2041 -0.2041 -0.979 169.3672 -796.3618)">
						<stop  offset="0" style="stop-color:#FFFFFF"/>
						<stop  offset="1" style="stop-color:#00FFFF;stop-opacity:0"/>
					</linearGradient>
					<polygon fill="url(#SVGID_33_)" points="89.185,67.212 75.183,49.241 94.581,45.198 					"/>
					
						<linearGradient id="SVGID_34_" gradientUnits="userSpaceOnUse" x1="-273.5854" y1="-795.2339" x2="-271.9947" y2="-797.9614" gradientTransform="matrix(0.979 -0.2041 -0.2041 -0.979 169.3672 -796.3618)">
						<stop  offset="0" style="stop-color:#FFFFFF"/>
						<stop  offset="1" style="stop-color:#00FFFF;stop-opacity:0"/>
					</linearGradient>
					<polygon fill="url(#SVGID_34_)" points="59.733,44.223 75.183,49.241 74.93,39.559 62.909,36.298 					"/>
				</g>
			</g>
			
				<linearGradient id="SVGID_35_" gradientUnits="userSpaceOnUse" x1="342.5127" y1="-1187.6519" x2="338.7316" y2="-1180.3119" gradientTransform="matrix(1 0 0 -1 -250 -1121)">
				<stop  offset="0.0859" style="stop-color:#FFFA00"/>
				<stop  offset="0.3558" style="stop-color:#FFE300"/>
				<stop  offset="1" style="stop-color:#F7941E"/>
			</linearGradient>
			<polygon fill="url(#SVGID_35_)" points="70.319,84.447 81.126,60.346 100.484,52.733 121.934,62.887 97.196,71.012 
				91.679,77.106 85.004,77.107 			"/>
			
				<radialGradient id="SVGID_36_" cx="334.418" cy="-1176.2998" r="11.9065" gradientTransform="matrix(1 0 0 -1 -250 -1121)" gradientUnits="userSpaceOnUse">
				<stop  offset="0.0859" style="stop-color:#FFFA00"/>
				<stop  offset="0.3558" style="stop-color:#FFE300"/>
				<stop  offset="1" style="stop-color:#F7941E"/>
			</radialGradient>
			<path fill="url(#SVGID_36_)" d="M96.076,53.142c0,0-9.194,5.21-14.241,5.11c-5.562-0.111-11.004-5.367-11.004-5.367l-2.478,0.831
				l12.772,6.63l19.358-7.613l-2.173-2.479C98.312,50.254,97.335,52.414,96.076,53.142z"/>
			
				<radialGradient id="SVGID_37_" cx="774.2363" cy="-1769.1216" r="25.0666" gradientTransform="matrix(0.9359 0.3522 0.1749 -0.4646 -345.6534 -1025.5439)" gradientUnits="userSpaceOnUse">
				<stop  offset="0.3558" style="stop-color:#FFE300"/>
				<stop  offset="1" style="stop-color:#F7941E"/>
			</radialGradient>
			<polygon fill="url(#SVGID_37_)" points="70.319,84.447 81.126,60.346 68.354,53.716 57.952,77.545 			"/>
			
				<radialGradient id="SVGID_38_" cx="319.541" cy="-1171.0898" r="7.8841" gradientTransform="matrix(1 0 0 -1 -250 -1121)" gradientUnits="userSpaceOnUse">
				<stop  offset="0.0859" style="stop-color:#FFFA00"/>
				<stop  offset="0.3558" style="stop-color:#FFE300"/>
				<stop  offset="1" style="stop-color:#F7941E"/>
			</radialGradient>
			<path fill="url(#SVGID_38_)" d="M76.636,58.016c0,0-8.247-5.317-8.282-9.91c-0.035-4.593-5.396-9.437-5.886-4.624
				c-0.49,4.813,7.071,11.818,7.071,11.818S73.831,60.506,76.636,58.016z"/>
			
				<radialGradient id="SVGID_39_" cx="361.7754" cy="-1199.9619" r="103.8777" gradientTransform="matrix(1 0 0 -1 -250 -1121)" gradientUnits="userSpaceOnUse">
				<stop  offset="0.0859" style="stop-color:#FFFA00"/>
				<stop  offset="0.3558" style="stop-color:#FFE300"/>
				<stop  offset="1" style="stop-color:#F7941E"/>
			</radialGradient>
			<path fill="url(#SVGID_39_)" d="M86.989,58.725c0,0,7.003-1.281,6.331-10.195c-0.557-7.377,2.324-8.945,3.993-8.945
				c3.242,0,3.287,3.655,2.687,8.479c-0.529,4.256-3.367,7.221-3.367,7.221L86.989,58.725z"/>
			
				<radialGradient id="SVGID_40_" cx="351.5566" cy="-1175.2109" r="11.3726" gradientTransform="matrix(1 0 0 -1 -250 -1121)" gradientUnits="userSpaceOnUse">
				<stop  offset="0.0859" style="stop-color:#FFFA00"/>
				<stop  offset="0.3558" style="stop-color:#FFE300"/>
				<stop  offset="1" style="stop-color:#F7941E"/>
			</radialGradient>
			<path fill="url(#SVGID_40_)" d="M102.619,49.155c0-5.343,4.225-14.753,4.225-14.753l-6.709,12.465l-1.133,4.717l6.08,2.293
				C105.082,53.877,102.619,51.718,102.619,49.155z"/>
			
				<radialGradient id="SVGID_41_" cx="3.333" cy="-1482.2383" r="5.295" gradientTransform="matrix(0.8073 0 0 -0.8998 102.6943 -1305.6984)" gradientUnits="userSpaceOnUse">
				<stop  offset="0.0859" style="stop-color:#FFFA00"/>
				<stop  offset="0.3558" style="stop-color:#FFE300"/>
				<stop  offset="1" style="stop-color:#F7941E"/>
			</radialGradient>
			<path fill="url(#SVGID_41_)" d="M106.844,34.402c0,0,1.229-2.214,0.038-4.516c-1.19-2.302-2.926-2.132-2.926-2.132
				L106.844,34.402z"/>
			
				<linearGradient id="SVGID_42_" gradientUnits="userSpaceOnUse" x1="373.8008" y1="-1204.1533" x2="334.9462" y2="-1187.5398" gradientTransform="matrix(1 0 0 -1 -250 -1121)">
				<stop  offset="0" style="stop-color:#FFE300"/>
				<stop  offset="1" style="stop-color:#F7941E"/>
			</linearGradient>
			<path fill="url(#SVGID_42_)" d="M71.431,82.891l11.016-22.544c0,0,8.787-1.148,10.566-5.376c1.78-4.227,1.568-6.44,1.568-6.44
				s1.25,4.375-0.938,7.188c-2.187,2.812-9.974,5.371-9.974,5.371L71.431,82.891z"/>
		</g>
	</g>
</g>
</svg>
