<?xml version="1.0" encoding="utf-8"?>
<!-- Generator: Adobe Illustrator 15.0.0, SVG Export Plug-In . SVG Version: 6.00 Build 0)  -->
<!DOCTYPE svg PUBLIC "-//W3C//DTD SVG 1.1//EN" "http://www.w3.org/Graphics/SVG/1.1/DTD/svg11.dtd">
<svg version="1.1" id="Layer_1" xmlns="http://www.w3.org/2000/svg" xmlns:xlink="http://www.w3.org/1999/xlink" x="0px" y="0px"
	 width="200px" height="200px" viewBox="0 0 200 200" enable-background="new 0 0 200 200" xml:space="preserve">
<g id="icon">
	<g id="Layer_2">
	</g>
	<g id="Layer_1_1_">
		<g>
			<g>
				<g>
					
						<radialGradient id="SVGID_1_" cx="247.5215" cy="-359.3369" r="76.89" gradientTransform="matrix(1 0 0 -1.4742 -150 -415.2358)" gradientUnits="userSpaceOnUse">
						<stop  offset="0" style="stop-color:#FFC000"/>
						<stop  offset="0.6626" style="stop-color:#FF8600"/>
					</radialGradient>
					<path fill="url(#SVGID_1_)" d="M96.062,186.361c-0.342,0-0.682-0.014-1.024-0.041c-5.161-0.408-8.704-4.566-11.829-8.234
						c-1.957-2.295-3.804-4.464-5.757-5.527c-1.785-0.973-4.771-1.26-7.659-1.537c-5.04-0.48-10.751-1.029-14.058-5.326
						c-2.212-2.869-3.076-7.227-3.992-11.836c-0.77-3.877-1.565-7.887-3.147-11.209c-0.878-1.846-1.897-3.732-2.882-5.562
						c-2.969-5.507-6.039-11.202-5.792-16.755c0.239-5.416,3.832-15.84,7.002-25.037c1.669-4.845,3.247-9.42,3.941-12.176
						l0.608-2.413l2.484,0.151c2.208,0.135,3.739,1.224,4.898,2.258c0.792-2.039,1.917-3.871,2.96-5.572
						c1.849-3.014,3.447-5.617,2.92-8.543c-0.18-0.999-1.574-2.884-2.694-4.398c-2.441-3.301-5.208-7.042-4.013-11.06
						c0.77-2.587,2.962-4.521,6.702-5.911l3.365-1.251l0.633,3.535c0.102,0.569,0.354,1.232,0.72,1.894
						c-0.128-2.948,0.412-5.854,2.174-9.698c2.917-6.357,7.554-7.562,13.972-9.225l1.887-0.494l0.513-0.012
						c1.423,0,2.657,0.523,3.567,1.512c0.417,0.454,0.728,0.967,0.956,1.518c4.017-6.897,8.047-16.341,8.405-21.393l0.275-3.876
						l3.681,1.248c6.271,2.125,7.147,8.522,7.853,13.663c0.197,1.436,0.386,2.792,0.662,3.965c0.485,2.039,0.756,3.918,0.994,5.577
						c0.217,1.515,0.418,2.917,0.754,4.282c0.258-0.441,0.553-0.931,0.912-1.405l2.016-2.659L120.5,37.1
						c0.852,0.8,1.708,1.563,2.561,2.322c3.129,2.789,6.365,5.672,9.059,10.094c0.695,1.146,1.884,2.355,3.14,3.635
						c1.868,1.905,4.292,4.375,5.251,7.411l5.481-0.761l-2.632,5.133c-2.971,5.797-3.737,9.712-2.42,12.321
						c0.49,0.972,2.649,2.336,4.388,3.433c3.466,2.19,7.769,4.91,8.175,9.455c0.116,0.76,0.141,2.212-1.02,3.395
						c2.711,4.895,3.642,9.562,4.541,14.092c0.146,0.726,0.289,1.454,0.441,2.188c0.538,2.582,1.016,3.748,1.436,4.772
						c0.762,1.857,1.226,3.194,1.189,7.113c-0.039,4.562-1.393,6.472-3.023,8.329c-0.867,0.988-1.558,1.771-2.051,3.922
						c-0.414,1.805-0.312,4.152-0.201,6.646c0.207,4.641,0.438,9.896-2.396,14.652c-3.877,6.501-8.271,13.868-13.744,18.553
						c-3.603,3.082-8.784,3.397-13.797,3.709c-3.138,0.189-6.383,0.393-9.241,1.229c-2.275,0.668-4.613,1.931-7.087,3.27
						C104.593,184.148,100.501,186.361,96.062,186.361z"/>
				</g>
				<g>
					
						<radialGradient id="SVGID_2_" cx="8323.8262" cy="-581.5913" r="12.6488" gradientTransform="matrix(-1 0 0 -1 8426.877 -530)" gradientUnits="userSpaceOnUse">
						<stop  offset="0" style="stop-color:#FFE600"/>
						<stop  offset="1" style="stop-color:#FFAE00"/>
					</radialGradient>
					<path fill="url(#SVGID_2_)" d="M98.131,68.779c12.965-4.6,11.432-25.808,5.266-34.375c-9.616,6.58-1.899,18.7-2.528,27.324
						C100.637,64.879,97.741,67.1,98.131,68.779z"/>
					
						<radialGradient id="SVGID_3_" cx="8339.4863" cy="-592.0586" r="13.8594" gradientTransform="matrix(-1 0 0 -1 8426.877 -530)" gradientUnits="userSpaceOnUse">
						<stop  offset="0" style="stop-color:#FFE600"/>
						<stop  offset="1" style="stop-color:#FFAE00"/>
					</radialGradient>
					<path fill="url(#SVGID_3_)" d="M88.13,50.953c-0.164-0.375-0.032-0.974-0.713-0.955c-0.946-1.441-0.75-3.751-0.762-5.9
						c-16.552,10.47,0.523,24.609,3.875,35.921C99.462,72.016,93.978,57.756,88.13,50.953z"/>
					
						<radialGradient id="SVGID_4_" cx="8322.9258" cy="-650.3193" r="52.1538" gradientTransform="matrix(-1 0 0 -1 8426.877 -530)" gradientUnits="userSpaceOnUse">
						<stop  offset="0" style="stop-color:#FFE600"/>
						<stop  offset="1" style="stop-color:#FFAE00"/>
					</radialGradient>
					<path fill="url(#SVGID_4_)" d="M143.078,108.979c-1.053,5.209-8.546,1.847-11.335,5.955c-0.679-3.6,2.34-4.057,4.104-8.223
						c1.754-4.137,1.521-8.178-2.021-11.813c-0.155-0.549,0.161-1.411-0.468-1.598c-1.252-3.039-6.354-2.024-5.863-6.381
						c-7.453,2.653-3.021,6.633-3.854,11.028c-0.512,2.683-4.014,2.217-5.908,4.951c-1.952,2.812-4.234,5.619-3.385,8.492
						c-0.981-1.998-3.025-3.926-2.996-6.893c0.795-0.215,1.432-0.836,1.285-1.521c2.688-4.479,5.613-6.167,3.885-9.267
						c-2.058-3.683-6.232-5.996-6.551-8.99c-0.334-3.154,2.098-6.411,3.938-10.021c1.771-3.466,2.025-7.253-2.361-10.35
						c0.417,1.588,0.799,3.354,0.588,4.524c-0.783,0.145-2.984-1.114-3.299-0.661c-2.812,2.038-6.005,3.814-8.552,5.812
						c-2.976,2.338-5.342,5.846-4.9,9.524c0.364,3.024,6.736,5.309,6.875,8.521c0.215,4.81-5.777,8.264-6.871,13.131
						c-1.805-2.271-8.905-4.002-9.937-7.434c-1.158-3.823,3.616-9.003,2.797-12.907c-0.749-3.542-1.911-6.729-4.919-8.348
						c-2.429-1.306-5.561,0.814-9.123-0.288c0.168,1.862,0.84,0.461,1.457,1.983c1.727,6.413-2.088,9.231-3.672,13.053
						c-1.849,4.453-4.33,11.138-1.398,13.88c2.573,2.399,7.767,2.526,11.237,4.893c0.078,0.293-0.246,1.191,0.331,1.004
						c1.541,2.02-0.709,9.33-1.405,12.289c-2.198-2.379-6.646-0.619-11.019-0.443c-4.805,0.189-10.585,0.553-11.085-3.492
						c-1.467,1.193,1.206-3.701,1.062-2.104c-1.091,3.368-4.083,6.641-3.78,10.215c0.297,3.481,1.564,7.137,2.698,10.508
						c1.157,3.449,2.437,6.981,3.961,10.007c1.811,3.596,6.333,5.307,7.863,7.801c1.177,2.018,0.502,7.227,3.704,9.854
						c2.338,1.918,6.396,2.367,9.53,4.064c2.814,1.526,6.225,1.906,9.503,2.903c3.124,0.949,6.102,3.478,9.49,3.648
						c3.238,0.163,6.152-3.031,9.502-3.834c3.076-0.736,7.062,0.702,10.123-1.052c2.686-1.535,5.666-3.455,8.271-5.914
						c2.231-2.108,3.937-5.18,6.062-8.059c2.229-3.156,2.729-6.988,4.185-10.123c1.627-3.492,5.147-6.16,5.938-9.525
						c0.877-3.75,0.334-7.684,0.338-11.129c0.002-3.875,5.164-1.629,4.871-5.028c-0.34-3.957-1.41-7.947-2.717-10.982
						C147.589,106.742,145.479,110.943,143.078,108.979z"/>
					
						<radialGradient id="SVGID_5_" cx="8306.2324" cy="-599.7129" r="10.206" gradientTransform="matrix(-1 0 0 -1 8426.877 -530)" gradientUnits="userSpaceOnUse">
						<stop  offset="0" style="stop-color:#FFE600"/>
						<stop  offset="1" style="stop-color:#FFAE00"/>
					</radialGradient>
					<path fill="url(#SVGID_5_)" d="M120.023,83.076c-0.838-8.182,13.769-20.48,0.436-26.727
						C122.885,63.378,107.814,76.987,120.023,83.076z"/>
				</g>
				
					<radialGradient id="SVGID_6_" cx="8325.3965" cy="-665.0132" r="38.5005" gradientTransform="matrix(-1 0 0 -1 8426.877 -530)" gradientUnits="userSpaceOnUse">
					<stop  offset="0" style="stop-color:#FFFF9D"/>
					<stop  offset="1" style="stop-color:#FFE300"/>
				</radialGradient>
				<path fill="url(#SVGID_6_)" d="M130.93,155.559c0,0-5.257,15.062-24.445,14.525c-19.189-0.539-22.663-4.5-30.019-13.121
					c-7.354-8.623-12.814-12.436-13.047-17.332c-0.231-4.898-3.575-14.859-3.575-14.859s2.528,3.377,9.112,2.75
					c6.586-0.629,12.352-3.377,14.273,0.224c1.928,3.598,3.809,6.146,8.666,3.672c4.859-2.479,2.385-12.504-2.944-18.666
					c-5.331-6.164-7.007-10.623-7.007-10.623s4.236,9.713,12.09,8.856c7.853-0.854,5.008,11.586,5.008,11.586
					s-1.723-12.077,4.06-19.92c6.524-8.843,3.336,6.562,4.021,8.021c2.773,5.89,10.027,11.586,14.432,5.531
					c4.403-6.054-5.123,8.768,2.036,4.846s17.243-9.494,17.243-9.494s5.148,5.55-0.02,21.438
					C135.643,148.881,130.93,155.559,130.93,155.559z"/>
				
					<radialGradient id="SVGID_7_" cx="8323.1133" cy="-675.6348" r="24.1706" gradientTransform="matrix(-1 0 0 -1 8426.877 -530)" gradientUnits="userSpaceOnUse">
					<stop  offset="0" style="stop-color:#FFFFD7"/>
					<stop  offset="0.2089" style="stop-color:#FFFFD4"/>
					<stop  offset="0.3515" style="stop-color:#FFFDCB"/>
					<stop  offset="0.4743" style="stop-color:#FFFBBC"/>
					<stop  offset="0.5858" style="stop-color:#FFF9A6"/>
					<stop  offset="0.6899" style="stop-color:#FFF58A"/>
					<stop  offset="0.7884" style="stop-color:#FFF168"/>
					<stop  offset="0.8824" style="stop-color:#FFEB3F"/>
					<stop  offset="0.9708" style="stop-color:#FFE511"/>
					<stop  offset="1" style="stop-color:#FFE300"/>
				</radialGradient>
				<path fill="url(#SVGID_7_)" d="M73.952,145.33c0,0,8.611,9.586,16.311,12.898c7.705,3.312,23.078,8.85,32.01-3.625
					c8.938-12.479,12.273-24.701,11.061-25.691c0,0-8.459,5.775-8.654,10.078c-0.205,4.301-8.06,8.99-10.08,7.434
					c-1.59-1.23,0.352-2.662-0.066-3.531c-0.657-1.365-2.663-2.744-2.663-2.744s0.854,2.111-1.438,4.566
					c-1.785,1.918-4.834,4.07-7.363,2.428c-3.511-2.279-10.146-2.055-10.146-2.055l3.445,4.305
					c-5.82-1.141-8.632,1.238-13.633-1.848C77.417,144.254,73.952,145.33,73.952,145.33z"/>
				
					<radialGradient id="SVGID_8_" cx="8319.0625" cy="-660.0381" r="6.7695" gradientTransform="matrix(-1 0 0 -1 8426.877 -530)" gradientUnits="userSpaceOnUse">
					<stop  offset="0" style="stop-color:#FFFFD7"/>
					<stop  offset="0.2089" style="stop-color:#FFFFD4"/>
					<stop  offset="0.3515" style="stop-color:#FFFDCB"/>
					<stop  offset="0.4743" style="stop-color:#FFFBBC"/>
					<stop  offset="0.5858" style="stop-color:#FFF9A6"/>
					<stop  offset="0.6899" style="stop-color:#FFF58A"/>
					<stop  offset="0.7884" style="stop-color:#FFF168"/>
					<stop  offset="0.8824" style="stop-color:#FFEB3F"/>
					<stop  offset="0.9708" style="stop-color:#FFE511"/>
					<stop  offset="1" style="stop-color:#FFE300"/>
				</radialGradient>
				<path fill="url(#SVGID_8_)" d="M109.659,138.92c0,0-4.458-0.664-5.321-3.502c-0.874-2.834,4.465-12.508,2.783-14.023
					c-1.676-1.512,5.83,4.48,3.967,9.615C109.766,134.637,107.85,138.289,109.659,138.92z"/>
				
					<radialGradient id="SVGID_9_" cx="8322.7422" cy="-610.5811" r="4.6132" gradientTransform="matrix(-1 0 0 -1 8426.877 -530)" gradientUnits="userSpaceOnUse">
					<stop  offset="0" style="stop-color:#FFFFD7"/>
					<stop  offset="0.2089" style="stop-color:#FFFFD4"/>
					<stop  offset="0.3515" style="stop-color:#FFFDCB"/>
					<stop  offset="0.4743" style="stop-color:#FFFBBC"/>
					<stop  offset="0.5858" style="stop-color:#FFF9A6"/>
					<stop  offset="0.6899" style="stop-color:#FFF58A"/>
					<stop  offset="0.7884" style="stop-color:#FFF168"/>
					<stop  offset="0.8824" style="stop-color:#FFEB3F"/>
					<stop  offset="0.9708" style="stop-color:#FFE511"/>
					<stop  offset="1" style="stop-color:#FFE300"/>
				</radialGradient>
				<path fill="url(#SVGID_9_)" d="M103.959,86.434c0,0-2.688-1.237-2.706-3.184c-0.017-1.948,5.153-7.062,4.376-8.326
					c-0.777-1.263,2.84,3.892,0.707,6.787C104.826,83.754,102.936,85.705,103.959,86.434z"/>
				
					<radialGradient id="SVGID_10_" cx="8340.8965" cy="-664.7188" r="5.8165" gradientTransform="matrix(-1 0 0 -1 8426.877 -530)" gradientUnits="userSpaceOnUse">
					<stop  offset="0" style="stop-color:#FFFFD7"/>
					<stop  offset="0.2089" style="stop-color:#FFFFD4"/>
					<stop  offset="0.3515" style="stop-color:#FFFDCB"/>
					<stop  offset="0.4743" style="stop-color:#FFFBBC"/>
					<stop  offset="0.5858" style="stop-color:#FFF9A6"/>
					<stop  offset="0.6899" style="stop-color:#FFF58A"/>
					<stop  offset="0.7884" style="stop-color:#FFF168"/>
					<stop  offset="0.8824" style="stop-color:#FFEB3F"/>
					<stop  offset="0.9708" style="stop-color:#FFE511"/>
					<stop  offset="1" style="stop-color:#FFE300"/>
				</radialGradient>
				<path fill="url(#SVGID_10_)" d="M89.927,141.936c0,0-3.902-3.278-1.452-6.713c3.258-4.563-4.598-7.721-4.598-7.721
					s1.825,1.6-0.784,8.002C81.702,138.904,80.028,141.363,89.927,141.936z"/>
				
					<radialGradient id="SVGID_11_" cx="8288.8145" cy="-648.7246" r="4.4849" gradientTransform="matrix(-1 0 0 -1 8426.877 -530)" gradientUnits="userSpaceOnUse">
					<stop  offset="0" style="stop-color:#FFFFD7"/>
					<stop  offset="0.2089" style="stop-color:#FFFFD4"/>
					<stop  offset="0.3515" style="stop-color:#FFFDCB"/>
					<stop  offset="0.4743" style="stop-color:#FFFBBC"/>
					<stop  offset="0.5858" style="stop-color:#FFF9A6"/>
					<stop  offset="0.6899" style="stop-color:#FFF58A"/>
					<stop  offset="0.7884" style="stop-color:#FFF168"/>
					<stop  offset="0.8824" style="stop-color:#FFEB3F"/>
					<stop  offset="0.9708" style="stop-color:#FFE511"/>
					<stop  offset="1" style="stop-color:#FFE300"/>
				</radialGradient>
				<path fill="url(#SVGID_11_)" d="M134.991,123.738c0,0,7.757-1.654,6.887-5.312c-0.864-3.664-2.368-4.715-2.368-4.715
					S131.688,120.906,134.991,123.738z"/>
				
					<radialGradient id="SVGID_12_" cx="8357.957" cy="-664.5977" r="4.4938" gradientTransform="matrix(-1 0 0 -1 8426.877 -530)" gradientUnits="userSpaceOnUse">
					<stop  offset="0" style="stop-color:#FFFFD7"/>
					<stop  offset="0.2089" style="stop-color:#FFFFD4"/>
					<stop  offset="0.3515" style="stop-color:#FFFDCB"/>
					<stop  offset="0.4743" style="stop-color:#FFFBBC"/>
					<stop  offset="0.5858" style="stop-color:#FFF9A6"/>
					<stop  offset="0.6899" style="stop-color:#FFF58A"/>
					<stop  offset="0.7884" style="stop-color:#FFF168"/>
					<stop  offset="0.8824" style="stop-color:#FFEB3F"/>
					<stop  offset="0.9708" style="stop-color:#FFE511"/>
					<stop  offset="1" style="stop-color:#FFE300"/>
				</radialGradient>
				<path fill="url(#SVGID_12_)" d="M70.858,140.539c0,0-6.328-3.467-3.439-11.883c0,0,3.086,2.805,3.574,5.045
					C71.474,135.938,70.858,140.539,70.858,140.539z"/>
			</g>
		</g>
	</g>
</g>
</svg>
