<?xml version="1.0" encoding="utf-8"?>
<!-- Generator: Adobe Illustrator 15.0.0, SVG Export Plug-In . SVG Version: 6.00 Build 0)  -->
<!DOCTYPE svg PUBLIC "-//W3C//DTD SVG 1.1//EN" "http://www.w3.org/Graphics/SVG/1.1/DTD/svg11.dtd">
<svg version="1.1" id="Layer_1" xmlns="http://www.w3.org/2000/svg" xmlns:xlink="http://www.w3.org/1999/xlink" x="0px" y="0px"
	 width="200px" height="200px" viewBox="0 0 200 200" enable-background="new 0 0 200 200" xml:space="preserve">
<g id="icon">
	<g id="Layer_2">
	</g>
	<g id="Layer_1_1_">
		<g>
			
				<radialGradient id="SVGID_1_" cx="305.1523" cy="1266.126" r="72.3336" fx="306.071" fy="1276.7703" gradientTransform="matrix(1 0 0 1 -200 -1182)" gradientUnits="userSpaceOnUse">
				<stop  offset="0.3804" style="stop-color:#FFE300"/>
				<stop  offset="1" style="stop-color:#F7941E"/>
			</radialGradient>
			<circle fill="url(#SVGID_1_)" cx="97.897" cy="100" r="65.796"/>
			<path fill="#603913" d="M62.389,101.036c0,0-7.955,2.674-10.293,7.655c-2.34,4.982,0.619-0.121,2.514-0.814
				s4.305-4.257,8.7-4.555c4.396-0.297,3.884,0.09,4.396-0.297C68.219,102.641,66.811,99.972,62.389,101.036z"/>
			
				<radialGradient id="SVGID_2_" cx="337.3184" cy="1255.5527" r="36.5668" gradientTransform="matrix(1 0 0 1 -200.0952 -1182.0371)" gradientUnits="userSpaceOnUse">
				<stop  offset="0.3804" style="stop-color:#FFE300"/>
				<stop  offset="1" style="stop-color:#F7941E"/>
			</radialGradient>
			<path fill="url(#SVGID_2_)" d="M147.611,77.965c0.925-2.41,4.26-3.342,4.26-3.342s6.404,1.673,7.758,8.062
				c1.117,5.284-1.98,15.082-1.98,15.082s2.656-14.17-7.607-12.345C147.752,85.829,146.412,81.084,147.611,77.965z"/>
			
				<radialGradient id="SVGID_3_" cx="720.1602" cy="1995.6748" r="46.9503" gradientTransform="matrix(0.9683 -0.2496 0.2496 0.9683 -1126.2916 -1676.4521)" gradientUnits="userSpaceOnUse">
				<stop  offset="0.3804" style="stop-color:#FFE300"/>
				<stop  offset="1" style="stop-color:#F7941E"/>
			</radialGradient>
			<path fill="url(#SVGID_3_)" d="M71.957,101.811c0,0-8.222-14.541-14.72-13.038c-6.498,1.502-14.956,8.426-15.102,18.868
				c-0.213,15.199,2.082,2.733,11.219-2.549c9.137-5.282,12.394-4.933,14.72-4.588C70.4,100.85,71.957,101.811,71.957,101.811z"/>
			<path fill="#603913" d="M128.021,61.878c0,0-6.973,7.003-6.498,10.51c0.474,3.503,6.016-1.961,13.185-4.054
				c11.106-3.242,17.285-1.839,13.622-5.036c-4.536-3.96-15.874,1.833-11.369-1.466S135.387,54.264,128.021,61.878z"/>
			<g>
				
					<radialGradient id="SVGID_4_" cx="-5021.8877" cy="4767.6055" r="32.0194" gradientTransform="matrix(-1.137 0.0861 -0.2672 -1.4688 -4327.2676 7553.3438)" gradientUnits="userSpaceOnUse">
					<stop  offset="0.3804" style="stop-color:#FFE300"/>
					<stop  offset="1" style="stop-color:#F7941E"/>
				</radialGradient>
				<path fill="url(#SVGID_4_)" d="M102.766,101.674c18.938-3.615,32.805-7.88,43.812-11.812c2.729-0.976,8.201,8.704,7.195,13.529
					c-8.932,24.111-28.094,42.961-54.105,40.521c-17.051-1.603-29.652-11.808-37.51-22.688c-2.863-3.97-3.624-13.125-1.053-13.318
					C68.537,107.336,79.225,106.166,102.766,101.674z"/>
				<path fill="#603913" d="M102.52,98.914c18.938-3.616,32.699-8.201,43.812-11.812c11.156-3.629,9.635,7.613,7.197,13.53
					c-8.932,24.108-28.094,42.959-54.107,40.515c-17.05-1.6-29.652-11.804-37.509-22.688c-2.863-3.965-5.29-12.651-1.052-13.312
					C68.173,103.995,78.979,103.406,102.52,98.914z"/>
				
					<radialGradient id="SVGID_5_" cx="-4950.165" cy="4756.043" r="30.397" gradientTransform="matrix(-1.1697 0.0969 -0.2612 -1.4708 -4438.4395 7590.1621)" gradientUnits="userSpaceOnUse">
					<stop  offset="0" style="stop-color:#830000"/>
					<stop  offset="1" style="stop-color:#531C00"/>
				</radialGradient>
				<path fill="url(#SVGID_5_)" d="M102.973,100.062c17.86-3.482,30.797-7.995,41.353-11.221c10.514-3.215,9.308,6.509,6.878,12.879
					c-8.612,22.224-26.812,39.699-51.289,37.677c-16.041-1.326-27.82-10.594-35.127-20.525c-2.662-3.621-5.861-12.16-1.093-12.737
					C70.646,105.291,80.77,104.387,102.973,100.062z"/>
			</g>
			<path fill="#603913" d="M72.899,65.726c0,0,15.976,2.479,20.626,6.76c4.65,4.283,2.908,5.883-3.76,4.89
				c-19.386-2.886-30.834,6.246-28.135-0.292c2.699-6.537,17.137-4.232,10.004-6.395C64.5,68.525,69.07,65.023,72.899,65.726z"/>
			<path fill="#603913" d="M155.968,88.662c0,0,1.364-3.59-2.418-4.535c-3.78-0.948-3.079,1.107-1.173,1.244
				C154.286,85.506,155.968,88.662,155.968,88.662z"/>
			<g>
				<g>
					<path fill="none" d="M155.18,70.559c-0.205,2.267-2.824,9.488,0.723,15.362c2.885,4.766,9.076,6.294,13.846,3.416
						c4.77-2.881,6.295-9.077,3.414-13.843c-1.291-2.136-2.656-3.611-4.719-5.199c-6.195-4.78-13.799-5.948-13.799-5.948
						S155.555,66.43,155.18,70.559z"/>
				</g>
				<path opacity="0.47" fill="#354C77" enable-background="new    " d="M155.021,72.174c-0.207,2.268-2.828,9.486,0.723,15.361
					c2.879,4.766,9.076,6.295,13.841,3.414c4.765-2.878,6.294-9.075,3.414-13.84c-1.292-2.139-2.658-3.611-4.716-5.199
					c-6.197-4.778-13.797-5.948-13.797-5.948S155.396,68.045,155.021,72.174z"/>
				
					<radialGradient id="SVGID_6_" cx="2578.333" cy="2782.2773" r="12.8142" fx="2580.822" fy="2787.9839" gradientTransform="matrix(-0.7278 0.6859 0.9491 1.0071 -604.7698 -4495.4106)" gradientUnits="userSpaceOnUse">
					<stop  offset="0.3252" style="stop-color:#03B1FF"/>
					<stop  offset="0.4464" style="stop-color:#03A8FF"/>
					<stop  offset="0.6464" style="stop-color:#038FFF"/>
					<stop  offset="0.7055" style="stop-color:#0386FF"/>
					<stop  offset="0.7975" style="stop-color:#03B1FF"/>
					<stop  offset="1" style="stop-color:#08FFFF"/>
				</radialGradient>
				<path fill="url(#SVGID_6_)" d="M155.18,70.559c-0.205,2.267-2.824,9.488,0.723,15.362c2.885,4.766,9.076,6.294,13.846,3.416
					c4.77-2.881,6.295-9.077,3.414-13.843c-1.291-2.136-2.656-3.611-4.719-5.199c-6.195-4.78-13.799-5.948-13.799-5.948
					S155.555,66.43,155.18,70.559z"/>
				
					<radialGradient id="SVGID_7_" cx="1734.9385" cy="2617.4395" r="5.6912" gradientTransform="matrix(0.9753 -0.2209 0.404 1.7834 -2590.6814 -4205.4189)" gradientUnits="userSpaceOnUse">
					<stop  offset="0.5092" style="stop-color:#8AFFFF"/>
					<stop  offset="1" style="stop-color:#08DEFF;stop-opacity:0"/>
				</radialGradient>
				<path fill="url(#SVGID_7_)" d="M162.744,79.827c1.611,3.766,1.095,7.738-0.852,8.365c-2.021,0.653-5.418-1.471-6.678-5.368
					c-0.562-1.748-0.724-3.217-0.609-5.128c0.334-5.747,3.588-10.347,3.588-10.347S159.686,72.687,162.744,79.827z"/>
			</g>
			<g>
				<g>
					<path fill="none" d="M47.553,78.39c-2.175,1.144-9.141,4.772-10.877,11.978c-1.409,5.847,2.187,11.726,8.031,13.136
						c5.845,1.409,11.725-2.188,13.135-8.032c0.631-2.622,0.702-4.791,0.328-7.575c-1.128-8.377-1.432-12.372-1.432-12.372
						S51.761,76.179,47.553,78.39z"/>
				</g>
				<path opacity="0.47" fill="#354C77" enable-background="new    " d="M46.439,79.145c-1.881,1.584-9.376,5.134-11.114,12.342
					c-1.409,5.846,2.188,11.726,8.033,13.134c5.845,1.409,11.725-2.188,13.133-8.031c0.633-2.623,0.702-4.791,0.329-7.574
					c-1.128-8.375-1.961-13.014-1.961-13.014C58.266,75.545,47.065,78.618,46.439,79.145z"/>
				
					<radialGradient id="SVGID_8_" cx="4104.2764" cy="500.8535" r="13.3186" fx="4106.8633" fy="506.7846" gradientTransform="matrix(-0.9997 -0.0243 -0.0336 1.3835 4167.604 -507.6624)" gradientUnits="userSpaceOnUse">
					<stop  offset="0.3252" style="stop-color:#03B1FF"/>
					<stop  offset="0.4464" style="stop-color:#03A8FF"/>
					<stop  offset="0.6464" style="stop-color:#038FFF"/>
					<stop  offset="0.7055" style="stop-color:#0386FF"/>
					<stop  offset="0.7975" style="stop-color:#03B1FF"/>
					<stop  offset="1" style="stop-color:#08FFFF"/>
				</radialGradient>
				<path fill="url(#SVGID_8_)" d="M46.89,78.752c-1.943,1.013-8.478,4.41-10.214,11.615c-1.409,5.847,2.187,11.726,8.031,13.136
					c5.845,1.409,11.725-2.188,13.135-8.032c0.631-2.622,0.702-4.791,0.328-7.575c-1.128-8.377-1.432-12.372-1.432-12.372
					S50.86,76.681,46.89,78.752z"/>
				
					<radialGradient id="SVGID_9_" cx="-482.3667" cy="755.8887" r="6.1451" gradientTransform="matrix(0.8487 0.5289 -0.9672 1.5519 1184.5961 -830.3912)" gradientUnits="userSpaceOnUse">
					<stop  offset="0.5092" style="stop-color:#8AFFFF"/>
					<stop  offset="1" style="stop-color:#08DEFF;stop-opacity:0"/>
				</radialGradient>
				<path fill="url(#SVGID_9_)" d="M46.555,90.885c-1.622,4.115-5.038,6.773-7.007,5.776c-2.047-1.035-3.041-5.244-1.046-9.19
					c0.895-1.772,1.888-3.019,3.424-4.402c4.621-4.157,10.613-5.218,10.613-5.218S49.63,83.079,46.555,90.885z"/>
			</g>
			<g>
				<g>
					<path fill="none" d="M41.266,132.287c-1.414,0.609-5.941,2.544-7.371,6.963c-1.162,3.586,0.803,7.434,4.389,8.594
						c3.584,1.162,7.431-0.804,8.593-4.39c0.52-1.606,0.67-2.96,0.568-4.718c-0.303-5.287-0.3-7.801-0.3-7.801
						S44.002,131.107,41.266,132.287z"/>
				</g>
				
					<radialGradient id="SVGID_10_" cx="4329.3682" cy="415.8564" r="8.3473" fx="4330.9897" fy="419.5738" gradientTransform="matrix(-0.9949 -0.1007 -0.1394 1.3768 4406.3291 0.3186)" gradientUnits="userSpaceOnUse">
					<stop  offset="0.3252" style="stop-color:#03B1FF"/>
					<stop  offset="0.4464" style="stop-color:#03A8FF"/>
					<stop  offset="0.6464" style="stop-color:#038FFF"/>
					<stop  offset="0.7055" style="stop-color:#0386FF"/>
					<stop  offset="0.7975" style="stop-color:#03B1FF"/>
					<stop  offset="1" style="stop-color:#08FFFF"/>
				</radialGradient>
				<path fill="url(#SVGID_10_)" d="M40.834,132.48c-1.263,0.539-5.51,2.351-6.94,6.77c-1.162,3.586,0.803,7.434,4.389,8.594
					c3.584,1.162,7.431-0.804,8.593-4.39c0.52-1.606,0.67-2.96,0.568-4.718c-0.303-5.287-0.3-7.801-0.3-7.801
					S43.416,131.379,40.834,132.48z"/>
				
					<radialGradient id="SVGID_11_" cx="-753.3521" cy="735.3115" r="3.8509" gradientTransform="matrix(0.8058 0.5924 -1.0831 1.4734 1442.1409 -499.3638)" gradientUnits="userSpaceOnUse">
					<stop  offset="0.5092" style="stop-color:#8AFFFF"/>
					<stop  offset="1" style="stop-color:#08DEFF;stop-opacity:0"/>
				</radialGradient>
				<path fill="url(#SVGID_11_)" d="M40.043,140.047c-1.211,2.493-3.473,3.992-4.656,3.273c-1.229-0.744-1.648-3.424-0.213-5.793
					c0.644-1.064,1.324-1.797,2.352-2.588c3.087-2.377,6.882-2.75,6.882-2.75S42.339,135.316,40.043,140.047z"/>
			</g>
			<path d="M104.926,138.736c-9.562,0.291-13.681-1.58-19.131-3.526c-1.209-0.433-5.173-2.196-5.115-4.743
				c4.965-16.285,16.802-30.322,29.791-25.383c8.51,3.236,12.766,14.93,16.483,23.736c1.354,3.209-0.367,3.457-1.867,4.332
				C121.829,135.055,116.814,138.377,104.926,138.736z"/>
			
				<radialGradient id="SVGID_12_" cx="304.1621" cy="1286.0146" r="20.3443" gradientTransform="matrix(1 0 0 1 -200 -1182)" gradientUnits="userSpaceOnUse">
				<stop  offset="0" style="stop-color:#830000"/>
				<stop  offset="1" style="stop-color:#531C00"/>
			</radialGradient>
			<path fill="url(#SVGID_12_)" d="M95.516,106.145c0,0,5.257-0.759,5.057,2.362c-0.201,3.123-3.209,7.558,0.454,9.193
				c2.281,1.019,11.016-0.673,7.312-6.031c-3.588-5.194-3.896-6.873,0-8.3C112.241,101.941,100.63,99.682,95.516,106.145z"/>
			
				<radialGradient id="SVGID_13_" cx="202.7588" cy="2362.4307" r="37.123" gradientTransform="matrix(0.9962 -0.0877 0.0489 0.5556 -207.9134 -1172.6736)" gradientUnits="userSpaceOnUse">
				<stop  offset="0.362" style="stop-color:#FF0000"/>
				<stop  offset="0.4176" style="stop-color:#F60000"/>
				<stop  offset="0.5079" style="stop-color:#DE0000"/>
				<stop  offset="0.6215" style="stop-color:#B70000"/>
				<stop  offset="0.7485" style="stop-color:#830000"/>
			</radialGradient>
			<path fill="url(#SVGID_13_)" d="M79.359,132.543c0,0,4.076-0.736,16.303-4.697c24.691-8,32.146-0.318,35.234,2.278
				c0,0-8.688,7.655-25.312,8.972C100.093,139.53,91.379,139.029,79.359,132.543z"/>
			<g>
				<g>
					<path fill="none" d="M161.73,120.027c-0.115,1.24-1.562,5.188,0.375,8.404c1.566,2.608,4.957,3.452,7.564,1.889
						c2.607-1.569,3.454-4.957,1.889-7.568c-0.703-1.17-1.449-1.979-2.572-2.85c-3.385-2.625-6.902-2.944-6.902-2.944
						S161.941,117.771,161.73,120.027z"/>
				</g>
				
					<radialGradient id="SVGID_14_" cx="2621.1045" cy="2731.7734" r="6.8017" fx="2622.4255" fy="2734.8025" gradientTransform="matrix(-0.7294 0.6842 0.9468 1.0093 -510.349 -4427.6704)" gradientUnits="userSpaceOnUse">
					<stop  offset="0.3252" style="stop-color:#03B1FF"/>
					<stop  offset="0.4464" style="stop-color:#03A8FF"/>
					<stop  offset="0.6464" style="stop-color:#038FFF"/>
					<stop  offset="0.7055" style="stop-color:#0386FF"/>
					<stop  offset="0.7975" style="stop-color:#03B1FF"/>
					<stop  offset="1" style="stop-color:#08FFFF"/>
				</radialGradient>
				<path fill="url(#SVGID_14_)" d="M161.73,120.027c-0.115,1.24-1.562,5.188,0.375,8.404c1.566,2.608,4.957,3.452,7.564,1.889
					c2.607-1.569,3.454-4.957,1.889-7.568c-0.703-1.17-1.449-1.979-2.572-2.85c-3.385-2.625-6.902-2.944-6.902-2.944
					S161.941,117.771,161.73,120.027z"/>
				
					<radialGradient id="SVGID_15_" cx="1682.1592" cy="2576.3301" r="3.1135" gradientTransform="matrix(0.9758 -0.2187 0.3999 1.7843 -2507.9866 -4104.3501)" gradientUnits="userSpaceOnUse">
					<stop  offset="0.5092" style="stop-color:#8AFFFF"/>
					<stop  offset="1" style="stop-color:#08DEFF;stop-opacity:0"/>
				</radialGradient>
				<path fill="url(#SVGID_15_)" d="M165.855,125.107c0.877,2.062,0.59,4.233-0.479,4.576c-1.104,0.354-2.963-0.812-3.646-2.945
					c-0.308-0.956-0.394-1.762-0.328-2.805c0.188-3.146,1.978-5.656,1.978-5.656S164.191,121.198,165.855,125.107z"/>
			</g>
		</g>
	</g>
</g>
</svg>
