<?xml version="1.0" encoding="utf-8"?>
<!-- Generator: Adobe Illustrator 15.0.0, SVG Export Plug-In . SVG Version: 6.00 Build 0)  -->
<!DOCTYPE svg PUBLIC "-//W3C//DTD SVG 1.1//EN" "http://www.w3.org/Graphics/SVG/1.1/DTD/svg11.dtd">
<svg version="1.1" id="Layer_1" xmlns="http://www.w3.org/2000/svg" xmlns:xlink="http://www.w3.org/1999/xlink" x="0px" y="0px"
	 width="200px" height="200px" viewBox="0 0 200 200" enable-background="new 0 0 200 200" xml:space="preserve">
<g id="icon">
	<g id="Layer_2">
	</g>
	<g id="Layer_1_1_">
		<g>
			
				<radialGradient id="SVGID_1_" cx="304.7529" cy="1270.126" r="72.3341" fx="307.2224" fy="1285.8129" gradientTransform="matrix(1 0 0 1 -200 -1182)" gradientUnits="userSpaceOnUse">
				<stop  offset="0.3804" style="stop-color:#FFE300"/>
				<stop  offset="1" style="stop-color:#F7941E"/>
			</radialGradient>
			<circle fill="url(#SVGID_1_)" cx="100" cy="100" r="65.796"/>
			<path fill="#603913" d="M106.268,93.299c-0.498-8.396-6-14.758-12.292-14.211c-6.291,0.548-10.99,7.798-10.493,16.194
				c0.496,8.397,6,14.759,12.291,14.212C102.064,108.945,106.764,101.695,106.268,93.299z M91.671,94.282
				c-1.915,0.167-3.59-1.77-3.741-4.325c-0.15-2.554,1.279-4.76,3.192-4.927c1.915-0.167,3.59,1.77,3.741,4.323
				C95.014,91.909,93.585,94.115,91.671,94.282z"/>
			<path fill="#603913" d="M148.115,92.058c0.017-7.218-4.356-13.084-9.766-13.101c-5.41-0.018-9.811,5.82-9.822,13.036
				c-0.021,7.221,4.354,13.086,9.765,13.104C143.701,105.113,148.1,99.277,148.115,92.058z M135.582,91.771
				c-1.646-0.006-2.977-1.79-2.973-3.987c0.007-2.195,1.345-3.972,2.988-3.967c1.646,0.006,2.978,1.79,2.973,3.987
				C138.564,90.001,137.227,91.776,135.582,91.771z"/>
			
				<radialGradient id="SVGID_2_" cx="328.8037" cy="1296.9961" r="30.3279" gradientTransform="matrix(1 0 0 1 -200 -1182)" gradientUnits="userSpaceOnUse">
				<stop  offset="0.3804" style="stop-color:#FFE300"/>
				<stop  offset="1" style="stop-color:#F7941E"/>
			</radialGradient>
			<path fill="url(#SVGID_2_)" d="M151.505,131.045c2.544-0.441,5.054,1.945,5.054,1.945s1.846,6.357-2.947,10.793
				c-3.965,3.668-13.967,6.027-13.967,6.027s13.528-4.979,6.701-12.86C144.824,135.195,148.212,131.613,151.505,131.045z"/>
			<path fill="#603913" d="M119.725,127.793c-15.604-0.254-34.001,6.52-43.75,17.562c-1.704,1.933-3.566,0.504-4.448-0.194
				c11.555-15.737,31.157-27.421,53.34-24.457c14.54,1.94,23.861,9.437,28.961,17.146c1.857,2.812-0.328,4.129-1.764,2.383
				C146.198,133.089,135.747,128.053,119.725,127.793z"/>
			
				<radialGradient id="SVGID_3_" cx="314.1699" cy="1319.0098" r="27.9787" gradientTransform="matrix(1 0 0 1 -200 -1182)" gradientUnits="userSpaceOnUse">
				<stop  offset="0.3804" style="stop-color:#FFE300"/>
				<stop  offset="1" style="stop-color:#F7941E"/>
			</radialGradient>
			<path fill="url(#SVGID_3_)" d="M119.725,127.793c-15.604-0.254-34.001,6.52-43.75,17.562c-1.704,1.933,4.88,0.176,3.998-0.522
				c13.658-8.833,22.583-12.333,44.304-11.548c14.66,0.529,21.195,4.881,24.998,7.115c2.904,1.707,4.225,1.578,2.789-0.168
				C146.198,133.089,135.747,128.053,119.725,127.793z"/>
			<path fill="#603913" d="M59.14,142.667c0,0,4.006,9.433,11.462,12.669c7.75,3.365,11.198,2.33,9.701,2.664
				C78.806,158.334,60.64,160,59.14,142.667z"/>
			<path fill="#603913" d="M144.621,148.352c0,0-5.742,1.438-6.195,1.461c-0.453,0.021,3.828,0.621,3.828,0.621L144.621,148.352z"/>
			<g>
				<g>
					<path fill="none" d="M148.645,100.695c-1.332,2.063-7.453,7.666-6.998,15.062c0.371,6.003,5.535,10.566,11.537,10.197
						c6-0.371,10.564-5.535,10.194-11.537c-0.166-2.688-0.735-4.786-1.911-7.336c-3.537-7.676-10.226-12.598-10.226-12.598
						S151.07,96.933,148.645,100.695z"/>
				</g>
				<path opacity="0.47" fill="#354C77" enable-background="new    " d="M147.684,102.163c-1.332,2.065-7.455,7.663-6.998,15.062
					c0.371,6.002,5.535,10.566,11.537,10.195c6-0.369,10.564-5.534,10.194-11.535c-0.166-2.693-0.735-4.787-1.911-7.336
					c-3.538-7.676-10.227-12.599-10.227-12.599S150.107,98.398,147.684,102.163z"/>
				
					<radialGradient id="SVGID_4_" cx="3256.0205" cy="1246.3262" r="13.8502" fx="3258.7104" fy="1252.4939" gradientTransform="matrix(-0.9627 0.2704 0.3742 1.3323 2818.9087 -2433.9158)" gradientUnits="userSpaceOnUse">
					<stop  offset="0.3252" style="stop-color:#03B1FF"/>
					<stop  offset="0.4464" style="stop-color:#03A8FF"/>
					<stop  offset="0.6464" style="stop-color:#038FFF"/>
					<stop  offset="0.7055" style="stop-color:#0386FF"/>
					<stop  offset="0.7975" style="stop-color:#03B1FF"/>
					<stop  offset="1" style="stop-color:#08FFFF"/>
				</radialGradient>
				<path fill="url(#SVGID_4_)" d="M148.645,100.695c-1.332,2.063-7.453,7.666-6.998,15.062c0.371,6.003,5.535,10.566,11.537,10.197
					c6-0.371,10.564-5.535,10.194-11.537c-0.166-2.688-0.735-4.786-1.911-7.336c-3.537-7.676-10.226-12.598-10.226-12.598
					S151.07,96.933,148.645,100.695z"/>
				
					<radialGradient id="SVGID_5_" cx="624.8008" cy="1259.6162" r="6.1431" gradientTransform="matrix(0.9667 0.2563 -0.4686 1.7676 134.1751 -2275.7576)" gradientUnits="userSpaceOnUse">
					<stop  offset="0.5092" style="stop-color:#8AFFFF"/>
					<stop  offset="1" style="stop-color:#08DEFF;stop-opacity:0"/>
				</radialGradient>
				<path fill="url(#SVGID_5_)" d="M151.243,113.352c-0.343,4.41-2.826,7.955-5.002,7.58c-2.263-0.388-4.447-4.119-3.7-8.478
					c0.335-1.956,0.918-3.44,1.979-5.214c3.197-5.333,8.613-8.106,8.613-8.106S151.891,104.986,151.243,113.352z"/>
			</g>
			<path fill="#603913" d="M88.495,69.283c-5.929,2.125-11.684,2.743-15.893,1.987c3.406,2.698,10.063,3.126,16.854,0.689
				c6.792-2.437,11.66-6.997,12.573-11.246C99.261,63.973,94.427,67.154,88.495,69.283z"/>
			<path fill="#603913" d="M140.18,67.239c-4.793-1.829-8.527-4.712-10.494-7.743c0.271,4.051,3.869,8.256,9.356,10.351
				c5.487,2.095,11.205,1.444,14.424-1.274C149.794,69.452,144.973,69.067,140.18,67.239z"/>
		</g>
	</g>
</g>
</svg>
