<?xml version="1.0" encoding="utf-8"?>
<!-- Generator: Adobe Illustrator 15.0.0, SVG Export Plug-In . SVG Version: 6.00 Build 0)  -->
<!DOCTYPE svg PUBLIC "-//W3C//DTD SVG 1.1//EN" "http://www.w3.org/Graphics/SVG/1.1/DTD/svg11.dtd">
<svg version="1.1" id="Layer_1" xmlns="http://www.w3.org/2000/svg" xmlns:xlink="http://www.w3.org/1999/xlink" x="0px" y="0px"
	 width="200px" height="200px" viewBox="0 0 200 200" enable-background="new 0 0 200 200" xml:space="preserve">
<g id="icon">
	<g id="Layer_2">
	</g>
	<g id="Layer_1_1_">
		<g>
			
				<radialGradient id="SVGID_1_" cx="299.4062" cy="1272.126" r="72.3337" fx="300.459" fy="1281.7814" gradientTransform="matrix(1 0 0 1 -200 -1182)" gradientUnits="userSpaceOnUse">
				<stop  offset="0.3804" style="stop-color:#FFE300"/>
				<stop  offset="1" style="stop-color:#F7941E"/>
			</radialGradient>
			<circle fill="url(#SVGID_1_)" cx="95.151" cy="100" r="65.796"/>
			<path fill="#603913" d="M101.418,93.299c-0.497-8.396-6-14.758-12.292-14.211c-6.291,0.548-10.99,7.798-10.493,16.194
				c0.496,8.397,6,14.759,12.291,14.212C97.216,108.945,101.914,101.695,101.418,93.299z M86.822,94.282
				c-1.915,0.167-3.59-1.77-3.741-4.325c-0.15-2.554,1.279-4.76,3.192-4.927c1.915-0.167,3.59,1.77,3.74,4.323
				C90.165,91.909,88.736,94.115,86.822,94.282z"/>
			<path fill="#603913" d="M88.782,68.265c3.597,0,6.81,1.362,8.925,3.495c-1.309-3.691-4.805-6.34-8.925-6.34
				c-4.12,0-7.616,2.648-8.925,6.34C81.973,69.627,85.186,68.265,88.782,68.265z"/>
			<path fill="#603913" d="M132.521,67.981c3.598-0.237,6.809,0.913,8.926,2.907c-1.312-3.605-4.807-6.023-8.926-5.752
				c-4.119,0.271-7.615,3.15-8.926,6.928C125.713,69.793,128.924,68.219,132.521,67.981z"/>
			<path fill="#603913" d="M129.441,85.302c0,0-7.205,6.76-6.854,10.28c0.353,3.518,6.078-1.753,13.315-3.599
				c11.211-2.859,17.336-1.245,13.785-4.566c-4.397-4.113-15.931,1.288-11.312-1.854C142.994,82.42,137.064,77.944,129.441,85.302z"
				/>
			<path fill="#603913" d="M128.049,107.966c0,0,15.422,6.25,5.932,11.054c-3.889,1.973-7.393,1.764-7.393,1.764
				s6.887-0.896,8.707,4.578c1.82,5.479-0.318,8.312-5.938,11.283c0,0,12.05-1.586,14.729-10.679c1.442-4.891-4.291-6.25-4.291-6.25
				S155.049,112.716,128.049,107.966z"/>
			<g>
				<g>
					
						<radialGradient id="SVGID_2_" cx="-2905.2183" cy="-1457.6484" r="25.8038" gradientTransform="matrix(-0.8301 0.6514 -0.7276 -0.7347 -3305.0906 927.1171)" gradientUnits="userSpaceOnUse">
						<stop  offset="0" style="stop-color:#FF0000"/>
						<stop  offset="0.1377" style="stop-color:#F50000"/>
						<stop  offset="0.3732" style="stop-color:#DA0000"/>
						<stop  offset="0.678" style="stop-color:#AD0000"/>
						<stop  offset="1" style="stop-color:#770000"/>
					</radialGradient>
					<path fill="url(#SVGID_2_)" d="M167.71,117.775c1.009-0.943,1.833-2.17,2.354-3.604c1.582-4.333-0.188-8.94-3.953-10.307
						c-1.867-0.677-3.873-0.425-5.614,0.528c0,0-1.601-3.179-4.81-4.295c-3.787-1.321-8.104,1.047-9.684,5.375
						c-0.521,1.422-0.677,2.871-0.521,4.229c0.992,8.747,7.105,15.041,7.105,15.041S161.252,123.824,167.71,117.775z"/>
				</g>
				<g opacity="0.3">
					<g>
						<path fill="#8A0036" d="M167.71,117.775c0.351-0.327,0.675-0.69,0.978-1.084c-6.482,6.543-14.887,5.937-14.887,5.937
							s-5.379-4.926-6.822-12.446c-1.23-6.432,3.573-11.605,9.242-9.854c-0.174-0.082-0.35-0.157-0.533-0.225
							c-3.766-1.361-8.1,1.049-9.68,5.377c-0.52,1.422-0.677,2.871-0.521,4.229c0.992,8.747,7.107,15.041,7.107,15.041
							S161.252,123.824,167.71,117.775z"/>
					</g>
				</g>
				<g opacity="0.87">
					
						<radialGradient id="SVGID_3_" cx="-1605.9019" cy="-65.0117" r="22.5019" gradientTransform="matrix(0.5294 0.7737 -0.7202 0.4149 964.9172 1379.2773)" gradientUnits="userSpaceOnUse">
						<stop  offset="0" style="stop-color:#FFFFFF;stop-opacity:0"/>
						<stop  offset="0.1274" style="stop-color:#FDFCFD;stop-opacity:0.061"/>
						<stop  offset="0.2308" style="stop-color:#F6F2F5;stop-opacity:0.1105"/>
						<stop  offset="0.3258" style="stop-color:#EAE1E8;stop-opacity:0.1559"/>
						<stop  offset="0.4158" style="stop-color:#D9C9D6;stop-opacity:0.199"/>
						<stop  offset="0.5022" style="stop-color:#C3AABE;stop-opacity:0.2404"/>
						<stop  offset="0.586" style="stop-color:#A884A1;stop-opacity:0.2805"/>
						<stop  offset="0.6677" style="stop-color:#89567F;stop-opacity:0.3196"/>
						<stop  offset="0.7457" style="stop-color:#652358;stop-opacity:0.3569"/>
						<stop  offset="0.7939" style="stop-color:#4C003D;stop-opacity:0.38"/>
						<stop  offset="1" style="stop-color:#FFFFFF;stop-opacity:0"/>
					</radialGradient>
					<path fill="url(#SVGID_3_)" d="M167.71,117.775c1.009-0.943,1.833-2.17,2.354-3.604c1.582-4.333-0.188-8.94-3.953-10.307
						c-2.092-0.759-4.355-0.353-6.229,0.901c-0.631-2.151-2.104-3.916-4.194-4.668c-3.767-1.361-8.101,1.047-9.681,5.375
						c-0.521,1.422-0.677,2.871-0.521,4.229c0.992,8.747,7.104,15.041,7.104,15.041S161.252,123.824,167.71,117.775z"/>
				</g>
				
					<radialGradient id="SVGID_4_" cx="-1604.3906" cy="-70.5728" r="11.8765" gradientTransform="matrix(0.5294 0.7737 -0.9271 0.5341 954.1912 1385.4564)" gradientUnits="userSpaceOnUse">
					<stop  offset="0" style="stop-color:#FF72A9"/>
					<stop  offset="1" style="stop-color:#FF72A9;stop-opacity:0"/>
				</radialGradient>
				<path fill="url(#SVGID_4_)" d="M167.588,114.611c-2.795,1.606-6.629,0.625-8.562-2.201c-1.932-2.823-1.229-6.42,1.563-8.028
					s6.628-0.625,8.56,2.201C171.082,109.406,170.382,113.001,167.588,114.611z"/>
				
					<radialGradient id="SVGID_5_" cx="-1617.2075" cy="-66.667" r="14.0624" gradientTransform="matrix(0.5294 0.7737 -0.9271 0.5341 954.1912 1385.4564)" gradientUnits="userSpaceOnUse">
					<stop  offset="0" style="stop-color:#FF72A9"/>
					<stop  offset="1" style="stop-color:#FF72A9;stop-opacity:0"/>
				</radialGradient>
				<path fill="url(#SVGID_5_)" d="M158.029,111.407c-2.793,1.606-6.627,0.623-8.562-2.201c-1.932-2.824-1.23-6.418,1.562-8.029
					c2.796-1.611,6.629-0.625,8.561,2.196C161.523,106.2,160.824,109.796,158.029,111.407z"/>
				
					<radialGradient id="SVGID_6_" cx="-1603.8877" cy="-70.0078" r="11.872" gradientTransform="matrix(0.5294 0.7737 -0.9271 0.5341 954.1912 1385.4564)" gradientUnits="userSpaceOnUse">
					<stop  offset="0" style="stop-color:#FFC29A"/>
					<stop  offset="1" style="stop-color:#FF723A;stop-opacity:0"/>
				</radialGradient>
				<path fill="url(#SVGID_6_)" d="M167.324,115.303c-2.795,1.608-6.627,0.624-8.561-2.199c-1.937-2.821-1.234-6.42,1.562-8.026
					c2.797-1.613,6.629-0.626,8.562,2.196C170.818,110.098,170.119,113.693,167.324,115.303z"/>
				
					<radialGradient id="SVGID_7_" cx="-1616.71" cy="-66.0996" r="14.0545" gradientTransform="matrix(0.5294 0.7737 -0.9271 0.5341 954.1912 1385.4564)" gradientUnits="userSpaceOnUse">
					<stop  offset="0" style="stop-color:#FFC29A"/>
					<stop  offset="1" style="stop-color:#FF723A;stop-opacity:0"/>
				</radialGradient>
				<path fill="url(#SVGID_7_)" d="M157.768,112.094c-2.795,1.612-6.627,0.626-8.561-2.197c-1.932-2.821-1.232-6.42,1.562-8.025
					c2.795-1.61,6.627-0.627,8.561,2.197C161.262,106.891,160.562,110.484,157.768,112.094z"/>
			</g>
		</g>
	</g>
</g>
</svg>
