<?xml version="1.0" encoding="utf-8"?>
<!-- Generator: Adobe Illustrator 15.0.0, SVG Export Plug-In . SVG Version: 6.00 Build 0)  -->
<!DOCTYPE svg PUBLIC "-//W3C//DTD SVG 1.1//EN" "http://www.w3.org/Graphics/SVG/1.1/DTD/svg11.dtd">
<svg version="1.1" id="Layer_1" xmlns="http://www.w3.org/2000/svg" xmlns:xlink="http://www.w3.org/1999/xlink" x="0px" y="0px"
	 width="200px" height="200px" viewBox="0 0 200 200" enable-background="new 0 0 200 200" xml:space="preserve">
<g id="icon">
	<g id="Layer_2">
	</g>
	<g id="Layer_1_1_">
		<g>
			
				<radialGradient id="SVGID_1_" cx="305.2529" cy="1282.7686" r="72.3335" fx="305.5756" fy="1286.556" gradientTransform="matrix(1 0 0 1 -200 -1182)" gradientUnits="userSpaceOnUse">
				<stop  offset="0.3804" style="stop-color:#FFE300"/>
				<stop  offset="1" style="stop-color:#F7941E"/>
			</radialGradient>
			<circle fill="url(#SVGID_1_)" cx="100" cy="114.644" r="65.796"/>
			<path fill="#603913" d="M120.355,145.777c-15.479,2.019-34.522-2.629-45.458-12.502c-1.913-1.729-3.601-0.096-4.397,0.697
				c13.26,14.326,34.062,23.721,55.769,18.268c19.41-4.877,28.002-18.924,29.812-28.965c-0.604,0.977-1.795-0.564-2.158,0.543
				C150.499,134.247,140.134,143.201,120.355,145.777z"/>
			
				<radialGradient id="SVGID_2_" cx="717.8145" cy="1588.5781" r="36.5488" gradientTransform="matrix(0.9285 -0.0642 0.069 0.9976 -661.8173 -1395.063)" gradientUnits="userSpaceOnUse">
				<stop  offset="0.3804" style="stop-color:#FFE300"/>
				<stop  offset="1" style="stop-color:#F7941E"/>
			</radialGradient>
			<path fill="url(#SVGID_2_)" d="M125.803,159.746c-22.244,4.376-39.333-2.77-57.19-24.669c-1.645-2.019,2.688-1.897,1.892-1.104
				c13.26,14.329,34.058,23.721,55.765,18.271c19.41-4.877,28.002-18.927,29.814-28.968c-0.602,0.979,2.35,0.574,2.314,1.752
				C158.085,135.645,146.102,155.752,125.803,159.746z"/>
			<path fill="#603913" d="M78.126,130.977c0,0-8.391,0.084-12.156,4.104c-3.766,4.02,0.627,0.072,2.643,0.001
				c2.018-0.074,5.41-2.722,9.684-1.646c4.272,1.075,3.665,1.285,4.272,1.075C83.176,134.303,82.659,131.33,78.126,130.977z"/>
			<path fill="#603913" d="M159.111,125.354c0,0-0.897-3.729-4.555-2.381c-3.658,1.354-1.918,2.652-0.27,1.689
				C155.941,123.695,159.111,125.354,159.111,125.354z"/>
			
				<radialGradient id="SVGID_3_" cx="336.2549" cy="1289.0361" r="36.5678" gradientTransform="matrix(1 0 0 1 -200.0952 -1182.0371)" gradientUnits="userSpaceOnUse">
				<stop  offset="0.3804" style="stop-color:#FFE300"/>
				<stop  offset="1" style="stop-color:#F7941E"/>
			</radialGradient>
			<path fill="url(#SVGID_3_)" d="M151.883,114.447c0.926-2.41,4.26-3.342,4.26-3.342s6.405,1.672,7.758,8.062
				c1.119,5.284-1.979,15.082-1.979,15.082s2.657-14.17-7.609-12.345C152.023,122.312,150.686,117.566,151.883,114.447z"/>
			
				<radialGradient id="SVGID_4_" cx="271.8477" cy="1280.4639" r="46.9549" gradientTransform="matrix(1 0 0 1 -200 -1182)" gradientUnits="userSpaceOnUse">
				<stop  offset="0.3804" style="stop-color:#FFE300"/>
				<stop  offset="1" style="stop-color:#F7941E"/>
			</radialGradient>
			<path fill="url(#SVGID_4_)" d="M84.07,133.044c0,0-4.333-16.132-11-16.299s-16.586,4.427-19.333,14.501
				c-4,14.666,1.333,3.167,11.5,0.333c10.166-2.834,13.232-1.683,15.398-0.769C82.803,131.725,84.07,133.044,84.07,133.044z"/>
			<g>
				<path fill="#603913" d="M96.526,94.81c0,0-0.224-0.015-0.62-0.015c-1.722,0-6.114,0.269-9.721,2.762
					c-3.273,2.264-6.687,7.128-6.353,10.25c0.126,1.188,0.785,2.107,1.809,2.53c0.426,0.177,0.855,0.267,1.275,0.267
					c1.857,0,2.746-1.539,3.461-2.773c0.596-1.032,1.271-2.202,2.525-3.198c2.963-2.354,4.8-2.62,8.036-2.634
					c2.402,0,4.233,1.646,5.146,3.188c0.402,0.683,0.525,1.193,0.643,1.691c0.174,0.729,0.633,2.675,3.039,2.675l0,0
					c0.275,0,0.582-0.021,0.938-0.073c1.397-0.201,2.448-0.961,2.96-2.143c1.016-2.345-0.57-5.176-1.605-6.652
					C105.723,97.343,102.859,95.067,96.526,94.81z"/>
				<path fill="#603913" d="M149.861,97.043c-1.721-2.952-4.119-5.724-9.918-6.008c0,0-0.202-0.016-0.562-0.016
					c-1.492,0-5.306,0.279-8.423,2.869c-3.034,2.52-5.604,7.486-5.283,10.221c0.175,1.488,1.062,2.14,1.578,2.396
					c0.433,0.214,0.873,0.322,1.313,0.322c1.844,0,2.617-1.613,3.24-2.909c0.498-1.033,1.062-2.203,2.088-3.186
					c2.489-2.378,3.953-2.501,6.346-2.518c1.779,0,3.191,1.575,3.921,3.055c0.349,0.705,0.458,1.264,0.556,1.756
					c0.146,0.75,0.541,2.748,2.871,2.748l0,0c0.266,0,0.557-0.027,0.887-0.086c1.18-0.203,2.101-0.895,2.586-1.938
					C152.148,101.418,150.585,98.283,149.861,97.043z"/>
			</g>
			<path fill="#603913" d="M148.434,70.119c-3.418-3.715-7.254-7.037-11.438-9.888c-8.592,5.048-21.238,8.399-35.391,8.481
				C86.32,68.799,72.729,65.134,64.11,59.51c-4.562,2.976-8.734,6.496-12.418,10.479C62.121,78.82,80.117,84.6,100.551,84.484
				C120.46,84.369,137.992,78.688,148.434,70.119z"/>
			<g>
				
					<radialGradient id="SVGID_5_" cx="351.2578" cy="6166.873" r="47.7345" gradientTransform="matrix(-0.5163 -0.53 0.8564 -0.3237 -5003.6299 2229.2788)" gradientUnits="userSpaceOnUse">
					<stop  offset="0.0859" style="stop-color:#FFFAFF"/>
					<stop  offset="0.3558" style="stop-color:#FFFFFF"/>
					<stop  offset="1" style="stop-color:#3DC0FF"/>
				</radialGradient>
				<path fill="url(#SVGID_5_)" d="M100.198,19.567c-28.989,0.166-52.415,13.412-52.322,29.584
					c0.094,16.174,23.67,29.149,52.658,28.984c28.989-0.167,52.414-13.413,52.319-29.587
					C152.764,32.376,129.188,19.401,100.198,19.567z M100.458,64.865c-22.103,0.127-40.066-8.192-40.123-18.124
					c-0.055-9.41,17.812-17.874,39.916-18.002c22.104-0.127,40.063,8.308,40.116,17.543
					C140.423,56.039,122.562,64.739,100.458,64.865z"/>
				
					<radialGradient id="SVGID_6_" cx="357.3174" cy="6180.291" r="34.1595" gradientTransform="matrix(-0.5163 -0.53 0.8564 -0.3237 -5003.6299 2229.2788)" gradientUnits="userSpaceOnUse">
					<stop  offset="0.0859" style="stop-color:#FFFAFF"/>
					<stop  offset="0.3558" style="stop-color:#FFFFFF"/>
					<stop  offset="1" style="stop-color:#0DB0FF"/>
				</radialGradient>
				<path fill="url(#SVGID_6_)" d="M100.198,19.567c-28.989,0.166-47.098,11.2-45.542,27.338
					c1.298,13.455,28.921,20.428,44.44,20.346c28.988-0.15,51.113-10.588,50.013-26.745
					C148.468,31.069,129.188,19.401,100.198,19.567z M100.458,64.865c-22.103,0.127-40.066-8.192-40.123-18.124
					c-0.055-9.41,17.812-17.874,39.916-18.002c22.104-0.127,40.063,8.308,40.116,17.543
					C140.423,56.039,122.562,64.739,100.458,64.865z"/>
				
					<radialGradient id="SVGID_7_" cx="290.6064" cy="6173.0098" r="23.1075" gradientTransform="matrix(-0.5163 -0.53 0.8564 -0.3237 -5003.6299 2229.2788)" gradientUnits="userSpaceOnUse">
					<stop  offset="0.0245" style="stop-color:#CAFAFF"/>
					<stop  offset="1" style="stop-color:#C7FAFF;stop-opacity:0"/>
				</radialGradient>
				<path fill="url(#SVGID_7_)" d="M100.198,19.567c-28.989,0.166-52.415,13.412-52.322,29.584
					c0.094,16.174,23.67,29.149,52.658,28.984c28.989-0.167,52.414-13.413,52.319-29.587
					C152.764,32.376,129.188,19.401,100.198,19.567z M100.458,64.865c-22.103,0.127-40.066-8.192-40.123-18.124
					c-0.055-9.41,17.812-17.874,39.916-18.002c22.104-0.127,40.063,8.308,40.116,17.543
					C140.423,56.039,122.562,64.739,100.458,64.865z"/>
				
					<radialGradient id="SVGID_8_" cx="751.2969" cy="6350.0742" r="12.7646" gradientTransform="matrix(-0.5159 -0.4602 0.8566 -0.2819 -5004.2314 2187.2781)" gradientUnits="userSpaceOnUse">
					<stop  offset="0.0245" style="stop-color:#BDFAFF"/>
					<stop  offset="1" style="stop-color:#B1FAFF;stop-opacity:0"/>
				</radialGradient>
				<path fill="url(#SVGID_8_)" d="M100.237,25.911c-28.989,0.166-51.409,8.888-51.328,22.939
					c0.081,14.054,22.63,28.115,51.62,27.949s52.041-14.196,51.959-28.25C152.41,34.498,129.227,25.745,100.237,25.911z
					 M100.464,65.271c-22.104,0-42.338-10.895-42.387-19.524c-0.048-8.177,20.103-17.872,42.207-18
					c22.104-0.127,41.914,9.643,41.959,17.667C142.292,53.891,126.684,65.271,100.464,65.271z"/>
				
					<radialGradient id="SVGID_9_" cx="337.5352" cy="6136.5527" r="149.9363" gradientTransform="matrix(-0.5163 -0.53 0.8564 -0.3237 -5003.6299 2229.2788)" gradientUnits="userSpaceOnUse">
					<stop  offset="0.0859" style="stop-color:#C0EBFF"/>
					<stop  offset="0.3558" style="stop-color:#9FE1FF"/>
					<stop  offset="1" style="stop-color:#3DC0FF"/>
				</radialGradient>
				<path fill="url(#SVGID_9_)" d="M101.129,19.562c-27.271,0.156-49.315,11.326-49.237,24.946
					c0.078,13.622,22.249,24.536,49.521,24.38c27.272-0.156,49.315-11.324,49.239-24.947C150.57,30.319,128.4,19.405,101.129,19.562
					z M101.484,63.905c-23.438,0.133-42.488-9.5-42.556-20.993c-0.062-10.886,18.877-20.671,42.316-20.806
					c23.438-0.135,42.488,9.633,42.549,20.318C143.857,53.713,124.926,63.771,101.484,63.905z"/>
			</g>
		</g>
	</g>
</g>
</svg>
