<?xml version="1.0" encoding="utf-8"?>
<!-- Generator: Adobe Illustrator 15.0.0, SVG Export Plug-In . SVG Version: 6.00 Build 0)  -->
<!DOCTYPE svg PUBLIC "-//W3C//DTD SVG 1.1//EN" "http://www.w3.org/Graphics/SVG/1.1/DTD/svg11.dtd">
<svg version="1.1" id="Layer_1" xmlns="http://www.w3.org/2000/svg" xmlns:xlink="http://www.w3.org/1999/xlink" x="0px" y="0px"
	 width="200px" height="200px" viewBox="0 0 200 200" enable-background="new 0 0 200 200" xml:space="preserve">
<g id="icon">
	<g id="Layer_2">
	</g>
	<g id="Layer_1_1_">
		<g>
			
				<radialGradient id="SVGID_1_" cx="347.9004" cy="-1210.856" r="72.3332" fx="348.9299" fy="-1204.3755" gradientTransform="matrix(1 0 0 -1 -250 -1121)" gradientUnits="userSpaceOnUse">
				<stop  offset="0.3804" style="stop-color:#FFE300"/>
				<stop  offset="1" style="stop-color:#F7941E"/>
			</radialGradient>
			<circle fill="url(#SVGID_1_)" cx="93.648" cy="99.73" r="65.796"/>
			
				<radialGradient id="SVGID_2_" cx="372.4502" cy="-1235.7285" r="30.329" gradientTransform="matrix(1 0 0 -1 -250 -1121)" gradientUnits="userSpaceOnUse">
				<stop  offset="0.3804" style="stop-color:#FFE300"/>
				<stop  offset="1" style="stop-color:#F7941E"/>
			</radialGradient>
			<path fill="url(#SVGID_2_)" d="M145.152,130.775c2.545-0.441,5.054,1.94,5.054,1.94s1.846,6.357-2.947,10.798
				c-3.965,3.668-13.967,6.023-13.967,6.023s13.528-4.979,6.701-12.861C138.473,134.926,141.859,131.344,145.152,130.775z"/>
			
				<radialGradient id="SVGID_3_" cx="502.3906" cy="-1931.2646" r="31.7571" gradientTransform="matrix(1.0152 0.0969 -0.1396 -1.6985 -677.4008 -3204.1755)" gradientUnits="userSpaceOnUse">
				<stop  offset="0.3804" style="stop-color:#FFE300"/>
				<stop  offset="1" style="stop-color:#F7941E"/>
			</radialGradient>
			<path fill="url(#SVGID_3_)" d="M105.066,142.943c-17.053,0.842-29.649,3.271-39.68,5.822c-2.49,0.637-4.625-3.945-3.411-9.209
				c9.533-25.605,31.047-47.644,53.981-40.458c15.032,4.708,22.296,22.421,28.548,36.017c2.278,4.947,0.262,8.141-2.033,7.922
				C135.832,142.407,126.268,141.9,105.066,142.943z"/>
			<path fill="#603913" d="M104.973,140.186c-17.055,0.838-29.651,3.272-39.682,5.82c-2.49,0.635-4.624-3.945-3.409-9.21
				c9.531-25.606,31.045-47.641,53.979-40.453c15.031,4.707,22.296,22.425,28.549,36.017c2.277,4.951,0.261,8.146-2.034,7.925
				C135.736,139.646,126.171,139.141,104.973,140.186z"/>
			
				<radialGradient id="SVGID_4_" cx="396.3066" cy="-1949.1362" r="29.1083" gradientTransform="matrix(1.045 0.0904 -0.1341 -1.6997 -573.4659 -3226.78)" gradientUnits="userSpaceOnUse">
				<stop  offset="0" style="stop-color:#830000"/>
				<stop  offset="1" style="stop-color:#531C00"/>
			</radialGradient>
			<path fill="url(#SVGID_4_)" d="M104.646,138.814c-16.089,0.873-27.983,3.18-37.458,5.576c-2.352,0.596-4.342-3.598-3.168-8.427
				c9.124-23.534,29.693-44.188,51.289-37.741c14.151,4.226,20.75,20.75,26.575,33.171c2.123,4.526,0.203,7.463-1.959,7.275
				C133.667,138.137,124.646,137.732,104.646,138.814z"/>
			<path d="M98.405,136.854c-9.562,0.291-16.601,1.668-22.193,3.155c-1.389,0.372-2.657-2.6-2.055-5.954
				c4.965-16.285,16.803-30.322,29.791-25.383c8.511,3.237,12.768,14.93,16.483,23.736c1.354,3.209,0.271,5.227-1.021,5.053
				C115.673,136.957,110.294,136.494,98.405,136.854z"/>
			<path fill="#603913" d="M52.788,142.396c0,0,4.006,9.433,11.462,12.67c7.75,3.365,11.198,2.33,9.701,2.664
				S54.288,159.73,52.788,142.396z"/>
			<path fill="#603913" d="M138.27,148.082c0,0-5.742,1.438-6.19,1.46c-0.453,0.022,3.823,0.621,3.823,0.621L138.27,148.082z"/>
			<g>
				<g>
					<path fill="none" d="M149.645,88.409c-0.223,2.447-3.052,10.247,0.78,16.59c3.111,5.146,9.804,6.797,14.949,3.688
						c5.146-3.11,6.797-9.807,3.687-14.948c-1.395-2.307-2.869-3.9-5.094-5.615c-6.693-5.162-14.898-6.424-14.898-6.424
						S150.05,83.949,149.645,88.409z"/>
				</g>
				<path opacity="0.47" fill="#354C77" enable-background="new    " d="M149.473,90.153c-0.224,2.449-3.054,10.245,0.78,16.59
					c3.108,5.146,9.804,6.797,14.948,3.687c5.146-3.104,6.796-9.801,3.688-14.946c-1.396-2.31-2.871-3.9-5.094-5.615
					c-6.691-5.16-14.898-6.424-14.898-6.424S149.878,85.694,149.473,90.153z"/>
				
					<radialGradient id="SVGID_5_" cx="2489.7812" cy="-2695.9199" r="13.8479" fx="2492.4709" fy="-2689.7532" gradientTransform="matrix(-0.7278 0.6859 -0.9491 -1.0071 -592.434 -4329.5093)" gradientUnits="userSpaceOnUse">
					<stop  offset="0.3252" style="stop-color:#03B1FF"/>
					<stop  offset="0.4464" style="stop-color:#03A8FF"/>
					<stop  offset="0.6464" style="stop-color:#038FFF"/>
					<stop  offset="0.7055" style="stop-color:#0386FF"/>
					<stop  offset="0.7975" style="stop-color:#03B1FF"/>
					<stop  offset="1" style="stop-color:#08FFFF"/>
				</radialGradient>
				<path fill="url(#SVGID_5_)" d="M149.645,88.409c-0.223,2.447-3.052,10.247,0.78,16.59c3.111,5.146,9.804,6.797,14.949,3.688
					c5.146-3.11,6.797-9.807,3.687-14.948c-1.395-2.307-2.869-3.9-5.094-5.615c-6.693-5.162-14.898-6.424-14.898-6.424
					S150.05,83.949,149.645,88.409z"/>
				
					<radialGradient id="SVGID_6_" cx="1703.8916" cy="-2459.4092" r="6.1458" gradientTransform="matrix(0.9753 -0.2209 -0.404 -1.7834 -2501.7974 -3911.9038)" gradientUnits="userSpaceOnUse">
					<stop  offset="0.5092" style="stop-color:#8AFFFF"/>
					<stop  offset="1" style="stop-color:#08DEFF;stop-opacity:0"/>
				</radialGradient>
				<path fill="url(#SVGID_6_)" d="M157.812,98.418c1.736,4.066,1.183,8.357-0.918,9.034c-2.188,0.705-5.854-1.588-7.209-5.797
					c-0.609-1.889-0.781-3.475-0.662-5.538c0.356-6.206,3.875-11.174,3.875-11.174S154.509,90.707,157.812,98.418z"/>
			</g>
			<g>
				<g>
					<path fill="none" d="M153.062,142.32c-0.354,1.195-2.527,4.791-1.248,8.32c1.037,2.859,4.197,4.344,7.062,3.309
						c2.862-1.037,4.345-4.199,3.308-7.062c-0.465-1.283-1.041-2.222-1.977-3.293c-2.816-3.226-6.207-4.218-6.207-4.218
						S153.703,140.146,153.062,142.32z"/>
				</g>
				
					<radialGradient id="SVGID_7_" cx="2612.7402" cy="-2064.4824" r="6.7999" fx="2614.0608" fy="-2061.4541" gradientTransform="matrix(-0.8474 0.531 -0.7348 -1.1726 852.0292 -3662.6128)" gradientUnits="userSpaceOnUse">
					<stop  offset="0.3252" style="stop-color:#03B1FF"/>
					<stop  offset="0.4464" style="stop-color:#03A8FF"/>
					<stop  offset="0.6464" style="stop-color:#038FFF"/>
					<stop  offset="0.7055" style="stop-color:#0386FF"/>
					<stop  offset="0.7975" style="stop-color:#03B1FF"/>
					<stop  offset="1" style="stop-color:#08FFFF"/>
				</radialGradient>
				<path fill="url(#SVGID_7_)" d="M153.062,142.32c-0.354,1.195-2.527,4.791-1.248,8.32c1.037,2.859,4.197,4.344,7.062,3.309
					c2.862-1.037,4.345-4.199,3.308-7.062c-0.465-1.283-1.041-2.222-1.977-3.293c-2.816-3.226-6.207-4.218-6.207-4.218
					S153.703,140.146,153.062,142.32z"/>
				
					<radialGradient id="SVGID_8_" cx="1408.4258" cy="-1849.5195" r="3.1135" gradientTransform="matrix(0.9997 -0.0267 -0.0488 -1.8279 -1344.104 -3195.8052)" gradientUnits="userSpaceOnUse">
					<stop  offset="0.5092" style="stop-color:#8AFFFF"/>
					<stop  offset="1" style="stop-color:#08DEFF;stop-opacity:0"/>
				</radialGradient>
				<path fill="url(#SVGID_8_)" d="M156.133,148.102c0.465,2.19-0.236,4.271-1.349,4.397c-1.154,0.135-2.75-1.368-3.009-3.593
					c-0.116-0.997-0.047-1.805,0.218-2.815c0.791-3.049,3.026-5.17,3.026-5.17S155.252,143.943,156.133,148.102z"/>
			</g>
			<g>
				<g>
					<path fill="none" d="M53.632,82.239c-2.175,1.144-9.141,4.771-10.876,11.978c-1.409,5.847,2.187,11.727,8.031,13.137
						c5.846,1.408,11.726-2.188,13.135-8.033c0.631-2.622,0.703-4.791,0.328-7.575c-1.127-8.377-1.431-12.372-1.431-12.372
						S57.841,80.028,53.632,82.239z"/>
				</g>
				<path opacity="0.47" fill="#354C77" enable-background="new    " d="M52.519,82.994c-1.881,1.584-9.376,5.134-11.113,12.342
					c-1.409,5.846,2.188,11.727,8.033,13.135c5.845,1.408,11.725-2.188,13.133-8.032c0.633-2.623,0.703-4.791,0.33-7.574
					c-1.129-8.375-1.961-13.014-1.961-13.014C64.345,79.395,53.145,82.468,52.519,82.994z"/>
				
					<radialGradient id="SVGID_9_" cx="3729.3496" cy="-356.5269" r="13.318" fx="3731.9365" fy="-350.5961" gradientTransform="matrix(-0.9997 -0.0243 0.0336 -1.3835 3794.0205 -313.2465)" gradientUnits="userSpaceOnUse">
					<stop  offset="0.3252" style="stop-color:#03B1FF"/>
					<stop  offset="0.4464" style="stop-color:#03A8FF"/>
					<stop  offset="0.6464" style="stop-color:#038FFF"/>
					<stop  offset="0.7055" style="stop-color:#0386FF"/>
					<stop  offset="0.7975" style="stop-color:#03B1FF"/>
					<stop  offset="1" style="stop-color:#08FFFF"/>
				</radialGradient>
				<path fill="url(#SVGID_9_)" d="M52.97,82.602c-1.943,1.013-8.479,4.41-10.214,11.615c-1.409,5.847,2.187,11.727,8.031,13.137
					c5.846,1.408,11.726-2.188,13.135-8.033c0.631-2.622,0.703-4.791,0.328-7.575c-1.127-8.377-1.431-12.372-1.431-12.372
					S56.94,80.53,52.97,82.602z"/>
				
					<radialGradient id="SVGID_10_" cx="-300.0127" cy="-477.7871" r="6.1444" gradientTransform="matrix(0.8487 0.5289 0.9672 -1.5519 766.9346 -491.4109)" gradientUnits="userSpaceOnUse">
					<stop  offset="0.5092" style="stop-color:#8AFFFF"/>
					<stop  offset="1" style="stop-color:#08DEFF;stop-opacity:0"/>
				</radialGradient>
				<path fill="url(#SVGID_10_)" d="M52.635,94.734c-1.622,4.115-5.038,6.773-7.007,5.776c-2.047-1.035-3.041-5.244-1.046-9.19
					c0.895-1.772,1.888-3.019,3.423-4.402c4.621-4.157,10.614-5.218,10.614-5.218S55.71,86.929,52.635,94.734z"/>
			</g>
			<g>
				<g>
					<path fill="none" d="M42.409,138.085c-1.414,0.61-5.941,2.544-7.371,6.963c-1.162,3.586,0.803,7.433,4.389,8.595
						c3.584,1.162,7.431-0.805,8.593-4.391c0.521-1.607,0.67-2.96,0.568-4.718c-0.303-5.287-0.3-7.8-0.3-7.8
						S45.145,136.906,42.409,138.085z"/>
				</g>
				
					<radialGradient id="SVGID_11_" cx="3936.7695" cy="-262.0146" r="8.3472" fx="3938.3909" fy="-258.2975" gradientTransform="matrix(-0.9949 -0.1007 0.1394 -1.3768 3995.4292 178.3891)" gradientUnits="userSpaceOnUse">
					<stop  offset="0.3252" style="stop-color:#03B1FF"/>
					<stop  offset="0.4464" style="stop-color:#03A8FF"/>
					<stop  offset="0.6464" style="stop-color:#038FFF"/>
					<stop  offset="0.7055" style="stop-color:#0386FF"/>
					<stop  offset="0.7975" style="stop-color:#03B1FF"/>
					<stop  offset="1" style="stop-color:#08FFFF"/>
				</radialGradient>
				<path fill="url(#SVGID_11_)" d="M41.978,138.279c-1.263,0.539-5.51,2.35-6.94,6.769c-1.162,3.586,0.803,7.433,4.389,8.595
					c3.584,1.162,7.431-0.805,8.593-4.391c0.521-1.607,0.67-2.96,0.568-4.718c-0.303-5.287-0.3-7.8-0.3-7.8
					S44.559,137.177,41.978,138.279z"/>
				
					<radialGradient id="SVGID_12_" cx="-564.3198" cy="-446.8086" r="3.8516" gradientTransform="matrix(0.8058 0.5924 1.0831 -1.4734 978.4834 -180.4726)" gradientUnits="userSpaceOnUse">
					<stop  offset="0.5092" style="stop-color:#8AFFFF"/>
					<stop  offset="1" style="stop-color:#08DEFF;stop-opacity:0"/>
				</radialGradient>
				<path fill="url(#SVGID_12_)" d="M41.187,145.846c-1.211,2.492-3.473,3.991-4.656,3.273c-1.229-0.745-1.648-3.426-0.213-5.794
					c0.644-1.064,1.324-1.796,2.352-2.587c3.087-2.377,6.882-2.752,6.882-2.752S43.482,141.115,41.187,145.846z"/>
			</g>
			<path fill="#603913" d="M72,58.973c0,0,16.133,1.038,21.147,4.887c5.016,3.849,3.424,5.598-3.307,5.206
				c-19.565-1.14-30.15,8.981-28.047,2.229c2.103-6.753,16.688-5.75,9.391-7.266C63.886,62.513,68.123,58.616,72,58.973z"/>
			<path fill="#603913" d="M128.059,59.919c0,0-9.396,3.041-10.582,6.374c-1.184,3.333,6.244,1.008,13.578,2.425
				c11.358,2.195,16.211,6.269,14.416,1.75c-2.224-5.597-14.955-5.628-9.438-6.502C141.545,63.092,138.09,56.516,128.059,59.919z"/>
			
				<radialGradient id="SVGID_13_" cx="218.8994" cy="-2566.8052" r="41.7336" gradientTransform="matrix(0.9962 -0.0877 -0.0489 -0.5556 -241.138 -1284.0156)" gradientUnits="userSpaceOnUse">
				<stop  offset="0.362" style="stop-color:#FF0000"/>
				<stop  offset="0.4176" style="stop-color:#F60000"/>
				<stop  offset="0.5079" style="stop-color:#DE0000"/>
				<stop  offset="0.6215" style="stop-color:#B70000"/>
				<stop  offset="0.7485" style="stop-color:#830000"/>
			</radialGradient>
			<path fill="url(#SVGID_13_)" d="M69.162,142.73c0,0,4.749-10.627,16.975-14.588c24.692-8,36.104,4.066,39.192,6.668
				c3.979,3.347-14.521,3.332-14.521,3.332S79.662,139.818,69.162,142.73z"/>
			
				<radialGradient id="SVGID_14_" cx="347.6436" cy="-1228.3096" r="20.3436" gradientTransform="matrix(1 0 0 -1 -250 -1121)" gradientUnits="userSpaceOnUse">
				<stop  offset="0" style="stop-color:#830000"/>
				<stop  offset="1" style="stop-color:#531C00"/>
			</radialGradient>
			<path fill="url(#SVGID_14_)" d="M88.994,109.439c0,0,5.258-0.758,5.058,2.358c-0.201,3.123-3.209,7.562,0.454,9.193
				c2.281,1.021,11.016-0.675,7.314-6.031c-3.588-5.19-3.899-6.873,0-8.3C105.719,105.236,94.108,102.979,88.994,109.439z"/>
		</g>
	</g>
</g>
<path id="outline_x5F_white" fill="#FFFFFF" d="M174.195,90.636c-1.188-1.962-2.48-3.591-4.078-5.125
	c-6.703-36.127-38.432-63.575-76.469-63.575c-42.897,0-77.796,34.899-77.796,77.796c0,16.165,4.959,31.189,13.43,43.642
	c-0.99,3.207-0.704,6.61,0.826,9.604c1.558,3.054,4.211,5.312,7.47,6.367c1.28,0.414,2.611,0.627,3.952,0.627
	c0.892,0,1.764-0.103,2.611-0.274c13.46,11.132,30.716,17.829,49.507,17.829c21,0,40.069-8.377,54.081-21.948
	c2.135,2.896,5.56,4.7,9.271,4.7c1.337,0,2.65-0.23,3.918-0.688c5.973-2.159,9.064-8.776,6.907-14.748
	c-0.705-1.944-1.661-3.549-3.103-5.192c-0.912-1.045-1.867-1.918-2.805-2.653c4.118-7.517,7.02-15.783,8.467-24.537
	C176.814,107.229,178.598,97.921,174.195,90.636z M162.184,146.887c0.324,0.896,0.402,1.818,0.271,2.698
	c-0.293,1.935-1.606,3.651-3.576,4.364c-0.282,0.103-0.567,0.173-0.854,0.228c-0.043,0.009-0.088,0.019-0.133,0.026
	c-0.271,0.044-0.543,0.066-0.812,0.068c-0.023,0.002-0.051,0.008-0.075,0.008c-0.034,0-0.065-0.008-0.101-0.008
	c-0.207-0.004-0.414-0.019-0.617-0.045c-0.026-0.004-0.053-0.004-0.078-0.009c-0.232-0.032-0.46-0.087-0.686-0.149
	c-0.041-0.012-0.082-0.023-0.123-0.036c-1.604-0.49-2.965-1.695-3.58-3.392c-1.279-3.529,0.894-7.125,1.248-8.32
	c0.641-2.174,0.938-2.944,0.938-2.944s2.827,0.833,5.463,3.435c0.021,0.021,0.042,0.039,0.062,0.062
	c0.229,0.229,0.457,0.466,0.682,0.725C161.143,144.665,161.719,145.604,162.184,146.887z M165.374,108.688
	c-2.113,1.276-4.485,1.738-6.767,1.498c-0.319,1.998-0.732,3.963-1.229,5.896c0.004,0.001,0.011,0.002,0.015,0.003
	c-0.271,1.056-0.574,2.095-0.896,3.127c-0.013,0.035-0.021,0.069-0.032,0.104c-0.59,1.89-1.262,3.742-2.015,5.555
	c-0.062,0.152-0.132,0.302-0.192,0.453c-0.295,0.693-0.601,1.382-0.919,2.064c-0.104,0.223-0.205,0.443-0.312,0.666
	c-0.373,0.777-0.758,1.553-1.159,2.313c-0.124,0.231-0.257,0.463-0.382,0.692c-0.207,0.383-0.41,0.768-0.625,1.144l-0.014-0.004
	c-0.183,0.317-0.354,0.646-0.539,0.963c0.312,1.504,0.993,6.604-3.053,10.351c-2.104,1.942-5.9,3.521-9.009,4.571
	c-0.065,0.062-0.14,0.12-0.206,0.185c-0.578,0.526-1.168,1.047-1.768,1.557c-0.17,0.145-0.34,0.289-0.51,0.433
	c-0.684,0.569-1.373,1.13-2.078,1.673c-0.026,0.021-0.059,0.041-0.084,0.062c-0.691,0.529-1.397,1.044-2.113,1.547
	c-0.147,0.105-0.299,0.212-0.449,0.314c-1.504,1.043-3.055,2.021-4.646,2.938c-0.142,0.08-0.279,0.16-0.42,0.24
	c-1.613,0.91-3.271,1.759-4.964,2.533c-0.139,0.062-0.274,0.127-0.413,0.188c-1.705,0.771-3.447,1.466-5.228,2.087
	c-0.146,0.053-0.29,0.102-0.437,0.15c-1.779,0.605-3.596,1.145-5.438,1.6c-0.157,0.039-0.313,0.077-0.476,0.115
	c-1.844,0.439-3.717,0.809-5.615,1.089c-0.172,0.025-0.342,0.052-0.512,0.074c-1.896,0.271-3.823,0.453-5.771,0.558
	c-0.181,0.01-0.362,0.019-0.544,0.023c-0.975,0.043-1.953,0.07-2.938,0.07c-1.043,0-2.08-0.027-3.112-0.076
	c-0.251-0.014-0.5-0.033-0.75-0.051c-0.767-0.043-1.531-0.096-2.291-0.168c-0.33-0.027-0.658-0.066-0.987-0.104
	c-0.679-0.072-1.355-0.154-2.028-0.249c-0.351-0.049-0.7-0.103-1.048-0.155c-0.655-0.103-1.305-0.216-1.954-0.336
	c-0.341-0.062-0.683-0.127-1.022-0.197c-0.676-0.137-1.346-0.289-2.014-0.445c-0.297-0.07-0.596-0.139-0.892-0.21
	c-0.819-0.207-1.63-0.433-2.437-0.668c-0.135-0.039-0.271-0.073-0.406-0.113c-0.947-0.285-1.884-0.591-2.812-0.917
	c-0.218-0.076-0.431-0.162-0.648-0.24c-0.697-0.253-1.391-0.513-2.077-0.787c-0.313-0.125-0.621-0.262-0.932-0.392
	c-0.586-0.246-1.169-0.497-1.746-0.761c-0.332-0.149-0.66-0.307-0.989-0.463c-0.554-0.264-1.104-0.531-1.649-0.812
	c-0.323-0.165-0.645-0.329-0.965-0.5c-0.56-0.297-1.113-0.604-1.664-0.917c-0.286-0.162-0.574-0.322-0.858-0.488
	c-0.64-0.377-1.27-0.768-1.895-1.164c-0.181-0.113-0.366-0.225-0.546-0.34c-0.823-0.535-1.634-1.084-2.431-1.652
	c-0.02-0.014-0.038-0.026-0.058-0.043c-0.667-0.478-1.328-0.965-1.976-1.465c0.001-0.004,0.003-0.008,0.004-0.014
	c-1.745-1.349-3.427-2.775-5.026-4.29c-0.097,0.568-0.226,1.138-0.421,1.741c-1.162,3.586-5.009,5.553-8.593,4.391
	c-3.586-1.162-5.551-5.009-4.389-8.595c1.111-3.435,3.918-5.288,5.709-6.198c-1.193-1.609-2.305-3.283-3.349-5.002
	c-0.005,0.002-0.011,0.006-0.016,0.008c-0.279-0.459-0.547-0.926-0.815-1.393c-0.008-0.014-0.016-0.027-0.024-0.041
	c-1.258-2.193-2.394-4.465-3.397-6.807c-0.041-0.096-0.08-0.191-0.12-0.287c-0.277-0.655-0.544-1.314-0.8-1.98
	c-0.062-0.162-0.124-0.326-0.185-0.488c-0.231-0.612-0.453-1.231-0.666-1.854c-0.061-0.181-0.123-0.354-0.183-0.537
	c-0.214-0.646-0.417-1.294-0.611-1.946c-0.043-0.146-0.089-0.289-0.132-0.437c-0.466-1.606-0.874-3.242-1.218-4.896
	c-0.034-0.162-0.062-0.324-0.094-0.484c-0.129-0.646-0.251-1.295-0.361-1.947c-0.045-0.266-0.084-0.531-0.126-0.798
	c-0.087-0.558-0.168-1.114-0.241-1.675c-0.039-0.303-0.075-0.604-0.11-0.905c-0.062-0.541-0.118-1.084-0.167-1.629
	c-0.027-0.306-0.056-0.608-0.08-0.914c-0.044-0.58-0.078-1.162-0.107-1.746c-0.013-0.267-0.031-0.53-0.042-0.799
	c-0.032-0.849-0.052-1.699-0.052-2.555c0-36.338,29.458-65.796,65.796-65.796c0.178,0,0.353,0.01,0.53,0.011
	c0.744,0.006,1.486,0.018,2.224,0.048c0.371,0.015,0.737,0.044,1.106,0.066c0.549,0.032,1.099,0.062,1.644,0.106
	c0.4,0.033,0.796,0.078,1.194,0.119c0.511,0.052,1.021,0.103,1.526,0.166c0.406,0.051,0.81,0.111,1.213,0.169
	c0.494,0.071,0.986,0.143,1.479,0.225c0.402,0.067,0.805,0.142,1.205,0.216c0.486,0.091,0.973,0.185,1.454,0.286
	c0.396,0.083,0.787,0.17,1.179,0.26c0.487,0.112,0.975,0.229,1.457,0.352c0.377,0.096,0.756,0.193,1.131,0.296
	c0.496,0.135,0.988,0.278,1.479,0.424c0.354,0.106,0.713,0.211,1.065,0.324c0.517,0.163,1.024,0.337,1.535,0.512
	c0.32,0.111,0.645,0.218,0.961,0.333c0.562,0.204,1.119,0.419,1.676,0.638c0.259,0.102,0.521,0.199,0.777,0.304
	c0.699,0.286,1.396,0.586,2.084,0.896c0.104,0.047,0.213,0.09,0.315,0.138c1.633,0.744,3.229,1.553,4.786,2.423
	c0.09,0.05,0.178,0.104,0.269,0.154c0.679,0.383,1.349,0.775,2.011,1.181c0.146,0.088,0.285,0.18,0.428,0.269
	c0.604,0.378,1.209,0.763,1.803,1.16c0.156,0.104,0.311,0.211,0.464,0.317c0.578,0.394,1.149,0.795,1.716,1.207
	c0.149,0.109,0.299,0.22,0.445,0.331c0.57,0.423,1.135,0.854,1.688,1.294c0.131,0.103,0.262,0.207,0.391,0.311
	c0.576,0.465,1.146,0.939,1.707,1.423c0.102,0.085,0.195,0.169,0.295,0.254c0.604,0.527,1.193,1.064,1.777,1.612
	c0.052,0.045,0.101,0.09,0.146,0.136c7.355,6.947,13.117,15.566,16.657,25.257c-0.013-0.004-0.022-0.007-0.033-0.01
	c0.86,2.355,1.603,4.769,2.192,7.242c2.068,0.928,4.275,2.147,6.342,3.74c2.225,1.715,3.699,3.308,5.094,5.615
	C172.171,98.884,170.52,105.577,165.374,108.688z"/>
</svg>
