<?xml version="1.0" encoding="utf-8"?>
<!-- Generator: Adobe Illustrator 15.0.0, SVG Export Plug-In . SVG Version: 6.00 Build 0)  -->
<!DOCTYPE svg PUBLIC "-//W3C//DTD SVG 1.1//EN" "http://www.w3.org/Graphics/SVG/1.1/DTD/svg11.dtd">
<svg version="1.1" id="Layer_1" xmlns="http://www.w3.org/2000/svg" xmlns:xlink="http://www.w3.org/1999/xlink" x="0px" y="0px"
	 width="200px" height="200px" viewBox="0 0 200 200" enable-background="new 0 0 200 200" xml:space="preserve">
<g id="icon">
	<g id="Layer_2">
	</g>
	<g id="Layer_1_1_">
		<g>
			
				<radialGradient id="SVGID_1_" cx="299.0527" cy="1264.626" r="72.3337" fx="299.5103" fy="1269.2759" gradientTransform="matrix(1 0 0 1 -200 -1182)" gradientUnits="userSpaceOnUse">
				<stop  offset="0.3804" style="stop-color:#FFE300"/>
				<stop  offset="1" style="stop-color:#F7941E"/>
			</radialGradient>
			<circle fill="url(#SVGID_1_)" cx="93.8" cy="100" r="65.796"/>
			<path fill="#603913" d="M81.238,68.285c3.369-1.261,6.854-1.11,9.585,0.146c-2.521-2.998-6.723-4.254-10.582-2.81
				c-3.857,1.443-6.204,5.149-6.137,9.065C75.339,71.947,77.869,69.546,81.238,68.285z"/>
			<path fill="#603913" d="M134.342,68.002c3.538,0.695,6.346,2.633,7.879,5.104c-0.339-3.821-3.097-7.057-7.146-7.854
				c-4.052-0.797-8.171,1.087-10.406,4.4C127.296,68.002,130.805,67.307,134.342,68.002z"/>
			
				<radialGradient id="SVGID_2_" cx="322.6025" cy="1296.9961" r="30.3272" gradientTransform="matrix(1 0 0 1 -200 -1182)" gradientUnits="userSpaceOnUse">
				<stop  offset="0.3804" style="stop-color:#FFE300"/>
				<stop  offset="1" style="stop-color:#F7941E"/>
			</radialGradient>
			<path fill="url(#SVGID_2_)" d="M145.307,131.045c2.543-0.441,5.051,1.945,5.051,1.945s1.85,6.357-2.944,10.793
				c-3.968,3.668-13.97,6.027-13.97,6.027s13.529-4.979,6.701-12.86C138.624,135.195,142.014,131.613,145.307,131.045z"/>
			<path fill="#603913" d="M113.523,127.793c-15.608-0.254-34.005,6.52-43.75,17.562c-1.705,1.933-3.566,0.504-4.447-0.194
				c11.553-15.737,31.154-27.421,53.339-24.457c14.54,1.94,23.86,9.437,28.96,17.146c1.857,2.812-0.326,4.129-1.762,2.383
				C139.998,133.089,129.546,128.053,113.523,127.793z"/>
			
				<radialGradient id="SVGID_3_" cx="307.9688" cy="1319.0098" r="27.9794" gradientTransform="matrix(1 0 0 1 -200 -1182)" gradientUnits="userSpaceOnUse">
				<stop  offset="0.3804" style="stop-color:#FFE300"/>
				<stop  offset="1" style="stop-color:#F7941E"/>
			</radialGradient>
			<path fill="url(#SVGID_3_)" d="M113.523,127.793c-15.608-0.254-34.005,6.52-43.75,17.562c-1.705,1.933,4.88,0.176,3.998-0.522
				c13.66-8.833,22.585-12.333,44.306-11.548c14.657,0.529,21.194,4.881,24.998,7.115c2.903,1.707,4.225,1.578,2.788-0.168
				C139.998,133.089,129.546,128.053,113.523,127.793z"/>
			<path fill="#603913" d="M52.939,142.667c0,0,4.006,9.433,11.462,12.669c7.75,3.365,11.197,2.33,9.701,2.664
				S54.439,160,52.939,142.667z"/>
			<path fill="#603913" d="M138.421,148.352c0,0-5.741,1.438-6.194,1.461c-0.453,0.021,3.828,0.621,3.828,0.621L138.421,148.352z"/>
			
				<radialGradient id="SVGID_4_" cx="911.9561" cy="1270.877" r="119.5433" fx="884.6725" fy="1268.7545" gradientTransform="matrix(0.8524 0 0 1 -641.9415 -1182)" gradientUnits="userSpaceOnUse">
				<stop  offset="0.3804" style="stop-color:#FFE300"/>
				<stop  offset="1" style="stop-color:#F7941E"/>
			</radialGradient>
			<ellipse fill="url(#SVGID_4_)" cx="80.394" cy="67.733" rx="15.587" ry="17.167"/>
			
				<linearGradient id="SVGID_5_" gradientUnits="userSpaceOnUse" x1="281.7959" y1="1237.1133" x2="280.7958" y2="1246.113" gradientTransform="matrix(1 0 0 1 -200 -1182)">
				<stop  offset="0" style="stop-color:#FFE300"/>
				<stop  offset="1" style="stop-color:#FFE300;stop-opacity:0"/>
			</linearGradient>
			<ellipse fill="url(#SVGID_5_)" cx="80.394" cy="67.733" rx="15.587" ry="17.167"/>
			
				<radialGradient id="SVGID_6_" cx="1002.8281" cy="-1104.6675" r="119.5356" fx="975.5461" fy="-1106.7898" gradientTransform="matrix(-0.0933 0.9953 -0.8196 -0.1516 -700.8178 -1052.5472)" gradientUnits="userSpaceOnUse">
				<stop  offset="0.3804" style="stop-color:#FFE300"/>
				<stop  offset="1" style="stop-color:#F7941E"/>
			</radialGradient>
			<path fill="url(#SVGID_6_)" d="M147.895,68.623c-0.008,9.54-3.795,13.654-12.183,13.242c-4.649-0.229-9.965-8.406-12.344-17.917
				c-2.083-8.333-8.408-12.491-8.408-12.491c11.396,1.824,9.375-1.265,17.761-0.852C141.107,51.018,147.9,59.084,147.895,68.623z"/>
			
				<linearGradient id="SVGID_7_" gradientUnits="userSpaceOnUse" x1="336.8271" y1="1234.8779" x2="330.8273" y2="1245.8777" gradientTransform="matrix(1 0 0 1 -200 -1182)">
				<stop  offset="0" style="stop-color:#FFE300"/>
				<stop  offset="1" style="stop-color:#FFE300;stop-opacity:0"/>
			</linearGradient>
			<path fill="url(#SVGID_7_)" d="M147.895,68.623c-0.008,9.54-3.795,13.654-12.183,13.242c-4.649-0.229-9.965-8.406-12.344-17.917
				c-2.083-8.333-8.408-12.491-8.408-12.491c11.396,1.824,9.375-1.265,17.761-0.852C141.107,51.018,147.9,59.084,147.895,68.623z"/>
			<path fill="#603913" d="M82.243,56.906c3.598,0,6.81,1.362,8.926,3.495c-1.31-3.691-4.806-6.34-8.926-6.34
				c-4.119,0-7.615,2.648-8.925,6.34C75.435,58.269,78.646,56.906,82.243,56.906z"/>
			<path fill="#603913" d="M135.281,54.944c3.597,0.026,6.81,1.411,8.925,3.561c-1.31-3.701-4.806-6.375-8.925-6.405
				c-4.12-0.029-7.616,2.594-8.926,6.275C128.473,56.258,131.686,54.919,135.281,54.944z"/>
			<g>
				<g>
					<g>
						<g>
							<g>
								<defs>
									<path id="SVGID_8_" d="M81.751,68.431l6.894,7.37l-12.71,11.315l14.71,7.413l-6.59,14.683c0,0,14.276-1.349,21.349-14.016
										C112.479,82.529,105.023,36.665,81.751,68.431z"/>
								</defs>
								<clipPath id="SVGID_9_">
									<use xlink:href="#SVGID_8_"  overflow="visible"/>
								</clipPath>
								<g clip-path="url(#SVGID_9_)">
									<g>
										
											<radialGradient id="SVGID_10_" cx="-741.1875" cy="-1738.8965" r="48.2284" gradientTransform="matrix(-0.4933 0.9328 -0.9636 -0.3752 -1946.7776 104.5519)" gradientUnits="userSpaceOnUse">
											<stop  offset="0" style="stop-color:#FF0000"/>
											<stop  offset="0.1377" style="stop-color:#F50000"/>
											<stop  offset="0.3732" style="stop-color:#DA0000"/>
											<stop  offset="0.678" style="stop-color:#AD0000"/>
											<stop  offset="1" style="stop-color:#770000"/>
										</radialGradient>
										<path fill="url(#SVGID_10_)" d="M104.561,85.808c1.004-2.383,1.48-5.101,1.285-7.943
											c-0.596-8.6-7.128-15.128-14.592-14.59c-3.7,0.268-6.933,2.226-9.181,5.177c0,0-5.149-4.206-11.48-3.679
											c-7.47,0.622-13.032,7.949-12.438,16.541c0.193,2.822,1.028,5.418,2.326,7.619c8.348,14.181,23.573,20.279,23.573,20.279
											S98.134,101.043,104.561,85.808z"/>
									</g>
									<g opacity="0.3">
										<g>
											<path fill="#8A0036" d="M104.561,85.808c0.353-0.828,0.627-1.698,0.844-2.596c-6.096,16.104-20.898,21.456-20.898,21.456
												s-12.931-4.32-21.112-16.062c-7.001-10.042-2.728-22.542,8.283-23.856c-0.357-0.01-0.717-0.003-1.08,0.023
												c-7.463,0.538-13.032,7.949-12.438,16.541c0.193,2.822,1.028,5.418,2.326,7.619
												c8.348,14.181,23.573,20.279,23.573,20.279S98.134,101.043,104.561,85.808z"/>
										</g>
									</g>
									<g opacity="0.87">
										
											<radialGradient id="SVGID_11_" cx="-50.6987" cy="213.3545" r="42.0592" gradientTransform="matrix(0.7984 0.4914 -0.4891 0.672 232.8698 -41.5645)" gradientUnits="userSpaceOnUse">
											<stop  offset="0" style="stop-color:#FFFFFF;stop-opacity:0"/>
											<stop  offset="0.1274" style="stop-color:#FDFCFD;stop-opacity:0.061"/>
											<stop  offset="0.2308" style="stop-color:#F6F2F5;stop-opacity:0.1105"/>
											<stop  offset="0.3258" style="stop-color:#EAE1E8;stop-opacity:0.1559"/>
											<stop  offset="0.4158" style="stop-color:#D9C9D6;stop-opacity:0.199"/>
											<stop  offset="0.5022" style="stop-color:#C3AABE;stop-opacity:0.2404"/>
											<stop  offset="0.586" style="stop-color:#A884A1;stop-opacity:0.2805"/>
											<stop  offset="0.6677" style="stop-color:#89567F;stop-opacity:0.3196"/>
											<stop  offset="0.7457" style="stop-color:#652358;stop-opacity:0.3569"/>
											<stop  offset="0.7939" style="stop-color:#4C003D;stop-opacity:0.38"/>
											<stop  offset="1" style="stop-color:#FFFFFF;stop-opacity:0"/>
										</radialGradient>
										<path fill="url(#SVGID_11_)" d="M104.561,85.808c1.004-2.383,1.48-5.101,1.285-7.943
											c-0.596-8.6-7.128-15.128-14.592-14.59c-4.145,0.302-7.7,2.717-9.946,6.283c-2.715-3.203-6.569-5.087-10.715-4.785
											c-7.463,0.538-13.032,7.949-12.438,16.541c0.193,2.822,1.028,5.418,2.326,7.619c8.348,14.181,23.573,20.279,23.573,20.279
											S98.134,101.043,104.561,85.808z"/>
									</g>
									
										<radialGradient id="SVGID_12_" cx="-47.8921" cy="42.3926" r="22.192" gradientTransform="matrix(0.7984 0.4914 -0.6296 0.8651 165.2193 51.3903)" gradientUnits="userSpaceOnUse">
										<stop  offset="0" style="stop-color:#FF72A9"/>
										<stop  offset="1" style="stop-color:#FF72A9;stop-opacity:0"/>
									</radialGradient>
									<path fill="url(#SVGID_12_)" d="M101.945,80.496c-3.549,4.874-10.843,6.106-16.292,2.755
										c-5.446-3.354-6.986-10.026-3.438-14.898c3.547-4.874,10.841-6.108,16.287-2.755
										C103.954,68.951,105.491,75.62,101.945,80.496z"/>
									
										<radialGradient id="SVGID_13_" cx="-71.8521" cy="49.6875" r="26.2818" gradientTransform="matrix(0.7984 0.4914 -0.6296 0.8651 165.2193 51.3903)" gradientUnits="userSpaceOnUse">
										<stop  offset="0" style="stop-color:#FF72A9"/>
										<stop  offset="1" style="stop-color:#FF72A9;stop-opacity:0"/>
									</radialGradient>
									<path fill="url(#SVGID_13_)" d="M83.189,82.291c-3.548,4.871-10.842,6.108-16.291,2.755
										c-5.446-3.354-6.985-10.021-3.438-14.9c3.548-4.874,10.841-6.106,16.288-2.757C85.196,70.746,86.736,77.415,83.189,82.291z
										"/>
									
										<radialGradient id="SVGID_14_" cx="-46.96" cy="43.4531" r="22.1907" gradientTransform="matrix(0.7984 0.4914 -0.6296 0.8651 165.2193 51.3903)" gradientUnits="userSpaceOnUse">
										<stop  offset="0" style="stop-color:#FFC29A"/>
										<stop  offset="1" style="stop-color:#FF723A;stop-opacity:0"/>
									</radialGradient>
									<path fill="url(#SVGID_14_)" d="M102.021,81.875c-3.548,4.871-10.84,6.106-16.291,2.756
										c-5.448-3.355-6.989-10.025-3.44-14.901c3.548-4.879,10.842-6.109,16.289-2.754
										C104.029,70.329,105.568,77.003,102.021,81.875z"/>
									
										<radialGradient id="SVGID_15_" cx="-70.9214" cy="50.7495" r="26.2804" gradientTransform="matrix(0.7984 0.4914 -0.6296 0.8651 165.2193 51.3903)" gradientUnits="userSpaceOnUse">
										<stop  offset="0" style="stop-color:#FFC29A"/>
										<stop  offset="1" style="stop-color:#FF723A;stop-opacity:0"/>
									</radialGradient>
									<path fill="url(#SVGID_15_)" d="M83.265,83.665c-3.549,4.879-10.841,6.109-16.287,2.757
										C61.53,83.067,59.99,76.4,63.539,71.525c3.548-4.875,10.84-6.109,16.288-2.756C85.271,72.122,86.813,78.791,83.265,83.665z
										"/>
								</g>
							</g>
						</g>
					</g>
				</g>
			</g>
			<g>
				<g>
					<g>
						<g>
							<g>
								<defs>
									<path id="SVGID_16_" d="M77.327,68.431l6.893,7.37L71.51,87.116l14.71,7.413l-6.59,14.683c0,0-18.943-2.142-25.943-14.849
										C41.886,72.939,57.886,46.196,77.327,68.431z"/>
								</defs>
								<clipPath id="SVGID_17_">
									<use xlink:href="#SVGID_16_"  overflow="visible"/>
								</clipPath>
								<g clip-path="url(#SVGID_17_)">
									<g>
										
											<radialGradient id="SVGID_18_" cx="-745.0146" cy="-1736.7236" r="48.2315" gradientTransform="matrix(-0.4933 0.9328 -0.9636 -0.3752 -1950.9963 108.9376)" gradientUnits="userSpaceOnUse">
											<stop  offset="0" style="stop-color:#FF0000"/>
											<stop  offset="0.1377" style="stop-color:#F50000"/>
											<stop  offset="0.3732" style="stop-color:#DA0000"/>
											<stop  offset="0.678" style="stop-color:#AD0000"/>
											<stop  offset="1" style="stop-color:#770000"/>
										</radialGradient>
										<path fill="url(#SVGID_18_)" d="M100.136,85.808c1.002-2.383,1.48-5.101,1.284-7.943
											c-0.595-8.6-7.126-15.128-14.591-14.59c-3.7,0.268-6.932,2.226-9.181,5.177c0,0-5.149-4.206-11.48-3.679
											c-7.47,0.622-13.032,7.949-12.438,16.541c0.194,2.822,1.028,5.418,2.325,7.619c8.348,14.181,23.574,20.279,23.574,20.279
											S93.709,101.043,100.136,85.808z"/>
									</g>
									<g opacity="0.3">
										<g>
											<path fill="#8A0036" d="M100.136,85.808c0.349-0.828,0.627-1.698,0.844-2.596c-6.104,16.104-20.902,21.456-20.902,21.456
												s-12.93-4.32-21.113-16.062c-7-10.042-2.727-22.542,8.283-23.856c-0.357-0.01-0.715-0.003-1.079,0.023
												c-7.463,0.538-13.032,7.949-12.438,16.541c0.194,2.822,1.028,5.418,2.325,7.619
												c8.348,14.181,23.574,20.279,23.574,20.279S93.709,101.043,100.136,85.808z"/>
										</g>
									</g>
									<g opacity="0.87">
										
											<radialGradient id="SVGID_19_" cx="-54.5254" cy="215.5303" r="42.0574" gradientTransform="matrix(0.7984 0.4914 -0.4891 0.672 232.5642 -41.1446)" gradientUnits="userSpaceOnUse">
											<stop  offset="0" style="stop-color:#FFFFFF;stop-opacity:0"/>
											<stop  offset="0.1274" style="stop-color:#FDFCFD;stop-opacity:0.061"/>
											<stop  offset="0.2308" style="stop-color:#F6F2F5;stop-opacity:0.1105"/>
											<stop  offset="0.3258" style="stop-color:#EAE1E8;stop-opacity:0.1559"/>
											<stop  offset="0.4158" style="stop-color:#D9C9D6;stop-opacity:0.199"/>
											<stop  offset="0.5022" style="stop-color:#C3AABE;stop-opacity:0.2404"/>
											<stop  offset="0.586" style="stop-color:#A884A1;stop-opacity:0.2805"/>
											<stop  offset="0.6677" style="stop-color:#89567F;stop-opacity:0.3196"/>
											<stop  offset="0.7457" style="stop-color:#652358;stop-opacity:0.3569"/>
											<stop  offset="0.7939" style="stop-color:#4C003D;stop-opacity:0.38"/>
											<stop  offset="1" style="stop-color:#FFFFFF;stop-opacity:0"/>
										</radialGradient>
										<path fill="url(#SVGID_19_)" d="M100.136,85.808c1.002-2.383,1.48-5.101,1.284-7.943
											c-0.595-8.6-7.126-15.128-14.591-14.59c-4.145,0.302-7.7,2.717-9.947,6.283c-2.713-3.203-6.568-5.087-10.714-4.785
											c-7.463,0.538-13.032,7.949-12.438,16.541c0.194,2.822,1.028,5.418,2.325,7.619c8.348,14.181,23.574,20.279,23.574,20.279
											S93.709,101.043,100.136,85.808z"/>
									</g>
									
										<radialGradient id="SVGID_20_" cx="-51.7222" cy="44.5684" r="22.1883" gradientTransform="matrix(0.7984 0.4914 -0.6296 0.8651 165.2193 51.3903)" gradientUnits="userSpaceOnUse">
										<stop  offset="0" style="stop-color:#FF72A9"/>
										<stop  offset="1" style="stop-color:#FF72A9;stop-opacity:0"/>
									</radialGradient>
									<path fill="url(#SVGID_20_)" d="M97.521,80.496c-3.549,4.874-10.843,6.106-16.291,2.755
										c-5.446-3.354-6.986-10.026-3.438-14.898c3.547-4.874,10.842-6.108,16.287-2.755
										C99.528,68.951,101.066,75.62,97.521,80.496z"/>
									
										<radialGradient id="SVGID_21_" cx="-75.6831" cy="51.8613" r="26.2849" gradientTransform="matrix(0.7984 0.4914 -0.6296 0.8651 165.2193 51.3903)" gradientUnits="userSpaceOnUse">
										<stop  offset="0" style="stop-color:#FF72A9"/>
										<stop  offset="1" style="stop-color:#FF72A9;stop-opacity:0"/>
									</radialGradient>
									<path fill="url(#SVGID_21_)" d="M78.765,82.291c-3.548,4.871-10.842,6.108-16.291,2.755
										c-5.446-3.354-6.985-10.021-3.438-14.9c3.548-4.874,10.841-6.106,16.288-2.757C80.771,70.746,82.312,77.415,78.765,82.291z
										"/>
									
										<radialGradient id="SVGID_22_" cx="-50.7881" cy="45.6289" r="22.1864" gradientTransform="matrix(0.7984 0.4914 -0.6296 0.8651 165.2193 51.3903)" gradientUnits="userSpaceOnUse">
										<stop  offset="0" style="stop-color:#FFC29A"/>
										<stop  offset="1" style="stop-color:#FF723A;stop-opacity:0"/>
									</radialGradient>
									<path fill="url(#SVGID_22_)" d="M97.597,81.875c-3.549,4.871-10.84,6.106-16.289,2.756
										c-5.447-3.355-6.988-10.025-3.439-14.901c3.549-4.879,10.842-6.109,16.289-2.754
										C99.604,70.329,101.145,77.003,97.597,81.875z"/>
									
										<radialGradient id="SVGID_23_" cx="-74.7451" cy="52.9238" r="26.277" gradientTransform="matrix(0.7984 0.4914 -0.6296 0.8651 165.2193 51.3903)" gradientUnits="userSpaceOnUse">
										<stop  offset="0" style="stop-color:#FFC29A"/>
										<stop  offset="1" style="stop-color:#FF723A;stop-opacity:0"/>
									</radialGradient>
									<path fill="url(#SVGID_23_)" d="M78.841,83.665c-3.549,4.879-10.842,6.109-16.289,2.757
										c-5.447-3.355-6.987-10.022-3.439-14.897c3.549-4.875,10.841-6.109,16.289-2.756C80.847,72.122,82.39,78.791,78.841,83.665
										z"/>
								</g>
							</g>
						</g>
					</g>
				</g>
			</g>
			<g>
				<g>
					<g>
						<g>
							<g>
								<defs>
									<path id="SVGID_24_" d="M144.389,67.229l6.141,6.565L139.21,83.873l13.104,6.604l-5.871,13.08
										c0,0,12.719-1.201,19.021-12.486C171.76,79.788,165.121,38.933,144.389,67.229z"/>
								</defs>
								<clipPath id="SVGID_25_">
									<use xlink:href="#SVGID_24_"  overflow="visible"/>
								</clipPath>
								<g clip-path="url(#SVGID_25_)">
									<g>
										
											<radialGradient id="SVGID_26_" cx="-688.7651" cy="-1769.7109" r="42.9629" gradientTransform="matrix(-0.4933 0.9328 -0.9636 -0.3752 -1889.3577 43.1993)" gradientUnits="userSpaceOnUse">
											<stop  offset="0" style="stop-color:#FF0000"/>
											<stop  offset="0.1377" style="stop-color:#F50000"/>
											<stop  offset="0.3732" style="stop-color:#DA0000"/>
											<stop  offset="0.678" style="stop-color:#AD0000"/>
											<stop  offset="1" style="stop-color:#770000"/>
										</radialGradient>
										<path fill="url(#SVGID_26_)" d="M164.707,82.709c0.895-2.123,1.318-4.544,1.145-7.076
											c-0.526-7.661-6.349-13.476-12.998-12.997c-3.295,0.238-6.174,1.982-8.179,4.611c0,0-4.587-3.746-10.227-3.276
											c-6.654,0.554-11.609,7.081-11.079,14.734c0.173,2.515,0.916,4.827,2.07,6.788c7.438,12.632,21,18.063,21,18.063
											S158.982,96.28,164.707,82.709z"/>
									</g>
									<g opacity="0.3">
										<g>
											<path fill="#8A0036" d="M164.707,82.709c0.311-0.737,0.559-1.513,0.752-2.312c-5.434,14.345-18.62,19.113-18.62,19.113
												s-11.519-3.849-18.808-14.309c-6.235-8.945-2.43-20.081,7.379-21.251c-0.318-0.01-0.639-0.003-0.962,0.021
												c-6.647,0.479-11.609,7.081-11.079,14.734c0.173,2.515,0.916,4.827,2.07,6.788c7.438,12.632,21,18.063,21,18.063
												S158.982,96.28,164.707,82.709z"/>
										</g>
									</g>
									<g opacity="0.87">
										
											<radialGradient id="SVGID_27_" cx="1.5537" cy="181.2188" r="37.4692" gradientTransform="matrix(0.7984 0.4914 -0.4891 0.672 237.3845 -47.7696)" gradientUnits="userSpaceOnUse">
											<stop  offset="0" style="stop-color:#FFFFFF;stop-opacity:0"/>
											<stop  offset="0.1274" style="stop-color:#FDFCFD;stop-opacity:0.061"/>
											<stop  offset="0.2308" style="stop-color:#F6F2F5;stop-opacity:0.1105"/>
											<stop  offset="0.3258" style="stop-color:#EAE1E8;stop-opacity:0.1559"/>
											<stop  offset="0.4158" style="stop-color:#D9C9D6;stop-opacity:0.199"/>
											<stop  offset="0.5022" style="stop-color:#C3AABE;stop-opacity:0.2404"/>
											<stop  offset="0.586" style="stop-color:#A884A1;stop-opacity:0.2805"/>
											<stop  offset="0.6677" style="stop-color:#89567F;stop-opacity:0.3196"/>
											<stop  offset="0.7457" style="stop-color:#652358;stop-opacity:0.3569"/>
											<stop  offset="0.7939" style="stop-color:#4C003D;stop-opacity:0.38"/>
											<stop  offset="1" style="stop-color:#FFFFFF;stop-opacity:0"/>
										</radialGradient>
										<path fill="url(#SVGID_27_)" d="M164.707,82.709c0.895-2.123,1.318-4.544,1.145-7.076
											c-0.526-7.661-6.349-13.476-12.998-12.997c-3.688,0.271-6.855,2.42-8.856,5.598c-2.418-2.854-5.854-4.531-9.545-4.263
											c-6.646,0.479-11.609,7.081-11.079,14.734c0.173,2.515,0.916,4.827,2.068,6.788c7.438,12.632,21,18.063,21,18.063
											S158.982,96.28,164.707,82.709z"/>
									</g>
									
										<radialGradient id="SVGID_28_" cx="4.0503" cy="11.9937" r="19.7687" gradientTransform="matrix(0.7984 0.4914 -0.6296 0.8651 165.2193 51.3903)" gradientUnits="userSpaceOnUse">
										<stop  offset="0" style="stop-color:#FF72A9"/>
										<stop  offset="1" style="stop-color:#FF72A9;stop-opacity:0"/>
									</radialGradient>
									<path fill="url(#SVGID_28_)" d="M162.378,77.978c-3.162,4.342-9.659,5.439-14.513,2.454
										c-4.852-2.987-6.225-8.932-3.062-13.272c3.159-4.342,9.657-5.441,14.508-2.453
										C164.167,67.693,165.536,73.634,162.378,77.978z"/>
									
										<radialGradient id="SVGID_29_" cx="-17.2876" cy="18.4873" r="23.4123" gradientTransform="matrix(0.7984 0.4914 -0.6296 0.8651 165.2193 51.3903)" gradientUnits="userSpaceOnUse">
										<stop  offset="0" style="stop-color:#FF72A9"/>
										<stop  offset="1" style="stop-color:#FF72A9;stop-opacity:0"/>
									</radialGradient>
									<path fill="url(#SVGID_29_)" d="M145.67,79.576c-3.161,4.339-9.658,5.441-14.513,2.454
										c-4.853-2.987-6.224-8.928-3.062-13.273c3.156-4.342,9.653-5.439,14.508-2.456
										C147.457,69.292,148.829,75.232,145.67,79.576z"/>
									
										<radialGradient id="SVGID_30_" cx="4.8804" cy="12.9346" r="19.768" gradientTransform="matrix(0.7984 0.4914 -0.6296 0.8651 165.2193 51.3903)" gradientUnits="userSpaceOnUse">
										<stop  offset="0" style="stop-color:#FFC29A"/>
										<stop  offset="1" style="stop-color:#FF723A;stop-opacity:0"/>
									</radialGradient>
									<path fill="url(#SVGID_30_)" d="M162.443,79.206c-3.159,4.339-9.655,5.439-14.508,2.455
										c-4.854-2.99-6.229-8.932-3.064-13.275c3.161-4.346,9.658-5.441,14.511-2.453
										C164.234,68.921,165.605,74.865,162.443,79.206z"/>
									
										<radialGradient id="SVGID_31_" cx="-16.4639" cy="19.4375" r="23.4125" gradientTransform="matrix(0.7984 0.4914 -0.6296 0.8651 165.2193 51.3903)" gradientUnits="userSpaceOnUse">
										<stop  offset="0" style="stop-color:#FFC29A"/>
										<stop  offset="1" style="stop-color:#FF723A;stop-opacity:0"/>
									</radialGradient>
									<path fill="url(#SVGID_31_)" d="M145.736,80.8c-3.161,4.347-9.657,5.442-14.51,2.456
										c-4.854-2.989-6.228-8.928-3.063-13.271c3.161-4.343,9.657-5.442,14.511-2.455C147.523,70.518,148.898,76.458,145.736,80.8
										z"/>
								</g>
							</g>
						</g>
					</g>
				</g>
			</g>
			<g>
				<g>
					<g>
						<g>
							<g>
								<defs>
									<path id="SVGID_32_" d="M140.557,67.229l6.139,6.565l-11.317,10.079l13.104,6.604l-5.871,13.08
										c0,0-16.873-1.908-23.107-13.229C108.984,71.246,123.236,47.423,140.557,67.229z"/>
								</defs>
								<clipPath id="SVGID_33_">
									<use xlink:href="#SVGID_32_"  overflow="visible"/>
								</clipPath>
								<g clip-path="url(#SVGID_33_)">
									<g>
										
											<radialGradient id="SVGID_34_" cx="-692.083" cy="-1767.8242" r="42.9644" gradientTransform="matrix(-0.4933 0.9328 -0.9636 -0.3752 -1893.012 46.9982)" gradientUnits="userSpaceOnUse">
											<stop  offset="0" style="stop-color:#FF0000"/>
											<stop  offset="0.1377" style="stop-color:#F50000"/>
											<stop  offset="0.3732" style="stop-color:#DA0000"/>
											<stop  offset="0.678" style="stop-color:#AD0000"/>
											<stop  offset="1" style="stop-color:#770000"/>
										</radialGradient>
										<path fill="url(#SVGID_34_)" d="M160.874,82.709c0.894-2.123,1.317-4.544,1.144-7.076
											c-0.529-7.661-6.349-13.476-12.996-12.997c-3.297,0.238-6.176,1.982-8.18,4.611c0,0-4.587-3.746-10.227-3.276
											c-6.654,0.554-11.609,7.081-11.079,14.734c0.172,2.515,0.916,4.827,2.071,6.788c7.437,12.632,20.998,18.063,20.998,18.063
											S155.148,96.28,160.874,82.709z"/>
									</g>
									<g opacity="0.3">
										<g>
											<path fill="#8A0036" d="M160.874,82.709c0.312-0.737,0.56-1.513,0.751-2.312c-5.434,14.345-18.62,19.113-18.62,19.113
												s-11.519-3.849-18.807-14.309c-6.236-8.945-2.431-20.081,7.379-21.251c-0.318-0.01-0.638-0.003-0.962,0.021
												c-6.648,0.479-11.609,7.081-11.079,14.734c0.172,2.515,0.916,4.827,2.071,6.788
												c7.437,12.632,20.998,18.063,20.998,18.063S155.148,96.28,160.874,82.709z"/>
										</g>
									</g>
									<g opacity="0.87">
										
											<radialGradient id="SVGID_35_" cx="-1.7617" cy="183.1045" r="37.4667" gradientTransform="matrix(0.7984 0.4914 -0.4891 0.672 237.1208 -47.4053)" gradientUnits="userSpaceOnUse">
											<stop  offset="0" style="stop-color:#FFFFFF;stop-opacity:0"/>
											<stop  offset="0.1274" style="stop-color:#FDFCFD;stop-opacity:0.061"/>
											<stop  offset="0.2308" style="stop-color:#F6F2F5;stop-opacity:0.1105"/>
											<stop  offset="0.3258" style="stop-color:#EAE1E8;stop-opacity:0.1559"/>
											<stop  offset="0.4158" style="stop-color:#D9C9D6;stop-opacity:0.199"/>
											<stop  offset="0.5022" style="stop-color:#C3AABE;stop-opacity:0.2404"/>
											<stop  offset="0.586" style="stop-color:#A884A1;stop-opacity:0.2805"/>
											<stop  offset="0.6677" style="stop-color:#89567F;stop-opacity:0.3196"/>
											<stop  offset="0.7457" style="stop-color:#652358;stop-opacity:0.3569"/>
											<stop  offset="0.7939" style="stop-color:#4C003D;stop-opacity:0.38"/>
											<stop  offset="1" style="stop-color:#FFFFFF;stop-opacity:0"/>
										</radialGradient>
										<path fill="url(#SVGID_35_)" d="M160.874,82.709c0.894-2.123,1.317-4.544,1.144-7.076
											c-0.529-7.661-6.349-13.476-12.996-12.997c-3.689,0.271-6.856,2.42-8.858,5.598c-2.417-2.854-5.854-4.531-9.544-4.263
											c-6.646,0.479-11.609,7.081-11.079,14.734c0.172,2.515,0.916,4.827,2.067,6.788c7.438,12.632,21,18.063,21,18.063
											S155.148,96.28,160.874,82.709z"/>
									</g>
									
										<radialGradient id="SVGID_36_" cx="0.7358" cy="13.875" r="19.767" gradientTransform="matrix(0.7984 0.4914 -0.6296 0.8651 165.2193 51.3903)" gradientUnits="userSpaceOnUse">
										<stop  offset="0" style="stop-color:#FF72A9"/>
										<stop  offset="1" style="stop-color:#FF72A9;stop-opacity:0"/>
									</radialGradient>
									<path fill="url(#SVGID_36_)" d="M158.544,77.978c-3.161,4.342-9.657,5.439-14.512,2.454
										c-4.853-2.987-6.224-8.932-3.062-13.272c3.156-4.342,9.653-5.441,14.508-2.453
										C160.333,67.693,161.703,73.634,158.544,77.978z"/>
									
										<radialGradient id="SVGID_37_" cx="-20.6118" cy="20.375" r="23.417" gradientTransform="matrix(0.7984 0.4914 -0.6296 0.8651 165.2193 51.3903)" gradientUnits="userSpaceOnUse">
										<stop  offset="0" style="stop-color:#FF72A9"/>
										<stop  offset="1" style="stop-color:#FF72A9;stop-opacity:0"/>
									</radialGradient>
									<path fill="url(#SVGID_37_)" d="M141.836,79.576c-3.16,4.339-9.656,5.441-14.512,2.454
										c-4.852-2.987-6.223-8.928-3.062-13.273c3.161-4.342,9.657-5.439,14.51-2.456
										C143.624,69.292,144.996,75.232,141.836,79.576z"/>
									
										<radialGradient id="SVGID_38_" cx="1.5649" cy="14.8174" r="19.7683" gradientTransform="matrix(0.7984 0.4914 -0.6296 0.8651 165.2193 51.3903)" gradientUnits="userSpaceOnUse">
										<stop  offset="0" style="stop-color:#FFC29A"/>
										<stop  offset="1" style="stop-color:#FF723A;stop-opacity:0"/>
									</radialGradient>
									<path fill="url(#SVGID_38_)" d="M158.611,79.206c-3.161,4.339-9.656,5.439-14.51,2.455
										c-4.854-2.99-6.229-8.932-3.063-13.275c3.16-4.346,9.657-5.441,14.51-2.453C160.4,68.921,161.771,74.865,158.611,79.206z"
										/>
									
										<radialGradient id="SVGID_39_" cx="-19.7764" cy="21.3213" r="23.4094" gradientTransform="matrix(0.7984 0.4914 -0.6296 0.8651 165.2193 51.3903)" gradientUnits="userSpaceOnUse">
										<stop  offset="0" style="stop-color:#FFC29A"/>
										<stop  offset="1" style="stop-color:#FF723A;stop-opacity:0"/>
									</radialGradient>
									<path fill="url(#SVGID_39_)" d="M141.902,80.8c-3.16,4.347-9.656,5.442-14.51,2.456c-4.854-2.989-6.228-8.928-3.062-13.271
										c3.162-4.343,9.656-5.442,14.511-2.455C143.689,70.518,145.064,76.458,141.902,80.8z"/>
								</g>
							</g>
						</g>
					</g>
				</g>
			</g>
		</g>
	</g>
</g>
</svg>
