<?xml version="1.0" encoding="utf-8"?>
<!-- Generator: Adobe Illustrator 15.0.0, SVG Export Plug-In . SVG Version: 6.00 Build 0)  -->
<!DOCTYPE svg PUBLIC "-//W3C//DTD SVG 1.1//EN" "http://www.w3.org/Graphics/SVG/1.1/DTD/svg11.dtd">
<svg version="1.1" id="Layer_1" xmlns="http://www.w3.org/2000/svg" xmlns:xlink="http://www.w3.org/1999/xlink" x="0px" y="0px"
	 width="200px" height="200px" viewBox="0 0 200 200" enable-background="new 0 0 200 200" xml:space="preserve">
<g id="icon">
	<g id="Layer_2">
	</g>
	<g id="Layer_1_1_">
		<g>
			
				<radialGradient id="SVGID_1_" cx="305.7529" cy="1263.626" r="72.3341" fx="306.4667" fy="1270.2805" gradientTransform="matrix(1 0 0 1 -200 -1182)" gradientUnits="userSpaceOnUse">
				<stop  offset="0.3804" style="stop-color:#FFE300"/>
				<stop  offset="1" style="stop-color:#F7941E"/>
			</radialGradient>
			<circle fill="url(#SVGID_1_)" cx="100" cy="100" r="65.796"/>
			<path fill="#603913" d="M106.268,93.299c-0.498-8.396-6-14.758-12.292-14.211c-6.291,0.548-10.99,7.798-10.493,16.194
				c0.497,8.397,6,14.759,12.292,14.212C102.064,108.945,106.764,101.695,106.268,93.299z M91.67,94.282
				c-1.914,0.167-3.588-1.77-3.74-4.325c-0.15-2.554,1.279-4.76,3.193-4.927c1.914-0.167,3.589,1.77,3.74,4.323
				C95.014,91.909,93.584,94.115,91.67,94.282z"/>
			<path fill="#603913" d="M147.211,93.148c0.016-6.611-3.99-11.984-8.943-12c-4.955-0.016-8.98,5.331-8.998,11.941
				c-0.016,6.613,3.988,11.986,8.943,12.003C143.168,105.107,147.195,99.762,147.211,93.148z M135.73,92.887
				c-1.508-0.006-2.729-1.64-2.725-3.652c0.008-2.012,1.229-3.638,2.736-3.634c1.508,0.006,2.729,1.64,2.723,3.652
				C138.464,91.265,137.236,92.891,135.73,92.887z"/>
			<path fill="#603913" d="M80.039,64.154c2.971-2.028,6.393-2.714,9.342-2.146c-3.162-2.31-7.543-2.527-10.945-0.204
				c-3.402,2.322-4.797,6.48-3.798,10.268C75.184,69.118,77.068,66.183,80.039,64.154z"/>
			<path fill="#603913" d="M144.047,67.027c3.363,1.3,5.791,3.695,6.871,6.396c0.331-3.822-1.822-7.487-5.673-8.977
				c-3.851-1.49-8.233-0.35-11.013,2.523C137.107,65.802,140.686,65.728,144.047,67.027z"/>
			<path fill="#603913" d="M78.502,139.83l-2.635-2.044c0.217-0.472,5.088-10.567,16.152-12.244
				c4.477-0.683,8.109,1.551,11.622,3.708c3.756,2.309,7.305,4.484,12.289,3.842c4.346-0.562,6.797-2.689,9.635-5.148
				c2.812-2.437,5.992-5.192,11.099-6.135c9.241-1.688,15.698,6.448,16.01,6.801l-1.719,2.535
				c-0.056-0.061-5.739-4.994-12.604-3.271c-4.75,1.19-7.293,4.387-10,6.733c-2.969,2.568-6.328,6.687-11.918,7.408
				c-6.373,0.832-10.916-3.166-14.932-5.635c-3.136-1.925-5.07-4.729-10.448-4.312C82.457,132.738,78.671,139.471,78.502,139.83z"/>
			
				<radialGradient id="SVGID_2_" cx="314.7266" cy="1319.2637" r="36.2646" gradientTransform="matrix(1 0 0 1 -200 -1182)" gradientUnits="userSpaceOnUse">
				<stop  offset="0.3804" style="stop-color:#FFE300"/>
				<stop  offset="1" style="stop-color:#F7941E"/>
			</radialGradient>
			<path fill="url(#SVGID_2_)" d="M78.502,139.83l1.529,1.087c0.217-0.472,4.917-6.001,10.584-5.751
				c4.523,0.199,10.146,5.734,13.658,7.893c3.756,2.311,7.307,4.484,12.289,3.842c4.346-0.562,6.797-2.688,9.635-5.146
				c2.81-2.438,9.303-9.979,14.334-11.25c5.584-1.404,9.24,1.688,9.549,2.042l0.871-1.396c-0.053-0.062-5.739-4.994-12.605-3.271
				c-4.75,1.189-7.293,4.387-10,6.732c-2.967,2.572-6.328,6.688-11.918,7.41c-6.373,0.83-10.916-3.168-14.93-5.636
				c-3.136-1.925-5.07-4.729-10.448-4.312C82.457,132.738,78.671,139.471,78.502,139.83z"/>
		</g>
	</g>
</g>
</svg>
