<?xml version="1.0" encoding="utf-8"?>
<!-- Generator: Adobe Illustrator 15.0.0, SVG Export Plug-In . SVG Version: 6.00 Build 0)  -->
<!DOCTYPE svg PUBLIC "-//W3C//DTD SVG 1.1//EN" "http://www.w3.org/Graphics/SVG/1.1/DTD/svg11.dtd">
<svg version="1.1" id="Layer_1" xmlns="http://www.w3.org/2000/svg" xmlns:xlink="http://www.w3.org/1999/xlink" x="0px" y="0px"
	 width="200px" height="200px" viewBox="0 0 200 200" enable-background="new 0 0 200 200" xml:space="preserve">
<g id="icon">
	<g id="Layer_2">
	</g>
	<g id="Layer_1_1_">
		<g>
			
				<radialGradient id="SVGID_1_" cx="303.3789" cy="1276.709" r="72.3797" fx="303.522" fy="1275.1467" gradientTransform="matrix(1 0 0 0.9686 -200 -1161.0374)" gradientUnits="userSpaceOnUse">
				<stop  offset="0.3804" style="stop-color:#FFE300"/>
				<stop  offset="1" style="stop-color:#F7941E"/>
			</radialGradient>
			<circle fill="url(#SVGID_1_)" cx="99.126" cy="98.675" r="65.796"/>
			
				<radialGradient id="SVGID_2_" cx="918.8301" cy="1265.2686" r="119.5458" fx="891.5459" fy="1263.146" gradientTransform="matrix(0.8524 0 0 1 -641.9415 -1182)" gradientUnits="userSpaceOnUse">
				<stop  offset="0.3804" style="stop-color:#FFE300"/>
				<stop  offset="1" style="stop-color:#F7941E"/>
			</radialGradient>
			<ellipse fill="url(#SVGID_2_)" cx="86.252" cy="62.125" rx="15.588" ry="17.167"/>
			
				<linearGradient id="SVGID_3_" gradientUnits="userSpaceOnUse" x1="287.6543" y1="1231.5078" x2="286.6543" y2="1240.5078" gradientTransform="matrix(1 0 0 1 -200 -1182)">
				<stop  offset="0" style="stop-color:#FFE300"/>
				<stop  offset="1" style="stop-color:#FFE300;stop-opacity:0"/>
			</linearGradient>
			<ellipse fill="url(#SVGID_3_)" cx="86.252" cy="62.125" rx="15.588" ry="17.167"/>
			
				<radialGradient id="SVGID_4_" cx="1004.3281" cy="-1110.2998" r="119.5576" fx="977.0411" fy="-1112.4225" gradientTransform="matrix(-0.0933 0.9953 -0.8196 -0.1516 -704.0532 -1060.4945)" gradientUnits="userSpaceOnUse">
				<stop  offset="0.3804" style="stop-color:#FFE300"/>
				<stop  offset="1" style="stop-color:#F7941E"/>
			</radialGradient>
			<path fill="url(#SVGID_4_)" d="M149.141,63.015c-0.008,9.54-3.797,13.654-12.183,13.242c-4.651-0.229-9.966-8.406-12.343-17.917
				c-2.084-8.333-8.41-12.491-8.41-12.491c11.396,1.824,9.376-1.265,17.762-0.852C142.354,45.409,149.146,53.476,149.141,63.015z"/>
			
				<linearGradient id="SVGID_5_" gradientUnits="userSpaceOnUse" x1="338.0703" y1="1229.2715" x2="332.0706" y2="1240.271" gradientTransform="matrix(1 0 0 1 -200 -1182)">
				<stop  offset="0" style="stop-color:#FFE300"/>
				<stop  offset="1" style="stop-color:#FFE300;stop-opacity:0"/>
			</linearGradient>
			<path fill="url(#SVGID_5_)" d="M149.141,63.015c-0.008,9.54-3.797,13.654-12.183,13.242c-4.651-0.229-9.966-8.406-12.343-17.917
				c-2.084-8.333-8.41-12.491-8.41-12.491c11.396,1.824,9.376-1.265,17.762-0.852C142.354,45.409,149.146,53.476,149.141,63.015z"/>
			<path fill="#603913" d="M88.102,51.298c3.598,0,6.809,1.362,8.926,3.495c-1.311-3.691-4.807-6.34-8.926-6.34
				s-7.615,2.648-8.926,6.34C81.293,52.66,84.504,51.298,88.102,51.298z"/>
			<path fill="#603913" d="M136.527,49.336c3.598,0.026,6.809,1.411,8.926,3.561c-1.311-3.701-4.807-6.375-8.926-6.405
				c-4.119-0.029-7.615,2.594-8.926,6.275C129.719,50.649,132.93,49.311,136.527,49.336z"/>
			
				<radialGradient id="SVGID_6_" cx="336.0967" cy="1260.3789" r="40.0783" gradientTransform="matrix(1 0 0 1 -200.0952 -1182.0371)" gradientUnits="userSpaceOnUse">
				<stop  offset="0.3804" style="stop-color:#FFE300"/>
				<stop  offset="1" style="stop-color:#F7941E"/>
			</radialGradient>
			<path fill="url(#SVGID_6_)" d="M153.236,86.504c1.014-2.641,4.666-3.662,4.666-3.662s7.02,1.833,8.5,8.834
				c1.227,5.79-2.168,16.525-2.168,16.525s2.91-15.525-8.34-13.526C153.391,95.12,151.923,89.921,153.236,86.504z"/>
			
				<radialGradient id="SVGID_7_" cx="265.8496" cy="1250.2266" r="46.9538" gradientTransform="matrix(1 0 0 1 -200 -1182)" gradientUnits="userSpaceOnUse">
				<stop  offset="0.3804" style="stop-color:#FFE300"/>
				<stop  offset="1" style="stop-color:#F7941E"/>
			</radialGradient>
			<path fill="url(#SVGID_7_)" d="M78.07,102.807c0,0-4.334-16.132-11-16.299c-6.668-0.167-16.586,4.427-19.334,14.501
				c-4,14.666,1.333,3.167,11.5,0.333c10.166-2.834,12.834,1.338,15,2.252S78.07,102.807,78.07,102.807z"/>
			<g>
				<g>
					
						<radialGradient id="SVGID_8_" cx="-735.7905" cy="-1748.4453" r="48.2301" gradientTransform="matrix(-0.4933 0.9328 -0.9636 -0.3752 -1942.9983 90.3292)" gradientUnits="userSpaceOnUse">
						<stop  offset="0" style="stop-color:#FF0000"/>
						<stop  offset="0.1377" style="stop-color:#F50000"/>
						<stop  offset="0.3732" style="stop-color:#DA0000"/>
						<stop  offset="0.678" style="stop-color:#AD0000"/>
						<stop  offset="1" style="stop-color:#770000"/>
					</radialGradient>
					<path fill="url(#SVGID_8_)" d="M114.878,80.199c1.003-2.383,1.479-5.101,1.284-7.943c-0.596-8.6-7.127-15.128-14.592-14.59
						c-3.699,0.268-6.932,2.226-9.18,5.177c0,0-5.149-4.206-11.48-3.679c-7.47,0.622-13.032,7.949-12.438,16.541
						c0.193,2.822,1.028,5.418,2.326,7.619c8.348,14.181,23.573,20.279,23.573,20.279S108.451,95.435,114.878,80.199z"/>
				</g>
				<g opacity="0.3">
					<g>
						<path fill="#8A0036" d="M114.878,80.199c0.349-0.828,0.627-1.698,0.845-2.596C109.622,93.707,94.82,99.059,94.82,99.059
							s-12.931-4.32-21.112-16.062c-7.001-10.042-2.728-22.542,8.283-23.856c-0.357-0.01-0.717-0.003-1.08,0.023
							c-7.463,0.538-13.032,7.949-12.438,16.541c0.193,2.822,1.028,5.418,2.326,7.619c8.348,14.181,23.573,20.279,23.573,20.279
							S108.451,95.435,114.878,80.199z"/>
					</g>
				</g>
				<g opacity="0.87">
					
						<radialGradient id="SVGID_9_" cx="-45.3032" cy="203.8076" r="42.0599" gradientTransform="matrix(0.7984 0.4914 -0.4891 0.672 234.2107 -43.4082)" gradientUnits="userSpaceOnUse">
						<stop  offset="0" style="stop-color:#FFFFFF;stop-opacity:0"/>
						<stop  offset="0.1274" style="stop-color:#FDFCFD;stop-opacity:0.061"/>
						<stop  offset="0.2308" style="stop-color:#F6F2F5;stop-opacity:0.1105"/>
						<stop  offset="0.3258" style="stop-color:#EAE1E8;stop-opacity:0.1559"/>
						<stop  offset="0.4158" style="stop-color:#D9C9D6;stop-opacity:0.199"/>
						<stop  offset="0.5022" style="stop-color:#C3AABE;stop-opacity:0.2404"/>
						<stop  offset="0.586" style="stop-color:#A884A1;stop-opacity:0.2805"/>
						<stop  offset="0.6677" style="stop-color:#89567F;stop-opacity:0.3196"/>
						<stop  offset="0.7457" style="stop-color:#652358;stop-opacity:0.3569"/>
						<stop  offset="0.7939" style="stop-color:#4C003D;stop-opacity:0.38"/>
						<stop  offset="1" style="stop-color:#FFFFFF;stop-opacity:0"/>
					</radialGradient>
					<path fill="url(#SVGID_9_)" d="M114.878,80.199c1.003-2.383,1.479-5.101,1.284-7.943c-0.596-8.6-7.127-15.128-14.592-14.59
						c-4.146,0.302-7.699,2.717-9.945,6.283c-2.715-3.203-6.569-5.087-10.715-4.785c-7.463,0.538-13.032,7.949-12.438,16.541
						c0.193,2.822,1.028,5.418,2.326,7.619c8.348,14.181,23.573,20.279,23.573,20.279S108.451,95.435,114.878,80.199z"/>
				</g>
				
					<radialGradient id="SVGID_10_" cx="-42.4995" cy="32.8447" r="22.189" gradientTransform="matrix(0.7984 0.4914 -0.6296 0.8651 165.2193 51.3903)" gradientUnits="userSpaceOnUse">
					<stop  offset="0" style="stop-color:#FF72A9"/>
					<stop  offset="1" style="stop-color:#FF72A9;stop-opacity:0"/>
				</radialGradient>
				<path fill="url(#SVGID_10_)" d="M112.264,74.888c-3.55,4.874-10.844,6.106-16.292,2.755c-5.446-3.354-6.986-10.026-3.438-14.898
					c3.547-4.874,10.841-6.108,16.286-2.755C114.271,63.343,115.809,70.012,112.264,74.888z"/>
				
					<radialGradient id="SVGID_11_" cx="-66.4614" cy="40.1387" r="26.2856" gradientTransform="matrix(0.7984 0.4914 -0.6296 0.8651 165.2193 51.3903)" gradientUnits="userSpaceOnUse">
					<stop  offset="0" style="stop-color:#FF72A9"/>
					<stop  offset="1" style="stop-color:#FF72A9;stop-opacity:0"/>
				</radialGradient>
				<path fill="url(#SVGID_11_)" d="M93.507,76.683c-3.548,4.871-10.842,6.108-16.291,2.755c-5.446-3.354-6.985-10.021-3.438-14.9
					c3.548-4.874,10.841-6.106,16.288-2.757C95.514,65.138,97.054,71.807,93.507,76.683z"/>
				
					<radialGradient id="SVGID_12_" cx="-41.5654" cy="33.9087" r="22.1903" gradientTransform="matrix(0.7984 0.4914 -0.6296 0.8651 165.2193 51.3903)" gradientUnits="userSpaceOnUse">
					<stop  offset="0" style="stop-color:#FFC29A"/>
					<stop  offset="1" style="stop-color:#FF723A;stop-opacity:0"/>
				</radialGradient>
				<path fill="url(#SVGID_12_)" d="M112.338,76.267c-3.548,4.871-10.84,6.106-16.287,2.756c-5.448-3.355-6.989-10.025-3.44-14.901
					c3.548-4.879,10.842-6.109,16.29-2.754C114.348,64.721,115.887,71.395,112.338,76.267z"/>
				
					<radialGradient id="SVGID_13_" cx="-65.5278" cy="41.2021" r="26.2847" gradientTransform="matrix(0.7984 0.4914 -0.6296 0.8651 165.2193 51.3903)" gradientUnits="userSpaceOnUse">
					<stop  offset="0" style="stop-color:#FFC29A"/>
					<stop  offset="1" style="stop-color:#FF723A;stop-opacity:0"/>
				</radialGradient>
				<path fill="url(#SVGID_13_)" d="M93.582,78.057c-3.549,4.879-10.841,6.109-16.287,2.757c-5.448-3.355-6.988-10.022-3.439-14.897
					c3.548-4.875,10.84-6.109,16.288-2.756C95.589,66.514,97.131,73.183,93.582,78.057z"/>
			</g>
			<g>
				<g>
					
						<radialGradient id="SVGID_14_" cx="-623.6201" cy="-1841.811" r="42.8878" gradientTransform="matrix(-0.4773 0.9328 -0.9324 -0.3752 -1859.5247 -49.8427)" gradientUnits="userSpaceOnUse">
						<stop  offset="0" style="stop-color:#FF0000"/>
						<stop  offset="0.1377" style="stop-color:#F50000"/>
						<stop  offset="0.3732" style="stop-color:#DA0000"/>
						<stop  offset="0.678" style="stop-color:#AD0000"/>
						<stop  offset="1" style="stop-color:#770000"/>
					</radialGradient>
					<path fill="url(#SVGID_14_)" d="M164.163,77.453c0.862-2.119,1.274-4.536,1.104-7.063c-0.514-7.647-6.135-13.454-12.559-12.976
						c-3.188,0.239-5.965,1.981-7.896,4.605c0,0-4.434-3.74-9.879-3.271c-6.432,0.553-11.213,7.068-10.703,14.708
						c0.166,2.512,0.885,4.82,2.002,6.776c7.184,12.609,20.285,18.034,20.285,18.034S158.634,91.001,164.163,77.453z"/>
				</g>
				<g opacity="0.3">
					<g>
						<path fill="#8A0036" d="M164.163,77.453c0.302-0.736,0.54-1.511,0.728-2.309c-5.248,14.32-17.986,19.081-17.986,19.081
							s-11.127-3.842-18.168-14.284c-6.021-8.931-2.346-20.045,7.132-21.214c-0.312-0.009-0.617-0.006-0.935,0.021
							c-6.422,0.479-11.213,7.068-10.701,14.708c0.166,2.512,0.887,4.82,2,6.776c7.188,12.609,20.287,18.034,20.287,18.034
							S158.634,91.001,164.163,77.453z"/>
					</g>
				</g>
				<g opacity="0.87">
					
						<radialGradient id="SVGID_15_" cx="99.9014" cy="115.4307" r="37.4023" gradientTransform="matrix(0.7726 0.4914 -0.4732 0.672 127.3588 -57.127)" gradientUnits="userSpaceOnUse">
						<stop  offset="0" style="stop-color:#FFFFFF;stop-opacity:0"/>
						<stop  offset="0.1274" style="stop-color:#FDFCFD;stop-opacity:0.061"/>
						<stop  offset="0.2308" style="stop-color:#F6F2F5;stop-opacity:0.1105"/>
						<stop  offset="0.3258" style="stop-color:#EAE1E8;stop-opacity:0.1559"/>
						<stop  offset="0.4158" style="stop-color:#D9C9D6;stop-opacity:0.199"/>
						<stop  offset="0.5022" style="stop-color:#C3AABE;stop-opacity:0.2404"/>
						<stop  offset="0.586" style="stop-color:#A884A1;stop-opacity:0.2805"/>
						<stop  offset="0.6677" style="stop-color:#89567F;stop-opacity:0.3196"/>
						<stop  offset="0.7457" style="stop-color:#652358;stop-opacity:0.3569"/>
						<stop  offset="0.7939" style="stop-color:#4C003D;stop-opacity:0.38"/>
						<stop  offset="1" style="stop-color:#FFFFFF;stop-opacity:0"/>
					</radialGradient>
					<path fill="url(#SVGID_15_)" d="M164.163,77.453c0.862-2.119,1.274-4.536,1.104-7.063c-0.514-7.647-6.135-13.454-12.559-12.976
						c-3.562,0.27-6.626,2.416-8.562,5.589c-2.334-2.849-5.648-4.523-9.221-4.255c-6.422,0.479-11.213,7.068-10.701,14.708
						c0.166,2.512,0.883,4.82,2,6.776c7.188,12.609,20.287,18.034,20.287,18.034S158.634,91.001,164.163,77.453z"/>
				</g>
				
					<radialGradient id="SVGID_16_" cx="102.4268" cy="-49.9238" r="19.7347" gradientTransform="matrix(0.7726 0.4914 -0.6092 0.8651 50.9426 51.3903)" gradientUnits="userSpaceOnUse">
					<stop  offset="0" style="stop-color:#FF72A9"/>
					<stop  offset="1" style="stop-color:#FF72A9;stop-opacity:0"/>
				</radialGradient>
				<path fill="url(#SVGID_16_)" d="M161.914,72.729c-3.055,4.334-9.33,5.433-14.02,2.451c-4.688-2.984-6.016-8.915-2.959-13.249
					c3.053-4.334,9.33-5.432,14.018-2.449C163.643,62.462,164.965,68.396,161.914,72.729z"/>
				
					<radialGradient id="SVGID_17_" cx="81.1167" cy="-43.436" r="23.3719" gradientTransform="matrix(0.7726 0.4914 -0.6092 0.8651 50.9426 51.3903)" gradientUnits="userSpaceOnUse">
					<stop  offset="0" style="stop-color:#FF72A9"/>
					<stop  offset="1" style="stop-color:#FF72A9;stop-opacity:0"/>
				</radialGradient>
				<path fill="url(#SVGID_17_)" d="M145.773,74.327c-3.053,4.331-9.33,5.431-14.021,2.447c-4.688-2.982-6.012-8.911-2.958-13.247
					c3.056-4.335,9.328-5.433,14.019-2.453C147.501,64.06,148.826,69.991,145.773,74.327z"/>
				
					<radialGradient id="SVGID_18_" cx="103.2529" cy="-48.9795" r="19.7329" gradientTransform="matrix(0.7726 0.4914 -0.6092 0.8651 50.9426 51.3903)" gradientUnits="userSpaceOnUse">
					<stop  offset="0" style="stop-color:#FFC29A"/>
					<stop  offset="1" style="stop-color:#FF723A;stop-opacity:0"/>
				</radialGradient>
				<path fill="url(#SVGID_18_)" d="M161.979,73.956c-3.054,4.331-9.326,5.432-14.016,2.451c-4.688-2.984-6.014-8.915-2.961-13.252
					c3.055-4.339,9.33-5.432,14.018-2.448C163.708,63.691,165.032,69.622,161.979,73.956z"/>
				
					<radialGradient id="SVGID_19_" cx="81.9458" cy="-42.4922" r="23.3736" gradientTransform="matrix(0.7726 0.4914 -0.6092 0.8651 50.9426 51.3903)" gradientUnits="userSpaceOnUse">
					<stop  offset="0" style="stop-color:#FFC29A"/>
					<stop  offset="1" style="stop-color:#FF723A;stop-opacity:0"/>
				</radialGradient>
				<path fill="url(#SVGID_19_)" d="M145.84,75.549c-3.055,4.339-9.33,5.432-14.018,2.452c-4.688-2.984-6.014-8.915-2.959-13.249
					c3.053-4.334,9.326-5.434,14.018-2.452C147.564,65.284,148.893,71.214,145.84,75.549z"/>
			</g>
			
				<radialGradient id="SVGID_20_" cx="313.2363" cy="1427.7061" r="73.3339" gradientTransform="matrix(1 0 0 1.0645 -200 -1401.8058)" gradientUnits="userSpaceOnUse">
				<stop  offset="0.3804" style="stop-color:#FFE300"/>
				<stop  offset="1" style="stop-color:#F7941E"/>
			</radialGradient>
			<path fill="url(#SVGID_20_)" d="M112.736,122.42c-19.441,1.168-43.693-5.677-54.167-18.357
				c0.666,36.979,10.176,61.824,49.676,61.824c43.67,0,51.797-30.66,52.356-62.662C153.109,113.598,136.385,121,112.736,122.42z"/>
			<path fill="#603913" d="M116.205,116.021c-19.441,1.086-42.599-3.217-56.969-14.731c0.561,29.754,10.762,55.761,49.01,55.905
				c42.753,0.164,51.461-26.838,52.656-60.854C153.408,105.986,139.854,114.701,116.205,116.021z"/>
			
				<radialGradient id="SVGID_21_" cx="307.4131" cy="1234.3984" r="42.1555" gradientTransform="matrix(1 0 0 0.9678 -200 -1071.3381)" gradientUnits="userSpaceOnUse">
				<stop  offset="0" style="stop-color:#FFFFFF"/>
				<stop  offset="0.3806" style="stop-color:#FDFDFE"/>
				<stop  offset="0.5705" style="stop-color:#F5F8F9"/>
				<stop  offset="0.7181" style="stop-color:#E8EEF1"/>
				<stop  offset="0.844" style="stop-color:#D5E0E5"/>
				<stop  offset="0.955" style="stop-color:#BDCED6"/>
				<stop  offset="1" style="stop-color:#B1C5CF"/>
			</radialGradient>
			<path fill="url(#SVGID_21_)" d="M113.082,119.188c-19.441,1.062-41.42-5.799-52.485-15.67
				c0.562,29.101,9.704,52.491,47.649,52.491c44.499,0,47.088-23.395,47.648-52.489C148.4,112.951,136.73,117.896,113.082,119.188z"
				/>
			
				<radialGradient id="SVGID_22_" cx="308.3184" cy="1314.1729" r="35.912" gradientTransform="matrix(1 0 0 1 -200 -1182)" gradientUnits="userSpaceOnUse">
				<stop  offset="0" style="stop-color:#830000"/>
				<stop  offset="1" style="stop-color:#531C00"/>
			</radialGradient>
			<path fill="url(#SVGID_22_)" d="M61.148,113.391c0,0-1.326,4.129,18.768,11.299c14.373,5.127,29.671,5.074,29.671,5.074
				s35.996,1.258,45.918-15.271c0,0-0.351,17.379-6.739,26.675c0,0-10.635,9.787-37.184,9.787c-29.5,0-40.701-8.805-40.701-8.805
				S61.148,130.357,61.148,113.391z"/>
			<path fill="#603913" d="M66.902,100.342c0,0-8.999-0.496-13.332,3.252c-4.334,3.748,0.666,0.119,2.832,0.184
				c2.168,0.064,6-2.338,10.5-0.971c4.5,1.368,3.834,1.534,4.5,1.368C72.07,104.009,71.736,101.009,66.902,100.342z"/>
			<path fill="#603913" d="M162.292,98.635c0,0-0.687-3.786-4.706-2.689c-4.02,1.096-2.252,2.514-0.41,1.667
				C159.018,96.764,162.292,98.635,162.292,98.635z"/>
			
				<radialGradient id="SVGID_23_" cx="208.1748" cy="2679.1045" r="57.0395" fx="203.5877" fy="2656.3274" gradientTransform="matrix(0.8999 0.054 -0.0869 0.4118 167.2522 -959.1746)" gradientUnits="userSpaceOnUse">
				<stop  offset="0.1288" style="stop-color:#FF8177"/>
				<stop  offset="0.2355" style="stop-color:#FF3F3A"/>
				<stop  offset="0.3197" style="stop-color:#FF1210"/>
				<stop  offset="0.362" style="stop-color:#FF0000"/>
				<stop  offset="0.4176" style="stop-color:#F60000"/>
				<stop  offset="0.5079" style="stop-color:#DE0000"/>
				<stop  offset="0.6215" style="stop-color:#B70000"/>
				<stop  offset="0.7485" style="stop-color:#830000"/>
			</radialGradient>
			<path fill="url(#SVGID_23_)" d="M86.215,147.662c0,0,5.164-10.787,16.701-8.475c5.4,1.084,8.167,1.383,13.25-0.084
				c8.084-2.332,16.887,3.164,20.75,6.881c6.555,6.305,8.234,12.105,8.311,18.188c0.101,7.771-8.607,14.616-18.436,14.77
				c-14.127,0.218-20.398-4.534-24.98-17.209C97.916,150.961,86.215,147.662,86.215,147.662z"/>
			<g>
				
					<radialGradient id="SVGID_24_" cx="-1436.0039" cy="2759.0293" r="23.4487" fx="-1437.8895" fy="2749.6658" gradientTransform="matrix(0.2559 -0.9667 0.4083 0.1081 -640.7845 -1524.9093)" gradientUnits="userSpaceOnUse">
					<stop  offset="0" style="stop-color:#FF0000"/>
					<stop  offset="0.144" style="stop-color:#F60000"/>
					<stop  offset="0.3775" style="stop-color:#DE0000"/>
					<stop  offset="0.6716" style="stop-color:#B70000"/>
					<stop  offset="1" style="stop-color:#830000"/>
				</radialGradient>
				<path fill="url(#SVGID_24_)" d="M103.452,139.15c0,0,7.353,0.037,14.631,6.703c7.278,6.668,9.833,15.75,9.833,15.75
					s-1.75-9.75-6.416-15.166c-5.158-5.984-9.874-6.48-9.874-6.48S110.068,140.48,103.452,139.15z"/>
			</g>
		</g>
	</g>
</g>
</svg>
