<?xml version="1.0" encoding="utf-8"?>
<!-- Generator: Adobe Illustrator 15.0.0, SVG Export Plug-In . SVG Version: 6.00 Build 0)  -->
<!DOCTYPE svg PUBLIC "-//W3C//DTD SVG 1.1//EN" "http://www.w3.org/Graphics/SVG/1.1/DTD/svg11.dtd">
<svg version="1.1" id="Layer_1" xmlns="http://www.w3.org/2000/svg" xmlns:xlink="http://www.w3.org/1999/xlink" x="0px" y="0px"
	 width="200px" height="200px" viewBox="0 0 200 200" enable-background="new 0 0 200 200" xml:space="preserve">
<g id="icon">
	<g id="Layer_2">
	</g>
	<g id="Layer_1_1_">
		<g>
			<g>
				
					<linearGradient id="SVGID_1_" gradientUnits="userSpaceOnUse" x1="622.1309" y1="-1327.729" x2="602.0381" y2="-1362.824" gradientTransform="matrix(-0.5962 -0.8028 -0.8028 0.5962 -610.6261 1419.0709)">
					<stop  offset="0" style="stop-color:#AB7330"/>
					<stop  offset="0.1574" style="stop-color:#A66E30"/>
					<stop  offset="0.3431" style="stop-color:#986131"/>
					<stop  offset="0.543" style="stop-color:#804B32"/>
					<stop  offset="0.7517" style="stop-color:#5F2C34"/>
					<stop  offset="0.8182" style="stop-color:#532135"/>
					<stop  offset="1" style="stop-color:#7F3F00"/>
				</linearGradient>
				<path fill="url(#SVGID_1_)" d="M84.012,164.255c0,0,0.552-0.157,1.175,0.211c0.373,0.224,0.438,3.623,0.81,4.218
					c1.955,3.187,5.34,8.195,7.824,8.342c0.606,0.035,1.473,0.152,2.468,0.277c0.198,0.025,0.66-2.447,0.87-2.422
					c0.436,0.051,0.614,2.602,1.069,2.646c2.731,0.266,5.763,0.3,7.153-1.031c2.332-2.195,7.381-6.275,8.162-9.812
					c0.798-3.537,3.982-10.795,4.128-16.059c0.128-5.264-0.067-18.581,1.578-26.127c1.705-7.546,3.356-21.801,3.729-27.157
					c0.367-5.356,2.479-9.326-5.383-17.367c-6.229-6.041-10.601-2.444-13.938-3.222c-3.355-0.777-7.914-2.171-11.856-1.269
					c-3.915,0.903-10.886,3.223-12.79,5.869c-1.866,2.647-0.454,6.521-0.797,8.161c-0.339,1.64-4.714,3.066-2.552,10.907
					c2.076,7.841,3.212,16.716,6.574,30.246C85.33,144.195,81.005,156.561,84.012,164.255z"/>
				<g>
					<g>
						<path opacity="0.54" fill="#582B20" enable-background="new    " d="M95.707,122.282c1.835,7.995,2.604,16.737,1.492,25.1
							c-0.409,4.017-0.451,8.127-0.324,12.224c0.133,4.088,0.417,8.224,0.858,12.228c-0.578-3.976-1.006-8.099-1.286-12.201
							c-0.281-4.112-0.402-8.271-0.147-12.416c0.365-4.136,0.28-8.295-0.162-12.375c-0.226-2.041-0.542-4.062-0.936-6.062
							c-0.2-0.996-0.422-1.988-0.663-2.973l-0.38-1.473l-0.417-1.521L95.707,122.282z"/>
					</g>
					<g>
						<path fill="#582B20" d="M106.417,170.719c0,0-1.979-25.814-0.688-28.729c1.322-2.916,2.56-13.838,1.385-16.896
							c-1.202-3.057,0.119-5.931,0.119-5.931"/>
						<g>
							<path opacity="0.54" fill="#582B20" enable-background="new    " d="M108.075,119.672c-0.136,0.311-0.288,0.821-0.369,1.255
								c-0.089,0.454-0.136,0.915-0.136,1.367c0,0.454,0.046,0.899,0.135,1.329c0.049,0.213,0.102,0.426,0.171,0.631
								c0.031,0.104,0.071,0.203,0.108,0.305c0.06,0.16,0.115,0.327,0.158,0.484c0.322,1.258,0.358,2.393,0.389,3.538
								c0.015,1.14-0.031,2.264-0.106,3.383c-0.157,2.239-0.424,4.455-0.84,6.681c-0.217,1.117-0.44,2.217-0.858,3.397
								c-0.045,0.13-0.136,0.354-0.179,0.449l-0.01,0.022l-0.005,0.012c0.02,0.015-0.219-0.101-0.102-0.039
								c0.031,0.027,0.108,0.076,0.092,0.062c0-0.003-0.004,0.013-0.006,0.017l-0.024,0.086c-0.038,0.151-0.075,0.379-0.103,0.609
								c-0.061,0.471-0.091,0.988-0.111,1.508c-0.076,2.094-0.026,4.256,0.037,6.4c0.062,2.148,0.158,4.305,0.264,6.455
								c0.199,4.303,0.436,8.609,0.691,12.891c-0.396-4.248-0.774-8.529-1.125-12.812c-0.354-4.29-0.744-8.584-0.785-12.938
								c0.002-0.546,0.014-1.092,0.058-1.642c0.021-0.272,0.054-0.549,0.11-0.827c0.057-0.29,0.185-0.538,0.253-0.777
								c0.312-1.009,0.493-2.08,0.653-3.146c0.311-2.142,0.478-4.31,0.535-6.456c0.022-1.073,0.021-2.146-0.045-3.189
								c-0.062-1.033-0.179-2.104-0.443-2.916c-0.032-0.102-0.068-0.186-0.106-0.271c-0.056-0.141-0.117-0.271-0.166-0.415
								c-0.106-0.279-0.192-0.572-0.271-0.869c-0.15-0.597-0.24-1.222-0.269-1.854c-0.021-0.633,0.017-1.27,0.11-1.896
								c0.049-0.312,0.109-0.625,0.188-0.937c0.088-0.323,0.155-0.586,0.314-0.979L108.075,119.672z"/>
						</g>
					</g>
					<g>
						<path fill="#582B20" d="M97.246,111.674c0,0,1.435,10.312,0.708,13.885"/>
						<g>
							<path opacity="0.54" fill="#582B20" enable-background="new    " d="M97.039,125.295c0.16-0.917,0.164-2.077,0.137-3.186
								c-0.031-1.125-0.107-2.266-0.205-3.402c-0.199-2.273-0.482-4.574-0.823-6.825c0.685,2.188,1.309,4.443,1.846,6.718
								c0.264,1.144,0.505,2.291,0.7,3.471c0.178,1.195,0.368,2.354,0.284,3.783L97.039,125.295z"/>
						</g>
					</g>
					<g>
						<path fill="#582B20" d="M88.711,160.357c0,0,1.557,9.992,1.118,13.562"/>
						<g>
							<path opacity="0.54" fill="#582B20" enable-background="new    " d="M89.086,173.659c0.089-0.897,0.048-2.026-0.018-3.107
								c-0.069-1.097-0.175-2.208-0.298-3.319c-0.251-2.219-0.572-4.465-0.939-6.657c0.643,2.133,1.236,4.327,1.758,6.551
								c0.256,1.11,0.494,2.233,0.695,3.394c0.189,1.168,0.384,2.307,0.375,3.701L89.086,173.659z"/>
						</g>
					</g>
					<g>
						<path opacity="0.54" fill="#582B20" enable-background="new    " d="M87.563,150.924c-0.256-0.207-0.397-0.363-0.579-0.576
							c-0.17-0.203-0.33-0.433-0.475-0.688c-0.292-0.508-0.52-1.161-0.582-1.844c-0.067-0.682,0.027-1.334,0.193-1.867l0.062-0.192
							l0.017-0.062c0.014-0.049,0.027-0.12,0.04-0.196c0.024-0.154,0.043-0.338,0.056-0.529c0.087-1.585-0.072-3.401-0.262-5.146
							c-0.412-3.524-1.076-7.062-1.979-10.482c-0.231-0.854-0.479-1.701-0.752-2.533c-0.263-0.84-0.586-1.615-0.898-2.566
							c-0.602-1.827-1.007-3.695-1.291-5.562c-0.561-3.748-0.686-7.428-0.428-11.17c-0.057,1.912,0.021,3.729,0.171,5.592
							c0.155,1.851,0.399,3.693,0.763,5.521c0.359,1.821,0.836,3.627,1.485,5.349c0.327,0.866,0.7,1.668,1.007,2.516
							c0.315,0.843,0.605,1.695,0.878,2.56c1.064,3.455,1.879,7.015,2.442,10.646c0.258,1.828,0.503,3.632,0.463,5.613
							c-0.01,0.252-0.025,0.512-0.062,0.786c-0.02,0.14-0.041,0.281-0.078,0.438l-0.095,0.359c-0.075,0.307-0.084,0.578-0.044,0.809
							c0.041,0.229,0.128,0.438,0.269,0.648c0.071,0.104,0.154,0.206,0.246,0.301c0.079,0.084,0.219,0.199,0.251,0.213
							L87.563,150.924z"/>
					</g>
					<g>
						<path fill="#582B20" d="M117.844,108.833c0,0,0.684,7.31-0.943,12.362c-1.58,5.057-0.93,12.846-1.446,14.391
							c-0.517,1.546-0.22,17.41-0.904,18.488"/>
						<g>
							<path opacity="0.54" fill="#582B20" enable-background="new    " d="M113.84,153.596c0.008-0.025,0.003,0.002,0.018-0.062
								c0.013-0.059,0.025-0.148,0.039-0.241c0.026-0.188,0.049-0.408,0.066-0.627c0.038-0.438,0.064-0.899,0.088-1.362
								c0.045-0.924,0.07-1.857,0.094-2.799l0.076-5.648c0.022-1.896,0.027-3.771,0.118-5.734l0.05-0.76l0.043-0.414
								c0.023-0.163,0.027-0.27,0.105-0.581l0.012-0.044l0.006-0.021l0.004-0.011c-0.123,0.004,0.176-0.019,0.125-0.021
								c-0.156-0.067-0.094-0.035-0.104-0.051l0.016-0.066c0.014-0.063,0.023-0.153,0.035-0.245
								c0.021-0.188,0.038-0.402,0.051-0.622c0.049-0.887,0.06-1.834,0.077-2.779c0.034-1.898,0.084-3.831,0.273-5.796
								c0.095-0.983,0.227-1.976,0.426-2.979c0.101-0.5,0.217-1.004,0.36-1.51l0.201-0.684c0.062-0.209,0.113-0.42,0.166-0.635
								c0.414-1.717,0.599-3.545,0.672-5.368c0.066-1.816,0.021-3.688-0.137-5.444c0.246,1.738,0.381,3.604,0.396,5.432
								c0.01,1.838-0.092,3.691-0.44,5.498c-0.088,0.465-0.188,0.864-0.317,1.367c-0.117,0.486-0.211,0.973-0.289,1.459
								c-0.151,0.969-0.239,1.935-0.295,2.891c-0.106,1.916-0.082,3.81-0.041,5.689c0.019,0.941,0.045,1.881,0.029,2.834
								c-0.018,0.473-0.02,0.971-0.156,1.475c-0.062,0.388-0.069,0.896-0.078,1.35c-0.018,1.872,0.046,3.75,0.091,5.627l0.112,5.648
								c0.01,0.947,0.014,1.896-0.004,2.863c-0.012,0.483-0.021,0.971-0.053,1.479c-0.016,0.255-0.031,0.514-0.064,0.8
								c-0.021,0.146-0.035,0.292-0.071,0.477c-0.031,0.172-0.103,0.449-0.196,0.646L113.84,153.596z"/>
						</g>
					</g>
					<g>
						<path fill="#582B20" d="M110.682,111.845c0,0,0.694,6.429-0.354,10.671c-1.021,4.244-0.912,9.541-0.912,9.541"/>
						<g>
							<path opacity="0.54" fill="#582B20" enable-background="new    " d="M108.499,132.156c-0.031-1.771,0.026-3.479,0.167-5.232
								c0.074-0.873,0.17-1.748,0.305-2.627c0.064-0.439,0.146-0.88,0.231-1.32l0.265-1.23c0.288-1.521,0.375-3.161,0.379-4.79
								c-0.004-1.624-0.097-3.295-0.271-4.871c0.349,1.543,0.612,3.199,0.786,4.84c0.164,1.649,0.248,3.326,0.093,5.031
								c-0.476,3.385-0.351,6.778-0.011,9.989L108.499,132.156z"/>
						</g>
					</g>
					<g>
						<path fill="#582B20" d="M84.104,142.598c0,0,1.39,7.875,0.918,12.117c-0.445,4.242,0.2,9.54,0.2,9.54"/>
						<g>
							<path opacity="0.54" fill="#582B20" enable-background="new    " d="M84.441,164.355c-0.227-1.896-0.358-3.729-0.411-5.604
								c-0.021-0.937-0.021-1.874,0.021-2.815c0.022-0.473,0.052-0.941,0.099-1.418c0.041-0.41,0.062-0.801,0.071-1.223
								c0.033-1.676-0.106-3.452-0.298-5.215c-0.196-1.762-0.46-3.555-0.774-5.281c0.465,1.698,0.877,3.477,1.224,5.245
								c0.339,1.776,0.626,3.567,0.733,5.396c0.061,0.918-0.005,1.83,0.036,2.728c0.027,0.896,0.096,1.799,0.183,2.69
								c0.18,1.779,0.442,3.59,0.772,5.287L84.441,164.355z"/>
						</g>
					</g>
					<g>
						<path fill="#582B20" d="M112.331,165.346c0,0-0.778-6.668-0.621-9.455c0.156-2.785-0.315-8.074-0.315-8.074"/>
						<g>
							<path opacity="0.54" fill="#582B20" enable-background="new    " d="M112.245,147.582c0.134,1.482,0.237,2.945,0.308,4.441
								c0.033,0.748,0.057,1.5,0.062,2.268c0.015,0.751-0.049,1.632-0.051,2.229c0.035,2.768,0.346,5.689,0.644,8.496
								c-0.578-2.728-1.181-5.496-1.517-8.387c-0.164-2.949-0.693-5.77-1.25-8.551L112.245,147.582z"/>
						</g>
					</g>
				</g>
				<g opacity="0.33">
					<g>
						<path fill="#582B20" d="M99.808,109.655c0,0-1.354,14.177,0.734,25.62c1.876,11.445-0.266,22.854-0.398,23.945"/>
						<g>
							<path opacity="0.54" fill="#582B20" enable-background="new    " d="M99.345,159.053l0.218-1.562l0.194-1.513
								c0.123-1.012,0.23-2.021,0.321-3.039c0.182-2.029,0.296-4.069,0.331-6.106c0.073-4.092-0.194-8.097-0.94-12.093
								c-0.696-4.164-0.996-8.383-1.107-12.588c-0.102-4.215-0.012-8.392,0.329-12.627c-0.168,4.256-0.087,8.425,0.177,12.605
								c0.267,4.171,0.718,8.33,1.543,12.352c1.759,7.97,1.651,16.688,0.626,24.93L99.345,159.053z"/>
						</g>
					</g>
					<g>
						<path fill="#582B20" d="M112.323,109.945c0,0-3.351,26.055-2.116,28.849c1.201,2.795,1.788,13.618,0.586,16.784
							c-1.172,3.164-0.177,5.925-0.177,5.925"/>
						<g>
							<path opacity="0.54" fill="#582B20" enable-background="new    " d="M109.893,162.085c-0.217-0.655-0.312-1.188-0.396-1.812
								c-0.077-0.607-0.104-1.235-0.083-1.871c0.021-0.637,0.104-1.278,0.236-1.904c0.072-0.312,0.149-0.621,0.248-0.921
								c0.045-0.152,0.104-0.298,0.151-0.446c0.03-0.087,0.06-0.17,0.087-0.27c0.223-0.812,0.328-1.877,0.391-2.898
								c0.062-1.036,0.072-2.093,0.059-3.145c-0.04-2.104-0.188-4.219-0.479-6.248c-0.147-1.002-0.336-2.025-0.608-2.838
								c-0.042-0.118-0.05-0.144-0.106-0.281l-0.051-0.12l-0.058-0.166c-0.033-0.104-0.06-0.202-0.08-0.295
								c-0.081-0.364-0.117-0.677-0.146-0.981c-0.058-0.604-0.07-1.177-0.078-1.744c-0.019-2.261,0.109-4.453,0.254-6.651
								c0.146-2.195,0.332-4.386,0.535-6.569c0.414-4.371,0.896-8.723,1.446-13.086c-0.378,4.381-0.694,8.744-0.944,13.118
								c-0.229,4.368-0.479,8.755-0.336,13.098c0.023,0.541,0.06,1.081,0.125,1.607c0.031,0.264,0.074,0.521,0.141,0.767
								c0.057,0.237,0.185,0.436,0.275,0.692c0.363,0.979,0.584,2.021,0.776,3.069c0.368,2.104,0.586,4.261,0.688,6.445
								c0.051,1.096,0.066,2.2,0.029,3.325c-0.048,1.133-0.104,2.259-0.41,3.521c-0.039,0.158-0.092,0.324-0.146,0.486
								c-0.033,0.112-0.072,0.221-0.101,0.333c-0.064,0.222-0.112,0.448-0.157,0.675c-0.082,0.452-0.125,0.911-0.128,1.366
								c-0.002,0.455,0.035,0.907,0.104,1.343c0.035,0.219,0.08,0.435,0.135,0.637c0.047,0.19,0.121,0.438,0.164,0.531
								L109.893,162.085z"/>
						</g>
					</g>
					<g>
						<path fill="#582B20" d="M102.512,169.836c0,0,0.961-10.411,0.264-13.912"/>
						<g>
							<path opacity="0.54" fill="#582B20" enable-background="new    " d="M103.568,155.581c0.25,1.336,0.27,2.522,0.293,3.731
								c0.013,1.201-0.016,2.389-0.062,3.568c-0.091,2.369-0.239,4.703-0.438,7.068c-0.076-2.396-0.209-4.747-0.404-7.09
								c-0.104-1.166-0.227-2.325-0.389-3.457c-0.164-1.107-0.364-2.28-0.686-3.098L103.568,155.581z"/>
						</g>
					</g>
					<g>
						<path fill="#582B20" d="M90.75,122.163c0,0,0.582-10.089-0.481-13.59"/>
						<g>
							<path opacity="0.54" fill="#582B20" enable-background="new    " d="M91.221,108.229c0.379,1.307,0.476,2.472,0.577,3.651
								c0.087,1.177,0.125,2.337,0.142,3.493c0.029,2.316-0.019,4.598-0.123,6.91c-0.234-2.348-0.534-4.645-0.916-6.932
								c-0.195-1.143-0.413-2.273-0.679-3.377c-0.268-1.082-0.582-2.224-1.017-3.02L91.221,108.229z"/>
						</g>
					</g>
					<g>
						<path fill="#582B20" d="M91.157,175.048c0,0-1.991-9.606-0.688-17.137c1.416-7.53,1.397-19.392,0.258-21.604
							c-1.162-2.218-1.411-10.504-1.411-10.504"/>
						<g>
							<path opacity="0.54" fill="#582B20" enable-background="new    " d="M90.255,125.807c0.072,2.022,0.206,4.092,0.44,6.09
								c0.121,0.994,0.267,1.994,0.488,2.877c0.056,0.221,0.115,0.428,0.181,0.606c0.031,0.088,0.064,0.173,0.096,0.239l0.067,0.139
								c0.048,0.096,0.083,0.184,0.118,0.27c0.254,0.679,0.345,1.23,0.44,1.799c0.321,2.219,0.361,4.322,0.37,6.447
								c-0.003,2.119-0.082,4.228-0.229,6.326c-0.147,2.102-0.354,4.192-0.675,6.272c-0.078,0.513-0.173,1.058-0.259,1.541
								c-0.081,0.468-0.148,0.942-0.203,1.422c-0.109,0.962-0.169,1.944-0.191,2.937c-0.072,3.959,0.356,8.102,1.062,11.963
								c-0.835-3.821-1.41-7.952-1.484-12.01c-0.015-1.018,0.011-2.033,0.085-3.039c0.065-1.002,0.237-1.992,0.353-3.033
								c0.235-2.059,0.36-4.131,0.422-6.202c0.061-2.075,0.054-4.151-0.03-6.224c-0.094-2.06-0.235-4.148-0.611-6.102
								c-0.1-0.475-0.222-0.962-0.377-1.303c-0.043-0.082-0.248-0.454-0.34-0.706c-0.108-0.272-0.197-0.542-0.277-0.812
								c-0.314-1.068-0.508-2.121-0.686-3.178c-0.345-2.109-0.576-4.193-0.753-6.331L90.255,125.807z"/>
						</g>
					</g>
					<g>
						<path fill="#582B20" d="M96.315,164.973c0,0,0.641-7.396-0.678-12.336c-1.38-4.936-0.725-12.814-1.218-14.322
							c-0.501-1.506,0.043-17.479-0.726-18.491"/>
						<g>
							<path opacity="0.54" fill="#582B20" enable-background="new    " d="M94.527,119.262c0.104,0.176,0.181,0.43,0.216,0.592
								c0.041,0.174,0.064,0.315,0.086,0.457c0.041,0.278,0.066,0.534,0.088,0.787c0.042,0.506,0.067,0.991,0.088,1.479
								c0.039,0.969,0.058,1.925,0.071,2.88l0.032,5.695c0.011,1.889,0.009,3.793,0.087,5.617l0.041,0.657l0.029,0.296l0.017,0.115
								c0.001,0.01,0.008,0.051,0.004,0.032c-0.017-0.002,0.029-0.041-0.043-0.013l-0.215,0.145l-0.106,0.07l-0.052,0.035
								c-0.121,0.07,0.803-0.469,0.416-0.23l0.048,0.162c0.025,0.102,0.044,0.188,0.06,0.273c0.031,0.168,0.049,0.312,0.066,0.457
								c0.029,0.28,0.047,0.541,0.061,0.795c0.049,1.01,0.053,1.951,0.068,2.897c0.026,1.886,0.07,3.743,0.229,5.56
								c0.078,0.906,0.184,1.801,0.336,2.658c0.076,0.428,0.162,0.851,0.265,1.254l0.174,0.674c0.062,0.246,0.116,0.492,0.166,0.738
								c0.396,1.977,0.539,3.95,0.589,5.909c0.042,1.972-0.005,3.884-0.155,5.874c0.081-2.002,0.056-3.913-0.059-5.863
								c-0.124-1.938-0.343-3.881-0.8-5.761c-0.108-0.457-0.264-0.958-0.389-1.358c-0.127-0.42-0.236-0.854-0.335-1.299
								c-0.196-0.89-0.345-1.807-0.467-2.731c-0.243-1.854-0.37-3.75-0.482-5.644c-0.058-0.947-0.105-1.896-0.194-2.834
								c-0.052-0.467-0.094-0.934-0.244-1.328c-0.132-0.539-0.159-0.983-0.213-1.474c-0.171-1.907-0.259-3.807-0.362-5.704
								l-0.317-5.676c-0.062-0.939-0.129-1.881-0.215-2.805c-0.044-0.459-0.093-0.92-0.155-1.354
								c-0.03-0.217-0.064-0.43-0.104-0.611c-0.02-0.09-0.041-0.176-0.06-0.226c-0.019-0.062-0.015-0.016-0.022-0.024
								L94.527,119.262z"/>
						</g>
					</g>
					<g>
						<path fill="#582B20" d="M112.12,168.223c0,0,1.882-6.187,1.312-10.348c-0.604-4.162-0.158-9.479-0.158-9.479"/>
						<g>
							<path opacity="0.54" fill="#582B20" enable-background="new    " d="M114.125,148.412c-0.117,1.591-0.162,3.252-0.139,4.854
								c0.014,0.805,0.045,1.604,0.102,2.383c0.029,0.394,0.062,0.777,0.105,1.16c0.039,0.383,0.101,0.726,0.152,1.228
								c0.166,1.856-0.021,3.67-0.287,5.422c-0.285,1.767-0.652,3.435-1.146,5.162c0.363-1.787,0.596-3.486,0.732-5.229
								c0.125-1.728,0.14-3.479-0.162-5.066c-0.379-1.535-0.65-3.172-0.828-4.836c-0.182-1.676-0.301-3.34-0.334-5.105
								L114.125,148.412z"/>
						</g>
					</g>
					<g>
						<path fill="#582B20" d="M88.32,140.246c0,0,0.235-7.945-0.957-12.105c-1.229-4.16-1.402-9.479-1.402-9.479"/>
						<g>
							<path opacity="0.54" fill="#582B20" enable-background="new    " d="M86.93,118.68c0.078,1.728,0.26,3.523,0.528,5.254
								c0.136,0.866,0.295,1.729,0.492,2.563c0.098,0.418,0.203,0.832,0.321,1.235c0.136,0.463,0.255,0.961,0.35,1.435
								c0.369,1.907,0.517,3.771,0.613,5.628c0.089,1.861,0.114,3.686,0.077,5.561c-0.12-1.889-0.306-3.713-0.557-5.553
								c-0.259-1.828-0.577-3.658-1.089-5.404c-0.25-0.871-0.631-1.678-0.912-2.562c-0.294-0.872-0.547-1.764-0.778-2.665
								c-0.459-1.812-0.828-3.615-1.099-5.525L86.93,118.68z"/>
						</g>
					</g>
					<g>
						<path fill="#582B20" d="M120.955,111.992c0,0-1.734,6.781-1.852,9.564c-0.119,2.779-1.188,8.139-1.188,8.139"/>
						<g>
							<path opacity="0.54" fill="#582B20" enable-background="new    " d="M117.014,129.544c0.264-1.442,0.508-2.915,0.713-4.366
								c0.104-0.727,0.194-1.451,0.269-2.164c0.086-0.729,0.075-1.334,0.151-2.218c0.162-1.595,0.442-3.083,0.738-4.583
								c0.305-1.497,0.633-2.968,0.998-4.46c-0.195,1.528-0.357,3.03-0.492,4.544c-0.129,1.51-0.244,3.026-0.229,4.52
								c0.206,2.965-0.001,6.011-0.232,9.052L117.014,129.544z"/>
						</g>
					</g>
				</g>
			</g>
			
				<linearGradient id="SVGID_2_" gradientUnits="userSpaceOnUse" x1="230.7607" y1="-497.5337" x2="258.8353" y2="-641.8548" gradientTransform="matrix(1 0 0 -1 -150 -530)">
				<stop  offset="0.1758" style="stop-color:#A2F200"/>
				<stop  offset="1" style="stop-color:#3A9200"/>
			</linearGradient>
			<polygon fill="url(#SVGID_2_)" points="163.177,70.047 165.723,75.866 167.32,82.553 159.123,85.402 163.62,95.179 
				156.668,97.669 154.084,103.883 145.961,103.271 139.156,102.934 138.721,114.781 130.809,111.438 127.053,119.256 
				118.589,109.174 113.616,112.501 108.404,117.83 102.521,112.578 97.092,111.068 91.323,113.266 85.174,115.307 79.966,112.361 
				72.188,116.948 69.695,107.536 63.475,107.121 59.937,102.055 54.086,100.288 49.138,96.965 43.403,93.77 42.117,87.37 
				38.413,82.316 41.731,75.463 35.264,70.047 35.51,63.592 46.953,60.671 43.466,53.42 50.606,51.431 46.72,40.909 53.717,39.377 
				60.769,39.211 62.634,31.509 68.489,29.966 72.342,23.558 78.625,23.057 85.944,28.482 90.238,18.862 96.992,27.543 
				102.521,19.975 108.342,23.179 114.488,21.177 119.992,24.194 124.582,29.464 131.033,28.052 136.714,29.626 138.798,37.789 
				149.448,31.896 147.497,43.775 155.118,43.851 158.116,48.823 162.784,52.797 158.378,60.575 161.02,65.014 			"/>
			
				<linearGradient id="SVGID_3_" gradientUnits="userSpaceOnUse" x1="235.3252" y1="-547.3994" x2="271.0431" y2="-659.935" gradientTransform="matrix(1 0 0 -1 -150 -530)">
				<stop  offset="0.1758" style="stop-color:#A2F200"/>
				<stop  offset="1" style="stop-color:#3A9200"/>
			</linearGradient>
			<polygon fill="url(#SVGID_3_)" points="154.674,70.047 156.725,75.812 157.66,82.375 150.145,85.11 152.936,94.406 
				146.248,96.621 142.939,102.234 135.384,101.455 128.917,100.906 126.732,111.271 119.548,107.863 114.773,114.309 
				107.876,104.889 102.521,107.189 96.688,111.076 91.619,105.77 86.54,103.588 80.646,104.355 74.422,104.753 69.942,100.953 
				61.794,102.664 61.385,93.791 55.943,91.204 54.326,85.455 50.131,81.292 47.616,75.945 44.944,70.047 47.443,64.113 
				47.967,57.949 54.311,54.629 53.52,46.865 57.637,42.208 67.657,45.594 69.448,38.267 76.341,39.673 78.663,29.869 
				85.278,31.341 91.532,33.79 96.642,28.438 102.521,29.354 108.605,25.775 114.464,27.746 118.921,34.795 126.607,29.189 
				129.109,38.754 137.075,35.658 140.673,41.02 146.682,43.004 149.539,48.524 149.995,55.077 155.029,58.756 157.268,64.18 			"/>
			
				<linearGradient id="SVGID_4_" gradientUnits="userSpaceOnUse" x1="249.3867" y1="-586.418" x2="257.6052" y2="-662.1146" gradientTransform="matrix(1 0 0 -1 -150 -530)">
				<stop  offset="0.1758" style="stop-color:#A2F200"/>
				<stop  offset="1" style="stop-color:#3A9200"/>
			</linearGradient>
			<polygon fill="url(#SVGID_4_)" points="142.576,70.047 143.861,75.778 143.675,82.145 136.962,84.646 137.089,92.985 
				130.646,94.629 126.184,99.064 119.354,97.859 113.316,96.772 108.641,104.385 102.521,100.639 96.394,104.467 91.911,95.886 
				86.282,96.047 79.865,96.904 76.669,91.063 72.976,87.221 68.003,84.707 63.263,81.16 62.237,75.512 57.075,70.047 
				62.843,64.734 63.298,58.951 67.683,55.125 70.539,50.076 74.766,46.044 79.206,41.771 85.274,40.972 90.728,38.543 
				96.923,40.861 102.521,36.606 108.538,36.718 113.098,44.371 119.457,41.923 123.376,47.058 131.443,44.217 134.751,49.794 
				136.626,55.723 142.736,58.439 144.032,64.274 			"/>
			<polygon points="79.164,116.898 81.488,115.368 85.223,117.959 96.688,111.076 85.949,115.368 79.966,112.361 77.915,113.064 			
				"/>
			<polygon points="123.512,115.037 118.65,109.173 114.773,114.309 113.616,112.501 108.404,117.83 113.207,114.518 
				114.547,116.932 118.448,113.064 120.955,117.83 			"/>
		</g>
	</g>
</g>
</svg>
