<?xml version="1.0" encoding="utf-8"?>
<!-- Generator: Adobe Illustrator 15.0.0, SVG Export Plug-In . SVG Version: 6.00 Build 0)  -->
<!DOCTYPE svg PUBLIC "-//W3C//DTD SVG 1.1//EN" "http://www.w3.org/Graphics/SVG/1.1/DTD/svg11.dtd">
<svg version="1.1" id="Layer_1" xmlns="http://www.w3.org/2000/svg" xmlns:xlink="http://www.w3.org/1999/xlink" x="0px" y="0px"
	 width="200px" height="200px" viewBox="0 0 200 200" enable-background="new 0 0 200 200" xml:space="preserve">
<g id="icon">
	<g id="Layer_2">
	</g>
	<g id="Layer_1_1_">
		<g>
			<g>
				
					<radialGradient id="SVGID_1_" cx="2966.1094" cy="1181.6162" r="72.2042" gradientTransform="matrix(0.6353 0.9118 -1.0371 0.7225 -550.0692 -3466.636)" gradientUnits="userSpaceOnUse">
					<stop  offset="0" style="stop-color:#FFB352"/>
					<stop  offset="0.1754" style="stop-color:#FDAF4F"/>
					<stop  offset="0.36" style="stop-color:#F7A246"/>
					<stop  offset="0.5486" style="stop-color:#ED8D38"/>
					<stop  offset="0.7402" style="stop-color:#E07024"/>
					<stop  offset="0.9321" style="stop-color:#CE4A0A"/>
					<stop  offset="1" style="stop-color:#C73B00"/>
				</radialGradient>
				<path fill="url(#SVGID_1_)" d="M70.025,43.101c28.579-27.838,68.874-21.132,98.534,21.443
					c19.752,28.349-0.055,68.313-31.893,90.497s-74.199,29.779-95.942-1.43C11.004,110.962,21.717,66.31,58.501,50.808
					c1.397-0.587,2.435-1.809,3.678-2.675C64.731,46.356,67.803,45.266,70.025,43.101z"/>
				
					<radialGradient id="SVGID_2_" cx="2960.9854" cy="1178.2305" r="77.2381" gradientTransform="matrix(0.6353 0.9118 -0.8645 0.6023 -765.1655 -3325.605)" gradientUnits="userSpaceOnUse">
					<stop  offset="0.0552" style="stop-color:#F03200;stop-opacity:0"/>
					<stop  offset="0.6258" style="stop-color:#D92700;stop-opacity:0.6684"/>
					<stop  offset="0.8461" style="stop-color:#910400;stop-opacity:0.9754"/>
					<stop  offset="0.8675" style="stop-color:#880000"/>
					<stop  offset="1" style="stop-color:#C74900;stop-opacity:0"/>
				</radialGradient>
				<path opacity="0.53" fill="url(#SVGID_2_)" enable-background="new    " d="M168.561,64.544
					c19.752,28.349-0.056,68.313-31.894,90.497s-74.199,29.779-95.942-1.43C9.797,109.229,30.343,70.318,62.18,48.134
					C94.019,25.95,136.314,18.26,168.561,64.544z"/>
				
					<radialGradient id="SVGID_3_" cx="879.3701" cy="122.9248" r="18.7414" gradientTransform="matrix(0.6549 0.7557 -1.6907 1.4653 -298.2927 -790.0791)" gradientUnits="userSpaceOnUse">
					<stop  offset="0" style="stop-color:#650000"/>
					<stop  offset="1" style="stop-color:#C74900;stop-opacity:0"/>
				</radialGradient>
				<path fill="url(#SVGID_3_)" d="M168.561,64.544c19.752,28.349-0.056,68.313-31.894,90.497s-74.199,29.779-95.942-1.43
					C9.797,109.229,30.343,70.318,62.18,48.134C94.019,25.95,136.314,18.26,168.561,64.544z"/>
				
					<radialGradient id="SVGID_4_" cx="-1914.1514" cy="226.7656" r="32.6496" gradientTransform="matrix(-0.4568 -0.8896 2.552 -1.3105 -1318.3126 -1245.579)" gradientUnits="userSpaceOnUse">
					<stop  offset="0" style="stop-color:#600000"/>
					<stop  offset="1" style="stop-color:#C74900;stop-opacity:0"/>
				</radialGradient>
				<path fill="url(#SVGID_4_)" d="M168.561,64.544c19.752,28.349-0.056,68.313-31.894,90.497s-74.199,29.779-95.942-1.43
					C9.797,109.229,30.343,70.318,62.18,48.134C94.019,25.95,136.314,18.26,168.561,64.544z"/>
				<g>
					
						<radialGradient id="SVGID_5_" cx="1074.1846" cy="2441.7031" r="16.8948" gradientTransform="matrix(0.9336 -0.6505 0.6353 0.9118 -2498.1865 -1446.2637)" gradientUnits="userSpaceOnUse">
						<stop  offset="0" style="stop-color:#000000"/>
						<stop  offset="0.1283" style="stop-color:#040100"/>
						<stop  offset="0.2632" style="stop-color:#110500"/>
						<stop  offset="0.4013" style="stop-color:#260B00"/>
						<stop  offset="0.5415" style="stop-color:#431300"/>
						<stop  offset="0.6834" style="stop-color:#691D00"/>
						<stop  offset="0.8267" style="stop-color:#982A00"/>
						<stop  offset="0.9686" style="stop-color:#CE3900"/>
						<stop  offset="1" style="stop-color:#DB3D00"/>
					</radialGradient>
					<path opacity="0.18" fill="url(#SVGID_5_)" enable-background="new    " d="M62.669,55.665c0,0-11.841,6.203-14.865,23.256
						c-2.996,16.88,1.618,28.521,1.618,28.521s-6.919-13.83-2.792-31.875C50.175,60.062,62.669,55.665,62.669,55.665z"/>
					
						<radialGradient id="SVGID_6_" cx="-4671.3198" cy="3106.7168" r="16.3787" gradientTransform="matrix(-0.7644 0.841 0.8313 0.7397 -6059.791 1675.1798)" gradientUnits="userSpaceOnUse">
						<stop  offset="0" style="stop-color:#000000"/>
						<stop  offset="0.1283" style="stop-color:#040100"/>
						<stop  offset="0.2632" style="stop-color:#110500"/>
						<stop  offset="0.4013" style="stop-color:#260B00"/>
						<stop  offset="0.5415" style="stop-color:#431300"/>
						<stop  offset="0.6834" style="stop-color:#691D00"/>
						<stop  offset="0.8267" style="stop-color:#982A00"/>
						<stop  offset="0.9686" style="stop-color:#CE3900"/>
						<stop  offset="1" style="stop-color:#DB3D00"/>
					</radialGradient>
					<path opacity="0.18" fill="url(#SVGID_6_)" enable-background="new    " d="M67.817,48.285c0,0,5.887-8.275,26.354-10.398
						c17.161-1.774,25.406,3.312,25.406,3.312s-10.009-6.711-28.439-4.04C71.206,40.045,67.817,48.285,67.817,48.285z"/>
					
						<radialGradient id="SVGID_7_" cx="2022.1475" cy="1541.0654" r="17.9598" gradientTransform="matrix(1.0538 -0.4258 0.4059 1.0361 -2708.9175 -659.2852)" gradientUnits="userSpaceOnUse">
						<stop  offset="0" style="stop-color:#000000"/>
						<stop  offset="0.1283" style="stop-color:#040100"/>
						<stop  offset="0.2632" style="stop-color:#110500"/>
						<stop  offset="0.4013" style="stop-color:#260B00"/>
						<stop  offset="0.5415" style="stop-color:#431300"/>
						<stop  offset="0.6834" style="stop-color:#691D00"/>
						<stop  offset="0.8267" style="stop-color:#982A00"/>
						<stop  offset="0.9686" style="stop-color:#CE3900"/>
						<stop  offset="1" style="stop-color:#DB3D00"/>
					</radialGradient>
					<path opacity="0.18" fill="url(#SVGID_7_)" enable-background="new    " d="M61.841,51.409c0,0-12.732,8.077-21.812,26.541
						c-7.614,15.484-6.791,23.403-6.791,23.403s-1.733-10.14,7.154-26.501C50.007,57.152,61.841,51.409,61.841,51.409z"/>
					
						<radialGradient id="SVGID_8_" cx="3782.4727" cy="2441.79" r="15.6536" gradientTransform="matrix(0.5219 -0.3636 0.6353 0.9118 -3458.0156 -777.0754)" gradientUnits="userSpaceOnUse">
						<stop  offset="0" style="stop-color:#000000"/>
						<stop  offset="0.1283" style="stop-color:#040100"/>
						<stop  offset="0.2632" style="stop-color:#110500"/>
						<stop  offset="0.4013" style="stop-color:#260B00"/>
						<stop  offset="0.5415" style="stop-color:#431300"/>
						<stop  offset="0.6834" style="stop-color:#691D00"/>
						<stop  offset="0.8267" style="stop-color:#982A00"/>
						<stop  offset="0.9686" style="stop-color:#CE3900"/>
						<stop  offset="1" style="stop-color:#DB3D00"/>
					</radialGradient>
					<path opacity="0.18" fill="url(#SVGID_8_)" enable-background="new    " d="M65.178,54.109c0,0-3.931,1.448-2.531,15.416
						c1.384,13.829,7.037,24.746,7.037,24.746s-7.726-13.268-8.555-27.859C60.413,53.877,65.178,54.109,65.178,54.109z"/>
					
						<radialGradient id="SVGID_9_" cx="-6996.7402" cy="4553.7695" r="15.2147" gradientTransform="matrix(-0.6033 0.4747 0.478 0.6041 -6310.2251 620.3419)" gradientUnits="userSpaceOnUse">
						<stop  offset="0" style="stop-color:#000000"/>
						<stop  offset="0.1283" style="stop-color:#040100"/>
						<stop  offset="0.2632" style="stop-color:#110500"/>
						<stop  offset="0.4013" style="stop-color:#260B00"/>
						<stop  offset="0.5415" style="stop-color:#431300"/>
						<stop  offset="0.6834" style="stop-color:#691D00"/>
						<stop  offset="0.8267" style="stop-color:#982A00"/>
						<stop  offset="0.9686" style="stop-color:#CE3900"/>
						<stop  offset="1" style="stop-color:#DB3D00"/>
					</radialGradient>
					<path opacity="0.18" fill="url(#SVGID_9_)" enable-background="new    " d="M71.323,48.071c0,0,3.392-3.599,15.15-2.035
						c11.639,1.547,17.579,5.932,17.579,5.932s-6.941-6.344-19.561-7.396C73.651,43.67,71.323,48.071,71.323,48.071z"/>
					
						<radialGradient id="SVGID_10_" cx="2211.9902" cy="3038.624" r="11.1727" gradientTransform="matrix(0.4408 -0.4579 0.8084 0.764 -3351.0671 -1245.725)" gradientUnits="userSpaceOnUse">
						<stop  offset="0" style="stop-color:#000000"/>
						<stop  offset="0.1283" style="stop-color:#040100"/>
						<stop  offset="0.2632" style="stop-color:#110500"/>
						<stop  offset="0.4013" style="stop-color:#260B00"/>
						<stop  offset="0.5415" style="stop-color:#431300"/>
						<stop  offset="0.6834" style="stop-color:#691D00"/>
						<stop  offset="0.8267" style="stop-color:#982A00"/>
						<stop  offset="0.9686" style="stop-color:#CE3900"/>
						<stop  offset="1" style="stop-color:#DB3D00"/>
					</radialGradient>
					<path opacity="0.18" fill="url(#SVGID_10_)" enable-background="new    " d="M68.751,50.449c0,0,0.856-2.913,8.826,7.901
						c8.197,11.129,13.605,17.997,13.605,17.997s-6.959-8.544-16.424-19.563C69.765,50.971,68.751,50.449,68.751,50.449z"/>
				</g>
				
					<radialGradient id="SVGID_11_" cx="-5756.7202" cy="-7197.8252" r="16.4938" gradientTransform="matrix(-0.9336 0.6505 -0.4691 -0.6732 -8604.7217 -968.8046)" gradientUnits="userSpaceOnUse">
					<stop  offset="0" style="stop-color:#000000"/>
					<stop  offset="0.1283" style="stop-color:#040100"/>
					<stop  offset="0.2632" style="stop-color:#110500"/>
					<stop  offset="0.4013" style="stop-color:#260B00"/>
					<stop  offset="0.5415" style="stop-color:#431300"/>
					<stop  offset="0.6834" style="stop-color:#691D00"/>
					<stop  offset="0.8267" style="stop-color:#982A00"/>
					<stop  offset="0.9686" style="stop-color:#CE3900"/>
					<stop  offset="1" style="stop-color:#DB3D00"/>
				</radialGradient>
				<path opacity="0.18" fill="url(#SVGID_11_)" enable-background="new    " d="M136.494,153.415c0,0,11.59-6.562,16.449-20.983
					c4.812-14.272,2.83-22.137,2.83-22.137s3.816,9.381-2.168,24.757C148.461,148.258,136.494,153.415,136.494,153.415z"/>
				
					<radialGradient id="SVGID_12_" cx="39.2617" cy="-6749.21" r="16.4278" gradientTransform="matrix(0.7755 -0.8249 -0.7832 -0.6707 -5211.5947 -4331.3794)" gradientUnits="userSpaceOnUse">
					<stop  offset="0" style="stop-color:#000000"/>
					<stop  offset="0.1283" style="stop-color:#040100"/>
					<stop  offset="0.2632" style="stop-color:#110500"/>
					<stop  offset="0.4013" style="stop-color:#260B00"/>
					<stop  offset="0.5415" style="stop-color:#431300"/>
					<stop  offset="0.6834" style="stop-color:#691D00"/>
					<stop  offset="0.8267" style="stop-color:#982A00"/>
					<stop  offset="0.9686" style="stop-color:#CE3900"/>
					<stop  offset="1" style="stop-color:#DB3D00"/>
				</radialGradient>
				<path opacity="0.18" fill="url(#SVGID_12_)" enable-background="new    " d="M130.34,158.361c0,0-7.363,7.146-27.386,9.897
					c-16.791,2.312-23.627-0.76-23.627-0.76s8.545,4.851,26.556,1.344C123.465,165.428,130.34,158.361,130.34,158.361z"/>
				
					<radialGradient id="SVGID_13_" cx="-6571.291" cy="-5202.6069" r="17.3657" gradientTransform="matrix(-1.0425 0.4418 -0.3578 -0.967 -8560.7256 -1996.9797)" gradientUnits="userSpaceOnUse">
					<stop  offset="0" style="stop-color:#000000"/>
					<stop  offset="0.1283" style="stop-color:#040100"/>
					<stop  offset="0.2632" style="stop-color:#110500"/>
					<stop  offset="0.4013" style="stop-color:#260B00"/>
					<stop  offset="0.5415" style="stop-color:#431300"/>
					<stop  offset="0.6834" style="stop-color:#691D00"/>
					<stop  offset="0.8267" style="stop-color:#982A00"/>
					<stop  offset="0.9686" style="stop-color:#CE3900"/>
					<stop  offset="1" style="stop-color:#DB3D00"/>
				</radialGradient>
				<path opacity="0.18" fill="url(#SVGID_13_)" enable-background="new    " d="M137.008,154.139c0,0,11.661-6.533,21.186-24.363
					c7.981-14.945,7.477-22.428,7.477-22.428s1.812,9.834-7.939,25.379C147.878,148.416,137.008,154.139,137.008,154.139z"/>
				
					<radialGradient id="SVGID_14_" cx="-8437.7139" cy="-6938.5337" r="14.8513" gradientTransform="matrix(-0.5219 0.3636 -0.4919 -0.7061 -7681.2031 -1691.541)" gradientUnits="userSpaceOnUse">
					<stop  offset="0" style="stop-color:#000000"/>
					<stop  offset="0.1283" style="stop-color:#040100"/>
					<stop  offset="0.2632" style="stop-color:#110500"/>
					<stop  offset="0.4013" style="stop-color:#260B00"/>
					<stop  offset="0.5415" style="stop-color:#431300"/>
					<stop  offset="0.6834" style="stop-color:#691D00"/>
					<stop  offset="0.8267" style="stop-color:#982A00"/>
					<stop  offset="0.9686" style="stop-color:#CE3900"/>
					<stop  offset="1" style="stop-color:#DB3D00"/>
				</radialGradient>
				<path opacity="0.18" fill="url(#SVGID_14_)" enable-background="new    " d="M134.916,155.314c0,0,3.745-0.729,3.93-12.424
					c0.178-11.582-3.053-19.023-3.053-19.023s4.9,9.218,4.126,21.504C139.257,155.93,134.916,155.314,134.916,155.314z"/>
				
					<radialGradient id="SVGID_15_" cx="2310.0547" cy="-9111.6768" r="15.2138" gradientTransform="matrix(0.6079 -0.4681 -0.3989 -0.4904 -4927.23 -3227.6606)" gradientUnits="userSpaceOnUse">
					<stop  offset="0" style="stop-color:#000000"/>
					<stop  offset="0.1283" style="stop-color:#040100"/>
					<stop  offset="0.2632" style="stop-color:#110500"/>
					<stop  offset="0.4013" style="stop-color:#260B00"/>
					<stop  offset="0.5415" style="stop-color:#431300"/>
					<stop  offset="0.6834" style="stop-color:#691D00"/>
					<stop  offset="0.8267" style="stop-color:#982A00"/>
					<stop  offset="0.9686" style="stop-color:#CE3900"/>
					<stop  offset="1" style="stop-color:#DB3D00"/>
				</radialGradient>
				<path opacity="0.18" fill="url(#SVGID_15_)" enable-background="new    " d="M126.871,159.618c0,0-3.493,3.45-14.43,3.071
					c-10.824-0.377-16.042-3.729-16.042-3.729s5.996,4.987,17.783,4.847C124.311,163.684,126.871,159.618,126.871,159.618z"/>
				
					<radialGradient id="SVGID_16_" cx="341.6016" cy="-13976.8242" r="13.2363" gradientTransform="matrix(-0.3153 0.8766 -0.5379 0.0653 -7286.8462 768.7633)" gradientUnits="userSpaceOnUse">
					<stop  offset="0" style="stop-color:#000000"/>
					<stop  offset="0.1283" style="stop-color:#040100"/>
					<stop  offset="0.2632" style="stop-color:#110500"/>
					<stop  offset="0.4013" style="stop-color:#260B00"/>
					<stop  offset="0.5415" style="stop-color:#431300"/>
					<stop  offset="0.6834" style="stop-color:#691D00"/>
					<stop  offset="0.8267" style="stop-color:#982A00"/>
					<stop  offset="0.9686" style="stop-color:#CE3900"/>
					<stop  offset="1" style="stop-color:#DB3D00"/>
				</radialGradient>
				<path opacity="0.18" fill="url(#SVGID_16_)" enable-background="new    " d="M132.257,157.521c0,0-2.858,2.033-10.319-0.77
					c-5.386-2.021-6.892-3.623-6.892-3.623s6.295,3.117,12.543,4.352C130.885,158.131,132.257,157.521,132.257,157.521z"/>
				
					<linearGradient id="SVGID_17_" gradientUnits="userSpaceOnUse" x1="462.2031" y1="2666.1338" x2="468.7966" y2="2611.4626" gradientTransform="matrix(0.8205 -0.5717 0.5717 0.8205 -1830.7565 -1802.6562)">
					<stop  offset="0.1902" style="stop-color:#FFAE58;stop-opacity:0"/>
					<stop  offset="1" style="stop-color:#FFC777"/>
				</linearGradient>
				<path opacity="0.43" fill="url(#SVGID_17_)" enable-background="new    " d="M58.905,67.96c0,0,0.22-4.705-2.936-4.213
					c-3.154,0.489-7.607,13.326-7.384,29.956c0.227,16.627,10.854,33.974,19.264,25.555c8.406-8.421,4.09-12.521-1.853-28.58
					C60.051,74.62,58.905,67.96,58.905,67.96z"/>
				
					<linearGradient id="SVGID_18_" gradientUnits="userSpaceOnUse" x1="452.7988" y1="2653.2012" x2="458.6465" y2="2604.7126" gradientTransform="matrix(0.8205 -0.5717 0.5717 0.8205 -1830.7565 -1802.6562)">
					<stop  offset="0.1902" style="stop-color:#FFAE58;stop-opacity:0"/>
					<stop  offset="1" style="stop-color:#FFC777"/>
				</linearGradient>
				<path opacity="0.43" fill="url(#SVGID_18_)" enable-background="new    " d="M49.286,66.696c0,0,4.229-5.222,3.881-6.972
					c-0.348-1.751-9.561,8.434-14.518,20.135c-4.953,11.702-8.641,39.021-2.031,41.813c6.605,2.792,10.84-10.807,8.887-26.96
					C43.788,80.547,46.253,72.793,49.286,66.696z"/>
				
					<linearGradient id="SVGID_19_" gradientUnits="userSpaceOnUse" x1="487.874" y1="2662.8281" x2="493.9514" y2="2612.4365" gradientTransform="matrix(0.8205 -0.5717 0.5717 0.8205 -1830.7565 -1802.6562)">
					<stop  offset="0.1902" style="stop-color:#FFAE58;stop-opacity:0"/>
					<stop  offset="1" style="stop-color:#FFC777"/>
				</linearGradient>
				<path opacity="0.43" fill="url(#SVGID_19_)" enable-background="new    " d="M65.531,59.077c2.421-6.912,6.08-4.235,9.737-0.242
					c3.655,3.997,20.104,21.331,19.478,24.611c-0.626,3.28-9.77,29.963-16.862,18.861C71.472,92.268,61.049,71.872,65.531,59.077z"
					/>
				
					<linearGradient id="SVGID_20_" gradientUnits="userSpaceOnUse" x1="511.4883" y1="2656.915" x2="516.9642" y2="2611.5098" gradientTransform="matrix(0.8205 -0.5717 0.5717 0.8205 -1830.7565 -1802.6562)">
					<stop  offset="0.1902" style="stop-color:#FFAE58;stop-opacity:0"/>
					<stop  offset="1" style="stop-color:#FFC777"/>
				</linearGradient>
				<path opacity="0.43" fill="url(#SVGID_20_)" enable-background="new    " d="M77.241,56.514c0,0-4.033-4.397-4.398-6.036
					c-0.542-2.411,4.907-4.939,11.547-3.496c6.637,1.444,21.062,6.815,27.189,14.498c6.126,7.679,7.19,14.117-1.92,19.543
					c-5.626,3.353-12.504-0.39-17.352-7.064C87.464,67.278,80.56,59.321,77.241,56.514z"/>
				
					<linearGradient id="SVGID_21_" gradientUnits="userSpaceOnUse" x1="525.3164" y1="2644.2725" x2="529.53" y2="2609.3352" gradientTransform="matrix(0.8205 -0.5717 0.5717 0.8205 -1830.7565 -1802.6562)">
					<stop  offset="0.1902" style="stop-color:#FFAE58;stop-opacity:0"/>
					<stop  offset="1" style="stop-color:#FFC777"/>
				</linearGradient>
				<path opacity="0.43" fill="url(#SVGID_21_)" enable-background="new    " d="M84.852,40.399c0,0-8.884,2.019-7.167,3.095
					c1.725,1.077,10.909-1.907,21.62,3.716c10.714,5.622,24.218,15.808,24.861,9.481c0.641-6.327,0.922-13.729-9.107-16.416
					C105.029,37.59,88.925,39.835,84.852,40.399z"/>
				
					<linearGradient id="SVGID_22_" gradientUnits="userSpaceOnUse" x1="702.0371" y1="-7872.7656" x2="708.4036" y2="-7925.5552" gradientTransform="matrix(0.8587 -0.4221 -0.3424 -0.5123 -3211.0139 -3595.0359)">
					<stop  offset="0.1902" style="stop-color:#FFAE58;stop-opacity:0"/>
					<stop  offset="1" style="stop-color:#FFC777"/>
				</linearGradient>
				<path opacity="0.27" fill="url(#SVGID_22_)" enable-background="new    " d="M119.812,159.277c0,0,3.732,0.695,1.758,2.634
					c-1.979,1.938-9.338,5.504-22.036,2.407c-12.695-3.103-24.806-15.004-14.055-18.902c10.756-3.898,11.724-0.4,21.083,6.264
					C115.92,158.343,119.812,159.277,119.812,159.277z"/>
				
					<linearGradient id="SVGID_23_" gradientUnits="userSpaceOnUse" x1="443.8164" y1="-8976.3652" x2="448.3605" y2="-9014.0439" gradientTransform="matrix(0.8205 -0.5717 -0.3341 -0.4796 -3288.1614 -3894.8496)">
					<stop  offset="0.1902" style="stop-color:#FFAE58;stop-opacity:0"/>
					<stop  offset="1" style="stop-color:#FFC777"/>
				</linearGradient>
				<path opacity="0.27" fill="url(#SVGID_23_)" enable-background="new    " d="M89.691,165.51
					c6.063,1.182,10.896,0.59,10.896,0.59c-11.087,2.904-20.122,4.985-32.056-1.271C63.948,162.421,79.663,163.562,89.691,165.51z"
					/>
				
					<linearGradient id="SVGID_24_" gradientUnits="userSpaceOnUse" x1="488.2822" y1="-8980.1855" x2="494.2272" y2="-9029.4814" gradientTransform="matrix(0.8205 -0.5717 -0.3341 -0.4796 -3288.1614 -3894.8496)">
					<stop  offset="0.1902" style="stop-color:#FFAE58;stop-opacity:0"/>
					<stop  offset="1" style="stop-color:#FFC777"/>
				</linearGradient>
				<path opacity="0.27" fill="url(#SVGID_24_)" enable-background="new    " d="M131.57,156.368
					c4.807-1.069,5.133-5.177,4.555-10.185c-0.354-3.057-4.954-14.644-7.646-14.324c-2.69,0.312-26.588,5.826-22.023,11.447
					C110.575,148.391,124.258,157.994,131.57,156.368z"/>
				
					<linearGradient id="SVGID_25_" gradientUnits="userSpaceOnUse" x1="513.5039" y1="-8981.2266" x2="518.7515" y2="-9024.7383" gradientTransform="matrix(0.8205 -0.5717 -0.3341 -0.4796 -3288.1614 -3894.8496)">
					<stop  offset="0.1902" style="stop-color:#FFAE58;stop-opacity:0"/>
					<stop  offset="1" style="stop-color:#FFC777"/>
				</linearGradient>
				<path opacity="0.27" fill="url(#SVGID_25_)" enable-background="new    " d="M139.357,142.738c0,0,1.322,3.292,2.365,3.675
					c1.528,0.562,6.039-3.319,8.164-8.349c2.127-5.031,5.729-15.19,2.979-20.254c-2.754-5.067-7.022-6.285-15.45,0.125
					c-5.203,3.955-5.738,9.314-3.114,13.359C136.926,135.348,138.871,140.086,139.357,142.738z"/>
				
					<linearGradient id="SVGID_26_" gradientUnits="userSpaceOnUse" x1="512.1943" y1="-8922.3252" x2="516.177" y2="-8955.3486" gradientTransform="matrix(0.6459 -0.6352 -0.4059 -0.5056 -3802.2998 -4080.502)">
					<stop  offset="0.1902" style="stop-color:#FFAE58;stop-opacity:0"/>
					<stop  offset="1" style="stop-color:#FFC777"/>
				</linearGradient>
				<path opacity="0.27" fill="url(#SVGID_26_)" enable-background="new    " d="M159.562,127.684c0,0-4.078,7.065-4.321,5.621
					c-0.245-1.447,4.604-8.705,3.853-17.654c-0.758-8.944-3.109-19.42,1.537-19.604c4.65-0.183,9.942-0.018,8.835,8.223
					C168.357,112.506,161.18,124.423,159.562,127.684z"/>
				<path opacity="0.2" fill="none" stroke="#BF3913" stroke-width="5" stroke-miterlimit="10" enable-background="new    " d="
					M63.442,53.988c0,0-8.452,30.712,26.33,73.323c22.408,27.451,32.925,30.31,37.816,30.17"/>
				<path opacity="0.2" fill="none" stroke="#BF3913" stroke-width="5" stroke-miterlimit="10" enable-background="new    " d="
					M68.934,50.162c0,0,19.265,11.401,49.314,57.308c18.784,28.688,22.456,38.574,22.898,41.962"/>
				<path opacity="0.2" fill="none" stroke="#BF3913" stroke-width="5" stroke-miterlimit="10" enable-background="new    " d="
					M74.815,46.064c0,0,28.88-10.389,69.147,44.06c16.075,21.737,15.646,36.579,11.819,45.646"/>
				<path opacity="0.2" fill="none" stroke="#BF3913" stroke-width="5" stroke-miterlimit="10" enable-background="new    " d="
					M73.021,43.492c0,0,45.943-22.613,85.552,28.523c15.813,20.414,11.202,45.062,2.411,57.299"/>
				<path opacity="0.2" fill="none" stroke="#BF3913" stroke-width="5" stroke-miterlimit="10" enable-background="new    " d="
					M50.282,60.61c0,0-38.084,35.929-3.892,90.841c13.647,21.927,46.964,20.146,61.758,15.951"/>
				<path opacity="0.2" fill="none" stroke="#BF3913" stroke-width="5" stroke-miterlimit="10" enable-background="new    " d="
					M57.756,57.95c0,0-28.618,31.666,8.878,85.481c15.562,22.338,29.145,23.555,40.617,22.049"/>
				
					<radialGradient id="SVGID_27_" cx="2261.1045" cy="1612.2666" r="25.7626" gradientTransform="matrix(0.972 0.5486 -0.6431 1.0925 -1109.6719 -2954.2588)" gradientUnits="userSpaceOnUse">
					<stop  offset="0" style="stop-color:#DB3D00"/>
					<stop  offset="0.0314" style="stop-color:#CE3900"/>
					<stop  offset="0.1733" style="stop-color:#982A00"/>
					<stop  offset="0.3166" style="stop-color:#691D00"/>
					<stop  offset="0.4585" style="stop-color:#431300"/>
					<stop  offset="0.5987" style="stop-color:#260B00"/>
					<stop  offset="0.7368" style="stop-color:#110500"/>
					<stop  offset="0.8717" style="stop-color:#040100"/>
					<stop  offset="1" style="stop-color:#000000"/>
				</radialGradient>
				<path fill="url(#SVGID_27_)" d="M57.009,51.968c1.206,1.833-0.784,4.239,0.747,5.982c0,0,6.111,5.86,15.266-1.339
					c5.389-4.238-1.16-6.058,1.785-8.835c2.274-2.145-5.687-1.843-7.093-2.894c-2.526-1.885-2.115-18.463-2.115-18.463
					s-5.346-3.105-12.438,2.665C49.886,31.753,52.882,45.704,57.009,51.968z"/>
				
					<radialGradient id="SVGID_28_" cx="1108.8809" cy="2487.0742" r="22.0606" gradientTransform="matrix(0.9336 -0.6505 0.6231 0.8943 -2515.0913 -1470.4541)" gradientUnits="userSpaceOnUse">
					<stop  offset="0.2331" style="stop-color:#FFFF00"/>
					<stop  offset="1" style="stop-color:#6F0000;stop-opacity:0"/>
				</radialGradient>
				<path fill="url(#SVGID_28_)" d="M57.9,51.968c1.206,1.833-1.676,4.239-0.145,5.982c0,0,5.631,5.462,14.785-1.737
					c5.389-4.238-0.893-4.804,2.301-9.653c0.879-1.335-5.722-0.626-7.128-1.677c-2.526-1.885-2.115-18.463-2.115-18.463
					s-5.346-3.105-12.438,2.665C49.886,31.753,53.773,45.704,57.9,51.968z"/>
			</g>
		</g>
	</g>
</g>
</svg>
