<?xml version="1.0" encoding="utf-8"?>
<!-- Generator: Adobe Illustrator 15.0.0, SVG Export Plug-In . SVG Version: 6.00 Build 0)  -->
<!DOCTYPE svg PUBLIC "-//W3C//DTD SVG 1.1//EN" "http://www.w3.org/Graphics/SVG/1.1/DTD/svg11.dtd">
<svg version="1.1" id="Layer_1" xmlns="http://www.w3.org/2000/svg" xmlns:xlink="http://www.w3.org/1999/xlink" x="0px" y="0px"
	 width="200px" height="200px" viewBox="0 0 200 200" enable-background="new 0 0 200 200" xml:space="preserve">
<g id="icon">
	<g id="Layer_2">
	</g>
	<g>
		
			<linearGradient id="SVGID_1_" gradientUnits="userSpaceOnUse" x1="311.5723" y1="-1263.8267" x2="387.9551" y2="-1263.8267" gradientTransform="matrix(1 0 0 -1 -250 -1121)">
			<stop  offset="0" style="stop-color:#A2927E"/>
			<stop  offset="0.0572" style="stop-color:#BEB19A"/>
			<stop  offset="0.1199" style="stop-color:#D6CCB2"/>
			<stop  offset="0.1888" style="stop-color:#E8E0C5"/>
			<stop  offset="0.2662" style="stop-color:#F5EFD2"/>
			<stop  offset="0.3592" style="stop-color:#FDF7DA"/>
			<stop  offset="0.5092" style="stop-color:#FFFADC"/>
			<stop  offset="0.603" style="stop-color:#FBF6D8"/>
			<stop  offset="0.7001" style="stop-color:#F0E9CD"/>
			<stop  offset="0.7989" style="stop-color:#DED5BB"/>
			<stop  offset="0.8987" style="stop-color:#C4B8A2"/>
			<stop  offset="0.9985" style="stop-color:#A39382"/>
			<stop  offset="1" style="stop-color:#A29281"/>
		</linearGradient>
		<path fill="url(#SVGID_1_)" d="M99.762,177.275c-21.059,0-38.19-12.518-38.19-27.896c0-7.791,4.463-15.27,12.245-20.514
			l0.746-0.496c2.312-1.521,5.478-3.613,7.751-7.321c5.085-8.289,11.118-12.67,17.448-12.67c6.298,0,12.28,4.302,16.41,11.796
			c2.258,4.1,5.994,6.443,8.227,7.848l0.438,0.271c8.338,5.282,13.119,12.968,13.119,21.087
			C137.95,164.764,120.818,177.275,99.762,177.275z"/>
		<g>
			
				<radialGradient id="SVGID_2_" cx="349.7656" cy="-1896.9761" r="60.595" gradientTransform="matrix(1 0 0 -0.6951 -250 -1190.7067)" gradientUnits="userSpaceOnUse">
				<stop  offset="0.5828" style="stop-color:#A2927E"/>
				<stop  offset="0.6031" style="stop-color:#A2927E;stop-opacity:0.9515"/>
				<stop  offset="1" style="stop-color:#A29281;stop-opacity:0"/>
			</radialGradient>
			<path fill="url(#SVGID_2_)" d="M113.544,121.624c2.791,5.065,7.324,7.713,9.683,9.206c7.195,4.559,11.729,11.182,11.729,18.552
				c0,13.75-15.76,24.894-35.188,24.894c-19.435,0-35.19-11.144-35.19-24.894c0-7.093,4.194-13.491,10.922-18.026
				c2.33-1.564,6.476-4.004,9.378-8.731c3.877-6.319,8.953-11.238,14.891-11.238C105.363,111.381,110.258,115.659,113.544,121.624z"
				/>
		</g>
		
			<radialGradient id="SVGID_3_" cx="351.3066" cy="-1463.3721" r="79.1851" fx="350.653" fy="-1438.3418" gradientTransform="matrix(1 0 0 -0.8476 -250 -1163.6421)" gradientUnits="userSpaceOnUse">
			<stop  offset="0" style="stop-color:#FF9200"/>
			<stop  offset="0.1919" style="stop-color:#FF8500"/>
			<stop  offset="0.5463" style="stop-color:#FF6300"/>
			<stop  offset="0.6626" style="stop-color:#FF5600"/>
			<stop  offset="0.8221" style="stop-color:#E34700"/>
			<stop  offset="1" style="stop-color:#FF5D00"/>
		</radialGradient>
		<path fill="url(#SVGID_3_)" d="M100.001,148.295c-38.427,0-69.688-25.958-69.688-57.864c0-31.31,30.441-67.706,69.688-67.706
			c39.246,0,69.687,36.396,69.687,67.706C169.688,122.337,138.426,148.295,100.001,148.295z"/>
		
			<radialGradient id="SVGID_4_" cx="348.4395" cy="-1154.6929" r="112.2067" gradientTransform="matrix(1 0 0 -1 -250 -1121)" gradientUnits="userSpaceOnUse">
			<stop  offset="0" style="stop-color:#FFE300"/>
			<stop  offset="1" style="stop-color:#F7941E"/>
		</radialGradient>
		<path fill="url(#SVGID_4_)" d="M120.649,27.065c0.013-0.017,0.019-0.034,0.03-0.049c-5.729-1.99-11.77-3.194-18.025-3.468
			c0.651,2.313,2.053,4.417,4.012,5.769C110.92,32.253,117.574,31.519,120.649,27.065z"/>
		
			<radialGradient id="SVGID_5_" cx="349.6396" cy="-1157.269" r="135.423" gradientTransform="matrix(1 0 0 -1 -250 -1121)" gradientUnits="userSpaceOnUse">
			<stop  offset="0" style="stop-color:#FFE300"/>
			<stop  offset="1" style="stop-color:#F7941E"/>
		</radialGradient>
		<path fill="url(#SVGID_5_)" d="M72.788,33.723c0.955,0.894,2.191,1.549,3.629,1.831c4.018,0.782,8.06-1.625,9.03-5.38
			c0.425-1.642,0.224-3.356-0.455-4.839c-4.905,1.218-9.614,3-14.068,5.249C70.827,31.531,71.348,32.568,72.788,33.723z"/>
		
			<radialGradient id="SVGID_6_" cx="347.8721" cy="-1157.4253" r="118.3841" gradientTransform="matrix(1 0 0 -1 -250 -1121)" gradientUnits="userSpaceOnUse">
			<stop  offset="0" style="stop-color:#FFE300"/>
			<stop  offset="1" style="stop-color:#F7941E"/>
		</radialGradient>
		<path fill="url(#SVGID_6_)" d="M99.501,89.176c-6.977,0-13.826,6.861-13.826,13.226c0,7.306,6.85,13.222,13.826,13.222
			c6.977,0,13.813-5.916,13.813-13.222C113.314,95.097,106.479,89.176,99.501,89.176z"/>
		
			<radialGradient id="SVGID_7_" cx="347.8643" cy="-1157.4307" r="118.3932" gradientTransform="matrix(1 0 0 -1 -250 -1121)" gradientUnits="userSpaceOnUse">
			<stop  offset="0" style="stop-color:#FFE300"/>
			<stop  offset="1" style="stop-color:#F7941E"/>
		</radialGradient>
		<path fill="url(#SVGID_7_)" d="M131.544,72.454c-4.367,0.887-7.783,6.048-6.977,10.03c0.928,4.572,5.964,7.408,10.332,6.522
			c4.364-0.885,7.894-5.456,6.966-10.029C140.937,74.406,135.908,71.568,131.544,72.454z"/>
		
			<radialGradient id="SVGID_8_" cx="347.8809" cy="-1157.4272" r="118.3709" gradientTransform="matrix(1 0 0 -1 -250 -1121)" gradientUnits="userSpaceOnUse">
			<stop  offset="0" style="stop-color:#FFE300"/>
			<stop  offset="1" style="stop-color:#F7941E"/>
		</radialGradient>
		<path fill="url(#SVGID_8_)" d="M165.685,74.832c-4.54,1.811-8.44,8.271-8.44,14.344c0,7.423,4.42,13.559,9.332,14.662
			c1.72-4.276,2.657-8.788,2.657-13.458C169.233,84.947,167.986,79.719,165.685,74.832z"/>
		
			<radialGradient id="SVGID_9_" cx="347.9326" cy="-1143.9937" r="135.9695" gradientTransform="matrix(1 0 0 -1 -250 -1121)" gradientUnits="userSpaceOnUse">
			<stop  offset="0" style="stop-color:#FFE300"/>
			<stop  offset="1" style="stop-color:#F7941E"/>
		</radialGradient>
		<path fill="url(#SVGID_9_)" d="M46.632,50.162C40.025,58.19,35.185,67.35,32.675,76.648c-0.181,0.74-0.365,1.467-0.561,2.181
			c-0.096,0.427-0.172,0.855-0.261,1.282c4.788,1.448,11.608-1.596,15.345-7.933C50.235,67.029,51.293,55.727,46.632,50.162z"/>
		
			<radialGradient id="SVGID_10_" cx="345.9561" cy="-1155.7383" r="127.5649" gradientTransform="matrix(1 0 0 -1 -250 -1121)" gradientUnits="userSpaceOnUse">
			<stop  offset="0" style="stop-color:#FFE300"/>
			<stop  offset="1" style="stop-color:#F7941E"/>
		</radialGradient>
		<path fill="url(#SVGID_10_)" d="M135.819,34.467c-2.954-0.584-5.975-0.271-8.646,1.461c-1.296,0.715-2.384,1.616-3.148,2.722
			c-4.351,6.314-0.672,17.073,7.266,21.887c12.509,7.58,21.918,4.152,24.391-0.596c1.93-3.71-0.055-6.825-0.055-6.825
			C150.265,45.921,143.541,39.487,135.819,34.467z"/>
		
			<radialGradient id="SVGID_11_" cx="347.8721" cy="-1157.4263" r="118.3751" gradientTransform="matrix(1 0 0 -1 -250 -1121)" gradientUnits="userSpaceOnUse">
			<stop  offset="0" style="stop-color:#FFE300"/>
			<stop  offset="1" style="stop-color:#F7941E"/>
		</radialGradient>
		<path fill="url(#SVGID_11_)" d="M72.565,82.257c8.878,1.728,17.807-3.593,19.951-11.888c2.143-8.294-2.7-17.522-11.576-19.249
			c-8.873-1.729-18.417,4.696-20.562,12.99C58.232,72.406,63.692,80.529,72.565,82.257z"/>
		
			<radialGradient id="SVGID_12_" cx="347.8701" cy="-1157.4268" r="118.3761" gradientTransform="matrix(1 0 0 -1 -250 -1121)" gradientUnits="userSpaceOnUse">
			<stop  offset="0" style="stop-color:#FFE300"/>
			<stop  offset="1" style="stop-color:#F7941E"/>
		</radialGradient>
		<path fill="url(#SVGID_12_)" d="M52.183,93.603c0.97-3.753-1.222-7.929-5.239-8.711c-4.016-0.784-8.336,2.125-9.306,5.878
			c-0.971,3.753,1.5,7.431,5.516,8.213C47.171,99.765,51.213,97.357,52.183,93.603z"/>
		
			<radialGradient id="SVGID_13_" cx="348.1338" cy="-1144.0264" r="135.7234" gradientTransform="matrix(1 0 0 -1 -250 -1121)" gradientUnits="userSpaceOnUse">
			<stop  offset="0" style="stop-color:#FFE300"/>
			<stop  offset="1" style="stop-color:#F7941E"/>
		</radialGradient>
		<path fill="url(#SVGID_13_)" d="M129.798,107.123c-11.912,4.384-18.935,17.588-15.693,29.489c0.166,0.615,1.332,5.058,6.971,8.335
			c16.209-4.145,24.364-10.407,34.2-20.271C159.257,108.997,140.996,103.002,129.798,107.123z"/>
		
			<radialGradient id="SVGID_14_" cx="346.042" cy="-1148.1572" r="133.4283" gradientTransform="matrix(1 0 0 -1 -250 -1121)" gradientUnits="userSpaceOnUse">
			<stop  offset="0" style="stop-color:#FFE300"/>
			<stop  offset="1" style="stop-color:#F7941E"/>
		</radialGradient>
		<path fill="url(#SVGID_14_)" d="M77.649,124.636c-3.854-10.436-13.499-18.497-22.629-17.632c-4.47,0.422-8.13,2.783-10.312,6.325
			c-1.226,1.987-2.474,7.423,3.947,15.599c7.249,6.902,10.324,8.112,18.638,11.987C74.992,143.822,82.733,138.397,77.649,124.636z"
			/>
		
			<radialGradient id="SVGID_15_" cx="807.5508" cy="-1182.6533" r="35.9285" fx="807.42" fy="-1173.4993" gradientTransform="matrix(1.2982 0 0 -1 -948.5996 -1121)" gradientUnits="userSpaceOnUse">
			<stop  offset="0.0798" style="stop-color:#FFFAD7"/>
			<stop  offset="0.4172" style="stop-color:#FFFA00"/>
			<stop  offset="1" style="stop-color:#FFFA00;stop-opacity:0"/>
		</radialGradient>
		<ellipse opacity="0.29" fill="url(#SVGID_15_)" enable-background="new    " cx="99.762" cy="61.653" rx="46.642" ry="35.929"/>
		
			<radialGradient id="SVGID_16_" cx="1064.8223" cy="-1209.9849" r="29.905" fx="1064.8073" fy="-1209.4943" gradientTransform="matrix(1.5597 0 0 -1 -1561.0409 -1121)" gradientUnits="userSpaceOnUse">
			<stop  offset="0.1595" style="stop-color:#FFFA00"/>
			<stop  offset="1" style="stop-color:#FFFA00;stop-opacity:0"/>
		</radialGradient>
		<ellipse opacity="0.52" fill="url(#SVGID_16_)" enable-background="new    " cx="99.762" cy="88.985" rx="46.642" ry="29.906"/>
		
			<radialGradient id="SVGID_17_" cx="358.4258" cy="-1455.5317" r="75.3922" fx="358.2988" fy="-1449.4766" gradientTransform="matrix(1.0052 0 0 -0.8476 -259.0391 -1163.5776)" gradientUnits="userSpaceOnUse">
			<stop  offset="0.7853" style="stop-color:#FF5600;stop-opacity:0"/>
			<stop  offset="0.9035" style="stop-color:#FF5600;stop-opacity:0.45"/>
			<stop  offset="1" style="stop-color:#FF5600;stop-opacity:0"/>
		</radialGradient>
		<path fill="url(#SVGID_17_)" d="M166.688,90.431c0,30.301-29.854,54.864-66.687,54.864s-66.688-24.562-66.688-54.864
			c0-30.302,29.858-64.706,66.688-64.706S166.688,60.13,166.688,90.431z"/>
	</g>
</g>
</svg>
