<?xml version="1.0" encoding="utf-8"?>
<!-- Generator: Adobe Illustrator 15.0.0, SVG Export Plug-In . SVG Version: 6.00 Build 0)  -->
<!DOCTYPE svg PUBLIC "-//W3C//DTD SVG 1.1//EN" "http://www.w3.org/Graphics/SVG/1.1/DTD/svg11.dtd">
<svg version="1.1" id="Layer_1" xmlns="http://www.w3.org/2000/svg" xmlns:xlink="http://www.w3.org/1999/xlink" x="0px" y="0px"
	 width="200px" height="200px" viewBox="0 0 200 200" enable-background="new 0 0 200 200" xml:space="preserve">
<g id="icon">
	<g id="Layer_2">
	</g>
	<g>
		<path fill="#FFFFFF" d="M126.288,33.844c0,0,3.63,0.232,9.022-0.131c7.347-0.495,11.771-1.709,11.771-1.709
			s-1.146,4.916-4.461,11.396c-2.896,5.654-6.5,9.992-6.5,9.992L126.288,33.844z"/>
		<path fill="#FFFFFF" d="M26.874,81.892c3.662-5.838,7.75-10.875,7.75-10.875l11.25,19.688c0,0-6.084,1.225-11.812,2.344
			c-6.281,1.25-13.156,2.781-13.156,2.781S22.922,88.192,26.874,81.892z"/>
		<g>
			<g>
				<path fill="#7CBF28" d="M126.709,45.836c-2.299,0.612-11.241,8.555-11.029,14.555c0,0-10.504,4.533-11.141,8.867
					c0,0-6.355,1.187-11.47,0.562c-1.708-0.206-1.557-3.368-3.278-3.172c0,0-3.085-3.062-1.879-7.793
					c1.224-4.823,6.741-11.32,6.741-11.32c7.315,0.301,13.871-5.131,13.871-5.131C113.65,46.295,126.709,45.836,126.709,45.836z"/>
				<path fill="#649100" d="M90.454,66.703c0,0,1.137-3.61,8.187-9.381c7.05-5.771,13.02-6.614,13.02-6.614
					s-13.381,3.066-18.705,9.099C87.629,65.839,89.614,67.161,90.454,66.703z"/>
			</g>
			<g>
				<ellipse fill="#75540D" cx="79.903" cy="80.128" rx="3.076" ry="1.487"/>
				<path fill="#75540D" d="M112.52,102.55c0.082,1.21-0.961,2.781-2.328,3.505c-1.36,0.729-2.541,0.33-2.619-0.88
					c-0.077-1.21,0.968-2.78,2.33-3.504C111.268,100.945,112.441,101.339,112.52,102.55z"/>
				<path fill="#75540D" d="M103.071,64.844c0.68,0.697,0.265,2.178-0.927,3.312c-1.188,1.142-2.695,1.504-3.376,0.81
					c-0.683-0.697-0.275-2.192,0.91-3.33C100.868,64.495,102.389,64.147,103.071,64.844z"/>
				<path fill="#75540D" d="M84.831,43.213c0,0-2.459-0.314-3.079,1.069c-0.617,1.382-4.455,4.481-0.192,19.322
					c6.715,23.386,20.834,35.56,27.438,39.727c6.602,4.166-14.187-8.933-21.764-33.564c-3.359-10.925-2.018-15.288-0.717-24.245
					C86.828,43.37,84.831,43.213,84.831,43.213z"/>
				<path fill="#75540D" d="M101.352,66.162c0,0-7.458,4.52-12.607-0.181c-3.375-3.081-3.675-7.234-3.675-7.234
					s-2.006,3.994,1.214,7.538c1.902,2.092,7.218,4.32,11.219,2.636C101.502,67.239,101.352,66.162,101.352,66.162z"/>
				<path fill="#75540D" d="M79.328,79.091c0,0,3.516-6.72,2.078-15.738c-1.439-9.017,1.718,0.8,1.718,0.8s2.868,10.562,0.343,13.21
					c-2.525,2.644-3.611,2.524-3.611,2.524S78.694,79.438,79.328,79.091z"/>
				<path fill="#C7915C" d="M85.839,45.885c-0.364,1.082-1.244,4.547-2.768,4.544c-1.523-0.004-1.371-3.549-1.369-4.692
					c0.002-1.142,0.826-2.342,2.35-2.338C85.575,43.402,86.395,44.231,85.839,45.885z"/>
			</g>
			<g>
				<path fill="#7CBF28" d="M43.781,78.827c1.782-0.994,13.344-2.867,18.225-0.604c0,0,9.586-3.92,13.548-2.702
					c0,0,4.503-2.93,6.813-5.854c0.771-0.976-1.947-2.03-0.831-2.869c0,0-0.846-2.727-5.452-3.787
					c-4.697-1.082-13.16-0.499-13.16-0.499c-3.795,3.97-11.946,5.482-11.946,5.482C51.383,72.098,43.781,78.827,43.781,78.827z"/>
				<path fill="#649100" d="M81.215,67.168c0,0-3.637-0.695-12.343,0.959c-8.708,1.653-12.71,4.501-12.71,4.501
					s9.954-5.965,17.924-6.612C82.057,65.369,82.06,66.89,81.215,67.168z"/>
			</g>
		</g>
		<g>
			<g>
				<g>
					<g>
						<path fill="#421283" d="M115.033,89.513c-0.202,0.305-0.389,0.616-0.564,0.93c-0.22,0.287-0.432,0.581-0.632,0.888
							c-4.931,7.479-2.315,17.896,5.838,23.271c8.155,5.375,18.759,3.668,23.688-3.809c0.201-0.305,0.39-0.613,0.562-0.93
							c0.224-0.286,0.435-0.579,0.636-0.887c4.932-7.479,2.312-17.896-5.838-23.271C130.566,80.33,119.963,82.036,115.033,89.513z"
							/>
					</g>
					<g>
						
							<radialGradient id="SVGID_1_" cx="-190.2749" cy="-989.6133" r="17.7365" gradientTransform="matrix(0.9795 -0.2012 -0.2012 -0.9795 120.1919 -919.1144)" gradientUnits="userSpaceOnUse">
							<stop  offset="0" style="stop-color:#C06FFF;stop-opacity:0.62"/>
							<stop  offset="1" style="stop-color:#908DD9;stop-opacity:0"/>
						</radialGradient>
						<path fill="url(#SVGID_1_)" d="M115.033,89.513c-0.202,0.305-0.389,0.616-0.564,0.93c-0.22,0.287-0.432,0.581-0.632,0.888
							c-4.931,7.479-2.315,17.896,5.838,23.271c8.155,5.375,18.759,3.668,23.688-3.809c0.201-0.305,0.39-0.613,0.562-0.93
							c0.224-0.286,0.435-0.579,0.636-0.887c4.932-7.479,2.312-17.896-5.838-23.271C130.566,80.33,119.963,82.036,115.033,89.513z"
							/>
					</g>
					<g opacity="0.5">
						<path fill="#3A003D" d="M146.795,102.941c-0.176,0.312-0.363,0.623-0.562,0.931c-4.932,7.478-15.537,9.185-23.688,3.81
							c-6.072-4.005-9.07-10.81-8.172-17.104c-0.184,0.245-0.361,0.497-0.534,0.758c-4.931,7.479-2.315,17.896,5.838,23.271
							c8.155,5.375,18.759,3.668,23.688-3.811c0.203-0.305,0.391-0.611,0.566-0.93c0.221-0.286,0.432-0.579,0.631-0.889
							c1.26-1.906,2.021-4.006,2.332-6.162C146.857,102.854,146.826,102.898,146.795,102.941z"/>
					</g>
					<g>
						
							<radialGradient id="SVGID_2_" cx="-192.2285" cy="-994.3965" r="22.7566" gradientTransform="matrix(0.9795 -0.2012 -0.2012 -0.9795 120.1919 -919.1144)" gradientUnits="userSpaceOnUse">
							<stop  offset="0.5276" style="stop-color:#000000;stop-opacity:0"/>
							<stop  offset="0.7939" style="stop-color:#000000;stop-opacity:0.38"/>
							<stop  offset="1" style="stop-color:#000000;stop-opacity:0"/>
						</radialGradient>
						<path fill="url(#SVGID_2_)" d="M115.033,89.513c-0.202,0.305-0.389,0.616-0.564,0.93c-0.22,0.287-0.432,0.581-0.632,0.888
							c-4.931,7.479-2.315,17.896,5.838,23.271c8.155,5.375,18.759,3.668,23.688-3.809c0.201-0.305,0.39-0.613,0.562-0.93
							c0.224-0.286,0.435-0.579,0.636-0.887c4.932-7.479,2.312-17.896-5.838-23.271C130.566,80.33,119.963,82.036,115.033,89.513z"
							/>
					</g>
				</g>
				<g>
					<g>
						<path fill="#421283" d="M72.847,117.091c-0.183,0.276-0.354,0.56-0.517,0.843c-0.197,0.27-0.39,0.528-0.574,0.812
							c-4.484,6.807-2.105,16.29,5.315,21.186c7.423,4.889,17.075,3.336,21.562-3.472c0.184-0.276,0.354-0.562,0.517-0.849
							c0.2-0.26,0.39-0.524,0.575-0.807c4.483-6.81,2.105-16.291-5.314-21.185C86.987,108.729,77.334,110.284,72.847,117.091z"/>
					</g>
					<g opacity="0.5">
						<path fill="#3A003D" d="M101.756,129.312c-0.158,0.279-0.329,0.565-0.513,0.846c-4.487,6.81-14.142,8.359-21.562,3.468
							c-5.527-3.644-8.258-9.838-7.437-15.574c-0.166,0.226-0.332,0.453-0.489,0.693c-4.484,6.807-2.105,16.29,5.315,21.185
							c7.423,4.889,17.075,3.336,21.562-3.471c0.184-0.277,0.354-0.562,0.517-0.848c0.2-0.26,0.39-0.525,0.575-0.811
							c1.144-1.73,1.836-3.645,2.12-5.605C101.814,129.232,101.789,129.273,101.756,129.312z"/>
					</g>
					<g>
						
							<radialGradient id="SVGID_3_" cx="-241.6309" cy="-1014.6743" r="19.6963" gradientTransform="matrix(0.9795 -0.2012 -0.2012 -0.9795 120.1919 -919.1144)" gradientUnits="userSpaceOnUse">
							<stop  offset="0.5276" style="stop-color:#000000;stop-opacity:0"/>
							<stop  offset="0.7939" style="stop-color:#000000;stop-opacity:0.38"/>
							<stop  offset="1" style="stop-color:#000000;stop-opacity:0"/>
						</radialGradient>
						<path fill="url(#SVGID_3_)" d="M72.847,117.091c-0.183,0.276-0.354,0.56-0.517,0.843c-0.197,0.27-0.39,0.528-0.574,0.812
							c-4.484,6.807-2.105,16.29,5.315,21.186c7.423,4.889,17.075,3.336,21.562-3.472c0.184-0.276,0.354-0.562,0.517-0.849
							c0.2-0.26,0.39-0.524,0.575-0.807c4.483-6.81,2.105-16.291-5.314-21.185C86.987,108.729,77.334,110.284,72.847,117.091z"/>
					</g>
				</g>
				<g>
					<g>
						<path fill="#421283" d="M94.737,131.369c-0.183,0.279-0.353,0.562-0.515,0.846c-0.199,0.262-0.394,0.529-0.574,0.807
							c-4.487,6.812-2.109,16.291,5.314,21.188c7.42,4.896,17.074,3.34,21.562-3.465c0.188-0.279,0.354-0.562,0.518-0.852
							c0.195-0.262,0.396-0.523,0.572-0.808c4.486-6.808,2.107-16.292-5.312-21.185C108.877,123.01,99.224,124.562,94.737,131.369z"
							/>
					</g>
					<g opacity="0.5">
						<path fill="#3A003D" d="M123.646,143.591c-0.158,0.286-0.328,0.568-0.517,0.847c-4.483,6.809-14.144,8.359-21.562,3.465
							c-5.528-3.644-8.254-9.834-7.438-15.566c-0.17,0.229-0.332,0.454-0.488,0.688c-4.487,6.812-2.109,16.291,5.314,21.187
							c7.42,4.896,17.074,3.34,21.562-3.465c0.187-0.279,0.354-0.562,0.516-0.851c0.197-0.263,0.396-0.524,0.574-0.809
							c1.146-1.736,1.842-3.646,2.119-5.607C123.703,143.512,123.677,143.553,123.646,143.591z"/>
					</g>
					<g>
						
							<radialGradient id="SVGID_4_" cx="-221.958" cy="-1032.3271" r="21.7503" gradientTransform="matrix(0.9795 -0.2012 -0.2012 -0.9795 120.1919 -919.1144)" gradientUnits="userSpaceOnUse">
							<stop  offset="0.5276" style="stop-color:#000000;stop-opacity:0"/>
							<stop  offset="0.7939" style="stop-color:#000000;stop-opacity:0.38"/>
							<stop  offset="1" style="stop-color:#000000;stop-opacity:0"/>
						</radialGradient>
						<path fill="url(#SVGID_4_)" d="M94.737,131.369c-0.183,0.279-0.353,0.562-0.515,0.846c-0.199,0.262-0.394,0.529-0.574,0.807
							c-4.487,6.812-2.109,16.291,5.314,21.188c7.42,4.896,17.074,3.34,21.562-3.465c0.188-0.279,0.354-0.562,0.518-0.852
							c0.195-0.262,0.396-0.523,0.572-0.808c4.486-6.808,2.107-16.292-5.312-21.185C108.877,123.01,99.224,124.562,94.737,131.369z"
							/>
					</g>
				</g>
				<g>
					<g>
						<path fill="#421283" d="M119.869,115.734c-0.184,0.271-0.354,0.562-0.512,0.847c-0.2,0.259-0.396,0.526-0.578,0.805
							c-4.486,6.81-2.105,16.294,5.312,21.185c7.425,4.896,17.075,3.346,21.562-3.467c0.184-0.276,0.354-0.562,0.517-0.848
							c0.2-0.259,0.396-0.525,0.574-0.806c4.483-6.808,2.104-16.293-5.312-21.185C134.012,107.376,124.357,108.927,119.869,115.734z
							"/>
					</g>
					<g>
						
							<radialGradient id="SVGID_5_" cx="-192.5327" cy="-1017.083" r="16.1437" gradientTransform="matrix(0.9795 -0.2012 -0.2012 -0.9795 120.1919 -919.1144)" gradientUnits="userSpaceOnUse">
							<stop  offset="0" style="stop-color:#C06FFF;stop-opacity:0.62"/>
							<stop  offset="1" style="stop-color:#908DD9;stop-opacity:0"/>
						</radialGradient>
						<path fill="url(#SVGID_5_)" d="M119.869,115.734c-0.184,0.271-0.354,0.562-0.512,0.847c-0.2,0.259-0.396,0.526-0.578,0.805
							c-4.486,6.81-2.105,16.294,5.312,21.185c7.425,4.896,17.075,3.346,21.562-3.467c0.184-0.276,0.354-0.562,0.517-0.848
							c0.2-0.259,0.396-0.525,0.574-0.806c4.483-6.808,2.104-16.293-5.312-21.185C134.012,107.376,124.357,108.927,119.869,115.734z
							"/>
					</g>
					<g opacity="0.5">
						<path fill="#3A003D" d="M148.783,127.957c-0.163,0.282-0.334,0.566-0.518,0.848c-4.488,6.807-14.142,8.36-21.562,3.467
							c-5.529-3.646-8.258-9.838-7.438-15.567c-0.168,0.222-0.332,0.446-0.488,0.688c-4.486,6.812-2.105,16.293,5.312,21.187
							c7.425,4.896,17.075,3.341,21.562-3.468c0.184-0.28,0.354-0.562,0.517-0.852c0.2-0.259,0.394-0.523,0.574-0.806
							c1.146-1.736,1.841-3.646,2.12-5.61C148.838,127.878,148.811,127.917,148.783,127.957z"/>
					</g>
					<g>
						
							<radialGradient id="SVGID_6_" cx="-195.292" cy="-1018.7627" r="21.881" gradientTransform="matrix(0.9795 -0.2012 -0.2012 -0.9795 120.1919 -919.1144)" gradientUnits="userSpaceOnUse">
							<stop  offset="0.5276" style="stop-color:#000000;stop-opacity:0"/>
							<stop  offset="0.7939" style="stop-color:#000000;stop-opacity:0.38"/>
							<stop  offset="1" style="stop-color:#000000;stop-opacity:0"/>
						</radialGradient>
						<path fill="url(#SVGID_6_)" d="M119.869,115.734c-0.184,0.271-0.354,0.562-0.512,0.847c-0.2,0.259-0.396,0.526-0.578,0.805
							c-4.486,6.81-2.105,16.294,5.312,21.185c7.425,4.896,17.075,3.346,21.562-3.467c0.184-0.276,0.354-0.562,0.517-0.848
							c0.2-0.259,0.396-0.525,0.574-0.806c4.483-6.808,2.104-16.293-5.312-21.185C134.012,107.376,124.357,108.927,119.869,115.734z
							"/>
					</g>
				</g>
				<g>
					<g>
						<path fill="#421283" d="M66.281,87.505c-0.232,0.355-0.449,0.711-0.654,1.074c-0.252,0.333-0.497,0.672-0.729,1.022
							c-5.691,8.637-2.676,20.663,6.74,26.869c9.413,6.206,21.659,4.236,27.351-4.396c0.23-0.354,0.447-0.713,0.65-1.072
							c0.252-0.331,0.499-0.669,0.73-1.021c5.689-8.637,2.673-20.667-6.739-26.869C84.215,76.904,71.972,78.871,66.281,87.505z"/>
					</g>
					<g>
						
							<radialGradient id="SVGID_7_" cx="-238.1494" cy="-981.8872" r="20.4766" gradientTransform="matrix(0.9795 -0.2012 -0.2012 -0.9795 120.1919 -919.1144)" gradientUnits="userSpaceOnUse">
							<stop  offset="0" style="stop-color:#C06FFF;stop-opacity:0.62"/>
							<stop  offset="1" style="stop-color:#908DD9;stop-opacity:0"/>
						</radialGradient>
						<path fill="url(#SVGID_7_)" d="M66.281,87.505c-0.232,0.355-0.449,0.711-0.654,1.074c-0.252,0.333-0.497,0.672-0.729,1.022
							c-5.691,8.637-2.676,20.663,6.74,26.869c9.413,6.206,21.659,4.236,27.351-4.396c0.23-0.354,0.447-0.713,0.65-1.072
							c0.252-0.331,0.499-0.669,0.73-1.021c5.689-8.637,2.673-20.667-6.739-26.869C84.215,76.904,71.972,78.871,66.281,87.505z"/>
					</g>
					<g opacity="0.5">
						<path fill="#3A003D" d="M102.95,103.009c-0.203,0.363-0.419,0.722-0.651,1.074c-5.691,8.633-17.934,10.603-27.351,4.396
							c-7.012-4.623-10.474-12.479-9.43-19.75c-0.215,0.284-0.422,0.575-0.62,0.875c-5.691,8.637-2.676,20.666,6.74,26.871
							c9.413,6.205,21.659,4.234,27.351-4.396c0.23-0.354,0.447-0.711,0.65-1.072c0.252-0.331,0.499-0.669,0.73-1.022
							c1.451-2.199,2.333-4.625,2.689-7.112C103.023,102.911,102.986,102.958,102.95,103.009z"/>
					</g>
					<g>
						
							<radialGradient id="SVGID_8_" cx="-237.7695" cy="-986.1411" r="25.7526" gradientTransform="matrix(0.9795 -0.2012 -0.2012 -0.9795 120.1919 -919.1144)" gradientUnits="userSpaceOnUse">
							<stop  offset="0.5276" style="stop-color:#000000;stop-opacity:0"/>
							<stop  offset="0.7939" style="stop-color:#000000;stop-opacity:0.38"/>
							<stop  offset="1" style="stop-color:#000000;stop-opacity:0"/>
						</radialGradient>
						<path fill="url(#SVGID_8_)" d="M66.281,87.505c-0.232,0.355-0.449,0.711-0.654,1.074c-0.252,0.333-0.497,0.672-0.729,1.022
							c-5.691,8.637-2.676,20.663,6.74,26.869c9.413,6.206,21.659,4.236,27.351-4.396c0.23-0.354,0.447-0.713,0.65-1.072
							c0.252-0.331,0.499-0.669,0.73-1.021c5.689-8.637,2.673-20.667-6.739-26.869C84.215,76.904,71.972,78.871,66.281,87.505z"/>
					</g>
				</g>
				<g>
					<g>
						<path fill="#421283" d="M93.201,108.695c-0.234,0.351-0.448,0.712-0.654,1.072c-0.252,0.33-0.497,0.672-0.728,1.021
							c-5.692,8.633-2.673,20.661,6.741,26.868c9.413,6.205,21.659,4.234,27.35-4.397c0.229-0.354,0.447-0.713,0.65-1.071
							c0.252-0.33,0.496-0.668,0.729-1.022c5.691-8.635,2.674-20.661-6.739-26.867C111.135,98.092,98.893,100.061,93.201,108.695z"
							/>
					</g>
					<g>
						
							<radialGradient id="SVGID_9_" cx="-210.7075" cy="-1004.2285" r="20.4774" gradientTransform="matrix(0.9795 -0.2012 -0.2012 -0.9795 120.1919 -919.1144)" gradientUnits="userSpaceOnUse">
							<stop  offset="0" style="stop-color:#C06FFF;stop-opacity:0.62"/>
							<stop  offset="1" style="stop-color:#908DD9;stop-opacity:0"/>
						</radialGradient>
						<path fill="url(#SVGID_9_)" d="M93.201,108.695c-0.234,0.351-0.448,0.712-0.654,1.072c-0.252,0.33-0.497,0.672-0.728,1.021
							c-5.692,8.633-2.673,20.661,6.741,26.868c9.413,6.205,21.659,4.234,27.35-4.397c0.229-0.354,0.447-0.713,0.65-1.071
							c0.252-0.33,0.496-0.668,0.729-1.022c5.691-8.635,2.674-20.661-6.739-26.867C111.135,98.092,98.893,100.061,93.201,108.695z"
							/>
					</g>
					<g opacity="0.5">
						<path fill="#3A003D" d="M129.872,124.197c-0.203,0.361-0.421,0.721-0.654,1.072c-5.69,8.636-17.934,10.604-27.349,4.396
							c-7.012-4.623-10.473-12.479-9.43-19.752c-0.214,0.285-0.424,0.571-0.62,0.875c-5.692,8.633-2.673,20.661,6.741,26.868
							c9.413,6.203,21.659,4.234,27.35-4.397c0.229-0.354,0.447-0.713,0.65-1.071c0.252-0.33,0.496-0.668,0.729-1.022
							c1.452-2.2,2.333-4.623,2.689-7.114C129.943,124.102,129.908,124.146,129.872,124.197z"/>
					</g>
					<g>
						
							<radialGradient id="SVGID_10_" cx="-216.3984" cy="-1010.8457" r="25.4318" gradientTransform="matrix(0.9795 -0.2012 -0.2012 -0.9795 120.1919 -919.1144)" gradientUnits="userSpaceOnUse">
							<stop  offset="0.5276" style="stop-color:#000000;stop-opacity:0"/>
							<stop  offset="0.7939" style="stop-color:#000000;stop-opacity:0.38"/>
							<stop  offset="1" style="stop-color:#000000;stop-opacity:0"/>
						</radialGradient>
						<path fill="url(#SVGID_10_)" d="M93.201,108.695c-0.234,0.351-0.448,0.712-0.654,1.072c-0.252,0.33-0.497,0.672-0.728,1.021
							c-5.692,8.633-2.673,20.661,6.741,26.868c9.413,6.205,21.659,4.234,27.35-4.397c0.229-0.354,0.447-0.713,0.65-1.071
							c0.252-0.33,0.496-0.668,0.729-1.022c5.691-8.635,2.674-20.661-6.739-26.867C111.135,98.092,98.893,100.061,93.201,108.695z"
							/>
					</g>
				</g>
				<g>
					<g>
						<path fill="#421283" d="M117.816,138.114c-0.187,0.278-0.354,0.562-0.519,0.852c-0.198,0.263-0.396,0.53-0.575,0.81
							c-4.515,6.852-2.119,16.385,5.344,21.303c7.463,4.921,17.17,3.355,21.68-3.48c0.186-0.281,0.354-0.562,0.518-0.854
							c0.203-0.266,0.396-0.532,0.577-0.812c4.513-6.845,2.12-16.381-5.342-21.3S122.33,131.271,117.816,138.114z"/>
					</g>
					<g>
						
							<radialGradient id="SVGID_11_" cx="-198.9888" cy="-1037.9932" r="16.2296" gradientTransform="matrix(0.9795 -0.2012 -0.2012 -0.9795 120.1919 -919.1144)" gradientUnits="userSpaceOnUse">
							<stop  offset="0" style="stop-color:#C06FFF;stop-opacity:0.62"/>
							<stop  offset="1" style="stop-color:#908DD9;stop-opacity:0"/>
						</radialGradient>
						<path fill="url(#SVGID_11_)" d="M117.816,138.114c-0.187,0.278-0.354,0.562-0.519,0.852c-0.198,0.263-0.396,0.53-0.575,0.81
							c-4.515,6.852-2.119,16.385,5.344,21.303c7.463,4.921,17.17,3.355,21.68-3.48c0.186-0.281,0.354-0.562,0.518-0.854
							c0.203-0.266,0.396-0.532,0.577-0.812c4.513-6.845,2.12-16.381-5.342-21.3S122.33,131.271,117.816,138.114z"/>
					</g>
					<g opacity="0.5">
						<path fill="#3A003D" d="M146.887,150.402c-0.16,0.289-0.33,0.572-0.516,0.853c-4.512,6.843-14.217,8.404-21.682,3.487
							c-5.562-3.663-8.301-9.893-7.479-15.659c-0.17,0.224-0.333,0.457-0.487,0.692c-4.514,6.847-2.119,16.379,5.344,21.298
							c7.463,4.921,17.17,3.358,21.681-3.482c0.187-0.282,0.354-0.565,0.519-0.852c0.202-0.263,0.396-0.532,0.576-0.813
							c1.149-1.744,1.85-3.664,2.137-5.639C146.945,150.325,146.916,150.363,146.887,150.402z"/>
					</g>
					<g>
						
							<radialGradient id="SVGID_12_" cx="-200.2773" cy="-1042.1777" r="21.3373" gradientTransform="matrix(0.9795 -0.2012 -0.2012 -0.9795 120.1919 -919.1144)" gradientUnits="userSpaceOnUse">
							<stop  offset="0.5276" style="stop-color:#000000;stop-opacity:0"/>
							<stop  offset="0.7939" style="stop-color:#000000;stop-opacity:0.38"/>
							<stop  offset="1" style="stop-color:#000000;stop-opacity:0"/>
						</radialGradient>
						<path fill="url(#SVGID_12_)" d="M117.816,138.114c-0.187,0.278-0.354,0.562-0.519,0.852c-0.198,0.263-0.396,0.53-0.575,0.81
							c-4.515,6.852-2.119,16.385,5.344,21.303c7.463,4.921,17.17,3.355,21.68-3.48c0.186-0.281,0.354-0.562,0.518-0.854
							c0.203-0.266,0.396-0.532,0.577-0.812c4.513-6.845,2.12-16.381-5.342-21.3S122.33,131.271,117.816,138.114z"/>
					</g>
				</g>
				<g>
					<g>
						<path fill="#421283" d="M93.711,73.384c-0.232,0.355-0.45,0.713-0.653,1.073c-0.252,0.333-0.498,0.671-0.73,1.023
							c-5.692,8.635-2.673,20.664,6.74,26.87c9.417,6.205,21.659,4.236,27.351-4.396c0.233-0.353,0.45-0.712,0.651-1.075
							c0.254-0.331,0.498-0.669,0.729-1.023c5.691-8.634,2.676-20.663-6.738-26.867C111.646,62.783,99.4,64.75,93.711,73.384z"/>
					</g>
					<g opacity="0.5">
						<path fill="#3A003D" d="M130.381,88.886c-0.205,0.363-0.42,0.725-0.652,1.074c-5.688,8.636-17.936,10.604-27.35,4.399
							c-7.014-4.624-10.473-12.476-9.432-19.754c-0.215,0.285-0.42,0.575-0.62,0.875c-5.692,8.635-2.673,20.664,6.74,26.87
							c9.416,6.205,21.66,4.236,27.351-4.396c0.234-0.353,0.45-0.712,0.652-1.075c0.253-0.331,0.498-0.669,0.729-1.023
							c1.453-2.2,2.335-4.624,2.691-7.114C130.453,88.79,130.418,88.839,130.381,88.886z"/>
					</g>
					<g>
						
							<radialGradient id="SVGID_13_" cx="-199.9717" cy="-966.0615" r="20.4757" gradientTransform="matrix(0.9795 -0.2012 -0.2012 -0.9795 120.1919 -919.1144)" gradientUnits="userSpaceOnUse">
							<stop  offset="0" style="stop-color:#C06FFF;stop-opacity:0.62"/>
							<stop  offset="1" style="stop-color:#908DD9;stop-opacity:0"/>
						</radialGradient>
						<path fill="url(#SVGID_13_)" d="M93.711,73.384c-0.232,0.355-0.45,0.713-0.653,1.073c-0.252,0.333-0.498,0.671-0.73,1.023
							c-5.692,8.635-2.673,20.664,6.74,26.87c9.417,6.205,21.659,4.236,27.351-4.396c0.233-0.353,0.45-0.712,0.651-1.075
							c0.254-0.331,0.498-0.669,0.729-1.023c5.691-8.634,2.676-20.663-6.738-26.867C111.646,62.783,99.4,64.75,93.711,73.384z"/>
					</g>
					<g>
						
							<radialGradient id="SVGID_14_" cx="-1559.501" cy="-757.5718" r="22.658" gradientTransform="matrix(0.5636 -0.826 -0.968 -0.6604 257.7865 -1708.8503)" gradientUnits="userSpaceOnUse">
							<stop  offset="0.5276" style="stop-color:#000000;stop-opacity:0"/>
							<stop  offset="0.7939" style="stop-color:#000000;stop-opacity:0.38"/>
							<stop  offset="1" style="stop-color:#000000;stop-opacity:0"/>
						</radialGradient>
						<path fill="url(#SVGID_14_)" d="M93.711,73.384c-0.232,0.355-0.45,0.713-0.653,1.073c-0.252,0.333-0.498,0.671-0.73,1.023
							c-5.692,8.635-2.673,20.664,6.74,26.87c9.417,6.205,21.659,4.236,27.351-4.396c0.233-0.353,0.45-0.712,0.651-1.075
							c0.254-0.331,0.498-0.669,0.729-1.023c5.691-8.634,2.676-20.663-6.738-26.867C111.646,62.783,99.4,64.75,93.711,73.384z"/>
					</g>
					<g>
						
							<ellipse transform="matrix(-0.8348 -0.5506 0.5506 -0.8348 171.4198 195.7097)" opacity="0.35" fill="#BD7CFF" enable-background="new    " cx="115.077" cy="72.133" rx="4.813" ry="3.705"/>
						
							<ellipse transform="matrix(-0.835 -0.5502 0.5502 -0.835 171.7551 194.7135)" fill="#BD7CFF" cx="115.069" cy="71.607" rx="3.124" ry="2.405"/>
					</g>
				</g>
			</g>
			<g>
				<path fill="#FFFFFF" d="M85.832,64.354c0.329,1.63,0.784,3.41,1.4,5.414c0.179,0.582,0.383,1.141,0.576,1.71
					c0.076-0.105,0.149-0.218,0.226-0.322c0.208-0.354,0.43-0.712,0.667-1.074c0.67-1.018,1.423-1.964,2.234-2.853
					c-0.05-0.068-0.097-0.141-0.152-0.199C88.695,66.46,86.849,65.402,85.832,64.354z"/>
				<path fill="#FFFFFF" d="M79.861,73.566c0.408-0.623,0.821-1.405,1.15-2.406c-0.977,0.968-2.074,1.878-3.027,2.614
					C78.604,73.684,79.229,73.612,79.861,73.566z"/>
			</g>
			<g>
				<path d="M85.832,64.354c0.329,1.63,0.784,3.41,1.4,5.414c0.179,0.582,0.383,1.141,0.576,1.71
					c0.076-0.105,0.149-0.218,0.226-0.322c0.208-0.354,0.43-0.712,0.667-1.074c0.67-1.018,1.423-1.964,2.234-2.853
					c-0.05-0.068-0.097-0.141-0.152-0.199C88.695,66.46,86.849,65.402,85.832,64.354z"/>
				<path d="M83.391,69.176c-0.148,1.445,0.569,3.062-0.353,4.029c-0.165,0.172-0.298,0.31-0.447,0.464
					c1.04,0.239,1.414,1.627,1.513,1.627c1.164,0-0.023-1.708,1.124-1.559C84.589,72.268,83.969,70.762,83.391,69.176z"/>
			</g>
		</g>
	</g>
</g>
</svg>
