<?xml version="1.0" encoding="utf-8"?>
<!-- Generator: Adobe Illustrator 15.0.0, SVG Export Plug-In . SVG Version: 6.00 Build 0)  -->
<!DOCTYPE svg PUBLIC "-//W3C//DTD SVG 1.1//EN" "http://www.w3.org/Graphics/SVG/1.1/DTD/svg11.dtd">
<svg version="1.1" id="Layer_1" xmlns="http://www.w3.org/2000/svg" xmlns:xlink="http://www.w3.org/1999/xlink" x="0px" y="0px"
	 width="200px" height="200px" viewBox="0 0 200 200" enable-background="new 0 0 200 200" xml:space="preserve">
<g id="icon">
	<g id="Layer_2">
	</g>
	<g id="Layer_1_1_">
		<g>
			<g>
				<g>
					<g>
						<g>
							<path fill="#F5DE00" d="M171.223,75.468c-0.125-1.136,1.353-3.38-0.205-4.74c-1.442-1.269-2.922,0.867-3.941,0.881
								c-0.77,0.013-1.562,0.257-2.312,0.79c-3.142,2.218-6.574,4.122-10.279,5.645c-26.422,10.849-56.642-1.781-67.488-28.207
								c-0.71-1.725-1.87-2.946-3.147-3.853c-1.01-0.717-2.299-1.059-3.144-3.572c-1.215-3.64,1.522-6.39-0.952-8.09
								c-1.007-0.692-4.339-0.816-6.191,0.825c-2.485,2.207,2.053,5.193,1.713,9.378c-0.089,1.091-1.141,2.173-2,3.289
								c-1.057,1.374-1.911,3.117-2.219,5.334c-1.209,8.747-0.196,17.925,3.4,26.686c10.851,26.425,41.063,39.057,67.489,28.206
								c14.022-5.756,24.16-16.969,28.968-30.169C171.216,77.023,171.309,76.209,171.223,75.468z"/>
						</g>
						<g>
							<g>
								<path fill="#F5B000" d="M146.544,93.934c-26.431,10.851-56.645-1.776-67.494-28.206c-2.792-6.799-4.023-13.85-3.868-20.753
									c-0.285,0.938-1.17,1.88-1.91,2.839c-1.057,1.374-1.911,3.117-2.219,5.334c-1.209,8.747-0.196,17.925,3.4,26.686
									c10.851,26.425,41.066,39.057,67.49,28.206c14.021-5.756,24.16-16.969,28.967-30.169c0.306-0.847,0.396-1.661,0.312-2.402
									c-0.096-0.839,0.687-2.279,0.473-3.53C166.177,81.523,157.561,89.411,146.544,93.934z"/>
							</g>
						</g>
						<path fill="#C27A00" d="M171.018,70.729c-1.432-1.258-2.896,0.828-3.918,0.876c0.176,1.432,0.979,3.536,4.123,3.61
							C171.286,74.029,172.462,71.994,171.018,70.729z"/>
						<path fill="#C27A00" d="M81.08,43.343c-0.134-0.273-0.262-0.577-0.379-0.93c-1.215-3.64,1.522-6.39-0.952-8.09
							c-1.007-0.692-4.339-0.816-6.191,0.825c-2.485,2.207,2.053,5.193,1.713,9.378c-0.005,0.043-0.022,0.092-0.027,0.14
							C76.528,45.173,78.838,45.57,81.08,43.343z"/>
					</g>
					<g>
						<g>
							<path fill="#F5DE00" d="M174.414,100.164c0.037-1.434,2.246-3.973,0.547-5.925c-1.583-1.817-3.773,0.584-5.047,0.434
								c-0.956-0.116-1.987,0.054-3.006,0.587c-4.273,2.227-8.861,4.014-13.721,5.277c-34.653,9.014-70.062-11.773-79.07-46.432
								c-0.589-2.263-1.824-3.97-3.262-5.316c-1.13-1.063-2.673-1.701-3.299-4.968c-0.897-4.725,2.97-7.682,0.186-10.206
								c-1.136-1.031-5.253-1.75-7.832-0.024c-3.462,2.324,1.674,6.797,0.547,11.938c-0.298,1.34-1.787,2.509-3.039,3.75
								c-1.547,1.528-2.9,3.547-3.657,6.25c-2.979,10.661-3.27,22.232-0.282,33.723c9.015,34.654,44.413,55.443,79.07,46.43
								c18.395-4.783,32.877-16.998,41.07-32.582C174.146,102.096,174.395,101.1,174.414,100.164z"/>
						</g>
						<g>
							<g>
								<path fill="#F5B000" d="M140.643,118.936c-34.658,9.017-70.059-11.771-79.072-46.432
									c-2.319-8.915-2.655-17.881-1.302-26.434c-0.513,1.119-1.771,2.14-2.85,3.208c-1.547,1.528-2.9,3.547-3.657,6.25
									c-2.979,10.661-3.27,22.232-0.282,33.723c9.015,34.654,44.413,55.442,79.07,46.429c18.396-4.783,32.877-16.996,41.07-32.582
									c0.526-1.002,0.774-1.998,0.795-2.934c0.026-1.058,1.237-2.719,1.183-4.303
									C167.127,106.829,155.089,115.176,140.643,118.936z"/>
							</g>
						</g>
						<path fill="#C27A00" d="M174.961,94.239c-1.566-1.804-3.738,0.543-5.014,0.432c-0.025,1.805,0.604,4.554,4.511,5.179
							C174.736,98.385,176.537,96.056,174.961,94.239z"/>
						<path fill="#C27A00" d="M67.871,45.04c-0.117-0.361-0.226-0.762-0.315-1.219c-0.897-4.725,2.97-7.682,0.186-10.206
							c-1.136-1.031-5.253-1.75-7.832-0.024c-3.462,2.324,1.674,6.797,0.547,11.938c-0.018,0.057-0.042,0.112-0.061,0.169
							C61.909,46.548,64.71,47.428,67.871,45.04z"/>
					</g>
					<g>
						<g>
							<path fill="#F5DE00" d="M156.961,140.243c0.453-1.595,3.669-3.796,2.337-6.476c-1.241-2.496-4.397-0.447-5.78-0.99
								c-1.037-0.405-2.238-0.52-3.533-0.215c-5.438,1.25-11.096,1.914-16.901,1.914c-41.437,0-75.034-33.597-75.034-75.038
								c0-2.706-0.885-4.979-2.102-6.903c-0.959-1.519-2.501-2.686-2.249-6.526c0.373-5.553,5.562-7.738,3.181-11.377
								c-0.973-1.485-5.373-3.489-8.764-2.305c-4.553,1.591-0.107,8.096-2.865,13.528c-0.726,1.415-2.729,2.289-4.499,3.314
								c-2.175,1.261-4.279,3.128-5.914,5.933c-6.443,11.074-10.139,23.95-10.139,37.686c0,41.438,33.592,75.033,75.033,75.033
								c21.994,0,41.769-9.463,55.488-24.529C156.1,142.326,156.663,141.282,156.961,140.243z"/>
						</g>
						<g>
							<g>
								<path fill="#F5B000" d="M113.667,151.426c-41.441,0-75.034-33.592-75.034-75.029c0-10.664,2.236-20.804,6.243-29.987
									c-0.899,1.106-2.606,1.878-4.128,2.764c-2.175,1.261-4.279,3.128-5.914,5.933C28.391,66.18,24.695,79.056,24.695,92.792
									c0,41.44,33.592,75.033,75.033,75.033c21.991,0,41.769-9.46,55.488-24.529c0.882-0.969,1.446-2.013,1.744-3.052
									c0.34-1.178,2.174-2.686,2.577-4.477C146.855,145.584,130.945,151.426,113.667,151.426z"/>
							</g>
						</g>
						<path fill="#C27A00" d="M159.298,133.768c-1.229-2.478-4.346-0.479-5.741-0.979c-0.554,2.018-0.644,5.277,3.541,7.117
							C157.839,138.343,160.535,136.262,159.298,133.768z"/>
						<path fill="#C27A00" d="M53.691,47.473c-0.028-0.443-0.03-0.922,0.002-1.459c0.373-5.553,5.562-7.738,3.181-11.377
							c-0.973-1.485-5.373-3.489-8.764-2.305c-4.553,1.591-0.107,8.096-2.865,13.528c-0.035,0.058-0.08,0.111-0.116,0.169
							C46.575,47.421,49.455,49.225,53.691,47.473z"/>
					</g>
				</g>
			</g>
			<g>
				<path fill="#F5DE00" d="M171.249,75.101c-0.131-1.135,1.338-3.376-0.215-4.733c-1.443-1.259-2.914,0.873-3.937,0.891
					c-0.767,0.014-1.561,0.26-2.308,0.791c-3.129,2.219-6.549,4.126-10.246,5.652c-26.353,10.875-56.528-1.673-67.405-28.023
					c-0.707-1.721-1.869-2.933-3.145-3.839c-1.009-0.715-2.299-1.05-3.141-3.56c-1.222-3.628,1.503-6.378-0.967-8.067
					c-1.005-0.689-4.331-0.81-6.175,0.833c-2.475,2.206,2.06,5.175,1.724,9.355c-0.083,1.088-1.131,2.17-1.987,3.286
					c-1.05,1.373-1.899,3.112-2.202,5.324c-1.193,8.733-0.162,17.889,3.443,26.625c10.873,26.351,41.052,38.898,67.402,28.023
					c13.981-5.771,24.074-16.977,28.849-30.162C171.247,76.65,171.334,75.84,171.249,75.101z"/>
				<g opacity="0.27">
					<g>
						<path fill="#F5B000" d="M146.652,93.574c-26.354,10.875-56.527-1.671-67.398-28.022c-2.8-6.78-4.044-13.812-3.902-20.707
							c-0.284,0.939-1.164,1.879-1.902,2.842c-1.05,1.373-1.899,3.112-2.202,5.324c-1.193,8.733-0.162,17.889,3.443,26.625
							c10.873,26.351,41.052,38.898,67.402,28.023c13.981-5.771,24.074-16.977,28.847-30.162c0.311-0.847,0.396-1.657,0.312-2.396
							c-0.098-0.838,0.678-2.279,0.465-3.524C166.225,81.147,157.643,89.041,146.652,93.574z"/>
					</g>
				</g>
				<path fill="#C27A00" d="M171.034,70.368c-1.431-1.251-2.89,0.836-3.91,0.887c0.183,1.425,0.979,3.523,4.12,3.595
					C171.311,73.661,172.477,71.629,171.034,70.368z"/>
				<g opacity="0.87">
					
						<radialGradient id="SVGID_1_" cx="-292.5054" cy="1367.6338" r="65.8078" gradientTransform="matrix(0.9244 -0.3815 0.4138 1.0027 -175.4591 -1429.132)" gradientUnits="userSpaceOnUse">
						<stop  offset="0.5215" style="stop-color:#FFB100;stop-opacity:0"/>
						<stop  offset="0.7485" style="stop-color:#AE1C00;stop-opacity:0.73"/>
						<stop  offset="0.7776" style="stop-color:#B22300;stop-opacity:0.5647"/>
						<stop  offset="0.8203" style="stop-color:#BD3700;stop-opacity:0.323"/>
						<stop  offset="0.871" style="stop-color:#CF5700;stop-opacity:0.0355"/>
						<stop  offset="0.8773" style="stop-color:#D25B00;stop-opacity:0"/>
					</radialGradient>
					<path fill="url(#SVGID_1_)" d="M171.249,75.101c-0.131-1.135,1.338-3.376-0.215-4.733c-1.443-1.259-2.914,0.873-3.937,0.891
						c-0.767,0.014-1.561,0.26-2.308,0.791c-3.129,2.219-6.549,4.126-10.246,5.652c-26.353,10.875-56.528-1.673-67.405-28.023
						c-0.707-1.721-1.869-2.933-3.145-3.839c-1.009-0.715-2.299-1.05-3.141-3.56c-1.222-3.628,1.503-6.378-0.967-8.067
						c-1.005-0.689-4.331-0.81-6.175,0.833c-2.475,2.206,2.06,5.175,1.724,9.355c-0.083,1.088-1.131,2.17-1.987,3.286
						c-1.05,1.373-1.899,3.112-2.202,5.324c-1.193,8.733-0.162,17.889,3.443,26.625c10.873,26.351,41.052,38.898,67.402,28.023
						c13.981-5.771,24.074-16.977,28.849-30.162C171.247,76.65,171.334,75.84,171.249,75.101z"/>
				</g>
				<path fill="#C27A00" d="M81.235,43.208c-0.132-0.273-0.261-0.577-0.379-0.928c-1.222-3.628,1.503-6.378-0.967-8.067
					c-1.005-0.689-4.331-0.81-6.175,0.833c-2.475,2.206,2.06,5.175,1.724,9.355c-0.002,0.046-0.017,0.09-0.025,0.136
					C76.698,45.044,79.002,45.435,81.235,43.208z"/>
				
					<radialGradient id="SVGID_2_" cx="-325.4868" cy="1442.7881" r="5.0263" gradientTransform="matrix(0.9244 -0.3815 0.3815 0.9244 -173.1561 -1423.5515)" gradientUnits="userSpaceOnUse">
					<stop  offset="0" style="stop-color:#F2DE00;stop-opacity:0.62"/>
					<stop  offset="1" style="stop-color:#FFFC00;stop-opacity:0"/>
				</radialGradient>
				<path opacity="0.87" fill="url(#SVGID_2_)" enable-background="new    " d="M79.346,37.474c1.62-0.801,1.687-1.196,1.565-1.8
					c-0.111-0.551-0.403-1.04-1.022-1.462c-1.005-0.689-4.331-0.81-6.175,0.833c-0.751,0.67-0.857,1.409-0.649,2.229
					C73.366,38.476,76.223,39.017,79.346,37.474z"/>
				<path fill="#F5F500" d="M95,64.346c-5.556-6.27-8.542-13.81-9.084-14.601c-1.445-2.109-7.518-1.973-6.603,5.161
					c1.763,13.723,8.448,29.494,29.083,37.821c15.06,6.077,31.228,5.312,49.561-7.511c11.281-7.892,7.1-12.548,7.1-12.548
					c-15.912,10.422-31.062,12.688-47.562,6.865C108.791,76.462,101.473,71.648,95,64.346z"/>
			</g>
			<g>
				<path fill="#F5DE00" d="M174.518,100.315c0.047-1.421,2.278-3.932,0.603-5.875c-1.567-1.809-3.786,0.565-5.062,0.409
					c-0.953-0.117-1.984,0.047-3.017,0.572c-4.296,2.193-8.901,3.946-13.783,5.185c-34.784,8.812-70.052-11.938-78.771-46.353
					c-0.569-2.247-1.791-3.944-3.214-5.287c-1.13-1.058-2.668-1.696-3.261-4.941c-0.855-4.69,3.039-7.606,0.271-10.121
					c-1.126-1.026-5.241-1.758-7.84-0.053c-3.485,2.288,1.615,6.747,0.439,11.846c-0.307,1.326-1.809,2.478-3.075,3.704
					c-1.561,1.51-2.936,3.508-3.717,6.185c-3.083,10.567-3.471,22.043-0.582,33.45c8.715,34.412,43.983,55.167,78.771,46.353
					c18.457-4.676,33.066-16.736,41.419-32.17C174.23,102.227,174.482,101.242,174.518,100.315z"/>
				<g opacity="0.27">
					<g>
						<path fill="#F5B000" d="M140.521,118.807c-34.783,8.813-70.048-11.938-78.77-46.349c-2.239-8.855-2.502-17.75-1.066-26.229
							c-0.524,1.108-1.789,2.115-2.884,3.173c-1.561,1.51-2.936,3.508-3.717,6.185c-3.083,10.567-3.471,22.043-0.582,33.45
							c8.715,34.412,43.983,55.167,78.771,46.352c18.457-4.675,33.065-16.731,41.418-32.168c0.537-0.992,0.789-1.978,0.822-2.905
							c0.034-1.049,1.26-2.693,1.223-4.266C167.157,106.898,155.027,115.136,140.521,118.807z"/>
					</g>
				</g>
				<path fill="#C27A00" d="M175.116,94.439c-1.556-1.796-3.751,0.522-5.03,0.409c-0.039,1.789,0.574,4.518,4.473,5.156
					C174.854,98.549,176.68,96.247,175.116,94.439z"/>
				<g opacity="0.87">
					
						<radialGradient id="SVGID_3_" cx="-70.1157" cy="1321.9883" r="81.9456" gradientTransform="matrix(0.9799 -0.2482 0.2664 1.0515 -168.7505 -1342.4016)" gradientUnits="userSpaceOnUse">
						<stop  offset="0.5215" style="stop-color:#FFB100;stop-opacity:0"/>
						<stop  offset="0.7485" style="stop-color:#AE1C00;stop-opacity:0.73"/>
						<stop  offset="0.7776" style="stop-color:#B22300;stop-opacity:0.5647"/>
						<stop  offset="0.8203" style="stop-color:#BD3700;stop-opacity:0.323"/>
						<stop  offset="0.871" style="stop-color:#CF5700;stop-opacity:0.0355"/>
						<stop  offset="0.8773" style="stop-color:#D25B00;stop-opacity:0"/>
					</radialGradient>
					<path fill="url(#SVGID_3_)" d="M174.518,100.315c0.047-1.421,2.278-3.932,0.603-5.875c-1.567-1.809-3.786,0.565-5.062,0.409
						c-0.953-0.117-1.984,0.047-3.017,0.572c-4.296,2.193-8.901,3.946-13.783,5.185c-34.784,8.812-70.052-11.938-78.771-46.353
						c-0.569-2.247-1.791-3.944-3.214-5.287c-1.13-1.058-2.668-1.696-3.261-4.941c-0.855-4.69,3.039-7.606,0.271-10.121
						c-1.126-1.026-5.241-1.758-7.84-0.053c-3.485,2.288,1.615,6.747,0.439,11.846c-0.307,1.326-1.809,2.478-3.075,3.704
						c-1.561,1.51-2.936,3.508-3.717,6.185c-3.083,10.567-3.471,22.043-0.582,33.45c8.715,34.412,43.983,55.167,78.771,46.353
						c18.457-4.676,33.066-16.736,41.419-32.17C174.23,102.227,174.482,101.242,174.518,100.315z"/>
				</g>
				<path fill="#C27A00" d="M68.314,45.236c-0.118-0.36-0.221-0.759-0.304-1.211c-0.855-4.69,3.039-7.606,0.271-10.121
					c-1.126-1.026-5.241-1.758-7.84-0.053c-3.485,2.288,1.615,6.747,0.439,11.846c-0.013,0.052-0.038,0.104-0.061,0.162
					C62.328,46.711,65.127,47.596,68.314,45.236z"/>
				
					<radialGradient id="SVGID_4_" cx="-111.1655" cy="1384.0693" r="6.2605" gradientTransform="matrix(0.9799 -0.2482 0.2456 0.9694 -167.095 -1335.8649)" gradientUnits="userSpaceOnUse">
					<stop  offset="0" style="stop-color:#F2DE00;stop-opacity:0.62"/>
					<stop  offset="1" style="stop-color:#FFFC00;stop-opacity:0"/>
				</radialGradient>
				<path opacity="0.87" fill="url(#SVGID_4_)" enable-background="new    " d="M67.009,37.831c2.162-0.704,2.318-1.181,2.277-1.945
					c-0.036-0.701-0.314-1.353-1.004-1.979c-1.126-1.026-5.241-1.758-7.84-0.053c-1.054,0.695-1.321,1.588-1.216,2.637
					C59.386,38.023,62.84,39.188,67.009,37.831z"/>
				<path fill="#F5F500" d="M81.578,73.723c-5.767-8.707-8.105-18.534-8.634-19.604c-1.415-2.853-8.996-3.749-9.161,5.218
					c-0.316,17.237,5.121,37.862,29.281,51.743c17.633,10.128,37.895,12.012,63.058-0.607c15.483-7.764,11.132-14.242,11.132-14.242
					c-21.71,10.08-40.99,10.225-60.458,0.157C96.527,91.08,88.299,83.864,81.578,73.723z"/>
			</g>
			<g>
				<path fill="#F5DE00" d="M156.527,140.445c0.453-1.596,3.666-3.795,2.334-6.479c-1.242-2.494-4.399-0.445-5.782-0.986
					c-1.035-0.406-2.238-0.52-3.536-0.215c-5.432,1.25-11.088,1.909-16.904,1.909c-41.436,0-75.031-33.594-75.031-75.032
					c0-2.708-0.887-4.98-2.102-6.906c-0.961-1.521-2.501-2.685-2.247-6.525c0.37-5.552,5.561-7.739,3.175-11.376
					c-0.97-1.485-5.369-3.49-8.759-2.306c-4.553,1.591-0.106,8.097-2.869,13.527c-0.721,1.414-2.731,2.289-4.496,3.314
					c-2.175,1.26-4.28,3.128-5.913,5.931C27.95,66.38,24.258,79.254,24.258,92.992c0,41.438,33.591,75.031,75.035,75.031
					c21.986,0,41.768-9.459,55.489-24.528C155.662,142.527,156.227,141.484,156.527,140.445z"/>
				<g opacity="0.27">
					<g>
						<path fill="#F5B000" d="M113.229,151.629c-41.438,0-75.026-33.592-75.026-75.031c0-10.663,2.232-20.804,6.244-29.986
							c-0.905,1.104-2.605,1.878-4.131,2.763c-2.175,1.26-4.28,3.128-5.913,5.931c-6.448,11.076-10.14,23.95-10.14,37.688
							c0,41.439,33.591,75.033,75.035,75.033c21.986,0,41.77-9.461,55.489-24.53c0.879-0.97,1.44-2.013,1.743-3.052
							c0.334-1.178,2.17-2.688,2.576-4.479C146.421,145.787,130.508,151.629,113.229,151.629z"/>
					</g>
				</g>
				<path fill="#C27A00" d="M158.861,133.971c-1.229-2.479-4.348-0.479-5.748-0.979c-0.547,2.016-0.637,5.277,3.545,7.113
					C157.402,138.546,160.1,136.463,158.861,133.971z"/>
				<g opacity="0.87">
					
						<radialGradient id="SVGID_5_" cx="299.5859" cy="1173.127" r="95.6617" gradientTransform="matrix(1 0 0 1.0847 -200 -1189.0676)" gradientUnits="userSpaceOnUse">
						<stop  offset="0.5215" style="stop-color:#FFB100;stop-opacity:0"/>
						<stop  offset="0.7485" style="stop-color:#AE1C00;stop-opacity:0.73"/>
						<stop  offset="0.7776" style="stop-color:#B22300;stop-opacity:0.5647"/>
						<stop  offset="0.8203" style="stop-color:#BD3700;stop-opacity:0.323"/>
						<stop  offset="0.871" style="stop-color:#CF5700;stop-opacity:0.0355"/>
						<stop  offset="0.8773" style="stop-color:#D25B00;stop-opacity:0"/>
					</radialGradient>
					<path fill="url(#SVGID_5_)" d="M156.527,140.445c0.453-1.596,3.666-3.795,2.334-6.479c-1.242-2.494-4.399-0.445-5.782-0.986
						c-1.035-0.406-2.238-0.52-3.536-0.215c-5.432,1.25-11.088,1.909-16.904,1.909c-41.436,0-75.031-33.594-75.031-75.032
						c0-2.708-0.887-4.98-2.102-6.906c-0.961-1.521-2.501-2.685-2.247-6.525c0.37-5.552,5.561-7.739,3.175-11.376
						c-0.97-1.485-5.369-3.49-8.759-2.306c-4.553,1.591-0.106,8.097-2.869,13.527c-0.721,1.414-2.731,2.289-4.496,3.314
						c-2.175,1.26-4.28,3.128-5.913,5.931C27.95,66.38,24.258,79.254,24.258,92.992c0,41.438,33.591,75.031,75.035,75.031
						c21.986,0,41.768-9.459,55.489-24.528C155.662,142.527,156.227,141.484,156.527,140.445z"/>
				</g>
				<path fill="#C27A00" d="M53.254,47.674c-0.026-0.439-0.03-0.922,0.005-1.458c0.37-5.552,5.561-7.739,3.175-11.376
					c-0.97-1.485-5.369-3.49-8.759-2.306c-4.553,1.591-0.106,8.097-2.869,13.527c-0.031,0.058-0.077,0.111-0.112,0.169
					C46.138,47.625,49.02,49.427,53.254,47.674z"/>
				
					<radialGradient id="SVGID_6_" cx="251.666" cy="1215.0635" r="7.3044" gradientTransform="matrix(1 0 0 1 -200 -1182)" gradientUnits="userSpaceOnUse">
					<stop  offset="0" style="stop-color:#F2DE00;stop-opacity:0.62"/>
					<stop  offset="1" style="stop-color:#FFFC00;stop-opacity:0"/>
				</radialGradient>
				<path opacity="0.87" fill="url(#SVGID_6_)" enable-background="new    " d="M53.893,38.919c2.622-0.179,2.933-0.669,3.105-1.548
					c0.156-0.804,0.033-1.623-0.563-2.532c-0.97-1.485-5.369-3.49-8.759-2.306c-1.381,0.483-1.934,1.416-2.11,2.635
					C45.305,36.952,48.843,39.265,53.893,38.919z"/>
				<path fill="#F5F500" d="M60.027,83.711c-3.988-11.506-3.817-23.296-4.108-24.66c-0.775-3.633-9.009-6.82-11.732,3.276
					c-5.243,19.418-5.005,44.313,18.104,66.948c16.864,16.52,39.018,24.457,70.764,17.394c19.535-4.349,16.5-12.926,16.5-12.926
					c-27.162,5.184-48.783-0.181-67.726-17.153C71.838,107.639,64.674,97.112,60.027,83.711z"/>
			</g>
		</g>
	</g>
</g>
</svg>
