<?xml version="1.0" encoding="utf-8"?>
<!-- Generator: Adobe Illustrator 15.0.0, SVG Export Plug-In . SVG Version: 6.00 Build 0)  -->
<!DOCTYPE svg PUBLIC "-//W3C//DTD SVG 1.1//EN" "http://www.w3.org/Graphics/SVG/1.1/DTD/svg11.dtd">
<svg version="1.1" id="Layer_1" xmlns="http://www.w3.org/2000/svg" xmlns:xlink="http://www.w3.org/1999/xlink" x="0px" y="0px"
	 width="200px" height="200px" viewBox="0 0 200 200" enable-background="new 0 0 200 200" xml:space="preserve">
<g id="icon">
	<g id="Layer_2">
	</g>
	<g id="Layer_1_1_">
		<g>
			<polygon fill="#FFFFFF" points="81.472,165.955 77.153,173.592 87.183,170.758 97.279,174.312 101.98,180.652 104.734,172.439 
				108.775,172.15 115.463,175.754 114.41,170.133 124.376,172.582 120.861,165.955 			"/>
			
				<radialGradient id="SVGID_1_" cx="250" cy="-621.5195" r="70.8472" gradientTransform="matrix(1 0 0 -1 -150 -530)" gradientUnits="userSpaceOnUse">
				<stop  offset="0" style="stop-color:#FFFFEB"/>
				<stop  offset="0.638" style="stop-color:#F1DBE1"/>
				<stop  offset="0.7066" style="stop-color:#EED7DE"/>
				<stop  offset="0.7736" style="stop-color:#E5CBD3"/>
				<stop  offset="0.8401" style="stop-color:#D5B8C2"/>
				<stop  offset="0.9062" style="stop-color:#BF9CAA"/>
				<stop  offset="0.9714" style="stop-color:#A3798C"/>
				<stop  offset="1" style="stop-color:#95677C"/>
			</radialGradient>
			<path fill="url(#SVGID_1_)" d="M79.345,24.682c0,0,4.478,11.949,2.301,29.026c-0.45,3.519-1.36,8.608-10.069,15.976
				c-8.711,7.369-35.93,13.988-40.529,39.794c-3.118,17.481,7.322,34.83,23.105,42.295c14.962,7.076,21.777,1.369,21.777,1.369
				s1.634,7.569,15.786,9.772c14.152,2.201,25.04-0.483,31.028-5.947c5.986-5.461,3.744-3.737,3.744-3.737s6.465,1.098,17.213-2.107
				c15.514-4.627,26.328-20.574,25.783-39.18c-0.545-18.606-13.039-29.133-31.229-34.867C116.21,70.129,109.68,61.438,109.68,46.11
				c0-15.328,1.633-22.938,1.633-22.938s-3.646-0.448-7.758-1.538c-2.736-0.725-5.203-2.219-8.68-2.279
				c-2.043-0.039-4.843,1.157-6.903,1.6C84.648,21.668,82.119,22.088,79.345,24.682z"/>
			
				<radialGradient id="SVGID_2_" cx="523.0088" cy="1484.8867" r="72.3999" gradientTransform="matrix(0.0059 1 0.5014 -0.0029 -648.1329 -428.0023)" gradientUnits="userSpaceOnUse">
				<stop  offset="0" style="stop-color:#FFFFEB"/>
				<stop  offset="0.638" style="stop-color:#F1DBE1"/>
				<stop  offset="0.7066" style="stop-color:#EED7DE"/>
				<stop  offset="0.7736" style="stop-color:#E5CBD3"/>
				<stop  offset="0.8401" style="stop-color:#D5B8C2"/>
				<stop  offset="0.9062" style="stop-color:#BF9CAA"/>
				<stop  offset="0.9714" style="stop-color:#A3798C"/>
				<stop  offset="1" style="stop-color:#95677C"/>
			</radialGradient>
			<path fill="url(#SVGID_2_)" d="M86.544,26.037c0,0,4.627,6.689,4.354,23.211c-0.059,3.547,0,14.333-5.717,24.488
				c-5.596,9.942-9.123,21.452-11.975,42.549c-2.379,17.6,2.723,36.857,2.723,36.857s1.634,7.569,15.786,9.772
				c14.152,2.201,25.04-0.483,31.028-5.947c5.987-5.461,6.532-7.778,6.532-7.778s3.781-13.943,1.086-32.361
				c-2.584-17.691-11.954-28.805-18.778-41.643c-5.716-10.752-8.729-22.234-8.709-30.671c0.024-11.433,1.903-18.478,1.903-18.478
				S98.177,30.548,86.544,26.037z"/>
			
				<radialGradient id="SVGID_3_" cx="68.2339" cy="-581.4395" r="48.7143" gradientTransform="matrix(0.9617 0 0 -1 15.0707 -530.21)" gradientUnits="userSpaceOnUse">
				<stop  offset="0" style="stop-color:#FFFFEB"/>
				<stop  offset="0.638" style="stop-color:#F1DBE1"/>
				<stop  offset="0.7066" style="stop-color:#EED7DE"/>
				<stop  offset="0.7736" style="stop-color:#E5CBD3"/>
				<stop  offset="0.8401" style="stop-color:#D5B8C2"/>
				<stop  offset="0.9062" style="stop-color:#BF9CAA"/>
				<stop  offset="0.9714" style="stop-color:#A3798C"/>
				<stop  offset="1" style="stop-color:#95677C"/>
			</radialGradient>
			<path fill="url(#SVGID_3_)" d="M103.691,21.02c3.89,0.938,7.621,0.437,7.621,2.151c0,1.606-2.313,3.974-6.533,3.838
				c-2.774-0.088-6.167,2.636-9.898,2.636c-3.084,0-4.272-1.785-6.704-2.227c-5.255-0.957-8.832-1.101-8.832-2.923
				c0-1.778,2.865-3.014,6.997-3.939c2.479-0.556,5.32-1.208,8.539-1.208C98.287,19.348,101.13,20.406,103.691,21.02z"/>
		</g>
	</g>
</g>
</svg>
