<?xml version="1.0" encoding="utf-8"?>
<!-- Generator: Adobe Illustrator 15.0.0, SVG Export Plug-In . SVG Version: 6.00 Build 0)  -->
<!DOCTYPE svg PUBLIC "-//W3C//DTD SVG 1.1//EN" "http://www.w3.org/Graphics/SVG/1.1/DTD/svg11.dtd">
<svg version="1.1" id="Layer_1" xmlns="http://www.w3.org/2000/svg" xmlns:xlink="http://www.w3.org/1999/xlink" x="0px" y="0px"
	 width="200px" height="200px" viewBox="0 0 200 200" enable-background="new 0 0 200 200" xml:space="preserve">
<g id="icon">
	<g id="Layer_2">
	</g>
	<g id="Layer_1_1_">
		<g>
			
				<linearGradient id="SVGID_1_" gradientUnits="userSpaceOnUse" x1="882.2217" y1="2679.1816" x2="900.9814" y2="2679.1816" gradientTransform="matrix(0.7845 -0.6201 -0.6201 -0.7845 1016.2507 2696.6863)">
				<stop  offset="0" style="stop-color:#377A13"/>
				<stop  offset="0.1963" style="stop-color:#79B333"/>
				<stop  offset="0.3742" style="stop-color:#94C000"/>
				<stop  offset="0.6012" style="stop-color:#79B333"/>
			</linearGradient>
			<path fill="url(#SVGID_1_)" d="M68.971,51.576c-5.551-4.298-13.103,1.555-11.058,6.587c-11.917-5.976-16.649-22.66-16.13-31.519
				c8.867,1.169,18.866,8.94,26.784,18.201C76.525,59.441,69.086,50.304,68.971,51.576z"/>
			
				<linearGradient id="SVGID_2_" gradientUnits="userSpaceOnUse" x1="899.793" y1="2659.291" x2="924.0518" y2="2659.291" gradientTransform="matrix(0.7845 -0.6201 -0.6201 -0.7845 1016.2507 2696.6863)">
				<stop  offset="0" style="stop-color:#377A13"/>
				<stop  offset="0.1963" style="stop-color:#79B333"/>
				<stop  offset="0.3742" style="stop-color:#94C000"/>
				<stop  offset="0.6012" style="stop-color:#79B333"/>
			</linearGradient>
			<path fill="url(#SVGID_2_)" d="M84.178,27.393c-0.398,7.01-2.598,15.209-0.344,22.528c-1.465,2.878-2.975,8.878-2.734,12.687
				C71.293,50.945,83.824,26.739,84.178,27.393z"/>
			
				<linearGradient id="SVGID_3_" gradientUnits="userSpaceOnUse" x1="899.0342" y1="2667.4072" x2="920.2822" y2="2667.4072" gradientTransform="matrix(0.7845 -0.6201 -0.6201 -0.7845 1016.2507 2696.6863)">
				<stop  offset="0" style="stop-color:#377A13"/>
				<stop  offset="0.1963" style="stop-color:#79B333"/>
				<stop  offset="0.3742" style="stop-color:#94C000"/>
				<stop  offset="0.6012" style="stop-color:#79B333"/>
			</linearGradient>
			<path fill="url(#SVGID_3_)" d="M78.156,25.851c0,0-5.854,16.002-4.472,28.497C64.029,43.593,66.173,33.208,78.156,25.851z"/>
			
				<linearGradient id="SVGID_4_" gradientUnits="userSpaceOnUse" x1="869.4658" y1="2668.2441" x2="884.5996" y2="2668.2441" gradientTransform="matrix(0.7845 -0.6201 -0.6201 -0.7845 1016.2507 2696.6863)">
				<stop  offset="0" style="stop-color:#377A13"/>
				<stop  offset="0.1963" style="stop-color:#79B333"/>
				<stop  offset="0.3742" style="stop-color:#94C000"/>
				<stop  offset="0.6012" style="stop-color:#79B333"/>
			</linearGradient>
			<path fill="url(#SVGID_4_)" d="M37.799,56.74c7.625-1.747,16.463-5.125,23.744,5.769C50.896,66.005,47.192,57.676,37.799,56.74z"
				/>
			
				<linearGradient id="SVGID_5_" gradientUnits="userSpaceOnUse" x1="358.2764" y1="-875.3125" x2="364.3665" y2="-851.2906" gradientTransform="matrix(0.9932 0.1163 0.1163 -0.9932 -204.0037 -841.2439)">
				<stop  offset="0" style="stop-color:#377A13"/>
				<stop  offset="0.1963" style="stop-color:#79B333"/>
				<stop  offset="0.3742" style="stop-color:#94C000"/>
				<stop  offset="0.6012" style="stop-color:#79B333"/>
			</linearGradient>
			<path fill="url(#SVGID_5_)" d="M34.273,66.66c10.119-0.016,25.335-5.693,31.508,6.307C55.297,76.25,44.029,69.605,34.273,66.66z"
				/>
			
				<radialGradient id="SVGID_6_" cx="904.7607" cy="2814.0459" r="63.2508" fx="921.172" fy="2803.7791" gradientTransform="matrix(0.7896 -0.6136 -0.7747 -0.9968 1578.3174 3469.3076)" gradientUnits="userSpaceOnUse">
				<stop  offset="0.2331" style="stop-color:#F9ED00"/>
				<stop  offset="0.4601" style="stop-color:#F9D100"/>
				<stop  offset="0.773" style="stop-color:#FF8B02"/>
				<stop  offset="0.9264" style="stop-color:#FFD202"/>
			</radialGradient>
			<path fill="url(#SVGID_6_)" d="M149.718,88.147c21.632,27.369,20.915,62.28,0.384,78.507
				c-20.533,16.229-55.18,9.267-76.811-18.104c-24.481-30.977-23.929-60.976-1.56-80.29
				C95.728,47.543,127.135,59.576,149.718,88.147z"/>
			
				<radialGradient id="SVGID_7_" cx="904.7607" cy="2814.0459" r="63.2508" fx="921.172" fy="2803.7791" gradientTransform="matrix(0.7896 -0.6136 -0.7747 -0.9968 1578.3174 3469.3076)" gradientUnits="userSpaceOnUse">
				<stop  offset="0.2331" style="stop-color:#F9ED00"/>
				<stop  offset="0.4601" style="stop-color:#F9D100"/>
				<stop  offset="0.773" style="stop-color:#FF8B02"/>
				<stop  offset="0.9264" style="stop-color:#FFD202"/>
			</radialGradient>
			<path fill="url(#SVGID_7_)" d="M149.718,88.147c21.632,27.369,20.915,62.28,0.384,78.507
				c-20.533,16.229-55.18,9.267-76.811-18.104c-24.481-30.977-23.929-60.976-1.56-80.29
				C95.728,47.543,127.135,59.576,149.718,88.147z"/>
			
				<radialGradient id="SVGID_8_" cx="-200.8042" cy="614.7256" r="52.0802" gradientTransform="matrix(-0.7748 0.6322 0.9572 1.1732 -624.3165 -486.2903)" gradientUnits="userSpaceOnUse">
				<stop  offset="0.4601" style="stop-color:#F9D100;stop-opacity:0"/>
				<stop  offset="0.773" style="stop-color:#CA6A02"/>
			</radialGradient>
			<path opacity="0.46" fill="url(#SVGID_8_)" enable-background="new    " d="M155.654,144.454
				c-17.211,13.604-46.254,7.767-64.387-15.175c-20.522-25.967-20.06-51.114-1.308-67.305c1.794-1.549,3.641-2.871,5.524-3.993
				c-8.304,0.651-16.379,3.915-23.753,10.282c-22.369,19.314-22.922,49.313,1.56,80.29c21.631,27.367,56.276,34.33,76.81,18.102
				c10.422-8.232,15.729-21.283,15.606-35.719C163.518,136.251,160.161,140.895,155.654,144.454z"/>
			<g opacity="0.63">
				<path fill="#6E4B16" d="M67.087,79.535c-0.756,0.599-1.515,1.197-2.271,1.795c0.934,0.835,1.907,1.32,2.932,1.374
					C67.12,81.601,67.973,80.67,67.087,79.535L67.087,79.535z"/>
				<path fill="#6E4B16" d="M80.086,76.152c0.201,1.455-2.135,2.318-2.093,2.728c-1.737-0.443-0.776,1.958-2.595,1.398
					c-0.24-0.072,2.205-2.977,1.965-3.051"/>
				<path fill="#6E4B16" d="M91.604,76.652c2.28,0.079,4.472,0.156,6.497,0.55c-1.932,0.738-4.762,1.009-4.75,1.12
					c-2.222-0.121,1.393,6.321-0.91,5.977c-0.244-1.632-0.405-3.294-0.57-5.015C91.786,78.417,91.701,77.54,91.604,76.652"/>
				<path fill="#6E4B16" d="M74.471,91.782c0.52,0.146,1.043,0.297,1.574,0.451c1.839,0.529,3.717,1.07,5.648,1.512
					c0.16,2.467-6.004-1.869-6.175,0.21c-0.963-0.251,0.07,5.065-1.472,4.607c-0.025-1.435,0.105-2.93,0.24-4.478
					C74.352,93.343,74.419,92.573,74.471,91.782"/>
				<path fill="#6E4B16" d="M109.611,77.157c0.451-0.021,0.908-0.04,1.371-0.059c1.91-0.08,3.854-0.162,5.857-0.367
					c0.456,1.781-5.033,1.164-4.855,1.988c-1.855,0.236-0.754,6.396-1.354,6.425C110.37,82.542,110.102,79.888,109.611,77.157"/>
				<path fill="#6E4B16" d="M72.496,109.93c2.506,0.801,4.981,1.344,7.407,1.875c0.145,0.03,0.288,0.062,0.431,0.094
					c-0.272,2.627-5.744-2.513-6.52,0.008c-0.65-0.225-0.76,5.82-2.534,5.046c0.497-1.823,0.737-3.591,0.961-5.233
					C72.324,111.098,72.406,110.503,72.496,109.93"/>
				<path fill="#6E4B16" d="M93.129,95.81c0.522,0.051,1.05,0.104,1.584,0.156c1.816,0.181,3.667,0.365,5.551,0.495
					c0.122,2.002-5.254-0.362-5.355,1.767c-0.018,0.393-2.075,4.661-2.133,4.652c0.008-1.293,0.094-2.621,0.182-3.989
					C93.023,97.878,93.09,96.854,93.129,95.81"/>
				<path fill="#6E4B16" d="M128.635,77.472c1.475,1.065,0.41-0.832,2.234,0.971c-1.242,0.305,0.186,3.968-1.092,4.234
					C129.447,80.949,129.059,79.215,128.635,77.472"/>
				<path fill="#6E4B16" d="M69.362,128.271c0.842,0.312,1.679,0.623,2.509,0.933c1.157,0.432,2.33,0.869,3.515,1.303
					c-0.166,0.476-0.329,0.947-0.489,1.415c-0.436,1.264-4.05-3.411-4.528-2.21c-1.213-1.526,0.897,2.729,0.074,1.099
					C69.98,129.893,69.624,129.045,69.362,128.271"/>
				<path fill="#6E4B16" d="M111.561,96.45c0.685-0.045,1.371-0.088,2.07-0.133c2.126-0.133,4.291-0.268,6.503-0.504
					c0.146,1.899-6.589,1.711-6.577,2.309c-2.33,0.333-1.511,5.871-2.084,5.896C111.54,101.546,111.611,99.024,111.561,96.45"/>
				<path fill="#6E4B16" d="M91.471,114.143c0.869,0.11,1.757,0.243,2.662,0.381c1.614,0.242,3.257,0.487,4.949,0.638
					c-0.385,2.958-5.323-0.979-6.127,1.808c-1.795-0.127-2.57,5.604-3.231,5.473c0.043-0.19,0.087-0.383,0.13-0.573
					C90.425,119.343,91.006,116.77,91.471,114.143"/>
				<path fill="#6E4B16" d="M131.416,93.934c2.408-0.534,4.859-1.103,7.354-1.811c0.367,2.356-5.416,0.597-5.293,3.066
					c-2.175,0.686-1.506,6.12-1.891,6.216c-0.013-0.689-0.012-1.389-0.014-2.1C131.57,97.624,131.568,95.82,131.416,93.934"/>
				<path fill="#6E4B16" d="M86.467,133.458c1.426,0.258,2.833,0.474,4.219,0.685c1.133,0.172,2.24,0.342,3.326,0.528
					c-0.082,0.222-0.163,0.44-0.245,0.66c-0.924,2.502-4.89-2.603-5.946-0.267c-2.33-0.312-1.654,6.541-4.154,5.859
					c-0.039-0.011-0.078-0.021-0.117-0.029c0.056-0.137,0.113-0.271,0.17-0.404C84.672,138.202,85.646,135.866,86.467,133.458"/>
				<path fill="#6E4B16" d="M110.465,115.409c0.736-0.035,1.48-0.064,2.244-0.097c2.323-0.097,4.691-0.188,7.123-0.442
					c-0.191,2.918-6.771-0.183-7.6,2.846c-1.269,0.074-1.611,6.697-3.375,6.691C109.578,121.574,110.111,118.588,110.465,115.409"/>
				<path fill="#6E4B16" d="M131.389,112.986c1.555-0.416,3.135-0.758,4.771-1.11c1.152-0.249,2.318-0.502,3.507-0.787
					c-0.106,2.859-5.854,0.481-6.313,3.468c-2.396,0.721,0.516,6.502-2.011,7.032c-0.425,0.088-0.848,0.179-1.274,0.269
					c0.08-0.422,0.166-0.852,0.25-1.281C130.773,118.236,131.277,115.691,131.389,112.986"/>
				<path fill="#6E4B16" d="M105.782,135.598c2.886,0.038,6.081,0.006,9.431-0.207c-0.896,2.756-6.595-0.966-8.031,2.204
					c-3,0.244-1.5,6.679-4.68,6.448c0.171-0.406,0.346-0.812,0.52-1.227C104.014,140.484,105.027,138.1,105.782,135.598"/>
				<path fill="#6E4B16" d="M151.053,107.188c0.318-0.136,0.646-0.264,0.98-0.386c1.099,2.408-1.035-0.715-0.496,1.476
					c-0.124,0.055,0.302,6.765-0.958,7.289c0.015-0.146,0.03-0.289,0.047-0.437C150.896,112.688,151.191,110.016,151.053,107.188"/>
				<path fill="#6E4B16" d="M97.156,155.225c3.006-0.148,6.019,0.002,9.106,0.248c-1.171,2.188-6.774-1.168-8.172,0.889
					c-2.294-1.021-0.181,3.201-2.472,1.738C96.165,157.18,96.688,156.221,97.156,155.225"/>
				<path fill="#6E4B16" d="M127.424,133.939c0.126-0.021,0.25-0.043,0.375-0.062c2.883-0.482,5.82-0.977,8.835-1.73
					c-0.772,3.289-6.833-0.002-8.077,3.106c-0.988,0.164-2.17,7.726-4.188,8.022C125.529,140.245,126.631,137.141,127.424,133.939"
					/>
				<path fill="#6E4B16" d="M149.042,128.239c1.718-0.584,3.46-1.183,5.231-1.88c-0.428,2.754-4.103,2.604-4.188,2.941
					c-0.062,0.025-1.687,7.912-3.422,8.533C147.594,134.745,148.529,131.57,149.042,128.239"/>
				<path fill="#6E4B16" d="M119.182,155.245c1.502-0.218,3.028-0.369,4.615-0.529c1.526-0.151,3.068-0.308,4.641-0.521
					c-0.392,0.729-7.48,1.062-8.248,2.635c-0.045,0.008-1.748,5.201-4.713,5.459c0.756-1.365,1.453-2.723,2.146-4.062
					C118.148,157.204,118.658,156.217,119.182,155.245"/>
				<path fill="#6E4B16" d="M141.95,151.264c1.708-0.638,3.438-1.164,5.245-1.712c0.154-0.047,0.31-0.094,0.464-0.141
					c-0.837,2.858-3.144,1.278-4.825,2.741c-0.068,0.061-1.93,5.963-3.912,6.339C140.034,156.178,141.04,153.773,141.95,151.264"/>
			</g>
			<path fill="none" d="M79.504,66.387l-5.484,1.618l-3.302,5.614l-5.915,2.158l0.764,1.833l-2.277,1.8
				c0.011,0.009,0.021,0.018,0.03,0.026c7.773-5.759,15.747-13.227,23.388-17.869l-3.669,1.769L79.504,66.387z"/>
			<path fill="none" d="M101.421,70.848c-1.068-2.987-1.875-5.943-3.414-8.986c-3.672,0.374-14.48,0.331-12.552,7.46
				C90.704,70.465,96.097,70.354,101.421,70.848z"/>
			<path fill="none" d="M67.747,82.704c-0.627-1.104,0.226-2.034-0.66-3.169c-0.756,0.599-1.515,1.197-2.271,1.795
				C65.749,82.165,66.723,82.65,67.747,82.704z"/>
			<g>
				<g>
					<g>
						<defs>
							<path id="SVGID_9_" d="M149.718,88.147c21.632,27.369,20.915,62.28,0.384,78.507c-20.533,16.229-55.18,9.267-76.811-18.104
								c-24.481-30.977-23.929-60.976-1.56-80.29C95.728,47.543,127.135,59.576,149.718,88.147z"/>
						</defs>
						<clipPath id="SVGID_10_">
							<use xlink:href="#SVGID_9_"  overflow="visible"/>
						</clipPath>
						<path opacity="0.3" clip-path="url(#SVGID_10_)" fill="#6E4B16" enable-background="new    " d="M89.091,57.889
							C89.071,57.849,89.109,57.929,89.091,57.889l-3.715,0.612c-8.053,4.892-16.454,12.76-24.645,18.83
							c-0.01-0.01-0.022-0.019-0.032-0.028l-2.391,1.888c0.01,0.012,0.853,0.54,0.863,0.551
							c-9.145,23.217-8.177,48.722,16.029,74.932c21.168,22.916,54.362,31.688,77.498,11.145c8.375-7.437,12.7-18.383,14.056-27.31
							C173.062,96.942,128.938,49.015,89.091,57.889z M121.145,65.222c0.969-1.041,1.551,1.192,2.459,0.65
							C123.604,67.423,121.08,66.84,121.145,65.222z M144.152,82.032c-5.993,2.755-11.744,3.432-17.576,4.818
							c-0.695-5.992-2.326-12.095-4.021-18.205C130.543,66.372,137.189,75.547,144.152,82.032z M124.896,88.825
							c1.359,6.072,0.763,11.914,1.164,17.873c-6.737,1.909-13.17,1.22-19.781,2.026c0.021-6.031,0.521-12.003-0.053-18.104
							C112.465,89.905,118.602,90.041,124.896,88.825z M106.079,88.794c-0.804-6.126-0.907-12.171-2.907-18.437
							c5.889-0.833,11.617-0.301,17.557-1.564c2.131,6.04,2.717,11.9,4.418,17.892C118.641,88.682,112.441,88.031,106.079,88.794z
							 M105.713,110.468c6.469-0.635,12.814-0.215,19.383-1.711c1.121,7.009-0.828,13.656-2.738,20.31
							c-6.729-0.242-13.735,1.924-20.246-0.196C104.348,122.854,105.348,116.698,105.713,110.468z M100.285,129.016
							c-6.138,0.891-11.855-1.8-17.854-2.091c1.21-6.132,2.949-12.2,3.602-18.399c6.044-0.086,11.827,2.037,17.938,1.377
							C103.654,116.38,102.495,122.759,100.285,129.016z M104.536,108.158c-5.958,0.402-11.716-0.915-17.537-1.692
							c-0.957-5.901,0.668-11.503-0.137-17.388c5.761,0.272,11.439,1.232,17.224,1.292
							C105.521,96.45,104.334,102.223,104.536,108.158z M84.142,106.133c-5.547-2.072-11.259-2.753-16.803-4.863
							c-1.227-5.935,0.905-11.477-0.135-17.39c5.919,0.957,11.661,3.441,17.601,4.233C85.51,94.228,85.615,100.272,84.142,106.133z
							 M83.975,107.562c-0.07,6.385-1.352,12.629-4,18.713c-5.729-2.576-11.662-3.446-17.268-7.088
							c3.097-5.312,1.675-11.146,4.465-16.489C72.641,105.443,78.355,106.104,83.975,107.562z M99.95,131.872
							c-2.407,5.75-4.058,11.59-7.089,17.267c-6.043,0.076-11.796-2.306-17.686-3.519c2.105-5.786,5.072-11.472,6.374-17.351
							C87.631,129.917,93.885,130.082,99.95,131.872z M101.462,131.324c6.849,0.236,13.731,0.188,20.728-0.83
							c-1.328,6.722-3.902,13.297-7.022,19.808c-6.896,1.194-13.506-0.061-20.245-0.198
							C96.627,143.789,100.518,137.729,101.462,131.324z M137.404,148.925c-0.854,6.535-5.813,12.591-8.369,18.929
							c-7.62,1.203-15.285,2.782-22.639,1.69c4.457-5.51,6.68-11.28,9.943-16.933C123.381,151.229,130.198,151.734,137.404,148.925z
							 M139.547,149.176c6.104-2.671,11.985-3.441,18.143-6.562c-2.854,5.411-3.014,14.905-8.453,19.642
							c-4.743,4.131-12.473,3.708-18.291,4.734C134.823,161.171,137.537,155.214,139.547,149.176z M117.307,150.555
							c2.5-6.705,5.563-13.345,6.711-20.207c6.656-1.221,13.252-1.887,20.114-4.885c-0.261,7.569-2.798,14.874-5.846,22.117
							C131.283,148.659,124.229,150.184,117.307,150.555z M125.297,128.688c-0.279-6.668,2.85-12.938,1.943-19.681
							c6.306-2.336,12.373-2.64,18.687-5.051c0.998,6.753-0.241,13.244-1.228,19.764C138.133,126.217,131.8,126.729,125.297,128.688
							z M128.203,106.948c-1.314-6.188,0.122-12.051-1.479-18.271c5.699-1.293,11.375-2.357,17.176-4.504
							c2.007,6.025,1.896,11.805,2.275,17.64C140.102,104.271,134.212,105.104,128.203,106.948z M119.866,66.883
							c-5.841,1.447-11.509,1.431-17.158,1.248c-1.513-2.832-1.146-5.443-3.365-8.357C106.1,59.996,116.279,59.719,119.866,66.883z
							 M97.285,58.809c1.622,3.206,2.471,6.322,3.597,9.47c-5.61-0.52-11.294-0.403-16.824-1.608
							C82.024,59.158,93.414,59.203,97.285,58.809z M101.658,70.904c1.562,5.853,1.769,11.548,2.679,17.325
							c-5.859,0.581-11.533-0.421-17.224-1.292c-1.484-6.087-1.203-11.965-2.593-18.04C90.222,69.669,96.111,68.831,101.658,70.904z
							 M78.576,67.115c1.307,0.188,2.539,0.993,3.887,0.817c1.498,6.087,1.428,11.991,2.593,18.039
							c-5.995-0.317-11.758-2.62-17.601-4.233C63.283,75.496,73.045,72.571,78.576,67.115z M64.7,77.434
							c0.934,1.196,0.034,2.176,0.696,3.338c-1.081-0.055-2.106-0.567-3.089-1.447C63.105,78.695,63.902,78.065,64.7,77.434z
							 M65.146,82.915c3.062,3.834-0.988,12.261-0.58,17.306c-2.588-1.592-5.191-3.06-7.837-4.175
							C56.14,91.435,60.058,76.552,65.146,82.915z M56.165,97.789c3.009,1.087,5.925,2.968,8.865,4.656
							c-2.054,5.312-1.046,10.979-4.065,16.175C53.835,113.675,56.953,104.336,56.165,97.789z M58.34,119.398
							c2.375-0.31,2.428,2.457,1.723,3.818C58.843,123.286,59.273,120.497,58.34,119.398z M62.058,121.645
							c6.046,1.95,12.025,4.457,18.064,6.459c-2.627,5.604-3.413,11.424-7.403,16.867C65.84,139.484,59.097,128.331,62.058,121.645z
							 M73.811,147.993c4.753-1.229,11.891,3.426,17.771,2.805c-0.503,3.32-3.498,6.349-4.741,9.58
							C82.473,158.501,76.719,152.047,73.811,147.993z M87.785,161.574c2.146-3.008,4.046-6.041,5.057-9.182
							c7.219-0.859,14.227,0.097,21.275,0.683c-3.275,5.771-5.77,11.631-10.346,17.248C98.327,168.4,93,165.46,87.785,161.574z
							 M108.604,172.337c4.73-1.231,12.418-0.968,18.354-2.192c-0.177,1.547-1.437,2.967-2.329,4.434
							C119.223,174.389,113.896,173.502,108.604,172.337z M127.17,174.511c2.53-8.348,13.4-5.413,19.904-9.252
							C143.616,173.041,133.305,173.252,127.17,174.511z M149.133,166.225c0.088-1.459,1.389-2.519,2.875-2.922
							C152.422,164.438,149.895,165.227,149.133,166.225z M152.175,161.874c2.066-6.513,6.337-12.771,7.341-19.408
							c1.389-1.542,2.578-1.418,3.905-2.438C163.08,147.521,160.379,156.488,152.175,161.874z M164.784,137.652
							c-1.353,1.242-2.505,0.781-3.822,1.726c1.021-5.43,2.729-10.78,2.64-16.341C166.005,126.699,164.125,132.989,164.784,137.652z
							 M158.652,140.555c-5.801,2.152-11.621,4.459-17.344,5.932c1.321-7.201,4.643-14.174,5.051-21.484
							c5.158-1.814,10.271-3.247,15.601-6.497C162.725,126.07,160.377,133.275,158.652,140.555z M162.525,116.759
							c-5.073,2.117-10.17,4.423-15.2,6.183c-0.593-6.463,1.688-12.59,0.429-19.133c3.161-2.267,6.113-2.748,9.155-3.996
							C159.439,105.538,162.637,111.343,162.525,116.759z M148.404,101.352c-1.112-5.681-0.951-11.209-2.362-16.927
							c4.462,3.181,6.72,9.229,10.005,13.478C153.422,99.716,151.01,99.71,148.404,101.352z"/>
					</g>
				</g>
			</g>
			
				<linearGradient id="SVGID_11_" gradientUnits="userSpaceOnUse" x1="374.1084" y1="-871.4214" x2="384.7221" y2="-842.1536" gradientTransform="matrix(0.9932 0.1163 0.1163 -0.9932 -204.0037 -841.2439)">
				<stop  offset="0" style="stop-color:#377A13"/>
				<stop  offset="0.1963" style="stop-color:#79B333"/>
				<stop  offset="0.3742" style="stop-color:#94C000"/>
				<stop  offset="0.6012" style="stop-color:#79B333"/>
			</linearGradient>
			<path fill="url(#SVGID_11_)" d="M57.14,47.043c11.836-2.379,18.96,10.926,25.062,16.6c-0.504-13.262,2.148-11.999,12.48-22.959
				c-2.475,7.285-5.304,12.595-5.349,18.808c1.165,4.216-4.823,13.689-8.581,16.738c-3.844,3.119-15.606,6.685-21.278,6.12
				c-7.44-0.753-17.426,2.247-22.726,2.357c8.507-6.093,17.767-11.549,28.558-9.197C62.184,66.066,52.955,57.31,57.14,47.043z"/>
		</g>
	</g>
</g>
</svg>
