<?xml version="1.0" encoding="utf-8"?>
<!-- Generator: Adobe Illustrator 15.0.0, SVG Export Plug-In . SVG Version: 6.00 Build 0)  -->
<!DOCTYPE svg PUBLIC "-//W3C//DTD SVG 1.1//EN" "http://www.w3.org/Graphics/SVG/1.1/DTD/svg11.dtd">
<svg version="1.1" id="Layer_1" xmlns="http://www.w3.org/2000/svg" xmlns:xlink="http://www.w3.org/1999/xlink" x="0px" y="0px"
	 width="200px" height="200px" viewBox="0 0 200 200" enable-background="new 0 0 200 200" xml:space="preserve">
<g id="icon">
	<g id="Layer_2">
	</g>
	<g id="Layer_1_1_">
		<g>
			<path fill="#FFFFFF" d="M26.431,60.381c0,0-4.594,6.426-7.344,13.438c-2.75,7.012-4.25,9.705-0.75,9.415s21.375-4.29,21.375-4.29
				L26.431,60.381z"/>
			<g>
				<g>
					<g>
						
							<radialGradient id="SVGID_1_" cx="174.0342" cy="1231.4668" r="16.4754" gradientTransform="matrix(1 0 0 1 -200 -1182)" gradientUnits="userSpaceOnUse">
							<stop  offset="0" style="stop-color:#FFF44B"/>
							<stop  offset="0.2393" style="stop-color:#FFE300"/>
							<stop  offset="0.524" style="stop-color:#FEE100"/>
							<stop  offset="0.6769" style="stop-color:#F9D900"/>
							<stop  offset="0.7986" style="stop-color:#F1CB00"/>
							<stop  offset="0.9031" style="stop-color:#E7B800"/>
							<stop  offset="0.9448" style="stop-color:#E1AE00"/>
						</radialGradient>
						<path fill="url(#SVGID_1_)" d="M160.521,135.668c0.527,0.527,1.91,2.018,2.24,2.641c1.793,3.393,1.092,7.871-0.839,9.799
							c-1.896,1.896-6.271,2.119-9.799,0.838c-0.665-0.238-2.11-1.711-2.646-2.236c-3.049-3.048-3.049-7.99,0-11.037
							C152.533,132.619,157.475,132.619,160.521,135.668z"/>
						
							<radialGradient id="SVGID_2_" cx="2221.3311" cy="1169.0117" r="81.2457" fx="2220.2073" fy="1177.2148" gradientTransform="matrix(0.7119 0.7022 -0.6331 0.6418 -726.097 -2223.4885)" gradientUnits="userSpaceOnUse">
							<stop  offset="0" style="stop-color:#FFF44B"/>
							<stop  offset="0.2393" style="stop-color:#FFE300"/>
							<stop  offset="0.4299" style="stop-color:#FEE100"/>
							<stop  offset="0.5324" style="stop-color:#FAD900"/>
							<stop  offset="0.6139" style="stop-color:#F4CB00"/>
							<stop  offset="0.6839" style="stop-color:#EBB800"/>
							<stop  offset="0.7362" style="stop-color:#E1A400"/>
							<stop  offset="1" style="stop-color:#E6B700"/>
						</radialGradient>
						<path fill="url(#SVGID_2_)" d="M149.457,60.198c7.25,6.77,11.723,11.68,16.227,19.9c11.09,20.24,11.688,46.808-6.638,65.13
							c-18.325,18.32-43.958,17.64-60.649,10.022c-13.748-6.271-22.547-15.438-29.003-25.795
							c-11.059-17.748-16.21-48.429,4.622-69.261C94.848,39.365,129.969,42,149.457,60.198z"/>
						
							<radialGradient id="SVGID_3_" cx="316.7754" cy="1295.917" r="70.7025" gradientTransform="matrix(1 0 0 1 -200 -1182)" gradientUnits="userSpaceOnUse">
							<stop  offset="0.638" style="stop-color:#FFFA6F;stop-opacity:0"/>
							<stop  offset="1" style="stop-color:#FFFA6F"/>
						</radialGradient>
						<path fill="url(#SVGID_3_)" d="M149.457,60.198c7.25,6.77,11.723,11.68,16.227,19.9c11.09,20.24,11.688,46.808-6.638,65.13
							c-18.325,18.32-43.958,17.64-60.649,10.022c-13.748-6.271-22.547-15.438-29.003-25.795
							c-11.059-17.748-16.21-48.429,4.622-69.261C94.848,39.365,129.969,42,149.457,60.198z"/>
						
							<radialGradient id="SVGID_4_" cx="451.7754" cy="1419.293" r="18.7304" fx="444.4973" fy="1416.7827" gradientTransform="matrix(0.9087 -0.0913 -0.0913 0.9087 -205.8748 -1187.8748)" gradientUnits="userSpaceOnUse">
							<stop  offset="0.1534" style="stop-color:#FFFF7E"/>
							<stop  offset="0.5951" style="stop-color:#FFE300"/>
							<stop  offset="0.704" style="stop-color:#FFE001;stop-opacity:0.7309"/>
							<stop  offset="0.7894" style="stop-color:#FED605;stop-opacity:0.5201"/>
							<stop  offset="0.8667" style="stop-color:#FCC50B;stop-opacity:0.3292"/>
							<stop  offset="0.9389" style="stop-color:#FAAE14;stop-opacity:0.1509"/>
							<stop  offset="1" style="stop-color:#F7941E;stop-opacity:0"/>
						</radialGradient>
						<path fill="url(#SVGID_4_)" d="M86.209,54.56c0.855,0.381,2.811,0.449,3.252,1.207c2.27,3.891,0.981,11.549-3.045,15.575
							c-4.025,4.024-11.952,6.058-15.842,3.789c-0.755-0.442-0.502-3.176-0.94-3.998c-2.209-4.145-0.687-11.082,2.078-13.845
							C74.73,54.269,80.848,52.177,86.209,54.56z"/>
						
							<radialGradient id="SVGID_5_" cx="282.7588" cy="1235.3867" r="19.9647" gradientTransform="matrix(1 0 0 1 -200 -1182)" gradientUnits="userSpaceOnUse">
							<stop  offset="0.0429" style="stop-color:#FFFF7E;stop-opacity:0.56"/>
							<stop  offset="1" style="stop-color:#F7941E;stop-opacity:0"/>
						</radialGradient>
						<path fill="url(#SVGID_5_)" d="M84.649,56.119c0.813,0.424,2.595,0.666,3.065,1.394c2.418,3.742,1.946,10.583-1.345,13.875
							c-3.289,3.289-10.307,4.413-14.049,1.996c-0.727-0.47-0.746-2.932-1.219-3.718c-2.387-3.967-1.637-10.132,0.623-12.391
							C74.193,54.807,79.56,53.464,84.649,56.119z"/>
						<g opacity="0.13">
							<path fill="#E36300" d="M73.156,109.336c-0.547,0.543-1.427,0.543-1.974,0c-0.542-0.546-0.542-1.426,0-1.975
								c0.547-0.539,1.427-0.539,1.974,0C73.701,107.91,73.701,108.79,73.156,109.336z"/>
							<path fill="#E36300" d="M110.906,147.088c-0.545,0.541-1.426,0.541-1.973,0c-0.543-0.545-0.543-1.423,0-1.975
								c0.547-0.543,1.428-0.543,1.973,0C111.449,145.665,111.449,146.543,110.906,147.088z"/>
							<path fill="#E36300" d="M80.745,116.398c-0.545,0.545-1.429,0.545-1.968,0c-0.547-0.547-0.547-1.433,0-1.975
								c0.539-0.546,1.423-0.546,1.968,0S81.29,115.854,80.745,116.398z"/>
							<path fill="#E36300" d="M74.272,98.89c-0.547,0.543-1.426,0.543-1.974,0c-0.542-0.547-0.542-1.431,0-1.975
								c0.548-0.544,1.427-0.544,1.974,0C74.817,97.459,74.817,98.343,74.272,98.89z"/>
							<path fill="#E36300" d="M71.773,85.611c-0.543,0.546-1.425,0.546-1.969,0c-0.545-0.545-0.545-1.423,0-1.973
								c0.544-0.54,1.426-0.54,1.969,0C72.319,84.188,72.319,85.066,71.773,85.611z"/>
							<path fill="#E36300" d="M136.04,149.879c-0.543,0.547-1.424,0.547-1.97,0c-0.549-0.545-0.549-1.426,0-1.971
								c0.546-0.545,1.427-0.545,1.97,0C136.585,148.453,136.585,149.334,136.04,149.879z"/>
							<path fill="#E36300" d="M122.801,147.415c-0.544,0.542-1.427,0.542-1.972,0c-0.541-0.544-0.541-1.429,0-1.972
								c0.545-0.545,1.428-0.545,1.972,0C123.346,145.986,123.346,146.871,122.801,147.415z"/>
							<path fill="#E36300" d="M104.27,139.924c-0.545,0.545-1.43,0.545-1.972,0c-0.544-0.551-0.544-1.429,0-1.977
								c0.542-0.543,1.427-0.543,1.972,0C104.814,138.495,104.814,139.373,104.27,139.924z"/>
							<path fill="#E36300" d="M100.294,148.305c-0.545,0.543-1.429,0.543-1.971,0c-0.542-0.548-0.542-1.428,0-1.973
								c0.542-0.543,1.426-0.543,1.971,0C100.84,146.877,100.84,147.757,100.294,148.305z"/>
							<path fill="#E36300" d="M73.616,121.621c-0.546,0.547-1.43,0.547-1.972,0c-0.546-0.543-0.546-1.426,0-1.967
								c0.542-0.547,1.426-0.547,1.972,0C74.161,120.195,74.161,121.078,73.616,121.621z"/>
							<path fill="#E36300" d="M90.767,129.969c-0.547,0.539-1.429,0.539-1.973,0c-0.542-0.545-0.542-1.425,0-1.971
								c0.544-0.547,1.426-0.547,1.973,0C91.309,128.544,91.309,129.424,90.767,129.969z"/>
							<path fill="#E36300" d="M84.521,136.212c-0.542,0.544-1.425,0.544-1.97,0c-0.543-0.547-0.543-1.433,0-1.976
								c0.545-0.537,1.428-0.537,1.97,0C85.066,134.779,85.066,135.665,84.521,136.212z"/>
							<path fill="#F77300" d="M161.604,95.454c0.545-0.544,1.426-0.544,1.976,0c0.541,0.545,0.541,1.426,0,1.973
								c-0.55,0.538-1.431,0.538-1.976,0C161.059,96.88,161.059,95.999,161.604,95.454z"/>
							<path fill="#F77300" d="M120.867,58.071c0.543-0.542,1.422-0.542,1.973,0c0.541,0.544,0.541,1.426,0,1.97
								c-0.551,0.548-1.43,0.548-1.973,0C120.32,59.497,120.32,58.616,120.867,58.071z"/>
							<path fill="#F77300" d="M123.271,77.587c0.543-0.542,1.426-0.542,1.974,0c0.54,0.545,0.54,1.424,0,1.969
								c-0.548,0.547-1.431,0.547-1.974,0C122.729,79.011,122.729,78.132,123.271,77.587z"/>
							<path fill="#F77300" d="M154.01,79.192c0.549-0.547,1.428-0.547,1.973,0c0.545,0.543,0.545,1.424,0,1.969
								c-0.545,0.547-1.424,0.547-1.973,0C153.468,80.616,153.468,79.735,154.01,79.192z"/>
							<path fill="#F77300" d="M154.01,88.392c0.549-0.546,1.428-0.546,1.973,0c0.545,0.547,0.545,1.428,0,1.97
								c-0.545,0.546-1.424,0.546-1.973,0C153.468,89.819,153.468,88.938,154.01,88.392z"/>
							<path fill="#F77300" d="M160.488,105.902c0.543-0.549,1.424-0.549,1.969,0c0.541,0.547,0.541,1.425,0,1.971
								c-0.545,0.549-1.426,0.549-1.969,0C159.941,107.327,159.941,106.449,160.488,105.902z"/>
							<path fill="#F77300" d="M162.98,119.178c0.545-0.546,1.43-0.546,1.975,0c0.541,0.539,0.541,1.428,0,1.973
								c-0.545,0.537-1.43,0.537-1.975,0C162.436,120.604,162.436,119.717,162.98,119.178z"/>
							<circle fill="#F77300" cx="109.555" cy="53.177" r="1.394"/>
							<path fill="#F77300" d="M140.115,65.981c0.541-0.544,1.427-0.544,1.969,0c0.544,0.545,0.544,1.428,0,1.973
								c-0.542,0.545-1.428,0.545-1.969,0C139.568,67.41,139.568,66.527,140.115,65.981z"/>
							<path fill="#F77300" d="M134.464,56.49c0.542-0.546,1.425-0.546,1.97,0c0.545,0.538,0.545,1.423,0,1.966
								c-0.545,0.547-1.428,0.547-1.97,0C133.92,57.913,133.92,57.027,134.464,56.49z"/>
							<path fill="#F77300" d="M161.143,83.168c0.547-0.544,1.426-0.544,1.977,0c0.543,0.541,0.543,1.423,0,1.968
								c-0.551,0.548-1.43,0.548-1.977,0C160.594,84.592,160.594,83.709,161.143,83.168z"/>
							<path fill="#F77300" d="M150.236,68.577c0.543-0.545,1.422-0.545,1.969,0c0.543,0.545,0.543,1.428,0,1.972
								c-0.547,0.543-1.426,0.543-1.969,0C149.691,70.005,149.691,69.122,150.236,68.577z"/>
							<path fill="#F77300" d="M147.096,105.422c0.547-0.545,1.43-0.545,1.973,0c0.545,0.543,0.545,1.426,0,1.967
								c-0.543,0.549-1.426,0.549-1.973,0C146.551,106.848,146.551,105.965,147.096,105.422z"/>
							<path fill="#F77300" d="M128.885,68.63c0.542-0.542,1.43-0.542,1.973,0c0.541,0.543,0.541,1.426,0,1.974
								c-0.543,0.543-1.431,0.543-1.973,0C128.342,70.056,128.342,69.173,128.885,68.63z"/>
							<path fill="#F77300" d="M110.975,69.031c0.547-0.545,1.428-0.545,1.978,0c0.541,0.545,0.541,1.426,0,1.974
								c-0.55,0.542-1.431,0.542-1.978,0C110.432,70.457,110.432,69.576,110.975,69.031z"/>
							<path fill="#F77300" d="M154.229,100.197c0.545-0.546,1.426-0.546,1.974,0c0.545,0.545,0.545,1.423,0,1.965
								c-0.548,0.548-1.429,0.548-1.974,0C153.684,101.62,153.684,100.742,154.229,100.197z"/>
							<path fill="#F77300" d="M130.891,86.541c0.545-0.542,1.424-0.542,1.971,0c0.543,0.543,0.543,1.426,0,1.969
								c-0.547,0.547-1.426,0.547-1.971,0C130.346,87.967,130.346,87.084,130.891,86.541z"/>
							<path fill="#F77300" d="M143.323,85.605c0.54-0.543,1.423-0.543,1.966,0c0.544,0.545,0.544,1.428,0,1.976
								c-0.543,0.538-1.426,0.538-1.966,0C142.773,87.033,142.773,86.15,143.323,85.605z"/>
							<path fill="#F77300" d="M136.139,97.958c0.547-0.545,1.428-0.545,1.969,0c0.545,0.543,0.545,1.421,0,1.969
								c-0.541,0.55-1.422,0.55-1.969,0C135.594,99.379,135.594,98.501,136.139,97.958z"/>
							<path fill="#F77300" d="M125.675,105.252c0.55-0.545,1.431-0.545,1.972,0c0.545,0.547,0.545,1.426,0,1.973
								c-0.541,0.543-1.422,0.543-1.972,0C125.134,106.678,125.134,105.799,125.675,105.252z"/>
							<circle fill="#F77300" cx="116.009" cy="87.071" r="1.393"/>
							<path fill="#F77300" d="M104.559,78.596c0.545-0.545,1.428-0.545,1.976,0c0.544,0.543,0.544,1.426,0,1.971
								c-0.548,0.54-1.431,0.54-1.976,0C104.018,80.021,104.018,79.139,104.559,78.596z"/>
							<path fill="#F77300" d="M155.721,125.393c0.549-0.545,1.426-0.545,1.975,0c0.541,0.547,0.541,1.424,0,1.975
								c-0.549,0.542-1.426,0.542-1.975,0C155.178,126.816,155.178,125.939,155.721,125.393z"/>
							<path fill="#F77300" d="M148.132,118.329c0.544-0.545,1.425-0.545,1.968,0c0.547,0.542,0.547,1.429,0,1.972
								c-0.543,0.544-1.424,0.544-1.968,0C147.584,119.758,147.584,118.871,148.132,118.329z"/>
							<path fill="#E36300" d="M154.605,135.84c0.545-0.545,1.422-0.545,1.972,0c0.543,0.547,0.543,1.428,0,1.971
								c-0.55,0.547-1.427,0.547-1.972,0C154.061,137.268,154.061,136.387,154.605,135.84z"/>
							<circle fill="#F77300" cx="142.201" cy="127.144" r="1.394"/>
							<path fill="#E36300" d="M143.053,141.471c0.543-0.541,1.428-0.541,1.971,0c0.543,0.549,0.543,1.43,0,1.973
								c-0.543,0.549-1.428,0.549-1.971,0C142.508,142.9,142.508,142.02,143.053,141.471z"/>
							<path fill="#F77300" d="M148.348,130.137c0.547-0.545,1.428-0.545,1.971,0c0.543,0.541,0.543,1.424,0,1.963
								c-0.543,0.551-1.424,0.551-1.971,0C147.8,131.561,147.8,130.678,148.348,130.137z"/>
							<circle fill="#F77300" cx="138.425" cy="116.528" r="1.393"/>
							<path fill="#F77300" d="M130.756,131.852c0.549-0.543,1.43-0.543,1.971,0c0.549,0.541,0.549,1.422,0,1.967
								c-0.541,0.551-1.422,0.551-1.971,0C130.211,133.271,130.211,132.393,130.756,131.852z"/>
							<path fill="#F77300" d="M122.227,117.092c0.545-0.543,1.434-0.543,1.969,0c0.553,0.547,0.553,1.424,0,1.971
								c-0.535,0.547-1.424,0.547-1.969,0S121.682,117.639,122.227,117.092z"/>
							<path fill="#F77300" d="M106.193,109.803c0.543-0.543,1.425-0.543,1.971,0c0.544,0.543,0.544,1.43,0,1.969
								c-0.546,0.554-1.428,0.554-1.971,0C105.646,111.23,105.646,110.346,106.193,109.803z"/>
							<path fill="#F77300" d="M109.908,95.496c0.542-0.545,1.425-0.545,1.972,0c0.541,0.545,0.541,1.43,0,1.975
								c-0.547,0.539-1.43,0.539-1.972,0C109.361,96.926,109.361,96.041,109.908,95.496z"/>
							<path fill="#F77300" d="M93.69,70.548c0.545-0.545,1.429-0.545,1.972,0c0.545,0.545,0.545,1.427,0,1.975
								c-0.543,0.541-1.427,0.541-1.972,0C93.145,71.975,93.145,71.093,93.69,70.548z"/>
							<circle fill="#F77300" cx="82.907" cy="94.526" r="1.394"/>
							<path fill="#F77300" d="M122.201,128.376c0.544-0.546,1.43-0.546,1.975,0c0.542,0.543,0.542,1.429,0,1.972
								c-0.545,0.543-1.431,0.543-1.975,0C121.658,129.805,121.658,128.919,122.201,128.376z"/>
							<path fill="#F77300" d="M96.629,88.636c0.546-0.542,1.43-0.542,1.976,0c0.54,0.542,0.54,1.429,0,1.971
								c-0.546,0.542-1.43,0.542-1.976,0C96.084,90.064,96.084,89.178,96.629,88.636z"/>
							<path fill="#F77300" d="M95.096,110.969c0.543-0.543,1.427-0.543,1.967,0c0.551,0.54,0.551,1.42,0,1.971
								c-0.54,0.543-1.424,0.543-1.967,0C94.552,112.389,94.552,111.509,95.096,110.969z"/>
							<path fill="#F77300" d="M104.585,123.506c0.546-0.541,1.427-0.541,1.97,0c0.545,0.545,0.545,1.432,0,1.975
								c-0.543,0.545-1.424,0.545-1.97,0C104.042,124.938,104.042,124.051,104.585,123.506z"/>
							<path fill="#F77300" d="M90.689,101.098c0.54-0.547,1.426-0.547,1.969,0c0.545,0.551,0.545,1.43,0,1.979
								c-0.543,0.542-1.429,0.542-1.969,0C90.14,102.525,90.14,101.646,90.689,101.098z"/>
							<path fill="#F77300" d="M114.439,107.034c0.547-0.542,1.428-0.542,1.97,0c0.547,0.55,0.547,1.425,0,1.973
								c-0.542,0.542-1.423,0.542-1.97,0C113.895,108.459,113.895,107.584,114.439,107.034z"/>
						</g>
					</g>
					<path fill="#649100" d="M77.038,59.418c0,0-1.771-2.759-5.548-4.207c-1.867-0.716-2.499,1.991-0.496,4.344
						c2.001,2.353,3.581,3.395,3.581,3.395S78.517,62.338,77.038,59.418z"/>
					<g>
						<path fill="#7CBF28" d="M36.07,67.543c6.348-1.92,13.589-0.885,18.56-1.556c12.882-1.741,14.549-6.371,18.457-10.392
							c0,0-3.005-7.937-16.806-3.994C45.097,54.799,36.07,67.543,36.07,67.543z"/>
						<path fill="#649100" d="M60.794,59.711c-2.587,1.399-5.142,3.754-7.517,6.493c0.451-0.072,0.885-0.146,1.353-0.217
							c11.555-1.771,14.094-5.509,17.329-9.168C69.279,56.532,65.621,57.103,60.794,59.711z"/>
						<path fill="#649100" d="M72.889,56.031c0,0-5.374-0.617-16.118,1.666c-10.749,2.284-14.353,5.705-14.353,5.705
							s9.682-7.238,20.072-8.345C72.88,53.946,73.857,55.674,72.889,56.031z"/>
					</g>
					<g>
						<path fill="#7CBF28" d="M54.662,98.861c0.555-2.838,3.051-9.212,13.348-21.042c8.737-10.032,6.452-14.95,6.268-20.969
							c0,0-13.098,0.082-20.96,12.443C46.946,79.312,54.662,98.861,54.662,98.861z"/>
						<path fill="#649100" d="M74.479,57.356c0,0-4.85,2.945-11.625,11.888c-6.778,8.944-6.847,14.243-6.847,14.243
							s1.803-12.547,9.271-20.238C72.743,55.556,74.965,56.421,74.479,57.356z"/>
					</g>
				</g>
				<path d="M73.94,68.168c0,0-0.793,3.39-5.931,9.651c-5.137,6.261-7.984,10.327-8.598,11.101
					c-2.787,3.516,0.479,10.868,0.479,10.868s-0.146-6.655,7.782-18.217C71.197,76.432,73.94,68.168,73.94,68.168z"/>
			</g>
		</g>
	</g>
</g>
</svg>
