<?xml version="1.0" encoding="utf-8"?>
<!-- Generator: Adobe Illustrator 15.0.0, SVG Export Plug-In . SVG Version: 6.00 Build 0)  -->
<!DOCTYPE svg PUBLIC "-//W3C//DTD SVG 1.1//EN" "http://www.w3.org/Graphics/SVG/1.1/DTD/svg11.dtd">
<svg version="1.1" id="Layer_1" xmlns="http://www.w3.org/2000/svg" xmlns:xlink="http://www.w3.org/1999/xlink" x="0px" y="0px"
	 width="200px" height="200px" viewBox="0 0 200 200" enable-background="new 0 0 200 200" xml:space="preserve">
<g id="icon">
	<g id="Layer_2">
	</g>
	<g id="Layer_1_1_">
		<g>
			<path fill="#F2ECE0" d="M68.773,114.534c0,0,6.741-0.945,8.052,3.323c1.311,4.271,0.213,3.582,2.73,5.473
				c2.521,1.89-3.174,6.876-4.761,6.679c-1.588-0.198-7.376,4.231-13.679,11.554c-7.231,8.396-5.653,4.729-6.183,12.742
				c-0.528,8.012-6.965,11.424-11.227,10.271c-8.424-2.273-8.775-9.364-7.853-13.668c0,0-6.307,1.378-11.231-3.094
				c-4.926-4.473-5.589-13.815,3.621-15.602c9.21-1.777,13.561,6.117,16.452,3.361C47.589,132.818,68.773,114.534,68.773,114.534z"
				/>
			
				<radialGradient id="SVGID_1_" cx="2577.5811" cy="-1045.6494" r="9.5713" gradientTransform="matrix(-0.956 -0.2933 0.2933 -0.956 2816.4329 -92.5344)" gradientUnits="userSpaceOnUse">
				<stop  offset="0" style="stop-color:#DCBB81;stop-opacity:0"/>
				<stop  offset="0.2201" style="stop-color:#D8B57F;stop-opacity:0.1122"/>
				<stop  offset="0.5076" style="stop-color:#CEA579;stop-opacity:0.2589"/>
				<stop  offset="0.8311" style="stop-color:#BC8A6E;stop-opacity:0.4239"/>
				<stop  offset="1" style="stop-color:#B17968;stop-opacity:0.51"/>
			</radialGradient>
			<path fill="url(#SVGID_1_)" d="M34.906,150.525c-1.759,5.732,1.461,11.81,7.197,13.57c5.733,1.76,11.809-1.467,13.567-7.199
				c0.737-2.401,0.601-4.863-0.231-7.043c0,0-4.178-0.104-9.778-1.819c-2.37-0.729-5.655-3.398-5.655-3.398
				C36.941,145.771,35.938,147.163,34.906,150.525z"/>
			
				<radialGradient id="SVGID_2_" cx="2417.9844" cy="-1035.5127" r="8.7744" gradientTransform="matrix(-1.1548 -0.3543 0.2933 -0.956 3126.5942 2.8248)" gradientUnits="userSpaceOnUse">
				<stop  offset="0" style="stop-color:#DCBB81;stop-opacity:0"/>
				<stop  offset="0.2201" style="stop-color:#D8B57F;stop-opacity:0.1122"/>
				<stop  offset="0.5076" style="stop-color:#CEA579;stop-opacity:0.2589"/>
				<stop  offset="0.8311" style="stop-color:#BC8A6E;stop-opacity:0.4239"/>
				<stop  offset="1" style="stop-color:#B17968;stop-opacity:0.51"/>
			</radialGradient>
			<path fill="url(#SVGID_2_)" d="M21.306,138.064c-1.514,4.935,2.089,10.416,8.05,12.242c1.935,0.594,3.875,0.729,5.671,0.475
				c0,0,0.187-2.59,2.215-5.493c0.449-0.646-1.164-1.669-2.208-6.81c-0.65-3.213,4.069-3.705,3.576-4.203
				c-0.926-0.933-2.374-1.407-3.772-1.834C28.877,130.611,22.82,133.13,21.306,138.064z"/>
			
				<radialGradient id="SVGID_3_" cx="2576.4092" cy="-1023.8887" r="21.4671" gradientTransform="matrix(-0.956 -0.2933 0.2933 -0.956 2816.4329 -92.5344)" gradientUnits="userSpaceOnUse">
				<stop  offset="0" style="stop-color:#DCBB81;stop-opacity:0"/>
				<stop  offset="0.2201" style="stop-color:#D8B57F;stop-opacity:0.1122"/>
				<stop  offset="0.5076" style="stop-color:#CEA579;stop-opacity:0.2589"/>
				<stop  offset="0.8311" style="stop-color:#BC8A6E;stop-opacity:0.4239"/>
				<stop  offset="1" style="stop-color:#B17968;stop-opacity:0.51"/>
			</radialGradient>
			<path fill="url(#SVGID_3_)" d="M78.902,117.335c0,0,0.779,3.506,3.198,6.799c2.418,3.292-0.611,7.513-4.775,6.959
				c-4.167-0.552-1.818-2.85-10.054,4.027c-8.237,6.877-11.162,13.555-11.162,13.555s-4.113,1.818-8.109,0.353
				c-3.077-1.127-8.615-3.99-10.073-3.369c-1.778,0.758-3.691-5.229-3.47-7.709c0.717-8.018,7.203-2.195,7.203-2.195
				s4.126,0.221,11.054-7.283c6.927-7.502,11.745-9.156,12.332-11.738C65.632,114.145,70.982,107.79,78.902,117.335z"/>
			
				<radialGradient id="SVGID_4_" cx="2528.0752" cy="-859.4863" r="57.9621" fx="2532.1194" fy="-841.5483" gradientTransform="matrix(-0.2119 0.9773 0.9773 0.2119 1469.5112 -2192.9941)" gradientUnits="userSpaceOnUse">
				<stop  offset="0.1963" style="stop-color:#D98642"/>
				<stop  offset="0.3218" style="stop-color:#D48241"/>
				<stop  offset="0.4698" style="stop-color:#C6763F"/>
				<stop  offset="0.6291" style="stop-color:#AE623B"/>
				<stop  offset="0.7954" style="stop-color:#8D4636"/>
				<stop  offset="0.8182" style="stop-color:#884235"/>
				<stop  offset="1" style="stop-color:#683821"/>
			</radialGradient>
			<path fill="url(#SVGID_4_)" d="M157.078,71.452c-15.744-25.3-34.135-41.686-52.227-29.518
				C88.892,52.665,76.39,65.55,69.221,85.229C63.685,100.425,60,115.45,51.564,120.533c-5.756,3.469-1.232,26.393,12.413,25.25
				c4.312-0.359,11.847-5.441,29.706,0.777c20.867,7.267,50.479,3.354,61.428-1.927C177.883,133.66,173.572,97.96,157.078,71.452z"
				/>
			
				<linearGradient id="SVGID_5_" gradientUnits="userSpaceOnUse" x1="226.3887" y1="-594.1724" x2="248.0542" y2="-624.1224" gradientTransform="matrix(1 0 0 -1 -150 -530)">
				<stop  offset="0" style="stop-color:#FFEDD4"/>
				<stop  offset="1" style="stop-color:#DCBB81;stop-opacity:0"/>
			</linearGradient>
			<path opacity="0.5" fill="url(#SVGID_5_)" enable-background="new    " d="M153.677,73.562
				c-14.454-23.228-55.655,40.192-59.867,20.624c-6.396-29.719,1.933-40.225,1.933-40.225c-9.898,8.395-17.726,18.521-22.726,32.248
				c-5.083,13.951-8.466,27.744-16.211,32.412c-5.284,3.184-1.132,24.23,11.396,23.182c3.96-0.33,10.877-4.996,27.273,0.713
				c19.158,6.672,46.343,3.08,56.396-1.766C172.777,130.675,168.82,97.897,153.677,73.562z"/>
			
				<radialGradient id="SVGID_6_" cx="295.4209" cy="-575.2642" r="82.61" gradientTransform="matrix(1 0 0 -1 -150 -530)" gradientUnits="userSpaceOnUse">
				<stop  offset="0" style="stop-color:#FFCBAA"/>
				<stop  offset="0.2789" style="stop-color:#FDC6A5"/>
				<stop  offset="0.6076" style="stop-color:#F5B897"/>
				<stop  offset="0.9603" style="stop-color:#EAA07F"/>
				<stop  offset="1" style="stop-color:#E89D7C"/>
			</radialGradient>
			<path fill="url(#SVGID_6_)" d="M172.273,74.054c13.104,29.129,7.771,59.922-11.916,68.777
				c-19.688,8.854-46.27-7.582-59.369-36.71c-13.104-29.128-7.768-59.923,11.916-68.776
				C132.592,28.489,159.174,44.925,172.273,74.054z"/>
			
				<radialGradient id="SVGID_7_" cx="-158.2412" cy="-527.5103" r="40.6292" gradientTransform="matrix(0.9002 -0.4355 -0.5841 -1.2074 -26.3268 -616.9628)" gradientUnits="userSpaceOnUse">
				<stop  offset="0" style="stop-color:#D43D62"/>
				<stop  offset="0.3661" style="stop-color:#D33D60"/>
				<stop  offset="0.5487" style="stop-color:#CE3E58"/>
				<stop  offset="0.6908" style="stop-color:#C63F4B"/>
				<stop  offset="0.8119" style="stop-color:#BA4138"/>
				<stop  offset="0.9185" style="stop-color:#AC4320"/>
				<stop  offset="1" style="stop-color:#9D4508"/>
			</radialGradient>
			<path fill="url(#SVGID_7_)" d="M168.684,75.669c10.785,23.977,6.396,49.324-9.811,56.613
				c-16.205,7.288-38.085-6.238-48.871-30.218c-10.786-23.979-6.393-49.323,9.811-56.611
				C136.018,38.163,157.896,51.692,168.684,75.669z"/>
			
				<radialGradient id="SVGID_8_" cx="-182.1543" cy="-486.7969" r="10.403" gradientTransform="matrix(0.8894 -0.4571 -0.6476 -1.2603 -12.0823 -608.8134)" gradientUnits="userSpaceOnUse">
				<stop  offset="0" style="stop-color:#F2ECE0"/>
				<stop  offset="0.2386" style="stop-color:#F0E9DD"/>
				<stop  offset="0.4382" style="stop-color:#EBDED3"/>
				<stop  offset="0.6238" style="stop-color:#E2CDC3"/>
				<stop  offset="0.8008" style="stop-color:#D5B5AC"/>
				<stop  offset="0.9704" style="stop-color:#C5958E"/>
				<stop  offset="1" style="stop-color:#C28F88"/>
			</radialGradient>
			<path fill="url(#SVGID_8_)" d="M149.407,83.679c3.499,6.74,2.642,14.121-1.913,16.485c-4.557,2.363-11.086-1.184-14.583-7.924
				c-3.499-6.741-2.642-14.122,1.913-16.486C139.379,73.391,145.908,76.938,149.407,83.679z"/>
		</g>
	</g>
</g>
</svg>
