<?xml version="1.0" encoding="utf-8"?>
<!-- Generator: Adobe Illustrator 15.0.0, SVG Export Plug-In . SVG Version: 6.00 Build 0)  -->
<!DOCTYPE svg PUBLIC "-//W3C//DTD SVG 1.1//EN" "http://www.w3.org/Graphics/SVG/1.1/DTD/svg11.dtd">
<svg version="1.1" id="Layer_1" xmlns="http://www.w3.org/2000/svg" xmlns:xlink="http://www.w3.org/1999/xlink" x="0px" y="0px"
	 width="200px" height="200px" viewBox="0 0 200 200" enable-background="new 0 0 200 200" xml:space="preserve">
<g id="icon">
	<g id="Layer_2">
	</g>
	<g id="Layer_1_1_">
		<g>
			<path fill="none" stroke="#FFFFFF" stroke-width="12" stroke-miterlimit="10" d="M155.396,165.245
				c-2.645-3.372-7.309-8.313-7.309-8.313l-15.521,9.7c0,0,8.22-1.512,14.608,3.591c1.747,1.395,3.312,2.586,4.718,3.471
				c0.43,0.459,1.178,0.854,2.142,1.138c0.946,0.388,1.806,0.552,2.585,0.438c0.339,0.022,0.682,0.043,1.035,0.043
				c3.416,0,6.186-1.125,6.186-2.514C163.84,171.454,159.639,170.66,155.396,165.245z"/>
			<path fill="none" stroke="#FFFFFF" stroke-width="12" stroke-miterlimit="10" d="M51.801,156.932c0,0-4.913,4.76-7.307,8.313
				c-3.126,4.644-8.54,6.194-8.54,7.554c0,1.389,2.769,2.514,6.186,2.514c0.381,0,0.75-0.021,1.112-0.047
				c0.889,0.133,1.877-0.088,2.984-0.599c0.62-0.224,1.128-0.495,1.485-0.806c1.476-0.896,3.13-2.154,4.991-3.641
				c6.392-5.104,14.61-3.592,14.61-3.592L51.801,156.932z"/>
			<path fill="none" stroke="#FFFFFF" stroke-width="12" stroke-miterlimit="10" d="M24.799,57.324c-9.555,0-17.3,6.757-17.3,15.093
				c0,8.333,7.745,15.092,17.3,15.092c9.556,0,17.3-6.759,17.3-15.092C42.099,64.081,34.354,57.324,24.799,57.324z M26.999,80.315
				c-5.002,0-9.056-3.537-9.056-7.898c0-4.363,4.054-7.899,9.056-7.899c5,0,9.056,3.536,9.056,7.899
				C36.055,76.778,31.999,80.315,26.999,80.315z"/>
			<path fill="none" stroke="#FFFFFF" stroke-width="12" stroke-miterlimit="10" d="M175.201,57.324
				c-9.555,0-17.301,6.757-17.301,15.093c0,8.333,7.746,15.092,17.301,15.092c9.557,0,17.3-6.759,17.3-15.092
				C192.501,64.081,184.758,57.324,175.201,57.324z M174.102,80.315c-5,0-9.054-3.537-9.054-7.898c0-4.363,4.054-7.899,9.054-7.899
				c5.002,0,9.059,3.536,9.059,7.899C183.157,76.778,179.104,80.315,174.102,80.315z"/>
			<g>
				
					<radialGradient id="SVGID_1_" cx="250.2266" cy="-737.1143" r="81.3539" fx="250.563" fy="-728.0026" gradientTransform="matrix(1 0 0 -0.8893 -150 -558.7493)" gradientUnits="userSpaceOnUse">
					<stop  offset="0.0736" style="stop-color:#B8CFF0"/>
					<stop  offset="0.1718" style="stop-color:#8DA6C7"/>
					<stop  offset="0.6687" style="stop-color:#000000"/>
					<stop  offset="0.773" style="stop-color:#08090B"/>
					<stop  offset="0.9509" style="stop-color:#3F4A5D"/>
				</radialGradient>
				<path fill="url(#SVGID_1_)" d="M100.227,169.396c-43.298,0-73.537-20.34-73.537-49.461c0-17.16,7.717-29.585,13.352-38.661
					c2.772-4.464,5.166-8.319,5.166-10.587c0-3.229-4.141-10.31-5.514-12.068c-1.894-2.428-2.896-4.887-2.896-7.113
					c0-7.816,6.953-14.924,19.577-20.016c11.762-4.744,27.335-7.356,43.852-7.356c16.518,0,32.091,2.612,43.853,7.356
					c12.624,5.091,19.576,12.2,19.576,20.016c0,1.896-0.256,3.999-2.11,6.519c-0.104,0.141-0.253,0.336-0.44,0.582
					c-5.295,6.908-6.084,9.879-6.084,11.035c0,2.393,2.451,6.388,5.291,11.014c5.679,9.249,13.451,21.917,13.451,39.276
					C173.764,149.059,143.523,169.396,100.227,169.396z"/>
			</g>
			<g>
				
					<radialGradient id="SVGID_2_" cx="518.249" cy="-955.7334" r="80.5873" fx="518.2875" fy="-973.3158" gradientTransform="matrix(1.1427 0 0 -0.7013 -491.4996 -622.1472)" gradientUnits="userSpaceOnUse">
					<stop  offset="0.6564" style="stop-color:#000000"/>
					<stop  offset="0.7607" style="stop-color:#7CA5C3;stop-opacity:0"/>
				</radialGradient>
				<path fill="url(#SVGID_2_)" d="M152.02,69.644c0-4.537,6.109-12.041,7.109-13.395c1.396-1.898,1.525-3.317,1.525-4.74
					c0-13.461-27.053-24.372-60.428-24.372c-33.373,0-60.429,10.911-60.429,24.372c0,1.449,0.692,3.258,2.261,5.268
					c1.229,1.574,6.148,9.448,6.148,13.914c0,8.542-18.518,23.543-18.518,49.247c0,28.217,30.493,46.459,70.537,46.459
					c40.046,0,70.537-18.242,70.537-46.459C170.764,93.825,152.02,78.46,152.02,69.644z"/>
			</g>
			
				<radialGradient id="SVGID_3_" cx="523.251" cy="-574.4609" r="170.9107" gradientTransform="matrix(1.1427 0 0 -1 -491.5797 -530)" gradientUnits="userSpaceOnUse">
				<stop  offset="0.0798" style="stop-color:#B8C2B6"/>
				<stop  offset="0.1595" style="stop-color:#8D9D81"/>
				<stop  offset="0.7301" style="stop-color:#000000"/>
				<stop  offset="0.8098" style="stop-color:#08090B"/>
				<stop  offset="1" style="stop-color:#3F4A5D"/>
			</radialGradient>
			<ellipse fill="url(#SVGID_3_)" cx="100.227" cy="50.599" rx="60.052" ry="23.46"/>
			
				<radialGradient id="SVGID_4_" cx="517.9023" cy="-1717.688" r="54.9567" gradientTransform="matrix(1.1427 0 0 -0.4585 -491.5797 -733.0201)" gradientUnits="userSpaceOnUse">
				<stop  offset="0.7301" style="stop-color:#00D918"/>
				<stop  offset="1" style="stop-color:#000000"/>
			</radialGradient>
			<ellipse fill="url(#SVGID_4_)" cx="100.228" cy="48.936" rx="54.415" ry="20.07"/>
			
				<linearGradient id="SVGID_5_" gradientUnits="userSpaceOnUse" x1="249.3945" y1="-578.7422" x2="254.7511" y2="-619.34" gradientTransform="matrix(1 0 0 -1 -150 -530)">
				<stop  offset="0" style="stop-color:#00FF00"/>
				<stop  offset="0.1399" style="stop-color:#00F600"/>
				<stop  offset="0.3668" style="stop-color:#00DE00"/>
				<stop  offset="0.6525" style="stop-color:#00B700"/>
				<stop  offset="0.9829" style="stop-color:#008100"/>
				<stop  offset="1" style="stop-color:#007E00"/>
			</linearGradient>
			<path fill="url(#SVGID_5_)" d="M100.227,69.006c24.276,0,44.832-5.865,51.839-13.962c-1.148-10.197-23.914-18.331-51.839-18.331
				c-27.926,0-50.691,8.132-51.84,18.33C55.395,63.141,75.951,69.006,100.227,69.006z"/>
			<g>
				<g>
					
						<radialGradient id="SVGID_6_" cx="549.3906" cy="-585.04" r="12.1917" gradientTransform="matrix(1.1427 0 0 -1 -491.5797 -530)" gradientUnits="userSpaceOnUse">
						<stop  offset="0.1758" style="stop-color:#96FF00"/>
						<stop  offset="1" style="stop-color:#00B300;stop-opacity:0"/>
					</radialGradient>
					<ellipse fill="url(#SVGID_6_)" cx="136.209" cy="55.04" rx="13.932" ry="12.192"/>
					
						<radialGradient id="SVGID_7_" cx="529.7559" cy="-571.209" r="9.1704" gradientTransform="matrix(1.1427 0 0 -1 -491.5797 -530)" gradientUnits="userSpaceOnUse">
						<stop  offset="0.1758" style="stop-color:#96FF00"/>
						<stop  offset="1" style="stop-color:#00B300;stop-opacity:0"/>
					</radialGradient>
					<ellipse fill="url(#SVGID_7_)" cx="113.773" cy="41.209" rx="10.479" ry="9.171"/>
					
						<radialGradient id="SVGID_8_" cx="494.1123" cy="-580.3799" r="9.1689" gradientTransform="matrix(1.1427 0 0 -1 -491.5797 -530)" gradientUnits="userSpaceOnUse">
						<stop  offset="0.1758" style="stop-color:#96FF00"/>
						<stop  offset="1" style="stop-color:#00B300;stop-opacity:0"/>
					</radialGradient>
					<ellipse fill="url(#SVGID_8_)" cx="73.043" cy="50.38" rx="10.477" ry="9.169"/>
					
						<radialGradient id="SVGID_9_" cx="505.7236" cy="-571.6738" r="16.4871" gradientTransform="matrix(1.1427 0 0 -1 -491.5797 -530)" gradientUnits="userSpaceOnUse">
						<stop  offset="0.1758" style="stop-color:#96FF00"/>
						<stop  offset="1" style="stop-color:#00B300;stop-opacity:0"/>
					</radialGradient>
					<ellipse fill="url(#SVGID_9_)" cx="86.311" cy="41.674" rx="18.841" ry="16.486"/>
					
						<radialGradient id="SVGID_10_" cx="515.501" cy="-587.6973" r="16.4888" gradientTransform="matrix(1.1427 0 0 -1 -491.5797 -530)" gradientUnits="userSpaceOnUse">
						<stop  offset="0.1758" style="stop-color:#96FF00"/>
						<stop  offset="1" style="stop-color:#00B300;stop-opacity:0"/>
					</radialGradient>
					<ellipse fill="url(#SVGID_10_)" cx="97.484" cy="57.697" rx="18.84" ry="16.49"/>
					
						<radialGradient id="SVGID_11_" cx="531.9883" cy="-582.5801" r="8.2441" gradientTransform="matrix(1.1427 0 0 -1 -491.5797 -530)" gradientUnits="userSpaceOnUse">
						<stop  offset="0.1758" style="stop-color:#96FF00"/>
						<stop  offset="1" style="stop-color:#00B300;stop-opacity:0"/>
					</radialGradient>
					<ellipse fill="url(#SVGID_11_)" cx="116.324" cy="52.58" rx="9.42" ry="8.244"/>
					
						<radialGradient id="SVGID_12_" cx="519.168" cy="-562.2617" r="5.8679" gradientTransform="matrix(1.1427 0 0 -1 -491.5797 -530)" gradientUnits="userSpaceOnUse">
						<stop  offset="0.1758" style="stop-color:#96FF00"/>
						<stop  offset="1" style="stop-color:#00B300;stop-opacity:0"/>
					</radialGradient>
					<ellipse fill="url(#SVGID_12_)" cx="101.675" cy="32.262" rx="6.705" ry="5.868"/>
					
						<radialGradient id="SVGID_13_" cx="543.3906" cy="-575.5664" r="4.9714" gradientTransform="matrix(1.1427 0 0 -1 -491.5797 -530)" gradientUnits="userSpaceOnUse">
						<stop  offset="0.1758" style="stop-color:#96FF00"/>
						<stop  offset="1" style="stop-color:#00B300;stop-opacity:0"/>
					</radialGradient>
					<ellipse fill="url(#SVGID_13_)" cx="129.354" cy="45.566" rx="5.682" ry="4.97"/>
					
						<radialGradient id="SVGID_14_" cx="491.0684" cy="-560.2568" r="3.45" gradientTransform="matrix(1.1427 0 0 -1 -491.5797 -530)" gradientUnits="userSpaceOnUse">
						<stop  offset="0.1758" style="stop-color:#96FF00"/>
						<stop  offset="1" style="stop-color:#00B300;stop-opacity:0"/>
					</radialGradient>
					<ellipse fill="url(#SVGID_14_)" cx="69.564" cy="30.257" rx="3.942" ry="3.451"/>
					
						<radialGradient id="SVGID_15_" cx="481.3652" cy="-588.1621" r="5.0173" gradientTransform="matrix(1.1427 0 0 -1 -491.5797 -530)" gradientUnits="userSpaceOnUse">
						<stop  offset="0.1758" style="stop-color:#96FF00"/>
						<stop  offset="1" style="stop-color:#00B300;stop-opacity:0"/>
					</radialGradient>
					<ellipse fill="url(#SVGID_15_)" cx="58.478" cy="58.162" rx="5.733" ry="5.017"/>
					
						<radialGradient id="SVGID_16_" cx="501.4395" cy="-568.0005" r="3.646" gradientTransform="matrix(1.1427 0 0 -1 -491.5797 -530)" gradientUnits="userSpaceOnUse">
						<stop  offset="0.1758" style="stop-color:#96FF00"/>
						<stop  offset="1" style="stop-color:#00B300;stop-opacity:0"/>
					</radialGradient>
					<path fill="url(#SVGID_16_)" d="M85.582,37.999c0,2.015-1.866,3.648-4.167,3.648c-2.3,0-4.166-1.634-4.166-3.648
						c0-2.012,1.866-3.645,4.166-3.645C83.716,34.354,85.582,35.987,85.582,37.999z"/>
				</g>
				<g>
					<g>
						
							<radialGradient id="SVGID_17_" cx="514.6426" cy="-594.1611" r="4.6453" gradientTransform="matrix(1.1427 0 0 -1 -491.5797 -530)" gradientUnits="userSpaceOnUse">
							<stop  offset="0.3681" style="stop-color:#13FF0E;stop-opacity:0"/>
							<stop  offset="0.4596" style="stop-color:#22FF0E;stop-opacity:0.1376"/>
							<stop  offset="0.6362" style="stop-color:#4AFF0E;stop-opacity:0.403"/>
							<stop  offset="0.8776" style="stop-color:#89FF0E;stop-opacity:0.766"/>
							<stop  offset="1" style="stop-color:#ACFF0E;stop-opacity:0.95"/>
						</radialGradient>
						<path fill="url(#SVGID_17_)" d="M103.575,63.821c0,0-3.236,1.634-7.223,1.634c-3.993,0-7.224-1.634-7.224-1.634
							c0-3.491,3.23-6.323,7.224-6.323C100.339,57.498,103.575,60.33,103.575,63.821z"/>
					</g>
					<g>
						
							<radialGradient id="SVGID_18_" cx="481.3672" cy="-586.6807" r="3.3205" gradientTransform="matrix(1.1427 0 0 -1 -491.5797 -530)" gradientUnits="userSpaceOnUse">
							<stop  offset="0.3681" style="stop-color:#13FF0E;stop-opacity:0"/>
							<stop  offset="0.4596" style="stop-color:#22FF0E;stop-opacity:0.1376"/>
							<stop  offset="0.6362" style="stop-color:#4AFF0E;stop-opacity:0.403"/>
							<stop  offset="0.8776" style="stop-color:#89FF0E;stop-opacity:0.766"/>
							<stop  offset="1" style="stop-color:#ACFF0E;stop-opacity:0.95"/>
						</radialGradient>
						<ellipse fill="url(#SVGID_18_)" cx="58.479" cy="56.259" rx="4.421" ry="3.871"/>
					</g>
					<g>
						
							<radialGradient id="SVGID_19_" cx="554.6562" cy="-581.0146" r="3.321" gradientTransform="matrix(1.1427 0 0 -1 -491.5797 -530)" gradientUnits="userSpaceOnUse">
							<stop  offset="0.3681" style="stop-color:#13FF0E;stop-opacity:0"/>
							<stop  offset="0.4596" style="stop-color:#22FF0E;stop-opacity:0.1376"/>
							<stop  offset="0.6362" style="stop-color:#4AFF0E;stop-opacity:0.403"/>
							<stop  offset="0.8776" style="stop-color:#89FF0E;stop-opacity:0.766"/>
							<stop  offset="1" style="stop-color:#ACFF0E;stop-opacity:0.95"/>
						</radialGradient>
						<ellipse fill="url(#SVGID_19_)" cx="142.227" cy="50.592" rx="4.424" ry="3.869"/>
					</g>
					<g>
						
							<radialGradient id="SVGID_20_" cx="535.8262" cy="-575.1523" r="2.1292" gradientTransform="matrix(1.1427 0 0 -1 -491.5797 -530)" gradientUnits="userSpaceOnUse">
							<stop  offset="0.3681" style="stop-color:#13FF0E;stop-opacity:0"/>
							<stop  offset="0.4596" style="stop-color:#22FF0E;stop-opacity:0.1376"/>
							<stop  offset="0.6362" style="stop-color:#4AFF0E;stop-opacity:0.403"/>
							<stop  offset="0.8776" style="stop-color:#89FF0E;stop-opacity:0.766"/>
							<stop  offset="1" style="stop-color:#ACFF0E;stop-opacity:0.95"/>
						</radialGradient>
						<ellipse fill="url(#SVGID_20_)" cx="120.709" cy="44.881" rx="2.836" ry="2.482"/>
					</g>
					<g>
						
							<radialGradient id="SVGID_21_" cx="533.3447" cy="-592.3018" r="2.1291" gradientTransform="matrix(1.1427 0 0 -1 -491.5797 -530)" gradientUnits="userSpaceOnUse">
							<stop  offset="0.3681" style="stop-color:#13FF0E;stop-opacity:0"/>
							<stop  offset="0.4596" style="stop-color:#22FF0E;stop-opacity:0.1376"/>
							<stop  offset="0.6362" style="stop-color:#4AFF0E;stop-opacity:0.403"/>
							<stop  offset="0.8776" style="stop-color:#89FF0E;stop-opacity:0.766"/>
							<stop  offset="1" style="stop-color:#ACFF0E;stop-opacity:0.95"/>
						</radialGradient>
						<ellipse fill="url(#SVGID_21_)" cx="117.874" cy="62.029" rx="2.835" ry="2.482"/>
					</g>
					<g>
						
							<radialGradient id="SVGID_22_" cx="546.916" cy="-587.7734" r="2.1612" gradientTransform="matrix(1.1427 0 0 -1 -491.5797 -530)" gradientUnits="userSpaceOnUse">
							<stop  offset="0.3681" style="stop-color:#13FF0E;stop-opacity:0"/>
							<stop  offset="0.4596" style="stop-color:#22FF0E;stop-opacity:0.1376"/>
							<stop  offset="0.6362" style="stop-color:#4AFF0E;stop-opacity:0.403"/>
							<stop  offset="0.8776" style="stop-color:#89FF0E;stop-opacity:0.766"/>
							<stop  offset="1" style="stop-color:#ACFF0E;stop-opacity:0.95"/>
						</radialGradient>
						<ellipse fill="url(#SVGID_22_)" cx="133.382" cy="57.498" rx="2.878" ry="2.52"/>
					</g>
					<g>
						
							<radialGradient id="SVGID_23_" cx="518.0547" cy="-580.8232" r="1.8192" gradientTransform="matrix(1.1427 0 0 -1 -491.5797 -530)" gradientUnits="userSpaceOnUse">
							<stop  offset="0.3681" style="stop-color:#13FF0E;stop-opacity:0"/>
							<stop  offset="0.4596" style="stop-color:#22FF0E;stop-opacity:0.1376"/>
							<stop  offset="0.6362" style="stop-color:#4AFF0E;stop-opacity:0.403"/>
							<stop  offset="0.8776" style="stop-color:#89FF0E;stop-opacity:0.766"/>
							<stop  offset="1" style="stop-color:#ACFF0E;stop-opacity:0.95"/>
						</radialGradient>
						<ellipse fill="url(#SVGID_23_)" cx="100.401" cy="50.592" rx="2.422" ry="2.119"/>
					</g>
					<g>
						
							<radialGradient id="SVGID_24_" cx="503.0547" cy="-559.1045" r="1.8191" gradientTransform="matrix(1.1427 0 0 -1 -491.5797 -530)" gradientUnits="userSpaceOnUse">
							<stop  offset="0.3681" style="stop-color:#13FF0E;stop-opacity:0"/>
							<stop  offset="0.4596" style="stop-color:#22FF0E;stop-opacity:0.1376"/>
							<stop  offset="0.6362" style="stop-color:#4AFF0E;stop-opacity:0.403"/>
							<stop  offset="0.8776" style="stop-color:#89FF0E;stop-opacity:0.766"/>
							<stop  offset="1" style="stop-color:#ACFF0E;stop-opacity:0.95"/>
						</radialGradient>
						<ellipse fill="url(#SVGID_24_)" cx="83.262" cy="28.872" rx="2.422" ry="2.121"/>
					</g>
					<g>
						
							<radialGradient id="SVGID_25_" cx="533.3457" cy="-562.6113" r="1.819" gradientTransform="matrix(1.1427 0 0 -1 -491.5797 -530)" gradientUnits="userSpaceOnUse">
							<stop  offset="0.3681" style="stop-color:#13FF0E;stop-opacity:0"/>
							<stop  offset="0.4596" style="stop-color:#22FF0E;stop-opacity:0.1376"/>
							<stop  offset="0.6362" style="stop-color:#4AFF0E;stop-opacity:0.403"/>
							<stop  offset="0.8776" style="stop-color:#89FF0E;stop-opacity:0.766"/>
							<stop  offset="1" style="stop-color:#ACFF0E;stop-opacity:0.95"/>
						</radialGradient>
						<ellipse fill="url(#SVGID_25_)" cx="117.875" cy="32.38" rx="2.421" ry="2.12"/>
					</g>
					<g>
						
							<radialGradient id="SVGID_26_" cx="511.4902" cy="-573.3447" r="3.896" gradientTransform="matrix(1.1427 0 0 -1 -491.5797 -530)" gradientUnits="userSpaceOnUse">
							<stop  offset="0.3681" style="stop-color:#13FF0E;stop-opacity:0"/>
							<stop  offset="0.4596" style="stop-color:#22FF0E;stop-opacity:0.1376"/>
							<stop  offset="0.6362" style="stop-color:#4AFF0E;stop-opacity:0.403"/>
							<stop  offset="0.8776" style="stop-color:#89FF0E;stop-opacity:0.766"/>
							<stop  offset="1" style="stop-color:#ACFF0E;stop-opacity:0.95"/>
						</radialGradient>
						<ellipse fill="url(#SVGID_26_)" cx="92.901" cy="42.848" rx="5.188" ry="4.539"/>
					</g>
					<g>
						
							<radialGradient id="SVGID_27_" cx="510.3721" cy="-558.832" r="3.8957" gradientTransform="matrix(1.1427 0 0 -1 -491.5797 -530)" gradientUnits="userSpaceOnUse">
							<stop  offset="0.3681" style="stop-color:#13FF0E;stop-opacity:0"/>
							<stop  offset="0.4596" style="stop-color:#22FF0E;stop-opacity:0.1376"/>
							<stop  offset="0.6362" style="stop-color:#4AFF0E;stop-opacity:0.403"/>
							<stop  offset="0.8776" style="stop-color:#89FF0E;stop-opacity:0.766"/>
							<stop  offset="1" style="stop-color:#ACFF0E;stop-opacity:0.95"/>
						</radialGradient>
						<ellipse fill="url(#SVGID_27_)" cx="91.623" cy="28.336" rx="5.187" ry="4.54"/>
					</g>
					<g>
						
							<radialGradient id="SVGID_28_" cx="488.0059" cy="-574.6709" r="2.6292" gradientTransform="matrix(1.1427 0 0 -1 -491.5797 -530)" gradientUnits="userSpaceOnUse">
							<stop  offset="0.3681" style="stop-color:#13FF0E;stop-opacity:0"/>
							<stop  offset="0.4596" style="stop-color:#22FF0E;stop-opacity:0.1376"/>
							<stop  offset="0.6362" style="stop-color:#4AFF0E;stop-opacity:0.403"/>
							<stop  offset="0.8776" style="stop-color:#89FF0E;stop-opacity:0.766"/>
							<stop  offset="1" style="stop-color:#ACFF0E;stop-opacity:0.95"/>
						</radialGradient>
						<ellipse fill="url(#SVGID_28_)" cx="66.066" cy="44.336" rx="3.5" ry="3.063"/>
					</g>
					<g>
						
							<radialGradient id="SVGID_29_" cx="497.793" cy="-571.2188" r="4.8649" gradientTransform="matrix(1.1427 0 0 -1 -491.5797 -530)" gradientUnits="userSpaceOnUse">
							<stop  offset="0.3681" style="stop-color:#13FF0E;stop-opacity:0"/>
							<stop  offset="0.4596" style="stop-color:#22FF0E;stop-opacity:0.1376"/>
							<stop  offset="0.6362" style="stop-color:#4AFF0E;stop-opacity:0.403"/>
							<stop  offset="0.8776" style="stop-color:#89FF0E;stop-opacity:0.766"/>
							<stop  offset="1" style="stop-color:#ACFF0E;stop-opacity:0.95"/>
						</radialGradient>
						<path fill="url(#SVGID_29_)" d="M83.727,40.597c0,3.132-2.899,5.669-6.477,5.669c-3.581,0-6.479-2.537-6.479-5.669
							c0-3.132,2.898-5.667,6.479-5.667C80.827,34.93,83.727,37.465,83.727,40.597z"/>
					</g>
					<g>
						
							<radialGradient id="SVGID_30_" cx="495.7705" cy="-583.749" r="5.0963" gradientTransform="matrix(1.1427 0 0 -1 -491.5797 -530)" gradientUnits="userSpaceOnUse">
							<stop  offset="0.3681" style="stop-color:#13FF0E;stop-opacity:0"/>
							<stop  offset="0.4596" style="stop-color:#22FF0E;stop-opacity:0.1376"/>
							<stop  offset="0.6362" style="stop-color:#4AFF0E;stop-opacity:0.403"/>
							<stop  offset="0.8776" style="stop-color:#89FF0E;stop-opacity:0.766"/>
							<stop  offset="1" style="stop-color:#ACFF0E;stop-opacity:0.95"/>
						</radialGradient>
						<path fill="url(#SVGID_30_)" d="M82.627,55.198c0,3.717-15.378,3.717-15.378,0c0-3.718,3.44-6.727,7.69-6.727
							C79.186,48.472,82.627,51.48,82.627,55.198z"/>
					</g>
				</g>
				
					<radialGradient id="SVGID_31_" cx="515.2002" cy="-597.0273" r="8.4975" gradientTransform="matrix(1.1427 0 0 -1 -491.5797 -530)" gradientUnits="userSpaceOnUse">
					<stop  offset="0.3681" style="stop-color:#13FF0E;stop-opacity:0"/>
					<stop  offset="0.4596" style="stop-color:#22FF0E;stop-opacity:0.1376"/>
					<stop  offset="0.6362" style="stop-color:#4AFF0E;stop-opacity:0.403"/>
					<stop  offset="0.8776" style="stop-color:#89FF0E;stop-opacity:0.766"/>
					<stop  offset="1" style="stop-color:#ACFF0E;stop-opacity:0.95"/>
				</radialGradient>
				<path fill="url(#SVGID_31_)" d="M88.797,61.682c0,0-1.701-0.033-2.897,0.699c-1.06,0.648-2.456,2.44,3.229,3.604
					c6.098,1.248,10.353,0.752,15.25,0c5.184-0.794,5.221-3.029,3.141-3.642c-2.158-0.633-3.93-0.865-3.93-0.865
					s7.447,0.138,6.653,3.034c-0.818,2.979-6.179,3.592-13.434,3.592c-7.255,0-14.337-1.367-13.289-4.403
					C84.258,61.566,88.797,61.682,88.797,61.682z"/>
				
					<radialGradient id="SVGID_32_" cx="496.0176" cy="-589.5596" r="8.4978" gradientTransform="matrix(1.1427 0 0 -1 -491.5797 -530)" gradientUnits="userSpaceOnUse">
					<stop  offset="0.3681" style="stop-color:#13FF0E;stop-opacity:0"/>
					<stop  offset="0.4596" style="stop-color:#22FF0E;stop-opacity:0.1376"/>
					<stop  offset="0.6362" style="stop-color:#4AFF0E;stop-opacity:0.403"/>
					<stop  offset="0.8776" style="stop-color:#89FF0E;stop-opacity:0.766"/>
					<stop  offset="1" style="stop-color:#ACFF0E;stop-opacity:0.95"/>
				</radialGradient>
				<path fill="url(#SVGID_32_)" d="M66.875,54.215c0,0-1.701-0.033-2.897,0.699c-1.06,0.648-2.455,2.44,3.229,3.604
					c6.1,1.248,10.353,0.752,15.251,0c5.183-0.794,5.221-3.029,3.141-3.642c-2.157-0.633-3.93-0.865-3.93-0.865
					s7.447,0.138,6.653,3.034c-0.818,2.979-6.179,3.592-13.434,3.592c-7.255,0-14.337-1.367-13.289-4.403
					C62.337,54.1,66.875,54.215,66.875,54.215z"/>
			</g>
			
				<linearGradient id="SVGID_33_" gradientUnits="userSpaceOnUse" x1="276.6846" y1="-599.3047" x2="278.2979" y2="-604.1415" gradientTransform="matrix(1 0 0 -1 -150 -530)">
				<stop  offset="0" style="stop-color:#00FF00"/>
				<stop  offset="0.1582" style="stop-color:#00F600"/>
				<stop  offset="0.4149" style="stop-color:#00DE00"/>
				<stop  offset="0.736" style="stop-color:#00B700"/>
				<stop  offset="1" style="stop-color:#009200"/>
			</linearGradient>
			<path fill="url(#SVGID_33_)" d="M119.889,67.232c0,0,6.584,1.378,6.916,4.408c0.334,3.03-3.312,4.53-2.553,10.53
				c0.76,6,5.242,14.5,6.252,17.5s2.551,10.125,4.529,9.25s2.895-4.125,0-8.375c-2.896-4.25-7.03-10.25-6.65-13.625
				c0.381-3.375,4.309-0.949,4.999,2.25c1.132,5.25,3.664,3.188,2.878,1.5c-1.544-3.312-2.878-4.25-4.121-11.25
				c-0.67-3.766,1.24-6.251,1.896-8.725c0.654-2.474-4.682-5.05-4.682-5.05L119.889,67.232z"/>
			
				<radialGradient id="SVGID_34_" cx="283.8477" cy="-633.3467" r="3.3158" gradientTransform="matrix(1 0 0 -1 -150 -530)" gradientUnits="userSpaceOnUse">
				<stop  offset="0.3681" style="stop-color:#13FF0E;stop-opacity:0"/>
				<stop  offset="0.4596" style="stop-color:#22FF0E;stop-opacity:0.1376"/>
				<stop  offset="0.6362" style="stop-color:#4AFF0E;stop-opacity:0.403"/>
				<stop  offset="0.8776" style="stop-color:#89FF0E;stop-opacity:0.766"/>
				<stop  offset="1" style="stop-color:#ACFF0E;stop-opacity:0.95"/>
			</radialGradient>
			<path fill="url(#SVGID_34_)" d="M133.382,100.171c0,0,2.339,1.545,2.828,4.125c0.49,2.58-2.084,5-2.828,0.75
				C132.639,100.796,129.376,97.796,133.382,100.171z"/>
			
				<radialGradient id="SVGID_35_" cx="284.5215" cy="-619.9219" r="1.7206" gradientTransform="matrix(1 0 0 -1 -150 -530)" gradientUnits="userSpaceOnUse">
				<stop  offset="0.3681" style="stop-color:#13FF0E;stop-opacity:0"/>
				<stop  offset="0.4596" style="stop-color:#22FF0E;stop-opacity:0.1376"/>
				<stop  offset="0.6362" style="stop-color:#4AFF0E;stop-opacity:0.403"/>
				<stop  offset="0.8776" style="stop-color:#89FF0E;stop-opacity:0.766"/>
				<stop  offset="1" style="stop-color:#ACFF0E;stop-opacity:0.95"/>
			</radialGradient>
			<path fill="url(#SVGID_35_)" d="M134.279,88.274c0,0,1.213,0.801,1.468,2.141c0.254,1.338-1.082,2.594-1.468,0.389
				C133.893,88.599,132.201,87.042,134.279,88.274z"/>
			
				<radialGradient id="SVGID_36_" cx="277.6934" cy="-599.1904" r="4.366" gradientTransform="matrix(1 0 0 -1 -150 -530)" gradientUnits="userSpaceOnUse">
				<stop  offset="0.3681" style="stop-color:#13FF0E;stop-opacity:0"/>
				<stop  offset="0.4596" style="stop-color:#22FF0E;stop-opacity:0.1376"/>
				<stop  offset="0.6362" style="stop-color:#4AFF0E;stop-opacity:0.403"/>
				<stop  offset="0.8776" style="stop-color:#89FF0E;stop-opacity:0.766"/>
				<stop  offset="1" style="stop-color:#ACFF0E;stop-opacity:0.95"/>
			</radialGradient>
			<path fill="url(#SVGID_36_)" d="M122.277,67.289c0,0,4.547,1.382,5.047,3.444s0.306,1.312,2.027,1.188
				c1.723-0.124,4.885-0.314,3.349-2.915c-1.537-2.601-3.188-2.835-3.625-2.772S124.357,67.274,122.277,67.289z"/>
			
				<radialGradient id="SVGID_37_" cx="279.2871" cy="-603.7275" r="4.2358" gradientTransform="matrix(1 0 0 -1 -150 -530)" gradientUnits="userSpaceOnUse">
				<stop  offset="0.3681" style="stop-color:#13FF0E;stop-opacity:0"/>
				<stop  offset="0.4596" style="stop-color:#22FF0E;stop-opacity:0.1376"/>
				<stop  offset="0.6362" style="stop-color:#4AFF0E;stop-opacity:0.403"/>
				<stop  offset="0.8776" style="stop-color:#89FF0E;stop-opacity:0.766"/>
				<stop  offset="1" style="stop-color:#ACFF0E;stop-opacity:0.95"/>
			</radialGradient>
			<path fill="url(#SVGID_37_)" d="M127.693,73.171c0,0-1.467,2.75-1.949,4.25c-0.48,1.5,2.395,1.125,4.02,0s1.875-1.6,2.375-3.362
				c0.5-1.762,0.5-1.763,0.5-1.763L127.693,73.171z"/>
		</g>
	</g>
</g>
</svg>
