<?xml version="1.0" encoding="utf-8"?>
<!-- Generator: Adobe Illustrator 15.0.0, SVG Export Plug-In . SVG Version: 6.00 Build 0)  -->
<!DOCTYPE svg PUBLIC "-//W3C//DTD SVG 1.1//EN" "http://www.w3.org/Graphics/SVG/1.1/DTD/svg11.dtd">
<svg version="1.1" id="Layer_1" xmlns="http://www.w3.org/2000/svg" xmlns:xlink="http://www.w3.org/1999/xlink" x="0px" y="0px"
	 width="200px" height="200px" viewBox="0 0 200 200" enable-background="new 0 0 200 200" xml:space="preserve">
<g id="icon">
	<g id="Layer_2">
	</g>
	<g id="Layer_1_1_">
		<g>
			<g opacity="0.31">
				<g>
					
						<radialGradient id="SVGID_1_" cx="250.001" cy="-641.6289" r="62.7136" gradientTransform="matrix(1 0 0 -1 -150 -530)" gradientUnits="userSpaceOnUse">
						<stop  offset="0" style="stop-color:#130C0E;stop-opacity:0"/>
						<stop  offset="0.9385" style="stop-color:#130C0E;stop-opacity:0.6112"/>
						<stop  offset="1" style="stop-color:#130C0E;stop-opacity:0.6512"/>
					</radialGradient>
					<path fill="url(#SVGID_1_)" d="M145.504,104.166c-8.357-7.076-12.979-13.105-16.072-21.865
						c-2.494-7.082-7.916-15.771-1.367-18.452c4.604-1.885,3.233-7.976-3.592-10.73c-7.227-2.916-11.137-4.431-26.375-4.431
						c-12.319,0-18.541,1.716-22.878,3.44c-4.766,1.034-7.635,2.559-7.985,6.229c-0.876,9.168,10.57,6.994,5.521,19.429
						c-3.956,9.739-12.944,16.165-25.964,34.11c-5.878,7.322-9.277,15.953-9.277,25.194c0,26.542,27.975,37.479,62.484,37.479
						c34.508,0,62.487-10.938,62.487-37.479C162.484,124.348,155.875,112.95,145.504,104.166z"/>
				</g>
			</g>
			<g>
				<g opacity="0.44">
					
						<linearGradient id="SVGID_2_" gradientUnits="userSpaceOnUse" x1="315.0312" y1="-630.7139" x2="252.6763" y2="-641.5438" gradientTransform="matrix(1 0 0 -1 -150 -530)">
						<stop  offset="0" style="stop-color:#FFFFFF"/>
						<stop  offset="0.0896" style="stop-color:#FFFFFF;stop-opacity:0.9104"/>
						<stop  offset="1" style="stop-color:#FFFFFF;stop-opacity:0"/>
					</linearGradient>
					<path fill="url(#SVGID_2_)" d="M145.504,104.166c-8.357-7.076-15.663-13.549-18.757-22.309
						c-2.494-7.082-8.909-17.14-1.294-17.243c4.975-0.067,7.959-4.724,2.924-8.256c-7.23-5.074-9.463-7.154-34.767-7.154
						c-1.696,0-3.292,0.022-4.81,0.067c23.32,0.702,26.722,1.118,33.65,5.983c5.032,3.532,0.103,9.292-4.875,9.359
						c-7.615,0.103-1.2,10.161,1.299,17.243c3.092,8.76,10.39,15.232,18.749,22.309c10.376,8.784,16.982,20.183,16.982,32.928
						c0,25.524-25.873,36.611-58.547,37.425c1.304,0.03,2.614,0.057,3.938,0.057c34.508,0,62.486-10.938,62.486-37.479
						C162.484,124.348,155.875,112.95,145.504,104.166z"/>
				</g>
			</g>
			
				<linearGradient id="SVGID_3_" gradientUnits="userSpaceOnUse" x1="228.1943" y1="-574.9751" x2="232.7675" y2="-594.4113" gradientTransform="matrix(1 0 0 -1 -150 -530)">
				<stop  offset="0" style="stop-color:#FFFFFF"/>
				<stop  offset="0.0896" style="stop-color:#FFFFFF;stop-opacity:0.9104"/>
				<stop  offset="1" style="stop-color:#FFFFFF;stop-opacity:0"/>
			</linearGradient>
			<path opacity="0.42" fill="url(#SVGID_3_)" enable-background="new    " d="M90.381,50.954c0,0,1.578-1.819-2.012-1.308
				c-3.951,0.563-9.45,0.705-16.285,4.729c-5.389,3.173,0.704,9.256,3.551,7.724c2.844-1.532-6.797-4.032,2.377-8.202
				C85.229,50.617,90.381,54.236,90.381,50.954z"/>
			
				<radialGradient id="SVGID_4_" cx="145.0039" cy="-507.0605" r="17.4733" gradientTransform="matrix(0.9554 0 0 -0.6715 -40.22 -283.4296)" gradientUnits="userSpaceOnUse">
				<stop  offset="0" style="stop-color:#130C0E;stop-opacity:0"/>
				<stop  offset="0.9385" style="stop-color:#130C0E;stop-opacity:0.6112"/>
				<stop  offset="1" style="stop-color:#130C0E;stop-opacity:0.6512"/>
			</radialGradient>
			<ellipse opacity="0.44" fill="url(#SVGID_4_)" enable-background="new    " cx="98.317" cy="57.061" rx="22.683" ry="4.601"/>
			
				<linearGradient id="SVGID_5_" gradientUnits="userSpaceOnUse" x1="121.498" y1="-493.0269" x2="168.5107" y2="-493.0269" gradientTransform="matrix(0.9554 0 0 -0.6715 -40.22 -283.4296)">
				<stop  offset="0" style="stop-color:#7C5320"/>
				<stop  offset="0.5153" style="stop-color:#FAC28D"/>
				<stop  offset="1" style="stop-color:#7C5320"/>
			</linearGradient>
			<path fill="url(#SVGID_5_)" d="M117.883,57.333c0,2.191-8.759,3.969-19.566,3.969s-19.565-1.777-19.565-3.969
				c0-1.266-2.893-23.124-2.893-23.124c3.329-0.531,40.353,0,44.917,0C120.775,34.209,117.883,55.142,117.883,57.333z"/>
			
				<linearGradient id="SVGID_6_" gradientUnits="userSpaceOnUse" x1="248.3184" y1="-591.0215" x2="248.3184" y2="-566.3371" gradientTransform="matrix(1 0 0 -1 -150 -530)">
				<stop  offset="0" style="stop-color:#7C5320"/>
				<stop  offset="1" style="stop-color:#7C5320;stop-opacity:0"/>
			</linearGradient>
			<path fill="url(#SVGID_6_)" d="M117.883,57.333c0,2.191-8.759,3.969-19.566,3.969s-19.565-1.777-19.565-3.969
				c0-1.266-2.893-23.124-2.893-23.124c3.329-0.531,40.353,0,44.917,0C120.775,34.209,117.883,55.142,117.883,57.333z"/>
			
				<linearGradient id="SVGID_7_" gradientUnits="userSpaceOnUse" x1="248.123" y1="-562.2388" x2="250.1883" y2="-583.0989" gradientTransform="matrix(1 0 0 -1 -150 -530)">
				<stop  offset="0" style="stop-color:#FAC28D"/>
				<stop  offset="1" style="stop-color:#7C5320"/>
			</linearGradient>
			<ellipse fill="url(#SVGID_7_)" cx="98.317" cy="34.209" rx="22.458" ry="4.555"/>
			
				<linearGradient id="SVGID_8_" gradientUnits="userSpaceOnUse" x1="248.123" y1="-562.2388" x2="250.1883" y2="-583.0989" gradientTransform="matrix(1 0 0 -1 -150 -530)">
				<stop  offset="0" style="stop-color:#FAC28D"/>
				<stop  offset="1" style="stop-color:#7C5320"/>
			</linearGradient>
			<ellipse fill="url(#SVGID_8_)" cx="98.317" cy="34.209" rx="22.458" ry="4.555"/>
			
				<linearGradient id="SVGID_9_" gradientUnits="userSpaceOnUse" x1="247.8936" y1="-566.0708" x2="253.6414" y2="-541.163" gradientTransform="matrix(1 0 0 -1 -150 -530)">
				<stop  offset="0" style="stop-color:#FAC28D"/>
				<stop  offset="1" style="stop-color:#7C5320"/>
			</linearGradient>
			<path fill="url(#SVGID_9_)" d="M98.316,37.208c-10.459,0-19.326-1.31-22.441-3.124c-0.006,0.042-0.017,0.083-0.017,0.125
				c0,2.516,10.056,4.555,22.458,4.555c12.405,0,22.459-2.04,22.459-4.555c0-0.042-0.012-0.083-0.02-0.125
				C117.645,35.898,108.777,37.208,98.316,37.208z"/>
			
				<linearGradient id="SVGID_10_" gradientUnits="userSpaceOnUse" x1="226.8145" y1="-598.8848" x2="272.4922" y2="-598.8848" gradientTransform="matrix(1 0 0 -1 -150 -530)">
				<stop  offset="0" style="stop-color:#81693C"/>
				<stop  offset="0.4847" style="stop-color:#DFAA76"/>
				<stop  offset="1" style="stop-color:#81693C"/>
			</linearGradient>
			<path fill="url(#SVGID_10_)" d="M79.874,61.033c0,0-3.776-0.913-2.939,1.993c0.412,1.431,3.395,2.851,5.028,3.864
				c1.434,0.888-1.269,2.215-1.634,3.353c-0.332,1.037-3.745,0.131-1.163,2.754c3.002,3.05,11.305,3.885,17.986,3.952
				c12.265,0.123,20.858-1.971,22.683-4.91c1.196-1.928,0.521-2.458-0.019-2.754c-2.17-1.192-3.678-2.696,0.465-4.79
				c2.648-1.339,3.232-4.201,0-3.597c-3.233,0.604-21.947,5.356-39.952,0.765"/>
			
				<linearGradient id="SVGID_11_" gradientUnits="userSpaceOnUse" x1="222.3711" y1="-681.2476" x2="258.6725" y2="-562.5341" gradientTransform="matrix(1 0 0 -1 -150 -530)">
				<stop  offset="0" style="stop-color:#FFFFFF"/>
				<stop  offset="0.0896" style="stop-color:#FFFFFF;stop-opacity:0.9104"/>
				<stop  offset="1" style="stop-color:#FFFFFF;stop-opacity:0"/>
			</linearGradient>
			<path fill="url(#SVGID_11_)" d="M78.692,50.209c0,0-8.038,1.641-5.41,7.547c2.624,5.907,6.057,8.643,19.85,9.846
				c20.675,1.806,24.445-1.121,32.418-3.94c4.988-1.765,5.697-7.361-0.538-10.314c-6.234-2.953-11.437-3.068-7.365-2.025
				c4.582,1.173,11.965,3.932,4.808,8.861c-7.033,4.842-17.986,4.766-30.305,3.48c-15.752-1.641-15.912-4.921-14.598-8.205
				c1.312-3.282,0.486-4.595,3.109-4.595S81.317,50.537,78.692,50.209z"/>
			
				<linearGradient id="SVGID_12_" gradientUnits="userSpaceOnUse" x1="211.7012" y1="-632.5664" x2="232.1095" y2="-642.9711" gradientTransform="matrix(1 0 0 -1 -150 -530)">
				<stop  offset="0" style="stop-color:#FFFFFF"/>
				<stop  offset="0.0896" style="stop-color:#FFFFFF;stop-opacity:0.9104"/>
				<stop  offset="1" style="stop-color:#FFFFFF;stop-opacity:0"/>
			</linearGradient>
			<path opacity="0.3" fill="url(#SVGID_12_)" enable-background="new    " d="M78.86,62.023c0,0-5.578-1.968-3.938,3.284
				c1.641,5.25,0.488,13.781-10.016,26.582c-10.501,12.798-27.238,35.115-20.676,50.21c6.562,15.094,47.259,27.235,49.553,0.654
				c2.302-26.584,2.631-55.463,0.991-65.309c-1.643-9.845,0.153-13.42-5.507-13.598C83.313,63.662,82.143,63.334,78.86,62.023z"/>
			
				<linearGradient id="SVGID_13_" gradientUnits="userSpaceOnUse" x1="-126.5957" y1="-793.3901" x2="-118.9378" y2="-771.4509" gradientTransform="matrix(0.9465 -0.3227 -0.3227 -0.9465 -25.5116 -720.2516)">
				<stop  offset="0" style="stop-color:#FFFFFF"/>
				<stop  offset="0.0896" style="stop-color:#FFFFFF;stop-opacity:0.9104"/>
				<stop  offset="1" style="stop-color:#FFFFFF;stop-opacity:0"/>
			</linearGradient>
			<path opacity="0.44" fill="url(#SVGID_13_)" enable-background="new    " d="M99.472,65.062c0,0-3.665,0.855,0.976,2.235
				c2.69,0.797,9.467,1.31,16.944-0.043c1.645-0.297,2.621-5.083,6.002-4.912C121.041,62.219,107.191,65.261,99.472,65.062z"/>
			
				<radialGradient id="SVGID_14_" cx="258.5576" cy="-709.8403" r="138.4853" gradientTransform="matrix(1 0 0 -1 -150 -530)" gradientUnits="userSpaceOnUse">
				<stop  offset="0" style="stop-color:#130C0E;stop-opacity:0"/>
				<stop  offset="0.9385" style="stop-color:#130C0E;stop-opacity:0.6112"/>
				<stop  offset="1" style="stop-color:#130C0E;stop-opacity:0.6512"/>
			</radialGradient>
			<path opacity="0.44" fill="url(#SVGID_14_)" enable-background="new    " d="M120.368,71.541c0,0-2.952,4.922-0.325,11.486
				c2.623,6.562,28.879,43.646,30.189,54.805c1.312,11.157-0.655,19.361-16.409,20.676c-15.751,1.312-20.675-14.111-23.3-42.008
				c-2.625-27.894-7.219-40.037-2.953-43.318C111.838,69.9,118.729,70.884,120.368,71.541z"/>
			
				<radialGradient id="SVGID_15_" cx="291.0361" cy="-771.1299" r="168.062" gradientTransform="matrix(1.0315 0.0359 0.0276 -0.9685 -200.6814 -588.1839)" gradientUnits="userSpaceOnUse">
				<stop  offset="0" style="stop-color:#130C0E;stop-opacity:0"/>
				<stop  offset="0.9385" style="stop-color:#130C0E;stop-opacity:0.6112"/>
				<stop  offset="1" style="stop-color:#130C0E;stop-opacity:0.6512"/>
			</radialGradient>
			<path fill="url(#SVGID_15_)" d="M59.871,147.676c0,0,0.743-10.154,8.374-24.314c7.632-14.154,14.304-26.227,16.408-36.757
				c2.112-10.531,2.245-15.195-1.81-15.759c-4.047-0.564-3.182,0.738-4.706,6.624c-1.523,5.888-16.288,32.521-21.114,43.387
				C52.194,131.713,41.062,141.932,59.871,147.676z"/>
			
				<linearGradient id="SVGID_16_" gradientUnits="userSpaceOnUse" x1="603.5391" y1="-2107.3799" x2="581.8215" y2="-2178.967" gradientTransform="matrix(1 0 0 -1 -495.5176 -2000.2627)">
				<stop  offset="0" style="stop-color:#837881;stop-opacity:0"/>
				<stop  offset="0.3534" style="stop-color:#7D737A;stop-opacity:0.2436"/>
				<stop  offset="0.8632" style="stop-color:#6B6667;stop-opacity:0.5951"/>
				<stop  offset="0.8848" style="stop-color:#6A6566;stop-opacity:0.61"/>
			</linearGradient>
			<path opacity="0.42" fill="url(#SVGID_16_)" enable-background="new    " d="M100.334,150.605
				c-30.404-0.002-55.707-5.957-57.676-23.687l1.745,15.72c1.958,17.725,26.486,23.678,55.927,23.676
				c29.451,0.002,53.977-5.951,55.932-23.684l1.752-15.714C156.043,144.646,130.738,150.602,100.334,150.605z"/>
			
				<linearGradient id="SVGID_17_" gradientUnits="userSpaceOnUse" x1="605.6182" y1="-2091.5679" x2="584.9398" y2="-2159.73" gradientTransform="matrix(1 0 0 -1 -495.5176 -2000.2627)">
				<stop  offset="0" style="stop-color:#FFFFFF;stop-opacity:0"/>
				<stop  offset="0.8485" style="stop-color:#FFFFFF;stop-opacity:0.38"/>
			</linearGradient>
			<path fill="url(#SVGID_17_)" d="M100.334,95.331c-30.404-0.003-57.586,30-47.676,11.894l-8.255,15.719
				c1.958,17.726,26.486,23.679,55.927,23.677c29.451,0.002,53.977-5.951,55.932-23.683l-8.248-15.715
				C146.043,124.949,130.738,95.326,100.334,95.331z"/>
			
				<linearGradient id="SVGID_18_" gradientUnits="userSpaceOnUse" x1="250.2793" y1="-694.1973" x2="249.7793" y2="-645.6974" gradientTransform="matrix(1 0 0 -1 -150 -530)">
				<stop  offset="0" style="stop-color:#FFFFFF"/>
				<stop  offset="0.0896" style="stop-color:#FFFFFF;stop-opacity:0.9104"/>
				<stop  offset="1" style="stop-color:#FFFFFF;stop-opacity:0"/>
			</linearGradient>
			<path opacity="0.75" fill="url(#SVGID_18_)" enable-background="new    " d="M99.5,52.688c13.093,0,19.451,2.006,24.973,5.019
				c1.73,0.945,2.201,2.015,2.203,2.39c-0.005,0.002-0.01,0.004-0.014,0.005c-4.664,1.746-7.11,5.586-6.891,10.813
				c0.153,3.683,1.525,7.55,2.854,11.291l0.35,0.982c3.334,9.441,10.685,16.189,19.942,24.028
				c7.103,6.015,15.565,16.081,15.565,29.876c0,30.217-40.9,33.479-58.486,33.479c-17.584,0-58.484-3.262-58.484-33.479
				c0-8,2.903-15.848,8.397-22.693l0.136-0.17l0.116-0.183c3.31-5.187,7.24-9.364,11.043-13.405
				c6.837-7.266,13.907-14.779,16.745-27.625c1.721-7.794-2.569-10.892-4.873-12.557c-0.42-0.303-1.039-0.75-1.239-0.985
				c-0.187-1.331,1.353-2.518,4.577-3.529l0.143-0.045l0.139-0.055C79.663,54.667,86.568,52.688,99.5,52.688 M99.5,48.688
				c-12.319,0-19.943,1.716-24.28,3.44c-5.832,1.828-7.955,4.736-7.296,8.179c0.802,4.187,7.978,3.438,6.121,11.847
				c-4.111,18.617-17.707,24.777-27.254,39.743c-5.878,7.324-9.277,15.953-9.277,25.196c0,26.542,27.975,37.479,62.484,37.479
				c34.508,0,62.486-10.938,62.486-37.479c0-12.745-6.609-24.144-16.98-32.928c-8.357-7.076-15.663-13.549-18.757-22.309
				c-2.494-7.082-5.815-15.337,1.317-18.008c3.711-1.39,3.724-6.706-1.678-9.653C119.839,50.622,112.498,48.688,99.5,48.688
				L99.5,48.688z"/>
		</g>
	</g>
</g>
</svg>
