<?xml version="1.0" encoding="utf-8"?>
<!-- Generator: Adobe Illustrator 15.0.0, SVG Export Plug-In . SVG Version: 6.00 Build 0)  -->
<!DOCTYPE svg PUBLIC "-//W3C//DTD SVG 1.1//EN" "http://www.w3.org/Graphics/SVG/1.1/DTD/svg11.dtd">
<svg version="1.1" id="Layer_1" xmlns="http://www.w3.org/2000/svg" xmlns:xlink="http://www.w3.org/1999/xlink" x="0px" y="0px"
	 width="200px" height="200px" viewBox="0 0 200 200" enable-background="new 0 0 200 200" xml:space="preserve">
<g id="icon">
	<g id="Layer_2">
	</g>
	<g>
		<g>
			
				<radialGradient id="SVGID_1_" cx="266.2109" cy="1323.1875" r="37.5098" gradientTransform="matrix(1 0 0 1 -200 -1182)" gradientUnits="userSpaceOnUse">
				<stop  offset="0.1758" style="stop-color:#96FF00"/>
				<stop  offset="1" style="stop-color:#007C00;stop-opacity:0"/>
			</radialGradient>
			<circle fill="url(#SVGID_1_)" cx="66.211" cy="141.187" r="37.51"/>
			
				<radialGradient id="SVGID_2_" cx="247.7002" cy="1293.6826" r="25.71" gradientTransform="matrix(1 0 0 1 -200 -1182)" gradientUnits="userSpaceOnUse">
				<stop  offset="0.1758" style="stop-color:#96FF00"/>
				<stop  offset="1" style="stop-color:#007C00;stop-opacity:0"/>
			</radialGradient>
			<circle fill="url(#SVGID_2_)" cx="47.7" cy="111.683" r="25.71"/>
			
				<radialGradient id="SVGID_3_" cx="323.9258" cy="1323.8955" r="32.2451" gradientTransform="matrix(1 0 0 1 -200 -1182)" gradientUnits="userSpaceOnUse">
				<stop  offset="0.1758" style="stop-color:#96FF00"/>
				<stop  offset="1" style="stop-color:#007C00;stop-opacity:0"/>
			</radialGradient>
			<circle fill="url(#SVGID_3_)" cx="123.926" cy="141.896" r="32.245"/>
			
				<radialGradient id="SVGID_4_" cx="347.7451" cy="1260.5" r="23.2632" gradientTransform="matrix(1 0 0 1 -200 -1182)" gradientUnits="userSpaceOnUse">
				<stop  offset="0.1758" style="stop-color:#96FF00"/>
				<stop  offset="1" style="stop-color:#007C00;stop-opacity:0"/>
			</radialGradient>
			<circle fill="url(#SVGID_4_)" cx="147.745" cy="78.5" r="23.263"/>
			
				<radialGradient id="SVGID_5_" cx="323.9248" cy="1290.0195" r="28.3618" gradientTransform="matrix(1 0 0 1 -200 -1182)" gradientUnits="userSpaceOnUse">
				<stop  offset="0.1758" style="stop-color:#96FF00"/>
				<stop  offset="1" style="stop-color:#007C00;stop-opacity:0"/>
			</radialGradient>
			<circle fill="url(#SVGID_5_)" cx="123.925" cy="108.019" r="28.362"/>
			
				<radialGradient id="SVGID_6_" cx="323.9258" cy="1224.6543" r="17.4956" gradientTransform="matrix(1 0 0 1 -200 -1182)" gradientUnits="userSpaceOnUse">
				<stop  offset="0.1758" style="stop-color:#96FF00"/>
				<stop  offset="1" style="stop-color:#007C00;stop-opacity:0"/>
			</radialGradient>
			<circle fill="url(#SVGID_6_)" cx="123.925" cy="42.654" r="17.496"/>
			
				<radialGradient id="SVGID_7_" cx="255.915" cy="1242.1504" r="17.4961" gradientTransform="matrix(1 0 0 1 -200 -1182)" gradientUnits="userSpaceOnUse">
				<stop  offset="0.1758" style="stop-color:#96FF00"/>
				<stop  offset="1" style="stop-color:#007C00;stop-opacity:0"/>
			</radialGradient>
			<circle fill="url(#SVGID_7_)" cx="55.915" cy="60.15" r="17.496"/>
			
				<radialGradient id="SVGID_8_" cx="280.4062" cy="1229.2148" r="31.46" gradientTransform="matrix(1 0 0 1 -200 -1182)" gradientUnits="userSpaceOnUse">
				<stop  offset="0.1758" style="stop-color:#96FF00"/>
				<stop  offset="1" style="stop-color:#007C00;stop-opacity:0"/>
			</radialGradient>
			<circle fill="url(#SVGID_8_)" cx="80.406" cy="47.215" r="31.46"/>
			
				<radialGradient id="SVGID_9_" cx="309.5254" cy="1230.0996" r="31.459" gradientTransform="matrix(1 0 0 1 -200 -1182)" gradientUnits="userSpaceOnUse">
				<stop  offset="0.1758" style="stop-color:#96FF00"/>
				<stop  offset="1" style="stop-color:#007C00;stop-opacity:0"/>
			</radialGradient>
			<circle fill="url(#SVGID_9_)" cx="109.525" cy="48.099" r="31.459"/>
			
				<radialGradient id="SVGID_10_" cx="328.1836" cy="1246.3496" r="15.73" gradientTransform="matrix(1 0 0 1 -200 -1182)" gradientUnits="userSpaceOnUse">
				<stop  offset="0.1758" style="stop-color:#96FF00"/>
				<stop  offset="1" style="stop-color:#007C00;stop-opacity:0"/>
			</radialGradient>
			<circle fill="url(#SVGID_10_)" cx="128.184" cy="64.349" r="15.73"/>
			
				<radialGradient id="SVGID_11_" cx="303.7227" cy="1207.582" r="11.1953" gradientTransform="matrix(1 0 0 1 -200 -1182)" gradientUnits="userSpaceOnUse">
				<stop  offset="0.1758" style="stop-color:#96FF00"/>
				<stop  offset="1" style="stop-color:#007C00;stop-opacity:0"/>
			</radialGradient>
			<circle fill="url(#SVGID_11_)" cx="103.723" cy="25.582" r="11.195"/>
			
				<radialGradient id="SVGID_12_" cx="349.9395" cy="1232.9668" r="9.4839" gradientTransform="matrix(1 0 0 1 -200 -1182)" gradientUnits="userSpaceOnUse">
				<stop  offset="0.1758" style="stop-color:#96FF00"/>
				<stop  offset="1" style="stop-color:#007C00;stop-opacity:0"/>
			</radialGradient>
			<circle fill="url(#SVGID_12_)" cx="149.939" cy="50.967" r="9.484"/>
			
				<radialGradient id="SVGID_13_" cx="269.8936" cy="1201.8154" r="6.5811" gradientTransform="matrix(1 0 0 1 -200 -1182)" gradientUnits="userSpaceOnUse">
				<stop  offset="0.1758" style="stop-color:#96FF00"/>
				<stop  offset="1" style="stop-color:#007C00;stop-opacity:0"/>
			</radialGradient>
			<circle fill="url(#SVGID_13_)" cx="69.893" cy="19.816" r="6.581"/>
			
				<radialGradient id="SVGID_14_" cx="359.4229" cy="1312.2617" r="6.582" gradientTransform="matrix(1 0 0 1 -200 -1182)" gradientUnits="userSpaceOnUse">
				<stop  offset="0.1758" style="stop-color:#96FF00"/>
				<stop  offset="1" style="stop-color:#007C00;stop-opacity:0"/>
			</radialGradient>
			<circle fill="url(#SVGID_14_)" cx="159.423" cy="130.262" r="6.582"/>
			
				<radialGradient id="SVGID_15_" cx="241.168" cy="1284.4971" r="9.5752" gradientTransform="matrix(1 0 0 1 -200 -1182)" gradientUnits="userSpaceOnUse">
				<stop  offset="0.1758" style="stop-color:#96FF00"/>
				<stop  offset="1" style="stop-color:#007C00;stop-opacity:0"/>
			</radialGradient>
			<circle fill="url(#SVGID_15_)" cx="41.168" cy="102.497" r="9.575"/>
			
				<radialGradient id="SVGID_16_" cx="265.9883" cy="1312.9824" r="12.627" gradientTransform="matrix(1 0 0 1 -200 -1182)" gradientUnits="userSpaceOnUse">
				<stop  offset="0.1758" style="stop-color:#96FF00"/>
				<stop  offset="1" style="stop-color:#007C00;stop-opacity:0"/>
			</radialGradient>
			<circle fill="url(#SVGID_16_)" cx="65.988" cy="130.982" r="12.627"/>
			
				<radialGradient id="SVGID_17_" cx="269.8926" cy="1218.5293" r="6.957" gradientTransform="matrix(1 0 0 1 -200 -1182)" gradientUnits="userSpaceOnUse">
				<stop  offset="0.1758" style="stop-color:#96FF00"/>
				<stop  offset="1" style="stop-color:#007C00;stop-opacity:0"/>
			</radialGradient>
			<circle fill="url(#SVGID_17_)" cx="69.892" cy="36.529" r="6.957"/>
			
				<radialGradient id="SVGID_18_" cx="343.9141" cy="1303.4619" r="33.167" gradientTransform="matrix(1 0 0 1 -200 -1182)" gradientUnits="userSpaceOnUse">
				<stop  offset="0.1758" style="stop-color:#96FF00"/>
				<stop  offset="1" style="stop-color:#007C00;stop-opacity:0"/>
			</radialGradient>
			<circle fill="url(#SVGID_18_)" cx="143.914" cy="121.462" r="33.167"/>
			
				<radialGradient id="SVGID_19_" cx="341.4219" cy="1323.8945" r="7.8379" gradientTransform="matrix(1 0 0 1 -200 -1182)" gradientUnits="userSpaceOnUse">
				<stop  offset="0.1758" style="stop-color:#96FF00"/>
				<stop  offset="1" style="stop-color:#007C00;stop-opacity:0"/>
			</radialGradient>
			<circle fill="url(#SVGID_19_)" cx="141.422" cy="141.895" r="7.838"/>
			
				<radialGradient id="SVGID_20_" cx="304.6133" cy="1340.2207" r="11.5156" gradientTransform="matrix(1 0 0 1 -200 -1182)" gradientUnits="userSpaceOnUse">
				<stop  offset="0.1758" style="stop-color:#96FF00"/>
				<stop  offset="1" style="stop-color:#007C00;stop-opacity:0"/>
			</radialGradient>
			<circle fill="url(#SVGID_20_)" cx="104.613" cy="158.22" r="11.516"/>
		</g>
		<g opacity="0.44">
			<g>
				
					<radialGradient id="SVGID_21_" cx="302.0029" cy="1305.8242" r="62.7138" gradientTransform="matrix(1 0 0 1 -200 -1182)" gradientUnits="userSpaceOnUse">
					<stop  offset="0" style="stop-color:#130C0E;stop-opacity:0"/>
					<stop  offset="0.9385" style="stop-color:#130C0E;stop-opacity:0.6112"/>
					<stop  offset="1" style="stop-color:#130C0E;stop-opacity:0.6512"/>
				</radialGradient>
				<path fill="url(#SVGID_21_)" d="M147.506,116.359c-8.357-7.075-12.979-13.104-16.072-21.863
					c-2.494-7.081-7.916-15.771-1.367-18.452c4.604-1.885,3.233-7.976-3.592-10.73c-7.227-2.916-11.137-4.431-26.375-4.431
					c-12.319,0-18.541,1.716-22.878,3.44c-4.766,1.034-7.635,2.559-7.985,6.229c-0.876,9.168,10.57,6.994,5.521,19.429
					c-3.956,9.738-12.944,16.166-25.964,34.11c-5.878,7.325-9.277,15.952-9.277,25.197c0,26.542,27.975,37.478,62.484,37.478
					c34.508,0,62.487-10.936,62.487-37.478C164.486,136.544,157.877,125.146,147.506,116.359z"/>
			</g>
		</g>
		<path fill="#FFFFFF" d="M127.039,79.644c1.258-1.061,2.296-2.284,3.083-3.628c-0.021,0.009-0.035,0.02-0.056,0.028
			C128.191,76.811,127.302,78.071,127.039,79.644z"/>
		<g>
			<g opacity="0.44">
				
					<linearGradient id="SVGID_22_" gradientUnits="userSpaceOnUse" x1="367.0322" y1="1294.9053" x2="304.6773" y2="1305.7356" gradientTransform="matrix(1 0 0 1 -200 -1182)">
					<stop  offset="0" style="stop-color:#FFFFFF"/>
					<stop  offset="0.0896" style="stop-color:#FFFFFF;stop-opacity:0.9104"/>
					<stop  offset="1" style="stop-color:#FFFFFF;stop-opacity:0"/>
				</linearGradient>
				<path fill="url(#SVGID_22_)" d="M147.506,116.359c-8.357-7.075-15.663-13.547-18.757-22.311
					c-2.494-7.081-8.909-17.14-1.294-17.243c4.975-0.067,7.959-4.724,2.924-8.256c-7.23-5.074-9.463-7.154-34.767-7.154
					c-1.696,0-3.292,0.022-4.81,0.067c23.32,0.702,26.722,1.118,33.65,5.983c5.032,3.532,0.103,9.292-4.875,9.359
					c-7.615,0.104-1.2,10.162,1.299,17.243c3.092,8.765,10.39,15.231,18.749,22.312c10.376,8.785,16.982,20.184,16.982,32.929
					c0,25.524-25.873,36.612-58.547,37.424c1.304,0.032,2.614,0.054,3.938,0.054c34.508,0,62.486-10.936,62.486-37.478
					C164.486,136.544,157.877,125.146,147.506,116.359z"/>
			</g>
		</g>
		
			<radialGradient id="SVGID_23_" cx="301.541" cy="1983.5254" r="68.0031" fx="301.5398" fy="1959.8363" gradientTransform="matrix(1 0 0 0.6457 -200.0396 -1131.1754)" gradientUnits="userSpaceOnUse">
			<stop  offset="0.2761" style="stop-color:#6DEB05"/>
			<stop  offset="1" style="stop-color:#3D7900"/>
		</radialGradient>
		<path fill="url(#SVGID_23_)" d="M159.512,148.749c0-6.444-1.834-12.517-5.076-18.019c-0.457-0.775-2.877-6.172-16.67-17.853
			c-7.311-6.675-6.096-2.416-36.748-2.416c-33.333,0-33.607-1.022-35.743,0.905c0,0-0.827,0.988-0.808,1.009
			c-0.472,0.586-12.361,14.362-12.796,14.965c-4.572,6.347-7.18,13.64-7.18,21.404c0,24.429,25.748,34.494,57.509,34.494
			C133.76,183.243,159.512,173.178,159.512,148.749z"/>
		
			<radialGradient id="SVGID_24_" cx="300.1123" cy="1254.3086" r="82.9261" gradientTransform="matrix(1 0 0 1 -200 -1182)" gradientUnits="userSpaceOnUse">
			<stop  offset="0" style="stop-color:#B9FF4B"/>
			<stop  offset="1" style="stop-color:#51DC00"/>
		</radialGradient>
		<path fill="url(#SVGID_24_)" d="M137.361,114.07c-0.084,6.365-16.211,11.197-36.016,10.791
			c-19.812-0.407-35.798-5.896-35.707-12.262c0.084-6.365,16.21-11.199,36.013-10.791
			C121.462,102.216,137.445,107.704,137.361,114.07z"/>
		
			<radialGradient id="SVGID_25_" cx="302.124" cy="1307.2656" r="44.431" gradientTransform="matrix(1 0 0 1 -200 -1182)" gradientUnits="userSpaceOnUse">
			<stop  offset="0" style="stop-color:#90E630"/>
			<stop  offset="1" style="stop-color:#90E630;stop-opacity:0"/>
		</radialGradient>
		<path fill="url(#SVGID_25_)" d="M101.346,122.445c-18.16-0.373-33.094-5.021-35.392-10.693c-0.196,0.475-0.308,0.958-0.312,1.452
			c-0.091,6.364,15.896,11.856,35.704,12.262c19.805,0.406,35.932-4.426,36.016-10.791c0.011-0.528-0.105-1.051-0.312-1.569
			C134.738,118.738,119.611,122.82,101.346,122.445z"/>
		
			<linearGradient id="SVGID_26_" gradientUnits="userSpaceOnUse" x1="280.1953" y1="1239.166" x2="284.77" y2="1258.6078" gradientTransform="matrix(1 0 0 1 -200 -1182)">
			<stop  offset="0" style="stop-color:#FFFFFF"/>
			<stop  offset="0.0896" style="stop-color:#FFFFFF;stop-opacity:0.9104"/>
			<stop  offset="1" style="stop-color:#FFFFFF;stop-opacity:0"/>
		</linearGradient>
		<path opacity="0.42" fill="url(#SVGID_26_)" enable-background="new    " d="M92.383,63.149c0,0,1.578-1.819-2.012-1.308
			c-3.951,0.563-9.45,0.705-16.285,4.729c-5.389,3.173,0.704,9.256,3.551,7.724c2.844-1.532-6.797-4.032,2.377-8.202
			C87.231,62.812,92.383,66.431,92.383,63.149z"/>
		
			<radialGradient id="SVGID_27_" cx="206.6934" cy="1321.7803" r="17.4727" gradientTransform="matrix(0.9554 0 0 0.6715 -97.1555 -818.3195)" gradientUnits="userSpaceOnUse">
			<stop  offset="0" style="stop-color:#130C0E;stop-opacity:0"/>
			<stop  offset="0.9385" style="stop-color:#130C0E;stop-opacity:0.6112"/>
			<stop  offset="1" style="stop-color:#130C0E;stop-opacity:0.6512"/>
		</radialGradient>
		<ellipse opacity="0.44" fill="url(#SVGID_27_)" enable-background="new    " cx="100.319" cy="69.256" rx="22.683" ry="4.601"/>
		
			<linearGradient id="SVGID_28_" gradientUnits="userSpaceOnUse" x1="183.1855" y1="1307.7461" x2="230.1992" y2="1307.7461" gradientTransform="matrix(0.9554 0 0 0.6715 -97.1555 -818.3195)">
			<stop  offset="0" style="stop-color:#7C5320"/>
			<stop  offset="0.5153" style="stop-color:#FAC28D"/>
			<stop  offset="1" style="stop-color:#7C5320"/>
		</linearGradient>
		<path fill="url(#SVGID_28_)" d="M119.885,69.528c0,2.191-8.759,3.969-19.566,3.969c-10.807,0-19.565-1.777-19.565-3.969
			c0-1.266-2.893-23.124-2.893-23.124c3.329-0.531,40.353,0,44.917,0C122.777,46.405,119.885,67.337,119.885,69.528z"/>
		
			<linearGradient id="SVGID_29_" gradientUnits="userSpaceOnUse" x1="300.3184" y1="1255.2168" x2="300.3184" y2="1230.532" gradientTransform="matrix(1 0 0 1 -200 -1182)">
			<stop  offset="0" style="stop-color:#7C5320"/>
			<stop  offset="1" style="stop-color:#7C5320;stop-opacity:0"/>
		</linearGradient>
		<path fill="url(#SVGID_29_)" d="M119.885,69.528c0,2.191-8.759,3.969-19.566,3.969c-10.807,0-19.565-1.777-19.565-3.969
			c0-1.266-2.893-23.124-2.893-23.124c3.329-0.531,40.353,0,44.917,0C122.777,46.405,119.885,67.337,119.885,69.528z"/>
		
			<linearGradient id="SVGID_30_" gradientUnits="userSpaceOnUse" x1="300.124" y1="1226.4355" x2="302.1901" y2="1247.303" gradientTransform="matrix(1 0 0 1 -200 -1182)">
			<stop  offset="0" style="stop-color:#FAC28D"/>
			<stop  offset="1" style="stop-color:#7C5320"/>
		</linearGradient>
		<ellipse fill="url(#SVGID_30_)" cx="100.319" cy="46.405" rx="22.458" ry="4.555"/>
		
			<linearGradient id="SVGID_31_" gradientUnits="userSpaceOnUse" x1="300.124" y1="1226.4355" x2="302.1901" y2="1247.303" gradientTransform="matrix(1 0 0 1 -200 -1182)">
			<stop  offset="0" style="stop-color:#FAC28D"/>
			<stop  offset="1" style="stop-color:#7C5320"/>
		</linearGradient>
		<ellipse fill="url(#SVGID_31_)" cx="100.319" cy="46.405" rx="22.458" ry="4.555"/>
		
			<linearGradient id="SVGID_32_" gradientUnits="userSpaceOnUse" x1="299.8955" y1="1230.2656" x2="305.6437" y2="1205.3569" gradientTransform="matrix(1 0 0 1 -200 -1182)">
			<stop  offset="0" style="stop-color:#FAC28D"/>
			<stop  offset="1" style="stop-color:#7C5320"/>
		</linearGradient>
		<path fill="url(#SVGID_32_)" d="M100.318,49.403c-10.459,0-19.326-1.31-22.441-3.124c-0.006,0.042-0.017,0.083-0.017,0.125
			c0,2.516,10.056,4.555,22.458,4.555c12.405,0,22.459-2.04,22.459-4.555c0-0.042-0.012-0.083-0.021-0.125
			C119.646,48.094,110.779,49.403,100.318,49.403z"/>
		<g>
			<g>
				
					<radialGradient id="SVGID_33_" cx="288.3467" cy="1328.0986" r="3.7601" gradientTransform="matrix(1 0 0 1 -200 -1182)" gradientUnits="userSpaceOnUse">
					<stop  offset="0.3681" style="stop-color:#13FF0E;stop-opacity:0"/>
					<stop  offset="0.4596" style="stop-color:#22FF0E;stop-opacity:0.1376"/>
					<stop  offset="0.6362" style="stop-color:#4AFF0E;stop-opacity:0.403"/>
					<stop  offset="0.8776" style="stop-color:#89FF0E;stop-opacity:0.766"/>
					<stop  offset="1" style="stop-color:#ACFF0E;stop-opacity:0.95"/>
				</radialGradient>
				<circle fill="url(#SVGID_33_)" cx="88.347" cy="145.62" r="4.382"/>
			</g>
			<g>
				
					<radialGradient id="SVGID_34_" cx="313.4932" cy="1337.7812" r="2.3024" gradientTransform="matrix(1 0 0 1 -200 -1182)" gradientUnits="userSpaceOnUse">
					<stop  offset="0.3681" style="stop-color:#13FF0E;stop-opacity:0"/>
					<stop  offset="0.4596" style="stop-color:#22FF0E;stop-opacity:0.1376"/>
					<stop  offset="0.6362" style="stop-color:#4AFF0E;stop-opacity:0.403"/>
					<stop  offset="0.8776" style="stop-color:#89FF0E;stop-opacity:0.766"/>
					<stop  offset="1" style="stop-color:#ACFF0E;stop-opacity:0.95"/>
				</radialGradient>
				<circle fill="url(#SVGID_34_)" cx="113.493" cy="155.488" r="2.683"/>
			</g>
			<g>
				
					<radialGradient id="SVGID_35_" cx="316.1758" cy="1318.7422" r="2.3035" gradientTransform="matrix(1 0 0 1 -200 -1182)" gradientUnits="userSpaceOnUse">
					<stop  offset="0.3681" style="stop-color:#13FF0E;stop-opacity:0"/>
					<stop  offset="0.4596" style="stop-color:#22FF0E;stop-opacity:0.1376"/>
					<stop  offset="0.6362" style="stop-color:#4AFF0E;stop-opacity:0.403"/>
					<stop  offset="0.8776" style="stop-color:#89FF0E;stop-opacity:0.766"/>
					<stop  offset="1" style="stop-color:#ACFF0E;stop-opacity:0.95"/>
				</radialGradient>
				<circle fill="url(#SVGID_35_)" cx="116.176" cy="136.449" r="2.683"/>
			</g>
			<g>
				
					<radialGradient id="SVGID_36_" cx="303.124" cy="1314.6797" r="1.4753" gradientTransform="matrix(1 0 0 1 -200 -1182)" gradientUnits="userSpaceOnUse">
					<stop  offset="0.3681" style="stop-color:#13FF0E;stop-opacity:0"/>
					<stop  offset="0.4596" style="stop-color:#22FF0E;stop-opacity:0.1376"/>
					<stop  offset="0.6362" style="stop-color:#4AFF0E;stop-opacity:0.403"/>
					<stop  offset="0.8776" style="stop-color:#89FF0E;stop-opacity:0.766"/>
					<stop  offset="1" style="stop-color:#ACFF0E;stop-opacity:0.95"/>
				</radialGradient>
				<circle fill="url(#SVGID_36_)" cx="103.124" cy="132.491" r="1.72"/>
			</g>
			<g>
				
					<radialGradient id="SVGID_37_" cx="280.4062" cy="1342.5439" r="1.4765" gradientTransform="matrix(1 0 0 1 -200 -1182)" gradientUnits="userSpaceOnUse">
					<stop  offset="0.3681" style="stop-color:#13FF0E;stop-opacity:0"/>
					<stop  offset="0.4596" style="stop-color:#22FF0E;stop-opacity:0.1376"/>
					<stop  offset="0.6362" style="stop-color:#4AFF0E;stop-opacity:0.403"/>
					<stop  offset="0.8776" style="stop-color:#89FF0E;stop-opacity:0.766"/>
					<stop  offset="1" style="stop-color:#ACFF0E;stop-opacity:0.95"/>
				</radialGradient>
				<circle fill="url(#SVGID_37_)" cx="80.406" cy="160.354" r="1.721"/>
			</g>
			<g>
				
					<radialGradient id="SVGID_38_" cx="334.0439" cy="1312.6523" r="1.4989" gradientTransform="matrix(1 0 0 1 -200 -1182)" gradientUnits="userSpaceOnUse">
					<stop  offset="0.3681" style="stop-color:#13FF0E;stop-opacity:0"/>
					<stop  offset="0.4596" style="stop-color:#22FF0E;stop-opacity:0.1376"/>
					<stop  offset="0.6362" style="stop-color:#4AFF0E;stop-opacity:0.403"/>
					<stop  offset="0.8776" style="stop-color:#89FF0E;stop-opacity:0.766"/>
					<stop  offset="1" style="stop-color:#ACFF0E;stop-opacity:0.95"/>
				</radialGradient>
				<circle fill="url(#SVGID_38_)" cx="134.044" cy="130.462" r="1.746"/>
			</g>
			<g>
				
					<radialGradient id="SVGID_39_" cx="290.8037" cy="1318.6104" r="1.2603" gradientTransform="matrix(1 0 0 1 -200 -1182)" gradientUnits="userSpaceOnUse">
					<stop  offset="0.3681" style="stop-color:#13FF0E;stop-opacity:0"/>
					<stop  offset="0.4596" style="stop-color:#22FF0E;stop-opacity:0.1376"/>
					<stop  offset="0.6362" style="stop-color:#4AFF0E;stop-opacity:0.403"/>
					<stop  offset="0.8776" style="stop-color:#89FF0E;stop-opacity:0.766"/>
					<stop  offset="1" style="stop-color:#ACFF0E;stop-opacity:0.95"/>
				</radialGradient>
				<circle fill="url(#SVGID_39_)" cx="90.804" cy="136.449" r="1.47"/>
			</g>
			<g>
				
					<radialGradient id="SVGID_40_" cx="280.4062" cy="1303.5557" r="1.2611" gradientTransform="matrix(1 0 0 1 -200 -1182)" gradientUnits="userSpaceOnUse">
					<stop  offset="0.3681" style="stop-color:#13FF0E;stop-opacity:0"/>
					<stop  offset="0.4596" style="stop-color:#22FF0E;stop-opacity:0.1376"/>
					<stop  offset="0.6362" style="stop-color:#4AFF0E;stop-opacity:0.403"/>
					<stop  offset="0.8776" style="stop-color:#89FF0E;stop-opacity:0.766"/>
					<stop  offset="1" style="stop-color:#ACFF0E;stop-opacity:0.95"/>
				</radialGradient>
				<circle fill="url(#SVGID_40_)" cx="80.406" cy="121.394" r="1.47"/>
			</g>
			<g>
				
					<radialGradient id="SVGID_41_" cx="296.9033" cy="1305.9863" r="1.2611" gradientTransform="matrix(1 0 0 1 -200 -1182)" gradientUnits="userSpaceOnUse">
					<stop  offset="0.3681" style="stop-color:#13FF0E;stop-opacity:0"/>
					<stop  offset="0.4596" style="stop-color:#22FF0E;stop-opacity:0.1376"/>
					<stop  offset="0.6362" style="stop-color:#4AFF0E;stop-opacity:0.403"/>
					<stop  offset="0.8776" style="stop-color:#89FF0E;stop-opacity:0.766"/>
					<stop  offset="1" style="stop-color:#ACFF0E;stop-opacity:0.95"/>
				</radialGradient>
				<circle fill="url(#SVGID_41_)" cx="96.903" cy="123.825" r="1.47"/>
			</g>
			<g>
				
					<radialGradient id="SVGID_42_" cx="282.332" cy="1321.4766" r="2.7009" gradientTransform="matrix(1 0 0 1 -200 -1182)" gradientUnits="userSpaceOnUse">
					<stop  offset="0.3681" style="stop-color:#13FF0E;stop-opacity:0"/>
					<stop  offset="0.4596" style="stop-color:#22FF0E;stop-opacity:0.1376"/>
					<stop  offset="0.6362" style="stop-color:#4AFF0E;stop-opacity:0.403"/>
					<stop  offset="0.8776" style="stop-color:#89FF0E;stop-opacity:0.766"/>
					<stop  offset="1" style="stop-color:#ACFF0E;stop-opacity:0.95"/>
				</radialGradient>
				<circle fill="url(#SVGID_42_)" cx="82.332" cy="139.132" r="3.146"/>
			</g>
			<g>
				
					<radialGradient id="SVGID_43_" cx="285.4785" cy="1303.3672" r="2.7009" gradientTransform="matrix(1 0 0 1 -200 -1182)" gradientUnits="userSpaceOnUse">
					<stop  offset="0.3681" style="stop-color:#13FF0E;stop-opacity:0"/>
					<stop  offset="0.4596" style="stop-color:#22FF0E;stop-opacity:0.1376"/>
					<stop  offset="0.6362" style="stop-color:#4AFF0E;stop-opacity:0.403"/>
					<stop  offset="0.8776" style="stop-color:#89FF0E;stop-opacity:0.766"/>
					<stop  offset="1" style="stop-color:#ACFF0E;stop-opacity:0.95"/>
				</radialGradient>
				<circle fill="url(#SVGID_43_)" cx="85.479" cy="121.022" r="3.146"/>
			</g>
			<g>
				
					<radialGradient id="SVGID_44_" cx="277.2227" cy="1302.3418" r="1.8212" gradientTransform="matrix(1 0 0 1 -200 -1182)" gradientUnits="userSpaceOnUse">
					<stop  offset="0.3681" style="stop-color:#13FF0E;stop-opacity:0"/>
					<stop  offset="0.4596" style="stop-color:#22FF0E;stop-opacity:0.1376"/>
					<stop  offset="0.6362" style="stop-color:#4AFF0E;stop-opacity:0.403"/>
					<stop  offset="0.8776" style="stop-color:#89FF0E;stop-opacity:0.766"/>
					<stop  offset="1" style="stop-color:#ACFF0E;stop-opacity:0.95"/>
				</radialGradient>
				<circle fill="url(#SVGID_44_)" cx="77.223" cy="120.107" r="2.123"/>
			</g>
			<g>
				
					<radialGradient id="SVGID_45_" cx="274.7559" cy="1322.8086" r="3.3731" gradientTransform="matrix(1 0 0 1 -200 -1182)" gradientUnits="userSpaceOnUse">
					<stop  offset="0.3681" style="stop-color:#13FF0E;stop-opacity:0"/>
					<stop  offset="0.4596" style="stop-color:#22FF0E;stop-opacity:0.1376"/>
					<stop  offset="0.6362" style="stop-color:#4AFF0E;stop-opacity:0.403"/>
					<stop  offset="0.8776" style="stop-color:#89FF0E;stop-opacity:0.766"/>
					<stop  offset="1" style="stop-color:#ACFF0E;stop-opacity:0.95"/>
				</radialGradient>
				<circle fill="url(#SVGID_45_)" cx="74.756" cy="140.378" r="3.929"/>
			</g>
		</g>
		
			<linearGradient id="SVGID_46_" gradientUnits="userSpaceOnUse" x1="278.8164" y1="1263.0801" x2="324.4941" y2="1263.0801" gradientTransform="matrix(1 0 0 1 -200 -1182)">
			<stop  offset="0" style="stop-color:#81693C"/>
			<stop  offset="0.4847" style="stop-color:#DFAA76"/>
			<stop  offset="1" style="stop-color:#81693C"/>
		</linearGradient>
		<path fill="url(#SVGID_46_)" d="M81.876,73.229c0,0-3.776-0.913-2.939,1.993c0.412,1.431,3.395,2.851,5.028,3.864
			c1.434,0.888-1.269,2.215-1.634,3.353c-0.332,1.036-3.745,0.131-1.163,2.755c3.002,3.049,11.305,3.884,17.986,3.951
			c12.265,0.123,20.858-1.971,22.683-4.91c1.196-1.928,0.521-2.458-0.019-2.754c-2.17-1.192-3.678-2.695,0.465-4.789
			c2.648-1.34,3.232-4.201,0-3.598c-3.233,0.604-21.947,5.355-39.952,0.765"/>
		
			<linearGradient id="SVGID_47_" gradientUnits="userSpaceOnUse" x1="274.3721" y1="1345.4473" x2="310.6747" y2="1226.729" gradientTransform="matrix(1 0 0 1 -200 -1182)">
			<stop  offset="0" style="stop-color:#FFFFFF"/>
			<stop  offset="0.0896" style="stop-color:#FFFFFF;stop-opacity:0.9104"/>
			<stop  offset="1" style="stop-color:#FFFFFF;stop-opacity:0"/>
		</linearGradient>
		<path fill="url(#SVGID_47_)" d="M80.694,62.405c0,0-8.038,1.641-5.41,7.547c2.624,5.907,6.057,8.643,19.85,9.846
			c20.675,1.806,24.445-1.121,32.418-3.94c4.988-1.765,5.697-7.361-0.538-10.314c-6.234-2.953-11.437-3.068-7.365-2.025
			c4.582,1.173,11.965,3.932,4.809,8.861c-7.033,4.842-17.984,4.766-30.305,3.48C78.4,74.219,78.24,70.939,79.554,67.655
			c1.312-3.282,0.486-4.595,3.109-4.595S83.319,62.732,80.694,62.405z"/>
		
			<linearGradient id="SVGID_48_" gradientUnits="userSpaceOnUse" x1="263.7012" y1="1296.7617" x2="284.1102" y2="1307.1667" gradientTransform="matrix(1 0 0 1 -200 -1182)">
			<stop  offset="0" style="stop-color:#FFFFFF"/>
			<stop  offset="0.0896" style="stop-color:#FFFFFF;stop-opacity:0.9104"/>
			<stop  offset="1" style="stop-color:#FFFFFF;stop-opacity:0"/>
		</linearGradient>
		<path opacity="0.3" fill="url(#SVGID_48_)" enable-background="new    " d="M80.862,74.218c0,0-5.578-1.968-3.938,3.284
			c1.641,5.25,0.488,13.782-10.016,26.581c-10.501,12.8-27.238,35.115-20.676,50.211c6.562,15.097,47.259,27.238,49.553,0.656
			c2.302-26.583,2.631-55.462,0.991-65.308c-1.643-9.845,0.153-13.42-5.507-13.598C85.315,75.857,84.145,75.53,80.862,74.218z"/>
		
			<linearGradient id="SVGID_49_" gradientUnits="userSpaceOnUse" x1="-184.9868" y1="1508.084" x2="-177.3315" y2="1486.152" gradientTransform="matrix(0.9465 -0.3227 0.3227 0.9465 -198.8735 -1403.3585)">
			<stop  offset="0" style="stop-color:#FFFFFF"/>
			<stop  offset="0.0896" style="stop-color:#FFFFFF;stop-opacity:0.9104"/>
			<stop  offset="1" style="stop-color:#FFFFFF;stop-opacity:0"/>
		</linearGradient>
		<path opacity="0.44" fill="url(#SVGID_49_)" enable-background="new    " d="M101.475,77.258c0,0-3.666,0.854,0.979,2.235
			c2.688,0.797,9.467,1.31,16.941-0.043c1.646-0.298,2.621-5.084,6.002-4.912C123.043,74.414,109.193,77.456,101.475,77.258z"/>
		
			<radialGradient id="SVGID_50_" cx="310.5586" cy="1374.0352" r="138.4858" gradientTransform="matrix(1 0 0 1 -200 -1182)" gradientUnits="userSpaceOnUse">
			<stop  offset="0" style="stop-color:#130C0E;stop-opacity:0"/>
			<stop  offset="0.9385" style="stop-color:#130C0E;stop-opacity:0.6112"/>
			<stop  offset="1" style="stop-color:#130C0E;stop-opacity:0.6512"/>
		</radialGradient>
		<path opacity="0.44" fill="url(#SVGID_50_)" enable-background="new    " d="M122.37,83.736c0,0-2.952,4.923-0.325,11.485
			c2.623,6.564,28.879,43.647,30.189,54.806c1.312,11.156-0.655,19.361-16.409,20.675c-15.751,1.313-20.675-14.111-23.3-42.009
			c-2.625-27.896-7.219-40.034-2.953-43.316C113.84,82.095,120.73,83.079,122.37,83.736z"/>
		
			<radialGradient id="SVGID_51_" cx="344.9932" cy="1437.5674" r="168.0631" gradientTransform="matrix(1.0315 0.0359 -0.0276 0.9685 -235.944 -1223.3713)" gradientUnits="userSpaceOnUse">
			<stop  offset="0" style="stop-color:#130C0E;stop-opacity:0"/>
			<stop  offset="0.9385" style="stop-color:#130C0E;stop-opacity:0.6112"/>
			<stop  offset="1" style="stop-color:#130C0E;stop-opacity:0.6512"/>
		</radialGradient>
		<path fill="url(#SVGID_51_)" d="M61.873,159.87c0,0,0.743-10.154,8.374-24.313c7.632-14.156,14.304-26.228,16.408-36.76
			c2.112-10.531,2.245-15.195-1.81-15.759c-4.047-0.564-3.182,0.738-4.706,6.623c-1.523,5.889-16.288,32.521-21.114,43.385
			C54.196,143.907,43.064,154.126,61.873,159.87z"/>
	</g>
</g>
</svg>
