<?xml version="1.0" encoding="utf-8"?>
<!-- Generator: Adobe Illustrator 15.0.0, SVG Export Plug-In . SVG Version: 6.00 Build 0)  -->
<!DOCTYPE svg PUBLIC "-//W3C//DTD SVG 1.1//EN" "http://www.w3.org/Graphics/SVG/1.1/DTD/svg11.dtd">
<svg version="1.1" id="Layer_1" xmlns="http://www.w3.org/2000/svg" xmlns:xlink="http://www.w3.org/1999/xlink" x="0px" y="0px"
	 width="200px" height="200px" viewBox="0 0 200 200" enable-background="new 0 0 200 200" xml:space="preserve">
<g id="icon">
	<g id="Layer_2">
	</g>
	<g id="Layer_1_1_">
		<g>
			<g>
				
					<radialGradient id="SVGID_1_" cx="275.0898" cy="1325.4746" r="34.0161" gradientTransform="matrix(1 0 0 1 -200 -1182)" gradientUnits="userSpaceOnUse">
					<stop  offset="0.1758" style="stop-color:#C0FFFF"/>
					<stop  offset="1" style="stop-color:#007CBB;stop-opacity:0"/>
				</radialGradient>
				<circle fill="url(#SVGID_1_)" cx="75.09" cy="143.475" r="34.016"/>
				
					<radialGradient id="SVGID_2_" cx="258.3027" cy="1298.7207" r="23.3145" gradientTransform="matrix(1 0 0 1 -200 -1182)" gradientUnits="userSpaceOnUse">
					<stop  offset="0.1758" style="stop-color:#C0FFFF"/>
					<stop  offset="1" style="stop-color:#007CBB;stop-opacity:0"/>
				</radialGradient>
				<circle fill="url(#SVGID_2_)" cx="58.303" cy="116.721" r="23.314"/>
				
					<radialGradient id="SVGID_3_" cx="327.4258" cy="1326.1172" r="29.2407" gradientTransform="matrix(1 0 0 1 -200 -1182)" gradientUnits="userSpaceOnUse">
					<stop  offset="0.1758" style="stop-color:#C0FFFF"/>
					<stop  offset="1" style="stop-color:#007CBB;stop-opacity:0"/>
				</radialGradient>
				<circle fill="url(#SVGID_3_)" cx="127.426" cy="144.117" r="29.241"/>
				
					<radialGradient id="SVGID_4_" cx="349.0254" cy="1268.6289" r="21.0957" gradientTransform="matrix(1 0 0 1 -200 -1182)" gradientUnits="userSpaceOnUse">
					<stop  offset="0.1758" style="stop-color:#C0FFFF"/>
					<stop  offset="1" style="stop-color:#007CBB;stop-opacity:0"/>
				</radialGradient>
				<circle fill="url(#SVGID_4_)" cx="149.025" cy="86.629" r="21.096"/>
				
					<radialGradient id="SVGID_5_" cx="327.4258" cy="1295.3955" r="25.7212" gradientTransform="matrix(1 0 0 1 -200 -1182)" gradientUnits="userSpaceOnUse">
					<stop  offset="0.1758" style="stop-color:#C0FFFF"/>
					<stop  offset="1" style="stop-color:#007CBB;stop-opacity:0"/>
				</radialGradient>
				<path fill="url(#SVGID_5_)" d="M153.146,113.398c0,14.203-11.518,25.719-25.724,25.719c-14.202,0-25.719-11.516-25.719-25.719
					c0-14.208,11.517-25.725,25.719-25.725C141.632,87.678,153.146,99.191,153.146,113.398z"/>
				
					<radialGradient id="SVGID_6_" cx="327.4258" cy="1236.124" r="15.8652" gradientTransform="matrix(1 0 0 1 -200 -1182)" gradientUnits="userSpaceOnUse">
					<stop  offset="0.1758" style="stop-color:#C0FFFF"/>
					<stop  offset="1" style="stop-color:#007CBB;stop-opacity:0"/>
				</radialGradient>
				<circle fill="url(#SVGID_6_)" cx="127.426" cy="54.124" r="15.865"/>
				
					<radialGradient id="SVGID_7_" cx="265.751" cy="1251.9893" r="15.8662" gradientTransform="matrix(1 0 0 1 -200 -1182)" gradientUnits="userSpaceOnUse">
					<stop  offset="0.1758" style="stop-color:#C0FFFF"/>
					<stop  offset="1" style="stop-color:#007CBB;stop-opacity:0"/>
				</radialGradient>
				<circle fill="url(#SVGID_7_)" cx="65.751" cy="69.989" r="15.866"/>
				
					<radialGradient id="SVGID_8_" cx="285.8398" cy="1236.9238" r="28.5288" gradientTransform="matrix(1 0 0 1 -200 -1182)" gradientUnits="userSpaceOnUse">
					<stop  offset="0.1758" style="stop-color:#C0FFFF"/>
					<stop  offset="1" style="stop-color:#007CBB;stop-opacity:0"/>
				</radialGradient>
				<circle fill="url(#SVGID_8_)" cx="85.84" cy="54.923" r="28.529"/>
				
					<radialGradient id="SVGID_9_" cx="314.3691" cy="1241.0605" r="28.5293" gradientTransform="matrix(1 0 0 1 -200 -1182)" gradientUnits="userSpaceOnUse">
					<stop  offset="0.1758" style="stop-color:#C0FFFF"/>
					<stop  offset="1" style="stop-color:#007CBB;stop-opacity:0"/>
				</radialGradient>
				<circle fill="url(#SVGID_9_)" cx="114.369" cy="59.061" r="28.529"/>
				
					<radialGradient id="SVGID_10_" cx="331.2871" cy="1255.7969" r="14.2651" gradientTransform="matrix(1 0 0 1 -200 -1182)" gradientUnits="userSpaceOnUse">
					<stop  offset="0.1758" style="stop-color:#C0FFFF"/>
					<stop  offset="1" style="stop-color:#007CBB;stop-opacity:0"/>
				</radialGradient>
				<circle fill="url(#SVGID_10_)" cx="131.287" cy="73.797" r="14.265"/>
				
					<radialGradient id="SVGID_11_" cx="309.1074" cy="1220.6406" r="10.1509" gradientTransform="matrix(1 0 0 1 -200 -1182)" gradientUnits="userSpaceOnUse">
					<stop  offset="0.1758" style="stop-color:#C0FFFF"/>
					<stop  offset="1" style="stop-color:#007CBB;stop-opacity:0"/>
				</radialGradient>
				<path fill="url(#SVGID_11_)" d="M119.258,38.643c0,5.605-4.547,10.149-10.152,10.149c-5.604,0-10.148-4.544-10.148-10.149
					c0-5.608,4.545-10.153,10.148-10.153C114.711,28.49,119.258,33.035,119.258,38.643z"/>
				
					<radialGradient id="SVGID_12_" cx="351.0176" cy="1243.6621" r="8.6016" gradientTransform="matrix(1 0 0 1 -200 -1182)" gradientUnits="userSpaceOnUse">
					<stop  offset="0.1758" style="stop-color:#C0FFFF"/>
					<stop  offset="1" style="stop-color:#007CBB;stop-opacity:0"/>
				</radialGradient>
				<circle fill="url(#SVGID_12_)" cx="151.018" cy="61.662" r="8.601"/>
				
					<radialGradient id="SVGID_13_" cx="272.458" cy="1209.4453" r="5.9678" gradientTransform="matrix(1 0 0 1 -200 -1182)" gradientUnits="userSpaceOnUse">
					<stop  offset="0.1758" style="stop-color:#C0FFFF"/>
					<stop  offset="1" style="stop-color:#007CBB;stop-opacity:0"/>
				</radialGradient>
				<circle fill="url(#SVGID_13_)" cx="72.458" cy="27.445" r="5.968"/>
				
					<radialGradient id="SVGID_14_" cx="359.6162" cy="1315.5684" r="5.9678" gradientTransform="matrix(1 0 0 1 -200 -1182)" gradientUnits="userSpaceOnUse">
					<stop  offset="0.1758" style="stop-color:#C0FFFF"/>
					<stop  offset="1" style="stop-color:#007CBB;stop-opacity:0"/>
				</radialGradient>
				<circle fill="url(#SVGID_14_)" cx="159.616" cy="133.568" r="5.968"/>
				
					<radialGradient id="SVGID_15_" cx="252.3789" cy="1290.3906" r="8.6836" gradientTransform="matrix(1 0 0 1 -200 -1182)" gradientUnits="userSpaceOnUse">
					<stop  offset="0.1758" style="stop-color:#C0FFFF"/>
					<stop  offset="1" style="stop-color:#007CBB;stop-opacity:0"/>
				</radialGradient>
				<circle fill="url(#SVGID_15_)" cx="52.379" cy="108.391" r="8.683"/>
				
					<radialGradient id="SVGID_16_" cx="274.8877" cy="1316.2227" r="11.4502" gradientTransform="matrix(1 0 0 1 -200 -1182)" gradientUnits="userSpaceOnUse">
					<stop  offset="0.1758" style="stop-color:#C0FFFF"/>
					<stop  offset="1" style="stop-color:#007CBB;stop-opacity:0"/>
				</radialGradient>
				<circle fill="url(#SVGID_16_)" cx="74.888" cy="134.223" r="11.45"/>
				
					<radialGradient id="SVGID_17_" cx="278.4277" cy="1230.5684" r="6.3091" gradientTransform="matrix(1 0 0 1 -200 -1182)" gradientUnits="userSpaceOnUse">
					<stop  offset="0.1758" style="stop-color:#C0FFFF"/>
					<stop  offset="1" style="stop-color:#007CBB;stop-opacity:0"/>
				</radialGradient>
				<circle fill="url(#SVGID_17_)" cx="78.427" cy="48.569" r="6.309"/>
				
					<radialGradient id="SVGID_18_" cx="345.5508" cy="1307.5879" r="30.0762" gradientTransform="matrix(1 0 0 1 -200 -1182)" gradientUnits="userSpaceOnUse">
					<stop  offset="0.1758" style="stop-color:#C0FFFF"/>
					<stop  offset="1" style="stop-color:#007CBB;stop-opacity:0"/>
				</radialGradient>
				<circle fill="url(#SVGID_18_)" cx="145.551" cy="125.588" r="30.076"/>
				
					<radialGradient id="SVGID_19_" cx="343.292" cy="1326.1182" r="7.1074" gradientTransform="matrix(1 0 0 1 -200 -1182)" gradientUnits="userSpaceOnUse">
					<stop  offset="0.1758" style="stop-color:#C0FFFF"/>
					<stop  offset="1" style="stop-color:#007CBB;stop-opacity:0"/>
				</radialGradient>
				<path fill="url(#SVGID_19_)" d="M150.398,144.117c0,3.926-3.183,7.109-7.107,7.109c-3.923,0-7.105-3.188-7.105-7.109
					c0-3.924,3.187-7.107,7.105-7.107C147.221,137.01,150.398,140.193,150.398,144.117z"/>
				
					<radialGradient id="SVGID_20_" cx="309.9141" cy="1340.9229" r="10.4438" gradientTransform="matrix(1 0 0 1 -200 -1182)" gradientUnits="userSpaceOnUse">
					<stop  offset="0.1758" style="stop-color:#C0FFFF"/>
					<stop  offset="1" style="stop-color:#007CBB;stop-opacity:0"/>
				</radialGradient>
				<path fill="url(#SVGID_20_)" d="M120.357,158.922c0,5.768-4.676,10.445-10.442,10.445s-10.444-4.678-10.444-10.445
					c0-5.766,4.677-10.443,10.444-10.443S120.357,153.156,120.357,158.922z"/>
			</g>
			
				<linearGradient id="SVGID_21_" gradientUnits="userSpaceOnUse" x1="-551.6084" y1="895.9277" x2="-485.7329" y2="895.9277" gradientTransform="matrix(0.7071 -0.7071 0.7071 0.7071 -159.4113 -888.9697)">
				<stop  offset="0.103" style="stop-color:#231F5E;stop-opacity:0.38"/>
				<stop  offset="0.1453" style="stop-color:#141F65;stop-opacity:0.341"/>
				<stop  offset="0.2039" style="stop-color:#091F6C;stop-opacity:0.287"/>
				<stop  offset="0.2863" style="stop-color:#021F6F;stop-opacity:0.211"/>
				<stop  offset="0.5152" style="stop-color:#001F70;stop-opacity:0"/>
			</linearGradient>
			<path fill="url(#SVGID_21_)" d="M56.248,59.411C39.173,76.488,42.584,85.879,42.584,85.879s6.797,6.953,7.547,7.566
				c0.848,0.691,2.216,1.531,4.205,1.969c2.555,0.562,3.022-1.141,5.283,0.951c1.784,1.65,2.783,16.564,12.712,26.492
				c21.056,19.68,46.543,43.15,46.543,43.15c14.508,12.994,28.595,8.146,39.958-3.221c11.37-11.365,16.217-25.451,3.217-39.961
				c0,0-23.793-25.828-43.479-46.891C107.456,64.822,94.455,64.05,92.862,62.331c-2.183-2.359-0.558-2.31-1.175-4.722
				c-0.418-1.63-1.249-2.78-1.978-3.522c-0.728-0.744-7.806-7.535-7.806-7.535S72.631,43.032,56.248,59.411z"/>
			
				<linearGradient id="SVGID_22_" gradientUnits="userSpaceOnUse" x1="-550.9751" y1="895.8135" x2="-485.1436" y2="895.8135" gradientTransform="matrix(0.7071 -0.7071 0.7071 0.7071 -159.7794 -888.4697)">
				<stop  offset="0.503" style="stop-color:#685B72;stop-opacity:0"/>
				<stop  offset="0.6176" style="stop-color:#6A5D74;stop-opacity:0.1831"/>
				<stop  offset="0.6771" style="stop-color:#71657B;stop-opacity:0.278"/>
				<stop  offset="0.7239" style="stop-color:#7E7286;stop-opacity:0.3528"/>
				<stop  offset="0.7641" style="stop-color:#8F8697;stop-opacity:0.417"/>
				<stop  offset="0.8" style="stop-color:#A69EAC;stop-opacity:0.4744"/>
				<stop  offset="0.8329" style="stop-color:#C2BDC6;stop-opacity:0.527"/>
				<stop  offset="0.8629" style="stop-color:#E2E0E4;stop-opacity:0.575"/>
				<stop  offset="0.8848" style="stop-color:#FFFFFF;stop-opacity:0.61"/>
			</linearGradient>
			<path fill="url(#SVGID_22_)" d="M56.718,58.883C38.88,76.725,42.584,85.879,42.584,85.879s6.76,7.092,7.702,7.818
				c0.756,0.58,1.923,1.223,3.683,1.652c2.42,0.594,3.534-0.943,5.65,1.016c1.875,1.736,2.93,16.682,13.123,26.875
				c21.043,19.668,46.132,42.771,46.132,42.771c14.508,12.994,28.595,8.146,39.958-3.221c11.37-11.365,16.217-25.451,3.217-39.961
				c0,0-23.344-25.348-43.02-46.4c-11.92-11.919-24.486-12.281-26.167-14.095c-1.899-2.053-0.468-2.137-1.137-4.295
				c-0.521-1.678-1.257-2.863-1.907-3.662c-0.788-0.965-7.914-7.822-7.914-7.822S72.14,43.463,56.718,58.883z"/>
			
				<linearGradient id="SVGID_23_" gradientUnits="userSpaceOnUse" x1="-512.3389" y1="913.7109" x2="-531.1544" y2="975.7328" gradientTransform="matrix(0.7071 -0.7071 0.7071 0.7071 -159.3869 -888.8018)">
				<stop  offset="0" style="stop-color:#FF78FF;stop-opacity:0"/>
				<stop  offset="0.0985" style="stop-color:#F876F9;stop-opacity:0.0679"/>
				<stop  offset="0.241" style="stop-color:#E56FE9;stop-opacity:0.1661"/>
				<stop  offset="0.4103" style="stop-color:#C565CE;stop-opacity:0.2828"/>
				<stop  offset="0.6001" style="stop-color:#9957A9;stop-opacity:0.4137"/>
				<stop  offset="0.8045" style="stop-color:#62457A;stop-opacity:0.5546"/>
				<stop  offset="0.8848" style="stop-color:#4A3D66;stop-opacity:0.61"/>
			</linearGradient>
			<path fill="url(#SVGID_23_)" d="M146.646,150.604c-11.738,11.732-26.127,16.881-40.642,3.891l12.866,11.521
				c14.508,12.992,28.595,8.146,39.958-3.223c11.37-11.365,16.217-25.451,3.217-39.961l-11.517-12.867
				C163.523,124.475,158.377,138.863,146.646,150.604z"/>
			
				<linearGradient id="SVGID_24_" gradientUnits="userSpaceOnUse" x1="1615.0938" y1="-1404.2793" x2="1601.2399" y2="-1358.6124" gradientTransform="matrix(-0.7071 0.7071 -0.2803 -0.2803 812.7288 -1461.2677)">
				<stop  offset="0" style="stop-color:#FF78FF;stop-opacity:0"/>
				<stop  offset="0.0985" style="stop-color:#F876F9;stop-opacity:0.0679"/>
				<stop  offset="0.241" style="stop-color:#E56FE9;stop-opacity:0.1661"/>
				<stop  offset="0.4103" style="stop-color:#C565CE;stop-opacity:0.2828"/>
				<stop  offset="0.6001" style="stop-color:#9957A9;stop-opacity:0.4137"/>
				<stop  offset="0.8045" style="stop-color:#62457A;stop-opacity:0.5546"/>
				<stop  offset="0.8848" style="stop-color:#4A3D66;stop-opacity:0.61"/>
			</linearGradient>
			<path fill="url(#SVGID_24_)" d="M56.802,60.774C68.907,48.671,80.061,44.46,84.068,49.011l-0.775-0.879
				c-4.008-4.552-15.184-0.316-27.318,11.817C43.841,72.083,39.611,83.256,44.16,87.27l0.877,0.773
				C40.486,84.031,44.697,72.881,56.802,60.774z"/>
			<g>
				
					<radialGradient id="SVGID_25_" cx="-518.7085" cy="922.5537" r="35.8166" gradientTransform="matrix(0.7071 -0.7071 0.7071 0.7071 -159.4259 -888.8447)" gradientUnits="userSpaceOnUse">
					<stop  offset="0" style="stop-color:#42BBFF"/>
					<stop  offset="1" style="stop-color:#0D4AC0"/>
				</radialGradient>
				<path fill="url(#SVGID_25_)" d="M114.098,117.129c-16.604,16.604-37.449,7.102-37.449,7.102l42.962,39.512
					c13.146,11.773,25.916,7.381,36.217-2.926c8.064-8.061,14.674-15.207,9.062-26.926c-1.533-3.279-11.244-15.223-13.812-18.084
					C151.082,115.807,128.454,102.771,114.098,117.129z"/>
				
					<radialGradient id="SVGID_26_" cx="296.9824" cy="1300.9502" r="69.7619" gradientTransform="matrix(1 0 0 1 -189.2114 -1181.3018)" gradientUnits="userSpaceOnUse">
					<stop  offset="0" style="stop-color:#00E9FF"/>
					<stop  offset="1" style="stop-color:#3488FF"/>
				</radialGradient>
				<path fill="url(#SVGID_26_)" d="M114.098,117.129c-16.604,16.604-37.449,7.102-37.449,7.102s24.613,21.029,51.871,16.703
					c29.682-3.711,25.127-22.266,22.562-25.127C151.082,115.807,128.454,102.771,114.098,117.129z"/>
				
					<radialGradient id="SVGID_27_" cx="308.2861" cy="1330.2031" r="46.9801" gradientTransform="matrix(1 0 0 1 -189.2114 -1181.3018)" gradientUnits="userSpaceOnUse">
					<stop  offset="0" style="stop-color:#C2FBFF"/>
					<stop  offset="1" style="stop-color:#0D7CFF;stop-opacity:0"/>
				</radialGradient>
				<path fill="url(#SVGID_27_)" d="M151.596,116.523c2.475,6.021,1.68,19.729-23.863,23.021
					c-21.879,3.433-42.104-9.469-49.206-14.627c-1.197-0.39-1.878-0.688-1.878-0.688s24.613,21.029,51.871,16.703
					C156.4,137.418,154.318,121.053,151.596,116.523z"/>
			</g>
			
				<radialGradient id="SVGID_28_" cx="627.1416" cy="-29.4297" r="16.7989" gradientTransform="matrix(0.6779 -0.6779 0.6972 0.6972 -342.2956 512.7715)" gradientUnits="userSpaceOnUse">
				<stop  offset="0" style="stop-color:#130C0E;stop-opacity:0"/>
				<stop  offset="0.9385" style="stop-color:#130C0E;stop-opacity:0.6112"/>
				<stop  offset="1" style="stop-color:#130C0E;stop-opacity:0.6512"/>
			</radialGradient>
			<path opacity="0.44" fill="url(#SVGID_28_)" enable-background="new    " d="M77.8,51.64c2.538,2.536-2.333,11.52-10.88,20.067
				c-8.546,8.544-17.531,13.417-20.068,10.88s2.335-11.522,10.881-20.068S75.263,49.103,77.8,51.64z"/>
			<g>
				
					<linearGradient id="SVGID_29_" gradientUnits="userSpaceOnUse" x1="599.1885" y1="-552.207" x2="648.7305" y2="-552.207" gradientTransform="matrix(0.6755 -0.6755 0.4748 0.4748 -102.7465 745.0452)">
					<stop  offset="0" style="stop-color:#7C5320"/>
					<stop  offset="0.5153" style="stop-color:#FAC28D"/>
					<stop  offset="1" style="stop-color:#7C5320"/>
				</linearGradient>
				<path fill="url(#SVGID_29_)" d="M77.414,55.2c1.56,1.761-3.053,9.066-10.305,16.317c-7.25,7.25-14.582,11.889-16.375,10.364
					c-1.554-1.32-1.376-1.102-21.087-13.947c2.046-2.851,30.063-30.063,33.465-33.465C63.112,34.469,75.854,53.439,77.414,55.2z"/>
				
					<linearGradient id="SVGID_30_" gradientUnits="userSpaceOnUse" x1="698.1445" y1="7.0566" x2="698.1445" y2="-19.3903" gradientTransform="matrix(0.7071 -0.7071 0.7071 0.7071 -431.9562 560.1826)">
					<stop  offset="0" style="stop-color:#7C5320"/>
					<stop  offset="1" style="stop-color:#7C5320;stop-opacity:0"/>
				</linearGradient>
				<path fill="url(#SVGID_30_)" d="M77.414,55.2c1.56,1.761-3.053,9.066-10.305,16.317c-7.25,7.25-14.582,11.889-16.375,10.364
					c-1.554-1.32-1.376-1.102-21.087-13.947c2.046-2.851,30.063-30.063,33.465-33.465C63.112,34.469,75.854,53.439,77.414,55.2z"/>
				
					<linearGradient id="SVGID_31_" gradientUnits="userSpaceOnUse" x1="697.9434" y1="-23.7871" x2="700.1517" y2="-1.4841" gradientTransform="matrix(0.7071 -0.7071 0.7071 0.7071 -431.9562 560.1826)">
					<stop  offset="0" style="stop-color:#FAC28D"/>
					<stop  offset="1" style="stop-color:#7C5320"/>
				</linearGradient>
				<path fill="url(#SVGID_31_)" d="M63.112,34.469c1.771,2.041-4.16,11.062-13.248,20.148c-9.086,9.085-18.14,15.049-20.217,13.316
					c-2.081-1.731,3.849-10.753,13.245-20.148C52.289,38.389,61.341,32.428,63.112,34.469z"/>
				
					<linearGradient id="SVGID_32_" gradientUnits="userSpaceOnUse" x1="697.9434" y1="-23.7871" x2="700.1517" y2="-1.4841" gradientTransform="matrix(0.7071 -0.7071 0.7071 0.7071 -431.9562 560.1826)">
					<stop  offset="0" style="stop-color:#FAC28D"/>
					<stop  offset="1" style="stop-color:#7C5320"/>
				</linearGradient>
				<path fill="url(#SVGID_32_)" d="M63.112,34.469c1.771,2.041-4.16,11.062-13.248,20.148c-9.086,9.085-18.14,15.049-20.217,13.316
					c-2.081-1.731,3.849-10.753,13.245-20.148C52.289,38.389,61.341,32.428,63.112,34.469z"/>
				
					<linearGradient id="SVGID_33_" gradientUnits="userSpaceOnUse" x1="697.6846" y1="-19.7095" x2="703.7468" y2="-45.9785" gradientTransform="matrix(0.7071 -0.7071 0.7071 0.7071 -431.9562 560.1826)">
					<stop  offset="0" style="stop-color:#FAC28D"/>
					<stop  offset="1" style="stop-color:#7C5320"/>
				</linearGradient>
				<path fill="url(#SVGID_33_)" d="M48.673,53.449c-7.707,7.707-15.312,13.329-19.118,14.388c0.03,0.032,0.057,0.068,0.093,0.098
					c2.077,1.732,11.131-4.231,20.217-13.316c9.088-9.088,15.019-18.107,13.248-20.148c-0.03-0.035-0.067-0.06-0.1-0.091
					C61.982,38.156,56.381,45.742,48.673,53.449z"/>
			</g>
			
				<linearGradient id="SVGID_34_" gradientUnits="userSpaceOnUse" x1="676.3018" y1="17.0068" x2="721.1006" y2="17.0068" gradientTransform="matrix(0.7071 -0.7071 0.7071 0.7071 -431.9562 560.1826)">
				<stop  offset="0" style="stop-color:#81693C"/>
				<stop  offset="0.4847" style="stop-color:#DFAA76"/>
				<stop  offset="1" style="stop-color:#81693C"/>
			</linearGradient>
			<path fill="url(#SVGID_34_)" d="M51.709,85.039c0,0,1.005,4.375,3.852,5.947c1.402,0.773,3.598,0.809,5.608,0.336
				c1.765-0.414,1.211,1.727,1.799,2.869c0.535,1.041,1.459,2.918,3.382,2.586c4.536-0.781,8.886-4.326,14.019-9.355
				c9.419-9.232,14.386-15.639,13.538-19.262c-0.556-2.375-2.309-3.109-2.943-2.926c-2.557,0.743-4.465,0.76-3.747-4.179
				c0.529-3.639-6.115-4.321-6.115-4.321c-3.987,8.795-11.607,18.881-27.751,27.309"/>
			
				<linearGradient id="SVGID_35_" gradientUnits="userSpaceOnUse" x1="-515.04" y1="1713.8633" x2="-529.1136" y2="1760.2543" gradientTransform="matrix(0.7071 -0.7071 0.2803 0.2803 -54.7317 -784.1425)">
				<stop  offset="0" style="stop-color:#FF78FF;stop-opacity:0"/>
				<stop  offset="0.0985" style="stop-color:#F876F9;stop-opacity:0.0679"/>
				<stop  offset="0.241" style="stop-color:#E56FE9;stop-opacity:0.1661"/>
				<stop  offset="0.4103" style="stop-color:#C565CE;stop-opacity:0.2828"/>
				<stop  offset="0.6001" style="stop-color:#9957A9;stop-opacity:0.4137"/>
				<stop  offset="0.8045" style="stop-color:#62457A;stop-opacity:0.5546"/>
				<stop  offset="0.8848" style="stop-color:#4A3D66;stop-opacity:0.61"/>
			</linearGradient>
			<path fill="url(#SVGID_35_)" d="M69.126,73.998c-11.659,11.66-22.893,15.951-27.448,11.945l1.085,0.955
				c4.557,4.004,15.76-0.26,27.383-11.885C81.77,63.39,86.025,52.195,82.006,47.652l-0.951-1.081
				C85.068,51.114,80.786,62.336,69.126,73.998z"/>
			
				<linearGradient id="SVGID_36_" gradientUnits="userSpaceOnUse" x1="-515.1787" y1="1738.6875" x2="-528.8008" y2="1783.5903" gradientTransform="matrix(0.7071 -0.7071 0.2803 0.2803 -54.7317 -784.1425)">
				<stop  offset="0" style="stop-color:#FF78FF;stop-opacity:0"/>
				<stop  offset="0.0985" style="stop-color:#F876F9;stop-opacity:0.0679"/>
				<stop  offset="0.241" style="stop-color:#E56FE9;stop-opacity:0.1661"/>
				<stop  offset="0.4103" style="stop-color:#C565CE;stop-opacity:0.2828"/>
				<stop  offset="0.6001" style="stop-color:#9957A9;stop-opacity:0.4137"/>
				<stop  offset="0.8045" style="stop-color:#62457A;stop-opacity:0.5546"/>
				<stop  offset="0.8848" style="stop-color:#4A3D66;stop-opacity:0.61"/>
			</linearGradient>
			<path fill="url(#SVGID_36_)" d="M75.738,80.611C64.454,91.898,53.58,96.055,49.169,92.178l1.052,0.924
				c4.412,3.875,15.254-0.252,26.508-11.504C87.98,70.346,92.1,59.507,88.209,55.111l-0.922-1.047
				C91.172,58.461,87.026,69.325,75.738,80.611z"/>
			
				<linearGradient id="SVGID_37_" gradientUnits="userSpaceOnUse" x1="-619.3872" y1="900.3359" x2="-576.6309" y2="900.3359" gradientTransform="matrix(0.7071 -0.7071 0.7071 0.7071 -159.8752 -888.3389)">
				<stop  offset="0" style="stop-color:#231F20;stop-opacity:0"/>
				<stop  offset="0.3431" style="stop-color:#252122;stop-opacity:0.1453"/>
				<stop  offset="0.4667" style="stop-color:#2C2829;stop-opacity:0.1977"/>
				<stop  offset="0.5548" style="stop-color:#373334;stop-opacity:0.235"/>
				<stop  offset="0.626" style="stop-color:#484445;stop-opacity:0.2652"/>
				<stop  offset="0.6871" style="stop-color:#5D5A5B;stop-opacity:0.2911"/>
				<stop  offset="0.7411" style="stop-color:#787676;stop-opacity:0.314"/>
				<stop  offset="0.79" style="stop-color:#989697;stop-opacity:0.3347"/>
				<stop  offset="0.8349" style="stop-color:#BDBCBC;stop-opacity:0.3537"/>
				<stop  offset="0.8749" style="stop-color:#E5E5E5;stop-opacity:0.3707"/>
				<stop  offset="0.897" style="stop-color:#FFFFFF;stop-opacity:0.38"/>
			</linearGradient>
			<path opacity="0.56" fill="url(#SVGID_37_)" enable-background="new    " d="M83.191,51.388c0,0,2.926,1.962,5.086,5.495
				c2.558,4.181,0.629,6.148,2.686,8.351c1.729,1.854,15.193,1.952,27.441,14.2c18.636,19.791,42.055,44.99,42.055,44.99
				c12.066,13.363,7.098,25.967-3.465,36.529c-10.561,10.561-23.162,15.533-36.527,3.465c0,0-25.47-23.674-45.252-42.299
				c-9.475-9.477-12.062-25.604-13.861-27.285c-2.285-2.133-4.612-0.416-8.876-3.01c-3.315-2.018-5.06-4.658-5.06-4.658
				s9.64-0.012,22.929-13.302C84.852,59.36,83.166,51.352,83.166,51.352L83.191,51.388z M81.906,46.555
				c0,0,1.815,11.042-13.065,25.927C52.748,88.576,42.584,85.879,42.584,85.879s5.966,6.352,7.098,7.148
				c0.756,0.531,1.859,1.09,3.434,1.471c2.42,0.584,4.29-0.182,6.504,1.867c1.824,1.689,2.806,16.541,13.402,27.137
				c21.033,19.658,45.853,42.51,45.853,42.51c14.508,12.994,28.596,8.146,39.958-3.221c11.37-11.365,16.217-25.451,3.217-39.961
				c0,0-22.241-24.168-41.862-45.162C106.271,63.754,94.252,65.4,92.395,63.394c-2.087-2.257-1.071-4.649-1.627-7.109
				c-0.282-1.245-0.724-2.114-1.193-2.724C88.604,52.303,81.906,46.555,81.906,46.555L81.906,46.555z"/>
			
				<linearGradient id="SVGID_38_" gradientUnits="userSpaceOnUse" x1="-516.001" y1="899.6504" x2="-538.1051" y2="899.6504" gradientTransform="matrix(0.7071 -0.7071 0.7071 0.7071 -159.4455 -888.7393)">
				<stop  offset="0" style="stop-color:#FFFFFF;stop-opacity:0"/>
				<stop  offset="0.8485" style="stop-color:#FFFFFF;stop-opacity:0.38"/>
			</linearGradient>
			<path fill="url(#SVGID_38_)" d="M154.1,155.752c-0.119-1.512-2.07-2.701-3.834-2.891c-8.104-0.844-11.172,0.848-19.422-7.182
				c0,0-19.387-19.152-37.359-36.904c-4.165-4.117-11.071-15.594-14.824-19.311c-3.816-3.773-7.357-2.641-9.602-4.852
				c-3.771-3.713-5.602-6.635-5.602-6.635s-2.08,1.635-4.83,3.416c-3.398,2.232-6.894,3.707-6.894,3.707s2.6,2.496,6.677,6.412
				c2.398,2.301,4.436-2.084,7.631,0.98c3.16,3.035,11.742,20.858,16.184,25.147c18.85,18.19,39.003,37.646,39.003,37.646
				c11.896,11.021,20.438,8.687,30.391,4.2C152.529,159.082,154.221,157.256,154.1,155.752z"/>
			
				<radialGradient id="SVGID_39_" cx="1258.1406" cy="-302.332" r="215.3005" gradientTransform="matrix(0.3988 -0.9519 0.896 0.3688 -26.0356 1429.6063)" gradientUnits="userSpaceOnUse">
				<stop  offset="0" style="stop-color:#130C0E;stop-opacity:0"/>
				<stop  offset="0.9385" style="stop-color:#130C0E;stop-opacity:0.6112"/>
				<stop  offset="1" style="stop-color:#130C0E;stop-opacity:0.6512"/>
			</radialGradient>
			<path fill="url(#SVGID_39_)" d="M167.343,138.016c0,0-29.381-32.375-37.829-41.725c-11.805-13.064-20.928-19.816-28.059-24.279
				c-7.13-4.47-10.511-5.861-12.047-3.047c-1.539,2.809-0.343,2.534,3.545,5.286c3.893,2.749,24.801,22.397,31.42,28.946
				C130.992,109.75,168.893,158.861,167.343,138.016z"/>
			<g>
				<g>
					
						<radialGradient id="SVGID_40_" cx="351.9414" cy="1339.0811" r="2.4039" gradientTransform="matrix(1 0 0 1 -200 -1182)" gradientUnits="userSpaceOnUse">
						<stop  offset="0.3681" style="stop-color:#13A7AE;stop-opacity:0"/>
						<stop  offset="0.5236" style="stop-color:#0FB4BD;stop-opacity:0.2337"/>
						<stop  offset="0.8218" style="stop-color:#06D5E4;stop-opacity:0.6821"/>
						<stop  offset="1" style="stop-color:#00EBFF;stop-opacity:0.95"/>
					</radialGradient>
					<circle fill="url(#SVGID_40_)" cx="151.941" cy="156.775" r="2.801"/>
				</g>
				<g>
					
						<radialGradient id="SVGID_41_" cx="354.7422" cy="1319.2061" r="2.4039" gradientTransform="matrix(1 0 0 1 -200 -1182)" gradientUnits="userSpaceOnUse">
						<stop  offset="0.3681" style="stop-color:#13A7AE;stop-opacity:0"/>
						<stop  offset="0.5236" style="stop-color:#0FB4BD;stop-opacity:0.2337"/>
						<stop  offset="0.8218" style="stop-color:#06D5E4;stop-opacity:0.6821"/>
						<stop  offset="1" style="stop-color:#00EBFF;stop-opacity:0.95"/>
					</radialGradient>
					<circle fill="url(#SVGID_41_)" cx="154.742" cy="136.9" r="2.801"/>
				</g>
				<g>
					
						<radialGradient id="SVGID_42_" cx="341.1172" cy="1344.2979" r="1.5414" gradientTransform="matrix(1 0 0 1 -200 -1182)" gradientUnits="userSpaceOnUse">
						<stop  offset="0.3681" style="stop-color:#13A7AE;stop-opacity:0"/>
						<stop  offset="0.5236" style="stop-color:#0FB4BD;stop-opacity:0.2337"/>
						<stop  offset="0.8218" style="stop-color:#06D5E4;stop-opacity:0.6821"/>
						<stop  offset="1" style="stop-color:#00EBFF;stop-opacity:0.95"/>
					</radialGradient>
					<circle fill="url(#SVGID_42_)" cx="141.117" cy="162.103" r="1.796"/>
				</g>
				<g>
					
						<radialGradient id="SVGID_43_" cx="311.4482" cy="1326.2852" r="1.3169" gradientTransform="matrix(1 0 0 1 -200 -1182)" gradientUnits="userSpaceOnUse">
						<stop  offset="0.3681" style="stop-color:#13A7AE;stop-opacity:0"/>
						<stop  offset="0.5236" style="stop-color:#0FB4BD;stop-opacity:0.2337"/>
						<stop  offset="0.8218" style="stop-color:#06D5E4;stop-opacity:0.6821"/>
						<stop  offset="1" style="stop-color:#00EBFF;stop-opacity:0.95"/>
					</radialGradient>
					<circle fill="url(#SVGID_43_)" cx="111.448" cy="144.119" r="1.534"/>
				</g>
				<g>
					
						<radialGradient id="SVGID_44_" cx="337.916" cy="1329.376" r="1.3167" gradientTransform="matrix(1 0 0 1 -200 -1182)" gradientUnits="userSpaceOnUse">
						<stop  offset="0.3681" style="stop-color:#13A7AE;stop-opacity:0"/>
						<stop  offset="0.5236" style="stop-color:#0FB4BD;stop-opacity:0.2337"/>
						<stop  offset="0.8218" style="stop-color:#06D5E4;stop-opacity:0.6821"/>
						<stop  offset="1" style="stop-color:#00EBFF;stop-opacity:0.95"/>
					</radialGradient>
					<circle fill="url(#SVGID_44_)" cx="137.916" cy="147.209" r="1.534"/>
				</g>
				<g>
					
						<radialGradient id="SVGID_45_" cx="341.1172" cy="1325.6436" r="1.3163" gradientTransform="matrix(1 0 0 1 -200 -1182)" gradientUnits="userSpaceOnUse">
						<stop  offset="0.3681" style="stop-color:#13A7AE;stop-opacity:0"/>
						<stop  offset="0.5236" style="stop-color:#0FB4BD;stop-opacity:0.2337"/>
						<stop  offset="0.8218" style="stop-color:#06D5E4;stop-opacity:0.6821"/>
						<stop  offset="1" style="stop-color:#00EBFF;stop-opacity:0.95"/>
					</radialGradient>
					<circle fill="url(#SVGID_45_)" cx="141.117" cy="143.473" r="1.534"/>
				</g>
				<g>
					
						<radialGradient id="SVGID_46_" cx="325.9795" cy="1327.4648" r="2.8193" gradientTransform="matrix(1 0 0 1 -200 -1182)" gradientUnits="userSpaceOnUse">
						<stop  offset="0.3681" style="stop-color:#13A7AE;stop-opacity:0"/>
						<stop  offset="0.5236" style="stop-color:#0FB4BD;stop-opacity:0.2337"/>
						<stop  offset="0.8218" style="stop-color:#06D5E4;stop-opacity:0.6821"/>
						<stop  offset="1" style="stop-color:#00EBFF;stop-opacity:0.95"/>
					</radialGradient>
					<circle fill="url(#SVGID_46_)" cx="125.98" cy="145.104" r="3.284"/>
				</g>
			</g>
		</g>
	</g>
</g>
</svg>
