<?xml version="1.0" encoding="utf-8"?>
<!-- Generator: Adobe Illustrator 15.0.0, SVG Export Plug-In . SVG Version: 6.00 Build 0)  -->
<!DOCTYPE svg PUBLIC "-//W3C//DTD SVG 1.1//EN" "http://www.w3.org/Graphics/SVG/1.1/DTD/svg11.dtd">
<svg version="1.1" id="Layer_1" xmlns="http://www.w3.org/2000/svg" xmlns:xlink="http://www.w3.org/1999/xlink" x="0px" y="0px"
	 width="200px" height="200px" viewBox="0 0 200 200" enable-background="new 0 0 200 200" xml:space="preserve">
<g id="icon">
	<g id="Layer_2">
	</g>
	<g id="Layer_1_1_">
		<g>
			<g>
				<g>
					
						<radialGradient id="SVGID_1_" cx="-496.5088" cy="-896.5435" r="81.1556" gradientTransform="matrix(-1 0 0 -0.7803 -384.1172 -583.3542)" gradientUnits="userSpaceOnUse">
						<stop  offset="0" style="stop-color:#626EBD"/>
						<stop  offset="1" style="stop-color:#10233B"/>
					</radialGradient>
					<path fill="url(#SVGID_1_)" d="M45.405,84.167c-14.079,10.927-24.406,24.405-24.406,41.08c0,18.28,12.964,35.06,29.503,46.13
						c13.626,9.122,32.112,13.438,51.52,13.438c22.06,0,38.737-7.934,52.896-19.381c13.416-10.85,24.087-23.154,24.087-39.379
						c0-18.42-10.787-31.987-28.188-43.561c-13.537-9.005-31.176-17.624-50.408-17.624C78.925,64.871,59.481,73.245,45.405,84.167z"
						/>
					
						<radialGradient id="SVGID_2_" cx="284.1406" cy="-690.2383" r="102.7593" gradientTransform="matrix(1 0 0 -1 -150 -530)" gradientUnits="userSpaceOnUse">
						<stop  offset="0.444" style="stop-color:#626EBD"/>
						<stop  offset="0.5276" style="stop-color:#626EBD"/>
						<stop  offset="1" style="stop-color:#1D2F46"/>
					</radialGradient>
					<path fill="url(#SVGID_2_)" d="M45.405,82.551c-14.079,10.927-24.406,24.405-24.406,41.08c0,18.282,12.964,35.059,29.503,46.13
						c13.626,9.123,32.112,13.438,51.52,13.438c22.06,0,38.737-7.936,52.896-19.383c13.416-10.851,24.087-23.153,24.087-39.377
						c0-18.42-10.787-31.986-28.188-43.562c-13.537-9.006-31.176-17.625-50.408-17.625C78.925,63.255,59.481,71.627,45.405,82.551z"
						/>
					
						<radialGradient id="SVGID_3_" cx="-535.6855" cy="-746.6694" r="80.258" gradientTransform="matrix(-1 0 0 -1 -384.1719 -530)" gradientUnits="userSpaceOnUse">
						<stop  offset="0.5276" style="stop-color:#626EBD"/>
						<stop  offset="1" style="stop-color:#1D2F46"/>
					</radialGradient>
					<path fill="url(#SVGID_3_)" d="M50.502,166.645c13.626,9.123,32.112,13.438,51.52,13.438c22.06,0,38.737-7.935,52.896-19.38
						c13.008-10.52,23.435-22.408,24.058-37.908c0.02,0.544,0.029,1.094,0.029,1.646c0,16.224-10.671,28.529-24.087,39.377
						c-14.153,11.447-30.836,19.383-52.896,19.383c-19.408,0-37.894-4.315-51.52-13.438c-16.539-11.072-29.503-27.851-29.503-46.133
						c0-0.54,0.013-1.074,0.034-1.607C21.721,139.717,34.42,155.878,50.502,166.645z"/>
					
						<radialGradient id="SVGID_4_" cx="-481.9565" cy="-580.3232" r="17.2444" gradientTransform="matrix(-1 0 0 -1 -384.1719 -530)" gradientUnits="userSpaceOnUse">
						<stop  offset="0.5276" style="stop-color:#446EA3"/>
						<stop  offset="1" style="stop-color:#1D2F46"/>
					</radialGradient>
					<path fill="url(#SVGID_4_)" d="M51.58,63.369c-2.151,7.624,8.621,2.659,25.59,0.451l3.092-8.23
						C72.925,37.55,54.764,52.079,51.58,63.369z"/>
					
						<radialGradient id="SVGID_5_" cx="1039.457" cy="-767.1426" r="82.9708" gradientTransform="matrix(0.0351 0.9994 -0.5736 0.0201 -376.095 -919.0133)" gradientUnits="userSpaceOnUse">
						<stop  offset="0.5276" style="stop-color:#626EBD"/>
						<stop  offset="0.8712" style="stop-color:#1D2F46"/>
						<stop  offset="0.9877" style="stop-color:#0A172D"/>
					</radialGradient>
					<path fill="url(#SVGID_5_)" d="M56.538,118.954c0,18.804,19.638,34.048,43.866,34.048c24.227,0,43.866-15.244,43.866-34.048
						c0-7.841-3.414-27.182-9.148-47.072c-1.617-5.605-11.812-9.409-13.771-14.856c0,0,6.44-7.106,5.414-9.637
						c-7.339-18.041-18.25-23.046-28.143-23.046C74.392,24.343,56.538,100.15,56.538,118.954z"/>
					
						<radialGradient id="SVGID_6_" cx="736.5293" cy="-632.3584" r="43.4142" gradientTransform="matrix(-0.3681 0.9298 -0.8877 -0.3514 -197.6534 -860.2603)" gradientUnits="userSpaceOnUse">
						<stop  offset="0.5276" style="stop-color:#626EBD"/>
						<stop  offset="1" style="stop-color:#1D2F46"/>
					</radialGradient>
					<path fill="url(#SVGID_6_)" d="M51.58,63.369c0,6.931,40.008-28.146,43.153-17.534c0.304,1.022-14.021,14.359-14.471,16.311
						c-0.217,0.94,10.817-8.327,24.921-12.322l21.573-2.435c-7.337-18.041-21.506-32.204-31.398-32.204
						C87.592,15.186,51.58,63.369,51.58,63.369z"/>
					
						<radialGradient id="SVGID_7_" cx="-651.4648" cy="-603.2793" r="36.2637" gradientTransform="matrix(-0.7065 0 0 -1 -336.3617 -530)" gradientUnits="userSpaceOnUse">
						<stop  offset="0" style="stop-color:#3F54A2"/>
						<stop  offset="1" style="stop-color:#1D2F46"/>
					</radialGradient>
					<polygon fill="url(#SVGID_7_)" points="132.178,70.495 131.468,82.042 123.4,86.937 112.896,90.046 102.201,94.442 
						95.361,98.361 107.15,98.22 116.002,95.461 125.048,94.164 134.741,87.155 					"/>
					<g>
						
							<radialGradient id="SVGID_8_" cx="-485.9531" cy="-591.5586" r="28.5616" gradientTransform="matrix(-1 0 0 -1 -384.1719 -530)" gradientUnits="userSpaceOnUse">
							<stop  offset="0" style="stop-color:#3F54A2"/>
							<stop  offset="1" style="stop-color:#1D2F46"/>
						</radialGradient>
						<polygon fill="url(#SVGID_8_)" points="64.909,76.638 68.864,59.939 71.623,54.857 95.361,36.465 85.601,52.298 84.98,53.974 
							82.048,56.352 81.955,56.352 74.81,60.678 71.013,77.335 111.818,72.116 110.303,75.135 64.653,90.004 60.43,92.914 						"/>
					</g>
					
						<radialGradient id="SVGID_9_" cx="-481.0166" cy="-623.0078" r="19.6299" gradientTransform="matrix(-1 0 0 -1 -384.1719 -530)" gradientUnits="userSpaceOnUse">
						<stop  offset="0" style="stop-color:#3F54A2"/>
						<stop  offset="1" style="stop-color:#1D2F46"/>
					</radialGradient>
					<path fill="url(#SVGID_9_)" d="M62.488,97.332c0,0,4.715-3.772,8.083-3.772c3.366,0,13.264-2.742,13.264-2.742l21.347-5.473
						l-1.886,1.211l-30.168,9.832l-9.966,6.195L62.488,97.332z"/>
					
						<radialGradient id="SVGID_10_" cx="-474.3838" cy="-134.0874" r="25.6224" gradientTransform="matrix(-1.0611 0 0 -2.5023 -391.2432 -199.2172)" gradientUnits="userSpaceOnUse">
						<stop  offset="0.5276" style="stop-color:#7E494C"/>
						<stop  offset="1" style="stop-color:#422327"/>
					</radialGradient>
					<path fill="url(#SVGID_10_)" d="M57.211,98.943c2.393,16.012,20.665,26.991,43.193,26.991s39.811-12.461,42.206-28.472
						c1.99,9.418,4.345,17.19,4.345,21.493c0,18.804-20.841,34.048-46.547,34.048c-25.708,0-46.547-15.244-46.547-34.048
						C53.856,114.65,55.221,108.361,57.211,98.943z"/>
					
						<radialGradient id="SVGID_11_" cx="-369.3218" cy="-148.8369" r="30.0499" gradientTransform="matrix(-0.9907 0.1358 -0.3397 -2.4791 -305.234 -197.9297)" gradientUnits="userSpaceOnUse">
						<stop  offset="0.2454" style="stop-color:#946849"/>
						<stop  offset="0.5276" style="stop-color:#7E494C"/>
						<stop  offset="1" style="stop-color:#603639"/>
					</radialGradient>
					<path fill="url(#SVGID_11_)" d="M100.404,128.084c-22.158,0-39.741-11.066-43.866-25.759c0.833-6.466,2.958-7.14,2.958-7.14
						c-0.375,3.323-0.39,7.479,0.792,9.989c5.683,12.075,21.467,20.758,40.117,20.758c18.777,0,33.853-8.656,39.471-20.809
						c1.122-2.43,1.325-6.123,1.144-9.371c1.396,0,2.146,2.531,2.146,6.167C139.796,117.947,122.561,128.084,100.404,128.084z"/>
					<g>
						<path opacity="0.13" enable-background="new    " d="M113.34,151.852l-3.752-19.67c-0.421-2.207,0.67-4.602,2.539-5.57
							l22.32-11.557c0.57-0.296,1.171-0.443,1.785-0.443c1.851,0,3.408,1.389,3.785,3.371l3.752,19.668
							c0.422,2.209-0.668,4.604-2.541,5.572l-22.318,11.557c-0.57,0.297-1.172,0.445-1.784,0.445
							C115.275,155.225,113.719,153.837,113.34,151.852z M139.006,138.561l-3.543-18.569l-20.003,10.354
							c-0.058,0.091-1.065,1.003-0.801,2.552l3.233,16.949l21.021-10.886C138.975,138.87,139.029,138.682,139.006,138.561z"/>
						<path opacity="0.13" enable-background="new    " d="M112.802,150.908l-3.754-19.67c-0.421-2.208,0.673-4.604,2.54-5.569
							l22.322-11.56c0.568-0.293,1.168-0.443,1.783-0.443c1.851,0,3.406,1.389,3.785,3.373l3.75,19.669
							c0.424,2.208-0.666,4.604-2.537,5.571l-22.321,11.558c-0.569,0.295-1.169,0.444-1.784,0.444
							C114.736,154.281,113.18,152.895,112.802,150.908z M138.468,137.617l-3.543-18.572L114.922,129.4
							c-0.059,0.092-1.068,1.002-0.802,2.552l3.233,16.95l21.022-10.887C138.436,137.928,138.492,137.739,138.468,137.617z"/>
						
							<linearGradient id="SVGID_12_" gradientUnits="userSpaceOnUse" x1="282.6504" y1="-652.5049" x2="270.4362" y2="-678.8087" gradientTransform="matrix(1 0 0 -1 -150 -530)">
							<stop  offset="0" style="stop-color:#FA941E"/>
							<stop  offset="0.0798" style="stop-color:#FFE300"/>
							<stop  offset="0.0806" style="stop-color:#FFE60D"/>
							<stop  offset="0.0832" style="stop-color:#FFED2C"/>
							<stop  offset="0.0861" style="stop-color:#FFF248"/>
							<stop  offset="0.0893" style="stop-color:#FFF75E"/>
							<stop  offset="0.0931" style="stop-color:#FFFB6F"/>
							<stop  offset="0.0978" style="stop-color:#FFFD7A"/>
							<stop  offset="0.1044" style="stop-color:#FFFF81"/>
							<stop  offset="0.1227" style="stop-color:#FFFF83"/>
							<stop  offset="0.1358" style="stop-color:#FFFF81"/>
							<stop  offset="0.1405" style="stop-color:#FFFD7A"/>
							<stop  offset="0.1438" style="stop-color:#FFFB6F"/>
							<stop  offset="0.1465" style="stop-color:#FFF75E"/>
							<stop  offset="0.1489" style="stop-color:#FFF248"/>
							<stop  offset="0.1509" style="stop-color:#FFED2C"/>
							<stop  offset="0.1527" style="stop-color:#FFE60D"/>
							<stop  offset="0.1534" style="stop-color:#FFE300"/>
							<stop  offset="0.5215" style="stop-color:#FFE300"/>
							<stop  offset="0.5251" style="stop-color:#FFE60C"/>
							<stop  offset="0.535" style="stop-color:#FFEB27"/>
							<stop  offset="0.5463" style="stop-color:#FFF03D"/>
							<stop  offset="0.5595" style="stop-color:#FFF44E"/>
							<stop  offset="0.5759" style="stop-color:#FFF659"/>
							<stop  offset="0.5989" style="stop-color:#FFF860"/>
							<stop  offset="0.6626" style="stop-color:#FFF862"/>
							<stop  offset="0.6872" style="stop-color:#FFF75F"/>
							<stop  offset="0.7033" style="stop-color:#FFF657"/>
							<stop  offset="0.717" style="stop-color:#FFF248"/>
							<stop  offset="0.7294" style="stop-color:#FFEE32"/>
							<stop  offset="0.7407" style="stop-color:#FFE817"/>
							<stop  offset="0.7485" style="stop-color:#FFE300"/>
							<stop  offset="0.8896" style="stop-color:#FFE300"/>
							<stop  offset="1" style="stop-color:#FA941E"/>
						</linearGradient>
						<path fill="url(#SVGID_12_)" d="M114.673,149.43l-3.752-19.672c-0.422-2.207,0.669-4.601,2.539-5.568l22.322-11.559
							c0.567-0.294,1.168-0.443,1.782-0.443c1.852,0,3.408,1.389,3.785,3.373l3.752,19.668c0.424,2.209-0.668,4.604-2.537,5.571
							l-22.322,11.558c-0.569,0.295-1.17,0.443-1.784,0.443C116.607,152.801,115.052,151.414,114.673,149.43z M140.339,136.139
							l-3.541-18.572l-20.005,10.355c-0.057,0.09-1.066,1.002-0.801,2.551l3.232,16.95l21.022-10.886
							C140.307,136.448,140.361,136.259,140.339,136.139z"/>
						
							<linearGradient id="SVGID_13_" gradientUnits="userSpaceOnUse" x1="287.2129" y1="-656.3555" x2="283.8652" y2="-664.4461" gradientTransform="matrix(1 0 0 -1 -150 -530)">
							<stop  offset="0" style="stop-color:#FBA418"/>
							<stop  offset="0.4172" style="stop-color:#FFE300"/>
							<stop  offset="0.4182" style="stop-color:#FFE60D"/>
							<stop  offset="0.4211" style="stop-color:#FFED2C"/>
							<stop  offset="0.4244" style="stop-color:#FFF248"/>
							<stop  offset="0.4281" style="stop-color:#FFF75E"/>
							<stop  offset="0.4324" style="stop-color:#FFFB6F"/>
							<stop  offset="0.4378" style="stop-color:#FFFD7A"/>
							<stop  offset="0.4453" style="stop-color:#FFFF81"/>
							<stop  offset="0.4663" style="stop-color:#FFFF83"/>
							<stop  offset="0.5002" style="stop-color:#FFFF81"/>
							<stop  offset="0.5125" style="stop-color:#FFFD7A"/>
							<stop  offset="0.5212" style="stop-color:#FFFB6F"/>
							<stop  offset="0.5283" style="stop-color:#FFF75E"/>
							<stop  offset="0.5343" style="stop-color:#FFF248"/>
							<stop  offset="0.5396" style="stop-color:#FFED2C"/>
							<stop  offset="0.5444" style="stop-color:#FFE60D"/>
							<stop  offset="0.546" style="stop-color:#FFE300"/>
							<stop  offset="0.5592" style="stop-color:#FED406"/>
							<stop  offset="0.5806" style="stop-color:#FDC30C"/>
							<stop  offset="0.6072" style="stop-color:#FCB811"/>
							<stop  offset="0.6446" style="stop-color:#FCB113"/>
							<stop  offset="0.7485" style="stop-color:#FCAF14"/>
							<stop  offset="1" style="stop-color:#FA941E"/>
						</linearGradient>
						<path fill="url(#SVGID_13_)" d="M138.49,117.43c-0.555-0.201-1.692,0.137-1.692,0.137l3.306,17.25
							c0.024,0.121,0.235,1.552-1.061,2.357l-19.818,10.249c0,0,0.246,0.616,0.778,0.81c0.584,0.211,1.463,0,1.463,0l19.816-10.25
							c1.062-0.674,1.085-2.234,1.061-2.354l-3.306-17.251C139.037,118.374,139.055,117.633,138.49,117.43z"/>
						
							<linearGradient id="SVGID_14_" gradientUnits="userSpaceOnUse" x1="281.5508" y1="-639.9839" x2="260.2705" y2="-677.8296" gradientTransform="matrix(1 0 0 -1 -150 -530)">
							<stop  offset="0" style="stop-color:#FBA418"/>
							<stop  offset="0.4172" style="stop-color:#FFE300"/>
							<stop  offset="0.4182" style="stop-color:#FFE60D"/>
							<stop  offset="0.4211" style="stop-color:#FFED2C"/>
							<stop  offset="0.4244" style="stop-color:#FFF248"/>
							<stop  offset="0.4281" style="stop-color:#FFF75E"/>
							<stop  offset="0.4324" style="stop-color:#FFFB6F"/>
							<stop  offset="0.4378" style="stop-color:#FFFD7A"/>
							<stop  offset="0.4453" style="stop-color:#FFFF81"/>
							<stop  offset="0.4663" style="stop-color:#FFFF83"/>
							<stop  offset="0.5002" style="stop-color:#FFFF81"/>
							<stop  offset="0.5125" style="stop-color:#FFFD7A"/>
							<stop  offset="0.5212" style="stop-color:#FFFB6F"/>
							<stop  offset="0.5283" style="stop-color:#FFF75E"/>
							<stop  offset="0.5343" style="stop-color:#FFF248"/>
							<stop  offset="0.5396" style="stop-color:#FFED2C"/>
							<stop  offset="0.5444" style="stop-color:#FFE60D"/>
							<stop  offset="0.546" style="stop-color:#FFE300"/>
							<stop  offset="0.5592" style="stop-color:#FED406"/>
							<stop  offset="0.5806" style="stop-color:#FDC30C"/>
							<stop  offset="0.6072" style="stop-color:#FCB811"/>
							<stop  offset="0.6446" style="stop-color:#FCB113"/>
							<stop  offset="0.7485" style="stop-color:#FCAF14"/>
							<stop  offset="1" style="stop-color:#FA941E"/>
						</linearGradient>
						<path fill="url(#SVGID_14_)" d="M116.912,150.236l-3.752-19.672c-0.422-2.205,0.669-4.603,2.54-5.568l22.321-11.559
							c0.565-0.293,1.168-0.443,1.783-0.443c0.01,0,0.02,0.003,0.028,0.003c-0.644-0.508-1.421-0.812-2.271-0.812
							c-0.613,0-1.215,0.148-1.781,0.442l-22.322,11.56c-1.87,0.97-2.961,3.36-2.539,5.567l3.752,19.671
							c0.377,1.977,1.92,3.354,3.758,3.37C117.675,152.199,117.116,151.312,116.912,150.236z"/>
						
							<linearGradient id="SVGID_15_" gradientUnits="userSpaceOnUse" x1="263.2217" y1="-673.2578" x2="261.1825" y2="-678.7855" gradientTransform="matrix(1 0 0 -1 -150 -530)">
							<stop  offset="0" style="stop-color:#FF4200;stop-opacity:0"/>
							<stop  offset="1" style="stop-color:#7C531E"/>
						</linearGradient>
						<path fill="url(#SVGID_15_)" d="M116.357,148.148l-3.244-17.002l-2.284-1.039l3.289,17.23c0.377,1.979,1.444,4.221,3.28,4.232
							C117.077,151.32,116.159,147.111,116.357,148.148z"/>
					</g>
					
						<linearGradient id="SVGID_16_" gradientUnits="userSpaceOnUse" x1="319.6172" y1="2951.6162" x2="317.7253" y2="2946.4878" gradientTransform="matrix(1 0 0 1 -260.2285 -2826.9336)">
						<stop  offset="0" style="stop-color:#FF4200;stop-opacity:0"/>
						<stop  offset="1" style="stop-color:#7C531E"/>
					</linearGradient>
					<path fill="url(#SVGID_16_)" d="M62.943,118.747L59.7,135.749l-2.284,1.04l3.288-17.234c0.376-1.975,0.675-2.582,2.499-1.988
						C63.202,117.564,62.744,119.784,62.943,118.747z"/>
					
						<radialGradient id="SVGID_17_" cx="-493.6636" cy="-620.3687" r="44.0057" gradientTransform="matrix(-1 0 0 -1 -384.1719 -530)" gradientUnits="userSpaceOnUse">
						<stop  offset="0" style="stop-color:#3F54A2"/>
						<stop  offset="1" style="stop-color:#1D2F46"/>
					</radialGradient>
					<path fill="url(#SVGID_17_)" d="M137.646,109.059c0,0-3.194,3.984-3.836,4.607c-0.644,0.624-5.193,4.688-11.392,4.281
						c-6.192-0.404-16.698-0.6-16.698-0.6l-1.889-2.738l13.199-2.424l12.391,1.017L137.646,109.059z"/>
				</g>
			</g>
			
				<radialGradient id="SVGID_18_" cx="248.8086" cy="-601.9062" r="30.493" gradientTransform="matrix(1 0 0 -1 -150 -530)" gradientUnits="userSpaceOnUse">
				<stop  offset="0.5276" style="stop-color:#626EBD"/>
				<stop  offset="1" style="stop-color:#1D2F46"/>
			</radialGradient>
			<path fill="url(#SVGID_18_)" d="M119.225,59.272c0,0-35.717,5.759-37.767,7.21c-2.05,1.451-1.454,0.442,7.711,0
				c9.166-0.442,36.163-4.204,36.163-4.204L119.225,59.272z"/>
			
				<radialGradient id="SVGID_19_" cx="358.6748" cy="-574.998" r="30.4936" gradientTransform="matrix(0.9981 0.0618 0.0618 -0.9981 -223.8301 -524.4811)" gradientUnits="userSpaceOnUse">
				<stop  offset="0.5276" style="stop-color:#626EBD"/>
				<stop  offset="1" style="stop-color:#1D2F46"/>
			</radialGradient>
			<path fill="url(#SVGID_19_)" d="M125.831,65.492c0,0-36.006,3.541-38.141,4.863c-2.136,1.321-1.479,0.351,7.698,0.476
				c9.174,0.125,36.353-1.96,36.353-1.96L125.831,65.492z"/>
		</g>
	</g>
</g>
</svg>
