<?xml version="1.0" encoding="utf-8"?>
<!-- Generator: Adobe Illustrator 15.0.0, SVG Export Plug-In . SVG Version: 6.00 Build 0)  -->
<!DOCTYPE svg PUBLIC "-//W3C//DTD SVG 1.1//EN" "http://www.w3.org/Graphics/SVG/1.1/DTD/svg11.dtd">
<svg version="1.1" id="Layer_1" xmlns="http://www.w3.org/2000/svg" xmlns:xlink="http://www.w3.org/1999/xlink" x="0px" y="0px"
	 width="200px" height="200px" viewBox="0 0 200 200" enable-background="new 0 0 200 200" xml:space="preserve">
<g id="icon">
	<g id="Layer_2">
	</g>
	<g id="Layer_1_1_">
		<g>
			<g>
				<g>
					<polygon fill="#8C898A" points="43.841,136.501 44.46,156.785 77.716,183.607 77.928,161.203 					"/>
					<polygon fill="#646162" points="118.252,97.319 156.16,117.566 77.928,161.203 43.841,136.501 					"/>
					<polygon fill="#C8C7C7" points="77.928,161.203 77.716,183.607 154.634,137.887 156.16,117.566 					"/>
					<polygon fill="#8C898A" points="56.146,52.146 55.502,137.411 77.538,154.297 79.008,66.937 					"/>
					<polygon fill="#646162" points="121.482,19.681 148.118,32.166 79.008,66.937 56.146,52.146 					"/>
					
						<linearGradient id="SVGID_1_" gradientUnits="userSpaceOnUse" x1="263.5781" y1="-550.5459" x2="235.475" y2="-587.1188" gradientTransform="matrix(1 0 0 -1 -150 -530)">
						<stop  offset="0" style="stop-color:#757375"/>
						<stop  offset="0.5" style="stop-color:#ACACAC"/>
						<stop  offset="1" style="stop-color:#6B696B"/>
					</linearGradient>
					<path fill="url(#SVGID_1_)" d="M133.557,32.473c0,8.247-43.323,28.815-43.323,28.815l-22.98-14.244
						c0-8.247,10.238-20.166,22.865-26.621c9.323-4.766,17.342-5.221,20.9-1.815C112.283,19.815,133.557,32.473,133.557,32.473z"/>
					<path fill="#C8C7C7" d="M135.936,38.297c0.004-0.127,0.025-0.26,0.025-0.386c0-8.247-10.234-9.7-22.861-3.243
						c-12.626,6.455-22.866,18.374-22.866,26.62l-11.226,5.649l-1.47,87.36l65.745-36.365l4.835-85.766L135.936,38.297z"/>
					<g>
						<polygon fill="#646162" points="130.596,63.535 118.259,69.215 125.961,73.751 139.479,67.362 						"/>
						
							<linearGradient id="SVGID_2_" gradientUnits="userSpaceOnUse" x1="258.4658" y1="-634.5454" x2="279.5573" y2="-636.1273" gradientTransform="matrix(1.0016 0.0218 -0.0301 -0.999 -175.2867 -553.5535)">
							<stop  offset="0" style="stop-color:#E6EDF0"/>
							<stop  offset="0.3067" style="stop-color:#8D8B8D"/>
							<stop  offset="1" style="stop-color:#2E332E"/>
						</linearGradient>
						<polygon fill="url(#SVGID_2_)" points="108.646,57.795 108.301,110.048 116.602,116.104 117.395,62.721 						"/>
						<polygon fill="#C8C7C7" points="139.479,67.362 126.408,73.538 126.932,57.918 117.395,62.721 117.105,78.04 102.104,85.106 
							101.986,94.631 116.932,87.167 116.602,116.104 125.551,110.805 126.09,83.15 139.15,76.559 						"/>
						<polygon fill="#646162" points="108.509,74.078 94.399,80.57 102.104,85.106 117.395,77.905 						"/>
						
							<linearGradient id="SVGID_3_" gradientUnits="userSpaceOnUse" x1="4074.1582" y1="-3835.7881" x2="4089.6497" y2="-3847.2268" gradientTransform="matrix(-0.0121 1.0671 0.9417 -0.4166 3766.8438 -5871.9004)">
							<stop  offset="0" style="stop-color:#E6EDF0"/>
							<stop  offset="0.3067" style="stop-color:#8D8B8D"/>
							<stop  offset="1" style="stop-color:#2E332E"/>
						</linearGradient>
						<polygon fill="url(#SVGID_3_)" points="94.399,89.571 94.399,80.57 102.104,85.106 101.986,94.631 						"/>
						<polygon fill="#646162" points="117.395,53.644 126.932,57.918 117.395,62.721 108.646,57.795 						"/>
					</g>
				</g>
				<g opacity="0.87">
					
						<radialGradient id="SVGID_4_" cx="245.041" cy="-612.1479" r="104.9816" gradientTransform="matrix(1 0 0 -1 -150 -530)" gradientUnits="userSpaceOnUse">
						<stop  offset="0" style="stop-color:#FFFFFF;stop-opacity:0"/>
						<stop  offset="0.092" style="stop-color:#F7F7F7;stop-opacity:0.0506"/>
						<stop  offset="0.2383" style="stop-color:#E0E0E0;stop-opacity:0.1311"/>
						<stop  offset="0.4206" style="stop-color:#BABABA;stop-opacity:0.2313"/>
						<stop  offset="0.6317" style="stop-color:#868686;stop-opacity:0.3475"/>
						<stop  offset="0.8642" style="stop-color:#444444;stop-opacity:0.4753"/>
						<stop  offset="1" style="stop-color:#1A1A1A;stop-opacity:0.55"/>
					</radialGradient>
					<path fill="url(#SVGID_4_)" d="M143.639,110.878l4.479-78.712l-26.636-12.484l-4.994,2.481
						c-2.885-1.785-5.088-3.191-5.469-3.555c-3.561-3.406-11.58-2.951-20.9,1.815c-12.413,6.345-22.491,17.961-22.832,26.188
						l-11.141,5.535l-0.597,78.188l-11.709,6.167l0.619,20.284l33.256,26.822l76.917-45.724l1.526-20.317L143.639,110.878z"/>
				</g>
			</g>
			<g opacity="0.54">
				<polygon fill="#231F20" points="91.511,147.27 93.728,137.848 91.511,129.264 93.728,117.566 92.125,128.798 94.514,137.684 
					93.259,145.473 				"/>
				<polygon fill="#231F20" points="144.686,91.567 140.561,91.854 137.832,94.344 132.006,90.366 137.71,93.273 139.479,91.075 
					144.837,90.366 				"/>
				<polygon fill="#231F20" points="134.98,99.303 138.421,96.608 137.832,94.344 138.421,93.807 139.07,96.555 				"/>
				<polygon fill="#231F20" points="56.119,75.356 62.794,78.508 61.811,82.73 66.921,87.644 61.52,83.516 61.52,78.897 
					56.012,76.538 				"/>
				<polygon fill="#231F20" points="127.426,134.434 131.919,137.148 131.221,141.326 134.449,142.914 135.68,149.896 
					133.436,151.602 133.639,143.701 130.275,142.333 131.007,137.76 				"/>
			</g>
		</g>
	</g>
</g>
</svg>
