<?xml version="1.0" encoding="utf-8"?>
<!-- Generator: Adobe Illustrator 15.0.0, SVG Export Plug-In . SVG Version: 6.00 Build 0)  -->
<!DOCTYPE svg PUBLIC "-//W3C//DTD SVG 1.1//EN" "http://www.w3.org/Graphics/SVG/1.1/DTD/svg11.dtd">
<svg version="1.1" id="Layer_1" xmlns="http://www.w3.org/2000/svg" xmlns:xlink="http://www.w3.org/1999/xlink" x="0px" y="0px"
	 width="200px" height="200px" viewBox="0 0 200 200" enable-background="new 0 0 200 200" xml:space="preserve">
<g>
	<radialGradient id="SVGID_1_" cx="83.8169" cy="113.8252" r="46.7568" gradientUnits="userSpaceOnUse">
		<stop  offset="0" style="stop-color:#FF815D"/>
		<stop  offset="0.1399" style="stop-color:#F87857"/>
		<stop  offset="0.3668" style="stop-color:#E56045"/>
		<stop  offset="0.6525" style="stop-color:#C73929"/>
		<stop  offset="0.9829" style="stop-color:#9C0302"/>
		<stop  offset="1" style="stop-color:#9A0000"/>
	</radialGradient>
	<path fill="url(#SVGID_1_)" d="M162.688,128.898c0,32.451-27.354,28.723-59.805,28.723s-58.758-26.307-58.758-58.757
		c0-32.452,26.307-58.759,58.758-58.759S162.688,96.447,162.688,128.898z"/>
	<g id="icon">
		<g id="Layer_2">
		</g>
		<g id="Layer_1_1_">
			<g>
				<g>
					<g>
						
							<radialGradient id="SVGID_2_" cx="363.3975" cy="-1205.8237" r="62.6374" gradientTransform="matrix(1 0 0 -1 -250 -1121)" gradientUnits="userSpaceOnUse">
							<stop  offset="0.5092" style="stop-color:#FFFAE8"/>
							<stop  offset="0.603" style="stop-color:#FBF6E4"/>
							<stop  offset="0.7001" style="stop-color:#F0E9D9"/>
							<stop  offset="0.7989" style="stop-color:#DED5C6"/>
							<stop  offset="0.8987" style="stop-color:#C4B8AB"/>
							<stop  offset="0.9985" style="stop-color:#A39389"/>
							<stop  offset="1" style="stop-color:#A29288"/>
						</radialGradient>
						<path fill="url(#SVGID_2_)" d="M111.82,158.893c-34.542,0-62.638-28.1-62.638-62.638c0-34.539,28.099-62.639,62.638-62.639
							c34.539,0,62.638,28.099,62.638,62.639C174.458,130.793,146.359,158.893,111.82,158.893z"/>
					</g>
					<g>
						
							<radialGradient id="SVGID_3_" cx="384.0459" cy="-1191.2646" r="35.1811" gradientTransform="matrix(1 0 0 -1 -250 -1121)" gradientUnits="userSpaceOnUse">
							<stop  offset="0.2331" style="stop-color:#74B344"/>
							<stop  offset="0.3643" style="stop-color:#71AF43"/>
							<stop  offset="0.5002" style="stop-color:#66A23F"/>
							<stop  offset="0.6384" style="stop-color:#558E3A"/>
							<stop  offset="0.778" style="stop-color:#3C7132"/>
							<stop  offset="0.9175" style="stop-color:#1D4C28"/>
							<stop  offset="1" style="stop-color:#083221"/>
						</radialGradient>
						<path fill="url(#SVGID_3_)" d="M136.496,111.934c-9.844,0-19.672-4.186-26.969-11.479
							c-14.347-14.349-15.362-36.68-2.262-49.78c5.938-5.942,14.041-9.214,22.81-9.214c9.737,0,19.071,4.982,26.34,12.147
							c1.591,1.642,2.942,2.712,4.259,4.452c10.467,14.475,10.189,33.107-1.365,44.659
							C153.367,108.66,145.266,111.934,136.496,111.934C136.496,111.934,136.497,111.934,136.496,111.934z"/>
						<path d="M130.075,42.958c9.049,0,18.413,3.653,25.707,10.843c1.504,1.553,2.916,3.191,4.222,4.92
							c9.819,13.58,9.426,31.756-1.755,42.936c-5.878,5.878-13.69,8.776-21.753,8.776c-9.133,0-18.585-3.724-25.907-11.042
							c-13.785-13.786-14.799-35.123-2.263-47.659C114.203,45.855,122.014,42.958,130.075,42.958 M130.075,39.958
							c-9.168,0-17.646,3.428-23.87,9.654c-13.686,13.685-12.67,36.968,2.263,51.902c7.576,7.574,17.792,11.92,28.028,11.92
							c9.169,0,17.646-3.43,23.874-9.656c12.078-12.072,11.583-30.363,0.7-45.415l0,0l0,0c-1.354-1.79-2.451-3.095-4.062-4.755l0,0
							l0,0C149.464,46.166,140.204,39.958,130.075,39.958L130.075,39.958z"/>
					</g>
					<path fill="#8DC63F" d="M148.939,85.521c0.315-0.319,1.715-0.65,1.979-1.002c0.271-0.356-8.695-6.923-8.479-7.307
						c0.225-0.388,10.093,3.923,10.261,3.514c0.17-0.413-10.868-4.576-10.755-5.004c0.115-0.43,3.438,0.356,3.504-0.086
						c0.062-0.438,6.75-0.414,6.76-0.86c0.009-0.442-3.773-0.977-3.816-1.422c-0.041-0.44,5.399-2.039,5.312-2.479
						c-0.094-0.432,1.956-2.222,1.814-2.647c-0.138-0.421-9.898,2.507-10.084,2.096c-0.182-0.402,8.508-5.688,8.281-6.077
						c-0.221-0.382-9.812,5.005-10.076,4.641c-0.224-0.297-0.205-0.521-0.447-0.802c-0.235-0.281-3.428,2.643-3.688,2.376
						c-0.333-0.329,8.117-10.356,7.76-10.644c-0.365-0.293-1.427-0.7-1.812-0.946c-0.396-0.252-2.454,1.448-2.865,1.244
						c-0.419-0.209-5.005,9.895-5.435,9.736c-0.438-0.16,3.578-14.876,3.132-14.985c-0.454-0.111-1.675-0.944-2.13-1.004
						c-0.463-0.057-1.893,1.769-2.354,1.766c-0.465-0.003-0.666,8.85-1.122,8.902c-0.462,0.053-0.979-1.545-1.433-1.433
						c-0.449,0.111-3.345-6.347-3.772-6.177c-0.432,0.169-1.24,1.333-1.646,1.559c-0.396,0.225,3.068,6.792,2.695,7.074
						c-0.36,0.276-3.521-2.637-3.854-2.304c-0.334,0.334-4.812-2.096-5.092-1.729c-0.283,0.375,0.961,2.739,0.732,3.144
						c-0.229,0.408,5.364,3.798,5.193,4.23c-0.168,0.434,2.202,1.265,2.094,1.718c-0.106,0.451-4.479-0.111-4.531,0.354
						c-0.053,0.46-2.14,0.975-2.135,1.442c0.006,0.464,4.879,0.569,4.938,1.034c0.062,0.459-10.384,3.234-10.271,3.691
						c0.11,0.447,3.147,0.799,3.312,1.238c0.16,0.433,1.74,0.821,1.951,1.24c0.207,0.412,7.481-3.222,7.74-2.828
						c0.25,0.388-1.92,2.197-1.623,2.562c0.289,0.358-2.761,3.889-2.429,4.223c0.334,0.332,4.199-3.13,4.56-2.839
						c0.363,0.295,0.834,0.094,1.224,0.344c0.396,0.258-2.349,6.204-1.938,6.413c0.422,0.21,1.248,0.701,1.684,0.861
						c0.438,0.165,0.977,2.049,1.42,2.16c0.456,0.113,2.938-9.922,3.396-9.861c0.469,0.062,0.36,6.625,0.823,6.63
						c0.472,0.006,0.362-7.66,0.823-7.713c0.466-0.053,0.291,0.158,0.742,0.047c0.453-0.11-0.809-2.739-0.372-2.909
						c0.435-0.169,4.149,7.779,4.562,7.551c0.402-0.225,3.521,2.957,3.896,2.674C147.745,86.65,148.607,85.854,148.939,85.521z"/>
					<g opacity="0.46">
						<path fill="#00420F" d="M151.266,86.289c-0.459,0.735,10.178,9.188,9.627,9.877c-0.537,0.677-0.494,2.871-1.119,3.496
							c-0.168,0.168-0.494,0.235-0.891,0.258c0.211,0.133,0.42,0.259,0.625,0.386c2.383-2.697,4.19-5.74,5.436-8.991
							C161.445,90.219,151.654,85.668,151.266,86.289z"/>
						<path fill="#00420F" d="M129.286,58.058c0.804-0.162-0.3-12.44,0.116-15.085c-0.188,0.004-0.369,0.009-0.553,0.016
							c-0.147,5.774-0.293,11.545-0.729,11.585c-0.741,0.067-2.315-8.584-3.312-11.188c-0.453,0.073-0.906,0.153-1.355,0.248
							C125.534,48.961,128.648,58.188,129.286,58.058z"/>
						<path fill="#00420F" d="M118.057,49.116c0.789-0.481,5.032,5.663,5.866,5.28c0.55-0.25-0.978-6.263-1.846-10.449
							c-2.937,0.748-5.751,1.929-8.354,3.532c0.12,0.249,0.241,0.496,0.36,0.743C115.275,48.373,117.428,49.499,118.057,49.116z"/>
						<path fill="#00420F" d="M106.919,69.152c0.039-0.223-0.261-0.492-0.712-0.783c-0.643,0.034-1.045,0.118-1.064,0.278
							c-0.021,0.202,0.521,0.44,1.354,0.698C106.755,69.296,106.904,69.232,106.919,69.152z"/>
						<path fill="#00420F" d="M115.312,103.407c1.332-3.002,4.812-9.024,4.304-9.457c-0.656-0.554,3.625-5.977,3.005-6.596
							s1.379-2.589,0.824-3.245c-0.562-0.669-9.014,5.336-9.508,4.635c-0.508-0.715,6.787-5.966,6.354-6.708
							c-0.441-0.756-15.406,6.215-15.773,5.436c-0.371-0.79,11.605-6.796,11.312-7.605c-0.301-0.819-9.688,1.332-9.911,0.501
							c-0.226-0.844,10.794-3.916,10.647-4.766c-0.146-0.859-5.982-0.575-6.047-1.436c-0.062-0.869,4.496-1.423,4.521-2.286
							c0.021-0.665-5.83-1.701-8.543-2.534c-1.021,0.195-3.769,0.181-6.695,0.144c-0.22,1.794-0.295,3.614-0.217,5.442
							c1.442,0.256,2.492,0.516,2.513,0.785c0.062,0.878,4.553,0.912,4.682,1.791c0.133,0.869-3.188,1.992-2.993,2.858
							c0.09,0.394-1.415,1.22-3.038,2.077c0.172,0.643,0.354,1.283,0.562,1.922c4.355-0.975,10.407-2.562,10.613-2.029
							c0.164,0.421-4.65,2.963-9.312,5.443c0.287,0.655,0.603,1.304,0.933,1.947c3.222-1.201,6.069-2.215,6.258-1.882
							c0.229,0.405-2.36,2.512-4.778,4.514c1.539,2.489,3.396,4.856,5.568,7.033C112.082,100.884,113.664,102.216,115.312,103.407z"
							/>
						<path fill="#00420F" d="M116.665,68.313c0.198-0.845-8.659-4.021-8.371-4.839c0.287-0.816-3.728-3.926-3.351-4.707
							c0.373-0.778,14.143,5.967,14.604,5.229c0.458-0.729,0.004-0.951,0.549-1.634c0.535-0.671-6.936-8.078-6.316-8.697
							c0.197-0.196,0.183-0.709,0.078-1.343c-0.896-0.896-1.896-1.934-2.877-2.938c-0.578,0.455-1.144,0.935-1.688,1.438
							c1.104,1.791,2.028,3.379,1.771,3.641c-0.236,0.238-1.76-0.658-3.586-1.83c-1.854,2.019-3.384,4.239-4.582,6.604
							c1.682,1.285,3.066,2.417,2.92,2.742c-0.14,0.304-1.857,0-3.963-0.449c-0.4,0.991-0.75,2.002-1.05,3.03
							c0.966,0.578,1.612,1.05,1.554,1.286c-0.162,0.635,2.525,1.675,3.854,2.523C109.027,68.217,116.502,68.999,116.665,68.313z"/>
						<path fill="#00420F" d="M121.812,106.044c-0.146,0.388-0.252,0.72-0.334,0.992c0.275,0.13,0.557,0.261,0.836,0.383
							c0.041-0.032,0.078-0.062,0.121-0.095C122.298,106.73,122.133,106.202,121.812,106.044z"/>
						<path fill="#00420F" d="M128.928,88.016c-0.619-0.362-9.507,12.113-12.841,15.949c0.586,0.402,1.185,0.779,1.785,1.145
							c1.269-1.311,2.446-2.479,2.786-2.283c0.775,0.435,0.354,2.844,1.146,3.218c0.002,0.001,0.004,0.003,0.006,0.005
							C123.561,101.221,129.548,88.376,128.928,88.016z"/>
						<path fill="#00420F" d="M155.54,104.043c0.552-0.43,1.092-0.88,1.617-1.354c-0.562-0.809-1.106-1.59-1.58-2.297
							c-0.261,0.722-0.134,2.357-0.249,3.428C155.398,103.895,155.471,103.969,155.54,104.043z"/>
						<path fill="#00420F" d="M149.548,98.35c-0.729,0.506-2.505-2.332-3.271-1.898l0,0c1.553,2.889,3.062,5.666,3.438,5.483
							c0.682-0.328,3.643,2.443,4.863,2.834c0.229-0.166,0.451-0.34,0.677-0.516c0.031-0.13,0.056-0.273,0.071-0.438
							C152.58,100.922,149.896,98.107,149.548,98.35z"/>
						<path fill="#00420F" d="M142.486,90.291c-0.816,0.288,0.889,6.478,0.043,6.677c-0.842,0.199-0.293,8.103-1.154,8.212
							c-0.855,0.109-2.5-13.997-3.37-13.975c-0.86,0.023-0.68-0.798-1.549-0.86c-0.858-0.06-1.336,3.906-2.196,3.763
							c-0.85-0.143-5.15,15.264-5.994,15.039c-0.832-0.221-0.879-4.979-1.699-5.276c-0.604-0.226-2.752,2.312-4.131,3.459
							c0.018,0.053,0.023,0.104,0.037,0.155c2.473,1.066,5.021,1.854,7.586,2.343c0.916-2.647,1.785-5.062,2.178-5.009
							c0.882,0.134,1.307,0.895,2.184,0.951c0.885,0.063,1.438,4.014,2.314,4.004c0.891-0.008,1.332-4.442,2.209-4.521
							c0.568-0.051,1.461,2.83,2.263,4.847c0.522-0.076,1.051-0.164,1.567-0.269c0.058-2.324-0.14-5.695,0.43-5.84
							c0.854-0.226,1.812,1.284,2.645,0.991c0.834-0.293-0.785-5.167,0.018-5.531c0.803-0.363-0.346-2.561,0.422-2.997
							C144.619,93.361,142.909,90.143,142.486,90.291z"/>
						<path fill="#00420F" d="M153.977,97.387c-0.189,0.195,0.528,1.408,1.604,3.005c0.047-0.132,0.104-0.238,0.185-0.3
							c0.486-0.389,2.062-0.113,3.123-0.172C156.7,98.561,154.333,97.03,153.977,97.387z"/>
						<path fill="#00420F" d="M116.823,54.784c0.313-0.218-1.101-3.212-2.74-6.562c-0.283-0.036-0.517-0.017-0.656,0.094
							c-0.502,0.394,0.193,2.532,0.431,4.007C115.374,53.844,116.581,54.952,116.823,54.784z"/>
						<path fill="#00420F" d="M132.852,53.537c0.914,0.015,1.336-0.173,2.254-0.064c0.906,0.107,2.354-4.43,3.258-4.229
							c0.896,0.196,0.658,3.828,1.539,4.115c0.867,0.282,1.541,0.149,2.394,0.519c0.836,0.364,2.011-0.511,2.815-0.062
							c0.803,0.441,0.076,2.793,0.847,3.316c0.681,0.462,5.044-4.051,6.419-4.507c0.203-0.384,0.438-0.806,0.691-1.259
							c-1.42-1.162-2.898-2.201-4.43-3.124c-1.449,1.562-2.906,3.143-3.291,2.93c-0.271-0.148,0.256-1.926,1.021-4.192
							c-2.316-1.19-4.715-2.118-7.146-2.78c-1.568,4.24-3.231,8.857-3.695,8.756c-0.856-0.19-0.354-4.943-1.225-5.067
							c-0.645-0.093-1.314,3.084-1.973,4.742C132.514,53.189,132.688,53.535,132.852,53.537z"/>
						<path fill="#00420F" d="M153.875,61.794c0.238-0.845,0.621-1.764,0.2-2.254c-0.168-0.194-0.47-0.229-0.835-0.185
							c0.017,0.154,0.051,0.292,0.134,0.388C153.816,60.259,153.684,61.123,153.875,61.794z"/>
						<path fill="#00420F" d="M151.639,54.578c0.659,0.568-2.66,4.706-2.029,5.328c0.574,0.592,2.455-0.404,3.636-0.551
							c-0.101-0.892,0.688-2.589,0.188-3.108c-0.664-0.653-0.012-3.053-0.715-3.632c-0.064-0.058-0.189-0.04-0.343,0.009
							C151.803,53.694,151.48,54.443,151.639,54.578z"/>
						<path fill="#00420F" d="M131.631,53.607c0.229,0.015,0.465-0.387,0.698-0.979c-0.479-1.457-1.022-4.391-1.539-6.735
							C131.027,50.097,131.282,53.583,131.631,53.607z"/>
						<path fill="#00420F" d="M154.773,84.707c-0.146,0.612,6.634,3.02,10.813,4.755c0.429-1.357,0.752-2.746,0.985-4.153
							C162.189,85.009,154.924,84.083,154.773,84.707z"/>
						<path fill="#00420F" d="M129.997,42.958c0.248,0.597,0.519,1.68,0.793,2.936c-0.054-0.949-0.104-1.932-0.158-2.923
							C130.421,42.967,130.208,42.957,129.997,42.958z"/>
						<path fill="#00420F" d="M153.833,63.155c0.256-0.392,0.388-0.718,0.254-0.903c-0.103-0.135-0.164-0.292-0.212-0.458
							C153.729,62.317,153.645,62.81,153.833,63.155z"/>
						<path fill="#00420F" d="M158.182,81.428c-0.037,0.607,5.12,1.652,8.59,2.555c0.045-0.36,0.078-0.722,0.11-1.084
							c-0.991-0.728-1.911-1.43-1.862-1.827c0.043-0.354,0.357-0.764,0.715-1.184C163.038,80.392,158.223,80.772,158.182,81.428z"/>
						<path fill="#00420F" d="M159.484,72.751c0.09,0.346,2.611,0.171,5.676-0.119c0.466-0.261,0.763-0.497,0.729-0.686
							c-0.104-0.585-2.16-0.856-3.529-1.242C160.782,71.561,159.384,72.365,159.484,72.751z"/>
						<path fill="#00420F" d="M159.514,75.536c0.068,0.876,7.377,1.71,7.357,2.581c-0.012,0.52-0.62,1.156-1.139,1.771
							c0.529-0.099,0.974-0.204,1.285-0.315c-0.023-2.343-0.291-4.703-0.806-7.041c-0.354,0.034-0.71,0.067-1.058,0.101
							C163.479,73.574,159.459,74.856,159.514,75.536z"/>
						<path fill="#00420F" d="M161.166,70.056c0.072,0.27,0.561,0.472,1.193,0.648c1.016-0.551,2.104-1.121,2.92-1.617
							c-0.15-0.462-0.312-0.921-0.479-1.381c-0.631,0.047-1.358,0.134-2.075,0.213C161.936,68.741,161.041,69.602,161.166,70.056z"
							/>
						<path fill="#00420F" d="M151.678,66.469c0.264,0.438,3.973-1.014,7.127-2.16c0.129-0.585,0.312-1.188,0.034-1.636
							c-0.479-0.774-4.414,1.323-4.957,0.574c-0.021-0.027-0.032-0.061-0.049-0.092C153.104,64.268,151.35,65.918,151.678,66.469z"
							/>
						<path fill="#00420F" d="M158.816,65.525c0.426,0.816,0.345,1.479,0.705,2.316c0.17,0.396,1.646,0.254,3.203,0.077
							c0.662-0.688,1.254-1.35,1.109-1.726c-0.141-0.363-0.188-0.86-0.244-1.366c-0.271-0.591-0.564-1.177-0.88-1.757
							c-0.771,0.123-2.265,0.639-3.911,1.238C158.705,64.748,158.637,65.179,158.816,65.525z"/>
					</g>
					<g>
						
							<radialGradient id="SVGID_4_" cx="386.752" cy="-1194.2271" r="9.6812" gradientTransform="matrix(1 0 0 -1 -250 -1121)" gradientUnits="userSpaceOnUse">
							<stop  offset="0.7975" style="stop-color:#000000;stop-opacity:0.95"/>
							<stop  offset="1" style="stop-color:#000000;stop-opacity:0"/>
						</radialGradient>
						<path fill="url(#SVGID_4_)" d="M144.357,80.83c3.404-3.405,3.521-8.939,0.533-13.077c-0.397-0.526-0.828-1.025-1.285-1.499
							c-4.201-4.142-10.653-4.43-14.457-0.629c-3.815,3.817-3.508,10.317,0.688,14.516C134.04,84.34,140.539,84.647,144.357,80.83z"
							/>
					</g>
					<g>
						
							<radialGradient id="SVGID_5_" cx="358.3018" cy="-1223.9014" r="68.9156" gradientTransform="matrix(1 0 0 -1 -250 -1121)" gradientUnits="userSpaceOnUse">
							<stop  offset="0.8589" style="stop-color:#FFFFFF;stop-opacity:0"/>
							<stop  offset="1" style="stop-color:#FFFFFF;stop-opacity:0.95"/>
						</radialGradient>
						<circle fill="url(#SVGID_5_)" cx="111.82" cy="96.255" r="62.138"/>
					</g>
					<g>
						
							<radialGradient id="SVGID_6_" cx="371.0088" cy="-1202.5928" r="68.9162" gradientTransform="matrix(1 0 0 -1 -250 -1121)" gradientUnits="userSpaceOnUse">
							<stop  offset="0.8589" style="stop-color:#FF2B2D;stop-opacity:0"/>
							<stop  offset="0.8847" style="stop-color:#F72729;stop-opacity:0.1735"/>
							<stop  offset="0.9251" style="stop-color:#E01C1D;stop-opacity:0.446"/>
							<stop  offset="0.975" style="stop-color:#BC0A0B;stop-opacity:0.7815"/>
							<stop  offset="1" style="stop-color:#A70000;stop-opacity:0.95"/>
						</radialGradient>
						<circle fill="url(#SVGID_6_)" cx="111.82" cy="96.255" r="62.138"/>
					</g>
					
						<radialGradient id="SVGID_7_" cx="-2226.1377" cy="-160.6475" r="9.969" gradientTransform="matrix(-0.056 -0.8857 -1.2607 0.0675 -208.4198 -1898.7656)" gradientUnits="userSpaceOnUse">
						<stop  offset="0.3988" style="stop-color:#FFFFFF;stop-opacity:0.95"/>
						<stop  offset="1" style="stop-color:#FFFFFF;stop-opacity:0"/>
					</radialGradient>
					<path fill="url(#SVGID_7_)" d="M127.363,61.648c0.259,4.061-3.379,7.559-8.121,7.812c-4.745,0.254-8.799-2.832-9.057-6.892
						c-0.256-4.061,3.381-7.558,8.125-7.811C123.057,54.504,127.107,57.59,127.363,61.648z"/>
					<g opacity="0.44">
						<g>
							<path fill="#BE1E2D" d="M70.405,142.548c2.704-2.759,5.106-5.879,6.84-9.336c2.279-4.545-0.199-8.399-2.278-12.491
								c-1.66-3.268-3.377-6.964-1.201-10.379c1.365-2.142,2.308-4.29,1.867-6.916c-0.105-0.629-1.187-3.988-1.16-4.017
								c1.267-1.329,2.533-2.658,3.8-3.987c0.345-0.36-1.138-1.701-1.508-1.312c-1.312,1.376-2.623,2.752-3.935,4.129
								c-0.096,0.1,0.005,0.295,0.054,0.384c0.86,1.575,1.159,3.268,1.256,5.052c0.168,3.089-2.414,4.658-2.864,7.33
								c-0.628,3.722,1.237,7.099,2.874,10.319c2.687,5.287,3.155,8.367-0.066,13.5c-1.45,2.311-3.277,4.464-5.186,6.412
								C68.552,141.587,70.026,142.936,70.405,142.548L70.405,142.548z"/>
						</g>
					</g>
					<g opacity="0.44">
						<g>
							<path fill="#BE1E2D" d="M76.399,123.911c1.367-1.123,3.259,0.582,4.693,0.969c1.854,0.499,3.307-0.612,4.451-1.942
								c1.639-1.9,3.856-5.522,2.796-8.203c-0.229-0.57-1.922-1.492-1.512-0.463c1.129,2.851-2.289,7.574-4.499,8.862
								c-2.543,1.481-4.915-2.625-7.379-0.6C74.442,122.951,75.837,124.374,76.399,123.911L76.399,123.911z"/>
						</g>
					</g>
					<g opacity="0.44">
						<g>
							<path fill="#BE1E2D" d="M107.027,158.037c-0.01-2.415,0.156-4.831,0.543-7.217c0.51-3.137,2.799-3.135,4.261-5.512
								c1.306-2.121,1.367-4.262,1.065-6.584c-0.455-3.521,0.084-3.427,3.125-5.186c-0.25,0.146-1.438-0.168-1.926,0.111
								c-1.188,0.688-2.382,1.377-3.566,2.062c-0.01,0.014-0.021,0.021-0.032,0.03c0.401,3.101,1.892,10.438-2.776,11.526
								c-3.215,0.75-2.693,8.426-2.686,10.934C105.035,158.309,107.027,158.24,107.027,158.037L107.027,158.037z"/>
						</g>
					</g>
					<g opacity="0.44">
						<g>
							<path fill="#BE1E2D" d="M143.007,150.372c-0.388-4.664-4.399-6.424-7.786-8.933c-0.078,0.234-0.156,0.479-0.234,0.718
								c1.634-1.409,3.264-2.818,4.894-4.228c0.521-0.451,0.929-0.449,0.001-0.262c0.489-0.104,0.979-0.204,1.473-0.307
								c1.049-0.223,2.096-0.438,3.145-0.654c0.941-0.191,1.48-1.415,0.164-1.145c-1.486,0.312-4.254,0.289-5.445,1.32
								c-1.826,1.577-3.65,3.155-5.479,4.733c-0.157,0.137-0.525,0.502-0.234,0.718c3.102,2.299,7.24,4.079,7.6,8.398
								C141.163,151.587,143.062,151.037,143.007,150.372L143.007,150.372z"/>
						</g>
					</g>
					<g opacity="0.44">
						<g>
							<path fill="#BE1E2D" d="M53.47,73.378c1.755,2.026,4.408,4.111,7.187,3.039c1.673-0.646,3.119-3.19,4.22-4.52
								c1.305-1.575,2.588-3.169,3.86-4.77c-0.559-0.113-1.116-0.227-1.675-0.34c1.564,2.837,3.129,5.674,4.692,8.51
								c0.31,0.561,1.488,0.949,1.793,0.158c0.716-1.861,1.433-3.723,2.148-5.583c0.384-0.995-1.453-1.786-1.834-0.796
								c-0.717,1.862-1.434,3.723-2.15,5.584c0.598,0.053,1.195,0.105,1.793,0.158c-1.564-2.838-3.129-5.674-4.692-8.511
								c-0.283-0.513-1.233-0.896-1.675-0.34c-1.49,1.876-3.003,3.735-4.53,5.58c-1.296,1.564-2.802,4.449-5.454,2.915
								c-0.842-0.487-1.57-1.224-2.204-1.956C54.232,71.681,52.614,72.39,53.47,73.378L53.47,73.378z"/>
						</g>
					</g>
					
						<polyline opacity="0.44" fill="none" stroke="#BE1E2D" stroke-width="0.4" stroke-miterlimit="10" enable-background="new    " points="
						75.675,136.143 83.186,136.143 87.751,132.623 94.195,134.382 99.549,132.623 					"/>
					
						<polyline opacity="0.44" fill="none" stroke="#BE1E2D" stroke-width="0.4" stroke-miterlimit="10" enable-background="new    " points="
						58.748,76.209 62.072,83.503 64.494,81.207 71.064,83.982 73.586,86.979 					"/>
					
						<polyline opacity="0.44" fill="none" stroke="#BE1E2D" stroke-width="0.4" stroke-miterlimit="10" enable-background="new    " points="
						51.747,112.189 54.209,103.407 58.748,106.73 63.245,100.19 63.245,95.479 					"/>
					
						<polyline opacity="0.44" fill="none" stroke="#BE1E2D" stroke-width="0.4" stroke-miterlimit="10" enable-background="new    " points="
						58.748,106.73 64.494,112.189 68.132,110.434 					"/>
					
						<polyline opacity="0.44" fill="none" stroke="#BE1E2D" stroke-width="0.4" stroke-miterlimit="10" enable-background="new    " points="
						110.543,147.05 117.604,143.35 117.604,137.705 128.344,136.143 127.377,122.456 					"/>
					
						<polyline opacity="0.44" fill="none" stroke="#BE1E2D" stroke-width="0.4" stroke-miterlimit="10" enable-background="new    " points="
						108.404,109.461 102.932,112.189 100.377,116.2 91.591,116.2 87.751,118.329 					"/>
					
						<polyline opacity="0.44" fill="none" stroke="#BE1E2D" stroke-width="0.4" stroke-miterlimit="10" enable-background="new    " points="
						75.419,45.894 83.576,48.207 90.419,45.855 88.658,49.734 94.195,48.207 					"/>
					
						<polyline opacity="0.44" fill="none" stroke="#BE1E2D" stroke-width="0.4" stroke-miterlimit="10" enable-background="new    " points="
						161.154,133.602 160.675,125.584 157.157,125.584 162.688,116.006 162.688,112.189 					"/>
				</g>
				<g>
					
						<radialGradient id="SVGID_8_" cx="946.9697" cy="-2130.2422" r="3.1585" gradientTransform="matrix(0.7308 0.6825 0.6825 -0.7308 792.3906 -2088.218)" gradientUnits="userSpaceOnUse">
						<stop  offset="0" style="stop-color:#FF815D"/>
						<stop  offset="0.1399" style="stop-color:#F87857"/>
						<stop  offset="0.3668" style="stop-color:#E56045"/>
						<stop  offset="0.6525" style="stop-color:#C73929"/>
						<stop  offset="0.9829" style="stop-color:#9C0302"/>
						<stop  offset="1" style="stop-color:#9A0000"/>
					</radialGradient>
					<path fill="url(#SVGID_8_)" d="M50.658,120.631c0,0-3.292-1.76-7.344-11.17c-4.053-9.408-4.469,2.62-7.537,1.895
						c-3.066-0.726-6.18,0.939-7.526,3.147c-1.35,2.208-4.252,5.586,0.078,6.677c4.331,1.092,5.59-2.548,8.886,0.799
						c3.295,3.35,2.165-4.711,4.82-0.58c2.657,4.135-7.763,6.349-3.437,12.147C42.925,139.348,50.658,120.631,50.658,120.631z"/>
					
						<radialGradient id="SVGID_9_" cx="298.0615" cy="-1247.0557" r="13.2958" gradientTransform="matrix(1 0 0 -1.0122 -250 -1130.2981)" gradientUnits="userSpaceOnUse">
						<stop  offset="0" style="stop-color:#FF815D"/>
						<stop  offset="0.1399" style="stop-color:#F87857"/>
						<stop  offset="0.3668" style="stop-color:#E56045"/>
						<stop  offset="0.6525" style="stop-color:#C73929"/>
						<stop  offset="0.9829" style="stop-color:#9C0302"/>
						<stop  offset="1" style="stop-color:#9A0000"/>
					</radialGradient>
					<path fill="url(#SVGID_9_)" d="M46.341,92.497c0,0-7.455,27.411,11.347,48.034c18.804,20.621,39.771,20.939,49.235,19.265
						c9.464-1.679,17.903-0.392,17.903-0.392l15.705-4.979c0,0-3.572,3.668-7.934,7.398c-4.361,3.729-22.979,3.856-17.887,2.219
						c23.18-7.467-37.487-3.459-33.003-1.188c3.186,1.61-29.06-11.137-36.546-18.047c-7.488-6.914-6.549-14.863-3.755-26.05
						c3.159-12.641-2.9-20.75,1.306-27.189c4.205-6.44,3.488-14.797,5.261-14.873C49.753,76.618,49.906,83.423,46.341,92.497z"/>
					
						<radialGradient id="SVGID_10_" cx="328.9727" cy="-1218.8374" r="44.0222" gradientTransform="matrix(1 0 0 -1.0122 -250 -1130.2981)" gradientUnits="userSpaceOnUse">
						<stop  offset="0" style="stop-color:#FF815D"/>
						<stop  offset="0.1399" style="stop-color:#F87857"/>
						<stop  offset="0.3668" style="stop-color:#E56045"/>
						<stop  offset="0.6525" style="stop-color:#C73929"/>
						<stop  offset="0.9829" style="stop-color:#9C0302"/>
						<stop  offset="1" style="stop-color:#9A0000"/>
					</radialGradient>
					<path fill="url(#SVGID_10_)" d="M49.084,84.038c0,0-9.814,33.433,12.29,57.675c22.104,24.243,48.134,22.018,59.261,20.043
						c11.124-1.97,25.305-10.697,25.305-10.697l9.83-4.963c0,0-0.621,4.289-5.748,8.674c-5.127,4.383-25.817,8.062-31.812,9.988
						c-5.993,1.93-30.081-1.893-33.828-3.787c-3.745-1.896-18.081-4.723-26.883-12.85c-5.989-5.528-17.116-30.846-17.124-31.139
						C40,103.421,41.791,90.942,41.363,81.878c-0.472-9.987,7.243-15.249,9.329-15.338C52.773,66.453,53.274,73.373,49.084,84.038z"
						/>
					
						<radialGradient id="SVGID_11_" cx="337.5996" cy="-1236.3096" r="106.7152" gradientTransform="matrix(1 0 0 -1.0122 -250 -1130.2981)" gradientUnits="userSpaceOnUse">
						<stop  offset="0" style="stop-color:#FF815D"/>
						<stop  offset="0.1399" style="stop-color:#F87857"/>
						<stop  offset="0.3668" style="stop-color:#E56045"/>
						<stop  offset="0.6525" style="stop-color:#C73929"/>
						<stop  offset="0.9829" style="stop-color:#9C0302"/>
						<stop  offset="1" style="stop-color:#9A0000"/>
					</radialGradient>
					<path fill="url(#SVGID_11_)" d="M51.036,74.423c0,0-10.422,35.495,13.046,61.232c23.469,25.737,51.105,23.372,62.917,21.28
						c11.81-2.098,26.864-10.021,26.864-10.021l7.693-8.441c0,0,2.084,6.389-3.358,11.043c-7.912,6.769-2.882,4.993-25.601,12.312
						c-6.361,2.045-36.494,3.596-40.47,1.582c-3.977-2.017-19.882-9.714-29.228-18.343c-9.345-8.627-17.5-21.213-17.898-35.604
						c-0.397-14.395-3.349-29.775,1.899-37.812c5.247-8.038,10.191-13.19,12.404-13.285C61.524,58.27,55.483,63.1,51.036,74.423z"/>
					
						<radialGradient id="SVGID_12_" cx="286.2676" cy="-1205.3359" r="12.0537" gradientTransform="matrix(1 0 0 -1 -250 -1121)" gradientUnits="userSpaceOnUse">
						<stop  offset="0.8589" style="stop-color:#FFFFFF;stop-opacity:0"/>
						<stop  offset="1" style="stop-color:#FFFFFF;stop-opacity:0.95"/>
					</radialGradient>
					<ellipse fill="url(#SVGID_12_)" cx="45.625" cy="83.079" rx="1.802" ry="6.383"/>
					
						<radialGradient id="SVGID_13_" cx="298.7695" cy="-1261.4424" r="14.5217" gradientTransform="matrix(1 0 0 -1 -250 -1121)" gradientUnits="userSpaceOnUse">
						<stop  offset="0.8589" style="stop-color:#FFFFFF;stop-opacity:0"/>
						<stop  offset="1" style="stop-color:#FFFFFF;stop-opacity:0.95"/>
					</radialGradient>
					<path fill="url(#SVGID_13_)" d="M62.745,137.695c0,3.525-4.754,2.863-5.751,2.863c-0.992,0-1.8-2.857-1.8-6.388
						s-0.994-5.272,0-5.272C56.189,128.898,62.745,134.17,62.745,137.695z"/>
					
						<radialGradient id="SVGID_14_" cx="331.0352" cy="-1290.374" r="20.4851" gradientTransform="matrix(1 0 0 -1 -250 -1121)" gradientUnits="userSpaceOnUse">
						<stop  offset="0.8589" style="stop-color:#FFFFFF;stop-opacity:0"/>
						<stop  offset="1" style="stop-color:#FFFFFF;stop-opacity:0.95"/>
					</radialGradient>
					<path fill="url(#SVGID_14_)" d="M79.653,148.673c0,0,14.562,6.841,18.39,7.64c3.83,0.797-1.759,2.047-6.256,2.08
						c-4.496,0.035-7.943,3.146-7.686-0.269c0.257-3.41,7.154-0.479,3.51-3.021c-3.644-2.543-15.93-4.016-11.937-4.547
						C79.667,150.021,79.653,148.673,79.653,148.673z"/>
				</g>
			</g>
		</g>
	</g>
</g>
</svg>
