<?xml version="1.0" encoding="utf-8"?>
<!-- Generator: Adobe Illustrator 15.0.0, SVG Export Plug-In . SVG Version: 6.00 Build 0)  -->
<!DOCTYPE svg PUBLIC "-//W3C//DTD SVG 1.1//EN" "http://www.w3.org/Graphics/SVG/1.1/DTD/svg11.dtd">
<svg version="1.1" id="Layer_1" xmlns="http://www.w3.org/2000/svg" xmlns:xlink="http://www.w3.org/1999/xlink" x="0px" y="0px"
	 width="200px" height="200px" viewBox="0 0 200 200" enable-background="new 0 0 200 200" xml:space="preserve">
<g id="icon">
	<g id="Layer_2">
	</g>
	<g id="Layer_1_1_">
		<g>
			<g opacity="0.44">
				
					<radialGradient id="SVGID_1_" cx="250" cy="-650.3989" r="78.3923" gradientTransform="matrix(1 0 0 -1 -150 -530)" gradientUnits="userSpaceOnUse">
					<stop  offset="0" style="stop-color:#130C0E;stop-opacity:0"/>
					<stop  offset="0.811" style="stop-color:#130C0E;stop-opacity:0.5555"/>
					<stop  offset="0.9509" style="stop-color:#130C0E;stop-opacity:0.6512"/>
				</radialGradient>
				<circle fill="url(#SVGID_1_)" cx="100" cy="120.399" r="56.984"/>
			</g>
			<g opacity="0.42">
				
					<linearGradient id="SVGID_2_" gradientUnits="userSpaceOnUse" x1="250" y1="-645.998" x2="250" y2="-714.5024" gradientTransform="matrix(1 0 0 -1 -150 -530)">
					<stop  offset="0" style="stop-color:#837881;stop-opacity:0"/>
					<stop  offset="0.3534" style="stop-color:#7D737A;stop-opacity:0.2436"/>
					<stop  offset="0.8632" style="stop-color:#6E6667;stop-opacity:0.5951"/>
					<stop  offset="0.8848" style="stop-color:#6D6566;stop-opacity:0.61"/>
				</linearGradient>
				<path fill="url(#SVGID_2_)" d="M100,147.85c-22.567,0-41.981-13.441-50.71-32.752c-0.18,1.742-0.274,3.512-0.274,5.303
					c0,28.158,22.826,50.983,50.984,50.983s50.984-22.825,50.984-50.983c0-1.791-0.096-3.561-0.274-5.303
					C141.98,134.405,122.566,147.85,100,147.85z"/>
			</g>
			
				<linearGradient id="SVGID_3_" gradientUnits="userSpaceOnUse" x1="244.3105" y1="-733.4629" x2="259.3105" y2="-514.468" gradientTransform="matrix(1 0 0 -1 -150 -530)">
				<stop  offset="0" style="stop-color:#FFFFFF"/>
				<stop  offset="0.0896" style="stop-color:#FFFFFF;stop-opacity:0.9104"/>
				<stop  offset="1" style="stop-color:#FFFFFF;stop-opacity:0"/>
			</linearGradient>
			<path opacity="0.53" fill="url(#SVGID_3_)" enable-background="new    " d="M100,67.416c29.216,0,52.984,23.769,52.984,52.984
				c0,29.217-23.771,52.981-52.984,52.981S47.016,149.616,47.016,120.4C47.016,91.185,70.784,67.416,100,67.416 M100,63.416
				c-31.472,0-56.984,25.513-56.984,56.984c0,31.472,25.513,56.981,56.984,56.981c31.471,0,56.984-25.513,56.984-56.981
				C156.984,88.929,131.473,63.416,100,63.416L100,63.416z"/>
			
				<linearGradient id="SVGID_4_" gradientUnits="userSpaceOnUse" x1="244.3105" y1="-733.4629" x2="259.3105" y2="-514.468" gradientTransform="matrix(1 0 0 -1 -150 -530)">
				<stop  offset="0" style="stop-color:#FFFFFF"/>
				<stop  offset="0.0896" style="stop-color:#FFFFFF;stop-opacity:0.9104"/>
				<stop  offset="1" style="stop-color:#FFFFFF;stop-opacity:0"/>
			</linearGradient>
			<path opacity="0.53" fill="url(#SVGID_4_)" enable-background="new    " d="M100,65.172c30.452,0,55.229,24.775,55.229,55.227
				c0,30.453-24.773,55.229-55.229,55.229s-55.228-24.774-55.228-55.229C44.772,89.947,69.548,65.172,100,65.172 M100,63.416
				c-31.472,0-56.984,25.513-56.984,56.984c0,31.472,25.513,56.981,56.984,56.981c31.471,0,56.984-25.513,56.984-56.981
				C156.984,88.929,131.473,63.416,100,63.416L100,63.416z"/>
			
				<radialGradient id="SVGID_5_" cx="263.459" cy="-698.6973" r="113.738" gradientTransform="matrix(1 0 0 -1 -150 -530)" gradientUnits="userSpaceOnUse">
				<stop  offset="0" style="stop-color:#130C0E;stop-opacity:0"/>
				<stop  offset="0.9385" style="stop-color:#130C0E;stop-opacity:0.6112"/>
				<stop  offset="1" style="stop-color:#130C0E;stop-opacity:0.6512"/>
			</radialGradient>
			<path opacity="0.44" fill="url(#SVGID_5_)" enable-background="new    " d="M125.469,74.899c0,0-0.941,0.443,2.396,2.596
				c7.363,4.75,17.803,22.571,19.113,33.729c1.312,11.154,1.504,37.732-14.25,39.049c-15.752,1.312-15.375-7.28-18-35.18
				c-2.625-27.894-5.936-34.824-0.742-36.244C122.729,76.46,124.271,76.158,125.469,74.899z"/>
			
				<radialGradient id="SVGID_6_" cx="146.9434" cy="-500.4917" r="15.6474" gradientTransform="matrix(0.9554 0 0 -0.6715 -40.22 -283.4296)" gradientUnits="userSpaceOnUse">
				<stop  offset="0" style="stop-color:#130C0E;stop-opacity:0"/>
				<stop  offset="0.9385" style="stop-color:#130C0E;stop-opacity:0.6112"/>
				<stop  offset="1" style="stop-color:#130C0E;stop-opacity:0.6512"/>
			</radialGradient>
			<ellipse opacity="0.44" fill="url(#SVGID_6_)" enable-background="new    " cx="100.169" cy="52.65" rx="20.313" ry="4.121"/>
			
				<radialGradient id="SVGID_7_" cx="250.167" cy="-1717.1992" r="45.9507" gradientTransform="matrix(1 0 0 -0.4405 -150 -695.214)" gradientUnits="userSpaceOnUse">
				<stop  offset="0" style="stop-color:#130C0E;stop-opacity:0"/>
				<stop  offset="0.9385" style="stop-color:#130C0E;stop-opacity:0.6112"/>
				<stop  offset="1" style="stop-color:#130C0E;stop-opacity:0.6512"/>
			</radialGradient>
			<path fill="url(#SVGID_7_)" d="M127.863,55.74c0-5.399-12.399-9.776-27.696-9.776c-15.296,0-27.696,4.377-27.696,9.776
				c0,2.027,0,8.917,0,10.945c0,5.399,12.4,9.775,27.696,9.775c15.297,0,27.696-4.376,27.696-9.775
				C127.863,64.657,127.863,57.767,127.863,55.74z"/>
			
				<linearGradient id="SVGID_8_" gradientUnits="userSpaceOnUse" x1="229.7139" y1="-595.2109" x2="271.0352" y2="-595.2109" gradientTransform="matrix(1 0 0 -1 -150 -530)">
				<stop  offset="0" style="stop-color:#81693C"/>
				<stop  offset="0.4847" style="stop-color:#DFAA76"/>
				<stop  offset="1" style="stop-color:#81693C"/>
			</linearGradient>
			<path fill="url(#SVGID_8_)" d="M82.454,57.938c0,0-3.382-0.817-2.632,1.785c0.369,1.281-0.715,2.266,0.748,3.172
				c1.283,0.795,2.619,2.272,2.292,3.291c-0.297,0.928-3.354,0.118-1.042,2.467c2.688,2.731,10.145,3.937,16.13,3.997
				c10.983,0.11,18.681-1.765,20.313-4.397c1.068-1.727,0.442-2.66-0.037-2.925c-1.943-1.068-2.502-0.884,1.209-2.759
				c2.373-1.2,2.103-5.292-0.793-4.752c-2.896,0.54-19.658,4.796-35.783,0.685"/>
			
				<linearGradient id="SVGID_9_" gradientUnits="userSpaceOnUse" x1="-134.626" y1="-786.0308" x2="-126.2693" y2="-762.0894" gradientTransform="matrix(0.9465 -0.3227 -0.3227 -0.9465 -25.5116 -720.2516)">
				<stop  offset="0" style="stop-color:#FFFFFF"/>
				<stop  offset="0.0896" style="stop-color:#FFFFFF;stop-opacity:0.9104"/>
				<stop  offset="1" style="stop-color:#FFFFFF;stop-opacity:0"/>
			</linearGradient>
			<path opacity="0.75" fill="url(#SVGID_9_)" enable-background="new    " d="M85.718,57.767c0,0-5.336,2.969-1.18,4.205
				c2.41,0.714,19.303,3.238,31.96-0.76c1.425-0.451,3.064-4.805,1.393-3.899C119.746,56.308,104.163,60.403,85.718,57.767z"/>
			
				<linearGradient id="SVGID_10_" gradientUnits="userSpaceOnUse" x1="231.4463" y1="-573.8398" x2="235.5428" y2="-591.2502" gradientTransform="matrix(1 0 0 -1 -150 -530)">
				<stop  offset="0" style="stop-color:#FFFFFF"/>
				<stop  offset="0.0503" style="stop-color:#FFFFFF;stop-opacity:0.9498"/>
				<stop  offset="0.5613" style="stop-color:#FFFFFF;stop-opacity:0.4395"/>
				<stop  offset="1" style="stop-color:#FFFFFF;stop-opacity:0"/>
			</linearGradient>
			<path fill="url(#SVGID_10_)" d="M92.361,49.196c0,0,1.414-1.629-1.803-1.171c-3.539,0.504-8.463,0.632-14.584,4.236
				c-4.826,2.842,0.631,8.29,3.181,6.917c2.547-1.373-6.088-3.611,2.128-7.347C87.748,48.894,92.361,52.135,92.361,49.196z"/>
			
				<linearGradient id="SVGID_11_" gradientUnits="userSpaceOnUse" x1="4555.0928" y1="-573.8398" x2="4559.189" y2="-591.2484" gradientTransform="matrix(-1 0 0 -1 4673.5039 -530)">
				<stop  offset="0" style="stop-color:#FFFFFF"/>
				<stop  offset="0.0503" style="stop-color:#FFFFFF;stop-opacity:0.9498"/>
				<stop  offset="0.5613" style="stop-color:#FFFFFF;stop-opacity:0.4395"/>
				<stop  offset="1" style="stop-color:#FFFFFF;stop-opacity:0"/>
			</linearGradient>
			<path fill="url(#SVGID_11_)" d="M107.496,49.196c0,0-1.414-1.629,1.802-1.171c3.539,0.504,8.466,0.632,14.585,4.236
				c4.826,2.842-0.631,8.29-3.18,6.917c-2.547-1.373,6.088-3.611-2.129-7.347C112.109,48.894,107.496,52.135,107.496,49.196z"/>
			<g>
				
					<linearGradient id="SVGID_12_" gradientUnits="userSpaceOnUse" x1="125.8887" y1="-488.4033" x2="167.9941" y2="-488.4033" gradientTransform="matrix(0.9554 0 0 -0.6715 -40.22 -283.4296)">
					<stop  offset="0" style="stop-color:#7C5320"/>
					<stop  offset="0.5153" style="stop-color:#FAC28D"/>
					<stop  offset="1" style="stop-color:#7C5320"/>
				</linearGradient>
				<path fill="url(#SVGID_12_)" d="M117.689,53.216c0,1.962-7.844,3.554-17.522,3.554c-9.679,0-17.522-1.592-17.522-3.554
					c0-1.133-2.591-20.709-2.591-20.709c2.981-0.476,36.139,0,40.227,0C120.279,32.507,117.689,51.253,117.689,53.216z"/>
				
					<linearGradient id="SVGID_13_" gradientUnits="userSpaceOnUse" x1="250.168" y1="-586.5186" x2="250.168" y2="-564.4105" gradientTransform="matrix(1 0 0 -1 -150 -530)">
					<stop  offset="0" style="stop-color:#7C5320"/>
					<stop  offset="1" style="stop-color:#7C5320;stop-opacity:0"/>
				</linearGradient>
				<path fill="url(#SVGID_13_)" d="M117.689,53.216c0,1.962-7.844,3.554-17.522,3.554c-9.679,0-17.522-1.592-17.522-3.554
					c0-1.133-2.591-20.709-2.591-20.709c2.981-0.476,36.139,0,40.227,0C120.279,32.507,117.689,51.253,117.689,53.216z"/>
				
					<linearGradient id="SVGID_14_" gradientUnits="userSpaceOnUse" x1="249.9932" y1="-560.7422" x2="251.8436" y2="-579.4318" gradientTransform="matrix(1 0 0 -1 -150 -530)">
					<stop  offset="0" style="stop-color:#FAC28D"/>
					<stop  offset="1" style="stop-color:#7C5320"/>
				</linearGradient>
				<ellipse fill="url(#SVGID_14_)" cx="100.167" cy="32.507" rx="20.112" ry="4.08"/>
				
					<linearGradient id="SVGID_15_" gradientUnits="userSpaceOnUse" x1="249.9932" y1="-560.7422" x2="251.8436" y2="-579.4318" gradientTransform="matrix(1 0 0 -1 -150 -530)">
					<stop  offset="0" style="stop-color:#FAC28D"/>
					<stop  offset="1" style="stop-color:#7C5320"/>
				</linearGradient>
				<ellipse fill="url(#SVGID_15_)" cx="100.167" cy="32.507" rx="20.112" ry="4.08"/>
				
					<linearGradient id="SVGID_16_" gradientUnits="userSpaceOnUse" x1="249.7881" y1="-564.1738" x2="254.9358" y2="-541.8668" gradientTransform="matrix(1 0 0 -1 -150 -530)">
					<stop  offset="0" style="stop-color:#FAC28D"/>
					<stop  offset="1" style="stop-color:#7C5320"/>
				</linearGradient>
				<path fill="url(#SVGID_16_)" d="M100.167,35.192c-9.367,0-17.309-1.173-20.099-2.797c-0.006,0.038-0.015,0.074-0.015,0.112
					c0,2.253,9.006,4.08,20.113,4.08c11.109,0,20.113-1.826,20.113-4.08c0-0.038-0.01-0.074-0.014-0.112
					C117.477,34.02,109.535,35.192,100.167,35.192z"/>
			</g>
			<g opacity="0.53">
				
					<linearGradient id="SVGID_17_" gradientUnits="userSpaceOnUse" x1="250" y1="-610.2607" x2="250" y2="-633.0323" gradientTransform="matrix(1 0 0 -1 -150 -530)">
					<stop  offset="0" style="stop-color:#FFFFFF"/>
					<stop  offset="0.0896" style="stop-color:#FFFFFF;stop-opacity:0.9104"/>
					<stop  offset="1" style="stop-color:#FFFFFF;stop-opacity:0"/>
				</linearGradient>
				<path fill="url(#SVGID_17_)" d="M100,98.436c22.566,0,41.98,13.443,50.71,32.751c0.181-1.742,0.274-3.515,0.274-5.306
					c0-28.158-22.826-50.984-50.984-50.984s-50.984,22.826-50.984,50.984c0,1.791,0.095,3.562,0.274,5.306
					C58.019,111.879,77.433,98.436,100,98.436z"/>
			</g>
			<g opacity="0.53">
				
					<linearGradient id="SVGID_18_" gradientUnits="userSpaceOnUse" x1="5561.4434" y1="3525.0234" x2="5560.4434" y2="3475.0229" gradientTransform="matrix(-1 0 0 1 5660.5449 -3369.9336)">
					<stop  offset="0" style="stop-color:#FFFFFF"/>
					<stop  offset="0.0896" style="stop-color:#FFFFFF;stop-opacity:0.9104"/>
					<stop  offset="1" style="stop-color:#FFFFFF;stop-opacity:0"/>
				</linearGradient>
				<path fill="url(#SVGID_18_)" d="M100,137.509c-22.567,0-41.981-13.442-50.71-32.752c-0.18,1.744-0.274,3.513-0.274,5.304
					c0,28.157,22.826,50.984,50.984,50.984s50.984-22.827,50.984-50.984c0-1.791-0.096-3.56-0.274-5.304
					C141.98,124.064,122.566,137.509,100,137.509z"/>
			</g>
			
				<radialGradient id="SVGID_19_" cx="819.6289" cy="-1261.9219" r="171.7243" gradientTransform="matrix(1.0033 0.242 0.2213 -0.9433 -474.6323 -1209.2466)" gradientUnits="userSpaceOnUse">
				<stop  offset="0" style="stop-color:#130C0E;stop-opacity:0"/>
				<stop  offset="0.9385" style="stop-color:#130C0E;stop-opacity:0.6112"/>
				<stop  offset="1" style="stop-color:#130C0E;stop-opacity:0.6512"/>
			</radialGradient>
			<path fill="url(#SVGID_19_)" d="M77.574,159.544c0,0-6.592-16.172-5.6-32.228c0.996-16.051,4.976-23.875,9.15-33.771
				c4.181-9.895,9.579-12.594,5.72-13.959c-3.853-1.365-4.664-0.834-9.694,2.572c-10.996,7.447-20.395,30.047-20.223,41.932
				C57.097,135.979,60.698,157.145,77.574,159.544z"/>
		</g>
	</g>
</g>
</svg>
