<?xml version="1.0" encoding="utf-8"?>
<!-- Generator: Adobe Illustrator 15.0.0, SVG Export Plug-In . SVG Version: 6.00 Build 0)  -->
<!DOCTYPE svg PUBLIC "-//W3C//DTD SVG 1.1//EN" "http://www.w3.org/Graphics/SVG/1.1/DTD/svg11.dtd">
<svg version="1.1" id="Layer_1" xmlns="http://www.w3.org/2000/svg" xmlns:xlink="http://www.w3.org/1999/xlink" x="0px" y="0px"
	 width="200px" height="200px" viewBox="0 0 200 200" enable-background="new 0 0 200 200" xml:space="preserve">
<g id="icon">
	<g id="Layer_2">
	</g>
	<g id="Layer_1_1_">
		<g>
			<g>
				
					<radialGradient id="SVGID_1_" cx="230.1836" cy="-660.7637" r="33.5938" gradientTransform="matrix(1 0 0 -1 -150 -530)" gradientUnits="userSpaceOnUse">
					<stop  offset="0.1758" style="stop-color:#C9BDF4"/>
					<stop  offset="1" style="stop-color:#650086;stop-opacity:0"/>
				</radialGradient>
				<circle fill="url(#SVGID_1_)" cx="80.183" cy="130.764" r="33.594"/>
				
					<radialGradient id="SVGID_2_" cx="185.8262" cy="-638.9409" r="23.0251" gradientTransform="matrix(1 0 0 -1 -150 -530)" gradientUnits="userSpaceOnUse">
					<stop  offset="0.1758" style="stop-color:#C9BDF4"/>
					<stop  offset="1" style="stop-color:#650086;stop-opacity:0"/>
				</radialGradient>
				<circle fill="url(#SVGID_2_)" cx="35.827" cy="108.941" r="23.025"/>
				
					<radialGradient id="SVGID_3_" cx="303.8223" cy="-614.1973" r="20.8342" gradientTransform="matrix(1 0 0 -1 -150 -530)" gradientUnits="userSpaceOnUse">
					<stop  offset="0.1758" style="stop-color:#C9BDF4"/>
					<stop  offset="1" style="stop-color:#650086;stop-opacity:0"/>
				</radialGradient>
				<circle fill="url(#SVGID_3_)" cx="153.822" cy="84.197" r="20.834"/>
				
					<radialGradient id="SVGID_4_" cx="264.6914" cy="-643.771" r="25.4006" gradientTransform="matrix(1 0 0 -1 -150 -530)" gradientUnits="userSpaceOnUse">
					<stop  offset="0.1758" style="stop-color:#C9BDF4"/>
					<stop  offset="1" style="stop-color:#650086;stop-opacity:0"/>
				</radialGradient>
				<circle fill="url(#SVGID_4_)" cx="114.691" cy="113.771" r="25.401"/>
				
					<radialGradient id="SVGID_5_" cx="264.6904" cy="-585.231" r="15.6689" gradientTransform="matrix(1 0 0 -1 -150 -530)" gradientUnits="userSpaceOnUse">
					<stop  offset="0.1758" style="stop-color:#C9BDF4"/>
					<stop  offset="1" style="stop-color:#650086;stop-opacity:0"/>
				</radialGradient>
				<circle fill="url(#SVGID_5_)" cx="114.691" cy="55.231" r="15.669"/>
				
					<radialGradient id="SVGID_6_" cx="307.4961" cy="-583.1768" r="15.6689" gradientTransform="matrix(1 0 0 -1 -150 -530)" gradientUnits="userSpaceOnUse">
					<stop  offset="0.1758" style="stop-color:#C9BDF4"/>
					<stop  offset="1" style="stop-color:#650086;stop-opacity:0"/>
				</radialGradient>
				<circle fill="url(#SVGID_6_)" cx="157.496" cy="53.177" r="15.669"/>
				
					<radialGradient id="SVGID_7_" cx="214.0039" cy="-589.6123" r="28.176" gradientTransform="matrix(1 0 0 -1 -150 -530)" gradientUnits="userSpaceOnUse">
					<stop  offset="0.1758" style="stop-color:#C9BDF4"/>
					<stop  offset="1" style="stop-color:#650086;stop-opacity:0"/>
				</radialGradient>
				<circle fill="url(#SVGID_7_)" cx="64.003" cy="59.612" r="28.176"/>
				
					<radialGradient id="SVGID_8_" cx="251.7949" cy="-590.1094" r="28.176" gradientTransform="matrix(1 0 0 -1 -150 -530)" gradientUnits="userSpaceOnUse">
					<stop  offset="0.1758" style="stop-color:#C9BDF4"/>
					<stop  offset="1" style="stop-color:#650086;stop-opacity:0"/>
				</radialGradient>
				<path fill="url(#SVGID_8_)" d="M129.971,60.108c0,15.562-12.613,28.177-28.173,28.177c-15.563,0-28.178-12.616-28.178-28.177
					c0-15.56,12.614-28.175,28.178-28.175C117.355,31.933,129.971,44.548,129.971,60.108z"/>
				
					<radialGradient id="SVGID_9_" cx="268.5049" cy="-604.6611" r="14.0879" gradientTransform="matrix(1 0 0 -1 -150 -530)" gradientUnits="userSpaceOnUse">
					<stop  offset="0.1758" style="stop-color:#C9BDF4"/>
					<stop  offset="1" style="stop-color:#650086;stop-opacity:0"/>
				</radialGradient>
				<circle fill="url(#SVGID_9_)" cx="118.505" cy="74.661" r="14.088"/>
				
					<radialGradient id="SVGID_10_" cx="246.5977" cy="-569.9429" r="10.0261" gradientTransform="matrix(1 0 0 -1 -150 -530)" gradientUnits="userSpaceOnUse">
					<stop  offset="0.1758" style="stop-color:#C9BDF4"/>
					<stop  offset="1" style="stop-color:#650086;stop-opacity:0"/>
				</radialGradient>
				<circle fill="url(#SVGID_10_)" cx="96.598" cy="39.943" r="10.026"/>
				
					<radialGradient id="SVGID_11_" cx="296.4824" cy="-593.3652" r="8.4941" gradientTransform="matrix(1 0 0 -1 -150 -530)" gradientUnits="userSpaceOnUse">
					<stop  offset="0.1758" style="stop-color:#C9BDF4"/>
					<stop  offset="1" style="stop-color:#650086;stop-opacity:0"/>
				</radialGradient>
				<circle fill="url(#SVGID_11_)" cx="146.482" cy="63.365" r="8.494"/>
				
					<radialGradient id="SVGID_12_" cx="291.5879" cy="-549.1118" r="5.8943" gradientTransform="matrix(1 0 0 -1 -150 -530)" gradientUnits="userSpaceOnUse">
					<stop  offset="0.1758" style="stop-color:#C9BDF4"/>
					<stop  offset="1" style="stop-color:#650086;stop-opacity:0"/>
				</radialGradient>
				<circle fill="url(#SVGID_12_)" cx="141.588" cy="19.112" r="5.894"/>
				
					<radialGradient id="SVGID_13_" cx="178.5518" cy="-608.1797" r="8.575" gradientTransform="matrix(1 0 0 -1 -150 -530)" gradientUnits="userSpaceOnUse">
					<stop  offset="0.1758" style="stop-color:#C9BDF4"/>
					<stop  offset="1" style="stop-color:#650086;stop-opacity:0"/>
				</radialGradient>
				<circle fill="url(#SVGID_13_)" cx="28.552" cy="78.18" r="8.575"/>
				
					<radialGradient id="SVGID_14_" cx="210.0703" cy="-555.3418" r="6.2302" gradientTransform="matrix(1 0 0 -1 -150 -530)" gradientUnits="userSpaceOnUse">
					<stop  offset="0.1758" style="stop-color:#C9BDF4"/>
					<stop  offset="1" style="stop-color:#650086;stop-opacity:0"/>
				</radialGradient>
				<circle fill="url(#SVGID_14_)" cx="60.071" cy="25.342" r="6.23"/>
				
					<radialGradient id="SVGID_15_" cx="307.4961" cy="-638.8066" r="29.7029" gradientTransform="matrix(1 0 0 -1 -150 -530)" gradientUnits="userSpaceOnUse">
					<stop  offset="0.1758" style="stop-color:#C9BDF4"/>
					<stop  offset="1" style="stop-color:#650086;stop-opacity:0"/>
				</radialGradient>
				<circle fill="url(#SVGID_15_)" cx="157.496" cy="108.807" r="29.703"/>
			</g>
			<g>
				<g>
					
						<linearGradient id="SVGID_16_" gradientUnits="userSpaceOnUse" x1="289.6377" y1="-677.3711" x2="264.8707" y2="-665.5772" gradientTransform="matrix(1 0 0 -1 -150 -530)">
						<stop  offset="0" style="stop-color:#B249FF"/>
						<stop  offset="1" style="stop-color:#600A9F"/>
					</linearGradient>
					<polygon fill="url(#SVGID_16_)" points="138.318,97.379 99.145,111.68 67.521,96.078 36.755,136.617 95.528,175.73 
						167.562,142.316 					"/>
					
						<linearGradient id="SVGID_17_" gradientUnits="userSpaceOnUse" x1="256.0127" y1="-642.4551" x2="261.8232" y2="-671.9916" gradientTransform="matrix(1 0 0 -1 -150 -530)">
						<stop  offset="0" style="stop-color:#B249FF"/>
						<stop  offset="1" style="stop-color:#600A9F"/>
					</linearGradient>
					<polygon fill="url(#SVGID_17_)" points="138.318,97.379 99.145,111.68 67.521,96.078 102.141,84.119 					"/>
					
						<linearGradient id="SVGID_18_" gradientUnits="userSpaceOnUse" x1="252.9189" y1="-620.0244" x2="252.9189" y2="-630.9201" gradientTransform="matrix(1 0 0 -1 -150 -530)">
						<stop  offset="0" style="stop-color:#B249FF"/>
						<stop  offset="1" style="stop-color:#DC6FFF"/>
					</linearGradient>
					<polygon fill="url(#SVGID_18_)" points="99.145,109.857 69.692,95.328 67.521,96.078 99.145,111.68 138.318,97.379 
						135.828,96.467 					"/>
					
						<linearGradient id="SVGID_19_" gradientUnits="userSpaceOnUse" x1="252.1592" y1="-709.8477" x2="252.1592" y2="-648.3443" gradientTransform="matrix(1 0 0 -1 -150 -530)">
						<stop  offset="0" style="stop-color:#B249FF"/>
						<stop  offset="1" style="stop-color:#600A9F"/>
					</linearGradient>
					<polygon fill="url(#SVGID_19_)" points="167.562,142.316 95.528,175.73 36.755,136.617 99.327,108.807 					"/>
					<g opacity="0.44">
						<g>
							
								<radialGradient id="SVGID_20_" cx="477.6309" cy="-1156.9028" r="46.6159" gradientTransform="matrix(0.9964 -0.05 -0.0124 -1.0029 -425.1021 -1007.9902)" gradientUnits="userSpaceOnUse">
								<stop  offset="0" style="stop-color:#130C0E;stop-opacity:0"/>
								<stop  offset="0.9385" style="stop-color:#130C0E;stop-opacity:0.6112"/>
								<stop  offset="1" style="stop-color:#130C0E;stop-opacity:0.6512"/>
							</radialGradient>
							<path fill="url(#SVGID_20_)" d="M28.552,137.777l66.113,43.998l6.586-103.865c0,0-6.323-0.035-12.424-1.334
								c-5.679-1.208-11.165-3.688-11.165-3.688L28.552,137.777z"/>
						</g>
						<g>
							
								<radialGradient id="SVGID_21_" cx="477.1367" cy="-1172.8906" r="37.5317" gradientTransform="matrix(0.9964 -0.05 -0.0124 -1.0029 -425.1021 -1007.9902)" gradientUnits="userSpaceOnUse">
								<stop  offset="0" style="stop-color:#130C0E;stop-opacity:0"/>
								<stop  offset="0.9385" style="stop-color:#130C0E;stop-opacity:0.6112"/>
								<stop  offset="1" style="stop-color:#130C0E;stop-opacity:0.6512"/>
							</radialGradient>
							<polygon fill="url(#SVGID_21_)" points="28.552,137.777 94.665,181.775 100.587,103.825 							"/>
						</g>
						
							<radialGradient id="SVGID_22_" cx="547.4355" cy="-1158.1362" r="47.5739" gradientTransform="matrix(0.9964 -0.05 -0.0124 -1.0029 -425.1021 -1007.9902)" gradientUnits="userSpaceOnUse">
							<stop  offset="0" style="stop-color:#130C0E;stop-opacity:0"/>
							<stop  offset="0.9385" style="stop-color:#130C0E;stop-opacity:0.6112"/>
							<stop  offset="1" style="stop-color:#130C0E;stop-opacity:0.6512"/>
						</radialGradient>
						<path fill="url(#SVGID_22_)" d="M94.665,181.775l81.028-37.586l-48.715-71.301c0,0-5.537,2.362-11.096,3.627
							c-6.854,1.559-14.635,1.395-14.635,1.395L94.665,181.775z"/>
						
							<radialGradient id="SVGID_23_" cx="547.4355" cy="-1172.8906" r="39.7942" gradientTransform="matrix(0.9964 -0.05 -0.0124 -1.0029 -425.1021 -1007.9902)" gradientUnits="userSpaceOnUse">
							<stop  offset="0" style="stop-color:#130C0E;stop-opacity:0"/>
							<stop  offset="0.9385" style="stop-color:#130C0E;stop-opacity:0.6112"/>
							<stop  offset="1" style="stop-color:#130C0E;stop-opacity:0.6512"/>
						</radialGradient>
						<polygon fill="url(#SVGID_23_)" points="94.665,181.775 175.693,144.189 100.587,103.825 						"/>
					</g>
					
						<radialGradient id="SVGID_24_" cx="149.0176" cy="-503.0518" r="15.6473" gradientTransform="matrix(0.9554 0 0 -0.6715 -40.22 -283.4296)" gradientUnits="userSpaceOnUse">
						<stop  offset="0" style="stop-color:#130C0E;stop-opacity:0"/>
						<stop  offset="0.9385" style="stop-color:#130C0E;stop-opacity:0.6112"/>
						<stop  offset="1" style="stop-color:#130C0E;stop-opacity:0.6512"/>
					</radialGradient>
					
						<ellipse opacity="0.44" fill="url(#SVGID_24_)" enable-background="new    " cx="102.152" cy="54.369" rx="20.312" ry="4.121"/>
					<g opacity="0.54">
						
							<linearGradient id="SVGID_25_" gradientUnits="userSpaceOnUse" x1="908.3223" y1="-1033.9189" x2="928.7834" y2="-1046.3728" gradientTransform="matrix(0.9617 0.2268 0.2612 -0.9782 -515.0149 -1112.9769)">
							<stop  offset="0" style="stop-color:#FFFFFF;stop-opacity:0"/>
							<stop  offset="0.5215" style="stop-color:#FFFFFF"/>
							<stop  offset="1" style="stop-color:#FFFFFF;stop-opacity:0"/>
						</linearGradient>
						<path fill="url(#SVGID_25_)" d="M94.7,181.775l81.028-37.586l-48.75-71.301c0,0-5.358,2.508-11.396,3.688
							c-6.771,1.323-14.299,1.334-14.299,1.334L94.7,181.775z"/>
						
							<linearGradient id="SVGID_26_" gradientUnits="userSpaceOnUse" x1="936.1592" y1="-1066.3413" x2="918.889" y2="-1058.1173" gradientTransform="matrix(0.9617 0.2268 0.2612 -0.9782 -515.0149 -1112.9769)">
							<stop  offset="0" style="stop-color:#FFFFFF"/>
							<stop  offset="1" style="stop-color:#A212FF;stop-opacity:0"/>
						</linearGradient>
						<path fill="url(#SVGID_26_)" d="M28.587,137.777L94.7,181.775l6.586-103.865c0,0-6.949,0.23-13.116-1.066
							c-5.626-1.182-10.522-3.9-10.522-3.9L28.587,137.777z"/>
					</g>
					
						<radialGradient id="SVGID_27_" cx="252.1523" cy="-1718.918" r="45.948" gradientTransform="matrix(1 0 0 -0.4405 -150 -694.2521)" gradientUnits="userSpaceOnUse">
						<stop  offset="0" style="stop-color:#130C0E;stop-opacity:0"/>
						<stop  offset="0.9385" style="stop-color:#130C0E;stop-opacity:0.6112"/>
						<stop  offset="1" style="stop-color:#130C0E;stop-opacity:0.6512"/>
					</radialGradient>
					<path fill="url(#SVGID_27_)" d="M129.848,57.459c0-5.399-12.397-9.776-27.697-9.776c-15.293,0-27.693,4.377-27.693,9.776
						c0,2.027,0,8.917,0,10.945c0,5.399,12.4,9.775,27.693,9.775c15.3,0,27.697-4.376,27.697-9.775
						C129.848,66.376,129.848,59.486,129.848,57.459z"/>
					
						<linearGradient id="SVGID_28_" gradientUnits="userSpaceOnUse" x1="231.6982" y1="-596.9307" x2="273.0186" y2="-596.9307" gradientTransform="matrix(1 0 0 -1 -150 -530)">
						<stop  offset="0" style="stop-color:#81693C"/>
						<stop  offset="0.4847" style="stop-color:#DFAA76"/>
						<stop  offset="1" style="stop-color:#81693C"/>
					</linearGradient>
					<path fill="url(#SVGID_28_)" d="M84.438,59.657c0,0-3.382-0.817-2.632,1.785c0.369,1.281-0.715,2.266,0.748,3.172
						c1.283,0.795,2.619,2.271,2.292,3.291c-0.297,0.928-3.354,0.118-1.042,2.467c2.688,2.731,10.145,3.937,16.13,3.997
						c10.983,0.11,18.681-1.765,20.313-4.397c1.071-1.727,0.444-2.66-0.037-2.925c-1.942-1.068-2.502-0.884,1.209-2.759
						c2.373-1.2,2.103-5.292-0.793-4.752s-19.655,4.796-35.78,0.685"/>
					
						<linearGradient id="SVGID_29_" gradientUnits="userSpaceOnUse" x1="-133.3037" y1="-788.2969" x2="-124.9483" y2="-764.3591" gradientTransform="matrix(0.9465 -0.3227 -0.3227 -0.9465 -25.5116 -720.2516)">
						<stop  offset="0" style="stop-color:#FFFFFF"/>
						<stop  offset="0.0896" style="stop-color:#FFFFFF;stop-opacity:0.9104"/>
						<stop  offset="1" style="stop-color:#FFFFFF;stop-opacity:0"/>
					</linearGradient>
					<path opacity="0.75" fill="url(#SVGID_29_)" enable-background="new    " d="M87.701,59.486c0,0-5.336,2.969-1.18,4.205
						c2.41,0.714,19.303,3.238,31.959-0.76c1.426-0.451,3.062-4.805,1.394-3.899C121.729,58.027,106.146,62.123,87.701,59.486z"/>
					
						<linearGradient id="SVGID_30_" gradientUnits="userSpaceOnUse" x1="247.9619" y1="-789.5347" x2="258.447" y2="-492.1408" gradientTransform="matrix(1 0 0 -1 -150 -530)">
						<stop  offset="0" style="stop-color:#FFFFFF"/>
						<stop  offset="0.0896" style="stop-color:#FFFFFF;stop-opacity:0.9104"/>
						<stop  offset="1" style="stop-color:#FFFFFF;stop-opacity:0"/>
					</linearGradient>
					<path opacity="0.75" fill="url(#SVGID_30_)" enable-background="new    " d="M102.15,52.525
						c13.815,0,21.619,3.594,22.854,5.253v10.286c-0.145,0.174-0.488,0.52-1.209,0.981l2.354,4.569l-2.812,2.461l48.671,69.194
						l-77.34,36.504l-62.404-42.659l48.951-62.933l3.738-4.146L80.32,68.92c-0.596-0.4-0.891-0.701-1.023-0.859V57.778
						C80.531,56.119,88.332,52.525,102.15,52.525 M102.15,47.683c-15.296,0-27.696,4.377-27.696,9.776c0,2.027,0,8.917,0,10.945
						c0,1.637,1.146,3.179,3.162,4.536l-49.064,64.837l0.26,3.342l66.058,44.433l80.521-38.14l0.34-3.223l-48.75-71.301
						c0,0-0.209,0.089-0.578,0.238c2.193-1.4,3.447-3.009,3.447-4.723c0-2.028,0-8.918,0-10.945
						C129.848,52.06,117.447,47.683,102.15,47.683L102.15,47.683z"/>
					
						<linearGradient id="SVGID_31_" gradientUnits="userSpaceOnUse" x1="233.4307" y1="-575.5605" x2="237.5263" y2="-592.967" gradientTransform="matrix(1 0 0 -1 -150 -530)">
						<stop  offset="0" style="stop-color:#FFFFFF"/>
						<stop  offset="0.0503" style="stop-color:#FFFFFF;stop-opacity:0.9498"/>
						<stop  offset="0.5613" style="stop-color:#FFFFFF;stop-opacity:0.4395"/>
						<stop  offset="1" style="stop-color:#FFFFFF;stop-opacity:0"/>
					</linearGradient>
					<path fill="url(#SVGID_31_)" d="M94.345,50.915c0,0,1.414-1.629-1.803-1.171c-3.539,0.504-8.463,0.632-14.584,4.236
						c-4.826,2.842,0.631,8.29,3.181,6.917c2.547-1.373-6.088-3.611,2.128-7.347C89.731,50.613,94.345,53.854,94.345,50.915z"/>
					
						<linearGradient id="SVGID_32_" gradientUnits="userSpaceOnUse" x1="4553.1113" y1="-575.5596" x2="4557.207" y2="-592.9661" gradientTransform="matrix(-1 0 0 -1 4673.5039 -530)">
						<stop  offset="0" style="stop-color:#FFFFFF"/>
						<stop  offset="0.0503" style="stop-color:#FFFFFF;stop-opacity:0.9498"/>
						<stop  offset="0.5613" style="stop-color:#FFFFFF;stop-opacity:0.4395"/>
						<stop  offset="1" style="stop-color:#FFFFFF;stop-opacity:0"/>
					</linearGradient>
					<path fill="url(#SVGID_32_)" d="M109.479,50.915c0,0-1.414-1.629,1.805-1.171c3.537,0.504,8.465,0.632,14.585,4.236
						c4.823,2.842-0.634,8.29-3.183,6.917c-2.547-1.373,6.088-3.611-2.129-7.347C114.094,50.613,109.479,53.854,109.479,50.915z"/>
					<g>
						
							<linearGradient id="SVGID_33_" gradientUnits="userSpaceOnUse" x1="127.9668" y1="-490.9648" x2="170.0732" y2="-490.9648" gradientTransform="matrix(0.9554 0 0 -0.6715 -40.22 -283.4296)">
							<stop  offset="0" style="stop-color:#7C5320"/>
							<stop  offset="0.5153" style="stop-color:#FAC28D"/>
							<stop  offset="1" style="stop-color:#7C5320"/>
						</linearGradient>
						<path fill="url(#SVGID_33_)" d="M119.674,54.936c0,1.962-7.844,3.554-17.523,3.554c-9.676,0-17.521-1.592-17.521-3.554
							c0-1.133-2.591-20.709-2.591-20.709c2.981-0.476,36.139,0,40.229,0C122.264,34.226,119.674,52.973,119.674,54.936z"/>
						
							<linearGradient id="SVGID_34_" gradientUnits="userSpaceOnUse" x1="252.1543" y1="-588.2393" x2="252.1543" y2="-566.1301" gradientTransform="matrix(1 0 0 -1 -150 -530)">
							<stop  offset="0" style="stop-color:#7C5320"/>
							<stop  offset="1" style="stop-color:#7C5320;stop-opacity:0"/>
						</linearGradient>
						<path fill="url(#SVGID_34_)" d="M119.674,54.936c0,1.962-7.844,3.554-17.523,3.554c-9.676,0-17.521-1.592-17.521-3.554
							c0-1.133-2.591-20.709-2.591-20.709c2.981-0.476,36.139,0,40.229,0C122.264,34.226,119.674,52.973,119.674,54.936z"/>
						
							<linearGradient id="SVGID_35_" gradientUnits="userSpaceOnUse" x1="251.9756" y1="-562.4619" x2="253.826" y2="-581.1516" gradientTransform="matrix(1 0 0 -1 -150 -530)">
							<stop  offset="0" style="stop-color:#FAC28D"/>
							<stop  offset="1" style="stop-color:#7C5320"/>
						</linearGradient>
						<ellipse fill="url(#SVGID_35_)" cx="102.15" cy="34.226" rx="20.113" ry="4.08"/>
						
							<linearGradient id="SVGID_36_" gradientUnits="userSpaceOnUse" x1="251.9756" y1="-562.4619" x2="253.826" y2="-581.1516" gradientTransform="matrix(1 0 0 -1 -150 -530)">
							<stop  offset="0" style="stop-color:#FAC28D"/>
							<stop  offset="1" style="stop-color:#7C5320"/>
						</linearGradient>
						<ellipse fill="url(#SVGID_36_)" cx="102.15" cy="34.226" rx="20.113" ry="4.08"/>
						
							<linearGradient id="SVGID_37_" gradientUnits="userSpaceOnUse" x1="251.7676" y1="-565.8921" x2="256.9146" y2="-543.588" gradientTransform="matrix(1 0 0 -1 -150 -530)">
							<stop  offset="0" style="stop-color:#FAC28D"/>
							<stop  offset="1" style="stop-color:#7C5320"/>
						</linearGradient>
						<path fill="url(#SVGID_37_)" d="M102.15,36.912c-9.367,0-17.312-1.173-20.102-2.797c-0.006,0.038-0.015,0.074-0.015,0.112
							c0,2.253,9.006,4.08,20.11,4.08c11.109,0,20.113-1.826,20.113-4.08c0-0.038-0.009-0.074-0.014-0.112
							C119.46,35.739,111.52,36.912,102.15,36.912z"/>
					</g>
					
						<linearGradient id="SVGID_38_" gradientUnits="userSpaceOnUse" x1="237.165" y1="574.1191" x2="237.0065" y2="586.9234" gradientTransform="matrix(1 0 0 -1 -150 -530)">
						<stop  offset="0" style="stop-color:#FFFFFF"/>
						<stop  offset="0.0896" style="stop-color:#FFFFFF;stop-opacity:0.9104"/>
						<stop  offset="1" style="stop-color:#FFFFFF;stop-opacity:0"/>
					</linearGradient>
					<polygon opacity="0.53" fill="url(#SVGID_38_)" enable-background="new    " points="29.446,137.381 93.378,179.256 
						99.345,78.18 102.759,78.18 96.234,178.396 173.009,143.062 175.729,144.189 96.234,182.671 93.073,181.775 29.446,139.174 
											"/>
				</g>
				<g>
					<g>
						
							<radialGradient id="SVGID_39_" cx="272.2637" cy="-640.7876" r="3.3683" gradientTransform="matrix(1 0 0 -1 -150 -530)" gradientUnits="userSpaceOnUse">
							<stop  offset="0.3681" style="stop-color:#AC65DC;stop-opacity:0"/>
							<stop  offset="0.7817" style="stop-color:#B06DEB;stop-opacity:0.6218"/>
							<stop  offset="1" style="stop-color:#B372F5;stop-opacity:0.95"/>
						</radialGradient>
						<circle fill="url(#SVGID_39_)" cx="122.264" cy="110.358" r="3.924"/>
					</g>
					<g>
						
							<radialGradient id="SVGID_40_" cx="263.0195" cy="-671.4893" r="2.063" gradientTransform="matrix(1 0 0 -1 -150 -530)" gradientUnits="userSpaceOnUse">
							<stop  offset="0.3681" style="stop-color:#AC65DC;stop-opacity:0"/>
							<stop  offset="0.7817" style="stop-color:#B06DEB;stop-opacity:0.6218"/>
							<stop  offset="1" style="stop-color:#B372F5;stop-opacity:0.95"/>
						</radialGradient>
						<circle fill="url(#SVGID_40_)" cx="113.02" cy="141.225" r="2.403"/>
					</g>
					<g>
						
							<radialGradient id="SVGID_41_" cx="265.4219" cy="-654.437" r="2.063" gradientTransform="matrix(1 0 0 -1 -150 -530)" gradientUnits="userSpaceOnUse">
							<stop  offset="0.3681" style="stop-color:#AC65DC;stop-opacity:0"/>
							<stop  offset="0.7817" style="stop-color:#B06DEB;stop-opacity:0.6218"/>
							<stop  offset="1" style="stop-color:#B372F5;stop-opacity:0.95"/>
						</radialGradient>
						<circle fill="url(#SVGID_41_)" cx="115.422" cy="124.174" r="2.403"/>
					</g>
					<g>
						
							<radialGradient id="SVGID_42_" cx="253.7324" cy="-650.7969" r="1.3235" gradientTransform="matrix(1 0 0 -1 -150 -530)" gradientUnits="userSpaceOnUse">
							<stop  offset="0.3681" style="stop-color:#AC65DC;stop-opacity:0"/>
							<stop  offset="0.7817" style="stop-color:#B06DEB;stop-opacity:0.6218"/>
							<stop  offset="1" style="stop-color:#B372F5;stop-opacity:0.95"/>
						</radialGradient>
						<circle fill="url(#SVGID_42_)" cx="103.732" cy="120.629" r="1.541"/>
					</g>
					<g>
						
							<radialGradient id="SVGID_43_" cx="233.3867" cy="-675.752" r="1.3222" gradientTransform="matrix(1 0 0 -1 -150 -530)" gradientUnits="userSpaceOnUse">
							<stop  offset="0.3681" style="stop-color:#AC65DC;stop-opacity:0"/>
							<stop  offset="0.7817" style="stop-color:#B06DEB;stop-opacity:0.6218"/>
							<stop  offset="1" style="stop-color:#B372F5;stop-opacity:0.95"/>
						</radialGradient>
						<circle fill="url(#SVGID_43_)" cx="83.387" cy="145.584" r="1.541"/>
					</g>
					<g>
						
							<radialGradient id="SVGID_44_" cx="281.4238" cy="-648.9814" r="1.3428" gradientTransform="matrix(1 0 0 -1 -150 -530)" gradientUnits="userSpaceOnUse">
							<stop  offset="0.3681" style="stop-color:#AC65DC;stop-opacity:0"/>
							<stop  offset="0.7817" style="stop-color:#B06DEB;stop-opacity:0.6218"/>
							<stop  offset="1" style="stop-color:#B372F5;stop-opacity:0.95"/>
						</radialGradient>
						<circle fill="url(#SVGID_44_)" cx="131.424" cy="118.812" r="1.564"/>
					</g>
					<g>
						
							<radialGradient id="SVGID_45_" cx="242.6992" cy="-654.3174" r="1.1304" gradientTransform="matrix(1 0 0 -1 -150 -530)" gradientUnits="userSpaceOnUse">
							<stop  offset="0.3681" style="stop-color:#AC65DC;stop-opacity:0"/>
							<stop  offset="0.7817" style="stop-color:#B06DEB;stop-opacity:0.6218"/>
							<stop  offset="1" style="stop-color:#B372F5;stop-opacity:0.95"/>
						</radialGradient>
						<circle fill="url(#SVGID_45_)" cx="92.699" cy="124.174" r="1.316"/>
					</g>
					<g>
						
							<radialGradient id="SVGID_46_" cx="233.3887" cy="-640.835" r="1.129" gradientTransform="matrix(1 0 0 -1 -150 -530)" gradientUnits="userSpaceOnUse">
							<stop  offset="0.3681" style="stop-color:#AC65DC;stop-opacity:0"/>
							<stop  offset="0.7817" style="stop-color:#B06DEB;stop-opacity:0.6218"/>
							<stop  offset="1" style="stop-color:#B372F5;stop-opacity:0.95"/>
						</radialGradient>
						<circle fill="url(#SVGID_46_)" cx="83.388" cy="110.691" r="1.316"/>
					</g>
					<g>
						
							<radialGradient id="SVGID_47_" cx="248.1631" cy="-643.0132" r="1.129" gradientTransform="matrix(1 0 0 -1 -150 -530)" gradientUnits="userSpaceOnUse">
							<stop  offset="0.3681" style="stop-color:#AC65DC;stop-opacity:0"/>
							<stop  offset="0.7817" style="stop-color:#B06DEB;stop-opacity:0.6218"/>
							<stop  offset="1" style="stop-color:#B372F5;stop-opacity:0.95"/>
						</radialGradient>
						<circle fill="url(#SVGID_47_)" cx="98.163" cy="112.868" r="1.316"/>
					</g>
					<g>
						
							<radialGradient id="SVGID_48_" cx="235.1123" cy="-656.8848" r="2.4189" gradientTransform="matrix(1 0 0 -1 -150 -530)" gradientUnits="userSpaceOnUse">
							<stop  offset="0.3681" style="stop-color:#AC65DC;stop-opacity:0"/>
							<stop  offset="0.7817" style="stop-color:#B06DEB;stop-opacity:0.6218"/>
							<stop  offset="1" style="stop-color:#B372F5;stop-opacity:0.95"/>
						</radialGradient>
						<circle fill="url(#SVGID_48_)" cx="85.112" cy="126.577" r="2.817"/>
					</g>
					<g>
						
							<radialGradient id="SVGID_49_" cx="237.9297" cy="-640.666" r="2.4189" gradientTransform="matrix(1 0 0 -1 -150 -530)" gradientUnits="userSpaceOnUse">
							<stop  offset="0.3681" style="stop-color:#AC65DC;stop-opacity:0"/>
							<stop  offset="0.7817" style="stop-color:#B06DEB;stop-opacity:0.6218"/>
							<stop  offset="1" style="stop-color:#B372F5;stop-opacity:0.95"/>
						</radialGradient>
						<circle fill="url(#SVGID_49_)" cx="87.93" cy="110.358" r="2.818"/>
					</g>
					<g>
						
							<radialGradient id="SVGID_50_" cx="230.5371" cy="-639.748" r="1.6323" gradientTransform="matrix(1 0 0 -1 -150 -530)" gradientUnits="userSpaceOnUse">
							<stop  offset="0.3681" style="stop-color:#AC65DC;stop-opacity:0"/>
							<stop  offset="0.7817" style="stop-color:#B06DEB;stop-opacity:0.6218"/>
							<stop  offset="1" style="stop-color:#B372F5;stop-opacity:0.95"/>
						</radialGradient>
						<circle fill="url(#SVGID_50_)" cx="80.537" cy="109.539" r="1.9"/>
					</g>
					<g>
						
							<radialGradient id="SVGID_51_" cx="217.5215" cy="-658.5312" r="3.0201" gradientTransform="matrix(1 0 0 -1 -150 -530)" gradientUnits="userSpaceOnUse">
							<stop  offset="0.3681" style="stop-color:#AC65DC;stop-opacity:0"/>
							<stop  offset="0.7817" style="stop-color:#B06DEB;stop-opacity:0.6218"/>
							<stop  offset="1" style="stop-color:#B372F5;stop-opacity:0.95"/>
						</radialGradient>
						<circle fill="url(#SVGID_51_)" cx="67.522" cy="128.146" r="3.519"/>
					</g>
				</g>
			</g>
		</g>
	</g>
</g>
</svg>
