<?xml version="1.0" encoding="utf-8"?>
<!-- Generator: Adobe Illustrator 15.0.0, SVG Export Plug-In . SVG Version: 6.00 Build 0)  -->
<!DOCTYPE svg PUBLIC "-//W3C//DTD SVG 1.1//EN" "http://www.w3.org/Graphics/SVG/1.1/DTD/svg11.dtd">
<svg version="1.1" id="Layer_1" xmlns="http://www.w3.org/2000/svg" xmlns:xlink="http://www.w3.org/1999/xlink" x="0px" y="0px"
	 width="200px" height="200px" viewBox="0 0 200 200" enable-background="new 0 0 200 200" xml:space="preserve">
<g id="icon">
	<g id="Layer_2">
	</g>
	<g id="Layer_1_1_">
		<g>
			<g opacity="0.44">
				<g>
					
						<radialGradient id="SVGID_1_" cx="486.9258" cy="-1121.2495" r="25.9" gradientTransform="matrix(0.9964 -0.05 -0.0124 -1.0029 -425.1021 -1007.9902)" gradientUnits="userSpaceOnUse">
						<stop  offset="0" style="stop-color:#130C0E;stop-opacity:0"/>
						<stop  offset="0.9385" style="stop-color:#130C0E;stop-opacity:0.6112"/>
						<stop  offset="1" style="stop-color:#130C0E;stop-opacity:0.6512"/>
					</radialGradient>
					<path fill="url(#SVGID_1_)" d="M48.628,94.647l48.318,22.796l2.143-46.562c0,0-6.529-0.037-12.828-1.378
						c-5.864-1.248-11.529-3.808-11.529-3.808L48.628,94.647z"/>
				</g>
				<g>
					
						<radialGradient id="SVGID_2_" cx="486.5693" cy="-1125.4229" r="23.6763" gradientTransform="matrix(0.9964 -0.05 -0.0124 -1.0029 -425.1021 -1007.9902)" gradientUnits="userSpaceOnUse">
						<stop  offset="0" style="stop-color:#130C0E;stop-opacity:0"/>
						<stop  offset="0.9385" style="stop-color:#130C0E;stop-opacity:0.6112"/>
						<stop  offset="1" style="stop-color:#130C0E;stop-opacity:0.6512"/>
					</radialGradient>
					<polygon fill="url(#SVGID_2_)" points="48.628,94.647 96.946,117.443 98.403,72.884 					"/>
				</g>
				
					<radialGradient id="SVGID_3_" cx="902.2598" cy="-1071.2607" r="36.591" gradientTransform="matrix(0.9617 0.2268 0.2612 -0.9782 -515.0149 -1112.9769)" gradientUnits="userSpaceOnUse">
					<stop  offset="0" style="stop-color:#130C0E;stop-opacity:0"/>
					<stop  offset="0.9385" style="stop-color:#130C0E;stop-opacity:0.6112"/>
					<stop  offset="1" style="stop-color:#130C0E;stop-opacity:0.6512"/>
				</radialGradient>
				<polygon fill="url(#SVGID_3_)" points="48.628,94.647 96.946,117.443 97.121,184.479 53.953,163.143 				"/>
				<g>
					
						<radialGradient id="SVGID_4_" cx="487.8398" cy="-1194.4727" r="20.9222" gradientTransform="matrix(0.9964 -0.05 -0.0124 -1.0029 -425.1021 -1007.9902)" gradientUnits="userSpaceOnUse">
						<stop  offset="0" style="stop-color:#130C0E;stop-opacity:0"/>
						<stop  offset="0.9385" style="stop-color:#130C0E;stop-opacity:0.6112"/>
						<stop  offset="1" style="stop-color:#130C0E;stop-opacity:0.6512"/>
					</radialGradient>
					<polygon fill="url(#SVGID_4_)" points="97.343,144.479 97.121,184.479 53.953,163.143 					"/>
				</g>
				<g>
					
						<radialGradient id="SVGID_5_" cx="536.7393" cy="-1171.2202" r="36.2892" gradientTransform="matrix(0.9964 -0.05 -0.0124 -1.0029 -425.1021 -1007.9902)" gradientUnits="userSpaceOnUse">
						<stop  offset="0" style="stop-color:#130C0E;stop-opacity:0"/>
						<stop  offset="0.9385" style="stop-color:#130C0E;stop-opacity:0.6112"/>
						<stop  offset="1" style="stop-color:#130C0E;stop-opacity:0.6512"/>
					</radialGradient>
					<polygon fill="url(#SVGID_5_)" points="151.335,95.101 96.946,117.443 97.121,184.479 144.242,162.661 					"/>
				</g>
				<g>
					
						<radialGradient id="SVGID_6_" cx="532.7637" cy="-1192.3696" r="22.9127" gradientTransform="matrix(0.9964 -0.05 -0.0124 -1.0029 -425.1021 -1007.9902)" gradientUnits="userSpaceOnUse">
						<stop  offset="0" style="stop-color:#130C0E;stop-opacity:0"/>
						<stop  offset="0.9385" style="stop-color:#130C0E;stop-opacity:0.6112"/>
						<stop  offset="1" style="stop-color:#130C0E;stop-opacity:0.6512"/>
					</radialGradient>
					<polygon fill="url(#SVGID_6_)" points="97.292,140.261 97.121,184.479 144.242,162.661 					"/>
				</g>
				
					<radialGradient id="SVGID_7_" cx="537.0664" cy="-1122.5239" r="26.2658" gradientTransform="matrix(0.9964 -0.05 -0.0124 -1.0029 -425.1021 -1007.9902)" gradientUnits="userSpaceOnUse">
					<stop  offset="0" style="stop-color:#130C0E;stop-opacity:0"/>
					<stop  offset="0.9385" style="stop-color:#130C0E;stop-opacity:0.6112"/>
					<stop  offset="1" style="stop-color:#130C0E;stop-opacity:0.6512"/>
				</radialGradient>
				<path fill="url(#SVGID_7_)" d="M96.946,117.443L151.335,95.1l-25.681-29.402c0,0-5.717,2.439-11.454,3.745
					c-7.075,1.61-15.111,1.44-15.111,1.44L96.946,117.443z"/>
				
					<radialGradient id="SVGID_8_" cx="537.0664" cy="-1125.4229" r="24.9286" gradientTransform="matrix(0.9964 -0.05 -0.0124 -1.0029 -425.1021 -1007.9902)" gradientUnits="userSpaceOnUse">
					<stop  offset="0" style="stop-color:#130C0E;stop-opacity:0"/>
					<stop  offset="0.9385" style="stop-color:#130C0E;stop-opacity:0.6112"/>
					<stop  offset="1" style="stop-color:#130C0E;stop-opacity:0.6512"/>
				</radialGradient>
				<polygon fill="url(#SVGID_8_)" points="96.946,117.443 151.335,95.101 98.403,72.884 				"/>
			</g>
			
				<radialGradient id="SVGID_9_" cx="146.7871" cy="-491.4463" r="16.1583" gradientTransform="matrix(0.9554 0 0 -0.6715 -40.22 -283.4296)" gradientUnits="userSpaceOnUse">
				<stop  offset="0" style="stop-color:#130C0E;stop-opacity:0"/>
				<stop  offset="0.9385" style="stop-color:#130C0E;stop-opacity:0.6112"/>
				<stop  offset="1" style="stop-color:#130C0E;stop-opacity:0.6512"/>
			</radialGradient>
			<ellipse opacity="0.44" fill="url(#SVGID_9_)" enable-background="new    " cx="100.02" cy="46.576" rx="20.976" ry="4.255"/>
			<g opacity="0.54">
				
					<linearGradient id="SVGID_10_" gradientUnits="userSpaceOnUse" x1="927.2871" y1="-1016.3594" x2="938.3919" y2="-1023.1184" gradientTransform="matrix(0.9617 0.2268 0.2612 -0.9782 -515.0149 -1112.9769)">
					<stop  offset="0" style="stop-color:#FFFFFF;stop-opacity:0"/>
					<stop  offset="0.5215" style="stop-color:#FFFFFF"/>
					<stop  offset="1" style="stop-color:#FFFFFF;stop-opacity:0"/>
				</linearGradient>
				<path fill="url(#SVGID_10_)" d="M96.983,117.443L151.371,95.1l-25.717-29.402c0,0-5.532,2.59-11.766,3.808
					c-6.988,1.366-14.767,1.378-14.767,1.378L96.983,117.443z"/>
				
					<linearGradient id="SVGID_11_" gradientUnits="userSpaceOnUse" x1="916.0273" y1="-1029.5498" x2="905.186" y2="-1024.3873" gradientTransform="matrix(0.9617 0.2268 0.2612 -0.9782 -515.0149 -1112.9769)">
					<stop  offset="0" style="stop-color:#FFFFFF"/>
					<stop  offset="1" style="stop-color:#00060F;stop-opacity:0"/>
				</linearGradient>
				<path fill="url(#SVGID_11_)" d="M48.664,94.647l48.319,22.796l2.142-46.562c0,0-7.175,0.237-13.543-1.101
					c-5.81-1.221-10.865-4.028-10.865-4.028L48.664,94.647z"/>
			</g>
			
				<radialGradient id="SVGID_12_" cx="250.0176" cy="-1711.4014" r="47.4468" gradientTransform="matrix(1 0 0 -0.4405 -150 -698.4562)" gradientUnits="userSpaceOnUse">
				<stop  offset="0" style="stop-color:#130C0E;stop-opacity:0"/>
				<stop  offset="0.9385" style="stop-color:#130C0E;stop-opacity:0.6112"/>
				<stop  offset="1" style="stop-color:#130C0E;stop-opacity:0.6512"/>
			</radialGradient>
			<path fill="url(#SVGID_12_)" d="M128.617,49.766c0-5.575-12.805-10.095-28.6-10.095c-15.794,0-28.599,4.52-28.599,10.095
				c0,2.094,0,9.208,0,11.302c0,5.575,12.805,10.094,28.599,10.094c15.795,0,28.6-4.519,28.6-10.094
				C128.617,58.974,128.617,51.86,128.617,49.766z"/>
			
				<linearGradient id="SVGID_13_" gradientUnits="userSpaceOnUse" x1="228.8975" y1="-589.5454" x2="271.5645" y2="-589.5454" gradientTransform="matrix(1 0 0 -1 -150 -530)">
				<stop  offset="0" style="stop-color:#81693C"/>
				<stop  offset="0.4847" style="stop-color:#DFAA76"/>
				<stop  offset="1" style="stop-color:#81693C"/>
			</linearGradient>
			<path fill="url(#SVGID_13_)" d="M81.728,52.036c0,0-3.492-0.844-2.718,1.843c0.382,1.323-0.737,2.34,0.772,3.275
				c1.325,0.821,2.705,2.346,2.367,3.398c-0.307,0.958-3.464,0.122-1.076,2.547c2.776,2.82,10.476,4.064,16.655,4.127
				c11.342,0.114,19.29-1.822,20.976-4.54c1.106-1.783,0.46-2.747-0.038-3.02c-2.007-1.103-2.583-0.913,1.248-2.849
				c2.449-1.239,2.171-5.465-0.818-4.907c-2.99,0.558-20.296,4.953-36.946,0.707"/>
			
				<linearGradient id="SVGID_14_" gradientUnits="userSpaceOnUse" x1="-132.9424" y1="-780.6846" x2="-124.3178" y2="-755.9761" gradientTransform="matrix(0.9465 -0.3227 -0.3227 -0.9465 -25.5116 -720.2516)">
				<stop  offset="0" style="stop-color:#FFFFFF"/>
				<stop  offset="0.0896" style="stop-color:#FFFFFF;stop-opacity:0.9104"/>
				<stop  offset="1" style="stop-color:#FFFFFF;stop-opacity:0"/>
			</linearGradient>
			<path opacity="0.75" fill="url(#SVGID_14_)" enable-background="new    " d="M85.098,51.86c0,0-5.51,3.065-1.218,4.342
				c2.488,0.737,19.933,3.344,33.001-0.785c1.473-0.465,3.164-4.961,1.438-4.026C120.234,50.353,104.145,54.582,85.098,51.86z"/>
			
				<linearGradient id="SVGID_15_" gradientUnits="userSpaceOnUse" x1="245.2393" y1="-759.916" x2="256.2389" y2="-447.9185" gradientTransform="matrix(1 0 0 -1 -150 -530)">
				<stop  offset="0" style="stop-color:#FFFFFF"/>
				<stop  offset="0.0896" style="stop-color:#FFFFFF;stop-opacity:0.9104"/>
				<stop  offset="1" style="stop-color:#FFFFFF;stop-opacity:0"/>
			</linearGradient>
			<path opacity="0.75" fill="url(#SVGID_15_)" enable-background="new    " d="M100.018,44.671c14.269,0,22.325,3.711,23.6,5.425
				v10.621c-0.149,0.18-0.505,0.537-1.249,1.013l2.43,4.718l-2.906,2.542l25.635,27.229l-6.565,63.723L97.173,180.08l-39.775-19.377
				L52.457,96.03l25.94-26.93l3.86-4.28l-4.782-3.217c-0.615-0.414-0.92-0.724-1.057-0.887v-10.62
				C77.694,48.383,85.749,44.671,100.018,44.671 M100.018,39.671c-15.794,0-28.599,4.52-28.599,10.095c0,2.094,0,9.208,0,11.302
				c0,1.691,1.184,3.283,3.266,4.684L48.628,94.647l5.325,68.494l43.168,21.336l0.036-0.018v0.018l47.12-21.813l7.094-67.561
				L125.654,65.7c0,0-0.215,0.092-0.598,0.246c2.267-1.446,3.561-3.107,3.561-4.877c0-2.094,0-9.208,0-11.302
				C128.617,44.191,115.812,39.671,100.018,39.671L100.018,39.671z"/>
			
				<linearGradient id="SVGID_16_" gradientUnits="userSpaceOnUse" x1="230.6865" y1="-567.4775" x2="234.9169" y2="-585.4562" gradientTransform="matrix(1 0 0 -1 -150 -530)">
				<stop  offset="0" style="stop-color:#FFFFFF"/>
				<stop  offset="0.0503" style="stop-color:#FFFFFF;stop-opacity:0.9498"/>
				<stop  offset="0.5613" style="stop-color:#FFFFFF;stop-opacity:0.4395"/>
				<stop  offset="1" style="stop-color:#FFFFFF;stop-opacity:0"/>
			</linearGradient>
			<path fill="url(#SVGID_16_)" d="M91.958,43.009c0,0,1.46-1.683-1.861-1.209c-3.654,0.521-8.738,0.652-15.06,4.374
				c-4.983,2.935,0.651,8.56,3.284,7.143c2.63-1.417-6.286-3.729,2.197-7.585C87.194,42.698,91.958,46.044,91.958,43.009z"/>
			
				<linearGradient id="SVGID_17_" gradientUnits="userSpaceOnUse" x1="4554.6475" y1="-567.4824" x2="4558.8765" y2="-585.4545" gradientTransform="matrix(-1 0 0 -1 4673.5039 -530)">
				<stop  offset="0" style="stop-color:#FFFFFF"/>
				<stop  offset="0.0503" style="stop-color:#FFFFFF;stop-opacity:0.9498"/>
				<stop  offset="0.5613" style="stop-color:#FFFFFF;stop-opacity:0.4395"/>
				<stop  offset="1" style="stop-color:#FFFFFF;stop-opacity:0"/>
			</linearGradient>
			<path fill="url(#SVGID_17_)" d="M107.586,43.009c0,0-1.46-1.683,1.859-1.209c3.654,0.521,8.74,0.652,15.062,4.374
				c4.981,2.935-0.651,8.56-3.284,7.143c-2.63-1.417,6.286-3.729-2.197-7.585C112.352,42.698,107.586,46.044,107.586,43.009z"/>
			<g>
				
					<linearGradient id="SVGID_18_" gradientUnits="userSpaceOnUse" x1="125.0449" y1="-478.9648" x2="168.5215" y2="-478.9648" gradientTransform="matrix(0.9554 0 0 -0.6715 -40.22 -283.4296)">
					<stop  offset="0" style="stop-color:#7C5320"/>
					<stop  offset="0.5153" style="stop-color:#FAC28D"/>
					<stop  offset="1" style="stop-color:#7C5320"/>
				</linearGradient>
				<path fill="url(#SVGID_18_)" d="M118.111,47.161c0,2.026-8.1,3.67-18.094,3.67c-9.993,0-18.093-1.644-18.093-3.67
					c0-1.17-2.676-21.384-2.676-21.384c3.079-0.491,37.316,0,41.537,0C120.786,25.776,118.111,45.134,118.111,47.161z"/>
				
					<linearGradient id="SVGID_19_" gradientUnits="userSpaceOnUse" x1="250.0176" y1="-580.5713" x2="250.0176" y2="-557.7429" gradientTransform="matrix(1 0 0 -1 -150 -530)">
					<stop  offset="0" style="stop-color:#7C5320"/>
					<stop  offset="1" style="stop-color:#7C5320;stop-opacity:0"/>
				</linearGradient>
				<path fill="url(#SVGID_19_)" d="M118.111,47.161c0,2.026-8.1,3.67-18.094,3.67c-9.993,0-18.093-1.644-18.093-3.67
					c0-1.17-2.676-21.384-2.676-21.384c3.079-0.491,37.316,0,41.537,0C120.786,25.776,118.111,45.134,118.111,47.161z"/>
				
					<linearGradient id="SVGID_20_" gradientUnits="userSpaceOnUse" x1="249.8379" y1="-553.9546" x2="251.7482" y2="-573.249" gradientTransform="matrix(1 0 0 -1 -150 -530)">
					<stop  offset="0" style="stop-color:#FAC28D"/>
					<stop  offset="1" style="stop-color:#7C5320"/>
				</linearGradient>
				<ellipse fill="url(#SVGID_20_)" cx="100.018" cy="25.776" rx="20.769" ry="4.212"/>
				
					<linearGradient id="SVGID_21_" gradientUnits="userSpaceOnUse" x1="249.8379" y1="-553.9546" x2="251.7482" y2="-573.249" gradientTransform="matrix(1 0 0 -1 -150 -530)">
					<stop  offset="0" style="stop-color:#FAC28D"/>
					<stop  offset="1" style="stop-color:#7C5320"/>
				</linearGradient>
				<ellipse fill="url(#SVGID_21_)" cx="100.018" cy="25.776" rx="20.769" ry="4.212"/>
				
					<linearGradient id="SVGID_22_" gradientUnits="userSpaceOnUse" x1="249.627" y1="-557.4985" x2="254.9413" y2="-534.4694" gradientTransform="matrix(1 0 0 -1 -150 -530)">
					<stop  offset="0" style="stop-color:#FAC28D"/>
					<stop  offset="1" style="stop-color:#7C5320"/>
				</linearGradient>
				<path fill="url(#SVGID_22_)" d="M100.018,28.549c-9.672,0-17.872-1.211-20.753-2.889c-0.006,0.039-0.016,0.077-0.016,0.116
					c0,2.327,9.3,4.212,20.769,4.212c11.472,0,20.769-1.886,20.769-4.212c0-0.039-0.01-0.077-0.014-0.116
					C117.893,27.338,109.691,28.549,100.018,28.549z"/>
			</g>
			
				<linearGradient id="SVGID_23_" gradientUnits="userSpaceOnUse" x1="234.3691" y1="674.0352" x2="234.1981" y2="687.8454" gradientTransform="matrix(1 0 0 -1 -150 -530)">
				<stop  offset="0" style="stop-color:#FFFFFF"/>
				<stop  offset="0.0896" style="stop-color:#FFFFFF;stop-opacity:0.9104"/>
				<stop  offset="1" style="stop-color:#FFFFFF;stop-opacity:0"/>
			</linearGradient>
			<polygon opacity="0.53" fill="url(#SVGID_23_)" enable-background="new    " points="49.552,94.239 95.618,114.843 
				97.121,71.162 100.646,71.162 98.567,113.956 148.562,93.938 151.371,95.101 98.567,118.369 98.567,183.809 96.946,182.834 
				95.303,117.443 49.552,96.09 			"/>
		</g>
	</g>
</g>
</svg>
