<?xml version="1.0" encoding="utf-8"?>
<!-- Generator: Adobe Illustrator 15.0.0, SVG Export Plug-In . SVG Version: 6.00 Build 0)  -->
<!DOCTYPE svg PUBLIC "-//W3C//DTD SVG 1.1//EN" "http://www.w3.org/Graphics/SVG/1.1/DTD/svg11.dtd">
<svg version="1.1" id="Layer_1" xmlns="http://www.w3.org/2000/svg" xmlns:xlink="http://www.w3.org/1999/xlink" x="0px" y="0px"
	 width="200px" height="200px" viewBox="0 0 200 200" enable-background="new 0 0 200 200" xml:space="preserve">
<g id="icon">
	<g id="Layer_2">
	</g>
	<g>
		
			<linearGradient id="SVGID_1_" gradientUnits="userSpaceOnUse" x1="271.6211" y1="1323.7578" x2="276.6212" y2="1335.7581" gradientTransform="matrix(1 0 0 1 -200 -1182)">
			<stop  offset="0" style="stop-color:#263639"/>
			<stop  offset="1" style="stop-color:#919F4E"/>
		</linearGradient>
		<path fill="url(#SVGID_1_)" d="M77.939,122.129c0,0-6.406,11.393,0,20.646c6.407,9.254,0.714,24.918-3.559,28.479
			c-4.271,3.559-6.408-3.561-6.408-3.561s7.831-3.562,4.273-17.086c-3.562-13.527-9.257-19.227-4.986-25.631
			C71.533,118.572,77.939,122.129,77.939,122.129z"/>
		
			<linearGradient id="SVGID_2_" gradientUnits="userSpaceOnUse" x1="337.5762" y1="1311.9795" x2="336.5764" y2="1323.2278" gradientTransform="matrix(1 0 0 1 -200 -1182)">
			<stop  offset="0" style="stop-color:#263639"/>
			<stop  offset="1" style="stop-color:#919F4E"/>
		</linearGradient>
		<path fill="url(#SVGID_2_)" d="M133.605,122.527c0,0-6.408-3.562-4.271,1.425c2.137,4.983-4.271,14.954,4.271,19.937
			c8.541,4.983,12.103,0,12.103,0l-4.271-4.271c0,0-6.406,4.981-7.119-4.271C133.605,126.088,133.605,122.527,133.605,122.527z"/>
		
			<radialGradient id="SVGID_3_" cx="300.0439" cy="1493.9004" r="107.3106" fx="299.7094" fy="1459.9664" gradientTransform="matrix(1 0 0 0.8338 -200 -1169.3191)" gradientUnits="userSpaceOnUse">
			<stop  offset="0" style="stop-color:#98AA75"/>
			<stop  offset="0.0875" style="stop-color:#92A472"/>
			<stop  offset="0.2019" style="stop-color:#82946A"/>
			<stop  offset="0.3312" style="stop-color:#68795C"/>
			<stop  offset="0.4705" style="stop-color:#435348"/>
			<stop  offset="0.5644" style="stop-color:#263639"/>
			<stop  offset="0.9141" style="stop-color:#47584B"/>
		</radialGradient>
		<path fill="url(#SVGID_3_)" d="M171.339,105.576c-3.562-4.982-4.245-7.508-4.272-9.255c0.543-6.571,0.713-7.831,0.49-12.191
			C165.759,48.405,136.475,20,100.611,20c-37.015,0-67.023,30.268-67.023,67.611c0,14.881-12.246,25.097-10.569,31.02
			c2.518,14.238,16.797,13.629,32.274,12.34c22.782-1.896,16.396-12.391,81.637-5.695
			C173.949,129.07,185.577,119.104,171.339,105.576z"/>
		
			<radialGradient id="SVGID_4_" cx="301.333" cy="1430.9248" r="103.8399" fx="301.4135" fy="1426.9425" gradientTransform="matrix(1 0 0 0.8338 -200 -1176.4968)" gradientUnits="userSpaceOnUse">
			<stop  offset="0" style="stop-color:#ACBB75"/>
			<stop  offset="1" style="stop-color:#98AA75;stop-opacity:0"/>
		</radialGradient>
		<path fill="url(#SVGID_4_)" d="M150.434,84.588c-2.518-3.521-3-5.306-3.021-6.54c0.383-4.645,0.503-5.535,0.346-8.616
			c-1.271-25.25-21.967-45.325-47.313-45.325c-26.161,0-47.37,21.393-47.37,47.785c0,10.518-8.655,17.737-7.47,21.924
			c1.779,10.063,11.872,9.633,22.81,8.722c16.102-1.343,11.588-8.758,57.697-4.025C152.277,101.193,160.496,94.149,150.434,84.588z"
			/>
		
			<radialGradient id="SVGID_5_" cx="299.0439" cy="2784.7168" r="177.307" gradientTransform="matrix(1 0 0 0.4303 -200 -1160.4674)" gradientUnits="userSpaceOnUse">
			<stop  offset="0.5092" style="stop-color:#263639;stop-opacity:0"/>
			<stop  offset="0.8405" style="stop-color:#263639"/>
			<stop  offset="1" style="stop-color:#47584B"/>
		</radialGradient>
		<path fill="url(#SVGID_5_)" d="M171.339,105.576c-3.562-4.982-4.245-7.508-4.272-9.255c0.543-6.571,0.713-7.831,0.49-12.191
			C165.759,48.405,136.475,20,100.611,20c-37.015,0-67.023,30.268-67.023,67.611c0,14.881-12.246,25.097-10.569,31.02
			c2.518,14.238,16.797,13.629,32.274,12.34c22.782-1.896,16.396-12.391,81.637-5.695
			C173.949,129.07,185.577,119.104,171.339,105.576z"/>
		<path d="M167.066,96.321c-6.012,2.054-24.189,6.519-68.108,3.323c0,0,49.362-1.188,64.549-6.883
			c2.829-1.06,3.815-2.317,4.103-4.029C167.607,88.732,167.094,98.068,167.066,96.321z"/>
		
			<radialGradient id="SVGID_6_" cx="268.4414" cy="1287.916" r="4.834" gradientTransform="matrix(1 0 0 1 -200 -1182)" gradientUnits="userSpaceOnUse">
			<stop  offset="0" style="stop-color:#FFFFFF"/>
			<stop  offset="1" style="stop-color:#787878"/>
		</radialGradient>
		<circle fill="url(#SVGID_6_)" cx="68.442" cy="105.916" r="4.834"/>
		
			<radialGradient id="SVGID_7_" cx="300" cy="1299.9473" r="57.018" gradientTransform="matrix(1 0 0 1 -200 -1182)" gradientUnits="userSpaceOnUse">
			<stop  offset="0" style="stop-color:#98AA75"/>
			<stop  offset="0.2791" style="stop-color:#92A472"/>
			<stop  offset="0.6429" style="stop-color:#82946A"/>
			<stop  offset="1" style="stop-color:#6B7D5E"/>
		</radialGradient>
		<path fill="url(#SVGID_7_)" d="M43.772,133.611c-10.632,0-20.525-2.469-22.707-14.541c-0.886-3.355,1.795-9.695,8.238-15.657
			c0,0-1.875,3.426-2.318,4.212c-2.006,3.559-2.547,8.68-2.042,10.461l0.045,0.197c2.136,12.08,13.838,12.053,30.139,10.693
			c6.794-0.566,10.905-1.927,15.257-3.36c9.944-3.282,21.216-7.003,66.75-2.331c24.691,2.533,35.666-1.305,37.706-5.74
			c1.639-3.562-0.803-7.957-3.501-11.969l-2.159-3.292c10.557,7.091,10.698,13.878,9.295,16.932
			c-3.492,7.593-18.313,10.452-41.748,8.05c-44.685-4.588-55.521-1.008-65.085,2.148c-4.584,1.514-8.913,2.943-16.179,3.549
			C51.694,133.277,47.683,133.611,43.772,133.611z"/>
		
			<radialGradient id="SVGID_8_" cx="300.0684" cy="1297.9316" r="54.1137" gradientTransform="matrix(1 0 0 1 -200 -1182)" gradientUnits="userSpaceOnUse">
			<stop  offset="0" style="stop-color:#263639"/>
			<stop  offset="0.5644" style="stop-color:#263639"/>
		</radialGradient>
		<path opacity="0.5" fill="url(#SVGID_8_)" enable-background="new    " d="M44.173,127.398c-10.632,0-15.442-1.76-17.688-8.773
			c-0.886-3.355-0.307-9.301,2.818-15.212c0,0-1.875,3.426-2.318,4.212c-2.006,3.559-2.547,8.68-2.042,10.461l0.045,0.197
			c2.136,12.08,13.838,12.053,30.139,10.693c6.794-0.566,10.905-1.927,15.257-3.36c9.944-3.282,21.216-7.003,66.75-2.331
			c24.691,2.533,35.666-1.305,37.706-5.74c1.639-3.562-0.803-7.957-3.501-11.969l-2.159-3.292c4.521,7.169,5.45,11.909,3.807,14.841
			c-2.211,3.939-12.252,6.574-35.684,4.172c-44.685-4.588-53.004-1.828-62.567,1.328c-4.584,1.514-11.609,3.52-18.875,4.125
			C52.097,127.062,48.084,127.398,44.173,127.398z"/>
		
			<linearGradient id="SVGID_9_" gradientUnits="userSpaceOnUse" x1="226.7441" y1="-645.4355" x2="230.1489" y2="-604.5784" gradientTransform="matrix(1 0 0 -1 -150 -530)">
			<stop  offset="0" style="stop-color:#7BA973"/>
			<stop  offset="0.4417" style="stop-color:#527258"/>
			<stop  offset="0.7362" style="stop-color:#6AA46D"/>
			<stop  offset="1" style="stop-color:#9DB381"/>
		</linearGradient>
		<path fill="url(#SVGID_9_)" d="M101.675,118.488c0,0-2.147-13.598-11.647-16.661c-9.5-3.064-7.5-15.064-7.5-15.064l7.5-3.943
			c0,0,0.5,3.443,4,4.443s7.5-6.41,2-10.705c-5.5-4.295-7-4.743-6.5-9.019s-7.517,3.271-17.224-2.335
			c-9.706-5.606-18.346,2.63-16.775,5.762c1.569,3.132,4.278,4.204,8.778,1.96c4.5-2.242,10.126,9.66,10.126,9.66l-1.407,5.764
			c0,0-7.51-1.252-9.255-4.499s-5.986,1.429-5.986,1.429s-6.259,8.229-2.259,9.777c4,1.547,8.082-0.309,8.082-0.309l8.418,0.271
			c0,0,12.664,13.745,14.083,16.495c1.419,2.748,9.919,8.881,9.919,8.881L101.675,118.488z"/>
		
			<linearGradient id="SVGID_10_" gradientUnits="userSpaceOnUse" x1="296.6182" y1="-571.584" x2="278.6184" y2="-588.0838" gradientTransform="matrix(1 0 0 -1 -150 -530)">
			<stop  offset="0" style="stop-color:#6AA46D"/>
			<stop  offset="1" style="stop-color:#9DB381"/>
		</linearGradient>
		<path fill="url(#SVGID_10_)" d="M142.671,34.967l-3.187,9.861c0,0-2.653,2.828-6.201,0C129.734,42,123.234,34.5,119.734,38.5
			s-6.489,8.17-10.494,7.585c-4.006-0.585,0.494,13.16,6.494,9.788s11.5-11.398,11.5-5.885c0,5.513,3.097,4.824,6.049,6.418
			c2.951,1.594,6.322,0.406,9.388,0c3.063-0.406,3.742,1.243,4.415,7.134c0.673,5.892,6.866,4.552,7.508-0.994
			c0.643-5.546,0-12.559,0-12.559l0.285-2.069C154.879,47.918,151.396,40.995,142.671,34.967z"/>
		
			<radialGradient id="SVGID_11_" cx="278.2354" cy="1224.999" r="98.2085" gradientTransform="matrix(1 0 0 1 -200 -1182)" gradientUnits="userSpaceOnUse">
			<stop  offset="0" style="stop-color:#98AA75"/>
			<stop  offset="0.0875" style="stop-color:#92A472"/>
			<stop  offset="0.2019" style="stop-color:#82946A"/>
			<stop  offset="0.3312" style="stop-color:#68795C"/>
			<stop  offset="0.4705" style="stop-color:#435348"/>
			<stop  offset="0.5644" style="stop-color:#263639"/>
			<stop  offset="0.9141" style="stop-color:#47584B"/>
		</radialGradient>
		<path fill="url(#SVGID_11_)" d="M59.438,34.26c4.759-3.716,11.03-7.05,11.03-7.05s4.518-0.21,1.768,5.04s4.5,7.25,5.25,7.25
			s8-2.75,8-2.75L96.22,39.5c0,0,1.016,5.25-1.484,6.25s-11.289,0-11.289,0s8.789,4,7.289,6.5s-7.75,6.75-11,3.75s-4-8.5-7.75-8.75
			s-9.5-5.25-11.5-2s0,10-4,10.75s-8.75-0.25-8.75-0.25l3-9.75l-0.476-3.009C50.26,42.991,54.124,38.41,59.438,34.26z"/>
		<path opacity="0.51" fill="#421C00" enable-background="new    " d="M172.984,117.125c0,0-5.25-8.898-12.25-8.762
			c-7,0.136-10.5-7.281-10.5-7.281V92.85l-4.526-17.055l-16.812-2.854c0,0-4.336,10.559,0,12.059c4.338,1.5,8.402,5.243,8.402,5.243
			l2.436,12.731l-10.838,1.81l-1.926,5.967l6.312,3.556l4.021-5.939l8.404,3.521l15.018,9.993
			C160.725,121.88,167.455,121.438,172.984,117.125z"/>
		<path opacity="0.51" fill="#421C00" enable-background="new    " d="M33.604,86.248l5.132,5.598l1.5,5.565c0,0-3.5,9.339,0,10.589
			s9.5,1.5,9.5,1.5v4.75l-4.241,3.697h-7.759l-6.5-5.197l-2.735-7.792C28.5,104.958,32.297,98.316,33.604,86.248z"/>
	</g>
</g>
</svg>
