<?xml version="1.0" encoding="utf-8"?>
<!-- Generator: Adobe Illustrator 15.0.0, SVG Export Plug-In . SVG Version: 6.00 Build 0)  -->
<!DOCTYPE svg PUBLIC "-//W3C//DTD SVG 1.1//EN" "http://www.w3.org/Graphics/SVG/1.1/DTD/svg11.dtd">
<svg version="1.1" id="Layer_1" xmlns="http://www.w3.org/2000/svg" xmlns:xlink="http://www.w3.org/1999/xlink" x="0px" y="0px"
	 width="200px" height="200px" viewBox="0 0 200 200" enable-background="new 0 0 200 200" xml:space="preserve">
<g id="icon">
	<g id="Layer_2">
	</g>
	<g id="Layer_1_1_">
		<g>
			<g>
				
					<radialGradient id="SVGID_1_" cx="246.4277" cy="1293.9795" r="9.5278" fx="244.5337" fy="1287.8246" gradientTransform="matrix(1 0 0 1 -200 -1182)" gradientUnits="userSpaceOnUse">
					<stop  offset="0" style="stop-color:#4A4A4A"/>
					<stop  offset="1" style="stop-color:#000000"/>
				</radialGradient>
				<path fill="url(#SVGID_1_)" d="M42.287,91.977c3.443-1.853,8.898,2.518,12.838,10.65c4.332,9.027,4.178,18.586,0.924,22.195
					c-3.25,3.609-8.45,4.732-8.45,4.732c-4.335-9.025-16.75-30.772-13.481-34.387C34.445,94.815,41.905,92.181,42.287,91.977z"/>
				
					<linearGradient id="SVGID_2_" gradientUnits="userSpaceOnUse" x1="250.1973" y1="1289.9199" x2="239.8338" y2="1294.9783" gradientTransform="matrix(1 0 0 1 -200 -1182)">
					<stop  offset="0" style="stop-color:#474747"/>
					<stop  offset="1" style="stop-color:#000000"/>
				</linearGradient>
				<path fill="url(#SVGID_2_)" d="M47.152,105.775c4.352,9.029,5.217,19.271,1.978,22.885c-3.23,3.611-9.354-0.78-13.733-9.805
					c-4.417-9.03-5.404-19.275-2.149-22.889C36.511,92.357,42.759,96.75,47.152,105.775z"/>
				
					<radialGradient id="SVGID_3_" cx="-310.0479" cy="2013.4873" r="12.0876" gradientTransform="matrix(0.6134 -0.7745 0.4571 0.9808 -694.8459 -2089.627)" gradientUnits="userSpaceOnUse">
					<stop  offset="0.0545" style="stop-color:#A7A7A7"/>
					<stop  offset="1" style="stop-color:#000000"/>
				</radialGradient>
				<path fill="url(#SVGID_3_)" d="M44.306,108.688c2.635,5.441,3.351,11.506,1.623,13.537c-1.728,2.039-5.253-0.725-7.89-6.17
					c-2.656-5.438-3.42-11.503-1.685-13.539C38.09,100.479,41.661,103.244,44.306,108.688z"/>
				
					<linearGradient id="SVGID_4_" gradientUnits="userSpaceOnUse" x1="-324.8369" y1="2003.3125" x2="-316.2803" y2="2003.3125" gradientTransform="matrix(0.6306 -0.786 0.4571 0.9808 -672.0638 -2104.6707)">
					<stop  offset="0.0242" style="stop-color:#283830"/>
					<stop  offset="0.3744" style="stop-color:#2A3B32"/>
					<stop  offset="0.6222" style="stop-color:#31443A"/>
					<stop  offset="0.8377" style="stop-color:#3C5447"/>
					<stop  offset="1" style="stop-color:#486556"/>
				</linearGradient>
				<path fill="url(#SVGID_4_)" d="M44.279,108.943c2.261,4.672,2.845,9.895,1.319,11.666c-1.525,1.771-4.585-0.576-6.849-5.244
					c-2.275-4.666-2.891-9.889-1.365-11.66C38.918,101.93,42.007,104.279,44.279,108.943z"/>
				
					<linearGradient id="SVGID_5_" gradientUnits="userSpaceOnUse" x1="-633.2832" y1="857.2842" x2="-630.1064" y2="857.2842" gradientTransform="matrix(1.3304 -0.6962 0.719 1.9858 265.7373 -2030.0044)">
					<stop  offset="0.0242" style="stop-color:#283830"/>
					<stop  offset="0.3744" style="stop-color:#2A3B32"/>
					<stop  offset="0.6222" style="stop-color:#31443A"/>
					<stop  offset="0.8377" style="stop-color:#3C5447"/>
					<stop  offset="1" style="stop-color:#486556"/>
				</linearGradient>
				<path fill="url(#SVGID_5_)" d="M43.851,111.127c1.024,2.713,0.899,5.393-0.271,5.979c-1.181,0.578-2.967-1.16-3.993-3.877
					c-1.03-2.723-0.913-5.396,0.269-5.98C41.034,106.666,42.825,108.402,43.851,111.127z"/>
				
					<linearGradient id="SVGID_6_" gradientUnits="userSpaceOnUse" x1="-594.0254" y1="859.0742" x2="-591.5288" y2="859.0742" gradientTransform="matrix(1.1775 -0.6282 0.7343 1.979 108.5157 -1960.2202)">
					<stop  offset="0.0242" style="stop-color:#283830"/>
					<stop  offset="0.3744" style="stop-color:#2A3B32"/>
					<stop  offset="0.6222" style="stop-color:#31443A"/>
					<stop  offset="0.8377" style="stop-color:#3C5447"/>
					<stop  offset="1" style="stop-color:#486556"/>
				</linearGradient>
				<path fill="url(#SVGID_6_)" d="M42.824,111.529c0.819,2.131,0.815,4.188-0.002,4.602c-0.821,0.408-2.149-0.988-2.966-3.117
					c-0.825-2.135-0.829-4.195-0.007-4.604C40.669,108,42,109.395,42.824,111.529z"/>
				
					<radialGradient id="SVGID_7_" cx="-526.4736" cy="862.54" r="4.1008" gradientTransform="matrix(0.9796 -0.5402 0.7542 1.9702 -93.6783 -1870.2251)" gradientUnits="userSpaceOnUse">
					<stop  offset="0" style="stop-color:#AEAEAE"/>
					<stop  offset="0" style="stop-color:#787878"/>
					<stop  offset="1" style="stop-color:#000000"/>
				</radialGradient>
				<path fill="url(#SVGID_7_)" d="M41.857,112.002c0.354,0.898,0.406,1.742,0.121,1.893c-0.29,0.148-0.812-0.463-1.167-1.354
					c-0.355-0.896-0.409-1.745-0.119-1.896C40.983,110.492,41.51,111.102,41.857,112.002z"/>
			</g>
			<g>
				
					<radialGradient id="SVGID_8_" cx="303.2734" cy="1343.8525" r="9.5273" fx="301.3796" fy="1337.698" gradientTransform="matrix(1 0 0 1 -200 -1182)" gradientUnits="userSpaceOnUse">
					<stop  offset="0" style="stop-color:#4A4A4A"/>
					<stop  offset="1" style="stop-color:#000000"/>
				</radialGradient>
				<path fill="url(#SVGID_8_)" d="M99.133,141.85c3.443-1.854,8.898,2.521,12.838,10.65c4.334,9.027,4.178,18.586,0.926,22.195
					s-8.446,4.729-8.446,4.729c-4.336-9.021-16.752-30.771-13.482-34.383C91.29,144.688,98.751,142.053,99.133,141.85z"/>
				
					<linearGradient id="SVGID_9_" gradientUnits="userSpaceOnUse" x1="307.0449" y1="1339.7939" x2="296.6817" y2="1344.8522" gradientTransform="matrix(1 0 0 1 -200 -1182)">
					<stop  offset="0" style="stop-color:#474747"/>
					<stop  offset="1" style="stop-color:#000000"/>
				</linearGradient>
				<path fill="url(#SVGID_9_)" d="M103.998,155.648c4.354,9.025,5.218,19.271,1.979,22.885c-3.229,3.611-9.354-0.781-13.73-9.807
					c-4.416-9.029-5.403-19.273-2.149-22.888C93.357,142.23,99.605,146.623,103.998,155.648z"/>
				
					<radialGradient id="SVGID_10_" cx="-275.5625" cy="2091.5742" r="12.0918" gradientTransform="matrix(0.6134 -0.7745 0.4571 0.9808 -694.8459 -2089.627)" gradientUnits="userSpaceOnUse">
					<stop  offset="0.0545" style="stop-color:#A7A7A7"/>
					<stop  offset="1" style="stop-color:#000000"/>
				</radialGradient>
				<path fill="url(#SVGID_10_)" d="M101.152,158.561c2.635,5.441,3.351,11.504,1.623,13.537c-1.729,2.039-5.254-0.725-7.895-6.17
					c-2.655-5.438-3.42-11.504-1.685-13.539C94.934,150.352,98.507,153.116,101.152,158.561z"/>
				
					<linearGradient id="SVGID_11_" gradientUnits="userSpaceOnUse" x1="-291.1299" y1="2081.1738" x2="-282.5737" y2="2081.1738" gradientTransform="matrix(0.6306 -0.786 0.4571 0.9808 -672.0638 -2104.6707)">
					<stop  offset="0.0242" style="stop-color:#283830"/>
					<stop  offset="0.3744" style="stop-color:#2A3B32"/>
					<stop  offset="0.6222" style="stop-color:#31443A"/>
					<stop  offset="0.8377" style="stop-color:#3C5447"/>
					<stop  offset="1" style="stop-color:#486556"/>
				</linearGradient>
				<path fill="url(#SVGID_11_)" d="M101.125,158.816c2.262,4.672,2.846,9.895,1.318,11.666c-1.524,1.771-4.584-0.576-6.848-5.244
					c-2.275-4.668-2.892-9.889-1.365-11.66C95.764,151.803,98.854,154.152,101.125,158.816z"/>
				
					<linearGradient id="SVGID_12_" gradientUnits="userSpaceOnUse" x1="-608.771" y1="890.9922" x2="-605.5947" y2="890.9922" gradientTransform="matrix(1.3304 -0.6962 0.719 1.9858 265.7373 -2030.0044)">
					<stop  offset="0.0242" style="stop-color:#283830"/>
					<stop  offset="0.3744" style="stop-color:#2A3B32"/>
					<stop  offset="0.6222" style="stop-color:#31443A"/>
					<stop  offset="0.8377" style="stop-color:#3C5447"/>
					<stop  offset="1" style="stop-color:#486556"/>
				</linearGradient>
				<path fill="url(#SVGID_12_)" d="M100.697,160.999c1.023,2.714,0.898,5.394-0.271,5.978c-1.18,0.58-2.967-1.158-3.991-3.875
					c-1.03-2.724-0.915-5.396,0.268-5.98C97.881,156.539,99.671,158.275,100.697,160.999z"/>
				
					<linearGradient id="SVGID_13_" gradientUnits="userSpaceOnUse" x1="-566.8447" y1="892.9014" x2="-564.3486" y2="892.9014" gradientTransform="matrix(1.1775 -0.6282 0.7343 1.979 108.5157 -1960.2202)">
					<stop  offset="0.0242" style="stop-color:#283830"/>
					<stop  offset="0.3744" style="stop-color:#2A3B32"/>
					<stop  offset="0.6222" style="stop-color:#31443A"/>
					<stop  offset="0.8377" style="stop-color:#3C5447"/>
					<stop  offset="1" style="stop-color:#486556"/>
				</linearGradient>
				<path fill="url(#SVGID_13_)" d="M99.67,161.402c0.818,2.131,0.814,4.188-0.002,4.601c-0.822,0.409-2.149-0.987-2.967-3.116
					c-0.826-2.135-0.828-4.195-0.008-4.607C97.516,157.873,98.848,159.268,99.67,161.402z"/>
				
					<radialGradient id="SVGID_14_" cx="-494.6494" cy="896.5781" r="4.0995" gradientTransform="matrix(0.9796 -0.5402 0.7542 1.9702 -93.6783 -1870.2251)" gradientUnits="userSpaceOnUse">
					<stop  offset="0" style="stop-color:#AEAEAE"/>
					<stop  offset="0" style="stop-color:#787878"/>
					<stop  offset="1" style="stop-color:#000000"/>
				</radialGradient>
				<path fill="url(#SVGID_14_)" d="M98.703,161.874c0.355,0.899,0.405,1.742,0.121,1.894c-0.289,0.148-0.811-0.463-1.166-1.354
					c-0.355-0.897-0.408-1.746-0.119-1.896C97.829,160.365,98.355,160.975,98.703,161.874z"/>
			</g>
			<polygon points="48.438,103.324 107.406,159.443 138.939,139.201 75.678,94.045 			"/>
			
				<linearGradient id="SVGID_15_" gradientUnits="userSpaceOnUse" x1="204.9727" y1="1423.0127" x2="199.4863" y2="1428.3547" gradientTransform="matrix(1.039 -0.0625 0.0244 0.961 -173.2767 -1225.2742)">
				<stop  offset="0" style="stop-color:#041717"/>
				<stop  offset="0.5879" style="stop-color:#283830"/>
				<stop  offset="0.7485" style="stop-color:#25352E"/>
				<stop  offset="0.8623" style="stop-color:#1C2D28"/>
				<stop  offset="0.9612" style="stop-color:#0C1F1D"/>
				<stop  offset="1" style="stop-color:#041717"/>
			</linearGradient>
			<path fill="url(#SVGID_15_)" d="M89.109,145.549c-2.73,3.039-7.062,3.501-9.693,1.037L57.914,124.99
				c-2.682-2.467-2.66-6.934,0.062-9.975l0,0c2.74-3.043,6.559-2.232,9.24,0.232l21.509,19.592
				C91.363,137.314,91.85,142.505,89.109,145.549L89.109,145.549z"/>
			<g>
				
					<linearGradient id="SVGID_16_" gradientUnits="userSpaceOnUse" x1="490.3525" y1="1553.4854" x2="477.0121" y2="1543.9567" gradientTransform="matrix(0.9207 -0.0553 0.0244 0.961 -249.5576 -1219.913)">
					<stop  offset="0.0242" style="stop-color:#283830"/>
					<stop  offset="0.4046" style="stop-color:#25352E"/>
					<stop  offset="0.6739" style="stop-color:#1C2D28"/>
					<stop  offset="0.9082" style="stop-color:#0C1F1D"/>
					<stop  offset="1" style="stop-color:#041717"/>
				</linearGradient>
				<path fill="url(#SVGID_16_)" d="M80.472,137.967c-2.216,2.469-2.632,5.859-1.312,8.379l0.256,0.24
					c2.632,2.464,6.963,2.002,9.693-1.037c2.223-2.471,2.092-6.587,0.785-9.104l-0.256-0.236
					C86.993,133.734,83.206,134.924,80.472,137.967z"/>
			</g>
			
				<linearGradient id="SVGID_17_" gradientUnits="userSpaceOnUse" x1="213.6729" y1="1424.1914" x2="213.4784" y2="1436.849" gradientTransform="matrix(1.039 -0.0625 0.0244 0.961 -173.2767 -1225.2742)">
				<stop  offset="0" style="stop-color:#476C58"/>
				<stop  offset="1" style="stop-color:#000000"/>
			</linearGradient>
			<path fill="url(#SVGID_17_)" d="M80.37,147.369l-0.252-0.238c-1.319-2.518-0.901-5.91,1.315-8.379
				c2.284-2.541,5.295-3.775,7.77-2.684l-0.047-0.043c-2.645-2.471-6.436-1.283-9.171,1.76c-2.216,2.468-2.63,5.859-1.307,8.378
				l0.253,0.237c0.451,0.418,0.949,0.744,1.477,0.996C80.396,147.386,80.385,147.375,80.37,147.369z"/>
			
				<linearGradient id="SVGID_18_" gradientUnits="userSpaceOnUse" x1="324.8613" y1="1298.6094" x2="285.7977" y2="1250.0179" gradientTransform="matrix(1 0 0 1 -200 -1182)">
				<stop  offset="0.0242" style="stop-color:#283830"/>
				<stop  offset="0.3744" style="stop-color:#2A3B32"/>
				<stop  offset="0.6222" style="stop-color:#31443A"/>
				<stop  offset="0.8377" style="stop-color:#3C5447"/>
				<stop  offset="1" style="stop-color:#486556"/>
			</linearGradient>
			<path fill="url(#SVGID_18_)" d="M82.414,95.359l-0.65,10.809l-2.912,22.969l2.873,7.387l56.48-27.494l3.289-45.302
				c0,0-6.451-5.469-11.951-3.641C111.432,66.107,75.417,85.7,75.417,85.7L82.414,95.359z"/>
			
				<linearGradient id="SVGID_19_" gradientUnits="userSpaceOnUse" x1="315.9922" y1="1307.7939" x2="302.3651" y2="1290.8433" gradientTransform="matrix(1 0 0 1 -200 -1182)">
				<stop  offset="0.0242" style="stop-color:#283830"/>
				<stop  offset="0.4046" style="stop-color:#25352E"/>
				<stop  offset="0.6739" style="stop-color:#1C2D28"/>
				<stop  offset="0.9082" style="stop-color:#0C1F1D"/>
				<stop  offset="1" style="stop-color:#041717"/>
			</linearGradient>
			<polygon fill="url(#SVGID_19_)" points="81.857,128.588 81.725,136.523 138.205,109.029 138.246,100.124 			"/>
			
				<linearGradient id="SVGID_20_" gradientUnits="userSpaceOnUse" x1="265.252" y1="1261.2207" x2="301.6907" y2="1214.8053" gradientTransform="matrix(1 0 0 1 -200 -1182)">
				<stop  offset="0" style="stop-color:#678365"/>
				<stop  offset="0.1455" style="stop-color:#90B388"/>
				<stop  offset="0.8303" style="stop-color:#90B388"/>
				<stop  offset="0.8607" style="stop-color:#8AAC83"/>
				<stop  offset="0.9048" style="stop-color:#7A9975"/>
				<stop  offset="0.957" style="stop-color:#5F795F"/>
				<stop  offset="1" style="stop-color:#445A48"/>
			</linearGradient>
			<path fill="url(#SVGID_20_)" d="M82.414,95.359c0,0,0.791-5.066,5.064-7.355c12.407-6.644,37.903-20.296,47.917-25.658
				c2.61-1.398,6.103,1.378,6.103,1.378L84.002,21.377c0,0-3.428-2.911-5.934-1.738c-9.776,4.57-34.898,16.313-46.335,21.66
				c-3.586,1.677-3.897,6.334-3.897,6.334L82.414,95.359z"/>
			
				<linearGradient id="SVGID_21_" gradientUnits="userSpaceOnUse" x1="274.2568" y1="1212.3135" x2="255.547" y2="1271.4888" gradientTransform="matrix(1 0 0 1 -200 -1182)">
				<stop  offset="0" style="stop-color:#90B388"/>
				<stop  offset="0.1959" style="stop-color:#8AAC84"/>
				<stop  offset="0.4798" style="stop-color:#789977"/>
				<stop  offset="0.8158" style="stop-color:#5B7963"/>
				<stop  offset="1" style="stop-color:#486556"/>
			</linearGradient>
			<polygon fill="url(#SVGID_21_)" points="82.414,95.359 81.725,136.523 31.129,87.71 27.903,47.099 			"/>
			
				<linearGradient id="SVGID_22_" gradientUnits="userSpaceOnUse" x1="254.4727" y1="1292.2383" x2="258.0457" y2="1287.9508" gradientTransform="matrix(1 0 0 1 -200 -1182)">
				<stop  offset="0.0242" style="stop-color:#283830"/>
				<stop  offset="0.4046" style="stop-color:#25352E"/>
				<stop  offset="0.6739" style="stop-color:#1C2D28"/>
				<stop  offset="0.9082" style="stop-color:#0C1F1D"/>
				<stop  offset="1" style="stop-color:#041717"/>
			</linearGradient>
			<polygon fill="url(#SVGID_22_)" points="81.857,128.588 81.725,136.523 31.129,87.71 30.516,79.996 			"/>
			
				<linearGradient id="SVGID_23_" gradientUnits="userSpaceOnUse" x1="321.5889" y1="1311.9697" x2="316.1192" y2="1311.9697" gradientTransform="matrix(1 0 0 1 -200 -1182)">
				<stop  offset="0.4121" style="stop-color:#2D4236"/>
				<stop  offset="1" style="stop-color:#001E19"/>
			</linearGradient>
			<path fill="url(#SVGID_23_)" d="M166.846,98.473c1.174,0.918,2.018,2.417,2.018,2.417c1.3,1.562,4.381,26.146,2.921,45.09
				c0,0-0.298,1.922-0.731,3.414c-0.146,1.026-0.8,1.787-1.68,2.385c0,0-9.909,7.836-17.463,13.062
				c-8.244,5.707-28.074,15.537-28.074,15.537c-2.335,1.052-4.67-1.228-7.592-4.146c-4.104-3.604-6.229-5.447-10.271-10.06
				c-0.543-0.614-1.271-0.312-1.894-1.039c-0.56-5.688-4.285-14.791-8.029-19.106c-6.521-6.631-7.351,0.375-7.351,0.375
				s-0.389-6.075,2.035-7.442c-1.06-12.701-0.184-24.67-0.184-24.67c0.293-7.595,1.16-10.429,2.723-11.418l44.684-23.17
				c1.619-0.994,3.604,0.029,5.393,1.215C143.346,80.916,160.953,93.861,166.846,98.473z"/>
			
				<linearGradient id="SVGID_24_" gradientUnits="userSpaceOnUse" x1="297.2393" y1="1208.7793" x2="365.6866" y2="1370.9471" gradientTransform="matrix(1 0 0 1 -200 -1182)">
				<stop  offset="0" style="stop-color:#90CAAE"/>
				<stop  offset="1" style="stop-color:#000000"/>
			</linearGradient>
			<path fill="url(#SVGID_24_)" d="M125.365,126.479c21.826-9.795,33.568-18.123,39.311-22.979c2.771-2.305,4.186-3.185,1.572-5.639
				c-3.229-3.084-22.902-16.943-22.902-16.943c-1.789-1.186-3.771-2.209-5.391-1.215l-44.684,23.17
				c-0.822,0.521-1.443,2.098-1.814,3.984c0,0,17.143,15.057,21.594,18.969C117.264,128.885,119.259,129.188,125.365,126.479z"/>
			
				<linearGradient id="SVGID_25_" gradientUnits="userSpaceOnUse" x1="342.8193" y1="1089.7539" x2="345.5718" y2="1080.4956" gradientTransform="matrix(1 -0.0748 0 1 -200 -925.2275)">
				<stop  offset="0.3374" style="stop-color:#08DEFF"/>
				<stop  offset="0.4304" style="stop-color:#0ADEFF"/>
				<stop  offset="0.4639" style="stop-color:#11DEFE"/>
				<stop  offset="0.4878" style="stop-color:#1CDDFC"/>
				<stop  offset="0.5071" style="stop-color:#2DDDFA"/>
				<stop  offset="0.5237" style="stop-color:#43DCF6"/>
				<stop  offset="0.5383" style="stop-color:#5FDBF2"/>
				<stop  offset="0.5514" style="stop-color:#7EDAEE"/>
				<stop  offset="0.5632" style="stop-color:#A3D9E9"/>
				<stop  offset="0.5644" style="stop-color:#A7D9E8"/>
				<stop  offset="0.6418" style="stop-color:#A5D9E8"/>
				<stop  offset="0.6779" style="stop-color:#9DD9E9"/>
				<stop  offset="0.7054" style="stop-color:#91DAEB"/>
				<stop  offset="0.7286" style="stop-color:#7EDAEE"/>
				<stop  offset="0.749" style="stop-color:#67DBF1"/>
				<stop  offset="0.7675" style="stop-color:#49DCF6"/>
				<stop  offset="0.7842" style="stop-color:#27DDFA"/>
				<stop  offset="0.7914" style="stop-color:#16DEFD"/>
				<stop  offset="1" style="stop-color:#08AFCD"/>
			</linearGradient>
			<path fill="url(#SVGID_25_)" stroke="#2C7592" stroke-miterlimit="10" d="M168.713,104.922c0,0-0.29-0.271-0.807,0.121
				c0,0-2.826,5.285-20.033,15.193c-5.787,3.332-17.323,9.08-24.041,11.771c-0.619,0.25-1.021,0.732-1.021,1.392l0.244,15.527
				c-0.025,0.608,0.756,0.77,1.217,0.567c6.082-2.646,15.266-7.502,26.364-14.513c15.294-9.648,19.39-15.564,19.39-15.564
				s0.369-0.245,0.293-1.111C170.209,116.993,168.713,104.922,168.713,104.922z"/>
			
				<radialGradient id="SVGID_26_" cx="260.3604" cy="1331.0449" r="68.7527" gradientTransform="matrix(1 0 0 1 -200 -1182)" gradientUnits="userSpaceOnUse">
				<stop  offset="0" style="stop-color:#D9FF8B"/>
				<stop  offset="1" style="stop-color:#D9FF8B;stop-opacity:0"/>
			</radialGradient>
			<path fill="url(#SVGID_26_)" d="M114.629,124.918c1.04,0.754,2.605,0.794,2.49,1.438c-0.178,0.938-1.674,0.918-3.033-0.149
				c-4.477-3.935-22.629-19.787-22.629-19.787s0.026-0.983,1.135-2.543c1.109-1.56,2.435-1.751,2.435-1.751
				s-3.237,1.924-1.691,3.868C94.668,107.665,110.732,121.574,114.629,124.918z"/>
			
				<linearGradient id="SVGID_27_" gradientUnits="userSpaceOnUse" x1="336.1523" y1="1301.5869" x2="334.4847" y2="1302.5398" gradientTransform="matrix(1 0 0 1 -200 -1182)">
				<stop  offset="0" style="stop-color:#0888A4"/>
				<stop  offset="0.3374" style="stop-color:#08DEFF"/>
				<stop  offset="0.4304" style="stop-color:#0ADEFF"/>
				<stop  offset="0.4639" style="stop-color:#11DEFE"/>
				<stop  offset="0.4878" style="stop-color:#1CDDFC"/>
				<stop  offset="0.5071" style="stop-color:#2DDDFA"/>
				<stop  offset="0.5237" style="stop-color:#43DCF6"/>
				<stop  offset="0.5383" style="stop-color:#5FDBF2"/>
				<stop  offset="0.5514" style="stop-color:#7EDAEE"/>
				<stop  offset="0.5632" style="stop-color:#A3D9E9"/>
				<stop  offset="0.5644" style="stop-color:#A7D9E8"/>
				<stop  offset="0.6418" style="stop-color:#A5D9E8"/>
				<stop  offset="0.6779" style="stop-color:#9DD9E9"/>
				<stop  offset="0.7054" style="stop-color:#91DAEB"/>
				<stop  offset="0.7286" style="stop-color:#7EDAEE"/>
				<stop  offset="0.749" style="stop-color:#67DBF1"/>
				<stop  offset="0.7675" style="stop-color:#49DCF6"/>
				<stop  offset="0.7842" style="stop-color:#27DDFA"/>
				<stop  offset="0.7914" style="stop-color:#16DEFD"/>
				<stop  offset="1" style="stop-color:#08AFCD"/>
			</linearGradient>
			<path fill="url(#SVGID_27_)" stroke="#2C7592" stroke-miterlimit="10" d="M103.664,141.007c3.33,3.461,8.783,9.136,8.783,9.136
				l-0.331-18.727l-10.96-8.841c0,0,0.01,9.044,0.002,11.563C101.154,136.334,102.2,139.484,103.664,141.007z"/>
			<path d="M126.691,161.879c-1.414,0.715-2.943,1.219-2.943,1.219s0.637,3.938,1.014,7.012c0.163,1.318,1.023,1.686,2.377,1.041
				c1.219-0.58,9.656-4.855,9.656-4.855l-0.463-8.861C136.332,157.427,128.005,161.211,126.691,161.879z"/>
			<g>
				<g>
					<path d="M111.125,144.154c-0.012,0.432-0.297,0.854-0.654,0.96l-4.221,1.188c-0.384,0.107-0.723-0.157-0.758-0.604l-0.68-8.802
						c-0.043-0.574,0.289-1.121,0.737-1.205l4.947-0.918c0.413-0.073,0.733,0.318,0.729,0.873L111.125,144.154z"/>
				</g>
			</g>
			<path fill="none" stroke="#CCCCCC" stroke-linecap="round" d="M119.294,158.088"/>
			<path fill="none" stroke="#FFFFFF" stroke-width="0.5" stroke-linecap="round" d="M119.294,158.088"/>
			
				<radialGradient id="SVGID_28_" cx="327.2617" cy="1115.4844" r="2.1607" gradientTransform="matrix(1 -0.0748 0 1 -200 -925.2275)" gradientUnits="userSpaceOnUse">
				<stop  offset="0" style="stop-color:#FFFFFF"/>
				<stop  offset="0.4202" style="stop-color:#FDFDFD"/>
				<stop  offset="0.5716" style="stop-color:#F6F6F6"/>
				<stop  offset="0.6794" style="stop-color:#EBEBEB"/>
				<stop  offset="0.7667" style="stop-color:#DADADA"/>
				<stop  offset="0.8414" style="stop-color:#C4C4C4"/>
				<stop  offset="0.9076" style="stop-color:#A8A8A8"/>
				<stop  offset="0.9659" style="stop-color:#898989"/>
				<stop  offset="1" style="stop-color:#737373"/>
			</radialGradient>
			<path fill="url(#SVGID_28_)" d="M129.184,164.844c0.088,1.227-0.703,2.643-1.768,3.157c-1.061,0.515-1.992-0.062-2.077-1.288
				c-0.085-1.229,0.704-2.641,1.769-3.156C128.17,163.039,129.102,163.617,129.184,164.844z"/>
			
				<radialGradient id="SVGID_29_" cx="333.1562" cy="1113.5205" r="2.1612" gradientTransform="matrix(1 -0.0748 0 1 -200 -925.2275)" gradientUnits="userSpaceOnUse">
				<stop  offset="0" style="stop-color:#FFFFFF"/>
				<stop  offset="0.4202" style="stop-color:#FDFDFD"/>
				<stop  offset="0.5716" style="stop-color:#F6F6F6"/>
				<stop  offset="0.6794" style="stop-color:#EBEBEB"/>
				<stop  offset="0.7667" style="stop-color:#DADADA"/>
				<stop  offset="0.8414" style="stop-color:#C4C4C4"/>
				<stop  offset="0.9076" style="stop-color:#A8A8A8"/>
				<stop  offset="0.9659" style="stop-color:#898989"/>
				<stop  offset="1" style="stop-color:#737373"/>
			</radialGradient>
			<path fill="url(#SVGID_29_)" d="M135.079,162.438c0.087,1.229-0.703,2.646-1.769,3.158c-1.062,0.514-1.99-0.062-2.076-1.289
				c-0.086-1.227,0.703-2.64,1.769-3.156C134.064,160.634,134.996,161.212,135.079,162.438z"/>
			
				<radialGradient id="SVGID_30_" cx="306.3145" cy="1320.1113" r="10.7316" gradientTransform="matrix(1 0 0 1 -200 -1182)" gradientUnits="userSpaceOnUse">
				<stop  offset="0" style="stop-color:#D9FF8B"/>
				<stop  offset="1" style="stop-color:#D9FF8B;stop-opacity:0"/>
			</radialGradient>
			<path fill="url(#SVGID_30_)" d="M91.523,139.301c0,0,5.061-0.488,8.855,5.738c3.343,5.486,5.449,10.706,4.867,12.459
				c-0.584,1.752-1.991-5.54-5.257-10.707c-5.353-8.467-9.732-6.811-9.732-6.811L91.523,139.301z"/>
			
				<linearGradient id="SVGID_31_" gradientUnits="userSpaceOnUse" x1="290.0625" y1="1334.3496" x2="306.2695" y2="1334.3496" gradientTransform="matrix(1 0 0 1 -200 -1182)">
				<stop  offset="0" style="stop-color:#001C18"/>
				<stop  offset="1" style="stop-color:#000000;stop-opacity:0"/>
			</linearGradient>
			<path fill="url(#SVGID_31_)" d="M90.732,138.959c0,0,3.904-3.359,10.229,5.068c3.422,4.561,5.404,14.004,5.305,22.375
				l-0.682-0.729c0-3.215-1.555-15.731-5.205-20.927c-5.303-7.544-10.317-5.396-10.317-5.396L90.732,138.959z"/>
			
				<radialGradient id="SVGID_32_" cx="314.0625" cy="1353.2178" r="31.556" gradientTransform="matrix(1 0 0 1 -200 -1182)" gradientUnits="userSpaceOnUse">
				<stop  offset="0" style="stop-color:#FFFFFF"/>
				<stop  offset="0.3676" style="stop-color:#FDFDFD"/>
				<stop  offset="0.5022" style="stop-color:#F6F6F6"/>
				<stop  offset="0.5985" style="stop-color:#EAEAEA"/>
				<stop  offset="0.6766" style="stop-color:#D9D9D9"/>
				<stop  offset="0.7436" style="stop-color:#C3C3C3"/>
				<stop  offset="0.8031" style="stop-color:#A8A8A8"/>
				<stop  offset="0.8569" style="stop-color:#878787"/>
				<stop  offset="0.9064" style="stop-color:#616161"/>
				<stop  offset="0.9524" style="stop-color:#363636"/>
				<stop  offset="0.9934" style="stop-color:#080808"/>
				<stop  offset="1" style="stop-color:#000000"/>
			</radialGradient>
			<path fill="url(#SVGID_32_)" d="M88.697,146.402l3.165-1.897l0.292-0.729c0,0,0.438-0.584-0.438-0.729
				S89.333,143.336,88.697,146.402z"/>
			<path opacity="0.31" fill="none" stroke="#000000" stroke-width="0.25" enable-background="new    " d="M114.004,165.865v-35.229
				l-17.712-15.182v16.937c0,0,0.387,3.696,2.337,6.032c1.943,2.335,6.227,7.396,7.59,13.231c1.363,5.845,1.752,8.566,1.752,8.566
				L114.004,165.865z"/>
			<path d="M170.102,134.398c0.771-0.828,1.791-2.025,1.791-2.025s-0.186,3.973-0.367,7.766c-0.067,1.498-0.932,3.188-1.668,4.023
				c-0.664,0.757-5.227,4.705-5.227,4.705l0.512-9.779C165.143,139.088,169.387,135.172,170.102,134.398z"/>
			
				<radialGradient id="SVGID_33_" cx="370.3281" cy="1091.5596" r="1.8602" gradientTransform="matrix(1 -0.0748 0 1 -200 -925.2275)" gradientUnits="userSpaceOnUse">
				<stop  offset="0" style="stop-color:#FFFFFF"/>
				<stop  offset="0.4202" style="stop-color:#FDFDFD"/>
				<stop  offset="0.5716" style="stop-color:#F6F6F6"/>
				<stop  offset="0.6794" style="stop-color:#EBEBEB"/>
				<stop  offset="0.7667" style="stop-color:#DADADA"/>
				<stop  offset="0.8414" style="stop-color:#C4C4C4"/>
				<stop  offset="0.9076" style="stop-color:#A8A8A8"/>
				<stop  offset="0.9659" style="stop-color:#898989"/>
				<stop  offset="1" style="stop-color:#737373"/>
			</radialGradient>
			<path fill="url(#SVGID_33_)" d="M171.464,137.758c0.05,1.229-0.419,2.614-1.043,3.102c-0.626,0.481-1.173-0.123-1.228-1.354
				c-0.051-1.232,0.416-2.615,1.041-3.104C170.863,135.922,171.413,136.525,171.464,137.758z"/>
			
				<radialGradient id="SVGID_34_" cx="367.0664" cy="1094.7148" r="1.8593" gradientTransform="matrix(1 -0.0748 0 1 -200 -925.2275)" gradientUnits="userSpaceOnUse">
				<stop  offset="0" style="stop-color:#FFFFFF"/>
				<stop  offset="0.4202" style="stop-color:#FDFDFD"/>
				<stop  offset="0.5716" style="stop-color:#F6F6F6"/>
				<stop  offset="0.6794" style="stop-color:#EBEBEB"/>
				<stop  offset="0.7667" style="stop-color:#DADADA"/>
				<stop  offset="0.8414" style="stop-color:#C4C4C4"/>
				<stop  offset="0.9076" style="stop-color:#A8A8A8"/>
				<stop  offset="0.9659" style="stop-color:#898989"/>
				<stop  offset="1" style="stop-color:#737373"/>
			</radialGradient>
			<path fill="url(#SVGID_34_)" d="M168.201,141.157c0.051,1.229-0.418,2.614-1.043,3.101c-0.626,0.482-1.174-0.121-1.227-1.352
				c-0.054-1.232,0.416-2.617,1.041-3.104C167.604,139.322,168.15,139.927,168.201,141.157z"/>
			<path opacity="0.31" fill="none" stroke="#000000" stroke-width="0.25" enable-background="new    " d="M171.875,143.637
				c0,0-9.113,8.137-19.626,15.346c-10.511,7.207-21.459,11.824-25.983,13.771c-4.521,1.945-5.688,0.123-7.007-0.459
				c-1.313-0.584-12.993-10.516-12.993-10.516s-0.223-8.637-4.271-15.658c-6.351-11.01-11.258-7.158-11.258-7.158"/>
			<path d="M149.85,149.826c-5.42,3.566-10.972,6.682-10.972,6.682s0.543,2.906,0.729,6.344c0.082,1.447,1.063,1.75,2.488,1.008
				c5.049-2.637,14.104-8.01,18.576-11.943c1.085-0.955,2.021-2.51,2.112-4.186c0.214-3.729,0.399-7.035,0.399-7.035
				S155.132,146.348,149.85,149.826z"/>
			<path d="M88.834,143.448c-0.207,0.479-0.063,3.437-0.063,3.437s0.847-0.013,0.974-0.455c0.13-0.451,0.158-1.06,0.328-1.51
				c0.656-1.766,2.587-1.602,2.587-1.602S89.744,141.375,88.834,143.448z"/>
			<path fill="#627C6A" d="M67.31,122.544l-0.941-1.089c0.006-0.04,0.54-38.336,0.62-38.664c0.351-1.443,1.582-5.193,5.191-7.125
				l47.416-24.959c2.854-1.529,5.547,1.092,5.699,1.214l0.921,0.893c-0.032-0.026-3.087-2.585-6.17-1.267L72.629,76.506
				c-3.184,1.704-4.343,5.077-4.69,6.428C67.848,83.289,67.31,123.486,67.31,122.544z"/>
			<path fill="#627C6A" d="M56.469,111.546l-0.916-1.06c0.007-0.039-0.078-37.658,0-37.979c0.342-1.403,1.538-5.052,5.05-6.931
				l46.734-23.919c2.772-1.487,5.396,1.062,5.544,1.181l0.896,0.869c-0.032-0.025-3.004-2.515-6.004-1.232L61.04,66.395
				c-3.097,1.657-4.226,4.939-4.563,6.253C56.388,72.994,56.469,112.463,56.469,111.546z"/>
			<path fill="#627C6A" d="M46.728,102.105l-0.894-1.033c0.006-0.038-0.15-37.209-0.074-37.521c0.333-1.37,1.502-4.932,4.93-6.767
				l45.699-22.906c2.707-1.453,5.267,1.038,5.412,1.153l0.874,0.848c-0.03-0.024-2.931-2.455-5.86-1.203L51.116,57.582
				c-3.022,1.618-4.124,4.822-4.455,6.106C46.575,64.024,46.728,103.001,46.728,102.105z"/>
			<path fill="#627C6A" d="M36.623,92.76l-0.881-1.02c0.006-0.037-0.075-36.725,0-37.033c0.329-1.349,1.479-4.857,4.856-6.665
				l44.939-22.487c2.667-1.43,5.188,1.022,5.332,1.136l0.86,0.835c-0.03-0.024-2.887-2.417-5.771-1.184l-44.94,22.487
				c-2.978,1.594-4.062,4.749-4.389,6.014C36.544,55.174,36.623,93.641,36.623,92.76z"/>
		</g>
	</g>
</g>
</svg>
