<?xml version="1.0" encoding="utf-8"?>
<!-- Generator: Adobe Illustrator 15.0.0, SVG Export Plug-In . SVG Version: 6.00 Build 0)  -->
<!DOCTYPE svg PUBLIC "-//W3C//DTD SVG 1.1//EN" "http://www.w3.org/Graphics/SVG/1.1/DTD/svg11.dtd">
<svg version="1.1" id="Layer_1" xmlns="http://www.w3.org/2000/svg" xmlns:xlink="http://www.w3.org/1999/xlink" x="0px" y="0px"
	 width="200px" height="200px" viewBox="0 0 200 200" enable-background="new 0 0 200 200" xml:space="preserve">
<g id="icon">
	<g id="Layer_2">
	</g>
	<g id="Layer_1_1_">
		<g>
			<polygon points="59.891,97.261 70.109,90.318 125.176,60.247 154.27,47.345 156.643,52.693 63.547,101.27 			"/>
			
				<linearGradient id="SVGID_1_" gradientUnits="userSpaceOnUse" x1="350.4453" y1="-1188.8008" x2="350.9033" y2="-1206.2032" gradientTransform="matrix(1 0 0 -1 -250 -1121)">
				<stop  offset="0" style="stop-color:#6A6669"/>
				<stop  offset="0.5031" style="stop-color:#8B8B8B"/>
				<stop  offset="0.551" style="stop-color:#8E8E8E"/>
				<stop  offset="0.5843" style="stop-color:#979797"/>
				<stop  offset="0.6131" style="stop-color:#A6A6A6"/>
				<stop  offset="0.6319" style="stop-color:#B5B5B5"/>
				<stop  offset="1" style="stop-color:#494447"/>
			</linearGradient>
			<path fill="url(#SVGID_1_)" d="M168.881,57.183c0,0,6.861-3.033,11.004-5.604l-1.361-2.936c-4.135,2.097-10.59,4.942-10.59,4.942
				c-4.599-7.725-7.207-13.567-10.642-17.567c-0.365,0.64-2.181,1.358-3.269,1.753c3.131,3.263,4.43,7.377,4.668,9.902
				c-5.405,2.525-15.375,9.695-21.692,9.776c-2.926,0.902-3.464,2.635-4.717,4.117c-16.808,7.706-44.402,23.039-57.645,30.35
				c-2.625,1.451-13.354,7.9-16.337,8.346c0,0-0.241-0.843-2.279-3.518l-10.208,4.938c0.64,1.479,0.621,3.412,1.708,5.051
				c-4.658,2.318-8.832,3.955-12.589,6.941c-0.962,2.361-1.321,6.301,0.093,8.309c-0.881,0.726-0.816,0.523-0.862,2.711
				c-4.249,1.771-7.654,1.718-10.126,0.613c-1.875,0.219-1.875,2.729-1.875,2.729c5.39,7.185,10.337,16.31,12.354,28.14
				c0.141,0.828-1.835,2.658-1.721,3.486c0.09,0.652,2.065,3.012,2.137,3.663c0.862,0.435,1.683,0.934,3.428,0.844
				c2.836-8.022-4.496-19.646-2.087-27.826c-0.37-0.53,0.698-1.373,1.668-2.049c2.602,0.749,4.797,2.744,7.322,3.699
				c3.034-1.694,6.076-3.394,9.121-5.093c2.901,2.774,6.206,0.891,8.243,5.936c2.376,5.921-5.476,14.112-5.333,20.96
				c0.031,1.485,2.277,4.702,3.027,5.81c2.732,4.062,12.577,0.869,16.482,0.629c0.281-7.241,0.51-14.508,0.035-22.022
				c-0.148-1.468-0.989-11.435,3.198-13.979c4.522-2.756,7.381-5.215,12.073-7.646c0.001,0,0.001,0,0.001,0
				c0.736-0.496,1.486-0.955,2.15-1.259c4.458-2.828,9.744-7.271,10.083-6.075c2.277,0.671,4.294,2.243,5.761,3.948
				c9.854,11.538,23.114,20.761,36.24,26.059c2.229-2.938,4.385-5.901,5.176-9.228c-0.629-0.401-1.897-2.896-2.539-3.305
				c-14.524-9.269-31.521-16.467-39.082-36.885c-0.278,1.424,61.807-34.604,61.807-34.604L168.881,57.183z"/>
			
				<linearGradient id="SVGID_2_" gradientUnits="userSpaceOnUse" x1="347.3213" y1="-1191.4375" x2="361.2772" y2="-1217.9989" gradientTransform="matrix(1 0 0 -1 -250 -1121)">
				<stop  offset="0" style="stop-color:#6A6669"/>
				<stop  offset="0.092" style="stop-color:#AFAFAF"/>
				<stop  offset="0.0934" style="stop-color:#AFAFAF"/>
				<stop  offset="0.1604" style="stop-color:#A3A3A3"/>
				<stop  offset="0.2535" style="stop-color:#9C9C9C"/>
				<stop  offset="0.5031" style="stop-color:#9A9A9A"/>
				<stop  offset="0.6587" style="stop-color:#9D9D9D"/>
				<stop  offset="0.7667" style="stop-color:#A6A6A6"/>
				<stop  offset="0.8589" style="stop-color:#B5B5B5"/>
				<stop  offset="1" style="stop-color:#696467"/>
			</linearGradient>
			<path fill="url(#SVGID_2_)" d="M167.71,54.247c0,0,6.671-3.033,10.813-5.604l-1.922-3.832c-4.14,2.097-10.81,5.109-10.81,5.109
				c-4.604-7.725-7.208-13.567-10.646-17.567c-0.361,0.641-2.181,1.358-3.269,1.753c3.131,3.263,4.431,7.376,4.666,9.902
				c-5.403,2.524-15.371,9.695-21.688,9.776c-2.928,0.902-3.465,2.635-4.719,4.117C113.338,65.608,85.743,80.94,72.5,88.252
				c-2.624,1.451-13.354,7.9-16.336,8.346c0,0-0.243-0.843-2.279-3.518l-10.208,4.937c0.64,1.478,0.621,3.415,1.708,5.049
				c-4.659,2.315-8.832,3.955-12.589,6.938c-0.962,2.362-1.321,6.304,0.093,8.312c-0.82,0.674-0.82,0.55-0.854,2.3l4.253,10.179
				c2.393,0.841,4.474,2.639,6.839,3.531c3.034-1.694,6.076-3.395,9.121-5.092c2.901,2.777,6.206,0.89,8.243,5.935
				c2.893,7.206-6.505,20.562-2.306,26.771c2.733,4.061,12.577,0.869,16.481,0.629c0.295-7.603,0.542-15.221-0.032-23.137
				c4.867-4.619,15.234-1.97,21.398-10.229c1.281-5.004-3.016-11.981,2.969-15.32c1.223,0.454,0.744-0.499,3.205-2.299
				c2.276,0.671,4.293,2.243,5.76,3.949c9.853,11.536,22.716,21.118,35.841,26.419c2.229-2.94,4.385-5.902,5.174-9.229
				c-14.976-9.587-33.33-19.232-41.221-40.547l61.803-34.606L167.71,54.247z M38.813,122.268c-0.92-1.477,3.285-3.101,3.966-2.763
				C40.825,120.204,40.772,121.568,38.813,122.268z M111.218,71.233c-1.417,1.24-2.632,0.442-3.03,1.619
				C107.16,71.422,111.003,70.025,111.218,71.233z M96.348,78.656c2.142-0.794,4.917-3.355,6.656-3.027
				c-4.298,1.943-9.227,5.683-13.1,6.501C92.051,80.971,94.198,79.812,96.348,78.656z M80.056,87.454
				c0.981,2.61-3.931,3.099-5.121,2.778C76.645,89.308,78.351,88.379,80.056,87.454z M63.017,118.277
				c-0.131-0.297-0.256-0.592-0.384-0.896c2.037-0.715-1.176-0.864,0.87-1.587c0.32,0.742,0.639,1.488,0.958,2.23
				C63.896,118.368,63.453,118.33,63.017,118.277z M72.602,103.073c3.662-2.005,7.346-4.011,11.027-6.018
				c3.205-1.632,6.727-3.811,8.52-4.631c-0.057,0.028,3.945-2.037,1.468-0.247C87.801,96.383,78.348,100.134,72.602,103.073z
				 M93.988,129.229c-6.066,3.989-11.783,7.047-17.16,5.672c-0.386-2.77,0.58-9.275,2.055-7.373c3.384,4.373,7.37,5.104,9.484,4.27
				c-2.916-1.154-7.185-8.271-1.812-10.521c0.603-0.121,5.546-4.459,7.147-3.938C94.339,121.489,95.189,125.723,93.988,129.229z
				 M43.259,115.902c17.187-7.842,38.89-21.945,53.7-28.271C78.774,96.525,56.766,111.43,43.259,115.902z M102.46,98.324
				c1.412-0.426,3.438-2.568,4.452-1.871C105.496,96.878,103.469,99.02,102.46,98.324z M114.959,79.032
				c-5.249,1.635-12.79,9.17-17.761,7.921c6.543-3.034,13.136-7.979,17.647-9.493C115.117,78.065,115.042,78.55,114.959,79.032z
				 M117.542,67.312c1.116-0.576,2.315-1.265,3.478-1.854C127.624,62.11,120.85,66.837,117.542,67.312z"/>
			
				<linearGradient id="SVGID_3_" gradientUnits="userSpaceOnUse" x1="347.8428" y1="-1193.0303" x2="351.4474" y2="-1199.6394" gradientTransform="matrix(1 0 0 -1 -250 -1121)">
				<stop  offset="0.4663" style="stop-color:#FFFFFF"/>
				<stop  offset="0.468" style="stop-color:#FEFEFE;stop-opacity:0.9967"/>
				<stop  offset="0.5062" style="stop-color:#E3EFEE;stop-opacity:0.9251"/>
				<stop  offset="0.5496" style="stop-color:#CDE3E0;stop-opacity:0.8438"/>
				<stop  offset="0.6009" style="stop-color:#BCDAD6;stop-opacity:0.7478"/>
				<stop  offset="0.6642" style="stop-color:#B1D3CE;stop-opacity:0.6291"/>
				<stop  offset="0.7531" style="stop-color:#AACFCA;stop-opacity:0.4625"/>
				<stop  offset="1" style="stop-color:#A8CEC9;stop-opacity:0"/>
			</linearGradient>
			<path opacity="0.48" fill="url(#SVGID_3_)" enable-background="new    " d="M167.71,54.247c0,0,6.671-3.033,10.813-5.604
				l-1.922-3.832c-4.14,2.097-10.81,5.109-10.81,5.109c-4.604-7.725-7.208-13.567-10.646-17.567
				c-0.361,0.641-2.181,1.358-3.269,1.753c3.131,3.263,4.431,7.376,4.666,9.902c-5.403,2.524-15.371,9.695-21.688,9.776
				c-2.928,0.902-3.465,2.635-4.719,4.117C113.338,65.608,85.743,80.94,72.5,88.252c-2.624,1.451-13.354,7.9-16.336,8.346
				c0,0-0.243-0.843-2.279-3.518l-10.208,4.937c0.64,1.478,0.621,3.415,1.708,5.049c-4.659,2.315-8.832,3.955-12.589,6.938
				c-0.962,2.362-1.321,6.304,0.093,8.312c-0.82,0.674-0.82,0.55-0.854,2.3l4.253,10.179c2.393,0.841,4.474,2.639,6.839,3.531
				c3.034-1.694,6.076-3.395,9.121-5.092c2.901,2.777,6.206,0.89,8.243,5.935c2.893,7.206-6.505,20.562-2.306,26.771
				c2.733,4.061,12.577,0.869,16.481,0.629c0.295-7.603,0.542-15.221-0.032-23.137c4.867-4.619,15.234-1.97,21.398-10.229
				c1.281-5.004-3.016-11.981,2.969-15.32c1.223,0.454,0.744-0.499,3.205-2.299c2.276,0.671,4.293,2.243,5.76,3.949
				c9.853,11.536,22.716,21.118,35.841,26.419c2.229-2.94,4.385-5.902,5.174-9.229c-14.976-9.587-33.33-19.232-41.221-40.547
				l61.803-34.606L167.71,54.247z M38.813,122.268c-0.92-1.477,3.285-3.101,3.966-2.763
				C40.825,120.204,40.772,121.568,38.813,122.268z M111.218,71.233c-1.417,1.24-2.632,0.442-3.03,1.619
				C107.16,71.422,111.003,70.025,111.218,71.233z M96.348,78.656c2.142-0.794,4.917-3.355,6.656-3.027
				c-4.298,1.943-9.227,5.683-13.1,6.501C92.051,80.971,94.198,79.812,96.348,78.656z M80.056,87.454
				c0.981,2.61-3.931,3.099-5.121,2.778C76.645,89.308,78.351,88.379,80.056,87.454z M63.017,118.277
				c-0.131-0.297-0.256-0.592-0.384-0.896c2.037-0.715-1.176-0.864,0.87-1.587c0.32,0.742,0.639,1.488,0.958,2.23
				C63.896,118.368,63.453,118.33,63.017,118.277z M72.602,103.073c3.662-2.005,7.346-4.011,11.027-6.018
				c3.205-1.632,6.727-3.811,8.52-4.631c-0.057,0.028,3.945-2.037,1.468-0.247C87.801,96.383,78.348,100.134,72.602,103.073z
				 M93.988,129.229c-6.066,3.989-11.783,7.047-17.16,5.672c-0.386-2.77,0.58-9.275,2.055-7.373c3.384,4.373,7.37,5.104,9.484,4.27
				c-2.916-1.154-7.185-8.271-1.812-10.521c0.603-0.121,5.546-4.459,7.147-3.938C94.339,121.489,95.189,125.723,93.988,129.229z
				 M43.259,115.902c17.187-7.842,38.89-21.945,53.7-28.271C78.774,96.525,56.766,111.43,43.259,115.902z M102.46,98.324
				c1.412-0.426,3.438-2.568,4.452-1.871C105.496,96.878,103.469,99.02,102.46,98.324z M114.959,79.032
				c-5.249,1.635-12.79,9.17-17.761,7.921c6.543-3.034,13.136-7.979,17.647-9.493C115.117,78.065,115.042,78.55,114.959,79.032z
				 M117.542,67.312c1.116-0.576,2.315-1.265,3.478-1.854C127.624,62.11,120.85,66.837,117.542,67.312z"/>
			
				<linearGradient id="SVGID_4_" gradientUnits="userSpaceOnUse" x1="356.625" y1="-1210.3379" x2="361.5102" y2="-1227.4353" gradientTransform="matrix(1 0 0 -1 -250 -1121)">
				<stop  offset="0.092" style="stop-color:#A8CEC9;stop-opacity:0"/>
				<stop  offset="0.1885" style="stop-color:#C4DEDA;stop-opacity:0.3455"/>
				<stop  offset="0.2883" style="stop-color:#E5F0EF;stop-opacity:0.7027"/>
				<stop  offset="0.4663" style="stop-color:#FFFFFF"/>
				<stop  offset="1" style="stop-color:#A8CEC9;stop-opacity:0"/>
			</linearGradient>
			<path opacity="0.48" fill="url(#SVGID_4_)" enable-background="new    " d="M167.71,54.247c0,0,6.671-3.033,10.813-5.604
				l-1.922-3.832c-4.14,2.097-10.81,5.109-10.81,5.109c-4.604-7.725-7.208-13.567-10.646-17.567
				c-0.361,0.641-2.181,1.358-3.269,1.753c3.131,3.263,4.431,7.376,4.666,9.902c-5.403,2.524-15.371,9.695-21.688,9.776
				c-2.928,0.902-3.465,2.635-4.719,4.117C113.338,65.608,85.743,80.94,72.5,88.252c-2.624,1.451-13.354,7.9-16.336,8.346
				c0,0-0.243-0.843-2.279-3.518l-10.208,4.937c0.64,1.478,0.621,3.415,1.708,5.049c-4.659,2.315-8.832,3.955-12.589,6.938
				c-0.962,2.362-1.321,6.304,0.093,8.312c-0.82,0.674-0.82,0.55-0.854,2.3l4.253,10.179c2.393,0.841,4.474,2.639,6.839,3.531
				c3.034-1.694,6.076-3.395,9.121-5.092c2.901,2.777,6.206,0.89,8.243,5.935c2.893,7.206-6.505,20.562-2.306,26.771
				c2.733,4.061,12.577,0.869,16.481,0.629c0.295-7.603,0.542-15.221-0.032-23.137c4.867-4.619,15.234-1.97,21.398-10.229
				c1.281-5.004-3.016-11.981,2.969-15.32c1.223,0.454,0.744-0.499,3.205-2.299c2.276,0.671,4.293,2.243,5.76,3.949
				c9.853,11.536,22.716,21.118,35.841,26.419c2.229-2.94,4.385-5.902,5.174-9.229c-14.976-9.587-33.33-19.232-41.221-40.547
				l61.803-34.606L167.71,54.247z M38.813,122.268c-0.92-1.477,3.285-3.101,3.966-2.763
				C40.825,120.204,40.772,121.568,38.813,122.268z M111.218,71.233c-1.417,1.24-2.632,0.442-3.03,1.619
				C107.16,71.422,111.003,70.025,111.218,71.233z M96.348,78.656c2.142-0.794,4.917-3.355,6.656-3.027
				c-4.298,1.943-9.227,5.683-13.1,6.501C92.051,80.971,94.198,79.812,96.348,78.656z M80.056,87.454
				c0.981,2.61-3.931,3.099-5.121,2.778C76.645,89.308,78.351,88.379,80.056,87.454z M63.017,118.277
				c-0.131-0.297-0.256-0.592-0.384-0.896c2.037-0.715-1.176-0.864,0.87-1.587c0.32,0.742,0.639,1.488,0.958,2.23
				C63.896,118.368,63.453,118.33,63.017,118.277z M72.602,103.073c3.662-2.005,7.346-4.011,11.027-6.018
				c3.205-1.632,6.727-3.811,8.52-4.631c-0.057,0.028,3.945-2.037,1.468-0.247C87.801,96.383,78.348,100.134,72.602,103.073z
				 M93.988,129.229c-6.066,3.989-11.783,7.047-17.16,5.672c-0.386-2.77,0.58-9.275,2.055-7.373c3.384,4.373,7.37,5.104,9.484,4.27
				c-2.916-1.154-7.185-8.271-1.812-10.521c0.603-0.121,5.546-4.459,7.147-3.938C94.339,121.489,95.189,125.723,93.988,129.229z
				 M43.259,115.902c17.187-7.842,38.89-21.945,53.7-28.271C78.774,96.525,56.766,111.43,43.259,115.902z M102.46,98.324
				c1.412-0.426,3.438-2.568,4.452-1.871C105.496,96.878,103.469,99.02,102.46,98.324z M114.959,79.032
				c-5.249,1.635-12.79,9.17-17.761,7.921c6.543-3.034,13.136-7.979,17.647-9.493C115.117,78.065,115.042,78.55,114.959,79.032z
				 M117.542,67.312c1.116-0.576,2.315-1.265,3.478-1.854C127.624,62.11,120.85,66.837,117.542,67.312z"/>
			<path fill="none" d="M62.633,117.387c0.128,0.299,0.252,0.594,0.384,0.896c0.436,0.052,0.879,0.09,1.444-0.246
				c-0.319-0.744-0.638-1.49-0.958-2.23C61.457,116.52,64.67,116.672,62.633,117.387z"/>
			<path fill="none" d="M92.149,92.425c-1.793,0.82-5.315,2.999-8.52,4.631c-3.682,2.007-7.365,4.012-11.027,6.018
				c5.746-2.939,15.199-6.69,21.016-10.896C96.095,90.388,92.093,92.453,92.149,92.425z"/>
			<path fill="none" d="M86.555,121.268c-5.373,2.258-1.104,9.368,1.812,10.525c-2.488,0.986-7.137-0.809-9.484-4.266
				c-0.981-1.444-2.371,5.104-2.055,7.373c5.376,1.375,11.093-1.687,17.16-5.672c1.201-3.512,0.351-7.739-0.286-11.896
				C92.101,116.809,87.158,121.146,86.555,121.268z"/>
			<path fill="none" d="M80.056,87.454c-1.705,0.925-3.411,1.854-5.121,2.778C76.125,90.553,81.037,90.064,80.056,87.454z"/>
			<path fill="none" d="M25.766,127.869c-1.66,2.851,4.358-1.165,5.771-0.992C31.867,124.354,26.881,129.434,25.766,127.869z"/>
			<path fill="none" d="M96.348,78.656c-2.15,1.156-4.297,2.315-6.444,3.474c3.874-0.818,8.802-4.558,13.1-6.501
				C101.266,75.301,98.489,77.862,96.348,78.656z"/>
			<path fill="none" d="M38.813,122.268c1.959-0.697,2.012-2.062,3.966-2.763C42.098,119.167,37.893,120.791,38.813,122.268z"/>
			<path fill="none" d="M111.218,71.233c-0.215-1.208-4.058,0.189-3.03,1.619C108.586,71.675,109.801,72.473,111.218,71.233z"/>
			<path fill="none" d="M96.959,87.632c-14.81,6.325-36.514,20.429-53.7,28.271C56.766,111.43,78.774,96.525,96.959,87.632z"/>
			<path fill="none" d="M121.02,65.458c-1.16,0.589-2.356,1.278-3.478,1.854C120.85,66.837,127.624,62.11,121.02,65.458z"/>
			<path fill="none" d="M97.198,86.953c4.971,1.249,12.512-6.286,17.761-7.921c0.083-0.481,0.158-0.967-0.111-1.572
				C110.334,78.974,103.741,83.919,97.198,86.953z"/>
			<path fill="none" d="M102.46,98.324c1.009,0.696,3.036-1.445,4.452-1.871C105.898,95.756,103.872,97.898,102.46,98.324z"/>
			
				<linearGradient id="SVGID_5_" gradientUnits="userSpaceOnUse" x1="326.7422" y1="-1234.9526" x2="334.4176" y2="-1251.1885" gradientTransform="matrix(1 0 0 -1 -250 -1121)">
				<stop  offset="0" style="stop-color:#6A6669"/>
				<stop  offset="0.1779" style="stop-color:#D0CFCF"/>
				<stop  offset="0.4601" style="stop-color:#C3C3C3"/>
				<stop  offset="1" style="stop-color:#696467"/>
			</linearGradient>
			<path fill="url(#SVGID_5_)" d="M80.464,112.587l-28.216,16.649c2.901,2.777,6.206,0.888,8.243,5.933
				c2.893,7.206-6.505,20.56-2.306,26.769c2.733,4.062,12.577,0.869,16.481,0.629c0.295-7.601,0.542-15.221-0.032-23.135
				c4.867-4.619,15.234-1.97,21.398-10.229c1.281-5.009-3.016-11.982,2.969-15.32c1.223,0.454,0.744-0.499,3.205-2.299l10.079-9.497
				c-1.689-3.074-3.213-6.364-4.525-9.908l-25.277,14.934L80.464,112.587z M106.912,96.453c-1.416,0.426-3.443,2.567-4.452,1.871
				C103.872,97.898,105.898,95.756,106.912,96.453z M86.555,121.268c0.603-0.121,5.546-4.459,7.147-3.936
				c0.637,4.157,1.487,8.391,0.286,11.896c-6.066,3.985-12.238,6.006-17.16,5.672C76.047,129.28,81.182,123.525,86.555,121.268z"/>
			
				<linearGradient id="SVGID_6_" gradientUnits="userSpaceOnUse" x1="334.3672" y1="-1234.0645" x2="325.6631" y2="-1218.4889" gradientTransform="matrix(1 0 0 -1 -250 -1121)">
				<stop  offset="0" style="stop-color:#6A6669"/>
				<stop  offset="0.1779" style="stop-color:#D0CFCF"/>
				<stop  offset="0.4601" style="stop-color:#C3C3C3"/>
				<stop  offset="1" style="stop-color:#696467"/>
			</linearGradient>
			<polygon fill="url(#SVGID_6_)" points="32.97,116.743 116.199,74.623 118.646,78.485 37.306,124.777 			"/>
			
				<linearGradient id="SVGID_7_" gradientUnits="userSpaceOnUse" x1="265.9922" y1="-1205.7695" x2="265.9922" y2="-1195.3015" gradientTransform="matrix(0.999 -0.0456 -0.0456 -0.999 -159.967 -1133.8281)">
				<stop  offset="0" style="stop-color:#98ADDB"/>
				<stop  offset="1" style="stop-color:#011025"/>
			</linearGradient>
			<polygon opacity="0.2" fill="url(#SVGID_7_)" enable-background="new    " points="156.553,44.008 165.072,57.062 
				162.895,59.149 155.746,45.568 			"/>
			
				<linearGradient id="SVGID_8_" gradientUnits="userSpaceOnUse" x1="261.1699" y1="-1208.8936" x2="261.1699" y2="-1198.4222" gradientTransform="matrix(0.999 -0.0456 -0.0456 -0.999 -159.967 -1133.8281)">
				<stop  offset="0" style="stop-color:#98ADDB"/>
				<stop  offset="1" style="stop-color:#011025"/>
			</linearGradient>
			<polygon opacity="0.2" fill="url(#SVGID_8_)" enable-background="new    " points="151.881,47.345 160.396,60.398 
				158.221,62.485 151.07,48.903 			"/>
			
				<linearGradient id="SVGID_9_" gradientUnits="userSpaceOnUse" x1="254.9336" y1="-1211.1631" x2="254.9336" y2="-1200.6913" gradientTransform="matrix(0.999 -0.0456 -0.0456 -0.999 -159.967 -1133.8281)">
				<stop  offset="0" style="stop-color:#98ADDB"/>
				<stop  offset="1" style="stop-color:#011025"/>
			</linearGradient>
			<polygon opacity="0.2" fill="url(#SVGID_9_)" enable-background="new    " points="145.754,49.895 154.27,62.949 152.094,65.036 
				144.943,51.452 			"/>
			
				<linearGradient id="SVGID_10_" gradientUnits="userSpaceOnUse" x1="249.8291" y1="-1213.7139" x2="249.8291" y2="-1203.2427" gradientTransform="matrix(0.999 -0.0456 -0.0456 -0.999 -159.967 -1133.8281)">
				<stop  offset="0" style="stop-color:#98ADDB"/>
				<stop  offset="1" style="stop-color:#011025"/>
			</linearGradient>
			<polygon opacity="0.2" fill="url(#SVGID_10_)" enable-background="new    " points="140.771,52.676 149.286,65.732 
				147.109,67.817 139.963,54.235 			"/>
			
				<linearGradient id="SVGID_11_" gradientUnits="userSpaceOnUse" x1="243.875" y1="-1216.2676" x2="243.875" y2="-1205.7958" gradientTransform="matrix(0.999 -0.0456 -0.0456 -0.999 -159.967 -1133.8281)">
				<stop  offset="0" style="stop-color:#98ADDB"/>
				<stop  offset="1" style="stop-color:#011025"/>
			</linearGradient>
			<polygon opacity="0.2" fill="url(#SVGID_11_)" enable-background="new    " points="134.939,55.497 143.454,68.552 
				141.279,70.639 134.131,57.057 			"/>
			
				<linearGradient id="SVGID_12_" gradientUnits="userSpaceOnUse" x1="421.8291" y1="-1169.4385" x2="424.0036" y2="-1173.9022" gradientTransform="matrix(1 0 0 -1 -250 -1121)">
				<stop  offset="0" style="stop-color:#6A6669"/>
				<stop  offset="0.1779" style="stop-color:#D0CFCF"/>
				<stop  offset="0.4601" style="stop-color:#C3C3C3"/>
				<stop  offset="1" style="stop-color:#696467"/>
			</linearGradient>
			<polygon fill="url(#SVGID_12_)" points="179.975,51.653 169.365,56.729 165.955,49.884 176.564,44.808 			"/>
			<path fill="none" d="M80.056,87.454c-1.705,0.925-3.411,1.854-5.121,2.778C76.125,90.553,81.037,90.064,80.056,87.454z"/>
			<path fill="none" d="M62.633,117.387c0.128,0.299,0.252,0.594,0.384,0.896c0.436,0.052,0.879,0.09,1.444-0.246
				c-0.319-0.744-0.638-1.49-0.958-2.23C61.457,116.52,64.67,116.672,62.633,117.387z"/>
			<path fill="none" d="M96.348,78.656c-2.15,1.156-4.297,2.315-6.444,3.474c3.874-0.818,8.802-4.558,13.1-6.501
				C101.266,75.301,98.489,77.862,96.348,78.656z"/>
			<path fill="none" d="M92.149,92.425c-1.793,0.82-5.315,2.999-8.52,4.631c-3.682,2.007-7.365,4.012-11.027,6.018
				c5.746-2.939,15.199-6.69,21.016-10.896C96.095,90.388,92.093,92.453,92.149,92.425z"/>
			<path fill="none" d="M111.218,71.233c-0.215-1.208-4.058,0.189-3.03,1.619C108.586,71.675,109.801,72.473,111.218,71.233z"/>
			<path fill="none" d="M25.766,127.869c-1.66,2.851,4.358-1.165,5.771-0.992C31.867,124.354,26.881,129.434,25.766,127.869z"/>
			<path fill="none" d="M38.813,122.268c1.959-0.697,2.012-2.062,3.966-2.763C42.098,119.167,37.893,120.791,38.813,122.268z"/>
			<path fill="none" d="M96.959,87.632c-14.81,6.325-36.514,20.429-53.7,28.271C56.766,111.43,78.774,96.525,96.959,87.632z"/>
			<path fill="none" d="M121.02,65.458c-1.16,0.589-2.356,1.278-3.478,1.854C120.85,66.837,127.624,62.11,121.02,65.458z"/>
			<path fill="none" d="M97.198,86.953c4.971,1.249,12.512-6.286,17.761-7.921c0.083-0.481,0.158-0.967-0.111-1.572
				C110.334,78.974,103.741,83.919,97.198,86.953z"/>
			<path fill="none" d="M102.46,98.324c1.009,0.696,3.036-1.445,4.452-1.871C105.898,95.756,103.872,97.898,102.46,98.324z"/>
			
				<linearGradient id="SVGID_13_" gradientUnits="userSpaceOnUse" x1="170.0527" y1="-1245.0947" x2="201.655" y2="-1249.6747" gradientTransform="matrix(1 0 0 -1 -250 -1121)">
				<stop  offset="0" style="stop-color:#6A6669"/>
				<stop  offset="0.092" style="stop-color:#AFAFAF"/>
				<stop  offset="0.0934" style="stop-color:#AFAFAF"/>
				<stop  offset="0.1604" style="stop-color:#A3A3A3"/>
				<stop  offset="0.2535" style="stop-color:#9C9C9C"/>
				<stop  offset="0.5031" style="stop-color:#9A9A9A"/>
				<stop  offset="0.6587" style="stop-color:#9D9D9D"/>
				<stop  offset="0.7667" style="stop-color:#A6A6A6"/>
				<stop  offset="0.8589" style="stop-color:#B5B5B5"/>
				<stop  offset="1" style="stop-color:#696467"/>
			</linearGradient>
			<path fill="url(#SVGID_13_)" d="M32.026,121.027c-4.248,1.771-7.654,1.714-10.126,0.613c-1.875,0.221-1.875,2.729-1.875,2.729
				c6.066,8.086,11.306,22.054,12.77,35.29c0.862,0.434,1.683,0.933,3.428,0.843c2.836-8.023-4.496-19.645-2.087-27.826
				c-0.37-0.531,0.698-1.373,1.668-2.049c0.164,0.047,0.322,0.111,0.483,0.168l-4.253-10.179
				C32.032,120.743,32.029,120.879,32.026,121.027z M31.536,126.877c-1.413-0.173-7.43,3.843-5.771,0.992
				C26.881,129.434,31.867,124.354,31.536,126.877z"/>
			
				<linearGradient id="SVGID_14_" gradientUnits="userSpaceOnUse" x1="276.4629" y1="-1245.457" x2="297.8095" y2="-1255.2152" gradientTransform="matrix(1 0 0 -1 -250 -1121)">
				<stop  offset="0" style="stop-color:#6A6669"/>
				<stop  offset="0.092" style="stop-color:#AFAFAF"/>
				<stop  offset="0.0934" style="stop-color:#AFAFAF"/>
				<stop  offset="0.1604" style="stop-color:#A3A3A3"/>
				<stop  offset="0.2535" style="stop-color:#9C9C9C"/>
				<stop  offset="0.5031" style="stop-color:#9A9A9A"/>
				<stop  offset="0.6587" style="stop-color:#9D9D9D"/>
				<stop  offset="0.7667" style="stop-color:#A6A6A6"/>
				<stop  offset="0.8589" style="stop-color:#B5B5B5"/>
				<stop  offset="1" style="stop-color:#696467"/>
			</linearGradient>
			<circle fill="url(#SVGID_14_)" cx="31.148" cy="126.599" r="1.822"/>
			<path opacity="0.42" enable-background="new    " d="M104.688,110.757c0,0,13.307,12.077,21.854,18.601
				c8.552,6.522,15.99,9.346,15.99,9.346l0.651-1.223c0,0-12.373-5.849-24.812-16.926c-11.229-10.004-12.261-10.828-12.261-10.828
				L104.688,110.757z"/>
			<path opacity="0.42" enable-background="new    " d="M107.389,108.176c0,0,13.104,12.25,21.541,18.868
				c8.44,6.619,14.899,9.005,14.899,9.005l0.657-1.224c0,0-11.241-5.703-22.487-15.692c-11.286-10.023-13.183-11.986-13.183-11.986
				L107.389,108.176z"/>
			<path opacity="0.42" enable-background="new    " d="M110.555,105.714c0,0,8.934,9.718,17.082,16.414
				c8.149,6.694,17.78,11.769,17.78,11.769l0.649-1.27c0,0-12.09-6.044-22.735-16.357c-10.646-10.312-11.373-11.639-11.373-11.639
				L110.555,105.714z"/>
			<path opacity="0.15" fill="#A7AEA9" enable-background="new    " d="M179.975,51.653l-0.793-1.59l-0.658-1.42l-1.922-3.832
				c-0.009,0.005-0.02,0.01-0.023,0.015l-0.014-0.018l-9.012,4.312c-1.025,0.47-1.691,0.771-1.742,0.794
				c-2.043-3.616-3.707-6.743-5.334-9.392c-1.828-3.264-3.457-5.998-5.322-8.169c-0.36,0.641-2.18,1.358-3.268,1.753
				c1.059,1.103,1.891,2.304,2.562,3.507c-0.148,0.056-0.29,0.109-0.426,0.157c0.453,0.47,0.854,0.96,1.229,1.459
				c0.774,1.79,1.181,3.492,1.299,4.779c-2.762,1.29-6.716,3.79-10.765,5.94l-0.035-0.054l-0.052,0.1
				c-3.849,2.038-7.771,3.751-10.843,3.79c-2.926,0.902-3.465,2.635-4.717,4.117c-1.565,0.719-3.229,1.504-4.963,2.342l-0.009,0.003
				l-0.003,0.001c-16.863,8.156-40.665,21.376-52.67,28.005c-2.624,1.451-13.354,7.9-16.336,8.346c0,0-0.243-0.843-2.279-3.518
				l-10.208,4.937c0.64,1.478,0.621,3.415,1.708,5.049c-4.659,2.315-8.832,3.955-12.589,6.938c-0.962,2.362-1.321,6.304,0.093,8.312
				c-0.82,0.674-0.82,0.55-0.854,2.3c-0.002,0.127-0.005,0.263-0.008,0.409c-4.248,1.771-7.654,1.716-10.126,0.613
				c-1.875,0.221-1.875,2.729-1.875,2.729c0.739,0.983,1.466,2.062,2.175,3.209c-0.036,0.271-0.038,0.455-0.038,0.455
				c0.505,0.672,1.004,1.366,1.499,2.073c4.437,8.117,7.974,19.062,9.134,29.553c0.09,0.652,2.065,3.012,2.137,3.662
				c0.862,0.436,1.683,0.935,3.428,0.845c2.836-8.021-4.496-19.646-2.087-27.826c-0.37-0.53,0.698-1.373,1.668-2.049
				c2.602,0.749,4.797,2.744,7.322,3.699c3.034-1.694,6.076-3.396,9.121-5.093c2.134,2.043,4.486,1.565,6.392,3.183
				c1.658,6.576-4.902,17.25-3.481,23.708c0,0.002,0,0.004,0,0.005c0.031,1.483,2.277,4.702,3.027,5.81
				c2.732,4.062,12.577,0.871,16.482,0.631c0.281-7.246,0.51-14.508,0.035-22.024c-0.071-0.706-0.298-3.377-0.054-6.242
				c5.335-2.646,13.882-1.569,19.248-8.765c0.684-2.674-0.221-5.904-0.303-8.848c4.075-2.762,8.311-6.174,8.615-5.107
				c2.276,0.671,4.293,2.24,5.76,3.947c9.854,11.537,23.115,20.762,36.24,26.06c2.229-2.938,4.385-5.899,5.176-9.229
				c-0.629-0.398-1.897-2.896-2.539-3.305c-11.205-7.173-25.627-13.187-33.957-26.062c-1.92-3.261-3.646-6.832-5.125-10.816
				c-0.278,1.424,61.807-34.605,61.807-34.605l-2.438-3.497l0.297-0.167l-0.309-0.552c1.346-0.604,6.112-2.788,9.654-4.853
				L179.975,51.653z M93.988,129.229c-4.675,4.146-12.425,6.396-16.806,5.756l0.072-0.096c0.631-3.095,1.905-4.34,3.631-5.201
				l0.01-0.018c2.842,2.453,5.767,2.799,7.472,2.122c-1.376-0.546-3.055-2.418-3.877-4.481c0,0,2.318-1.646,4.33-2.896
				c1.784-1.109,3.289-1.834,3.289-1.834s1.462-1.086,2.003-1.188l0.191-0.074C94.673,124.119,94.806,126.842,93.988,129.229z"/>
			
				<linearGradient id="SVGID_15_" gradientUnits="userSpaceOnUse" x1="308.8164" y1="-1260.2012" x2="325.7627" y2="-1273.9414" gradientTransform="matrix(1 0 0 -1 -250 -1121)">
				<stop  offset="0" style="stop-color:#D16E00"/>
				<stop  offset="0.1896" style="stop-color:#B56205"/>
				<stop  offset="0.5959" style="stop-color:#6E4313"/>
				<stop  offset="1" style="stop-color:#222222"/>
			</linearGradient>
			<path fill="url(#SVGID_15_)" d="M60.972,157.58c0,0-2.667-0.697,0.375-11.23c3.079-10.537,4.4-21.375,7.741-15.882
				c3.327,5.495,4.95,24.781,3.276,26.901C70.694,159.488,61.148,161.456,60.972,157.58z"/>
			
				<linearGradient id="SVGID_16_" gradientUnits="userSpaceOnUse" x1="313.7793" y1="-1259.2271" x2="331.0175" y2="-1267.1071" gradientTransform="matrix(1 0 0 -1 -250 -1121)">
				<stop  offset="0" style="stop-color:#6A6669"/>
				<stop  offset="0.092" style="stop-color:#AFAFAF"/>
				<stop  offset="0.0934" style="stop-color:#AFAFAF"/>
				<stop  offset="0.1604" style="stop-color:#A3A3A3"/>
				<stop  offset="0.2535" style="stop-color:#9C9C9C"/>
				<stop  offset="0.5031" style="stop-color:#9A9A9A"/>
				<stop  offset="0.6587" style="stop-color:#9D9D9D"/>
				<stop  offset="0.7667" style="stop-color:#A6A6A6"/>
				<stop  offset="0.8589" style="stop-color:#B5B5B5"/>
				<stop  offset="1" style="stop-color:#696467"/>
			</linearGradient>
			<circle fill="url(#SVGID_16_)" cx="67.562" cy="139.956" r="1.47"/>
			
				<linearGradient id="SVGID_17_" gradientUnits="userSpaceOnUse" x1="312.6797" y1="-1273.5361" x2="329.9063" y2="-1281.4111" gradientTransform="matrix(1 0 0 -1 -250 -1121)">
				<stop  offset="0" style="stop-color:#6A6669"/>
				<stop  offset="0.092" style="stop-color:#AFAFAF"/>
				<stop  offset="0.0934" style="stop-color:#AFAFAF"/>
				<stop  offset="0.1604" style="stop-color:#A3A3A3"/>
				<stop  offset="0.2535" style="stop-color:#9C9C9C"/>
				<stop  offset="0.5031" style="stop-color:#9A9A9A"/>
				<stop  offset="0.6587" style="stop-color:#9D9D9D"/>
				<stop  offset="0.7667" style="stop-color:#A6A6A6"/>
				<stop  offset="0.8589" style="stop-color:#B5B5B5"/>
				<stop  offset="1" style="stop-color:#696467"/>
			</linearGradient>
			<circle fill="url(#SVGID_17_)" cx="66.46" cy="154.265" r="1.47"/>
		</g>
	</g>
</g>
</svg>
