<?xml version="1.0" encoding="utf-8"?>
<!-- Generator: Adobe Illustrator 15.0.0, SVG Export Plug-In . SVG Version: 6.00 Build 0)  -->
<!DOCTYPE svg PUBLIC "-//W3C//DTD SVG 1.1//EN" "http://www.w3.org/Graphics/SVG/1.1/DTD/svg11.dtd">
<svg version="1.1" id="Layer_1" xmlns="http://www.w3.org/2000/svg" xmlns:xlink="http://www.w3.org/1999/xlink" x="0px" y="0px"
	 width="200px" height="200px" viewBox="0 0 200 200" enable-background="new 0 0 200 200" xml:space="preserve">
<g id="icon">
	<g id="Layer_2">
	</g>
	<g id="Layer_1_1_">
		<g>
			
				<linearGradient id="SVGID_1_" gradientUnits="userSpaceOnUse" x1="264.123" y1="1325.7646" x2="272.2234" y2="1332.1776" gradientTransform="matrix(1 0 0 1 -200 -1182)">
				<stop  offset="0" style="stop-color:#444241"/>
				<stop  offset="1" style="stop-color:#000000"/>
			</linearGradient>
			<path fill="url(#SVGID_1_)" d="M45.715,173.166c5.112,4.24,12.012,4.357,15.404,0.262l31.242-38.934
				c3.396-4.096,2.003-10.854-3.112-15.092l-0.643-0.234c-5.117-4.238-12.015-4.357-15.41-0.26l-31.243,38.934
				c-3.394,4.092-2,10.85,3.113,15.09L45.715,173.166z"/>
			<path d="M65.196,104.234c-2.087,4.014,5.579,15.643,17.123,25.974c11.542,10.331,22.595,15.454,24.681,11.438
				c2.086-4.015-5.581-15.646-17.122-25.975C78.333,105.345,67.279,100.219,65.196,104.234z"/>
			<path d="M66.291,103.01c-2.087,4.014,5.579,15.646,17.122,25.973c11.544,10.334,22.594,15.455,24.683,11.441
				c2.088-4.012-5.582-15.645-17.125-25.973C79.428,104.119,68.377,98.996,66.291,103.01z"/>
			<path fill="#404040" d="M84.48,127.479c-11.006-9.847-18.466-20.857-17.333-25.345c-0.353,0.22-0.658,0.494-0.856,0.875
				c-2.087,4.015,5.579,15.646,17.122,25.974c11.544,10.334,22.594,15.453,24.683,11.44c0.098-0.187,0.152-0.407,0.205-0.629
				C104.939,141.885,94.922,136.827,84.48,127.479z"/>
			
				<linearGradient id="SVGID_2_" gradientUnits="userSpaceOnUse" x1="306.7129" y1="1241.7344" x2="393.2809" y2="1304.5087" gradientTransform="matrix(1 0 0 1 -200 -1182)">
				<stop  offset="0" style="stop-color:#FFFFFF"/>
				<stop  offset="1" style="stop-color:#516EA2"/>
			</linearGradient>
			<path fill="url(#SVGID_2_)" d="M109.538,124.469c3.888-4.479,9.008-10.359,14.373-16.459
				c20.763-23.854,42.601-49.744,34.11-84.436c-7.029,14.774-15.285,32.358-37.75,44.034l0.387,1.597l-3.4-0.1
				c-0.896,0.421-1.818,0.833-2.757,1.236l1.149,4.768l-6.291-0.188l1.49,6.168l-6.43-0.189c-0.014,0.016-0.023,0.032-0.039,0.049
				l1.458,6.043l-6.186-0.182c-0.122,0.147-0.24,0.297-0.362,0.446l1.454,6.021l-6.226-0.184c-0.065,0.077-0.129,0.154-0.193,0.232
				l1.412,5.854l-6.134-0.183c-0.041,0.048-0.081,0.097-0.121,0.144l1.454,6.02l-6.45-0.189c-0.008,0.008-0.014,0.016-0.021,0.023
				l-5.375,5.865c-0.12,0.123-0.251,0.258-0.366,0.373l19.537,15.742c0.862-0.998,2.198-2.545,3.884-4.494
				C102.794,121.74,108.801,125.318,109.538,124.469z"/>
			
				<linearGradient id="SVGID_3_" gradientUnits="userSpaceOnUse" x1="318.207" y1="1243.126" x2="320.2321" y2="1266.0762" gradientTransform="matrix(1 0 0 1 -200 -1182)">
				<stop  offset="0.092" style="stop-color:#A8CEC9;stop-opacity:0"/>
				<stop  offset="0.1885" style="stop-color:#C4DEDA;stop-opacity:0.3455"/>
				<stop  offset="0.2883" style="stop-color:#E5F0EF;stop-opacity:0.7027"/>
				<stop  offset="0.4663" style="stop-color:#FFFFFF"/>
				<stop  offset="1" style="stop-color:#A8CEC9;stop-opacity:0"/>
			</linearGradient>
			<path fill="url(#SVGID_3_)" d="M109.538,124.469c3.888-4.479,9.008-10.359,14.373-16.459
				c20.763-23.854,42.601-49.744,34.11-84.436c-7.029,14.774-15.285,32.358-37.75,44.034l0.387,1.597l-3.4-0.1
				c-0.896,0.421-1.818,0.833-2.757,1.236l1.149,4.768l-6.291-0.188l1.49,6.168l-6.43-0.189c-0.014,0.016-0.023,0.032-0.039,0.049
				l1.458,6.043l-6.186-0.182c-0.122,0.147-0.24,0.297-0.362,0.446l1.454,6.021l-6.226-0.184c-0.065,0.077-0.129,0.154-0.193,0.232
				l1.412,5.854l-6.134-0.183c-0.041,0.048-0.081,0.097-0.121,0.144l1.454,6.02l-6.45-0.189c-0.008,0.008-0.014,0.016-0.021,0.023
				l-5.375,5.865c-0.12,0.123-0.251,0.258-0.366,0.373l19.537,15.742c0.862-0.998,2.198-2.545,3.884-4.494
				C102.794,121.74,108.801,125.318,109.538,124.469z"/>
			
				<linearGradient id="SVGID_4_" gradientUnits="userSpaceOnUse" x1="292.9883" y1="1212.8193" x2="330.5604" y2="1289.1954" gradientTransform="matrix(1 0 0 1 -200 -1182)">
				<stop  offset="0" style="stop-color:#FFFFFF"/>
				<stop  offset="1" style="stop-color:#718BAB"/>
			</linearGradient>
			<path fill="url(#SVGID_4_)" d="M100.141,116.372c0.642-0.74,3.738,2.397,4.475,1.549c3.889-4.481,7.595-7.304,12.959-13.403
				c20.764-23.854,32.146-33.354,35.122-58.452c-7.747,11.723-13.79,16.572-28.174,25.269l0.388,1.598l-3.402-0.1
				c-0.896,0.42-1.815,0.832-2.756,1.234l1.149,4.768l-6.291-0.186l1.488,6.168l-6.428-0.19c-0.013,0.017-0.021,0.032-0.035,0.05
				l1.459,6.043l-6.188-0.184c-0.12,0.148-0.243,0.298-0.362,0.446L105,97.003l-6.226-0.185c-0.064,0.078,1.219,6.086,1.219,6.086
				l-6.134-0.182c-0.041,0.049-0.082,0.096-0.121,0.145l1.453,6.02l-1.292,1.867l-6.122-2.371c-0.007,0.008-5.646,6.146-5.762,6.262
				l12.824,9.278C95.702,122.924,98.452,118.322,100.141,116.372z"/>
		</g>
	</g>
</g>
</svg>
