<?xml version="1.0" encoding="utf-8"?>
<!-- Generator: Adobe Illustrator 15.0.0, SVG Export Plug-In . SVG Version: 6.00 Build 0)  -->
<!DOCTYPE svg PUBLIC "-//W3C//DTD SVG 1.1//EN" "http://www.w3.org/Graphics/SVG/1.1/DTD/svg11.dtd">
<svg version="1.1" id="Layer_1" xmlns="http://www.w3.org/2000/svg" xmlns:xlink="http://www.w3.org/1999/xlink" x="0px" y="0px"
	 width="200px" height="200px" viewBox="0 0 200 200" enable-background="new 0 0 200 200" xml:space="preserve">
<g>
	<g id="icon">
		<g id="Layer_2">
		</g>
		<g id="Layer_1_1_">
			<g>
				
					<linearGradient id="SVGID_1_" gradientUnits="userSpaceOnUse" x1="-165.4746" y1="-1861.2759" x2="-138.8525" y2="-1853.1265" gradientTransform="matrix(0.9826 -0.1858 -0.1858 -0.9826 -38.9231 -1770.5383)">
					<stop  offset="0" style="stop-color:#383838"/>
					<stop  offset="0.4601" style="stop-color:#9B9B9B"/>
					<stop  offset="1" style="stop-color:#403F3E"/>
				</linearGradient>
				<path fill="url(#SVGID_1_)" d="M157.898,28.733L38.109,89.329c1.662,3.435-2.515,4.964-3.335,7.591
					c1.104,2.722,1.558,5.23,1.807,7.676c0.083,0.816-2.998,2.234-2.942,3.041c0.261,3.812,3.527,6.969,5.287,11.258
					c5.718,2.701,15.562-3.797,19.548,2.992c0.496,17.25-2.475,38.746,9.738,56.062c0.497,0.23,43.283-16.018,43.283-16.018
					c0.017-0.097-0.41-1.201-1.134-3.021c-0.479-1.199-3.854-6.428-4.536-8.158c-0.724-1.84-1.604,2.355-2.279-0.061
					c-2.468-8.822-4.609-20.504-6.383-27.896h-0.001c0,0-0.044-0.176-0.11-0.441c-0.112-0.463-0.225-0.93-0.335-1.354
					c-0.005-0.021,0.002-0.037-0.001-0.061c-0.912-3.84-2.896-12.642-2.744-15.834c0-0.006,0.004-0.015,0.005-0.021
					c-0.422-3.086-0.133-6.446,2.187-9.276c0,0,2.829-2.286,6.521-4.122c1.526-0.736,21.676-11.555,33.692-16.881
					c7.86-4.138,19.431-10.148,27.269-14.783c-5.195-6.553,4.592-8.386,4-13.485L157.898,28.733z"/>
				
					<linearGradient id="SVGID_2_" gradientUnits="userSpaceOnUse" x1="-143.3252" y1="-1822.6182" x2="-137.0776" y2="-1820.1735" gradientTransform="matrix(0.9826 -0.1858 -0.1858 -0.9826 -38.9231 -1770.5383)">
					<stop  offset="0" style="stop-color:#4F4A4E"/>
					<stop  offset="0.4601" style="stop-color:#9B9B9B"/>
					<stop  offset="1" style="stop-color:#4F494D"/>
				</linearGradient>
				<path fill="url(#SVGID_2_)" d="M149.355,36.953l8.537,13.639l5.752,9.438c-5.194-6.553,4.594-8.386,4.002-13.485l-6.422-11.735
					L149.355,36.953z"/>
				
					<linearGradient id="SVGID_3_" gradientUnits="userSpaceOnUse" x1="-183.9761" y1="-1866.0942" x2="-280.1408" y2="-1828.0632" gradientTransform="matrix(0.9826 -0.1858 -0.1858 -0.9826 -38.9231 -1770.5383)">
					<stop  offset="0" style="stop-color:#9B999B"/>
					<stop  offset="0.4601" style="stop-color:#F2F2F2"/>
					<stop  offset="1" style="stop-color:#A4A0A2"/>
				</linearGradient>
				<path fill="url(#SVGID_3_)" d="M152.734,18.986L32.946,79.582c-0.087,3.18-2.515,4.963-3.335,7.59
					c3.214,7.923,0.905,14.053,4.151,21.975c5.719,2.701,15.563-3.797,19.549,2.994c0.495,17.248-2.475,38.744,9.738,56.062
					c0.496,0.229,43.281-16.018,43.281-16.018c0.018-0.095-0.409-1.203-1.132-3.021c-0.476-1.197-4.036-0.029-4.718-1.762
					c-3.592-9.139-6.604-27.17-8.928-36.146c-1.016-3.777,26.564-11.098,34.281-19.25c2.196-4.992-0.533-14.467-3.206-22.146
					c0.16-0.692,23.016-11.988,35.854-19.576c-5.191-6.554,4.598-8.387,4.002-13.486L152.734,18.986z M90.903,104.418
					c-1.244-6.441-4.79-13.322,0.917-16.477l-0.001-0.011c0,0,2.626-2.772,6.318-4.606c7.121-3.422,14.665-8.098,19.927-6.523
					C129.441,93.313,104.598,98.697,90.903,104.418z"/>
				
					<linearGradient id="SVGID_4_" gradientUnits="userSpaceOnUse" x1="-214.9531" y1="-1814.4434" x2="-210.9529" y2="-1828.1938" gradientTransform="matrix(0.9826 -0.1858 -0.1858 -0.9826 -38.9231 -1770.5383)">
					<stop  offset="0.4663" style="stop-color:#FFFFFF"/>
					<stop  offset="1" style="stop-color:#A8CEC9;stop-opacity:0"/>
				</linearGradient>
				<path opacity="0.48" fill="url(#SVGID_4_)" enable-background="new    " d="M152.734,18.986L32.946,79.582
					c-0.087,3.18-2.515,4.963-3.335,7.59c3.214,7.923,0.905,14.053,4.151,21.975c5.719,2.701,15.563-3.797,19.549,2.994
					c0.495,17.248-2.475,38.744,9.738,56.062c0.496,0.229,43.281-16.018,43.281-16.018c0.018-0.095-0.409-1.203-1.132-3.021
					c-0.476-1.197-4.036-0.029-4.718-1.762c-3.592-9.139-6.604-27.17-8.928-36.146c-1.016-3.777,26.564-11.098,34.281-19.25
					c2.196-4.992-0.533-14.467-3.206-22.146c0.16-0.692,23.016-11.988,35.854-19.576c-5.191-6.554,4.598-8.387,4.002-13.486
					L152.734,18.986z M90.903,104.418c-1.244-6.441-4.79-13.322,0.917-16.477l-0.001-0.011c0,0,2.626-2.772,6.318-4.606
					c7.121-3.422,14.665-8.098,19.927-6.523C129.441,93.313,104.598,98.697,90.903,104.418z"/>
				
					<linearGradient id="SVGID_5_" gradientUnits="userSpaceOnUse" x1="-171.3838" y1="-1823.6123" x2="-140.0142" y2="-1823.6123" gradientTransform="matrix(0.9826 -0.1858 -0.1858 -0.9826 -38.9231 -1770.5383)">
					<stop  offset="0" style="stop-color:#383838"/>
					<stop  offset="0.4601" style="stop-color:#9B9B9B"/>
				</linearGradient>
				<path fill="url(#SVGID_5_)" d="M160.37,37.127c0,0-26.052,12.539-26.479,14.97c-0.432,2.43-0.453,11.326-0.453,11.326
					l25.045-13.14c0,0-3.987-2.003-1.104-5.909C160.238,40.467,161.145,40.275,160.37,37.127z"/>
				
					<linearGradient id="SVGID_6_" gradientUnits="userSpaceOnUse" x1="-219.0186" y1="-1793.3848" x2="-217.659" y2="-1797.7351" gradientTransform="matrix(0.9826 -0.1858 -0.1858 -0.9826 -38.9231 -1770.5383)">
					<stop  offset="0" style="stop-color:#6A6669"/>
					<stop  offset="0.4601" style="stop-color:#9B9B9B"/>
					<stop  offset="1" style="stop-color:#696467"/>
				</linearGradient>
				<polygon fill="url(#SVGID_6_)" points="32.254,95.406 159.715,32.532 160.496,33.786 32.298,95.85 				"/>
				
					<linearGradient id="SVGID_7_" gradientUnits="userSpaceOnUse" x1="-218.1548" y1="-1773.6768" x2="-197.7869" y2="-1880.1327" gradientTransform="matrix(0.9826 -0.1858 -0.1858 -0.9826 -38.9231 -1770.5383)">
					<stop  offset="0" style="stop-color:#6A6669"/>
					<stop  offset="0.4601" style="stop-color:#9B9B9B"/>
					<stop  offset="1" style="stop-color:#696467"/>
				</linearGradient>
				<polygon fill="url(#SVGID_7_)" points="33.081,96.493 160.542,33.62 161.323,34.874 33.125,96.937 				"/>
				
					<linearGradient id="SVGID_8_" gradientUnits="userSpaceOnUse" x1="-207.7568" y1="-1824.8281" x2="-210.8844" y2="-1813.8271" gradientTransform="matrix(0.9826 -0.1858 -0.1858 -0.9826 -38.9231 -1770.5383)">
					<stop  offset="0.4601" style="stop-color:#BABBBA"/>
					<stop  offset="0.7362" style="stop-color:#E9E9E9"/>
					<stop  offset="0.7712" style="stop-color:#E4E4E4"/>
					<stop  offset="0.8121" style="stop-color:#D6D6D6"/>
					<stop  offset="0.856" style="stop-color:#BFBFBE"/>
					<stop  offset="0.902" style="stop-color:#9E9E9D"/>
					<stop  offset="0.9497" style="stop-color:#757473"/>
					<stop  offset="0.9981" style="stop-color:#424140"/>
					<stop  offset="1" style="stop-color:#403F3E"/>
				</linearGradient>
				<path fill="url(#SVGID_8_)" d="M78.978,55.996c0,0-0.569,1.051,0.085,4.383c0.749,3.82,1.874,9.108,4.424,7.685
					c3.907-2.186,23.299-10.369,24.019-12.841c0.42-1.445-0.615-5.286-1.611-8.207c-1.078-3.163-1.092-4.102-1.092-4.102
					L78.978,55.996z"/>
				
					<linearGradient id="SVGID_9_" gradientUnits="userSpaceOnUse" x1="-214.4873" y1="-1802.1182" x2="-201.0644" y2="-1857.1084" gradientTransform="matrix(0.9826 -0.1858 -0.1858 -0.9826 -38.9231 -1770.5383)">
					<stop  offset="0" style="stop-color:#878787"/>
					<stop  offset="1" style="stop-color:#000000"/>
				</linearGradient>
				<path fill="url(#SVGID_9_)" d="M107.378,54.521c-0.721,2.471-20.086,10.657-23.986,12.844c-2.399,1.342-3.676-3.253-4.307-7.008
					c0.547,3.872,1.832,9.685,4.494,8.196c3.907-2.187,23.3-10.369,24.021-12.841c0.201-0.685,0.061-1.915-0.246-3.325
					C107.486,53.282,107.518,54.038,107.378,54.521z"/>
				<path opacity="0.18" fill="#2F292B" enable-background="new    " d="M40.241,77.261l0.507,13.043l-8.495,5.103
					c0,0-1.01-2.959-1.442-4.904c-0.432-1.946-1.908-2.549,0.182-5.233c2.076-2.685,1.952-5.687,1.952-5.687l7.425-3.256
					L40.241,77.261z"/>
				
					<linearGradient id="SVGID_10_" gradientUnits="userSpaceOnUse" x1="-264.9468" y1="-1831.5312" x2="-262.7831" y2="-1838.0228" gradientTransform="matrix(0.9826 -0.1858 -0.1858 -0.9826 -38.9231 -1770.5383)">
					<stop  offset="0" style="stop-color:#383838"/>
					<stop  offset="0.4601" style="stop-color:#9B9B9B"/>
					<stop  offset="1" style="stop-color:#403F3E"/>
				</linearGradient>
				<path fill="url(#SVGID_10_)" d="M45.34,78.709c0,0-7.571,3.819-7.379,5.59c0.192,1.773-0.584,5.553,2.152,4.547
					c2.735-1.008,8.24-4.621,8.24-4.621s2.585-2.117,1.853-4.242C49.474,77.857,47.354,77.839,45.34,78.709z"/>
				
					<linearGradient id="SVGID_11_" gradientUnits="userSpaceOnUse" x1="-270.333" y1="-1779.0352" x2="-263.8849" y2="-1831.2147" gradientTransform="matrix(0.9826 -0.1858 -0.1858 -0.9826 -38.9231 -1770.5383)">
					<stop  offset="0" style="stop-color:#878787"/>
					<stop  offset="1" style="stop-color:#000000"/>
				</linearGradient>
				<path fill="url(#SVGID_11_)" d="M48.709,83.244c0,0-5.499,3.614-8.23,4.622c-2.687,0.988-1.989-2.638-2.147-4.445
					c-0.25,0.323-0.398,0.624-0.371,0.878c0.192,1.773-0.584,5.553,2.152,4.547c2.735-1.008,8.24-4.621,8.24-4.621
					s1.562-1.297,1.9-2.877C49.669,82.449,48.709,83.244,48.709,83.244z"/>
				
					<linearGradient id="SVGID_12_" gradientUnits="userSpaceOnUse" x1="-205.2759" y1="-1705.2754" x2="-207.8744" y2="-1932.2197" gradientTransform="matrix(0.9826 -0.1858 -0.1858 -0.9826 -38.9231 -1770.5383)">
					<stop  offset="0" style="stop-color:#6A6669"/>
					<stop  offset="0.4601" style="stop-color:#9B9B9B"/>
					<stop  offset="1" style="stop-color:#696467"/>
				</linearGradient>
				<path fill="url(#SVGID_12_)" d="M110.967,96.034c0.879-3.464-8.933-3.506-10.246-10.709c-3.694,1.835-6.318,4.607-6.318,4.607
					l-0.001,0.012c0.074-0.04,0.133-0.088,0.209-0.127C101.13,89.037,104.051,97.676,110.967,96.034z"/>
				
					<linearGradient id="SVGID_13_" gradientUnits="userSpaceOnUse" x1="-244.1465" y1="-1832.8984" x2="-235.4534" y2="-1938.301" gradientTransform="matrix(0.9826 -0.1858 -0.1858 -0.9826 -38.9231 -1770.5383)">
					<stop  offset="0" style="stop-color:#6A6669"/>
					<stop  offset="0.4601" style="stop-color:#9B9B9B"/>
					<stop  offset="1" style="stop-color:#403F3E"/>
				</linearGradient>
				<polygon fill="url(#SVGID_13_)" points="66.283,168.334 70.134,175.67 106.518,162.18 101.656,154.598 				"/>
				<g opacity="0.22">
					<g>
						<path fill="#A7AEA9" d="M162.482,37.108c-0.004-0.105,0.014-0.202,0.002-0.311l-9.75-17.812L32.946,79.582
							c0,0,0.087,2.395-1.37,4.818c-0.802,0.875-1.643,1.738-1.965,2.771c0.126,0.312,0.23,0.615,0.34,0.924
							c0.06,0.307,0.176,0.604,0.309,0.906c2.227,7.062,0.511,12.845,3.502,20.146c0.052,0.024,0.11,0.037,0.162,0.062
							c0.875,3.146,3.49,6.002,5.001,9.688c3.943,1.861,9.852-0.646,14.445-0.157c-0.067,15.812-0.993,34.049,9.48,49.157
							c1.343,3.459,3.088,6.83,5.36,10.058c0.497,0.229,43.283-16.021,43.283-16.021c0.017-0.094-0.41-1.201-1.134-3.021
							c-0.479-1.199-3.854-6.431-4.537-8.158c0-0.002-0.002-0.002-0.004-0.004c-0.17-0.44-0.377-0.969-0.621-1.586
							c-0.236-0.595-1.227-0.604-2.247-0.681c-2.22-8.485-4.16-18.896-5.789-25.688H97.16c0,0-0.044-0.176-0.11-0.443
							c-0.112-0.463-0.225-0.928-0.335-1.352c-0.005-0.02,0.002-0.037-0.001-0.059c-0.682-2.863-1.958-8.49-2.498-12.49
							c6.964-4.064,25.509-9.995,31.617-16.449c1.284-2.918,0.879-7.371-0.208-12.098c3.824-1.891,7.574-3.686,10.755-5.096
							c7.861-4.138,19.427-10.148,27.265-14.783c-5.191-6.553,4.592-8.386,4-13.485L162.482,37.108z M93.831,103.256
							c-0.074-2.545,0.465-5.163,2.332-7.44c0,0,2.22-1.791,5.29-3.475c2.814,2.124,5.488,4.648,9.514,3.693
							c0.566-2.232-3.301-3.052-6.479-5.272c3.049-1.598,9.396-4.945,16.203-8.385C123.311,93.684,105.973,98.615,93.831,103.256z"
							/>
					</g>
				</g>
				<path d="M154.186,22.059c0,0,2.312-1.021,3.362,0.341c0.882,1.142,6.979,12.363,6.979,12.363s0.473,1.864-0.619,2.534
					l-1.038,0.519L154.186,22.059z"/>
				
					<linearGradient id="SVGID_14_" gradientUnits="userSpaceOnUse" x1="-284.125" y1="-1853.6582" x2="-262.9369" y2="-1868.8702" gradientTransform="matrix(0.9826 -0.1858 -0.1858 -0.9826 -38.9231 -1770.5383)">
					<stop  offset="0" style="stop-color:#D16E00"/>
					<stop  offset="0.1896" style="stop-color:#B56205"/>
					<stop  offset="0.5959" style="stop-color:#6E4313"/>
					<stop  offset="1" style="stop-color:#222222"/>
				</linearGradient>
				<path fill="url(#SVGID_14_)" d="M94.809,152.334c-6.38,2.518-17.849,7.023-24.444,9.604c-3.031,1.185-5.632,1.104-6.5-0.526
					c-2.596-4.896-7.271-13.89-7.188-30.437c0.016-15.904,1.855-24.354,3.801-29.242c1.085-2.753,3.521-4.819,5.871-5.856
					c3.035-1.339,9.318-4.742,12.642-6.221c3.066-1.365,5.609-0.48,6.02,2.676c0.968,7.49,3.008,21.903,5.849,34.062
					c2.533,10.77,5.235,17.479,6.921,21.004C98.802,149.525,97.618,151.221,94.809,152.334z"/>
				
					<radialGradient id="SVGID_15_" cx="-240.292" cy="-1867.6592" r="3.6273" gradientTransform="matrix(0.9826 -0.1858 -0.1858 -0.9826 -38.9231 -1770.5383)" gradientUnits="userSpaceOnUse">
					<stop  offset="0" style="stop-color:#262625"/>
					<stop  offset="0.1511" style="stop-color:#282828"/>
					<stop  offset="0.2419" style="stop-color:#313130"/>
					<stop  offset="0.3168" style="stop-color:#3F3F3E"/>
					<stop  offset="0.3827" style="stop-color:#535352"/>
					<stop  offset="0.4233" style="stop-color:#636363"/>
					<stop  offset="0.4799" style="stop-color:#555455"/>
					<stop  offset="0.5861" style="stop-color:#413D40"/>
					<stop  offset="0.701" style="stop-color:#322D31"/>
					<stop  offset="0.8296" style="stop-color:#2A2328"/>
					<stop  offset="1" style="stop-color:#272025"/>
				</radialGradient>
				<path fill="url(#SVGID_15_)" d="M75.677,108.553c0.275,1.906-1.163,3.771-3.215,4.164c-2.052,0.395-3.923-0.828-4.184-2.729
					c-0.26-1.904,1.179-3.768,3.215-4.164C73.528,105.428,75.4,106.648,75.677,108.553z"/>
				
					<radialGradient id="SVGID_16_" cx="-242.5068" cy="-1903.9907" r="3.6977" gradientTransform="matrix(0.9826 -0.1858 -0.1858 -0.9826 -38.9231 -1770.5383)" gradientUnits="userSpaceOnUse">
					<stop  offset="0" style="stop-color:#262625"/>
					<stop  offset="0.1511" style="stop-color:#282828"/>
					<stop  offset="0.2419" style="stop-color:#313130"/>
					<stop  offset="0.3168" style="stop-color:#3F3F3E"/>
					<stop  offset="0.3827" style="stop-color:#535352"/>
					<stop  offset="0.4233" style="stop-color:#636363"/>
					<stop  offset="0.4799" style="stop-color:#555455"/>
					<stop  offset="0.5861" style="stop-color:#413D40"/>
					<stop  offset="0.701" style="stop-color:#322D31"/>
					<stop  offset="0.8296" style="stop-color:#2A2328"/>
					<stop  offset="1" style="stop-color:#272025"/>
				</radialGradient>
				<path fill="url(#SVGID_16_)" d="M80.391,144.682c0.275,1.902-1.228,3.76-3.356,4.146c-2.128,0.386-4.064-0.844-4.324-2.746
					c-0.261-1.902,1.244-3.758,3.356-4.146C78.182,141.547,80.117,142.775,80.391,144.682z"/>
			</g>
		</g>
	</g>
	<linearGradient id="SVGID_17_" gradientUnits="userSpaceOnUse" x1="91.5513" y1="91.376" x2="128.5527" y2="91.376">
		<stop  offset="0" style="stop-color:#383838"/>
		<stop  offset="0.4601" style="stop-color:#9B9B9B"/>
		<stop  offset="1" style="stop-color:#403F3E"/>
	</linearGradient>
	<path fill="url(#SVGID_17_)" d="M127.125,78.168c0,0,1.75,8.234,1.375,10.845s-2,5.236-2,5.236s-8.33,6.5-15.478,9.75
		s-15.969,8.207-16.621,8.791s-2.85-1.535-2.85-1.535s-0.177-3.006,4.823-4.756s25.575-10.904,27.375-13.75
		s2.924-5.898,2.274-10.949s-3.397-11.941-3.397-11.941L127.125,78.168z"/>
</g>
</svg>
