<?xml version="1.0" encoding="utf-8"?>
<!-- Generator: Adobe Illustrator 15.0.0, SVG Export Plug-In . SVG Version: 6.00 Build 0)  -->
<!DOCTYPE svg PUBLIC "-//W3C//DTD SVG 1.1//EN" "http://www.w3.org/Graphics/SVG/1.1/DTD/svg11.dtd">
<svg version="1.1" id="Layer_1" xmlns="http://www.w3.org/2000/svg" xmlns:xlink="http://www.w3.org/1999/xlink" x="0px" y="0px"
	 width="200px" height="200px" viewBox="0 0 200 200" enable-background="new 0 0 200 200" xml:space="preserve">
<g id="icon">
	<g id="Layer_2">
	</g>
	<g id="Layer_1_1_">
		<g>
			<g>
				<g>
					
						<linearGradient id="SVGID_1_" gradientUnits="userSpaceOnUse" x1="-3178.7993" y1="-5515.3872" x2="-3226.2368" y2="-5515.3872" gradientTransform="matrix(-0.7071 0.7071 -0.7071 -0.7071 -6111.6621 -1582.5176)">
						<stop  offset="0" style="stop-color:#89682B"/>
						<stop  offset="0.2025" style="stop-color:#724E19"/>
						<stop  offset="0.2525" style="stop-color:#89682B"/>
						<stop  offset="0.3203" style="stop-color:#A3843E"/>
						<stop  offset="0.3933" style="stop-color:#B69A4D"/>
						<stop  offset="0.473" style="stop-color:#C4AA58"/>
						<stop  offset="0.5643" style="stop-color:#CCB35E"/>
						<stop  offset="0.6933" style="stop-color:#CFB660"/>
						<stop  offset="0.7914" style="stop-color:#EBD760"/>
						<stop  offset="0.8589" style="stop-color:#EBD760"/>
						<stop  offset="0.9693" style="stop-color:#CFB660"/>
					</linearGradient>
					<path fill="url(#SVGID_1_)" d="M37.046,69.666c7.352,6.92,20.292,5.444,29.159-3.422c8.867-8.867,10.342-21.807,3.422-29.158
						l0.01-0.011l-0.326-0.327l-0.375-0.375l-0.328-0.327l-0.01,0.01c-7.352-6.921-20.292-5.445-29.159,3.421
						c-8.867,8.867-10.342,21.808-3.422,29.159l-0.01,0.011l0.327,0.326l0.375,0.375l0.327,0.327L37.046,69.666z"/>
					
						<radialGradient id="SVGID_2_" cx="-3202.5918" cy="-5879.0859" r="22.5346" gradientTransform="matrix(-0.7071 0.7071 -0.5631 -0.5631 -5521.2803 -992.1357)" gradientUnits="userSpaceOnUse">
						<stop  offset="0.773" style="stop-color:#89682B"/>
						<stop  offset="1" style="stop-color:#89682B;stop-opacity:0"/>
					</radialGradient>
					<path fill="url(#SVGID_2_)" d="M39.073,69.428c6.841,6.44,18.882,5.066,27.132-3.184c8.251-8.251,9.623-20.292,3.184-27.133
						l0.01-0.009l-0.305-0.304l-0.348-0.35l-0.307-0.305l-0.01,0.01c-6.838-6.439-18.879-5.066-27.129,3.184
						c-8.252,8.251-9.625,20.292-3.185,27.132l-0.009,0.009l0.304,0.306l0.349,0.348l0.305,0.305L39.073,69.428z"/>
					
						<radialGradient id="SVGID_3_" cx="-3202.5918" cy="-5879.0859" r="22.5346" gradientTransform="matrix(-0.7071 0.7071 -0.5631 -0.5631 -5521.2803 -992.1357)" gradientUnits="userSpaceOnUse">
						<stop  offset="0.773" style="stop-color:#3D2D00"/>
						<stop  offset="1" style="stop-color:#89682B;stop-opacity:0"/>
					</radialGradient>
					<path fill="url(#SVGID_3_)" d="M39.073,69.428c6.841,6.44,18.882,5.066,27.132-3.184c8.251-8.251,9.623-20.292,3.184-27.133
						l0.01-0.009l-0.305-0.304l-0.348-0.35l-0.307-0.305l-0.01,0.01c-6.838-6.439-18.879-5.066-27.129,3.184
						c-8.252,8.251-9.625,20.292-3.185,27.132l-0.009,0.009l0.304,0.306l0.349,0.348l0.305,0.305L39.073,69.428z"/>
					
						<linearGradient id="SVGID_4_" gradientUnits="userSpaceOnUse" x1="-3202.5918" y1="-5504.6387" x2="-3202.5918" y2="-5500.0322" gradientTransform="matrix(-0.7071 0.7071 -0.7071 -0.7071 -6111.6621 -1582.5176)">
						<stop  offset="0" style="stop-color:#EBD760;stop-opacity:0"/>
						<stop  offset="1" style="stop-color:#EBD760"/>
					</linearGradient>
					<path opacity="0.42" fill="url(#SVGID_4_)" enable-background="new    " d="M41.461,41.5
						c8.495-8.496,20.895-9.909,27.938-3.278l0.01-0.01l-0.232-0.232l-0.359-0.359l-0.314-0.313l-0.01,0.01
						c-7.043-6.63-19.441-5.217-27.937,3.278c-8.496,8.496-9.91,20.895-3.279,27.937l-0.01,0.009l0.314,0.314l0.358,0.359
						l0.232,0.233l0.01-0.01C31.552,62.393,32.965,49.995,41.461,41.5z"/>
					
						<linearGradient id="SVGID_5_" gradientUnits="userSpaceOnUse" x1="-3178.7959" y1="-5544.7241" x2="-3226.2344" y2="-5544.7241" gradientTransform="matrix(-0.7071 0.7071 -0.7071 -0.7071 -6111.6621 -1582.5176)">
						<stop  offset="0" style="stop-color:#89682B"/>
						<stop  offset="0.2025" style="stop-color:#724E19"/>
						<stop  offset="0.2525" style="stop-color:#89682B"/>
						<stop  offset="0.3203" style="stop-color:#A3843E"/>
						<stop  offset="0.3933" style="stop-color:#B69A4D"/>
						<stop  offset="0.473" style="stop-color:#C4AA58"/>
						<stop  offset="0.5643" style="stop-color:#CCB35E"/>
						<stop  offset="0.6933" style="stop-color:#CFB660"/>
						<stop  offset="0.7914" style="stop-color:#EBD760"/>
						<stop  offset="0.8589" style="stop-color:#EBD760"/>
						<stop  offset="0.9693" style="stop-color:#CFB660"/>
					</linearGradient>
					<path fill="url(#SVGID_5_)" d="M118.871,86.308L74.058,41.496c-7.287-7.287-20.493-5.898-29.496,3.104
						c-9.001,9.003-10.392,22.208-3.104,29.496l44.812,44.812L118.871,86.308z"/>
					<g>
						
							<radialGradient id="SVGID_6_" cx="769.5068" cy="760.6953" r="47.6771" gradientTransform="matrix(0.7188 0.6952 -0.3909 0.4042 -163.1396 -745.7612)" gradientUnits="userSpaceOnUse">
							<stop  offset="0.3804" style="stop-color:#CFB660"/>
							<stop  offset="0.6319" style="stop-color:#EBD760"/>
							<stop  offset="0.6994" style="stop-color:#EBD760"/>
							<stop  offset="0.8528" style="stop-color:#CFB660"/>
						</radialGradient>
						<path fill="url(#SVGID_6_)" d="M119.176,86.713c4.648,4.648,9.812,20.84,6.699,31.68c-0.918,3.189-2.873,4.647-2.873,4.647
							s-1.391,1.918-4.701,2.89c-10.814,3.172-27.605-2.695-31.627-6.716c-9.421-9.421-3.07-21.258,4.086-28.416
							C97.949,83.608,110.867,78.404,119.176,86.713z"/>
					</g>
					<g>
						
							<radialGradient id="SVGID_7_" cx="772.1006" cy="866.668" r="58.5742" gradientTransform="matrix(0.7188 0.6952 -0.3162 0.3269 -185.7584 -734.3728)" gradientUnits="userSpaceOnUse">
							<stop  offset="0.6503" style="stop-color:#89682B;stop-opacity:0"/>
							<stop  offset="0.8098" style="stop-color:#7D5916"/>
						</radialGradient>
						<path fill="url(#SVGID_7_)" d="M119.176,86.713c4.648,4.648,9.812,20.84,6.699,31.68c-0.918,3.189-2.873,4.647-2.873,4.647
							s-1.391,1.918-4.701,2.89c-10.814,3.172-27.605-2.695-31.627-6.716c-9.421-9.421-3.07-21.258,4.086-28.416
							C97.949,83.608,110.867,78.404,119.176,86.713z"/>
					</g>
					
						<linearGradient id="SVGID_8_" gradientUnits="userSpaceOnUse" x1="-3202.5928" y1="-5510.3057" x2="-3202.5928" y2="-5505.6982" gradientTransform="matrix(-0.7071 0.7071 -0.7071 -0.7071 -6111.6621 -1582.5176)">
						<stop  offset="0" style="stop-color:#EBD760;stop-opacity:0"/>
						<stop  offset="1" style="stop-color:#EBD760"/>
					</linearGradient>
					<path opacity="0.42" fill="url(#SVGID_8_)" enable-background="new    " d="M45.468,45.506
						c8.495-8.495,20.894-9.909,27.937-3.277l0.01-0.01l-0.232-0.233l-0.359-0.358l-0.312-0.313l-0.01,0.009
						c-7.043-6.631-19.441-5.217-27.938,3.278c-8.495,8.496-9.909,20.895-3.278,27.938l-0.01,0.01l0.313,0.313l0.359,0.358
						l0.232,0.233l0.011-0.011C35.558,66.4,36.971,54.001,45.468,45.506z"/>
					<g>
						
							<linearGradient id="SVGID_9_" gradientUnits="userSpaceOnUse" x1="-2918.6323" y1="-5525.2168" x2="-2890.0891" y2="-5525.2168" gradientTransform="matrix(-0.7071 0.7071 -0.7071 -0.7071 -5861.9463 -1737.9902)">
							<stop  offset="0" style="stop-color:#89682B;stop-opacity:0"/>
							<stop  offset="1" style="stop-color:#7D5916"/>
						</linearGradient>
						<path fill="url(#SVGID_9_)" d="M119.176,86.713c4.648,4.648,9.812,20.84,6.699,31.68c-0.918,3.189-2.873,4.647-2.873,4.647
							s-1.391,1.918-4.701,2.89c-10.814,3.172-27.605-2.695-31.627-6.716c-9.421-9.421-3.07-21.258,4.086-28.416
							C97.949,83.608,110.867,78.404,119.176,86.713z"/>
					</g>
				</g>
				<g>
					
						<linearGradient id="SVGID_10_" gradientUnits="userSpaceOnUse" x1="-3186.5151" y1="-5614.4355" x2="-3218.5623" y2="-5614.4355" gradientTransform="matrix(-0.7071 0.7071 -0.7071 -0.7071 -6111.6621 -1582.5176)">
						<stop  offset="0" style="stop-color:#89682B"/>
						<stop  offset="0.2025" style="stop-color:#724E19"/>
						<stop  offset="0.2525" style="stop-color:#89682B"/>
						<stop  offset="0.3203" style="stop-color:#A3843E"/>
						<stop  offset="0.3933" style="stop-color:#B69A4D"/>
						<stop  offset="0.473" style="stop-color:#C4AA58"/>
						<stop  offset="0.5643" style="stop-color:#CCB35E"/>
						<stop  offset="0.6933" style="stop-color:#CFB660"/>
						<stop  offset="0.7914" style="stop-color:#EBD760"/>
						<stop  offset="0.8589" style="stop-color:#EBD760"/>
						<stop  offset="0.9693" style="stop-color:#CFB660"/>
					</linearGradient>
					<path fill="url(#SVGID_10_)" d="M151.354,129.366l-26.049-26.048c-4.924-4.923-13.846-3.983-19.928,2.099
						s-7.02,15.003-2.096,19.928l26.045,26.048L151.354,129.366z"/>
					<g>
						
							<radialGradient id="SVGID_11_" cx="818.2285" cy="987.3867" r="44.5733" gradientTransform="matrix(0.7072 0.707 -0.2655 0.2655 -179.623 -701.098)" gradientUnits="userSpaceOnUse">
							<stop  offset="0.3804" style="stop-color:#CFB660"/>
							<stop  offset="0.6319" style="stop-color:#EBD760"/>
							<stop  offset="0.6994" style="stop-color:#EBD760"/>
							<stop  offset="0.8528" style="stop-color:#CFB660"/>
						</radialGradient>
						<path fill="url(#SVGID_11_)" d="M151.559,129.641c3.145,3.144,18.688,31.104,16.582,38.428l-0.057,0.029
							c-7.307,2.146-35.768-13.783-38.482-16.5c-6.365-6.365-2.076-14.363,2.76-19.197
							C137.218,127.543,145.945,124.025,151.559,129.641z"/>
					</g>
					<g>
						
							<radialGradient id="SVGID_12_" cx="817.1338" cy="1192.3506" r="54.7914" gradientTransform="matrix(0.7188 0.6952 -0.2177 0.225 -187.6112 -701.8481)" gradientUnits="userSpaceOnUse">
							<stop  offset="0.6503" style="stop-color:#89682B;stop-opacity:0"/>
							<stop  offset="0.8098" style="stop-color:#7D5916"/>
						</radialGradient>
						<path fill="url(#SVGID_12_)" d="M151.559,129.641c3.145,3.144,18.688,31.104,16.582,38.428l-0.057,0.029
							c-7.307,2.146-35.768-13.783-38.482-16.5c-6.365-6.365-2.076-14.363,2.76-19.197
							C137.218,127.543,145.945,124.025,151.559,129.641z"/>
					</g>
					<g>
						
							<linearGradient id="SVGID_13_" gradientUnits="userSpaceOnUse" x1="-2917.8008" y1="-5586.4951" x2="-2898.5205" y2="-5586.4951" gradientTransform="matrix(-0.7071 0.7071 -0.7071 -0.7071 -5861.9463 -1737.9902)">
							<stop  offset="0" style="stop-color:#89682B;stop-opacity:0"/>
							<stop  offset="1" style="stop-color:#7D5916"/>
						</linearGradient>
						<path fill="url(#SVGID_13_)" d="M151.559,129.641c3.145,3.144,18.688,31.104,16.582,38.428l-0.057,0.029
							c-7.307,2.146-35.768-13.783-38.482-16.5c-6.365-6.365-2.076-14.363,2.76-19.197
							C137.218,127.543,145.945,124.025,151.559,129.641z"/>
					</g>
				</g>
				<g opacity="0.42">
					<path fill="#881405" d="M151.559,129.641c-0.082-0.082-0.172-0.146-0.256-0.224l0.051-0.051l-20.314-20.316
						c-4.928-4.924-13.85-3.985-19.932,2.097c-6.082,6.084-7.02,15.004-2.096,19.932l20.314,20.314l0.043-0.041
						c0.076,0.082,0.15,0.164,0.232,0.246c2.715,2.717,31.176,18.646,38.479,16.5l0.059-0.029
						C170.243,160.745,154.699,132.78,151.559,129.641z"/>
				</g>
				<g opacity="0.21">
					<path fill="#421405" d="M151.559,129.641c-0.082-0.082-0.172-0.146-0.256-0.224l0.051-0.051l-20.314-20.316
						c-4.928-4.924-13.85-3.985-19.932,2.097c-6.082,6.084-7.02,15.004-2.096,19.932l20.314,20.314l0.043-0.041
						c0.076,0.082,0.15,0.164,0.232,0.246c2.715,2.717,31.176,18.646,38.479,16.5l0.059-0.029
						C170.243,160.745,154.699,132.78,151.559,129.641z"/>
				</g>
				<g>
					
						<radialGradient id="SVGID_14_" cx="-2906.9619" cy="-5557.9941" r="33.1157" gradientTransform="matrix(-0.7071 0.7071 -0.7071 -0.7071 -5861.9463 -1737.9902)" gradientUnits="userSpaceOnUse">
						<stop  offset="0.773" style="stop-color:#3D2D00"/>
						<stop  offset="1" style="stop-color:#89682B;stop-opacity:0"/>
					</radialGradient>
					<path fill="url(#SVGID_14_)" d="M110.727,110.699c5.812-5.811,12.951-8.186,18.494-3.504c-0.082-0.081-0.854-0.854-0.938-0.93
						c-5.648-5.252-14.363-1.604-19.014,3.045c-4.604,4.599-9.17,12.896-2.773,19.291c0.158,0.162,1.039,1.013,1.256,1.181
						C101.629,123.445,104.699,116.729,110.727,110.699z"/>
				</g>
				
					<radialGradient id="SVGID_15_" cx="-285.0625" cy="-2023.7354" r="9.4495" fx="-279.8632" fy="-2021.8669" gradientTransform="matrix(4.3223 4.8845 -0.7489 0.6627 -158.0656 2855.0137)" gradientUnits="userSpaceOnUse">
					<stop  offset="0.1595" style="stop-color:#FFFC00;stop-opacity:0.71"/>
					<stop  offset="1" style="stop-color:#FF7900;stop-opacity:0"/>
				</radialGradient>
				<path opacity="0.74" fill="url(#SVGID_15_)" enable-background="new    " d="M164.756,166.432
					c-5.012,4.438-32.521-18.467-61.445-51.147C74.389,82.596,55.008,52.506,60.018,48.07c5.012-4.434,32.52,18.465,61.442,51.152
					C150.383,131.907,169.766,161.997,164.756,166.432z"/>
				
					<radialGradient id="SVGID_16_" cx="2012.1475" cy="-2828.4414" r="6.6355" fx="2017.0504" fy="-2828.5374" gradientTransform="matrix(0.8188 1.0822 -0.5196 0.3931 -2957.2693 -906.7643)" gradientUnits="userSpaceOnUse">
					<stop  offset="0.1595" style="stop-color:#FFC000"/>
					<stop  offset="0.162" style="stop-color:#FFBF00;stop-opacity:0.9971"/>
					<stop  offset="0.2731" style="stop-color:#FFA600;stop-opacity:0.8649"/>
					<stop  offset="0.3955" style="stop-color:#FF9200;stop-opacity:0.7192"/>
					<stop  offset="0.5356" style="stop-color:#FF8400;stop-opacity:0.5526"/>
					<stop  offset="0.707" style="stop-color:#FF7B00;stop-opacity:0.3486"/>
					<stop  offset="1" style="stop-color:#FF7900;stop-opacity:0"/>
				</radialGradient>
				<path opacity="0.32" fill="url(#SVGID_16_)" enable-background="new    " d="M165.367,166.102
					c-1.903,1.44-5.881-0.604-8.881-4.572c-3-3.967-3.891-8.35-1.986-9.786c1.904-1.441,5.881,0.604,8.883,4.569
					C166.382,160.277,167.271,164.661,165.367,166.102z"/>
			</g>
		</g>
	</g>
</g>
</svg>
