<?xml version="1.0" encoding="utf-8"?>
<!-- Generator: Adobe Illustrator 15.0.0, SVG Export Plug-In . SVG Version: 6.00 Build 0)  -->
<!DOCTYPE svg PUBLIC "-//W3C//DTD SVG 1.1//EN" "http://www.w3.org/Graphics/SVG/1.1/DTD/svg11.dtd">
<svg version="1.1" id="Layer_1" xmlns="http://www.w3.org/2000/svg" xmlns:xlink="http://www.w3.org/1999/xlink" x="0px" y="0px"
	 width="200px" height="200px" viewBox="0 0 200 200" enable-background="new 0 0 200 200" xml:space="preserve">
<g id="icon">
	<g id="Layer_2">
	</g>
	<g id="Layer_1_1_">
		<g>
			
				<linearGradient id="SVGID_1_" gradientUnits="userSpaceOnUse" x1="279.6006" y1="-584.8545" x2="278.8633" y2="-674.6382" gradientTransform="matrix(1 0 0 -1 -150 -530)">
				<stop  offset="0" style="stop-color:#B2C4CE"/>
				<stop  offset="1" style="stop-color:#011025"/>
			</linearGradient>
			<path fill="url(#SVGID_1_)" d="M90.757,113.743c31.787-20.764,85.373-54.545,87.584-69.466
				c-0.067-22.73-25.932-3.863-36.26,3.982c-19.133,14.526-46.09,37.867-61.189,50.99c0.311,0.787,0.16,1.262-0.322,1.521
				C81.882,102.34,90.307,110.747,90.757,113.743z"/>
			
				<linearGradient id="SVGID_2_" gradientUnits="userSpaceOnUse" x1="281.3193" y1="-594.2412" x2="277.0194" y2="-613.5911" gradientTransform="matrix(1 0 0 -1 -150 -530)">
				<stop  offset="0.092" style="stop-color:#A8CEC9;stop-opacity:0"/>
				<stop  offset="0.1885" style="stop-color:#C4DEDA;stop-opacity:0.3455"/>
				<stop  offset="0.2883" style="stop-color:#E5F0EF;stop-opacity:0.7027"/>
				<stop  offset="0.4663" style="stop-color:#FFFFFF"/>
				<stop  offset="1" style="stop-color:#A8CEC9;stop-opacity:0"/>
			</linearGradient>
			<path opacity="0.48" fill="url(#SVGID_2_)" enable-background="new    " d="M90.757,113.743
				c31.787-20.764,86.55-55.721,87.584-69.466c-0.067-22.73-25.932-3.863-36.26,3.982c-19.133,14.526-46.09,37.867-61.189,50.99
				c0.311,0.787,0.16,1.262-0.322,1.521C81.882,102.34,90.307,110.747,90.757,113.743z"/>
			<path opacity="0.45" fill="#FFFFFF" enable-background="new    " d="M142.081,51.547c9.86-7.49,33.867-25,36.078-6.788
				c0.057-0.161,0.138-0.328,0.182-0.483c-0.067-22.73-25.932-3.863-36.26,3.982c-19.133,14.526-46.09,37.867-61.189,50.99
				c0.311,0.787,0.16,1.262-0.322,1.521c0.197,0.235,0.568,0.642,1.037,1.146C96.827,88.692,123.238,65.855,142.081,51.547z"/>
			
				<linearGradient id="SVGID_3_" gradientUnits="userSpaceOnUse" x1="237.1895" y1="-532.3389" x2="354.4112" y2="-704.5831" gradientTransform="matrix(1 0 0 -1 -150 -530)">
				<stop  offset="0" style="stop-color:#B2C4CE"/>
				<stop  offset="1" style="stop-color:#011025"/>
			</linearGradient>
			<path fill="url(#SVGID_3_)" d="M184.096,36.288c-4.388-1.595-5.781-2.99-5.979-8.172c0,0-7.477,4.57-12.709-0.434
				c-0.498,5.225-10.15,4.331-12.01,2.927c-0.933,4.241-2.084,8.078-10.094,5.888c1.086,5.042-4.373,9.297-8.4,7.902
				c-1.115,4.443-2.858,8.285-8.432,7.295c-0.677,5.443-4.527,6.674-8.099,6.285c0.205,3.428-3.937,10.102-8.783,8.104
				c0.785,2.763-2.092,7.877-7.041,7.492c-0.263,4.051-2.818,5.036-5.982,5.469c-1.603,6.341-6.724,6.283-6.724,6.283
				c0.005,3.428-3.741,6.67-6.337,6.076c-0.216,5.453-2.031,5.656-3.797,5.906c-0.564,0.033-1.09,0.082-1.596,0.141L81,100.266
				c0.086-0.262,0.064-0.591-0.109-1.018c15.1-13.123,42.057-36.464,61.189-50.99c10.328-7.845,36.191-26.712,36.26-3.982
				c-2.32,12.745-55.482,48.478-87.094,69.142l1.256,2.876c2.699-1.933,5.188-3.419,7.531-4.638
				c3.115-3.708,6.361-5.385,10.061-4.376c2.643-5.167,6.062-6.042,10.166-4.861c1.434-5.366,4.07-6.471,8.264-6.517
				c0.961-4.554,4.707-8.033,8.812-6.463c-1.396-2.719,3.533-9.445,11.22-6.775c-0.861-3.277,0.938-9.34,9.239-7.242
				c1.438-6.73,4.726-9.206,10.658-7.793c-0.115-7.783,5.325-9.381,9.644-7.428c0.334-4.646-0.377-12.153,4.809-13.948
				C181.025,43.494,181.305,39.279,184.096,36.288z"/>
			
				<linearGradient id="SVGID_4_" gradientUnits="userSpaceOnUse" x1="208.8662" y1="-608.9556" x2="215.3664" y2="-679.9577" gradientTransform="matrix(1 0 0 -1 -150 -530)">
				<stop  offset="0" style="stop-color:#FFE300"/>
				<stop  offset="0.7485" style="stop-color:#E39400"/>
				<stop  offset="0.8773" style="stop-color:#F6C800"/>
				<stop  offset="1" style="stop-color:#CD7700"/>
			</linearGradient>
			<path fill="url(#SVGID_4_)" d="M110.913,105.818c-0.326-1.241-1.822-1.604-1.177-2.104L97.305,87.97
				c-3.845,0.451-5.817,1.166-8.983-3.462c-3.816-4.868-9.316-7.349-11.893-8.306c-0.729,1.09-1.467,2.176-2.203,3.26
				c-5.039-2.412-10.183-11.717-17.305-6.217c-0.902,0.76-2.032,1.871-2.902,3.542c-2.506,4.309-1.232,11.173-2.188,16.529
				c-6.434,7.28-16.712,17.282-21.092,23.745c2.111,2.268,0.063,3.358-0.152,5.4c2.757,4.586-4.049,8.371-10.652,19.018
				c-1.766,4.418-6.209,8.043-2.744,13.652c4.46,5.648,7.265,12.536,13.591,11.707c9.219-1.211,16.262-10.199,26.227-12.467
				c5.701-1.301,7.961-3.514,13.037-6.688c9.783-6.117,20.303-13.857,26.793-18.875c5.2-4.492,17.979-13.306,11.531-20.713
				C108.143,106.609,110.335,106.761,110.913,105.818z M29.319,162.346c-2.327-1.8-6.669-4.302-6.949-8.21
				c-0.445-6.219,2.273-7.004,7.73-12.489c4.919-4.556,8.267-5.562,10.488-4.402c2.338,4.183,5.812,6.686,8.082,10.979
				C42.338,155.938,39.438,157.189,29.319,162.346z M58.403,90.263c-0.043-4.531-0.587-9.403,1.125-12.747
				c3.509,0.25,7.879,5.601,10.734,9.271C69.866,89.388,59.337,95.142,58.403,90.263z"/>
			
				<linearGradient id="SVGID_5_" gradientUnits="userSpaceOnUse" x1="242.5537" y1="-614.8965" x2="221.9919" y2="-637.5154" gradientTransform="matrix(1 0 0 -1 -150 -530)">
				<stop  offset="0" style="stop-color:#FFE300"/>
				<stop  offset="0.7485" style="stop-color:#E39400"/>
				<stop  offset="1" style="stop-color:#CD7700"/>
			</linearGradient>
			<path fill="url(#SVGID_5_)" d="M30.587,122.462c2.757,4.586-4.049,8.371-10.652,19.017c-1.766,4.42-6.209,8.045-2.744,13.653
				c4.46,5.647,7.265,12.536,13.591,11.707c9.219-1.211,16.262-10.198,26.227-12.467C62.71,153.07,30.802,120.42,30.587,122.462z
				 M29.319,162.346c-2.327-1.8-6.669-4.302-6.949-8.21c-0.445-6.219,2.273-7.004,7.73-12.489c4.919-4.556,8.267-5.562,10.488-4.402
				c2.338,4.183,5.812,6.686,8.082,10.979C42.338,155.938,39.438,157.189,29.319,162.346z"/>
			
				<linearGradient id="SVGID_6_" gradientUnits="userSpaceOnUse" x1="206.9092" y1="-628.2676" x2="240.3845" y2="-673.7928" gradientTransform="matrix(1 0 0 -1 -150 -530)">
				<stop  offset="0" style="stop-color:#FFE300"/>
				<stop  offset="1" style="stop-color:#F7941E"/>
			</linearGradient>
			<path fill="url(#SVGID_6_)" d="M89.551,120.223c0.972,1.252,0.742,3.053-0.511,4.021L72.745,136.87
				c-1.254,0.968-3.053,0.739-4.021-0.513l-5.99-7.731c-0.967-1.248-0.736-3.051,0.513-4.019l16.298-12.627
				c1.252-0.971,3.053-0.741,4.021,0.512L89.551,120.223z"/>
			<path d="M62.765,122.643c0.312,0.403,0.102,1.092-0.471,1.532l-7.445,5.769c-0.57,0.442-1.289,0.477-1.6,0.07l-1.936-2.496
				c-0.312-0.401-0.104-1.093,0.468-1.533l7.444-5.77c0.572-0.443,1.291-0.475,1.605-0.07L62.765,122.643z"/>
			
				<linearGradient id="SVGID_7_" gradientUnits="userSpaceOnUse" x1="161.6182" y1="-655.7715" x2="183.0615" y2="-684.9336" gradientTransform="matrix(1 0 0 -1 -150 -530)">
				<stop  offset="0" style="stop-color:#FFE300"/>
				<stop  offset="1" style="stop-color:#F7941E"/>
			</linearGradient>
			<path fill="url(#SVGID_7_)" d="M31.801,132.452c-12.048,14.831-11.807,17.405-11.807,17.405
				c-1.235,3.709-3.021,3.966-3.021,3.966c-0.966-1.249-0.307-3.398,1.546-8.033c0,0,2.469-6.229,10.744-13.543L31.801,132.452z"/>
			
				<linearGradient id="SVGID_8_" gradientUnits="userSpaceOnUse" x1="232.7451" y1="-585.9971" x2="224.6824" y2="-606.4225" gradientTransform="matrix(1 0 0 -1 -150 -530)">
				<stop  offset="0" style="stop-color:#608AD6"/>
				<stop  offset="1" style="stop-color:#011025"/>
			</linearGradient>
			<path fill="url(#SVGID_8_)" d="M88.321,84.508c2.98-14.312-7.816-22.67-14.143-30.096c-3.041-0.368-6.518,0.566-8.52,2.236
				c1.223,7.312,8.325,11.66,10.886,19.387c-0.036,0.057-0.075,0.111-0.116,0.168C79.005,77.159,84.505,79.64,88.321,84.508z"/>
			
				<linearGradient id="SVGID_9_" gradientUnits="userSpaceOnUse" x1="210.54" y1="-642.3223" x2="214.5401" y2="-657.8224" gradientTransform="matrix(1 0 0 -1 -150 -530)">
				<stop  offset="0" style="stop-color:#FFE300"/>
				<stop  offset="1" style="stop-color:#F7941E"/>
			</linearGradient>
			<path fill="url(#SVGID_9_)" d="M87.913,90.806c0.438-3.277-5.979-9.982-11.791-14.147c-0.629,0.935-1.263,1.872-1.896,2.804
				c-5.039-2.412-10.183-11.717-17.305-6.217c-0.902,0.76-2.032,1.871-2.902,3.542c-2.506,4.309-1.232,11.173-2.188,16.529
				c-6.434,7.281-16.712,17.281-21.092,23.746c2.111,2.267,0.063,3.357-0.152,5.399c0.51,0.853,0.545,1.881,0.22,3.06
				c4.303,2.528,10.4,4.01,17.184-0.816C61.046,115.411,87.409,94.573,87.913,90.806z M55.524,95.074
				c-0.046-4.53,0.545-15.485,2.258-18.83c7.281-4.269,13.463,3.611,16.32,7.28C74.604,88.547,56.458,99.954,55.524,95.074z"/>
			<polygon points="57.224,136.882 85.649,114.637 104.807,116.491 62.785,143.68 			"/>
			
				<linearGradient id="SVGID_10_" gradientUnits="userSpaceOnUse" x1="227.4873" y1="-709.6729" x2="229.3409" y2="-702.8757" gradientTransform="matrix(1 0 0 -1 -150 -530)">
				<stop  offset="0" style="stop-color:#FFE300"/>
				<stop  offset="0.7485" style="stop-color:#E39400"/>
				<stop  offset="1" style="stop-color:#CD7700"/>
			</linearGradient>
			<path fill="url(#SVGID_10_)" d="M89.665,86.831c0,0,19.153,21.317,19.463,23.789c0.312,2.473-1.231,2.473-1.231,2.473
				l-16.995-21.01C90.901,92.083,91.209,89.919,89.665,86.831z"/>
			
				<linearGradient id="SVGID_11_" gradientUnits="userSpaceOnUse" x1="233.1357" y1="-653.7559" x2="233.6935" y2="-651.7108" gradientTransform="matrix(1 0 0 -1 -150 -530)">
				<stop  offset="0" style="stop-color:#FFE300"/>
				<stop  offset="0.7485" style="stop-color:#E39400"/>
				<stop  offset="1" style="stop-color:#CD7700"/>
			</linearGradient>
			<circle fill="url(#SVGID_11_)" cx="89.666" cy="99.808" r="3.089"/>
		</g>
	</g>
</g>
</svg>
