<?xml version="1.0" encoding="utf-8"?>
<!-- Generator: Adobe Illustrator 15.0.0, SVG Export Plug-In . SVG Version: 6.00 Build 0)  -->
<!DOCTYPE svg PUBLIC "-//W3C//DTD SVG 1.1//EN" "http://www.w3.org/Graphics/SVG/1.1/DTD/svg11.dtd">
<svg version="1.1" id="Layer_1" xmlns="http://www.w3.org/2000/svg" xmlns:xlink="http://www.w3.org/1999/xlink" x="0px" y="0px"
	 width="200px" height="200px" viewBox="0 0 200 200" enable-background="new 0 0 200 200" xml:space="preserve">
<g id="icon">
	<g id="Layer_2">
	</g>
	<g id="Layer_1_1_">
		<g>
			
				<linearGradient id="SVGID_1_" gradientUnits="userSpaceOnUse" x1="233.8057" y1="-622.9976" x2="237.2637" y2="-624.86" gradientTransform="matrix(1 0 0 -1 -150 -530)">
				<stop  offset="0" style="stop-color:#9C6835"/>
				<stop  offset="1" style="stop-color:#7A4621"/>
			</linearGradient>
			<path fill="url(#SVGID_1_)" d="M178.958,134.551c0.172,0.617-2.065,2.502-2.347,3.002c-0.293,0.527-0.799,0.928-1.442,1.072
				L51.948,170.646c-1.255,0.283-2.56-0.517-2.912-1.775L20.802,62.637c-0.154-0.558-0.098-1.115,0.121-1.587
				c0.277-0.599,2.299-2.782,3.001-2.941l121.887-26.521c1.256-0.283,2.562,0.514,2.912,1.777L178.958,134.551z"/>
			
				<linearGradient id="SVGID_2_" gradientUnits="userSpaceOnUse" x1="242.8428" y1="-571.1519" x2="275.0581" y2="-786.8812" gradientTransform="matrix(1 0 0 -1 -150 -530)">
				<stop  offset="0" style="stop-color:#F7BD79"/>
				<stop  offset="1" style="stop-color:#9F4C00"/>
			</linearGradient>
			<path fill="url(#SVGID_2_)" d="M179.195,133.66c0.353,1.266-0.383,2.521-1.637,2.805L54.337,168.486
				c-1.256,0.283-2.561-0.514-2.91-1.775L23.191,60.477c-0.35-1.266,0.383-2.521,1.639-2.807L148.2,29.428
				c1.256-0.284,2.562,0.514,2.911,1.776L179.195,133.66z"/>
			
				<radialGradient id="SVGID_3_" cx="-348.7734" cy="-1576.3901" r="86.9438" gradientTransform="matrix(0.9749 -0.2204 -0.2726 -0.9818 11.5621 -1525.6111)" gradientUnits="userSpaceOnUse">
				<stop  offset="0" style="stop-color:#FFFFFF"/>
				<stop  offset="0.8764" style="stop-color:#037F00"/>
			</radialGradient>
			<path fill="url(#SVGID_3_)" d="M164.723,126.189c0.274,0.998-0.345,1.996-1.384,2.229L62.671,155.34
				c-1.039,0.236-2.105-0.383-2.383-1.375L37.667,67.95c-0.277-1,0.34-1.996,1.383-2.231l100.816-23.144
				c1.038-0.236,2.104,0.381,2.381,1.379L164.723,126.189z"/>
			
				<linearGradient id="SVGID_4_" gradientUnits="userSpaceOnUse" x1="249.6797" y1="-586.2217" x2="253.6967" y2="-694.6846" gradientTransform="matrix(1 0 0 -1 -150 -530)">
				<stop  offset="0" style="stop-color:#3A8400"/>
				<stop  offset="1" style="stop-color:#032D00"/>
			</linearGradient>
			<path fill="url(#SVGID_4_)" d="M164.048,125.938c0.271,0.986-0.338,1.978-1.368,2.209l-99.57,26.672
				c-1.029,0.229-2.086-0.381-2.359-1.363L38.341,68.2c-0.274-0.985,0.338-1.975,1.369-2.209l99.714-22.892
				c1.031-0.231,2.088,0.379,2.361,1.364L164.048,125.938z"/>
			
				<linearGradient id="SVGID_5_" gradientUnits="userSpaceOnUse" x1="-342.3208" y1="-1604.0664" x2="-342.3208" y2="-1555.1757" gradientTransform="matrix(0.9749 -0.2167 -0.2726 -0.9653 11.5621 -1472.1973)">
				<stop  offset="0" style="stop-color:#FFFFFF"/>
				<stop  offset="1" style="stop-color:#000000"/>
			</linearGradient>
			<path opacity="0.63" fill="url(#SVGID_5_)" enable-background="new    " d="M165.105,128.629c0.104,0.369-0.117,0.736-0.489,0.82
				l-103.1,27.471c-0.375,0.084-0.76-0.145-0.863-0.516l0,0c-0.102-0.367,0.119-0.736,0.496-0.82l103.094-27.469
				C164.618,128.029,165.005,128.258,165.105,128.629L165.105,128.629z"/>
			
				<linearGradient id="SVGID_6_" gradientUnits="userSpaceOnUse" x1="-469.4478" y1="-1550.709" x2="-340.7985" y2="-1550.709" gradientTransform="matrix(0.9749 -0.2167 -0.2726 -0.9653 11.5621 -1472.1973)">
				<stop  offset="0" style="stop-color:#FFFFFF"/>
				<stop  offset="1" style="stop-color:#000000"/>
			</linearGradient>
			<path opacity="0.63" fill="url(#SVGID_6_)" enable-background="new    " d="M59.753,153.158c0.043,0.162-0.047,0.316-0.205,0.352
				l0,0c-0.158,0.037-0.32-0.062-0.363-0.221L36.727,67.864c-0.043-0.156,0.046-0.314,0.206-0.35l0,0
				c0.156-0.037,0.318,0.065,0.361,0.222L59.753,153.158z"/>
			
				<linearGradient id="SVGID_7_" gradientUnits="userSpaceOnUse" x1="-2417.8398" y1="105.8496" x2="-2118.1455" y2="105.8496" gradientTransform="matrix(-0.2726 -0.9653 -0.9749 0.2167 -393.4117 -2039.5686)">
				<stop  offset="0" style="stop-color:#FFFFFF"/>
				<stop  offset="1" style="stop-color:#000000"/>
			</linearGradient>
			<path opacity="0.63" fill="url(#SVGID_7_)" enable-background="new    " d="M177.632,135.764
				c0.279-0.062,0.543,0.014,0.586,0.172l0,0c0.044,0.158-0.149,0.338-0.428,0.4L54.065,168.471
				c-0.279,0.066-0.543-0.012-0.586-0.17l0,0c-0.045-0.16,0.146-0.338,0.428-0.402L177.632,135.764z"/>
			
				<linearGradient id="SVGID_8_" gradientUnits="userSpaceOnUse" x1="-340.7954" y1="-1499.9043" x2="-340.7954" y2="-1549.5142" gradientTransform="matrix(0.9749 -0.2167 -0.2726 -0.9653 11.5621 -1472.1973)">
				<stop  offset="0" style="stop-color:#FFFFFF"/>
				<stop  offset="1" style="stop-color:#000000"/>
			</linearGradient>
			<path opacity="0.63" fill="url(#SVGID_8_)" enable-background="new    " d="M148.671,30.157c0.279-0.061,0.541,0.017,0.586,0.174
				l0,0c0.045,0.158-0.147,0.337-0.426,0.402L24.958,59.086c-0.282,0.062-0.542-0.012-0.587-0.171l0,0
				c-0.043-0.157,0.146-0.337,0.428-0.398L148.671,30.157z"/>
			
				<linearGradient id="SVGID_9_" gradientUnits="userSpaceOnUse" x1="-2187.0312" y1="104.6172" x2="-2114.6714" y2="104.6172" gradientTransform="matrix(-0.2726 -0.9653 -0.9749 0.2167 -393.4117 -2039.5686)">
				<stop  offset="0" style="stop-color:#FFFFFF"/>
				<stop  offset="0.7528" style="stop-color:#000000"/>
			</linearGradient>
			<path opacity="0.63" fill="url(#SVGID_9_)" enable-background="new    " d="M140.001,42.505c0.231-0.052,0.453,0.019,0.49,0.155
				l0,0c0.038,0.142-0.119,0.293-0.353,0.347L39.031,66.215c-0.232,0.053-0.447-0.014-0.486-0.155l0,0
				c-0.038-0.138,0.116-0.293,0.348-0.347L140.001,42.505z"/>
			
				<linearGradient id="SVGID_10_" gradientUnits="userSpaceOnUse" x1="-330.9219" y1="-1548.1187" x2="-254.1218" y2="-1548.1187" gradientTransform="matrix(0.9749 -0.2167 -0.2726 -0.9653 11.5621 -1472.1973)">
				<stop  offset="0" style="stop-color:#FFFFFF"/>
				<stop  offset="1" style="stop-color:#000000"/>
			</linearGradient>
			<path opacity="0.63" fill="url(#SVGID_10_)" enable-background="new    " d="M165.157,125.17c0.043,0.156-0.052,0.312-0.207,0.35
				l0,0c-0.16,0.033-0.32-0.062-0.365-0.225l-22.308-81.643c-0.045-0.157,0.048-0.314,0.203-0.352l0,0
				c0.158-0.035,0.32,0.064,0.367,0.224L165.157,125.17z"/>
			
				<linearGradient id="SVGID_11_" gradientUnits="userSpaceOnUse" x1="-285.2607" y1="-1494.856" x2="-271.0183" y2="-1513.6821" gradientTransform="matrix(0.9749 -0.2167 -0.2726 -0.9653 11.5621 -1472.1973)">
				<stop  offset="0" style="stop-color:#FFFFFF"/>
				<stop  offset="1" style="stop-color:#000000"/>
			</linearGradient>
			<path opacity="0.63" fill="url(#SVGID_11_)" enable-background="new    " d="M150.146,29.99c0.067,0.046-1.027,1.63-1.086,1.718
				L141.8,42.693c-0.057,0.085-0.2,0.313-0.271,0.266l0.044-0.198c-0.07-0.049-0.078-0.152-0.021-0.24l7.649-11.38
				C149.262,31.055,150.077,29.942,150.146,29.99L150.146,29.99z"/>
			
				<linearGradient id="SVGID_12_" gradientUnits="userSpaceOnUse" x1="-523.1655" y1="-1496.208" x2="-509.0315" y2="-1514.891" gradientTransform="matrix(-0.9749 0.2167 -0.2726 -0.9653 -885.1602 -1273.4335)">
				<stop  offset="0" style="stop-color:#FFFFFF"/>
				<stop  offset="1" style="stop-color:#000000"/>
			</linearGradient>
			<path opacity="0.63" fill="url(#SVGID_12_)" enable-background="new    " d="M23.325,59.013c-0.034,0.07,1.763,1.001,1.855,1.052
				l12.14,6.599c0.096,0.052,0.344,0.191,0.379,0.119l-0.143-0.155c0.035-0.071-0.012-0.17-0.107-0.221l-12.691-6.78
				C24.664,59.577,23.363,58.941,23.325,59.013L23.325,59.013z"/>
			
				<linearGradient id="SVGID_13_" gradientUnits="userSpaceOnUse" x1="1331.4971" y1="-21.333" x2="1343.6614" y2="-37.4125" gradientTransform="matrix(0.1861 0.9805 -0.995 0.1313 -217.0656 -1143.6571)">
				<stop  offset="0" style="stop-color:#FFFFFF"/>
				<stop  offset="1" style="stop-color:#000000"/>
			</linearGradient>
			<path opacity="0.63" fill="url(#SVGID_13_)" enable-background="new    " d="M52.481,168.176
				c0.072,0.047,1.068-1.604,1.123-1.691l7.061-11.116c0.053-0.089,0.201-0.312,0.133-0.357l-0.16,0.117
				c-0.072-0.047-0.172-0.012-0.227,0.076l-7.262,11.642C53.095,166.932,52.411,168.131,52.481,168.176L52.481,168.176z"/>
			
				<linearGradient id="SVGID_14_" gradientUnits="userSpaceOnUse" x1="1329.9404" y1="13.2954" x2="1341.9463" y2="-2.5744" gradientTransform="matrix(0.357 0.9424 0.9471 -0.3006 -312.7741 -1122.0864)">
				<stop  offset="0" style="stop-color:#FFFFFF"/>
				<stop  offset="1" style="stop-color:#000000"/>
			</linearGradient>
			<path opacity="0.63" fill="url(#SVGID_14_)" enable-background="new    " d="M178.958,135.42
				c-0.037,0.068-1.781-0.963-1.877-1.016l-12.033-6.801c-0.09-0.056-0.342-0.188-0.305-0.261l0.205,0.037
				c0.04-0.067,0.145-0.084,0.237-0.026l12.482,7.176C177.766,134.582,178.995,135.352,178.958,135.42L178.958,135.42z"/>
			<circle fill="none" stroke="#FFFFFF" stroke-width="4" stroke-miterlimit="10" cx="124.055" cy="69.588" r="10.581"/>
			<g>
				
					<path fill="none" stroke="#FFFFFF" stroke-width="4" stroke-linecap="round" stroke-linejoin="round" stroke-miterlimit="10" d="
					M80.103,124.301c0,0,34.5,15.5,45.254-26.682"/>
				
					<polygon fill="none" stroke="#FFFFFF" stroke-width="4" stroke-linecap="round" stroke-linejoin="round" stroke-miterlimit="10" points="
					119.104,100.037 126.715,91.377 129.604,102.739 				"/>
			</g>
			<g>
				
					<line fill="none" stroke="#FFFFFF" stroke-width="4" stroke-linecap="round" stroke-miterlimit="10" x1="78.021" y1="86.103" x2="97.691" y2="96.652"/>
				
					<line fill="none" stroke="#FFFFFF" stroke-width="4" stroke-linecap="round" stroke-miterlimit="10" x1="93.132" y1="81.542" x2="82.582" y2="101.211"/>
			</g>
		</g>
	</g>
</g>
</svg>
