<?xml version="1.0" encoding="utf-8"?>
<!-- Generator: Adobe Illustrator 15.0.0, SVG Export Plug-In . SVG Version: 6.00 Build 0)  -->
<!DOCTYPE svg PUBLIC "-//W3C//DTD SVG 1.1//EN" "http://www.w3.org/Graphics/SVG/1.1/DTD/svg11.dtd">
<svg version="1.1" id="Layer_1" xmlns="http://www.w3.org/2000/svg" xmlns:xlink="http://www.w3.org/1999/xlink" x="0px" y="0px"
	 width="200px" height="200px" viewBox="0 0 200 200" enable-background="new 0 0 200 200" xml:space="preserve">
<g id="icon">
	<g id="Layer_2">
	</g>
	<g id="Layer_1_1_">
		<g>
			<g>
				<polygon fill="#F0AE00" points="162.012,83.27 144.029,63.64 130.641,44.58 103.232,40.005 80.799,42.362 58.368,44.719 
					37.675,74.398 38.378,90.012 32.063,116.484 46.583,129.904 60.827,142.021 71.554,159.172 105.016,148.732 129.134,157.217 
					143.77,155.989 163.736,138.277 167.938,127.502 				"/>
			</g>
			<g>
				<polygon fill="#903D00" points="163.736,138.277 167.938,127.502 162.012,83.27 114.23,87.988 126.398,112.255 105.016,148.732 
					147.977,140.555 				"/>
				<polygon fill="#D78D00" points="163.736,138.277 143.77,155.989 129.134,157.217 105.016,148.732 147.977,140.555 				"/>
				<polygon fill="#FFD900" points="58.368,44.719 80.799,42.362 103.232,40.005 126.999,69.456 120.714,87.398 114.23,87.988 
					91.856,85.139 78.552,70.127 63.03,68.421 				"/>
				<polygon fill="#FFFA60" points="58.368,44.719 80.799,42.362 120.714,87.398 91.856,85.139 78.552,70.127 63.03,68.421 				"/>
				<polygon fill="#FFA700" points="147.977,140.555 163.736,138.277 151.581,128.539 105.016,148.732 103.339,124.445 
					126.398,112.255 146.384,120.314 				"/>
				<polygon fill="#FFC700" points="120.714,87.398 126.398,112.255 114.286,130.207 106.161,135.861 105.016,148.732 82.3,141.545 
					61.202,133.788 68.892,97.762 78.552,70.127 91.856,85.139 				"/>
				<polygon fill="#FFD900" points="146.384,120.314 158.782,100.048 120.714,87.398 137.594,104.139 				"/>
				<polygon fill="#D77700" points="105.016,148.732 106.161,135.861 92.345,120.271 66.433,135.539 68.892,97.762 45.22,112.555 
					46.583,129.904 60.827,142.021 71.554,159.172 				"/>
				<polygon fill="#FFA700" points="78.552,70.127 68.892,97.762 45.22,112.555 46.583,129.904 32.063,116.484 38.378,90.012 
					37.675,74.398 58.368,44.719 63.435,63.938 				"/>
			</g>
			
				<radialGradient id="SVGID_1_" cx="304.666" cy="1258.2559" r="74.7768" gradientTransform="matrix(1 0 0 1 -200 -1182)" gradientUnits="userSpaceOnUse">
				<stop  offset="0.5031" style="stop-color:#FFFF00;stop-opacity:0"/>
				<stop  offset="1" style="stop-color:#5D1A00;stop-opacity:0.55"/>
			</radialGradient>
			<polygon opacity="0.87" fill="url(#SVGID_1_)" enable-background="new    " points="162.012,83.27 144.029,63.64 130.641,44.58 
				103.232,40.005 80.799,42.362 58.368,44.719 37.675,74.398 38.378,90.012 32.063,116.484 46.583,129.904 60.827,142.021 
				71.554,159.172 105.016,148.732 129.134,157.217 143.77,155.989 163.736,138.277 167.938,127.502 			"/>
		</g>
	</g>
</g>
</svg>
