<?xml version="1.0" encoding="utf-8"?>
<!-- Generator: Adobe Illustrator 15.0.0, SVG Export Plug-In . SVG Version: 6.00 Build 0)  -->
<!DOCTYPE svg PUBLIC "-//W3C//DTD SVG 1.1//EN" "http://www.w3.org/Graphics/SVG/1.1/DTD/svg11.dtd">
<svg version="1.1" id="Layer_1" xmlns="http://www.w3.org/2000/svg" xmlns:xlink="http://www.w3.org/1999/xlink" x="0px" y="0px"
	 width="200px" height="200px" viewBox="0 0 200 200" enable-background="new 0 0 200 200" xml:space="preserve">
<g id="icon">
	<g id="Layer_2">
	</g>
	<g>
		
			<linearGradient id="SVGID_1_" gradientUnits="userSpaceOnUse" x1="1365.8018" y1="-241.0391" x2="1372.9281" y2="-234.9304" gradientTransform="matrix(0.3568 0.9342 -0.9342 0.3568 -618.8367 -1073.1714)">
			<stop  offset="0" style="stop-color:#74DC00"/>
			<stop  offset="1" style="stop-color:#2B8600"/>
		</linearGradient>
		<polygon fill="url(#SVGID_1_)" points="38.311,81.684 71.825,27.131 133.174,45.448 161.008,118.316 127.494,172.869 
			66.144,154.553 		"/>
		
			<linearGradient id="SVGID_2_" gradientUnits="userSpaceOnUse" x1="1342.6963" y1="-249.21" x2="1314.1912" y2="-255.8271" gradientTransform="matrix(0.3568 0.9342 -0.9342 0.3568 -618.8367 -1073.1714)">
			<stop  offset="0" style="stop-color:#74DC00"/>
			<stop  offset="1" style="stop-color:#2B8600"/>
		</linearGradient>
		<polygon fill="url(#SVGID_2_)" points="90.659,134.432 136.201,148.027 127.494,172.869 66.144,154.553 		"/>
		
			<linearGradient id="SVGID_3_" gradientUnits="userSpaceOnUse" x1="1390.7959" y1="-239.0518" x2="1404.5413" y2="-234.47" gradientTransform="matrix(0.3568 0.9342 -0.9342 0.3568 -618.8367 -1073.1714)">
			<stop  offset="0" style="stop-color:#FFFFFF"/>
			<stop  offset="1" style="stop-color:#FFFF00;stop-opacity:0"/>
		</linearGradient>
		<polygon fill="url(#SVGID_3_)" points="90.659,134.432 136.201,148.027 127.494,172.869 66.144,154.553 		"/>
		
			<linearGradient id="SVGID_4_" gradientUnits="userSpaceOnUse" x1="1261.1553" y1="-212.2715" x2="1272.6078" y2="-213.4169" gradientTransform="matrix(0.3568 0.9342 -0.9342 0.3568 -618.8367 -1073.1714)">
			<stop  offset="0" style="stop-color:#74DC00"/>
			<stop  offset="1" style="stop-color:#2B8600"/>
		</linearGradient>
		<polygon fill="url(#SVGID_4_)" points="73.483,148.529 107.949,158.82 127.494,172.869 66.144,154.553 		"/>
		
			<linearGradient id="SVGID_5_" gradientUnits="userSpaceOnUse" x1="1354.373" y1="-250.5371" x2="1369.6448" y2="-235.2656" gradientTransform="matrix(0.3568 0.9342 -0.9342 0.3568 -618.8367 -1073.1714)">
			<stop  offset="0" style="stop-color:#FFFFFF"/>
			<stop  offset="1" style="stop-color:#FFFF00;stop-opacity:0"/>
		</linearGradient>
		<polygon fill="url(#SVGID_5_)" points="38.311,81.684 71.825,27.131 133.174,45.448 161.008,118.316 127.494,172.869 
			66.144,154.553 		"/>
		
			<linearGradient id="SVGID_6_" gradientUnits="userSpaceOnUse" x1="1451.4492" y1="-267.2544" x2="1367.4768" y2="-241.2993" gradientTransform="matrix(0.3568 0.9342 -0.9342 0.3568 -618.8367 -1073.1714)">
			<stop  offset="0" style="stop-color:#74DC00"/>
			<stop  offset="1" style="stop-color:#2B8600"/>
		</linearGradient>
		<polygon fill="url(#SVGID_6_)" points="136.201,148.027 107.949,158.82 127.494,172.869 127.494,172.869 		"/>
		
			<linearGradient id="SVGID_7_" gradientUnits="userSpaceOnUse" x1="1311.6611" y1="-242.2539" x2="1308.6072" y2="-239.7093" gradientTransform="matrix(0.3568 0.9342 -0.9342 0.3568 -618.8367 -1073.1714)">
			<stop  offset="0" style="stop-color:#74DC00"/>
			<stop  offset="1" style="stop-color:#2B8600"/>
		</linearGradient>
		<polygon fill="url(#SVGID_7_)" points="38.311,81.684 71.825,27.131 94.875,39.841 69.997,80.338 		"/>
		
			<linearGradient id="SVGID_8_" gradientUnits="userSpaceOnUse" x1="1241.1592" y1="-185.1294" x2="1222.0798" y2="-169.866" gradientTransform="matrix(0.3568 0.9342 -0.9342 0.3568 -618.8367 -1073.1714)">
			<stop  offset="0" style="stop-color:#74DC00"/>
			<stop  offset="1" style="stop-color:#2B8600"/>
		</linearGradient>
		<polygon fill="url(#SVGID_8_)" points="38.311,81.684 71.825,27.131 66.624,50.633 47.795,81.282 		"/>
		
			<linearGradient id="SVGID_9_" gradientUnits="userSpaceOnUse" x1="1316.834" y1="-266.1377" x2="1306.5251" y2="-260.7924" gradientTransform="matrix(0.3568 0.9342 -0.9342 0.3568 -618.8367 -1073.1714)">
			<stop  offset="0" style="stop-color:#74DC00"/>
			<stop  offset="1" style="stop-color:#2B8600"/>
		</linearGradient>
		<polygon fill="url(#SVGID_9_)" points="94.875,39.841 71.825,27.131 66.624,50.633 84.894,56.089 		"/>
		
			<linearGradient id="SVGID_10_" gradientUnits="userSpaceOnUse" x1="1304.3398" y1="-278.5361" x2="1312.3348" y2="-276.4725" gradientTransform="matrix(0.3568 0.9342 -0.9342 0.3568 -618.8367 -1073.1714)">
			<stop  offset="0" style="stop-color:#74DC00"/>
			<stop  offset="1" style="stop-color:#2B8600"/>
		</linearGradient>
		<polygon fill="url(#SVGID_10_)" points="71.825,27.131 133.174,45.448 140.416,53.438 94.875,39.841 		"/>
		
			<linearGradient id="SVGID_11_" gradientUnits="userSpaceOnUse" x1="339.2559" y1="1326.4932" x2="358.8393" y2="1309.79" gradientTransform="matrix(1 0 0 1 -200 -1182)">
			<stop  offset="0.1104" style="stop-color:#FFFFFF"/>
			<stop  offset="0.3742" style="stop-color:#74DC00"/>
			<stop  offset="1" style="stop-color:#2B8600"/>
		</linearGradient>
		<polygon fill="url(#SVGID_11_)" points="136.201,148.027 161.08,107.533 161.008,118.316 127.494,172.869 		"/>
		
			<linearGradient id="SVGID_12_" gradientUnits="userSpaceOnUse" x1="1370.6299" y1="-264.8857" x2="1397.135" y2="-258.0446" gradientTransform="matrix(0.3568 0.9342 -0.9342 0.3568 -618.8367 -1073.1714)">
			<stop  offset="0" style="stop-color:#74DC00"/>
			<stop  offset="1" style="stop-color:#2B8600"/>
		</linearGradient>
		<polygon fill="url(#SVGID_12_)" points="69.997,80.338 94.875,39.841 140.416,53.438 161.08,107.533 136.201,148.027 
			90.659,134.432 		"/>
		
			<linearGradient id="SVGID_13_" gradientUnits="userSpaceOnUse" x1="282.4092" y1="1287.9082" x2="304.8714" y2="1280.1328" gradientTransform="matrix(1 0 0 1 -200 -1182)">
			<stop  offset="0" style="stop-color:#74DC00"/>
			<stop  offset="1" style="stop-color:#2B8600"/>
		</linearGradient>
		<polygon fill="url(#SVGID_13_)" points="112.164,64.23 84.894,56.089 69.997,80.338 90.659,134.432 117.93,142.574 
			132.826,118.324 		"/>
		
			<linearGradient id="SVGID_14_" gradientUnits="userSpaceOnUse" x1="1392.2266" y1="-347.0923" x2="1390.4438" y2="-334.6176" gradientTransform="matrix(0.3568 0.9342 -0.9342 0.3568 -618.8367 -1073.1714)">
			<stop  offset="0" style="stop-color:#96DC00"/>
			<stop  offset="1" style="stop-color:#568D00"/>
		</linearGradient>
		<polygon fill="url(#SVGID_14_)" points="161.08,107.533 161.008,118.316 158.494,111.738 		"/>
		
			<linearGradient id="SVGID_15_" gradientUnits="userSpaceOnUse" x1="1247.4727" y1="-330.5913" x2="1269.6086" y2="-322.7036" gradientTransform="matrix(0.3568 0.9342 -0.9342 0.3568 -618.8367 -1073.1714)">
			<stop  offset="0" style="stop-color:#FFFFFF"/>
			<stop  offset="1" style="stop-color:#FFFF00;stop-opacity:0"/>
		</linearGradient>
		<polygon fill="url(#SVGID_15_)" points="140.416,53.438 135.686,52.027 133.174,45.448 		"/>
		
			<linearGradient id="SVGID_16_" gradientUnits="userSpaceOnUse" x1="1352.3623" y1="-304.3208" x2="1350.5797" y2="-282.6717" gradientTransform="matrix(0.3568 0.9342 -0.9342 0.3568 -618.8367 -1073.1714)">
			<stop  offset="0" style="stop-color:#74DC00"/>
			<stop  offset="1" style="stop-color:#2B8600"/>
		</linearGradient>
		<polygon fill="url(#SVGID_16_)" points="140.416,53.438 161.08,107.533 158.494,111.738 135.686,52.027 		"/>
		
			<linearGradient id="SVGID_17_" gradientUnits="userSpaceOnUse" x1="337.6211" y1="1279.1572" x2="339.9244" y2="1288.3734" gradientTransform="matrix(1 0 0 1 -200 -1182)">
			<stop  offset="0" style="stop-color:#74DC00"/>
			<stop  offset="1" style="stop-color:#2B8600"/>
		</linearGradient>
		<polygon fill="url(#SVGID_17_)" points="112.164,64.23 132.826,118.324 158.494,111.738 135.686,52.027 		"/>
		
			<linearGradient id="SVGID_18_" gradientUnits="userSpaceOnUse" x1="342.374" y1="1232.4883" x2="312.5944" y2="1280.7018" gradientTransform="matrix(1 0 0 1 -200 -1182)">
			<stop  offset="0.2822" style="stop-color:#FFFFFF"/>
			<stop  offset="0.7117" style="stop-color:#FFFF00;stop-opacity:0"/>
		</linearGradient>
		<polygon fill="url(#SVGID_18_)" points="69.997,80.338 94.875,39.841 140.416,53.438 161.08,107.533 136.201,148.027 
			90.659,134.432 		"/>
		
			<linearGradient id="SVGID_19_" gradientUnits="userSpaceOnUse" x1="1400.0498" y1="-203.9155" x2="1428.6841" y2="-199.3338" gradientTransform="matrix(0.3568 0.9342 -0.9342 0.3568 -618.8367 -1073.1714)">
			<stop  offset="0" style="stop-color:#74DC00"/>
			<stop  offset="1" style="stop-color:#2B8600"/>
		</linearGradient>
		<polygon fill="url(#SVGID_19_)" points="62.604,145.281 66.144,154.553 73.483,148.529 		"/>
		
			<linearGradient id="SVGID_20_" gradientUnits="userSpaceOnUse" x1="1050.9268" y1="-241.9272" x2="1084.9098" y2="-237.3452" gradientTransform="matrix(0.3568 0.9342 -0.9342 0.3568 -618.8367 -1073.1714)">
			<stop  offset="0" style="stop-color:#96DC00"/>
			<stop  offset="1" style="stop-color:#568D00"/>
		</linearGradient>
		<polygon fill="url(#SVGID_20_)" points="38.311,81.684 41.851,90.956 47.795,81.282 		"/>
	</g>
</g>
</svg>
