<?xml version="1.0" encoding="utf-8"?>
<!-- Generator: Adobe Illustrator 15.0.0, SVG Export Plug-In . SVG Version: 6.00 Build 0)  -->
<!DOCTYPE svg PUBLIC "-//W3C//DTD SVG 1.1//EN" "http://www.w3.org/Graphics/SVG/1.1/DTD/svg11.dtd">
<svg version="1.1" id="Layer_1" xmlns="http://www.w3.org/2000/svg" xmlns:xlink="http://www.w3.org/1999/xlink" x="0px" y="0px"
	 width="200px" height="200px" viewBox="0 0 200 200" enable-background="new 0 0 200 200" xml:space="preserve">
<g id="icon">
	<g id="Layer_2">
	</g>
	<g id="Layer_1_1_">
		<g>
			<g>
				
					<linearGradient id="SVGID_1_" gradientUnits="userSpaceOnUse" x1="248.7793" y1="-594.3223" x2="251.8635" y2="-586.3046" gradientTransform="matrix(1 0 0 -1 -150 -530)">
					<stop  offset="0" style="stop-color:#FF0A00"/>
					<stop  offset="1" style="stop-color:#860A00"/>
				</linearGradient>
				<polygon fill="url(#SVGID_1_)" points="77.31,83.441 47.4,68.308 49.964,48.079 78.25,34.118 122.004,34.118 150.062,48.079 
					152.307,68.308 122.169,83.441 				"/>
				
					<linearGradient id="SVGID_2_" gradientUnits="userSpaceOnUse" x1="249.2578" y1="-569.2026" x2="226.441" y2="-571.0527" gradientTransform="matrix(1 0 0 -1 -150 -530)">
					<stop  offset="0" style="stop-color:#FF0A00"/>
					<stop  offset="1" style="stop-color:#860A00"/>
				</linearGradient>
				<polygon fill="url(#SVGID_2_)" points="73.731,43.912 78.25,34.118 122.004,34.118 124.887,43.912 				"/>
				
					<linearGradient id="SVGID_3_" gradientUnits="userSpaceOnUse" x1="261.7812" y1="-634.0703" x2="344.1078" y2="-633.1453" gradientTransform="matrix(1 0 0 -1 -150 -530)">
					<stop  offset="0" style="stop-color:#FF0A00"/>
					<stop  offset="1" style="stop-color:#860A00"/>
				</linearGradient>
				<polygon fill="url(#SVGID_3_)" points="73.731,43.912 100.214,164.785 124.887,43.912 				"/>
				
					<linearGradient id="SVGID_4_" gradientUnits="userSpaceOnUse" x1="274.1328" y1="-571.3247" x2="313.6796" y2="-582.4255" gradientTransform="matrix(1 0 0 -1 -150 -530)">
					<stop  offset="0" style="stop-color:#FF0A00"/>
					<stop  offset="1" style="stop-color:#860A00"/>
				</linearGradient>
				<polygon fill="url(#SVGID_4_)" points="159.426,57.839 150.062,48.079 122.004,34.118 124.887,43.912 				"/>
				
					<linearGradient id="SVGID_5_" gradientUnits="userSpaceOnUse" x1="219.0283" y1="-573.4482" x2="201.4517" y2="-578.0739" gradientTransform="matrix(1 0 0 -1 -150 -530)">
					<stop  offset="0" style="stop-color:#FF0A00"/>
					<stop  offset="1" style="stop-color:#860A00"/>
				</linearGradient>
				<polygon fill="url(#SVGID_5_)" points="73.731,43.912 78.25,34.118 49.964,48.079 40.574,57.839 				"/>
				
					<linearGradient id="SVGID_6_" gradientUnits="userSpaceOnUse" x1="254.6768" y1="-574.9961" x2="255.6018" y2="-562.6616" gradientTransform="matrix(1 0 0 -1 -150 -530)">
					<stop  offset="0" style="stop-color:#FF0A00"/>
					<stop  offset="1" style="stop-color:#860A00"/>
				</linearGradient>
				<polygon fill="url(#SVGID_6_)" points="126.736,109.297 72.971,109.297 77.66,83.441 122.169,83.441 				"/>
				
					<linearGradient id="SVGID_7_" gradientUnits="userSpaceOnUse" x1="239.4932" y1="-636.9434" x2="297.4666" y2="-554.9177" gradientTransform="matrix(1 0 0 -1 -150 -530)">
					<stop  offset="0" style="stop-color:#FF0A00"/>
					<stop  offset="1" style="stop-color:#860A00"/>
				</linearGradient>
				<polygon fill="url(#SVGID_7_)" points="116.818,83.441 82.392,83.441 88.057,109.297 111.541,109.297 				"/>
				
					<linearGradient id="SVGID_8_" gradientUnits="userSpaceOnUse" x1="79.9453" y1="-589.1025" x2="86.7295" y2="-590.644" gradientTransform="matrix(1 0 0 -1 -150 -530)">
					<stop  offset="0" style="stop-color:#FF0A00"/>
					<stop  offset="1" style="stop-color:#860A00"/>
				</linearGradient>
				<polygon fill="url(#SVGID_8_)" points="34.714,87.415 72.971,109.297 77.66,83.441 47.54,68.125 				"/>
				
					<linearGradient id="SVGID_9_" gradientUnits="userSpaceOnUse" x1="170.6611" y1="-638.0679" x2="265.6336" y2="-585.0308" gradientTransform="matrix(1 0 0 -1 -150 -530)">
					<stop  offset="0" style="stop-color:#FF0A00"/>
					<stop  offset="1" style="stop-color:#860A00"/>
				</linearGradient>
				<polygon fill="url(#SVGID_9_)" points="46.871,69.13 34.714,87.415 67.538,106.191 				"/>
				
					<linearGradient id="SVGID_10_" gradientUnits="userSpaceOnUse" x1="192.3389" y1="-592.6426" x2="192.3389" y2="-586.6299" gradientTransform="matrix(1 0 0 -1 -150 -530)">
					<stop  offset="0" style="stop-color:#FF0A00"/>
					<stop  offset="1" style="stop-color:#860A00"/>
				</linearGradient>
				<polygon fill="url(#SVGID_10_)" points="34.714,87.415 40.574,57.839 49.964,48.079 47.54,68.125 				"/>
				
					<linearGradient id="SVGID_11_" gradientUnits="userSpaceOnUse" x1="177.8857" y1="-595.5801" x2="194.5372" y2="-607.6061" gradientTransform="matrix(1 0 0 -1 -150 -530)">
					<stop  offset="0" style="stop-color:#FF0A00"/>
					<stop  offset="1" style="stop-color:#860A00"/>
				</linearGradient>
				<polygon fill="url(#SVGID_11_)" points="40.574,57.839 34.714,87.415 46.871,69.13 				"/>
				
					<linearGradient id="SVGID_12_" gradientUnits="userSpaceOnUse" x1="204.1016" y1="-578.5337" x2="208.4959" y2="-575.9897" gradientTransform="matrix(1 0 0 -1 -150 -530)">
					<stop  offset="0" style="stop-color:#FF0A00"/>
					<stop  offset="1" style="stop-color:#860A00"/>
				</linearGradient>
				<polygon fill="url(#SVGID_12_)" points="49.964,48.079 40.574,57.839 49.224,54.207 				"/>
				
					<linearGradient id="SVGID_13_" gradientUnits="userSpaceOnUse" x1="48.3486" y1="-618.8027" x2="91.4658" y2="-618.8027" gradientTransform="matrix(-1 0 0 -1 213.6348 -530)">
					<stop  offset="0" style="stop-color:#FF0A00"/>
					<stop  offset="1" style="stop-color:#860A00"/>
				</linearGradient>
				<polygon fill="url(#SVGID_13_)" points="165.286,87.415 126.736,109.297 122.169,83.441 152.307,68.308 				"/>
				
					<linearGradient id="SVGID_14_" gradientUnits="userSpaceOnUse" x1="282.8594" y1="-617.6016" x2="315.2861" y2="-617.6016" gradientTransform="matrix(1 0 0 -1 -150 -530)">
					<stop  offset="0" style="stop-color:#FF0A00"/>
					<stop  offset="1" style="stop-color:#860A00"/>
				</linearGradient>
				<polygon fill="url(#SVGID_14_)" points="132.859,105.822 165.286,87.415 153.036,69.381 				"/>
				
					<linearGradient id="SVGID_15_" gradientUnits="userSpaceOnUse" x1="48.8047" y1="-591.5645" x2="66.6895" y2="-596.4982" gradientTransform="matrix(1 0 0 -1 -150 -530)">
					<stop  offset="0" style="stop-color:#FF0A00"/>
					<stop  offset="1" style="stop-color:#860A00"/>
				</linearGradient>
				<polygon fill="url(#SVGID_15_)" points="100.214,164.785 34.714,87.415 72.971,109.297 126.736,109.297 165.286,87.415 				"/>
				
					<linearGradient id="SVGID_16_" gradientUnits="userSpaceOnUse" x1="254.2744" y1="-650.8701" x2="288.2682" y2="-657.1139" gradientTransform="matrix(1 0 0 -1 -150 -530)">
					<stop  offset="0" style="stop-color:#FF0A00"/>
					<stop  offset="1" style="stop-color:#860A00"/>
				</linearGradient>
				<polygon fill="url(#SVGID_16_)" points="132.859,105.822 100.214,164.785 165.286,87.415 				"/>
				
					<linearGradient id="SVGID_17_" gradientUnits="userSpaceOnUse" x1="289.7812" y1="-677.1982" x2="282.381" y2="-654.9972" gradientTransform="matrix(1 0 0 -1 -150 -530)">
					<stop  offset="0" style="stop-color:#FFFFFF"/>
					<stop  offset="1" style="stop-color:#FF0A00;stop-opacity:0"/>
				</linearGradient>
				<polygon fill="url(#SVGID_17_)" points="132.859,105.822 100.214,164.785 165.286,87.415 				"/>
				
					<linearGradient id="SVGID_18_" gradientUnits="userSpaceOnUse" x1="215.7295" y1="-649.1582" x2="223.1299" y2="-662.1089" gradientTransform="matrix(1 0 0 -1 -150 -530)">
					<stop  offset="0" style="stop-color:#FF0A00"/>
					<stop  offset="1" style="stop-color:#860A00"/>
				</linearGradient>
				<polygon fill="url(#SVGID_18_)" points="100.214,164.785 34.714,87.415 72.971,109.297 				"/>
				
					<linearGradient id="SVGID_19_" gradientUnits="userSpaceOnUse" x1="206.8721" y1="-662.376" x2="219.3581" y2="-654.9767" gradientTransform="matrix(1 0 0 -1 -150 -530)">
					<stop  offset="0" style="stop-color:#FF0A00"/>
					<stop  offset="1" style="stop-color:#860A00"/>
				</linearGradient>
				<polygon fill="url(#SVGID_19_)" points="67.538,106.191 34.714,87.415 100.214,164.785 				"/>
				
					<linearGradient id="SVGID_20_" gradientUnits="userSpaceOnUse" x1="222.9707" y1="-667.041" x2="276.7363" y2="-667.041" gradientTransform="matrix(1 0 0 -1 -150 -530)">
					<stop  offset="0" style="stop-color:#FF0A00"/>
					<stop  offset="1" style="stop-color:#860A00"/>
				</linearGradient>
				<polygon fill="url(#SVGID_20_)" points="100.214,164.785 72.971,109.297 126.736,109.297 				"/>
				
					<linearGradient id="SVGID_21_" gradientUnits="userSpaceOnUse" x1="238.0566" y1="-667.041" x2="261.541" y2="-667.041" gradientTransform="matrix(1 0 0 -1 -150 -530)">
					<stop  offset="0" style="stop-color:#FF0A00"/>
					<stop  offset="1" style="stop-color:#860A00"/>
				</linearGradient>
				<polygon fill="url(#SVGID_21_)" points="88.057,109.297 100.214,164.785 111.541,109.297 				"/>
				
					<linearGradient id="SVGID_22_" gradientUnits="userSpaceOnUse" x1="48.3486" y1="-597.7471" x2="63.5723" y2="-597.7471" gradientTransform="matrix(-1 0 0 -1 213.6348 -530)">
					<stop  offset="0" style="stop-color:#FF0A00"/>
					<stop  offset="1" style="stop-color:#860A00"/>
				</linearGradient>
				<polygon fill="url(#SVGID_22_)" points="165.286,87.415 159.426,57.839 150.062,48.079 152.307,68.308 				"/>
				
					<linearGradient id="SVGID_23_" gradientUnits="userSpaceOnUse" x1="303.0361" y1="-602.627" x2="315.2861" y2="-602.627" gradientTransform="matrix(1 0 0 -1 -150 -530)">
					<stop  offset="0" style="stop-color:#FF0A00"/>
					<stop  offset="1" style="stop-color:#860A00"/>
				</linearGradient>
				<polygon fill="url(#SVGID_23_)" points="165.286,87.415 159.426,57.839 153.036,69.381 				"/>
				
					<linearGradient id="SVGID_24_" gradientUnits="userSpaceOnUse" x1="342.2412" y1="-572.1436" x2="354.2646" y2="-568.6752" gradientTransform="matrix(1 0 0 -1 -150 -530)">
					<stop  offset="0" style="stop-color:#FF0A00"/>
					<stop  offset="1" style="stop-color:#860A00"/>
				</linearGradient>
				<polygon fill="url(#SVGID_24_)" points="159.426,57.839 150.062,48.079 150.758,54.344 				"/>
				
					<linearGradient id="SVGID_25_" gradientUnits="userSpaceOnUse" x1="239.582" y1="-618.3794" x2="246.0573" y2="-624.8546" gradientTransform="matrix(1 0 0 -1 -150 -530)">
					<stop  offset="0" style="stop-color:#FFFFFF"/>
					<stop  offset="1" style="stop-color:#FF0A00;stop-opacity:0"/>
				</linearGradient>
				<polygon fill="url(#SVGID_25_)" points="126.736,109.297 72.971,109.297 77.66,83.441 122.169,83.441 				"/>
				
					<linearGradient id="SVGID_26_" gradientUnits="userSpaceOnUse" x1="239.0137" y1="-568.7559" x2="249.4513" y2="-589.6313" gradientTransform="matrix(1 0 0 -1 -150 -530)">
					<stop  offset="0" style="stop-color:#FFFFFF"/>
					<stop  offset="1" style="stop-color:#FF0A00;stop-opacity:0"/>
				</linearGradient>
				<polygon fill="url(#SVGID_26_)" points="77.31,83.441 47.4,68.308 49.964,48.079 78.25,34.118 122.004,34.118 150.062,48.079 
					152.307,68.308 122.169,83.441 				"/>
				
					<linearGradient id="SVGID_27_" gradientUnits="userSpaceOnUse" x1="230.7344" y1="-667.9424" x2="246.7695" y2="-665.4756" gradientTransform="matrix(1 0 0 -1 -150 -530)">
					<stop  offset="0" style="stop-color:#FFFFFF"/>
					<stop  offset="1" style="stop-color:#FF0A00;stop-opacity:0"/>
				</linearGradient>
				<polygon fill="url(#SVGID_27_)" points="100.214,164.785 72.971,109.297 126.736,109.297 				"/>
				
					<linearGradient id="SVGID_28_" gradientUnits="userSpaceOnUse" x1="199.0469" y1="-603.1841" x2="203.3631" y2="-610.5844" gradientTransform="matrix(1 0 0 -1 -150 -530)">
					<stop  offset="0" style="stop-color:#FFFFFF"/>
					<stop  offset="1" style="stop-color:#FF0A00;stop-opacity:0"/>
				</linearGradient>
				<polygon fill="url(#SVGID_28_)" points="34.714,87.415 72.971,109.297 77.66,83.441 47.54,68.125 				"/>
			</g>
		</g>
	</g>
</g>
</svg>
