<?xml version="1.0" encoding="utf-8"?>
<!-- Generator: Adobe Illustrator 15.0.0, SVG Export Plug-In . SVG Version: 6.00 Build 0)  -->
<!DOCTYPE svg PUBLIC "-//W3C//DTD SVG 1.1//EN" "http://www.w3.org/Graphics/SVG/1.1/DTD/svg11.dtd">
<svg version="1.1" id="Layer_1" xmlns="http://www.w3.org/2000/svg" xmlns:xlink="http://www.w3.org/1999/xlink" x="0px" y="0px"
	 width="200px" height="200px" viewBox="0 0 200 200" enable-background="new 0 0 200 200" xml:space="preserve">
<g id="icon">
	<g id="Layer_2">
	</g>
	<g id="Layer_1_1_">
		<g>
			<g>
				<polygon fill="#141414" points="55.813,151.863 91.474,162.843 127.346,145.246 109.766,106.02 92.619,123.245 91.453,142.503 
					72.379,144.268 				"/>
				<polygon fill="#3D3D3D" points="112.184,147.271 127.346,145.246 138.904,124.402 151.283,107.619 147.381,83.049 
					124.916,82.86 124.037,109.459 109.766,106.02 				"/>
				<polygon fill="#666666" points="130.633,46.295 139.006,64.671 147.381,83.049 129.127,111.594 112.107,111.355 109.766,106.02 
					105.828,86.213 114.795,70.651 111.833,56.987 				"/>
				<polygon fill="#616161" points="74.721,149.604 55.813,151.863 48.961,134.762 55.571,115.451 75.717,107.129 92.619,123.245 
					91.453,142.503 				"/>
				<polygon fill="#9C9C9C" points="112.107,111.355 92.619,123.245 73.936,118.061 66.826,112.768 55.571,115.451 55.221,94.123 
					68.125,75.251 88.587,70.299 114.795,70.651 105.828,86.213 				"/>
				<polygon fill="#6E6E6E" points="91.453,142.503 112.184,147.271 112.107,111.355 102.691,130.443 				"/>
				<polygon fill="#787878" points="55.571,115.451 66.826,112.768 76.137,96.608 88.444,89.351 88.587,70.299 69.301,54.404 
					54.958,60.49 48.717,76.026 54.996,89.809 				"/>
				<polygon fill="#8C8C8C" points="114.795,70.651 88.587,70.299 69.301,54.404 54.958,60.49 62.227,44.35 86.497,42.19 
					99.555,37.158 130.633,46.295 115.754,56.057 				"/>
			</g>
			<g opacity="0.47">
				
					<radialGradient id="SVGID_1_" cx="-1646.9443" cy="2185.7402" r="83.2566" gradientTransform="matrix(0.4992 -0.8665 0.635 0.3659 -458.9179 -2168.1721)" gradientUnits="userSpaceOnUse">
					<stop  offset="0" style="stop-color:#000000;stop-opacity:0"/>
					<stop  offset="1" style="stop-color:#000000"/>
				</radialGradient>
				<polygon fill="url(#SVGID_1_)" points="99.555,37.158 86.497,42.19 62.227,44.35 54.958,60.49 48.717,76.026 54.996,89.809 
					55.571,115.451 48.961,134.762 55.813,151.863 91.474,162.843 127.346,145.246 138.904,124.402 151.283,107.619 147.381,83.049 
					139.006,64.671 130.633,46.295 				"/>
			</g>
		</g>
	</g>
</g>
</svg>
