<?xml version="1.0" encoding="utf-8"?>
<!-- Generator: Adobe Illustrator 15.0.0, SVG Export Plug-In . SVG Version: 6.00 Build 0)  -->
<!DOCTYPE svg PUBLIC "-//W3C//DTD SVG 1.1//EN" "http://www.w3.org/Graphics/SVG/1.1/DTD/svg11.dtd">
<svg version="1.1" id="Layer_1" xmlns="http://www.w3.org/2000/svg" xmlns:xlink="http://www.w3.org/1999/xlink" x="0px" y="0px"
	 width="200px" height="200px" viewBox="0 0 200 200" enable-background="new 0 0 200 200" xml:space="preserve">
<g id="icon">
	<g id="Layer_2">
	</g>
	<g id="Layer_1_1_">
		<g>
			<g>
				
					<linearGradient id="SVGID_1_" gradientUnits="userSpaceOnUse" x1="280.1094" y1="1254.0264" x2="309.4222" y2="1330.5812" gradientTransform="matrix(1 0 0 1 -200 -1182)">
					<stop  offset="0" style="stop-color:#3B4653"/>
					<stop  offset="0.7301" style="stop-color:#000000"/>
					<stop  offset="0.8098" style="stop-color:#08090B"/>
					<stop  offset="1" style="stop-color:#3F4A5D"/>
				</linearGradient>
				<path fill="url(#SVGID_1_)" d="M116.471,45.495l-22.582,7.104L47.714,70.044l-2.185-1.021L31.018,78.05
					c-4.468,3.324-6.849,7.253-4.922,11.9l28.327,68.291c1.927,4.644,3.989,5.823,10.438,5.487l16.367-3.334l70.566-35.386
					c4.646-1.928,6.851-7.257,4.923-11.897L130.369,49.59C128.441,44.942,121.115,43.569,116.471,45.495z"/>
				<g>
					
						<linearGradient id="SVGID_2_" gradientUnits="userSpaceOnUse" x1="-460.5903" y1="-665.7402" x2="-458.644" y2="-651.3374" gradientTransform="matrix(0.9237 -0.3831 -0.3831 -0.9237 245.1514 -627.3023)">
						<stop  offset="0" style="stop-color:#8DA6C7"/>
						<stop  offset="0.7301" style="stop-color:#000000"/>
						<stop  offset="0.8098" style="stop-color:#08090B"/>
						<stop  offset="1" style="stop-color:#3F4A5D;stop-opacity:0"/>
					</linearGradient>
					<path fill="url(#SVGID_2_)" d="M51.301,147.002l9.184-2.479l14.362-2.268l13.177,6.078l2.688,4.307
						c-3.126,2.348-8.442,6.338-8.442,6.338l-16.008,3.623c-5.652,0.707-9.451-0.265-11.277-4.666l-2.383-5.746L51.301,147.002z"/>
				</g>
				<g>
					
						<linearGradient id="SVGID_3_" gradientUnits="userSpaceOnUse" x1="-227.085" y1="3361.7129" x2="-224.9456" y2="3377.5454" gradientTransform="matrix(0.963 -0.2695 0.2695 0.963 -650.674 -3229.1289)">
						<stop  offset="0.3436" style="stop-color:#8DA6C7"/>
						<stop  offset="0.8098" style="stop-color:#08090B;stop-opacity:0.27"/>
						<stop  offset="1" style="stop-color:#3F4A5D;stop-opacity:0"/>
					</linearGradient>
					<path fill="url(#SVGID_3_)" d="M29.637,99.384l8.752-3.727l12.691-7.094l6.605-12.922l-0.547-5.045
						c-3.908,0.086-10.695-1.816-10.695-1.816L31.76,77.874c-4.881,2.938-7.268,6.045-5.982,10.637l1.676,5.991L29.637,99.384z"/>
				</g>
				
					<linearGradient id="SVGID_4_" gradientUnits="userSpaceOnUse" x1="-402.562" y1="1886.3115" x2="-402.562" y2="1814.0609" gradientTransform="matrix(0.9276 -0.3738 0.3831 0.9237 -208.6849 -1720.668)">
					<stop  offset="0" style="stop-color:#D9FFFF"/>
					<stop  offset="0.2107" style="stop-color:#9CB7B7"/>
					<stop  offset="0.4216" style="stop-color:#657777"/>
					<stop  offset="0.6138" style="stop-color:#3A4444"/>
					<stop  offset="0.7803" style="stop-color:#1A1F1F"/>
					<stop  offset="0.9147" style="stop-color:#070808"/>
					<stop  offset="1" style="stop-color:#000000"/>
				</linearGradient>
				<path opacity="0.43" fill="url(#SVGID_4_)" enable-background="new    " d="M169.624,116.537l-87.723,40.038
					c-3.511,1.604-7.951-0.941-9.917-5.683l1.163,2.806c1.966,4.737,6.404,7.278,9.91,5.665l87.638-40.245
					c3.507-1.611,4.893-6.435,3.096-10.771l-1.066-2.566C174.523,110.119,173.137,114.936,169.624,116.537z"/>
				
					<radialGradient id="SVGID_5_" cx="-332.2456" cy="1786.4365" r="117.7735" gradientTransform="matrix(0.7848 -0.3162 0.3831 0.9237 -295.0192 -1685.4056)" gradientUnits="userSpaceOnUse">
					<stop  offset="0" style="stop-color:#D2FFFF"/>
					<stop  offset="1" style="stop-color:#000000"/>
				</radialGradient>
				<path fill="url(#SVGID_5_)" d="M51.732,76.452l-8.543,3.222l30.223,72.862l8.326-3.744c4.312-1.938,5.449-9.188,2.545-16.19
					L65,86.11C62.096,79.108,56.157,74.784,51.732,76.452z"/>
				
					<linearGradient id="SVGID_6_" gradientUnits="userSpaceOnUse" x1="-457.0439" y1="1803.541" x2="-439.3623" y2="1803.541" gradientTransform="matrix(0.9276 -0.3738 0.3831 0.9237 -208.6849 -1720.668)">
					<stop  offset="0" style="stop-color:#D9FFFF"/>
					<stop  offset="0.0037" style="stop-color:#D1F6F6"/>
					<stop  offset="0.0241" style="stop-color:#AAC8C8"/>
					<stop  offset="0.0471" style="stop-color:#859D9D"/>
					<stop  offset="0.0718" style="stop-color:#657777"/>
					<stop  offset="0.0987" style="stop-color:#4A5757"/>
					<stop  offset="0.1284" style="stop-color:#333B3B"/>
					<stop  offset="0.1619" style="stop-color:#202525"/>
					<stop  offset="0.2011" style="stop-color:#111414"/>
					<stop  offset="0.2495" style="stop-color:#070909"/>
					<stop  offset="0.3175" style="stop-color:#020202"/>
					<stop  offset="0.506" style="stop-color:#000000"/>
				</linearGradient>
				<path opacity="0.68" fill="url(#SVGID_6_)" enable-background="new    " d="M51.732,76.452l-8.543,3.222l30.223,72.862
					l8.326-3.744c4.312-1.938,5.449-9.188,2.545-16.19L65,86.11C62.096,79.108,56.157,74.784,51.732,76.452z"/>
				
					<linearGradient id="SVGID_7_" gradientUnits="userSpaceOnUse" x1="284.1602" y1="1231.7568" x2="337.6599" y2="1332.2567" gradientTransform="matrix(1 0 0 1 -200 -1182)">
					<stop  offset="0" style="stop-color:#8DA6C7"/>
					<stop  offset="0.7301" style="stop-color:#000000"/>
					<stop  offset="0.8098" style="stop-color:#08090B"/>
					<stop  offset="1" style="stop-color:#3F4A5D"/>
				</linearGradient>
				<path fill="url(#SVGID_7_)" d="M136.049,35.591L45.612,69.089c-3.621,1.336-4.964,6.261-2.997,11.003l30.532,73.606
					c1.966,4.737,6.404,7.278,9.91,5.666l87.638-40.246c3.507-1.611,4.893-6.435,3.096-10.771l-27.934-67.343
					C144.059,36.667,139.666,34.244,136.049,35.591z"/>
				
					<linearGradient id="SVGID_8_" gradientUnits="userSpaceOnUse" x1="245.0352" y1="1252.9863" x2="295.7947" y2="1348.3381" gradientTransform="matrix(1 0 0 1 -200 -1182)">
					<stop  offset="0" style="stop-color:#5F7086"/>
					<stop  offset="0.7301" style="stop-color:#000000"/>
					<stop  offset="0.8098" style="stop-color:#08090B"/>
					<stop  offset="1" style="stop-color:#3F4A5D"/>
				</linearGradient>
				<path fill="url(#SVGID_8_)" d="M59.18,64.661l-14.567,5.428c-3.621,1.336-4.964,6.261-2.997,11.003l30.532,73.606
					c1.966,4.737,6.404,6.764,9.91,5.149l13.079-6.009L59.18,64.661z"/>
				<polygon points="57.686,64.616 94.086,154.325 95.137,153.843 58.979,64.138 				"/>
				
					<linearGradient id="SVGID_9_" gradientUnits="userSpaceOnUse" x1="260.3838" y1="1262.5615" x2="280.3837" y2="1362.2281" gradientTransform="matrix(1 0 0 1 -200 -1182)">
					<stop  offset="0" style="stop-color:#8DA6C7"/>
					<stop  offset="0.7301" style="stop-color:#000000"/>
					<stop  offset="0.8098" style="stop-color:#08090B"/>
					<stop  offset="1" style="stop-color:#3F4A5D"/>
				</linearGradient>
				<path fill="url(#SVGID_9_)" d="M42.869,71.531l14.566-5.427l35.57,88.221l1.051-0.482L58.1,64.661l-14.567,5.428
					c-1.678,0.619-2.858,2.014-3.456,3.799C40.738,72.805,41.678,71.971,42.869,71.531z"/>
				
					<radialGradient id="SVGID_10_" cx="-443.6567" cy="1755.3105" r="84.0885" gradientTransform="matrix(0.9237 -0.3831 0.3831 0.9237 -210.7865 -1724.8413)" gradientUnits="userSpaceOnUse">
					<stop  offset="0.1446" style="stop-color:#D2FFFF"/>
					<stop  offset="0.2545" style="stop-color:#A9CECE"/>
					<stop  offset="0.4071" style="stop-color:#779090"/>
					<stop  offset="0.5536" style="stop-color:#4C5D5D"/>
					<stop  offset="0.69" style="stop-color:#2B3434"/>
					<stop  offset="0.8139" style="stop-color:#141818"/>
					<stop  offset="0.9213" style="stop-color:#050606"/>
					<stop  offset="1" style="stop-color:#000000"/>
				</radialGradient>
				<path fill="url(#SVGID_10_)" d="M106.488,60.53c-0.959,0.221-9.328,4.734-9.792,4.953c-12.281,5.82-16.725,23.193-9.863,39.733
					c6.66,16.058,21.403,25.14,33.972,21.474c0.864-0.25,10.932-2.814,12.262-3.845c9.752-7.534,7.593-22.955,1.582-37.442
					C128.298,70.095,119.238,57.599,106.488,60.53z"/>
				
					<linearGradient id="SVGID_11_" gradientUnits="userSpaceOnUse" x1="307.8174" y1="1268.4873" x2="314.5672" y2="1288.4866" gradientTransform="matrix(1 0 0 1 -200 -1182)">
					<stop  offset="0" style="stop-color:#8DA6C7"/>
					<stop  offset="0.7301" style="stop-color:#000000"/>
					<stop  offset="0.8098" style="stop-color:#08090B"/>
					<stop  offset="1" style="stop-color:#3F4A5D"/>
				</linearGradient>
				<path fill="url(#SVGID_11_)" d="M106.488,60.53c-0.959,0.221-9.328,4.734-9.792,4.953c-12.281,5.82-16.725,23.193-9.863,39.733
					c6.66,16.058,21.403,25.14,33.972,21.474c0.864-0.25,10.932-2.814,12.262-3.845c9.752-7.534,7.593-22.955,1.582-37.442
					C128.298,70.095,119.238,57.599,106.488,60.53z"/>
				<path fill="none" stroke="#000000" d="M106.488,60.53c-0.959,0.221-9.328,4.734-9.792,4.953
					c-12.281,5.82-16.725,23.193-9.863,39.733c6.66,16.058,21.403,25.14,33.972,21.474c0.864-0.25,10.932-2.814,12.262-3.845
					c9.752-7.534,7.593-22.955,1.582-37.442C128.298,70.095,119.238,57.599,106.488,60.53z"/>
				<path d="M125.254,125.383c-12.99,3.79-27.854-5.564-34.572-21.763c-6.917-16.677-2.475-34.412,10.113-40.376l0.428,0.903
					c-12.104,5.736-16.33,22.906-9.617,39.089c6.523,15.727,20.869,24.834,33.369,21.187L125.254,125.383L125.254,125.383z"/>
				
					<linearGradient id="SVGID_12_" gradientUnits="userSpaceOnUse" x1="320.3262" y1="1272.9277" x2="350.8261" y2="1347.4277" gradientTransform="matrix(1 0 0 1 -200 -1182)">
					<stop  offset="0" style="stop-color:#8DA6C7"/>
					<stop  offset="0.7301" style="stop-color:#000000"/>
					<stop  offset="0.8098" style="stop-color:#08090B"/>
					<stop  offset="1" style="stop-color:#3F4A5D"/>
				</linearGradient>
				<path fill="url(#SVGID_12_)" d="M107.5,60.009c-13.715,5.259-18.905,23.812-11.592,41.443
					c7.312,17.633,24.117,27.077,37.533,21.096c13.416-5.979,18.604-24.537,11.588-41.451
					C138.016,64.185,121.215,54.747,107.5,60.009z M130.246,114.846c-10.137,4.442-22.805-2.676-28.289-15.896
					c-5.483-13.22-1.57-27.205,8.738-31.234c10.307-4.033,22.971,3.081,28.285,15.893
					C144.297,96.42,140.385,110.405,130.246,114.846z"/>
				
					<radialGradient id="SVGID_13_" cx="-389.7769" cy="1804.4775" r="26.7937" gradientTransform="matrix(0.9237 -0.3831 0.3831 0.9237 -210.7865 -1724.8413)" gradientUnits="userSpaceOnUse">
					<stop  offset="0" style="stop-color:#FFFFFF"/>
					<stop  offset="1" style="stop-color:#000000"/>
				</radialGradient>
				<path fill="url(#SVGID_13_)" d="M109.055,63.755c-12.056,4.668-16.623,21-10.203,36.479
					c6.421,15.482,21.212,23.795,33.035,18.568c11.824-5.227,16.391-21.562,10.201-36.486
					C135.898,67.396,121.109,59.087,109.055,63.755z"/>
				
					<radialGradient id="SVGID_14_" cx="-389.7764" cy="1804.4785" r="26.5844" gradientTransform="matrix(0.9237 -0.3831 0.3831 0.9237 -210.7865 -1724.8413)" gradientUnits="userSpaceOnUse">
					<stop  offset="0" style="stop-color:#8DA6C7"/>
					<stop  offset="0.7301" style="stop-color:#000000"/>
					<stop  offset="0.8098" style="stop-color:#08090B"/>
					<stop  offset="1" style="stop-color:#3F4A5D"/>
				</radialGradient>
				<path fill="url(#SVGID_14_)" d="M109.145,63.971c-11.958,4.634-16.494,20.835-10.124,36.192
					c6.37,15.356,21.045,23.606,32.777,18.424c11.731-5.187,16.265-21.391,10.122-36.201
					C135.777,67.579,121.104,59.337,109.145,63.971z"/>
				
					<radialGradient id="SVGID_15_" cx="-390.3848" cy="1804.4775" r="24.9047" gradientTransform="matrix(0.9237 -0.3831 0.3831 0.9237 -210.7865 -1724.8413)" gradientUnits="userSpaceOnUse">
					<stop  offset="0" style="stop-color:#8DA6C7"/>
					<stop  offset="0.7301" style="stop-color:#000000"/>
					<stop  offset="0.8098" style="stop-color:#08090B"/>
					<stop  offset="1" style="stop-color:#3F4A5D"/>
				</radialGradient>
				<path fill="url(#SVGID_15_)" d="M109.299,65.926c-11.198,4.357-15.444,19.538-9.484,33.909
					c5.962,14.373,19.71,22.101,30.708,17.261c10.998-4.842,15.244-20.021,9.479-33.915
					C134.244,69.292,120.497,61.566,109.299,65.926z"/>
				
					<radialGradient id="SVGID_16_" cx="-391.0293" cy="1804.4785" r="23.1528" gradientTransform="matrix(0.9237 -0.3831 0.3831 0.9237 -210.7865 -1724.8413)" gradientUnits="userSpaceOnUse">
					<stop  offset="0" style="stop-color:#8DA6C7"/>
					<stop  offset="0.7301" style="stop-color:#000000"/>
					<stop  offset="0.8098" style="stop-color:#08090B"/>
					<stop  offset="1" style="stop-color:#3F4A5D"/>
				</radialGradient>
				<path fill="url(#SVGID_16_)" d="M109.381,67.811c-10.291,4.016-14.113,18.161-8.539,31.599
					c5.574,13.439,18.291,20.736,28.406,16.297c10.113-4.438,13.938-18.588,8.537-31.605
					C132.387,71.086,119.669,63.792,109.381,67.811z"/>
				<g>
					
						<radialGradient id="SVGID_17_" cx="-391.7144" cy="1804.4775" r="21.4322" gradientTransform="matrix(0.9237 -0.3831 0.3831 0.9237 -210.7865 -1724.8413)" gradientUnits="userSpaceOnUse">
						<stop  offset="0.2892" style="stop-color:#B5B5B5"/>
						<stop  offset="0.3849" style="stop-color:#B0B0B0"/>
						<stop  offset="0.4995" style="stop-color:#A1A1A1"/>
						<stop  offset="0.6238" style="stop-color:#898989"/>
						<stop  offset="0.755" style="stop-color:#676767"/>
						<stop  offset="0.8902" style="stop-color:#3D3D3D"/>
						<stop  offset="1" style="stop-color:#141414"/>
					</radialGradient>
					<path fill="url(#SVGID_17_)" d="M109.465,69.796c-9.479,3.715-12.977,16.823-7.811,29.277
						c5.166,12.457,16.918,19.249,26.246,15.171s12.822-17.188,7.807-29.282C130.691,72.872,118.943,66.083,109.465,69.796z"/>
					
						<linearGradient id="SVGID_18_" gradientUnits="userSpaceOnUse" x1="350.6953" y1="1239.5303" x2="244.9547" y2="1353.0199" gradientTransform="matrix(1 0 0 1 -200 -1182)">
						<stop  offset="0" style="stop-color:#8DA6C7"/>
						<stop  offset="0.7301" style="stop-color:#000000"/>
						<stop  offset="0.8098" style="stop-color:#08090B"/>
						<stop  offset="1" style="stop-color:#3F4A5D"/>
					</linearGradient>
					<path fill="url(#SVGID_18_)" d="M109.465,69.796c-9.479,3.715-12.977,16.823-7.811,29.277
						c5.166,12.457,16.918,19.249,26.246,15.171s12.822-17.188,7.807-29.282C130.691,72.872,118.943,66.083,109.465,69.796z"/>
					<g>
						
							<radialGradient id="SVGID_19_" cx="-409.8994" cy="1805.834" r="20.0404" gradientTransform="matrix(0.9237 -0.3831 0.3831 0.9237 -210.7865 -1724.8413)" gradientUnits="userSpaceOnUse">
							<stop  offset="0" style="stop-color:#472D60"/>
							<stop  offset="1" style="stop-color:#000D1E"/>
						</radialGradient>
						<path fill="url(#SVGID_19_)" d="M109.611,71.651c-8.995,3.544-12.413,15.76-7.631,27.287
							c4.781,11.527,15.846,17.748,24.711,13.891c8.867-3.856,12.283-16.075,7.631-27.292
							C129.67,74.323,118.607,68.106,109.611,71.651z"/>
					</g>
					
						<radialGradient id="SVGID_20_" cx="339.5967" cy="1319.9209" r="34.4207" gradientTransform="matrix(0.9911 -0.0114 -0.0114 0.9853 -214.7261 -1200.9932)" gradientUnits="userSpaceOnUse">
						<stop  offset="0.1595" style="stop-color:#28FFFF"/>
						<stop  offset="0.8466" style="stop-color:#000000;stop-opacity:0"/>
					</radialGradient>
					<path fill="url(#SVGID_20_)" d="M131.201,80.401c-6.771-9.838-18.118-12.783-25.303-6.49
						c-7.167,6.342-7.363,19.762-0.476,29.892c6.872,10.079,18.134,12.812,25.181,6.182
						C137.672,103.402,137.955,90.196,131.201,80.401z"/>
					
						<linearGradient id="SVGID_21_" gradientUnits="userSpaceOnUse" x1="324.4297" y1="1277.8721" x2="332.2629" y2="1283.0389" gradientTransform="matrix(1 0 0 1 -200 -1182)">
						<stop  offset="0" style="stop-color:#86FF97;stop-opacity:0"/>
						<stop  offset="1" style="stop-color:#00C0FF"/>
					</linearGradient>
					<path opacity="0.71" fill="url(#SVGID_21_)" enable-background="new    " d="M125.236,79.407
						c-6.668-1.569-12.854,4.223-13.774,13.007c-0.907,8.835,3.767,17.27,10.405,18.768c6.628,1.461,12.734-4.511,13.668-13.271
						C136.486,89.19,131.893,80.938,125.236,79.407z"/>
					
						<radialGradient id="SVGID_22_" cx="597.3984" cy="393.2598" r="24.8057" gradientTransform="matrix(0.8747 0.4702 -0.2361 0.8404 -303.2349 -536.3303)" gradientUnits="userSpaceOnUse">
						<stop  offset="0" style="stop-color:#B1FFFF"/>
						<stop  offset="1" style="stop-color:#008BFF"/>
					</radialGradient>
					<path opacity="0.71" fill="url(#SVGID_22_)" enable-background="new    " d="M122.293,86.39
						c0.465-2.564-1.768-10.841-3.332-12.776c-5.372-0.706-10.043,1.572-12.82,5.769c2.487,2.622,6.938,6.598,9.803,9.591
						C117.332,87.286,118.924,85.811,122.293,86.39z"/>
					
						<radialGradient id="SVGID_23_" cx="-344.8408" cy="1818.1836" r="41.5511" gradientTransform="matrix(0.7848 -0.3162 0.3831 0.9237 -295.0192 -1685.4056)" gradientUnits="userSpaceOnUse">
						<stop  offset="0" style="stop-color:#83FFFF"/>
						<stop  offset="1" style="stop-color:#2368FF"/>
					</radialGradient>
					<path opacity="0.26" fill="url(#SVGID_23_)" enable-background="new    " d="M130.507,81.284
						c-0.782-1.121-1.626-2.138-2.522-3.057c5.324,8.926,4.652,20.273-1.766,26.091c-5.938,5.427-14.883,4.166-21.34-2.535
						c0.307,0.519,0.624,1.033,0.971,1.535c6.436,9.328,17.104,11.796,23.854,5.578C136.471,102.714,136.844,90.384,130.507,81.284z
						"/>
				</g>
				
					<radialGradient id="SVGID_24_" cx="-349.4932" cy="1896.207" r="92.7225" gradientTransform="matrix(0.7848 -0.3162 0.3831 0.9237 -295.0192 -1685.4056)" gradientUnits="userSpaceOnUse">
					<stop  offset="0" style="stop-color:#FFFFFF"/>
					<stop  offset="1" style="stop-color:#000000"/>
				</radialGradient>
				<path fill="url(#SVGID_24_)" d="M132.801,121.005c-13.164,5.853-29.6-3.203-37.051-20.258c0.104,0.267,0.202,0.532,0.312,0.795
					c7.284,17.562,24.021,26.963,37.379,21.008c13.358-5.957,18.531-24.44,11.543-41.286c-0.104-0.255-0.221-0.499-0.33-0.749
					C151.176,97.146,145.969,115.157,132.801,121.005z"/>
				<g>
					<polygon points="144.172,48.213 140.13,38.518 119.674,46.808 123.812,56.731 					"/>
					<polygon fill="#717171" points="143.673,47.833 140.048,39.14 120.18,47.204 123.889,56.097 					"/>
					
						<linearGradient id="SVGID_25_" gradientUnits="userSpaceOnUse" x1="-66.8857" y1="1794.9629" x2="-66.8857" y2="1802.4742" gradientTransform="matrix(0.6892 -0.3222 0.3889 0.9325 -521.2906 -1650.8381)">
						<stop  offset="0" style="stop-color:#F0F0F0"/>
						<stop  offset="1" style="stop-color:#9A9A9A"/>
					</linearGradient>
					<polygon fill="url(#SVGID_25_)" points="142.729,47.254 139.791,40.213 121.135,47.805 124.137,55.001 					"/>
					
						<linearGradient id="SVGID_26_" gradientUnits="userSpaceOnUse" x1="-92.7158" y1="1783.4922" x2="-89.4659" y2="1784.9921" gradientTransform="matrix(0.6892 -0.3222 0.3889 0.9325 -521.2906 -1650.8342)">
						<stop  offset="0" style="stop-color:#FFFFFF"/>
						<stop  offset="0.4699" style="stop-color:#FFFFFF"/>
						<stop  offset="0.4878" style="stop-color:#FDFDFD"/>
						<stop  offset="0.4943" style="stop-color:#F6F6F6"/>
						<stop  offset="0.4989" style="stop-color:#EBEBEB"/>
						<stop  offset="0.5026" style="stop-color:#DADADA"/>
						<stop  offset="0.5058" style="stop-color:#C4C4C4"/>
						<stop  offset="0.5087" style="stop-color:#A8A8A8"/>
						<stop  offset="0.5112" style="stop-color:#888888"/>
						<stop  offset="0.5136" style="stop-color:#626262"/>
						<stop  offset="0.5158" style="stop-color:#373737"/>
						<stop  offset="0.5177" style="stop-color:#090909"/>
						<stop  offset="0.5181" style="stop-color:#000000"/>
						<stop  offset="0.521" style="stop-color:#030303"/>
						<stop  offset="0.5788" style="stop-color:#3D3D3D"/>
						<stop  offset="0.6381" style="stop-color:#717171"/>
						<stop  offset="0.6975" style="stop-color:#9D9D9D"/>
						<stop  offset="0.757" style="stop-color:#C0C0C0"/>
						<stop  offset="0.8168" style="stop-color:#DCDCDC"/>
						<stop  offset="0.877" style="stop-color:#EFEFEF"/>
						<stop  offset="0.9377" style="stop-color:#FBFBFB"/>
						<stop  offset="1" style="stop-color:#FFFFFF"/>
					</linearGradient>
					<polygon fill="url(#SVGID_26_)" points="140.012,41.632 122.04,48.976 121.732,48.239 139.709,40.907 					"/>
					
						<linearGradient id="SVGID_27_" gradientUnits="userSpaceOnUse" x1="-93.2788" y1="1784.7031" x2="-90.0287" y2="1786.2031" gradientTransform="matrix(0.6892 -0.3222 0.3889 0.9325 -521.2906 -1650.8342)">
						<stop  offset="0" style="stop-color:#FFFFFF"/>
						<stop  offset="0.4699" style="stop-color:#FFFFFF"/>
						<stop  offset="0.4878" style="stop-color:#FDFDFD"/>
						<stop  offset="0.4943" style="stop-color:#F6F6F6"/>
						<stop  offset="0.4989" style="stop-color:#EBEBEB"/>
						<stop  offset="0.5026" style="stop-color:#DADADA"/>
						<stop  offset="0.5058" style="stop-color:#C4C4C4"/>
						<stop  offset="0.5087" style="stop-color:#A8A8A8"/>
						<stop  offset="0.5112" style="stop-color:#888888"/>
						<stop  offset="0.5136" style="stop-color:#626262"/>
						<stop  offset="0.5158" style="stop-color:#373737"/>
						<stop  offset="0.5177" style="stop-color:#090909"/>
						<stop  offset="0.5181" style="stop-color:#000000"/>
						<stop  offset="0.521" style="stop-color:#030303"/>
						<stop  offset="0.5788" style="stop-color:#3D3D3D"/>
						<stop  offset="0.6381" style="stop-color:#717171"/>
						<stop  offset="0.6975" style="stop-color:#9D9D9D"/>
						<stop  offset="0.757" style="stop-color:#C0C0C0"/>
						<stop  offset="0.8168" style="stop-color:#DCDCDC"/>
						<stop  offset="0.877" style="stop-color:#EFEFEF"/>
						<stop  offset="0.9377" style="stop-color:#FBFBFB"/>
						<stop  offset="1" style="stop-color:#FFFFFF"/>
					</linearGradient>
					<polygon fill="url(#SVGID_27_)" points="140.578,42.989 122.618,50.362 122.311,49.626 140.275,42.266 					"/>
					
						<linearGradient id="SVGID_28_" gradientUnits="userSpaceOnUse" x1="-93.874" y1="1785.998" x2="-90.6244" y2="1787.4978" gradientTransform="matrix(0.6892 -0.3222 0.3889 0.9325 -521.2906 -1650.8342)">
						<stop  offset="0" style="stop-color:#FFFFFF"/>
						<stop  offset="0.4699" style="stop-color:#FFFFFF"/>
						<stop  offset="0.4878" style="stop-color:#FDFDFD"/>
						<stop  offset="0.4943" style="stop-color:#F6F6F6"/>
						<stop  offset="0.4989" style="stop-color:#EBEBEB"/>
						<stop  offset="0.5026" style="stop-color:#DADADA"/>
						<stop  offset="0.5058" style="stop-color:#C4C4C4"/>
						<stop  offset="0.5087" style="stop-color:#A8A8A8"/>
						<stop  offset="0.5112" style="stop-color:#888888"/>
						<stop  offset="0.5136" style="stop-color:#626262"/>
						<stop  offset="0.5158" style="stop-color:#373737"/>
						<stop  offset="0.5177" style="stop-color:#090909"/>
						<stop  offset="0.5181" style="stop-color:#000000"/>
						<stop  offset="0.521" style="stop-color:#030303"/>
						<stop  offset="0.5788" style="stop-color:#3D3D3D"/>
						<stop  offset="0.6381" style="stop-color:#717171"/>
						<stop  offset="0.6975" style="stop-color:#9D9D9D"/>
						<stop  offset="0.757" style="stop-color:#C0C0C0"/>
						<stop  offset="0.8168" style="stop-color:#DCDCDC"/>
						<stop  offset="0.877" style="stop-color:#EFEFEF"/>
						<stop  offset="0.9377" style="stop-color:#FBFBFB"/>
						<stop  offset="1" style="stop-color:#FFFFFF"/>
					</linearGradient>
					<polygon fill="url(#SVGID_28_)" points="141.182,44.438 123.234,51.841 122.927,51.103 140.879,43.714 					"/>
					
						<linearGradient id="SVGID_29_" gradientUnits="userSpaceOnUse" x1="-94.4346" y1="1787.2109" x2="-91.1846" y2="1788.7109" gradientTransform="matrix(0.6892 -0.3222 0.3889 0.9325 -521.2906 -1650.8342)">
						<stop  offset="0" style="stop-color:#FFFFFF"/>
						<stop  offset="0.4699" style="stop-color:#FFFFFF"/>
						<stop  offset="0.4878" style="stop-color:#FDFDFD"/>
						<stop  offset="0.4943" style="stop-color:#F6F6F6"/>
						<stop  offset="0.4989" style="stop-color:#EBEBEB"/>
						<stop  offset="0.5026" style="stop-color:#DADADA"/>
						<stop  offset="0.5058" style="stop-color:#C4C4C4"/>
						<stop  offset="0.5087" style="stop-color:#A8A8A8"/>
						<stop  offset="0.5112" style="stop-color:#888888"/>
						<stop  offset="0.5136" style="stop-color:#626262"/>
						<stop  offset="0.5158" style="stop-color:#373737"/>
						<stop  offset="0.5177" style="stop-color:#090909"/>
						<stop  offset="0.5181" style="stop-color:#000000"/>
						<stop  offset="0.521" style="stop-color:#030303"/>
						<stop  offset="0.5788" style="stop-color:#3D3D3D"/>
						<stop  offset="0.6381" style="stop-color:#717171"/>
						<stop  offset="0.6975" style="stop-color:#9D9D9D"/>
						<stop  offset="0.757" style="stop-color:#C0C0C0"/>
						<stop  offset="0.8168" style="stop-color:#DCDCDC"/>
						<stop  offset="0.877" style="stop-color:#EFEFEF"/>
						<stop  offset="0.9377" style="stop-color:#FBFBFB"/>
						<stop  offset="1" style="stop-color:#FFFFFF"/>
					</linearGradient>
					<polygon fill="url(#SVGID_29_)" points="141.748,45.798 123.812,53.229 123.504,52.487 141.445,45.072 					"/>
					
						<linearGradient id="SVGID_30_" gradientUnits="userSpaceOnUse" x1="-94.9629" y1="1788.3398" x2="-91.712" y2="1789.8403" gradientTransform="matrix(0.6892 -0.3222 0.3889 0.9325 -521.2906 -1650.8342)">
						<stop  offset="0" style="stop-color:#FFFFFF"/>
						<stop  offset="0.4699" style="stop-color:#FFFFFF"/>
						<stop  offset="0.4878" style="stop-color:#FDFDFD"/>
						<stop  offset="0.4943" style="stop-color:#F6F6F6"/>
						<stop  offset="0.4989" style="stop-color:#EBEBEB"/>
						<stop  offset="0.5026" style="stop-color:#DADADA"/>
						<stop  offset="0.5058" style="stop-color:#C4C4C4"/>
						<stop  offset="0.5087" style="stop-color:#A8A8A8"/>
						<stop  offset="0.5112" style="stop-color:#888888"/>
						<stop  offset="0.5136" style="stop-color:#626262"/>
						<stop  offset="0.5158" style="stop-color:#373737"/>
						<stop  offset="0.5177" style="stop-color:#090909"/>
						<stop  offset="0.5181" style="stop-color:#000000"/>
						<stop  offset="0.521" style="stop-color:#030303"/>
						<stop  offset="0.5788" style="stop-color:#3D3D3D"/>
						<stop  offset="0.6381" style="stop-color:#717171"/>
						<stop  offset="0.6975" style="stop-color:#9D9D9D"/>
						<stop  offset="0.757" style="stop-color:#C0C0C0"/>
						<stop  offset="0.8168" style="stop-color:#DCDCDC"/>
						<stop  offset="0.877" style="stop-color:#EFEFEF"/>
						<stop  offset="0.9377" style="stop-color:#FBFBFB"/>
						<stop  offset="1" style="stop-color:#FFFFFF"/>
					</linearGradient>
					<polygon fill="url(#SVGID_30_)" points="142.277,47.063 124.354,54.522 124.045,53.783 141.975,46.339 					"/>
				</g>
				<path d="M76.965,67.319c-0.586-1.411-0.162-2.889,0.943-3.306c1.106-0.415,2.476,0.386,3.059,1.79
					c0.584,1.408,0.16,2.889-0.944,3.308C78.918,69.532,77.549,68.729,76.965,67.319z"/>
			</g>
		</g>
	</g>
</g>
</svg>
