<?xml version="1.0" encoding="utf-8"?>
<!-- Generator: Adobe Illustrator 15.0.0, SVG Export Plug-In . SVG Version: 6.00 Build 0)  -->
<!DOCTYPE svg PUBLIC "-//W3C//DTD SVG 1.1//EN" "http://www.w3.org/Graphics/SVG/1.1/DTD/svg11.dtd">
<svg version="1.1" id="Layer_1" xmlns="http://www.w3.org/2000/svg" xmlns:xlink="http://www.w3.org/1999/xlink" x="0px" y="0px"
	 width="200px" height="200px" viewBox="0 0 200 200" enable-background="new 0 0 200 200" xml:space="preserve">
<g id="icon">
	<g id="Layer_2">
	</g>
	<g id="Layer_1_1_">
		<g>
			
				<linearGradient id="SVGID_1_" gradientUnits="userSpaceOnUse" x1="323.1816" y1="1291.6299" x2="266.4567" y2="1181.3904" gradientTransform="matrix(1 0 0 1 -200 -1182)">
				<stop  offset="0.1779" style="stop-color:#FFFFFF"/>
				<stop  offset="0.7914" style="stop-color:#687D9F"/>
			</linearGradient>
			<polygon fill="url(#SVGID_1_)" points="132.277,33.233 160.723,53.131 68.306,100.294 39.276,76.023 64.854,64.254 
				72.935,71.274 72.673,60.657 104.441,46.04 112.449,54.199 113.355,41.938 			"/>
			
				<linearGradient id="SVGID_2_" gradientUnits="userSpaceOnUse" x1="291.3535" y1="1253.9824" x2="367.1607" y2="1389.9296" gradientTransform="matrix(1 0 0 1 -200 -1182)">
				<stop  offset="0.3129" style="stop-color:#FFFFFF"/>
				<stop  offset="1" style="stop-color:#687D9F"/>
			</linearGradient>
			<polygon fill="url(#SVGID_2_)" points="68.306,100.294 68.805,174.799 157.258,125.468 160.723,53.131 			"/>
			
				<rect x="135.612" y="36.512" transform="matrix(0.4357 0.9001 -0.9001 0.4357 118.6744 -96.137)" opacity="0.2" fill="#1E2B38" enable-background="new    " width="0.802" height="20.141"/>
			
				<linearGradient id="SVGID_3_" gradientUnits="userSpaceOnUse" x1="200.9238" y1="1353.2158" x2="366.1872" y2="1210.7013" gradientTransform="matrix(1 0 0 1 -200 -1182)">
				<stop  offset="0" style="stop-color:#6A7D95"/>
				<stop  offset="1" style="stop-color:#6D7D9D"/>
			</linearGradient>
			<polygon fill="url(#SVGID_3_)" points="39.276,76.023 42.198,149.535 68.805,174.799 68.306,100.294 			"/>
			
				<linearGradient id="SVGID_4_" gradientUnits="userSpaceOnUse" x1="188.3672" y1="1263.1328" x2="178.1091" y2="1277.0546" gradientTransform="matrix(1.0102 -0.0029 0.1148 0.9896 -211.8108 -1184.1282)">
				<stop  offset="0" style="stop-color:#FF0000"/>
				<stop  offset="0.1674" style="stop-color:#F60000"/>
				<stop  offset="0.4388" style="stop-color:#DE0000"/>
				<stop  offset="0.7785" style="stop-color:#B70000"/>
				<stop  offset="1" style="stop-color:#9A0000"/>
			</linearGradient>
			<path fill="url(#SVGID_4_)" d="M138.043,55.302c-0.787,0.424-1.982,0.357-2.664-0.146l-12.031-8.98
				c-0.693-0.519-0.602-1.256,0.205-1.645l7.713-3.731c0.805-0.391,2.021-0.287,2.715,0.231l11.781,8.545
				c0.688,0.505,0.604,1.258-0.188,1.682L138.043,55.302z"/>
			
				<linearGradient id="SVGID_5_" gradientUnits="userSpaceOnUse" x1="294.4092" y1="1232.1191" x2="289.3255" y2="1242.8213" gradientTransform="matrix(1 0 0 1 -200 -1182)">
				<stop  offset="0" style="stop-color:#FF0000"/>
				<stop  offset="0.1674" style="stop-color:#F60000"/>
				<stop  offset="0.4388" style="stop-color:#DE0000"/>
				<stop  offset="0.7785" style="stop-color:#B70000"/>
				<stop  offset="1" style="stop-color:#9A0000"/>
			</linearGradient>
			<path fill="url(#SVGID_5_)" d="M80.138,39.454c9.192-3.958,32.659-14.062,32.659-14.062c2.406-1.035,4.547,0.485,4.547,0.485
				l9.145,5.261c0,0-2.114-1.219-4.857-0.198L88.38,46.007c-4.365,2.03-6.391,6.357-6.391,6.357l-8.586-6.576
				C73.401,45.788,75.423,41.483,80.138,39.454z"/>
			
				<linearGradient id="SVGID_6_" gradientUnits="userSpaceOnUse" x1="283.3125" y1="1237.2754" x2="277.9615" y2="1243.9641" gradientTransform="matrix(1 0 0 1 -200 -1182)">
				<stop  offset="0" style="stop-color:#C20A00"/>
				<stop  offset="1" style="stop-color:#860A00"/>
			</linearGradient>
			<path fill="url(#SVGID_6_)" d="M73.452,45.757c0,0-1.014,1.812-1.014,5.424l0.496,20.094l8.146,8.63l-0.203-23.643
				c0-1.819,1.16-3.929,1.16-3.929L73.452,45.757z"/>
			
				<linearGradient id="SVGID_7_" gradientUnits="userSpaceOnUse" x1="312.4365" y1="1222.0049" x2="333.2259" y2="1259.287" gradientTransform="matrix(1 0 0 1 -200 -1182)">
				<stop  offset="0" style="stop-color:#C20A00"/>
				<stop  offset="1" style="stop-color:#860A00"/>
			</linearGradient>
			<polygon fill="url(#SVGID_7_)" points="120.604,40.479 119.625,60.744 112.449,54.199 113.055,43.899 			"/>
			
				<linearGradient id="SVGID_8_" gradientUnits="userSpaceOnUse" x1="293.3418" y1="1218.5527" x2="326.422" y2="1277.8765" gradientTransform="matrix(1 0 0 1 -200.0566 -1182.0791)">
				<stop  offset="0" style="stop-color:#FF0000"/>
				<stop  offset="0.1674" style="stop-color:#F60000"/>
				<stop  offset="0.4388" style="stop-color:#DE0000"/>
				<stop  offset="0.7785" style="stop-color:#B70000"/>
				<stop  offset="1" style="stop-color:#9A0000"/>
			</linearGradient>
			<path fill="url(#SVGID_8_)" d="M120.979,31.233c-8.846,4.009-23.648,10.719-32.603,14.775c-4.527,2.051-7.529,6.545-7.494,10.79
				c0.078,9.019,0.199,23.105,0.199,23.105l7.586-3.771c0,0-0.072-10.203-0.117-16.425c-0.02-2.728,1.294-5.292,3.408-6.25
				c6.275-2.842,19.481-8.827,25.517-11.562c1.936-0.874,3.037,0.461,2.91,3.074c-0.287,5.97-0.76,15.774-0.76,15.774l6.951-3.455
				c0,0,0.779-13.261,1.289-21.961C128.115,31.078,125.377,29.241,120.979,31.233z"/>
			<g>
				
					<radialGradient id="SVGID_9_" cx="319.0635" cy="1193.8486" r="81.3756" gradientTransform="matrix(1 0 0 1 -200 -1182)" gradientUnits="userSpaceOnUse">
					<stop  offset="0" style="stop-color:#FF723A"/>
					<stop  offset="1" style="stop-color:#FF723A;stop-opacity:0"/>
				</radialGradient>
				<path fill="url(#SVGID_9_)" d="M88.376,47.186c8.95-4.056,23.757-10.767,32.603-14.774c4.021-1.822,6.647-0.435,6.879,3.064
					c0.004-0.049,0.006-0.099,0.012-0.147c0.25-4.25-2.488-6.087-6.891-4.095c-8.846,4.009-23.648,10.719-32.603,14.775
					c-4.527,2.051-7.529,6.545-7.494,10.79c0.004,0.31,0.006,0.627,0.009,0.947C80.962,53.569,83.929,49.199,88.376,47.186z"/>
				
					<radialGradient id="SVGID_10_" cx="319.0605" cy="1193.8486" r="81.3767" gradientTransform="matrix(1 0 0 1 -200 -1182)" gradientUnits="userSpaceOnUse">
					<stop  offset="0" style="stop-color:#FF723A"/>
					<stop  offset="1" style="stop-color:#000000"/>
				</radialGradient>
				<path fill="url(#SVGID_10_)" d="M120.375,45.211c-0.289,5.99-0.75,15.533-0.75,15.533l0.059-0.029
					c0.135-2.801,0.479-9.869,0.701-14.568C120.402,45.812,120.396,45.5,120.375,45.211z"/>
				
					<radialGradient id="SVGID_11_" cx="319.165" cy="1193.8535" r="81.4226" gradientTransform="matrix(1 0 0 1 -200 -1182)" gradientUnits="userSpaceOnUse">
					<stop  offset="0" style="stop-color:#FF723A"/>
					<stop  offset="1" style="stop-color:#000000"/>
				</radialGradient>
				<path fill="url(#SVGID_11_)" d="M88.55,60.886c0.035,4.944,0.088,12.398,0.109,15.252l0.008-0.005c0,0-0.064-9.132-0.109-15.384
					C88.558,60.795,88.55,60.839,88.55,60.886z"/>
			</g>
			<polygon opacity="0.2" fill="#1E2B38" enable-background="new    " points="53.64,160.786 52.708,86.672 76.64,75.025 
				76.991,75.747 53.519,87.171 54.442,160.775 			"/>
			
				<rect x="101.508" y="48.394" transform="matrix(0.4372 0.8994 -0.8994 0.4372 114.1664 -56.1007)" opacity="0.2" fill="#1E2B38" enable-background="new    " width="0.804" height="29.557"/>
			
				<linearGradient id="SVGID_12_" gradientUnits="userSpaceOnUse" x1="250.5469" y1="1282.6533" x2="239.3092" y2="1297.9044" gradientTransform="matrix(1 0 0 1 -200 -1182)">
				<stop  offset="0" style="stop-color:#FF0000"/>
				<stop  offset="0.1674" style="stop-color:#F60000"/>
				<stop  offset="0.4388" style="stop-color:#DE0000"/>
				<stop  offset="0.7785" style="stop-color:#B70000"/>
				<stop  offset="1" style="stop-color:#9A0000"/>
			</linearGradient>
			<path fill="url(#SVGID_12_)" d="M67.589,89.606c-0.906,0.469-2.191,0.391-2.869-0.171l-11.906-9.973
				c-0.686-0.576-0.495-1.391,0.428-1.818l8.827-4.103c0.921-0.43,2.227-0.311,2.913,0.264l11.69,9.491
				c0.679,0.56,0.493,1.393-0.412,1.858L67.589,89.606z"/>
			<g>
				
					<linearGradient id="SVGID_13_" gradientUnits="userSpaceOnUse" x1="811.7021" y1="2030.5869" x2="821.4462" y2="2075.7642" gradientTransform="matrix(0.9238 -0.3796 -0.1728 1.1535 -282.2693 -1938.895)">
					<stop  offset="0" style="stop-color:#FF0000"/>
					<stop  offset="0.1674" style="stop-color:#F60000"/>
					<stop  offset="0.4388" style="stop-color:#DE0000"/>
					<stop  offset="0.7785" style="stop-color:#B70000"/>
					<stop  offset="1" style="stop-color:#9A0000"/>
				</linearGradient>
				<path fill="url(#SVGID_13_)" d="M136.777,93.589l-12.029,6.217l0.109-14.494c0.02-1.91-1.219-2.854-2.77-2.102l-8.562,4.191
					c-1.551,0.765-2.858,2.998-2.914,4.979l-0.383,15.047l-12.163,6.483c-1.6,0.857-2.965,3.211-3.046,5.25l-0.424,11.199
					c-0.073,2.021,1.197,2.896,2.833,1.967l12.432-7.033l-0.229,14.732c-0.022,1.923,1.308,2.679,2.968,1.688l9.164-5.407
					c1.656-0.979,2.989-3.263,2.979-5.107l-0.043-14.186l12.303-6.771c1.607-0.878,2.887-3.047,2.852-4.85l-0.181-9.979
					C139.65,93.604,138.354,92.781,136.777,93.589z"/>
				
					<linearGradient id="SVGID_14_" gradientUnits="userSpaceOnUse" x1="811.7021" y1="2030.5869" x2="821.4462" y2="2075.7642" gradientTransform="matrix(0.9238 -0.3796 -0.1728 1.1535 -282.2693 -1938.895)">
					<stop  offset="0" style="stop-color:#FF0000"/>
					<stop  offset="0.1674" style="stop-color:#F60000"/>
					<stop  offset="0.4388" style="stop-color:#DE0000"/>
					<stop  offset="0.7785" style="stop-color:#B70000"/>
					<stop  offset="1" style="stop-color:#9A0000"/>
				</linearGradient>
				<path fill="url(#SVGID_14_)" d="M136.777,93.589l-12.029,6.217l0.109-14.494c0.02-1.91-1.219-2.854-2.77-2.102l-8.562,4.191
					c-1.551,0.765-2.858,2.998-2.914,4.979l-0.383,15.047l-12.163,6.483c-1.6,0.857-2.965,3.211-3.046,5.25l-0.424,11.199
					c-0.073,2.021,1.197,2.896,2.833,1.967l12.432-7.033l-0.229,14.732c-0.022,1.923,1.308,2.679,2.968,1.688l9.164-5.407
					c1.656-0.979,2.989-3.263,2.979-5.107l-0.043-14.186l12.303-6.771c1.607-0.878,2.887-3.047,2.852-4.85l-0.181-9.979
					C139.65,93.604,138.354,92.781,136.777,93.589z"/>
			</g>
		</g>
	</g>
</g>
</svg>
