<?xml version="1.0" encoding="utf-8"?>
<!-- Generator: Adobe Illustrator 15.0.0, SVG Export Plug-In . SVG Version: 6.00 Build 0)  -->
<!DOCTYPE svg PUBLIC "-//W3C//DTD SVG 1.1//EN" "http://www.w3.org/Graphics/SVG/1.1/DTD/svg11.dtd">
<svg version="1.1" id="Layer_1" xmlns="http://www.w3.org/2000/svg" xmlns:xlink="http://www.w3.org/1999/xlink" x="0px" y="0px"
	 width="200px" height="200px" viewBox="0 0 200 200" enable-background="new 0 0 200 200" xml:space="preserve">
<g id="icon">
	<g id="Layer_2">
	</g>
	<g id="Layer_1_1_">
		<g>
			<g>
				
					<radialGradient id="SVGID_1_" cx="-2228.668" cy="-920.478" r="7.5135" fx="-2228.6208" fy="-921.274" gradientTransform="matrix(-0.8922 -0.4259 -0.3429 0.8554 -2203.8877 -17.3143)" gradientUnits="userSpaceOnUse">
					<stop  offset="0" style="stop-color:#FFFF00"/>
					<stop  offset="0.3313" style="stop-color:#FFD400"/>
					<stop  offset="0.4016" style="stop-color:#FCD001"/>
					<stop  offset="0.4777" style="stop-color:#F2C303"/>
					<stop  offset="0.5565" style="stop-color:#E2AD06"/>
					<stop  offset="0.6371" style="stop-color:#CC8F0B"/>
					<stop  offset="0.7184" style="stop-color:#B06811"/>
					<stop  offset="0.7485" style="stop-color:#A45814"/>
					<stop  offset="0.9002" style="stop-color:#B57010"/>
					<stop  offset="1" style="stop-color:#BD7B0E"/>
				</radialGradient>
				<path fill="url(#SVGID_1_)" d="M94.725,142.979c-1.097,2.73,0.326,6.045,3.173,7.404c2.849,1.359,6.042,0.248,7.138-2.48
					c1.094-2.729-0.327-6.045-3.175-7.4C99.014,139.141,95.817,140.251,94.725,142.979z"/>
				
					<linearGradient id="SVGID_2_" gradientUnits="userSpaceOnUse" x1="-2639.2783" y1="-1448.5845" x2="-2643.6775" y2="-1444.3372" gradientTransform="matrix(-0.6542 -0.5108 -0.1975 0.8272 -1932.3159 -1.5535)">
					<stop  offset="0" style="stop-color:#FFCA00"/>
					<stop  offset="0.2793" style="stop-color:#EBAE0B"/>
					<stop  offset="0.8792" style="stop-color:#B96725"/>
					<stop  offset="1" style="stop-color:#AE582B"/>
				</linearGradient>
				<path fill="url(#SVGID_2_)" d="M65.865,152.264c-0.854,0.235-1.14,1.537-0.646,2.904l0,0c0.496,1.366,1.59,2.284,2.442,2.048
					l28.915-8.176c0.852-0.235,1.143-1.539,0.646-2.903l0,0c-0.497-1.369-1.59-2.287-2.441-2.052L65.865,152.264z"/>
				<g>
					
						<linearGradient id="SVGID_3_" gradientUnits="userSpaceOnUse" x1="-2286.0596" y1="-1062.4316" x2="-2250.8022" y2="-1068.7599" gradientTransform="matrix(-0.928 -0.3726 -0.3726 0.928 -2411.0229 313.8478)">
						<stop  offset="0" style="stop-color:#D16E00"/>
						<stop  offset="0.1896" style="stop-color:#B56205"/>
						<stop  offset="0.5959" style="stop-color:#6E4313"/>
						<stop  offset="1" style="stop-color:#222222"/>
					</linearGradient>
					<path fill="url(#SVGID_3_)" d="M89.172,152.417l5.457,29.166c0,0-0.24,3.672-3.067,4.092c-2.861,0.427-4.722-1.926-4.722-1.926
						l-8.468-27.158L89.172,152.417z"/>
					
						<linearGradient id="SVGID_4_" gradientUnits="userSpaceOnUse" x1="-2281.3691" y1="-1070.5146" x2="-2251.2043" y2="-1061.496" gradientTransform="matrix(-0.928 -0.3726 -0.3726 0.928 -2411.0229 313.8478)">
						<stop  offset="0" style="stop-color:#906E81"/>
						<stop  offset="0.2884" style="stop-color:#745B69"/>
						<stop  offset="0.9081" style="stop-color:#2D2A2C"/>
						<stop  offset="1" style="stop-color:#222222"/>
					</linearGradient>
					<path fill="url(#SVGID_4_)" d="M89.172,152.417l5.457,29.166c0,0-0.24,3.672-3.067,4.092c-2.861,0.427-4.722-1.926-4.722-1.926
						l-8.468-27.158L89.172,152.417z"/>
					<g>
						
							<linearGradient id="SVGID_5_" gradientUnits="userSpaceOnUse" x1="-2270.6357" y1="-1069.4424" x2="-2259.8782" y2="-1062.4644" gradientTransform="matrix(-0.928 -0.3726 -0.3726 0.928 -2411.0229 313.8478)">
							<stop  offset="0" style="stop-color:#9F8292"/>
							<stop  offset="0.257" style="stop-color:#836D79"/>
							<stop  offset="0.8088" style="stop-color:#3C3639"/>
							<stop  offset="1" style="stop-color:#222222"/>
						</linearGradient>
						<path fill="url(#SVGID_5_)" d="M87.468,153.068l1.704-0.651l5.457,29.166c0,0-0.07,1.024-0.551,2.056L87.468,153.068z"/>
					</g>
				</g>
				
					<linearGradient id="SVGID_6_" gradientUnits="userSpaceOnUse" x1="-2293.8584" y1="-1045.1797" x2="-2291.1794" y2="-1042.8358" gradientTransform="matrix(-0.9153 -0.4027 -0.4027 0.9153 -2429.1572 208.3501)">
					<stop  offset="0" style="stop-color:#484848"/>
					<stop  offset="0.2454" style="stop-color:#A6A6A7"/>
					<stop  offset="1" style="stop-color:#000000"/>
				</linearGradient>
				<path fill="url(#SVGID_6_)" d="M85.769,180.109c0,0,2.946,3.024,6.408-0.293c2.191-2.104,1.121-4.961,1.121-4.961l-1.02-5.065
					c0,0,1.21,6.437-2.872,7.769c-4.082,1.332-5.019-1.882-5.019-1.882L85.769,180.109z"/>
				
					<linearGradient id="SVGID_7_" gradientUnits="userSpaceOnUse" x1="-2287.7314" y1="-1051.6504" x2="-2285.0259" y2="-1049.2832" gradientTransform="matrix(-0.9153 -0.4027 -0.4027 0.9153 -2429.1572 208.3501)">
					<stop  offset="0" style="stop-color:#484848"/>
					<stop  offset="0.2454" style="stop-color:#A6A6A7"/>
					<stop  offset="1" style="stop-color:#000000"/>
				</linearGradient>
				<path fill="url(#SVGID_7_)" d="M83.317,171.544c0,0,3.217,3.217,6.887-0.187c2.323-2.153,1.127-5.157,1.127-5.157l-1.175-5.31
					c0,0,1.401,6.738-2.966,8.058c-4.368,1.313-5.43-2.058-5.43-2.058L83.317,171.544z"/>
				
					<linearGradient id="SVGID_8_" gradientUnits="userSpaceOnUse" x1="-2280.71" y1="-1059.019" x2="-2277.9724" y2="-1056.6239" gradientTransform="matrix(-0.9153 -0.4027 -0.4027 0.9153 -2429.1572 208.3501)">
					<stop  offset="0" style="stop-color:#484848"/>
					<stop  offset="0.2454" style="stop-color:#A6A6A7"/>
					<stop  offset="1" style="stop-color:#000000"/>
				</linearGradient>
				<path fill="url(#SVGID_8_)" d="M80.397,161.794c0,0,4.043,3.692,8.235,0.283c2.656-2.162,1.048-5.485,1.048-5.485l-0.958-6.648
					c0,0,1.313,8.214-3.842,9.322c-5.15,1.11-6.619-2.602-6.619-2.602L80.397,161.794z"/>
				
					<linearGradient id="SVGID_9_" gradientUnits="userSpaceOnUse" x1="-2262.5371" y1="-1119.498" x2="-2203.6433" y2="-1078.5083" gradientTransform="matrix(-0.9153 -0.4027 -0.4027 0.9153 -2429.1572 208.3501)">
					<stop  offset="0" style="stop-color:#D2E6FF"/>
					<stop  offset="0.6457" style="stop-color:#EEF5F4"/>
					<stop  offset="1" style="stop-color:#FFFFFF"/>
				</linearGradient>
				<polygon fill="url(#SVGID_9_)" points="88.845,146.624 84.316,149.938 61.983,61.956 67.916,46.104 				"/>
				
					<linearGradient id="SVGID_10_" gradientUnits="userSpaceOnUse" x1="-2250.1543" y1="-1112.9873" x2="-2251.2605" y2="-1089.2109" gradientTransform="matrix(-0.9153 -0.4027 -0.4027 0.9153 -2429.1572 208.3501)">
					<stop  offset="0.092" style="stop-color:#A8CEC9;stop-opacity:0"/>
					<stop  offset="0.1885" style="stop-color:#C4DEDA;stop-opacity:0.3455"/>
					<stop  offset="0.2883" style="stop-color:#E5F0EF;stop-opacity:0.7027"/>
					<stop  offset="0.4663" style="stop-color:#FFFFFF"/>
					<stop  offset="1" style="stop-color:#A8CEC9;stop-opacity:0"/>
				</linearGradient>
				<polygon fill="url(#SVGID_10_)" points="88.845,146.624 84.316,149.938 61.983,61.956 67.916,46.104 				"/>
				
					<linearGradient id="SVGID_11_" gradientUnits="userSpaceOnUse" x1="-2245.4785" y1="-1107.4365" x2="-2276.562" y2="-1130.4502" gradientTransform="matrix(-0.9153 -0.4027 -0.4027 0.9153 -2429.1572 208.3501)">
					<stop  offset="0" style="stop-color:#6883A2"/>
					<stop  offset="1" style="stop-color:#FFFFFF"/>
				</linearGradient>
				<polygon fill="url(#SVGID_11_)" points="74.786,150.448 84.316,149.938 61.983,61.956 42.818,51.861 				"/>
				
					<linearGradient id="SVGID_12_" gradientUnits="userSpaceOnUse" x1="-2209.7876" y1="-1146.686" x2="-2209.7876" y2="-1150.9434" gradientTransform="matrix(-0.9153 -0.4027 -0.4027 0.9153 -2429.1572 208.3501)">
					<stop  offset="0" style="stop-color:#B8CEE8"/>
					<stop  offset="0.3566" style="stop-color:#C4DEF2"/>
					<stop  offset="1" style="stop-color:#FFFFFF"/>
				</linearGradient>
				<polygon fill="url(#SVGID_12_)" points="50.019,31.887 67.916,46.104 61.983,61.956 42.818,51.861 				"/>
				<path d="M84.194,160.992c-0.437,1.181,0.134,2.261,1.269,2.418c1.136,0.154,2.409-0.676,2.844-1.854
					c0.436-1.182-0.135-2.265-1.27-2.418C85.901,158.984,84.629,159.812,84.194,160.992z"/>
				<path d="M86.88,169.88c-0.398,1.084,0.123,2.076,1.167,2.22c1.042,0.146,2.21-0.617,2.609-1.701
					c0.399-1.082-0.122-2.071-1.166-2.217C88.449,168.036,87.28,168.798,86.88,169.88z"/>
				<path d="M89.271,178.527c-0.359,0.978,0.111,1.873,1.053,2.004c0.942,0.13,1.996-0.559,2.356-1.535
					c0.358-0.977-0.11-1.874-1.053-2.002C90.688,176.864,89.632,177.552,89.271,178.527z"/>
				
					<radialGradient id="SVGID_13_" cx="-2197.2891" cy="-892.1777" r="7.5127" fx="-2197.2419" fy="-892.9735" gradientTransform="matrix(-0.8922 -0.4259 -0.3429 0.8554 -2203.8877 -17.3143)" gradientUnits="userSpaceOnUse">
					<stop  offset="0" style="stop-color:#FFFF00"/>
					<stop  offset="0.3313" style="stop-color:#FFD400"/>
					<stop  offset="0.4016" style="stop-color:#FCD001"/>
					<stop  offset="0.4777" style="stop-color:#F2C303"/>
					<stop  offset="0.5565" style="stop-color:#E2AD06"/>
					<stop  offset="0.6371" style="stop-color:#CC8F0B"/>
					<stop  offset="0.7184" style="stop-color:#B06811"/>
					<stop  offset="0.7485" style="stop-color:#A45814"/>
					<stop  offset="0.9002" style="stop-color:#B57010"/>
					<stop  offset="1" style="stop-color:#BD7B0E"/>
				</radialGradient>
				<path fill="url(#SVGID_13_)" d="M57.021,153.823c-1.095,2.729,0.325,6.045,3.174,7.403c2.849,1.355,6.042,0.248,7.137-2.481
					c1.095-2.729-0.326-6.044-3.174-7.404C61.309,149.98,58.114,151.094,57.021,153.823z"/>
				
					<radialGradient id="SVGID_14_" cx="-2215.6001" cy="-910.2065" r="12.8322" gradientTransform="matrix(-0.8922 -0.4259 -0.3429 0.8554 -2203.8877 -17.3143)" gradientUnits="userSpaceOnUse">
					<stop  offset="0" style="stop-color:#FFFF00"/>
					<stop  offset="0.3313" style="stop-color:#FFD400"/>
					<stop  offset="0.4016" style="stop-color:#FCD001"/>
					<stop  offset="0.4777" style="stop-color:#F2C303"/>
					<stop  offset="0.5565" style="stop-color:#E2AD06"/>
					<stop  offset="0.6371" style="stop-color:#CC8F0B"/>
					<stop  offset="0.7184" style="stop-color:#B06811"/>
					<stop  offset="0.7485" style="stop-color:#A45814"/>
					<stop  offset="0.9002" style="stop-color:#B57010"/>
					<stop  offset="1" style="stop-color:#BD7B0E"/>
				</radialGradient>
				<path fill="url(#SVGID_14_)" d="M77.158,150.208c-1.308,3.504,0.391,7.194,3.791,8.243c3.4,1.049,7.218-0.942,8.523-4.448
					c1.308-3.504-0.391-7.192-3.793-8.242C82.279,144.712,78.465,146.702,77.158,150.208z"/>
				
					<linearGradient id="SVGID_15_" gradientUnits="userSpaceOnUse" x1="-2372.6191" y1="-846.7744" x2="-2358.6162" y2="-846.7744" gradientTransform="matrix(-0.9201 -0.2436 -0.4046 0.9797 -2435.0242 406.0603)">
					<stop  offset="0" style="stop-color:#FFCA00"/>
					<stop  offset="0.2793" style="stop-color:#EBAE0B"/>
					<stop  offset="0.8792" style="stop-color:#B96725"/>
					<stop  offset="1" style="stop-color:#AE582B"/>
				</linearGradient>
				<path fill="url(#SVGID_15_)" d="M77.851,150.786c-1.346,3.606,0.401,7.403,3.9,8.481c3.5,1.078,7.426-0.973,8.771-4.576
					c1.343-3.604-0.404-7.401-3.903-8.48C83.121,145.132,79.194,147.182,77.851,150.786z"/>
				
					<radialGradient id="SVGID_16_" cx="-63.5278" cy="-481.1387" r="3.017" fx="-63.9361" fy="-481.0824" gradientTransform="matrix(-0.2178 0.9056 0.8553 0.2803 482.0145 344.8655)" gradientUnits="userSpaceOnUse">
					<stop  offset="0" style="stop-color:#FFFF00"/>
					<stop  offset="0.3313" style="stop-color:#FFD400"/>
					<stop  offset="0.4016" style="stop-color:#FCD001"/>
					<stop  offset="0.4777" style="stop-color:#F2C303"/>
					<stop  offset="0.5565" style="stop-color:#E2AD06"/>
					<stop  offset="0.6371" style="stop-color:#CC8F0B"/>
					<stop  offset="0.7184" style="stop-color:#B06811"/>
					<stop  offset="0.7485" style="stop-color:#A45814"/>
					<stop  offset="0.9002" style="stop-color:#B57010"/>
					<stop  offset="1" style="stop-color:#BD7B0E"/>
				</radialGradient>
				<path fill="url(#SVGID_16_)" d="M81.852,152.021c-0.496,1.328,0.147,2.729,1.438,3.125c1.29,0.396,2.735-0.357,3.231-1.688
					c0.495-1.328-0.149-2.729-1.438-3.125S82.345,150.691,81.852,152.021z"/>
			</g>
			<g>
				
					<radialGradient id="SVGID_17_" cx="-2482.3423" cy="-1145.3613" r="7.2305" fx="-2482.2971" fy="-1146.1273" gradientTransform="matrix(-0.818 -0.4776 -0.4215 0.8653 -2356.8875 -66.5029)" gradientUnits="userSpaceOnUse">
					<stop  offset="0" style="stop-color:#FFFF00"/>
					<stop  offset="0.3313" style="stop-color:#FFD400"/>
					<stop  offset="0.4016" style="stop-color:#FCD001"/>
					<stop  offset="0.4777" style="stop-color:#F2C303"/>
					<stop  offset="0.5565" style="stop-color:#E2AD06"/>
					<stop  offset="0.6371" style="stop-color:#CC8F0B"/>
					<stop  offset="0.7184" style="stop-color:#B06811"/>
					<stop  offset="0.7485" style="stop-color:#A45814"/>
					<stop  offset="0.9002" style="stop-color:#B57010"/>
					<stop  offset="1" style="stop-color:#BD7B0E"/>
				</radialGradient>
				<path fill="url(#SVGID_17_)" d="M151.525,126.247c-1.299,2.66-0.312,6.004,2.205,7.473c2.516,1.468,5.601,0.503,6.896-2.157
					c1.294-2.655,0.31-6.002-2.206-7.472C155.908,122.624,152.818,123.591,151.525,126.247z"/>
				
					<linearGradient id="SVGID_18_" gradientUnits="userSpaceOnUse" x1="-3005.7705" y1="-1777.4756" x2="-3010.0061" y2="-1773.3862" gradientTransform="matrix(-0.5789 -0.5545 -0.278 0.8427 -2096.5381 -37.8914)">
					<stop  offset="0" style="stop-color:#FFCA00"/>
					<stop  offset="0.2793" style="stop-color:#EBAE0B"/>
					<stop  offset="0.8792" style="stop-color:#B96725"/>
					<stop  offset="1" style="stop-color:#AE582B"/>
				</linearGradient>
				<path fill="url(#SVGID_18_)" d="M123.715,134.227c-0.82,0.197-1.217,1.479-0.896,2.854l0,0c0.324,1.375,1.25,2.33,2.066,2.134
					l27.752-6.879c0.817-0.197,1.219-1.479,0.896-2.854l0,0c-0.324-1.377-1.25-2.332-2.066-2.137L123.715,134.227z"/>
				<g>
					
						<linearGradient id="SVGID_19_" gradientUnits="userSpaceOnUse" x1="-2535.6519" y1="-1256.2959" x2="-2501.7068" y2="-1262.3887" gradientTransform="matrix(-0.8583 -0.4242 -0.4579 0.9388 -2593.0203 266.9094)">
						<stop  offset="0" style="stop-color:#D16E00"/>
						<stop  offset="0.1896" style="stop-color:#B56205"/>
						<stop  offset="0.5959" style="stop-color:#6E4313"/>
						<stop  offset="1" style="stop-color:#222222"/>
					</linearGradient>
					<path fill="url(#SVGID_19_)" d="M145.4,135.364l2.127,29.134c0,0-0.596,3.627-3.271,3.924
						c-2.708,0.303-4.199-2.107-4.199-2.107l-5.137-27.271L145.4,135.364z"/>
					
						<linearGradient id="SVGID_20_" gradientUnits="userSpaceOnUse" x1="-2531.1401" y1="-1264.0801" x2="-2502.0945" y2="-1255.396" gradientTransform="matrix(-0.8583 -0.4242 -0.4579 0.9388 -2593.0203 266.9094)">
						<stop  offset="0" style="stop-color:#906E81"/>
						<stop  offset="0.2884" style="stop-color:#745B69"/>
						<stop  offset="0.9081" style="stop-color:#2D2A2C"/>
						<stop  offset="1" style="stop-color:#222222"/>
					</linearGradient>
					<path fill="url(#SVGID_20_)" d="M145.4,135.364l2.127,29.134c0,0-0.596,3.627-3.271,3.924
						c-2.708,0.303-4.199-2.107-4.199-2.107l-5.137-27.271L145.4,135.364z"/>
					<g>
						
							<linearGradient id="SVGID_21_" gradientUnits="userSpaceOnUse" x1="-2520.8042" y1="-1263.0493" x2="-2510.4463" y2="-1256.3304" gradientTransform="matrix(-0.8583 -0.4242 -0.4579 0.9388 -2593.0203 266.9094)">
							<stop  offset="0" style="stop-color:#9F8292"/>
							<stop  offset="0.257" style="stop-color:#836D79"/>
							<stop  offset="0.8088" style="stop-color:#3C3639"/>
							<stop  offset="1" style="stop-color:#222222"/>
						</linearGradient>
						<path fill="url(#SVGID_21_)" d="M143.747,135.939l1.653-0.575l2.127,29.134c0,0-0.168,1.013-0.719,2.012L143.747,135.939z"/>
					</g>
				</g>
				
					<linearGradient id="SVGID_22_" gradientUnits="userSpaceOnUse" x1="-2538.2529" y1="-1246.9521" x2="-2535.6746" y2="-1244.696" gradientTransform="matrix(-0.8429 -0.4547 -0.4857 0.9244 -2600.0801 156.8032)">
					<stop  offset="0" style="stop-color:#484848"/>
					<stop  offset="0.2454" style="stop-color:#A6A6A7"/>
					<stop  offset="1" style="stop-color:#000000"/>
				</linearGradient>
				<path fill="url(#SVGID_22_)" d="M139.428,162.663c0,0,2.438,3.125,5.996-0.019c2.253-1.992,1.547-4.871,1.547-4.871
					l-0.438-5.062c0,0,0.475,6.43-3.461,7.575c-3.938,1.146-4.48-2.076-4.48-2.076L139.428,162.663z"/>
				
					<linearGradient id="SVGID_23_" gradientUnits="userSpaceOnUse" x1="-2532.3521" y1="-1253.1855" x2="-2529.7476" y2="-1250.9067" gradientTransform="matrix(-0.8429 -0.4547 -0.4857 0.9244 -2600.0801 156.8032)">
					<stop  offset="0" style="stop-color:#484848"/>
					<stop  offset="0.2454" style="stop-color:#A6A6A7"/>
					<stop  offset="1" style="stop-color:#000000"/>
				</linearGradient>
				<path fill="url(#SVGID_23_)" d="M138.014,154.07c0,0,2.668,3.322,6.43,0.104c2.385-2.034,1.572-5.062,1.572-5.062l-0.556-5.312
					c0,0,0.621,6.74-3.579,7.858c-4.199,1.114-4.847-2.271-4.847-2.271L138.014,154.07z"/>
				
					<linearGradient id="SVGID_24_" gradientUnits="userSpaceOnUse" x1="-2525.5952" y1="-1260.2803" x2="-2522.9592" y2="-1257.974" gradientTransform="matrix(-0.8429 -0.4547 -0.4857 0.9244 -2600.0801 156.8032)">
					<stop  offset="0" style="stop-color:#484848"/>
					<stop  offset="0.2454" style="stop-color:#A6A6A7"/>
					<stop  offset="1" style="stop-color:#000000"/>
				</linearGradient>
				<path fill="url(#SVGID_24_)" d="M136.281,144.286c0,0,3.39,3.83,7.638,0.628c2.692-2.029,1.532-5.391,1.532-5.391l-0.219-6.631
					c0,0,0.393,8.19-4.521,9.072c-4.906,0.887-5.898-2.854-5.898-2.854L136.281,144.286z"/>
				
					<linearGradient id="SVGID_25_" gradientUnits="userSpaceOnUse" x1="-2508.0889" y1="-1318.4961" x2="-2451.4387" y2="-1279.068" gradientTransform="matrix(-0.8429 -0.4547 -0.4857 0.9244 -2600.0801 156.8032)">
					<stop  offset="0" style="stop-color:#D2E6FF"/>
					<stop  offset="0.6457" style="stop-color:#EEF5F4"/>
					<stop  offset="1" style="stop-color:#FFFFFF"/>
				</linearGradient>
				<polygon fill="url(#SVGID_25_)" points="145.682,129.609 141.131,132.702 129.244,44.573 136.372,29.118 				"/>
				
					<linearGradient id="SVGID_26_" gradientUnits="userSpaceOnUse" x1="-2496.1772" y1="-1312.2383" x2="-2497.2424" y2="-1289.3469" gradientTransform="matrix(-0.8429 -0.4547 -0.4857 0.9244 -2600.0801 156.8032)">
					<stop  offset="0.092" style="stop-color:#A8CEC9;stop-opacity:0"/>
					<stop  offset="0.1885" style="stop-color:#C4DEDA;stop-opacity:0.3455"/>
					<stop  offset="0.2883" style="stop-color:#E5F0EF;stop-opacity:0.7027"/>
					<stop  offset="0.4663" style="stop-color:#FFFFFF"/>
					<stop  offset="1" style="stop-color:#A8CEC9;stop-opacity:0"/>
				</linearGradient>
				<polygon fill="url(#SVGID_26_)" points="145.682,129.609 141.131,132.702 129.244,44.573 136.372,29.118 				"/>
				
					<linearGradient id="SVGID_27_" gradientUnits="userSpaceOnUse" x1="-2491.6733" y1="-1306.8906" x2="-2521.5972" y2="-1329.0459" gradientTransform="matrix(-0.8429 -0.4547 -0.4857 0.9244 -2600.0801 156.8032)">
					<stop  offset="0" style="stop-color:#6883A2"/>
					<stop  offset="1" style="stop-color:#FFFFFF"/>
				</linearGradient>
				<polygon fill="url(#SVGID_27_)" points="132.206,132.807 141.131,132.702 129.244,44.573 112.42,33.759 				"/>
				
					<linearGradient id="SVGID_28_" gradientUnits="userSpaceOnUse" x1="-2457.3154" y1="-1344.6812" x2="-2457.3154" y2="-1348.7795" gradientTransform="matrix(-0.8429 -0.4547 -0.4857 0.9244 -2600.0801 156.8032)">
					<stop  offset="0" style="stop-color:#B8CEE8"/>
					<stop  offset="0.3566" style="stop-color:#C4DEF2"/>
					<stop  offset="1" style="stop-color:#FFFFFF"/>
				</linearGradient>
				<polygon fill="url(#SVGID_28_)" points="121.146,14.272 136.372,29.118 129.244,44.573 112.42,33.759 				"/>
				<path d="M139.898,143.65c-0.527,1.148-0.105,2.248,0.935,2.451c1.043,0.198,2.313-0.566,2.836-1.72
					c0.524-1.146,0.103-2.243-0.937-2.446C141.689,141.732,140.422,142.501,139.898,143.65z"/>
				<path d="M141.498,152.573c-0.48,1.057-0.096,2.062,0.861,2.247c0.957,0.187,2.121-0.521,2.603-1.575s0.097-2.062-0.86-2.246
					C143.146,150.812,141.98,151.518,141.498,152.573z"/>
				<path d="M142.852,161.243c-0.437,0.952-0.086,1.86,0.774,2.028c0.864,0.168,1.916-0.467,2.351-1.42
					c0.437-0.953,0.086-1.862-0.773-2.028C144.337,159.654,143.284,160.292,142.852,161.243z"/>
				
					<radialGradient id="SVGID_29_" cx="-2452.1265" cy="-1118.1143" r="7.231" fx="-2452.0811" fy="-1118.8802" gradientTransform="matrix(-0.818 -0.4776 -0.4215 0.8653 -2356.8875 -66.5029)" gradientUnits="userSpaceOnUse">
					<stop  offset="0" style="stop-color:#FFFF00"/>
					<stop  offset="0.3313" style="stop-color:#FFD400"/>
					<stop  offset="0.4016" style="stop-color:#FCD001"/>
					<stop  offset="0.4777" style="stop-color:#F2C303"/>
					<stop  offset="0.5565" style="stop-color:#E2AD06"/>
					<stop  offset="0.6371" style="stop-color:#CC8F0B"/>
					<stop  offset="0.7184" style="stop-color:#B06811"/>
					<stop  offset="0.7485" style="stop-color:#A45814"/>
					<stop  offset="0.9002" style="stop-color:#B57010"/>
					<stop  offset="1" style="stop-color:#BD7B0E"/>
				</radialGradient>
				<path fill="url(#SVGID_29_)" d="M115.32,135.396c-1.295,2.658-0.309,6.004,2.207,7.472c2.514,1.467,5.602,0.502,6.896-2.157
					s0.31-6.003-2.206-7.472C119.703,131.773,116.616,132.74,115.32,135.396z"/>
				
					<radialGradient id="SVGID_30_" cx="-2469.7515" cy="-1135.4673" r="12.3596" gradientTransform="matrix(-0.818 -0.4776 -0.4215 0.8653 -2356.8875 -66.5029)" gradientUnits="userSpaceOnUse">
					<stop  offset="0" style="stop-color:#FFFF00"/>
					<stop  offset="0.3313" style="stop-color:#FFD400"/>
					<stop  offset="0.4016" style="stop-color:#FCD001"/>
					<stop  offset="0.4777" style="stop-color:#F2C303"/>
					<stop  offset="0.5565" style="stop-color:#E2AD06"/>
					<stop  offset="0.6371" style="stop-color:#CC8F0B"/>
					<stop  offset="0.7184" style="stop-color:#B06811"/>
					<stop  offset="0.7485" style="stop-color:#A45814"/>
					<stop  offset="0.9002" style="stop-color:#B57010"/>
					<stop  offset="1" style="stop-color:#BD7B0E"/>
				</radialGradient>
				<path fill="url(#SVGID_30_)" d="M134.438,132.668c-1.568,3.417-0.361,7.146,2.695,8.328c3.061,1.184,6.814-0.629,8.387-4.046
					c1.571-3.416,0.363-7.146-2.694-8.328C139.764,127.438,136.009,129.249,134.438,132.668z"/>
				
					<linearGradient id="SVGID_31_" gradientUnits="userSpaceOnUse" x1="-2636.4375" y1="-999.3618" x2="-2622.9575" y2="-999.3618" gradientTransform="matrix(-0.8642 -0.2912 -0.4943 0.9906 -2625.8457 359.673)">
					<stop  offset="0" style="stop-color:#FFCA00"/>
					<stop  offset="0.2793" style="stop-color:#EBAE0B"/>
					<stop  offset="0.8792" style="stop-color:#B96725"/>
					<stop  offset="1" style="stop-color:#AE582B"/>
				</linearGradient>
				<path fill="url(#SVGID_31_)" d="M135.021,133.271c-1.615,3.517-0.373,7.354,2.771,8.566c3.146,1.221,7.016-0.646,8.631-4.164
					c1.614-3.516,0.374-7.354-2.771-8.566C140.504,127.891,136.641,129.754,135.021,133.271z"/>
				
					<radialGradient id="SVGID_32_" cx="-332.855" cy="-422.1631" r="2.9036" fx="-333.248" fy="-422.1089" gradientTransform="matrix(-0.3058 0.9224 0.7976 0.3261 375.8576 579.9803)" gradientUnits="userSpaceOnUse">
					<stop  offset="0" style="stop-color:#FFFF00"/>
					<stop  offset="0.3313" style="stop-color:#FFD400"/>
					<stop  offset="0.4016" style="stop-color:#FCD001"/>
					<stop  offset="0.4777" style="stop-color:#F2C303"/>
					<stop  offset="0.5565" style="stop-color:#E2AD06"/>
					<stop  offset="0.6371" style="stop-color:#CC8F0B"/>
					<stop  offset="0.7184" style="stop-color:#B06811"/>
					<stop  offset="0.7485" style="stop-color:#A45814"/>
					<stop  offset="0.9002" style="stop-color:#B57010"/>
					<stop  offset="1" style="stop-color:#BD7B0E"/>
				</radialGradient>
				<path fill="url(#SVGID_32_)" d="M138.625,134.663c-0.598,1.294-0.141,2.709,1.021,3.157c1.162,0.447,2.582-0.239,3.181-1.534
					c0.596-1.295,0.138-2.709-1.022-3.158C140.643,132.68,139.219,133.366,138.625,134.663z"/>
			</g>
		</g>
	</g>
</g>
</svg>
