<?xml version="1.0" encoding="utf-8"?>
<!-- Generator: Adobe Illustrator 15.0.0, SVG Export Plug-In . SVG Version: 6.00 Build 0)  -->
<!DOCTYPE svg PUBLIC "-//W3C//DTD SVG 1.1//EN" "http://www.w3.org/Graphics/SVG/1.1/DTD/svg11.dtd">
<svg version="1.1" id="Layer_1" xmlns="http://www.w3.org/2000/svg" xmlns:xlink="http://www.w3.org/1999/xlink" x="0px" y="0px"
	 width="200px" height="200px" viewBox="0 0 200 200" enable-background="new 0 0 200 200" xml:space="preserve">
<g id="icon">
	<g id="Layer_2">
	</g>
	<g id="Layer_1_1_">
		<g>
			
				<radialGradient id="SVGID_1_" cx="303.0928" cy="2157.4336" r="40.7033" gradientTransform="matrix(1 0 0 0.5877 -200 -1115.2977)" gradientUnits="userSpaceOnUse">
				<stop  offset="0" style="stop-color:#FFCF0C"/>
				<stop  offset="0.3394" style="stop-color:#FFC500"/>
				<stop  offset="0.8242" style="stop-color:#B8681E"/>
			</radialGradient>
			<path fill="url(#SVGID_1_)" d="M129.902,156.709c0,8.162-12.006,14.777-26.812,14.777s-26.809-6.615-26.809-14.777
				c0-0.648,0-4.75,0-4.75c1.707-7.254,13.182-10.025,26.809-10.025c13.438,0,24.871,2.652,26.812,9.762
				C129.906,151.695,129.902,155.956,129.902,156.709z"/>
			
				<radialGradient id="SVGID_2_" cx="303.0938" cy="2152.9346" r="31.2999" gradientTransform="matrix(1 0 0 0.5877 -200 -1117.4022)" gradientUnits="userSpaceOnUse">
				<stop  offset="0.1104" style="stop-color:#CF7C1E"/>
				<stop  offset="0.3804" style="stop-color:#F7A00F"/>
				<stop  offset="0.6933" style="stop-color:#FFB800"/>
				<stop  offset="1" style="stop-color:#FFCF0C"/>
			</radialGradient>
			<ellipse fill="url(#SVGID_2_)" cx="103.094" cy="151.959" rx="26.809" ry="14.777"/>
			
				<radialGradient id="SVGID_3_" cx="303.0117" cy="1279.0059" r="30.6857" gradientTransform="matrix(1 0 0 1.0555 -200 -1183.693)" gradientUnits="userSpaceOnUse">
				<stop  offset="0" style="stop-color:#F7F51E"/>
				<stop  offset="0.3939" style="stop-color:#F7C71E"/>
				<stop  offset="1" style="stop-color:#FFB100"/>
			</radialGradient>
			<path fill="url(#SVGID_3_)" d="M103.094,165.504c-14.432,0-26.196-6.285-26.782-14.16c-0.015,0.205-0.026,0.41-0.026,0.615
				c0,8.162,12.002,14.777,26.81,14.777c14.803,0,26.809-6.615,26.809-14.777c0-0.205-0.014-0.41-0.026-0.615
				C129.287,159.219,117.521,165.504,103.094,165.504z"/>
			
				<radialGradient id="SVGID_4_" cx="303.0938" cy="2148.5557" r="26.2681" gradientTransform="matrix(1 0 0 0.5877 -200 -1119.4501)" gradientUnits="userSpaceOnUse">
				<stop  offset="0.1104" style="stop-color:#CF7C1E"/>
				<stop  offset="0.3804" style="stop-color:#F7A00F"/>
				<stop  offset="0.6933" style="stop-color:#FFB800"/>
				<stop  offset="1" style="stop-color:#FFCF0C"/>
			</radialGradient>
			<ellipse fill="url(#SVGID_4_)" cx="103.094" cy="146.682" rx="22.5" ry="12.402"/>
			
				<radialGradient id="SVGID_5_" cx="303.9258" cy="1271.0068" r="31.1879" gradientTransform="matrix(1 0 0 1.0555 -200 -1183.693)" gradientUnits="userSpaceOnUse">
				<stop  offset="0" style="stop-color:#F7F51E"/>
				<stop  offset="0.3939" style="stop-color:#F7C71E"/>
				<stop  offset="1" style="stop-color:#FFB100"/>
			</radialGradient>
			<path fill="url(#SVGID_5_)" d="M103.094,157.854c-12.053,0-21.891-5.223-22.473-11.785c-0.019,0.203-0.027,0.408-0.027,0.613
				c0,6.854,10.072,12.402,22.5,12.402c12.426,0,22.5-5.553,22.5-12.402c0-0.205-0.012-0.41-0.029-0.613
				C124.982,152.631,115.145,157.854,103.094,157.854z"/>
			
				<linearGradient id="SVGID_6_" gradientUnits="userSpaceOnUse" x1="296.752" y1="1303.2188" x2="308.502" y2="1303.2188" gradientTransform="matrix(1 0 0 1 -200 -1182)">
				<stop  offset="0" style="stop-color:#F7F01E"/>
				<stop  offset="0.1333" style="stop-color:#E19700"/>
				<stop  offset="0.3939" style="stop-color:#F7D41E"/>
				<stop  offset="0.6606" style="stop-color:#FFB600"/>
				<stop  offset="0.8008" style="stop-color:#D18804"/>
				<stop  offset="0.9264" style="stop-color:#E6B312"/>
			</linearGradient>
			<path fill="url(#SVGID_6_)" d="M108.502,142.732c0,2.328-2.631,4.213-5.875,4.213l0,0c-3.246,0-5.875-1.885-5.875-4.213V99.705
				c0-2.326,2.629-4.213,5.875-4.213l0,0c3.244,0,5.875,1.887,5.875,4.213V142.732z"/>
			<g>
				<g>
					
						<radialGradient id="SVGID_7_" cx="369.958" cy="1162.2676" r="24.4116" gradientTransform="matrix(1 0 0 1.0555 -200 -1183.693)" gradientUnits="userSpaceOnUse">
						<stop  offset="0" style="stop-color:#E3E800"/>
						<stop  offset="0.4909" style="stop-color:#FFBB00"/>
						<stop  offset="0.7853" style="stop-color:#FF9A00"/>
						<stop  offset="1" style="stop-color:#C56C12"/>
					</radialGradient>
					<path fill="url(#SVGID_7_)" d="M136.479,111.135c-2.75,1.495-4.383,1.377-6.076-1.098c-2.215-3.232-0.896-8.861,0.312-11.923
						c1.893-4.812,4.918-9.317,8.223-12.501c7.027-6.779,19.373-12.249,21.346-24.42c1.098-6.776-2.021-13.605-6.938-16.513
						c-5.041-2.984-15.601,1.759-13.919,9.833c0.479,2.292-3.803,4.509-4.383,1.724c-2.299-11.03,12.435-23.587,19.699-22.296
						c14.709,2.614,17.883,18.323,13.922,28.781c-4.271,11.27-22.804,20.184-30.136,27.584c-2.799,2.823-10.315,12.708-6.055,17.674
						c1.56,1.812,3.521-1.938,5.221-2.674c2.957-1.285,1.884,3.375-0.155,5.109L136.479,111.135z"/>
				</g>
				<g>
					
						<radialGradient id="SVGID_8_" cx="336.7998" cy="1222.9932" r="2.3681" gradientTransform="matrix(1 0 0 1.0555 -200 -1183.693)" gradientUnits="userSpaceOnUse">
						<stop  offset="0" style="stop-color:#F7D11E"/>
						<stop  offset="0.3939" style="stop-color:#F7941E"/>
						<stop  offset="1" style="stop-color:#CC6300"/>
					</radialGradient>
					<path fill="url(#SVGID_8_)" d="M137.693,105.309c-1.148,0.498-2.414,2.363-3.596,2.969c0.109,0.173,0.234,0.34,0.375,0.496
						c1.5,1.75,3.377-1.662,5.029-2.57C139.467,105.288,138.943,104.766,137.693,105.309z"/>
					
						<radialGradient id="SVGID_9_" cx="345.8496" cy="1195.7529" r="25.4407" gradientTransform="matrix(1 0 0 1.0555 -200 -1183.693)" gradientUnits="userSpaceOnUse">
						<stop  offset="0" style="stop-color:#E3E800"/>
						<stop  offset="0.4909" style="stop-color:#FFBB00"/>
						<stop  offset="0.7853" style="stop-color:#FF9A00"/>
						<stop  offset="1" style="stop-color:#C56C12"/>
					</radialGradient>
					<path fill="url(#SVGID_9_)" d="M132.402,110.83c-1.051-1.535-1.301-3.61-1.15-5.693c-0.303-2.402,0.713-5.229,2.131-7.812
						c1.896-4.209,4.611-8.089,7.547-10.919c7.031-6.779,19.373-12.249,21.346-24.42c1.102-6.776-2.021-13.606-6.936-16.514
						c-0.564-0.335-1.201-0.567-1.879-0.713c4.842,2.948,7.902,9.716,6.814,16.435c-1.977,12.171-14.314,17.641-21.346,24.42
						c-3.305,3.184-6.33,7.688-8.223,12.501c-1.205,3.062-2.521,8.689-0.312,11.923c0.979,1.428,1.939,2.049,3.104,2.052
						C133.131,111.766,132.768,111.363,132.402,110.83z"/>
					
						<radialGradient id="SVGID_10_" cx="347.2539" cy="1164.7412" r="11.8535" gradientTransform="matrix(1 0 0 1.0555 -200 -1183.693)" gradientUnits="userSpaceOnUse">
						<stop  offset="0" style="stop-color:#F7D11E"/>
						<stop  offset="0.3939" style="stop-color:#F7941E"/>
						<stop  offset="1" style="stop-color:#CC6300"/>
					</radialGradient>
					<path fill="url(#SVGID_10_)" d="M137.172,57.441c-0.053-0.125-0.102-0.258-0.133-0.413
						c-2.299-11.03,12.432-23.587,19.699-22.296c1.051,0.187,2.037,0.447,2.971,0.762c-1.482-0.698-3.137-1.228-4.971-1.553
						c-7.268-1.292-21.998,11.266-19.699,22.296C135.289,57.437,136.225,57.705,137.172,57.441z"/>
				</g>
			</g>
			
				<radialGradient id="SVGID_11_" cx="302.123" cy="772.0547" r="41.9871" gradientTransform="matrix(1 0 0 1.6622 -200 -1220.6719)" gradientUnits="userSpaceOnUse">
				<stop  offset="0" style="stop-color:#F7D11E"/>
				<stop  offset="0.3939" style="stop-color:#F7B31E"/>
				<stop  offset="1" style="stop-color:#D49A00"/>
			</radialGradient>
			<path fill="url(#SVGID_11_)" d="M144.807,59.181c0,41.038-18.635,74.308-41.621,74.308h-1.121
				c-22.984,0-41.623-33.271-41.623-74.308V45.265h84.365V59.181z"/>
			
				<radialGradient id="SVGID_12_" cx="598.0488" cy="772.0547" r="41.9855" gradientTransform="matrix(0.8696 0 0 1.6622 -417.8734 -1220.6719)" gradientUnits="userSpaceOnUse">
				<stop  offset="0" style="stop-color:#F7FF1E"/>
				<stop  offset="0.3939" style="stop-color:#F7DC1E"/>
				<stop  offset="1" style="stop-color:#E8A900"/>
			</radialGradient>
			<path fill="url(#SVGID_12_)" d="M139.307,59.181c0,41.038-16.205,74.308-36.195,74.308h-0.975
				c-19.991,0-36.195-33.271-36.195-74.308V45.265h73.365V59.181z"/>
			
				<radialGradient id="SVGID_13_" cx="1210.2891" cy="772.0586" r="41.9871" gradientTransform="matrix(0.6622 0 -0.1135 1.6622 -606.3127 -1220.6719)" gradientUnits="userSpaceOnUse">
				<stop  offset="0" style="stop-color:#F7F01E"/>
				<stop  offset="0.3939" style="stop-color:#F7C71E"/>
				<stop  offset="1" style="stop-color:#F0AC00"/>
			</radialGradient>
			<path fill="url(#SVGID_13_)" d="M133.936,57.495c1.25,43.538-15.344,75.993-30.562,75.993h-0.742
				c-10.941,0-21.441-32.455-22.482-74.308L81.1,45.264h55.863L133.936,57.495z"/>
			
				<radialGradient id="SVGID_14_" cx="302.291" cy="575.5908" r="48.8309" gradientTransform="matrix(1 0 0 2.2129 -200 -1231.6664)" gradientUnits="userSpaceOnUse">
				<stop  offset="0.5399" style="stop-color:#FF9E00;stop-opacity:0"/>
				<stop  offset="0.7395" style="stop-color:#DE6500;stop-opacity:0.8245"/>
				<stop  offset="1" style="stop-color:#FF8B00;stop-opacity:0"/>
			</radialGradient>
			<path fill="url(#SVGID_14_)" d="M144.807,59.181c0,41.038-18.635,74.308-41.621,74.308h-1.121
				c-22.984,0-41.623-33.271-41.623-74.308V45.265h84.365V59.181z"/>
			
				<radialGradient id="SVGID_15_" cx="601.6074" cy="-1480.8706" r="73.5509" gradientTransform="matrix(-4.371139e-08 1.0555 -0.5393 -2.488193e-08 -694.8738 -590.9567)" gradientUnits="userSpaceOnUse">
				<stop  offset="0" style="stop-color:#F7FF1E"/>
				<stop  offset="0.3939" style="stop-color:#F7D21E"/>
				<stop  offset="1" style="stop-color:#FA9A02"/>
			</radialGradient>
			<ellipse fill="url(#SVGID_15_)" cx="102.634" cy="45.621" rx="42.177" ry="17.107"/>
			<g>
				
					<radialGradient id="SVGID_16_" cx="301.9355" cy="1180.5918" r="57.2198" gradientTransform="matrix(1 0 0 1.0555 -200 -1183.693)" gradientUnits="userSpaceOnUse">
					<stop  offset="0" style="stop-color:#F7FF1E"/>
					<stop  offset="0.3939" style="stop-color:#F7CD1E"/>
					<stop  offset="1" style="stop-color:#FFA700"/>
				</radialGradient>
				<path fill="url(#SVGID_16_)" d="M102.633,61.849c-22.639,0-41.107-7.236-42.127-16.314c-0.029,0.262-0.049,0.524-0.049,0.792
					c0,9.447,18.883,17.106,42.176,17.106c23.295,0,42.178-7.659,42.178-17.106c0-0.267-0.02-0.53-0.049-0.792
					C143.74,54.613,125.271,61.849,102.633,61.849z"/>
			</g>
			
				<radialGradient id="SVGID_17_" cx="312.6328" cy="335.0342" r="45.0185" gradientTransform="matrix(1 0 0 4.0706 -200 -1318.3525)" gradientUnits="userSpaceOnUse">
				<stop  offset="0.0613" style="stop-color:#EFD26E"/>
				<stop  offset="0.3497" style="stop-color:#FFD200"/>
				<stop  offset="0.6196" style="stop-color:#CD7724"/>
				<stop  offset="0.8282" style="stop-color:#FCBB00"/>
				<stop  offset="1" style="stop-color:#BD6000"/>
			</radialGradient>
			<ellipse fill="url(#SVGID_17_)" cx="102.633" cy="44.741" rx="38.219" ry="14.424"/>
			<g>
				
					<radialGradient id="SVGID_18_" cx="-3643.3745" cy="3119.6436" r="52.1614" gradientTransform="matrix(-1 0 0 -0.9985 -3540.1045 3145.7153)" gradientUnits="userSpaceOnUse">
					<stop  offset="0" style="stop-color:#F7FF1E"/>
					<stop  offset="0.3939" style="stop-color:#F7CD1E"/>
					<stop  offset="1" style="stop-color:#FFA700"/>
				</radialGradient>
				<path fill="url(#SVGID_18_)" d="M102.633,31.243c20.637,0,37.471,6.24,38.402,14.07c0.025-0.228,0.045-0.454,0.045-0.682
					c0-8.148-17.213-14.753-38.447-14.753c-21.232,0-38.446,6.605-38.446,14.753c0,0.229,0.019,0.455,0.046,0.682
					C65.162,37.482,81.996,31.243,102.633,31.243z"/>
			</g>
			<g>
				<g>
					
						<radialGradient id="SVGID_19_" cx="240.9561" cy="1195.7676" r="16.4467" gradientTransform="matrix(1 0 0 1.0555 -200 -1183.693)" gradientUnits="userSpaceOnUse">
						<stop  offset="0" style="stop-color:#E3E800"/>
						<stop  offset="0.4909" style="stop-color:#FFBB00"/>
						<stop  offset="0.7853" style="stop-color:#FF9A00"/>
						<stop  offset="1" style="stop-color:#C56C12"/>
					</radialGradient>
					<path fill="url(#SVGID_19_)" d="M69.01,123.639c3.25,0.088,5.166-0.881,7.127-4.27c2.561-4.428,0.939-9.449-0.512-11.93
						c-2.281-3.896-5.897-6.895-9.814-8.404c-8.346-3.221-22.915-2.356-25.383-13.671c-1.375-6.3,2.203-14.845,7.941-20.345
						c5.887-5.644,18.352-6.319,16.475,2.741c-0.532,2.571,4.525,2.595,5.172-0.53c2.564-12.377-14.902-17.458-23.422-12.374
						c-17.25,10.291-20.785,27.868-16,36.413c5.154,9.211,27.041,8.623,35.75,12.316c3.322,1.407,12.281,7.522,7.332,14.774
						c-1.805,2.646-4.158-0.135-6.166,0c-3.49,0.229-2.166,4.396,0.25,5.102L69.01,123.639z"/>
				</g>
				<g>
					
						<radialGradient id="SVGID_20_" cx="259.0645" cy="1214.8486" r="12.3737" gradientTransform="matrix(1 0 0 1.0555 -200 -1183.693)" gradientUnits="userSpaceOnUse">
						<stop  offset="0" style="stop-color:#F7D11E"/>
						<stop  offset="0.3939" style="stop-color:#F7941E"/>
						<stop  offset="1" style="stop-color:#CC6300"/>
					</radialGradient>
					<path fill="url(#SVGID_20_)" d="M43.197,90.791c4.541,7.494,16.633,7.182,23.945,10.004c2.904,1.121,5.639,3.061,7.789,5.573
						c-2.286-3.368-5.574-5.962-9.121-7.333C59.125,96.455,48.451,96.49,43.197,90.791z"/>
					
						<radialGradient id="SVGID_21_" cx="265.5039" cy="1184.6934" r="1.9802" gradientTransform="matrix(1 0 0 1.0555 -200 -1183.693)" gradientUnits="userSpaceOnUse">
						<stop  offset="0" style="stop-color:#F7D11E"/>
						<stop  offset="0.3939" style="stop-color:#F7941E"/>
						<stop  offset="1" style="stop-color:#CC6300"/>
					</radialGradient>
					<path fill="url(#SVGID_21_)" d="M64.641,63.939c0.418,1.006,0.525,2.267,0.203,3.821c-0.207,1,0.436,1.609,1.33,1.803
						c0.004-0.016,0-0.028,0.004-0.043C66.728,66.857,66.035,65.042,64.641,63.939z"/>
					
						<radialGradient id="SVGID_22_" cx="248.7314" cy="1190.6328" r="19.5805" gradientTransform="matrix(1 0 0 1.0555 -200 -1183.693)" gradientUnits="userSpaceOnUse">
						<stop  offset="0" style="stop-color:#E3E800"/>
						<stop  offset="0.4909" style="stop-color:#FFBB00"/>
						<stop  offset="0.7853" style="stop-color:#FF9A00"/>
						<stop  offset="1" style="stop-color:#C56C12"/>
					</radialGradient>
					<path fill="url(#SVGID_22_)" d="M31.926,93.031c-4.783-8.547-1.25-26.124,16-36.414c5.881-3.509,16.018-2.175,20.895,3.055
						c-4.062-6.657-15.736-8.688-22.227-4.816c-17.25,10.291-20.785,27.868-16,36.413c0.377,0.676,0.855,1.293,1.402,1.868
						C31.975,93.101,31.947,93.066,31.926,93.031z"/>
					
						<radialGradient id="SVGID_23_" cx="270.9238" cy="1231.7627" r="5.9153" gradientTransform="matrix(1 0 0 1.0555 -200 -1183.693)" gradientUnits="userSpaceOnUse">
						<stop  offset="0" style="stop-color:#F7D11E"/>
						<stop  offset="0.3939" style="stop-color:#F7941E"/>
						<stop  offset="1" style="stop-color:#CC6300"/>
					</radialGradient>
					<path fill="url(#SVGID_23_)" d="M68.842,120.121c2.008-0.135,4.361,2.646,6.168,0c2.709-3.971,1.248-7.598-1.172-10.301
						c1.51,2.435,1.996,5.379-0.162,8.541c-1.805,2.646-4.158-0.135-6.166,0c-3.051,0.203-2.424,3.41-0.604,4.684
						C66.42,121.71,66.82,120.256,68.842,120.121z"/>
				</g>
			</g>
			
				<linearGradient id="SVGID_24_" gradientUnits="userSpaceOnUse" x1="288.959" y1="1226.7402" x2="310.9989" y2="1226.7402" gradientTransform="matrix(1 0 0 1 -200 -1182)">
				<stop  offset="0.3865" style="stop-color:#E38500;stop-opacity:0"/>
				<stop  offset="1" style="stop-color:#AB4200;stop-opacity:0.61"/>
			</linearGradient>
			<ellipse fill="url(#SVGID_24_)" cx="102.633" cy="44.741" rx="38.219" ry="14.424"/>
		</g>
	</g>
</g>
</svg>
