<?xml version="1.0" encoding="utf-8"?>
<!-- Generator: Adobe Illustrator 15.0.0, SVG Export Plug-In . SVG Version: 6.00 Build 0)  -->
<!DOCTYPE svg PUBLIC "-//W3C//DTD SVG 1.1//EN" "http://www.w3.org/Graphics/SVG/1.1/DTD/svg11.dtd">
<svg version="1.1" id="Layer_1" xmlns="http://www.w3.org/2000/svg" xmlns:xlink="http://www.w3.org/1999/xlink" x="0px" y="0px"
	 width="200px" height="200px" viewBox="0 0 200 200" enable-background="new 0 0 200 200" xml:space="preserve">
<g id="icon">
	<g id="Layer_2">
	</g>
	<g id="Layer_1_1_">
		<g>
			<polygon fill="#FFFFFF" points="171.23,25.059 188.072,22.128 183.605,39.678 			"/>
			<g>
				<g>
					
						<radialGradient id="SVGID_1_" cx="236.1143" cy="1337.8848" r="20.7443" gradientTransform="matrix(1 0 0 1 -200 -1182)" gradientUnits="userSpaceOnUse">
						<stop  offset="0" style="stop-color:#FFC000"/>
						<stop  offset="0.6626" style="stop-color:#FF8600"/>
					</radialGradient>
					<path fill="url(#SVGID_1_)" d="M15.381,172.625c-1.328-3.057,0.051-5.512,1.312-7.2l0.03-1.415
						c0.005-0.242,0.006-0.496,0.008-0.76c0.007-1.566,0.021-4.418,1.419-6.657l-3.138-2.681l5.79-1.344
						c0.225-0.051,0.299-0.104,0.3-0.104c0.117-0.116,0.326-0.696,0.464-1.081c0.189-0.521,0.413-1.143,0.749-1.787
						c-0.068-0.261-0.105-0.529-0.111-0.812l-0.01-0.433l0.112-0.416c1.067-3.97,3.469-7.188,7.139-9.572
						c2.842-1.853,5.624-2.678,9.017-2.678c0.905,0,1.841,0.062,2.863,0.183c4.389,0.521,8.048,1.683,11.641,5.679
						c4.695,5.229,5.736,12.067,2.717,17.85c-0.166,0.315-4.129,7.824-9.288,9.816c-0.602,0.23-1.045,0.579-1.659,1.059
						c-0.673,0.523-1.511,1.181-2.686,1.754l-2.167,1.061l-1.426-1.795c-0.052,0.003-0.394,0.023-0.52,0.035
						c-0.004,0.018-0.009,0.033-0.013,0.053c-0.257,1.023-1.041,4.146-4.307,4.146c0,0,0,0-0.001,0
						c-0.801,0-1.627-0.219-2.519-0.666c-1.346,0.718-2.818,1.104-4.301,1.104c-1.757,0-3.432-0.523-4.979-1.562l-0.278-0.188
						l-0.23-0.244c-0.064-0.066-0.126-0.137-0.185-0.205c-0.222-0.021-0.429-0.037-0.613-0.037c-0.429,0-0.536,0.076-0.6,0.127
						l-3.031,2.231L15.381,172.625z"/>
				</g>
				<g>
					
						<radialGradient id="SVGID_2_" cx="-3726.7397" cy="6020.1387" r="4.3922" gradientTransform="matrix(-0.3233 -0.8763 0.8174 -0.0684 -6099.7358 -2688.9089)" gradientUnits="userSpaceOnUse">
						<stop  offset="0" style="stop-color:#FFE600"/>
						<stop  offset="1" style="stop-color:#FFAE00"/>
					</radialGradient>
					<path fill="url(#SVGID_2_)" d="M29.895,162.898c-3.198-1.791-7.087,2.065-7.677,4.724c2.994,0.799,4.006-2.759,5.809-4.081
						C28.686,163.059,29.634,163.258,29.895,162.898z"/>
					
						<radialGradient id="SVGID_3_" cx="-3728.2524" cy="6024.8477" r="4.5603" gradientTransform="matrix(-0.3233 -0.8763 0.8174 -0.0684 -6099.7358 -2688.9089)" gradientUnits="userSpaceOnUse">
						<stop  offset="0" style="stop-color:#FFE600"/>
						<stop  offset="1" style="stop-color:#FFAE00"/>
					</radialGradient>
					<path fill="url(#SVGID_3_)" d="M28.167,167.867c-0.045,0.095-0.185,0.169-0.062,0.301c-0.114,0.43-0.602,0.777-1.021,1.141
						c4.983,1.521,4.735-4.229,6.362-6.789C30.294,162.094,28.466,165.568,28.167,167.867z"/>
					
						<radialGradient id="SVGID_4_" cx="-3715.8711" cy="6039.3896" r="16.2646" gradientTransform="matrix(-0.3233 -0.8763 0.8174 -0.0684 -6099.7358 -2688.9089)" gradientUnits="userSpaceOnUse">
						<stop  offset="0" style="stop-color:#FFE600"/>
						<stop  offset="1" style="stop-color:#FFAE00"/>
					</radialGradient>
					<path fill="url(#SVGID_4_)" d="M29.001,148.354c1.208-0.666,2.698,0.438,4.012,0.453c-1.342,1.316-5.091,0.732-5.266,3.36
						c-0.079,0.124-0.005,0.278,0.069,0.435c-0.375,0.758,0.223,1.729-0.719,2.356c1.839,1.028,2.177-0.726,3.187-1.299
						c1.252-0.708,3.711,0.302,4.677-0.869c-0.281,0.498-0.438,1.022-1.084,1.44c-0.168-0.145-0.293-0.015-0.418,0.119
						c-3.015,0.129-2.144,3.414-3.122,4.455c-1.097,1.168-4.809,0.072-4.462,2.903c0.237-0.353,0.536-0.301,0.803-0.454
						c0.167,0.135,0.31,0.112,0.455,0.104c1.946,0.463,3.978,1.482,5.172,0.179c0.529-0.578,0.211-1.874,0.815-2.44
						c0.906-0.851,2.168-0.271,3.387-0.729c-0.214,0.714,0.582,1.855,0.092,2.64c-0.546,0.87-2.044,1.019-2.665,1.831
						c-1.017,1.342-0.394,2.73,0.533,4.727c0.336-0.349,0.057-0.824,0.247-1.203c0.952-1.416,2.549-0.571,3.578-0.899
						c2.254-0.713,1.831-2.937,1.788-5.267c0.052-0.062,0.096-0.119-0.033-0.217c0.2-0.623,0.325-1.812,1.11-1.959
						c-0.66,1.609,2.784,4.53,1.05,5.565c0.454,0.226-0.576,0.726-0.178,0.591c3.862-0.396,6.826-4.501,8.297-6.688
						c1.742-2.475,3.73-13.565-7.68-16.051C34.094,139.771,28.84,145.088,29.001,148.354z"/>
					
						<radialGradient id="SVGID_5_" cx="-3719.3569" cy="6023.2832" r="3.2978" gradientTransform="matrix(-0.3233 -0.8763 0.8174 -0.0684 -6099.7358 -2688.9089)" gradientUnits="userSpaceOnUse">
						<stop  offset="0" style="stop-color:#FFE600"/>
						<stop  offset="1" style="stop-color:#FFAE00"/>
					</radialGradient>
					<path fill="url(#SVGID_5_)" d="M28.823,156.173c-1.457,1.537-6.455,0.712-5.32,4.396
						C24.453,158.911,29.79,159.609,28.823,156.173z"/>
				</g>
				
					<radialGradient id="SVGID_6_" cx="-3712.0498" cy="6048.2637" r="6.7698" gradientTransform="matrix(-0.3233 -0.8763 0.8174 -0.0684 -6099.7358 -2688.9089)" gradientUnits="userSpaceOnUse">
					<stop  offset="0" style="stop-color:#FFFFD7"/>
					<stop  offset="0.2089" style="stop-color:#FFFFD4"/>
					<stop  offset="0.3515" style="stop-color:#FFFDCB"/>
					<stop  offset="0.4743" style="stop-color:#FFFBBC"/>
					<stop  offset="0.5858" style="stop-color:#FFF9A6"/>
					<stop  offset="0.6899" style="stop-color:#FFF58A"/>
					<stop  offset="0.7884" style="stop-color:#FFF168"/>
					<stop  offset="0.8824" style="stop-color:#FFEB3F"/>
					<stop  offset="0.9708" style="stop-color:#FFE511"/>
					<stop  offset="1" style="stop-color:#FFE300"/>
				</radialGradient>
				<path fill="url(#SVGID_6_)" d="M47.786,156.73c0,0,1.295-3.043,1.199-5.211c-0.097-2.17-0.546-6.392-4.548-7.195
					c-4.004-0.811-7.302-0.318-7.399,0.072c0,0,2.352,1.396,3.399,0.994c1.049-0.404,3.07,0.965,2.932,1.604
					c-0.11,0.506-0.675,0.195-0.833,0.387c-0.25,0.301-0.349,0.919-0.349,0.919s0.405-0.424,1.255-0.14
					c0.661,0.222,1.526,0.718,1.425,1.488c-0.139,1.066,0.679,2.617,0.679,2.617L46.175,151c0.398,1.497,1.288,1.912,1.127,3.419
					C47.132,156.023,47.786,156.73,47.786,156.73z"/>
				
					<radialGradient id="SVGID_7_" cx="-3711.625" cy="6043.502" r="2.2073" gradientTransform="matrix(-0.3233 -0.8763 0.8174 -0.0684 -6099.7358 -2688.9089)" gradientUnits="userSpaceOnUse">
					<stop  offset="0" style="stop-color:#FFFFD7"/>
					<stop  offset="0.2089" style="stop-color:#FFFFD4"/>
					<stop  offset="0.3515" style="stop-color:#FFFDCB"/>
					<stop  offset="0.4743" style="stop-color:#FFFBBC"/>
					<stop  offset="0.5858" style="stop-color:#FFF9A6"/>
					<stop  offset="0.6899" style="stop-color:#FFF58A"/>
					<stop  offset="0.7884" style="stop-color:#FFF168"/>
					<stop  offset="0.8824" style="stop-color:#FFEB3F"/>
					<stop  offset="0.9708" style="stop-color:#FFE511"/>
					<stop  offset="1" style="stop-color:#FFE300"/>
				</radialGradient>
				<path fill="url(#SVGID_7_)" d="M42.149,148.952c0,0,0.355,1.125-0.223,1.625c-0.577,0.504-3.496,0.255-3.664,0.812
					c-0.168,0.555,0.396-1.851,1.835-1.945C41.114,149.376,42.207,149.445,42.149,148.952z"/>
				
					<radialGradient id="SVGID_8_" cx="-3717.0112" cy="6045.7529" r="1.9315" gradientTransform="matrix(-0.3233 -0.8763 0.8174 -0.0684 -6099.7358 -2688.9089)" gradientUnits="userSpaceOnUse">
					<stop  offset="0" style="stop-color:#FFFFD7"/>
					<stop  offset="0.2089" style="stop-color:#FFFFD4"/>
					<stop  offset="0.3515" style="stop-color:#FFFDCB"/>
					<stop  offset="0.4743" style="stop-color:#FFFBBC"/>
					<stop  offset="0.5858" style="stop-color:#FFF9A6"/>
					<stop  offset="0.6899" style="stop-color:#FFF58A"/>
					<stop  offset="0.7884" style="stop-color:#FFF168"/>
					<stop  offset="0.8824" style="stop-color:#FFEB3F"/>
					<stop  offset="0.9708" style="stop-color:#FFE511"/>
					<stop  offset="1" style="stop-color:#FFE300"/>
				</radialGradient>
				<path fill="url(#SVGID_8_)" d="M45.139,153.307c0,0-0.333,1.271-1.434,1.047c-1.463-0.293-1.312,1.896-1.312,1.896
					s0.172-0.6,2-0.65C45.362,155.57,46.142,155.709,45.139,153.307z"/>
				
					<radialGradient id="SVGID_9_" cx="-3705.8325" cy="6038.2803" r="1.7319" gradientTransform="matrix(-0.3233 -0.8763 0.8174 -0.0684 -6099.7358 -2688.9089)" gradientUnits="userSpaceOnUse">
					<stop  offset="0" style="stop-color:#FFFFD7"/>
					<stop  offset="0.2089" style="stop-color:#FFFFD4"/>
					<stop  offset="0.3515" style="stop-color:#FFFDCB"/>
					<stop  offset="0.4743" style="stop-color:#FFFBBC"/>
					<stop  offset="0.5858" style="stop-color:#FFF9A6"/>
					<stop  offset="0.6899" style="stop-color:#FFF58A"/>
					<stop  offset="0.7884" style="stop-color:#FFF168"/>
					<stop  offset="0.8824" style="stop-color:#FFEB3F"/>
					<stop  offset="0.9708" style="stop-color:#FFE511"/>
					<stop  offset="1" style="stop-color:#FFE300"/>
				</radialGradient>
				<path fill="url(#SVGID_9_)" d="M35.613,144.546c0,0-1.808,0.011-2.466,0.72c-0.659,0.711-0.656,1.188-0.656,1.188
					S35.318,145.625,35.613,144.546z"/>
				
					<radialGradient id="SVGID_10_" cx="-3721.8647" cy="6046.291" r="1.5253" gradientTransform="matrix(-0.3233 -0.8763 0.8174 -0.0684 -6099.7358 -2688.9089)" gradientUnits="userSpaceOnUse">
					<stop  offset="0" style="stop-color:#FFFFD7"/>
					<stop  offset="0.2089" style="stop-color:#FFFFD4"/>
					<stop  offset="0.3515" style="stop-color:#FFFDCB"/>
					<stop  offset="0.4743" style="stop-color:#FFFBBC"/>
					<stop  offset="0.5858" style="stop-color:#FFF9A6"/>
					<stop  offset="0.6899" style="stop-color:#FFF58A"/>
					<stop  offset="0.7884" style="stop-color:#FFF168"/>
					<stop  offset="0.8824" style="stop-color:#FFEB3F"/>
					<stop  offset="0.9708" style="stop-color:#FFE511"/>
					<stop  offset="1" style="stop-color:#FFE300"/>
				</radialGradient>
				<path fill="url(#SVGID_10_)" d="M47,157.966c0,0-0.098,1.86-2.438,2.058c0,0,0.313-1.021,0.791-1.373
					C45.833,158.302,47,157.966,47,157.966z"/>
				
					<radialGradient id="SVGID_11_" cx="-3.2939" cy="3214.1143" r="70.229" gradientTransform="matrix(1.078 -0.0417 -0.1565 1.6094 509.8822 -5002.5957)" gradientUnits="userSpaceOnUse">
					<stop  offset="0.3436" style="stop-color:#8B0000"/>
					<stop  offset="0.545" style="stop-color:#890000"/>
					<stop  offset="0.6176" style="stop-color:#820000"/>
					<stop  offset="0.6693" style="stop-color:#770000"/>
					<stop  offset="0.7111" style="stop-color:#660000"/>
					<stop  offset="0.7469" style="stop-color:#500000"/>
					<stop  offset="0.7786" style="stop-color:#340000"/>
					<stop  offset="0.8066" style="stop-color:#150000"/>
					<stop  offset="0.8221" style="stop-color:#000000"/>
					<stop  offset="1" style="stop-color:#620000"/>
				</radialGradient>
				<path fill="url(#SVGID_11_)" d="M64.28,130.811c7.76,8.621,8.592,20.523,1.855,26.588c-6.734,6.062-18.484,3.985-26.246-4.635
					c-7.759-8.621-8.59-20.521-1.855-26.587C44.77,120.115,56.52,122.189,64.28,130.811z"/>
				<path fill="#FFFFFF" d="M80.388,91.399c-1.137,7.541-6.248,14.251-11.424,15.056c-5.164,0.785-8.447-4.646-7.295-12.159
					c1.123-7.494,6.236-14.225,11.406-15.022C78.252,78.47,81.521,83.905,80.388,91.399z"/>
				<g>
					
						<radialGradient id="SVGID_12_" cx="322.4297" cy="1325.957" r="28.058" gradientTransform="matrix(1 0 0 1 -200 -1182)" gradientUnits="userSpaceOnUse">
						<stop  offset="0.3436" style="stop-color:#FF0000"/>
						<stop  offset="0.5854" style="stop-color:#FD0000"/>
						<stop  offset="0.6724" style="stop-color:#F60000"/>
						<stop  offset="0.7345" style="stop-color:#EB0000"/>
						<stop  offset="0.7844" style="stop-color:#DA0000"/>
						<stop  offset="0.8221" style="stop-color:#C70000"/>
						<stop  offset="1" style="stop-color:#F10000"/>
					</radialGradient>
					<path fill="url(#SVGID_12_)" d="M113.593,159.068c-5.228,4.562-22.356,16.578-24.189,14.496l-6.598-43.088
						c19.764-17.338,41.305-6.568,43.081-4.479C125.887,125.997,133.336,141.771,113.593,159.068z"/>
					
						<linearGradient id="SVGID_13_" gradientUnits="userSpaceOnUse" x1="299.1416" y1="1327.4453" x2="306.902" y2="1344.7559" gradientTransform="matrix(1 0 0 1 -200 -1182)">
						<stop  offset="0" style="stop-color:#950000"/>
						<stop  offset="1" style="stop-color:#F10000"/>
					</linearGradient>
					<path fill="url(#SVGID_13_)" d="M108.854,163.135c-5.228,4.562-22.354,16.577-24.188,14.497l-6.597-43.09
						c19.762-17.336,41.305-6.567,43.082-4.479C121.146,130.062,128.598,145.836,108.854,163.135z"/>
					
						<linearGradient id="SVGID_14_" gradientUnits="userSpaceOnUse" x1="257.4707" y1="1278.9375" x2="238.6676" y2="1266.7012" gradientTransform="matrix(1 0 0 1 -200 -1182)">
						<stop  offset="0" style="stop-color:#950000"/>
						<stop  offset="1" style="stop-color:#F10000"/>
					</linearGradient>
					<path fill="url(#SVGID_14_)" d="M38.642,83.128c-5.203,4.55-19.34,19.974-17.498,22.062l41.845,12.188
						C82.766,100.017,74.887,77.299,73.075,75.2C73.075,75.199,58.384,65.788,38.642,83.128z"/>
					
						<radialGradient id="SVGID_15_" cx="873.0176" cy="113.2959" r="119.5831" gradientTransform="matrix(0.6375 0.7704 -1.0642 0.8807 -375.7085 -746.1138)" gradientUnits="userSpaceOnUse">
						<stop  offset="0.3436" style="stop-color:#FF0000"/>
						<stop  offset="0.5854" style="stop-color:#FD0000"/>
						<stop  offset="0.6724" style="stop-color:#F60000"/>
						<stop  offset="0.7345" style="stop-color:#EB0000"/>
						<stop  offset="0.7844" style="stop-color:#DA0000"/>
						<stop  offset="0.8221" style="stop-color:#C70000"/>
						<stop  offset="1" style="stop-color:#F10000"/>
					</radialGradient>
					<path fill="url(#SVGID_15_)" d="M47.757,145.178c8.039,9.152,20.311,13.202,31.928,10.967
						c22.816-9.679,47.732-25.109,62.736-38.289c39.804-34.878,30.442-81.778,30.442-81.778s-45.262-15.41-85.06,19.473
						C72.768,68.76,54.268,91.403,41.691,112.73C38.642,122.977,39.637,135.923,47.757,145.178z"/>
					
						<radialGradient id="SVGID_16_" cx="254.6729" cy="1285.6016" r="75.7701" gradientTransform="matrix(1 0 0 1 -200 -1182)" gradientUnits="userSpaceOnUse">
						<stop  offset="0.3436" style="stop-color:#8B0000"/>
						<stop  offset="0.545" style="stop-color:#890000"/>
						<stop  offset="0.6176" style="stop-color:#820000"/>
						<stop  offset="0.6693" style="stop-color:#770000"/>
						<stop  offset="0.7111" style="stop-color:#660000"/>
						<stop  offset="0.7469" style="stop-color:#500000"/>
						<stop  offset="0.7786" style="stop-color:#340000"/>
						<stop  offset="0.8066" style="stop-color:#150000"/>
						<stop  offset="0.8221" style="stop-color:#000000"/>
						<stop  offset="1" style="stop-color:#620000"/>
					</radialGradient>
					<path fill="url(#SVGID_16_)" d="M56.589,152.34c0,0-6.031-2.804-8.023-5.049c-1.926-2.229-12.188-1.305-5.551-7.148
						c24.131-21.164,39.56-28.85,41.51-26.629C86.468,115.741,75.39,132.832,56.589,152.34z"/>
					
						<linearGradient id="SVGID_17_" gradientUnits="userSpaceOnUse" x1="230.7012" y1="1317.749" x2="285.6064" y2="1317.749" gradientTransform="matrix(1 0 0 1 -200 -1182)">
						<stop  offset="0" style="stop-color:#950000"/>
						<stop  offset="1" style="stop-color:#F10000"/>
					</linearGradient>
					<path fill="url(#SVGID_17_)" d="M45.308,154.039c-6.38,5.579-11.931,7.281-13.924,5.036c-1.926-2.229,0.185-7.265,6.821-13.108
						c24.13-21.165,45.307-36.51,47.258-34.289C87.407,113.905,69.401,132.878,45.308,154.039z"/>
					
						<radialGradient id="SVGID_18_" cx="264.5293" cy="1311.0332" r="111.4127" gradientTransform="matrix(1 0 0 1 -200 -1182)" gradientUnits="userSpaceOnUse">
						<stop  offset="0.3436" style="stop-color:#FF0000"/>
						<stop  offset="0.5854" style="stop-color:#FD0000"/>
						<stop  offset="0.6724" style="stop-color:#F60000"/>
						<stop  offset="0.7345" style="stop-color:#EB0000"/>
						<stop  offset="0.7844" style="stop-color:#DA0000"/>
						<stop  offset="0.8221" style="stop-color:#C70000"/>
						<stop  offset="1" style="stop-color:#F10000"/>
					</radialGradient>
					<path fill="url(#SVGID_18_)" d="M43.75,152.262c-6.376,5.584-11.237,8.072-12.36,6.819c-1.071-1.255,1.734-5.497,8.375-11.337
						c24.131-21.165,44.604-37.312,45.696-36.068C86.548,112.925,67.849,131.107,43.75,152.262z"/>
				</g>
				<g>
					
						<radialGradient id="SVGID_19_" cx="-870.5547" cy="2655.8008" r="13.7245" gradientTransform="matrix(0.8399 0.5428 0.5428 -0.8399 -618.2748 2783.552)" gradientUnits="userSpaceOnUse">
						<stop  offset="0.2892" style="stop-color:#B5B5B5"/>
						<stop  offset="0.3849" style="stop-color:#B0B0B0"/>
						<stop  offset="0.4995" style="stop-color:#A1A1A1"/>
						<stop  offset="0.6238" style="stop-color:#898989"/>
						<stop  offset="0.755" style="stop-color:#676767"/>
						<stop  offset="0.8902" style="stop-color:#3D3D3D"/>
						<stop  offset="1" style="stop-color:#141414"/>
					</radialGradient>
					<path fill="url(#SVGID_19_)" d="M102.027,86.814c4.552-7.042,3.854-15.703-1.548-19.345
						c-5.408-3.644-13.592-0.716-18.281,6.538c-4.688,7.251-3.992,15.912,1.553,19.343C89.295,96.78,97.478,93.853,102.027,86.814z"
						/>
					
						<linearGradient id="SVGID_20_" gradientUnits="userSpaceOnUse" x1="223.9473" y1="2222.3887" x2="156.2178" y2="2295.0818" gradientTransform="matrix(0.9837 0.1796 0.1796 -0.9837 -511.1197 2251.7651)">
						<stop  offset="0" style="stop-color:#8DA6C7"/>
						<stop  offset="0.7301" style="stop-color:#000000"/>
						<stop  offset="0.8098" style="stop-color:#08090B"/>
						<stop  offset="1" style="stop-color:#3F4A5D"/>
					</linearGradient>
					<path fill="url(#SVGID_20_)" d="M102.027,86.814c4.552-7.042,3.859-15.703-1.548-19.345c-5.408-3.644-13.592-0.716-18.28,6.538
						c-4.688,7.251-3.991,15.912,1.552,19.343C89.296,96.78,97.478,93.853,102.027,86.814z"/>
					<g>
						
							<radialGradient id="SVGID_21_" cx="-881.3359" cy="2656.7598" r="12.832" gradientTransform="matrix(0.8399 0.5428 0.5428 -0.8399 -618.2748 2783.552)" gradientUnits="userSpaceOnUse">
							<stop  offset="0" style="stop-color:#472D60"/>
							<stop  offset="1" style="stop-color:#000D1E"/>
						</radialGradient>
						<path fill="url(#SVGID_21_)" d="M101.997,86.688c4.224-6.532,3.476-14.623-1.668-18.072
							c-5.141-3.448-12.828-0.801-17.166,5.909c-4.338,6.709-3.59,14.8,1.668,18.068C90.091,95.86,97.776,93.218,101.997,86.688z"/>
					</g>
					
						<radialGradient id="SVGID_22_" cx="239.2207" cy="2301.7363" r="22.0432" gradientTransform="matrix(0.9729 0.1892 0.1658 -0.9713 -528.5435 2267.564)" gradientUnits="userSpaceOnUse">
						<stop  offset="0.1902" style="stop-color:#28FFFF"/>
						<stop  offset="0.7546" style="stop-color:#000000;stop-opacity:0"/>
					</radialGradient>
					<path fill="url(#SVGID_22_)" d="M102.467,70.858c-3.677-4.987-11.085-4.563-16.571,0.997c-5.508,5.59-6.93,14.064-3.145,18.886
						c3.803,4.793,11.291,4.24,16.688-1.178C104.82,84.169,106.163,75.817,102.467,70.858z"/>
					
						<linearGradient id="SVGID_23_" gradientUnits="userSpaceOnUse" x1="207.9551" y1="2246.6934" x2="212.971" y2="2250.0017" gradientTransform="matrix(0.9837 0.1796 0.1796 -0.9837 -511.1197 2251.7651)">
						<stop  offset="0" style="stop-color:#86FF97;stop-opacity:0"/>
						<stop  offset="1" style="stop-color:#00C0FF"/>
					</linearGradient>
					<path opacity="0.71" fill="url(#SVGID_23_)" enable-background="new    " d="M104.184,79.031
						c0.422-5.626-2.738-10.09-7.083-9.931c-4.355,0.18-8.27,4.953-8.715,10.624c-0.429,5.642,2.801,10.001,7.182,9.779
						C99.937,89.306,103.779,84.634,104.184,79.031z"/>
					
						<radialGradient id="SVGID_24_" cx="753.1934" cy="1468.4502" r="15.8716" gradientTransform="matrix(0.9449 -0.3054 -0.0813 -0.8691 -496.4664 1598.6345)" gradientUnits="userSpaceOnUse">
						<stop  offset="0" style="stop-color:#B1FFFF"/>
						<stop  offset="1" style="stop-color:#008BFF"/>
					</radialGradient>
					<path opacity="0.71" fill="url(#SVGID_24_)" enable-background="new    " d="M94.517,84.767
						c-0.002,1.669-2.361,6.628-3.568,7.666c-3.466-0.173-6.148-2.146-7.414-5.11c1.869-1.366,5.127-3.356,7.279-4.913
						C91.494,83.632,92.327,84.744,94.517,84.767z"/>
					
						<radialGradient id="SVGID_25_" cx="-911.9873" cy="2669.1865" r="26.6106" gradientTransform="matrix(0.7152 0.452 0.5428 -0.8399 -694.7224 2729.3037)" gradientUnits="userSpaceOnUse">
						<stop  offset="0" style="stop-color:#83FFFF"/>
						<stop  offset="1" style="stop-color:#2368FF"/>
					</radialGradient>
					<path opacity="0.26" fill="url(#SVGID_25_)" enable-background="new    " d="M99.104,88.928
						c-0.622,0.614-1.271,1.159-1.941,1.636c4.381-5.012,5.264-12.236,1.891-16.644c-3.117-4.099-8.898-4.334-13.737-0.856
						c0.253-0.291,0.511-0.578,0.788-0.856c5.125-5.136,12.131-5.461,15.668-0.767C105.327,76.112,104.145,83.924,99.104,88.928z"/>
				</g>
				
					<radialGradient id="SVGID_26_" cx="288.4072" cy="1254.3232" r="52.1283" gradientTransform="matrix(1 0 0 1 -200 -1182)" gradientUnits="userSpaceOnUse">
					<stop  offset="0.3436" style="stop-color:#8B0000"/>
					<stop  offset="0.545" style="stop-color:#890000"/>
					<stop  offset="0.6176" style="stop-color:#820000"/>
					<stop  offset="0.6693" style="stop-color:#770000"/>
					<stop  offset="0.7111" style="stop-color:#660000"/>
					<stop  offset="0.7469" style="stop-color:#500000"/>
					<stop  offset="0.7786" style="stop-color:#340000"/>
					<stop  offset="0.8066" style="stop-color:#150000"/>
					<stop  offset="0.8221" style="stop-color:#000000"/>
					<stop  offset="1" style="stop-color:#620000"/>
				</radialGradient>
				<path fill="url(#SVGID_26_)" d="M98.423,89.909c-9.375,7.97-19.473,3.19-19.291-6.248c0.223-11.194,14.006-22.665,21.515-15.316
					C105.432,72.956,105.521,83.504,98.423,89.909 M84.048,65.65c-18.334,18.094-10.709,35.262,3.564,35.484
					c19.982,0.267,29.678-26.641,17.664-38.247C100.026,57.638,92.056,58.604,84.048,65.65"/>
				<path fill="#FFFFFF" d="M98.423,89.909c-9.375,7.97-19.473,3.19-19.291-6.248c0.223-11.194,14.006-22.665,21.515-15.316
					C105.432,72.956,105.521,83.504,98.423,89.909 M84.723,67.28c-15.853,15.645-9.259,30.488,3.083,30.681
					c17.275,0.231,25.659-23.034,15.272-33.068C98.538,60.354,91.646,61.188,84.723,67.28"/>
				
					<radialGradient id="SVGID_27_" cx="877.7158" cy="232.9785" r="90.0961" gradientTransform="matrix(0.7236 0.6902 -1.0412 1.0916 -303.476 -818.0208)" gradientUnits="userSpaceOnUse">
					<stop  offset="0.3436" style="stop-color:#8B0000"/>
					<stop  offset="0.5166" style="stop-color:#890000"/>
					<stop  offset="0.5789" style="stop-color:#820000"/>
					<stop  offset="0.6234" style="stop-color:#770000"/>
					<stop  offset="0.6593" style="stop-color:#660000"/>
					<stop  offset="0.6901" style="stop-color:#500000"/>
					<stop  offset="0.7173" style="stop-color:#340000"/>
					<stop  offset="0.7413" style="stop-color:#150000"/>
					<stop  offset="0.7546" style="stop-color:#000000"/>
					<stop  offset="0.8037" style="stop-color:#620000"/>
				</radialGradient>
				<path fill="url(#SVGID_27_)" d="M172.863,36.073c0,0-15.5-5.271-36.331-2.662c-1.541,2.061-3.093,11.636,2.571,21.899
					c8.504,15.406,28.168,23.015,31.918,16.069C175.954,51.574,172.863,36.073,172.863,36.073z"/>
			</g>
		</g>
	</g>
</g>
</svg>
