<?xml version="1.0" encoding="utf-8"?>
<!-- Generator: Adobe Illustrator 15.0.0, SVG Export Plug-In . SVG Version: 6.00 Build 0)  -->
<!DOCTYPE svg PUBLIC "-//W3C//DTD SVG 1.1//EN" "http://www.w3.org/Graphics/SVG/1.1/DTD/svg11.dtd">
<svg version="1.1" id="Layer_1" xmlns="http://www.w3.org/2000/svg" xmlns:xlink="http://www.w3.org/1999/xlink" x="0px" y="0px"
	 width="200px" height="200px" viewBox="0 0 200 200" enable-background="new 0 0 200 200" xml:space="preserve">
<g id="icon">
	<g id="Layer_2">
	</g>
	<g id="Layer_1_1_">
		<g>
			
				<linearGradient id="SVGID_1_" gradientUnits="userSpaceOnUse" x1="218.1963" y1="-556.8984" x2="245.8269" y2="-674.3296" gradientTransform="matrix(1 0 0 -1 -150 -530)">
				<stop  offset="0.1758" style="stop-color:#08DEFF"/>
				<stop  offset="0.6485" style="stop-color:#44B1E8"/>
			</linearGradient>
			<path fill="url(#SVGID_1_)" d="M147.923,114.57c-2.03-10.077-7.407-50.263-9.997-60.583c-1.725-6.869-3.769-12.616-6.357-15.219
				c-6.021-6.057-19.42-0.823-27.896,1.014c-11.56,2.504-21.005,4.552-31.119,6.743c-3.775-5.445-4.626-9.29-9.115-10.604
				c-2.5-0.73-5.755-0.604-9.24-0.052c-7.266,1.152-23.087,4.442-30.099,6.584c-5.295,1.617-9.502,3.958-10.615,7.77
				c-1.758,6.025,2.539,18.938,4.147,26.146c4.185,18.757,8.1,36.3,12.314,55.189c3.64,16.312,4.376,32.215,16.349,32.937
				c37.736-8.177,60.455-15.455,98.189-23.631C151.729,137.684,150.438,127.046,147.923,114.57z"/>
			
				<linearGradient id="SVGID_2_" gradientUnits="userSpaceOnUse" x1="228.9033" y1="-601.9951" x2="233.1505" y2="-620.3016" gradientTransform="matrix(1 0 0 -1 -150 -530)">
				<stop  offset="0" style="stop-color:#03FFFF"/>
				<stop  offset="1" style="stop-color:#08DEFF"/>
			</linearGradient>
			<path fill="url(#SVGID_2_)" d="M147.923,114.57c-2.03-10.077-7.407-50.263-9.997-60.583c-1.725-6.869-3.769-12.616-6.357-15.219
				c-6.021-6.057-19.42-0.823-27.896,1.014c-11.56,2.504-21.005,4.552-31.119,6.743c-3.775-5.445-4.626-9.29-9.115-10.604
				c-2.5-0.73-5.755-0.604-9.24-0.052c-7.266,1.152-23.087,4.442-30.099,6.584c-5.295,1.617-9.502,3.958-10.615,7.77
				c-1.758,6.025,2.539,18.938,4.147,26.146c4.185,18.757,8.1,36.3,12.314,55.189c3.64,16.312,4.376,32.215,16.349,32.937
				c37.736-8.177,60.455-15.455,98.189-23.631C151.729,137.684,150.438,127.046,147.923,114.57z"/>
			
				<linearGradient id="SVGID_3_" gradientUnits="userSpaceOnUse" x1="220.2285" y1="-556.9302" x2="247.6595" y2="-673.5129" gradientTransform="matrix(1 0 0 -1 -150 -530)">
				<stop  offset="0.1758" style="stop-color:#08DEFF"/>
				<stop  offset="0.6485" style="stop-color:#44B1E8"/>
				<stop  offset="1" style="stop-color:#1788CA"/>
			</linearGradient>
			<path fill="url(#SVGID_3_)" d="M149.938,114.57c-2.026-10.077-7.403-50.263-9.996-60.583c-1.725-6.869-3.77-12.616-6.354-15.219
				c-6.022-6.057-19.421-0.823-27.896,1.014c-11.562,2.504-21.004,4.552-31.121,6.743c-3.776-5.445-4.626-9.29-9.116-10.604
				c-2.499-0.73-5.754-0.604-9.239-0.052c-7.266,1.152-23.088,4.442-30.1,6.584c-5.295,1.617-9.501,3.958-10.614,7.77
				c-1.758,6.025,2.539,18.938,4.147,26.146c4.185,18.757,8.1,36.3,12.314,55.189c3.64,16.312,3.756,29.336,15.728,30.058
				c37.737-8.179,60.077-12.576,97.811-20.752C152.745,137.684,152.452,127.046,149.938,114.57z"/>
			
				<linearGradient id="SVGID_4_" gradientUnits="userSpaceOnUse" x1="256.5107" y1="-594.1094" x2="279.0314" y2="-702.6705" gradientTransform="matrix(1 0 0 -1 -150 -530)">
				<stop  offset="0.1758" style="stop-color:#08DEFF"/>
				<stop  offset="1" style="stop-color:#44B1E8"/>
			</linearGradient>
			<path fill="url(#SVGID_4_)" d="M170.84,129.395c-0.896,5.686-6.549,11.308-12.624,12.559L47.688,164.495
				c0,0,2.862,0.499,3.611-0.847c1.114-2,1.336-4.211,1.872-7.608l10.658-67.549c0.896-5.684,6.549-11.306,12.627-12.557
				l99.665-20.111c6.074-1.252,10.273,2.339,9.378,8.021L170.84,129.395z"/>
			
				<linearGradient id="SVGID_5_" gradientUnits="userSpaceOnUse" x1="260.5264" y1="-592.5249" x2="264.9668" y2="-629.2307" gradientTransform="matrix(1 0 0 -1 -150 -530)">
				<stop  offset="0" style="stop-color:#03FFFF"/>
				<stop  offset="1" style="stop-color:#08DEFF"/>
			</linearGradient>
			<path fill="url(#SVGID_5_)" d="M170.84,129.395c-0.896,5.686-6.549,11.308-12.624,12.559L47.688,164.495
				c0,0-0.138-0.718,0.811-3.056c2.827-1.16,3.625-4.295,4.163-7.691l9.861-64.816c1.123-6.884,6.155-11.308,12.232-12.56
				l101.366-20.549c6.074-1.252,10.273,2.339,9.378,8.021L170.84,129.395z"/>
			
				<linearGradient id="SVGID_6_" gradientUnits="userSpaceOnUse" x1="258.9297" y1="-598.7754" x2="280.6799" y2="-703.6235" gradientTransform="matrix(1 0 0 -1 -150 -530)">
				<stop  offset="0.1758" style="stop-color:#08DEFF"/>
				<stop  offset="0.6485" style="stop-color:#44B1E8"/>
				<stop  offset="0.8485" style="stop-color:#1788CA"/>
			</linearGradient>
			<path fill="url(#SVGID_6_)" d="M172.918,131.175c-0.896,5.685-6.549,11.308-12.624,12.558L49.379,164.111
				c0,0,3.276-0.523,4.618-2.939c1.113-2,1.336-4.212,1.873-7.609L65.907,93.04c0.896-5.684,6.549-11.306,12.627-12.557
				l99.665-20.111c6.074-1.252,10.273,2.339,9.378,8.022L172.918,131.175z"/>
		</g>
	</g>
</g>
</svg>
