<?xml version="1.0" encoding="utf-8"?>
<!-- Generator: Adobe Illustrator 15.0.0, SVG Export Plug-In . SVG Version: 6.00 Build 0)  -->
<!DOCTYPE svg PUBLIC "-//W3C//DTD SVG 1.1//EN" "http://www.w3.org/Graphics/SVG/1.1/DTD/svg11.dtd">
<svg version="1.1" id="Layer_1" xmlns="http://www.w3.org/2000/svg" xmlns:xlink="http://www.w3.org/1999/xlink" x="0px" y="0px"
	 width="200px" height="200px" viewBox="0 0 200 200" enable-background="new 0 0 200 200" xml:space="preserve">
<g id="icon">
	<g id="Layer_2">
	</g>
	<g id="Layer_1_1_">
		<g>
			<g>
				<g>
					
						<linearGradient id="SVGID_1_" gradientUnits="userSpaceOnUse" x1="250.3027" y1="1205.4873" x2="289.3745" y2="1244.8333" gradientTransform="matrix(1 0 0 1 -200 -1182)">
						<stop  offset="0" style="stop-color:#E6EDF0"/>
						<stop  offset="0.736" style="stop-color:#8B898B"/>
						<stop  offset="1" style="stop-color:#4A4F4A"/>
					</linearGradient>
					<path fill="url(#SVGID_1_)" d="M59.411,70.693c-2.94-2.582-5.62-6.052-5.62-6.052l52.034-22.088l1.714,1.234l-1.436,3.235
						l5.854,5.169l3.003-1.503l1.963,1.749l-51.06,22.392C65.865,74.828,61.997,72.963,59.411,70.693z"/>
					
						<linearGradient id="SVGID_2_" gradientUnits="userSpaceOnUse" x1="247.7305" y1="1224.3262" x2="257.1906" y2="1227.7538" gradientTransform="matrix(1 0 0 1 -200 -1182)">
						<stop  offset="0" style="stop-color:#E6EDF0"/>
						<stop  offset="0.736" style="stop-color:#8B898B"/>
						<stop  offset="1" style="stop-color:#4A4F4A"/>
					</linearGradient>
					<polygon fill="url(#SVGID_2_)" points="58.547,66.455 105.003,46.049 106.104,47.021 107.539,43.787 58.252,65.654 					"/>
					
						<linearGradient id="SVGID_3_" gradientUnits="userSpaceOnUse" x1="239.1445" y1="1275.9756" x2="257.1033" y2="1282.2817" gradientTransform="matrix(1 0 0 1 -200 -1182)">
						<stop  offset="0" style="stop-color:#E6EDF0"/>
						<stop  offset="0.5583" style="stop-color:#8B898B"/>
						<stop  offset="1" style="stop-color:#4A4F4A"/>
					</linearGradient>
					<path fill="url(#SVGID_3_)" d="M53.791,64.641l-17.768,55.205c0,0,4.397,7.875,13.296,12.18l16.644-57.51
						C65.963,74.512,61.071,73.058,53.791,64.641z"/>
					
						<linearGradient id="SVGID_4_" gradientUnits="userSpaceOnUse" x1="219.8359" y1="1250.8633" x2="235.6273" y2="1256.694" gradientTransform="matrix(1 0 0 1 -200 -1182)">
						<stop  offset="0" style="stop-color:#E6EDF0"/>
						<stop  offset="0.736" style="stop-color:#8B898B"/>
						<stop  offset="1" style="stop-color:#303630"/>
					</linearGradient>
					<polygon fill="url(#SVGID_4_)" points="116.925,52.436 92.746,107.936 49.319,132.025 65.865,74.828 					"/>
					<path opacity="0.16" fill="#3F2E1B" enable-background="new    " d="M114.962,50.687l-3.003,1.503l-5.855-5.169l1.438-3.235
						l-1.714-1.234L53.791,64.641l-17.768,55.205c0,0,4.397,7.875,13.296,12.18l43.427-24.09l24.179-55.5L114.962,50.687z"/>
					<path fill="#CDC5AC" d="M61.91,69.712c-2.239-1.966-3.363-3.257-3.363-3.257l46.456-20.406l6.956,6.142L66.303,72.326
						C66.303,72.326,63.878,71.439,61.91,69.712z"/>
					
						<linearGradient id="SVGID_5_" gradientUnits="userSpaceOnUse" x1="284.5059" y1="1239.7197" x2="283.546" y2="1237.6628" gradientTransform="matrix(1 0 0 1 -200 -1182)">
						<stop  offset="0.0123" style="stop-color:#FFFFFF;stop-opacity:0"/>
						<stop  offset="1" style="stop-color:#949494"/>
					</linearGradient>
					<path fill="url(#SVGID_5_)" d="M61.91,69.712c-2.239-1.966-3.363-3.257-3.363-3.257l46.456-20.406l6.956,6.142L66.303,72.326
						C66.303,72.326,63.878,71.439,61.91,69.712z"/>
				</g>
				<g>
					
						<linearGradient id="SVGID_6_" gradientUnits="userSpaceOnUse" x1="399.1699" y1="1263.7207" x2="235.8261" y2="1293.4194" gradientTransform="matrix(1.0016 0.0218 0.0301 0.999 -235.8822 -1201.6462)">
						<stop  offset="0" style="stop-color:#E6EDF0"/>
						<stop  offset="0.4294" style="stop-color:#5D3500"/>
						<stop  offset="1" style="stop-color:#4B4F4B"/>
					</linearGradient>
					<polygon fill="url(#SVGID_6_)" points="123.738,32.178 119.895,110.006 67.618,140.961 67.701,59.038 					"/>
					
						<linearGradient id="SVGID_7_" gradientUnits="userSpaceOnUse" x1="324.0469" y1="1237.126" x2="325.0272" y2="1235.3616" gradientTransform="matrix(1.0016 0.0218 0.0301 0.999 -235.8822 -1201.6462)">
						<stop  offset="0.0056" style="stop-color:#FFFFFF"/>
						<stop  offset="1" style="stop-color:#610000"/>
					</linearGradient>
					<polygon fill="url(#SVGID_7_)" points="119.568,37.506 133.107,44.665 132.361,44.882 118.807,37.817 					"/>
					
						<linearGradient id="SVGID_8_" gradientUnits="userSpaceOnUse" x1="250.0254" y1="1301.7119" x2="294.4465" y2="1305.0436" gradientTransform="matrix(1.0016 0.0218 0.0301 0.999 -235.769 -1201.8074)">
						<stop  offset="0" style="stop-color:#E6CA81"/>
						<stop  offset="0.4969" style="stop-color:#745123"/>
						<stop  offset="1" style="stop-color:#442303"/>
					</linearGradient>
					<path fill="url(#SVGID_8_)" d="M74.672,67.057c-6.921-3.854-8.922-8.528-8.922-8.528l-0.543,84.538
						c0,0,3.422,10.873,18.559,10.279l1.235-82.36C85.001,70.985,79.351,69.663,74.672,67.057z"/>
					
						<linearGradient id="SVGID_9_" gradientUnits="userSpaceOnUse" x1="421.916" y1="1273.3457" x2="250.4796" y2="1304.5161" gradientTransform="matrix(1.0016 0.0218 0.0301 0.999 -235.8822 -1201.6462)">
						<stop  offset="0" style="stop-color:#E6EDF0"/>
						<stop  offset="0.3742" style="stop-color:#8D8B8D"/>
						<stop  offset="1" style="stop-color:#300D00"/>
					</linearGradient>
					<polygon fill="url(#SVGID_9_)" points="143.205,41.702 139.134,122.148 83.766,153.346 85.001,70.985 					"/>
					
						<linearGradient id="SVGID_10_" gradientUnits="userSpaceOnUse" x1="266.6787" y1="1182.3184" x2="361.2771" y2="1354.8215" gradientTransform="matrix(1.0016 0.0218 0.0301 0.999 -235.8822 -1201.6462)">
						<stop  offset="0" style="stop-color:#E6D2B3"/>
						<stop  offset="0.411" style="stop-color:#8D6D3D"/>
						<stop  offset="1" style="stop-color:#6A4F35"/>
					</linearGradient>
					<path fill="url(#SVGID_10_)" d="M120.771,31.188l2.967,0.991L69.805,59.545c0,0-0.105,2.635,5.445,5.926
						c3.781,2.243,9.215,3.191,9.215,3.191l56.391-27.936l2.354,0.977L85.001,70.985c0,0-6.147-0.003-13.827-5.12
						c-6.893-4.593-5.424-7.336-5.424-7.336L120.771,31.188z"/>
					<path fill="#DED9C9" d="M119.568,37.506l13.539,7.159L84.465,68.662c0,0-5.434-0.739-9.215-3.191
						c-3.871-2.51-3.981-3.578-3.981-3.578L119.568,37.506z"/>
					
						<linearGradient id="SVGID_11_" gradientUnits="userSpaceOnUse" x1="298.7686" y1="1234.207" x2="297.1227" y2="1231.0527" gradientTransform="matrix(1 0 0 1 -200 -1182)">
						<stop  offset="0.0123" style="stop-color:#FFFFFF;stop-opacity:0"/>
						<stop  offset="1" style="stop-color:#949494"/>
					</linearGradient>
					<path fill="url(#SVGID_11_)" d="M119.568,37.506l5.973,3.119L76.25,65.471c0,0-5.884-2.675-4.981-3.578
						C72.17,60.985,119.568,37.506,119.568,37.506z"/>
				</g>
				<g>
					
						<linearGradient id="SVGID_12_" gradientUnits="userSpaceOnUse" x1="423.9824" y1="1274.6182" x2="256.0387" y2="1305.1534" gradientTransform="matrix(1.0016 0.0218 0.0301 0.999 -235.8822 -1201.6462)">
						<stop  offset="0" style="stop-color:#E6EDF0"/>
						<stop  offset="0.3804" style="stop-color:#729056"/>
						<stop  offset="1" style="stop-color:#4B4F4B"/>
					</linearGradient>
					<polygon fill="url(#SVGID_12_)" points="146.721,42.553 142.768,122.568 89.02,154.396 89.105,70.167 					"/>
					
						<linearGradient id="SVGID_13_" gradientUnits="userSpaceOnUse" x1="346.7451" y1="1247.2783" x2="347.7495" y2="1245.4701" gradientTransform="matrix(1.0016 0.0218 0.0301 0.999 -235.8822 -1201.6462)">
						<stop  offset="0.0056" style="stop-color:#FFFFFF"/>
						<stop  offset="1" style="stop-color:#610000"/>
					</linearGradient>
					<polygon fill="url(#SVGID_13_)" points="142.434,48.03 156.352,55.391 155.584,55.614 141.648,48.35 					"/>
					
						<linearGradient id="SVGID_14_" gradientUnits="userSpaceOnUse" x1="270.6465" y1="1313.6699" x2="316.3214" y2="1317.0955" gradientTransform="matrix(1.0016 0.0218 0.0301 0.999 -235.769 -1201.8074)">
						<stop  offset="0" style="stop-color:#E6EDF0"/>
						<stop  offset="0.3067" style="stop-color:#79884C"/>
						<stop  offset="1" style="stop-color:#2E3F2E"/>
					</linearGradient>
					<path fill="url(#SVGID_14_)" d="M96.271,78.412c-7.115-3.962-9.172-8.768-9.172-8.768l-0.559,86.915
						c0,0,3.519,11.183,19.08,10.567l1.271-84.676C106.893,82.451,101.082,81.092,96.271,78.412z"/>
					
						<linearGradient id="SVGID_15_" gradientUnits="userSpaceOnUse" x1="447.3721" y1="1284.5098" x2="271.1072" y2="1316.5581" gradientTransform="matrix(1.0016 0.0218 0.0301 0.999 -235.8822 -1201.6462)">
						<stop  offset="0" style="stop-color:#E6EDF0"/>
						<stop  offset="0.4172" style="stop-color:#778B5B"/>
						<stop  offset="1" style="stop-color:#253225"/>
					</linearGradient>
					<polygon fill="url(#SVGID_15_)" points="166.732,52.344 162.547,135.055 105.621,167.127 106.893,82.451 					"/>
					
						<linearGradient id="SVGID_16_" gradientUnits="userSpaceOnUse" x1="287.7715" y1="1190.9287" x2="385.0202" y2="1368.2645" gradientTransform="matrix(1.0016 0.0218 0.0301 0.999 -235.8822 -1201.6462)">
						<stop  offset="0" style="stop-color:#E6EDF0"/>
						<stop  offset="0.454" style="stop-color:#889753"/>
						<stop  offset="1" style="stop-color:#4B604B"/>
					</linearGradient>
					<path fill="url(#SVGID_16_)" d="M143.669,41.534l3.052,1.019L91.27,70.689c0,0-0.109,2.709,5.597,6.092
						c3.889,2.307,9.476,3.281,9.476,3.281l57.976-28.722l2.416,1.003l-59.84,30.107c0,0-6.318-0.002-14.213-5.264
						c-7.087-4.723-5.577-7.543-5.577-7.543L143.669,41.534z"/>
					<path fill="#E5E6D4" d="M142.434,48.03l13.918,7.36l-50.01,24.672c0,0-5.587-0.76-9.476-3.281
						c-3.979-2.58-4.094-3.679-4.094-3.679L142.434,48.03z"/>
					<path opacity="0.15" fill="#D4CD95" enable-background="new    " d="M142.434,48.03l13.918,7.36l-50.01,24.672
						c0,0-5.587-0.76-9.476-3.281c-3.979-2.58-4.094-3.679-4.094-3.679L142.434,48.03z"/>
					
						<linearGradient id="SVGID_17_" gradientUnits="userSpaceOnUse" x1="321.0469" y1="1245.1416" x2="319.3554" y2="1241.8997" gradientTransform="matrix(1 0 0 1 -200 -1182)">
						<stop  offset="0.0123" style="stop-color:#FFFFFF;stop-opacity:0"/>
						<stop  offset="1" style="stop-color:#949494"/>
					</linearGradient>
					<path fill="url(#SVGID_17_)" d="M142.434,48.03l6.142,3.206l-50.68,25.545c0,0-6.049-2.75-5.122-3.679
						C93.7,72.17,142.434,48.03,142.434,48.03z"/>
				</g>
			</g>
		</g>
	</g>
</g>
</svg>
