<?xml version="1.0" encoding="utf-8"?>
<!-- Generator: Adobe Illustrator 15.0.0, SVG Export Plug-In . SVG Version: 6.00 Build 0)  -->
<!DOCTYPE svg PUBLIC "-//W3C//DTD SVG 1.1//EN" "http://www.w3.org/Graphics/SVG/1.1/DTD/svg11.dtd">
<svg version="1.1" id="Layer_1" xmlns="http://www.w3.org/2000/svg" xmlns:xlink="http://www.w3.org/1999/xlink" x="0px" y="0px"
	 width="200px" height="200px" viewBox="0 0 200 200" enable-background="new 0 0 200 200" xml:space="preserve">
<g id="icon">
	<g id="Layer_2">
	</g>
	<g id="Layer_1_1_">
		<g>
			
				<linearGradient id="SVGID_1_" gradientUnits="userSpaceOnUse" x1="270.0508" y1="-632.9033" x2="199.1767" y2="-663.1429" gradientTransform="matrix(1 0 0 -1 -150 -530)">
				<stop  offset="0" style="stop-color:#FFE300"/>
				<stop  offset="1" style="stop-color:#F7941E"/>
			</linearGradient>
			<polygon fill="url(#SVGID_1_)" points="80.812,179.879 29.99,128.219 25.143,83.161 80.362,126.477 			"/>
			
				<radialGradient id="SVGID_2_" cx="216.3076" cy="-568.877" r="79.471" gradientTransform="matrix(1 0 0 -1 -150 -530)" gradientUnits="userSpaceOnUse">
				<stop  offset="0" style="stop-color:#FFFFFF"/>
				<stop  offset="1" style="stop-color:#D0DDEC"/>
			</radialGradient>
			<polygon fill="url(#SVGID_2_)" points="171.812,59.342 114.264,22.998 97.227,50.335 25.143,83.161 80.362,126.477 
				149.029,91.471 			"/>
			
				<linearGradient id="SVGID_3_" gradientUnits="userSpaceOnUse" x1="284.1797" y1="-581.1924" x2="275.6798" y2="-595.1921" gradientTransform="matrix(1 0 0 -1 -150 -530)">
				<stop  offset="0" style="stop-color:#A26849"/>
				<stop  offset="1" style="stop-color:#603F26"/>
			</linearGradient>
			<polygon fill="url(#SVGID_3_)" points="171.812,59.342 116.531,19.858 93.768,47.622 148.986,90.937 			"/>
			
				<linearGradient id="SVGID_4_" gradientUnits="userSpaceOnUse" x1="261.1816" y1="-593.3384" x2="252.6812" y2="-607.3389" gradientTransform="matrix(1 0 0 -1 -150 -530)">
				<stop  offset="0" style="stop-color:#A26849"/>
				<stop  offset="1" style="stop-color:#603F26"/>
			</linearGradient>
			<polygon fill="url(#SVGID_4_)" points="148.812,71.488 93.531,32.005 70.768,59.769 125.986,103.083 			"/>
			
				<linearGradient id="SVGID_5_" gradientUnits="userSpaceOnUse" x1="238.3047" y1="-605.0894" x2="229.8048" y2="-619.0889" gradientTransform="matrix(1 0 0 -1 -150 -530)">
				<stop  offset="0" style="stop-color:#A26849"/>
				<stop  offset="1" style="stop-color:#603F26"/>
			</linearGradient>
			<polygon fill="url(#SVGID_5_)" points="125.938,83.238 70.656,43.755 47.893,71.519 103.111,114.833 			"/>
			
				<linearGradient id="SVGID_6_" gradientUnits="userSpaceOnUse" x1="209.7158" y1="-609.3848" x2="273.2159" y2="-746.8845" gradientTransform="matrix(1 0 0 -1 -150 -530)">
				<stop  offset="0" style="stop-color:#A26849"/>
				<stop  offset="1" style="stop-color:#603F26"/>
			</linearGradient>
			<polygon fill="url(#SVGID_6_)" points="103.188,94.881 47.906,55.397 25.143,83.161 80.362,126.477 			"/>
			<polygon fill="#FFCE00" points="80.362,126.477 80.812,179.879 165.99,126.477 171.812,59.342 148.812,91.06 148.812,71.488 
				125.938,102.896 125.938,83.238 103.025,114.75 103.188,94.881 			"/>
			<g>
				<polygon fill="#A65E1E" points="161.861,129.157 129.204,149.671 129.454,127.184 163.357,106.434 				"/>
				
					<linearGradient id="SVGID_7_" gradientUnits="userSpaceOnUse" x1="233.2656" y1="-638.209" x2="252.8454" y2="-644.067" gradientTransform="matrix(1 0.0134 -0.0222 -1.0003 -140.6501 -525.8796)">
					<stop  offset="0" style="stop-color:#C98140"/>
					<stop  offset="1" style="stop-color:#391301"/>
				</linearGradient>
				<polygon fill="url(#SVGID_7_)" points="160.259,128.583 129.241,147.852 129.454,127.184 161.496,107.414 				"/>
				
					<linearGradient id="SVGID_8_" gradientUnits="userSpaceOnUse" x1="344.667" y1="-666.9341" x2="256.9415" y2="-650.421" gradientTransform="matrix(1 0 0 -1 -150 -530)">
					<stop  offset="0" style="stop-color:#FFFFFF"/>
					<stop  offset="1" style="stop-color:#6E6E6E"/>
				</linearGradient>
				<polygon fill="url(#SVGID_8_)" points="159.963,128.271 129.355,147.3 129.551,127.498 161.131,107.96 				"/>
				
					<linearGradient id="SVGID_9_" gradientUnits="userSpaceOnUse" x1="289.8984" y1="-662.4175" x2="290.3997" y2="-663.2419" gradientTransform="matrix(0.9952 0.0163 0.0077 -1.0047 -138.9807 -533.5369)">
					<stop  offset="0" style="stop-color:#9C9E9E"/>
					<stop  offset="1" style="stop-color:#D6D6D6"/>
				</linearGradient>
				<polygon fill="url(#SVGID_9_)" points="159.964,128.27 129.354,147.299 129.413,146.008 160.041,127.059 				"/>
				
					<linearGradient id="SVGID_10_" gradientUnits="userSpaceOnUse" x1="289.9785" y1="-659.0117" x2="290.4863" y2="-659.8464" gradientTransform="matrix(0.9952 0.0163 0.0077 -1.0047 -138.9807 -533.5369)">
					<stop  offset="0" style="stop-color:#9C9E9E"/>
					<stop  offset="1" style="stop-color:#D6D6D6"/>
				</linearGradient>
				<polygon fill="url(#SVGID_10_)" points="160.15,124.794 129.38,143.939 129.438,142.648 160.229,123.582 				"/>
				
					<linearGradient id="SVGID_11_" gradientUnits="userSpaceOnUse" x1="290.0615" y1="-655.4316" x2="290.5678" y2="-656.2639" gradientTransform="matrix(0.9952 0.0163 0.0077 -1.0047 -138.9807 -533.5369)">
					<stop  offset="0" style="stop-color:#9C9E9E"/>
					<stop  offset="1" style="stop-color:#D6D6D6"/>
				</linearGradient>
				<polygon fill="url(#SVGID_11_)" points="160.341,121.146 129.407,140.391 129.466,139.1 160.419,119.936 				"/>
				
					<linearGradient id="SVGID_12_" gradientUnits="userSpaceOnUse" x1="290.1445" y1="-651.9434" x2="290.6537" y2="-652.7805" gradientTransform="matrix(0.9952 0.0163 0.0077 -1.0047 -138.9807 -533.5369)">
					<stop  offset="0" style="stop-color:#9C9E9E"/>
					<stop  offset="1" style="stop-color:#D6D6D6"/>
				</linearGradient>
				<polygon fill="url(#SVGID_12_)" points="160.539,117.594 129.434,136.945 129.492,135.654 160.617,116.382 				"/>
				
					<linearGradient id="SVGID_13_" gradientUnits="userSpaceOnUse" x1="290.2197" y1="-648.1919" x2="290.7317" y2="-649.0337" gradientTransform="matrix(0.9952 0.0163 0.0077 -1.0047 -138.9807 -533.5369)">
					<stop  offset="0" style="stop-color:#9C9E9E"/>
					<stop  offset="1" style="stop-color:#D6D6D6"/>
				</linearGradient>
				<polygon fill="url(#SVGID_13_)" points="160.717,113.773 129.461,133.232 129.521,131.941 160.795,112.562 				"/>
				
					<linearGradient id="SVGID_14_" gradientUnits="userSpaceOnUse" x1="290.2178" y1="-644.4712" x2="290.7307" y2="-645.3144" gradientTransform="matrix(0.9952 0.0163 0.0077 -1.0047 -138.9807 -533.5369)">
					<stop  offset="0" style="stop-color:#9C9E9E"/>
					<stop  offset="1" style="stop-color:#D6D6D6"/>
				</linearGradient>
				<polygon fill="url(#SVGID_14_)" points="160.746,110.038 129.49,129.497 129.549,128.206 160.823,108.826 				"/>
			</g>
			<g>
				<polygon fill="#A65E1E" points="125.145,147.068 107.699,158.057 108.436,139.78 125.512,129.405 				"/>
				
					<linearGradient id="SVGID_15_" gradientUnits="userSpaceOnUse" x1="220.4404" y1="-659.3789" x2="231.3661" y2="-662.6478" gradientTransform="matrix(1 0.0134 -0.0222 -1.0003 -140.6501 -525.8796)">
					<stop  offset="0" style="stop-color:#C98140"/>
					<stop  offset="1" style="stop-color:#391301"/>
				</linearGradient>
				<polygon fill="url(#SVGID_15_)" points="123.54,146.495 107.736,156.236 107.949,139.963 123.998,130.387 				"/>
				
					<linearGradient id="SVGID_16_" gradientUnits="userSpaceOnUse" x1="261.875" y1="-659.1934" x2="268.079" y2="-669.7567" gradientTransform="matrix(1 0.0134 0 -1 -150 -526.0295)">
					<stop  offset="0.1758" style="stop-color:#08DEFF"/>
					<stop  offset="1" style="stop-color:#A7D9E8"/>
				</linearGradient>
				<polygon fill="url(#SVGID_16_)" points="123.244,146.184 107.852,155.686 108.046,140.277 123.633,130.934 				"/>
			</g>
			<g>
				<polygon fill="#A65E1E" points="103.818,159.889 86.374,170.875 87.11,152.6 104.188,142.225 				"/>
				
					<linearGradient id="SVGID_17_" gradientUnits="userSpaceOnUse" x1="198.8252" y1="-672.4858" x2="209.7503" y2="-675.7546" gradientTransform="matrix(1 0.0134 -0.0222 -1.0003 -140.6501 -525.8796)">
					<stop  offset="0" style="stop-color:#C98140"/>
					<stop  offset="1" style="stop-color:#391301"/>
				</linearGradient>
				<polygon fill="url(#SVGID_17_)" points="102.215,159.312 86.411,169.055 86.624,152.781 102.673,143.205 				"/>
				
					<linearGradient id="SVGID_18_" gradientUnits="userSpaceOnUse" x1="240.5479" y1="-672.2954" x2="246.7523" y2="-682.8596" gradientTransform="matrix(1 0.0134 0 -1 -150 -526.0295)">
					<stop  offset="0.1758" style="stop-color:#08DEFF"/>
					<stop  offset="1" style="stop-color:#A7D9E8"/>
				</linearGradient>
				<polygon fill="url(#SVGID_18_)" points="101.919,159.001 86.525,168.504 86.721,153.098 102.309,143.751 				"/>
			</g>
			
				<linearGradient id="SVGID_19_" gradientUnits="userSpaceOnUse" x1="200.9902" y1="-595.7979" x2="218.7409" y2="-595.7979" gradientTransform="matrix(1 0 0 -1 -150 -530)">
				<stop  offset="0.1152" style="stop-color:#CA0000"/>
				<stop  offset="0.1339" style="stop-color:#CE0800"/>
				<stop  offset="0.2249" style="stop-color:#E02B00"/>
				<stop  offset="0.3171" style="stop-color:#ED4700"/>
				<stop  offset="0.41" style="stop-color:#F75A00"/>
				<stop  offset="0.5038" style="stop-color:#FD6600"/>
				<stop  offset="0.6" style="stop-color:#FF6A00"/>
				<stop  offset="0.6793" style="stop-color:#FD6600"/>
				<stop  offset="0.7567" style="stop-color:#F75A00"/>
				<stop  offset="0.8334" style="stop-color:#ED4700"/>
				<stop  offset="0.9096" style="stop-color:#E02B00"/>
				<stop  offset="0.9848" style="stop-color:#CE0800"/>
				<stop  offset="1" style="stop-color:#CA0000"/>
			</linearGradient>
			<path fill="url(#SVGID_19_)" d="M69.555,31.208c0,0,4.059,46.383,4.31,48.617c0.423,3.756-1.233,8.524-4.811,12.776
				c-5.706,6.788-14.146,9.687-18.849,6.481c-2.455-1.672-3.403-4.684-2.934-8.146c0.428-3.158,4.258-59.729,4.258-59.729
				L69.555,31.208L69.555,31.208z"/>
			
				<linearGradient id="SVGID_20_" gradientUnits="userSpaceOnUse" x1="223.9902" y1="-542.4004" x2="206.6067" y2="-566.7121" gradientTransform="matrix(1 0 0 -1 -150 -530)">
				<stop  offset="0.1152" style="stop-color:#CA0000"/>
				<stop  offset="0.1339" style="stop-color:#CE0800"/>
				<stop  offset="0.2249" style="stop-color:#E02B00"/>
				<stop  offset="0.3171" style="stop-color:#ED4700"/>
				<stop  offset="0.41" style="stop-color:#F75A00"/>
				<stop  offset="0.5038" style="stop-color:#FD6600"/>
				<stop  offset="0.6" style="stop-color:#FF6A00"/>
			</linearGradient>
			<ellipse fill="url(#SVGID_20_)" cx="60.542" cy="31.208" rx="9.013" ry="5.449"/>
			
				<linearGradient id="SVGID_21_" gradientUnits="userSpaceOnUse" x1="207.0566" y1="-560.978" x2="216.8074" y2="-560.603" gradientTransform="matrix(1 0 0 -1 -150 -530)">
				<stop  offset="0" style="stop-color:#510000"/>
				<stop  offset="0.119" style="stop-color:#5D0200"/>
				<stop  offset="0.3343" style="stop-color:#7D0800"/>
				<stop  offset="0.6214" style="stop-color:#B11100"/>
				<stop  offset="0.9661" style="stop-color:#F81D00"/>
				<stop  offset="1" style="stop-color:#FF1E00"/>
			</linearGradient>
			<ellipse fill="url(#SVGID_21_)" cx="60.542" cy="30.845" rx="5.915" ry="3.213"/>
			
				<linearGradient id="SVGID_22_" gradientUnits="userSpaceOnUse" x1="241.5127" y1="-630.9219" x2="183.2603" y2="-606.1708" gradientTransform="matrix(1 0 0 -1 -150 -530)">
				<stop  offset="0" style="stop-color:#A26849"/>
				<stop  offset="1" style="stop-color:#603F26"/>
			</linearGradient>
			<path fill="url(#SVGID_22_)" d="M74.858,79.714c0,0-0.171-0.946-0.509-1.781c-0.25-0.781-0.812-1.593-0.812-1.593l0.226,2.443
				l0.097,1.044l0.004-0.002c0.003,0.029,0.001,0.061,0.004,0.09l0.035,0.382l-0.019,0.024c0.236,3.676-1.406,8.209-4.831,12.28
				c-4.129,4.911-9.688,7.787-14.229,7.787c-1.734,0-3.319-0.42-4.62-1.306c-2.308-1.571-3.267-4.331-2.986-7.531l-0.016,0.002
				l0.406-4.499c0,0-0.463,0.722-0.744,1.55c-0.266,0.552-0.508,1.63-0.508,1.63l-0.076,0.567c-0.539,3.968,0.687,7.287,3.361,9.107
				c1.439,0.98,3.184,1.479,5.183,1.479c5.026,0,10.771-3.12,14.994-8.144C73.443,88.938,75.327,83.879,74.858,79.714z"/>
		</g>
	</g>
</g>
</svg>
