<?xml version="1.0" encoding="utf-8"?>
<!-- Generator: Adobe Illustrator 15.0.0, SVG Export Plug-In . SVG Version: 6.00 Build 0)  -->
<!DOCTYPE svg PUBLIC "-//W3C//DTD SVG 1.1//EN" "http://www.w3.org/Graphics/SVG/1.1/DTD/svg11.dtd">
<svg version="1.1" id="Layer_1" xmlns="http://www.w3.org/2000/svg" xmlns:xlink="http://www.w3.org/1999/xlink" x="0px" y="0px"
	 width="200px" height="200px" viewBox="0 0 200 200" enable-background="new 0 0 200 200" xml:space="preserve">
<g id="icon">
	<g id="Layer_2">
	</g>
	<g id="Layer_1_1_">
		<g>
			
				<radialGradient id="SVGID_1_" cx="513.3105" cy="-1176.8501" r="79.3572" gradientTransform="matrix(0.7071 0.7071 -0.7071 0.7071 -1149.5244 596.6884)" gradientUnits="userSpaceOnUse">
				<stop  offset="0" style="stop-color:#FFFFFF"/>
				<stop  offset="0.4357" style="stop-color:#D3DBE1"/>
				<stop  offset="0.7954" style="stop-color:#B6C2CD"/>
				<stop  offset="1" style="stop-color:#ABB9C6"/>
			</radialGradient>
			<path fill="url(#SVGID_1_)" d="M142.902,56.458c-30.071-30.071-73.479-35.414-96.958-11.936
				c-23.479,23.479-18.135,66.886,11.938,96.958c30.068,30.065,73.478,35.414,96.954,11.934
				C178.314,129.936,172.973,86.528,142.902,56.458z M86.434,112.93C75.705,102.2,73.8,86.711,82.175,78.336
				c8.377-8.376,23.864-6.469,34.593,4.26c10.729,10.724,12.633,26.212,4.256,34.587C112.646,125.561,97.159,123.654,86.434,112.93z
				"/>
			
				<radialGradient id="SVGID_2_" cx="555.3613" cy="-1187.1255" r="31.2073" gradientTransform="matrix(0.7071 0.7071 -0.7071 0.7071 -1149.5244 596.6884)" gradientUnits="userSpaceOnUse">
				<stop  offset="0" style="stop-color:#FFFFFF"/>
				<stop  offset="1" style="stop-color:#FFFFFF;stop-opacity:0"/>
			</radialGradient>
			<path fill="url(#SVGID_2_)" d="M142.902,56.458c-30.071-30.071-73.479-35.414-96.958-11.936
				c-23.479,23.479-18.135,66.886,11.938,96.958c30.068,30.065,73.478,35.414,96.954,11.934
				C178.314,129.936,172.973,86.528,142.902,56.458z M86.434,112.93C75.705,102.2,73.8,86.711,82.175,78.336
				c8.377-8.376,23.864-6.469,34.593,4.26c10.729,10.724,12.633,26.212,4.256,34.587C112.646,125.561,97.159,123.654,86.434,112.93z
				"/>
			<path fill="#4E4E4E" d="M57.345,142.02C27.387,112.059,21.981,68.871,45.15,45.331c-0.087,0.084-0.176,0.162-0.262,0.248
				c-23.478,23.477-18.135,66.884,11.939,96.957c30.067,30.069,73.478,35.413,96.952,11.935c0.087-0.085,0.166-0.174,0.248-0.261
				C130.488,177.379,87.298,171.973,57.345,142.02z"/>
			
				<radialGradient id="SVGID_3_" cx="413.7969" cy="-1290.1021" r="68.837" gradientTransform="matrix(0.9057 0.9057 -0.7071 0.7071 -1170.999 575.2122)" gradientUnits="userSpaceOnUse">
				<stop  offset="0" style="stop-color:#FFFFFF"/>
				<stop  offset="0.0103" style="stop-color:#FDFDFE"/>
				<stop  offset="0.1725" style="stop-color:#DFE5E9"/>
				<stop  offset="0.3445" style="stop-color:#C8D1DA"/>
				<stop  offset="0.5286" style="stop-color:#B8C4CF"/>
				<stop  offset="0.7334" style="stop-color:#AEBCC8"/>
				<stop  offset="1" style="stop-color:#ABB9C6"/>
			</radialGradient>
			<path fill="url(#SVGID_3_)" d="M142.902,56.458C120.168,33.723,89.815,25.134,66.21,32.436L89.169,74.12
				c8.457-2.743,19.41,0.287,27.599,8.477c10.729,10.724,12.633,26.213,4.256,34.588c-2.172,2.172-4.832,3.642-7.754,4.457
				l20.539,44.097c7.924-2.317,15.108-6.403,21.027-12.323C178.314,129.936,172.973,86.528,142.902,56.458z"/>
			<defs>
				<filter id="Adobe_OpacityMaskFilter" filterUnits="userSpaceOnUse" x="68.626" y="29.905" width="100.844" height="133.293">
					<feColorMatrix  type="matrix" values="1 0 0 0 0  0 1 0 0 0  0 0 1 0 0  0 0 0 1 0"/>
				</filter>
			</defs>
			<mask maskUnits="userSpaceOnUse" x="68.626" y="29.905" width="100.844" height="133.293" id="SVGID_4_">
				<g filter="url(#Adobe_OpacityMaskFilter)">
					
						<linearGradient id="SVGID_5_" gradientUnits="userSpaceOnUse" x1="559.8125" y1="-1289.7979" x2="539.2228" y2="-1250.2014" gradientTransform="matrix(0.7071 0.7071 -0.7071 0.7071 -1149.5244 596.6884)">
						<stop  offset="0" style="stop-color:#FFFFFF"/>
						<stop  offset="1" style="stop-color:#000000"/>
					</linearGradient>
					<path fill="url(#SVGID_5_)" d="M92.026,74.472c7.703-0.82,16.607,2.404,23.533,9.332c10.729,10.725,12.631,26.213,4.256,34.588
						c-0.797,0.795-1.674,1.473-2.59,2.084l23.398,42.722c5.24-2.375,10.044-5.615,14.212-9.783
						c23.479-23.479,18.136-66.886-11.933-96.956c-21.965-21.965-51.045-30.72-74.276-24.703L92.026,74.472z"/>
				</g>
			</mask>
			
				<linearGradient id="SVGID_6_" gradientUnits="userSpaceOnUse" x1="495.0977" y1="-1281.6445" x2="591.4551" y2="-1249.2799" gradientTransform="matrix(0.7071 0.7071 -0.7071 0.7071 -1149.5244 596.6884)">
				<stop  offset="0" style="stop-color:#000000"/>
				<stop  offset="0.0409" style="stop-color:#010202"/>
				<stop  offset="0.0557" style="stop-color:#040909"/>
				<stop  offset="0.0662" style="stop-color:#0B1414"/>
				<stop  offset="0.0747" style="stop-color:#132525"/>
				<stop  offset="0.082" style="stop-color:#1F3B3B"/>
				<stop  offset="0.0885" style="stop-color:#2C5757"/>
				<stop  offset="0.0943" style="stop-color:#3D7777"/>
				<stop  offset="0.0997" style="stop-color:#519D9D"/>
				<stop  offset="0.1047" style="stop-color:#67C8C8"/>
				<stop  offset="0.1091" style="stop-color:#7EF6F6"/>
				<stop  offset="0.1099" style="stop-color:#83FFFF"/>
				<stop  offset="0.1105" style="stop-color:#7EF6F7"/>
				<stop  offset="0.1141" style="stop-color:#67C8CD"/>
				<stop  offset="0.1181" style="stop-color:#519DA6"/>
				<stop  offset="0.1224" style="stop-color:#3D7784"/>
				<stop  offset="0.127" style="stop-color:#2C5767"/>
				<stop  offset="0.1322" style="stop-color:#1F3B4F"/>
				<stop  offset="0.138" style="stop-color:#13253B"/>
				<stop  offset="0.1448" style="stop-color:#0B142B"/>
				<stop  offset="0.1532" style="stop-color:#040921"/>
				<stop  offset="0.165" style="stop-color:#01021B"/>
				<stop  offset="0.1978" style="stop-color:#000019"/>
				<stop  offset="0.2802" style="stop-color:#000012"/>
				<stop  offset="0.2888" style="stop-color:#030416"/>
				<stop  offset="0.2976" style="stop-color:#0E0E23"/>
				<stop  offset="0.3066" style="stop-color:#1F2037"/>
				<stop  offset="0.3157" style="stop-color:#373954"/>
				<stop  offset="0.3249" style="stop-color:#56597A"/>
				<stop  offset="0.334" style="stop-color:#7B80A7"/>
				<stop  offset="0.3407" style="stop-color:#9AA0CD"/>
				<stop  offset="0.3589" style="stop-color:#767BA4"/>
				<stop  offset="0.3835" style="stop-color:#4C4F74"/>
				<stop  offset="0.4068" style="stop-color:#2B2D4E"/>
				<stop  offset="0.4283" style="stop-color:#141432"/>
				<stop  offset="0.4472" style="stop-color:#050522"/>
				<stop  offset="0.4615" style="stop-color:#00001C"/>
				<stop  offset="0.5055" style="stop-color:#707380"/>
				<stop  offset="1" style="stop-color:#9D9DA8"/>
			</linearGradient>
			<path opacity="0.55" mask="url(#SVGID_4_)" fill="url(#SVGID_6_)" enable-background="new    " d="M93.235,73.265
				c7.703-0.822,16.605,2.402,23.531,9.331c10.729,10.724,12.633,26.212,4.256,34.587c-0.795,0.797-1.672,1.474-2.588,2.086
				l22.189,43.929c5.24-2.375,10.044-5.615,14.212-9.783c23.479-23.479,18.136-66.886-11.933-96.956
				c-21.965-21.965-51.045-30.72-74.276-24.703L93.235,73.265z"/>
			
				<linearGradient id="SVGID_7_" gradientUnits="userSpaceOnUse" x1="467.3281" y1="-1227.0698" x2="495.2783" y2="-1258.698" gradientTransform="matrix(0.7071 0.7071 -0.7071 0.7071 -1149.5244 596.6884)">
				<stop  offset="0" style="stop-color:#A9EDD7"/>
				<stop  offset="0.025" style="stop-color:#B8E6D6"/>
				<stop  offset="0.0876" style="stop-color:#D8D7D3"/>
				<stop  offset="0.1401" style="stop-color:#ECCDD1"/>
				<stop  offset="0.1758" style="stop-color:#F3CAD0"/>
				<stop  offset="0.3297" style="stop-color:#AE95FF"/>
				<stop  offset="0.6374" style="stop-color:#FF9DDC"/>
				<stop  offset="0.6983" style="stop-color:#FD9EDC"/>
				<stop  offset="0.7332" style="stop-color:#F4A2DC"/>
				<stop  offset="0.7616" style="stop-color:#E6A9DD"/>
				<stop  offset="0.7864" style="stop-color:#D3B3DE"/>
				<stop  offset="0.8087" style="stop-color:#B9BFDF"/>
				<stop  offset="0.8132" style="stop-color:#B3C2DF"/>
				<stop  offset="0.9011" style="stop-color:#81CEFF"/>
			</linearGradient>
			<path fill="url(#SVGID_7_)" d="M45.944,44.522c-2.048,2.049-3.864,4.258-5.478,6.59l39.687,29.719
				c0.599-0.879,1.252-1.726,2.021-2.495c1.346-1.347,2.89-2.396,4.551-3.22L58.384,35.564
				C53.828,37.849,49.639,40.827,45.944,44.522z"/>
			
				<linearGradient id="SVGID_8_" gradientUnits="userSpaceOnUse" x1="463.4854" y1="-1237.582" x2="513.5068" y2="-1274.3629" gradientTransform="matrix(0.7071 0.7071 -0.7071 0.7071 -1149.5244 596.6884)">
				<stop  offset="0" style="stop-color:#A9EDD7"/>
				<stop  offset="0.025" style="stop-color:#B8E6D6"/>
				<stop  offset="0.0876" style="stop-color:#D8D7D3"/>
				<stop  offset="0.1401" style="stop-color:#ECCDD1"/>
				<stop  offset="0.1758" style="stop-color:#F3CAD0"/>
				<stop  offset="0.3297" style="stop-color:#AE95FF"/>
				<stop  offset="0.6374" style="stop-color:#FF9DDC"/>
				<stop  offset="0.6983" style="stop-color:#FD9EDC"/>
				<stop  offset="0.7332" style="stop-color:#F4A2DC"/>
				<stop  offset="0.7616" style="stop-color:#E6A9DD"/>
				<stop  offset="0.7864" style="stop-color:#D3B3DE"/>
				<stop  offset="0.8087" style="stop-color:#B9BFDF"/>
				<stop  offset="0.8132" style="stop-color:#B3C2DF"/>
				<stop  offset="0.9011" style="stop-color:#81CEFF"/>
			</linearGradient>
			<path fill="url(#SVGID_8_)" d="M61.341,34.21l26.486,40.392c0.891-0.368,1.822-0.648,2.769-0.881L68.88,31.689
				C66.29,32.351,63.769,33.179,61.341,34.21z"/>
			
				<linearGradient id="SVGID_9_" gradientUnits="userSpaceOnUse" x1="488.252" y1="-1290.9365" x2="607.4011" y2="-1235.0396" gradientTransform="matrix(0.7071 0.7071 -0.7071 0.7071 -1149.5244 596.6884)">
				<stop  offset="0" style="stop-color:#A9EDD7"/>
				<stop  offset="0.025" style="stop-color:#B8E6D6"/>
				<stop  offset="0.0876" style="stop-color:#D8D7D3"/>
				<stop  offset="0.1401" style="stop-color:#ECCDD1"/>
				<stop  offset="0.1758" style="stop-color:#F3CAD0"/>
				<stop  offset="0.3297" style="stop-color:#AE95FF"/>
				<stop  offset="0.6374" style="stop-color:#FF9DDC"/>
				<stop  offset="0.6983" style="stop-color:#FD9EDC"/>
				<stop  offset="0.7332" style="stop-color:#F4A2DC"/>
				<stop  offset="0.7616" style="stop-color:#E6A9DD"/>
				<stop  offset="0.7864" style="stop-color:#D3B3DE"/>
				<stop  offset="0.8087" style="stop-color:#B9BFDF"/>
				<stop  offset="0.8132" style="stop-color:#B3C2DF"/>
				<stop  offset="0.9011" style="stop-color:#81CEFF"/>
			</linearGradient>
			<path fill="url(#SVGID_9_)" d="M162.493,143.378c0.53-0.915,1.021-1.854,1.489-2.802l-39.646-28.135
				c-0.156,0.334-0.314,0.664-0.495,0.981L162.493,143.378z"/>
			
				<linearGradient id="SVGID_10_" gradientUnits="userSpaceOnUse" x1="479.084" y1="-1271.4277" x2="598.2474" y2="-1215.5242" gradientTransform="matrix(0.7071 0.7071 -0.7071 0.7071 -1149.5244 596.6884)">
				<stop  offset="0" style="stop-color:#A9EDD7"/>
				<stop  offset="0.025" style="stop-color:#B8E6D6"/>
				<stop  offset="0.0876" style="stop-color:#D8D7D3"/>
				<stop  offset="0.1401" style="stop-color:#ECCDD1"/>
				<stop  offset="0.1758" style="stop-color:#F3CAD0"/>
				<stop  offset="0.3297" style="stop-color:#AE95FF"/>
				<stop  offset="0.6374" style="stop-color:#FF9DDC"/>
				<stop  offset="0.6983" style="stop-color:#FD9EDC"/>
				<stop  offset="0.7332" style="stop-color:#F4A2DC"/>
				<stop  offset="0.7616" style="stop-color:#E6A9DD"/>
				<stop  offset="0.7864" style="stop-color:#D3B3DE"/>
				<stop  offset="0.8087" style="stop-color:#B9BFDF"/>
				<stop  offset="0.8132" style="stop-color:#B3C2DF"/>
				<stop  offset="0.9011" style="stop-color:#81CEFF"/>
			</linearGradient>
			<path fill="url(#SVGID_10_)" d="M113.316,121.626l19.291,44.431c2.511-0.677,4.961-1.507,7.317-2.529l-24.073-42.812
				C115.034,121.075,114.188,121.381,113.316,121.626z"/>
			
				<linearGradient id="SVGID_11_" gradientUnits="userSpaceOnUse" x1="487.8975" y1="-1196.9185" x2="395.1599" y2="-1605.9564" gradientTransform="matrix(0.7071 0.7071 -0.7071 0.7071 -1149.5244 596.6884)">
				<stop  offset="0" style="stop-color:#A9EDD7"/>
				<stop  offset="0.025" style="stop-color:#B8E6D6"/>
				<stop  offset="0.0876" style="stop-color:#D8D7D3"/>
				<stop  offset="0.1401" style="stop-color:#ECCDD1"/>
				<stop  offset="0.1758" style="stop-color:#F3CAD0"/>
				<stop  offset="0.3297" style="stop-color:#AE95FF"/>
				<stop  offset="0.6374" style="stop-color:#FF9DDC"/>
				<stop  offset="0.6983" style="stop-color:#FD9EDC"/>
				<stop  offset="0.7332" style="stop-color:#F4A2DC"/>
				<stop  offset="0.7616" style="stop-color:#E6A9DD"/>
				<stop  offset="0.7864" style="stop-color:#D3B3DE"/>
				<stop  offset="0.8087" style="stop-color:#B9BFDF"/>
				<stop  offset="0.8132" style="stop-color:#B3C2DF"/>
				<stop  offset="0.9011" style="stop-color:#81CEFF"/>
			</linearGradient>
			<path fill="url(#SVGID_11_)" d="M38.586,54.029c-0.554,0.942-1.083,1.901-1.571,2.88l42.072,25.717
				c0.186-0.354,0.362-0.715,0.574-1.057L38.586,54.029z"/>
			<path opacity="0.39" fill="#FFFFFF" enable-background="new    " d="M118.284,38.603l-3.056-1.366l-10.396,37.404
				c0.369,0.029,0.729,0.059,1.099,0.109L118.284,38.603z"/>
			<path opacity="0.39" fill="#FFFFFF" enable-background="new    " d="M81.421,158.812l3.057,1.496l9.168-41.808
				c-0.396-0.048-0.798-0.089-1.191-0.153L81.421,158.812z"/>
			
				<linearGradient id="SVGID_12_" gradientUnits="userSpaceOnUse" x1="484.6211" y1="-1216.4697" x2="465.3138" y2="-1284.3214" gradientTransform="matrix(0.7071 0.7071 -0.7071 0.7071 -1149.5244 596.6884)">
				<stop  offset="0" style="stop-color:#A9EDD7"/>
				<stop  offset="0.025" style="stop-color:#B8E6D6"/>
				<stop  offset="0.0876" style="stop-color:#D8D7D3"/>
				<stop  offset="0.1401" style="stop-color:#ECCDD1"/>
				<stop  offset="0.1758" style="stop-color:#F3CAD0"/>
				<stop  offset="0.3297" style="stop-color:#AE95FF"/>
				<stop  offset="0.6374" style="stop-color:#FF9DDC"/>
				<stop  offset="0.6983" style="stop-color:#FD9EDC"/>
				<stop  offset="0.7332" style="stop-color:#F4A2DC"/>
				<stop  offset="0.7616" style="stop-color:#E6A9DD"/>
				<stop  offset="0.7864" style="stop-color:#D3B3DE"/>
				<stop  offset="0.8087" style="stop-color:#B9BFDF"/>
				<stop  offset="0.8132" style="stop-color:#B3C2DF"/>
				<stop  offset="0.9011" style="stop-color:#81CEFF"/>
			</linearGradient>
			<path fill="url(#SVGID_12_)" d="M31.695,73.663c1.227-7.171,5.096-15.949,4.606-14.974l42.395,25.108
				c0.186-0.355-1.045,0.635-1.957,4.409L31.695,73.663z"/>
			
				<linearGradient id="SVGID_13_" gradientUnits="userSpaceOnUse" x1="227.4033" y1="-1273.5063" x2="223.7247" y2="-1539.7686" gradientTransform="matrix(0.5118 0.847 -0.8559 0.5172 -1168.4081 543.1812)">
				<stop  offset="0" style="stop-color:#A9ED7C"/>
				<stop  offset="0.076" style="stop-color:#BFDA95"/>
				<stop  offset="0.1927" style="stop-color:#DBC2B5"/>
				<stop  offset="0.2906" style="stop-color:#EDB3C9"/>
				<stop  offset="0.3571" style="stop-color:#F3AED0"/>
				<stop  offset="0.9066" style="stop-color:#AEACD7"/>
				<stop  offset="1" style="stop-color:#FF9DDC"/>
			</linearGradient>
			<path fill="url(#SVGID_13_)" d="M49.869,41.172c-0.765,0.779-1.508,1.583-2.218,2.411l34.43,34.618
				c0.265-0.298,0.523-0.605,0.812-0.887L49.869,41.172z"/>
			
				<linearGradient id="SVGID_14_" gradientUnits="userSpaceOnUse" x1="485.0723" y1="-1284.1768" x2="604.2322" y2="-1228.2748" gradientTransform="matrix(0.7071 0.7071 -0.7071 0.7071 -1149.5244 596.6884)">
				<stop  offset="0" style="stop-color:#A9EDD7"/>
				<stop  offset="0.025" style="stop-color:#B8E6D6"/>
				<stop  offset="0.0876" style="stop-color:#D8D7D3"/>
				<stop  offset="0.1401" style="stop-color:#ECCDD1"/>
				<stop  offset="0.1758" style="stop-color:#F3CAD0"/>
				<stop  offset="0.3297" style="stop-color:#AE95FF"/>
				<stop  offset="0.6374" style="stop-color:#FF9DDC"/>
				<stop  offset="0.6983" style="stop-color:#FD9EDC"/>
				<stop  offset="0.7332" style="stop-color:#F4A2DC"/>
				<stop  offset="0.7616" style="stop-color:#E6A9DD"/>
				<stop  offset="0.7864" style="stop-color:#D3B3DE"/>
				<stop  offset="0.8087" style="stop-color:#B9BFDF"/>
				<stop  offset="0.8132" style="stop-color:#B3C2DF"/>
				<stop  offset="0.9011" style="stop-color:#81CEFF"/>
			</linearGradient>
			<path fill="url(#SVGID_14_)" d="M160.032,147.223l-37.259-32.132c-0.526,0.735-1.103,1.441-1.752,2.093
				c-1.265,1.268-2.701,2.27-4.25,3.062l25.932,41.97c4.436-2.264,8.521-5.188,12.133-8.802
				C156.77,151.482,158.486,149.402,160.032,147.223z"/>
			
				<linearGradient id="SVGID_15_" gradientUnits="userSpaceOnUse" x1="541.8125" y1="-1213.0791" x2="523.0567" y2="-1260.5204" gradientTransform="matrix(0.7071 0.7071 -0.7071 0.7071 -1149.5244 596.6884)">
				<stop  offset="0" style="stop-color:#FFFFFF"/>
				<stop  offset="1" style="stop-color:#BDD5EC"/>
			</linearGradient>
			<path opacity="0.44" fill="url(#SVGID_15_)" enable-background="new    " d="M116.963,82.791
				c-10.729-10.728-26.217-12.637-34.593-4.259c-8.377,8.375-6.469,23.864,4.26,34.593c10.725,10.727,26.213,12.631,34.588,4.255
				C129.596,109.005,127.688,93.517,116.963,82.791z M96.458,103.296c-3.777-3.778-4.447-9.229-1.5-12.176
				c2.947-2.947,8.397-2.277,12.176,1.5c3.771,3.772,4.443,9.223,1.496,12.171C105.684,107.739,100.231,107.066,96.458,103.296z"/>
			<path opacity="0.31" fill="none" stroke="#829ECE" stroke-width="0.5" enable-background="new    " d="M113.907,85.457
				c-8.898-8.899-21.619-10.603-28.416-3.805c-6.797,6.795-5.094,19.519,3.803,28.417c8.896,8.896,21.619,10.599,28.414,3.804
				C124.505,107.072,122.802,94.351,113.907,85.457z"/>
			<path opacity="0.18" fill="#829ECE" enable-background="new    " d="M85.293,81.455c6.964-6.938,19.827-5.153,28.812,3.803l0,0
				l-0.195,0.196l-0.197,0.197c-8.828-8.831-21.368-10.436-28.027-3.805l0,0c-6.631,6.66-5.023,19.197,3.805,28.026l0,0
				c8.824,8.823,21.36,10.429,28.021,3.799l0,0c6.631-6.661,5.023-19.198-3.799-28.021l0,0l0.197-0.197l0.195-0.196
				c8.951,8.981,10.731,21.845,3.797,28.806l0,0c-6.959,6.938-19.824,5.153-28.801-3.801l0,0
				C80.141,101.281,78.36,88.415,85.293,81.455L85.293,81.455z"/>
			<path opacity="0.31" fill="#FFFFFF" enable-background="new    " d="M84.806,81.942c6.963-6.935,19.826-5.152,28.811,3.805l0,0
				l-0.197,0.197l-0.195,0.193c-8.828-8.827-21.366-10.435-28.021-3.804l0,0c-6.631,6.658-5.023,19.197,3.805,28.024l0,0
				c8.824,8.824,21.361,10.43,28.021,3.803l0,0c6.634-6.662,5.021-19.2-3.799-28.023l0,0l0.192-0.193l0.197-0.197
				c8.95,8.979,10.733,21.843,3.797,28.803l0,0c-6.958,6.937-19.82,5.152-28.801-3.799l0,0
				C79.656,101.766,77.872,88.903,84.806,81.942L84.806,81.942z"/>
			
				<radialGradient id="SVGID_16_" cx="534.7676" cy="-1320.252" r="47.319" gradientTransform="matrix(0.7071 0.7071 -0.7059 0.7059 -1149 596.1639)" gradientUnits="userSpaceOnUse">
				<stop  offset="0" style="stop-color:#FFFFFF"/>
				<stop  offset="0.0887" style="stop-color:#ECEEF1"/>
				<stop  offset="0.4088" style="stop-color:#AAB5C1"/>
				<stop  offset="0.6783" style="stop-color:#7A8B9E"/>
				<stop  offset="0.8834" style="stop-color:#5D7289"/>
				<stop  offset="1" style="stop-color:#526881"/>
			</radialGradient>
			<path fill="url(#SVGID_16_)" d="M29.924,91.088c-2.135-17.929,2.574-35.074,14.653-47.154l0,0
				c12.076-12.075,29.22-16.785,47.154-14.653l0,0c17.93,2.135,36.66,11.104,51.951,26.398l0,0l-0.189,0.193l-0.195,0.194
				c-15.211-15.211-33.829-24.121-51.631-26.235l0,0c-17.797-2.116-34.757,2.556-46.695,14.494l0,0
				c-11.939,11.94-16.613,28.9-14.497,46.697l0,0c2.116,17.798,11.027,36.416,26.239,51.628l0,0
				c15.209,15.209,33.828,24.119,51.623,26.231l0,0c17.799,2.115,34.766-2.557,46.699-14.491l0,0
				c11.938-11.938,16.605-28.9,14.488-46.697l0,0c-2.105-17.799-11.021-36.417-26.229-51.627l0,0l0.195-0.194l0.191-0.193
				c15.291,15.29,24.26,34.021,26.396,51.948l0,0c2.132,17.934-2.576,35.078-14.652,47.154l0,0
				c-12.075,12.078-29.225,16.787-47.153,14.652l0,0c-17.933-2.136-36.661-11.104-51.952-26.396l0,0
				C41.028,127.749,32.058,109.02,29.924,91.088L29.924,91.088z"/>
			
				<radialGradient id="SVGID_17_" cx="531.8887" cy="-1247.9395" r="21.0751" gradientTransform="matrix(0.7071 0.7071 -0.7071 0.7071 -1149.5244 596.6884)" gradientUnits="userSpaceOnUse">
				<stop  offset="0" style="stop-color:#A0ACBB"/>
				<stop  offset="1" style="stop-color:#315673"/>
			</radialGradient>
			<path fill="url(#SVGID_17_)" d="M115.891,83.473c10.584,10.584,12.627,25.77,4.754,34.302c0.17-0.154,0.34-0.31,0.506-0.471
				c8.43-8.432,6.514-24.016-4.28-34.811C106.066,71.7,90.483,69.782,82.055,78.211c-0.163,0.163-0.316,0.335-0.472,0.504
				C90.116,70.844,105.303,72.886,115.891,83.473z"/>
			
				<radialGradient id="SVGID_18_" cx="510.6758" cy="-1182.6216" r="39.9531" gradientTransform="matrix(0.7071 0.7071 -0.7071 0.7071 -1149.5244 596.6884)" gradientUnits="userSpaceOnUse">
				<stop  offset="0" style="stop-color:#D1D7DE"/>
				<stop  offset="1" style="stop-color:#607C93"/>
			</radialGradient>
			<path fill="url(#SVGID_18_)" d="M58.085,141.533c-30.146-30.146-35.273-73.889-11.454-97.709c1.991-1.99,4.132-3.762,6.382-5.35
				c-2.587,1.743-5.026,3.738-7.284,5.994c-23.819,23.82-18.693,67.562,11.453,97.708c27.622,27.622,66.653,34.217,91.321,16.801
				C123.796,175.602,85.368,168.814,58.085,141.533z"/>
			
				<radialGradient id="SVGID_19_" cx="526.0352" cy="-1241.3145" r="7.4089" gradientTransform="matrix(0.7172 0.7172 -0.7071 0.7071 -1150.4832 595.7306)" gradientUnits="userSpaceOnUse">
				<stop  offset="0" style="stop-color:#A0ACBB"/>
				<stop  offset="1" style="stop-color:#315673"/>
			</radialGradient>
			<path opacity="0.82" fill="url(#SVGID_19_)" enable-background="new    " d="M106.73,93.066
				c3.666,3.667,4.401,8.918,1.787,11.997c0.123-0.104,0.252-0.209,0.369-0.328c3.012-3.012,2.354-8.547-1.459-12.362
				c-3.818-3.818-9.36-4.475-12.373-1.462c-0.118,0.117-0.222,0.245-0.325,0.371C97.81,88.658,103.061,89.396,106.73,93.066z"/>
			<path opacity="0.58" fill="#FFFFFF" enable-background="new    " d="M107.157,92.444c3.713,3.712,4.426,9.057,1.733,12.213
				c0.129-0.111,0.26-0.218,0.379-0.337c2.692-2.694,2.062-8.33-1.799-12.192c-3.863-3.864-9.653-4.346-12.196-1.801
				c-0.121,0.12-0.225,0.251-0.334,0.384C98.099,88.017,103.443,88.73,107.157,92.444z"/>
			
				<radialGradient id="SVGID_20_" cx="531.8867" cy="-1248.937" r="20.9538" gradientTransform="matrix(0.7071 0.7071 -0.7071 0.7071 -1149.5244 596.6884)" gradientUnits="userSpaceOnUse">
				<stop  offset="0" style="stop-color:#FFFFFF"/>
				<stop  offset="1" style="stop-color:#000000"/>
			</radialGradient>
			<path fill="url(#SVGID_20_)" d="M116.922,82.44c10.585,10.584,12.628,25.77,4.755,34.303c0.173-0.155,0.341-0.31,0.503-0.472
				c7.53-7.53,5.862-23.361-4.932-34.157C106.45,71.316,90.617,69.648,83.086,77.18c-0.161,0.163-0.313,0.333-0.47,0.503
				C91.149,69.811,106.334,71.854,116.922,82.44z"/>
			
				<radialGradient id="SVGID_21_" cx="531.8887" cy="-1247.2227" r="20.9596" gradientTransform="matrix(0.7071 0.7071 -0.7071 0.7071 -1149.5244 596.6884)" gradientUnits="userSpaceOnUse">
				<stop  offset="0" style="stop-color:#A0ACBB"/>
				<stop  offset="1" style="stop-color:#133D5F"/>
			</radialGradient>
			<path fill="url(#SVGID_21_)" d="M115.693,83.668c10.584,10.584,12.627,25.77,4.755,34.303c0.172-0.154,0.342-0.308,0.505-0.47
				c7.559-7.56,5.896-23.396-4.901-34.191c-10.797-10.798-26.568-12.527-34.191-4.903c-0.164,0.163-0.316,0.334-0.473,0.503
				C89.921,71.037,105.107,73.081,115.693,83.668z"/>
			
				<radialGradient id="SVGID_22_" cx="522.8164" cy="-1193.8833" r="112.1799" gradientTransform="matrix(0.7071 0.7071 -0.7071 0.7071 -1149.5244 596.6884)" gradientUnits="userSpaceOnUse">
				<stop  offset="0" style="stop-color:#FFFFFF"/>
				<stop  offset="0.052" style="stop-color:#EEEEEE"/>
				<stop  offset="0.3228" style="stop-color:#9B9B9B"/>
				<stop  offset="0.5624" style="stop-color:#585858"/>
				<stop  offset="0.7619" style="stop-color:#282828"/>
				<stop  offset="0.9137" style="stop-color:#0B0B0B"/>
				<stop  offset="1" style="stop-color:#000000"/>
			</radialGradient>
			<path fill="url(#SVGID_22_)" d="M154.768,153.475c-23.531,23.213-66.75,17.813-96.724-12.156
				c-29.976-29.976-35.372-73.189-12.157-96.724c-0.079,0.075-0.159,0.146-0.235,0.221C22.174,68.294,27.517,111.7,57.59,141.773
				c30.067,30.064,73.477,35.412,96.954,11.935C154.62,153.632,154.688,153.551,154.768,153.475z"/>
			
				<linearGradient id="SVGID_23_" gradientUnits="userSpaceOnUse" x1="329.9287" y1="-1338.0732" x2="447.7798" y2="-1282.7853" gradientTransform="matrix(0.5901 0.8073 -0.8073 0.5901 -1156.8916 557.7153)">
				<stop  offset="0" style="stop-color:#A9EDD7"/>
				<stop  offset="0.025" style="stop-color:#B8E6D6"/>
				<stop  offset="0.0876" style="stop-color:#D8D7D3"/>
				<stop  offset="0.1401" style="stop-color:#ECCDD1"/>
				<stop  offset="0.1758" style="stop-color:#F3CAD0"/>
				<stop  offset="0.3297" style="stop-color:#AE95FF"/>
				<stop  offset="0.6374" style="stop-color:#FF9DDC"/>
				<stop  offset="0.6983" style="stop-color:#FD9EDC"/>
				<stop  offset="0.7332" style="stop-color:#F4A2DC"/>
				<stop  offset="0.7616" style="stop-color:#E6A9DD"/>
				<stop  offset="0.7864" style="stop-color:#D3B3DE"/>
				<stop  offset="0.8087" style="stop-color:#B9BFDF"/>
				<stop  offset="0.8132" style="stop-color:#B3C2DF"/>
				<stop  offset="0.9011" style="stop-color:#81CEFF"/>
			</linearGradient>
			<path fill="url(#SVGID_23_)" d="M153.396,154.346c0.664-0.826,1.293-1.678,2.293-1.896l-34.855-33.888
				c-0.596-0.348-0.807-0.041-1.027,0.246L153.396,154.346z"/>
			<path fill="#D8DAEB" d="M119.807,79.557c-12.88-12.878-31.47-15.165-41.521-5.112c-10.055,10.054-7.766,28.644,5.113,41.521
				c12.875,12.875,31.462,15.165,41.518,5.109C134.968,111.021,132.682,92.432,119.807,79.557z M86.434,112.93
				C75.705,102.2,73.8,86.711,82.175,78.336c8.377-8.376,23.864-6.469,34.593,4.26c10.729,10.724,12.633,26.212,4.256,34.587
				C112.646,125.561,97.159,123.654,86.434,112.93z"/>
			
				<radialGradient id="SVGID_24_" cx="591.4941" cy="-1204.5952" r="123.2485" gradientTransform="matrix(0.7071 0.7071 -0.7071 0.7071 -1149.5244 596.6884)" gradientUnits="userSpaceOnUse">
				<stop  offset="0" style="stop-color:#FFFFFF"/>
				<stop  offset="1" style="stop-color:#FFFFFF;stop-opacity:0"/>
			</radialGradient>
			<path fill="url(#SVGID_24_)" d="M78.162,99.474c-2.439-7.892-1.22-15.903,4.013-21.138c8.377-8.376,23.864-6.469,34.593,4.26
				c3.803,3.8,6.489,8.2,8.012,12.671c-1.465-4.737-4.243-9.428-8.271-13.453c-10.729-10.728-26.216-12.634-34.592-4.258
				C76.509,82.962,75.392,91.333,78.162,99.474z M165.825,93.383c6.842,22.12,3.426,44.579-11.248,59.252
				C131.1,176.114,87.69,170.77,57.62,140.7c-11.054-11.056-18.755-23.917-22.923-36.927c4.108,13.273,11.908,26.43,23.185,37.707
				c30.068,30.065,73.478,35.414,96.954,11.934C169.684,138.568,172.991,115.755,165.825,93.383z"/>
			
				<radialGradient id="SVGID_25_" cx="497.4404" cy="-1296.1523" r="132.1914" gradientTransform="matrix(0.7071 0.7071 -0.7071 0.7071 -1149.5244 596.6884)" gradientUnits="userSpaceOnUse">
				<stop  offset="0" style="stop-color:#FFFFFF"/>
				<stop  offset="1" style="stop-color:#FFFFFF;stop-opacity:0"/>
			</radialGradient>
			<path fill="url(#SVGID_25_)" d="M142.902,56.458c-30.071-30.071-73.479-35.414-96.958-11.936
				c-6.656,6.656-10.99,14.917-13.108,24.018c2.181-8.791,6.449-16.772,12.914-23.237c23.478-23.477,66.889-18.135,96.959,11.938
				c21.545,21.546,30.389,49.935,25.038,72.937C173.484,107.036,164.691,78.247,142.902,56.458z"/>
		</g>
	</g>
</g>
</svg>
