<?xml version="1.0" encoding="utf-8"?>
<!-- Generator: Adobe Illustrator 15.0.0, SVG Export Plug-In . SVG Version: 6.00 Build 0)  -->
<!DOCTYPE svg PUBLIC "-//W3C//DTD SVG 1.1//EN" "http://www.w3.org/Graphics/SVG/1.1/DTD/svg11.dtd">
<svg version="1.1" id="Layer_1" xmlns="http://www.w3.org/2000/svg" xmlns:xlink="http://www.w3.org/1999/xlink" x="0px" y="0px"
	 width="200px" height="200px" viewBox="0 0 200 200" enable-background="new 0 0 200 200" xml:space="preserve">
<g id="icon">
	<g id="Layer_2">
	</g>
	<g>
		<path fill="#FFFFFF" d="M65.288,45.681c-0.094-0.007-0.188-0.011-0.28-0.011c-1.549,0-2.793,0.985-2.837,2.295
			c-0.048,1.386,1.27,2.612,2.944,2.735c0.093,0.007,0.185,0.01,0.277,0.01c1.547,0,2.794-0.985,2.839-2.293
			C68.279,47.028,66.962,45.804,65.288,45.681z"/>
		
			<linearGradient id="SVGID_1_" gradientUnits="userSpaceOnUse" x1="343.0322" y1="-682.5889" x2="343.0322" y2="-785.4793" gradientTransform="matrix(0.8609 -0.4868 -0.6691 -0.7832 -675.0002 -297.7151)">
			<stop  offset="0" style="stop-color:#FFFFFF"/>
			<stop  offset="1" style="stop-color:#A8A8A8"/>
		</linearGradient>
		<path fill="url(#SVGID_1_)" d="M184.582,97.521c1.482,1.734,1.314,2.83-0.604,3.92L77.596,163.814
			c-1.913,1.086-3.586,0.812-5.062-0.922L15.33,95.929c-1.482-1.731-1.088-2.957,0.826-4.044l104.256-55.751
			c1.926-1.092,3.646-0.636,5.131,1.095L184.582,97.521z"/>
		
			<linearGradient id="SVGID_2_" gradientUnits="userSpaceOnUse" x1="249.8877" y1="-625.042" x2="256.8877" y2="-733.0428" gradientTransform="matrix(1 0 0 -1 -150 -530)">
			<stop  offset="0" style="stop-color:#FFFFFF"/>
			<stop  offset="1" style="stop-color:#CECECE"/>
		</linearGradient>
		<path fill="url(#SVGID_2_)" d="M184.918,97.407c1.486,1.733,1.316,2.832-0.616,3.922L77.365,164.021
			c-1.926,1.09-3.602,0.82-5.087-0.908L14.989,96.046c-1.479-1.732-1.085-2.959,0.843-4.048l104.816-56.081
			c1.933-1.09,3.666-0.635,5.146,1.097L184.918,97.407z"/>
		<path d="M65.288,45.681c-0.094-0.007-0.188-0.011-0.28-0.011c-1.549,0-2.793,0.985-2.837,2.295
			c-0.048,1.386,1.27,2.612,2.944,2.735c0.093,0.007,0.185,0.01,0.277,0.01c1.547,0,2.794-0.985,2.839-2.293
			C68.279,47.028,66.962,45.804,65.288,45.681z"/>
		
			<radialGradient id="SVGID_3_" cx="222.0156" cy="-642.6455" r="27.3223" gradientTransform="matrix(1 0 0 -1 -150 -530)" gradientUnits="userSpaceOnUse">
			<stop  offset="0.5" style="stop-color:#52B5FF"/>
			<stop  offset="0.5706" style="stop-color:#4EAFFA"/>
			<stop  offset="0.6678" style="stop-color:#439DEC"/>
			<stop  offset="0.7805" style="stop-color:#3080D4"/>
			<stop  offset="0.9039" style="stop-color:#1758B4"/>
			<stop  offset="1" style="stop-color:#003396"/>
		</radialGradient>
		<path fill="url(#SVGID_3_)" d="M99.651,115.697c2.885,3.312,2.083,7.804-1.78,10.033l-18.719,10.793
			c-3.863,2.229-9.33,1.354-12.212-1.961l-22.642-25.629c-2.83-3.349-1.934-7.787,2.008-9.926l19.069-10.347
			c3.938-2.129,9.428-1.152,12.256,2.192L99.651,115.697z"/>
		<path opacity="0.23" fill="none" stroke="#000000" stroke-width="2" stroke-miterlimit="10" enable-background="new    " d="
			M99.651,115.697c2.885,3.312,2.083,7.804-1.78,10.033l-18.719,10.793c-3.863,2.229-9.33,1.354-12.212-1.961l-22.642-25.629
			c-2.83-3.349-1.934-7.787,2.008-9.926l19.069-10.347c3.938-2.129,9.428-1.152,12.256,2.192L99.651,115.697z"/>
		
			<linearGradient id="SVGID_4_" gradientUnits="userSpaceOnUse" x1="1401.502" y1="-2144.4287" x2="1356.7025" y2="-2088.3489" gradientTransform="matrix(1.0153 -0.0044 0.1433 -0.9856 -979.4456 -1983.9028)">
			<stop  offset="0" style="stop-color:#FFFFFF"/>
			<stop  offset="1" style="stop-color:#000000"/>
		</linearGradient>
		<polygon opacity="0.65" fill="url(#SVGID_4_)" enable-background="new    " points="109.551,100.895 113.133,96.312 
			115.748,96.015 119.068,94.353 122.738,92.009 125.811,91.577 118.865,96.626 114.67,98.394 114.295,99.407 		"/>
		
			<linearGradient id="SVGID_5_" gradientUnits="userSpaceOnUse" x1="1419.6162" y1="-2130.5977" x2="1377.7355" y2="-2078.1711" gradientTransform="matrix(1.0153 -0.0044 0.1433 -0.9856 -979.4456 -1983.9028)">
			<stop  offset="0" style="stop-color:#FFFFFF"/>
			<stop  offset="1" style="stop-color:#000000"/>
		</linearGradient>
		<polygon opacity="0.65" fill="url(#SVGID_5_)" enable-background="new    " points="130.912,88.553 132.497,86.131 
			134.723,85.819 136.225,84.006 143.087,81.562 147.393,79.74 140.525,84.283 138.883,84.892 136.809,86.413 		"/>
		
			<linearGradient id="SVGID_6_" gradientUnits="userSpaceOnUse" x1="1132.6543" y1="-1789.7349" x2="1068.8314" y2="-1709.8416" gradientTransform="matrix(0.9511 -0.1072 0.0956 -1.0621 -779.4988 -1661.6315)">
			<stop  offset="0" style="stop-color:#FFFFFF"/>
			<stop  offset="1" style="stop-color:#000000"/>
		</linearGradient>
		<polygon opacity="0.65" fill="url(#SVGID_6_)" enable-background="new    " points="94.565,79.812 97.705,83.317 98.885,79.81 
			102.859,78.885 104.044,75.374 100.848,77.183 		"/>
		
			<linearGradient id="SVGID_7_" gradientUnits="userSpaceOnUse" x1="1415.083" y1="-2129.8882" x2="1346.327" y2="-2043.8197" gradientTransform="matrix(1.0153 -0.0044 0.1433 -0.9856 -979.4456 -1983.9028)">
			<stop  offset="0" style="stop-color:#FFFFFF"/>
			<stop  offset="1" style="stop-color:#000000"/>
		</linearGradient>
		<polygon opacity="0.65" fill="url(#SVGID_7_)" enable-background="new    " points="107.182,74.047 110.631,74.149 
			113.423,70.971 116.344,70.059 121.997,66.427 126.118,66.853 126.98,64.138 132.77,62.759 138.547,58.21 129.768,60.956 		"/>
		
			<linearGradient id="SVGID_8_" gradientUnits="userSpaceOnUse" x1="1141.5801" y1="-1799.4062" x2="1077.9518" y2="-1719.7565" gradientTransform="matrix(0.9511 -0.1072 0.0956 -1.0621 -779.4988 -1661.6315)">
			<stop  offset="0" style="stop-color:#FFFFFF"/>
			<stop  offset="1" style="stop-color:#000000"/>
		</linearGradient>
		<polygon opacity="0.65" fill="url(#SVGID_8_)" enable-background="new    " points="102.223,89.253 105.35,92.757 106.54,89.24 
			110.506,88.313 111.678,84.802 108.5,86.616 		"/>
		
			<linearGradient id="SVGID_9_" gradientUnits="userSpaceOnUse" x1="1423.3486" y1="-2138.7104" x2="1355.7831" y2="-2054.1318" gradientTransform="matrix(1.0153 -0.0044 0.1433 -0.9856 -979.4456 -1983.9028)">
			<stop  offset="0" style="stop-color:#FFFFFF"/>
			<stop  offset="1" style="stop-color:#000000"/>
		</linearGradient>
		<polygon opacity="0.65" fill="url(#SVGID_9_)" enable-background="new    " points="114.835,83.485 118.284,83.585 121.02,80.337 
			123.943,79.424 129.596,75.778 133.727,76.21 134.59,73.491 140.372,72.118 146.154,67.573 137.369,70.331 		"/>
		<path opacity="0.49" fill="#FFFFFF" enable-background="new    " d="M74.949,52.442c-1.092,0.594-2.167,1.179-2.79,1.518
			c-0.002,0.008-0.001,0.016-0.004,0.022c0,0,1.409-0.771,2.952-1.608C75.059,52.4,74.998,52.415,74.949,52.442z"/>
		<path fill="#FFFFFF" d="M81.096,52.647c-1.061,0.57-2.102,1.127-2.724,1.463c-0.01,0.043-0.017,0.09-0.027,0.132
			c0,0,3.541-2.009,5.204-2.899c0.121-0.064,0.261-0.109,0.395-0.16C83.609,51.26,81.381,52.495,81.096,52.647z"/>
		
			<linearGradient id="SVGID_10_" gradientUnits="userSpaceOnUse" x1="1364.8672" y1="-508.1074" x2="1383.8162" y2="-543.426" gradientTransform="matrix(0.9165 0.0683 0.0376 -1.0883 -1168.7593 -616.7803)">
			<stop  offset="0" style="stop-color:#FFFFFF"/>
			<stop  offset="0.6871" style="stop-color:#ADADAD"/>
			<stop  offset="0.7592" style="stop-color:#A8A8A8"/>
			<stop  offset="0.8524" style="stop-color:#989898"/>
			<stop  offset="0.9396" style="stop-color:#828282"/>
			<stop  offset="1" style="stop-color:#CACACA"/>
		</linearGradient>
		<path fill="url(#SVGID_10_)" d="M91.357,52.065c-1.637-2.129-4.82-2.597-6.787-1.545c-0.89,0.479-3.681,2.084-4.366,2.453
			c-2.988,1.631-2.647-2.564-2.627-3.209c0.198-5.674-5.196-10.689-12.044-11.2c-6.848-0.511-12.562,3.678-12.759,9.354
			c-0.159,4.651,3.438,8.86,8.513,10.506c0.755,0.243,6.615,1.569,2.461,3.405c-0.743,0.4-3.01,1.361-3.971,1.879
			c-2.291,1.23-3.52,4.154-1.91,6.427c3.648,5.152,5.402,8.128,5.402,8.128l33.645-18.754
			C96.914,59.509,95.021,56.836,91.357,52.065z M62.17,47.965c0.047-1.388,1.441-2.411,3.117-2.284
			c1.675,0.123,2.991,1.348,2.943,2.736c-0.047,1.386-1.443,2.409-3.116,2.283C63.439,50.577,62.122,49.351,62.17,47.965z"/>
		<path d="M99.139,116.248c-0.579-0.17-1.935-1.055-2.631-1.13c-3.005-0.316-10.514,2.391-13.245,1.61
			c-1.367-0.394-4.065-2.496-4.267-3.711c-0.151-0.914-0.463-2.142-0.924-3.49c-0.441-1.293-0.102-2.829-0.803-4.195
			c-0.618-1.204-1.25-0.508-1.428-0.82c-0.946-1.676-2.086-3.229-3.396-4.354c-3.377-2.909-8.07-4.229-11.758-0.979
			c-3.688,3.252-1.342,8.319,1.961,11.543c0.242,0.234-0.963,0.262-0.193,1.115c1.299,1.439,3.806,1.928,5.064,2.743
			c1.355,0.882,2.517,1.517,3.329,2.037c1.065,0.681,2.983,3.839,2.034,5.213c-1.99,2.877-2.597,4.147-4.896,6.522
			c-1.77,1.823-1.448,3.699-1.448,3.699l0.301,1.184c5.97,7.646,13.026,2.197,21.067-1.938
			C95.204,127.549,104.896,121.425,99.139,116.248z"/>
	</g>
</g>
</svg>
