<?xml version="1.0" encoding="utf-8"?>
<!-- Generator: Adobe Illustrator 15.0.0, SVG Export Plug-In . SVG Version: 6.00 Build 0)  -->
<!DOCTYPE svg PUBLIC "-//W3C//DTD SVG 1.1//EN" "http://www.w3.org/Graphics/SVG/1.1/DTD/svg11.dtd">
<svg version="1.1" id="Layer_1" xmlns="http://www.w3.org/2000/svg" xmlns:xlink="http://www.w3.org/1999/xlink" x="0px" y="0px"
	 width="200px" height="200px" viewBox="0 0 200 200" enable-background="new 0 0 200 200" xml:space="preserve">
<g id="icon">
	<g id="Layer_2">
	</g>
	<g id="Layer_1_1_">
		<g>
			<g>
				<g>
					
						<radialGradient id="SVGID_1_" cx="813.626" cy="-346.6709" r="117.5545" gradientTransform="matrix(0.2341 0.9722 -1.3264 0.3194 -556.272 -644.0113)" gradientUnits="userSpaceOnUse">
						<stop  offset="0" style="stop-color:#08DEFF"/>
						<stop  offset="0.3252" style="stop-color:#08A4FF"/>
						<stop  offset="0.8405" style="stop-color:#0F60B3"/>
						<stop  offset="1" style="stop-color:#1F90DF"/>
					</radialGradient>
					<path fill="url(#SVGID_1_)" d="M32.063,68.454c2.441-10.415,5.922-13.044,11.523-16.916
						c6.916-5.017,28.127-11.474,42.216-14.562c19.524-4.28,41.763-5.28,52.486-1.607c9.965,3.411,14.392,6.381,18.108,13.934
						c4.09,8.624,6.543,16.712,8.838,26.451c2.644,11.217,3.763,19.14,3.926,24.989c0.322,7.624-1.751,15.719-10.264,23.104
						c-10.166,8.82-27.959,15.426-47.125,19.631c-18.725,4.104-37.938,5.26-51.945,1.558c-9.344-2.468-13.61-7.647-17.278-13.531
						c-4.365-7.913-8.205-22.021-9.333-26.802C31.139,95.887,29.622,78.871,32.063,68.454z"/>
					
						<linearGradient id="SVGID_2_" gradientUnits="userSpaceOnUse" x1="312.5527" y1="1221.8682" x2="285.6857" y2="1328.4585" gradientTransform="matrix(1 0 0 1 -200 -1182)">
						<stop  offset="0" style="stop-color:#08A4FF;stop-opacity:0"/>
						<stop  offset="1" style="stop-color:#1667B2"/>
					</linearGradient>
					<path opacity="0.52" fill="url(#SVGID_2_)" enable-background="new    " d="M161.305,116.216
						c-9.93,8.619-27.309,15.067-46.029,19.175c-18.287,4.008-37.052,5.135-50.737,1.521c-9.126-2.409-13.294-7.473-16.877-13.219
						c-4.264-7.729-8.015-21.512-9.116-26.181c-2.029-8.609-3.511-25.229-1.126-35.404c0.825-3.525,1.777-6.123,2.891-8.188
						c-3.744,2.956-6.319,6.326-8.242,14.534c-2.441,10.417-0.925,27.433,1.152,36.248c1.128,4.78,4.968,18.889,9.333,26.802
						c3.668,5.883,7.935,11.064,17.278,13.531c14.011,3.701,33.225,2.548,51.942-1.557c19.166-4.205,36.959-10.812,47.125-19.636
						c6.379-5.532,9.146-11.471,9.99-17.307C167.326,109.833,164.908,113.09,161.305,116.216z"/>
					
						<radialGradient id="SVGID_3_" cx="809.6123" cy="-352.8818" r="106.7289" gradientTransform="matrix(0.2341 0.9722 -1.3264 0.3194 -567.5825 -644.3365)" gradientUnits="userSpaceOnUse">
						<stop  offset="0" style="stop-color:#00FFFF"/>
						<stop  offset="1" style="stop-color:#0086FF;stop-opacity:0"/>
					</radialGradient>
					<path fill="url(#SVGID_3_)" d="M40.913,66.44c2.217-9.457,5.378-11.843,10.462-15.359c6.28-4.553,25.398-10.416,38.191-13.221
						c17.727-3.887,38.056-4.795,47.792-1.46c9.052,3.098,13.065,5.794,16.441,12.65c3.713,7.831,5.939,15.173,8.024,24.018
						c2.399,10.183,3.415,17.378,3.562,22.688c0.295,6.922-1.59,14.271-9.316,20.979c-9.229,8.016-25.385,14.008-42.783,17.822
						c-16.997,3.729-34.441,4.773-47.162,1.413c-8.483-2.239-12.358-6.944-15.688-12.284c-3.963-7.187-7.449-19.994-8.474-24.333
						C40.075,91.349,38.697,75.898,40.913,66.44z"/>
					
						<radialGradient id="SVGID_4_" cx="267.8467" cy="1204.7822" r="30.6684" fx="273.7466" fy="1217.9944" gradientTransform="matrix(0.9505 0.031 0.1506 1.057 -348.1332 -1146.0225)" gradientUnits="userSpaceOnUse">
						<stop  offset="0.3252" style="stop-color:#08A4FF"/>
						<stop  offset="0.8405" style="stop-color:#0F60B3"/>
						<stop  offset="1" style="stop-color:#1F90DF"/>
					</radialGradient>
					<path fill="url(#SVGID_4_)" d="M101.25,142.792c1.701,3.771,2.161,8.22,0.973,12.634c-2.34,8.68-8.197,11.069-8.197,11.069
						c10.845,2.476,20.085-7.157,23.348-16.261c1.424-3.971,1.549-8.094,1.89-11.739C119.51,135.836,99.955,139.923,101.25,142.792z
						"/>
				</g>
			</g>
		</g>
	</g>
</g>
</svg>
