<?xml version="1.0" encoding="utf-8"?>
<!-- Generator: Adobe Illustrator 15.0.0, SVG Export Plug-In . SVG Version: 6.00 Build 0)  -->
<!DOCTYPE svg PUBLIC "-//W3C//DTD SVG 1.1//EN" "http://www.w3.org/Graphics/SVG/1.1/DTD/svg11.dtd">
<svg version="1.1" id="Layer_1" xmlns="http://www.w3.org/2000/svg" xmlns:xlink="http://www.w3.org/1999/xlink" x="0px" y="0px"
	 width="200px" height="200px" viewBox="0 0 200 200" enable-background="new 0 0 200 200" xml:space="preserve">
<g id="icon">
	<g id="Layer_2">
	</g>
	<g id="Layer_1_1_">
		<g>
			
				<radialGradient id="SVGID_1_" cx="249.1602" cy="-507.0215" r="0.5695" gradientTransform="matrix(1 0 0 -1 -150 -530)" gradientUnits="userSpaceOnUse">
				<stop  offset="0" style="stop-color:#6D93B3"/>
				<stop  offset="1" style="stop-color:#263047"/>
			</radialGradient>
			<polygon fill="url(#SVGID_1_)" points="20.735,56.094 51.209,174.236 52.291,171.368 21.817,53.224 			"/>
			
				<linearGradient id="SVGID_2_" gradientUnits="userSpaceOnUse" x1="171.8164" y1="-632.0337" x2="329.2656" y2="-632.0337" gradientTransform="matrix(1 0 0 -1 -150 -530)">
				<stop  offset="0" style="stop-color:#3A4453"/>
				<stop  offset="1" style="stop-color:#000000"/>
			</linearGradient>
			<polygon fill="url(#SVGID_2_)" points="179.266,144.229 52.354,171.6 21.817,53.224 141.848,32.468 			"/>
			
				<radialGradient id="SVGID_3_" cx="116.5234" cy="-522.9058" r="6.5517" gradientTransform="matrix(1 0 0 -1 -150 -530)" gradientUnits="userSpaceOnUse">
				<stop  offset="0" style="stop-color:#6D93B3"/>
				<stop  offset="1" style="stop-color:#141C38"/>
			</radialGradient>
			<polygon fill="url(#SVGID_3_)" points="178.184,147.1 179.266,144.229 52.291,171.368 51.209,174.236 51.271,174.471 			"/>
			<g>
				<polygon opacity="0.35" fill="#231F20" enable-background="new    " points="171.572,144.364 55.736,170.159 26.471,60.667 
					134.579,41.159 				"/>
				
					<linearGradient id="SVGID_4_" gradientUnits="userSpaceOnUse" x1="229.6836" y1="-626.2412" x2="231.3963" y2="-626.8116" gradientTransform="matrix(1 0 0 -1 -150 -530)">
					<stop  offset="0" style="stop-color:#C5C5C5"/>
					<stop  offset="1" style="stop-color:#8C8C8C"/>
				</linearGradient>
				<polygon fill="url(#SVGID_4_)" points="170.582,141.473 56.813,166.605 27.547,57.114 29.397,53.223 137.773,37.609 
					171.842,138.416 				"/>
				
					<radialGradient id="SVGID_5_" cx="44.0049" cy="-1048.0371" r="102.4869" gradientTransform="matrix(0.9397 -0.1403 -0.2942 -0.9939 -255.8469 -970.963)" gradientUnits="userSpaceOnUse">
					<stop  offset="0" style="stop-color:#FFFFFF"/>
					<stop  offset="0.2923" style="stop-color:#FCFCFC"/>
					<stop  offset="0.5367" style="stop-color:#F1F1F1"/>
					<stop  offset="0.764" style="stop-color:#E0E0E0"/>
					<stop  offset="0.9797" style="stop-color:#C8C8C8"/>
					<stop  offset="1" style="stop-color:#C5C5C5"/>
				</radialGradient>
				<polygon fill="url(#SVGID_5_)" points="171.841,138.412 58.665,162.714 29.397,53.223 137.773,37.609 				"/>
				
					<linearGradient id="SVGID_6_" gradientUnits="userSpaceOnUse" x1="226.085" y1="-615.3032" x2="208.1254" y2="-605.2456" gradientTransform="matrix(1 0 0 -1 -150 -530)">
					<stop  offset="0" style="stop-color:#FFFFFF"/>
					<stop  offset="0.1897" style="stop-color:#F1F1F1"/>
					<stop  offset="0.5472" style="stop-color:#CDCDCD"/>
					<stop  offset="1" style="stop-color:#969696"/>
				</linearGradient>
				<polygon fill="url(#SVGID_6_)" points="171.572,122.88 140.186,145.111 58.665,162.714 29.397,53.223 139.624,33.717 
					161.54,98.847 				"/>
				
					<radialGradient id="SVGID_7_" cx="44.772" cy="-1045.6367" r="104.788" gradientTransform="matrix(0.9397 -0.1403 -0.2942 -0.9939 -255.8469 -970.963)" gradientUnits="userSpaceOnUse">
					<stop  offset="0" style="stop-color:#FFFFFF"/>
					<stop  offset="0.2923" style="stop-color:#FCFCFC"/>
					<stop  offset="0.5367" style="stop-color:#F1F1F1"/>
					<stop  offset="0.764" style="stop-color:#E0E0E0"/>
					<stop  offset="0.9797" style="stop-color:#C8C8C8"/>
					<stop  offset="1" style="stop-color:#C5C5C5"/>
				</radialGradient>
				<polygon fill="url(#SVGID_7_)" points="161.54,98.847 140.186,145.111 58.665,162.714 29.397,53.223 139.624,33.717 				"/>
				
					<radialGradient id="SVGID_8_" cx="45" cy="-1029.5088" r="57.3022" gradientTransform="matrix(0.9397 -0.1403 -0.2942 -0.9939 -255.8469 -970.963)" gradientUnits="userSpaceOnUse">
					<stop  offset="0" style="stop-color:#FF0000"/>
					<stop  offset="0.1774" style="stop-color:#F70000"/>
					<stop  offset="0.4502" style="stop-color:#E20000"/>
					<stop  offset="0.7825" style="stop-color:#BF0000"/>
					<stop  offset="1" style="stop-color:#A40000"/>
				</radialGradient>
				<polygon fill="url(#SVGID_8_)" points="146.835,55.095 35.207,75.057 29.397,53.223 139.624,33.717 				"/>
				
					<radialGradient id="SVGID_9_" cx="230.9746" cy="-525.9971" r="4.2499" gradientTransform="matrix(1 0 0 -1 -150 -530)" gradientUnits="userSpaceOnUse">
					<stop  offset="0" style="stop-color:#FF0000"/>
					<stop  offset="0.1774" style="stop-color:#F70000"/>
					<stop  offset="0.4502" style="stop-color:#E20000"/>
					<stop  offset="0.7825" style="stop-color:#BF0000"/>
					<stop  offset="1" style="stop-color:#A40000"/>
				</radialGradient>
				<polygon fill="url(#SVGID_9_)" points="33.307,78.661 35.207,75.057 29.397,53.223 27.593,57.228 				"/>
			</g>
			<g>
				<path d="M116.98,45.354c1.125,1.26,0.858,2.942-0.594,3.759c-1.462,0.814-3.555,0.452-4.673-0.81
					c-1.114-1.264-0.843-2.945,0.611-3.758C113.777,43.733,115.859,44.094,116.98,45.354z"/>
				
					<radialGradient id="SVGID_10_" cx="206.9463" cy="-545.7021" r="4.8041" gradientTransform="matrix(1 0 0 -1 -150 -530)" gradientUnits="userSpaceOnUse">
					<stop  offset="0" style="stop-color:#FFFFFF"/>
					<stop  offset="0.1612" style="stop-color:#F1F1F1"/>
					<stop  offset="0.4652" style="stop-color:#CDCDCD"/>
					<stop  offset="0.8767" style="stop-color:#929292"/>
					<stop  offset="1" style="stop-color:#7F7F7F"/>
				</radialGradient>
				<path fill="url(#SVGID_10_)" d="M104.514,38.922c0.008-0.425,0.03-0.604,0.043-0.691c0.455-3.267,1.697-5.533,3.336-5.618
					c2.371-0.121,4.682,4.38,5.148,10.056c0.186,2.195,0.062,4.537-0.287,6.232c0.542,0.687,2.053,0.528,2.464,0.537
					c0.507-1.989,0.466-4.638,0.312-7.181c-0.483-8.157-4.045-12.353-7.416-12.312c-2.629,0.031-4.668,3.511-5.237,8.358
					c-0.008,0.072-0.067,0.344-0.067,0.916L104.514,38.922z"/>
				
					<radialGradient id="SVGID_11_" cx="2054.5596" cy="1.0815" r="22.3821" gradientTransform="matrix(0.6526 0.102 0.1508 -0.9653 -1230.2711 -175.093)" gradientUnits="userSpaceOnUse">
					<stop  offset="0" style="stop-color:#FFFFFF"/>
					<stop  offset="0.1316" style="stop-color:#F1F1F1"/>
					<stop  offset="0.3798" style="stop-color:#CDCDCD"/>
					<stop  offset="0.7153" style="stop-color:#929292"/>
					<stop  offset="1" style="stop-color:#5B5B5B"/>
				</radialGradient>
				<path fill="url(#SVGID_11_)" d="M104.512,38.964c0.016-0.512,0.021-0.556,0.026-0.601c0.438-3.338,1.692-5.665,3.354-5.751
					c2.371-0.121,4.678,4.38,5.146,10.056c0.187,2.195,0.062,4.537-0.287,6.232l0.479,0.339c0.494-2.979,0.424-4.671,0.264-7.209
					c-0.227-3.578-2.208-9.971-5.559-10.152c-1.808-0.102-3.371,2.344-3.877,6.499c-0.008,0.041-0.013,0.084-0.024,0.594
					L104.512,38.964z"/>
				
					<radialGradient id="SVGID_12_" cx="2176.374" cy="-26.7783" r="20.0749" gradientTransform="matrix(0.643 0.0974 0.1029 -0.988 -1283.9664 -200.8896)" gradientUnits="userSpaceOnUse">
					<stop  offset="0" style="stop-color:#FFFFFF"/>
					<stop  offset="0.1316" style="stop-color:#F1F1F1"/>
					<stop  offset="0.3798" style="stop-color:#CDCDCD"/>
					<stop  offset="0.7153" style="stop-color:#929292"/>
					<stop  offset="1" style="stop-color:#5B5B5B"/>
				</radialGradient>
				<path fill="url(#SVGID_12_)" d="M114.843,49.562c0,0,0.921-3.953-0.053-9.309c-0.876-4.803-2.418-7.054-3.761-8.378
					c-1.438-1.416-3.229-1.505-2.12-1.027c1.34,0.575,2.11,1.149,3.336,3.218c1.073,1.815,1.973,5.249,2.171,6.668
					c0.755,5.407-0.012,8.638-0.012,8.638S114.594,49.607,114.843,49.562z"/>
			</g>
			<g>
				<path d="M65.722,54.447c1.126,1.262,0.861,2.943-0.594,3.758c-1.459,0.816-3.552,0.454-4.67-0.809
					c-1.116-1.264-0.843-2.944,0.61-3.756C62.519,52.826,64.602,53.187,65.722,54.447z"/>
				
					<radialGradient id="SVGID_13_" cx="155.6768" cy="-554.7949" r="4.8048" gradientTransform="matrix(1 0 0 -1 -150 -530)" gradientUnits="userSpaceOnUse">
					<stop  offset="0" style="stop-color:#FFFFFF"/>
					<stop  offset="0.1612" style="stop-color:#F1F1F1"/>
					<stop  offset="0.4652" style="stop-color:#CDCDCD"/>
					<stop  offset="0.8767" style="stop-color:#929292"/>
					<stop  offset="1" style="stop-color:#7F7F7F"/>
				</radialGradient>
				<path fill="url(#SVGID_13_)" d="M53.255,48.017c0.008-0.427,0.03-0.604,0.043-0.692c0.455-3.268,1.697-5.534,3.336-5.619
					c2.371-0.119,4.678,4.381,5.148,10.057c0.185,2.194,0.063,4.537-0.288,6.233c0.543,0.685,2.053,0.527,2.465,0.536
					c0.506-1.988,0.464-4.637,0.312-7.18c-0.486-8.158-4.045-12.354-7.417-12.314c-2.628,0.03-4.666,3.511-5.238,8.358
					c-0.01,0.073-0.072,0.346-0.072,0.917L53.255,48.017z"/>
				
					<radialGradient id="SVGID_14_" cx="1980.0117" cy="-16.2178" r="22.3896" gradientTransform="matrix(0.6526 0.102 0.1508 -0.9653 -1230.2711 -175.093)" gradientUnits="userSpaceOnUse">
					<stop  offset="0" style="stop-color:#FFFFFF"/>
					<stop  offset="0.1316" style="stop-color:#F1F1F1"/>
					<stop  offset="0.3798" style="stop-color:#CDCDCD"/>
					<stop  offset="0.7153" style="stop-color:#929292"/>
					<stop  offset="1" style="stop-color:#5B5B5B"/>
				</radialGradient>
				<path fill="url(#SVGID_14_)" d="M53.253,48.058c0.015-0.512,0.021-0.555,0.025-0.6c0.44-3.338,1.693-5.667,3.355-5.753
					c2.371-0.119,4.678,4.381,5.148,10.057c0.185,2.194,0.063,4.537-0.288,6.233l0.478,0.339c0.495-2.979,0.425-4.673,0.264-7.212
					c-0.226-3.576-2.209-9.97-5.559-10.15c-1.805-0.101-3.371,2.343-3.877,6.499c-0.005,0.041-0.01,0.083-0.025,0.593L53.253,48.058
					z"/>
				
					<radialGradient id="SVGID_15_" cx="2099.3447" cy="-43.5723" r="20.0758" gradientTransform="matrix(0.643 0.0974 0.1029 -0.988 -1283.9664 -200.8896)" gradientUnits="userSpaceOnUse">
					<stop  offset="0" style="stop-color:#FFFFFF"/>
					<stop  offset="0.1316" style="stop-color:#F1F1F1"/>
					<stop  offset="0.3798" style="stop-color:#CDCDCD"/>
					<stop  offset="0.7153" style="stop-color:#929292"/>
					<stop  offset="1" style="stop-color:#5B5B5B"/>
				</radialGradient>
				<path fill="url(#SVGID_15_)" d="M63.583,58.654c0,0,0.922-3.953-0.053-9.308c-0.876-4.804-2.418-7.054-3.759-8.378
					c-1.438-1.416-3.231-1.504-2.122-1.027c1.34,0.574,2.111,1.15,3.336,3.218c1.075,1.816,1.973,5.247,2.172,6.668
					c0.754,5.406-0.012,8.639-0.012,8.639S63.335,58.7,63.583,58.654z"/>
			</g>
			<g opacity="0.5">
				<polyline fill="none" stroke="#232B42" stroke-miterlimit="10" points="80.232,74.488 135.193,64.248 151.07,118.146 				"/>
				<polyline fill="none" stroke="#232B42" stroke-miterlimit="10" points="112.922,139.621 71.034,148.406 55.908,93.468 				"/>
				<line fill="none" stroke="#232B42" stroke-miterlimit="10" x1="67.255" y1="134.68" x2="151.268" y2="117.811"/>
				<line fill="none" stroke="#232B42" stroke-miterlimit="10" x1="63.471" y1="120.938" x2="147.521" y2="104.275"/>
				<line fill="none" stroke="#232B42" stroke-miterlimit="10" x1="59.688" y1="107.189" x2="143.032" y2="90.857"/>
				<line fill="none" stroke="#232B42" stroke-miterlimit="10" x1="55.908" y1="93.47" x2="139.227" y2="77.934"/>
				<line fill="none" stroke="#232B42" stroke-miterlimit="10" x1="121.198" y1="66.854" x2="136.775" y2="120.596"/>
				<line fill="none" stroke="#232B42" stroke-miterlimit="10" x1="108.055" y1="69.305" x2="123.273" y2="123.523"/>
				<line fill="none" stroke="#232B42" stroke-miterlimit="10" x1="93.923" y1="71.936" x2="112.922" y2="139.621"/>
				<line fill="none" stroke="#232B42" stroke-miterlimit="10" x1="80.232" y1="74.488" x2="98.95" y2="142.551"/>
				<line fill="none" stroke="#232B42" stroke-miterlimit="10" x1="69.92" y1="90.857" x2="85.002" y2="145.477"/>
			</g>
		</g>
	</g>
</g>
</svg>
