<?xml version="1.0" encoding="utf-8"?>
<!-- Generator: Adobe Illustrator 15.0.0, SVG Export Plug-In . SVG Version: 6.00 Build 0)  -->
<!DOCTYPE svg PUBLIC "-//W3C//DTD SVG 1.1//EN" "http://www.w3.org/Graphics/SVG/1.1/DTD/svg11.dtd">
<svg version="1.1" id="Layer_1" xmlns="http://www.w3.org/2000/svg" xmlns:xlink="http://www.w3.org/1999/xlink" x="0px" y="0px"
	 width="200px" height="200px" viewBox="0 0 200 200" enable-background="new 0 0 200 200" xml:space="preserve">
<g id="icon">
	<g id="Layer_2">
	</g>
	<g id="Layer_1_1_">
		<g>
			
				<linearGradient id="SVGID_1_" gradientUnits="userSpaceOnUse" x1="230.6064" y1="-555.3984" x2="258.8694" y2="-675.5175" gradientTransform="matrix(1 0 0 -1 -150 -530)">
				<stop  offset="0.1758" style="stop-color:#08DEFF"/>
				<stop  offset="0.6485" style="stop-color:#44B1E8"/>
			</linearGradient>
			<path fill="url(#SVGID_1_)" d="M164.656,113.109c-2.03-10.078-11.406-50.267-13.997-60.584
				c-1.726-6.869-3.769-12.616-6.358-15.219c-6.023-6.057-19.42-0.823-27.896,1.014c-11.559,2.504-21.002,4.552-31.116,6.743
				c-3.775-5.445-4.626-9.29-9.116-10.604c-2.499-0.73-5.754-0.604-9.239-0.052c-7.266,1.152-23.087,4.442-30.099,6.584
				c-5.295,1.617-9.502,3.958-10.615,7.77c-1.758,6.025,2.539,18.938,4.147,26.146c4.185,18.757,8.1,39.3,12.314,58.19
				c3.64,16.312,4.376,32.215,16.348,32.936c37.736-8.178,63.457-18.455,101.19-26.631
				C167.463,136.221,167.17,125.584,164.656,113.109z"/>
			
				<linearGradient id="SVGID_2_" gradientUnits="userSpaceOnUse" x1="241.6162" y1="-601.6113" x2="245.9708" y2="-620.381" gradientTransform="matrix(1 0 0 -1 -150 -530)">
				<stop  offset="0" style="stop-color:#03FFFF"/>
				<stop  offset="1" style="stop-color:#08DEFF"/>
			</linearGradient>
			<path fill="url(#SVGID_2_)" d="M164.656,113.109c-2.03-10.078-11.406-50.267-13.997-60.584
				c-1.726-6.869-3.769-12.616-6.358-15.219c-6.023-6.057-19.42-0.823-27.896,1.014c-11.559,2.504-21.002,4.552-31.116,6.743
				c-3.775-5.445-4.626-9.29-9.116-10.604c-2.499-0.73-5.754-0.604-9.239-0.052c-7.266,1.152-23.087,4.442-30.099,6.584
				c-5.295,1.617-9.502,3.958-10.615,7.77c-1.758,6.025,2.539,18.938,4.147,26.146c4.185,18.757,8.1,39.3,12.314,58.19
				c3.64,16.312,4.376,32.215,16.348,32.936c0.896,0,1.183,0.054,1.604-0.037c0.209-0.045,0.082-0.328,0.291-0.373
				c36.711-7.945,62.195-18.182,99.296-26.221C167.463,136.221,167.17,125.584,164.656,113.109z"/>
			
				<linearGradient id="SVGID_3_" gradientUnits="userSpaceOnUse" x1="232.6562" y1="-555.5029" x2="256.5064" y2="-656.8673" gradientTransform="matrix(1 0 0 -1 -150 -530)">
				<stop  offset="0.1758" style="stop-color:#08DEFF"/>
				<stop  offset="0.6485" style="stop-color:#44B1E8"/>
				<stop  offset="1" style="stop-color:#1788CA"/>
			</linearGradient>
			<path fill="url(#SVGID_3_)" d="M166.672,113.109c-2.029-10.078-11.406-50.267-13.996-60.584
				c-1.725-6.869-3.77-12.616-6.357-15.219c-6.022-6.057-19.42-0.823-27.896,1.014c-11.562,2.504-21.004,4.552-31.118,6.743
				c-3.776-5.445-4.626-9.29-9.116-10.604c-2.499-0.73-5.754-0.604-9.239-0.052c-7.267,1.152-23.088,4.442-30.1,6.584
				c-5.295,1.617-9.501,3.958-10.614,7.77c-1.758,6.025,2.539,18.938,4.147,26.146c4.185,18.757,8.1,39.3,12.314,58.19
				c3.64,16.312,3.756,29.336,15.729,30.057c37.736-8.178,64.074-15.576,101.812-23.752
				C169.479,136.221,169.186,125.584,166.672,113.109z"/>
			
				<linearGradient id="SVGID_4_" gradientUnits="userSpaceOnUse" x1="-612.5435" y1="-493.8892" x2="-589.4178" y2="-605.3665" gradientTransform="matrix(0.9639 -0.0041 -0.3211 -1.0361 515.0959 -455.4134)">
				<stop  offset="0.1758" style="stop-color:#08DEFF"/>
				<stop  offset="1" style="stop-color:#44B1E8"/>
			</linearGradient>
			<path fill="url(#SVGID_4_)" d="M171.471,126.238c0.961,5.893-2.684,11.74-8.139,13.062L59.531,166.049c0,0,2.74-1.021,3.03-2.418
				c0.432-2.076,0.114-2.842-0.459-6.363L50.688,84.24c-0.96-5.893,2.684-11.741,8.141-13.062l89.612-21.24
				c5.455-1.321,10.656,2.382,11.615,8.274L171.471,126.238z"/>
			
				<linearGradient id="SVGID_5_" gradientUnits="userSpaceOnUse" x1="-609.0352" y1="-492.4214" x2="-604.4633" y2="-530.2161" gradientTransform="matrix(0.9639 -0.0041 -0.3211 -1.0361 515.0959 -455.4134)">
				<stop  offset="0" style="stop-color:#03FFFF"/>
				<stop  offset="1" style="stop-color:#08DEFF"/>
			</linearGradient>
			<path fill="url(#SVGID_5_)" d="M171.471,126.238c0.961,5.893-2.684,11.74-8.139,13.062L59.531,166.049
				c0,0-2.508-1.043-2.344-3.469c4.65,0.574,3.657-7.75,3.083-11.271l-10.7-66.604c-1.127-7.137,2.303-11.741,7.76-13.062
				l91.111-21.701c5.455-1.321,10.656,2.382,11.615,8.274L171.471,126.238z"/>
			
				<linearGradient id="SVGID_6_" gradientUnits="userSpaceOnUse" x1="-610.8906" y1="-495.3516" x2="-587.9839" y2="-605.773" gradientTransform="matrix(0.9639 -0.0041 -0.3211 -1.0361 515.0959 -455.4134)">
				<stop  offset="0.1758" style="stop-color:#08DEFF"/>
				<stop  offset="0.6485" style="stop-color:#44B1E8"/>
				<stop  offset="0.8485" style="stop-color:#1788CA"/>
			</linearGradient>
			<path fill="url(#SVGID_6_)" d="M174.045,128.076c0.962,5.893-2.684,11.74-8.138,13.061L60.629,165.996
				c0,0,2.625-0.408,3.418-4.449c0.43-2.076,0.328-4.018-0.246-7.539L52.887,85.657c-0.961-5.893,0.617-11.36,8.14-13.061
				l89.614-21.241c5.455-1.321,10.654,2.383,11.614,8.274L174.045,128.076z"/>
		</g>
	</g>
</g>
</svg>
