<?xml version="1.0" encoding="utf-8"?>
<!-- Generator: Adobe Illustrator 15.0.0, SVG Export Plug-In . SVG Version: 6.00 Build 0)  -->
<!DOCTYPE svg PUBLIC "-//W3C//DTD SVG 1.1//EN" "http://www.w3.org/Graphics/SVG/1.1/DTD/svg11.dtd">
<svg version="1.1" id="Layer_1" xmlns="http://www.w3.org/2000/svg" xmlns:xlink="http://www.w3.org/1999/xlink" x="0px" y="0px"
	 width="200px" height="200px" viewBox="0 0 200 200" enable-background="new 0 0 200 200" xml:space="preserve">
<g id="icon">
	<g id="Layer_2">
	</g>
	<g id="Layer_1_1_">
		<g>
			
				<radialGradient id="SVGID_1_" cx="307.8184" cy="1252.7812" r="126.5666" gradientTransform="matrix(1 0 0 1 -200 -1182)" gradientUnits="userSpaceOnUse">
				<stop  offset="0" style="stop-color:#C29756"/>
				<stop  offset="1" style="stop-color:#653F19"/>
			</radialGradient>
			<polygon fill="url(#SVGID_1_)" points="89.714,177.216 39.208,127.064 32.949,55.686 87.974,101.693 			"/>
			
				<radialGradient id="SVGID_2_" cx="310.834" cy="1269.998" r="78.5491" gradientTransform="matrix(1 0 0 1 -200 -1182)" gradientUnits="userSpaceOnUse">
				<stop  offset="0" style="stop-color:#C29756"/>
				<stop  offset="1" style="stop-color:#653F19"/>
			</radialGradient>
			<polygon fill="url(#SVGID_2_)" points="83.207,163.279 43.64,124.093 38.819,69.083 81.866,105.079 			"/>
			
				<radialGradient id="SVGID_3_" cx="267.3047" cy="1382.4785" r="18.3252" gradientTransform="matrix(1 0 0 1 -200 -1182)" gradientUnits="userSpaceOnUse">
				<stop  offset="0" style="stop-color:#C29756"/>
				<stop  offset="1" style="stop-color:#563611"/>
			</radialGradient>
			<polygon fill="url(#SVGID_3_)" points="45.272,123.591 40.628,70.595 38.819,69.083 43.64,124.093 83.207,163.279 
				83.158,161.236 			"/>
			
				<radialGradient id="SVGID_4_" cx="339.7383" cy="1228.0527" r="1321.397" gradientTransform="matrix(1 0 0 1 -200 -1182)" gradientUnits="userSpaceOnUse">
				<stop  offset="0" style="stop-color:#B89758"/>
				<stop  offset="1" style="stop-color:#885D14"/>
			</radialGradient>
			<polygon fill="url(#SVGID_4_)" points="167.123,61.396 106.35,23.275 32.949,55.686 87.974,101.693 			"/>
			
				<linearGradient id="SVGID_5_" gradientUnits="userSpaceOnUse" x1="289.7324" y1="1314.6035" x2="331.05" y2="1017.6311" gradientTransform="matrix(1 0 0 1 -200 -1182)">
				<stop  offset="0" style="stop-color:#F6D288"/>
				<stop  offset="1" style="stop-color:#975D00"/>
			</linearGradient>
			<polygon fill="url(#SVGID_5_)" points="167.123,61.396 106.35,23.275 32.949,55.686 87.974,101.693 			"/>
			
				<linearGradient id="SVGID_6_" gradientUnits="userSpaceOnUse" x1="290.0732" y1="1314.6553" x2="331.3924" y2="1017.6722" gradientTransform="matrix(1 0 0 1 -200 -1182)">
				<stop  offset="0" style="stop-color:#F6D288"/>
				<stop  offset="1" style="stop-color:#975D00"/>
			</linearGradient>
			<polygon fill="url(#SVGID_6_)" points="153.624,60.514 105.963,29.984 46.899,58.308 89.595,93.083 			"/>
			
				<linearGradient id="SVGID_7_" gradientUnits="userSpaceOnUse" x1="294.6748" y1="1155.501" x2="301.4625" y2="1259.8995" gradientTransform="matrix(1 0 0 1 -200 -1182)">
				<stop  offset="0" style="stop-color:#C59758"/>
				<stop  offset="1" style="stop-color:#6A2B00"/>
			</linearGradient>
			<polygon fill="url(#SVGID_7_)" points="105.963,31.498 152.289,61.192 153.624,60.514 105.963,29.984 46.899,58.308 
				48.082,59.274 			"/>
			
				<linearGradient id="SVGID_8_" gradientUnits="userSpaceOnUse" x1="273.8516" y1="1262.0078" x2="378.4391" y2="1337.328" gradientTransform="matrix(1 0 0 1 -200 -1182)">
				<stop  offset="0" style="stop-color:#DCB665"/>
				<stop  offset="0.6154" style="stop-color:#AE7230"/>
				<stop  offset="1" style="stop-color:#3D1900"/>
			</linearGradient>
			<polygon fill="url(#SVGID_8_)" points="87.974,101.693 89.714,177.216 160.697,135.372 167.123,61.396 			"/>
			
				<linearGradient id="SVGID_9_" gradientUnits="userSpaceOnUse" x1="267.7471" y1="1253.5361" x2="371.0428" y2="1333.5903" gradientTransform="matrix(1 0 0 1 -200 -1182)">
				<stop  offset="0" style="stop-color:#DCB665"/>
				<stop  offset="0.6154" style="stop-color:#AE7230"/>
				<stop  offset="1" style="stop-color:#3D1900"/>
			</linearGradient>
			<polygon fill="url(#SVGID_9_)" points="96.989,105.578 98.191,163.596 154.582,130.354 158.58,73.466 			"/>
			
				<linearGradient id="SVGID_10_" gradientUnits="userSpaceOnUse" x1="329.4883" y1="1280.2266" x2="324.8293" y2="1271.3767" gradientTransform="matrix(1 0 0 1 -200 -1182)">
				<stop  offset="0.6687" style="stop-color:#3D1900;stop-opacity:0"/>
				<stop  offset="1" style="stop-color:#3D1900"/>
			</linearGradient>
			<polygon opacity="0.52" fill="url(#SVGID_10_)" enable-background="new    " points="96.989,105.578 97.226,116.962 
				157.793,84.673 158.58,73.466 			"/>
			
				<linearGradient id="SVGID_11_" gradientUnits="userSpaceOnUse" x1="292.3232" y1="1242.8311" x2="354.0763" y2="1341.6354" gradientTransform="matrix(1 0 0 1 -200 -1182)">
				<stop  offset="0" style="stop-color:#C59758"/>
				<stop  offset="1" style="stop-color:#6A3200"/>
			</linearGradient>
			<polygon fill="url(#SVGID_11_)" points="157.001,74.29 153.117,129.459 98.154,161.861 98.191,163.596 154.582,130.354 
				158.58,73.466 			"/>
			
				<linearGradient id="SVGID_12_" gradientUnits="userSpaceOnUse" x1="309.7207" y1="1284.9912" x2="329.598" y2="1329.8521" gradientTransform="matrix(1 0.0099 0 1 -200 -1190.0856)">
				<stop  offset="0" style="stop-color:#C59758"/>
				<stop  offset="1" style="stop-color:#6A3200"/>
			</linearGradient>
			<polygon opacity="0.2" fill="url(#SVGID_12_)" enable-background="new    " points="98.251,149.834 153.535,118.439 
				153.553,118.909 98.074,150.425 98.074,149.947 			"/>
			
				<linearGradient id="SVGID_13_" gradientUnits="userSpaceOnUse" x1="310.0117" y1="1270.0146" x2="329.9131" y2="1314.9297" gradientTransform="matrix(1 0.0099 0 1 -200 -1190.0856)">
				<stop  offset="0" style="stop-color:#C59758"/>
				<stop  offset="1" style="stop-color:#6A3200"/>
			</linearGradient>
			<polygon opacity="0.2" fill="url(#SVGID_13_)" enable-background="new    " points="98.111,135.085 154.302,103.307 
				154.318,103.788 97.927,135.695 97.927,135.202 			"/>
			
				<linearGradient id="SVGID_14_" gradientUnits="userSpaceOnUse" x1="312.5732" y1="1258.1035" x2="329.9033" y2="1297.2153" gradientTransform="matrix(1 0.0099 0 1 -200 -1190.0856)">
				<stop  offset="0" style="stop-color:#C59758"/>
				<stop  offset="1" style="stop-color:#6A3200"/>
			</linearGradient>
			<polygon opacity="0.2" fill="url(#SVGID_14_)" enable-background="new    " points="97.795,118.29 155.588,86.87 155.604,87.372 
				97.606,118.93 97.608,118.414 			"/>
			
				<linearGradient id="SVGID_15_" gradientUnits="userSpaceOnUse" x1="2583.6611" y1="-579.1665" x2="2598.4758" y2="-545.7319" gradientTransform="matrix(-0.3854 0.7542 -0.7567 -0.3773 680.0458 -2031.4065)">
				<stop  offset="0" style="stop-color:#C59758"/>
				<stop  offset="1" style="stop-color:#6A3200"/>
			</linearGradient>
			<polygon opacity="0.2" fill="url(#SVGID_15_)" enable-background="new    " points="97.166,105.896 98.191,163.596 
				97.789,163.395 96.739,105.491 97.145,105.691 			"/>
			
				<linearGradient id="SVGID_16_" gradientUnits="userSpaceOnUse" x1="-298.54" y1="959.207" x2="-293.3627" y2="970.8918" gradientTransform="matrix(0.8903 -0.4624 0.4769 0.7981 -37.4638 -841.3396)">
				<stop  offset="0" style="stop-color:#C59758"/>
				<stop  offset="1" style="stop-color:#6A3200"/>
			</linearGradient>
			<polygon opacity="0.2" fill="url(#SVGID_16_)" enable-background="new    " points="158.461,73.282 166.27,61.828 
				166.521,62.247 158.598,73.89 158.348,73.474 			"/>
			
				<linearGradient id="SVGID_17_" gradientUnits="userSpaceOnUse" x1="-373.959" y1="947.1914" x2="-365.0287" y2="967.3463" gradientTransform="matrix(0.8875 -0.4607 0.4366 0.8224 -10.3438 -858.1604)">
				<stop  offset="0" style="stop-color:#C59758"/>
				<stop  offset="1" style="stop-color:#6A3200"/>
			</linearGradient>
			<polygon opacity="0.2" fill="url(#SVGID_17_)" enable-background="new    " points="81.756,104.456 87.857,101.298 
				88.082,101.729 81.866,105.079 			"/>
			
				<linearGradient id="SVGID_18_" gradientUnits="userSpaceOnUse" x1="1581.7451" y1="1061.5137" x2="1585.7887" y2="1070.6401" gradientTransform="matrix(0.6417 0.767 -0.7606 0.6492 -111.5407 -1806.1909)">
				<stop  offset="0" style="stop-color:#C59758"/>
				<stop  offset="1" style="stop-color:#6A3200"/>
			</linearGradient>
			<polygon opacity="0.2" fill="url(#SVGID_18_)" enable-background="new    " points="88.165,101.542 97.58,105.079 97.18,105.419 
				87.541,101.814 87.941,101.479 			"/>
			
				<linearGradient id="SVGID_19_" gradientUnits="userSpaceOnUse" x1="1559.8008" y1="1026.415" x2="1582.3616" y2="1077.332" gradientTransform="matrix(0.6417 0.767 -0.7606 0.6492 -111.5407 -1806.1909)">
				<stop  offset="0" style="stop-color:#C59758"/>
				<stop  offset="1" style="stop-color:#6A3200"/>
			</linearGradient>
			<polygon opacity="0.2" fill="url(#SVGID_19_)" enable-background="new    " points="90.085,93.159 88.496,101.499 
				87.857,101.298 89.461,93.431 89.863,93.095 			"/>
			
				<linearGradient id="SVGID_20_" gradientUnits="userSpaceOnUse" x1="1521.0996" y1="976.7979" x2="1538.9263" y2="1017.0309" gradientTransform="matrix(0.6417 0.767 -0.7606 0.6492 -111.5407 -1806.1909)">
				<stop  offset="0" style="stop-color:#C59758"/>
				<stop  offset="1" style="stop-color:#6A3200"/>
			</linearGradient>
			<polygon opacity="0.2" fill="url(#SVGID_20_)" enable-background="new    " points="106.541,23.405 106.077,30.364 
				105.439,30.162 105.922,23.676 106.324,23.34 			"/>
			
				<linearGradient id="SVGID_21_" gradientUnits="userSpaceOnUse" x1="2029.1064" y1="-1205.6748" x2="2063.3503" y2="-1128.3904" gradientTransform="matrix(-0.8145 0.6156 -0.6954 -0.7021 920.8354 -2011.8608)">
				<stop  offset="0" style="stop-color:#C59758"/>
				<stop  offset="1" style="stop-color:#6A3200"/>
			</linearGradient>
			<polygon opacity="0.2" fill="url(#SVGID_21_)" enable-background="new    " points="47.237,58.117 33.651,56.117 33.863,55.514 
				46.942,57.542 47.303,57.911 			"/>
			
				<linearGradient id="SVGID_22_" gradientUnits="userSpaceOnUse" x1="1364.3867" y1="-1709.0742" x2="1395.6671" y2="-1638.478" gradientTransform="matrix(0.7586 0.6721 0.694 -0.7033 251.9732 -2034.5852)">
				<stop  offset="0" style="stop-color:#C59758"/>
				<stop  offset="1" style="stop-color:#6A3200"/>
			</linearGradient>
			<polygon opacity="0.2" fill="url(#SVGID_22_)" enable-background="new    " points="153.312,61.102 166.27,61.828 166.09,61.195 
				153.617,60.511 153.254,60.882 			"/>
			
				<linearGradient id="SVGID_23_" gradientUnits="userSpaceOnUse" x1="1915.0137" y1="-1281.2451" x2="1919.5056" y2="-1271.1075" gradientTransform="matrix(-0.8886 0.5394 -0.5281 -0.8514 1126.7896 -1948.8257)">
				<stop  offset="0" style="stop-color:#C59758"/>
				<stop  offset="1" style="stop-color:#6A3200"/>
			</linearGradient>
			<polygon opacity="0.2" fill="url(#SVGID_23_)" enable-background="new    " points="98.621,163.2 89.893,177.384 89.62,176.938 
				98.452,162.538 98.725,162.984 			"/>
			
				<linearGradient id="SVGID_24_" gradientUnits="userSpaceOnUse" x1="1879.8818" y1="-1391.3379" x2="1884.7339" y2="-1380.3875" gradientTransform="matrix(-0.9853 0.4585 -0.4972 -0.8256 1210.2827 -1879.5254)">
				<stop  offset="0" style="stop-color:#C59758"/>
				<stop  offset="1" style="stop-color:#6A3200"/>
			</linearGradient>
			<polygon opacity="0.2" fill="url(#SVGID_24_)" enable-background="new    " points="43.673,124.591 39.494,127.16 
				39.235,126.729 43.542,123.964 43.798,124.396 			"/>
			
				<linearGradient id="SVGID_25_" gradientUnits="userSpaceOnUse" x1="739.4082" y1="-1792.7227" x2="741.7274" y2="-1787.4883" gradientTransform="matrix(1.0311 0.2707 0.2603 -0.9416 -141.4101 -1752.3889)">
				<stop  offset="0" style="stop-color:#C59758"/>
				<stop  offset="1" style="stop-color:#6A3200"/>
			</linearGradient>
			<polygon opacity="0.2" fill="url(#SVGID_25_)" enable-background="new    " points="154.387,130.182 160.414,135.126 
				160.549,134.637 154.354,129.516 154.225,130.011 			"/>
			
				<linearGradient id="SVGID_26_" gradientUnits="userSpaceOnUse" x1="761.9541" y1="-1852.082" x2="781.262" y2="-1808.5065" gradientTransform="matrix(1.039 0.325 0.38 -0.8835 -81.4348 -1795.2192)">
				<stop  offset="0" style="stop-color:#C59758"/>
				<stop  offset="1" style="stop-color:#6A3200"/>
			</linearGradient>
			<polygon opacity="0.2" fill="url(#SVGID_26_)" enable-background="new    " points="33.028,56.198 39.08,69.749 39.273,69.289 
				33.075,55.559 32.877,56.022 			"/>
			
				<linearGradient id="SVGID_27_" gradientUnits="userSpaceOnUse" x1="680.8203" y1="-1867.7666" x2="699.5147" y2="-1825.5757" gradientTransform="matrix(0.998 0.2907 0.2894 -0.9592 -77.3698 -1791.248)">
				<stop  offset="0" style="stop-color:#C59758"/>
				<stop  offset="1" style="stop-color:#6A3200"/>
			</linearGradient>
			<polygon opacity="0.2" fill="url(#SVGID_27_)" enable-background="new    " points="89.719,176.979 89.867,176.475 
				83.354,162.775 83.207,163.279 			"/>
			
				<linearGradient id="SVGID_28_" gradientUnits="userSpaceOnUse" x1="-653.4561" y1="1761.3691" x2="-630.4846" y2="1813.2131" gradientTransform="matrix(1.3996 -0.1136 0.7294 0.6553 -314.1667 -1182.9883)">
				<stop  offset="0" style="stop-color:#C59758"/>
				<stop  offset="1" style="stop-color:#6A3200"/>
			</linearGradient>
			<polygon opacity="0.2" fill="url(#SVGID_28_)" enable-background="new    " points="81.723,86.237 143.322,55.05 143.663,55.365 
				81.904,86.646 81.562,86.333 			"/>
			
				<linearGradient id="SVGID_29_" gradientUnits="userSpaceOnUse" x1="-652.4834" y1="1770.7715" x2="-629.5333" y2="1822.5674" gradientTransform="matrix(1.3996 -0.1136 0.7294 0.6553 -314.1667 -1182.9883)">
				<stop  offset="0" style="stop-color:#C59758"/>
				<stop  offset="1" style="stop-color:#6A3200"/>
			</linearGradient>
			<polygon opacity="0.2" fill="url(#SVGID_29_)" enable-background="new    " points="89.721,92.321 151.654,61.022 152.021,61.33 
				89.908,92.731 89.557,92.415 			"/>
			
				<linearGradient id="SVGID_30_" gradientUnits="userSpaceOnUse" x1="-653.041" y1="1750.6035" x2="-632.4274" y2="1797.1261" gradientTransform="matrix(1.3996 -0.1136 0.7294 0.6553 -314.1667 -1182.9883)">
				<stop  offset="0" style="stop-color:#C59758"/>
				<stop  offset="1" style="stop-color:#6A3200"/>
			</linearGradient>
			<polygon opacity="0.2" fill="url(#SVGID_30_)" enable-background="new    " points="69.501,75.758 129.381,46.111 
				129.741,46.433 69.691,76.177 69.333,75.855 			"/>
			
				<linearGradient id="SVGID_31_" gradientUnits="userSpaceOnUse" x1="-652.3276" y1="1740.6006" x2="-634.4827" y2="1780.8743" gradientTransform="matrix(1.3996 -0.1136 0.7294 0.6553 -314.1667 -1182.9883)">
				<stop  offset="0" style="stop-color:#C59758"/>
				<stop  offset="1" style="stop-color:#6A3200"/>
			</linearGradient>
			<polygon opacity="0.2" fill="url(#SVGID_31_)" enable-background="new    " points="56.584,65.441 116.035,37.011 
				116.416,37.352 56.787,65.885 56.409,65.545 			"/>
			
				<linearGradient id="SVGID_32_" gradientUnits="userSpaceOnUse" x1="1148.3359" y1="1169.126" x2="1188.8997" y2="1260.6731" gradientTransform="matrix(-0.9502 -0.009 -0.0068 1.0524 1194.1393 -1165.4678)">
				<stop  offset="0" style="stop-color:#C59758"/>
				<stop  offset="1" style="stop-color:#6A3200"/>
			</linearGradient>
			<polygon opacity="0.2" fill="url(#SVGID_32_)" enable-background="new    " points="82.117,149.693 44.425,114.18 
				44.442,114.682 82.271,150.318 82.255,149.816 			"/>
			
				<linearGradient id="SVGID_33_" gradientUnits="userSpaceOnUse" x1="1153.0762" y1="1164.6904" x2="1188.4956" y2="1244.6282" gradientTransform="matrix(-0.9502 -0.009 -0.0068 1.0524 1194.1393 -1165.4678)">
				<stop  offset="0" style="stop-color:#C59758"/>
				<stop  offset="1" style="stop-color:#6A3200"/>
			</linearGradient>
			<polygon opacity="0.2" fill="url(#SVGID_33_)" enable-background="new    " points="81.846,134.124 43.784,100.611 
				43.764,101.102 82.006,134.77 81.992,134.247 			"/>
			
				<linearGradient id="SVGID_34_" gradientUnits="userSpaceOnUse" x1="1156.2715" y1="1153.2783" x2="1188.8894" y2="1226.8934" gradientTransform="matrix(-0.9502 -0.009 -0.0068 1.0524 1194.1393 -1165.4678)">
				<stop  offset="0" style="stop-color:#C59758"/>
				<stop  offset="1" style="stop-color:#6A3200"/>
			</linearGradient>
			<polygon opacity="0.2" fill="url(#SVGID_34_)" enable-background="new    " points="81.662,116.398 42.415,83.499 42.387,84.005 
				81.833,117.068 81.817,116.529 			"/>
		</g>
	</g>
</g>
</svg>
