<?xml version="1.0" encoding="utf-8"?>
<!-- Generator: Adobe Illustrator 15.0.0, SVG Export Plug-In . SVG Version: 6.00 Build 0)  -->
<!DOCTYPE svg PUBLIC "-//W3C//DTD SVG 1.1//EN" "http://www.w3.org/Graphics/SVG/1.1/DTD/svg11.dtd">
<svg version="1.1" id="Layer_1" xmlns="http://www.w3.org/2000/svg" xmlns:xlink="http://www.w3.org/1999/xlink" x="0px" y="0px"
	 width="200px" height="200px" viewBox="0 0 200 200" enable-background="new 0 0 200 200" xml:space="preserve">
<g id="icon">
	<g id="Layer_2">
	</g>
	<g id="Layer_1_1_">
		<g>
			
				<linearGradient id="SVGID_1_" gradientUnits="userSpaceOnUse" x1="182.4102" y1="-647.1665" x2="208.1432" y2="-672.5517" gradientTransform="matrix(1 0 0 -1 -150 -530)">
				<stop  offset="0" style="stop-color:#FFBA00"/>
				<stop  offset="1" style="stop-color:#F72B00"/>
			</linearGradient>
			<path fill="url(#SVGID_1_)" d="M102.637,161.029l6.598-5.928L94.255,126.76c-1.611-6.583-8.198-10.887-14.715-9.611
				l-44.209,5.533c0,0-4.738,5.146-6.364,7.295c-2.034,2.688-2.865,6.28-1.971,9.939l8.381,34.27L102.637,161.029z"/>
			
				<linearGradient id="SVGID_2_" gradientUnits="userSpaceOnUse" x1="170.1553" y1="-584.5859" x2="203.0011" y2="-633.7667" gradientTransform="matrix(1 0 0 -1 -150 -530)">
				<stop  offset="0" style="stop-color:#FFBA00"/>
				<stop  offset="1" style="stop-color:#F72B00"/>
			</linearGradient>
			<path fill="url(#SVGID_2_)" d="M74.218,103.552l-6.671,5.577c-3.288,2.434-7.177,4.191-11.517,5.04
				c-16.211,3.17-32.6-7.535-36.604-23.911c-2.253-9.212-0.107-18.255,5.086-24.97c4.039-5.222,9.264-10.127,9.264-10.127
				C49.987,51.99,70.213,87.175,74.218,103.552z"/>
			
				<linearGradient id="SVGID_3_" gradientUnits="userSpaceOnUse" x1="-687.3789" y1="-961.1973" x2="-729.1046" y2="-1104.4557" gradientTransform="matrix(0.972 -0.1901 -0.2401 -0.9819 492.4858 -1003.4839)">
				<stop  offset="0" style="stop-color:#FFE300"/>
				<stop  offset="1" style="stop-color:#F7941E"/>
			</linearGradient>
			<path fill="url(#SVGID_3_)" d="M84.728,72.832c4.08,16.687-6.002,32.834-22.521,36.064c-16.519,3.229-33.218-7.68-37.298-24.363
				C20.827,67.846,30.91,51.699,47.43,48.468C63.948,45.237,80.646,56.145,84.728,72.832z"/>
			
				<linearGradient id="SVGID_4_" gradientUnits="userSpaceOnUse" x1="-669.6445" y1="-966.3555" x2="-711.3717" y2="-1109.6193" gradientTransform="matrix(0.972 -0.1901 -0.2401 -0.9819 492.4858 -1003.4839)">
				<stop  offset="0" style="stop-color:#FFE300"/>
				<stop  offset="1" style="stop-color:#F7941E"/>
			</linearGradient>
			<path fill="url(#SVGID_4_)" d="M109.234,155.104l-8.498-34.746c-1.632-6.676-8.312-11.039-14.919-9.746l-44.266,8.658
				c-6.607,1.293-10.641,7.752-9.009,14.426l8.497,34.746L109.234,155.104z"/>
			
				<linearGradient id="SVGID_5_" gradientUnits="userSpaceOnUse" x1="240.7266" y1="-636.3721" x2="271.1183" y2="-666.3534" gradientTransform="matrix(1 0 0 -1 -150 -530)">
				<stop  offset="0" style="stop-color:#52FFFF"/>
				<stop  offset="1" style="stop-color:#0074FF"/>
			</linearGradient>
			<path fill="url(#SVGID_5_)" d="M173.669,158.18l7.794-7l-17.691-33.478c-1.901-7.776-9.685-12.858-17.381-11.354l-52.217,6.536
				c0,0-5.597,6.076-7.518,8.614c-2.402,3.176-3.384,7.42-2.328,11.742l9.899,40.477L173.669,158.18z"/>
			
				<linearGradient id="SVGID_6_" gradientUnits="userSpaceOnUse" x1="226.25" y1="-562.4517" x2="265.045" y2="-620.5403" gradientTransform="matrix(1 0 0 -1 -150 -530)">
				<stop  offset="0" style="stop-color:#52FFFF"/>
				<stop  offset="1" style="stop-color:#0074FF"/>
			</linearGradient>
			<path fill="url(#SVGID_6_)" d="M140.104,90.29l-7.879,6.588c-3.885,2.875-8.476,4.951-13.603,5.953
				c-19.147,3.744-38.504-8.899-43.234-28.241c-2.66-10.88-0.127-21.562,6.008-29.493c4.771-6.168,10.942-11.961,10.942-11.961
				C111.484,29.389,135.373,70.947,140.104,90.29z"/>
			
				<linearGradient id="SVGID_7_" gradientUnits="userSpaceOnUse" x1="-621.4819" y1="-954.4414" x2="-670.766" y2="-1123.65" gradientTransform="matrix(0.972 -0.1901 -0.2401 -0.9819 492.4858 -1003.4839)">
				<stop  offset="0" style="stop-color:#52FFFF"/>
				<stop  offset="1" style="stop-color:#0074FF"/>
			</linearGradient>
			<path fill="url(#SVGID_7_)" d="M152.518,54.006c4.819,19.709-7.088,38.782-26.601,42.598
				c-19.51,3.815-39.234-9.068-44.055-28.778c-4.818-19.71,7.09-38.781,26.602-42.598C127.975,21.413,147.695,34.297,152.518,54.006
				z"/>
			
				<linearGradient id="SVGID_8_" gradientUnits="userSpaceOnUse" x1="-600.5361" y1="-960.5386" x2="-649.8204" y2="-1129.7483" gradientTransform="matrix(0.972 -0.1901 -0.2401 -0.9819 492.4858 -1003.4839)">
				<stop  offset="0" style="stop-color:#52FFFF"/>
				<stop  offset="1" style="stop-color:#0074FF"/>
			</linearGradient>
			<path fill="url(#SVGID_8_)" d="M181.463,151.18l-10.036-41.041c-1.93-7.884-9.817-13.038-17.622-11.511l-52.283,10.228
				c-7.805,1.525-12.566,9.153-10.642,17.039l10.037,41.039L181.463,151.18z"/>
		</g>
	</g>
</g>
</svg>
