<?xml version="1.0" encoding="utf-8"?>
<!-- Generator: Adobe Illustrator 15.0.0, SVG Export Plug-In . SVG Version: 6.00 Build 0)  -->
<!DOCTYPE svg PUBLIC "-//W3C//DTD SVG 1.1//EN" "http://www.w3.org/Graphics/SVG/1.1/DTD/svg11.dtd">
<svg version="1.1" id="Layer_1" xmlns="http://www.w3.org/2000/svg" xmlns:xlink="http://www.w3.org/1999/xlink" x="0px" y="0px"
	 width="200px" height="200px" viewBox="0 0 200 200" enable-background="new 0 0 200 200" xml:space="preserve">
<g id="icon">
	<g id="Layer_2">
	</g>
	<g id="Layer_1_1_">
		<g>
			<g>
				
					<linearGradient id="SVGID_1_" gradientUnits="userSpaceOnUse" x1="244.916" y1="1331.5293" x2="269.411" y2="1286.4005" gradientTransform="matrix(1 0 0 1 -200 -1182)">
					<stop  offset="0" style="stop-color:#FFFFFF"/>
					<stop  offset="0.4663" style="stop-color:#B7CBE2"/>
					<stop  offset="1" style="stop-color:#83A6CD"/>
				</linearGradient>
				<polygon fill="url(#SVGID_1_)" points="87.881,182.348 39.145,132.469 32.212,60.956 87.431,104.27 				"/>
				
					<radialGradient id="SVGID_2_" cx="270.8301" cy="1222.0273" r="68.38" gradientTransform="matrix(1 0 0 1 -200 -1182)" gradientUnits="userSpaceOnUse">
					<stop  offset="0" style="stop-color:#FFFFFF"/>
					<stop  offset="1" style="stop-color:#D0DDEC"/>
				</radialGradient>
				<polygon fill="url(#SVGID_2_)" points="169.803,64.724 112.252,28.38 32.212,60.956 87.431,104.27 				"/>
				
					<linearGradient id="SVGID_3_" gradientUnits="userSpaceOnUse" x1="351.7188" y1="1350.751" x2="325.9388" y2="1299.7986" gradientTransform="matrix(1 0 0 1 -200 -1182)">
					<stop  offset="0" style="stop-color:#FFFFFF"/>
					<stop  offset="0.4663" style="stop-color:#B7CBE2"/>
					<stop  offset="1" style="stop-color:#83A6CD"/>
				</linearGradient>
				<polygon fill="url(#SVGID_3_)" points="87.431,104.27 87.881,182.348 162.234,138.021 169.803,64.724 				"/>
				
					<radialGradient id="SVGID_4_" cx="250.417" cy="1237.7275" r="71.0785" gradientTransform="matrix(1 0 0 1 -200 -1182)" gradientUnits="userSpaceOnUse">
					<stop  offset="0" style="stop-color:#FFFFFF"/>
					<stop  offset="1" style="stop-color:#D0DDEC"/>
				</radialGradient>
				<polygon fill="url(#SVGID_4_)" points="87.881,105.365 29.869,61.191 28.133,47.382 87.431,90.018 				"/>
				
					<linearGradient id="SVGID_5_" gradientUnits="userSpaceOnUse" x1="299.2461" y1="1242.1445" x2="309.7463" y2="1150.1141" gradientTransform="matrix(1 0 0 1 -200 -1182)">
					<stop  offset="0" style="stop-color:#FFFFFF"/>
					<stop  offset="1" style="stop-color:#D0DDEC"/>
				</linearGradient>
				<polygon fill="url(#SVGID_5_)" points="172.695,52.412 106.98,17.653 28.133,47.382 87.431,90.018 				"/>
				
					<linearGradient id="SVGID_6_" gradientUnits="userSpaceOnUse" x1="298.4033" y1="1244.4492" x2="328.0509" y2="1062.8573" gradientTransform="matrix(1 0 0 1 -200 -1182)">
					<stop  offset="0" style="stop-color:#A57E6A"/>
					<stop  offset="1" style="stop-color:#1C0F00"/>
				</linearGradient>
				<polygon fill="url(#SVGID_6_)" points="155.088,52.636 105.293,25.762 45.545,48.824 90.479,81.132 				"/>
				
					<linearGradient id="SVGID_7_" gradientUnits="userSpaceOnUse" x1="298.3369" y1="1264.2051" x2="305.1309" y2="1156.116" gradientTransform="matrix(1 0 0 1 -200 -1182)">
					<stop  offset="0" style="stop-color:#A57E6A"/>
					<stop  offset="1" style="stop-color:#1C0F00"/>
				</linearGradient>
				<polygon fill="url(#SVGID_7_)" points="105.293,27.55 153.264,53.439 155.088,52.636 105.293,25.762 45.545,48.824 
					47.163,49.987 				"/>
				
					<radialGradient id="SVGID_8_" cx="426.9805" cy="1312.6514" r="131.597" gradientTransform="matrix(1 0 0 1 -200 -1182)" gradientUnits="userSpaceOnUse">
					<stop  offset="0" style="stop-color:#FFFFFF"/>
					<stop  offset="1" style="stop-color:#B7CBE2"/>
				</radialGradient>
				<polygon fill="url(#SVGID_8_)" points="87.431,90.018 87.881,105.365 170.852,65.029 172.695,52.412 				"/>
				<g>
					<polygon fill="#744818" points="140.691,150.961 115.037,166.572 116.223,122.539 145.088,107.654 					"/>
					
						<linearGradient id="SVGID_9_" gradientUnits="userSpaceOnUse" x1="260.0742" y1="1307.1875" x2="279.0289" y2="1312.8586" gradientTransform="matrix(1 0 0.0222 1 -198.5642 -1182)">
						<stop  offset="0" style="stop-color:#C98140"/>
						<stop  offset="1" style="stop-color:#391301"/>
					</linearGradient>
					<polygon fill="url(#SVGID_9_)" points="138.635,150.252 115.086,164.234 116.223,122.539 142.699,108.945 					"/>
					
						<linearGradient id="SVGID_10_" gradientUnits="userSpaceOnUse" x1="308.873" y1="1284.7764" x2="331.7277" y2="1323.6904" gradientTransform="matrix(1 0 0 1 -200 -1182)">
						<stop  offset="0" style="stop-color:#0888A4"/>
						<stop  offset="0.3374" style="stop-color:#08DEFF"/>
						<stop  offset="0.4304" style="stop-color:#0ADEFF"/>
						<stop  offset="0.4639" style="stop-color:#11DEFE"/>
						<stop  offset="0.4878" style="stop-color:#1CDDFC"/>
						<stop  offset="0.5071" style="stop-color:#2DDDFA"/>
						<stop  offset="0.5237" style="stop-color:#43DCF6"/>
						<stop  offset="0.5383" style="stop-color:#5FDBF2"/>
						<stop  offset="0.5514" style="stop-color:#7EDAEE"/>
						<stop  offset="0.5632" style="stop-color:#A3D9E9"/>
						<stop  offset="0.5644" style="stop-color:#A7D9E8"/>
						<stop  offset="0.6418" style="stop-color:#A5D9E8"/>
						<stop  offset="0.6779" style="stop-color:#9DD9E9"/>
						<stop  offset="0.7054" style="stop-color:#91DAEB"/>
						<stop  offset="0.7286" style="stop-color:#7EDAEE"/>
						<stop  offset="0.749" style="stop-color:#67DBF1"/>
						<stop  offset="0.7675" style="stop-color:#49DCF6"/>
						<stop  offset="0.7842" style="stop-color:#27DDFA"/>
						<stop  offset="0.7914" style="stop-color:#16DEFD"/>
						<stop  offset="1" style="stop-color:#08AFCD"/>
					</linearGradient>
					<polygon fill="url(#SVGID_10_)" points="138.252,149.857 115.232,163.527 116.348,122.943 142.23,109.652 					"/>
					<polygon fill="#744818" points="138.252,149.857 137.318,150.676 140.98,110.404 142.23,109.652 					"/>
					
						<linearGradient id="SVGID_11_" gradientUnits="userSpaceOnUse" x1="320.7461" y1="1311.3896" x2="327.1249" y2="1311.9213" gradientTransform="matrix(1 0 0 1 -200 -1182)">
						<stop  offset="0" style="stop-color:#C98140"/>
						<stop  offset="1" style="stop-color:#391301"/>
					</linearGradient>
					<polygon opacity="0.46" fill="url(#SVGID_11_)" enable-background="new    " points="137.014,150.752 137.305,150.678 
						140.789,111.053 140.498,111.203 					"/>
					
						<linearGradient id="SVGID_12_" gradientUnits="userSpaceOnUse" x1="1090.3418" y1="-140.1221" x2="1095.8916" y2="-139.6596" gradientTransform="matrix(0.5309 0.8475 -0.8475 0.5309 -576.4534 -746.2472)">
						<stop  offset="0" style="stop-color:#C98140"/>
						<stop  offset="1" style="stop-color:#391301"/>
					</linearGradient>
					<polygon opacity="0.46" fill="url(#SVGID_12_)" enable-background="new    " points="116.203,123.602 116.191,123.865 
						140.781,111.369 140.498,111.203 					"/>
				</g>
				<g>
					<polygon fill="#542C0B" points="81.978,161.422 45.108,126.342 41.825,92.627 81.294,128.83 					"/>
					<polygon fill="#744818" points="81.229,159.906 45.693,126.047 42.602,94.149 80.679,129.113 					"/>
					<polygon fill="#542C0B" points="79.202,155.809 47.279,125.246 44.697,98.256 79.016,129.883 					"/>
					
						<linearGradient id="SVGID_13_" gradientUnits="userSpaceOnUse" x1="6522.4141" y1="-2957.167" x2="6542.0894" y2="-2981.1943" gradientTransform="matrix(0.8935 0.787 0.0732 1.1835 -5556.4824 -1500.3557)">
						<stop  offset="0.0225" style="stop-color:#F0F8EB"/>
						<stop  offset="0.0417" style="stop-color:#CFEBBB"/>
						<stop  offset="0.0623" style="stop-color:#B1DE8F"/>
						<stop  offset="0.0807" style="stop-color:#9BD56F"/>
						<stop  offset="0.0962" style="stop-color:#8ED05B"/>
						<stop  offset="0.1067" style="stop-color:#89CE54"/>
						<stop  offset="0.1646" style="stop-color:#A0D775"/>
						<stop  offset="0.2897" style="stop-color:#CEEAB9"/>
						<stop  offset="0.3483" style="stop-color:#E0F1D4"/>
						<stop  offset="0.374" style="stop-color:#D3EAC3"/>
						<stop  offset="0.4569" style="stop-color:#ADD48F"/>
						<stop  offset="0.5291" style="stop-color:#91C469"/>
						<stop  offset="0.5871" style="stop-color:#80BB52"/>
						<stop  offset="0.6236" style="stop-color:#7AB74A"/>
						<stop  offset="0.9326" style="stop-color:#699E3E"/>
						<stop  offset="1" style="stop-color:#89CE54"/>
					</linearGradient>
					<polygon fill="url(#SVGID_13_)" points="79.141,154.719 47.839,124.725 45.429,99.027 79.103,130.08 					"/>
					<polygon fill="#DFBBE7" points="79.141,154.719 47.839,124.725 45.429,99.027 79.103,130.08 					"/>
					
						<linearGradient id="SVGID_14_" gradientUnits="userSpaceOnUse" x1="260.4072" y1="1301.1543" x2="268.4366" y2="1322.7719" gradientTransform="matrix(1 0 0 1 -200 -1182)">
						<stop  offset="0" style="stop-color:#0888A4"/>
						<stop  offset="0.3374" style="stop-color:#08DEFF"/>
						<stop  offset="0.4304" style="stop-color:#0ADEFF"/>
						<stop  offset="0.4639" style="stop-color:#11DEFE"/>
						<stop  offset="0.4878" style="stop-color:#1CDDFC"/>
						<stop  offset="0.5071" style="stop-color:#2DDDFA"/>
						<stop  offset="0.5237" style="stop-color:#43DCF6"/>
						<stop  offset="0.5383" style="stop-color:#5FDBF2"/>
						<stop  offset="0.5514" style="stop-color:#7EDAEE"/>
						<stop  offset="0.5632" style="stop-color:#A3D9E9"/>
						<stop  offset="0.5644" style="stop-color:#A7D9E8"/>
						<stop  offset="0.6418" style="stop-color:#A5D9E8"/>
						<stop  offset="0.6779" style="stop-color:#9DD9E9"/>
						<stop  offset="0.7054" style="stop-color:#91DAEB"/>
						<stop  offset="0.7286" style="stop-color:#7EDAEE"/>
						<stop  offset="0.749" style="stop-color:#67DBF1"/>
						<stop  offset="0.7675" style="stop-color:#49DCF6"/>
						<stop  offset="0.7842" style="stop-color:#27DDFA"/>
						<stop  offset="0.7914" style="stop-color:#16DEFD"/>
						<stop  offset="1" style="stop-color:#08AFCD"/>
					</linearGradient>
					<polygon fill="url(#SVGID_14_)" points="79.141,154.719 47.839,124.725 45.429,99.027 79.103,130.08 					"/>
				</g>
				<g>
					<g>
						
							<linearGradient id="SVGID_15_" gradientUnits="userSpaceOnUse" x1="260.0811" y1="1689.9082" x2="303.608" y2="1761.0803" gradientTransform="matrix(1.0074 -0.1019 0.0062 0.992 -169.8892 -1532.6521)">
							<stop  offset="0" style="stop-color:#FF0000"/>
							<stop  offset="0.1674" style="stop-color:#F60000"/>
							<stop  offset="0.4388" style="stop-color:#DE0000"/>
							<stop  offset="0.7785" style="stop-color:#B70000"/>
							<stop  offset="1" style="stop-color:#9A0000"/>
						</linearGradient>
						<polygon fill="url(#SVGID_15_)" points="100.495,99.841 90.093,104.904 100.816,128.836 112.486,122.838 						"/>
						
							<linearGradient id="SVGID_16_" gradientUnits="userSpaceOnUse" x1="253.9258" y1="1374.9883" x2="261.2554" y2="1382.0248" gradientTransform="matrix(1 -0.0298 0 1 -200 -1288.6495)">
							<stop  offset="0" style="stop-color:#FF0000"/>
							<stop  offset="0.1674" style="stop-color:#F60000"/>
							<stop  offset="0.4388" style="stop-color:#DE0000"/>
							<stop  offset="0.7785" style="stop-color:#B70000"/>
							<stop  offset="1" style="stop-color:#9A0000"/>
						</linearGradient>
						<polygon fill="url(#SVGID_16_)" points="90.093,104.904 100.816,128.836 90.53,120.334 						"/>
						
							<linearGradient id="SVGID_17_" gradientUnits="userSpaceOnUse" x1="280.2656" y1="1677.5801" x2="323.0343" y2="1747.5122" gradientTransform="matrix(1.0074 -0.1019 0.0062 0.992 -169.8892 -1532.6521)">
							<stop  offset="0" style="stop-color:#FF0000"/>
							<stop  offset="0.1674" style="stop-color:#F60000"/>
							<stop  offset="0.4388" style="stop-color:#DE0000"/>
							<stop  offset="0.7785" style="stop-color:#B70000"/>
							<stop  offset="1" style="stop-color:#9A0000"/>
						</linearGradient>
						<polygon fill="url(#SVGID_17_)" points="122.754,89.012 111.414,94.53 123.236,117.314 134.906,111.318 						"/>
						
							<linearGradient id="SVGID_18_" gradientUnits="userSpaceOnUse" x1="300.627" y1="1665.3154" x2="342.6006" y2="1733.9475" gradientTransform="matrix(1.0074 -0.1019 0.0062 0.992 -169.8892 -1532.6521)">
							<stop  offset="0" style="stop-color:#FF0000"/>
							<stop  offset="0.1674" style="stop-color:#F60000"/>
							<stop  offset="0.4388" style="stop-color:#DE0000"/>
							<stop  offset="0.7785" style="stop-color:#B70000"/>
							<stop  offset="1" style="stop-color:#9A0000"/>
						</linearGradient>
						<polygon fill="url(#SVGID_18_)" points="145.23,78.078 134.006,83.539 145.664,105.791 156.871,100.031 						"/>
						<polygon fill="#FFFFFF" points="133.992,83.544 122.729,89.024 134.453,111.551 145.723,105.76 						"/>
						<polygon fill="#FFFFFF" points="156.342,72.671 145.281,78.052 156.871,100.031 168.145,94.239 						"/>
						
							<linearGradient id="SVGID_19_" gradientUnits="userSpaceOnUse" x1="320.8359" y1="1653.3086" x2="362.0333" y2="1720.6714" gradientTransform="matrix(1.0074 -0.1019 0.0062 0.992 -169.8892 -1532.6521)">
							<stop  offset="0" style="stop-color:#FF0000"/>
							<stop  offset="0.1674" style="stop-color:#F60000"/>
							<stop  offset="0.4388" style="stop-color:#DE0000"/>
							<stop  offset="0.7785" style="stop-color:#B70000"/>
							<stop  offset="1" style="stop-color:#9A0000"/>
						</linearGradient>
						<polygon fill="url(#SVGID_19_)" points="167.213,67.382 156.342,72.671 168.082,94.271 179.475,88.416 						"/>
						<polygon fill="#FFFFFF" points="111.555,94.462 100.583,99.798 112.027,123.074 123.244,117.311 						"/>
					</g>
					<g>
						
							<linearGradient id="SVGID_20_" gradientUnits="userSpaceOnUse" x1="248.6348" y1="1672.7363" x2="262.7502" y2="1699.5559" gradientTransform="matrix(1.0074 -0.1019 0.0062 0.992 -169.8892 -1532.6521)">
							<stop  offset="0" style="stop-color:#FF0000"/>
							<stop  offset="0.1674" style="stop-color:#F60000"/>
							<stop  offset="0.4388" style="stop-color:#DE0000"/>
							<stop  offset="0.7785" style="stop-color:#B70000"/>
							<stop  offset="1" style="stop-color:#9A0000"/>
						</linearGradient>
						<path fill="url(#SVGID_20_)" d="M112.1,125.727l-0.037-2.672l-11.235,5.777l0.044,3.867c0.021,3.211,2.544,4.523,5.641,2.934
							c3.098-1.589,5.592-5.482,5.567-8.693C112.074,126.529,112.18,126.072,112.1,125.727z"/>
						<path fill="#B4B4B4" d="M123.311,119.967l-0.037-2.67l-11.236,5.775l0.043,3.867c0.021,3.211,2.547,4.521,5.646,2.934
							c3.096-1.589,5.588-5.482,5.564-8.693C123.285,120.77,123.391,120.312,123.311,119.967z"/>
						
							<linearGradient id="SVGID_21_" gradientUnits="userSpaceOnUse" x1="270.3076" y1="1662.2002" x2="284.4236" y2="1689.0212" gradientTransform="matrix(1.0074 -0.1019 0.0062 0.992 -169.8892 -1532.6521)">
							<stop  offset="0" style="stop-color:#FF0000"/>
							<stop  offset="0.1674" style="stop-color:#F60000"/>
							<stop  offset="0.4388" style="stop-color:#DE0000"/>
							<stop  offset="0.7785" style="stop-color:#B70000"/>
							<stop  offset="1" style="stop-color:#9A0000"/>
						</linearGradient>
						<path fill="url(#SVGID_21_)" d="M134.52,114.207l-0.037-2.672l-11.234,5.775l0.043,3.869c0.021,3.211,2.545,4.521,5.645,2.934
							c3.096-1.592,5.59-5.484,5.566-8.693C134.494,115.008,134.6,114.553,134.52,114.207z"/>
						<path fill="#B4B4B4" d="M145.73,108.445l-0.037-2.67l-11.24,5.771l0.045,3.869c0.02,3.209,2.545,4.521,5.639,2.936
							c3.098-1.594,5.59-5.48,5.57-8.691C145.705,109.248,145.809,108.793,145.73,108.445z"/>
						
							<linearGradient id="SVGID_22_" gradientUnits="userSpaceOnUse" x1="291.9785" y1="1651.6699" x2="306.0924" y2="1678.4866" gradientTransform="matrix(1.0074 -0.1019 0.0062 0.992 -169.8892 -1532.6521)">
							<stop  offset="0" style="stop-color:#FF0000"/>
							<stop  offset="0.1674" style="stop-color:#F60000"/>
							<stop  offset="0.4388" style="stop-color:#DE0000"/>
							<stop  offset="0.7785" style="stop-color:#B70000"/>
							<stop  offset="1" style="stop-color:#9A0000"/>
						</linearGradient>
						<path fill="url(#SVGID_22_)" d="M156.939,102.686l-0.037-2.667l-11.238,5.776l0.043,3.869c0.02,3.211,2.545,4.521,5.641,2.932
							c3.096-1.589,5.588-5.479,5.568-8.688C156.914,103.488,157.02,103.033,156.939,102.686z"/>
						<path fill="#B4B4B4" d="M168.148,96.925l-0.035-2.672l-11.24,5.777l0.043,3.87c0.021,3.209,2.545,4.521,5.643,2.932
							c3.094-1.59,5.588-5.482,5.566-8.692C168.123,97.728,168.23,97.273,168.148,96.925z"/>
						
							<linearGradient id="SVGID_23_" gradientUnits="userSpaceOnUse" x1="313.6484" y1="1641.125" x2="327.7662" y2="1667.9487" gradientTransform="matrix(1.0074 -0.1019 0.0062 0.992 -169.8892 -1532.6521)">
							<stop  offset="0" style="stop-color:#FF0000"/>
							<stop  offset="0.1674" style="stop-color:#F60000"/>
							<stop  offset="0.4388" style="stop-color:#DE0000"/>
							<stop  offset="0.7785" style="stop-color:#B70000"/>
							<stop  offset="1" style="stop-color:#9A0000"/>
						</linearGradient>
						<path fill="url(#SVGID_23_)" d="M179.359,91.166l-0.037-2.67l-11.24,5.775l0.043,3.869c0.021,3.209,2.547,4.522,5.643,2.932
							c3.096-1.59,5.588-5.483,5.568-8.694C179.334,91.967,179.439,91.512,179.359,91.166z"/>
					</g>
				</g>
				<g>
					<g>
						
							<linearGradient id="SVGID_24_" gradientUnits="userSpaceOnUse" x1="-6923.1738" y1="861.2793" x2="-6883.2144" y2="926.6179" gradientTransform="matrix(-1.0074 -0.1439 -0.0062 0.9918 -6896.1577 -1736.1484)">
							<stop  offset="0" style="stop-color:#FF0000"/>
							<stop  offset="0.1674" style="stop-color:#F60000"/>
							<stop  offset="0.4388" style="stop-color:#DE0000"/>
							<stop  offset="0.7785" style="stop-color:#B70000"/>
							<stop  offset="1" style="stop-color:#9A0000"/>
						</linearGradient>
						<polygon fill="url(#SVGID_24_)" points="78.728,99.245 85.731,104.613 71.666,124.947 63.807,118.607 						"/>
						
							<linearGradient id="SVGID_25_" gradientUnits="userSpaceOnUse" x1="-6988.5029" y1="1071.3262" x2="-6981.0552" y2="1078.4756" gradientTransform="matrix(-1 -0.0715 0 1 -6866.0488 -1491.4396)">
							<stop  offset="0" style="stop-color:#FF0000"/>
							<stop  offset="0.1674" style="stop-color:#F60000"/>
							<stop  offset="0.4388" style="stop-color:#DE0000"/>
							<stop  offset="0.7785" style="stop-color:#B70000"/>
							<stop  offset="1" style="stop-color:#9A0000"/>
						</linearGradient>
						<polygon fill="url(#SVGID_25_)" points="85.731,104.613 71.666,124.947 85.438,120.029 						"/>
						
							<linearGradient id="SVGID_26_" gradientUnits="userSpaceOnUse" x1="-6910.3369" y1="848.7129" x2="-6871.4229" y2="912.3422" gradientTransform="matrix(-1.0074 -0.1439 -0.0062 0.9918 -6896.1577 -1736.1484)">
							<stop  offset="0" style="stop-color:#FF0000"/>
							<stop  offset="0.1674" style="stop-color:#F60000"/>
							<stop  offset="0.4388" style="stop-color:#DE0000"/>
							<stop  offset="0.7785" style="stop-color:#B70000"/>
							<stop  offset="1" style="stop-color:#9A0000"/>
						</linearGradient>
						<polygon fill="url(#SVGID_26_)" points="63.74,87.756 71.375,93.609 56.57,112.766 48.713,106.424 						"/>
						
							<linearGradient id="SVGID_27_" gradientUnits="userSpaceOnUse" x1="-6897.1841" y1="836.0508" x2="-6858.9111" y2="898.6321" gradientTransform="matrix(-1.0074 -0.1439 -0.0062 0.9918 -6896.1577 -1736.1484)">
							<stop  offset="0" style="stop-color:#FF0000"/>
							<stop  offset="0.1674" style="stop-color:#F60000"/>
							<stop  offset="0.4388" style="stop-color:#DE0000"/>
							<stop  offset="0.7785" style="stop-color:#B70000"/>
							<stop  offset="1" style="stop-color:#9A0000"/>
						</linearGradient>
						<polygon fill="url(#SVGID_27_)" points="48.608,76.158 56.165,81.951 41.47,100.58 33.925,94.488 						"/>
						<polygon fill="#FFFFFF" points="56.174,81.957 63.758,87.769 49.018,106.67 41.43,100.546 						"/>
						<polygon fill="#FFFFFF" points="41.126,70.424 48.573,76.131 33.925,94.489 26.335,88.364 						"/>
						
							<linearGradient id="SVGID_28_" gradientUnits="userSpaceOnUse" x1="-6883.8306" y1="823.417" x2="-6846.4146" y2="884.5964" gradientTransform="matrix(-1.0074 -0.1439 -0.0062 0.9918 -6896.1577 -1736.1484)">
							<stop  offset="0" style="stop-color:#FF0000"/>
							<stop  offset="0.1674" style="stop-color:#F60000"/>
							<stop  offset="0.4388" style="stop-color:#DE0000"/>
							<stop  offset="0.7785" style="stop-color:#B70000"/>
							<stop  offset="1" style="stop-color:#9A0000"/>
						</linearGradient>
						<polygon fill="url(#SVGID_28_)" points="33.808,64.814 41.126,70.424 26.376,88.396 18.707,82.207 						"/>
						<polygon fill="#FFFFFF" points="71.282,93.537 78.668,99.199 64.118,118.857 56.565,112.762 						"/>
					</g>
					<g>
						
							<linearGradient id="SVGID_29_" gradientUnits="userSpaceOnUse" x1="-6933.394" y1="843.5967" x2="-6919.3896" y2="870.2059" gradientTransform="matrix(-1.0074 -0.1439 -0.0062 0.9918 -6896.1577 -1736.1484)">
							<stop  offset="0" style="stop-color:#FF0000"/>
							<stop  offset="0.1674" style="stop-color:#F60000"/>
							<stop  offset="0.4388" style="stop-color:#DE0000"/>
							<stop  offset="0.7785" style="stop-color:#B70000"/>
							<stop  offset="1" style="stop-color:#9A0000"/>
						</linearGradient>
						<path fill="url(#SVGID_29_)" d="M64.068,121.506l0.024-2.668l7.568,6.107l-0.031,3.867c-0.012,3.209-1.713,4.443-3.796,2.766
							c-2.085-1.682-3.764-5.646-3.749-8.857C64.085,122.309,64.013,121.85,64.068,121.506z"/>
						<path fill="#B4B4B4" d="M56.521,115.416l0.024-2.67l7.568,6.107l-0.029,3.863c-0.015,3.215-1.715,4.447-3.799,2.77
							c-2.085-1.682-3.764-5.646-3.75-8.855C56.538,116.219,56.465,115.76,56.521,115.416z"/>
						
							<linearGradient id="SVGID_30_" gradientUnits="userSpaceOnUse" x1="-6918.9927" y1="832.2705" x2="-6904.9771" y2="858.8998" gradientTransform="matrix(-1.0074 -0.1439 -0.0062 0.9918 -6896.1577 -1736.1484)">
							<stop  offset="0" style="stop-color:#FF0000"/>
							<stop  offset="0.1674" style="stop-color:#F60000"/>
							<stop  offset="0.4388" style="stop-color:#DE0000"/>
							<stop  offset="0.7785" style="stop-color:#B70000"/>
							<stop  offset="1" style="stop-color:#9A0000"/>
						</linearGradient>
						<path fill="url(#SVGID_30_)" d="M48.974,109.324l0.024-2.67l7.567,6.104l-0.029,3.867c-0.014,3.211-1.714,4.449-3.798,2.771
							c-2.083-1.688-3.763-5.648-3.749-8.857C48.991,110.127,48.919,109.668,48.974,109.324z"/>
						<path fill="#B4B4B4" d="M41.426,103.232l0.025-2.668l7.567,6.104l-0.029,3.869c-0.014,3.209-1.715,4.445-3.798,2.764
							c-2.085-1.682-3.764-5.646-3.75-8.854C41.443,104.037,41.373,103.578,41.426,103.232z"/>
						
							<linearGradient id="SVGID_31_" gradientUnits="userSpaceOnUse" x1="-6904.5737" y1="820.9805" x2="-6890.5649" y2="847.5968" gradientTransform="matrix(-1.0074 -0.1439 -0.0062 0.9918 -6896.1577 -1736.1484)">
							<stop  offset="0" style="stop-color:#FF0000"/>
							<stop  offset="0.1674" style="stop-color:#F60000"/>
							<stop  offset="0.4388" style="stop-color:#DE0000"/>
							<stop  offset="0.7785" style="stop-color:#B70000"/>
							<stop  offset="1" style="stop-color:#9A0000"/>
						</linearGradient>
						<path fill="url(#SVGID_31_)" d="M33.879,97.142l0.024-2.67l7.567,6.107l-0.029,3.868c-0.014,3.209-1.713,4.447-3.798,2.766
							c-2.084-1.682-3.762-5.648-3.749-8.857C33.896,97.945,33.824,97.486,33.879,97.142z"/>
						<path fill="#B4B4B4" d="M26.332,91.05l0.025-2.67l7.567,6.107l-0.03,3.867c-0.014,3.208-1.714,4.451-3.798,2.766
							c-2.083-1.682-3.762-5.647-3.749-8.856C26.349,91.853,26.278,91.394,26.332,91.05z"/>
						
							<linearGradient id="SVGID_32_" gradientUnits="userSpaceOnUse" x1="-6890.165" y1="809.665" x2="-6876.1543" y2="836.2869" gradientTransform="matrix(-1.0074 -0.1439 -0.0062 0.9918 -6896.1577 -1736.1484)">
							<stop  offset="0" style="stop-color:#FF0000"/>
							<stop  offset="0.1674" style="stop-color:#F60000"/>
							<stop  offset="0.4388" style="stop-color:#DE0000"/>
							<stop  offset="0.7785" style="stop-color:#B70000"/>
							<stop  offset="1" style="stop-color:#9A0000"/>
						</linearGradient>
						<path fill="url(#SVGID_32_)" d="M18.784,84.958l0.024-2.67l7.567,6.107l-0.029,3.869c-0.013,3.209-1.713,4.447-3.799,2.766
							c-2.084-1.683-3.761-5.648-3.749-8.857C18.801,85.762,18.73,85.303,18.784,84.958z"/>
					</g>
				</g>
				<g>
					
						<linearGradient id="SVGID_33_" gradientUnits="userSpaceOnUse" x1="263.3193" y1="1222.8965" x2="273.0583" y2="1210.015" gradientTransform="matrix(1 0.0373 0 1 -200 -1130.2457)">
						<stop  offset="0" style="stop-color:#B7CBE2;stop-opacity:0"/>
						<stop  offset="1" style="stop-color:#0E264E;stop-opacity:0.4"/>
					</linearGradient>
					<polygon fill="url(#SVGID_33_)" points="78.728,99.245 76.57,102.258 78.668,99.199 71.282,93.537 71.282,93.538 63.757,87.77 
						63.758,87.769 56.174,81.957 53.913,85.024 56.165,81.951 48.608,76.158 37.785,89.3 81.984,121.191 85.438,120.029 
						85.731,104.613 					"/>
					
						<linearGradient id="SVGID_34_" gradientUnits="userSpaceOnUse" x1="233.5986" y1="1201.1436" x2="243.0636" y2="1188.6246" gradientTransform="matrix(1 0.0373 0 1 -200 -1130.2457)">
						<stop  offset="0" style="stop-color:#B7CBE2;stop-opacity:0"/>
						<stop  offset="1" style="stop-color:#0E264E;stop-opacity:0.4"/>
					</linearGradient>
					<polygon fill="url(#SVGID_34_)" points="39.102,88.906 48.573,76.131 41.126,70.424 33.808,64.814 22.117,77.996 					"/>
				</g>
				<g>
					
						<linearGradient id="SVGID_35_" gradientUnits="userSpaceOnUse" x1="333.1875" y1="1171.6162" x2="283.7606" y2="1243.2853" gradientTransform="matrix(1 0 0 1 -200 -1182)">
						<stop  offset="0" style="stop-color:#5987BC"/>
						<stop  offset="0.5706" style="stop-color:#FFFFFF"/>
						<stop  offset="1" style="stop-color:#5987BC"/>
					</linearGradient>
					<polygon fill="url(#SVGID_35_)" points="96.191,62.151 81.038,50.612 80.583,47.005 96.073,58.143 					"/>
					
						<linearGradient id="SVGID_36_" gradientUnits="userSpaceOnUse" x1="283.9072" y1="1210.6807" x2="311.4825" y2="1244.3228" gradientTransform="matrix(1 0 0 1 -200 -1182)">
						<stop  offset="0" style="stop-color:#5987BC"/>
						<stop  offset="0.5706" style="stop-color:#FFFFFF"/>
						<stop  offset="1" style="stop-color:#5987BC"/>
					</linearGradient>
					<polygon fill="url(#SVGID_36_)" points="118.346,48.319 101.18,38.807 80.583,47.005 96.073,58.143 					"/>
					
						<linearGradient id="SVGID_37_" gradientUnits="userSpaceOnUse" x1="302.7373" y1="1200.2441" x2="317.6451" y2="1269.0601" gradientTransform="matrix(1 0 0 1 -200 -1182)">
						<stop  offset="0" style="stop-color:#5987BC"/>
						<stop  offset="0.5706" style="stop-color:#FFFFFF"/>
						<stop  offset="1" style="stop-color:#5987BC"/>
					</linearGradient>
					<polygon fill="url(#SVGID_37_)" points="118.346,48.319 101.18,38.807 98.799,42.038 					"/>
					
						<linearGradient id="SVGID_38_" gradientUnits="userSpaceOnUse" x1="259.8809" y1="1220.5605" x2="322.7438" y2="1239.8605" gradientTransform="matrix(1 0 0 1 -200 -1182)">
						<stop  offset="0" style="stop-color:#5987BC"/>
						<stop  offset="0.5706" style="stop-color:#FFFFFF"/>
						<stop  offset="1" style="stop-color:#5987BC"/>
					</linearGradient>
					<polygon fill="url(#SVGID_38_)" points="98.799,42.038 80.583,47.005 96.073,58.143 					"/>
					
						<linearGradient id="SVGID_39_" gradientUnits="userSpaceOnUse" x1="277.2832" y1="1179.0352" x2="317.737" y2="1255.002" gradientTransform="matrix(1 0 0 1 -200 -1182)">
						<stop  offset="0" style="stop-color:#5987BC"/>
						<stop  offset="0.5706" style="stop-color:#FFFFFF"/>
						<stop  offset="1" style="stop-color:#5987BC"/>
					</linearGradient>
					<polygon fill="url(#SVGID_39_)" points="118.346,48.319 98.799,42.038 96.073,58.143 					"/>
					
						<linearGradient id="SVGID_40_" gradientUnits="userSpaceOnUse" x1="267.4648" y1="1141.1074" x2="312.4404" y2="1249.7272" gradientTransform="matrix(1 0 0 1 -200 -1182)">
						<stop  offset="0" style="stop-color:#5987BC"/>
						<stop  offset="0.5706" style="stop-color:#FFFFFF"/>
						<stop  offset="1" style="stop-color:#5987BC"/>
					</linearGradient>
					<polygon fill="url(#SVGID_40_)" points="96.073,58.143 96.191,62.151 117.863,51.614 118.346,48.319 					"/>
				</g>
				
					<linearGradient id="SVGID_41_" gradientUnits="userSpaceOnUse" x1="326.4766" y1="1316.6426" x2="328.1016" y2="1319.8932" gradientTransform="matrix(1 0 0 1 -200 -1182)">
					<stop  offset="0" style="stop-color:#5987BC"/>
					<stop  offset="0.5706" style="stop-color:#FFFFFF"/>
					<stop  offset="1" style="stop-color:#5987BC"/>
				</linearGradient>
				<polygon fill="url(#SVGID_41_)" points="137.951,132.965 116.191,144.078 116.191,139.529 138.365,128.416 				"/>
				
					<linearGradient id="SVGID_42_" gradientUnits="userSpaceOnUse" x1="327.4873" y1="1317.3311" x2="328.4534" y2="1319.2639" gradientTransform="matrix(1 0 0 1 -200 -1182)">
					<stop  offset="0" style="stop-color:#5987BC"/>
					<stop  offset="0.5706" style="stop-color:#FFFFFF"/>
					<stop  offset="1" style="stop-color:#5987BC"/>
				</linearGradient>
				<path fill="url(#SVGID_42_)" d="M138.787,130.803c0.289,0.568,0.061,1.264-0.51,1.553l-19.58,9.924
					c-0.568,0.287-1.264,0.062-1.555-0.51l0,0c-0.287-0.564-0.062-1.264,0.51-1.553l19.58-9.924
					C137.805,130.006,138.5,130.232,138.787,130.803L138.787,130.803z"/>
				
					<linearGradient id="SVGID_43_" gradientUnits="userSpaceOnUse" x1="317.5967" y1="1322.3408" x2="318.5035" y2="1324.1549" gradientTransform="matrix(1 0 0 1 -200 -1182)">
					<stop  offset="0" style="stop-color:#5987BC"/>
					<stop  offset="1" style="stop-color:#004798"/>
				</linearGradient>
				<ellipse fill="url(#SVGID_43_)" cx="118.042" cy="141.232" rx="1.022" ry="1.172"/>
				<g>
					
						<linearGradient id="SVGID_44_" gradientUnits="userSpaceOnUse" x1="320.2871" y1="1278.1836" x2="314.7725" y2="1266.879" gradientTransform="matrix(1 0.0044 0 1 -200 -1176.1322)">
						<stop  offset="0" style="stop-color:#B7CBE2;stop-opacity:0"/>
						<stop  offset="1" style="stop-color:#0E264E;stop-opacity:0.4"/>
					</linearGradient>
					<polygon fill="url(#SVGID_44_)" points="134.006,83.539 136.023,87.39 133.992,83.544 122.729,89.024 122.729,89.024 
						111.555,94.462 111.555,94.462 100.583,99.798 102.406,103.51 100.495,99.841 90.093,104.904 90.53,120.334 94.34,123.482 
						153.395,93.472 145.23,78.078 					"/>
					
						<linearGradient id="SVGID_45_" gradientUnits="userSpaceOnUse" x1="362.084" y1="1257.793" x2="356.5692" y2="1246.4879" gradientTransform="matrix(1 0.0044 0 1 -200 -1176.1322)">
						<stop  offset="0" style="stop-color:#B7CBE2;stop-opacity:0"/>
						<stop  offset="1" style="stop-color:#0E264E;stop-opacity:0.4"/>
					</linearGradient>
					<polygon fill="url(#SVGID_45_)" points="167.213,67.382 156.342,72.671 145.281,78.052 153.41,93.464 175.787,82.092 					"/>
				</g>
			</g>
		</g>
	</g>
</g>
</svg>
