<?xml version="1.0" encoding="utf-8"?>
<!-- Generator: Adobe Illustrator 15.0.0, SVG Export Plug-In . SVG Version: 6.00 Build 0)  -->
<!DOCTYPE svg PUBLIC "-//W3C//DTD SVG 1.1//EN" "http://www.w3.org/Graphics/SVG/1.1/DTD/svg11.dtd">
<svg version="1.1" id="Layer_1" xmlns="http://www.w3.org/2000/svg" xmlns:xlink="http://www.w3.org/1999/xlink" x="0px" y="0px"
	 width="200px" height="200px" viewBox="0 0 200 200" enable-background="new 0 0 200 200" xml:space="preserve">
<g id="icon">
	<g id="Layer_2">
	</g>
	<g>
		
			<radialGradient id="SVGID_1_" cx="-3523.0171" cy="-1030.1792" r="8.247" fx="-3522.9656" fy="-1031.0529" gradientTransform="matrix(-0.0342 -0.9993 0.9086 -0.0376 940.3969 -3419.0825)" gradientUnits="userSpaceOnUse">
			<stop  offset="0" style="stop-color:#FFFF00"/>
			<stop  offset="0.3313" style="stop-color:#FFD400"/>
			<stop  offset="0.4016" style="stop-color:#FCD001"/>
			<stop  offset="0.4777" style="stop-color:#F2C303"/>
			<stop  offset="0.5565" style="stop-color:#E2AD06"/>
			<stop  offset="0.6371" style="stop-color:#CC8F0B"/>
			<stop  offset="0.7184" style="stop-color:#B06811"/>
			<stop  offset="0.7485" style="stop-color:#A45814"/>
			<stop  offset="0.9002" style="stop-color:#B57010"/>
			<stop  offset="1" style="stop-color:#BD7B0E"/>
		</radialGradient>
		<path fill="url(#SVGID_1_)" d="M125.709,133.916c3.186-0.132,5.861,2.6,5.98,6.104c0.121,3.502-2.361,6.447-5.547,6.58
			c-3.188,0.131-5.863-2.6-5.981-6.104C120.041,136.994,122.525,134.048,125.709,133.916z"/>
		
			<linearGradient id="SVGID_2_" gradientUnits="userSpaceOnUse" x1="-4231.8364" y1="-1775.1187" x2="-4236.752" y2="-1770.3724" gradientTransform="matrix(-0.2343 -0.7962 0.8418 0.1207 639.8533 -3034.3708)">
			<stop  offset="0" style="stop-color:#FFCA00"/>
			<stop  offset="0.2793" style="stop-color:#EBAE0B"/>
			<stop  offset="0.8792" style="stop-color:#B96725"/>
			<stop  offset="1" style="stop-color:#AE582B"/>
		</linearGradient>
		<path fill="url(#SVGID_2_)" d="M147.396,107.025c0.604-0.812,2.02-0.627,3.162,0.404l0,0c1.146,1.029,1.584,2.521,0.979,3.334
			l-20.614,27.361c-0.604,0.811-2.021,0.627-3.161-0.402l0,0c-1.146-1.033-1.587-2.525-0.979-3.332L147.396,107.025z"/>
		<g>
			
				<linearGradient id="SVGID_3_" gradientUnits="userSpaceOnUse" x1="-3518.48" y1="-969.3936" x2="-3480.5049" y2="-976.2097" gradientTransform="matrix(-0.0051 -1 1 -0.0051 1109.3231 -3364.4036)">
				<stop  offset="0" style="stop-color:#D16E00"/>
				<stop  offset="0.1896" style="stop-color:#B56205"/>
				<stop  offset="0.5959" style="stop-color:#6E4313"/>
				<stop  offset="1" style="stop-color:#222222"/>
			</linearGradient>
			<path fill="url(#SVGID_3_)" d="M137.479,131.6l26.617,16.627c0,0,3.752,1.117,5.391-1.699c1.66-2.852,0.125-5.686,0.125-5.686
				l-23.316-19.045L137.479,131.6z"/>
			
				<linearGradient id="SVGID_4_" gradientUnits="userSpaceOnUse" x1="-3513.8799" y1="-978.1938" x2="-3480.6394" y2="-968.2555" gradientTransform="matrix(-0.0051 -1 1 -0.0051 1109.3231 -3364.4036)">
				<stop  offset="0" style="stop-color:#906E81"/>
				<stop  offset="0.2884" style="stop-color:#745B69"/>
				<stop  offset="0.9081" style="stop-color:#2D2A2C"/>
				<stop  offset="1" style="stop-color:#222222"/>
			</linearGradient>
			<path fill="url(#SVGID_4_)" d="M137.479,131.6l26.617,16.627c0,0,3.752,1.117,5.391-1.699c1.66-2.852,0.125-5.686,0.125-5.686
				l-23.316-19.045L137.479,131.6z"/>
			<g>
				
					<linearGradient id="SVGID_5_" gradientUnits="userSpaceOnUse" x1="-3502.3633" y1="-977.145" x2="-3490.1206" y2="-969.2037" gradientTransform="matrix(-0.0051 -1 1 -0.0051 1109.3231 -3364.4036)">
					<stop  offset="0" style="stop-color:#9F8292"/>
					<stop  offset="0.257" style="stop-color:#836D79"/>
					<stop  offset="0.8088" style="stop-color:#3C3639"/>
					<stop  offset="1" style="stop-color:#222222"/>
				</linearGradient>
				<path fill="url(#SVGID_5_)" d="M138.866,130.05l-1.388,1.55l26.617,16.627c0,0,1.049,0.312,2.275,0.188L138.866,130.05z"/>
			</g>
		</g>
		
			<linearGradient id="SVGID_6_" gradientUnits="userSpaceOnUse" x1="-3526.6182" y1="-993.4531" x2="-3523.574" y2="-990.7897" gradientTransform="matrix(-0.0376 -0.9993 0.9993 -0.0376 1019.5883 -3419.0825)">
			<stop  offset="0" style="stop-color:#484848"/>
			<stop  offset="0.2454" style="stop-color:#A6A6A7"/>
			<stop  offset="1" style="stop-color:#000000"/>
		</linearGradient>
		<path fill="url(#SVGID_6_)" d="M166.461,138.355c0,0,1.732,4.229-3.061,6.633c-3.033,1.52-5.414-0.672-5.414-0.672l-4.592-2.965
			c0,0,5.871,3.676,8.957-0.121c3.088-3.797,0.301-5.982,0.301-5.982L166.461,138.355z"/>
		
			<linearGradient id="SVGID_7_" gradientUnits="userSpaceOnUse" x1="-3520.0723" y1="-1000.2378" x2="-3516.9944" y2="-997.545" gradientTransform="matrix(-0.0376 -0.9993 0.9993 -0.0376 1019.5883 -3419.0825)">
			<stop  offset="0" style="stop-color:#484848"/>
			<stop  offset="0.2454" style="stop-color:#A6A6A7"/>
			<stop  offset="1" style="stop-color:#000000"/>
		</linearGradient>
		<path fill="url(#SVGID_7_)" d="M159.01,132.58c0,0,1.807,4.584-3.158,7.174c-3.145,1.641-5.608-0.738-5.608-0.738l-4.769-3.217
			c0,0,6.092,3.99,9.284-0.115c3.191-4.104,0.302-6.479,0.302-6.479L159.01,132.58z"/>
		
			<linearGradient id="SVGID_8_" gradientUnits="userSpaceOnUse" x1="-3512.5767" y1="-1007.9561" x2="-3509.4624" y2="-1005.2316" gradientTransform="matrix(-0.0376 -0.9993 0.9993 -0.0376 1019.5883 -3419.0825)">
			<stop  offset="0" style="stop-color:#484848"/>
			<stop  offset="0.2454" style="stop-color:#A6A6A7"/>
			<stop  offset="1" style="stop-color:#000000"/>
		</linearGradient>
		<path fill="url(#SVGID_8_)" d="M150.586,125.87c0,0,1.924,5.63-3.277,8.767c-3.291,1.986-5.896-0.943-5.896-0.943l-6.188-3.49
			c0,0,7.59,4.445,10.918-0.562c3.332-5.004,0.275-7.932,0.275-7.932L150.586,125.87z"/>
		
			<linearGradient id="SVGID_9_" gradientUnits="userSpaceOnUse" x1="-3494.4424" y1="-1072.7065" x2="-3428.7463" y2="-1026.9825" gradientTransform="matrix(-0.0376 -0.9993 0.9993 -0.0376 1019.5883 -3419.0825)">
			<stop  offset="0" style="stop-color:#7CA4BD"/>
			<stop  offset="0.632" style="stop-color:#CFDBF0"/>
			<stop  offset="1" style="stop-color:#FFFFFF"/>
		</linearGradient>
		<polygon fill="url(#SVGID_9_)" points="131.865,129.092 137.117,125.566 59.368,69.229 41.06,69.553 		"/>
		
			<linearGradient id="SVGID_10_" gradientUnits="userSpaceOnUse" x1="-3480.5361" y1="-1065.3091" x2="-3481.7102" y2="-1040.0782" gradientTransform="matrix(-0.0376 -0.9993 0.9993 -0.0376 1019.5883 -3419.0825)">
			<stop  offset="0.092" style="stop-color:#A8CEC9;stop-opacity:0"/>
			<stop  offset="0.1885" style="stop-color:#C4DEDA;stop-opacity:0.3455"/>
			<stop  offset="0.2883" style="stop-color:#E5F0EF;stop-opacity:0.7027"/>
			<stop  offset="0.4663" style="stop-color:#FFFFFF"/>
			<stop  offset="1" style="stop-color:#A8CEC9;stop-opacity:0"/>
		</linearGradient>
		<polygon fill="url(#SVGID_10_)" points="131.865,129.092 137.117,125.566 59.368,69.229 41.06,69.553 		"/>
		
			<linearGradient id="SVGID_11_" gradientUnits="userSpaceOnUse" x1="291.1094" y1="1284.8047" x2="298.8948" y2="1264.5625" gradientTransform="matrix(1 0 0 1 -200 -1182)">
			<stop  offset="0" style="stop-color:#7992B3"/>
			<stop  offset="0.5938" style="stop-color:#B2CFE3"/>
			<stop  offset="1" style="stop-color:#FFFFFF"/>
		</linearGradient>
		<polygon fill="url(#SVGID_11_)" points="141.741,115.732 137.117,125.566 59.368,69.229 57.619,45.302 		"/>
		
			<linearGradient id="SVGID_12_" gradientUnits="userSpaceOnUse" x1="248.3203" y1="1232.29" x2="245.9115" y2="1245.2975" gradientTransform="matrix(1 0 0 1 -200 -1182)">
			<stop  offset="0" style="stop-color:#B6CEE1"/>
			<stop  offset="0.3566" style="stop-color:#CDDEEB"/>
			<stop  offset="1" style="stop-color:#FFFFFF"/>
		</linearGradient>
		<polygon fill="url(#SVGID_12_)" points="34.667,45.42 41.06,69.553 59.368,69.229 57.619,45.302 		"/>
		<path d="M148.15,129.562c1.356-0.02,2.188,0.982,1.853,2.234c-0.337,1.258-1.71,2.283-3.069,2.305
			c-1.355,0.017-2.188-0.986-1.853-2.238C145.418,130.609,146.79,129.58,148.15,129.562z"/>
		<path d="M155.818,135.707c1.248-0.016,2.009,0.904,1.699,2.055c-0.312,1.151-1.569,2.096-2.815,2.111s-2.009-0.904-1.701-2.055
			C153.311,136.669,154.57,135.723,155.818,135.707z"/>
		<path d="M163.376,141.451c1.126-0.014,1.813,0.816,1.534,1.854c-0.277,1.039-1.416,1.896-2.542,1.906
			c-1.126,0.014-1.813-0.816-1.535-1.854C161.111,142.318,162.25,141.465,163.376,141.451z"/>
		
			<radialGradient id="SVGID_13_" cx="-3488.5503" cy="-999.1016" r="8.25" fx="-3488.4988" fy="-999.9755" gradientTransform="matrix(-0.0342 -0.9993 0.9086 -0.0376 940.3969 -3419.0825)" gradientUnits="userSpaceOnUse">
			<stop  offset="0" style="stop-color:#FFFF00"/>
			<stop  offset="0.3313" style="stop-color:#FFD400"/>
			<stop  offset="0.4016" style="stop-color:#FCD001"/>
			<stop  offset="0.4777" style="stop-color:#F2C303"/>
			<stop  offset="0.5565" style="stop-color:#E2AD06"/>
			<stop  offset="0.6371" style="stop-color:#CC8F0B"/>
			<stop  offset="0.7184" style="stop-color:#B06811"/>
			<stop  offset="0.7485" style="stop-color:#A45814"/>
			<stop  offset="0.9002" style="stop-color:#B57010"/>
			<stop  offset="1" style="stop-color:#BD7B0E"/>
		</radialGradient>
		<path fill="url(#SVGID_13_)" d="M152.768,98.303c3.188-0.133,5.862,2.6,5.983,6.104c0.12,3.504-2.364,6.448-5.549,6.579
			c-3.185,0.134-5.862-2.603-5.981-6.104S149.583,98.436,152.768,98.303z"/>
		
			<radialGradient id="SVGID_14_" cx="-3508.6587" cy="-1018.8965" r="14.0972" gradientTransform="matrix(-0.0342 -0.9993 0.9086 -0.0376 940.3969 -3419.0825)" gradientUnits="userSpaceOnUse">
			<stop  offset="0" style="stop-color:#FFFF00"/>
			<stop  offset="0.3313" style="stop-color:#FFD400"/>
			<stop  offset="0.4016" style="stop-color:#FCD001"/>
			<stop  offset="0.4777" style="stop-color:#F2C303"/>
			<stop  offset="0.5565" style="stop-color:#E2AD06"/>
			<stop  offset="0.6371" style="stop-color:#CC8F0B"/>
			<stop  offset="0.7184" style="stop-color:#B06811"/>
			<stop  offset="0.7485" style="stop-color:#A45814"/>
			<stop  offset="0.9002" style="stop-color:#B57010"/>
			<stop  offset="1" style="stop-color:#BD7B0E"/>
		</radialGradient>
		<path fill="url(#SVGID_14_)" d="M140.477,118.137c4.047-0.068,6.979,3.096,6.551,7.066c-0.426,3.967-4.053,7.238-8.101,7.305
			c-4.045,0.065-6.979-3.098-6.549-7.066C132.805,121.473,136.43,118.203,140.477,118.137z"/>
		
			<linearGradient id="SVGID_15_" gradientUnits="userSpaceOnUse" x1="-3678.249" y1="-616.8037" x2="-3662.5986" y2="-616.8037" gradientTransform="matrix(0.112 -0.9452 1.0599 -0.0158 1204.7931 -3352.5549)">
			<stop  offset="0" style="stop-color:#FFCA00"/>
			<stop  offset="0.2793" style="stop-color:#EBAE0B"/>
			<stop  offset="0.8792" style="stop-color:#B96725"/>
			<stop  offset="1" style="stop-color:#AE582B"/>
		</linearGradient>
		<path fill="url(#SVGID_15_)" d="M140.753,119.08c4.163-0.068,7.181,3.188,6.741,7.27c-0.441,4.084-4.174,7.449-8.335,7.521
			c-4.162,0.064-7.181-3.188-6.74-7.271C132.859,122.518,136.589,119.148,140.753,119.08z"/>
		
			<radialGradient id="SVGID_16_" cx="-1277.8569" cy="-690.3203" r="3.3169" fx="-1278.3058" fy="-690.2584" gradientTransform="matrix(0.9048 0.0993 -0.083 0.9145 1238.5144 884.626)" gradientUnits="userSpaceOnUse">
			<stop  offset="0" style="stop-color:#FFFF00"/>
			<stop  offset="0.3313" style="stop-color:#FFD400"/>
			<stop  offset="0.4016" style="stop-color:#FCD001"/>
			<stop  offset="0.4777" style="stop-color:#F2C303"/>
			<stop  offset="0.5565" style="stop-color:#E2AD06"/>
			<stop  offset="0.6371" style="stop-color:#CC8F0B"/>
			<stop  offset="0.7184" style="stop-color:#B06811"/>
			<stop  offset="0.7485" style="stop-color:#A45814"/>
			<stop  offset="0.9002" style="stop-color:#B57010"/>
			<stop  offset="1" style="stop-color:#BD7B0E"/>
		</radialGradient>
		<path fill="url(#SVGID_16_)" d="M140.249,123.75c1.533-0.025,2.647,1.174,2.483,2.68c-0.16,1.504-1.537,2.744-3.07,2.771
			c-1.534,0.025-2.645-1.178-2.484-2.682C137.341,125.016,138.715,123.773,140.249,123.75z"/>
		
			<radialGradient id="SVGID_17_" cx="-3725.4688" cy="-2243.8145" r="8.2489" fx="-3725.4172" fy="-2244.6882" gradientTransform="matrix(-0.3284 -0.9325 -0.8478 0.3612 -3051.5793 -2513.3262)" gradientUnits="userSpaceOnUse">
			<stop  offset="0" style="stop-color:#FFFF00"/>
			<stop  offset="0.3313" style="stop-color:#FFD400"/>
			<stop  offset="0.4016" style="stop-color:#FCD001"/>
			<stop  offset="0.4777" style="stop-color:#F2C303"/>
			<stop  offset="0.5565" style="stop-color:#E2AD06"/>
			<stop  offset="0.6371" style="stop-color:#CC8F0B"/>
			<stop  offset="0.7184" style="stop-color:#B06811"/>
			<stop  offset="0.7485" style="stop-color:#A45814"/>
			<stop  offset="0.9002" style="stop-color:#B57010"/>
			<stop  offset="1" style="stop-color:#BD7B0E"/>
		</radialGradient>
		<path fill="url(#SVGID_17_)" d="M71.132,144.801c-2.973,1.266-4.447,4.941-3.297,8.209c1.152,3.27,4.493,4.893,7.465,3.627
			c2.972-1.268,4.447-4.941,3.296-8.211C77.445,145.158,74.102,143.535,71.132,144.801z"/>
		
			<linearGradient id="SVGID_18_" gradientUnits="userSpaceOnUse" x1="-4789.6724" y1="-3374.2422" x2="-4794.5068" y2="-3369.5742" gradientTransform="matrix(-0.1002 -0.8239 -0.7252 0.4443 -2871.0562 -2309.2402)">
			<stop  offset="0" style="stop-color:#FFCA00"/>
			<stop  offset="0.2793" style="stop-color:#EBAE0B"/>
			<stop  offset="0.8792" style="stop-color:#B96725"/>
			<stop  offset="1" style="stop-color:#AE582B"/>
		</linearGradient>
		<path fill="url(#SVGID_18_)" d="M41.532,129.557c-0.846-0.479-2.079,0.311-2.76,1.75l0,0c-0.678,1.447-0.544,3.008,0.301,3.488
			l28.783,16.146c0.844,0.479,2.082-0.305,2.76-1.75l0,0c0.679-1.447,0.545-3.01-0.299-3.488L41.532,129.557z"/>
		<g>
			
				<linearGradient id="SVGID_19_" gradientUnits="userSpaceOnUse" x1="-3763.8105" y1="-2185.6382" x2="-3725.0928" y2="-2192.5876" gradientTransform="matrix(-0.3915 -0.9202 -0.9202 0.3915 -3433.199 -2425.5051)">
				<stop  offset="0" style="stop-color:#D16E00"/>
				<stop  offset="0.1896" style="stop-color:#B56205"/>
				<stop  offset="0.5959" style="stop-color:#6E4313"/>
				<stop  offset="1" style="stop-color:#222222"/>
			</linearGradient>
			<path fill="url(#SVGID_19_)" d="M59.487,147.801l-18.449,26.862c0,0-3.043,2.66-5.562,0.788
				c-2.551-1.895-2.164-5.166-2.164-5.166l14.554-27.646L59.487,147.801z"/>
			
				<linearGradient id="SVGID_20_" gradientUnits="userSpaceOnUse" x1="-3758.6694" y1="-2194.5166" x2="-3725.5269" y2="-2184.6077" gradientTransform="matrix(-0.3915 -0.9202 -0.9202 0.3915 -3433.199 -2425.5051)">
				<stop  offset="0" style="stop-color:#906E81"/>
				<stop  offset="0.2884" style="stop-color:#745B69"/>
				<stop  offset="0.9081" style="stop-color:#2D2A2C"/>
				<stop  offset="1" style="stop-color:#222222"/>
			</linearGradient>
			<path fill="url(#SVGID_20_)" d="M59.487,147.801l-18.449,26.862c0,0-3.043,2.66-5.562,0.788
				c-2.551-1.895-2.164-5.166-2.164-5.166l14.554-27.646L59.487,147.801z"/>
			<g>
				
					<linearGradient id="SVGID_21_" gradientUnits="userSpaceOnUse" x1="-3746.8691" y1="-2193.3398" x2="-3735.0581" y2="-2185.6785" gradientTransform="matrix(-0.3915 -0.9202 -0.9202 0.3915 -3433.199 -2425.5051)">
					<stop  offset="0" style="stop-color:#9F8292"/>
					<stop  offset="0.257" style="stop-color:#836D79"/>
					<stop  offset="0.8088" style="stop-color:#3C3639"/>
					<stop  offset="1" style="stop-color:#222222"/>
				</linearGradient>
				<path fill="url(#SVGID_21_)" d="M57.658,146.982l1.829,0.814L41.038,174.66c0,0-0.853,0.738-2.026,1.165L57.658,146.982z"/>
			</g>
		</g>
		
			<linearGradient id="SVGID_22_" gradientUnits="userSpaceOnUse" x1="-3733.0039" y1="-2215.9072" x2="-3730.0623" y2="-2213.3335" gradientTransform="matrix(-0.3612 -0.9325 -0.9325 0.3612 -3371.4482 -2513.3262)">
			<stop  offset="0" style="stop-color:#484848"/>
			<stop  offset="0.2454" style="stop-color:#A6A6A7"/>
			<stop  offset="1" style="stop-color:#000000"/>
		</linearGradient>
		<path fill="url(#SVGID_22_)" d="M35.312,166.631c0,0-0.069,4.641,5.197,4.756c3.334,0.074,4.729-2.976,4.729-2.976l3.147-4.722
			c0,0-4.065,5.932-8.267,3.791c-4.202-2.145-2.43-5.363-2.43-5.363L35.312,166.631z"/>
		
			<linearGradient id="SVGID_23_" gradientUnits="userSpaceOnUse" x1="-3726.2739" y1="-2223.0146" x2="-3723.3032" y2="-2220.4155" gradientTransform="matrix(-0.3612 -0.9325 -0.9325 0.3612 -3371.4482 -2513.3262)">
			<stop  offset="0" style="stop-color:#484848"/>
			<stop  offset="0.2454" style="stop-color:#A6A6A7"/>
			<stop  offset="1" style="stop-color:#000000"/>
		</linearGradient>
		<path fill="url(#SVGID_23_)" d="M40.072,158.081c0,0-0.007,4.995,5.484,5.212c3.478,0.137,4.886-3.123,4.886-3.123l3.218-5.031
			c0,0-4.155,6.318-8.565,3.941c-4.41-2.379-2.61-5.818-2.61-5.818L40.072,158.081z"/>
		
			<linearGradient id="SVGID_24_" gradientUnits="userSpaceOnUse" x1="-3718.5625" y1="-2231.1055" x2="-3715.5566" y2="-2228.4756" gradientTransform="matrix(-0.3612 -0.9325 -0.9325 0.3612 -3371.4482 -2513.3262)">
			<stop  offset="0" style="stop-color:#484848"/>
			<stop  offset="0.2454" style="stop-color:#A6A6A7"/>
			<stop  offset="1" style="stop-color:#000000"/>
		</linearGradient>
		<path fill="url(#SVGID_24_)" d="M45.391,148.25c0,0,0.263,6.008,6.166,6.623c3.74,0.389,5.078-3.439,5.078-3.439l4.428-5.898
			c0,0-5.367,7.391-10.229,4.24c-4.858-3.145-3.11-7.164-3.11-7.164L45.391,148.25z"/>
		
			<linearGradient id="SVGID_25_" gradientUnits="userSpaceOnUse" x1="-3698.6069" y1="-2297.5259" x2="-3633.9358" y2="-2252.5151" gradientTransform="matrix(-0.3612 -0.9325 -0.9325 0.3612 -3371.4482 -2513.3262)">
			<stop  offset="0" style="stop-color:#D2E6FF"/>
			<stop  offset="0.6457" style="stop-color:#EEF5F4"/>
			<stop  offset="1" style="stop-color:#FFFFFF"/>
		</linearGradient>
		<polygon fill="url(#SVGID_25_)" points="63.739,143.055 57.649,142.104 108.751,56.504 125.68,48.825 		"/>
		
			<linearGradient id="SVGID_26_" gradientUnits="userSpaceOnUse" x1="-3685.0049" y1="-2290.3765" x2="-3686.22" y2="-2264.2646" gradientTransform="matrix(-0.3612 -0.9325 -0.9325 0.3612 -3371.4482 -2513.3262)">
			<stop  offset="0.092" style="stop-color:#A8CEC9;stop-opacity:0"/>
			<stop  offset="0.1885" style="stop-color:#C4DEDA;stop-opacity:0.3455"/>
			<stop  offset="0.2883" style="stop-color:#E5F0EF;stop-opacity:0.7027"/>
			<stop  offset="0.4663" style="stop-color:#FFFFFF"/>
			<stop  offset="1" style="stop-color:#A8CEC9;stop-opacity:0"/>
		</linearGradient>
		<polygon fill="url(#SVGID_26_)" points="63.739,143.055 57.649,142.104 108.751,56.504 125.68,48.825 		"/>
		
			<linearGradient id="SVGID_27_" gradientUnits="userSpaceOnUse" x1="-3679.8672" y1="-2284.2773" x2="-3713.9941" y2="-2309.5447" gradientTransform="matrix(-0.3612 -0.9325 -0.9325 0.3612 -3371.4482 -2513.3262)">
			<stop  offset="0" style="stop-color:#6883A2"/>
			<stop  offset="1" style="stop-color:#FFFFFF"/>
		</linearGradient>
		<polygon fill="url(#SVGID_27_)" points="49.862,135.088 57.649,142.104 108.751,56.504 101.738,33.771 		"/>
		
			<linearGradient id="SVGID_28_" gradientUnits="userSpaceOnUse" x1="-3640.6729" y1="-2327.3823" x2="-3640.6729" y2="-2332.0579" gradientTransform="matrix(-0.3612 -0.9325 -0.9325 0.3612 -3371.4482 -2513.3262)">
			<stop  offset="0" style="stop-color:#B8CEE8"/>
			<stop  offset="0.3566" style="stop-color:#C4DEF2"/>
			<stop  offset="1" style="stop-color:#FFFFFF"/>
		</linearGradient>
		<polygon fill="url(#SVGID_28_)" points="122.855,23.881 125.68,48.825 108.751,56.504 101.738,33.771 		"/>
		<path d="M48.958,150.58c-1.256,0.576-1.655,1.857-0.896,2.861c0.761,1.004,2.394,1.352,3.646,0.771
			c1.254-0.572,1.654-1.855,0.896-2.859C51.844,150.35,50.212,150.004,48.958,150.58z"/>
		<path d="M44.129,159.562c-1.151,0.526-1.519,1.705-0.821,2.627c0.698,0.922,2.195,1.24,3.348,0.711
			c1.15-0.528,1.519-1.705,0.82-2.627C46.78,159.352,45.281,159.033,44.129,159.562z"/>
		<path d="M39.259,168.129c-1.039,0.477-1.371,1.539-0.742,2.371c0.63,0.832,1.982,1.119,3.021,0.643
			c1.037-0.479,1.371-1.541,0.741-2.371C41.65,167.939,40.297,167.65,39.259,168.129z"/>
		
			<radialGradient id="SVGID_29_" cx="-3691" cy="-2212.7329" r="8.2475" fx="-3690.9482" fy="-2213.6067" gradientTransform="matrix(-0.3284 -0.9325 -0.8478 0.3612 -3051.5793 -2513.3262)" gradientUnits="userSpaceOnUse">
			<stop  offset="0" style="stop-color:#FFFF00"/>
			<stop  offset="0.3313" style="stop-color:#FFD400"/>
			<stop  offset="0.4016" style="stop-color:#FCD001"/>
			<stop  offset="0.4777" style="stop-color:#F2C303"/>
			<stop  offset="0.5565" style="stop-color:#E2AD06"/>
			<stop  offset="0.6371" style="stop-color:#CC8F0B"/>
			<stop  offset="0.7184" style="stop-color:#B06811"/>
			<stop  offset="0.7485" style="stop-color:#A45814"/>
			<stop  offset="0.9002" style="stop-color:#B57010"/>
			<stop  offset="1" style="stop-color:#BD7B0E"/>
		</radialGradient>
		<path fill="url(#SVGID_29_)" d="M33.46,123.889c-2.973,1.27-4.448,4.939-3.296,8.209c1.151,3.271,4.493,4.896,7.465,3.625
			c2.972-1.266,4.446-4.938,3.296-8.209C39.772,124.244,36.431,122.622,33.46,123.889z"/>
		
			<radialGradient id="SVGID_30_" cx="-3711.1108" cy="-2232.5308" r="14.095" gradientTransform="matrix(-0.3284 -0.9325 -0.8478 0.3612 -3051.5793 -2513.3262)" gradientUnits="userSpaceOnUse">
			<stop  offset="0" style="stop-color:#FFFF00"/>
			<stop  offset="0.3313" style="stop-color:#FFD400"/>
			<stop  offset="0.4016" style="stop-color:#FCD001"/>
			<stop  offset="0.4777" style="stop-color:#F2C303"/>
			<stop  offset="0.5565" style="stop-color:#E2AD06"/>
			<stop  offset="0.6371" style="stop-color:#CC8F0B"/>
			<stop  offset="0.7184" style="stop-color:#B06811"/>
			<stop  offset="0.7485" style="stop-color:#A45814"/>
			<stop  offset="0.9002" style="stop-color:#B57010"/>
			<stop  offset="1" style="stop-color:#BD7B0E"/>
		</radialGradient>
		<path fill="url(#SVGID_30_)" d="M51.888,136.746c-3.739,1.699-5.292,5.883-3.47,9.34c1.821,3.457,6.33,4.881,10.068,3.18
			c3.738-1.701,5.292-5.884,3.469-9.342C60.134,136.465,55.627,135.043,51.888,136.746z"/>
		
			<linearGradient id="SVGID_31_" gradientUnits="userSpaceOnUse" x1="-3924.7573" y1="-1736.7534" x2="-3909.3794" y2="-1736.7534" gradientTransform="matrix(-0.4772 -0.8235 -0.9794 0.4053 -3514.8318 -2377.6279)">
			<stop  offset="0" style="stop-color:#FFCA00"/>
			<stop  offset="0.2793" style="stop-color:#EBAE0B"/>
			<stop  offset="0.8792" style="stop-color:#B96725"/>
			<stop  offset="1" style="stop-color:#AE582B"/>
		</linearGradient>
		<path fill="url(#SVGID_31_)" d="M51.975,137.732c-3.848,1.75-5.446,6.055-3.571,9.607c1.876,3.562,6.514,5.021,10.361,3.271
			c3.845-1.752,5.444-6.055,3.569-9.609C60.46,137.445,55.822,135.98,51.975,137.732z"/>
		
			<radialGradient id="SVGID_32_" cx="-2500.7031" cy="-209.0142" r="3.3119" fx="-2501.1514" fy="-208.9523" gradientTransform="matrix(-0.795 0.4852 0.4054 0.8036 -1847.5363 1525.3549)" gradientUnits="userSpaceOnUse">
			<stop  offset="0" style="stop-color:#FFFF00"/>
			<stop  offset="0.3313" style="stop-color:#FFD400"/>
			<stop  offset="0.4016" style="stop-color:#FCD001"/>
			<stop  offset="0.4777" style="stop-color:#F2C303"/>
			<stop  offset="0.5565" style="stop-color:#E2AD06"/>
			<stop  offset="0.6371" style="stop-color:#CC8F0B"/>
			<stop  offset="0.7184" style="stop-color:#B06811"/>
			<stop  offset="0.7485" style="stop-color:#A45814"/>
			<stop  offset="0.9002" style="stop-color:#B57010"/>
			<stop  offset="1" style="stop-color:#BD7B0E"/>
		</radialGradient>
		<path fill="url(#SVGID_32_)" d="M54.118,141.801c-1.417,0.645-2.007,2.23-1.316,3.541c0.692,1.312,2.4,1.852,3.818,1.206
			c1.416-0.646,2.005-2.231,1.314-3.542C57.245,141.695,55.535,141.154,54.118,141.801z"/>
	</g>
</g>
</svg>
