<?xml version="1.0" encoding="utf-8"?>
<!-- Generator: Adobe Illustrator 15.0.0, SVG Export Plug-In . SVG Version: 6.00 Build 0)  -->
<!DOCTYPE svg PUBLIC "-//W3C//DTD SVG 1.1//EN" "http://www.w3.org/Graphics/SVG/1.1/DTD/svg11.dtd">
<svg version="1.1" id="Layer_1" xmlns="http://www.w3.org/2000/svg" xmlns:xlink="http://www.w3.org/1999/xlink" x="0px" y="0px"
	 width="200px" height="200px" viewBox="0 0 200 200" enable-background="new 0 0 200 200" xml:space="preserve">
<g id="icon">
	<g id="Layer_2">
	</g>
	<g id="Layer_1_1_">
		<g>
			<g>
				<g>
					
						<radialGradient id="SVGID_1_" cx="304.3174" cy="1227.3408" r="136.4431" gradientTransform="matrix(1 0 0 1 -200 -1182)" gradientUnits="userSpaceOnUse">
						<stop  offset="0" style="stop-color:#FF0000"/>
						<stop  offset="0.1377" style="stop-color:#F50000"/>
						<stop  offset="0.3732" style="stop-color:#DA0000"/>
						<stop  offset="0.678" style="stop-color:#AD0000"/>
						<stop  offset="1" style="stop-color:#770000"/>
					</radialGradient>
					<path fill="url(#SVGID_1_)" d="M125.846,160.379c-1.834-0.246-45.279-6.371-77.357-35.982
						c-5.412-4.979-9.635-11.252-12.211-18.129c-4.164-11.138-3.775-22.707,1.096-32.577c4.396-8.908,12.062-15.415,21.585-18.322
						C63,54.135,67.382,53.51,71.984,53.51c8.183,0,15.212,1.952,18.87,3.201c4.491-8.254,11.824-14.195,20.908-16.865
						c3.396-0.998,6.939-1.504,10.533-1.504c17.779,0,34.812,12.341,41.424,30.011c2.614,6.988,3.449,14.369,2.413,21.346
						c-6.088,40.969-36.588,68.775-37.883,69.938l-1.031,0.926L125.846,160.379z"/>
				</g>
				<g opacity="0.3">
					<g>
						<path fill="#8A0036" d="M163.165,89.258c0.326-2.19,0.438-4.444,0.369-6.729c-4.533,42.268-39.327,63.688-39.327,63.688
							s-36.732-2.945-66.337-26.479c-25.318-20.126-23-52.667,4.758-62.178c-0.935,0.189-1.868,0.406-2.793,0.679
							c-19.068,5.604-28.353,26.636-20.748,46.977c2.499,6.671,6.506,12.438,11.436,16.978
							c31.75,29.312,75.722,35.217,75.722,35.217S157.166,129.628,163.165,89.258z"/>
					</g>
				</g>
				<g opacity="0.87">
					
						<radialGradient id="SVGID_2_" cx="754.625" cy="748.6865" r="108.671" gradientTransform="matrix(0.9392 0.2794 -0.3098 0.735 -362.9809 -683.8259)" gradientUnits="userSpaceOnUse">
						<stop  offset="0" style="stop-color:#FFFFFF;stop-opacity:0"/>
						<stop  offset="0.1274" style="stop-color:#FDFCFD;stop-opacity:0.061"/>
						<stop  offset="0.2308" style="stop-color:#F6F2F5;stop-opacity:0.1105"/>
						<stop  offset="0.3258" style="stop-color:#EAE1E8;stop-opacity:0.1559"/>
						<stop  offset="0.4158" style="stop-color:#D9C9D6;stop-opacity:0.199"/>
						<stop  offset="0.5022" style="stop-color:#C3AABE;stop-opacity:0.2404"/>
						<stop  offset="0.586" style="stop-color:#A884A1;stop-opacity:0.2805"/>
						<stop  offset="0.6677" style="stop-color:#89567F;stop-opacity:0.3196"/>
						<stop  offset="0.7457" style="stop-color:#652358;stop-opacity:0.3569"/>
						<stop  offset="0.7939" style="stop-color:#4C003D;stop-opacity:0.38"/>
						<stop  offset="1" style="stop-color:#FFFFFF;stop-opacity:0"/>
					</radialGradient>
					<path fill="url(#SVGID_2_)" d="M163.165,89.258c0.937-6.307,0.267-13.118-2.255-19.854
						c-7.61-20.341-29.235-32.285-48.303-26.68c-10.586,3.111-18.147,10.979-21.486,20.844c-9.331-6.136-20.7-8.443-31.286-5.33
						c-19.068,5.604-28.353,26.636-20.748,46.977c2.499,6.671,6.506,12.438,11.436,16.979c31.75,29.312,75.722,35.216,75.722,35.216
						S157.166,129.628,163.165,89.258z"/>
				</g>
			</g>
			
				<radialGradient id="SVGID_3_" cx="761.9443" cy="454.7588" r="57.3339" gradientTransform="matrix(0.9392 0.2794 -0.3988 0.9461 -397.2166 -602.6075)" gradientUnits="userSpaceOnUse">
				<stop  offset="0" style="stop-color:#FF72A9"/>
				<stop  offset="1" style="stop-color:#FF72A9;stop-opacity:0"/>
			</radialGradient>
			<path fill="url(#SVGID_3_)" d="M152.605,77.991c-5.81,13.775-23.938,20.95-40.498,16.023
				C95.55,89.089,86.833,73.927,92.641,60.151s23.939-20.95,40.498-16.024C149.697,49.054,158.413,64.216,152.605,77.991z"/>
			
				<radialGradient id="SVGID_4_" cx="700.0322" cy="473.6172" r="67.9037" gradientTransform="matrix(0.9392 0.2794 -0.3988 0.9461 -397.2166 -602.6075)" gradientUnits="userSpaceOnUse">
				<stop  offset="0" style="stop-color:#FF72A9"/>
				<stop  offset="1" style="stop-color:#FF72A9;stop-opacity:0"/>
			</radialGradient>
			<path fill="url(#SVGID_4_)" d="M105.001,93.123c-5.807,13.773-23.938,20.95-40.498,16.023
				C47.945,104.223,39.23,89.06,45.037,75.282c5.808-13.775,23.938-20.95,40.497-16.022
				C102.093,64.186,110.811,79.346,105.001,93.123z"/>
			
				<radialGradient id="SVGID_5_" cx="764.3574" cy="457.5029" r="57.3316" gradientTransform="matrix(0.9392 0.2794 -0.3988 0.9461 -397.2166 -602.6075)" gradientUnits="userSpaceOnUse">
				<stop  offset="0" style="stop-color:#FFC29A"/>
				<stop  offset="1" style="stop-color:#FF723A;stop-opacity:0"/>
			</radialGradient>
			<path fill="url(#SVGID_5_)" d="M153.777,81.261c-5.807,13.775-23.939,20.949-40.498,16.022
				C96.722,92.357,88.005,77.196,93.812,63.42c5.809-13.775,23.939-20.95,40.499-16.024
				C150.868,52.323,159.584,67.485,153.777,81.261z"/>
			
				<radialGradient id="SVGID_6_" cx="702.4443" cy="476.3613" r="67.9033" gradientTransform="matrix(0.9392 0.2794 -0.3988 0.9461 -397.2166 -602.6075)" gradientUnits="userSpaceOnUse">
				<stop  offset="0" style="stop-color:#FFC29A"/>
				<stop  offset="1" style="stop-color:#FF723A;stop-opacity:0"/>
			</radialGradient>
			<path fill="url(#SVGID_6_)" d="M106.173,96.392c-5.807,13.775-23.938,20.95-40.498,16.023
				c-16.558-4.926-25.273-20.088-19.466-33.863c5.808-13.776,23.939-20.951,40.498-16.023
				C103.266,67.454,111.98,82.614,106.173,96.392z"/>
		</g>
	</g>
</g>
</svg>
