<?xml version="1.0" encoding="utf-8"?>
<!-- Generator: Adobe Illustrator 15.0.0, SVG Export Plug-In . SVG Version: 6.00 Build 0)  -->
<!DOCTYPE svg PUBLIC "-//W3C//DTD SVG 1.1//EN" "http://www.w3.org/Graphics/SVG/1.1/DTD/svg11.dtd">
<svg version="1.1" id="Layer_1" xmlns="http://www.w3.org/2000/svg" xmlns:xlink="http://www.w3.org/1999/xlink" x="0px" y="0px"
	 width="200px" height="200px" viewBox="0 0 200 200" enable-background="new 0 0 200 200" xml:space="preserve">
<g id="icon">
	<g id="Layer_2">
	</g>
	<g id="Layer_1_1_">
		<g>
			<g>
				<g>
					
						<radialGradient id="SVGID_1_" cx="249" cy="-563.9985" r="128.8662" gradientTransform="matrix(1 0 0 -1 -150 -530)" gradientUnits="userSpaceOnUse">
						<stop  offset="0" style="stop-color:#19D900"/>
						<stop  offset="1" style="stop-color:#004230"/>
					</radialGradient>
					<path fill="url(#SVGID_1_)" d="M70.082,170.303c0,0-2.352-6.385-1.504-12.779c0.62-5.172,4.151-9.604,4.151-9.604
						l54.638-22.398l33.053,21.188l-0.316,3.194L70.082,170.303z"/>
					
						<radialGradient id="SVGID_2_" cx="488.4004" cy="1704.0225" r="328.457" gradientTransform="matrix(1.0039 -0.0037 -0.083 0.8366 -238.5565 -1381.7158)" gradientUnits="userSpaceOnUse">
						<stop  offset="0" style="stop-color:#19D900"/>
						<stop  offset="1" style="stop-color:#004230"/>
					</radialGradient>
					<polygon fill="url(#SVGID_2_)" points="168.559,126.966 72.729,147.919 35.03,45.906 128.552,26.738 					"/>
					
						<linearGradient id="SVGID_3_" gradientUnits="userSpaceOnUse" x1="262.6738" y1="-644.5098" x2="289.1738" y2="-720.7598" gradientTransform="matrix(1 0 0 -1 -150 -530)">
						<stop  offset="0" style="stop-color:#2B9000"/>
						<stop  offset="0.454" style="stop-color:#2C2300"/>
						<stop  offset="1" style="stop-color:#196800"/>
					</linearGradient>
					<polygon fill="url(#SVGID_3_)" points="168.559,126.966 72.729,147.919 74.045,149.689 168.1,129.454 					"/>
					
						<linearGradient id="SVGID_4_" gradientUnits="userSpaceOnUse" x1="291.4385" y1="1322.1777" x2="394.6195" y2="1222.3617" gradientTransform="matrix(1.0108 0.04 -0.0406 0.9877 -205.5073 -1194.5083)">
						<stop  offset="0" style="stop-color:#2B9000"/>
						<stop  offset="0.454" style="stop-color:#2C2300"/>
						<stop  offset="1" style="stop-color:#196800"/>
					</linearGradient>
					<path fill="url(#SVGID_4_)" d="M70.082,170.303c0,0-1.097-7.264-0.438-12.783c0.591-4.929,3.085-9.601,3.085-9.601
						L35.03,45.906c0,0-2.26,2.731-3.296,11.732c-1.069,5.055,1.144,9.94,1.144,9.94L70.082,170.303z"/>
					<path fill="#C3C1C2" d="M72.087,167.54c0,0-0.862-5.72-0.341-10.067c0.463-3.879,2.427-7.56,2.427-7.56l86.536-18.997
						l-4.482,17.254L72.087,167.54z"/>
					
						<linearGradient id="SVGID_5_" gradientUnits="userSpaceOnUse" x1="316.3887" y1="1322.5146" x2="317.325" y2="1369.7031" gradientTransform="matrix(1.0116 0.0062 -0.006 0.9885 -198.2398 -1186.9235)">
						<stop  offset="0" style="stop-color:#231F20"/>
						<stop  offset="0.0896" style="stop-color:#231F20;stop-opacity:0.9104"/>
						<stop  offset="1" style="stop-color:#231F20;stop-opacity:0"/>
					</linearGradient>
					<path fill="url(#SVGID_5_)" d="M71.742,164.387c0.15,1.84,0.345,3.153,0.345,3.153l84.14-19.37l0.727-2.784l-85.037,18.667
						C71.912,164.053,71.848,164.174,71.742,164.387z"/>
					
						<linearGradient id="SVGID_6_" gradientUnits="userSpaceOnUse" x1="371.793" y1="1335.7988" x2="373.9215" y2="1343.3668" gradientTransform="matrix(1.0108 0.04 -0.0406 0.9877 -206.4722 -1194.6147)">
						<stop  offset="0" style="stop-color:#231F20"/>
						<stop  offset="0.0896" style="stop-color:#231F20;stop-opacity:0.9104"/>
						<stop  offset="1" style="stop-color:#231F20;stop-opacity:0"/>
					</linearGradient>
					<path fill="url(#SVGID_6_)" d="M71.746,157.473c0.463-3.879,2.427-7.56,2.427-7.56l86.536-18.997l-2.372,8.871
						C158.337,139.787,71.225,161.82,71.746,157.473z"/>
					
						<radialGradient id="SVGID_7_" cx="2065.3877" cy="1248.2246" r="79.8897" gradientTransform="matrix(0.6102 0.4867 -0.7555 0.5491 -368.1263 -1514.25)" gradientUnits="userSpaceOnUse">
						<stop  offset="0" style="stop-color:#19D900"/>
						<stop  offset="1" style="stop-color:#00DC30"/>
					</radialGradient>
					<path fill="url(#SVGID_7_)" d="M73.534,148.432c-0.476,0.373-0.476,0.373-0.811,0.965L35.949,47.491
						c-0.377-0.333-0.299-0.91,0.178-1.286l0,0c0.475-0.376,1.166-0.41,1.547-0.076l36.771,101.907c0,0-0.317,0.016-0.57,0.183
						L73.534,148.432z"/>
					
						<radialGradient id="SVGID_8_" cx="2073.3633" cy="1232.3037" r="79.9768" gradientTransform="matrix(0.6102 0.4867 -0.7555 0.5491 -368.1263 -1514.25)" gradientUnits="userSpaceOnUse">
						<stop  offset="0" style="stop-color:#888BC5"/>
						<stop  offset="0.6258" style="stop-color:#45488D"/>
						<stop  offset="1" style="stop-color:#2E3192"/>
					</radialGradient>
					<path opacity="0.27" fill="url(#SVGID_8_)" enable-background="new    " d="M90.816,144.173
						c-0.477,0.375-1.169,0.41-1.547,0.076L52.496,42.343c-0.378-0.333-0.299-0.91,0.178-1.286l0,0
						c0.475-0.376,1.166-0.41,1.547-0.077l36.771,101.907C91.371,143.223,91.292,143.796,90.816,144.173L90.816,144.173z"/>
					
						<radialGradient id="SVGID_9_" cx="2072.291" cy="1234.6445" r="79.934" gradientTransform="matrix(0.6102 0.4867 -0.7555 0.5491 -368.1263 -1514.25)" gradientUnits="userSpaceOnUse">
						<stop  offset="0" style="stop-color:#19D900"/>
						<stop  offset="1" style="stop-color:#00DC30"/>
					</radialGradient>
					<path fill="url(#SVGID_9_)" d="M88.312,144.479c-0.476,0.375-1.295,0.681-1.295,0.681L50.245,43.251
						c-0.378-0.333-0.3-0.91,0.177-1.286l0,0c0.475-0.376,1.166-0.41,1.547-0.077L88.74,143.796c0.136,0.513,0.136,0.513-0.341,0.89
						L88.312,144.479z"/>
					
						<radialGradient id="SVGID_10_" cx="716.3535" cy="-2502.6187" r="32.047" gradientTransform="matrix(-0.8939 0.229 -0.2519 -0.7217 125.7716 -1841.4492)" gradientUnits="userSpaceOnUse">
						<stop  offset="0" style="stop-color:#19D900"/>
						<stop  offset="1" style="stop-color:#00DC30"/>
					</radialGradient>
					<path fill="url(#SVGID_10_)" d="M73.109,147.438c-0.191-0.467-0.211-0.039,0.381-0.172l92.422-20.373
						c0.592-0.131,1.484-0.774,1.678-0.312l0,0c0.193,0.465-0.13,0.946-0.721,1.078l-92.424,20.377
						C73.854,148.166,73.109,147.438,73.109,147.438z"/>
					
						<radialGradient id="SVGID_11_" cx="493.6387" cy="-2707.3008" r="40.5426" gradientTransform="matrix(-0.8338 0.1868 -0.1445 -0.6149 140.5717 -1618.4067)" gradientUnits="userSpaceOnUse">
						<stop  offset="0" style="stop-color:#19D900"/>
						<stop  offset="1" style="stop-color:#00DC30"/>
					</radialGradient>
					<path opacity="0.24" fill="url(#SVGID_11_)" enable-background="new    " d="M72.399,149.3
						c-0.074-0.321,0.292-0.678,0.815-0.797l93.67-21.124c0.521-0.115,1.009,0.048,1.08,0.37l0,0
						c0.071,0.321-0.295,0.678-0.815,0.796L73.48,149.669C72.955,149.786,72.473,149.622,72.399,149.3L72.399,149.3z"/>
					
						<radialGradient id="SVGID_12_" cx="515.9238" cy="-2736.1729" r="39.3521" gradientTransform="matrix(-0.8009 0.1795 -0.1445 -0.6149 132.5734 -1615.9894)" gradientUnits="userSpaceOnUse">
						<stop  offset="0" style="stop-color:#19D900"/>
						<stop  offset="1" style="stop-color:#00DC30"/>
					</radialGradient>
					<path opacity="0.24" fill="url(#SVGID_12_)" enable-background="new    " d="M70.211,169.195
						c-0.073-0.322,0.808-0.471,1.312-0.584l87.174-20.104c0.502-0.109,0.437-0.146,0.51,0.176l0,0
						c0.072,0.317-0.277,0.674-0.779,0.789l-87.174,20.1C70.752,169.686,70.284,169.52,70.211,169.195L70.211,169.195z"/>
					<path opacity="0.12" fill="#FFFFFF" enable-background="new    " d="M159.26,136.497l-86.686,17.317
						c-0.357,1.109-0.676,2.373-0.828,3.658c-0.195,1.623-0.197,3.438-0.123,5.07l86.102-20.146L159.26,136.497z"/>
					<path opacity="0.07" fill="#FFFFFF" enable-background="new    " d="M71.705,157.867c-0.427,4.29,0.382,9.673,0.382,9.673
						l84.14-19.37l1.82-7.007L71.705,157.867z"/>
					<path opacity="0.4" fill="#B1B5DE" enable-background="new    " d="M72.087,167.54c0,0-0.862-5.72-0.341-10.067
						c0.463-3.879,2.427-7.56,2.427-7.56l86.536-18.997l-4.482,17.254L72.087,167.54z"/>
				</g>
				
					<radialGradient id="SVGID_13_" cx="275.4824" cy="1359.7031" r="7.5438" gradientTransform="matrix(1.0116 0.0062 -0.006 0.9885 -198.2398 -1186.9235)" gradientUnits="userSpaceOnUse">
					<stop  offset="0" style="stop-color:#19D900"/>
					<stop  offset="1" style="stop-color:#00DC30"/>
				</radialGradient>
				<path opacity="0.24" fill="url(#SVGID_13_)" enable-background="new    " d="M71.523,168.611c0,0-1.265-4.43-0.568-8.979
					c0.88-5.741,3.429-10.778,3.429-10.778l-1.169-0.352c0,0-2.952,5.542-2.984,11.366c-0.027,5.067-0.02,9.325-0.02,9.325
					L71.523,168.611z"/>
			</g>
		</g>
	</g>
</g>
</svg>
