<?xml version="1.0" encoding="utf-8"?>
<!-- Generator: Adobe Illustrator 15.0.0, SVG Export Plug-In . SVG Version: 6.00 Build 0)  -->
<!DOCTYPE svg PUBLIC "-//W3C//DTD SVG 1.1//EN" "http://www.w3.org/Graphics/SVG/1.1/DTD/svg11.dtd">
<svg version="1.1" id="Layer_1" xmlns="http://www.w3.org/2000/svg" xmlns:xlink="http://www.w3.org/1999/xlink" x="0px" y="0px"
	 width="200px" height="200px" viewBox="0 0 200 200" enable-background="new 0 0 200 200" xml:space="preserve">
<g id="icon">
	<g id="Layer_2">
	</g>
	<g>
		<polygon fill="none" stroke="#FFFFFF" stroke-width="12" stroke-linejoin="round" stroke-miterlimit="10" points="133.335,42.415 
			150.579,30.679 182.434,107.318 156.327,120.251 		"/>
		
			<linearGradient id="SVGID_1_" gradientUnits="userSpaceOnUse" x1="315.0449" y1="-1238.3369" x2="290.2614" y2="-1246.8408" gradientTransform="matrix(1 0 0 -1 -250.0342 -1121.0723)">
			<stop  offset="0" style="stop-color:#A65200"/>
			<stop  offset="0.2081" style="stop-color:#A15000"/>
			<stop  offset="0.4536" style="stop-color:#934900"/>
			<stop  offset="0.7169" style="stop-color:#7B3D00"/>
			<stop  offset="0.8182" style="stop-color:#703800"/>
			<stop  offset="1" style="stop-color:#7F3F00"/>
		</linearGradient>
		<path fill="url(#SVGID_1_)" d="M152.734,117.616c-1.678-9.58-16.047-62.748-22.396-76.986c-0.066-0.801-2.52-5.004-3.145-6.029
			c-2.244-3.682-7.545-1.348-14.055,0.68c0,0-22.583,6.736-44.097,15.004C46.242,59.05,24.44,69.376,24.44,69.376
			c-3.423,1.674-5.861,4.025-6.594,6.473C14.48,83.072,41.96,158.21,44.587,161.9c2.723,3.813,9.643,4.979,15.457,2.602
			c0,0,22.094-10.35,45.687-9.643c17.963,0.539,32.771,5.463,38.979,0.539c5.209-4.131,3.228-11.336,1.797-16.351
			c-1.43-5.01-5.276-13.2-5.276-13.2l1.836-0.724C148.88,122.745,154.521,122.143,152.734,117.616z"/>
		
			<linearGradient id="SVGID_2_" gradientUnits="userSpaceOnUse" x1="326.6533" y1="-1278.0054" x2="340.6531" y2="-1203.0067" gradientTransform="matrix(1 0 0 -1 -250 -1121)">
			<stop  offset="0" style="stop-color:#703800"/>
			<stop  offset="1" style="stop-color:#703800;stop-opacity:0"/>
		</linearGradient>
		<path fill="url(#SVGID_2_)" d="M152.734,117.616c-1.678-9.58-16.047-62.748-22.396-76.986c-0.066-0.801-2.52-5.004-3.145-6.029
			c-2.244-3.682-7.209,2.844-13.719,4.871c0,0-21.625,5.451-43.135,13.721C47.541,61.957,26.6,72.798,26.6,72.798
			c-3.423,1.674-3.902,3.334-4.635,5.781c-3.369,7.223,21.883,75.205,24.512,78.894c2.721,3.819,7.935,4.883,13.75,2.5
			c0,0,20.908-9.457,44.5-8.75c17.963,0.538,31.543,5.422,37.75,0.5c5.209-4.132,0.457-7.785-0.972-12.796
			c-1.43-5.01-5.278-13.204-5.278-13.204l6.836-0.595C148.88,122.745,154.521,122.143,152.734,117.616z"/>
		
			<linearGradient id="SVGID_3_" gradientUnits="userSpaceOnUse" x1="333.1299" y1="-1170.6758" x2="337.7544" y2="-1260.5184" gradientTransform="matrix(1 0 0 -1 -250 -1121)">
			<stop  offset="0" style="stop-color:#A65200"/>
			<stop  offset="0.2544" style="stop-color:#A15000"/>
			<stop  offset="0.5544" style="stop-color:#934900"/>
			<stop  offset="0.8762" style="stop-color:#7B3D00"/>
			<stop  offset="1" style="stop-color:#703800"/>
		</linearGradient>
		<path fill="url(#SVGID_3_)" d="M147.943,123.845c-3.047,2.505-9.34,4.908-9.34,4.908s-15.508-45.145-19.58-52.211
			c0,0-9.979-7.705-41.312-4.598C48.737,74.817,37.12,82.171,37.12,82.171c-8.496,3.934-13.689,1.102-15.152-3.592l0.24,0.479
			c-1.557-1.916,0.315-5.576,5.574-8.148c0,0,21.117-9.473,42.564-17.717c20.23-7.777,40.863-14.354,40.863-14.354
			c5.654-2.172,11.678-4.598,13.652-1.453c0,0,6.26,14.66,11.826,33.289c6.707,22.447,12.934,49.576,12.934,49.576
			S150.146,122.032,147.943,123.845z"/>
		
			<linearGradient id="SVGID_4_" gradientUnits="userSpaceOnUse" x1="332.9629" y1="-1202.9775" x2="325.458" y2="-1159.8101" gradientTransform="matrix(1 0 0 -1 -250 -1121)">
			<stop  offset="0" style="stop-color:#A65200"/>
			<stop  offset="0.2373" style="stop-color:#A95702"/>
			<stop  offset="0.5171" style="stop-color:#B16508"/>
			<stop  offset="0.8172" style="stop-color:#BF7D12"/>
			<stop  offset="1" style="stop-color:#C98F1A"/>
		</linearGradient>
		<path fill="url(#SVGID_4_)" d="M27.648,74.747c0,0,21.118-9.475,42.564-17.719c20.23-7.775,40.862-14.352,40.862-14.352
			c5.654-2.174,11.678-4.598,13.654-1.455c0,0,5.213,12.713,10.774,31.342c6.705,22.445,12.938,49.576,12.938,49.576
			s0.147,0.533-0.064,1.312c1.691-1.668,1.244-3.201,1.244-3.201s-6.227-27.129-12.934-49.576
			c-5.566-18.629-11.826-33.289-11.826-33.289c-1.975-3.145-7.998-0.719-13.652,1.453c0,0-20.633,6.576-40.863,14.354
			c-21.447,8.244-42.564,17.717-42.564,17.717c-3.217,1.574-5.16,3.553-5.832,5.291C22.968,75.013,25.56,75.769,27.648,74.747z"/>
		
			<linearGradient id="SVGID_5_" gradientUnits="userSpaceOnUse" x1="369.5098" y1="-1196.542" x2="386.51" y2="-1168.5413" gradientTransform="matrix(1 0 0 -1 -250 -1121)">
			<stop  offset="0" style="stop-color:#629158"/>
			<stop  offset="0.1206" style="stop-color:#75A067"/>
			<stop  offset="0.3647" style="stop-color:#96BA80"/>
			<stop  offset="0.5985" style="stop-color:#AECD92"/>
			<stop  offset="0.8158" style="stop-color:#BCD89D"/>
			<stop  offset="1" style="stop-color:#C1DCA1"/>
		</linearGradient>
		<path fill="url(#SVGID_5_)" d="M68.371,68.579c0,0,14.057-5.133,25.147-12.035c21.154-13.162,29.638-25.506,29.638-25.506
			l42.751,59.275l-25.687,21.557l-13.83-34.308c0,0-3.727-6.683-11.484-8.892C108.979,66.984,98.912,63.526,68.371,68.579z"/>
		
			<linearGradient id="SVGID_6_" gradientUnits="userSpaceOnUse" x1="36.3115" y1="-1566.8564" x2="107.6787" y2="-1566.8564" gradientTransform="matrix(0.9922 -0.1248 -0.1248 -0.9922 -146.3486 -1468.4948)">
			<stop  offset="0" style="stop-color:#0F5700"/>
			<stop  offset="0.174" style="stop-color:#2D710E"/>
			<stop  offset="0.4032" style="stop-color:#4E8E1E"/>
			<stop  offset="0.6229" style="stop-color:#66A22A"/>
			<stop  offset="0.827" style="stop-color:#74AF31"/>
			<stop  offset="1" style="stop-color:#79B333"/>
		</linearGradient>
		<path fill="url(#SVGID_6_)" d="M83.321,66.483c0,0,5.7-1.235,16.5-8.585c17.318-11.786,22.445-18.127,22.445-18.127l36.297,53.034
			l-18.342,19.064l-13.83-34.307c0,0-3.236-5.793-10.391-8.677C110.072,67.199,102.188,64.5,83.321,66.483z"/>
		<path opacity="0.5" fill="#8DC63F" enable-background="new    " d="M91.457,59.009c21.154-13.162,31.699-25.637,31.699-25.637
			l41.701,57.822l1.05-0.881l-42.751-59.275c0,0-8.483,12.344-29.638,25.506c-11.091,6.902-25.147,12.035-25.147,12.035
			c3.81-0.82,5.196-1.338,8.358-1.857C81.269,64.667,86.642,62.005,91.457,59.009z"/>
		
			<linearGradient id="SVGID_7_" gradientUnits="userSpaceOnUse" x1="379.8506" y1="-1211.2114" x2="410.8522" y2="-1166.8755" gradientTransform="matrix(1 0 0 -1 -250 -1121)">
			<stop  offset="0" style="stop-color:#629158"/>
			<stop  offset="0.1206" style="stop-color:#75A067"/>
			<stop  offset="0.3647" style="stop-color:#96BA80"/>
			<stop  offset="0.5985" style="stop-color:#AECD92"/>
			<stop  offset="0.8158" style="stop-color:#BCD89D"/>
			<stop  offset="1" style="stop-color:#C1DCA1"/>
		</linearGradient>
		<path fill="url(#SVGID_7_)" d="M88.988,66.483c0,0,14.04-5.195,25.905-10.656c22.633-10.42,33.949-18.322,33.949-18.322
			l27.842,67.897l-31.545,16.185l-15.656-41.775c0,0-0.893-7.932-8.61-10.268C113.145,67.21,110.363,63.608,88.988,66.483z"/>
		
			<linearGradient id="SVGID_8_" gradientUnits="userSpaceOnUse" x1="380.373" y1="-1214.9951" x2="399.8513" y2="-1184.2402" gradientTransform="matrix(1 0 0 -1 -250 -1121)">
			<stop  offset="0" style="stop-color:#0F5700"/>
			<stop  offset="0.174" style="stop-color:#2D710E"/>
			<stop  offset="0.4032" style="stop-color:#4E8E1E"/>
			<stop  offset="0.6229" style="stop-color:#66A22A"/>
			<stop  offset="0.827" style="stop-color:#74AF31"/>
			<stop  offset="1" style="stop-color:#79B333"/>
		</linearGradient>
		<path fill="url(#SVGID_8_)" d="M103.048,65.758c0,0,7.166-1.232,19.031-6.693c22.633-10.42,25.045-12.952,25.045-12.952
			l23.03,56.452l-27.529,15.602l-14.559-36.44c0,0-3.254-7.597-10.323-11.786C111.875,67.438,113.145,67.21,103.048,65.758z"/>
		<path opacity="0.5" fill="#8DC63F" enable-background="new    " d="M114.229,57.827c22.633-10.42,33.948-18.322,33.948-18.322
			l27.279,66.527l1.229-0.63L148.84,37.505c0,0-11.312,7.902-33.945,18.322c-11.865,5.461-21.491,9.017-21.491,9.017l-4.418,1.639
			C96.44,64.492,108.023,60.683,114.229,57.827z"/>
		
			<linearGradient id="SVGID_9_" gradientUnits="userSpaceOnUse" x1="299.3535" y1="-1190.7148" x2="282.861" y2="-1196.3741" gradientTransform="matrix(1 0 0 -1 -250 -1121)">
			<stop  offset="0" style="stop-color:#A65200"/>
			<stop  offset="0.2081" style="stop-color:#A15000"/>
			<stop  offset="0.4536" style="stop-color:#934900"/>
			<stop  offset="0.7169" style="stop-color:#7B3D00"/>
			<stop  offset="0.8182" style="stop-color:#703800"/>
			<stop  offset="1" style="stop-color:#7F3F00"/>
		</linearGradient>
		<path fill="url(#SVGID_9_)" d="M33.345,79.024c0,0-7.225,1.162-5.822-2.832c1.403-3.994,28.007-12.588,38.234-16.363
			c10.229-3.777,37.291-11.959,37.291-11.959s-8.023,9.912-28.322,17.309C54.429,72.573,33.345,79.024,33.345,79.024z"/>
		
			<linearGradient id="SVGID_10_" gradientUnits="userSpaceOnUse" x1="333.1025" y1="-1238.585" x2="342.3072" y2="-1175.8043" gradientTransform="matrix(1 0 0 -1 -250 -1121)">
			<stop  offset="0" style="stop-color:#A65200"/>
			<stop  offset="0.2373" style="stop-color:#A95702"/>
			<stop  offset="0.5171" style="stop-color:#B16508"/>
			<stop  offset="0.8172" style="stop-color:#BF7D12"/>
			<stop  offset="1" style="stop-color:#C98F1A"/>
		</linearGradient>
		<path fill="url(#SVGID_10_)" d="M119.688,78.159c-2.336-4.67-14.478-9.941-36.106-9.205c-10.633,0.361-12.619,0.998-29.848,5.602
			c-7.436,1.984-12.365,5.338-14.834,5.832c-3.428,0.686-7.637,3.457-9.833,2c0.089,0.268-2.348-1.057-2.167-0.832l0.834,1.166
			c2.832,3.186,10.086-0.305,15.74-2.479c0,0,9.344-4.736,29.03-6.727c35.05-3.539,45.562,6.205,45.562,6.205
			c4.069,7.064,19.093,49.771,19.093,49.771l4.366,9.086C137.036,124.184,121.718,82.22,119.688,78.159z"/>
		
			<linearGradient id="SVGID_11_" gradientUnits="userSpaceOnUse" x1="382.2969" y1="-1232.8276" x2="403.0613" y2="-1227.3065" gradientTransform="matrix(1 0 0 -1 -250 -1121)">
			<stop  offset="0" style="stop-color:#A65200"/>
			<stop  offset="0.2937" style="stop-color:#A15000"/>
			<stop  offset="0.64" style="stop-color:#934900"/>
			<stop  offset="1" style="stop-color:#7C3E00"/>
		</linearGradient>
		<path fill="url(#SVGID_11_)" d="M123.818,100.345c0,0,9.438-0.236,15.104,0.236c5.666,0.474,11.684,3.541,13.336,11.801
			c1.363,6.812-4.721,9.795-8.615,9.912c-2.238,0.067-12.271,0.236-12.271,0.236L123.818,100.345z"/>
		
			<linearGradient id="SVGID_12_" gradientUnits="userSpaceOnUse" x1="383.3506" y1="-1318.248" x2="389.351" y2="-1205.579" gradientTransform="matrix(1 0 0 -1 -250 -1121)">
			<stop  offset="0" style="stop-color:#703800"/>
			<stop  offset="1" style="stop-color:#703800;stop-opacity:0"/>
		</linearGradient>
		<path fill="url(#SVGID_12_)" d="M123.818,100.345c0,0,9.438-0.236,15.104,0.236c5.666,0.474,11.684,3.541,13.336,11.801
			c1.363,6.812-4.721,9.795-8.615,9.912c-2.238,0.067-12.271,0.236-12.271,0.236L123.818,100.345z"/>
		
			<linearGradient id="SVGID_13_" gradientUnits="userSpaceOnUse" x1="386.8096" y1="-1232.9937" x2="394.4788" y2="-1222.4899" gradientTransform="matrix(1 0 0 -1 -250 -1121)">
			<stop  offset="0" style="stop-color:#A65200"/>
			<stop  offset="0.2373" style="stop-color:#A95702"/>
			<stop  offset="0.5171" style="stop-color:#B16508"/>
			<stop  offset="0.8172" style="stop-color:#BF7D12"/>
			<stop  offset="1" style="stop-color:#C98F1A"/>
		</linearGradient>
		<path fill="url(#SVGID_13_)" d="M138.423,102.081c5.666,0.474,11.685,3.541,13.336,11.801c0.257,1.283,0.248,2.431,0.041,3.447
			c0.613-1.351,0.853-2.984,0.459-4.947c-1.651-8.26-7.67-11.327-13.336-11.801c-5.664-0.473-12.526-0.193-12.526-0.193l0.504,1.48
			C129.473,101.823,133.872,101.702,138.423,102.081z"/>
		
			<linearGradient id="SVGID_14_" gradientUnits="userSpaceOnUse" x1="386.1328" y1="-1232.519" x2="395.7266" y2="-1232.519" gradientTransform="matrix(1 0 0 -1 -250 -1121)">
			<stop  offset="0.5951" style="stop-color:#D67300"/>
			<stop  offset="0.6625" style="stop-color:#DE8F00"/>
			<stop  offset="0.7501" style="stop-color:#E7AD00"/>
			<stop  offset="0.8367" style="stop-color:#EDC200"/>
			<stop  offset="0.9209" style="stop-color:#F1CF00"/>
			<stop  offset="1" style="stop-color:#F2D300"/>
		</linearGradient>
		<path fill="url(#SVGID_14_)" d="M145.575,111.427c0.657,2.938-0.888,5.359-3.451,5.408c-2.565,0.049-5.183-2.293-5.84-5.229
			c-0.658-2.938,0.887-5.354,3.452-5.402C142.302,106.146,144.917,108.489,145.575,111.427z"/>
		
			<linearGradient id="SVGID_15_" gradientUnits="userSpaceOnUse" x1="384.626" y1="-1233.8428" x2="394.2197" y2="-1233.8428" gradientTransform="matrix(1 0 0 -1 -250 -1121)">
			<stop  offset="0.4785" style="stop-color:#FFFF00"/>
			<stop  offset="0.4954" style="stop-color:#FDF700"/>
			<stop  offset="0.5216" style="stop-color:#F6E100"/>
			<stop  offset="0.5539" style="stop-color:#ECBD00"/>
			<stop  offset="0.5908" style="stop-color:#DD8C00"/>
			<stop  offset="0.6074" style="stop-color:#D67300"/>
			<stop  offset="0.6727" style="stop-color:#DE8F00"/>
			<stop  offset="0.7577" style="stop-color:#E7AD00"/>
			<stop  offset="0.8416" style="stop-color:#EDC200"/>
			<stop  offset="0.9233" style="stop-color:#F1CF00"/>
			<stop  offset="1" style="stop-color:#F2D300"/>
		</linearGradient>
		<path fill="url(#SVGID_15_)" d="M144.068,112.753c0.658,2.938-0.887,5.358-3.451,5.408c-2.566,0.049-5.182-2.291-5.84-5.229
			c-0.658-2.938,0.887-5.354,3.453-5.408C140.795,107.477,143.41,109.814,144.068,112.753z"/>
		
			<linearGradient id="SVGID_16_" gradientUnits="userSpaceOnUse" x1="392.96" y1="-1186.9702" x2="411.9021" y2="-1110.8024" gradientTransform="matrix(1 0 0 -1 -250 -1121)">
			<stop  offset="0" style="stop-color:#0F5700"/>
			<stop  offset="0.174" style="stop-color:#2D710E"/>
			<stop  offset="0.4032" style="stop-color:#4E8E1E"/>
			<stop  offset="0.6229" style="stop-color:#66A22A"/>
			<stop  offset="0.827" style="stop-color:#74AF31"/>
			<stop  offset="1" style="stop-color:#79B333"/>
		</linearGradient>
		<path opacity="0.56" fill="url(#SVGID_16_)" enable-background="new    " d="M144.182,48.185l-2.354,1.061
			c0,0,0.232,2.707-0.473,4.475c-0.707,1.766-0.707,1.766-0.707,1.766l1.768,1.295l1.178-1.766l1.855,4.916l-1.018,0.662
			l0.659,1.281l4.64-1.855l-0.484-1.324l-0.842,0.176L144.182,48.185z"/>
		
			<linearGradient id="SVGID_17_" gradientUnits="userSpaceOnUse" x1="-5440.9775" y1="3359.5195" x2="-5422.0352" y2="3435.6873" gradientTransform="matrix(-0.997 0.0776 0.0776 0.997 -5520.4956 -2838.6606)">
			<stop  offset="0" style="stop-color:#0F5700"/>
			<stop  offset="0.174" style="stop-color:#2D710E"/>
			<stop  offset="0.4032" style="stop-color:#4E8E1E"/>
			<stop  offset="0.6229" style="stop-color:#66A22A"/>
			<stop  offset="0.827" style="stop-color:#74AF31"/>
			<stop  offset="1" style="stop-color:#79B333"/>
		</linearGradient>
		<path opacity="0.56" fill="url(#SVGID_17_)" enable-background="new    " d="M165.018,106.382l2.27-1.237
			c0,0-0.445-2.685,0.117-4.498c0.568-1.812,0.568-1.812,0.568-1.812l-1.861-1.154l-1.033,1.854l-2.229-4.758l0.961-0.74
			l-0.765-1.225l-4.479,2.209l0.588,1.283l0.822-0.242L165.018,106.382z"/>
		
			<linearGradient id="SVGID_18_" gradientUnits="userSpaceOnUse" x1="371.166" y1="-1174.4946" x2="383.7758" y2="-1123.79" gradientTransform="matrix(1 0 0 -1 -250 -1121)">
			<stop  offset="0" style="stop-color:#0F5700"/>
			<stop  offset="0.174" style="stop-color:#2D710E"/>
			<stop  offset="0.4032" style="stop-color:#4E8E1E"/>
			<stop  offset="0.6229" style="stop-color:#66A22A"/>
			<stop  offset="0.827" style="stop-color:#74AF31"/>
			<stop  offset="1" style="stop-color:#79B333"/>
		</linearGradient>
		<path opacity="0.23" fill="url(#SVGID_18_)" enable-background="new    " d="M120.607,48.024c-0.27,1.975-0.27,1.975-0.27,1.975
			l1.354,0.549c0.336-0.201,0.719-0.43,1.127-0.678l0.393-1.104l0.426,0.607c0.824-0.506,1.75-1.082,2.732-1.709l-4.312-5.988
			l-2.121,1.682C119.938,43.358,120.872,46.048,120.607,48.024z"/>
		
			<linearGradient id="SVGID_19_" gradientUnits="userSpaceOnUse" x1="380.7373" y1="-1224.0117" x2="412.9447" y2="-1094.5034" gradientTransform="matrix(1 0 0 -1 -250 -1121)">
			<stop  offset="0" style="stop-color:#0F5700"/>
			<stop  offset="0.174" style="stop-color:#2D710E"/>
			<stop  offset="0.4032" style="stop-color:#4E8E1E"/>
			<stop  offset="0.6229" style="stop-color:#66A22A"/>
			<stop  offset="0.827" style="stop-color:#74AF31"/>
			<stop  offset="1" style="stop-color:#79B333"/>
		</linearGradient>
		<path opacity="0.56" fill="url(#SVGID_19_)" enable-background="new    " d="M127.107,74.636
			c0.97,1.938,4.566,11.355,8.478,21.719c1.588,0.041,3.229,0.107,4.754,0.215c2.183,0.152,4.149,0.623,5.92,1.363
			c0.22-2.469,0.062-5.094-0.561-7.791c-2.605-11.279-12.095-19.477-21.386-18.621C125.695,72.628,126.643,73.704,127.107,74.636z"
			/>
	</g>
</g>
</svg>
