<?xml version="1.0" encoding="utf-8"?>
<!-- Generator: Adobe Illustrator 15.0.0, SVG Export Plug-In . SVG Version: 6.00 Build 0)  -->
<!DOCTYPE svg PUBLIC "-//W3C//DTD SVG 1.1//EN" "http://www.w3.org/Graphics/SVG/1.1/DTD/svg11.dtd">
<svg version="1.1" id="Layer_1" xmlns="http://www.w3.org/2000/svg" xmlns:xlink="http://www.w3.org/1999/xlink" x="0px" y="0px"
	 width="200px" height="200px" viewBox="0 0 200 200" enable-background="new 0 0 200 200" xml:space="preserve">
<g id="icon">
	<g id="Layer_2">
	</g>
	<g id="Layer_1_1_">
		<g>
			<g>
				
					<linearGradient id="SVGID_1_" gradientUnits="userSpaceOnUse" x1="318.5049" y1="-510.5713" x2="226.9211" y2="-652.2158" gradientTransform="matrix(1 0 0 -1 -150 -530)">
					<stop  offset="0.4848" style="stop-color:#FFFF00"/>
					<stop  offset="0.5273" style="stop-color:#FDF800"/>
					<stop  offset="0.6881" style="stop-color:#F7E400"/>
					<stop  offset="0.8468" style="stop-color:#F3D700"/>
					<stop  offset="1" style="stop-color:#F2D300"/>
				</linearGradient>
				<path fill="url(#SVGID_1_)" d="M120.436,52.49c2.64-1.049,5.662-0.439,8.086,1.307l40.859,28.916l-91.209,42.215l-47.938-34
					C30.234,90.928,111.287,56.141,120.436,52.49z"/>
				
					<linearGradient id="SVGID_2_" gradientUnits="userSpaceOnUse" x1="130.7256" y1="-657.9551" x2="211.1371" y2="-662.4204" gradientTransform="matrix(1 0 0 -1 -150.0498 -530.1562)">
					<stop  offset="0.4485" style="stop-color:#FFFF00"/>
					<stop  offset="0.4677" style="stop-color:#FDF700"/>
					<stop  offset="0.4975" style="stop-color:#F6E100"/>
					<stop  offset="0.5343" style="stop-color:#ECBD00"/>
					<stop  offset="0.5762" style="stop-color:#DD8C00"/>
					<stop  offset="0.5951" style="stop-color:#D67300"/>
					<stop  offset="0.6625" style="stop-color:#DE8F00"/>
					<stop  offset="0.7501" style="stop-color:#E7AD00"/>
					<stop  offset="0.8367" style="stop-color:#EDC200"/>
					<stop  offset="0.9209" style="stop-color:#F1CF00"/>
					<stop  offset="1" style="stop-color:#F2D300"/>
				</linearGradient>
				<path fill="url(#SVGID_2_)" d="M30.234,90.928l1.604,30.939l-1.754,0.848l0.311,4.803c0.381,4.299,0.34,4.986,2.844,7.236
					c12.168,11.098,27.691,23.393,40.742,35.828c2.99,2.891,5.016,3.387,5.016,3.387l-0.824-49.041l-45.6-32.535
					C32.572,92.393,30.068,87.848,30.234,90.928z"/>
				
					<linearGradient id="SVGID_3_" gradientUnits="userSpaceOnUse" x1="259.6602" y1="-616.5557" x2="284.019" y2="-687.2344" gradientTransform="matrix(1 0 0 -1 -149.9087 -530.1113)">
					<stop  offset="0" style="stop-color:#FFFF00"/>
					<stop  offset="0.1442" style="stop-color:#F4DA00"/>
					<stop  offset="0.3186" style="stop-color:#E9B500"/>
					<stop  offset="0.4933" style="stop-color:#E19800"/>
					<stop  offset="0.666" style="stop-color:#DB8400"/>
					<stop  offset="0.836" style="stop-color:#D77700"/>
					<stop  offset="1" style="stop-color:#D67300"/>
				</linearGradient>
				<path fill="url(#SVGID_3_)" d="M166.885,117.893l1.76,1.461c-0.098,2.088-0.17,3.789-0.199,4.894
					c-0.104,3.752-0.512,6.239-2.823,7.412c-8.457,4.286-74.115,36.739-82.705,41.312c-2.574,1.375-3.918,1-3.918,1l-0.824-49.041
					l91.209-42.215L166.885,117.893z"/>
				
					<linearGradient id="SVGID_4_" gradientUnits="userSpaceOnUse" x1="219.6074" y1="-677.1074" x2="235.3268" y2="-677.1802" gradientTransform="matrix(1 0 0 -1 -150 -530)">
					<stop  offset="0" style="stop-color:#FFA800;stop-opacity:0"/>
					<stop  offset="0.5212" style="stop-color:#FFFF00;stop-opacity:0.62"/>
					<stop  offset="0.5384" style="stop-color:#FFFA00;stop-opacity:0.5978"/>
					<stop  offset="0.6562" style="stop-color:#FFDD00;stop-opacity:0.4452"/>
					<stop  offset="0.7733" style="stop-color:#FFC900;stop-opacity:0.2935"/>
					<stop  offset="0.8887" style="stop-color:#FFBC00;stop-opacity:0.1442"/>
					<stop  offset="1" style="stop-color:#FFB800;stop-opacity:0"/>
				</linearGradient>
				<path fill="url(#SVGID_4_)" d="M74.184,170.465c0,0,2.32,2.629,4.863,3.02c2.639,0.402,5.518-1.438,5.518-1.438l-0.969-49.396
					l-5.424,2.279l-4.979-4.193L74.184,170.465z"/>
				
					<linearGradient id="SVGID_5_" gradientUnits="userSpaceOnUse" x1="229.4395" y1="-619.9741" x2="239.2821" y2="-615.1729" gradientTransform="matrix(1 0 0 -1 -150 -530)">
					<stop  offset="0" style="stop-color:#FFFF00"/>
					<stop  offset="0.1442" style="stop-color:#F4DA00"/>
					<stop  offset="0.3186" style="stop-color:#E9B500"/>
					<stop  offset="0.4933" style="stop-color:#E19800"/>
					<stop  offset="0.666" style="stop-color:#DB8400"/>
					<stop  offset="0.836" style="stop-color:#D77700"/>
					<stop  offset="1" style="stop-color:#D67300"/>
				</linearGradient>
				<path fill="url(#SVGID_5_)" d="M172.127,82.252c1.164-21.061-9.441-44.951-23.852-53.344
					c-5.451-3.143-10.404-2.986-14.937-1.984c-19.142,4.238-28.155,31.881-28.155,31.881L172.127,82.252z"/>
				
					<linearGradient id="SVGID_6_" gradientUnits="userSpaceOnUse" x1="251.5684" y1="-586.8926" x2="265.0998" y2="-618.2624" gradientTransform="matrix(1 0 0 -1 -150 -530)">
					<stop  offset="0" style="stop-color:#A65200"/>
					<stop  offset="0.2081" style="stop-color:#A15000"/>
					<stop  offset="0.4536" style="stop-color:#934900"/>
					<stop  offset="0.7169" style="stop-color:#7B3D00"/>
					<stop  offset="0.8182" style="stop-color:#703800"/>
					<stop  offset="1" style="stop-color:#7F3F00"/>
				</linearGradient>
				<path fill="url(#SVGID_6_)" d="M169.723,81.98c1.082-20.297-9.17-43.322-23.057-51.41c-5.25-3.029-10.211-3.535-14.377-1.918
					C128.824,30,39.611,62.756,39.611,62.756l39.449,58.777L169.723,81.98z"/>
				
					<linearGradient id="SVGID_7_" gradientUnits="userSpaceOnUse" x1="133.3516" y1="-265.3027" x2="210.0688" y2="-269.563" gradientTransform="matrix(1 0.5598 0 -1 -150 -296.3652)">
					<stop  offset="0.4485" style="stop-color:#FFFF00"/>
					<stop  offset="0.4677" style="stop-color:#FDF700"/>
					<stop  offset="0.4975" style="stop-color:#F6E100"/>
					<stop  offset="0.5343" style="stop-color:#ECBD00"/>
					<stop  offset="0.5762" style="stop-color:#DD8C00"/>
					<stop  offset="0.5951" style="stop-color:#D67300"/>
					<stop  offset="0.6625" style="stop-color:#DE8F00"/>
					<stop  offset="0.7501" style="stop-color:#E7AD00"/>
					<stop  offset="0.8367" style="stop-color:#EDC200"/>
					<stop  offset="0.9209" style="stop-color:#F1CF00"/>
					<stop  offset="1" style="stop-color:#F2D300"/>
				</linearGradient>
				<path fill="url(#SVGID_7_)" d="M78.123,123.281c-0.4-23.24-12.109-49.643-26.328-58.949
					c-14.416-9.281-25.199,1.967-23.904,25.102L78.123,123.281z"/>
				
					<linearGradient id="SVGID_8_" gradientUnits="userSpaceOnUse" x1="159.7568" y1="-215.5625" x2="205.4585" y2="-218.1004" gradientTransform="matrix(1 0.6425 0 -1 -150 -262.1547)">
					<stop  offset="0" style="stop-color:#A65200"/>
					<stop  offset="0.2081" style="stop-color:#A15000"/>
					<stop  offset="0.4536" style="stop-color:#934900"/>
					<stop  offset="0.7169" style="stop-color:#7B3D00"/>
					<stop  offset="0.8182" style="stop-color:#703800"/>
					<stop  offset="1" style="stop-color:#7F3F00"/>
				</linearGradient>
				<path fill="url(#SVGID_8_)" d="M66.338,106.021c-0.324-12.333-7.361-26.906-15.785-32.542
					c-8.494-5.625-14.939-0.209-14.334,12.094L66.338,106.021z"/>
				
					<linearGradient id="SVGID_9_" gradientUnits="userSpaceOnUse" x1="263.6309" y1="-621.4902" x2="281.5053" y2="-673.3542" gradientTransform="matrix(1 0 0 -1 -150 -530)">
					<stop  offset="0" style="stop-color:#A65200"/>
					<stop  offset="0.2081" style="stop-color:#A15000"/>
					<stop  offset="0.4536" style="stop-color:#934900"/>
					<stop  offset="0.7169" style="stop-color:#7B3D00"/>
					<stop  offset="0.8182" style="stop-color:#703800"/>
					<stop  offset="1" style="stop-color:#7F3F00"/>
				</linearGradient>
				<polygon fill="url(#SVGID_9_)" points="164.018,118.627 82.004,159.209 81.488,123.723 166.562,85.592 				"/>
				
					<linearGradient id="SVGID_10_" gradientUnits="userSpaceOnUse" x1="185.9619" y1="-599.1343" x2="218.528" y2="-693.6268" gradientTransform="matrix(1 0 0 -1 -150 -530)">
					<stop  offset="0" style="stop-color:#A65200"/>
					<stop  offset="0.2081" style="stop-color:#A15000"/>
					<stop  offset="0.4536" style="stop-color:#934900"/>
					<stop  offset="0.7169" style="stop-color:#7B3D00"/>
					<stop  offset="0.8182" style="stop-color:#703800"/>
					<stop  offset="1" style="stop-color:#7F3F00"/>
				</linearGradient>
				<polygon fill="url(#SVGID_10_)" points="33.961,123.33 76.105,158.812 75.422,123.637 32.357,92.865 				"/>
				
					<linearGradient id="SVGID_11_" gradientUnits="userSpaceOnUse" x1="248.8779" y1="-577.4155" x2="273.487" y2="-631.4589" gradientTransform="matrix(1 0 0 -1 -150 -530)">
					<stop  offset="0.4785" style="stop-color:#FFFF00"/>
					<stop  offset="0.4954" style="stop-color:#FDF700"/>
					<stop  offset="0.5216" style="stop-color:#F6E100"/>
					<stop  offset="0.5539" style="stop-color:#ECBD00"/>
					<stop  offset="0.5908" style="stop-color:#DD8C00"/>
					<stop  offset="0.6074" style="stop-color:#D67300"/>
					<stop  offset="0.6727" style="stop-color:#DE8F00"/>
					<stop  offset="0.7577" style="stop-color:#E7AD00"/>
					<stop  offset="0.8416" style="stop-color:#EDC200"/>
					<stop  offset="0.9233" style="stop-color:#F1CF00"/>
					<stop  offset="1" style="stop-color:#F2D300"/>
				</linearGradient>
				<path fill="url(#SVGID_11_)" d="M172.127,82.252c1.164-21.061-9.441-44.951-23.852-53.344c-3.438-1.982-6.758-2.922-9.83-2.924
					c-1.799,0-3.508,0.318-5.104,0.939c-0.7,0.271-6.442,2.355-6.442,2.355c9.748-1.91,32.149,9.459,35.162,45.756L87.376,106.72
					c-1.428-7.66-3.74-15.35-6.883-22.574C74.68,70.99,65.23,56.246,53.516,56.207c0,0-10.543,3.924-13.889,5.172
					c0.855-0.201,1.742-0.305,2.664-0.303c2.902,0.012,6.111,1.059,9.504,3.256c14.219,9.307,25.928,35.709,26.328,58.949
					l4.428-1.977l0,0L172.127,82.252z"/>
				<polygon opacity="0.54" fill="#582B20" enable-background="new    " points="84.18,93.957 156.871,63.785 84.727,95.73 				"/>
				<polygon opacity="0.31" fill="#582B20" enable-background="new    " points="81.58,130.029 164.949,92.822 82.211,132.23 				
					"/>
				<polygon opacity="0.54" fill="#582B20" enable-background="new    " points="156.791,52.594 83.434,82.227 156.357,51.545 				
					"/>
				<polygon opacity="0.31" fill="#582B20" enable-background="new    " points="164.365,104.48 81.771,143.256 163.893,103.09 				
					"/>
				<polygon opacity="0.47" fill="#582B20" enable-background="new    " points="145.945,37.031 70.039,64.906 145.236,36.523 				
					"/>
				<polygon opacity="0.45" fill="#582B20" enable-background="new    " points="75.361,73.645 149.475,44.65 75.074,73.098 				"/>
				<polygon opacity="0.45" fill="#582B20" enable-background="new    " points="82.877,151.662 163.939,112.955 82.566,150.92 				
					"/>
				<polygon opacity="0.31" fill="#582B20" enable-background="new    " points="75.02,130.139 32.754,99.648 74.756,131.891 				
					"/>
				<polygon opacity="0.31" fill="#582B20" enable-background="new    " points="64.338,94.428 37.799,76.99 64.176,95.432 				"/>
				<polygon opacity="0.31" fill="#582B20" enable-background="new    " points="33.264,109.346 75.24,141.199 33.477,108.254 				
					"/>
				<polygon opacity="0.45" fill="#582B20" enable-background="new    " points="74.924,150.008 33.727,118.141 75.061,149.42 				
					"/>
				<polygon opacity="0.47" fill="#582B20" enable-background="new    " points="63.314,59.678 137.34,31.822 63.057,59.502 				"/>
				<polygon opacity="0.47" fill="#582B20" enable-background="new    " points="59.518,57.445 133.588,29.586 59.26,57.271 				"/>
				<path opacity="0.31" fill="#582B20" enable-background="new    " d="M134.012,112.092c2.125-3.35,3.498-7.229,3.604-10.846
					c0.116-3.953-1.324-6.766-3.689-8.037c-1.725-3.635-5.657-4.885-10.311-2.711c-6.363,2.986-11.56,11.273-11.628,18.514
					c-0.038,3.941,1.433,6.752,3.773,8.025c0.029,0.062,0.062,0.123,0.094,0.186l-4.166,17.986l1.761,1.957l24.748-12.021
					L134.012,112.092z"/>
				
					<linearGradient id="SVGID_12_" gradientUnits="userSpaceOnUse" x1="283.6426" y1="-622.6084" x2="272.6936" y2="-633.2802" gradientTransform="matrix(1 0 0 -1 -150 -530)">
					<stop  offset="0.4785" style="stop-color:#FFFF00"/>
					<stop  offset="0.4954" style="stop-color:#FDF700"/>
					<stop  offset="0.5216" style="stop-color:#F6E100"/>
					<stop  offset="0.5539" style="stop-color:#ECBD00"/>
					<stop  offset="0.5908" style="stop-color:#DD8C00"/>
					<stop  offset="0.6074" style="stop-color:#D67300"/>
					<stop  offset="0.6727" style="stop-color:#DE8F00"/>
					<stop  offset="0.7577" style="stop-color:#E7AD00"/>
					<stop  offset="0.8416" style="stop-color:#EDC200"/>
					<stop  offset="0.9233" style="stop-color:#F1CF00"/>
					<stop  offset="1" style="stop-color:#F2D300"/>
				</linearGradient>
				<path fill="url(#SVGID_12_)" d="M136.797,95.373c-0.209,7.256-5.492,15.555-11.777,18.529
					c-6.254,2.975-11.235-0.49-11.158-7.732c0.078-7.242,5.3-15.531,11.683-18.518C131.953,84.66,137.004,88.113,136.797,95.373z"/>
				
					<linearGradient id="SVGID_13_" gradientUnits="userSpaceOnUse" x1="254.2988" y1="-903.2739" x2="285.4641" y2="-886.3287" gradientTransform="matrix(1 -0.4178 0 -1 -150 -670.4064)">
					<stop  offset="0" style="stop-color:#FFFF00"/>
					<stop  offset="0.1442" style="stop-color:#F4DA00"/>
					<stop  offset="0.3186" style="stop-color:#E9B500"/>
					<stop  offset="0.4933" style="stop-color:#E19800"/>
					<stop  offset="0.666" style="stop-color:#DB8400"/>
					<stop  offset="0.836" style="stop-color:#D77700"/>
					<stop  offset="1" style="stop-color:#D67300"/>
				</linearGradient>
				<path fill="url(#SVGID_13_)" d="M139.557,98.396c-0.225,7.258-5.516,15.557-11.791,18.531
					c-6.248,2.974-11.213-0.491-11.117-7.735c0.099-7.242,5.32-15.538,11.695-18.521C134.748,87.68,139.781,91.137,139.557,98.396z"
					/>
				
					<linearGradient id="SVGID_14_" gradientUnits="userSpaceOnUse" x1="262.3916" y1="-932.416" x2="291.0895" y2="-916.812" gradientTransform="matrix(1 -0.4472 0 -1 -150 -678.9409)">
					<stop  offset="0" style="stop-color:#FFFF00"/>
					<stop  offset="0.1442" style="stop-color:#F4DA00"/>
					<stop  offset="0.3186" style="stop-color:#E9B500"/>
					<stop  offset="0.4933" style="stop-color:#E19800"/>
					<stop  offset="0.666" style="stop-color:#DB8400"/>
					<stop  offset="0.836" style="stop-color:#D77700"/>
					<stop  offset="1" style="stop-color:#D67300"/>
				</linearGradient>
				<polygon fill="url(#SVGID_14_)" points="140.105,122.299 115.285,134.33 119.615,115.35 135.5,107.918 				"/>
				<path fill="#231F20" d="M121.494,107.805c-0.551,4.359,3.547,4.998,3.547,4.998l-1.246,4.773l-1.936,8.318l12.606-6.095
					l-2.67-8.682l-0.312-0.949l2.074-3.069c1.727-2.709,1.854-5.759,1.922-8.333c0.053-1.818-0.871-4.391-2.822-4.404
					c-0.695-0.004-1.537,0.215-2.438,0.637C125.527,97.203,122.172,102.465,121.494,107.805z"/>
				<path opacity="0.31" fill="#582B20" enable-background="new    " d="M58.652,114.189c-0.385-0.457-1.018-0.551-1.412-0.205
					c-0.395,0.344-0.402,0.99-0.018,1.447c3.281,3.899,5.301,8.518,5.414,12.338c0.076,2.59-0.746,4.52-2.316,5.43
					c-1.812,1.057-4.527,0.699-7.455-0.977c-6.061-3.455-11.246-11.275-11.531-17.438c-0.107-2.31,0.504-4.062,1.77-5.08
					c1.143-0.918,2.748-1.166,4.654-0.744l-0.084-2.065c-2.354-0.461-4.445-0.08-5.939,1.119c-1.711,1.37-2.541,3.646-2.4,6.577
					c0.33,6.888,6.078,15.595,12.777,19.414c1.812,1.039,3.582,1.646,5.195,1.812c1.553,0.158,2.963-0.099,4.127-0.775
					c2.141-1.244,3.271-3.756,3.178-7.072C64.49,123.645,62.27,118.494,58.652,114.189z"/>
				
					<linearGradient id="SVGID_15_" gradientUnits="userSpaceOnUse" x1="260.1865" y1="-925.7466" x2="273.5999" y2="-918.4535" gradientTransform="matrix(1 -0.4472 0 -1 -150 -678.9409)">
					<stop  offset="0" style="stop-color:#FFFF00"/>
					<stop  offset="0.1442" style="stop-color:#F4DA00"/>
					<stop  offset="0.3186" style="stop-color:#E9B500"/>
					<stop  offset="0.4933" style="stop-color:#E19800"/>
					<stop  offset="0.666" style="stop-color:#DB8400"/>
					<stop  offset="0.836" style="stop-color:#D77700"/>
					<stop  offset="1" style="stop-color:#D67300"/>
				</linearGradient>
				<polygon fill="url(#SVGID_15_)" points="113.523,132.371 115.285,134.33 119.615,115.35 117.826,113.951 				"/>
				
					<linearGradient id="SVGID_16_" gradientUnits="userSpaceOnUse" x1="71.7769" y1="-284.9932" x2="72.0652" y2="-294.6132" gradientTransform="matrix(1.1991 0.9327 -0.0379 -0.8635 -45.513 -206.6177)">
					<stop  offset="0.4485" style="stop-color:#FFFF00"/>
					<stop  offset="0.4677" style="stop-color:#FDF700"/>
					<stop  offset="0.4975" style="stop-color:#F6E100"/>
					<stop  offset="0.5343" style="stop-color:#ECBD00"/>
					<stop  offset="0.5762" style="stop-color:#DD8C00"/>
					<stop  offset="0.5951" style="stop-color:#D67300"/>
					<stop  offset="0.6625" style="stop-color:#DE8F00"/>
					<stop  offset="0.7501" style="stop-color:#E7AD00"/>
					<stop  offset="0.8367" style="stop-color:#EDC200"/>
					<stop  offset="0.9209" style="stop-color:#F1CF00"/>
					<stop  offset="1" style="stop-color:#F2D300"/>
				</linearGradient>
				<path fill="url(#SVGID_16_)" d="M54.674,113.576c0.139,3.877,2.705,5.346,2.705,5.346l-8.461-6.393c0,0-2.752-1.273-2.898-4.729
					c-0.188-2.213,2.211-3.562,2.211-3.562l8.883,5.854C57.113,110.096,54.604,111.338,54.674,113.576z"/>
				
					<linearGradient id="SVGID_17_" gradientUnits="userSpaceOnUse" x1="75.416" y1="-284.8745" x2="75.7017" y2="-294.4082" gradientTransform="matrix(1.1991 0.9327 -0.0379 -0.8635 -45.513 -206.6177)">
					<stop  offset="0" style="stop-color:#FFFF00"/>
					<stop  offset="0.1442" style="stop-color:#F4DA00"/>
					<stop  offset="0.3186" style="stop-color:#E9B500"/>
					<stop  offset="0.4933" style="stop-color:#E19800"/>
					<stop  offset="0.666" style="stop-color:#DB8400"/>
					<stop  offset="0.836" style="stop-color:#D77700"/>
					<stop  offset="1" style="stop-color:#D67300"/>
				</linearGradient>
				<path fill="url(#SVGID_17_)" d="M54.674,113.576c0.139,3.877,2.705,5.346,2.705,5.346l-0.266-8.826
					C57.113,110.096,54.604,111.338,54.674,113.576z"/>
				
					<linearGradient id="SVGID_18_" gradientUnits="userSpaceOnUse" x1="203.1816" y1="-646.356" x2="196.3797" y2="-658.723" gradientTransform="matrix(1 0 0 -1 -150 -530)">
					<stop  offset="0" style="stop-color:#FFFF00"/>
					<stop  offset="0.1442" style="stop-color:#F4DA00"/>
					<stop  offset="0.3186" style="stop-color:#E9B500"/>
					<stop  offset="0.4933" style="stop-color:#E19800"/>
					<stop  offset="0.666" style="stop-color:#DB8400"/>
					<stop  offset="0.836" style="stop-color:#D77700"/>
					<stop  offset="1" style="stop-color:#D67300"/>
				</linearGradient>
				<path fill="url(#SVGID_18_)" d="M57.25,114.064c-0.385-0.457-1.018-0.551-1.414-0.205c-0.393,0.342-0.4,0.99-0.014,1.447
					c3.285,3.899,5.309,8.516,5.426,12.336c0.08,2.59-0.74,4.518-2.311,5.43c-1.811,1.057-4.527,0.699-7.455-0.979
					c-6.064-3.452-11.26-11.271-11.553-17.432c-0.109-2.308,0.5-4.062,1.764-5.078c1.143-0.92,2.748-1.168,4.654-0.746l-0.086-2.067
					c-2.354-0.461-4.445-0.078-5.939,1.119c-1.709,1.375-2.535,3.647-2.391,6.579c0.336,6.884,6.096,15.591,12.799,19.412
					c1.814,1.037,3.584,1.646,5.197,1.81c1.553,0.158,2.963-0.099,4.127-0.773c2.139-1.244,3.266-3.756,3.17-7.072
					C63.098,123.52,60.871,118.367,57.25,114.064z"/>
				<g>
					
						<linearGradient id="SVGID_19_" gradientUnits="userSpaceOnUse" x1="205.7305" y1="-660.5483" x2="204.5393" y2="-653.8781" gradientTransform="matrix(1 0 0 -1 -150 -530)">
						<stop  offset="0.4785" style="stop-color:#FFFF00"/>
						<stop  offset="0.4954" style="stop-color:#FDF700"/>
						<stop  offset="0.5216" style="stop-color:#F6E100"/>
						<stop  offset="0.5539" style="stop-color:#ECBD00"/>
						<stop  offset="0.5908" style="stop-color:#DD8C00"/>
						<stop  offset="0.6074" style="stop-color:#D67300"/>
						<stop  offset="0.6727" style="stop-color:#DE8F00"/>
						<stop  offset="0.7577" style="stop-color:#E7AD00"/>
						<stop  offset="0.8416" style="stop-color:#EDC200"/>
						<stop  offset="0.9233" style="stop-color:#F1CF00"/>
						<stop  offset="1" style="stop-color:#F2D300"/>
					</linearGradient>
					<path fill="url(#SVGID_19_)" d="M57.25,114.064c-0.17-0.201-0.391-0.318-0.617-0.373c3.5,4.25,5.652,9.272,5.779,13.512
						c0.1,3.316-1.027,5.828-3.168,7.072c-1.164,0.68-2.574,0.934-4.129,0.772c-1.613-0.159-3.385-0.771-5.199-1.809
						c-0.711-0.406-1.408-0.882-2.094-1.392c0.939,0.769,1.91,1.457,2.908,2.027c1.814,1.037,3.584,1.646,5.197,1.809
						c1.553,0.158,2.963-0.098,4.127-0.772c2.139-1.244,3.266-3.756,3.17-7.072C63.098,123.52,60.871,118.367,57.25,114.064z"/>
					
						<linearGradient id="SVGID_20_" gradientUnits="userSpaceOnUse" x1="196.5156" y1="-662.1831" x2="195.3238" y2="-655.5088" gradientTransform="matrix(1 0 0 -1 -150 -530)">
						<stop  offset="0.4785" style="stop-color:#FFFF00"/>
						<stop  offset="0.4954" style="stop-color:#FDF700"/>
						<stop  offset="0.5216" style="stop-color:#F6E100"/>
						<stop  offset="0.5539" style="stop-color:#ECBD00"/>
						<stop  offset="0.5908" style="stop-color:#DD8C00"/>
						<stop  offset="0.6074" style="stop-color:#D67300"/>
						<stop  offset="0.6727" style="stop-color:#DE8F00"/>
						<stop  offset="0.7577" style="stop-color:#E7AD00"/>
						<stop  offset="0.8416" style="stop-color:#EDC200"/>
						<stop  offset="0.9233" style="stop-color:#F1CF00"/>
						<stop  offset="1" style="stop-color:#F2D300"/>
					</linearGradient>
					<path fill="url(#SVGID_20_)" d="M41.693,109.584c1.143-0.92,2.748-1.168,4.654-0.746l-0.086-2.068
						c-0.275-0.053-0.545-0.094-0.812-0.123l0.066,1.56c-1.908-0.422-3.514-0.177-4.656,0.744c-1.264,1.018-1.873,2.771-1.762,5.077
						c0.266,5.515,4.467,12.341,9.693,16.189c-4.836-3.936-8.613-10.336-8.861-15.555C39.82,112.355,40.43,110.6,41.693,109.584z"/>
				</g>
			</g>
		</g>
	</g>
</g>
</svg>
