<?xml version="1.0" encoding="utf-8"?>
<!-- Generator: Adobe Illustrator 15.0.0, SVG Export Plug-In . SVG Version: 6.00 Build 0)  -->
<!DOCTYPE svg PUBLIC "-//W3C//DTD SVG 1.1//EN" "http://www.w3.org/Graphics/SVG/1.1/DTD/svg11.dtd">
<svg version="1.1" id="Layer_1" xmlns="http://www.w3.org/2000/svg" xmlns:xlink="http://www.w3.org/1999/xlink" x="0px" y="0px"
	 width="200px" height="200px" viewBox="0 0 200 200" enable-background="new 0 0 200 200" xml:space="preserve">
<g id="icon">
	<g id="Layer_2">
	</g>
	<g>
		
			<linearGradient id="SVGID_1_" gradientUnits="userSpaceOnUse" x1="406.3779" y1="-1839.2715" x2="496.2159" y2="-1839.2715" gradientTransform="matrix(1 0 0 -1 -350 -1712)">
			<stop  offset="0" style="stop-color:#CF7900"/>
			<stop  offset="0.1273" style="stop-color:#FFC000"/>
			<stop  offset="0.2638" style="stop-color:#FFCF00"/>
			<stop  offset="0.4424" style="stop-color:#D27700"/>
			<stop  offset="0.6364" style="stop-color:#E88800"/>
			<stop  offset="0.7232" style="stop-color:#FDCA00"/>
			<stop  offset="0.8303" style="stop-color:#FFA700"/>
			<stop  offset="1" style="stop-color:#BD6A00"/>
		</linearGradient>
		<path fill="url(#SVGID_1_)" d="M99.643,89.57c27.607,0,50.97,25.069,50.97,25.069c-0.006,1.301-1.079,15.221-1.244,16.482
			c-2.557,19.018-23.846,33.852-49.721,33.852c-25.885,0-47.171-14.834-49.73-33.846c-0.17-1.27-1.031-13.271-1.031-14.57
			C48.886,116.557,72.036,89.57,99.643,89.57z"/>
		
			<linearGradient id="SVGID_2_" gradientUnits="userSpaceOnUse" x1="-1521.0332" y1="-2370.3374" x2="-1577.1763" y2="-2417.0249" gradientTransform="matrix(0.7071 -0.7071 -0.7071 -0.7071 -496.6748 -2682.8835)">
			<stop  offset="0" style="stop-color:#FFAE30"/>
			<stop  offset="1" style="stop-color:#B66800"/>
		</linearGradient>
		<path fill="url(#SVGID_2_)" d="M99.647,76.195c28.146,0,50.964,17.215,50.964,38.444c0,21.235-22.817,38.445-50.964,38.445
			c-28.151,0-50.97-17.21-50.97-38.445C48.677,93.41,71.496,76.195,99.647,76.195z"/>
		
			<linearGradient id="SVGID_3_" gradientUnits="userSpaceOnUse" x1="449.7314" y1="-1823.0312" x2="448.5493" y2="-1860.8583" gradientTransform="matrix(1 0 0 -1 -350 -1712)">
			<stop  offset="0" style="stop-color:#FFCF6A"/>
			<stop  offset="1" style="stop-color:#944D00"/>
		</linearGradient>
		<path fill="url(#SVGID_3_)" d="M99.647,81.726c24.096,0,43.632,14.311,43.632,31.963c0,17.647-19.536,31.963-43.632,31.963
			c-24.102,0-43.632-14.312-43.632-31.963C56.016,96.037,75.546,81.726,99.647,81.726z"/>
		
			<radialGradient id="SVGID_4_" cx="-1521.9653" cy="-2425.9653" r="61.722" gradientTransform="matrix(0.7071 -0.7071 -0.7071 -0.7071 -496.6748 -2682.8835)" gradientUnits="userSpaceOnUse">
			<stop  offset="0" style="stop-color:#FFA800"/>
			<stop  offset="1" style="stop-color:#944D00"/>
		</radialGradient>
		<path fill="url(#SVGID_4_)" d="M99.647,81.726c-24.106,0-43.637,14.311-43.637,31.965c0,0.424,0.023,0.848,0.038,1.271
			C56.966,97.9,76.132,84.274,99.647,84.274s42.671,13.626,43.585,30.688c0.021-0.419,0.047-0.847,0.047-1.271
			C143.279,96.037,123.743,81.726,99.647,81.726z"/>
		
			<linearGradient id="SVGID_5_" gradientUnits="userSpaceOnUse" x1="-1560.8467" y1="-2407.146" x2="-1566.3643" y2="-2415.4214" gradientTransform="matrix(0.7071 -0.7071 -0.7071 -0.7071 -496.6748 -2682.8835)">
			<stop  offset="0" style="stop-color:#FFCF6A"/>
			<stop  offset="1" style="stop-color:#944D00"/>
		</linearGradient>
		<path fill="url(#SVGID_5_)" d="M131.525,121.773c0.181,0.398-0.01,1.57-0.521,3.508c-0.027,0.053-0.234,0.593-0.645,1.631
			c-0.271,0.73-0.506,1.207-0.719,1.436c-2.312-0.826-5.274-1.854-8.882-3.093l-0.304-0.116c-2.039,2.172-4.755,3.844-8.166,5.025
			c-3.396,1.176-6.15,1.361-8.237,0.557c-1.67-0.646-2.649-1.24-2.918-1.785c-0.517-0.976-0.354-2.857,0.5-5.648
			c0.513-0.055,1.128,0.047,1.853,0.297c0.502,0.167,1.188,0.438,2.05,0.831c0.923,0.438,1.504,0.704,1.755,0.8
			c3.416,1.318,6.148,0.571,8.193-2.229l-1.744-1.002c-1.282-0.498-4.831-1.918-10.66-4.271c-3.165-1.306-6.16-2.455-9.003-3.468
			c-3.019,1.958-5.304,3.225-6.846,3.785c-2.815,1.012-5.512,1.021-8.1,0.025c-3.634-1.396-4.836-5.121-3.591-11.158l-7.598-2.931
			c-0.024-0.177,0.033-0.394,0.165-0.646c0.294-0.557,0.871-1.229,1.736-2.024l2.285-2.389c0.587,0.416,0.999,0.67,1.24,0.766
			c1.608,0.592,3.18,1.204,4.703,1.856c2.115-1.923,4.75-3.541,7.892-4.847c0.075,0.037,0.297,0.101,0.672,0.206
			c0.378,0.106,0.686,0.198,0.932,0.294c1.571,0.612,2.044,1.71,1.4,3.318c-0.085,0.053-0.951,0.45-2.593,1.2
			c-1.301,0.571-2.11,1.144-2.422,1.722c-0.081,0.156-0.123,0.317-0.123,0.484l3.937,1.64c0.108,0.066,0.686,0.349,1.727,0.834
			c0.842,0.427,1.604,0.771,2.309,1.011l0.218,0.088c8.185-4.697,15.31-5.879,21.373-3.543c2.988,1.146,5.469,3.084,7.457,5.808
			c2.197,3.007,3.063,6.11,2.577,9.321C128.744,120.852,131.451,121.753,131.525,121.773z M86.419,111.08l-4.651-1.79
			c-0.076,0.599-0.119,1.302-0.104,2.123c0.303,0.892,0.691,1.415,1.155,1.595c0.44,0.176,1.188,0.069,2.247-0.291L86.419,111.08z
			 M100.116,110.471c5.114,1.971,10.021,3.898,14.737,5.801c0.459,0.194,1.539,0.578,3.266,1.129
			c0.677-3.853-1.254-6.656-5.807-8.41C108.816,107.643,104.757,108.141,100.116,110.471z"/>
		<path fill="#FFF200" d="M115.312,117.511c0.459,0.201,1.537,0.577,3.26,1.13c0.283-1.609,0.113-3.031-0.516-4.273
			c0.229,0.927,0.25,1.938,0.062,3.033c-1.731-0.551-2.806-0.928-3.265-1.125c-4.186-1.684-8.53-3.402-13.03-5.143
			c-0.411,0.178-0.827,0.365-1.259,0.572C105.688,113.682,110.602,115.607,115.312,117.511z"/>
		<path fill="#FFF200" d="M70.294,102.536l2.28-2.389c0.587,0.414,1.003,0.667,1.245,0.758c1.613,0.602,3.179,1.212,4.708,1.858
			c2.105-1.916,4.74-3.541,7.887-4.838c0.071,0.029,0.298,0.096,0.672,0.194c0.378,0.111,0.686,0.203,0.932,0.304
			c0.53,0.201,0.932,0.466,1.206,0.784c-0.009-0.921-0.554-1.6-1.67-2.024c-0.242-0.101-0.549-0.19-0.932-0.296
			c-0.369-0.105-0.591-0.169-0.671-0.206c-3.142,1.302-5.772,2.924-7.888,4.847c-1.523-0.646-3.099-1.264-4.703-1.854
			c-0.241-0.096-0.657-0.35-1.24-0.768l-2.29,2.389c-0.856,0.795-1.433,1.47-1.736,2.024c-0.132,0.254-0.179,0.471-0.165,0.645
			l0.809,0.311C69.06,103.775,69.571,103.198,70.294,102.536z"/>
		<path fill="#FFF200" d="M75.991,108.135l-0.638-0.254c-0.521,3.072-0.341,5.471,0.515,7.229
			C75.371,113.3,75.404,110.979,75.991,108.135z"/>
		<path fill="#FFF200" d="M107.283,125.206c-0.26-0.095-0.838-0.358-1.756-0.8c-0.864-0.393-1.547-0.656-2.047-0.831
			c-0.729-0.249-1.348-0.349-1.854-0.298c-0.854,2.791-1.02,4.683-0.502,5.652c0.047,0.071,0.124,0.161,0.191,0.241
			c-0.11-1.073,0.145-2.622,0.764-4.653c0.508-0.056,1.122,0.041,1.85,0.297c0.51,0.164,1.188,0.438,2.049,0.826
			c0.932,0.438,1.513,0.701,1.754,0.801c3.426,1.312,6.156,0.567,8.199-2.229l-1.015-0.586
			C112.947,125.874,110.406,126.409,107.283,125.206z"/>
		<path fill="#FFF200" d="M113.382,103.936c-6.065-2.336-13.195-1.16-21.371,3.543l-0.218-0.086
			c-0.705-0.244-1.467-0.58-2.314-1.016c-1.045-0.482-1.623-0.758-1.731-0.832l-3.062-1.275c-0.118,0.127-0.217,0.262-0.283,0.388
			c-0.085,0.157-0.128,0.327-0.128,0.491l3.932,1.64c0.109,0.065,0.69,0.349,1.737,0.831c0.842,0.429,1.599,0.77,2.304,1.012
			l0.228,0.085c8.17-4.69,15.299-5.88,21.375-3.543c2.976,1.146,5.459,3.086,7.444,5.812c0.726,0.982,1.281,1.977,1.72,2.979
			c-0.445-1.428-1.164-2.832-2.184-4.221C118.848,107.018,116.367,105.084,113.382,103.936z"/>
		<path fill="#FFF200" d="M123.871,120.307c4.145,1.383,6.693,2.23,7.664,2.555c0.076-0.527,0.072-0.899-0.01-1.088
			c-0.07-0.023-2.592-0.858-7.551-2.521C123.956,119.607,123.923,119.958,123.871,120.307z"/>
		<path fill="#FFF200" d="M82.123,112.658c0.303,0.885,0.691,1.414,1.154,1.595c0.445,0.169,1.197,0.069,2.248-0.297l1.354-1.638
			l-1.126-0.43l-0.686,0.825c-1.06,0.365-1.807,0.468-2.247,0.291c-0.256-0.094-0.483-0.306-0.691-0.62
			C82.127,112.484,82.123,112.562,82.123,112.658z"/>
		
			<linearGradient id="SVGID_6_" gradientUnits="userSpaceOnUse" x1="-1580.1572" y1="-2354.5264" x2="-1548.6467" y2="-2392.2432" gradientTransform="matrix(0.7071 -0.7071 -0.7071 -0.7071 -496.6748 -2682.8835)">
			<stop  offset="0" style="stop-color:#964F00"/>
			<stop  offset="0.0606" style="stop-color:#FFA800"/>
			<stop  offset="0.1273" style="stop-color:#FFA800"/>
			<stop  offset="0.4424" style="stop-color:#944D00"/>
			<stop  offset="0.6364" style="stop-color:#9A5200"/>
			<stop  offset="0.6414" style="stop-color:#A95F00"/>
			<stop  offset="0.6523" style="stop-color:#C47500"/>
			<stop  offset="0.6649" style="stop-color:#DA8800"/>
			<stop  offset="0.6796" style="stop-color:#EB9700"/>
			<stop  offset="0.6977" style="stop-color:#F6A100"/>
			<stop  offset="0.7232" style="stop-color:#FDA600"/>
			<stop  offset="0.7939" style="stop-color:#FFA800"/>
			<stop  offset="0.8303" style="stop-color:#CF7F00"/>
			<stop  offset="1" style="stop-color:#9E5600"/>
		</linearGradient>
		<path fill="url(#SVGID_6_)" d="M88.543,102.5c0.279-0.693,0.331-1.293,0.199-1.802c-0.331,0.157-1.131,0.528-2.427,1.112
			c-1.302,0.568-2.106,1.146-2.422,1.724c-0.081,0.161-0.124,0.327-0.124,0.489l0.861,0.36c0.369-0.229,0.79-0.454,1.31-0.688
			C87.597,102.949,88.458,102.547,88.543,102.5z"/>
		
			<linearGradient id="SVGID_7_" gradientUnits="userSpaceOnUse" x1="-1586.9517" y1="-2360.0962" x2="-1555.3645" y2="-2397.9053" gradientTransform="matrix(0.7071 -0.7071 -0.7071 -0.7071 -496.6748 -2682.8835)">
			<stop  offset="0" style="stop-color:#964F00"/>
			<stop  offset="0.0606" style="stop-color:#FFA800"/>
			<stop  offset="0.1273" style="stop-color:#FFA800"/>
			<stop  offset="0.4424" style="stop-color:#944D00"/>
			<stop  offset="0.6364" style="stop-color:#9A5200"/>
			<stop  offset="0.6414" style="stop-color:#A95F00"/>
			<stop  offset="0.6523" style="stop-color:#C47500"/>
			<stop  offset="0.6649" style="stop-color:#DA8800"/>
			<stop  offset="0.6796" style="stop-color:#EB9700"/>
			<stop  offset="0.6977" style="stop-color:#F6A100"/>
			<stop  offset="0.7232" style="stop-color:#FDA600"/>
			<stop  offset="0.7939" style="stop-color:#FFA800"/>
			<stop  offset="0.8303" style="stop-color:#CF7F00"/>
			<stop  offset="1" style="stop-color:#9E5600"/>
		</linearGradient>
		<path fill="url(#SVGID_7_)" d="M81.726,109.412c-0.071,0.556-0.1,1.229-0.095,1.977l3.473,1.34l1.272-1.526L81.726,109.412z"/>
		
			<linearGradient id="SVGID_8_" gradientUnits="userSpaceOnUse" x1="-1586.312" y1="-2359.5967" x2="-1554.7585" y2="-2397.3655" gradientTransform="matrix(0.7071 -0.7071 -0.7071 -0.7071 -496.6748 -2682.8835)">
			<stop  offset="0" style="stop-color:#964F00"/>
			<stop  offset="0.0606" style="stop-color:#FFA800"/>
			<stop  offset="0.1273" style="stop-color:#FFA800"/>
			<stop  offset="0.4424" style="stop-color:#944D00"/>
			<stop  offset="0.6364" style="stop-color:#9A5200"/>
			<stop  offset="0.6414" style="stop-color:#A95F00"/>
			<stop  offset="0.6523" style="stop-color:#C47500"/>
			<stop  offset="0.6649" style="stop-color:#DA8800"/>
			<stop  offset="0.6796" style="stop-color:#EB9700"/>
			<stop  offset="0.6977" style="stop-color:#F6A100"/>
			<stop  offset="0.7232" style="stop-color:#FDA600"/>
			<stop  offset="0.7939" style="stop-color:#FFA800"/>
			<stop  offset="0.8303" style="stop-color:#CF7F00"/>
			<stop  offset="1" style="stop-color:#9E5600"/>
		</linearGradient>
		<path fill="url(#SVGID_8_)" d="M118.076,117.516c0.671-3.851-1.26-6.658-5.811-8.41c-3.492-1.34-7.554-0.85-12.2,1.479
			c0.708,0.273,1.401,0.548,2.101,0.814c3.625-1.359,6.865-1.516,9.729-0.406c3.729,1.438,5.701,3.587,5.91,6.438
			C117.904,117.468,117.98,117.49,118.076,117.516z"/>
		
			<linearGradient id="SVGID_9_" gradientUnits="userSpaceOnUse" x1="-1598.1772" y1="-2369.5293" x2="-1566.6333" y2="-2407.2871" gradientTransform="matrix(0.7071 -0.7071 -0.7071 -0.7071 -496.6748 -2682.8835)">
			<stop  offset="0" style="stop-color:#964F00"/>
			<stop  offset="0.0606" style="stop-color:#FFA800"/>
			<stop  offset="0.1273" style="stop-color:#FFA800"/>
			<stop  offset="0.4424" style="stop-color:#944D00"/>
			<stop  offset="0.6364" style="stop-color:#9A5200"/>
			<stop  offset="0.6414" style="stop-color:#A95F00"/>
			<stop  offset="0.6523" style="stop-color:#C47500"/>
			<stop  offset="0.6649" style="stop-color:#DA8800"/>
			<stop  offset="0.6796" style="stop-color:#EB9700"/>
			<stop  offset="0.6977" style="stop-color:#F6A100"/>
			<stop  offset="0.7232" style="stop-color:#FDA600"/>
			<stop  offset="0.7939" style="stop-color:#FFA800"/>
			<stop  offset="0.8303" style="stop-color:#CF7F00"/>
			<stop  offset="1" style="stop-color:#9E5600"/>
		</linearGradient>
		<path fill="url(#SVGID_9_)" d="M130.959,125.396c-0.027,0.047-0.241,0.594-0.645,1.637c-0.271,0.73-0.506,1.208-0.715,1.437
			c-2.316-0.827-5.279-1.858-8.892-3.1l-0.288-0.11c-2.04,2.172-4.76,3.846-8.167,5.021c-3.411,1.181-6.153,1.361-8.246,0.557
			c-1.67-0.646-2.646-1.238-2.919-1.791c-0.294-0.545-0.357-1.388-0.218-2.495c-0.535,2.093-0.586,3.56-0.157,4.38
			c0.285,0.553,1.25,1.142,2.92,1.791c2.098,0.801,4.838,0.62,8.246-0.556c3.407-1.185,6.135-2.854,8.171-5.028l0.289,0.114
			c3.609,1.24,6.565,2.271,8.892,3.092c0.209-0.223,0.443-0.702,0.715-1.424c0.402-1.045,0.619-1.584,0.645-1.639
			c0.303-1.127,0.486-1.991,0.555-2.601C131.092,124.91,131.023,125.148,130.959,125.396z"/>
		
			<linearGradient id="SVGID_10_" gradientUnits="userSpaceOnUse" x1="-1588.9072" y1="-2361.7915" x2="-1557.3622" y2="-2399.5503" gradientTransform="matrix(0.7071 -0.7071 -0.7071 -0.7071 -496.6748 -2682.8835)">
			<stop  offset="0" style="stop-color:#964F00"/>
			<stop  offset="0.0606" style="stop-color:#FFA800"/>
			<stop  offset="0.1273" style="stop-color:#FFA800"/>
			<stop  offset="0.4424" style="stop-color:#944D00"/>
			<stop  offset="0.6364" style="stop-color:#9A5200"/>
			<stop  offset="0.6414" style="stop-color:#A95F00"/>
			<stop  offset="0.6523" style="stop-color:#C47500"/>
			<stop  offset="0.6649" style="stop-color:#DA8800"/>
			<stop  offset="0.6796" style="stop-color:#EB9700"/>
			<stop  offset="0.6977" style="stop-color:#F6A100"/>
			<stop  offset="0.7232" style="stop-color:#FDA600"/>
			<stop  offset="0.7939" style="stop-color:#FFA800"/>
			<stop  offset="0.8303" style="stop-color:#CF7F00"/>
			<stop  offset="1" style="stop-color:#9E5600"/>
		</linearGradient>
		<path fill="url(#SVGID_10_)" d="M102.661,119.703c5.823,2.357,9.387,3.775,10.669,4.273l0.837,0.48
			c0.449-0.391,0.876-0.827,1.272-1.366l-1.746-0.993c-1.276-0.507-4.83-1.918-10.653-4.274c-3.17-1.302-6.166-2.456-9.004-3.468
			c-3.028,1.963-5.308,3.224-6.846,3.785c-2.814,1.017-5.516,1.024-8.1,0.032c-3.643-1.399-4.84-5.126-3.591-11.166l-7.064-2.717
			c-0.327,0.374-0.586,0.72-0.738,1.021c-0.143,0.263-0.189,0.479-0.17,0.653l7.608,2.925c-1.249,6.041-0.052,9.767,3.591,11.166
			c2.583,0.991,5.285,0.979,8.1-0.037c1.538-0.565,3.823-1.828,6.841-3.787C96.501,117.246,99.5,118.405,102.661,119.703z"/>
		
			<linearGradient id="SVGID_11_" gradientUnits="userSpaceOnUse" x1="406.3779" y1="-1818.0146" x2="496.2159" y2="-1818.0146" gradientTransform="matrix(1 0 0 -1 -350 -1712)">
			<stop  offset="0" style="stop-color:#CF7900"/>
			<stop  offset="0.1273" style="stop-color:#FFC000"/>
			<stop  offset="0.2638" style="stop-color:#FFCF00"/>
			<stop  offset="0.4424" style="stop-color:#D27700"/>
			<stop  offset="0.6364" style="stop-color:#E88800"/>
			<stop  offset="0.7232" style="stop-color:#FDCA00"/>
			<stop  offset="0.8303" style="stop-color:#FFA700"/>
			<stop  offset="1" style="stop-color:#BD6A00"/>
		</linearGradient>
		<path fill="url(#SVGID_11_)" d="M99.643,68.312c27.607,0,50.97,25.063,50.97,25.063c-0.006,1.301-1.079,15.221-1.244,16.492
			c-2.557,19.015-23.846,33.851-49.721,33.851c-25.885-0.005-47.171-14.841-49.73-33.851c-0.17-1.271-1.031-13.273-1.031-14.574
			C48.886,95.293,72.036,68.312,99.643,68.312z"/>
		
			<linearGradient id="SVGID_12_" gradientUnits="userSpaceOnUse" x1="-1505.9966" y1="-2355.2998" x2="-1562.1439" y2="-2401.9905" gradientTransform="matrix(0.7071 -0.7071 -0.7071 -0.7071 -496.6748 -2682.8835)">
			<stop  offset="0" style="stop-color:#FFAE30"/>
			<stop  offset="1" style="stop-color:#B66800"/>
		</linearGradient>
		<path fill="url(#SVGID_12_)" d="M99.647,54.927c28.146,0,50.964,17.212,50.964,38.446c0,21.234-22.817,38.449-50.964,38.449
			c-28.151,0-50.97-17.215-50.97-38.449C48.677,72.139,71.496,54.927,99.647,54.927z"/>
		
			<linearGradient id="SVGID_13_" gradientUnits="userSpaceOnUse" x1="449.7305" y1="-1801.7695" x2="448.5483" y2="-1839.5913" gradientTransform="matrix(1 0 0 -1 -350 -1712)">
			<stop  offset="0" style="stop-color:#FFCF6A"/>
			<stop  offset="1" style="stop-color:#944D00"/>
		</linearGradient>
		<path fill="url(#SVGID_13_)" d="M99.647,60.464c24.096,0,43.632,14.31,43.632,31.961c0,17.651-19.536,31.961-43.632,31.961
			c-24.102,0-43.632-14.31-43.632-31.961C56.015,74.774,75.546,60.464,99.647,60.464z"/>
		
			<radialGradient id="SVGID_14_" cx="-1506.9238" cy="-2410.9326" r="61.6992" gradientTransform="matrix(0.7071 -0.7071 -0.7071 -0.7071 -496.6748 -2682.8835)" gradientUnits="userSpaceOnUse">
			<stop  offset="0" style="stop-color:#FFA800"/>
			<stop  offset="1" style="stop-color:#944D00"/>
		</radialGradient>
		<path fill="url(#SVGID_14_)" d="M99.647,60.464c-24.106,0-43.637,14.306-43.637,31.961c0,0.424,0.023,0.853,0.038,1.279
			c0.918-17.063,20.084-30.688,43.599-30.688s42.671,13.627,43.585,30.688c0.021-0.427,0.047-0.845,0.047-1.279
			C143.279,74.77,123.743,60.464,99.647,60.464z"/>
		
			<linearGradient id="SVGID_15_" gradientUnits="userSpaceOnUse" x1="-1545.8105" y1="-2392.104" x2="-1551.3287" y2="-2400.3804" gradientTransform="matrix(0.7071 -0.7071 -0.7071 -0.7071 -496.6748 -2682.8835)">
			<stop  offset="0" style="stop-color:#FFCF6A"/>
			<stop  offset="1" style="stop-color:#944D00"/>
		</linearGradient>
		<path fill="url(#SVGID_15_)" d="M131.525,100.52c0.181,0.396-0.01,1.566-0.521,3.506c-0.027,0.053-0.234,0.582-0.645,1.637
			c-0.271,0.729-0.506,1.205-0.719,1.432c-2.312-0.822-5.274-1.854-8.882-3.096l-0.304-0.112c-2.039,2.175-4.755,3.853-8.166,5.021
			c-3.396,1.178-6.15,1.366-8.237,0.561c-1.67-0.646-2.649-1.241-2.918-1.784c-0.517-0.978-0.354-2.863,0.5-5.652
			c0.513-0.055,1.128,0.046,1.853,0.3c0.502,0.167,1.188,0.44,2.05,0.83c0.923,0.432,1.504,0.702,1.755,0.799
			c3.416,1.315,6.148,0.573,8.193-2.229l-1.744-1.004c-1.282-0.496-4.831-1.913-10.66-4.269c-3.165-1.297-6.16-2.453-9.003-3.464
			c-3.019,1.965-5.304,3.221-6.846,3.788c-2.815,1.017-5.512,1.028-8.1,0.032c-3.634-1.399-4.836-5.123-3.591-11.166l-7.598-2.923
			c-0.024-0.176,0.033-0.392,0.165-0.652c0.294-0.553,0.871-1.231,1.736-2.013l2.285-2.398c0.587,0.418,0.999,0.673,1.24,0.768
			c1.608,0.598,3.18,1.208,4.703,1.859c2.115-1.922,4.75-3.538,7.892-4.842c0.075,0.027,0.297,0.101,0.672,0.197
			c0.378,0.109,0.686,0.204,0.932,0.3c1.571,0.606,2.044,1.712,1.4,3.307c-0.085,0.06-0.951,0.456-2.593,1.203
			c-1.301,0.572-2.11,1.149-2.422,1.721c-0.081,0.159-0.123,0.329-0.123,0.498l3.937,1.634c0.108,0.071,0.686,0.349,1.727,0.84
			c0.842,0.421,1.604,0.765,2.309,1.011l0.218,0.077c8.185-4.691,15.31-5.874,21.373-3.542c2.988,1.147,5.469,3.091,7.457,5.814
			c2.197,3.005,3.063,6.113,2.577,9.325C128.744,99.584,131.451,100.486,131.525,100.52z M86.419,89.819l-4.651-1.791
			c-0.076,0.602-0.119,1.303-0.104,2.13c0.303,0.878,0.691,1.409,1.155,1.595c0.44,0.168,1.188,0.068,2.247-0.3L86.419,89.819z
			 M100.116,89.209c5.114,1.968,10.021,3.899,14.737,5.8c0.459,0.195,1.539,0.58,3.266,1.131c0.677-3.854-1.254-6.658-5.807-8.408
			C108.816,86.386,104.757,86.874,100.116,89.209z"/>
		<path fill="#FFF200" d="M115.312,96.244c0.459,0.201,1.537,0.583,3.26,1.133c0.283-1.61,0.113-3.036-0.516-4.279
			c0.229,0.932,0.25,1.938,0.062,3.04c-1.731-0.55-2.806-0.932-3.265-1.133c-4.186-1.678-8.53-3.395-13.03-5.132
			c-0.411,0.178-0.827,0.36-1.259,0.573C105.688,92.414,110.602,94.353,115.312,96.244z"/>
		<path fill="#FFF200" d="M70.294,81.277l2.28-2.396c0.587,0.413,1.003,0.673,1.245,0.768c1.613,0.599,3.179,1.208,4.708,1.857
			c2.105-1.921,4.74-3.536,7.887-4.839c0.071,0.032,0.298,0.098,0.672,0.196c0.378,0.111,0.686,0.201,0.932,0.296
			c0.53,0.207,0.932,0.477,1.206,0.794c-0.009-0.926-0.554-1.605-1.67-2.033c-0.242-0.096-0.549-0.191-0.932-0.299
			c-0.369-0.101-0.591-0.171-0.671-0.197c-3.142,1.303-5.772,2.919-7.888,4.84c-1.523-0.641-3.099-1.258-4.703-1.857
			c-0.241-0.096-0.657-0.352-1.24-0.768l-2.29,2.396c-0.856,0.787-1.433,1.462-1.736,2.016c-0.132,0.262-0.179,0.474-0.165,0.651
			l0.809,0.304C69.06,82.517,69.571,81.938,70.294,81.277z"/>
		<path fill="#FFF200" d="M75.991,86.869l-0.638-0.25c-0.521,3.062-0.341,5.472,0.515,7.23
			C75.371,92.038,75.404,89.713,75.991,86.869z"/>
		<path fill="#FFF200" d="M107.283,103.943c-0.26-0.094-0.838-0.363-1.756-0.799c-0.864-0.389-1.547-0.662-2.047-0.832
			c-0.729-0.256-1.348-0.354-1.854-0.295c-0.854,2.791-1.02,4.676-0.502,5.648c0.047,0.074,0.124,0.161,0.191,0.239
			c-0.11-1.071,0.145-2.617,0.764-4.651c0.508-0.061,1.122,0.042,1.85,0.291c0.51,0.172,1.188,0.445,2.049,0.831
			c0.932,0.438,1.513,0.71,1.754,0.808c3.426,1.312,6.156,0.57,8.199-2.234l-1.02-0.582
			C112.947,104.607,110.406,105.148,107.283,103.943z"/>
		<path fill="#FFF200" d="M113.382,82.668c-6.065-2.336-13.195-1.156-21.371,3.542l-0.218-0.08
			c-0.705-0.248-1.467-0.587-2.314-1.013c-1.045-0.485-1.623-0.761-1.731-0.84l-3.062-1.271c-0.118,0.127-0.217,0.26-0.283,0.387
			c-0.085,0.159-0.128,0.323-0.128,0.49l3.932,1.639c0.109,0.064,0.69,0.344,1.737,0.832c0.842,0.435,1.599,0.773,2.304,1.007
			l0.228,0.09c8.17-4.701,15.299-5.878,21.375-3.542c2.976,1.144,5.459,3.083,7.444,5.81c0.726,0.985,1.281,1.975,1.72,2.979
			c-0.445-1.422-1.164-2.828-2.184-4.219C118.848,85.755,116.367,83.817,113.382,82.668z"/>
		<path fill="#FFF200" d="M123.871,99.046c4.145,1.383,6.693,2.231,7.664,2.56c0.076-0.535,0.072-0.898-0.01-1.086
			c-0.07-0.024-2.592-0.873-7.551-2.525C123.956,98.344,123.923,98.69,123.871,99.046z"/>
		<path fill="#FFF200" d="M82.123,91.398c0.303,0.878,0.691,1.411,1.154,1.593c0.445,0.17,1.197,0.069,2.248-0.296l1.354-1.637
			l-1.126-0.435l-0.686,0.829c-1.06,0.368-1.807,0.468-2.247,0.3c-0.256-0.101-0.483-0.314-0.691-0.62
			C82.127,91.223,82.123,91.302,82.123,91.398z"/>
		
			<linearGradient id="SVGID_16_" gradientUnits="userSpaceOnUse" x1="-1565.1274" y1="-2339.4883" x2="-1533.6132" y2="-2377.2095" gradientTransform="matrix(0.7071 -0.7071 -0.7071 -0.7071 -496.6748 -2682.8835)">
			<stop  offset="0" style="stop-color:#964F00"/>
			<stop  offset="0.0606" style="stop-color:#FFA800"/>
			<stop  offset="0.1273" style="stop-color:#FFA800"/>
			<stop  offset="0.4424" style="stop-color:#944D00"/>
			<stop  offset="0.6364" style="stop-color:#9A5200"/>
			<stop  offset="0.6414" style="stop-color:#A95F00"/>
			<stop  offset="0.6523" style="stop-color:#C47500"/>
			<stop  offset="0.6649" style="stop-color:#DA8800"/>
			<stop  offset="0.6796" style="stop-color:#EB9700"/>
			<stop  offset="0.6977" style="stop-color:#F6A100"/>
			<stop  offset="0.7232" style="stop-color:#FDA600"/>
			<stop  offset="0.7939" style="stop-color:#FFA800"/>
			<stop  offset="0.8303" style="stop-color:#CF7F00"/>
			<stop  offset="1" style="stop-color:#9E5600"/>
		</linearGradient>
		<path fill="url(#SVGID_16_)" d="M88.543,81.233c0.279-0.695,0.331-1.293,0.199-1.796c-0.331,0.158-1.131,0.524-2.427,1.118
			c-1.302,0.572-2.106,1.144-2.422,1.721c-0.081,0.16-0.124,0.323-0.124,0.487l0.861,0.365c0.369-0.233,0.79-0.455,1.31-0.688
			C87.597,81.684,88.458,81.286,88.543,81.233z"/>
		
			<linearGradient id="SVGID_17_" gradientUnits="userSpaceOnUse" x1="-1571.9033" y1="-2345.082" x2="-1540.3441" y2="-2382.8582" gradientTransform="matrix(0.7071 -0.7071 -0.7071 -0.7071 -496.6748 -2682.8835)">
			<stop  offset="0" style="stop-color:#964F00"/>
			<stop  offset="0.0606" style="stop-color:#FFA800"/>
			<stop  offset="0.1273" style="stop-color:#FFA800"/>
			<stop  offset="0.4424" style="stop-color:#944D00"/>
			<stop  offset="0.6364" style="stop-color:#9A5200"/>
			<stop  offset="0.6414" style="stop-color:#A95F00"/>
			<stop  offset="0.6523" style="stop-color:#C47500"/>
			<stop  offset="0.6649" style="stop-color:#DA8800"/>
			<stop  offset="0.6796" style="stop-color:#EB9700"/>
			<stop  offset="0.6977" style="stop-color:#F6A100"/>
			<stop  offset="0.7232" style="stop-color:#FDA600"/>
			<stop  offset="0.7939" style="stop-color:#FFA800"/>
			<stop  offset="0.8303" style="stop-color:#CF7F00"/>
			<stop  offset="1" style="stop-color:#9E5600"/>
		</linearGradient>
		<path fill="url(#SVGID_17_)" d="M81.726,88.145c-0.071,0.562-0.1,1.233-0.095,1.986l3.473,1.34l1.272-1.535L81.726,88.145z"/>
		
			<linearGradient id="SVGID_18_" gradientUnits="userSpaceOnUse" x1="-1571.2803" y1="-2344.564" x2="-1539.7268" y2="-2382.3325" gradientTransform="matrix(0.7071 -0.7071 -0.7071 -0.7071 -496.6748 -2682.8835)">
			<stop  offset="0" style="stop-color:#964F00"/>
			<stop  offset="0.0606" style="stop-color:#FFA800"/>
			<stop  offset="0.1273" style="stop-color:#FFA800"/>
			<stop  offset="0.4424" style="stop-color:#944D00"/>
			<stop  offset="0.6364" style="stop-color:#9A5200"/>
			<stop  offset="0.6414" style="stop-color:#A95F00"/>
			<stop  offset="0.6523" style="stop-color:#C47500"/>
			<stop  offset="0.6649" style="stop-color:#DA8800"/>
			<stop  offset="0.6796" style="stop-color:#EB9700"/>
			<stop  offset="0.6977" style="stop-color:#F6A100"/>
			<stop  offset="0.7232" style="stop-color:#FDA600"/>
			<stop  offset="0.7939" style="stop-color:#FFA800"/>
			<stop  offset="0.8303" style="stop-color:#CF7F00"/>
			<stop  offset="1" style="stop-color:#9E5600"/>
		</linearGradient>
		<path fill="url(#SVGID_18_)" d="M118.076,96.26c0.671-3.862-1.26-6.659-5.811-8.417c-3.492-1.34-7.554-0.848-12.2,1.483
			c0.708,0.275,1.401,0.537,2.101,0.811c3.625-1.357,6.865-1.51,9.729-0.404c3.729,1.432,5.701,3.576,5.91,6.441
			C117.904,96.201,117.98,96.223,118.076,96.26z"/>
		
			<linearGradient id="SVGID_19_" gradientUnits="userSpaceOnUse" x1="-1583.1445" y1="-2354.5" x2="-1551.6027" y2="-2392.2549" gradientTransform="matrix(0.7071 -0.7071 -0.7071 -0.7071 -496.6748 -2682.8835)">
			<stop  offset="0" style="stop-color:#964F00"/>
			<stop  offset="0.0606" style="stop-color:#FFA800"/>
			<stop  offset="0.1273" style="stop-color:#FFA800"/>
			<stop  offset="0.4424" style="stop-color:#944D00"/>
			<stop  offset="0.6364" style="stop-color:#9A5200"/>
			<stop  offset="0.6414" style="stop-color:#A95F00"/>
			<stop  offset="0.6523" style="stop-color:#C47500"/>
			<stop  offset="0.6649" style="stop-color:#DA8800"/>
			<stop  offset="0.6796" style="stop-color:#EB9700"/>
			<stop  offset="0.6977" style="stop-color:#F6A100"/>
			<stop  offset="0.7232" style="stop-color:#FDA600"/>
			<stop  offset="0.7939" style="stop-color:#FFA800"/>
			<stop  offset="0.8303" style="stop-color:#CF7F00"/>
			<stop  offset="1" style="stop-color:#9E5600"/>
		</linearGradient>
		<path fill="url(#SVGID_19_)" d="M130.959,104.136c-0.027,0.054-0.241,0.593-0.645,1.632c-0.271,0.735-0.506,1.213-0.715,1.438
			c-2.316-0.826-5.279-1.854-8.892-3.097l-0.288-0.111c-2.04,2.175-4.76,3.844-8.167,5.021c-3.411,1.176-6.153,1.363-8.246,0.557
			c-1.67-0.641-2.646-1.24-2.919-1.78c-0.294-0.55-0.357-1.387-0.218-2.505c-0.535,2.102-0.586,3.566-0.157,4.386
			c0.285,0.546,1.25,1.14,2.92,1.785c2.098,0.812,4.838,0.622,8.246-0.556c3.407-1.178,6.135-2.854,8.171-5.021l0.289,0.11
			c3.609,1.245,6.565,2.271,8.892,3.096c0.209-0.229,0.443-0.706,0.715-1.438c0.402-1.035,0.619-1.58,0.645-1.633
			c0.303-1.131,0.486-1.994,0.555-2.599C131.092,103.645,131.023,103.885,130.959,104.136z"/>
		
			<linearGradient id="SVGID_20_" gradientUnits="userSpaceOnUse" x1="-1573.8833" y1="-2346.752" x2="-1542.335" y2="-2384.5146" gradientTransform="matrix(0.7071 -0.7071 -0.7071 -0.7071 -496.6748 -2682.8835)">
			<stop  offset="0" style="stop-color:#964F00"/>
			<stop  offset="0.0606" style="stop-color:#FFA800"/>
			<stop  offset="0.1273" style="stop-color:#FFA800"/>
			<stop  offset="0.4424" style="stop-color:#944D00"/>
			<stop  offset="0.6364" style="stop-color:#9A5200"/>
			<stop  offset="0.6414" style="stop-color:#A95F00"/>
			<stop  offset="0.6523" style="stop-color:#C47500"/>
			<stop  offset="0.6649" style="stop-color:#DA8800"/>
			<stop  offset="0.6796" style="stop-color:#EB9700"/>
			<stop  offset="0.6977" style="stop-color:#F6A100"/>
			<stop  offset="0.7232" style="stop-color:#FDA600"/>
			<stop  offset="0.7939" style="stop-color:#FFA800"/>
			<stop  offset="0.8303" style="stop-color:#CF7F00"/>
			<stop  offset="1" style="stop-color:#9E5600"/>
		</linearGradient>
		<path fill="url(#SVGID_20_)" d="M102.661,98.441c5.823,2.353,9.387,3.784,10.669,4.271l0.837,0.483
			c0.449-0.391,0.876-0.824,1.272-1.364l-1.746-1c-1.276-0.493-4.83-1.918-10.653-4.269c-3.17-1.298-6.166-2.458-9.004-3.467
			c-3.028,1.96-5.308,3.224-6.846,3.79c-2.814,1.012-5.516,1.022-8.1,0.026c-3.643-1.402-4.84-5.119-3.591-11.157l-7.064-2.717
			c-0.327,0.376-0.586,0.721-0.738,1.022c-0.143,0.254-0.189,0.472-0.17,0.649l7.608,2.929c-1.249,6.041-0.052,9.764,3.591,11.159
			c2.583,0.996,5.285,0.985,8.1-0.031c1.538-0.567,3.823-1.822,6.841-3.787C96.501,95.989,99.5,97.139,102.661,98.441z"/>
		
			<linearGradient id="SVGID_21_" gradientUnits="userSpaceOnUse" x1="406.3779" y1="-1796.7539" x2="496.2159" y2="-1796.7539" gradientTransform="matrix(1 0 0 -1 -350 -1712)">
			<stop  offset="0" style="stop-color:#CF7900"/>
			<stop  offset="0.1273" style="stop-color:#FFC000"/>
			<stop  offset="0.2638" style="stop-color:#FFCF00"/>
			<stop  offset="0.4424" style="stop-color:#D27700"/>
			<stop  offset="0.6364" style="stop-color:#E88800"/>
			<stop  offset="0.7232" style="stop-color:#FDCA00"/>
			<stop  offset="0.8303" style="stop-color:#FFA700"/>
			<stop  offset="1" style="stop-color:#BD6A00"/>
		</linearGradient>
		<path fill="url(#SVGID_21_)" d="M99.643,47.054c27.607,0,50.97,25.063,50.97,25.063c-0.006,1.302-1.079,15.226-1.244,16.492
			c-2.557,19.019-23.846,33.844-49.721,33.844c-25.885,0-47.171-14.831-49.73-33.844c-0.17-1.266-1.031-13.272-1.031-14.574
			C48.886,74.031,72.036,47.054,99.643,47.054z"/>
		
			<linearGradient id="SVGID_22_" gradientUnits="userSpaceOnUse" x1="-1944.1758" y1="-1818.3594" x2="-1959.3174" y2="-1798.3729" gradientTransform="matrix(0.7071 -0.7071 -0.7071 -0.7071 -496.6748 -2682.8835)">
			<stop  offset="0" style="stop-color:#FFDE00"/>
			<stop  offset="1" style="stop-color:#C77400"/>
		</linearGradient>
		<path fill="url(#SVGID_22_)" d="M99.647,33.67c28.146,0,50.964,17.213,50.964,38.446c0,21.235-22.817,38.45-50.964,38.45
			c-28.151,0-50.97-17.215-50.97-38.45C48.677,50.884,71.496,33.67,99.647,33.67z"/>
		
			<linearGradient id="SVGID_23_" gradientUnits="userSpaceOnUse" x1="551.5605" y1="-1913.7485" x2="590.3257" y2="-1963.4167" gradientTransform="matrix(1 0 0 -1 -350 -1712)">
			<stop  offset="0" style="stop-color:#FFDE00"/>
			<stop  offset="1" style="stop-color:#C77400"/>
		</linearGradient>
		<path fill="url(#SVGID_23_)" d="M99.647,39.208c24.096,0,43.632,14.309,43.632,31.961c0,17.649-19.536,31.961-43.632,31.961
			c-24.102,0-43.632-14.312-43.632-31.961C56.016,53.517,75.546,39.208,99.647,39.208z"/>
		
			<radialGradient id="SVGID_24_" cx="-1491.8896" cy="-2395.9014" r="61.715" gradientTransform="matrix(0.7071 -0.7071 -0.7071 -0.7071 -496.6748 -2682.8835)" gradientUnits="userSpaceOnUse">
			<stop  offset="0" style="stop-color:#FFA800"/>
			<stop  offset="1" style="stop-color:#944D00"/>
		</radialGradient>
		<path fill="url(#SVGID_24_)" d="M99.647,39.208C75.541,39.202,56.01,53.511,56.01,71.166c0,0.426,0.023,0.851,0.038,1.272
			c0.918-17.058,20.084-30.686,43.599-30.686s42.671,13.628,43.585,30.692c0.021-0.427,0.047-0.852,0.047-1.278
			C143.279,53.511,123.743,39.202,99.647,39.208z"/>
		
			<linearGradient id="SVGID_25_" gradientUnits="userSpaceOnUse" x1="-1530.7773" y1="-2377.0752" x2="-1536.2948" y2="-2385.3499" gradientTransform="matrix(0.7071 -0.7071 -0.7071 -0.7071 -496.6748 -2682.8835)">
			<stop  offset="0" style="stop-color:#FFDE00"/>
			<stop  offset="1" style="stop-color:#C77400"/>
		</linearGradient>
		<path fill="url(#SVGID_25_)" d="M131.525,79.257c0.181,0.397-0.01,1.565-0.521,3.506c-0.027,0.051-0.234,0.583-0.645,1.628
			c-0.271,0.729-0.506,1.206-0.719,1.434c-2.312-0.827-5.274-1.855-8.882-3.094l-0.304-0.111c-2.039,2.172-4.755,3.84-8.166,5.022
			c-3.396,1.173-6.15,1.36-8.237,0.55c-1.67-0.64-2.649-1.24-2.918-1.785c-0.517-0.973-0.354-2.855,0.5-5.652
			c0.513-0.058,1.128,0.051,1.853,0.297c0.502,0.169,1.188,0.445,2.05,0.826c0.923,0.44,1.504,0.707,1.755,0.805
			c3.416,1.311,6.148,0.567,8.193-2.227l-1.744-1.006c-1.282-0.49-4.831-1.917-10.66-4.265c-3.165-1.304-6.16-2.455-9.003-3.469
			c-3.019,1.961-5.304,3.222-6.846,3.791c-2.815,1.013-5.512,1.025-8.1,0.029c-3.634-1.403-4.836-5.126-3.591-11.164l-7.598-2.929
			c-0.024-0.174,0.033-0.394,0.165-0.648c0.294-0.554,0.871-1.231,1.736-2.021l2.285-2.389c0.587,0.417,0.999,0.673,1.24,0.769
			c1.608,0.59,3.18,1.211,4.703,1.853c2.115-1.925,4.75-3.533,7.892-4.84c0.075,0.03,0.297,0.095,0.672,0.2
			c0.378,0.104,0.686,0.199,0.932,0.298c1.571,0.608,2.044,1.709,1.4,3.314c-0.085,0.052-0.951,0.451-2.593,1.202
			c-1.301,0.572-2.11,1.145-2.422,1.722c-0.081,0.158-0.123,0.321-0.123,0.488l3.937,1.639c0.108,0.07,0.686,0.35,1.727,0.832
			c0.842,0.432,1.604,0.773,2.309,1.015l0.218,0.084c8.185-4.698,15.31-5.882,21.373-3.539c2.988,1.144,5.469,3.082,7.457,5.812
			c2.197,2.999,3.063,6.107,2.577,9.322C128.744,78.325,131.451,79.226,131.525,79.257z M86.419,68.557l-4.651-1.786
			c-0.076,0.595-0.119,1.303-0.104,2.128c0.303,0.878,0.691,1.41,1.155,1.589c0.44,0.173,1.188,0.071,2.247-0.299L86.419,68.557z
			 M100.116,67.948c5.114,1.969,10.021,3.903,14.737,5.802c0.459,0.199,1.539,0.577,3.266,1.131
			c0.677-3.856-1.254-6.664-5.807-8.414C108.816,65.123,104.757,65.611,100.116,67.948z"/>
		<path fill="#FFF200" d="M115.312,74.986c0.459,0.199,1.537,0.577,3.26,1.131c0.283-1.613,0.113-3.038-0.516-4.282
			c0.229,0.928,0.25,1.94,0.062,3.042c-1.731-0.553-2.806-0.932-3.265-1.131c-4.186-1.685-8.53-3.397-13.03-5.138
			c-0.411,0.179-0.827,0.363-1.259,0.577C105.688,71.151,110.602,73.082,115.312,74.986z"/>
		<path fill="#FFF200" d="M70.294,60.012l2.28-2.389c0.587,0.414,1.003,0.673,1.245,0.766c1.613,0.598,3.179,1.208,4.708,1.85
			c2.105-1.917,4.74-3.533,7.887-4.835c0.071,0.027,0.298,0.101,0.672,0.199c0.378,0.105,0.686,0.199,0.932,0.297
			c0.53,0.204,0.932,0.468,1.206,0.784c-0.009-0.922-0.554-1.598-1.67-2.026c-0.242-0.1-0.549-0.194-0.932-0.298
			c-0.369-0.105-0.591-0.17-0.671-0.201c-3.142,1.309-5.772,2.916-7.888,4.842c-1.523-0.643-3.099-1.263-4.703-1.855
			c-0.241-0.095-0.657-0.35-1.24-0.767l-2.29,2.388c-0.856,0.792-1.433,1.468-1.736,2.021c-0.132,0.255-0.179,0.474-0.165,0.647
			l0.809,0.308C69.06,61.25,69.571,60.676,70.294,60.012z"/>
		<path fill="#FFF200" d="M75.991,65.609l-0.638-0.252c-0.521,3.067-0.341,5.476,0.515,7.236
			C75.371,70.778,75.404,68.45,75.991,65.609z"/>
		<path fill="#FFF200" d="M107.283,82.684c-0.26-0.095-0.838-0.365-1.756-0.805c-0.864-0.381-1.547-0.651-2.047-0.826
			c-0.729-0.252-1.348-0.353-1.854-0.297c-0.854,2.796-1.02,4.683-0.502,5.652c0.047,0.079,0.124,0.164,0.191,0.243
			c-0.11-1.069,0.145-2.616,0.764-4.656c0.508-0.055,1.122,0.048,1.85,0.297c0.51,0.169,1.188,0.442,2.049,0.832
			c0.932,0.44,1.513,0.704,1.754,0.799c3.426,1.317,6.156,0.567,8.199-2.229l-1.02-0.584
			C112.947,83.346,110.406,83.883,107.283,82.684z"/>
		<path fill="#FFF200" d="M113.382,61.413c-6.065-2.343-13.195-1.158-21.371,3.541l-0.218-0.085
			c-0.705-0.241-1.467-0.583-2.314-1.015c-1.045-0.481-1.623-0.762-1.731-0.833l-3.062-1.27c-0.118,0.126-0.217,0.253-0.283,0.388
			c-0.085,0.157-0.128,0.322-0.128,0.488l3.932,1.637c0.109,0.071,0.69,0.352,1.737,0.834c0.842,0.432,1.599,0.772,2.304,1.014
			l0.228,0.085c8.17-4.698,15.299-5.878,21.375-3.54c2.976,1.145,5.459,3.08,7.444,5.807c0.726,0.984,1.281,1.976,1.72,2.979
			c-0.445-1.423-1.164-2.833-2.184-4.216C118.848,64.491,116.367,62.555,113.382,61.413z"/>
		<path fill="#FFF200" d="M123.871,77.785c4.145,1.382,6.693,2.229,7.664,2.553c0.076-0.526,0.072-0.9-0.01-1.08
			c-0.07-0.032-2.592-0.869-7.551-2.522C123.956,77.08,123.923,77.43,123.871,77.785z"/>
		<path fill="#FFF200" d="M82.123,70.134c0.303,0.883,0.691,1.412,1.154,1.59c0.445,0.171,1.197,0.071,2.248-0.298l1.354-1.632
			l-1.126-0.43l-0.686,0.823c-1.06,0.369-1.807,0.472-2.247,0.297c-0.256-0.099-0.483-0.311-0.691-0.621
			C82.127,69.961,82.123,70.043,82.123,70.134z"/>
		
			<linearGradient id="SVGID_26_" gradientUnits="userSpaceOnUse" x1="-1550.0894" y1="-2324.4609" x2="-1518.5856" y2="-2362.1702" gradientTransform="matrix(0.7071 -0.7071 -0.7071 -0.7071 -496.6748 -2682.8835)">
			<stop  offset="0" style="stop-color:#964F00"/>
			<stop  offset="0.0606" style="stop-color:#FFA800"/>
			<stop  offset="0.1273" style="stop-color:#FFA800"/>
			<stop  offset="0.4424" style="stop-color:#944D00"/>
			<stop  offset="0.6364" style="stop-color:#9A5200"/>
			<stop  offset="0.6414" style="stop-color:#A95F00"/>
			<stop  offset="0.6523" style="stop-color:#C47500"/>
			<stop  offset="0.6649" style="stop-color:#DA8800"/>
			<stop  offset="0.6796" style="stop-color:#EB9700"/>
			<stop  offset="0.6977" style="stop-color:#F6A100"/>
			<stop  offset="0.7232" style="stop-color:#FDA600"/>
			<stop  offset="0.7939" style="stop-color:#FFA800"/>
			<stop  offset="0.8303" style="stop-color:#CF7F00"/>
			<stop  offset="1" style="stop-color:#9E5600"/>
		</linearGradient>
		<path fill="url(#SVGID_26_)" d="M88.543,59.973c0.279-0.694,0.331-1.294,0.199-1.796c-0.331,0.156-1.131,0.522-2.427,1.11
			c-1.302,0.575-2.106,1.151-2.422,1.723c-0.081,0.161-0.124,0.328-0.124,0.492l0.861,0.362c0.369-0.225,0.79-0.459,1.31-0.692
			C87.597,60.421,88.458,60.019,88.543,59.973z"/>
		
			<linearGradient id="SVGID_27_" gradientUnits="userSpaceOnUse" x1="-1556.8662" y1="-2330.0566" x2="-1525.3118" y2="-2367.8269" gradientTransform="matrix(0.7071 -0.7071 -0.7071 -0.7071 -496.6748 -2682.8835)">
			<stop  offset="0" style="stop-color:#964F00"/>
			<stop  offset="0.0606" style="stop-color:#FFA800"/>
			<stop  offset="0.1273" style="stop-color:#FFA800"/>
			<stop  offset="0.4424" style="stop-color:#944D00"/>
			<stop  offset="0.6364" style="stop-color:#9A5200"/>
			<stop  offset="0.6414" style="stop-color:#A95F00"/>
			<stop  offset="0.6523" style="stop-color:#C47500"/>
			<stop  offset="0.6649" style="stop-color:#DA8800"/>
			<stop  offset="0.6796" style="stop-color:#EB9700"/>
			<stop  offset="0.6977" style="stop-color:#F6A100"/>
			<stop  offset="0.7232" style="stop-color:#FDA600"/>
			<stop  offset="0.7939" style="stop-color:#FFA800"/>
			<stop  offset="0.8303" style="stop-color:#CF7F00"/>
			<stop  offset="1" style="stop-color:#9E5600"/>
		</linearGradient>
		<path fill="url(#SVGID_27_)" d="M81.726,66.889c-0.071,0.56-0.1,1.232-0.095,1.986l3.473,1.34l1.272-1.539L81.726,66.889z"/>
		
			<linearGradient id="SVGID_28_" gradientUnits="userSpaceOnUse" x1="-1556.2383" y1="-2329.5298" x2="-1524.6841" y2="-2367.2986" gradientTransform="matrix(0.7071 -0.7071 -0.7071 -0.7071 -496.6748 -2682.8835)">
			<stop  offset="0" style="stop-color:#964F00"/>
			<stop  offset="0.0606" style="stop-color:#FFA800"/>
			<stop  offset="0.1273" style="stop-color:#FFA800"/>
			<stop  offset="0.4424" style="stop-color:#944D00"/>
			<stop  offset="0.6364" style="stop-color:#9A5200"/>
			<stop  offset="0.6414" style="stop-color:#A95F00"/>
			<stop  offset="0.6523" style="stop-color:#C47500"/>
			<stop  offset="0.6649" style="stop-color:#DA8800"/>
			<stop  offset="0.6796" style="stop-color:#EB9700"/>
			<stop  offset="0.6977" style="stop-color:#F6A100"/>
			<stop  offset="0.7232" style="stop-color:#FDA600"/>
			<stop  offset="0.7939" style="stop-color:#FFA800"/>
			<stop  offset="0.8303" style="stop-color:#CF7F00"/>
			<stop  offset="1" style="stop-color:#9E5600"/>
		</linearGradient>
		<path fill="url(#SVGID_28_)" d="M118.076,74.992c0.671-3.852-1.26-6.658-5.811-8.41c-3.492-1.346-7.554-0.852-12.2,1.48
			c0.708,0.272,1.401,0.541,2.101,0.814c3.625-1.361,6.865-1.511,9.729-0.411c3.729,1.436,5.701,3.584,5.91,6.44
			C117.904,74.932,117.98,74.968,118.076,74.992z"/>
		
			<linearGradient id="SVGID_29_" gradientUnits="userSpaceOnUse" x1="-1568.1089" y1="-2339.4697" x2="-1536.5653" y2="-2377.2261" gradientTransform="matrix(0.7071 -0.7071 -0.7071 -0.7071 -496.6748 -2682.8835)">
			<stop  offset="0" style="stop-color:#964F00"/>
			<stop  offset="0.0606" style="stop-color:#FFA800"/>
			<stop  offset="0.1273" style="stop-color:#FFA800"/>
			<stop  offset="0.4424" style="stop-color:#944D00"/>
			<stop  offset="0.6364" style="stop-color:#9A5200"/>
			<stop  offset="0.6414" style="stop-color:#A95F00"/>
			<stop  offset="0.6523" style="stop-color:#C47500"/>
			<stop  offset="0.6649" style="stop-color:#DA8800"/>
			<stop  offset="0.6796" style="stop-color:#EB9700"/>
			<stop  offset="0.6977" style="stop-color:#F6A100"/>
			<stop  offset="0.7232" style="stop-color:#FDA600"/>
			<stop  offset="0.7939" style="stop-color:#FFA800"/>
			<stop  offset="0.8303" style="stop-color:#CF7F00"/>
			<stop  offset="1" style="stop-color:#9E5600"/>
		</linearGradient>
		<path fill="url(#SVGID_29_)" d="M130.959,82.88c-0.027,0.049-0.241,0.588-0.645,1.633c-0.271,0.729-0.506,1.201-0.715,1.428
			c-2.316-0.823-5.279-1.849-8.892-3.093l-0.288-0.117c-2.04,2.171-4.76,3.846-8.167,5.022c-3.411,1.178-6.153,1.362-8.246,0.561
			c-1.67-0.644-2.646-1.245-2.919-1.79c-0.294-0.543-0.357-1.383-0.218-2.5c-0.535,2.097-0.586,3.565-0.157,4.391
			c0.285,0.541,1.25,1.134,2.92,1.78c2.098,0.805,4.838,0.62,8.246-0.556c3.407-1.175,6.135-2.85,8.171-5.021l0.289,0.116
			c3.609,1.246,6.565,2.272,8.892,3.093c0.209-0.225,0.443-0.704,0.715-1.43c0.402-1.043,0.619-1.584,0.645-1.636
			c0.303-1.128,0.486-1.987,0.555-2.596C131.092,82.382,131.023,82.62,130.959,82.88z"/>
		
			<linearGradient id="SVGID_30_" gradientUnits="userSpaceOnUse" x1="-1558.8438" y1="-2331.7173" x2="-1527.2992" y2="-2369.4758" gradientTransform="matrix(0.7071 -0.7071 -0.7071 -0.7071 -496.6748 -2682.8835)">
			<stop  offset="0" style="stop-color:#964F00"/>
			<stop  offset="0.0606" style="stop-color:#FFA800"/>
			<stop  offset="0.1273" style="stop-color:#FFA800"/>
			<stop  offset="0.4424" style="stop-color:#944D00"/>
			<stop  offset="0.6364" style="stop-color:#9A5200"/>
			<stop  offset="0.6414" style="stop-color:#A95F00"/>
			<stop  offset="0.6523" style="stop-color:#C47500"/>
			<stop  offset="0.6649" style="stop-color:#DA8800"/>
			<stop  offset="0.6796" style="stop-color:#EB9700"/>
			<stop  offset="0.6977" style="stop-color:#F6A100"/>
			<stop  offset="0.7232" style="stop-color:#FDA600"/>
			<stop  offset="0.7939" style="stop-color:#FFA800"/>
			<stop  offset="0.8303" style="stop-color:#CF7F00"/>
			<stop  offset="1" style="stop-color:#9E5600"/>
		</linearGradient>
		<path fill="url(#SVGID_30_)" d="M102.661,77.18c5.823,2.353,9.387,3.783,10.669,4.27l0.837,0.481
			c0.449-0.387,0.876-0.821,1.272-1.361l-1.746-1.001c-1.276-0.493-4.83-1.917-10.653-4.271c-3.17-1.302-6.166-2.457-9.004-3.464
			c-3.028,1.958-5.308,3.222-6.846,3.789c-2.814,1.014-5.516,1.022-8.1,0.031c-3.643-1.403-4.84-5.126-3.591-11.166l-7.064-2.715
			c-0.327,0.374-0.586,0.713-0.738,1.018c-0.143,0.26-0.189,0.472-0.17,0.653l7.608,2.927c-1.249,6.042-0.052,9.766,3.591,11.164
			c2.583,0.996,5.285,0.98,8.1-0.032c1.538-0.567,3.823-1.829,6.841-3.785C96.501,74.724,99.5,75.879,102.661,77.18z"/>
	</g>
</g>
</svg>
