<?xml version="1.0" encoding="utf-8"?>
<!-- Generator: Adobe Illustrator 15.0.0, SVG Export Plug-In . SVG Version: 6.00 Build 0)  -->
<!DOCTYPE svg PUBLIC "-//W3C//DTD SVG 1.1//EN" "http://www.w3.org/Graphics/SVG/1.1/DTD/svg11.dtd">
<svg version="1.1" id="Layer_1" xmlns="http://www.w3.org/2000/svg" xmlns:xlink="http://www.w3.org/1999/xlink" x="0px" y="0px"
	 width="200px" height="200px" viewBox="0 0 200 200" enable-background="new 0 0 200 200" xml:space="preserve">
<g id="icon">
	<g id="Layer_2">
	</g>
	<g>
		<g>
			<g>
				
					<linearGradient id="SVGID_1_" gradientUnits="userSpaceOnUse" x1="268.6074" y1="-639.6812" x2="268.6074" y2="-591.1745" gradientTransform="matrix(1 0 0 -1 -150.0166 -530.1289)">
					<stop  offset="0" style="stop-color:#FFFF00"/>
					<stop  offset="0.1442" style="stop-color:#F4DA00"/>
					<stop  offset="0.3186" style="stop-color:#E9B500"/>
					<stop  offset="0.4933" style="stop-color:#E19800"/>
					<stop  offset="0.666" style="stop-color:#DB8400"/>
					<stop  offset="0.836" style="stop-color:#D77700"/>
					<stop  offset="1" style="stop-color:#D67300"/>
				</linearGradient>
				<path fill="url(#SVGID_1_)" d="M101.635,59.485c2.049-0.824,4.428-0.355,6.352,1.004l50.291,39.248l-25.856,12.922
					L78.904,68.604C78.904,68.604,94.494,62.364,101.635,59.485z"/>
				
					<linearGradient id="SVGID_2_" gradientUnits="userSpaceOnUse" x1="267.6299" y1="-607.8066" x2="249.5619" y2="-645.3548" gradientTransform="matrix(1 0 0 -1 -150.0498 -530.1562)">
					<stop  offset="0" style="stop-color:#FFFF00"/>
					<stop  offset="0.1442" style="stop-color:#F4DA00"/>
					<stop  offset="0.3186" style="stop-color:#E9B500"/>
					<stop  offset="0.4933" style="stop-color:#E19800"/>
					<stop  offset="0.666" style="stop-color:#DB8400"/>
					<stop  offset="0.836" style="stop-color:#D77700"/>
					<stop  offset="1" style="stop-color:#D67300"/>
				</linearGradient>
				<path fill="url(#SVGID_2_)" d="M77.078,72.149c-1.158,4.305-3.002,11.139-4.303,15.963c-0.881,3.275-0.361,6.645,1.627,8.4
					c9.762,8.632,39.575,35,50.459,44.628c2.525,2.232,4.266,2.601,4.266,2.601l3.291-31.082L78.904,68.604
					C78.904,68.604,77.736,69.718,77.078,72.149z"/>
				
					<linearGradient id="SVGID_3_" gradientUnits="userSpaceOnUse" x1="285.7295" y1="-628.0439" x2="299.5515" y2="-668.1494" gradientTransform="matrix(1 0 0 -1 -149.9087 -530.1113)">
					<stop  offset="0" style="stop-color:#FFFF00"/>
					<stop  offset="0.1442" style="stop-color:#F4DA00"/>
					<stop  offset="0.3186" style="stop-color:#E9B500"/>
					<stop  offset="0.4933" style="stop-color:#E19800"/>
					<stop  offset="0.666" style="stop-color:#DB8400"/>
					<stop  offset="0.836" style="stop-color:#D77700"/>
					<stop  offset="1" style="stop-color:#D67300"/>
				</linearGradient>
				<path fill="url(#SVGID_3_)" d="M160.578,104.579c1.301,4.578,3.389,11.938,4.748,16.729c0.785,2.771,0.191,5.239-1.684,6.17
					c-6.871,3.405-23.695,11.75-31.123,15.432c-2.238,1.111-3.396,0.832-3.396,0.832l3.291-31.082l25.856-12.922
					C158.277,99.737,159.877,102.105,160.578,104.579z"/>
				
					<linearGradient id="SVGID_4_" gradientUnits="userSpaceOnUse" x1="269.0195" y1="-771.939" x2="269.0195" y2="-599.8039" gradientTransform="matrix(1 0 0 -1 -150 -530)">
					<stop  offset="0.4424" style="stop-color:#FFFF00"/>
					<stop  offset="0.5565" style="stop-color:#F8E700;stop-opacity:0.7954"/>
					<stop  offset="0.7952" style="stop-color:#E6AB00;stop-opacity:0.3673"/>
					<stop  offset="1" style="stop-color:#D67300;stop-opacity:0"/>
				</linearGradient>
				<path fill="url(#SVGID_4_)" d="M163.643,125.13c-6.871,3.406-23.692,11.75-31.123,15.431c-2.235,1.11-3.393,0.834-3.393,0.834
					s-1.74-0.367-4.266-2.603c-10.885-9.629-40.697-35.994-50.459-44.629c-1.123-0.99-1.758-2.502-1.959-4.213
					c-0.287,2.643,0.346,5.137,1.959,6.562c9.762,8.632,39.575,35,50.459,44.628c2.525,2.233,4.266,2.602,4.266,2.602
					s1.154,0.277,3.393-0.832c7.431-3.684,24.252-12.023,31.123-15.434c1.646-0.812,2.301-2.808,1.912-5.148
					C165.328,123.595,164.695,124.607,163.643,125.13z"/>
			</g>
			
				<linearGradient id="SVGID_5_" gradientUnits="userSpaceOnUse" x1="275.4297" y1="-655.7158" x2="284.9304" y2="-657.433" gradientTransform="matrix(1 0 0 -1 -150 -530)">
				<stop  offset="0" style="stop-color:#FFA800;stop-opacity:0"/>
				<stop  offset="0.5212" style="stop-color:#FFFF00;stop-opacity:0.62"/>
				<stop  offset="0.5384" style="stop-color:#FFFA00;stop-opacity:0.5978"/>
				<stop  offset="0.6562" style="stop-color:#FFDD00;stop-opacity:0.4452"/>
				<stop  offset="0.7733" style="stop-color:#FFC900;stop-opacity:0.2935"/>
				<stop  offset="0.8887" style="stop-color:#FFBC00;stop-opacity:0.1442"/>
				<stop  offset="1" style="stop-color:#FFB800;stop-opacity:0"/>
			</linearGradient>
			<path fill="url(#SVGID_5_)" d="M125.037,141.044c0,0,1.955,2.041,4.141,2.313c2.268,0.285,4.771-1.192,4.771-1.192l2.988-31.338
				l-4.521,1.832l-4.056-3.257L125.037,141.044z"/>
		</g>
		<g>
			<g>
				<g>
					
						<linearGradient id="SVGID_6_" gradientUnits="userSpaceOnUse" x1="196.5078" y1="-683.7725" x2="265.3397" y2="-579.7104" gradientTransform="matrix(1 0 0 -1 -150 -530)">
						<stop  offset="0.4485" style="stop-color:#FFFF00"/>
						<stop  offset="0.459" style="stop-color:#FDFA00"/>
						<stop  offset="0.4718" style="stop-color:#F9EB00"/>
						<stop  offset="0.4857" style="stop-color:#F2D200"/>
						<stop  offset="0.5004" style="stop-color:#E8B000"/>
						<stop  offset="0.5157" style="stop-color:#DB8500"/>
						<stop  offset="0.5212" style="stop-color:#D67300"/>
						<stop  offset="1" style="stop-color:#F2D300"/>
					</linearGradient>
					<path fill="url(#SVGID_6_)" d="M63.611,77.597c2.049-0.826,4.428-0.357,6.354,1.002l50.287,39.25l-25.857,12.92L40.881,86.714
						C40.881,86.714,56.469,80.474,63.611,77.597z"/>
					
						<linearGradient id="SVGID_7_" gradientUnits="userSpaceOnUse" x1="249.0742" y1="-675.2021" x2="215.5585" y2="-597.4755" gradientTransform="matrix(1 0 0 -1 -150 -530)">
						<stop  offset="0" style="stop-color:#FFFF00;stop-opacity:0"/>
						<stop  offset="1" style="stop-color:#D67300"/>
					</linearGradient>
					<path fill="url(#SVGID_7_)" d="M63.611,77.597c2.049-0.826,4.428-0.357,6.354,1.002l50.287,39.25l-25.857,12.92L40.881,86.714
						C40.881,86.714,56.469,80.474,63.611,77.597z"/>
					
						<linearGradient id="SVGID_8_" gradientUnits="userSpaceOnUse" x1="229.6074" y1="-625.917" x2="211.5388" y2="-663.4664" gradientTransform="matrix(1 0 0 -1 -150.0498 -530.1562)">
						<stop  offset="0" style="stop-color:#FFFF00"/>
						<stop  offset="0.1442" style="stop-color:#F4DA00"/>
						<stop  offset="0.3186" style="stop-color:#E9B500"/>
						<stop  offset="0.4933" style="stop-color:#E19800"/>
						<stop  offset="0.666" style="stop-color:#DB8400"/>
						<stop  offset="0.836" style="stop-color:#D77700"/>
						<stop  offset="1" style="stop-color:#D67300"/>
					</linearGradient>
					<path fill="url(#SVGID_8_)" d="M39.057,90.259c-1.162,4.305-3.006,11.14-4.307,15.964c-0.883,3.274-0.357,6.646,1.623,8.399
						c9.766,8.633,39.578,35,50.465,44.627c2.525,2.235,4.266,2.603,4.266,2.603l3.291-31.082L40.881,86.714
						C40.881,86.714,39.711,87.827,39.057,90.259z"/>
					
						<linearGradient id="SVGID_9_" gradientUnits="userSpaceOnUse" x1="147.1943" y1="-635.0073" x2="228.9327" y2="-658.0783" gradientTransform="matrix(1 0 0 -1 -150.0498 -530.1562)">
						<stop  offset="0.4785" style="stop-color:#FFFF00"/>
						<stop  offset="0.4954" style="stop-color:#FDF700"/>
						<stop  offset="0.5216" style="stop-color:#F6E100"/>
						<stop  offset="0.5539" style="stop-color:#ECBD00"/>
						<stop  offset="0.5908" style="stop-color:#DD8C00"/>
						<stop  offset="0.6074" style="stop-color:#D67300"/>
						<stop  offset="0.6097" style="stop-color:#D67400"/>
						<stop  offset="0.6824" style="stop-color:#DF9200"/>
						<stop  offset="0.7542" style="stop-color:#E5A700"/>
						<stop  offset="0.824" style="stop-color:#E9B400"/>
						<stop  offset="0.8896" style="stop-color:#EAB800"/>
					</linearGradient>
					<path fill="url(#SVGID_9_)" d="M39.057,90.259c-1.162,4.305-3.006,11.14-4.307,15.964c-0.883,3.274-0.357,6.646,1.623,8.399
						c9.766,8.633,39.578,35,50.465,44.627c2.525,2.235,4.266,2.603,4.266,2.603l3.291-31.082L40.881,86.714
						C40.881,86.714,39.711,87.827,39.057,90.259z"/>
					
						<linearGradient id="SVGID_10_" gradientUnits="userSpaceOnUse" x1="247.709" y1="-646.1543" x2="261.5297" y2="-686.2563" gradientTransform="matrix(1 0 0 -1 -149.9087 -530.1113)">
						<stop  offset="0" style="stop-color:#FFFF00"/>
						<stop  offset="0.1442" style="stop-color:#F4DA00"/>
						<stop  offset="0.3186" style="stop-color:#E9B500"/>
						<stop  offset="0.4933" style="stop-color:#E19800"/>
						<stop  offset="0.666" style="stop-color:#DB8400"/>
						<stop  offset="0.836" style="stop-color:#D77700"/>
						<stop  offset="1" style="stop-color:#D67300"/>
					</linearGradient>
					<path fill="url(#SVGID_10_)" d="M122.555,122.689c1.297,4.576,3.387,11.938,4.746,16.728c0.785,2.771,0.191,5.242-1.682,6.172
						c-6.871,3.406-23.697,11.748-31.123,15.431c-2.242,1.11-3.393,0.832-3.393,0.832l3.291-31.082l25.857-12.92
						C120.252,117.85,121.855,120.218,122.555,122.689z"/>
					
						<linearGradient id="SVGID_11_" gradientUnits="userSpaceOnUse" x1="215.2461" y1="-764.1255" x2="237.36" y2="-611.3752" gradientTransform="matrix(1 0 0 -1 -150 -530)">
						<stop  offset="0.4424" style="stop-color:#FFFF00"/>
						<stop  offset="0.5565" style="stop-color:#F8E700;stop-opacity:0.7954"/>
						<stop  offset="0.7952" style="stop-color:#E6AB00;stop-opacity:0.3673"/>
						<stop  offset="1" style="stop-color:#D67300;stop-opacity:0"/>
					</linearGradient>
					<path fill="url(#SVGID_11_)" d="M125.619,143.239c-6.871,3.405-23.697,11.75-31.123,15.432c-2.242,1.108-3.393,0.83-3.393,0.83
						s-1.74-0.365-4.266-2.603c-10.887-9.625-40.699-35.993-50.465-44.627c-1.115-0.989-1.754-2.5-1.953-4.211
						c-0.287,2.642,0.344,5.135,1.953,6.562c9.766,8.633,39.578,35,50.465,44.627c2.525,2.235,4.266,2.603,4.266,2.603
						s1.15,0.278,3.393-0.832c7.426-3.683,24.252-12.021,31.123-15.431c1.643-0.813,2.297-2.81,1.91-5.151
						C127.301,141.704,126.67,142.721,125.619,143.239z"/>
				</g>
				
					<linearGradient id="SVGID_12_" gradientUnits="userSpaceOnUse" x1="237.4062" y1="-673.8252" x2="246.9054" y2="-675.5421" gradientTransform="matrix(1 0 0 -1 -150 -530)">
					<stop  offset="0" style="stop-color:#FFA800;stop-opacity:0"/>
					<stop  offset="0.5212" style="stop-color:#FFFF00;stop-opacity:0.62"/>
					<stop  offset="0.5384" style="stop-color:#FFFA00;stop-opacity:0.5978"/>
					<stop  offset="0.6562" style="stop-color:#FFDD00;stop-opacity:0.4452"/>
					<stop  offset="0.7733" style="stop-color:#FFC900;stop-opacity:0.2935"/>
					<stop  offset="0.8887" style="stop-color:#FFBC00;stop-opacity:0.1442"/>
					<stop  offset="1" style="stop-color:#FFB800;stop-opacity:0"/>
				</linearGradient>
				<path fill="url(#SVGID_12_)" d="M87.016,159.152c0,0,1.953,2.041,4.137,2.314c2.268,0.283,4.77-1.193,4.77-1.193l2.992-31.338
					l-4.52,1.832l-4.057-3.258L87.016,159.152z"/>
			</g>
			<g>
				<g>
					
						<linearGradient id="SVGID_13_" gradientUnits="userSpaceOnUse" x1="305.2246" y1="-669.2817" x2="286.0452" y2="-641.5925" gradientTransform="matrix(1 0 0 -1 -150 -530)">
						<stop  offset="0.4424" style="stop-color:#FFFF00"/>
						<stop  offset="0.5565" style="stop-color:#F8E700;stop-opacity:0.7954"/>
						<stop  offset="0.7952" style="stop-color:#E6AB00;stop-opacity:0.3673"/>
						<stop  offset="1" style="stop-color:#D67300;stop-opacity:0"/>
					</linearGradient>
					<path fill="url(#SVGID_13_)" d="M133.9,110.82c-1.295,0.646-2.729,0.513-3.865-0.426c-9.102-7.489-49.973-41.141-49.973-41.141
						c-1.098,0.441-1.758,0.705-1.758,0.705s39.877,32.832,50.783,41.811c1.728,1.422,3.729,1.746,5.338,0.939
						c6.566-3.279,23.248-11.617,23.248-11.617l-1.682-1.312C155.992,99.782,139.77,107.889,133.9,110.82z"/>
					<path fill="#FFF200" d="M80.893,38.528c2.051-0.826,4.43-0.357,6.357,1.002l50.287,39.248l-25.861,12.92l-53.51-44.053
						C58.166,47.646,73.752,41.403,80.893,38.528z"/>
					
						<linearGradient id="SVGID_14_" gradientUnits="userSpaceOnUse" x1="246.8926" y1="-586.8467" x2="228.8254" y2="-624.3932" gradientTransform="matrix(1 0 0 -1 -150.0498 -530.1562)">
						<stop  offset="0" style="stop-color:#FFFF00"/>
						<stop  offset="0.1442" style="stop-color:#F4DA00"/>
						<stop  offset="0.3186" style="stop-color:#E9B500"/>
						<stop  offset="0.4933" style="stop-color:#E19800"/>
						<stop  offset="0.666" style="stop-color:#DB8400"/>
						<stop  offset="0.836" style="stop-color:#D77700"/>
						<stop  offset="1" style="stop-color:#D67300"/>
					</linearGradient>
					<path fill="url(#SVGID_14_)" d="M56.34,51.19c-1.158,4.303-3.002,11.139-4.305,15.963c-0.881,3.273-0.359,6.645,1.627,8.398
						c9.762,8.635,39.572,35.002,50.461,44.631c2.525,2.232,4.264,2.603,4.264,2.603l3.289-31.084l-53.51-44.053
						C58.166,47.646,56.996,48.761,56.34,51.19z"/>
					
						<linearGradient id="SVGID_15_" gradientUnits="userSpaceOnUse" x1="156.3057" y1="-593.6338" x2="238.044" y2="-616.7047" gradientTransform="matrix(1 0 0 -1 -150.0498 -530.1562)">
						<stop  offset="0.4785" style="stop-color:#FFFF00"/>
						<stop  offset="0.4954" style="stop-color:#FDF700"/>
						<stop  offset="0.5216" style="stop-color:#F6E100"/>
						<stop  offset="0.5539" style="stop-color:#ECBD00"/>
						<stop  offset="0.5908" style="stop-color:#DD8C00"/>
						<stop  offset="0.6074" style="stop-color:#D67300"/>
						<stop  offset="0.6097" style="stop-color:#D67400"/>
						<stop  offset="0.6824" style="stop-color:#DF9200"/>
						<stop  offset="0.7542" style="stop-color:#E5A700"/>
						<stop  offset="0.824" style="stop-color:#E9B400"/>
						<stop  offset="0.8896" style="stop-color:#EAB800"/>
					</linearGradient>
					<path fill="url(#SVGID_15_)" d="M56.34,51.19c-1.158,4.303-3.002,11.139-4.305,15.963c-0.881,3.273-0.359,6.645,1.627,8.398
						c9.762,8.635,39.572,35.002,50.461,44.631c2.525,2.232,4.264,2.603,4.264,2.603l3.289-31.084l-53.51-44.053
						C58.166,47.646,56.996,48.761,56.34,51.19z"/>
					
						<linearGradient id="SVGID_16_" gradientUnits="userSpaceOnUse" x1="264.9922" y1="-607.0845" x2="278.8136" y2="-647.1882" gradientTransform="matrix(1 0 0 -1 -149.9087 -530.1113)">
						<stop  offset="0" style="stop-color:#FFFF00"/>
						<stop  offset="0.1442" style="stop-color:#F4DA00"/>
						<stop  offset="0.3186" style="stop-color:#E9B500"/>
						<stop  offset="0.4933" style="stop-color:#E19800"/>
						<stop  offset="0.666" style="stop-color:#DB8400"/>
						<stop  offset="0.836" style="stop-color:#D77700"/>
						<stop  offset="1" style="stop-color:#D67300"/>
					</linearGradient>
					<path fill="url(#SVGID_16_)" d="M139.838,83.62c1.301,4.576,3.389,11.941,4.746,16.727c0.789,2.771,0.195,5.242-1.68,6.172
						c-6.873,3.405-23.699,11.75-31.125,15.432c-2.24,1.111-3.393,0.832-3.393,0.832l3.286-31.084l25.861-12.92
						C137.537,78.778,139.139,81.147,139.838,83.62z"/>
					
						<linearGradient id="SVGID_17_" gradientUnits="userSpaceOnUse" x1="241.2012" y1="-738.9805" x2="250.7496" y2="-573.4774" gradientTransform="matrix(1 0 0 -1 -150 -530)">
						<stop  offset="0.4424" style="stop-color:#FFFF00"/>
						<stop  offset="0.5565" style="stop-color:#F8E700;stop-opacity:0.7954"/>
						<stop  offset="0.7952" style="stop-color:#E6AB00;stop-opacity:0.3673"/>
						<stop  offset="1" style="stop-color:#D67300;stop-opacity:0"/>
					</linearGradient>
					<path fill="url(#SVGID_17_)" d="M142.904,104.366c-6.873,3.405-23.699,11.75-31.125,15.432c-2.24,1.111-3.393,0.83-3.393,0.83
						s-1.738-0.364-4.267-2.601C93.232,108.4,63.422,82.034,53.66,73.399c-1.143-1.008-1.783-2.555-1.969-4.305
						c-0.262,2.602,0.375,5.051,1.969,6.457c9.762,8.635,39.572,35.002,50.461,44.631c2.523,2.232,4.266,2.603,4.266,2.603
						s1.15,0.276,3.393-0.832c7.427-3.685,24.253-12.022,31.125-15.435c1.611-0.799,2.269-2.735,1.923-5.026
						C144.611,102.794,143.975,103.835,142.904,104.366z"/>
					
						<linearGradient id="SVGID_18_" gradientUnits="userSpaceOnUse" x1="237.334" y1="-629.064" x2="249.8802" y2="-587.6951" gradientTransform="matrix(1 0 0 -1 -150 -530)">
						<stop  offset="0.4424" style="stop-color:#FFFF00"/>
						<stop  offset="0.5565" style="stop-color:#F8E700;stop-opacity:0.7954"/>
						<stop  offset="0.7952" style="stop-color:#E6AB00;stop-opacity:0.3673"/>
						<stop  offset="1" style="stop-color:#D67300;stop-opacity:0"/>
					</linearGradient>
					<path fill="url(#SVGID_18_)" d="M113.764,89.679c-1.297,0.646-2.729,0.514-3.867-0.424
						c-9.102-7.494-49.971-41.139-49.971-41.139c-1.1,0.439-1.76,0.705-1.76,0.705s39.881,32.83,50.783,41.807
						c1.729,1.424,3.729,1.746,5.336,0.941c6.568-3.279,23.252-11.617,23.252-11.617l-1.682-1.312
						C135.855,78.64,119.631,86.745,113.764,89.679z"/>
					
						<linearGradient id="SVGID_19_" gradientUnits="userSpaceOnUse" x1="220.1826" y1="-668.4121" x2="232.7302" y2="-627.0387" gradientTransform="matrix(1 0 0 -1 -150 -530)">
						<stop  offset="0.4424" style="stop-color:#FFFF00"/>
						<stop  offset="0.5565" style="stop-color:#F8E700;stop-opacity:0.7954"/>
						<stop  offset="0.7952" style="stop-color:#E6AB00;stop-opacity:0.3673"/>
						<stop  offset="1" style="stop-color:#D67300;stop-opacity:0"/>
					</linearGradient>
					<path fill="url(#SVGID_19_)" d="M96.613,129.025c-1.293,0.646-2.727,0.515-3.867-0.426c-9.1-7.492-49.971-41.141-49.971-41.141
						c-1.1,0.441-1.76,0.705-1.76,0.705s39.881,32.832,50.785,41.811c1.727,1.422,3.729,1.744,5.336,0.941
						c6.568-3.281,23.25-11.617,23.25-11.617l-1.685-1.312C118.705,117.989,102.482,126.095,96.613,129.025z"/>
				</g>
				
					<linearGradient id="SVGID_20_" gradientUnits="userSpaceOnUse" x1="254.6885" y1="-634.7578" x2="264.1908" y2="-636.4753" gradientTransform="matrix(1 0 0 -1 -150 -530)">
					<stop  offset="0" style="stop-color:#FFA800;stop-opacity:0"/>
					<stop  offset="0.5212" style="stop-color:#FFFF00;stop-opacity:0.62"/>
					<stop  offset="0.5384" style="stop-color:#FFFA00;stop-opacity:0.5978"/>
					<stop  offset="0.6562" style="stop-color:#FFDD00;stop-opacity:0.4452"/>
					<stop  offset="0.7733" style="stop-color:#FFC900;stop-opacity:0.2935"/>
					<stop  offset="0.8887" style="stop-color:#FFBC00;stop-opacity:0.1442"/>
					<stop  offset="1" style="stop-color:#FFB800;stop-opacity:0"/>
				</linearGradient>
				<path fill="url(#SVGID_20_)" d="M104.299,120.085c0,0,1.953,2.039,4.139,2.313c2.271,0.287,4.771-1.194,4.771-1.194
					l2.986-31.336l-4.521,1.83l-4.053-3.256L104.299,120.085z"/>
			</g>
		</g>
	</g>
</g>
</svg>
