<?xml version="1.0" encoding="utf-8"?>
<!-- Generator: Adobe Illustrator 15.0.0, SVG Export Plug-In . SVG Version: 6.00 Build 0)  -->
<!DOCTYPE svg PUBLIC "-//W3C//DTD SVG 1.1//EN" "http://www.w3.org/Graphics/SVG/1.1/DTD/svg11.dtd">
<svg version="1.1" id="Layer_1" xmlns="http://www.w3.org/2000/svg" xmlns:xlink="http://www.w3.org/1999/xlink" x="0px" y="0px"
	 width="200px" height="200px" viewBox="0 0 200 200" enable-background="new 0 0 200 200" xml:space="preserve">
<g id="icon">
	<g id="Layer_2">
	</g>
	<g>
		
			<radialGradient id="SVGID_1_" cx="131.6914" cy="-817.8496" r="34.9044" gradientTransform="matrix(0.9902 -0.1395 -0.1395 -0.9902 -128.0236 -644.518)" gradientUnits="userSpaceOnUse">
			<stop  offset="0.4785" style="stop-color:#490000"/>
			<stop  offset="1" style="stop-color:#CA2918"/>
		</radialGradient>
		<path fill="url(#SVGID_1_)" d="M153.562,150.256c0,0-1.017,33.883-51.437,19.438c-17.514-5.018-23.172-41.467-24.022-25.321
			c0.615-11.64,8.193-27.269,24.973-32.146C155.889,96.869,153.562,150.256,153.562,150.256z"/>
		
			<radialGradient id="SVGID_2_" cx="119.0537" cy="-820.8818" r="36.9058" gradientTransform="matrix(0.9902 -0.1395 -0.1395 -0.9902 -128.0236 -644.518)" gradientUnits="userSpaceOnUse">
			<stop  offset="0.4785" style="stop-color:#490000"/>
			<stop  offset="1" style="stop-color:#CA2918"/>
		</radialGradient>
		<path fill="url(#SVGID_2_)" d="M132.787,157.158c0,0,19.764,26.98-30.656,12.535c-17.514-5.021-23.172-41.467-24.022-25.326
			c0.615-11.635,10.328-3.146,27.52-6.301C140.074,131.746,132.787,157.158,132.787,157.158z"/>
		<g>
			
				<radialGradient id="SVGID_3_" cx="-122.2358" cy="1137.3984" r="49.5015" fx="-107.24" fy="1110.8784" gradientTransform="matrix(-0.0215 0.9972 0.9831 0.0575 -1001.2647 223.2299)" gradientUnits="userSpaceOnUse">
				<stop  offset="0.2236" style="stop-color:#B8E360"/>
				<stop  offset="0.638" style="stop-color:#8DC73D"/>
				<stop  offset="0.7868" style="stop-color:#8BB730"/>
				<stop  offset="0.908" style="stop-color:#538D26"/>
				<stop  offset="1" style="stop-color:#3A623A"/>
			</radialGradient>
			<path fill="url(#SVGID_3_)" d="M63.568,129.417c0,0,5.661,5.489,5.456,13.017c-0.319,11.768,6.769,21.185,18.651,26.178
				c8.32,3.498,20.712,17.201,26.218,19.91c6.924,3.408,26.332-0.93,32.651-2.832c8.485-2.559,9.781-17.143,11.806-25.287
				c1.84-7.409-2.05-19.334-2.607-30.364c-0.58-11.36,8.396-12.742,8.396-12.742l-22.979-0.794c0,0,4.5,2.811,5.824,12.936
				c1.332,10.127,4.326,25.771,0.375,27.387c-3.957,1.615-15.15,1.998-20.062,5.588c-4.908,3.588-23.627,4.227-36.311-9.99
				c-3.221-3.611-3.115-18.24-2.882-22.223C88.333,126.207,63.568,129.417,63.568,129.417z"/>
			
				<radialGradient id="SVGID_4_" cx="136.9609" cy="-828.4736" r="41.3343" gradientTransform="matrix(0.9902 -0.1395 -0.1395 -0.9902 -128.0236 -644.518)" gradientUnits="userSpaceOnUse">
				<stop  offset="0" style="stop-color:#FFC07E"/>
				<stop  offset="0.2143" style="stop-color:#FFB87C"/>
				<stop  offset="0.4058" style="stop-color:#C99547"/>
				<stop  offset="0.5521" style="stop-color:#A46A26"/>
				<stop  offset="1" style="stop-color:#CA2918;stop-opacity:0"/>
			</radialGradient>
			<path fill="url(#SVGID_4_)" d="M63.568,129.417c0,0,5.661,5.489,5.456,13.017c-0.319,11.768,6.769,21.185,18.651,26.178
				c8.32,3.498,20.712,17.201,26.218,19.91c6.924,3.408,26.332-0.93,32.651-2.832c8.485-2.559,9.781-17.143,11.806-25.287
				c1.84-7.409-2.05-19.334-2.607-30.364c-0.58-11.36,8.396-12.742,8.396-12.742l-22.979-0.794c0,0,4.5,2.811,5.824,12.936
				c1.332,10.127,4.326,25.771,0.375,27.387c-3.957,1.615-15.15,1.998-20.062,5.588c-4.908,3.588-23.627,4.227-36.311-9.99
				c-3.221-3.611-3.115-18.24-2.882-22.223C88.333,126.207,63.568,129.417,63.568,129.417z"/>
			
				<radialGradient id="SVGID_5_" cx="7367.2129" cy="4671.7637" r="6.6848" gradientTransform="matrix(-1.164 -0.1111 -0.1854 1.0168 9554.0723 -3764.7798)" gradientUnits="userSpaceOnUse">
				<stop  offset="0" style="stop-color:#FFFFCF"/>
				<stop  offset="0.638" style="stop-color:#F1DB88"/>
				<stop  offset="0.7736" style="stop-color:#E6CB72"/>
				<stop  offset="0.9062" style="stop-color:#CA9C5D"/>
				<stop  offset="1" style="stop-color:#A46744"/>
			</radialGradient>
			<path fill="url(#SVGID_5_)" d="M117.041,166.534c0,0-0.334-6.163-3.539-6.005c-3.701,0.186-6.822,1.037-6.062,3.705
				C108.738,168.83,112.699,175.252,117.041,166.534z"/>
			
				<radialGradient id="SVGID_6_" cx="9583.1719" cy="2501.293" r="6.9063" gradientTransform="matrix(-0.804 0.2421 0.1492 1.0287 7472.877 -4732.668)" gradientUnits="userSpaceOnUse">
				<stop  offset="0" style="stop-color:#FFFFCF"/>
				<stop  offset="0.638" style="stop-color:#F1DB88"/>
				<stop  offset="0.7736" style="stop-color:#E6CB72"/>
				<stop  offset="0.9062" style="stop-color:#CA9C5D"/>
				<stop  offset="1" style="stop-color:#A46744"/>
			</radialGradient>
			<path fill="url(#SVGID_6_)" d="M138.729,163.822c2.84,1.395,5.924-0.609,6.211-5.66c0,0,0.308-3.965-2.731-3.803
				s-7.679,0.766-6.289,4.748C136.508,160.812,136.6,162.775,138.729,163.822z"/>
			
				<radialGradient id="SVGID_7_" cx="9090.7383" cy="3847.4883" r="6.8254" gradientTransform="matrix(-0.8334 0.0479 -0.0301 1.0375 7823.1929 -4263.9771)" gradientUnits="userSpaceOnUse">
				<stop  offset="0" style="stop-color:#FFFFCF"/>
				<stop  offset="0.638" style="stop-color:#F1DB88"/>
				<stop  offset="0.7736" style="stop-color:#E6CB72"/>
				<stop  offset="0.9062" style="stop-color:#CA9C5D"/>
				<stop  offset="1" style="stop-color:#A46744"/>
			</radialGradient>
			<path fill="url(#SVGID_7_)" d="M128.625,165.743c2.789,2.207,5.129,1.454,6.389-3.843c0,0,1.072-4.144-2.227-4.742
				c-3.297-0.602-6.797,0.73-6.305,2.852C126.93,161.941,126.533,164.086,128.625,165.743z"/>
			
				<radialGradient id="SVGID_8_" cx="8556.9434" cy="6043.416" r="6.9064" gradientTransform="matrix(-0.8349 -0.0721 -0.1212 0.6497 7998.0098 -3143.0386)" gradientUnits="userSpaceOnUse">
				<stop  offset="0.4785" style="stop-color:#490000"/>
				<stop  offset="1" style="stop-color:#CA2918"/>
			</radialGradient>
			<path fill="url(#SVGID_8_)" d="M119.459,167.984c2.588,1.729,3.83,0.895,5.547-2.287c0,0,1.646-3.184-1.801-3.26
				c-3.852-0.084-6.74,0.062-6.406,3.039C116.943,166.755,117.523,166.684,119.459,167.984z"/>
		</g>
		
			<radialGradient id="SVGID_9_" cx="-149.8696" cy="-1249.6304" r="63.5447" fx="-148.3872" fy="-1284.5217" gradientTransform="matrix(0.9072 -0.0492 -0.0017 -0.9282 240.3168 -1095.1243)" gradientUnits="userSpaceOnUse">
			<stop  offset="0.2236" style="stop-color:#B8E360"/>
			<stop  offset="0.638" style="stop-color:#8DC73D"/>
			<stop  offset="0.7868" style="stop-color:#8BB730"/>
			<stop  offset="0.908" style="stop-color:#538D26"/>
			<stop  offset="1" style="stop-color:#3A623A"/>
		</radialGradient>
		<path fill="url(#SVGID_9_)" d="M155.469,52.81c2.98,6.634,8.986,5.7,8.854,17.649c-0.402,36.381-18.187,59.689-54.839,61.677
			c-4.983,0.271-9.472-3.405-14.418-4.146c-11.108-1.664-29.613,3.482-38.901-2.5c-17.031-10.967-21.716-26.637-20.716-46.972
			c2.007-40.901,22.011-66.412,62.812-64.6C136.23,15.606,144.436,28.254,155.469,52.81z"/>
		
			<radialGradient id="SVGID_10_" cx="10.3384" cy="-2046.5571" r="68.8603" gradientTransform="matrix(0.934 -0.0489 -0.0319 -0.8144 37.7841 -1575.343)" gradientUnits="userSpaceOnUse">
			<stop  offset="0.2236" style="stop-color:#B8E360"/>
			<stop  offset="0.638" style="stop-color:#8DC73D"/>
			<stop  offset="0.7868" style="stop-color:#8BB730"/>
			<stop  offset="0.908" style="stop-color:#538D26"/>
			<stop  offset="1" style="stop-color:#3A623A"/>
		</radialGradient>
		<path fill="url(#SVGID_10_)" d="M147.367,61.242c-19.338,9.175,5.166,34.474-21.117,30.85
			c-11.051-24.795-15.195-25.111-31.633-28.976c-34.946-0.476-27.53,30.236-27.53,30.236s6.325,8.3-2.064,20.99
			c-8.387,12.689-4.361,12.651,4.879,19.783c5.098,3.938,15.219-5.796,20.547-6.379c4.332-0.473,10.6,9.486,10.6,9.486l5.287,5.686
			l44.354-7.859c0,0-4.229-10.092,2.892-15.414c7.106-5.317,14.252,1.649,16.021-8.381c1.772-10.029,2.271-2.92-1.433-15.076
			c-3.707-12.156-3.771-16.537-3.526-21.048C164.637,75.139,165.977,55.579,147.367,61.242z"/>
		
			<radialGradient id="SVGID_11_" cx="23.9072" cy="-2070.7764" r="44.2751" fx="24.5647" fy="-2091.7454" gradientTransform="matrix(0.934 -0.0489 -0.0319 -0.8144 35.7265 -1569.55)" gradientUnits="userSpaceOnUse">
			<stop  offset="0.1718" style="stop-color:#8BB730"/>
			<stop  offset="0.589" style="stop-color:#658D26"/>
			<stop  offset="1" style="stop-color:#405821"/>
		</radialGradient>
		<path fill="url(#SVGID_11_)" d="M140.561,101.873c-4.762-1.938-7.957-11.301-13.283-9.895
			c-9.561,2.248-8.446,13.733-18.428,21.956c-3.881,3.196-13.646,9.866-25.167-7.099c-4.603-6.78,4.405,21.169,6.769,20.91
			c4.332-0.472,10.6,9.487,10.6,9.487l5.287,5.685l44.354-7.86c0,0-4.229-10.091,2.888-15.412
			C157.551,116.666,154.377,105.184,140.561,101.873z"/>
		
			<radialGradient id="SVGID_12_" cx="149.6289" cy="-785.8047" r="32.0335" gradientTransform="matrix(0.9902 -0.1395 -0.1395 -0.9902 -128.0236 -644.518)" gradientUnits="userSpaceOnUse">
			<stop  offset="0" style="stop-color:#FFC07E"/>
			<stop  offset="0.2143" style="stop-color:#FFB87C"/>
			<stop  offset="0.4058" style="stop-color:#C99547"/>
			<stop  offset="0.5521" style="stop-color:#A46A26"/>
			<stop  offset="1" style="stop-color:#CA2918;stop-opacity:0"/>
		</radialGradient>
		<path fill="url(#SVGID_12_)" d="M140.561,101.873c-4.762-1.938-7.957-11.301-13.283-9.895
			c-9.561,2.248-8.446,13.733-18.428,21.956c-3.881,3.196-13.646,9.866-25.167-7.099c-4.603-6.78,4.405,21.169,6.769,20.91
			c4.332-0.472,10.6,9.487,10.6,9.487l5.287,5.685l44.354-7.86c0,0-4.229-10.091,2.888-15.412
			C157.551,116.666,154.377,105.184,140.561,101.873z"/>
		
			<radialGradient id="SVGID_13_" cx="442.2129" cy="-1616.5591" r="8.0157" gradientTransform="matrix(0.9986 0.0527 0.0527 -0.9986 -225.89 -1521.0605)" gradientUnits="userSpaceOnUse">
			<stop  offset="0" style="stop-color:#A3675A"/>
			<stop  offset="0.0434" style="stop-color:#9A5F57"/>
			<stop  offset="0.2711" style="stop-color:#71374A"/>
			<stop  offset="0.4505" style="stop-color:#571E41"/>
			<stop  offset="0.5583" style="stop-color:#4E153E"/>
			<stop  offset="1" style="stop-color:#000000"/>
		</radialGradient>
		<path fill="url(#SVGID_13_)" d="M133.277,106.932c0,0-2.857-1.598-6.816,2.846c-3.963,4.441-5.807,14.24-0.709,13.408
			c3.92-0.641,3.619-7.312,5.51-7.367c1.297-0.034,2.307,6.938,3.791,6.572c1.521-0.369,2.58-0.779,2.646-2.054
			C137.875,117.023,133.277,106.932,133.277,106.932z"/>
		
			<radialGradient id="SVGID_14_" cx="150.7979" cy="-1308.8198" r="7.2086" gradientTransform="matrix(0.9333 0.0493 0.0686 -1.3004 54.9252 -1571.6328)" gradientUnits="userSpaceOnUse">
			<stop  offset="0" style="stop-color:#FFFFCF"/>
			<stop  offset="0.638" style="stop-color:#F1DB88"/>
			<stop  offset="0.7736" style="stop-color:#E6CB72"/>
			<stop  offset="0.9062" style="stop-color:#CA9C5D"/>
			<stop  offset="1" style="stop-color:#A46744"/>
		</radialGradient>
		<path fill="url(#SVGID_14_)" d="M100.949,139.135c0,0,0.148,5.143,3.812,6.333c3.656,1.19,7.488,1.087,6.818-4.776
			C110.912,134.829,103.721,127.768,100.949,139.135z"/>
		
			<radialGradient id="SVGID_15_" cx="193.959" cy="-1300.7988" r="6.6884" gradientTransform="matrix(0.9333 0.0493 0.0686 -1.3004 54.7973 -1569.2129)" gradientUnits="userSpaceOnUse">
			<stop  offset="0" style="stop-color:#FFFFCF"/>
			<stop  offset="0.638" style="stop-color:#F1DB88"/>
			<stop  offset="0.7736" style="stop-color:#E6CB72"/>
			<stop  offset="0.9062" style="stop-color:#CA9C5D"/>
			<stop  offset="1" style="stop-color:#A46744"/>
		</radialGradient>
		<path fill="url(#SVGID_15_)" d="M142.885,132.902c0,0,0.742,7.77,3.273,7.313c2.93-0.521,5.34-1.846,4.531-5.159
			C149.299,129.346,145.658,121.537,142.885,132.902z"/>
		
			<radialGradient id="SVGID_16_" cx="162.9238" cy="-1307.3115" r="7.532" gradientTransform="matrix(0.9333 0.0493 0.0686 -1.3004 54.9008 -1571.1777)" gradientUnits="userSpaceOnUse">
			<stop  offset="0" style="stop-color:#FFFFCF"/>
			<stop  offset="0.638" style="stop-color:#F1DB88"/>
			<stop  offset="0.7736" style="stop-color:#E6CB72"/>
			<stop  offset="0.9062" style="stop-color:#CA9C5D"/>
			<stop  offset="1" style="stop-color:#A46744"/>
		</radialGradient>
		<path fill="url(#SVGID_16_)" d="M121.051,133.67c-3.043-3.143-7.213-1.936-8.801,4.559c0,0-1.332,5.063,2.332,6.254
			c3.66,1.191,9.336,2.539,8.666-3.319C122.961,138.646,123.328,136.027,121.051,133.67z"/>
		
			<radialGradient id="SVGID_17_" cx="174.8008" cy="-1305.312" r="6.8252" gradientTransform="matrix(0.9333 0.0493 0.0686 -1.3004 54.8685 -1570.5742)" gradientUnits="userSpaceOnUse">
			<stop  offset="0" style="stop-color:#FFFFCF"/>
			<stop  offset="0.638" style="stop-color:#F1DB88"/>
			<stop  offset="0.7736" style="stop-color:#E6CB72"/>
			<stop  offset="0.9062" style="stop-color:#CA9C5D"/>
			<stop  offset="1" style="stop-color:#A46744"/>
		</radialGradient>
		<path fill="url(#SVGID_17_)" d="M131.404,132.73c-3.041-3.146-5.691-2.502-7.271,3.986c0,0-1.334,5.065,2.328,6.26
			c3.662,1.188,7.625-0.027,7.145-2.756C133.166,137.734,133.691,135.09,131.404,132.73z"/>
		
			<radialGradient id="SVGID_18_" cx="185.2949" cy="-1304.3384" r="6.9039" gradientTransform="matrix(0.9333 0.0493 0.0686 -1.3004 54.8529 -1570.2793)" gradientUnits="userSpaceOnUse">
			<stop  offset="0" style="stop-color:#FFFFCF"/>
			<stop  offset="0.638" style="stop-color:#F1DB88"/>
			<stop  offset="0.7736" style="stop-color:#E6CB72"/>
			<stop  offset="0.9062" style="stop-color:#CA9C5D"/>
			<stop  offset="1" style="stop-color:#A46744"/>
		</radialGradient>
		<path fill="url(#SVGID_18_)" d="M140.074,131.746c-3.045-3.143-4.338-1.344-5.922,5.15c0,0-1.502,6.486,2.326,6.254
			c4.285-0.268,7.471-0.875,6.799-6.737C142.988,133.898,142.354,134.104,140.074,131.746z"/>
		
			<radialGradient id="SVGID_19_" cx="199.876" cy="-1606.5283" r="17.9756" gradientTransform="matrix(0.9333 0.0493 0.0527 -0.9986 51.451 -1505.9917)" gradientUnits="userSpaceOnUse">
			<stop  offset="0.2236" style="stop-color:#B8E360"/>
			<stop  offset="0.638" style="stop-color:#8DC73D"/>
			<stop  offset="0.7868" style="stop-color:#8BB730"/>
			<stop  offset="0.908" style="stop-color:#538D26"/>
			<stop  offset="1" style="stop-color:#3A623A"/>
		</radialGradient>
		<path fill="url(#SVGID_19_)" d="M162.662,93.568c-0.801,4.986-3.725,9.941-8.85,10.717c-7.695,1.16-12.584-2.023-12.584-2.023
			c1.062,3.379,4.627,10.229,8.854,12.445c4.229,2.216,18.047,2.279,20.688-5.678C172.814,102.877,163.338,89.361,162.662,93.568z"
			/>
		
			<radialGradient id="SVGID_20_" cx="-1292.3091" cy="-2523.6558" r="27.1879" gradientTransform="matrix(0.6949 -0.7008 -0.3911 -0.47 58.1628 -2013.5093)" gradientUnits="userSpaceOnUse">
			<stop  offset="0.2236" style="stop-color:#B8E360"/>
			<stop  offset="0.638" style="stop-color:#8DC73D"/>
			<stop  offset="0.7868" style="stop-color:#8BB730"/>
			<stop  offset="0.908" style="stop-color:#538D26"/>
			<stop  offset="1" style="stop-color:#3A623A"/>
		</radialGradient>
		<path fill="url(#SVGID_20_)" d="M161.186,60.729c8.795,18.712-7.131,8.464-27.608,29.701c-3.619,3.754-11.197-7.34,4.012-21.645
			C145.844,61.016,157.891,53.718,161.186,60.729z"/>
		
			<radialGradient id="SVGID_21_" cx="-984.0464" cy="-2522.6826" r="24.445" gradientTransform="matrix(0.7861 -0.5698 -0.3117 -0.5381 131.123 -1841.3796)" gradientUnits="userSpaceOnUse">
			<stop  offset="0.2236" style="stop-color:#B8E360"/>
			<stop  offset="0.638" style="stop-color:#8DC73D"/>
			<stop  offset="0.7868" style="stop-color:#8BB730"/>
			<stop  offset="0.908" style="stop-color:#538D26"/>
			<stop  offset="1" style="stop-color:#3A623A"/>
		</radialGradient>
		<path fill="url(#SVGID_21_)" d="M160.344,64.502c8.789,18.71,2.58,0.181-18.031,15.869c-4.147,3.158-20.776,6.492-5.576-7.812
			C145,64.789,157.049,57.491,160.344,64.502z"/>
		
			<radialGradient id="SVGID_22_" cx="195.4277" cy="-1595.5996" r="15.2682" gradientTransform="matrix(0.9333 0.0493 0.0527 -0.9986 51.451 -1505.9917)" gradientUnits="userSpaceOnUse">
			<stop  offset="0" style="stop-color:#58C760"/>
			<stop  offset="0.0959" style="stop-color:#54B95F"/>
			<stop  offset="0.472" style="stop-color:#47855C"/>
			<stop  offset="0.6564" style="stop-color:#42715B"/>
			<stop  offset="1" style="stop-color:#02423D"/>
		</radialGradient>
		<path fill="url(#SVGID_22_)" d="M156.037,76.637c-4.287-0.227-12.455,1.592-16.334,8.427c-2.77,4.881-7.746,5.905-7.746,5.905
			c1.064,3.38,5.918,7.854,10.15,10.071c4.229,2.217,18,6.658,20.215-11.828C163.092,82.776,160.291,76.863,156.037,76.637z"/>
		
			<radialGradient id="SVGID_23_" cx="140.7715" cy="-1605.3374" r="15.4385" gradientTransform="matrix(0.9333 0.0493 0.0527 -0.9986 51.451 -1505.9917)" gradientUnits="userSpaceOnUse">
			<stop  offset="0" style="stop-color:#58C760"/>
			<stop  offset="0.0959" style="stop-color:#54B95F"/>
			<stop  offset="0.472" style="stop-color:#47855C"/>
			<stop  offset="0.6564" style="stop-color:#42715B"/>
			<stop  offset="1" style="stop-color:#02423D"/>
		</radialGradient>
		<path fill="url(#SVGID_23_)" d="M115.721,93.363c0,0-2.676-3.146-7.596-8.918c0,0-13.58-6.919-21.915,2.709
			c-4.899,5.662-2.045,15.684-2.045,15.684c8.182,12.625,26.053,11.43,30.356-6.427L115.721,93.363z"/>
		
			<radialGradient id="SVGID_24_" cx="368.373" cy="-972.9126" r="30.756" gradientTransform="matrix(0.9997 0.0218 0.0174 -0.7982 -254.7077 -696.0649)" gradientUnits="userSpaceOnUse">
			<stop  offset="0.2236" style="stop-color:#B8E360"/>
			<stop  offset="0.638" style="stop-color:#8DC73D"/>
			<stop  offset="0.7868" style="stop-color:#8BB730"/>
			<stop  offset="0.908" style="stop-color:#538D26"/>
			<stop  offset="1" style="stop-color:#3A623A"/>
		</radialGradient>
		<path fill="url(#SVGID_24_)" d="M111.576,74.498c0,0-14.48-10.647-27.172-6.787c-12.693,3.861-13.936,10.042-10.5,12.765
			c3.438,2.725,3.713-3.237,15.893-7.173c12.18-3.936,26.411,5.975,28.727,17.589C119.412,95.359,123.23,80.972,111.576,74.498z"/>
		
			<radialGradient id="SVGID_25_" cx="270.7949" cy="-1044.0732" r="59.9554" gradientTransform="matrix(0.9986 -0.0523 -0.0426 -0.8143 -202.2002 -730.0784)" gradientUnits="userSpaceOnUse">
			<stop  offset="0.2236" style="stop-color:#B8E360"/>
			<stop  offset="0.638" style="stop-color:#8DC73D"/>
			<stop  offset="0.8528" style="stop-color:#3A623A"/>
			<stop  offset="0.908" style="stop-color:#538D26"/>
			<stop  offset="0.9571" style="stop-color:#77AF36"/>
		</radialGradient>
		<path fill="url(#SVGID_25_)" d="M111.701,156.805c-6.975-30.291,7.709-47.363,7.709-47.363
			c-32.29,32.271-35.446-13.246-43.907-6.289c-10.659,8.771-12.297,20.605-4.985,27.224c22.985,20.789,9.185,35.021,18.614,35.838
			c6.645,0.58,24.144,24.666,33.263,22.479C120.867,186.087,114.119,167.297,111.701,156.805z M90.269,152.182
			c-0.48,0.067-1.322-3.092-1.881-7.055c-0.559-3.965-0.621-7.232-0.143-7.301c0.48-0.068,1.322,3.092,1.879,7.056
			C90.683,148.846,90.749,152.114,90.269,152.182z M99.482,164.751c-2.201,0.31-4.98-6.51-6.209-15.231
			c-1.229-8.723-0.442-16.047,1.759-16.354c2.2-0.312,4.98,6.511,6.208,15.23C102.469,157.119,101.684,164.441,99.482,164.751z"/>
		
			<radialGradient id="SVGID_26_" cx="143.9453" cy="-831.2275" r="64.8908" gradientTransform="matrix(0.9902 -0.1395 -0.1395 -0.9902 -128.0236 -644.518)" gradientUnits="userSpaceOnUse">
			<stop  offset="0.2236" style="stop-color:#B8E360"/>
			<stop  offset="0.638" style="stop-color:#8DC73D"/>
			<stop  offset="0.7868" style="stop-color:#8BB730"/>
			<stop  offset="0.908" style="stop-color:#538D26"/>
			<stop  offset="1" style="stop-color:#3A623A"/>
		</radialGradient>
		<path fill="url(#SVGID_26_)" d="M146.43,109.967c0,0,10.689,5.262,14.818,4.869c4.131-0.395-7.576,4.461-6.797,15.379
			c0.781,10.917,1.613,28.25,1.613,28.25s-1.156,20.016-8.705,24.325c0,0-33.146,13.661-17.129-5.562
			c4.227-5.072,8.709-7.696,12.139-11.271c3.436-3.563,7.033-8.995,6.045-22.519c-0.707-9.646-0.799-14.807-6.066-15.834
			C137.081,126.585,153.943,117.833,146.43,109.967z"/>
		
			<radialGradient id="SVGID_27_" cx="1128.0693" cy="841.3896" r="20.9143" gradientTransform="matrix(0.5282 0.8491 1.1568 -0.7197 -1440.3335 -192.22)" gradientUnits="userSpaceOnUse">
			<stop  offset="0.2236" style="stop-color:#B8E360"/>
			<stop  offset="0.638" style="stop-color:#8DC73D"/>
			<stop  offset="0.7868" style="stop-color:#8BB730"/>
			<stop  offset="0.908" style="stop-color:#538D26"/>
			<stop  offset="1" style="stop-color:#3A623A"/>
		</radialGradient>
		<path fill="url(#SVGID_27_)" d="M114.66,173.823c0,0,3.633,0.431,9.168-1.97c5.535-2.401,15.199-2.629,20.08-8.045
			c4.883-5.416,4.23-14.496,4.357-17.973c0.188-5.415,1.698,2.989,0.614,10.775c-0.848,6.088-2.344,13.225-8.096,16.918
			C135.039,177.23,118.377,182.461,114.66,173.823z"/>
		
			<radialGradient id="SVGID_28_" cx="138.999" cy="-711.9165" r="48.4981" gradientTransform="matrix(0.9902 -0.1395 -0.1395 -0.9902 -128.0236 -644.518)" gradientUnits="userSpaceOnUse">
			<stop  offset="0.2236" style="stop-color:#B8E360"/>
			<stop  offset="0.638" style="stop-color:#8DC73D"/>
			<stop  offset="0.7868" style="stop-color:#8BB730"/>
			<stop  offset="0.908" style="stop-color:#538D26"/>
			<stop  offset="1" style="stop-color:#3A623A"/>
		</radialGradient>
		<path fill="url(#SVGID_28_)" d="M129.904,58.888c0,0-4.676,6.56-4.809,14.044c-0.138,7.484-0.326,10.072,1.633,16.56
			c0.715,2.367,0.885-1.021,0.934-9.145c0.051-8.123,4.578-16.566,7.34-18.821C137.764,59.271,135.316,52.732,129.904,58.888z"/>
		
			<radialGradient id="SVGID_29_" cx="-521.3003" cy="-313.0781" r="17.5272" fx="-520.8914" fy="-322.7018" gradientTransform="matrix(0.8854 -0.4647 -0.7356 -1.4016 279.8049 -551.3151)" gradientUnits="userSpaceOnUse">
			<stop  offset="0.6687" style="stop-color:#83B122"/>
			<stop  offset="0.908" style="stop-color:#538D26"/>
			<stop  offset="1" style="stop-color:#3A623A"/>
		</radialGradient>
		<path fill="url(#SVGID_29_)" d="M46.103,99.379c0,0-17.703,0.555-8.402,16c1.883,3.123,1.783,8.042,3.335,10.654
			c6.118,10.312,7.266,9.648,13.802,17.721c2.552,3.152,9.436,4.51,10.464,0.379c1.529-6.143,2.729-11.939,2.729-11.939
			l-4.901-5.896c0,0-3.357-8.28-3.984-15.69C58.517,103.191,51.042,97.641,46.103,99.379z"/>
		
			<radialGradient id="SVGID_30_" cx="173.0986" cy="-910.7051" r="13.2619" fx="174.0613" fy="-907.3622" gradientTransform="matrix(0.9902 -0.1395 -0.128 -0.9086 -137.6844 -713.0801)" gradientUnits="userSpaceOnUse">
			<stop  offset="0" style="stop-color:#B8E360"/>
			<stop  offset="0.4417" style="stop-color:#8DC73D"/>
			<stop  offset="0.6871" style="stop-color:#538D26"/>
			<stop  offset="1" style="stop-color:#3A623A"/>
		</radialGradient>
		<path fill="url(#SVGID_30_)" d="M137.051,89.141c0,0,7.502,2.854,13.523,1.943c8.734-1.322,10.264-2.885,10.264-2.885
			s2.342-9.128-3.918-10.204c-5.258-0.903-10.322,0.762-13.648,4.184C139.947,85.601,138.672,88.854,137.051,89.141z"/>
		
			<radialGradient id="SVGID_31_" cx="172.833" cy="-916.4922" r="10.489" fx="173.0778" fy="-922.2513" gradientTransform="matrix(0.9902 -0.1395 -0.128 -0.9086 -137.618 -712.6074)" gradientUnits="userSpaceOnUse">
			<stop  offset="0" style="stop-color:#B8E360"/>
			<stop  offset="0.4417" style="stop-color:#8DC73D"/>
			<stop  offset="0.6871" style="stop-color:#538D26"/>
			<stop  offset="1" style="stop-color:#3A623A"/>
		</radialGradient>
		<path fill="url(#SVGID_31_)" d="M133.695,91.299c0,0,6.162,6.756,16.9,5.287c10.731-1.469,10.151-3.299,10.151-3.299
			s-1.222,8.82-10.459,9.18C138.645,102.918,133.695,91.299,133.695,91.299z"/>
		
			<radialGradient id="SVGID_32_" cx="257.9854" cy="-1023.3706" r="16.9623" gradientTransform="matrix(0.9986 -0.0523 -0.0426 -0.8143 -204.7627 -734.1155)" gradientUnits="userSpaceOnUse">
			<stop  offset="0.2236" style="stop-color:#B8E360"/>
			<stop  offset="0.638" style="stop-color:#8DC73D"/>
			<stop  offset="0.7868" style="stop-color:#8BB730"/>
			<stop  offset="0.908" style="stop-color:#538D26"/>
			<stop  offset="1" style="stop-color:#3A623A"/>
		</radialGradient>
		<path fill="url(#SVGID_32_)" d="M84.656,101.405c0,0-1.475-10.471,3.799-16.368c3.854-4.307,10.912-6.086,18.184-1.662
			c4.473,2.723,7.492,9.263,7.492,9.263l-1.422,0.832c0,0-5.629-11.553-18.297-8.259c-10.822,2.812-8.543,16.023-8.543,16.023
			L84.656,101.405z"/>
		
			<radialGradient id="SVGID_33_" cx="-521.8823" cy="-308.5493" r="11.6435" fx="-521.6106" fy="-314.9426" gradientTransform="matrix(0.8854 -0.4647 -0.7356 -1.4016 282.4435 -549.6432)" gradientUnits="userSpaceOnUse">
			<stop  offset="0.6687" style="stop-color:#83B122"/>
			<stop  offset="0.908" style="stop-color:#538D26"/>
			<stop  offset="1" style="stop-color:#3A623A"/>
		</radialGradient>
		<path fill="url(#SVGID_33_)" d="M38.267,109.977c0,0-1.328-4.062,5.205-4.66c6.531-0.6,12.52,9.396,11.01,10.724
			c-1.51,1.328-0.367,4.394,1.158,5.703c1.527,1.312,5.943,2.557,3.822,5.563c-2.121,3.019-3.723,2.492-1.537,5.951
			c2.184,3.459-5.924,7.316-11.105-4.17c-5.18-11.484,0.037-9.361-2.986-11.553C40.812,115.344,38.267,109.977,38.267,109.977z"/>
		
			<radialGradient id="SVGID_34_" cx="-518.2969" cy="-306.0249" r="7.3861" fx="-518.1246" fy="-310.0805" gradientTransform="matrix(0.8854 -0.4647 -0.7356 -1.4016 284.3224 -547.4381)" gradientUnits="userSpaceOnUse">
			<stop  offset="0.6687" style="stop-color:#83B122"/>
			<stop  offset="0.908" style="stop-color:#538D26"/>
			<stop  offset="1" style="stop-color:#3A623A"/>
		</radialGradient>
		<path fill="url(#SVGID_34_)" d="M49.205,118.325c0,0-0.982,1.267-0.877,4.612c0.441,13.896,6.15,12.888,8.109,13.651
			c1.961,0.771,0.576-5.073,0.576-5.073s-0.279-1.41,1.848-3.431c2.125-2.019,1.202-4.274-2.537-5.858
			c-3.739-1.586-2.508-3.869-2.508-3.869L49.205,118.325z"/>
		<g>
			<g>
				<g>
					<g>
						<g>
							<g>
								<defs>
									<path id="SVGID_35_" d="M134.377,90.629c0,0,7.262,2.178,16.186,1.492c8.154-0.625,9.57-1.29,9.57-1.29l-0.004,1.36
										c0,0,0.174,3.366-11.404,3.834C138.564,96.436,134.377,90.629,134.377,90.629z"/>
								</defs>
								<clipPath id="SVGID_36_">
									<use xlink:href="#SVGID_35_"  overflow="visible"/>
								</clipPath>
								<g clip-path="url(#SVGID_36_)">
									<g>
										<path fill="#650000" d="M163.926,102.791c-6.49,8.967-19.023,10.975-27.99,4.482c-8.969-6.494-10.979-19.023-4.479-27.992
											c6.486-8.967,19.021-10.975,27.988-4.482C168.412,81.291,170.416,93.823,163.926,102.791z"/>
									</g>
									<g>
										
											<radialGradient id="SVGID_37_" cx="2329.0352" cy="-3328.9658" r="10.9027" gradientTransform="matrix(0.81 0.5864 0.5864 -0.81 215.0518 -3972.6831)" gradientUnits="userSpaceOnUse">
											<stop  offset="0.5092" style="stop-color:#FFFAE8"/>
											<stop  offset="0.603" style="stop-color:#FBF6E4"/>
											<stop  offset="0.7001" style="stop-color:#F0E9D9"/>
											<stop  offset="0.7989" style="stop-color:#DED5C6"/>
											<stop  offset="0.8987" style="stop-color:#C4B8AB"/>
											<stop  offset="0.9985" style="stop-color:#A39389"/>
											<stop  offset="1" style="stop-color:#A29288"/>
										</radialGradient>
										<path fill="url(#SVGID_37_)" d="M156.898,97.368c-3.527,4.876-10.344,5.968-15.219,2.437
											c-4.884-3.53-5.974-10.344-2.438-15.221c3.528-4.876,10.344-5.969,15.221-2.438S160.43,92.491,156.898,97.368z"/>
									</g>
									<g>
										
											<radialGradient id="SVGID_38_" cx="403.2627" cy="-1210.3682" r="5.4715" gradientTransform="matrix(1 0 0 -1 -250 -1121)" gradientUnits="userSpaceOnUse">
											<stop  offset="0.2331" style="stop-color:#BFD0CF"/>
											<stop  offset="0.3997" style="stop-color:#BBCCCB"/>
											<stop  offset="0.5724" style="stop-color:#B1BFC0"/>
											<stop  offset="0.7478" style="stop-color:#9FABAC"/>
											<stop  offset="0.9241" style="stop-color:#868E92"/>
											<stop  offset="1" style="stop-color:#797F84"/>
										</radialGradient>
										<path fill="url(#SVGID_38_)" d="M153.293,96.085c-2.535,0-4.783-2.094-5.225-4.869c-0.244-1.51,0.062-3.013,0.854-4.232
											c0.787-1.203,1.966-1.985,3.31-2.2c0.248-0.04,0.494-0.06,0.738-0.06c2.516,0,4.76,2.074,5.221,4.824
											c0.049,0.327,0.078,0.689,0.088,1.064c-0.002,2.736-1.789,5.019-4.246,5.413
											C153.785,96.065,153.539,96.085,153.293,96.085L153.293,96.085z"/>
										<path fill="#637079" d="M152.971,85.224c2.273,0,4.307,1.895,4.725,4.385c0.052,0.319,0.074,0.661,0.084,0.99
											c-0.002,2.503-1.606,4.578-3.821,4.934c-0.224,0.035-0.438,0.053-0.66,0.053c-2.293,0-4.323-1.912-4.729-4.449
											c-0.227-1.386,0.058-2.764,0.785-3.878c0.709-1.085,1.765-1.788,2.967-1.981
											C152.529,85.242,152.752,85.224,152.971,85.224 M152.971,84.224c-0.27,0-0.543,0.021-0.816,0.065
											c-3.065,0.492-5.118,3.629-4.575,7.006c0.485,3.075,2.963,5.29,5.719,5.29c0.271,0,0.545-0.021,0.813-0.065
											c2.738-0.439,4.666-2.98,4.668-5.92c-0.01-0.38-0.034-0.759-0.094-1.135C158.174,86.416,155.713,84.224,152.971,84.224
											L152.971,84.224z"/>
									</g>
									<g>
										
											<radialGradient id="SVGID_39_" cx="2328.1436" cy="-3332.1211" r="12.0914" gradientTransform="matrix(0.81 0.5864 0.5864 -0.81 215.0518 -3972.6831)" gradientUnits="userSpaceOnUse">
											<stop  offset="0.8589" style="stop-color:#FFFFFF;stop-opacity:0"/>
											<stop  offset="1" style="stop-color:#FFFFFF;stop-opacity:0.95"/>
										</radialGradient>
										<path fill="url(#SVGID_39_)" d="M156.898,97.368c-3.527,4.876-10.344,5.968-15.219,2.437
											c-4.884-3.53-5.974-10.344-2.438-15.221c3.528-4.876,10.344-5.969,15.221-2.438S160.43,92.491,156.898,97.368z"/>
									</g>
									<g>
										
											<radialGradient id="SVGID_40_" cx="2330.3721" cy="-3328.3828" r="12.0923" gradientTransform="matrix(0.81 0.5864 0.5864 -0.81 215.0518 -3972.6831)" gradientUnits="userSpaceOnUse">
											<stop  offset="0.8589" style="stop-color:#FF2B2D;stop-opacity:0"/>
											<stop  offset="0.8847" style="stop-color:#F72729;stop-opacity:0.1735"/>
											<stop  offset="0.9251" style="stop-color:#E01C1D;stop-opacity:0.446"/>
											<stop  offset="0.975" style="stop-color:#BC0A0B;stop-opacity:0.7815"/>
											<stop  offset="1" style="stop-color:#A70000;stop-opacity:0.95"/>
										</radialGradient>
										<path fill="url(#SVGID_40_)" d="M156.898,97.368c-3.527,4.876-10.344,5.968-15.219,2.437
											c-4.884-3.53-5.974-10.344-2.438-15.221c3.528-4.876,10.344-5.969,15.221-2.438S160.43,92.491,156.898,97.368z"/>
									</g>
									
										<radialGradient id="SVGID_41_" cx="-215.4639" cy="-4216.8086" r="1.7512" gradientTransform="matrix(0.474 -0.7503 -1.0608 -0.6846 -4218.4922 -2961.728)" gradientUnits="userSpaceOnUse">
										<stop  offset="0.3988" style="stop-color:#FFFFFF;stop-opacity:0.95"/>
										<stop  offset="1" style="stop-color:#FFFFFF;stop-opacity:0"/>
									</radialGradient>
									<path fill="url(#SVGID_41_)" d="M153.84,87.657c-0.383,0.604-1.26,0.726-1.959,0.274c-0.699-0.452-0.959-1.307-0.578-1.91
										s1.258-0.727,1.959-0.274S154.221,87.055,153.84,87.657z"/>
									<g opacity="0.44">
										<g>
											<path fill="#BE1E2D" d="M137.709,93.433c0.691-0.119,1.367-0.328,1.992-0.646c0.838-0.425,0.877-1.304,1.01-2.133
												c0.098-0.609,0.242-1.221,0.859-1.479c0.486-0.205,0.783-0.443,1.045-0.9c0.088-0.152,0.131-0.331,0.174-0.499
												c0.051-0.212,0.057-0.076-0.043-0.058c0.309-0.058,0.619-0.115,0.928-0.173c0.424-0.078-0.348-0.676-0.648-0.619
												c-0.328,0.061-0.651,0.121-0.979,0.183c-0.084,0.015-0.123,0.062-0.133,0.143c-0.104,0.788-0.666,1.163-1.348,1.448
												c-0.562,0.237-0.674,1.104-0.769,1.62c-0.17,0.92-0.213,1.561-1.108,2.016c-0.496,0.25-1.084,0.384-1.629,0.479
												C136.637,92.886,137.406,93.485,137.709,93.433L137.709,93.433z"/>
										</g>
									</g>
									<g opacity="0.44">
										<g>
											<path fill="#BE1E2D" d="M140.406,91.198c-0.58,0.036-0.6-0.188-0.416,0.021c0.049,0.056,0.084,0.132,0.117,0.196
												c0.062,0.116,0.123,0.229,0.207,0.331c0.246,0.305,0.795,0.312,1.145,0.302c0.553-0.015,1.621-0.299,1.789-0.941
												c0.027-0.1-0.945-0.265-0.998-0.062c-0.041,0.16-0.18,0.28-0.303,0.382c-0.186,0.155-0.42,0.249-0.646,0.331
												c-0.26,0.053-0.227,0.085,0.102,0.098c-0.062-0.027-0.118-0.106-0.168-0.16c-0.141-0.174-0.188-0.404-0.354-0.553
												c-0.229-0.197-0.688-0.179-0.961-0.161c-0.058,0.003-0.383,0.05-0.188,0.135
												C139.928,91.206,140.189,91.212,140.406,91.198L140.406,91.198z"/>
										</g>
									</g>
									<g opacity="0.44">
										<g>
											<path fill="#BE1E2D" d="M141.322,99.413c0.211-0.295,0.443-0.573,0.693-0.834c0.063-0.067,0.137-0.132,0.211-0.192
												c0.207-0.184,0.291-0.05-0.033-0.19c0.254,0.11,0.457,0.167,0.729,0.104c0.812-0.18,1.133-0.867,1.48-1.519
												c-0.119,0.048-0.24,0.097-0.361,0.146c0.24,0.024,0.479,0.049,0.723,0.073c0.65,0.066,0.336-0.724-0.149-0.773
												c-0.24-0.024-0.48-0.049-0.72-0.073c-0.137-0.014-0.293,0.017-0.362,0.146c-0.113,0.209-0.354,0.727-0.412,0.784
												c-0.16,0.157-0.343,0.3-0.537,0.409c-0.153,0.085-0.211-0.018-0.437-0.02c-0.729-0.007-1.321,0.93-1.701,1.456
												C140.176,99.305,141.043,99.8,141.322,99.413L141.322,99.413z"/>
										</g>
									</g>
									<g opacity="0.44">
										<g>
											<path fill="#BE1E2D" d="M147.059,102.216c0.211-0.35,0.271-0.751,0.129-1.138c-0.1-0.275-0.188-0.553-0.283-0.831
												c-0.055-0.174-0.016-0.057-0.032-0.055c0.062-0.005,0.127-0.011,0.188-0.017c0.346-0.029,0.691-0.059,1.039-0.089
												c0.174-0.015,0.576,0.253,0.771,0.34c0.106,0.049-0.084-0.344-0.097-0.357c-0.092-0.155-0.229-0.395-0.397-0.473
												c-0.256-0.114-0.592-0.36-0.877-0.336c-0.396,0.034-0.797,0.068-1.197,0.103c-0.016,0.026-0.018,0.055-0.002,0.085
												c0.201,0.637,0.593,1.299,0.203,1.938C146.369,101.602,147.051,102.229,147.059,102.216L147.059,102.216z"/>
										</g>
									</g>
									<g opacity="0.44">
										<g>
											<path fill="#BE1E2D" d="M141.807,81.751c0.043,0.542,0.326,1.278,0.943,1.378c0.74,0.118,1.641-0.289,2.352-0.487
												c-0.229-0.165-0.465-0.33-0.69-0.495c-0.07,0.563-0.144,1.128-0.209,1.691c-0.052,0.375,0.506,0.644,0.801,0.451
												c0.293-0.19,0.584-0.381,0.877-0.572c0.502-0.327-0.205-0.993-0.631-0.715c-0.293,0.19-0.584,0.381-0.877,0.572
												c0.269,0.15,0.528,0.301,0.799,0.451c0.065-0.563,0.144-1.128,0.209-1.691c0.043-0.346-0.401-0.576-0.69-0.495
												c-0.424,0.118-0.849,0.23-1.271,0.339c-0.291,0.074-0.489,0.25-0.586-0.066c-0.037-0.125-0.062-0.259-0.065-0.39
												C142.719,81.216,141.758,81.154,141.807,81.751L141.807,81.751z"/>
										</g>
									</g>
									
										<polyline opacity="0.44" fill="none" stroke="#BE1E2D" stroke-width="0.4" stroke-miterlimit="10" enable-background="new    " points="
										138.83,92.926 139.898,93.697 140.91,93.668 141.645,94.58 142.586,94.881 									"/>
									
										<polyline opacity="0.44" fill="none" stroke="#BE1E2D" stroke-width="0.4" stroke-miterlimit="10" enable-background="new    " points="
										142.592,82.668 142.312,84.047 142.895,83.969 143.541,85.04 143.592,85.724 									"/>
									
										<polyline opacity="0.44" fill="none" stroke="#BE1E2D" stroke-width="0.4" stroke-miterlimit="10" enable-background="new    " points="
										137.896,87.061 139.148,86.065 139.453,87.006 140.764,86.539 141.248,85.869 									"/>
									
										<polyline opacity="0.44" fill="none" stroke="#BE1E2D" stroke-width="0.4" stroke-miterlimit="10" enable-background="new    " points="
										139.453,87.006 139.705,88.372 140.404,88.496 									"/>
									
										<polyline opacity="0.44" fill="none" stroke="#BE1E2D" stroke-width="0.4" stroke-miterlimit="10" enable-background="new    " points="
										142.664,98.062 144.049,98.262 144.629,97.461 146.314,98.344 147.586,96.299 									"/>
									
										<polyline opacity="0.44" fill="none" stroke="#BE1E2D" stroke-width="0.4" stroke-miterlimit="10" enable-background="new    " points="
										146.229,92.501 145.168,92.326 144.393,92.633 143.145,91.729 142.379,91.637 									"/>
									
										<polyline opacity="0.44" fill="none" stroke="#BE1E2D" stroke-width="0.4" stroke-miterlimit="10" enable-background="new    " points="
										148.078,80.075 149,81.243 150.215,81.613 149.564,81.982 150.51,82.335 									"/>
									
										<polyline opacity="0.44" fill="none" stroke="#BE1E2D" stroke-width="0.4" stroke-miterlimit="10" enable-background="new    " points="
										151.238,101.357 151.996,100.169 151.496,99.807 153.266,99.015 153.658,98.473 									"/>
								</g>
							</g>
						</g>
					</g>
				</g>
			</g>
		</g>
		<path fill="#650000" d="M112.504,94.088c0,0-2.148-2.525-6.098-7.158c0,0-10.895-4.559-17.584,3.171
			c-3.932,4.544-1.646,11.592-1.646,11.592c6.568,10.134,20.913,9.175,24.366-5.158L112.504,94.088z"/>
		<g>
			<g>
				
					<radialGradient id="SVGID_42_" cx="2293.7002" cy="-3362.4502" r="10.901" gradientTransform="matrix(0.81 0.5864 0.5864 -0.81 215.0518 -3972.6831)" gradientUnits="userSpaceOnUse">
					<stop  offset="0.5092" style="stop-color:#FFFAE8"/>
					<stop  offset="0.603" style="stop-color:#FBF6E4"/>
					<stop  offset="0.7001" style="stop-color:#F0E9D9"/>
					<stop  offset="0.7989" style="stop-color:#DED5C6"/>
					<stop  offset="0.8987" style="stop-color:#C4B8AB"/>
					<stop  offset="0.9985" style="stop-color:#A39389"/>
					<stop  offset="1" style="stop-color:#A29288"/>
				</radialGradient>
				<circle fill="url(#SVGID_42_)" cx="99.819" cy="97.379" r="10.901"/>
			</g>
			<g>
				
					<radialGradient id="SVGID_43_" cx="355.0107" cy="-1216.7715" r="5.4696" gradientTransform="matrix(1 0 0 -1 -250 -1121)" gradientUnits="userSpaceOnUse">
					<stop  offset="0.2331" style="stop-color:#BFD0CF"/>
					<stop  offset="0.3997" style="stop-color:#BBCCCB"/>
					<stop  offset="0.5724" style="stop-color:#B1BFC0"/>
					<stop  offset="0.7478" style="stop-color:#9FABAC"/>
					<stop  offset="0.9241" style="stop-color:#868E92"/>
					<stop  offset="1" style="stop-color:#797F84"/>
				</radialGradient>
				<path fill="url(#SVGID_43_)" d="M105.043,102.488c-2.535,0-4.784-2.094-5.229-4.87c-0.495-3.1,1.374-5.984,4.167-6.431
					c0.248-0.04,0.494-0.06,0.738-0.06c2.514,0,4.758,2.074,5.221,4.824c0.056,0.356,0.08,0.718,0.088,1.061
					c-0.004,2.739-1.789,5.022-4.241,5.416C105.535,102.469,105.287,102.488,105.043,102.488L105.043,102.488z"/>
				<path fill="#637079" d="M104.719,91.628c2.271,0,4.305,1.895,4.725,4.381c0.054,0.35,0.076,0.691,0.084,0.992
					c-0.004,2.504-1.606,4.579-3.819,4.935c-0.224,0.035-0.438,0.058-0.66,0.058c-2.291,0-4.327-1.913-4.736-4.448
					c-0.451-2.828,1.232-5.456,3.75-5.859C104.277,91.646,104.5,91.628,104.719,91.628 M104.719,90.628
					c-0.27,0-0.543,0.021-0.816,0.065c-3.068,0.491-5.122,3.628-4.583,7.004c0.494,3.076,2.967,5.291,5.723,5.291
					c0.271,0,0.543-0.021,0.818-0.065c2.738-0.438,4.662-2.981,4.666-5.921c-0.008-0.38-0.041-0.758-0.094-1.133
					C109.92,92.819,107.461,90.628,104.719,90.628L104.719,90.628z"/>
			</g>
			<g>
				
					<radialGradient id="SVGID_44_" cx="2292.8086" cy="-3365.6055" r="12.0898" gradientTransform="matrix(0.81 0.5864 0.5864 -0.81 215.0518 -3972.6831)" gradientUnits="userSpaceOnUse">
					<stop  offset="0.8589" style="stop-color:#FFFFFF;stop-opacity:0"/>
					<stop  offset="1" style="stop-color:#FFFFFF;stop-opacity:0.95"/>
				</radialGradient>
				<circle fill="url(#SVGID_44_)" cx="99.819" cy="97.379" r="10.901"/>
			</g>
			<g>
				
					<radialGradient id="SVGID_45_" cx="2295.0381" cy="-3361.8672" r="12.0898" gradientTransform="matrix(0.81 0.5864 0.5864 -0.81 215.0518 -3972.6831)" gradientUnits="userSpaceOnUse">
					<stop  offset="0.8589" style="stop-color:#FF2B2D;stop-opacity:0"/>
					<stop  offset="0.8847" style="stop-color:#F72729;stop-opacity:0.1735"/>
					<stop  offset="0.9251" style="stop-color:#E01C1D;stop-opacity:0.446"/>
					<stop  offset="0.975" style="stop-color:#BC0A0B;stop-opacity:0.7815"/>
					<stop  offset="1" style="stop-color:#A70000;stop-opacity:0.95"/>
				</radialGradient>
				<circle fill="url(#SVGID_45_)" cx="99.819" cy="97.379" r="10.901"/>
			</g>
			
				<radialGradient id="SVGID_46_" cx="-251.5259" cy="-4252.3535" r="1.7526" gradientTransform="matrix(0.474 -0.7503 -1.0608 -0.6846 -4287.355 -3006.7202)" gradientUnits="userSpaceOnUse">
				<stop  offset="0.3988" style="stop-color:#FFFFFF;stop-opacity:0.95"/>
				<stop  offset="1" style="stop-color:#FFFFFF;stop-opacity:0"/>
			</radialGradient>
			<path fill="url(#SVGID_46_)" d="M105.588,94.061c-0.381,0.604-1.258,0.726-1.957,0.275c-0.701-0.453-0.961-1.309-0.58-1.912
				c0.383-0.603,1.258-0.726,1.959-0.273C105.709,92.602,105.969,93.457,105.588,94.061z"/>
			<g opacity="0.44">
				<g>
					<path fill="#BE1E2D" d="M89.242,99.917c1.339-0.23,2.79-0.687,3.104-2.149c0.094-0.439,0.139-0.887,0.238-1.325
						c0.169-0.743,0.743-0.706,1.214-1.147c0.438-0.409,0.732-0.898,0.812-1.5c-0.128,0.139-0.256,0.278-0.384,0.417
						c0.327-0.061,0.655-0.121,0.982-0.182c0.623-0.115,0.391-0.896-0.219-0.783c-0.327,0.061-0.655,0.121-0.982,0.182
						c-0.202,0.037-0.358,0.221-0.384,0.417c-0.099,0.75-0.738,0.883-1.248,1.268c-0.5,0.379-0.705,0.93-0.815,1.533
						c-0.153,0.842-0.111,1.604-0.959,2.031c-0.478,0.242-1.052,0.365-1.577,0.456C88.399,99.241,88.632,100.022,89.242,99.917
						L89.242,99.917z"/>
				</g>
			</g>
			<g opacity="0.44">
				<g>
					<path fill="#BE1E2D" d="M91.874,97.869c-0.096,0.006-0.135-0.085-0.056,0.025c0.038,0.054,0.067,0.117,0.098,0.176
						c0.067,0.129,0.137,0.248,0.24,0.353c0.294,0.296,0.725,0.353,1.12,0.258c0.648-0.154,1.524-0.512,1.713-1.231
						c0.128-0.492-0.864-0.39-0.982,0.061c0.044-0.167,0.003-0.035-0.019,0.006c-0.034,0.065-0.152,0.142-0.22,0.191
						c-0.181,0.133-0.647,0.392-0.827,0.17c-0.315-0.391-0.377-0.8-0.995-0.762C91.383,97.149,91.217,97.909,91.874,97.869
						L91.874,97.869z"/>
				</g>
			</g>
			<g opacity="0.44">
				<g>
					<path fill="#BE1E2D" d="M93.054,105.826c0.2-0.279,0.419-0.544,0.65-0.799c0.067-0.071,0.138-0.146,0.21-0.209
						c0.171-0.166,0.297-0.104,0.079-0.198c0.251,0.108,0.477,0.108,0.739,0.05c0.788-0.176,1.115-0.929,1.455-1.555
						c-0.153,0.064-0.306,0.128-0.459,0.191c0.238,0.021,0.478,0.049,0.717,0.069c0.652,0.063,0.53-0.665-0.021-0.724
						c-0.238-0.023-0.478-0.053-0.717-0.073c-0.19-0.021-0.362,0.013-0.459,0.188c-0.119,0.222-0.358,0.709-0.428,0.775
						c-0.162,0.159-0.345,0.286-0.543,0.396c-0.085,0.05-0.327-0.051-0.44-0.054c-0.667-0.009-1.288,0.957-1.627,1.431
						C91.912,105.74,92.795,106.186,93.054,105.826L93.054,105.826z"/>
				</g>
			</g>
			<g opacity="0.44">
				<g>
					<path fill="#BE1E2D" d="M99,108.372c0.42-0.696,0.019-1.386-0.202-2.077c-0.062,0.045-0.123,0.09-0.185,0.135
						c0.426-0.035,0.852-0.072,1.276-0.109c-0.158-0.034-0.316-0.072-0.475-0.111c0.255,0.109,0.511,0.229,0.767,0.343
						c0.156,0.07,0.459,0.194,0.625,0.078c0.156-0.11-0.183-0.312-0.25-0.342c-0.354-0.156-0.854-0.492-1.251-0.458
						c-0.422,0.037-0.845,0.068-1.267,0.105c-0.068,0.006-0.22,0.024-0.185,0.135c0.208,0.654,0.598,1.312,0.202,1.973
						C97.936,108.236,98.838,108.639,99,108.372L99,108.372z"/>
				</g>
			</g>
			<g opacity="0.44">
				<g>
					<path fill="#BE1E2D" d="M93.554,88.155c0.045,0.541,0.328,1.278,0.944,1.377c0.74,0.118,1.641-0.288,2.351-0.486
						c-0.231-0.165-0.464-0.33-0.695-0.495c-0.069,0.563-0.139,1.127-0.207,1.69c-0.047,0.375,0.506,0.644,0.8,0.451
						c0.292-0.19,0.585-0.381,0.877-0.571c0.502-0.326-0.205-0.992-0.631-0.715c-0.292,0.19-0.585,0.381-0.877,0.571
						c0.267,0.15,0.533,0.301,0.8,0.451c0.069-0.562,0.139-1.127,0.207-1.69c0.043-0.346-0.405-0.576-0.695-0.495
						c-0.421,0.117-0.843,0.23-1.265,0.338c-0.29,0.074-0.489,0.25-0.586-0.065c-0.038-0.125-0.059-0.259-0.069-0.39
						C94.465,87.62,93.504,87.559,93.554,88.155L93.554,88.155z"/>
				</g>
			</g>
			
				<polyline opacity="0.44" fill="none" stroke="#BE1E2D" stroke-width="0.4" stroke-miterlimit="10" enable-background="new    " points="
				90.58,99.329 91.646,100.101 92.659,100.07 93.392,100.982 94.333,101.284 			"/>
			
				<polyline opacity="0.44" fill="none" stroke="#BE1E2D" stroke-width="0.4" stroke-miterlimit="10" enable-background="new    " points="
				94.339,89.071 94.062,90.45 94.642,90.372 95.289,91.443 95.34,92.127 			"/>
			
				<polyline opacity="0.44" fill="none" stroke="#BE1E2D" stroke-width="0.4" stroke-miterlimit="10" enable-background="new    " points="
				89.642,93.464 90.896,92.469 91.201,93.408 92.511,92.941 92.998,92.271 			"/>
			
				<polyline opacity="0.44" fill="none" stroke="#BE1E2D" stroke-width="0.4" stroke-miterlimit="10" enable-background="new    " points="
				91.201,93.408 91.455,94.775 92.152,94.899 			"/>
			
				<polyline opacity="0.44" fill="none" stroke="#BE1E2D" stroke-width="0.4" stroke-miterlimit="10" enable-background="new    " points="
				94.412,104.465 95.796,104.665 96.377,103.863 98.064,104.746 99.333,102.702 			"/>
			
				<polyline opacity="0.44" fill="none" stroke="#BE1E2D" stroke-width="0.4" stroke-miterlimit="10" enable-background="new    " points="
				97.974,98.904 96.917,98.729 96.142,99.035 94.892,98.131 94.128,98.039 			"/>
			
				<polyline opacity="0.44" fill="none" stroke="#BE1E2D" stroke-width="0.4" stroke-miterlimit="10" enable-background="new    " points="
				99.826,86.478 100.749,87.646 101.963,88.016 101.314,88.386 102.258,88.738 			"/>
			
				<polyline opacity="0.44" fill="none" stroke="#BE1E2D" stroke-width="0.4" stroke-miterlimit="10" enable-background="new    " points="
				102.986,107.762 103.744,106.572 103.244,106.211 105.014,105.418 105.406,104.876 			"/>
		</g>
		
			<radialGradient id="SVGID_47_" cx="-403.8472" cy="-1702.6328" r="45.0464" gradientTransform="matrix(0.9066 -0.422 -0.2837 -0.6096 -52.7797 -1201.2771)" gradientUnits="userSpaceOnUse">
			<stop  offset="0.0123" style="stop-color:#735543"/>
			<stop  offset="1" style="stop-color:#1C0F00"/>
		</radialGradient>
		<polygon fill="url(#SVGID_47_)" points="81.322,18.021 72.974,9.695 71.579,14.642 55.134,16.958 64.216,20.43 45.053,32.243 
			54.019,32.725 51.433,43.268 63.027,37.309 67.828,46.078 82.627,34.547 86.814,36.928 86.886,25.564 95.162,28.286 
			89.326,22.342 92.423,13.849 		"/>
		
			<radialGradient id="SVGID_48_" cx="-340.8169" cy="-1722.4624" r="9.5446" gradientTransform="matrix(0.9066 -0.422 -0.2837 -0.6096 -50.3695 -1175.9255)" gradientUnits="userSpaceOnUse">
			<stop  offset="0.0123" style="stop-color:#735543"/>
			<stop  offset="1" style="stop-color:#1C0F00"/>
		</radialGradient>
		<polygon fill="url(#SVGID_48_)" points="123.393,17.783 136.016,20.835 134.562,23.061 		"/>
		
			<radialGradient id="SVGID_49_" cx="-324.1807" cy="-1739.9121" r="7.8355" gradientTransform="matrix(0.9066 -0.422 -0.2837 -0.6096 -51.4965 -1164.5876)" gradientUnits="userSpaceOnUse">
			<stop  offset="0.0123" style="stop-color:#735543"/>
			<stop  offset="1" style="stop-color:#1C0F00"/>
		</radialGradient>
		<polygon fill="url(#SVGID_49_)" points="144.363,32.459 152.967,38.011 148.021,38.146 		"/>
		
			<radialGradient id="SVGID_50_" cx="-363.3032" cy="-1738.127" r="7.5487" gradientTransform="matrix(0.9066 -0.422 -0.2837 -0.6096 -54.5101 -1176.3162)" gradientUnits="userSpaceOnUse">
			<stop  offset="0.0123" style="stop-color:#735543"/>
			<stop  offset="1" style="stop-color:#1C0F00"/>
		</radialGradient>
		<polygon fill="url(#SVGID_50_)" points="108.221,37.55 109.641,43.212 110.242,35.324 		"/>
		
			<radialGradient id="SVGID_51_" cx="-359.8496" cy="-1720.6152" r="6.7339" gradientTransform="matrix(0.9066 -0.422 -0.2837 -0.6096 -51.6957 -1182.0056)" gradientUnits="userSpaceOnUse">
			<stop  offset="0.0123" style="stop-color:#735543"/>
			<stop  offset="1" style="stop-color:#1C0F00"/>
		</radialGradient>
		<polygon fill="url(#SVGID_51_)" points="106.762,22.765 114.283,17.449 110.924,22.964 		"/>
		
			<radialGradient id="SVGID_52_" cx="-438.0366" cy="-1746.4873" r="7.098" gradientTransform="matrix(0.9066 -0.422 -0.2837 -0.6096 -61.9633 -1194.2439)" gradientUnits="userSpaceOnUse">
			<stop  offset="0.0123" style="stop-color:#735543"/>
			<stop  offset="1" style="stop-color:#1C0F00"/>
		</radialGradient>
		<polygon fill="url(#SVGID_52_)" points="39.378,54.011 33.458,60.731 40.701,57.956 		"/>
		
			<radialGradient id="SVGID_53_" cx="-419.5049" cy="-1758.6582" r="10.2201" gradientTransform="matrix(0.9066 -0.422 -0.2837 -0.6096 -62.1703 -1184.3787)" gradientUnits="userSpaceOnUse">
			<stop  offset="0.0123" style="stop-color:#735543"/>
			<stop  offset="1" style="stop-color:#1C0F00"/>
		</radialGradient>
		<polygon fill="url(#SVGID_53_)" points="54.479,64.896 55.738,73.824 58.285,63.002 		"/>
		
			<radialGradient id="SVGID_54_" cx="-38.6572" cy="-656.3779" r="24.2494" gradientTransform="matrix(0.9902 -0.1395 -0.1395 -0.9902 -128.0236 -644.518)" gradientUnits="userSpaceOnUse">
			<stop  offset="0.0123" style="stop-color:#735543"/>
			<stop  offset="1" style="stop-color:#1C0F00"/>
		</radialGradient>
		<polygon fill="url(#SVGID_54_)" points="37.78,81.775 30.755,87.318 35.395,87.08 33.109,94.74 34.428,96.536 34.193,102.42 
			39.596,100.939 43.472,105.316 45.065,101.532 49.482,105.736 48.627,99.668 53.434,103.771 47.63,92.59 51.642,91.057 
			46.851,87.06 50.719,84.506 39.777,86.047 42.015,79.885 38.855,83.384 		"/>
	</g>
</g>
</svg>
