<?xml version="1.0" encoding="utf-8"?>
<!-- Generator: Adobe Illustrator 15.0.0, SVG Export Plug-In . SVG Version: 6.00 Build 0)  -->
<!DOCTYPE svg PUBLIC "-//W3C//DTD SVG 1.1//EN" "http://www.w3.org/Graphics/SVG/1.1/DTD/svg11.dtd">
<svg version="1.1" id="Layer_1" xmlns="http://www.w3.org/2000/svg" xmlns:xlink="http://www.w3.org/1999/xlink" x="0px" y="0px"
	 width="200px" height="200px" viewBox="0 0 200 200" enable-background="new 0 0 200 200" xml:space="preserve">
<g id="icon">
	<g id="Layer_2">
	</g>
	<g>
		<path fill="#8D385D" d="M97.824,168.061c-3.144,0-6.308-0.463-9.403-1.377c-0.521-0.156-1.039-0.317-1.554-0.5l-1.047-0.363
			c-1.438,0.66-3.023,0.992-4.733,0.992c-5.986,0-12.177-3.965-17.975-8.248c-2.188-1.614-4.156-2.528-5.893-3.338
			c-2.72-1.264-5.515-2.562-7.037-6.014l-0.355,0.064c-1.604,0.283-3.162,0.424-4.675,0.424c-7.011,0-13.179-2.919-17.367-8.221
			c-5.097-6.451-6.621-15.463-4.294-25.393c0.043-0.3,0.088-0.58,0.131-0.829c-4.307-8.368-8.405-24.406-5.423-34.85
			c1.071-3.75,2.97-6.484,5.65-8.139c0.324-8.775,3.78-15.651,9.641-19.056c0.158-0.1,0.32-0.188,0.484-0.264
			c1.643-0.881,3.441-1.475,5.349-1.767c0.238-0.061,0.456-0.115,0.651-0.161c0.825-0.917,1.723-1.742,2.68-2.46
			c3.263-2.455,7.14-3.7,11.522-3.7c0.833,0,1.687,0.047,2.553,0.139c4.929-4.277,11.292-6.529,18.501-6.529
			c8.637,0,17.335,3.274,23.268,8.759c1.678,1.551,3.126,3.326,4.525,5.042c2.138,2.621,4.156,5.096,6.623,6.337
			c1.377,0.692,3.275,1.069,5.119,1.433c2.479,0.491,4.818,0.954,6.506,2.276c1.291,1.013,2.188,2.314,2.854,3.492l1.688,0.87
			c0.205,0.095,0.479,0.234,0.75,0.386l0.117,0.064c4.523,2.6,6.836,7.543,8.877,11.904c1.032,2.209,2.01,4.295,3.166,5.93
			c0.461,0.651,1.067,0.953,2.191,1.474c0.914,0.423,1.951,0.903,2.982,1.735c7.17,5.788,12.771,24.893,5.646,35.743
			c-0.046,0.067-0.092,0.142-0.14,0.205l0.729,3.567l-0.012,0.029c1.992,11.199-0.151,21.594-5.938,28.629
			c-4.146,5.037-9.836,7.812-16.031,7.812l0,0c-2.838,0-5.744-0.577-8.643-1.715c-0.412-0.146-0.857-0.334-1.324-0.559
			c-0.482-0.219-1.011-0.474-1.533-0.744C111.766,165.568,105.045,168.061,97.824,168.061z"/>
		<path fill="#8D385D" d="M153.029,150.723c-1.481,0-3.006-0.184-4.53-0.546l-2.247-0.534l-0.059-2.309
			c-0.055-2.176,0.307-3.941,0.625-5.5c0.199-0.977,0.39-1.898,0.459-2.844c0.229-3.104-0.312-6.338-0.791-9.191
			c-0.412-2.456-0.771-4.576-0.646-6.449c0.104-1.646,0.807-3.023,1.369-4.137c0.229-0.445,0.461-0.906,0.538-1.171
			c2.854-9.784,0.705-20.364-5.229-25.726c-0.425-0.382-1.039-0.731-1.752-1.137c-1.021-0.581-2.184-1.239-3.303-2.281
			c-2.428-2.257-3.885-5.567-5.294-8.77c-1.142-2.588-2.315-5.265-3.92-7.157c-0.209-0.246-0.692-0.634-1.122-0.976
			c-0.463-0.37-0.982-0.786-1.475-1.256l-2.535-2.205c-1.479-0.769-2.573-1.864-3.551-2.842c-1.059-1.061-1.971-1.978-3.24-2.396
			c-1.113-0.367-2.322-0.551-3.604-0.746c-2.461-0.375-5.25-0.801-7.699-2.696c-1.809-1.399-2.817-3.128-3.633-4.517
			c-0.67-1.142-1.2-2.043-1.99-2.596l-1.154-0.808l-0.08-0.965l-0.89-1.168c-3.773-2.987-7.396-5.76-12.934-6.271l-5.977-0.551
			l4.028-4.449c4.312-4.764,10.677-7.388,17.921-7.388c5.824,0,11.81,1.644,16.958,4.641l4.557-0.002
			c13.089,0,21.104,6.183,27.216,12.27c0.8,0.675,1.138,1.415,1.265,2.03c3.287,2.311,5.875,5.478,7.717,9.445l0.285,0.143
			l0.273,1.143c0.217,0.526,0.42,1.062,0.612,1.617l0.834,2.407c5.336,3.969,8.202,10.528,7.731,17.891
			c-0.029,0.466-0.072,0.94-0.13,1.423c7.479,2.557,12.155,11.325,12.878,19.219c0.141,1.543,0.092,3.131-0.15,4.838l0.734,3.383
			c2.449,9.14,1.299,19.373-2.885,25.502c-2.38,3.489-5.605,5.548-9.333,5.95c-0.073,0.008-0.146,0.016-0.224,0.021l-2.596,2.205
			C162.186,148.889,157.798,150.723,153.029,150.723z"/>
		
			<radialGradient id="SVGID_1_" cx="179.626" cy="1083.9395" r="111.374" gradientTransform="matrix(0.9635 0 0 1.1374 -76.6089 -1171.9431)" gradientUnits="userSpaceOnUse">
			<stop  offset="0" style="stop-color:#FFC2E1"/>
			<stop  offset="0.1711" style="stop-color:#FDBFDD"/>
			<stop  offset="0.324" style="stop-color:#F6B6D3"/>
			<stop  offset="0.4698" style="stop-color:#ECA7C0"/>
			<stop  offset="0.6106" style="stop-color:#DC92A7"/>
			<stop  offset="0.638" style="stop-color:#D98DA1"/>
			<stop  offset="0.6975" style="stop-color:#CE8195"/>
			<stop  offset="0.8049" style="stop-color:#B06177"/>
			<stop  offset="0.8282" style="stop-color:#A9596F"/>
			<stop  offset="1" style="stop-color:#DE8FA8"/>
		</radialGradient>
		<path fill="url(#SVGID_1_)" d="M101.309,49.839c4.854,10.443,8.301,8.605,15.09,10.292c4.312,1.07,6.283,4.889,9.726,6.333
			c1.771,1.609,4.062,3.104,7.041,7.521c1.646,2.44,2.11,5.655,3.688,8.708c2.086,4.043,6.051,4.838,9.051,7.916
			c4.18,4.283,7.189,11.991,6.371,21.771c-0.352,4.198-2.729,7.492-3.019,11.082c-0.179,2.218,1.05,4.491,1.343,7.125
			c0.647,5.836-0.264,11.157-1.343,16.625c7.076,1.492,13.712-0.603,16.097-5.938c-4.929-2.407-8.717-8.025-7.377-15.832
			c0.857-5.021,6.28-8.176,6.25-13.346c-0.834,0.469-1.793-0.06-2.896-0.113c3.005-2.123,5.654-4.668,8.045-7.52
			c-0.703,2.996-2.379,5.889-4.479,7.236c-0.449,8.555-6.527,9.082-5.58,18.49c0.695,6.877,4.918,10.629,10.061,9.896
			c9.824-1.399,12.229-15.489,9.229-26.114c-1.045,1.67-2.438,4.481-2.854,7.906c-1.702-4.943,2.012-8.979,2.348-14.249
			c0.732-11.527-6.474-22.623-17.101-20.979c-0.231,2.254,0.565,3.288,0.336,5.541c-2.137-6.584-4.248-13.193-9.728-15.832
			c4.302-0.326,7.437,4.153,8.72,8.708c1.35-0.519,2.702-1.03,4.692-0.791c3.104-15.552-15.985-26.546-23.807-16.229
			c0,0-1.296-1.764,2.012-3.958c-0.465-6.181-2.623-10.36-5.697-13.458c2.035-0.536,3.873,2.636,4.744,4.089
			c1.125,2.208,1.487,5.307,2.631,8.577c3.666-1.473,8.089-1.453,11.387,0.424c-0.811-3.501-2.495-7.064-5.305-9.193
			c-1.883-3.307-9.69-10.058-14.799-12.605l-0.754-0.448c-1.863-1.184-5.337-2.316-8.637-2.718
			c-2.339-0.286-3.047,0.243-5.447,0.027c1.971,2.819,4.756,4.562,4.442,7.889c1.116,0,2.233,0,3.353,0
			c-2.103,1.212-5.176,1.279-6.705,3.167c0.097-1.865,2.054-1.536,2.349-3.167c-6.979-11.883-28.742-18.14-40.154-6.129
			c5.828,1.826,10.787,3.239,15.344,7.712C100.339,48.864,100.811,49.481,101.309,49.839z"/>
		
			<radialGradient id="SVGID_2_" cx="311.4307" cy="1230.416" r="124.5346" gradientTransform="matrix(1 0 0 1 -200 -1182)" gradientUnits="userSpaceOnUse">
			<stop  offset="0" style="stop-color:#FFC2E1"/>
			<stop  offset="0.1711" style="stop-color:#FDBFDD"/>
			<stop  offset="0.324" style="stop-color:#F6B6D3"/>
			<stop  offset="0.4698" style="stop-color:#ECA7C0"/>
			<stop  offset="0.6106" style="stop-color:#DC92A7"/>
			<stop  offset="0.638" style="stop-color:#D98DA1"/>
			<stop  offset="0.6975" style="stop-color:#CE8195"/>
			<stop  offset="0.8049" style="stop-color:#B06177"/>
			<stop  offset="0.8282" style="stop-color:#A9596F"/>
			<stop  offset="1" style="stop-color:#DE8FA8"/>
		</radialGradient>
		<path fill="url(#SVGID_2_)" d="M115.727,123.064c-0.002-3.098,1.248-2.406,1.676-0.396c1.266,6.654,9.412,11.916,16.769,7.916
			c1.769-0.959,3.831-3.286,6.035-4.354c3.007-1.455,5.688-1.991,6.707-3.166c2.092-2.42,2.819-7.057,3.021-9.104
			c0.914-9.661-2.369-19.438-8.051-23.749c-2.396-1.818-4.648-2.007-6.367-5.146c-2.998-5.473-4.896-12.889-11.4-16.229
			c-0.877,0.934,0.548,2.498,0.336,3.958c-1.305-2.17-1.991-5.365-3.688-7.125c-2.586-2.679-6.729-2.048-11.398-3.958
			c-3.156-1.292-5.176-4.408-8.049-7.521c-6.31-6.835-12.708-11.933-20.454-13.062c-8.16-1.189-17.477,1.87-23.348,6.779
			l-0.123-0.05c-4.467-1.166-5.957,0.209-8.047,0.792c-3.147,0.903-5.629,2.591-7.551,4.941c0,0-1.073,0.34-1.502,0.601
			C30.707,54.588,24.9,66.376,27.55,79.919c-0.896-1.187-1.173-3.102-1.341-5.146c-3.645,0.602-5.196,4.887-5.701,8.708
			c-1.611,12.232,3.311,27.871,8.385,34.436c-0.611,1.203-1.909-2.188-2.349-1.188c-4.521,20.154,7.162,32.754,24.477,29.688
			c0.712-3.065-2.091-3.644-3.353-4.752c-3.02-2.647-4.969-5.937-5.699-11.478c-0.115-0.688-0.053-1.313,0-1.979
			c-0.035-2.547-0.129-4.181,0.709-5.699c-2.121-0.657-3.543-2.696-4.734-4.592c3.644,1.899,7.666,3.354,13.412,2.771
			c-1.793,1.313-4.335,2.168-7.252,2.154c-1.5,8.125,0.313,17.998,7.588,19.219c-0.031,10.566,7.244,9.195,14.082,14.646
			c4.325,3.447,8.014,6.52,12.068,7.124c5.521,0.823,10.449-1.12,11.401-5.937c1.104,2.104-1.081,3.728-1.341,5.541
			c15.1,5.438,31.515-1.557,33.864-17.416c4.09,3.02,8.002,8.146,14.084,7.52c-4.343,2.955-10.317-1.93-13.076-4.75
			c-0.551,4.365-2.724,6.816-5.027,9.105c5.938,4.531,19.443,4.428,23.471-1.979l0.335-0.396c6.517-5.108,7.209-19.277,5.365-30.875
			c-4.882,0.721-8.87,6.234-13.711,8.318c1.301,2.029,2.646,3.557,2.646,7.115c-1.41-2.426-2.225-5.104-4.656-6.324
			c-6.676,1.988-13.153-2.299-14.531-9.172c-1.745,2.561-2.402,4.386-6.627,4.021C112.477,127.41,115.359,126.725,115.727,123.064z
			 M92.255,98.921c-5.354,2.729-10.743,9.267-9.387,17.812c1.129,7.109,8.602,10.688,15.088,6.729
			c-0.612,1.256-0.855,2.949-1.341,4.354c-0.194-0.696,0.405-2.325-0.336-2.375c-13.02,5.912-20.196-12.795-12.556-21.221
			c-2.953-1.767-4.375-2-4.625-7.75c-0.048-1.109,0.263-2.388,0-3.563c-1.26-5.632-6.188-11.515-10.938-10.874
			c-7.973,1.072-3.414,17.922-13.457,14.513c7.869,1.001,4.475-10.776,8.717-15.437c1.779-1.955,2.928-2.264,6.035-2.771
			c0-0.009,0-0.017,0-0.025c0.319-0.031,0.605-0.039,0.854-0.025c7.033,1.243,7.239,6.043,9.909,10.536
			c0.467-0.504,0.145-1.939,1.004-1.979c-1.354,7.188,0.21,13.833,4.875,15.188C87.632,100.54,90.162,98.435,92.255,98.921z
			 M58.411,58.345c4.322-3.02,8.191-3.866,13.502-0.188c2.936-8.188,13.725-7.767,17.325-2.378
			c-10.812-8.063-19.452,4.631-12.39,14.193c-0.784-0.138-1.5-0.313-2.236-0.993c-1.236-1.491-2.201-2.82-2.201-2.82
			c-0.621-1.377-1.183-3.006-1.085-5.234c-4.398-4.116-10.774-3.613-13.94,1.582c-2.293,3.76-1.254,9.883-4.023,13.062
			C55.261,67.537,55.26,60.548,58.411,58.345z M50.01,110.795c-6.096-0.771-12.192-7.975-12.071-14.645
			c0.106-5.853,3.439-8.543,6.037-12.271c-2.323-0.824-4.748-3.627-5.03-5.542c1.582,2.619,5.028,4.132,8.653,4.507
			c-9.011,6.312-7.362,20.135,0.25,24.25c6.499,3.516,13.459-0.725,19.961-2.451c0.234-1.572,0.057-4.562,1.311-4.932
			c-0.51,6.277,2.29,8.645,4.023,12.27c-2.55-0.812-3.646-2.812-4.92-5.137C61.757,106.281,56.724,111.645,50.01,110.795z
			 M87.228,138.898c-10.422,2.355-11.714-12.51-17.379-14.057c-7.893-2.148-11.66,8.41-5.422,13.266
			c0.347-1.321,1.188-4.121,2.012-3.562c-2.079,4.033-0.709,11.113,1.341,13.854c-2.686-1.562-4.486-5.433-3.688-9.896
			c-7.783-4.806-4.459-19.267,5.364-17.021c7.337,1.677,8.928,18.021,19.018,14.613c1.732,7.729,14.133,11.688,17.529,5.178
			C102.048,151.203,90.44,146.535,87.228,138.898z M111.368,94.171c-3.722-2.347-10.538,1.872-13.895-1.888
			c-1.626-1.824-3.267-5.39-2.172-8.584c0,0,0.405-1.056,0.672-1.979c0.952-3.498,4.626-6.062,7.347-6.153
			c-4.902,1.418-8.337,12.161-3.354,15.436c3.892,2.557,7.892-1.488,11.382-0.471c5.733,1.668,3.957,12.309,10.125,13.312
			c-3.58,12.621,7.797,13.205,13.026,10.116c-2.374,1.286-3.886,2.698-6.733,3.884c-1.231,0.736-2.875,0.76-5.67,0.074
			c-4.492-1.1-6.199-8.879-3.354-12.666C113.68,105.523,115.333,96.673,111.368,94.171z"/>
		
			<linearGradient id="SVGID_3_" gradientUnits="userSpaceOnUse" x1="293.6641" y1="1291.0537" x2="282.2965" y2="1310.2776" gradientTransform="matrix(1 0 0 1 -200 -1182)">
			<stop  offset="0" style="stop-color:#FFC2E1"/>
			<stop  offset="0.3633" style="stop-color:#F3B1CD"/>
			<stop  offset="1" style="stop-color:#D98DA1"/>
		</linearGradient>
		<path fill="url(#SVGID_3_)" d="M82.031,122.136c-0.298-0.5-1.404-2.969-1.438-3.524c-0.885-1.848-1.009-6.061-1.138-8.159
			c-2.556,9.083,3.412,23.063,14.312,18.114c0.741,0.053,0.143,1.682,0.335,2.375c0.486-1.402,0.729-3.1,1.342-4.354
			C89.77,128.445,85.403,127.797,82.031,122.136z"/>
		
			<linearGradient id="SVGID_4_" gradientUnits="userSpaceOnUse" x1="288.5322" y1="1345.3545" x2="289.0097" y2="1345.3545" gradientTransform="matrix(1 0 0 1 -200 -1182)">
			<stop  offset="0" style="stop-color:#FFC2E1"/>
			<stop  offset="0.3633" style="stop-color:#F3B1CD"/>
			<stop  offset="1" style="stop-color:#D98DA1"/>
		</linearGradient>
		<path fill="url(#SVGID_4_)" d="M88.727,162.898c-0.052,0.26-0.12,0.509-0.194,0.752c0.16,0.055,0.319,0.105,0.479,0.16
			C88.976,163.516,88.892,163.213,88.727,162.898z"/>
		
			<linearGradient id="SVGID_5_" gradientUnits="userSpaceOnUse" x1="301.042" y1="1288.2764" x2="295.7927" y2="1298.0251" gradientTransform="matrix(1 0 0 1 -200 -1182)">
			<stop  offset="0" style="stop-color:#FFC2E1"/>
			<stop  offset="0.3633" style="stop-color:#F3B1CD"/>
			<stop  offset="1" style="stop-color:#D98DA1"/>
		</linearGradient>
		<path fill="url(#SVGID_5_)" d="M105.492,146.273c-3.396,6.51-17.054,2.199-18.786-5.534c-10.09,3.411-10.425-12.58-17.762-14.257
			c-2.82-0.646-4.551-0.354-5.677,1.524c-0.835,1.599-0.778,2.376-0.374,4.25c0.374,1.875,1.036-1.612,4.812-0.587
			c5.664,1.543,7.641,13.639,18.062,11.271C88.981,150.586,101.536,156.203,105.492,146.273z"/>
		
			<linearGradient id="SVGID_6_" gradientUnits="userSpaceOnUse" x1="266.8906" y1="1308.6396" x2="263.9535" y2="1313.3265" gradientTransform="matrix(1 0 0 1 -200 -1182)">
			<stop  offset="0" style="stop-color:#FFC2E1"/>
			<stop  offset="0.3633" style="stop-color:#F3B1CD"/>
			<stop  offset="1" style="stop-color:#D98DA1"/>
		</linearGradient>
		<path fill="url(#SVGID_6_)" d="M63.394,140.354c0,0,0.231-1.635,0.188-1.468c-2.686-2.089-4.836-4.672-4.281-7.407
			c-0.574-1.078-1.496,1.906-1.281,3.938C58.581,140.604,62.608,142.479,63.394,140.354z"/>
		
			<linearGradient id="SVGID_7_" gradientUnits="userSpaceOnUse" x1="275.9609" y1="1271.7188" x2="261.9863" y2="1298.8022" gradientTransform="matrix(1 0 0 1 -200 -1182)">
			<stop  offset="0" style="stop-color:#FFC2E1"/>
			<stop  offset="0.3633" style="stop-color:#F3B1CD"/>
			<stop  offset="1" style="stop-color:#D98DA1"/>
		</linearGradient>
		<path fill="url(#SVGID_7_)" d="M63.587,100.719c4.75-0.641,5.182-15.021,12.676-1.781c0.799,1.41-0.029,2.876,0,3.562
			c0.192,4.422,5.436,2.527,5.027,1.511c-1.312-1.019-3.418-2.733-3.584-6.562c-0.048-1.108-0.528-5.053-0.562-5.188
			c-0.807-3.688-3.424-6.823-6.731-7.974c-0.249-0.015-2.062-0.26-2.062-0.25c-2.217,0.361-2.5,1.033-3.269,1.96
			c-2.18,3.791-1.99,5.189-3.773,8.576C60.128,96.324,55.614,101.791,63.587,100.719z"/>
		
			<linearGradient id="SVGID_8_" gradientUnits="userSpaceOnUse" x1="283.9102" y1="1245.2617" x2="291.6585" y2="1280.5044" gradientTransform="matrix(1 0 0 1 -200 -1182)">
			<stop  offset="0" style="stop-color:#FFC2E1"/>
			<stop  offset="0.3633" style="stop-color:#F3B1CD"/>
			<stop  offset="1" style="stop-color:#D98DA1"/>
		</linearGradient>
		<path fill="url(#SVGID_8_)" d="M90.616,59.556c-2.652-3.97-8.473-8.483-13.641-2.349c-0.683,1.64-0.948,3.541-0.705,5.511
			C78.116,57.507,83.95,54.585,90.616,59.556z"/>
		
			<linearGradient id="SVGID_9_" gradientUnits="userSpaceOnUse" x1="220.8818" y1="1263.4482" x2="227.0342" y2="1263.4482" gradientTransform="matrix(1 0 0 1 -200 -1182)">
			<stop  offset="0" style="stop-color:#FFC2E1"/>
			<stop  offset="0.3633" style="stop-color:#F3B1CD"/>
			<stop  offset="1" style="stop-color:#D98DA1"/>
		</linearGradient>
		<path fill="url(#SVGID_9_)" d="M24.769,80.697c0.168,2.044,1.369,3.037,2.265,4.225c-0.55-2.809-1.088-5.402-0.952-7.974
			c-0.104-0.647,0.184-1.5-0.499-1.5c-2.688,0.938-4.122,4.467-4.626,8.288c-0.151,1.152-0.021,2.509-0.062,3.712
			C21.578,84.062,21.583,81.224,24.769,80.697z"/>
		
			<linearGradient id="SVGID_10_" gradientUnits="userSpaceOnUse" x1="238.1309" y1="1265.9473" x2="242.4961" y2="1265.9473" gradientTransform="matrix(1 0 0 1 -200 -1182)">
			<stop  offset="0" style="stop-color:#FFC2E1"/>
			<stop  offset="0.3633" style="stop-color:#F3B1CD"/>
			<stop  offset="1" style="stop-color:#D98DA1"/>
		</linearGradient>
		<path fill="url(#SVGID_10_)" d="M38.901,80.697c-1.475,0.751-0.622,5.283,0.814,6.501c0.267-0.354,2.506-3.04,2.781-3.392
			C40.97,83.053,39.699,82.016,38.901,80.697z"/>
		
			<linearGradient id="SVGID_11_" gradientUnits="userSpaceOnUse" x1="288.5527" y1="1282.75" x2="296.8278" y2="1313.3318" gradientTransform="matrix(1 0 0 1 -200 -1182)">
			<stop  offset="0" style="stop-color:#FFC2E1"/>
			<stop  offset="0.3633" style="stop-color:#F3B1CD"/>
			<stop  offset="1" style="stop-color:#D98DA1"/>
		</linearGradient>
		<path fill="url(#SVGID_11_)" d="M84.649,113.188c1.377-5.205,8.407-5.983,12.244-7.939c-0.849-8.15-8.029-3.104-9.562-1.605
			c-0.375,0.493-0.849,1.143-0.849,1.143C85.21,107.206,84.474,110.04,84.649,113.188z"/>
		
			<linearGradient id="SVGID_12_" gradientUnits="userSpaceOnUse" x1="239.8838" y1="1282.7119" x2="243.5071" y2="1293.457" gradientTransform="matrix(1 0 0 1 -200 -1182)">
			<stop  offset="0" style="stop-color:#FFC2E1"/>
			<stop  offset="0.3633" style="stop-color:#F3B1CD"/>
			<stop  offset="1" style="stop-color:#D98DA1"/>
		</linearGradient>
		<path fill="url(#SVGID_12_)" d="M44.62,126.582c-1.539,6.491,9.898,2.741,7.219-4.259c-2.195,1-5.002,2.192-7.078,1.733
			C44.679,124.896,44.63,125.738,44.62,126.582z"/>
		
			<linearGradient id="SVGID_13_" gradientUnits="userSpaceOnUse" x1="321.2578" y1="1321.8086" x2="321.8407" y2="1323.212" gradientTransform="matrix(1 0 0 1 -200 -1182)">
			<stop  offset="0" style="stop-color:#FFC2E1"/>
			<stop  offset="0.3633" style="stop-color:#F3B1CD"/>
			<stop  offset="1" style="stop-color:#D98DA1"/>
		</linearGradient>
		<path fill="url(#SVGID_13_)" d="M133.111,154.948c-5.662,0.585-5.911-1.382-9.709-4.429c-0.452,1.275-1.073,2.357-1.786,3.334
			C121.199,155.116,128.771,157.902,133.111,154.948z"/>
		
			<linearGradient id="SVGID_14_" gradientUnits="userSpaceOnUse" x1="255.9531" y1="1291.7256" x2="252.5785" y2="1294.6003" gradientTransform="matrix(1 0 0 1 -200 -1182)">
			<stop  offset="0" style="stop-color:#FFC2E1"/>
			<stop  offset="0.3633" style="stop-color:#F3B1CD"/>
			<stop  offset="1" style="stop-color:#D98DA1"/>
		</linearGradient>
		<path fill="url(#SVGID_14_)" d="M40.769,127.198c-0.016-0.979,0.327-3.402,0.398-4.154c-1.638-0.513-2.836-2.283-4.273-3.033
			C32.331,124.387,41.519,132.761,40.769,127.198z"/>
		
			<linearGradient id="SVGID_15_" gradientUnits="userSpaceOnUse" x1="241.0352" y1="1287.4287" x2="231.2801" y2="1298.8096" gradientTransform="matrix(1 0 0 1 -200 -1182)">
			<stop  offset="0" style="stop-color:#FFC2E1"/>
			<stop  offset="0.3633" style="stop-color:#F3B1CD"/>
			<stop  offset="1" style="stop-color:#D98DA1"/>
		</linearGradient>
		<path fill="url(#SVGID_15_)" d="M27.979,124.256c1.125,0.121,2.102-1.933,1.396-3.148c-0.784-1.015-1.562-2.268-2.314-3.668
			c-0.27,1.653-0.432,3.254-0.479,4.791C26.582,123.573,26.582,124.198,27.979,124.256z"/>
		
			<linearGradient id="SVGID_16_" gradientUnits="userSpaceOnUse" x1="254.7812" y1="1274.917" x2="253.2814" y2="1310.9161" gradientTransform="matrix(1 0 0 1 -200 -1182)">
			<stop  offset="0" style="stop-color:#FFC2E1"/>
			<stop  offset="0.3633" style="stop-color:#F3B1CD"/>
			<stop  offset="1" style="stop-color:#D98DA1"/>
		</linearGradient>
		<path fill="url(#SVGID_16_)" d="M48.662,113.812c6.714,0.85,11.747-4.519,18.214-3.951c1.273,2.324,2.37,4.324,4.92,5.139
			c-1.443-3.018-5.221-8.1-5.334-7.339c-6.502,1.728-13.463,5.967-19.961,2.45c-2.223-1.2-4.969-2.75-6.726-5.662
			c-2.587-4.313-2.29-5.728-2.614-8.96c-0.334,1.088-0.545,2.292-0.57,3.678C36.47,105.836,42.566,113.041,48.662,113.812z"/>
		
			<linearGradient id="SVGID_17_" gradientUnits="userSpaceOnUse" x1="339.3594" y1="1305.9053" x2="340.4844" y2="1313.5316" gradientTransform="matrix(1 0 0 1 -200 -1182)">
			<stop  offset="0" style="stop-color:#FFC2E1"/>
			<stop  offset="0.3633" style="stop-color:#F3B1CD"/>
			<stop  offset="1" style="stop-color:#D98DA1"/>
		</linearGradient>
		<path fill="url(#SVGID_17_)" d="M144.05,126.996c-1.188,0.64-2.062,1.296-5.062,3.482c-1.249,0.912-2.26,1.428-3.346,2.1
			c-0.361,0.225-1.029,0.775-0.734,1.473c0.236,0.522,1.062,0.301,1.418,0.061c3.299-2.244,6.115-4.281,7.725-3.381
			c1.188,1.875,1.727,7.688,1.502,12.231c0.818-5.149,1.014-9.957,0.312-15.481C145.456,125.886,144.461,126.773,144.05,126.996z"/>
		
			<linearGradient id="SVGID_18_" gradientUnits="userSpaceOnUse" x1="246.1611" y1="1260.3096" x2="248.8526" y2="1284.6671" gradientTransform="matrix(1 0 0 1 -200 -1182)">
			<stop  offset="0" style="stop-color:#FFC2E1"/>
			<stop  offset="0.3633" style="stop-color:#F3B1CD"/>
			<stop  offset="1" style="stop-color:#D98DA1"/>
		</linearGradient>
		<path fill="url(#SVGID_18_)" d="M52.769,83.731c-3.143-1.658-7.558,1.217-8.75,3.717c-0.459,0.659-0.834,1.793-1.425,2.933
			c-0.461,1.676-0.635,3.409-0.542,5.107C43.62,98.323,50.839,88.698,52.769,83.731z"/>
		
			<linearGradient id="SVGID_19_" gradientUnits="userSpaceOnUse" x1="289.2949" y1="1263.4482" x2="279.2946" y2="1283.6989" gradientTransform="matrix(1 0 0 1 -200 -1182)">
			<stop  offset="0" style="stop-color:#FFC2E1"/>
			<stop  offset="0.3633" style="stop-color:#F3B1CD"/>
			<stop  offset="1" style="stop-color:#D98DA1"/>
		</linearGradient>
		<path fill="url(#SVGID_19_)" d="M140.055,89.82c-2.312-1.756-4.492-1.938-6.152-4.97c-2.896-5.286-4.729-12.448-11.01-15.674
			c-0.849,0.902,0.526,2.413,0.323,3.823c-1.261-2.096-1.924-5.182-3.562-6.881c-2.496-2.587-6.502-1.978-11.01-3.822
			c-3.054-1.248-4.998-4.258-7.773-7.264C94.78,48.43,88.6,43.507,81.118,42.416c-7.881-1.148-16.879,1.807-22.55,6.547
			l-0.118-0.048c-4.314-1.125-5.754,0.202-7.772,0.765c-3.039,0.872-5.436,2.502-7.291,4.772c0,0-1.038,0.329-1.452,0.58
			c-7.605,0.315-12.743,8.059-12.915,18.066c1.474-7.571,6.094-12.975,12.42-13.237c0.415-0.251,1.453-0.58,1.453-0.58
			c1.855-2.271,4.252-3.9,7.291-4.772c2.019-0.563,12.021-1.436,16.336-0.31l6.5-2.001c5.67-4.741-0.276-6.102,7.604-4.953
			c7.482,1.091,13.663,6.015,19.754,12.616c2.774,3.006,4.724,6.016,7.772,7.264c4.509,1.844,8.095,3.903,4.619,4.823
			c-10.394,2.751-5.514,6.653-4.25,8.749c0.203-1.41,5.65,4.152,6.5,3.25c6.28,3.227,9.439-7.785,12.338-2.499
			c1.66,3.031,9.891,11.444,12.203,13.201c0.938,0.712-7.56,0.018-11.375,8.419c-3.942,13.13,16.502-5.49,16.334,1.459
			c0.19-0.993,2.01-0.98,1.772-3.812C145.861,95.488,145.539,93.982,140.055,89.82z"/>
		
			<linearGradient id="SVGID_20_" gradientUnits="userSpaceOnUse" x1="320.8066" y1="1291.043" x2="320.9614" y2="1291.043" gradientTransform="matrix(1 0 0 1 -200 -1182)">
			<stop  offset="0" style="stop-color:#FFC2E1"/>
			<stop  offset="0.3633" style="stop-color:#F3B1CD"/>
			<stop  offset="1" style="stop-color:#D98DA1"/>
		</linearGradient>
		<path fill="url(#SVGID_20_)" d="M120.809,108.803c0.008,0.165,0.024,0.322,0.043,0.481c0.037-0.147,0.067-0.288,0.11-0.438
			C120.904,108.836,120.861,108.812,120.809,108.803z"/>
		
			<linearGradient id="SVGID_21_" gradientUnits="userSpaceOnUse" x1="330.1543" y1="1292.502" x2="323.5418" y2="1319.6128" gradientTransform="matrix(1 0 0 1 -200 -1182)">
			<stop  offset="0" style="stop-color:#FFC2E1"/>
			<stop  offset="0.3633" style="stop-color:#F3B1CD"/>
			<stop  offset="1" style="stop-color:#D98DA1"/>
		</linearGradient>
		<path fill="url(#SVGID_21_)" d="M122.27,124.042c2.166,1.235,6.625,1.276,10.5-1.122c7.795-6.972,2.562-7.921,2.562-7.921
			c-3.493,2.062-9.438,5.699-14.523,4.252C118.579,118.404,118.688,122,122.27,124.042z"/>
		
			<linearGradient id="SVGID_22_" gradientUnits="userSpaceOnUse" x1="269.5762" y1="1240.2812" x2="260.4028" y2="1277.5088" gradientTransform="matrix(1 0 0 1 -200 -1182)">
			<stop  offset="0" style="stop-color:#FFC2E1"/>
			<stop  offset="0.3633" style="stop-color:#F3B1CD"/>
			<stop  offset="1" style="stop-color:#D98DA1"/>
		</linearGradient>
		<path fill="url(#SVGID_22_)" d="M59.267,69.073c3.166-5.195,5.377-2.75,8.001-1.439c1.751,0.814,4.011,2.146,4.632,3.523
			c0,0,0.965,1.329,2.201,2.82c0.736,0.678,1.451,0.854,2.236,0.993c-1.674-2.267-2.457-4.708-2.547-7.008
			c-0.815-1.029-1.379-1.805-1.379-1.805c-0.403-0.894-1.395-1.278-1.584-2.479c-0.013,0.034-0.172-1.64-0.184-1.604
			c-4.508-4.207-8.605-3.439-11.938-0.188c-0.599,0.584-1.409,2.999-1.849,3.893c-0.765,3.088-0.777,6.684-2.214,9.17
			c-0.324,1.875,2,1.956,2.625,0.5C57.972,73.316,56.974,72.833,59.267,69.073z"/>
		
			<linearGradient id="SVGID_23_" gradientUnits="userSpaceOnUse" x1="327.3711" y1="1303.5439" x2="321.1218" y2="1321.292" gradientTransform="matrix(1 0 0 1 -200 -1182)">
			<stop  offset="0" style="stop-color:#FFC2E1"/>
			<stop  offset="0.3633" style="stop-color:#F3B1CD"/>
			<stop  offset="1" style="stop-color:#D98DA1"/>
		</linearGradient>
		<path fill="url(#SVGID_23_)" d="M128.145,135.448c-4.27,0.288-10.42-1.565-11.254-7.778c-0.158-1.184-0.19-0.441-0.64-0.477
			c-0.17,0.078-0.336,0.146-0.5,0.219c-0.28,0.227-0.621,0.639-1.019,1.283c-2.229,2.926-11.215,1.753-5.219,4.912
			c2.754,1.716,14.481,7.143,21.157,5.15c2.437,1.223,3.246,3.9,4.657,6.324c-0.001-3.562-1.348-5.086-2.646-7.113
			C132.126,136.998,131.407,135.229,128.145,135.448z"/>
		
			<linearGradient id="SVGID_24_" gradientUnits="userSpaceOnUse" x1="305.3027" y1="1275.7109" x2="298.3033" y2="1317.2089" gradientTransform="matrix(1 0 0 1 -200 -1182)">
			<stop  offset="0" style="stop-color:#FFC2E1"/>
			<stop  offset="0.3633" style="stop-color:#F3B1CD"/>
			<stop  offset="1" style="stop-color:#D98DA1"/>
		</linearGradient>
		<path fill="url(#SVGID_24_)" d="M95.444,97.948c3.355,3.761,7.228,2.774,10.949,5.12c3.719,2.348,5.707,4.379,9.717,5.135
			c-0.021-1.143-0.361-0.434,0-1.441c-0.527-0.686-0.963-1.492-1.334-2.376c-1.477-1.288-1.875-4.101-2.686-6.562
			c-0.721-1.152-1.648-2.058-3.004-2.452c-3.49-1.018-7.812,3.46-11.381,0.472c-4.959-4.154-3.993-7.639-3.993-11.806
			c-0.192,0.565-0.672,4.501-0.672,4.501C91.945,91.73,93.817,96.125,95.444,97.948z"/>
		
			<linearGradient id="SVGID_25_" gradientUnits="userSpaceOnUse" x1="302.4697" y1="1262.7617" x2="314.8435" y2="1296.6337" gradientTransform="matrix(1 0 0 1 -200 -1182)">
			<stop  offset="0" style="stop-color:#FFC2E1"/>
			<stop  offset="0.3633" style="stop-color:#F3B1CD"/>
			<stop  offset="1" style="stop-color:#D98DA1"/>
		</linearGradient>
		<path fill="url(#SVGID_25_)" d="M105.096,77.693c-1.14-1.603-4.056-0.73-4.936,2.316c-0.323,1.366-0.418,2.753-0.241,4.027
			C100.866,81.032,102.814,78.353,105.096,77.693z"/>
		
			<linearGradient id="SVGID_26_" gradientUnits="userSpaceOnUse" x1="305.1631" y1="1238.127" x2="304.6631" y2="1248.8778" gradientTransform="matrix(1 0 0 1 -200 -1182)">
			<stop  offset="0" style="stop-color:#FFC2E1"/>
			<stop  offset="0.3633" style="stop-color:#F3B1CD"/>
			<stop  offset="1" style="stop-color:#D98DA1"/>
		</linearGradient>
		<path fill="url(#SVGID_26_)" d="M88.644,39.573c0,0,4.525-6.005,14.512-4.375c9.986,1.63,19.738,11.375,19.738,11.375
			s-3.523,2.625-3.574,3.5s-4.301,1.125-7.676,0S98.269,37.198,88.644,39.573z"/>
		
			<linearGradient id="SVGID_27_" gradientUnits="userSpaceOnUse" x1="329.4805" y1="1262.627" x2="328.7504" y2="1278.3208" gradientTransform="matrix(1 0 0 1 -200 -1182)">
			<stop  offset="0" style="stop-color:#FFC2E1"/>
			<stop  offset="0.3633" style="stop-color:#F3B1CD"/>
			<stop  offset="1" style="stop-color:#D98DA1"/>
		</linearGradient>
		<path fill="url(#SVGID_27_)" d="M140.562,62.718c0,0-1.92-11.02-10.42-12.52s-10.672,3.145-9.336,6.26s6.711,8.24,6.711,8.24
			s5.5,4,6,6.25s2.875,1.625,4.375,0S137.129,65.172,140.562,62.718z"/>
		
			<linearGradient id="SVGID_28_" gradientUnits="userSpaceOnUse" x1="354.4531" y1="1257.2598" x2="339.4529" y2="1278.2599" gradientTransform="matrix(1 0 0 1 -200 -1182)">
			<stop  offset="0" style="stop-color:#FFC2E1"/>
			<stop  offset="0.3453" style="stop-color:#F3B1CD"/>
			<stop  offset="0.6598" style="stop-color:#E69FB7"/>
			<stop  offset="1" style="stop-color:#D98DA1"/>
		</linearGradient>
		<path fill="url(#SVGID_28_)" d="M155.02,72.411c0,0-3.601-7.061-8.705-5.712c-5.104,1.349-4.92,4.625-4.92,4.625
			s-0.83,2.024-3.045,2.875c0,0,5.295,2.375,8.795,4.625s6.125,9.819,7.75,11.272c1.625,1.453,6.625,5.603,3.25-2.147
			s-5.799-10.469-8.258-11.491c-2.601-1.081,1.633-1.428,1.633-1.428S158.52,74.748,155.02,72.411z"/>
		
			<linearGradient id="SVGID_29_" gradientUnits="userSpaceOnUse" x1="382.0176" y1="1245.5996" x2="350.016" y2="1311.353" gradientTransform="matrix(1 0 0 1 -200 -1182)">
			<stop  offset="0" style="stop-color:#FFC2E1"/>
			<stop  offset="0.3453" style="stop-color:#F3B1CD"/>
			<stop  offset="0.6598" style="stop-color:#E69FB7"/>
			<stop  offset="1" style="stop-color:#D98DA1"/>
		</linearGradient>
		<path fill="url(#SVGID_29_)" d="M162.895,90.073c0,0-0.375-2.875,3.125-2s7.537,6.075,5,11.75c-2.537,5.675-9.5,9.172-10,9.461
			s-1.125,2.914-1.125,2.914s3.25,0.602,2.25,2.801s-5.5,10.449-5.75,8.699s2.625-9.648,0.875-10.513
			c-1.75-0.863-1.5-5.604,0.125-6.233S164.77,98.073,162.895,90.073z"/>
		
			<linearGradient id="SVGID_30_" gradientUnits="userSpaceOnUse" x1="254.291" y1="1195.8203" x2="335.2987" y2="1271.8274" gradientTransform="matrix(1 0 0 1 -200 -1182)">
			<stop  offset="0" style="stop-color:#FFC2E1"/>
			<stop  offset="0.3453" style="stop-color:#F3B1CD"/>
			<stop  offset="0.6598" style="stop-color:#E69FB7"/>
			<stop  offset="1" style="stop-color:#D98DA1"/>
		</linearGradient>
		<path opacity="0.76" fill="url(#SVGID_30_)" enable-background="new    " d="M177.77,122.323c0,0,1.121,15.007-8,13.909
			c-9.121-1.102-5.5-13.784-2.5-17.534s6.25-11.5,6.5-8.25s-2.5,15.862-0.75,15.682C174.77,125.95,177.77,122.323,177.77,122.323z"
			/>
		
			<linearGradient id="SVGID_31_" gradientUnits="userSpaceOnUse" x1="381.9219" y1="1245.916" x2="379.6719" y2="1252.6655" gradientTransform="matrix(1 0 0 1 -200 -1182)">
			<stop  offset="0" style="stop-color:#FFC2E1"/>
			<stop  offset="0.3453" style="stop-color:#F3B1CD"/>
			<stop  offset="0.6598" style="stop-color:#E69FB7"/>
			<stop  offset="1" style="stop-color:#D98DA1"/>
		</linearGradient>
		<path opacity="0.76" fill="url(#SVGID_31_)" enable-background="new    " d="M156.062,129.043c0,0,1.457,11.188,4.707,12.172
			c3.25,0.983-7.584,7.885-7.834,1.747S152.898,130.377,156.062,129.043z"/>
		
			<radialGradient id="SVGID_32_" cx="179.626" cy="1083.9395" r="111.374" gradientTransform="matrix(0.9635 0 0 1.1374 -76.6089 -1171.9431)" gradientUnits="userSpaceOnUse">
			<stop  offset="0" style="stop-color:#FFC2E1"/>
			<stop  offset="0.1711" style="stop-color:#FDBFDD"/>
			<stop  offset="0.324" style="stop-color:#F6B6D3"/>
			<stop  offset="0.4698" style="stop-color:#ECA7C0"/>
			<stop  offset="0.6106" style="stop-color:#DC92A7"/>
			<stop  offset="0.638" style="stop-color:#D98DA1"/>
			<stop  offset="0.6975" style="stop-color:#CE8195"/>
			<stop  offset="0.8049" style="stop-color:#B06177"/>
			<stop  offset="0.8282" style="stop-color:#A9596F"/>
			<stop  offset="1" style="stop-color:#DE8FA8"/>
		</radialGradient>
		<path fill="url(#SVGID_32_)" d="M101.309,49.839c4.854,10.443,8.301,8.605,15.09,10.292c4.312,1.07,6.283,4.889,9.726,6.333
			c1.771,1.609,4.062,3.104,7.041,7.521c1.646,2.44,2.11,5.655,3.688,8.708c2.086,4.043,6.051,4.838,9.051,7.916
			c4.18,4.283,7.189,11.991,6.371,21.771c-0.352,4.198-2.729,7.492-3.019,11.082c-0.179,2.218,1.05,4.491,1.343,7.125
			c0.647,5.836-0.264,11.157-1.343,16.625c7.076,1.492,13.712-0.603,16.097-5.938c-4.929-2.407-8.717-8.025-7.377-15.832
			c0.857-5.021,6.28-8.176,6.25-13.346c-0.834,0.469-1.793-0.06-2.896-0.113c3.005-2.123,5.654-4.668,8.045-7.52
			c-0.703,2.996-2.379,5.889-4.479,7.236c-0.449,8.555-6.527,9.082-5.58,18.49c0.695,6.877,4.918,10.629,10.061,9.896
			c9.824-1.399,12.229-15.489,9.229-26.114c-1.045,1.67-2.438,4.481-2.854,7.906c-1.702-4.943,2.012-8.979,2.348-14.249
			c0.732-11.527-6.474-22.623-17.101-20.979c-0.231,2.254,0.565,3.288,0.336,5.541c-2.137-6.584-4.248-13.193-9.728-15.832
			c4.302-0.326,7.437,4.153,8.72,8.708c1.35-0.519,2.702-1.03,4.692-0.791c3.104-15.552-15.985-26.546-23.807-16.229
			c0,0-1.296-1.764,2.012-3.958c-0.465-6.181-2.623-10.36-5.697-13.458c2.035-0.536,3.873,2.636,4.744,4.089
			c1.125,2.208,1.487,5.307,2.631,8.577c3.666-1.473,8.089-1.453,11.387,0.424c-0.811-3.501-2.495-7.064-5.305-9.193
			c-1.883-3.307-9.69-10.058-14.799-12.605l-0.754-0.448c-1.863-1.184-5.337-2.316-8.637-2.718
			c-2.339-0.286-3.047,0.243-5.447,0.027c1.971,2.819,4.756,4.562,4.442,7.889c1.116,0,2.233,0,3.353,0
			c-2.103,1.212-5.176,1.279-6.705,3.167c0.097-1.865,2.054-1.536,2.349-3.167c-6.979-11.883-28.742-18.14-40.154-6.129
			c5.828,1.826,10.787,3.239,15.344,7.712C100.339,48.864,100.811,49.481,101.309,49.839z"/>
	</g>
</g>
</svg>
