<?xml version="1.0" encoding="utf-8"?>
<!-- Generator: Adobe Illustrator 15.0.0, SVG Export Plug-In . SVG Version: 6.00 Build 0)  -->
<!DOCTYPE svg PUBLIC "-//W3C//DTD SVG 1.1//EN" "http://www.w3.org/Graphics/SVG/1.1/DTD/svg11.dtd">
<svg version="1.1" id="Layer_1" xmlns="http://www.w3.org/2000/svg" xmlns:xlink="http://www.w3.org/1999/xlink" x="0px" y="0px"
	 width="200px" height="200px" viewBox="0 0 200 200" enable-background="new 0 0 200 200" xml:space="preserve">
<g id="icon">
	<g id="Layer_2">
	</g>
	<g>
		
			<linearGradient id="SVGID_1_" gradientUnits="userSpaceOnUse" x1="271.9541" y1="-556.0137" x2="184.5781" y2="-676.7592" gradientTransform="matrix(1 0 0 -1 -150 -530)">
			<stop  offset="0" style="stop-color:#703800"/>
			<stop  offset="0.1902" style="stop-color:#A65200"/>
			<stop  offset="0.2943" style="stop-color:#A75402"/>
			<stop  offset="0.3506" style="stop-color:#AA590A"/>
			<stop  offset="0.3955" style="stop-color:#AE6218"/>
			<stop  offset="0.4344" style="stop-color:#B56F2B"/>
			<stop  offset="0.469" style="stop-color:#BE8044"/>
			<stop  offset="0.4847" style="stop-color:#C38952"/>
			<stop  offset="0.5767" style="stop-color:#BE8044"/>
			<stop  offset="0.5811" style="stop-color:#BC7D40"/>
			<stop  offset="0.6097" style="stop-color:#B46D28"/>
			<stop  offset="0.6425" style="stop-color:#AE6116"/>
			<stop  offset="0.6816" style="stop-color:#A95809"/>
			<stop  offset="0.7332" style="stop-color:#A75302"/>
			<stop  offset="0.8466" style="stop-color:#A65200"/>
			<stop  offset="0.8856" style="stop-color:#A15000"/>
			<stop  offset="0.9317" style="stop-color:#934900"/>
			<stop  offset="0.981" style="stop-color:#7B3D00"/>
			<stop  offset="1" style="stop-color:#703800"/>
		</linearGradient>
		<path fill="url(#SVGID_1_)" d="M133.893,84.766c1.762,10.188-5.166,22.628-15.479,27.785l-46.018,63.627
			c0,0-44.722-32.365-47.587-35.826c-1.957-2.36-2.877-6.05-2.382-10.789l4.408-54.391c1.22-11.551,10.576-24.297,20.898-28.47
			l56.88-22.128c5.16-2.086,8.279-1.795,12.24,0.228c3.961,2.023,49.562,29.337,49.562,29.337L133.893,84.766z"/>
		
			<linearGradient id="SVGID_2_" gradientUnits="userSpaceOnUse" x1="215.79" y1="-989.2461" x2="330.9814" y2="-989.2461" gradientTransform="matrix(0.9662 -0.3906 -0.011 -1.0306 -153.1992 -800.599)">
			<stop  offset="0" style="stop-color:#703800"/>
			<stop  offset="0.1902" style="stop-color:#A65200"/>
			<stop  offset="0.7521" style="stop-color:#A65200"/>
			<stop  offset="0.8466" style="stop-color:#A65200"/>
			<stop  offset="0.8856" style="stop-color:#A15000"/>
			<stop  offset="0.9317" style="stop-color:#934900"/>
			<stop  offset="0.981" style="stop-color:#7B3D00"/>
			<stop  offset="1" style="stop-color:#703800"/>
		</linearGradient>
		<path fill="url(#SVGID_2_)" d="M177.218,105.688c1.824,10.533-1.321,21.291-11.983,26.623l-81.57,42.506
			c-10.662,5.332-18.281-0.133-17.021-12.207l4.625-56.67c1.26-11.94,10.934-25.121,21.607-29.435l59.123-23.034
			c10.672-4.314,18.893,0.941,20.717,11.637L177.218,105.688z"/>
		
			<linearGradient id="SVGID_3_" gradientUnits="userSpaceOnUse" x1="260.9893" y1="-599.6411" x2="282.6512" y2="-716.183" gradientTransform="matrix(1 0 0 -1 -150 -530)">
			<stop  offset="0" style="stop-color:#FFEDC2"/>
			<stop  offset="1" style="stop-color:#C9904D"/>
		</linearGradient>
		<path fill="url(#SVGID_3_)" d="M162.55,126.943c8.285-4.146,10.111-12.238,8.765-20.188l-4.496-40.527l-0.01-0.056l-0.011-0.056
			c-0.853-4.987-4.396-8.085-9.25-8.085c-1.682,0-3.437,0.364-5.215,1.084L95.12,82.067c-8.656,3.499-16.84,14.7-17.887,24.474
			l-4.621,56.637l-0.002,0.027l-0.004,0.025c-0.32,3.067,0.125,5.607,1.193,6.793c0.322,0.356,0.908,0.836,2.264,0.836
			c0.955,0,2.584-0.245,4.912-1.41L162.55,126.943z"/>
		<path fill="#231F20" d="M163.82,94.61l-1.575-19.659c-0.604-4.99-2.062-8.025-8.562-8.025c-1.988,0-3.234,0.396-5.168,1.18
			L98.392,89.3c-7.014,2.88-12.693,10.566-13.523,18.318l-1.371,16.139l-0.035,0.401c-0.34,4.02-0.635,8.543,2.344,12.146
			c3.734,4.519,10.305,2.601,12.449,1.543l55.344-26.076l2.537-1.438C161.475,107.492,164.393,101.8,163.82,94.61z"/>
		
			<linearGradient id="SVGID_4_" gradientUnits="userSpaceOnUse" x1="269.4463" y1="-608.7236" x2="292.448" y2="-690.7294" gradientTransform="matrix(1 0 0 -1 -150 -530)">
			<stop  offset="0" style="stop-color:#FFEDC2"/>
			<stop  offset="1" style="stop-color:#C9904D"/>
		</linearGradient>
		<polygon fill="url(#SVGID_4_)" points="84.788,107.182 162.087,73.852 162.37,76.531 84.349,110.493 		"/>
		
			<linearGradient id="SVGID_5_" gradientUnits="userSpaceOnUse" x1="270.2344" y1="-608.5034" x2="293.2359" y2="-690.509" gradientTransform="matrix(1 0 0 -1 -150 -530)">
			<stop  offset="0" style="stop-color:#FFEDC2"/>
			<stop  offset="1" style="stop-color:#C9904D"/>
		</linearGradient>
		<polygon fill="url(#SVGID_5_)" points="83.694,100.255 160.995,66.926 161.277,69.605 83.255,103.566 		"/>
		
			<linearGradient id="SVGID_6_" gradientUnits="userSpaceOnUse" x1="267.7754" y1="-609.1943" x2="290.7755" y2="-691.1943" gradientTransform="matrix(1 0 0 -1 -150 -530)">
			<stop  offset="0" style="stop-color:#FFEDC2"/>
			<stop  offset="1" style="stop-color:#C9904D"/>
		</linearGradient>
		<polygon fill="url(#SVGID_6_)" points="83.431,114.82 163.749,80.152 164.032,82.831 82.991,118.133 		"/>
		
			<linearGradient id="SVGID_7_" gradientUnits="userSpaceOnUse" x1="266.0088" y1="-609.6919" x2="289.0058" y2="-691.681" gradientTransform="matrix(1 0 0 -1 -150 -530)">
			<stop  offset="0" style="stop-color:#FFEDC2"/>
			<stop  offset="1" style="stop-color:#C9904D"/>
		</linearGradient>
		<polygon fill="url(#SVGID_7_)" points="83.431,121.613 163.749,86.945 164.032,89.625 82.991,124.926 		"/>
		
			<linearGradient id="SVGID_8_" gradientUnits="userSpaceOnUse" x1="264.2764" y1="-614.7466" x2="287.2735" y2="-696.736" gradientTransform="matrix(1 -0.0043 0 -1 -150 -533.2136)">
			<stop  offset="0" style="stop-color:#FFEDC2"/>
			<stop  offset="1" style="stop-color:#C9904D"/>
		</linearGradient>
		<polygon fill="url(#SVGID_8_)" points="82.185,128.996 164.911,92.951 165.193,95.629 81.745,132.311 		"/>
		
			<linearGradient id="SVGID_9_" gradientUnits="userSpaceOnUse" x1="261.3848" y1="-636.5186" x2="284.3893" y2="-718.5345" gradientTransform="matrix(1.0008 -0.0215 0 -0.9992 -149.4547 -550.1539)">
			<stop  offset="0" style="stop-color:#FFEDC2"/>
			<stop  offset="1" style="stop-color:#C9904D"/>
		</linearGradient>
		<polygon fill="url(#SVGID_9_)" points="82.181,136.984 164.973,99.545 165.255,102.216 81.741,140.305 		"/>
		
			<linearGradient id="SVGID_10_" gradientUnits="userSpaceOnUse" x1="186.7002" y1="-585.3413" x2="207.2002" y2="-603.8413" gradientTransform="matrix(1 0 0 -1 -150 -530)">
			<stop  offset="0" style="stop-color:#FFEDC2"/>
			<stop  offset="1" style="stop-color:#C9904D"/>
		</linearGradient>
		<polygon fill="url(#SVGID_10_)" points="98.265,140.719 152.779,115.331 151.234,128.877 98.315,155.709 		"/>
		<g>
			
				<linearGradient id="SVGID_11_" gradientUnits="userSpaceOnUse" x1="246.1279" y1="-673.7197" x2="272.0828" y2="-724.7642" gradientTransform="matrix(1 0 0 -1 -150 -530)">
				<stop  offset="0" style="stop-color:#703800"/>
				<stop  offset="0.1902" style="stop-color:#A65200"/>
				<stop  offset="0.7521" style="stop-color:#A65200"/>
				<stop  offset="0.8466" style="stop-color:#A65200"/>
				<stop  offset="0.8856" style="stop-color:#A15000"/>
				<stop  offset="0.9317" style="stop-color:#934900"/>
				<stop  offset="0.981" style="stop-color:#7B3D00"/>
				<stop  offset="1" style="stop-color:#703800"/>
			</linearGradient>
			<path fill="url(#SVGID_11_)" d="M104.331,144.538c-0.218,4.164-3.258,8.757-6.795,10.257c-3.537,1.501-6.229-0.658-6.014-4.822
				c0.217-4.164,3.258-8.757,6.795-10.258C101.854,138.215,104.546,140.373,104.331,144.538z"/>
			
				<linearGradient id="SVGID_12_" gradientUnits="userSpaceOnUse" x1="249.6172" y1="-672.7251" x2="242.2114" y2="-690.808" gradientTransform="matrix(1 0 0 -1 -150 -530)">
				<stop  offset="0" style="stop-color:#FFFFFF"/>
				<stop  offset="1" style="stop-color:#000000"/>
			</linearGradient>
			<path fill="url(#SVGID_12_)" d="M104.266,142.59c-0.188,3.61-5.384,11.166-8.45,12.467c0,0-0.951-0.742-1.885-1.387
				c-1.047-0.725-1.654-2.148-1.555-4.059c0.186-3.611,2.822-7.592,5.889-8.896c1.447-0.612,2.73-0.521,3.665,0.125
				C102.975,141.57,104.266,142.59,104.266,142.59z"/>
			
				<linearGradient id="SVGID_13_" gradientUnits="userSpaceOnUse" x1="248.4521" y1="-675.7334" x2="270.9522" y2="-719.9834" gradientTransform="matrix(1 0 0 -1 -150 -530)">
				<stop  offset="0" style="stop-color:#FFFFFF"/>
				<stop  offset="1" style="stop-color:#000000"/>
			</linearGradient>
			<path fill="url(#SVGID_13_)" d="M105.562,146.439c-0.188,3.608-2.822,7.593-5.894,8.894c-3.064,1.302-5.398-0.571-5.213-4.181
				c0.188-3.611,2.824-7.592,5.891-8.896C103.415,140.958,105.749,142.83,105.562,146.439z"/>
		</g>
		<g>
			
				<linearGradient id="SVGID_14_" gradientUnits="userSpaceOnUse" x1="300.4629" y1="-648.082" x2="325.9161" y2="-698.14" gradientTransform="matrix(1 0 0 -1 -150 -530)">
				<stop  offset="0" style="stop-color:#703800"/>
				<stop  offset="0.1902" style="stop-color:#A65200"/>
				<stop  offset="0.7521" style="stop-color:#A65200"/>
				<stop  offset="0.8466" style="stop-color:#A65200"/>
				<stop  offset="0.8856" style="stop-color:#A15000"/>
				<stop  offset="0.9317" style="stop-color:#934900"/>
				<stop  offset="0.981" style="stop-color:#7B3D00"/>
				<stop  offset="1" style="stop-color:#703800"/>
			</linearGradient>
			<path fill="url(#SVGID_14_)" d="M158.505,118.885c-0.211,4.083-3.192,8.588-6.662,10.059c-3.469,1.475-6.108-0.646-5.897-4.729
				c0.215-4.083,3.195-8.587,6.664-10.059C156.079,112.684,158.718,114.8,158.505,118.885z"/>
			
				<linearGradient id="SVGID_15_" gradientUnits="userSpaceOnUse" x1="303.8828" y1="-647.1069" x2="296.6203" y2="-664.8405" gradientTransform="matrix(1 0 0 -1 -150 -530)">
				<stop  offset="0" style="stop-color:#FFFFFF"/>
				<stop  offset="1" style="stop-color:#000000"/>
			</linearGradient>
			<path fill="url(#SVGID_15_)" d="M158.439,116.975c-0.186,3.539-5.276,10.95-8.285,12.229c0,0-0.934-0.729-1.848-1.36
				c-1.027-0.711-1.623-2.104-1.527-3.979c0.185-3.541,2.771-7.445,5.777-8.722c1.418-0.604,2.676-0.515,3.592,0.123
				C157.175,115.973,158.439,116.975,158.439,116.975z"/>
			
				<linearGradient id="SVGID_16_" gradientUnits="userSpaceOnUse" x1="302.7412" y1="-650.0547" x2="324.8048" y2="-693.4463" gradientTransform="matrix(1 0 0 -1 -150 -530)">
				<stop  offset="0" style="stop-color:#FFFFFF"/>
				<stop  offset="1" style="stop-color:#000000"/>
			</linearGradient>
			<path fill="url(#SVGID_16_)" d="M159.714,120.75c-0.185,3.541-2.771,7.445-5.776,8.721c-3.006,1.276-5.295-0.56-5.111-4.101
				c0.184-3.54,2.771-7.445,5.775-8.722C157.607,115.373,159.896,117.209,159.714,120.75z"/>
		</g>
		
			<linearGradient id="SVGID_17_" gradientUnits="userSpaceOnUse" x1="212.1963" y1="-1145.1587" x2="227.1443" y2="-1158.6479" gradientTransform="matrix(1 -0.4813 0 -1 -150 -936.8295)">
			<stop  offset="0" style="stop-color:#703800"/>
			<stop  offset="0.1902" style="stop-color:#A65200"/>
			<stop  offset="0.7521" style="stop-color:#A65200"/>
			<stop  offset="0.8466" style="stop-color:#A65200"/>
			<stop  offset="0.8856" style="stop-color:#A15000"/>
			<stop  offset="0.9317" style="stop-color:#934900"/>
			<stop  offset="0.981" style="stop-color:#7B3D00"/>
			<stop  offset="1" style="stop-color:#703800"/>
		</linearGradient>
		<path fill="url(#SVGID_17_)" d="M140.896,126.721c0,0.797-0.646,1.752-1.441,2.135l-26.111,12.568
			c-0.795,0.385-1.441,0.049-1.441-0.747v-0.925c0-0.797,0.646-1.752,1.441-2.135l26.111-12.568
			c0.797-0.383,1.441-0.049,1.441,0.746V126.721z"/>
	</g>
</g>
<g id="outline_x5F_black_1_">
	<g>
		<g>
			<path fill="#FFFFFF" d="M110.82,23.141c2.062,0,3.93,0.586,6.033,1.661c3.604,1.84,41.683,24.618,48.515,28.708
				c0.237,0.131,0.471,0.273,0.7,0.42c0.226,0.135,0.351,0.209,0.351,0.209l-0.017,0.016c3.218,2.206,5.459,5.979,6.31,10.953
				l4.506,40.58c1.824,10.533-1.321,21.291-11.983,26.623l-81.57,42.506c-2.771,1.389-5.337,2.043-7.595,2.043
				c-2.868,0-5.24-1.061-6.903-3.024c-10.316-7.498-41.96-30.588-44.355-33.479c-1.957-2.362-2.877-6.051-2.382-10.789l4.408-54.393
				c1.22-11.551,10.576-24.297,20.898-28.47l56.881-22.128C107.032,23.597,109.002,23.141,110.82,23.141 M110.82,11.141
				c-3.385,0-6.764,0.724-10.626,2.276L43.382,35.519c-0.049,0.019-0.098,0.039-0.147,0.058
				c-14.463,5.847-26.644,22.327-28.334,38.335c-0.01,0.097-0.02,0.194-0.027,0.291l-4.398,54.265
				c-0.991,9.864,2.216,16.066,5.09,19.537c1.316,1.591,3.513,4.245,45.619,34.862c3.881,3.877,9.101,5.99,14.882,5.99
				c4.211,0,8.572-1.113,12.964-3.312c0.059-0.027,0.117-0.061,0.176-0.09l81.492-42.463c14.17-7.139,21.197-22.033,18.408-38.969
				l-4.469-40.242c-0.025-0.233-0.061-0.466-0.101-0.697c-1.312-7.69-5.038-14.126-10.526-18.24
				c-0.462-0.375-0.949-0.719-1.47-1.026l-0.188-0.113c-0.256-0.161-0.59-0.365-0.975-0.583
				c-13.636-8.163-45.34-27.105-49.068-29.01C118.339,12.086,114.688,11.141,110.82,11.141L110.82,11.141z"/>
		</g>
	</g>
</g>
</svg>
