<?xml version="1.0" encoding="utf-8"?>
<!-- Generator: Adobe Illustrator 15.0.0, SVG Export Plug-In . SVG Version: 6.00 Build 0)  -->
<!DOCTYPE svg PUBLIC "-//W3C//DTD SVG 1.1//EN" "http://www.w3.org/Graphics/SVG/1.1/DTD/svg11.dtd">
<svg version="1.1" id="Layer_1" xmlns="http://www.w3.org/2000/svg" xmlns:xlink="http://www.w3.org/1999/xlink" x="0px" y="0px"
	 width="200px" height="200px" viewBox="0 0 200 200" enable-background="new 0 0 200 200" xml:space="preserve">
<g id="icon">
	<g id="Layer_2">
	</g>
	<g>
		<path d="M55.215,98.631c-0.702,0.699-14.351,14.486-14.779,14.914c-11.194,11.195-10.098,30.441,2.448,42.988
			c12.543,12.545,31.794,13.643,42.988,2.449c0.428-0.433,14.212-14.078,14.915-14.781c11.229-11.227,10.126-30.531-2.457-43.113
			C85.747,88.504,66.442,87.404,55.215,98.631z"/>
		
			<linearGradient id="SVGID_1_" gradientUnits="userSpaceOnUse" x1="235.6475" y1="-631.4062" x2="268.6475" y2="-657.4062" gradientTransform="matrix(1 0 0 -1 -150 -530)">
			<stop  offset="0" style="stop-color:#464443"/>
			<stop  offset="1" style="stop-color:#000000"/>
		</linearGradient>
		<path fill="url(#SVGID_1_)" d="M137.455,61.962c27.788,27.788,30.214,70.413,5.421,95.206s-67.42,22.371-95.208-5.418
			c-27.79-27.789-30.213-70.417-5.42-95.21C67.04,31.746,109.665,34.173,137.455,61.962z"/>
		
			<radialGradient id="SVGID_2_" cx="234.582" cy="-572.9688" r="104.3618" gradientTransform="matrix(1 0 0 -1 -150 -530)" gradientUnits="userSpaceOnUse">
			<stop  offset="0.1152" style="stop-color:#464443"/>
			<stop  offset="1" style="stop-color:#000000"/>
		</radialGradient>
		<path fill="url(#SVGID_2_)" d="M141.154,58.262c27.869,27.871,30.304,70.626,5.435,95.496
			c-24.866,24.867-67.622,22.434-95.492-5.436c-27.874-27.873-30.309-70.629-5.439-95.496
			C70.527,27.956,113.279,30.391,141.154,58.262z"/>
		<g>
			
				<radialGradient id="SVGID_3_" cx="185.2021" cy="-629.7549" r="2.7695" gradientTransform="matrix(1 0 0 -1 -150 -530)" gradientUnits="userSpaceOnUse">
				<stop  offset="0" style="stop-color:#FFFFFF"/>
				<stop  offset="0.1089" style="stop-color:#FDFDFD"/>
				<stop  offset="0.1481" style="stop-color:#F6F6F6"/>
				<stop  offset="0.176" style="stop-color:#EBEBEB"/>
				<stop  offset="0.1987" style="stop-color:#DADADA"/>
				<stop  offset="0.218" style="stop-color:#C4C4C4"/>
				<stop  offset="0.2348" style="stop-color:#A9A9A9"/>
				<stop  offset="0.2393" style="stop-color:#A1A1A1"/>
				<stop  offset="0.6293" style="stop-color:#6F6F6F"/>
				<stop  offset="0.8712" style="stop-color:#545454"/>
			</radialGradient>
			<path fill="url(#SVGID_3_)" d="M37.045,97.912c1.142,1.139,1.241,2.893,0.223,3.908c-1.018,1.019-2.771,0.921-3.91-0.221
				c-1.141-1.144-1.241-2.896-0.222-3.913C34.154,96.669,35.904,96.771,37.045,97.912z"/>
			
				<radialGradient id="SVGID_4_" cx="249.8447" cy="-694.3945" r="2.7698" gradientTransform="matrix(1 0 0 -1 -150 -530)" gradientUnits="userSpaceOnUse">
				<stop  offset="0" style="stop-color:#FFFFFF"/>
				<stop  offset="0.1089" style="stop-color:#FDFDFD"/>
				<stop  offset="0.1481" style="stop-color:#F6F6F6"/>
				<stop  offset="0.176" style="stop-color:#EBEBEB"/>
				<stop  offset="0.1987" style="stop-color:#DADADA"/>
				<stop  offset="0.218" style="stop-color:#C4C4C4"/>
				<stop  offset="0.2348" style="stop-color:#A9A9A9"/>
				<stop  offset="0.2393" style="stop-color:#A1A1A1"/>
				<stop  offset="0.6293" style="stop-color:#6F6F6F"/>
				<stop  offset="0.8712" style="stop-color:#545454"/>
			</radialGradient>
			<path fill="url(#SVGID_4_)" d="M101.686,162.549c1.145,1.143,1.244,2.895,0.228,3.914c-1.021,1.018-2.771,0.918-3.913-0.225
				c-1.141-1.139-1.239-2.896-0.222-3.91C98.794,161.309,100.544,161.41,101.686,162.549z"/>
			
				<radialGradient id="SVGID_5_" cx="242.6523" cy="-572.3037" r="2.7688" gradientTransform="matrix(1 0 0 -1 -150 -530)" gradientUnits="userSpaceOnUse">
				<stop  offset="0" style="stop-color:#FFFFFF"/>
				<stop  offset="0.1089" style="stop-color:#FDFDFD"/>
				<stop  offset="0.1481" style="stop-color:#F6F6F6"/>
				<stop  offset="0.176" style="stop-color:#EBEBEB"/>
				<stop  offset="0.1987" style="stop-color:#DADADA"/>
				<stop  offset="0.218" style="stop-color:#C4C4C4"/>
				<stop  offset="0.2348" style="stop-color:#A9A9A9"/>
				<stop  offset="0.2393" style="stop-color:#A1A1A1"/>
				<stop  offset="0.6293" style="stop-color:#6F6F6F"/>
				<stop  offset="0.8712" style="stop-color:#545454"/>
			</radialGradient>
			<path fill="url(#SVGID_5_)" d="M94.495,40.459c1.142,1.141,1.242,2.892,0.223,3.911c-1.018,1.018-2.768,0.916-3.908-0.224
				c-1.141-1.142-1.242-2.891-0.224-3.908C91.604,39.219,93.354,39.32,94.495,40.459z"/>
			
				<radialGradient id="SVGID_6_" cx="307.2939" cy="-636.9453" r="2.77" gradientTransform="matrix(1 0 0 -1 -150 -530)" gradientUnits="userSpaceOnUse">
				<stop  offset="0" style="stop-color:#FFFFFF"/>
				<stop  offset="0.1089" style="stop-color:#FDFDFD"/>
				<stop  offset="0.1481" style="stop-color:#F6F6F6"/>
				<stop  offset="0.176" style="stop-color:#EBEBEB"/>
				<stop  offset="0.1987" style="stop-color:#DADADA"/>
				<stop  offset="0.218" style="stop-color:#C4C4C4"/>
				<stop  offset="0.2348" style="stop-color:#A9A9A9"/>
				<stop  offset="0.2393" style="stop-color:#A1A1A1"/>
				<stop  offset="0.6293" style="stop-color:#6F6F6F"/>
				<stop  offset="0.8712" style="stop-color:#545454"/>
			</radialGradient>
			<path fill="url(#SVGID_6_)" d="M159.137,105.1c1.143,1.146,1.242,2.896,0.225,3.912c-1.021,1.021-2.77,0.918-3.91-0.225
				c-1.143-1.141-1.241-2.891-0.225-3.908C156.244,103.859,157.996,103.959,159.137,105.1z"/>
		</g>
		<g>
			
				<linearGradient id="SVGID_7_" gradientUnits="userSpaceOnUse" x1="-1354.313" y1="-530.8921" x2="-1354.313" y2="-432.0487" gradientTransform="matrix(1.018 0.3828 -0.0785 -1.0118 1434.6104 92.4933)">
				<stop  offset="0" style="stop-color:#FFFFFF"/>
				<stop  offset="1" style="stop-color:#92A2B2"/>
			</linearGradient>
			<path fill="url(#SVGID_7_)" d="M102.275,51.725c29.771,6.26,51.384,34.945,48.947,64.507c0.074-0.5,0.153-0.996,0.211-1.506
				c3.313-30.1-18.543-59.659-48.822-66.033C72.329,42.33,45.097,61.56,41.783,91.655c-0.054,0.505-0.087,1.017-0.126,1.521
				C45.7,63.952,72.513,45.458,102.275,51.725z"/>
			
				<radialGradient id="SVGID_8_" cx="-424.2964" cy="-921.7861" r="92.9119" gradientTransform="matrix(-1.0059 -0.2134 -0.1082 0.9989 -403.4652 851.1479)" gradientUnits="userSpaceOnUse">
				<stop  offset="0.0675" style="stop-color:#FFFF9D"/>
				<stop  offset="0.1935" style="stop-color:#FAE688"/>
				<stop  offset="0.3919" style="stop-color:#F3C56B"/>
				<stop  offset="0.5" style="stop-color:#F0B860"/>
				<stop  offset="1" style="stop-color:#A78800"/>
			</radialGradient>
			<path fill="url(#SVGID_8_)" d="M41.348,91.57c3.269-30.182,30.547-49.431,60.935-42.979
				c30.392,6.446,52.371,36.143,49.105,66.316c-3.269,30.182-30.548,49.422-60.938,42.979
				C60.064,151.438,38.078,121.748,41.348,91.57z"/>
			
				<radialGradient id="SVGID_9_" cx="-395.8315" cy="-787.7275" r="43.4075" fx="-404.2202" fy="-765.4822" gradientTransform="matrix(-1.0059 -0.2134 -0.1082 0.9989 -403.4652 851.1479)" gradientUnits="userSpaceOnUse">
				<stop  offset="0.0675" style="stop-color:#FFFF9D"/>
				<stop  offset="0.1935" style="stop-color:#FAE688"/>
				<stop  offset="0.3919" style="stop-color:#F3C56B"/>
				<stop  offset="0.5" style="stop-color:#F0B860"/>
				<stop  offset="1" style="stop-color:#A78800"/>
			</radialGradient>
			<path fill="url(#SVGID_9_)" d="M44.245,92.029l104.497,22.167c-3.102,28.662-29.01,46.931-57.867,40.812
				C62.017,148.885,41.141,120.691,44.245,92.029z"/>
			
				<radialGradient id="SVGID_10_" cx="-413.7017" cy="-897.8589" r="62.1023" gradientTransform="matrix(-1.0034 -0.2111 -0.1099 0.9973 -402.2625 852.0857)" gradientUnits="userSpaceOnUse">
				<stop  offset="0" style="stop-color:#838CA3"/>
				<stop  offset="0.4615" style="stop-color:#5C6A85"/>
				<stop  offset="1" style="stop-color:#00000A"/>
			</radialGradient>
			<path fill="url(#SVGID_10_)" d="M68.948,98.749c1.546-14.059,14.266-23.045,28.41-20.071
				c14.149,2.979,24.358,16.789,22.808,30.846c-1.546,14.062-14.268,23.041-28.415,20.068
				C77.606,126.615,67.397,112.807,68.948,98.749z"/>
			
				<radialGradient id="SVGID_11_" cx="-407.4224" cy="-827.7607" r="48.6598" gradientTransform="matrix(-1.0059 -0.2134 -0.1082 0.9989 -403.4652 851.1479)" gradientUnits="userSpaceOnUse">
				<stop  offset="0.1104" style="stop-color:#D5D8E0"/>
				<stop  offset="0.159" style="stop-color:#CFD2DB"/>
				<stop  offset="0.2227" style="stop-color:#BFC3CC"/>
				<stop  offset="0.295" style="stop-color:#A3A9B3"/>
				<stop  offset="0.3735" style="stop-color:#7D8491"/>
				<stop  offset="0.4563" style="stop-color:#4D5666"/>
				<stop  offset="0.4615" style="stop-color:#4A5363"/>
				<stop  offset="0.4797" style="stop-color:#606978"/>
				<stop  offset="0.5111" style="stop-color:#7F8795"/>
				<stop  offset="0.5468" style="stop-color:#9BA2AE"/>
				<stop  offset="0.587" style="stop-color:#B1B7C3"/>
				<stop  offset="0.634" style="stop-color:#C2C8D3"/>
				<stop  offset="0.6921" style="stop-color:#CDD4DE"/>
				<stop  offset="0.7737" style="stop-color:#D4DAE4"/>
				<stop  offset="1" style="stop-color:#D6DCE6"/>
			</radialGradient>
			<path fill="url(#SVGID_11_)" d="M70.989,98.921c1.455-13.443,13.605-22.018,27.144-19.143
				c13.538,2.871,23.328,16.099,21.875,29.541c-1.455,13.449-13.605,22.018-27.146,19.146
				C79.327,125.592,69.534,112.367,70.989,98.921z"/>
			
				<linearGradient id="SVGID_12_" gradientUnits="userSpaceOnUse" x1="229.5771" y1="-634.3271" x2="228.6369" y2="-652.8971" gradientTransform="matrix(1.0134 -0.0173 -0.0246 -0.9864 -152.3793 -538.8491)">
				<stop  offset="0" style="stop-color:#FFFFFF"/>
				<stop  offset="1" style="stop-color:#FFFFFF;stop-opacity:0"/>
			</linearGradient>
			<path fill="url(#SVGID_12_)" d="M97.464,87.881c10.476,2.035,18.44,10.371,19.662,19.708c0.146-0.637,0.263-1.284,0.34-1.948
				c1.312-11.093-7.513-22.008-19.713-24.376C85.551,78.894,74.6,85.967,73.286,97.06c-0.185,1.571-0.146,3.134,0.055,4.672
				C75.632,91.774,85.991,85.652,97.464,87.881z"/>
		</g>
		<path opacity="0.58" enable-background="new    " d="M174.852,62.081c0.479-9.93-8.3-19.258-12.929-20.604
			c-4.803-1.395-10.885-5.899-13.056-8.544c-1.893-2.075-3.52-3.009-5.482-2.645c-1.807,0.333-3.064,1.835-3.082,3.527l-0.001,0.001
			c-0.102,0.461-0.028,5.815,0.07,6.309l11.176,36.582c-3.323-1.16-7.2-1.507-11.188-0.769c-9.471,1.754-16.045,8.9-15.215,16.249
			c-0.023,0.218-0.062,0.43-0.076,0.655c-0.053,0.949,0.017,4.93,0.209,5.89c1.562,7.679,10.843,12.42,20.729,10.588
			c8.789-1.627,15.103-7.899,15.304-14.664c0.021-0.651,0.037-3.45-0.033-5.097c0.072-1.003,0.021-2.018-0.187-3.033
			c-0.103-0.497-0.235-0.981-0.399-1.453l-5.26-23.232c2.25-1.148,8.28-0.865,11.938,3.311c4.604,5.257,5.487,14.971,7.282,4.371
			c0.143-0.823,0.221-6.304,0.221-7.119C174.87,62.294,174.854,62.19,174.852,62.081z"/>
		<g>
			
				<linearGradient id="SVGID_13_" gradientUnits="userSpaceOnUse" x1="103.8477" y1="-855.7896" x2="150.2263" y2="-889.7573" gradientTransform="matrix(0.9817 -0.1903 -0.1903 -0.9817 -150.6726 -764.4388)">
				<stop  offset="0" style="stop-color:#70AB00"/>
				<stop  offset="1" style="stop-color:#284700"/>
			</linearGradient>
			<path fill="url(#SVGID_13_)" d="M159.962,42.066c-4.801-1.396-10.885-5.901-13.055-8.547c-1.896-2.075-3.521-3.008-5.482-2.645
				c-1.549,0.288-2.774-3.432-3.082-2.045c-0.103,0.461-0.03,5.815,0.069,6.309l13.119,42.945
				c-3.696-1.785-8.342-2.443-13.133-1.557c-8.651,1.602-14.906,4.684-15.291,11.329c-0.055,0.949,0.015,4.93,0.209,5.89
				c1.56,7.68,10.841,12.42,20.728,10.588c8.791-1.627,15.104-7.899,15.304-14.664c0.024-0.847,0.051-5.328-0.123-6.182
				c-0.102-0.497-0.332,2.645-0.494,2.174l-6.271-27.702c0.096,0.182,0.137,0.203,0.122,0.029c-0.17-2.177,8.226-3.082,12.829,2.176
				c4.604,5.257,5.486,14.971,7.283,4.371c0.142-0.823,0.22-6.304,0.22-7.119C172.911,48.711,164.499,43.383,159.962,42.066z"/>
			
				<linearGradient id="SVGID_14_" gradientUnits="userSpaceOnUse" x1="128.5381" y1="-862.083" x2="159.0077" y2="-933.2707" gradientTransform="matrix(0.9817 -0.1903 -0.1903 -0.9817 -150.6726 -764.4388)">
				<stop  offset="0.1758" style="stop-color:#96DC00"/>
				<stop  offset="1" style="stop-color:#366100"/>
			</linearGradient>
			<path fill="url(#SVGID_14_)" d="M159.963,36.49c-4.802-1.396-10.885-5.899-13.056-8.544c-1.894-2.075-3.521-3.009-5.482-2.645
				c-2.063,0.381-3.411,2.288-3.012,4.261l13.119,42.945c-3.696-1.782-8.343-2.442-13.134-1.556
				c-9.887,1.831-16.644,9.54-15.082,17.22c1.56,7.678,10.841,12.421,20.729,10.59c9.891-1.831,16.643-9.541,15.084-17.221
				c-0.102-0.497-0.236-0.981-0.398-1.453l-6.271-27.701c0.096,0.182,0.137,0.203,0.122,0.029
				c-0.169-2.178,8.226-3.081,12.829,2.175c4.604,5.257,5.486,14.971,7.283,4.371C174.486,48.361,164.882,37.919,159.963,36.49z"/>
		</g>
	</g>
</g>
</svg>
