<?xml version="1.0" encoding="utf-8"?>
<!-- Generator: Adobe Illustrator 15.0.0, SVG Export Plug-In . SVG Version: 6.00 Build 0)  -->
<!DOCTYPE svg PUBLIC "-//W3C//DTD SVG 1.1//EN" "http://www.w3.org/Graphics/SVG/1.1/DTD/svg11.dtd">
<svg version="1.1" id="Layer_1" xmlns="http://www.w3.org/2000/svg" xmlns:xlink="http://www.w3.org/1999/xlink" x="0px" y="0px"
	 width="200px" height="200px" viewBox="0 0 200 200" enable-background="new 0 0 200 200" xml:space="preserve">
<g id="icon">
	<g id="Layer_2">
	</g>
	<g>
		
			<radialGradient id="SVGID_1_" cx="257.6846" cy="2255.0723" r="30.7596" fx="257.9017" fy="2240.7246" gradientTransform="matrix(0.9123 -0.4094 0.5222 1.1637 -1340.2684 -2379.6301)" gradientUnits="userSpaceOnUse">
			<stop  offset="0.4606" style="stop-color:#585858"/>
			<stop  offset="0.5567" style="stop-color:#555555"/>
			<stop  offset="0.6281" style="stop-color:#4C4C4C"/>
			<stop  offset="0.6916" style="stop-color:#3B3B3B"/>
			<stop  offset="0.7504" style="stop-color:#252525"/>
			<stop  offset="0.8055" style="stop-color:#080808"/>
			<stop  offset="0.8182" style="stop-color:#000000"/>
		</radialGradient>
		<path fill="url(#SVGID_1_)" d="M95.804,128.602c7.958,17.729,3.937,36.81-8.98,42.604s-29.838-3.879-37.797-21.608
			c-7.958-17.729-3.938-36.808,8.979-42.604C70.922,101.195,87.845,110.869,95.804,128.602z"/>
		
			<radialGradient id="SVGID_2_" cx="252.5996" cy="2251.5156" r="37.5735" fx="253.5114" fy="2253.7205" gradientTransform="matrix(0.9123 -0.4094 0.5222 1.1637 -1340.329 -2379.7668)" gradientUnits="userSpaceOnUse">
			<stop  offset="0.2424" style="stop-color:#FFFFFF"/>
			<stop  offset="0.3006" style="stop-color:#F8F8F8"/>
			<stop  offset="0.3825" style="stop-color:#E6E6E6"/>
			<stop  offset="0.4784" style="stop-color:#C8C8C8"/>
			<stop  offset="0.5841" style="stop-color:#9E9E9E"/>
			<stop  offset="0.6788" style="stop-color:#737373"/>
			<stop  offset="0.7114" style="stop-color:#797979"/>
			<stop  offset="0.8445" style="stop-color:#8E8E8E"/>
			<stop  offset="0.9333" style="stop-color:#959595"/>
		</radialGradient>
		<path fill="url(#SVGID_2_)" d="M89.749,131.913c7.959,17.731,3.938,36.808-8.979,42.604c-12.916,5.795-29.839-3.879-37.798-21.61
			c-7.957-17.732-3.937-36.806,8.979-42.604C64.868,104.507,81.791,114.182,89.749,131.913z"/>
		
			<linearGradient id="SVGID_3_" gradientUnits="userSpaceOnUse" x1="233.9502" y1="1583.8115" x2="230.0584" y2="1585.1089" gradientTransform="matrix(0.9917 -0.1286 0.1286 0.9917 -399.4109 -1419.7483)">
			<stop  offset="0" style="stop-color:#464443"/>
			<stop  offset="1" style="stop-color:#000000"/>
		</linearGradient>
		<path fill="url(#SVGID_3_)" d="M38.047,94.346c0,0,3.355,17.448,6.131,27.273c2.776,9.824,3.432,9.613,3.432,9.613
			s8.134-1.312,11.35,3.707l1.537-0.198c0,0-5.17-8.481-8.328-21.839c-2.899-12.262-2.97-20.002-2.97-20.002L38.047,94.346z"/>
		
			<linearGradient id="SVGID_4_" gradientUnits="userSpaceOnUse" x1="91.2197" y1="1252.1963" x2="107.8839" y2="1256.8468" gradientTransform="matrix(1 0 0 1 -200 -1182)">
			<stop  offset="0" style="stop-color:#464443"/>
			<stop  offset="1" style="stop-color:#000000"/>
		</linearGradient>
		<path fill="url(#SVGID_4_)" d="M36.51,94.545c0,0,1.115,13.268,3.892,23.092c2.775,9.824,5.969,16.613,5.969,16.613
			s1.698-1.615,4.361-1.665c3.135-0.058,8.229,2.354,8.229,2.354s-5.474-9.164-8.632-22.521
			c-2.899-12.262-2.667-19.319-2.667-19.319L36.51,94.545z"/>
		
			<radialGradient id="SVGID_5_" cx="297.8652" cy="2712.7539" r="75.3159" gradientTransform="matrix(1.0231 0.0166 0.0177 0.4473 -303.011 -1162.3938)" gradientUnits="userSpaceOnUse">
			<stop  offset="0.1152" style="stop-color:#464443"/>
			<stop  offset="1" style="stop-color:#000000"/>
		</radialGradient>
		<path fill="url(#SVGID_5_)" d="M42.864,108.992c-5.427,0.143-10.442-3.594-11.912-9.362
			C20.684,59.328,43.406,34.521,80.567,26.447c29.598-6.431,57.34-2.181,67.021,24.36c2.904,7.963,2.34,11.907-3.395,14.246
			c-5.734,2.339-12.625-0.312-15.396-5.931c-8.416-17.072-19.282-32.73-40.497-26.311C62.834,40.522,47.139,64.147,55.4,94.829
			c1.839,6.829-5.287,13.144-11.256,14.05C43.714,108.943,43.287,108.982,42.864,108.992z"/>
		
			<linearGradient id="SVGID_6_" gradientUnits="userSpaceOnUse" x1="330.0039" y1="1275.5967" x2="320.3157" y2="1235.6816" gradientTransform="matrix(1 0 0 1 -200 -1182)">
			<stop  offset="0" style="stop-color:#464443"/>
			<stop  offset="1" style="stop-color:#000000"/>
		</linearGradient>
		<path fill="url(#SVGID_6_)" d="M112.716,29.742c17.188,0.922,26.402,7.54,33.478,22.296c2.705,5.64,3.733,10.677-2,13.016
			c-5.729,2.339-12.625-0.314-15.391-5.931c-8.416-17.072-19.285-32.73-40.498-26.311C88.305,32.812,97.274,28.91,112.716,29.742z"
			/>
		
			<linearGradient id="SVGID_7_" gradientUnits="userSpaceOnUse" x1="256.8438" y1="1363.8398" x2="262.785" y2="1375.2983" gradientTransform="matrix(1.0181 -0.0501 0.1084 0.9769 -314.2285 -1245.198)">
			<stop  offset="0" style="stop-color:#464443"/>
			<stop  offset="1" style="stop-color:#000000"/>
		</linearGradient>
		<path fill="url(#SVGID_7_)" d="M145.2,64.582c2.401-1.272,3.975-2.295,4.391-5.302c0.232-2.313-0.641-5.018-1.954-8.031
			c-6.822-15.656-19.955-34.741-63.249-19.46C55.101,42.126,45.024,66.356,53.453,97.355c1.084,3.986-3.111,7.471-5.398,10.1
			c3.853-2.309,8.753-7.405,7.346-12.626c-8.261-30.682,8.102-54.607,32.904-62.017c38.364-11.461,50.94,4.916,57.411,19.083
			C148.148,57.221,149.861,62.074,145.2,64.582z"/>
		
			<linearGradient id="SVGID_8_" gradientUnits="userSpaceOnUse" x1="340.6309" y1="1242.7168" x2="339.4682" y2="1231.8655" gradientTransform="matrix(1 0 0 1 -200 -1182)">
			<stop  offset="0" style="stop-color:#464443"/>
			<stop  offset="1" style="stop-color:#000000"/>
		</linearGradient>
		<path fill="url(#SVGID_8_)" d="M132.24,44.974c-3.219,0.533-4.633,2.358-1.984,6.952c0,0,5.376,10.548,8.378,19.195
			c3.003,8.646,3.003,8.646,3.003,8.646l12.129,6.329c0,0-1.851-9.501-6.104-20.549c-4.256-11.048-6.604-15.459-6.604-15.459
			S136.762,44.224,132.24,44.974z"/>
		
			<linearGradient id="SVGID_9_" gradientUnits="userSpaceOnUse" x1="291.6953" y1="1250.4688" x2="306.8097" y2="1249.6937" gradientTransform="matrix(1 0 0 1 -200 -1182)">
			<stop  offset="0" style="stop-color:#464443"/>
			<stop  offset="1" style="stop-color:#000000"/>
		</linearGradient>
		<path fill="url(#SVGID_9_)" d="M131.051,45.354c-3.218,0.534-4.633,2.359-1.984,6.954c0,0,5.726,10.433,8.379,19.193
			c2.687,8.85,2.839,10.145,2.839,10.145l12.295,4.831c0,0-1.853-9.5-6.104-20.548c-4.26-11.048-6.604-15.46-6.604-15.46
			S135.57,44.605,131.051,45.354z"/>
		
			<radialGradient id="SVGID_10_" cx="344.5557" cy="980.9766" r="24.6025" fx="344.7293" fy="969.5008" gradientTransform="matrix(1 0 0 1.3565 -200 -1221.0796)" gradientUnits="userSpaceOnUse">
			<stop  offset="0.5091" style="stop-color:#FFFFFF"/>
			<stop  offset="0.6721" style="stop-color:#FDFDFD"/>
			<stop  offset="0.754" style="stop-color:#F5F5F5"/>
			<stop  offset="0.8179" style="stop-color:#E8E8E8"/>
			<stop  offset="0.8724" style="stop-color:#D5D5D5"/>
			<stop  offset="0.921" style="stop-color:#BDBDBD"/>
			<stop  offset="0.9646" style="stop-color:#9F9F9F"/>
			<stop  offset="1" style="stop-color:#818181"/>
		</radialGradient>
		<path fill="url(#SVGID_10_)" d="M169.637,100.939c-3.979-13.068-13.242-22.312-22.424-23.403
			c-4.488-0.563-7.931-1.126-12.625,0.226c-11.765,3.387-16.954,20.418-11.709,37.644c5.244,17.226,18.989,28.3,30.7,24.734
			c1.978-0.604,3.764-1.593,5.353-2.89c2.079-1.354,4.51-3.748,5.819-5.012C171.234,125.982,173.479,113.568,169.637,100.939z"/>
		
			<radialGradient id="SVGID_11_" cx="566.7178" cy="1919.1084" r="28.2373" fx="567.1379" fy="1919.1548" gradientTransform="matrix(0.8928 -0.2718 0.3984 1.3089 -1129.8213 -2247.9893)" gradientUnits="userSpaceOnUse">
			<stop  offset="0.3091" style="stop-color:#000000"/>
			<stop  offset="0.6727" style="stop-color:#393939"/>
			<stop  offset="0.7409" style="stop-color:#363636"/>
			<stop  offset="0.7825" style="stop-color:#2E2E2E"/>
			<stop  offset="0.8171" style="stop-color:#202020"/>
			<stop  offset="0.8475" style="stop-color:#0B0B0B"/>
			<stop  offset="0.8606" style="stop-color:#000000"/>
		</radialGradient>
		<path fill="url(#SVGID_11_)" d="M161.921,103.443c5.244,17.226,0,34.08-11.709,37.646c-11.711,3.563-25.456-7.51-30.7-24.733
			c-5.244-17.227-0.003-34.08,11.709-37.646C142.93,75.146,156.675,86.219,161.921,103.443z"/>
		<ellipse transform="matrix(0.9566 -0.2913 0.2913 0.9566 -26.1422 45.4528)" cx="139.571" cy="110.519" rx="12.615" ry="18.553"/>
		
			<radialGradient id="SVGID_12_" cx="81.3936" cy="1599.8936" r="23.0575" gradientTransform="matrix(0.9202 -0.3913 0.3913 0.9202 -640.6407 -1297.4277)" gradientUnits="userSpaceOnUse">
			<stop  offset="0.3091" style="stop-color:#000000"/>
			<stop  offset="0.3492" style="stop-color:#090909"/>
			<stop  offset="0.4717" style="stop-color:#1E1E1E"/>
			<stop  offset="0.6075" style="stop-color:#2D2D2D"/>
			<stop  offset="0.7658" style="stop-color:#363636"/>
			<stop  offset="1" style="stop-color:#393939"/>
		</radialGradient>
		<path fill="url(#SVGID_12_)" d="M70.168,140.134c4.585,10.781,2.558,21.974-4.526,24.988c-7.085,3.011-16.552-3.294-21.136-14.075
			c-4.587-10.785-2.56-21.976,4.525-24.986C56.118,123.045,65.581,129.348,70.168,140.134z"/>
		
			<radialGradient id="SVGID_13_" cx="218.6641" cy="1301.5898" r="16.536" gradientTransform="matrix(0.9699 -0.2433 0.4128 1.6456 -693.6797 -1942.1819)" gradientUnits="userSpaceOnUse">
			<stop  offset="0.3091" style="stop-color:#000000"/>
			<stop  offset="0.3492" style="stop-color:#090909"/>
			<stop  offset="0.4717" style="stop-color:#1E1E1E"/>
			<stop  offset="0.6075" style="stop-color:#2D2D2D"/>
			<stop  offset="0.7658" style="stop-color:#363636"/>
			<stop  offset="1" style="stop-color:#393939"/>
		</radialGradient>
		<path fill="url(#SVGID_13_)" d="M66.954,141.73c4.302,10.109,2.752,20.465-3.462,23.106c-6.214,2.646-14.744-3.424-19.046-13.539
			c-4.304-10.118-2.752-20.469,3.46-23.108C54.122,125.549,62.649,131.609,66.954,141.73z"/>
		
			<linearGradient id="SVGID_14_" gradientUnits="userSpaceOnUse" x1="264.6553" y1="1311.4541" x2="254.1548" y2="1331.455" gradientTransform="matrix(1 0 0 1 -200 -1182)">
			<stop  offset="0.1758" style="stop-color:#A2F200"/>
			<stop  offset="1" style="stop-color:#3A9200"/>
		</linearGradient>
		<path fill="url(#SVGID_14_)" d="M62.396,143.668c2.56,6.018,1.638,12.18-2.06,13.752c-3.697,1.572-8.773-2.037-11.334-8.057
			c-2.561-6.022-1.638-12.18,2.059-13.754C54.761,134.039,59.835,137.646,62.396,143.668z"/>
		
			<linearGradient id="SVGID_15_" gradientUnits="userSpaceOnUse" x1="259.7422" y1="1319.1895" x2="254.8674" y2="1330.439" gradientTransform="matrix(1 0 0 1 -200 -1182)">
			<stop  offset="0.0303" style="stop-color:#D2FF00"/>
			<stop  offset="1" style="stop-color:#A2F200;stop-opacity:0"/>
		</linearGradient>
		<path fill="url(#SVGID_15_)" d="M61.197,144.178c2.103,4.94,1.345,9.998-1.69,11.29c-3.036,1.291-7.203-1.673-9.305-6.614
			c-2.102-4.94-1.344-9.998,1.69-11.291C54.929,136.271,59.095,139.232,61.197,144.178z"/>
	</g>
</g>
</svg>
