<?xml version="1.0" encoding="utf-8"?>
<!-- Generator: Adobe Illustrator 15.0.0, SVG Export Plug-In . SVG Version: 6.00 Build 0)  -->
<!DOCTYPE svg PUBLIC "-//W3C//DTD SVG 1.1//EN" "http://www.w3.org/Graphics/SVG/1.1/DTD/svg11.dtd">
<svg version="1.1" id="Layer_1" xmlns="http://www.w3.org/2000/svg" xmlns:xlink="http://www.w3.org/1999/xlink" x="0px" y="0px"
	 width="200px" height="200px" viewBox="0 0 200 200" enable-background="new 0 0 200 200" xml:space="preserve">
<g id="icon">
	<g id="Layer_2">
	</g>
	<g>
		
			<radialGradient id="SVGID_1_" cx="255.5059" cy="-687.2744" r="92.4395" gradientTransform="matrix(1 0 0 -1.0696 -150 -612.3361)" gradientUnits="userSpaceOnUse">
			<stop  offset="0" style="stop-color:#FFFFFF"/>
			<stop  offset="0.3995" style="stop-color:#FDFDFE"/>
			<stop  offset="0.6306" style="stop-color:#F4F7FB"/>
			<stop  offset="0.8182" style="stop-color:#E6EDF5"/>
			<stop  offset="0.9825" style="stop-color:#D3DFED"/>
			<stop  offset="1" style="stop-color:#D0DDEC"/>
		</radialGradient>
		<polygon fill="url(#SVGID_1_)" points="174.234,78.604 114.547,30.999 25.765,75.809 82.934,131.729 		"/>
		
			<linearGradient id="SVGID_2_" gradientUnits="userSpaceOnUse" x1="293.9727" y1="-686.9307" x2="277.2278" y2="-653.8362" gradientTransform="matrix(1 0 0 -1 -150 -530)">
			<stop  offset="0.1472" style="stop-color:#B7CBE2"/>
			<stop  offset="1" style="stop-color:#6086A9"/>
		</linearGradient>
		<polygon fill="url(#SVGID_2_)" points="82.934,131.729 83.43,175.411 169.729,120.352 174.234,78.604 		"/>
		
			<linearGradient id="SVGID_3_" gradientUnits="userSpaceOnUse" x1="282.4062" y1="-615.3184" x2="284.8368" y2="-612.7309" gradientTransform="matrix(1 0 0 -1 -150 -530)">
			<stop  offset="0" style="stop-color:#8195AC"/>
			<stop  offset="1" style="stop-color:#244264"/>
		</linearGradient>
		<polygon fill="url(#SVGID_3_)" points="147.367,94.214 123.35,72.192 119.713,74.01 143.798,96.412 		"/>
		
			<linearGradient id="SVGID_4_" gradientUnits="userSpaceOnUse" x1="292.9658" y1="-645.5757" x2="295.8781" y2="-645.5757" gradientTransform="matrix(1 0 0 -1 -150 -530)">
			<stop  offset="0" style="stop-color:#8195AC"/>
			<stop  offset="1" style="stop-color:#244264"/>
		</linearGradient>
		<polygon fill="url(#SVGID_4_)" points="147.367,94.214 147.367,134.626 143.729,136.938 143.798,96.412 		"/>
		
			<linearGradient id="SVGID_5_" gradientUnits="userSpaceOnUse" x1="178.2568" y1="-677.4849" x2="214.6203" y2="-647.2852" gradientTransform="matrix(1 0 0 -1 -150 -530)">
			<stop  offset="0" style="stop-color:#FFFFFF"/>
			<stop  offset="0.4663" style="stop-color:#B7CBE2"/>
			<stop  offset="1" style="stop-color:#6086A9"/>
		</linearGradient>
		<polygon fill="url(#SVGID_5_)" points="83.43,175.411 29.624,116.508 25.765,75.809 82.934,131.729 		"/>
		
			<linearGradient id="SVGID_6_" gradientUnits="userSpaceOnUse" x1="247.8291" y1="-635.3452" x2="250.2995" y2="-632.715" gradientTransform="matrix(1 0 0 -1 -150 -530)">
			<stop  offset="0" style="stop-color:#8195AC"/>
			<stop  offset="1" style="stop-color:#244264"/>
		</linearGradient>
		<polygon fill="url(#SVGID_6_)" points="112.715,114.4 89.042,91.852 85.404,93.673 109.145,116.6 		"/>
		
			<linearGradient id="SVGID_7_" gradientUnits="userSpaceOnUse" x1="231.3555" y1="-584.8823" x2="212.1243" y2="-608.2712" gradientTransform="matrix(1 0 0 -1 -150 -530)">
			<stop  offset="0" style="stop-color:#354760"/>
			<stop  offset="1" style="stop-color:#000000"/>
		</linearGradient>
		<polygon fill="url(#SVGID_7_)" points="83.43,103.568 44.191,66.557 42.795,50.571 82.934,86.829 		"/>
		
			<linearGradient id="SVGID_8_" gradientUnits="userSpaceOnUse" x1="230.9482" y1="-623.5479" x2="207.9951" y2="-548.0737" gradientTransform="matrix(1 0 0 -1 -150 -530)">
			<stop  offset="0" style="stop-color:#354760"/>
			<stop  offset="1" style="stop-color:#000000"/>
		</linearGradient>
		<polygon fill="url(#SVGID_8_)" points="100.969,76.896 61.195,42.009 42.795,50.571 82.934,86.829 		"/>
		
			<linearGradient id="SVGID_9_" gradientUnits="userSpaceOnUse" x1="230.8594" y1="-623.2563" x2="209.0979" y2="-551.7007" gradientTransform="matrix(1 0 0 -1 -150 -530)">
			<stop  offset="0" style="stop-color:#88AECF"/>
			<stop  offset="1" style="stop-color:#000000"/>
		</linearGradient>
		<polygon fill="url(#SVGID_9_)" points="82.934,84.302 44.642,49.713 42.795,50.571 82.934,86.829 100.969,76.896 99.198,75.344 		
			"/>
		
			<linearGradient id="SVGID_10_" gradientUnits="userSpaceOnUse" x1="236.04" y1="-608.6836" x2="245.5387" y2="-626.493" gradientTransform="matrix(1 0 0 -1 -150 -530)">
			<stop  offset="0" style="stop-color:#354760"/>
			<stop  offset="1" style="stop-color:#000000"/>
		</linearGradient>
		<polygon fill="url(#SVGID_10_)" points="82.934,86.829 83.43,103.568 100.417,93.72 100.969,76.896 		"/>
		
			<linearGradient id="SVGID_11_" gradientUnits="userSpaceOnUse" x1="264.332" y1="-568.731" x2="247.5529" y2="-589.1377" gradientTransform="matrix(1 0 0 -1 -150 -530)">
			<stop  offset="0" style="stop-color:#474747"/>
			<stop  offset="1" style="stop-color:#000000"/>
		</linearGradient>
		<polygon fill="url(#SVGID_11_)" points="119.029,83.583 78.738,49.138 77.342,33.153 119.454,66.843 		"/>
		
			<linearGradient id="SVGID_12_" gradientUnits="userSpaceOnUse" x1="265.7207" y1="-603.8564" x2="243.6464" y2="-531.2718" gradientTransform="matrix(1 0 0 -1 -150 -530)">
			<stop  offset="0" style="stop-color:#354760"/>
			<stop  offset="1" style="stop-color:#000000"/>
		</linearGradient>
		<polygon fill="url(#SVGID_12_)" points="136.568,56.91 95.743,24.59 77.342,33.153 119.454,66.843 		"/>
		
			<linearGradient id="SVGID_13_" gradientUnits="userSpaceOnUse" x1="265.6348" y1="-603.5693" x2="244.7457" y2="-534.8824" gradientTransform="matrix(1 0 0 -1 -150 -530)">
			<stop  offset="0" style="stop-color:#88AECF"/>
			<stop  offset="1" style="stop-color:#000000"/>
		</linearGradient>
		<polygon fill="url(#SVGID_13_)" points="119.454,64.418 79.258,32.261 77.342,33.153 119.454,66.843 136.568,56.91 
			134.803,55.511 		"/>
		
			<linearGradient id="SVGID_14_" gradientUnits="userSpaceOnUse" x1="271.6396" y1="-588.6992" x2="281.1371" y2="-606.5065" gradientTransform="matrix(1 0 0 -1 -150 -530)">
			<stop  offset="0" style="stop-color:#354760"/>
			<stop  offset="1" style="stop-color:#000000"/>
		</linearGradient>
		<polygon fill="url(#SVGID_14_)" points="119.454,66.843 119.029,83.583 136.018,73.732 136.568,56.91 		"/>
		
			<linearGradient id="SVGID_15_" gradientUnits="userSpaceOnUse" x1="258.3164" y1="-666.7241" x2="261.2276" y2="-666.7241" gradientTransform="matrix(1 0 0 -1 -150 -530)">
			<stop  offset="0" style="stop-color:#8195AC"/>
			<stop  offset="1" style="stop-color:#244264"/>
		</linearGradient>
		<polygon fill="url(#SVGID_15_)" points="112.715,114.4 112.715,156.75 109.077,159.048 109.145,116.6 		"/>
	</g>
</g>
</svg>
