<?xml version="1.0" encoding="utf-8"?>
<!-- Generator: Adobe Illustrator 15.0.0, SVG Export Plug-In . SVG Version: 6.00 Build 0)  -->
<!DOCTYPE svg PUBLIC "-//W3C//DTD SVG 1.1//EN" "http://www.w3.org/Graphics/SVG/1.1/DTD/svg11.dtd">
<svg version="1.1" id="Layer_1" xmlns="http://www.w3.org/2000/svg" xmlns:xlink="http://www.w3.org/1999/xlink" x="0px" y="0px"
	 width="200px" height="200px" viewBox="0 0 200 200" enable-background="new 0 0 200 200" xml:space="preserve">
<g id="icon">
	<g id="Layer_2">
	</g>
	<g>
		
			<radialGradient id="SVGID_1_" cx="248.1055" cy="-701.3833" r="22.7011" gradientTransform="matrix(1 0 0 -1 -150 -530)" gradientUnits="userSpaceOnUse">
			<stop  offset="0.4601" style="stop-color:#494C4C"/>
			<stop  offset="0.5683" style="stop-color:#434646"/>
			<stop  offset="0.7138" style="stop-color:#333535"/>
			<stop  offset="0.8797" style="stop-color:#181919"/>
			<stop  offset="1" style="stop-color:#000000"/>
		</radialGradient>
		<ellipse fill="url(#SVGID_1_)" cx="97.735" cy="159.141" rx="40.648" ry="22.754"/>
		
			<radialGradient id="SVGID_2_" cx="248.4766" cy="-600.2993" r="41.3096" gradientTransform="matrix(1 0 0 -1.1346 -150 -505.6342)" gradientUnits="userSpaceOnUse">
			<stop  offset="0" style="stop-color:#686565"/>
			<stop  offset="1" style="stop-color:#000000"/>
		</radialGradient>
		<ellipse fill="url(#SVGID_2_)" cx="97.735" cy="154.689" rx="40.648" ry="22.754"/>
		
			<radialGradient id="SVGID_3_" cx="248.4766" cy="-601.2388" r="41.2724" gradientTransform="matrix(1 0 0 -1.1346 -150 -505.7612)" gradientUnits="userSpaceOnUse">
			<stop  offset="0" style="stop-color:#929090"/>
			<stop  offset="1" style="stop-color:#262525"/>
		</radialGradient>
		<path fill="url(#SVGID_3_)" d="M97.735,175.121c-21.754,0-39.517-9.566-40.596-21.592c-0.034,0.385-0.053,0.77-0.053,1.16
			c0,12.563,18.199,22.754,40.648,22.754c22.45,0,40.648-10.188,40.648-22.754c0-0.394-0.019-0.775-0.053-1.16
			C137.25,165.555,119.488,175.121,97.735,175.121z"/>
		
			<linearGradient id="SVGID_4_" gradientUnits="userSpaceOnUse" x1="242.6914" y1="-680.251" x2="253.7528" y2="-680.251" gradientTransform="matrix(1 0 0 -1 -150 -530)">
			<stop  offset="0" style="stop-color:#AC8335"/>
			<stop  offset="0.1679" style="stop-color:#CFB551"/>
			<stop  offset="0.3653" style="stop-color:#EDCE81"/>
			<stop  offset="0.6724" style="stop-color:#EDCE86"/>
			<stop  offset="0.8641" style="stop-color:#D4B658"/>
			<stop  offset="1" style="stop-color:#AE8328"/>
		</linearGradient>
		<path fill="url(#SVGID_4_)" d="M106.779,152.379c0,2.797-4.049,5.064-9.044,5.064c-4.995,0-9.044-2.271-9.044-5.064
			c0-1.049,0-9.32,0-9.32h18.088C106.779,143.059,106.779,151.615,106.779,152.379z"/>
		
			<linearGradient id="SVGID_5_" gradientUnits="userSpaceOnUse" x1="197.8027" y1="739.4004" x2="197.665" y2="728.3899" gradientTransform="matrix(1 0 0 1 -100 -591)">
			<stop  offset="0" style="stop-color:#F7D183"/>
			<stop  offset="0.135" style="stop-color:#EBCA62"/>
			<stop  offset="0.3256" style="stop-color:#DCB86F"/>
			<stop  offset="0.5493" style="stop-color:#BD9A3F"/>
			<stop  offset="0.7791" style="stop-color:#B67335"/>
			<stop  offset="1" style="stop-color:#795019"/>
		</linearGradient>
		<ellipse fill="url(#SVGID_5_)" cx="97.735" cy="143.059" rx="9.044" ry="5.062"/>
		
			<linearGradient id="SVGID_6_" gradientUnits="userSpaceOnUse" x1="244.0254" y1="-663.6045" x2="251.2587" y2="-663.6045" gradientTransform="matrix(1 0 0 -1 -150 -530)">
			<stop  offset="0" style="stop-color:#AC8335"/>
			<stop  offset="0.1679" style="stop-color:#CFB551"/>
			<stop  offset="0.3653" style="stop-color:#EDCE81"/>
			<stop  offset="0.6724" style="stop-color:#EDCE86"/>
			<stop  offset="0.8641" style="stop-color:#D4B658"/>
			<stop  offset="1" style="stop-color:#AE8328"/>
		</linearGradient>
		<path fill="url(#SVGID_6_)" d="M104.693,142.543c0,2.15-3.115,3.895-6.958,3.895c-3.843,0-6.96-1.744-6.96-3.895
			c0-0.809,0-21.771,0-21.771h13.918C104.693,120.771,104.693,141.955,104.693,142.543z"/>
		
			<linearGradient id="SVGID_7_" gradientUnits="userSpaceOnUse" x1="199.6729" y1="-600.9946" x2="305.6943" y2="-600.9946" gradientTransform="matrix(1 0 0 -1 -150 -530)">
			<stop  offset="0" style="stop-color:#3C3E45"/>
			<stop  offset="0.2498" style="stop-color:#43454B"/>
			<stop  offset="0.604" style="stop-color:#55575D"/>
			<stop  offset="1" style="stop-color:#727378"/>
		</linearGradient>
		<path fill="url(#SVGID_7_)" d="M149.041,90.266l-3.529-6.416l-7.014,6.499l-1.596-2.93l7.117-6.277l-1.797-3.269L135.27,84.5
			l-1.594-2.931l7.055-6.406l-1.664-3.024l-7.026,6.512l-1.599-2.93l7.138-6.291l-1.802-3.27l-6.969,6.645l-1.594-2.933l7.07-6.422
			l-1.875-3.41l-6.996,6.585l-1.594-2.932l7.098-6.361l-1.648-2.999l-6.969,6.417l-1.596-2.932l7.068-6.199l-1.627-2.96
			l-6.924,6.415l-1.597-2.929l7.022-6.198l-1.795-3.263l-6.86,6.54l-1.601-2.93l6.965-6.325l-1.873-3.405l-6.889,6.482L111,40.117
			l6.992-6.267l-1.648-2.995l-6.861,6.317l-1.596-2.932l6.961-6.106l-3.627-6.593c-1.373-2.468-5.35-0.302-6.531,0.573L92.892,28.77
			l-2.117-4.008c-1.265-2.54-6.379-0.446-7.708,0.137L48.304,43.337c-1.333,0.581-1.383,3.115-0.118,5.653l3.399,6.747l8.615-2.924
			l1.521,2.982l-8.734,2.722l1.543,3.065l8.763-2.865l1.519,2.982l-8.883,2.657l1.757,3.485l8.794-2.808l1.519,2.979l-8.914,2.604
			l1.685,3.339l8.723-2.931l1.519,2.981l-8.845,2.722l1.526,3.029l8.749-2.968l1.521,2.982l-8.871,2.762l1.547,3.07l8.895-2.908
			l1.521,2.98l-9.021,2.697l1.76,3.487l8.928-2.851l1.521,2.984l-9.052,2.641l1.686,3.344l8.856-2.975l1.52,2.982l-8.979,2.764
			l1.56,3.096l8.908-2.848l1.521,2.983l-9.032,2.636l1.686,3.344l8.837-2.969l1.521,2.981l-8.961,2.758l3.309,6.562
			c1.178,2.438,3.747,2.504,5.258,2.135l37.336-9.297c0.773-0.189,2.746-1.652,4.336-3.365l0.23,0.435
			c1.336,2.334,3.578,0.35,4.684-0.8l12.492-12.338C149.062,94.921,150.379,92.603,149.041,90.266z"/>
		
			<linearGradient id="SVGID_8_" gradientUnits="userSpaceOnUse" x1="230.3447" y1="-654.6689" x2="227.7644" y2="-659.9525" gradientTransform="matrix(1 0 0 -1 -150 -530)">
			<stop  offset="0" style="stop-color:#F7D183"/>
			<stop  offset="0.135" style="stop-color:#EBCA62"/>
			<stop  offset="0.3256" style="stop-color:#DCB86F"/>
			<stop  offset="0.5493" style="stop-color:#BD9A3F"/>
			<stop  offset="0.7791" style="stop-color:#B67335"/>
			<stop  offset="1" style="stop-color:#795019"/>
		</linearGradient>
		<path fill="url(#SVGID_8_)" d="M71.871,128.264c-0.738-0.336-5.582-2.576-6.135-3.062c-1.822-1.611-2.657-4.011-2.657-6.951
			V75.003h6.354l-0.092,43.247c0,1.531-0.029,2.244,0.907,2.953c1.028,0.779,0.69,1.418,2.392,0.939l50.6-13.275
			c-2.205,4.688,8.719,1.668,3.707,3.076L75.82,125.631C74.539,125.99,71.871,128.264,71.871,128.264z"/>
		
			<linearGradient id="SVGID_9_" gradientUnits="userSpaceOnUse" x1="222.8936" y1="-613.2363" x2="277.1783" y2="-589.8174" gradientTransform="matrix(1 0 0 -1 -150 -530)">
			<stop  offset="0.135" style="stop-color:#1D1F27"/>
			<stop  offset="0.1802" style="stop-color:#24252D"/>
			<stop  offset="0.2442" style="stop-color:#36383F"/>
			<stop  offset="0.2883" style="stop-color:#47484F"/>
			<stop  offset="0.7301" style="stop-color:#595A60"/>
			<stop  offset="0.8589" style="stop-color:#292B33"/>
		</linearGradient>
		<path fill="url(#SVGID_9_)" d="M138.498,90.349l-30.607-56.106l-4.397-8.601L55.117,38.998l5.084,13.816l29.07,57.165
			c0,0,4.603,9.299,6.113,8.933l30.829-6.771C126.986,111.947,138.498,90.349,138.498,90.349z"/>
		
			<linearGradient id="SVGID_10_" gradientUnits="userSpaceOnUse" x1="253.2773" y1="-627.1738" x2="283.8278" y2="-649.8182" gradientTransform="matrix(1 0 0 -1 -150 -530)">
			<stop  offset="0.0429" style="stop-color:#6D5021"/>
			<stop  offset="0.135" style="stop-color:#9D7335"/>
			<stop  offset="0.1656" style="stop-color:#B18547"/>
			<stop  offset="0.3374" style="stop-color:#907342"/>
			<stop  offset="0.5816" style="stop-color:#A77538"/>
			<stop  offset="0.6696" style="stop-color:#A47B38"/>
			<stop  offset="0.7825" style="stop-color:#C79762"/>
			<stop  offset="0.8344" style="stop-color:#C79553"/>
			<stop  offset="0.8896" style="stop-color:#887335"/>
		</linearGradient>
		<path fill="url(#SVGID_10_)" d="M149.15,94.068c0,0-11.217,13.786-12.082,14.727c-0.83,0.896-2.15,1.793-3.81,2.195
			l-41.653,10.641c-3.314,0.807-7.139-0.443-8.542-2.785c0,0,7.277-7.695,7.708-8.615c0.544-1.155,9.766-9.281,9.766-9.281
			c3.295-0.546,10.702-2.465,12.096,0L149.15,94.068z"/>
		<g>
			
				<linearGradient id="SVGID_11_" gradientUnits="userSpaceOnUse" x1="202.8076" y1="-601.9253" x2="218.2862" y2="-592.3148" gradientTransform="matrix(1 0 0 -1 -150 -530)">
				<stop  offset="0" style="stop-color:#F7D183"/>
				<stop  offset="0.135" style="stop-color:#EBCA62"/>
				<stop  offset="0.3256" style="stop-color:#DCB86F"/>
				<stop  offset="0.5493" style="stop-color:#BD9A3F"/>
				<stop  offset="0.7791" style="stop-color:#B67335"/>
				<stop  offset="1" style="stop-color:#795019"/>
			</linearGradient>
			<path fill="url(#SVGID_11_)" d="M61.207,72.82c1.848-2.823,6.449-9.854,8.932-13.648c0.81-1.234,1.947-2.232,3.066-2.712
				l-1.733-3.109c-1.095,0.438-2.195,1.38-2.96,2.558c-2.396,3.689-7.021,10.812-8.975,13.82c-0.198,0.306-0.326,0.651-0.411,0.974
				l1.663,3.342C60.843,73.668,60.958,73.2,61.207,72.82z"/>
			
				<linearGradient id="SVGID_12_" gradientUnits="userSpaceOnUse" x1="199.8135" y1="-595.6396" x2="215.0182" y2="-586.1991" gradientTransform="matrix(1 0 0 -1 -150 -530)">
				<stop  offset="0" style="stop-color:#F7D183"/>
				<stop  offset="0.135" style="stop-color:#EBCA62"/>
				<stop  offset="0.3256" style="stop-color:#DCB86F"/>
				<stop  offset="0.5493" style="stop-color:#BD9A3F"/>
				<stop  offset="0.7791" style="stop-color:#B67335"/>
				<stop  offset="1" style="stop-color:#795019"/>
			</linearGradient>
			<path fill="url(#SVGID_12_)" d="M57.914,66.856c1.849-2.823,6.448-9.854,8.932-13.648c0.803-1.226,1.929-2.217,3.039-2.702
				l-1.709-3.066c-0.909,0.5-1.784,1.316-2.422,2.301c-2.396,3.69-7.021,10.812-8.976,13.82c-0.294,0.453-0.435,0.989-0.505,1.403
				l1.319,2.654C57.662,67.358,57.761,67.089,57.914,66.856z"/>
			
				<linearGradient id="SVGID_13_" gradientUnits="userSpaceOnUse" x1="196.9844" y1="-589.7837" x2="211.9606" y2="-580.4852" gradientTransform="matrix(1 0 0 -1 -150 -530)">
				<stop  offset="0" style="stop-color:#F7D183"/>
				<stop  offset="0.135" style="stop-color:#EBCA62"/>
				<stop  offset="0.3256" style="stop-color:#DCB86F"/>
				<stop  offset="0.5493" style="stop-color:#BD9A3F"/>
				<stop  offset="0.7791" style="stop-color:#B67335"/>
				<stop  offset="1" style="stop-color:#795019"/>
			</linearGradient>
			<path fill="url(#SVGID_13_)" d="M53.532,57.855c-0.173,0.267-0.288,0.562-0.373,0.846l1.583,3.184
				c0.057-0.371,0.172-0.825,0.414-1.198c1.848-2.821,6.448-9.852,8.931-13.646c0.676-1.032,1.579-1.894,2.509-2.433l-1.617-2.901
				c-0.927,0.497-1.821,1.328-2.471,2.328C60.11,47.725,55.485,54.848,53.532,57.855z"/>
			
				<linearGradient id="SVGID_14_" gradientUnits="userSpaceOnUse" x1="205.6973" y1="-607.8774" x2="221.3931" y2="-598.1319" gradientTransform="matrix(1 0 0 -1 -150 -530)">
				<stop  offset="0" style="stop-color:#F7D183"/>
				<stop  offset="0.135" style="stop-color:#EBCA62"/>
				<stop  offset="0.3256" style="stop-color:#DCB86F"/>
				<stop  offset="0.5493" style="stop-color:#BD9A3F"/>
				<stop  offset="0.7791" style="stop-color:#B67335"/>
				<stop  offset="1" style="stop-color:#795019"/>
			</linearGradient>
			<path fill="url(#SVGID_14_)" d="M64.037,78.617c1.847-2.823,6.447-9.854,8.93-13.647c0.891-1.358,2.176-2.435,3.396-2.845
				l-1.572-2.82c-1.104,0.433-2.215,1.381-2.986,2.568c-2.396,3.691-7.021,10.812-8.975,13.818c-0.301,0.464-0.441,1.016-0.51,1.434
				l1.311,2.637C63.691,79.4,63.804,78.971,64.037,78.617z"/>
			
				<linearGradient id="SVGID_15_" gradientUnits="userSpaceOnUse" x1="220.1943" y1="-638.1748" x2="237.1617" y2="-627.6401" gradientTransform="matrix(1 0 0 -1 -150 -530)">
				<stop  offset="0" style="stop-color:#F7D183"/>
				<stop  offset="0.135" style="stop-color:#EBCA62"/>
				<stop  offset="0.3256" style="stop-color:#DCB86F"/>
				<stop  offset="0.5493" style="stop-color:#BD9A3F"/>
				<stop  offset="0.7791" style="stop-color:#B67335"/>
				<stop  offset="1" style="stop-color:#795019"/>
			</linearGradient>
			<path fill="url(#SVGID_15_)" d="M88.197,94.731c0.998-1.522,2.491-2.696,3.835-2.969c0.24-0.047,0.501-0.102,0.771-0.156
				l-1.809-3.243c-0.221,0.047-0.434,0.093-0.631,0.136c-1.285,0.276-2.67,1.354-3.579,2.754c-2.396,3.689-7.021,10.812-8.975,13.82
				c-0.546,0.84-0.571,1.971-0.572,2.049l1.564,3.146c0,0-0.034-1.125,0.466-1.89C81.114,105.555,85.714,98.524,88.197,94.731z"/>
			
				<linearGradient id="SVGID_16_" gradientUnits="userSpaceOnUse" x1="191.3496" y1="-579.5195" x2="206.4131" y2="-570.1669" gradientTransform="matrix(1 0 0 -1 -150 -530)">
				<stop  offset="0" style="stop-color:#F7D183"/>
				<stop  offset="0.135" style="stop-color:#EBCA62"/>
				<stop  offset="0.3256" style="stop-color:#DCB86F"/>
				<stop  offset="0.5493" style="stop-color:#BD9A3F"/>
				<stop  offset="0.7791" style="stop-color:#B67335"/>
				<stop  offset="1" style="stop-color:#795019"/>
			</linearGradient>
			<path fill="url(#SVGID_16_)" d="M51.91,54.982c1.848-2.821,6.447-9.853,8.931-13.647c0.688-1.048,1.611-1.923,2.56-2.46
				l-6.43-11.529c0,0-8.748,12.511-9.322,13.652c-1.368,2.727-0.733,5.298-0.116,6.39l4.09,8.226
				C51.69,55.396,51.782,55.177,51.91,54.982z"/>
			
				<linearGradient id="SVGID_17_" gradientUnits="userSpaceOnUse" x1="208.4824" y1="-613.6484" x2="224.4043" y2="-603.7629" gradientTransform="matrix(1 0 0 -1 -150 -530)">
				<stop  offset="0" style="stop-color:#F7D183"/>
				<stop  offset="0.135" style="stop-color:#EBCA62"/>
				<stop  offset="0.3256" style="stop-color:#DCB86F"/>
				<stop  offset="0.5493" style="stop-color:#BD9A3F"/>
				<stop  offset="0.7791" style="stop-color:#B67335"/>
				<stop  offset="1" style="stop-color:#795019"/>
			</linearGradient>
			<path fill="url(#SVGID_17_)" d="M66.819,84.552c1.847-2.823,6.448-9.854,8.931-13.646c0.996-1.522,2.49-2.693,3.836-2.967
				c0.004-0.002,0.012-0.003,0.018-0.003l-1.643-2.947c-1.212,0.354-2.478,1.372-3.328,2.682c-2.396,3.69-7.021,10.812-8.974,13.82
				c-0.281,0.432-0.423,0.943-0.497,1.35l1.299,2.611C66.529,85.15,66.638,84.83,66.819,84.552z"/>
			
				<linearGradient id="SVGID_18_" gradientUnits="userSpaceOnUse" x1="224.2412" y1="-646.8066" x2="241.6492" y2="-635.9982" gradientTransform="matrix(1 0 0 -1 -149.8989 -529.9385)">
				<stop  offset="0" style="stop-color:#F7D183"/>
				<stop  offset="0.135" style="stop-color:#EBCA62"/>
				<stop  offset="0.3256" style="stop-color:#DCB86F"/>
				<stop  offset="0.5493" style="stop-color:#BD9A3F"/>
				<stop  offset="0.7791" style="stop-color:#B67335"/>
				<stop  offset="1" style="stop-color:#795019"/>
			</linearGradient>
			<path fill="url(#SVGID_18_)" d="M93.288,109.143c2.158-3.287,8.412-2.742,7.253-2.549l-6.143-12.123
				c-0.34,0.074-0.662,0.143-0.955,0.205c-1.285,0.276-2.67,1.353-3.579,2.753c-2.396,3.692-7.022,10.815-8.975,13.821
				c-0.564,0.869-0.572,2.064-0.572,2.064l-0.889-1.785l3.639,7.313c0.261,0.437,1.173,1.312,2.083,1.929
				C85.15,120.771,89.531,114.865,93.288,109.143z"/>
			
				<linearGradient id="SVGID_19_" gradientUnits="userSpaceOnUse" x1="217.3164" y1="-632.124" x2="234.0185" y2="-621.754" gradientTransform="matrix(1 0 0 -1 -150 -530)">
				<stop  offset="0" style="stop-color:#F7D183"/>
				<stop  offset="0.135" style="stop-color:#EBCA62"/>
				<stop  offset="0.3256" style="stop-color:#DCB86F"/>
				<stop  offset="0.5493" style="stop-color:#BD9A3F"/>
				<stop  offset="0.7791" style="stop-color:#B67335"/>
				<stop  offset="1" style="stop-color:#795019"/>
			</linearGradient>
			<path fill="url(#SVGID_19_)" d="M76.187,102.199c1.847-2.823,6.447-9.853,8.93-13.648c0.997-1.521,2.492-2.693,3.836-2.967
				c0.142-0.028,0.29-0.059,0.441-0.09l-1.576-2.829c-0.129,0.029-0.258,0.057-0.377,0.082c-1.285,0.275-2.67,1.354-3.58,2.753
				c-2.396,3.692-7.021,10.813-8.974,13.821c-0.458,0.705-0.548,1.613-0.567,1.934l1.4,2.815
				C75.718,103.986,75.708,102.932,76.187,102.199z"/>
			
				<linearGradient id="SVGID_20_" gradientUnits="userSpaceOnUse" x1="212.5527" y1="-623.29" x2="229.268" y2="-612.9117" gradientTransform="matrix(1 0 0 -1 -150 -530)">
				<stop  offset="0" style="stop-color:#F7D183"/>
				<stop  offset="0.135" style="stop-color:#EBCA62"/>
				<stop  offset="0.3256" style="stop-color:#DCB86F"/>
				<stop  offset="0.5493" style="stop-color:#BD9A3F"/>
				<stop  offset="0.7791" style="stop-color:#B67335"/>
				<stop  offset="1" style="stop-color:#795019"/>
			</linearGradient>
			<path fill="url(#SVGID_20_)" d="M73.265,96.449c1.848-2.823,6.447-9.854,8.931-13.646c0.997-1.523,2.491-2.695,3.835-2.969
				c0.06-0.012,0.125-0.025,0.186-0.037l-1.654-2.969c-1.244,0.322-2.561,1.363-3.437,2.712c-2.396,3.69-7.021,10.812-8.974,13.82
				c-0.565,0.869-0.573,2.062-0.573,2.062l-1.517-3.046c0,0-0.033-1.126,0.467-1.888c1.847-2.825,6.448-9.855,8.932-13.649
				c0.915-1.399,2.251-2.492,3.504-2.875l-1.76-3.157c-0.07,0.016-0.145,0.029-0.211,0.044c-1.284,0.275-2.668,1.354-3.578,2.754
				c-2.396,3.69-7.021,10.812-8.975,13.82c-0.229,0.352-0.363,0.754-0.445,1.111l4.805,9.662
				C72.808,97.883,72.868,97.056,73.265,96.449z"/>
		</g>
		
			<linearGradient id="SVGID_21_" gradientUnits="userSpaceOnUse" x1="230.5371" y1="-637.8604" x2="236.5825" y2="-641.4165" gradientTransform="matrix(1 0 0 -1 -150 -530)">
			<stop  offset="0" style="stop-color:#AC8335"/>
			<stop  offset="0.1679" style="stop-color:#CFB551"/>
			<stop  offset="0.3653" style="stop-color:#EDCE81"/>
			<stop  offset="0.6724" style="stop-color:#EDCE86"/>
			<stop  offset="0.8641" style="stop-color:#D4B658"/>
			<stop  offset="1" style="stop-color:#AE8328"/>
		</linearGradient>
		<path fill="url(#SVGID_21_)" d="M73.205,129.035c-3.173-1.445-4.59-4.357-4.59-8.188V77.6h3.896v43.248
			c0,1.531,0.495,2.715,1.432,3.426c1.028,0.779,2.532,0.943,4.234,0.468l50.599-13.273c-2.201,4.688-2.947,4.291-7.959,5.699
			l-39.459,11.062C80.076,128.588,76.582,130.572,73.205,129.035z"/>
		
			<radialGradient id="SVGID_22_" cx="1890.3291" cy="-603.2432" r="4.5211" gradientTransform="matrix(0.6819 0 0 -1 -1218.9812 -530)" gradientUnits="userSpaceOnUse">
			<stop  offset="0" style="stop-color:#F7D183"/>
			<stop  offset="0.135" style="stop-color:#EBCA62"/>
			<stop  offset="0.3256" style="stop-color:#DCB86F"/>
			<stop  offset="0.5493" style="stop-color:#BD9A3F"/>
			<stop  offset="0.7791" style="stop-color:#B67335"/>
			<stop  offset="1" style="stop-color:#795019"/>
		</radialGradient>
		<ellipse fill="url(#SVGID_22_)" cx="67.995" cy="78.343" rx="5.705" ry="8.366"/>
		
			<radialGradient id="SVGID_23_" cx="1884.6562" cy="-608.3428" r="10.3881" gradientTransform="matrix(0.6819 0 0 -1 -1218.9812 -530)" gradientUnits="userSpaceOnUse">
			<stop  offset="0" style="stop-color:#F7D183"/>
			<stop  offset="0.135" style="stop-color:#EBCA62"/>
			<stop  offset="0.3256" style="stop-color:#DCB86F"/>
			<stop  offset="0.5493" style="stop-color:#BD9A3F"/>
			<stop  offset="0.7791" style="stop-color:#B67335"/>
			<stop  offset="1" style="stop-color:#795019"/>
		</radialGradient>
		<ellipse fill="url(#SVGID_23_)" cx="66.166" cy="78.343" rx="5.705" ry="8.366"/>
		
			<radialGradient id="SVGID_24_" cx="1884.1211" cy="-608.3428" r="4.126" gradientTransform="matrix(0.6819 0 0 -1 -1218.9812 -530)" gradientUnits="userSpaceOnUse">
			<stop  offset="0" style="stop-color:#F7D183"/>
			<stop  offset="0.135" style="stop-color:#EBCA62"/>
			<stop  offset="0.3256" style="stop-color:#DCB86F"/>
			<stop  offset="0.5493" style="stop-color:#BD9A3F"/>
			<stop  offset="0.7791" style="stop-color:#B67335"/>
			<stop  offset="1" style="stop-color:#795019"/>
		</radialGradient>
		<ellipse fill="url(#SVGID_24_)" cx="65.801" cy="78.343" rx="2.813" ry="4.127"/>
		
			<linearGradient id="SVGID_25_" gradientUnits="userSpaceOnUse" x1="231.2754" y1="-601.6689" x2="279.322" y2="-577.2739" gradientTransform="matrix(1 0 0 -1 -150 -530)">
			<stop  offset="0" style="stop-color:#B67728"/>
			<stop  offset="0.0613" style="stop-color:#DCC362"/>
			<stop  offset="0.1411" style="stop-color:#FFFFFF"/>
			<stop  offset="0.5153" style="stop-color:#FAD177"/>
			<stop  offset="0.8001" style="stop-color:#E4BB2D"/>
			<stop  offset="0.9161" style="stop-color:#CFA744"/>
			<stop  offset="0.9941" style="stop-color:#8D601E"/>
		</linearGradient>
		<path fill="url(#SVGID_25_)" d="M149.352,90.298l-3.531-6.407l-20.481,4.406l-1.573-2.924l20.567-4.188l-1.799-3.264
			l-20.438,4.531l-1.574-2.923l20.521-4.314l-1.664-3.021l-20.529,4.414l-1.576-2.924l20.615-4.195l-1.801-3.264l-20.48,4.541
			l-1.573-2.925l20.563-4.324l-1.875-3.404l-20.508,4.483l-1.572-2.923l20.588-4.265l-1.649-2.994l-20.326,4.339l-1.573-2.924
			l20.405-4.127l-1.631-2.956l-20.222,4.349l-1.573-2.924l20.305-4.133l-1.797-3.259l-20.174,4.472l-1.574-2.922l20.254-4.259
			l-1.875-3.403l-20.196,4.417l-1.574-2.923l20.279-4.201l-1.649-2.993l-20.02,4.273l-1.574-2.923l20.095-4.064l-3.631-6.586
			c-1.393-2.467-5.193-4.029-8.488-3.482l-42.509,7.012c-3.294,0.544-4.835,2.984-3.441,5.453l4.823,9.378
			c0.855-0.856,1.844-1.475,2.768-1.662c5.438-1.106,19.154-3.896,19.154-3.896l1.479,2.687c0,0-13.863,2.976-19.223,4.125
			c-0.916,0.198-1.879,0.806-2.688,1.644l1.552,3.017c0.898-0.968,1.976-1.666,2.973-1.869c5.438-1.105,19.153-3.896,19.153-3.896
			l1.479,2.684c0,0-13.862,2.976-19.223,4.125c-0.992,0.214-2.043,0.908-2.889,1.858l1.538,2.99c0.839-0.821,1.802-1.41,2.7-1.594
			c5.438-1.105,19.152-3.896,19.152-3.896l1.479,2.683c0,0-13.861,2.977-19.223,4.127c-0.889,0.189-1.824,0.772-2.619,1.574
			l1.655,3.218c0.872-0.899,1.896-1.549,2.849-1.743c5.438-1.105,19.152-3.895,19.152-3.895l1.479,2.684
			c0,0-13.863,2.977-19.223,4.126c-0.945,0.203-1.943,0.843-2.768,1.723l1.441,2.802c0.85-0.847,1.831-1.456,2.746-1.642
			c5.438-1.105,19.152-3.896,19.152-3.896l1.479,2.683c0,0-13.862,2.978-19.223,4.127c-0.907,0.195-1.862,0.795-2.667,1.621
			l1.473,2.861c0.807-0.753,1.717-1.288,2.568-1.46c5.438-1.106,19.152-3.896,19.152-3.896l1.479,2.685
			c0,0-13.862,2.976-19.223,4.125c-0.84,0.181-1.722,0.709-2.486,1.442l1.787,3.476c0.902-0.982,1.994-1.692,3-1.896
			c5.438-1.105,19.152-3.895,19.152-3.895l1.479,2.683c0,0-13.865,2.976-19.224,4.126c-1.004,0.215-2.064,0.922-2.915,1.887
			l1.459,2.838c0.858-0.866,1.854-1.489,2.782-1.678c5.438-1.105,19.153-3.896,19.153-3.896l1.479,2.684
			c0,0-13.863,2.977-19.223,4.126c-0.922,0.197-1.892,0.812-2.703,1.658l1.457,2.832c0.853-0.852,1.838-1.466,2.758-1.653
			c5.438-1.105,19.153-3.896,19.153-3.896l1.479,2.684c0,0-13.862,2.977-19.221,4.126c-0.912,0.195-1.872,0.801-2.68,1.634
			l1.656,3.218c0.838-0.818,1.797-1.405,2.692-1.588c5.439-1.104,19.154-3.896,19.154-3.896l1.479,2.685
			c0,0-13.862,2.976-19.221,4.125c-0.888,0.19-1.82,0.771-2.614,1.568l3.765,7.317c1.402,2.342,5.227,3.59,8.542,2.787
			l42.758-10.357C149.205,95.191,150.756,92.641,149.352,90.298z"/>
	</g>
</g>
</svg>
