<?xml version="1.0" encoding="utf-8"?>
<!-- Generator: Adobe Illustrator 15.0.0, SVG Export Plug-In . SVG Version: 6.00 Build 0)  -->
<!DOCTYPE svg PUBLIC "-//W3C//DTD SVG 1.1//EN" "http://www.w3.org/Graphics/SVG/1.1/DTD/svg11.dtd">
<svg version="1.1" id="Layer_1" xmlns="http://www.w3.org/2000/svg" xmlns:xlink="http://www.w3.org/1999/xlink" x="0px" y="0px"
	 width="200px" height="200px" viewBox="0 0 200 200" enable-background="new 0 0 200 200" xml:space="preserve">
<g id="icon">
	<g id="Layer_2">
	</g>
	
		<linearGradient id="SVGID_1_" gradientUnits="userSpaceOnUse" x1="241.8047" y1="-624" x2="291.9009" y2="-817.9444" gradientTransform="matrix(1 0 0 -1 -150 -530)">
		<stop  offset="0.1758" style="stop-color:#96DC00"/>
		<stop  offset="1" style="stop-color:#366100"/>
	</linearGradient>
	<path fill="url(#SVGID_1_)" d="M111.162,186.639c-4.842,0-9.43-1.673-13.638-4.971c-4.931-3.861-7.676-9.757-7.165-15.383
		c0.405-4.461,2.898-8.205,6.84-10.273c1.97-1.031,4.238-1.576,6.562-1.576c5.029,0,9.885,2.539,12.075,6.317
		c1.771,3.056,1.722,6.537-0.147,9.806c-0.756,1.32-1.635,2.383-2.58,3.234c0.24-0.052,0.479-0.113,0.717-0.182
		c5.25-1.522,8.249-3.438,9.438-6.02c1.219-2.646,0.707-6.479-1.521-11.387c-3.233-7.121-5.228-10.734-6.328-12.518
		c-3.397,1.64-10.058,4.209-18.354,4.209c-4.637,0-9.193-0.812-13.542-2.408c-19.797-7.275-21.466-21.872-22.178-28.105
		c-1.268-11.132,4.434-24.21,18.457-42.244c-2.422-4.552-8.485-16.875-9.385-27.693c-1.14-13.729,3.896-23.114,8.411-29.758
		c1.948-2.866,4.799-4.445,8.028-4.445c4.056,0,8.488,2.438,12.481,6.866c5.565,6.172,11.044,17.314,9.724,30.074
		c-1.115,10.757-5.293,21.653-13.509,35.151l5.403,10.386c2.021-0.483,5.066-1.034,8.441-1.034c4.162,0,7.83,0.83,10.898,2.465
		c9.417,5.011,17.434,15.818,12.771,27.705c-2.809,7.158-6.715,11.414-9.174,13.558c2.133,4.058,6.312,12.073,7.062,14.008
		l0.148,0.388c6.209,15.729,2.438,23.09-1.824,26.496C123.188,184.171,117.092,186.639,111.162,186.639
		C111.163,186.639,111.163,186.639,111.162,186.639z M89.2,93.776c-2.896,3.829-6.554,8.851-7.539,10.93
		c-0.159,0.334-0.38,0.762-0.645,1.272c-4.592,8.855-8.416,20.088,2.877,28.377c4.252,3.121,9.011,4.705,14.146,4.705
		c5.717,0,10.682-1.968,13.455-3.344l-11.615-21.806c-2.145,1.229-5.128,3.651-5.583,7.812c-0.73,6.664,8.954,9.267,9.052,9.289
		c1.426,0.371,2.366,1.725,2.229,3.188c-0.142,1.467-1.326,2.616-2.798,2.712c0,0-0.262,0.018-0.73,0.018
		c-8.111,0-17.673-3.879-20.18-14.768c-2.448-10.618,4.624-18.696,10.24-22.626L89.2,93.776z M119.393,130.562
		c2.131-2.463,4.521-6.856,2.217-12.834c-2.1-5.455-7.504-6.602-11.668-6.602c-0.344,0-0.674,0.012-0.983,0.021L119.393,130.562z
		 M87.854,30.943c-2.303,2.351-6.916,12.847-4.967,24.263c0.899,5.269,2.346,9.239,3.547,11.865
		c2.436-3.525,5.393-8.195,6.221-10.967c1.731-5.791,1.444-13.338-0.697-18.355C89.927,32.99,88.457,31.426,87.854,30.943z"/>
</g>
</svg>
