<?xml version="1.0" encoding="utf-8"?>
<!-- Generator: Adobe Illustrator 15.0.0, SVG Export Plug-In . SVG Version: 6.00 Build 0)  -->
<!DOCTYPE svg PUBLIC "-//W3C//DTD SVG 1.1//EN" "http://www.w3.org/Graphics/SVG/1.1/DTD/svg11.dtd">
<svg version="1.1" id="Layer_1" xmlns="http://www.w3.org/2000/svg" xmlns:xlink="http://www.w3.org/1999/xlink" x="0px" y="0px"
	 width="200px" height="200px" viewBox="0 0 200 200" enable-background="new 0 0 200 200" xml:space="preserve">
<g id="icon">
	<g id="Layer_2">
	</g>
	<g>
		
			<radialGradient id="SVGID_1_" cx="300" cy="1281.998" r="95.2412" gradientTransform="matrix(1 0 0 1 -200 -1182)" gradientUnits="userSpaceOnUse">
			<stop  offset="0" style="stop-color:#FF7000;stop-opacity:0"/>
			<stop  offset="0.1129" style="stop-color:#FF7505;stop-opacity:0.1897"/>
			<stop  offset="0.2519" style="stop-color:#FF8413;stop-opacity:0.4233"/>
			<stop  offset="0.4047" style="stop-color:#FF9D2B;stop-opacity:0.6801"/>
			<stop  offset="0.5663" style="stop-color:#FFC04C;stop-opacity:0.9517"/>
			<stop  offset="0.5951" style="stop-color:#FFC753"/>
			<stop  offset="0.7358" style="stop-color:#FFBC31;stop-opacity:0.6526"/>
			<stop  offset="0.9078" style="stop-color:#FFB10E;stop-opacity:0.2276"/>
			<stop  offset="1" style="stop-color:#FFAD00;stop-opacity:0"/>
		</radialGradient>
		<circle fill="url(#SVGID_1_)" cx="100" cy="99.998" r="95.241"/>
		<g>
			
				<radialGradient id="SVGID_2_" cx="7077.7637" cy="4734.6602" r="83.4575" gradientTransform="matrix(-0.4462 0.2708 -0.0696 -0.8706 3585.8867 2329.2009)" gradientUnits="userSpaceOnUse">
				<stop  offset="0" style="stop-color:#B30000"/>
				<stop  offset="1" style="stop-color:#920000"/>
			</radialGradient>
			<path fill="url(#SVGID_2_)" d="M49.7,94.303l17.885-10.349l9.58,29.958c4.166,13.027,22.033,22.099,31.991,18.441
				c9.955-3.653,14.669-17.227,10.501-30.25l-9.579-29.959l17.881-10.349l9.577,29.957c9.771,30.535,12.69,64.622-10.647,73.186
				c-4.295,1.576-16.289,1.426-20.701,1.295c-19.542-0.568-38.938-17.061-46.908-41.976L49.7,94.303z"/>
			
				<linearGradient id="SVGID_3_" gradientUnits="userSpaceOnUse" x1="5366.2539" y1="4181.9873" x2="5419.0059" y2="4181.9873" gradientTransform="matrix(-0.6808 0.2499 -0.2848 -0.8909 4925.3516 2451.335)">
				<stop  offset="0" style="stop-color:#BDD0DD"/>
				<stop  offset="1" style="stop-color:#7997C2"/>
			</linearGradient>
			<polygon fill="url(#SVGID_3_)" points="62.515,93.663 76.343,52.137 63.526,52.775 39.266,61.681 49.7,94.303 			"/>
			<polygon fill="#FFFFFF" points="52.085,61.039 76.343,52.137 63.526,52.775 39.266,61.681 			"/>
			
				<linearGradient id="SVGID_4_" gradientUnits="userSpaceOnUse" x1="5277.5674" y1="4181.9824" x2="5330.3223" y2="4181.9824" gradientTransform="matrix(-0.6808 0.2499 -0.2848 -0.8909 4925.3516 2451.335)">
				<stop  offset="0" style="stop-color:#BDD0DD"/>
				<stop  offset="1" style="stop-color:#7997C2"/>
			</linearGradient>
			<polygon fill="url(#SVGID_4_)" points="110.078,72.145 122.893,71.506 136.721,29.975 123.904,30.615 99.643,39.521 			"/>
			<polygon fill="#FFFFFF" points="112.457,38.881 136.721,29.975 123.904,30.615 99.643,39.521 			"/>
		</g>
		
			<linearGradient id="SVGID_5_" gradientUnits="userSpaceOnUse" x1="4091.9502" y1="347.918" x2="4187.541" y2="347.918" gradientTransform="matrix(1.0175 -0.4831 0.7146 0.7864 -4335.3882 1841.6111)">
			<stop  offset="0" style="stop-color:#FF0600"/>
			<stop  offset="1" style="stop-color:#DB0100"/>
		</linearGradient>
		<path fill="url(#SVGID_5_)" d="M62.515,93.663L86.78,84.76l9.58,29.953c4.166,13.032,15.656,20.661,25.613,17.003
			c9.954-3.653,14.67-17.225,10.502-30.254l-9.582-29.956l24.262-8.903l9.582,29.956c9.768,30.531-1.271,62.345-24.607,70.909
			c-8.716,3.198-17.938,2.71-26.566-0.752c-14.485-5.807-27.345-19.967-33.458-39.099L62.515,93.663z"/>
		<polygon fill="#FFFFFF" points="86.78,84.76 76.343,52.137 52.085,61.039 62.515,93.663 		"/>
		<polygon fill="#FFFFFF" points="122.893,71.506 147.154,62.603 136.721,29.975 112.457,38.881 		"/>
	</g>
</g>
</svg>
