<?xml version="1.0" encoding="utf-8"?>
<!-- Generator: Adobe Illustrator 15.0.0, SVG Export Plug-In . SVG Version: 6.00 Build 0)  -->
<!DOCTYPE svg PUBLIC "-//W3C//DTD SVG 1.1//EN" "http://www.w3.org/Graphics/SVG/1.1/DTD/svg11.dtd">
<svg version="1.1" id="Layer_1" xmlns="http://www.w3.org/2000/svg" xmlns:xlink="http://www.w3.org/1999/xlink" x="0px" y="0px"
	 width="200px" height="200px" viewBox="0 0 200 200" enable-background="new 0 0 200 200" xml:space="preserve">
<path d="M62.07,137.846c0,0-2.09,11.487,0,13.324c2.09,1.839,12.96,8.042,17.686,9.191c4.727,1.146,4.963-2.528,4.963-2.528
	s12.053,7.811,16.069,13.324c4.017,5.515,33.083,16.329,56.712,10.921c23.632-5.406,15.36-19.881,15.36-19.881
	S65.888,123.372,62.07,137.846z"/>
<g id="icon">
	<g id="Layer_2">
	</g>
	<g>
		
			<linearGradient id="SVGID_1_" gradientUnits="userSpaceOnUse" x1="1760.4434" y1="389.1934" x2="1792.8824" y2="433.1955" gradientTransform="matrix(0.791 0.5919 -0.467 0.9148 -1117.1841 -1334.6248)">
			<stop  offset="0" style="stop-color:#FFFFFF"/>
			<stop  offset="1" style="stop-color:#6E6E6E"/>
		</linearGradient>
		<path fill="url(#SVGID_1_)" d="M68.261,16.043c-9.516,23.204,28.229,38.976,40.033,55.809c4.279,6.103,4.485,13.914,4.45,21.042
			c-0.021,4.652,0.078,8.301,0.843,12.747c-4.909-5.991-0.661-17.723-4.022-26.646c-4.402-11.693-26.083-25.606-39.013-38.493
			c-0.63,5.432-0.499,12.443,3.501,16.213c3.778,3.559,11.534,8.729,15.743,12.16c7.391,6.023,11.612,9.521,14.409,14.943
			c3.71,7.194,2.904,18.913,6.145,22.605c-2.785-1.413-3.348-3.407-4.053-6.929c-1.084-5.423-1.148-12.53-6.881-18.894
			c-6.146-6.818-15.728-13.493-25.153-20.267c-0.008,4.948-1.452,11.402,1.971,15.727c2.036,2.572,5.821,4.678,8.947,6.975
			c4.99,3.665,10.771,6.596,14.135,10.948c3.884,5.027,3.359,6.505,4.686,11.558c0.867,3.143,1.451,4.895,1.451,4.895
			c3.169,7.101,19.459,9.543,15.395,3.688c-7.332-9.171-7.326-25.194-6.348-34.665c0.869-8.402,6.9-23.672-4.641-32.289
			C96.3,37.048,83.419,28.064,68.261,16.043z"/>
		<g>
			
				<radialGradient id="SVGID_2_" cx="335.7783" cy="1275.7676" r="90.991" gradientTransform="matrix(1 0 0 1 -199.8359 -1182.124)" gradientUnits="userSpaceOnUse">
				<stop  offset="0.4479" style="stop-color:#A65200"/>
				<stop  offset="0.6602" style="stop-color:#A45100"/>
				<stop  offset="0.7367" style="stop-color:#9D4E00"/>
				<stop  offset="0.7912" style="stop-color:#924800"/>
				<stop  offset="0.835" style="stop-color:#814000"/>
				<stop  offset="0.865" style="stop-color:#703800"/>
				<stop  offset="1" style="stop-color:#7F3F00"/>
			</radialGradient>
			<path fill="url(#SVGID_2_)" d="M57.379,64.164c0.615,18.988-0.99,7.817,2.891,24.77c1.783,7.79,1.614,8.982-0.225,17.315
				c-1.838,8.332-2.346,15.271-1.313,22.133c1.033,6.861,3.781,8.095,3.781,8.095s16.89,8.078,20.305,10.529
				c3.414,2.451,11.881,12.254,23.473,18.626c11.593,6.372,51.916,14.099,68.373-1.227c0,0,0.699-7.403-2.543-11.376
				c-7.854-9.617-30.611-24.564-34.98-27.415c0,0-2.013-4.357-4.815-7.042c-2.159-2.064-8.665-5.943-8.665-5.943
				s-1.137-3.184-2.18-4.906c-0.914-1.506-3.678-4.688-3.678-4.688c-1.544-3.48-2.527-7.165-2.566-10.917
				c-0.172-15.685,2.469-29.82,2.469-33.678C117.7,44.141,56.644,52.034,57.379,64.164z"/>
		</g>
		<g>
			
				<linearGradient id="SVGID_3_" gradientUnits="userSpaceOnUse" x1="237.5371" y1="-598.501" x2="237.5371" y2="-616.0095" gradientTransform="matrix(1 0 0 -1 -150 -530)">
				<stop  offset="0" style="stop-color:#562100"/>
				<stop  offset="1" style="stop-color:#562100;stop-opacity:0"/>
			</linearGradient>
			<path fill="url(#SVGID_3_)" d="M116.514,71.163c0.604-6.157,1.188-10.91,1.188-12.728c0-14.295-61.057-6.402-60.321,5.729
				c0,0,0.186-2.827,0.576,4.218C71.511,75.666,103.163,80.185,116.514,71.163z"/>
		</g>
		
			<radialGradient id="SVGID_4_" cx="1977.5713" cy="1561.9912" r="64.2928" gradientTransform="matrix(0.6035 0.2142 -0.2591 0.7298 -662.7776 -1490.6849)" gradientUnits="userSpaceOnUse">
			<stop  offset="0" style="stop-color:#A65200"/>
			<stop  offset="0.1717" style="stop-color:#9B4C00"/>
			<stop  offset="0.473" style="stop-color:#7E3D00"/>
			<stop  offset="0.8659" style="stop-color:#4F2500"/>
			<stop  offset="1" style="stop-color:#3D1C00"/>
		</radialGradient>
		<path opacity="0.44" fill="url(#SVGID_4_)" enable-background="new    " d="M123.775,112.801c0,0-5.56-0.768-14.104,4.209
			c-7.532,4.389-11.122,7.274-11.122,7.274s8.621-8.507,16.583-11.45C121.332,110.541,123.775,112.801,123.775,112.801z"/>
		
			<radialGradient id="SVGID_5_" cx="1158.8652" cy="900.9795" r="36.7268" gradientTransform="matrix(0.9424 0.3345 -0.3345 0.9424 -674.2866 -1164.0925)" gradientUnits="userSpaceOnUse">
			<stop  offset="0" style="stop-color:#A65200"/>
			<stop  offset="0.1717" style="stop-color:#9B4C00"/>
			<stop  offset="0.473" style="stop-color:#7E3D00"/>
			<stop  offset="0.8659" style="stop-color:#4F2500"/>
			<stop  offset="1" style="stop-color:#3D1C00"/>
		</radialGradient>
		<path opacity="0.44" fill="url(#SVGID_5_)" enable-background="new    " d="M117.802,103.03c0,0-7.165-1.816-16.456,2.575
			c-6.007,2.84-7.25,3.84-7.25,3.84s5.334-5.192,12.36-7.051C114.658,100.225,117.802,103.03,117.802,103.03z"/>
		
			<radialGradient id="SVGID_6_" cx="1136.7998" cy="865.0781" r="42.6207" gradientTransform="matrix(0.9119 0.2735 -0.3028 1.0059 -638.5096 -1091.7245)" gradientUnits="userSpaceOnUse">
			<stop  offset="0" style="stop-color:#A65200"/>
			<stop  offset="0.1717" style="stop-color:#9B4C00"/>
			<stop  offset="0.473" style="stop-color:#7E3D00"/>
			<stop  offset="0.8659" style="stop-color:#4F2500"/>
			<stop  offset="1" style="stop-color:#3D1C00"/>
		</radialGradient>
		<path opacity="0.44" fill="url(#SVGID_6_)" enable-background="new    " d="M138.008,126.217c0,0-5.828-2.662-16.048,3.413
			c-6.278,3.734-9.663,6.332-9.663,6.332s5.232-6.507,15.286-10.278C135.411,122.747,138.008,126.217,138.008,126.217z"/>
		<g>
			
				<radialGradient id="SVGID_7_" cx="287.9492" cy="906.3525" r="34.754" gradientTransform="matrix(1 0 0 1.3704 -200 -1198.2361)" gradientUnits="userSpaceOnUse">
				<stop  offset="0.4479" style="stop-color:#C28B62"/>
				<stop  offset="0.6972" style="stop-color:#C18A60"/>
				<stop  offset="0.787" style="stop-color:#BC8459"/>
				<stop  offset="0.851" style="stop-color:#B47B4E"/>
				<stop  offset="0.9028" style="stop-color:#A86E3D"/>
				<stop  offset="0.9471" style="stop-color:#995D27"/>
				<stop  offset="0.9857" style="stop-color:#87480C"/>
				<stop  offset="1" style="stop-color:#7F3F00"/>
			</radialGradient>
			<path fill="url(#SVGID_7_)" d="M120.54,63.479c0.854-11.169,2.135-11.96,2.135-14.863c0-16.651-71.126-17.411-70.27-3.28
				c0,0,0.414,4.221,1.304,16.198C63.931,71.317,109.956,78.988,120.54,63.479z"/>
		</g>
		
			<radialGradient id="SVGID_8_" cx="345.209" cy="3574.5176" r="32.6625" gradientTransform="matrix(0.9984 0.0629 -0.0151 0.3048 -202.7045 -1065.275)" gradientUnits="userSpaceOnUse">
			<stop  offset="0.6933" style="stop-color:#562100"/>
			<stop  offset="1" style="stop-color:#562100;stop-opacity:0"/>
		</radialGradient>
		<path fill="url(#SVGID_8_)" d="M123.154,47.121c0,7.458-15.709,10.543-35.153,10.543c-19.446,0-35.152-6.413-35.152-13.872
			c0-6.139,15.122-9.096,34.568-9.096C106.861,34.697,123.154,42.2,123.154,47.121z"/>
		
			<radialGradient id="SVGID_9_" cx="288.334" cy="1227.6748" r="24.8581" gradientTransform="matrix(1 0 0 1 -200 -1182)" gradientUnits="userSpaceOnUse">
			<stop  offset="0.4479" style="stop-color:#924E00"/>
			<stop  offset="0.5836" style="stop-color:#8E4B00"/>
			<stop  offset="0.7234" style="stop-color:#814200"/>
			<stop  offset="0.8646" style="stop-color:#6D3200"/>
			<stop  offset="0.9816" style="stop-color:#562100"/>
		</radialGradient>
		<path fill="url(#SVGID_9_)" d="M115.958,46.845c0,5.268-12.492,7.446-27.957,7.446c-15.466,0-27.956-4.529-27.956-9.797
			c0-4.336,12.025-6.425,27.491-6.425C103.001,38.069,115.958,43.37,115.958,46.845z"/>
		
			<linearGradient id="SVGID_10_" gradientUnits="userSpaceOnUse" x1="287.4482" y1="1238.9219" x2="288.0772" y2="1226.1328" gradientTransform="matrix(1 0 0 1 -200 -1182)">
			<stop  offset="0" style="stop-color:#562100"/>
			<stop  offset="1" style="stop-color:#562100;stop-opacity:0"/>
		</linearGradient>
		<path fill="url(#SVGID_10_)" d="M115.958,46.845c0,5.268-12.492,7.446-27.957,7.446c-15.466,0-27.956-4.529-27.956-9.797
			c0-4.336,12.025-6.425,27.491-6.425C103.001,38.069,115.958,43.37,115.958,46.845z"/>
		<path fill="#050001" d="M23.594,38.069c-10.076,21.826,29.429,32.438,41.73,46.484c4.462,5.091,4.645,12.114,4.575,18.543
			c-0.043,4.193,0.051,7.479,0.83,11.409c-5.122-4.93-0.619-15.912-4.103-23.634c-4.568-10.12-27.236-20.592-40.735-30.973
			c-0.685,4.956-0.577,11.265,3.602,14.28c3.945,2.848,12.053,6.767,16.454,9.457c7.72,4.724,12.132,7.473,15.039,12.093
			c3.857,6.131,2.965,16.772,6.345,19.792c-2.915-1.009-3.494-2.752-4.219-5.856C62,104.88,61.963,98.477,55.981,93.29
			c-6.415-5.56-16.435-10.662-26.284-15.867c-0.031,4.461-1.573,10.416,1.998,13.987c2.122,2.126,6.082,3.661,9.35,5.434
			c5.215,2.826,11.266,4.917,14.773,8.521c4.05,4.16,3.492,5.544,4.86,9.972c0.896,2.747,1.501,4.271,1.501,4.271
			c3.292,6.1,16.122,1.854,16.122,1.854c-7.646-7.563-5.587-18.051-4.521-26.682c0.949-7.658,5.354-25.958-6.709-32.623
			C52.899,54.324,39.435,47.458,23.594,38.069z"/>
		
			<linearGradient id="SVGID_11_" gradientUnits="userSpaceOnUse" x1="1891.4326" y1="703.6279" x2="1923.8508" y2="747.6017" gradientTransform="matrix(0.8268 0.458 -0.4935 0.8692 -1164.4315 -1401.5239)">
			<stop  offset="0" style="stop-color:#FFFFFF"/>
			<stop  offset="1" style="stop-color:#6E6E6E"/>
		</linearGradient>
		<path fill="url(#SVGID_11_)" d="M25.521,36.145C15.445,57.971,54.95,68.582,67.251,82.629c4.462,5.092,4.645,12.114,4.576,18.543
			c-0.043,4.193,0.051,7.477,0.83,11.409c-5.122-4.931-0.619-15.913-4.104-23.634c-4.567-10.121-27.235-20.592-40.734-30.973
			c-0.685,4.957-0.578,11.265,3.602,14.281c3.945,2.848,12.053,6.767,16.454,9.457c7.72,4.724,12.131,7.474,15.039,12.093
			c3.857,6.132,2.964,16.772,6.345,19.792c-2.915-1.014-3.494-2.757-4.219-5.861c-1.112-4.782-1.15-11.188-7.132-16.372
			c-6.414-5.559-16.434-10.661-26.284-15.866c-0.031,4.46-1.572,10.416,1.999,13.987c2.122,2.126,6.081,3.662,9.35,5.434
			c5.215,2.826,11.266,4.917,14.773,8.519c4.049,4.162,3.492,5.545,4.86,9.976c0.896,2.747,1.501,4.271,1.501,4.271
			c1.917,3.549,8.5,5.064,12.835,5.09c1.982,0.013,1.781-4.863,1.179-5.725c-5.115-7.271-3.367-16.476-2.413-24.196
			c0.948-7.659,5.354-25.958-6.71-32.623C54.826,52.399,41.361,45.533,25.521,36.145z"/>
		
			<linearGradient id="SVGID_12_" gradientUnits="userSpaceOnUse" x1="279.4971" y1="1274.1875" x2="269.9387" y2="1300.6322" gradientTransform="matrix(1 0 0 1 -200 -1182)">
			<stop  offset="0" style="stop-color:#FFFFFF"/>
			<stop  offset="1" style="stop-color:#6E6E6E"/>
		</linearGradient>
		<path fill="url(#SVGID_12_)" d="M79.007,119.354c-0.14,5.979-4.219,10.24-9.113,9.521c-4.889-0.725-8.74-6.152-8.6-12.133
			c0.142-5.979,4.221-10.239,9.112-9.521C75.298,107.941,79.147,113.374,79.007,119.354z"/>
		
			<linearGradient id="SVGID_13_" gradientUnits="userSpaceOnUse" x1="272.5156" y1="1294.209" x2="265.3661" y2="1311.8445" gradientTransform="matrix(1 0 0 1 -200 -1182)">
			<stop  offset="0" style="stop-color:#FFFFFF"/>
			<stop  offset="1" style="stop-color:#6E6E6E"/>
		</linearGradient>
		<path fill="url(#SVGID_13_)" d="M76.397,118.968c-0.099,4.218-2.977,7.224-6.428,6.716c-3.448-0.51-6.166-4.342-6.067-8.561
			c0.1-4.217,2.978-7.223,6.429-6.714C73.781,110.918,76.497,114.75,76.397,118.968z"/>
	</g>
</g>
</svg>
