<?xml version="1.0" encoding="utf-8"?>
<!-- Generator: Adobe Illustrator 15.0.0, SVG Export Plug-In . SVG Version: 6.00 Build 0)  -->
<!DOCTYPE svg PUBLIC "-//W3C//DTD SVG 1.1//EN" "http://www.w3.org/Graphics/SVG/1.1/DTD/svg11.dtd">
<svg version="1.1" id="Layer_1" xmlns="http://www.w3.org/2000/svg" xmlns:xlink="http://www.w3.org/1999/xlink" x="0px" y="0px"
	 width="200px" height="200px" viewBox="0 0 200 200" enable-background="new 0 0 200 200" xml:space="preserve">
<g>
	<g>
		<g>
			<g>
				<path fill-rule="evenodd" clip-rule="evenodd" fill="#878787" d="M128.972,172.113c-2.078,0-4.185-0.372-6.414-0.766
					l-1.335-0.232c-2.07-0.353-3.264-0.801-4.774-1.368c-1.437-0.539-3.21-1.205-6.496-2.061c-1.305,0.417-5.198,1.451-11.777,1.451
					c-1.074,0-2.187-0.027-3.308-0.083c-10.929-0.538-16.003-1.53-24.51-6.341c-7.711-4.361-11.199-11.521-10.978-22.533
					c0.068-3.407,0.05-9.496,0.032-15.385c-0.032-10.613-0.036-17.152,0.188-18.479c0.664-3.923,3.775-17.254,15.939-24.142
					c9.223-5.221,24.687-18.407,30.19-31.373c2.587-6.099,3.336-14.771,3.832-20.51c0.506-5.855,0.658-7.622,2.556-7.655
					l0.563-0.005c7.285,0,12.13,2.775,16.201,9.28c3.46,5.532,8.268,25.788-12.081,47.991c7.747,0.048,25.039,0.254,28.531,1.136
					c1.39,0.107,10.054,1.073,14.879,8.715c3.426,5.425,2.913,13.219-1.276,19.393c-2.163,3.19-11.452,4.355-15.394,4.711
					c0.049,0.307,0.122,0.626,0.201,0.892c1.098-0.028,2.166-0.1,3.908-0.346c3.495-0.495,5.804-0.639,5.899-0.645l0.617-0.038
					l0.464,0.408c2.17,1.903,3.389,4.766,3.434,8.06c0.046,3.327-1.152,6.531-3.128,8.362c-3.469,3.223-7.382,4.856-11.627,4.856
					l-0.544-0.005c-1.172,0-2.874,0.18-4.617,0.437c0.84,0.128,1.784,0.213,2.725,0.231c3.623,0.073,7.368,0.149,9.074,3.857
					c1.698,3.694,1.243,5.928-0.04,8.333c-1.681,3.139-4.877,5.021-9.526,5.622l0.179,0.079l0.239,0.344
					c1.529,2.197,3.066,7.827-2.059,13.404C135.979,170.715,132.876,172.113,128.972,172.113
					C128.972,172.113,128.972,172.113,128.972,172.113z"/>
				<g>
					<path fill="#878787" d="M112.68,24.133c5.803,0,10.64,1.721,14.93,8.576c3.715,5.939,7.525,26.817-14.308,48.681
						c0,0,28.251,0.042,31.778,1.137c0,0,9.073,0.446,13.861,8.029c2.987,4.73,2.682,11.958-1.249,17.75
						c-2.204,3.25-15.626,4.166-15.626,4.166c-0.34,1.224,0.446,3.793,0.824,3.793h0.001c1.468-0.018,2.685-0.053,4.968-0.375
						c3.477-0.492,5.781-0.633,5.781-0.633c4.229,3.711,3.471,11.232,0.275,14.195c-2.281,2.118-5.778,4.456-10.607,4.456
						c-0.1,0-0.2-0.001-0.301-0.003c-0.079-0.002-0.16-0.002-0.243-0.002c-2.439,0-6.637,0.68-9.248,1.252
						c-1.339,0.293,0,0,0.727,0.805c1.188,1.316,5.234,1.584,6.599,1.611c3.865,0.078,6.5,0.285,7.741,2.984
						c1.461,3.178,1.102,4.936,0,7c-1.859,3.472-6.015,5.038-11.691,5.038c-0.212,0-0.428-0.003-0.644-0.007
						c0,0-2.167,0.137,3.318,2.576c0,0,3.734,5.367-1.932,11.533c-2.792,3.038-5.619,3.916-8.663,3.916
						c-2.343,0-4.815-0.521-7.497-0.977c-3.925-0.668-4.418-1.688-11.584-3.516c0,0-3.84,1.517-11.715,1.517
						c-1.011,0-2.089-0.024-3.234-0.081c-10.909-0.537-15.702-1.543-23.846-6.148c-7.611-4.305-10.418-11.182-10.217-21.197
						c0.166-8.252-0.174-31.43,0.199-33.645c1.297-7.663,5.712-17.713,15.199-23.085c9.924-5.618,25.336-19.144,30.832-32.092
						c4.381-10.327,3.627-27.227,5.033-27.251C112.322,24.135,112.501,24.133,112.68,24.133 M112.68,21.133L112.68,21.133
						c-0.196,0-0.392,0.002-0.589,0.005c-2.913,0.051-3.388,3.256-3.544,4.31c-0.177,1.195-0.317,2.827-0.48,4.716
						c-0.488,5.644-1.225,14.173-3.719,20.053C98.981,62.86,83.838,75.753,74.799,80.87c-12.741,7.214-15.987,21.109-16.679,25.195
						c-0.236,1.404-0.245,6.786-0.209,18.734c0.018,5.881,0.037,11.961-0.032,15.351c-0.233,11.623,3.497,19.207,11.739,23.869
						c8.772,4.961,13.979,5.982,25.175,6.533c1.145,0.057,2.283,0.085,3.381,0.085c6.195,0,10.084-0.882,11.812-1.392
						c2.948,0.784,4.591,1.401,5.934,1.905c1.523,0.572,2.839,1.066,5.051,1.442c0.447,0.076,0.89,0.154,1.326,0.231
						c2.296,0.405,4.465,0.788,6.674,0.788c4.354,0,7.809-1.553,10.872-4.886c4.852-5.28,4.338-10.689,3.001-13.786
						c4.788-1.174,7.185-3.73,8.383-5.969c1.728-3.237,1.751-6.038,0.081-9.669c-0.688-1.494-1.643-2.51-2.748-3.201
						c2.633-0.838,5.107-2.325,7.396-4.451c2.275-2.109,3.658-5.743,3.606-9.481c-0.051-3.708-1.439-6.952-3.913-9.14
						c2.012-0.766,3.655-1.757,4.524-3.04c4.52-6.66,5.043-15.114,1.303-21.036c-5.07-8.03-14.058-9.234-15.921-9.399
						c-3.556-0.791-16.562-1.046-25.464-1.128c18.415-21.918,13.548-41.732,10.061-47.308
						C125.831,24.213,120.442,21.134,112.68,21.133L112.68,21.133z"/>
				</g>
			</g>
			<g>
				
					<radialGradient id="SVGID_1_" cx="-3350.3794" cy="1072.7939" r="96.4482" gradientTransform="matrix(0.9286 0.0186 -0.0184 0.9209 3262.0537 -833.6262)" gradientUnits="userSpaceOnUse">
					<stop  offset="0.6316" style="stop-color:#FFFFFF"/>
					<stop  offset="0.7479" style="stop-color:#E8E9EC"/>
					<stop  offset="0.9903" style="stop-color:#AEAFBD"/>
					<stop  offset="1" style="stop-color:#ACADBB"/>
				</radialGradient>
				<path fill-rule="evenodd" clip-rule="evenodd" fill="url(#SVGID_1_)" d="M137.635,166.697
					c5.666-6.166,1.932-11.533,1.932-11.533c-5.485-2.439-3.318-2.576-3.318-2.576c6.006,0.121,10.406-1.43,12.335-5.031
					c1.102-2.064,1.461-3.822,0-7c-1.241-2.699-3.876-2.906-7.741-2.984c-1.364-0.027-5.41-0.295-6.599-1.611
					c-0.727-0.805-2.065-0.512-0.727-0.805c2.7-0.592,7.097-1.299,9.491-1.25c4.984,0.1,8.58-2.291,10.908-4.453
					c3.195-2.963,3.953-10.484-0.275-14.195c0,0-2.305,0.141-5.781,0.633c-2.283,0.322-3.5,0.357-4.968,0.375
					c-0.378,0.004-1.165-2.568-0.825-3.793c0,0,13.422-0.916,15.626-4.166c3.931-5.793,4.236-13.02,1.249-17.75
					c-4.788-7.583-13.861-8.029-13.861-8.029c-3.527-1.095-31.778-1.137-31.778-1.137c21.833-21.863,18.022-42.741,14.308-48.681
					c-4.422-7.065-9.424-8.677-15.467-8.571c-1.406,0.024-0.652,16.924-5.033,27.251c-5.496,12.948-20.908,26.474-30.832,32.092
					c-9.487,5.372-13.902,15.423-15.199,23.085c-0.373,2.215-0.033,25.393-0.199,33.645c-0.201,10.016,2.605,16.893,10.217,21.197
					c8.144,4.605,12.937,5.611,23.846,6.148c10.06,0.496,14.949-1.436,14.949-1.436c7.166,1.828,7.659,2.848,11.584,3.516
					C127.641,170.686,132.693,172.074,137.635,166.697z"/>
			</g>
			<path fill="#878787" d="M143.003,137.94c-6.808,0-18.365-0.551-27.287-3.804c-6.071-2.214-9.686-5.264-10.746-9.065
				c-0.887-3.182,0.114-6.785,2.817-10.147c2.374-2.95,9.762-4.569,16.143-3.537c11.107,1.798,20.196,0.865,20.286,0.855
				l0.424,3.977c-0.392,0.042-9.72,1-21.35-0.883c-5.401-0.879-11.237,0.666-12.386,2.096c-1.085,1.349-2.798,3.995-2.081,6.566
				c0.684,2.452,3.541,4.659,8.263,6.381c12.43,4.53,31.187,3.438,31.374,3.426l0.246,3.992
				C148.446,137.813,146.271,137.94,143.003,137.94z"/>
			<path fill="#878787" d="M136.396,156.047c-1.507,0-3.147-0.105-4.907-0.36c-1.403-0.204-2.731-0.349-4.015-0.488
				c-4.327-0.47-8.415-0.914-13.556-3.485c-4.643-2.321-11.657-5.829-10.362-12.568c1.48-7.711,8.292-9.503,11.697-9.354
				l-0.16,3.996l0.08-1.998l-0.069,1.999c-0.658-0.021-6.443-0.015-7.62,6.11c-0.54,2.813,1.535,4.893,8.224,8.236
				c4.498,2.25,8.067,2.638,12.199,3.087c1.318,0.144,2.682,0.292,4.156,0.506c8.284,1.205,13.47-1.415,13.521-1.442l1.864,3.539
				C147.24,153.934,143.158,156.047,136.396,156.047z"/>
			<path fill-rule="evenodd" clip-rule="evenodd" fill="#878787" d="M117.609,84.056l5.436-9.32l-2.291-1.989l-9.848,10.642
				c0,0,0,19.406-11.311,34.175c-6.298,8.225-10.969,10.297-10.969,10.297l-4.742,2.809l9.763,0.932
				c0,0,14.708-10.809,18.628-22.545C115.605,99.086,117.609,84.056,117.609,84.056z"/>
			<g>
				<radialGradient id="SVGID_2_" cx="49.2656" cy="127.7432" r="25.09" gradientUnits="userSpaceOnUse">
					<stop  offset="0.1758" style="stop-color:#08A4FF"/>
					<stop  offset="0.3608" style="stop-color:#0CA1FA"/>
					<stop  offset="0.5852" style="stop-color:#1698EB"/>
					<stop  offset="0.8289" style="stop-color:#2789D3"/>
					<stop  offset="1" style="stop-color:#367CBD"/>
				</radialGradient>
				<path fill-rule="evenodd" clip-rule="evenodd" fill="url(#SVGID_2_)" d="M46.027,161.227c-1.989-0.002-3.858-0.779-5.263-2.188
					s-2.176-3.281-2.172-5.27l-1.036-52.053c0.004-4.132,3.344-7.468,7.443-7.468l7.503,0.012c1.989,0.003,3.858,0.78,5.263,2.189
					c1.404,1.408,2.176,3.279,2.173,5.269l1.035,52.052c-0.004,4.133-3.345,7.47-7.446,7.47
					C53.527,161.238,46.027,161.227,46.027,161.227z"/>
				<g>
					<path fill="#476A97" d="M45,95.748c0.003,0,0.007,0,0.011,0l7.49,0.012c3.285,0.005,5.943,2.671,5.938,5.956l1.035,52.084
						c-0.004,3.285-2.665,5.939-5.947,5.939c-0.002,0-0.005,0-0.007,0l-7.491-0.012c-3.285-0.004-5.944-2.672-5.937-5.955
						l-1.037-52.086C39.06,98.404,41.722,95.748,45,95.748 M45,92.748c-4.926,0-8.938,4.008-8.944,8.934v0.032l0,0.031l1.036,52.056
						c0.004,2.377,0.93,4.611,2.609,6.296c1.688,1.693,3.934,2.627,6.324,2.63l7.489,0.012c4.939,0,8.953-4.009,8.959-8.936v-0.032
						l0-0.031l-1.035-52.055c-0.005-2.377-0.932-4.612-2.611-6.296c-1.687-1.692-3.933-2.626-6.323-2.629l-7.49-0.012h-0.002H45
						L45,92.748z"/>
				</g>
			</g>
			<path fill="#878787" d="M123.494,115.358c-0.735-0.043-7.279-0.521-10.474-4.199c-1.27-1.462-1.854-3.271-1.691-5.233
				c0.395-4.755,1.214-8.713,7.728-12.737c8.222-5.078,20.703-2.97,21.229-2.878l-0.688,3.94c-0.115-0.019-11.521-1.933-18.44,2.341
				c-5.057,3.124-5.515,5.708-5.843,9.665c-0.074,0.897,0.154,1.62,0.722,2.275c1.773,2.049,6.152,2.739,7.69,2.833L123.494,115.358
				z"/>
		</g>
		<path fill="#878787" d="M124.31,173.917c-0.231-0.031-5.73-0.807-11.388-4.254l-0.359-0.22c-5.437-3.311-7.918-4.821-7.934-11.983
			c-0.006-2.662,0.834-4.857,2.497-6.524c2.971-2.978,7.495-3.012,7.687-3.012l0.009,4c-0.635,0.006-6.205,0.211-6.192,5.526
			c0.011,4.922,0.811,5.408,6.014,8.577l0.361,0.22c4.911,2.994,9.797,3.7,9.846,3.707L124.31,173.917z"/>
		<path fill-rule="evenodd" clip-rule="evenodd" fill="#878787" d="M143.609,89.557c0,0-0.078,3.911-0.896,5.705l-7.699-2.21
			l0.049-5.528L143.609,89.557z"/>
	</g>
</g>
</svg>
