<?xml version="1.0" encoding="utf-8"?>
<!-- Generator: Adobe Illustrator 15.0.0, SVG Export Plug-In . SVG Version: 6.00 Build 0)  -->
<!DOCTYPE svg PUBLIC "-//W3C//DTD SVG 1.1//EN" "http://www.w3.org/Graphics/SVG/1.1/DTD/svg11.dtd">
<svg version="1.1" id="Layer_1" xmlns="http://www.w3.org/2000/svg" xmlns:xlink="http://www.w3.org/1999/xlink" x="0px" y="0px"
	 width="200px" height="200px" viewBox="0 0 200 200" enable-background="new 0 0 200 200" xml:space="preserve">
<g>
	<g>
		<g>
			<g>
				<path fill="#FFFFFF" d="M133.105,37.866c5.006,0,9.748,0.265,11.623,1.33c1.861,1.057,3.967,5.074,3.209,8.15
					c-0.813,3.301-3.615,3.34-7.597,3.34c-0.097,0-0.194,0-0.292,0c-0.587,0-1.277-0.036-1.97-0.036
					c-1.504,0-3.015,0.168-3.474,1.238c-1.125,2.617,0.869,3.016,3.272,3.016c1.054,0,2.185-0.077,3.166-0.077
					c5.683,0,9.543,0.812,11.297,4.008c1.004,1.831,2.336,7.526,0.896,10.288c-1.223,2.349-4.021,2.404-7.678,2.404
					c-0.593,0-2.193-0.168-3.851-0.168c-1.944,0-3.967,0.231-4.521,1.237c-1.603,2.908,1.201,3.233,4.051,3.233
					c0.818,0,1.643-0.027,2.365-0.027c0.812,0,1.599-0.006,2.354-0.006c3.621,0,6.537,0.138,8.328,1.743
					c2.963,2.658,4.286,10.442,0.221,13.628c-1.68,1.315-4.807,1.336-8.125,1.336c-0.993,0-2.139-0.069-3.202-0.069
					c-1.555,0-2.934,0.147-3.408,0.87c-0.188,0.283-0.74,1.539-0.209,2.539c0.385,0.726,1.613,0.809,2.972,0.809
					c0.407,0,0.827-0.007,1.239-0.007c1.49,0,2.973-0.042,4.383-0.042c3.664,0,6.839,0.282,8.391,2.312
					c1.574,2.062,1.18,8.716-1.029,10.956c-2.096,2.125-6.338,2.355-10.506,2.672c-12.85,0.975-24.123,0.479-37.346,0.936
					c4.107,4.064,16,14.185,14.75,32.988c-0.551,8.301-5.062,18.895-12.755,18.895c-0.961,0-1.972-0.166-3.03-0.521
					c-2.578-0.865-2.889-2.695-3.074-5.611c-1.164-18.424,1.859-31.565-30.762-46.418c-2.168-0.986-4.752-1.535-6.012-3.072
					c-1.252-1.528-1.238-61.301-0.535-62.526c0.883-1.534,5.262-2.301,7.883-2.939c8.459-2.06,16.699-4.251,25.92-5.345
					c6.143-0.728,13.037-0.801,19.906-0.801C122.904,38.127,128.135,37.866,133.105,37.866"/>
			</g>
		</g>
	</g>
	<g>
		<g>
			<path fill="#878787" d="M109.662,166.861c-1.145,0-2.325-0.201-3.508-0.6c-3.732-1.254-3.934-4.404-4.094-6.938
				c-0.117-1.861-0.192-3.667-0.267-5.428c-0.646-15.524-1.112-26.741-29.621-39.722c-0.574-0.262-1.211-0.502-1.828-0.733
				c-1.754-0.662-3.568-1.346-4.723-2.754c-0.452-0.553-1.209-1.477-1.34-32.32c-0.06-13.922,0.007-30.758,0.664-31.903
				c1.002-1.742,3.775-2.491,7.583-3.36c0.442-0.101,0.863-0.197,1.246-0.291l3.08-0.755c7.291-1.794,14.829-3.65,23.019-4.622
				c6.319-0.749,13.388-0.811,20.083-0.811c1.26,0,2.941-0.048,4.889-0.104c2.545-0.074,5.43-0.157,8.26-0.157
				c6.692,0,10.506,0.47,12.363,1.525c2.521,1.431,4.833,6.127,3.926,9.814c-1.104,4.481-5.146,4.481-9.054,4.481h-0.292
				c-0.294,0-0.611-0.008-0.943-0.017s-0.68-0.019-1.025-0.019c-1.781,0-2.07,0.298-2.098,0.333
				c-0.152,0.357-0.189,0.567-0.196,0.667c0.164,0.086,0.669,0.254,2.094,0.254c0.519,0,1.056-0.02,1.584-0.039
				c0.546-0.02,1.083-0.038,1.582-0.038c5.187,0,10.304,0.58,12.612,4.786c0.99,1.806,2.769,8.14,0.908,11.704
				c-1.672,3.21-5.4,3.21-9.008,3.21c-0.242,0-0.639-0.024-1.135-0.056c-0.729-0.047-1.727-0.112-2.715-0.112
				c-2.704,0-3.215,0.482-3.234,0.503c-0.166,0.309-0.224,0.508-0.242,0.613c0.225,0.126,0.918,0.354,3.009,0.354
				c0.413,0,0.827-0.007,1.229-0.014c0.395-0.007,0.776-0.013,1.135-0.013l2.354-0.006c3.94,0,7.132,0.156,9.329,2.126
				c2.074,1.861,3.388,5.486,3.27,9.022c-0.099,2.951-1.207,5.403-3.125,6.904c-2.113,1.655-5.64,1.655-9.05,1.655
				c-0.503,0-1.044-0.017-1.595-0.034c-0.536-0.017-1.083-0.035-1.607-0.035c-1.539,0-2.041,0.175-2.184,0.249
				c-0.094,0.2-0.193,0.583-0.148,0.835c0.193,0.062,0.645,0.134,1.688,0.134l1.238-0.007c0.748,0,1.494-0.011,2.229-0.021
				c0.729-0.011,1.45-0.021,2.152-0.021c3.563,0,7.536,0.225,9.581,2.902c2.128,2.786,1.46,10.271-1.151,12.919
				c-2.403,2.438-6.743,2.762-10.938,3.076l-0.521,0.039c-7.872,0.596-15.029,0.645-22.607,0.695
				c-3.649,0.024-7.396,0.05-11.276,0.142c5.153,5.172,13.761,15.319,12.673,31.69C123.354,154.993,118.562,166.861,109.662,166.861
				C109.661,166.861,109.662,166.861,109.662,166.861z"/>
			<g>
				<path fill="#878787" d="M133.105,37.866c5.006,0,9.748,0.265,11.623,1.33c1.861,1.057,3.967,5.074,3.209,8.15
					c-0.813,3.301-3.615,3.34-7.597,3.34c-0.097,0-0.194,0-0.292,0c-0.587,0-1.277-0.036-1.97-0.036
					c-1.504,0-3.015,0.168-3.474,1.238c-1.125,2.617,0.869,3.016,3.272,3.016c1.054,0,2.185-0.077,3.166-0.077
					c5.683,0,9.543,0.812,11.297,4.008c1.004,1.831,2.336,7.526,0.896,10.288c-1.223,2.349-4.021,2.404-7.678,2.404
					c-0.593,0-2.193-0.168-3.851-0.168c-1.944,0-3.967,0.231-4.521,1.237c-1.603,2.908,1.201,3.233,4.051,3.233
					c0.818,0,1.643-0.027,2.365-0.027c0.812,0,1.599-0.006,2.354-0.006c3.621,0,6.537,0.138,8.328,1.743
					c2.963,2.658,4.286,10.442,0.221,13.628c-1.68,1.315-4.807,1.336-8.125,1.336c-0.993,0-2.139-0.069-3.202-0.069
					c-1.555,0-2.934,0.147-3.408,0.87c-0.188,0.283-0.74,1.539-0.209,2.539c0.385,0.726,1.613,0.809,2.973,0.809
					c0.406,0,0.826-0.007,1.238-0.007c1.49,0,2.973-0.042,4.384-0.042c3.663,0,6.838,0.282,8.39,2.312
					c1.574,2.062,1.18,8.716-1.029,10.956c-2.096,2.125-6.338,2.355-10.506,2.672c-12.85,0.975-24.123,0.479-37.346,0.936
					c4.107,4.064,16,14.185,14.75,32.988c-0.551,8.301-5.062,18.895-12.755,18.895c-0.961,0-1.972-0.166-3.03-0.521
					c-2.578-0.865-2.889-2.695-3.074-5.611c-1.164-18.424,1.859-31.565-30.762-46.418c-2.168-0.986-4.752-1.535-6.012-3.072
					c-1.252-1.528-1.238-61.301-0.535-62.526c0.883-1.534,5.262-2.301,7.883-2.939c8.459-2.06,16.699-4.251,25.92-5.345
					c6.143-0.728,13.037-0.801,19.906-0.801C122.904,38.127,128.135,37.866,133.105,37.866 M133.105,34.866v3V34.866
					c-2.853,0-5.748,0.083-8.303,0.157c-1.936,0.056-3.607,0.104-4.846,0.104c-6.741,0-13.857,0.063-20.259,0.822
					c-8.282,0.982-15.866,2.849-23.201,4.655c-1.023,0.251-2.048,0.504-3.076,0.754c-0.377,0.092-0.791,0.187-1.226,0.286
					c-4.182,0.954-7.243,1.805-8.548,4.073c-0.456,0.795-0.644,1.123-0.789,11.526c-0.081,5.84-0.109,13.542-0.077,21.132
					c0.134,31.377,0.85,32.252,1.68,33.266c1.41,1.719,3.505,2.51,5.354,3.207c0.621,0.232,1.207,0.453,1.735,0.694
					c27.67,12.599,28.097,22.869,28.743,38.418c0.073,1.759,0.149,3.577,0.268,5.459c0.17,2.665,0.426,6.69,5.113,8.267
					c1.338,0.448,2.678,0.676,3.985,0.676c9.294,0,15.051-11.178,15.748-21.694c0.977-14.687-5.528-24.511-10.745-30.354
					c2.677-0.041,5.294-0.059,7.863-0.076c7.604-0.051,14.787-0.1,22.711-0.699l0.52-0.039c4.473-0.334,9.098-0.68,11.896-3.518
					c3.13-3.174,3.847-11.521,1.277-14.883c-1.044-1.365-2.433-2.2-3.986-2.709c0.505-0.233,0.978-0.515,1.412-0.856
					c2.272-1.78,3.586-4.633,3.699-8.035c0.133-3.954-1.382-8.048-3.767-10.188c-0.992-0.89-2.136-1.466-3.399-1.838
					c1.211-0.593,2.256-1.518,3.008-2.96c2.146-4.112,0.207-11.049-0.926-13.116c-1.576-2.873-4.156-4.291-7.162-4.972
					c1.391-0.815,2.496-2.154,3.041-4.356c1.075-4.37-1.611-9.758-4.642-11.478C144.086,35.38,140.167,34.866,133.105,34.866
					L133.105,34.866z"/>
			</g>
		</g>
		<g>
			
				<radialGradient id="SVGID_1_" cx="194.5332" cy="-22.4326" r="114.436" gradientTransform="matrix(1 0 0 -1 -41.5 36)" gradientUnits="userSpaceOnUse">
				<stop  offset="0.6316" style="stop-color:#FFFFFF"/>
				<stop  offset="0.7479" style="stop-color:#E8E9EC"/>
				<stop  offset="0.9903" style="stop-color:#AEAFBD"/>
				<stop  offset="1" style="stop-color:#ACADBB"/>
			</radialGradient>
			<path fill="url(#SVGID_1_)" d="M107.667,113.479c13.224-0.455,24.496,0.039,37.347-0.936c4.168-0.314,8.409-0.547,10.506-2.672
				c2.209-2.24,2.604-8.895,1.028-10.956c-2.147-2.812-7.409-2.271-12.772-2.271c-1.783,0-3.709,0.142-4.211-0.802
				c-0.531-1,0.021-2.256,0.209-2.539c0.801-1.218,4.168-0.801,6.61-0.801c3.318,0,6.445-0.021,8.125-1.336
				c4.066-3.186,2.742-10.97-0.221-13.628c-2.164-1.939-5.972-1.737-10.683-1.737c-3.239,0-8.479,0.538-6.416-3.206
				c1.023-1.862,7.082-1.069,8.369-1.069c3.656,0,6.455-0.056,7.678-2.404c1.441-2.762,0.109-8.457-0.895-10.288
				c-1.754-3.196-5.615-4.008-11.297-4.008c-3.225,0-8.057,0.824-6.439-2.939c0.672-1.562,3.582-1.202,5.443-1.202
				c4.135,0,7.055,0.041,7.889-3.34c0.758-3.076-1.348-7.094-3.209-8.15c-3.735-2.121-18.856-1.068-24.771-1.068
				c-6.869,0-13.765,0.073-19.906,0.801c-9.221,1.094-17.461,3.285-25.92,5.345c-2.621,0.639-7,1.405-7.883,2.939
				c-0.703,1.226-0.717,60.998,0.535,62.526c1.26,1.537,3.844,2.086,6.012,3.072c32.621,14.853,29.599,27.994,30.763,46.418
				c0.186,2.916,0.496,4.746,3.073,5.611c9.535,3.203,15.166-9.037,15.785-18.373C123.667,127.663,111.773,117.544,107.667,113.479z
				"/>
		</g>
		<g>
			
				<radialGradient id="SVGID_2_" cx="93.272" cy="-40.7827" r="25.2083" gradientTransform="matrix(1 0 0 -1 -41.5 36)" gradientUnits="userSpaceOnUse">
				<stop  offset="0.1758" style="stop-color:#08A4FF"/>
				<stop  offset="0.3608" style="stop-color:#0CA1FA"/>
				<stop  offset="0.5852" style="stop-color:#1698EB"/>
				<stop  offset="0.8289" style="stop-color:#2789D3"/>
				<stop  offset="1" style="stop-color:#367CBD"/>
			</radialGradient>
			<path fill="url(#SVGID_2_)" d="M48.188,110.766c-3.965,0-7.19-3.226-7.19-7.19V49.99c0-3.965,3.226-7.19,7.19-7.19h7.167
				c3.965,0,7.191,3.226,7.191,7.19v53.584c0,3.966-3.226,7.191-7.191,7.191H48.188L48.188,110.766z"/>
			<g>
				<path fill="#476A97" d="M55.354,44.3c3.143,0,5.691,2.548,5.691,5.69v53.584c0,3.144-2.549,5.691-5.691,5.691h-7.167
					c-3.143,0-5.69-2.549-5.69-5.691V49.99c0-3.143,2.548-5.69,5.69-5.69H55.354 M55.354,41.3h-7.167c-4.792,0-8.69,3.898-8.69,8.69
					v53.584c0,4.792,3.898,8.691,8.69,8.691h7.167c4.792,0,8.691-3.899,8.691-8.691V49.99C64.046,45.198,60.147,41.3,55.354,41.3
					L55.354,41.3z"/>
			</g>
		</g>
	</g>
</g>
</svg>
