<?xml version="1.0" encoding="utf-8"?>
<!-- Generator: Adobe Illustrator 15.0.0, SVG Export Plug-In . SVG Version: 6.00 Build 0)  -->
<!DOCTYPE svg PUBLIC "-//W3C//DTD SVG 1.1//EN" "http://www.w3.org/Graphics/SVG/1.1/DTD/svg11.dtd">
<svg version="1.1" id="Layer_1" xmlns="http://www.w3.org/2000/svg" xmlns:xlink="http://www.w3.org/1999/xlink" x="0px" y="0px"
	 width="200px" height="200px" viewBox="0 0 200 200" enable-background="new 0 0 200 200" xml:space="preserve">
<g id="icon">
	<g id="Layer_2">
	</g>
	<g>
		<g opacity="0.25">
			<g>
				<g>
					<g>
						<path fill="#878787" d="M92.207,171.076c-3.332,0-6.706-0.795-10.316-2.431c-2.122-0.963-25.752-11.817-27.919-13.215
							c-4.262-2.752-14.184-10.432-14.297-22.297c-0.202-21.971,2.324-42.918,21.803-47.751C63.613,78.9,70.385,59.55,82.464,35.48
							c1.916-3.815,4.313-8,8.541-9.385c0.842-0.276,1.784-0.416,2.799-0.416c4.078,0,10.004,2.37,11.989,5.771
							c2.485,4.266,0.42,8.744-1.401,12.696l-0.063,0.137c-0.295,0.643-0.596,1.298-0.882,1.963
							c-3.508,8.176-6.385,15.608-8.656,21.868c0.189-0.111,0.385-0.215,0.587-0.311c1.324-0.631,2.782-0.952,4.333-0.952
							c5.411,0,11.423,4.044,13.129,8.832c0.665,1.866,0.58,4.142-1.691,10.083l0.064-0.001c5.042,0,10.417,4.666,11.704,6.273
							c2.767,3.468,2.514,7.336,1.638,10.487c0.546,0.01,1.125,0.075,1.725,0.193c4.747,0.964,8.796,5.773,9.248,9.43
							c0.482,3.922-2.356,10.082-6.419,18.355c-0.704,1.43-1.326,2.697-1.761,3.653c-2.412,5.314-5.013,10.899-7.929,15.618
							c-4.255,6.896-7.322,11.45-14.026,16.552C101.186,169.522,96.873,171.076,92.207,171.076z"/>
						<path fill="#878787" d="M93.804,27.179c3.663,0,9.014,2.15,10.693,5.027c2.092,3.59,0.282,7.516-1.468,11.312
							c-0.32,0.698-0.649,1.411-0.961,2.136c-5.625,13.107-9.838,24.795-12.68,33.534c0.184-0.417,0.372-0.844,0.565-1.284
							c0.312-0.71,0.541-1.232,0.659-1.49c1.33-2.934,2.707-5.97,5.41-7.257c1.122-0.535,2.363-0.806,3.689-0.806
							c4.755,0,10.229,3.661,11.716,7.835c0.616,1.728,0.325,4.27-2.679,11.55c0.676-0.279,1.439-0.447,2.312-0.47l0.17-0.002
							c4.229,0,9.17,4.03,10.516,5.711c2.775,3.479,2.083,7.57,0.619,11.361c0.605-0.201,1.281-0.312,2.045-0.312
							c0.504,0,1.035,0.059,1.578,0.166c4.068,0.826,7.669,5.059,8.051,8.143c0.432,3.508-2.457,9.73-6.277,17.51
							c-0.711,1.445-1.34,2.727-1.779,3.693c-2.379,5.24-4.939,10.758-7.84,15.451c-4.164,6.748-7.16,11.201-13.658,16.146
							c-3.934,2.988-7.949,4.443-12.277,4.443c-3.115,0-6.287-0.752-9.697-2.297c-3.417-1.551-25.779-11.854-27.726-13.109
							c-4.056-2.619-13.503-9.914-13.609-21.051c-0.2-21.713,2.315-42.275,21.466-46.468c1.887-5.826,8.638-25.538,21.164-50.498
							c1.78-3.545,3.988-7.428,7.667-8.633C92.166,27.293,92.95,27.179,93.804,27.179 M93.804,24.179
							c-1.174,0-2.272,0.165-3.265,0.49c-4.776,1.564-7.364,6.053-9.415,10.138C69.448,58.072,62.708,76.958,60.31,84.14
							c-8.835,2.462-15.048,8.565-18.483,18.165c-3.401,9.506-3.738,21.476-3.652,30.842c0.121,12.596,10.518,20.661,14.982,23.544
							c2.402,1.548,27.861,13.206,28.113,13.32c3.811,1.727,7.387,2.565,10.937,2.565c5.005,0,9.615-1.653,14.092-5.055
							c6.896-5.248,10.178-10.122,14.396-16.96c2.962-4.793,5.586-10.427,8.019-15.786c0.437-0.96,1.099-2.307,1.74-3.609
							c4.312-8.779,7.097-14.858,6.562-19.2c-0.517-4.173-4.928-9.599-10.432-10.717c-0.062-0.012-0.124-0.023-0.186-0.035
							c0.518-2.919,0.41-6.702-2.309-10.109c-1.291-1.613-5.924-5.701-10.865-6.644c1.574-4.502,1.812-7.078,1.026-9.282
							c-1.897-5.327-8.557-9.827-14.541-9.827c-0.821,0-1.621,0.079-2.394,0.236c2.066-5.554,4.564-11.889,7.508-18.75
							c0.28-0.653,0.577-1.298,0.867-1.93l0.063-0.138c1.875-4.067,4.211-9.135,1.333-14.074
							C104.814,26.797,98.384,24.179,93.804,24.179L93.804,24.179z"/>
					</g>
				</g>
				<g>
					
						<radialGradient id="SVGID_1_" cx="273.7363" cy="1294.8525" r="79.6539" gradientTransform="matrix(1 0 0 1 -191.5 -1207)" gradientUnits="userSpaceOnUse">
						<stop  offset="0.6316" style="stop-color:#FFFFFF"/>
						<stop  offset="0.7479" style="stop-color:#E8E9EC"/>
						<stop  offset="0.9903" style="stop-color:#AEAFBD"/>
						<stop  offset="1" style="stop-color:#ACADBB"/>
					</radialGradient>
					<path fill="url(#SVGID_1_)" d="M92.207,169.576c-3.115,0-6.287-0.752-9.697-2.297c-3.417-1.551-25.779-11.854-27.726-13.109
						c-4.056-2.619-13.503-9.914-13.609-21.051c-0.2-21.713,2.315-42.275,21.466-46.468c1.887-5.826,8.638-25.538,21.164-50.498
						c1.78-3.545,3.988-7.428,7.667-8.633c0.694-0.227,1.478-0.341,2.332-0.341c3.663,0,9.014,2.15,10.693,5.027
						c2.092,3.59,0.282,7.516-1.468,11.312c-0.32,0.698-0.649,1.411-0.961,2.136c-5.625,13.107-9.838,24.795-12.68,33.534
						c0.184-0.417,0.372-0.844,0.565-1.284c0.312-0.71,0.541-1.232,0.659-1.49c1.33-2.934,2.707-5.97,5.41-7.257
						c1.122-0.535,2.363-0.806,3.689-0.806c4.755,0,10.229,3.661,11.716,7.835c0.616,1.728,0.325,4.27-2.679,11.55
						c0.676-0.279,1.439-0.447,2.312-0.47l0.17-0.002c4.229,0,9.17,4.03,10.516,5.711c2.775,3.479,2.083,7.57,0.619,11.361
						c0.605-0.201,1.281-0.312,2.045-0.312c0.504,0,1.035,0.059,1.578,0.166c4.068,0.826,7.669,5.059,8.051,8.143
						c0.432,3.508-2.457,9.73-6.277,17.51c-0.711,1.445-1.34,2.727-1.779,3.693c-2.379,5.24-4.939,10.758-7.84,15.451
						c-4.164,6.748-7.16,11.201-13.658,16.146C100.551,168.121,96.535,169.576,92.207,169.576L92.207,169.576z"/>
				</g>
				<g>
					
						<radialGradient id="SVGID_2_" cx="257.4219" cy="1372.5303" r="27.1454" gradientTransform="matrix(1 0 0 1 -191.5 -1207)" gradientUnits="userSpaceOnUse">
						<stop  offset="0.1758" style="stop-color:#08A4FF"/>
						<stop  offset="0.3608" style="stop-color:#0CA1FA"/>
						<stop  offset="0.5852" style="stop-color:#1698EB"/>
						<stop  offset="0.8289" style="stop-color:#2789D3"/>
						<stop  offset="1" style="stop-color:#367CBD"/>
					</radialGradient>
					<path fill="url(#SVGID_2_)" stroke="#476A97" stroke-width="3" stroke-miterlimit="10" d="M86.911,186.865
						c-1.173,0-2.313-0.246-3.387-0.734l-44.695-20.266c-4.125-1.871-5.958-6.748-4.089-10.871l2.711-5.979
						c1.329-2.934,4.266-4.82,7.481-4.82c1.174,0,2.314,0.246,3.39,0.733l44.695,20.267c4.124,1.873,5.957,6.748,4.086,10.871
						l-2.71,5.979C93.064,184.973,90.128,186.865,86.911,186.865z"/>
				</g>
			</g>
		</g>
		<g>
			<path fill="#878787" d="M113.073,175.008c-5.005,0-9.698-1.823-14.349-5.572c-1.455-1.171-21.975-17.885-23.723-19.785
				c-3.435-3.731-11.117-13.653-8.254-25.165C72.015,103.312,79.645,83.72,99.64,83.72c0.057,0,0.113,0,0.17,0
				c3.692-5.743,15.102-22.792,32.815-43.06c2.811-3.215,6.18-6.668,10.622-6.948c0.16-0.01,0.319-0.015,0.483-0.015
				c4.758,0,11.295,4.66,12.49,8.904c1.341,4.758-1.782,8.576-4.538,11.944l-0.209,0.257c-0.408,0.502-0.824,1.015-1.231,1.538
				c-5.435,7.026-10.081,13.502-13.851,18.998c0.21-0.06,0.425-0.111,0.644-0.153c0.598-0.116,1.214-0.175,1.832-0.175
				c6.659,0,12.611,6.662,13.1,12.178c0.177,1.971-0.477,4.154-4.162,9.336c4.895,1.212,8.965,7.106,9.823,9.021
				c1.809,4.049,0.598,7.729-1.04,10.562c0.543,0.149,1.086,0.356,1.627,0.62c4.347,2.122,7.063,7.79,6.589,11.44
				c-0.517,3.93-4.808,9.178-10.812,16.163c-1.003,1.165-1.949,2.265-2.615,3.093c-3.643,4.516-7.536,9.247-11.591,13.143
				c-5.851,5.612-9.962,9.255-17.725,12.51C118.953,174.376,116.014,175.008,113.073,175.008z"/>
			<path fill="#878787" d="M143.73,35.198c4.054,0,10.039,4.234,11.047,7.811c1.127,4-1.606,7.349-4.256,10.587
				c-0.481,0.594-0.979,1.202-1.463,1.824c-8.727,11.282-15.733,21.544-20.677,29.292c0.288-0.365,1.705-2.163,1.882-2.381
				c2.021-2.508,4.113-5.103,7.057-5.673c0.506-0.098,1.022-0.147,1.547-0.147c5.729,0,11.175,5.944,11.605,10.81
				c0.164,1.829-0.757,4.219-5.496,10.525c0.285-0.041,0.58-0.062,0.89-0.062c0.485,0,0.983,0.058,1.479,0.173
				c4.158,0.962,8.01,6.188,8.914,8.203c1.818,4.072,0.114,7.865-2.26,11.172c0.155-0.012,0.312-0.018,0.477-0.018
				c1.006,0,2.043,0.256,3.082,0.762c3.732,1.822,6.158,6.816,5.758,9.898c-0.461,3.504-4.814,8.809-10.463,15.379
				c-1.051,1.221-1.979,2.301-2.646,3.131c-3.613,4.479-7.479,9.174-11.461,13c-5.721,5.488-9.73,9.049-17.266,12.209
				c-2.914,1.219-5.664,1.814-8.407,1.814c-4.649,0-9.035-1.715-13.407-5.24c-2.923-2.354-22.001-17.938-23.56-19.633
				c-3.271-3.553-10.591-12.979-7.903-23.787c5.12-20.582,12.473-39.628,31.437-39.628c0.323,0,0.65,0.006,0.98,0.018
				c3.284-5.165,14.756-22.56,33.135-43.59c2.611-2.988,5.722-6.195,9.586-6.438C143.469,35.202,143.598,35.198,143.73,35.198
				 M143.73,32.198c-0.195,0-0.385,0.006-0.572,0.017c-5.443,0.343-9.488,4.972-11.662,7.458
				c-17.123,19.592-28.385,36.199-32.507,42.553c-9.344,0.2-16.999,4.717-22.762,13.435c-5.479,8.286-8.722,19.563-10.936,28.462
				c-3.039,12.22,5.007,22.634,8.607,26.544c1.956,2.126,23.672,19.765,23.886,19.938c4.926,3.972,9.927,5.903,15.289,5.903
				c3.143,0,6.271-0.67,9.564-2.047c7.985-3.349,12.385-7.247,18.186-12.812c4.119-3.958,8.048-8.731,11.719-13.281
				c0.653-0.812,1.592-1.903,2.585-3.058c6.178-7.186,10.593-12.605,11.164-16.944c0.541-4.168-2.372-10.523-7.416-12.986
				c-0.058-0.027-0.115-0.055-0.173-0.082c1.232-2.698,2.072-6.384,0.297-10.361c-0.856-1.909-4.314-7.008-8.856-9.154
				c2.65-3.966,3.527-6.4,3.318-8.729c-0.54-6.093-6.707-13.153-13.991-13.526c3.395-4.863,7.399-10.372,11.962-16.271
				c0.396-0.507,0.806-1.012,1.207-1.507l0.213-0.262c2.832-3.461,6.365-7.781,4.813-13.291
				C156.296,37.337,149.134,32.198,143.73,32.198L143.73,32.198z"/>
		</g>
		
			<radialGradient id="SVGID_3_" cx="301.4424" cy="1301.127" r="78.745" gradientTransform="matrix(1 0 0 1 -191.5 -1207)" gradientUnits="userSpaceOnUse">
			<stop  offset="0.6316" style="stop-color:#FFFFFF"/>
			<stop  offset="0.7479" style="stop-color:#E8E9EC"/>
			<stop  offset="0.9903" style="stop-color:#AEAFBD"/>
			<stop  offset="1" style="stop-color:#ACADBB"/>
		</radialGradient>
		<path fill="url(#SVGID_3_)" d="M113.073,173.508c-4.649,0-9.035-1.715-13.407-5.24c-2.923-2.354-22.001-17.938-23.56-19.633
			c-3.271-3.553-10.591-12.979-7.903-23.787c5.12-20.582,12.473-39.628,31.437-39.628c0.323,0,0.65,0.006,0.98,0.018
			c3.284-5.165,14.756-22.56,33.135-43.59c2.611-2.988,5.722-6.195,9.586-6.438c0.128-0.008,0.257-0.012,0.39-0.012
			c4.054,0,10.039,4.234,11.047,7.811c1.127,4-1.606,7.349-4.256,10.587c-0.481,0.594-0.979,1.202-1.463,1.824
			c-8.727,11.282-15.733,21.544-20.677,29.292c0.288-0.365,1.705-2.163,1.882-2.381c2.021-2.508,4.113-5.103,7.057-5.673
			c0.506-0.098,1.022-0.147,1.547-0.147c5.729,0,11.175,5.944,11.605,10.81c0.164,1.829-0.757,4.219-5.496,10.525
			c0.285-0.041,0.58-0.062,0.89-0.062c0.485,0,0.983,0.058,1.479,0.173c4.158,0.962,8.01,6.188,8.914,8.203
			c1.818,4.072,0.114,7.865-2.26,11.172c0.155-0.012,0.312-0.018,0.477-0.018c1.006,0,2.043,0.256,3.082,0.762
			c3.732,1.822,6.158,6.816,5.758,9.898c-0.461,3.504-4.814,8.809-10.463,15.379c-1.051,1.221-1.979,2.301-2.646,3.131
			c-3.613,4.479-7.479,9.174-11.461,13c-5.721,5.488-9.73,9.049-17.266,12.209C118.566,172.912,115.816,173.508,113.073,173.508
			L113.073,173.508z"/>
		
			<radialGradient id="SVGID_4_" cx="275.5449" cy="1369.4219" r="27.8149" gradientTransform="matrix(1 0 0 1 -191.5 -1207)" gradientUnits="userSpaceOnUse">
			<stop  offset="0.1758" style="stop-color:#08A4FF"/>
			<stop  offset="0.3608" style="stop-color:#0CA1FA"/>
			<stop  offset="0.5852" style="stop-color:#1698EB"/>
			<stop  offset="0.8289" style="stop-color:#2789D3"/>
			<stop  offset="1" style="stop-color:#367CBD"/>
		</radialGradient>
		<path fill="url(#SVGID_4_)" stroke="#476A97" stroke-width="3" stroke-miterlimit="10" d="M101.08,188.594
			c-1.866,0-3.696-0.645-5.152-1.818l-38.197-30.812c-3.524-2.848-4.078-8.024-1.236-11.549l4.121-5.106
			c1.567-1.94,3.897-3.058,6.394-3.058c1.868,0,3.699,0.646,5.155,1.822l38.196,30.812c3.521,2.846,4.076,8.023,1.234,11.549
			l-4.123,5.107C105.907,187.48,103.577,188.594,101.08,188.594z"/>
		
			<linearGradient id="SVGID_5_" gradientUnits="userSpaceOnUse" x1="275.2881" y1="1249.6484" x2="249.9949" y2="1329.6459" gradientTransform="matrix(1 0 0 1 -191.5 -1207)">
			<stop  offset="0.1758" style="stop-color:#96DC00"/>
			<stop  offset="1" style="stop-color:#366100"/>
		</linearGradient>
		<path fill="url(#SVGID_5_)" d="M69.236,48.937c-2.116,0.247-4.227,0.567-6.304,0.959l-3.55,0.669l-0.033-21.542l3.208,0.217
			c2.359,0.16,4.729,0.424,7.08,0.791l1.237-13.601l42.084,24.883L69.666,63.465L69.236,48.937z"/>
		<path opacity="0.25" enable-background="new    " d="M100.793,85.21c0,0-3.691,11.112-8.106,15.24
			c-4.418,4.128-0.539,0.511,1.063-9.2c0.945-5.735,0.214-5.982,0.214-5.982L100.793,85.21z"/>
	</g>
</g>
</svg>
