<?xml version="1.0" encoding="utf-8"?>
<!-- Generator: Adobe Illustrator 15.0.0, SVG Export Plug-In . SVG Version: 6.00 Build 0)  -->
<!DOCTYPE svg PUBLIC "-//W3C//DTD SVG 1.1//EN" "http://www.w3.org/Graphics/SVG/1.1/DTD/svg11.dtd">
<svg version="1.1" id="Layer_1" xmlns="http://www.w3.org/2000/svg" xmlns:xlink="http://www.w3.org/1999/xlink" x="0px" y="0px"
	 width="200px" height="200px" viewBox="0 0 200 200" enable-background="new 0 0 200 200" xml:space="preserve">
<g id="icon">
	<g id="Layer_2">
	</g>
	<g>
		<path fill="#A65E1E" d="M160.141,85.519c5.631,4.502,6.896,12.646,2.822,18.187l-42.572,59.942
			c-1.328,1.81-5.209,4.086-7.137,4.871c-3.977,1.623-8.785,1.019-12.576-2.018l-61.87-49.451
			c-5.634-4.502-6.897-12.645-2.827-18.188l44.724-60.911c0.823-1.123,1.805-2.054,2.894-2.786
			c4.273-2.881,9.396-6.272,13.889-2.682L160.141,85.519z"/>
		
			<linearGradient id="SVGID_1_" gradientUnits="userSpaceOnUse" x1="281.9307" y1="-209.7983" x2="325.2619" y2="-361.4572" gradientTransform="matrix(0.9747 -0.1048 -0.1568 -1.0091 -218.386 -115.4536)">
			<stop  offset="0" style="stop-color:#FFE300"/>
			<stop  offset="1" style="stop-color:#F7941E"/>
		</linearGradient>
		<path fill="url(#SVGID_1_)" d="M164.204,82.947c5.632,4.501,6.896,12.646,2.823,18.187l-44.721,60.911
			c-4.07,5.543-11.938,6.389-17.565,1.889l-61.87-49.451c-5.632-4.502-6.895-12.646-2.826-18.188l44.723-60.912
			c4.071-5.543,11.936-6.389,17.567-1.886L164.204,82.947z"/>
		<g>
			<path d="M123.629,88.284c0,0-1.277,1.565-2.697,1.665c-2.099-5.461-5.543-12.007-12.115-11.949
				c7.281,17.104,13.691,35.295,23.428,49.354c-1.53,0.896-2.965,1.881-3.969,3.237c-7.158-7.978-12.893-17.729-18.834-27.222
				c-7.814,5.23-7.459,17.62-5.957,31.012c-2.317-0.021-2.885,1.498-5.643,1.096c-3.193-16.882-3.842-29.267,2.996-38.298
				c-0.976-4.692-3.504-7.452-4.246-12.438c-4.963,3.93-10.209,7.61-16.902,10.022c-1.552-1.795-2.107-3.887-2.107-3.887
				s7.263-4.588,9.549-7.039c5.67-6.085,4.697-16.764,15.455-16.658C110.586,67.261,122.127,75.973,123.629,88.284z"/>
			<path d="M101.07,60.01c0.391,3.569-2.076,6.635-5.516,6.852c-3.439,0.213-6.546-2.507-6.938-6.076
				c-0.391-3.566,2.078-6.634,5.518-6.849C97.573,53.723,100.68,56.441,101.07,60.01z"/>
		</g>
	</g>
</g>
</svg>
