<?xml version="1.0" encoding="utf-8"?>
<!-- Generator: Adobe Illustrator 15.0.0, SVG Export Plug-In . SVG Version: 6.00 Build 0)  -->
<!DOCTYPE svg PUBLIC "-//W3C//DTD SVG 1.1//EN" "http://www.w3.org/Graphics/SVG/1.1/DTD/svg11.dtd">
<svg version="1.1" id="Layer_1" xmlns="http://www.w3.org/2000/svg" xmlns:xlink="http://www.w3.org/1999/xlink" x="0px" y="0px"
	 width="200px" height="200px" viewBox="0 0 200 200" enable-background="new 0 0 200 200" xml:space="preserve">
<g id="icon">
	<g id="Layer_2">
	</g>
	<g>
		<path fill="#A65E1E" d="M168.643,141.484L57.778,170.421c-3.636,0.938-7.472-0.217-10.07-3.024
			c-2.596-2.809-3.557-6.847-2.516-10.592l32.929-118.86c1.04-3.745,3.916-6.629,7.552-7.566l0,0
			c3.634-0.938,8.5-2.023,11.096,0.785l76.905,92.163c2.596,2.81,3.555,6.847,2.52,10.592
			C175.152,137.663,172.273,140.548,168.643,141.484z"/>
		
			<linearGradient id="SVGID_1_" gradientUnits="userSpaceOnUse" x1="480.2256" y1="394.5078" x2="487.4158" y2="227.3335" gradientTransform="matrix(0.9707 -0.2404 -0.2404 -0.9707 -287.083 537.7144)">
			<stop  offset="0" style="stop-color:#FFE300"/>
			<stop  offset="1" style="stop-color:#F7941E"/>
		</linearGradient>
		<path fill="url(#SVGID_1_)" d="M173.104,140.688L62.241,169.623c-3.635,0.938-7.473-0.217-10.07-3.025
			c-2.596-2.808-3.555-6.848-2.516-10.593L82.583,37.146c1.04-3.745,3.916-6.629,7.551-7.565l0,0
			c3.635-0.938,7.474,0.216,10.068,3.023l77.935,89.925c2.594,2.81,3.555,6.847,2.518,10.592
			C179.616,136.864,176.736,139.75,173.104,140.688z"/>
		<g>
			<path d="M119.316,127.859c0.412,1.959,0.215,3.662-0.59,5.104c-0.553,0.991-1.705,2.243-3.465,3.762
				c-1.074,0.965-2.422,1.633-4.039,2c-1.685,0.383-2.812,0.278-3.388-0.309c-1.657-1.639-2.812-4.021-3.47-7.15
				c-0.709-3.365,0.637-6.336,4.035-8.912c1.637-1.271,3.098-2.057,4.387-2.35c1.285-0.294,2.297-0.072,3.041,0.656
				C117.458,122.163,118.624,124.562,119.316,127.859z M106.083,62.173c1.354,3.977,2.121,6.395,2.304,7.254
				c0.51,2.439,0.725,5.092,0.635,7.959c1.078,7.279,2.893,18.533,5.438,33.759l-7.42-0.254c-0.492-2.336-1.566-5.814-3.23-10.441
				c-1.666-4.625-2.752-8.158-3.269-10.6c-1.11-2.987-2.332-5.68-3.663-8.076c-1.057-1.885-1.643-3.117-1.766-3.703
				c-0.975-1.83-1.756-4.154-2.348-6.972c-0.621-2.954-0.725-5.253-0.309-6.897c0.758-0.678,1.961-1.202,3.609-1.577
				C98.901,61.975,102.241,61.825,106.083,62.173z"/>
		</g>
	</g>
</g>
</svg>
