<?xml version="1.0" encoding="utf-8"?>
<!-- Generator: Adobe Illustrator 15.0.0, SVG Export Plug-In . SVG Version: 6.00 Build 0)  -->
<!DOCTYPE svg PUBLIC "-//W3C//DTD SVG 1.1//EN" "http://www.w3.org/Graphics/SVG/1.1/DTD/svg11.dtd">
<svg version="1.1" id="Layer_1" xmlns="http://www.w3.org/2000/svg" xmlns:xlink="http://www.w3.org/1999/xlink" x="0px" y="0px"
	 width="200px" height="200px" viewBox="0 0 200 200" enable-background="new 0 0 200 200" xml:space="preserve">
<g>
	<g>
		<g>
			<g>
				<path fill-rule="evenodd" clip-rule="evenodd" fill="#878787" d="M123.341,163.435c-7.327-0.026-35.646-0.341-38.135-0.719
					c-3.966-0.604-17.46-3.519-24.61-15.67c-1.526-2.595-3.078-5.107-4.579-7.538c-6.554-10.612-12.214-19.777-12.231-29.627
					c-0.013-7.695,2.954-18.469,8.649-24.174c2.626-2.631,5.581-3.984,8.783-4.024c0.003-8.094,0.033-43.521,0.311-50.207
					c0.189-4.548,0.64-9.621,3.612-12.258c3.085-2.74,6.774-4.25,10.387-4.25c2.682,0,5.269,0.804,7.691,2.39
					c2.207,1.442,2.89,10.464,3.32,43.88c0.072,5.604,0.146,11.34,0.279,14.645c0.016-3.468,0.115-6.975,1.919-9.101
					c1.955-2.302,5.563-3.623,9.902-3.623c3.163,0,7.295,0.787,9.412,2.995c2.683,2.797,3.108,5.358,3.091,10.405
					c-0.003,0.934-0.115,1.865-0.224,2.766c-0.189,1.58-0.368,3.071-0.013,4.576c0.019,0.081,0.044,0.143,0.07,0.19
					c0.491-0.774,0.892-3.117,0.901-5.422c0.017-4.708,1.75-8.129,4.88-9.632c1.723-0.828,3.845-1.001,5.322-1.001
					c2.659,0,5.504,0.542,7.078,1.351c2.9,1.491,3.979,4.337,4.375,7.644c0.317-8.685,0.52-19.37,0.646-26.08
					c0.149-7.854,0.21-10.657,0.304-11.266c0.619-3.977,1.32-8.482,6.454-9.644c1.29-0.29,2.448-0.529,3.581-0.529
					c2.512,0,4.497,1.141,6.854,3.938c2.118,2.513,2.887,11.627,2.573,30.476l-0.011,0.684c-0.2,12.409,0.838,32.351,1.597,46.912
					c0.382,7.341,0.684,13.14,0.685,15.427c0.002,9.843-0.209,14.963-4.976,23.729c-4.556,8.375-17.42,12.758-27.772,12.758
					C123.466,163.435,123.341,163.435,123.341,163.435z M86.932,77.878c0.02-0.001,0.04-0.003,0.06-0.005
					c-0.035-0.127-0.066-0.262-0.091-0.406C86.91,77.617,86.92,77.754,86.932,77.878z"/>
				<path fill="#878787" d="M75.528,16.468c2.24,0,4.572,0.641,6.87,2.145c3.316,2.167,2.181,59.99,3.262,60.529
					c0.358,0.178,0.745,0.243,1.118,0.243c0.823,0,1.578-0.319,1.802-0.454c1.401-0.852-0.272,0.099-0.264-2.512
					c0.012-3.543,0.047-6.878,1.564-8.666c1.833-2.159,5.333-3.093,8.758-3.093c3.44,0,6.804,0.942,8.329,2.533
					c2.22,2.314,2.691,4.333,2.674,9.361c-0.009,2.416-0.838,4.978-0.196,7.692c0.22,0.925,0.901,1.458,1.565,1.458
					c0.303,0,0.601-0.11,0.851-0.343c1.308-1.221,1.51-5.307,1.516-6.685c0.014-3.899,1.326-6.988,4.029-8.286
					c1.274-0.612,2.967-0.853,4.673-0.853c2.553,0,5.136,0.54,6.394,1.185c3.666,1.885,3.804,6.487,3.782,12.55
					c-0.01,3.038-1.435,8.941,0.509,8.941c0.259,0,0.577-0.104,0.967-0.334c1.665-0.981,1.931-50,2.234-51.963
					c0.691-4.443,1.414-7.53,5.303-8.41c1.224-0.275,2.268-0.492,3.25-0.492c1.856,0,3.492,0.776,5.707,3.404
					c2.751,3.265,2.311,23.86,2.209,30.169c-0.305,18.882,2.279,55.753,2.281,62.362c0.002,9.92-0.283,14.719-4.793,23.012
					c-4.198,7.718-16.373,11.975-26.455,11.975c-0.04,0-0.081,0-0.121,0c-8.329-0.03-35.672-0.361-37.914-0.702
					c-7.75-1.18-17.964-5.465-23.543-14.947c-8.039-13.664-16.583-24.758-16.603-36.407c-0.017-10.438,5.657-26.697,16.079-26.696
					c0.442,0,0.894,0.029,1.354,0.09c0,0,0-44.281,0.31-51.733c0.186-4.457,0.633-9.001,3.109-11.199
					C68.716,18.048,72.008,16.468,75.528,16.468 M75.529,13.468C75.528,13.468,75.528,13.468,75.529,13.468
					c-3.98,0-8.023,1.644-11.384,4.628c-3.411,3.028-3.913,8.462-4.115,13.317c-0.265,6.383-0.305,38.739-0.311,48.876
					c-3.016,0.396-5.874,1.882-8.345,4.357c-6.263,6.272-9.101,17.479-9.088,25.237c0.018,10.275,5.781,19.607,12.455,30.413
					c1.497,2.424,3.044,4.93,4.562,7.511c7.486,12.723,21.546,15.763,25.677,16.392c2.683,0.408,31.799,0.713,38.355,0.736h0.132
					c10.795,0,24.254-4.651,29.091-13.541c4.931-9.067,5.159-14.618,5.157-24.446c-0.001-2.325-0.304-8.142-0.687-15.504
					c-0.758-14.54-1.795-34.452-1.595-46.809l0.011-0.683c0.379-22.785-0.896-29.058-2.926-31.468
					c-2.641-3.134-5.034-4.471-8.001-4.471c-1.286,0-2.53,0.256-3.907,0.565c-6.134,1.388-6.986,6.872-7.609,10.876
					c-0.107,0.691-0.16,2.932-0.321,11.469c-0.094,4.927-0.229,12.056-0.419,18.934c-0.653-0.697-1.449-1.306-2.416-1.803
					c-1.798-0.922-4.845-1.517-7.766-1.517c-2.375,0-4.385,0.386-5.972,1.149c-1.592,0.764-2.876,1.929-3.822,3.435
					c-0.432-2.303-1.338-4.113-3.152-6.005c-2.073-2.164-5.997-3.456-10.494-3.456c-4.443,0-8.235,1.308-10.546,3.612
					c-0.019-1.334-0.036-2.698-0.054-4.053c-0.506-39.354-1.445-43.449-4-45.118C81.371,14.354,78.507,13.468,75.529,13.468
					L75.529,13.468L75.529,13.468z"/>
			</g>
		</g>
		<g>
			<g>
				
					<radialGradient id="SVGID_1_" cx="-373.4043" cy="42.5508" r="89.3765" gradientTransform="matrix(0.0032 -0.9288 1 0.0035 52.4349 -268.5242)" gradientUnits="userSpaceOnUse">
					<stop  offset="0.6316" style="stop-color:#FFFFFF"/>
					<stop  offset="0.7479" style="stop-color:#E8E9EC"/>
					<stop  offset="0.9903" style="stop-color:#AEAFBD"/>
					<stop  offset="1" style="stop-color:#ACADBB"/>
				</radialGradient>
				<path fill-rule="evenodd" clip-rule="evenodd" fill="url(#SVGID_1_)" d="M150.225,34.417c-3.388-4.02-5.42-3.706-8.957-2.912
					c-3.889,0.88-4.611,3.967-5.303,8.41c-0.304,1.963-0.569,50.981-2.234,51.963c-3.314,1.957-1.486-5.164-1.476-8.606
					c0.021-6.062-0.116-10.665-3.782-12.55c-2.1-1.077-7.887-1.859-11.066-0.332c-2.703,1.298-4.016,4.387-4.029,8.286
					c-0.006,1.378-0.208,5.464-1.516,6.685c-0.799,0.746-2.097,0.231-2.416-1.114c-0.642-2.715,0.188-5.276,0.196-7.692
					c0.018-5.028-0.454-7.047-2.674-9.361c-3.042-3.174-13.413-3.767-17.087,0.561c-1.518,1.788-1.553,5.123-1.564,8.666
					c-0.009,2.61,1.665,1.66,0.264,2.512c-0.326,0.196-1.771,0.781-2.92,0.211c-1.081-0.539,0.055-58.362-3.262-60.529
					c-5.91-3.868-12.041-2.021-16.262,1.727c-2.477,2.198-2.924,6.742-3.109,11.199c-0.31,7.452-0.31,51.733-0.31,51.733
					c-11.282-1.481-17.45,15.726-17.432,26.606c0.021,11.649,8.564,22.743,16.603,36.407c5.579,9.482,15.793,13.768,23.543,14.947
					c2.242,0.341,29.585,0.672,37.914,0.702c10.105,0.034,22.361-4.227,26.576-11.975c4.51-8.293,4.795-13.092,4.793-23.012
					c-0.002-6.609-2.586-43.48-2.281-62.362C152.535,58.277,152.976,37.682,150.225,34.417z"/>
			</g>
		</g>
		<path fill-rule="evenodd" clip-rule="evenodd" fill="#878787" d="M62.718,83.271c9.952,2.202,13.396,1.609,28.603-2.326
			c4.945-1.28,11.881-2.086,11.166,12.106c-0.715,14.188-28.698,15.589-30.322,15.788c-1.625,0.196-3.88,8.306-3.88,8.306
			l5.921-3.973c0,0,30.827-0.722,33.317-15.621c2.491-14.897-1.408-18.049-4.972-21.158c-1.966-1.717-14.859,1.26-25.069,1.609
			c-8.294,0.281-14.454-2.184-14.454-2.184L62.718,83.271z"/>
		<path fill-rule="evenodd" clip-rule="evenodd" fill="none" stroke="#878787" stroke-width="3" stroke-miterlimit="10" d="
			M85.545,110.074c0,0,1.178,3.921,6.248,4.952c5.069,1.029,18.645,1.1,18.301-12.12c-0.35-13.526,1.939-33.18,1.939-33.18"/>
		<path fill-rule="evenodd" clip-rule="evenodd" fill="none" stroke="#878787" stroke-width="3" stroke-miterlimit="10" d="
			M109.879,106.064c0,0,0.65,7.042,8.016,7.675c8.1,0.697,12.861-0.602,14.385-8.77c2.738-14.679,0.685-35.243,0.685-35.243"/>
		<path fill-rule="evenodd" clip-rule="evenodd" fill="#878787" d="M71.824,114.413l-5.762,6.683l9.65-5.024
			c0,0,11.596,2.365,20.258,8.222c8.662,5.854,10.482,8.79,10.482,8.79l1.367,13.971l1.17-22.632c0,0-15.098-12.076-27.523-13.304
			C69.04,109.892,71.824,114.413,71.824,114.413z"/>
		<g>
			<radialGradient id="SVGID_2_" cx="108.9775" cy="173.3271" r="26.6361" gradientUnits="userSpaceOnUse">
				<stop  offset="0.1758" style="stop-color:#08A4FF"/>
				<stop  offset="0.3608" style="stop-color:#0CA1FA"/>
				<stop  offset="0.5852" style="stop-color:#1698EB"/>
				<stop  offset="0.8289" style="stop-color:#2789D3"/>
				<stop  offset="1" style="stop-color:#367CBD"/>
			</radialGradient>
			<path fill-rule="evenodd" clip-rule="evenodd" fill="url(#SVGID_2_)" d="M80.786,185.031c-4.073,0-7.436-3.313-7.498-7.387
				l-0.114-7.556c-0.031-2.003,0.721-3.897,2.116-5.336s3.267-2.247,5.27-2.277l56.61-0.853c4.071,0,7.435,3.312,7.497,7.384
				l0.114,7.559c0.03,2.003-0.722,3.898-2.117,5.336s-3.268,2.246-5.271,2.275L80.786,185.031z"/>
			<g>
				<path fill="#476A97" d="M137.17,163.123c3.272,0,5.947,2.625,5.997,5.907l0.114,7.558c0.05,3.313-2.596,6.04-5.91,6.089
					l-56.493,0.854c-0.031,0-0.062,0.001-0.092,0.001c-3.272,0-5.948-2.626-5.998-5.909l-0.114-7.556
					c-0.051-3.313,2.596-6.041,5.908-6.091l56.494-0.852C137.107,163.124,137.139,163.123,137.17,163.123 M137.17,160.123
					l-0.14,0.001l-56.494,0.852c-2.403,0.036-4.649,1.007-6.323,2.732c-1.674,1.727-2.576,4.001-2.539,6.404l0.114,7.555
					c0.073,4.888,4.109,8.864,8.997,8.864l0.138-0.001l56.493-0.854c2.403-0.036,4.65-1.006,6.324-2.73
					c1.675-1.726,2.577-3.999,2.541-6.403l-0.114-7.558C146.092,164.099,142.056,160.123,137.17,160.123L137.17,160.123z"/>
			</g>
		</g>
	</g>
</g>
</svg>
