<?xml version="1.0" encoding="utf-8"?>
<!-- Generator: Adobe Illustrator 15.0.0, SVG Export Plug-In . SVG Version: 6.00 Build 0)  -->
<!DOCTYPE svg PUBLIC "-//W3C//DTD SVG 1.1//EN" "http://www.w3.org/Graphics/SVG/1.1/DTD/svg11.dtd">
<svg version="1.1" id="Layer_1" xmlns="http://www.w3.org/2000/svg" xmlns:xlink="http://www.w3.org/1999/xlink" x="0px" y="0px"
	 width="200px" height="200px" viewBox="0 0 200 200" enable-background="new 0 0 200 200" xml:space="preserve">
<g id="icon">
	<g id="Layer_2">
	</g>
	<g>
		<defs>
			<filter id="Adobe_OpacityMaskFilter" filterUnits="userSpaceOnUse" x="44.666" y="29.193" width="125.764" height="125.765">
				<feColorMatrix  type="matrix" values="1 0 0 0 0  0 1 0 0 0  0 0 1 0 0  0 0 0 1 0"/>
			</filter>
		</defs>
		<mask maskUnits="userSpaceOnUse" x="44.666" y="29.193" width="125.764" height="125.765" id="SVGID_1_">
			<g filter="url(#Adobe_OpacityMaskFilter)">
				
					<linearGradient id="SVGID_2_" gradientUnits="userSpaceOnUse" x1="649.7041" y1="-948.6685" x2="649.7041" y2="-897.2004" gradientTransform="matrix(0.7071 0.7071 -0.7071 0.7071 -1042.1846 322.9969)">
					<stop  offset="0" style="stop-color:#FFFFFF"/>
					<stop  offset="1" style="stop-color:#000000"/>
				</linearGradient>
				<path fill="url(#SVGID_2_)" d="M153.54,46.083c-22.521-22.52-59.031-22.519-81.551,0.001
					C59.421,58.653,53.855,75.58,55.331,92.001c1.284,14.293-2.274,18.999-5.768,22.491c-2.457,2.457-3.556,3.557-3.556,3.557
					c-3.803,3.803,0.758,14.531,10.186,23.959l0.711,0.711l0.713,0.713c9.428,9.428,20.155,13.986,23.958,10.188
					c0,0,1.099-1.102,3.556-3.559c3.493-3.494,8.199-7.053,22.492-5.766c16.42,1.475,33.348-4.092,45.916-16.66
					C176.059,105.115,176.061,68.603,153.54,46.083z"/>
			</g>
		</mask>
		
			<radialGradient id="SVGID_3_" cx="649.7031" cy="-983.5381" r="63.2252" gradientTransform="matrix(0.7071 0.7071 -0.7071 0.7071 -1042.1846 322.9969)" gradientUnits="userSpaceOnUse">
			<stop  offset="0.545" style="stop-color:#D2D2D2;stop-opacity:0.5"/>
			<stop  offset="0.7102" style="stop-color:#C6C6C6;stop-opacity:0.391"/>
			<stop  offset="1" style="stop-color:#A6A6A6;stop-opacity:0.2"/>
		</radialGradient>
		<path mask="url(#SVGID_1_)" fill="url(#SVGID_3_)" d="M153.54,46.083c-22.521-22.52-59.031-22.519-81.551,0.001
			C59.421,58.653,53.855,75.58,55.331,92.001c1.284,14.293-2.274,18.999-5.768,22.491c-2.457,2.457-3.556,3.557-3.556,3.557
			c-3.803,3.803,0.758,14.531,10.186,23.959l0.711,0.711l0.713,0.713c9.428,9.428,20.155,13.986,23.958,10.188
			c0,0,1.099-1.102,3.556-3.559c3.493-3.494,8.199-7.053,22.492-5.766c16.42,1.475,33.348-4.092,45.916-16.66
			C176.059,105.115,176.061,68.603,153.54,46.083z"/>
		
			<radialGradient id="SVGID_4_" cx="649.7051" cy="-771.1641" r="24.4359" gradientTransform="matrix(0.7071 0.7071 -0.4712 0.4712 -761.8158 42.6295)" gradientUnits="userSpaceOnUse">
			<stop  offset="0.1958" style="stop-color:#C0C0C0"/>
			<stop  offset="0.3921" style="stop-color:#B1B1B1"/>
			<stop  offset="0.7687" style="stop-color:#898989"/>
			<stop  offset="1" style="stop-color:#6E6E6E"/>
		</radialGradient>
		<path fill="url(#SVGID_4_)" d="M55.9,142.301l0.711,0.711l0.712,0.713c9.429,9.428,13.99,20.154,10.187,23.959
			c2.329-2.33,15.681-15.682,15.681-15.682c3.804-3.803-0.757-14.531-10.186-23.959l-0.712-0.713l-0.711-0.711
			c-9.429-9.428-20.155-13.988-23.959-10.186c0,0-13.352,13.354-15.682,15.682C35.746,128.312,46.472,132.873,55.9,142.301z"/>
		
			<radialGradient id="SVGID_5_" cx="649.7012" cy="-984.0571" r="62.8573" gradientTransform="matrix(0.7071 0.7071 -0.7071 0.7071 -1042.1846 322.9969)" gradientUnits="userSpaceOnUse">
			<stop  offset="0" style="stop-color:#130C0E;stop-opacity:0"/>
			<stop  offset="0.811" style="stop-color:#130C0E;stop-opacity:0.5555"/>
			<stop  offset="0.9509" style="stop-color:#130C0E;stop-opacity:0.6512"/>
		</radialGradient>
		<path opacity="0.44" fill="url(#SVGID_5_)" enable-background="new    " d="M153.54,46.083
			c-22.521-22.52-59.031-22.519-81.551,0.001C59.421,58.653,53.855,75.58,55.331,92.001c1.284,14.293-2.274,18.999-5.768,22.491
			c-2.457,2.457-3.556,3.557-3.556,3.557c-1.559,1.559-1.71,4.279-0.701,7.598c3.301,5.729,7.385,11.125,12.281,16.021
			c5.169,5.168,10.899,9.426,16.984,12.816c3.047,0.812,5.539,0.596,7.003-0.869c0,0,1.099-1.098,3.556-3.555
			c3.493-3.494,8.199-7.057,22.492-5.77c16.42,1.479,33.349-4.092,45.916-16.66C176.059,105.115,176.061,68.603,153.54,46.083z"/>
		
			<radialGradient id="SVGID_6_" cx="649.5225" cy="-978.7861" r="99.9758" gradientTransform="matrix(0.7071 0.7071 -0.7071 0.7071 -1042.1846 322.9969)" gradientUnits="userSpaceOnUse">
			<stop  offset="0" style="stop-color:#FEFEFE"/>
			<stop  offset="0.3067" style="stop-color:#F7F7F7;stop-opacity:0.6055"/>
			<stop  offset="1" style="stop-color:#F4F4F4;stop-opacity:0"/>
		</radialGradient>
		<path fill="url(#SVGID_6_)" d="M153.54,46.083c-22.521-22.52-59.031-22.519-81.551,0.001
			C59.421,58.653,53.855,75.58,55.331,92.001c1.284,14.293-2.274,18.999-5.768,22.491c-2.457,2.457-3.556,3.557-3.556,3.557
			c-3.803,3.803,0.758,14.531,10.186,23.959l0.711,0.711l0.713,0.713c9.428,9.428,20.155,13.986,23.958,10.188
			c0,0,1.099-1.102,3.556-3.559c3.493-3.494,8.199-7.053,22.492-5.766c16.42,1.475,33.348-4.092,45.916-16.66
			C176.059,105.115,176.061,68.603,153.54,46.083z M106.039,139.652c-12.948-0.775-17.318,2.584-20.586,5.852
			c-2.301,2.299-3.328,3.328-3.328,3.328c-3.558,3.557-13.177-0.291-21.482-8.598l-0.627-0.627l-0.626-0.625
			c-8.307-8.311-12.155-17.926-8.597-21.484c0,0,1.027-1.027,3.327-3.328c3.268-3.268,6.628-7.637,5.853-20.584
			c-0.892-14.874,4.627-30.401,16.386-42.16c21.07-21.07,54.232-22.068,74.071-2.23c19.838,19.838,18.84,53-2.229,74.072
			C136.439,135.025,120.912,140.543,106.039,139.652z"/>
		
			<radialGradient id="SVGID_7_" cx="533.3984" cy="-871.6187" r="90.0433" gradientTransform="matrix(0.7854 0.7854 -0.7849 0.7849 -993.8713 355.3734)" gradientUnits="userSpaceOnUse">
			<stop  offset="0.3069" style="stop-color:#FFFFFF"/>
			<stop  offset="0.3558" style="stop-color:#FFFFFF;stop-opacity:0.9745"/>
			<stop  offset="0.5775" style="stop-color:#FFFFFF;stop-opacity:0.6095"/>
			<stop  offset="0.7362" style="stop-color:#FFFFFF;stop-opacity:0"/>
		</radialGradient>
		<path fill="url(#SVGID_7_)" d="M153.54,46.083c-22.521-22.52-59.031-22.519-81.551,0.001
			C59.421,58.653,53.855,75.58,55.331,92.001c1.284,14.293-2.274,18.999-5.768,22.491c-2.457,2.457-3.556,3.557-3.556,3.557
			c-3.803,3.803,0.758,14.531,10.186,23.959l0.711,0.711l0.713,0.713c9.428,9.428,20.155,13.986,23.958,10.188
			c0,0,1.099-1.102,3.556-3.559c3.493-3.494,8.199-7.053,22.492-5.766c16.42,1.475,33.348-4.092,45.916-16.66
			C176.059,105.115,176.061,68.603,153.54,46.083z M107.589,143.205c-13.981-1.262-18.584,2.217-21.998,5.631
			c-2.403,2.404-3.478,3.477-3.478,3.477c-3.719,3.725-14.213-0.746-23.438-9.971l-0.696-0.697l-0.696-0.691
			c-9.226-9.229-13.69-19.725-9.972-23.438c0,0,1.073-1.07,3.477-3.479c3.415-3.414,6.896-8.02,5.633-21.997
			C54.972,75.976,60.409,59.42,72.7,47.13c22.018-22.02,57.731-22.006,79.768,0.028c22.036,22.034,22.048,57.75,0.027,79.767
			C140.204,139.215,123.648,144.652,107.589,143.205z"/>
		<g>
			
				<radialGradient id="SVGID_8_" cx="602.3506" cy="-985.9932" r="25.9395" gradientTransform="matrix(0.7071 0.7071 -0.7071 0.7071 -1042.1846 322.9969)" gradientUnits="userSpaceOnUse">
				<stop  offset="0" style="stop-color:#FFFFFF;stop-opacity:0.6"/>
				<stop  offset="1" style="stop-color:#F4F4F4;stop-opacity:0.3"/>
			</radialGradient>
			<path fill="url(#SVGID_8_)" d="M77.049,49.511c7.736-7.736,16.744-13.232,26.068-16.443
				c-10.604,1.898-20.757,6.934-28.951,15.129C64.028,58.333,58.703,71.465,58.205,84.745C60.461,72.25,66.794,59.765,77.049,49.511
				z"/>
			
				<radialGradient id="SVGID_9_" cx="697.0576" cy="-985.9941" r="25.9397" gradientTransform="matrix(0.7071 0.7071 -0.7071 0.7071 -1042.1846 322.9969)" gradientUnits="userSpaceOnUse">
				<stop  offset="0" style="stop-color:#FFFFFF;stop-opacity:0.6"/>
				<stop  offset="1" style="stop-color:#F4F4F4;stop-opacity:0.3"/>
			</radialGradient>
			<path fill="url(#SVGID_9_)" d="M151.428,125.457c8.194-8.195,13.229-18.348,15.129-28.952
				c-3.209,9.323-8.705,18.331-16.443,26.069c-10.256,10.256-22.736,16.588-35.233,18.846
				C128.156,140.922,141.289,135.596,151.428,125.457z"/>
			
				<radialGradient id="SVGID_10_" cx="672.9678" cy="-921.2197" r="4.0336" gradientTransform="matrix(0.7071 0.7071 -0.7071 0.7071 -1042.1846 322.9969)" gradientUnits="userSpaceOnUse">
				<stop  offset="0" style="stop-color:#FFFFFF;stop-opacity:0.6"/>
				<stop  offset="1" style="stop-color:#F4F4F4;stop-opacity:0.3"/>
			</radialGradient>
			<path fill="url(#SVGID_10_)" d="M81.765,149.727c-0.611,0.611-1.141,1.145-1.597,1.6c1.27-0.09,2.322-0.49,3.081-1.25
				c0,0,1.04-1.039,3.369-3.369c0.655-0.654,1.358-1.312,2.167-1.938C85.588,146.146,83.537,147.953,81.765,149.727z"/>
			
				<radialGradient id="SVGID_11_" cx="626.4424" cy="-921.2173" r="4.0355" gradientTransform="matrix(0.7071 0.7071 -0.7071 0.7071 -1042.1846 322.9969)" gradientUnits="userSpaceOnUse">
				<stop  offset="0" style="stop-color:#FFFFFF;stop-opacity:0.6"/>
				<stop  offset="1" style="stop-color:#F4F4F4;stop-opacity:0.3"/>
			</radialGradient>
			<path fill="url(#SVGID_11_)" d="M48.302,119.455c0.456-0.455,0.985-0.984,1.597-1.596c1.772-1.771,3.578-3.824,4.961-7.021
				c-0.625,0.809-1.283,1.514-1.939,2.17c-2.328,2.328-3.368,3.367-3.368,3.367C48.793,117.135,48.39,118.189,48.302,119.455z"/>
		</g>
		<defs>
			<filter id="Adobe_OpacityMaskFilter_1_" filterUnits="userSpaceOnUse" x="65.144" y="77.11" width="57.376" height="57.371">
				<feColorMatrix  type="matrix" values="1 0 0 0 0  0 1 0 0 0  0 0 1 0 0  0 0 0 1 0"/>
			</filter>
		</defs>
		<mask maskUnits="userSpaceOnUse" x="65.144" y="77.11" width="57.376" height="57.371" id="SVGID_12_">
			<g filter="url(#Adobe_OpacityMaskFilter_1_)">
				
					<radialGradient id="SVGID_13_" cx="649.749" cy="-554.5542" r="22.6005" gradientTransform="matrix(0.7071 0.7071 -1.1545 1.1545 -1001.9281 282.7381)" gradientUnits="userSpaceOnUse">
					<stop  offset="0" style="stop-color:#FFFF9A"/>
					<stop  offset="0.2963" style="stop-color:#B7B76E"/>
					<stop  offset="0.9838" style="stop-color:#040403"/>
					<stop  offset="1" style="stop-color:#000000"/>
				</radialGradient>
				<polygon fill="url(#SVGID_13_)" points="81.536,148.875 50.81,118.146 105.508,63.449 136.234,94.175 				"/>
			</g>
		</mask>
		<g mask="url(#SVGID_12_)">
			<g>
				<line fill="none" stroke="#231F20" stroke-width="2" stroke-miterlimit="10" x1="65.969" y1="128.68" x2="99.843" y2="79.179"/>
				
					<line fill="none" stroke="#231F20" stroke-width="2" stroke-miterlimit="10" x1="70.944" y1="133.656" x2="120.445" y2="99.783"/>
			</g>
			
				<ellipse transform="matrix(-0.7071 -0.7072 0.7072 -0.7071 114.4384 205.7757)" fill="#FFFFE9" cx="99.841" cy="79.184" rx="2.285" ry="1.839"/>
			
				<ellipse transform="matrix(-0.707 -0.7072 0.7072 -0.707 135.0348 255.5087)" fill="#FFFFE9" cx="120.446" cy="99.782" rx="2.286" ry="1.838"/>
			<path fill="none" stroke="#231F20" stroke-width="2" stroke-miterlimit="10" d="M100.402,79.739c0,0,6.646-1.054,9.829,2.229
				c3.187,3.28,0.516,7.471-3.388,8.11c-2.86,0.471-6.758-1.64-3.524-5.426c2.9-3.398,11.912-1.45,13.449,4.95
				c1.52,6.315-3.123,6.977-5.102,7.088c-3.566,0.203-3.305-6.393,1.92-7.39c3.882-0.742,6.954,1.579,7.393,5.72
				c0.377,3.535-0.783,5.009-0.783,5.009"/>
		</g>
		
			<radialGradient id="SVGID_14_" cx="867.0098" cy="-881.6406" r="12.0675" gradientTransform="matrix(0.5955 0.5955 -0.7071 0.7071 -1099.5017 265.6812)" gradientUnits="userSpaceOnUse">
			<stop  offset="0" style="stop-color:#555555"/>
			<stop  offset="1" style="stop-color:#000000"/>
		</radialGradient>
		<path fill="url(#SVGID_14_)" d="M43.457,156.291l-0.257-0.258l-0.257-0.256c-3.399-3.4-10.018-9.123-8.389-10.752
			c-0.998,0.998-1.533,8.36-1.533,8.36c-1.627,1.628-0.192,5.702,3.207,9.104l0.256,0.256l0.258,0.258
			c3.399,3.396,7.478,4.834,9.105,3.205c0,0,6.815-0.877,7.813-1.875C52.031,165.967,46.857,159.689,43.457,156.291z"/>
		
			<radialGradient id="SVGID_15_" cx="649.1123" cy="-885.772" r="15.4825" gradientTransform="matrix(0.7071 0.7071 -0.7071 0.7071 -1042.1846 322.9969)" gradientUnits="userSpaceOnUse">
			<stop  offset="0" style="stop-color:#FFFFFF"/>
			<stop  offset="1" style="stop-color:#555555"/>
		</radialGradient>
		<path fill="url(#SVGID_15_)" d="M47.411,152.838l-0.392-0.393l-0.39-0.389c-5.181-5.186-15.151-14.008-13.062-16.098
			c-1.28,1.279-1.146,11.545-1.146,11.545c-2.089,2.088,0.414,7.979,5.594,13.162l0.391,0.393l0.391,0.393
			c5.18,5.18,11.072,7.682,13.162,5.594c0,0,9.457-0.412,10.736-1.691C60.605,167.443,52.59,158.016,47.411,152.838z"/>
		
			<radialGradient id="SVGID_16_" cx="649.7041" cy="-900.1465" r="21.0631" gradientTransform="matrix(0.7071 0.7071 -0.7071 0.7071 -1042.1846 322.9969)" gradientUnits="userSpaceOnUse">
			<stop  offset="0" style="stop-color:#FFFFFF"/>
			<stop  offset="1" style="stop-color:#898989"/>
		</radialGradient>
		<path fill="url(#SVGID_16_)" d="M58.825,142.223l-0.712-0.713l-0.711-0.711c-9.429-9.428-13.988-20.156-10.186-23.959
			c-2.33,2.33-15.682,15.682-15.682,15.682c-3.803,3.807,0.757,14.531,10.186,23.961l0.711,0.709l0.712,0.717
			c9.429,9.428,20.155,13.982,23.958,10.184c0,0,13.352-13.354,15.682-15.682C78.98,156.211,68.253,151.65,58.825,142.223z"/>
		
			<radialGradient id="SVGID_17_" cx="649.3506" cy="-904.6436" r="18.2027" gradientTransform="matrix(0.7071 0.7071 -0.7071 0.7071 -1042.1846 322.9969)" gradientUnits="userSpaceOnUse">
			<stop  offset="0.545" style="stop-color:#FFFFFF"/>
			<stop  offset="1" style="stop-color:#898989"/>
		</radialGradient>
		<path fill="url(#SVGID_17_)" d="M58.825,142.223l-0.712-0.713l-0.711-0.711c-9.429-9.428-13.988-20.156-10.186-23.959
			c-0.207,0.207-0.506,0.506-0.87,0.871c-3.804,3.803,0.757,14.531,10.185,23.959l0.711,0.711l0.713,0.713
			c9.428,9.428,20.155,13.986,23.958,10.184c0.364-0.361,0.663-0.658,0.87-0.867C78.98,156.211,68.253,151.65,58.825,142.223z"/>
		
			<radialGradient id="SVGID_18_" cx="322.2051" cy="1257.5557" r="99.3034" gradientTransform="matrix(1 0 0 1 -191.5 -1207)" gradientUnits="userSpaceOnUse">
			<stop  offset="0" style="stop-color:#FFFFFF;stop-opacity:0.6"/>
			<stop  offset="1" style="stop-color:#F4F4F4;stop-opacity:0.3"/>
		</radialGradient>
		<path fill="url(#SVGID_18_)" d="M156.311,92.025c0,0-4.787-22.465-26.502-34.281c-6.687-3.64-38.655,28.111-34.431,34.43
			c10.876,16.268,31.636,37.446,38.722,33.334C145.48,118.902,155.408,107.33,156.311,92.025z"/>
		
			<radialGradient id="SVGID_19_" cx="291.6299" cy="1243.2197" r="51.9342" gradientTransform="matrix(1 0 0 1 -191.5 -1207)" gradientUnits="userSpaceOnUse">
			<stop  offset="0" style="stop-color:#FFFFFF;stop-opacity:0.6"/>
			<stop  offset="1" style="stop-color:#F4F4F4;stop-opacity:0.3"/>
		</radialGradient>
		<path fill="url(#SVGID_19_)" d="M105.673,41.718c0,0,10.938,2.487,13.675,7.707c1.031,1.971-13.925,3.979-33.068,25.609
			C84.193,77.39,71.479,64.73,72.604,62.853C77.825,54.151,90.366,42.621,105.673,41.718z"/>
		
			<radialGradient id="SVGID_20_" cx="649.7051" cy="-612.9385" r="8.1305" gradientTransform="matrix(0.7071 0.7071 -0.974 0.974 -988.4971 269.309)" gradientUnits="userSpaceOnUse">
			<stop  offset="0" style="stop-color:#E7E7E7;stop-opacity:0.3"/>
			<stop  offset="0.6182" style="stop-color:#EAEAEA;stop-opacity:0.6091"/>
			<stop  offset="0.9437" style="stop-color:#F2F2F2;stop-opacity:0.7719"/>
			<stop  offset="1" style="stop-color:#F4F4F4;stop-opacity:0.8"/>
		</radialGradient>
		<path opacity="0.4" fill="url(#SVGID_20_)" enable-background="new    " d="M75.176,124.447c-2.878-2.877-6.509-3.91-11.235,0.816
			c-0.171,0.17-8.888,8.893-10.809,10.822c1.216,1.646,2.603,3.271,4.156,4.822L58,141.623l0.711,0.713
			c1.555,1.555,3.179,2.943,4.827,4.156c1.743-1.732,10.675-10.662,10.822-10.809C79.086,130.957,78.054,127.326,75.176,124.447z"/>
		
			<radialGradient id="SVGID_21_" cx="650.0254" cy="-907.0811" r="19.3036" gradientTransform="matrix(0.7071 0.7071 -0.7071 0.7071 -1042.1846 322.9969)" gradientUnits="userSpaceOnUse">
			<stop  offset="0" style="stop-color:#FFFFFF"/>
			<stop  offset="1" style="stop-color:#A4A4A4"/>
		</radialGradient>
		<path fill="url(#SVGID_21_)" d="M52.741,145.707c-9.08-9.08-12.377-18.113-12.604-20.496c-0.223-2.322,0.766-3.957,2.797-4.121
			c0,0-1.114,0.744-0.829,2.609c0.371,2.445,2.445,11.479,16.293,23.426c9.529,8.221,15.285,9.496,18.442,9.111
			c2.489-0.305,3.659-1.555,3.71-1.605c0.652-0.621,1.123-1.092,1.123-1.092c0.445,0.176,0.565,1.037,0.146,1.678
			c-0.161,0.246-1.57,2.52-5.222,3.027c-5.438,0.756-11.674-1.762-20.039-8.99C55.183,148.064,53.913,146.879,52.741,145.707z"/>
		
			<radialGradient id="SVGID_22_" cx="650.0244" cy="-901.9834" r="19.3028" gradientTransform="matrix(0.7071 0.7071 -0.7071 0.7071 -1042.1846 322.9969)" gradientUnits="userSpaceOnUse">
			<stop  offset="0" style="stop-color:#FFFFFF"/>
			<stop  offset="1" style="stop-color:#A4A4A4"/>
		</radialGradient>
		<path fill="url(#SVGID_22_)" d="M49.135,149.312c-9.08-9.08-12.375-18.113-12.603-20.496c-0.223-2.322,0.767-3.957,2.798-4.123
			c0,0-1.114,0.744-0.829,2.611c0.371,2.441,2.444,11.477,16.293,23.424c9.527,8.223,15.283,9.498,18.442,9.109
			c2.487-0.303,3.658-1.555,3.709-1.604c0.652-0.621,1.123-1.094,1.123-1.094c0.446,0.176,0.566,1.036,0.145,1.678
			c-0.161,0.246-1.568,2.52-5.221,3.026c-5.438,0.759-11.674-1.765-20.038-8.989C51.578,151.668,50.307,150.484,49.135,149.312z"/>
		
			<radialGradient id="SVGID_23_" cx="650.0264" cy="-896.9292" r="19.3032" gradientTransform="matrix(0.7071 0.7071 -0.7071 0.7071 -1042.1846 322.9969)" gradientUnits="userSpaceOnUse">
			<stop  offset="0" style="stop-color:#FFFFFF"/>
			<stop  offset="1" style="stop-color:#A4A4A4"/>
		</radialGradient>
		<path fill="url(#SVGID_23_)" d="M45.561,152.885c-9.079-9.078-12.375-18.113-12.602-20.494c-0.223-2.322,0.766-3.957,2.797-4.123
			c0,0-1.113,0.744-0.829,2.609c0.372,2.447,2.445,11.479,16.292,23.426c9.529,8.223,15.285,9.498,18.443,9.111
			c2.488-0.301,3.659-1.555,3.709-1.602c0.652-0.623,1.123-1.098,1.123-1.098c0.447,0.18,0.566,1.037,0.145,1.682
			c-0.16,0.246-1.568,2.518-5.221,3.023c-5.438,0.756-11.674-1.766-20.038-8.988C48.004,155.242,46.733,154.059,45.561,152.885z"/>
		
			<radialGradient id="SVGID_24_" cx="650.0254" cy="-892.1816" r="19.3031" gradientTransform="matrix(0.7071 0.7071 -0.7071 0.7071 -1042.1846 322.9969)" gradientUnits="userSpaceOnUse">
			<stop  offset="0" style="stop-color:#FFFFFF"/>
			<stop  offset="1" style="stop-color:#A4A4A4"/>
		</radialGradient>
		<path fill="url(#SVGID_24_)" d="M42.205,156.242c-9.08-9.08-12.377-18.113-12.604-20.494c-0.223-2.322,0.767-3.959,2.797-4.123
			c0,0-1.113,0.744-0.828,2.609c0.371,2.445,2.445,11.479,16.293,23.426c9.527,8.223,15.284,9.496,18.442,9.111
			c2.487-0.307,3.659-1.559,3.709-1.604c0.652-0.621,1.123-1.092,1.123-1.092c0.447,0.176,0.566,1.036,0.145,1.678
			c-0.161,0.244-1.569,2.519-5.221,3.026c-5.438,0.757-11.673-1.764-20.038-8.991C44.646,158.6,43.377,157.416,42.205,156.242z"/>
		
			<radialGradient id="SVGID_25_" cx="621.0938" cy="-910.4639" r="28.9057" gradientTransform="matrix(0.7071 0.7071 -0.7071 0.7071 -1042.1846 322.9969)" gradientUnits="userSpaceOnUse">
			<stop  offset="0.1958" style="stop-color:#C0C0C0"/>
			<stop  offset="0.4337" style="stop-color:#B1B1B1"/>
			<stop  offset="0.8904" style="stop-color:#898989"/>
			<stop  offset="1" style="stop-color:#7F7F7F"/>
		</radialGradient>
		<path opacity="0.1" fill="url(#SVGID_25_)" enable-background="new    " d="M52.88,129.488c0,0-6.63-7.295,0.166-14.09
			c6.796-6.797,8.121-9.449,8.286-14.588c0.167-5.143,8.289-0.998,6.135,7.129c-2.155,8.121-7.127,9.441-10.774,13.092
			C53.045,124.68,51.057,126.668,52.88,129.488z"/>
		
			<radialGradient id="SVGID_26_" cx="-1670.2334" cy="-910.4673" r="28.9011" gradientTransform="matrix(-0.7071 -0.7071 -0.7071 0.7071 -1742.9266 -377.7451)" gradientUnits="userSpaceOnUse">
			<stop  offset="0.1958" style="stop-color:#C0C0C0"/>
			<stop  offset="0.4337" style="stop-color:#B1B1B1"/>
			<stop  offset="0.8904" style="stop-color:#898989"/>
			<stop  offset="1" style="stop-color:#7F7F7F"/>
		</radialGradient>
		<path opacity="0.1" fill="url(#SVGID_26_)" enable-background="new    " d="M70.781,147.389c0,0,7.294,6.629,14.09-0.166
			c6.796-6.797,9.448-8.121,14.586-8.287c5.139-0.166,0.995-8.289-7.128-6.133c-8.121,2.154-9.445,7.127-13.093,10.773
			C75.589,147.225,73.601,149.213,70.781,147.389z"/>
	</g>
</g>
</svg>
