<?xml version="1.0" encoding="utf-8"?>
<!-- Generator: Adobe Illustrator 15.0.0, SVG Export Plug-In . SVG Version: 6.00 Build 0)  -->
<!DOCTYPE svg PUBLIC "-//W3C//DTD SVG 1.1//EN" "http://www.w3.org/Graphics/SVG/1.1/DTD/svg11.dtd">
<svg version="1.1" id="Layer_1" xmlns="http://www.w3.org/2000/svg" xmlns:xlink="http://www.w3.org/1999/xlink" x="0px" y="0px"
	 width="200px" height="200px" viewBox="0 0 200 200" enable-background="new 0 0 200 200" xml:space="preserve">
<g id="icon">
	<g id="Layer_2">
	</g>
	<g>
		<g>
			<defs>
				<filter id="Adobe_OpacityMaskFilter" filterUnits="userSpaceOnUse" x="44.666" y="29.4" width="125.764" height="125.766">
					<feColorMatrix  type="matrix" values="1 0 0 0 0  0 1 0 0 0  0 0 1 0 0  0 0 0 1 0"/>
				</filter>
			</defs>
			<mask maskUnits="userSpaceOnUse" x="44.666" y="29.4" width="125.764" height="125.766" id="SVGID_1_">
				<g filter="url(#Adobe_OpacityMaskFilter)">
					
						<linearGradient id="SVGID_2_" gradientUnits="userSpaceOnUse" x1="439.417" y1="1392.3516" x2="439.417" y2="1340.8842" gradientTransform="matrix(0.7071 0.7071 0.7071 -0.7071 -1207.2198 785.624)">
						<stop  offset="0" style="stop-color:#FFFFFF"/>
						<stop  offset="1" style="stop-color:#000000"/>
					</linearGradient>
					<path fill="url(#SVGID_2_)" d="M153.54,46.29c-22.521-22.52-59.031-22.519-81.551,0.001
						C59.421,58.859,53.854,75.786,55.331,92.208c1.283,14.292-2.275,18.998-5.769,22.49c-2.457,2.459-3.556,3.557-3.556,3.557
						c-3.802,3.804,0.759,14.531,10.186,23.959l0.711,0.711l0.713,0.714c9.428,9.428,20.156,13.987,23.959,10.188
						c0,0,1.098-1.102,3.556-3.559c3.493-3.494,8.198-7.052,22.491-5.767c16.421,1.476,33.349-4.092,45.916-16.66
						C176.059,105.32,176.061,68.809,153.54,46.29z"/>
				</g>
			</mask>
			
				<radialGradient id="SVGID_3_" cx="439.418" cy="1427.2227" r="63.2239" gradientTransform="matrix(0.7071 0.7071 0.7071 -0.7071 -1207.2198 785.624)" gradientUnits="userSpaceOnUse">
				<stop  offset="0.1958" style="stop-color:#FFFFB5"/>
				<stop  offset="0.2398" style="stop-color:#FFFDA6;stop-opacity:0.937"/>
				<stop  offset="0.3246" style="stop-color:#FFF77E;stop-opacity:0.8155"/>
				<stop  offset="0.4405" style="stop-color:#FFED3F;stop-opacity:0.6496"/>
				<stop  offset="0.545" style="stop-color:#FFE300;stop-opacity:0.5"/>
				<stop  offset="0.6531" style="stop-color:#FFD600;stop-opacity:0.4287"/>
				<stop  offset="0.8507" style="stop-color:#FFB500;stop-opacity:0.2984"/>
				<stop  offset="1" style="stop-color:#FF9800;stop-opacity:0.2"/>
			</radialGradient>
			<path mask="url(#SVGID_1_)" fill="url(#SVGID_3_)" d="M153.54,46.29c-22.521-22.52-59.031-22.519-81.551,0.001
				C59.421,58.859,53.854,75.786,55.331,92.208c1.283,14.292-2.275,18.998-5.769,22.49c-2.457,2.459-3.556,3.557-3.556,3.557
				c-3.802,3.804,0.759,14.531,10.186,23.959l0.711,0.711l0.713,0.714c9.428,9.428,20.156,13.987,23.959,10.188
				c0,0,1.098-1.102,3.556-3.559c3.493-3.494,8.198-7.052,22.491-5.767c16.421,1.476,33.349-4.092,45.916-16.66
				C176.059,105.32,176.061,68.809,153.54,46.29z"/>
			
				<radialGradient id="SVGID_4_" cx="439.4199" cy="1258.5635" r="24.4363" gradientTransform="matrix(0.7071 0.7071 0.4712 -0.4712 -842.7875 421.192)" gradientUnits="userSpaceOnUse">
				<stop  offset="0.1958" style="stop-color:#FFAE72"/>
				<stop  offset="0.3604" style="stop-color:#F0A170"/>
				<stop  offset="0.6777" style="stop-color:#C8806C"/>
				<stop  offset="1" style="stop-color:#9A5966"/>
			</radialGradient>
			<path fill="url(#SVGID_4_)" d="M55.899,142.506l0.712,0.713l0.712,0.711c9.428,9.428,13.99,20.154,10.186,23.959
				c2.33-2.33,15.682-15.682,15.682-15.682c3.803-3.803-0.758-14.531-10.186-23.959l-0.712-0.711l-0.712-0.713
				c-9.428-9.428-20.154-13.988-23.958-10.184c0,0-13.352,13.352-15.682,15.682C35.745,128.518,46.471,133.078,55.899,142.506z"/>
			
				<radialGradient id="SVGID_5_" cx="439.417" cy="1427.7402" r="62.8565" gradientTransform="matrix(0.7071 0.7071 0.7071 -0.7071 -1207.2198 785.624)" gradientUnits="userSpaceOnUse">
				<stop  offset="0.1958" style="stop-color:#FFFFB5"/>
				<stop  offset="0.2398" style="stop-color:#FFFDA6"/>
				<stop  offset="0.3246" style="stop-color:#FFF77E"/>
				<stop  offset="0.4405" style="stop-color:#FFED3F"/>
				<stop  offset="0.545" style="stop-color:#FFE300"/>
				<stop  offset="0.6531" style="stop-color:#FFD600"/>
				<stop  offset="0.8507" style="stop-color:#FFB500"/>
				<stop  offset="1" style="stop-color:#FF9800"/>
			</radialGradient>
			<path fill="url(#SVGID_5_)" d="M153.54,46.29c-22.521-22.52-59.031-22.519-81.551,0.001
				C59.421,58.859,53.854,75.786,55.331,92.208c1.283,14.292-2.275,18.998-5.769,22.49c-2.457,2.459-3.556,3.557-3.556,3.557
				c-1.558,1.56-1.71,4.279-0.7,7.599c3.301,5.729,7.384,11.125,12.28,16.021c5.17,5.168,10.9,9.428,16.984,12.816
				c3.047,0.813,5.539,0.596,7.004-0.867c0,0,1.098-1.102,3.556-3.559c3.493-3.494,8.198-7.052,22.491-5.767
				c16.421,1.476,33.348-4.092,45.916-16.66C176.059,105.32,176.061,68.809,153.54,46.29z"/>
			
				<radialGradient id="SVGID_6_" cx="439.2354" cy="1422.4727" r="99.975" gradientTransform="matrix(0.7071 0.7071 0.7071 -0.7071 -1207.2198 785.624)" gradientUnits="userSpaceOnUse">
				<stop  offset="0" style="stop-color:#FFFFF8"/>
				<stop  offset="0.3865" style="stop-color:#FFFFB8;stop-opacity:0.6095"/>
				<stop  offset="1" style="stop-color:#FFFF97;stop-opacity:0"/>
			</radialGradient>
			<path fill="url(#SVGID_6_)" d="M153.54,46.29c-22.521-22.52-59.031-22.519-81.551,0.001
				C59.421,58.859,53.854,75.786,55.331,92.208c1.283,14.292-2.275,18.998-5.769,22.49c-2.457,2.459-3.556,3.557-3.556,3.557
				c-3.802,3.804,0.759,14.531,10.186,23.959l0.711,0.711l0.713,0.714c9.428,9.428,20.156,13.987,23.959,10.188
				c0,0,1.098-1.102,3.556-3.559c3.493-3.494,8.198-7.052,22.491-5.767c16.421,1.476,33.349-4.092,45.916-16.66
				C176.059,105.32,176.061,68.809,153.54,46.29z M106.038,139.857c-12.947-0.775-17.318,2.584-20.586,5.852
				c-2.301,2.301-3.327,3.328-3.327,3.328c-3.558,3.559-13.177-0.291-21.483-8.598l-0.627-0.627l-0.625-0.625
				c-8.307-8.31-12.155-17.929-8.597-21.484c0,0,1.026-1.027,3.327-3.326c3.268-3.268,6.628-7.637,5.852-20.585
				c-0.891-14.874,4.627-30.401,16.387-42.16c21.07-21.07,54.232-22.068,74.071-2.23c19.838,19.838,18.84,53-2.229,74.071
				C136.438,135.23,120.911,140.748,106.038,139.857z"/>
			
				<radialGradient id="SVGID_7_" cx="359.5811" cy="1306.6602" r="90.0421" gradientTransform="matrix(0.7854 0.7854 0.7849 -0.7849 -1198.818 833.5608)" gradientUnits="userSpaceOnUse">
				<stop  offset="0.3069" style="stop-color:#FFFFF8"/>
				<stop  offset="0.3245" style="stop-color:#FFFFF3;stop-opacity:0.9745"/>
				<stop  offset="0.4492" style="stop-color:#FFFFD2;stop-opacity:0.7946"/>
				<stop  offset="0.5775" style="stop-color:#FFFFB8;stop-opacity:0.6095"/>
				<stop  offset="0.7095" style="stop-color:#FFFFA6;stop-opacity:0.4192"/>
				<stop  offset="0.8472" style="stop-color:#FFFF9B;stop-opacity:0.2205"/>
				<stop  offset="1" style="stop-color:#FFFF97;stop-opacity:0"/>
			</radialGradient>
			<path fill="url(#SVGID_7_)" d="M153.54,46.29c-22.521-22.52-59.031-22.519-81.551,0.001
				C59.421,58.859,53.854,75.786,55.331,92.208c1.283,14.292-2.275,18.998-5.769,22.49c-2.457,2.459-3.556,3.557-3.556,3.557
				c-3.802,3.804,0.759,14.531,10.186,23.959l0.711,0.711l0.713,0.714c9.428,9.428,20.156,13.987,23.959,10.188
				c0,0,1.098-1.102,3.556-3.559c3.493-3.494,8.198-7.052,22.491-5.767c16.421,1.476,33.349-4.092,45.916-16.66
				C176.059,105.32,176.061,68.809,153.54,46.29z M107.589,143.41c-13.982-1.262-18.584,2.217-21.998,5.633
				c-2.404,2.402-3.479,3.477-3.479,3.477c-3.718,3.722-14.213-0.746-23.438-9.973l-0.697-0.697l-0.695-0.695
				c-9.226-9.227-13.69-19.721-9.972-23.438c0,0,1.072-1.07,3.477-3.477c3.415-3.414,6.896-8.018,5.632-21.996
				c-1.448-16.062,3.988-32.618,16.279-44.908c22.019-22.02,57.731-22.006,79.768,0.028c22.036,22.034,22.048,57.75,0.028,79.768
				C140.204,139.42,123.646,144.857,107.589,143.41z"/>
			<g>
				
					<radialGradient id="SVGID_8_" cx="392.0654" cy="1429.6777" r="25.938" gradientTransform="matrix(0.7071 0.7071 0.7071 -0.7071 -1207.2198 785.624)" gradientUnits="userSpaceOnUse">
					<stop  offset="0" style="stop-color:#FFFFFF;stop-opacity:0.6"/>
					<stop  offset="0.2136" style="stop-color:#FFFFF0;stop-opacity:0.5359"/>
					<stop  offset="0.623" style="stop-color:#FFFFC9;stop-opacity:0.4131"/>
					<stop  offset="1" style="stop-color:#FFFF9F;stop-opacity:0.3"/>
				</radialGradient>
				<path fill="url(#SVGID_8_)" d="M77.048,49.717c7.737-7.736,16.744-13.232,26.068-16.443
					c-10.603,1.898-20.756,6.934-28.95,15.129C64.028,58.54,58.702,71.671,58.205,84.951C60.461,72.456,66.794,59.971,77.048,49.717
					z"/>
				
					<radialGradient id="SVGID_9_" cx="486.7715" cy="1429.6748" r="25.9395" gradientTransform="matrix(0.7071 0.7071 0.7071 -0.7071 -1207.2198 785.624)" gradientUnits="userSpaceOnUse">
					<stop  offset="0" style="stop-color:#FFFFFF;stop-opacity:0.6"/>
					<stop  offset="0.2136" style="stop-color:#FFFFF0;stop-opacity:0.5359"/>
					<stop  offset="0.623" style="stop-color:#FFFFC9;stop-opacity:0.4131"/>
					<stop  offset="1" style="stop-color:#FFFF9F;stop-opacity:0.3"/>
				</radialGradient>
				<path fill="url(#SVGID_9_)" d="M151.427,125.662c8.195-8.193,13.229-18.348,15.13-28.951
					c-3.209,9.322-8.705,18.332-16.441,26.068c-10.258,10.256-22.74,16.59-35.236,18.846
					C128.156,141.127,141.288,135.801,151.427,125.662z"/>
				
					<radialGradient id="SVGID_10_" cx="462.6807" cy="1364.8984" r="4.0348" gradientTransform="matrix(0.7071 0.7071 0.7071 -0.7071 -1207.2198 785.624)" gradientUnits="userSpaceOnUse">
					<stop  offset="0" style="stop-color:#FFFFFF;stop-opacity:0.6"/>
					<stop  offset="0.2136" style="stop-color:#FFFFF0;stop-opacity:0.5359"/>
					<stop  offset="0.623" style="stop-color:#FFFFC9;stop-opacity:0.4131"/>
					<stop  offset="1" style="stop-color:#FFFF9F;stop-opacity:0.3"/>
				</radialGradient>
				<path fill="url(#SVGID_10_)" d="M81.765,149.932c-0.611,0.611-1.141,1.144-1.598,1.596c1.27-0.086,2.322-0.487,3.082-1.248
					c0,0,1.039-1.038,3.369-3.366c0.654-0.656,1.359-1.312,2.166-1.938C85.588,146.352,83.536,148.16,81.765,149.932z"/>
				
					<radialGradient id="SVGID_11_" cx="416.1562" cy="1364.9004" r="4.0371" gradientTransform="matrix(0.7071 0.7071 0.7071 -0.7071 -1207.2198 785.624)" gradientUnits="userSpaceOnUse">
					<stop  offset="0" style="stop-color:#FFFFFF;stop-opacity:0.6"/>
					<stop  offset="0.2136" style="stop-color:#FFFFF0;stop-opacity:0.5359"/>
					<stop  offset="0.623" style="stop-color:#FFFFC9;stop-opacity:0.4131"/>
					<stop  offset="1" style="stop-color:#FFFF9F;stop-opacity:0.3"/>
				</radialGradient>
				<path fill="url(#SVGID_11_)" d="M48.301,119.662c0.457-0.457,0.985-0.984,1.598-1.598c1.772-1.771,3.578-3.824,4.96-7.021
					c-0.625,0.809-1.283,1.514-1.939,2.168c-2.327,2.328-3.368,3.367-3.368,3.367C48.793,117.34,48.389,118.395,48.301,119.662z"/>
			</g>
			<defs>
				<filter id="Adobe_OpacityMaskFilter_1_" filterUnits="userSpaceOnUse" x="65.143" y="77.305" width="57.377" height="57.381">
					<feColorMatrix  type="matrix" values="1 0 0 0 0  0 1 0 0 0  0 0 1 0 0  0 0 0 1 0"/>
				</filter>
			</defs>
			<mask maskUnits="userSpaceOnUse" x="65.143" y="77.305" width="57.377" height="57.381" id="SVGID_12_">
				<g filter="url(#Adobe_OpacityMaskFilter_1_)">
					
						<radialGradient id="SVGID_13_" cx="439.4619" cy="964.4512" r="22.6012" gradientTransform="matrix(0.7071 0.7071 1.1545 -1.1545 -1326.4612 904.8629)" gradientUnits="userSpaceOnUse">
						<stop  offset="0" style="stop-color:#FFFF9A"/>
						<stop  offset="0.2963" style="stop-color:#B7B76E"/>
						<stop  offset="0.9838" style="stop-color:#040403"/>
						<stop  offset="1" style="stop-color:#000000"/>
					</radialGradient>
					<polygon fill="url(#SVGID_13_)" points="81.536,149.08 50.809,118.352 105.507,63.655 136.232,94.381 					"/>
				</g>
			</mask>
			<g mask="url(#SVGID_12_)">
				<g>
					
						<line fill="none" stroke="#FFFFE9" stroke-width="2" stroke-miterlimit="10" x1="65.968" y1="128.885" x2="99.843" y2="79.385"/>
					
						<line fill="none" stroke="#FFFFE9" stroke-width="2" stroke-miterlimit="10" x1="70.944" y1="133.861" x2="120.443" y2="99.989"/>
				</g>
				
					<ellipse transform="matrix(0.7073 -0.7069 0.7069 0.7073 -26.8932 93.8071)" fill="#FFFFE9" cx="99.834" cy="79.379" rx="1.838" ry="2.286"/>
				
					<ellipse transform="matrix(0.7068 -0.7074 0.7074 0.7068 -35.415 114.5099)" fill="#FFFFE9" cx="120.445" cy="99.982" rx="1.838" ry="2.286"/>
				<path fill="none" stroke="#FFFFE9" stroke-width="2" stroke-miterlimit="10" d="M100.401,79.945c0,0,6.647-1.054,9.83,2.231
					c3.185,3.28,0.515,7.471-3.389,8.11c-2.861,0.471-6.758-1.64-3.525-5.426c2.902-3.398,11.914-1.45,13.449,4.95
					c1.521,6.315-3.123,6.977-5.1,7.088c-3.568,0.203-3.305-6.393,1.92-7.39c3.882-0.742,6.953,1.579,7.393,5.72
					c0.377,3.535-0.785,5.009-0.785,5.009"/>
			</g>
			
				<radialGradient id="SVGID_14_" cx="588.1729" cy="1325.3242" r="12.0675" gradientTransform="matrix(0.5955 0.5955 0.7071 -0.7071 -1247.1831 745.6624)" gradientUnits="userSpaceOnUse">
				<stop  offset="0" style="stop-color:#555555"/>
				<stop  offset="1" style="stop-color:#000000"/>
			</radialGradient>
			<path fill="url(#SVGID_14_)" d="M43.457,156.496l-0.258-0.258l-0.256-0.256c-3.4-3.4-10.018-9.123-8.389-10.752
				c-0.998,0.998-1.533,8.358-1.533,8.358c-1.628,1.632-0.193,5.705,3.207,9.104l0.256,0.258l0.258,0.258
				c3.398,3.396,7.477,4.834,9.105,3.205c0,0,6.815-0.877,7.813-1.875C52.03,166.172,46.857,159.895,43.457,156.496z"/>
			
				<radialGradient id="SVGID_15_" cx="438.8262" cy="1329.4551" r="15.4825" gradientTransform="matrix(0.7071 0.7071 0.7071 -0.7071 -1207.2198 785.624)" gradientUnits="userSpaceOnUse">
				<stop  offset="0" style="stop-color:#FFFFFF"/>
				<stop  offset="1" style="stop-color:#555555"/>
			</radialGradient>
			<path fill="url(#SVGID_15_)" d="M47.41,153.043l-0.391-0.393l-0.391-0.392c-5.18-5.182-15.15-14.004-13.061-16.094
				c-1.281,1.28-1.146,11.545-1.146,11.545c-2.09,2.09,0.413,7.979,5.594,13.162l0.39,0.392l0.392,0.393
				c5.179,5.18,11.072,7.682,13.161,5.594c0,0,9.457-0.412,10.736-1.691C60.605,167.648,52.59,158.221,47.41,153.043z"/>
			
				<radialGradient id="SVGID_16_" cx="439.418" cy="1343.8311" r="21.0634" gradientTransform="matrix(0.7071 0.7071 0.7071 -0.7071 -1207.2198 785.624)" gradientUnits="userSpaceOnUse">
				<stop  offset="0" style="stop-color:#FFFFFF"/>
				<stop  offset="1" style="stop-color:#898989"/>
			</radialGradient>
			<path fill="url(#SVGID_16_)" d="M58.825,142.428l-0.713-0.711l-0.711-0.713c-9.429-9.428-13.988-20.154-10.185-23.959
				c-2.33,2.33-15.682,15.682-15.682,15.682c-3.803,3.806,0.756,14.531,10.186,23.961l0.711,0.709l0.711,0.713
				c9.429,9.431,20.155,13.986,23.96,10.187c0,0,13.351-13.353,15.681-15.68C78.979,156.416,68.253,151.855,58.825,142.428z"/>
			
				<radialGradient id="SVGID_17_" cx="439.0674" cy="1348.3281" r="18.2022" gradientTransform="matrix(0.7071 0.7071 0.7071 -0.7071 -1207.2198 785.624)" gradientUnits="userSpaceOnUse">
				<stop  offset="0.545" style="stop-color:#FFFFFF"/>
				<stop  offset="1" style="stop-color:#898989"/>
			</radialGradient>
			<path fill="url(#SVGID_17_)" d="M58.825,142.428l-0.713-0.711l-0.711-0.713c-9.429-9.428-13.988-20.154-10.185-23.959
				c-0.208,0.207-0.506,0.506-0.871,0.871c-3.803,3.803,0.757,14.531,10.186,23.959l0.71,0.711l0.713,0.713
				c9.428,9.428,20.156,13.988,23.959,10.184c0.364-0.362,0.663-0.662,0.87-0.866C78.979,156.416,68.253,151.855,58.825,142.428z"/>
			
				<radialGradient id="SVGID_18_" cx="454.4414" cy="1439.5225" r="27.4307" gradientTransform="matrix(0.7071 0.7071 0.7071 -0.7071 -1207.2198 785.624)" gradientUnits="userSpaceOnUse">
				<stop  offset="0" style="stop-color:#FFFFFF;stop-opacity:0.6"/>
				<stop  offset="0.2136" style="stop-color:#FFFFF0;stop-opacity:0.5359"/>
				<stop  offset="0.623" style="stop-color:#FFFFC9;stop-opacity:0.4131"/>
				<stop  offset="1" style="stop-color:#FFFF9F;stop-opacity:0.3"/>
			</radialGradient>
			<path opacity="0.4" fill="url(#SVGID_18_)" enable-background="new    " d="M156.311,92.231c0,0-4.787-22.465-26.502-34.281
				c-6.687-3.64-38.655,28.111-34.431,34.43c10.875,16.267,31.636,37.447,38.722,33.333
				C145.48,119.109,155.407,107.537,156.311,92.231z"/>
			
				<radialGradient id="SVGID_19_" cx="250.126" cy="-566.4268" r="51.9351" gradientTransform="matrix(1 0 0 -1 -150 -530)" gradientUnits="userSpaceOnUse">
				<stop  offset="0" style="stop-color:#FFFFFF;stop-opacity:0.6"/>
				<stop  offset="0.2136" style="stop-color:#FFFFF0;stop-opacity:0.5359"/>
				<stop  offset="0.623" style="stop-color:#FFFFC9;stop-opacity:0.4131"/>
				<stop  offset="1" style="stop-color:#FFFF9F;stop-opacity:0.3"/>
			</radialGradient>
			<path fill="url(#SVGID_19_)" d="M105.673,41.924c0,0,10.938,2.487,13.675,7.707c1.03,1.971-13.925,3.979-33.068,25.609
				c-2.086,2.354-14.802-10.305-13.677-12.182C77.825,54.357,90.366,42.827,105.673,41.924z"/>
			
				<radialGradient id="SVGID_20_" cx="439.416" cy="1032.7324" r="8.132" gradientTransform="matrix(0.7071 0.7071 0.974 -0.974 -1248.6823 827.0859)" gradientUnits="userSpaceOnUse">
				<stop  offset="0" style="stop-color:#FFFF29;stop-opacity:0.3"/>
				<stop  offset="0.3289" style="stop-color:#FFFF2B;stop-opacity:0.4645"/>
				<stop  offset="0.5024" style="stop-color:#FFFF33;stop-opacity:0.5512"/>
				<stop  offset="0.6395" style="stop-color:#FFFF41;stop-opacity:0.6198"/>
				<stop  offset="0.7576" style="stop-color:#FFFF54;stop-opacity:0.6788"/>
				<stop  offset="0.8636" style="stop-color:#FFFF6D;stop-opacity:0.7318"/>
				<stop  offset="0.9593" style="stop-color:#FFFF8B;stop-opacity:0.7797"/>
				<stop  offset="1" style="stop-color:#FFFF9A;stop-opacity:0.8"/>
			</radialGradient>
			<path opacity="0.4" fill="url(#SVGID_20_)" enable-background="new    " d="M75.176,124.654
				c-2.878-2.879-6.509-3.912-11.235,0.812c-0.172,0.175-8.889,8.896-10.809,10.826c1.215,1.646,2.602,3.271,4.156,4.824
				l0.711,0.711l0.712,0.711c1.555,1.558,3.179,2.94,4.827,4.157c1.742-1.733,10.674-10.663,10.822-10.812
				C79.086,131.162,78.054,127.531,75.176,124.654z"/>
			
				<radialGradient id="SVGID_21_" cx="439.7393" cy="1350.7646" r="19.303" gradientTransform="matrix(0.7071 0.7071 0.7071 -0.7071 -1207.2198 785.624)" gradientUnits="userSpaceOnUse">
				<stop  offset="0" style="stop-color:#FFFFFF"/>
				<stop  offset="1" style="stop-color:#A4A4A4"/>
			</radialGradient>
			<path fill="url(#SVGID_21_)" d="M52.741,145.912c-9.081-9.08-12.378-18.113-12.604-20.494c-0.223-2.324,0.766-3.959,2.797-4.123
				c0,0-1.113,0.744-0.828,2.609c0.371,2.445,2.444,11.479,16.292,23.426c9.529,8.221,15.285,9.496,18.443,9.111
				c2.488-0.303,3.658-1.555,3.709-1.604c0.652-0.623,1.123-1.094,1.123-1.094c0.446,0.178,0.566,1.037,0.146,1.678
				c-0.162,0.246-1.57,2.521-5.223,3.027c-5.437,0.756-11.674-1.763-20.039-8.99C55.183,148.27,53.913,147.084,52.741,145.912z"/>
			
				<radialGradient id="SVGID_22_" cx="439.7402" cy="1345.6641" r="19.303" gradientTransform="matrix(0.7071 0.7071 0.7071 -0.7071 -1207.2198 785.624)" gradientUnits="userSpaceOnUse">
				<stop  offset="0" style="stop-color:#FFFFFF"/>
				<stop  offset="1" style="stop-color:#A4A4A4"/>
			</radialGradient>
			<path fill="url(#SVGID_22_)" d="M49.135,149.518c-9.08-9.08-12.375-18.11-12.604-20.496c-0.223-2.319,0.768-3.957,2.799-4.123
				c0,0-1.115,0.746-0.83,2.611c0.371,2.445,2.445,11.479,16.294,23.424c9.527,8.226,15.283,9.498,18.441,9.113
				c2.488-0.303,3.659-1.555,3.709-1.604c0.652-0.623,1.123-1.092,1.123-1.092c0.447,0.174,0.567,1.035,0.146,1.678
				c-0.161,0.244-1.569,2.516-5.222,3.025c-5.438,0.758-11.673-1.767-20.037-8.99C51.577,151.875,50.307,150.689,49.135,149.518z"/>
			
				<radialGradient id="SVGID_23_" cx="439.7402" cy="1340.6113" r="19.3025" gradientTransform="matrix(0.7071 0.7071 0.7071 -0.7071 -1207.2198 785.624)" gradientUnits="userSpaceOnUse">
				<stop  offset="0" style="stop-color:#FFFFFF"/>
				<stop  offset="1" style="stop-color:#A4A4A4"/>
			</radialGradient>
			<path fill="url(#SVGID_23_)" d="M45.561,153.092c-9.08-9.08-12.375-18.113-12.603-20.496c-0.222-2.322,0.767-3.957,2.798-4.123
				c0,0-1.113,0.744-0.83,2.611c0.372,2.445,2.445,11.477,16.292,23.426c9.529,8.221,15.285,9.496,18.443,9.109
				c2.488-0.301,3.66-1.555,3.709-1.602c0.652-0.623,1.123-1.097,1.123-1.097c0.447,0.179,0.567,1.037,0.146,1.681
				c-0.161,0.246-1.569,2.518-5.222,3.024c-5.438,0.756-11.674-1.767-20.038-8.99C48.004,155.447,46.732,154.264,45.561,153.092z"/>
			
				<radialGradient id="SVGID_24_" cx="439.7393" cy="1335.8652" r="19.303" gradientTransform="matrix(0.7071 0.7071 0.7071 -0.7071 -1207.2198 785.624)" gradientUnits="userSpaceOnUse">
				<stop  offset="0" style="stop-color:#FFFFFF"/>
				<stop  offset="1" style="stop-color:#A4A4A4"/>
			</radialGradient>
			<path fill="url(#SVGID_24_)" d="M42.204,156.447c-9.079-9.078-12.376-18.111-12.603-20.494c-0.223-2.322,0.766-3.959,2.797-4.123
				c0,0-1.113,0.744-0.828,2.609c0.371,2.442,2.445,11.479,16.293,23.426c9.526,8.223,15.284,9.496,18.442,9.111
				c2.486-0.306,3.658-1.558,3.709-1.604c0.652-0.621,1.123-1.093,1.123-1.093c0.447,0.177,0.566,1.037,0.145,1.679
				c-0.162,0.244-1.569,2.519-5.221,3.026c-5.438,0.757-11.674-1.766-20.04-8.991C44.646,158.805,43.377,157.621,42.204,156.447z"/>
		</g>
		
			<radialGradient id="SVGID_25_" cx="410.8076" cy="1354.1465" r="28.9055" gradientTransform="matrix(0.7071 0.7071 0.7071 -0.7071 -1207.2198 785.624)" gradientUnits="userSpaceOnUse">
			<stop  offset="0.1958" style="stop-color:#FFAE72"/>
			<stop  offset="0.3502" style="stop-color:#F0A770"/>
			<stop  offset="0.6481" style="stop-color:#C8946B"/>
			<stop  offset="1" style="stop-color:#927A64"/>
		</radialGradient>
		<path opacity="0.1" fill="url(#SVGID_25_)" enable-background="new    " d="M52.88,129.693c0,0-6.63-7.293,0.166-14.09
			c6.795-6.797,8.121-9.449,8.285-14.588c0.168-5.141,8.289-0.997,6.135,7.129c-2.154,8.121-7.127,9.442-10.773,13.094
			C53.044,124.885,51.056,126.873,52.88,129.693z"/>
		
			<radialGradient id="SVGID_26_" cx="-1148.9473" cy="1354.1465" r="28.9036" gradientTransform="matrix(-0.7071 -0.7071 0.7071 -0.7071 -1688.0537 304.7902)" gradientUnits="userSpaceOnUse">
			<stop  offset="0.1958" style="stop-color:#FFAE72"/>
			<stop  offset="0.3502" style="stop-color:#F0A770"/>
			<stop  offset="0.6481" style="stop-color:#C8946B"/>
			<stop  offset="1" style="stop-color:#927A64"/>
		</radialGradient>
		<path opacity="0.1" fill="url(#SVGID_26_)" enable-background="new    " d="M70.78,147.596c0,0,7.295,6.629,14.09-0.168
			c6.797-6.795,9.449-8.121,14.586-8.287c5.14-0.166,0.996-8.287-7.127-6.133c-8.121,2.154-9.445,7.127-13.094,10.773
			C75.589,147.43,73.601,149.418,70.78,147.596z"/>
	</g>
</g>
</svg>
