<?xml version="1.0" encoding="utf-8"?>
<!-- Generator: Adobe Illustrator 15.0.0, SVG Export Plug-In . SVG Version: 6.00 Build 0)  -->
<!DOCTYPE svg PUBLIC "-//W3C//DTD SVG 1.1//EN" "http://www.w3.org/Graphics/SVG/1.1/DTD/svg11.dtd">
<svg version="1.1" id="Layer_1" xmlns="http://www.w3.org/2000/svg" xmlns:xlink="http://www.w3.org/1999/xlink" x="0px" y="0px"
	 width="200px" height="200px" viewBox="0 0 200 200" enable-background="new 0 0 200 200" xml:space="preserve">
<g id="icon">
	<g id="Layer_2">
	</g>
	<g>
		
			<linearGradient id="SVGID_1_" gradientUnits="userSpaceOnUse" x1="21.7744" y1="-865.377" x2="110.2579" y2="-930.1825" gradientTransform="matrix(0.9817 -0.1903 -0.1903 -0.9817 -150.6726 -764.4388)">
			<stop  offset="0" style="stop-color:#70AB00"/>
			<stop  offset="1" style="stop-color:#284700"/>
		</linearGradient>
		<path fill="url(#SVGID_1_)" d="M122.82,54.512c-9.162-2.661-20.771-11.258-24.909-16.304c-3.613-3.96-6.716-5.74-10.46-5.046
			c-2.955,0.547-5.295-6.55-5.881-3.904c-0.195,0.882-0.059,11.096,0.133,12.036l25.031,81.938
			c-7.052-3.404-15.917-4.662-25.056-2.973c-16.506,3.059-28.44,8.938-29.172,21.616c-0.105,1.812,0.025,9.405,0.396,11.237
			c2.975,14.648,20.682,23.693,39.547,20.201c16.771-3.104,28.814-15.069,29.197-27.979c0.047-1.613,0.096-10.164-0.236-11.793
			c-0.191-0.947-0.631,5.045-0.943,4.146L108.5,84.841c0.176,0.346,0.258,0.385,0.232,0.055c-0.326-4.155,15.688-5.881,24.477,4.148
			c8.787,10.03,10.473,28.565,13.898,8.342c0.266-1.57,0.416-12.024,0.416-13.583C147.525,67.192,131.477,57.027,122.82,54.512z"/>
		
			<linearGradient id="SVGID_2_" gradientUnits="userSpaceOnUse" x1="68.8745" y1="-877.3838" x2="127.0084" y2="-1013.2045" gradientTransform="matrix(0.9817 -0.1903 -0.1903 -0.9817 -150.6726 -764.4388)">
			<stop  offset="0.1758" style="stop-color:#96DC00"/>
			<stop  offset="1" style="stop-color:#366100"/>
		</linearGradient>
		<path fill="url(#SVGID_2_)" d="M122.822,43.875c-9.164-2.661-20.771-11.257-24.911-16.303c-3.612-3.96-6.714-5.74-10.46-5.046
			c-3.939,0.729-6.512,4.368-5.747,8.131l25.032,81.938c-7.052-3.403-15.917-4.661-25.058-2.97
			c-18.863,3.492-31.75,18.201-28.775,32.854c2.975,14.65,20.684,23.697,39.547,20.205c18.87-3.494,31.753-18.203,28.78-32.854
			c-0.192-0.947-0.451-1.874-0.766-2.771L108.5,74.204c0.176,0.347,0.258,0.386,0.232,0.056c-0.324-4.155,15.688-5.881,24.477,4.149
			c8.787,10.029,10.473,28.563,13.898,8.34C150.531,66.522,132.205,46.603,122.822,43.875z"/>
	</g>
</g>
</svg>
