<?xml version="1.0" encoding="utf-8"?>
<!-- Generator: Adobe Illustrator 15.0.0, SVG Export Plug-In . SVG Version: 6.00 Build 0)  -->
<!DOCTYPE svg PUBLIC "-//W3C//DTD SVG 1.1//EN" "http://www.w3.org/Graphics/SVG/1.1/DTD/svg11.dtd">
<svg version="1.1" id="Layer_1" xmlns="http://www.w3.org/2000/svg" xmlns:xlink="http://www.w3.org/1999/xlink" x="0px" y="0px"
	 width="200px" height="200px" viewBox="0 0 200 200" enable-background="new 0 0 200 200" xml:space="preserve">
<g id="Layer_2" opacity="0.5">
</g>
<path opacity="0.5" d="M147.499,83c0.797-18.878-15.875-36.566-24.677-39.125c-9.164-2.661-20.771-11.257-24.911-16.303
	c-3.612-3.96-6.714-5.74-10.46-5.046c-3.447,0.638-5.848,3.504-5.881,6.732l0,0c-0.195,0.882-0.059,11.096,0.133,12.036
	l21.314,69.771c-6.335-2.209-13.74-2.847-21.339-1.44c-18.065,3.345-30.638,16.977-29.058,30.994
	c-0.05,0.411-0.09,0.829-0.114,1.256c-0.105,1.812,0.025,9.405,0.396,11.236c2.975,14.648,20.682,23.693,39.547,20.201
	c16.771-3.104,28.814-15.068,29.197-27.979c0.036-1.23,0.072-6.49-0.06-9.643c0.146-1.938,0.042-3.899-0.356-5.861
	c-0.192-0.947-0.451-1.874-0.767-2.771l-10.037-44.343c4.303-2.182,15.812-1.626,22.782,6.329
	c8.787,10.03,10.473,28.565,13.898,8.342c0.266-1.57,0.416-12.024,0.416-13.583C147.523,83.532,147.508,83.268,147.499,83z"/>
</svg>
