<?xml version="1.0" encoding="utf-8"?>
<!-- Generator: Adobe Illustrator 15.0.0, SVG Export Plug-In . SVG Version: 6.00 Build 0)  -->
<!DOCTYPE svg PUBLIC "-//W3C//DTD SVG 1.1//EN" "http://www.w3.org/Graphics/SVG/1.1/DTD/svg11.dtd">
<svg version="1.1" id="Layer_1" xmlns="http://www.w3.org/2000/svg" xmlns:xlink="http://www.w3.org/1999/xlink" x="0px" y="0px"
	 width="200px" height="200px" viewBox="0 0 200 200" enable-background="new 0 0 200 200" xml:space="preserve">
<g id="icon">
	<g id="Layer_2">
	</g>
	<g>
		
			<ellipse transform="matrix(0.8803 -0.4744 0.4744 0.8803 -14.3251 37.7862)" fill="#474747" cx="67.723" cy="47.283" rx="8.876" ry="2.846"/>
		
			<linearGradient id="SVGID_1_" gradientUnits="userSpaceOnUse" x1="1832.2314" y1="512.252" x2="1847.1478" y2="512.252" gradientTransform="matrix(0.8712 -0.4909 0.4909 0.8712 -1767.5109 535.9819)">
			<stop  offset="0" style="stop-color:#684014"/>
			<stop  offset="0.8221" style="stop-color:#C16703"/>
			<stop  offset="1" style="stop-color:#874E0F"/>
		</linearGradient>
		<path fill="url(#SVGID_1_)" d="M112.443,109.1c3.309,5.573,1.146,9.118-2.748,11.313l0,0c-3.896,2.196-8.049,2.206-11.356-3.368
			L56.488,42.562c0.85,1.209,2.342-1.933,6.239-4.129l0,0c3.896-2.193,7.677-1.957,6.827-3.166L112.443,109.1z"/>
		
			<linearGradient id="SVGID_2_" gradientUnits="userSpaceOnUse" x1="239.7871" y1="1358.4268" x2="233.0165" y2="1371.2551" gradientTransform="matrix(1 0 0 1 -191.5 -1207)">
			<stop  offset="0" style="stop-color:#D16E00"/>
			<stop  offset="0.1896" style="stop-color:#B56205"/>
			<stop  offset="0.5959" style="stop-color:#6E4313"/>
			<stop  offset="1" style="stop-color:#222222"/>
		</linearGradient>
		<path fill="url(#SVGID_2_)" d="M112.443,109.1L69.555,35.268c0.85,1.209-2.932,0.973-6.827,3.166
			c-1.479,0.834-2.61,1.804-3.379,2.807c0.499-0.393,1.055-0.771,1.679-1.123c3.896-2.193,7.678-1.958,6.828-3.166l42.889,73.832
			c2.831,4.727,2.31,6.573,0.899,8.309C114.266,116.969,115.527,114.273,112.443,109.1z"/>
		
			<radialGradient id="SVGID_3_" cx="996.1768" cy="854.2793" r="63.0283" gradientTransform="matrix(0.9631 0.269 -0.269 0.9631 -604.5494 -977.3135)" gradientUnits="userSpaceOnUse">
			<stop  offset="0" style="stop-color:#D8E4F3"/>
			<stop  offset="0.337" style="stop-color:#BEC5D4"/>
			<stop  offset="0.6777" style="stop-color:#8E9FB6"/>
			<stop  offset="1" style="stop-color:#5C6C7E"/>
		</radialGradient>
		<path fill="url(#SVGID_3_)" d="M127.516,95.127c0,0-15.896,2.824-30.324,8.188c-14.338,5.334-27.2,13.209-27.2,13.209
			c-3.381,1.944-5.132,5.367-3.149,8.897l18.985,33.782c13.185,23.488,55.874,23.125,55.874,23.125s28.31-26.045,15.127-49.531
			l-18.987-33.784C135.857,95.482,131.973,94.33,127.516,95.127z"/>
		
			<radialGradient id="SVGID_4_" cx="990.8213" cy="897.8145" r="38.1709" gradientTransform="matrix(0.9631 0.269 -0.269 0.9631 -604.5494 -977.3135)" gradientUnits="userSpaceOnUse">
			<stop  offset="0" style="stop-color:#FFFFFF"/>
			<stop  offset="1" style="stop-color:#8E9FB6"/>
		</radialGradient>
		<path fill="url(#SVGID_4_)" d="M142.521,179.395c0,0-42.691,0.363-55.876-23.123L67.66,122.488
			c-0.566-1.012-0.818-2.012-0.824-2.971c-1.024,1.734-1.175,3.801,0.006,5.899L85.827,159.2
			c13.185,23.485,55.874,23.125,55.874,23.125s13.976-12.854,17.715-28.652C154.797,168.098,142.521,179.395,142.521,179.395z"/>
		
			<linearGradient id="SVGID_5_" gradientUnits="userSpaceOnUse" x1="982.8184" y1="852.1572" x2="970.6838" y2="864.2917" gradientTransform="matrix(0.9631 0.269 -0.269 0.9631 -604.5494 -977.3135)">
			<stop  offset="0" style="stop-color:#C5D1E3"/>
			<stop  offset="1" style="stop-color:#5C6572"/>
		</linearGradient>
		<path fill="url(#SVGID_5_)" d="M97.918,90.881c-9.049,2.898-11.32,9.482-11.004,10.049l10.067,17.545
			c3.731,6.646,14.026,14.969,19.565,12.908s4.261-13.732,0.529-20.383L107.01,93.457C106.766,93.023,104.623,88.786,97.918,90.881z
			"/>
		
			<linearGradient id="SVGID_6_" gradientUnits="userSpaceOnUse" x1="982.8184" y1="852.1572" x2="970.6838" y2="864.2917" gradientTransform="matrix(0.9631 0.269 -0.269 0.9631 -604.5494 -977.3135)">
			<stop  offset="0.092" style="stop-color:#A8CEC9;stop-opacity:0"/>
			<stop  offset="0.1885" style="stop-color:#C4DEDA;stop-opacity:0.3455"/>
			<stop  offset="0.2883" style="stop-color:#E5F0EF;stop-opacity:0.7027"/>
			<stop  offset="0.4663" style="stop-color:#FFFFFF"/>
			<stop  offset="1" style="stop-color:#A8CEC9;stop-opacity:0"/>
		</linearGradient>
		<path opacity="0.48" fill="url(#SVGID_6_)" enable-background="new    " d="M97.918,90.881
			c-9.049,2.898-11.32,9.482-11.004,10.049l10.067,17.545c3.731,6.646,14.026,14.969,19.565,12.908s4.261-13.732,0.529-20.383
			L107.01,93.457C106.766,93.023,104.623,88.786,97.918,90.881z"/>
		
			<linearGradient id="SVGID_7_" gradientUnits="userSpaceOnUse" x1="305.5439" y1="1309.9688" x2="294.318" y2="1321.1948" gradientTransform="matrix(1 0 0 1 -191.5 -1207)">
			<stop  offset="0.092" style="stop-color:#A8CEC9;stop-opacity:0"/>
			<stop  offset="0.1885" style="stop-color:#C4DEDA;stop-opacity:0.3455"/>
			<stop  offset="0.2883" style="stop-color:#E5F0EF;stop-opacity:0.7027"/>
			<stop  offset="0.4663" style="stop-color:#FFFFFF"/>
			<stop  offset="1" style="stop-color:#A8CEC9;stop-opacity:0"/>
		</linearGradient>
		<path opacity="0.48" fill="url(#SVGID_7_)" enable-background="new    " d="M96.33,94.488c6.705-2.095,8.848,2.143,9.092,2.576
			l10.066,17.543c2.447,4.356,3.84,10.881,2.945,15.435c3.256-3.804,1.863-13.296-1.357-19.042L107.01,93.457
			c-0.244-0.434-2.387-4.671-9.092-2.576c-9.044,2.896-11.316,9.473-11.004,10.047C88.5,98.73,91.406,96.065,96.33,94.488z"/>
		
			<radialGradient id="SVGID_8_" cx="50.5757" cy="1566.5586" r="34.1846" fx="50.48" fy="1553.8182" gradientTransform="matrix(0.9964 0.1537 0.0549 0.6728 -77.4139 -1036.9089)" gradientUnits="userSpaceOnUse">
			<stop  offset="0" style="stop-color:#CFDEF7"/>
			<stop  offset="0.3021" style="stop-color:#BFCFE1"/>
			<stop  offset="0.5848" style="stop-color:#929DA7"/>
			<stop  offset="0.7221" style="stop-color:#707C83"/>
			<stop  offset="1" style="stop-color:#959DB1"/>
		</radialGradient>
		<path fill="url(#SVGID_8_)" d="M49.896,14.619c-9.892,3.497-13.173,15.475-7.328,26.756c5.844,11.281,41.659-1.379,35.816-12.658
			C72.54,17.435,59.785,11.123,49.896,14.619z M49.838,34.753c-2.898-5.597-1.27-11.538,3.634-13.272
			c4.907-1.732,11.233,1.396,14.132,6.992C70.5,34.067,52.737,40.348,49.838,34.753z"/>
		<g opacity="0.48">
			
				<radialGradient id="SVGID_9_" cx="246.7803" cy="1217.7607" r="15.5746" gradientTransform="matrix(1 0 0 1 -191.5 -1207)" gradientUnits="userSpaceOnUse">
				<stop  offset="0.7117" style="stop-color:#FFFFFF"/>
				<stop  offset="1" style="stop-color:#A8CEC9;stop-opacity:0"/>
			</radialGradient>
			<path fill="url(#SVGID_9_)" d="M49.896,17.506c9.889-3.496,22.644,2.814,28.488,14.096c0.191,0.371,0.336,0.744,0.441,1.118
				c0.35-1.326,0.246-2.675-0.441-4.003c-5.845-11.282-18.6-17.594-28.488-14.098c-6.992,2.472-10.66,9.186-10.158,16.891
				C40.219,25.052,43.794,19.662,49.896,17.506z"/>
			
				<radialGradient id="SVGID_10_" cx="249.6641" cy="1242.7637" r="7.6793" gradientTransform="matrix(1 0 0 1 -191.5 -1207)" gradientUnits="userSpaceOnUse">
				<stop  offset="0.5828" style="stop-color:#A8CEC9;stop-opacity:0"/>
				<stop  offset="0.6643" style="stop-color:#C4DEDA;stop-opacity:0.3455"/>
				<stop  offset="0.7485" style="stop-color:#E5F0EF;stop-opacity:0.7027"/>
				<stop  offset="0.8221" style="stop-color:#FFFFFF"/>
				<stop  offset="1" style="stop-color:#A8CEC9;stop-opacity:0"/>
			</radialGradient>
			<path fill="url(#SVGID_10_)" d="M49.838,38.348c2.899,5.595,20.662-0.686,17.766-6.28c-0.089-0.173-0.191-0.337-0.287-0.505
				c-2.871,4.419-15.114,7.752-17.479,3.19c-0.648-1.253-1.059-2.521-1.269-3.758C48.152,33.24,48.533,35.826,49.838,38.348z"/>
		</g>
		
			<linearGradient id="SVGID_11_" gradientUnits="userSpaceOnUse" x1="240.1758" y1="1250.4824" x2="257.959" y2="1250.4824" gradientTransform="matrix(1 0 0 1 -191.5 -1207)">
			<stop  offset="0" style="stop-color:#FFFFFF"/>
			<stop  offset="1" style="stop-color:#8E9FB6"/>
		</linearGradient>
		<path fill="url(#SVGID_11_)" d="M66.068,45.297c3.678-2.071,7.279-2.57,9.729-1.714l-3.48-6.253
			c-1.442-2.561-5.881-2.838-10.452-0.262c-4.573,2.576-6.325,6.264-4.883,8.824l3.063,5.805
			C60.754,49.475,62.79,47.143,66.068,45.297z"/>
		<path opacity="0.38" fill="#2B001C" enable-background="new    " d="M66.068,45.297c3.678-2.071,7.279-2.57,8.253-1.994
			l2.72,4.864c-0.567-1.182-4.404-2.559-8.977,0.016c-4.572,2.577-5.228,5.49-3.96,7.635l-3.137-5.312
			C60.754,49.475,62.79,47.143,66.068,45.297z"/>
	</g>
</g>
</svg>
