<?xml version="1.0" encoding="utf-8"?>
<!-- Generator: Adobe Illustrator 15.0.0, SVG Export Plug-In . SVG Version: 6.00 Build 0)  -->
<!DOCTYPE svg PUBLIC "-//W3C//DTD SVG 1.1//EN" "http://www.w3.org/Graphics/SVG/1.1/DTD/svg11.dtd">
<svg version="1.1" id="Layer_1" xmlns="http://www.w3.org/2000/svg" xmlns:xlink="http://www.w3.org/1999/xlink" x="0px" y="0px"
	 width="200px" height="200px" viewBox="0 0 200 200" enable-background="new 0 0 200 200" xml:space="preserve">
<g id="icon">
	<g id="Layer_2">
	</g>
	<g>
		
			<linearGradient id="SVGID_1_" gradientUnits="userSpaceOnUse" x1="-29.0898" y1="-735.748" x2="-21.7562" y2="-731.7478" gradientTransform="matrix(0.9945 -0.1044 -0.1044 -0.9945 24.1158 -666.2809)">
			<stop  offset="0.1166" style="stop-color:#B7BCC5"/>
			<stop  offset="0.3374" style="stop-color:#FFFFFF"/>
			<stop  offset="0.6242" style="stop-color:#EAECEE"/>
			<stop  offset="0.9202" style="stop-color:#9299A8"/>
		</linearGradient>
		<path fill="url(#SVGID_1_)" d="M53.972,25.285c-0.624,0.44-1.119,0.793-1.617,1.146c-2.359,1.673-4.718,3.348-7.077,5.021
			c-0.496,0.353-0.995,0.705-1.616,1.146l10.49,23.725l12.608,6.729c0,0,0,0,0.091,0.127l30.494,43.4l8.314-5.899L75.08,57.151
			l-2.058-14.216L53.972,25.285z"/>
		<g>
			
				<linearGradient id="SVGID_2_" gradientUnits="userSpaceOnUse" x1="796.499" y1="4285.5439" x2="796.499" y2="4254.8374" gradientTransform="matrix(-0.9859 -0.1676 -0.1676 0.9859 1560.0386 -4033.6011)">
				<stop  offset="0.0056" style="stop-color:#FFFFFF"/>
				<stop  offset="1" style="stop-color:#A4A4A4"/>
			</linearGradient>
			<path fill="url(#SVGID_2_)" d="M45.267,32.731c-0.126,0.088-0.253,0.177-0.376,0.268l10.337,22.036L65.8,60.347
				c1.188-3.129,3.573-4.823,7.044-4.996L71.45,43.528L53.944,26.577l-0.255,0.177C50.675,28.896,47.906,30.857,45.267,32.731z"/>
		</g>
		<g>
			
				<linearGradient id="SVGID_3_" gradientUnits="userSpaceOnUse" x1="789.5576" y1="4285.8662" x2="789.5576" y2="4268.6738" gradientTransform="matrix(-0.9859 -0.1676 -0.1676 0.9859 1560.0386 -4033.6011)">
				<stop  offset="0.0056" style="stop-color:#FFFFFF"/>
				<stop  offset="1" style="stop-color:#A4A4A4"/>
			</linearGradient>
			<path fill="url(#SVGID_3_)" d="M55.228,55.035L65.8,60.347c1.188-3.129,3.573-4.823,7.044-4.996L71.45,43.528L55.228,55.035z"/>
		</g>
		
			<linearGradient id="SVGID_4_" gradientUnits="userSpaceOnUse" x1="27.3242" y1="-797.8555" x2="0.1526" y2="-812.6914" gradientTransform="matrix(0.9945 -0.1044 -0.1044 -0.9945 24.1158 -666.2809)">
			<stop  offset="0" style="stop-color:#F7941E"/>
			<stop  offset="0.0473" style="stop-color:#F8A219"/>
			<stop  offset="0.1658" style="stop-color:#FBBE0E"/>
			<stop  offset="0.284" style="stop-color:#FDD306"/>
			<stop  offset="0.4011" style="stop-color:#FFDF02"/>
			<stop  offset="0.5153" style="stop-color:#FFE300"/>
			<stop  offset="0.6141" style="stop-color:#FEDE02"/>
			<stop  offset="0.7316" style="stop-color:#FDD007"/>
			<stop  offset="0.8586" style="stop-color:#FBB810"/>
			<stop  offset="0.9916" style="stop-color:#F7961D"/>
			<stop  offset="1" style="stop-color:#F7941E"/>
		</linearGradient>
		<path fill="url(#SVGID_4_)" d="M117.529,98.232c-0.389-0.286-0.653-0.66-1.041-0.94l-7.784-4.931
			c-0.478-0.406-1.203-0.642-1.877-0.532c-0.636-0.111-1.308-0.008-1.718,0.468l-15.396,10.922c-0.459,0.141-0.781,0.74-0.887,1.379
			c-0.324,0.602-0.344,1.359-0.24,2.032l2.203,8.894c0.139,0.457,0.281,0.918,0.543,1.289c0.178,0.25,0.266,0.373,0.439,0.621
			l37.209,54.396c0.972,1.368,2.346,2.257,4.041,2.544c1.49,0.256,4.125-0.498,7.705-2.292c1.914-0.986,3.742-2.096,5.604-3.417
			s3.64-2.767,5.2-4.244c2.877-2.787,4.336-4.94,4.709-6.515c0.292-1.695-0.096-3.29-1.064-4.659l-37.205-54.394
			C117.796,98.603,117.706,98.479,117.529,98.232z"/>
		<g>
			
				<linearGradient id="SVGID_5_" gradientUnits="userSpaceOnUse" x1="681.7031" y1="4378.6719" x2="699.0332" y2="4378.6719" gradientTransform="matrix(-0.9859 -0.1676 -0.1676 0.9859 1560.0386 -4033.6011)">
				<stop  offset="0" style="stop-color:#F7941E"/>
				<stop  offset="1" style="stop-color:#F7941E"/>
			</linearGradient>
			<path fill="url(#SVGID_5_)" d="M135.545,174.715c1.255-0.331,3.225-0.979,5.387-2.138c1.916-0.984,3.829-1.968,5.604-3.414
				c1.953-1.194,3.642-2.767,5.197-4.248c1.812-1.66,3.033-3.09,3.803-4.379c-0.768-0.022-1.896,0.22-3.441,0.938
				c-2.251,1.033-4.91,2.549-7.765,4.568c-2.856,2.025-5.04,3.95-6.765,5.73C136.255,173.085,135.646,174.073,135.545,174.715z"/>
		</g>
		
			<linearGradient id="SVGID_6_" gradientUnits="userSpaceOnUse" x1="-2.1929" y1="-811.6328" x2="33.9092" y2="-811.6328" gradientTransform="matrix(0.9945 -0.1044 -0.1044 -0.9945 24.1158 -666.2809)">
			<stop  offset="0" style="stop-color:#F7941E"/>
			<stop  offset="1" style="stop-color:#F7941E"/>
		</linearGradient>
		<path fill="url(#SVGID_6_)" d="M104.324,116.341c0.14-0.907,0.417-1.686,0.847-2.371c-0.103,0.326-0.198,0.653-0.251,1.021
			c-0.277,1.812,0.073,3.528,1.083,4.954l27.672,40.949c1.013,1.431,2.519,2.328,4.316,2.657c1.801,0.339,3.288-0.008,4.792-1.071
			l0.46-0.328c0.745-0.526,1.327-1.112,1.745-1.793c-0.396,1.291-1.141,2.3-2.338,3.147l-0.461,0.326
			c-1.508,1.065-2.996,1.409-4.793,1.074c-1.799-0.337-3.307-1.234-4.317-2.664l-27.67-40.947
			C104.395,119.867,104.045,118.15,104.324,116.341z"/>
		
			<linearGradient id="SVGID_7_" gradientUnits="userSpaceOnUse" x1="12.1797" y1="-801.1992" x2="42.7715" y2="-801.1992" gradientTransform="matrix(0.9945 -0.1044 -0.1044 -0.9945 24.1158 -666.2809)">
			<stop  offset="0" style="stop-color:#F7941E"/>
			<stop  offset="1" style="stop-color:#F7941E"/>
		</linearGradient>
		<path fill="url(#SVGID_7_)" d="M117.277,104.458c-0.102-1.556,0.339-2.588,1.341-3.298l0.11-0.077l0.777,1.101
			c-0.4,0.654-0.63,1.432-0.645,2.393c-0.014,1.641,0.533,3.238,1.556,4.682l28.083,41.527c1.021,1.439,2.354,2.484,3.906,3.014
			c0.285,0.1,0.557,0.146,0.824,0.195c-0.713,0.158-1.492,0.081-2.416-0.312c-1.433-0.608-2.705-1.695-3.729-3.138l-28.083-41.526
			C117.986,107.573,117.384,106.016,117.277,104.458z"/>
		<defs>
			<filter id="Adobe_OpacityMaskFilter" filterUnits="userSpaceOnUse" x="93.128" y="100.977" width="27.455" height="22.934">
				<feColorMatrix  type="matrix" values="1 0 0 0 0  0 1 0 0 0  0 0 1 0 0  0 0 0 1 0"/>
			</filter>
		</defs>
		<mask maskUnits="userSpaceOnUse" x="93.128" y="100.977" width="27.455" height="22.934" id="SVGID_8_">
			<g filter="url(#Adobe_OpacityMaskFilter)">
				
					<linearGradient id="SVGID_9_" gradientUnits="userSpaceOnUse" x1="672.4014" y1="4516.4785" x2="707.0283" y2="4516.4785" gradientTransform="matrix(-0.9859 -0.1676 -0.1676 0.9859 1560.0386 -4033.6011)">
					<stop  offset="0.0506" style="stop-color:#FFFFFF"/>
					<stop  offset="0.1292" style="stop-color:#000000"/>
					<stop  offset="0.8989" style="stop-color:#000000"/>
					<stop  offset="1" style="stop-color:#FFFFFF"/>
				</linearGradient>
				<polygon fill="url(#SVGID_9_)" points="106.943,295.256 141.081,301.062 139.232,311.939 105.096,306.136 				"/>
			</g>
		</mask>
		
			<linearGradient id="SVGID_10_" gradientUnits="userSpaceOnUse" x1="-13.4092" y1="-783.5088" x2="15.6484" y2="-783.5088" gradientTransform="matrix(0.9945 -0.1044 -0.1044 -0.9945 24.1158 -666.2809)">
			<stop  offset="0" style="stop-color:#F7941E"/>
			<stop  offset="1" style="stop-color:#F7941E"/>
		</linearGradient>
		<path mask="url(#SVGID_8_)" fill="url(#SVGID_10_)" d="M107.167,110.994l-0.465,0.329c-1.498,1.062-2.315,2.354-2.599,4.161
			c-0.28,1.808,0.063,3.521,1.192,4.863l0.413,0.584c-0.635-1.181-0.818-2.543-0.6-3.975c0.283-1.816,1.104-3.12,2.611-4.189
			l0.465-0.33c1.518-1.069,3.018-1.418,4.82-1.08c1.667,0.308,3.059,1.117,4.068,2.357l-0.814-1.146
			c-1.011-1.428-2.517-2.322-4.312-2.652C110.154,109.584,108.669,109.93,107.167,110.994z M119.096,101.134
			c-0.894,0.632-1.332,1.667-1.345,3.302c0.099,1.561,0.698,3.123,1.724,4.564l1.108,1.559c-0.921-1.381-1.476-2.852-1.567-4.326
			c0.014-1.648,0.457-2.691,1.355-3.33l0.21-0.147l-1.263-1.778L119.096,101.134z M93.237,119.479l-0.109,0.076l1.465,2.069
			l0.07-0.049c1.025-0.728,2.174-0.798,3.646-0.177c1.217,0.519,2.312,1.39,3.255,2.512l-1.043-1.467
			c-1.021-1.442-2.295-2.529-3.729-3.141C95.355,118.698,94.235,118.766,93.237,119.479z"/>
		
			<linearGradient id="SVGID_11_" gradientUnits="userSpaceOnUse" x1="-12.9248" y1="-815.4229" x2="18.9678" y2="-815.4229" gradientTransform="matrix(0.9945 -0.1044 -0.1044 -0.9945 24.1158 -666.2809)">
			<stop  offset="0" style="stop-color:#F7941E"/>
			<stop  offset="1" style="stop-color:#F7941E"/>
		</linearGradient>
		<path fill="url(#SVGID_11_)" d="M97.216,118.689c-1.434-0.607-2.554-0.537-3.556,0.175l-0.109,0.079l0.78,1.103
			c0.754-0.167,1.557-0.125,2.467,0.185c1.553,0.527,2.883,1.57,3.907,3.017l28.078,41.522c1.025,1.442,1.572,3.047,1.556,4.684
			c-0.004,0.307-0.045,0.574-0.086,0.846c0.384-0.619,0.563-1.383,0.5-2.383c-0.101-1.559-0.703-3.115-1.728-4.562l-28.08-41.521
			C99.922,120.385,98.652,119.302,97.216,118.689z"/>
	</g>
</g>
</svg>
