<?xml version="1.0" encoding="utf-8"?>
<!-- Generator: Adobe Illustrator 15.0.0, SVG Export Plug-In . SVG Version: 6.00 Build 0)  -->
<!DOCTYPE svg PUBLIC "-//W3C//DTD SVG 1.1//EN" "http://www.w3.org/Graphics/SVG/1.1/DTD/svg11.dtd">
<svg version="1.1" id="Layer_1" xmlns="http://www.w3.org/2000/svg" xmlns:xlink="http://www.w3.org/1999/xlink" x="0px" y="0px"
	 width="200px" height="200px" viewBox="0 0 200 200" enable-background="new 0 0 200 200" xml:space="preserve">
<g id="icon">
	<g id="Layer_2">
	</g>
	<g>
		<linearGradient id="SVGID_1_" gradientUnits="userSpaceOnUse" x1="57.002" y1="48.4844" x2="170.7002" y2="48.4844">
			<stop  offset="0.303" style="stop-color:#B3BDCD"/>
			<stop  offset="0.4788" style="stop-color:#FFFFFF"/>
			<stop  offset="1" style="stop-color:#626E7E"/>
		</linearGradient>
		<path fill="url(#SVGID_1_)" d="M164.695,58.35c-4.104-2.84-17.368-6.456-27.479-6.456c-5.886,0-28.198,0-45.811,0
			c-0.057-1.882-1.92-2.323-1.92-2.323s-0.29,1.28-1.228,2.323c-2.319,0-4.526,0-6.568,0c-1.351-1.334-1.194-3.357-0.163-4.753
			c2.549-3.444,13.96-6.757,13.96-6.757l4.106,9.187c0,0,9.158-5.239,9.158-9.03c0-3.789,2.564-7.666,2.564-7.666l-2.522-6.256
			l-51.79,18.948c0,0,8.026,10.311,15.839,15.438l4.373,9.344c0,0,40.427,0,58.429,0s35.058-4.617,35.058-4.617
			S168.802,61.188,164.695,58.35z"/>
		<path fill="#FFFFFF" d="M164.695,57.35c-4.104-2.84-17.368-6.456-27.479-6.456c-5.886,0-28.198,0-45.811,0
			c-0.057-1.882-1.92-2.323-1.92-2.323s-0.29,1.28-1.228,2.323c-2.319,0-4.526,0-6.568,0c-1.351-1.334-1.194-3.357-0.163-4.753
			c2.549-3.444,13.96-6.757,13.96-6.757l4.106,9.187c0,0,9.158-5.239,9.158-9.03c0-3.789,2.564-7.666,2.564-7.666l-2.522-6.256
			l-51.79,18.948c0,0,8.026,10.311,15.839,15.438l4.373,9.344c0,0,40.427,0,58.429,0s35.058-4.617,35.058-4.617
			S168.802,60.188,164.695,57.35z"/>
		<path fill="#534F50" d="M56.413,46.663l51.795-18.948l3.114,4.159l-0.588,2.096c0,0-2.569,3.877-2.569,7.668
			c0,3.789-9.158,9.029-9.158,9.029l-4.105-9.188c0,0-11.412,3.312-13.96,6.758c-1.493,2.018-1.157,5.354,2.927,6.009
			c4.084,0.655,5.032-3.579,5.032-3.579s2.21,0.517,1.896,2.85c-0.316,2.332-0.935,9.121-9.784,11.254
			C72.164,66.904,56.413,46.663,56.413,46.663z"/>
		
			<linearGradient id="SVGID_2_" gradientUnits="userSpaceOnUse" x1="289.0176" y1="1285.4082" x2="308.0952" y2="1257.6588" gradientTransform="matrix(1 0 0 1 -191.5 -1207)">
			<stop  offset="0" style="stop-color:#636D7C"/>
			<stop  offset="0.2782" style="stop-color:#404C6D;stop-opacity:0.7218"/>
			<stop  offset="0.7156" style="stop-color:#263F68;stop-opacity:0.2844"/>
			<stop  offset="1" style="stop-color:#233D68;stop-opacity:0"/>
		</linearGradient>
		<path fill="url(#SVGID_2_)" d="M164.695,57.35c-4.104-2.84-17.368-6.456-27.479-6.456c-5.886,0-28.198,0-45.811,0
			c-0.057-1.882-1.92-2.323-1.92-2.323s-0.29,1.28-1.228,2.323c-2.319,0-4.526,0-6.568,0c-1.351-1.334-1.194-3.357-0.163-4.753
			c2.549-3.444,13.96-6.757,13.96-6.757l4.106,9.187c0,0,9.158-5.239,9.158-9.03c0-3.789,2.564-7.666,2.564-7.666l-2.522-6.256
			l-51.79,18.948c0,0,8.026,10.311,15.839,15.438l4.373,9.344c0,0,40.427,0,58.429,0s35.058-4.617,35.058-4.617
			S168.802,60.188,164.695,57.35z"/>
		
			<linearGradient id="SVGID_3_" gradientUnits="userSpaceOnUse" x1="276.8301" y1="1247.0254" x2="307.9935" y2="1263.2844" gradientTransform="matrix(1 0 0 1 -191.5 -1207)">
			<stop  offset="0" style="stop-color:#FFFFFF"/>
			<stop  offset="0.41" style="stop-color:#C1CDDC"/>
			<stop  offset="0.8078" style="stop-color:#8A9DB3"/>
			<stop  offset="1" style="stop-color:#758392"/>
		</linearGradient>
		<path fill="url(#SVGID_3_)" d="M57.003,44.567l51.794-18.949l2.526,6.256c0,0-2.568,3.877-2.568,7.666
			c0,3.791-9.158,9.03-9.158,9.03l-4.106-9.187c0,0-11.411,3.312-13.96,6.757c-1.492,2.019-1.156,5.354,2.928,6.009
			c4.084,0.656,5.031-3.579,5.031-3.579s2.211,0.517,1.895,2.85c-0.314,2.333-0.934,9.121-9.783,11.254
			C72.753,64.807,57.003,44.567,57.003,44.567z"/>
		
			<linearGradient id="SVGID_4_" gradientUnits="userSpaceOnUse" x1="300.2158" y1="1252.1221" x2="299.8946" y2="1254.0514" gradientTransform="matrix(1 0 0 1 -191.5186 -1206.9951)">
			<stop  offset="0" style="stop-color:#FF0000"/>
			<stop  offset="0.1346" style="stop-color:#F60000"/>
			<stop  offset="0.3529" style="stop-color:#DE0000"/>
			<stop  offset="0.6278" style="stop-color:#B70000"/>
			<stop  offset="0.9456" style="stop-color:#810000"/>
			<stop  offset="1" style="stop-color:#770000"/>
		</linearGradient>
		<path fill="url(#SVGID_4_)" d="M39.248,69.23c-5.242,4.737-8.283,9.05-6.721,14.88c0.769,2.87,3.533,7.818,5.977,10.023
			l85.012,76.717c7.408,6.688,19.754,6.375,27.574-0.69l3.98-3.601c7.818-7.064,8.152-18.22,0.744-24.903L70.8,64.939
			c-7.408-6.687-19.753-6.375-27.574,0.693L39.248,69.23z"/>
		
			<linearGradient id="SVGID_5_" gradientUnits="userSpaceOnUse" x1="324.2275" y1="1243.8828" x2="277.5213" y2="1347.355" gradientTransform="matrix(1 0 0 1 -191.5 -1207)">
			<stop  offset="0" style="stop-color:#FF0000"/>
			<stop  offset="0.1674" style="stop-color:#F60000"/>
			<stop  offset="0.4388" style="stop-color:#DE0000"/>
			<stop  offset="0.7785" style="stop-color:#B70000"/>
			<stop  offset="1" style="stop-color:#9A0000"/>
		</linearGradient>
		<path fill="url(#SVGID_5_)" d="M37.973,65.774c-8,7.23-8.341,18.637-0.761,25.476l86.968,78.48
			c7.579,6.838,20.209,6.521,28.209-0.709l4.069-3.685c8-7.229,8.342-18.639,0.763-25.479L70.253,61.382
			c-7.58-6.84-20.209-6.521-28.208,0.709L37.973,65.774z"/>
		
			<linearGradient id="SVGID_6_" gradientUnits="userSpaceOnUse" x1="319.373" y1="1317.8184" x2="329.4792" y2="1317.5026" gradientTransform="matrix(1 0 0 1 -191.5 -1207)">
			<stop  offset="0.303" style="stop-color:#B3BDCD"/>
			<stop  offset="0.4788" style="stop-color:#FFFFFF"/>
			<stop  offset="1" style="stop-color:#626E7E"/>
		</linearGradient>
		<path fill="url(#SVGID_6_)" d="M37.973,61.993c-8,7.23-8.341,18.637-0.761,25.477l86.968,78.48
			c7.579,6.84,20.209,6.521,28.209-0.709l4.069-3.681c8-7.231,8.342-18.643,0.763-25.479l-86.968-78.48
			c-7.58-6.839-20.209-6.521-28.208,0.71L37.973,61.993z"/>
		<g>
			
				<linearGradient id="SVGID_7_" gradientUnits="userSpaceOnUse" x1="-1478.8208" y1="2096.2822" x2="-1489.6404" y2="2144.334" gradientTransform="matrix(0.8895 -0.457 0.457 0.8895 435.5725 -2379.9124)">
				<stop  offset="0" style="stop-color:#D9E6F0"/>
				<stop  offset="0.2187" style="stop-color:#C0CAE1"/>
				<stop  offset="0.7444" style="stop-color:#8A9DAE"/>
				<stop  offset="1" style="stop-color:#758397"/>
			</linearGradient>
			<path fill="url(#SVGID_7_)" d="M119.596,158.109c0,0-10.697-2.471-15.574-1.739c-6.122,0.913-13.503,4.332-18.376,6.911
				c-9.482-0.228-21.244-0.557-31.476-0.799c-19.042-1.539-20.389-10.928-20.389-10.928s31.232,0.165,54.878,0.735
				c3.928,0.099,10.617-0.642,15.355-0.565c2.795,0.101,5.172,0.104,6.9,0.088c2.884,0.242,2.146-0.056,2.146-0.056L119.596,158.109
				z"/>
			
				<linearGradient id="SVGID_8_" gradientUnits="userSpaceOnUse" x1="-1486.4478" y1="2080.0527" x2="-1480.9543" y2="2078.1299" gradientTransform="matrix(0.8895 -0.457 0.457 0.8895 435.5725 -2379.9124)">
				<stop  offset="0" style="stop-color:#FFFFFF"/>
				<stop  offset="0.41" style="stop-color:#C1CAD9"/>
				<stop  offset="1" style="stop-color:#8A95AC"/>
			</linearGradient>
			<path fill="url(#SVGID_8_)" d="M85.427,156.829c0,0-22.702,0.069-32.931-0.172c-19.044-1.541-18.719-5.103-18.719-5.103
				s31.232,0.165,54.878,0.735L85.427,156.829z"/>
			
				<linearGradient id="SVGID_9_" gradientUnits="userSpaceOnUse" x1="-1464.8301" y1="2056.2383" x2="-1479.9618" y2="2097.1082" gradientTransform="matrix(0.8895 -0.457 0.457 0.8895 435.5725 -2379.9124)">
				<stop  offset="0" style="stop-color:#D9E3ED"/>
				<stop  offset="0.1127" style="stop-color:#C1CDD7"/>
				<stop  offset="0.8523" style="stop-color:#344E5D"/>
				<stop  offset="1" style="stop-color:#1F2D3A"/>
			</linearGradient>
			<path fill="url(#SVGID_9_)" d="M103.87,155.493c-6.124,0.914-13.76,4.42-18.635,6.996c-9.482-0.224-21.244-0.554-31.475-0.796
				c-15.792-1.276-17.192-7.698-19.64-10.131c-0.223-0.006-0.344-0.008-0.344-0.008s1.347,9.389,20.389,10.928
				c10.231,0.242,21.993,0.572,31.476,0.799c4.873-2.579,12.258-5.998,18.38-6.911c4.875-0.729,15.569,1.739,15.569,1.739
				l-0.7-0.756C117.398,157.363,108.284,154.833,103.87,155.493z"/>
			
				<linearGradient id="SVGID_10_" gradientUnits="userSpaceOnUse" x1="-1480.8691" y1="2096.5381" x2="-1476.8068" y2="2089.6963" gradientTransform="matrix(0.8895 -0.457 0.457 0.8895 435.5725 -2379.9124)">
				<stop  offset="0" style="stop-color:#FFFFFF"/>
				<stop  offset="0.311" style="stop-color:#D7E3F5"/>
				<stop  offset="0.7745" style="stop-color:#A1B1CA"/>
				<stop  offset="1" style="stop-color:#8C9DB3"/>
			</linearGradient>
			<path fill="url(#SVGID_10_)" d="M103.741,154.764c-6.123,0.914-13.97,4.489-18.846,7.067c-9.48-0.224-21.242-0.554-31.473-0.795
				c-15.792-1.278-15.772-6.539-18.217-8.972c-0.224-0.006-0.627-0.381-0.627-0.381s0.207,8.602,19.25,10.142
				c10.23,0.241,21.993,0.571,31.476,0.797c4.873-2.578,12.469-6.069,18.592-6.981c4.875-0.729,15.312,1.842,15.312,1.842
				l-0.707-0.756C117.009,156.732,108.157,154.105,103.741,154.764z"/>
			
				<linearGradient id="SVGID_11_" gradientUnits="userSpaceOnUse" x1="-1470.4023" y1="2066.9141" x2="-1476.2684" y2="2085.7344" gradientTransform="matrix(0.8895 -0.457 0.457 0.8895 435.5725 -2379.9124)">
				<stop  offset="0" style="stop-color:#FFFFFF"/>
				<stop  offset="0.1435" style="stop-color:#E0E0E0"/>
				<stop  offset="0.5623" style="stop-color:#898989"/>
				<stop  offset="0.8574" style="stop-color:#525252"/>
				<stop  offset="1" style="stop-color:#3D3D3D"/>
			</linearGradient>
			<path fill="url(#SVGID_11_)" d="M88.876,152.654c3.928,0.097,10.174-0.618,14.913-0.549c2.794,0.101,7.182,0.123,8.911,0.104
				l5.362,5.051l0.953,0.176l-5.854-5.606c-1.729,0.021-6.354-0.001-9.149-0.103c-4.743-0.068-11.433,0.662-15.36,0.566
				c-23.646-0.57-54.878-0.736-54.878-0.736s0.459,0.1,0.738,0.39C38.041,152.029,66.368,152.113,88.876,152.654z"/>
		</g>
		<g>
			
				<linearGradient id="SVGID_12_" gradientUnits="userSpaceOnUse" x1="-2242.1123" y1="2171.0264" x2="-2223.4043" y2="2166.5811" gradientTransform="matrix(0.8004 -0.5995 0.5995 0.8004 572.9163 -2930.561)">
				<stop  offset="0" style="stop-color:#D9E6F0"/>
				<stop  offset="0.2187" style="stop-color:#C0CAE1"/>
				<stop  offset="0.7444" style="stop-color:#8A9DAE"/>
				<stop  offset="1" style="stop-color:#758397"/>
			</linearGradient>
			<path fill="url(#SVGID_12_)" d="M110.98,172.948c0,0-9.332-4.052-10.822-7.331c-2.071-4.561-2.517-7.719-4.81-11.686
				c-9.332-4.507-19.498-9.32-29.563-14.183c-21.398-9.088-27.597-3.008-27.597-3.008s26.087,13.497,46.707,23.407
				c4.752,2.283,7.211,4.371,10.846,8.789c1.455,1.769,2.828,2.945,4.656,4.101c2.277,1.438,8.889,4.485,8.889,4.485l2.418,0.078
				l0.996-2.691L110.98,172.948z"/>
			
				<linearGradient id="SVGID_13_" gradientUnits="userSpaceOnUse" x1="-2254.3228" y1="2155.293" x2="-2255.8193" y2="2176.0183" gradientTransform="matrix(0.8004 -0.5995 0.5995 0.8004 572.9163 -2930.561)">
				<stop  offset="0" style="stop-color:#FFFFFF"/>
				<stop  offset="0.41" style="stop-color:#C1CAD9"/>
				<stop  offset="1" style="stop-color:#8A95AC"/>
			</linearGradient>
			<path fill="url(#SVGID_13_)" d="M81.669,152.999c0,0-9.221-3.603-19.288-8.462c-21.399-9.085-24.192-7.792-24.192-7.792
				s29.045,14.937,44.525,21.886L81.669,152.999z"/>
			
				<linearGradient id="SVGID_14_" gradientUnits="userSpaceOnUse" x1="-2278.1895" y1="2176.0283" x2="-2226.7358" y2="2167.0674" gradientTransform="matrix(0.8004 -0.5995 0.5995 0.8004 572.9163 -2930.561)">
				<stop  offset="0" style="stop-color:#D9E3ED"/>
				<stop  offset="0.1127" style="stop-color:#C1CDD7"/>
				<stop  offset="0.8523" style="stop-color:#344E5D"/>
				<stop  offset="1" style="stop-color:#1F2D3A"/>
			</linearGradient>
			<path fill="url(#SVGID_14_)" d="M64.934,140.204c10.067,4.86,20.233,9.678,29.562,14.18c2.293,3.968,2.738,7.125,4.812,11.687
				c1.354,2.981,9.771,6.966,11.399,7.548l0.273-0.666c0,0-9.332-4.054-10.822-7.331c-2.071-4.562-2.517-7.721-4.81-11.688
				c-9.332-4.504-19.498-9.322-29.563-14.181c-21.398-9.088-27.597-3.008-27.597-3.008s0.167,0.08,0.469,0.223
				C42.611,136.417,47.38,132.751,64.934,140.204z"/>
			
				<linearGradient id="SVGID_15_" gradientUnits="userSpaceOnUse" x1="-2242.3701" y1="2168.7129" x2="-2244.6064" y2="2169.6714" gradientTransform="matrix(0.8004 -0.5995 0.5995 0.8004 572.9163 -2930.561)">
				<stop  offset="0" style="stop-color:#FFFFFF"/>
				<stop  offset="0.311" style="stop-color:#D7E3F5"/>
				<stop  offset="0.7745" style="stop-color:#A1B1CA"/>
				<stop  offset="1" style="stop-color:#8C9DB3"/>
			</linearGradient>
			<path fill="url(#SVGID_15_)" d="M64.425,140.587c10.068,4.858,20.234,9.677,29.562,14.181c2.295,3.965,2.739,7.123,4.812,11.688
				c1.355,2.979,10.385,7.176,12.014,7.759l0.275-0.666c0,0-9.949-4.267-11.439-7.546c-2.072-4.562-2.517-7.719-4.81-11.688
				c-9.329-4.502-19.497-9.317-29.562-14.181c-21.4-9.087-26.333-3.438-26.333-3.438s0.164,0.08,0.468,0.229
				C43.365,136.368,46.872,133.132,64.425,140.587z"/>
			
				<linearGradient id="SVGID_16_" gradientUnits="userSpaceOnUse" x1="-2237.8076" y1="2149.7695" x2="-2238.2749" y2="2190.8997" gradientTransform="matrix(0.8004 -0.5995 0.5995 0.8004 572.9163 -2930.561)">
				<stop  offset="0" style="stop-color:#D9D9D9"/>
				<stop  offset="0.1127" style="stop-color:#C1C1C1"/>
				<stop  offset="0.5466" style="stop-color:#6A6A6A"/>
				<stop  offset="0.8523" style="stop-color:#343434"/>
				<stop  offset="1" style="stop-color:#1F1F1F"/>
			</linearGradient>
			<path fill="url(#SVGID_16_)" d="M89.937,154.605c0.568,0.759,0.273,1.938-0.656,2.636c-0.93,0.694-2.145,0.646-2.712-0.111
				c-0.569-0.757-0.272-1.937,0.657-2.633C88.155,153.8,89.368,153.852,89.937,154.605z"/>
			
				<linearGradient id="SVGID_17_" gradientUnits="userSpaceOnUse" x1="-2232.5752" y1="2159.7949" x2="-2238.0381" y2="2179.2268" gradientTransform="matrix(0.8004 -0.5995 0.5995 0.8004 572.9163 -2930.561)">
				<stop  offset="0" style="stop-color:#D9D9D9"/>
				<stop  offset="0.1127" style="stop-color:#C1C1C1"/>
				<stop  offset="0.5466" style="stop-color:#6A6A6A"/>
				<stop  offset="0.8523" style="stop-color:#343434"/>
				<stop  offset="1" style="stop-color:#1F1F1F"/>
			</linearGradient>
			<polygon fill="url(#SVGID_17_)" points="89.796,155.2 86.397,155.991 86.522,156.287 89.968,155.559 			"/>
			
				<linearGradient id="SVGID_18_" gradientUnits="userSpaceOnUse" x1="-2220.6172" y1="2150.9902" x2="-2255.7227" y2="2177.5979" gradientTransform="matrix(0.8004 -0.5995 0.5995 0.8004 572.9163 -2930.561)">
				<stop  offset="0" style="stop-color:#D9D9D9"/>
				<stop  offset="0.1127" style="stop-color:#C1C1C1"/>
				<stop  offset="0.5466" style="stop-color:#6A6A6A"/>
				<stop  offset="0.8523" style="stop-color:#343434"/>
				<stop  offset="1" style="stop-color:#1F1F1F"/>
			</linearGradient>
			<path fill="url(#SVGID_18_)" d="M109.348,176.943c0,0-5.955-2.812-8.229-4.245c-1.827-1.15-3.271-1.949-4.726-3.716
				c-3.636-4.418-5.568-6.467-10.32-8.752c-19.451-9.353-42.899-21.58-46.384-23.256c-0.683,0.104-1.497-0.229-1.497-0.229
				s26.087,13.497,46.707,23.409c4.752,2.285,7.211,4.371,10.846,8.789c1.455,1.767,2.828,2.945,4.656,4.099
				c2.277,1.435,8.889,4.487,8.889,4.487l2.44,0.08l0.974-2.695l-0.396-0.448l-0.927,2.488L109.348,176.943z"/>
		</g>
		
			<linearGradient id="SVGID_19_" gradientUnits="userSpaceOnUse" x1="324.1523" y1="1233.2148" x2="277.4445" y2="1336.6902" gradientTransform="matrix(1 0 0 1 -191.4224 -1207.0234)">
			<stop  offset="0" style="stop-color:#FF0000"/>
			<stop  offset="0.1674" style="stop-color:#F60000"/>
			<stop  offset="0.4388" style="stop-color:#DE0000"/>
			<stop  offset="0.7785" style="stop-color:#B70000"/>
			<stop  offset="1" style="stop-color:#9A0000"/>
		</linearGradient>
		<path fill="url(#SVGID_19_)" d="M37.973,55.087c-8,7.23-8.341,18.638-0.761,25.477l86.968,78.48
			c7.579,6.84,20.209,6.521,28.209-0.709l4.069-3.68c5.646-5.104,7.478-12.289,5.401-18.479c-0.865-2.58-3.685-8.404-5.911-10.416
			L70.253,50.696c-7.58-6.839-20.209-6.521-28.208,0.711L37.973,55.087z"/>
		
			<linearGradient id="SVGID_20_" gradientUnits="userSpaceOnUse" x1="322.8115" y1="1232.7764" x2="256.23" y2="1380.2792" gradientTransform="matrix(1 0 0 1 -191.5 -1207)">
			<stop  offset="0" style="stop-color:#FF0000"/>
			<stop  offset="0.1674" style="stop-color:#F60000"/>
			<stop  offset="0.4388" style="stop-color:#DE0000"/>
			<stop  offset="0.7785" style="stop-color:#B70000"/>
			<stop  offset="1" style="stop-color:#9A0000"/>
		</linearGradient>
		<path fill="url(#SVGID_20_)" d="M40.337,53.515c-7.682,6.941-8.009,17.893-0.731,24.459l83.496,75.35
			c7.277,6.564,19.402,6.26,27.084-0.682l3.908-3.533c7.68-6.942,8.008-17.896,0.73-24.461L71.328,49.298
			c-7.276-6.566-19.402-6.261-27.083,0.682L40.337,53.515z"/>
		
			<linearGradient id="SVGID_21_" gradientUnits="userSpaceOnUse" x1="260.6963" y1="1366.459" x2="329.32" y2="1226.6835" gradientTransform="matrix(1 0 0 1 -191.5 -1207)">
			<stop  offset="0" style="stop-color:#FF0000"/>
			<stop  offset="0.1674" style="stop-color:#F60000"/>
			<stop  offset="0.4388" style="stop-color:#DE0000"/>
			<stop  offset="0.7785" style="stop-color:#B70000"/>
			<stop  offset="1" style="stop-color:#9A0000"/>
		</linearGradient>
		<path fill="url(#SVGID_21_)" d="M154.096,145.55l-3.908,3.533c-7.683,6.94-19.808,7.246-27.084,0.681L39.606,74.415
			c-3.029-2.732-4.721-6.228-5.133-9.874c-0.562,4.872,1.126,9.817,5.133,13.433l83.496,75.35c7.277,6.564,19.402,6.26,27.084-0.682
			l3.908-3.533c4.484-4.053,6.441-9.471,5.863-14.588C159.499,138.499,157.546,142.43,154.096,145.55z"/>
		<path fill="#534F50" d="M144.8,54.045c0,0.457-0.37,0.827-0.827,0.827h-16.347c-0.457,0-0.828-0.37-0.828-0.827l0,0
			c0-0.457,0.371-0.827,0.828-0.827h16.347C144.43,53.218,144.8,53.588,144.8,54.045L144.8,54.045z"/>
		<path fill="#534F50" d="M99.626,32.952c0.148,0.434-0.082,0.903-0.515,1.051l-15.466,5.293c-0.432,0.146-0.902-0.084-1.051-0.516
			l0,0c-0.148-0.432,0.082-0.902,0.516-1.051l15.465-5.292C99.008,32.29,99.479,32.521,99.626,32.952L99.626,32.952z"/>
		<path fill="#534F50" d="M66.083,64.751c0.371,3.184-2.262,5.914-5.881,6.1c-3.621,0.186-6.855-2.246-7.228-5.43
			c-0.372-3.185,2.261-5.915,5.881-6.102C62.476,59.136,65.711,61.566,66.083,64.751z"/>
		
			<linearGradient id="SVGID_22_" gradientUnits="userSpaceOnUse" x1="-254.3672" y1="1595.6699" x2="-251.5752" y2="1597.1266" gradientTransform="matrix(1.0593 -0.0542 0.1096 0.9385 154.2894 -1446.1616)">
			<stop  offset="0" style="stop-color:#FFFFFF"/>
			<stop  offset="0.41" style="stop-color:#C1C1C1"/>
			<stop  offset="0.8078" style="stop-color:#8A8A8A"/>
			<stop  offset="1" style="stop-color:#757575"/>
		</linearGradient>
		<path fill="url(#SVGID_22_)" d="M63.829,64.866c0.244,2.09-1.482,3.881-3.858,4.003s-4.499-1.474-4.743-3.563
			c-0.244-2.089,1.483-3.882,3.859-4.004C61.462,61.181,63.586,62.776,63.829,64.866z"/>
	</g>
</g>
</svg>
