<?xml version="1.0" encoding="utf-8"?>
<!-- Generator: Adobe Illustrator 15.0.0, SVG Export Plug-In . SVG Version: 6.00 Build 0)  -->
<!DOCTYPE svg PUBLIC "-//W3C//DTD SVG 1.1//EN" "http://www.w3.org/Graphics/SVG/1.1/DTD/svg11.dtd">
<svg version="1.1" id="Layer_1" xmlns="http://www.w3.org/2000/svg" xmlns:xlink="http://www.w3.org/1999/xlink" x="0px" y="0px"
	 width="200px" height="200px" viewBox="0 0 200 200" enable-background="new 0 0 200 200" xml:space="preserve">
<g id="icon">
	<g id="Layer_2">
	</g>
	<g>
		
			<linearGradient id="SVGID_1_" gradientUnits="userSpaceOnUse" x1="-91.9995" y1="-821.6494" x2="-109.473" y2="-836.4048" gradientTransform="matrix(0.9866 -0.1632 -0.1632 -0.9866 112.602 -792.599)">
			<stop  offset="0" style="stop-color:#E1F2FF"/>
			<stop  offset="1" style="stop-color:#7286A2"/>
		</linearGradient>
		<path fill="url(#SVGID_1_)" d="M113.143,166.27c0,0-20.804-43.713-30.71-60.498c-1.612-2.729-1.745-4.479-6.996-2.846
			c-3.921,1.213-8.033,1.502-12.149,1.25c-21.198-1.305-33.474-19.259-29.491-41.834c0.567-3.213,2.203-5.654,3.394-8.613
			c0.249-0.617,0.986-1.184,1.8-1.112c0.489,0.042,8.518,0.557,8.518,0.557c1.58,2.192-3.449,5.554-1.487,8.484
			c3.578,5.336,6.933,10.517,6.933,10.517c0.539,0.748,1.877,1.027,2.749,1.079c0.87,0.057,7.704,0.868,12.758,0.716
			c0.642-0.084,11.338-8.799,11.604-9.87c1.102-4.663,2.298-11.454,2.636-13.443c0.175-0.94,0.01-1.909-0.538-2.668
			c0,0-8.778-12.194-13.181-18.312c-1.145-1.584,0.066-2.812,0.872-3.221c1.327-0.671,3.108-1.09,5.023-1.27
			c1.247-0.117,2.554-0.133,3.828-0.052c3.254,0.199,9.903,0.662,9.903,0.662c15.625,4.901,23.652,20.751,20.275,39.862
			c-0.8,4.53-2.263,8.847-4.258,12.841c-2.666,4.826-1.35,5.869,0.729,8.231c12.688,14.477,43.188,49.637,43.188,49.637
			c6.276,8.729,3.92,22.104-5.271,29.865l-6.322,7.627c0,0-6.971,0.121-12.481-0.709C120.012,172.482,115.952,170.17,113.143,166.27
			z"/>
		<path fill="#CADCED" d="M121.604,166.816c0,0-20.804-43.713-30.711-60.498c-1.611-2.729-1.744-4.48-6.998-2.846
			c-3.92,1.215-8.032,1.504-12.147,1.252c-21.199-1.31-33.476-19.262-29.49-41.835c0.566-3.214,2.201-5.655,3.392-8.613
			c0.397-0.986,2.049-1.845,3.257-0.171c4.457,6.185,12.507,18.617,12.507,18.617c0.54,0.749,1.878,1.026,2.748,1.079
			c0.872,0.056,7.707,0.867,12.76,0.715c0.642-0.084,11.336-8.798,11.603-9.869c1.101-4.664,2.3-11.453,2.637-13.444
			c0.173-0.94,0.009-1.908-0.539-2.667c0,0-8.776-12.194-13.181-18.312c-1.143-1.583,0.067-2.812,0.873-3.221
			c2.19-1.112,5.619-1.525,8.852-1.323c21.193,1.302,34.168,17.946,30.182,40.524c-0.803,4.531-2.267,8.847-4.261,12.84
			c-2.666,4.827-1.351,5.871,0.728,8.232c12.688,14.476,43.189,49.638,43.189,49.638c6.279,8.727,3.919,22.102-5.271,29.865
			l-2.09,1.762C140.438,176.316,127.891,175.547,121.604,166.816z"/>
		
			<linearGradient id="SVGID_2_" gradientUnits="userSpaceOnUse" x1="271.9707" y1="743.5098" x2="207.4702" y2="715.5095" gradientTransform="matrix(1 0 0 1 -100 -591)">
			<stop  offset="0" style="stop-color:#FDFDFD"/>
			<stop  offset="0.5869" style="stop-color:#F7F6F6;stop-opacity:0.61"/>
			<stop  offset="1" style="stop-color:#FFFFFF;stop-opacity:0"/>
		</linearGradient>
		<path fill="url(#SVGID_2_)" d="M130.025,172.441c5.389,0.674,12.133-0.609,17.06-4.734l2.08-1.738
			c9.153-7.658,11.461-20.887,5.149-29.535c0,0-26.893-29.865-41.992-46.88l2.26-0.096c14.587,16.435,41.747,47.188,41.747,47.188
			c6.312,8.646,4.003,21.877-5.149,29.535l-2.08,1.738C143.282,172.789,136.109,174.238,130.025,172.441z"/>
		
			<linearGradient id="SVGID_3_" gradientUnits="userSpaceOnUse" x1="-3260.1514" y1="63.9326" x2="-3236.8669" y2="48.2118" gradientTransform="matrix(0.6006 0.6444 0.9278 -0.4661 1943.9255 2193.0466)">
			<stop  offset="0" style="stop-color:#FFFFFF;stop-opacity:0"/>
			<stop  offset="0.3214" style="stop-color:#FFFFFF;stop-opacity:0.54"/>
			<stop  offset="0.3491" style="stop-color:#FAFAFA"/>
			<stop  offset="0.3516" style="stop-color:#FFFFFF"/>
			<stop  offset="0.5246" style="stop-color:#FDFDFD"/>
			<stop  offset="0.5869" style="stop-color:#F7F6F6;stop-opacity:0.61"/>
			<stop  offset="1" style="stop-color:#FFFFFF;stop-opacity:0"/>
		</linearGradient>
		<path fill="url(#SVGID_3_)" d="M38.707,53.625l5.93-0.046c0,0-4.515,12.389-2.467,25.067c1.744,10.8,12.765,18.767,12.765,18.767
			s-0.03,5.132-5.99,1.926C43.223,96.263,37.75,87.23,35.594,79.722C31.429,65.23,38.707,53.625,38.707,53.625z"/>
		
			<linearGradient id="SVGID_4_" gradientUnits="userSpaceOnUse" x1="-4492.6465" y1="-2653.6479" x2="-4505.7271" y2="-2685.8037" gradientTransform="matrix(-0.3252 0.8658 -1.0727 -0.2193 -4250.5547 3349.699)">
			<stop  offset="0" style="stop-color:#E1F2FF"/>
			<stop  offset="1" style="stop-color:#7286A2"/>
		</linearGradient>
		<polygon fill="url(#SVGID_4_)" points="82.45,48.416 68.883,28.976 76.727,29.915 77.791,30.762 90.955,49.795 		"/>
		
			<linearGradient id="SVGID_5_" gradientUnits="userSpaceOnUse" x1="-4460.4595" y1="-2662.1836" x2="-4473.0718" y2="-2693.1887" gradientTransform="matrix(-0.3252 0.8658 -1.0727 -0.2193 -4250.5547 3349.699)">
			<stop  offset="0" style="stop-color:#E1F2FF"/>
			<stop  offset="1" style="stop-color:#7286A2"/>
		</linearGradient>
		<polygon fill="url(#SVGID_5_)" points="79.769,64.637 68.87,73.981 76.709,73.695 86.865,65.788 		"/>
		
			<linearGradient id="SVGID_6_" gradientUnits="userSpaceOnUse" x1="-3111.4971" y1="-157.9697" x2="-3099.7495" y2="-161.5047" gradientTransform="matrix(0.5867 0.7149 0.9449 -0.5531 2097.3594 2299.187)">
			<stop  offset="0" style="stop-color:#FFFFFF;stop-opacity:0"/>
			<stop  offset="0.362" style="stop-color:#FFFFFF;stop-opacity:0.54"/>
			<stop  offset="0.4479" style="stop-color:#FDFDFD"/>
			<stop  offset="0.5399" style="stop-color:#F7F6F6;stop-opacity:0.61"/>
			<stop  offset="1" style="stop-color:#FFFFFF;stop-opacity:0"/>
		</linearGradient>
		<path fill="url(#SVGID_6_)" d="M105.971,150.561l6.908-2.744c0,0,4.411,9.929,7.555,15.978
			c5.916,11.396,18.321,8.692,18.321,8.692s-6.038,1.486-11.666,0.412c-5.627-1.078-11.077-1.774-14.016-8.028
			C109.234,156.689,105.971,150.561,105.971,150.561z"/>
		<path fill="#CADCED" d="M143.391,158.182c8.227-8.713,3.688-15.385,3.1-16.156l-39.588-47.539
			c-1.146-1.492-3.344-1.832-4.896-0.762l-3.168,2.183c-1.555,1.078-1.889,3.155-0.739,4.652l31.243,56.346
			C129.904,157.641,135.723,165.406,143.391,158.182z"/>
		
			<linearGradient id="SVGID_7_" gradientUnits="userSpaceOnUse" x1="-4487.4922" y1="-2807.1138" x2="-4369.73" y2="-2692.7817" gradientTransform="matrix(-0.3252 0.8658 -1.0727 -0.2193 -4250.5547 3349.699)">
			<stop  offset="0" style="stop-color:#E1F2FF"/>
			<stop  offset="1" style="stop-color:#657486;stop-opacity:0.6"/>
		</linearGradient>
		<path fill="url(#SVGID_7_)" d="M147.329,141.789c0.511,0.66,3.211,4.637,1.067,10.352l0,0c-0.736,1.961-2.045,4.117-4.195,6.396
			l-0.508-0.295l0.482,0.318l0,0c-3.095,2.942-6.176,3.604-8.65,3.086l0,0c-3.787-0.799-6.059-3.941-6.43-4.396L97.83,100.869l0,0
			c-0.79-1.033-0.948-2.332-0.522-3.475l0,0c0.258-0.688,0.734-1.323,1.43-1.802l3.167-2.186l0,0
			c0.986-0.686,2.244-0.899,3.367-0.665l0,0c0.987,0.202,1.877,0.733,2.485,1.528L147.329,141.789L147.329,141.789z M98.536,97.643
			l-0.001,0.008l0,0c-0.323,0.86-0.203,1.883,0.42,2.689l31.268,56.381l0,0c0.289,0.405,2.563,3.319,5.676,3.936l0,0
			c1.985,0.387,4.36,0.012,7.293-2.711l0,0c2.062-2.184,3.291-4.223,3.979-6.057l0,0c2.005-5.318-0.542-9.021-0.928-9.521
			l-39.57-47.52l0,0c-0.479-0.62-1.116-0.983-1.771-1.115l0,0c-0.75-0.149-1.514-0.025-2.182,0.435l-3.172,2.184l0,0
			C99.077,96.676,98.73,97.127,98.536,97.643L98.536,97.643z"/>
		
			<linearGradient id="SVGID_8_" gradientUnits="userSpaceOnUse" x1="-4413.707" y1="-2734.6431" x2="-4408.9985" y2="-2730.2114" gradientTransform="matrix(-0.3252 0.8658 -1.0727 -0.2193 -4250.5547 3349.699)">
			<stop  offset="0" style="stop-color:#FFFFFF;stop-opacity:0"/>
			<stop  offset="0.3214" style="stop-color:#FFFFFF;stop-opacity:0.54"/>
			<stop  offset="0.3491" style="stop-color:#FAFAFA"/>
			<stop  offset="0.3516" style="stop-color:#FFFFFF"/>
			<stop  offset="0.5246" style="stop-color:#FDFDFD"/>
			<stop  offset="0.5869" style="stop-color:#F7F6F6;stop-opacity:0.61"/>
			<stop  offset="1" style="stop-color:#FFFFFF;stop-opacity:0"/>
		</linearGradient>
		<path fill="url(#SVGID_8_)" d="M145.609,141.971c0.511,0.658,3.209,4.639,1.07,10.354l0,0c-0.738,1.959-2.051,4.114-4.199,6.396
			l-0.504-0.297l0.479,0.32l0,0c-3.094,2.943-6.174,3.605-8.648,3.084l0,0c-3.787-0.799-6.059-3.943-6.43-4.395L96.11,101.052l0,0
			c-0.792-1.035-0.948-2.333-0.522-3.478l0,0c0.26-0.688,0.735-1.322,1.426-1.804l3.168-2.183l0,0
			c0.986-0.686,2.246-0.897,3.371-0.666l0,0c0.988,0.201,1.877,0.734,2.483,1.527L145.609,141.971L145.609,141.971z M96.817,97.827
			c0,0.002-0.003,0.007-0.003,0.007l0,0c-0.323,0.86-0.2,1.882,0.422,2.688l31.269,56.381l0,0c0.287,0.402,2.562,3.32,5.675,3.935
			l0,0c1.985,0.392,4.363,0.015,7.293-2.705l0,0c2.062-2.188,3.291-4.223,3.979-6.062l0,0c2.004-5.317-0.544-9.02-0.931-9.518
			L104.95,95.03l0,0c-0.478-0.622-1.115-0.98-1.771-1.115l0,0c-0.754-0.15-1.515-0.026-2.186,0.433l-3.166,2.183l0,0
			C97.359,96.857,97.011,97.307,96.817,97.827L96.817,97.827z"/>
		
			<linearGradient id="SVGID_9_" gradientUnits="userSpaceOnUse" x1="-169.832" y1="-803.6099" x2="-170.8885" y2="-806.5872" gradientTransform="matrix(0.9866 -0.1632 -0.1632 -0.9866 112.602 -792.599)">
			<stop  offset="0" style="stop-color:#FFFFFF;stop-opacity:0"/>
			<stop  offset="0.362" style="stop-color:#FFFFFF;stop-opacity:0.54"/>
			<stop  offset="0.4479" style="stop-color:#FDFDFD"/>
			<stop  offset="0.5399" style="stop-color:#F7F6F6;stop-opacity:0.61"/>
			<stop  offset="1" style="stop-color:#FFFFFF;stop-opacity:0"/>
		</linearGradient>
		<path fill="url(#SVGID_9_)" d="M73.814,25.315c0,0-4.605,0.437-4.601,2.702c0.002,2.265,1.867,4.581,1.867,4.581l7.887-0.17
			c0,0-2.775-2.268-1.987-3.663c0.788-1.393,6.629-3.13,6.629-3.13S76.231,25.284,73.814,25.315z"/>
	</g>
</g>
</svg>
