<?xml version="1.0" encoding="utf-8"?>
<!-- Generator: Adobe Illustrator 15.0.0, SVG Export Plug-In . SVG Version: 6.00 Build 0)  -->
<!DOCTYPE svg PUBLIC "-//W3C//DTD SVG 1.1//EN" "http://www.w3.org/Graphics/SVG/1.1/DTD/svg11.dtd">
<svg version="1.1" id="Layer_1" xmlns="http://www.w3.org/2000/svg" xmlns:xlink="http://www.w3.org/1999/xlink" x="0px" y="0px"
	 width="200px" height="200px" viewBox="0 0 200 200" enable-background="new 0 0 200 200" xml:space="preserve">
<g id="icon">
	<g id="Layer_2">
	</g>
	<g>
		<path fill="#849AB2" d="M161.501,24.098L69.963,89.609l28.263,40.858l-4.473,9.275l14.365,5.518l-0.2-11.986l9.35-0.014
			l-0.256-11.986l9.405-0.014l-0.017-11.281l9.168-0.08l-0.021-13.332l9.166-0.08l-0.02-11.92l9.166-0.079l-0.019-11.92l8.691-0.079
			c0,0-0.015-8.277-0.019-12.272c2.816-0.005,9.746-0.014,9.746-0.014l-0.121-12.34l2.516-3.258L161.501,24.098z"/>
		
			<linearGradient id="SVGID_1_" gradientUnits="userSpaceOnUse" x1="343.8691" y1="1287.9531" x2="294.4892" y2="1298.0042" gradientTransform="matrix(1 -0.0014 0.0014 1 -193.2423 -1206.4043)">
			<stop  offset="0" style="stop-color:#FFFFFF;stop-opacity:0"/>
			<stop  offset="0.319" style="stop-color:#CAF0FF;stop-opacity:0.3061"/>
			<stop  offset="0.4356" style="stop-color:#DBF5FF;stop-opacity:0.5258"/>
			<stop  offset="0.4785" style="stop-color:#F2FBFF;stop-opacity:0.825"/>
			<stop  offset="0.5231" style="stop-color:#FFFFFF"/>
			<stop  offset="0.589" style="stop-color:#E2F0FF;stop-opacity:0.5654"/>
			<stop  offset="0.7055" style="stop-color:#D2E8FF;stop-opacity:0.3348"/>
			<stop  offset="1" style="stop-color:#FFFFFF;stop-opacity:0"/>
		</linearGradient>
		<path fill="url(#SVGID_1_)" d="M161.501,24.098L69.963,89.609l28.263,40.858l-4.473,9.275l14.365,5.518l-0.2-11.986l9.35-0.014
			l-0.256-11.986l9.405-0.014l-0.017-11.281l9.168-0.08l-0.021-13.332l9.166-0.08l-0.02-11.92l9.166-0.079l-0.019-11.92l8.691-0.079
			c0,0-0.015-8.277-0.019-12.272c2.816-0.005,9.746-0.014,9.746-0.014l-0.121-12.34l2.516-3.258L161.501,24.098z"/>
		
			<linearGradient id="SVGID_2_" gradientUnits="userSpaceOnUse" x1="168.7607" y1="1302.2559" x2="200.027" y2="1317.3958" gradientTransform="matrix(1 -0.0014 0.0014 1 -193.2423 -1206.4043)">
			<stop  offset="0" style="stop-color:#FAC28D"/>
			<stop  offset="1" style="stop-color:#7C5320"/>
		</linearGradient>
		<path fill="url(#SVGID_2_)" d="M72.787,92.894c-9.159,6.045-39.853,22.424-48.849,31.893c-1.563,1.648,1.123,1.639,2.362,4.135
			c2.905,1.068,6.635-2.154,11.281-0.721c5.03,1.551,10.661,11.811,14.832,17.605c5.25,7.295,12.004,14.209,11.312,21.139
			c-0.22,2.197-5.026,10.621-3.482,15.182c0.686,2.025,2.647,4.908,4.911,3.26c6.216-4.359,11.152-8.477,16.349-12.672
			C89.947,161,96.188,144.5,101.05,133.752C94.857,122.297,82.686,103.918,72.787,92.894z M71.992,153.682
			c-5.007-0.235-8.416-7.516-12.176-12.717c-2.909-4.029-8.723-10.211-8.614-15.545c0.102-4.943,6.321-8.988,10.315-9.928
			c7.796-1.83,10.667,6.523,15.068,12.715c3.572,5.025,9.551,10.141,8.705,15.617C84.625,148.125,76.037,153.873,71.992,153.682z"/>
		
			<linearGradient id="SVGID_3_" gradientUnits="userSpaceOnUse" x1="249.3242" y1="1324.3613" x2="277.8356" y2="1427.0029" gradientTransform="matrix(1 -0.0014 0.0014 1 -193.2423 -1206.4043)">
			<stop  offset="0" style="stop-color:#FAC28D"/>
			<stop  offset="1" style="stop-color:#7C5320"/>
		</linearGradient>
		<path fill="url(#SVGID_3_)" d="M69.963,89.609c-9.159,6.044-29.125,18.719-38.742,27.555c-2.715,2.492-7.877,4.621-7.744,8.473
			c2.904,1.068,6.635-2.154,11.28-0.721c5.031,1.551,10.662,11.809,14.833,17.605c5.25,7.295,12.004,14.209,11.312,21.139
			c-0.391,3.912-3.736,22.207,1.43,18.439c6.216-4.357,11.152-8.479,16.349-12.676c8.443-11.713,14.685-28.213,19.546-38.961
			C92.032,119.01,79.861,100.631,69.963,89.609z M69.168,150.396c-5.007-0.236-8.416-7.521-12.176-12.717
			c-2.909-4.029-9.391-9.703-9.281-15.037c0.101-4.943,6.986-9.496,10.982-10.438c7.796-1.83,10.667,6.521,15.068,12.713
			c3.573,5.024,9.551,10.146,8.705,15.617C81.801,144.838,73.213,150.586,69.168,150.396z"/>
		
			<linearGradient id="SVGID_4_" gradientUnits="userSpaceOnUse" x1="181.4229" y1="1290.5986" x2="211.1551" y2="1304.9957" gradientTransform="matrix(1 -0.0014 0.0014 1 -193.2423 -1206.4043)">
			<stop  offset="0" style="stop-color:#FAC28D"/>
			<stop  offset="1" style="stop-color:#7C5320"/>
		</linearGradient>
		<polygon fill="url(#SVGID_4_)" points="98.226,130.467 100.151,132.117 96.059,140.627 94.118,139.883 		"/>
	</g>
</g>
</svg>
