<?xml version="1.0" encoding="utf-8"?>
<!-- Generator: Adobe Illustrator 15.0.0, SVG Export Plug-In . SVG Version: 6.00 Build 0)  -->
<!DOCTYPE svg PUBLIC "-//W3C//DTD SVG 1.1//EN" "http://www.w3.org/Graphics/SVG/1.1/DTD/svg11.dtd">
<svg version="1.1" id="Layer_1" xmlns="http://www.w3.org/2000/svg" xmlns:xlink="http://www.w3.org/1999/xlink" x="0px" y="0px"
	 width="200px" height="200px" viewBox="0 0 200 200" enable-background="new 0 0 200 200" xml:space="preserve">
<g id="icon">
	<g id="Layer_2">
	</g>
	<g>
		<g>
			
				<linearGradient id="SVGID_1_" gradientUnits="userSpaceOnUse" x1="211.6562" y1="-582.6934" x2="229.7849" y2="-597.0105" gradientTransform="matrix(1 0 0 -1 -150 -530)">
				<stop  offset="0.097" style="stop-color:#FFFFFF"/>
				<stop  offset="0.2258" style="stop-color:#F9F9FA"/>
				<stop  offset="0.3987" style="stop-color:#E8E8EA"/>
				<stop  offset="0.5967" style="stop-color:#CDCCD1"/>
				<stop  offset="0.8117" style="stop-color:#A6A5AE"/>
				<stop  offset="1" style="stop-color:#7F7D8A"/>
			</linearGradient>
			<path fill="url(#SVGID_1_)" d="M75.169,96.599c-2.481-0.004-4.747-1.75-5.516-4.246l-9.324-30.632
				c-0.456-1.501-0.321-3.028,0.384-4.298c0.679-1.228,3.619-5.897,3.619-5.897l30.616-4.874c0.37-0.068,0.756-0.097,1.138-0.084
				c2.483,0.088,4.75,1.865,5.52,4.324l10.812,31.447c0,0-2.71,4.332-3.414,5.563c-0.137,0.238-0.291,0.459-0.456,0.666
				c-0.68,0.828-1.614,1.396-2.713,1.632L76.31,96.468C75.937,96.554,75.553,96.599,75.169,96.599z"/>
		</g>
		<g>
			
				<linearGradient id="SVGID_2_" gradientUnits="userSpaceOnUse" x1="236.04" y1="-589.4209" x2="247.6387" y2="-629.7523" gradientTransform="matrix(1 0 0 -1 -150 -530)">
				<stop  offset="0.097" style="stop-color:#FFFFFF"/>
				<stop  offset="0.2258" style="stop-color:#F9F9FA"/>
				<stop  offset="0.3987" style="stop-color:#E8E8EA"/>
				<stop  offset="0.5967" style="stop-color:#CDCCD1"/>
				<stop  offset="0.8117" style="stop-color:#A6A5AE"/>
				<stop  offset="1" style="stop-color:#7F7D8A"/>
			</linearGradient>
			<path fill="url(#SVGID_2_)" d="M78.584,91.038c-2.48,0-4.749-1.749-5.516-4.248l-9.325-30.629
				c-0.454-1.5-0.321-3.029,0.382-4.302c0.683-1.224,1.805-2.052,3.17-2.331l29.526-5.79c0.371-0.067,0.754-0.098,1.136-0.084
				c2.483,0.087,4.754,1.868,5.518,4.323l9.326,30.234c0.454,1.434,0.317,2.896-0.386,4.127c-0.677,1.189-1.802,2.007-3.167,2.301
				l-29.523,6.27C79.351,90.993,78.969,91.038,78.584,91.038z"/>
		</g>
		<g opacity="0.57">
			<path fill="#FFFFFF" d="M97.771,44.85c0.048,0,0.098,0,0.145,0.003c1.98,0.07,3.798,1.505,4.417,3.484l9.325,30.236
				c0.354,1.111,0.253,2.236-0.282,3.173c-0.508,0.892-1.353,1.505-2.388,1.722l-29.532,6.273c-0.279,0.064-0.574,0.099-0.868,0.099
				c-1.962,0-3.758-1.399-4.371-3.401l-9.326-30.62c-0.359-1.192-0.261-2.392,0.286-3.377c0.505-0.916,1.346-1.535,2.351-1.735
				l29.516-5.789C97.28,44.87,97.524,44.85,97.771,44.85 M97.771,43.654c-0.32,0-0.64,0.028-0.949,0.084l-29.526,5.79
				c-1.365,0.279-2.487,1.107-3.17,2.331c-0.703,1.272-0.836,2.802-0.382,4.302l9.325,30.629c0.767,2.499,3.035,4.248,5.516,4.248
				c0.003,0,0.005,0,0.006,0c0.381,0,0.763-0.045,1.135-0.129l29.523-6.27c1.366-0.294,2.489-1.111,3.167-2.301
				c0.703-1.231,0.84-2.693,0.387-4.127l-9.326-30.234c-0.765-2.455-3.035-4.236-5.519-4.323
				C97.896,43.654,97.832,43.654,97.771,43.654L97.771,43.654z"/>
		</g>
		<path d="M91.011,64.126c0.211,0.989,0.402,3.332,0.575,7.031c0.022,0.337,0.326,2.564,0.91,6.682
			c0.384,2.766,0.347,4.358-0.109,4.778c-1.011,0.526-1.697,0.829-2.061,0.906c-0.532,0.113-0.96,0.048-1.285-0.194
			c-0.861-0.977-2.115-2.335-3.763-4.07c-0.186,0.459-0.438,1.404-0.757,2.837c-0.248,1.175-0.588,2.091-1.023,2.75
			c-0.613,0.188-1.255,0.086-1.924-0.308c-0.604-0.359-1.064-0.852-1.383-1.477c-0.148-0.29-0.601-1.451-1.355-3.485
			c-0.754-2.034-1.366-3.509-1.834-4.423c-0.393-0.795-0.89-1.995-1.49-3.603c-0.602-1.608-0.967-2.54-1.1-2.795
			c-0.031-0.053-0.21-0.37-0.539-0.953c-0.201-0.349-0.323-0.623-0.367-0.829c-0.054-0.252-0.012-0.471,0.124-0.655
			c0.296-0.396,0.743-0.656,1.34-0.783c0.309-0.065,0.522-0.042,0.645,0.069c0.788,0.679,1.946,2.798,3.474,6.354
			c0.169,0.384,0.441,0.886,0.818,1.509c0.4,0.646,0.87,1.57,1.408,2.772l0.818,1.917c-0.276-1.618-0.499-3.584-0.67-5.899
			c-0.199-2.63-0.232-4.642-0.1-6.035c0.084-0.34,0.336-0.554,0.755-0.644c0.401-0.085,0.736-0.024,1.005,0.182
			c0.465,0.398,0.811,0.852,1.035,1.359c0.196,0.465,0.368,1.044,0.515,1.733c0.117,0.551,0.254,1.41,0.409,2.576
			c0.155,1.165,0.289,2.011,0.4,2.533c0.147,0.69,0.348,1.312,0.602,1.861c0.557,1.198,1.228,1.968,2.012,2.308
			c0.187-0.04,0.301-0.303,0.344-0.791c0.002-0.36,0.008-0.718,0.021-1.07c-0.014-0.428-0.142-2.243-0.385-5.449
			c-0.177-2.391-0.222-4.317-0.133-5.78c0.041-0.817,0.077-1.332,0.11-1.543c0.077-0.553,0.216-0.93,0.418-1.129
			c0.175-0.095,0.341-0.161,0.5-0.194c0.597-0.128,1.103,0.117,1.517,0.73C90.743,63.28,90.918,63.688,91.011,64.126z"/>
		<g>
			
				<linearGradient id="SVGID_3_" gradientUnits="userSpaceOnUse" x1="275.4639" y1="-620.9956" x2="293.5889" y2="-635.3098" gradientTransform="matrix(0.9984 -0.0065 -4.000000e-04 -1.0016 -149.8176 -528.7274)">
				<stop  offset="0.097" style="stop-color:#FFFFFF"/>
				<stop  offset="0.2258" style="stop-color:#F9F9FA"/>
				<stop  offset="0.3987" style="stop-color:#E8E8EA"/>
				<stop  offset="0.5967" style="stop-color:#CDCCD1"/>
				<stop  offset="0.8117" style="stop-color:#A6A5AE"/>
				<stop  offset="1" style="stop-color:#7F7D8A"/>
			</linearGradient>
			<path fill="url(#SVGID_3_)" d="M138.954,135.345c-2.479,0.015-4.74-1.723-5.507-4.217l-9.321-30.619
				c-0.457-1.5-0.323-3.032,0.381-4.308c0.679-1.234,3.614-5.915,3.614-5.915l30.566-5.08c0.369-0.072,0.754-0.103,1.135-0.091
				c2.479,0.072,4.744,1.836,5.511,4.292l10.808,31.429c0,0-2.709,4.344-3.41,5.578c-0.137,0.241-0.289,0.464-0.453,0.673
				c-0.682,0.832-1.614,1.407-2.709,1.649l-29.478,6.472C139.723,135.294,139.337,135.342,138.954,135.345z"/>
		</g>
		<g>
			
				<linearGradient id="SVGID_4_" gradientUnits="userSpaceOnUse" x1="299.8408" y1="-627.7227" x2="311.4406" y2="-668.0574" gradientTransform="matrix(0.9984 -0.0065 -4.000000e-04 -1.0016 -149.8176 -528.7274)">
				<stop  offset="0.097" style="stop-color:#FFFFFF"/>
				<stop  offset="0.2258" style="stop-color:#F9F9FA"/>
				<stop  offset="0.3987" style="stop-color:#E8E8EA"/>
				<stop  offset="0.5967" style="stop-color:#CDCCD1"/>
				<stop  offset="0.8117" style="stop-color:#A6A5AE"/>
				<stop  offset="1" style="stop-color:#7F7D8A"/>
			</linearGradient>
			<path fill="url(#SVGID_4_)" d="M142.367,129.768c-2.479,0.021-4.744-1.721-5.51-4.22l-9.324-30.616
				c-0.452-1.498-0.32-3.033,0.381-4.311c0.682-1.231,1.801-2.066,3.165-2.356l29.479-5.99c0.369-0.067,0.752-0.103,1.135-0.091
				c2.478,0.072,4.744,1.841,5.51,4.294l9.32,30.223c0.455,1.432,0.316,2.898-0.383,4.136c-0.679,1.195-1.801,2.021-3.162,2.325
				l-29.475,6.469C143.132,129.718,142.751,129.766,142.367,129.768z"/>
		</g>
		<g opacity="0.57">
			<path fill="#FFFFFF" d="M161.506,83.382c0.049,0,0.098,0,0.145,0.003c1.979,0.058,3.791,1.481,4.412,3.464l9.319,30.219
				c0.354,1.111,0.255,2.238-0.278,3.181c-0.508,0.896-1.351,1.517-2.386,1.741l-29.483,6.474c-0.275,0.063-0.568,0.103-0.863,0.104
				c-1.958,0.014-3.754-1.377-4.365-3.377l-9.322-30.608c-0.359-1.191-0.264-2.394,0.282-3.383c0.505-0.921,1.345-1.548,2.349-1.756
				l29.467-5.988C161.016,83.407,161.259,83.382,161.506,83.382 M161.506,82.184c-0.32,0.004-0.641,0.033-0.947,0.091l-29.479,5.99
				c-1.364,0.29-2.482,1.125-3.165,2.356c-0.701,1.277-0.833,2.812-0.381,4.311l9.323,30.616c0.767,2.499,3.031,4.237,5.511,4.22
				c0.001,0,0.003,0,0.005,0c0.38-0.002,0.761-0.05,1.134-0.138l29.474-6.469c1.362-0.306,2.484-1.13,3.162-2.325
				c0.7-1.236,0.838-2.704,0.383-4.136l-9.319-30.223c-0.767-2.453-3.032-4.222-5.511-4.294
				C161.631,82.184,161.568,82.184,161.506,82.184L161.506,82.184z"/>
		</g>
		<path opacity="0.11" fill="#C2EBFF" enable-background="new    " d="M112.801,78.212l-9.326-30.234
			c-0.764-2.455-3.034-4.236-5.518-4.323c-0.061,0-0.125,0-0.187,0c-0.32,0-0.64,0.028-0.949,0.084l-29.526,5.79
			c-1.229,0.252-2.242,0.967-2.933,1.994l-0.03,0.003c0,0-2.94,4.67-3.619,5.897c-0.705,1.27-0.84,2.797-0.384,4.298l9.324,30.632
			c0.769,2.496,3.034,4.242,5.516,4.246c0.384,0,0.768-0.045,1.138-0.131l29.525-6.268c1.096-0.235,2.033-0.804,2.713-1.632
			c0.165-0.207,0.319-0.428,0.456-0.666c0.704-1.231,3.414-5.563,3.414-5.563C113.118,81.107,113.255,79.646,112.801,78.212z"/>
		<path d="M147.333,118.729c-1.642,1.181-3.296,2.16-4.963,2.943c-0.778-0.771-1.373-2.121-1.784-4.053
			c-0.068-0.326-0.167-0.83-0.292-1.51c-0.125-0.685-0.224-1.187-0.292-1.512c-0.152-0.72-0.312-1.328-0.479-1.83
			c-1.438-4.095-2.19-6.312-2.267-6.656c-0.383-1.801-0.575-2.734-0.582-2.803c-0.118-0.744-0.087-1.306,0.099-1.675
			c0.224-0.467,0.718-0.849,1.48-1.149c0.542-0.203,1.498-0.451,2.87-0.743c2.164-0.46,3.979,0.148,5.438,1.826
			c1.211,1.383,2.094,3.379,2.647,5.988c0.403,1.903,0.577,3.812,0.519,5.729c-0.156,1.737-0.457,3.026-0.903,3.864
			C148.529,117.693,148.032,118.219,147.333,118.729z M146.729,109.436c-0.181-0.85-0.553-1.799-1.117-2.848
			c-0.852-1.564-1.729-2.252-2.633-2.059c-0.445,0.096-0.935,0.379-1.457,0.852c-0.434,0.395-0.73,0.75-0.897,1.068
			c1.425,5.043,2.405,8.836,2.946,11.383c0.687,0.002,1.298-0.129,1.834-0.391C147.128,116.051,147.568,113.383,146.729,109.436z"/>
		<g>
			
				<linearGradient id="SVGID_5_" gradientUnits="userSpaceOnUse" x1="227.1904" y1="-631.5898" x2="245.3159" y2="-645.9044" gradientTransform="matrix(0.9984 -0.0065 -4.000000e-04 -1.0016 -149.8176 -528.7274)">
				<stop  offset="0.097" style="stop-color:#FFFFFF"/>
				<stop  offset="0.2258" style="stop-color:#F9F9FA"/>
				<stop  offset="0.3987" style="stop-color:#E8E8EA"/>
				<stop  offset="0.5967" style="stop-color:#CDCCD1"/>
				<stop  offset="0.8117" style="stop-color:#A6A5AE"/>
				<stop  offset="1" style="stop-color:#7F7D8A"/>
			</linearGradient>
			<path fill="url(#SVGID_5_)" d="M90.763,146.271c-2.479,0.015-4.741-1.725-5.508-4.217l-9.321-30.619
				c-0.456-1.5-0.323-3.031,0.382-4.311c0.677-1.232,3.613-5.914,3.613-5.914l30.566-5.08c0.37-0.072,0.755-0.103,1.136-0.091
				c2.479,0.072,4.744,1.836,5.512,4.292l10.809,31.428c0,0-2.709,4.346-3.41,5.579c-0.139,0.241-0.29,0.463-0.453,0.675
				c-0.684,0.83-1.615,1.405-2.709,1.647L91.9,146.134C91.529,146.223,91.145,146.27,90.763,146.271z"/>
		</g>
		<g>
			
				<linearGradient id="SVGID_6_" gradientUnits="userSpaceOnUse" x1="251.5674" y1="-638.3169" x2="263.1671" y2="-678.6517" gradientTransform="matrix(0.9984 -0.0065 -4.000000e-04 -1.0016 -149.8176 -528.7274)">
				<stop  offset="0.097" style="stop-color:#FFFFFF"/>
				<stop  offset="0.2258" style="stop-color:#F9F9FA"/>
				<stop  offset="0.3987" style="stop-color:#E8E8EA"/>
				<stop  offset="0.5967" style="stop-color:#CDCCD1"/>
				<stop  offset="0.8117" style="stop-color:#A6A5AE"/>
				<stop  offset="1" style="stop-color:#7F7D8A"/>
			</linearGradient>
			<path fill="url(#SVGID_6_)" d="M94.175,140.693c-2.478,0.02-4.744-1.719-5.51-4.219l-9.324-30.615
				c-0.452-1.498-0.32-3.034,0.381-4.312c0.681-1.23,1.801-2.066,3.165-2.355l29.479-5.99c0.37-0.068,0.753-0.103,1.135-0.091
				c2.478,0.072,4.744,1.841,5.511,4.294l9.319,30.223c0.456,1.433,0.319,2.897-0.382,4.136c-0.678,1.194-1.799,2.021-3.163,2.325
				l-29.472,6.47C94.939,140.646,94.56,140.691,94.175,140.693z"/>
		</g>
		<g opacity="0.57">
			<path fill="#FFFFFF" d="M113.312,94.31c0.049,0,0.099,0,0.145,0.003c1.979,0.058,3.791,1.481,4.412,3.464l9.32,30.219
				c0.354,1.111,0.254,2.238-0.279,3.181c-0.508,0.896-1.35,1.517-2.385,1.741l-29.483,6.473c-0.278,0.064-0.571,0.104-0.866,0.104
				c-1.958,0.014-3.754-1.376-4.365-3.377l-9.324-30.607c-0.359-1.19-0.262-2.394,0.284-3.384c0.504-0.92,1.344-1.547,2.347-1.756
				l29.467-5.987C112.823,94.335,113.066,94.31,113.312,94.31 M113.312,93.111c-0.32,0.003-0.642,0.033-0.947,0.091l-29.479,5.99
				c-1.364,0.289-2.484,1.125-3.165,2.355c-0.701,1.277-0.833,2.812-0.381,4.312l9.324,30.615c0.766,2.5,3.032,4.235,5.51,4.219
				h0.005c0.38-0.002,0.761-0.049,1.134-0.137l29.472-6.471c1.363-0.306,2.486-1.131,3.163-2.326
				c0.702-1.234,0.838-2.701,0.382-4.135l-9.32-30.223c-0.766-2.453-3.031-4.222-5.51-4.294
				C113.438,93.111,113.376,93.111,113.312,93.111L113.312,93.111z"/>
		</g>
		<path opacity="0.11" fill="#C2EBFF" enable-background="new    " d="M176.521,116.7l-9.319-30.223
			c-0.767-2.453-3.032-4.222-5.511-4.294c-0.062,0-0.123,0-0.188,0c-0.319,0.004-0.644,0.033-0.946,0.091l-29.479,5.99
			c-1.229,0.262-2.238,0.983-2.929,2.017l-0.029,0.005c0,0-2.938,4.681-3.614,5.915c-0.703,1.275-0.838,2.808-0.381,4.308
			l9.319,30.619c0.769,2.494,3.029,4.229,5.509,4.217c0.383-0.003,0.769-0.051,1.137-0.137l29.479-6.472
			c1.092-0.242,2.026-0.817,2.707-1.649c0.164-0.209,0.315-0.433,0.455-0.673c0.701-1.234,3.41-5.578,3.41-5.578
			C176.842,119.6,176.979,118.132,176.521,116.7z"/>
		<g>
			
				<linearGradient id="SVGID_7_" gradientUnits="userSpaceOnUse" x1="178.4424" y1="-641.3359" x2="196.5662" y2="-655.649" gradientTransform="matrix(0.9984 -0.0065 -4.000000e-04 -1.0016 -149.8176 -528.7274)">
				<stop  offset="0.097" style="stop-color:#FFFFFF"/>
				<stop  offset="0.2258" style="stop-color:#F9F9FA"/>
				<stop  offset="0.3987" style="stop-color:#E8E8EA"/>
				<stop  offset="0.5967" style="stop-color:#CDCCD1"/>
				<stop  offset="0.8117" style="stop-color:#A6A5AE"/>
				<stop  offset="1" style="stop-color:#7F7D8A"/>
			</linearGradient>
			<path fill="url(#SVGID_7_)" d="M42.097,156.35c-2.479,0.016-4.742-1.724-5.51-4.22l-9.32-30.614
				c-0.457-1.502-0.321-3.033,0.381-4.312c0.678-1.233,3.614-5.914,3.614-5.914l30.568-5.082c0.369-0.071,0.754-0.104,1.136-0.09
				c2.479,0.069,4.742,1.837,5.51,4.293L79.28,141.84c0,0-2.707,4.342-3.409,5.579c-0.136,0.238-0.291,0.461-0.455,0.668
				c-0.679,0.834-1.615,1.408-2.707,1.651l-29.478,6.474C42.864,156.299,42.48,156.346,42.097,156.35z"/>
		</g>
		<g>
			
				<linearGradient id="SVGID_8_" gradientUnits="userSpaceOnUse" x1="202.8213" y1="-648.0615" x2="214.4206" y2="-688.3953" gradientTransform="matrix(0.9984 -0.0065 -4.000000e-04 -1.0016 -149.8176 -528.7274)">
				<stop  offset="0.097" style="stop-color:#FFFFFF"/>
				<stop  offset="0.2258" style="stop-color:#F9F9FA"/>
				<stop  offset="0.3987" style="stop-color:#E8E8EA"/>
				<stop  offset="0.5967" style="stop-color:#CDCCD1"/>
				<stop  offset="0.8117" style="stop-color:#A6A5AE"/>
				<stop  offset="1" style="stop-color:#7F7D8A"/>
			</linearGradient>
			<path fill="url(#SVGID_8_)" d="M45.508,150.771c-2.478,0.015-4.743-1.723-5.509-4.226l-9.322-30.61
				c-0.456-1.502-0.322-3.033,0.381-4.312c0.679-1.23,1.798-2.066,3.162-2.355l29.477-5.99c0.372-0.068,0.755-0.102,1.136-0.09
				c2.479,0.067,4.745,1.84,5.511,4.293l9.321,30.223c0.456,1.436,0.319,2.898-0.384,4.138c-0.674,1.192-1.795,2.021-3.159,2.323
				l-29.475,6.471C46.272,150.721,45.89,150.77,45.508,150.771z"/>
		</g>
		<g opacity="0.57">
			<path fill="#FFFFFF" d="M64.646,104.386c0.047,0,0.097-0.002,0.144,0.005c1.979,0.059,3.794,1.479,4.411,3.461l9.322,30.219
				c0.356,1.111,0.255,2.24-0.28,3.185c-0.506,0.896-1.347,1.517-2.383,1.74l-29.483,6.474c-0.279,0.067-0.574,0.104-0.866,0.106
				c-1.961,0.011-3.752-1.38-4.365-3.382l-9.323-30.605c-0.361-1.188-0.264-2.396,0.284-3.385c0.503-0.919,1.342-1.547,2.346-1.754
				l29.466-5.988C64.156,104.411,64.399,104.387,64.646,104.386 M64.646,103.188c-0.319,0.002-0.639,0.031-0.949,0.09l-29.477,5.99
				c-1.364,0.289-2.483,1.125-3.162,2.356c-0.703,1.278-0.837,2.81-0.381,4.312l9.322,30.612c0.766,2.503,3.031,4.237,5.509,4.224
				c0,0,0.004,0,0.005,0c0.38-0.004,0.762-0.051,1.134-0.139l29.475-6.471c1.364-0.305,2.485-1.131,3.159-2.323
				c0.703-1.237,0.84-2.703,0.384-4.138l-9.321-30.221c-0.766-2.453-3.032-4.228-5.511-4.293
				C64.77,103.188,64.706,103.188,64.646,103.188L64.646,103.188z"/>
		</g>
		<path d="M57.443,142.029c-0.901,0.212-1.452,0.257-1.654,0.134c-0.067-0.044-0.421-0.535-1.059-1.472l-1.138-2.188
			c-0.424-0.797-0.931-1.33-1.52-1.603c-0.588-0.271-1.526-0.269-2.814,0.009c-1.156,0.246-1.843,0.461-2.058,0.643
			c-0.248,0.209-0.351,0.511-0.306,0.898c0.066,0.592,0.088,0.94,0.063,1.056c-0.035,0.202-0.03,0.729,0.014,1.576
			c0.034,0.803-0.015,1.473-0.144,2.006c-0.211,0.389-0.508,0.62-0.89,0.701c-0.401,0.086-0.842,0.009-1.321-0.229
			c-0.115-0.444-0.137-1.764-0.066-3.951c0.06-1.279,0.117-2.564,0.175-3.854c0.006-0.246-0.024-1.628-0.094-4.149
			c-0.048-1.781-0.007-3.238,0.124-4.371c0.186-1.601,0.342-2.627,0.47-3.084c0.302-1.146,0.804-1.883,1.505-2.207
			c1.521-0.322,2.98,0.309,4.381,1.892c1.064,1.198,1.921,2.683,2.57,4.44c0.188,0.519,0.339,1.045,0.454,1.586
			c0.044,0.205,0.097,0.492,0.161,0.858c0.062,0.365,0.114,0.646,0.154,0.829c0.148,0.7,0.377,1.383,0.685,2.049
			c0.172,0.44,0.427,1.064,0.764,1.87c0.356,0.853,0.644,1.513,0.861,1.982c0.095,0.126,0.187,0.258,0.273,0.395l1.27,2.804
			c0.074,0.529,0.059,0.869-0.046,1.021C58.153,141.814,57.882,141.938,57.443,142.029z M48.128,127.745
			c-0.678,0.896-1.11,2.875-1.297,5.938c0.127,0.598,0.27,0.879,0.429,0.846c0.027-0.006,0.101-0.029,0.219-0.069
			c0.118-0.039,0.225-0.069,0.317-0.089c0.526-0.094,1.077-0.211,1.652-0.352c0.196-0.041,0.425-0.062,0.689-0.062
			c0.264,0.003,0.424-0.003,0.479-0.018c0.121-0.022,0.189-0.094,0.205-0.203c-0.001-0.186-0.021-0.375-0.063-0.57
			c-0.077-0.363-0.245-0.812-0.504-1.34c-0.373-0.789-0.574-1.21-0.605-1.264C49.353,129.908,48.847,128.968,48.128,127.745z"/>
		<path d="M98.994,113.436c0.188,0.7-0.067,1.127-0.768,1.274c-0.373,0.079-0.705,0.058-0.994-0.067
			c-0.335-0.149-0.731-0.479-1.191-0.985c-0.512-0.574-0.887-0.938-1.124-1.095c-0.569,0.121-0.963,0.492-1.183,1.114
			c-0.251,0.697-0.288,1.462-0.112,2.291c0.052,0.243,0.125,0.472,0.219,0.685c0.115,0.262,0.717,0.73,1.809,1.416
			c1.246,0.771,2.025,1.313,2.338,1.64c1.396,1.431,2.287,3.049,2.673,4.856c0.396,1.856,0.103,3.479-0.88,4.869
			c-0.872,1.219-2.031,1.982-3.478,2.291c-1.166,0.248-2.274-0.033-3.324-0.844c-0.949-0.745-1.532-1.63-1.75-2.656
			c-0.024-0.108-0.089-0.347-0.194-0.703c-0.092-0.293-0.147-0.528-0.166-0.713c-0.036-0.265-0.019-0.502,0.053-0.713
			c0.111-0.306,0.353-0.498,0.726-0.578c0.299-0.062,0.554-0.035,0.765,0.086c0.723,0.561,1.238,1.282,1.545,2.174
			c0.176,0.599,0.356,1.195,0.544,1.801c0.231,0.447,0.706,0.597,1.425,0.441c0.98-0.209,1.596-0.98,1.847-2.324
			c0.193-1.016,0.169-2.094-0.073-3.229c-0.346-1.624-1.144-2.988-2.394-4.1c-0.387-0.35-1.483-1.084-3.294-2.212
			c-1.171-0.734-1.831-1.452-1.98-2.151c-0.256-1.203,0.113-2.379,1.108-3.525c0.915-1.062,1.987-1.727,3.219-1.986
			c1.446-0.309,2.779-0.323,3.999-0.047c0.162,0.259,0.296,0.635,0.401,1.129C98.716,111.373,98.794,111.995,98.994,113.436z"/>
		<path opacity="0.11" fill="#C2EBFF" enable-background="new    " d="M79.664,137.702l-9.321-30.222
			c-0.766-2.453-3.032-4.227-5.511-4.293c-0.062-0.002-0.126,0-0.187,0c-0.319,0.002-0.639,0.029-0.949,0.09l-29.477,5.99
			c-1.227,0.26-2.238,0.982-2.928,2.019l-0.03,0.004c0,0-2.937,4.681-3.614,5.914c-0.702,1.276-0.838,2.81-0.381,4.312l9.32,30.614
			c0.768,2.496,3.031,4.231,5.51,4.22c0.384-0.004,0.768-0.051,1.135-0.138l29.478-6.474c1.092-0.243,2.028-0.817,2.707-1.651
			c0.164-0.207,0.319-0.43,0.455-0.668c0.702-1.237,3.409-5.579,3.409-5.579C79.983,140.604,80.12,139.137,79.664,137.702z"/>
		<path opacity="0.11" fill="#C2EBFF" enable-background="new    " d="M128.33,127.628l-9.32-30.223
			c-0.766-2.453-3.031-4.222-5.51-4.294c-0.062,0-0.124,0-0.188,0c-0.32,0.003-0.642,0.033-0.947,0.091l-29.479,5.99
			c-1.228,0.262-2.238,0.983-2.928,2.017l-0.03,0.005c0,0-2.937,4.681-3.613,5.914c-0.705,1.276-0.838,2.81-0.382,4.31l9.321,30.617
			c0.767,2.495,3.028,4.231,5.508,4.217c0.382-0.002,0.767-0.049,1.137-0.137l29.477-6.471c1.092-0.242,2.026-0.816,2.709-1.648
			c0.163-0.211,0.315-0.433,0.453-0.674c0.7-1.234,3.41-5.578,3.41-5.578C128.65,130.525,128.786,129.061,128.33,127.628z"/>
	</g>
</g>
</svg>
