<?xml version="1.0" encoding="utf-8"?>
<!-- Generator: Adobe Illustrator 15.0.0, SVG Export Plug-In . SVG Version: 6.00 Build 0)  -->
<!DOCTYPE svg PUBLIC "-//W3C//DTD SVG 1.1//EN" "http://www.w3.org/Graphics/SVG/1.1/DTD/svg11.dtd">
<svg version="1.1" id="Layer_1" xmlns="http://www.w3.org/2000/svg" xmlns:xlink="http://www.w3.org/1999/xlink" x="0px" y="0px"
	 width="200px" height="200px" viewBox="0 0 200 200" enable-background="new 0 0 200 200" xml:space="preserve">
<g id="icon">
	<g id="Layer_2">
	</g>
	<g>
		
			<radialGradient id="SVGID_1_" cx="205.3379" cy="-634.749" r="12.7187" fx="205.4175" fy="-636.0964" gradientTransform="matrix(1 0 0 -1 -150 -530)" gradientUnits="userSpaceOnUse">
			<stop  offset="0" style="stop-color:#FFFF00"/>
			<stop  offset="0.3313" style="stop-color:#FFD400"/>
			<stop  offset="0.4016" style="stop-color:#FCD001"/>
			<stop  offset="0.4777" style="stop-color:#F2C303"/>
			<stop  offset="0.5565" style="stop-color:#E2AD06"/>
			<stop  offset="0.6371" style="stop-color:#CC8F0B"/>
			<stop  offset="0.7184" style="stop-color:#B06811"/>
			<stop  offset="0.7485" style="stop-color:#A45814"/>
			<stop  offset="0.9002" style="stop-color:#B57010"/>
			<stop  offset="1" style="stop-color:#BD7B0E"/>
		</radialGradient>
		<circle fill="url(#SVGID_1_)" cx="55.19" cy="106.543" r="9.785"/>
		
			<linearGradient id="SVGID_2_" gradientUnits="userSpaceOnUse" x1="1074.0576" y1="-1549.6284" x2="1067.441" y2="-1556.0168" gradientTransform="matrix(0.8045 -0.2042 0.1523 -0.8367 -543.9335 -949.9656)">
			<stop  offset="0" style="stop-color:#FFCA00"/>
			<stop  offset="0.2793" style="stop-color:#EBAE0B"/>
			<stop  offset="0.8792" style="stop-color:#B96725"/>
			<stop  offset="1" style="stop-color:#AE582B"/>
		</linearGradient>
		<path fill="url(#SVGID_2_)" d="M105.021,144.855c1.207,1.066,0.834,3.459-0.826,5.338l0,0c-1.666,1.879-3.991,2.537-5.199,1.469
			L58.15,115.141c-1.205-1.065-0.836-3.459,0.828-5.338l0,0c1.663-1.879,3.99-2.537,5.197-1.469L105.021,144.855z"/>
		<g>
			
				<linearGradient id="SVGID_3_" gradientUnits="userSpaceOnUse" x1="263.4746" y1="-597.3545" x2="322.7599" y2="-586.7136" gradientTransform="matrix(0.9995 0.0326 0.0326 -0.9995 -220.1362 -446.6006)">
				<stop  offset="0" style="stop-color:#D16E00"/>
				<stop  offset="0.1896" style="stop-color:#B56205"/>
				<stop  offset="0.5959" style="stop-color:#6E4313"/>
				<stop  offset="1" style="stop-color:#222222"/>
			</linearGradient>
			<path fill="url(#SVGID_3_)" d="M67.793,126.623l-27.318,44.138c0,0-1.959,6.292,2.275,9.231c4.285,2.979,8.751,0.545,8.751,0.545
				l30.832-38.412L67.793,126.623z"/>
			
				<linearGradient id="SVGID_4_" gradientUnits="userSpaceOnUse" x1="271.8984" y1="-583.9229" x2="321.8835" y2="-598.8676" gradientTransform="matrix(0.9995 0.0326 0.0326 -0.9995 -220.1362 -446.6006)">
				<stop  offset="0" style="stop-color:#906E81"/>
				<stop  offset="0.2884" style="stop-color:#745B69"/>
				<stop  offset="0.9081" style="stop-color:#2D2A2C"/>
				<stop  offset="1" style="stop-color:#222222"/>
			</linearGradient>
			<path fill="url(#SVGID_4_)" d="M67.793,126.623l-27.318,44.138c0,0-1.959,6.292,2.275,9.231c4.285,2.979,8.751,0.545,8.751,0.545
				l30.832-38.412L67.793,126.623z"/>
			<g>
				
					<linearGradient id="SVGID_5_" gradientUnits="userSpaceOnUse" x1="286.1602" y1="-583.2759" x2="313.8668" y2="-601.2479" gradientTransform="matrix(0.9995 0.0326 0.0326 -0.9995 -220.1362 -446.6006)">
					<stop  offset="0" style="stop-color:#9F8292"/>
					<stop  offset="0.257" style="stop-color:#836D79"/>
					<stop  offset="0.8088" style="stop-color:#3C3639"/>
					<stop  offset="1" style="stop-color:#222222"/>
				</linearGradient>
				<path fill="url(#SVGID_5_)" d="M70.092,129.062l-2.299-2.439l-27.318,44.138c0,0-0.543,1.761-0.434,3.853L70.092,129.062z"/>
			</g>
		</g>
		
			<linearGradient id="SVGID_6_" gradientUnits="userSpaceOnUse" x1="199.5264" y1="-693.0566" x2="204.5767" y2="-697.4755" gradientTransform="matrix(1 0 0 -1 -150 -530)">
			<stop  offset="0" style="stop-color:#484848"/>
			<stop  offset="0.2454" style="stop-color:#A6A6A7"/>
			<stop  offset="1" style="stop-color:#000000"/>
		</linearGradient>
		<path fill="url(#SVGID_6_)" d="M55.53,175.342c0,0-6.628,2.694-10.021-5.568c-2.148-5.229,1.381-9.135,1.381-9.135l4.859-7.606
			c0,0-6.037,9.731-0.385,15.186c5.651,5.451,9.198,0.854,9.198,0.854L55.53,175.342z"/>
		
			<linearGradient id="SVGID_7_" gradientUnits="userSpaceOnUse" x1="209.7012" y1="-681.4326" x2="214.7502" y2="-685.8503" gradientTransform="matrix(1 0 0 -1 -150 -530)">
			<stop  offset="0" style="stop-color:#484848"/>
			<stop  offset="0.2454" style="stop-color:#A6A6A7"/>
			<stop  offset="1" style="stop-color:#000000"/>
		</linearGradient>
		<path fill="url(#SVGID_7_)" d="M64.906,163.053c0,0-7.178,2.795-10.852-5.77c-2.327-5.422,1.495-9.469,1.495-9.469l5.263-7.889
			c0,0-6.537,10.092-0.417,15.739c6.12,5.646,9.962,0.886,9.962,0.886L64.906,163.053z"/>
		
			<linearGradient id="SVGID_8_" gradientUnits="userSpaceOnUse" x1="221.3574" y1="-668.1074" x2="226.407" y2="-672.5255" gradientTransform="matrix(1 0 0 -1 -150 -530)">
			<stop  offset="0" style="stop-color:#484848"/>
			<stop  offset="0.2454" style="stop-color:#A6A6A7"/>
			<stop  offset="1" style="stop-color:#000000"/>
		</linearGradient>
		<path fill="url(#SVGID_8_)" d="M75.781,149.166c0,0-8.795,2.932-13.297-6.061c-2.85-5.695,1.832-9.945,1.832-9.945l5.775-10.287
			c0,0-7.337,12.602,0.163,18.535c7.499,5.934,12.206,0.93,12.206,0.93L75.781,149.166z"/>
		
			<linearGradient id="SVGID_9_" gradientUnits="userSpaceOnUse" x1="220.7852" y1="-587.0015" x2="332.1558" y2="-664.5146" gradientTransform="matrix(1 0 0 -1 -150 -530)">
			<stop  offset="0" style="stop-color:#D2E6FF"/>
			<stop  offset="0.6457" style="stop-color:#EEF5F4"/>
			<stop  offset="1" style="stop-color:#FFFFFF"/>
		</linearGradient>
		<polygon fill="url(#SVGID_9_)" points="72.012,117.256 77.109,126.361 121.717,59 122.389,27.956 		"/>
		
			<linearGradient id="SVGID_10_" gradientUnits="userSpaceOnUse" x1="247.5332" y1="-603.7446" x2="246.3122" y2="-629.9826" gradientTransform="matrix(1 0 0 -1 -150 -530)">
			<stop  offset="0.092" style="stop-color:#A8CEC9;stop-opacity:0"/>
			<stop  offset="0.1885" style="stop-color:#C4DEDA;stop-opacity:0.3455"/>
			<stop  offset="0.2883" style="stop-color:#E5F0EF;stop-opacity:0.7027"/>
			<stop  offset="0.4663" style="stop-color:#FFFFFF"/>
			<stop  offset="1" style="stop-color:#A8CEC9;stop-opacity:0"/>
		</linearGradient>
		<polygon fill="url(#SVGID_10_)" points="72.012,117.256 77.109,126.361 121.717,59 122.389,27.956 		"/>
		
			<linearGradient id="SVGID_11_" gradientUnits="userSpaceOnUse" x1="255.4443" y1="-612.6699" x2="207.8544" y2="-577.4351" gradientTransform="matrix(1 0 0 -1 -150 -530)">
			<stop  offset="0" style="stop-color:#6883A2"/>
			<stop  offset="1" style="stop-color:#FFFFFF"/>
		</linearGradient>
		<polygon fill="url(#SVGID_11_)" points="91.968,134.766 77.109,126.361 121.717,59 158.693,57.426 		"/>
		
			<linearGradient id="SVGID_12_" gradientUnits="userSpaceOnUse" x1="290.8486" y1="-572.1699" x2="290.8486" y2="-564.581" gradientTransform="matrix(1 0 0 -1 -150 -530)">
			<stop  offset="0" style="stop-color:#B8CEE8"/>
			<stop  offset="0.3566" style="stop-color:#C4DEF2"/>
			<stop  offset="1" style="stop-color:#FFFFFF"/>
		</linearGradient>
		<polygon fill="url(#SVGID_12_)" points="159.979,18.527 122.389,27.956 121.717,59 158.693,57.426 		"/>
		<path d="M70.248,144.824c-0.061,2.305-1.657,3.65-3.566,3.01c-1.909-0.643-3.408-3.029-3.348-5.334s1.658-3.65,3.566-3.01
			C68.811,140.133,70.309,142.52,70.248,144.824z"/>
		<path d="M60.293,157.462c-0.057,2.116-1.522,3.353-3.275,2.763c-1.752-0.59-3.129-2.781-3.072-4.896
			c0.055-2.113,1.521-3.353,3.273-2.763C58.972,153.154,60.348,155.348,60.293,157.462z"/>
		<path d="M50.96,169.936c-0.051,1.908-1.374,3.023-2.954,2.492c-1.583-0.531-2.824-2.51-2.775-4.418
			c0.051-1.908,1.374-3.025,2.955-2.494C49.768,166.049,51.01,168.025,50.96,169.936z"/>
		
			<radialGradient id="SVGID_13_" cx="258.4814" cy="-682.6689" r="12.7185" fx="258.5612" fy="-684.0164" gradientTransform="matrix(1 0 0 -1 -150 -530)" gradientUnits="userSpaceOnUse">
			<stop  offset="0" style="stop-color:#FFFF00"/>
			<stop  offset="0.3313" style="stop-color:#FFD400"/>
			<stop  offset="0.4016" style="stop-color:#FCD001"/>
			<stop  offset="0.4777" style="stop-color:#F2C303"/>
			<stop  offset="0.5565" style="stop-color:#E2AD06"/>
			<stop  offset="0.6371" style="stop-color:#CC8F0B"/>
			<stop  offset="0.7184" style="stop-color:#B06811"/>
			<stop  offset="0.7485" style="stop-color:#A45814"/>
			<stop  offset="0.9002" style="stop-color:#B57010"/>
			<stop  offset="1" style="stop-color:#BD7B0E"/>
		</radialGradient>
		<circle fill="url(#SVGID_13_)" cx="108.332" cy="154.463" r="9.785"/>
		
			<radialGradient id="SVGID_14_" cx="227.4746" cy="-652.1445" r="21.7339" gradientTransform="matrix(1 0 0 -1 -150 -530)" gradientUnits="userSpaceOnUse">
			<stop  offset="0" style="stop-color:#FFFF00"/>
			<stop  offset="0.3313" style="stop-color:#FFD400"/>
			<stop  offset="0.4016" style="stop-color:#FCD001"/>
			<stop  offset="0.4777" style="stop-color:#F2C303"/>
			<stop  offset="0.5565" style="stop-color:#E2AD06"/>
			<stop  offset="0.6371" style="stop-color:#CC8F0B"/>
			<stop  offset="0.7184" style="stop-color:#B06811"/>
			<stop  offset="0.7485" style="stop-color:#A45814"/>
			<stop  offset="0.9002" style="stop-color:#B57010"/>
			<stop  offset="1" style="stop-color:#BD7B0E"/>
		</radialGradient>
		<path fill="url(#SVGID_14_)" d="M88.344,132.484c-0.154,6.856-5.217,11.646-11.305,10.688
			c-6.086-0.956-10.895-7.291-10.738-14.147c0.157-6.859,5.218-11.646,11.305-10.689C83.693,119.29,88.501,125.625,88.344,132.484z"
			/>
		
			<linearGradient id="SVGID_15_" gradientUnits="userSpaceOnUse" x1="315.959" y1="-407.416" x2="340.082" y2="-407.416" gradientTransform="matrix(0.9403 0.1475 0.0241 -1.0597 -223.0889 -349.0058)">
			<stop  offset="0" style="stop-color:#FFCA00"/>
			<stop  offset="0.2793" style="stop-color:#EBAE0B"/>
			<stop  offset="0.8792" style="stop-color:#B96725"/>
			<stop  offset="1" style="stop-color:#AE582B"/>
		</linearGradient>
		<path fill="url(#SVGID_15_)" d="M86.871,132.896c-0.16,7.059-5.368,11.981-11.631,11c-6.264-0.982-11.211-7.5-11.051-14.562
			c0.162-7.058,5.369-11.979,11.633-10.998C82.086,119.322,87.032,125.84,86.871,132.896z"/>
		
			<radialGradient id="SVGID_16_" cx="402.9648" cy="1022.2734" r="5.1066" fx="402.2737" fy="1022.3688" gradientTransform="matrix(-0.1366 0.9906 0.9104 0.1256 -800.1124 -397.0535)" gradientUnits="userSpaceOnUse">
			<stop  offset="0" style="stop-color:#FFFF00"/>
			<stop  offset="0.3313" style="stop-color:#FFD400"/>
			<stop  offset="0.4016" style="stop-color:#FCD001"/>
			<stop  offset="0.4777" style="stop-color:#F2C303"/>
			<stop  offset="0.5565" style="stop-color:#E2AD06"/>
			<stop  offset="0.6371" style="stop-color:#CC8F0B"/>
			<stop  offset="0.7184" style="stop-color:#B06811"/>
			<stop  offset="0.7485" style="stop-color:#A45814"/>
			<stop  offset="0.9002" style="stop-color:#B57010"/>
			<stop  offset="1" style="stop-color:#BD7B0E"/>
		</radialGradient>
		<path fill="url(#SVGID_16_)" d="M79.709,131.773c-0.06,2.602-1.978,4.416-4.285,4.054c-2.309-0.362-4.132-2.765-4.072-5.365
			c0.059-2.601,1.979-4.414,4.286-4.052C77.945,126.771,79.769,129.174,79.709,131.773z"/>
	</g>
</g>
</svg>
