<?xml version="1.0" encoding="utf-8"?>
<!-- Generator: Adobe Illustrator 15.0.0, SVG Export Plug-In . SVG Version: 6.00 Build 0)  -->
<!DOCTYPE svg PUBLIC "-//W3C//DTD SVG 1.1//EN" "http://www.w3.org/Graphics/SVG/1.1/DTD/svg11.dtd">
<svg version="1.1" id="Layer_1" xmlns="http://www.w3.org/2000/svg" xmlns:xlink="http://www.w3.org/1999/xlink" x="0px" y="0px"
	 width="200px" height="200px" viewBox="0 0 200 200" enable-background="new 0 0 200 200" xml:space="preserve">
<g id="icon">
	<g id="Layer_2">
	</g>
	<g>
		
			<linearGradient id="SVGID_1_" gradientUnits="userSpaceOnUse" x1="89.1816" y1="-655.4756" x2="78.3894" y2="-643.5269" gradientTransform="matrix(0.9988 -0.0486 -0.0486 -0.9988 -34.013 -529.0857)">
			<stop  offset="0" style="stop-color:#684014"/>
			<stop  offset="0.6503" style="stop-color:#C16703"/>
			<stop  offset="1" style="stop-color:#D79F03"/>
		</linearGradient>
		<path fill="url(#SVGID_1_)" d="M134.521,70.3c-0.232,0.25-0.777,1.488-1.021,1.747c-7.363,7.765-21.087,19.348-35.708,36.823
			c-5.492,5.86-12.73,13.177-18.315,19.123c-5.564,5.928-10.164,10.801-15.303,16.284c-3.991,4.262-9.412,8.957-12.873,12.66
			l-18.408,19.968c-2.105,2.245-3.976,2.682-5.811,0.971l0,0c-1.833-1.712-1.712-3.524,0.375-5.817l18.615-19.047
			c4.904-5.373,11.495-14.406,17.354-20.846c4.143-4.557,8.162-9.966,12.499-14.717c4.912-5.383,8.778-11.366,13.594-16.661
			c6.856-7.539,13.885-14.917,19.687-21.294c6.485-7.131,11.062-14.135,14.877-18.331c3.592-3.949,7.159-4.572,7.159-4.572
			c2.085-2.292,5.506-2.213,7.641,0.173l0,0c2.135,2.39,3.062,6.229,0.959,8.476c0,0-1.302,0.59-3.414,3.122
			C135.91,68.982,135.202,69.574,134.521,70.3z"/>
		
			<linearGradient id="SVGID_2_" gradientUnits="userSpaceOnUse" x1="95.3335" y1="-618.4629" x2="80.7889" y2="-604.6112" gradientTransform="matrix(0.9988 -0.0486 -0.0486 -0.9988 -34.013 -529.0857)">
			<stop  offset="0" style="stop-color:#684014"/>
			<stop  offset="0.6503" style="stop-color:#C16703"/>
			<stop  offset="1" style="stop-color:#D79F03"/>
		</linearGradient>
		<path fill="url(#SVGID_2_)" d="M135.284,69.843c-0.235,0.25-1.541,1.945-1.785,2.204c-7.362,7.765-21.087,19.348-35.708,36.823
			c-5.492,5.86-12.73,13.177-18.315,19.123c-5.564,5.928,32.711-42.901,34.844-40.514l5.543-8.449
			c2.137,2.388,0.783-7.009-1.318-4.762c0,0,19.994-8.438,17.882-5.906C135.91,68.982,135.964,69.117,135.284,69.843z"/>
		
			<linearGradient id="SVGID_3_" gradientUnits="userSpaceOnUse" x1="95.0884" y1="-663.0234" x2="71.0835" y2="-633.4788" gradientTransform="matrix(0.9988 -0.0486 -0.0486 -0.9988 -34.013 -529.0857)">
			<stop  offset="0.0061" style="stop-color:#C16703"/>
			<stop  offset="1" style="stop-color:#ED9F03"/>
		</linearGradient>
		<path fill="url(#SVGID_3_)" d="M27.702,174.542l18.617-19.048c4.904-5.37,11.496-14.404,17.355-20.844
			c4.142-4.559,8.162-9.967,12.497-14.719c4.912-5.385,8.779-11.365,13.595-16.66c6.856-7.541,13.886-14.917,19.687-21.294
			c6.484-7.13,11.062-14.135,14.878-18.33c3.592-3.949,7.159-4.571,7.159-4.571c2.085-2.293,5.505-2.215,7.64,0.172
			c0.854,0.956,1.513,2.146,1.862,3.373c0.207-1.991-0.676-4.252-2.11-5.857c-2.135-2.387-5.556-2.465-7.641-0.173
			c0,0-3.567,0.623-7.159,4.572c-3.814,4.196-8.391,11.2-14.877,18.331c-5.803,6.378-12.831,13.755-19.687,21.294
			c-4.816,5.294-8.683,11.278-13.594,16.661c-4.337,4.751-8.356,10.16-12.499,14.717c-5.859,6.439-12.45,15.473-17.354,20.845
			l-18.615,19.048c-1.606,1.766-2.009,2.65-1.318,4.41C26.314,175.307,26.788,175.547,27.702,174.542z"/>
		
			<linearGradient id="SVGID_4_" gradientUnits="userSpaceOnUse" x1="302.4551" y1="-584.1445" x2="276.0102" y2="-558.7324" gradientTransform="matrix(1 0 0 -1 -150 -530)">
			<stop  offset="0" style="stop-color:#7E8697"/>
			<stop  offset="1" style="stop-color:#AEBCCD"/>
		</linearGradient>
		<path fill="url(#SVGID_4_)" d="M129.706,39.971c-3.478,5.411,6.489,3.82-2.215,14.774c-0.164,0.205-2.709,2.828-2.709,2.828
			l-8.942-15.998l-3.355,3.402l6.302,18.659c0,0-1.446,1.513-1.739,1.813c0,0-2.504,4.405,2.997,9.904
			c4.86,4.862,9.258,2.012,9.258,2.012c0.448-0.462,1.82-1.747,1.82-1.747l18.157,6.849l3.133-3.067l-15.527-9.438
			c0,0,3.396-3.333,3.537-3.441c10.51-8.085,9.145,1.503,14.415-2.108c11.53-17.449,17.698-43.333,17.698-43.333
			S146.83,27.961,129.706,39.971z"/>
		
			<linearGradient id="SVGID_5_" gradientUnits="userSpaceOnUse" x1="306.292" y1="-597.4883" x2="284.4251" y2="-575.6216" gradientTransform="matrix(1 0 0 -1 -150 -530)">
			<stop  offset="0" style="stop-color:#7E8697"/>
			<stop  offset="1" style="stop-color:#AEBCCD"/>
		</linearGradient>
		<path fill="url(#SVGID_5_)" d="M132.512,42.036c-2.802,4.36,5.151,3.157-1.861,11.982c-0.133,0.166-5.139,5.235-5.139,5.235
			l-9.544-15.986l-1.647,1.685l6.357,19.186c0,0-1.438,1.492-1.675,1.734c0,0-2.017,3.549,2.414,7.981
			c3.919,3.917,7.459,1.62,7.459,1.62c0.36-0.371,1.741-1.68,1.741-1.68l18.664,6.966l1.607-1.557l-15.631-9.966
			c0,0,5.691-5.641,5.807-5.728c8.468-6.515,7.443,1.132,11.691-1.777c9.29-14.059,9.182-29.836,9.182-29.836
			S146.311,32.359,132.512,42.036z"/>
		
			<linearGradient id="SVGID_6_" gradientUnits="userSpaceOnUse" x1="-2024.437" y1="288.6885" x2="-2024.437" y2="278.5506" gradientTransform="matrix(0.7071 -0.7071 -0.7071 -0.7071 1763.958 -1167.8485)">
			<stop  offset="0.092" style="stop-color:#A8CEC9;stop-opacity:0"/>
			<stop  offset="0.1885" style="stop-color:#C4DEDA;stop-opacity:0.3455"/>
			<stop  offset="0.2883" style="stop-color:#E5F0EF;stop-opacity:0.7027"/>
			<stop  offset="0.4663" style="stop-color:#FFFFFF"/>
			<stop  offset="1" style="stop-color:#A8CEC9;stop-opacity:0"/>
		</linearGradient>
		<path opacity="0.31" fill="url(#SVGID_6_)" enable-background="new    " d="M142.9,51.789c2.787,2.79,2.787,7.312,0,10.102
			l-12.162,12.16c-2.788,2.789-7.312,2.789-10.102,0l0,0c-2.789-2.79-2.789-7.312,0-10.102l12.157-12.16
			C135.588,49,140.109,48.999,142.9,51.789L142.9,51.789z"/>
		
			<linearGradient id="SVGID_7_" gradientUnits="userSpaceOnUse" x1="-1208.3003" y1="-1424.0586" x2="-1208.3003" y2="-1427.2192" gradientTransform="matrix(0.6973 -0.7168 -0.4445 -0.4324 363.8654 -1443.0999)">
			<stop  offset="0" style="stop-color:#AEBCCF"/>
			<stop  offset="0.5092" style="stop-color:#FFFFFF"/>
			<stop  offset="1" style="stop-color:#9AA9C5"/>
		</linearGradient>
		<path fill="url(#SVGID_7_)" d="M129.706,39.971c-3.681,5.725,14.636,10.167,7.461,17.542l0,0
			c7.097-7.295,12.006,10.777,17.667,6.9c11.529-17.449,17.698-43.333,17.698-43.333S146.83,27.961,129.706,39.971z"/>
		
			<linearGradient id="SVGID_8_" gradientUnits="userSpaceOnUse" x1="-994.9209" y1="3980.1924" x2="-1003.3421" y2="3953.9929" gradientTransform="matrix(-0.8073 0.2011 -0.1787 0.8126 50.1856 -2981.0811)">
			<stop  offset="0.092" style="stop-color:#A8CEC9;stop-opacity:0"/>
			<stop  offset="0.1885" style="stop-color:#C4DEDA;stop-opacity:0.3455"/>
			<stop  offset="0.2883" style="stop-color:#E5F0EF;stop-opacity:0.7027"/>
			<stop  offset="0.4663" style="stop-color:#FFFFFF"/>
			<stop  offset="1" style="stop-color:#A8CEC9;stop-opacity:0"/>
		</linearGradient>
		<path opacity="0.31" fill="url(#SVGID_8_)" enable-background="new    " d="M129.706,39.971
			c-3.681,5.725,14.636,10.167,7.461,17.542l0,0c7.097-7.295,12.006,10.777,17.667,6.9c11.529-17.449,17.698-43.333,17.698-43.333
			S146.83,27.961,129.706,39.971z"/>
		
			<linearGradient id="SVGID_9_" gradientUnits="userSpaceOnUse" x1="269.8633" y1="-581.1729" x2="269.8633" y2="-582.0949" gradientTransform="matrix(1 0 0 -1 -150 -530)">
			<stop  offset="0" style="stop-color:#DBDDE2"/>
			<stop  offset="1" style="stop-color:#AEBCCD"/>
		</linearGradient>
		<polygon fill="url(#SVGID_9_)" points="125.407,59.179 115.968,43.268 114.32,44.953 115.171,45.808 116.038,44.838 
			124.826,59.76 		"/>
		
			<linearGradient id="SVGID_10_" gradientUnits="userSpaceOnUse" x1="292.6875" y1="-607.8242" x2="292.6875" y2="-608.4587" gradientTransform="matrix(1 0 0 -1 -150 -530)">
			<stop  offset="0" style="stop-color:#AEBCCD"/>
			<stop  offset="1" style="stop-color:#DBDDE2"/>
		</linearGradient>
		<polygon fill="url(#SVGID_10_)" points="135.378,69.412 134.486,70.303 148.95,79.083 148.573,80.069 149.281,80.759 
			150.891,79.202 		"/>
		
			<linearGradient id="SVGID_11_" gradientUnits="userSpaceOnUse" x1="277.4121" y1="-592.3926" x2="274.0155" y2="-589.1286" gradientTransform="matrix(1 0 0 -1 -150 -530)">
			<stop  offset="0.092" style="stop-color:#A8CEC9;stop-opacity:0"/>
			<stop  offset="0.1885" style="stop-color:#C4DEDA;stop-opacity:0.3455"/>
			<stop  offset="0.2883" style="stop-color:#E5F0EF;stop-opacity:0.7027"/>
			<stop  offset="0.4663" style="stop-color:#FFFFFF"/>
			<stop  offset="1" style="stop-color:#A8CEC9;stop-opacity:0"/>
		</linearGradient>
		<path fill="url(#SVGID_11_)" d="M133.65,49.697c0,0,4.686,3.556,3.533,5.538c-1.154,1.982-18.004,18.003-18.004,18.003
			s-1.736-1.045-1.812-3.503c-0.077-2.458,0.845-4.293,0.845-4.293L133.65,49.697z"/>
	</g>
</g>
</svg>
