<?xml version="1.0" encoding="utf-8"?>
<!-- Generator: Adobe Illustrator 15.0.0, SVG Export Plug-In . SVG Version: 6.00 Build 0)  -->
<!DOCTYPE svg PUBLIC "-//W3C//DTD SVG 1.1//EN" "http://www.w3.org/Graphics/SVG/1.1/DTD/svg11.dtd">
<svg version="1.1" id="Layer_1" xmlns="http://www.w3.org/2000/svg" xmlns:xlink="http://www.w3.org/1999/xlink" x="0px" y="0px"
	 width="200px" height="200px" viewBox="0 0 200 200" enable-background="new 0 0 200 200" xml:space="preserve">
<g id="icon">
	<g id="Layer_2">
	</g>
	<g>
		
			<radialGradient id="SVGID_1_" cx="-1381.582" cy="549.8389" r="21.4337" gradientTransform="matrix(-0.8609 -0.5087 -0.6703 1.1344 -754.1521 -1178.6757)" gradientUnits="userSpaceOnUse">
			<stop  offset="0.1043" style="stop-color:#FFFFFF"/>
			<stop  offset="0.1963" style="stop-color:#EFEFE3"/>
			<stop  offset="0.3111" style="stop-color:#EBEBDE"/>
			<stop  offset="0.4301" style="stop-color:#DFDED4"/>
			<stop  offset="0.4908" style="stop-color:#D6D5CF"/>
			<stop  offset="0.816" style="stop-color:#9E9C88"/>
			<stop  offset="1" style="stop-color:#8B897C"/>
		</radialGradient>
		<path fill="url(#SVGID_1_)" d="M54.675,155.139c0,0-7.01-0.062-16.153-0.039c-4.391,0.012,9.559-10.938,14.83-14.608
			c11.914-8.3,18.245-11.425,18.245-11.425l13.418,5.744L54.675,155.139z"/>
		
			<radialGradient id="SVGID_2_" cx="236.4629" cy="-673.6025" r="48.8265" gradientTransform="matrix(1 0 0 -1 -150 -530)" gradientUnits="userSpaceOnUse">
			<stop  offset="0.1043" style="stop-color:#FFFFFF"/>
			<stop  offset="0.1963" style="stop-color:#EFEFE3"/>
			<stop  offset="0.3111" style="stop-color:#EBEBDE"/>
			<stop  offset="0.4301" style="stop-color:#DFDED4"/>
			<stop  offset="0.4908" style="stop-color:#D6D5CF"/>
			<stop  offset="0.816" style="stop-color:#9E9C88"/>
			<stop  offset="1" style="stop-color:#8B897C"/>
		</radialGradient>
		<path fill="url(#SVGID_2_)" d="M82.48,131.913c0,0-6.743,3.44-14.859,10.459c-7.655,6.617-12.946,12.767-12.946,12.767
			s15.553,9.17,43.117,18.918c25.397,8.98,35.308,8.481,35.308,8.481s23.504-12.179,29.221-36.116c0,0-6.422-7.423-20.293-11.572
			C128.154,130.7,99.037,128.368,82.48,131.913z"/>
		
			<radialGradient id="SVGID_3_" cx="184.3516" cy="-600.2964" r="22.9625" gradientTransform="matrix(1 0 0 -1 -150 -530)" gradientUnits="userSpaceOnUse">
			<stop  offset="0.1043" style="stop-color:#FFFFFF"/>
			<stop  offset="0.1963" style="stop-color:#EFEFF0"/>
			<stop  offset="0.3111" style="stop-color:#EBEBE8"/>
			<stop  offset="0.4301" style="stop-color:#DFDED4"/>
			<stop  offset="0.4908" style="stop-color:#D6D5CF"/>
			<stop  offset="0.816" style="stop-color:#9E9C88"/>
			<stop  offset="1" style="stop-color:#8B897C"/>
		</radialGradient>
		<path fill="url(#SVGID_3_)" d="M132.369,174.018c-1.85,0-11.004-0.461-31.282-8.373c-23.189-9.049-37.024-17.707-38.374-18.564
			c-10.572-0.104-15.06,0.188-16.98,0.312c-0.543,0.033-0.906,0.059-1.157,0.061l1.444-0.95c0.241,0-0.861,0.058-0.343,0.021
			c1.938-0.125,6.472-0.418,17.17-0.312l0.127,0.001l0.106,0.069c0.138,0.091,14.103,9.104,38.324,18.556
			c21.115,8.239,30.242,8.319,31.187,8.311c1.259-0.601,17.792-8.875,22.608-31.135l0.849,0.187
			c-5.077,23.475-22.996,31.696-23.178,31.778l-0.152,0.035C132.684,174.012,132.568,174.018,132.369,174.018z"/>
		
			<radialGradient id="SVGID_4_" cx="-669.9014" cy="-1898.6211" r="53.2698" gradientTransform="matrix(0.9437 -0.2392 -0.2325 -0.971 272.5774 -1944.9512)" gradientUnits="userSpaceOnUse">
			<stop  offset="0.1043" style="stop-color:#FFFFFF"/>
			<stop  offset="0.1963" style="stop-color:#EFEFE3"/>
			<stop  offset="0.3111" style="stop-color:#EBEBDE"/>
			<stop  offset="0.4301" style="stop-color:#DFDED4"/>
			<stop  offset="0.4908" style="stop-color:#D6D5CF"/>
			<stop  offset="0.816" style="stop-color:#9E9C88"/>
			<stop  offset="1" style="stop-color:#8B897C"/>
		</radialGradient>
		<path fill="url(#SVGID_4_)" d="M92.18,119.665c-0.048-4.608-1.947-11.408-4.063-19.218c-5.232-19.328,21.689-23.68,30.617-25.941
			c3.52-0.893,18.471-5.551,25.471-3.239c2.331,0.77,2.624,2.853,2.859,5.39c3.013-5.301,1.121-11.618,1.011-12.125
			c-0.076-0.343-0.326-1.4-0.408-1.743c-6.745-28.183-34.416-45.403-61.806-38.462c-27.39,6.942-44.125,35.414-37.378,63.596
			c1.539,6.439,5.19,20.896,10.31,27.847c0,0,20.273,19.948,25.979,19.453C89.102,134.844,92.311,132.154,92.18,119.665z"/>
		
			<radialGradient id="SVGID_5_" cx="247.6592" cy="-557.4277" r="24.1869" gradientTransform="matrix(0.9328 0 0 -1 -141.4149 -530)" gradientUnits="userSpaceOnUse">
			<stop  offset="0.1043" style="stop-color:#FFFFFF"/>
			<stop  offset="0.1963" style="stop-color:#EFEFE3"/>
			<stop  offset="0.3111" style="stop-color:#EBEBDE"/>
			<stop  offset="0.4301" style="stop-color:#DFDED4"/>
			<stop  offset="0.4908" style="stop-color:#D6D5CF"/>
			<stop  offset="0.816" style="stop-color:#9E9C88"/>
			<stop  offset="1" style="stop-color:#8B897C"/>
		</radialGradient>
		<path fill="url(#SVGID_5_)" d="M90.446,24.241c15.509,0,29.31,10.89,35.258,26.184c-2.623-18.533-16.729-32.969-32.986-32.969
			c-11.048,0-20.421,6.671-25.533,16.76C73.212,28.01,81.333,24.241,90.446,24.241z"/>
		
			<ellipse transform="matrix(0.2391 0.971 -0.971 0.2391 114.322 -36.8805)" opacity="0.3" fill="#FFFFFF" enable-background="new    " cx="80.693" cy="54.505" rx="7.306" ry="9.192"/>
		<path opacity="0.29" fill="#231F14" enable-background="new    " d="M53.607,90.906c22.613-17.06,27.211-34.229,27.211-34.229
			c10.436-10.35,25.304-17.936,35.427-24.476c0,0,12.476,4.171,21.217,12.66c6.921,6.72,8.8,9.051,8.8,9.051
			c4.397,20.717,7.461,27.281,6.799,30.584c-1.133,5.65-23.812,20.962-62.083,16.236C56.627,96.498,46.176,96.514,53.607,90.906z"/>
		
			<radialGradient id="SVGID_6_" cx="-1107.2417" cy="-167.0381" r="60.5511" gradientTransform="matrix(0.7668 -0.6419 -0.6419 -0.7668 819.8609 -774.2052)" gradientUnits="userSpaceOnUse">
			<stop  offset="0.1043" style="stop-color:#FFFFFF"/>
			<stop  offset="0.1963" style="stop-color:#EFEFE3"/>
			<stop  offset="0.3111" style="stop-color:#EBEBDE"/>
			<stop  offset="0.4301" style="stop-color:#DFDED4"/>
			<stop  offset="0.4908" style="stop-color:#D6D5CF"/>
			<stop  offset="0.816" style="stop-color:#9E9C88"/>
			<stop  offset="1" style="stop-color:#8B897C"/>
		</radialGradient>
		<path fill="url(#SVGID_6_)" d="M54.389,91.694c23.738-16.022,28.969-32.603,28.969-32.603
			c11.028-9.803,26.443-16.768,37.037-22.872c0,0,13.41,3.422,21.547,9.661c7.691,5.901,9.533,9.642,9.533,9.642
			c3.377,10.659,6.604,23.486,5.746,35.79c-0.39,5.614-25.554,16.452-64.729,10.888C57.324,97.208,46.587,96.959,54.389,91.694z"/>
		
			<linearGradient id="SVGID_7_" gradientUnits="userSpaceOnUse" x1="256.5039" y1="-637.4668" x2="254.7643" y2="-620.0712" gradientTransform="matrix(1 0 0 -1 -150 -530)">
			<stop  offset="0" style="stop-color:#231F20"/>
			<stop  offset="0.0896" style="stop-color:#231F20;stop-opacity:0.9104"/>
			<stop  offset="0.4847" style="stop-color:#231F20;stop-opacity:0.2883"/>
			<stop  offset="1" style="stop-color:#231F20;stop-opacity:0"/>
		</linearGradient>
		<path fill="url(#SVGID_7_)" d="M54.389,91.694c23.738-16.022,28.969-32.603,28.969-32.603
			c11.028-9.803,26.443-16.768,37.037-22.872c0,0,13.41,3.422,21.547,9.661c7.691,5.901,9.533,9.642,9.533,9.642
			c3.377,10.659,6.604,23.486,5.746,35.79c-0.39,5.614-25.554,16.452-64.729,10.888C57.324,97.208,46.587,96.959,54.389,91.694z"/>
		
			<radialGradient id="SVGID_8_" cx="285.2402" cy="-555.7188" r="41.2184" gradientTransform="matrix(1 0 0 -1 -150 -530)" gradientUnits="userSpaceOnUse">
			<stop  offset="0.1043" style="stop-color:#FFFFFF"/>
			<stop  offset="0.1963" style="stop-color:#EFEFF0"/>
			<stop  offset="0.3111" style="stop-color:#EBEBE1"/>
			<stop  offset="0.4301" style="stop-color:#DFDED2"/>
			<stop  offset="0.4908" style="stop-color:#D6D5C7"/>
			<stop  offset="1" style="stop-color:#8B8981;stop-opacity:0"/>
		</radialGradient>
		<path fill="url(#SVGID_8_)" d="M54.389,91.694c23.738-16.022,28.969-32.603,28.969-32.603
			c11.028-9.803,26.443-16.768,37.037-22.872c0,0,10.5,7.884,13.043,41.41c0.733,9.668-1.771,30.135-40.944,24.571
			C57.324,97.208,46.587,96.959,54.389,91.694z"/>
		<path d="M92.164,89.831c0,0,7.614-2.653,14.386-4.401c7.544-1.946,14.328-3.008,14.328-3.008l1.589,6.155
			c0,0-6.988,1.113-14.615,3.081c-6.664,1.72-14.099,4.327-14.099,4.327L92.164,89.831z"/>
		<path d="M140.512,85.303c7.813,0.118,14.819,0.814,14.819,0.814l-0.169-5.627c0,0-6.799-0.691-14.525-0.807
			C139.861,79.669,139.646,85.292,140.512,85.303z"/>
		
			<radialGradient id="SVGID_9_" cx="92.2729" cy="-632.6162" r="55.5974" gradientTransform="matrix(0.9281 -0.0654 -0.0703 -0.9975 -43.1444 -524.6302)" gradientUnits="userSpaceOnUse">
			<stop  offset="0.1043" style="stop-color:#FFFFFF"/>
			<stop  offset="0.1963" style="stop-color:#EFEFE3"/>
			<stop  offset="0.3111" style="stop-color:#EBEBDE"/>
			<stop  offset="0.4301" style="stop-color:#DFDED4"/>
			<stop  offset="0.4908" style="stop-color:#D6D5CF"/>
			<stop  offset="0.816" style="stop-color:#9E9C88"/>
			<stop  offset="1" style="stop-color:#8B897C"/>
		</radialGradient>
		<path fill="url(#SVGID_9_)" d="M56.089,91.367c0,0,42.623,24.501,93.472-1.956l7.66,6.944
			c-1.972,19.875-11.109,44.814-15.27,51.299c-2.053,3.199-5.854,5.277-5.854,5.277c-13.787,1.391-43.451-9.121-65.802-28.229
			C47.105,104.875,47.585,93.534,56.089,91.367z"/>
		
			<radialGradient id="SVGID_10_" cx="131.7617" cy="-618.7656" r="50.7741" gradientTransform="matrix(0.9281 -0.0654 -0.0703 -0.9975 -43.1561 -524.7709)" gradientUnits="userSpaceOnUse">
			<stop  offset="0" style="stop-color:#9E9C86"/>
			<stop  offset="1" style="stop-color:#646151"/>
		</radialGradient>
		<path fill="url(#SVGID_10_)" d="M148,121.789c2.71-16.393,1.562-32.377,1.562-32.377s3.334,0.481,6.229,0.481
			c2.691,0,4.965-0.481,4.965-0.481c4.709,22.211-14.646,51.758-18.805,58.244c-2.055,3.197-5.854,5.275-5.854,5.275
			S143.915,146.499,148,121.789z"/>
		
			<ellipse transform="matrix(0.3699 0.9291 -0.9291 0.3699 128.0895 10.4072)" fill="#231F20" cx="56.373" cy="99.631" rx="5.413" ry="4.036"/>
		
			<radialGradient id="SVGID_11_" cx="206.3789" cy="-629.6274" r="3.4013" gradientTransform="matrix(1 0 0 -1 -150 -530)" gradientUnits="userSpaceOnUse">
			<stop  offset="0.1043" style="stop-color:#FFFFFF"/>
			<stop  offset="0.1963" style="stop-color:#EFEFF0"/>
			<stop  offset="0.3111" style="stop-color:#EBEBE8"/>
			<stop  offset="0.4301" style="stop-color:#DFDED4"/>
			<stop  offset="0.4908" style="stop-color:#D6D5CF"/>
			<stop  offset="0.816" style="stop-color:#9E9C88"/>
			<stop  offset="1" style="stop-color:#8B897C"/>
		</radialGradient>
		<path fill="url(#SVGID_11_)" d="M59.05,98.564c0.788,1.977,0.23,4.057-1.244,4.645c-1.476,0.588-3.31-0.54-4.097-2.518
			c-0.787-1.979-0.231-4.061,1.244-4.646C56.429,95.459,58.263,96.586,59.05,98.564z"/>
		<g>
			<path fill="#231F20" d="M135.402,143.398l-5.166-0.873c4.791-17.891,4.361-36.196,4.354-36.379l5.219-0.143
				C139.828,106.785,140.389,124.784,135.402,143.398z"/>
		</g>
		<g>
			<path fill="#231F20" d="M120.889,140.488l-5.082-1.176c4.17-18.494,3.068-30.744,3.062-30.883l5.211-0.312
				C124.111,108.708,125.217,121.281,120.889,140.488z"/>
		</g>
		<g>
			<path fill="#231F20" d="M105.55,135.229l-4.948-1.785c2.926-12.457,2.678-23.881,2.678-24.006l5.222-0.006
				C108.499,109.973,108.613,122.188,105.55,135.229z"/>
		</g>
		<g>
			<path fill="#231F20" d="M92.382,129.52l-5.042-2.121c1.845-13.229,1.71-17.82,1.708-17.864l5.215-0.197
				C94.272,109.529,94.292,115.759,92.382,129.52z"/>
		</g>
		<g>
			<path fill="#231F20" d="M151.286,131.516l-1.673,3.295c4.916-14.748,4.566-30.846,4.562-30.979l2.608-0.08
				c0.015,0.462,0.252,9.46-2.227,20.586C154.559,124.335,153.339,127.7,151.286,131.516z"/>
		</g>
		
			<radialGradient id="SVGID_12_" cx="-1674.7119" cy="234.8574" r="2.3965" fx="-1674.7207" fy="234.1628" gradientTransform="matrix(0.4917 -0.8467 -0.8648 -0.5022 1091.8018 -1145.1198)" gradientUnits="userSpaceOnUse">
			<stop  offset="0.1043" style="stop-color:#FFFFFF"/>
			<stop  offset="0.1963" style="stop-color:#EFEFF0"/>
			<stop  offset="0.3111" style="stop-color:#EBEBE8"/>
			<stop  offset="0.4301" style="stop-color:#DFDED4"/>
			<stop  offset="0.4908" style="stop-color:#D6D5CF"/>
			<stop  offset="0.816" style="stop-color:#9E9C88"/>
			<stop  offset="1" style="stop-color:#8B897C"/>
		</radialGradient>
		<path fill="url(#SVGID_12_)" d="M66.385,153.208c1.058,0.614,1.429,1.952,0.826,2.989c-0.6,1.035-1.948,1.378-3.005,0.764
			c-1.059-0.613-1.429-1.954-0.829-2.988C63.981,152.936,65.327,152.593,66.385,153.208z"/>
		
			<radialGradient id="SVGID_13_" cx="-2007.9351" cy="528.9727" r="2.3981" fx="-2007.944" fy="528.2776" gradientTransform="matrix(0.3122 -0.8493 -0.9386 -0.345 1208.2976 -1358.5892)" gradientUnits="userSpaceOnUse">
			<stop  offset="0.1043" style="stop-color:#FFFFFF"/>
			<stop  offset="0.1963" style="stop-color:#EFEFF0"/>
			<stop  offset="0.3111" style="stop-color:#EBEBE8"/>
			<stop  offset="0.4301" style="stop-color:#DFDED4"/>
			<stop  offset="0.4908" style="stop-color:#D6D5CF"/>
			<stop  offset="0.816" style="stop-color:#9E9C88"/>
			<stop  offset="1" style="stop-color:#8B897C"/>
		</radialGradient>
		<path fill="url(#SVGID_13_)" d="M85.707,162.521c1.149,0.422,1.771,1.605,1.389,2.646c-0.382,1.039-1.623,1.54-2.772,1.117
			c-1.148-0.423-1.771-1.604-1.39-2.646C83.317,162.6,84.559,162.102,85.707,162.521z"/>
		
			<radialGradient id="SVGID_14_" cx="-1899.7964" cy="502.6045" r="2.3962" fx="-1899.8052" fy="501.9101" gradientTransform="matrix(0.3122 -0.8493 -0.8776 -0.3226 1123.7953 -1389.4713)" gradientUnits="userSpaceOnUse">
			<stop  offset="0.1043" style="stop-color:#FFFFFF"/>
			<stop  offset="0.1963" style="stop-color:#EFEFF0"/>
			<stop  offset="0.3111" style="stop-color:#EBEBE8"/>
			<stop  offset="0.4301" style="stop-color:#DFDED4"/>
			<stop  offset="0.4908" style="stop-color:#D6D5CF"/>
			<stop  offset="0.816" style="stop-color:#9E9C88"/>
			<stop  offset="1" style="stop-color:#8B897C"/>
		</radialGradient>
		<path fill="url(#SVGID_14_)" d="M90.366,60.152c1.075,0.394,1.636,1.557,1.253,2.597c-0.381,1.039-1.562,1.562-2.636,1.167
			c-1.073-0.396-1.635-1.559-1.253-2.597C88.113,60.279,89.293,59.756,90.366,60.152z"/>
		
			<radialGradient id="SVGID_15_" cx="-2352.6919" cy="-109.6177" r="2.394" fx="-2352.7007" fy="-110.3114" gradientTransform="matrix(0.3696 -0.4894 -0.7461 -0.5635 934.0396 -1158.8439)" gradientUnits="userSpaceOnUse">
			<stop  offset="0.1043" style="stop-color:#FFFFFF"/>
			<stop  offset="0.1963" style="stop-color:#EFEFF0"/>
			<stop  offset="0.3111" style="stop-color:#EBEBE8"/>
			<stop  offset="0.4301" style="stop-color:#DFDED4"/>
			<stop  offset="0.4908" style="stop-color:#D6D5CF"/>
			<stop  offset="0.816" style="stop-color:#9E9C88"/>
			<stop  offset="1" style="stop-color:#8B897C"/>
		</radialGradient>
		<path fill="url(#SVGID_15_)" d="M147.145,53.385c0.916,0.69,1.287,1.735,0.834,2.333c-0.451,0.599-1.56,0.526-2.473-0.164
			c-0.91-0.689-1.285-1.735-0.833-2.334C145.125,52.622,146.23,52.695,147.145,53.385z"/>
		
			<radialGradient id="SVGID_16_" cx="-1930.4414" cy="335.9922" r="2.3938" fx="-1930.4502" fy="335.2985" gradientTransform="matrix(0.3122 -0.8493 -0.7333 -0.2695 920.2812 -1464.795)" gradientUnits="userSpaceOnUse">
			<stop  offset="0.1043" style="stop-color:#FFFFFF"/>
			<stop  offset="0.1963" style="stop-color:#EFEFF0"/>
			<stop  offset="0.3111" style="stop-color:#EBEBE8"/>
			<stop  offset="0.4301" style="stop-color:#DFDED4"/>
			<stop  offset="0.4908" style="stop-color:#D6D5CF"/>
			<stop  offset="0.816" style="stop-color:#9E9C88"/>
			<stop  offset="1" style="stop-color:#8B897C"/>
		</radialGradient>
		<path fill="url(#SVGID_16_)" d="M71.969,82.437c0.898,0.329,1.314,1.439,0.933,2.479c-0.382,1.04-1.419,1.615-2.316,1.286
			c-0.896-0.331-1.315-1.44-0.935-2.479C70.035,82.681,71.07,82.105,71.969,82.437z"/>
		
			<radialGradient id="SVGID_17_" cx="-2462.4683" cy="331.1455" r="1.9202" fx="-2462.4753" fy="330.5891" gradientTransform="matrix(0.4187 -0.7943 -1.1178 -0.0407 1450.2456 -1790.676)" gradientUnits="userSpaceOnUse">
			<stop  offset="0.1043" style="stop-color:#FFFFFF"/>
			<stop  offset="0.1963" style="stop-color:#EFEFF0"/>
			<stop  offset="0.3111" style="stop-color:#EBEBE8"/>
			<stop  offset="0.4301" style="stop-color:#DFDED4"/>
			<stop  offset="0.4908" style="stop-color:#D6D5CF"/>
			<stop  offset="0.816" style="stop-color:#9E9C88"/>
			<stop  offset="1" style="stop-color:#8B897C"/>
		</radialGradient>
		<path fill="url(#SVGID_17_)" d="M49.877,150.457c1.093,0.04,1.65,0.703,1.238,1.48c-0.41,0.776-1.631,1.377-2.725,1.336
			c-1.093-0.039-1.65-0.701-1.243-1.479C47.56,151.016,48.78,150.417,49.877,150.457z"/>
		
			<radialGradient id="SVGID_18_" cx="-2463.4302" cy="338.1045" r="1.3043" fx="-2463.4351" fy="337.7264" gradientTransform="matrix(0.4187 -0.7943 -1.1178 -0.0407 1450.2456 -1790.676)" gradientUnits="userSpaceOnUse">
			<stop  offset="0.1043" style="stop-color:#FFFFFF"/>
			<stop  offset="0.1963" style="stop-color:#EFEFF0"/>
			<stop  offset="0.3111" style="stop-color:#EBEBE8"/>
			<stop  offset="0.4301" style="stop-color:#DFDED4"/>
			<stop  offset="0.4908" style="stop-color:#D6D5CF"/>
			<stop  offset="0.816" style="stop-color:#9E9C88"/>
			<stop  offset="1" style="stop-color:#8B897C"/>
		</radialGradient>
		<path fill="url(#SVGID_18_)" d="M41.432,151.361c0.743,0.023,1.119,0.478,0.84,1.005c-0.278,0.528-1.108,0.937-1.85,0.909
			c-0.744-0.025-1.121-0.479-0.844-1.006C39.857,151.74,40.687,151.335,41.432,151.361z"/>
		
			<radialGradient id="SVGID_19_" cx="-2108.7397" cy="760.6924" r="2.3968" fx="-2108.7488" fy="759.9977" gradientTransform="matrix(0.1995 -0.8826 -0.9754 -0.2205 1267.2372 -1522.2152)" gradientUnits="userSpaceOnUse">
			<stop  offset="0.1043" style="stop-color:#FFFFFF"/>
			<stop  offset="0.1963" style="stop-color:#EFEFF0"/>
			<stop  offset="0.3111" style="stop-color:#EBEBE8"/>
			<stop  offset="0.4301" style="stop-color:#DFDED4"/>
			<stop  offset="0.4908" style="stop-color:#D6D5CF"/>
			<stop  offset="0.816" style="stop-color:#9E9C88"/>
			<stop  offset="1" style="stop-color:#8B897C"/>
		</radialGradient>
		<path fill="url(#SVGID_19_)" d="M105.111,169.406c1.193,0.27,1.964,1.365,1.72,2.443c-0.245,1.082-1.41,1.736-2.604,1.469
			c-1.19-0.271-1.965-1.365-1.722-2.444C102.752,169.793,103.917,169.139,105.111,169.406z"/>
		
			<radialGradient id="SVGID_20_" cx="-2167.2227" cy="970.8828" r="2.3958" fx="-2167.2314" fy="970.1885" gradientTransform="matrix(0.0945 -0.8999 -0.9945 -0.1044 1301.7985 -1671.6274)" gradientUnits="userSpaceOnUse">
			<stop  offset="0.1043" style="stop-color:#FFFFFF"/>
			<stop  offset="0.1963" style="stop-color:#EFEFF0"/>
			<stop  offset="0.3111" style="stop-color:#EBEBE8"/>
			<stop  offset="0.4301" style="stop-color:#DFDED4"/>
			<stop  offset="0.4908" style="stop-color:#D6D5CF"/>
			<stop  offset="0.816" style="stop-color:#9E9C88"/>
			<stop  offset="1" style="stop-color:#8B897C"/>
		</radialGradient>
		<path fill="url(#SVGID_20_)" d="M131.782,175.43c1.219,0.127,2.112,1.125,1.995,2.225c-0.114,1.104-1.195,1.896-2.414,1.766
			c-1.215-0.128-2.109-1.124-1.995-2.227C129.486,176.091,130.564,175.301,131.782,175.43z"/>
		
			<radialGradient id="SVGID_21_" cx="-1681.0117" cy="2582.5117" r="1.8712" fx="-1680.5298" fy="2582.2625" gradientTransform="matrix(-0.6045 -0.6733 -0.7441 0.6681 1052.2211 -2690.3103)" gradientUnits="userSpaceOnUse">
			<stop  offset="0.1043" style="stop-color:#FFFFFF"/>
			<stop  offset="0.1963" style="stop-color:#EFEFF0"/>
			<stop  offset="0.3111" style="stop-color:#EBEBE8"/>
			<stop  offset="0.4301" style="stop-color:#DFDED4"/>
			<stop  offset="0.4908" style="stop-color:#D6D5CF"/>
			<stop  offset="0.816" style="stop-color:#9E9C88"/>
			<stop  offset="1" style="stop-color:#8B897C"/>
		</radialGradient>
		<path fill="url(#SVGID_21_)" d="M145.609,165.674c0.828-0.746,2.048-0.74,2.721,0.008c0.674,0.75,0.547,1.961-0.282,2.705
			s-2.046,0.741-2.72-0.009C144.656,167.627,144.779,166.417,145.609,165.674z"/>
		
			<radialGradient id="SVGID_22_" cx="-1228.4263" cy="2952.3574" r="1.5875" fx="-1228.0176" fy="2952.146" gradientTransform="matrix(-0.7625 -0.4871 -0.5383 0.8427 808.1008 -2931.718)" gradientUnits="userSpaceOnUse">
			<stop  offset="0.1043" style="stop-color:#FFFFFF"/>
			<stop  offset="0.1963" style="stop-color:#EFEFF0"/>
			<stop  offset="0.3111" style="stop-color:#EBEBE8"/>
			<stop  offset="0.4301" style="stop-color:#DFDED4"/>
			<stop  offset="0.4908" style="stop-color:#D6D5CF"/>
			<stop  offset="0.816" style="stop-color:#9E9C88"/>
			<stop  offset="1" style="stop-color:#8B897C"/>
		</radialGradient>
		<path fill="url(#SVGID_22_)" d="M154.318,153.857c0.508-0.795,1.506-1.066,2.226-0.606c0.724,0.46,0.894,1.479,0.386,2.274
			c-0.51,0.795-1.509,1.066-2.228,0.606C153.98,155.673,153.811,154.654,154.318,153.857z"/>
		
			<radialGradient id="SVGID_23_" cx="-908.125" cy="3927.0654" r="1.3375" fx="-907.7806" fy="3926.8875" gradientTransform="matrix(-0.8311 -0.3578 -0.2754 0.6395 485.0759 -2690.6167)" gradientUnits="userSpaceOnUse">
			<stop  offset="0.1043" style="stop-color:#FFFFFF"/>
			<stop  offset="0.1963" style="stop-color:#EFEFF0"/>
			<stop  offset="0.3111" style="stop-color:#EBEBE8"/>
			<stop  offset="0.4301" style="stop-color:#DFDED4"/>
			<stop  offset="0.4908" style="stop-color:#D6D5CF"/>
			<stop  offset="0.816" style="stop-color:#9E9C88"/>
			<stop  offset="1" style="stop-color:#8B897C"/>
		</radialGradient>
		<path fill="url(#SVGID_23_)" d="M157.205,145.213c0.22-0.512,0.936-0.691,1.598-0.406c0.662,0.284,1.021,0.93,0.803,1.438
			c-0.221,0.51-0.938,0.692-1.599,0.405C157.346,146.366,156.984,145.723,157.205,145.213z"/>
	</g>
</g>
</svg>
