<?xml version="1.0" encoding="utf-8"?>
<!-- Generator: Adobe Illustrator 15.0.0, SVG Export Plug-In . SVG Version: 6.00 Build 0)  -->
<!DOCTYPE svg PUBLIC "-//W3C//DTD SVG 1.1//EN" "http://www.w3.org/Graphics/SVG/1.1/DTD/svg11.dtd">
<svg version="1.1" id="Layer_1" xmlns="http://www.w3.org/2000/svg" xmlns:xlink="http://www.w3.org/1999/xlink" x="0px" y="0px"
	 width="200px" height="200px" viewBox="0 0 200 200" enable-background="new 0 0 200 200" xml:space="preserve">
<g id="icon">
	<g id="Layer_2">
	</g>
	<g>
		<path d="M55.692,164.788c3.224,2.676,7.574,2.75,9.714,0.167l29.762-35.904c2.142-2.583,1.263-6.845-1.963-9.519l-2.833-2.351
			c-3.227-2.675-7.577-2.748-9.718-0.164L50.892,152.92c-2.14,2.582-1.261,6.844,1.964,9.52L55.692,164.788z"/>
		<polygon fill="#CF7000" points="83.285,128.498 78.064,127.973 79.551,133.003 84.768,133.525 		"/>
		<polygon fill="#CF7000" points="78.73,133.993 73.51,133.465 74.995,138.497 80.214,139.021 		"/>
		<polygon fill="#CF7000" points="74.314,139.318 69.094,138.794 70.58,143.824 75.796,144.35 		"/>
		<polygon fill="#CF7000" points="69.758,144.812 64.54,144.288 66.026,149.318 71.243,149.846 		"/>
		<polygon fill="#CF7000" points="65.525,149.923 60.307,149.396 61.79,154.427 67.007,154.954 		"/>
		<polygon fill="#CF7000" points="60.971,155.417 55.751,154.893 57.235,159.922 62.454,160.445 		"/>
		<path d="M77.966,111.655c-2.515,3.569,0.783,10.817,7.367,16.192c6.583,5.371,13.96,6.84,16.476,3.271
			c2.517-3.566-0.785-10.817-7.369-16.19C87.857,109.553,80.478,108.087,77.966,111.655z"/>
		<path d="M79.087,110.464c-2.515,3.568,0.783,10.818,7.367,16.19c6.583,5.377,13.959,6.841,16.476,3.271
			c2.516-3.566-0.783-10.818-7.369-16.189C88.978,108.361,81.603,106.896,79.087,110.464z"/>
		<path fill="#404040" d="M87.616,125.255c-6.277-5.122-9.555-11.944-7.671-15.659c-0.321,0.247-0.618,0.529-0.858,0.868
			c-2.515,3.568,0.783,10.818,7.367,16.19c6.583,5.377,13.959,6.841,16.476,3.271c0.117-0.167,0.209-0.349,0.301-0.531
			C100.164,131.768,93.572,130.118,87.616,125.255z"/>
		<path fill="#D4EDFF" d="M113.284,102.879c17.108-20.666,47.155-49.964,33.098-71.282c-6.026,17.542-42.258,64.917-59.931,83.036
			l10.082,8.469C98.938,120.174,105.828,111.805,113.284,102.879z"/>
		<path fill="#B8C2E3" d="M111.695,101.562c2.406-2.905,3.293-7.314,5.869-10.444c2.545-3.093,6.781-4.908,9.304-8.15
			c2.487-3.196,3.26-7.818,5.538-11.089c2.207-3.17,5.931-4.989,7.777-8.169c1.946-3.356,1.996-8.07,3.351-11.364
			c1.487-3.622,4.213-5.812,4.737-9.265c0.527-3.499-1.158-8.259-1.893-11.485c-6.023,17.542-42.258,64.917-59.931,83.036
			l6.84,5.781c0.866-1.056,3.969-1.446,5.817-3.685c1.84-2.23,2.42-6.31,4.875-9.263
			C105.898,105.159,109.604,104.068,111.695,101.562z"/>
		
			<linearGradient id="SVGID_1_" gradientUnits="userSpaceOnUse" x1="-44.0557" y1="-681.748" x2="-49.9439" y2="-705.7919" gradientTransform="matrix(0.9849 -0.1729 -0.1729 -0.9849 44.6634 -613.1461)">
			<stop  offset="0.092" style="stop-color:#A8CEC9;stop-opacity:0"/>
			<stop  offset="0.1885" style="stop-color:#C4DEDA;stop-opacity:0.3455"/>
			<stop  offset="0.2883" style="stop-color:#E5F0EF;stop-opacity:0.7027"/>
			<stop  offset="0.4663" style="stop-color:#FFFFFF"/>
			<stop  offset="1" style="stop-color:#A8CEC9;stop-opacity:0"/>
		</linearGradient>
		<path fill="url(#SVGID_1_)" d="M113.284,102.879c17.108-20.666,47.155-49.964,33.098-71.282
			c-6.026,17.542-42.258,64.917-59.931,83.036l10.082,8.469C98.938,120.174,105.828,111.805,113.284,102.879z"/>
	</g>
</g>
</svg>
