<?xml version="1.0" encoding="utf-8"?>
<!-- Generator: Adobe Illustrator 15.0.0, SVG Export Plug-In . SVG Version: 6.00 Build 0)  -->
<!DOCTYPE svg PUBLIC "-//W3C//DTD SVG 1.1//EN" "http://www.w3.org/Graphics/SVG/1.1/DTD/svg11.dtd">
<svg version="1.1" id="Layer_1" xmlns="http://www.w3.org/2000/svg" xmlns:xlink="http://www.w3.org/1999/xlink" x="0px" y="0px"
	 width="200px" height="200px" viewBox="0 0 200 200" enable-background="new 0 0 200 200" xml:space="preserve">
<g id="icon">
	<g id="Layer_2">
	</g>
	<g>
		<g>
			
				<linearGradient id="SVGID_1_" gradientUnits="userSpaceOnUse" x1="234.8955" y1="-582.8364" x2="285.3234" y2="-657.4098" gradientTransform="matrix(1 0 0 -1 -150 -530)">
				<stop  offset="0.0368" style="stop-color:#FFFFFF"/>
				<stop  offset="0.3681" style="stop-color:#9DAEC2"/>
				<stop  offset="0.4479" style="stop-color:#90A2B9"/>
				<stop  offset="0.6319" style="stop-color:#7186A4"/>
				<stop  offset="1" style="stop-color:#536379"/>
			</linearGradient>
			<path fill="url(#SVGID_1_)" d="M154.734,49.574c-2.615,0.262-6.404-3.226-7.875-8.836c-0.17-0.654-0.31-1.396-0.416-2.265
				l-1.049-8.431l-7.521-0.085L89.66,29.413l-1.729-0.02l-0.233,0.116l-1.308,0.65l-0.025,0.012l-0.2,0.1l-0.196,0.113
				l-41.583,24.01l-3.319-0.04l-3.178,3.791l3.193,7.848c0.322,0.801,0.573,1.536,0.759,2.25c1.49,5.692-0.132,10.585-2.584,11.584
				l-4.578-0.631l-3.175,3.792l3.545,8.829c8.457,21.072,21.094,40.283,35.58,54.093c23.478,22.395,50.51,27.826,51.646,28.047
				l0.311,0.061l0.312,0.033l2.729,0.295l0.479,0.053l2.453-2.182c0.897-0.811,22.104-20.148,30.299-48.486
				c4.268-14.77,8.641-38.149,5.248-65.665l-1.148-9.313L154.734,49.574z"/>
			<path fill="none" d="M126.357,161.104c0,0,20.271-18.256,27.858-44.51c5.009-17.331,7.78-38.636,4.944-61.645
				c-7.008,0.701-14.385-6.009-16.985-15.944c-0.317-1.22-0.526-2.44-0.678-3.639l-48.215-0.544l-0.023,0.012l33.068,126.268
				L126.357,161.104z"/>
			<path fill="none" d="M52.873,62.393c2.634,10.053-0.608,19.626-7.209,22.316c8.414,20.964,20.596,38.537,33.21,50.562
				c21.844,20.838,47.216,25.783,47.456,25.83L93.262,34.834L51.68,58.842C52.141,59.975,52.549,61.158,52.873,62.393z"/>
			
				<linearGradient id="SVGID_2_" gradientUnits="userSpaceOnUse" x1="211.0322" y1="700.5635" x2="228.032" y2="661.064" gradientTransform="matrix(1 0 0 1 -100 -591)">
				<stop  offset="0" style="stop-color:#CAD7E1"/>
				<stop  offset="1" style="stop-color:#7C8CA0"/>
			</linearGradient>
			<path fill="url(#SVGID_2_)" d="M157.911,45.784c-2.616,0.262-6.405-3.226-7.875-8.837c-0.173-0.654-0.308-1.396-0.418-2.265
				l-1.048-8.43l-7.521-0.086l-48.213-0.543l-1.729-0.021l-0.233,0.116l2.388,9.117l0.023-0.012l48.215,0.544
				c0.148,1.199,0.357,2.418,0.678,3.639c2.604,9.936,9.979,16.645,16.985,15.944c2.836,23.008,0.062,44.314-4.944,61.645
				c-7.591,26.255-27.861,44.511-27.861,44.511l-0.024-0.002l2.478,9.451l0.479,0.053l2.453-2.181
				c0.898-0.811,22.104-20.147,30.299-48.485c4.268-14.771,8.641-38.15,5.248-65.666l-1.15-9.313L157.911,45.784z"/>
			
				<linearGradient id="SVGID_3_" gradientUnits="userSpaceOnUse" x1="-412.6201" y1="-384.918" x2="-337.3402" y2="-520.9233" gradientTransform="matrix(0.9674 -0.2533 -0.2533 -0.9674 344.1599 -434.6614)">
				<stop  offset="0" style="stop-color:#DEE6ED"/>
				<stop  offset="1" style="stop-color:#7C8CA0"/>
			</linearGradient>
			<path fill="url(#SVGID_3_)" d="M78.874,135.271c-12.614-12.025-24.796-29.601-33.21-50.562c6.601-2.69,9.843-12.264,7.209-22.316
				c-0.324-1.235-0.732-2.418-1.193-3.551l41.582-24.008l-2.388-9.117l-1.308,0.65l-0.025,0.013l-0.2,0.1l-0.196,0.114
				L47.562,50.603l-6.496,3.751l3.19,7.849c0.323,0.799,0.573,1.535,0.759,2.249c1.492,5.692-0.131,10.585-2.584,11.584l-7.753,3.16
				l3.545,8.829c8.459,21.073,21.094,40.284,35.582,54.094c23.477,22.395,50.507,27.826,51.647,28.047l0.31,0.059l0.311,0.033
				l2.732,0.295l-2.476-9.451C126.09,161.055,100.718,156.109,78.874,135.271z"/>
			
				<linearGradient id="SVGID_4_" gradientUnits="userSpaceOnUse" x1="-400.1504" y1="-412.6079" x2="-371.7086" y2="-450.5302" gradientTransform="matrix(0.9674 -0.2533 -0.2533 -0.9674 344.1599 -434.6614)">
				<stop  offset="0.0368" style="stop-color:#FF2600"/>
				<stop  offset="0.3681" style="stop-color:#BD0000"/>
				<stop  offset="1" style="stop-color:#A2001E"/>
			</linearGradient>
			<path fill="url(#SVGID_4_)" d="M51.68,58.842c0.461,1.133,0.869,2.315,1.193,3.551c2.634,10.053-0.608,19.626-7.209,22.316
				c8.414,20.964,20.596,38.537,33.21,50.562c21.844,20.838,47.216,25.783,47.456,25.83L93.262,34.834L51.68,58.842z"/>
			
				<linearGradient id="SVGID_5_" gradientUnits="userSpaceOnUse" x1="-373.6543" y1="-413.7158" x2="-319.3914" y2="-488.3591" gradientTransform="matrix(0.9674 -0.2533 -0.2533 -0.9674 344.1599 -434.6614)">
				<stop  offset="0" style="stop-color:#26E3FF"/>
				<stop  offset="0.5153" style="stop-color:#4481B6"/>
				<stop  offset="0.8221" style="stop-color:#3F6AB6"/>
				<stop  offset="1" style="stop-color:#5186C0"/>
			</linearGradient>
			<path fill="url(#SVGID_5_)" d="M142.178,39.005c-0.318-1.22-0.529-2.44-0.678-3.639l-48.215-0.544l-0.023,0.012l33.068,126.268
				l0.027,0.002c0,0,20.271-18.256,27.858-44.51c5.009-17.331,7.78-38.636,4.944-61.645C152.157,55.65,144.781,48.94,142.178,39.005
				z"/>
			
				<radialGradient id="SVGID_6_" cx="-353.9956" cy="-316.0029" r="419.8044" gradientTransform="matrix(0.9674 -0.2533 -0.2892 -1.1043 404.6292 -205.2863)" gradientUnits="userSpaceOnUse">
				<stop  offset="0" style="stop-color:#000000;stop-opacity:0"/>
				<stop  offset="1" style="stop-color:#000000"/>
			</radialGradient>
			<path fill="url(#SVGID_6_)" d="M93.82,36.872l46.157,0.521c0.131,0.721,0.282,1.406,0.457,2.069
				c2.605,9.957,9.768,17.141,17.147,17.563c2.705,24.582-1.246,45.486-5.103,58.827c-6.617,22.896-23.354,39.828-26.726,43.063
				c-4.378-1.017-26.606-6.899-45.758-25.168c-12.854-12.254-24.147-29.226-31.938-47.956c6.403-3.881,9.215-13.709,6.557-23.856
				c-0.179-0.688-0.386-1.374-0.624-2.069L93.82,36.872 M93.285,34.822l-0.023,0.012L51.68,58.842
				c0.461,1.133,0.869,2.315,1.193,3.551c2.634,10.053-0.608,19.626-7.209,22.316c8.414,20.964,20.596,38.537,33.21,50.562
				c21.844,20.838,47.216,25.783,47.456,25.83l0.027,0.002c0,0,20.271-18.256,27.858-44.513c5.009-17.331,7.78-38.636,4.944-61.645
				c-7.008,0.701-14.385-6.009-16.985-15.944c-0.317-1.22-0.526-2.44-0.678-3.639L93.285,34.822L93.285,34.822z"/>
			
				<radialGradient id="SVGID_7_" cx="-378.5923" cy="-120.3232" r="41.0625" gradientTransform="matrix(0.9674 -0.2533 -0.2892 -1.1043 404.6292 -205.2863)" gradientUnits="userSpaceOnUse">
				<stop  offset="0" style="stop-color:#FFFFFF"/>
				<stop  offset="1" style="stop-color:#FFFFFF;stop-opacity:0"/>
			</radialGradient>
			<path fill="url(#SVGID_7_)" d="M91.248,27.042l-43.75,25.263c0.372,0.443,0.692,0.973,1.036,1.455l43.18-24.936l0.012,0.002
				l-0.468-1.78L91.248,27.042z"/>
			
				<radialGradient id="SVGID_8_" cx="-376.9614" cy="-159.6851" r="61.2372" gradientTransform="matrix(0.9674 -0.2533 -0.2892 -1.1043 404.6292 -205.2863)" gradientUnits="userSpaceOnUse">
				<stop  offset="0" style="stop-color:#FFFFFF"/>
				<stop  offset="1" style="stop-color:#FFFFFF;stop-opacity:0"/>
			</radialGradient>
			<path fill="url(#SVGID_8_)" d="M141.509,27.616l-50.251-0.57l0.468,1.78l49.592,0.567
				C141.382,28.799,141.404,28.185,141.509,27.616z"/>
		</g>
		<g opacity="0.34">
			<polygon fill="#492B20" points="92.937,37.286 96.146,42.988 97.598,49.51 99.04,56.04 101.338,62.278 103.596,68.533 
				103.961,75.425 107.053,81.399 108.199,88.027 108.969,94.783 110.631,101.24 111.572,107.938 113.543,114.289 117.049,120.123 
				117.768,126.896 119.641,133.281 121.33,139.732 123.13,146.141 125.249,152.451 126.018,158.367 123.773,152.969 
				123.477,146.047 122.137,139.486 118.449,133.738 116.751,127.301 115.229,120.801 115.062,113.83 112.592,107.66 
				109.256,101.789 107.672,95.308 107.361,88.389 104.146,82.478 103.113,75.808 101.75,69.253 98.845,63.232 98.353,56.371 
				97.281,49.713 93.748,43.903 93.82,36.873 			"/>
		</g>
		<g opacity="0.26">
			<polygon fill="#492B20" points="124.52,39.15 126.71,43.728 125.729,39.412 			"/>
			<polygon fill="#492B20" points="126.71,43.728 127.204,45.9 127.759,47.697 127.465,45.306 			"/>
			<path fill="#492B20" d="M146.282,131.189l0.915,2.096c0.179-0.332,0.359-0.668,0.539-1.004l-0.373-1.375l-1.445-6.572
				l-1.913-6.352l0.956,6.562L146.282,131.189z"/>
			<polygon fill="#492B20" points="141.982,104.496 139.206,98.331 138.07,91.667 137.359,84.873 135.359,78.468 133.559,72.007 
				131.479,65.63 131.156,58.717 129.182,52.306 127.759,47.697 128.301,52.109 131.018,58.32 131.279,65.299 132.454,71.992 
				134.303,78.47 136.279,84.911 137.812,91.488 138.667,98.28 140.391,104.799 142.602,108.949 			"/>
			<polygon fill="#492B20" points="143.982,117.91 144.005,117.982 143.979,117.795 143.613,110.852 142.602,108.949 
				142.917,111.221 			"/>
		</g>
		<g opacity="0.25">
			<polygon fill="#492B20" points="67.831,47.207 67.981,47.699 67.847,46.953 			"/>
			<path fill="#492B20" d="M82.454,111.254l0.981,6.557l1.732,6.318l0.871,6.59l1.839,6.285l2.615,6.045l0.047,1.637
				c0.193,0.133,0.385,0.267,0.576,0.396l0.227-2.355l-1.494-6.414l-3.05-5.938l-0.19-6.811l-2.047-6.238l-1.636-6.367l-1.105-6.531
				l-2.819-6.008l-1.046-6.549l-0.246-6.79l-2.37-6.144l-1.392-6.441l-1.4-6.44L70.41,59.84l-0.014-0.064l0.035,0.339l0.491,6.71
				l1.881,6.277l1.44,6.411l2.821,5.98l-0.027,6.869l1.431,6.414l2.346,6.129L82.454,111.254z"/>
			<polygon fill="#492B20" points="67.981,47.699 69.015,53.4 70.396,59.774 69.74,53.462 			"/>
		</g>
		<path opacity="0.35" fill="#492B20" enable-background="new    " d="M53.343,94.986l0.184,5.004
			c0.197,0.365,0.395,0.729,0.595,1.098l-0.05-0.125l-0.676-6.783l-1.353-6.577l-1.203-6.622l-1.491,1.424l2.079,6.264
			L53.343,94.986z"/>
	</g>
</g>
<g id="outline_x5F_white_1_">
	<g>
		<g>
			<path fill="#FFFFFF" d="M91.107,25.601l1.729,0.021l48.213,0.543l7.521,0.086l1.048,8.43c0.11,0.869,0.245,1.611,0.418,2.265
				c1.418,5.414,4.995,8.851,7.595,8.851c0.096,0,0.188-0.004,0.28-0.014l8.223-0.822l1.15,9.313
				c3.393,27.513-0.981,50.893-5.248,65.666c-5.304,18.336-16.048,32.896-23.218,41.115c-5.473,6.803-9.858,10.803-10.256,11.161
				l-2.453,2.183l-0.48-0.053l-2.73-0.296l-0.312-0.032l-0.312-0.062c-1.137-0.222-28.168-5.651-51.646-28.047
				c-14.486-13.812-27.123-33.021-35.58-54.093l-3.545-8.829l3.175-3.792l7.212-2.939c0.648-2.12,0.753-4.947-0.05-8.014
				c-0.186-0.714-0.437-1.449-0.759-2.25l-3.193-7.848l3.178-3.791l6.496-3.751l41.582-24.009l0.196-0.114l0.2-0.1l0.025-0.013
				l1.308-0.65L91.107,25.601 M88.353,13.567l-2.593,1.292l-0.234,0.116l-1.303,0.648l-0.016,0.007l-0.041,0.021l-0.17,0.085
				l-0.354,0.175l-0.34,0.198l-0.196,0.114L41.562,40.211l-6.496,3.751l-1.835,1.06l-1.361,1.624l-3.178,3.791l-4.643,5.538
				l2.724,6.693l2.371,5.825l-1.753,0.715l-1.913,2.285l-3.175,3.792l-4.611,5.508l2.677,6.666l3.545,8.829
				c9.082,22.628,22.732,43.335,38.436,58.308c25.562,24.383,54.443,30.523,57.652,31.146l0.281,0.055l0.513,0.104l0.521,0.055
				l0.312,0.033l2.715,0.293l0.459,0.051l5.301,0.582l3.983-3.543l2.453-2.182l0.037-0.033l0.034-0.033
				c0.894-0.807,5.604-5.164,11.408-12.354c8.51-9.789,19.787-25.576,25.545-45.49c4.58-15.854,9.271-40.94,5.631-70.467
				l-1.149-9.316l-1.438-11.636l-11.666,1.167l-3.393,0.339c-0.008-0.059-0.017-0.122-0.025-0.191l-1.043-8.398l-1.293-10.399
				l-10.479-0.12l-7.521-0.086l-48.213-0.544l-1.721-0.02L88.353,13.567L88.353,13.567z"/>
		</g>
	</g>
</g>
</svg>
