<?xml version="1.0" encoding="utf-8"?>
<!-- Generator: Adobe Illustrator 15.0.0, SVG Export Plug-In . SVG Version: 6.00 Build 0)  -->
<!DOCTYPE svg PUBLIC "-//W3C//DTD SVG 1.1//EN" "http://www.w3.org/Graphics/SVG/1.1/DTD/svg11.dtd">
<svg version="1.1" id="Layer_1" xmlns="http://www.w3.org/2000/svg" xmlns:xlink="http://www.w3.org/1999/xlink" x="0px" y="0px"
	 width="200px" height="200px" viewBox="0 0 200 200" enable-background="new 0 0 200 200" xml:space="preserve">
<g id="icon">
	<g id="Layer_2">
	</g>
	<g>
		
			<radialGradient id="SVGID_1_" cx="226.291" cy="1274.7227" r="59.904" gradientTransform="matrix(1 0 0 1 -200 -1182)" gradientUnits="userSpaceOnUse">
			<stop  offset="0.1043" style="stop-color:#FFFFFF"/>
			<stop  offset="0.1963" style="stop-color:#EFEFF0"/>
			<stop  offset="0.3111" style="stop-color:#EBEBEC"/>
			<stop  offset="0.4301" style="stop-color:#DFDEE2"/>
			<stop  offset="0.4908" style="stop-color:#D6D5DA"/>
			<stop  offset="1" style="stop-color:#536B81"/>
		</radialGradient>
		<path fill="url(#SVGID_1_)" d="M146.212,52.624c-29.585-28.825-75.304-29.998-102.118-2.623
			c-26.812,27.374-24.568,72.938,5.021,101.763c29.586,28.819,75.308,30,102.124,2.618C178.045,127.01,175.798,81.45,146.212,52.624
			z"/>
		
			<radialGradient id="SVGID_2_" cx="301.3311" cy="1233.1768" r="94.4835" gradientTransform="matrix(1 0 0 1 -200 -1182)" gradientUnits="userSpaceOnUse">
			<stop  offset="0.1043" style="stop-color:#FFFFFF"/>
			<stop  offset="0.1963" style="stop-color:#EFEFF0"/>
			<stop  offset="0.3111" style="stop-color:#EBEBEC"/>
			<stop  offset="0.4301" style="stop-color:#DFDEE2"/>
			<stop  offset="0.4908" style="stop-color:#D6D5DA"/>
			<stop  offset="1" style="stop-color:#909CBB"/>
		</radialGradient>
		<path fill="url(#SVGID_2_)" d="M150.598,48.238C121.012,19.413,75.294,18.24,48.479,45.615
			C21.667,72.989,23.911,118.552,53.5,147.378c29.585,28.819,75.309,29.999,102.124,2.617
			C182.432,122.624,180.184,77.064,150.598,48.238z"/>
		
			<linearGradient id="SVGID_3_" gradientUnits="userSpaceOnUse" x1="290.0176" y1="1224.9189" x2="315.7644" y2="1335.9315" gradientTransform="matrix(1 0 0 1 -200 -1182)">
			<stop  offset="0" style="stop-color:#A65200"/>
			<stop  offset="0.2577" style="stop-color:#A15000"/>
			<stop  offset="0.55" style="stop-color:#944900"/>
			<stop  offset="0.8581" style="stop-color:#7D3E00"/>
			<stop  offset="1" style="stop-color:#703800"/>
		</linearGradient>
		<path fill="url(#SVGID_3_)" d="M146.977,51.949c-27.031-26.338-68.809-27.409-93.308-2.395
			c-24.499,25.012-22.451,66.643,4.588,92.981c27.033,26.335,68.812,27.412,93.312,2.395
			C176.062,119.917,174.014,78.289,146.977,51.949z"/>
		<g opacity="0.5">
			<g opacity="0.54">
				<polygon fill="#492B20" points="83.369,33.401 87.364,39.157 89.723,45.81 92.07,52.47 95.233,58.804 98.356,65.157 
					99.685,72.22 103.598,78.261 105.667,85.03 107.378,91.943 109.936,98.522 111.812,105.368 114.661,111.83 118.971,117.714 
					120.632,124.645 123.393,131.143 125.977,137.713 128.664,144.24 131.657,150.652 133.25,156.703 130.26,151.229 
					128.996,144.133 126.744,137.438 122.268,131.648 119.677,125.09 117.252,118.463 116.111,111.312 112.788,105.055 
					108.645,99.126 106.161,92.522 104.883,85.427 100.854,79.455 98.893,72.641 96.619,65.952 92.881,59.859 91.433,52.83 
					89.436,46.028 85.104,40.17 84.193,32.949 				"/>
			</g>
			<g opacity="0.47">
				<polygon fill="#492B20" points="59.722,44.088 61.785,50.672 64.078,57.24 67.076,63.553 69.369,70.122 71.658,76.693 
					74.877,82.927 76.069,89.893 78.029,96.583 81.677,102.666 83.689,109.337 86.209,115.825 89.122,122.169 90.263,129.152 
					94.132,135.156 96.518,141.695 96.827,148.982 101.089,154.85 103.302,162.309 99.982,155.275 96.86,149.029 95.715,142.059 
					92.266,135.932 89.554,129.533 87.765,122.794 85.156,116.359 83.264,109.659 80.742,103.189 77.548,96.968 75.227,90.427 
					74.293,83.375 70.647,77.32 68.315,70.781 65.564,64.394 64.138,57.521 62.519,50.713 59.742,44.348 				"/>
			</g>
			<g opacity="0.47">
				<polygon fill="#492B20" points="41.324,66.857 44.135,73.238 47.534,79.541 49.658,86.303 51.925,93.014 53.545,99.957 
					56.891,106.277 58.85,113.098 60.468,120.04 63.229,126.574 65.535,133.273 69.025,139.545 70.576,146.52 73.67,153.2 
					70.409,146.686 67.779,140.201 66.524,133.207 62.918,127.084 61.503,120.148 58.912,113.65 56.838,106.962 53.19,100.855 
					51.984,93.843 49.192,87.416 46.246,81.047 44.755,74.134 42.355,67.563 				"/>
			</g>
			<g opacity="0.54">
				<polygon fill="#492B20" points="158.404,66.317 160.812,72.805 163.168,79.302 165.268,85.894 167.449,92.464 164.413,85.233 
					161.658,77.905 158.961,70.548 156.143,63.222 				"/>
			</g>
			<g opacity="0.47">
				<polygon fill="#492B20" points="116.337,34.586 118.717,41.202 121.582,47.72 124.445,54.241 125.729,61.329 128.693,67.812 
					131.395,74.391 134.281,80.904 135.938,87.86 138,94.667 141.627,100.912 143.498,107.788 145.496,114.621 148.322,121.158 
					150.682,127.861 153.331,134.465 155.415,141.917 153.211,134.479 149.643,128.186 147.398,121.402 145.475,114.503 
					144.143,107.387 140.085,101.271 137.456,94.629 135.654,87.683 133.21,80.977 130.34,74.425 127.592,67.83 125.486,60.995 
					124.25,53.838 120.676,47.544 118.893,40.585 115.1,34.355 				"/>
			</g>
		</g>
		<path opacity="0.39" fill="#231F20" enable-background="new    " d="M121.677,78.534C110.843,67.98,94.102,67.55,84.283,77.575
			c-9.818,10.024-8.997,26.708,1.836,37.263c10.835,10.553,27.578,10.984,37.396,0.958
			C133.332,105.773,132.51,89.091,121.677,78.534z"/>
		
			<radialGradient id="SVGID_4_" cx="303.207" cy="1266.2041" r="25.7868" gradientTransform="matrix(1 0 0 1 -200 -1182)" gradientUnits="userSpaceOnUse">
			<stop  offset="0" style="stop-color:#D6D7DA"/>
			<stop  offset="0.5207" style="stop-color:#B3C6D2"/>
			<stop  offset="1" style="stop-color:#909CB1"/>
		</radialGradient>
		<path fill="url(#SVGID_4_)" d="M121.342,78.159c-10.576-10.304-26.919-10.723-36.505-0.938
			c-9.584,9.787-8.782,26.072,1.793,36.376c10.577,10.303,26.921,10.725,36.507,0.936
			C132.719,104.749,131.916,88.464,121.342,78.159z"/>
		
			<radialGradient id="SVGID_5_" cx="304.7021" cy="1275.1875" r="18.5201" fx="304.6349" fy="1276.6218" gradientTransform="matrix(1 0 0 1 -200 -1182)" gradientUnits="userSpaceOnUse">
			<stop  offset="0.1043" style="stop-color:#F0F5FF"/>
			<stop  offset="0.1963" style="stop-color:#D9EFFF"/>
			<stop  offset="0.3111" style="stop-color:#DCEBFC"/>
			<stop  offset="0.4301" style="stop-color:#D4DEE8"/>
			<stop  offset="0.4908" style="stop-color:#CAD5D9"/>
			<stop  offset="1" style="stop-color:#8B9CA9"/>
		</radialGradient>
		<path fill="url(#SVGID_5_)" d="M116.561,83.056c-7.229-7.042-18.396-7.329-24.942-0.641c-6.549,6.687-6.003,17.817,1.226,24.858
			c7.229,7.039,18.396,7.326,24.947,0.64C124.335,101.227,123.787,90.097,116.561,83.056z"/>
		
			<radialGradient id="SVGID_6_" cx="305.8135" cy="1269.4531" r="23.1552" fx="305.8372" fy="1264.3768" gradientTransform="matrix(1 0 0 1 -200 -1182)" gradientUnits="userSpaceOnUse">
			<stop  offset="0" style="stop-color:#D6D5DA;stop-opacity:0"/>
			<stop  offset="1" style="stop-color:#778392"/>
		</radialGradient>
		<path fill="url(#SVGID_6_)" d="M116.561,83.056c-7.229-7.042-18.396-7.329-24.942-0.641c-6.549,6.687-6.003,17.817,1.226,24.858
			c7.229,7.039,18.396,7.326,24.947,0.64C124.335,101.227,123.787,90.097,116.561,83.056z"/>
		
			<radialGradient id="SVGID_7_" cx="295.9717" cy="1265.8604" r="11.5977" gradientTransform="matrix(1 0 0 1 -200 -1182)" gradientUnits="userSpaceOnUse">
			<stop  offset="0" style="stop-color:#FFFFFF"/>
			<stop  offset="1" style="stop-color:#868390;stop-opacity:0"/>
		</radialGradient>
		<path fill="url(#SVGID_7_)" d="M99.4,109.352c-7.229-7.041-7.774-18.168-1.226-24.855c3.688-3.764,8.838-5.317,13.924-4.702
			c-6.822-3.634-15.168-2.8-20.479,2.625c-6.549,6.687-6.003,17.817,1.226,24.854c3.16,3.078,7.072,4.863,11.021,5.347
			C102.271,111.77,100.766,110.682,99.4,109.352z"/>
		
			<radialGradient id="SVGID_8_" cx="312.709" cy="1258.5684" r="1.5194" fx="312.7105" fy="1258.2352" gradientTransform="matrix(1 0 0 1 -200 -1182)" gradientUnits="userSpaceOnUse">
			<stop  offset="0.1534" style="stop-color:#D6D7DA"/>
			<stop  offset="0.5153" style="stop-color:#9EB1C1"/>
			<stop  offset="0.8712" style="stop-color:#5F718F"/>
		</radialGradient>
		<path fill="url(#SVGID_8_)" d="M113.682,75.616c-0.593-0.579-1.509-0.602-2.045-0.053c-0.539,0.549-0.494,1.462,0.1,2.039
			c0.596,0.578,1.512,0.602,2.05,0.053C114.318,77.106,114.273,76.193,113.682,75.616z"/>
		
			<radialGradient id="SVGID_9_" cx="285.5908" cy="1266.8203" r="1.521" fx="285.5924" fy="1266.4869" gradientTransform="matrix(1 0 0 1 -200 -1182)" gradientUnits="userSpaceOnUse">
			<stop  offset="0.1534" style="stop-color:#D6D7DA"/>
			<stop  offset="0.5153" style="stop-color:#9EB1C1"/>
			<stop  offset="0.8712" style="stop-color:#5F718F"/>
		</radialGradient>
		<path fill="url(#SVGID_9_)" d="M86.564,83.865c-0.593-0.578-1.509-0.602-2.046-0.054c-0.538,0.55-0.494,1.462,0.1,2.04
			c0.592,0.578,1.509,0.602,2.046,0.054C87.201,85.355,87.157,84.443,86.564,83.865z"/>
		
			<radialGradient id="SVGID_10_" cx="297.6182" cy="1297.4229" r="1.5198" fx="297.6197" fy="1297.0898" gradientTransform="matrix(1 0 0 1 -200 -1182)" gradientUnits="userSpaceOnUse">
			<stop  offset="0.1534" style="stop-color:#D6D7DA"/>
			<stop  offset="0.5153" style="stop-color:#9EB1C1"/>
			<stop  offset="0.8712" style="stop-color:#5F718F"/>
		</radialGradient>
		<path fill="url(#SVGID_10_)" d="M98.591,114.468c-0.593-0.577-1.508-0.601-2.046-0.053c-0.537,0.55-0.494,1.462,0.1,2.04
			c0.593,0.577,1.509,0.602,2.047,0.053C99.229,115.959,99.185,115.046,98.591,114.468z"/>
		
			<radialGradient id="SVGID_11_" cx="324.4609" cy="1286.1875" r="1.5191" fx="324.4624" fy="1285.8545" gradientTransform="matrix(1 0 0 1 -200 -1182)" gradientUnits="userSpaceOnUse">
			<stop  offset="0.1534" style="stop-color:#D6D7DA"/>
			<stop  offset="0.5153" style="stop-color:#9EB1C1"/>
			<stop  offset="0.8712" style="stop-color:#5F718F"/>
		</radialGradient>
		<path fill="url(#SVGID_11_)" d="M125.434,103.232c-0.595-0.578-1.51-0.604-2.047-0.053c-0.537,0.549-0.492,1.461,0.102,2.036
			c0.595,0.577,1.512,0.604,2.049,0.056C126.07,104.723,126.025,103.811,125.434,103.232z"/>
		<path opacity="0.47" fill="#231F20" enable-background="new    " d="M107.284,163.879c-0.003,0-0.003,0-0.005,0
			c-18.412-0.001-36.081-7.336-49.752-20.654c-13.692-13.336-21.669-31.522-21.884-49.898c-0.197-16.764,5.939-32.37,17.277-43.946
			c11.533-11.775,27.309-18.26,44.422-18.26c18.409,0,36.077,7.335,49.748,20.655c13.692,13.341,21.67,31.531,21.885,49.907
			c0.196,16.76-5.938,32.363-17.271,43.938C140.17,157.395,124.395,163.879,107.284,163.879z M97.342,31.955
			c-16.887,0-32.452,6.395-43.827,18.008C42.334,61.379,36.283,76.774,36.477,93.312c0.213,18.155,8.098,36.129,21.632,49.315
			c13.516,13.164,30.978,20.416,49.17,20.417h0.004c16.887,0,32.449-6.396,43.822-18.01c11.18-11.414,17.229-26.808,17.033-43.343
			c-0.215-18.156-8.1-36.132-21.635-49.32C132.993,39.206,115.533,31.955,97.342,31.955z"/>
		<g opacity="0.45">
			<g>
				<path d="M70.806,55.695C61.355,74.824,53.39,96.01,54.041,117.59c-0.035-1.18,0.059-3.314,0.014-4.822
					c0.131,4.362,0.234-1.891,0.23-1.851c0.149-1.622,0.408-3.233,0.673-4.841c0.488-2.969,1.195-5.899,1.947-8.81
					c1.507-5.839,3.479-11.558,5.596-17.201c2.462-6.567,5.199-13.08,8.307-19.37C71.475,59.341,70.152,57.019,70.806,55.695
					L70.806,55.695z"/>
			</g>
		</g>
		<g opacity="0.45">
			<g>
				<path fill="#B86D00" d="M72.205,59.844c-8.954,18.122-17.381,38.939-16.764,59.438c-0.018-0.589,0.029-1.657,0.007-2.41
					c-0.355-11.79,4.375-24.292,8.45-35.157c2.462-6.567,5.199-13.08,8.307-19.37C72.539,61.667,71.877,60.506,72.205,59.844
					L72.205,59.844z"/>
			</g>
		</g>
		<g opacity="0.45">
			<g>
				<path d="M144.376,107.98c1.733,11.229-0.666,23.541-6.474,33.272c-0.742,1.245,0.724,3.788,0,5
					c7.371-12.354,8.658-29.128,6.474-43.272C144.626,104.604,144.124,106.35,144.376,107.98L144.376,107.98z"/>
			</g>
		</g>
		<g opacity="0.45">
			<g>
				<path fill="#B86D00" d="M145.198,107.323c1.854,12.005-0.229,25.307-6.474,35.774c-0.371,0.623,0.358,1.895,0,2.5
					c6.998-11.731,8.555-27.307,6.474-40.774C145.323,105.634,145.072,106.507,145.198,107.323L145.198,107.323z"/>
			</g>
		</g>
		<g opacity="0.45">
			<g>
				<path d="M141.443,73.627c-1.729,9.279-3.478,18.564-5.532,27.775c-0.356,1.596,0.353,3.423,0,5
					c2.06-9.21,3.808-18.496,5.532-27.775C141.745,77.011,141.146,75.23,141.443,73.627L141.443,73.627z"/>
			</g>
		</g>
		<g opacity="0.45">
			<g>
				<path fill="#B86D00" d="M142.268,76.215c-1.727,9.279-3.476,18.564-5.533,27.776c-0.178,0.797,0.18,1.711,0,2.5
					c2.062-9.211,3.811-18.497,5.533-27.776C142.417,77.907,142.117,77.017,142.268,76.215L142.268,76.215z"/>
			</g>
		</g>
		<g opacity="0.45">
			<g>
				<path d="M74.621,71.312c-2.177,7.108-4.393,14.229-7.006,21.191c-0.553,1.473,0.543,3.552,0,5
					c2.613-6.961,4.829-14.083,7.006-21.191C75.091,74.778,74.158,72.824,74.621,71.312L74.621,71.312z"/>
			</g>
		</g>
		<g opacity="0.45">
			<g>
				<path fill="#B86D00" d="M75.814,73.613c-2.177,7.108-4.394,14.229-7.006,21.191c-0.276,0.736,0.271,1.776,0,2.5
					c2.613-6.962,4.829-14.083,7.006-21.191C76.049,75.347,75.583,74.37,75.814,73.613L75.814,73.613z"/>
			</g>
		</g>
	</g>
</g>
</svg>
