<?xml version="1.0" encoding="utf-8"?>
<!-- Generator: Adobe Illustrator 15.0.0, SVG Export Plug-In . SVG Version: 6.00 Build 0)  -->
<!DOCTYPE svg PUBLIC "-//W3C//DTD SVG 1.1//EN" "http://www.w3.org/Graphics/SVG/1.1/DTD/svg11.dtd">
<svg version="1.1" id="Layer_1" xmlns="http://www.w3.org/2000/svg" xmlns:xlink="http://www.w3.org/1999/xlink" x="0px" y="0px"
	 width="200px" height="200px" viewBox="0 0 200 200" enable-background="new 0 0 200 200" xml:space="preserve">
<g id="icon">
	<g id="Layer_2">
	</g>
	<g>
		
			<linearGradient id="SVGID_1_" gradientUnits="userSpaceOnUse" x1="250.9453" y1="-583.2769" x2="328.0585" y2="-569.4361" gradientTransform="matrix(0.9995 0.0326 0.0326 -0.9995 -220.1362 -446.6006)">
			<stop  offset="0" style="stop-color:#D16E00"/>
			<stop  offset="0.1896" style="stop-color:#B56205"/>
			<stop  offset="0.5959" style="stop-color:#6E4313"/>
			<stop  offset="1" style="stop-color:#222222"/>
		</linearGradient>
		<path fill="url(#SVGID_1_)" d="M68.98,102.396l-35.535,57.408c0,0-2.547,8.185,2.96,12.008c5.574,3.875,11.384,0.707,11.384,0.707
			l40.102-49.961L68.98,102.396z"/>
		
			<linearGradient id="SVGID_2_" gradientUnits="userSpaceOnUse" x1="261.9014" y1="-565.8047" x2="326.9194" y2="-585.2441" gradientTransform="matrix(0.9995 0.0326 0.0326 -0.9995 -220.1362 -446.6006)">
			<stop  offset="0" style="stop-color:#D16E00"/>
			<stop  offset="0.1896" style="stop-color:#B56205"/>
			<stop  offset="0.5959" style="stop-color:#6E4313"/>
			<stop  offset="1" style="stop-color:#222222"/>
		</linearGradient>
		<path fill="url(#SVGID_2_)" d="M68.98,102.396l-35.535,57.408c0,0-2.547,8.185,2.96,12.008c5.574,3.875,11.384,0.707,11.384,0.707
			l40.102-49.961L68.98,102.396z"/>
		<g>
			
				<linearGradient id="SVGID_3_" gradientUnits="userSpaceOnUse" x1="280.46" y1="-564.9648" x2="316.4883" y2="-588.3347" gradientTransform="matrix(0.9995 0.0326 0.0326 -0.9995 -220.1362 -446.6006)">
				<stop  offset="0" style="stop-color:#D16E00"/>
				<stop  offset="0.1896" style="stop-color:#B56205"/>
				<stop  offset="0.5959" style="stop-color:#6E4313"/>
				<stop  offset="1" style="stop-color:#222222"/>
			</linearGradient>
			<path fill="url(#SVGID_3_)" d="M71.971,105.566l-2.99-3.172l-35.535,57.406c0,0-0.705,2.291-0.562,5.014L71.971,105.566z"/>
		</g>
		<g>
			
				<linearGradient id="SVGID_4_" gradientUnits="userSpaceOnUse" x1="355.7119" y1="-530.4751" x2="356.7238" y2="-548.6894" gradientTransform="matrix(0.9995 0.0326 0.0326 -0.9995 -220.1362 -446.6006)">
				<stop  offset="0" style="stop-color:#BBC5D9"/>
				<stop  offset="0.3034" style="stop-color:#9DB1CD"/>
				<stop  offset="0.9556" style="stop-color:#53657E"/>
				<stop  offset="1" style="stop-color:#526577"/>
			</linearGradient>
			<path fill="url(#SVGID_4_)" d="M67.506,26.869l13.873,30.567c0,0-6.986,7.902,5.205,21.827
				c7.742,8.843,23.369,65.395,23.369,65.395s25.924-7.225,31.348-8.191c1.399-0.25,2.713-1.072,3.797-2.747
				c3.781-5.846,16.006-25.382,20.053-31.36c5.295-7.823-1.146-19.414-5.58-23.96c-4.437-4.549-43.055-43.057-47.438-46.588
				c-3.824-3.078-7.094-4.047-9.681-3.674C100.089,28.471,68.629,24.874,67.506,26.869z"/>
			<g>
				
					<linearGradient id="SVGID_5_" gradientUnits="userSpaceOnUse" x1="378.6562" y1="-391.4785" x2="315.9425" y2="-469.5435" gradientTransform="matrix(0.9995 0.0326 0.0326 -0.9995 -220.1362 -446.6006)">
					<stop  offset="0" style="stop-color:#DCDCDD"/>
					<stop  offset="0.1537" style="stop-color:#C0C0C1"/>
					<stop  offset="0.4862" style="stop-color:#797979"/>
					<stop  offset="0.9693" style="stop-color:#070707"/>
					<stop  offset="1" style="stop-color:#000000"/>
				</linearGradient>
				<path fill="url(#SVGID_5_)" d="M98.791,28.107c0.253-0.037,0.521-0.047,0.791-0.059c-6.43-0.416-21.477-1.902-28.443-1.777
					C81.183,26.657,97.118,28.348,98.791,28.107z"/>
				
					<linearGradient id="SVGID_6_" gradientUnits="userSpaceOnUse" x1="428.334" y1="-431.3594" x2="365.6069" y2="-509.4415" gradientTransform="matrix(0.9995 0.0326 0.0326 -0.9995 -220.1362 -446.6006)">
					<stop  offset="0" style="stop-color:#F3F7FD"/>
					<stop  offset="1" style="stop-color:#DCE8FA;stop-opacity:0"/>
				</linearGradient>
				<path fill="url(#SVGID_6_)" d="M159.57,78.396c-4.438-4.549-43.055-43.057-47.44-46.588c-3.827-3.078-7.094-4.047-9.681-3.674
					c-0.211,0.03-0.67,0.028-1.312,0.001c2.19,0.315,4.725,1.453,7.559,3.738c4.492,3.614,44.023,43.034,48.57,47.693
					c4.537,4.655,11.133,16.518,5.707,24.529c-4.113,6.083-16.488,25.855-20.44,31.979c0.934-0.436,1.806-1.182,2.563-2.354
					c3.782-5.846,16.008-25.382,20.055-31.36C170.445,94.532,164.002,82.944,159.57,78.396z"/>
			</g>
			
				<linearGradient id="SVGID_7_" gradientUnits="userSpaceOnUse" x1="351.4072" y1="-528.8525" x2="177.2021" y2="-479.5654" gradientTransform="matrix(0.9995 0.0326 0.0326 -0.9995 -220.1362 -446.6006)">
				<stop  offset="0" style="stop-color:#BAC5D9"/>
				<stop  offset="0.3034" style="stop-color:#9EB3C5"/>
				<stop  offset="0.9556" style="stop-color:#576574"/>
				<stop  offset="1" style="stop-color:#525D74"/>
			</linearGradient>
			<path fill="url(#SVGID_7_)" d="M61.48,30.734L44.348,58.391c0,0-7.572,8.57,5.646,23.67c8.396,9.59,46.127,54.807,46.127,54.807
				s11.598,13.09,17.324,4.235c4.094-6.332,17.352-27.52,21.738-34.002c5.738-8.483-1.244-21.051-6.053-25.979
				c-4.812-4.934-46.683-46.688-51.443-50.519C69.758,24.221,64.03,26.2,61.48,30.734z"/>
			
				<linearGradient id="SVGID_8_" gradientUnits="userSpaceOnUse" x1="240.8945" y1="-620.0166" x2="247.8945" y2="-667.0167" gradientTransform="matrix(1 0 0 -1 -150 -530)">
				<stop  offset="0.092" style="stop-color:#A8CEC9;stop-opacity:0"/>
				<stop  offset="0.1885" style="stop-color:#C4DEDA;stop-opacity:0.3455"/>
				<stop  offset="0.2883" style="stop-color:#E5F0EF;stop-opacity:0.7027"/>
				<stop  offset="0.4663" style="stop-color:#FFFFFF"/>
				<stop  offset="1" style="stop-color:#A8CEC9;stop-opacity:0"/>
			</linearGradient>
			<path fill="url(#SVGID_8_)" d="M61.48,30.734L44.348,58.391c0,0-7.572,8.57,5.646,23.67c8.396,9.59,46.127,54.807,46.127,54.807
				s11.598,13.09,17.324,4.235c4.094-6.332,17.352-27.52,21.738-34.002c5.738-8.483-1.244-21.051-6.053-25.979
				c-4.812-4.934-46.683-46.688-51.443-50.519C69.758,24.221,64.03,26.2,61.48,30.734z"/>
			
				<linearGradient id="SVGID_9_" gradientUnits="userSpaceOnUse" x1="233.7363" y1="-571.957" x2="236.4108" y2="-589.914" gradientTransform="matrix(1 0 0 -1 -150 -530)">
				<stop  offset="0.092" style="stop-color:#A8CEC9;stop-opacity:0"/>
				<stop  offset="0.1885" style="stop-color:#C4DEDA;stop-opacity:0.3455"/>
				<stop  offset="0.2883" style="stop-color:#E5F0EF;stop-opacity:0.7027"/>
				<stop  offset="0.4663" style="stop-color:#FFFFFF"/>
				<stop  offset="1" style="stop-color:#A8CEC9;stop-opacity:0"/>
			</linearGradient>
			<path opacity="0.48" fill="url(#SVGID_9_)" enable-background="new    " d="M61.48,30.734L44.348,58.391
				c0,0-7.572,8.57,5.646,23.67c8.396,9.59,46.127,54.807,46.127,54.807s11.598,13.09,17.324,4.235
				c4.094-6.332,17.352-27.52,21.738-34.002c5.738-8.483-1.244-21.051-6.053-25.979c-4.812-4.934-46.683-46.688-51.443-50.519
				C69.758,24.221,64.03,26.2,61.48,30.734z"/>
			
				<linearGradient id="SVGID_10_" gradientUnits="userSpaceOnUse" x1="303.7783" y1="-424.0942" x2="316.4398" y2="-505.4214" gradientTransform="matrix(0.9995 0.0326 0.0326 -0.9995 -220.1362 -446.6006)">
				<stop  offset="0" style="stop-color:#F3F7FD"/>
				<stop  offset="1" style="stop-color:#DCE8FA;stop-opacity:0"/>
			</linearGradient>
			<path fill="url(#SVGID_10_)" d="M45.906,61l17.129-27.658c1.353-2.397,3.598-4.065,6.58-4.173
				c4.379-1.253,34.727,1.973,36.938,1.655c1.65-0.237,3.581,0.081,5.752,1.134c-0.055-0.046-0.128-0.111-0.175-0.15
				c-3.827-3.078-7.094-4.047-9.681-3.674c-2.212,0.316-30.014-2.825-34.391-1.573c-2.982,0.108-5.229,1.774-6.578,4.174
				L44.348,58.391c0,0-5.991,6.799,2.029,18.948C40.772,66.832,45.906,61,45.906,61z"/>
			
				<linearGradient id="SVGID_11_" gradientUnits="userSpaceOnUse" x1="382.9736" y1="-494.9639" x2="311.7948" y2="-527.9221" gradientTransform="matrix(0.9995 0.0326 0.0326 -0.9995 -220.1362 -446.6006)">
				<stop  offset="0" style="stop-color:#F3F7FD"/>
				<stop  offset="1" style="stop-color:#DCE8FA;stop-opacity:0"/>
			</linearGradient>
			<path fill="url(#SVGID_11_)" d="M129.134,81.122c-4.811-4.934-46.683-46.688-51.443-50.519
				c-4.928-3.965-9.003-4.698-11.996-3.604c2.366,0.29,5.118,1.495,8.21,3.984c4.759,3.832,46.631,45.583,51.441,50.517
				c4.812,4.93,11.795,17.496,6.053,25.982c-4.39,6.479-17.646,27.666-21.74,34.002c-0.826,1.274-1.771,2.086-2.797,2.555
				c2.412,0.459,4.781-0.157,6.584-2.936c4.097-6.334,17.354-27.521,21.738-34.002c2.873-4.242,2.562-9.504,0.928-14.325
				C134.48,87.962,131.536,83.587,129.134,81.122z"/>
			
				<linearGradient id="SVGID_12_" gradientUnits="userSpaceOnUse" x1="363.7031" y1="-531.71" x2="402.9212" y2="-524.6709" gradientTransform="matrix(0.9995 0.0326 0.0326 -0.9995 -220.1362 -446.6006)">
				<stop  offset="0" style="stop-color:#F3F7FD"/>
				<stop  offset="1" style="stop-color:#DCE8FA;stop-opacity:0"/>
			</linearGradient>
			<path fill="url(#SVGID_12_)" d="M134.168,88.925c0,0,1.928,2.578,5.178,3.186c3.25,0.611,24.609,1.308,25.397,0.328
				c0.784-0.979,2.876,4.374-0.157,4.775c-3.031,0.404-23.218,2.261-24.49,2.723c-1.275,0.461-2.57,1.678-2.57,1.678
				S135.857,90.991,134.168,88.925z"/>
		</g>
		
			<linearGradient id="SVGID_13_" gradientUnits="userSpaceOnUse" x1="357.7568" y1="-483.002" x2="370.8904" y2="-503.9394" gradientTransform="matrix(0.9995 0.0326 0.0326 -0.9995 -220.1362 -446.6006)">
			<stop  offset="0" style="stop-color:#D16E00"/>
			<stop  offset="0.1896" style="stop-color:#B56205"/>
			<stop  offset="0.5959" style="stop-color:#6E4313"/>
			<stop  offset="1" style="stop-color:#222222"/>
		</linearGradient>
		<path fill="url(#SVGID_13_)" d="M111.244,46.002c0,0-2.949,5.682,1.4,11.023c4.733,5.8,8.065,7.988,14.928,8.102
			c2.729,0.047,6.221-0.945,7.09-1.996c0.968-1.172,4.283-5.94,4.312-6.782c0.049-1.599,0.725-8.505-11.607-15.952
			C121.521,36.869,117.425,37.735,111.244,46.002z"/>
		
			<linearGradient id="SVGID_14_" gradientUnits="userSpaceOnUse" x1="360.1885" y1="-476.6699" x2="366.1547" y2="-499.966" gradientTransform="matrix(0.9995 0.0326 0.0326 -0.9995 -220.1362 -446.6006)">
			<stop  offset="0" style="stop-color:#D16E00"/>
			<stop  offset="0.1896" style="stop-color:#B56205"/>
			<stop  offset="0.5959" style="stop-color:#6E4313"/>
			<stop  offset="1" style="stop-color:#222222"/>
		</linearGradient>
		<path fill="url(#SVGID_14_)" d="M114.428,46.267c0,0,0.979-0.609,5.622,4.016c5.304,5.285,3.673,6.533,9.44,6.083
			c2.725-0.213,1.074-1.303,1.943-2.353c0.969-1.177,6.84,3.137,6.866,2.294c0.056-1.597-0.675-9.284-11.252-14.903
			C122.945,39.224,114.693,38.123,114.428,46.267z"/>
	</g>
</g>
</svg>
