<?xml version="1.0" encoding="utf-8"?>
<!-- Generator: Adobe Illustrator 15.0.0, SVG Export Plug-In . SVG Version: 6.00 Build 0)  -->
<!DOCTYPE svg PUBLIC "-//W3C//DTD SVG 1.1//EN" "http://www.w3.org/Graphics/SVG/1.1/DTD/svg11.dtd">
<svg version="1.1" id="Layer_1" xmlns="http://www.w3.org/2000/svg" xmlns:xlink="http://www.w3.org/1999/xlink" x="0px" y="0px"
	 width="200px" height="200px" viewBox="0 0 200 200" enable-background="new 0 0 200 200" xml:space="preserve">
<g id="icon">
	<g id="Layer_2">
	</g>
	<g>
		
			<linearGradient id="SVGID_1_" gradientUnits="userSpaceOnUse" x1="372.5498" y1="-861.2944" x2="373.6904" y2="-965.6042" gradientTransform="matrix(0.9978 0.0668 0.0668 -0.9978 -185.7461 -847.0806)">
			<stop  offset="0" style="stop-color:#E1BC9E"/>
			<stop  offset="0.372" style="stop-color:#CEA083"/>
			<stop  offset="1" style="stop-color:#A9694D"/>
		</linearGradient>
		<polygon fill="url(#SVGID_1_)" points="134.288,64.347 110.909,93.656 96.325,60.072 97.432,56.404 106.335,45.213 
			160.348,18.364 		"/>
		
			<linearGradient id="SVGID_2_" gradientUnits="userSpaceOnUse" x1="328.9883" y1="-827.5981" x2="407.1727" y2="-905.7827" gradientTransform="matrix(0.9978 0.0668 0.0668 -0.9978 -185.7461 -847.0806)">
			<stop  offset="0" style="stop-color:#D19768"/>
			<stop  offset="0.4341" style="stop-color:#B57E5A"/>
			<stop  offset="1" style="stop-color:#8B5944"/>
		</linearGradient>
		<polygon fill="url(#SVGID_2_)" points="134.288,64.347 110.909,93.656 137.303,95.372 149.564,80.835 160.348,18.364 		"/>
		
			<linearGradient id="SVGID_3_" gradientUnits="userSpaceOnUse" x1="209.5713" y1="-532.3174" x2="246.3035" y2="-670.0626" gradientTransform="matrix(1 0 0 -1 -150 -530)">
			<stop  offset="0" style="stop-color:#D19768"/>
			<stop  offset="0.4341" style="stop-color:#B57E5A"/>
			<stop  offset="1" style="stop-color:#8B5944"/>
		</linearGradient>
		<polygon fill="url(#SVGID_3_)" points="134.288,64.347 112.63,59.41 115.146,52.604 111.96,48.651 108.568,46.792 97.224,56.509 
			39.653,145.779 43.457,149.066 42.321,153.721 55.425,163.213 		"/>
		
			<linearGradient id="SVGID_4_" gradientUnits="userSpaceOnUse" x1="259.9551" y1="-610.9463" x2="257.9704" y2="-618.033" gradientTransform="matrix(1 0 0 -1 -150 -530)">
			<stop  offset="0" style="stop-color:#D19768"/>
			<stop  offset="0.4341" style="stop-color:#B57E5A"/>
			<stop  offset="1" style="stop-color:#8B5944"/>
		</linearGradient>
		<polygon opacity="0.65" fill="url(#SVGID_4_)" enable-background="new    " points="134.288,64.347 112.63,59.41 115.146,52.604 
			111.96,48.651 108.568,46.792 97.131,56.444 105.104,64.347 104.318,74.35 124.368,76.782 		"/>
		
			<linearGradient id="SVGID_5_" gradientUnits="userSpaceOnUse" x1="207.1123" y1="-604.9683" x2="266.9981" y2="-664.8541" gradientTransform="matrix(1 0 0 -1 -150 -530)">
			<stop  offset="0" style="stop-color:#D16E44"/>
			<stop  offset="0.1896" style="stop-color:#B5623F"/>
			<stop  offset="0.5959" style="stop-color:#6E4331"/>
			<stop  offset="1" style="stop-color:#222222"/>
		</linearGradient>
		<polygon fill="url(#SVGID_5_)" points="134.288,64.347 140.042,67.968 141.639,80.151 149.564,80.835 70.856,174.139 
			55.425,163.213 		"/>
		
			<linearGradient id="SVGID_6_" gradientUnits="userSpaceOnUse" x1="278.8438" y1="-616.4429" x2="290.592" y2="-605.7098" gradientTransform="matrix(1 0 0 -1 -150 -530)">
			<stop  offset="0" style="stop-color:#D19768"/>
			<stop  offset="0.4341" style="stop-color:#B57E5A"/>
			<stop  offset="1" style="stop-color:#8B5944"/>
		</linearGradient>
		<polygon opacity="0.65" fill="url(#SVGID_6_)" enable-background="new    " points="134.288,64.347 140.042,67.968 
			141.639,80.151 149.564,80.835 135.592,97.4 138.1,84.793 129.6,81.712 126.631,73.943 		"/>
		<polygon opacity="0.55" fill="#472B1E" enable-background="new    " points="117.561,61.006 89.784,103.053 118.854,61.915 		"/>
		<polygon opacity="0.55" fill="#472B1E" enable-background="new    " points="85.131,88.95 43.457,149.066 40.391,146.418 		"/>
		<polygon opacity="0.55" fill="#472B1E" enable-background="new    " points="83.708,106.736 57.976,148.062 66.673,128.391 		"/>
		<polygon opacity="0.55" fill="#472B1E" enable-background="new    " points="103.159,50.301 87.261,76.055 75.769,95.64 
			87.182,73.145 		"/>
		<polygon fill="#231919" points="61.263,166.464 77.528,150.932 64.163,168.104 		"/>
		<polyline fill="#472B1E" points="135.516,77.938 103.618,116.412 88.383,139.328 112.907,110.029 135.592,76.782 		"/>
		
			<linearGradient id="SVGID_7_" gradientUnits="userSpaceOnUse" x1="280.8711" y1="-565.6025" x2="281.2058" y2="-596.2151" gradientTransform="matrix(1 0 0 -1 -150 -530)">
			<stop  offset="0" style="stop-color:#E6C8AF"/>
			<stop  offset="0.3202" style="stop-color:#D5AD93"/>
			<stop  offset="1" style="stop-color:#A9694D"/>
		</linearGradient>
		<polygon fill="url(#SVGID_7_)" points="146.714,29.387 120.896,45.342 115.146,52.604 128.079,47.378 		"/>
		
			<linearGradient id="SVGID_8_" gradientUnits="userSpaceOnUse" x1="294.0029" y1="-595.3311" x2="293.6373" y2="-607.4068" gradientTransform="matrix(1 0 0 -1 -150 -530)">
			<stop  offset="0" style="stop-color:#E6C8AF"/>
			<stop  offset="0.3202" style="stop-color:#D5AD93"/>
			<stop  offset="1" style="stop-color:#A9694D"/>
		</linearGradient>
		<polygon fill="url(#SVGID_8_)" points="150.63,29.387 141.928,38.09 139.027,46.792 144.626,39.867 		"/>
		
			<linearGradient id="SVGID_9_" gradientUnits="userSpaceOnUse" x1="188.8867" y1="-572.2578" x2="272.4054" y2="-589.3674" gradientTransform="matrix(1 0 0 -1 -150 -530)">
			<stop  offset="0" style="stop-color:#D19768"/>
			<stop  offset="0.4341" style="stop-color:#B57E5A"/>
			<stop  offset="1" style="stop-color:#8B5944"/>
		</linearGradient>
		<polygon opacity="0.65" fill="url(#SVGID_9_)" enable-background="new    " points="150.63,55.935 148.6,69.568 142.798,72.759 
			143.958,64.347 		"/>
	</g>
</g>
</svg>
