<?xml version="1.0" encoding="utf-8"?>
<!-- Generator: Adobe Illustrator 15.0.0, SVG Export Plug-In . SVG Version: 6.00 Build 0)  -->
<!DOCTYPE svg PUBLIC "-//W3C//DTD SVG 1.1//EN" "http://www.w3.org/Graphics/SVG/1.1/DTD/svg11.dtd">
<svg version="1.1" xmlns="http://www.w3.org/2000/svg" xmlns:xlink="http://www.w3.org/1999/xlink" x="0px" y="0px" width="200px"
	 height="200px" viewBox="0 0 200 200" enable-background="new 0 0 200 200" xml:space="preserve">
<g id="icon">
	<g id="Layer_2">
	</g>
	<g id="Layer_1_1_">
		<g>
			<g>
				
					<linearGradient id="SVGID_1_" gradientUnits="userSpaceOnUse" x1="295.2969" y1="-118.6177" x2="389.5242" y2="-216.978" gradientTransform="matrix(0.9245 -0.106 0.1001 -1.0931 -206.1188 -36.7226)">
					<stop  offset="0" style="stop-color:#70AB00"/>
					<stop  offset="1" style="stop-color:#284700"/>
				</linearGradient>
				<path fill="url(#SVGID_1_)" d="M129.548,71.758c24.444,23.816,18.468,71.204,18.468,71.204
					c-1.387,1.418-10.637,8.308-12.137,9.535c-22.494,18.448-57.132,16.198-80.047-6.131C32.91,124.039,29.849,89.555,47.81,66.694
					c1.196-1.524,6.695-8.003,8.077-9.416C55.887,57.278,105.102,47.942,129.548,71.758z"/>
				
					<linearGradient id="SVGID_2_" gradientUnits="userSpaceOnUse" x1="142.3506" y1="-11.9287" x2="197.0175" y2="-147.2632" gradientTransform="matrix(1 0 0 -1 -50 61)">
					<stop  offset="0.1758" style="stop-color:#96DC00"/>
					<stop  offset="1" style="stop-color:#366100"/>
				</linearGradient>
				<path fill="url(#SVGID_2_)" d="M143.781,57.224c24.931,24.288,26.822,62.674,4.234,85.738
					c-22.594,23.067-61.116,22.076-86.045-2.207c-24.932-24.287-26.821-62.677-4.229-85.742
					C80.332,31.947,118.855,32.937,143.781,57.224z"/>
				<g>
					<path fill="#FFFFFF" d="M113.018,139.239c-1.265,0-2.352-0.449-3.145-1.298l-0.083-0.098
						c-2.834-3.603-6.045-7.687-10.203-18.447c-2.982-7.722-4.352-14.558-5.169-18.642c-0.194-0.967-0.373-1.858-0.532-2.549
						l-12.749,2.769c-0.58,0.125-1.145,0.188-1.679,0.188c-2.11,0-3.828-0.98-4.836-2.761c-1.216-2.148-1.196-5.21,0.047-7.28
						l17.115-28.498c1.282-2.133,3.507-3.406,5.951-3.406c1.414,0,2.794,0.433,3.992,1.25l27.571,18.808
						c2.132,1.454,3.396,4.677,2.876,7.335c-0.427,2.188-1.98,3.725-4.262,4.218l-12.754,2.767c0.189,0.846,0.421,1.803,0.673,2.848
						c1.151,4.763,2.728,11.285,3.155,18.626c0.397,6.859,0.205,14.976-0.48,20.195C118.208,137.54,115.361,139.239,113.018,139.239
						z"/>
					<path fill="#497E58" d="M97.735,60.719c1.073,0,2.166,0.32,3.146,0.989l27.572,18.809c2.66,1.814,3.859,7.827-0.857,8.848
						l-14.207,3.082c0.807,4.344,3.527,12.855,4.103,22.712c0.389,6.702,0.214,14.698-0.472,19.913
						c-0.174,1.33-2.188,2.668-4.002,2.668c-0.771,0-1.504-0.24-2.049-0.822c-2.953-3.755-6.006-7.77-9.982-18.061
						c-4.319-11.187-5.168-20.318-6.05-22.413l-14.117,3.064c-0.488,0.105-0.941,0.155-1.36,0.155c-4.327,0-5.011-5.257-3.503-7.769
						L93.07,63.397C94.114,61.661,95.896,60.72,97.735,60.719 M97.736,57.719L97.736,57.719c-2.977,0-5.682,1.545-7.237,4.132
						l-17.116,28.5c-1.504,2.505-1.531,6.202-0.066,8.791c1.268,2.238,3.506,3.522,6.142,3.522c0.641,0,1.312-0.075,1.996-0.225
						l11.279-2.447c0.071,0.351,0.144,0.71,0.214,1.059c0.827,4.131,2.212,11.047,5.24,18.887
						c3.928,10.164,6.919,14.379,10.423,18.834l0.078,0.102l0.088,0.093c1.068,1.146,2.574,1.774,4.24,1.774
						c3.033,0,6.562-2.12,6.978-5.277c0.696-5.306,0.894-13.533,0.491-20.479c-0.437-7.477-2.03-14.073-3.194-18.893
						c-0.114-0.47-0.224-0.921-0.326-1.352l11.267-2.444c2.895-0.626,4.869-2.593,5.416-5.396c0.636-3.257-0.871-7.066-3.504-8.862
						l-27.572-18.809C101.125,58.242,99.452,57.719,97.736,57.719L97.736,57.719z"/>
				</g>
			</g>
		</g>
	</g>
</g>
<g id="outline_x5F_white">
	<g>
		<g>
			<path fill="#FFFFFF" d="M98.309,38.341c16.07,0,32.589,6.33,45.473,18.883c24.931,24.288,26.823,62.674,4.233,85.738
				c-0.096,0.099-0.263,0.257-0.479,0.464c-0.979,0.977-1.993,1.903-3.031,2.795c-5.128,4.682-7.515,5.367-8.626,6.276
				c-10.093,8.276-22.629,12.39-35.455,12.39c-15.76,0-31.958-6.209-44.592-18.521C32.91,124.039,29.849,89.555,47.81,66.694
				c0.913-1.164,1.592-2.138,5.575-6.637c1.337-1.747,2.777-3.436,4.356-5.045C68.656,43.869,83.286,38.341,98.309,38.341
				 M98.309,26.341c-18.883,0-36.335,7.201-49.141,20.275c-1.758,1.792-3.413,3.694-5.042,5.797
				c-3.502,3.963-4.578,5.353-5.447,6.475l-0.311,0.4c-10.639,13.542-15.55,30.805-13.822,48.603
				c1.712,17.631,9.849,34.348,22.913,47.071c14.507,14.138,33.317,21.924,52.965,21.924c15.682,0,30.782-5.227,42.594-14.728
				c0.041-0.023,0.082-0.047,0.125-0.071c1.664-0.956,4.746-2.728,9.318-6.881c1.244-1.074,2.377-2.119,3.454-3.188
				c0.312-0.3,0.535-0.518,0.671-0.656c12.602-12.865,19.419-30.146,19.201-48.664c-0.234-19.958-8.848-39.665-23.633-54.068
				C137.404,34.256,118.281,26.341,98.309,26.341L98.309,26.341z"/>
		</g>
	</g>
</g>
<g id="outline_x5F_black">
	<g>
		<g>
			<path fill="#231F20" d="M98.309,38.341c16.07,0,32.589,6.33,45.473,18.883c24.931,24.288,26.823,62.674,4.233,85.738
				c-0.096,0.099-0.263,0.257-0.479,0.464c-0.979,0.977-1.993,1.903-3.031,2.795c-5.128,4.682-7.515,5.367-8.626,6.276
				c-10.093,8.276-22.629,12.39-35.455,12.39c-15.76,0-31.958-6.209-44.592-18.521C32.91,124.039,29.849,89.555,47.81,66.694
				c0.913-1.164,1.592-2.138,5.575-6.637c1.337-1.747,2.777-3.436,4.356-5.045C68.656,43.869,83.286,38.341,98.309,38.341
				 M98.309,32.341c-17.257,0-33.187,6.561-44.854,18.474c-1.639,1.669-3.179,3.446-4.702,5.423
				c-3.478,3.933-4.504,5.257-5.331,6.325l-0.333,0.429c-9.684,12.325-14.149,28.065-12.571,44.318
				c1.575,16.221,9.078,31.617,21.127,43.354c13.381,13.04,30.705,20.222,48.778,20.222c14.464,0,28.367-4.854,39.163-13.67
				c0.12-0.074,0.364-0.216,0.564-0.33c1.576-0.906,4.209-2.419,8.332-6.173c1.175-1.012,2.235-1.991,3.242-2.991
				c0.271-0.26,0.461-0.443,0.574-0.561c11.477-11.717,17.686-27.482,17.487-44.395c-0.216-18.375-8.169-36.542-21.82-49.842
				C134.346,39.651,116.708,32.341,98.309,32.341L98.309,32.341z"/>
		</g>
	</g>
</g>
</svg>
