<?xml version="1.0" encoding="utf-8"?>
<!-- Generator: Adobe Illustrator 15.0.0, SVG Export Plug-In . SVG Version: 6.00 Build 0)  -->
<!DOCTYPE svg PUBLIC "-//W3C//DTD SVG 1.1//EN" "http://www.w3.org/Graphics/SVG/1.1/DTD/svg11.dtd">
<svg version="1.1" xmlns="http://www.w3.org/2000/svg" xmlns:xlink="http://www.w3.org/1999/xlink" x="0px" y="0px" width="200px"
	 height="200px" viewBox="0 0 200 200" enable-background="new 0 0 200 200" xml:space="preserve">
<g id="icon">
	<g id="Layer_2">
	</g>
	<g id="Layer_1_1_">
		<g>
			
				<linearGradient id="SVGID_1_" gradientUnits="userSpaceOnUse" x1="295.1367" y1="-117.1265" x2="389.3637" y2="-215.4865" gradientTransform="matrix(0.9245 -0.106 0.1001 -1.0931 -206.1188 -36.7226)">
				<stop  offset="0" style="stop-color:#860A00"/>
				<stop  offset="1" style="stop-color:#320000"/>
			</linearGradient>
			<path fill="url(#SVGID_1_)" d="M129.548,70.146c24.445,23.816,18.468,71.204,18.468,71.204
				c-1.387,1.418-10.637,8.309-12.136,9.535c-22.495,18.448-57.133,16.199-80.048-6.131C32.91,122.427,29.849,87.942,47.81,65.082
				c1.196-1.524,6.694-8.003,8.077-9.416C55.887,55.666,105.102,46.33,129.548,70.146z"/>
			
				<linearGradient id="SVGID_2_" gradientUnits="userSpaceOnUse" x1="142.3486" y1="-10.3154" x2="197.0152" y2="-145.6494" gradientTransform="matrix(1 0 0 -1 -50 61)">
				<stop  offset="0" style="stop-color:#FF0000"/>
				<stop  offset="0.1674" style="stop-color:#F60000"/>
				<stop  offset="0.4388" style="stop-color:#DE0000"/>
				<stop  offset="0.7785" style="stop-color:#B70000"/>
				<stop  offset="1" style="stop-color:#9A0000"/>
			</linearGradient>
			<path fill="url(#SVGID_2_)" d="M143.782,55.611c24.93,24.288,26.821,62.674,4.233,85.739
				c-22.594,23.067-61.116,22.075-86.045-2.207C37.039,114.855,35.149,76.466,57.741,53.4
				C80.332,30.335,118.855,31.324,143.782,55.611z"/>
			<path fill="#FFFFFF" stroke="#A4321C" stroke-width="3" stroke-miterlimit="10" d="M142.496,104.766
				c2.877-0.291,4.98-2.642,4.68-5.257l-1.699-14.455c-0.314-2.618-2.99-4.557-5.959-4.316l-71.586,6.344
				c-2.896,0.279-4.757,2.767-4.168,5.54l3.22,15.313c0.576,2.771,3.312,4.746,6.116,4.412L142.496,104.766z"/>
		</g>
	</g>
</g>
<g id="outline_x5F_white">
	<g>
		<g>
			<path fill="#FFFFFF" d="M98.309,36.729c16.07,0,32.589,6.33,45.474,18.883c24.93,24.288,26.822,62.674,4.232,85.738
				c-0.096,0.099-0.263,0.258-0.479,0.465c-0.979,0.977-1.993,1.902-3.032,2.795c-5.127,4.681-7.514,5.367-8.624,6.275
				c-10.093,8.277-22.63,12.389-35.456,12.389c-15.761,0-31.958-6.207-44.592-18.52C32.91,122.427,29.849,87.942,47.81,65.082
				c0.913-1.164,1.592-2.138,5.575-6.637c1.336-1.747,2.777-3.436,4.356-5.045C68.656,42.256,83.286,36.729,98.309,36.729
				 M98.309,24.729c-18.883,0-36.335,7.201-49.141,20.275c-1.737,1.771-3.434,3.721-5.042,5.797
				c-3.501,3.963-4.578,5.353-5.447,6.475l-0.311,0.4c-10.639,13.542-15.55,30.805-13.822,48.602
				c1.712,17.631,9.849,34.349,22.913,47.072c14.507,14.137,33.317,21.924,52.965,21.924c15.684,0,30.784-5.227,42.598-14.729
				c0.039-0.023,0.08-0.047,0.123-0.07c1.664-0.957,4.744-2.728,9.313-6.879c1.244-1.072,2.377-2.119,3.457-3.19
				c0.313-0.3,0.536-0.519,0.673-0.657c12.6-12.864,19.417-30.146,19.199-48.663c-0.232-19.957-8.848-39.665-23.631-54.068
				C137.404,32.644,118.282,24.729,98.309,24.729L98.309,24.729z"/>
		</g>
	</g>
</g>
<g id="outline_x5F_black">
	<g>
		<path d="M98.309,36.729c16.07,0,32.591,6.33,45.474,18.883c24.93,24.288,26.822,62.674,4.232,85.738
			c-0.096,0.099-0.263,0.258-0.479,0.465c-0.979,0.977-1.993,1.902-3.032,2.795c-5.127,4.681-7.514,5.367-8.624,6.275
			c-10.093,8.277-22.63,12.389-35.456,12.389c-15.761,0-31.958-6.207-44.592-18.52C32.91,122.427,29.849,87.942,47.81,65.082
			c0.913-1.164,1.592-2.138,5.575-6.637c1.336-1.747,2.777-3.436,4.356-5.045C68.656,42.256,83.286,36.729,98.309,36.729
			 M98.309,30.729c-17.257,0-33.187,6.561-44.854,18.474c-1.62,1.65-3.202,3.476-4.703,5.424c-3.477,3.932-4.503,5.257-5.33,6.324
			l-0.333,0.429c-9.684,12.325-14.149,28.065-12.571,44.319c1.575,16.22,9.078,31.617,21.127,43.354
			c13.381,13.039,30.704,20.221,48.778,20.221c14.466,0,28.368-4.854,39.165-13.67c0.12-0.074,0.364-0.215,0.564-0.33
			c1.576-0.905,4.207-2.418,8.326-6.17c1.176-1.011,2.237-1.99,3.246-2.992c0.271-0.26,0.461-0.443,0.574-0.561
			c11.477-11.718,17.686-27.482,17.487-44.396c-0.216-18.375-8.168-36.542-21.819-49.84
			C134.346,38.039,116.709,30.729,98.309,30.729L98.309,30.729z"/>
	</g>
</g>
</svg>
