<?xml version="1.0" encoding="utf-8"?>
<!-- Generator: Adobe Illustrator 15.0.0, SVG Export Plug-In . SVG Version: 6.00 Build 0)  -->
<!DOCTYPE svg PUBLIC "-//W3C//DTD SVG 1.1//EN" "http://www.w3.org/Graphics/SVG/1.1/DTD/svg11.dtd">
<svg version="1.1" xmlns="http://www.w3.org/2000/svg" xmlns:xlink="http://www.w3.org/1999/xlink" x="0px" y="0px" width="200px"
	 height="200px" viewBox="0 0 200 200" enable-background="new 0 0 200 200" xml:space="preserve">
<g id="icon">
	<g id="Layer_2">
	</g>
	<g id="Layer_1_1_">
		<g>
			<g>
				
					<linearGradient id="SVGID_1_" gradientUnits="userSpaceOnUse" x1="292.5771" y1="-118.3545" x2="386.8041" y2="-216.7145" gradientTransform="matrix(0.9245 -0.106 0.1001 -1.0931 -206.1188 -36.7226)">
					<stop  offset="0" style="stop-color:#08A4FF"/>
					<stop  offset="1" style="stop-color:#00497E"/>
				</linearGradient>
				<path fill="url(#SVGID_1_)" d="M127.059,71.759c24.445,23.816,18.469,71.204,18.469,71.204
					c-1.387,1.418-10.637,8.309-12.137,9.535c-22.494,18.447-57.133,16.199-80.048-6.131C30.421,124.04,27.359,89.556,45.32,66.695
					c1.196-1.524,6.695-8.003,8.077-9.416C53.397,57.279,102.611,47.943,127.059,71.759z"/>
				
					<linearGradient id="SVGID_2_" gradientUnits="userSpaceOnUse" x1="139.8604" y1="-11.9297" x2="194.5274" y2="-147.2647" gradientTransform="matrix(1 0 0 -1 -50 61)">
					<stop  offset="0.1758" style="stop-color:#08A4FF"/>
					<stop  offset="1" style="stop-color:#367CBD"/>
				</linearGradient>
				<path fill="url(#SVGID_2_)" d="M141.293,57.225c24.93,24.288,26.822,62.673,4.232,85.738
					c-22.592,23.068-61.114,22.076-86.044-2.207C34.55,116.469,32.66,78.079,55.252,55.014
					C77.843,31.948,116.366,32.938,141.293,57.225z"/>
				<g>
					<path fill="#FFFFFF" d="M102.209,128.655c-2.532,0-4.88-1.076-6.126-2.808c-0.81-1.123-1.573-3.066-0.614-5.938l4.635-13.855
						c-7.297-2.937-15.453-4.856-23.684-5.571c-1.819-0.157-3.623-0.234-5.514-0.234c-1.371,0-2.582,0.039-3.653,0.074
						c-0.879,0.028-1.667,0.053-2.373,0.053c-2.775,0-5.58-0.328-6.713-4.252c-1.15-3.991-1.23-7.144-0.237-9.369
						c1.047-2.346,4.833-3.943,12.275-5.179c4.679-0.777,9.497-1.171,14.318-1.171c7.886,0,15.843,1.073,23.11,3.111l4.65-13.91
						c0.869-2.605,2.906-4.099,5.585-4.099c2.784,0,5.801,1.715,7.014,3.99l17.394,32.643c1.012,1.896,1.199,4.033,0.531,6.02
						c-0.664,1.976-2.097,3.555-4.031,4.447l-33.459,15.418C104.42,128.438,103.346,128.655,102.209,128.655L102.209,128.655z"/>
					<g>
						<path fill="#427796" d="M117.869,67.006c2.277,0,4.744,1.423,5.689,3.196l17.394,32.641c1.68,3.151,0.424,6.911-2.806,8.399
							l-33.457,15.419c-0.709,0.325-1.578,0.494-2.48,0.494c-3.216,0-6.87-2.125-5.317-6.771l5.079-15.184
							c-6.892-2.926-15.538-5.355-25.421-6.213c-2.128-0.186-3.999-0.24-5.644-0.24c-2.49,0-4.462,0.127-6.026,0.127
							c-2.988,0-4.491-0.465-5.271-3.168c-0.656-2.275-1.415-5.863-0.309-8.342c1.068-2.395,7.387-3.686,11.151-4.311
							c4.689-0.779,9.413-1.151,14.072-1.151c8.438,0,16.663,1.22,24.077,3.454l5.106-15.277
							C114.447,67.864,116.102,67.006,117.869,67.006 M117.869,64.006c-3.316,0-5.938,1.916-7.008,5.125l-4.201,12.567
							c-7.02-1.832-14.611-2.793-22.137-2.793c-4.903,0-9.804,0.401-14.563,1.191c-8.102,1.345-12.108,3.154-13.399,6.047
							c-1.143,2.558-1.087,6.056,0.165,10.396c1.541,5.337,5.843,5.337,8.154,5.337c0.74,0,1.557-0.026,2.421-0.054
							c1.062-0.034,2.265-0.073,3.605-0.073c1.847,0,3.608,0.075,5.384,0.229c7.593,0.658,15.118,2.361,21.938,4.953l-4.182,12.504
							c-0.906,2.709-0.615,5.299,0.819,7.291c1.546,2.146,4.291,3.43,7.343,3.43c1.351,0,2.644-0.266,3.733-0.77l33.461-15.42
							c2.313-1.066,4.027-2.96,4.826-5.331c0.801-2.381,0.576-4.938-0.631-7.204l-17.393-32.64
							C124.729,66.018,121.223,64.006,117.869,64.006L117.869,64.006z"/>
					</g>
				</g>
			</g>
		</g>
	</g>
</g>
<g id="outline_x5F_white">
	<g>
		<g>
			<path fill="#FFFFFF" d="M95.819,38.342c16.07,0,32.59,6.33,45.474,18.883c24.93,24.288,26.822,62.673,4.232,85.738
				c-0.096,0.098-0.262,0.258-0.479,0.464c-0.979,0.978-1.992,1.903-3.031,2.796c-5.127,4.68-7.515,5.366-8.625,6.275
				c-10.093,8.277-22.629,12.388-35.456,12.388c-15.761,0-31.958-6.206-44.592-18.519C30.421,124.04,27.359,89.556,45.32,66.695
				c0.913-1.164,1.592-2.138,5.575-6.637c1.337-1.747,2.777-3.436,4.356-5.045C66.167,43.87,80.797,38.342,95.819,38.342
				 M95.819,26.342c-18.883,0-36.335,7.201-49.141,20.275c-1.758,1.792-3.413,3.694-5.042,5.797
				c-3.502,3.963-4.578,5.353-5.447,6.475l-0.311,0.4c-10.639,13.542-15.55,30.805-13.822,48.602
				c1.712,17.631,9.849,34.349,22.913,47.072c14.507,14.137,33.317,21.923,52.965,21.923c15.683,0,30.784-5.226,42.597-14.728
				c0.039-0.023,0.08-0.047,0.123-0.071c1.664-0.956,4.744-2.728,9.316-6.88c1.244-1.073,2.377-2.119,3.454-3.189
				c0.313-0.3,0.536-0.519,0.673-0.656c12.6-12.864,19.418-30.146,19.199-48.663c-0.232-19.957-8.847-39.665-23.631-54.068
				C134.916,34.257,115.793,26.342,95.819,26.342L95.819,26.342z"/>
		</g>
	</g>
</g>
<g id="outline_x5F_black">
	<g>
		<g>
			<path fill="#231F20" d="M95.819,38.342c16.07,0,32.591,6.33,45.474,18.883c24.93,24.288,26.822,62.673,4.232,85.738
				c-0.096,0.098-0.262,0.258-0.479,0.464c-0.979,0.978-1.992,1.903-3.031,2.796c-5.127,4.68-7.515,5.366-8.625,6.275
				c-10.093,8.277-22.629,12.388-35.456,12.388c-15.761,0-31.958-6.206-44.592-18.519C30.421,124.04,27.359,89.556,45.32,66.695
				c0.913-1.164,1.592-2.138,5.575-6.637c1.337-1.747,2.777-3.436,4.356-5.045C66.167,43.87,80.797,38.342,95.819,38.342
				 M95.819,32.342c-17.257,0-33.187,6.561-44.854,18.474c-1.639,1.669-3.179,3.446-4.702,5.423
				c-3.478,3.932-4.504,5.257-5.331,6.324L40.6,62.992c-9.684,12.325-14.149,28.065-12.571,44.318
				c1.575,16.221,9.078,31.617,21.127,43.354c13.381,13.039,30.704,20.222,48.778,20.222c14.464,0,28.368-4.854,39.166-13.671
				c0.119-0.075,0.363-0.216,0.564-0.331c1.576-0.904,4.207-2.418,8.329-6.171c1.175-1.012,2.237-1.991,3.241-2.991
				c0.271-0.259,0.461-0.442,0.576-0.56c11.476-11.718,17.686-27.483,17.486-44.396c-0.216-18.375-8.168-36.542-21.818-49.841
				C131.855,39.652,114.221,32.342,95.819,32.342L95.819,32.342z"/>
		</g>
	</g>
</g>
</svg>
