<?xml version="1.0" encoding="utf-8"?>
<!-- Generator: Adobe Illustrator 15.0.0, SVG Export Plug-In . SVG Version: 6.00 Build 0)  -->
<!DOCTYPE svg PUBLIC "-//W3C//DTD SVG 1.1//EN" "http://www.w3.org/Graphics/SVG/1.1/DTD/svg11.dtd">
<svg version="1.1" xmlns="http://www.w3.org/2000/svg" xmlns:xlink="http://www.w3.org/1999/xlink" x="0px" y="0px" width="200px"
	 height="200px" viewBox="0 0 200 200" enable-background="new 0 0 200 200" xml:space="preserve">
<g id="icon">
	<g id="Layer_2">
	</g>
	<g id="Layer_1_1_">
		<g>
			<g>
				
					<linearGradient id="SVGID_1_" gradientUnits="userSpaceOnUse" x1="186.8125" y1="544.335" x2="213.9116" y2="482.5494" gradientTransform="matrix(0.9614 0.275 0.275 -0.9614 -238.3962 514.0651)">
					<stop  offset="0" style="stop-color:#70AB00"/>
					<stop  offset="1" style="stop-color:#284700"/>
				</linearGradient>
				<path fill="url(#SVGID_1_)" d="M38.867,88.839c-2.51-14.501-2.531-23.389,1.701-29.279c4.232-5.889,3.564-11.489,18.068-14
					l44.109,1.558c29.002-5.02,39.563,1.335,44.585,30.339l13.475,45.521c2.377,13.727-1.503,16.853-5.033,22.53
					c-3.933,6.323-12.479,9.149-27.758,11.794l-39.991,6.68c-29.004,5.021-38.764-1.887-43.783-30.891L38.867,88.839z"/>
			</g>
			<g>
				
					<linearGradient id="SVGID_2_" gradientUnits="userSpaceOnUse" x1="215.3232" y1="550.0039" x2="206.5757" y2="398.3811" gradientTransform="matrix(0.9614 0.275 0.275 -0.9614 -238.3962 514.0651)">
					<stop  offset="0.1758" style="stop-color:#96DC00"/>
					<stop  offset="1" style="stop-color:#366100"/>
				</linearGradient>
				<path fill="url(#SVGID_2_)" d="M43.24,80.796c-5.021-29.002-0.084-35.548,28.92-40.568l36.959-4.152
					c29-5.021,39.562,1.333,44.584,30.338l7.404,43.146c5.021,29.006,0.283,34.682-28.724,39.699l-39.988,6.68
					c-29.004,5.021-38.764-1.887-43.785-30.891L43.24,80.796z"/>
			</g>
			<path fill="#FFFFFF" stroke="#497E58" stroke-width="3" stroke-miterlimit="10" d="M127.186,103.021
				c-4.711,0-8.912,2.172-11.668,5.564l-21.91-10.271c0.062-0.559,0.103-1.123,0.103-1.698c0-2.6-0.661-5.044-1.823-7.177
				l17.545-12.23c2.485,1.822,5.543,2.91,8.859,2.91c8.298,0,15.023-6.727,15.023-15.024c0-8.297-6.727-15.024-15.023-15.024
				s-15.023,6.727-15.023,15.024c0,2.603,0.662,5.051,1.828,7.186L87.689,84.61c-2.511-1.887-5.621-3.018-9.004-3.018
				c-8.299,0-15.024,6.727-15.024,15.024c0,8.297,6.726,15.024,15.024,15.024c5.434,0,10.179-2.896,12.817-7.216l21.154,9.851
				c-0.312,1.205-0.496,2.465-0.496,3.77c0,8.298,6.727,15.023,15.023,15.023c8.299,0,15.024-6.727,15.024-15.023
				S135.482,103.021,127.186,103.021z"/>
		</g>
	</g>
</g>
<g id="outline_x5F_white">
	<g>
		<g>
			<path fill="#FFFFFF" d="M124.458,34.518c17.677,0,25.229,8.713,29.245,31.895l7.404,43.147
				c2.449,14.146,2.563,22.732-1.312,28.41c-1.609,4.354-2.146,4.516-4.023,7.537c-3.933,6.323-12.479,9.149-27.758,11.794
				l-39.991,6.681c-5.639,0.976-10.546,1.5-14.836,1.5c-17.779,0-24.903-9.025-28.947-32.392l-5.373-44.253
				c-2.51-14.501-2.531-23.389,1.701-29.279c1.595-2.219,0.779-1.823,2.41-4.342c3.189-8.476,11.926-12.003,29.182-14.99
				l36.959-4.152C114.939,35.067,120.018,34.518,124.458,34.518 M124.458,22.518c-4.875,0-10.446,0.547-17.026,1.671l-36.611,4.113
				c-0.236,0.026-0.473,0.06-0.707,0.101c-15.736,2.725-31.581,6.635-37.874,21.362c-0.712,1.194-1.121,2.073-1.43,2.81
				c-6.908,9.631-6.539,22.167-3.819,38.006l5.337,43.956c0.024,0.201,0.054,0.4,0.088,0.6
				c3.624,20.939,11.302,42.346,40.771,42.346c4.832,0,10.341-0.547,16.84-1.67l39.964-6.674c0.022-0.005,0.047-0.009,0.069-0.013
				c14.854-2.571,28.778-5.827,35.9-17.282c0.359-0.578,0.657-1.021,0.971-1.492c1.31-1.959,2.31-3.568,3.646-6.975
				c5.507-9.184,4.993-20.62,2.354-35.863l-7.402-43.131c-2.51-14.495-6.344-23.949-12.434-30.669
				C146.27,26.18,136.9,22.518,124.458,22.518L124.458,22.518z"/>
		</g>
	</g>
</g>
<g id="outline_x5F_black">
	<g>
		<path fill="#231F20" d="M124.458,34.518c17.677,0,25.229,8.713,29.245,31.895l7.404,43.147c2.449,14.146,2.563,22.732-1.312,28.41
			c-1.609,4.354-2.146,4.516-4.023,7.537c-3.933,6.323-12.479,9.149-27.758,11.794l-39.991,6.681
			c-5.639,0.976-10.546,1.5-14.836,1.5c-17.779,0-24.903-9.025-28.947-32.392l-5.373-44.253c-2.51-14.501-2.531-23.389,1.701-29.279
			c1.595-2.219,0.779-1.823,2.41-4.342c3.189-8.476,11.926-12.003,29.182-14.99l36.959-4.152
			C114.939,35.067,120.02,34.518,124.458,34.518 M124.458,28.518c-4.573,0-9.868,0.528-16.185,1.614L71.49,34.265l-0.178,0.02
			l-0.176,0.03c-17.77,3.076-29.012,7.065-33.535,18.178c-0.77,1.247-1.108,2.024-1.387,2.715c-0.025,0.062-0.046,0.122-0.077,0.187
			l0,0c0,0-0.09,0.173-0.442,0.662c-5.747,7.998-5.327,18.811-2.767,33.654l5.355,44.104l0.018,0.15l0.026,0.149
			c3.882,22.43,11.295,37.368,34.859,37.368c4.495,0,9.683-0.521,15.859-1.59l39.956-6.674c16.209-2.806,26.603-6.08,31.864-14.544
			c0.412-0.663,0.75-1.169,1.076-1.657c1.18-1.765,1.99-3.055,3.236-6.319c4.822-7.675,4.283-18.044,1.84-32.162l-7.403-43.139
			c-2.304-13.3-5.685-21.827-10.966-27.655C142.945,31.449,135.26,28.518,124.458,28.518L124.458,28.518z"/>
	</g>
</g>
</svg>
