<?xml version="1.0" encoding="utf-8"?>
<!-- Generator: Adobe Illustrator 15.0.0, SVG Export Plug-In . SVG Version: 6.00 Build 0)  -->
<!DOCTYPE svg PUBLIC "-//W3C//DTD SVG 1.1//EN" "http://www.w3.org/Graphics/SVG/1.1/DTD/svg11.dtd">
<svg version="1.1" xmlns="http://www.w3.org/2000/svg" xmlns:xlink="http://www.w3.org/1999/xlink" x="0px" y="0px" width="200px"
	 height="200px" viewBox="0 0 200 200" enable-background="new 0 0 200 200" xml:space="preserve">
<g id="icon">
	<g id="Layer_2">
	</g>
	<g id="Layer_1_1_">
		<g>
			
				<linearGradient id="SVGID_1_" gradientUnits="userSpaceOnUse" x1="295.2969" y1="-118.6187" x2="389.5233" y2="-216.9781" gradientTransform="matrix(0.9245 -0.106 0.1001 -1.0931 -206.1188 -36.7226)">
				<stop  offset="0" style="stop-color:#860A00"/>
				<stop  offset="1" style="stop-color:#320000"/>
			</linearGradient>
			<path fill="url(#SVGID_1_)" d="M129.548,71.759c24.445,23.816,18.468,71.204,18.468,71.204
				c-1.387,1.418-10.637,8.309-12.136,9.535c-22.495,18.447-57.133,16.197-80.048-6.131C32.91,124.04,29.849,89.556,47.81,66.695
				c1.196-1.524,6.695-8.003,8.077-9.416C55.887,57.279,105.102,47.943,129.548,71.759z"/>
			
				<linearGradient id="SVGID_2_" gradientUnits="userSpaceOnUse" x1="142.3496" y1="-11.9307" x2="197.0158" y2="-147.2635" gradientTransform="matrix(1 0 0 -1 -50 61)">
				<stop  offset="0" style="stop-color:#FF0000"/>
				<stop  offset="0.1674" style="stop-color:#F60000"/>
				<stop  offset="0.4388" style="stop-color:#DE0000"/>
				<stop  offset="0.7785" style="stop-color:#B70000"/>
				<stop  offset="1" style="stop-color:#9A0000"/>
			</linearGradient>
			<path fill="url(#SVGID_2_)" d="M143.782,57.225c24.93,24.288,26.821,62.673,4.233,85.738
				c-22.594,23.066-61.116,22.075-86.045-2.207c-24.932-24.287-26.821-62.677-4.229-85.742
				C80.332,31.948,118.855,32.938,143.782,57.225z"/>
			<path fill="#FFFFFF" stroke="#A4321C" stroke-width="3" stroke-miterlimit="10" d="M116.758,62.857l-13.101,15.714L87.319,63.843
				c-2.144-1.941-5.298-1.928-7.038,0.048l-9.59,10.947c-1.733,1.988-1.379,5.272,0.787,7.315l16.51,15.497L74.97,113.736
				c-1.704,2.121-1.313,5.568,0.874,7.689l12.055,11.645c2.184,2.1,5.314,1.99,6.996-0.233l12.847-16.854l16.412,15.062
				c2.148,1.962,5.242,1.679,6.906-0.618l9.209-12.65c1.672-2.284,1.305-5.64-0.821-7.496l-16.243-14.294L136.133,79.5
				c1.699-2.149,1.369-5.337-0.744-7.129l-11.676-9.94C121.594,60.619,118.479,60.807,116.758,62.857z"/>
		</g>
	</g>
</g>
<g id="outline_x5F_white">
	<g>
		<g>
			<path fill="#FFFFFF" d="M98.309,38.342c16.07,0,32.589,6.33,45.474,18.883c24.93,24.288,26.822,62.673,4.232,85.738
				c-0.096,0.098-0.263,0.258-0.479,0.464c-0.979,0.978-1.993,1.903-3.031,2.796c-5.128,4.68-7.515,5.366-8.625,6.275
				c-10.093,8.277-22.629,12.388-35.455,12.388c-15.761,0-31.959-6.208-44.593-18.519C32.91,124.04,29.849,89.556,47.81,66.695
				c0.913-1.164,1.592-2.138,5.575-6.637c1.337-1.747,2.777-3.436,4.356-5.045C68.656,43.87,83.286,38.342,98.309,38.342
				 M98.309,26.342c-18.883,0-36.335,7.201-49.141,20.275c-1.758,1.792-3.413,3.694-5.042,5.797
				c-3.502,3.963-4.578,5.353-5.447,6.475l-0.311,0.4c-10.639,13.542-15.55,30.805-13.822,48.602
				c1.712,17.631,9.849,34.349,22.913,47.072c14.507,14.137,33.318,21.923,52.966,21.923c15.683,0,30.783-5.227,42.597-14.728
				c0.039-0.023,0.08-0.047,0.123-0.071c1.664-0.956,4.744-2.728,9.315-6.88c1.245-1.073,2.378-2.119,3.455-3.189
				c0.313-0.3,0.536-0.519,0.673-0.656c12.6-12.864,19.417-30.146,19.199-48.663c-0.232-19.958-8.848-39.665-23.631-54.068
				C137.404,34.257,118.282,26.342,98.309,26.342L98.309,26.342z"/>
		</g>
	</g>
</g>
<g id="outline_x5F_black">
	<g>
		<path d="M98.309,38.342c16.07,0,32.591,6.33,45.474,18.883c24.93,24.288,26.822,62.673,4.232,85.738
			c-0.096,0.098-0.263,0.258-0.479,0.464c-0.979,0.978-1.993,1.903-3.031,2.796c-5.128,4.68-7.515,5.366-8.625,6.275
			c-10.093,8.277-22.629,12.388-35.455,12.388c-15.761,0-31.959-6.208-44.593-18.519C32.91,124.04,29.849,89.556,47.81,66.695
			c0.913-1.164,1.592-2.138,5.575-6.637c1.337-1.747,2.777-3.436,4.356-5.045C68.656,43.87,83.286,38.342,98.309,38.342
			 M98.309,32.342c-17.257,0-33.187,6.561-44.854,18.474c-1.639,1.669-3.179,3.446-4.702,5.423
			c-3.478,3.932-4.504,5.257-5.331,6.324l-0.333,0.429c-9.684,12.325-14.149,28.065-12.571,44.318
			c1.575,16.221,9.078,31.617,21.127,43.354c13.381,13.039,30.705,20.222,48.779,20.222c14.465,0,28.367-4.854,39.164-13.671
			c0.12-0.075,0.364-0.216,0.564-0.331c1.576-0.904,4.207-2.418,8.33-6.171c1.175-1.012,2.236-1.991,3.242-2.991
			c0.271-0.259,0.461-0.442,0.574-0.56c11.477-11.718,17.686-27.483,17.487-44.396c-0.216-18.375-8.168-36.542-21.819-49.841
			C134.346,39.652,116.709,32.342,98.309,32.342L98.309,32.342z"/>
	</g>
</g>
</svg>
