<?xml version="1.0" encoding="utf-8"?>
<!-- Generator: Adobe Illustrator 15.0.0, SVG Export Plug-In . SVG Version: 6.00 Build 0)  -->
<!DOCTYPE svg PUBLIC "-//W3C//DTD SVG 1.1//EN" "http://www.w3.org/Graphics/SVG/1.1/DTD/svg11.dtd">
<svg version="1.1" xmlns="http://www.w3.org/2000/svg" xmlns:xlink="http://www.w3.org/1999/xlink" x="0px" y="0px" width="200px"
	 height="200px" viewBox="0 0 200 200" enable-background="new 0 0 200 200" xml:space="preserve">
<g id="icon">
	<g id="Layer_2">
	</g>
	<g id="Layer_1_1_">
		<g>
			<g>
				<path fill="#A65E1E" d="M38.867,88.839c-2.51-14.502-2.531-23.389,1.701-29.279c4.232-5.889,3.563-11.49,18.068-14l44.108,1.557
					c29.003-5.02,39.564,1.336,44.586,30.34l13.475,45.521c2.377,13.727-1.503,16.852-5.033,22.53
					c-3.932,6.322-12.479,9.148-27.758,11.793l-39.992,6.681c-29.003,5.02-38.764-1.887-43.783-30.892L38.867,88.839z"/>
			</g>
			<g>
				
					<linearGradient id="SVGID_1_" gradientUnits="userSpaceOnUse" x1="215.3223" y1="550.0049" x2="209.0282" y2="440.9085" gradientTransform="matrix(0.9614 0.275 0.275 -0.9614 -238.3962 514.0651)">
					<stop  offset="0" style="stop-color:#FFE300"/>
					<stop  offset="1" style="stop-color:#F7941E"/>
				</linearGradient>
				<path fill="url(#SVGID_1_)" d="M43.239,80.796c-5.021-29.002-0.084-35.549,28.92-40.568l36.96-4.152
					c29.001-5.021,39.562,1.332,44.584,30.338l7.402,43.146c5.022,29.006,0.283,34.682-28.721,39.698l-39.99,6.681
					c-29.003,5.021-38.764-1.888-43.784-30.892L43.239,80.796z"/>
			</g>
			<g>
				<g>
					<path fill="#FFFFFF" d="M75.546,143.294c-5.356,0-9.966-4.005-10.724-9.313c-0.844-5.92,3.285-11.424,9.205-12.271
						c0.511-0.072,1.03-0.109,1.543-0.109c5.358,0,9.969,4.004,10.726,9.313c0.409,2.868-0.323,5.726-2.062,8.042
						c-1.739,2.316-4.274,3.818-7.143,4.229C76.58,143.256,76.06,143.294,75.546,143.294z"/>
					<path fill="#A46F1C" d="M75.57,123.1c4.577,0,8.576,3.364,9.24,8.025c0.729,5.109-2.821,9.846-7.931,10.573
						c-0.448,0.063-0.894,0.095-1.334,0.095c-4.575,0-8.573-3.363-9.238-8.025c-0.729-5.108,2.822-9.843,7.932-10.572
						C74.687,123.131,75.131,123.1,75.57,123.1 M75.571,120.1C75.57,120.1,75.57,120.1,75.571,120.1
						c-0.585,0-1.175,0.043-1.756,0.125c-6.738,0.963-11.438,7.229-10.478,13.967c0.861,6.045,6.11,10.604,12.208,10.604
						c0.585,0,1.177-0.043,1.759-0.126c3.264-0.465,6.151-2.175,8.13-4.813c1.979-2.638,2.812-5.889,2.346-9.152
						C86.92,124.657,81.671,120.1,75.571,120.1L75.571,120.1z"/>
				</g>
				<g>
					<path fill="#FFFFFF" d="M132.189,135.466c-0.73,0-1.371-0.534-1.48-1.28c-4.629-31.24-31.916-54.798-63.474-54.798
						c-2.895,0-5.825,0.2-8.712,0.593c-0.068,0.009-0.137,0.014-0.204,0.014c-0.735,0-1.376-0.54-1.483-1.288l-2.089-14.643
						c-0.056-0.395,0.048-0.796,0.288-1.115c0.24-0.319,0.598-0.528,0.993-0.583c3.716-0.511,7.489-0.77,11.217-0.77
						c40.342,0,75.194,30.12,81.071,70.062c0.058,0.396-0.045,0.797-0.282,1.116c-0.239,0.318-0.597,0.531-0.99,0.588l-14.64,2.09
						C132.332,135.461,132.262,135.466,132.189,135.466z"/>
					<path fill="#A46F1C" d="M67.245,63.095c39.272,0,73.714,28.862,79.587,68.781l-14.641,2.09
						c-4.821-32.554-32.915-56.08-64.957-56.08c-2.942,0-5.92,0.199-8.914,0.607L56.232,63.85
						C59.935,63.342,63.606,63.095,67.245,63.095 M67.245,60.095c-3.795,0-7.638,0.264-11.421,0.784
						c-0.791,0.109-1.506,0.528-1.987,1.166c-0.48,0.637-0.688,1.44-0.574,2.23l2.089,14.643c0.213,1.496,1.496,2.576,2.966,2.576
						c0.135,0,0.271-0.009,0.409-0.027c2.819-0.385,5.683-0.579,8.509-0.579c30.819,0,57.47,23.008,61.989,53.519
						c0.221,1.489,1.502,2.561,2.965,2.561c0.142,0,0.283-0.01,0.428-0.03l14.64-2.09c0.79-0.111,1.502-0.535,1.979-1.175
						c0.478-0.639,0.681-1.442,0.563-2.231c-2.929-19.906-12.974-38.091-28.284-51.202C106.348,67.248,87.073,60.095,67.245,60.095
						L67.245,60.095z"/>
				</g>
				<g>
					<path fill="#FFFFFF" d="M103.048,139.627c-0.729,0-1.368-0.532-1.479-1.273c-2.568-16.832-17.335-29.525-34.35-29.525
						c-1.508,0-3.035,0.102-4.54,0.298c-0.066,0.009-0.132,0.013-0.197,0.013c-0.735,0-1.376-0.539-1.483-1.287l-2.092-14.647
						c-0.056-0.396,0.048-0.798,0.289-1.117c0.241-0.318,0.6-0.528,0.996-0.581c2.331-0.313,4.698-0.473,7.035-0.473
						c25.796,0,48.13,19.253,51.953,44.783c0.061,0.395-0.041,0.797-0.279,1.117c-0.239,0.32-0.596,0.532-0.991,0.59l-14.646,2.091
						C103.189,139.622,103.118,139.627,103.048,139.627z"/>
					<path fill="#A46F1C" d="M67.227,92.531c24.875,0,46.688,18.246,50.47,43.505l-14.646,2.091
						c-2.729-17.891-18.194-30.8-35.831-30.8c-1.563,0-3.146,0.103-4.735,0.312L60.392,92.99
						C62.688,92.682,64.97,92.531,67.227,92.531 M67.227,89.531c-2.404,0-4.838,0.163-7.234,0.485
						C59.2,90.123,58.482,90.541,58,91.18c-0.482,0.638-0.69,1.441-0.577,2.233l2.092,14.647c0.213,1.494,1.495,2.575,2.966,2.575
						c0.13,0,0.262-0.008,0.394-0.024c1.44-0.188,2.902-0.285,4.346-0.285c16.279,0,30.408,12.146,32.865,28.252
						c0.227,1.482,1.504,2.548,2.962,2.548c0.142,0,0.284-0.01,0.429-0.03l14.646-2.091c0.791-0.112,1.505-0.537,1.981-1.178
						c0.478-0.642,0.68-1.446,0.562-2.236c-1.925-12.858-8.438-24.601-18.345-33.062C92.507,94.147,80.044,89.531,67.227,89.531
						L67.227,89.531z"/>
				</g>
			</g>
		</g>
	</g>
</g>
<g id="outline_x5F_white">
	<g>
		<g>
			<path fill="#FFFFFF" d="M124.46,34.518c17.674,0,25.229,8.714,29.243,31.896l7.402,43.146
				c2.451,14.146,2.565,22.733-1.311,28.412c-1.609,4.354-2.146,4.516-4.023,7.536c-3.932,6.322-12.479,9.148-27.758,11.793
				l-39.992,6.681c-5.638,0.976-10.545,1.5-14.836,1.5c-17.779,0-24.903-9.025-28.947-32.392l-5.372-44.252
				c-2.51-14.502-2.531-23.389,1.701-29.279c1.595-2.219,0.778-1.824,2.41-4.342c3.189-8.477,11.926-12.004,29.181-14.99
				l36.96-4.152C114.941,35.067,120.02,34.518,124.46,34.518 M124.46,22.518c-4.875,0-10.448,0.547-17.028,1.672L70.82,28.303
				c-0.236,0.026-0.472,0.06-0.707,0.101c-15.735,2.723-31.578,6.633-37.872,21.36c-0.713,1.196-1.123,2.076-1.432,2.815
				c-6.906,9.631-6.537,22.165-3.818,38.004l5.336,43.955c0.024,0.2,0.054,0.399,0.088,0.601
				c3.624,20.938,11.302,42.346,40.771,42.346c4.833,0,10.343-0.547,16.843-1.67l39.962-6.676c0.022-0.004,0.047-0.008,0.069-0.012
				c14.855-2.57,28.78-5.828,35.901-17.281c0.361-0.582,0.658-1.025,0.972-1.496c1.31-1.957,2.309-3.567,3.644-6.971
				c5.508-9.184,4.993-20.621,2.354-35.865l-7.4-43.129c-2.51-14.495-6.344-23.948-12.434-30.669
				C146.27,26.18,136.902,22.518,124.46,22.518L124.46,22.518z"/>
		</g>
	</g>
</g>
<g id="outline_x5F_black">
	<g>
		<g>
			<path fill="#231F20" d="M124.46,34.518c17.674,0,25.229,8.714,29.243,31.896l7.402,43.146
				c2.451,14.146,2.565,22.733-1.311,28.412c-1.609,4.354-2.146,4.516-4.023,7.536c-3.932,6.322-12.479,9.148-27.758,11.793
				l-39.992,6.681c-5.638,0.976-10.545,1.5-14.836,1.5c-17.779,0-24.903-9.025-28.947-32.392l-5.372-44.252
				c-2.51-14.502-2.531-23.389,1.701-29.279c1.595-2.219,0.778-1.824,2.41-4.342c3.189-8.477,11.926-12.004,29.181-14.99
				l36.96-4.152C114.941,35.067,120.02,34.518,124.46,34.518 M124.46,28.518c-4.573,0-9.869,0.528-16.187,1.615l-36.785,4.133
				l-0.178,0.02l-0.176,0.03c-17.768,3.075-29.01,7.064-33.533,18.177c-0.771,1.248-1.11,2.026-1.389,2.718
				c-0.024,0.062-0.046,0.122-0.077,0.187l0,0c0,0-0.09,0.173-0.44,0.661c-5.746,7.998-5.326,18.811-2.767,33.654l5.354,44.102
				l0.018,0.151l0.026,0.149c3.882,22.43,11.295,37.367,34.859,37.367c4.496,0,9.684-0.52,15.859-1.588l39.957-6.674
				c16.21-2.807,26.604-6.082,31.864-14.544c0.413-0.666,0.752-1.172,1.079-1.661c1.178-1.764,1.988-3.053,3.234-6.315
				c4.821-7.675,4.282-18.044,1.838-32.164l-7.401-43.137c-2.304-13.3-5.685-21.826-10.968-27.655
				C142.945,31.449,135.26,28.518,124.46,28.518L124.46,28.518z"/>
		</g>
	</g>
</g>
</svg>
