<?xml version="1.0" encoding="utf-8"?>
<!-- Generator: Adobe Illustrator 15.0.0, SVG Export Plug-In . SVG Version: 6.00 Build 0)  -->
<!DOCTYPE svg PUBLIC "-//W3C//DTD SVG 1.1//EN" "http://www.w3.org/Graphics/SVG/1.1/DTD/svg11.dtd">
<svg version="1.1" xmlns="http://www.w3.org/2000/svg" xmlns:xlink="http://www.w3.org/1999/xlink" x="0px" y="0px" width="200px"
	 height="200px" viewBox="0 0 200 200" enable-background="new 0 0 200 200" xml:space="preserve">
<g id="icon">
	<g id="Layer_2">
	</g>
	<g id="Layer_1_1_">
		<g>
			<g>
				
					<linearGradient id="SVGID_1_" gradientUnits="userSpaceOnUse" x1="292.8535" y1="-118.3833" x2="387.0819" y2="-216.7447" gradientTransform="matrix(0.9245 -0.106 0.1001 -1.0931 -206.1188 -36.7226)">
					<stop  offset="0" style="stop-color:#70AB00"/>
					<stop  offset="1" style="stop-color:#284700"/>
				</linearGradient>
				<path fill="url(#SVGID_1_)" d="M127.312,71.759c24.444,23.816,18.469,71.204,18.469,71.204
					c-1.387,1.418-10.639,8.309-12.137,9.535c-22.496,18.447-57.133,16.199-80.049-6.131c-22.921-22.327-25.982-56.812-8.021-79.672
					c1.195-1.524,6.695-8.003,8.076-9.416C53.65,57.279,102.865,47.943,127.312,71.759z"/>
				
					<linearGradient id="SVGID_2_" gradientUnits="userSpaceOnUse" x1="140.1152" y1="-11.9292" x2="194.7821" y2="-147.2637" gradientTransform="matrix(1 0 0 -1 -50 61)">
					<stop  offset="0.1758" style="stop-color:#96DC00"/>
					<stop  offset="1" style="stop-color:#366100"/>
				</linearGradient>
				<path fill="url(#SVGID_2_)" d="M141.547,57.225c24.93,24.288,26.822,62.673,4.234,85.738
					c-22.594,23.068-61.117,22.076-86.047-2.207c-24.93-24.287-26.82-62.677-4.229-85.742
					C78.097,31.948,116.62,32.938,141.547,57.225z"/>
				<g>
					<path fill="#FFFFFF" d="M134.846,80.863l-20.599,1.895l-3.823-21.478c-0.496-2.827-3.055-4.987-5.72-4.813l-14.726,1
						c-2.668,0.188-4.473,2.711-4.023,5.622l3.474,22.131l-20.77,2.208c-2.729,0.301-4.61,2.963-4.192,5.942l2.326,16.389
						c0.426,2.962,3.027,5.041,5.804,4.654l21.12-2.858l3.673,21.76c0.488,2.842,3.167,4.775,5.976,4.326l15.504-2.445
						c2.806-0.437,4.646-3.021,4.11-5.773l-4.024-21.111l20.95-2.545c2.742-0.322,4.508-2.766,3.939-5.466l-3.105-14.941
						C140.182,82.64,137.543,80.626,134.846,80.863z"/>
					<path fill="none" stroke="#497E58" stroke-width="3" stroke-miterlimit="10" d="M134.846,80.863l-20.599,1.895l-3.823-21.478
						c-0.496-2.827-3.055-4.987-5.72-4.813l-14.726,1c-2.668,0.188-4.473,2.711-4.023,5.622l3.474,22.131l-20.77,2.208
						c-2.729,0.301-4.61,2.963-4.192,5.942l2.326,16.389c0.426,2.962,3.027,5.041,5.804,4.654l21.12-2.858l3.673,21.76
						c0.488,2.842,3.167,4.775,5.976,4.326l15.504-2.445c2.806-0.437,4.646-3.021,4.11-5.773l-4.024-21.111l20.95-2.545
						c2.742-0.322,4.508-2.766,3.939-5.466l-3.105-14.941C140.182,82.64,137.543,80.626,134.846,80.863z"/>
				</g>
			</g>
		</g>
	</g>
</g>
<g id="outline_x5F_white">
	<g>
		<g>
			<path fill="#FFFFFF" d="M96.073,38.342c16.069,0,32.591,6.33,45.474,18.883c24.93,24.288,26.822,62.673,4.234,85.738
				c-0.098,0.098-0.264,0.258-0.48,0.464c-0.979,0.978-1.994,1.903-3.031,2.796c-5.127,4.68-7.515,5.366-8.625,6.275
				c-10.093,8.277-22.629,12.388-35.456,12.388c-15.761,0-31.958-6.206-44.593-18.519c-22.921-22.327-25.982-56.812-8.021-79.672
				c0.914-1.164,1.592-2.138,5.575-6.637c1.337-1.747,2.778-3.436,4.356-5.045C66.421,43.87,81.051,38.342,96.073,38.342
				 M96.073,26.342c-18.883,0-36.335,7.201-49.141,20.275c-1.737,1.771-3.433,3.721-5.042,5.796
				c-3.491,3.952-4.569,5.342-5.438,6.464l-0.316,0.406c-10.643,13.546-15.554,30.81-13.826,48.605
				c1.711,17.631,9.849,34.348,22.912,47.072c14.508,14.137,33.318,21.923,52.966,21.923c15.683,0,30.783-5.226,42.596-14.728
				c0.04-0.022,0.082-0.047,0.124-0.071c1.664-0.956,4.746-2.728,9.32-6.883c1.248-1.078,2.379-2.123,3.449-3.187
				c0.264-0.252,0.467-0.447,0.59-0.572c0.029-0.028,0.059-0.058,0.086-0.086c12.599-12.863,19.416-30.146,19.197-48.662
				c-0.232-19.958-8.847-39.666-23.631-54.068C135.17,34.257,116.047,26.342,96.073,26.342L96.073,26.342z"/>
		</g>
	</g>
</g>
<g id="outline_x5F_black">
	<g>
		<g>
			<path fill="#231F20" d="M96.073,38.342c16.069,0,32.591,6.33,45.474,18.883c24.93,24.288,26.822,62.673,4.234,85.738
				c-0.098,0.098-0.264,0.258-0.48,0.464c-0.979,0.978-1.994,1.903-3.031,2.796c-5.127,4.68-7.515,5.366-8.625,6.275
				c-10.093,8.277-22.629,12.388-35.456,12.388c-15.761,0-31.958-6.206-44.593-18.519c-22.921-22.327-25.982-56.812-8.021-79.672
				c0.914-1.164,1.592-2.138,5.575-6.637c1.337-1.747,2.778-3.436,4.356-5.045C66.421,43.87,81.051,38.342,96.073,38.342
				 M96.073,32.342c-17.257,0-33.187,6.561-44.854,18.474c-1.619,1.65-3.201,3.475-4.702,5.423
				c-3.468,3.921-4.495,5.247-5.323,6.313l-0.34,0.438c-9.686,12.327-14.151,28.068-12.573,44.32
				c1.575,16.222,9.078,31.619,21.127,43.354c13.382,13.039,30.705,20.222,48.779,20.222c14.465,0,28.368-4.854,39.165-13.671
				c0.121-0.075,0.364-0.215,0.565-0.331c1.576-0.904,4.208-2.418,8.33-6.172c1.181-1.018,2.241-1.997,3.241-2.99
				c0.238-0.229,0.422-0.404,0.533-0.517l0.021-0.022l0.021-0.021c11.475-11.716,17.684-27.48,17.484-44.395
				c-0.216-18.375-8.168-36.542-21.818-49.839C132.109,39.652,114.473,32.342,96.073,32.342L96.073,32.342z"/>
		</g>
	</g>
</g>
</svg>
