<?xml version="1.0" encoding="utf-8"?>
<!-- Generator: Adobe Illustrator 15.0.0, SVG Export Plug-In . SVG Version: 6.00 Build 0)  -->
<!DOCTYPE svg PUBLIC "-//W3C//DTD SVG 1.1//EN" "http://www.w3.org/Graphics/SVG/1.1/DTD/svg11.dtd">
<svg version="1.1" xmlns="http://www.w3.org/2000/svg" xmlns:xlink="http://www.w3.org/1999/xlink" x="0px" y="0px" width="200px"
	 height="200px" viewBox="0 0 200 200" enable-background="new 0 0 200 200" xml:space="preserve">
<g id="outline_x5F_white">
	<g>
		<g>
			<path fill="#FFFFFF" d="M99.146,27.208c5.611,0,11.319,0.815,16.967,2.528c30.865,9.358,48.299,41.966,38.938,72.831
				c-3.647,12.026-10.825,22.018-20.056,29.175c-2.596,2.012-7.898,6.032-12.444,10.513c-5.159,5.087-7.821,9.162-10.362,11.958
				c-8.864,9.747-18.494,19.174-31.125,19.174c-1.56,0-3.167-0.145-4.823-0.448c0.146,0.297,0.197,0.59,0.115,0.858
				c-0.159,0.527-0.769,0.856-1.605,0.97l2.299,4.981c0,0-0.369-0.224-1.315-0.224c-0.484,0-1.12,0.061-1.935,0.234
				c-0.355,0.076-0.687,0.111-0.997,0.111c-1.794,0-2.901-1.156-3.894-2.094c-1.163-1.104-4.848-0.474-3.359-1.27
				c1.018-0.544,3.061-2.172,4.256-3.148c-0.758-0.598-1.166-1.274-0.99-1.853c0.084-0.276,0.3-0.496,0.6-0.663
				c-14.647-6.292-18.325-21.031-19.268-35.775c-0.389-6.045-0.498-8.996-1.73-15.418c-1.209-6.295-3.613-12.45-4.658-15.574
				c-3.7-11.079-4.123-23.371-0.477-35.4C50.93,43.457,74.093,27.208,99.146,27.208 M99.146,15.208
				c-14.789,0-29.541,4.825-41.537,13.586C45.196,37.86,36.271,50.446,31.8,65.191c-4.258,14.045-4.058,28.805,0.578,42.685
				c0.217,0.649,0.485,1.412,0.789,2.272c1.121,3.184,2.656,7.543,3.467,11.764c0.984,5.127,1.138,7.568,1.445,12.432l0.095,1.493
				c0.459,7.181,1.682,26.329,15.247,38.8c-0.29,1.573-0.266,3.144,0.023,4.563c0.28,1.38,2.014,7.917,9.812,9.505
				c2.113,1.529,5.297,3.164,9.549,3.164c0.894,0,1.799-0.075,2.699-0.225c0.514,0.065,1.029,0.101,1.545,0.101
				c2.891,0,5.759-1.042,8.019-3.069c1.251-1.123,2.222-2.465,2.892-3.927c13.955-2.606,24.333-12.813,33.108-22.466
				c1.146-1.26,2.188-2.568,3.293-3.954c1.763-2.209,3.76-4.714,6.617-7.531c3.681-3.628,8.084-7.03,10.715-9.065l0.66-0.51
				c11.561-8.965,19.924-21.127,24.186-35.173c5.457-17.997,3.579-37.04-5.287-53.622c-8.866-16.583-23.66-28.72-41.654-34.176
				C112.934,16.231,106.053,15.208,99.146,15.208L99.146,15.208z"/>
		</g>
	</g>
</g>
<g id="outline_x5F_black">
	<g>
		<path d="M99.146,27.208c5.611,0,11.319,0.815,16.967,2.528c30.865,9.358,48.299,41.966,38.938,72.831
			c-3.647,12.026-10.825,22.018-20.056,29.175c-2.596,2.012-7.898,6.032-12.444,10.513c-5.159,5.087-7.821,9.162-10.362,11.958
			c-8.864,9.747-18.494,19.174-31.125,19.174c-1.56,0-3.167-0.145-4.823-0.448c0.146,0.297,0.197,0.59,0.115,0.858
			c-0.159,0.527-0.769,0.856-1.605,0.97l2.299,4.981c0,0-0.369-0.224-1.315-0.224c-0.484,0-1.12,0.061-1.935,0.234
			c-0.355,0.076-0.687,0.111-0.997,0.111c-1.794,0-2.901-1.156-3.894-2.094c-1.163-1.104-4.848-0.474-3.359-1.27
			c1.018-0.544,3.061-2.172,4.256-3.148c-0.758-0.598-1.166-1.274-0.99-1.853c0.084-0.276,0.3-0.496,0.6-0.663
			c-14.647-6.292-18.325-21.031-19.268-35.775c-0.389-6.045-0.498-8.996-1.73-15.418c-1.209-6.295-3.613-12.45-4.658-15.574
			c-3.7-11.079-4.123-23.371-0.477-35.4C50.93,43.457,74.093,27.208,99.146,27.208 M99.146,21.208
			c-13.527,0-27.021,4.415-37.998,12.432c-11.354,8.292-19.517,19.805-23.607,33.293c-3.895,12.848-3.712,26.349,0.527,39.042
			c0.208,0.623,0.465,1.354,0.756,2.183c1.117,3.172,2.806,7.965,3.701,12.625c1.056,5.502,1.228,8.229,1.541,13.187l0.094,1.485
			c0.766,11.983,3.402,28.129,16.522,37.366c-1.406,1.641-1.668,3.67-1.359,5.188c0.342,1.684,1.618,4.567,6.328,4.993
			c0.023,0.002,0.049,0.004,0.075,0.006c1.398,1.229,3.717,2.864,7.077,2.864c0.744,0,1.505-0.083,2.263-0.246
			c0.188-0.041,0.335-0.064,0.441-0.079c0.506,0.136,1.024,0.201,1.542,0.201c1.444,0,2.879-0.521,4.009-1.535
			c1.407-1.263,2.104-3.078,1.978-4.887c14.056-0.861,24.296-10.854,33.593-21.076c1.014-1.115,1.998-2.353,3.04-3.658
			c1.867-2.341,3.981-4.993,7.097-8.063c3.938-3.881,8.521-7.422,11.256-9.537l0.653-0.506c10.572-8.198,18.222-19.324,22.12-32.174
			c4.992-16.461,3.273-33.883-4.836-49.052c-8.111-15.169-21.645-26.272-38.104-31.263C111.757,22.145,105.463,21.208,99.146,21.208
			L99.146,21.208z"/>
	</g>
</g>
<g id="icon">
	<g id="Layer_2">
	</g>
	<g id="Layer_1_1_">
		<g>
			<g>
				
					<radialGradient id="SVGID_1_" cx="472.0723" cy="1930.3252" r="4.8921" fx="473.7495" fy="1932.282" gradientTransform="matrix(0.957 0.2902 -0.2902 0.957 180.1282 -1808.0122)" gradientUnits="userSpaceOnUse">
					<stop  offset="0.2147" style="stop-color:#FFE300"/>
					<stop  offset="1" style="stop-color:#F7941E"/>
				</radialGradient>
				<path fill="url(#SVGID_1_)" d="M70.734,172.59c0,0-3.694,3.121-5.184,3.918c-1.488,0.797,2.196,0.166,3.359,1.268
					c1.164,1.103,2.487,2.502,4.891,1.982c2.404-0.52,3.25-0.013,3.25-0.013l-2.41-5.224L70.734,172.59z"/>
				
					<radialGradient id="SVGID_2_" cx="471.8398" cy="1926.5781" r="3.097" fx="472.9016" fy="1927.8169" gradientTransform="matrix(0.957 0.2902 -0.2902 0.957 180.1282 -1808.0122)" gradientUnits="userSpaceOnUse">
					<stop  offset="0.2147" style="stop-color:#FFE300"/>
					<stop  offset="1" style="stop-color:#F7941E"/>
				</radialGradient>
				<path fill="url(#SVGID_2_)" d="M76.357,173.794c-0.305,1.011-2.243,1.317-4.325,0.687c-2.085-0.633-3.521-1.965-3.216-2.974
					c0.305-1.01,2.243-1.317,4.324-0.687C75.224,171.454,76.666,172.785,76.357,173.794z"/>
				
					<radialGradient id="SVGID_3_" cx="469.1592" cy="1834.5566" r="65.1391" fx="456.3837" fy="1808.3976" gradientTransform="matrix(0.957 0.2902 -0.2902 0.957 181.0266 -1807.5757)" gradientUnits="userSpaceOnUse">
					<stop  offset="0.2147" style="stop-color:#FFE300"/>
					<stop  offset="1" style="stop-color:#F7941E"/>
				</radialGradient>
				<path fill="url(#SVGID_3_)" d="M122.553,142.252c4.545-4.479,9.852-8.501,12.445-10.513
					c9.229-7.157,16.406-17.146,20.057-29.175c9.357-30.863-8.076-63.473-38.941-72.831c-30.862-9.358-63.469,8.074-72.828,38.938
					c-3.646,12.029-3.224,24.321,0.477,35.4c1.045,3.123,3.449,9.277,4.658,15.572c1.232,6.422,1.342,9.373,1.73,15.42
					c1.014,15.86,5.186,31.729,22.787,37.063c16.799,5.095,28.581-6.185,39.252-17.922
					C114.73,151.414,117.393,147.339,122.553,142.252z"/>
				
					<radialGradient id="SVGID_4_" cx="463.3672" cy="1821.9141" r="37.8843" fx="450.2018" fy="1811.973" gradientTransform="matrix(0.957 0.2902 -0.2902 0.957 180.1282 -1808.0122)" gradientUnits="userSpaceOnUse">
					<stop  offset="0.1648" style="stop-color:#FFEBBB"/>
					<stop  offset="1" style="stop-color:#FFEB86;stop-opacity:0"/>
				</radialGradient>
				<path fill="url(#SVGID_4_)" d="M131.105,81.021c-6.071,20.023-27.227,31.333-47.25,25.262
					c-20.021-6.072-31.332-27.225-25.259-47.248c6.069-20.022,27.222-31.333,47.249-25.261
					C125.868,39.846,137.177,60.999,131.105,81.021z"/>
				<defs>
					<filter id="Adobe_OpacityMaskFilter" filterUnits="userSpaceOnUse" x="54.233" y="114.484" width="53.121" height="57.29">
						<feColorMatrix  type="matrix" values="1 0 0 0 0  0 1 0 0 0  0 0 1 0 0  0 0 0 1 0"/>
					</filter>
				</defs>
				<mask maskUnits="userSpaceOnUse" x="54.233" y="114.484" width="53.121" height="57.29" id="SVGID_5_">
					<g filter="url(#Adobe_OpacityMaskFilter)">
						
							<linearGradient id="SVGID_6_" gradientUnits="userSpaceOnUse" x1="471.6162" y1="1920.8477" x2="471.6162" y2="1882.1564" gradientTransform="matrix(0.957 0.2902 -0.2902 0.957 180.1282 -1808.0122)">
							<stop  offset="0" style="stop-color:#FFFFFF"/>
							<stop  offset="0.0737" style="stop-color:#DEDEDE"/>
							<stop  offset="0.2168" style="stop-color:#A4A4A4"/>
							<stop  offset="0.36" style="stop-color:#727272"/>
							<stop  offset="0.4999" style="stop-color:#494949"/>
							<stop  offset="0.6359" style="stop-color:#292929"/>
							<stop  offset="0.7669" style="stop-color:#121212"/>
							<stop  offset="0.8908" style="stop-color:#050505"/>
							<stop  offset="1" style="stop-color:#000000"/>
						</linearGradient>
						<polygon fill="url(#SVGID_6_)" points="104.934,186.953 37.318,166.45 59.773,92.395 127.391,112.896 						"/>
					</g>
				</mask>
				
					<radialGradient id="SVGID_7_" cx="540.6494" cy="1896.2969" r="28.8413" gradientTransform="matrix(0.8737 0.2649 -0.2902 0.957 158.7341 -1814.8447)" gradientUnits="userSpaceOnUse">
					<stop  offset="0.4066" style="stop-color:#FF8B30"/>
					<stop  offset="0.4925" style="stop-color:#FB892F;stop-opacity:0"/>
				</radialGradient>
				<path mask="url(#SVGID_5_)" fill="url(#SVGID_7_)" d="M105.994,150.771c-4.623,15.242-19.654,24.178-33.57,19.957
					c-13.916-4.222-21.452-19.996-16.83-35.239c4.623-15.242,19.65-24.181,33.57-19.959
					C103.078,119.75,110.615,135.527,105.994,150.771z"/>
				
					<radialGradient id="SVGID_8_" cx="470.623" cy="1895.7988" r="28.2197" fx="480.2986" fy="1907.0865" gradientTransform="matrix(0.957 0.2902 -0.2902 0.957 180.1282 -1808.0122)" gradientUnits="userSpaceOnUse">
					<stop  offset="0.1648" style="stop-color:#FFEB5B"/>
					<stop  offset="1" style="stop-color:#FFEB86;stop-opacity:0"/>
				</radialGradient>
				<circle fill="url(#SVGID_8_)" cx="80.353" cy="142.842" r="28.213"/>
			</g>
			<path fill="#90278E" d="M116.334,120.105l9.396-9.396c0,0,3.111,14.4,13.146,17.521l-6.891,8.768
				C131.988,137,120.709,133.879,116.334,120.105z"/>
			<path fill="#BED63A" d="M50.321,103.312l-10.434-8.205c0,0,13.92-4.824,15.812-15.141l9.537,5.793
				C65.237,85.761,63.462,97.323,50.321,103.312z"/>
			<path fill="#EC297B" d="M29.677,168.361l2.807-5.801c0,0,3.719,6.108,8.799,5.94l-1.76,5.113
				C39.522,173.616,33.86,173.977,29.677,168.361z"/>
			<path fill="#EC297B" d="M61.983,124.038l2.807-5.797c0,0,3.719,6.108,8.799,5.944l-1.76,5.104
				C71.829,129.292,66.151,129.663,61.983,124.038z"/>
			
				<radialGradient id="SVGID_9_" cx="153.6211" cy="735.2939" r="8.7667" gradientTransform="matrix(1 0 0 1 -100 -591)" gradientUnits="userSpaceOnUse">
				<stop  offset="0" style="stop-color:#FF0000"/>
				<stop  offset="1" style="stop-color:#CF0000"/>
			</radialGradient>
			<path fill="url(#SVGID_9_)" d="M49.275,151.835l-5.495-7.969c0,0,10.75-0.354,14.303-7.113l5.379,6.103
				C63.462,142.854,59.726,150.516,49.275,151.835z"/>
			<path fill="#8BC53F" d="M98.786,175.598l2.466-8.492c0,0,6.441,7.406,13.307,6.027l-1.205,7.328
				C113.354,180.461,105.759,182.246,98.786,175.598z"/>
			<path fill="#FAAF40" d="M149.816,165.598l5.545-6.892c0,0,3.104,9.319,9.986,10.676l-3.943,6.293
				C161.404,175.675,153.719,174.421,149.816,165.598z"/>
			<path fill="#EC297B" d="M134.366,78.612l5.545-6.898c0,0,3.096,9.312,9.961,10.684l-3.927,6.293
				C145.945,88.69,138.259,87.421,134.366,78.612z"/>
			
				<radialGradient id="SVGID_10_" cx="129.9971" cy="618.8262" r="8.1627" gradientTransform="matrix(1 0 0 1 -100 -591)" gradientUnits="userSpaceOnUse">
				<stop  offset="0" style="stop-color:#FF0000"/>
				<stop  offset="1" style="stop-color:#CF0000"/>
			</radialGradient>
			<path fill="url(#SVGID_10_)" d="M27.805,35.434l-6.49-6.027c0,0,9.529-2.43,11.371-9.188l5.994,4.391
				C38.68,24.609,36.869,32.18,27.805,35.434z"/>
			
				<linearGradient id="SVGID_11_" gradientUnits="userSpaceOnUse" x1="244.1455" y1="595.5869" x2="230.8612" y2="652.4444" gradientTransform="matrix(1 0 0 1 -100 -591)">
				<stop  offset="0" style="stop-color:#F0FFFF"/>
				<stop  offset="1" style="stop-color:#039DFF"/>
			</linearGradient>
			<path fill="url(#SVGID_11_)" d="M132.066,36.233l-2.59-8.461c0,0,9.455,2.641,14.428-2.273l3.021,6.781
				C146.926,32.28,141.547,37.952,132.066,36.233z"/>
			<path fill="#D6DE23" d="M160.672,51.753l-3.171-10.266c0,0,11.505,3.219,17.531-2.773l3.651,8.258
				C178.686,46.972,172.186,53.847,160.672,51.753z"/>
			<path fill="#FFF100" d="M52.193,26.055l6.724-6.734c0,0,2.241,10.32,9.421,12.543l-4.922,6.301
				C63.416,38.164,55.348,35.906,52.193,26.055z"/>
			<path fill="#37B34A" d="M143.379,166.301c0,2.281-1.844,4.141-4.135,4.141c-2.273,0-4.135-1.857-4.135-4.141
				c0-2.281,1.858-4.125,4.135-4.125C141.535,162.176,143.379,164.02,143.379,166.301z"/>
			<path fill="#EC297B" d="M113.693,132.875c0,2.281-1.842,4.125-4.125,4.125c-2.282,0-4.125-1.844-4.125-4.125
				c0-2.285,1.843-4.125,4.125-4.125C111.852,128.75,113.693,130.59,113.693,132.875z"/>
			<path fill="#1B75BB" d="M176.051,123.859c0,2.281-1.852,4.133-4.117,4.133c-2.309,0-4.148-1.852-4.148-4.133
				s1.842-4.125,4.148-4.125C174.199,119.734,176.051,121.578,176.051,123.859z"/>
			<path fill="#37B34A" d="M107.055,45.975c0,2.281-1.859,4.133-4.143,4.133c-2.284,0-4.126-1.852-4.126-4.133
				c0-2.281,1.844-4.125,4.126-4.125C105.193,41.85,107.055,43.693,107.055,45.975z"/>
			<path fill="#EC1C24" d="M44.465,54.965c0,2.273-1.843,4.133-4.125,4.133c-2.283,0-4.143-1.859-4.143-4.133
				c0-2.281,1.859-4.133,4.143-4.133C42.622,50.832,44.465,52.684,44.465,54.965z"/>
			<path fill="#EC1C24" d="M35.056,129.986c0,2.267-1.859,4.125-4.142,4.125c-2.267,0-4.126-1.858-4.126-4.125
				c0-2.288,1.859-4.133,4.126-4.133C33.196,125.854,35.056,127.698,35.056,129.986z"/>
		</g>
	</g>
</g>
</svg>
