<?xml version="1.0" encoding="utf-8"?>
<!-- Generator: Adobe Illustrator 15.0.0, SVG Export Plug-In . SVG Version: 6.00 Build 0)  -->
<!DOCTYPE svg PUBLIC "-//W3C//DTD SVG 1.1//EN" "http://www.w3.org/Graphics/SVG/1.1/DTD/svg11.dtd">
<svg version="1.1" xmlns="http://www.w3.org/2000/svg" xmlns:xlink="http://www.w3.org/1999/xlink" x="0px" y="0px" width="200px"
	 height="200px" viewBox="0 0 200 200" enable-background="new 0 0 200 200" xml:space="preserve">
<g id="icon">
	<g id="Layer_2">
	</g>
	<g id="Layer_1_1_">
		<g>
			<g>
				<g>
					
						<linearGradient id="SVGID_1_" gradientUnits="userSpaceOnUse" x1="150.1768" y1="-42.7812" x2="150.1768" y2="-76.9196" gradientTransform="matrix(1 0 0 -1 -50 61)">
						<stop  offset="0" style="stop-color:#FF0000"/>
						<stop  offset="0.1674" style="stop-color:#F60000"/>
						<stop  offset="0.4388" style="stop-color:#DE0000"/>
						<stop  offset="0.7785" style="stop-color:#B70000"/>
						<stop  offset="1" style="stop-color:#9A0000"/>
					</linearGradient>
					<polygon fill="url(#SVGID_1_)" points="45.658,60.035 42.153,68.08 78.56,142 89.11,163.811 99.313,163.938 158.202,72.285 
						153.348,64.068 					"/>
					
						<linearGradient id="SVGID_2_" gradientUnits="userSpaceOnUse" x1="186.1133" y1="60.3901" x2="110.1337" y2="-66.2424" gradientTransform="matrix(1 0 0 -1 -50 61)">
						<stop  offset="0" style="stop-color:#FF0000"/>
						<stop  offset="0.1674" style="stop-color:#F60000"/>
						<stop  offset="0.4388" style="stop-color:#DE0000"/>
						<stop  offset="0.7785" style="stop-color:#B70000"/>
						<stop  offset="1" style="stop-color:#9A0000"/>
					</linearGradient>
					<path fill="url(#SVGID_2_)" d="M94.288,155.354c0.289,7.543-3.797,10.619-9.127,6.875L54.169,136.78
						c-5.33-3.744-9.883-12.896-10.173-20.437l-2.647-42.828c-0.289-7.543,3.797-10.619,9.127-6.873l33.766,24.244
						c5.33,3.744,9.883,12.896,10.174,20.438L94.288,155.354z"/>
					
						<linearGradient id="SVGID_3_" gradientUnits="userSpaceOnUse" x1="150.7256" y1="-55.8809" x2="191.0619" y2="-181.5802" gradientTransform="matrix(1 -0.0609 0 -1 -50 -9.2942)">
						<stop  offset="0" style="stop-color:#FF0000"/>
						<stop  offset="0.1674" style="stop-color:#F60000"/>
						<stop  offset="0.4388" style="stop-color:#DE0000"/>
						<stop  offset="0.7785" style="stop-color:#B70000"/>
						<stop  offset="1" style="stop-color:#9A0000"/>
					</linearGradient>
					<path fill="url(#SVGID_3_)" d="M94.36,155.885c-0.616,6.9,3.705,9.965,9.65,6.844l39.951-22.615
						c5.947-3.12,11.268-11.245,11.883-18.146l3.225-44.223c0.617-6.902-3.702-9.967-9.649-6.846l-42.677,21
						c-5.946,3.121-11.266,11.246-11.883,18.146L94.36,155.885z"/>
					
						<linearGradient id="SVGID_4_" gradientUnits="userSpaceOnUse" x1="160.2871" y1="36.6279" x2="163.7265" y2="49.1358" gradientTransform="matrix(1 0 0 -1 -50 61)">
						<stop  offset="0" style="stop-color:#FF0000"/>
						<stop  offset="0.1674" style="stop-color:#F60000"/>
						<stop  offset="0.4388" style="stop-color:#DE0000"/>
						<stop  offset="0.7785" style="stop-color:#B70000"/>
						<stop  offset="1" style="stop-color:#9A0000"/>
					</linearGradient>
					<path fill="url(#SVGID_4_)" d="M51.585,55.832c-6.474,2.758-8.188,5.176-3.16,9.074L86.11,91.574
						c5.028,3.902,12.591,3.678,19.063,0.92l41.214-20.295c8.932-4.209,9.536-7.996,2.616-12.055l-34.551-20.57
						c-6.479-3.848-12.527-4.646-19.001-1.889L51.585,55.832z"/>
				</g>
				<path fill="#FFFFFF" d="M135.332,111.684c-0.382,4.222-3.361,9.117-6.652,10.945c-3.291,1.826-5.65-0.111-5.269-4.33
					c0.383-4.215,3.36-9.115,6.653-10.943C133.355,105.529,135.716,107.469,135.332,111.684z"/>
				<path fill="#FFFFFF" d="M70.837,103.025c0.248,4.133,3.025,8.967,6.203,10.805c3.18,1.838,5.555-0.02,5.309-4.148
					c-0.248-4.129-3.025-8.965-6.206-10.805C72.966,97.039,70.589,98.898,70.837,103.025z"/>
				<path fill="#FFFFFF" d="M50.929,119.467c0.535,3.779,3.051,8.143,5.618,9.752c2.568,1.607,4.216-0.152,3.683-3.928
					c-0.535-3.777-3.051-8.143-5.619-9.75C52.042,113.932,50.394,115.691,50.929,119.467z"/>
				<path fill="#FFFFFF" d="M135.626,60.502c2.457,2.391,1.713,5.5-1.651,6.951c-3.369,1.451-8.086,0.689-10.541-1.699
					c-2.453-2.387-1.716-5.5,1.653-6.951C128.452,57.352,133.175,58.113,135.626,60.502z"/>
				<path fill="#FFFFFF" d="M73.97,58.625c2.457,2.391,1.713,5.502-1.65,6.953c-3.369,1.449-8.088,0.689-10.542-1.701
					c-2.453-2.385-1.714-5.5,1.654-6.949C66.798,55.475,71.519,56.238,73.97,58.625z"/>
				<path fill="#FFFFFF" d="M103.1,73.928c2.606,2.527,1.848,5.896-1.688,7.529c-3.537,1.635-8.514,0.912-11.117-1.613
					c-2.604-2.521-1.848-5.895,1.689-7.529C95.519,70.68,100.499,71.404,103.1,73.928z"/>
				<path fill="#FFFFFF" d="M108.178,45.77c2.456,2.201,1.713,5.064-1.65,6.4c-3.369,1.336-8.088,0.635-10.543-1.564
					c-2.452-2.197-1.713-5.064,1.654-6.4C101.005,42.87,105.727,43.57,108.178,45.77z"/>
			</g>
		</g>
	</g>
</g>
<g id="outline_x5F_white">
	<g>
		<g>
			<path fill="#FFFFFF" d="M103.053,36.051c3.768,0,7.508,1.211,11.399,3.523l34.551,20.57c2.267,1.328,3.708,2.629,4.332,3.924
				h0.013l4.854,8.217l-0.007,0.008c0.74,1.355,1.074,3.193,0.873,5.451l-3.225,44.223c-0.615,6.9-5.936,15.025-11.883,18.146
				l-39.951,22.615c-1.578,0.828-3.035,1.207-4.32,1.207c-0.125,0-0.248-0.004-0.369-0.011l-0.008,0.013l-10.203-0.127l-0.006-0.013
				c-1.188-0.069-2.519-0.567-3.943-1.569l-30.992-25.449c-5.33-3.744-9.883-12.896-10.173-20.437l-2.647-42.828
				c-0.084-2.219,0.217-4.039,0.811-5.426l-0.006-0.01l0.104-0.238c0.003-0.008,0.007-0.016,0.009-0.023l3.392-7.783h0.006
				c0.558-1.473,2.613-2.793,5.921-4.203l43.866-18.146C98.035,36.585,100.55,36.051,103.053,36.051 M103.055,24.051L103.055,24.051
				c-4.103,0-8.222,0.864-12.243,2.568L46.998,44.743c-0.04,0.017-0.08,0.033-0.119,0.05c-4.4,1.876-9.691,4.725-12.131,10.246
				c-0.031,0.067-0.061,0.135-0.09,0.202l-3.392,7.783c-0.02,0.046-0.04,0.093-0.06,0.139l-0.042,0.097
				c-0.113,0.258-0.217,0.521-0.311,0.784c-1.131,2.932-1.634,6.267-1.495,9.925c0.003,0.096,0.008,0.191,0.014,0.287l2.64,42.704
				c0.481,11.122,6.672,23.333,14.832,29.331l30.703,25.212c0.23,0.188,0.469,0.37,0.713,0.542c2.95,2.074,6.054,3.303,9.236,3.656
				c0.482,0.064,0.972,0.104,1.466,0.107l10.203,0.127c0.05,0.002,0.101,0.002,0.149,0.002c0.07,0,0.14-0.002,0.21-0.002
				c0.056,0,0.111,0,0.167,0c3.302,0,6.632-0.869,9.896-2.582c0.113-0.06,0.226-0.119,0.335-0.183l39.811-22.536
				c9.506-5.09,17.088-16.658,18.064-27.602c0.006-0.064,0.012-0.13,0.016-0.194l3.22-44.14c0.356-4.194-0.312-8.132-1.937-11.451
				c-0.169-0.363-0.355-0.72-0.562-1.069l-4.825-8.165c-1.741-3.138-4.562-5.828-8.595-8.199l-34.522-20.553
				C114.682,25.754,108.949,24.051,103.055,24.051L103.055,24.051z"/>
		</g>
	</g>
</g>
<g id="outline_x5F_black">
	<g>
		<path d="M103.053,36.051c3.768,0,7.508,1.211,11.399,3.523l34.551,20.57c2.267,1.328,3.708,2.629,4.332,3.924h0.013l4.854,8.217
			l-0.007,0.008c0.74,1.355,1.074,3.193,0.873,5.451l-3.225,44.223c-0.615,6.9-5.936,15.025-11.883,18.146l-39.951,22.615
			c-1.578,0.828-3.035,1.207-4.32,1.207c-0.125,0-0.248-0.004-0.369-0.011l-0.008,0.013l-10.203-0.127l-0.006-0.013
			c-1.188-0.069-2.519-0.567-3.943-1.569l-30.992-25.449c-5.33-3.744-9.883-12.896-10.173-20.437l-2.647-42.828
			c-0.084-2.219,0.217-4.039,0.811-5.426l-0.006-0.01l0.104-0.238c0.003-0.008,0.007-0.016,0.009-0.023l3.392-7.783h0.006
			c0.558-1.473,2.613-2.793,5.921-4.203l43.866-18.146C98.035,36.585,100.55,36.051,103.053,36.051 M103.053,30.051L103.053,30.051
			c-3.301,0-6.64,0.707-9.925,2.103L49.292,50.288l-0.06,0.025c-3.627,1.546-7.521,3.624-9.069,7.323l-0.005,0.003l-3.392,7.783
			l-0.005,0.016l-0.102,0.233l0.001,0.016l-0.024,0.061c-0.966,2.266-1.397,4.956-1.282,7.996l0.007,0.143l2.644,42.764
			c0.387,9.369,5.742,20.005,12.516,24.896l30.834,25.319l0.356,0.271c2.303,1.619,4.671,2.512,7.04,2.651l0.009-0.151l0.277,0.174
			l10.203,0.127l0.016-0.008c0.144,0.004,0.289,0.008,0.436,0.008c2.32,0,4.712-0.639,7.108-1.896l0.168-0.091l39.875-22.572
			c7.749-4.117,14.181-13.931,14.979-22.878l0.008-0.098l3.222-44.179c0.292-3.378-0.241-6.34-1.589-8.806l-0.107,0.059l0.015-0.243
			l-4.854-8.217l-0.004-0.001c-1.209-2.223-3.332-4.205-6.473-6.046L117.523,34.42C112.57,31.479,107.841,30.051,103.053,30.051
			L103.053,30.051L103.053,30.051z"/>
	</g>
</g>
</svg>
