<?xml version="1.0" encoding="utf-8"?>
<!-- Generator: Adobe Illustrator 15.0.0, SVG Export Plug-In . SVG Version: 6.00 Build 0)  -->
<!DOCTYPE svg PUBLIC "-//W3C//DTD SVG 1.1//EN" "http://www.w3.org/Graphics/SVG/1.1/DTD/svg11.dtd">
<svg version="1.1" xmlns="http://www.w3.org/2000/svg" xmlns:xlink="http://www.w3.org/1999/xlink" x="0px" y="0px" width="200px"
	 height="200px" viewBox="0 0 200 200" enable-background="new 0 0 200 200" xml:space="preserve">
<g id="icon">
	<g id="Layer_2">
	</g>
	<g id="Layer_1_1_">
		<g>
			<g>
				
					<radialGradient id="SVGID_1_" cx="79.9341" cy="-82.5293" r="64.8416" gradientTransform="matrix(1 0 0 -1 -50 61)" gradientUnits="userSpaceOnUse">
					<stop  offset="0.0859" style="stop-color:#FFFA00"/>
					<stop  offset="0.3558" style="stop-color:#FFE300"/>
					<stop  offset="0.6258" style="stop-color:#F7941E"/>
					<stop  offset="1" style="stop-color:#CA7C00"/>
				</radialGradient>
				<path fill="url(#SVGID_1_)" d="M43.71,86.353l20.928-8.817l5.622,31.455c5.379,15.384,34.055,44.327,46.211,39.864
					c12.147-4.461,28.53-23.111,14.614-56.789l-13.803-28.601l12.331-11.278l14.666,29.576
					c15.628,35.873,13.205,79.513-15.28,89.964c-5.242,1.922-19.881,1.737-25.269,1.58c-23.849-0.697-48.5-24.127-54.399-55.502
					L43.71,86.353z"/>
				
					<radialGradient id="SVGID_2_" cx="80.2056" cy="-620.8848" r="46.0082" gradientTransform="matrix(0.9849 -0.1733 -0.0689 -0.3918 -37.2818 -73.0654)" gradientUnits="userSpaceOnUse">
					<stop  offset="0.1595" style="stop-color:#FFFA00"/>
					<stop  offset="1" style="stop-color:#FFFA00;stop-opacity:0"/>
				</radialGradient>
				<path opacity="0.34" fill="url(#SVGID_2_)" enable-background="new    " d="M43.71,86.353l20.928-8.817l5.622,31.455
					c5.379,15.384,34.055,44.327,46.211,39.864c12.147-4.461,28.53-23.111,14.614-56.789l-13.803-28.601l12.331-11.278
					l14.666,29.576c15.628,35.873,13.205,79.513-15.28,89.964c-5.242,1.922-19.881,1.737-25.269,1.58
					c-23.849-0.697-48.5-24.127-54.399-55.502L43.71,86.353z"/>
				
					<radialGradient id="SVGID_3_" cx="278.7803" cy="374.1787" r="20.7226" gradientTransform="matrix(0.0637 0.998 1.3971 -0.0892 -414.2301 -129.4702)" gradientUnits="userSpaceOnUse">
					<stop  offset="0.1595" style="stop-color:#FFFA00"/>
					<stop  offset="1" style="stop-color:#FFFA00;stop-opacity:0"/>
				</radialGradient>
				<path opacity="0.52" fill="url(#SVGID_3_)" enable-background="new    " d="M43.71,86.353l20.928-8.817l5.622,31.455
					c5.379,15.384,34.055,44.327,46.211,39.864c12.147-4.461,28.53-23.111,14.614-56.789l-13.803-28.601l12.331-11.278
					l14.666,29.576c15.628,35.873,13.205,79.513-15.28,89.964c-5.242,1.922-19.881,1.737-25.269,1.58
					c-23.849-0.697-48.5-24.127-54.399-55.502L43.71,86.353z"/>
				
					<radialGradient id="SVGID_4_" cx="6525.8555" cy="-4398.5684" r="34.7238" gradientTransform="matrix(-0.7064 0.1639 0.153 0.8146 5301.6484 2593.0327)" gradientUnits="userSpaceOnUse">
					<stop  offset="0.0859" style="stop-color:#FFFA00"/>
					<stop  offset="0.3558" style="stop-color:#FFE300"/>
					<stop  offset="0.6258" style="stop-color:#F7941E"/>
					<stop  offset="1" style="stop-color:#CA7C00"/>
				</radialGradient>
				<polygon fill="url(#SVGID_4_)" points="50.901,89.852 73.678,58.583 58.06,57.423 30.111,63.466 35.284,88.695 				"/>
				
					<radialGradient id="SVGID_5_" cx="74.8979" cy="69.6958" r="52.7257" gradientTransform="matrix(1 0 0 -1 -50 61)" gradientUnits="userSpaceOnUse">
					<stop  offset="0.0859" style="stop-color:#FFFA00"/>
					<stop  offset="0.3558" style="stop-color:#FFE300"/>
					<stop  offset="0.6258" style="stop-color:#F7941E"/>
					<stop  offset="1" style="stop-color:#CA7C00"/>
				</radialGradient>
				<polygon fill="url(#SVGID_5_)" points="45.735,64.621 73.678,58.583 58.06,57.423 30.111,63.466 				"/>
				
					<radialGradient id="SVGID_6_" cx="166.1309" cy="28.7852" r="19.9251" gradientTransform="matrix(1 0 0 -1 -50 61)" gradientUnits="userSpaceOnUse">
					<stop  offset="0.0859" style="stop-color:#FFFA00"/>
					<stop  offset="0.3558" style="stop-color:#FFE300"/>
					<stop  offset="0.6258" style="stop-color:#F7941E"/>
					<stop  offset="1" style="stop-color:#CA7C00"/>
				</radialGradient>
				<polygon fill="url(#SVGID_6_)" points="117.283,63.466 132.768,61.111 148.4,26.601 132.918,28.958 106.611,40.023 				"/>
				
					<radialGradient id="SVGID_7_" cx="74.895" cy="69.6851" r="52.7214" gradientTransform="matrix(1 0 0 -1 -50 61)" gradientUnits="userSpaceOnUse">
					<stop  offset="0.0859" style="stop-color:#FFFA00"/>
					<stop  offset="0.3558" style="stop-color:#FFE300"/>
					<stop  offset="0.6258" style="stop-color:#F7941E"/>
					<stop  offset="1" style="stop-color:#CA7C00"/>
				</radialGradient>
				<polygon fill="url(#SVGID_7_)" points="122.094,37.666 148.4,26.601 132.918,28.958 106.611,40.023 				"/>
				
					<linearGradient id="SVGID_8_" gradientUnits="userSpaceOnUse" x1="156.9092" y1="-27.5718" x2="205.8593" y2="-124.0736" gradientTransform="matrix(1 0 0 -1 -50 61)">
					<stop  offset="0.1902" style="stop-color:#FFFA00"/>
					<stop  offset="0.546" style="stop-color:#FFE300"/>
					<stop  offset="1" style="stop-color:#F7941E"/>
				</linearGradient>
				<path fill="url(#SVGID_8_)" d="M59.329,87.51l19.525-3.697l5.624,31.451c8.216,38.978,35.483,37.276,47.635,32.812
					c12.147-4.459,27.91-25.428,14.512-58.043l-13.857-28.921l17.041-7.633l13.859,28.919c15.621,35.87,0.209,77.084-28.275,87.536
					c-10.639,3.903-21.887,3.309-32.428-0.916c-17.678-7.088-33.482-25.963-38.007-50.057L59.329,87.51z"/>
				
					<linearGradient id="SVGID_9_" gradientUnits="userSpaceOnUse" x1="91.2617" y1="34.4067" x2="74.4926" y2="72.3839" gradientTransform="matrix(1 0 0 -1 -50 61)">
					<stop  offset="0.1902" style="stop-color:#FFFA00"/>
					<stop  offset="0.546" style="stop-color:#FFE300"/>
					<stop  offset="1" style="stop-color:#F7941E"/>
				</linearGradient>
				<polygon fill="url(#SVGID_9_)" points="78.854,83.812 73.678,58.583 45.735,64.621 50.901,89.852 				"/>
				
					<linearGradient id="SVGID_10_" gradientUnits="userSpaceOnUse" x1="167.9971" y1="68.2944" x2="151.2265" y2="106.2747" gradientTransform="matrix(1 0 0 -1 -50 61)">
					<stop  offset="0.1902" style="stop-color:#FFFA00"/>
					<stop  offset="0.546" style="stop-color:#FFE300"/>
					<stop  offset="1" style="stop-color:#F7941E"/>
				</linearGradient>
				<polygon fill="url(#SVGID_10_)" points="132.768,61.111 159.07,50.049 148.4,26.601 122.094,37.666 				"/>
				
					<radialGradient id="SVGID_11_" cx="-135.5635" cy="-1583.7061" r="215.4514" gradientTransform="matrix(0.6296 -0.7769 -0.1445 -0.1171 -23.3549 -209.2756)" gradientUnits="userSpaceOnUse">
					<stop  offset="0.0245" style="stop-color:#FFFA97"/>
					<stop  offset="1" style="stop-color:#FFFA00;stop-opacity:0"/>
				</radialGradient>
				<path fill="url(#SVGID_11_)" d="M163.668,82.397l-13.672-28.533l9.074-3.815L148.4,26.601l-26.308,11.065l10.675,23.445
					l13.856,28.921c13.397,32.616-2.363,53.584-14.513,58.043c-12.151,4.465-39.418,6.165-47.634-32.812l-5.624-31.452
					l-5.176-25.229l-27.943,6.038l5.166,25.23l8.518-1.84l5.539,30.949c4.525,24.093,20.329,42.968,38.007,50.056
					c10.541,4.226,21.789,4.82,32.429,0.918C163.877,159.48,179.289,118.268,163.668,82.397z"/>
			</g>
			
				<radialGradient id="SVGID_12_" cx="143.2959" cy="60.0337" r="306.8055" gradientTransform="matrix(1 0 0 -1 -50 61)" gradientUnits="userSpaceOnUse">
				<stop  offset="0.0859" style="stop-color:#FFFA00"/>
				<stop  offset="0.3558" style="stop-color:#FFE300"/>
				<stop  offset="0.6258" style="stop-color:#F7941E"/>
				<stop  offset="1" style="stop-color:#CA7C00"/>
			</radialGradient>
			<path fill="url(#SVGID_12_)" d="M65.575,86.329l8.104-1.536c0,0,5.092,34.326,9.859,45.355
				c4.769,11.031,16.516,26.834,41.878,25.481c17.379-0.927,28.701-16.854,30.461-30.979c1.762-14.125,2.645-23.189-6.262-41.183
				c-8.902-17.993-11.77-24.528-11.77-24.528l7.127-3.282c0,0,6.346,11.681,14.098,29.874c8.342,19.577,9.629,36.106,0,55.352
				c-8.133,16.253-21.246,24.896-36.978,25.087c-15.729,0.193-33.482-5.83-43.24-27.115C69.094,117.568,65.575,86.329,65.575,86.329
				z"/>
			
				<radialGradient id="SVGID_13_" cx="143.2959" cy="60.0337" r="306.8055" gradientTransform="matrix(1 0 0 -1 -50 61)" gradientUnits="userSpaceOnUse">
				<stop  offset="0.0859" style="stop-color:#FFFA00"/>
				<stop  offset="0.3558" style="stop-color:#FFE300"/>
				<stop  offset="0.6258" style="stop-color:#F7941E"/>
				<stop  offset="1" style="stop-color:#CA7C00"/>
			</radialGradient>
			<path fill="url(#SVGID_13_)" d="M65.575,86.329l8.104-1.536c0,0,5.092,34.326,9.859,45.355
				c4.769,11.031,16.516,26.834,41.878,25.481c17.379-0.927,28.701-16.854,30.461-30.979c1.762-14.125,2.645-23.189-6.262-41.183
				c-8.902-17.993-11.77-24.528-11.77-24.528l7.127-3.282c0,0,6.346,11.681,14.098,29.874c8.342,19.577,9.629,36.106,0,55.352
				c-8.133,16.253-21.246,24.896-36.978,25.087c-15.729,0.193-33.482-5.83-43.24-27.115C69.094,117.568,65.575,86.329,65.575,86.329
				z"/>
			<g>
				
					<radialGradient id="SVGID_14_" cx="45.1709" cy="-12.5688" r="12.7603" gradientTransform="matrix(1 0 0 -1 -50 61)" gradientUnits="userSpaceOnUse">
					<stop  offset="0.0859" style="stop-color:#FFFA00"/>
					<stop  offset="0.3558" style="stop-color:#FFE300"/>
					<stop  offset="0.6258" style="stop-color:#F7941E"/>
					<stop  offset="1" style="stop-color:#CA7C00"/>
				</radialGradient>
				<path fill="url(#SVGID_14_)" d="M71.699,85.459c0,0,5.091,34.326,9.858,45.357c4.769,11.031,16.517,26.832,41.878,25.479
					c3.078-0.163,5.963-0.808,8.643-1.817c-2.107,0.625-4.328,1.026-6.662,1.151c-25.363,1.353-37.11-14.45-41.878-25.481
					c-4.768-11.029-9.859-45.355-9.859-45.355l-8.104,1.536c0,0,0.012,0.108,0.033,0.285L71.699,85.459z"/>
				
					<radialGradient id="SVGID_15_" cx="43.4097" cy="-12.5684" r="12.8876" gradientTransform="matrix(1 0 0 -1 -50 61)" gradientUnits="userSpaceOnUse">
					<stop  offset="0.0859" style="stop-color:#FFFA00"/>
					<stop  offset="0.3558" style="stop-color:#FFE300"/>
					<stop  offset="0.6258" style="stop-color:#F7941E"/>
					<stop  offset="1" style="stop-color:#CA7C00"/>
				</radialGradient>
				<path fill="url(#SVGID_15_)" d="M159.07,85.532c-7.752-18.193-14.098-29.874-14.098-29.874l-1.875,0.863
					c0.842,1.571,6.812,12.826,13.991,29.678c8.343,19.578,10.406,36.107,0.777,55.352c-5.767,11.521-14.818,19.196-24.746,22.77
					c10.812-3.229,20.571-11.037,26.719-23.319C169.469,121.757,167.412,105.109,159.07,85.532z"/>
			</g>
			
				<linearGradient id="SVGID_16_" gradientUnits="userSpaceOnUse" x1="149.8369" y1="-99.0693" x2="150.0114" y2="-96.1906" gradientTransform="matrix(1 0 0 -1 -50 61)">
				<stop  offset="0" style="stop-color:#F7941E"/>
				<stop  offset="1" style="stop-color:#834200"/>
			</linearGradient>
			<circle fill="url(#SVGID_16_)" cx="100.001" cy="157.369" r="2.531"/>
			
				<linearGradient id="SVGID_17_" gradientUnits="userSpaceOnUse" x1="185.3594" y1="-100.6113" x2="185.5339" y2="-97.7316" gradientTransform="matrix(1 0 0 -1 -50 61)">
				<stop  offset="0" style="stop-color:#F7941E"/>
				<stop  offset="1" style="stop-color:#834200"/>
			</linearGradient>
			<circle fill="url(#SVGID_17_)" cx="135.521" cy="158.911" r="2.53"/>
			
				<linearGradient id="SVGID_18_" gradientUnits="userSpaceOnUse" x1="128.6895" y1="-74.4497" x2="128.864" y2="-71.5704" gradientTransform="matrix(1 0 0 -1 -50 61)">
				<stop  offset="0" style="stop-color:#F7941E"/>
				<stop  offset="1" style="stop-color:#834200"/>
			</linearGradient>
			<circle fill="url(#SVGID_18_)" cx="78.853" cy="132.75" r="2.53"/>
			
				<linearGradient id="SVGID_19_" gradientUnits="userSpaceOnUse" x1="120.582" y1="-41.6982" x2="120.7565" y2="-38.8187" gradientTransform="matrix(1 0 0 -1 -50 61)">
				<stop  offset="0" style="stop-color:#F7941E"/>
				<stop  offset="1" style="stop-color:#834200"/>
			</linearGradient>
			<circle fill="url(#SVGID_19_)" cx="70.745" cy="100" r="2.53"/>
			
				<linearGradient id="SVGID_20_" gradientUnits="userSpaceOnUse" x1="196.7061" y1="-12.5562" x2="196.8725" y2="-9.8097" gradientTransform="matrix(1 0 0 -1 -50 61)">
				<stop  offset="0" style="stop-color:#F7941E"/>
				<stop  offset="1" style="stop-color:#834200"/>
			</linearGradient>
			<circle fill="url(#SVGID_20_)" cx="146.859" cy="70.981" r="2.415"/>
			
				<linearGradient id="SVGID_21_" gradientUnits="userSpaceOnUse" x1="208.9141" y1="-43.187" x2="209.0806" y2="-40.4394" gradientTransform="matrix(1 0 0 -1 -50 61)">
				<stop  offset="0" style="stop-color:#F7941E"/>
				<stop  offset="1" style="stop-color:#834200"/>
			</linearGradient>
			<circle fill="url(#SVGID_21_)" cx="159.068" cy="101.613" r="2.413"/>
			
				<linearGradient id="SVGID_22_" gradientUnits="userSpaceOnUse" x1="207.2705" y1="-74.3242" x2="207.437" y2="-71.5767" gradientTransform="matrix(1 0 0 -1 -50 61)">
				<stop  offset="0" style="stop-color:#F7941E"/>
				<stop  offset="1" style="stop-color:#834200"/>
			</linearGradient>
			<circle fill="url(#SVGID_22_)" cx="157.426" cy="132.75" r="2.414"/>
		</g>
	</g>
</g>
<g id="outline_x5F_white">
	<g>
		<g>
			<path fill="#FFFFFF" d="M148.4,26.601l10.67,23.448l-9.074,3.815l13.672,28.533c15.621,35.871,0.209,77.083-28.275,87.537
				c-2.104,0.771-4.238,1.361-6.383,1.789c-0.004,0.002-0.01,0.004-0.01,0.004c-3.749,1.375-12.302,1.674-18.842,1.674
				c-2.605,0-4.891-0.049-6.426-0.094c-23.85-0.695-48.501-24.125-54.4-55.5L44.247,89.36l-8.963-0.665l-5.173-25.229l27.949-6.043
				l15.618,1.16l5.176,25.229l5.624,31.452c2.795,13.254,7.793,21.803,13.649,27.141c5.705,4.179,11.25,6.912,15.553,6.912
				c1.002,0,1.938-0.148,2.791-0.461c12.147-4.463,28.53-23.112,14.614-56.79l-13.803-28.601l-10.673-23.442l26.308-11.065
				L148.4,26.601 M148.404,14.6c-0.6,0-1.203,0.045-1.812,0.137l-15.481,2.357c-0.979,0.149-1.935,0.418-2.846,0.802l-26.308,11.065
				c-2.99,1.258-5.343,3.671-6.524,6.692c-1.181,3.02-1.089,6.39,0.255,9.341l10.67,23.442c0.037,0.082,0.076,0.163,0.115,0.244
				l13.646,28.276c4.874,11.94,5.606,22.449,2.116,30.403c-2.299,5.238-6.094,8.466-9.002,9.849
				c-1.146-0.319-3.68-1.385-7.463-4.084c-4.36-4.216-7.562-10.993-9.517-20.162L90.667,81.7c-0.018-0.1-0.037-0.2-0.057-0.299
				l-5.176-25.229c-1.079-5.256-5.516-9.158-10.866-9.556l-15.618-1.16c-0.296-0.022-0.593-0.033-0.889-0.033
				c-0.852,0-1.702,0.091-2.536,0.271l-27.949,6.043c-6.429,1.39-10.541,7.696-9.219,14.139l5.173,25.229
				c1.056,5.151,5.337,9.001,10.543,9.528l3.448,19.285c0.006,0.035,0.013,0.068,0.019,0.104
				c3.251,17.295,11.697,33.463,23.783,45.53c12.322,12.304,27.259,19.316,42.06,19.749c1.514,0.045,3.92,0.098,6.776,0.098
				c13.188,0,18.93-1.104,22.007-2.076c2.512-0.539,4.984-1.252,7.359-2.124c15.57-5.714,28.248-18.455,35.701-35.88
				c9.111-21.299,8.908-45.979-0.557-67.713c-0.059-0.132-0.117-0.264-0.18-0.394l-8.364-17.456c1.839-1.337,3.276-3.182,4.12-5.335
				c1.182-3.021,1.09-6.39-0.254-9.342l-10.67-23.448C157.354,17.303,153.051,14.6,148.404,14.6L148.404,14.6z"/>
		</g>
	</g>
</g>
<g id="outline_x5F_black">
	<g>
		<path d="M148.4,26.601l10.67,23.448l-9.074,3.815l13.672,28.533c15.621,35.871,0.209,77.083-28.275,87.537
			c-2.104,0.771-4.238,1.361-6.383,1.789c-0.004,0.002-0.01,0.004-0.01,0.004c-3.749,1.375-12.302,1.674-18.841,1.674
			c-2.604,0-4.892-0.049-6.427-0.094c-23.85-0.695-48.501-24.125-54.4-55.5L44.247,89.36l-8.963-0.665l-5.173-25.229l27.949-6.043
			l15.618,1.16l5.176,25.229l5.624,31.452c2.795,13.254,7.793,21.803,13.649,27.141c5.705,4.179,11.25,6.912,15.553,6.912
			c1.002,0,1.938-0.148,2.791-0.461c12.147-4.463,28.53-23.112,14.614-56.79l-13.803-28.601l-10.673-23.442l26.308-11.065
			L148.4,26.601 M148.402,20.6c-0.299,0-0.603,0.022-0.905,0.069l-15.481,2.357c-0.49,0.075-0.968,0.209-1.424,0.401l-26.307,11.065
			c-1.495,0.629-2.672,1.835-3.262,3.346c-0.591,1.51-0.545,3.195,0.127,4.671l10.672,23.442c0.019,0.041,0.037,0.082,0.058,0.122
			l13.726,28.441c5.567,13.55,6.304,25.74,2.127,35.255c-3.299,7.521-9.049,11.881-13.33,13.453
			c-0.092,0.033-0.314,0.092-0.721,0.092c-0.964,0-4.631-0.403-11.74-5.558c-5.427-5.065-9.32-13.021-11.573-23.646L84.76,82.756
			c-0.009-0.05-0.019-0.1-0.029-0.149l-5.176-25.229c-0.539-2.628-2.757-4.579-5.433-4.778l-15.618-1.16
			c-0.148-0.011-0.296-0.017-0.444-0.017c-0.426,0-0.851,0.045-1.268,0.136l-27.949,6.043c-3.214,0.695-5.27,3.848-4.61,7.069
			L29.406,89.9c0.539,2.629,2.758,4.58,5.434,4.778L39.16,95l4.267,23.863c0.003,0.018,0.006,0.035,0.01,0.053
			c6.215,33.061,32.624,59.587,60.122,60.391c1.474,0.043,3.814,0.096,6.603,0.096c14.01,0,18.718-1.279,20.478-1.887
			c2.332-0.486,4.625-1.142,6.822-1.947c14.001-5.139,25.455-16.719,32.251-32.606c8.464-19.786,8.267-42.733-0.541-62.958
			c-0.028-0.066-0.06-0.132-0.09-0.197l-10.95-22.852l3.268-1.374c1.494-0.628,2.672-1.835,3.263-3.345
			c0.591-1.51,0.545-3.195-0.127-4.67l-10.67-23.448C152.877,21.952,150.727,20.6,148.402,20.6L148.402,20.6z"/>
	</g>
</g>
</svg>
