<?xml version="1.0" encoding="utf-8"?>
<!-- Generator: Adobe Illustrator 15.0.0, SVG Export Plug-In . SVG Version: 6.00 Build 0)  -->
<!DOCTYPE svg PUBLIC "-//W3C//DTD SVG 1.1//EN" "http://www.w3.org/Graphics/SVG/1.1/DTD/svg11.dtd">
<svg version="1.1" xmlns="http://www.w3.org/2000/svg" xmlns:xlink="http://www.w3.org/1999/xlink" x="0px" y="0px" width="200px"
	 height="200px" viewBox="0 0 200 200" enable-background="new 0 0 200 200" xml:space="preserve">
<g id="icon">
	<g id="Layer_2">
	</g>
	<g id="Layer_1_1_">
		<g>
			
				<radialGradient id="SVGID_1_" cx="299.7148" cy="1341.5518" r="45.3393" gradientTransform="matrix(1 0 0 1 -200 -1182)" gradientUnits="userSpaceOnUse">
				<stop  offset="0.7423" style="stop-color:#485E7F"/>
				<stop  offset="1" style="stop-color:#002344"/>
			</radialGradient>
			<path fill="url(#SVGID_1_)" d="M154.312,150.87c0,18.149-24.316,32.862-54.312,32.862S45.688,169.02,45.688,150.87
				c0-0.993,0-9.957,0-9.957c2.461-16.769,25.958-22.907,54.312-22.907c28.579,0.001,52.163,5.949,54.312,22.907
				C154.312,140.913,154.312,150.014,154.312,150.87z"/>
			
				<radialGradient id="SVGID_2_" cx="171.458" cy="1709.7441" r="65.9811" gradientTransform="matrix(0.9596 0 0 0.6579 -64.103 -964.0111)" gradientUnits="userSpaceOnUse">
				<stop  offset="0.5583" style="stop-color:#5D6F90"/>
				<stop  offset="1" style="stop-color:#002344"/>
			</radialGradient>
			<ellipse fill="url(#SVGID_2_)" cx="100" cy="140.913" rx="54.312" ry="32.863"/>
			
				<radialGradient id="SVGID_3_" cx="171.0117" cy="1902.8242" r="49.0848" gradientTransform="matrix(0.9596 0 0 0.5888 -64.103 -979.167)" gradientUnits="userSpaceOnUse">
				<stop  offset="0.7546" style="stop-color:#5D6F90"/>
				<stop  offset="1" style="stop-color:#002344"/>
			</radialGradient>
			<ellipse fill="url(#SVGID_3_)" cx="100" cy="135.672" rx="49.41" ry="29.896"/>
			
				<radialGradient id="SVGID_4_" cx="-1751.8535" cy="1325.3701" r="65.2624" gradientTransform="matrix(-0.003 -1 0.6712 -0.002 -839.9504 -1643.391)" gradientUnits="userSpaceOnUse">
				<stop  offset="0.454" style="stop-color:#002344"/>
				<stop  offset="0.8282" style="stop-color:#5D6F90"/>
			</radialGradient>
			<path fill="url(#SVGID_4_)" d="M133.396,121.136c4.377,7.825,4.135,11.349,3.459,13.831
				c-3.209,10.438-18.274,17.999-37.667,17.999c-20,0-35.36-8.044-37.914-18.993c-0.445-2.188-0.225-5.291,3.648-12.529
				c10.156-18.979,15.272-26.729,15.272-26.729s33.388-3.783,37.944,0C118.143,94.713,120.797,98.616,133.396,121.136z"/>
			
				<radialGradient id="SVGID_5_" cx="-1667.2871" cy="1327.1504" r="43.6062" gradientTransform="matrix(-0.003 -1 0.6712 -0.002 -756.3254 -1557.0433)" gradientUnits="userSpaceOnUse">
				<stop  offset="0.454" style="stop-color:#002344"/>
				<stop  offset="0.8282" style="stop-color:#5D6F90"/>
			</radialGradient>
			<path fill="url(#SVGID_5_)" d="M133.396,121.136c4.377,7.825,4.135,11.349,3.459,13.831
				c-3.209,10.438-18.274,17.999-37.667,17.999l-1.73-59.671c8.916-0.473,18.398-0.473,20.682,1.418
				C118.143,94.713,120.797,98.616,133.396,121.136z"/>
			
				<linearGradient id="SVGID_6_" gradientUnits="userSpaceOnUse" x1="299.4102" y1="1284.1562" x2="299.4102" y2="1309.7131" gradientTransform="matrix(1 0 0 1 -200 -1182)">
				<stop  offset="0.3252" style="stop-color:#001E3A"/>
				<stop  offset="0.8344" style="stop-color:#002B5B;stop-opacity:0"/>
			</linearGradient>
			<path fill="url(#SVGID_6_)" d="M70.559,111.12c6.765,5.36,17.433,8.823,29.442,8.823c11.331,0,21.466-3.084,28.259-7.938
				c-8.216-14.499-10.117-17.296-10.117-17.296c-4.556-3.783-37.939,0-37.939,0S76.971,99.606,70.559,111.12z"/>
			
				<radialGradient id="SVGID_7_" cx="170.5078" cy="1490.8408" r="55.4216" fx="170.7142" fy="1472.4242" gradientTransform="matrix(0.9596 0 0 0.717 -64.103 -983.4796)" gradientUnits="userSpaceOnUse">
				<stop  offset="0.092" style="stop-color:#00092B"/>
				<stop  offset="0.3926" style="stop-color:#002344"/>
				<stop  offset="0.6442" style="stop-color:#5D6F90"/>
				<stop  offset="0.9018" style="stop-color:#4B6081"/>
			</radialGradient>
			<ellipse fill="url(#SVGID_7_)" cx="100" cy="90.765" rx="37.027" ry="22.406"/>
			
				<radialGradient id="SVGID_8_" cx="300.5254" cy="1281.6211" r="62.0253" fx="300.2796" fy="1289.3143" gradientTransform="matrix(1 0 0 0.95 -200 -1179.7449)" gradientUnits="userSpaceOnUse">
				<stop  offset="0.2822" style="stop-color:#5D6F90"/>
				<stop  offset="0.7546" style="stop-color:#002344"/>
				<stop  offset="1" style="stop-color:#00092B"/>
			</radialGradient>
			<circle fill="url(#SVGID_8_)" cx="100.602" cy="53.517" r="37.249"/>
		</g>
	</g>
</g>
<g id="outline_x5F_white">
	<g>
		<g>
			<path fill="#FFFFFF" d="M100.602,16.269c20.571,0,37.248,16.676,37.248,37.249c0,8.971-3.173,17.2-8.455,23.629
				c4.783,3.775,7.635,8.495,7.635,13.619c0,6.413-4.461,12.193-11.598,16.277c0.67,1.169,1.397,2.445,2.188,3.837
				c6.127,2.503,11.267,5.82,15.019,9.688c7.307,5.598,11.678,12.66,11.678,20.346c0,0,0,9.102,0,9.957
				c0,18.148-24.314,32.861-54.312,32.861S45.688,169.02,45.688,150.87c0-0.993,0-9.957,0-9.957c0-7.685,4.371-14.747,11.675-20.343
				c3.286-3.391,7.64-6.354,12.789-8.721c1.145-2.062,2.188-3.914,3.138-5.576c-6.385-4.026-10.317-9.488-10.317-15.508
				c0-5.388,3.146-10.331,8.383-14.196c-5.006-6.343-8.002-14.345-8.002-23.052C63.353,32.945,80.03,16.269,100.602,16.269
				 M100.602,4.269c-27.156,0-49.249,22.093-49.249,49.249c0,7.536,1.665,14.785,4.873,21.397
				c-3.433,4.801-5.253,10.21-5.253,15.851c0,5.433,1.737,10.694,4.968,15.388c-2.407,1.669-4.598,3.479-6.562,5.426
				c-10.125,8.021-15.69,18.408-15.69,29.334v9.957c0,12.949,7.908,25.161,21.696,33.504c12.105,7.324,27.951,11.357,44.617,11.357
				s32.512-4.033,44.616-11.357c13.786-8.343,21.694-20.555,21.694-33.504v-9.957c0-10.928-5.563-21.314-15.691-29.336
				c-1.965-1.946-4.148-3.755-6.543-5.418c3.225-4.68,4.951-9.926,4.951-15.394c0-5.229-1.584-10.288-4.575-14.842
				c3.519-6.896,5.396-14.585,5.396-22.406C149.85,26.361,127.757,4.269,100.602,4.269L100.602,4.269z"/>
		</g>
	</g>
</g>
<g id="outline_x5F_black">
	<g>
		<path d="M100.602,16.269c20.571,0,37.248,16.676,37.248,37.249c0,8.971-3.173,17.2-8.455,23.629
			c4.783,3.775,7.635,8.495,7.635,13.619c0,6.413-4.461,12.193-11.598,16.277c0.67,1.169,1.397,2.445,2.188,3.837
			c6.127,2.503,11.267,5.82,15.019,9.688c7.307,5.598,11.678,12.66,11.678,20.346c0,0,0,9.102,0,9.957
			c0,18.148-24.314,32.861-54.312,32.861S45.688,169.02,45.688,150.87c0-0.993,0-9.957,0-9.957c0-7.685,4.371-14.747,11.675-20.343
			c3.286-3.391,7.64-6.354,12.789-8.721c1.145-2.062,2.188-3.914,3.138-5.576c-6.385-4.026-10.317-9.488-10.317-15.508
			c0-5.388,3.146-10.331,8.383-14.196c-5.006-6.343-8.002-14.345-8.002-23.052C63.353,32.945,80.03,16.269,100.602,16.269
			 M100.602,10.269c-23.848,0-43.249,19.401-43.249,43.249c0,7.896,2.082,15.433,6.063,22.09c-4.19,4.468-6.444,9.707-6.444,15.158
			c0,6.221,2.86,12.054,8.167,16.856c-4.617,2.388-8.567,5.224-11.772,8.455c-8.825,6.89-13.679,15.694-13.679,24.837v9.957
			c0,10.959,6.677,21.033,18.802,28.371c11.182,6.766,25.924,10.49,41.51,10.49c15.587,0,30.328-3.729,41.51-10.49
			c12.125-7.338,18.803-17.412,18.803-28.371v-9.957c0-9.143-4.854-17.949-13.684-24.841c-3.18-3.2-7.188-6.072-11.783-8.458
			c5.271-4.799,8.182-10.685,8.182-16.849c0-5.108-2.004-10.067-5.729-14.361c4.256-6.829,6.557-14.777,6.557-22.887
			C143.85,29.67,124.448,10.269,100.602,10.269L100.602,10.269z"/>
	</g>
</g>
</svg>
