<?xml version="1.0" encoding="utf-8"?>
<!-- Generator: Adobe Illustrator 15.0.0, SVG Export Plug-In . SVG Version: 6.00 Build 0)  -->
<!DOCTYPE svg PUBLIC "-//W3C//DTD SVG 1.1//EN" "http://www.w3.org/Graphics/SVG/1.1/DTD/svg11.dtd">
<svg version="1.1" xmlns="http://www.w3.org/2000/svg" xmlns:xlink="http://www.w3.org/1999/xlink" x="0px" y="0px" width="200px"
	 height="200px" viewBox="0 0 200 200" enable-background="new 0 0 200 200" xml:space="preserve">
<g id="icon">
	<g id="Layer_2">
	</g>
	<g id="Layer_1_1_">
		<g>
			
				<radialGradient id="SVGID_1_" cx="192.5859" cy="611.2939" r="19.2867" gradientTransform="matrix(1 0 0 1 -100 -591)" gradientUnits="userSpaceOnUse">
				<stop  offset="0.2822" style="stop-color:#E1D7CB"/>
				<stop  offset="0.589" style="stop-color:#C6BCB0"/>
				<stop  offset="0.8282" style="stop-color:#796F63"/>
				<stop  offset="1" style="stop-color:#9B9185"/>
			</radialGradient>
			<path fill="url(#SVGID_1_)" d="M85.284,39.702c0,0-3.745-18.882-4.564-22.787c-0.82-3.905,15.53,12.09,15.908,14.038
				C97.004,32.901,85.284,39.702,85.284,39.702z"/>
			
				<radialGradient id="SVGID_2_" cx="62.5864" cy="684.3906" r="6.4022" gradientTransform="matrix(1.0632 -0.0333 0.1202 0.9368 -69.0803 -607.0712)" gradientUnits="userSpaceOnUse">
				<stop  offset="0.0184" style="stop-color:#E0D6C9"/>
				<stop  offset="0.4501" style="stop-color:#A3998C"/>
				<stop  offset="1" style="stop-color:#584E42"/>
			</radialGradient>
			<path fill="url(#SVGID_2_)" d="M83.812,36.775c0,0-1.924-14.558-2.461-17.11c-0.536-2.553,4.686,10.991,4.932,12.265
				C86.531,33.203,83.812,36.775,83.812,36.775z"/>
			
				<radialGradient id="SVGID_3_" cx="199.7363" cy="752.3359" r="41.9253" gradientTransform="matrix(1 0 0 1 -100 -591)" gradientUnits="userSpaceOnUse">
				<stop  offset="0.4847" style="stop-color:#E0D6C9"/>
				<stop  offset="0.5713" style="stop-color:#DCD2C5"/>
				<stop  offset="0.6601" style="stop-color:#D0C6B9"/>
				<stop  offset="0.7498" style="stop-color:#BBB1A4"/>
				<stop  offset="0.8402" style="stop-color:#9E9488"/>
				<stop  offset="0.9303" style="stop-color:#7A7063"/>
				<stop  offset="1" style="stop-color:#584E42"/>
			</radialGradient>
			<path fill="url(#SVGID_3_)" d="M150.225,153.307c0,16.784-22.486,30.392-50.224,30.392c-27.739,0-50.226-13.605-50.226-30.392
				c0-0.918,0-9.207,0-9.207c2.275-15.509,24.004-21.184,50.226-21.184c26.429,0,48.237,5.501,50.224,21.184
				C150.225,144.1,150.225,152.514,150.225,153.307z"/>
			
				<radialGradient id="SVGID_4_" cx="54.1201" cy="812.96" r="68.8098" gradientTransform="matrix(0.9596 0 0 0.6579 48.4614 -372.3294)" gradientUnits="userSpaceOnUse">
				<stop  offset="0.4233" style="stop-color:#E2D8CC"/>
				<stop  offset="0.5195" style="stop-color:#DED4C8"/>
				<stop  offset="0.6181" style="stop-color:#D2C8BC"/>
				<stop  offset="0.7178" style="stop-color:#BDB3A7"/>
				<stop  offset="0.8183" style="stop-color:#A0968A"/>
				<stop  offset="0.9184" style="stop-color:#7C7266"/>
				<stop  offset="1" style="stop-color:#584E42"/>
			</radialGradient>
			<ellipse fill="url(#SVGID_4_)" cx="100" cy="144.1" rx="50.225" ry="30.391"/>
			
				<radialGradient id="SVGID_5_" cx="53.7212" cy="901.9521" r="45.3885" gradientTransform="matrix(0.9596 0 0 0.5888 48.4614 -386.6904)" gradientUnits="userSpaceOnUse">
				<stop  offset="0" style="stop-color:#534C42"/>
				<stop  offset="0.0194" style="stop-color:#625B51"/>
				<stop  offset="0.0697" style="stop-color:#847C71"/>
				<stop  offset="0.1254" style="stop-color:#A1988D"/>
				<stop  offset="0.1871" style="stop-color:#B9AFA4"/>
				<stop  offset="0.2573" style="stop-color:#CBC1B6"/>
				<stop  offset="0.341" style="stop-color:#D7CEC2"/>
				<stop  offset="0.4513" style="stop-color:#DFD5C9"/>
				<stop  offset="0.6933" style="stop-color:#E1D7CB"/>
				<stop  offset="0.7446" style="stop-color:#DDD3C7"/>
				<stop  offset="0.7973" style="stop-color:#D1C7BB"/>
				<stop  offset="0.8505" style="stop-color:#BCB2A6"/>
				<stop  offset="0.9041" style="stop-color:#9F9589"/>
				<stop  offset="0.9575" style="stop-color:#7B7165"/>
				<stop  offset="1" style="stop-color:#584E42"/>
			</radialGradient>
			<ellipse fill="url(#SVGID_5_)" cx="100.012" cy="139.253" rx="45.691" ry="27.646"/>
			
				<radialGradient id="SVGID_6_" cx="86.2549" cy="576.4648" r="58.1191" fx="86.152" fy="553.2985" gradientTransform="matrix(0.9866 -0.1633 0.2151 1.3001 -120.8548 -652.3065)" gradientUnits="userSpaceOnUse">
				<stop  offset="0.2822" style="stop-color:#E1D7CB"/>
				<stop  offset="0.589" style="stop-color:#C6BCB0"/>
				<stop  offset="0.8282" style="stop-color:#796F63"/>
				<stop  offset="1" style="stop-color:#9B9185"/>
			</radialGradient>
			<path fill="url(#SVGID_6_)" d="M128.672,47.607C112.63,13.585,89.423,63.206,83.747,68.496c0,0,4.707,8.906-1.366,22.566
				c-7.611,15.027-19.315,19.877-19.315,19.877c0,7.043,1.417,13.769,3.996,19.938c1.715,4.104,4.07,9.021,8.058,13.824
				c4.475,5.387,13.98,9.312,25.194,9.312c11.345,0,21.086-3.91,25.34-9.506c3.74-4.89,6.671-10.355,8.447-14.964
				C136.341,123.745,148.665,90.01,128.672,47.607z"/>
			
				<linearGradient id="SVGID_7_" gradientUnits="userSpaceOnUse" x1="180.5293" y1="656.084" x2="224.8262" y2="656.084" gradientTransform="matrix(1 0 0 1 -100 -591)">
				<stop  offset="0.0491" style="stop-color:#584E42"/>
				<stop  offset="1" style="stop-color:#584E42;stop-opacity:0"/>
			</linearGradient>
			<path fill="url(#SVGID_7_)" d="M83.747,68.496c0,0,4.707,8.906-1.366,22.566c-0.594,1.172-1.215,2.276-1.851,3.327
				c4.004-2.082,9.134-4.516,15.122-6.84c14.852-3.628,22.45-4.5,22.45-4.5c4.021-4.02,9.049-13.842,5.123-17.552
				c-7.018-6.635-5.772-31.585,0-24.2c0,0,2.209,1.101,1.438-0.351C108.999,21.31,88.966,63.632,83.747,68.496z"/>
			
				<radialGradient id="SVGID_8_" cx="4509.9756" cy="-6574.2148" r="40.2992" fx="4509.9043" fy="-6590.2783" gradientTransform="matrix(-0.7071 -0.7071 1.0178 -1.0178 9970.4775 -3439.5908)" gradientUnits="userSpaceOnUse">
				<stop  offset="0.2822" style="stop-color:#E1D7CB"/>
				<stop  offset="0.589" style="stop-color:#C6BCB0"/>
				<stop  offset="0.8282" style="stop-color:#796F63"/>
				<stop  offset="1" style="stop-color:#9B9185"/>
			</radialGradient>
			<path fill="url(#SVGID_8_)" d="M52.127,86.623c-2.853,6.407,7.138,12.153,13.678,12.095c0,0,9.69-6.921,26.604-12.03
				c15.702-4.48,23.422-1.369,23.422-1.369c4.392-4.391,10.104-14.899,6.171-18.599c-7.036-6.617-4.584-32.776,1.116-25.316
				c0,0,4.714,2.191-1.688-4.211c-6.479-6.478-14.479-9.599-20.395-8.539c-5.186,0.914-10.267,2.65-14.153,4.508
				C81.983,35.504,56.987,75.7,52.127,86.623z"/>
			
				<radialGradient id="SVGID_9_" cx="4478.6641" cy="-6597.4941" r="40.2998" fx="4478.2773" fy="-6598.2803" gradientTransform="matrix(-0.7071 -0.7071 1.0178 -1.0178 9975.2275 -3444.3389)" gradientUnits="userSpaceOnUse">
				<stop  offset="0.4233" style="stop-color:#584E42"/>
				<stop  offset="0.5231" style="stop-color:#887E72;stop-opacity:0.7609"/>
				<stop  offset="0.6183" style="stop-color:#AFA599;stop-opacity:0.5325"/>
				<stop  offset="0.7058" style="stop-color:#CAC0B4;stop-opacity:0.323"/>
				<stop  offset="0.7826" style="stop-color:#DBD1C5;stop-opacity:0.1388"/>
				<stop  offset="0.8405" style="stop-color:#E1D7CB;stop-opacity:0"/>
			</radialGradient>
			<path fill="url(#SVGID_9_)" d="M52.127,86.623c-2.853,6.407,7.138,12.153,13.678,12.095c0,0,9.69-6.921,26.604-12.03
				c15.702-4.48,23.422-1.369,23.422-1.369c4.392-4.391,10.104-14.899,6.171-18.599c-7.036-6.617-4.584-32.776,1.116-25.316
				c0,0,4.714,2.191-1.688-4.211c-6.479-6.478-14.479-9.599-20.395-8.539c-5.186,0.914-10.267,2.65-14.153,4.508
				C81.983,35.504,56.987,75.7,52.127,86.623z"/>
			
				<linearGradient id="SVGID_10_" gradientUnits="userSpaceOnUse" x1="200.7197" y1="670.3594" x2="179.2139" y2="647.4416" gradientTransform="matrix(1 0 0 1 -100 -591)">
				<stop  offset="0.4785" style="stop-color:#E1D7CB;stop-opacity:0"/>
				<stop  offset="1" style="stop-color:#E1D7CB"/>
			</linearGradient>
			<path fill="url(#SVGID_10_)" d="M52.127,86.623c-2.853,6.407,7.138,12.153,13.678,12.095c0,0,9.69-6.921,26.604-12.03
				c15.702-4.48,23.422-1.369,23.422-1.369c4.392-4.391,10.104-14.899,6.171-18.599c-7.036-6.617-4.584-32.776,1.116-25.316
				c0,0,4.714,2.191-1.688-4.211c-6.479-6.478-14.479-9.599-20.395-8.539c-5.186,0.914-10.267,2.65-14.153,4.508
				C81.983,35.504,56.987,75.7,52.127,86.623z"/>
			
				<radialGradient id="SVGID_11_" cx="-894.2246" cy="-24.3154" r="46.3931" fx="-894.3067" fy="-42.8078" gradientTransform="matrix(-0.7071 -0.7071 0.9318 -0.9318 -484.3439 -582.6912)" gradientUnits="userSpaceOnUse">
				<stop  offset="0.2822" style="stop-color:#E1D7CB"/>
				<stop  offset="0.589" style="stop-color:#C6BCB0"/>
				<stop  offset="0.8282" style="stop-color:#796F63"/>
				<stop  offset="1" style="stop-color:#9B9185"/>
			</radialGradient>
			<path fill="url(#SVGID_11_)" d="M92.372,29.783c0,0,5.426-13.479,23.381-9.855c17.849,3.604,28.235,34.794,30.728,50.448
				c4.598,28.883-3.404,46.798-3.404,46.798h-5.241c0,0,4.069-15.574,0.753-37.431c-3.316-21.857-12.893-37.617-21.123-44.593
				c-13.014-11.026-21.812,1.625-21.812,1.625L92.372,29.783z"/>
			
				<radialGradient id="SVGID_12_" cx="190.3828" cy="607.3184" r="48.7682" gradientTransform="matrix(1 0 0 1 -100 -591)" gradientUnits="userSpaceOnUse">
				<stop  offset="0.2822" style="stop-color:#E1D7CB"/>
				<stop  offset="0.589" style="stop-color:#C6BCB0"/>
				<stop  offset="0.8282" style="stop-color:#796F63"/>
				<stop  offset="1" style="stop-color:#9B9185"/>
			</radialGradient>
			<path fill="url(#SVGID_12_)" d="M92.372,29.783c0,0,5.426-13.479,23.381-9.855c0,0-2.147-0.619-4.646-1.268
				c-13.772-3.582-25.375,9.399-25.375,9.399L92.372,29.783z"/>
			
				<radialGradient id="SVGID_13_" cx="-185.3154" cy="-906.397" r="18.8422" gradientTransform="matrix(-0.6454 0.9163 -0.4701 -0.5288 -433.3159 -275.1134)" gradientUnits="userSpaceOnUse">
				<stop  offset="0.2822" style="stop-color:#E1D7CB"/>
				<stop  offset="0.589" style="stop-color:#C6BCB0"/>
				<stop  offset="0.8282" style="stop-color:#796F63"/>
				<stop  offset="1" style="stop-color:#9B9185"/>
			</radialGradient>
			<path fill="url(#SVGID_13_)" d="M119.716,25.773c-4.198,1.171-15.968,9.407-17.813,14.703c0,0,0.32,3.44,5.729,4.003
				c3.806,0.396,7.271-0.638,8.364-4.777C117.598,33.643,121.869,25.172,119.716,25.773z"/>
			
				<radialGradient id="SVGID_14_" cx="317.9033" cy="552.2793" r="16.9964" gradientTransform="matrix(0.8595 0.0896 -0.2203 1.1405 -55.3635 -619.045)" gradientUnits="userSpaceOnUse">
				<stop  offset="0.0184" style="stop-color:#E0D6C9"/>
				<stop  offset="0.4501" style="stop-color:#A3998C"/>
				<stop  offset="1" style="stop-color:#584E42"/>
			</radialGradient>
			<path fill="url(#SVGID_14_)" d="M104.449,43.613c0,0-0.039-2.382,2.744-5.725c2.785-3.343,9.103-8.588,9.012-7.234
				c-0.089,1.353-1.521,9.998-2.453,11.716c-0.932,1.72-1.915,2.204-4.829,2.439C106.441,45.01,104.449,43.613,104.449,43.613z"/>
			
				<radialGradient id="SVGID_15_" cx="194.5781" cy="614.5381" r="13.6467" gradientTransform="matrix(1 0 0 1 -100 -591)" gradientUnits="userSpaceOnUse">
				<stop  offset="0.2822" style="stop-color:#E1D7CB"/>
				<stop  offset="0.589" style="stop-color:#C6BCB0"/>
				<stop  offset="0.8282" style="stop-color:#796F63"/>
				<stop  offset="1" style="stop-color:#9B9185"/>
			</radialGradient>
			<path fill="url(#SVGID_15_)" d="M95.651,36.775l-3.28-6.992l-6.641-1.724l2.504,6.114C88.235,34.173,93.993,35.375,95.651,36.775
				z"/>
			
				<radialGradient id="SVGID_16_" cx="200.1133" cy="680.6826" r="5.6699" fx="200.1033" fy="678.4225" gradientTransform="matrix(1 0 0 0.95 -100 -588.0729)" gradientUnits="userSpaceOnUse">
				<stop  offset="0.2822" style="stop-color:#E1D7CB"/>
				<stop  offset="0.589" style="stop-color:#C6BCB0"/>
				<stop  offset="0.8282" style="stop-color:#796F63"/>
				<stop  offset="1" style="stop-color:#9B9185"/>
			</radialGradient>
			<circle fill="url(#SVGID_16_)" cx="100.201" cy="59.572" r="4.42"/>
		</g>
	</g>
</g>
<g id="outline_x5F_white">
	<g>
		<g>
			<path fill="#FFFFFF" d="M81.013,16.303c1.215,0,5.629,3.821,9.457,7.586c3.722-2.753,9.334-5.855,15.74-5.855
				c1.589,0,3.228,0.19,4.896,0.625c2.5,0.649,4.646,1.268,4.646,1.268c17.848,3.602,28.234,34.794,30.727,50.448
				c4.599,28.883-3.403,46.798-3.403,46.798h-5.241c0,0,1.938-7.417,2.048-19.194c-0.188,10.475-1.903,18.916-3.478,24.56
				c1.113,0.887,2.138,1.816,3.068,2.781c6.728,5.17,10.752,11.688,10.752,18.779c0,0,0,8.414,0,9.207
				c0,16.782-22.486,30.389-50.225,30.389c-27.739,0-50.226-13.604-50.226-30.389c0-0.921,0-9.207,0-9.207
				c0-7.123,4.06-13.666,10.84-18.849c1.097-1.128,2.322-2.204,3.663-3.221c-0.788-3.581-1.213-7.287-1.213-11.093
				c0,0,9.952-4.135,17.47-16.562c0.297-0.49,0.589-0.995,0.878-1.509c0.027-0.05,0.057-0.1,0.084-0.149
				c0.3-0.539,0.595-1.09,0.883-1.659c0.154-0.347,0.297-0.688,0.438-1.029c-10.93,4.344-17.013,8.685-17.013,8.685
				c-0.033,0-0.065,0-0.099,0c-6.541,0-16.417-5.721-13.579-12.095c4.176-9.387,23.227-40.398,31.61-50.417
				c-0.291-2.182-1.358-10.151-2.008-14.328c-0.444-2.207-0.812-4.021-1.01-4.963C80.63,16.493,80.742,16.303,81.013,16.303
				 M81.013,4.303c-3.739,0-7.225,1.652-9.565,4.535c-2.366,2.914-3.267,6.756-2.472,10.543c0.186,0.885,0.525,2.556,0.937,4.599
				c0.36,2.341,0.846,5.815,1.26,8.842c-9.789,13.235-25.826,39.521-30.008,48.923c-2.479,5.568-1.94,11.785,1.481,17.053
				c2.228,3.431,5.473,6.146,9.055,8.111c-0.417,1.262-0.634,2.62-0.634,4.03c0,2.109,0.107,4.229,0.321,6.341
				c-8.798,7.446-13.611,16.889-13.611,26.819v9.207c0,12.299,7.472,23.873,20.499,31.756c11.333,6.855,26.152,10.633,41.727,10.633
				c15.574,0,30.394-3.775,41.726-10.633c13.026-7.883,20.498-19.457,20.498-31.756V144.1c0-7.738-2.927-15.188-8.386-21.623
				c0.066-0.135,0.132-0.271,0.192-0.408c0.386-0.863,9.396-21.541,4.299-53.577c-1.342-8.434-4.867-21.599-10.736-33.254
				c-7.742-15.371-17.479-24.438-28.947-26.96c-0.785-0.223-2.545-0.716-4.522-1.229c-2.575-0.67-5.237-1.01-7.912-1.01
				c-4.707,0-9.489,1.058-14.153,3.106c-4.922-3.955-7.867-4.836-11.038-4.837l0,0C81.016,4.303,81.014,4.303,81.013,4.303
				L81.013,4.303z"/>
		</g>
	</g>
</g>
<g id="outline_x5F_black">
	<g>
		<path d="M81.013,16.303c1.215,0,5.629,3.821,9.457,7.586c3.722-2.753,9.334-5.855,15.74-5.855c1.589,0,3.228,0.19,4.896,0.625
			c2.5,0.649,4.646,1.268,4.646,1.268c17.848,3.602,28.234,34.794,30.727,50.448c4.599,28.883-3.403,46.798-3.403,46.798h-5.241
			c0,0,1.938-7.417,2.048-19.194c-0.188,10.475-1.903,18.916-3.478,24.56c1.113,0.887,2.138,1.816,3.068,2.781
			c6.728,5.17,10.752,11.688,10.752,18.779c0,0,0,8.414,0,9.207c0,16.782-22.486,30.389-50.225,30.389
			c-27.739,0-50.226-13.604-50.226-30.389c0-0.921,0-9.207,0-9.207c0-7.123,4.06-13.666,10.84-18.849
			c1.097-1.128,2.322-2.204,3.663-3.221c-0.788-3.581-1.213-7.287-1.213-11.093c0,0,9.952-4.135,17.47-16.562
			c0.297-0.49,0.589-0.995,0.878-1.509c0.027-0.05,0.057-0.1,0.084-0.149c0.3-0.539,0.595-1.09,0.883-1.659
			c0.154-0.347,0.297-0.688,0.438-1.029c-10.93,4.344-17.013,8.685-17.013,8.685c-0.033,0-0.065,0-0.099,0
			c-6.541,0-16.417-5.721-13.579-12.095c4.176-9.387,23.227-40.398,31.61-50.417c-0.291-2.182-1.358-10.151-2.008-14.328
			c-0.444-2.207-0.812-4.021-1.01-4.963C80.63,16.493,80.742,16.303,81.013,16.303 M81.013,10.303c-1.924,0-3.712,0.844-4.908,2.317
			c-0.718,0.884-1.835,2.777-1.258,5.528c0.192,0.913,0.546,2.656,0.974,4.781c0.471,3.042,1.161,8.062,1.629,11.532
			C68.295,46.316,50.842,74.75,46.646,84.184c-1.662,3.733-1.296,7.764,1.031,11.347c3.217,4.954,9.488,8.014,14.871,8.91
			c-1.091,0.652-1.761,0.949-1.784,0.959c-2.239,0.93-3.698,3.115-3.698,5.541c0,2.91,0.226,5.838,0.674,8.744
			c-0.382,0.352-0.752,0.707-1.112,1.065c-8.292,6.464-12.852,14.741-12.852,23.349v9.207c0,20.404,24.697,36.391,56.226,36.391
			c31.527,0,56.225-15.984,56.225-36.391V144.1c0-7.798-3.748-15.33-10.621-21.482c1.287-0.6,2.349-1.647,2.949-2.994
			c0.355-0.798,8.674-19.892,3.854-50.188c-1.271-7.988-4.611-20.458-10.174-31.499c-6.926-13.754-15.352-21.772-25.043-23.835
			c-0.625-0.178-2.469-0.699-4.574-1.246c-2.085-0.542-4.24-0.817-6.404-0.817c-5.803,0-10.975,1.962-15.036,4.254
			c-6.589-5.984-8.544-5.985-10.159-5.985l0,0C81.015,10.303,81.014,10.303,81.013,10.303L81.013,10.303z"/>
	</g>
</g>
</svg>
