<?xml version="1.0" encoding="utf-8"?>
<!-- Generator: Adobe Illustrator 15.0.0, SVG Export Plug-In . SVG Version: 6.00 Build 0)  -->
<!DOCTYPE svg PUBLIC "-//W3C//DTD SVG 1.1//EN" "http://www.w3.org/Graphics/SVG/1.1/DTD/svg11.dtd">
<svg version="1.1" xmlns="http://www.w3.org/2000/svg" xmlns:xlink="http://www.w3.org/1999/xlink" x="0px" y="0px" width="200px"
	 height="200px" viewBox="0 0 200 200" enable-background="new 0 0 200 200" xml:space="preserve">
<g id="icon">
	<g id="Layer_2">
	</g>
	<g id="Layer_1_1_">
		<g>
			
				<linearGradient id="SVGID_1_" gradientUnits="userSpaceOnUse" x1="150.6523" y1="26.4609" x2="90.5732" y2="-97.0617" gradientTransform="matrix(1 0 0 -1 -50 61)">
				<stop  offset="0" style="stop-color:#E85300"/>
				<stop  offset="1" style="stop-color:#812D00"/>
			</linearGradient>
			<polygon fill="url(#SVGID_1_)" points="89.313,176.971 38.808,126.818 32.55,55.439 87.573,101.449 			"/>
			
				<linearGradient id="SVGID_2_" gradientUnits="userSpaceOnUse" x1="167.2412" y1="60.6943" x2="192.7409" y2="144.6931" gradientTransform="matrix(1 0 0 -1 -50 61)">
				<stop  offset="0" style="stop-color:#E85300"/>
				<stop  offset="1" style="stop-color:#812D00"/>
			</linearGradient>
			<polygon fill="url(#SVGID_2_)" points="166.725,61.15 105.948,23.029 32.55,55.439 87.573,101.449 			"/>
			
				<linearGradient id="SVGID_3_" gradientUnits="userSpaceOnUse" x1="171.7393" y1="-45.937" x2="193.541" y2="-88.0368" gradientTransform="matrix(1 0 0 -1 -50 61)">
				<stop  offset="0" style="stop-color:#E85300"/>
				<stop  offset="1" style="stop-color:#812D00"/>
			</linearGradient>
			<polygon fill="url(#SVGID_3_)" points="87.573,101.449 89.313,176.971 160.298,135.125 166.725,61.15 			"/>
			
				<radialGradient id="SVGID_4_" cx="138.2832" cy="-12.1426" r="144.3354" gradientTransform="matrix(1 0 0 -1 -50 61)" gradientUnits="userSpaceOnUse">
				<stop  offset="0" style="stop-color:#FFBDCF"/>
				<stop  offset="1" style="stop-color:#FF7E6D;stop-opacity:0"/>
			</radialGradient>
			<polygon fill="url(#SVGID_4_)" points="87.573,99.125 34.369,54.637 32.55,55.439 87.573,101.449 166.725,61.15 164.678,59.867 
							"/>
			
				<radialGradient id="SVGID_5_" cx="146.5342" cy="-17.8931" r="125.2645" gradientTransform="matrix(1 0 0 -1 -50 61)" gradientUnits="userSpaceOnUse">
				<stop  offset="0" style="stop-color:#FFBDCF"/>
				<stop  offset="1" style="stop-color:#FF7E6D;stop-opacity:0"/>
			</radialGradient>
			<polygon fill="url(#SVGID_5_)" points="88.52,99.999 87.573,99.999 86.533,99.999 88.264,175.928 89.313,176.971 90.353,176.357 
							"/>
			<path fill="#E5E0E2" d="M147.618,64.922l-4.11-2.852l-4.137-2.809l-4.075-2.906l-4.092-2.882l-4.238-2.665l-4.135-2.823
				l-1.894-1.335l3.062-1.479l4.933-2.437l4.907-2.295l-3.942-2.269l-4.891,2.531l-4.925,2.524l-2.337,1.126l-3.014-2.263
				l-4.789-1.856l-3.732-3.416l-4.021-2.994l-4.023-3l-4.556-1.851l-4.693,1.185l4.556,2.91l4.289,2.705l1.909,1.391l-1.741,0.762
				l-4.471,2.03l-4.447,2.074l-4.388,2.19l-4.464,2.027l-4.474,2.01l-4.438,2.082l-4.455,2.05l-2.368,0.905l-1.614-1.419
				l-3.733-3.291l-4.317-2.281l-3.506,1.079l4.151,3.166l3.929,3.051l3.729,3.289l3.713,3.316l4.029,2.926l4.112,2.827l1.054,1.075
				l-1.438,0.742L70.3,69.908l-4.209,2.175l-4.214,2.155l-4.454,2.081l3.559,2.926l4.323-1.824l4.034-2.494l4.271-2.001l4.242-2.054
				l1.51-0.725l3.248,2.119l3.397,3.703l3.92,3.063l3.825,3.181l3.95,3.031l4.235,2.693l3.562,3.614l2.832-1.87l-3.238-3.283
				l-3.823-3.16L98.502,81l3.59-1.639l4.611-2.088l4.503-2.303l4.448-2.406l4.81-1.663l4.209-2.897l4.611-2.07l4.61-2.074
				l3.273-1.332l2.62,1.629l4.584,2.283l3.942,3.353l2.787-1.839L147.618,64.922z M107.921,72.074l-4.53,2.262l-4.548,2.23
				l-3.769,1.57l-1.445-1.224l-3.804-3.186l-3.957-2.999L82.02,67.59l-3.807-3.188l-3.719-3.296l-4.521-2.303l-2.882-3.062
				l2.405-1.07l4.5-1.992l4.396-2.202l4.345-2.301l1.055-0.356l3.122,1.938l3.742,3.44l3.922,3.211l3.918,3.214l4.37,2.632
				l3.696,3.499l4.109,2.982l1.635,1.234L107.921,72.074z M126.059,63.052l-4.539,2.255l-4.475,2.373l-1.318,0.639l-1.642-1.438
				l-3.989-3.093l-4.009-3.07l-3.967-3.121l-3.978-3.108l-4.068-2.991l-4.01-3.083l-2.481-1.925l3.96-2.671l4.5-1.977l4.498-1.979
				l1.848-0.714l3.555,2.623l4.387,2.558l4.465,2.445l3.883,3.319l4.541,2.336l3.784,3.468l4.282,2.72l1.652,1.126l-2.313,1.099
				L126.059,63.052z"/>
			<path fill="#BD4136" d="M93.607,28.974l4.556,1.851l4.022,3l4.022,2.994l3.731,3.416l4.789,1.856l3.015,2.263l2.337-1.126
				l4.925-2.524l4.89-2.531l3.943,2.269l-4.908,2.295l-4.932,2.437l-3.062,1.479l1.895,1.335l4.135,2.823l4.238,2.665l4.092,2.882
				l4.075,2.906l4.137,2.809l4.11,2.852l3.484,3.031l-2.787,1.839l-3.942-3.353l-4.584-2.283l-2.62-1.629l-3.273,1.332l-4.61,2.074
				l-4.611,2.07l-4.209,2.897l-4.81,1.663l-4.448,2.406l-4.503,2.303l-4.611,2.088L98.502,81l2.768,2.242l3.823,3.16l3.238,3.283
				l-2.832,1.87l-3.562-3.614l-4.235-2.693l-3.95-3.031l-3.825-3.181l-3.92-3.063L82.61,72.27l-3.25-2.12l-1.51,0.725l-4.242,2.054
				l-4.271,2.001l-4.034,2.494l-4.323,1.824l-3.559-2.926l4.454-2.081l4.214-2.155l4.209-2.175l4.232-2.136l1.438-0.742
				l-1.054-1.075l-4.112-2.827l-4.029-2.926l-3.713-3.316L59.331,53.6l-3.929-3.051l-4.151-3.166l3.506-1.079l4.317,2.281
				l3.733,3.291l1.614,1.419l2.368-0.905l4.455-2.05l4.438-2.082l4.474-2.01l4.464-2.027l4.388-2.19l4.447-2.074l4.471-2.03
				l1.741-0.762l-1.909-1.391l-4.289-2.705l-4.556-2.91L93.607,28.974 M115.727,68.318l1.318-0.639l4.475-2.373l4.539-2.255
				l4.564-2.209l2.312-1.099l-1.651-1.126l-4.282-2.72l-3.784-3.468l-4.54-2.336l-3.884-3.319l-4.465-2.445l-4.388-2.558
				l-3.555-2.623l-1.847,0.714l-4.498,1.979l-4.5,1.977l-3.96,2.671l2.481,1.925l4.01,3.083l4.068,2.991l3.978,3.108l3.967,3.121
				l4.008,3.07l3.99,3.093L115.727,68.318 M95.074,78.137l3.769-1.57l4.548-2.23l4.53-2.262l4.388-2.103l-1.635-1.234l-4.109-2.982
				l-3.696-3.499l-4.37-2.632l-3.918-3.214L90.658,53.2l-3.742-3.44l-3.122-1.938l-1.055,0.355l-4.345,2.301l-4.396,2.202
				l-4.5,1.992l-2.405,1.07l2.882,3.062l4.521,2.303l3.719,3.296l3.807,3.188l3.848,3.137l3.957,2.999l3.804,3.186L95.074,78.137
				 M93.681,27.924l-0.318,0.08L88.67,29.19l-2.243,0.566l1.95,1.246l4.556,2.91l4.266,2.689l0.474,0.345l-0.146,0.063l-4.483,2.036
				l-4.456,2.078l-4.411,2.202l-4.432,2.012l-4.47,2.008l-4.453,2.089l-4.418,2.032l-1.773,0.679l-1.161-1.021l-3.732-3.29
				l-0.089-0.079L59.545,47.7l-4.318-2.281l-0.365-0.193l-0.396,0.121l-3.506,1.08L49.099,47l1.546,1.179l4.151,3.165l3.896,3.026
				l3.705,3.269l3.709,3.312l0.037,0.034l0.041,0.029l4.029,2.925l4.054,2.787l0.038,0.039l-0.234,0.121l-4.225,2.132l-4.217,2.179
				l-4.21,2.153l-4.423,2.066l-1.437,0.671l1.226,1.008l3.559,2.925l0.467,0.384l0.557-0.234l4.323-1.824l0.071-0.03l0.066-0.04
				l3.984-2.465l4.219-1.977l4.254-2.059l1-0.48l2.67,1.743l3.312,3.61l0.057,0.062l0.064,0.051l3.92,3.063l3.802,3.161l3.981,3.056
				l0.035,0.027l0.037,0.023l4.14,2.632l3.482,3.534l0.576,0.586l0.687-0.453l2.832-1.87l1.017-0.671l-0.854-0.865l-3.237-3.284
				l-0.037-0.036l-0.039-0.032l-3.821-3.16l-1.521-1.232l2.121-0.968l4.608-2.087l4.546-2.323l4.397-2.379l4.731-1.636l0.128-0.045
				l0.111-0.077l4.135-2.846l4.527-2.033l4.613-2.074l2.768-1.126l2.188,1.36l0.04,0.025l0.042,0.021l4.477,2.229l3.851,3.273
				l0.572,0.486l0.626-0.413l2.785-1.839l1.1-0.726l-0.993-0.863l-3.483-3.031l-0.041-0.037l-0.045-0.03l-4.11-2.852l-4.146-2.814
				l-4.057-2.894l-4.097-2.885l-0.021-0.016l-0.023-0.014l-4.237-2.665l-4.103-2.803l-0.494-0.347l1.531-0.739l4.94-2.441
				l4.89-2.286l1.74-0.813l-1.666-0.958l-3.943-2.27l-0.474-0.271l-0.485,0.251l-4.89,2.531l-4.921,2.522l-1.768,0.851l-2.526-1.897
				l-0.11-0.083l-0.129-0.05l-4.613-1.788l-3.594-3.289l-0.037-0.034l-0.041-0.03l-4.021-2.995l-4.023-2.999l-0.103-0.076
				l-0.118-0.049l-4.557-1.851L93.681,27.924L93.681,27.924z M92.027,44.697l4.418-1.939l4.499-1.979l1.291-0.499l3.113,2.298
				l0.043,0.032l0.047,0.027l4.388,2.558l4.397,2.408l3.803,3.252l0.091,0.076l0.104,0.054l4.422,2.274l3.685,3.377l0.065,0.06
				l0.073,0.047l4.282,2.721l0.186,0.125l-0.738,0.352l-4.572,2.212l-4.549,2.26l-4.497,2.386l-0.688,0.333l-1.144-1.001
				l-0.022-0.02l-0.022-0.019l-3.99-3.093l-4.013-3.074l-3.957-3.113l-3.979-3.11l-4.092-3.009l-3.993-3.069l-1.387-1.076
				L92.027,44.697L92.027,44.697z M83.135,49.099l0.531-0.179l2.642,1.639l3.673,3.377l0.021,0.02l0.022,0.018l3.922,3.212
				l3.917,3.213l0.057,0.046l0.062,0.037l4.277,2.576l3.618,3.425l0.048,0.044l0.054,0.039l4.108,2.982l0.31,0.232l-2.906,1.394
				l-4.547,2.269l-4.513,2.213l-3.176,1.324l-0.979-0.828l-3.808-3.189l-3.996-3.029l-3.819-3.115l-3.796-3.18l-3.698-3.277
				l-0.096-0.085l-0.113-0.058l-4.366-2.225l-1.797-1.908l1.117-0.498l4.498-1.991l4.439-2.222L83.135,49.099L83.135,49.099z"/>
			<path opacity="0.37" fill="#B78F75" enable-background="new    " d="M93.534,30.023l4.134,1.679l3.921,2.924l3.981,2.965
				l3.695,3.382l0.139,0.126l0.176,0.068l4.66,1.807l2.902,2.179l0.486,0.365l0.548-0.264l2.359-1.137l4.929-2.525l4.404-2.281
				l1.804,1.038l-3.187,1.49l-4.924,2.433l-3.062,1.479l-1.53,0.738l1.389,0.979l1.906,1.344l4.166,2.844l4.217,2.651l4.064,2.862
				l4.096,2.921l4.127,2.802l4.065,2.821l2.45,2.131l-1.062,0.7l-3.371-2.866l-0.093-0.079l-0.108-0.055l-4.541-2.262l-2.58-1.604
				l-0.434-0.269l-0.473,0.192l-3.307,1.346l-4.61,2.074l-4.61,2.069l-0.084,0.037l-0.074,0.052L120.006,70l-4.682,1.618
				l-0.077,0.027l-0.071,0.038l-4.428,2.396l-4.46,2.282l-4.614,2.089l-3.59,1.638l-1.469,0.67l1.254,1.017l2.76,2.236l3.785,3.128
				l2.348,2.381l-1.131,0.746l-2.984-3.028l-0.08-0.081l-0.096-0.061l-4.199-2.67l-3.884-2.979l-3.849-3.2l-3.855-3.013
				l-3.342-3.642l-0.084-0.093l-0.105-0.069l-3.248-2.119l-0.473-0.308l-0.507,0.243l-1.513,0.727l-4.23,2.049l-4.271,2.001
				l-0.053,0.024l-0.049,0.031l-3.969,2.453l-3.695,1.559l-1.867-1.535l3.05-1.425l4.218-2.157l4.201-2.171l4.24-2.14l1.438-0.742
				l1.203-0.621l-0.948-0.968l-1.054-1.075l-0.067-0.068l-0.08-0.056l-4.091-2.812L67.4,59.424l-3.68-3.287l-3.729-3.289
				l-0.024-0.021l-0.024-0.02l-3.936-3.056l-2.605-1.987l1.252-0.386l3.847,2.033l3.646,3.213l1.614,1.419l0.453,0.398l0.564-0.216
				l2.368-0.904l0.03-0.012l0.03-0.015l4.462-2.053l4.424-2.075l4.478-2.012l4.496-2.043l4.364-2.179l4.438-2.07l4.458-2.024
				l1.741-0.762l1.596-0.699l-1.408-1.025l-1.909-1.391l-0.027-0.02l-0.028-0.018l-4.284-2.701l-2.605-1.665L93.534,30.023
				 M113.448,67.653l1.618,1.417l0.498,0.437l0.597-0.288l1.353-0.656l4.45-2.36l4.529-2.25l4.559-2.206l2.313-1.099l1.574-0.748
				l-1.439-0.981l-1.68-1.145l-4.209-2.672l-3.719-3.408l-0.1-0.091l-0.119-0.062l-4.438-2.282l-3.793-3.243l-0.08-0.067l-0.09-0.05
				l-4.441-2.432l-4.34-2.531l-3.512-2.591l-0.441-0.326l-0.514,0.198l-1.89,0.73l-4.497,1.979l-4.5,1.976l-0.082,0.037l-0.075,0.05
				l-3.959,2.671l-1.146,0.772l1.091,0.847l2.485,1.928l4.026,3.096l4.045,2.974l3.976,3.106l3.977,3.129l4.004,3.066
				L113.448,67.653 M73.928,61.94l3.644,3.229l3.817,3.197l3.876,3.158l3.918,2.969l3.8,3.182l1.445,1.225l0.467,0.395l0.564-0.235
				l3.769-1.57l0.028-0.012l0.027-0.014l4.553-2.233l4.518-2.254l4.389-2.104l1.48-0.709l-1.312-0.99l-1.649-1.246l-4.058-2.943
				l-3.649-3.454l-0.078-0.075l-0.094-0.056l-4.308-2.595l-3.862-3.168l-3.9-3.193l-3.721-3.421l-0.069-0.063l-0.08-0.05
				l-3.122-1.938l-0.4-0.249l-0.446,0.151l-1.055,0.355l-0.077,0.026l-0.071,0.038l-4.324,2.291l-4.354,2.182l-4.502,1.993
				l-2.405,1.07l-1.288,0.572l0.967,1.026l2.881,3.062l0.119,0.127l0.155,0.078L73.928,61.94 M93.607,28.974l-4.693,1.185
				l4.556,2.91l4.289,2.705l1.909,1.391l-1.741,0.762l-4.471,2.03l-4.447,2.074l-4.388,2.19l-4.464,2.027l-4.474,2.01l-4.438,2.082
				l-4.455,2.05l-2.368,0.905l-1.614-1.419l-3.733-3.291l-4.317-2.281l-3.506,1.079l4.151,3.166l3.929,3.051l3.729,3.289
				l3.713,3.316l4.029,2.926l4.112,2.827l1.054,1.075l-1.438,0.742l-4.232,2.136l-4.209,2.175l-4.214,2.155l-4.454,2.081
				l3.559,2.926l4.323-1.824l4.034-2.494l4.271-2.001l4.242-2.054l1.51-0.725l3.248,2.119l3.397,3.703l3.92,3.063l3.825,3.181
				l3.95,3.031l4.234,2.693l3.562,3.614l2.832-1.87l-3.238-3.283l-3.822-3.16L98.502,81l3.59-1.639l4.611-2.088l4.503-2.303
				l4.448-2.406l4.81-1.663l4.209-2.897l4.611-2.07l4.61-2.074l3.273-1.332l2.62,1.629l4.584,2.283l3.942,3.353l2.787-1.839
				l-3.484-3.031l-4.11-2.852l-4.137-2.809l-4.075-2.906l-4.092-2.882l-4.238-2.665l-4.135-2.823l-1.895-1.335l3.062-1.479
				l4.932-2.437l4.908-2.295l-3.943-2.269l-4.89,2.531l-4.925,2.524l-2.337,1.126l-3.015-2.263l-4.789-1.856l-3.731-3.416
				l-4.022-2.994l-4.022-3L93.607,28.974L93.607,28.974z M115.727,68.318l-1.642-1.438l-3.989-3.093l-4.009-3.07l-3.967-3.121
				l-3.978-3.108l-4.068-2.991l-4.01-3.083l-2.481-1.925l3.96-2.671l4.5-1.977l4.498-1.979l1.848-0.714l3.555,2.623l4.387,2.558
				l4.465,2.445l3.883,3.319l4.541,2.336l3.784,3.468l4.282,2.72l1.652,1.126l-2.313,1.099l-4.565,2.209l-4.539,2.255l-4.474,2.373
				L115.727,68.318L115.727,68.318z M95.074,78.137l-1.445-1.224l-3.804-3.186l-3.957-2.999l-3.848-3.137l-3.807-3.188l-3.719-3.296
				l-4.521-2.303l-2.882-3.062l2.405-1.07l4.5-1.992l4.396-2.202l4.345-2.301l1.055-0.356l3.122,1.938l3.742,3.44l3.922,3.211
				l3.918,3.214l4.37,2.632l3.696,3.499l4.109,2.982l1.635,1.234l-4.388,2.103l-4.53,2.262l-4.548,2.23L95.074,78.137L95.074,78.137
				z"/>
			<polygon fill="#E5E0E2" points="157.863,113.352 153.018,115.335 148.318,117.588 143.951,120.448 139.032,122.28 
				134.812,125.415 130.324,128.052 129.779,128.337 130.003,124.184 130.3,119.182 130.546,114.18 130.812,109.186 
				131.104,106.137 135.639,103.77 140.225,101.115 144.954,98.744 149.703,96.403 154.389,93.937 159.104,91.525 164.438,89.625 
				164.395,84.354 159.893,87.17 155.598,89.781 150.9,91.619 150.372,91.865 150.542,88.599 150.839,83.408 151.085,78.221 
				151.354,73.037 151.859,67.68 148.407,69.682 147.816,74.907 148.068,80.207 147.693,85.471 147.387,90.734 147.232,93.328 
				146.355,93.736 142.143,96.482 137.37,98.167 133.305,101.197 128.968,103.71 124.516,105.997 120.154,108.459 115.287,109.959 
				111.188,112.913 108.159,113.989 108.266,109.943 108.432,104.861 108.542,99.781 108.677,94.707 109.037,89.452 105.594,91.457 
				105.145,96.581 105.521,101.759 105.279,106.916 105.107,112.072 104.984,115.575 102.247,117.421 97.993,120.09 93.431,122.171 
				88.87,124.305 88.954,128.609 93.376,125.818 98.554,124.268 102.639,120.648 107.45,118.421 112.258,116.188 117.355,114.502 
				121.393,110.802 126.214,108.59 127.648,107.871 127.283,111.055 127.52,116.166 127.146,121.242 126.84,126.318 
				126.611,129.999 125.718,130.469 121.204,133.055 116.193,134.707 111.938,137.771 107.027,139.609 102.699,142.536 
				98.291,145.322 93.579,147.539 88.872,149.805 88.954,154.113 93.252,151.35 98.298,149.789 102.264,146.225 105.434,144.725 
				105.174,147.729 105.548,152.625 105.332,157.504 105.18,162.382 105.018,167.175 108.236,164.747 108.35,160.02 
				108.491,155.218 108.585,150.418 108.698,145.623 108.857,143.102 111.628,141.785 116.596,140.094 120.514,136.451 
				125.206,134.25 129.814,131.895 134.379,129.463 138.841,126.833 143.443,124.477 144.443,123.973 144.227,125.909 
				144.463,130.648 144.13,135.355 143.857,140.064 143.575,144.688 146.807,142.256 147.037,137.693 147.298,133.062 
				147.512,128.434 147.745,123.809 147.884,122.241 148.064,122.15 152.624,119.703 157.213,117.309 162.408,115.404 
				162.116,110.623 			"/>
			<path fill="#BD4136" d="M151.859,67.68l-0.506,5.357l-0.27,5.184l-0.246,5.188l-0.297,5.19l-0.17,3.267l0.527-0.246l4.697-1.838
				l4.295-2.611l4.502-2.815l0.043,5.271l-5.334,1.9l-4.715,2.411l-4.686,2.467l-4.749,2.341l-4.729,2.371l-4.586,2.654
				l-4.535,2.367l-0.289,3.049l-0.269,4.994l-0.246,5l-0.297,5.004l-0.224,4.152l0.545-0.285l4.488-2.637l4.22-3.135l4.919-1.832
				l4.367-2.86l4.697-2.253l4.848-1.982l4.253-2.729l0.292,4.781l-5.195,1.903l-4.589,2.396l-4.56,2.446l-0.182,0.092l-0.139,1.566
				l-0.234,4.625l-0.213,4.631l-0.261,4.631l-0.229,4.562l-3.231,2.431l0.282-4.621l0.271-4.709l0.333-4.707l-0.237-4.739
				l0.219-1.937l-1,0.504l-4.604,2.355l-4.462,2.63l-4.563,2.431l-4.608,2.356l-4.692,2.201l-3.918,3.644l-4.968,1.69l-2.771,1.315
				l-0.16,2.521l-0.112,4.795l-0.094,4.8l-0.144,4.802l-0.111,4.729l-3.221,2.428l0.164-4.793l0.151-4.878l0.216-4.879l-0.374-4.897
				l0.259-3.002l-3.17,1.5l-3.965,3.563l-5.046,1.562l-4.298,2.764l-0.082-4.309l4.707-2.267l4.712-2.217l4.407-2.786l4.328-2.928
				l4.91-1.838l4.256-3.063l5.012-1.653l4.514-2.585l0.895-0.47l0.229-3.682l0.307-5.075l0.373-5.076l-0.235-5.11l0.364-3.185
				l-1.435,0.719l-4.821,2.212l-4.037,3.7l-5.098,1.687l-4.808,2.232l-4.812,2.229l-4.084,3.617l-5.178,1.553l-4.422,2.791
				l-0.084-4.305l4.561-2.135l4.562-2.081l4.254-2.669l2.737-1.846l0.123-3.503l0.172-5.156l0.24-5.157l-0.377-5.178l0.45-5.124
				l3.443-2.005l-0.36,5.255l-0.135,5.074l-0.111,5.079l-0.164,5.082l-0.106,4.047l3.028-1.076l4.1-2.954l4.867-1.5l4.359-2.462
				l4.453-2.287l4.338-2.513l4.064-3.03l4.771-1.685l4.213-2.746l0.879-0.408l0.152-2.594l0.309-5.264l0.375-5.264l-0.252-5.3
				l0.59-5.226L151.859,67.68 M153.039,65.84l-1.682,0.975l-3.453,2.002l-0.436,0.253l-0.057,0.5l-0.59,5.226l-0.01,0.08l0.004,0.08
				l0.25,5.24l-0.371,5.204l-0.309,5.277l-0.117,1.997l-0.338,0.156l-0.063,0.03l-0.06,0.038l-4.113,2.681l-4.659,1.646l-0.144,0.05
				l-0.121,0.091l-4.021,2.995l-4.265,2.472l-4.432,2.274l-4.301,2.429l-4.766,1.469l-0.155,0.05l-0.134,0.096l-3.982,2.869
				l-1.521,0.541l0.068-2.59l0.164-5.076l0.111-5.089l0.135-5.07l0.357-5.213l0.13-1.882l-1.63,0.949l-3.443,2.005l-0.447,0.261
				l-0.045,0.516l-0.451,5.124l-0.006,0.08l0.006,0.08l0.371,5.118l-0.236,5.099l-0.174,5.169l-0.104,2.992l-2.314,1.561
				l-4.171,2.615l-4.502,2.055l-4.569,2.137l-0.589,0.275l0.013,0.65l0.084,4.305l0.035,1.773l1.499-0.947l4.306-2.718l5.047-1.513
				l0.211-0.063l0.165-0.146l3.974-3.521l4.681-2.166l4.757-2.209l5.042-1.668l0.204-0.067l0.158-0.146l3.921-3.594l4.493-2.062
				l-0.155,1.356l-0.011,0.078l0.005,0.08l0.231,5.053l-0.367,5.019l-0.308,5.088l-0.192,3.117l-0.396,0.208l-4.458,2.553
				l-4.915,1.622l-0.146,0.048l-0.125,0.09l-4.146,2.986l-4.785,1.791l-0.111,0.042l-0.098,0.066l-4.328,2.927l-4.33,2.734
				l-4.656,2.191l-4.715,2.27l-0.578,0.277l0.012,0.644l0.082,4.309l0.034,1.79l1.507-0.969l4.183-2.688l4.916-1.521l0.21-0.064
				l0.162-0.146l3.856-3.467l1.465-0.692l-0.109,1.269l-0.007,0.082l0.006,0.08l0.369,4.838l-0.213,4.818l-0.151,4.891l-0.164,4.791
				l-0.07,2.094l1.672-1.262l3.221-2.428l0.387-0.292l0.012-0.483l0.111-4.729l0.144-4.794l0.094-4.812l0.113-4.791l0.12-1.895
				l2.187-1.038l4.912-1.674l0.202-0.067l0.156-0.146l3.805-3.536l4.551-2.136l4.639-2.37l4.58-2.438l4.475-2.636l3.919-2.007
				l-0.011,0.094l-0.01,0.081l0.004,0.081l0.234,4.68l-0.329,4.647l-0.271,4.72l-0.283,4.619l-0.133,2.163l1.732-1.304l3.229-2.43
				l0.375-0.281l0.022-0.467l0.23-4.562l0.26-4.626l0.214-4.642l0.234-4.619l0.087-0.985l4.266-2.289l4.521-2.358l5.135-1.882
				l0.699-0.257l-0.046-0.743l-0.292-4.782l-0.104-1.701l-1.435,0.922l-4.176,2.68l-4.764,1.948l-0.027,0.012l-0.025,0.013
				l-4.698,2.254l-0.06,0.027l-0.057,0.037l-4.272,2.799l-4.813,1.793l-0.134,0.049l-0.114,0.086l-4.176,3.103l-3.384,1.987
				l0.125-2.332l0.297-4.995l0.247-5.013l0.268-4.989l0.235-2.468l4.054-2.115l4.599-2.659l4.702-2.357l4.744-2.338l4.709-2.479
				l4.646-2.376l5.271-1.879l0.67-0.238l-0.006-0.711l-0.043-5.271l-0.015-1.788l-1.517,0.948l-4.502,2.815l-4.209,2.56
				l-3.698,1.447l0.087-1.679l0.297-5.185l0.247-5.198l0.269-5.179l0.504-5.315L153.039,65.84L153.039,65.84z"/>
			<path opacity="0.37" fill="#B78F75" enable-background="new    " d="M150.684,69.519l-0.328,3.467l-0.27,5.188l-0.245,5.179
				l-0.297,5.195l-0.17,3.267l-0.087,1.66l1.507-0.702l0.5-0.232l4.668-1.826l0.081-0.032l0.074-0.045l4.305-2.618l2.986-1.867
				l0.021,2.771l-4.662,1.662l-0.062,0.021l-0.059,0.029l-4.726,2.417l-4.662,2.454l-4.755,2.344l-4.729,2.371l-0.026,0.014
				l-0.026,0.016l-4.548,2.633l-4.534,2.367l-0.481,0.252l-0.052,0.54l-0.293,3.09l-0.269,4.999l-0.245,4.99l-0.297,5.009
				l-0.223,4.153l-0.096,1.756l1.559-0.816l0.586-0.309l4.488-2.637l0.045-0.027l0.045-0.031l4.105-3.051l4.784-1.783l0.104-0.039
				l0.095-0.061l4.312-2.824l4.612-2.212l4.82-1.972l0.084-0.035l0.077-0.049l2.816-1.81l0.143,2.337l-4.495,1.647l-0.062,0.022
				l-0.058,0.029l-4.599,2.399l-4.537,2.436l-0.18,0.091l-0.498,0.25l-0.05,0.557l-0.142,1.604l-0.234,4.631l-0.212,4.62
				l-0.262,4.636l-0.207,4.096l-1.125,0.847l0.149-2.464l0.271-4.693l0.332-4.709l0.005-0.061l-0.003-0.061l-0.232-4.658
				l0.209-1.854l0.207-1.837l-1.649,0.831l-1.009,0.507l-4.602,2.356l-0.027,0.013l-0.024,0.017l-4.424,2.607l-4.55,2.423
				l-4.578,2.341l-4.692,2.202l-0.142,0.066l-0.114,0.106l-3.763,3.496l-4.766,1.623l-0.055,0.02l-0.053,0.024l-2.77,1.314
				l-0.531,0.252l-0.037,0.588l-0.162,2.562l-0.113,4.799l-0.094,4.789l-0.143,4.809l-0.101,4.245l-1.162,0.875l0.092-2.702
				l0.152-4.864l0.216-4.88l0.003-0.061l-0.005-0.061l-0.368-4.816l0.252-2.922l0.149-1.733l-1.573,0.743l-3.17,1.5l-0.132,0.062
				l-0.108,0.098l-3.803,3.418l-4.836,1.496l-0.13,0.041l-0.115,0.073l-2.791,1.796l-0.036-1.877l4.121-1.984l4.712-2.217
				l0.056-0.025l0.053-0.033l4.434-2.803l4.23-2.86l4.799-1.796l0.125-0.047l0.107-0.078l4.133-2.975l4.863-1.604l0.096-0.032
				l0.088-0.05l4.482-2.567l0.895-0.47l0.498-0.262l0.035-0.562l0.228-3.683l0.306-5.063l0.373-5.076l0.004-0.059l-0.002-0.062
				l-0.231-5.031l0.354-3.103l0.211-1.836l-1.652,0.826l-1.402,0.705l-4.82,2.211l-0.144,0.065l-0.116,0.106l-3.879,3.555
				l-4.895,1.619l-0.056,0.018l-0.052,0.024l-4.807,2.233l-4.812,2.228l-0.133,0.062l-0.109,0.098l-3.919,3.473l-4.967,1.488
				l-0.131,0.039l-0.115,0.072l-2.924,1.846l-0.036-1.883l3.963-1.854L98.403,121l0.061-0.027l0.056-0.035l4.281-2.687l2.738-1.846
				l0.423-0.285l0.019-0.509l0.121-3.506l0.174-5.143l0.24-5.156l0.002-0.061l-0.004-0.061l-0.371-5.098l0.397-4.528l1.366-0.795
				l-0.234,3.414l-0.135,5.08l-0.111,5.069l-0.164,5.088l-0.107,4.046l-0.037,1.456l1.373-0.486l3.029-1.076l0.133-0.049
				l0.117-0.082l3.965-2.857l4.711-1.453l0.103-0.031l0.095-0.053l4.325-2.443l4.453-2.287l0.022-0.012l0.021-0.013l4.336-2.513
				l0.051-0.029l0.047-0.035l3.942-2.938l4.63-1.635l0.113-0.04l0.1-0.063l4.153-2.707l0.813-0.379l0.541-0.252l0.035-0.596
				l0.152-2.594l0.309-5.251l0.375-5.264l0.004-0.06l-0.004-0.06l-0.248-5.22l0.524-4.646L150.684,69.519 M151.859,67.68
				l-3.452,2.002l-0.591,5.226l0.252,5.3l-0.375,5.264l-0.307,5.264l-0.154,2.594l-0.877,0.408l-4.213,2.746l-4.772,1.685
				l-4.065,3.03l-4.337,2.513l-4.452,2.287l-4.361,2.462l-4.866,1.5l-4.099,2.954l-3.029,1.076l0.105-4.046l0.166-5.082l0.11-5.08
				l0.135-5.074l0.36-5.255l-3.443,2.005l-0.449,5.124l0.377,5.178l-0.24,5.157l-0.174,5.156l-0.121,3.503l-2.738,1.846
				l-4.254,2.669l-4.562,2.081l-4.561,2.134l0.084,4.305l4.422-2.791l5.178-1.551l4.083-3.619l4.812-2.228l4.808-2.233l5.099-1.686
				l4.037-3.699l4.82-2.213l1.436-0.719l-0.365,3.184l0.234,5.111l-0.371,5.076l-0.308,5.076l-0.228,3.681l-0.896,0.47l-4.514,2.586
				l-5.011,1.652l-4.256,3.064l-4.91,1.838l-4.328,2.927l-4.408,2.786l-4.712,2.217l-4.707,2.266l0.082,4.31l4.298-2.765
				l5.046-1.561l3.966-3.564l3.17-1.5l-0.26,3.004l0.374,4.896l-0.216,4.879l-0.152,4.878l-0.162,4.794l3.221-2.429l0.111-4.729
				l0.143-4.801l0.094-4.8l0.113-4.795l0.16-2.522l2.77-1.314l4.967-1.691l3.92-3.643l4.691-2.201l4.607-2.355l4.564-2.432
				l4.462-2.63l4.603-2.356l1.002-0.504l-0.219,1.938l0.236,4.738l-0.333,4.709l-0.271,4.707l-0.283,4.623l3.23-2.432l0.23-4.562
				l0.261-4.632l0.214-4.629l0.233-4.627l0.139-1.565l0.181-0.091l4.561-2.447l4.589-2.395l5.195-1.904l-0.292-4.781l-4.252,2.729
				l-4.848,1.983l-4.699,2.253l-4.366,2.86l-4.919,1.832l-4.221,3.135l-4.487,2.638l-0.544,0.284l0.223-4.153l0.297-5.002
				l0.246-5.002l0.268-4.994l0.291-3.049l4.535-2.367l4.586-2.653l4.729-2.371l4.749-2.341l4.687-2.467l4.715-2.411l5.332-1.9
				l-0.043-5.271l-4.502,2.815l-4.293,2.611l-4.697,1.838l-0.528,0.246l0.17-3.267l0.297-5.19l0.246-5.188l0.269-5.184
				L151.859,67.68L151.859,67.68z"/>
			<path fill="#C7BDC1" d="M85.126,146.068l-4.168-3.316l-4.08-3.424l-1.312-1.225l-0.094-2.453l-0.226-5.174l-0.156-5.182
				l-0.8-5.15l0.054-4.317l2.951,3.225l3.712,3.401l3.716,3.411l4.073,2.474l0.424-4.165l-4.112-3.174l-3.938-3.179l-3.746-3.402
				l-3.73-3.427l-4.035-3.062l-4.113-2.974l-3.33-3.463l-0.057-1.482l-0.226-5.174l-0.155-5.181l-0.8-5.151l0.064-5.224
				l-3.248-2.703l0.023,4.87l0.219,5.083l0.245,5.086l0.19,5.093l0.094,2.199l-0.738-0.508L54.4,94.614l-3.93-3.191l-3.839-3.301
				l-3.958-3.161l-4.235-2.847l-3.656-3.702l0.886,4.494l3.303,3.588l3.803,3.289l0.659,0.561l0.011,2.119l0.219,5.083l0.245,5.086
				l0.19,5.093l0.11,2.576l-3.174-2.82l-4.251-3.444l0.868,4.504l3.467,3.817l3.94,3.526l3.974,3.496l3.907,3.567l3.925,3.551
				l1.943,1.616l0.073,2.835l0.323,5.41l0.344,5.414l0.308,5.461l3.654,3.481l-0.369-5.659l-0.366-5.521l-0.336-5.527l-0.153-2.93
				l2.616,2.312l3.926,3.553l3.842,3.646l4.61,2.773l3.572,3.955l3.861,3.642l4.308,3.76l-0.454-4.717L85.126,146.068z
				 M64.932,128.723l-4.255-3.229l-3.676-3.888l-4.327-3.146l-3.577-4l-1.219-1.028l-0.093-2.408l-0.226-5.172l-0.156-5.182
				l-0.8-5.151l0.03-2.456l3.736,3.306l3.78,3.312l3.933,3.139l3.824,3.268l3.784,3.316l3.7,3.414l1.724,0.959l0.016,3.312
				l0.219,5.083l0.245,5.086l0.19,5.094l0.099,2.304l-2.773-2.617L64.932,128.723z"/>
			<path fill="#8D411E" d="M57.795,76.579l3.248,2.703l-0.064,5.224l0.8,5.151l0.155,5.181l0.226,5.174l0.057,1.482l3.33,3.463
				l4.113,2.973l4.035,3.062l3.73,3.427l3.746,3.401l3.938,3.18l4.112,3.174l-0.424,4.165l-4.073-2.474l-3.716-3.411l-3.712-3.401
				l-2.951-3.225l-0.054,4.316l0.8,5.151l0.156,5.181l0.226,5.174l0.094,2.453l1.312,1.226l4.08,3.424l4.168,3.315l3.44,3.937
				l0.454,4.718l-4.308-3.761l-3.861-3.642l-3.572-3.955l-4.61-2.773l-3.842-3.646l-3.926-3.554l-2.616-2.312l0.153,2.93
				l0.336,5.527l0.366,5.521l0.369,5.659l-3.654-3.481l-0.308-5.461l-0.344-5.414l-0.323-5.41l-0.073-2.835l-1.943-1.616
				l-3.925-3.551l-3.907-3.567l-3.974-3.496l-3.94-3.526l-3.467-3.817l-0.868-4.504l4.251,3.444l3.174,2.82l-0.11-2.576l-0.19-5.093
				l-0.245-5.086l-0.219-5.083l-0.011-2.119l-0.659-0.561l-3.803-3.289l-3.303-3.588l-0.886-4.494l3.656,3.702l4.235,2.847
				l3.958,3.161l3.839,3.301l3.93,3.191l3.428,3.788l0.738,0.508l-0.094-2.199l-0.19-5.093l-0.245-5.086l-0.219-5.083L57.795,76.579
				 M71.884,134.652l-0.099-2.303l-0.19-5.094l-0.245-5.086l-0.219-5.083l-0.016-3.312l-1.724-0.959l-3.7-3.414l-3.784-3.316
				l-3.824-3.268l-3.933-3.139l-3.78-3.312l-3.736-3.306l-0.03,2.456l0.8,5.151l0.156,5.182l0.226,5.172l0.093,2.408l1.219,1.028
				l3.577,4l4.327,3.146l3.676,3.888l4.255,3.229l4.179,3.314L71.884,134.652 M56.784,74.438l0.011,2.146l0.023,4.869l0.22,5.122
				l0.245,5.091l0.181,4.844l-2.322-2.566l-0.051-0.057l-0.061-0.049l-3.93-3.191l-3.816-3.283l-3.986-3.184l-0.032-0.025
				l-0.034-0.022l-4.152-2.792l-3.586-3.631l-2.335-2.364l0.643,3.261l0.886,4.494l0.055,0.276l0.191,0.208l3.303,3.587l0.038,0.042
				l0.043,0.037l3.803,3.289l0.315,0.27l0.009,1.659l0.22,5.121l0.245,5.092l0.19,5.082l0.01,0.223l-1.41-1.252l-4.285-3.476
				l-2.131-1.727l0.52,2.692l0.867,4.504l0.054,0.275l0.188,0.207l3.467,3.818l0.035,0.039l0.038,0.033l3.94,3.526l3.98,3.502
				l3.893,3.556l3.929,3.554l1.626,1.354l0.062,2.382l0.325,5.445l0.344,5.418l0.307,5.452l0.023,0.396l0.285,0.272l3.654,3.483
				l1.855,1.768l-0.167-2.557l-0.369-5.661l-0.366-5.521l-0.336-5.522l-0.028-0.541l0.831,0.733l3.917,3.545l3.824,3.631
				l0.079,0.076l0.094,0.056l4.483,2.696l3.473,3.848l0.026,0.029l0.029,0.027l3.861,3.641l4.337,3.785l1.894,1.652l-0.241-2.502
				l-0.454-4.717l-0.03-0.32l-0.212-0.242l-3.44-3.936l-0.06-0.068l-0.07-0.056l-4.168-3.315l-4.04-3.392l-0.991-0.925l-0.078-2.043
				l-0.226-5.178l-0.155-5.168l-0.002-0.062l-0.01-0.062l-0.787-5.068l0.021-1.707l1.244,1.359l0.03,0.033l0.032,0.029l3.712,3.402
				l3.716,3.41l0.072,0.065l0.084,0.051l4.074,2.474l-0.094-1.228l0.686-0.346l1.346-3.345l-1.346-0.373l-0.428-1.196l-2.723-2.498
				l-3.898-3.146l-3.725-3.384l-3.726-3.423l-0.035-0.031l-0.037-0.029l-4.035-3.062l-4.06-2.934l-3.004-3.124l-0.042-1.102
				l-0.226-5.179l-0.154-5.168l-0.002-0.062l-0.01-0.062l-0.787-5.069l0.063-5.14l0.006-0.477l-0.366-0.305l-3.248-2.703
				L56.784,74.438L56.784,74.438z M47.604,95.448l0.002-0.188l2.102,1.858l3.783,3.314l3.968,3.169l3.799,3.246l3.774,3.308
				l3.682,3.396l0.087,0.082l0.104,0.058l1.213,0.676l0.013,2.726l0.22,5.121l0.245,5.091l0.185,4.934l-0.983-0.93l-0.031-0.028
				l-0.034-0.026l-4.179-3.314l-4.206-3.191l-3.619-3.828l-0.063-0.066l-0.075-0.056l-4.24-3.081l-3.507-3.92l-0.047-0.053
				l-0.054-0.046l-0.881-0.743l-0.076-1.967l-0.226-5.178l-0.155-5.168l-0.002-0.062l-0.01-0.062L47.604,95.448L47.604,95.448z"/>
			<path opacity="0.37" fill="#A06B56" enable-background="new    " d="M58.806,78.721l1.231,1.025l-0.059,4.747l-0.001,0.084
				l0.013,0.082l0.79,5.09l0.154,5.133l0.226,5.168l0.057,1.482l0.015,0.381l0.264,0.274l3.33,3.463l0.062,0.063l0.072,0.054
				l4.095,2.957l3.998,3.034l3.7,3.398l3.746,3.401l0.021,0.021l0.022,0.019l3.954,3.192l3.672,2.834l-0.207,2.036l-2.635-1.602
				l-3.644-3.344l-3.68-3.373l-2.921-3.191l-1.707-1.863l-0.031,2.525l-0.054,4.317l-0.001,0.084l0.013,0.082l0.79,5.09l0.155,5.132
				l0.226,5.17l0.094,2.453l0.016,0.41l0.301,0.281l1.312,1.225l0.02,0.02l0.021,0.017l4.1,3.441l4.098,3.26l3.169,3.625
				l0.183,1.896l-2.385-2.082l-3.832-3.611l-3.546-3.928l-0.1-0.109l-0.127-0.076l-4.517-2.718l-3.78-3.587l-3.935-3.561
				l-2.616-2.313l-1.785-1.579l0.124,2.381l0.154,2.938l0.336,5.533l0.366,5.521l0.202,3.104l-1.514-1.441l-0.285-5.072l-0.344-5.41
				l-0.321-5.377l-0.073-2.836l-0.012-0.453l-0.349-0.289l-1.912-1.59l-3.921-3.548l-3.922-3.579l-3.967-3.49l-3.902-3.492
				l-3.243-3.571l-0.296-1.536l2.086,1.689l3.174,2.819l1.764,1.567l-0.101-2.357l-0.11-2.57l-0.19-5.104l-0.245-5.081l-0.218-5.046
				l-0.011-2.118l-0.002-0.46l-0.351-0.297l-0.652-0.555l-3.76-3.253l-3.073-3.338l-0.188-0.957l1.321,1.337l0.07,0.072l0.083,0.056
				l4.201,2.824l3.897,3.112L49.84,92.2l3.869,3.143l3.377,3.73l0.078,0.087l0.096,0.066l0.738,0.509l1.652,1.137l-0.086-2.004
				l-0.094-2.194l-0.19-5.103l-0.245-5.081l-0.218-5.046L58.806,78.721 M46.405,100.764l0.155,5.131l0.226,5.168l0.093,2.408
				l0.017,0.441l0.338,0.285l1.165,0.982l3.53,3.946l0.07,0.08l0.087,0.062l4.252,3.09l3.612,3.82l0.057,0.062l0.065,0.05
				l4.238,3.215l4.145,3.288l2.742,2.588l1.791,1.688l-0.105-2.459l-0.099-2.299l-0.19-5.104l-0.245-5.081l-0.218-5.045
				l-0.016-3.312l-0.003-0.584l-0.511-0.285l-1.619-0.9l-3.632-3.352l-3.794-3.324l-3.85-3.287l-3.897-3.11l-3.777-3.309
				l-3.736-3.306l-1.635-1.447l-0.027,2.184l-0.03,2.457l-0.001,0.083l0.013,0.082L46.405,100.764 M57.795,76.579l0.023,4.87
				l0.219,5.083l0.245,5.086l0.19,5.093l0.094,2.199l-0.738-0.508L54.4,94.614l-3.93-3.191l-3.839-3.301l-3.958-3.161l-4.235-2.847
				l-3.656-3.702l0.886,4.494l3.303,3.588l3.803,3.289l0.659,0.561l0.011,2.119l0.219,5.083l0.245,5.086l0.19,5.093l0.11,2.576
				l-3.174-2.82l-4.251-3.444l0.868,4.504l3.467,3.817l3.94,3.526l3.974,3.496l3.907,3.567l3.925,3.551l1.943,1.616l0.073,2.835
				l0.323,5.41l0.344,5.414l0.308,5.461l3.654,3.481l-0.369-5.659l-0.366-5.521l-0.336-5.527l-0.153-2.93l2.616,2.312l3.926,3.553
				l3.842,3.646l4.61,2.773l3.572,3.955l3.861,3.642l4.308,3.76l-0.454-4.717l-3.44-3.937l-4.168-3.315l-4.08-3.424l-1.312-1.226
				l-0.094-2.453l-0.226-5.174l-0.156-5.181l-0.8-5.151l0.054-4.316l2.951,3.225l3.712,3.401l3.716,3.411l4.073,2.474l0.424-4.165
				l-4.112-3.174l-3.938-3.18l-3.746-3.401l-3.73-3.427l-4.035-3.062l-4.113-2.973l-3.33-3.463l-0.057-1.482l-0.226-5.174
				l-0.155-5.181l-0.8-5.151l0.064-5.224L57.795,76.579L57.795,76.579z M71.884,134.652l-2.773-2.616l-4.179-3.313l-4.255-3.229
				l-3.676-3.888l-4.327-3.146l-3.577-4l-1.219-1.028l-0.093-2.408l-0.226-5.172l-0.156-5.182l-0.8-5.151l0.03-2.456l3.736,3.306
				l3.78,3.312l3.933,3.139l3.824,3.268l3.784,3.316l3.7,3.414l1.724,0.959l0.016,3.312l0.219,5.083l0.245,5.086l0.19,5.094
				L71.884,134.652L71.884,134.652z"/>
			<polygon fill="#E5E0E2" points="105.917,89.33 106.729,89.58 107.718,89.063 108.816,89.58 108.229,90.393 105.594,91.457 
				104.477,90.519 			"/>
			<polygon fill="#E5E0E2" points="148.107,68.303 147.471,69.069 148.407,69.682 150.417,68.992 151.596,67.832 150.251,67.213 			
				"/>
			<path fill="#E5E0E2" d="M61.716,77.503c-0.033,1.011-0.673,1.779-0.673,1.779l-1.006,0.464l-1.229-0.666v-2.501l-0.373-0.769
				L61.716,77.503z"/>
			<polygon fill="#E5E0E2" points="90.353,124.715 90.272,123.721 88.729,124.218 88.442,127.08 88.797,128.338 90.353,126.544 
				90.353,125.018 			"/>
			<polygon fill="#E5E0E2" points="90.272,150.24 89.531,149.588 88.566,150.004 88.566,153.705 89.021,154.721 90.272,153.266 
				90.272,151.08 			"/>
		</g>
	</g>
</g>
<g id="outline_x5F_white">
	<g>
		<g>
			<path fill="#FFFFFF" d="M105.948,23.029l60.774,38.121l-6.426,73.975l-70.984,41.846l-50.506-50.152L32.55,55.439L105.948,23.029
				 M106.93,9.479l-5.828,2.573l-73.398,32.41l-7.857,3.47l0.75,8.556l6.258,71.379l0.383,4.374l3.115,3.093l50.506,50.15
				l6.571,6.525l7.978-4.701l70.983-41.846l5.326-3.14l0.535-6.16l6.426-73.974l0.635-7.307l-6.213-3.897l-60.775-38.121
				L106.93,9.479L106.93,9.479z"/>
		</g>
	</g>
</g>
<g id="outline_x5F_black">
	<g>
		<path d="M105.948,23.029l60.774,38.121l-6.426,73.975l-70.984,41.846l-50.506-50.152L32.55,55.439L105.948,23.029 M106.438,16.254
			l-2.914,1.287l-73.397,32.41l-3.928,1.735l0.375,4.278l6.258,71.379l0.192,2.188l1.558,1.547l50.506,50.151l3.285,3.263
			l3.989-2.353l70.985-41.845l2.662-1.569l0.268-3.08l6.427-73.975l0.317-3.653l-3.106-1.949l-60.774-38.121L106.438,16.254
			L106.438,16.254z"/>
	</g>
</g>
</svg>
