<?xml version="1.0" encoding="utf-8"?>
<!-- Generator: Adobe Illustrator 15.0.0, SVG Export Plug-In . SVG Version: 6.00 Build 0)  -->
<!DOCTYPE svg PUBLIC "-//W3C//DTD SVG 1.1//EN" "http://www.w3.org/Graphics/SVG/1.1/DTD/svg11.dtd">
<svg version="1.1" xmlns="http://www.w3.org/2000/svg" xmlns:xlink="http://www.w3.org/1999/xlink" x="0px" y="0px" width="200px"
	 height="200px" viewBox="0 0 200 200" enable-background="new 0 0 200 200" xml:space="preserve">
<g id="icon">
	<g id="Layer_2">
	</g>
	<g id="Layer_1_1_">
		<g>
			<g>
				
					<linearGradient id="SVGID_1_" gradientUnits="userSpaceOnUse" x1="150.499" y1="709.3809" x2="273.3898" y2="673.9279" gradientTransform="matrix(1 0 0 1 -100 -591)">
					<stop  offset="0" style="stop-color:#FAB412"/>
					<stop  offset="0.3742" style="stop-color:#FFDF02"/>
					<stop  offset="0.4908" style="stop-color:#FFE300"/>
					<stop  offset="0.6007" style="stop-color:#FFDF02"/>
					<stop  offset="0.7182" style="stop-color:#FDD207"/>
					<stop  offset="0.8393" style="stop-color:#FBBC0F"/>
					<stop  offset="0.962" style="stop-color:#F89F1A"/>
					<stop  offset="1" style="stop-color:#F7941E"/>
				</linearGradient>
				<path fill="url(#SVGID_1_)" d="M162.107,109.876c-6.023-8.54-3.074-21.176-6.734-28.46
					c-8.562-30.869-39.863-48.896-68.219-49.68c-5.867-0.162-5.727-1.745-11.236-1.417c-4.256,0.368-6.621,2.132-9.398,4.763
					C47.268,43.936,44.301,54.25,35.144,66.829c-5.419,7.446-9.612,12.961-10.266,25.92c-1.267,25.06,15.942,45.001,39.032,57.252
					c2.881,2.433,7.02,5.854,9.488,8.276c10.357,10.152,24.549,18.039,40.204,18.47c32.041,0.881,59.75-14.97,61.437-33.841
					C176.213,129.734,172.156,124.114,162.107,109.876z"/>
				<path fill="#A65E1E" d="M174.877,142.387c0.152-1.688,0.207-3.305,0.182-4.869c-0.029,0.467-0.049,0.918-0.092,1.385
					c-1.715,19.131-29.674,35.211-62.002,34.34c-15.781-0.424-30.084-8.399-40.533-18.688c-2.49-2.453-5.332-4.923-8.244-7.382
					c-22.572-12.024-39.351-31.69-39.268-56.254c-0.031,0.4-0.068,0.777-0.085,1.189c-1.297,25.392,15.986,46.146,39.257,58.541
					c2.912,2.471,5.758,4.943,8.246,7.391c10.441,10.277,24.748,18.258,40.535,18.68
					C145.199,177.589,173.156,161.509,174.877,142.387z"/>
				
					<radialGradient id="SVGID_2_" cx="203.5078" cy="629.4277" r="67.0003" fx="203.4135" fy="633.4065" gradientTransform="matrix(0.9996 0.0276 -0.0279 1.0096 -90.4205 -570.8474)" gradientUnits="userSpaceOnUse">
					<stop  offset="0.2147" style="stop-color:#FFE300"/>
					<stop  offset="1" style="stop-color:#F7941E"/>
				</radialGradient>
				<path fill="url(#SVGID_2_)" d="M95.209,146.645c34.777,0.957,61.264-10.136,63.783-47.664c-2.82-8.082-1.33-17.873-4.359-23.962
					c-8.547-31.185-39.85-49.377-68.203-50.164c-5.863-0.162-5.562-1.965-11.238-1.421c-4.25,0.41-6.621,2.156-9.396,4.813
					c-19.254,8.946-23.466,18.501-31.02,32.241c-0.187,0.333-0.37,0.655-0.56,0.974c-1.48,5.284-2.34,10.825-2.502,16.567
					C30.698,114.925,59.127,145.65,95.209,146.645z"/>
				<path fill="#A65E1E" d="M93.426,128.141l0.092-2.927c0.131-4.282-1.871-4.998-5.258-5.667l-4.49-0.679
					c-2.998-0.195-5.438-0.202-5.564,4.088l-0.109,3.635c-2.662,0.984-4.553,2.377-4.65,5.521l-0.211,6.852
					c-0.135,4.282,2.494,5.531,6.785,6.768l9.139,2.258c5.018,0.849,7.648-0.812,7.777-5.104l0.326-10.7
					C97.324,129.999,94.824,128.795,93.426,128.141z"/>
				
					<linearGradient id="SVGID_3_" gradientUnits="userSpaceOnUse" x1="184.8789" y1="695.3652" x2="182.4593" y2="766.9937" gradientTransform="matrix(1 0 0 1 -100 -591)">
					<stop  offset="0" style="stop-color:#FFE300"/>
					<stop  offset="1" style="stop-color:#F7941E"/>
				</linearGradient>
				<path fill="url(#SVGID_3_)" d="M91.994,128.141l0.092-2.927c0.131-4.282-1.873-4.998-5.26-5.667l-4.488-0.679
					c-2.998-0.195-5.438-0.202-5.564,4.088l-0.111,3.635c-2.66,0.984-4.551,2.377-4.648,5.521l-0.211,6.852
					c-0.135,4.282,2.494,5.531,6.785,6.768l9.139,2.258c5.018,0.849,7.648-0.812,7.777-5.104l0.326-10.7
					C95.893,129.999,93.393,128.795,91.994,128.141z"/>
				<path fill="#A65E1E" d="M45.139,103.65l0.371-0.76c1.059-2.132,0.664-4.026-0.174-5.428l-4.567-6.629
					c-0.851-0.935-1.59-1.589-2.858,1.655l-1.077,2.754c-1.09,0.053-2.067,0.623-2.999,3.002l-0.627,1.574
					c-1.274,3.25-0.83,4.891,0.109,6.969l5.523,9.052c1.269,1.979,2.549,1.399,3.824-1.851l2.475-6.24
					C45.787,106.109,45.375,104.523,45.139,103.65z"/>
				
					<linearGradient id="SVGID_4_" gradientUnits="userSpaceOnUse" x1="152.5234" y1="656.6357" x2="129.6062" y2="715.0033" gradientTransform="matrix(1 0 0 1 -100 -591)">
					<stop  offset="0" style="stop-color:#FFE300"/>
					<stop  offset="1" style="stop-color:#F7941E"/>
				</linearGradient>
				<path fill="url(#SVGID_4_)" d="M44.065,102.239l0.371-0.761c1.059-2.13,0.664-4.026-0.174-5.429l-4.567-6.629
					c-0.851-0.934-1.59-1.588-2.858,1.656l-1.077,2.754c-1.09,0.053-2.067,0.623-2.999,3.002l-0.627,1.573
					c-1.274,3.251-0.83,4.892,0.109,6.969l5.523,9.052c1.269,1.98,2.549,1.4,3.824-1.85l2.475-6.24
					C44.712,104.698,44.301,103.109,44.065,102.239z"/>
				
					<linearGradient id="SVGID_5_" gradientUnits="userSpaceOnUse" x1="-2547.3496" y1="1141.4971" x2="-2521.2109" y2="1272.1902" gradientTransform="matrix(-0.3187 0.2056 0.0326 0.9314 -689.9019 -491.3506)">
					<stop  offset="0" style="stop-color:#FFE300"/>
					<stop  offset="1" style="stop-color:#F7941E"/>
				</linearGradient>
				<path fill="url(#SVGID_5_)" d="M154.996,100.848l-0.357-5.677c-0.1-1.866-0.123-2.596,0.793-3.988c0,0,0.771-0.768,1.215-1.527
					c0.375-0.646,0.424-1.316,0.424-1.316c0.869-0.557,2.096-0.354,2.219,3.197l0.104,3.012c0.793,0.467,1.033,1.015,1.127,3.619
					l0.219,5.977c-0.016,2.533-0.404,4.236-1.24,6.357l-1.725,3.814c-0.832,1.838-3.375,2.822-3.498-0.729l-0.312-8.864
					C153.898,102.915,154.602,101.583,154.996,100.848z"/>
				<path fill="#A65E1E" d="M155.035,113.273l-0.312-8.866c-0.062-1.808,0.639-3.14,1.033-3.875l-0.357-5.675
					c-0.098-1.866-0.123-2.597,0.795-3.987c0,0,0.771-0.77,1.215-1.528c0.299-0.515,0.391-1.038,0.416-1.233
					c-0.26-0.011-0.52,0.08-0.754,0.23c0,0-0.049,0.67-0.424,1.316c-0.443,0.76-1.215,1.527-1.215,1.527
					c-0.916,1.393-0.893,2.122-0.793,3.988l0.357,5.676c-0.395,0.736-1.098,2.068-1.035,3.875l0.314,8.865
					c0.086,2.487,1.355,2.746,2.396,2.049C155.857,115.766,155.102,115.17,155.035,113.273z"/>
				
					<radialGradient id="SVGID_6_" cx="214.5918" cy="622.1914" r="89.0439" gradientTransform="matrix(0.9996 0.0276 -0.0279 1.0096 -90.4459 -570.8396)" gradientUnits="userSpaceOnUse">
					<stop  offset="0.2147" style="stop-color:#FFE300"/>
					<stop  offset="1" style="stop-color:#F7941E"/>
				</radialGradient>
				<path fill="url(#SVGID_6_)" d="M131.266,83.643c3.742-1.675,4.604-7.56,3.352-10.97c-6.986-19.011-21.172-34.723-35.578-42.72
					c-3.527-2.147-7.186-3.849-10.904-4.986c-2.734-0.683-5.166-1.251-5.727-1.353c-2.561-0.438-4.285-0.534-7.215-0.181
					c-3.824,0.466-6.146,1.832-8.604,4.067c21.379,2.26,41.91,23.402,50.972,50.633C119.105,82.778,124.641,86.507,131.266,83.643z"
					/>
				<path fill="#A65E1E" d="M113.82,70.96c-7.854-17.401-23.178-30.998-38.529-37.249c-3.762-1.709-10.135-3.437-16.465-1.831
					l7.762-4.38c21.379,2.26,41.91,23.402,50.971,50.633C119.105,82.778,115.23,74.083,113.82,70.96z"/>
			</g>
			
				<radialGradient id="SVGID_7_" cx="214.5918" cy="622.1914" r="89.0439" gradientTransform="matrix(0.9996 0.0276 -0.0279 1.0096 -90.4459 -570.8396)" gradientUnits="userSpaceOnUse">
				<stop  offset="0.2147" style="stop-color:#FFE300"/>
				<stop  offset="1" style="stop-color:#F7941E"/>
			</radialGradient>
			<path fill="url(#SVGID_7_)" d="M131.266,83.643c3.742-1.675,4.604-7.56,3.352-10.97c-6.986-19.011-21.172-34.723-35.578-42.72
				c-3.527-2.147-7.186-3.849-10.904-4.986c-2.734-0.683-5.166-1.251-5.727-1.353c-2.561-0.438-4.285-0.534-7.215-0.181
				c-3.824,0.466-6.146,1.832-8.604,4.067c21.379,2.26,41.91,23.402,50.972,50.633C119.105,82.778,124.641,86.507,131.266,83.643z"
				/>
		</g>
	</g>
</g>
<g id="outline_x5F_white">
	<g>
		<g>
			<path fill="#FFFFFF" d="M78.349,23.218c1.34,0,2.555,0.139,4.058,0.396c0.549,0.1,2.898,0.648,5.564,1.312
				c27.938,1.389,58.27,19.47,66.662,50.091c1.535,3.085,1.91,7.121,2.271,11.404c0.109,0.602,0.203,1.219,0.285,1.848
				c0.188-0.102,0.391-0.165,0.593-0.165c0.71,0,1.413,0.786,1.505,3.431l0.105,3.012c0.793,0.467,1.031,1.015,1.127,3.619
				l0.219,5.979c-0.008,1.086-0.088,2.016-0.236,2.895c0.453,0.982,0.971,1.938,1.605,2.838
				c10.049,14.238,14.104,19.859,12.93,33.03c-1.641,18.37-27.938,33.876-58.887,33.876c-0.849,0-1.696-0.012-2.549-0.035
				c-0.16-0.004-0.316-0.021-0.479-0.027c-0.084-0.002-0.168,0-0.252-0.002c-15.787-0.422-30.094-8.4-40.535-18.68
				c-2.488-2.445-5.334-4.92-8.246-7.389c-13.343-7.108-24.71-16.969-31.743-28.873c-4.077-6.771-6.692-14.232-7.362-22.297
				c-0.221-2.41-0.281-4.867-0.152-7.371c0.017-0.412,0.054-0.789,0.085-1.189c-0.001,0.332,0.013,0.658,0.018,0.988
				c0.644-10.033,3.481-15.521,7.368-21.124c0.426-3.184,1.062-6.296,1.91-9.322c0.189-0.319,0.373-0.642,0.56-0.974
				c7.554-13.74,11.766-23.295,31.02-32.241c0.271-0.259,0.537-0.503,0.803-0.745c-0.004,0-0.006,0-0.01-0.001
				c0.055-0.05,0.109-0.094,0.164-0.143c0.096-0.086,0.191-0.166,0.287-0.25c0.195-0.168,0.389-0.337,0.584-0.495
				c0.25-0.207,0.506-0.4,0.76-0.589c0.023-0.016,0.045-0.033,0.066-0.049c1.861-1.366,3.871-2.265,6.742-2.542
				C76.401,23.287,77.406,23.218,78.349,23.218 M78.349,11.218c-1.394,0-2.815,0.091-4.464,0.286
				c-4.687,0.478-8.788,2.047-12.534,4.796c-0.013,0.009-0.024,0.018-0.036,0.027c-0.028,0.021-0.057,0.041-0.085,0.062
				c-0.319,0.237-0.741,0.555-1.196,0.928c-0.253,0.206-0.506,0.421-0.758,0.64l-0.074,0.063c-0.026,0.022-0.052,0.045-0.078,0.068
				c-0.038,0.033-0.075,0.065-0.111,0.096C38.8,28.023,32.7,39.222,25.665,52.135c-0.45,0.826-0.909,1.668-1.38,2.526
				c-0.128,0.228-0.254,0.451-0.385,0.67c-0.538,0.906-0.955,1.879-1.239,2.894c-0.739,2.639-1.348,5.358-1.816,8.116
				c-3.888,6.07-6.659,12.534-7.649,22.017c-0.115,0.529-0.196,1.073-0.239,1.628l-0.02,0.238c-0.037,0.438-0.069,0.869-0.089,1.326
				c-0.149,2.958-0.087,5.977,0.185,8.976c0.803,9.572,3.835,18.791,9.011,27.398c7.676,12.973,19.84,24.252,35.235,32.684
				c2.212,1.89,4.621,3.998,6.648,5.99c14.014,13.795,31.285,21.652,48.625,22.116c0.056,0.001,0.104,0.002,0.15,0.003
				c0.209,0.014,0.405,0.021,0.604,0.026c0.918,0.024,1.887,0.039,2.842,0.039c37.479,0,68.596-19.683,70.84-44.81
				c1.527-17.119-4.381-25.853-14.252-39.847c0-0.144-0.004-0.281-0.008-0.423l-0.219-5.977c-0.057-1.528-0.15-4.155-1.242-6.872
				c-0.17-3.718-1.195-6.693-2.733-8.971c-0.384-3.521-1.034-7.383-2.604-11.02c-4.815-16.676-15.312-31.068-30.397-41.673
				c-13.407-9.423-29.612-15.147-45.762-16.183c-1.527-0.375-4.15-1.009-5.21-1.202c-0.046-0.008-0.092-0.017-0.137-0.024
				C82.094,11.387,80.277,11.218,78.349,11.218L78.349,11.218z"/>
		</g>
	</g>
</g>
<g id="outline_x5F_black">
	<g>
		<path d="M78.349,23.218c1.34,0,2.555,0.139,4.058,0.396c0.549,0.1,2.898,0.648,5.564,1.312
			c27.938,1.389,58.27,19.47,66.662,50.091c1.535,3.085,1.91,7.121,2.271,11.404c0.109,0.602,0.203,1.219,0.285,1.848
			c0.188-0.102,0.391-0.165,0.593-0.165c0.71,0,1.413,0.786,1.505,3.431l0.105,3.012c0.793,0.467,1.031,1.015,1.127,3.619
			l0.219,5.979c-0.008,1.086-0.088,2.016-0.236,2.895c0.453,0.982,0.971,1.938,1.605,2.838c10.049,14.238,14.104,19.859,12.93,33.03
			c-1.641,18.37-27.938,33.876-58.887,33.876c-0.846,0-1.696-0.012-2.549-0.035c-0.16-0.004-0.316-0.021-0.479-0.027
			c-0.084-0.002-0.168,0-0.252-0.002c-15.787-0.422-30.094-8.4-40.535-18.68c-2.488-2.445-5.334-4.92-8.246-7.389
			c-13.343-7.108-24.71-16.969-31.743-28.873c-4.077-6.771-6.692-14.232-7.362-22.297c-0.221-2.41-0.281-4.867-0.152-7.371
			c0.017-0.412,0.054-0.789,0.085-1.189c-0.001,0.332,0.013,0.658,0.018,0.988c0.644-10.033,3.481-15.521,7.368-21.124
			c0.426-3.184,1.062-6.296,1.91-9.322c0.189-0.319,0.373-0.642,0.56-0.974c7.554-13.74,11.766-23.295,31.02-32.241
			c0.271-0.259,0.537-0.503,0.803-0.745c-0.004,0-0.006,0-0.01-0.001c0.055-0.05,0.109-0.094,0.164-0.143
			c0.096-0.086,0.191-0.166,0.287-0.25c0.195-0.168,0.389-0.337,0.584-0.495c0.25-0.207,0.506-0.4,0.76-0.589
			c0.023-0.016,0.045-0.033,0.066-0.049c1.861-1.366,3.871-2.265,6.742-2.542C76.401,23.287,77.405,23.218,78.349,23.218
			 M78.349,17.218c-1.166,0-2.378,0.079-3.808,0.25c-3.646,0.364-6.7,1.521-9.601,3.639l-0.013,0.009l-0.121,0.09
			c-0.326,0.242-0.654,0.492-0.976,0.757c-0.212,0.172-0.423,0.353-0.635,0.535l-0.076,0.066l-0.02,0.017l-0.019,0.017l-0.069,0.06
			c-0.079,0.068-0.157,0.136-0.236,0.207c-0.085,0.073-0.157,0.135-0.229,0.201l-0.179,0.163
			c-19.077,9.09-24.542,19.125-31.435,31.778c-0.458,0.839-0.923,1.695-1.403,2.567c-0.157,0.281-0.312,0.554-0.473,0.823
			l-0.405,0.682l-0.214,0.765c-0.791,2.824-1.419,5.749-1.874,8.714c-3.968,5.964-6.752,12.193-7.537,21.898l-0.089-0.004
			l-0.022,0.269c-0.03,0.366-0.059,0.727-0.075,1.109c-0.137,2.69-0.08,5.439,0.169,8.172c0.724,8.663,3.478,17.021,8.186,24.848
			c7.213,12.201,18.788,22.836,33.499,30.786c2.419,2.058,5.133,4.416,7.438,6.683c12.931,12.729,28.764,19.977,44.58,20.397
			c0.081,0.002,0.151,0.003,0.22,0.003c0.174,0.012,0.348,0.022,0.522,0.026c0.882,0.024,1.795,0.037,2.694,0.037
			c15.937,0,31.365-3.856,43.442-10.858c12.839-7.441,20.443-17.558,21.421-28.482c1.36-15.254-3.688-22.409-13.75-36.666
			l-0.255-0.357c-0.112-0.161-0.228-0.333-0.337-0.518c0.039-0.553,0.062-1.123,0.064-1.713v-0.131l-0.004-0.133l-0.219-5.977
			c-0.059-1.608-0.136-3.746-1.199-5.671l-0.033-0.95c-0.125-3.626-1.223-5.83-2.553-7.168c-0.34-3.729-0.855-7.733-2.455-11.245
			c-4.385-15.511-14.123-28.921-28.193-38.811c-12.66-8.898-27.985-14.262-43.219-15.136c-2.176-0.539-4.593-1.112-5.38-1.255
			l-0.033-0.006l-0.035-0.006C81.437,17.362,79.922,17.218,78.349,17.218L78.349,17.218z"/>
	</g>
</g>
</svg>
