<?xml version="1.0" encoding="utf-8"?>
<!-- Generator: Adobe Illustrator 15.0.0, SVG Export Plug-In . SVG Version: 6.00 Build 0)  -->
<!DOCTYPE svg PUBLIC "-//W3C//DTD SVG 1.1//EN" "http://www.w3.org/Graphics/SVG/1.1/DTD/svg11.dtd">
<svg version="1.1" xmlns="http://www.w3.org/2000/svg" xmlns:xlink="http://www.w3.org/1999/xlink" x="0px" y="0px" width="200px"
	 height="200px" viewBox="0 0 200 200" enable-background="new 0 0 200 200" xml:space="preserve">
<g id="icon">
	<g id="Layer_2">
	</g>
	<g id="Layer_1_1_">
		<g>
			
				<linearGradient id="SVGID_1_" gradientUnits="userSpaceOnUse" x1="83.3369" y1="-1.7754" x2="89.7873" y2="-15.0557" gradientTransform="matrix(1 0 0 -1 -50 61)">
				<stop  offset="0.1273" style="stop-color:#626265"/>
				<stop  offset="1" style="stop-color:#212125"/>
			</linearGradient>
			<polygon fill="url(#SVGID_1_)" points="24.334,79.851 52.371,66.351 39.842,91.875 			"/>
			
				<linearGradient id="SVGID_2_" gradientUnits="userSpaceOnUse" x1="138.9102" y1="20.6758" x2="196.0548" y2="-83.4478" gradientTransform="matrix(1 0 0 -1 -50 61)">
				<stop  offset="0.0121" style="stop-color:#49494D"/>
				<stop  offset="0.1273" style="stop-color:#626265"/>
				<stop  offset="0.4" style="stop-color:#919396"/>
				<stop  offset="0.4485" style="stop-color:#A4A4A7"/>
				<stop  offset="0.5091" style="stop-color:#959698"/>
				<stop  offset="0.5818" style="stop-color:#6E6E6E"/>
				<stop  offset="0.903" style="stop-color:#626265"/>
				<stop  offset="0.936" style="stop-color:#5B5B5E"/>
				<stop  offset="0.9826" style="stop-color:#49494C"/>
				<stop  offset="1" style="stop-color:#404043"/>
			</linearGradient>
			<path fill="url(#SVGID_2_)" d="M172.867,120.434c-0.551,5.775-2.324,10.779-5.264,13.148
				c-2.347,1.887-75.847,42.635-75.847,42.635L43.023,56.954c0,0,65.834-30.901,69.473-32.353c4.387-1.75,8.793-1.26,11.873,0.377
				l39,25.987c7.758,4.777,13.207,17.175,12.172,27.689L172.867,120.434z"/>
			
				<radialGradient id="SVGID_3_" cx="32.894" cy="-110.1006" r="176.7149" gradientTransform="matrix(1 0 0 -1 -50 61)" gradientUnits="userSpaceOnUse">
				<stop  offset="0" style="stop-color:#D7D4D7"/>
				<stop  offset="1" style="stop-color:#9D9A9A;stop-opacity:0"/>
			</radialGradient>
			<path fill="url(#SVGID_3_)" d="M99.141,159.852c0.137,11.488-3.301,19.875-11.051,13.097l-41.5-40.597
				c-6.33-6.051-12.443-16.869-13.41-28.233c0,0-0.715-9.079-1.902-16.579c-1.25-6.625-6.943-7.688-6.943-7.688l1.533-0.738
				l13.441,2.058l3.252,9.579l-1.994-23.26c-0.965-11.365,6.771-15.153,14.379-9.324l30.396,26.257
				c7.006,5.969,12.775,20.24,12.887,31.873L99.141,159.852z"/>
			
				<linearGradient id="SVGID_4_" gradientUnits="userSpaceOnUse" x1="180.9863" y1="29.9546" x2="70.986" y2="-117.0457" gradientTransform="matrix(1 0 0 -1 -50 61)">
				<stop  offset="0.1273" style="stop-color:#626265"/>
				<stop  offset="1" style="stop-color:#212126"/>
			</linearGradient>
			<path fill="url(#SVGID_4_)" d="M96.42,160.977c0.137,11.488-3.299,19.875-11.049,13.097l-41.5-40.597
				c-6.332-6.051-12.445-16.869-13.41-28.233c0,0-0.715-9.079-1.902-16.579c-1.25-6.625-4.225-8.812-4.225-8.812l12.256,2.444
				l3.252,9.579l-1.994-23.26c-0.965-11.365,6.771-15.153,14.379-9.324l30.396,26.257c7.006,5.969,12.775,20.24,12.885,31.873
				L96.42,160.977z"/>
			<g>
				<path fill="#060002" d="M36.59,82.295c0.924,1.89,1.693,10.494,1.982,12.743c1.068,8.338,1.646,18.301,5.285,25.233
					c2.189,4.168,5.795,7.024,9.125,10.211c3.582,3.422,7.049,6.967,10.543,10.477c3.17,3.182,6.342,6.361,9.605,9.447
					c1.645,1.555,3.582,3.828,5.781,4.617c6.506,2.338,6.756-8.912,6.756-12.062c0-9.881,1.025-20.367-0.225-30.176
					c-1.395-10.955-10.852-18.652-18.514-25.541c-3.092-2.778-6.221-5.521-9.426-8.167c-1.873-1.548-3.576-2.667-5.959-1.637
					c-2.449,1.059-3.18,2.939-3.354,5.539c-0.398,5.962,0.744,12.374,1.035,18.364c0.355,7.264,1.781,13.787,6.164,19.771
					c3.277,4.479,8.332,11.848,14.229,12.848c8.59,1.455,6.014-16.967,5.352-20.898c-1.086-6.463-6.191-11.315-10.748-15.635
					c-2.17-2.056-3.816-2.642-6.23-0.823c-0.9,0.68-1.064,1.791-1.043,2.873c0.084,4.33,0.537,8.569,1.76,12.731
					c1.146,3.904,5.631,9.461,9.828,10.17c0.781,0.134,2.467-1.586,2.418-1.596c-3.855-0.65-7.787-5.654-9.287-9.054
					c-1.133-2.567-1.469-5.561-1.822-8.312c-0.268-2.084-0.375-4.284-0.246-6.375c0.395-1.035,0.188-1.031-0.619,0.01
					c0.695,0.322,1.33,0.733,1.904,1.234c3.465,2.694,7.127,6.764,9.393,10.481c2.92,4.791,2.518,10.571,2.652,15.94
					c0.041,1.58,0.797,7.942-2,7.472c-2.539-0.431-5.047-3.511-6.719-5.229c-4.861-4.994-9.025-10.468-11.092-17.181
					c-1.484-4.819-1.297-10.082-1.557-15.07c-0.168-3.232-0.375-6.464-0.598-9.693c-0.209-3.035-1.268-8.069,2.734-5.387
					c6.965,4.67,13.299,11.312,19.258,17.167c3.904,3.837,6.82,8.208,8.789,13.33c1.807,4.698,1.328,9.832,1.328,14.764
					c0,5.386,0,10.769,0,16.15c0,2.971,0.055,5.938-0.201,8.899c-0.143,1.666-0.23,4.389-2.311,3.101
					c-6.73-4.173-12.34-11.474-17.877-17.031c-6.145-6.17-13.734-11.746-17.482-19.756c-3.666-7.832-4.915-26.765-6.282-35.11
					C38.901,81.011,36.59,82.295,36.59,82.295z"/>
			</g>
			
				<linearGradient id="SVGID_5_" gradientUnits="userSpaceOnUse" x1="140.9307" y1="17.4775" x2="138.6809" y2="25.2269" gradientTransform="matrix(1 0 0 -1 -50 61)">
				<stop  offset="0.0242" style="stop-color:#FFFF00"/>
				<stop  offset="0.5515" style="stop-color:#FFC200"/>
				<stop  offset="1" style="stop-color:#8D6A00"/>
			</linearGradient>
			<path fill="url(#SVGID_5_)" d="M79.34,39.925c0,0,2.717-0.942,5.793,1.146c4.727,3.208,7.912,5.391,7.912,5.391l8.27-3.5
				c0,0-3.5-2.231-8.397-5.43c-3.113-2.031-5.834-1.025-5.834-1.025L79.34,39.925z"/>
			
				<linearGradient id="SVGID_6_" gradientUnits="userSpaceOnUse" x1="177.3848" y1="-19.1367" x2="183.3845" y2="-30.1361" gradientTransform="matrix(1 0 0 -1 -50 61)">
				<stop  offset="0.0242" style="stop-color:#FFFF00"/>
				<stop  offset="0.4303" style="stop-color:#FFC200"/>
			</linearGradient>
			<polygon fill="url(#SVGID_6_)" points="101.977,52.951 117.828,64.414 126.996,60.034 110.135,49.028 			"/>
			<g>
				
					<linearGradient id="SVGID_7_" gradientUnits="userSpaceOnUse" x1="170.3496" y1="-22.9805" x2="176.3493" y2="-33.9799" gradientTransform="matrix(1 0 0 -1 -50 61)">
					<stop  offset="0.0242" style="stop-color:#FFFF00"/>
					<stop  offset="0.4303" style="stop-color:#FFC200"/>
				</linearGradient>
				<polygon fill="url(#SVGID_7_)" points="134.771,110.857 135.104,130.771 143.041,126.693 143.336,106.381 				"/>
				
					<linearGradient id="SVGID_8_" gradientUnits="userSpaceOnUse" x1="173.4688" y1="-56.5654" x2="190.3394" y2="-89.1712" gradientTransform="matrix(1 0 0 -1 -50 61)">
					<stop  offset="0.0242" style="stop-color:#FFFF00"/>
					<stop  offset="0.5515" style="stop-color:#FFC200"/>
					<stop  offset="0.8121" style="stop-color:#8D6A00"/>
					<stop  offset="0.9879" style="stop-color:#624200"/>
				</linearGradient>
				<path fill="url(#SVGID_8_)" d="M135.59,141.199c0,0,0.023,2.346-0.018,4.9c-0.092,5.563-3.113,7.729-3.113,7.729l7.561-4.254
					c0,0,3.06-1.318,3.168-7.101c0.051-2.692,0.148-5.399,0.148-5.399L135.59,141.199z"/>
				
					<linearGradient id="SVGID_9_" gradientUnits="userSpaceOnUse" x1="179.8887" y1="-9.5312" x2="190.805" y2="-29.5446" gradientTransform="matrix(1 0 0 -1 -50.0356 61.001)">
					<stop  offset="0" style="stop-color:#FFE200"/>
					<stop  offset="0.2667" style="stop-color:#FFFF00"/>
					<stop  offset="0.7636" style="stop-color:#FFC200"/>
				</linearGradient>
				<path fill="url(#SVGID_9_)" d="M126.996,72.914c0,0,3.805,3.708,5.463,6.86c0.402,0.919,1.455,5.382,1.482,7.394
					c0.061,4.587,0.162,8.672,0.162,8.672l9.123-5.113c0,0-0.05-3.785,0-8.25c0.024-2.248-1.244-6.816-1.605-7.875
					c-1.75-3.414-5.25-6.375-5.25-6.375L126.996,72.914z"/>
			</g>
		</g>
	</g>
</g>
<g id="outline_x5F_white">
	<g>
		<g>
			<path fill="#FFFFFF" d="M118.148,23.499c2.334,0,4.486,0.558,6.221,1.479l39,25.987c7.758,4.777,13.207,17.175,12.172,27.689
				l-2.674,41.78c-0.551,5.774-2.324,10.778-5.264,13.147c-2.211,1.778-67.646,38.086-75.14,42.242
				c-0.629,0.438-1.335,0.672-2.121,0.672c-1.4,0-3.054-0.746-4.973-2.425l-41.5-40.596c-6.332-6.051-12.445-16.869-13.41-28.233
				c0,0-0.715-9.079-1.902-16.579c-1.25-6.625-4.225-8.812-4.225-8.812l13.902-6.694l-0.389-4.542
				c-0.549-6.465,1.721-10.469,5.178-11.654l-0.002-0.007c0,0,65.833-30.901,69.473-32.353
				C114.414,23.836,116.336,23.499,118.148,23.499 M118.148,11.499c-3.447,0-6.846,0.658-10.1,1.956
				c-3.656,1.459-53.912,25.026-69.802,32.484c-6.197,2.495-12.185,8.868-12.474,19.9l-6.646,3.2
				c-3.794,1.827-6.353,5.509-6.743,9.702c-0.341,3.673,1.025,7.267,3.65,9.778c0.155,0.302,0.458,0.999,0.702,2.218
				c1.079,6.895,1.754,15.363,1.761,15.449c0.002,0.023,0.004,0.049,0.006,0.07c1.33,15.668,9.652,28.773,17.019,35.84
				l41.457,40.555c0.159,0.156,0.323,0.308,0.49,0.453c4.091,3.578,8.422,5.394,12.874,5.394c2.947,0,5.8-0.817,8.298-2.375
				c73.416-40.72,75.41-42.326,76.485-43.19c6.851-5.519,9.047-14.658,9.687-21.355c0.013-0.125,0.021-0.25,0.029-0.373
				l2.662-41.595c1.383-14.96-6.161-31.521-17.634-38.729l-38.849-25.886c-0.33-0.22-0.672-0.424-1.022-0.61
				C126.452,12.496,122.354,11.499,118.148,11.499L118.148,11.499z"/>
		</g>
	</g>
</g>
<g id="outline_x5F_black">
	<g>
		<path d="M118.148,23.499c2.334,0,4.486,0.558,6.221,1.479l39,25.987c7.758,4.777,13.207,17.175,12.172,27.689l-2.674,41.78
			c-0.551,5.774-2.324,10.778-5.264,13.147c-2.211,1.778-67.646,38.086-75.14,42.242c-0.629,0.438-1.335,0.672-2.121,0.672
			c-1.4,0-3.054-0.746-4.973-2.425l-41.5-40.596c-6.332-6.051-12.445-16.869-13.41-28.233c0,0-0.715-9.079-1.902-16.579
			c-1.25-6.625-4.225-8.812-4.225-8.812l13.902-6.694l-0.389-4.542c-0.549-6.465,1.721-10.469,5.178-11.654l-0.002-0.007
			c0,0,65.833-30.901,69.473-32.353C114.414,23.836,116.336,23.499,118.148,23.499 M118.148,17.499
			c-2.683,0-5.332,0.515-7.877,1.529c-3.67,1.464-62.197,28.927-69.645,32.422c-4.884,1.901-9.625,7.47-8.758,17.672l0.036,0.424
			l-10.174,4.899c-2.02,0.972-3.647,2.784-3.713,5.024c-0.064,2.174,0.753,4.015,2.593,5.118c0.356,0.43,1.423,1.93,2.036,5.106
			c1.127,7.154,1.826,15.931,1.833,16.019c1.194,14.072,8.938,26.062,15.22,32.076l41.476,40.571
			c0.079,0.078,0.161,0.152,0.245,0.228c2.964,2.595,5.966,3.908,8.923,3.908c1.862,0,3.665-0.531,5.237-1.539
			c48.512-26.906,74.009-41.271,75.784-42.701c4.072-3.28,6.727-9.407,7.475-17.252c0.006-0.062,0.012-0.125,0.016-0.188
			l2.668-41.682c1.205-12.699-5.322-27.242-14.908-33.216l-38.918-25.933c-0.165-0.11-0.336-0.212-0.512-0.305
			C124.5,18.253,121.376,17.499,118.148,17.499L118.148,17.499z"/>
	</g>
</g>
</svg>
