<?xml version="1.0" encoding="utf-8"?>
<!-- Generator: Adobe Illustrator 15.0.0, SVG Export Plug-In . SVG Version: 6.00 Build 0)  -->
<!DOCTYPE svg PUBLIC "-//W3C//DTD SVG 1.1//EN" "http://www.w3.org/Graphics/SVG/1.1/DTD/svg11.dtd">
<svg version="1.1" xmlns="http://www.w3.org/2000/svg" xmlns:xlink="http://www.w3.org/1999/xlink" x="0px" y="0px" width="200px"
	 height="200px" viewBox="0 0 200 200" enable-background="new 0 0 200 200" xml:space="preserve">
<g id="icon">
	<g id="Layer_2">
	</g>
	<g id="Layer_1_1_">
		<g>
			
				<linearGradient id="SVGID_1_" gradientUnits="userSpaceOnUse" x1="164.3291" y1="-39.6519" x2="136.4229" y2="-75.5312" gradientTransform="matrix(1 0 0 -1 -50 61)">
				<stop  offset="0" style="stop-color:#FFFFFF"/>
				<stop  offset="1" style="stop-color:#B3B3B3"/>
			</linearGradient>
			<polygon fill="url(#SVGID_1_)" points="92.066,182.367 52.739,143.316 51.303,128.592 91.812,166.457 			"/>
			
				<radialGradient id="SVGID_2_" cx="179.4971" cy="-60.4736" r="1049.4097" gradientTransform="matrix(1 0 0 -1 -50 61)" gradientUnits="userSpaceOnUse">
				<stop  offset="0" style="stop-color:#B89758"/>
				<stop  offset="1" style="stop-color:#885D14"/>
			</radialGradient>
			<polygon fill="url(#SVGID_2_)" points="149.55,133.039 106.12,103.061 51.303,128.592 91.812,166.457 			"/>
			
				<linearGradient id="SVGID_3_" gradientUnits="userSpaceOnUse" x1="147.2754" y1="-108.583" x2="154.8174" y2="-15.8164" gradientTransform="matrix(1 0 0 -1 -50 61)">
				<stop  offset="0" style="stop-color:#FFFFFF"/>
				<stop  offset="1" style="stop-color:#B3B3B3"/>
			</linearGradient>
			<polygon fill="url(#SVGID_3_)" points="149.55,133.039 106.12,101.02 51.303,128.592 91.812,166.457 			"/>
			
				<linearGradient id="SVGID_4_" gradientUnits="userSpaceOnUse" x1="168.4219" y1="-93.3066" x2="201.7079" y2="-140.7031" gradientTransform="matrix(1 0 0 -1 -50 61)">
				<stop  offset="0" style="stop-color:#FFFFFF"/>
				<stop  offset="1" style="stop-color:#B3B3B3"/>
			</linearGradient>
			<polygon fill="url(#SVGID_4_)" points="91.812,166.457 92.066,182.367 147.337,149.784 149.55,133.039 			"/>
			
				<linearGradient id="SVGID_5_" gradientUnits="userSpaceOnUse" x1="-147.3599" y1="-13.9053" x2="-76.5334" y2="10.3248" gradientTransform="matrix(0.942 0.3377 0.3355 -0.9478 207.5588 141.4192)">
				<stop  offset="0" style="stop-color:#B3B3B3"/>
				<stop  offset="0.0505" style="stop-color:#C2C2C2"/>
				<stop  offset="0.1572" style="stop-color:#DDDDDD"/>
				<stop  offset="0.2663" style="stop-color:#F0F0F0"/>
				<stop  offset="0.3781" style="stop-color:#FBFBFB"/>
				<stop  offset="0.497" style="stop-color:#FFFFFF"/>
				<stop  offset="0.5637" style="stop-color:#F8F8F8"/>
				<stop  offset="0.6639" style="stop-color:#E3E3E3"/>
				<stop  offset="0.7844" style="stop-color:#C2C2C2"/>
				<stop  offset="0.8303" style="stop-color:#B3B3B3"/>
				<stop  offset="0.8696" style="stop-color:#ADADAD"/>
				<stop  offset="0.9196" style="stop-color:#9D9D9D"/>
				<stop  offset="0.9752" style="stop-color:#838383"/>
				<stop  offset="1" style="stop-color:#757575"/>
			</linearGradient>
			<path fill="url(#SVGID_5_)" d="M138.061,63.227l-2.963,64.406c-0.453,12.49-16.423,22.704-35.669,22.816
				c-19.247,0.111-35.182-9.914-35.59-22.401l-2.669-64.441C68.004,58.876,131.152,59.242,138.061,63.227z"/>
			
				<linearGradient id="SVGID_6_" gradientUnits="userSpaceOnUse" x1="115.8281" y1="-39.7773" x2="122.1328" y2="-39.7773" gradientTransform="matrix(1 0 0 -1 -50 61)">
				<stop  offset="0" style="stop-color:#B3B3B3"/>
				<stop  offset="0.046" style="stop-color:#C9C9C9"/>
				<stop  offset="0.1011" style="stop-color:#DBDCDC"/>
				<stop  offset="0.1579" style="stop-color:#E6E7E7"/>
				<stop  offset="0.2182" style="stop-color:#EAEBEB"/>
				<stop  offset="0.6364" style="stop-color:#B3B3B3"/>
				<stop  offset="0.7206" style="stop-color:#ADADAD"/>
				<stop  offset="0.8278" style="stop-color:#9D9D9D"/>
				<stop  offset="0.9469" style="stop-color:#838383"/>
				<stop  offset="1" style="stop-color:#757575"/>
			</linearGradient>
			<path fill="url(#SVGID_6_)" d="M72.131,132.426c0.049,1.331-0.815,2.113-1.93,1.748l0,0c-1.113-0.363-2.057-1.738-2.106-3.068
				L65.83,69.129c-0.049-1.331,0.816-2.114,1.931-1.748l0,0c1.113,0.364,2.056,1.738,2.104,3.069L72.131,132.426z"/>
			
				<linearGradient id="SVGID_7_" gradientUnits="userSpaceOnUse" x1="175.3027" y1="-39.7754" x2="181.6084" y2="-39.7754" gradientTransform="matrix(1 0 0 -1 -50 61)">
				<stop  offset="0" style="stop-color:#B3B3B3"/>
				<stop  offset="0.2592" style="stop-color:#B0B0B0"/>
				<stop  offset="0.4494" style="stop-color:#A6A6A6"/>
				<stop  offset="0.6175" style="stop-color:#969696"/>
				<stop  offset="0.772" style="stop-color:#808080"/>
				<stop  offset="0.8303" style="stop-color:#757575"/>
			</linearGradient>
			<path fill="url(#SVGID_7_)" d="M126.162,132.855c-0.049,1.336,0.816,2,1.93,1.483l0,0c1.115-0.517,2.059-2.021,2.105-3.356
				l2.267-62.284c0.048-1.338-0.815-2.002-1.93-1.486l0,0c-1.115,0.518-2.058,2.021-2.104,3.358L126.162,132.855z"/>
			
				<linearGradient id="SVGID_8_" gradientUnits="userSpaceOnUse" x1="128.8252" y1="-46.9263" x2="134.0527" y2="-46.9263" gradientTransform="matrix(1 0 0 -1 -50 61)">
				<stop  offset="0" style="stop-color:#B3B3B3"/>
				<stop  offset="0.0753" style="stop-color:#C9C9C9"/>
				<stop  offset="0.1657" style="stop-color:#DBDCDC"/>
				<stop  offset="0.2587" style="stop-color:#E6E7E7"/>
				<stop  offset="0.3576" style="stop-color:#EAEBEB"/>
				<stop  offset="0.8303" style="stop-color:#B3B3B3"/>
				<stop  offset="0.8696" style="stop-color:#ADADAD"/>
				<stop  offset="0.9196" style="stop-color:#9D9D9D"/>
				<stop  offset="0.9752" style="stop-color:#838383"/>
				<stop  offset="1" style="stop-color:#757575"/>
			</linearGradient>
			<path fill="url(#SVGID_8_)" d="M84.053,138.93c0.01,1.316-1.046,2.215-2.36,2.012l0,0c-1.314-0.205-2.388-1.438-2.398-2.754
				l-0.47-61.267c-0.01-1.315,1.047-2.214,2.361-2.01l0,0c1.314,0.204,2.387,1.437,2.397,2.752L84.053,138.93z"/>
			
				<linearGradient id="SVGID_9_" gradientUnits="userSpaceOnUse" x1="161.1973" y1="-46.9258" x2="166.7969" y2="-46.9258" gradientTransform="matrix(1 0 0 -1 -50 61)">
				<stop  offset="0" style="stop-color:#B3B3B3"/>
				<stop  offset="0.0753" style="stop-color:#C9C9C9"/>
				<stop  offset="0.1657" style="stop-color:#DBDCDC"/>
				<stop  offset="0.2587" style="stop-color:#E6E7E7"/>
				<stop  offset="0.3576" style="stop-color:#EAEBEB"/>
				<stop  offset="0.8303" style="stop-color:#B3B3B3"/>
				<stop  offset="0.8696" style="stop-color:#ADADAD"/>
				<stop  offset="0.9196" style="stop-color:#9D9D9D"/>
				<stop  offset="0.9752" style="stop-color:#838383"/>
				<stop  offset="1" style="stop-color:#757575"/>
			</linearGradient>
			<path fill="url(#SVGID_9_)" d="M115.956,138.229c-0.021,1.315-1.099,2.543-2.412,2.744l0,0c-1.313,0.199-2.362-0.705-2.347-2.022
				l0.842-61.325c0.02-1.317,1.098-2.545,2.411-2.746l0,0c1.313-0.199,2.364,0.708,2.347,2.023L115.956,138.229z"/>
			
				<linearGradient id="SVGID_10_" gradientUnits="userSpaceOnUse" x1="145.2422" y1="-49.4771" x2="150" y2="-49.4771" gradientTransform="matrix(1 0 0 -1 -50 61)">
				<stop  offset="0" style="stop-color:#B3B3B3"/>
				<stop  offset="0.0753" style="stop-color:#C9C9C9"/>
				<stop  offset="0.1657" style="stop-color:#DBDCDC"/>
				<stop  offset="0.2587" style="stop-color:#E6E7E7"/>
				<stop  offset="0.3576" style="stop-color:#EAEBEB"/>
				<stop  offset="0.8303" style="stop-color:#B3B3B3"/>
				<stop  offset="0.8696" style="stop-color:#ADADAD"/>
				<stop  offset="0.9196" style="stop-color:#9D9D9D"/>
				<stop  offset="0.9752" style="stop-color:#838383"/>
				<stop  offset="1" style="stop-color:#757575"/>
			</linearGradient>
			<path fill="url(#SVGID_10_)" d="M100,141.073c0,1.312-1.065,2.378-2.379,2.378l0,0c-1.314,0-2.379-1.064-2.379-2.378V79.882
				c0-1.314,1.065-2.379,2.379-2.379l0,0c1.313,0,2.379,1.065,2.379,2.379V141.073z"/>
			
				<linearGradient id="SVGID_11_" gradientUnits="userSpaceOnUse" x1="182.4902" y1="201.5703" x2="152.4067" y2="162.8914" gradientTransform="matrix(0.9979 0.0183 -0.0183 -0.8433 -64.1796 182.4601)">
				<stop  offset="0" style="stop-color:#FFFFFF"/>
				<stop  offset="1" style="stop-color:#B3B3B3"/>
			</linearGradient>
			<polygon fill="url(#SVGID_11_)" points="92.043,89.759 47.99,53.875 46.848,39.878 91.46,73.002 			"/>
			
				<linearGradient id="SVGID_12_" gradientUnits="userSpaceOnUse" x1="145.333" y1="-2.3853" x2="167.8069" y2="96.4995" gradientTransform="matrix(1 0 0 -1 -50 61)">
				<stop  offset="0" style="stop-color:#FFFFFF"/>
				<stop  offset="1" style="stop-color:#B3B3B3"/>
			</linearGradient>
			<polygon fill="url(#SVGID_12_)" points="153.152,45.82 105.562,16.073 46.848,39.878 91.46,73.002 			"/>
			
				<linearGradient id="SVGID_13_" gradientUnits="userSpaceOnUse" x1="186.3408" y1="144.9326" x2="226.6467" y2="87.5406" gradientTransform="matrix(0.9979 0.0183 -0.0183 -0.8433 -64.1796 182.4601)">
				<stop  offset="0" style="stop-color:#FFFFFF"/>
				<stop  offset="1" style="stop-color:#B3B3B3"/>
			</linearGradient>
			<polygon fill="url(#SVGID_13_)" points="91.46,73.002 92.043,89.759 151.294,61.219 153.152,45.82 			"/>
		</g>
	</g>
</g>
<g id="outline_x5F_white">
	<g>
		<g>
			<path fill="#FFFFFF" d="M105.562,16.073l47.59,29.748l-1.858,15.399l-13.44,6.474l-2.521,54.865l14.219,10.481l-2.213,16.745
				l-55.271,32.583L52.74,143.316l-1.436-14.725l12.3-6.188l-2.393-57.76L47.99,53.875l-1.143-13.998L105.562,16.073 M106.73,2.651
				l-5.676,2.301L42.339,28.757l-8.168,3.312l0.717,8.785l1.143,13.998l0.416,5.098l3.965,3.23l9.033,7.358l1.849,44.626
				l-5.383,2.708l-7.349,3.696l0.798,8.188l1.436,14.725l0.419,4.306l3.069,3.047l39.327,39.051l6.571,6.524l7.978-4.702
				l55.271-32.583l5.036-2.971l0.767-5.795l2.213-16.746l0.929-7.024l-5.704-4.206l-9.058-6.678l1.897-41.305l6.989-3.367
				l5.919-2.851l0.787-6.522l1.859-15.399l0.914-7.572l-6.467-4.042L111.923,5.897L106.73,2.651L106.73,2.651z"/>
		</g>
	</g>
</g>
<g id="outline_x5F_black">
	<path d="M156.337,40.733l-47.59-29.748l-2.601-1.623l-2.838,1.15L44.593,34.317l-4.084,1.656l0.359,4.393l1.143,13.998l0.208,2.549
		l1.982,1.615l11.127,9.063l2.121,51.193l-8.841,4.446l-3.674,1.85l0.399,4.094l1.436,14.725l0.21,2.152l1.534,1.523l39.327,39.051
		l3.286,3.264l3.989-2.353l55.271-32.583l2.518-1.484l0.384-2.898l2.213-16.744l0.464-3.514l-2.852-2.103l-11.639-8.58l2.211-48.085
		l10.215-4.92l2.959-1.425l0.395-3.261l1.859-15.399l0.457-3.786L156.337,40.733z M151.294,61.22l-10.13,4.879v-0.001l-3.309,1.594
		v0l-32.721,15.762l32.566-12.45l-1.538,33.471l-1.065,23.157c-0.199,5.491-3.399,10.541-8.557,14.487
		c7.001-4.444,11.5-10.54,11.909-17.263l11.101,8.183l-2.213,16.745l-55.271,32.583L52.74,143.316l-1.436-14.725l9.005-4.53
		l0.035,0.848c0.232,7.109,5.061,13.485,12.598,17.962c-5.492-3.944-8.917-9.125-9.104-14.823l-2.443-58.991l22.672,14.204
		L61.212,64.646v0l-0.001-0.001l0,0L47.99,53.875l-1.143-13.998l58.715-23.804l47.59,29.748L151.294,61.22z"/>
</g>
</svg>
