<?xml version="1.0" encoding="utf-8"?>
<!-- Generator: Adobe Illustrator 15.0.0, SVG Export Plug-In . SVG Version: 6.00 Build 0)  -->
<!DOCTYPE svg PUBLIC "-//W3C//DTD SVG 1.1//EN" "http://www.w3.org/Graphics/SVG/1.1/DTD/svg11.dtd">
<svg version="1.1" xmlns="http://www.w3.org/2000/svg" xmlns:xlink="http://www.w3.org/1999/xlink" x="0px" y="0px" width="200px"
	 height="200px" viewBox="0 0 200 200" enable-background="new 0 0 200 200" xml:space="preserve">
<g id="icon">
	<g id="Layer_2">
	</g>
	<g id="Layer_1_1_">
		<g>
			<g>
				<g>
					<g>
						
							<linearGradient id="SVGID_1_" gradientUnits="userSpaceOnUse" x1="153.7314" y1="626.6133" x2="130.4882" y2="644.5901" gradientTransform="matrix(0.9994 -0.0333 0.0333 0.9994 -54.8007 -590.6586)">
							<stop  offset="0" style="stop-color:#FF0000"/>
							<stop  offset="0.1674" style="stop-color:#F60000"/>
							<stop  offset="0.4388" style="stop-color:#DE0000"/>
							<stop  offset="0.7785" style="stop-color:#B70000"/>
							<stop  offset="1" style="stop-color:#9A0000"/>
						</linearGradient>
						<path fill="url(#SVGID_1_)" d="M91.198,56.933l-5.647,3.145c0,0-5.805,2.998-11.422-7.093
							c-4.33-7.778-3.832-20.308-3.832-20.308c-4.088-7.343-13.354-9.983-20.697-5.895c-7.345,4.088-9.982,13.354-5.896,20.698
							c0,0,11.35,6.964,15.771,14.906c5.089,9.142-0.517,12.495-0.517,12.495l-5.65,3.145c-5.706,3.178-7.757,10.379-4.581,16.086
							l10.953,19.676c3.177,5.706,10.379,7.758,16.085,4.58l37.892-21.092c5.706-3.178,7.758-10.38,4.581-16.087l-10.952-19.675
							C104.107,55.807,96.905,53.756,91.198,56.933z M54.892,36.291c1.89-1.052,4.276-0.373,5.329,1.518
							c1.052,1.89,0.373,4.277-1.518,5.329c-1.891,1.052-4.276,0.373-5.328-1.518C52.322,39.729,53.002,37.344,54.892,36.291z"/>
						
							<linearGradient id="SVGID_2_" gradientUnits="userSpaceOnUse" x1="113.0908" y1="650.9229" x2="128.7624" y2="749.3058" gradientTransform="matrix(0.9994 -0.0333 0.0333 0.9994 -54.8007 -590.6586)">
							<stop  offset="0" style="stop-color:#FF0000"/>
							<stop  offset="0.1674" style="stop-color:#F60000"/>
							<stop  offset="0.4388" style="stop-color:#DE0000"/>
							<stop  offset="0.7785" style="stop-color:#B70000"/>
							<stop  offset="1" style="stop-color:#9A0000"/>
						</linearGradient>
						<path fill="url(#SVGID_2_)" d="M93.475,55.666l-5.647,3.145c0,0-5.806,2.998-11.423-7.093
							c-4.33-7.777-3.831-20.308-3.831-20.308c-4.089-7.343-13.355-9.983-20.698-5.895c-7.345,4.088-9.982,13.355-5.894,20.698
							c0,0,11.348,6.964,15.771,14.906c5.087,9.142-0.519,12.494-0.519,12.494l-5.648,3.146c-5.708,3.177-7.758,10.379-4.582,16.085
							l10.953,19.676c3.176,5.707,10.378,7.758,16.085,4.582l37.892-21.094c5.707-3.177,7.758-10.379,4.582-16.086l-10.953-19.675
							C106.384,54.54,99.181,52.489,93.475,55.666z M57.168,35.023c1.891-1.052,4.276-0.372,5.329,1.519
							c1.052,1.89,0.372,4.276-1.518,5.328c-1.891,1.053-4.277,0.373-5.329-1.518C54.598,38.462,55.277,36.077,57.168,35.023z"/>
						<g>
							
								<linearGradient id="SVGID_3_" gradientUnits="userSpaceOnUse" x1="128.8965" y1="649.0186" x2="138.5349" y2="709.5262" gradientTransform="matrix(0.9994 -0.0333 0.0333 0.9994 -54.8007 -590.6586)">
								<stop  offset="0" style="stop-color:#FF6A42"/>
								<stop  offset="0.1615" style="stop-color:#F7613C"/>
								<stop  offset="0.4234" style="stop-color:#E0492E"/>
								<stop  offset="0.7513" style="stop-color:#BB2215"/>
								<stop  offset="1" style="stop-color:#9A0000"/>
							</linearGradient>
							<path fill="url(#SVGID_3_)" d="M76.471,53.72c5.617,10.091,11.423,7.093,11.423,7.093l5.648-3.145
								c5.706-3.177,12.909-1.126,16.086,4.581l10.953,19.674c0.767,1.376,1.222,2.839,1.401,4.312
								c0.103-2.131-0.354-4.314-1.469-6.314l-10.953-19.675c-3.179-5.707-10.38-7.758-16.086-4.581l-5.647,3.145
								c0,0-5.806,2.998-11.423-7.093c-2.767-4.969-3.561-11.874-3.775-16.215C72.692,39.396,73.227,47.892,76.471,53.72z"/>
							
								<linearGradient id="SVGID_4_" gradientUnits="userSpaceOnUse" x1="88.856" y1="670.6104" x2="91.5785" y2="687.7014" gradientTransform="matrix(0.9994 -0.0333 0.0333 0.9994 -54.8007 -590.6586)">
								<stop  offset="0" style="stop-color:#FF6A42"/>
								<stop  offset="0.1615" style="stop-color:#F7613C"/>
								<stop  offset="0.4234" style="stop-color:#E0492E"/>
								<stop  offset="0.7513" style="stop-color:#BB2215"/>
								<stop  offset="1" style="stop-color:#9A0000"/>
							</linearGradient>
							<path fill="url(#SVGID_4_)" d="M55.651,78.762l5.648-3.146c0,0,3.23-1.938,2.556-6.875c-0.279,3.466-2.622,4.872-2.622,4.872
								l-5.648,3.146c-4.331,2.411-6.549,7.138-5.983,11.772C49.794,84.585,51.944,80.824,55.651,78.762z"/>
							
								<linearGradient id="SVGID_5_" gradientUnits="userSpaceOnUse" x1="91.1367" y1="623.1445" x2="93.4092" y2="637.4105" gradientTransform="matrix(0.9994 -0.0333 0.0333 0.9994 -54.8007 -590.6586)">
								<stop  offset="0" style="stop-color:#FF6A42"/>
								<stop  offset="0.1615" style="stop-color:#F7613C"/>
								<stop  offset="0.4234" style="stop-color:#E0492E"/>
								<stop  offset="0.7513" style="stop-color:#BB2215"/>
								<stop  offset="1" style="stop-color:#9A0000"/>
							</linearGradient>
							<path fill="url(#SVGID_5_)" d="M51.941,27.518c7.3-4.063,16.493-1.475,20.619,5.768c-0.015-1.17,0.013-1.875,0.013-1.875
								c-4.089-7.343-13.355-9.983-20.698-5.895c-5.507,3.066-8.367,9.042-7.731,14.937C44.273,35.244,47.059,30.235,51.941,27.518z
								"/>
							
								<linearGradient id="SVGID_6_" gradientUnits="userSpaceOnUse" x1="92.9453" y1="635.0713" x2="93.8373" y2="640.6715" gradientTransform="matrix(0.9994 -0.0333 0.0333 0.9994 -54.8007 -590.6586)">
								<stop  offset="0" style="stop-color:#FF6A42"/>
								<stop  offset="0.1615" style="stop-color:#F7613C"/>
								<stop  offset="0.4234" style="stop-color:#E0492E"/>
								<stop  offset="0.7513" style="stop-color:#BB2215"/>
								<stop  offset="1" style="stop-color:#9A0000"/>
							</linearGradient>
							<path fill="url(#SVGID_6_)" d="M55.718,42.355c1.052,1.89,3.438,2.57,5.329,1.518c1.646-0.917,2.372-2.845,1.836-4.577
								c-0.234,1.053-0.887,2.008-1.903,2.574c-1.891,1.053-4.277,0.373-5.329-1.518c-0.135-0.244-0.24-0.496-0.32-0.752
								C55.129,40.505,55.231,41.481,55.718,42.355z"/>
						</g>
						<path fill="#C07026" d="M128.302,93.809c0,0,4.847-0.416,9.812,8.251c9.244,16.127,18.621,25.979,18.621,25.979
							c-25.652,19.852-74.708,44.208-74.7,44.208c0,0,2.223-3.813-5.931-19.104c-7.167-13.443-9.467-21.852-8.421-24.914
							C68.734,125.167,128.302,93.809,128.302,93.809z"/>
						
							<linearGradient id="SVGID_7_" gradientUnits="userSpaceOnUse" x1="129.6709" y1="715.7188" x2="179.2961" y2="790.592" gradientTransform="matrix(0.9994 -0.0333 0.0333 0.9994 -54.8007 -590.6586)">
							<stop  offset="0" style="stop-color:#FAC28D"/>
							<stop  offset="1" style="stop-color:#7C5320"/>
						</linearGradient>
						<path fill="url(#SVGID_7_)" d="M127.275,97.417c0,0,3.972-0.545,9.918,9.621c8.69,14.858,15.125,20.396,15.125,20.396
							c-19.187,15.92-68.067,41.004-68.062,41c0,0,3.79,0.127-5.959-18.647c-5.866-11.294-7.135-18.128-6.262-20.692
							C72.913,126.534,127.275,97.417,127.275,97.417z"/>
						<polygon fill="#728BA4" points="114.371,68.973 129.087,93.94 65.607,129.244 52.354,103.885 						"/>
						
							<linearGradient id="SVGID_8_" gradientUnits="userSpaceOnUse" x1="73.6938" y1="703.2158" x2="190.3687" y2="681.8809" gradientTransform="matrix(0.9994 -0.0333 0.0333 0.9994 -54.8007 -590.6586)">
							<stop  offset="0" style="stop-color:#748B9F"/>
							<stop  offset="0.4785" style="stop-color:#FCFFFF"/>
							<stop  offset="0.638" style="stop-color:#88A2BD"/>
							<stop  offset="1" style="stop-color:#1E3849"/>
						</linearGradient>
						<polygon fill="url(#SVGID_8_)" points="112.357,73.494 123.527,93.033 67.411,125.156 57.694,105.225 						"/>
						<polygon fill="#DEF0FF" points="59.27,104.646 67.279,118.779 118.273,89.656 120.841,92.018 67.13,123.174 58.064,105.645 
													"/>
						<path fill="#D48158" d="M112.665,105.251c0,0,3.39,1.647,9.899,10.843c6.729,9.504,7.412,9.891,7.412,9.891
							s-1.024,2.389-9.289-7.623c-8.271-10.019-11.194-9.006-11.194-9.006l-17.128,9.787c0,0,3.08,1.295,7.209,8.889
							c4.132,7.588,5.849,12.009,5.849,12.009s-4.638-9.505-9.287-13.847c-4.649-4.342-13.608-5.311-13.608-5.311L112.665,105.251z"
							/>
						<path opacity="0.27" fill="#D48158" enable-background="new    " d="M98.542,112.871c0,0,2.851,1.385,8.325,9.115
							c5.658,7.992,6.232,8.315,6.232,8.315s-0.863,2.009-7.812-6.407c-6.956-8.427-9.414-7.572-9.414-7.572l-14.401,8.229
							c0,0,2.59,1.09,6.061,7.473c3.475,6.383,4.917,10.1,4.917,10.1s-3.898-7.992-7.808-11.645
							c-3.91-3.649-11.442-4.465-11.442-4.465L98.542,112.871z"/>
						<path opacity="0.27" fill="#D48158" enable-background="new    " d="M125.99,97.432c0,0,2.851,1.386,8.326,9.116
							c5.658,7.991,6.23,8.316,6.23,8.316s-0.859,2.008-7.812-6.409c-6.955-8.424-9.411-7.572-9.411-7.572l-14.402,8.229
							c0,0,2.591,1.092,6.062,7.475c3.476,6.381,4.916,10.1,4.916,10.1s-3.897-7.992-7.809-11.644
							c-3.908-3.649-11.441-4.465-11.441-4.465L125.99,97.432z"/>
						<path fill="#FFD4A2" d="M75.071,130.82c0,0-3.508,1.947,4.139,15.166c7.655,13.218,1.077,6.57,3.335,12.562
							c2.255,5.987,2.905,7.698,2.905,7.698s23.176-11.686,40.065-20.805c16.879-9.131,22.572-16.799,22.572-16.799
							s-38.604,21.862-45.416,24.998c-6.806,3.146-11.743,0.656-15.003-4.455C84.41,144.074,78.412,131.288,75.071,130.82z"/>
					</g>
				</g>
				<path fill="#C07026" d="M89.513,173.477c8.458-4.865,18.604-5.318,31.178-18.84c11.373-11.268,25.149-17.076,35.354-24.695
					c0.734-0.549,0.992-1.775-0.658-3.164c0,0-4.14-4.357-9.619-11.991c0.069,2.231,1.31,5.497,1.713,7.601
					c0.789,4.11-5.715,4.981-9.478,3.141c-3.765-1.844-5.024-0.479-5.594,2.078c-0.567,2.557-1.664,2.31-10.25,1.506
					c-8.585-0.803-6.918,6.109-14.765,12.472c-7.846,6.358-12.941,3.698-16.502,1.64c-3.561-2.06-5.778-3.729-6.481-0.438
					c-0.703,3.29-2.597,2.265-5.671,1.495c-3.075-0.771-6.592-8.273-9.482-8.611c-1.147-0.135-1.353,0.647-1.188,1.642
					c0.392,1.088,0.841,2.248,1.356,3.486l0.002,0.001h-0.001c1.335,3.201,3.094,6.9,5.328,11.089
					c8.151,15.289,5.93,19.104,5.93,19.104C80.683,170.984,82.054,178.355,89.513,173.477z"/>
				
					<radialGradient id="SVGID_9_" cx="145.5693" cy="727.417" r="48.4141" gradientTransform="matrix(0.9994 -0.0333 0.0333 0.9994 -54.8007 -590.6586)" gradientUnits="userSpaceOnUse">
					<stop  offset="0" style="stop-color:#FFE300"/>
					<stop  offset="0.4168" style="stop-color:#FFE101"/>
					<stop  offset="0.5985" style="stop-color:#FEDA04"/>
					<stop  offset="0.7345" style="stop-color:#FDCD08"/>
					<stop  offset="0.8479" style="stop-color:#FBBB0F"/>
					<stop  offset="0.9459" style="stop-color:#F9A418"/>
					<stop  offset="1" style="stop-color:#F7941E"/>
				</radialGradient>
				<path fill="url(#SVGID_9_)" d="M90.862,174.738c8.456-4.867,18.604-5.32,31.177-18.84c11.372-11.27,25.15-17.076,35.354-24.696
					c0.733-0.55,0.991-1.776-0.658-3.162c0,0-4.141-4.36-9.618-11.995c0.069,2.234,1.308,5.498,1.712,7.602
					c0.791,4.111-5.713,4.981-9.479,3.141c-3.764-1.844-5.023-0.479-5.593,2.079c-0.569,2.556-1.666,2.309-10.251,1.506
					c-8.585-0.804-6.917,6.108-14.763,12.47c-7.845,6.36-12.943,3.698-16.503,1.641c-3.562-2.061-5.78-3.729-6.482-0.438
					c-0.702,3.29-2.597,2.267-5.671,1.495c-3.074-0.77-6.592-8.271-9.482-8.611c-1.148-0.135-1.352,0.649-1.188,1.641
					c0.392,1.09,0.841,2.25,1.357,3.488l0.001,0.002h-0.001c1.335,3.199,3.095,6.898,5.327,11.088
					c8.153,15.289,5.931,19.104,5.931,19.104C82.032,172.248,83.401,179.618,90.862,174.738z"/>
			</g>
			
				<radialGradient id="SVGID_10_" cx="129.8926" cy="745.9736" r="79.7923" gradientTransform="matrix(0.9994 -0.0333 0.0333 0.9994 -54.8007 -590.6586)" gradientUnits="userSpaceOnUse">
				<stop  offset="0" style="stop-color:#FFE300"/>
				<stop  offset="0.4168" style="stop-color:#FFE101"/>
				<stop  offset="0.5985" style="stop-color:#FEDA04"/>
				<stop  offset="0.7345" style="stop-color:#FDCD08"/>
				<stop  offset="0.8479" style="stop-color:#FBBB0F"/>
				<stop  offset="0.9459" style="stop-color:#F9A418"/>
				<stop  offset="1" style="stop-color:#F7941E"/>
			</radialGradient>
			<path fill="url(#SVGID_10_)" d="M72.08,139.925c0,0,5.213,6.702,7.673,8.626c2.46,1.926,6.744-1.314,6.744-1.314
				s5.177-2.396,4.564-0.15s-3.461,8.223-1.373,12.07c2.089,3.851,10.22,6.094,8.569,8.811c-1.651,2.721-2.921,1.838-6.357,4.266
				c-3.437,2.43-5.699,2.887-5.195,0.174c0.503-2.713,0.926-9.256-4.607-15.389C76.563,150.882,70.157,140.326,72.08,139.925z"/>
			
				<radialGradient id="SVGID_11_" cx="181.915" cy="702.001" r="133.6967" gradientTransform="matrix(0.9994 -0.0333 0.0333 0.9994 -54.8007 -590.6586)" gradientUnits="userSpaceOnUse">
				<stop  offset="0" style="stop-color:#FFE300"/>
				<stop  offset="0.4168" style="stop-color:#FFE101"/>
				<stop  offset="0.5985" style="stop-color:#FEDA04"/>
				<stop  offset="0.7345" style="stop-color:#FDCD08"/>
				<stop  offset="0.8479" style="stop-color:#FBBB0F"/>
				<stop  offset="0.9459" style="stop-color:#F9A418"/>
				<stop  offset="1" style="stop-color:#F7941E"/>
			</radialGradient>
			<path fill="url(#SVGID_11_)" d="M139.848,128.661c0,0-3.957-1.099-3.217,1.489c0.74,2.589,1.855,9.955,5.475,7.438
				C145.725,135.073,145.861,132.311,139.848,128.661z"/>
		</g>
	</g>
</g>
<g id="outline_x5F_white">
	<g>
		<g>
			<path fill="#FFFFFF" d="M59.262,23.591c5.343,0,10.528,2.819,13.312,7.819c0,0-0.499,12.53,3.831,20.308
				c3.524,6.332,7.121,7.511,9.312,7.511c1.277,0,2.076-0.4,2.107-0.416l3.375-1.88c0.001,0,0.003-0.001,0.004-0.002l2.272-1.265
				c1.821-1.014,3.794-1.495,5.741-1.495c4.152,0,8.183,2.191,10.347,6.076l5.658,10.165l13.822,23.454
				c1.537,0.247,5.264,1.55,9.071,8.192c3.108,5.426,6.224,10.117,9.001,13.984c4.738,6.604,8.466,10.747,9.392,11.751
				c0.019,0.021,0.044,0.048,0.06,0.063c0.045,0.049,0.084,0.091,0.109,0.117c0.021,0.021,0.059,0.062,0.059,0.062
				c1.65,1.386,1.395,2.613,0.66,3.162c-10.203,7.619-23.981,13.429-35.354,24.695c-12.572,13.521-22.721,13.974-31.177,18.84
				c-1.855,1.215-3.334,1.671-4.509,1.671c-3.548,0-4.32-4.16-4.32-4.16s2.223-3.815-5.931-19.104
				c-0.51-0.957-0.989-1.884-1.451-2.789c-0.148-0.291-0.286-0.57-0.43-0.855c-0.31-0.618-0.61-1.227-0.897-1.816
				c-0.146-0.303-0.287-0.601-0.427-0.895c-0.279-0.585-0.543-1.155-0.798-1.717c-0.113-0.248-0.23-0.502-0.34-0.743
				c-0.341-0.767-0.665-1.511-0.963-2.224c-0.007-0.017-0.016-0.033-0.021-0.049h0.001h-0.001v-0.002
				c-0.002-0.004-0.003-0.008-0.006-0.012c-0.145-0.348-0.271-0.676-0.406-1.012c-0.105-0.264-0.22-0.534-0.317-0.789
				c-0.196-0.506-0.374-0.986-0.548-1.463c-0.024-0.067-0.055-0.146-0.08-0.213c0-0.002,0-0.002,0-0.002
				c-1.842-5.129-2.331-8.597-1.736-10.334c0.02-0.062,0.071-0.136,0.134-0.216l-2.208,1.229l-13.253-25.359l1.381-0.777
				l-5.009-8.996c-3.176-5.707-1.125-12.908,4.581-16.086l2.276-1.267h0.001l3.376-1.88c0.028-0.017,5.591-3.375,0.514-12.493
				C55.054,54.444,43.704,47.48,43.704,47.48c-4.087-7.343-1.449-16.61,5.896-20.698c0.383-0.214,0.774-0.397,1.168-0.575
				c0.358-0.241,0.723-0.478,1.107-0.692C54.218,24.21,56.757,23.591,59.262,23.591 M59.067,42.35c0.219,0,0.439-0.018,0.658-0.055
				c1.065-1.21,1.324-2.997,0.495-4.486c-0.715-1.285-2.043-1.998-3.416-1.998c-0.219,0-0.439,0.018-0.659,0.055
				c-1.066,1.21-1.325,2.997-0.496,4.486C56.366,41.636,57.695,42.35,59.067,42.35 M59.262,11.591L59.262,11.591
				c-4.609,0-9.183,1.189-13.224,3.439c-0.407,0.227-0.781,0.453-1.117,0.665c-0.365,0.178-0.758,0.379-1.174,0.611
				C30.65,23.595,25.92,40.202,33.219,53.316c1.002,1.801,2.452,3.314,4.209,4.392c3.235,2.005,8.392,6.038,10.835,9.392
				l-0.788,0.438c-11.481,6.394-15.621,20.931-9.234,32.408l2.113,3.794c-0.025,1.925,0.414,3.882,1.366,5.701L54.973,134.8
				c0.395,0.757,0.865,1.46,1.401,2.104c0.432,1.768,1.015,3.662,1.751,5.714l0.101,0.271c0.001,0.002,0.002,0.006,0.003,0.008
				c0.199,0.545,0.403,1.098,0.627,1.674c0.088,0.228,0.183,0.464,0.279,0.697l0.088,0.217l0.125,0.314
				c0.11,0.278,0.222,0.559,0.342,0.848c0.028,0.065,0.056,0.133,0.084,0.197c0.319,0.762,0.664,1.553,1.026,2.365
				c0.008,0.018,0.016,0.035,0.023,0.053l0.256,0.562l0.106,0.229c0.276,0.608,0.571,1.246,0.884,1.9
				c0.142,0.299,0.295,0.622,0.453,0.947c0.312,0.646,0.637,1.3,0.97,1.967l0.157,0.312c0.103,0.207,0.206,0.412,0.313,0.623
				c0.491,0.964,1.003,1.951,1.547,2.976c3.561,6.677,4.486,10.078,4.724,11.291c-0.132,0.715-0.199,1.442-0.199,2.177
				c0,3.028,1.342,6.3,2.597,8.351c3.041,4.963,8.042,7.812,13.723,7.812c3.551,0,7.154-1.144,10.716-3.396
				c1.712-0.957,3.798-1.785,6.198-2.738c7.076-2.813,16.756-6.662,27.377-18.01c6.176-6.07,13.532-10.52,20.648-14.822
				c4.468-2.7,9.088-5.494,13.281-8.627c3.311-2.479,5.27-6.252,5.385-10.363c0.115-4.102-1.579-7.963-4.791-10.969
				c-0.93-1.02-4.174-4.683-8.305-10.438c-3.004-4.184-5.809-8.541-8.338-12.954c-3.609-6.298-7.664-9.827-11.193-11.797
				l-11.698-19.85l-5.588-10.037c-4.203-7.549-12.185-12.239-20.83-12.239c-4.037,0-8.041,1.041-11.578,3.01l-0.865,0.482
				c-1.807-3.503-2.333-10.647-2.208-13.775c0.087-2.204-0.434-4.389-1.507-6.316C78.255,16.949,69.138,11.592,59.262,11.591
				L59.262,11.591L59.262,11.591z"/>
		</g>
	</g>
</g>
<g id="outline_x5F_black">
	<g>
		<path d="M59.262,23.591c5.343,0,10.528,2.819,13.312,7.819c0,0-0.499,12.53,3.831,20.308c3.524,6.332,7.121,7.511,9.312,7.511
			c1.277,0,2.076-0.4,2.107-0.416l3.375-1.88c0.001,0,0.003-0.001,0.004-0.002l2.272-1.265c1.821-1.014,3.794-1.495,5.741-1.495
			c4.152,0,8.183,2.191,10.347,6.076l5.658,10.165l13.822,23.454c1.537,0.247,5.264,1.55,9.071,8.192
			c3.108,5.426,6.224,10.117,9.001,13.984c4.738,6.604,8.466,10.747,9.392,11.751c0.019,0.021,0.044,0.048,0.06,0.063
			c0.045,0.049,0.084,0.091,0.109,0.117c0.021,0.021,0.059,0.062,0.059,0.062c1.65,1.386,1.395,2.613,0.66,3.162
			c-10.203,7.619-23.981,13.429-35.354,24.695c-12.572,13.521-22.721,13.974-31.177,18.84c-1.856,1.215-3.334,1.671-4.509,1.671
			c-3.547,0-4.321-4.16-4.32-4.16c0,0,2.223-3.815-5.931-19.104c-0.51-0.957-0.989-1.884-1.451-2.789
			c-0.148-0.291-0.286-0.57-0.43-0.855c-0.31-0.618-0.61-1.227-0.897-1.816c-0.146-0.303-0.287-0.601-0.427-0.895
			c-0.279-0.585-0.543-1.155-0.798-1.717c-0.113-0.248-0.23-0.502-0.34-0.743c-0.341-0.767-0.665-1.511-0.963-2.224
			c-0.007-0.017-0.016-0.033-0.021-0.049h0.001h-0.001v-0.002c-0.002-0.004-0.003-0.008-0.006-0.012
			c-0.145-0.348-0.271-0.676-0.406-1.012c-0.105-0.264-0.22-0.534-0.317-0.789c-0.196-0.506-0.374-0.986-0.548-1.463
			c-0.024-0.067-0.055-0.146-0.08-0.213c0-0.002,0-0.002,0-0.002c-1.842-5.129-2.331-8.597-1.736-10.334
			c0.02-0.062,0.071-0.136,0.134-0.216l-2.208,1.229l-13.253-25.359l1.381-0.777l-5.009-8.996
			c-3.176-5.707-1.125-12.908,4.581-16.086l2.276-1.267h0.001l3.376-1.88c0.028-0.017,5.591-3.375,0.514-12.493
			C55.054,54.444,43.704,47.48,43.704,47.48c-4.087-7.343-1.449-16.61,5.896-20.698c0.383-0.214,0.774-0.397,1.168-0.575
			c0.358-0.241,0.723-0.478,1.107-0.692C54.218,24.21,56.757,23.591,59.262,23.591 M59.067,42.35c0.219,0,0.439-0.018,0.658-0.055
			c1.065-1.21,1.324-2.997,0.495-4.486c-0.715-1.285-2.044-1.998-3.416-1.998c-0.219,0-0.439,0.018-0.659,0.055
			c-1.066,1.21-1.325,2.997-0.496,4.486C56.366,41.636,57.695,42.35,59.067,42.35 M59.262,17.591v6V17.591
			c-3.591,0-7.154,0.927-10.306,2.682c-0.41,0.229-0.783,0.46-1.115,0.676c-0.362,0.17-0.759,0.367-1.168,0.596
			c-10.213,5.685-13.901,18.63-8.211,28.854c0.501,0.9,1.226,1.657,2.105,2.196c2.787,1.718,10.687,7.359,13.666,12.71
			c1.443,2.591,1.501,4.154,1.29,4.622l-2.856,1.59l-2.275,1.265c-8.589,4.783-11.686,15.66-6.908,24.247l3.037,5.454
			c-0.328,1.363-0.182,2.847,0.517,4.184l13.253,25.357c0.39,0.746,0.929,1.396,1.575,1.91c0.377,1.959,1.011,4.166,1.906,6.659
			l0.075,0.202c0.204,0.557,0.396,1.076,0.607,1.62c0.066,0.174,0.151,0.384,0.237,0.594l0.102,0.251l0.13,0.327
			c0.099,0.249,0.198,0.499,0.307,0.759c0.018,0.045,0.037,0.088,0.057,0.133c0.308,0.736,0.643,1.504,0.993,2.291l0.252,0.555
			l0.11,0.24c0.266,0.584,0.545,1.188,0.841,1.809c0.141,0.296,0.289,0.605,0.44,0.92c0.3,0.619,0.612,1.25,0.934,1.895l0.16,0.319
			c0.095,0.188,0.19,0.38,0.289,0.574c0.477,0.937,0.973,1.894,1.5,2.883c5.117,9.597,5.488,13.647,5.503,14.489
			c-0.182,0.579-0.275,1.186-0.275,1.797c0,1.424,0.705,3.566,1.714,5.216c1.925,3.144,5.062,4.944,8.606,4.944
			c2.435,0,5.001-0.854,7.631-2.543c2.094-1.189,4.402-2.106,7.066-3.166c6.934-2.758,15.559-6.188,25.297-16.621
			c6.693-6.607,14.396-11.268,21.842-15.77c4.545-2.748,8.838-5.345,12.795-8.301c1.832-1.369,2.914-3.455,2.979-5.726
			c0.04-1.409-0.313-4.091-3.045-6.558c-0.685-0.742-4.308-4.742-8.927-11.183c-3.123-4.349-6.039-8.88-8.67-13.469
			c-3.516-6.132-7.327-8.943-10.266-10.219L120.428,67.43l-5.623-10.102c-3.146-5.649-9.119-9.158-15.589-9.158
			c-3.018,0-6.013,0.779-8.66,2.253l-2.271,1.264c-0.015,0.008-0.03,0.017-0.045,0.025l-2.676,1.491
			c-0.584-0.159-2.099-1.139-3.917-4.404c-2.866-5.147-3.19-14.337-3.079-17.151c0.044-1.102-0.217-2.194-0.753-3.158
			C74.072,21.768,66.962,17.592,59.262,17.591L59.262,17.591z"/>
	</g>
</g>
</svg>
