<?xml version="1.0" encoding="utf-8"?>
<!-- Generator: Adobe Illustrator 15.0.0, SVG Export Plug-In . SVG Version: 6.00 Build 0)  -->
<!DOCTYPE svg PUBLIC "-//W3C//DTD SVG 1.1//EN" "http://www.w3.org/Graphics/SVG/1.1/DTD/svg11.dtd">
<svg version="1.1" xmlns="http://www.w3.org/2000/svg" xmlns:xlink="http://www.w3.org/1999/xlink" x="0px" y="0px" width="200px"
	 height="200px" viewBox="0 0 200 200" enable-background="new 0 0 200 200" xml:space="preserve">
<g id="outline_x5F_white">
	<g>
		<path fill="#FFFFFF" d="M149.414,143.957c0.314,0,0.456,0.139,0.456,0.139s6.812,2.297,10.454,11.68
			c1.211,3.117,1.732,5.646,1.732,8.857c0,7.159-5.802,12.963-12.961,12.963c-7.16,0-12.963-5.804-12.963-12.963
			c0-8.826,7.686-15.031,9.42-17.389C147.613,144.443,148.822,143.957,149.414,143.957 M149.414,131.957
			c-7.332,0-11.82,5.861-13.414,8.023c-0.166,0.188-0.521,0.57-0.787,0.857c-3.596,3.875-11.079,11.938-11.079,23.794
			c0,13.765,11.198,24.964,24.962,24.964s24.963-11.199,24.963-24.964c0-4.659-0.763-8.606-2.549-13.204
			c-3.953-10.187-11.33-16.134-16.854-18.352C153.025,132.35,151.234,131.957,149.414,131.957L149.414,131.957z"/>
	</g>
	<g>
		<path fill="#FFFFFF" d="M58.677,21.205c5.243,0,10.492,1.978,14.528,5.943c3.887,3.375,22.102,24.335,23.481,25.719
			c2.235,2.235,2.68,8.831-7.781,19.18c-6.803,6.729-12.659,9.095-16.278,9.095c-1.47,0-2.571-0.391-3.217-1.037
			c-2.233-2.234-17.051-14.921-25.266-23.378c-8.167-8.025-8.282-21.151-0.259-29.318C47.946,23.275,53.309,21.205,58.677,21.205
			 M58.677,12.205c-8.042,0-15.574,3.159-21.21,8.895c-11.463,11.668-11.324,30.47,0.291,41.967
			c5.839,6.002,14.578,13.793,20.367,18.956c2.162,1.927,4.396,3.919,4.921,4.443c2.362,2.368,5.768,3.675,9.582,3.675
			c6.955,0,14.983-4.154,22.607-11.696c7.781-7.697,11.734-15.039,11.753-21.821c0.011-3.951-1.369-7.524-3.887-10.07
			c-0.449-0.474-2.475-2.758-4.433-4.967C88.337,29.934,82.13,23.058,79.329,20.549C73.757,15.166,66.433,12.205,58.677,12.205
			L58.677,12.205z"/>
	</g>
	<g>
		<g>
			<path fill="#FFFFFF" d="M98.27,48.167c1.33,0,2.038,0.225,2.038,0.225s6.119,5.794,6.825,6.577
				c0.57,0.633,1.199,1.591,1.604,2.987c0.586,2.024-0.42,2.572,1.214,4.34c1.608,1.741,9.084,11.154,16.155,18.236
				c11.771,12.611,16.643,18.058,16.643,18.058c4.686,5.235,6.521,14.331,4.793,22.758c0.081,3.139,1.023,4.59,1.023,4.59
				c-0.117,0.76-0.369,1.555-1.021,2.26c-0.729,0.781-1.898,1.225-2.547,1.369c0,0-0.934-1.021-3.169-1.021
				c-0.63,0-1.363,0.08-2.208,0.288c-2.701,0.664-5.253,0.968-7.641,0.968c-6.317,0-11.467-2.134-15.09-5.385
				c0,0-6.004-4.165-18.599-15.953c-5.691-5.7-16.073-14.762-17.643-16.215c-0.898-0.833-1.648-0.986-2.426-0.986
				c-0.453,0-0.916,0.052-1.424,0.052c-0.404,0-0.838-0.033-1.316-0.152c-1.761-0.44-2.842-1.103-3.487-1.656
				C71.353,88.951,65.647,83,65.647,83s-3.255-8.065,12.468-23.768C87.81,49.554,94.963,48.167,98.27,48.167 M98.27,36.167
				c-6.402,0-16.567,2.528-28.633,14.574c-7.974,7.963-13.08,15.677-15.179,22.929c-2.079,7.186-0.649,12.06,0.062,13.822
				c0.571,1.416,1.408,2.71,2.466,3.813c6.098,6.36,6.742,6.917,7.169,7.285c2.311,1.982,5.133,3.393,8.415,4.213
				c0.773,0.192,1.547,0.33,2.336,0.413c0.018,0.017,0.035,0.031,0.053,0.048c3.738,3.329,10.695,9.526,14.84,13.678
				c0.096,0.097,0.193,0.189,0.292,0.283c11.069,10.359,17.357,15.164,19.335,16.605c6.016,5.146,13.994,7.971,22.555,7.971
				c2.912,0,5.908-0.32,8.926-0.955c1.305,0.473,2.688,0.719,4.091,0.719c0.869,0,1.746-0.095,2.614-0.287
				c1.572-0.353,5.57-1.531,8.709-4.897c2.222-2.401,3.592-5.287,4.104-8.61c0.33-2.141,0.074-4.314-0.722-6.299
				c1.757-11.64-1.229-23.3-8.014-30.883c-0.199-0.225-5.088-5.684-16.812-18.244c-0.092-0.098-0.187-0.195-0.28-0.29
				c-4.818-4.826-9.961-10.964-13.035-14.631c-0.332-0.396-0.625-0.748-0.89-1.062c-0.099-0.543-0.229-1.127-0.407-1.742
				c-0.854-2.94-2.271-5.524-4.218-7.684c-0.31-0.344-1.026-1.138-7.487-7.257c-1.315-1.245-2.896-2.177-4.623-2.725
				C103.01,36.659,101.043,36.167,98.27,36.167L98.27,36.167z"/>
		</g>
	</g>
</g>
<g id="icon">
	<g id="Layer_2">
	</g>
	<g id="Layer_1_1_">
		<g>
			
				<radialGradient id="SVGID_1_" cx="4276.9609" cy="-37.959" r="16.4896" fx="4280.1636" fy="-30.6158" gradientTransform="matrix(-0.9776 0.2106 -0.2914 -1.3528 4317.2988 -797.1191)" gradientUnits="userSpaceOnUse">
				<stop  offset="0" style="stop-color:#72FF00"/>
				<stop  offset="0.1424" style="stop-color:#70FC00"/>
				<stop  offset="0.2522" style="stop-color:#68F201"/>
				<stop  offset="0.351" style="stop-color:#5CE201"/>
				<stop  offset="0.4434" style="stop-color:#4ACB02"/>
				<stop  offset="0.5306" style="stop-color:#33AD03"/>
				<stop  offset="0.5697" style="stop-color:#279D04"/>
				<stop  offset="0.7939" style="stop-color:#148305"/>
				<stop  offset="1" style="stop-color:#35AF03"/>
			</radialGradient>
			<path fill="url(#SVGID_1_)" d="M145.555,147.244c-1.734,2.357-9.421,8.562-9.421,17.389c0,7.159,5.804,12.963,12.962,12.963
				c7.16,0,12.963-5.804,12.963-12.963c0-3.211-0.522-5.74-1.733-8.857c-3.642-9.383-11.229-15.723-11.229-15.723
				S148.713,142.949,145.555,147.244z"/>
			
				<radialGradient id="SVGID_2_" cx="41.541" cy="-456.3984" r="7.3189" gradientTransform="matrix(0.949 0.3153 0.5766 -1.7353 367.661 -645.8237)" gradientUnits="userSpaceOnUse">
				<stop  offset="0.5092" style="stop-color:#8AFF74"/>
				<stop  offset="1" style="stop-color:#08DE92;stop-opacity:0"/>
			</radialGradient>
			<path fill="url(#SVGID_2_)" d="M147.714,162.475c-0.729,5.217-3.94,9.244-6.499,8.643c-2.66-0.627-4.984-5.223-3.775-10.348
				c0.543-2.301,1.345-4.022,2.734-6.051c4.191-6.104,10.83-9.004,10.83-9.004S149.098,152.581,147.714,162.475z"/>
			
				<linearGradient id="SVGID_3_" gradientUnits="userSpaceOnUse" x1="163.0059" y1="526.8105" x2="212.2021" y2="526.8105" gradientTransform="matrix(0.7076 -0.7066 -0.7066 -0.7076 348.3375 596.842)">
				<stop  offset="0.103" style="stop-color:#443F3D;stop-opacity:0.38"/>
				<stop  offset="0.1146" style="stop-color:#3B3B44;stop-opacity:0.3694"/>
				<stop  offset="0.1498" style="stop-color:#253154;stop-opacity:0.3369"/>
				<stop  offset="0.1913" style="stop-color:#142961;stop-opacity:0.2986"/>
				<stop  offset="0.2427" style="stop-color:#09236A;stop-opacity:0.2512"/>
				<stop  offset="0.3149" style="stop-color:#02206F;stop-opacity:0.1847"/>
				<stop  offset="0.5152" style="stop-color:#001F70;stop-opacity:0"/>
			</linearGradient>
			<path fill="url(#SVGID_3_)" d="M77.701,59.696C62.649,74.729,65.647,83,65.647,83s5.983,6.129,6.644,6.67
				c0.747,0.609,1.951,1.35,3.703,1.736c2.25,0.498,2.664-1.003,4.653,0.842c1.57,1.453,11.704,10.27,17.644,16.215
				c12.594,11.788,18.598,15.953,18.598,15.953c8.676,7.782,17.108,4.887,23.916-1.91c6.812-6.799,9.717-15.227,1.942-23.917
				c0,0-4.988-5.571-16.763-18.187c-6.646-6.656-14.635-16.592-16.035-18.107c-1.922-2.079-0.488-2.034-1.031-4.159
				c-0.368-1.436-1.1-2.45-1.74-3.104c-0.641-0.656-6.87-6.64-6.87-6.64S92.141,45.281,77.701,59.696z"/>
			
				<radialGradient id="SVGID_4_" cx="-59.1416" cy="55.6616" r="31.8843" gradientTransform="matrix(0.9761 -0.2175 -0.2175 -0.9761 201.6075 138.9562)" gradientUnits="userSpaceOnUse">
				<stop  offset="0" style="stop-color:#72FF00"/>
				<stop  offset="0.1424" style="stop-color:#70FC00"/>
				<stop  offset="0.2522" style="stop-color:#68F201"/>
				<stop  offset="0.351" style="stop-color:#5CE201"/>
				<stop  offset="0.4434" style="stop-color:#4ACB02"/>
				<stop  offset="0.5306" style="stop-color:#33AD03"/>
				<stop  offset="0.5697" style="stop-color:#279D04"/>
				<stop  offset="0.7939" style="stop-color:#148305"/>
				<stop  offset="1" style="stop-color:#35AF03"/>
			</radialGradient>
			<path fill="url(#SVGID_4_)" d="M121.38,100.924c-14.116,6.789-20.847,5.542-20.847,5.542l17.4,15.89
				c7.709,6.914,20.709,8.49,26.754,2.453c6.051-6.039,3.123-17.674-3.783-25.393l-7.868-8.58
				C133.036,90.836,134.917,94.414,121.38,100.924z"/>
			
				<radialGradient id="SVGID_5_" cx="-60.5938" cy="62.5322" r="10.2306" gradientTransform="matrix(0.9761 -0.2175 -0.2175 -0.9761 201.6075 138.9562)" gradientUnits="userSpaceOnUse">
				<stop  offset="0" style="stop-color:#72FF00"/>
				<stop  offset="1" style="stop-color:#148305"/>
			</radialGradient>
			<path fill="url(#SVGID_5_)" d="M121.38,100.924c-14.116,6.789-20.847,5.542-20.847,5.542s3.91,4.739,23.045-2.891
				c15.518-6.187,9.458-12.739,9.458-12.739S134.917,94.414,121.38,100.924z"/>
			
				<linearGradient id="SVGID_6_" gradientUnits="userSpaceOnUse" x1="163.5498" y1="526.9219" x2="212.7422" y2="526.9219" gradientTransform="matrix(0.7076 -0.7066 -0.7066 -0.7076 347.9684 597.342)">
				<stop  offset="0.503" style="stop-color:#685B72;stop-opacity:0"/>
				<stop  offset="0.6176" style="stop-color:#6A5D74;stop-opacity:0.1831"/>
				<stop  offset="0.6771" style="stop-color:#71657B;stop-opacity:0.278"/>
				<stop  offset="0.7239" style="stop-color:#7E7286;stop-opacity:0.3528"/>
				<stop  offset="0.7641" style="stop-color:#8F8697;stop-opacity:0.417"/>
				<stop  offset="0.8" style="stop-color:#A69EAC;stop-opacity:0.4744"/>
				<stop  offset="0.8329" style="stop-color:#C2BDC6;stop-opacity:0.527"/>
				<stop  offset="0.8629" style="stop-color:#E2E0E4;stop-opacity:0.575"/>
				<stop  offset="0.8848" style="stop-color:#FFFFFF;stop-opacity:0.61"/>
			</linearGradient>
			<path fill="url(#SVGID_6_)" d="M78.115,59.232C62.393,74.935,65.647,83,65.647,83s5.952,6.252,6.78,6.891
				c0.666,0.512,1.692,1.08,3.243,1.459c2.131,0.523,3.114-0.828,4.977,0.898c1.649,1.531,11.792,10.34,17.888,16.443
				c12.587,11.783,18.354,15.725,18.354,15.725c8.676,7.782,17.108,4.887,23.916-1.91c6.812-6.799,9.717-15.227,1.942-23.917
				c0,0-4.722-5.284-16.485-17.893c-7.13-7.14-14.835-16.802-16.312-18.401c-1.672-1.809-0.409-1.881-0.999-3.783
				c-0.457-1.478-1.104-2.523-1.679-3.227c-0.691-0.851-6.964-6.894-6.964-6.894S91.708,45.662,78.115,59.232z"/>
			
				<linearGradient id="SVGID_7_" gradientUnits="userSpaceOnUse" x1="1841.1553" y1="-863.3022" x2="1828.9546" y2="-903.5197" gradientTransform="matrix(-0.7076 0.7066 0.2801 0.2805 1629.4089 -985.9154)">
				<stop  offset="0" style="stop-color:#FF78FF;stop-opacity:0"/>
				<stop  offset="0.0985" style="stop-color:#F876F9;stop-opacity:0.0679"/>
				<stop  offset="0.241" style="stop-color:#E56FE9;stop-opacity:0.1661"/>
				<stop  offset="0.4103" style="stop-color:#C565CE;stop-opacity:0.2828"/>
				<stop  offset="0.6001" style="stop-color:#9957A9;stop-opacity:0.4137"/>
				<stop  offset="0.8045" style="stop-color:#62457A;stop-opacity:0.5546"/>
				<stop  offset="0.8848" style="stop-color:#4A3D66;stop-opacity:0.61"/>
			</linearGradient>
			<path fill="url(#SVGID_7_)" d="M78.188,60.898c10.67-10.652,20.496-14.354,24.023-10.343l-0.684-0.774
				c-3.526-4.012-13.371-0.289-24.067,10.391c-10.694,10.68-14.428,20.516-10.425,24.055l0.774,0.682
				C63.804,81.371,67.52,71.555,78.188,60.898z"/>
			
				<linearGradient id="SVGID_8_" gradientUnits="userSpaceOnUse" x1="190.8809" y1="1262.3115" x2="178.485" y2="1221.4512" gradientTransform="matrix(0.7076 -0.7066 -0.2801 -0.2805 300.8152 549.5599)">
				<stop  offset="0" style="stop-color:#FF78FF;stop-opacity:0"/>
				<stop  offset="0.0985" style="stop-color:#F876F9;stop-opacity:0.0679"/>
				<stop  offset="0.241" style="stop-color:#E56FE9;stop-opacity:0.1661"/>
				<stop  offset="0.4103" style="stop-color:#C565CE;stop-opacity:0.2828"/>
				<stop  offset="0.6001" style="stop-color:#9957A9;stop-opacity:0.4137"/>
				<stop  offset="0.8045" style="stop-color:#62457A;stop-opacity:0.5546"/>
				<stop  offset="0.8848" style="stop-color:#4A3D66;stop-opacity:0.61"/>
			</linearGradient>
			<path fill="url(#SVGID_8_)" d="M89.034,72.553C78.759,82.814,68.86,86.588,64.851,83.058l0.955,0.841
				c4.011,3.529,13.882-0.219,24.126-10.449c10.245-10.229,14.001-20.088,10.464-24.091l-0.838-0.954
				C103.091,52.408,99.312,62.29,89.034,72.553z"/>
			
				<linearGradient id="SVGID_9_" gradientUnits="userSpaceOnUse" x1="190.7627" y1="1240.459" x2="178.7632" y2="1200.905" gradientTransform="matrix(0.7076 -0.7066 -0.2801 -0.2805 300.8152 549.5599)">
				<stop  offset="0" style="stop-color:#FF78FF;stop-opacity:0"/>
				<stop  offset="0.0985" style="stop-color:#F876F9;stop-opacity:0.0679"/>
				<stop  offset="0.241" style="stop-color:#E56FE9;stop-opacity:0.1661"/>
				<stop  offset="0.4103" style="stop-color:#C565CE;stop-opacity:0.2828"/>
				<stop  offset="0.6001" style="stop-color:#9957A9;stop-opacity:0.4137"/>
				<stop  offset="0.8045" style="stop-color:#62457A;stop-opacity:0.5546"/>
				<stop  offset="0.8848" style="stop-color:#4A3D66;stop-opacity:0.61"/>
			</linearGradient>
			<path fill="url(#SVGID_9_)" d="M94.854,78.383c-9.944,9.934-19.526,13.589-23.407,10.17l0.925,0.812
				c3.883,3.418,13.436-0.209,23.355-10.113c9.917-9.902,13.552-19.447,10.128-23.322l-0.812-0.922
				C108.46,58.883,104.805,68.448,94.854,78.383z"/>
			
				<linearGradient id="SVGID_10_" gradientUnits="userSpaceOnUse" x1="59.9712" y1="-10.7651" x2="113.6275" y2="-10.7651" gradientTransform="matrix(1 7.000000e-04 7.000000e-04 -1 -80.3863 78.0649)">
				<stop  offset="0" style="stop-color:#231F20;stop-opacity:0"/>
				<stop  offset="0.3431" style="stop-color:#252122;stop-opacity:0.1453"/>
				<stop  offset="0.4667" style="stop-color:#2C2829;stop-opacity:0.1977"/>
				<stop  offset="0.5548" style="stop-color:#373334;stop-opacity:0.235"/>
				<stop  offset="0.626" style="stop-color:#484445;stop-opacity:0.2652"/>
				<stop  offset="0.6871" style="stop-color:#5D5A5B;stop-opacity:0.2911"/>
				<stop  offset="0.7411" style="stop-color:#787676;stop-opacity:0.314"/>
				<stop  offset="0.79" style="stop-color:#989697;stop-opacity:0.3347"/>
				<stop  offset="0.8349" style="stop-color:#BDBCBC;stop-opacity:0.3537"/>
				<stop  offset="0.8749" style="stop-color:#E5E5E5;stop-opacity:0.3707"/>
				<stop  offset="0.897" style="stop-color:#FFFFFF;stop-opacity:0.38"/>
			</linearGradient>
			<path opacity="0.56" fill="url(#SVGID_10_)" enable-background="new    " d="M101.438,52.649c0,0,2.576,1.729,4.478,4.842
				c2.25,3.684,0.548,5.416,2.358,7.356c1.523,1.635,10.285,10.311,17.613,17.647c11.145,11.852,15.909,17.047,15.909,17.047
				c7.218,8.006,4.271,20.492,1.38,25.041c-3.089,3.131-17.34,6.109-25.335-1.119c0,0-5.991-4.283-17.825-15.439
				c-5.665-5.676-16.257-15.641-17.841-17.123c-2.01-1.879-4.062-0.369-7.816-2.657c-2.917-1.779-4.452-4.104-4.452-4.104
				s8.49-0.006,20.203-11.702c12.785-12.766,11.305-19.82,11.305-19.82L101.438,52.649z M100.308,48.391
				c0,0,1.592,9.727-11.523,22.826C74.601,85.383,65.647,83,65.647,83s5.252,5.6,6.248,6.301c0.667,0.47,1.64,0.963,3.024,1.298
				c2.131,0.517,3.777-0.157,5.728,1.649c1.604,1.488,11.718,10.256,18.056,16.602c12.581,11.775,18.186,15.566,18.186,15.566
				c8.676,7.782,23.678,5.445,27.387,1.268c4.611-4.638,6.246-18.403-1.527-27.095c0,0-4.062-4.577-15.796-17.151
				c-8.321-8.334-15.779-16.442-17.415-18.209c-1.84-1.988-0.941-4.095-1.43-6.263c-0.248-1.097-0.637-1.863-1.051-2.4
				C106.202,53.457,100.308,48.391,100.308,48.391L100.308,48.391z"/>
			
				<linearGradient id="SVGID_11_" gradientUnits="userSpaceOnUse" x1="190.0781" y1="522.5205" x2="171.6189" y2="522.5205" gradientTransform="matrix(0.7076 -0.7066 -0.7066 -0.7076 348.3024 597.0725)">
				<stop  offset="0" style="stop-color:#FFFFFF;stop-opacity:0"/>
				<stop  offset="0.8485" style="stop-color:#FFFFFF;stop-opacity:0.38"/>
			</linearGradient>
			<path fill="url(#SVGID_11_)" d="M137.977,118.289c-0.07-0.904-1.24-1.616-2.295-1.73c-4.852-0.508-6.687,0.502-11.621-4.309
				c0,0-4.773-4.266-15.521-14.896c-2.493-2.467-7.812-7.896-11.116-11.168c-3.359-3.326-6.479-2.331-8.453-4.279
				c-3.317-3.273-4.932-5.848-4.932-5.848s-1.832,1.439-4.255,3.006c-2.995,1.965-6.074,3.262-6.074,3.262s2.288,2.199,5.878,5.651
				c2.108,2.028,3.907-1.833,6.72,0.868c2.78,2.675,15.251,13.936,17.908,16.503c11.273,10.897,14.088,12.65,14.088,12.65
				c7.114,6.602,12.23,5.205,18.188,2.527C137.035,120.282,138.047,119.189,137.977,118.289z"/>
			
				<radialGradient id="SVGID_12_" cx="2325.8076" cy="1622.9932" r="113.0142" gradientTransform="matrix(0.3995 -0.9516 -0.8957 -0.3694 691.0048 2909.144)" gradientUnits="userSpaceOnUse">
				<stop  offset="0" style="stop-color:#130C0E;stop-opacity:0"/>
				<stop  offset="0.9385" style="stop-color:#130C0E;stop-opacity:0.6112"/>
				<stop  offset="1" style="stop-color:#130C0E;stop-opacity:0.6512"/>
			</radialGradient>
			<path fill="url(#SVGID_12_)" d="M145.909,107.682c0,0-17.571-19.391-22.622-24.992c-7.062-7.823,3.544,5.235-0.725,2.561
				c-4.264-2.68-14.307-19.594-15.662-17.116c-1.356,2.472,8.248,16.804,10.574,18.452c2.328,1.646-1.228-3.686,2.731,0.236
				C124.166,90.747,146.827,120.156,145.909,107.682z"/>
			<g>
				
					<radialGradient id="SVGID_13_" cx="188.1465" cy="556.3398" r="20.4142" gradientTransform="matrix(0.7076 -0.7066 -0.7066 -0.7076 347.9684 597.342)" gradientUnits="userSpaceOnUse">
					<stop  offset="0.2727" style="stop-color:#3F4A5D"/>
					<stop  offset="0.3587" style="stop-color:#333B4B"/>
					<stop  offset="0.5179" style="stop-color:#20252F"/>
					<stop  offset="0.6781" style="stop-color:#13161B"/>
					<stop  offset="0.8387" style="stop-color:#0B0C0F"/>
					<stop  offset="1" style="stop-color:#08090B"/>
				</radialGradient>
				<path fill="url(#SVGID_13_)" d="M78.115,59.232C62.393,74.935,65.647,83,65.647,83s5.952,6.252,6.78,6.891
					c0.666,0.512,1.692,1.08,3.243,1.459c2.131,0.523,11.488,1.967,24.516-11.441c11.474-11.806,9.354-19.495,8.764-21.396
					c-0.457-1.478-1.104-2.523-1.679-3.227c-0.691-0.851-6.964-6.894-6.964-6.894S91.708,45.662,78.115,59.232z"/>
				<path d="M78.562,94.668C78.561,94.668,78.561,94.668,78.562,94.668c-1.281,0-2.527-0.14-3.606-0.405
					c-1.713-0.418-3.179-1.089-4.356-1.994c-0.884-0.683-4.843-4.805-7.125-7.202l-0.395-0.415l-0.214-0.531
					c-0.409-1.014-3.516-10.387,13.13-27.013c10.408-10.391,18.422-11.942,22.273-11.942c1.666,0,2.676,0.279,2.946,0.365
					l0.668,0.212l0.506,0.487c1.926,1.855,6.483,6.267,7.211,7.163c0.969,1.188,1.716,2.613,2.217,4.232
					c2.217,7.145-1.149,15.802-9.479,24.373C92.164,92.47,83.792,94.668,78.562,94.668z M68.401,81.542
					c2.589,2.71,5.368,5.56,5.894,6.002c0.311,0.238,0.966,0.618,2.087,0.892c0.434,0.106,1.162,0.232,2.179,0.232
					c3.335,0,10.3-1.409,19.474-10.85c6.728-6.923,9.587-13.463,8.05-18.416c-0.272-0.882-0.655-1.628-1.139-2.22
					c-0.423-0.497-3.3-3.325-6.059-5.991c-0.169-0.014-0.376-0.023-0.619-0.023c-2.354,0-8.823,0.993-18.034,10.188
					C68.546,73.029,68.235,79.79,68.401,81.542z"/>
			</g>
			<g>
				
					<radialGradient id="SVGID_14_" cx="-116.4102" cy="126.877" r="40.3368" gradientTransform="matrix(0.9761 -0.2175 -0.2175 -0.9761 201.6075 138.9562)" gradientUnits="userSpaceOnUse">
					<stop  offset="0.2727" style="stop-color:#3F4A5D"/>
					<stop  offset="0.3587" style="stop-color:#333B4B"/>
					<stop  offset="0.5179" style="stop-color:#20252F"/>
					<stop  offset="0.6781" style="stop-color:#13161B"/>
					<stop  offset="0.8387" style="stop-color:#0B0C0F"/>
					<stop  offset="1" style="stop-color:#08090B"/>
				</radialGradient>
				<path fill="url(#SVGID_14_)" d="M96.687,52.866c-1.38-1.384-19.595-22.344-23.481-25.719c-8.169-8.024-21.293-7.908-29.319,0.26
					c-8.023,8.167-7.908,21.293,0.259,29.318c8.215,8.457,23.032,21.144,25.266,23.378c2.233,2.238,9.929,1.406,19.495-8.058
					C99.366,61.697,98.922,55.102,96.687,52.866z"/>
			</g>
			
				<radialGradient id="SVGID_15_" cx="-83.5693" cy="86.1016" r="57.3649" gradientTransform="matrix(0.9761 -0.2175 -0.2175 -0.9761 201.6075 138.9562)" gradientUnits="userSpaceOnUse">
				<stop  offset="0.2727" style="stop-color:#3F4A5D"/>
				<stop  offset="0.3587" style="stop-color:#333B4B"/>
				<stop  offset="0.5179" style="stop-color:#20252F"/>
				<stop  offset="0.6781" style="stop-color:#13161B"/>
				<stop  offset="0.8387" style="stop-color:#0B0C0F"/>
				<stop  offset="1" style="stop-color:#08090B"/>
			</radialGradient>
			<path fill="url(#SVGID_15_)" d="M94.973,46.893c0,0,4.913-0.474,6.333,3.778c1.609,4.819,1.129,11.741-9.25,22.365
				C81.679,83.66,71.113,87.064,66.294,84.756c-4.017-1.925-2.763-6.604-2.763-6.604s3.113,4.1,7.618,3.56
				c3.626-0.435,10.553-1.497,18.857-10.283c7.439-7.87,9.034-13.147,8.451-17.755C97.873,49.067,94.973,46.893,94.973,46.893z"/>
		</g>
	</g>
</g>
<g id="outline_x5F_black">
	<path d="M165.917,153.604c-4.151-10.699-12.614-17.854-12.974-18.154c-0.912-0.762-2.002-1.269-3.133-1.46
		c0.721-0.438,1.452-0.987,2.117-1.701c1.381-1.49,2.237-3.313,2.564-5.435c0.203-1.321-0.039-2.67-0.686-3.832
		c-0.049-0.133-0.177-0.543-0.238-1.256c1.854-10.16-0.604-20.752-6.353-27.178c-0.2-0.224-5.048-5.637-16.729-18.15
		c-0.045-0.05-0.092-0.098-0.139-0.146c-5.005-5.011-10.252-11.274-13.389-15.017c-0.866-1.034-1.529-1.825-2.029-2.403
		c-0.033-0.678-0.137-1.559-0.434-2.586c-0.598-2.061-1.576-3.855-2.91-5.335c-0.754-0.836-4.809-4.692-7.156-6.917
		c-0.658-0.623-1.447-1.088-2.311-1.362c-0.475-0.152-1.809-0.505-3.849-0.505c-1.74,0-3.842,0.258-6.249,0.968
		c-7.325-8.248-14.276-15.986-16.776-18.19c-4.458-4.348-10.338-6.741-16.567-6.741c-6.419,0-12.432,2.522-16.931,7.101
		c-9.17,9.334-9.037,24.389,0.247,33.511c5.069,5.218,12.511,11.93,18.142,16.958c-1.422,5.236-0.454,8.477-0.053,9.471
		c0.286,0.709,0.705,1.355,1.233,1.907c5.901,6.156,6.546,6.712,6.758,6.895c1.583,1.358,3.581,2.342,5.951,2.935
		c0.896,0.224,1.802,0.332,2.772,0.332c0.168,0,0.333-0.003,0.495-0.009c0.43,0.385,0.991,0.886,1.655,1.478
		c3.784,3.369,10.827,9.645,15.096,13.92c0.048,0.048,0.097,0.095,0.146,0.142c11.323,10.599,17.521,15.235,18.959,16.275
		c4.947,4.312,11.617,6.682,18.828,6.682c2.938,0,5.989-0.384,9.071-1.141c0.271-0.066,0.472-0.097,0.61-0.107
		c0.95,0.635,2.066,0.979,3.211,1.004c-0.98,0.932-1.603,2.162-1.713,3.601c-0.115,0.422-0.653,2.109-2.436,4.531
		c-0.15,0.197-0.705,0.795-1.109,1.23c-3.075,3.314-9.478,10.213-9.478,19.713c0,10.456,8.507,18.963,18.962,18.963
		c10.457,0,18.963-8.507,18.963-18.963C168.059,160.764,167.417,157.464,165.917,153.604z M139.619,128.834
		c-2.701,0.664-5.253,0.968-7.641,0.968c-6.317,0-11.467-2.134-15.09-5.385c0,0-6.004-4.165-18.599-15.953
		c-5.691-5.7-16.073-14.762-17.643-16.215c-0.898-0.833-1.648-0.986-2.426-0.986c-0.453,0-0.916,0.052-1.424,0.052
		c-0.404,0-0.838-0.033-1.316-0.152c-1.761-0.44-2.842-1.103-3.487-1.656C71.353,88.951,65.647,83,65.647,83
		s-0.435-1.103-0.208-3.268c0.01-0.091,0.022-0.186,0.034-0.281c0.039-0.31,0.089-0.635,0.158-0.985
		c0.018-0.089,0.042-0.186,0.062-0.278c0.066-0.307,0.147-0.631,0.24-0.967c0.268-0.967,0.646-2.048,1.189-3.256
		c-0.32-0.286-0.653-0.583-1-0.892c-5.687-5.07-14.282-12.733-19.874-18.488c-6.974-6.853-7.073-18.102-0.222-25.076
		c3.362-3.421,7.855-5.306,12.651-5.306c4.676,0,9.088,1.805,12.426,5.083l0.135,0.125c2.602,2.26,12.915,13.89,18.455,20.139
		c0.209,0.236,0.394,0.444,0.588,0.663c1.069-0.503,2.056-0.882,2.968-1.175l0,0c1.054-0.338,2-0.554,2.833-0.687
		c0.031-0.005,0.06-0.009,0.09-0.013c0.812-0.125,1.517-0.172,2.098-0.172c1.33,0,2.038,0.225,2.038,0.225s6.119,5.794,6.825,6.577
		c0.57,0.633,1.199,1.591,1.604,2.987c0.586,2.024-0.42,2.572,1.214,4.34c1.608,1.741,9.084,11.154,16.155,18.236
		c11.771,12.611,16.643,18.058,16.643,18.058c4.686,5.235,6.521,14.331,4.793,22.758c0.081,3.139,1.023,4.59,1.023,4.59
		c-0.117,0.76-0.369,1.555-1.021,2.26c-0.729,0.781-1.898,1.225-2.547,1.369c0,0-0.934-1.021-3.169-1.021
		C141.197,128.546,140.464,128.626,139.619,128.834z M149.096,177.596c-7.158,0-12.962-5.804-12.962-12.963
		c0-8.826,7.687-15.031,9.421-17.389c3.158-4.295,3.541-7.191,3.541-7.191s7.588,6.34,11.229,15.723
		c1.211,3.117,1.733,5.646,1.733,8.857C162.059,171.792,156.256,177.596,149.096,177.596z"/>
</g>
</svg>
