<?xml version="1.0" encoding="utf-8"?>
<!-- Generator: Adobe Illustrator 15.0.0, SVG Export Plug-In . SVG Version: 6.00 Build 0)  -->
<!DOCTYPE svg PUBLIC "-//W3C//DTD SVG 1.1//EN" "http://www.w3.org/Graphics/SVG/1.1/DTD/svg11.dtd">
<svg version="1.1" xmlns="http://www.w3.org/2000/svg" xmlns:xlink="http://www.w3.org/1999/xlink" x="0px" y="0px" width="200px"
	 height="200px" viewBox="0 0 200 200" enable-background="new 0 0 200 200" xml:space="preserve">
<g id="icon">
	<g id="Layer_2">
	</g>
	<g id="Layer_1_1_">
		<g>
			<g>
				<g>
					
						<ellipse transform="matrix(-0.8306 0.5569 -0.5569 -0.8306 361.3987 218.0751)" fill="#5B5B5B" cx="147.531" cy="164.004" rx="2.249" ry="10.921"/>
					<g>
						
							<linearGradient id="SVGID_1_" gradientUnits="userSpaceOnUse" x1="84.9434" y1="646.7832" x2="106.7194" y2="659.0327" gradientTransform="matrix(-0.9944 0.1057 0.1057 0.9944 84.6052 -624.0448)">
							<stop  offset="0" style="stop-color:#363636"/>
							<stop  offset="0.3742" style="stop-color:#FAFAFA"/>
							<stop  offset="0.6319" style="stop-color:#F7F7F7"/>
							<stop  offset="1" style="stop-color:#303030"/>
						</linearGradient>
						<path fill="url(#SVGID_1_)" d="M72.533,34.53l-5.644-7.928c0,0-5.257-6.298-15.423,1.197c0,0-8.492,5.922-4.111,13.25
							l6.18,8.28l15.111-8.914L72.533,34.53z"/>
						
							<linearGradient id="SVGID_2_" gradientUnits="userSpaceOnUse" x1="88.0835" y1="648.0635" x2="106.5387" y2="658.4449" gradientTransform="matrix(-0.9944 0.1057 0.1057 0.9944 84.6052 -624.0448)">
							<stop  offset="0" style="stop-color:#616161"/>
							<stop  offset="0.1538" style="stop-color:#FAFAFA"/>
							<stop  offset="0.3022" style="stop-color:#FFFFFF"/>
							<stop  offset="0.5055" style="stop-color:#707070"/>
							<stop  offset="1" style="stop-color:#4F4F4F"/>
						</linearGradient>
						<path fill="url(#SVGID_2_)" d="M51.968,27.769c3.686-2.774,6.705-3.641,9.115-3.649c-2.074,0.364-4.492,1.326-7.371,3.444
							c0,0-8.525,5.932-4.041,13.258l5.708,7.667l-1.351,0.776l-6.211-8.273C43.381,33.716,51.968,27.769,51.968,27.769z"/>
						
							<linearGradient id="SVGID_3_" gradientUnits="userSpaceOnUse" x1="40.4956" y1="715.0381" x2="72.0617" y2="731.4781" gradientTransform="matrix(-0.9944 0.1057 0.1057 0.9944 84.6052 -624.0448)">
							<stop  offset="0" style="stop-color:#363636"/>
							<stop  offset="0.3742" style="stop-color:#FAFAFA"/>
							<stop  offset="0.6319" style="stop-color:#F7F7F7"/>
							<stop  offset="1" style="stop-color:#303030"/>
						</linearGradient>
						<path fill="url(#SVGID_3_)" d="M50.275,46.827c2.687-4.808,7.159-8.301,9.565-9.801c1.588-1.521,8.98-5.649,14.354-6.345
							c2.748-0.374,5.047,2.828,5.047,2.828l60.995,87.747c0,0,5.205,8.721,6.263,12.707c1.776,6.617,4.673,30.362,4.673,30.362
							s-1.438,0.325-2.486,1.089c-1.272,0.92-2.121,2.414-2.121,2.414S125.498,156.553,120,152.326
							c-3.37-2.512-9.542-10.561-9.542-10.561L50.695,53.572C50.695,53.572,48.811,48.928,50.275,46.827z"/>
						
							<linearGradient id="SVGID_4_" gradientUnits="userSpaceOnUse" x1="21.6201" y1="751.1348" x2="52.6898" y2="767.3163" gradientTransform="matrix(-0.9944 0.1057 0.1057 0.9944 84.6052 -624.0448)">
							<stop  offset="0" style="stop-color:#004772"/>
							<stop  offset="0.4908" style="stop-color:#47B6F0"/>
							<stop  offset="0.9571" style="stop-color:#00233D"/>
						</linearGradient>
						<path fill="url(#SVGID_4_)" d="M106.54,103.641c13.045-7.646,17.207-6.951,17.207-6.951l16.553,24.549
							c0,0,5.207,8.721,6.278,12.636c1.824,6.672,4.689,30.425,4.689,30.425s-1.521,0.279-2.486,1.089
							c-1.293,0.992-2.139,2.485-2.139,2.485s-21.002-11.293-26.554-15.572c-3.397-2.504-9.541-10.56-9.541-10.56l-15.886-23.104
							C94.664,118.639,96.509,109.51,106.54,103.641z"/>
						
							<linearGradient id="SVGID_5_" gradientUnits="userSpaceOnUse" x1="70.0073" y1="657.7861" x2="101.5079" y2="674.1747" gradientTransform="matrix(-0.9944 0.1057 0.1057 0.9944 84.6052 -624.0448)">
							<stop  offset="0" style="stop-color:#001E32"/>
							<stop  offset="0.1288" style="stop-color:#004772"/>
							<stop  offset="0.5714" style="stop-color:#47B6F0"/>
							<stop  offset="0.9387" style="stop-color:#00233D"/>
						</linearGradient>
						<path fill="url(#SVGID_5_)" d="M48.231,46.765c3.082-5.41,8.062-9.317,10.767-10.972c1.771-1.746,10.083-6.413,16.087-7.144
							c3.069-0.459,5.658,3.17,5.658,3.17l11.067,16.11c0,0,0.051,1.125-1.188,2.301l-1.307-1.873
							c-6.249,1.491-20.195,7.122-27.994,20.937c0,0,1.303,1.429,1.098,1.572c-1.271,0.896-2.176,0.475-2.176,0.475L48.702,54.325
							C48.702,54.325,46.599,49.147,48.231,46.765z"/>
						
							<linearGradient id="SVGID_6_" gradientUnits="userSpaceOnUse" x1="72.8184" y1="659.4043" x2="102.8612" y2="676.3042" gradientTransform="matrix(-0.9944 0.1057 0.1057 0.9944 84.6052 -624.0448)">
							<stop  offset="0" style="stop-color:#004772"/>
							<stop  offset="0.5714" style="stop-color:#47B6F0"/>
							<stop  offset="1" style="stop-color:#00233D"/>
						</linearGradient>
						<path fill="url(#SVGID_6_)" d="M50.583,47.084c2.75-4.827,7.12-8.32,9.533-9.794c1.609-1.566,8.998-5.697,14.409-6.388
							c0.165-0.018,0.412,0.022,0.621,0.032c-5.213,1.047-11.651,4.685-13.16,6.115c-2.396,1.539-6.835,5.021-9.598,9.811
							c-1.414,2.154,0.45,6.733,0.45,6.733l10.48,15.602c-0.32,0.562-0.609,1.118-0.899,1.672l-11.416-17.04
							C51.003,53.827,49.123,49.181,50.583,47.084z"/>
						
							<radialGradient id="SVGID_7_" cx="139.8828" cy="176.709" r="38.2966" gradientTransform="matrix(0.5318 0.8468 -0.3615 0.227 120.6944 -18.2305)" gradientUnits="userSpaceOnUse">
							<stop  offset="0.2454" style="stop-color:#FAFAFA"/>
							<stop  offset="0.3558" style="stop-color:#F7F7F7"/>
							<stop  offset="1" style="stop-color:#303030"/>
						</radialGradient>
						<path fill="url(#SVGID_7_)" d="M120.503,152.555c2.988-5.188,7.828-8.96,10.388-10.65c1.754-1.66,9.805-6.217,15.647-6.932
							c0.073,0.021,0.187,0.059,0.248,0.041c1.771,6.711,4.386,29.312,4.386,29.312s-1.438,0.324-2.486,1.089
							c-1.272,0.92-2.121,2.414-2.121,2.414s-20.494-10.918-26.121-15.119C120.457,152.636,120.486,152.629,120.503,152.555z"/>
					</g>
					<g>
						
							<linearGradient id="SVGID_8_" gradientUnits="userSpaceOnUse" x1="-1244.4268" y1="1195.4736" x2="-1238.0433" y2="1195.4736" gradientTransform="matrix(0.8308 -0.5566 0.5566 0.8308 382.2009 -1578.9209)">
							<stop  offset="0" style="stop-color:#101010"/>
							<stop  offset="0.5714" style="stop-color:#888888"/>
							<stop  offset="1" style="stop-color:#000000"/>
						</linearGradient>
						<path fill="url(#SVGID_8_)" d="M108.727,68.754c2.223,3.088,1.271,7.046-2.123,8.84l0,0
							c-3.396,1.793-7.952,0.745-10.171-2.343l-24.99-32.459c-2.223-3.087-1.27-7.044,2.123-8.839l0,0
							c3.395-1.793,7.949-0.745,10.173,2.342L108.727,68.754z"/>
						
							<linearGradient id="SVGID_9_" gradientUnits="userSpaceOnUse" x1="-1235.3389" y1="1215.3037" x2="-1252.2477" y2="1215.3037" gradientTransform="matrix(0.8116 -0.5842 0.5842 0.8116 388.041 -1657.7791)">
							<stop  offset="0" style="stop-color:#001E32"/>
							<stop  offset="0.1288" style="stop-color:#004772"/>
							<stop  offset="0.5714" style="stop-color:#47B6F0"/>
							<stop  offset="1" style="stop-color:#00233D"/>
						</linearGradient>
						<path fill="url(#SVGID_9_)" d="M109.555,66.472c2.221,3.087,1.272,7.044-2.125,8.839l0,0
							c-3.396,1.792-7.95,0.744-10.173-2.342L72.272,40.508c-2.225-3.086-1.273-7.044,2.123-8.838l0,0
							c3.395-1.794,7.949-0.747,10.172,2.342L109.555,66.472z"/>
					</g>
				</g>
			</g>
		</g>
	</g>
</g>
<g id="outline_x5F_white">
	<g>
		<g>
			<path fill="#FFFFFF" d="M61.083,24.12c-0.021,0.004-0.045,0.009-0.065,0.014c3.885,0.097,5.872,2.469,5.872,2.469l2.521,3.544
				c1.941-0.722,3.908-1.282,5.674-1.497c0.165-0.024,0.328-0.034,0.49-0.034c0.076,0,0.152,0.002,0.228,0.005
				c0.066,0.002,0.13,0.009,0.198,0.016c0.186,0.018,0.369,0.049,0.551,0.09c0.048,0.012,0.097,0.019,0.145,0.033
				c0.219,0.06,0.43,0.135,0.638,0.224c0.057,0.023,0.11,0.051,0.167,0.077c0.158,0.075,0.314,0.153,0.466,0.241
				c0.055,0.032,0.112,0.062,0.165,0.096c0.189,0.115,0.373,0.236,0.547,0.363c0.018,0.013,0.033,0.027,0.051,0.041
				c0.163,0.122,0.317,0.247,0.465,0.373c0.035,0.031,0.07,0.062,0.106,0.093c0.317,0.281,0.591,0.555,0.813,0.796
				c1.324,0.339,2.564,0.99,3.554,1.925c0.014,0.013,0.025,0.028,0.039,0.041c0.147,0.142,0.292,0.288,0.43,0.444
				c0.151,0.172,0.296,0.352,0.431,0.539l24.986,32.46c0.174,0.241,0.32,0.489,0.455,0.738c0.033,0.061,0.062,0.121,0.092,0.182
				c0.112,0.223,0.211,0.45,0.293,0.678c0.01,0.025,0.021,0.05,0.028,0.076c0.587,1.693,0.375,3.475-0.546,4.94
				c-0.135,1.002-0.537,1.961-1.186,2.788l14.465,20.808c0.109-0.006,0.201-0.008,0.279-0.008c0.213,0,0.312,0.016,0.312,0.016
				L140.3,121.24c0,0,5.207,8.721,6.278,12.636c1.822,6.672,4.689,30.425,4.689,30.425s-0.041,0.008-0.099,0.02
				c0,0.003,0.001,0.009,0.001,0.009s-0.266,0.062-0.641,0.188c2.634,4.291,3.994,7.955,3.085,8.563
				c-0.087,0.06-0.192,0.087-0.314,0.087c-1.12,0-3.626-2.398-6.239-5.934c-0.267,0.377-0.418,0.642-0.418,0.642
				s-0.233-0.126-0.646-0.349c-3.321-1.778-20.481-11.027-25.558-14.815c0.004-0.021,0.011-0.026,0.016-0.041
				c-0.16-0.116-0.316-0.231-0.459-0.342c-3.37-2.513-9.542-10.562-9.542-10.562l-7.601-11.216l-8.191-11.911
				c0,0,0.011-0.052,0.029-0.134l-32.278-47.64c-0.654,0.46-1.21,0.572-1.596,0.572c-0.363,0-0.576-0.099-0.576-0.099L48.702,54.325
				c0,0-2.104-5.178-0.471-7.56c0.484-0.849,1.018-1.657,1.578-2.429l-2.454-3.287c-4.381-7.328,4.111-13.25,4.111-13.25
				c3.793-2.796,6.901-3.67,9.308-3.67c0.039,0,0.078,0,0.116,0C60.952,24.128,61.021,24.12,61.083,24.12 M61.431,69.414
				l-0.097-0.141c-0.005,0.007-0.007,0.014-0.013,0.02C61.321,69.293,61.368,69.346,61.431,69.414 M61.083,12.12
				c-0.155,0-0.316,0.003-0.479,0.009c-5.393,0.042-10.821,2.034-16.139,5.924c-8.199,5.799-13.396,16.745-8.43,27.243
				c-1.241,5.528,0.522,11.016,1.55,13.546c0.317,0.779,0.714,1.523,1.187,2.22l11.541,17.015c1.216,1.793,2.896,3.224,4.859,4.139
				c0.188,0.088,0.395,0.178,0.619,0.268l28.165,41.567c0.241,0.479,0.515,0.942,0.822,1.389l8.168,11.877l7.578,11.184
				c0.131,0.193,0.27,0.385,0.412,0.57c2.097,2.732,7.32,9.306,11.51,12.587c0.263,0.231,0.535,0.457,0.818,0.67
				c5.445,4.063,20.742,12.388,27.066,15.776l0.173,0.092c4.33,4.847,8.306,6.972,12.799,6.972c2.507,0,4.925-0.729,6.992-2.116
				c1.993-1.336,8.19-6.502,4.388-16.972c-0.438-1.206-0.977-2.414-1.539-3.556c-0.584-4.807-3.08-24.832-4.988-31.812
				c-1.356-4.961-5.731-12.578-7.551-15.623c-0.111-0.188-0.229-0.374-0.354-0.557l-16.555-24.55
				c-0.674-1.001-1.488-1.885-2.41-2.629l-9.055-13.023c0.821-3.295,0.681-6.796-0.472-10.113c-0.044-0.126-0.088-0.249-0.135-0.372
				c-0.22-0.589-0.472-1.173-0.752-1.739c-0.103-0.208-0.207-0.414-0.319-0.621c-0.391-0.722-0.799-1.376-1.244-2
				c-0.08-0.111-0.162-0.222-0.246-0.331L94.165,26.806c-0.315-0.425-0.655-0.846-1.012-1.253c-0.299-0.339-0.608-0.665-0.947-0.999
				c-0.069-0.07-0.14-0.14-0.211-0.208c-0.028-0.026-0.055-0.053-0.083-0.079c-1.583-1.496-3.421-2.724-5.426-3.635
				c-0.135-0.109-0.27-0.214-0.405-0.317c-0.066-0.052-0.133-0.104-0.202-0.155c-0.041-0.03-0.082-0.061-0.122-0.09
				c-0.426-0.311-0.877-0.612-1.343-0.896c-0.166-0.103-0.336-0.202-0.508-0.299c-0.405-0.231-0.8-0.436-1.253-0.651
				c-0.031-0.015-0.062-0.029-0.092-0.043c-0.19-0.09-0.378-0.174-0.569-0.254c-0.694-0.294-1.407-0.542-2.119-0.737
				c-0.293-0.081-0.541-0.137-0.729-0.177c-0.631-0.141-1.271-0.245-1.905-0.31c-0.22-0.023-0.541-0.053-0.928-0.069
				c-0.244-0.011-0.489-0.016-0.735-0.016c-0.58,0-1.158,0.032-1.723,0.095c-2.719-2.215-6.659-4.153-11.442-4.519
				C61.973,12.144,61.531,12.12,61.083,12.12L61.083,12.12z"/>
		</g>
	</g>
</g>
<g id="outline_x5F_black">
	<g>
		<path d="M61.083,24.12c-0.021,0.004-0.045,0.009-0.065,0.014c3.885,0.097,5.872,2.469,5.872,2.469l2.521,3.544
			c1.941-0.722,3.908-1.282,5.674-1.497c0.165-0.024,0.328-0.034,0.49-0.034c0.077,0,0.152,0.002,0.228,0.005
			c0.066,0.002,0.13,0.009,0.198,0.016c0.186,0.018,0.369,0.049,0.551,0.09c0.048,0.012,0.097,0.019,0.145,0.033
			c0.219,0.06,0.43,0.135,0.638,0.224c0.057,0.023,0.11,0.051,0.167,0.077c0.158,0.075,0.314,0.153,0.466,0.241
			c0.055,0.032,0.112,0.062,0.165,0.096c0.189,0.115,0.373,0.236,0.547,0.363c0.018,0.013,0.033,0.027,0.051,0.041
			c0.163,0.122,0.317,0.247,0.465,0.373c0.035,0.031,0.07,0.062,0.106,0.093c0.317,0.281,0.591,0.555,0.813,0.796
			c1.324,0.339,2.564,0.99,3.554,1.925c0.014,0.013,0.025,0.028,0.039,0.041c0.147,0.142,0.292,0.288,0.43,0.444
			c0.151,0.172,0.296,0.352,0.431,0.539l24.986,32.46c0.174,0.241,0.32,0.489,0.455,0.738c0.033,0.061,0.062,0.121,0.092,0.182
			c0.112,0.223,0.211,0.45,0.293,0.678c0.01,0.025,0.021,0.05,0.028,0.076c0.587,1.693,0.375,3.475-0.546,4.94
			c-0.135,1.002-0.537,1.961-1.186,2.788l14.465,20.808c0.109-0.006,0.201-0.008,0.279-0.008c0.213,0,0.312,0.016,0.312,0.016
			L140.3,121.24c0,0,5.207,8.721,6.278,12.636c1.822,6.672,4.689,30.425,4.689,30.425s-0.041,0.008-0.099,0.02
			c0,0.003,0.001,0.009,0.001,0.009s-0.266,0.062-0.641,0.188c2.634,4.291,3.994,7.955,3.085,8.563
			c-0.087,0.06-0.192,0.087-0.314,0.087c-1.12,0-3.626-2.398-6.239-5.934c-0.267,0.377-0.418,0.642-0.418,0.642
			s-0.233-0.126-0.646-0.349c-3.321-1.778-20.481-11.027-25.558-14.815c0.004-0.021,0.011-0.026,0.016-0.041
			c-0.16-0.116-0.316-0.231-0.459-0.342c-3.37-2.513-9.542-10.562-9.542-10.562l-7.601-11.216l-8.191-11.911
			c0,0,0.011-0.052,0.029-0.134l-32.278-47.64c-0.654,0.46-1.21,0.572-1.596,0.572c-0.363,0-0.576-0.099-0.576-0.099L48.702,54.325
			c0,0-2.104-5.178-0.471-7.56c0.484-0.849,1.018-1.657,1.578-2.429l-2.454-3.287c-4.381-7.328,4.111-13.25,4.111-13.25
			c3.793-2.796,6.901-3.67,9.308-3.67c0.039,0,0.078,0,0.116,0C60.952,24.128,61.021,24.12,61.083,24.12 M61.431,69.414
			l-0.097-0.141c-0.005,0.007-0.007,0.014-0.013,0.02C61.321,69.293,61.368,69.346,61.431,69.414 M61.083,18.12
			c-0.109,0-0.223,0.003-0.338,0.009c-4.152,0.007-8.451,1.621-12.778,4.797C43.44,26.117,36.5,34.582,42.206,44.127l0.158,0.264
			l0.184,0.246l0.007,0.01c-2.042,4.371-0.319,9.703,0.588,11.936l0.238,0.586l0.355,0.524l11.541,17.015l0.929,1.37l1.5,0.7
			c0.434,0.203,1.057,0.431,1.844,0.56l28.747,42.426l-0.031,0.148l1.454,2.127l8.192,11.912l7.577,11.181l0.099,0.146l0.107,0.142
			c0.888,1.158,4.723,6.089,8.188,9.495l-0.066,0.337l3.037,2.269c5.264,3.93,21.471,12.701,26.312,15.297l0.64,0.345l0.506,0.271
			c4.226,4.99,6.903,5.735,8.994,5.735c1.312,0,2.575-0.381,3.65-1.103c4.971-3.33,2.613-9.625,0.361-13.82l-0.092-0.662
			c-0.299-2.477-2.974-24.391-4.858-31.288c-1.228-4.479-5.976-12.556-6.914-14.13l-0.084-0.143l-0.095-0.138l-16.553-24.549
			l-1.459-2.166l-0.709-0.112L115.559,75.24c0.006-0.027,0.015-0.055,0.021-0.082c1.354-2.784,1.548-5.991,0.513-8.978
			c-0.02-0.058-0.049-0.138-0.079-0.223c-0.152-0.411-0.328-0.818-0.525-1.212c-0.067-0.141-0.139-0.281-0.215-0.421
			c-0.256-0.473-0.537-0.925-0.84-1.348l-0.061-0.083l-0.062-0.081L89.372,30.417c-0.223-0.304-0.467-0.607-0.727-0.903
			c-0.212-0.241-0.428-0.468-0.68-0.713c-0.044-0.045-0.089-0.09-0.134-0.134l-0.021-0.02l-0.021-0.02
			c-1.28-1.21-2.807-2.17-4.482-2.827c-0.009-0.008-0.019-0.017-0.028-0.025l-0.026-0.023l-0.026-0.023l-0.049-0.042l-0.034-0.03
			l-0.061-0.053c-0.214-0.183-0.438-0.364-0.672-0.542c-0.044-0.035-0.088-0.068-0.133-0.103l-0.03-0.022l-0.03-0.022
			c-0.297-0.217-0.616-0.429-0.946-0.63c-0.102-0.063-0.207-0.124-0.312-0.184c-0.348-0.201-0.67-0.358-0.882-0.459l-0.06-0.028
			l-0.019-0.008c-0.114-0.054-0.224-0.104-0.335-0.15c-0.451-0.191-0.912-0.352-1.37-0.478c-0.141-0.039-0.282-0.073-0.424-0.103
			c-0.418-0.095-0.842-0.164-1.26-0.206c-0.188-0.02-0.366-0.034-0.55-0.042c-0.161-0.007-0.322-0.011-0.484-0.011
			c-0.443,0-0.863,0.028-1.281,0.086c-0.793,0.099-1.625,0.25-2.495,0.451l-0.021-0.029l-0.138-0.193l-0.152-0.182
			c-0.623-0.743-4.046-4.458-10.322-4.614l-0.017,0.676L61.083,18.12L61.083,18.12z"/>
	</g>
</g>
</svg>
