<?xml version="1.0" encoding="utf-8"?>
<!-- Generator: Adobe Illustrator 15.0.0, SVG Export Plug-In . SVG Version: 6.00 Build 0)  -->
<!DOCTYPE svg PUBLIC "-//W3C//DTD SVG 1.1//EN" "http://www.w3.org/Graphics/SVG/1.1/DTD/svg11.dtd">
<svg version="1.1" xmlns="http://www.w3.org/2000/svg" xmlns:xlink="http://www.w3.org/1999/xlink" x="0px" y="0px" width="200px"
	 height="200px" viewBox="0 0 200 200" enable-background="new 0 0 200 200" xml:space="preserve">
<g id="icon">
	<g id="Layer_2">
	</g>
	<g id="Layer_1_1_">
		<g>
			<ellipse cx="134.975" cy="101.854" rx="11.5" ry="8.167"/>
			<g>
				<g>
					
						<radialGradient id="SVGID_1_" cx="148.916" cy="-40.2627" r="65.2768" gradientTransform="matrix(1 0 0 -1 -50 61)" gradientUnits="userSpaceOnUse">
						<stop  offset="0" style="stop-color:#E1AC62"/>
						<stop  offset="1" style="stop-color:#4C2800"/>
					</radialGradient>
					<path fill="url(#SVGID_1_)" d="M158.052,74.283c-12.821-26.69-37.663-43.339-69.017-39.103
						c-35.8,4.839-59.429,38.362-52.778,74.878c6.651,36.518,41.064,62.196,76.863,57.356c31.473-4.253-7.06-31.472,1.942-41.582
						c7.592-8.526,17.097-5.226,29.174-7.401C169.775,113.826,162.906,84.39,158.052,74.283z M131.4,112.095
						c-4.672,0.632-9.164-2.72-10.031-7.483c-0.868-4.767,2.217-9.142,6.89-9.772c4.671-0.631,9.162,2.721,10.029,7.484
						C139.156,107.089,136.072,111.465,131.4,112.095z"/>
				</g>
				
					<linearGradient id="SVGID_2_" gradientUnits="userSpaceOnUse" x1="128.8047" y1="51.0244" x2="193.47" y2="-196.9705" gradientTransform="matrix(1 0 0 -1 -50 61)">
					<stop  offset="0" style="stop-color:#FAC781"/>
					<stop  offset="1" style="stop-color:#895622"/>
				</linearGradient>
				<path fill="url(#SVGID_2_)" d="M159.932,70.783c-12.822-26.69-37.664-43.339-69.017-39.103
					c-35.799,4.84-59.429,38.363-52.778,74.88c6.651,36.517,41.064,62.195,76.864,57.355c31.472-4.253-7.062-31.473,1.94-41.582
					c7.593-8.527,17.098-5.225,29.176-7.402C171.657,110.326,164.786,80.89,159.932,70.783z M133.281,108.595
					c-4.674,0.632-9.164-2.72-10.032-7.483c-0.867-4.767,2.217-9.142,6.89-9.772c4.672-0.631,9.162,2.721,10.03,7.484
					C141.036,103.589,137.952,107.965,133.281,108.595z"/>
				
					<radialGradient id="SVGID_3_" cx="-116.0791" cy="-287.2832" r="66.2349" gradientTransform="matrix(0.9782 -0.1322 -0.1817 -0.9977 122.4077 -184.7736)" gradientUnits="userSpaceOnUse">
					<stop  offset="0" style="stop-color:#E1AC62"/>
					<stop  offset="1" style="stop-color:#4C2800"/>
				</radialGradient>
				<path opacity="0.49" fill="url(#SVGID_3_)" enable-background="new    " d="M73.644,66.687c0,0,3.682,18.145,6.25,29.136
					c2.31,9.891,4.002,18.87,4.002,18.87s-2.543-14.837-3.553-19.507c-2.764-12.773-2.495-11.85-6.158-29.148L73.644,66.687z"/>
				
					<radialGradient id="SVGID_4_" cx="-1645.6084" cy="-292.9316" r="90.386" gradientTransform="matrix(0.5116 -0.0691 -0.1817 -0.9977 852.8408 -283.192)" gradientUnits="userSpaceOnUse">
					<stop  offset="0" style="stop-color:#E1AC62"/>
					<stop  offset="1" style="stop-color:#4C2800"/>
				</radialGradient>
				<path opacity="0.49" fill="url(#SVGID_4_)" enable-background="new    " d="M69.855,68.641c0,0,2.485,12.588,5.741,28.437
					c3.256,15.847,4.618,23.734,4.618,23.734l0.294,0.393c0,0-1.808-11.143-5.233-27.11c-3.425-15.969-4.854-25.434-4.854-25.434
					L69.855,68.641z"/>
				
					<radialGradient id="SVGID_5_" cx="-121.7861" cy="-216.415" r="51.423" gradientTransform="matrix(0.9782 -0.1322 -0.1817 -0.9977 122.4077 -184.7736)" gradientUnits="userSpaceOnUse">
					<stop  offset="0" style="stop-color:#E1AC62"/>
					<stop  offset="1" style="stop-color:#4C2800"/>
				</radialGradient>
				<polygon opacity="0.49" fill="url(#SVGID_5_)" enable-background="new    " points="70.421,50.018 69.64,42.628 71.306,49.707 
									"/>
				
					<radialGradient id="SVGID_6_" cx="-104.6523" cy="-220.4624" r="11.5277" gradientTransform="matrix(0.9782 -0.1322 -0.1817 -0.9977 122.4077 -184.7736)" gradientUnits="userSpaceOnUse">
					<stop  offset="0" style="stop-color:#E1AC62"/>
					<stop  offset="1" style="stop-color:#4C2800"/>
				</radialGradient>
				<polygon opacity="0.49" fill="url(#SVGID_6_)" enable-background="new    " points="66.87,53.284 65.032,42.674 67.278,52.941 
									"/>
				<g>
					
						<linearGradient id="SVGID_7_" gradientUnits="userSpaceOnUse" x1="169.8838" y1="9.4678" x2="285.8838" y2="-254.5323" gradientTransform="matrix(1 0 0 -1 -50 61)">
						<stop  offset="0" style="stop-color:#FAC28D"/>
						<stop  offset="1" style="stop-color:#7C5320"/>
					</linearGradient>
					<path fill="url(#SVGID_7_)" d="M143.422,48.416c0,0-7.113-5.957-13.579-8.351c0,0,2.617,15.407,3.175,25.708
						c0.153,2.827,0.391,6.034,0.651,9.198c-0.78-5.288-2.338-15.911-3.021-21.176c-0.931-7.179-1.608-14.006-1.608-14.006
						l-1.997-1.651l0.797,11.616c0,0-0.797-11.616-2.506-12.73c-1.711-1.114-5.914-2.469-5.914-2.469s2.079,14.518,2.539,21.184
						c0.459,6.664,0.891,10.063,0.891,10.063s-0.674-1.639-1.07-4.852c-0.397-3.213-2.223-25.645-3.495-26.434
						c-1.275-0.789-8.892-2.258-8.892-2.258l0.56,2.039c0,0,6.013,33.012,6.636,38.501c0.624,5.488,0.775,10.465,2.124,22.006
						c1.349,11.542,4.631,21.283,4.631,21.283c2.771-1.336,12.941-1.365,12.941-1.365l-1.312-6.164l-1.84,0.25l0.486,4.737
						l-1.406-4.614c0,0-2.921,0.791-7.488-3.977c-4.565-4.766-3.978-11.387,2.07-13.357c6.047-1.971,7.709-0.08,7.709-0.08
						l-0.281-10.311c0.533,5.736,1.02,10.211,1.02,10.211s3.753,1.99,4.347,4.217c0.595,2.226-2.437-34.072-2.437-34.072
						s3.23,32.234,3.377,35.097c0.146,2.863,2.007,17.218,2.007,17.218l-2.697-9.628c0,0-0.394,1.975-2.129,2.785
						c-1.735,0.812-1.968,1.611-1.968,1.611l1.093,6.002c0,0,4.549,0.153,7.791-0.668c3.242-0.822,5.196-1.472,5.196-1.472
						s-3.021-20.732-4.016-31.361C144.811,70.521,143.422,48.416,143.422,48.416z"/>
					
						<linearGradient id="SVGID_8_" gradientUnits="userSpaceOnUse" x1="136.0908" y1="-5.3799" x2="252.0908" y2="-269.3797" gradientTransform="matrix(1 0 0 -1 -50 61)">
						<stop  offset="0" style="stop-color:#FAC28D"/>
						<stop  offset="1" style="stop-color:#7C5320"/>
					</linearGradient>
					<path fill="url(#SVGID_8_)" d="M114.637,128.08c-0.111-0.453-0.265-0.695-0.449-0.775l0.715-1.063
						c0,0-4.879-22.242-6.074-31.905c-1.195-9.665-8.029-51.843-8.029-51.843s5.266,21.157,6.637,33.332
						c1.369,12.176,7.629,48.094,7.629,48.094l6.078-7.83c0,0-2.506-11.353-3.317-22.018s-6.072-59.714-11.433-61.208
						c-5.358-1.494-17.708-0.55-18.705,1.261c-1.135,2.054,8.154,45.804,8.154,45.804c-0.107-1.059-0.258-2.544-0.438-4.312
						l3.553,27.627c0,0-6.461-32.374-7.781-40.652c-1.32-8.278-6.834-29.25-6.834-29.25s-12.879,4.816-13.789,7.053
						c0,0,2.387,16.206,5.269,30.998c2.883,14.794,9.468,48.88,10.118,52.445c0.648,3.562,6.131,37.8,6.131,37.8
						s7.502,1.869,9.006,1.858c1.506-0.012-10.363-64.135-10.363-64.135s3.538,15.282,5.861,28.036
						c2.322,12.756,5.754,35.737,5.754,35.737s6.644,0.257,9.366-0.305s-5.745-28.437-8.444-43.254
						c-2.58-14.164-7.453-41.867-7.879-44.289c-1.212-11.94-3.693-36.313-3.693-36.313s2.906,9.75,4.164,21.306
						c1.258,11.558,13.741,73.891,13.741,73.891l1.413-2.104c-0.474,1.106-0.796,1.971-0.796,1.971s-0.274,7.699,0.701,14.102
						c0.979,6.402,2.147,14.893,2.147,14.893s6.606,0.068,9.575-2.256c2.969-2.322,6.407-4.133,2.479-12.25
						C121.176,140.402,115.518,131.666,114.637,128.08z"/>
					
						<linearGradient id="SVGID_9_" gradientUnits="userSpaceOnUse" x1="184.3428" y1="15.8193" x2="300.3409" y2="-248.1763" gradientTransform="matrix(1 0 0 -1 -50 61)">
						<stop  offset="0" style="stop-color:#FAC28D"/>
						<stop  offset="1" style="stop-color:#7C5320"/>
					</linearGradient>
					<path fill="url(#SVGID_9_)" d="M156.756,66.793c-3.505-6.831-12.474-16.766-12.474-16.766
						c-1.453,9.615,6.424,62.168,6.424,62.168s1.955-0.647,5.624-3.258s4.41-5.785,4.41-5.785l-2.008-8.952l2.605,8.104
						c0,0,1.139,0.038,1.785-9.852C163.773,82.564,160.262,73.622,156.756,66.793z"/>
					
						<linearGradient id="SVGID_10_" gradientUnits="userSpaceOnUse" x1="-3153.6758" y1="41.3291" x2="-3037.6711" y2="-222.6815" gradientTransform="matrix(-0.9645 0.2643 -0.3818 -1.3933 -2971.6748 948.3052)">
						<stop  offset="0" style="stop-color:#FAC28D"/>
						<stop  offset="1" style="stop-color:#7C5320"/>
					</linearGradient>
					<path fill="url(#SVGID_10_)" d="M39.475,85.021c0.772-10.445,8.962-25.185,8.962-25.185
						c5.07,13.014,17.539,88.323,17.539,88.323s-1.966-2.14-6.501-4.806c-4.535-2.668-5.978-7.334-5.978-7.334l-2.135-10.816
						l0.215,9.316c0,0-3.311-3.019-7.769-13.316C38.126,108.078,38.702,95.462,39.475,85.021z"/>
					
						<linearGradient id="SVGID_11_" gradientUnits="userSpaceOnUse" x1="111.0762" y1="-16.3721" x2="227.0763" y2="-280.3724" gradientTransform="matrix(1 0 0 -1 -50 61)">
						<stop  offset="0" style="stop-color:#FAC28D"/>
						<stop  offset="1" style="stop-color:#7C5320"/>
					</linearGradient>
					<path fill="url(#SVGID_11_)" d="M85.429,124.143l-1.274-5.449c0,0-10.21-49.067-12.603-61.428
						c-2.393-12.36-2.539-17.818-2.539-17.818l-3.479,2.632c1.342,5.262,12.375,65.022,14.588,77.024
						c-1.166-5.028-2.045-8.938-2.329-10.504c-1.179-6.472-8.015-38.314-8.015-38.314s-2.205,1.063-2.212,3.373
						c-0.022,7.114,4.604,23.21,4.604,23.21s-4.679-12.245-5.21-24.472c-0.107-2.445,2.41-2.911,2.299-4.444
						c-0.371-5.139-4.611-25.321-4.611-25.321l-5.178,4.158l1.613,15.062l-2.562-14.068c0,0-3.126,3.018-3.696,4.537
						c-0.571,1.518,0.218,4.294,0.218,4.294l-1.494-3.546c0,0-1.521,2.511-3.145,4.46c-1.624,1.95,7.38,40.515,7.38,40.515
						l4.435,3.148l-2.797-14.323l6.48,28.336L62.475,102.6l-4.333-2.587l6.002,28.306l3.741,20.539l1.771,3.508
						c0,0,6.766,4.562,9.729,5.314c2.748,0.698-8.074-46.878-9.67-53.835c1.316,5.726,8.889,38.683,9.637,42.789
						c0.82,4.502,1.67,12.267,1.67,12.267l9.268,2.783c0,0-5.939-24.466-9.66-40.406L85.429,124.143z"/>
				</g>
				
					<radialGradient id="SVGID_12_" cx="-1187.563" cy="-226.4951" r="40.0845" gradientTransform="matrix(0.5961 -0.0806 -0.1817 -0.9977 707.0802 -264.1462)" gradientUnits="userSpaceOnUse">
					<stop  offset="0" style="stop-color:#E1AC62"/>
					<stop  offset="1" style="stop-color:#4C2800"/>
				</radialGradient>
				<path opacity="0.49" fill="url(#SVGID_12_)" enable-background="new    " d="M49.656,58.975c0,0,1.517,9.596,2.679,15.973
					c1.162,6.378,1.162,6.378,1.162,6.378l-0.526,0.263C52.971,81.588,49.745,62.614,49.656,58.975z"/>
				
					<radialGradient id="SVGID_13_" cx="-133.0425" cy="-290.4082" r="84.4132" gradientTransform="matrix(0.9782 -0.1322 -0.1817 -0.9977 122.4077 -184.7736)" gradientUnits="userSpaceOnUse">
					<stop  offset="0" style="stop-color:#E1AC62"/>
					<stop  offset="1" style="stop-color:#4C2800"/>
				</radialGradient>
				<path fill="url(#SVGID_13_)" d="M70.078,118.482c0.415-0.825-1.526-14.592-1.526-14.592l2.446,14.467L70.078,118.482z"/>
				
					<radialGradient id="SVGID_14_" cx="-146.8994" cy="-302.2373" r="98.4913" gradientTransform="matrix(0.9782 -0.1322 -0.1817 -0.9977 122.4077 -184.7736)" gradientUnits="userSpaceOnUse">
					<stop  offset="0" style="stop-color:#E1AC62"/>
					<stop  offset="1" style="stop-color:#4C2800"/>
				</radialGradient>
				<polygon opacity="0.49" fill="url(#SVGID_14_)" enable-background="new    " points="58.519,104.67 63.901,130.079 
					63.671,130.879 58.036,105.119 				"/>
				
					<radialGradient id="SVGID_15_" cx="54.8975" cy="204.2393" r="23.8086" gradientTransform="matrix(0.214 0.9928 1.0023 -0.1704 -161.2285 58.6075)" gradientUnits="userSpaceOnUse">
					<stop  offset="0" style="stop-color:#0DA0F8"/>
					<stop  offset="0.4663" style="stop-color:#08A4FF"/>
					<stop  offset="0.5379" style="stop-color:#079FF6"/>
					<stop  offset="0.653" style="stop-color:#0690DF"/>
					<stop  offset="0.7973" style="stop-color:#0479B8"/>
					<stop  offset="0.9636" style="stop-color:#015984"/>
					<stop  offset="1" style="stop-color:#005177"/>
				</radialGradient>
				<path fill="url(#SVGID_15_)" stroke="#2B5890" d="M51.694,82.722c0,0,4.469-4.17,8.652,0.857
					c4.184,5.028,6.008,1.987,8.221,6.951c2.211,4.966,2.143,13.12-4.587,12.056s-9.699,9.145-13.437,5.371
					c-3.737-3.771-2.281-10.57-2.281-10.57S43.976,79.816,51.694,82.722z"/>
				
					<radialGradient id="SVGID_16_" cx="43.9849" cy="273.2119" r="23.6937" gradientTransform="matrix(0.0275 1.0061 1.0917 0.0268 -227.8962 -0.5012)" gradientUnits="userSpaceOnUse">
					<stop  offset="0" style="stop-color:#FFE300"/>
					<stop  offset="1" style="stop-color:#F7941E"/>
				</radialGradient>
				<path fill="url(#SVGID_16_)" stroke="#BD7200" d="M81.157,51.431c0,0-6.74-13.518-13.549-2.943
					c-6.814,10.576-4.701,3.606-8.309,6.663c-3.607,3.058,0.914,17.789,8.407,15.089c7.495-2.701,6.716,3.219,10.708-3.376
					C82.405,60.27,90.2,57.248,81.157,51.431z"/>
				
					<radialGradient id="SVGID_17_" cx="41.8169" cy="470.6963" r="17.6329" gradientTransform="matrix(0.1893 1.2446 1.0711 -0.0933 -404.9666 28.8192)" gradientUnits="userSpaceOnUse">
					<stop  offset="0" style="stop-color:#FF8177"/>
					<stop  offset="0.0692" style="stop-color:#FF635B"/>
					<stop  offset="0.1653" style="stop-color:#FF3F3A"/>
					<stop  offset="0.2626" style="stop-color:#FF2421"/>
					<stop  offset="0.3602" style="stop-color:#FF100F"/>
					<stop  offset="0.4585" style="stop-color:#FF0404"/>
					<stop  offset="0.5583" style="stop-color:#FF0000"/>
					<stop  offset="0.6219" style="stop-color:#F60000"/>
					<stop  offset="0.725" style="stop-color:#DE0000"/>
					<stop  offset="0.8549" style="stop-color:#B70000"/>
					<stop  offset="1" style="stop-color:#830000"/>
				</radialGradient>
				<path fill="url(#SVGID_17_)" stroke="#861E2D" d="M104.852,38.362c0,0-6.31-1.536-5.657,4.11
					c0.65,5.647,0.057,8.593-1.611,9.775c-1.67,1.181-0.621,4.864,4.895,4.118c5.518-0.746,8.801,6.934,13.439,3.44
					c4.639-3.494,9.363-6.521,3.025-12.355S111.923,37.885,104.852,38.362z"/>
				
					<radialGradient id="SVGID_18_" cx="69.5151" cy="152.9668" r="15.0183" gradientTransform="matrix(0.2413 0.9877 0.9803 -0.1961 -92.8835 82.5634)" gradientUnits="userSpaceOnUse">
					<stop  offset="0" style="stop-color:#96DC00"/>
					<stop  offset="1" style="stop-color:#366100"/>
				</radialGradient>
				<path fill="url(#SVGID_18_)" stroke="#006838" d="M84.697,123.232c0,0-16.093-9.74-18.935-0.517
					c-2.842,9.224-1.774,17.151,5.35,16.958c7.125-0.193,14.521,1.111,13.66-5.689C83.91,127.184,93.188,130.541,84.697,123.232z"/>
			</g>
		</g>
	</g>
</g>
<g id="outline_x5F_white">
	<g>
		<g>
			<path fill="#FFFFFF" d="M100.502,31.024c26.814,0,47.943,15.851,59.43,39.759c3.504,7.293,8.051,24.648,0.719,35.479
				c-2.461,5.848-7.424,10.549-16.412,12.17c-11.788,2.127-21.125-0.964-28.623,6.814c-1.34,9.471,18.15,26.543,9.969,34.681
				c-0.689,3.614-4.109,6.36-12.463,7.489c-2.917,0.395-5.818,0.586-8.703,0.586c-32.514,0-62.051-24.4-68.16-57.941
				c-2.947-16.182,0.061-31.768,7.428-44.537c8.848-17.854,25.871-30.956,47.23-33.843C94.184,31.239,97.381,31.024,100.502,31.024
				 M132.145,108.671c0.377,0,0.756-0.024,1.138-0.076c1.97-0.266,3.651-1.202,4.88-2.549c0.299-1.169,0.363-2.43,0.127-3.724
				c-0.797-4.376-4.652-7.562-8.896-7.562c-0.375,0-0.754,0.025-1.134,0.076c-1.971,0.267-3.653,1.204-4.882,2.551
				c-0.3,1.168-0.363,2.429-0.128,3.721C124.047,105.486,127.9,108.671,132.145,108.671 M100.502,19.024
				c-3.674,0-7.44,0.257-11.194,0.764C77.038,21.447,65.357,26.12,55.529,33.3c-9.403,6.87-17.151,16.046-22.427,26.555
				c-8.89,15.593-11.963,34.17-8.651,52.354c3.436,18.865,13.469,36.116,28.25,48.574c14.703,12.393,33.069,19.218,51.715,19.218
				c3.436,0,6.904-0.233,10.311-0.694c13.674-1.848,19.397-7.918,21.66-13.699c2.53-3.737,4.641-9.729,1.969-18.189
				c-1.496-4.741-4.097-9.167-6.609-13.445c-0.423-0.721-0.904-1.539-1.387-2.381c1.065-0.08,2.332-0.143,3.853-0.207
				c3.562-0.15,7.597-0.32,12.155-1.144c14.648-2.642,21.592-11.161,24.871-18.257c9.71-15.602,3.996-37.058-0.489-46.396
				c-6.688-13.919-16.358-25.511-27.967-33.525C130.425,23.533,115.805,19.024,100.502,19.024L100.502,19.024z"/>
		</g>
	</g>
</g>
<g id="outline_x5F_black">
	<g>
		<path d="M100.502,31.024c26.814,0,47.943,15.851,59.43,39.759c3.504,7.293,8.051,24.648,0.719,35.479
			c-2.461,5.848-7.424,10.549-16.412,12.17c-11.788,2.127-21.125-0.964-28.623,6.814c-1.34,9.471,18.15,26.543,9.969,34.681
			c-0.689,3.614-4.109,6.36-12.463,7.489c-2.917,0.395-5.818,0.586-8.703,0.586c-32.514,0-62.051-24.4-68.16-57.941
			c-2.947-16.182,0.061-31.768,7.428-44.537c8.848-17.854,25.871-30.956,47.23-33.843C94.184,31.239,97.381,31.024,100.502,31.024
			 M132.145,108.671c0.377,0,0.756-0.024,1.138-0.076c1.97-0.266,3.651-1.202,4.88-2.549c0.299-1.169,0.363-2.43,0.127-3.724
			c-0.797-4.376-4.652-7.562-8.896-7.562c-0.375,0-0.754,0.025-1.134,0.076c-1.971,0.267-3.653,1.204-4.882,2.551
			c-0.3,1.168-0.363,2.429-0.128,3.721C124.047,105.486,127.9,108.671,132.145,108.671 M100.502,25.024
			c-3.406,0-6.902,0.239-10.39,0.71c-11.284,1.525-22.019,5.816-31.043,12.41C50.39,44.486,43.244,52.97,38.394,62.689
			c-8.253,14.397-11.109,31.593-8.04,48.445c3.187,17.496,12.497,33.5,26.214,45.062c13.623,11.482,30.616,17.807,47.849,17.807
			c3.168,0,6.366-0.216,9.507-0.641c9.411-1.271,15.146-4.81,17.085-10.523c6.124-7.852,0.06-18.176-4.437-25.827
			c-1.547-2.634-3.91-6.655-4.735-9.202c2.903-1.928,6.461-2.18,12.121-2.418c3.37-0.144,7.188-0.305,11.344-1.055
			c12.361-2.229,18.042-9.383,20.646-15.208c7.988-12.451,4.058-31.232-0.606-40.942c-6.237-12.98-15.216-23.764-25.968-31.186
			C127.861,29.054,114.783,25.024,100.502,25.024L100.502,25.024z M129.377,100.762c0.006,0,0.012,0,0.016,0
			c1.17,0,2.271,0.795,2.769,1.909c-0.005,0-0.011,0-0.017,0C130.979,102.671,129.874,101.876,129.377,100.762L129.377,100.762z"/>
	</g>
</g>
</svg>
