<?xml version="1.0" encoding="utf-8"?>
<!-- Generator: Adobe Illustrator 15.0.0, SVG Export Plug-In . SVG Version: 6.00 Build 0)  -->
<!DOCTYPE svg PUBLIC "-//W3C//DTD SVG 1.1//EN" "http://www.w3.org/Graphics/SVG/1.1/DTD/svg11.dtd">
<svg version="1.1" xmlns="http://www.w3.org/2000/svg" xmlns:xlink="http://www.w3.org/1999/xlink" x="0px" y="0px" width="200px"
	 height="200px" viewBox="0 0 200 200" enable-background="new 0 0 200 200" xml:space="preserve">
<g id="icon">
	<g id="Layer_2">
	</g>
	<g id="Layer_1_1_">
		<g>
			<g>
				
					<linearGradient id="SVGID_1_" gradientUnits="userSpaceOnUse" x1="-237.9473" y1="-210.7705" x2="-270.8508" y2="-211.7383" gradientTransform="matrix(0.9718 -0.2356 -0.2356 -0.9718 282.827 -161.5231)">
					<stop  offset="0" style="stop-color:#FF95CD"/>
					<stop  offset="0.1674" style="stop-color:#F690C7"/>
					<stop  offset="0.4388" style="stop-color:#DE82B7"/>
					<stop  offset="0.7785" style="stop-color:#B76C9C"/>
					<stop  offset="1" style="stop-color:#9A5B88"/>
				</linearGradient>
				<path fill="url(#SVGID_1_)" d="M161.271,104.373c-2.121-5.72-5.147-11.164-7.231-13.802l-42.997-54.422
					c-6.723-8.508-19.442-11.845-28.413-7.463L44.463,46.494c-2.8,1.368-5.75,3.583-7.116,5.889
					c-1.828,2.918-4.467,7.891-2.378,15.735c2.467,9.263,5.296,20.9,6.238,23.851c1.34,4.193,2.689,9.37,6.029,13.715l39.751,58.012
					c6.682,8.695,19.396,12.065,28.396,7.529l30.266-14.312c7.066-4.031,21.944-27.393,19.972-36.203
					C165.62,120.708,163.82,111.132,161.271,104.373z"/>
				
					<linearGradient id="SVGID_2_" gradientUnits="userSpaceOnUse" x1="-191.5293" y1="-212.1201" x2="-174.3466" y2="-212.5698" gradientTransform="matrix(0.9718 -0.2356 -0.2356 -0.9718 282.827 -161.5231)">
					<stop  offset="0" style="stop-color:#FF95CD;stop-opacity:0"/>
					<stop  offset="0.1674" style="stop-color:#F690C7;stop-opacity:0.1674"/>
					<stop  offset="0.4388" style="stop-color:#DE82B7;stop-opacity:0.4388"/>
					<stop  offset="0.7785" style="stop-color:#B76C9C;stop-opacity:0.7785"/>
					<stop  offset="1" style="stop-color:#9A5B88"/>
				</linearGradient>
				<path fill="url(#SVGID_2_)" d="M161.271,104.373c-2.121-5.72-5.147-11.164-7.231-13.802l-42.997-54.422
					c-6.723-8.508-19.442-11.845-28.413-7.463L44.463,46.494c-2.8,1.368-5.75,3.583-7.116,5.889
					c-1.828,2.918-4.467,7.891-2.378,15.735c2.467,9.263,5.296,20.9,6.238,23.851c1.34,4.193,2.689,9.37,6.029,13.715l39.751,58.012
					c6.682,8.695,19.396,12.065,28.396,7.529l30.266-14.312c7.066-4.031,21.944-27.393,19.972-36.203
					C165.62,120.708,163.82,111.132,161.271,104.373z"/>
				
					<linearGradient id="SVGID_3_" gradientUnits="userSpaceOnUse" x1="-186.998" y1="-251.7197" x2="-211.4725" y2="-232.9481" gradientTransform="matrix(0.9718 -0.2356 -0.2356 -0.9718 282.827 -161.5231)">
					<stop  offset="0" style="stop-color:#FFCFE2;stop-opacity:0.7"/>
					<stop  offset="0.0846" style="stop-color:#FFBFDC;stop-opacity:0.6408"/>
					<stop  offset="0.2252" style="stop-color:#FFADD6;stop-opacity:0.5423"/>
					<stop  offset="0.3898" style="stop-color:#FF9FD1;stop-opacity:0.4272"/>
					<stop  offset="0.5987" style="stop-color:#FF97CE;stop-opacity:0.2809"/>
					<stop  offset="1" style="stop-color:#FF95CD;stop-opacity:0"/>
				</linearGradient>
				<path fill="url(#SVGID_3_)" d="M161.271,104.373c-2.121-5.72-5.147-11.164-7.231-13.802l-42.997-54.422
					c-6.723-8.508-19.442-11.845-28.413-7.463L44.463,46.494c-2.8,1.368-5.75,3.583-7.116,5.889
					c-1.828,2.918-4.467,7.891-2.378,15.735c2.467,9.263,5.296,20.9,6.238,23.851c1.34,4.193,2.689,9.37,6.029,13.715l39.751,58.012
					c6.682,8.695,19.396,12.065,28.396,7.529l30.266-14.312c7.066-4.031,21.944-27.393,19.972-36.203
					C165.62,120.708,163.82,111.132,161.271,104.373z"/>
				<g>
					
						<linearGradient id="SVGID_4_" gradientUnits="userSpaceOnUse" x1="-248.6147" y1="-205.5273" x2="-155.4697" y2="-87.0363" gradientTransform="matrix(0.9718 -0.2356 -0.2356 -0.9718 282.827 -161.5231)">
						<stop  offset="0" style="stop-color:#FF95CD"/>
						<stop  offset="0.1674" style="stop-color:#F690C7"/>
						<stop  offset="0.4388" style="stop-color:#DE82B7"/>
						<stop  offset="0.7785" style="stop-color:#B76C9C"/>
						<stop  offset="1" style="stop-color:#9A5B88"/>
					</linearGradient>
					<path fill="url(#SVGID_4_)" d="M108.818,134.042c-8.97,4.39-21.69,1.051-28.411-7.456l-40.02-56.744
						c-6.718-8.507-4.896-18.962,4.076-23.348L82.63,28.686c8.971-4.381,21.69-1.044,28.413,7.463l42.997,54.422
						c6.724,8.506,4.896,18.96-4.073,23.348L108.818,134.042z"/>
				</g>
			</g>
		</g>
	</g>
</g>
<g id="outline_x5F_white">
	<g>
		<g>
			<path fill="#FFFFFF" d="M91.407,26.757c7.253,0,14.92,3.424,19.636,9.392l42.997,54.422c0.358,0.454,0.748,0.998,1.153,1.606
				c0.002,0.005,0.006,0.009,0.009,0.013c1.946,2.922,4.315,7.457,6.069,12.183c2.549,6.759,4.349,16.335,4.349,16.335
				c1.974,8.812-12.904,32.172-19.972,36.203l-30.266,14.313c-2.716,1.368-5.769,2.018-8.893,2.018
				c-7.229,0-14.839-3.477-19.504-9.549l-39.751-58.01c-3.34-4.346-4.688-9.521-6.029-13.716c-0.942-2.95-3.771-14.588-6.238-23.851
				c-2.089-7.844,0.551-12.816,2.378-15.735c1.365-2.306,4.316-4.521,7.116-5.889L82.63,28.686
				C85.309,27.377,88.319,26.757,91.407,26.757 M91.407,14.757c-5.003,0-9.69,1.041-13.935,3.093L39.389,35.62
				c-0.064,0.03-0.129,0.061-0.193,0.092c-2.483,1.213-8.597,4.641-12.081,10.401c-1.884,3.01-7.275,11.827-3.742,25.094
				c1.032,3.875,2.15,8.257,3.136,12.124c1.671,6.549,2.646,10.349,3.267,12.29c0.148,0.464,0.296,0.939,0.447,1.424
				c1.345,4.319,3.178,10.208,7.279,15.664l39.587,57.77c0.123,0.181,0.251,0.355,0.383,0.528
				c6.748,8.781,17.867,14.236,29.02,14.236c5.005,0,9.891-1.115,14.14-3.226l30.147-14.259c0.277-0.131,0.55-0.272,0.814-0.424
				c7.713-4.399,15.01-15.923,17.788-20.673c6.806-11.632,9.497-21.16,8.002-28.326c-0.313-1.648-2.146-10.926-4.873-18.168
				c-1.901-5.119-4.61-10.543-7.263-14.542c-0.023-0.038-0.049-0.075-0.074-0.112c-0.605-0.908-1.171-1.689-1.725-2.39
				l-42.99-54.414C113.658,20.104,102.525,14.757,91.407,14.757L91.407,14.757z"/>
		</g>
	</g>
</g>
<g id="outline_x5F_black">
	<g>
		<path d="M91.407,26.757c7.253,0,14.92,3.424,19.636,9.392l42.997,54.422c0.358,0.454,0.748,0.998,1.153,1.606
			c0.002,0.005,0.006,0.009,0.009,0.013c1.946,2.922,4.315,7.457,6.069,12.183c2.549,6.759,4.349,16.335,4.349,16.335
			c1.974,8.812-12.904,32.172-19.972,36.203l-30.266,14.313c-2.716,1.368-5.769,2.018-8.893,2.018
			c-7.229,0-14.839-3.477-19.504-9.549l-39.751-58.01c-3.34-4.346-4.688-9.521-6.029-13.716c-0.942-2.95-3.771-14.588-6.238-23.851
			c-2.089-7.844,0.551-12.816,2.378-15.735c1.365-2.306,4.316-4.521,7.116-5.889L82.63,28.686
			C85.309,27.377,88.319,26.757,91.407,26.757 M91.407,20.757c-4.104,0-7.927,0.845-11.359,2.512L41.926,41.057l-0.048,0.022
			l-0.048,0.023c-1.569,0.766-6.876,3.609-9.604,8.153c-2.565,4.112-5.644,10.686-3.055,20.406c1.04,3.905,2.162,8.304,3.152,12.185
			c1.437,5.632,2.572,10.081,3.168,11.947c0.152,0.478,0.305,0.967,0.46,1.466c1.29,4.145,2.893,9.292,6.422,13.942l39.665,57.884
			l0.092,0.135l0.1,0.13c5.637,7.336,14.933,11.893,24.262,11.893c4.104,0,8.085-0.907,11.521-2.623l30.201-14.284l0.208-0.099
			l0.199-0.113c5.271-3.007,11.506-11.523,15.582-18.491c4.168-7.122,8.803-17.069,7.297-24.121
			c-0.206-1.077-2.017-10.364-4.614-17.256c-1.668-4.496-4.019-9.259-6.339-12.855l-0.011-0.026l-0.352-0.527
			c-0.51-0.762-0.994-1.434-1.439-1.998l-42.994-54.418C110.062,25.229,100.734,20.757,91.407,20.757L91.407,20.757z"/>
	</g>
</g>
</svg>
