<?xml version="1.0" encoding="utf-8"?>
<!-- Generator: Adobe Illustrator 15.0.0, SVG Export Plug-In . SVG Version: 6.00 Build 0)  -->
<!DOCTYPE svg PUBLIC "-//W3C//DTD SVG 1.1//EN" "http://www.w3.org/Graphics/SVG/1.1/DTD/svg11.dtd">
<svg version="1.1" xmlns="http://www.w3.org/2000/svg" xmlns:xlink="http://www.w3.org/1999/xlink" x="0px" y="0px" width="200px"
	 height="200px" viewBox="0 0 200 200" enable-background="new 0 0 200 200" xml:space="preserve">
<g id="icon">
	<g id="Layer_2">
	</g>
	<g id="Layer_1_1_">
		<g>
			<g>
				<g>
					<path fill="#D6EAF0" stroke="#828594" stroke-width="2" stroke-miterlimit="10" d="M166.361,90.32
						c3.342-2.946,3.557-7.787-0.461-9.661c-1.229-0.573-4.604,0.368-5.082-1.394c-0.521-1.906,1.637-4.646,1.289-6.713
						c-0.492-2.926-0.75-4.026-2.291-2.562c-1.369,1.301-0.094,3.905-1.479,5.152c-1.444,1.302-4.183,1.528-4.463-1.133
						c-0.233-2.211,2.979-2.984,2.867-5.707c-0.13-3.085-3.103-2.592-2.99-4.781c0.133-2.628,2.959-3.936,3.688-5.396
						c0.979-1.95,0.021-4.771-1.931-5.473c-2.2-0.791-3.432,3.021-5.463,2.949c-0.176-1.034,0.037-2.595,0.539-3.376
						c1.619-2.516,0.61-4.44-1.608-4.831c-1.897-0.33-3.187,2.199-4.261,4.104c-1.34,2.381-1.45,3.147-3.646,4.202
						c-0.127,0.061-0.362-0.068-0.479,0.006c-0.172-0.139-0.661-0.354-0.819-0.543c-0.621-0.736-0.832-0.503-0.717-1.524
						c0.096-0.861,0.604-1.836,0.12-2.631c-0.446-0.731-1.694-1.705-2.334-1.598c-1.293,0.216-2.582,1.782-3.821,0.788
						c-1.394-1.121-0.228-2.017,0.138-3.473c0.418-1.69,0.711-4.445-0.621-5.678c-1.197-1.105-2.644-1.432-4.558,0.181
						c-1.051,0.888-2.082,2.49-3.351,2.526c-1.198,0.037-4.01,4.331-4.424,3.082c-1.69-5.114-4.729-3.597-5.813,0.396
						c-0.418,1.521,0.135,3.407-1.261,4.281c-1.075,0.674-2.935-1.488-3.944-2c-1.44-0.732-2.685-0.957-3.828,0.771
						c-0.776,1.169-1.235,2.695-2.14,3.712c-0.516,0.585,1.265-5.72,0.539-5.965c-0.168-0.057-0.396-0.211-0.53-0.326
						c0.06-0.838-0.072-1.137,0.067-1.982c0.451-2.734,3.435-8.016-0.394-8.801c-1.586-0.327-2.716,0.392-4.208,0.729
						c-2.018,0.453-2.01-0.849-1.361-2.458c0.936-2.316,4.332-7.113,0.402-8.553c-1.701-0.622-2.949,0.954-4.305,1.845
						c-1.629,1.071-2.596,1.101-2.793-1.265c-0.139-1.63-0.316-4.907-1.732-5.758c-1.283-0.769-3.043-0.277-3.924,1.133
						c-1.555,2.479-0.65,8.119-3.932,8.539c-1.045,0.137-1.932-1.429-2.75-2.165c-1.166-1.049-0.078,11.683-1.588,12.22
						c-2.484,0.893-4.213,6.504-6.129,1.43c-0.535-1.416-0.9-3.95-1.891-5.004c-1.023-1.094-3.086-0.297-3.854,0.946
						c-0.826,1.335-0.785,3.094-1.453,4.521c-0.246,0.524-0.932,0.711-1.455,1.377c-0.084-0.029-0.396-0.047-0.477-0.084
						c-0.775-0.342-1.254-5.225-2.176-5.845c-1.256-0.846-3.496-1.44-4.086-0.202c-0.816,1.71,0.295,3.813,0.373,5.667
						c0.072,1.671,0.266,4.048-1.633,3.415c-1.266-0.42-2.521-2.813-3.947-2.181c-1.115,0.491-1.783,2.195-1.941,4.591
						c-0.07,1.033,0.135,2.954-1.49,2.495c-1.15-0.326-2.27-2.72-2.867-3.632c-1.102-1.668-2.104-1.366-2.887,0.48
						c-0.738,1.739-0.375,4.071-0.514,5.94c-0.123,1.683-0.092,3.322-1.436,4.24c-1.547,1.054-1.727,2.992-2.889,1.961
						c-2.098-1.851-4.482-5.331-7.211-3.043c-1.156,0.969-1.492,2.78-0.635,4.223c0.529,0.9,1.621,1.585,1.812,2.181
						c-1.477,3.379-10.357,0.042-10.664,5.011c-0.234,3.725,11.963,2.906,5.15,6.739c-1.748,0.983-3.949,1.039-5.57,2.181
						c-1.125,0.79-2.549,3.658-1.564,5.419c0.906,1.626,1.426,3.724,2.738,3.562c1.779-0.224,4.324-2.212,3.596,3.017
						c-0.387,2.784-0.35,3.608-1.607,3.394c-1.752-0.303-3.723-0.121-4.963,1.774c-1.326,2.03-0.195,3.949,1.586,5.276
						c1.65,1.229,2.414,3.069,1.48,5.728c-0.623,1.771,1.131,2.736-0.205,3.531c-3.033,1.817-11.299,5.788-5.943,7.357
						c2.139,0.631,3.447-0.264,2.35,2.547c-0.643,1.646,0.457-0.866-0.602,0.357c-1.176,1.361-2.711,3.971-1.455,6.032
						c1.469,2.407,3.467,0.944,4.643-0.297c1.367-1.442,3.979-3.571,4.102-0.524c0.092,2.235-1.992,3.325,0.092,4.767
						c3.504,2.42,2.607-1.522,4.27-4.626c1.326-2.477-0.217,1.058,1.982,1.521c0.037,0.008-0.084,0.562-0.049,0.568
						c0.178,1.641,1.084,2.325,2.701,2.85c1.496,0.479,4.156-0.596,5.395,0.532c2.062,1.882-2.16,3.634-3.311,3.935
						c-1.74,0.459,0.691-1.313-0.617,0.227c-1.77,2.083-0.613,4.007,0.764,5.521c1.988,2.188-0.121,2.229-1.648,3.535
						c-1.467,1.254-3.1,3.608-3.201,5.938c-0.09,1.888,1.047,4.54,2.85,4.561c1.893,0.023,3.426-3.891,5.4-3.815
						c2.045,0.077,0.803,3.727,2.125,5.03c1.576,1.559,4.664,1.312,5.031-0.92c0.289-1.77-0.803-6.279,1.309-6.879
						c1.305-0.371-1.213,4.709,0.238,4.909c2.182,0.3,6.463-2.209,6.006-5.198c-0.367-2.391-4.418-2.935-2.527-5.178
						c2.08-2.473,3.102,2.27,5.566,1.355c3.455-1.281,1.676-5.364,1.824-8.34c0.807-0.184,1.617,0.82,2.459,0.81
						c1.045-0.015,4.625,4.994,5.404,4.299c1.754-1.562,1.697-3.793,1.471-6.266c-0.168-1.835-1.842-5.806,0.037-7.109
						c0.232-0.163,1.34,0.156,1.623,0.081c1.492,1.382,0.457,3.534,2.496,4.275c4.137,1.498,3.359-2.006,7.211-1.142
						c1.818,0.407,2.789,7.189,4.045,8.317c1.301,1.172,2.766,1.89,4.078,0.014c1.045-1.496,1.812-3.332,2.83-4.894
						c2.289-3.509,3.018-0.787,3.957,1.368c0.623,1.44,2.045,3.39,3.701,3.061c1.92-0.38,2.602-2.042,3.465-3.881
						c0.879-1.882-1.473-9.764,0.667-8.898c2.25,0.904,1.379,4.279,1.01,6.219c-0.321,1.705-0.438,4.455,1.84,4.56
						c1.484,0.065,2.845-3.128,3.734-4.248c0.394-0.495,0.976-0.771,1.467-1.088c1.627,1.687-0.164,4.896,2.574,5.319
						c1.815,0.285,3.362-7.954,3.446-10.26c0.047-1.252-0.444-2.662-0.229-3.854c0.082-0.456,0.524-1.854,0.746-2.308
						c1.435-0.879,2.967,0.446,3.791,2.433c0.907,2.187-0.813,5.87,0.981,6.573c1.832,0.717,3.076-0.596,4.287-2.137
						c0.493-0.625,1.317-1.408,2.155-1.295c1.104,0.147,0.986,2.191,1.185,3.186c0.519,2.593,3.104,4.521,5.283,2.941
						c1.002-0.729,1.998-8.738,3.432-2.447c1.738,0.931,1.427,3.687,3.877,3.928c1.861,0.183,2.705-1.797,2.888-3.712
						c0.136-1.479-2.237-6.572,0.521-6.173c1.906,0.279,3.031,3.634,5.367,2.062c1.729-1.162,0.891-3.894,0.791-5.896
						c-0.054-1.084-0.404-3.315,0.358-4.123c0.627-0.664,1.892-0.995,2.547-0.395c0.688,0.635,0.992,3.199,1.445,4.073
						c0.396,0.762,1,1.713,1.456,2.351c1.291,1.791-0.571,1.873,1.164,1.162c1.785-0.732,3.205-1.121,3.82-3.35
						c0.729-2.65-0.396-4.46-0.615-7.005c-0.157-1.849,0.269-3.276,1.127-4.119c1.168-0.206,2.562-0.464,3.685-0.604
						c2.113-0.265,3.685-0.634,4.752-2.969c0.843-1.847-0.075-4.417-1.776-5.701c-1.537-1.152-3.535-0.443-3.776-3.255
						C163.748,93.404,164.777,91.715,166.361,90.32z M29.795,65.79c-0.006-0.002-0.018-0.003-0.023-0.006
						c0.008-0.003,0.014-0.007,0.021-0.012C29.795,65.778,29.795,65.784,29.795,65.79z"/>
					<path opacity="0.32" fill="#5C848C" enable-background="new    " d="M145.465,107.784c0.918,1.276,0.584,3.774,1.469,5.265
						c0.779,1.311,2.754,3,3.969,1.206c0.52-0.764-0.059-2.038,0.365-2.663c0.479-0.701,1.32-0.053,1.809,0.309
						c1.4,1.043,2.922,2.115,4.541,1.004c1.984-1.361,1.096-3.281,0.729-5.305c-0.473-2.606-1.451-1.029-0.055-1.423
						c1.6-0.452,4.172-2.471,3.533-4.846c-0.518-1.927-5.156-2.664-4.229-5.12c0.479-1.271,2.094-1.883,2.68-3.206
						c0.66-1.484,0.459-3.961-0.699-4.924c-0.686-0.572-2.928-2.004-0.668-4.687c-0.439,0.042-0.873,0.082-1.246,0.351
						c0.029,3.398,0.674,3.561,1.148,7.072c0.338,2.478-1.201,2.555-2.584,3.535c-1.838,1.303,0.584,2.83,1.537,4.386
						c0.859,1.406,1.398,3.016,0.139,4.523c-1.311,1.56,1.207,0.388-0.215-0.062c-2.275-0.717-1.117,1.611-0.785,3.191
						c0.408,1.932,0.426,4.064-1.572,4.353c-1.232,0.181-2.094-0.755-3.014-1.683c-1.021-1.028-1.75-1.488-2.191,0.442
						c-0.254,1.112-0.049,2.808-1.201,3.299c-0.838,0.36-2.42-0.776-2.754-1.684c-0.158,0.044-0.262-0.063-0.395-0.072"/>
					<path opacity="0.32" fill="#5C848C" enable-background="new    " d="M59.217,102.281c0.025-0.521,1.135-0.987,1.639-0.4
						c0.502,0.583,0.221,1.948,0.176,2.643c-0.121,1.813,0.025,4.759,1.918,5.043c1.414,0.213,2.98-3.521,4.072-1.25
						c0.791,1.649,0.098,5.901,2.717,5.399c1.611-0.311,2.828-5.302,4.307-3.856c0.688,0.67,0.648,2.263,1.516,2.86
						c0.984,0.688,1.965-0.131,2.426-1.163c0.764-1.714,1.402-5.449,2.787-1.845c0.613,1.586,2.275,3.867,3.93,2.832
						c0.328-0.208,0.518-0.36,0.645-0.769c-0.631-0.476-1.314-0.221-1.893-0.748c-0.5-0.459-0.738-1.7-0.879-2.416
						c-0.346-1.756-0.502-3.819-1.391-5.264c-1.08-1.764-2.703-0.824-3.369,0.877c-0.41,1.051-0.637,3.998-1.848,3.926
						c-1.482-0.094-0.752-3.682-2.914-3.166c-1.463,0.347-1.512,3.091-2.713,3.853c-1.82,1.151-0.801-3.323-1.166-4.088
						c-0.855-1.81-2.439-1.13-3.404-0.218c-0.807,0.761-1.92,2.023-2.861,0.898c-0.871-1.037-0.182-2.951-0.105-4.193
						c0.109-1.648-0.822-2.64-2.193-1.647c-0.98,0.709-1.127,2.386-2.039,3.181"/>
					<path opacity="0.32" fill="#5C848C" enable-background="new    " d="M83.678,68.07c-0.209,0.694-0.469,1.601-0.119,2.262
						c0.539,1.025,1.312,0.206,1.756,0.701c0.928,1.036,0.09,3.021,0.006,4.389c-0.166,2.764,1.225,7.634,4.203,6.042
						c1.861-0.999,3.006-7.181,5.348-4.608c1.9,2.083,1.146,7.931,5.373,6.057c2.717-1.204,0.776-5.912,2.637-7.121
						c1.545-1,2.058,4.808,3.787,5.433c2.647,0.958,4.979-1.403,5.008-4.382c0.019-1.967-0.618-2.79,1.234-3.079
						c0.993-0.154,2.342,1.358,3.021-0.343c-0.933-0.586-2.25-0.578-3.062-1.653c-0.615-0.816-0.636-4.165-2.222-3.051
						c-1.612,1.133,0.444,6.609-1.608,8.459c-2.789,2.511-3.451-3.532-4.592-5.105c-2.546-3.523-2.652,3.752-3.443,5.074
						c-0.822,1.374-2.418,1.874-3.561,0.662c-0.963-1.019-0.771-2.854-1.695-3.939c-2.363-2.773-3.213,2.635-5.277,3.702
						c-2.994,1.55-4.121-2.567-2.896-5.251c0.596-1.304,1.785-3.057-0.033-3.44c-1.521-0.325-1.549,1.333-3.344,0.138
						c-0.43-0.287-0.488-0.713-1.043-0.848"/>
					<path opacity="0.32" fill="#5C848C" enable-background="new    " d="M30.438,75.221c-0.475,2.052,0.469,2.827,1.947,3.081
						c1.736,0.298,2.482-0.415,2.873,2.534c0.197,1.517-0.527,3.423,0.416,4.851c1.047,1.583,0.785-3.651,2.105-4.318
						c1.422-0.725,2.359-1.741,3.77-0.115c1.285,1.487,0.395,2.978,0.943,4.799c0.52,1.72,2.182,3.148,3.592,2.989
						c1.582-0.179,2.299-2.379,3.973-2.272c3.225,0.201,3.982,7.049,8.295,4.778c2.156-1.136,1.221-3.314,2.252-5.022
						c1.137-1.896,2.34,0.247,3.57-0.85c-0.99-0.868-2.129-3.552-3.377-3.536c-1.672,0.021-1.607,2.785-2.135,3.981
						c-1.928,4.407-4.484-0.369-6.299-2.162c-2.51-2.479-4.73,3.812-6.924-0.708c-1.301-2.676-0.799-7.59-4.553-5.92
						c-1.443,0.642-2.293,2.09-3.99,0.677c-1.283-1.067,0.547,1.527,0.094-0.149c-0.635-2.346-0.869-2.407-2.99-1.956
						c-0.586,0.126-1.225,0.672-1.904,0.54c-0.908-0.177-1.312-1.298-2.209-1.143"/>
					<path opacity="0.32" fill="#5C848C" enable-background="new    " d="M95.682,100.604c0.027-0.521,1.137-0.985,1.639-0.398
						c0.504,0.583,0.225,1.947,0.18,2.641c-0.121,1.814,0.023,4.76,1.916,5.047c1.414,0.213,2.979-3.521,4.074-1.248
						c0.788,1.646,0.096,5.896,2.717,5.396c1.61-0.312,2.826-5.3,4.308-3.854c0.685,0.67,0.646,2.26,1.514,2.858
						c0.986,0.688,1.968-0.13,2.425-1.164c0.769-1.714,1.401-5.446,2.789-1.845c0.61,1.587,2.276,3.865,3.93,2.834
						c0.33-0.207,0.517-0.363,0.646-0.771c-0.633-0.474-1.315-0.219-1.894-0.746c-0.5-0.459-0.737-1.701-0.881-2.418
						c-0.346-1.754-0.502-3.817-1.39-5.265c-1.081-1.761-2.704-0.821-3.368,0.878c-0.41,1.053-0.64,4.001-1.849,3.928
						c-1.481-0.095-0.754-3.682-2.912-3.168c-1.467,0.348-1.517,3.094-2.717,3.854c-1.815,1.149-0.8-3.323-1.166-4.091
						c-0.854-1.809-2.438-1.127-3.401-0.217c-0.808,0.764-1.918,2.023-2.861,0.899c-0.871-1.037-0.184-2.952-0.104-4.196
						c0.109-1.646-0.826-2.638-2.197-1.646c-0.979,0.709-1.125,2.386-2.039,3.18"/>
				</g>
			</g>
			<g>
				
					<linearGradient id="SVGID_1_" gradientUnits="userSpaceOnUse" x1="188.7812" y1="719.3057" x2="242.2317" y2="732.511" gradientTransform="matrix(1 0 0 1 -100 -591)">
					<stop  offset="0" style="stop-color:#5DD4FF"/>
					<stop  offset="0.3034" style="stop-color:#4EA0C2"/>
					<stop  offset="0.9556" style="stop-color:#216D8D"/>
					<stop  offset="1" style="stop-color:#266888"/>
				</linearGradient>
				<path fill="url(#SVGID_1_)" d="M124.622,174.264c-7.877,4.959-21.024,3.865-29.36-2.439L44.358,129.1
					c-4.168-3.149-6.345-7.01-6.497-10.701c-0.149-3.688-2.705-25.432,1.236-27.908l38.127-2.146
					c7.88-4.954,21.023-3.861,29.363,2.443l58.172,22.203c4.168,3.152,1.519,25.15,1.665,28.842
					c0.152,3.691-1.723,7.213-5.665,9.691L124.622,174.264z"/>
				<path fill="#6DDCFF" d="M124.622,149.404c-7.877,4.832-21.024,3.768-29.36-2.379l-50.903-41.637
					c-8.336-6.146-8.71-15.05-0.83-19.88l33.696-19.845c7.88-4.828,21.023-3.765,29.363,2.381l53.34,39.318
					c8.338,6.146,8.711,15.046,0.832,19.877L124.622,149.404z"/>
			</g>
			<g>
				<path fill="#D6EAF0" stroke="#828594" stroke-width="2" stroke-miterlimit="10" d="M56.379,65.545
					c-3.771,0.002-3.773,2.152-1.727,3.857c0.199,0.082,0.416,0.18,0.652,0.295c1.178,0.579,1.857,0.869,2.109,1.203
					c0.316,0.216,0.566,0.491,0.67,0.91c0.141,0.578-0.559,1.113-1.264,1.582c-0.09,0.766,0.059,1.562,0.665,2.323
					c1.157,1.451,2.825,1.089,4.218,0.112c1.289-0.906,2.811-1.02,4.519,0.297c1.138,0.878,2.261-0.164,2.519,0.998
					c0.594,2.641,1.498,9.604,3.926,6.087c0.969-1.404,0.635-2.57,2.414-1.099c0.172,0.143,0.27,0.22,0.32,0.26
					c-0.154-0.11-0.598-0.393-0.205,0.264c0.709,1.183,2.238,2.925,4.038,2.506c2.103-0.49,1.519-2.293,0.897-3.447
					c-0.721-1.34-1.643-3.75,0.604-3.108c1.647,0.47,1.939,2.247,3.486,1.077c2.6-1.967-0.482-2.262-2.339-4.214
					c-1.481-1.558,0.716,0.411,1.583-1.076c0.014-0.024,0.387,0.195,0.402,0.173c1.234,0.263,1.95-0.231,2.719-1.282
					c0.709-0.972,0.564-3.164,1.682-3.794c1.863-1.047,2.125,2.443,2.066,3.352c-0.012,0.189-0.035,0.306-0.064,0.378
					c0.025,0.04,0.049,0.075,0.08,0.125c1.09,1.786,2.766,1.407,4.197,0.769c2.068-0.92,1.593,0.624,2.176,2.047
					c0.559,1.367,1.881,3.119,3.549,3.753c1.352,0.518,3.553,0.327,4-0.979c0.471-1.37-2.008-3.425-1.48-4.842
					c0.547-1.468,2.902,0.31,4.168-0.338c1.512-0.772,2.072-3.077,0.539-3.879c-1.217-0.635-4.758-0.923-4.688-2.603
					c0.043-1.037,3.133,2.013,3.627,1.006c0.738-1.516-0.057-5.23-2.34-5.615c-1.824-0.307-3.193,2.508-4.372,0.596
					c-1.299-2.105,2.394-1.711,2.322-3.722c-0.104-2.819-3.499-2.507-5.626-3.327c0.061-0.631,0.984-0.979,1.178-1.594
					c0.242-0.764,4.74-2.165,4.421-2.898c-0.713-1.65-2.351-2.146-4.204-2.572c-1.373-0.319-4.661-0.055-5.16-1.732
					c-0.062-0.209,0.436-0.938,0.449-1.162c1.361-0.753,2.68,0.516,3.707-0.789c1.984-2.521-0.393-2.896,0.715-5.163
					c-1.64-1.429-3.914-1.628-5.596,0.157c-0.711,0.756-0.836,3.436-2.232,3.361c-1.512-0.08-2.986-2.305-4.572-2.549
					c-2.246-0.344-3.107-0.421-2.412,1.051c0.616,1.309,2.816,1.006,3.391,2.312c0.6,1.363,0.107,3.406-1.895,2.973
					c-1.664-0.359-1.455-2.883-3.463-3.454c-2.273-0.646-2.628,1.634-4.193,1.026"/>
			</g>
			<g>
				<g>
					
						<radialGradient id="SVGID_2_" cx="266.1953" cy="651.165" r="21.5494" gradientTransform="matrix(1 0 0 1 -100 -591)" gradientUnits="userSpaceOnUse">
						<stop  offset="0.5744" style="stop-color:#FFFFFF;stop-opacity:0"/>
						<stop  offset="0.7977" style="stop-color:#FFFFFF;stop-opacity:0.6512"/>
						<stop  offset="1" style="stop-color:#FFFFFF;stop-opacity:0.95"/>
					</radialGradient>
					<path fill="url(#SVGID_2_)" d="M186.427,57.184c0,10.939-8.866,19.809-19.806,19.809c-10.943,0-19.811-8.869-19.811-19.809
						c0-10.941,8.865-19.811,19.811-19.811C177.561,37.373,186.427,46.242,186.427,57.184z"/>
					<path fill="#FFFFFF" d="M164.702,53.349c0,2.944-2.576,5.325-5.752,5.325c-3.177,0-5.751-2.381-5.751-5.325
						c0-2.942,2.574-5.324,5.751-5.324C162.126,48.024,164.702,50.406,164.702,53.349z"/>
				</g>
				<g>
					
						<radialGradient id="SVGID_3_" cx="219.0898" cy="646.4668" r="11.4961" gradientTransform="matrix(1 0 0 1 -100 -591)" gradientUnits="userSpaceOnUse">
						<stop  offset="0.5744" style="stop-color:#FFFFFF;stop-opacity:0"/>
						<stop  offset="0.7977" style="stop-color:#FFFFFF;stop-opacity:0.6512"/>
						<stop  offset="1" style="stop-color:#FFFFFF;stop-opacity:0.95"/>
					</radialGradient>
					<circle fill="url(#SVGID_3_)" cx="119.316" cy="53.877" r="10.568"/>
					<path fill="#FFFFFF" d="M118.295,51.832c0,1.569-1.373,2.84-3.068,2.84c-1.693,0-3.065-1.271-3.065-2.84
						c0-1.571,1.372-2.842,3.065-2.842C116.922,48.99,118.295,50.261,118.295,51.832z"/>
				</g>
				<g>
					
						<radialGradient id="SVGID_4_" cx="180.3545" cy="684.9346" r="9.0604" gradientTransform="matrix(1 0 0 1 -100 -591)" gradientUnits="userSpaceOnUse">
						<stop  offset="0.5744" style="stop-color:#FFFFFF;stop-opacity:0"/>
						<stop  offset="0.7977" style="stop-color:#FFFFFF;stop-opacity:0.6512"/>
						<stop  offset="1" style="stop-color:#FFFFFF;stop-opacity:0.95"/>
					</radialGradient>
					<circle fill="url(#SVGID_4_)" cx="80.533" cy="92.681" r="8.329"/>
					<ellipse fill="#FFFFFF" cx="77.31" cy="91.068" rx="2.418" ry="2.24"/>
				</g>
				<g>
					
						<radialGradient id="SVGID_5_" cx="233.6328" cy="678.668" r="4.9271" gradientTransform="matrix(1 0 0 1 -100 -591)" gradientUnits="userSpaceOnUse">
						<stop  offset="0.5744" style="stop-color:#FFFFFF;stop-opacity:0"/>
						<stop  offset="0.7977" style="stop-color:#FFFFFF;stop-opacity:0.6512"/>
						<stop  offset="1" style="stop-color:#FFFFFF;stop-opacity:0.95"/>
					</radialGradient>
					<circle fill="url(#SVGID_5_)" cx="133.73" cy="86.986" r="4.529"/>
					<ellipse fill="#FFFFFF" cx="131.977" cy="86.109" rx="1.314" ry="1.217"/>
				</g>
				<g>
					
						<radialGradient id="SVGID_6_" cx="176.4092" cy="656.6592" r="4.9283" gradientTransform="matrix(1 0 0 1 -100 -591)" gradientUnits="userSpaceOnUse">
						<stop  offset="0.5744" style="stop-color:#FFFFFF;stop-opacity:0"/>
						<stop  offset="0.7977" style="stop-color:#FFFFFF;stop-opacity:0.6512"/>
						<stop  offset="1" style="stop-color:#FFFFFF;stop-opacity:0.95"/>
					</radialGradient>
					<circle fill="url(#SVGID_6_)" cx="76.507" cy="64.977" r="4.53"/>
					<ellipse fill="#FFFFFF" cx="74.753" cy="64.1" rx="1.313" ry="1.217"/>
				</g>
				<g>
					
						<radialGradient id="SVGID_7_" cx="142.3398" cy="670.6592" r="10.6753" gradientTransform="matrix(1 0 0 1 -100 -591)" gradientUnits="userSpaceOnUse">
						<stop  offset="0.5744" style="stop-color:#FFFFFF;stop-opacity:0"/>
						<stop  offset="0.7977" style="stop-color:#FFFFFF;stop-opacity:0.6512"/>
						<stop  offset="1" style="stop-color:#FFFFFF;stop-opacity:0.95"/>
					</radialGradient>
					<path fill="url(#SVGID_7_)" d="M52.363,78.182c0,5.423-4.393,9.813-9.812,9.813c-5.421,0-9.813-4.391-9.813-9.813
						c0-5.417,4.393-9.812,9.813-9.812C47.971,68.369,52.363,72.765,52.363,78.182z"/>
					<path fill="#FFFFFF" d="M41.601,76.282c0,1.458-1.275,2.638-2.85,2.638c-1.569,0-2.847-1.18-2.847-2.638s1.277-2.64,2.847-2.64
						C40.325,73.643,41.601,74.824,41.601,76.282z"/>
				</g>
				<g>
					
						<radialGradient id="SVGID_8_" cx="221.7988" cy="707.5938" r="4.9271" gradientTransform="matrix(1 0 0 1 -100 -591)" gradientUnits="userSpaceOnUse">
						<stop  offset="0.5744" style="stop-color:#FFFFFF;stop-opacity:0"/>
						<stop  offset="0.7977" style="stop-color:#FFFFFF;stop-opacity:0.6512"/>
						<stop  offset="1" style="stop-color:#FFFFFF;stop-opacity:0.95"/>
					</radialGradient>
					<circle fill="url(#SVGID_8_)" cx="121.896" cy="115.912" r="4.529"/>
					<ellipse fill="#FFFFFF" cx="120.143" cy="115.035" rx="1.315" ry="1.218"/>
				</g>
				<g>
					
						<radialGradient id="SVGID_9_" cx="225.8906" cy="697.9492" r="4.9276" gradientTransform="matrix(1 0 0 1 -100 -591)" gradientUnits="userSpaceOnUse">
						<stop  offset="0.5744" style="stop-color:#FFFFFF;stop-opacity:0"/>
						<stop  offset="0.7977" style="stop-color:#FFFFFF;stop-opacity:0.6512"/>
						<stop  offset="1" style="stop-color:#FFFFFF;stop-opacity:0.95"/>
					</radialGradient>
					<circle fill="url(#SVGID_9_)" cx="125.988" cy="106.268" r="4.53"/>
					<ellipse fill="#FFFFFF" cx="124.232" cy="105.391" rx="1.314" ry="1.217"/>
				</g>
				<g>
					
						<radialGradient id="SVGID_10_" cx="229.6875" cy="705.5479" r="4.9284" gradientTransform="matrix(1 0 0 1 -100 -591)" gradientUnits="userSpaceOnUse">
						<stop  offset="0.5744" style="stop-color:#FFFFFF;stop-opacity:0"/>
						<stop  offset="0.7977" style="stop-color:#FFFFFF;stop-opacity:0.6512"/>
						<stop  offset="1" style="stop-color:#FFFFFF;stop-opacity:0.95"/>
					</radialGradient>
					<path fill="url(#SVGID_10_)" d="M134.314,113.865c0,2.504-2.026,4.531-4.529,4.531c-2.497,0-4.529-2.027-4.529-4.531
						c0-2.5,2.032-4.529,4.529-4.529C132.288,109.336,134.314,111.365,134.314,113.865z"/>
					<path fill="#FFFFFF" d="M129.35,112.99c0,0.672-0.59,1.217-1.313,1.217c-0.728,0-1.313-0.545-1.313-1.217
						c0-0.676,0.588-1.219,1.313-1.219C128.76,111.771,129.35,112.314,129.35,112.99z"/>
				</g>
				<g>
					
						<radialGradient id="SVGID_11_" cx="172.8496" cy="723.667" r="4.9283" gradientTransform="matrix(1 0 0 1 -100 -591)" gradientUnits="userSpaceOnUse">
						<stop  offset="0.5744" style="stop-color:#FFFFFF;stop-opacity:0"/>
						<stop  offset="0.7977" style="stop-color:#FFFFFF;stop-opacity:0.6512"/>
						<stop  offset="1" style="stop-color:#FFFFFF;stop-opacity:0.95"/>
					</radialGradient>
					<path fill="url(#SVGID_11_)" d="M77.476,131.986c0,2.502-2.029,4.529-4.528,4.529c-2.505,0-4.531-2.027-4.531-4.529
						s2.026-4.531,4.531-4.531C75.446,127.455,77.476,129.484,77.476,131.986z"/>
					<path fill="#FFFFFF" d="M72.506,131.109c0,0.673-0.588,1.215-1.313,1.215c-0.724,0-1.314-0.542-1.314-1.215
						c0-0.676,0.591-1.219,1.314-1.219C71.918,129.891,72.506,130.436,72.506,131.109z"/>
				</g>
				<g>
					
						<radialGradient id="SVGID_12_" cx="179.1699" cy="724.9678" r="3.073" gradientTransform="matrix(1 0 0 1 -100 -591)" gradientUnits="userSpaceOnUse">
						<stop  offset="0.5744" style="stop-color:#FFFFFF;stop-opacity:0"/>
						<stop  offset="0.7977" style="stop-color:#FFFFFF;stop-opacity:0.6512"/>
						<stop  offset="1" style="stop-color:#FFFFFF;stop-opacity:0.95"/>
					</radialGradient>
					<circle fill="url(#SVGID_12_)" cx="79.229" cy="133.543" r="2.825"/>
					<ellipse fill="#FFFFFF" cx="78.135" cy="132.996" rx="0.821" ry="0.76"/>
				</g>
				<g>
					
						<radialGradient id="SVGID_13_" cx="184.7207" cy="738.5107" r="3.0748" gradientTransform="matrix(1 0 0 1 -100 -591)" gradientUnits="userSpaceOnUse">
						<stop  offset="0.5744" style="stop-color:#FFFFFF;stop-opacity:0"/>
						<stop  offset="0.7977" style="stop-color:#FFFFFF;stop-opacity:0.6512"/>
						<stop  offset="1" style="stop-color:#FFFFFF;stop-opacity:0.95"/>
					</radialGradient>
					<path fill="url(#SVGID_13_)" d="M87.607,147.085c0,1.56-1.264,2.825-2.828,2.825c-1.559,0-2.823-1.266-2.823-2.825
						c0-1.562,1.265-2.826,2.823-2.826C86.344,144.259,87.607,145.523,87.607,147.085z"/>
					<path fill="#FFFFFF" d="M84.508,146.537c0,0.42-0.368,0.76-0.818,0.76c-0.455,0-0.822-0.34-0.822-0.76s0.367-0.76,0.822-0.76
						C84.14,145.777,84.508,146.117,84.508,146.537z"/>
				</g>
				<g>
					
						<radialGradient id="SVGID_14_" cx="215.5039" cy="713.376" r="3.0745" gradientTransform="matrix(1 0 0 1 -100 -591)" gradientUnits="userSpaceOnUse">
						<stop  offset="0.5744" style="stop-color:#FFFFFF;stop-opacity:0"/>
						<stop  offset="0.7977" style="stop-color:#FFFFFF;stop-opacity:0.6512"/>
						<stop  offset="1" style="stop-color:#FFFFFF;stop-opacity:0.95"/>
					</radialGradient>
					<circle fill="url(#SVGID_14_)" cx="115.564" cy="121.951" r="2.826"/>
					<ellipse fill="#FFFFFF" cx="114.471" cy="121.405" rx="0.82" ry="0.759"/>
				</g>
				<g>
					
						<radialGradient id="SVGID_15_" cx="221.623" cy="691.5195" r="3.0735" gradientTransform="matrix(1 0 0 1 -100 -591)" gradientUnits="userSpaceOnUse">
						<stop  offset="0.5744" style="stop-color:#FFFFFF;stop-opacity:0"/>
						<stop  offset="0.7977" style="stop-color:#FFFFFF;stop-opacity:0.6512"/>
						<stop  offset="1" style="stop-color:#FFFFFF;stop-opacity:0.95"/>
					</radialGradient>
					<circle fill="url(#SVGID_15_)" cx="121.684" cy="100.096" r="2.826"/>
					<ellipse fill="#FFFFFF" cx="120.589" cy="99.547" rx="0.82" ry="0.76"/>
				</g>
				<g>
					
						<radialGradient id="SVGID_16_" cx="233.3105" cy="698.5312" r="3.0738" gradientTransform="matrix(1 0 0 1 -100 -591)" gradientUnits="userSpaceOnUse">
						<stop  offset="0.5744" style="stop-color:#FFFFFF;stop-opacity:0"/>
						<stop  offset="0.7977" style="stop-color:#FFFFFF;stop-opacity:0.6512"/>
						<stop  offset="1" style="stop-color:#FFFFFF;stop-opacity:0.95"/>
					</radialGradient>
					<circle fill="url(#SVGID_16_)" cx="133.372" cy="107.107" r="2.825"/>
					<ellipse fill="#FFFFFF" cx="132.277" cy="106.562" rx="0.82" ry="0.759"/>
				</g>
				<g>
					
						<radialGradient id="SVGID_17_" cx="219.4785" cy="700.873" r="3.075" gradientTransform="matrix(1 0 0 1 -100 -591)" gradientUnits="userSpaceOnUse">
						<stop  offset="0.5744" style="stop-color:#FFFFFF;stop-opacity:0"/>
						<stop  offset="0.7977" style="stop-color:#FFFFFF;stop-opacity:0.6512"/>
						<stop  offset="1" style="stop-color:#FFFFFF;stop-opacity:0.95"/>
					</radialGradient>
					<circle fill="url(#SVGID_17_)" cx="119.539" cy="109.446" r="2.826"/>
					<ellipse fill="#FFFFFF" cx="118.443" cy="108.898" rx="0.82" ry="0.76"/>
				</g>
				<g>
					
						<radialGradient id="SVGID_18_" cx="237.5986" cy="703.21" r="3.0714" gradientTransform="matrix(1 0 0 1 -100 -591)" gradientUnits="userSpaceOnUse">
						<stop  offset="0.5744" style="stop-color:#FFFFFF;stop-opacity:0"/>
						<stop  offset="0.7977" style="stop-color:#FFFFFF;stop-opacity:0.6512"/>
						<stop  offset="1" style="stop-color:#FFFFFF;stop-opacity:0.95"/>
					</radialGradient>
					<circle fill="url(#SVGID_18_)" cx="137.659" cy="111.785" r="2.823"/>
					<ellipse fill="#FFFFFF" cx="136.564" cy="111.237" rx="0.819" ry="0.759"/>
				</g>
				<g>
					
						<radialGradient id="SVGID_19_" cx="178.6924" cy="733.0195" r="4.9303" gradientTransform="matrix(1 0 0 1 -100 -591)" gradientUnits="userSpaceOnUse">
						<stop  offset="0.5744" style="stop-color:#FFFFFF;stop-opacity:0"/>
						<stop  offset="0.7977" style="stop-color:#FFFFFF;stop-opacity:0.6512"/>
						<stop  offset="1" style="stop-color:#FFFFFF;stop-opacity:0.95"/>
					</radialGradient>
					<circle fill="url(#SVGID_19_)" cx="78.791" cy="141.338" r="4.531"/>
					<path fill="#FFFFFF" d="M78.352,140.461c0,0.672-0.589,1.215-1.313,1.215c-0.727,0-1.314-0.543-1.314-1.215
						c0-0.674,0.588-1.219,1.314-1.219C77.763,139.242,78.352,139.787,78.352,140.461z"/>
				</g>
				<g>
					
						<radialGradient id="SVGID_20_" cx="170.4629" cy="731.2168" r="4.9267" gradientTransform="matrix(1 0 0 1 -100 -591)" gradientUnits="userSpaceOnUse">
						<stop  offset="0.5744" style="stop-color:#FFFFFF;stop-opacity:0"/>
						<stop  offset="0.7977" style="stop-color:#FFFFFF;stop-opacity:0.6512"/>
						<stop  offset="1" style="stop-color:#FFFFFF;stop-opacity:0.95"/>
					</radialGradient>
					<path fill="url(#SVGID_20_)" d="M75.088,139.535c0,2.502-2.026,4.529-4.53,4.529c-2.5,0-4.526-2.027-4.526-4.529
						s2.026-4.529,4.526-4.529C73.062,135.006,75.088,137.033,75.088,139.535z"/>
					<path fill="#FFFFFF" d="M70.121,138.658c0,0.675-0.59,1.217-1.314,1.217c-0.728,0-1.316-0.542-1.316-1.217
						c0-0.674,0.589-1.217,1.316-1.217C69.531,137.441,70.121,137.984,70.121,138.658z"/>
				</g>
				<g>
					
						<radialGradient id="SVGID_21_" cx="165.0859" cy="724.8262" r="3.4429" gradientTransform="matrix(1 0 0 1 -100 -591)" gradientUnits="userSpaceOnUse">
						<stop  offset="0.5744" style="stop-color:#FFFFFF;stop-opacity:0"/>
						<stop  offset="0.7977" style="stop-color:#FFFFFF;stop-opacity:0.6512"/>
						<stop  offset="1" style="stop-color:#FFFFFF;stop-opacity:0.95"/>
					</radialGradient>
					<circle fill="url(#SVGID_21_)" cx="65.153" cy="133.351" r="3.165"/>
					<ellipse fill="#FFFFFF" cx="63.927" cy="132.736" rx="0.92" ry="0.852"/>
				</g>
				<g>
					
						<radialGradient id="SVGID_22_" cx="162.3574" cy="716.0586" r="3.4441" gradientTransform="matrix(1 0 0 1 -100 -591)" gradientUnits="userSpaceOnUse">
						<stop  offset="0.5744" style="stop-color:#FFFFFF;stop-opacity:0"/>
						<stop  offset="0.7977" style="stop-color:#FFFFFF;stop-opacity:0.6512"/>
						<stop  offset="1" style="stop-color:#FFFFFF;stop-opacity:0.95"/>
					</radialGradient>
					<circle fill="url(#SVGID_22_)" cx="62.425" cy="124.582" r="3.166"/>
					<ellipse fill="#FFFFFF" cx="61.199" cy="123.969" rx="0.919" ry="0.851"/>
				</g>
			</g>
		</g>
	</g>
</g>
<g id="outline_x5F_white">
	<path fill="#FFFFFF" d="M175.885,107.852c-1.959-3.856-4.93-7.271-8.841-10.148l-53.335-39.314
		c-3.576-2.636-7.794-4.663-12.297-5.984c-1.179,0.73-3.635,1.631-3.812,2.191c-0.194,0.615-1.117,0.963-1.178,1.594
		c2.127,0.82,5.521,0.508,5.626,3.327c0.072,2.011-3.621,1.617-2.322,3.722c1.178,1.912,2.547-0.903,4.372-0.596
		c2.169,0.366,2.992,3.732,2.437,5.368c0.017,0.013,0.036,0.023,0.054,0.036l53.34,39.318c2.586,1.904,4.401,4.076,5.445,6.307
		c3.271,4.809,0.909,24.67,1.052,28.16c0.152,3.691-1.723,7.213-5.665,9.691l-36.138,22.74c-3.324,2.092-7.587,3.105-12.031,3.105
		c-6.085,0-12.512-1.904-17.329-5.551L44.358,129.1c-4.168-3.149-6.345-7.01-6.497-10.701c-0.143-3.506-2.451-23.289,0.695-27.385
		c0.859-2.09,2.512-3.994,4.972-5.501l15.186-8.943c-0.443-0.134-0.863-0.395-1.229-0.854c-0.606-0.761-0.755-1.557-0.665-2.323
		c0.705-0.469,1.405-1.004,1.264-1.582c-0.104-0.419-0.354-0.694-0.67-0.91c-0.252-0.334-0.931-0.624-2.109-1.203
		c-0.236-0.115-0.453-0.213-0.652-0.295c-2.046-1.705-2.044-3.855,1.727-3.857l-0.773-1.074L37.439,75.17
		c-0.06,0.036-0.12,0.071-0.179,0.107c-4.161,2.548-7.349,5.992-9.286,10.012c-3.543,6.078-3.555,15.534-2.293,31.084
		c0.078,0.964,0.175,2.164,0.189,2.511c0.306,7.414,4.202,14.354,10.982,19.582l50.694,42.548c0.155,0.129,0.313,0.256,0.475,0.377
		c6.702,5.071,15.657,7.979,24.569,7.979c6.906,0,13.277-1.713,18.424-4.952l36.137-22.738c7.466-4.693,11.568-12.065,11.27-20.24
		c0.003-0.58,0.113-2.356,0.202-3.793C179.564,122.416,179.393,113.811,175.885,107.852z"/>
</g>
<g id="outline_x5F_black">
	<path d="M170.631,110.76c-1.527-3.094-3.931-5.857-7.145-8.225l-53.338-39.317c-2.423-1.786-5.213-3.223-8.192-4.31
		c0.048,0.187,0.083,0.385,0.092,0.609c0.072,2.011-3.621,1.617-2.322,3.722c1.178,1.912,2.547-0.903,4.372-0.596
		c2.169,0.366,2.992,3.732,2.437,5.368c0.017,0.013,0.036,0.023,0.054,0.036l53.34,39.318c2.586,1.904,4.401,4.076,5.445,6.307
		c3.271,4.809,0.909,24.67,1.052,28.16c0.152,3.691-1.723,7.213-5.665,9.691l-36.138,22.74c-3.324,2.092-7.587,3.105-12.031,3.105
		c-6.085,0-12.512-1.904-17.329-5.551L44.358,129.1c-4.168-3.149-6.345-7.01-6.497-10.701c-0.143-3.506-2.451-23.289,0.695-27.385
		c0.859-2.09,2.512-3.994,4.972-5.501l15.186-8.943c-0.443-0.134-0.863-0.395-1.229-0.854c-0.606-0.761-0.755-1.557-0.665-2.323
		c0.705-0.469,1.405-1.004,1.264-1.582c-0.104-0.419-0.354-0.694-0.67-0.91c-0.078-0.103-0.212-0.205-0.373-0.309l-16.556,9.75
		l-0.045,0.026l-0.044,0.027c-3.25,1.99-5.7,4.652-7.122,7.728c-2.854,4.648-2.77,13.489-1.611,27.767
		c0.1,1.228,0.186,2.285,0.205,2.754c0.233,5.639,3.337,11.01,8.745,15.146l50.793,42.63l0.116,0.099l0.121,0.092
		c5.682,4.299,13.317,6.765,20.949,6.765c5.774,0,11.04-1.394,15.228-4.028l36.139-22.74c5.627-3.537,8.713-9.012,8.465-15.018
		c-0.021-0.542,0.107-2.631,0.213-4.311C173.477,123.715,173.402,115.365,170.631,110.76z"/>
</g>
</svg>
