<?xml version="1.0" encoding="utf-8"?>
<!-- Generator: Adobe Illustrator 15.0.0, SVG Export Plug-In . SVG Version: 6.00 Build 0)  -->
<!DOCTYPE svg PUBLIC "-//W3C//DTD SVG 1.1//EN" "http://www.w3.org/Graphics/SVG/1.1/DTD/svg11.dtd">
<svg version="1.1" xmlns="http://www.w3.org/2000/svg" xmlns:xlink="http://www.w3.org/1999/xlink" x="0px" y="0px" width="200px"
	 height="200px" viewBox="0 0 200 200" enable-background="new 0 0 200 200" xml:space="preserve">
<g id="icon">
	<g id="Layer_2">
	</g>
	<g id="Layer_1_1_">
		<g>
			
				<linearGradient id="SVGID_1_" gradientUnits="userSpaceOnUse" x1="103.4238" y1="15.1699" x2="172.6947" y2="-124.0269" gradientTransform="matrix(1 0 0 -1 -50 61)">
				<stop  offset="0" style="stop-color:#EB8BCA"/>
				<stop  offset="0.1419" style="stop-color:#EA84C3"/>
				<stop  offset="0.3556" style="stop-color:#E76FAE"/>
				<stop  offset="0.6145" style="stop-color:#E24D8D"/>
				<stop  offset="0.9066" style="stop-color:#DA1F5F"/>
				<stop  offset="0.9212" style="stop-color:#DA1C5C"/>
			</linearGradient>
			<polygon fill="url(#SVGID_1_)" points="175.009,133.199 35.675,167.115 42.342,50.14 114.621,33.613 			"/>
			
				<ellipse transform="matrix(-0.3948 -0.9188 0.9188 -0.3948 109.468 173.7853)" fill="#FFFFFF" cx="111.974" cy="50.837" rx="6.5" ry="6.114"/>
			
				<ellipse transform="matrix(-0.3947 -0.9188 0.9188 -0.3947 103.5341 245.4594)" fill="#FFFFFF" cx="132.622" cy="88.625" rx="6.499" ry="5.782"/>
			
				<ellipse transform="matrix(-0.3947 -0.9188 0.9188 -0.3947 97.4958 309.4273)" fill="#FFFFFF" cx="150.671" cy="122.599" rx="6.501" ry="5.804"/>
			
				<linearGradient id="SVGID_2_" gradientUnits="userSpaceOnUse" x1="-57.3848" y1="-50.3901" x2="-23.717" y2="-47.39" gradientTransform="matrix(1 0 0 -1 -50 61)">
				<stop  offset="0" style="stop-color:#E55D8C"/>
				<stop  offset="0.9212" style="stop-color:#95033D"/>
			</linearGradient>
			<polygon fill="url(#SVGID_2_)" points="154.954,138.082 114.427,146.139 81.342,52.573 105.891,37.872 			"/>
			
				<linearGradient id="SVGID_3_" gradientUnits="userSpaceOnUse" x1="114.1309" y1="-43.8223" x2="89.1174" y2="-47.3954" gradientTransform="matrix(1 0 0 -1 -50 61)">
				<stop  offset="0" style="stop-color:#EB8BCA"/>
				<stop  offset="0.1419" style="stop-color:#EA84C3"/>
				<stop  offset="0.3556" style="stop-color:#E76FAE"/>
				<stop  offset="0.6145" style="stop-color:#E24D8D"/>
				<stop  offset="0.9066" style="stop-color:#DA1F5F"/>
				<stop  offset="0.9212" style="stop-color:#DA1C5C"/>
			</linearGradient>
			<path fill="url(#SVGID_3_)" d="M151.932,145.129c0,0-6.089,1.373-19.226,4.342c-16.653,3.764-39.565,12.213-58.807,16.562
				c-19.987,4.516-38.225,1.084-38.225,1.084L42.342,50.14l62.131-13.973L151.932,145.129z"/>
			
				<radialGradient id="SVGID_4_" cx="127.3721" cy="23.1284" r="48.662" gradientTransform="matrix(1 0 0 -1 -50 61)" gradientUnits="userSpaceOnUse">
				<stop  offset="0" style="stop-color:#EB8BCA"/>
				<stop  offset="0.1419" style="stop-color:#EA84C3"/>
				<stop  offset="0.3556" style="stop-color:#E76FAE"/>
				<stop  offset="0.6145" style="stop-color:#E24D8D"/>
				<stop  offset="0.9066" style="stop-color:#DA1F5F"/>
				<stop  offset="0.9212" style="stop-color:#DA1C5C"/>
			</radialGradient>
			<path fill="url(#SVGID_4_)" d="M114.412,32.844c0.561,2.374-15.147,8.098-35.084,12.782c-19.934,4.685-36.547,6.557-37.104,4.182
				c-0.062-0.264-1.907-7.712-1.907-7.712C42.9,39.37,58.229,35.813,75.95,31.649c17.444-4.1,32.731-7.688,36.558-6.52
				C112.508,25.13,114.343,32.546,114.412,32.844z"/>
			
				<linearGradient id="SVGID_5_" gradientUnits="userSpaceOnUse" x1="125.7539" y1="30.6748" x2="127.4208" y2="22.3417" gradientTransform="matrix(1 0 0 -1 -50 61)">
				<stop  offset="0" style="stop-color:#E55D8C"/>
				<stop  offset="0.9212" style="stop-color:#95033D"/>
			</linearGradient>
			<path fill="url(#SVGID_5_)" d="M112.508,25.13c0.561,2.377-15.148,8.1-35.084,12.783c-19.937,4.686-36.547,6.559-37.107,4.183
				c-0.558-2.376,15.149-8.1,35.086-12.783C95.338,24.628,111.948,22.755,112.508,25.13z"/>
			
				<linearGradient id="SVGID_6_" gradientUnits="userSpaceOnUse" x1="112.3115" y1="51.1182" x2="115.6655" y2="49.2732" gradientTransform="matrix(1 0 0 -1 -50 61)">
				<stop  offset="0" style="stop-color:#E55D8C"/>
				<stop  offset="0.9212" style="stop-color:#95033D"/>
			</linearGradient>
			<path fill="url(#SVGID_6_)" d="M104.189,30.08c0,0,3.151-0.608,4.151,1.892s0.979,4.565-1.001,5.332
				c-1.98,0.768-1.328,2.166-1.328,2.166s0.797-1.197,2.979-1.598c2.182-0.401,1.976-4.838,0.933-6.816
				C108.464,28.285,104.189,30.08,104.189,30.08z"/>
			
				<linearGradient id="SVGID_7_" gradientUnits="userSpaceOnUse" x1="134.124" y1="38.3442" x2="135.7014" y2="37.4764" gradientTransform="matrix(1 0 0 -1 -50 61)">
				<stop  offset="0" style="stop-color:#E55D8C"/>
				<stop  offset="0.9212" style="stop-color:#95033D"/>
			</linearGradient>
			<circle fill="url(#SVGID_7_)" cx="105.021" cy="34.153" r="2.014"/>
			<ellipse fill="#FFFFFF" cx="52.341" cy="65.306" rx="5" ry="6.5"/>
			<ellipse fill="#FFFFFF" cx="52.341" cy="108.471" rx="5" ry="6.5"/>
			<ellipse fill="#FFFFFF" cx="51.008" cy="151.973" rx="5" ry="6.5"/>
			
				<ellipse transform="matrix(-0.0921 -0.9958 0.9958 -0.0921 -7.1513 169.6905)" fill="#FFFFFF" cx="73.785" cy="88.105" rx="6.5" ry="6.385"/>
			<path fill="#FFFFFF" d="M120.77,73.583c-3.119,0.672-5.313,3.625-5.008,6.939c0.329,3.574,3.443,6.209,6.954,5.885
				c1.171-0.107,2.232-0.535,3.123-1.186L120.77,73.583z"/>
			
				<ellipse transform="matrix(-0.092 -0.9958 0.9958 -0.092 -51.0043 220.7945)" fill="#FFFFFF" cx="75.164" cy="133.651" rx="6.5" ry="5.965"/>
			
				<ellipse transform="matrix(-0.1523 -0.9883 0.9883 -0.1523 11.1443 224.0933)" fill="#FFFFFF" cx="101.671" cy="107.268" rx="6.917" ry="6.347"/>
			
				<ellipse transform="matrix(-0.1523 -0.9883 0.9883 -0.1523 -17.756 275.7085)" fill="#FFFFFF" cx="109.365" cy="145.469" rx="6.917" ry="6.347"/>
			<path fill="#FFFFFF" d="M136.968,129.428c2.995-0.461,5.197-2.928,5.56-5.893l-2.885-6.621c-1.354-0.965-3.039-1.428-4.779-1.158
				c-3.637,0.561-6.111,4.074-5.531,7.85C129.913,127.381,133.331,129.988,136.968,129.428z"/>
			
				<ellipse transform="matrix(-0.1523 -0.9883 0.9883 -0.1523 51.317 161.7125)" fill="#FFFFFF" cx="95.008" cy="58.849" rx="6.916" ry="6.652"/>
		</g>
	</g>
</g>
<g id="outline_x5F_white">
	<g>
		<path fill="#FFFFFF" d="M108.171,24.1c2.618,0,4.172,0.331,4.337,1.03c0,0,1.835,7.416,1.904,7.714
			c0.062,0.264-0.087,0.571-0.409,0.911l0.618-0.142l60.388,99.586l-22.719,5.531l2.664,5.715c0,0-9.111,2.057-22.248,5.025
			c-16.653,3.764-39.565,12.213-58.807,16.561c-7.932,1.793-15.588,2.332-21.938,2.332c-9.651,0-16.287-1.248-16.287-1.248
			L42.342,50.14l0.086-0.02c-0.101-0.096-0.177-0.198-0.204-0.312c-0.062-0.264-1.907-7.712-1.907-7.712
			c-0.558-2.376,15.149-8.1,35.086-12.783C89.475,26.006,101.889,24.1,108.171,24.1 M108.171,15.1L108.171,15.1
			c-7.28,0-20.301,2.038-34.827,5.451c-9.977,2.344-19.299,5.029-26.251,7.562c-3.661,1.334-6.584,2.601-8.691,3.767
			c-7.491,4.146-7.505,9.468-6.847,12.272c0.008,0.036,0.017,0.072,0.026,0.107c0,0,1.201,4.851,1.692,6.838L26.69,166.604
			c-0.257,4.516,2.876,8.521,7.321,9.356c0.304,0.058,7.579,1.401,17.951,1.401c8.373,0,16.421-0.856,23.921-2.553
			c10.298-2.326,21.398-5.725,32.135-9.012c9.76-2.988,18.977-5.811,26.674-7.549c13.135-2.969,22.244-5.025,22.244-5.025
			c2.656-0.6,4.898-2.369,6.099-4.812c0.506-1.031,0.804-2.136,0.893-3.252l13.212-3.218c2.787-0.678,5.084-2.645,6.185-5.293
			c1.1-2.649,0.87-5.664-0.617-8.116l-59.705-98.46c-0.34-1.385-1.101-4.46-1.755-7.104c-0.377-1.506-1.99-6.005-7.959-7.384
			C111.855,15.254,110.23,15.1,108.171,15.1L108.171,15.1L108.171,15.1z"/>
	</g>
</g>
<g id="outline_x5F_black">
	<path d="M51.961,171.364C51.96,171.364,51.961,171.364,51.961,171.364c-9.819,0-16.56-1.247-16.842-1.3l-2.59-0.487l6.785-119.039
		c-0.003-0.013-0.007-0.027-0.01-0.041c-0.085-0.356-1.899-7.68-1.899-7.68c-0.775-3.308,2.19-5.586,11.743-9.067
		c6.736-2.454,15.816-5.067,25.57-7.358c13.89-3.265,26.709-5.292,33.454-5.292c2.101,0,6.47,0,7.257,3.342l0,0
		c0-0.001,1.837,7.423,1.906,7.722c0.015,0.063,0.029,0.133,0.042,0.207l62.321,102.775l-23.142,5.634l2.69,5.772l-25.879,5.845
		c-7.917,1.79-17.242,4.645-27.114,7.667c-10.627,3.253-21.616,6.617-31.693,8.895C67.493,170.555,59.889,171.364,51.961,171.364z
		 M38.825,164.555c2.719,0.35,7.39,0.81,13.136,0.81c7.484,0,14.643-0.76,21.277-2.258c9.857-2.229,20.737-5.56,31.259-8.78
		c9.982-3.057,19.411-5.943,27.548-7.781l18.617-4.206l-2.638-5.657l22.296-5.429L113.18,37.021l-8.187,1.875l6.209-6.547
		c-0.347-1.404-0.919-3.72-1.279-5.175c-0.393-0.041-0.958-0.074-1.752-0.074c-6.221,0-18.813,2.015-32.082,5.133
		c-17.445,4.098-29.339,8.45-32.526,10.497c0.405,1.635,1.081,4.365,1.402,5.667l3.544,3.388l-3.302,0.769L38.825,164.555z"/>
</g>
</svg>
