<?xml version="1.0" encoding="utf-8"?>
<!-- Generator: Adobe Illustrator 15.0.0, SVG Export Plug-In . SVG Version: 6.00 Build 0)  -->
<!DOCTYPE svg PUBLIC "-//W3C//DTD SVG 1.1//EN" "http://www.w3.org/Graphics/SVG/1.1/DTD/svg11.dtd">
<svg version="1.1" xmlns="http://www.w3.org/2000/svg" xmlns:xlink="http://www.w3.org/1999/xlink" x="0px" y="0px" width="200px"
	 height="200px" viewBox="0 0 200 200" enable-background="new 0 0 200 200" xml:space="preserve">
<g id="icon">
	<g id="Layer_2">
	</g>
	<g id="Layer_1_1_">
		<g>
			
				<radialGradient id="SVGID_1_" cx="175.0186" cy="-3.0029" r="63.4489" gradientTransform="matrix(1 0 0 -1 -50 61)" gradientUnits="userSpaceOnUse">
				<stop  offset="0" style="stop-color:#FFE1C5"/>
				<stop  offset="1" style="stop-color:#C0977C"/>
			</radialGradient>
			<path fill="url(#SVGID_1_)" d="M71.368,35.35c-9.651,3.222-22.501,15.866-19.808,43.906
				c5.149,47.454,31.232,73.691,69.936,87.768c6.9,2.299,11.73,2.285,15.85,1.269c24.082-6.653,2.988-42.938,1.289-61.474
				c0.447,6.189-7.906,10.414-6.377,9.32c-9.875,0.926-9.109-15.106-10.018-25.746c-6.76,1.715-4.582,10.796-12.836,11.281
				c2.178-12.217,17.425-17.53,7.742-31.511c-17.583,5.43-23.404,20.55-27.125,37.401c-5.24-1.73-6.697-7.223-9.85-11.032
				c-2.191,0.621-1.301,3.785-1.552,6.008C65.464,85.598,73.49,55.688,92.587,48.467c0.127,9.335-9.104,10.957-7.861,21.212
				c14.342,3.387,20.391-2.281,32.336-6.873c-4.492-24.525-59.376-25.567-51.733,11.29C62.504,60.95,62.65,53.969,68.23,44.423
				c-3.393-0.366-4.275,1.334-6.461,1.964C61.412,40.686,73.686,37.831,71.368,35.35z"/>
			
				<radialGradient id="SVGID_2_" cx="593.252" cy="353.5859" r="49.8717" fx="595.2634" fy="340.2559" gradientTransform="matrix(1.133 -0.086 -0.0118 -1.0295 -564.2378 489.1838)" gradientUnits="userSpaceOnUse">
				<stop  offset="0" style="stop-color:#FFE1C5"/>
				<stop  offset="1" style="stop-color:#C0977C"/>
			</radialGradient>
			<path fill="url(#SVGID_2_)" d="M138.479,62.745c-14.502-11.473-17.961-31.126-49.333-31.69
				c-20.999,0.379-27.733,9.631-27.376,15.333c2.186-0.63,3.068-2.33,6.461-1.964c-5.58,9.545-5.727,16.527-2.901,29.672
				c-7.643-36.857,47.24-35.815,51.732-11.29c-11.944,4.592-17.994,10.26-32.335,6.873c-1.243-10.256,7.988-11.877,7.861-21.212
				C73.491,55.689,65.465,85.598,78.62,102.54c0.251-2.223-0.64-5.387,1.552-6.008c3.152,3.811,4.609,9.302,9.85,11.032
				c3.721-16.852,9.543-31.972,27.125-37.401c9.684,13.981-5.563,19.294-7.742,31.511c8.255-0.484,6.076-9.566,12.837-11.281
				c0.907,10.639,0.143,26.671,10.018,25.746c-1.53,1.094,6.824-3.131,6.378-9.32c-1.197-6.377,3.875-14.153,6.413-24.202
				C146.061,78.598,145.695,69.866,138.479,62.745z"/>
			
				<linearGradient id="SVGID_3_" gradientUnits="userSpaceOnUse" x1="120.2305" y1="-117.46" x2="165.0714" y2="-51.7457" gradientTransform="matrix(1 0 0 -1 -50 61)">
				<stop  offset="0" style="stop-color:#FFE1C5"/>
				<stop  offset="0.5583" style="stop-color:#C0977C"/>
				<stop  offset="1" style="stop-color:#7E4C31"/>
			</linearGradient>
			<path fill="url(#SVGID_3_)" d="M122.375,104.784c0,0,3.766,10.456,0.477,14.417c-6.238,7.508,1.447,10.139-6.248,11.724
				c-7.692,1.584-29.557,1.267-23.535-9.665c6.02-10.931,10.695,1.73,16-0.633c6.755-3.01,2.06-11.248,7.535-17.465
				C121.605,97.484,122.375,104.784,122.375,104.784z"/>
			
				<linearGradient id="SVGID_4_" gradientUnits="userSpaceOnUse" x1="93.4907" y1="-82.4844" x2="155.9137" y2="8.9965" gradientTransform="matrix(1 0 0 -1 -50 61)">
				<stop  offset="0" style="stop-color:#FFE1C5"/>
				<stop  offset="0.5583" style="stop-color:#C0977C"/>
				<stop  offset="1" style="stop-color:#7E4C31"/>
			</linearGradient>
			<path fill="url(#SVGID_4_)" d="M119.339,83.506c0,0,7.104-14.373-7.524-30.302c-14.628-15.93-35.993-8.244-42.136,0
				c-6.143,8.243-10.197,35.083-5.443,27.478c4.752-7.604,3.904-15.823,15.842-26.615c9.381-8.481,15.93-6.97,25.664,0.951
				c9.733,7.921,13.625,23.073,9.506,28.488C111.127,88.92,117.816,89.27,119.339,83.506z"/>
			
				<radialGradient id="SVGID_5_" cx="605.4209" cy="292.4795" r="29.3482" gradientTransform="matrix(1.133 -0.086 -0.0118 -1.0295 -564.7905 489.8108)" gradientUnits="userSpaceOnUse">
				<stop  offset="0" style="stop-color:#FFE1C5"/>
				<stop  offset="1" style="stop-color:#C0977C"/>
			</radialGradient>
			<path fill="url(#SVGID_5_)" d="M126.643,121.238c-5.887,1.344-1.016,10.568-5.578,13.941c-7.317,2.969-10.559,4.604-18.842,2.728
				c-19.929-6.286-26.869-18.233-28.482-16.726c-5.058,7.558,14.905,21.873,25.148,28.573c9.228,5.14,22.176,5.289,32.19,4.761
				C142.812,151.656,139.327,119.654,126.643,121.238z"/>
			
				<radialGradient id="SVGID_6_" cx="154.3828" cy="-2.4473" r="42.5556" gradientTransform="matrix(1 0 0 -1 -50 61)" gradientUnits="userSpaceOnUse">
				<stop  offset="0" style="stop-color:#FFE1C5"/>
				<stop  offset="1" style="stop-color:#C0977C"/>
			</radialGradient>
			<path fill="url(#SVGID_6_)" d="M126.643,62.938c0,0-9.971-32.794-43.397-28.358C49.818,39.016,52.67,83.692,55.521,90.663
				c2.852,6.97,3.802-4.97,3.802-16.98c0-12.011,4.594-31.181,22.179-33.558c17.586-2.376,33.428,7.129,37.547,20.438
				C123.168,73.869,130.117,72.443,126.643,62.938z"/>
		</g>
	</g>
</g>
<g id="outline_x5F_white">
	<g>
		<g>
			<path fill="#FFFFFF" d="M89.146,31.055c31.372,0.564,34.831,20.218,49.333,31.69c7.219,7.121,7.582,15.853,6.57,19.87
				c-2.539,10.049-7.611,17.825-6.414,24.203c1.699,18.535,22.793,54.818-1.289,61.473c-1.654,0.408-3.422,0.654-5.394,0.654
				c-2.938,0-6.327-0.547-10.456-1.922C82.793,152.947,56.71,126.71,51.561,79.256c-2.166-22.549,5.719-35.135,13.91-40.878
				C69.418,34.555,76.824,31.277,89.146,31.055 M89.146,22.055c-0.055,0-0.108,0-0.163,0.001
				c-15.866,0.287-24.608,5.128-29.234,9.351c-5.808,4.243-10.451,10.352-13.451,17.71c-3.583,8.791-4.827,19.221-3.696,30.999
				c0.004,0.037,0.007,0.074,0.012,0.11c2.661,24.525,10.887,45.125,24.448,61.228c12.54,14.889,29.34,26.021,51.358,34.026
				c0.077,0.028,0.154,0.056,0.232,0.082c4.816,1.604,9.166,2.383,13.3,2.383c2.582,0,5.053-0.301,7.553-0.918
				c0.079-0.02,0.158-0.039,0.237-0.062c8.48-2.343,12.764-7.375,14.861-11.185c6.58-11.942,1.596-28.405-2.804-42.932
				c-1.961-6.475-3.812-12.591-4.202-16.854c-0.027-0.281-0.065-0.562-0.117-0.839c-0.287-1.527,1.291-5.703,2.561-9.059
				c1.249-3.305,2.665-7.05,3.732-11.279c1.973-7.829-0.039-19.667-8.976-28.482c-0.233-0.23-0.479-0.448-0.735-0.651
				c-3.432-2.714-6.319-6.25-9.377-9.994c-8.429-10.319-18.918-23.161-45.378-23.637C89.253,22.055,89.199,22.055,89.146,22.055
				L89.146,22.055z"/>
		</g>
	</g>
</g>
<g id="outline_x5F_black">
	<path d="M131.953,171.946L131.953,171.946c-3.479,0-7.21-0.679-11.404-2.077c-43.58-15.848-67.097-45.373-71.97-90.29
		c-2.652-27.605,9.431-39.557,14.979-43.522c3.755-3.547,11.208-7.743,25.534-8.001l0.054-0.001l0.054,0.001
		c23.68,0.426,32.796,11.586,40.839,21.433c3.271,4.003,6.358,7.785,10.301,10.904l0.246,0.217
		c8.281,8.171,8.53,18.138,7.372,22.738c-0.985,3.901-2.337,7.476-3.529,10.63c-1.848,4.886-3.442,9.105-2.846,12.287l0.039,0.28
		c0.446,4.87,2.385,11.271,4.437,18.046c4.055,13.391,8.651,28.568,3.291,38.297c-2.242,4.07-6.012,6.861-11.203,8.296
		C136.043,171.704,134.044,171.946,131.953,171.946z M89.146,34.056c-13.219,0.25-19.199,4.164-21.587,6.477l-0.365,0.302
		C62.599,44.056,52.17,54.22,54.547,78.969c4.599,42.38,26.834,70.273,67.975,85.235c3.496,1.164,6.606,1.742,9.431,1.742
		c1.6,0,3.129-0.186,4.676-0.566c3.544-0.98,6.013-2.75,7.466-5.388c4.14-7.514-0.067-21.406-3.778-33.662
		c-2.125-7.019-4.134-13.65-4.656-19.103c-0.845-4.791,1.011-9.698,3.156-15.372c1.19-3.151,2.423-6.409,3.324-9.976
		c0.783-3.113,0.601-10.629-5.658-16.89c-4.389-3.502-7.795-7.672-11.09-11.706C117.479,43.597,110.005,34.446,89.146,34.056z"/>
</g>
</svg>
