<?xml version="1.0" encoding="utf-8"?>
<!-- Generator: Adobe Illustrator 15.0.0, SVG Export Plug-In . SVG Version: 6.00 Build 0)  -->
<!DOCTYPE svg PUBLIC "-//W3C//DTD SVG 1.1//EN" "http://www.w3.org/Graphics/SVG/1.1/DTD/svg11.dtd">
<svg version="1.1" xmlns="http://www.w3.org/2000/svg" xmlns:xlink="http://www.w3.org/1999/xlink" x="0px" y="0px" width="200px"
	 height="200px" viewBox="0 0 200 200" enable-background="new 0 0 200 200" xml:space="preserve">
<g id="icon">
	<g id="Layer_2">
	</g>
	<g id="Layer_1_1_">
		<g>
			
				<ellipse transform="matrix(-0.7071 0.7071 -0.7071 -0.7071 257.5322 110.4823)" cx="105.884" cy="108.579" rx="25.64" ry="12.727"/>
			
				<linearGradient id="SVGID_1_" gradientUnits="userSpaceOnUse" x1="182.7334" y1="676.4258" x2="189.2236" y2="682.916" gradientTransform="matrix(1 0 0 1 -100 -591)">
				<stop  offset="0" style="stop-color:#F5F5F5"/>
				<stop  offset="0.5776" style="stop-color:#AE90B0"/>
				<stop  offset="1" style="stop-color:#79437B"/>
			</linearGradient>
			<path fill="url(#SVGID_1_)" d="M104.824,74.871c4.475,4.475,0.793,15.41-8.221,24.424c-9.016,9.016-19.949,12.695-24.424,8.221
				c-4.475-4.474-0.796-15.411,8.22-24.425C89.412,74.076,100.35,70.396,104.824,74.871z"/>
			
				<linearGradient id="SVGID_2_" gradientUnits="userSpaceOnUse" x1="-806.0645" y1="-2847.6055" x2="-764.9775" y2="-2847.6055" gradientTransform="matrix(0.7071 -0.7071 0.7071 0.7071 2641.071 1532.876)">
				<stop  offset="0" style="stop-color:#9D009F"/>
				<stop  offset="0.2638" style="stop-color:#FF00FF"/>
				<stop  offset="0.2824" style="stop-color:#FE0EFE"/>
				<stop  offset="0.3359" style="stop-color:#FB31FB"/>
				<stop  offset="0.3903" style="stop-color:#F84CF8"/>
				<stop  offset="0.4451" style="stop-color:#F660F6"/>
				<stop  offset="0.5007" style="stop-color:#F56BF5"/>
				<stop  offset="0.5583" style="stop-color:#F56FF5"/>
				<stop  offset="0.6475" style="stop-color:#F56BF5"/>
				<stop  offset="0.7304" style="stop-color:#F660F6"/>
				<stop  offset="0.8108" style="stop-color:#F84DF8"/>
				<stop  offset="0.8896" style="stop-color:#FA33FA"/>
				<stop  offset="0.9666" style="stop-color:#FD11FD"/>
				<stop  offset="1" style="stop-color:#FF00FF"/>
			</linearGradient>
			<path fill="url(#SVGID_2_)" d="M105.891,79.53c3.982,3.982,0.707,13.715-7.313,21.737c-8.023,8.021-17.754,11.297-21.736,7.313
				c-0.981-0.979-13.075-13.074-22.876-22.876c-6.874-6.874-7.855-21.189-7.855-21.189c-0.438-5.959,7.048-22.81,9.76-26.502
				c0,0,6.697-1.811,26.668,18.16C92.46,66.1,104.997,78.637,105.891,79.53z"/>
			
				<linearGradient id="SVGID_3_" gradientUnits="userSpaceOnUse" x1="163.8301" y1="639.668" x2="143.1646" y2="665.3343" gradientTransform="matrix(1 0 0 1 -100 -591)">
				<stop  offset="0" style="stop-color:#F56FF5"/>
				<stop  offset="1" style="stop-color:#FF00FF"/>
			</linearGradient>
			<ellipse fill="url(#SVGID_3_)" cx="55.867" cy="58.559" rx="10.197" ry="20.543"/>
			
				<radialGradient id="SVGID_4_" cx="349.0771" cy="558.3906" r="64.3649" gradientTransform="matrix(0.9202 0.3915 -0.2999 0.7048 -103.2573 -471.7599)" gradientUnits="userSpaceOnUse">
				<stop  offset="0" style="stop-color:#FF00FF;stop-opacity:0"/>
				<stop  offset="0.2879" style="stop-color:#FD00FD;stop-opacity:0.2879"/>
				<stop  offset="0.4571" style="stop-color:#F400F5;stop-opacity:0.4571"/>
				<stop  offset="0.5955" style="stop-color:#E600E7;stop-opacity:0.5955"/>
				<stop  offset="0.7174" style="stop-color:#D200D4;stop-opacity:0.7174"/>
				<stop  offset="0.8284" style="stop-color:#B800BB;stop-opacity:0.8284"/>
				<stop  offset="0.9299" style="stop-color:#99009D;stop-opacity:0.9299"/>
				<stop  offset="1" style="stop-color:#7E0083"/>
			</radialGradient>
			<path fill="url(#SVGID_4_)" d="M105.891,79.53c3.982,3.982,0.707,13.715-7.313,21.737c-8.023,8.021-17.754,11.297-21.736,7.313
				c-0.981-0.979-13.075-13.074-22.876-22.876c-6.874-6.874-7.855-21.189-7.855-21.189c-0.438-5.959,7.048-22.81,9.76-26.502
				c0,0,6.697-1.811,26.668,18.16C92.46,66.1,104.997,78.637,105.891,79.53z"/>
			
				<linearGradient id="SVGID_5_" gradientUnits="userSpaceOnUse" x1="206.2754" y1="697.9102" x2="216.9545" y2="687.231" gradientTransform="matrix(1 0 0 1 -100 -591)">
				<stop  offset="0" style="stop-color:#D2D2D2"/>
				<stop  offset="0.0653" style="stop-color:#DCDCDC"/>
				<stop  offset="0.2258" style="stop-color:#F0F0F0"/>
				<stop  offset="0.3891" style="stop-color:#FBFBFB"/>
				<stop  offset="0.5583" style="stop-color:#FFFFFF"/>
				<stop  offset="0.6684" style="stop-color:#FBFBFB"/>
				<stop  offset="0.7706" style="stop-color:#F0F0F0"/>
				<stop  offset="0.8696" style="stop-color:#DDDDDD"/>
				<stop  offset="0.9662" style="stop-color:#C3C3C3"/>
				<stop  offset="1" style="stop-color:#B8B8B8"/>
			</linearGradient>
			<path fill="url(#SVGID_5_)" d="M96.604,99.295c-9.016,9.016-19.949,12.695-24.424,8.221c0,0,23.512,23.512,25.387,25.39
				c4.476,4.475,15.41,0.795,24.425-8.222c9.015-9.015,12.695-19.949,8.22-24.425c-1.678-1.678-25.387-25.388-25.387-25.388
				C109.299,79.346,105.617,90.281,96.604,99.295z"/>
			
				<linearGradient id="SVGID_6_" gradientUnits="userSpaceOnUse" x1="148.4043" y1="-40.0957" x2="198.1895" y2="-89.8809" gradientTransform="matrix(1 0 0 -1 -50 61)">
				<stop  offset="0" style="stop-color:#FF00FF;stop-opacity:0"/>
				<stop  offset="1" style="stop-color:#980099;stop-opacity:0.8192"/>
			</linearGradient>
			<path fill="url(#SVGID_6_)" d="M96.604,99.295c-9.016,9.016-19.949,12.695-24.424,8.221c0,0,23.512,23.512,25.387,25.39
				c4.476,4.475,15.41,0.795,24.425-8.222c9.015-9.015,12.695-19.949,8.22-24.425c-1.678-1.678-25.387-25.388-25.387-25.388
				C109.299,79.346,105.617,90.281,96.604,99.295z"/>
			
				<linearGradient id="SVGID_7_" gradientUnits="userSpaceOnUse" x1="224.3027" y1="718.3623" x2="235.7684" y2="706.8965" gradientTransform="matrix(1 0 0 1 -100 -591)">
				<stop  offset="0" style="stop-color:#000000"/>
				<stop  offset="0.0013" style="stop-color:#010101"/>
				<stop  offset="0.0876" style="stop-color:#212129"/>
				<stop  offset="0.1753" style="stop-color:#3B3B4B"/>
				<stop  offset="0.2654" style="stop-color:#505065"/>
				<stop  offset="0.3577" style="stop-color:#5E5E77"/>
				<stop  offset="0.4535" style="stop-color:#676782"/>
				<stop  offset="0.5583" style="stop-color:#6A6A86"/>
				<stop  offset="0.635" style="stop-color:#676782"/>
				<stop  offset="0.7114" style="stop-color:#5D5D76"/>
				<stop  offset="0.7877" style="stop-color:#4E4E62"/>
				<stop  offset="0.8639" style="stop-color:#373746"/>
				<stop  offset="0.9394" style="stop-color:#1B1B22"/>
				<stop  offset="1" style="stop-color:#000000"/>
			</linearGradient>
			<path fill="url(#SVGID_7_)" d="M114.885,117.577c-10.013,10.014-22.158,14.103-27.129,9.131c0,0,26.116,26.116,28.2,28.199
				c4.97,4.971,17.116,0.883,27.13-9.13c10.012-10.014,14.1-22.159,9.129-27.131c-1.861-1.862-28.199-28.198-28.199-28.198
				C128.986,95.419,124.898,107.564,114.885,117.577z"/>
		</g>
	</g>
</g>
<g id="outline_x5F_white">
	<g>
		<g>
			<path fill="#FFFFFF" d="M56.364,37.973c1.872,0,9.266,1.297,26.171,18.203c5.631,5.63,12.1,12.1,16.809,16.809
				c0.061-0.001,0.122-0.001,0.183-0.001c2.168,0,4.006,0.597,5.298,1.888c0,0,6.877,6.878,13.485,13.487
				c2.328,0.033,4.308,0.691,5.705,2.09c0,0,26.338,26.336,28.198,28.199c4.972,4.971,0.884,17.117-9.129,27.129
				c-7.122,7.121-15.321,11.246-21.253,11.246c-2.407,0-4.441-0.682-5.877-2.115c-2.084-2.083-28.2-28.199-28.2-28.199
				c-1.398-1.398-2.056-3.378-2.09-5.705c-6.611-6.611-13.486-13.486-13.486-13.486c-1.328-1.328-1.921-3.231-1.887-5.479
				c-4.578-4.578-10.816-10.816-16.33-16.33c-6.874-6.874-7.855-21.189-7.855-21.189c0-0.006,0-0.013,0-0.019
				c-0.282-1.882-0.438-3.874-0.438-5.94c0-11.346,4.565-20.543,10.197-20.543C55.867,38.016,56.025,37.973,56.364,37.973
				 M56.366,25.973C56.365,25.973,56.365,25.973,56.366,25.973h-0.002c-0.491,0-0.973,0.022-1.444,0.067
				c-12.371,0.655-21.25,14.127-21.25,32.518c0,2.432,0.168,4.862,0.5,7.231c0.323,4.002,2.132,19.227,11.308,28.403l8.516,8.516
				l4.97,4.97c1.008,3.871,2.982,6.575,4.734,8.326l10.724,10.725c0.879,3.263,2.516,6.131,4.85,8.465
				c0,0,26.119,26.119,28.203,28.201c3.68,3.683,8.646,5.629,14.359,5.629c9.378,0,20.495-5.519,29.738-14.76
				c15.421-15.424,19.26-33.971,9.129-44.102c-1.86-1.861-28.199-28.199-28.199-28.199c-2.335-2.335-5.205-3.972-8.466-4.851
				l-10.726-10.726c-1.744-1.742-4.447-3.719-8.324-4.729l-2.041-2.043L91.021,47.69C76.408,33.078,65.072,25.974,56.366,25.973
				L56.366,25.973L56.366,25.973z"/>
		</g>
	</g>
</g>
<g id="outline_x5F_black">
	<g>
		<path d="M56.364,37.973c1.872,0,9.266,1.297,26.171,18.203c5.631,5.63,12.1,12.1,16.809,16.809
			c0.062-0.001,0.122-0.001,0.183-0.001c2.167,0,4.006,0.597,5.298,1.888c0,0,6.877,6.878,13.485,13.487
			c2.328,0.033,4.308,0.691,5.705,2.09c0,0,26.338,26.336,28.198,28.199c4.972,4.971,0.884,17.117-9.129,27.129
			c-7.122,7.121-15.321,11.246-21.253,11.246c-2.407,0-4.441-0.682-5.877-2.115c-2.084-2.083-28.2-28.199-28.2-28.199
			c-1.398-1.398-2.056-3.378-2.09-5.705c-6.611-6.611-13.486-13.486-13.486-13.486c-1.328-1.328-1.921-3.231-1.887-5.479
			c-4.578-4.578-10.816-10.816-16.33-16.33c-6.874-6.874-7.855-21.189-7.855-21.189c0-0.006,0-0.013,0-0.019
			c-0.282-1.882-0.438-3.874-0.438-5.94c0-11.346,4.565-20.543,10.197-20.543C55.867,38.016,56.024,37.973,56.364,37.973
			 M56.365,31.973L56.365,31.973L56.365,31.973c-0.349,0-0.684,0.018-1.004,0.053C46.239,32.42,39.67,43.457,39.67,58.559
			c0,2.216,0.157,4.428,0.467,6.578c0.19,2.465,1.626,16.855,9.583,24.812l5.692,5.692l9.063,9.063
			c0.527,3.433,2.096,5.688,3.463,7.055l11.965,11.966c0.486,2.862,1.712,5.327,3.61,7.227c0,0,26.116,26.115,28.201,28.199
			c2.531,2.533,6.031,3.871,10.118,3.871c7.822,0,17.354-4.858,25.495-13.002c12.754-12.756,16.679-28.064,9.129-35.613
			c-1.86-1.862-28.199-28.2-28.199-28.2c-1.897-1.898-4.362-3.124-7.226-3.61L109.066,70.63c-1.856-1.854-4.266-3.029-7.055-3.46
			L98.7,63.857L86.777,51.933C73.72,38.875,63.203,31.973,56.365,31.973L56.365,31.973L56.365,31.973z"/>
	</g>
</g>
</svg>
