<?xml version="1.0" encoding="utf-8"?>
<!-- Generator: Adobe Illustrator 15.0.0, SVG Export Plug-In . SVG Version: 6.00 Build 0)  -->
<!DOCTYPE svg PUBLIC "-//W3C//DTD SVG 1.1//EN" "http://www.w3.org/Graphics/SVG/1.1/DTD/svg11.dtd">
<svg version="1.1" xmlns="http://www.w3.org/2000/svg" xmlns:xlink="http://www.w3.org/1999/xlink" x="0px" y="0px" width="200px"
	 height="200px" viewBox="0 0 200 200" enable-background="new 0 0 200 200" xml:space="preserve">
<g id="icon">
	<g id="Layer_2">
	</g>
	<g id="Layer_1_1_">
		<g>
			
				<radialGradient id="SVGID_1_" cx="141.5117" cy="-12.4766" r="70.2409" gradientTransform="matrix(1 0 0 -1 -50 61)" gradientUnits="userSpaceOnUse">
				<stop  offset="0" style="stop-color:#FFE1C5"/>
				<stop  offset="1" style="stop-color:#C0977C"/>
			</radialGradient>
			<circle fill="url(#SVGID_1_)" cx="100" cy="100.001" r="70.241"/>
			<path d="M151.35,69.459c-4.256,0.294-6.604-5.035-10.107-7.017c-38.198-21.609-61.931,50.016-102.246,32.323
				C65.043,75.448,123.945,33.491,151.35,69.459z"/>
			<path d="M134.498,97.591c6.969,3.857,13.482,8.254,25.589,6.05c-2.845,2.219-5.151,4.938-10.032,5.25
				c-3.055,0.776,8.697,2.791,5.644,3.567c-2.517,1.791-5.519,3.524-8.912,5.176c-1.188,0.579-8.99-1.649-8.99-1.649
				s5.847,3.172,5.172,3.447c-20.516,8.435-52.806,14.666-76.918,12.586l-4.152-6.414C90.854,126.085,116.723,112.65,134.498,97.591
				z"/>
		</g>
	</g>
</g>
<g id="outline_x5F_white">
	<g>
		<g>
			<path fill="#FFFFFF" d="M100,29.759c38.793,0,70.24,31.448,70.24,70.242c0,38.792-31.447,70.24-70.24,70.24
				s-70.241-31.448-70.241-70.24C29.759,61.207,61.207,29.759,100,29.759 M100,17.759c-45.348,0-82.241,36.894-82.241,82.242
				c0,45.349,36.894,82.24,82.241,82.24c45.348,0,82.24-36.894,82.24-82.24C182.24,54.653,145.348,17.759,100,17.759L100,17.759z"/>
		</g>
	</g>
</g>
<g id="outline_x5F_black">
	<g>
		<path d="M100,29.759c38.793,0,70.24,31.448,70.24,70.242c0,38.792-31.447,70.24-70.24,70.24s-70.241-31.448-70.241-70.24
			C29.759,61.207,61.207,29.759,100,29.759 M100,23.759c-42.04,0-76.241,34.202-76.241,76.242c0,42.039,34.201,76.24,76.241,76.24
			c42.039,0,76.24-34.201,76.24-76.24C176.24,57.961,142.039,23.759,100,23.759L100,23.759z"/>
	</g>
</g>
</svg>
