<?xml version="1.0" encoding="utf-8"?>
<!-- Generator: Adobe Illustrator 15.0.0, SVG Export Plug-In . SVG Version: 6.00 Build 0)  -->
<!DOCTYPE svg PUBLIC "-//W3C//DTD SVG 1.1//EN" "http://www.w3.org/Graphics/SVG/1.1/DTD/svg11.dtd">
<svg version="1.1" xmlns="http://www.w3.org/2000/svg" xmlns:xlink="http://www.w3.org/1999/xlink" x="0px" y="0px" width="200px"
	 height="200px" viewBox="0 0 200 200" enable-background="new 0 0 200 200" xml:space="preserve">
<g id="icon">
	<g id="Layer_2">
	</g>
	<g id="Layer_1_1_">
		<g>
			<g>
				<path fill="#FFFFFF" d="M124.331,67.747c-0.212-0.064-0.429-0.109-0.642-0.14c-3.473,0.27-6.834,3.581-7.953,8.382
					c-0.137,0.588-0.223,1.174-0.283,1.756c1.4-0.835,2.878-1.543,4.439-2.088c2.508-0.875,5.043-1.287,7.547-1.287
					c0.414,0,0.826,0.011,1.238,0.034C128.248,71.077,126.613,68.427,124.331,67.747z"/>
				<path fill="#FFFFFF" d="M77.327,80.452c-0.266-0.087-0.534-0.152-0.807-0.201c-4.433,0.087-8.944,3.663-10.711,9.093
					c-0.214,0.664-0.368,1.33-0.485,1.993c1.84-0.867,3.771-1.583,5.795-2.107c2.699-0.699,5.401-1.029,8.062-1.029
					c1.074,0,2.142,0.054,3.199,0.159C82.071,84.521,80.18,81.379,77.327,80.452z"/>
			</g>
			<g>
				
					<radialGradient id="SVGID_1_" cx="-669.0986" cy="898.3682" r="37.5243" fx="-669.2065" fy="889.057" gradientTransform="matrix(0.8647 -0.2716 -0.255 -0.9621 933.0999 780.4062)" gradientUnits="userSpaceOnUse">
					<stop  offset="0.0859" style="stop-color:#FFFA00"/>
					<stop  offset="0.3558" style="stop-color:#FFE300"/>
					<stop  offset="1" style="stop-color:#F7941E"/>
				</radialGradient>
				<path fill="url(#SVGID_1_)" d="M119.895,75.657c-14.242,4.973-22.129,22.804-17.617,39.827
					c4.515,17.025,19.718,26.795,33.957,21.822c14.244-4.972,22.129-22.803,17.617-39.826
					C149.338,80.456,134.135,70.686,119.895,75.657z"/>
				<g>
					
						<radialGradient id="SVGID_2_" cx="-666.6196" cy="919.748" r="12.1754" gradientTransform="matrix(0.8647 -0.2716 -0.255 -0.9621 933.0999 780.4062)" gradientUnits="userSpaceOnUse">
						<stop  offset="0.0859" style="stop-color:#FFFA00"/>
						<stop  offset="0.3558" style="stop-color:#FFE300"/>
						<stop  offset="1" style="stop-color:#F7941E"/>
					</radialGradient>
					<path fill="url(#SVGID_2_)" d="M131.698,80.483c1.661-7.137-1.691-14.326-7.489-16.058c-5.8-1.731-11.85,2.65-13.511,9.787
						c-1.666,7.137,1.688,14.326,7.487,16.058C123.982,92.003,130.033,87.62,131.698,80.483z M115.455,75.633
						c1.268-5.441,5.314-8.95,8.877-7.886c3.371,1.007,5.346,6.312,4.075,11.754c-1.269,5.442-5.356,8.938-8.667,7.949
						C116.24,86.404,114.186,81.075,115.455,75.633z"/>
					
						<radialGradient id="SVGID_3_" cx="-665.0723" cy="916.4287" r="8.6591" gradientTransform="matrix(0.8647 -0.2716 -0.255 -0.9621 933.0999 780.4062)" gradientUnits="userSpaceOnUse">
						<stop  offset="0.0859" style="stop-color:#FFFA00"/>
						<stop  offset="0.3558" style="stop-color:#FFE300"/>
						<stop  offset="0.6258" style="stop-color:#F7941E"/>
						<stop  offset="1" style="stop-color:#CA7C00"/>
					</radialGradient>
					<path fill="url(#SVGID_3_)" d="M131.698,80.483c1.661-7.137-1.237-12.657-7.087-14.149c-2.832-0.722-8.268,1.568-9.932,8.706
						c-1.662,7.136,0.783,13.559,6.609,15.184C123.701,90.896,130.033,87.62,131.698,80.483z M115.455,75.633
						c1.268-5.441,5.314-8.95,8.877-7.886c3.371,1.007,5.346,6.312,4.075,11.754c-1.269,5.442-5.356,8.938-8.667,7.949
						C116.24,86.404,114.186,81.075,115.455,75.633z"/>
					
						<radialGradient id="SVGID_4_" cx="-682.0884" cy="918.1826" r="5.8936" gradientTransform="matrix(0.8647 -0.2716 -0.255 -0.9621 933.0999 780.4062)" gradientUnits="userSpaceOnUse">
						<stop  offset="0.0245" style="stop-color:#FFFA00"/>
						<stop  offset="1" style="stop-color:#FFFA00;stop-opacity:0"/>
					</radialGradient>
					<path fill="url(#SVGID_4_)" d="M131.698,80.483c1.661-7.137-1.691-14.326-7.489-16.058c-5.8-1.731-11.85,2.65-13.511,9.787
						c-1.666,7.137,1.688,14.326,7.487,16.058C123.982,92.003,130.033,87.62,131.698,80.483z M115.455,75.633
						c1.268-5.441,5.314-8.95,8.877-7.886c3.371,1.007,5.346,6.312,4.075,11.754c-1.269,5.442-5.356,8.938-8.667,7.949
						C116.24,86.404,114.186,81.075,115.455,75.633z"/>
					
						<radialGradient id="SVGID_5_" cx="-661.1875" cy="931.4424" r="3.2864" gradientTransform="matrix(0.8647 -0.2716 -0.255 -0.9621 933.0999 780.4062)" gradientUnits="userSpaceOnUse">
						<stop  offset="0.0245" style="stop-color:#FFFA00"/>
						<stop  offset="1" style="stop-color:#FFFA00;stop-opacity:0"/>
					</radialGradient>
					<path fill="url(#SVGID_5_)" d="M131.698,80.483c1.661-7.137-1.691-14.326-7.489-16.058c-5.8-1.731-11.85,2.65-13.511,9.787
						c-1.666,7.137,1.688,14.326,7.487,16.058C123.982,92.003,130.033,87.62,131.698,80.483z M115.455,75.633
						c1.268-5.441,5.314-8.95,8.877-7.886c3.371,1.007,5.346,6.312,4.075,11.754c-1.269,5.442-5.356,8.938-8.667,7.949
						C116.24,86.404,114.186,81.075,115.455,75.633z"/>
					
						<radialGradient id="SVGID_6_" cx="-670.1182" cy="927.4844" r="38.2444" gradientTransform="matrix(0.8647 -0.2716 -0.255 -0.9621 933.0999 780.4062)" gradientUnits="userSpaceOnUse">
						<stop  offset="0.0859" style="stop-color:#FFFA00"/>
						<stop  offset="0.3558" style="stop-color:#FFE300"/>
						<stop  offset="1" style="stop-color:#F7941E"/>
					</radialGradient>
					<path fill="url(#SVGID_6_)" d="M131.645,80.714c1.565-6.715-1.127-13.34-6.011-14.798s-10.11,2.801-11.677,9.515
						c-1.564,6.714,1.126,13.338,6.01,14.797C124.852,91.687,130.08,87.427,131.645,80.714z M115.736,75.989
						c1.347-5.771,5.932-9.403,10.05-8.173c3.905,1.167,6.284,6.878,4.938,12.649c-1.345,5.77-5.976,9.389-9.807,8.244
						C116.869,87.501,114.393,81.759,115.736,75.989z"/>
				</g>
				
					<radialGradient id="SVGID_7_" cx="-666.3975" cy="936.8613" r="6.3052" fx="-666.4157" fy="935.2968" gradientTransform="matrix(0.8647 -0.2716 -0.255 -0.9621 933.0999 780.4062)" gradientUnits="userSpaceOnUse">
					<stop  offset="0.0859" style="stop-color:#FFFA00"/>
					<stop  offset="0.3558" style="stop-color:#FFE300"/>
					<stop  offset="1" style="stop-color:#F7941E"/>
				</radialGradient>
				<path fill="url(#SVGID_7_)" d="M122.947,60.037c0.74,2.796-0.694,5.703-3.209,6.492c-2.512,0.789-5.149-0.837-5.891-3.634
					c-0.74-2.795,0.694-5.7,3.209-6.49C119.568,55.616,122.207,57.242,122.947,60.037z"/>
				
					<radialGradient id="SVGID_8_" cx="-665.9336" cy="949.3242" r="8.3495" gradientTransform="matrix(0.8647 -0.2716 -0.255 -0.9621 933.0999 780.4062)" gradientUnits="userSpaceOnUse">
					<stop  offset="0.0859" style="stop-color:#FFFA00"/>
					<stop  offset="0.3558" style="stop-color:#FFE300"/>
					<stop  offset="1" style="stop-color:#F7941E"/>
				</radialGradient>
				<path fill="url(#SVGID_8_)" d="M117.464,57.939c-0.522,0.164-1.069-0.175-1.224-0.755l-0.79-2.979
					c-0.401-1.515-1.158-2.223-2.304-3.293c-0.959-0.897-2.155-2.015-3.336-3.913c-1.324-2.134-1.361-5.094-0.09-7.037
					c1.168-1.78,3.129-2.364,5.389-1.601c3.408,1.154,4.428,5.488,4.471,5.672c0.133,0.586-0.205,1.175-0.715,1.317
					c-0.526,0.14-1.062-0.22-1.195-0.808c-0.008-0.029-0.796-3.308-3.115-4.093c-1.447-0.49-2.566-0.209-3.234,0.809
					c-0.786,1.204-0.74,3.145,0.109,4.516c1.025,1.651,2.062,2.619,2.978,3.474c1.214,1.136,2.36,2.208,2.934,4.363l0.789,2.979
					C118.283,57.171,117.984,57.775,117.464,57.939z"/>
				
					<radialGradient id="SVGID_9_" cx="-903.4756" cy="1003.959" r="37.3495" fx="-903.583" fy="994.6913" gradientTransform="matrix(0.8048 -0.281 -0.255 -0.9621 1109.0911 807.8742)" gradientUnits="userSpaceOnUse">
					<stop  offset="0.0859" style="stop-color:#FFFA00"/>
					<stop  offset="0.3558" style="stop-color:#FFE300"/>
					<stop  offset="1" style="stop-color:#F7941E"/>
				</radialGradient>
				<path fill="url(#SVGID_9_)" d="M153.852,97.481c4.512,17.023-3.373,34.854-17.617,39.826
					c-14.239,4.974-29.442-4.797-33.957-21.822c-3.305-12.475,0.046-25.383,7.678-33.35c0,0,2.947,6.383,9.801,1.057
					c3.055-2.372,5.818-5.924,7.805-7.201c0,0,2.731,1.166,3.244,0.855c2.154-1.3,1.551-1.954,1.551-1.954
					C142.12,77.027,150.659,85.439,153.852,97.481z"/>
				
					<radialGradient id="SVGID_10_" cx="111.5645" cy="7.686" r="20.1378" gradientTransform="matrix(1 0 0 -1 -50 61)" gradientUnits="userSpaceOnUse">
					<stop  offset="0.2761" style="stop-color:#90D2FF"/>
					<stop  offset="0.7055" style="stop-color:#328BFF"/>
					<stop  offset="1" style="stop-color:#7942FF"/>
				</radialGradient>
				<path fill="url(#SVGID_10_)" d="M152.07,98.707c3.843,14.502-2.875,29.691-15.006,33.928
					c-12.133,4.235-25.084-4.089-28.928-18.59c-3.846-14.503,2.873-29.692,15.006-33.929
					C135.273,75.882,148.227,84.204,152.07,98.707z"/>
				
					<radialGradient id="SVGID_11_" cx="-901.5439" cy="999.7656" r="30.5108" fx="-901.6317" fy="992.1948" gradientTransform="matrix(0.8048 -0.281 -0.255 -0.9621 1109.0911 807.8742)" gradientUnits="userSpaceOnUse">
					<stop  offset="0.2761" style="stop-color:#90D2FF"/>
					<stop  offset="0.7055" style="stop-color:#328BFF"/>
					<stop  offset="1" style="stop-color:#7942FF"/>
				</radialGradient>
				<path fill="url(#SVGID_11_)" d="M151.154,99.061c3.584,13.526-2.68,27.694-13.996,31.646
					c-11.315,3.95-23.396-3.812-26.982-17.34s2.682-27.696,13.997-31.647C135.488,77.77,147.568,85.533,151.154,99.061z"/>
				
					<radialGradient id="SVGID_12_" cx="-900.8447" cy="999.1494" r="25.998" fx="-900.9194" fy="992.6985" gradientTransform="matrix(0.8048 -0.281 -0.255 -0.9621 1109.0911 807.8742)" gradientUnits="userSpaceOnUse">
					<stop  offset="0.2761" style="stop-color:#90D2FF"/>
					<stop  offset="0.7055" style="stop-color:#328BFF"/>
					<stop  offset="1" style="stop-color:#7942FF"/>
				</radialGradient>
				<path fill="url(#SVGID_12_)" d="M148.538,99.499c3.054,11.526-2.284,23.601-11.927,26.966
					c-9.641,3.366-19.936-3.249-22.991-14.773c-3.056-11.527,2.284-23.602,11.926-26.967
					C135.189,81.357,145.482,87.973,148.538,99.499z"/>
			</g>
			<path opacity="0.28" fill="#231F20" enable-background="new    " d="M114.254,115.215c-0.156-0.869-0.34-1.72-0.533-2.562
				c-0.055-0.231-0.111-0.461-0.166-0.692c-0.168-0.683-0.348-1.354-0.539-2.017c-0.047-0.163-0.091-0.329-0.139-0.492
				c-0.238-0.797-0.496-1.578-0.768-2.346c-0.067-0.186-0.137-0.365-0.205-0.549c-0.228-0.611-0.461-1.213-0.706-1.805
				c-0.082-0.195-0.162-0.395-0.245-0.588c-0.314-0.729-0.643-1.446-0.99-2.145c-0.041-0.082-0.084-0.162-0.125-0.244
				c-0.312-0.621-0.639-1.226-0.975-1.818c-0.105-0.186-0.213-0.369-0.319-0.553c-0.333-0.569-0.676-1.127-1.03-1.668
				c-0.058-0.09-0.113-0.184-0.173-0.273c-0.411-0.618-0.836-1.214-1.272-1.795c-0.111-0.15-0.228-0.296-0.342-0.445
				c-0.354-0.457-0.717-0.902-1.088-1.336c-0.111-0.133-0.222-0.268-0.337-0.396c-0.465-0.531-0.938-1.045-1.429-1.535
				c-0.079-0.082-0.162-0.157-0.243-0.235c-0.013,0.034-0.026,0.067-0.039,0.103c-0.19,0.504-0.372,1.016-0.543,1.535
				c-0.036,0.113-0.075,0.225-0.114,0.34c-0.192,0.611-0.373,1.23-0.539,1.859c-0.039,0.141-0.071,0.282-0.107,0.424
				c-0.135,0.529-0.26,1.064-0.373,1.605c-0.029,0.141-0.062,0.281-0.091,0.426c-0.13,0.645-0.244,1.295-0.344,1.953
				c-0.021,0.131-0.035,0.266-0.055,0.398c-0.08,0.557-0.146,1.116-0.205,1.682c-0.016,0.162-0.033,0.324-0.047,0.486
				c-0.062,0.672-0.108,1.348-0.138,2.028c-0.005,0.109-0.005,0.22-0.009,0.328c-0.021,0.592-0.027,1.185-0.023,1.781
				c0.001,0.176,0.002,0.35,0.005,0.527c0.014,0.689,0.039,1.383,0.084,2.078c0.007,0.072,0.015,0.143,0.02,0.213
				c0.046,0.635,0.107,1.27,0.183,1.906c0.021,0.184,0.043,0.364,0.066,0.547c0.092,0.705,0.193,1.408,0.32,2.11
				c1.812,10.041,6.914,17.824,13.365,21.761C115.367,129.302,115.523,122.253,114.254,115.215z"/>
			<g>
				
					<radialGradient id="SVGID_13_" cx="-321.2671" cy="635.498" r="43.0678" fx="-321.3909" fy="624.8114" gradientTransform="matrix(0.9749 -0.2227 -0.2227 -0.9749 531.3264 662.9747)" gradientUnits="userSpaceOnUse">
					<stop  offset="0.0859" style="stop-color:#FFFA00"/>
					<stop  offset="0.3558" style="stop-color:#FFE300"/>
					<stop  offset="1" style="stop-color:#F7941E"/>
				</radialGradient>
				<path fill="url(#SVGID_13_)" d="M71.119,89.229c-18.465,4.782-29.768,24.708-25.245,44.507
					c4.522,19.8,23.158,31.975,41.623,27.193c18.466-4.781,29.769-24.707,25.245-44.506C108.219,96.624,89.585,84.449,71.119,89.229
					z"/>
				<g>
					
						<radialGradient id="SVGID_14_" cx="-318.4194" cy="660.0361" r="13.9749" gradientTransform="matrix(0.9749 -0.2227 -0.2227 -0.9749 531.3264 662.9747)" gradientUnits="userSpaceOnUse">
						<stop  offset="0.0859" style="stop-color:#FFFA00"/>
						<stop  offset="0.3558" style="stop-color:#FFE300"/>
						<stop  offset="1" style="stop-color:#F7941E"/>
					</radialGradient>
					<path fill="url(#SVGID_14_)" d="M85.785,95.521c2.624-8.07-1.127-16.525-8.375-18.884c-7.252-2.356-15.257,2.274-17.881,10.345
						c-2.626,8.071,1.126,16.525,8.376,18.884C75.153,108.225,83.159,103.592,85.785,95.521z M65.478,88.917
						c2-6.154,7.398-9.914,11.851-8.466c4.218,1.371,6.346,7.578,4.345,13.732c-2.003,6.154-7.451,9.896-11.591,8.549
						C65.708,101.311,63.475,95.071,65.478,88.917z"/>
					
						<radialGradient id="SVGID_15_" cx="-316.6445" cy="656.2246" r="9.9387" gradientTransform="matrix(0.9749 -0.2227 -0.2227 -0.9749 531.3264 662.9747)" gradientUnits="userSpaceOnUse">
						<stop  offset="0.0859" style="stop-color:#FFFA00"/>
						<stop  offset="0.3558" style="stop-color:#FFE300"/>
						<stop  offset="0.6258" style="stop-color:#F7941E"/>
						<stop  offset="1" style="stop-color:#CA7C00"/>
					</radialGradient>
					<path fill="url(#SVGID_15_)" d="M85.785,95.521c2.624-8.07-0.669-14.583-8.001-16.67c-3.549-1.01-10.624,1.265-13.249,9.336
						s0.027,15.588,7.318,17.824C74.872,106.938,83.159,103.592,85.785,95.521z M65.478,88.917c2-6.154,7.398-9.914,11.851-8.466
						c4.218,1.371,6.346,7.578,4.345,13.732c-2.003,6.154-7.451,9.896-11.591,8.549C65.708,101.311,63.475,95.071,65.478,88.917z"/>
					
						<radialGradient id="SVGID_16_" cx="-336.1738" cy="658.2402" r="6.7645" gradientTransform="matrix(0.9749 -0.2227 -0.2227 -0.9749 531.3264 662.9747)" gradientUnits="userSpaceOnUse">
						<stop  offset="0.0245" style="stop-color:#FFFA00"/>
						<stop  offset="1" style="stop-color:#FFFA00;stop-opacity:0"/>
					</radialGradient>
					<path fill="url(#SVGID_16_)" d="M85.785,95.521c2.624-8.07-1.127-16.525-8.375-18.884c-7.252-2.356-15.257,2.274-17.881,10.345
						c-2.626,8.071,1.126,16.525,8.376,18.884C75.153,108.225,83.159,103.592,85.785,95.521z M65.478,88.917
						c2-6.154,7.398-9.914,11.851-8.466c4.218,1.371,6.346,7.578,4.345,13.732c-2.003,6.154-7.451,9.896-11.591,8.549
						C65.708,101.311,63.475,95.071,65.478,88.917z"/>
					
						<radialGradient id="SVGID_17_" cx="-312.1841" cy="673.458" r="3.7723" gradientTransform="matrix(0.9749 -0.2227 -0.2227 -0.9749 531.3264 662.9747)" gradientUnits="userSpaceOnUse">
						<stop  offset="0.0245" style="stop-color:#FFFA00"/>
						<stop  offset="1" style="stop-color:#FFFA00;stop-opacity:0"/>
					</radialGradient>
					<path fill="url(#SVGID_17_)" d="M85.785,95.521c2.624-8.07-1.127-16.525-8.375-18.884c-7.252-2.356-15.257,2.274-17.881,10.345
						c-2.626,8.071,1.126,16.525,8.376,18.884C75.153,108.225,83.159,103.592,85.785,95.521z M65.478,88.917
						c2-6.154,7.398-9.914,11.851-8.466c4.218,1.371,6.346,7.578,4.345,13.732c-2.003,6.154-7.451,9.896-11.591,8.549
						C65.708,101.311,63.475,95.071,65.478,88.917z"/>
					
						<radialGradient id="SVGID_18_" cx="-322.436" cy="668.9141" r="43.8937" gradientTransform="matrix(0.9749 -0.2227 -0.2227 -0.9749 531.3264 662.9747)" gradientUnits="userSpaceOnUse">
						<stop  offset="0.0859" style="stop-color:#FFFA00"/>
						<stop  offset="0.3558" style="stop-color:#FFE300"/>
						<stop  offset="1" style="stop-color:#F7941E"/>
					</radialGradient>
					<path fill="url(#SVGID_18_)" d="M85.7,95.78c2.471-7.594-0.479-15.358-6.586-17.344c-6.106-1.986-13.058,2.559-15.527,10.152
						c-2.47,7.592,0.479,15.357,6.586,17.344C76.279,107.918,83.231,103.372,85.7,95.78z M65.811,89.343
						c2.123-6.525,8.212-10.393,13.362-8.719c4.883,1.588,7.501,8.287,5.377,14.812c-2.121,6.525-8.269,10.375-13.06,8.816
						C66.43,102.607,63.689,95.868,65.811,89.343z"/>
				</g>
				
					<radialGradient id="SVGID_19_" cx="-318.165" cy="679.6748" r="7.2366" fx="-318.1858" fy="677.879" gradientTransform="matrix(0.9749 -0.2227 -0.2227 -0.9749 531.3264 662.9747)" gradientUnits="userSpaceOnUse">
					<stop  offset="0.0859" style="stop-color:#FFFA00"/>
					<stop  offset="0.3558" style="stop-color:#FFE300"/>
					<stop  offset="1" style="stop-color:#F7941E"/>
				</radialGradient>
				<circle fill="url(#SVGID_19_)" cx="70.232" cy="72.872" r="6.039"/>
				
					<radialGradient id="SVGID_20_" cx="-317.6318" cy="693.9766" r="9.5826" gradientTransform="matrix(0.9749 -0.2227 -0.2227 -0.9749 531.3264 662.9747)" gradientUnits="userSpaceOnUse">
					<stop  offset="0.0859" style="stop-color:#FFFA00"/>
					<stop  offset="0.3558" style="stop-color:#FFE300"/>
					<stop  offset="1" style="stop-color:#F7941E"/>
				</radialGradient>
				<path fill="url(#SVGID_20_)" d="M69.295,68.77c-0.676,0.154-1.348-0.269-1.502-0.944l-0.792-3.465
					c-0.402-1.763-1.313-2.622-2.694-3.922c-1.156-1.09-2.597-2.448-3.961-4.699c-1.532-2.531-1.369-5.926,0.389-8.07
					c1.611-1.964,4.149-2.507,6.965-1.487c4.253,1.542,5.24,6.573,5.28,6.788c0.128,0.681-0.346,1.333-1.001,1.463
					c-0.681,0.127-1.336-0.321-1.464-1.002c-0.008-0.034-0.776-3.841-3.671-4.89c-1.805-0.655-3.248-0.406-4.17,0.718
					c-1.088,1.328-1.166,3.556-0.182,5.182c1.186,1.958,2.435,3.134,3.535,4.173c1.463,1.38,2.847,2.683,3.419,5.188l0.792,3.465
					C70.393,67.943,69.971,68.615,69.295,68.77z"/>
				
					<radialGradient id="SVGID_21_" cx="-533.333" cy="731.7998" r="42.8648" fx="-533.4562" fy="721.1636" gradientTransform="matrix(0.9092 -0.2354 -0.2227 -0.9749 725.2761 700.6366)" gradientUnits="userSpaceOnUse">
					<stop  offset="0.0859" style="stop-color:#FFFA00"/>
					<stop  offset="0.3558" style="stop-color:#FFE300"/>
					<stop  offset="1" style="stop-color:#F7941E"/>
				</radialGradient>
				<path fill="url(#SVGID_21_)" d="M112.742,116.425c4.521,19.8-6.779,39.726-25.245,44.505
					c-18.465,4.781-37.101-7.394-41.623-27.193c-3.313-14.508,1.87-29.084,12.144-37.721c0,0,3.291,7.504,12.388,1.842
					c4.054-2.522,7.819-6.414,10.438-7.751c0,0,3.391,1.513,4.065,1.19c2.833-1.352,2.111-2.14,2.111-2.14
					C99.285,92.231,109.543,102.421,112.742,116.425z"/>
				
					<radialGradient id="SVGID_22_" cx="90.229" cy="-48.9805" r="4.0138" gradientTransform="matrix(1 0 0 -1 -50 61)" gradientUnits="userSpaceOnUse">
					<stop  offset="0.2761" style="stop-color:#90D2FF"/>
					<stop  offset="0.7055" style="stop-color:#328BFF"/>
					<stop  offset="1" style="stop-color:#7942FF"/>
				</radialGradient>
				<path fill="url(#SVGID_22_)" d="M110.391,117.715c3.853,16.865-5.774,33.84-21.506,37.913
					c-15.73,4.072-31.604-6.299-35.457-23.165c-3.853-16.865,5.775-33.841,21.505-37.913
					C90.663,90.477,106.537,100.85,110.391,117.715z"/>
				
					<radialGradient id="SVGID_23_" cx="-531.2798" cy="727.0332" r="35.1154" fx="-531.3807" fy="718.3199" gradientTransform="matrix(0.9092 -0.2354 -0.2227 -0.9749 725.2761 700.6366)" gradientUnits="userSpaceOnUse">
					<stop  offset="0.2761" style="stop-color:#90D2FF"/>
					<stop  offset="0.7055" style="stop-color:#328BFF"/>
					<stop  offset="1" style="stop-color:#7942FF"/>
				</radialGradient>
				<path fill="url(#SVGID_23_)" d="M109.124,118.061c3.603,15.775-5.401,31.651-20.116,35.463
					c-14.714,3.811-29.562-5.892-33.167-21.668c-3.603-15.776,5.403-31.654,20.116-35.463
					C90.671,92.581,105.52,102.283,109.124,118.061z"/>
				
					<radialGradient id="SVGID_24_" cx="-530.0459" cy="725.9629" r="30.7415" fx="-530.1343" fy="718.3349" gradientTransform="matrix(0.9092 -0.2354 -0.2227 -0.9749 725.2761 700.6366)" gradientUnits="userSpaceOnUse">
					<stop  offset="0.2761" style="stop-color:#90D2FF"/>
					<stop  offset="0.7055" style="stop-color:#328BFF"/>
					<stop  offset="1" style="stop-color:#7942FF"/>
				</radialGradient>
				<path fill="url(#SVGID_24_)" d="M106.896,118.67c3.153,13.811-4.729,27.708-17.609,31.045
					c-12.881,3.335-25.88-5.156-29.035-18.969c-3.153-13.812,4.73-27.71,17.609-31.046
					C90.743,96.365,103.742,104.857,106.896,118.67z"/>
			</g>
			
				<linearGradient id="SVGID_25_" gradientUnits="userSpaceOnUse" x1="135.8955" y1="-69.3838" x2="128.5625" y2="-42.3838" gradientTransform="matrix(1 0 0 -1 -50 61)">
				<stop  offset="0.1758" style="stop-color:#08DEFF;stop-opacity:0"/>
				<stop  offset="1" style="stop-color:#D3EBF4"/>
			</linearGradient>
			<ellipse fill="url(#SVGID_25_)" cx="82.482" cy="117.812" rx="17.758" ry="18.001"/>
			
				<linearGradient id="SVGID_26_" gradientUnits="userSpaceOnUse" x1="182.9795" y1="-48.5527" x2="176.9818" y2="-26.4694" gradientTransform="matrix(1 0 0 -1 -50 61)">
				<stop  offset="0.1758" style="stop-color:#08DEFF;stop-opacity:0"/>
				<stop  offset="1" style="stop-color:#D3EBF4"/>
			</linearGradient>
			<ellipse fill="url(#SVGID_26_)" cx="130.188" cy="99.271" rx="13.291" ry="14.809"/>
		</g>
	</g>
</g>
<g id="outline_x5F_white">
	<path fill="#FFFFFF" d="M165.452,94.407c-0.212-0.797-0.448-1.591-0.769-2.583c-0.088-0.269-0.168-0.512-0.252-0.754
		c-0.214-0.623-0.451-1.271-0.726-1.981c-0.013-0.032-0.024-0.063-0.037-0.094c-0.069-0.186-0.132-0.345-0.194-0.501
		c-0.312-0.761-0.66-1.558-1.031-2.347c-0.027-0.06-0.057-0.12-0.086-0.18l-0.127-0.258l-0.064-0.131
		c-0.301-0.617-0.612-1.221-0.958-1.857c-0.013-0.023-0.024-0.046-0.038-0.07l-0.104-0.189l-0.131-0.24
		c-0.023-0.042-0.047-0.083-0.069-0.125c-0.452-0.798-0.89-1.525-1.337-2.22c-0.057-0.089-0.129-0.197-0.201-0.305
		c-0.375-0.574-0.805-1.196-1.258-1.816c-0.144-0.198-0.289-0.394-0.437-0.588c-0.422-0.562-0.854-1.11-1.289-1.63
		c-0.063-0.081-0.13-0.161-0.194-0.24c-0.039-0.047-0.078-0.094-0.119-0.141c-0.531-0.625-1.084-1.234-1.688-1.864
		c-0.146-0.153-0.306-0.313-0.468-0.476c-0.444-0.45-0.915-0.904-1.401-1.351c-0.181-0.17-0.348-0.324-0.514-0.469
		c-0.598-0.534-1.208-1.047-1.816-1.526c-0.149-0.12-0.303-0.237-0.457-0.352c-0.543-0.417-1.088-0.812-1.637-1.189
		c-0.16-0.112-0.324-0.223-0.488-0.333c-0.029-0.02-0.061-0.041-0.09-0.061c-0.636-0.421-1.238-0.799-1.839-1.15
		c-0.095-0.058-0.188-0.114-0.286-0.169c-0.66-0.379-1.369-0.754-2.169-1.146c-0.231-0.114-0.461-0.222-0.694-0.33
		c-0.282-0.132-0.569-0.261-0.859-0.387c-1.703-3.675-4.196-6.771-7.266-9.054c-0.787-2.56-2.123-4.837-3.852-6.705
		c1.096-2.494,1.426-5.352,0.776-8.213c-0.005-0.023-0.011-0.046-0.017-0.069c-1.238-5.327-5.125-11.886-12.311-14.318
		c-1.891-0.641-3.811-0.963-5.713-0.963c-5.553,0-10.493,2.678-13.556,7.346c-3.825,5.84-3.854,13.851-0.077,19.943
		c0.891,1.431,1.79,2.608,2.624,3.575c-0.61,2.321-0.754,4.791-0.368,7.254c-1.278,2.247-2.245,4.717-2.856,7.342
		c-0.448,1.922-0.69,3.894-0.726,5.867c-0.178,0.235-0.359,0.479-0.544,0.733c-0.026,0.036-0.051,0.071-0.077,0.107l-0.067,0.095
		c-0.085,0.12-0.171,0.24-0.257,0.362c-0.263,0.373-0.497,0.742-0.742,1.113c-0.013-0.005-0.026-0.012-0.039-0.018
		c-1.869-4.593-4.915-8.453-8.813-11.208c-0.809-3.282-2.469-6.159-4.715-8.417c1.667-2.71,2.375-6.02,1.745-9.37
		c-1.079-5.774-5.058-12.98-12.984-15.853c-2.242-0.815-4.52-1.226-6.775-1.226c-5.291,0-10.233,2.325-13.56,6.381
		c-4.956,6.046-5.521,15.048-1.376,21.895c1.114,1.837,2.267,3.315,3.318,4.5c-1.032,2.693-1.429,5.641-1.072,8.599
		c-1.81,2.455-3.236,5.225-4.21,8.221c-0.724,2.226-1.171,4.526-1.337,6.84c-0.348,0.362-0.705,0.745-1.075,1.154
		c-0.17,0.188-0.335,0.374-0.5,0.561c-0.638,0.729-1.19,1.392-1.696,2.037c-0.084,0.104-0.165,0.205-0.244,0.308
		c-0.567,0.734-1.134,1.521-1.733,2.406c-0.119,0.174-0.243,0.362-0.367,0.55l-0.032,0.049c-0.48,0.73-0.938,1.466-1.364,2.193
		l-0.184,0.308c-0.02,0.033-0.039,0.066-0.058,0.1c-0.468,0.819-0.923,1.676-1.389,2.618c-0.088,0.177-0.173,0.354-0.257,0.531
		l-0.051,0.106c-0.365,0.762-0.716,1.547-1.044,2.334l-0.021,0.051c-0.051,0.117-0.102,0.235-0.151,0.354
		c-0.016,0.039-0.032,0.078-0.047,0.117c-0.362,0.896-0.705,1.827-1.021,2.767c-0.071,0.209-0.137,0.417-0.202,0.626l-0.021,0.066
		c-0.25,0.777-0.486,1.58-0.702,2.385l-0.02,0.074c-0.051,0.183-0.102,0.366-0.149,0.555c-0.248,0.978-0.466,1.959-0.654,2.93
		c-0.004,0.021-0.008,0.043-0.012,0.064c-0.03,0.16-0.058,0.322-0.085,0.485l-0.013,0.077c-0.137,0.76-0.263,1.576-0.38,2.471
		c-0.002,0.02-0.005,0.037-0.007,0.057l-0.018,0.139c-0.024,0.186-0.048,0.371-0.069,0.559c-0.12,1.047-0.207,2.07-0.259,3.051
		c-0.008,0.158-0.015,0.332-0.02,0.506l0.002-0.041c-0.039,0.893-0.054,1.759-0.047,2.686c0.002,0.271,0.005,0.51,0.009,0.752
		c0,0.021,0.001,0.045,0.001,0.065c0.027,1.103,0.08,2.11,0.161,3.084c0.004,0.048,0.008,0.096,0.013,0.144
		c0.011,0.111,0.022,0.224,0.036,0.334c0.083,0.879,0.194,1.793,0.332,2.723c0.037,0.253,0.083,0.555,0.134,0.855
		c0.189,1.152,0.383,2.153,0.601,3.106c5.051,22.112,23.645,37.56,45.216,37.56c3.73,0,7.469-0.479,11.113-1.423
		c12.104-3.134,22.287-11.06,28.672-22.317c0.157-0.276,0.299-0.56,0.45-0.839c2.958,0.794,5.994,1.212,9.04,1.212
		c3.909,0,7.787-0.662,11.524-1.967c10.057-3.511,18.176-11.277,22.86-21.869C167.479,116.76,168.33,105.268,165.452,94.407z
		 M136.234,137.307c-0.58,0.203-1.162,0.374-1.745,0.528c-0.175,0.046-0.35,0.083-0.524,0.125c-0.409,0.099-0.818,0.188-1.228,0.262
		c-0.208,0.038-0.416,0.072-0.624,0.104c-0.384,0.06-0.768,0.106-1.15,0.146c-0.209,0.021-0.419,0.045-0.628,0.061
		c-0.424,0.031-0.848,0.046-1.271,0.054c-0.133,0.002-0.267,0.017-0.399,0.017c-0.031,0-0.062-0.002-0.094-0.003
		c-0.017,0-0.034-0.001-0.052-0.001c-0.435-0.003-0.867-0.021-1.299-0.05c-0.154-0.011-0.307-0.024-0.46-0.037
		c-0.276-0.024-0.552-0.054-0.827-0.088c-0.213-0.025-0.425-0.051-0.637-0.083c-0.197-0.03-0.394-0.067-0.59-0.103
		c-4.206-0.743-8.213-2.638-11.697-5.499c-0.814,4.161-2.298,8.113-4.347,11.694l0,0c-0.002,0.003-0.003,0.005-0.005,0.008
		c-0.093,0.162-0.193,0.318-0.288,0.479c-0.28,0.472-0.569,0.937-0.868,1.395c-0.145,0.221-0.29,0.438-0.438,0.656
		c-0.329,0.479-0.668,0.952-1.019,1.415c-0.108,0.143-0.213,0.287-0.323,0.429c-0.406,0.52-0.828,1.024-1.261,1.521
		c-0.16,0.184-0.323,0.363-0.487,0.544c-0.373,0.411-0.756,0.812-1.148,1.205c-0.126,0.126-0.248,0.257-0.376,0.381
		c-0.503,0.489-1.023,0.96-1.555,1.418c-0.16,0.137-0.323,0.27-0.485,0.403c-0.436,0.361-0.88,0.712-1.333,1.051
		c-0.149,0.111-0.295,0.227-0.445,0.335c-0.582,0.421-1.177,0.824-1.786,1.208c-0.137,0.087-0.278,0.167-0.416,0.251
		c-0.514,0.314-1.037,0.614-1.569,0.9c-0.164,0.088-0.327,0.178-0.493,0.264c-0.657,0.34-1.325,0.662-2.008,0.959
		c-0.083,0.036-0.168,0.066-0.251,0.102c-0.617,0.263-1.246,0.504-1.883,0.729c-0.175,0.062-0.35,0.123-0.526,0.183
		c-0.725,0.242-1.457,0.471-2.206,0.664c-0.083,0.021-0.167,0.035-0.251,0.057c-0.542,0.136-1.083,0.259-1.625,0.366
		c-0.241,0.047-0.481,0.083-0.722,0.125c-0.39,0.068-0.779,0.134-1.168,0.187c-0.272,0.037-0.543,0.067-0.815,0.098
		c-0.358,0.039-0.715,0.074-1.072,0.102c-0.282,0.021-0.563,0.041-0.844,0.055c-0.35,0.018-0.7,0.027-1.049,0.033
		c-0.186,0.003-0.373,0.018-0.559,0.018c-0.115,0-0.229-0.007-0.345-0.008c-0.145-0.002-0.29-0.007-0.435-0.01
		c-0.398-0.01-0.794-0.026-1.19-0.051c-0.15-0.01-0.299-0.02-0.449-0.031c-0.404-0.03-0.807-0.069-1.208-0.115
		c-0.129-0.015-0.258-0.028-0.387-0.044c-0.47-0.06-0.937-0.13-1.402-0.21c-0.055-0.009-0.11-0.017-0.165-0.026
		c-1.07-0.189-2.127-0.434-3.168-0.729c-0.09-0.025-0.178-0.054-0.268-0.08c-0.418-0.123-0.834-0.252-1.247-0.392
		c-0.125-0.042-0.25-0.086-0.375-0.13c-0.381-0.133-0.759-0.273-1.135-0.42c-0.128-0.051-0.255-0.101-0.383-0.152
		c-0.386-0.156-0.769-0.321-1.149-0.492c-0.104-0.047-0.209-0.093-0.313-0.141c-0.463-0.214-0.921-0.438-1.375-0.673
		c-0.014-0.007-0.029-0.014-0.043-0.021c-0.964-0.502-1.905-1.054-2.822-1.649c-0.087-0.057-0.172-0.115-0.259-0.173
		c-0.358-0.237-0.713-0.481-1.064-0.732c-0.11-0.079-0.219-0.16-0.328-0.24c-0.33-0.242-0.655-0.491-0.978-0.746
		c-0.106-0.084-0.212-0.167-0.317-0.252c-0.338-0.274-0.671-0.556-1-0.844c-0.078-0.067-0.156-0.133-0.233-0.201
		c-0.827-0.736-1.625-1.512-2.387-2.33c-0.01-0.011-0.02-0.022-0.03-0.033c-0.359-0.387-0.709-0.782-1.053-1.187
		c-0.073-0.085-0.144-0.174-0.216-0.26c-0.281-0.337-0.558-0.679-0.828-1.027c-0.083-0.107-0.166-0.216-0.248-0.324
		c-0.26-0.344-0.515-0.692-0.764-1.047c-0.074-0.105-0.149-0.211-0.222-0.317c-0.268-0.39-0.529-0.787-0.784-1.189
		c-0.044-0.07-0.09-0.139-0.134-0.209c-0.61-0.979-1.18-1.994-1.704-3.044c-0.016-0.03-0.029-0.062-0.044-0.092
		c-0.238-0.479-0.465-0.964-0.685-1.457c-0.047-0.104-0.091-0.211-0.137-0.317c-0.185-0.427-0.364-0.858-0.535-1.295
		c-0.049-0.126-0.098-0.253-0.146-0.379c-0.166-0.437-0.323-0.877-0.473-1.322c-0.04-0.117-0.08-0.233-0.119-0.351
		c-0.166-0.505-0.321-1.016-0.467-1.532c-0.015-0.054-0.032-0.107-0.047-0.161c-0.165-0.592-0.32-1.189-0.459-1.796
		c-0.116-0.509-0.215-1.017-0.307-1.524c-0.048-0.256-0.092-0.512-0.135-0.768c-0.007-0.044-0.016-0.088-0.023-0.132
		c-0.035-0.209-0.067-0.418-0.098-0.627c-0.005-0.034-0.007-0.069-0.013-0.104c-0.089-0.617-0.164-1.232-0.224-1.848
		c-0.008-0.079-0.021-0.158-0.029-0.237c-0.008-0.081-0.02-0.162-0.027-0.244c-0.002-0.026-0.002-0.052-0.004-0.077
		c-0.061-0.738-0.095-1.474-0.114-2.207c-0.001-0.033-0.004-0.067-0.005-0.101c-0.004-0.204-0.006-0.405-0.008-0.606
		c0-0.054,0.003-0.106,0.003-0.16c-0.002-0.538,0.007-1.074,0.027-1.609c0.003-0.091,0-0.183,0.004-0.273
		c0.006-0.126,0.007-0.253,0.014-0.378c0.001-0.022,0.004-0.045,0.006-0.068c0.041-0.732,0.105-1.46,0.186-2.185
		c0.003-0.024,0.003-0.05,0.006-0.074c0.021-0.188,0.047-0.373,0.07-0.56c0.007-0.05,0.016-0.1,0.023-0.149
		c0.072-0.545,0.155-1.085,0.25-1.623c0.009-0.053,0.015-0.105,0.024-0.158c0.027-0.152,0.051-0.307,0.079-0.457
		c0.005-0.025,0.012-0.051,0.017-0.076c0.136-0.703,0.292-1.399,0.466-2.09c0.006-0.025,0.011-0.051,0.017-0.076
		c0.042-0.165,0.09-0.326,0.133-0.487c0.009-0.035,0.021-0.069,0.031-0.104c0.15-0.555,0.312-1.105,0.486-1.65
		c0.009-0.029,0.017-0.059,0.026-0.088c0.052-0.163,0.1-0.325,0.155-0.487c0.007-0.02,0.015-0.039,0.021-0.059
		c0.229-0.676,0.473-1.344,0.737-2.003c0.01-0.023,0.017-0.049,0.027-0.072c0.055-0.132,0.112-0.26,0.166-0.391
		c0.022-0.053,0.048-0.104,0.07-0.157c0.214-0.509,0.439-1.012,0.675-1.51c0.015-0.031,0.027-0.063,0.042-0.095
		c0.078-0.164,0.154-0.328,0.235-0.49c0.01-0.021,0.022-0.04,0.032-0.061c0.317-0.637,0.646-1.265,0.997-1.881
		c0.01-0.017,0.019-0.035,0.028-0.053c0.054-0.092,0.109-0.182,0.163-0.272c0.03-0.052,0.064-0.102,0.095-0.153
		c0.293-0.497,0.597-0.986,0.912-1.468c0.014-0.021,0.025-0.042,0.039-0.062c0.104-0.157,0.206-0.313,0.312-0.47
		c0.009-0.013,0.019-0.025,0.028-0.038c0.409-0.602,0.83-1.193,1.273-1.769c0.005-0.006,0.009-0.012,0.013-0.018
		c0.033-0.045,0.068-0.086,0.104-0.131c0.039-0.05,0.082-0.096,0.121-0.146c0.382-0.484,0.776-0.958,1.182-1.421
		c0.012-0.013,0.022-0.027,0.034-0.041c0.127-0.145,0.255-0.288,0.383-0.43c0.011-0.012,0.022-0.022,0.033-0.034
		c0.447-0.493,0.906-0.975,1.38-1.44c0.035-0.034,0.066-0.072,0.101-0.106c0.014-0.014,0.028-0.028,0.041-0.041
		c0.005-0.005,0.011-0.009,0.016-0.014c0.524-0.509,1.07-0.995,1.625-1.47c0.006-0.005,0.011-0.01,0.017-0.015
		c0.068-0.06,0.132-0.124,0.202-0.183l0.005,0.01c0.021-0.018,0.044-0.036,0.066-0.054c0.293-0.245,0.587-0.489,0.889-0.725
		c0.005-0.004,0.01-0.008,0.015-0.012c-0.502-2.619-0.372-5.455,0.537-8.252c1.324-4.076,4.027-7.271,7.309-9.137
		c-1.215-0.827-2.141-2.082-2.493-3.628c-0.647-2.831,0.814-5.649,3.351-6.821l-0.694-3.036c-0.402-1.763-1.313-2.622-2.694-3.922
		c-1.156-1.09-2.597-2.448-3.961-4.699c-1.532-2.531-1.369-5.926,0.389-8.07c1.08-1.315,2.571-1.992,4.284-1.992
		c0.848,0,1.751,0.167,2.684,0.504c4.253,1.542,5.24,6.573,5.28,6.788c0.128,0.681-0.346,1.333-1.001,1.463
		c-0.078,0.015-0.155,0.021-0.232,0.021c-0.592,0-1.119-0.42-1.232-1.023c-0.008-0.034-0.776-3.841-3.671-4.89
		c-0.658-0.239-1.267-0.357-1.821-0.357c-0.966,0-1.763,0.361-2.349,1.075c-1.088,1.328-1.166,3.556-0.182,5.182
		c1.186,1.958,2.435,3.134,3.535,4.173c1.463,1.38,2.847,2.683,3.419,5.188l0.693,3.036c0.033,0,0.065-0.001,0.098-0.001
		c2.753,0,5.243,1.893,5.882,4.691c0.38,1.661,0.027,3.313-0.836,4.638c0.712,0.1,1.423,0.243,2.127,0.472
		c4.664,1.518,7.869,5.564,8.868,10.405c0.168,0.646,0.274,1.323,0.335,2.02c0.141,0.034,0.277,0.072,0.418,0.107
		c-0.007-0.007-0.012-0.013-0.012-0.013c0.113,0.028,0.222,0.067,0.333,0.097c0.012,0.003,0.023,0.007,0.035,0.01
		c0.402,0.106,0.799,0.226,1.196,0.347c0.127,0.039,0.256,0.07,0.383,0.111c0.156,0.049,0.311,0.095,0.467,0.146
		c0.032,0.011,0.063,0.024,0.095,0.035c0.399,0.135,0.792,0.289,1.187,0.439c0.225,0.085,0.454,0.16,0.677,0.25
		c0.004,0.002,0.008,0.003,0.012,0.005c0,0.001-0.001,0.003-0.001,0.005c3.864,1.574,7.444,3.875,10.554,6.793
		c0.972-4.22,2.678-8.14,4.986-11.516c-0.001,0-0.001-0.001-0.002-0.001c0.074-0.108,0.144-0.222,0.219-0.329
		c0.026-0.038,0.053-0.074,0.079-0.111c0.024-0.035,0.05-0.07,0.074-0.105c0.042-0.058,0.084-0.117,0.124-0.175
		c0.232-0.318,0.477-0.624,0.717-0.932c0.087-0.11,0.169-0.225,0.258-0.334c0.046-0.058,0.089-0.12,0.136-0.177
		c0.011-0.012,0.021-0.025,0.03-0.037c0.188-0.226,0.389-0.436,0.583-0.654c0.183-0.208,0.363-0.417,0.552-0.62
		c0.031-0.033,0.061-0.07,0.092-0.103c0.049-0.055,0.098-0.113,0.148-0.168c0,0,0.005,0.008,0.005,0.009
		c0.235-0.248,0.476-0.493,0.722-0.731c-0.521-2.256-0.56-4.729,0.018-7.201c0.84-3.605,2.803-6.504,5.283-8.27
		c-0.992-0.667-1.778-1.718-2.133-3.047c-0.646-2.434,0.362-4.95,2.295-6.081l-0.692-2.61c-0.401-1.515-1.158-2.223-2.304-3.293
		c-0.959-0.897-2.155-2.015-3.336-3.913c-1.324-2.134-1.361-5.094-0.09-7.037c0.834-1.267,2.066-1.928,3.523-1.928
		c0.589,0,1.215,0.108,1.865,0.328c3.408,1.154,4.428,5.488,4.471,5.672c0.133,0.586-0.205,1.175-0.715,1.317
		c-0.077,0.021-0.153,0.03-0.229,0.03c-0.445,0-0.854-0.336-0.967-0.838c-0.008-0.029-0.796-3.308-3.115-4.093
		c-0.464-0.157-0.894-0.234-1.285-0.234c-0.832,0-1.496,0.351-1.949,1.043c-0.786,1.204-0.74,3.145,0.109,4.516
		c1.025,1.651,2.062,2.619,2.978,3.474c1.214,1.136,2.36,2.208,2.934,4.363l0.691,2.61c0.104-0.008,0.21-0.012,0.313-0.012
		c2.068,0,3.988,1.511,4.603,3.828c0.379,1.429,0.184,2.882-0.429,4.071c0.562,0.056,1.127,0.149,1.689,0.317
		c3.73,1.114,6.441,4.494,7.461,8.661c0.163,0.556,0.28,1.14,0.362,1.743c0.11,0.023,0.221,0.051,0.331,0.074
		c-0.006-0.006-0.01-0.011-0.01-0.011c0.09,0.02,0.178,0.049,0.267,0.069c0.021,0.005,0.043,0.012,0.065,0.017
		c0.381,0.089,0.76,0.188,1.136,0.296c0.029,0.008,0.059,0.015,0.088,0.023c0.124,0.036,0.247,0.069,0.37,0.107
		c0.007,0.002,0.014,0.005,0.021,0.007c0.51,0.157,1.016,0.332,1.516,0.523c0.012,0.004,0.024,0.008,0.036,0.012
		c0.113,0.045,0.229,0.094,0.344,0.141c0.022,0.009,0.044,0.02,0.065,0.028c0.39,0.158,0.775,0.326,1.158,0.504
		c0.008,0.003,0.015,0.006,0.022,0.01c0.145,0.065,0.283,0.13,0.425,0.2c0.009,0.004,0.018,0.01,0.027,0.014
		c0.461,0.227,0.918,0.464,1.369,0.72c0.035,0.02,0.073,0.037,0.108,0.057c0.025,0.016,0.049,0.031,0.072,0.046
		c0.012,0.007,0.023,0.015,0.035,0.022c0.445,0.258,0.883,0.533,1.315,0.818c0.015,0.01,0.03,0.018,0.045,0.028
		c0.134,0.09,0.267,0.18,0.396,0.271c0.001,0,0.002,0.001,0.003,0.002c0.37,0.255,0.735,0.521,1.097,0.796
		c0.025,0.02,0.052,0.037,0.077,0.056c0.079,0.061,0.159,0.118,0.235,0.18c0.464,0.365,0.918,0.747,1.363,1.144l0,0
		c0.109,0.094,0.215,0.195,0.319,0.293c0.01,0.009,0.02,0.02,0.03,0.029c0.324,0.299,0.645,0.607,0.958,0.924
		c0.014,0.014,0.027,0.025,0.04,0.039c0.109,0.11,0.219,0.219,0.326,0.331c0.007,0.007,0.014,0.015,0.02,0.022
		c0.4,0.418,0.792,0.847,1.172,1.292c0.008,0.009,0.016,0.017,0.023,0.026c0.056,0.067,0.11,0.137,0.166,0.205
		c0.013,0.015,0.024,0.031,0.036,0.046c0.33,0.396,0.651,0.804,0.966,1.221c0.101,0.133,0.202,0.267,0.301,0.403
		c0.01,0.014,0.02,0.029,0.029,0.042c0.294,0.405,0.58,0.819,0.858,1.242c0.02,0.03,0.042,0.059,0.062,0.089
		c0.041,0.062,0.082,0.122,0.123,0.185c0.001,0.001,0.002,0.002,0.002,0.004c0.332,0.516,0.648,1.047,0.955,1.588
		c0.007,0.012,0.015,0.023,0.021,0.036c0.081,0.147,0.162,0.298,0.245,0.448c0.008,0.014,0.015,0.028,0.021,0.042
		c0.23,0.424,0.453,0.855,0.668,1.293c0.007,0.014,0.014,0.026,0.021,0.04c0.068,0.141,0.139,0.277,0.207,0.419
		c0.007,0.014,0.012,0.028,0.019,0.042c0.267,0.568,0.521,1.147,0.762,1.738c0.003,0.006,0.006,0.011,0.008,0.017
		c0.051,0.124,0.096,0.253,0.146,0.378c0.004,0.01,0.008,0.021,0.012,0.032c0.504,1.285,0.949,2.618,1.317,4.003
		c0.003,0.01,0.006,0.019,0.009,0.028c0.53,2,0.883,4.01,1.08,6.01C156.417,118.515,148.806,132.919,136.234,137.307z"/>
</g>
<g id="outline_x5F_black">
	<g>
		<g>
			<path d="M77.327,80.452c-0.266-0.087-0.534-0.152-0.807-0.201c-4.433,0.087-8.944,3.663-10.711,9.093
				c-0.214,0.664-0.368,1.33-0.485,1.993c1.84-0.867,3.771-1.583,5.795-2.107c2.699-0.699,5.401-1.029,8.062-1.029
				c1.074,0,2.142,0.054,3.199,0.159C82.071,84.521,80.18,81.379,77.327,80.452z"/>
			<path d="M159.652,95.948c-0.185-0.689-0.394-1.391-0.68-2.28c-0.074-0.228-0.146-0.442-0.221-0.656
				c-0.18-0.528-0.393-1.11-0.643-1.754l-0.019-0.047l-0.019-0.046l-0.018-0.046c-0.045-0.117-0.089-0.233-0.137-0.348
				c-0.273-0.675-0.582-1.375-0.908-2.071l-0.021-0.045l-0.022-0.044l-0.111-0.225l-0.088-0.179
				c-0.26-0.532-0.531-1.059-0.834-1.616l-0.141-0.256l-0.119-0.218l-0.017-0.031l-0.019-0.031
				c-0.394-0.697-0.771-1.326-1.156-1.924c-0.043-0.067-0.094-0.143-0.146-0.219c-0.347-0.532-0.716-1.067-1.124-1.626
				c-0.11-0.155-0.241-0.329-0.372-0.5c-0.374-0.499-0.756-0.982-1.139-1.439c-0.061-0.074-0.12-0.149-0.18-0.222l-0.029-0.036
				l-0.03-0.035c-0.455-0.534-0.93-1.058-1.45-1.602c-0.132-0.137-0.27-0.275-0.41-0.416c-0.361-0.369-0.783-0.775-1.222-1.177
				l-0.036-0.034c-0.121-0.113-0.242-0.226-0.367-0.335c-0.518-0.463-1.045-0.906-1.567-1.317c-0.104-0.085-0.213-0.167-0.322-0.249
				c-0.487-0.375-0.973-0.728-1.461-1.062c-0.122-0.084-0.274-0.188-0.428-0.291l-0.022-0.016l-0.023-0.015
				c-0.562-0.374-1.092-0.704-1.614-1.009l-0.021-0.013l-0.078-0.049l-0.08-0.046c-0.551-0.316-1.152-0.633-1.84-0.969
				c-0.186-0.092-0.369-0.178-0.558-0.264c-0.497-0.233-1.014-0.457-1.534-0.666l-0.051-0.021c-0.104-0.044-0.21-0.087-0.312-0.128
				l-0.028-0.011l-0.028-0.011c-0.328-0.126-0.66-0.248-0.992-0.362c-1.475-4.416-4.307-7.942-7.974-9.992
				c-0.065-0.501-0.164-1-0.295-1.496c-0.86-3.253-3.05-5.853-5.845-7.225c-0.125-0.377-0.26-0.735-0.404-1.076
				c2.361-1.588,3.604-4.535,2.934-7.491c-0.31-1.332-2.134-7.909-8.397-10.03c-1.267-0.432-2.542-0.649-3.79-0.649
				c-3.493,0-6.605,1.69-8.539,4.637c-2.568,3.923-2.564,9.342,0.006,13.49c1.602,2.573,3.242,4.109,4.329,5.126
				c0.067,0.064,0.144,0.133,0.216,0.203c-1.538,2.595-2.035,5.819-1.207,8.945c0.072,0.272,0.154,0.541,0.245,0.804
				c-1.604,2.201-2.782,4.789-3.438,7.615c-0.502,2.146-0.676,4.368-0.521,6.558c-0.091,0.106-0.182,0.212-0.27,0.317L104,79.797
				l-0.126,0.159c-0.424,0.518-0.828,1.044-1.284,1.67l-0.02,0.026l-0.021,0.027l-0.073,0.104l-0.235,0.333
				c-0.388,0.548-0.765,1.116-1.11,1.669c-0.045,0.069-0.092,0.142-0.138,0.218c-0.356,0.574-0.728,1.223-1.114,1.947
				c-0.066,0.124-0.142,0.268-0.218,0.414l-0.03,0.058c-0.212,0.408-0.417,0.843-0.623,1.276c-0.009-0.005-0.02-0.012-0.029-0.018
				c-0.031-0.02-0.065-0.041-0.099-0.062l-0.05-0.031l-0.051-0.03c-0.657-0.385-1.371-0.771-2.185-1.183
				c-0.204-0.104-0.423-0.209-0.643-0.314c-0.56-0.272-1.177-0.552-1.801-0.815l-0.125-0.054c-0.114-0.05-0.228-0.099-0.341-0.146
				c-0.645-0.262-1.274-0.499-1.896-0.715c-1.5-5.357-4.918-9.678-9.536-12.132c-0.039-0.67-0.134-1.341-0.287-2.009
				c-0.87-3.809-3.446-6.823-6.821-8.32c-0.191-0.704-0.421-1.351-0.68-1.947c3.132-1.274,5.054-4.629,4.409-8.062
				c-0.163-0.873-1.815-8.668-9.132-11.32c-1.579-0.572-3.169-0.862-4.725-0.862c-3.538,0-6.706,1.486-8.921,4.187
				c-3.371,4.113-3.733,10.273-0.882,14.982c1.787,2.948,3.705,4.757,4.974,5.954c0.205,0.193,0.433,0.407,0.625,0.596
				c-2.208,2.796-3.148,6.523-2.317,10.158c0.084,0.368,0.185,0.729,0.302,1.084c-2.222,2.377-3.927,5.266-4.975,8.489
				c-0.798,2.457-1.172,5.025-1.113,7.575c-0.256,0.235-0.499,0.464-0.731,0.689l-0.035,0.034l-0.034,0.034l-0.009,0.01
				c-0.554,0.541-1.125,1.138-1.746,1.824c-0.149,0.165-0.295,0.329-0.441,0.495c-0.576,0.658-1.072,1.254-1.521,1.828
				c-0.057,0.069-0.113,0.14-0.168,0.212c-0.494,0.639-0.993,1.332-1.526,2.118c-0.108,0.159-0.217,0.324-0.327,0.491l-0.029,0.044
				c-0.428,0.649-0.836,1.307-1.215,1.955l-0.029,0.049l-0.133,0.223l-0.015,0.025l-0.015,0.025
				c-0.41,0.719-0.812,1.475-1.227,2.315c-0.063,0.126-0.135,0.276-0.208,0.429l-0.06,0.126c-0.32,0.669-0.628,1.358-0.916,2.049
				l-0.053,0.123l-0.117,0.275l-0.012,0.028l-0.012,0.028c-0.321,0.798-0.626,1.626-0.908,2.463c-0.045,0.13-0.098,0.298-0.15,0.466
				l-0.037,0.117c-0.215,0.666-0.427,1.387-0.621,2.108l-0.038,0.137c-0.039,0.14-0.078,0.279-0.114,0.421
				c-0.218,0.86-0.411,1.729-0.577,2.586c-0.029,0.156-0.05,0.28-0.071,0.405l-0.023,0.135c-0.123,0.681-0.234,1.405-0.339,2.203
				l-0.024,0.187c-0.02,0.156-0.04,0.312-0.058,0.471c-0.105,0.925-0.183,1.829-0.229,2.688c-0.006,0.114-0.011,0.235-0.014,0.355
				l-0.002,0.07c-0.033,0.768-0.046,1.535-0.041,2.359c0.002,0.241,0.005,0.458,0.009,0.68c0.025,1.018,0.072,1.912,0.143,2.768
				l0.003,0.034l0.003,0.034c0.009,0.093,0.019,0.183,0.03,0.272c0.073,0.793,0.174,1.625,0.3,2.474
				c0.034,0.232,0.073,0.488,0.116,0.744c0.172,1.047,0.343,1.933,0.533,2.764c4.424,19.367,20.612,32.896,39.367,32.896
				c3.223,0,6.456-0.413,9.609-1.229c12.809-3.315,22.684-12.853,27.495-24.85c3.82,1.746,7.933,2.719,12.173,2.719
				c3.233,0,6.446-0.549,9.548-1.631c8.473-2.959,15.344-9.574,19.352-18.633C161.441,115.579,162.182,105.494,159.652,95.948z
				 M136.234,137.307c-2.516,0.877-5.06,1.297-7.569,1.297c-4.225,0-8.347-1.195-12.069-3.374c-0.004-0.002-0.009-0.005-0.013-0.008
				c-1.238-0.726-2.433-1.56-3.571-2.495c-0.001,0.005-0.002,0.009-0.003,0.014c-0.001-0.001-0.001-0.001-0.002-0.002
				c-0.146,0.75-0.322,1.489-0.512,2.225c-0.044,0.168-0.087,0.337-0.133,0.504c-0.184,0.677-0.385,1.348-0.604,2.01
				c-0.073,0.219-0.153,0.435-0.229,0.651c-3.863,11.006-12.559,19.832-24.035,22.804c-2.714,0.702-5.429,1.039-8.105,1.039
				c-15.531,0-29.66-11.344-33.518-28.232c-0.185-0.809-0.332-1.615-0.465-2.424c-0.035-0.209-0.067-0.418-0.098-0.627
				c-0.108-0.73-0.198-1.461-0.265-2.188c-0.008-0.081-0.02-0.162-0.027-0.244c-0.066-0.798-0.104-1.593-0.123-2.385
				c-0.004-0.204-0.006-0.405-0.008-0.606c-0.005-0.685,0.005-1.365,0.034-2.043c0.006-0.126,0.007-0.253,0.014-0.378
				c0.042-0.78,0.11-1.558,0.198-2.327c0.021-0.188,0.047-0.373,0.07-0.56c0.085-0.647,0.182-1.291,0.297-1.931
				c0.027-0.152,0.051-0.307,0.079-0.457c0.146-0.756,0.312-1.502,0.5-2.242c0.042-0.165,0.09-0.326,0.133-0.487
				c0.166-0.621,0.347-1.235,0.543-1.843c0.052-0.163,0.1-0.325,0.155-0.487c0.242-0.721,0.504-1.433,0.786-2.134
				c0.055-0.132,0.112-0.26,0.166-0.391c0.248-0.596,0.511-1.184,0.788-1.762c0.078-0.164,0.154-0.328,0.235-0.49
				c0.334-0.676,0.684-1.342,1.057-1.994c0.054-0.092,0.109-0.182,0.163-0.272c0.334-0.571,0.684-1.133,1.046-1.684
				c0.104-0.157,0.206-0.313,0.312-0.47c0.421-0.621,0.856-1.232,1.314-1.824c0.033-0.045,0.068-0.086,0.104-0.131
				c0.429-0.549,0.878-1.083,1.337-1.607c0.127-0.145,0.255-0.288,0.383-0.43c0.49-0.542,0.991-1.072,1.514-1.581
				c0.014-0.014,0.028-0.028,0.041-0.041c0.535-0.521,1.092-1.016,1.657-1.499c0.068-0.06,0.132-0.124,0.202-0.183l0.005,0.01
				c0.319-0.269,0.641-0.533,0.97-0.791c-0.502-2.619-0.372-5.455,0.537-8.252c1.324-4.076,4.027-7.271,7.309-9.137
				c-1.215-0.827-2.141-2.082-2.493-3.628c-0.647-2.831,0.814-5.649,3.351-6.821l-0.694-3.036c-0.402-1.763-1.313-2.622-2.694-3.922
				c-1.156-1.09-2.597-2.448-3.961-4.699c-1.532-2.531-1.369-5.926,0.389-8.07c1.08-1.315,2.571-1.992,4.284-1.992
				c0.848,0,1.751,0.167,2.684,0.504c4.253,1.542,5.24,6.573,5.28,6.788c0.128,0.681-0.346,1.333-1.001,1.463
				c-0.078,0.015-0.155,0.021-0.232,0.021c-0.592,0-1.119-0.42-1.232-1.023c-0.008-0.034-0.776-3.841-3.671-4.89
				c-0.658-0.239-1.267-0.357-1.821-0.357c-0.966,0-1.763,0.361-2.349,1.075c-1.088,1.328-1.166,3.556-0.182,5.182
				c1.186,1.958,2.435,3.134,3.535,4.173c1.463,1.38,2.847,2.683,3.419,5.188l0.693,3.036c0.033,0,0.065-0.001,0.098-0.001
				c2.753,0,5.243,1.893,5.882,4.691c0.38,1.661,0.027,3.313-0.836,4.638c0.712,0.1,1.423,0.243,2.127,0.472
				c4.664,1.518,7.869,5.564,8.868,10.405c0.168,0.646,0.274,1.323,0.335,2.02c0.141,0.034,0.277,0.072,0.418,0.107
				c-0.007-0.007-0.012-0.013-0.012-0.013c0.113,0.028,0.222,0.067,0.333,0.097c0.543,0.142,1.081,0.298,1.614,0.468
				c0.156,0.049,0.311,0.095,0.467,0.146c0.661,0.221,1.314,0.463,1.959,0.725c0.142,0.059,0.283,0.123,0.427,0.184
				c0.521,0.22,1.039,0.454,1.548,0.701c0.176,0.084,0.351,0.168,0.523,0.256c0.628,0.317,1.25,0.648,1.858,1.005
				c0.03,0.019,0.06,0.038,0.089,0.057c0.367,0.216,0.723,0.454,1.081,0.686c1.212,0.778,2.377,1.636,3.493,2.565
				c0.189,0.158,0.377,0.315,0.562,0.477c0.309,0.268,0.615,0.539,0.915,0.819c0.022,0.022,0.045,0.044,0.067,0.065
				c0.082-0.358,0.178-0.71,0.271-1.064c0.067-0.26,0.137-0.52,0.21-0.778c0.109-0.383,0.225-0.763,0.347-1.141
				c0.069-0.213,0.143-0.423,0.216-0.634c0.302-0.878,0.63-1.743,0.997-2.584c0,0-0.001,0-0.001-0.001
				c0.036-0.085,0.068-0.174,0.105-0.259c0.039-0.082,0.078-0.162,0.115-0.244c0.235-0.512,0.48-1.016,0.738-1.512
				c0.072-0.141,0.146-0.28,0.221-0.42c0.299-0.561,0.61-1.111,0.941-1.646c0.023-0.04,0.05-0.077,0.076-0.118
				c0.309-0.496,0.634-0.982,0.969-1.457c0.093-0.133,0.188-0.263,0.277-0.392c0.359-0.493,0.727-0.976,1.11-1.442
				c0.011-0.012,0.021-0.025,0.03-0.037c0.395-0.475,0.806-0.932,1.227-1.377c0.049-0.055,0.098-0.113,0.148-0.168
				c0,0,0.005,0.008,0.005,0.009c0.235-0.248,0.476-0.493,0.722-0.731c-0.521-2.256-0.56-4.729,0.018-7.201
				c0.84-3.605,2.803-6.504,5.283-8.27c-0.992-0.667-1.778-1.718-2.133-3.047c-0.646-2.434,0.362-4.95,2.295-6.081l-0.692-2.61
				c-0.401-1.515-1.158-2.223-2.304-3.293c-0.959-0.897-2.155-2.015-3.336-3.913c-1.324-2.134-1.361-5.094-0.09-7.037
				c0.834-1.267,2.066-1.928,3.523-1.928c0.589,0,1.215,0.108,1.865,0.328c3.408,1.154,4.428,5.488,4.471,5.672
				c0.133,0.586-0.205,1.175-0.715,1.317c-0.077,0.021-0.153,0.03-0.229,0.03c-0.445,0-0.854-0.336-0.967-0.838
				c-0.008-0.029-0.796-3.308-3.115-4.093c-0.464-0.157-0.894-0.234-1.285-0.234c-0.832,0-1.496,0.351-1.949,1.043
				c-0.786,1.204-0.74,3.145,0.109,4.516c1.025,1.651,2.062,2.619,2.978,3.474c1.214,1.136,2.36,2.208,2.934,4.363l0.691,2.61
				c0.104-0.008,0.21-0.012,0.313-0.012c2.068,0,3.988,1.511,4.603,3.828c0.379,1.429,0.184,2.882-0.429,4.071
				c0.562,0.056,1.127,0.149,1.689,0.317c3.73,1.114,6.441,4.494,7.461,8.661c0.163,0.556,0.28,1.14,0.362,1.743
				c0.11,0.023,0.221,0.051,0.331,0.074c-0.006-0.006-0.01-0.011-0.01-0.011c0.09,0.02,0.178,0.049,0.267,0.069
				c0.433,0.1,0.862,0.212,1.289,0.336c0.124,0.036,0.247,0.069,0.37,0.107c0.531,0.162,1.056,0.344,1.572,0.543
				c0.113,0.045,0.229,0.094,0.344,0.141c0.419,0.168,0.838,0.35,1.246,0.542c0.145,0.065,0.283,0.13,0.425,0.2
				c0.508,0.248,1.012,0.508,1.505,0.791c0.025,0.016,0.049,0.031,0.072,0.046c0.473,0.272,0.938,0.564,1.396,0.868
				c0.134,0.09,0.267,0.18,0.396,0.271c0.397,0.272,0.791,0.558,1.177,0.854c0.086,0.066,0.173,0.127,0.255,0.195
				c0.459,0.359,0.906,0.736,1.344,1.129c0.109,0.094,0.215,0.195,0.319,0.293c0.351,0.32,0.692,0.65,1.028,0.991
				c0.109,0.11,0.219,0.219,0.326,0.331c0.414,0.433,0.819,0.877,1.215,1.34c0.056,0.067,0.11,0.137,0.166,0.205
				c0.342,0.406,0.672,0.824,0.992,1.254c0.104,0.137,0.209,0.275,0.311,0.416c0.326,0.447,0.645,0.904,0.949,1.374
				c0.041,0.062,0.082,0.122,0.123,0.185c0.34,0.529,0.664,1.073,0.979,1.628c0.081,0.147,0.162,0.298,0.245,0.448
				c0.245,0.451,0.481,0.908,0.71,1.375c0.068,0.141,0.139,0.277,0.207,0.419c0.275,0.587,0.539,1.186,0.788,1.797
				c0.051,0.124,0.096,0.253,0.146,0.378c0.197,0.51,0.389,1.026,0.567,1.551c0.062,0.178,0.121,0.354,0.181,0.535
				c0.209,0.648,0.41,1.305,0.59,1.977C158.363,114.503,150.477,132.334,136.234,137.307z"/>
		</g>
		<path d="M128.678,74.404c-0.43-3.327-2.064-5.977-4.347-6.657c-0.212-0.064-0.429-0.109-0.642-0.14
			c-3.473,0.27-6.834,3.581-7.953,8.382c-0.137,0.588-0.223,1.174-0.283,1.756c1.4-0.835,2.878-1.543,4.439-2.088
			c2.508-0.875,5.043-1.287,7.547-1.287C127.854,74.37,128.266,74.381,128.678,74.404z"/>
	</g>
</g>
</svg>
