<?xml version="1.0" encoding="utf-8"?>
<!-- Generator: Adobe Illustrator 15.0.0, SVG Export Plug-In . SVG Version: 6.00 Build 0)  -->
<!DOCTYPE svg PUBLIC "-//W3C//DTD SVG 1.1//EN" "http://www.w3.org/Graphics/SVG/1.1/DTD/svg11.dtd">
<svg version="1.1" xmlns="http://www.w3.org/2000/svg" xmlns:xlink="http://www.w3.org/1999/xlink" x="0px" y="0px" width="200px"
	 height="200px" viewBox="0 0 200 200" enable-background="new 0 0 200 200" xml:space="preserve">
<g id="icon">
	<g id="Layer_2">
	</g>
	<g id="Layer_1_1_">
		<g>
			<g>
				
					<linearGradient id="SVGID_1_" gradientUnits="userSpaceOnUse" x1="217.2383" y1="21.811" x2="191.8841" y2="-4.2015" gradientTransform="matrix(1 0 0 -1 -50 61)">
					<stop  offset="0" style="stop-color:#FF00AC"/>
					<stop  offset="0.0089" style="stop-color:#FF06AF"/>
					<stop  offset="0.0814" style="stop-color:#FF36C4"/>
					<stop  offset="0.156" style="stop-color:#FF60D6"/>
					<stop  offset="0.2316" style="stop-color:#FF82E5"/>
					<stop  offset="0.3085" style="stop-color:#FF9CF0"/>
					<stop  offset="0.3873" style="stop-color:#FFAEF9"/>
					<stop  offset="0.4689" style="stop-color:#FFB9FD"/>
					<stop  offset="0.5583" style="stop-color:#FFBDFF"/>
					<stop  offset="0.623" style="stop-color:#FFB9FD"/>
					<stop  offset="0.6874" style="stop-color:#FFADF8"/>
					<stop  offset="0.7517" style="stop-color:#FF99F0"/>
					<stop  offset="0.816" style="stop-color:#FF7DE5"/>
					<stop  offset="0.8803" style="stop-color:#FF59D6"/>
					<stop  offset="0.9436" style="stop-color:#FF2DC4"/>
					<stop  offset="1" style="stop-color:#FF00B1"/>
				</linearGradient>
				<path fill="url(#SVGID_1_)" d="M53.428,37.67l-16.19,10.674c0,0-0.694,4.833-0.237,11.096c0.258,3.531,1.57,7.07,4.008,10.189
					l38.324,49.083c4.517,5.781,11.746,8.658,18.755,8.142c1.5-0.111,5.562,0.914,7.378,3.698
					c7.751,11.892,28.181,43.224,28.181,43.224c4.301,5.508,12.471,6.877,18.252,3.059l5.23-3.459
					c2.348-1.551,3.938-3.721,4.714-6.119c1.134-3.506,1.286-8.201,1.286-8.201s-29.283-30.604-38.968-41.061
					c-2.222-2.398-1.954-6.182-1.364-7.434c0.766-1.627,1.271-3.353,1.512-5.115c0.645-4.693,1.725-11.119-1.566-15.334
					L82.095,42.473C75.34,33.822,62.506,31.671,53.428,37.67z"/>
				
					<linearGradient id="SVGID_2_" gradientUnits="userSpaceOnUse" x1="-559.666" y1="3141.4229" x2="-525.8526" y2="3141.7546" gradientTransform="matrix(0.8319 -0.5498 -0.6191 -0.7929 2496.4211 2295.9883)">
					<stop  offset="0" style="stop-color:#FF00AC"/>
					<stop  offset="0.0089" style="stop-color:#FF06AF"/>
					<stop  offset="0.0814" style="stop-color:#FF36C4"/>
					<stop  offset="0.156" style="stop-color:#FF60D6"/>
					<stop  offset="0.2316" style="stop-color:#FF82E5"/>
					<stop  offset="0.3085" style="stop-color:#FF9CF0"/>
					<stop  offset="0.3873" style="stop-color:#FFAEF9"/>
					<stop  offset="0.4689" style="stop-color:#FFB9FD"/>
					<stop  offset="0.5583" style="stop-color:#FFBDFF"/>
					<stop  offset="0.623" style="stop-color:#FFB9FD"/>
					<stop  offset="0.6874" style="stop-color:#FFADF8"/>
					<stop  offset="0.7517" style="stop-color:#FF99F0"/>
					<stop  offset="0.816" style="stop-color:#FF7DE5"/>
					<stop  offset="0.8803" style="stop-color:#FF59D6"/>
					<stop  offset="0.9436" style="stop-color:#FF2DC4"/>
					<stop  offset="1" style="stop-color:#FF00B1"/>
				</linearGradient>
				<path fill="url(#SVGID_2_)" d="M53.457,31.314l-8.273,5.469c-9.137,6.04-11.033,17.998-4.23,26.707l38.586,49.417
					c4.545,5.821,11.824,8.719,18.883,8.196c1.509-0.11,5.599,0.92,7.429,3.726c7.803,11.973,28.371,43.519,28.371,43.519
					c4.329,5.545,12.555,6.924,18.375,3.077l5.268-3.481c5.818-3.846,7.025-11.459,2.695-17.004c0,0-26.139-28.228-35.888-38.754
					c-2.235-2.414-1.968-6.224-1.375-7.484c2.82-5.998,2.168-13.294-2.389-19.134L82.32,36.149
					C75.52,27.438,62.598,25.274,53.457,31.314z"/>
				<g>
					
						<linearGradient id="SVGID_3_" gradientUnits="userSpaceOnUse" x1="163.46" y1="23.0728" x2="112.4066" y2="-30.6331" gradientTransform="matrix(1 0 0 -1 -50 61)">
						<stop  offset="0" style="stop-color:#6A6A86"/>
						<stop  offset="0.7627" style="stop-color:#1A1A21"/>
						<stop  offset="1" style="stop-color:#000000"/>
					</linearGradient>
					<path fill="url(#SVGID_3_)" d="M115.863,85.991c4.671,5.98,3.369,14.191-2.906,18.339l-11.553,7.637
						c-6.275,4.148-15.148,2.662-19.82-3.32L43.953,60.452c-4.67-5.982-3.369-14.193,2.906-18.341l11.553-7.635
						c6.275-4.148,15.148-2.662,19.82,3.32L115.863,85.991z"/>
				</g>
			</g>
			<g>
				<path d="M81.834,21.201c0.414,0.343,0.483,1.014,0.152,1.499L70.713,39.145c-0.332,0.485-0.938,0.6-1.354,0.257l0,0
					c-0.416-0.343-0.482-1.015-0.146-1.5L80.48,21.456C80.812,20.972,81.422,20.857,81.834,21.201L81.834,21.201z"/>
				<path d="M89.004,29.706c0.381,0.385,0.395,1.064,0.026,1.517L76.535,46.548c-0.369,0.452-0.979,0.507-1.361,0.121l0,0
					c-0.385-0.386-0.396-1.065-0.025-1.518l12.494-15.327C88.01,29.373,88.619,29.32,89.004,29.706L89.004,29.706z"/>
				<path d="M95.164,37.594c0.355,0.416,0.324,1.098-0.07,1.521L81.705,53.473c-0.395,0.423-1.003,0.428-1.36,0.013l0,0
					c-0.356-0.418-0.323-1.099,0.071-1.523l13.389-14.356C94.199,37.183,94.809,37.177,95.164,37.594L95.164,37.594z"/>
				<path d="M101.158,44.372c0.355,0.417,0.324,1.099-0.069,1.522L87.699,60.25c-0.395,0.424-1.002,0.429-1.359,0.012l0,0
					c-0.357-0.417-0.324-1.098,0.07-1.523l13.387-14.354C100.192,43.961,100.801,43.955,101.158,44.372L101.158,44.372z"/>
				<path d="M107.369,52.1c0.355,0.418,0.326,1.098-0.068,1.522L93.91,67.98c-0.393,0.422-1,0.428-1.357,0.012l0,0
					c-0.359-0.417-0.326-1.099,0.068-1.523l13.389-14.354C106.404,51.689,107.016,51.684,107.369,52.1L107.369,52.1z"/>
				<path d="M113.332,59.943c0.355,0.416,0.324,1.098-0.068,1.521L99.873,75.822c-0.393,0.423-1.002,0.429-1.36,0.012l0,0
					c-0.356-0.418-0.323-1.099,0.071-1.522l13.387-14.356C112.367,59.531,112.979,59.526,113.332,59.943L113.332,59.943z"/>
				<path d="M118.998,67.625c0.346,0.428,0.299,1.109-0.105,1.521l-13.695,13.987c-0.403,0.412-1.012,0.4-1.356-0.027l0,0
					c-0.348-0.428-0.3-1.109,0.104-1.522l13.697-13.985C118.045,67.186,118.652,67.199,118.998,67.625L118.998,67.625z"/>
				<path d="M124.255,75.624c0.308,0.463,0.206,1.141-0.228,1.512l-14.709,12.611c-0.432,0.371-1.031,0.297-1.34-0.166l0,0
					c-0.31-0.464-0.207-1.142,0.229-1.514l14.706-12.609C123.348,75.086,123.947,75.161,124.255,75.624L124.255,75.624z"/>
			</g>
			<g>
				<path d="M68.818,24.642c0.415,0.343,0.484,1.015,0.153,1.5L57.699,42.585c-0.333,0.485-0.938,0.6-1.354,0.257l0,0
					c-0.417-0.343-0.483-1.015-0.148-1.5l11.27-16.444C67.799,24.414,68.406,24.298,68.818,24.642L68.818,24.642z"/>
				<path d="M75.988,33.147c0.382,0.385,0.396,1.064,0.027,1.517L63.52,49.99c-0.367,0.452-0.977,0.506-1.361,0.12l0,0
					c-0.383-0.385-0.396-1.065-0.025-1.518L74.63,33.265C74.996,32.815,75.604,32.761,75.988,33.147L75.988,33.147z"/>
				<path d="M82.148,41.036c0.355,0.416,0.326,1.098-0.068,1.521L68.689,56.914c-0.395,0.424-1.002,0.429-1.359,0.013l0,0
					c-0.356-0.418-0.324-1.099,0.07-1.523l13.391-14.356C81.186,40.624,81.794,40.618,82.148,41.036L82.148,41.036z"/>
				<path d="M88.145,47.813c0.355,0.417,0.322,1.098-0.07,1.522L74.686,63.691c-0.396,0.424-1.003,0.43-1.361,0.013l0,0
					c-0.357-0.417-0.324-1.099,0.071-1.523l13.387-14.355C87.179,47.402,87.787,47.396,88.145,47.813L88.145,47.813z"/>
				<path d="M94.355,55.541c0.355,0.418,0.324,1.098-0.069,1.523l-13.39,14.357c-0.393,0.422-1,0.428-1.358,0.011l0,0
					c-0.359-0.417-0.325-1.099,0.068-1.523l13.391-14.355C93.391,55.13,94,55.125,94.355,55.541L94.355,55.541z"/>
				<path d="M100.318,63.384c0.354,0.416,0.323,1.097-0.07,1.521L86.857,79.262c-0.393,0.424-1,0.43-1.359,0.012l0,0
					c-0.357-0.416-0.324-1.098,0.07-1.522l13.388-14.355C99.353,62.972,99.963,62.967,100.318,63.384L100.318,63.384z"/>
				<path d="M105.984,71.066c0.345,0.428,0.297,1.109-0.105,1.521L92.182,86.575c-0.404,0.412-1.01,0.4-1.356-0.027l0,0
					c-0.347-0.428-0.3-1.109,0.104-1.522l13.695-13.986C105.029,70.626,105.639,70.64,105.984,71.066L105.984,71.066z"/>
				<path d="M111.24,79.065c0.307,0.463,0.205,1.14-0.229,1.512l-14.71,12.61c-0.43,0.372-1.03,0.298-1.338-0.166l0,0
					c-0.31-0.464-0.208-1.142,0.228-1.514l14.707-12.608C110.332,78.528,110.934,78.602,111.24,79.065L111.24,79.065z"/>
			</g>
			<g>
				<path d="M61.4,35.294c0.416,0.343,0.484,1.014,0.154,1.5L50.282,53.237c-0.333,0.486-0.94,0.6-1.354,0.257l0,0
					c-0.416-0.343-0.482-1.015-0.148-1.5L60.05,35.55C60.381,35.065,60.988,34.95,61.4,35.294L61.4,35.294z"/>
				<path d="M68.57,43.798c0.381,0.385,0.396,1.064,0.029,1.517L56.103,60.641c-0.368,0.452-0.979,0.507-1.36,0.121l0,0
					c-0.385-0.386-0.398-1.065-0.027-1.518l12.496-15.327C67.577,43.466,68.188,43.412,68.57,43.798L68.57,43.798z"/>
				<path d="M74.73,51.688c0.355,0.416,0.326,1.097-0.068,1.521l-13.39,14.356c-0.394,0.424-1.003,0.429-1.358,0.013l0,0
					c-0.357-0.417-0.326-1.099,0.07-1.522L73.372,51.7C73.768,51.275,74.377,51.27,74.73,51.688L74.73,51.688z"/>
				<path d="M80.727,58.465c0.355,0.417,0.324,1.098-0.07,1.522L67.268,74.342c-0.395,0.424-1.003,0.43-1.36,0.014l0,0
					c-0.358-0.418-0.325-1.1,0.071-1.524l13.387-14.355C79.762,58.053,80.369,58.047,80.727,58.465L80.727,58.465z"/>
				<path d="M86.938,66.193c0.355,0.418,0.324,1.098-0.068,1.522L73.479,82.073c-0.393,0.423-1.001,0.428-1.357,0.012l0,0
					c-0.36-0.417-0.328-1.1,0.067-1.523l13.39-14.355C85.973,65.782,86.582,65.777,86.938,66.193L86.938,66.193z"/>
				<path d="M92.9,74.036c0.355,0.416,0.322,1.098-0.07,1.521L79.441,89.915c-0.395,0.423-1.002,0.429-1.361,0.012l0,0
					c-0.355-0.418-0.324-1.098,0.072-1.523l13.387-14.355C91.934,73.624,92.545,73.619,92.9,74.036L92.9,74.036z"/>
				<path d="M98.566,81.717c0.344,0.428,0.297,1.109-0.105,1.521L84.764,97.226c-0.402,0.413-1.01,0.401-1.357-0.026l0,0
					c-0.346-0.43-0.298-1.11,0.105-1.523L97.207,81.69C97.613,81.278,98.221,81.292,98.566,81.717L98.566,81.717z"/>
				<path d="M103.822,89.717c0.309,0.462,0.207,1.139-0.229,1.512l-14.709,12.609c-0.431,0.373-1.032,0.299-1.339-0.166l0,0
					c-0.309-0.463-0.207-1.141,0.229-1.514L102.48,89.55C102.916,89.178,103.516,89.252,103.822,89.717L103.822,89.717z"/>
			</g>
		</g>
	</g>
</g>
<g id="outline_x5F_white">
	<path fill="#FFFFFF" d="M170.02,143.555c-0.209-0.266-0.428-0.522-0.656-0.771l-33.155-35.802l0.065-0.469
		c0.371-2.688,0.834-6.015,0.701-9.655c-0.06-6.755-2.341-13.206-6.605-18.675l-1.448-1.854c0.018-1.104-0.269-2.219-0.918-3.196
		c-0.792-1.192-2.004-1.997-3.363-2.286l-1.038-1.33c0.352-1.619-0.005-3.361-1.11-4.729c-1.021-1.257-2.526-1.98-4.136-1.989
		l-0.495-0.634c0.489-1.754,0.142-3.684-1.096-5.133c-1.023-1.207-2.514-1.899-4.089-1.899c-0.099,0-0.196,0.01-0.294,0.016
		l-0.529-0.678c0.551-1.79,0.22-3.787-1.055-5.286c-1.022-1.204-2.512-1.895-4.085-1.895c-0.15,0-0.3,0.011-0.448,0.024
		l-0.574-0.735c0.48-1.75,0.13-3.676-1.115-5.137c-1.024-1.195-2.51-1.88-4.075-1.88c-0.093,0-0.185,0.01-0.277,0.015l-0.378-0.485
		c0.219-1.546-0.181-3.159-1.253-4.416c-0.93-1.092-2.244-1.754-3.654-1.868l-1.192-1.527c0.249-1.694-0.273-3.459-1.552-4.751
		c-1.017-1.021-2.366-1.583-3.8-1.583c-0.044,0-0.087,0.006-0.13,0.007c-0.569-0.528-1.151-1.042-1.756-1.527
		c0.517-2.053-0.122-4.302-1.787-5.68c-0.961-0.803-2.179-1.245-3.428-1.245c-1.486,0-2.893,0.623-3.923,1.69
		c-3.882-1.491-8.053-2.302-12.303-2.302c-6.564,0-12.866,1.871-18.223,5.411l-8.275,5.47c-6.598,4.362-11.159,10.886-12.904,18.43
		c-0.131,0.475-0.233,0.958-0.305,1.449c0,0-0.005,0.039-0.016,0.111c-0.348,1.967-0.5,3.94-0.454,5.881
		c-0.087,2.574-0.039,5.151,0.144,7.667c0.44,6.037,2.695,11.813,6.521,16.708l38.321,49.08c6.27,8.025,16.212,12.816,26.599,12.816
		c0.039,0,0.078,0,0.117,0c8.453,12.967,27.003,41.416,27.003,41.416c0.186,0.285,0.385,0.562,0.594,0.832
		c4.811,6.158,12.426,9.836,20.371,9.836c5.018,0,9.842-1.436,13.952-4.15l5.236-3.463c4.506-2.979,7.884-7.396,9.514-12.438
		c1.569-4.857,1.826-10.406,1.861-11.494C175.4,153.771,173.598,148.141,170.02,143.555z M163.127,159.055
		c0,0-0.152,4.694-1.286,8.2c-0.774,2.397-2.366,4.568-4.714,6.119l-5.23,3.459c-2.215,1.463-4.776,2.164-7.34,2.164
		c-4.131,0-8.259-1.822-10.912-5.224c0,0-20.43-31.332-28.181-43.223c-1.729-2.65-5.491-3.707-7.144-3.707
		c-0.083,0-0.162,0.002-0.234,0.008c-0.538,0.041-1.075,0.062-1.614,0.062c-6.486,0-12.971-2.863-17.141-8.201L41.008,69.629
		C38.57,66.51,37.258,62.971,37,59.44c-0.188-2.581-0.18-4.911-0.105-6.769c-0.059-1.368,0.055-2.728,0.309-4.063
		c0.021-0.168,0.034-0.264,0.034-0.264l0.024-0.017c0.934-4.523,3.611-8.696,7.922-11.545l8.273-5.469
		c3.5-2.312,7.555-3.422,11.607-3.422c1.004,0,2.007,0.078,3.002,0.215L70.5,26.5c0,0,6.381,2.796,14.99,11.687
		s38.943,47.856,38.943,47.856l-1.842,2.081c1.6,2.864,2.386,5.954,2.386,9.003c0.127,2.868-0.328,5.833-0.67,8.318
		c-0.191,1.404-0.56,2.783-1.084,4.109c0.272,0.934,0.729,1.854,1.448,2.629c9.749,10.526,35.888,38.754,35.888,38.754
		c1.926,2.467,2.75,5.342,2.565,8.112L163.127,159.055z"/>
</g>
<g id="outline_x5F_black">
	<g>
		<g>
			<path d="M65.064,27.891c6.531,0,13.06,2.883,17.256,8.258l38.588,49.416c2.75,3.525,4.068,7.581,4.068,11.562
				c0.127,2.868-0.328,5.833-0.67,8.318c-0.191,1.404-0.56,2.783-1.084,4.109c0.272,0.934,0.729,1.854,1.448,2.629
				c9.749,10.526,35.888,38.754,35.888,38.754c1.926,2.467,2.75,5.342,2.565,8.112l0.003,0.005c0,0-0.152,4.694-1.286,8.2
				c-0.774,2.397-2.366,4.568-4.714,6.119l-5.23,3.459c-2.215,1.463-4.776,2.164-7.34,2.164c-4.131,0-8.259-1.822-10.912-5.224
				c0,0-20.43-31.332-28.181-43.223c-1.729-2.65-5.49-3.707-7.143-3.707c-0.084,0-0.163,0.002-0.235,0.008
				c-0.537,0.041-1.076,0.062-1.614,0.062c-6.487,0-12.971-2.863-17.141-8.201L41.008,69.629C38.57,66.51,37.258,62.971,37,59.44
				c-0.188-2.581-0.18-4.911-0.105-6.769c-0.059-1.368,0.055-2.728,0.309-4.063c0.021-0.168,0.034-0.264,0.034-0.264l0.024-0.017
				c0.934-4.523,3.611-8.696,7.922-11.545l8.273-5.469C56.957,29.001,61.012,27.891,65.064,27.891 M65.064,21.891
				c-5.385,0-10.542,1.527-14.915,4.417l-8.274,5.469c-4.731,3.128-8.157,7.626-9.834,12.846l-0.337,0.229l-0.406,2.644
				c0,0-0.009,0.067-0.025,0.189c-0.304,1.672-0.432,3.346-0.381,4.981c-0.089,2.422-0.046,4.846,0.125,7.208
				c0.354,4.844,2.174,9.494,5.265,13.448l38.322,49.083c5.141,6.579,13.316,10.508,21.87,10.508c0.613,0,1.232-0.021,1.845-0.062
				c0.713,0.094,1.865,0.618,2.124,0.981c7.749,11.887,28.177,43.219,28.177,43.219l0.14,0.216l0.157,0.2
				c3.683,4.716,9.528,7.529,15.644,7.529c3.838,0,7.519-1.092,10.646-3.156l5.233-3.461c3.424-2.264,5.884-5.473,7.113-9.278
				c1.354-4.189,1.557-9.285,1.574-9.853l0.001-0.045c0.013-0.226,0.021-0.451,0.022-0.677l0.043-1.358l-0.088-0.119
				c-0.254-3.516-1.569-6.928-3.813-9.805l-0.155-0.199l-0.173-0.188l-35.213-38.022c0.218-0.853,0.386-1.713,0.503-2.578
				l0.079-0.569c0.343-2.474,0.771-5.544,0.646-8.694c-0.029-5.454-1.873-10.679-5.338-15.119L87.051,32.456
				C81.885,25.841,73.666,21.891,65.064,21.891L65.064,21.891z"/>
		</g>
		<g>
			<defs>
				<path id="SVGID_4_" d="M71.872,26.25c0,0,6.312,0.447,12.146,8.021S123,83.434,123,83.434l6.439-6.441L87.186,14.25l-14.108,3.5
					L71.872,26.25z"/>
			</defs>
			<clipPath id="SVGID_5_">
				<use xlink:href="#SVGID_4_"  overflow="visible"/>
			</clipPath>
			<g clip-path="url(#SVGID_5_)">
				<path d="M81.834,21.201c-0.412-0.344-1.022-0.229-1.354,0.255L69.213,37.902c-0.336,0.485-0.27,1.157,0.146,1.5
					c0.416,0.343,1.022,0.228,1.354-0.257L81.986,22.7C82.317,22.215,82.248,21.544,81.834,21.201z"/>
				<path d="M89.004,29.706c-0.385-0.386-0.994-0.333-1.361,0.118L75.149,45.151c-0.371,0.453-0.36,1.132,0.025,1.518
					c0.382,0.386,0.992,0.331,1.361-0.121L89.03,31.223C89.399,30.77,89.385,30.091,89.004,29.706z"/>
				<path d="M95.164,37.594c-0.355-0.417-0.965-0.411-1.359,0.013L80.416,51.963c-0.394,0.424-0.427,1.105-0.071,1.523
					c0.357,0.415,0.965,0.41,1.36-0.013l13.389-14.358C95.488,38.692,95.519,38.01,95.164,37.594z"/>
				<path d="M101.158,44.372c-0.357-0.417-0.966-0.411-1.361,0.013L86.41,58.739c-0.394,0.425-0.427,1.105-0.07,1.523
					c0.357,0.417,0.964,0.412,1.359-0.012l13.39-14.356C101.482,45.471,101.514,44.789,101.158,44.372z"/>
				<path d="M107.369,52.1c-0.354-0.416-0.965-0.411-1.359,0.014L92.621,66.469c-0.394,0.424-0.427,1.106-0.068,1.523
					c0.357,0.416,0.964,0.41,1.357-0.012l13.391-14.358C107.695,53.198,107.725,52.518,107.369,52.1z"/>
				<path d="M113.332,59.943c-0.354-0.417-0.965-0.412-1.361,0.013L98.584,74.312c-0.394,0.423-0.427,1.104-0.071,1.522
					c0.358,0.417,0.967,0.411,1.36-0.012l13.391-14.358C113.656,61.041,113.688,60.359,113.332,59.943z"/>
				<path d="M118.998,67.625c-0.346-0.426-0.953-0.439-1.355-0.026l-13.697,13.985c-0.404,0.413-0.452,1.094-0.104,1.522
					c0.345,0.427,0.953,0.439,1.356,0.027l13.695-13.987C119.297,68.734,119.344,68.053,118.998,67.625z"/>
				<path d="M124.255,75.624c-0.308-0.463-0.907-0.538-1.342-0.166l-14.706,12.609c-0.436,0.372-0.538,1.05-0.229,1.514
					c0.309,0.463,0.908,0.537,1.34,0.166l14.709-12.611C124.461,76.765,124.562,76.087,124.255,75.624z"/>
			</g>
		</g>
	</g>
</g>
</svg>
