<?xml version="1.0" encoding="utf-8"?>
<!-- Generator: Adobe Illustrator 15.0.0, SVG Export Plug-In . SVG Version: 6.00 Build 0)  -->
<!DOCTYPE svg PUBLIC "-//W3C//DTD SVG 1.1//EN" "http://www.w3.org/Graphics/SVG/1.1/DTD/svg11.dtd">
<svg version="1.1" xmlns="http://www.w3.org/2000/svg" xmlns:xlink="http://www.w3.org/1999/xlink" x="0px" y="0px" width="200px"
	 height="200px" viewBox="0 0 200 200" enable-background="new 0 0 200 200" xml:space="preserve">
<g id="icon">
	<g id="Layer_2">
	</g>
	<g>
		<path d="M182.939,75.666c-0.666-6.253-5.229-10.934-5.229-10.934s-18.638-23.252-65.796-10.658
			c-25.447,6.795-46.858,26.48-63.88,43.192l0.001-0.002c-12.812,12.99-25.29,7.368-25.29,7.368s2.321,2.722,7.339,4.78
			c1.135,0.466,2.167,0.729,3.111,0.865c-9.185,5.646-16.223,4.98-16.223,4.98s6.624,12.799,20.8,7.783c0,0,0.049,0.041,0.124,0.103
			c-5.055,5.013-10.159,5.363-10.159,5.363s3.074,1.435,8.107,0.898c3.159-0.337,5.083-1.698,6.25-3.057
			c9.113,6.592,31.668,20.921,57.907,22.884c45.959,3.438,67.294-13.951,75.71-40.323c3.051-9.554,3.966-18.341,3.946-25.518
			C179.657,83.391,183.672,82.53,182.939,75.666z"/>
		<g>
			<g>
				<defs>
					<path id="SVGID_1_" d="M49.719,117.378c0,0,17.559-25.718,47.83-44.349c45.701-28.13,73.551,0.734,73.551,0.734
						s8.057,47.572-37.52,62.749C85.876,152.398,49.719,117.378,49.719,117.378z"/>
				</defs>
				<clipPath id="SVGID_2_">
					<use xlink:href="#SVGID_1_"  overflow="visible"/>
				</clipPath>
				<g clip-path="url(#SVGID_2_)">
					<g>
						
							<radialGradient id="SVGID_3_" cx="1972.3672" cy="-1042.1943" r="60.8018" gradientTransform="matrix(0.9974 0.4883 0.5018 -0.9738 -1329.8712 -1886.6626)" gradientUnits="userSpaceOnUse">
							<stop  offset="0.6442" style="stop-color:#FFFFF5"/>
							<stop  offset="0.7105" style="stop-color:#FBFBF1"/>
							<stop  offset="0.7793" style="stop-color:#F1EEE4"/>
							<stop  offset="0.8492" style="stop-color:#DFDAD0"/>
							<stop  offset="0.9198" style="stop-color:#C6BDB3"/>
							<stop  offset="0.9905" style="stop-color:#A7988E"/>
							<stop  offset="1" style="stop-color:#A29288"/>
						</radialGradient>
						<path fill="url(#SVGID_3_)" d="M174.07,134.736c-19.613,38.057-67.106,53.438-106.083,34.356
							c-38.978-19.082-54.676-65.399-35.065-103.456c19.612-38.057,67.106-53.44,106.086-34.355
							C177.982,50.362,193.684,96.68,174.07,134.736z"/>
					</g>
					<g>
						
							<radialGradient id="SVGID_4_" cx="174.374" cy="-27.1387" r="37.637" gradientTransform="matrix(1 0 0 -1 -50 61)" gradientUnits="userSpaceOnUse">
							<stop  offset="0.2331" style="stop-color:#74B344"/>
							<stop  offset="0.3643" style="stop-color:#71AF43"/>
							<stop  offset="0.5002" style="stop-color:#66A23F"/>
							<stop  offset="0.6384" style="stop-color:#558E3A"/>
							<stop  offset="0.778" style="stop-color:#3C7132"/>
							<stop  offset="0.9175" style="stop-color:#1D4C28"/>
							<stop  offset="1" style="stop-color:#083221"/>
						</radialGradient>
						<path fill="url(#SVGID_4_)" d="M125.372,133.521c-16.163,0-30.733-10.947-36.257-27.24c-3.443-10.163-2.772-21.259,1.84-30.44
							c4.225-8.413,11.352-14.6,20.068-17.423c3.394-1.099,6.925-1.656,10.496-1.656c16.031,0,30.561,10.831,36.152,26.951
							c0.732,2.27,1.314,4.561,1.744,6.841c3.066,18.543-6.836,35.903-23.544,41.312
							C132.479,132.964,128.945,133.521,125.372,133.521C125.373,133.521,125.373,133.521,125.372,133.521z"/>
						<path d="M121.52,58.261c14.926,0,29.263,10.163,34.736,25.942c0.7,2.172,1.266,4.381,1.688,6.627
							c2.883,17.426-6.319,34.359-22.531,39.607c-3.314,1.072-6.689,1.584-10.039,1.584c-15.016,0-29.433-10.281-34.836-26.223
							c-6.604-19.495,2.772-40.068,20.949-45.955C114.798,58.772,118.173,58.261,121.52,58.261 M121.52,55.261
							c-3.729,0-7.414,0.582-10.959,1.729c-9.101,2.948-16.54,9.403-20.945,18.176c-4.791,9.538-5.49,21.055-1.92,31.596
							c2.819,8.314,7.961,15.416,14.87,20.536c6.72,4.979,14.819,7.724,22.809,7.724c3.729,0,7.418-0.582,10.963-1.729
							c17.42-5.64,27.752-23.703,24.566-42.951l-0.006-0.032l-0.006-0.032c-0.438-2.343-1.037-4.695-1.779-6.994l-0.01-0.031
							l-0.012-0.031C153.288,66.497,138.189,55.261,121.52,55.261L121.52,55.261z"/>
					</g>
					<path fill="#8DC63F" d="M134.262,110.846c0.465-0.148,1.971,0.196,2.399-0.008c0.438-0.206-5.029-10.629-4.636-10.887
						c0.406-0.26,7.832,8.461,8.191,8.154c0.363-0.31-8.263-9.442-7.945-9.792c0.319-0.349,3.146,1.961,3.42,1.574
						c0.273-0.386,6.713,2.799,6.94,2.383c0.224-0.412-3.168-2.704-2.993-3.144c0.172-0.434,6.199,0.63,6.323,0.173
						c0.123-0.448,2.968-1.167,3.042-1.634c0.072-0.462-10.77-2.313-10.742-2.788c0.018-0.465,10.961-1.339,10.936-1.812
						c-0.026-0.465-11.895,0.079-11.975-0.39c-0.068-0.384,0.06-0.586-0.039-0.965c-0.097-0.378-4.592,0.87-4.711,0.497
						c-0.162-0.469,12.857-5.922,12.65-6.361c-0.211-0.449-1.034-1.334-1.287-1.748c-0.26-0.422-3.07,0.206-3.371-0.18
						c-0.301-0.395-9.629,6.957-9.966,6.604c-0.347-0.359,10.67-12.321,10.293-12.635c-0.381-0.32-1.153-1.68-1.565-1.951
						c-0.42-0.271-2.687,0.772-3.127,0.552c-0.449-0.223-4.938,8.02-5.406,7.854c-0.469-0.169-0.195-1.919-0.687-2.024
						c-0.485-0.108-0.146-7.559-0.638-7.599c-0.501-0.047-1.848,0.667-2.35,0.688c-0.494,0.023-0.334,7.848-0.832,7.938
						c-0.483,0.087-2.117-4.149-2.6-3.991c-0.484,0.155-3.628-4.248-4.072-4.031c-0.457,0.219-0.402,3.034-0.815,3.307
						c-0.421,0.277,3.333,6.111,2.959,6.438c-0.376,0.329,1.508,2.231,1.183,2.606c-0.324,0.372-4.266-2.22-4.542-1.808
						c-0.272,0.409-2.534-0.092-2.759,0.352c-0.221,0.44,4.43,2.839,4.264,3.307c-0.164,0.461-11.584-1.857-11.697-1.374
						c-0.109,0.476,2.65,2.241,2.596,2.733c-0.057,0.482,1.281,1.596,1.281,2.09c0,0.486,8.783,0.5,8.84,0.992
						c0.055,0.482-2.916,1.162-2.809,1.646c0.104,0.474-4.551,2.36-4.392,2.833c0.163,0.469,5.567-0.966,5.772-0.523
						c0.211,0.451,0.758,0.48,1.014,0.903c0.254,0.425-5.273,4.732-4.98,5.125c0.307,0.395,0.865,1.249,1.204,1.604
						c0.343,0.361-0.059,2.387,0.319,2.703c0.387,0.323,7.65-7.957,8.061-7.682c0.422,0.275-2.861,6.408-2.421,6.633
						c0.449,0.227,4.067-7.043,4.538-6.875c0.471,0.169,0.208,0.285,0.693,0.395c0.492,0.111,0.552-2.959,1.053-2.916
						c0.502,0.045,0.23,9.287,0.734,9.266c0.498-0.021,1.957,4.446,2.457,4.356C132.561,111.346,133.781,111.003,134.262,110.846z"
						/>
					<g opacity="0.46">
						<path fill="#00420F" d="M136.132,112.669c-0.8,0.474,5.36,13.458,4.493,13.847c-0.844,0.383-1.87,2.471-2.775,2.765
							c-0.244,0.077-0.592-0.013-0.986-0.177c0.142,0.225,0.281,0.439,0.418,0.658c3.605-1.416,6.826-3.428,9.607-5.9
							C144.044,121.176,136.811,112.268,136.132,112.669z"/>
						<path fill="#00420F" d="M128.634,75.699c0.853,0.227,5.748-11.857,7.435-14.152c-0.18-0.083-0.361-0.167-0.541-0.246
							c-2.947,5.368-5.887,10.735-6.324,10.567c-0.748-0.286,1.934-9.179,2.236-12.101c-0.475-0.144-0.949-0.282-1.43-0.406
							C129.43,65.361,127.956,75.52,128.634,75.699z"/>
						<path fill="#00420F" d="M122.141,61.975c0.998-0.081,2.107,7.709,3.096,7.744c0.65,0.023,2.097-6.361,3.293-10.713
							c-3.195-0.681-6.484-0.9-9.774-0.62c-0.003,0.292-0.006,0.583-0.012,0.872C119.818,59.964,121.348,62.038,122.141,61.975z"/>
						<path fill="#00420F" d="M101.673,75.587c0.146-0.19-0.013-0.587-0.305-1.075c-0.638-0.271-1.064-0.382-1.165-0.24
							c-0.122,0.178,0.288,0.658,0.968,1.297C101.445,75.645,101.62,75.654,101.673,75.587z"/>
						<path fill="#00420F" d="M93.146,111.811c2.739-2.194,9.022-6.225,8.736-6.873c-0.36-0.83,6.399-3.918,6.103-4.792
							c-0.299-0.877,2.588-1.787,2.371-2.668c-0.221-0.895-11.285,0.77-11.424-0.124c-0.138-0.913,9.443-2.413,9.387-3.317
							c-0.062-0.922-17.876-1.422-17.856-2.33c0.025-0.92,14.494-0.92,14.604-1.822c0.107-0.914-9.993-3.321-9.805-4.209
							c0.194-0.899,12.312,1.41,12.586,0.543c0.282-0.879-5.494-3.371-5.137-4.209c0.364-0.848,5.027,0.783,5.473-0.018
							c0.338-0.619-4.801-4.356-7.013-6.422c-1.079-0.298-3.723-1.609-6.527-3.026c-1.084,1.585-2.039,3.265-2.852,5.023
							c1.268,0.923,2.155,1.663,2.041,1.926c-0.365,0.856,3.949,3.01,3.651,3.897c-0.301,0.879-4.051,0.369-4.282,1.275
							c-0.105,0.414-1.955,0.48-3.938,0.523c-0.146,0.686-0.278,1.376-0.386,2.077c4.673,1.14,11.282,2.501,11.224,3.101
							c-0.046,0.475-5.927,0.594-11.627,0.729c-0.039,0.755-0.051,1.512-0.046,2.274c3.688,0.388,6.931,0.781,6.95,1.183
							c0.021,0.489-3.5,1.25-6.803,1.994c0.274,3.07,0.915,6.176,1.959,9.255C91.251,107.91,92.134,109.911,93.146,111.811z"/>
						<path fill="#00420F" d="M111.48,79.398c0.604-0.701-6.398-7.876-5.725-8.51c0.671-0.634-1.691-5.458-0.949-6.016
							c0.738-0.557,10.744,12.298,11.549,11.82c0.797-0.469,0.467-0.893,1.324-1.279c0.838-0.378-2.77-10.883-1.869-11.173
							c0.28-0.093,0.516-0.583,0.722-1.228c-0.427-1.267-0.892-2.718-1.347-4.125c-0.777,0.154-1.557,0.34-2.332,0.554
							c0.201,2.21,0.321,4.142-0.062,4.264c-0.341,0.112-1.374-1.449-2.571-3.417c-2.766,1.028-5.314,2.397-7.623,4.056
							c0.998,2.003,1.791,3.726,1.488,3.963c-0.283,0.22-1.795-0.879-3.608-2.296c-0.869,0.744-1.695,1.532-2.479,2.36
							c0.649,1,1.046,1.75,0.872,1.943c-0.463,0.521,1.625,2.771,2.497,4.197C104.164,75.701,110.992,79.967,111.48,79.398z"/>
						<path fill="#00420F" d="M98.134,117.365c-0.323,0.297-0.594,0.559-0.804,0.775c0.207,0.256,0.408,0.51,0.622,0.756
							c0.053-0.011,0.104-0.021,0.162-0.032C98.268,118.24,98.366,117.664,98.134,117.365z"/>
						<path fill="#00420F" d="M113.745,103.744c-0.42-0.631-15.046,6.92-20.126,8.959c0.369,0.654,0.764,1.292,1.168,1.92
							c1.856-0.635,3.563-1.18,3.796-0.838c0.541,0.775-1.036,2.844-0.453,3.57c0,0.004-0.001,0.006,0.004,0.01
							C102.162,113.646,114.171,104.377,113.745,103.744z"/>
						<path fill="#00420F" d="M131.639,131.408c0.74-0.145,1.482-0.314,2.217-0.514c-0.15-1.023-0.297-2.021-0.407-2.908
							c-0.601,0.557-1.272,2.156-1.903,3.109C131.575,131.199,131.605,131.303,131.639,131.408z"/>
						<path fill="#00420F" d="M128.622,123.215c-0.947,0.133-1.285-3.379-2.233-3.33l0,0c0.096,3.453,0.204,6.779,0.656,6.788
							c0.816,0.011,2.324,4.024,3.316,4.964c0.301-0.047,0.604-0.104,0.898-0.16c0.094-0.108,0.188-0.236,0.283-0.379
							C130.302,127.07,129.076,123.152,128.622,123.215z"/>
						<path fill="#00420F" d="M125.725,112.291c-0.932-0.115-2.289,6.52-3.199,6.309c-0.908-0.211-4.215,7.491-5.103,7.188
							c-0.878-0.302,4.384-14.362,3.533-14.75c-0.843-0.388-0.271-1.075-1.078-1.544c-0.798-0.462-3.183,3.048-3.944,2.508
							c-0.746-0.537-12.373,11.941-13.082,11.331c-0.694-0.601,1.569-5.104,0.928-5.774c-0.478-0.492-3.778,0.879-5.664,1.308
							c-0.015,0.056-0.029,0.11-0.042,0.17c1.869,2.169,3.942,4.112,6.182,5.782c2.167-2.062,4.181-3.926,4.53-3.687
							c0.781,0.537,0.822,1.455,1.642,1.927c0.819,0.479-0.56,4.455,0.296,4.865c0.854,0.411,3.438-3.56,4.32-3.218
							c0.574,0.221,0.037,3.356-0.173,5.631c0.546,0.179,1.095,0.341,1.646,0.49c1.18-2.163,2.633-5.431,3.248-5.3
							c0.93,0.195,1.118,2.066,2.063,2.186c0.946,0.115,1.75-5.238,2.704-5.206c0.947,0.037,0.904-2.573,1.857-2.621
							C126.289,116.189,126.201,112.352,125.725,112.291z"/>
						<path fill="#00420F" d="M133.361,124.398c-0.281,0.094-0.176,1.578,0.086,3.588c0.107-0.104,0.219-0.176,0.318-0.199
							c0.661-0.133,2.045,0.869,3.096,1.316C135.417,126.791,133.876,124.232,133.361,124.398z"/>
						<path fill="#00420F" d="M118.201,66.731c0.408-0.058,0.496-3.545,0.541-7.473c-0.256-0.168-0.489-0.261-0.678-0.222
							c-0.678,0.133-1.045,2.476-1.532,3.977C117.258,65.162,117.884,66.777,118.201,66.731z"/>
						<path fill="#00420F" d="M134.266,73.125c0.871,0.445,1.375,0.469,2.207,1.004c0.821,0.529,4.42-3.061,5.192-2.443
							c0.765,0.604-1.222,3.914-0.509,4.6c0.695,0.678,1.41,0.871,2.053,1.617c0.627,0.738,2.186,0.468,2.75,1.273
							c0.555,0.794-1.282,2.666-0.798,3.521c0.431,0.757,6.83-1.434,8.379-1.213c0.382-0.267,0.812-0.553,1.28-0.857
							c-0.805-1.766-1.731-3.443-2.756-5.033c-2.154,0.787-4.328,1.586-4.6,1.203c-0.186-0.268,1.186-1.691,3.021-3.466
							c-1.655-2.215-3.52-4.221-5.543-5.994c-3.573,3.253-7.422,6.814-7.814,6.503c-0.738-0.586,2.055-4.827,1.28-5.352
							c-0.58-0.392-2.767,2.285-4.204,3.536C134.107,72.639,134.107,73.047,134.266,73.125z"/>
						<path fill="#00420F" d="M150.539,90.83c0.641-0.682,1.458-1.369,1.287-2.029c-0.07-0.262-0.344-0.436-0.717-0.566
							c-0.061,0.152-0.09,0.297-0.06,0.428C151.227,89.355,150.68,90.107,150.539,90.83z"/>
						<path fill="#00420F" d="M151.881,82.977c0.362,0.848-4.848,3.178-4.545,4.061c0.27,0.829,2.566,0.779,3.773,1.197
							c0.342-0.887,1.92-2.113,1.688-2.842c-0.324-0.928,1.475-2.879,1.077-3.754c-0.038-0.088-0.169-0.129-0.334-0.154
							C152.471,82.222,151.799,82.777,151.881,82.977z"/>
						<path fill="#00420F" d="M133.053,72.615c0.217,0.123,0.639-0.146,1.152-0.592c0.24-1.598,1.143-4.617,1.781-7.07
							C134.177,69.024,132.734,72.428,133.053,72.615z"/>
						<path fill="#00420F" d="M140.287,112.835c-0.439,0.507,4.932,5.976,8.125,9.585c1.066-1.078,2.056-2.23,2.965-3.443
							C147.293,116.621,140.732,112.316,140.287,112.835z"/>
						<path fill="#00420F" d="M136.646,61.813c-0.051,0.679-0.313,1.828-0.66,3.14c0.41-0.92,0.837-1.868,1.266-2.828
							C137.055,62.023,136.854,61.913,136.646,61.813z"/>
						<path fill="#00420F" d="M149.837,92.092c0.435-0.248,0.722-0.494,0.685-0.73c-0.033-0.175-0.017-0.352,0.019-0.531
							C150.145,91.254,149.822,91.678,149.837,92.092z"/>
						<path fill="#00420F" d="M145.164,111.354c-0.332,0.556,4.135,3.976,7.042,6.465c0.218-0.318,0.43-0.646,0.636-0.969
							c-0.604-1.154-1.15-2.25-0.912-2.602c0.217-0.312,0.717-0.551,1.269-0.777C150.35,112.672,145.52,110.757,145.164,111.354z"/>
						<path fill="#00420F" d="M150.63,103.8c-0.082,0.366,2.437,1.392,5.532,2.567c0.578-0.025,0.979-0.109,1.038-0.303
							c0.185-0.601-1.667-1.828-2.802-2.836C152.459,103.29,150.723,103.387,150.63,103.8z"/>
						<path fill="#00420F" d="M149.307,106.436c-0.355,0.855,6.284,5.092,5.846,5.904c-0.262,0.484-1.16,0.796-1.954,1.131
							c0.558,0.156,1.034,0.269,1.392,0.312c1.112-2.22,2.003-4.566,2.643-7.009c-0.359-0.141-0.715-0.274-1.068-0.405
							C154.085,106.459,149.585,105.77,149.307,106.436z"/>
						<path fill="#00420F" d="M153.562,102.055c-0.061,0.288,0.311,0.709,0.836,1.174c1.248-0.039,2.576-0.061,3.603-0.145
							c0.08-0.506,0.146-1.014,0.209-1.527c-0.631-0.254-1.378-0.516-2.104-0.781C154.939,101.18,153.66,101.568,153.562,102.055z"
							/>
						<path fill="#00420F" d="M146.148,94.195c0.043,0.533,4.326,0.92,7.922,1.332c0.412-0.49,0.881-0.975,0.83-1.525
							c-0.088-0.955-4.9-0.838-5.061-1.801c-0.004-0.034-0.005-0.072-0.004-0.109C148.596,92.796,146.1,93.521,146.148,94.195z"/>
						<path fill="#00420F" d="M153.496,96.678c0.012,0.969-0.389,1.557-0.447,2.514c-0.027,0.455,1.467,1.018,3.055,1.583
							c0.973-0.333,1.865-0.675,1.912-1.098c0.045-0.407,0.23-0.9,0.426-1.4c0.022-0.688,0.025-1.378,0.006-2.07
							c-0.805-0.248-2.491-0.468-4.375-0.68C153.764,95.893,153.486,96.266,153.496,96.678z"/>
					</g>
					<g>
						
							<radialGradient id="SVGID_5_" cx="1982.459" cy="-1039.6572" r="9.3618" gradientTransform="matrix(0.9974 0.4883 0.5018 -0.9738 -1329.8712 -1886.6626)" gradientUnits="userSpaceOnUse">
							<stop  offset="0.7975" style="stop-color:#000000;stop-opacity:0.95"/>
							<stop  offset="1" style="stop-color:#000000;stop-opacity:0"/>
						</radialGradient>
						<path fill="url(#SVGID_5_)" d="M129.379,104.541c4.938-1.6,7.737-6.755,6.865-12.062c-0.133-0.686-0.305-1.357-0.518-2.021
							c-2.039-5.883-8.125-9.201-13.64-7.418c-5.532,1.793-8.39,8.062-6.377,13.997
							C117.725,102.975,123.846,106.333,129.379,104.541z"/>
					</g>
					
						<radialGradient id="SVGID_6_" cx="1506.3662" cy="-1051.0381" r="9.6428" gradientTransform="matrix(0.3886 -0.8899 -1.2913 -0.5499 -1826.0153 837.0847)" gradientUnits="userSpaceOnUse">
						<stop  offset="0.3988" style="stop-color:#FFFFFF;stop-opacity:0.95"/>
						<stop  offset="1" style="stop-color:#FFFFFF;stop-opacity:0"/>
					</radialGradient>
					<path fill="url(#SVGID_6_)" d="M125.037,78.173c-1.723,3.946-6.93,5.522-11.627,3.524c-4.699-2.002-7.111-6.824-5.389-10.77
						c1.72-3.944,6.928-5.521,11.625-3.52C124.348,69.41,126.759,74.23,125.037,78.173z"/>
					
						<radialGradient id="SVGID_7_" cx="1516.3467" cy="-1079.2935" r="4.3712" gradientTransform="matrix(0.3886 -0.8899 -1.2913 -0.5499 -1866.7799 860.0769)" gradientUnits="userSpaceOnUse">
						<stop  offset="0.3988" style="stop-color:#FFFFFF;stop-opacity:0.95"/>
						<stop  offset="1" style="stop-color:#FFFFFF;stop-opacity:0"/>
					</radialGradient>
					<path fill="url(#SVGID_7_)" d="M119.991,105.826c-0.778,1.789-3.144,2.504-5.271,1.598c-2.132-0.908-3.227-3.094-2.443-4.883
						c0.781-1.789,3.143-2.504,5.271-1.596C119.68,101.852,120.773,104.038,119.991,105.826z"/>
				</g>
			</g>
		</g>
	</g>
</g>
<g id="outline_x5F_white">
	<g>
		<path fill="#FFFFFF" d="M138.273,50.334c27.895,0,39.437,14.398,39.437,14.398s4.563,4.681,5.229,10.934
			c0.731,6.863-3.282,7.725-3.282,7.725c0.02,7.178-1.153,14.868-4.447,24.341c-7.672,22.064-28.966,41.752-67.517,41.752
			c-2.49,0-5.06-0.082-7.693-0.252c-26.025-1.67-48.953-16.422-57.905-22.879c-1.192,1.203-3.425,2.75-6.251,3.053
			c-0.793,0.085-1.538,0.119-2.229,0.119c-3.696,0-5.878-1.019-5.878-1.019s5.095-0.349,10.146-5.349
			c-0.066-0.068-0.111-0.117-0.111-0.117c-2.323,0.822-4.442,1.165-6.364,1.165c-9.804,0-14.436-8.948-14.436-8.948
			s0.256,0.024,0.734,0.024c2.028,0,8.057-0.437,15.49-5.007c-0.943-0.137-1.975-0.399-3.111-0.864
			c-5.018-2.06-7.339-4.78-7.339-4.78s2.686,1.211,6.847,1.211c4.805,0,11.577-1.615,18.443-8.578l-0.005,0.004
			c17.024-16.711,38.437-36.398,63.884-43.193C121.965,51.39,130.718,50.334,138.273,50.334 M138.273,44.334
			c-8.722,0-18.11,1.327-27.907,3.943C83.758,55.382,62.068,75.08,43.827,92.985c-0.044,0.044-0.088,0.088-0.13,0.133
			c-4.426,4.461-9.171,6.724-14.105,6.724c-2.458,0-4.141-0.595-4.426-0.702c-0.818-0.394-1.681-0.582-2.533-0.582
			c-1.794,0-3.539,0.836-4.715,2.352c-1.745,2.246-1.584,5.451,0.262,7.615c0.112,0.131,0.329,0.375,0.655,0.701
			c-0.494,0.045-0.876,0.057-1.129,0.057c-0.092,0-0.164-0.002-0.215-0.004c-0.236-0.028-0.472-0.043-0.705-0.043
			c-1.928,0-3.697,0.953-4.829,2.574c-1.278,1.828-1.339,4.226-0.313,6.205c1.519,2.935,4.906,7.183,9.992,9.812
			c-0.278,2.542,1.206,5.017,3.563,6.116c0.566,0.266,3.631,1.582,8.416,1.582c0.943,0,1.908-0.051,2.866-0.153
			c2.193-0.233,4.078-0.905,5.617-1.697c12.267,8.308,33.5,20.005,57.519,21.546c2.727,0.176,5.443,0.266,8.076,0.266
			c19.24,0,35.644-4.6,48.752-13.668c11.429-7.905,19.877-19.01,24.433-32.113c2.874-8.266,4.396-15.705,4.718-23.142
			c2.184-2.211,3.914-5.879,3.312-11.531c-0.806-7.566-5.607-13.106-6.726-14.303C180.324,58.566,166.999,44.334,138.273,44.334
			L138.273,44.334z"/>
	</g>
</g>
<g id="outline_x5F_black">
	<path d="M182.939,75.666c-0.666-6.253-5.229-10.934-5.229-10.934s-18.638-23.252-65.796-10.658
		c-25.447,6.795-46.858,26.48-63.88,43.192l0.001-0.002c-12.812,12.99-25.29,7.368-25.29,7.368s2.321,2.722,7.339,4.78
		c1.135,0.466,2.167,0.729,3.111,0.865c-9.185,5.646-16.223,4.98-16.223,4.98s6.624,12.799,20.8,7.783c0,0,0.049,0.041,0.124,0.103
		c-5.055,5.013-10.159,5.363-10.159,5.363s3.074,1.435,8.107,0.898c3.159-0.337,5.083-1.698,6.25-3.057
		c9.113,6.592,31.668,20.921,57.907,22.884c45.959,3.438,67.294-13.951,75.71-40.323c3.051-9.554,3.966-18.341,3.946-25.518
		C179.657,83.391,183.672,82.53,182.939,75.666z M133.58,136.512c-47.704,15.887-83.861-19.134-83.861-19.134
		s17.559-25.718,47.83-44.349c45.701-28.13,73.551,0.734,73.551,0.734S179.156,121.335,133.58,136.512z"/>
</g>
</svg>
