<?xml version="1.0" encoding="utf-8"?>
<!-- Generator: Adobe Illustrator 15.0.0, SVG Export Plug-In . SVG Version: 6.00 Build 0)  -->
<!DOCTYPE svg PUBLIC "-//W3C//DTD SVG 1.1//EN" "http://www.w3.org/Graphics/SVG/1.1/DTD/svg11.dtd">
<svg version="1.1" xmlns="http://www.w3.org/2000/svg" xmlns:xlink="http://www.w3.org/1999/xlink" x="0px" y="0px" width="200px"
	 height="200px" viewBox="0 0 200 200" enable-background="new 0 0 200 200" xml:space="preserve">
<g id="icon">
	<g id="Layer_2">
	</g>
	<g id="Layer_1_1_">
		<g>
			<g>
				<g>
					
						<radialGradient id="SVGID_1_" cx="750.9346" cy="939.5908" r="222.2337" gradientTransform="matrix(0.8338 -0.0752 0.1007 0.6496 -625.4722 -479.7389)" gradientUnits="userSpaceOnUse">
						<stop  offset="0" style="stop-color:#830000"/>
						<stop  offset="1" style="stop-color:#531C00"/>
					</radialGradient>
					<path fill="url(#SVGID_1_)" d="M28.523,106.991c0,0,33.689-25.068,51.83-52.207c14.453-21.633,38.684-9.495,38.684-9.495
						s15.547-16.33,33.211-3.937c18.566,13.022,11.736,32.126,17.703,34.591c12.344,5.104-0.234,9.278-8.875,48.651
						c-7.205,32.836-51.07,47.489-79.723,33.281c-28.648-14.218-34.998-38.992-49.061-42.816
						C18.227,111.242,28.523,106.991,28.523,106.991z"/>
					
						<radialGradient id="SVGID_2_" cx="158" cy="-3" r="137.5145" gradientTransform="matrix(1 0 0 -1 -50 61)" gradientUnits="userSpaceOnUse">
						<stop  offset="0.0307" style="stop-color:#FF8177"/>
						<stop  offset="0.1346" style="stop-color:#FF3F3A"/>
						<stop  offset="0.2166" style="stop-color:#FF1210"/>
						<stop  offset="0.2577" style="stop-color:#FF0000"/>
						<stop  offset="0.3283" style="stop-color:#F60000"/>
						<stop  offset="0.443" style="stop-color:#DE0000"/>
						<stop  offset="0.5873" style="stop-color:#B70000"/>
						<stop  offset="0.7485" style="stop-color:#830000"/>
					</radialGradient>
					<path fill="url(#SVGID_2_)" d="M35.438,106.576c0,0,31.598-23.114,47.98-47.626c13.057-19.543,37.938-7.36,37.938-7.36
						s11.699-15.821,27.652-4.625c16.773,11.764,7.854,29.391,14.17,31.567c11.406,3.933-0.209,8.382-8.014,43.948
						c-6.51,29.651-46.125,42.886-72.01,30.054c-25.875-12.837-31.607-35.212-44.311-38.669
						C26.141,110.413,35.438,106.576,35.438,106.576z"/>
					
						<radialGradient id="SVGID_3_" cx="408.9453" cy="606.1426" r="46.2962" gradientTransform="matrix(1.0185 0.0132 0.0782 0.9828 -361.943 -504.3458)" gradientUnits="userSpaceOnUse">
						<stop  offset="0" style="stop-color:#830000"/>
						<stop  offset="1" style="stop-color:#531C00"/>
					</radialGradient>
					<path fill="url(#SVGID_3_)" d="M38.674,109.152c0,0,8.615-3.66,29.682-6.978c12.961-2.041,19.912-1.947,28.098-1.705
						c7.994,0.224,21.371,2.886,28.387-7.68c7.556-11.393,28.205-10.223,34.961-11.707c5.841-1.285,5.312,1.571,5.312,1.571
						S142,90.265,135.105,100.231c-5.672,8.214-8.348,10.559-14.604,12.707c-6.264,2.153-8.293-0.347-22.98-2.938
						c-15.127-2.679-31.596-0.448-41.795,0.116C37.543,111.117,38.674,109.152,38.674,109.152z"/>
					
						<radialGradient id="SVGID_4_" cx="196.3184" cy="663.4199" r="46.1938" gradientTransform="matrix(0.9999 0.0166 -0.0166 0.9999 -36.1899 -562.1311)" gradientUnits="userSpaceOnUse">
						<stop  offset="0" style="stop-color:#830000"/>
						<stop  offset="1" style="stop-color:#531C00"/>
					</radialGradient>
					<path fill="url(#SVGID_4_)" d="M120.205,99.987l1.594-3.711c0,0,4.004-3.439,6.623-12.452
						c2.502-8.611,2.098-11.013,3.375-10.875c0.877,0.092,1.07,3.954,0.645,10.156c-0.281,4.185-0.729,4.914-1.918,7.399
						C129.34,92.99,120.205,99.987,120.205,99.987z"/>
				</g>
				
					<radialGradient id="SVGID_5_" cx="207.6035" cy="855.1113" r="77.8116" gradientTransform="matrix(1.0015 -0.0832 -0.0166 0.9999 -34.1233 -714.6862)" gradientUnits="userSpaceOnUse">
					<stop  offset="0" style="stop-color:#830000"/>
					<stop  offset="1" style="stop-color:#531C00"/>
				</radialGradient>
				<path fill="url(#SVGID_5_)" d="M109.727,112.65c0,0,9.436,3.188,14.059,8.851c2.891,3.534,5.236,1.974,5.236,1.974
					s3.035-1.186,0.316-4.951c-4.031-5.584-6.801-7.112-6.801-7.112L109.727,112.65z"/>
			</g>
		</g>
	</g>
</g>
<g id="outline_x5F_white">
	<g>
		<g>
			<path fill="#FFFFFF" d="M138.432,36.708c4.258,0,8.959,1.236,13.816,4.645c18.566,13.022,11.736,32.126,17.703,34.591
				c12.344,5.104-0.234,9.278-8.875,48.651c-5.344,24.349-30.842,38.698-55.35,38.698c-8.542,0-16.969-1.744-24.375-5.417
				c-28.648-14.218-34.998-38.992-49.061-42.817c-14.066-3.814-3.77-8.065-3.77-8.065s33.689-25.068,51.83-52.207
				c6.812-10.194,15.792-12.889,23.385-12.889c8.521,0,15.299,3.394,15.299,3.394S127.206,36.708,138.432,36.708 M138.432,24.708
				c-9.173,0-16.705,3.672-21.67,7.023c-3.529-0.981-8.033-1.835-13.021-1.835c-13.664-0.001-25.514,6.471-33.364,18.222
				c-15.188,22.719-42.73,44.425-48.099,48.548c-6.196,3.161-9.746,8.666-9.363,14.71c0.168,2.653,1.305,7.666,7.03,11.431
				c2.36,1.553,5.285,2.771,9.206,3.834c2.503,0.683,6.634,5.782,10.629,10.717c7.587,9.371,17.978,22.205,36.239,31.27
				c8.799,4.363,19.07,6.668,29.709,6.668c28.082,0,60.137-16.529,67.067-48.126c3.451-15.724,7.573-25.446,10.304-31.882
				c3.026-7.144,5.645-13.313,2.815-20.213c-1.606-3.922-4.425-6.446-7.226-8.151c-0.055-0.363-0.107-0.725-0.156-1.054
				c-1.195-8.085-3.422-23.135-19.396-34.339C152.688,27.003,145.721,24.708,138.432,24.708L138.432,24.708z"/>
		</g>
	</g>
</g>
<g id="outline_x5F_black">
	<g>
		<path d="M138.432,36.708c4.258,0,8.959,1.236,13.816,4.645c18.566,13.022,11.736,32.126,17.703,34.591
			c12.344,5.104-0.234,9.278-8.875,48.651c-5.344,24.349-30.842,38.698-55.35,38.698c-8.542,0-16.969-1.744-24.375-5.417
			c-28.648-14.218-34.998-38.992-49.061-42.817c-14.066-3.814-3.77-8.065-3.77-8.065s33.689-25.068,51.83-52.207
			c6.812-10.194,15.792-12.889,23.385-12.889c8.521,0,15.299,3.394,15.299,3.394S127.206,36.708,138.432,36.708 M138.432,30.708
			c-9.195,0-16.599,4.553-20.57,7.651c-3.276-1.133-8.354-2.463-14.119-2.463c-11.764,0-21.576,5.379-28.376,15.556
			C59.21,75.62,29.662,98.584,25.445,101.798c-3.475,1.665-6.817,4.841-6.541,9.199c0.429,6.763,8.703,9.008,11.818,9.854
			c4.376,1.188,8.5,6.281,13.721,12.729c7.643,9.438,17.155,21.188,34.244,29.67c7.973,3.953,17.322,6.042,27.042,6.042
			c25.685,0,54.955-14.912,61.209-43.412c3.569-16.267,7.822-26.299,10.639-32.938c2.812-6.631,4.669-11.011,2.79-15.596
			c-1.384-3.374-4.334-5.246-7.037-6.479c-0.267-0.99-0.526-2.758-0.729-4.123c-1.139-7.698-3.045-20.583-16.906-30.305
			C150.271,32.637,144.464,30.708,138.432,30.708L138.432,30.708z"/>
	</g>
</g>
</svg>
