<?xml version="1.0" encoding="utf-8"?>
<!-- Generator: Adobe Illustrator 15.0.0, SVG Export Plug-In . SVG Version: 6.00 Build 0)  -->
<!DOCTYPE svg PUBLIC "-//W3C//DTD SVG 1.1//EN" "http://www.w3.org/Graphics/SVG/1.1/DTD/svg11.dtd">
<svg version="1.1" xmlns="http://www.w3.org/2000/svg" xmlns:xlink="http://www.w3.org/1999/xlink" x="0px" y="0px" width="200px"
	 height="200px" viewBox="0 0 200 200" enable-background="new 0 0 200 200" xml:space="preserve">
<g id="icon">
	<g id="Layer_2">
	</g>
	<g id="Layer_1_1_">
		<g>
			<g>
				
					<radialGradient id="SVGID_1_" cx="290.7471" cy="-677.2373" r="175.6506" fx="283.7977" fy="-682.3523" gradientTransform="matrix(1 0 0 -0.9138 -150 -555.1043)" gradientUnits="userSpaceOnUse">
					<stop  offset="0.1288" style="stop-color:#FF8177"/>
					<stop  offset="0.1767" style="stop-color:#FF635B"/>
					<stop  offset="0.2433" style="stop-color:#FF3F3A"/>
					<stop  offset="0.3106" style="stop-color:#FF2421"/>
					<stop  offset="0.3782" style="stop-color:#FF100F"/>
					<stop  offset="0.4463" style="stop-color:#FF0404"/>
					<stop  offset="0.5153" style="stop-color:#FF0000"/>
					<stop  offset="0.533" style="stop-color:#F60000"/>
					<stop  offset="0.5617" style="stop-color:#DE0000"/>
					<stop  offset="0.5977" style="stop-color:#B70000"/>
					<stop  offset="0.638" style="stop-color:#830000"/>
					<stop  offset="0.7975" style="stop-color:#C50000"/>
				</radialGradient>
				<path fill="url(#SVGID_1_)" d="M141.902,168.646c-3.707,0-7.621-0.254-11.633-0.756c-21.756-2.729-42.616-12.596-43.493-13.015
					l-1.18-0.562l-0.392-1.25c-0.041-0.131-4.264-13.436-15.35-33.463c-4.554-8.229-7.509-13.182-9.377-16.131
					c-0.665,2.52-1.142,5.445-1.627,9.641c-1.405,12.109-1.298,21.521-1.296,21.615l0.021,1.639l-5.809,3.846l-6.609-4.119
					l0.41-2.037c0.03-0.154,3.075-16.465-5.984-38.372l-0.746-1.795c-5.772-13.862-11.741-28.197-2.146-52.774l0.074-0.19
					l0.099-0.178c0.213-0.384,5.354-9.394,16.28-9.394c3.545,0,7.288,0.976,11.123,2.9C77.401,40.84,83.39,51.833,89.181,62.464
					c2.565,4.708,5.218,9.577,8.479,14.044c8.751,11.987,22.354,27.203,29.979,31.914l0.659,0.408
					c13.896,8.584,31.187,19.27,37.761,33.094c5.623,11.824-0.902,21.4-1.186,21.805l-0.402,0.576l-0.619,0.338
					C163.559,164.807,156.355,168.646,141.902,168.646z"/>
			</g>
			<g>
				
					<radialGradient id="SVGID_2_" cx="161.7246" cy="-641.4819" r="48.9377" gradientTransform="matrix(1 0 0 -1 -150 -530)" gradientUnits="userSpaceOnUse">
					<stop  offset="0" style="stop-color:#000000"/>
					<stop  offset="0.3417" style="stop-color:#020202"/>
					<stop  offset="0.5121" style="stop-color:#0A0A0A"/>
					<stop  offset="0.6448" style="stop-color:#171717"/>
					<stop  offset="0.7578" style="stop-color:#2A2A2A"/>
					<stop  offset="0.8584" style="stop-color:#424242"/>
					<stop  offset="0.9488" style="stop-color:#606060"/>
					<stop  offset="1" style="stop-color:#747474"/>
				</radialGradient>
				<path fill="url(#SVGID_2_)" d="M46.734,85.057c11.215,8.82,12.847,12.002,12.847,12.002c-1.969,4.453-2.838,8.21-3.707,15.708
					c-1.446,12.472-1.315,22.002-1.315,22.002l-2.836,1.877l-3.209-2c0,0,3.414-16.977-6.152-40.108
					c-2.993-7.238-6.223-14.445-7.311-23.119C35.051,71.418,36.891,77.314,46.734,85.057z"/>
			</g>
			<g>
				<path d="M46.734,85.057c11.215,8.82,12.847,12.002,12.847,12.002c-1.969,4.453-2.838,8.21-3.707,15.708
					c-1.446,12.472-1.315,22.002-1.315,22.002l-2.836,1.877c0,0,1.435-11.832-2.166-33.666
					C48.282,95.252,46.734,85.057,46.734,85.057z"/>
			</g>
			
				<radialGradient id="SVGID_3_" cx="255.6748" cy="-593.2832" r="67.1271" gradientTransform="matrix(1 0 0 -1 -150 -530)" gradientUnits="userSpaceOnUse">
				<stop  offset="0" style="stop-color:#A70000"/>
				<stop  offset="0.1002" style="stop-color:#9E0000"/>
				<stop  offset="0.7041" style="stop-color:#6A0000"/>
				<stop  offset="1" style="stop-color:#560000"/>
			</radialGradient>
			<path fill="url(#SVGID_3_)" d="M51.928,36.934c0,0-14.624,1.008-5.127,17.546c9.324,16.237,34.589,52.182,54.752,68.608
				c9.359,7.625,26.209,7.762,35.516,3.072c6.101-3.072-0.66-6.748-7.174-10.881c-5.437-3.451-10.764-7.414-10.764-7.414
				S104.748,97.14,92.943,78.277C83.891,63.811,74.647,36.934,51.928,36.934z"/>
		</g>
	</g>
</g>
<g id="outline_x5F_white">
	<g>
		<g>
			<path fill="#FFFFFF" d="M53.15,34.353c2.807,0,6.06,0.716,9.778,2.582c17.919,8.989,21.557,26.606,32.313,41.343
				c8.597,11.777,22.637,27.637,30.823,32.697c13.949,8.621,30.994,19.004,37.287,32.238c4.938,10.385-0.937,18.797-0.937,18.797
				s-6.662,3.639-20.519,3.639c-3.334,0-7.084-0.211-11.26-0.731c-21.523-2.697-42.572-12.742-42.572-12.742
				s-4.192-13.432-15.588-34.021c-10.992-19.868-12.9-21.092-12.9-21.092c-1.969,4.454-2.838,8.209-3.707,15.708
				c-1.446,12.474-1.315,22.002-1.315,22.002l-2.836,1.877l-3.209-2c0,0,3.414-16.975-6.152-40.106
				c-5.778-13.973-12.436-27.829-2.87-52.332C39.491,42.206,43.862,34.354,53.15,34.353 M53.152,22.353c0,0-0.002,0-0.003,0
				C37.266,22.354,29.804,34.935,29.006,36.37c-0.264,0.475-0.496,0.967-0.694,1.473c-10.914,27.958-3.63,45.451,2.223,59.507
				l0.737,1.774c7.633,18.458,5.623,32.233,5.464,33.218c-1.072,4.948,1.129,9.809,5.431,12.489l3.209,2
				c1.944,1.212,4.146,1.815,6.347,1.815c2.31,0,4.617-0.666,6.623-1.992l2.836-1.877c3.406-2.256,5.432-6.088,5.376-10.172
				c0-0.021-0.008-0.732,0.011-1.996c7.163,14.144,10.022,23.058,10.056,23.162c1.002,3.166,3.28,5.801,6.278,7.229
				c0.931,0.441,23.065,10.914,46.248,13.816c4.384,0.551,8.675,0.826,12.754,0.826c16.103,0,24.705-4.252,26.269-5.104
				c1.628-0.891,3.026-2.145,4.089-3.663c3.664-5.249,8.195-17.646,1.934-30.817c-7.713-16.224-26.256-27.681-41.154-36.887
				l-0.659-0.406c-5.688-3.518-18.512-17.333-27.44-29.563c-2.912-3.988-5.309-8.387-7.844-13.043
				c-6.155-11.297-13.131-24.1-28.782-31.952C63.21,23.65,58.11,22.353,53.152,22.353L53.152,22.353z"/>
		</g>
	</g>
</g>
<g id="outline_x5F_black">
	<path d="M53.15,34.353c2.807,0,6.06,0.716,9.778,2.582c17.919,8.989,21.557,26.606,32.313,41.343
		c8.597,11.777,22.637,27.637,30.823,32.697c13.949,8.621,30.994,19.004,37.287,32.238c4.938,10.385-0.937,18.797-0.937,18.797
		s-6.662,3.639-20.519,3.639c-3.334,0-7.084-0.211-11.26-0.731c-21.523-2.697-42.572-12.742-42.572-12.742
		s-4.192-13.432-15.588-34.021c-10.992-19.868-12.9-21.092-12.9-21.092c-1.969,4.454-2.838,8.209-3.707,15.708
		c-1.446,12.474-1.315,22.002-1.315,22.002l-2.836,1.877l-3.209-2c0,0,3.414-16.975-6.152-40.106
		c-5.778-13.973-12.436-27.829-2.87-52.332C39.491,42.206,43.862,34.354,53.15,34.353 M53.152,28.353H53.15
		c-10.116,0.001-16.641,6.874-18.902,10.935l-0.198,0.356l-0.148,0.38c-10.034,25.705-3.549,41.278,2.172,55.019l0.743,1.788
		c8.664,20.951,5.838,36.507,5.809,36.661l-0.82,4.076l3.534,2.171l3.209,2l3.271,2.038l3.214-2.127l2.836-1.877l2.733-1.812
		l-0.046-3.274c-0.001-0.09-0.103-9.334,1.276-21.229c0.064-0.56,0.129-1.093,0.193-1.604c1.436,2.47,3.155,5.496,5.206,9.203
		c10.907,19.707,15.071,32.778,15.112,32.908l0.783,2.49l2.358,1.131c0.895,0.428,22.178,10.495,44.41,13.28
		c4.133,0.518,8.174,0.778,12.006,0.778c14.953,0,22.572-3.924,23.395-4.371l1.234-0.676l0.81-1.156
		c0.321-0.459,7.798-11.426,1.437-24.81c-6.955-14.623-24.664-25.563-38.895-34.356l-0.658-0.405
		c-7.215-4.458-20.736-19.631-29.134-31.131c-3.145-4.308-5.749-9.088-8.268-13.711C85.807,49.991,79.59,38.579,65.618,31.57
		C61.362,29.436,57.167,28.353,53.152,28.353L53.152,28.353z"/>
</g>
</svg>
