<?xml version="1.0" encoding="utf-8"?>
<!-- Generator: Adobe Illustrator 15.0.0, SVG Export Plug-In . SVG Version: 6.00 Build 0)  -->
<!DOCTYPE svg PUBLIC "-//W3C//DTD SVG 1.1//EN" "http://www.w3.org/Graphics/SVG/1.1/DTD/svg11.dtd">
<svg version="1.1" xmlns="http://www.w3.org/2000/svg" xmlns:xlink="http://www.w3.org/1999/xlink" x="0px" y="0px" width="200px"
	 height="200px" viewBox="0 0 200 200" enable-background="new 0 0 200 200" xml:space="preserve">
<g id="icon">
	<g id="Layer_2">
	</g>
	<g id="Layer_1_1_">
		<g>
			
				<radialGradient id="SVGID_1_" cx="205.916" cy="703.9229" r="58.8356" gradientTransform="matrix(1 0 0 1 -100 -591)" gradientUnits="userSpaceOnUse">
				<stop  offset="0.0859" style="stop-color:#FFFA00"/>
				<stop  offset="0.3558" style="stop-color:#FFE300"/>
				<stop  offset="1" style="stop-color:#F7941E"/>
			</radialGradient>
			<path fill="url(#SVGID_1_)" d="M149.878,145.002c18.34-30.664,10.876-68.881-16.67-85.354
				c-27.55-16.475-64.747-4.971-83.087,25.694c-18.339,30.666-10.876,68.879,16.675,85.355
				C94.341,187.172,131.539,175.666,149.878,145.002z M72.722,98.859c13.982-23.381,39.662-33.753,56.578-23.637
				c16.028,9.586,18.938,37.053,4.954,60.436c-13.982,23.382-39.855,33.633-55.585,24.225
				C62.05,149.943,58.737,122.24,72.722,98.859z"/>
			
				<radialGradient id="SVGID_2_" cx="213.3477" cy="720.626" r="43.4154" gradientTransform="matrix(1 0 0 1 -100 -591)" gradientUnits="userSpaceOnUse">
				<stop  offset="0.0859" style="stop-color:#FFFA00"/>
				<stop  offset="0.3558" style="stop-color:#FFE300"/>
				<stop  offset="0.6258" style="stop-color:#F7941E"/>
				<stop  offset="1" style="stop-color:#CA7C00"/>
			</radialGradient>
			<path fill="url(#SVGID_2_)" d="M149.878,145.002c18.34-30.664,10.338-59.447-17.208-75.92
				c-27.55-16.475-44.79-4.767-63.13,25.899c-18.339,30.664-14.223,63.541,13.328,80.018
				C110.413,191.473,131.539,175.666,149.878,145.002z M72.722,98.859c13.982-23.381,39.662-33.753,56.578-23.637
				c16.028,9.586,18.938,37.053,4.954,60.436c-13.982,23.382-39.855,33.633-55.585,24.225
				C62.05,149.943,58.737,122.24,72.722,98.859z"/>
			
				<radialGradient id="SVGID_3_" cx="131.166" cy="711.4863" r="28.48" gradientTransform="matrix(1 0 0 1 -100 -591)" gradientUnits="userSpaceOnUse">
				<stop  offset="0.0245" style="stop-color:#FFFA00"/>
				<stop  offset="1" style="stop-color:#FFFA00;stop-opacity:0"/>
			</radialGradient>
			<path fill="url(#SVGID_3_)" d="M149.878,145.002c18.34-30.664,10.876-68.881-16.67-85.354
				c-27.55-16.475-64.747-4.971-83.087,25.694c-18.339,30.666-10.876,68.879,16.675,85.355
				C94.341,187.172,131.539,175.666,149.878,145.002z M72.722,98.859c13.982-23.381,39.662-33.753,56.578-23.637
				c16.028,9.586,18.938,37.053,4.954,60.436c-13.982,23.382-39.855,33.633-55.585,24.225
				C62.05,149.943,58.737,122.24,72.722,98.859z"/>
			
				<radialGradient id="SVGID_4_" cx="232.168" cy="647.416" r="15.8816" gradientTransform="matrix(1 0 0 1 -100 -591)" gradientUnits="userSpaceOnUse">
				<stop  offset="0.0245" style="stop-color:#FFFA00"/>
				<stop  offset="1" style="stop-color:#FFFA00;stop-opacity:0"/>
			</radialGradient>
			<path fill="url(#SVGID_4_)" d="M149.878,145.002c18.34-30.664,10.876-68.881-16.67-85.354
				c-27.55-16.475-64.747-4.971-83.087,25.694c-18.339,30.666-10.876,68.879,16.675,85.355
				C94.341,187.172,131.539,175.666,149.878,145.002z M72.722,98.859c13.982-23.381,39.662-33.753,56.578-23.637
				c16.028,9.586,18.938,37.053,4.954,60.436c-13.982,23.382-39.855,33.633-55.585,24.225
				C62.05,149.943,58.737,122.24,72.722,98.859z"/>
			
				<radialGradient id="SVGID_5_" cx="189.0078" cy="666.5479" r="184.7967" gradientTransform="matrix(1 0 0 1 -100 -591)" gradientUnits="userSpaceOnUse">
				<stop  offset="0.0859" style="stop-color:#FFFA00"/>
				<stop  offset="0.3558" style="stop-color:#FFE300"/>
				<stop  offset="1" style="stop-color:#F7941E"/>
			</radialGradient>
			<path fill="url(#SVGID_5_)" d="M149.289,145.986c17.253-28.848,12.432-63.482-10.77-77.357
				c-23.201-13.876-55.997-1.737-73.249,27.111c-17.254,28.848-12.433,63.482,10.77,77.359
				C99.244,186.975,132.037,174.836,149.289,145.986z M73.694,100.923c14.827-24.792,43.443-34.96,63.017-23.255
				c18.544,11.09,23.01,41.039,8.182,65.834c-14.828,24.791-43.668,34.824-61.87,23.938
				C63.796,155.939,58.865,125.719,73.694,100.923z"/>
			
				<radialGradient id="SVGID_6_" cx="199.7988" cy="642.8564" r="5.4776" gradientTransform="matrix(1 0 0 1 -100 -591)" gradientUnits="userSpaceOnUse">
				<stop  offset="0.5337" style="stop-color:#F7941E"/>
				<stop  offset="0.6442" style="stop-color:#FFE300"/>
				<stop  offset="0.9141" style="stop-color:#FFFA00"/>
			</radialGradient>
			<polygon fill="url(#SVGID_6_)" points="101.068,51.263 99.002,51.584 100.484,52.733 118.932,60.147 			"/>
			<g>
				<g>
					
						<linearGradient id="SVGID_7_" gradientUnits="userSpaceOnUse" x1="-211.3374" y1="154.8555" x2="-210.2009" y2="151.9008" gradientTransform="matrix(0.979 -0.2041 0.2041 0.979 256.4025 -163.6631)">
						<stop  offset="0" style="stop-color:#0097FF"/>
						<stop  offset="1" style="stop-color:#004C81"/>
					</linearGradient>
					<polygon fill="url(#SVGID_7_)" points="74.802,39.584 62.873,36.375 62.276,28.883 71.431,21.719 87.218,18.428 98.394,21.355 
						100.725,28.485 90.987,36.211 					"/>
					
						<linearGradient id="SVGID_8_" gradientUnits="userSpaceOnUse" x1="-211.1577" y1="145.5957" x2="-219.5668" y2="146.2775" gradientTransform="matrix(0.979 -0.2041 0.2041 0.979 256.4025 -163.6631)">
						<stop  offset="0" style="stop-color:#0097FF"/>
						<stop  offset="1" style="stop-color:#004C81"/>
					</linearGradient>
					<polygon fill="url(#SVGID_8_)" points="70.537,25.592 71.431,21.719 87.218,18.428 88.995,21.745 					"/>
					
						<linearGradient id="SVGID_9_" gradientUnits="userSpaceOnUse" x1="-206.5439" y1="169.502" x2="-176.2021" y2="169.161" gradientTransform="matrix(0.979 -0.2041 0.2041 0.979 256.4025 -163.6631)">
						<stop  offset="0" style="stop-color:#0097FF"/>
						<stop  offset="1" style="stop-color:#004C81"/>
					</linearGradient>
					<polygon fill="url(#SVGID_9_)" points="70.537,25.592 89.185,67.212 88.995,21.745 					"/>
					
						<linearGradient id="SVGID_10_" gradientUnits="userSpaceOnUse" x1="-201.9927" y1="146.3789" x2="-187.4182" y2="150.4699" gradientTransform="matrix(0.979 -0.2041 0.2041 0.979 256.4025 -163.6631)">
						<stop  offset="0" style="stop-color:#0097FF"/>
						<stop  offset="1" style="stop-color:#004C81"/>
					</linearGradient>
					<polygon fill="url(#SVGID_10_)" points="102.505,24.173 98.394,21.355 87.218,18.428 88.995,21.745 					"/>
					
						<linearGradient id="SVGID_11_" gradientUnits="userSpaceOnUse" x1="-222.3032" y1="147.1611" x2="-228.7805" y2="148.8657" gradientTransform="matrix(0.979 -0.2041 0.2041 0.979 256.4025 -163.6631)">
						<stop  offset="0" style="stop-color:#FF0A00"/>
						<stop  offset="1" style="stop-color:#860A00"/>
					</linearGradient>
					<polygon fill="url(#SVGID_11_)" points="70.537,25.592 71.431,21.719 62.276,28.883 59.622,33.112 					"/>
					
						<linearGradient id="SVGID_12_" gradientUnits="userSpaceOnUse" x1="-209.1626" y1="147.7344" x2="-208.8217" y2="143.1888" gradientTransform="matrix(0.979 -0.2041 0.2041 0.979 256.4025 -163.6631)">
						<stop  offset="0" style="stop-color:#0097FF"/>
						<stop  offset="1" style="stop-color:#004C81"/>
					</linearGradient>
					<polygon fill="url(#SVGID_12_)" points="94.581,45.198 75.183,49.241 74.93,39.559 90.987,36.211 					"/>
					
						<linearGradient id="SVGID_13_" gradientUnits="userSpaceOnUse" x1="-214.7588" y1="170.5615" x2="-193.3947" y2="140.3338" gradientTransform="matrix(0.979 -0.2041 0.2041 0.979 256.4025 -163.6631)">
						<stop  offset="0" style="stop-color:#0097FF"/>
						<stop  offset="1" style="stop-color:#004C81"/>
					</linearGradient>
					<polygon fill="url(#SVGID_13_)" points="89.058,36.614 76.636,39.202 80.625,48.106 89.1,46.34 					"/>
					
						<linearGradient id="SVGID_14_" gradientUnits="userSpaceOnUse" x1="-273.5547" y1="152.9297" x2="-271.0545" y2="153.4978" gradientTransform="matrix(0.979 -0.2041 0.2041 0.979 256.4025 -163.6631)">
						<stop  offset="0" style="stop-color:#0097FF"/>
						<stop  offset="1" style="stop-color:#004C81"/>
					</linearGradient>
					<polygon fill="url(#SVGID_14_)" points="59.733,44.223 75.183,49.241 74.93,39.559 62.909,36.298 					"/>
					
						<linearGradient id="SVGID_15_" gradientUnits="userSpaceOnUse" x1="-240.126" y1="170.9746" x2="-205.1299" y2="151.4312" gradientTransform="matrix(0.979 -0.2041 0.2041 0.979 256.4025 -163.6631)">
						<stop  offset="0" style="stop-color:#0097FF"/>
						<stop  offset="1" style="stop-color:#004C81"/>
					</linearGradient>
					<polygon fill="url(#SVGID_15_)" points="62.742,36.711 59.733,44.223 72.987,48.53 					"/>
					
						<linearGradient id="SVGID_16_" gradientUnits="userSpaceOnUse" x1="-232.1367" y1="154.2363" x2="-232.1367" y2="152.0203" gradientTransform="matrix(0.979 -0.2041 0.2041 0.979 256.4025 -163.6631)">
						<stop  offset="0" style="stop-color:#0097FF"/>
						<stop  offset="1" style="stop-color:#004C81"/>
					</linearGradient>
					<polygon fill="url(#SVGID_16_)" points="59.733,44.223 59.622,33.112 62.276,28.883 62.909,36.298 					"/>
					
						<linearGradient id="SVGID_17_" gradientUnits="userSpaceOnUse" x1="-237.4619" y1="155.3193" x2="-231.3251" y2="159.7513" gradientTransform="matrix(0.979 -0.2041 0.2041 0.979 256.4025 -163.6631)">
						<stop  offset="0" style="stop-color:#0097FF"/>
						<stop  offset="1" style="stop-color:#004C81"/>
					</linearGradient>
					<polygon fill="url(#SVGID_17_)" points="59.622,33.112 59.733,44.223 62.742,36.711 					"/>
					
						<linearGradient id="SVGID_18_" gradientUnits="userSpaceOnUse" x1="-227.8027" y1="149.0352" x2="-226.1835" y2="148.0976" gradientTransform="matrix(0.979 -0.2041 0.2041 0.979 256.4025 -163.6631)">
						<stop  offset="0" style="stop-color:#0097FF"/>
						<stop  offset="1" style="stop-color:#004C81"/>
					</linearGradient>
					<polygon fill="url(#SVGID_18_)" points="62.276,28.883 59.622,33.112 62.468,31.149 					"/>
					
						<linearGradient id="SVGID_19_" gradientUnits="userSpaceOnUse" x1="860.6064" y1="163.4678" x2="876.498" y2="163.4678" gradientTransform="matrix(-0.979 0.2041 0.2041 0.979 916.1177 -300.7808)">
						<stop  offset="0" style="stop-color:#0097FF"/>
						<stop  offset="1" style="stop-color:#004C81"/>
					</linearGradient>
					<polygon fill="url(#SVGID_19_)" points="106.844,34.402 94.581,45.198 90.987,36.211 100.725,28.485 					"/>
					
						<linearGradient id="SVGID_20_" gradientUnits="userSpaceOnUse" x1="-198.7754" y1="163.4346" x2="-186.8252" y2="163.4346" gradientTransform="matrix(0.979 -0.2041 0.2041 0.979 256.4025 -163.6631)">
						<stop  offset="0" style="stop-color:#0097FF"/>
						<stop  offset="1" style="stop-color:#004C81"/>
					</linearGradient>
					<polygon fill="url(#SVGID_20_)" points="96.529,43.483 106.844,34.402 101.068,28.817 					"/>
					
						<linearGradient id="SVGID_21_" gradientUnits="userSpaceOnUse" x1="-285.0308" y1="153.8408" x2="-278.4398" y2="155.6589" gradientTransform="matrix(0.979 -0.2041 0.2041 0.979 256.4025 -163.6631)">
						<stop  offset="0" style="stop-color:#0097FF"/>
						<stop  offset="1" style="stop-color:#004C81"/>
					</linearGradient>
					<polygon fill="url(#SVGID_21_)" points="89.185,67.212 59.733,44.223 75.183,49.241 94.581,45.198 106.844,34.402 					"/>
					
						<linearGradient id="SVGID_22_" gradientUnits="userSpaceOnUse" x1="-209.3096" y1="175.6953" x2="-196.7817" y2="177.9963" gradientTransform="matrix(0.979 -0.2041 0.2041 0.979 256.4025 -163.6631)">
						<stop  offset="0" style="stop-color:#0097FF"/>
						<stop  offset="1" style="stop-color:#004C81"/>
					</linearGradient>
					<polygon fill="url(#SVGID_22_)" points="96.529,43.483 89.185,67.212 106.844,34.402 					"/>
					
						<linearGradient id="SVGID_23_" gradientUnits="userSpaceOnUse" x1="-196.2231" y1="185.3984" x2="-198.9504" y2="177.2164" gradientTransform="matrix(0.979 -0.2041 0.2041 0.979 256.4025 -163.6631)">
						<stop  offset="0" style="stop-color:#FFFFFF"/>
						<stop  offset="1" style="stop-color:#00FFFF;stop-opacity:0"/>
					</linearGradient>
					<polygon fill="url(#SVGID_23_)" points="96.529,43.483 89.185,67.212 106.844,34.402 					"/>
					
						<linearGradient id="SVGID_24_" gradientUnits="userSpaceOnUse" x1="-223.5137" y1="175.0674" x2="-220.7864" y2="179.8401" gradientTransform="matrix(0.979 -0.2041 0.2041 0.979 256.4025 -163.6631)">
						<stop  offset="0" style="stop-color:#0097FF"/>
						<stop  offset="1" style="stop-color:#004C81"/>
					</linearGradient>
					<polygon fill="url(#SVGID_24_)" points="89.185,67.212 59.733,44.223 75.183,49.241 					"/>
					
						<linearGradient id="SVGID_25_" gradientUnits="userSpaceOnUse" x1="-226.7803" y1="179.9336" x2="-222.1797" y2="177.2074" gradientTransform="matrix(0.979 -0.2041 0.2041 0.979 256.4025 -163.6631)">
						<stop  offset="0" style="stop-color:#0097FF"/>
						<stop  offset="1" style="stop-color:#004C81"/>
					</linearGradient>
					<polygon fill="url(#SVGID_25_)" points="72.987,48.53 59.733,44.223 89.185,67.212 					"/>
					
						<linearGradient id="SVGID_26_" gradientUnits="userSpaceOnUse" x1="-220.8462" y1="181.6543" x2="-201.0322" y2="181.6543" gradientTransform="matrix(0.979 -0.2041 0.2041 0.979 256.4025 -163.6631)">
						<stop  offset="0" style="stop-color:#0097FF"/>
						<stop  offset="1" style="stop-color:#004C81"/>
					</linearGradient>
					<polygon fill="url(#SVGID_26_)" points="89.185,67.212 75.183,49.241 94.581,45.198 					"/>
					
						<linearGradient id="SVGID_27_" gradientUnits="userSpaceOnUse" x1="-215.2871" y1="181.6543" x2="-206.6309" y2="181.6543" gradientTransform="matrix(0.979 -0.2041 0.2041 0.979 256.4025 -163.6631)">
						<stop  offset="0" style="stop-color:#0097FF"/>
						<stop  offset="1" style="stop-color:#004C81"/>
					</linearGradient>
					<polygon fill="url(#SVGID_27_)" points="80.625,48.106 89.185,67.212 89.1,46.34 					"/>
					
						<linearGradient id="SVGID_28_" gradientUnits="userSpaceOnUse" x1="860.6064" y1="155.707" x2="866.2148" y2="155.707" gradientTransform="matrix(-0.979 0.2041 0.2041 0.979 916.1177 -300.7808)">
						<stop  offset="0" style="stop-color:#0097FF"/>
						<stop  offset="1" style="stop-color:#004C81"/>
					</linearGradient>
					<polygon fill="url(#SVGID_28_)" points="106.844,34.402 102.505,24.173 98.394,21.355 100.725,28.485 					"/>
					
						<linearGradient id="SVGID_29_" gradientUnits="userSpaceOnUse" x1="-191.3389" y1="157.916" x2="-186.8252" y2="157.916" gradientTransform="matrix(0.979 -0.2041 0.2041 0.979 256.4025 -163.6631)">
						<stop  offset="0" style="stop-color:#0097FF"/>
						<stop  offset="1" style="stop-color:#004C81"/>
					</linearGradient>
					<polygon fill="url(#SVGID_29_)" points="106.844,34.402 102.505,24.173 101.068,28.817 					"/>
					
						<linearGradient id="SVGID_30_" gradientUnits="userSpaceOnUse" x1="-176.8936" y1="146.6816" x2="-172.4631" y2="145.4036" gradientTransform="matrix(0.979 -0.2041 0.2041 0.979 256.4025 -163.6631)">
						<stop  offset="0" style="stop-color:#0097FF"/>
						<stop  offset="1" style="stop-color:#004C81"/>
					</linearGradient>
					<polygon fill="url(#SVGID_30_)" points="102.505,24.173 98.394,21.355 99.115,23.563 					"/>
					
						<linearGradient id="SVGID_31_" gradientUnits="userSpaceOnUse" x1="-214.7251" y1="163.7217" x2="-212.3386" y2="166.1081" gradientTransform="matrix(0.979 -0.2041 0.2041 0.979 256.4025 -163.6631)">
						<stop  offset="0" style="stop-color:#FFFFFF"/>
						<stop  offset="1" style="stop-color:#00FFFF;stop-opacity:0"/>
					</linearGradient>
					<polygon fill="url(#SVGID_31_)" points="94.581,45.198 75.183,49.241 74.93,39.559 90.987,36.211 					"/>
					
						<linearGradient id="SVGID_32_" gradientUnits="userSpaceOnUse" x1="-214.9336" y1="145.4336" x2="-211.0869" y2="153.1272" gradientTransform="matrix(0.979 -0.2041 0.2041 0.979 256.4025 -163.6631)">
						<stop  offset="0" style="stop-color:#FFFFFF"/>
						<stop  offset="1" style="stop-color:#00FFFF;stop-opacity:0"/>
					</linearGradient>
					<polygon fill="url(#SVGID_32_)" points="74.802,39.584 62.873,36.375 62.276,28.883 71.431,21.719 87.218,18.428 
						98.394,21.355 100.725,28.485 90.987,36.211 					"/>
					
						<linearGradient id="SVGID_33_" gradientUnits="userSpaceOnUse" x1="-217.9863" y1="181.9863" x2="-212.0768" y2="181.0773" gradientTransform="matrix(0.979 -0.2041 0.2041 0.979 256.4025 -163.6631)">
						<stop  offset="0" style="stop-color:#FFFFFF"/>
						<stop  offset="1" style="stop-color:#00FFFF;stop-opacity:0"/>
					</linearGradient>
					<polygon fill="url(#SVGID_33_)" points="89.185,67.212 75.183,49.241 94.581,45.198 					"/>
					
						<linearGradient id="SVGID_34_" gradientUnits="userSpaceOnUse" x1="-229.6641" y1="158.1211" x2="-228.0734" y2="160.8485" gradientTransform="matrix(0.979 -0.2041 0.2041 0.979 256.4025 -163.6631)">
						<stop  offset="0" style="stop-color:#FFFFFF"/>
						<stop  offset="1" style="stop-color:#00FFFF;stop-opacity:0"/>
					</linearGradient>
					<polygon fill="url(#SVGID_34_)" points="59.733,44.223 75.183,49.241 74.93,39.559 62.909,36.298 					"/>
				</g>
			</g>
			
				<linearGradient id="SVGID_35_" gradientUnits="userSpaceOnUse" x1="192.5127" y1="657.6523" x2="188.7316" y2="650.3123" gradientTransform="matrix(1 0 0 1 -100 -591)">
				<stop  offset="0.0859" style="stop-color:#FFFA00"/>
				<stop  offset="0.3558" style="stop-color:#FFE300"/>
				<stop  offset="1" style="stop-color:#F7941E"/>
			</linearGradient>
			<polygon fill="url(#SVGID_35_)" points="70.319,84.447 81.126,60.346 100.484,52.733 121.934,62.887 97.196,71.012 
				91.679,77.106 85.004,77.107 			"/>
			
				<radialGradient id="SVGID_36_" cx="184.418" cy="646.2998" r="11.9065" gradientTransform="matrix(1 0 0 1 -100 -591)" gradientUnits="userSpaceOnUse">
				<stop  offset="0.0859" style="stop-color:#FFFA00"/>
				<stop  offset="0.3558" style="stop-color:#FFE300"/>
				<stop  offset="1" style="stop-color:#F7941E"/>
			</radialGradient>
			<path fill="url(#SVGID_36_)" d="M96.076,53.142c0,0-9.194,5.21-14.241,5.11c-5.562-0.111-11.004-5.367-11.004-5.367l-2.478,0.831
				l12.772,6.63l19.358-7.613l-2.173-2.479C98.312,50.254,97.335,52.414,96.076,53.142z"/>
			
				<radialGradient id="SVGID_37_" cx="351.418" cy="891.6982" r="25.0674" gradientTransform="matrix(0.9359 0.3522 -0.1749 0.4646 -103.3989 -468.9751)" gradientUnits="userSpaceOnUse">
				<stop  offset="0.3558" style="stop-color:#FFE300"/>
				<stop  offset="1" style="stop-color:#F7941E"/>
			</radialGradient>
			<polygon fill="url(#SVGID_37_)" points="70.319,84.447 81.126,60.346 68.354,53.716 57.952,77.545 			"/>
			
				<radialGradient id="SVGID_38_" cx="169.541" cy="641.0898" r="7.8841" gradientTransform="matrix(1 0 0 1 -100 -591)" gradientUnits="userSpaceOnUse">
				<stop  offset="0.0859" style="stop-color:#FFFA00"/>
				<stop  offset="0.3558" style="stop-color:#FFE300"/>
				<stop  offset="1" style="stop-color:#F7941E"/>
			</radialGradient>
			<path fill="url(#SVGID_38_)" d="M76.636,58.016c0,0-8.247-5.317-8.282-9.91c-0.035-4.593-5.396-9.437-5.886-4.624
				c-0.49,4.813,7.071,11.818,7.071,11.818S73.831,60.506,76.636,58.016z"/>
			
				<radialGradient id="SVGID_39_" cx="211.7754" cy="669.9619" r="103.8763" gradientTransform="matrix(1 0 0 1 -100 -591)" gradientUnits="userSpaceOnUse">
				<stop  offset="0.0859" style="stop-color:#FFFA00"/>
				<stop  offset="0.3558" style="stop-color:#FFE300"/>
				<stop  offset="1" style="stop-color:#F7941E"/>
			</radialGradient>
			<path fill="url(#SVGID_39_)" d="M86.989,58.725c0,0,7.003-1.281,6.331-10.195c-0.557-7.377,2.324-8.945,3.993-8.945
				c3.242,0,3.287,3.655,2.687,8.479c-0.529,4.256-3.367,7.221-3.367,7.221L86.989,58.725z"/>
			
				<radialGradient id="SVGID_40_" cx="202.376" cy="645.0049" r="4.476" gradientTransform="matrix(1 0 0 1 -100 -591)" gradientUnits="userSpaceOnUse">
				<stop  offset="0.0859" style="stop-color:#FFFA00"/>
				<stop  offset="0.3558" style="stop-color:#FFE300"/>
				<stop  offset="1" style="stop-color:#F7941E"/>
			</radialGradient>
			<path fill="url(#SVGID_40_)" d="M103.389,49.854c0-3.514-0.884-3.451-0.884-3.451l-1.437,4.86l4.014,2.614
				C105.082,53.877,103.389,52.417,103.389,49.854z"/>
			
				<radialGradient id="SVGID_41_" cx="-293.7427" cy="853.5439" r="5.5421" gradientTransform="matrix(0.8073 0 0 0.8998 342.5889 -739.9774)" gradientUnits="userSpaceOnUse">
				<stop  offset="0.0859" style="stop-color:#FFFA00"/>
				<stop  offset="0.3558" style="stop-color:#FFE300"/>
				<stop  offset="1" style="stop-color:#F7941E"/>
			</radialGradient>
			<path fill="url(#SVGID_41_)" d="M107.334,34.948c0,0,0.738-2.76-0.452-5.062c-1.19-2.302-2.926-2.132-2.926-2.132L107.334,34.948
				z"/>
			
				<linearGradient id="SVGID_42_" gradientUnits="userSpaceOnUse" x1="223.7969" y1="674.1533" x2="184.9461" y2="657.5413" gradientTransform="matrix(1 0 0 1 -100 -591)">
				<stop  offset="0" style="stop-color:#FFE300"/>
				<stop  offset="1" style="stop-color:#F7941E"/>
			</linearGradient>
			<path fill="url(#SVGID_42_)" d="M71.431,82.891l11.016-22.544c0,0,8.787-1.148,10.566-5.376c1.78-4.227,1.568-6.44,1.568-6.44
				s1.25,4.375-0.938,7.188c-2.187,2.812-9.974,5.371-9.974,5.371L71.431,82.891z"/>
		</g>
	</g>
</g>
<g id="outline_x5F_white">
</g>
<g id="outline_x5F_black">
	<g>
		<path fill="#FFFFFF" d="M70.83,52.885l-0.479-0.374c0.114,0.141,0.235,0.277,0.354,0.415L70.83,52.885z"/>
		<path fill="#FFFFFF" d="M74.014,55.37l-3.177-2.479C70.868,52.92,72.118,54.114,74.014,55.37z"/>
		<path fill="#FFFFFF" d="M170.527,94.7c-3.812-19.509-14.877-35.616-31.16-45.354c-6.898-4.125-14.53-6.917-22.489-8.27l0.532-0.99
			c1.727-3.206,1.902-7.021,0.48-10.373l-4.341-10.229c-0.896-2.108-2.373-3.917-4.263-5.212l-4.11-2.818
			c-1.142-0.781-2.407-1.36-3.743-1.71L90.258,6.82c-0.996-0.261-2.018-0.392-3.04-0.392c-0.82,0-1.641,0.084-2.449,0.252
			L68.981,9.972c-1.803,0.376-3.496,1.162-4.946,2.297l-9.154,7.164c-1.094,0.855-2.03,1.895-2.768,3.07l-2.655,4.229
			c-1.222,1.946-1.859,4.202-1.836,6.5l0.111,11.111c0.037,3.653,1.736,7.091,4.616,9.339l2.182,1.704l-4.334,9.927
			c-3.915,4.238-7.398,8.894-10.374,13.868c-21.706,36.295-12.369,81.969,20.814,101.814c7.835,4.687,16.443,7.62,25.592,8.722
			c3.598,0.736,7.322,1.109,11.08,1.109c24.146,0,48.009-14.822,62.279-38.682c0.105-0.18,0.199-0.343,0.29-0.504
			c0.099-0.154,0.194-0.311,0.29-0.468C170.568,133.783,174.245,113.734,170.527,94.7z M159.9,110.428
			c-0.021,1.265-0.075,2.533-0.17,3.805c-0.312,9.741-3.496,20.143-9.853,30.77c-0.137,0.228-0.274,0.447-0.41,0.673
			c-0.059,0.104-0.117,0.208-0.179,0.312c-0.473,0.79-0.961,1.563-1.456,2.328c-16.598,26.436-35.533,40.468-59.41,29.601
			c-0.09-0.019-0.182-0.035-0.271-0.055c-0.266-0.029-0.53-0.076-0.796-0.109c-7.138-0.902-14.115-3.199-20.56-7.054
			c-17.219-10.298-26.592-29.087-26.722-49.217c-0.065-10.065,2.18-20.465,6.91-30.308c0.946-1.968,1.992-3.915,3.138-5.831
			c1.816-3.037,3.838-5.858,5.999-8.508c1.357-1.666,2.758-3.279,4.231-4.789l3.945-9.037l0.001,0.001l3.937-9.019
			c-1.494-1.573-3.873-4.342-5.061-7.082l-2.772-2.164l0,0l-0.668-0.522l-0.111-11.111l2.654-4.229l9.154-7.164l15.788-3.291
			l11.176,2.927l4.111,2.818l1.518,3.579c0.325-0.004,1.805,0.095,2.859,2.134c1.19,2.302,0.452,5.062,0.452,5.062l-2.676-5.699
			l2.186,5.153l-6.709,12.465c-0.04,0.391-0.084,0.788-0.135,1.197c-0.144,1.16-0.462,2.219-0.845,3.154l0.264,0.301l1.649-0.256
			l1.437-4.86c0,0,0.884-0.063,0.884,3.451c0,0.926,0.224,1.702,0.506,2.323c2.305-0.073,4.606,0,6.896,0.209l0.006-0.011
			c0.124,0.011,0.247,0.032,0.371,0.044c0.773,0.076,1.545,0.167,2.314,0.275c0.246,0.035,0.49,0.077,0.736,0.116
			c0.633,0.099,1.265,0.208,1.895,0.33c0.245,0.047,0.49,0.091,0.734,0.142c0.795,0.165,1.587,0.348,2.376,0.55
			c0.219,0.056,0.436,0.117,0.653,0.176c0.685,0.184,1.366,0.382,2.045,0.594c0.174,0.054,0.348,0.104,0.521,0.16
			c0.804,0.261,1.603,0.544,2.397,0.845c0.199,0.076,0.398,0.155,0.597,0.233c0.733,0.288,1.463,0.591,2.188,0.914
			c0.096,0.042,0.192,0.082,0.288,0.125c0.798,0.361,1.587,0.75,2.372,1.154c0.188,0.096,0.375,0.195,0.562,0.294
			c0.794,0.421,1.583,0.856,2.362,1.322c0.766,0.458,1.51,0.939,2.245,1.43c0.191,0.128,0.382,0.258,0.571,0.388
			c0.66,0.454,1.31,0.918,1.943,1.397c0.069,0.052,0.141,0.102,0.209,0.154c0.686,0.523,1.351,1.066,2.005,1.62
			c0.18,0.152,0.356,0.306,0.534,0.459c0.547,0.475,1.083,0.959,1.607,1.454c0.113,0.106,0.229,0.21,0.342,0.317
			c0.602,0.578,1.185,1.171,1.757,1.774c0.17,0.18,0.336,0.362,0.503,0.543c0.447,0.486,0.886,0.979,1.313,1.48
			c0.141,0.165,0.285,0.327,0.424,0.494c0.516,0.618,1.014,1.247,1.5,1.886c0.165,0.218,0.325,0.439,0.487,0.659
			c0.354,0.48,0.699,0.966,1.036,1.458c0.158,0.23,0.319,0.458,0.474,0.69c0.427,0.643,0.841,1.294,1.241,1.955
			c0.161,0.268,0.315,0.539,0.474,0.809c0.267,0.458,0.527,0.92,0.781,1.386c0.164,0.3,0.329,0.599,0.487,0.902
			c0.341,0.654,0.672,1.314,0.988,1.982c0.156,0.33,0.302,0.665,0.452,0.999c0.188,0.418,0.373,0.839,0.552,1.262
			c0.158,0.374,0.314,0.748,0.465,1.125c0.193,0.486,0.376,0.976,0.556,1.468c0.211,0.574,0.412,1.152,0.605,1.734
			c0.12,0.362,0.239,0.725,0.353,1.089c0.139,0.446,0.273,0.893,0.402,1.343c0.095,0.331,0.182,0.665,0.271,0.998
			c0.216,0.807,0.415,1.619,0.599,2.437c0.065,0.292,0.132,0.583,0.192,0.875c0.106,0.511,0.208,1.024,0.302,1.539
			c0.045,0.245,0.084,0.492,0.126,0.738c0.167,0.981,0.312,1.97,0.433,2.964c0.024,0.202,0.052,0.404,0.074,0.607
			c0.063,0.566,0.119,1.134,0.168,1.703c0.017,0.196,0.029,0.394,0.044,0.59c0.087,1.135,0.144,2.273,0.171,3.419
			c0.002,0.099,0.007,0.197,0.008,0.296c0.012,0.602,0.013,1.205,0.007,1.809C159.907,110.064,159.903,110.246,159.9,110.428z"/>
	</g>
	<g>
		<path d="M70.83,52.885l-0.479-0.374c0.114,0.141,0.235,0.277,0.354,0.415L70.83,52.885z"/>
		<path d="M74.014,55.37l-3.177-2.479C70.868,52.92,72.118,54.114,74.014,55.37z"/>
		<path d="M164.635,95.85c-3.479-17.815-13.548-32.502-28.352-41.354c-8.431-5.041-18.072-7.885-28.032-8.301
			c-0.131-0.327-0.27-0.663-0.411-0.986l4.285-7.962l1.365-2.536l-1.125-2.651l-0.465-1.094c-0.114-0.913-0.337-1.786-0.733-2.503
			c-0.252-0.456-0.538-0.852-0.84-1.207l-2.302-5.425l-0.686-1.615l-1.445-0.992l-4.11-2.818l-0.862-0.59l-1.01-0.265l-11.176-2.927
			l-1.362-0.357l-1.381,0.288l-15.787,3.291l-1.37,0.286l-1.104,0.863l-9.154,7.164l-0.826,0.646l-0.558,0.889l-2.654,4.229
			l-0.936,1.49l0.018,1.76l0.111,11.111l0.029,2.891l2.278,1.779l5.852,4.568l-6.61,15.138c-3.911,4.126-7.376,8.697-10.311,13.602
			c-20.007,33.457-11.599,75.438,18.745,93.585c7.179,4.293,15.076,6.965,23.476,7.941c3.276,0.688,6.678,1.037,10.117,1.037
			c10.662,0,21.615-3.301,31.675-9.542c10.166-6.31,18.969-15.375,25.453-26.222c0.084-0.14,0.158-0.271,0.231-0.401l0.073-0.129
			l0.037-0.06c0.082-0.127,0.162-0.256,0.24-0.387C164.656,131.977,168.068,113.428,164.635,95.85z M159.9,110.428
			c-0.021,1.265-0.075,2.533-0.17,3.805c-0.312,9.741-3.496,20.143-9.853,30.77c-0.137,0.228-0.274,0.447-0.41,0.673
			c-0.059,0.104-0.117,0.208-0.179,0.312c-0.473,0.79-0.927,1.587-1.456,2.328c-15.208,21.311-32.833,33.314-59.41,29.601
			c-0.09-0.019-0.182-0.035-0.271-0.055c-0.266-0.029-0.53-0.076-0.796-0.109c-7.138-0.902-14.115-3.199-20.56-7.054
			c-17.219-10.298-26.592-29.087-26.722-49.217c-0.065-10.065,2.18-20.465,6.91-30.308c0.946-1.968,1.992-3.915,3.138-5.831
			c1.816-3.037,3.838-5.858,5.999-8.508c1.357-1.666,2.758-3.279,4.231-4.789l6.423-14.712l0.001,0.001l1.459-3.344
			c-1.494-1.573-3.873-4.342-5.061-7.082l-3.44-2.686l-0.111-11.111l2.654-4.229l9.154-7.164l15.788-3.291l11.176,2.927l4.111,2.818
			l1.518,3.579c0.325-0.004,1.805,0.095,2.859,2.134c1.19,2.302,0.452,5.062,0.452,5.062l-2.676-5.699l2.186,5.153l-6.709,12.465
			c-0.04,0.391-0.084,0.788-0.135,1.197c-0.144,1.16-0.462,2.219-0.845,3.154l0.264,0.301l1.649-0.256l1.437-4.86
			c0,0,0.884-0.063,0.884,3.451c0,0.926,0.224,1.702,0.506,2.323c0.243-0.008,0.487-0.006,0.73-0.011
			c0.362-0.012,0.725-0.026,1.086-0.026c3.183,0,6.356,0.276,9.491,0.825c0.03,0.005,0.06,0.011,0.09,0.016
			c0.571,0.101,1.141,0.211,1.708,0.331c0.079,0.017,0.157,0.034,0.235,0.051c0.519,0.111,1.036,0.23,1.552,0.358
			c0.115,0.028,0.229,0.058,0.345,0.086c0.479,0.122,0.954,0.25,1.43,0.384c0.144,0.041,0.287,0.082,0.431,0.124
			c0.443,0.13,0.885,0.267,1.326,0.409c0.168,0.054,0.336,0.108,0.504,0.164c0.416,0.139,0.83,0.284,1.244,0.433
			c0.184,0.067,0.369,0.132,0.553,0.201c0.396,0.148,0.789,0.303,1.182,0.461c0.197,0.079,0.395,0.156,0.591,0.237
			c0.379,0.158,0.757,0.324,1.134,0.492c0.203,0.09,0.407,0.177,0.609,0.27c0.375,0.171,0.746,0.353,1.117,0.534
			c0.2,0.098,0.401,0.191,0.601,0.292c0.391,0.197,0.778,0.404,1.166,0.611c0.175,0.094,0.352,0.182,0.525,0.278
			c0.559,0.307,1.113,0.624,1.664,0.953c0.766,0.458,1.51,0.939,2.245,1.43c0.191,0.128,0.382,0.258,0.571,0.388
			c0.66,0.454,1.31,0.918,1.943,1.397c0.069,0.052,0.141,0.102,0.209,0.154c0.686,0.523,1.351,1.066,2.005,1.62
			c0.18,0.152,0.356,0.306,0.534,0.459c0.547,0.475,1.083,0.959,1.607,1.454c0.113,0.106,0.229,0.21,0.342,0.317
			c0.602,0.578,1.185,1.171,1.757,1.774c0.17,0.18,0.336,0.362,0.503,0.543c0.447,0.486,0.886,0.979,1.313,1.48
			c0.141,0.165,0.285,0.327,0.424,0.494c0.516,0.618,1.014,1.247,1.5,1.886c0.165,0.218,0.325,0.439,0.487,0.659
			c0.354,0.48,0.699,0.966,1.036,1.458c0.158,0.23,0.319,0.458,0.474,0.69c0.427,0.643,0.841,1.294,1.241,1.955
			c0.161,0.268,0.315,0.539,0.474,0.809c0.267,0.458,0.527,0.92,0.781,1.386c0.164,0.3,0.329,0.599,0.487,0.902
			c0.341,0.654,0.672,1.314,0.988,1.982c0.156,0.33,0.302,0.665,0.452,0.999c0.188,0.418,0.373,0.839,0.552,1.262
			c0.158,0.374,0.314,0.748,0.465,1.125c0.193,0.486,0.376,0.976,0.556,1.468c0.211,0.574,0.412,1.152,0.605,1.734
			c0.12,0.362,0.239,0.725,0.353,1.089c0.139,0.446,0.273,0.893,0.402,1.343c0.095,0.331,0.182,0.665,0.271,0.998
			c0.216,0.807,0.415,1.619,0.599,2.437c0.065,0.292,0.132,0.583,0.192,0.875c0.106,0.511,0.208,1.024,0.302,1.539
			c0.045,0.245,0.084,0.492,0.126,0.738c0.167,0.981,0.312,1.97,0.433,2.964c0.024,0.202,0.052,0.404,0.074,0.607
			c0.063,0.566,0.119,1.134,0.168,1.703c0.017,0.196,0.029,0.394,0.044,0.59c0.087,1.135,0.144,2.273,0.171,3.419
			c0.002,0.099,0.007,0.197,0.008,0.296c0.012,0.602,0.013,1.205,0.007,1.809C159.907,110.064,159.903,110.246,159.9,110.428z"/>
	</g>
</g>
</svg>
