<?xml version="1.0" encoding="utf-8"?>
<!-- Generator: Adobe Illustrator 15.0.0, SVG Export Plug-In . SVG Version: 6.00 Build 0)  -->
<!DOCTYPE svg PUBLIC "-//W3C//DTD SVG 1.1//EN" "http://www.w3.org/Graphics/SVG/1.1/DTD/svg11.dtd">
<svg version="1.1" xmlns="http://www.w3.org/2000/svg" xmlns:xlink="http://www.w3.org/1999/xlink" x="0px" y="0px" width="200px"
	 height="200px" viewBox="0 0 200 200" enable-background="new 0 0 200 200" xml:space="preserve">
<g id="icon">
	<g id="Layer_2">
	</g>
	<g id="Layer_1_1_">
		<g>
			<g>
				<g>
					
						<radialGradient id="SVGID_1_" cx="147.5215" cy="41.5596" r="76.8891" gradientTransform="matrix(1 0 0 -1.4742 -50 175.7642)" gradientUnits="userSpaceOnUse">
						<stop  offset="0" style="stop-color:#FFC000"/>
						<stop  offset="0.6626" style="stop-color:#FF8600"/>
					</radialGradient>
					<path fill="url(#SVGID_1_)" d="M96.062,186.361c-0.342,0-0.682-0.014-1.024-0.041c-5.161-0.408-8.704-4.566-11.829-8.234
						c-1.957-2.295-3.804-4.464-5.757-5.527c-1.785-0.973-4.771-1.26-7.659-1.537c-5.04-0.482-10.751-1.031-14.058-5.326
						c-2.212-2.871-3.076-7.227-3.992-11.836c-0.77-3.877-1.565-7.887-3.147-11.209c-0.878-1.846-1.897-3.734-2.882-5.562
						c-2.969-5.507-6.039-11.202-5.792-16.755c0.239-5.416,3.832-15.84,7.002-25.037c1.669-4.845,3.247-9.42,3.941-12.176
						l0.608-2.413l2.484,0.151c2.208,0.135,3.739,1.224,4.898,2.258c0.792-2.039,1.917-3.871,2.96-5.572
						c1.849-3.014,3.447-5.617,2.92-8.543c-0.18-0.999-1.574-2.884-2.694-4.398c-2.441-3.301-5.208-7.042-4.013-11.06
						c0.77-2.587,2.962-4.521,6.702-5.911l3.365-1.251l0.633,3.535c0.102,0.569,0.354,1.232,0.72,1.894
						c-0.128-2.948,0.412-5.854,2.174-9.698c2.917-6.357,7.554-7.562,13.972-9.225l1.887-0.494l0.513-0.012
						c1.423,0,2.657,0.523,3.567,1.512c0.417,0.454,0.728,0.967,0.956,1.518c4.017-6.897,8.047-16.341,8.405-21.393l0.275-3.876
						l3.681,1.248c6.271,2.125,7.147,8.522,7.853,13.663c0.197,1.436,0.384,2.792,0.662,3.965c0.485,2.039,0.756,3.918,0.994,5.577
						c0.217,1.515,0.418,2.917,0.754,4.282c0.258-0.441,0.553-0.931,0.912-1.405l2.016-2.659L120.5,37.1
						c0.852,0.8,1.708,1.563,2.561,2.322c3.129,2.789,6.365,5.672,9.057,10.094c0.697,1.146,1.884,2.355,3.14,3.635
						c1.868,1.905,4.292,4.375,5.251,7.411l5.481-0.761l-2.63,5.133c-2.971,5.797-3.739,9.712-2.42,12.321
						c0.49,0.972,2.649,2.336,4.386,3.433c3.466,2.19,7.768,4.91,8.175,9.455c0.116,0.76,0.139,2.212-1.018,3.395
						c2.711,4.895,3.64,9.562,4.541,14.092c0.145,0.726,0.289,1.454,0.441,2.188c0.538,2.582,1.016,3.748,1.436,4.774
						c0.76,1.857,1.224,3.194,1.189,7.113c-0.039,4.562-1.393,6.472-3.023,8.329c-0.869,0.99-1.558,1.773-2.051,3.922
						c-0.414,1.805-0.312,4.154-0.201,6.645c0.207,4.641,0.438,9.898-2.396,14.654c-3.877,6.501-8.271,13.868-13.744,18.551
						c-3.603,3.082-8.784,3.399-13.797,3.709c-3.138,0.191-6.383,0.393-9.241,1.229c-2.275,0.668-4.613,1.931-7.087,3.269
						C104.593,184.148,100.501,186.361,96.062,186.361z"/>
				</g>
				<g>
					
						<radialGradient id="SVGID_2_" cx="9045.8262" cy="9.4087" r="12.6488" gradientTransform="matrix(-1 0 0 -1 9148.877 61)" gradientUnits="userSpaceOnUse">
						<stop  offset="0" style="stop-color:#FFE600"/>
						<stop  offset="1" style="stop-color:#FFAE00"/>
					</radialGradient>
					<path fill="url(#SVGID_2_)" d="M98.131,68.779c12.965-4.6,11.432-25.808,5.266-34.375c-9.616,6.58-1.901,18.7-2.53,27.324
						C100.637,64.879,97.741,67.1,98.131,68.779z"/>
					
						<radialGradient id="SVGID_3_" cx="9061.4863" cy="-1.0586" r="13.8594" gradientTransform="matrix(-1 0 0 -1 9148.877 61)" gradientUnits="userSpaceOnUse">
						<stop  offset="0" style="stop-color:#FFE600"/>
						<stop  offset="1" style="stop-color:#FFAE00"/>
					</radialGradient>
					<path fill="url(#SVGID_3_)" d="M88.13,50.953c-0.164-0.375-0.032-0.974-0.713-0.955c-0.946-1.441-0.75-3.751-0.762-5.9
						c-16.552,10.47,0.523,24.609,3.875,35.921C99.462,72.016,93.978,57.756,88.13,50.953z"/>
					
						<radialGradient id="SVGID_4_" cx="9044.9238" cy="-59.3203" r="52.1524" gradientTransform="matrix(-1 0 0 -1 9148.877 61)" gradientUnits="userSpaceOnUse">
						<stop  offset="0" style="stop-color:#FFE600"/>
						<stop  offset="1" style="stop-color:#FFAE00"/>
					</radialGradient>
					<path fill="url(#SVGID_4_)" d="M143.078,108.979c-1.053,5.209-8.546,1.845-11.335,5.955c-0.679-3.6,2.34-4.057,4.104-8.223
						c1.754-4.137,1.522-8.178-2.019-11.813c-0.155-0.549,0.162-1.411-0.466-1.598c-1.252-3.039-6.356-2.024-5.865-6.381
						c-7.453,2.653-3.023,6.633-3.855,11.028c-0.51,2.683-4.012,2.217-5.908,4.951c-1.952,2.812-4.234,5.619-3.385,8.492
						c-0.981-1.998-3.025-3.924-2.996-6.891c0.795-0.215,1.432-0.836,1.285-1.523c2.689-4.479,5.615-6.166,3.885-9.265
						c-2.056-3.683-6.232-5.996-6.551-8.99c-0.334-3.154,2.098-6.411,3.939-10.021c1.771-3.466,2.027-7.253-2.361-10.35
						c0.417,1.588,0.797,3.354,0.586,4.524c-0.783,0.145-2.984-1.114-3.297-0.661c-2.811,2.038-6.005,3.814-8.552,5.812
						c-2.976,2.338-5.342,5.846-4.9,9.524c0.364,3.024,6.736,5.309,6.877,8.521c0.215,4.81-5.777,8.264-6.871,13.131
						c-1.805-2.271-8.905-4.002-9.937-7.434c-1.158-3.823,3.616-9.003,2.797-12.907c-0.749-3.542-1.911-6.729-4.919-8.348
						c-2.429-1.306-5.561,0.814-9.123-0.288c0.168,1.862,0.84,0.461,1.457,1.983c1.727,6.413-2.088,9.231-3.672,13.053
						c-1.849,4.453-4.33,11.136-1.398,13.878c2.573,2.401,7.767,2.528,11.237,4.893c0.078,0.293-0.246,1.191,0.331,1.004
						c1.541,2.02-0.709,9.33-1.405,12.289c-2.198-2.379-6.646-0.619-11.019-0.443c-4.805,0.189-10.585,0.553-11.085-3.492
						c-1.467,1.193,1.206-3.701,1.062-2.106c-1.091,3.37-4.083,6.641-3.78,10.215c0.297,3.483,1.564,7.137,2.698,10.508
						c1.157,3.449,2.437,6.983,3.961,10.006c1.811,3.595,6.333,5.306,7.863,7.8c1.177,2.018,0.502,7.227,3.704,9.854
						c2.338,1.918,6.396,2.367,9.53,4.065c2.814,1.527,6.225,1.906,9.503,2.904c3.124,0.949,6.102,3.477,9.489,3.648
						c3.24,0.164,6.154-3.031,9.502-3.834c3.076-0.736,7.062,0.703,10.123-1.051c2.686-1.535,5.666-3.455,8.271-5.914
						c2.231-2.109,3.937-5.18,6.062-8.058c2.229-3.157,2.729-6.989,4.183-10.123c1.627-3.493,5.149-6.161,5.937-9.526
						c0.877-3.75,0.334-7.683,0.338-11.129c0.002-3.875,5.164-1.629,4.871-5.029c-0.338-3.957-1.41-7.947-2.715-10.982
						C147.589,106.742,145.479,110.943,143.078,108.979z"/>
					
						<radialGradient id="SVGID_5_" cx="9028.2324" cy="-8.7129" r="10.206" gradientTransform="matrix(-1 0 0 -1 9148.877 61)" gradientUnits="userSpaceOnUse">
						<stop  offset="0" style="stop-color:#FFE600"/>
						<stop  offset="1" style="stop-color:#FFAE00"/>
					</radialGradient>
					<path fill="url(#SVGID_5_)" d="M120.023,83.076c-0.838-8.182,13.769-20.48,0.436-26.727
						C122.885,63.378,107.814,76.987,120.023,83.076z"/>
				</g>
				
					<radialGradient id="SVGID_6_" cx="9047.3965" cy="-74.0127" r="38.5007" gradientTransform="matrix(-1 0 0 -1 9148.877 61)" gradientUnits="userSpaceOnUse">
					<stop  offset="0" style="stop-color:#FFFF9D"/>
					<stop  offset="1" style="stop-color:#FFE300"/>
				</radialGradient>
				<path fill="url(#SVGID_6_)" d="M130.93,155.559c0,0-5.257,15.062-24.445,14.525c-19.191-0.539-22.663-4.5-30.019-13.121
					c-7.354-8.623-12.814-12.436-13.047-17.332c-0.231-4.898-3.575-14.859-3.575-14.859s2.528,3.377,9.112,2.75
					c6.586-0.629,12.352-3.377,14.273,0.222c1.928,3.598,3.809,6.147,8.666,3.672c4.859-2.479,2.385-12.504-2.944-18.666
					c-5.331-6.164-7.007-10.623-7.007-10.623s4.236,9.713,12.09,8.858c7.853-0.854,5.008,11.586,5.008,11.586
					s-1.723-12.079,4.06-19.92c6.524-8.845,3.336,6.562,4.021,8.019c2.773,5.888,10.027,11.586,14.432,5.531
					c4.403-6.052-5.123,8.768,2.036,4.846s17.243-9.494,17.243-9.494s5.148,5.548-0.02,21.438
					C135.643,148.881,130.93,155.559,130.93,155.559z"/>
				
					<radialGradient id="SVGID_7_" cx="9045.1133" cy="-84.6348" r="24.1706" gradientTransform="matrix(-1 0 0 -1 9148.877 61)" gradientUnits="userSpaceOnUse">
					<stop  offset="0" style="stop-color:#FFFFD7"/>
					<stop  offset="0.2089" style="stop-color:#FFFFD4"/>
					<stop  offset="0.3515" style="stop-color:#FFFDCB"/>
					<stop  offset="0.4743" style="stop-color:#FFFBBC"/>
					<stop  offset="0.5858" style="stop-color:#FFF9A6"/>
					<stop  offset="0.6899" style="stop-color:#FFF58A"/>
					<stop  offset="0.7884" style="stop-color:#FFF168"/>
					<stop  offset="0.8824" style="stop-color:#FFEB3F"/>
					<stop  offset="0.9708" style="stop-color:#FFE511"/>
					<stop  offset="1" style="stop-color:#FFE300"/>
				</radialGradient>
				<path fill="url(#SVGID_7_)" d="M73.952,145.33c0,0,8.611,9.586,16.311,12.898c7.705,3.313,23.078,8.85,32.01-3.625
					c8.939-12.478,12.275-24.701,11.061-25.691c0,0-8.459,5.775-8.654,10.078c-0.205,4.301-8.06,8.99-10.08,7.434
					c-1.59-1.23,0.35-2.662-0.068-3.531c-0.657-1.365-2.663-2.744-2.663-2.744s0.853,2.111-1.437,4.566
					c-1.785,1.918-4.834,4.07-7.363,2.428c-3.513-2.279-10.146-2.055-10.146-2.055l3.445,4.305
					c-5.82-1.141-8.632,1.238-13.633-1.848C77.417,144.254,73.952,145.33,73.952,145.33z"/>
				
					<radialGradient id="SVGID_8_" cx="9041.0625" cy="-69.0381" r="6.7695" gradientTransform="matrix(-1 0 0 -1 9148.877 61)" gradientUnits="userSpaceOnUse">
					<stop  offset="0" style="stop-color:#FFFFD7"/>
					<stop  offset="0.2089" style="stop-color:#FFFFD4"/>
					<stop  offset="0.3515" style="stop-color:#FFFDCB"/>
					<stop  offset="0.4743" style="stop-color:#FFFBBC"/>
					<stop  offset="0.5858" style="stop-color:#FFF9A6"/>
					<stop  offset="0.6899" style="stop-color:#FFF58A"/>
					<stop  offset="0.7884" style="stop-color:#FFF168"/>
					<stop  offset="0.8824" style="stop-color:#FFEB3F"/>
					<stop  offset="0.9708" style="stop-color:#FFE511"/>
					<stop  offset="1" style="stop-color:#FFE300"/>
				</radialGradient>
				<path fill="url(#SVGID_8_)" d="M109.659,138.92c0,0-4.458-0.664-5.321-3.502c-0.874-2.834,4.465-12.508,2.783-14.023
					c-1.676-1.512,5.83,4.48,3.967,9.615C109.766,134.637,107.85,138.289,109.659,138.92z"/>
				
					<radialGradient id="SVGID_9_" cx="9044.7422" cy="-19.5811" r="4.6132" gradientTransform="matrix(-1 0 0 -1 9148.877 61)" gradientUnits="userSpaceOnUse">
					<stop  offset="0" style="stop-color:#FFFFD7"/>
					<stop  offset="0.2089" style="stop-color:#FFFFD4"/>
					<stop  offset="0.3515" style="stop-color:#FFFDCB"/>
					<stop  offset="0.4743" style="stop-color:#FFFBBC"/>
					<stop  offset="0.5858" style="stop-color:#FFF9A6"/>
					<stop  offset="0.6899" style="stop-color:#FFF58A"/>
					<stop  offset="0.7884" style="stop-color:#FFF168"/>
					<stop  offset="0.8824" style="stop-color:#FFEB3F"/>
					<stop  offset="0.9708" style="stop-color:#FFE511"/>
					<stop  offset="1" style="stop-color:#FFE300"/>
				</radialGradient>
				<path fill="url(#SVGID_9_)" d="M103.959,86.434c0,0-2.688-1.237-2.706-3.184c-0.017-1.948,5.153-7.062,4.376-8.326
					c-0.777-1.263,2.84,3.892,0.707,6.787C104.826,83.754,102.936,85.705,103.959,86.434z"/>
				
					<radialGradient id="SVGID_10_" cx="9062.8965" cy="-73.7188" r="5.8165" gradientTransform="matrix(-1 0 0 -1 9148.877 61)" gradientUnits="userSpaceOnUse">
					<stop  offset="0" style="stop-color:#FFFFD7"/>
					<stop  offset="0.2089" style="stop-color:#FFFFD4"/>
					<stop  offset="0.3515" style="stop-color:#FFFDCB"/>
					<stop  offset="0.4743" style="stop-color:#FFFBBC"/>
					<stop  offset="0.5858" style="stop-color:#FFF9A6"/>
					<stop  offset="0.6899" style="stop-color:#FFF58A"/>
					<stop  offset="0.7884" style="stop-color:#FFF168"/>
					<stop  offset="0.8824" style="stop-color:#FFEB3F"/>
					<stop  offset="0.9708" style="stop-color:#FFE511"/>
					<stop  offset="1" style="stop-color:#FFE300"/>
				</radialGradient>
				<path fill="url(#SVGID_10_)" d="M89.927,141.936c0,0-3.902-3.28-1.452-6.713c3.258-4.565-4.598-7.721-4.598-7.721
					s1.825,1.6-0.784,8.002C81.702,138.904,80.028,141.363,89.927,141.936z"/>
				
					<radialGradient id="SVGID_11_" cx="9010.8164" cy="-57.7246" r="4.4849" gradientTransform="matrix(-1 0 0 -1 9148.877 61)" gradientUnits="userSpaceOnUse">
					<stop  offset="0" style="stop-color:#FFFFD7"/>
					<stop  offset="0.2089" style="stop-color:#FFFFD4"/>
					<stop  offset="0.3515" style="stop-color:#FFFDCB"/>
					<stop  offset="0.4743" style="stop-color:#FFFBBC"/>
					<stop  offset="0.5858" style="stop-color:#FFF9A6"/>
					<stop  offset="0.6899" style="stop-color:#FFF58A"/>
					<stop  offset="0.7884" style="stop-color:#FFF168"/>
					<stop  offset="0.8824" style="stop-color:#FFEB3F"/>
					<stop  offset="0.9708" style="stop-color:#FFE511"/>
					<stop  offset="1" style="stop-color:#FFE300"/>
				</radialGradient>
				<path fill="url(#SVGID_11_)" d="M134.991,123.738c0,0,7.757-1.654,6.887-5.312c-0.864-3.664-2.368-4.715-2.368-4.715
					S131.688,120.906,134.991,123.738z"/>
				
					<radialGradient id="SVGID_12_" cx="9079.957" cy="-73.5977" r="4.4938" gradientTransform="matrix(-1 0 0 -1 9148.877 61)" gradientUnits="userSpaceOnUse">
					<stop  offset="0" style="stop-color:#FFFFD7"/>
					<stop  offset="0.2089" style="stop-color:#FFFFD4"/>
					<stop  offset="0.3515" style="stop-color:#FFFDCB"/>
					<stop  offset="0.4743" style="stop-color:#FFFBBC"/>
					<stop  offset="0.5858" style="stop-color:#FFF9A6"/>
					<stop  offset="0.6899" style="stop-color:#FFF58A"/>
					<stop  offset="0.7884" style="stop-color:#FFF168"/>
					<stop  offset="0.8824" style="stop-color:#FFEB3F"/>
					<stop  offset="0.9708" style="stop-color:#FFE511"/>
					<stop  offset="1" style="stop-color:#FFE300"/>
				</radialGradient>
				<path fill="url(#SVGID_12_)" d="M70.858,140.539c0,0-6.328-3.467-3.439-11.883c0,0,3.086,2.805,3.574,5.045
					C71.474,135.938,70.858,140.539,70.858,140.539z"/>
			</g>
		</g>
	</g>
</g>
<g id="outline_x5F_white">
	<g>
		<g>
			<path fill="#FFFFFF" d="M103.917,14.232c5.931,2.01,5.247,9.978,6.56,15.483c1.26,5.298,0.951,9.34,3.19,13.897
				c3.038-0.344,3.595-2.766,4.776-4.328c3.918,3.685,7.949,6.596,11.109,11.791c2.965,4.872,11.174,8.833,7.377,15.454
				c4.062-0.051,0.354-2.492,3.758-2.965c-2.914,5.689-4.496,10.949-2.428,15.043c2.053,4.058,11.899,6.497,12.26,11.911
				c0.451,2.071-3.479,1.12-1.828,2.542c3.896,5.935,4.605,11.467,5.836,17.37c1.408,6.754,2.613,5.168,2.562,11.25
				c-0.061,6.971-3.529,5.223-4.999,11.604c-1.323,5.766,1.595,13.988-2.249,20.436c-3.886,6.516-8.031,13.457-13.117,17.807
				c-4.795,4.103-14.131,2.054-21.933,4.341c-6.353,1.864-12.532,7.495-18.729,7.495c-0.262,0-0.524-0.01-0.786-0.03
				c-6.706-0.531-10.509-10.203-16.389-13.406c-5.633-3.069-16.5-0.508-20.775-6.059c-3.416-4.437-3.162-14.847-6.807-22.505
				c-3.491-7.338-8.67-14.502-8.386-20.895c0.344-7.787,8.84-28.618,10.855-36.613c3.109,0.19,4.197,3.756,7.04,4.153
				c0.288-7.251,8.215-12.084,6.875-19.536c-0.985-5.457-13.812-13.604-1.913-18.026c0.545,3.045,3.652,7.48,7.779,7.812
				c-1.408-6.125-1.847-9.133,0.795-14.893c2.512-5.474,6.38-6.085,13.563-7.98c0.027-0.001,0.054-0.001,0.081-0.001
				c3.553,0,1.394,6.927,1.931,8.909C94.97,38.968,103.332,22.475,103.917,14.232 M103.918,2.232c-2.336,0-4.651,0.682-6.643,2.006
				c-3.097,2.058-5.064,5.436-5.328,9.145c-0.155,2.188-1.538,6.044-3.338,10.012c-0.203-0.008-0.408-0.012-0.613-0.012
				c-0.143,0-0.287,0.002-0.433,0.006c-0.916,0.026-1.825,0.158-2.71,0.392c-0.524,0.138-1.029,0.27-1.517,0.396
				c-7.121,1.847-15.192,3.941-19.892,14.183c-0.053,0.117-0.105,0.232-0.157,0.348c-0.571,0.121-1.136,0.285-1.691,0.491
				c-8.074,3-11.087,8.062-12.193,11.781c-2.476,8.323,2.456,14.992,5.403,18.977c0.175,0.236,0.379,0.512,0.583,0.792
				c-0.199,0.359-0.433,0.757-0.666,1.144c-0.072-0.005-0.144-0.01-0.216-0.015c-0.247-0.015-0.494-0.022-0.738-0.022
				c-5.463,0-10.28,3.71-11.63,9.067c-0.601,2.384-2.188,6.989-3.723,11.443c-4.342,12.596-7.208,21.321-7.484,27.573
				c-0.358,8.031,3.478,15.146,6.861,21.422c0.975,1.81,1.896,3.518,2.677,5.158c1.099,2.311,1.784,5.76,2.446,9.096
				c1.077,5.423,2.19,11.031,5.688,15.574c5.689,7.389,14.499,8.233,20.328,8.793c1.384,0.134,3.417,0.328,4.306,0.562
				c0.748,0.599,2.161,2.257,3.12,3.383c3.619,4.247,9.088,10.665,17.97,11.369c0.57,0.045,1.154,0.068,1.734,0.068
				c6.715,0,12.288-3.013,16.766-5.433c1.955-1.057,3.977-2.148,5.344-2.551c1.885-0.552,4.495-0.713,7.258-0.883
				c5.883-0.361,13.203-0.812,19.096-5.852c6.597-5.644,11.393-13.686,15.623-20.779c4.216-7.072,3.894-14.35,3.658-19.664
				c-0.062-1.365-0.15-3.406-0.031-4.168c0.019-0.021,0.037-0.041,0.055-0.061c2.695-3.07,5.197-6.914,5.261-14.19
				c0.042-4.982-0.62-7.568-1.858-10.597c-0.326-0.799-0.586-1.432-0.955-3.205c-0.147-0.709-0.287-1.41-0.426-2.108
				c-0.773-3.888-1.617-8.125-3.533-12.671c0.252-1.344,0.291-2.71,0.131-4.038c-0.866-8.848-8.012-13.364-12.315-16.084
				c-0.131-0.083-0.272-0.173-0.421-0.267c0.288-0.852,0.788-2.08,1.657-3.775c2.041-3.983,1.694-8.772-0.896-12.421
				c-0.924-1.299-2.076-2.377-3.379-3.199c-1.646-2.73-3.705-4.828-5.414-6.569c-0.644-0.656-1.609-1.642-1.897-2.049
				c-3.384-5.547-7.289-9.026-10.735-12.097c-0.837-0.746-1.627-1.45-2.38-2.158c-1.244-1.17-2.708-2.047-4.286-2.595
				c-0.07-0.33-0.146-0.666-0.229-1.009c-0.18-0.751-0.338-1.896-0.504-3.108c-0.758-5.535-2.338-17.052-13.879-20.963
				C106.514,2.442,105.212,2.232,103.918,2.232L103.918,2.232z"/>
		</g>
	</g>
</g>
<g id="outline_x5F_black">
	<path d="M103.917,14.232c5.931,2.01,5.247,9.978,6.56,15.483c1.26,5.298,0.951,9.34,3.19,13.897
		c3.038-0.344,3.595-2.766,4.776-4.328c3.918,3.685,7.949,6.596,11.109,11.791c2.965,4.872,11.174,8.833,7.377,15.454
		c4.062-0.051,0.354-2.492,3.758-2.965c-2.914,5.689-4.496,10.949-2.428,15.043c2.053,4.058,11.899,6.497,12.26,11.911
		c0.451,2.071-3.479,1.12-1.828,2.542c3.896,5.935,4.605,11.467,5.836,17.37c1.408,6.754,2.613,5.168,2.562,11.25
		c-0.061,6.971-3.529,5.223-4.999,11.604c-1.323,5.766,1.595,13.988-2.249,20.436c-3.886,6.516-8.031,13.457-13.117,17.807
		c-4.795,4.103-14.131,2.054-21.933,4.341c-6.353,1.864-12.532,7.495-18.729,7.495c-0.262,0-0.524-0.01-0.786-0.03
		c-6.706-0.531-10.509-10.203-16.389-13.406c-5.633-3.069-16.5-0.508-20.775-6.059c-3.416-4.437-3.162-14.847-6.807-22.505
		c-3.491-7.338-8.67-14.502-8.386-20.895c0.344-7.787,8.84-28.618,10.855-36.613c3.109,0.19,4.197,3.756,7.04,4.153
		c0.288-7.251,8.215-12.084,6.875-19.536c-0.985-5.457-13.812-13.604-1.913-18.026c0.545,3.045,3.652,7.48,7.779,7.812
		c-1.408-6.125-1.847-9.133,0.795-14.893c2.512-5.474,6.38-6.085,13.563-7.98c0.027-0.001,0.054-0.001,0.081-0.001
		c3.553,0,1.394,6.927,1.931,8.909C94.97,38.968,103.332,22.475,103.917,14.232 M98.482,6.055l-0.55,7.752
		c-0.272,3.833-2.974,10.651-6.044,16.566c-1.158-0.648-2.485-0.991-3.892-0.991c-0.083,0-0.168,0.001-0.254,0.003l-0.69,0.021
		l-0.667,0.176c-0.532,0.14-1.045,0.273-1.542,0.402c-6.671,1.731-12.433,3.226-15.944,10.877c-0.381,0.831-0.711,1.626-0.995,2.393
		l-4.217,1.567c-4.619,1.717-7.49,4.364-8.532,7.868c-1.622,5.452,1.903,10.218,4.476,13.698c0.766,1.036,1.913,2.586,2.171,3.249
		c0.25,1.683-0.81,3.518-2.542,6.34c-0.525,0.855-1.085,1.768-1.625,2.745c-0.997-0.447-2.154-0.774-3.494-0.856l-4.967-0.304
		l-1.216,4.826c-0.664,2.631-2.22,7.148-3.869,11.931c-4.042,11.729-6.922,20.451-7.163,25.884
		c-0.284,6.378,2.986,12.443,6.148,18.31c0.967,1.794,1.968,3.649,2.813,5.429c1.421,2.983,2.18,6.808,2.914,10.504
		c0.985,4.965,1.917,9.652,4.557,13.082c4.101,5.326,10.781,5.967,16.148,6.481c2.467,0.237,5.264,0.507,6.509,1.185
		c1.466,0.8,3.217,2.854,4.91,4.841c3.331,3.907,7.475,8.772,13.877,9.278c0.413,0.032,0.838,0.051,1.26,0.051
		c5.197,0,9.829-2.504,13.913-4.711c2.332-1.26,4.532-2.448,6.508-3.028c2.533-0.742,5.606-0.933,8.578-1.114
		c5.506-0.339,11.197-0.688,15.563-4.423c5.847-5.002,10.375-12.595,14.37-19.293c3.295-5.528,3.029-11.515,2.816-16.325
		c-0.102-2.279-0.197-4.433,0.127-5.842c0.324-1.407,0.611-1.734,1.381-2.611c1.882-2.143,3.723-4.701,3.771-10.281
		c0.037-4.395-0.534-6.129-1.413-8.274c-0.39-0.954-0.793-1.938-1.273-4.252c-0.151-0.726-0.295-1.446-0.438-2.162
		c-0.854-4.288-1.729-8.692-4.024-13.368c0.58-1.323,0.68-2.702,0.547-3.808c-0.536-6.013-5.743-9.304-9.561-11.715
		c-1.146-0.725-2.854-1.804-3.369-2.377c-0.509-1.184-0.443-3.783,2.471-9.473l5.261-10.266l-8.933,1.24
		c-1.41-2.608-3.469-4.706-4.959-6.226c-1.082-1.103-2.199-2.242-2.717-3.093c-2.925-4.805-6.484-7.976-9.625-10.774
		c-0.869-0.773-1.688-1.503-2.5-2.268l-4.861-4.572l-0.769,1.014c-0.163-0.957-0.358-1.966-0.612-3.028
		c-0.246-1.034-0.422-2.32-0.608-3.681c-0.729-5.327-1.834-13.376-9.861-16.097L98.482,6.055L98.482,6.055z"/>
</g>
</svg>
