<?xml version="1.0" encoding="utf-8"?>
<!-- Generator: Adobe Illustrator 15.0.0, SVG Export Plug-In . SVG Version: 6.00 Build 0)  -->
<!DOCTYPE svg PUBLIC "-//W3C//DTD SVG 1.1//EN" "http://www.w3.org/Graphics/SVG/1.1/DTD/svg11.dtd">
<svg version="1.1" xmlns="http://www.w3.org/2000/svg" xmlns:xlink="http://www.w3.org/1999/xlink" x="0px" y="0px" width="200px"
	 height="200px" viewBox="0 0 200 200" enable-background="new 0 0 200 200" xml:space="preserve">
<g id="icon">
	<g id="Layer_2">
	</g>
	<g id="Layer_1_1_">
		<g>
			
				<radialGradient id="SVGID_1_" cx="205.1523" cy="675.126" r="72.3336" fx="206.071" fy="685.7704" gradientTransform="matrix(1 0 0 1 -100 -591)" gradientUnits="userSpaceOnUse">
				<stop  offset="0.3804" style="stop-color:#FFE300"/>
				<stop  offset="1" style="stop-color:#F7941E"/>
			</radialGradient>
			<circle fill="url(#SVGID_1_)" cx="97.897" cy="100" r="65.796"/>
			<path fill="#603913" d="M62.389,101.036c0,0-7.955,2.674-10.293,7.655c-2.34,4.984,0.619-0.121,2.514-0.814
				s4.305-4.257,8.7-4.555c4.396-0.297,3.884,0.09,4.396-0.297C68.219,102.641,66.811,99.972,62.389,101.036z"/>
			
				<radialGradient id="SVGID_2_" cx="237.3154" cy="664.5527" r="36.5706" gradientTransform="matrix(1 0 0 1 -100.0952 -591.0371)" gradientUnits="userSpaceOnUse">
				<stop  offset="0.3804" style="stop-color:#FFE300"/>
				<stop  offset="1" style="stop-color:#F7941E"/>
			</radialGradient>
			<path fill="url(#SVGID_2_)" d="M147.611,77.965c0.925-2.41,4.26-3.342,4.26-3.342s6.404,1.673,7.758,8.062
				c1.117,5.284-1.98,15.082-1.98,15.082s2.656-14.17-7.609-12.345C147.752,85.829,146.412,81.084,147.611,77.965z"/>
			
				<radialGradient id="SVGID_3_" cx="780.6777" cy="1320.7607" r="46.9494" gradientTransform="matrix(0.9683 -0.2496 0.2496 0.9683 -1016.4323 -1007.8267)" gradientUnits="userSpaceOnUse">
				<stop  offset="0.3804" style="stop-color:#FFE300"/>
				<stop  offset="1" style="stop-color:#F7941E"/>
			</radialGradient>
			<path fill="url(#SVGID_3_)" d="M71.957,101.811c0,0-8.222-14.541-14.72-13.038c-6.498,1.502-14.956,8.426-15.102,18.868
				c-0.213,15.199,2.082,2.733,11.219-2.549c9.137-5.282,12.394-4.933,14.72-4.588C70.4,100.85,71.957,101.811,71.957,101.811z"/>
			<path fill="#603913" d="M128.021,61.878c0,0-6.971,7.003-6.498,10.51c0.474,3.503,6.016-1.961,13.185-4.054
				c11.106-3.242,17.285-1.839,13.622-5.036c-4.536-3.96-15.874,1.833-11.369-1.466S135.387,54.264,128.021,61.878z"/>
			<g>
				
					<radialGradient id="SVGID_4_" cx="-4447.5952" cy="5185.4082" r="32.0197" gradientTransform="matrix(-1.137 0.0861 -0.2672 -1.4688 -3562.6599 8117.5664)" gradientUnits="userSpaceOnUse">
					<stop  offset="0.3804" style="stop-color:#FFE300"/>
					<stop  offset="1" style="stop-color:#F7941E"/>
				</radialGradient>
				<path fill="url(#SVGID_4_)" d="M102.766,101.674c18.938-3.615,32.805-7.88,43.811-11.812c2.729-0.976,8.203,8.704,7.197,13.529
					c-8.932,24.111-28.094,42.961-54.107,40.519c-17.051-1.601-29.652-11.806-37.51-22.689c-2.863-3.969-3.624-13.125-1.053-13.319
					C68.537,107.336,79.225,106.166,102.766,101.674z"/>
				<path fill="#603913" d="M102.52,98.914c18.938-3.616,32.699-8.201,43.811-11.812c11.158-3.629,9.635,7.613,7.199,13.53
					c-8.932,24.108-28.094,42.959-54.109,40.515c-17.05-1.6-29.652-11.804-37.509-22.69c-2.863-3.965-5.29-12.653-1.052-13.313
					C68.173,103.995,78.979,103.406,102.52,98.914z"/>
				
					<radialGradient id="SVGID_5_" cx="-4381.3135" cy="5174.8535" r="30.3972" gradientTransform="matrix(-1.1697 0.0969 -0.2612 -1.4708 -3663.6621 8151.0254)" gradientUnits="userSpaceOnUse">
					<stop  offset="0" style="stop-color:#830000"/>
					<stop  offset="1" style="stop-color:#531C00"/>
				</radialGradient>
				<path fill="url(#SVGID_5_)" d="M102.973,100.062c17.86-3.482,30.797-7.995,41.351-11.221c10.514-3.215,9.308,6.509,6.878,12.879
					c-8.612,22.224-26.814,39.699-51.289,37.677c-16.041-1.326-27.82-10.594-35.127-20.527c-2.662-3.621-5.861-12.16-1.093-12.737
					C70.646,105.291,80.77,104.387,102.973,100.062z"/>
			</g>
			<path fill="#603913" d="M72.899,65.726c0,0,15.976,2.479,20.626,6.76c4.65,4.283,2.908,5.883-3.76,4.89
				c-19.386-2.886-30.834,6.246-28.135-0.292c2.699-6.537,17.137-4.232,10.004-6.395C64.5,68.525,69.07,65.023,72.899,65.726z"/>
			<path fill="#603913" d="M155.968,88.662c0,0,1.364-3.59-2.418-4.535c-3.78-0.948-3.079,1.107-1.173,1.244
				C154.286,85.506,155.968,88.662,155.968,88.662z"/>
			<g>
				<g>
					<path fill="none" d="M155.18,70.559c-0.205,2.267-2.824,9.488,0.723,15.362c2.883,4.766,9.076,6.294,13.844,3.416
						c4.768-2.881,6.295-9.077,3.414-13.843c-1.291-2.136-2.656-3.611-4.717-5.199c-6.197-4.78-13.799-5.948-13.799-5.948
						S155.555,66.43,155.18,70.559z"/>
				</g>
				<path opacity="0.47" fill="#354C77" enable-background="new    " d="M155.021,72.174c-0.207,2.268-2.828,9.486,0.723,15.361
					c2.879,4.766,9.076,6.295,13.841,3.414c4.765-2.878,6.294-9.075,3.414-13.84c-1.292-2.139-2.658-3.611-4.716-5.199
					c-6.197-4.778-13.797-5.948-13.797-5.948S155.396,68.045,155.021,72.174z"/>
				
					<radialGradient id="SVGID_6_" cx="2783.0957" cy="2267.7852" r="12.8231" fx="2785.5864" fy="2273.4956" gradientTransform="matrix(-0.7278 0.6859 0.9491 1.0071 32.5764 -4117.7251)" gradientUnits="userSpaceOnUse">
					<stop  offset="0.3252" style="stop-color:#03B1FF"/>
					<stop  offset="0.4464" style="stop-color:#03A8FF"/>
					<stop  offset="0.6464" style="stop-color:#038FFF"/>
					<stop  offset="0.7055" style="stop-color:#0386FF"/>
					<stop  offset="0.7975" style="stop-color:#03B1FF"/>
					<stop  offset="1" style="stop-color:#08FFFF"/>
				</radialGradient>
				<path fill="url(#SVGID_6_)" d="M155.18,70.559c-0.205,2.267-2.824,9.488,0.723,15.362c2.883,4.766,9.076,6.294,13.844,3.416
					c4.768-2.881,6.295-9.077,3.414-13.843c-1.291-2.136-2.656-3.611-4.717-5.199c-6.197-4.78-13.799-5.948-13.799-5.948
					S155.555,66.43,155.18,70.559z"/>
				
					<radialGradient id="SVGID_7_" cx="1775.668" cy="2252.5723" r="5.6912" gradientTransform="matrix(0.9753 -0.2209 0.404 1.7834 -2482.9998 -3545.72)" gradientUnits="userSpaceOnUse">
					<stop  offset="0.5092" style="stop-color:#8AFFFF"/>
					<stop  offset="1" style="stop-color:#08DEFF;stop-opacity:0"/>
				</radialGradient>
				<path fill="url(#SVGID_7_)" d="M162.744,79.827c1.611,3.766,1.095,7.738-0.852,8.365c-2.021,0.653-5.418-1.471-6.676-5.368
					c-0.562-1.748-0.724-3.217-0.611-5.128c0.334-5.747,3.588-10.347,3.588-10.347S159.686,72.687,162.744,79.827z"/>
			</g>
			<g>
				<g>
					<path fill="none" d="M47.553,78.39c-2.175,1.144-9.141,4.772-10.877,11.978c-1.409,5.847,2.187,11.726,8.031,13.136
						c5.845,1.409,11.725-2.188,13.135-8.032c0.631-2.622,0.702-4.791,0.328-7.575c-1.128-8.377-1.432-12.372-1.432-12.372
						S51.761,76.179,47.553,78.39z"/>
				</g>
				<path opacity="0.47" fill="#354C77" enable-background="new    " d="M46.439,79.145c-1.881,1.584-9.376,5.134-11.114,12.342
					c-1.409,5.846,2.188,11.726,8.033,13.134c5.845,1.409,11.725-2.188,13.133-8.031c0.633-2.623,0.702-4.791,0.329-7.574
					c-1.128-8.375-1.961-13.014-1.961-13.014C58.266,75.545,47.065,78.618,46.439,79.145z"/>
				
					<radialGradient id="SVGID_8_" cx="4840.5068" cy="81.1445" r="13.319" fx="4843.0938" fy="87.0758" gradientTransform="matrix(-0.9997 -0.0243 -0.0336 1.3835 4889.5103 90.8942)" gradientUnits="userSpaceOnUse">
					<stop  offset="0.3252" style="stop-color:#03B1FF"/>
					<stop  offset="0.4464" style="stop-color:#03A8FF"/>
					<stop  offset="0.6464" style="stop-color:#038FFF"/>
					<stop  offset="0.7055" style="stop-color:#0386FF"/>
					<stop  offset="0.7975" style="stop-color:#03B1FF"/>
					<stop  offset="1" style="stop-color:#08FFFF"/>
				</radialGradient>
				<path fill="url(#SVGID_8_)" d="M46.89,78.752c-1.943,1.013-8.478,4.41-10.214,11.615c-1.409,5.847,2.187,11.726,8.031,13.136
					c5.845,1.409,11.725-2.188,13.135-8.032c0.631-2.622,0.702-4.791,0.328-7.575c-1.128-8.377-1.432-12.372-1.432-12.372
					S50.86,76.681,46.89,78.752z"/>
				
					<radialGradient id="SVGID_9_" cx="-832.7554" cy="600.4707" r="6.1455" gradientTransform="matrix(0.8487 0.5289 -0.9672 1.5519 1331.6508 -403.8795)" gradientUnits="userSpaceOnUse">
					<stop  offset="0.5092" style="stop-color:#8AFFFF"/>
					<stop  offset="1" style="stop-color:#08DEFF;stop-opacity:0"/>
				</radialGradient>
				<path fill="url(#SVGID_9_)" d="M46.555,90.885c-1.622,4.115-5.038,6.773-7.007,5.776c-2.047-1.035-3.041-5.244-1.046-9.19
					c0.895-1.772,1.888-3.019,3.424-4.402c4.621-4.157,10.613-5.218,10.613-5.218S49.63,83.079,46.555,90.885z"/>
			</g>
			<g>
				<g>
					<path fill="none" d="M41.266,132.287c-1.414,0.609-5.941,2.544-7.371,6.963c-1.162,3.586,0.803,7.434,4.389,8.594
						c3.584,1.162,7.431-0.804,8.593-4.39c0.52-1.606,0.67-2.96,0.568-4.718c-0.303-5.287-0.3-7.801-0.3-7.801
						S44.002,131.107,41.266,132.287z"/>
				</g>
				
					<radialGradient id="SVGID_10_" cx="5108.8193" cy="20.8613" r="8.3479" fx="5110.4409" fy="24.5789" gradientTransform="matrix(-0.9949 -0.1007 -0.1394 1.3768 5126.7432 622.637)" gradientUnits="userSpaceOnUse">
					<stop  offset="0.3252" style="stop-color:#03B1FF"/>
					<stop  offset="0.4464" style="stop-color:#03A8FF"/>
					<stop  offset="0.6464" style="stop-color:#038FFF"/>
					<stop  offset="0.7055" style="stop-color:#0386FF"/>
					<stop  offset="0.7975" style="stop-color:#03B1FF"/>
					<stop  offset="1" style="stop-color:#08FFFF"/>
				</radialGradient>
				<path fill="url(#SVGID_10_)" d="M40.834,132.48c-1.263,0.539-5.51,2.351-6.94,6.77c-1.162,3.586,0.803,7.434,4.389,8.594
					c3.584,1.162,7.431-0.804,8.593-4.39c0.52-1.606,0.67-2.96,0.568-4.718c-0.303-5.287-0.3-7.801-0.3-7.801
					S43.416,131.379,40.834,132.48z"/>
				
					<radialGradient id="SVGID_11_" cx="-1123.4629" cy="608.0469" r="3.8509" gradientTransform="matrix(0.8058 0.5924 -1.0831 1.4734 1602.5374 -92.6001)" gradientUnits="userSpaceOnUse">
					<stop  offset="0.5092" style="stop-color:#8AFFFF"/>
					<stop  offset="1" style="stop-color:#08DEFF;stop-opacity:0"/>
				</radialGradient>
				<path fill="url(#SVGID_11_)" d="M40.043,140.047c-1.211,2.493-3.473,3.992-4.656,3.273c-1.229-0.744-1.648-3.424-0.213-5.793
					c0.644-1.064,1.324-1.797,2.352-2.588c3.087-2.377,6.882-2.75,6.882-2.75S42.339,135.316,40.043,140.047z"/>
			</g>
			<path d="M104.926,138.736c-9.562,0.291-13.681-1.58-19.131-3.526c-1.209-0.433-5.173-2.196-5.115-4.743
				c4.965-16.285,16.802-30.322,29.791-25.383c8.51,3.236,12.766,14.93,16.483,23.736c1.354,3.209-0.367,3.457-1.867,4.332
				C121.829,135.055,116.814,138.377,104.926,138.736z"/>
			
				<radialGradient id="SVGID_12_" cx="204.1621" cy="695.0146" r="20.3427" gradientTransform="matrix(1 0 0 1 -100 -591)" gradientUnits="userSpaceOnUse">
				<stop  offset="0" style="stop-color:#830000"/>
				<stop  offset="1" style="stop-color:#531C00"/>
			</radialGradient>
			<path fill="url(#SVGID_12_)" d="M95.516,106.145c0,0,5.257-0.759,5.057,2.362c-0.201,3.123-3.209,7.558,0.454,9.193
				c2.281,1.019,11.016-0.673,7.313-6.031c-3.588-5.194-3.897-6.873,0-8.3C112.241,101.941,100.63,99.682,95.516,106.145z"/>
			
				<radialGradient id="SVGID_13_" cx="156.1758" cy="1242.2734" r="37.1227" gradientTransform="matrix(0.9962 -0.0877 0.0489 0.5556 -106.7308 -554.3982)" gradientUnits="userSpaceOnUse">
				<stop  offset="0.362" style="stop-color:#FF0000"/>
				<stop  offset="0.4176" style="stop-color:#F60000"/>
				<stop  offset="0.5079" style="stop-color:#DE0000"/>
				<stop  offset="0.6215" style="stop-color:#B70000"/>
				<stop  offset="0.7485" style="stop-color:#830000"/>
			</radialGradient>
			<path fill="url(#SVGID_13_)" d="M79.359,132.543c0,0,4.076-0.736,16.303-4.697c24.691-8,32.146-0.318,35.234,2.278
				c0,0-8.687,7.655-25.312,8.972C100.093,139.53,91.379,139.029,79.359,132.543z"/>
			<g>
				<g>
					<path fill="none" d="M161.73,120.027c-0.115,1.24-1.56,5.188,0.375,8.404c1.568,2.61,4.957,3.454,7.566,1.889
						c2.609-1.569,3.454-4.957,1.887-7.568c-0.703-1.17-1.449-1.979-2.572-2.85c-3.385-2.625-6.902-2.944-6.902-2.944
						S161.941,117.771,161.73,120.027z"/>
				</g>
				
					<radialGradient id="SVGID_14_" cx="2827.5264" cy="2217.1133" r="6.8012" fx="2828.8474" fy="2220.1421" gradientTransform="matrix(-0.7294 0.6842 0.9468 1.0093 127.4943 -4049.4575)" gradientUnits="userSpaceOnUse">
					<stop  offset="0.3252" style="stop-color:#03B1FF"/>
					<stop  offset="0.4464" style="stop-color:#03A8FF"/>
					<stop  offset="0.6464" style="stop-color:#038FFF"/>
					<stop  offset="0.7055" style="stop-color:#0386FF"/>
					<stop  offset="0.7975" style="stop-color:#03B1FF"/>
					<stop  offset="1" style="stop-color:#08FFFF"/>
				</radialGradient>
				<path fill="url(#SVGID_14_)" d="M161.73,120.027c-0.115,1.24-1.56,5.188,0.375,8.404c1.568,2.61,4.957,3.454,7.566,1.889
					c2.609-1.569,3.454-4.957,1.887-7.568c-0.703-1.17-1.449-1.979-2.572-2.85c-3.385-2.625-6.902-2.944-6.902-2.944
					S161.941,117.771,161.73,120.027z"/>
				
					<radialGradient id="SVGID_15_" cx="1721.3584" cy="2211.792" r="3.1139" gradientTransform="matrix(0.9758 -0.2187 0.3999 1.7843 -2400.4612 -3445.3345)" gradientUnits="userSpaceOnUse">
					<stop  offset="0.5092" style="stop-color:#8AFFFF"/>
					<stop  offset="1" style="stop-color:#08DEFF;stop-opacity:0"/>
				</radialGradient>
				<path fill="url(#SVGID_15_)" d="M165.855,125.107c0.877,2.062,0.59,4.235-0.477,4.576c-1.105,0.354-2.963-0.812-3.646-2.945
					c-0.307-0.956-0.393-1.762-0.328-2.805c0.189-3.146,1.977-5.656,1.977-5.656S164.191,121.198,165.855,125.107z"/>
			</g>
		</g>
	</g>
</g>
<g id="outline_x5F_white">
	<path fill="#FFFFFF" d="M180.143,84.561c1.028-4.171,0.373-8.493-1.852-12.169c-1.646-2.726-3.498-4.774-6.188-6.847
		c-2.173-1.676-4.451-2.97-6.604-3.972c-13.4-23.492-38.676-39.369-67.602-39.369c-42.897,0-77.797,34.899-77.797,77.796
		c0,12.885,3.167,25.037,8.736,35.75c-0.265,0.574-0.481,1.13-0.651,1.652c-1.055,3.258-0.779,6.73,0.779,9.781
		c1.558,3.051,4.211,5.312,7.47,6.366c1.28,0.415,2.611,0.626,3.952,0.626c0.558,0,1.108-0.041,1.649-0.11
		c14.152,14.617,33.957,23.73,55.861,23.73c29.48,0,55.17-16.491,68.364-40.725c0.193,0.01,0.383,0.038,0.577,0.038
		c2.084,0,4.132-0.567,5.923-1.645c5.444-3.273,7.211-10.361,3.939-15.804c-0.776-1.294-1.655-2.38-2.742-3.395
		c1.126-5.249,1.734-10.687,1.734-16.267c0-2.488-0.134-4.945-0.364-7.374C177.689,90.496,179.365,87.716,180.143,84.561z
		 M97.898,165.796c-17.915,0-34.15-7.166-46.015-18.779c0-0.001,0.001-0.002,0.001-0.003c-1.628-1.594-3.179-3.265-4.635-5.019
		v0.001c0,0,0-0.001-0.001-0.001c-0.094,0.475-0.209,0.954-0.373,1.459c-0.006,0.018-0.014,0.033-0.019,0.051
		c-0.099,0.297-0.221,0.579-0.355,0.854c-0.037,0.074-0.072,0.148-0.111,0.221c-0.145,0.271-0.304,0.529-0.48,0.772
		c-0.043,0.06-0.09,0.115-0.135,0.173c-0.159,0.206-0.329,0.401-0.509,0.586c-0.048,0.049-0.093,0.102-0.143,0.149
		c-0.21,0.202-0.434,0.388-0.667,0.561c-0.074,0.055-0.148,0.106-0.224,0.158c-0.233,0.159-0.472,0.309-0.722,0.438
		c-0.06,0.03-0.122,0.056-0.182,0.085c-0.223,0.107-0.453,0.2-0.687,0.283c-0.09,0.031-0.179,0.063-0.27,0.092
		c-0.269,0.082-0.542,0.148-0.82,0.197c-0.091,0.017-0.184,0.025-0.276,0.038c-0.237,0.031-0.476,0.051-0.716,0.057
		c-0.079,0.002-0.156,0.01-0.234,0.009c-0.281-0.003-0.563-0.027-0.846-0.065c-0.102-0.015-0.204-0.032-0.306-0.051
		c-0.257-0.047-0.513-0.106-0.769-0.184c-0.041-0.013-0.082-0.02-0.123-0.033c-1.569-0.508-2.827-1.529-3.649-2.818
		c-1.056-1.657-1.392-3.757-0.739-5.773c1.391-4.298,5.437-6.123,6.821-6.718c-0.449-0.787-0.877-1.588-1.293-2.396
		c-0.089-0.172-0.177-0.346-0.264-0.519c-0.4-0.792-0.789-1.59-1.158-2.399c-3.781-8.296-5.899-17.508-5.899-27.221
		c0.001-36.338,29.458-65.796,65.797-65.796c20.01,0,37.923,8.938,49.987,23.034l-0.004,0c0.637,0.743,1.252,1.505,1.855,2.276
		c0.112,0.144,0.225,0.288,0.336,0.433c1.181,1.536,2.295,3.126,3.339,4.766c0.12,0.188,0.239,0.377,0.357,0.566
		c0.509,0.817,1.006,1.642,1.479,2.482v0l0,0c-0.08-1.7-0.38-2.77-0.524-3.199c-0.048-0.143-0.079-0.215-0.079-0.215
		s7.602,1.168,13.799,5.948c0.342,0.264,0.658,0.523,0.964,0.784c0.073,0.062,0.145,0.124,0.216,0.186
		c0.3,0.262,0.588,0.524,0.859,0.792l0,0c1.024,1.013,1.866,2.094,2.678,3.437c1.791,2.962,1.876,6.477,0.541,9.405
		c-0.04,0.086-0.086,0.169-0.128,0.255c-0.093,0.189-0.188,0.376-0.292,0.559c-0.058,0.102-0.121,0.2-0.183,0.3
		c-0.101,0.162-0.203,0.322-0.313,0.479c-0.071,0.103-0.146,0.203-0.222,0.302c-0.112,0.148-0.229,0.293-0.35,0.436
		c-0.083,0.097-0.167,0.194-0.254,0.289c-0.128,0.14-0.263,0.275-0.4,0.409c-0.089,0.086-0.177,0.174-0.27,0.258
		c-0.156,0.141-0.32,0.274-0.487,0.406c-0.084,0.067-0.164,0.137-0.251,0.202c-0.258,0.191-0.525,0.375-0.806,0.544
		c-0.363,0.219-0.737,0.403-1.114,0.572c-0.089,0.04-0.177,0.079-0.265,0.115c-0.373,0.154-0.75,0.289-1.132,0.396
		c-0.052,0.015-0.104,0.024-0.156,0.037c-0.344,0.09-0.689,0.158-1.037,0.211c-0.094,0.014-0.188,0.03-0.281,0.042
		c-0.379,0.046-0.758,0.073-1.137,0.076c-0.14,0.001-0.279-0.005-0.419-0.01c-0.396-0.017-0.792-0.053-1.184-0.112
		c0.126,0.889,0.23,1.785,0.323,2.685c0.032,0.314,0.058,0.63,0.085,0.945c0.057,0.64,0.105,1.283,0.142,1.929
		c0.074,1.251,0.122,2.509,0.122,3.779c0,3.749-0.33,7.419-0.933,10.996l0,0c-0.432,2.564-1.012,5.078-1.73,7.532
		c-0.001,0.002-0.001,0.003-0.001,0.004c-0.232,0.792-0.48,1.578-0.742,2.357c-0.019,0.057-0.038,0.112-0.057,0.169
		c-1.076,3.186-2.388,6.262-3.918,9.209c0,0,0,0,0,0.001C145.355,151.371,123.318,165.796,97.898,165.796z M169.672,130.32
		c-0.056,0.033-0.115,0.057-0.172,0.088c0.001-0.003,0.003-0.006,0.004-0.009c-1.596,0.886-3.453,0.896-5.004,0.179
		c-0.037-0.018-0.074-0.035-0.111-0.053c-0.57-0.28-1.092-0.664-1.544-1.139c-0.052-0.055-0.104-0.11-0.153-0.168
		c-0.213-0.243-0.414-0.5-0.586-0.787c-1.935-3.217-0.49-7.164-0.375-8.404c0.309-1.655,0.354-3.069,0.354-3.069
		s3.518,0.319,6.902,2.944c1.123,0.871,1.869,1.68,2.572,2.85c0.18,0.3,0.32,0.612,0.438,0.929l0,0l0,0
		C172.9,126.119,171.983,128.932,169.672,130.32z"/>
</g>
<g id="outline_x5F_black">
	<path d="M177.232,83.841c0.838-3.393,0.304-6.908-1.506-9.898c-1.463-2.421-3.043-4.167-5.451-6.023
		c-3.907-3.014-8.266-4.708-11.311-5.614c-12.666-20.448-35.297-34.102-61.067-34.102c-39.589,0-71.797,32.208-71.797,71.796
		c0,11.977,2.969,23.264,8.179,33.2c-1.514,1.465-2.607,3.172-3.24,5.127c-0.809,2.496-0.597,5.157,0.596,7.493
		c1.193,2.338,3.226,4.07,5.722,4.879c0.982,0.318,2.001,0.479,3.028,0.479c2.042,0,3.961-0.628,5.556-1.725
		c13.085,13.744,31.526,22.343,51.956,22.343c27.894,0,52.1-16.003,63.979-39.299c1.43,1.024,3.161,1.612,4.962,1.612
		c1.54,0,3.054-0.422,4.379-1.217c4.024-2.42,5.33-7.662,2.912-11.686c-0.877-1.46-1.864-2.559-3.305-3.675
		c-0.976-0.756-1.955-1.352-2.887-1.823c1.138-5.059,1.755-10.312,1.755-15.709c0-2.407-0.133-4.782-0.37-7.127
		c0.68-0.268,1.342-0.586,1.973-0.968C174.288,90.096,176.396,87.232,177.232,83.841z M171.559,122.752
		c1.567,2.611,0.725,5.999-1.887,7.568c-0.89,0.533-1.867,0.787-2.835,0.787c-1.319,0-2.608-0.482-3.621-1.364
		c0.003-0.005,0.006-0.011,0.008-0.016c-0.424-0.369-0.813-0.788-1.118-1.296c-1.935-3.217-0.49-7.164-0.375-8.404
		c0.309-1.655,0.354-3.069,0.354-3.069s0.041,0.005,0.088,0.01c0.009,0.001,0.018,0.003,0.027,0.004
		c0.068,0.009,0.167,0.022,0.293,0.044c0.005,0.001,0.012,0.002,0.017,0.003c0.264,0.044,0.641,0.119,1.1,0.239
		c0.006,0.002,0.011,0.003,0.017,0.005c0.694,0.184,1.576,0.475,2.54,0.925c0.02,0.009,0.04,0.019,0.06,0.027
		c0.316,0.15,0.642,0.315,0.972,0.502c0.588,0.331,1.19,0.721,1.79,1.186C170.109,120.773,170.855,121.582,171.559,122.752z
		 M168.688,89.88c-0.113,0.051-0.227,0.104-0.342,0.151c-0.328,0.135-0.661,0.251-0.997,0.349c-0.112,0.033-0.225,0.062-0.337,0.09
		c-0.349,0.089-0.7,0.164-1.053,0.214c-0.086,0.013-0.173,0.019-0.259,0.029c-0.352,0.041-0.703,0.066-1.054,0.07
		c-0.086,0.001-0.172,0.001-0.257,0c-0.459-0.009-0.916-0.052-1.368-0.121c0.129,0.902,0.234,1.812,0.327,2.725
		c0.221,2.175,0.345,4.379,0.345,6.613c0,4.797-0.526,9.469-1.501,13.974c-0.925,4.272-2.263,8.39-3.973,12.308l0,0
		c-10.146,23.255-33.329,39.515-60.322,39.515c-19.084,0-36.266-8.127-48.284-21.105c0.001-0.002,0.002-0.005,0.003-0.007
		c-0.811-0.876-1.604-1.77-2.367-2.688v0.001c0,0,0-0.001-0.001-0.001c-0.094,0.475-0.209,0.954-0.373,1.459
		c-0.127,0.394-0.292,0.765-0.48,1.117c-0.043,0.08-0.098,0.152-0.144,0.23c-0.157,0.266-0.322,0.523-0.51,0.761
		c-0.062,0.079-0.131,0.15-0.196,0.227c-0.194,0.224-0.397,0.438-0.616,0.634c-0.069,0.062-0.14,0.119-0.211,0.178
		c-0.234,0.192-0.479,0.37-0.736,0.53c-1.069,0.665-2.306,1.051-3.594,1.051c-0.697,0-1.405-0.107-2.104-0.334
		c-3.586-1.162-5.55-5.01-4.389-8.596c0.429-1.326,1.112-2.416,1.891-3.309c0,0.001,0,0.001,0.001,0.002
		c0.212-0.243,0.432-0.47,0.655-0.685c0.019-0.019,0.039-0.036,0.058-0.054c0.205-0.194,0.412-0.376,0.62-0.547
		c0.022-0.018,0.043-0.036,0.065-0.054c0.226-0.183,0.452-0.354,0.675-0.511c0.002-0.002,0.004-0.003,0.006-0.005
		c0.205-0.144,0.405-0.273,0.603-0.397c0.062-0.039,0.124-0.076,0.185-0.113c0.136-0.082,0.268-0.158,0.398-0.231
		c0.069-0.039,0.14-0.08,0.206-0.116c0.14-0.076,0.273-0.145,0.402-0.21c0.424-0.214,0.79-0.374,1.055-0.488
		c-0.45-0.79-0.878-1.591-1.296-2.4c-4.666-9.03-7.319-19.269-7.319-30.134c0.001-36.338,29.458-65.796,65.797-65.796
		c21.907,0,41.294,10.718,53.25,27.185c0.571,0.788,1.132,1.584,1.667,2.399c0.164,0.248,0.324,0.498,0.485,0.749
		c0.674,1.058,1.33,2.128,1.947,3.225v0l0,0c-0.08-1.7-0.38-2.77-0.524-3.199c-0.048-0.143-0.079-0.215-0.079-0.215
		s0.031,0.005,0.053,0.009c0.015,0.002,0.034,0.006,0.056,0.009c0.048,0.008,0.114,0.021,0.192,0.035
		c0.033,0.006,0.075,0.014,0.113,0.021c0.061,0.012,0.132,0.026,0.205,0.041c0.061,0.012,0.119,0.024,0.188,0.039
		c0.108,0.022,0.23,0.049,0.357,0.078c0.08,0.018,0.165,0.038,0.252,0.058c0.099,0.023,0.206,0.049,0.313,0.075
		c0.142,0.035,0.291,0.072,0.447,0.113c0.107,0.027,0.218,0.056,0.331,0.087c0.118,0.031,0.236,0.063,0.359,0.098
		c0.191,0.054,0.392,0.111,0.598,0.172c0.123,0.037,0.252,0.077,0.38,0.117c0.143,0.044,0.29,0.091,0.438,0.139
		c0.172,0.055,0.345,0.113,0.523,0.173c0.193,0.065,0.391,0.134,0.592,0.207c0.132,0.047,0.266,0.096,0.4,0.146
		c0.257,0.095,0.517,0.195,0.782,0.301c0.01,0.004,0.02,0.007,0.03,0.012l0,0c2.269,0.907,4.829,2.201,7.188,4.02
		c2.061,1.588,3.426,3.063,4.717,5.199c2.881,4.766,1.354,10.962-3.414,13.843C169.401,89.545,169.046,89.718,168.688,89.88z"/>
</g>
</svg>
