<?xml version="1.0" encoding="utf-8"?>
<!-- Generator: Adobe Illustrator 15.0.0, SVG Export Plug-In . SVG Version: 6.00 Build 0)  -->
<!DOCTYPE svg PUBLIC "-//W3C//DTD SVG 1.1//EN" "http://www.w3.org/Graphics/SVG/1.1/DTD/svg11.dtd">
<svg version="1.1" id="Layer_1" xmlns="http://www.w3.org/2000/svg" xmlns:xlink="http://www.w3.org/1999/xlink" x="0px" y="0px"
	 width="200px" height="200px" viewBox="0 0 200 200" enable-background="new 0 0 200 200" xml:space="preserve">
<g id="icon">
	<g id="Layer_2">
	</g>
	<g id="Layer_1_1_">
		<g>
			
				<radialGradient id="SVGID_1_" cx="247.9004" cy="-619.856" r="72.3335" fx="248.9299" fy="-613.3755" gradientTransform="matrix(1 0 0 -1 -150 -530)" gradientUnits="userSpaceOnUse">
				<stop  offset="0.3804" style="stop-color:#FFE300"/>
				<stop  offset="1" style="stop-color:#F7941E"/>
			</radialGradient>
			<circle fill="url(#SVGID_1_)" cx="93.648" cy="99.73" r="65.796"/>
			
				<radialGradient id="SVGID_2_" cx="272.4502" cy="-644.7285" r="30.329" gradientTransform="matrix(1 0 0 -1 -150 -530)" gradientUnits="userSpaceOnUse">
				<stop  offset="0.3804" style="stop-color:#FFE300"/>
				<stop  offset="1" style="stop-color:#F7941E"/>
			</radialGradient>
			<path fill="url(#SVGID_2_)" d="M145.152,130.775c2.545-0.441,5.054,1.942,5.054,1.942s1.846,6.357-2.947,10.796
				c-3.965,3.668-13.967,6.025-13.967,6.025s13.528-4.979,6.701-12.861C138.473,134.926,141.859,131.344,145.152,130.775z"/>
			
				<radialGradient id="SVGID_3_" cx="453.5684" cy="-1603.8394" r="31.7569" gradientTransform="matrix(1.0152 0.0969 -0.1396 -1.6985 -582.1273 -2643.3123)" gradientUnits="userSpaceOnUse">
				<stop  offset="0.3804" style="stop-color:#FFE300"/>
				<stop  offset="1" style="stop-color:#F7941E"/>
			</radialGradient>
			<path fill="url(#SVGID_3_)" d="M105.066,142.943c-17.053,0.842-29.649,3.272-39.68,5.822c-2.49,0.637-4.625-3.945-3.411-9.209
				c9.533-25.605,31.047-47.642,53.981-40.457c15.032,4.707,22.296,22.423,28.548,36.017c2.278,4.949,0.262,8.141-2.033,7.922
				C135.832,142.407,126.268,141.9,105.066,142.943z"/>
			<path fill="#603913" d="M104.973,140.186c-17.055,0.838-29.651,3.272-39.682,5.82c-2.49,0.635-4.624-3.945-3.409-9.21
				c9.531-25.606,31.045-47.641,53.979-40.453c15.031,4.707,22.296,22.425,28.549,36.017c2.277,4.951,0.261,8.144-2.034,7.923
				C135.736,139.646,126.171,139.141,104.973,140.186z"/>
			
				<radialGradient id="SVGID_4_" cx="356.2285" cy="-1620.1006" r="29.1088" gradientTransform="matrix(1.045 0.0904 -0.1341 -1.6997 -487.461 -2663.8933)" gradientUnits="userSpaceOnUse">
				<stop  offset="0" style="stop-color:#830000"/>
				<stop  offset="1" style="stop-color:#531C00"/>
			</radialGradient>
			<path fill="url(#SVGID_4_)" d="M104.646,138.814c-16.089,0.873-27.983,3.18-37.458,5.576c-2.352,0.596-4.342-3.596-3.168-8.425
				c9.124-23.536,29.693-44.188,51.289-37.741c14.151,4.226,20.75,20.75,26.575,33.173c2.123,4.526,0.203,7.463-1.959,7.275
				C133.667,138.137,124.646,137.732,104.646,138.814z"/>
			<path d="M98.405,136.854c-9.562,0.291-16.601,1.668-22.193,3.155c-1.389,0.372-2.657-2.6-2.055-5.954
				c4.965-16.285,16.803-30.322,29.791-25.383c8.511,3.237,12.768,14.93,16.483,23.736c1.354,3.209,0.271,5.227-1.021,5.053
				C115.673,136.957,110.294,136.494,98.405,136.854z"/>
			<path fill="#603913" d="M52.788,142.396c0,0,4.006,9.433,11.462,12.67c7.75,3.365,11.198,2.33,9.701,2.664
				S54.288,159.73,52.788,142.396z"/>
			<path fill="#603913" d="M138.27,148.082c0,0-5.742,1.438-6.192,1.46c-0.453,0.022,3.825,0.621,3.825,0.621L138.27,148.082z"/>
			<g>
				<g>
					<path fill="none" d="M149.645,88.409c-0.223,2.447-3.052,10.247,0.78,16.59c3.111,5.146,9.804,6.797,14.949,3.688
						c5.146-3.11,6.797-9.805,3.687-14.948c-1.395-2.307-2.869-3.9-5.094-5.615c-6.693-5.162-14.898-6.424-14.898-6.424
						S150.05,83.949,149.645,88.409z"/>
				</g>
				<path opacity="0.47" fill="#354C77" enable-background="new    " d="M149.473,90.153c-0.224,2.449-3.054,10.245,0.78,16.59
					c3.108,5.146,9.804,6.797,14.948,3.687c5.146-3.105,6.796-9.801,3.688-14.946c-1.396-2.31-2.871-3.9-5.094-5.615
					c-6.691-5.16-14.898-6.424-14.898-6.424S149.878,85.694,149.473,90.153z"/>
				
					<radialGradient id="SVGID_5_" cx="2694.5625" cy="-2181.4272" r="13.848" fx="2697.2522" fy="-2175.2605" gradientTransform="matrix(-0.7278 0.6859 -0.9491 -1.0071 44.9117 -3951.8237)" gradientUnits="userSpaceOnUse">
					<stop  offset="0.3252" style="stop-color:#03B1FF"/>
					<stop  offset="0.4464" style="stop-color:#03A8FF"/>
					<stop  offset="0.6464" style="stop-color:#038FFF"/>
					<stop  offset="0.7055" style="stop-color:#0386FF"/>
					<stop  offset="0.7975" style="stop-color:#03B1FF"/>
					<stop  offset="1" style="stop-color:#08FFFF"/>
				</radialGradient>
				<path fill="url(#SVGID_5_)" d="M149.645,88.409c-0.223,2.447-3.052,10.247,0.78,16.59c3.111,5.146,9.804,6.797,14.949,3.688
					c5.146-3.11,6.797-9.805,3.687-14.948c-1.395-2.307-2.869-3.9-5.094-5.615c-6.693-5.162-14.898-6.424-14.898-6.424
					S150.05,83.949,149.645,88.409z"/>
				
					<radialGradient id="SVGID_6_" cx="1744.623" cy="-2094.542" r="6.1465" gradientTransform="matrix(0.9753 -0.2209 -0.404 -1.7834 -2394.1157 -3252.2046)" gradientUnits="userSpaceOnUse">
					<stop  offset="0.5092" style="stop-color:#8AFFFF"/>
					<stop  offset="1" style="stop-color:#08DEFF;stop-opacity:0"/>
				</radialGradient>
				<path fill="url(#SVGID_6_)" d="M157.812,98.418c1.738,4.066,1.183,8.357-0.918,9.034c-2.186,0.705-5.854-1.588-7.209-5.797
					c-0.609-1.889-0.781-3.475-0.662-5.538c0.358-6.206,3.875-11.174,3.875-11.174S154.509,90.707,157.812,98.418z"/>
			</g>
			<g>
				<g>
					<path fill="none" d="M153.062,142.32c-0.354,1.195-2.527,4.791-1.248,8.32c1.037,2.861,4.197,4.344,7.062,3.309
						c2.862-1.037,4.345-4.199,3.308-7.062c-0.465-1.283-1.041-2.222-1.977-3.293c-2.816-3.226-6.207-4.218-6.207-4.218
						S153.703,140.146,153.062,142.32z"/>
				</g>
				
					<radialGradient id="SVGID_7_" cx="2958.1895" cy="-1544.875" r="6.7999" fx="2959.51" fy="-1541.8468" gradientTransform="matrix(-0.8474 0.531 -0.7348 -1.1726 1526.5703 -3236.7534)" gradientUnits="userSpaceOnUse">
					<stop  offset="0.3252" style="stop-color:#03B1FF"/>
					<stop  offset="0.4464" style="stop-color:#03A8FF"/>
					<stop  offset="0.6464" style="stop-color:#038FFF"/>
					<stop  offset="0.7055" style="stop-color:#0386FF"/>
					<stop  offset="0.7975" style="stop-color:#03B1FF"/>
					<stop  offset="1" style="stop-color:#08FFFF"/>
				</radialGradient>
				<path fill="url(#SVGID_7_)" d="M153.062,142.32c-0.354,1.195-2.527,4.791-1.248,8.32c1.037,2.861,4.197,4.344,7.062,3.309
					c2.862-1.037,4.345-4.199,3.308-7.062c-0.465-1.283-1.041-2.222-1.977-3.293c-2.816-3.226-6.207-4.218-6.207-4.218
					S153.703,140.146,153.062,142.32z"/>
				
					<radialGradient id="SVGID_8_" cx="1324.3672" cy="-1520.4253" r="3.1132" gradientTransform="matrix(0.9997 -0.0267 -0.0488 -1.8279 -1244.0103 -2596.5005)" gradientUnits="userSpaceOnUse">
					<stop  offset="0.5092" style="stop-color:#8AFFFF"/>
					<stop  offset="1" style="stop-color:#08DEFF;stop-opacity:0"/>
				</radialGradient>
				<path fill="url(#SVGID_8_)" d="M156.133,148.102c0.465,2.19-0.236,4.271-1.349,4.397c-1.154,0.135-2.75-1.368-3.009-3.593
					c-0.116-0.997-0.047-1.805,0.218-2.815c0.791-3.049,3.026-5.17,3.026-5.17S155.252,143.943,156.133,148.102z"/>
			</g>
			<g>
				<g>
					<path fill="none" d="M53.632,82.239c-2.175,1.144-9.141,4.771-10.876,11.978c-1.409,5.847,2.187,11.727,8.031,13.137
						c5.846,1.408,11.726-2.188,13.135-8.033c0.631-2.622,0.703-4.791,0.328-7.575c-1.127-8.377-1.431-12.372-1.431-12.372
						S57.841,80.028,53.632,82.239z"/>
				</g>
				<path opacity="0.47" fill="#354C77" enable-background="new    " d="M52.519,82.994c-1.881,1.584-9.376,5.134-11.113,12.342
					c-1.409,5.846,2.188,11.727,8.033,13.135c5.845,1.408,11.725-2.188,13.133-8.032c0.633-2.623,0.703-4.791,0.33-7.574
					c-1.129-8.375-1.961-13.014-1.961-13.014C64.345,79.395,53.145,82.468,52.519,82.994z"/>
				
					<radialGradient id="SVGID_9_" cx="4465.5801" cy="63.1816" r="13.3189" fx="4468.167" fy="69.1128" gradientTransform="matrix(-0.9997 -0.0243 0.0336 -1.3835 4515.9268 285.3102)" gradientUnits="userSpaceOnUse">
					<stop  offset="0.3252" style="stop-color:#03B1FF"/>
					<stop  offset="0.4464" style="stop-color:#03A8FF"/>
					<stop  offset="0.6464" style="stop-color:#038FFF"/>
					<stop  offset="0.7055" style="stop-color:#0386FF"/>
					<stop  offset="0.7975" style="stop-color:#03B1FF"/>
					<stop  offset="1" style="stop-color:#08FFFF"/>
				</radialGradient>
				<path fill="url(#SVGID_9_)" d="M52.97,82.602c-1.943,1.013-8.479,4.41-10.214,11.615c-1.409,5.847,2.187,11.727,8.031,13.137
					c5.846,1.408,11.726-2.188,13.135-8.033c0.631-2.622,0.703-4.791,0.328-7.575c-1.127-8.377-1.431-12.372-1.431-12.372
					S56.94,80.53,52.97,82.602z"/>
				
					<radialGradient id="SVGID_10_" cx="-650.3999" cy="-322.3711" r="6.1447" gradientTransform="matrix(0.8487 0.5289 0.9672 -1.5519 913.9893 -64.8992)" gradientUnits="userSpaceOnUse">
					<stop  offset="0.5092" style="stop-color:#8AFFFF"/>
					<stop  offset="1" style="stop-color:#08DEFF;stop-opacity:0"/>
				</radialGradient>
				<path fill="url(#SVGID_10_)" d="M52.635,94.734c-1.622,4.115-5.038,6.773-7.007,5.776c-2.047-1.035-3.041-5.244-1.046-9.19
					c0.895-1.772,1.888-3.019,3.423-4.402c4.621-4.157,10.614-5.218,10.614-5.218S55.71,86.929,52.635,94.734z"/>
			</g>
			<g>
				<g>
					<path fill="none" d="M42.409,138.085c-1.414,0.61-5.941,2.544-7.371,6.963c-1.162,3.586,0.803,7.433,4.389,8.595
						c3.584,1.162,7.431-0.805,8.593-4.391c0.521-1.607,0.67-2.96,0.568-4.718c-0.303-5.287-0.3-7.8-0.3-7.8
						S45.145,136.906,42.409,138.085z"/>
				</g>
				
					<radialGradient id="SVGID_11_" cx="4716.2207" cy="132.9775" r="8.3484" fx="4717.8423" fy="136.6952" gradientTransform="matrix(-0.9949 -0.1007 0.1394 -1.3768 4715.8433 800.7075)" gradientUnits="userSpaceOnUse">
					<stop  offset="0.3252" style="stop-color:#03B1FF"/>
					<stop  offset="0.4464" style="stop-color:#03A8FF"/>
					<stop  offset="0.6464" style="stop-color:#038FFF"/>
					<stop  offset="0.7055" style="stop-color:#0386FF"/>
					<stop  offset="0.7975" style="stop-color:#03B1FF"/>
					<stop  offset="1" style="stop-color:#08FFFF"/>
				</radialGradient>
				<path fill="url(#SVGID_11_)" d="M41.978,138.279c-1.263,0.539-5.51,2.35-6.94,6.769c-1.162,3.586,0.803,7.433,4.389,8.595
					c3.584,1.162,7.431-0.805,8.593-4.391c0.521-1.607,0.67-2.96,0.568-4.718c-0.303-5.287-0.3-7.8-0.3-7.8
					S44.559,137.177,41.978,138.279z"/>
				
					<radialGradient id="SVGID_12_" cx="-934.4292" cy="-319.5449" r="3.8513" gradientTransform="matrix(0.8058 0.5924 1.0831 -1.4734 1138.8799 226.2911)" gradientUnits="userSpaceOnUse">
					<stop  offset="0.5092" style="stop-color:#8AFFFF"/>
					<stop  offset="1" style="stop-color:#08DEFF;stop-opacity:0"/>
				</radialGradient>
				<path fill="url(#SVGID_12_)" d="M41.187,145.846c-1.211,2.492-3.473,3.991-4.656,3.273c-1.229-0.745-1.648-3.426-0.213-5.794
					c0.644-1.064,1.324-1.796,2.352-2.587c3.087-2.377,6.882-2.752,6.882-2.752S43.482,141.115,41.187,145.846z"/>
			</g>
			<path fill="#603913" d="M72,58.973c0,0,16.133,1.038,21.147,4.887c5.016,3.849,3.424,5.598-3.307,5.206
				c-19.565-1.14-30.15,8.981-28.047,2.229c2.103-6.753,16.688-5.75,9.391-7.266C63.886,62.513,68.123,58.616,72,58.973z"/>
			<path fill="#603913" d="M128.059,59.919c0,0-9.396,3.041-10.582,6.374c-1.184,3.333,6.244,1.008,13.578,2.425
				c11.358,2.195,16.211,6.269,14.416,1.75c-2.224-5.597-14.955-5.628-9.438-6.502C141.545,63.092,138.09,56.516,128.059,59.919z"/>
			
				<radialGradient id="SVGID_13_" cx="172.3164" cy="-1446.647" r="41.7304" gradientTransform="matrix(0.9962 -0.0877 -0.0489 -0.5556 -139.9554 -665.7402)" gradientUnits="userSpaceOnUse">
				<stop  offset="0.362" style="stop-color:#FF0000"/>
				<stop  offset="0.4176" style="stop-color:#F60000"/>
				<stop  offset="0.5079" style="stop-color:#DE0000"/>
				<stop  offset="0.6215" style="stop-color:#B70000"/>
				<stop  offset="0.7485" style="stop-color:#830000"/>
			</radialGradient>
			<path fill="url(#SVGID_13_)" d="M69.162,142.73c0,0,4.749-10.627,16.975-14.588c24.692-8,36.104,4.068,39.192,6.668
				c3.979,3.347-14.521,3.332-14.521,3.332S79.662,139.818,69.162,142.73z"/>
			
				<radialGradient id="SVGID_14_" cx="247.6436" cy="-637.3096" r="20.3436" gradientTransform="matrix(1 0 0 -1 -150 -530)" gradientUnits="userSpaceOnUse">
				<stop  offset="0" style="stop-color:#830000"/>
				<stop  offset="1" style="stop-color:#531C00"/>
			</radialGradient>
			<path fill="url(#SVGID_14_)" d="M88.994,109.439c0,0,5.258-0.758,5.058,2.36c-0.201,3.123-3.209,7.56,0.454,9.193
				c2.281,1.021,11.016-0.673,7.314-6.031c-3.588-5.192-3.899-6.873,0-8.3C105.719,105.236,94.108,102.979,88.994,109.439z"/>
		</g>
	</g>
</g>
<path id="outline_x5F_white" fill="#FFFFFF" d="M174.195,90.636c-1.188-1.962-2.48-3.591-4.078-5.125
	c-6.703-36.127-38.432-63.575-76.469-63.575c-42.897,0-77.796,34.899-77.796,77.796c0,16.165,4.959,31.189,13.43,43.642
	c-0.99,3.207-0.704,6.61,0.826,9.604c1.558,3.054,4.211,5.312,7.47,6.367c1.28,0.416,2.611,0.627,3.952,0.627
	c0.892,0,1.764-0.101,2.611-0.274c13.46,11.132,30.716,17.829,49.507,17.829c21,0,40.069-8.377,54.081-21.948
	c2.135,2.896,5.558,4.7,9.27,4.7c1.337,0,2.652-0.23,3.918-0.688c5.971-2.16,9.066-8.777,6.907-14.748
	c-0.705-1.945-1.661-3.549-3.101-5.193c-0.912-1.045-1.867-1.918-2.805-2.654c4.118-7.516,7.02-15.783,8.467-24.537
	C176.814,107.229,178.598,97.921,174.195,90.636z M162.184,146.887c0.324,0.895,0.402,1.818,0.269,2.698
	c-0.293,1.934-1.608,3.651-3.576,4.364c-0.283,0.103-0.568,0.173-0.855,0.228c-0.044,0.008-0.088,0.019-0.133,0.026
	c-0.271,0.044-0.543,0.066-0.813,0.069c-0.024,0.001-0.05,0.007-0.075,0.007c-0.034,0-0.066-0.007-0.1-0.007
	c-0.208-0.004-0.414-0.018-0.618-0.045c-0.026-0.004-0.052-0.004-0.078-0.008c-0.232-0.034-0.46-0.087-0.685-0.15
	c-0.042-0.012-0.083-0.024-0.124-0.037c-1.603-0.49-2.965-1.695-3.58-3.392c-1.279-3.529,0.894-7.125,1.248-8.32
	c0.641-2.174,0.938-2.944,0.938-2.944s2.827,0.833,5.463,3.434c0.021,0.021,0.042,0.04,0.062,0.062
	c0.229,0.229,0.458,0.466,0.682,0.723C161.143,144.665,161.719,145.604,162.184,146.887z M165.374,108.688
	c-2.113,1.276-4.485,1.738-6.767,1.498c-0.319,1.998-0.732,3.963-1.229,5.896c0.004,0.001,0.01,0.002,0.014,0.003
	c-0.271,1.056-0.574,2.095-0.896,3.127c-0.011,0.035-0.021,0.069-0.032,0.104c-0.59,1.89-1.262,3.742-2.015,5.555
	c-0.062,0.152-0.13,0.302-0.192,0.453c-0.295,0.693-0.601,1.382-0.919,2.064c-0.104,0.223-0.205,0.445-0.312,0.666
	c-0.373,0.779-0.758,1.553-1.16,2.315c-0.124,0.233-0.256,0.463-0.381,0.694c-0.207,0.382-0.411,0.766-0.625,1.142l-0.014-0.004
	c-0.182,0.319-0.353,0.646-0.539,0.963c0.312,1.504,0.994,6.603-3.052,10.349c-2.103,1.944-5.901,3.521-9.009,4.573
	c-0.066,0.062-0.139,0.12-0.206,0.183c-0.578,0.528-1.168,1.047-1.767,1.557c-0.17,0.145-0.34,0.289-0.51,0.433
	c-0.683,0.569-1.373,1.13-2.078,1.673c-0.027,0.021-0.058,0.041-0.084,0.062c-0.692,0.53-1.398,1.044-2.112,1.547
	c-0.149,0.106-0.3,0.212-0.451,0.315c-1.504,1.043-3.054,2.022-4.646,2.938c-0.141,0.08-0.279,0.16-0.42,0.24
	c-1.613,0.912-3.27,1.759-4.963,2.534c-0.139,0.063-0.275,0.127-0.414,0.188c-1.705,0.769-3.447,1.464-5.227,2.087
	c-0.145,0.051-0.29,0.1-0.436,0.15c-1.779,0.607-3.595,1.143-5.438,1.6c-0.157,0.039-0.315,0.077-0.474,0.115
	c-1.844,0.441-3.717,0.807-5.616,1.089c-0.171,0.025-0.341,0.05-0.511,0.074c-1.898,0.269-3.823,0.453-5.771,0.556
	c-0.181,0.01-0.362,0.019-0.544,0.025c-0.975,0.043-1.953,0.072-2.938,0.072c-1.043,0-2.08-0.029-3.112-0.078
	c-0.251-0.012-0.5-0.033-0.75-0.049c-0.767-0.043-1.531-0.096-2.291-0.168c-0.33-0.029-0.658-0.068-0.987-0.104
	c-0.679-0.072-1.355-0.154-2.028-0.249c-0.351-0.049-0.7-0.103-1.048-0.155c-0.655-0.103-1.305-0.216-1.954-0.336
	c-0.341-0.064-0.683-0.127-1.022-0.197c-0.676-0.137-1.346-0.289-2.014-0.447c-0.297-0.07-0.596-0.137-0.892-0.21
	c-0.819-0.207-1.63-0.431-2.437-0.668c-0.135-0.039-0.271-0.073-0.406-0.113c-0.947-0.285-1.884-0.591-2.812-0.917
	c-0.218-0.076-0.431-0.162-0.648-0.24c-0.697-0.253-1.391-0.513-2.077-0.789c-0.313-0.125-0.621-0.26-0.932-0.39
	c-0.586-0.246-1.169-0.497-1.746-0.759c-0.332-0.151-0.66-0.307-0.989-0.463c-0.554-0.264-1.104-0.533-1.649-0.812
	c-0.323-0.165-0.645-0.329-0.965-0.5c-0.56-0.297-1.113-0.604-1.664-0.917c-0.286-0.162-0.574-0.322-0.858-0.488
	c-0.64-0.377-1.27-0.768-1.895-1.164c-0.181-0.114-0.366-0.225-0.546-0.34c-0.823-0.535-1.634-1.084-2.431-1.652
	c-0.02-0.014-0.038-0.028-0.058-0.043c-0.667-0.478-1.328-0.965-1.976-1.465c0.001-0.004,0.003-0.008,0.004-0.014
	c-1.745-1.349-3.427-2.775-5.026-4.29c-0.097,0.568-0.226,1.138-0.421,1.741c-1.162,3.586-5.009,5.553-8.593,4.391
	c-3.586-1.162-5.551-5.009-4.389-8.595c1.111-3.434,3.918-5.288,5.709-6.198c-1.193-1.61-2.305-3.283-3.349-5.002
	c-0.005,0.002-0.011,0.006-0.016,0.008c-0.279-0.459-0.547-0.926-0.815-1.393c-0.008-0.014-0.016-0.027-0.024-0.041
	c-1.258-2.193-2.394-4.465-3.397-6.807c-0.041-0.096-0.08-0.191-0.12-0.287c-0.277-0.655-0.544-1.314-0.8-1.98
	c-0.062-0.162-0.124-0.326-0.185-0.488c-0.231-0.614-0.453-1.233-0.666-1.856c-0.061-0.179-0.123-0.356-0.183-0.537
	c-0.214-0.646-0.417-1.294-0.611-1.948c-0.043-0.146-0.089-0.289-0.132-0.435c-0.466-1.608-0.874-3.242-1.218-4.897
	c-0.034-0.162-0.062-0.324-0.094-0.484c-0.129-0.646-0.251-1.295-0.361-1.947c-0.045-0.266-0.084-0.531-0.126-0.798
	c-0.087-0.558-0.168-1.114-0.241-1.675c-0.039-0.303-0.075-0.604-0.11-0.905c-0.062-0.541-0.118-1.084-0.167-1.629
	c-0.027-0.306-0.056-0.608-0.08-0.914c-0.044-0.58-0.078-1.162-0.107-1.746c-0.013-0.267-0.031-0.53-0.042-0.799
	c-0.032-0.849-0.052-1.699-0.052-2.555c0-36.338,29.458-65.796,65.796-65.796c0.178,0,0.353,0.01,0.53,0.011
	c0.744,0.006,1.486,0.018,2.224,0.048c0.371,0.015,0.737,0.044,1.106,0.066c0.549,0.032,1.099,0.062,1.644,0.106
	c0.4,0.033,0.796,0.078,1.194,0.119c0.511,0.052,1.021,0.103,1.526,0.166c0.406,0.051,0.81,0.111,1.214,0.169
	c0.493,0.071,0.985,0.143,1.478,0.225c0.402,0.067,0.805,0.142,1.205,0.216c0.486,0.091,0.973,0.185,1.454,0.286
	c0.396,0.083,0.787,0.17,1.179,0.26c0.487,0.112,0.974,0.229,1.457,0.352c0.377,0.096,0.756,0.193,1.131,0.296
	c0.496,0.135,0.988,0.278,1.479,0.424c0.355,0.106,0.713,0.211,1.066,0.324c0.516,0.163,1.025,0.337,1.535,0.512
	c0.321,0.111,0.644,0.218,0.961,0.333c0.562,0.204,1.119,0.419,1.675,0.638c0.259,0.102,0.521,0.199,0.778,0.304
	c0.7,0.286,1.395,0.586,2.084,0.896c0.104,0.047,0.213,0.09,0.316,0.138c1.633,0.744,3.229,1.553,4.786,2.423
	c0.09,0.05,0.178,0.104,0.269,0.154c0.678,0.383,1.348,0.775,2.01,1.181c0.145,0.088,0.285,0.18,0.428,0.269
	c0.605,0.378,1.208,0.763,1.802,1.16c0.156,0.104,0.31,0.211,0.464,0.317c0.578,0.394,1.15,0.795,1.715,1.207
	c0.15,0.109,0.299,0.22,0.446,0.331c0.57,0.423,1.134,0.854,1.688,1.294c0.13,0.103,0.26,0.207,0.389,0.311
	c0.577,0.465,1.146,0.939,1.707,1.423c0.1,0.085,0.197,0.169,0.295,0.254c0.604,0.527,1.195,1.064,1.779,1.612
	c0.05,0.045,0.099,0.09,0.146,0.136c7.355,6.947,13.117,15.566,16.657,25.257c-0.013-0.004-0.022-0.007-0.033-0.01
	c0.86,2.355,1.603,4.769,2.192,7.242c2.068,0.928,4.275,2.147,6.342,3.74c2.225,1.715,3.699,3.308,5.094,5.615
	C172.171,98.884,170.52,105.577,165.374,108.688z"/>
<g id="outline_x5F_black">
	<path d="M171.626,92.188c-1.562-2.587-3.252-4.452-5.829-6.439c-0.669-0.516-1.352-0.984-2.037-1.43
		c-7.074-32.205-35.814-56.384-70.112-56.384c-39.589,0-71.796,32.208-71.796,71.796c0,14.979,4.617,28.897,12.495,40.417
		c-0.964,1.189-1.69,2.515-2.163,3.975c-0.809,2.496-0.597,5.158,0.596,7.494c1.193,2.337,3.226,4.068,5.722,4.878
		c0.982,0.317,2.001,0.479,3.028,0.479c2.295,0,4.438-0.795,6.137-2.156c12.465,10.422,28.5,16.709,45.981,16.709
		c22.064,0,41.827-10.012,55.006-25.723c-0.352,1.741-0.415,3.779,0.339,5.858c1.216,3.358,4.435,5.617,8.006,5.617
		c0.987,0,1.962-0.173,2.896-0.511c4.416-1.602,6.707-6.49,5.107-10.905c-0.58-1.604-1.339-2.872-2.537-4.244
		c-2.841-3.254-6.119-4.606-7.25-5.001c4.391-7.303,7.506-15.448,9.07-24.129c0.915-0.317,1.8-0.729,2.638-1.234
		C173.479,107.294,175.586,98.739,171.626,92.188z M160.206,143.594c0.937,1.071,1.512,2.01,1.978,3.293
		c1.037,2.863-0.445,6.025-3.309,7.062c-0.62,0.225-1.253,0.33-1.876,0.33c-2.256,0-4.373-1.396-5.187-3.639
		c-1.278-3.529,0.789-7.162,1.248-8.32c0.625-1.565,0.938-2.944,0.938-2.944S157.391,140.368,160.206,143.594z M165.374,108.688
		c-2.113,1.276-4.485,1.738-6.767,1.498c-0.159,0.996-0.344,1.985-0.547,2.967c0.002,0.002,0.006,0.003,0.008,0.003
		c-0.426,2.053-0.955,4.065-1.566,6.044c-0.025,0.087-0.057,0.172-0.084,0.259c-0.273,0.875-0.564,1.741-0.875,2.601
		c-0.043,0.118-0.089,0.235-0.132,0.354c-0.306,0.83-0.625,1.652-0.963,2.467c-0.05,0.118-0.099,0.235-0.148,0.354
		c-0.344,0.817-0.704,1.627-1.079,2.428c-0.048,0.102-0.096,0.201-0.144,0.302c-0.394,0.825-0.802,1.642-1.228,2.446
		c-0.035,0.066-0.07,0.135-0.105,0.201c-0.455,0.854-0.928,1.695-1.417,2.525c-0.007,0.012-0.013,0.021-0.019,0.032
		c0.312,1.504,0.996,6.603-3.051,10.349c-2.104,1.944-5.902,3.521-9.009,4.573c-0.033,0.03-0.067,0.06-0.101,0.089
		c-0.666,0.611-1.344,1.209-2.033,1.793c-0.053,0.045-0.104,0.09-0.157,0.135c-3.802,3.197-7.967,5.975-12.431,8.254
		c-0.01,0.005-0.019,0.009-0.026,0.014c-0.854,0.436-1.722,0.854-2.597,1.252c-0.141,0.062-0.284,0.124-0.428,0.188
		c-0.746,0.334-1.498,0.656-2.26,0.963c-0.215,0.088-0.432,0.17-0.648,0.254c-0.693,0.271-1.393,0.533-2.098,0.781
		c-0.264,0.092-0.529,0.182-0.794,0.271c-0.667,0.226-1.337,0.438-2.013,0.644c-0.297,0.09-0.596,0.178-0.893,0.262
		c-0.655,0.188-1.313,0.365-1.977,0.531c-0.318,0.08-0.636,0.16-0.956,0.236c-0.655,0.154-1.315,0.297-1.979,0.432
		c-0.328,0.067-0.653,0.137-0.983,0.198c-0.671,0.126-1.347,0.237-2.024,0.343c-0.324,0.051-0.646,0.105-0.974,0.151
		c-0.711,0.101-1.428,0.183-2.146,0.259c-0.295,0.031-0.588,0.07-0.885,0.098c-0.818,0.078-1.643,0.133-2.47,0.179
		c-0.199,0.012-0.395,0.03-0.594,0.04c-1.04,0.049-2.086,0.076-3.138,0.076c-1.073,0-2.139-0.028-3.2-0.079
		c-0.206-0.011-0.409-0.03-0.615-0.042c-0.839-0.049-1.676-0.104-2.506-0.184c-0.318-0.031-0.633-0.074-0.95-0.108
		c-0.712-0.079-1.424-0.16-2.13-0.263c-0.361-0.052-0.719-0.115-1.078-0.172c-0.655-0.104-1.309-0.214-1.957-0.338
		c-0.379-0.072-0.754-0.154-1.131-0.234c-0.623-0.131-1.244-0.266-1.86-0.414c-0.384-0.092-0.765-0.19-1.146-0.291
		c-0.602-0.155-1.201-0.317-1.796-0.49c-0.382-0.111-0.763-0.229-1.142-0.346c-0.586-0.183-1.168-0.371-1.748-0.569
		c-0.376-0.129-0.75-0.26-1.123-0.396c-0.577-0.209-1.149-0.428-1.719-0.651c-0.362-0.144-0.724-0.286-1.083-0.437
		c-0.575-0.238-1.144-0.488-1.711-0.742c-0.342-0.154-0.685-0.307-1.024-0.465c-0.581-0.273-1.154-0.561-1.726-0.85
		c-0.314-0.159-0.63-0.312-0.94-0.479c-0.604-0.317-1.198-0.65-1.791-0.986c-0.267-0.151-0.538-0.297-0.803-0.452
		c-0.675-0.396-1.339-0.81-1.999-1.228c-0.172-0.108-0.348-0.211-0.518-0.321c-1.687-1.093-3.321-2.261-4.896-3.497
		c-0.027-0.021-0.053-0.044-0.079-0.064c-0.677-0.533-1.346-1.076-2-1.635c0.001-0.004,0.001-0.008,0.003-0.012
		c-0.865-0.737-1.714-1.491-2.54-2.271c-0.097,0.567-0.226,1.137-0.421,1.74c-0.817,2.521-2.965,4.238-5.414,4.633
		c-0.051,0.008-0.101,0.014-0.152,0.021c-0.277,0.037-0.557,0.062-0.839,0.064c-0.029,0-0.056,0.006-0.085,0.006
		c-0.01,0-0.02-0.002-0.029-0.002c-0.304-0.002-0.611-0.027-0.917-0.07c-0.074-0.012-0.147-0.023-0.221-0.036
		c-0.312-0.056-0.625-0.124-0.936-0.226c-0.224-0.071-0.442-0.156-0.653-0.248c-3.167-1.394-4.825-4.983-3.736-8.347
		c1.111-3.434,3.918-5.288,5.709-6.198c-0.597-0.807-1.169-1.629-1.729-2.463c-0.004,0.002-0.007,0.004-0.011,0.006
		c-0.385-0.574-0.758-1.155-1.125-1.742c-0.005-0.008-0.011-0.017-0.016-0.023c-1.349-2.152-2.577-4.388-3.674-6.695
		c-0.051-0.107-0.098-0.217-0.147-0.322c-0.301-0.644-0.594-1.289-0.875-1.943c-0.087-0.203-0.169-0.409-0.254-0.613
		c-0.234-0.562-0.465-1.125-0.684-1.693c-0.098-0.256-0.191-0.514-0.286-0.771c-0.195-0.525-0.386-1.052-0.567-1.582
		c-0.099-0.289-0.192-0.58-0.287-0.869c-0.165-0.507-0.325-1.014-0.478-1.523c-0.094-0.312-0.184-0.627-0.272-0.941
		c-0.141-0.495-0.275-0.992-0.404-1.492c-0.085-0.33-0.168-0.66-0.248-0.992c-0.119-0.492-0.231-0.988-0.338-1.485
		c-0.074-0.34-0.147-0.681-0.215-1.022c-0.099-0.498-0.19-0.998-0.278-1.498c-0.061-0.347-0.123-0.689-0.178-1.037
		c-0.081-0.508-0.151-1.02-0.22-1.531c-0.047-0.344-0.097-0.688-0.138-1.033c-0.063-0.53-0.113-1.064-0.164-1.6
		c-0.031-0.33-0.067-0.658-0.094-0.989c-0.046-0.589-0.078-1.183-0.109-1.774c-0.015-0.279-0.037-0.56-0.047-0.842
		c-0.035-0.876-0.054-1.755-0.054-2.639l0,0l0,0c0-36.338,29.458-65.796,65.796-65.796c0.357,0,0.71,0.018,1.065,0.023
		c0.583,0.009,1.167,0.014,1.747,0.038c0.439,0.018,0.874,0.054,1.311,0.081c0.499,0.031,0.999,0.056,1.495,0.097
		c0.449,0.038,0.893,0.092,1.338,0.139c0.479,0.05,0.957,0.095,1.434,0.156c0.447,0.057,0.893,0.129,1.338,0.195
		c0.467,0.069,0.936,0.134,1.398,0.213c0.444,0.076,0.886,0.165,1.326,0.25c0.459,0.088,0.918,0.172,1.373,0.27
		c0.438,0.094,0.873,0.2,1.309,0.303c0.451,0.106,0.904,0.21,1.352,0.326c0.432,0.111,0.855,0.232,1.283,0.352
		c0.445,0.125,0.893,0.25,1.335,0.383c0.422,0.128,0.839,0.265,1.257,0.4c0.439,0.144,0.881,0.287,1.317,0.439
		c0.411,0.144,0.817,0.294,1.225,0.446c0.437,0.162,0.872,0.325,1.304,0.497c0.399,0.158,0.795,0.322,1.191,0.488
		c0.432,0.181,0.859,0.364,1.287,0.554c0.387,0.172,0.771,0.349,1.154,0.528c0.428,0.2,0.854,0.404,1.274,0.613
		c0.373,0.185,0.744,0.373,1.113,0.564c0.424,0.22,0.846,0.445,1.265,0.673c0.357,0.196,0.715,0.395,1.067,0.596
		c0.422,0.241,0.84,0.487,1.256,0.737c0.341,0.205,0.681,0.411,1.019,0.622c0.42,0.263,0.836,0.532,1.25,0.805
		c0.321,0.212,0.645,0.424,0.963,0.642c0.42,0.287,0.836,0.582,1.248,0.878c0.303,0.217,0.604,0.433,0.903,0.655
		c0.421,0.313,0.837,0.635,1.25,0.958c0.279,0.218,0.56,0.434,0.835,0.657c0.428,0.345,0.846,0.698,1.264,1.053
		c0.252,0.214,0.507,0.425,0.754,0.642c0.438,0.383,0.867,0.777,1.294,1.171c0.218,0.201,0.438,0.398,0.653,0.604
		c0.457,0.434,0.903,0.878,1.349,1.324c0.176,0.176,0.354,0.348,0.528,0.526c0.496,0.51,0.98,1.031,1.461,1.557
		c0.111,0.123,0.229,0.242,0.34,0.366c0.584,0.649,1.156,1.312,1.714,1.983c0.004,0.004,0.007,0.007,0.011,0.011
		c2.296,2.769,4.369,5.73,6.193,8.854c0.008,0.014,0.016,0.028,0.023,0.042c0.44,0.757,0.866,1.523,1.277,2.299
		c0.041,0.078,0.08,0.158,0.121,0.236c0.375,0.714,0.738,1.435,1.089,2.165c0.056,0.116,0.106,0.235,0.162,0.351
		c0.328,0.695,0.646,1.396,0.95,2.104c0.062,0.144,0.119,0.289,0.181,0.434c0.289,0.687,0.569,1.377,0.835,2.076
		c0.062,0.163,0.12,0.327,0.182,0.491c0.254,0.685,0.5,1.374,0.732,2.069c0.061,0.177,0.115,0.356,0.173,0.534
		c0.146,0.445,0.298,0.886,0.433,1.335c-0.008-0.003-0.017-0.006-0.023-0.009c0.363,1.206,0.705,2.421,1,3.655
		c2.068,0.928,4.275,2.147,6.342,3.74c0.711,0.547,1.338,1.084,1.917,1.634c0.009,0.008,0.017,0.016,0.024,0.023
		c0.396,0.377,0.768,0.763,1.119,1.163c0.02,0.021,0.039,0.044,0.058,0.066c0.345,0.396,0.675,0.807,0.991,1.243
		c0.018,0.024,0.033,0.05,0.052,0.075c0.317,0.444,0.629,0.908,0.933,1.411C172.171,98.884,170.52,105.577,165.374,108.688z"/>
</g>
</svg>
