<?xml version="1.0" encoding="utf-8"?>
<!-- Generator: Adobe Illustrator 15.0.0, SVG Export Plug-In . SVG Version: 6.00 Build 0)  -->
<!DOCTYPE svg PUBLIC "-//W3C//DTD SVG 1.1//EN" "http://www.w3.org/Graphics/SVG/1.1/DTD/svg11.dtd">
<svg version="1.1" xmlns="http://www.w3.org/2000/svg" xmlns:xlink="http://www.w3.org/1999/xlink" x="0px" y="0px" width="200px"
	 height="200px" viewBox="0 0 200 200" enable-background="new 0 0 200 200" xml:space="preserve">
<g id="icon">
	<g id="Layer_2">
	</g>
	<g id="Layer_1_1_">
		<g>
			
				<radialGradient id="SVGID_1_" cx="204.8789" cy="676.126" r="72.3341" fx="205.4216" fy="680.7856" gradientTransform="matrix(1 0 0 1 -100 -591)" gradientUnits="userSpaceOnUse">
				<stop  offset="0.3804" style="stop-color:#FFE300"/>
				<stop  offset="1" style="stop-color:#F7941E"/>
			</radialGradient>
			<circle fill="url(#SVGID_1_)" cx="99.126" cy="100" r="65.796"/>
			
				<radialGradient id="SVGID_2_" cx="213.2363" cy="709.001" r="73.3353" gradientTransform="matrix(1 0 0 1 -100 -591)" gradientUnits="userSpaceOnUse">
				<stop  offset="0.3804" style="stop-color:#FFE300"/>
				<stop  offset="1" style="stop-color:#F7941E"/>
			</radialGradient>
			<path fill="url(#SVGID_2_)" d="M112.736,122.166c-19.441,1.098-43.693-5.333-54.167-17.247
				c0.666,34.741,23.018,58.076,49.676,58.081c31.323,0.006,51.797-28.805,52.356-58.868
				C153.109,113.878,136.385,120.832,112.736,122.166z"/>
			<path fill="#603913" d="M115.236,118.5c-19.441,1.098-42.167-2.833-56-15.833c0.561,30.065,23.031,56.492,49.01,56.492
				c25.979,0,52.656-25.992,52.656-61.492C153.408,107.413,138.885,117.166,115.236,118.5z"/>
			
				<radialGradient id="SVGID_3_" cx="207.4131" cy="716.373" r="42.1576" gradientTransform="matrix(1 0 0 1 -100 -591)" gradientUnits="userSpaceOnUse">
				<stop  offset="0" style="stop-color:#FFFFFF"/>
				<stop  offset="0.3806" style="stop-color:#FDFDFE"/>
				<stop  offset="0.5705" style="stop-color:#F5F8F9"/>
				<stop  offset="0.7181" style="stop-color:#E8EEF1"/>
				<stop  offset="0.844" style="stop-color:#D5E0E5"/>
				<stop  offset="0.955" style="stop-color:#BDCED6"/>
				<stop  offset="1" style="stop-color:#B1C5CF"/>
			</radialGradient>
			<path fill="url(#SVGID_3_)" d="M112.736,122.166c-19.441,1.098-41.667-5.333-52.14-17.247
				c0.562,30.065,21.671,54.24,47.649,54.24c25.978,0,47.088-24.175,47.649-54.239C148.4,114.666,136.385,120.832,112.736,122.166z"
				/>
			<path fill="#603913" d="M105.393,93.299c-0.496-8.396-6-14.758-12.292-14.211c-6.291,0.548-10.99,7.798-10.493,16.194
				c0.496,8.397,6,14.759,12.291,14.212C101.189,108.945,105.889,101.695,105.393,93.299z M90.797,94.282
				c-1.915,0.167-3.59-1.77-3.741-4.325c-0.15-2.554,1.279-4.76,3.192-4.927c1.915-0.167,3.59,1.77,3.741,4.323
				C94.14,91.909,92.711,94.115,90.797,94.282z"/>
			<path fill="#603913" d="M147.467,91.044c0.018-7.328-4.422-13.284-9.914-13.301c-5.492-0.019-9.957,5.91-9.974,13.236
				c-0.017,7.33,4.422,13.287,9.915,13.304C142.986,104.3,147.451,98.374,147.467,91.044z M134.742,90.753
				c-1.672-0.005-3.021-1.815-3.018-4.048c0.006-2.229,1.362-4.032,3.032-4.027c1.673,0.006,3.021,1.818,3.019,4.048
				C137.771,88.956,136.411,90.759,134.742,90.753z"/>
			<path fill="#607782" d="M61.561,114.895c0,0,1.559,12.143,21.51,19.771c14.658,5.605,28,4.834,28,4.834s-10,0.835-24.333-1.309
				c-12.82-1.918-19.689-6.597-19.689-6.597S62.473,123.283,61.561,114.895z"/>
			<path fill="#607782" d="M131.111,136.975c0,0,11.728-2.309,17.625-9.248c5.445-6.408,5.828-9.248,5.828-9.248
				s-1.35,5.314-2.629,8.084c-1.283,2.768-1.809,3.984-1.809,3.984S139.17,136.1,131.111,136.975z"/>
			<path fill="#603913" d="M66.902,101.667c0,0-8.999-0.496-13.332,3.252c-4.334,3.748,0.666,0.119,2.832,0.185
				c2.168,0.063,6-2.34,10.5-0.972s3.834,1.534,4.5,1.368C72.07,105.334,71.736,102.334,66.902,101.667z"/>
			<path fill="#603913" d="M162.292,99.96c0,0-0.687-3.786-4.706-2.689c-4.02,1.096-2.252,2.514-0.41,1.667
				C159.018,98.089,162.292,99.96,162.292,99.96z"/>
			
				<radialGradient id="SVGID_4_" cx="236.0977" cy="670.7051" r="40.075" gradientTransform="matrix(1 0 0 1 -100.0952 -591.0371)" gradientUnits="userSpaceOnUse">
				<stop  offset="0.3804" style="stop-color:#FFE300"/>
				<stop  offset="1" style="stop-color:#F7941E"/>
			</radialGradient>
			<path fill="url(#SVGID_4_)" d="M153.236,87.829c1.014-2.641,4.666-3.662,4.666-3.662s7.02,1.833,8.5,8.834
				c1.227,5.79-2.168,16.524-2.168,16.524s2.91-15.524-8.34-13.525C153.391,96.445,151.923,91.246,153.236,87.829z"/>
			
				<radialGradient id="SVGID_5_" cx="165.8496" cy="660.5518" r="46.953" gradientTransform="matrix(1 0 0 1 -100 -591)" gradientUnits="userSpaceOnUse">
				<stop  offset="0.3804" style="stop-color:#FFE300"/>
				<stop  offset="1" style="stop-color:#F7941E"/>
			</radialGradient>
			<path fill="url(#SVGID_5_)" d="M78.07,104.132c0,0-4.334-16.132-11-16.299c-6.668-0.167-16.586,4.427-19.334,14.501
				c-4,14.666,1.333,3.167,11.5,0.333c10.166-2.834,12.834,1.338,15,2.252S78.07,104.132,78.07,104.132z"/>
			<path fill="#603913" d="M93.889,61.622c3.597,0,6.809,1.362,8.925,3.495c-1.312-3.691-4.808-6.34-8.925-6.34
				c-4.12,0-7.616,2.648-8.926,6.34C87.079,62.984,90.291,61.622,93.889,61.622z"/>
			<path fill="#603913" d="M135.627,64.813c3.598-0.237,6.811,0.913,8.926,2.907c-1.31-3.604-4.806-6.021-8.926-5.752
				c-4.119,0.271-7.615,3.15-8.925,6.928C128.818,66.625,132.029,65.051,135.627,64.813z"/>
		</g>
	</g>
</g>
<g id="outline_x5F_white">
	<g>
		<g>
			<path fill="#FFFFFF" d="M99.126,34.204c32.188,0,58.962,23.121,64.659,53.658c1.156,1.278,2.156,2.957,2.617,5.139
				c1.227,5.79-2.168,16.524-2.168,16.524s0.148-0.812,0.25-2.031c-3.723,32.808-31.558,58.302-65.358,58.302
				c-36.339,0-65.796-29.457-65.796-65.796C33.33,63.662,62.787,34.204,99.126,34.204 M99.126,22.204
				C56.229,22.204,21.33,57.103,21.33,100c0,42.896,34.899,77.796,77.796,77.796c38.437,0,70.867-27.93,76.815-65.517
				c1.209-4.034,3.812-14.147,2.201-21.764c-0.59-2.785-1.645-5.359-3.146-7.689C167.055,47.527,135.6,22.204,99.126,22.204
				L99.126,22.204z"/>
		</g>
	</g>
</g>
<g id="outline_x5F_black">
	<g>
		<path d="M99.126,34.204c32.188,0,58.962,23.121,64.659,53.658c1.156,1.278,2.156,2.957,2.617,5.139
			c1.227,5.79-2.168,16.524-2.168,16.524s0.148-0.812,0.25-2.031c-3.723,32.808-31.558,58.302-65.358,58.302
			c-36.339,0-65.796-29.457-65.796-65.796C33.33,63.662,62.787,34.204,99.126,34.204 M99.126,28.204
			C59.537,28.204,27.33,60.412,27.33,100c0,39.589,32.208,71.796,71.796,71.796c35.606,0,65.63-25.97,70.952-60.854
			c0.844-2.758,3.595-12.569,2.195-19.183c-0.508-2.395-1.479-4.577-2.892-6.511C162.465,52.102,133.163,28.204,99.126,28.204
			L99.126,28.204z"/>
	</g>
</g>
</svg>
