<?xml version="1.0" encoding="utf-8"?>
<!-- Generator: Adobe Illustrator 15.0.0, SVG Export Plug-In . SVG Version: 6.00 Build 0)  -->
<!DOCTYPE svg PUBLIC "-//W3C//DTD SVG 1.1//EN" "http://www.w3.org/Graphics/SVG/1.1/DTD/svg11.dtd">
<svg version="1.1" xmlns="http://www.w3.org/2000/svg" xmlns:xlink="http://www.w3.org/1999/xlink" x="0px" y="0px" width="200px"
	 height="200px" viewBox="0 0 200 200" enable-background="new 0 0 200 200" xml:space="preserve">
<g id="icon">
	<g id="Layer_2">
	</g>
	<g id="Layer_1_1_">
		<g>
			
				<radialGradient id="SVGID_1_" cx="199.4062" cy="681.126" r="72.3337" fx="200.4589" fy="690.7814" gradientTransform="matrix(1 0 0 1 -100 -591)" gradientUnits="userSpaceOnUse">
				<stop  offset="0.3804" style="stop-color:#FFE300"/>
				<stop  offset="1" style="stop-color:#F7941E"/>
			</radialGradient>
			<circle fill="url(#SVGID_1_)" cx="95.151" cy="100" r="65.796"/>
			<path fill="#603913" d="M101.418,93.299c-0.497-8.396-6-14.758-12.292-14.211c-6.291,0.548-10.99,7.798-10.493,16.194
				c0.496,8.397,6,14.759,12.291,14.212C97.216,108.945,101.914,101.695,101.418,93.299z M86.822,94.282
				c-1.915,0.167-3.59-1.77-3.741-4.325c-0.15-2.554,1.279-4.76,3.192-4.927c1.915-0.167,3.59,1.77,3.74,4.323
				C90.165,91.909,88.736,94.115,86.822,94.282z"/>
			<path fill="#603913" d="M88.782,68.265c3.597,0,6.81,1.362,8.925,3.495c-1.309-3.691-4.805-6.34-8.925-6.34
				c-4.12,0-7.616,2.648-8.925,6.34C81.973,69.627,85.186,68.265,88.782,68.265z"/>
			<path fill="#603913" d="M132.521,67.981c3.598-0.237,6.809,0.913,8.926,2.907c-1.312-3.605-4.807-6.023-8.926-5.752
				c-4.119,0.271-7.615,3.15-8.926,6.928C125.713,69.793,128.924,68.219,132.521,67.981z"/>
			<path fill="#603913" d="M129.441,85.302c0,0-7.205,6.76-6.854,10.28c0.353,3.518,6.078-1.753,13.315-3.599
				c11.211-2.859,17.336-1.245,13.785-4.566c-4.397-4.113-15.929,1.288-11.312-1.854C142.994,82.42,137.064,77.944,129.441,85.302z"
				/>
			<path fill="#603913" d="M128.049,107.966c0,0,15.422,6.25,5.932,11.054c-3.889,1.971-7.393,1.762-7.393,1.762
				s6.887-0.896,8.707,4.58c1.82,5.479-0.318,8.31-5.938,11.283c0,0,12.05-1.586,14.731-10.679c1.443-4.891-4.291-6.25-4.291-6.25
				S155.049,112.716,128.049,107.966z"/>
			<g>
				<g>
					
						<radialGradient id="SVGID_2_" cx="-2712.3628" cy="-757.9883" r="25.8029" gradientTransform="matrix(-0.8301 0.6514 -0.7276 -0.7347 -2635.9304 1315.5311)" gradientUnits="userSpaceOnUse">
						<stop  offset="0" style="stop-color:#FF0000"/>
						<stop  offset="0.1377" style="stop-color:#F50000"/>
						<stop  offset="0.3732" style="stop-color:#DA0000"/>
						<stop  offset="0.678" style="stop-color:#AD0000"/>
						<stop  offset="1" style="stop-color:#770000"/>
					</radialGradient>
					<path fill="url(#SVGID_2_)" d="M167.71,117.775c1.009-0.943,1.833-2.17,2.354-3.603c1.582-4.333-0.188-8.942-3.953-10.307
						c-1.867-0.675-3.873-0.423-5.614,0.53c0,0-1.601-3.179-4.81-4.297c-3.787-1.321-8.102,1.049-9.682,5.377
						c-0.521,1.422-0.677,2.871-0.521,4.229c0.992,8.747,7.106,15.041,7.106,15.041S161.252,123.824,167.71,117.775z"/>
				</g>
				<g opacity="0.3">
					<g>
						<path fill="#8A0036" d="M167.71,117.775c0.351-0.327,0.675-0.69,0.978-1.084c-6.484,6.543-14.887,5.937-14.887,5.937
							s-5.379-4.926-6.822-12.446c-1.232-6.432,3.573-11.607,9.242-9.854c-0.174-0.082-0.35-0.157-0.533-0.225
							c-3.766-1.361-8.1,1.049-9.68,5.377c-0.52,1.422-0.677,2.871-0.521,4.229c0.992,8.747,7.107,15.041,7.107,15.041
							S161.252,123.824,167.71,117.775z"/>
					</g>
				</g>
				<g opacity="0.87">
					
						<radialGradient id="SVGID_3_" cx="-2062.2949" cy="-58.4287" r="22.5008" gradientTransform="matrix(0.5294 0.7737 -0.7202 0.4149 1211.2747 1729.6562)" gradientUnits="userSpaceOnUse">
						<stop  offset="0" style="stop-color:#FFFFFF;stop-opacity:0"/>
						<stop  offset="0.1274" style="stop-color:#FDFCFD;stop-opacity:0.061"/>
						<stop  offset="0.2308" style="stop-color:#F6F2F5;stop-opacity:0.1105"/>
						<stop  offset="0.3258" style="stop-color:#EAE1E8;stop-opacity:0.1559"/>
						<stop  offset="0.4158" style="stop-color:#D9C9D6;stop-opacity:0.199"/>
						<stop  offset="0.5022" style="stop-color:#C3AABE;stop-opacity:0.2404"/>
						<stop  offset="0.586" style="stop-color:#A884A1;stop-opacity:0.2805"/>
						<stop  offset="0.6677" style="stop-color:#89567F;stop-opacity:0.3196"/>
						<stop  offset="0.7457" style="stop-color:#652358;stop-opacity:0.3569"/>
						<stop  offset="0.7939" style="stop-color:#4C003D;stop-opacity:0.38"/>
						<stop  offset="1" style="stop-color:#FFFFFF;stop-opacity:0"/>
					</radialGradient>
					<path fill="url(#SVGID_3_)" d="M167.71,117.775c1.009-0.943,1.833-2.17,2.354-3.603c1.582-4.333-0.188-8.942-3.953-10.307
						c-2.092-0.757-4.355-0.351-6.229,0.903c-0.631-2.153-2.104-3.916-4.194-4.67c-3.767-1.361-8.101,1.049-9.681,5.377
						c-0.521,1.422-0.677,2.871-0.521,4.229c0.992,8.747,7.105,15.041,7.105,15.041S161.252,123.824,167.71,117.775z"/>
				</g>
				
					<radialGradient id="SVGID_4_" cx="-2060.7832" cy="-65.4565" r="11.8732" gradientTransform="matrix(0.5294 0.7737 -0.9271 0.5341 1200.5476 1735.8363)" gradientUnits="userSpaceOnUse">
					<stop  offset="0" style="stop-color:#FF72A9"/>
					<stop  offset="1" style="stop-color:#FF72A9;stop-opacity:0"/>
				</radialGradient>
				<path fill="url(#SVGID_4_)" d="M167.588,114.611c-2.795,1.608-6.629,0.625-8.562-2.201c-1.932-2.823-1.23-6.42,1.563-8.028
					s6.628-0.625,8.56,2.201C171.082,109.406,170.382,113.001,167.588,114.611z"/>
				
					<radialGradient id="SVGID_5_" cx="-2073.6021" cy="-61.5537" r="14.0627" gradientTransform="matrix(0.5294 0.7737 -0.9271 0.5341 1200.5476 1735.8363)" gradientUnits="userSpaceOnUse">
					<stop  offset="0" style="stop-color:#FF72A9"/>
					<stop  offset="1" style="stop-color:#FF72A9;stop-opacity:0"/>
				</radialGradient>
				<path fill="url(#SVGID_5_)" d="M158.029,111.407c-2.793,1.606-6.627,0.623-8.562-2.201c-1.932-2.824-1.23-6.418,1.562-8.029
					c2.796-1.611,6.629-0.625,8.561,2.196C161.523,106.2,160.824,109.796,158.029,111.407z"/>
				
					<radialGradient id="SVGID_6_" cx="-2060.2817" cy="-64.8906" r="11.8719" gradientTransform="matrix(0.5294 0.7737 -0.9271 0.5341 1200.5476 1735.8363)" gradientUnits="userSpaceOnUse">
					<stop  offset="0" style="stop-color:#FFC29A"/>
					<stop  offset="1" style="stop-color:#FF723A;stop-opacity:0"/>
				</radialGradient>
				<path fill="url(#SVGID_6_)" d="M167.324,115.303c-2.795,1.608-6.627,0.624-8.561-2.199c-1.935-2.823-1.234-6.42,1.562-8.028
					c2.797-1.613,6.629-0.626,8.562,2.198C170.818,110.098,170.119,113.693,167.324,115.303z"/>
				
					<radialGradient id="SVGID_7_" cx="-2073.103" cy="-60.9834" r="14.0568" gradientTransform="matrix(0.5294 0.7737 -0.9271 0.5341 1200.5476 1735.8363)" gradientUnits="userSpaceOnUse">
					<stop  offset="0" style="stop-color:#FFC29A"/>
					<stop  offset="1" style="stop-color:#FF723A;stop-opacity:0"/>
				</radialGradient>
				<path fill="url(#SVGID_7_)" d="M157.768,112.094c-2.795,1.612-6.627,0.626-8.561-2.197c-1.932-2.823-1.232-6.42,1.562-8.027
					c2.795-1.61,6.627-0.627,8.561,2.199C161.262,106.891,160.562,110.484,157.768,112.094z"/>
			</g>
		</g>
	</g>
</g>
<g id="outline_x5F_white">
	<path fill="#FFFFFF" d="M180.755,102.329c-1.749-3.747-4.576-6.72-8.083-8.611c-3.213-39.967-36.741-71.514-77.521-71.514
		c-42.897,0-77.796,34.899-77.796,77.796c0,42.896,34.899,77.796,77.796,77.796c30.944,0,57.721-18.164,70.244-44.387
		c3.414-1.515,7.138-3.707,10.52-6.873c2.398-2.247,4.275-5.099,5.426-8.246C183.255,113.046,183.042,107.229,180.755,102.329z
		 M170.064,114.173c-0.521,1.433-1.346,2.659-2.354,3.603c-3.721,3.484-8.163,5.263-11.269,6.148
		c-0.001,0.003-0.002,0.005-0.003,0.008c-0.456,1.166-0.944,2.316-1.462,3.449c-0.006,0.012-0.011,0.023-0.016,0.035
		c-1.564,3.414-3.409,6.672-5.514,9.74h0.001c-11.856,17.291-31.749,28.64-54.297,28.64c-36.339,0-65.796-29.457-65.796-65.796
		c0-36.338,29.457-65.796,65.796-65.796c32.556,0,59.574,23.652,64.847,54.707c0.14,0.821,0.26,1.648,0.37,2.479
		c0.023,0.176,0.046,0.352,0.067,0.529c0.09,0.718,0.167,1.44,0.233,2.166c0.037,0.41,0.065,0.823,0.095,1.236
		c0.039,0.543,0.08,1.085,0.106,1.632c0.046,1.011,0.077,2.025,0.077,3.048c0,0.867-0.032,1.727-0.065,2.586
		c-0.024,0.556-0.051,1.11-0.086,1.663v0.001c1.671-0.825,3.553-1.021,5.315-0.384C169.876,105.23,171.646,109.84,170.064,114.173z"
		/>
</g>
<g id="outline_x5F_black">
	<path d="M175.316,104.866c-1.467-3.142-4.01-5.498-7.164-6.639c-0.414-0.15-0.835-0.269-1.26-0.373
		c-1.142-38.597-32.872-69.65-71.742-69.65c-39.589,0-71.796,32.208-71.796,71.796c0,39.589,32.208,71.796,71.796,71.796
		c29.354,0,54.636-17.716,65.753-43.012c3.375-1.259,7.355-3.303,10.906-6.627c1.717-1.608,3.062-3.657,3.892-5.927
		C177.074,112.473,176.934,108.331,175.316,104.866z M170.616,111.566c-0.004,0.07-0.006,0.14-0.013,0.21
		c-0.02,0.218-0.05,0.438-0.086,0.656c-0.007,0.044-0.011,0.087-0.019,0.13c-0.096,0.537-0.237,1.077-0.433,1.613
		c-0.521,1.432-1.348,2.657-2.354,3.602c-0.367,0.344-0.742,0.664-1.122,0.974c-0.127,0.104-0.257,0.204-0.386,0.306
		c-0.214,0.167-0.429,0.33-0.645,0.487c-0.22,0.161-0.439,0.319-0.661,0.471c-0.035,0.024-0.071,0.047-0.106,0.071
		c-2.961,2.004-6.027,3.176-8.351,3.838c-0.001,0.003-0.002,0.005-0.003,0.008c-0.444,1.137-0.92,2.258-1.423,3.363
		c-0.02,0.043-0.039,0.086-0.059,0.129c-0.507,1.107-1.043,2.198-1.609,3.271c-11.031,20.871-32.947,35.101-58.197,35.101
		c-36.339,0-65.796-29.457-65.796-65.796c0-36.338,29.457-65.796,65.796-65.796c35.042,0,63.676,27.397,65.675,61.938
		c0.021,0.383,0.036,0.768,0.053,1.151c0.036,0.899,0.068,1.799,0.068,2.707c0,0.867-0.032,1.727-0.065,2.586
		c-0.024,0.556-0.051,1.11-0.086,1.663v0.001c1.671-0.825,3.553-1.021,5.315-0.384c0.65,0.235,1.236,0.573,1.76,0.984
		c0.03,0.023,0.062,0.044,0.092,0.067c0.117,0.096,0.226,0.199,0.335,0.301c0.062,0.058,0.126,0.112,0.186,0.172
		c0.094,0.095,0.181,0.196,0.27,0.297c0.067,0.076,0.136,0.15,0.199,0.229c0.078,0.097,0.149,0.198,0.223,0.3
		c0.065,0.091,0.132,0.182,0.193,0.275c0.064,0.099,0.124,0.201,0.184,0.303c0.062,0.105,0.122,0.21,0.178,0.317
		c0.053,0.101,0.101,0.203,0.148,0.306c0.055,0.117,0.106,0.234,0.155,0.354c0.041,0.101,0.079,0.203,0.116,0.306
		c0.046,0.129,0.09,0.26,0.13,0.392c0.029,0.1,0.058,0.2,0.084,0.302c0.037,0.142,0.069,0.284,0.1,0.429
		c0.02,0.097,0.039,0.194,0.056,0.293c0.026,0.154,0.046,0.31,0.063,0.467c0.011,0.092,0.021,0.184,0.029,0.277
		c0.014,0.169,0.021,0.34,0.024,0.512c0.001,0.084,0.005,0.167,0.005,0.251C170.64,111.188,170.63,111.377,170.616,111.566z"/>
</g>
</svg>
