<?xml version="1.0" encoding="utf-8"?>
<!-- Generator: Adobe Illustrator 15.0.0, SVG Export Plug-In . SVG Version: 6.00 Build 0)  -->
<!DOCTYPE svg PUBLIC "-//W3C//DTD SVG 1.1//EN" "http://www.w3.org/Graphics/SVG/1.1/DTD/svg11.dtd">
<svg version="1.1" xmlns="http://www.w3.org/2000/svg" xmlns:xlink="http://www.w3.org/1999/xlink" x="0px" y="0px" width="200px"
	 height="200px" viewBox="0 0 200 200" enable-background="new 0 0 200 200" xml:space="preserve">
<g id="icon">
	<g id="Layer_2">
	</g>
	<g id="Layer_1_1_">
		<g>
			
				<radialGradient id="SVGID_1_" cx="199.0527" cy="673.626" r="72.3337" fx="199.5103" fy="678.2759" gradientTransform="matrix(1 0 0 1 -100 -591)" gradientUnits="userSpaceOnUse">
				<stop  offset="0.3804" style="stop-color:#FFE300"/>
				<stop  offset="1" style="stop-color:#F7941E"/>
			</radialGradient>
			<circle fill="url(#SVGID_1_)" cx="93.8" cy="100" r="65.796"/>
			<path fill="#603913" d="M81.238,68.285c3.369-1.261,6.854-1.11,9.585,0.146c-2.521-2.998-6.723-4.254-10.582-2.81
				c-3.857,1.443-6.204,5.149-6.137,9.065C75.339,71.947,77.869,69.546,81.238,68.285z"/>
			<path fill="#603913" d="M134.342,68.002c3.538,0.695,6.346,2.633,7.879,5.104c-0.339-3.821-3.097-7.057-7.146-7.854
				c-4.052-0.797-8.171,1.087-10.406,4.4C127.296,68.002,130.805,67.307,134.342,68.002z"/>
			
				<radialGradient id="SVGID_2_" cx="222.6035" cy="705.998" r="30.326" gradientTransform="matrix(1 0 0 1 -100 -591)" gradientUnits="userSpaceOnUse">
				<stop  offset="0.3804" style="stop-color:#FFE300"/>
				<stop  offset="1" style="stop-color:#F7941E"/>
			</radialGradient>
			<path fill="url(#SVGID_2_)" d="M145.307,131.045c2.543-0.441,5.051,1.945,5.051,1.945s1.848,6.357-2.946,10.793
				c-3.966,3.668-13.968,6.027-13.968,6.027s13.529-4.979,6.701-12.86C138.624,135.195,142.014,131.613,145.307,131.045z"/>
			<path fill="#603913" d="M113.523,127.793c-15.608-0.254-34.005,6.52-43.75,17.562c-1.705,1.933-3.566,0.504-4.447-0.194
				c11.553-15.737,31.154-27.421,53.339-24.457c14.54,1.94,23.86,9.437,28.96,17.146c1.857,2.812-0.326,4.129-1.762,2.383
				C139.998,133.089,129.546,128.053,113.523,127.793z"/>
			
				<radialGradient id="SVGID_3_" cx="207.9688" cy="728.0098" r="27.9794" gradientTransform="matrix(1 0 0 1 -100 -591)" gradientUnits="userSpaceOnUse">
				<stop  offset="0.3804" style="stop-color:#FFE300"/>
				<stop  offset="1" style="stop-color:#F7941E"/>
			</radialGradient>
			<path fill="url(#SVGID_3_)" d="M113.523,127.793c-15.608-0.254-34.005,6.52-43.75,17.562c-1.705,1.933,4.88,0.176,3.998-0.522
				c13.66-8.833,22.585-12.333,44.306-11.548c14.657,0.529,21.194,4.881,24.998,7.115c2.903,1.707,4.225,1.578,2.788-0.168
				C139.998,133.089,129.546,128.053,113.523,127.793z"/>
			<path fill="#603913" d="M52.939,142.667c0,0,4.006,9.433,11.462,12.669c7.75,3.365,11.197,2.33,9.701,2.664
				S54.439,160,52.939,142.667z"/>
			<path fill="#603913" d="M138.421,148.352c0,0-5.741,1.438-6.194,1.461c-0.453,0.021,3.828,0.621,3.828,0.621L138.421,148.352z"/>
			
				<radialGradient id="SVGID_4_" cx="740.7881" cy="679.877" r="119.5433" fx="713.5045" fy="677.7546" gradientTransform="matrix(0.8524 0 0 1 -496.0382 -591)" gradientUnits="userSpaceOnUse">
				<stop  offset="0.3804" style="stop-color:#FFE300"/>
				<stop  offset="1" style="stop-color:#F7941E"/>
			</radialGradient>
			<ellipse fill="url(#SVGID_4_)" cx="80.394" cy="67.733" rx="15.587" ry="17.167"/>
			
				<linearGradient id="SVGID_5_" gradientUnits="userSpaceOnUse" x1="181.7959" y1="646.1143" x2="180.7958" y2="655.1143" gradientTransform="matrix(1 0 0 1 -100 -591)">
				<stop  offset="0" style="stop-color:#FFE300"/>
				<stop  offset="1" style="stop-color:#FFE300;stop-opacity:0"/>
			</linearGradient>
			<ellipse fill="url(#SVGID_5_)" cx="80.394" cy="67.733" rx="15.587" ry="17.167"/>
			
				<radialGradient id="SVGID_6_" cx="805.2383" cy="-545.3081" r="119.5357" fx="777.9563" fy="-547.4304" gradientTransform="matrix(-0.0933 0.9953 -0.8196 -0.1516 -260.8012 -771.0858)" gradientUnits="userSpaceOnUse">
				<stop  offset="0.3804" style="stop-color:#FFE300"/>
				<stop  offset="1" style="stop-color:#F7941E"/>
			</radialGradient>
			<path fill="url(#SVGID_6_)" d="M147.895,68.623c-0.008,9.54-3.795,13.654-12.183,13.242c-4.649-0.229-9.965-8.406-12.344-17.917
				c-2.083-8.333-8.408-12.491-8.408-12.491c11.396,1.824,9.375-1.265,17.761-0.852C141.107,51.018,147.9,59.084,147.895,68.623z"/>
			
				<linearGradient id="SVGID_7_" gradientUnits="userSpaceOnUse" x1="236.8271" y1="643.8789" x2="230.8272" y2="654.8788" gradientTransform="matrix(1 0 0 1 -100 -591)">
				<stop  offset="0" style="stop-color:#FFE300"/>
				<stop  offset="1" style="stop-color:#FFE300;stop-opacity:0"/>
			</linearGradient>
			<path fill="url(#SVGID_7_)" d="M147.895,68.623c-0.008,9.54-3.795,13.654-12.183,13.242c-4.649-0.229-9.965-8.406-12.344-17.917
				c-2.083-8.333-8.408-12.491-8.408-12.491c11.396,1.824,9.375-1.265,17.761-0.852C141.107,51.018,147.9,59.084,147.895,68.623z"/>
			<path fill="#603913" d="M82.243,56.906c3.598,0,6.81,1.362,8.926,3.495c-1.31-3.691-4.806-6.34-8.926-6.34
				c-4.119,0-7.615,2.648-8.925,6.34C75.435,58.269,78.646,56.906,82.243,56.906z"/>
			<path fill="#603913" d="M135.281,54.944c3.597,0.026,6.81,1.411,8.925,3.561c-1.31-3.701-4.806-6.375-8.925-6.405
				c-4.12-0.029-7.616,2.594-8.926,6.275C128.473,56.258,131.686,54.919,135.281,54.944z"/>
			<g>
				<g>
					<g>
						<defs>
							<path id="SVGID_8_" d="M81.751,68.431l6.894,7.37l-12.71,11.315l14.71,7.413l-6.59,14.683c0,0,14.276-1.349,21.349-14.016
								C112.479,82.529,105.023,36.665,81.751,68.431z"/>
						</defs>
						<clipPath id="SVGID_9_">
							<use xlink:href="#SVGID_8_"  overflow="visible"/>
						</clipPath>
						<g clip-path="url(#SVGID_9_)">
							<g>
								
									<radialGradient id="SVGID_10_" cx="-813.311" cy="-1116.2373" r="48.229" gradientTransform="matrix(-0.4933 0.9328 -0.9636 -0.3752 -1382.3616 405.4508)" gradientUnits="userSpaceOnUse">
									<stop  offset="0" style="stop-color:#FF0000"/>
									<stop  offset="0.1377" style="stop-color:#F50000"/>
									<stop  offset="0.3732" style="stop-color:#DA0000"/>
									<stop  offset="0.678" style="stop-color:#AD0000"/>
									<stop  offset="1" style="stop-color:#770000"/>
								</radialGradient>
								<path fill="url(#SVGID_10_)" d="M104.561,85.808c1.004-2.383,1.48-5.101,1.285-7.943c-0.596-8.6-7.128-15.128-14.592-14.59
									c-3.7,0.268-6.933,2.226-9.181,5.177c0,0-5.149-4.206-11.48-3.679c-7.47,0.622-13.032,7.949-12.438,16.541
									c0.193,2.822,1.028,5.418,2.326,7.619c8.348,14.181,23.573,20.279,23.573,20.279S98.134,101.043,104.561,85.808z"/>
							</g>
							<g opacity="0.3">
								<g>
									<path fill="#8A0036" d="M104.561,85.808c0.351-0.828,0.627-1.698,0.844-2.596c-6.098,16.104-20.9,21.456-20.9,21.456
										s-12.931-4.32-21.112-16.062c-7.001-10.042-2.728-22.542,8.283-23.856c-0.357-0.01-0.717-0.003-1.08,0.023
										c-7.463,0.538-13.032,7.949-12.438,16.541c0.193,2.822,1.028,5.418,2.326,7.619c8.348,14.181,23.573,20.279,23.573,20.279
										S98.134,101.043,104.561,85.808z"/>
								</g>
							</g>
							<g opacity="0.87">
								
									<radialGradient id="SVGID_11_" cx="-467.2988" cy="-134.0518" r="42.059" gradientTransform="matrix(0.7984 0.4914 -0.4891 0.672 395.5671 396.6103)" gradientUnits="userSpaceOnUse">
									<stop  offset="0" style="stop-color:#FFFFFF;stop-opacity:0"/>
									<stop  offset="0.1274" style="stop-color:#FDFCFD;stop-opacity:0.061"/>
									<stop  offset="0.2308" style="stop-color:#F6F2F5;stop-opacity:0.1105"/>
									<stop  offset="0.3258" style="stop-color:#EAE1E8;stop-opacity:0.1559"/>
									<stop  offset="0.4158" style="stop-color:#D9C9D6;stop-opacity:0.199"/>
									<stop  offset="0.5022" style="stop-color:#C3AABE;stop-opacity:0.2404"/>
									<stop  offset="0.586" style="stop-color:#A884A1;stop-opacity:0.2805"/>
									<stop  offset="0.6677" style="stop-color:#89567F;stop-opacity:0.3196"/>
									<stop  offset="0.7457" style="stop-color:#652358;stop-opacity:0.3569"/>
									<stop  offset="0.7939" style="stop-color:#4C003D;stop-opacity:0.38"/>
									<stop  offset="1" style="stop-color:#FFFFFF;stop-opacity:0"/>
								</radialGradient>
								<path fill="url(#SVGID_11_)" d="M104.561,85.808c1.004-2.383,1.48-5.101,1.285-7.943c-0.596-8.6-7.128-15.128-14.592-14.59
									c-4.145,0.302-7.7,2.717-9.946,6.283c-2.715-3.203-6.569-5.087-10.715-4.785c-7.463,0.538-13.032,7.949-12.438,16.541
									c0.193,2.822,1.028,5.418,2.326,7.619c8.348,14.181,23.573,20.279,23.573,20.279S98.134,101.043,104.561,85.808z"/>
							</g>
							
								<radialGradient id="SVGID_12_" cx="-464.4829" cy="-227.4751" r="22.1909" gradientTransform="matrix(0.7984 0.4914 -0.6296 0.8651 327.9166 489.5641)" gradientUnits="userSpaceOnUse">
								<stop  offset="0" style="stop-color:#FF72A9"/>
								<stop  offset="1" style="stop-color:#FF72A9;stop-opacity:0"/>
							</radialGradient>
							<path fill="url(#SVGID_12_)" d="M101.945,80.496c-3.549,4.874-10.843,6.106-16.292,2.755
								c-5.446-3.354-6.986-10.026-3.438-14.898c3.547-4.874,10.841-6.108,16.287-2.755
								C103.954,68.951,105.491,75.62,101.945,80.496z"/>
							
								<radialGradient id="SVGID_13_" cx="-488.4438" cy="-220.1802" r="26.2835" gradientTransform="matrix(0.7984 0.4914 -0.6296 0.8651 327.9166 489.5641)" gradientUnits="userSpaceOnUse">
								<stop  offset="0" style="stop-color:#FF72A9"/>
								<stop  offset="1" style="stop-color:#FF72A9;stop-opacity:0"/>
							</radialGradient>
							<path fill="url(#SVGID_13_)" d="M83.189,82.291c-3.548,4.871-10.842,6.108-16.291,2.755
								c-5.446-3.354-6.985-10.021-3.438-14.9c3.548-4.874,10.841-6.106,16.288-2.757C85.196,70.746,86.736,77.415,83.189,82.291z"
								/>
							
								<radialGradient id="SVGID_14_" cx="-463.5503" cy="-226.4141" r="22.1909" gradientTransform="matrix(0.7984 0.4914 -0.6296 0.8651 327.9166 489.5641)" gradientUnits="userSpaceOnUse">
								<stop  offset="0" style="stop-color:#FFC29A"/>
								<stop  offset="1" style="stop-color:#FF723A;stop-opacity:0"/>
							</radialGradient>
							<path fill="url(#SVGID_14_)" d="M102.021,81.875c-3.548,4.871-10.84,6.106-16.289,2.756
								c-5.448-3.355-6.989-10.025-3.44-14.901c3.548-4.879,10.842-6.109,16.289-2.754
								C104.029,70.329,105.568,77.003,102.021,81.875z"/>
							
								<radialGradient id="SVGID_15_" cx="-487.5112" cy="-219.1167" r="26.2804" gradientTransform="matrix(0.7984 0.4914 -0.6296 0.8651 327.9166 489.5641)" gradientUnits="userSpaceOnUse">
								<stop  offset="0" style="stop-color:#FFC29A"/>
								<stop  offset="1" style="stop-color:#FF723A;stop-opacity:0"/>
							</radialGradient>
							<path fill="url(#SVGID_15_)" d="M83.265,83.665c-3.549,4.879-10.841,6.109-16.287,2.757
								C61.53,83.067,59.99,76.4,63.539,71.525c3.548-4.875,10.84-6.109,16.288-2.756C85.271,72.122,86.813,78.791,83.265,83.665z"
								/>
						</g>
					</g>
				</g>
			</g>
			<g>
				<g>
					<g>
						<defs>
							<path id="SVGID_16_" d="M77.327,68.431l6.893,7.37L71.51,87.116l14.71,7.413l-6.59,14.683c0,0-18.943-2.142-25.943-14.849
								C41.886,72.939,57.886,46.196,77.327,68.431z"/>
						</defs>
						<clipPath id="SVGID_17_">
							<use xlink:href="#SVGID_16_"  overflow="visible"/>
						</clipPath>
						<g clip-path="url(#SVGID_17_)">
							<g>
								
									<radialGradient id="SVGID_18_" cx="-817.1377" cy="-1114.064" r="48.2302" gradientTransform="matrix(-0.4933 0.9328 -0.9636 -0.3752 -1386.5803 409.8365)" gradientUnits="userSpaceOnUse">
									<stop  offset="0" style="stop-color:#FF0000"/>
									<stop  offset="0.1377" style="stop-color:#F50000"/>
									<stop  offset="0.3732" style="stop-color:#DA0000"/>
									<stop  offset="0.678" style="stop-color:#AD0000"/>
									<stop  offset="1" style="stop-color:#770000"/>
								</radialGradient>
								<path fill="url(#SVGID_18_)" d="M100.136,85.808c1.002-2.383,1.48-5.101,1.284-7.943c-0.595-8.6-7.126-15.128-14.591-14.59
									c-3.7,0.268-6.932,2.226-9.181,5.177c0,0-5.149-4.206-11.48-3.679c-7.47,0.622-13.032,7.949-12.438,16.541
									c0.194,2.822,1.028,5.418,2.325,7.619c8.348,14.181,23.574,20.279,23.574,20.279S93.709,101.043,100.136,85.808z"/>
							</g>
							<g opacity="0.3">
								<g>
									<path fill="#8A0036" d="M100.136,85.808c0.349-0.828,0.627-1.698,0.844-2.596c-6.102,16.104-20.902,21.456-20.902,21.456
										s-12.93-4.32-21.113-16.062c-7-10.042-2.727-22.542,8.283-23.856c-0.357-0.01-0.715-0.003-1.079,0.023
										c-7.463,0.538-13.032,7.949-12.438,16.541c0.194,2.822,1.028,5.418,2.325,7.619c8.348,14.181,23.574,20.279,23.574,20.279
										S93.709,101.043,100.136,85.808z"/>
								</g>
							</g>
							<g opacity="0.87">
								
									<radialGradient id="SVGID_19_" cx="-471.126" cy="-131.877" r="42.0578" gradientTransform="matrix(0.7984 0.4914 -0.4891 0.672 395.2615 397.0302)" gradientUnits="userSpaceOnUse">
									<stop  offset="0" style="stop-color:#FFFFFF;stop-opacity:0"/>
									<stop  offset="0.1274" style="stop-color:#FDFCFD;stop-opacity:0.061"/>
									<stop  offset="0.2308" style="stop-color:#F6F2F5;stop-opacity:0.1105"/>
									<stop  offset="0.3258" style="stop-color:#EAE1E8;stop-opacity:0.1559"/>
									<stop  offset="0.4158" style="stop-color:#D9C9D6;stop-opacity:0.199"/>
									<stop  offset="0.5022" style="stop-color:#C3AABE;stop-opacity:0.2404"/>
									<stop  offset="0.586" style="stop-color:#A884A1;stop-opacity:0.2805"/>
									<stop  offset="0.6677" style="stop-color:#89567F;stop-opacity:0.3196"/>
									<stop  offset="0.7457" style="stop-color:#652358;stop-opacity:0.3569"/>
									<stop  offset="0.7939" style="stop-color:#4C003D;stop-opacity:0.38"/>
									<stop  offset="1" style="stop-color:#FFFFFF;stop-opacity:0"/>
								</radialGradient>
								<path fill="url(#SVGID_19_)" d="M100.136,85.808c1.002-2.383,1.48-5.101,1.284-7.943c-0.595-8.6-7.126-15.128-14.591-14.59
									c-4.145,0.302-7.7,2.717-9.947,6.283c-2.713-3.203-6.568-5.087-10.714-4.785c-7.463,0.538-13.032,7.949-12.438,16.541
									c0.194,2.822,1.028,5.418,2.325,7.619c8.348,14.181,23.574,20.279,23.574,20.279S93.709,101.043,100.136,85.808z"/>
							</g>
							
								<radialGradient id="SVGID_20_" cx="-468.312" cy="-225.3003" r="22.1886" gradientTransform="matrix(0.7984 0.4914 -0.6296 0.8651 327.9166 489.5641)" gradientUnits="userSpaceOnUse">
								<stop  offset="0" style="stop-color:#FF72A9"/>
								<stop  offset="1" style="stop-color:#FF72A9;stop-opacity:0"/>
							</radialGradient>
							<path fill="url(#SVGID_20_)" d="M97.521,80.496c-3.549,4.874-10.843,6.106-16.291,2.755
								c-5.446-3.354-6.986-10.026-3.438-14.898c3.547-4.874,10.842-6.108,16.287-2.755C99.528,68.951,101.066,75.62,97.521,80.496z
								"/>
							
								<radialGradient id="SVGID_21_" cx="-492.2729" cy="-218.0059" r="26.2849" gradientTransform="matrix(0.7984 0.4914 -0.6296 0.8651 327.9166 489.5641)" gradientUnits="userSpaceOnUse">
								<stop  offset="0" style="stop-color:#FF72A9"/>
								<stop  offset="1" style="stop-color:#FF72A9;stop-opacity:0"/>
							</radialGradient>
							<path fill="url(#SVGID_21_)" d="M78.765,82.291c-3.548,4.871-10.842,6.108-16.291,2.755
								c-5.446-3.354-6.985-10.021-3.438-14.9c3.548-4.874,10.841-6.106,16.288-2.757C80.771,70.746,82.312,77.415,78.765,82.291z"
								/>
							
								<radialGradient id="SVGID_22_" cx="-467.3779" cy="-224.2388" r="22.1886" gradientTransform="matrix(0.7984 0.4914 -0.6296 0.8651 327.9166 489.5641)" gradientUnits="userSpaceOnUse">
								<stop  offset="0" style="stop-color:#FFC29A"/>
								<stop  offset="1" style="stop-color:#FF723A;stop-opacity:0"/>
							</radialGradient>
							<path fill="url(#SVGID_22_)" d="M97.597,81.875c-3.549,4.871-10.84,6.106-16.289,2.756
								c-5.447-3.355-6.988-10.025-3.439-14.901c3.549-4.879,10.842-6.109,16.289-2.754C99.604,70.329,101.145,77.003,97.597,81.875
								z"/>
							
								<radialGradient id="SVGID_23_" cx="-491.3369" cy="-216.9434" r="26.2793" gradientTransform="matrix(0.7984 0.4914 -0.6296 0.8651 327.9166 489.5641)" gradientUnits="userSpaceOnUse">
								<stop  offset="0" style="stop-color:#FFC29A"/>
								<stop  offset="1" style="stop-color:#FF723A;stop-opacity:0"/>
							</radialGradient>
							<path fill="url(#SVGID_23_)" d="M78.841,83.665c-3.549,4.879-10.842,6.109-16.289,2.757
								c-5.447-3.355-6.987-10.022-3.439-14.897c3.549-4.875,10.841-6.109,16.289-2.756C80.847,72.122,82.39,78.791,78.841,83.665z"
								/>
						</g>
					</g>
				</g>
			</g>
			<g>
				<g>
					<g>
						<defs>
							<path id="SVGID_24_" d="M144.389,67.229l6.141,6.565l-11.32,10.079l13.104,6.604l-5.871,13.08
								c0,0,12.719-1.201,19.021-12.486C171.76,79.788,165.121,38.933,144.389,67.229z"/>
						</defs>
						<clipPath id="SVGID_25_">
							<use xlink:href="#SVGID_24_"  overflow="visible"/>
						</clipPath>
						<g clip-path="url(#SVGID_25_)">
							<g>
								
									<radialGradient id="SVGID_26_" cx="-760.8901" cy="-1147.0508" r="42.9631" gradientTransform="matrix(-0.4933 0.9328 -0.9636 -0.3752 -1324.9417 344.0988)" gradientUnits="userSpaceOnUse">
									<stop  offset="0" style="stop-color:#FF0000"/>
									<stop  offset="0.1377" style="stop-color:#F50000"/>
									<stop  offset="0.3732" style="stop-color:#DA0000"/>
									<stop  offset="0.678" style="stop-color:#AD0000"/>
									<stop  offset="1" style="stop-color:#770000"/>
								</radialGradient>
								<path fill="url(#SVGID_26_)" d="M164.707,82.709c0.895-2.123,1.318-4.544,1.145-7.076
									c-0.528-7.661-6.349-13.476-12.998-12.997c-3.295,0.238-6.174,1.982-8.179,4.611c0,0-4.587-3.746-10.227-3.276
									c-6.654,0.554-11.609,7.081-11.079,14.734c0.173,2.515,0.916,4.827,2.07,6.788c7.438,12.632,21,18.063,21,18.063
									S158.982,96.28,164.707,82.709z"/>
							</g>
							<g opacity="0.3">
								<g>
									<path fill="#8A0036" d="M164.707,82.709c0.311-0.737,0.559-1.513,0.752-2.312c-5.434,14.345-18.62,19.113-18.62,19.113
										s-11.519-3.849-18.808-14.309c-6.235-8.945-2.43-20.081,7.379-21.251c-0.318-0.01-0.639-0.003-0.962,0.021
										c-6.647,0.479-11.609,7.081-11.079,14.734c0.173,2.515,0.916,4.827,2.07,6.788c7.438,12.632,21,18.063,21,18.063
										S158.982,96.28,164.707,82.709z"/>
								</g>
							</g>
							<g opacity="0.87">
								
									<radialGradient id="SVGID_27_" cx="-415.0469" cy="-166.187" r="37.4674" gradientTransform="matrix(0.7984 0.4914 -0.4891 0.672 400.0818 390.4052)" gradientUnits="userSpaceOnUse">
									<stop  offset="0" style="stop-color:#FFFFFF;stop-opacity:0"/>
									<stop  offset="0.1274" style="stop-color:#FDFCFD;stop-opacity:0.061"/>
									<stop  offset="0.2308" style="stop-color:#F6F2F5;stop-opacity:0.1105"/>
									<stop  offset="0.3258" style="stop-color:#EAE1E8;stop-opacity:0.1559"/>
									<stop  offset="0.4158" style="stop-color:#D9C9D6;stop-opacity:0.199"/>
									<stop  offset="0.5022" style="stop-color:#C3AABE;stop-opacity:0.2404"/>
									<stop  offset="0.586" style="stop-color:#A884A1;stop-opacity:0.2805"/>
									<stop  offset="0.6677" style="stop-color:#89567F;stop-opacity:0.3196"/>
									<stop  offset="0.7457" style="stop-color:#652358;stop-opacity:0.3569"/>
									<stop  offset="0.7939" style="stop-color:#4C003D;stop-opacity:0.38"/>
									<stop  offset="1" style="stop-color:#FFFFFF;stop-opacity:0"/>
								</radialGradient>
								<path fill="url(#SVGID_27_)" d="M164.707,82.709c0.895-2.123,1.318-4.544,1.145-7.076
									c-0.528-7.661-6.349-13.476-12.998-12.997c-3.69,0.271-6.857,2.42-8.858,5.598c-2.418-2.854-5.853-4.531-9.545-4.263
									c-6.647,0.479-11.609,7.081-11.079,14.734c0.173,2.515,0.916,4.827,2.07,6.788c7.438,12.632,21,18.063,21,18.063
									S158.982,96.28,164.707,82.709z"/>
							</g>
							
								<radialGradient id="SVGID_28_" cx="-412.5396" cy="-257.8755" r="19.7673" gradientTransform="matrix(0.7984 0.4914 -0.6296 0.8651 327.9166 489.5641)" gradientUnits="userSpaceOnUse">
								<stop  offset="0" style="stop-color:#FF72A9"/>
								<stop  offset="1" style="stop-color:#FF72A9;stop-opacity:0"/>
							</radialGradient>
							<path fill="url(#SVGID_28_)" d="M162.378,77.978c-3.162,4.342-9.659,5.439-14.513,2.454
								c-4.852-2.987-6.225-8.932-3.062-13.272c3.159-4.342,9.657-5.441,14.508-2.453C164.167,67.693,165.536,73.634,162.378,77.978
								z"/>
							
								<radialGradient id="SVGID_29_" cx="-433.8813" cy="-251.3789" r="23.4137" gradientTransform="matrix(0.7984 0.4914 -0.6296 0.8651 327.9166 489.5641)" gradientUnits="userSpaceOnUse">
								<stop  offset="0" style="stop-color:#FF72A9"/>
								<stop  offset="1" style="stop-color:#FF72A9;stop-opacity:0"/>
							</radialGradient>
							<path fill="url(#SVGID_29_)" d="M145.67,79.576c-3.161,4.339-9.658,5.441-14.513,2.454
								c-4.853-2.987-6.224-8.928-3.062-13.273c3.158-4.342,9.655-5.439,14.508-2.456C147.457,69.292,148.829,75.232,145.67,79.576z
								"/>
							
								<radialGradient id="SVGID_30_" cx="-411.7095" cy="-256.9316" r="19.7672" gradientTransform="matrix(0.7984 0.4914 -0.6296 0.8651 327.9166 489.5641)" gradientUnits="userSpaceOnUse">
								<stop  offset="0" style="stop-color:#FFC29A"/>
								<stop  offset="1" style="stop-color:#FF723A;stop-opacity:0"/>
							</radialGradient>
							<path fill="url(#SVGID_30_)" d="M162.443,79.206c-3.159,4.339-9.655,5.439-14.508,2.455
								c-4.854-2.99-6.228-8.932-3.064-13.275c3.161-4.346,9.658-5.441,14.511-2.453C164.234,68.921,165.605,74.865,162.443,79.206z
								"/>
							
								<radialGradient id="SVGID_31_" cx="-433.0537" cy="-250.4297" r="23.4111" gradientTransform="matrix(0.7984 0.4914 -0.6296 0.8651 327.9166 489.5641)" gradientUnits="userSpaceOnUse">
								<stop  offset="0" style="stop-color:#FFC29A"/>
								<stop  offset="1" style="stop-color:#FF723A;stop-opacity:0"/>
							</radialGradient>
							<path fill="url(#SVGID_31_)" d="M145.736,80.8c-3.161,4.347-9.657,5.442-14.51,2.456c-4.854-2.989-6.226-8.928-3.063-13.271
								c3.161-4.343,9.657-5.442,14.511-2.455C147.523,70.518,148.898,76.458,145.736,80.8z"/>
						</g>
					</g>
				</g>
			</g>
			<g>
				<g>
					<g>
						<defs>
							<path id="SVGID_32_" d="M140.557,67.229l6.139,6.565l-11.319,10.079l13.104,6.604l-5.871,13.08
								c0,0-16.873-1.908-23.108-13.229C108.984,71.246,123.236,47.423,140.557,67.229z"/>
						</defs>
						<clipPath id="SVGID_33_">
							<use xlink:href="#SVGID_32_"  overflow="visible"/>
						</clipPath>
						<g clip-path="url(#SVGID_33_)">
							<g>
								
									<radialGradient id="SVGID_34_" cx="-764.2065" cy="-1145.166" r="42.9637" gradientTransform="matrix(-0.4933 0.9328 -0.9636 -0.3752 -1328.5959 347.8976)" gradientUnits="userSpaceOnUse">
									<stop  offset="0" style="stop-color:#FF0000"/>
									<stop  offset="0.1377" style="stop-color:#F50000"/>
									<stop  offset="0.3732" style="stop-color:#DA0000"/>
									<stop  offset="0.678" style="stop-color:#AD0000"/>
									<stop  offset="1" style="stop-color:#770000"/>
								</radialGradient>
								<path fill="url(#SVGID_34_)" d="M160.874,82.709c0.894-2.123,1.317-4.544,1.144-7.076
									c-0.529-7.661-6.349-13.476-12.996-12.997c-3.297,0.238-6.176,1.982-8.18,4.611c0,0-4.587-3.746-10.227-3.276
									c-6.654,0.554-11.609,7.081-11.079,14.734c0.172,2.515,0.916,4.827,2.071,6.788c7.437,12.632,20.998,18.063,20.998,18.063
									S155.148,96.28,160.874,82.709z"/>
							</g>
							<g opacity="0.3">
								<g>
									<path fill="#8A0036" d="M160.874,82.709c0.312-0.737,0.56-1.513,0.751-2.312c-5.434,14.345-18.62,19.113-18.62,19.113
										s-11.519-3.849-18.807-14.309c-6.236-8.945-2.431-20.081,7.379-21.251c-0.318-0.01-0.638-0.003-0.962,0.021
										c-6.648,0.479-11.609,7.081-11.079,14.734c0.172,2.515,0.916,4.827,2.071,6.788c7.437,12.632,20.998,18.063,20.998,18.063
										S155.148,96.28,160.874,82.709z"/>
								</g>
							</g>
							<g opacity="0.87">
								
									<radialGradient id="SVGID_35_" cx="-418.3633" cy="-164.3032" r="37.4665" gradientTransform="matrix(0.7984 0.4914 -0.4891 0.672 399.8181 390.7695)" gradientUnits="userSpaceOnUse">
									<stop  offset="0" style="stop-color:#FFFFFF;stop-opacity:0"/>
									<stop  offset="0.1274" style="stop-color:#FDFCFD;stop-opacity:0.061"/>
									<stop  offset="0.2308" style="stop-color:#F6F2F5;stop-opacity:0.1105"/>
									<stop  offset="0.3258" style="stop-color:#EAE1E8;stop-opacity:0.1559"/>
									<stop  offset="0.4158" style="stop-color:#D9C9D6;stop-opacity:0.199"/>
									<stop  offset="0.5022" style="stop-color:#C3AABE;stop-opacity:0.2404"/>
									<stop  offset="0.586" style="stop-color:#A884A1;stop-opacity:0.2805"/>
									<stop  offset="0.6677" style="stop-color:#89567F;stop-opacity:0.3196"/>
									<stop  offset="0.7457" style="stop-color:#652358;stop-opacity:0.3569"/>
									<stop  offset="0.7939" style="stop-color:#4C003D;stop-opacity:0.38"/>
									<stop  offset="1" style="stop-color:#FFFFFF;stop-opacity:0"/>
								</radialGradient>
								<path fill="url(#SVGID_35_)" d="M160.874,82.709c0.894-2.123,1.317-4.544,1.144-7.076
									c-0.529-7.661-6.349-13.476-12.996-12.997c-3.691,0.271-6.858,2.42-8.86,5.598c-2.417-2.854-5.853-4.531-9.544-4.263
									c-6.648,0.479-11.609,7.081-11.079,14.734c0.172,2.515,0.916,4.827,2.069,6.788c7.438,12.632,21,18.063,21,18.063
									S155.148,96.28,160.874,82.709z"/>
							</g>
							
								<radialGradient id="SVGID_36_" cx="-415.855" cy="-255.9927" r="19.7662" gradientTransform="matrix(0.7984 0.4914 -0.6296 0.8651 327.9166 489.5641)" gradientUnits="userSpaceOnUse">
								<stop  offset="0" style="stop-color:#FF72A9"/>
								<stop  offset="1" style="stop-color:#FF72A9;stop-opacity:0"/>
							</radialGradient>
							<path fill="url(#SVGID_36_)" d="M158.544,77.978c-3.161,4.342-9.657,5.439-14.512,2.454
								c-4.853-2.987-6.224-8.932-3.062-13.272c3.158-4.342,9.655-5.441,14.508-2.453C160.333,67.693,161.703,73.634,158.544,77.978
								z"/>
							
								<radialGradient id="SVGID_37_" cx="-437.2017" cy="-249.4932" r="23.4159" gradientTransform="matrix(0.7984 0.4914 -0.6296 0.8651 327.9166 489.5641)" gradientUnits="userSpaceOnUse">
								<stop  offset="0" style="stop-color:#FF72A9"/>
								<stop  offset="1" style="stop-color:#FF72A9;stop-opacity:0"/>
							</radialGradient>
							<path fill="url(#SVGID_37_)" d="M141.836,79.576c-3.16,4.339-9.656,5.441-14.512,2.454
								c-4.852-2.987-6.223-8.928-3.062-13.273c3.161-4.342,9.657-5.439,14.51-2.456C143.624,69.292,144.996,75.232,141.836,79.576z
								"/>
							
								<radialGradient id="SVGID_38_" cx="-415.0249" cy="-255.0493" r="19.7675" gradientTransform="matrix(0.7984 0.4914 -0.6296 0.8651 327.9166 489.5641)" gradientUnits="userSpaceOnUse">
								<stop  offset="0" style="stop-color:#FFC29A"/>
								<stop  offset="1" style="stop-color:#FF723A;stop-opacity:0"/>
							</radialGradient>
							<path fill="url(#SVGID_38_)" d="M158.611,79.206c-3.161,4.339-9.656,5.439-14.51,2.455c-4.854-2.99-6.228-8.932-3.063-13.275
								c3.16-4.346,9.657-5.441,14.51-2.453C160.4,68.921,161.771,74.865,158.611,79.206z"/>
							
								<radialGradient id="SVGID_39_" cx="-436.3682" cy="-248.5469" r="23.41" gradientTransform="matrix(0.7984 0.4914 -0.6296 0.8651 327.9166 489.5641)" gradientUnits="userSpaceOnUse">
								<stop  offset="0" style="stop-color:#FFC29A"/>
								<stop  offset="1" style="stop-color:#FF723A;stop-opacity:0"/>
							</radialGradient>
							<path fill="url(#SVGID_39_)" d="M141.902,80.8c-3.16,4.347-9.656,5.442-14.51,2.456c-4.854-2.989-6.226-8.928-3.062-13.271
								c3.162-4.343,9.656-5.442,14.511-2.455C143.689,70.518,145.064,76.458,141.902,80.8z"/>
						</g>
					</g>
				</g>
			</g>
		</g>
	</g>
</g>
<g id="outline_x5F_white">
	<g>
		<g>
			<path fill="#FFFFFF" d="M93.8,34.204c17.875,0,34.075,7.139,45.935,18.707c2.461,1.584,4.517,3.894,5.951,6.654
				c0.813,1.043,1.604,2.105,2.354,3.198l0,0c0.01,0,0.699,1.026,0.709,1.026l0,0c1.89-0.702,3.627-1.017,5.213-1.017
				c10.354,0,14.2,13.436,10.58,20.323c-1.569,2.989-3.446,6.282-5.415,8.999c0.381,3.726,0.471,7.236,0.471,7.905
				c0,12.211-3.34,23.638-9.135,33.438c0.312,1.504,0.994,6.602-3.053,10.346c-2.104,1.943-5.901,3.521-9.01,4.574
				c-11.725,10.819-27.387,17.438-44.602,17.438c-36.339,0-65.796-29.457-65.796-65.796C28.003,63.662,57.461,34.204,93.8,34.204
				 M93.8,22.204c-42.897,0-77.796,34.899-77.796,77.796c0,42.896,34.899,77.796,77.796,77.796c18.761,0,36.722-6.707,50.859-18.938
				c4.729-1.812,8.312-3.871,10.899-6.266c4.621-4.275,7.144-10.215,7.168-16.521c5.812-11.096,8.869-23.482,8.869-36.068
				c0-0.529-0.037-2.347-0.181-4.718c1.208-1.947,2.449-4.136,3.746-6.604c4.062-7.728,3.51-18.355-1.377-26.445
				c-4.325-7.16-11.382-11.317-19.409-11.457c-1.941-2.824-4.33-5.268-7.046-7.208C132.809,29.783,113.842,22.204,93.8,22.204
				L93.8,22.204z"/>
		</g>
	</g>
</g>
<g id="outline_x5F_black">
	<g>
		<path d="M93.8,34.204c17.875,0,34.075,7.139,45.935,18.707c2.461,1.584,4.517,3.894,5.951,6.654
			c0.813,1.043,1.604,2.105,2.354,3.198l0,0c0.01,0,0.699,1.026,0.709,1.026l0,0c1.89-0.702,3.627-1.017,5.213-1.017
			c10.354,0,14.2,13.436,10.58,20.323c-1.569,2.989-3.446,6.282-5.415,8.999c0.381,3.726,0.471,7.236,0.471,7.905
			c0,12.211-3.34,23.638-9.135,33.438c0.312,1.504,0.994,6.602-3.053,10.346c-2.104,1.943-5.901,3.521-9.01,4.574
			c-11.725,10.819-27.387,17.438-44.602,17.438c-36.339,0-65.796-29.457-65.796-65.796C28.003,63.662,57.461,34.204,93.8,34.204
			 M93.8,28.204c-39.589,0-71.796,32.208-71.796,71.796c0,39.589,32.208,71.796,71.796,71.796c17.667,0,34.565-6.444,47.729-18.176
			c4.502-1.626,7.767-3.408,9.953-5.433c4.842-4.479,5.396-10.088,5.178-13.504c5.852-10.593,8.936-22.537,8.936-34.686
			c0-0.582-0.059-3.174-0.301-6.281c1.446-2.189,2.949-4.772,4.557-7.831c3.072-5.844,2.578-14.295-1.201-20.552
			c-3.285-5.442-8.642-8.563-14.688-8.563c-0.889,0-1.791,0.067-2.703,0.199c-0.171-0.226-0.345-0.454-0.521-0.685
			c-1.803-3.279-4.281-6.048-7.221-8.065C130.072,35.309,112.439,28.204,93.8,28.204L93.8,28.204z"/>
	</g>
</g>
</svg>
