<?xml version="1.0" encoding="utf-8"?>
<!-- Generator: Adobe Illustrator 15.0.0, SVG Export Plug-In . SVG Version: 6.00 Build 0)  -->
<!DOCTYPE svg PUBLIC "-//W3C//DTD SVG 1.1//EN" "http://www.w3.org/Graphics/SVG/1.1/DTD/svg11.dtd">
<svg version="1.1" xmlns="http://www.w3.org/2000/svg" xmlns:xlink="http://www.w3.org/1999/xlink" x="0px" y="0px" width="200px"
	 height="200px" viewBox="0 0 200 200" enable-background="new 0 0 200 200" xml:space="preserve">
<g id="icon">
	<g id="Layer_2">
	</g>
	<g id="Layer_1_1_">
		<g>
			
				<radialGradient id="SVGID_1_" cx="203.3789" cy="666.5508" r="72.3792" fx="203.522" fy="664.9886" gradientTransform="matrix(1 0 0 0.9686 -100 -570.0373)" gradientUnits="userSpaceOnUse">
				<stop  offset="0.3804" style="stop-color:#FFE300"/>
				<stop  offset="1" style="stop-color:#F7941E"/>
			</radialGradient>
			<circle fill="url(#SVGID_1_)" cx="99.126" cy="98.675" r="65.796"/>
			
				<radialGradient id="SVGID_2_" cx="747.6621" cy="674.2686" r="119.5458" fx="720.3779" fy="672.1461" gradientTransform="matrix(0.8524 0 0 1 -496.0382 -591)" gradientUnits="userSpaceOnUse">
				<stop  offset="0.3804" style="stop-color:#FFE300"/>
				<stop  offset="1" style="stop-color:#F7941E"/>
			</radialGradient>
			<ellipse fill="url(#SVGID_2_)" cx="86.252" cy="62.125" rx="15.588" ry="17.167"/>
			
				<linearGradient id="SVGID_3_" gradientUnits="userSpaceOnUse" x1="187.6543" y1="640.5068" x2="186.6543" y2="649.5068" gradientTransform="matrix(1 0 0 1 -100 -591)">
				<stop  offset="0" style="stop-color:#FFE300"/>
				<stop  offset="1" style="stop-color:#FFE300;stop-opacity:0"/>
			</linearGradient>
			<ellipse fill="url(#SVGID_3_)" cx="86.252" cy="62.125" rx="15.588" ry="17.167"/>
			
				<radialGradient id="SVGID_4_" cx="806.7363" cy="-550.9414" r="119.5591" fx="779.4489" fy="-553.0641" gradientTransform="matrix(-0.0933 0.9953 -0.8196 -0.1516 -264.0366 -779.0331)" gradientUnits="userSpaceOnUse">
				<stop  offset="0.3804" style="stop-color:#FFE300"/>
				<stop  offset="1" style="stop-color:#F7941E"/>
			</radialGradient>
			<path fill="url(#SVGID_4_)" d="M149.141,63.015c-0.008,9.54-3.797,13.654-12.183,13.242c-4.651-0.229-9.966-8.406-12.343-17.917
				c-2.084-8.333-8.41-12.491-8.41-12.491c11.396,1.824,9.376-1.265,17.762-0.852C142.354,45.409,149.146,53.476,149.141,63.015z"/>
			
				<linearGradient id="SVGID_5_" gradientUnits="userSpaceOnUse" x1="238.0713" y1="638.2734" x2="232.0716" y2="649.2728" gradientTransform="matrix(1 0 0 1 -100 -591)">
				<stop  offset="0" style="stop-color:#FFE300"/>
				<stop  offset="1" style="stop-color:#FFE300;stop-opacity:0"/>
			</linearGradient>
			<path fill="url(#SVGID_5_)" d="M149.141,63.015c-0.008,9.54-3.797,13.654-12.183,13.242c-4.651-0.229-9.966-8.406-12.343-17.917
				c-2.084-8.333-8.41-12.491-8.41-12.491c11.396,1.824,9.376-1.265,17.762-0.852C142.354,45.409,149.146,53.476,149.141,63.015z"/>
			<path fill="#603913" d="M88.102,51.298c3.598,0,6.809,1.362,8.926,3.495c-1.311-3.691-4.807-6.34-8.926-6.34
				s-7.615,2.648-8.926,6.34C81.293,52.66,84.504,51.298,88.102,51.298z"/>
			<path fill="#603913" d="M136.527,49.336c3.598,0.026,6.809,1.411,8.926,3.561c-1.311-3.701-4.807-6.375-8.926-6.405
				c-4.119-0.029-7.615,2.594-8.926,6.275C129.719,50.649,132.93,49.311,136.527,49.336z"/>
			
				<radialGradient id="SVGID_6_" cx="236.0977" cy="669.3789" r="40.0751" gradientTransform="matrix(1 0 0 1 -100.0952 -591.0371)" gradientUnits="userSpaceOnUse">
				<stop  offset="0.3804" style="stop-color:#FFE300"/>
				<stop  offset="1" style="stop-color:#F7941E"/>
			</radialGradient>
			<path fill="url(#SVGID_6_)" d="M153.236,86.504c1.014-2.641,4.666-3.662,4.666-3.662s7.02,1.833,8.5,8.834
				c1.227,5.79-2.168,16.525-2.168,16.525s2.91-15.525-8.34-13.526C153.391,95.12,151.923,89.921,153.236,86.504z"/>
			
				<radialGradient id="SVGID_7_" cx="165.8496" cy="659.2266" r="46.953" gradientTransform="matrix(1 0 0 1 -100 -591)" gradientUnits="userSpaceOnUse">
				<stop  offset="0.3804" style="stop-color:#FFE300"/>
				<stop  offset="1" style="stop-color:#F7941E"/>
			</radialGradient>
			<path fill="url(#SVGID_7_)" d="M78.07,102.807c0,0-4.334-16.132-11-16.299c-6.668-0.167-16.586,4.427-19.334,14.501
				c-4,14.666,1.333,3.167,11.5,0.333c10.166-2.834,12.834,1.338,15,2.252S78.07,102.807,78.07,102.807z"/>
			<g>
				<g>
					
						<radialGradient id="SVGID_8_" cx="-807.915" cy="-1125.7852" r="48.2296" gradientTransform="matrix(-0.4933 0.9328 -0.9636 -0.3752 -1378.5823 391.2291)" gradientUnits="userSpaceOnUse">
						<stop  offset="0" style="stop-color:#FF0000"/>
						<stop  offset="0.1377" style="stop-color:#F50000"/>
						<stop  offset="0.3732" style="stop-color:#DA0000"/>
						<stop  offset="0.678" style="stop-color:#AD0000"/>
						<stop  offset="1" style="stop-color:#770000"/>
					</radialGradient>
					<path fill="url(#SVGID_8_)" d="M114.878,80.199c1.003-2.383,1.479-5.101,1.284-7.943c-0.596-8.6-7.127-15.128-14.592-14.59
						c-3.699,0.268-6.932,2.226-9.18,5.177c0,0-5.149-4.206-11.48-3.679c-7.47,0.622-13.032,7.949-12.438,16.541
						c0.193,2.822,1.028,5.418,2.326,7.619c8.348,14.181,23.573,20.279,23.573,20.279S108.451,95.435,114.878,80.199z"/>
				</g>
				<g opacity="0.3">
					<g>
						<path fill="#8A0036" d="M114.878,80.199c0.349-0.828,0.627-1.698,0.845-2.596C109.622,93.707,94.82,99.059,94.82,99.059
							s-12.931-4.32-21.112-16.062c-7.001-10.042-2.728-22.542,8.283-23.856c-0.357-0.01-0.717-0.003-1.08,0.023
							c-7.463,0.538-13.032,7.949-12.438,16.541c0.193,2.822,1.028,5.418,2.326,7.619c8.348,14.181,23.573,20.279,23.573,20.279
							S108.451,95.435,114.878,80.199z"/>
					</g>
				</g>
				<g opacity="0.87">
					
						<radialGradient id="SVGID_9_" cx="-461.9038" cy="-143.5986" r="42.0582" gradientTransform="matrix(0.7984 0.4914 -0.4891 0.672 396.908 394.7666)" gradientUnits="userSpaceOnUse">
						<stop  offset="0" style="stop-color:#FFFFFF;stop-opacity:0"/>
						<stop  offset="0.1274" style="stop-color:#FDFCFD;stop-opacity:0.061"/>
						<stop  offset="0.2308" style="stop-color:#F6F2F5;stop-opacity:0.1105"/>
						<stop  offset="0.3258" style="stop-color:#EAE1E8;stop-opacity:0.1559"/>
						<stop  offset="0.4158" style="stop-color:#D9C9D6;stop-opacity:0.199"/>
						<stop  offset="0.5022" style="stop-color:#C3AABE;stop-opacity:0.2404"/>
						<stop  offset="0.586" style="stop-color:#A884A1;stop-opacity:0.2805"/>
						<stop  offset="0.6677" style="stop-color:#89567F;stop-opacity:0.3196"/>
						<stop  offset="0.7457" style="stop-color:#652358;stop-opacity:0.3569"/>
						<stop  offset="0.7939" style="stop-color:#4C003D;stop-opacity:0.38"/>
						<stop  offset="1" style="stop-color:#FFFFFF;stop-opacity:0"/>
					</radialGradient>
					<path fill="url(#SVGID_9_)" d="M114.878,80.199c1.003-2.383,1.479-5.101,1.284-7.943c-0.596-8.6-7.127-15.128-14.592-14.59
						c-4.146,0.302-7.699,2.717-9.945,6.283c-2.715-3.203-6.569-5.087-10.715-4.785c-7.463,0.538-13.032,7.949-12.438,16.541
						c0.193,2.822,1.028,5.418,2.326,7.619c8.348,14.181,23.573,20.279,23.573,20.279S108.451,95.435,114.878,80.199z"/>
				</g>
				
					<radialGradient id="SVGID_10_" cx="-459.0894" cy="-237.0215" r="22.1886" gradientTransform="matrix(0.7984 0.4914 -0.6296 0.8651 327.9166 489.5641)" gradientUnits="userSpaceOnUse">
					<stop  offset="0" style="stop-color:#FF72A9"/>
					<stop  offset="1" style="stop-color:#FF72A9;stop-opacity:0"/>
				</radialGradient>
				<path fill="url(#SVGID_10_)" d="M112.264,74.888c-3.55,4.874-10.844,6.106-16.292,2.755c-5.446-3.354-6.986-10.026-3.438-14.898
					c3.547-4.874,10.841-6.108,16.286-2.755C114.271,63.343,115.809,70.012,112.264,74.888z"/>
				
					<radialGradient id="SVGID_11_" cx="-483.0513" cy="-229.7285" r="26.2856" gradientTransform="matrix(0.7984 0.4914 -0.6296 0.8651 327.9166 489.5641)" gradientUnits="userSpaceOnUse">
					<stop  offset="0" style="stop-color:#FF72A9"/>
					<stop  offset="1" style="stop-color:#FF72A9;stop-opacity:0"/>
				</radialGradient>
				<path fill="url(#SVGID_11_)" d="M93.507,76.683c-3.548,4.871-10.842,6.108-16.291,2.755c-5.446-3.354-6.985-10.021-3.438-14.9
					c3.548-4.874,10.841-6.106,16.288-2.757C95.514,65.138,97.054,71.807,93.507,76.683z"/>
				
					<radialGradient id="SVGID_12_" cx="-458.1562" cy="-235.9595" r="22.1899" gradientTransform="matrix(0.7984 0.4914 -0.6296 0.8651 327.9166 489.5641)" gradientUnits="userSpaceOnUse">
					<stop  offset="0" style="stop-color:#FFC29A"/>
					<stop  offset="1" style="stop-color:#FF723A;stop-opacity:0"/>
				</radialGradient>
				<path fill="url(#SVGID_12_)" d="M112.338,76.267c-3.548,4.871-10.84,6.106-16.287,2.756c-5.448-3.355-6.989-10.025-3.44-14.901
					c3.548-4.879,10.842-6.109,16.29-2.754C114.348,64.721,115.887,71.395,112.338,76.267z"/>
				
					<radialGradient id="SVGID_13_" cx="-482.1177" cy="-228.6641" r="26.2827" gradientTransform="matrix(0.7984 0.4914 -0.6296 0.8651 327.9166 489.5641)" gradientUnits="userSpaceOnUse">
					<stop  offset="0" style="stop-color:#FFC29A"/>
					<stop  offset="1" style="stop-color:#FF723A;stop-opacity:0"/>
				</radialGradient>
				<path fill="url(#SVGID_13_)" d="M93.582,78.057c-3.549,4.879-10.841,6.109-16.287,2.757c-5.448-3.355-6.988-10.022-3.439-14.897
					c3.548-4.875,10.84-6.109,16.288-2.756C95.589,66.514,97.131,73.183,93.582,78.057z"/>
			</g>
			<g>
				<g>
					
						<radialGradient id="SVGID_14_" cx="-690.9863" cy="-1207.3262" r="42.889" gradientTransform="matrix(-0.4773 0.9328 -0.9324 -0.3752 -1300.0833 251.0568)" gradientUnits="userSpaceOnUse">
						<stop  offset="0" style="stop-color:#FF0000"/>
						<stop  offset="0.1377" style="stop-color:#F50000"/>
						<stop  offset="0.3732" style="stop-color:#DA0000"/>
						<stop  offset="0.678" style="stop-color:#AD0000"/>
						<stop  offset="1" style="stop-color:#770000"/>
					</radialGradient>
					<path fill="url(#SVGID_14_)" d="M164.163,77.453c0.862-2.119,1.274-4.536,1.104-7.063c-0.512-7.647-6.133-13.454-12.557-12.976
						c-3.186,0.239-5.965,1.981-7.898,4.605c0,0-4.432-3.74-9.879-3.271c-6.43,0.553-11.213,7.068-10.703,14.708
						c0.166,2.512,0.885,4.82,2.002,6.776c7.184,12.609,20.285,18.034,20.285,18.034S158.634,91.001,164.163,77.453z"/>
				</g>
				<g opacity="0.3">
					<g>
						<path fill="#8A0036" d="M164.163,77.453c0.302-0.736,0.54-1.511,0.728-2.309c-5.248,14.32-17.986,19.081-17.986,19.081
							s-11.127-3.842-18.168-14.284c-6.023-8.931-2.346-20.045,7.13-21.214c-0.31-0.009-0.617-0.006-0.933,0.021
							c-6.422,0.479-11.213,7.068-10.701,14.708c0.166,2.512,0.885,4.82,2,6.776c7.186,12.609,20.287,18.034,20.287,18.034
							S158.634,91.001,164.163,77.453z"/>
					</g>
				</g>
				<g opacity="0.87">
					
						<radialGradient id="SVGID_15_" cx="-328.543" cy="-223.3149" r="37.4023" gradientTransform="matrix(0.7726 0.4914 -0.4732 0.672 298.0804 381.0478)" gradientUnits="userSpaceOnUse">
						<stop  offset="0" style="stop-color:#FFFFFF;stop-opacity:0"/>
						<stop  offset="0.1274" style="stop-color:#FDFCFD;stop-opacity:0.061"/>
						<stop  offset="0.2308" style="stop-color:#F6F2F5;stop-opacity:0.1105"/>
						<stop  offset="0.3258" style="stop-color:#EAE1E8;stop-opacity:0.1559"/>
						<stop  offset="0.4158" style="stop-color:#D9C9D6;stop-opacity:0.199"/>
						<stop  offset="0.5022" style="stop-color:#C3AABE;stop-opacity:0.2404"/>
						<stop  offset="0.586" style="stop-color:#A884A1;stop-opacity:0.2805"/>
						<stop  offset="0.6677" style="stop-color:#89567F;stop-opacity:0.3196"/>
						<stop  offset="0.7457" style="stop-color:#652358;stop-opacity:0.3569"/>
						<stop  offset="0.7939" style="stop-color:#4C003D;stop-opacity:0.38"/>
						<stop  offset="1" style="stop-color:#FFFFFF;stop-opacity:0"/>
					</radialGradient>
					<path fill="url(#SVGID_15_)" d="M164.163,77.453c0.862-2.119,1.274-4.536,1.104-7.063c-0.512-7.647-6.133-13.454-12.557-12.976
						c-3.564,0.27-6.626,2.416-8.561,5.589c-2.334-2.849-5.65-4.523-9.221-4.255c-6.422,0.479-11.213,7.068-10.701,14.708
						c0.166,2.512,0.883,4.82,2,6.776c7.186,12.609,20.287,18.034,20.287,18.034S158.634,91.001,164.163,77.453z"/>
				</g>
				
					<radialGradient id="SVGID_16_" cx="-326.0239" cy="-313.0547" r="19.734" gradientTransform="matrix(0.7726 0.4914 -0.6092 0.8651 221.6643 489.5641)" gradientUnits="userSpaceOnUse">
					<stop  offset="0" style="stop-color:#FF72A9"/>
					<stop  offset="1" style="stop-color:#FF72A9;stop-opacity:0"/>
				</radialGradient>
				<path fill="url(#SVGID_16_)" d="M161.914,72.729c-3.055,4.334-9.33,5.433-14.02,2.451c-4.688-2.984-6.014-8.915-2.959-13.249
					c3.053-4.334,9.33-5.432,14.018-2.449C163.643,62.462,164.965,68.396,161.914,72.729z"/>
				
					<radialGradient id="SVGID_17_" cx="-347.3325" cy="-306.5664" r="23.3725" gradientTransform="matrix(0.7726 0.4914 -0.6092 0.8651 221.6643 489.5641)" gradientUnits="userSpaceOnUse">
					<stop  offset="0" style="stop-color:#FF72A9"/>
					<stop  offset="1" style="stop-color:#FF72A9;stop-opacity:0"/>
				</radialGradient>
				<path fill="url(#SVGID_17_)" d="M145.773,74.327c-3.053,4.331-9.33,5.431-14.021,2.447c-4.688-2.982-6.012-8.911-2.958-13.247
					c3.055-4.335,9.328-5.433,14.018-2.453C147.501,64.06,148.826,69.991,145.773,74.327z"/>
				
					<radialGradient id="SVGID_18_" cx="-325.1963" cy="-312.1104" r="19.7331" gradientTransform="matrix(0.7726 0.4914 -0.6092 0.8651 221.6643 489.5641)" gradientUnits="userSpaceOnUse">
					<stop  offset="0" style="stop-color:#FFC29A"/>
					<stop  offset="1" style="stop-color:#FF723A;stop-opacity:0"/>
				</radialGradient>
				<path fill="url(#SVGID_18_)" d="M161.979,73.956c-3.054,4.331-9.326,5.432-14.016,2.451c-4.688-2.984-6.014-8.915-2.961-13.252
					c3.055-4.339,9.33-5.432,14.018-2.448C163.708,63.691,165.032,69.622,161.979,73.956z"/>
				
					<radialGradient id="SVGID_19_" cx="-346.5034" cy="-305.623" r="23.3736" gradientTransform="matrix(0.7726 0.4914 -0.6092 0.8651 221.6643 489.5641)" gradientUnits="userSpaceOnUse">
					<stop  offset="0" style="stop-color:#FFC29A"/>
					<stop  offset="1" style="stop-color:#FF723A;stop-opacity:0"/>
				</radialGradient>
				<path fill="url(#SVGID_19_)" d="M145.84,75.549c-3.055,4.339-9.33,5.432-14.018,2.452c-4.688-2.984-6.014-8.915-2.959-13.249
					c3.053-4.334,9.326-5.434,14.018-2.452C147.564,65.284,148.893,71.214,145.84,75.549z"/>
			</g>
			
				<radialGradient id="SVGID_20_" cx="213.2363" cy="872.5166" r="73.3339" gradientTransform="matrix(1 0 0 1.0645 -100 -810.8058)" gradientUnits="userSpaceOnUse">
				<stop  offset="0.3804" style="stop-color:#FFE300"/>
				<stop  offset="1" style="stop-color:#F7941E"/>
			</radialGradient>
			<path fill="url(#SVGID_20_)" d="M112.736,122.42c-19.441,1.168-43.693-5.677-54.167-18.357
				c0.666,36.979,10.176,61.824,49.676,61.824c43.67,0,51.797-30.66,52.356-62.662C153.109,113.598,136.385,121,112.736,122.42z"/>
			<path fill="#603913" d="M116.205,116.021c-19.441,1.086-42.599-3.217-56.969-14.731c0.561,29.754,10.762,55.761,49.01,55.905
				c42.753,0.164,51.461-26.838,52.656-60.854C153.408,105.986,139.854,114.701,116.205,116.021z"/>
			
				<radialGradient id="SVGID_21_" cx="207.4131" cy="623.7354" r="42.1555" gradientTransform="matrix(1 0 0 0.9678 -100 -480.3381)" gradientUnits="userSpaceOnUse">
				<stop  offset="0" style="stop-color:#FFFFFF"/>
				<stop  offset="0.3806" style="stop-color:#FDFDFE"/>
				<stop  offset="0.5705" style="stop-color:#F5F8F9"/>
				<stop  offset="0.7181" style="stop-color:#E8EEF1"/>
				<stop  offset="0.844" style="stop-color:#D5E0E5"/>
				<stop  offset="0.955" style="stop-color:#BDCED6"/>
				<stop  offset="1" style="stop-color:#B1C5CF"/>
			</radialGradient>
			<path fill="url(#SVGID_21_)" d="M113.082,119.188c-19.441,1.062-41.42-5.799-52.485-15.67
				c0.562,29.099,9.704,52.491,47.649,52.491c44.499,0,47.088-23.395,47.648-52.489C148.4,112.951,136.73,117.896,113.082,119.188z"
				/>
			
				<radialGradient id="SVGID_22_" cx="208.3184" cy="723.1719" r="35.9117" gradientTransform="matrix(1 0 0 1 -100 -591)" gradientUnits="userSpaceOnUse">
				<stop  offset="0" style="stop-color:#830000"/>
				<stop  offset="1" style="stop-color:#531C00"/>
			</radialGradient>
			<path fill="url(#SVGID_22_)" d="M61.148,113.391c0,0-1.326,4.129,18.768,11.299c14.373,5.127,29.671,5.074,29.671,5.074
				s35.996,1.258,45.918-15.272c0,0-0.351,17.379-6.739,26.675c0,0-10.635,9.787-37.184,9.787c-29.5,0-40.701-8.803-40.701-8.803
				S61.148,130.357,61.148,113.391z"/>
			<path fill="#603913" d="M66.902,100.342c0,0-8.999-0.496-13.332,3.252c-4.334,3.748,0.666,0.119,2.832,0.184
				c2.168,0.064,6-2.338,10.5-0.971c4.5,1.368,3.834,1.534,4.5,1.368C72.07,104.009,71.736,101.009,66.902,100.342z"/>
			<path fill="#603913" d="M162.292,98.635c0,0-0.687-3.786-4.706-2.689c-4.02,1.096-2.252,2.514-0.41,1.667
				C159.018,96.764,162.292,98.635,162.292,98.635z"/>
			
				<radialGradient id="SVGID_23_" cx="-68.687" cy="1321.0264" r="57.0392" fx="-73.274" fy="1298.2493" gradientTransform="matrix(0.8999 0.054 -0.0869 0.4118 298.3831 -384.9685)" gradientUnits="userSpaceOnUse">
				<stop  offset="0.1288" style="stop-color:#FF8177"/>
				<stop  offset="0.2355" style="stop-color:#FF3F3A"/>
				<stop  offset="0.3197" style="stop-color:#FF1210"/>
				<stop  offset="0.362" style="stop-color:#FF0000"/>
				<stop  offset="0.4176" style="stop-color:#F60000"/>
				<stop  offset="0.5079" style="stop-color:#DE0000"/>
				<stop  offset="0.6215" style="stop-color:#B70000"/>
				<stop  offset="0.7485" style="stop-color:#830000"/>
			</radialGradient>
			<path fill="url(#SVGID_23_)" d="M86.215,147.662c0,0,5.164-10.787,16.701-8.475c5.4,1.084,8.167,1.383,13.25-0.084
				c8.084-2.332,16.887,3.164,20.75,6.881c6.555,6.305,8.234,12.107,8.311,18.189c0.099,7.77-8.609,14.616-18.436,14.768
				c-14.127,0.218-20.398-4.534-24.98-17.209C97.916,150.961,86.215,147.662,86.215,147.662z"/>
			<g>
				
					<radialGradient id="SVGID_24_" cx="-658.877" cy="1460.2754" r="23.4487" fx="-660.7626" fy="1450.9117" gradientTransform="matrix(0.2559 -0.9667 0.4083 0.1081 -309.3695 -633.2657)" gradientUnits="userSpaceOnUse">
					<stop  offset="0" style="stop-color:#FF0000"/>
					<stop  offset="0.144" style="stop-color:#F60000"/>
					<stop  offset="0.3775" style="stop-color:#DE0000"/>
					<stop  offset="0.6716" style="stop-color:#B70000"/>
					<stop  offset="1" style="stop-color:#830000"/>
				</radialGradient>
				<path fill="url(#SVGID_24_)" d="M103.452,139.15c0,0,7.353,0.037,14.631,6.703c7.278,6.668,9.833,15.75,9.833,15.75
					s-1.75-9.75-6.416-15.166c-5.158-5.984-9.874-6.48-9.874-6.48S110.068,140.48,103.452,139.15z"/>
			</g>
		</g>
	</g>
</g>
<g id="outline_x5F_white">
	<g>
		<g>
			<path fill="#FFFFFF" d="M99.126,32.879c14.834,0,28.519,4.912,39.522,13.194c3.115,1.302,5.781,3.699,7.648,6.756
				c1.537,1.582,2.992,3.241,4.365,4.97c0.134-0.039,0.271-0.07,0.404-0.104c0.133-0.032,0.262-0.075,0.396-0.103
				c0.409-0.083,0.824-0.146,1.249-0.178c0.248-0.019,0.494-0.027,0.74-0.027c6.107,0,11.322,5.651,11.814,13.003
				c0.113,1.698-0.056,3.337-0.428,4.878c0.016-0.041,0.033-0.081,0.049-0.123c-0.031,0.134-0.072,0.262-0.105,0.394
				c-0.043,0.163-0.086,0.325-0.133,0.485c-0.144,0.488-0.301,0.969-0.487,1.43c-0.504,1.234-1.062,2.416-1.663,3.545
				c0.506,1.816,0.938,3.663,1.285,5.539c1.156,1.278,2.154,2.957,2.617,5.139c1.227,5.79-2.17,16.525-2.17,16.525
				s0.15-0.812,0.25-2.032c-0.885,7.811-3.139,15.2-6.514,21.936c-2.414,10.625-6.828,20.024-14.59,26.793
				c1.336,3.091,1.807,6.147,1.846,9.278c0.098,7.769-8.611,14.616-18.436,14.767c-0.307,0.007-0.607,0.009-0.905,0.009
				c-11.924,0-18.071-3.775-22.434-13.209c-4.386-0.244-8.374-0.821-11.979-1.728c-32.731-3.793-58.144-31.591-58.144-65.34
				C33.33,62.337,62.787,32.879,99.126,32.879 M99.126,20.879c-42.897,0-77.796,34.899-77.796,77.796
				c0,39.244,29.175,72.282,67.994,77.166c2.166,0.515,4.441,0.935,6.81,1.255c6.513,9.418,16.132,13.854,29.753,13.854
				c0.358,0,0.723-0.005,1.09-0.009c16.575-0.254,30.431-12.58,30.25-26.916c-0.022-1.977-0.18-3.868-0.467-5.695
				c5.807-6.939,10.024-15.705,12.582-26.159c3.219-6.733,5.432-13.85,6.6-21.211c1.209-4.03,3.815-14.149,2.203-21.769
				c-0.552-2.604-1.508-5.023-2.856-7.232c0.317-0.783,0.608-1.627,0.886-2.572c0.07-0.24,0.139-0.49,0.204-0.742
				c0.075-0.266,0.144-0.516,0.201-0.771l-0.021-0.006c0.642-2.739,0.869-5.525,0.686-8.284
				c-0.846-12.659-10.002-22.764-21.326-24.058c-0.052-0.056-0.104-0.111-0.154-0.167c-2.854-4.218-6.604-7.524-10.976-9.673
				C131.443,25.994,115.688,20.879,99.126,20.879L99.126,20.879z"/>
		</g>
	</g>
</g>
<g id="outline_x5F_black">
	<path d="M172.275,90.432c-0.508-2.395-1.478-4.578-2.891-6.511c-0.158-0.756-0.328-1.512-0.512-2.264
		c0.3-0.644,0.582-1.292,0.846-1.938c0.249-0.607,0.469-1.249,0.693-2.015c0.062-0.22,0.124-0.445,0.184-0.671
		c0.051-0.175,0.098-0.348,0.139-0.526l-0.019-0.005c0.505-2.16,0.687-4.351,0.54-6.516c-0.695-10.428-8.516-18.6-17.802-18.6
		c-0.001,0-0.002,0-0.003,0c-0.105,0-0.213,0.001-0.32,0.003c-0.682-0.778-1.378-1.541-2.084-2.281
		c-2.393-3.681-5.604-6.512-9.354-8.25c-12.402-9.148-27.104-13.979-42.567-13.979c-39.589,0-71.796,32.208-71.796,71.796
		c0,36.324,27.086,66.888,63.066,71.253c2.876,0.701,5.979,1.217,9.265,1.538c5.423,9.411,13.46,13.483,26.226,13.483
		c0.328,0,0.661-0.002,0.997-0.008c13.334-0.205,24.481-9.748,24.345-20.84c-0.035-2.679-0.347-5.162-0.944-7.51
		c6.362-6.656,10.758-15.357,13.377-26.453c3.174-6.498,5.327-13.387,6.419-20.521C170.924,106.863,173.676,97.046,172.275,90.432z
		 M164.23,108.202c0,0,0.15-0.812,0.25-2.032c-0.885,7.811-3.139,15.2-6.514,21.936c-2.19,9.643-6.038,18.268-12.53,24.841
		c-0.692-0.712-2.19-2.238-3.604-3.591c-1.917-1.834-6.364-4.537-6.364-4.537s1.447,1.166,4.043,3.932
		c2.589,2.76,3.863,6.132,3.869,6.146c-0.002,0.001-0.003,0.002-0.004,0.003c1.336,3.091,1.807,6.147,1.846,9.278
		c0.098,7.769-8.611,14.616-18.436,14.767c-0.307,0.007-0.607,0.009-0.905,0.009c-11.924,0-18.071-3.775-22.434-13.209
		c-0.004,0-0.008-0.001-0.013-0.001l0.017-0.002c0,0-1.731-6.096-5.384-10.365s-7.402-6.02-7.402-6.02s5.5,3.832,7.334,9
		c1.228,3.46,1.315,5.83,1.239,7.022c-2.759-0.311-5.358-0.756-7.77-1.362c-32.731-3.793-58.144-31.591-58.144-65.34
		c0.005-36.339,29.462-65.797,65.801-65.797c14.834,0,28.519,4.912,39.522,13.194c3.115,1.302,5.781,3.699,7.648,6.756
		c1.537,1.582,2.992,3.241,4.365,4.97c0.134-0.039,0.271-0.07,0.404-0.104c0.133-0.032,0.262-0.075,0.396-0.103
		c0.409-0.083,0.824-0.146,1.249-0.178c0.248-0.019,0.494-0.027,0.74-0.027c6.107,0,11.322,5.651,11.814,13.003
		c0.113,1.698-0.056,3.337-0.428,4.878c0.016-0.041,0.033-0.081,0.049-0.123c-0.031,0.134-0.072,0.262-0.105,0.394
		c-0.043,0.163-0.086,0.325-0.133,0.485c-0.144,0.488-0.301,0.969-0.487,1.43c-0.504,1.234-1.062,2.416-1.663,3.545
		c0.506,1.816,0.938,3.663,1.285,5.539c1.156,1.278,2.154,2.957,2.617,5.139C167.627,97.467,164.23,108.202,164.23,108.202z"/>
</g>
</svg>
