<?xml version="1.0" encoding="utf-8"?>
<!-- Generator: Adobe Illustrator 15.0.0, SVG Export Plug-In . SVG Version: 6.00 Build 0)  -->
<!DOCTYPE svg PUBLIC "-//W3C//DTD SVG 1.1//EN" "http://www.w3.org/Graphics/SVG/1.1/DTD/svg11.dtd">
<svg version="1.1" xmlns="http://www.w3.org/2000/svg" xmlns:xlink="http://www.w3.org/1999/xlink" x="0px" y="0px" width="200px"
	 height="200px" viewBox="0 0 200 200" enable-background="new 0 0 200 200" xml:space="preserve">
<g id="icon">
	<g id="Layer_2">
	</g>
	<g id="Layer_1_1_">
		<g>
			
				<radialGradient id="SVGID_1_" cx="205.2529" cy="691.7695" r="72.3338" fx="205.5756" fy="695.557" gradientTransform="matrix(1 0 0 1 -100 -591)" gradientUnits="userSpaceOnUse">
				<stop  offset="0.3804" style="stop-color:#FFE300"/>
				<stop  offset="1" style="stop-color:#F7941E"/>
			</radialGradient>
			<circle fill="url(#SVGID_1_)" cx="100" cy="114.644" r="65.796"/>
			<path fill="#603913" d="M120.355,145.777c-15.479,2.019-34.522-2.629-45.456-12.502c-1.913-1.728-3.601-0.096-4.397,0.697
				c13.26,14.328,34.06,23.721,55.767,18.268c19.41-4.877,28.002-18.924,29.812-28.965c-0.604,0.977-1.795-0.564-2.158,0.543
				C150.499,134.247,140.134,143.201,120.355,145.777z"/>
			
				<radialGradient id="SVGID_2_" cx="632.0879" cy="970.625" r="36.5488" gradientTransform="matrix(0.9285 -0.0642 0.069 0.9976 -539.581 -784.0962)" gradientUnits="userSpaceOnUse">
				<stop  offset="0.3804" style="stop-color:#FFE300"/>
				<stop  offset="1" style="stop-color:#F7941E"/>
			</radialGradient>
			<path fill="url(#SVGID_2_)" d="M125.803,159.746c-22.244,4.376-39.333-2.77-57.19-24.669c-1.645-2.019,2.688-1.897,1.892-1.104
				c13.26,14.329,34.058,23.721,55.765,18.269c19.41-4.877,28.002-18.925,29.814-28.966c-0.602,0.978,2.35,0.574,2.314,1.752
				C158.085,135.645,146.102,155.752,125.803,159.746z"/>
			<path fill="#603913" d="M78.126,130.977c0,0-8.391,0.084-12.156,4.102c-3.766,4.018,0.627,0.074,2.643,0.001
				c2.018-0.074,5.41-2.72,9.684-1.644c4.272,1.075,3.665,1.284,4.272,1.075C83.176,134.303,82.659,131.33,78.126,130.977z"/>
			<path fill="#603913" d="M159.111,125.354c0,0-0.897-3.731-4.555-2.381c-3.658,1.353-1.918,2.652-0.268,1.689
				C155.941,123.695,159.111,125.354,159.111,125.354z"/>
			
				<radialGradient id="SVGID_3_" cx="236.2539" cy="698.0352" r="36.5691" gradientTransform="matrix(1 0 0 1 -100.0952 -591.0371)" gradientUnits="userSpaceOnUse">
				<stop  offset="0.3804" style="stop-color:#FFE300"/>
				<stop  offset="1" style="stop-color:#F7941E"/>
			</radialGradient>
			<path fill="url(#SVGID_3_)" d="M151.883,114.447c0.926-2.41,4.26-3.342,4.26-3.342s6.405,1.672,7.758,8.062
				c1.119,5.284-1.979,15.082-1.979,15.082s2.657-14.17-7.609-12.345C152.023,122.312,150.686,117.566,151.883,114.447z"/>
			
				<radialGradient id="SVGID_4_" cx="171.8477" cy="689.4639" r="46.9541" gradientTransform="matrix(1 0 0 1 -100 -591)" gradientUnits="userSpaceOnUse">
				<stop  offset="0.3804" style="stop-color:#FFE300"/>
				<stop  offset="1" style="stop-color:#F7941E"/>
			</radialGradient>
			<path fill="url(#SVGID_4_)" d="M84.07,133.044c0,0-4.333-16.132-11-16.299s-16.586,4.427-19.333,14.501
				c-4,14.666,1.333,3.167,11.5,0.333c10.166-2.834,13.232-1.683,15.398-0.769C82.803,131.725,84.07,133.044,84.07,133.044z"/>
			<g>
				<path fill="#603913" d="M96.526,94.81c0,0-0.224-0.015-0.62-0.015c-1.722,0-6.114,0.269-9.721,2.762
					c-3.273,2.264-6.687,7.128-6.353,10.25c0.126,1.187,0.785,2.107,1.809,2.53c0.426,0.177,0.855,0.267,1.275,0.267
					c1.857,0,2.746-1.539,3.461-2.775c0.596-1.032,1.271-2.202,2.525-3.198c2.963-2.354,4.8-2.62,8.036-2.634
					c2.402,0,4.233,1.646,5.146,3.188c0.402,0.682,0.525,1.194,0.643,1.692c0.174,0.729,0.633,2.675,3.039,2.675l0,0
					c0.275,0,0.582-0.023,0.938-0.074c1.397-0.201,2.448-0.961,2.96-2.142c1.016-2.345-0.57-5.176-1.605-6.653
					C105.723,97.343,102.859,95.067,96.526,94.81z"/>
				<path fill="#603913" d="M149.861,97.043c-1.721-2.952-4.119-5.724-9.918-6.008c0,0-0.202-0.016-0.562-0.016
					c-1.493,0-5.306,0.279-8.423,2.869c-3.034,2.52-5.604,7.486-5.283,10.221c0.174,1.488,1.062,2.14,1.578,2.396
					c0.432,0.214,0.873,0.322,1.314,0.322c1.843,0,2.617-1.613,3.24-2.909c0.498-1.033,1.062-2.203,2.088-3.186
					c2.49-2.378,3.953-2.501,6.345-2.516c1.78,0,3.192,1.575,3.921,3.053c0.349,0.705,0.458,1.264,0.556,1.756
					c0.147,0.75,0.541,2.748,2.871,2.748l0,0c0.265,0,0.556-0.027,0.886-0.086c1.18-0.203,2.1-0.893,2.586-1.938
					C152.148,101.418,150.585,98.283,149.861,97.043z"/>
			</g>
			<path fill="#603913" d="M148.434,70.119c-3.418-3.715-7.254-7.037-11.438-9.888c-8.591,5.048-21.238,8.399-35.39,8.481
				C86.32,68.799,72.729,65.134,64.11,59.51c-4.562,2.976-8.734,6.496-12.418,10.479C62.121,78.82,80.117,84.6,100.551,84.484
				C120.46,84.369,137.992,78.688,148.434,70.119z"/>
			<g>
				
					<radialGradient id="SVGID_5_" cx="1691.4922" cy="6307.4541" r="47.7345" gradientTransform="matrix(-0.5163 -0.53 0.8564 -0.3237 -4432.0605 2985.1091)" gradientUnits="userSpaceOnUse">
					<stop  offset="0.0859" style="stop-color:#FFFAFF"/>
					<stop  offset="0.3558" style="stop-color:#FFFFFF"/>
					<stop  offset="1" style="stop-color:#3DC0FF"/>
				</radialGradient>
				<path fill="url(#SVGID_5_)" d="M100.198,19.567c-28.989,0.166-52.415,13.412-52.322,29.584
					c0.094,16.174,23.67,29.149,52.658,28.984c28.989-0.167,52.414-13.413,52.319-29.587
					C152.764,32.376,129.188,19.401,100.198,19.567z M100.458,64.865c-22.103,0.127-40.066-8.192-40.123-18.124
					c-0.055-9.41,17.812-17.874,39.916-18.002c22.104-0.127,40.063,8.308,40.116,17.543
					C140.423,56.039,122.562,64.739,100.458,64.865z"/>
				
					<radialGradient id="SVGID_6_" cx="1697.5498" cy="6320.8711" r="34.1594" gradientTransform="matrix(-0.5163 -0.53 0.8564 -0.3237 -4432.0605 2985.1091)" gradientUnits="userSpaceOnUse">
					<stop  offset="0.0859" style="stop-color:#FFFAFF"/>
					<stop  offset="0.3558" style="stop-color:#FFFFFF"/>
					<stop  offset="1" style="stop-color:#0DB0FF"/>
				</radialGradient>
				<path fill="url(#SVGID_6_)" d="M100.198,19.567c-28.989,0.166-47.098,11.2-45.542,27.338
					c1.298,13.455,28.921,20.428,44.44,20.346c28.988-0.15,51.113-10.588,50.013-26.745
					C148.468,31.069,129.188,19.401,100.198,19.567z M100.458,64.865c-22.103,0.127-40.066-8.192-40.123-18.124
					c-0.055-9.41,17.812-17.874,39.916-18.002c22.104-0.127,40.063,8.308,40.116,17.543
					C140.423,56.039,122.562,64.739,100.458,64.865z"/>
				
					<radialGradient id="SVGID_7_" cx="1630.8408" cy="6313.5908" r="23.1075" gradientTransform="matrix(-0.5163 -0.53 0.8564 -0.3237 -4432.0605 2985.1091)" gradientUnits="userSpaceOnUse">
					<stop  offset="0.0245" style="stop-color:#CAFAFF"/>
					<stop  offset="1" style="stop-color:#C7FAFF;stop-opacity:0"/>
				</radialGradient>
				<path fill="url(#SVGID_7_)" d="M100.198,19.567c-28.989,0.166-52.415,13.412-52.322,29.584
					c0.094,16.174,23.67,29.149,52.658,28.984c28.989-0.167,52.414-13.413,52.319-29.587
					C152.764,32.376,129.188,19.401,100.198,19.567z M100.458,64.865c-22.103,0.127-40.066-8.192-40.123-18.124
					c-0.055-9.41,17.812-17.874,39.916-18.002c22.104-0.127,40.063,8.308,40.116,17.543
					C140.423,56.039,122.562,64.739,100.458,64.865z"/>
				
					<radialGradient id="SVGID_8_" cx="2215.125" cy="6564.5781" r="12.7642" gradientTransform="matrix(-0.5159 -0.4602 0.8566 -0.2819 -4432.7861 2921.3992)" gradientUnits="userSpaceOnUse">
					<stop  offset="0.0245" style="stop-color:#BDFAFF"/>
					<stop  offset="1" style="stop-color:#B1FAFF;stop-opacity:0"/>
				</radialGradient>
				<path fill="url(#SVGID_8_)" d="M100.237,25.911c-28.989,0.166-51.409,8.888-51.328,22.939
					c0.081,14.054,22.63,28.115,51.62,27.949s52.041-14.196,51.959-28.25C152.41,34.498,129.227,25.745,100.237,25.911z
					 M100.464,65.271c-22.104,0-42.338-10.895-42.387-19.524c-0.048-8.177,20.103-17.872,42.207-18
					c22.104-0.127,41.914,9.643,41.959,17.667C142.292,53.891,126.684,65.271,100.464,65.271z"/>
				
					<radialGradient id="SVGID_9_" cx="1677.7695" cy="6277.1328" r="149.935" gradientTransform="matrix(-0.5163 -0.53 0.8564 -0.3237 -4432.0605 2985.1091)" gradientUnits="userSpaceOnUse">
					<stop  offset="0.0859" style="stop-color:#C0EBFF"/>
					<stop  offset="0.3558" style="stop-color:#9FE1FF"/>
					<stop  offset="1" style="stop-color:#3DC0FF"/>
				</radialGradient>
				<path fill="url(#SVGID_9_)" d="M101.129,19.562c-27.271,0.156-49.315,11.326-49.237,24.946
					c0.078,13.622,22.249,24.536,49.521,24.38c27.272-0.156,49.315-11.324,49.239-24.947C150.57,30.319,128.4,19.405,101.129,19.562
					z M101.484,63.905c-23.438,0.133-42.488-9.5-42.556-20.993c-0.062-10.886,18.877-20.671,42.316-20.806
					c23.438-0.135,42.488,9.633,42.549,20.318C143.857,53.713,124.926,63.771,101.484,63.905z"/>
			</g>
		</g>
	</g>
</g>
<g id="outline_x5F_white">
	<g>
		<path fill="#FFFFFF" d="M137.861,52.576c0.104-0.129,0.204-0.258,0.303-0.388c0.151-0.199,0.3-0.399,0.437-0.601
			c0.03-0.044,0.056-0.089,0.085-0.133c1.094-1.66,1.691-3.397,1.682-5.172c-0.053-9.167-17.745-17.545-39.624-17.544
			c-0.163,0-0.33,0-0.493,0.001c-22.104,0.128-39.971,8.592-39.916,18.002c0.004,0.617,0.076,1.229,0.215,1.832
			c1.697,2.955,4.671,5.661,8.603,7.952c0,0,0.001,0,0.002-0.001l0,0c0.002-0.001,0.004-0.002,0.007-0.003
			c0.622-0.331,1.25-0.649,1.883-0.96c0.197-0.097,0.397-0.189,0.596-0.284c0.444-0.213,0.891-0.424,1.34-0.626
			c0.229-0.104,0.46-0.203,0.69-0.304c0.434-0.19,0.869-0.376,1.308-0.557c0.227-0.093,0.454-0.185,0.681-0.275
			c0.465-0.185,0.932-0.365,1.402-0.54c0.198-0.074,0.396-0.148,0.595-0.22c0.548-0.198,1.099-0.388,1.653-0.572
			c0.122-0.041,0.243-0.083,0.365-0.123c2.146-0.696,4.339-1.287,6.575-1.763c0,0-0.001,0-0.001,0
			c4.435-0.946,9.034-1.449,13.752-1.449c5.062,0,9.988,0.574,14.721,1.658c-0.012,0.003-0.023,0.006-0.035,0.008
			c3.032,0.692,5.985,1.592,8.842,2.684c0.041,0.016,0.081,0.031,0.122,0.047c0.631,0.243,1.257,0.497,1.878,0.759
			c0.112,0.047,0.224,0.093,0.335,0.141c0.553,0.236,1.099,0.481,1.643,0.731c0.15,0.069,0.303,0.137,0.453,0.208
			c0.526,0.247,1.047,0.504,1.565,0.765c0.146,0.073,0.292,0.143,0.437,0.217c0.652,0.334,1.3,0.678,1.939,1.033
			c1.336-0.709,2.59-1.456,3.729-2.245c0.018-0.015,0.032-0.03,0.049-0.045c0.322-0.277,0.627-0.56,0.917-0.844
			c0.129-0.125,0.247-0.253,0.369-0.379c0.165-0.172,0.327-0.344,0.481-0.518C137.59,52.904,137.728,52.741,137.861,52.576z"/>
		<path fill="#FFFFFF" d="M159.831,65.007c3.304-5.125,5.058-10.735,5.024-16.527c-0.033-6.1-2.062-12.142-5.875-17.517
			C150.566,16.718,128.23,7.56,101.708,7.56l-0.647,0.001c-0.156,0.001-0.311,0.004-0.465,0.008h-0.02l-0.335-0.002h-0.036h-0.078
			C87.211,7.642,75.979,9.63,66.74,13.478C47.324,20.876,35.791,34.227,35.876,49.22c0.032,5.496,1.589,10.727,4.519,15.52
			c-11.343,13.516-18.19,30.92-18.19,49.905c0,42.896,34.899,77.795,77.797,77.795c42.896,0,77.795-34.898,77.795-77.795
			C177.796,95.785,171.039,78.484,159.831,65.007z M100.001,180.439c-36.34,0-65.797-29.457-65.797-65.795
			c0-15.684,5.508-30.066,14.67-41.368c0.332-0.409,0.665-0.816,1.006-1.217c0.38-0.446,0.769-0.885,1.161-1.321
			c0.32-0.356,0.637-0.715,0.964-1.064c0.463-0.494,0.939-0.974,1.417-1.454c0.277-0.278,0.548-0.563,0.831-0.837
			c0.745-0.721,1.505-1.425,2.282-2.111c0.028-0.024,0.054-0.05,0.081-0.074c-0.017-0.014-0.033-0.029-0.05-0.043
			c-0.371-0.312-0.73-0.628-1.08-0.948c-0.11-0.101-0.216-0.203-0.324-0.305c-0.262-0.246-0.518-0.494-0.767-0.744
			c-0.104-0.104-0.205-0.208-0.306-0.313c-0.266-0.275-0.524-0.554-0.773-0.834c-0.064-0.072-0.13-0.144-0.194-0.216
			c-1.664-1.909-2.966-3.936-3.855-6.054c-0.002,0.002-0.004,0.003-0.006,0.005c-0.891-2.117-1.371-4.324-1.384-6.595
			c-0.059-10.181,9.208-19.198,23.31-24.526c7.555-3.18,17.408-4.991,29.012-5.058c0.014,0,0.028,0,0.042,0
			c0.121,0,0.241,0.003,0.359,0.003c0.015,0,0.027,0,0.041,0c0.162-0.001,0.323-0.008,0.486-0.009c0.194,0.001,0.385,0,0.579,0
			c22.534,0,41.478,7.562,47.179,17.923c2.53,3.406,3.946,7.14,3.969,11.064c0.016,2.628-0.599,5.176-1.75,7.604
			c-0.177,0.375-0.367,0.746-0.57,1.115c-0.016,0.028-0.029,0.057-0.045,0.085c-0.441,0.793-0.942,1.572-1.498,2.335
			c-0.07,0.097-0.146,0.193-0.22,0.289c-0.203,0.271-0.411,0.541-0.629,0.808c-0.104,0.127-0.211,0.253-0.318,0.38
			c-0.198,0.235-0.402,0.469-0.612,0.701c-0.121,0.133-0.243,0.267-0.367,0.398c-0.212,0.226-0.43,0.449-0.652,0.672
			c-0.128,0.128-0.255,0.257-0.387,0.384c-0.243,0.235-0.495,0.467-0.749,0.698c-0.118,0.107-0.233,0.216-0.354,0.323
			c-0.379,0.334-0.768,0.665-1.169,0.99c0.8,0.707,1.579,1.436,2.343,2.18c0.299,0.291,0.585,0.593,0.878,0.889
			c0.452,0.457,0.903,0.914,1.342,1.383c0.354,0.379,0.696,0.769,1.041,1.156c0.354,0.398,0.708,0.797,1.053,1.204
			c0.371,0.438,0.734,0.883,1.094,1.33c9.066,11.272,14.511,25.579,14.511,41.171C165.796,150.982,136.339,180.439,100.001,180.439z
			"/>
	</g>
</g>
<g id="outline_x5F_black">
	<g>
		<path d="M100.743,28.739c-0.163,0-0.33,0-0.493,0.001c-22.104,0.128-39.971,8.592-39.916,18.002
			c0.004,0.617,0.076,1.229,0.215,1.832c0.817,1.422,1.937,2.785,3.31,4.074c-0.001,0-0.002,0.001-0.003,0.002
			c0.016,0.015,0.034,0.029,0.049,0.043c0.275,0.257,0.567,0.509,0.863,0.759c0.1,0.084,0.192,0.17,0.294,0.254
			c0.323,0.265,0.662,0.524,1.007,0.782c0.084,0.063,0.163,0.129,0.25,0.191c0.878,0.641,1.823,1.258,2.833,1.847
			c2.264-1.204,4.609-2.272,7.02-3.21c-0.003-0.001-0.006-0.003-0.009-0.004c7.392-2.878,15.429-4.463,23.839-4.463
			c8.811,0,17.21,1.742,24.888,4.886l0,0c1.203,0.492,2.389,1.018,3.555,1.578c0.011,0.005,0.021,0.01,0.03,0.015
			c1.161,0.558,2.305,1.148,3.427,1.771c1.336-0.709,2.59-1.456,3.729-2.245c0.058-0.049,0.106-0.1,0.162-0.15
			c0.244-0.214,0.482-0.43,0.706-0.649c2.488-2.399,3.886-5.042,3.87-7.771C140.314,37.116,122.622,28.738,100.743,28.739z
			 M100.001,42.848c-10.861,0-21.158,2.44-30.393,6.78c-1.367-1.021-2.475-2.076-3.257-3.133c0.204-1.391,2.441-4.174,8.131-6.78
			c6.782-3.106,16.187-4.919,25.804-4.975l0.458-0.001c21.799-0.001,33.605,8.218,33.624,11.578
			c0.006,1.037-0.872,2.406-2.419,3.786c-0.075,0.051-0.158,0.097-0.234,0.148C122.145,45.518,111.38,42.848,100.001,42.848z"/>
		<path d="M152.133,65.375c4.42-5.076,6.757-10.815,6.723-16.862c-0.026-5.009-1.683-9.815-4.916-14.288
			c-7.127-12.377-28.028-20.665-52.231-20.665l-0.612,0.001c-0.121,0.001-0.238,0.003-0.354,0.006l-0.137,0.002l-0.104-0.001
			l-0.262-0.002h-0.019h-0.059c-12.001,0.069-22.786,1.965-31.199,5.484c-17.034,6.466-27.158,17.725-27.086,30.135
			c0.033,5.719,2.183,11.145,6.206,15.971c-12.296,12.889-19.879,30.311-19.879,49.488c0,39.588,32.208,71.795,71.797,71.795
			c39.588,0,71.795-32.207,71.795-71.795C171.796,95.577,164.303,78.243,152.133,65.375z M100.001,180.439
			c-36.34,0-65.797-29.457-65.797-65.795c0-18.11,7.339-34.487,19.179-46.383c0.292-0.293,0.576-0.592,0.873-0.879
			c0.743-0.719,1.5-1.422,2.276-2.105c0.029-0.025,0.056-0.053,0.085-0.078c-0.023-0.02-0.045-0.04-0.068-0.06
			c-0.351-0.294-0.691-0.593-1.022-0.895c-0.106-0.097-0.208-0.196-0.312-0.293c-0.251-0.235-0.5-0.472-0.739-0.712
			c-0.098-0.098-0.193-0.197-0.289-0.296c-0.245-0.252-0.485-0.505-0.717-0.762c-0.076-0.083-0.15-0.167-0.225-0.251
			c-0.254-0.288-0.5-0.578-0.738-0.871c-2.946-3.629-4.604-7.657-4.629-11.91c-0.059-10.181,9.208-19.198,23.31-24.526
			c7.555-3.18,17.408-4.991,29.012-5.058c0.014,0,0.027,0,0.041,0c0.122,0,0.241,0.003,0.36,0.003c0.016,0,0.027,0,0.041,0
			c0.164-0.001,0.324-0.008,0.487-0.009c0.192,0.001,0.386,0,0.578,0c22.536,0,41.478,7.562,47.179,17.923
			c2.53,3.406,3.946,7.14,3.969,11.064c0.027,4.624-1.877,9.005-5.277,12.912c-0.089,0.102-0.18,0.202-0.27,0.302
			c-0.213,0.237-0.428,0.473-0.65,0.706c-0.102,0.106-0.208,0.211-0.312,0.316c-0.215,0.219-0.432,0.437-0.656,0.652
			c-0.16,0.153-0.327,0.303-0.492,0.454c-0.18,0.166-0.357,0.332-0.543,0.496c-0.363,0.319-0.735,0.635-1.119,0.945
			c0.798,0.705,1.576,1.434,2.339,2.176c0.321,0.313,0.631,0.639,0.946,0.959c11.72,11.879,18.976,28.172,18.976,46.179
			C165.796,150.982,136.339,180.439,100.001,180.439z"/>
	</g>
</g>
</svg>
