<?xml version="1.0" encoding="utf-8"?>
<!-- Generator: Adobe Illustrator 15.0.0, SVG Export Plug-In . SVG Version: 6.00 Build 0)  -->
<!DOCTYPE svg PUBLIC "-//W3C//DTD SVG 1.1//EN" "http://www.w3.org/Graphics/SVG/1.1/DTD/svg11.dtd">
<svg version="1.1" xmlns="http://www.w3.org/2000/svg" xmlns:xlink="http://www.w3.org/1999/xlink" x="0px" y="0px" width="200px"
	 height="200px" viewBox="0 0 200 200" enable-background="new 0 0 200 200" xml:space="preserve">
<g id="icon">
	<g id="Layer_2">
	</g>
	<g id="Layer_1_1_">
		<g>
			<g>
				
					<linearGradient id="SVGID_1_" gradientUnits="userSpaceOnUse" x1="1652.666" y1="-1350.1338" x2="1632.5734" y2="-1385.2286" gradientTransform="matrix(-0.5962 -0.8028 -0.8028 0.5962 -14.2082 2259.7427)">
					<stop  offset="0" style="stop-color:#AB7330"/>
					<stop  offset="0.1574" style="stop-color:#A66E30"/>
					<stop  offset="0.3431" style="stop-color:#986131"/>
					<stop  offset="0.543" style="stop-color:#804B32"/>
					<stop  offset="0.7517" style="stop-color:#5F2C34"/>
					<stop  offset="0.8182" style="stop-color:#532135"/>
					<stop  offset="1" style="stop-color:#7F3F00"/>
				</linearGradient>
				<path fill="url(#SVGID_1_)" d="M84.012,164.255c0,0,0.552-0.157,1.175,0.211c0.373,0.224,0.438,3.623,0.81,4.218
					c1.955,3.185,5.34,8.195,7.824,8.342c0.606,0.035,1.473,0.152,2.468,0.277c0.198,0.025,0.66-2.447,0.87-2.422
					c0.436,0.051,0.614,2.602,1.069,2.646c2.731,0.266,5.763,0.3,7.153-1.031c2.332-2.195,7.381-6.275,8.162-9.812
					c0.798-3.537,3.982-10.795,4.128-16.059c0.128-5.264-0.067-18.581,1.578-26.127c1.705-7.546,3.356-21.801,3.729-27.157
					c0.367-5.356,2.479-9.326-5.383-17.367c-6.227-6.041-10.599-2.444-13.937-3.222c-3.355-0.777-7.914-2.171-11.856-1.269
					c-3.915,0.903-10.886,3.223-12.79,5.869c-1.866,2.647-0.454,6.521-0.797,8.161c-0.339,1.64-4.714,3.066-2.552,10.907
					c2.076,7.841,3.212,16.716,6.574,30.246C85.33,144.195,81.005,156.561,84.012,164.255z"/>
				<g>
					<g>
						<path opacity="0.54" fill="#582B20" enable-background="new    " d="M95.707,122.282c1.835,7.995,2.604,16.737,1.492,25.1
							c-0.409,4.017-0.451,8.127-0.324,12.224c0.133,4.088,0.417,8.222,0.858,12.226c-0.578-3.974-1.006-8.097-1.286-12.201
							c-0.281-4.114-0.402-8.271-0.147-12.416c0.365-4.136,0.28-8.295-0.162-12.375c-0.226-2.041-0.542-4.063-0.936-6.062
							c-0.2-0.997-0.422-1.989-0.663-2.973l-0.38-1.472l-0.417-1.522L95.707,122.282z"/>
					</g>
					<g>
						<path fill="#582B20" d="M106.417,170.719c0,0-1.979-25.814-0.688-28.729c1.322-2.916,2.558-13.837,1.385-16.896
							c-1.204-3.057,0.119-5.931,0.119-5.931"/>
						<g>
							<path opacity="0.54" fill="#582B20" enable-background="new    " d="M108.075,119.672c-0.136,0.311-0.288,0.821-0.369,1.255
								c-0.089,0.454-0.136,0.915-0.136,1.367c0,0.454,0.046,0.899,0.135,1.329c0.049,0.213,0.102,0.426,0.171,0.631
								c0.031,0.104,0.071,0.203,0.108,0.305c0.06,0.16,0.115,0.327,0.158,0.484c0.324,1.258,0.36,2.393,0.389,3.538
								c0.015,1.14-0.031,2.264-0.106,3.383c-0.157,2.239-0.424,4.455-0.84,6.681c-0.217,1.117-0.44,2.217-0.858,3.397
								c-0.045,0.13-0.136,0.354-0.179,0.449l-0.01,0.022l-0.005,0.012c0.02,0.015-0.219-0.099-0.102-0.039
								c0.033,0.027,0.11,0.076,0.092,0.062c0-0.003-0.004,0.012-0.006,0.016l-0.024,0.086c-0.038,0.152-0.075,0.379-0.103,0.61
								c-0.059,0.47-0.089,0.988-0.111,1.507c-0.076,2.094-0.026,4.256,0.037,6.401c0.063,2.149,0.158,4.304,0.264,6.455
								c0.199,4.303,0.436,8.61,0.691,12.89c-0.395-4.248-0.774-8.529-1.125-12.812c-0.353-4.29-0.744-8.584-0.785-12.938
								c0.002-0.545,0.014-1.091,0.058-1.641c0.021-0.273,0.054-0.549,0.11-0.827c0.057-0.29,0.185-0.538,0.253-0.778
								c0.312-1.008,0.493-2.08,0.653-3.146c0.311-2.141,0.478-4.309,0.535-6.456c0.024-1.073,0.021-2.146-0.043-3.19
								c-0.064-1.033-0.179-2.103-0.445-2.916c-0.032-0.101-0.068-0.185-0.106-0.271c-0.056-0.14-0.117-0.272-0.166-0.415
								c-0.106-0.279-0.192-0.572-0.271-0.869c-0.15-0.597-0.24-1.222-0.267-1.854c-0.022-0.633,0.015-1.269,0.11-1.895
								c0.049-0.312,0.111-0.625,0.188-0.936c0.088-0.324,0.156-0.586,0.315-0.978L108.075,119.672z"/>
						</g>
					</g>
					<g>
						<path fill="#582B20" d="M97.246,111.674c0,0,1.435,10.312,0.708,13.885"/>
						<g>
							<path opacity="0.54" fill="#582B20" enable-background="new    " d="M97.039,125.295c0.16-0.917,0.164-2.077,0.137-3.186
								c-0.031-1.125-0.107-2.264-0.205-3.402c-0.199-2.273-0.482-4.574-0.823-6.825c0.685,2.188,1.309,4.443,1.846,6.718
								c0.264,1.142,0.505,2.291,0.7,3.471c0.178,1.195,0.368,2.353,0.284,3.783L97.039,125.295z"/>
						</g>
					</g>
					<g>
						<path fill="#582B20" d="M88.711,160.357c0,0,1.557,9.992,1.118,13.563"/>
						<g>
							<path opacity="0.54" fill="#582B20" enable-background="new    " d="M89.086,173.659c0.089-0.897,0.048-2.026-0.018-3.107
								c-0.069-1.097-0.175-2.208-0.298-3.319c-0.251-2.219-0.572-4.465-0.939-6.659c0.643,2.133,1.236,4.329,1.758,6.551
								c0.256,1.112,0.494,2.235,0.695,3.392c0.189,1.168,0.384,2.307,0.375,3.702L89.086,173.659z"/>
						</g>
					</g>
					<g>
						<path opacity="0.54" fill="#582B20" enable-background="new    " d="M87.563,150.924c-0.256-0.207-0.397-0.363-0.579-0.576
							c-0.17-0.203-0.33-0.433-0.475-0.688c-0.292-0.507-0.52-1.161-0.582-1.843c-0.067-0.681,0.027-1.334,0.193-1.868l0.062-0.192
							l0.017-0.062c0.014-0.049,0.027-0.12,0.04-0.196c0.024-0.154,0.043-0.338,0.056-0.529c0.087-1.585-0.072-3.401-0.262-5.147
							c-0.412-3.524-1.076-7.061-1.979-10.482c-0.231-0.854-0.479-1.702-0.752-2.535c-0.263-0.838-0.586-1.615-0.898-2.566
							c-0.602-1.827-1.007-3.695-1.291-5.562c-0.561-3.748-0.686-7.428-0.428-11.17c-0.057,1.912,0.021,3.729,0.171,5.591
							c0.155,1.85,0.399,3.694,0.763,5.52c0.359,1.822,0.836,3.627,1.485,5.349c0.327,0.866,0.7,1.668,1.007,2.515
							c0.315,0.842,0.605,1.695,0.878,2.559c1.064,3.455,1.879,7.014,2.442,10.645c0.258,1.828,0.503,3.631,0.463,5.614
							c-0.01,0.252-0.025,0.511-0.062,0.786c-0.02,0.139-0.041,0.281-0.078,0.438l-0.095,0.36c-0.075,0.306-0.084,0.579-0.044,0.808
							c0.041,0.23,0.128,0.438,0.269,0.649c0.071,0.104,0.154,0.207,0.246,0.3c0.079,0.084,0.219,0.201,0.251,0.213L87.563,150.924z
							"/>
					</g>
					<g>
						<path fill="#582B20" d="M117.844,108.833c0,0,0.684,7.31-0.943,12.362c-1.58,5.057-0.93,12.846-1.448,14.391
							c-0.515,1.546-0.218,17.41-0.904,18.488"/>
						<g>
							<path opacity="0.54" fill="#582B20" enable-background="new    " d="M113.84,153.596c0.008-0.025,0.003,0.002,0.018-0.064
								c0.011-0.057,0.025-0.148,0.039-0.241c0.026-0.19,0.049-0.408,0.066-0.627c0.038-0.44,0.064-0.901,0.088-1.362
								c0.045-0.924,0.07-1.859,0.094-2.799l0.076-5.65c0.022-1.896,0.027-3.771,0.118-5.734l0.05-0.76l0.043-0.414
								c0.023-0.163,0.027-0.268,0.105-0.581l0.012-0.044l0.006-0.021l0.004-0.011c-0.123,0.004,0.176-0.018,0.125-0.021
								c-0.156-0.067-0.094-0.035-0.104-0.049l0.015-0.068c0.014-0.063,0.024-0.153,0.036-0.245c0.021-0.188,0.038-0.402,0.05-0.622
								c0.049-0.887,0.059-1.834,0.078-2.779c0.034-1.898,0.084-3.831,0.273-5.796c0.095-0.983,0.227-1.976,0.426-2.979
								c0.1-0.5,0.217-1.004,0.361-1.51l0.201-0.684c0.061-0.209,0.114-0.42,0.166-0.635c0.414-1.717,0.598-3.545,0.672-5.368
								c0.067-1.816,0.021-3.688-0.137-5.444c0.247,1.738,0.381,3.604,0.397,5.432c0.01,1.838-0.091,3.691-0.44,5.498
								c-0.088,0.465-0.189,0.864-0.318,1.367c-0.118,0.486-0.211,0.973-0.289,1.458c-0.152,0.97-0.24,1.935-0.295,2.892
								c-0.107,1.916-0.082,3.808-0.041,5.689c0.018,0.941,0.045,1.881,0.029,2.834c-0.017,0.473-0.019,0.971-0.156,1.475
								c-0.062,0.386-0.07,0.894-0.078,1.348c-0.018,1.872,0.045,3.75,0.09,5.627l0.113,5.65c0.009,0.947,0.013,1.896-0.004,2.863
								c-0.011,0.483-0.021,0.971-0.052,1.479c-0.016,0.255-0.032,0.514-0.065,0.8c-0.02,0.146-0.036,0.292-0.072,0.476
								c-0.031,0.172-0.102,0.449-0.196,0.646L113.84,153.596z"/>
						</g>
					</g>
					<g>
						<path fill="#582B20" d="M110.682,111.845c0,0,0.694,6.429-0.354,10.671c-1.021,4.244-0.912,9.541-0.912,9.541"/>
						<g>
							<path opacity="0.54" fill="#582B20" enable-background="new    " d="M108.499,132.156c-0.031-1.771,0.026-3.479,0.167-5.232
								c0.074-0.873,0.17-1.748,0.305-2.627c0.064-0.439,0.145-0.88,0.231-1.32l0.265-1.232c0.288-1.521,0.375-3.161,0.379-4.79
								c-0.004-1.624-0.097-3.295-0.271-4.871c0.349,1.543,0.613,3.199,0.787,4.84c0.164,1.649,0.248,3.326,0.092,5.031
								c-0.475,3.385-0.35,6.78-0.01,9.991L108.499,132.156z"/>
						</g>
					</g>
					<g>
						<path fill="#582B20" d="M84.104,142.598c0,0,1.39,7.875,0.918,12.117c-0.445,4.242,0.2,9.54,0.2,9.54"/>
						<g>
							<path opacity="0.54" fill="#582B20" enable-background="new    " d="M84.441,164.355c-0.227-1.896-0.358-3.728-0.411-5.604
								c-0.021-0.937-0.021-1.874,0.021-2.815c0.022-0.473,0.052-0.943,0.099-1.418c0.041-0.41,0.062-0.801,0.071-1.223
								c0.033-1.676-0.106-3.452-0.298-5.215c-0.196-1.762-0.46-3.555-0.774-5.281c0.465,1.698,0.877,3.477,1.224,5.245
								c0.339,1.776,0.626,3.567,0.733,5.396c0.061,0.918-0.005,1.83,0.036,2.726c0.027,0.897,0.096,1.799,0.183,2.692
								c0.18,1.779,0.442,3.59,0.772,5.287L84.441,164.355z"/>
						</g>
					</g>
					<g>
						<path fill="#582B20" d="M112.331,165.346c0,0-0.778-6.668-0.621-9.455c0.156-2.785-0.315-8.074-0.315-8.074"/>
						<g>
							<path opacity="0.54" fill="#582B20" enable-background="new    " d="M112.245,147.582c0.134,1.482,0.237,2.945,0.308,4.441
								c0.033,0.748,0.057,1.5,0.062,2.268c0.015,0.751-0.049,1.632-0.051,2.229c0.035,2.766,0.346,5.689,0.644,8.496
								c-0.578-2.728-1.181-5.496-1.517-8.387c-0.164-2.949-0.693-5.77-1.25-8.551L112.245,147.582z"/>
						</g>
					</g>
				</g>
				<g opacity="0.33">
					<g>
						<path fill="#582B20" d="M99.808,109.655c0,0-1.354,14.177,0.734,25.62c1.876,11.445-0.266,22.854-0.398,23.945"/>
						<g>
							<path opacity="0.54" fill="#582B20" enable-background="new    " d="M99.345,159.053l0.218-1.562l0.194-1.512
								c0.123-1.011,0.23-2.022,0.321-3.039c0.182-2.03,0.296-4.07,0.331-6.107c0.073-4.092-0.194-8.096-0.94-12.093
								c-0.696-4.164-0.996-8.382-1.107-12.587c-0.102-4.215-0.012-8.391,0.329-12.627c-0.168,4.255-0.087,8.424,0.177,12.606
								c0.267,4.171,0.718,8.33,1.543,12.351c1.759,7.969,1.651,16.688,0.626,24.929L99.345,159.053z"/>
						</g>
					</g>
					<g>
						<path fill="#582B20" d="M112.323,109.945c0,0-3.351,26.055-2.116,28.849c1.201,2.795,1.788,13.618,0.586,16.784
							c-1.172,3.164-0.177,5.925-0.177,5.925"/>
						<g>
							<path opacity="0.54" fill="#582B20" enable-background="new    " d="M109.893,162.085c-0.217-0.655-0.312-1.188-0.397-1.812
								c-0.077-0.607-0.106-1.235-0.083-1.871c0.023-0.637,0.104-1.278,0.238-1.904c0.072-0.312,0.149-0.621,0.248-0.921
								c0.045-0.152,0.102-0.298,0.151-0.446c0.03-0.087,0.06-0.17,0.087-0.27c0.223-0.812,0.328-1.877,0.391-2.898
								c0.062-1.036,0.072-2.093,0.057-3.145c-0.04-2.104-0.188-4.219-0.479-6.248c-0.148-1.002-0.336-2.025-0.609-2.838
								c-0.042-0.118-0.049-0.142-0.107-0.281l-0.05-0.12l-0.058-0.166c-0.033-0.104-0.059-0.202-0.08-0.295
								c-0.081-0.364-0.117-0.677-0.146-0.981c-0.056-0.605-0.07-1.177-0.078-1.744c-0.017-2.261,0.111-4.453,0.254-6.653
								c0.146-2.195,0.332-4.384,0.535-6.569c0.414-4.371,0.898-8.723,1.448-13.086c-0.378,4.381-0.696,8.744-0.946,13.118
								c-0.229,4.368-0.479,8.755-0.336,13.098c0.025,0.541,0.06,1.081,0.125,1.607c0.033,0.264,0.076,0.522,0.141,0.767
								c0.057,0.237,0.185,0.434,0.275,0.692c0.365,0.978,0.584,2.022,0.778,3.071c0.368,2.104,0.586,4.259,0.69,6.445
								c0.049,1.096,0.066,2.2,0.029,3.325c-0.048,1.133-0.104,2.259-0.41,3.521c-0.039,0.158-0.092,0.324-0.146,0.486
								c-0.033,0.112-0.072,0.221-0.101,0.333c-0.064,0.222-0.112,0.448-0.157,0.675c-0.082,0.452-0.125,0.911-0.128,1.366
								c-0.002,0.455,0.035,0.907,0.105,1.343c0.035,0.219,0.08,0.433,0.133,0.637c0.047,0.19,0.121,0.437,0.164,0.531
								L109.893,162.085z"/>
						</g>
					</g>
					<g>
						<path fill="#582B20" d="M102.512,169.836c0,0,0.961-10.411,0.264-13.912"/>
						<g>
							<path opacity="0.54" fill="#582B20" enable-background="new    " d="M103.568,155.581c0.25,1.336,0.27,2.522,0.293,3.731
								c0.013,1.201-0.016,2.389-0.06,3.57c-0.091,2.369-0.241,4.703-0.437,7.068c-0.078-2.396-0.209-4.747-0.406-7.088
								c-0.104-1.166-0.225-2.327-0.387-3.457c-0.165-1.109-0.366-2.282-0.686-3.098L103.568,155.581z"/>
						</g>
					</g>
					<g>
						<path fill="#582B20" d="M90.75,122.163c0,0,0.582-10.089-0.481-13.59"/>
						<g>
							<path opacity="0.54" fill="#582B20" enable-background="new    " d="M91.221,108.229c0.379,1.305,0.476,2.47,0.577,3.651
								c0.087,1.177,0.125,2.337,0.142,3.493c0.029,2.316-0.019,4.598-0.123,6.91c-0.234-2.348-0.534-4.645-0.916-6.932
								c-0.195-1.141-0.413-2.273-0.679-3.377c-0.268-1.082-0.582-2.222-1.017-3.018L91.221,108.229z"/>
						</g>
					</g>
					<g>
						<path fill="#582B20" d="M91.157,175.048c0,0-1.991-9.606-0.688-17.137c1.416-7.53,1.397-19.392,0.258-21.604
							c-1.162-2.218-1.411-10.504-1.411-10.504"/>
						<g>
							<path opacity="0.54" fill="#582B20" enable-background="new    " d="M90.255,125.807c0.072,2.022,0.206,4.092,0.44,6.09
								c0.121,0.994,0.267,1.994,0.488,2.877c0.056,0.219,0.115,0.426,0.181,0.606c0.031,0.088,0.064,0.173,0.096,0.239l0.067,0.139
								c0.048,0.096,0.083,0.184,0.118,0.27c0.254,0.677,0.345,1.23,0.44,1.797c0.321,2.219,0.361,4.324,0.37,6.449
								c-0.003,2.119-0.082,4.226-0.229,6.326c-0.147,2.1-0.354,4.192-0.675,6.272c-0.078,0.513-0.173,1.058-0.259,1.541
								c-0.081,0.468-0.148,0.942-0.203,1.422c-0.109,0.962-0.169,1.944-0.191,2.937c-0.072,3.959,0.356,8.1,1.062,11.963
								c-0.835-3.823-1.41-7.954-1.484-12.01c-0.015-1.018,0.011-2.033,0.085-3.039c0.065-1.002,0.237-1.992,0.353-3.033
								c0.235-2.059,0.36-4.131,0.422-6.204c0.061-2.075,0.054-4.151-0.03-6.222c-0.094-2.06-0.235-4.15-0.611-6.102
								c-0.1-0.475-0.222-0.962-0.377-1.303c-0.043-0.082-0.248-0.454-0.34-0.706c-0.108-0.272-0.197-0.542-0.277-0.812
								c-0.314-1.068-0.508-2.121-0.686-3.176c-0.345-2.111-0.576-4.195-0.753-6.331L90.255,125.807z"/>
						</g>
					</g>
					<g>
						<path fill="#582B20" d="M96.315,164.973c0,0,0.641-7.398-0.678-12.336c-1.38-4.936-0.725-12.816-1.218-14.322
							c-0.501-1.506,0.043-17.479-0.726-18.493"/>
						<g>
							<path opacity="0.54" fill="#582B20" enable-background="new    " d="M94.527,119.262c0.104,0.176,0.181,0.43,0.216,0.592
								c0.041,0.174,0.064,0.315,0.086,0.457c0.041,0.278,0.066,0.534,0.088,0.787c0.042,0.506,0.067,0.991,0.088,1.479
								c0.039,0.969,0.058,1.925,0.071,2.88l0.032,5.696c0.011,1.888,0.009,3.793,0.087,5.617l0.041,0.658l0.029,0.295l0.017,0.116
								c0.001,0.009,0.008,0.05,0.004,0.032c-0.017-0.002,0.029-0.041-0.043-0.012l-0.215,0.144l-0.106,0.07l-0.052,0.036
								c-0.121,0.07,0.803-0.469,0.416-0.231l0.048,0.162c0.025,0.101,0.044,0.188,0.06,0.274c0.031,0.168,0.049,0.313,0.066,0.457
								c0.029,0.281,0.047,0.541,0.061,0.795c0.049,1.009,0.053,1.951,0.068,2.898c0.026,1.885,0.07,3.743,0.229,5.559
								c0.078,0.906,0.184,1.8,0.336,2.658c0.076,0.428,0.162,0.85,0.265,1.254l0.174,0.674c0.062,0.246,0.116,0.492,0.166,0.738
								c0.396,1.976,0.539,3.951,0.589,5.91c0.042,1.971-0.005,3.883-0.155,5.874c0.081-2.002,0.056-3.913-0.059-5.864
								c-0.124-1.938-0.343-3.881-0.8-5.76c-0.108-0.457-0.264-0.958-0.389-1.359c-0.127-0.42-0.236-0.855-0.335-1.299
								c-0.196-0.889-0.345-1.806-0.467-2.732c-0.243-1.855-0.37-3.75-0.482-5.643c-0.058-0.947-0.105-1.897-0.194-2.834
								c-0.052-0.466-0.094-0.933-0.244-1.328c-0.132-0.539-0.159-0.984-0.213-1.473c-0.171-1.908-0.259-3.807-0.362-5.704
								l-0.317-5.676c-0.062-0.94-0.129-1.881-0.215-2.804c-0.044-0.46-0.093-0.92-0.155-1.354c-0.03-0.217-0.064-0.43-0.104-0.612
								c-0.02-0.09-0.041-0.176-0.06-0.225c-0.019-0.062-0.015-0.016-0.022-0.025L94.527,119.262z"/>
						</g>
					</g>
					<g>
						<path fill="#582B20" d="M112.12,168.223c0,0,1.882-6.187,1.312-10.348c-0.606-4.162-0.158-9.479-0.158-9.479"/>
						<g>
							<path opacity="0.54" fill="#582B20" enable-background="new    " d="M114.125,148.412c-0.117,1.591-0.162,3.252-0.139,4.854
								c0.014,0.805,0.045,1.602,0.102,2.383c0.029,0.392,0.062,0.777,0.105,1.16c0.039,0.383,0.101,0.724,0.152,1.226
								c0.166,1.858-0.019,3.67-0.287,5.422c-0.285,1.765-0.652,3.433-1.146,5.162c0.363-1.787,0.596-3.486,0.732-5.231
								c0.125-1.726,0.14-3.479-0.162-5.066c-0.379-1.535-0.65-3.172-0.828-4.836c-0.182-1.676-0.301-3.34-0.334-5.105
								L114.125,148.412z"/>
						</g>
					</g>
					<g>
						<path fill="#582B20" d="M88.32,140.246c0,0,0.235-7.945-0.957-12.105c-1.229-4.16-1.402-9.479-1.402-9.479"/>
						<g>
							<path opacity="0.54" fill="#582B20" enable-background="new    " d="M86.93,118.68c0.078,1.726,0.26,3.523,0.528,5.254
								c0.136,0.866,0.295,1.727,0.492,2.563c0.098,0.418,0.203,0.832,0.321,1.235c0.136,0.463,0.255,0.961,0.35,1.435
								c0.369,1.907,0.517,3.771,0.613,5.628c0.089,1.861,0.114,3.686,0.077,5.561c-0.12-1.889-0.306-3.713-0.557-5.553
								c-0.259-1.828-0.577-3.658-1.089-5.404c-0.25-0.871-0.631-1.678-0.912-2.562c-0.294-0.872-0.547-1.764-0.778-2.665
								c-0.459-1.812-0.828-3.616-1.099-5.526L86.93,118.68z"/>
						</g>
					</g>
					<g>
						<path fill="#582B20" d="M120.955,111.992c0,0-1.734,6.781-1.852,9.564c-0.119,2.781-1.188,8.139-1.188,8.139"/>
						<g>
							<path opacity="0.54" fill="#582B20" enable-background="new    " d="M117.014,129.544c0.264-1.442,0.508-2.915,0.713-4.366
								c0.104-0.727,0.194-1.451,0.267-2.164c0.086-0.729,0.077-1.334,0.153-2.218c0.162-1.595,0.442-3.083,0.738-4.583
								c0.305-1.497,0.633-2.968,0.998-4.46c-0.195,1.528-0.357,3.03-0.492,4.544c-0.129,1.51-0.244,3.026-0.229,4.52
								c0.206,2.963-0.001,6.009-0.233,9.05L117.014,129.544z"/>
						</g>
					</g>
				</g>
			</g>
			
				<linearGradient id="SVGID_2_" gradientUnits="userSpaceOnUse" x1="130.7617" y1="93.4658" x2="158.8363" y2="-50.8553" gradientTransform="matrix(1 0 0 -1 -50 61)">
				<stop  offset="0.1758" style="stop-color:#A2F200"/>
				<stop  offset="1" style="stop-color:#3A9200"/>
			</linearGradient>
			<polygon fill="url(#SVGID_2_)" points="163.177,70.047 165.723,75.866 167.32,82.553 159.123,85.402 163.62,95.179 
				156.668,97.669 154.084,103.883 145.961,103.271 139.156,102.934 138.721,114.781 130.809,111.438 127.053,119.256 
				118.589,109.174 113.616,112.501 108.404,117.83 102.521,112.578 97.092,111.068 91.323,113.266 85.174,115.307 79.966,112.361 
				72.188,116.948 69.695,107.536 63.475,107.121 59.937,102.055 54.086,100.288 49.138,96.965 43.403,93.77 42.117,87.37 
				38.413,82.316 41.731,75.463 35.264,70.047 35.51,63.592 46.953,60.671 43.466,53.42 50.606,51.431 46.72,40.909 53.717,39.377 
				60.769,39.211 62.634,31.509 68.489,29.966 72.342,23.558 78.625,23.057 85.944,28.482 90.238,18.862 96.992,27.543 
				102.521,19.975 108.342,23.179 114.488,21.177 119.992,24.194 124.582,29.464 131.033,28.052 136.714,29.626 138.798,37.789 
				149.448,31.896 147.497,43.775 155.118,43.851 158.116,48.823 162.784,52.797 158.378,60.575 161.02,65.014 			"/>
			
				<linearGradient id="SVGID_3_" gradientUnits="userSpaceOnUse" x1="135.3271" y1="43.5996" x2="171.0446" y2="-68.9348" gradientTransform="matrix(1 0 0 -1 -50 61)">
				<stop  offset="0.1758" style="stop-color:#A2F200"/>
				<stop  offset="1" style="stop-color:#3A9200"/>
			</linearGradient>
			<polygon fill="url(#SVGID_3_)" points="154.674,70.047 156.725,75.812 157.66,82.375 150.145,85.11 152.936,94.406 
				146.248,96.621 142.939,102.234 135.384,101.455 128.917,100.906 126.732,111.271 119.548,107.863 114.773,114.309 
				107.876,104.889 102.521,107.189 96.688,111.076 91.619,105.77 86.54,103.588 80.646,104.355 74.422,104.753 69.942,100.953 
				61.794,102.664 61.385,93.791 55.943,91.204 54.326,85.455 50.131,81.292 47.616,75.945 44.944,70.047 47.443,64.113 
				47.967,57.949 54.311,54.629 53.52,46.865 57.637,42.208 67.657,45.594 69.448,38.267 76.341,39.673 78.663,29.869 
				85.278,31.341 91.532,33.79 96.642,28.438 102.521,29.354 108.605,25.775 114.464,27.746 118.921,34.795 126.607,29.189 
				129.109,38.754 137.075,35.658 140.673,41.02 146.682,43.004 149.539,48.524 149.995,55.077 155.029,58.756 157.268,64.18 			"/>
			
				<linearGradient id="SVGID_4_" gradientUnits="userSpaceOnUse" x1="149.3877" y1="4.5815" x2="157.6061" y2="-71.1141" gradientTransform="matrix(1 0 0 -1 -50 61)">
				<stop  offset="0.1758" style="stop-color:#A2F200"/>
				<stop  offset="1" style="stop-color:#3A9200"/>
			</linearGradient>
			<polygon fill="url(#SVGID_4_)" points="142.576,70.047 143.861,75.778 143.675,82.145 136.962,84.646 137.089,92.985 
				130.646,94.629 126.184,99.064 119.354,97.859 113.316,96.772 108.641,104.385 102.521,100.639 96.394,104.467 91.911,95.886 
				86.282,96.047 79.865,96.904 76.669,91.063 72.976,87.221 68.003,84.707 63.263,81.16 62.237,75.512 57.075,70.047 
				62.843,64.734 63.298,58.951 67.683,55.125 70.539,50.076 74.766,46.044 79.206,41.771 85.274,40.972 90.728,38.543 
				96.923,40.861 102.521,36.606 108.538,36.718 113.098,44.371 119.457,41.923 123.376,47.058 131.443,44.217 134.751,49.794 
				136.626,55.723 142.736,58.439 144.032,64.274 			"/>
			<polygon points="79.164,116.898 81.488,115.368 85.223,117.959 96.688,111.076 85.949,115.368 79.966,112.361 77.915,113.064 			
				"/>
			<polygon points="123.512,115.037 118.65,109.173 114.773,114.309 113.616,112.501 108.404,117.83 113.207,114.518 
				114.547,116.932 118.448,113.064 120.955,117.83 			"/>
		</g>
	</g>
</g>
<g id="outline_x5F_white">
	<g>
		<g>
			<path fill="#FFFFFF" d="M90.238,18.862l6.754,8.681l5.529-7.568l5.819,3.204l6.146-2.002l5.505,3.018l4.59,5.27l6.451-1.412
				l5.681,1.574l2.084,8.163l10.65-5.894l-1.951,11.88l7.621,0.075l2.998,4.973l4.668,3.974l-4.406,7.778l2.643,4.438l2.156,5.033
				l2.545,5.819l1.6,6.687l-8.197,2.85l4.497,9.776l-6.952,2.49l-2.584,6.214l-8.123-0.611l-6.805-0.338l-0.436,11.849l-7.914-3.345
				l-3.755,7.818l-5.749-6.848c-0.611,4.441-1.328,8.875-2.055,12.089c-0.012,0.046-0.02,0.095-0.03,0.142
				c-0.334,1.793-0.638,2.305-0.771,4.051l-0.002,1.096c-0.775,7.413-0.674,16.663-0.775,20.84
				c-0.146,5.264-3.33,12.521-4.128,16.059c-0.095,0.424-0.252,0.856-0.457,1.291c-0.058,0.215-0.11,0.428-0.173,0.645
				c0.031-0.159,0.059-0.314,0.089-0.475c-1.563,3.147-5.604,6.455-7.621,8.353c-0.944,0.903-2.644,1.178-4.493,1.178
				c-0.875,0-1.783-0.062-2.66-0.146c-0.455-0.045-0.634-2.596-1.069-2.646c-0.001,0-0.002,0-0.002,0
				c-0.212,0-0.666,2.422-0.865,2.422c-0.001,0-0.002,0-0.003,0c-0.995-0.125-1.861-0.242-2.468-0.277
				c-1.28-0.075-2.799-1.445-4.239-3.189l-0.495-0.176c0.013-0.129,0.018-0.271,0.025-0.408c-1.179-1.508-2.278-3.205-3.115-4.566
				c-0.371-0.596-0.437-3.996-0.81-4.219c-0.125-0.074-0.246-0.123-0.361-0.158l-0.384,0.049c-0.006-0.043-0.007-0.086-0.013-0.127
				c-0.043-0.004-0.083-0.006-0.121-0.006c-0.182,0-0.296,0.031-0.296,0.031c-1.958-5.012-0.813-12.011-0.626-20.015
				c-0.078-0.482-0.149-0.97-0.236-1.441c0.088,0.318,0.163,0.65,0.246,0.974c0.077-4.149-0.117-8.56-1.156-13.105
				c-1.698-6.835-2.828-12.479-3.799-17.404l-6.252,3.688l-2.493-9.412l-6.221-0.415l-3.538-5.065l-5.851-1.768l-4.948-3.323
				l-5.734-3.195l-1.286-6.399l-3.704-5.054l3.318-6.854l-6.468-5.416l0.246-6.455l11.443-2.921l-3.487-7.251l7.141-1.989
				L46.72,40.909l6.997-1.532l7.052-0.166l1.865-7.702l5.855-1.543l3.853-6.408l6.283-0.501l7.319,5.426L90.238,18.862 M90.24,6.862
				c-0.48,0-0.963,0.029-1.447,0.087c-3.12,0.378-5.922,1.957-7.857,4.332c-0.758-0.149-1.531-0.225-2.311-0.225
				c-0.317,0-0.636,0.013-0.954,0.038l-6.283,0.501c-3.86,0.308-7.335,2.46-9.33,5.779l-1.341,2.23l-1.141,0.3
				c-3.906,1.029-7.007,3.945-8.297,7.723c-0.043,0.009-0.086,0.018-0.129,0.027l-6.997,1.532c-3.391,0.743-6.294,2.917-7.96,5.962
				c-1.59,2.906-1.905,6.333-0.885,9.471c-1.157,1.073-2.105,2.376-2.772,3.848c-0.552,1.218-0.89,2.504-1.015,3.806
				c-4.607,1.622-7.813,5.908-8.002,10.861l-0.246,6.455c-0.131,3.442,1.223,6.761,3.693,9.126
				c-1.136,3.609-0.509,7.587,1.769,10.694l2.14,2.919l0.765,3.805c0.692,3.442,2.856,6.409,5.924,8.118l5.298,2.952l4.535,3.046
				c0.992,0.666,2.078,1.181,3.222,1.524l1.865,0.563l1.153,1.652c1.605,2.298,3.946,3.938,6.597,4.684l0.356,1.347
				c0.962,3.631,3.568,6.603,7.043,8.028c0.582,0.238,1.178,0.431,1.78,0.573c0.355,1.546,0.737,3.146,1.151,4.814
				c0.476,2.114,0.741,4.348,0.821,6.983c-0.296,1.459-0.322,2.997-0.037,4.547c0.003,0.021,0.007,0.039,0.01,0.06
				c-0.051,1.479-0.134,2.966-0.214,4.412c-0.354,6.396-0.721,13.01,1.691,19.183c0.361,0.925,0.826,1.782,1.377,2.562
				c0.298,1.213,0.768,2.496,1.569,3.797c0.818,1.332,1.604,2.533,2.372,3.627c0.834,1.84,2.124,3.453,3.763,4.676
				c2.174,2.273,5.979,5.414,11.201,5.721c0.159,0.014,0.771,0.091,1.219,0.146l0.456,0.059c0.364,0.046,0.73,0.075,1.097,0.087
				c0.436,0.086,0.827,0.14,1.159,0.173c1.424,0.139,2.674,0.204,3.841,0.204c5.327,0,9.61-1.498,12.731-4.453
				c0.288-0.271,0.624-0.573,0.989-0.903c2.064-1.871,4.935-4.469,7.205-7.646c1.19-1.316,2.105-2.915,2.629-4.729
				c0.005-0.019,0.01-0.035,0.015-0.053c0.336-0.857,0.603-1.723,0.794-2.58c0.135-0.589,0.635-2.093,1.036-3.303
				c1.438-4.338,3.231-9.736,3.378-15.051c0.025-1.016,0.039-2.252,0.055-3.673c0.047-4.398,0.116-11.046,0.661-16.249
				c0.009-0.086,0.019-0.172,0.024-0.256c2.445-0.713,4.6-2.186,6.148-4.194c0.717,0.132,1.441,0.196,2.164,0.196
				c2.254,0,4.493-0.633,6.447-1.879c3.203-2.039,5.244-5.471,5.521-9.24l2.494,0.188c0.303,0.023,0.605,0.034,0.905,0.034
				c4.813,0,9.204-2.894,11.075-7.394l0.547-1.312l1.956-0.701c3.167-1.134,5.713-3.546,7.017-6.646
				c1.09-2.596,1.229-5.476,0.42-8.137c3.346-2.852,4.967-7.423,3.89-11.931l-1.601-6.687c-0.164-0.691-0.392-1.365-0.677-2.016
				l-2.526-5.777l-2.018-4.709l1.055-1.86c2.836-5.007,1.719-11.322-2.664-15.052l-3.179-2.707l-1.989-3.298
				c-1.021-1.695-2.426-3.08-4.064-4.072c0.633-4.453-1.279-8.896-4.967-11.495c-2.063-1.455-4.485-2.192-6.916-2.192
				c-1.557,0-3.118,0.303-4.592,0.914c-1.381-1.275-3.062-2.229-4.937-2.748l-5.681-1.574c-1.049-0.291-2.127-0.436-3.205-0.436
				c-0.69,0-1.381,0.06-2.064,0.179c-0.914-1.03-1.999-1.896-3.208-2.559l-5.504-3.018c-1.784-0.979-3.771-1.478-5.769-1.478
				c-1.25,0-2.504,0.195-3.717,0.59l-1.201,0.391l-1.262-0.695c-1.828-1.006-3.814-1.489-5.779-1.489
				c-1.807,0-3.594,0.408-5.222,1.191C95.269,7.679,92.794,6.862,90.24,6.862L90.24,6.862z"/>
		</g>
	</g>
</g>
<g id="outline_x5F_black">
	<g>
		<path d="M90.238,18.862l6.754,8.681l5.529-7.568l5.819,3.204l6.146-2.002l5.505,3.018l4.59,5.27l6.451-1.412l5.681,1.574
			l2.084,8.163l10.65-5.894l-1.951,11.88l7.621,0.075l2.998,4.973l4.668,3.974l-4.406,7.778l2.643,4.438l2.156,5.033l2.545,5.819
			l1.6,6.687l-8.197,2.85l4.497,9.776l-6.952,2.49l-2.584,6.214l-8.123-0.611l-6.805-0.338l-0.436,11.849l-7.914-3.345l-3.755,7.818
			l-5.749-6.848c-0.611,4.441-1.328,8.875-2.055,12.089c-0.012,0.046-0.02,0.095-0.03,0.142c-0.714,1.793-1.012,3.656-0.706,4.533
			l-0.064,0.612c-0.776,7.413-0.676,16.663-0.776,20.84c-0.146,5.263-3.33,12.521-4.128,16.058
			c-0.094,0.426-0.252,0.857-0.457,1.293c-0.059,0.215-0.109,0.426-0.173,0.644c0.032-0.159,0.06-0.315,0.089-0.474
			c-1.562,3.146-5.604,6.453-7.621,8.352c-0.943,0.902-2.645,1.178-4.492,1.178c-0.875,0-1.784-0.062-2.661-0.146
			c-0.455-0.045-0.634-2.594-1.069-2.646c-0.001,0-0.002,0-0.002,0c-0.212,0-0.666,2.423-0.865,2.423c-0.001,0-0.002,0-0.003,0
			c-0.995-0.125-1.861-0.242-2.468-0.279c-1.28-0.074-2.799-1.444-4.239-3.188l-0.495-0.176c0.013-0.129,0.018-0.271,0.025-0.408
			c-1.179-1.508-2.278-3.205-3.115-4.567c-0.371-0.595-0.437-3.994-0.81-4.218c-0.125-0.073-0.246-0.123-0.361-0.159l-0.384,0.049
			c-0.006-0.043-0.007-0.084-0.013-0.127c-0.043-0.002-0.083-0.004-0.121-0.004c-0.182,0-0.296,0.03-0.296,0.03
			c-1.958-5.012-0.813-12.011-0.626-20.015c-0.078-0.482-0.149-0.969-0.236-1.441c0.088,0.318,0.163,0.65,0.246,0.975
			c0.077-4.15-0.117-8.561-1.156-13.106c-1.698-6.835-2.828-12.479-3.799-17.405l-6.252,3.688l-2.493-9.412l-6.221-0.415
			l-3.538-5.066l-5.851-1.767l-4.948-3.323l-5.734-3.195l-1.286-6.399l-3.704-5.054l3.318-6.854l-6.468-5.416l0.246-6.455
			l11.443-2.921l-3.487-7.251l7.141-1.989L46.72,40.909l6.997-1.532l7.052-0.166l1.865-7.702l5.855-1.543l3.853-6.408l6.283-0.501
			l7.319,5.426L90.238,18.862 M90.239,12.862c-0.24,0-0.481,0.014-0.724,0.043c-2.092,0.254-3.897,1.586-4.757,3.511l-1.246,2.793
			l-1.314-0.974c-1.037-0.769-2.291-1.18-3.573-1.18c-0.158,0-0.317,0.006-0.477,0.019l-6.283,0.501
			c-1.931,0.154-3.668,1.23-4.666,2.89l-2.596,4.319l-3.499,0.922c-2.131,0.562-3.783,2.247-4.302,4.39l-0.781,3.225l-2.446,0.057
			c-0.384,0.009-0.767,0.055-1.142,0.137l-6.998,1.532c-1.695,0.372-3.147,1.458-3.98,2.981s-0.966,3.332-0.365,4.959l1.629,4.411
			l-0.865,0.241c-1.71,0.477-3.122,1.686-3.855,3.304c-0.733,1.617-0.711,3.476,0.058,5.077l0.312,0.648l-4.345,1.109
			c-2.575,0.657-4.411,2.93-4.512,5.585l-0.246,6.455c-0.071,1.854,0.721,3.637,2.144,4.829l2.881,2.412l-1.28,2.643
			c-0.968,1.999-0.752,4.369,0.561,6.161l2.922,3.986l1.025,5.103c0.346,1.721,1.428,3.204,2.962,4.059l5.516,3.074l4.742,3.184
			c0.496,0.334,1.039,0.592,1.611,0.765l3.857,1.165l2.347,3.359c1.042,1.49,2.704,2.43,4.52,2.551l1.923,0.129l1.391,5.248
			c0.48,1.814,1.784,3.302,3.521,4.015c0.732,0.301,1.507,0.449,2.278,0.449c0.689,0,1.376-0.119,2.03-0.354
			c0.628,2.932,1.331,6.029,2.184,9.461c0.622,2.743,0.942,5.602,0.999,9.02c-0.266,0.885-0.331,1.843-0.153,2.81
			c0.046,0.247,0.086,0.499,0.125,0.751c-0.051,1.745-0.146,3.467-0.238,5.137c-0.334,6.021-0.648,11.709,1.288,16.668
			c0.317,0.812,0.795,1.521,1.385,2.098c0.173,1.186,0.439,2.268,1.098,3.322c0.879,1.432,1.718,2.699,2.533,3.828
			c0.45,1.25,1.309,2.334,2.455,3.054c1.8,1.971,4.334,4.083,7.575,4.272c0.31,0.02,0.978,0.104,1.623,0.187l0.435,0.055
			c0.253,0.032,0.51,0.05,0.765,0.05c0.08,0,0.161-0.003,0.243-0.006c0.351,0.096,0.719,0.161,1.104,0.199
			c1.22,0.119,2.279,0.176,3.25,0.176c3.801,0,6.619-0.922,8.616-2.82c0.313-0.293,0.681-0.625,1.077-0.983
			c2.044-1.851,4.697-4.254,6.594-7.026c0.688-0.691,1.215-1.562,1.504-2.562c0.029-0.106,0.059-0.212,0.088-0.317
			c0.277-0.668,0.49-1.334,0.635-1.986c0.188-0.84,0.677-2.306,1.19-3.857c1.316-3.965,2.953-8.898,3.076-13.327
			c0.022-0.972,0.036-2.181,0.052-3.569c0.047-4.511,0.12-11.328,0.694-16.812l0.063-0.601c0.061-0.563,0.039-1.133-0.06-1.688
			c0.048-0.271,0.163-0.734,0.373-1.262c0.114-0.287,0.206-0.582,0.274-0.883l0.041-0.191c0.059-0.26,0.117-0.525,0.175-0.796
			c0.567,0.175,1.163,0.267,1.769,0.267c0.25,0,0.5-0.016,0.751-0.047c2.021-0.255,3.776-1.52,4.658-3.355l1.278-2.662l2.646,1.117
			c0.749,0.316,1.543,0.474,2.336,0.474c1.125,0,2.245-0.317,3.223-0.938c1.664-1.061,2.701-2.869,2.772-4.841l0.212-5.774
			l0.658,0.033l8.047,0.605c0.151,0.011,0.303,0.017,0.452,0.017c2.408,0,4.603-1.446,5.538-3.696l1.564-3.764l4.455-1.596
			c1.582-0.567,2.855-1.773,3.508-3.324c0.651-1.551,0.623-3.304-0.08-4.832l-1.735-3.771l1.955-0.68
			c2.912-1.012,4.583-4.065,3.864-7.062l-1.6-6.687c-0.082-0.345-0.195-0.683-0.338-1.008l-2.545-5.819l-2.14-4.993
			c-0.104-0.243-0.224-0.478-0.358-0.705l-0.859-1.444l2.688-4.747c1.418-2.503,0.858-5.661-1.331-7.526l-3.924-3.34l-2.493-4.136
			c-1.075-1.783-2.998-2.881-5.079-2.901l-0.626-0.006l0.817-4.977c0.371-2.269-0.584-4.551-2.465-5.876
			c-1.031-0.728-2.241-1.096-3.457-1.096c-0.997,0-1.997,0.249-2.904,0.75l-3.854,2.132l-0.162-0.636
			c-0.532-2.083-2.14-3.723-4.211-4.298l-5.682-1.574c-0.523-0.145-1.062-0.218-1.604-0.218c-0.43,0-0.859,0.046-1.282,0.139
			l-2.979,0.652l-2.254-2.589c-0.466-0.533-1.021-0.98-1.641-1.32l-5.504-3.018c-0.895-0.49-1.887-0.739-2.885-0.739
			c-0.625,0-1.252,0.098-1.858,0.295l-3.673,1.196l-3.542-1.95c-0.914-0.503-1.907-0.744-2.89-0.744
			c-1.861,0-3.685,0.866-4.85,2.461l-0.835,1.143l-1.868-2.4C93.829,13.707,92.076,12.862,90.239,12.862L90.239,12.862z"/>
	</g>
</g>
</svg>
