<?xml version="1.0" encoding="utf-8"?>
<!-- Generator: Adobe Illustrator 15.0.0, SVG Export Plug-In . SVG Version: 6.00 Build 0)  -->
<!DOCTYPE svg PUBLIC "-//W3C//DTD SVG 1.1//EN" "http://www.w3.org/Graphics/SVG/1.1/DTD/svg11.dtd">
<svg version="1.1" xmlns="http://www.w3.org/2000/svg" xmlns:xlink="http://www.w3.org/1999/xlink" x="0px" y="0px" width="200px"
	 height="200px" viewBox="0 0 200 200" enable-background="new 0 0 200 200" xml:space="preserve">
<g id="icon">
	<g id="Layer_2">
	</g>
	<g id="Layer_1_1_">
		<g>
			<g>
				<g>
					<g>
						<g>
							<path fill="#F5DE00" d="M171.223,75.468c-0.125-1.136,1.351-3.38-0.205-4.74c-1.444-1.269-2.922,0.867-3.943,0.881
								c-0.768,0.013-1.562,0.257-2.312,0.79c-3.141,2.218-6.574,4.122-10.279,5.645c-26.422,10.849-56.641-1.781-67.489-28.207
								c-0.71-1.725-1.87-2.946-3.147-3.853c-1.01-0.717-2.299-1.059-3.144-3.572c-1.215-3.64,1.522-6.39-0.952-8.09
								c-1.007-0.692-4.339-0.816-6.191,0.825c-2.485,2.207,2.053,5.193,1.713,9.378c-0.089,1.091-1.141,2.173-2,3.289
								c-1.057,1.374-1.911,3.117-2.219,5.334c-1.209,8.747-0.196,17.925,3.4,26.686c10.851,26.425,41.064,39.057,67.49,28.206
								c14.023-5.756,24.16-16.969,28.967-30.169C171.216,77.023,171.309,76.209,171.223,75.468z"/>
						</g>
						<g>
							<g>
								<path fill="#F5B000" d="M146.544,93.934c-26.431,10.851-56.645-1.776-67.494-28.206c-2.792-6.799-4.023-13.85-3.868-20.753
									c-0.285,0.938-1.17,1.88-1.91,2.839c-1.057,1.374-1.911,3.117-2.219,5.334c-1.209,8.747-0.196,17.925,3.4,26.686
									c10.851,26.425,41.066,39.057,67.49,28.206c14.023-5.756,24.16-16.969,28.967-30.169c0.306-0.847,0.396-1.661,0.312-2.402
									c-0.094-0.839,0.687-2.279,0.473-3.53C166.177,81.523,157.561,89.411,146.544,93.934z"/>
							</g>
						</g>
						<path fill="#C27A00" d="M171.018,70.729c-1.432-1.258-2.896,0.828-3.918,0.876c0.176,1.432,0.977,3.536,4.123,3.61
							C171.286,74.029,172.462,71.994,171.018,70.729z"/>
						<path fill="#C27A00" d="M81.08,43.343c-0.134-0.273-0.262-0.577-0.379-0.93c-1.215-3.64,1.522-6.39-0.952-8.09
							c-1.007-0.692-4.339-0.816-6.191,0.825c-2.485,2.207,2.053,5.193,1.713,9.378c-0.005,0.043-0.022,0.092-0.027,0.14
							C76.528,45.173,78.838,45.57,81.08,43.343z"/>
					</g>
					<g>
						<g>
							<path fill="#F5DE00" d="M174.414,100.164c0.037-1.434,2.246-3.973,0.547-5.925c-1.583-1.817-3.773,0.584-5.047,0.434
								c-0.956-0.116-1.987,0.054-3.006,0.587c-4.273,2.227-8.861,4.014-13.721,5.277c-34.653,9.014-70.06-11.773-79.07-46.432
								c-0.589-2.263-1.824-3.97-3.262-5.316c-1.13-1.063-2.673-1.701-3.299-4.968c-0.897-4.725,2.97-7.682,0.186-10.206
								c-1.136-1.031-5.253-1.75-7.832-0.024c-3.462,2.324,1.674,6.797,0.547,11.938c-0.298,1.34-1.787,2.509-3.039,3.75
								c-1.547,1.528-2.9,3.547-3.657,6.25c-2.979,10.661-3.27,22.232-0.282,33.723c9.015,34.654,44.413,55.443,79.07,46.43
								c18.395-4.783,32.877-16.998,41.07-32.582C174.146,102.096,174.395,101.1,174.414,100.164z"/>
						</g>
						<g>
							<g>
								<path fill="#F5B000" d="M140.643,118.936c-34.658,9.015-70.059-11.773-79.072-46.432
									c-2.319-8.915-2.655-17.881-1.302-26.434c-0.513,1.119-1.771,2.14-2.85,3.208c-1.547,1.528-2.9,3.547-3.657,6.25
									c-2.979,10.661-3.27,22.232-0.282,33.723c9.015,34.654,44.413,55.442,79.07,46.429c18.396-4.783,32.877-16.996,41.07-32.582
									c0.526-1.002,0.774-1.998,0.795-2.934c0.026-1.058,1.237-2.719,1.183-4.303
									C167.127,106.829,155.089,115.176,140.643,118.936z"/>
							</g>
						</g>
						<path fill="#C27A00" d="M174.961,94.239c-1.566-1.804-3.738,0.543-5.014,0.432c-0.025,1.805,0.604,4.554,4.511,5.179
							C174.736,98.385,176.537,96.056,174.961,94.239z"/>
						<path fill="#C27A00" d="M67.871,45.04c-0.117-0.361-0.226-0.762-0.315-1.219c-0.897-4.725,2.97-7.682,0.186-10.206
							c-1.136-1.031-5.253-1.75-7.832-0.024c-3.462,2.324,1.674,6.797,0.547,11.938c-0.018,0.057-0.042,0.112-0.061,0.169
							C61.909,46.548,64.71,47.428,67.871,45.04z"/>
					</g>
					<g>
						<g>
							<path fill="#F5DE00" d="M156.961,140.243c0.453-1.595,3.669-3.796,2.337-6.476c-1.241-2.496-4.397-0.447-5.78-0.99
								c-1.037-0.405-2.238-0.518-3.533-0.215c-5.438,1.25-11.096,1.914-16.903,1.914c-41.437,0-75.034-33.595-75.034-75.036
								c0-2.706-0.885-4.979-2.102-6.903c-0.959-1.519-2.501-2.686-2.249-6.526c0.373-5.553,5.562-7.738,3.181-11.377
								c-0.973-1.485-5.373-3.489-8.764-2.305c-4.553,1.591-0.107,8.096-2.865,13.528c-0.726,1.415-2.729,2.289-4.499,3.314
								c-2.175,1.261-4.279,3.128-5.914,5.933c-6.443,11.074-10.139,23.95-10.139,37.686c0,41.439,33.592,75.033,75.033,75.033
								c21.992,0,41.769-9.461,55.488-24.529C156.1,142.326,156.663,141.282,156.961,140.243z"/>
						</g>
						<g>
							<g>
								<path fill="#F5B000" d="M113.667,151.426c-41.441,0-75.034-33.592-75.034-75.029c0-10.664,2.236-20.804,6.243-29.987
									c-0.899,1.106-2.606,1.878-4.128,2.764c-2.175,1.261-4.279,3.128-5.914,5.933C28.391,66.18,24.695,79.056,24.695,92.792
									c0,41.44,33.592,75.033,75.033,75.033c21.991,0,41.769-9.46,55.488-24.529c0.882-0.969,1.446-2.013,1.744-3.052
									c0.34-1.178,2.174-2.686,2.577-4.477C146.855,145.584,130.945,151.426,113.667,151.426z"/>
							</g>
						</g>
						<path fill="#C27A00" d="M159.298,133.768c-1.229-2.478-4.346-0.479-5.741-0.979c-0.554,2.018-0.644,5.277,3.541,7.117
							C157.839,138.343,160.535,136.262,159.298,133.768z"/>
						<path fill="#C27A00" d="M53.691,47.473c-0.028-0.443-0.03-0.922,0.002-1.459c0.373-5.553,5.562-7.738,3.181-11.377
							c-0.973-1.485-5.373-3.489-8.764-2.305c-4.553,1.591-0.107,8.096-2.865,13.528c-0.035,0.058-0.08,0.111-0.116,0.169
							C46.575,47.421,49.455,49.225,53.691,47.473z"/>
					</g>
				</g>
			</g>
			<g>
				<path fill="#F5DE00" d="M171.249,75.101c-0.131-1.135,1.338-3.376-0.215-4.733c-1.443-1.259-2.914,0.873-3.937,0.891
					c-0.765,0.014-1.559,0.26-2.306,0.791c-3.129,2.219-6.549,4.126-10.246,5.652c-26.351,10.875-56.528-1.673-67.405-28.023
					c-0.707-1.721-1.869-2.933-3.145-3.839c-1.009-0.715-2.299-1.05-3.141-3.56c-1.222-3.628,1.503-6.378-0.967-8.067
					c-1.005-0.689-4.331-0.81-6.175,0.833c-2.475,2.206,2.06,5.175,1.724,9.355c-0.083,1.088-1.131,2.17-1.987,3.286
					c-1.05,1.373-1.899,3.112-2.202,5.324c-1.193,8.733-0.162,17.889,3.443,26.625c10.873,26.351,41.052,38.898,67.402,28.023
					c13.981-5.771,24.074-16.977,28.847-30.162C171.247,76.65,171.334,75.84,171.249,75.101z"/>
				<g opacity="0.27">
					<g>
						<path fill="#F5B000" d="M146.652,93.574c-26.352,10.875-56.527-1.671-67.398-28.022c-2.8-6.78-4.044-13.812-3.902-20.707
							c-0.284,0.939-1.164,1.879-1.902,2.842c-1.05,1.373-1.899,3.112-2.202,5.324c-1.193,8.733-0.162,17.889,3.443,26.625
							c10.873,26.351,41.052,38.898,67.402,28.023c13.981-5.771,24.074-16.977,28.847-30.162c0.309-0.847,0.396-1.657,0.311-2.396
							c-0.096-0.838,0.677-2.279,0.465-3.524C166.225,81.147,157.643,89.041,146.652,93.574z"/>
					</g>
				</g>
				<path fill="#C27A00" d="M171.034,70.368c-1.431-1.251-2.89,0.836-3.91,0.887c0.183,1.425,0.979,3.523,4.12,3.595
					C171.311,73.661,172.477,71.629,171.034,70.368z"/>
				<g opacity="0.87">
					
						<radialGradient id="SVGID_1_" cx="-135.9673" cy="719.457" r="65.807" gradientTransform="matrix(0.9244 -0.3815 0.4138 1.0027 -51.9483 -719.4855)" gradientUnits="userSpaceOnUse">
						<stop  offset="0.5215" style="stop-color:#FFB100;stop-opacity:0"/>
						<stop  offset="0.7485" style="stop-color:#AE1C00;stop-opacity:0.73"/>
						<stop  offset="0.7776" style="stop-color:#B22300;stop-opacity:0.5647"/>
						<stop  offset="0.8203" style="stop-color:#BD3700;stop-opacity:0.323"/>
						<stop  offset="0.871" style="stop-color:#CF5700;stop-opacity:0.0355"/>
						<stop  offset="0.8773" style="stop-color:#D25B00;stop-opacity:0"/>
					</radialGradient>
					<path fill="url(#SVGID_1_)" d="M171.249,75.101c-0.131-1.135,1.338-3.376-0.215-4.733c-1.443-1.259-2.914,0.873-3.937,0.891
						c-0.765,0.014-1.559,0.26-2.306,0.791c-3.129,2.219-6.549,4.126-10.246,5.652c-26.351,10.875-56.528-1.673-67.405-28.023
						c-0.707-1.721-1.869-2.933-3.145-3.839c-1.009-0.715-2.299-1.05-3.141-3.56c-1.222-3.628,1.503-6.378-0.967-8.067
						c-1.005-0.689-4.331-0.81-6.175,0.833c-2.475,2.206,2.06,5.175,1.724,9.355c-0.083,1.088-1.131,2.17-1.987,3.286
						c-1.05,1.373-1.899,3.112-2.202,5.324c-1.193,8.733-0.162,17.889,3.443,26.625c10.873,26.351,41.052,38.898,67.402,28.023
						c13.981-5.771,24.074-16.977,28.847-30.162C171.247,76.65,171.334,75.84,171.249,75.101z"/>
				</g>
				<path fill="#C27A00" d="M81.235,43.208c-0.132-0.273-0.261-0.577-0.379-0.928c-1.222-3.628,1.503-6.378-0.967-8.067
					c-1.005-0.689-4.331-0.81-6.175,0.833c-2.475,2.206,2.06,5.175,1.724,9.355c-0.002,0.046-0.017,0.09-0.025,0.136
					C76.698,45.044,79.002,45.435,81.235,43.208z"/>
				
					<radialGradient id="SVGID_2_" cx="-168.939" cy="739.7119" r="5.0263" gradientTransform="matrix(0.9244 -0.3815 0.3815 0.9244 -49.6443 -713.905)" gradientUnits="userSpaceOnUse">
					<stop  offset="0" style="stop-color:#F2DE00;stop-opacity:0.62"/>
					<stop  offset="1" style="stop-color:#FFFC00;stop-opacity:0"/>
				</radialGradient>
				<path opacity="0.87" fill="url(#SVGID_2_)" enable-background="new    " d="M79.346,37.474c1.62-0.801,1.687-1.196,1.565-1.8
					c-0.111-0.551-0.403-1.04-1.022-1.462c-1.005-0.689-4.331-0.81-6.175,0.833c-0.751,0.67-0.857,1.409-0.649,2.229
					C73.366,38.476,76.223,39.017,79.346,37.474z"/>
				<path fill="#F5F500" d="M95,64.346c-5.556-6.27-8.542-13.81-9.084-14.601c-1.445-2.109-7.518-1.973-6.603,5.161
					c1.763,13.723,8.448,29.494,29.083,37.821c15.06,6.077,31.228,5.312,49.561-7.511c11.281-7.892,7.1-12.548,7.1-12.548
					c-15.912,10.422-31.064,12.688-47.562,6.865C108.791,76.462,101.473,71.648,95,64.346z"/>
			</g>
			<g>
				<path fill="#F5DE00" d="M174.518,100.315c0.047-1.421,2.278-3.932,0.601-5.875c-1.568-1.809-3.786,0.565-5.063,0.409
					c-0.953-0.117-1.984,0.047-3.015,0.572c-4.296,2.193-8.903,3.946-13.783,5.185c-34.786,8.812-70.052-11.94-78.771-46.353
					c-0.569-2.247-1.791-3.944-3.214-5.287c-1.13-1.058-2.668-1.696-3.261-4.941c-0.855-4.69,3.039-7.606,0.271-10.121
					c-1.126-1.026-5.241-1.758-7.84-0.053c-3.485,2.288,1.615,6.747,0.439,11.846c-0.307,1.326-1.809,2.478-3.075,3.704
					c-1.561,1.51-2.936,3.508-3.717,6.185c-3.083,10.567-3.471,22.043-0.582,33.45c8.715,34.412,43.983,55.167,78.771,46.353
					c18.457-4.676,33.066-16.736,41.418-32.17C174.23,102.227,174.482,101.242,174.518,100.315z"/>
				<g opacity="0.27">
					<g>
						<path fill="#F5B000" d="M140.521,118.807c-34.783,8.813-70.048-11.938-78.768-46.349c-2.239-8.855-2.502-17.75-1.066-26.229
							c-0.524,1.108-1.789,2.115-2.884,3.173c-1.561,1.51-2.936,3.508-3.717,6.185c-3.083,10.567-3.471,22.043-0.582,33.45
							c8.715,34.412,43.983,55.167,78.771,46.352c18.457-4.675,33.066-16.733,41.418-32.168c0.537-0.992,0.789-1.978,0.822-2.905
							c0.035-1.049,1.26-2.693,1.223-4.266C167.157,106.898,155.027,115.136,140.521,118.807z"/>
					</g>
				</g>
				<path fill="#C27A00" d="M175.116,94.439c-1.556-1.796-3.751,0.522-5.03,0.409c-0.039,1.789,0.574,4.518,4.473,5.156
					C174.854,98.549,176.68,96.247,175.116,94.439z"/>
				<g opacity="0.87">
					
						<radialGradient id="SVGID_3_" cx="-9.665" cy="700.7939" r="81.947" gradientTransform="matrix(0.9799 -0.2482 0.2664 1.0515 -62.4995 -674.2107)" gradientUnits="userSpaceOnUse">
						<stop  offset="0.5215" style="stop-color:#FFB100;stop-opacity:0"/>
						<stop  offset="0.7485" style="stop-color:#AE1C00;stop-opacity:0.73"/>
						<stop  offset="0.7776" style="stop-color:#B22300;stop-opacity:0.5647"/>
						<stop  offset="0.8203" style="stop-color:#BD3700;stop-opacity:0.323"/>
						<stop  offset="0.871" style="stop-color:#CF5700;stop-opacity:0.0355"/>
						<stop  offset="0.8773" style="stop-color:#D25B00;stop-opacity:0"/>
					</radialGradient>
					<path fill="url(#SVGID_3_)" d="M174.518,100.315c0.047-1.421,2.278-3.932,0.601-5.875c-1.568-1.809-3.786,0.565-5.063,0.409
						c-0.953-0.117-1.984,0.047-3.015,0.572c-4.296,2.193-8.903,3.946-13.783,5.185c-34.786,8.812-70.052-11.94-78.771-46.353
						c-0.569-2.247-1.791-3.944-3.214-5.287c-1.13-1.058-2.668-1.696-3.261-4.941c-0.855-4.69,3.039-7.606,0.271-10.121
						c-1.126-1.026-5.241-1.758-7.84-0.053c-3.485,2.288,1.615,6.747,0.439,11.846c-0.307,1.326-1.809,2.478-3.075,3.704
						c-1.561,1.51-2.936,3.508-3.717,6.185c-3.083,10.567-3.471,22.043-0.582,33.45c8.715,34.412,43.983,55.167,78.771,46.353
						c18.457-4.676,33.066-16.736,41.418-32.17C174.23,102.227,174.482,101.242,174.518,100.315z"/>
				</g>
				<path fill="#C27A00" d="M68.314,45.236c-0.118-0.36-0.221-0.759-0.304-1.211c-0.855-4.69,3.039-7.606,0.271-10.121
					c-1.126-1.026-5.241-1.758-7.84-0.053c-3.485,2.288,1.615,6.747,0.439,11.846c-0.013,0.052-0.038,0.104-0.061,0.162
					C62.328,46.711,65.127,47.596,68.314,45.236z"/>
				
					<radialGradient id="SVGID_4_" cx="-50.7144" cy="710.2646" r="6.2596" gradientTransform="matrix(0.9799 -0.2482 0.2456 0.9694 -60.8441 -667.6735)" gradientUnits="userSpaceOnUse">
					<stop  offset="0" style="stop-color:#F2DE00;stop-opacity:0.62"/>
					<stop  offset="1" style="stop-color:#FFFC00;stop-opacity:0"/>
				</radialGradient>
				<path opacity="0.87" fill="url(#SVGID_4_)" enable-background="new    " d="M67.009,37.831c2.162-0.704,2.318-1.181,2.277-1.945
					c-0.036-0.701-0.314-1.353-1.004-1.979c-1.126-1.026-5.241-1.758-7.84-0.053c-1.054,0.695-1.321,1.588-1.216,2.637
					C59.386,38.023,62.84,39.188,67.009,37.831z"/>
				<path fill="#F5F500" d="M81.578,73.723c-5.767-8.707-8.105-18.534-8.634-19.604c-1.415-2.853-8.996-3.749-9.161,5.218
					c-0.316,17.237,5.121,37.862,29.281,51.743c17.633,10.128,37.895,12.012,63.058-0.607c15.483-7.764,11.132-14.242,11.132-14.242
					c-21.71,10.08-40.99,10.225-60.458,0.157C96.527,91.08,88.299,83.864,81.578,73.723z"/>
			</g>
			<g>
				<path fill="#F5DE00" d="M156.527,140.445c0.453-1.596,3.666-3.795,2.334-6.477c-1.242-2.496-4.399-0.447-5.782-0.988
					c-1.035-0.406-2.238-0.518-3.536-0.215c-5.432,1.25-11.088,1.911-16.904,1.911c-41.436,0-75.031-33.594-75.031-75.032
					c0-2.708-0.887-4.98-2.102-6.906c-0.961-1.521-2.501-2.685-2.247-6.525c0.37-5.552,5.561-7.739,3.175-11.376
					c-0.97-1.485-5.369-3.49-8.759-2.306c-4.553,1.591-0.106,8.097-2.869,13.527c-0.721,1.414-2.731,2.289-4.496,3.314
					c-2.175,1.26-4.28,3.128-5.913,5.931C27.95,66.38,24.258,79.254,24.258,92.992c0,41.438,33.591,75.031,75.035,75.031
					c21.986,0,41.768-9.459,55.489-24.528C155.662,142.527,156.227,141.484,156.527,140.445z"/>
				<g opacity="0.27">
					<g>
						<path fill="#F5B000" d="M113.229,151.629c-41.438,0-75.028-33.592-75.028-75.031c0-10.663,2.232-20.804,6.244-29.986
							c-0.905,1.104-2.605,1.878-4.131,2.763c-2.175,1.26-4.28,3.128-5.913,5.931c-6.448,11.076-10.14,23.95-10.14,37.688
							c0,41.439,33.591,75.033,75.035,75.033c21.986,0,41.768-9.461,55.489-24.53c0.879-0.97,1.442-2.013,1.745-3.052
							c0.334-1.178,2.168-2.687,2.576-4.479C146.421,145.787,130.508,151.629,113.229,151.629z"/>
					</g>
				</g>
				<path fill="#C27A00" d="M158.861,133.971c-1.229-2.479-4.348-0.481-5.748-0.979c-0.547,2.016-0.637,5.277,3.545,7.113
					C157.402,138.546,160.1,136.463,158.861,133.971z"/>
				<g opacity="0.87">
					
						<radialGradient id="SVGID_5_" cx="199.584" cy="628.2754" r="95.6625" gradientTransform="matrix(1 0 0 1.0847 -100 -598.0676)" gradientUnits="userSpaceOnUse">
						<stop  offset="0.5215" style="stop-color:#FFB100;stop-opacity:0"/>
						<stop  offset="0.7485" style="stop-color:#AE1C00;stop-opacity:0.73"/>
						<stop  offset="0.7776" style="stop-color:#B22300;stop-opacity:0.5647"/>
						<stop  offset="0.8203" style="stop-color:#BD3700;stop-opacity:0.323"/>
						<stop  offset="0.871" style="stop-color:#CF5700;stop-opacity:0.0355"/>
						<stop  offset="0.8773" style="stop-color:#D25B00;stop-opacity:0"/>
					</radialGradient>
					<path fill="url(#SVGID_5_)" d="M156.527,140.445c0.453-1.596,3.666-3.795,2.334-6.477c-1.242-2.496-4.399-0.447-5.782-0.988
						c-1.035-0.406-2.238-0.518-3.536-0.215c-5.432,1.25-11.088,1.911-16.904,1.911c-41.436,0-75.031-33.594-75.031-75.032
						c0-2.708-0.887-4.98-2.102-6.906c-0.961-1.521-2.501-2.685-2.247-6.525c0.37-5.552,5.561-7.739,3.175-11.376
						c-0.97-1.485-5.369-3.49-8.759-2.306c-4.553,1.591-0.106,8.097-2.869,13.527c-0.721,1.414-2.731,2.289-4.496,3.314
						c-2.175,1.26-4.28,3.128-5.913,5.931C27.95,66.38,24.258,79.254,24.258,92.992c0,41.438,33.591,75.031,75.035,75.031
						c21.986,0,41.768-9.459,55.489-24.528C155.662,142.527,156.227,141.484,156.527,140.445z"/>
				</g>
				<path fill="#C27A00" d="M53.254,47.674c-0.026-0.439-0.03-0.922,0.005-1.458c0.37-5.552,5.561-7.739,3.175-11.376
					c-0.97-1.485-5.369-3.49-8.759-2.306c-4.553,1.591-0.106,8.097-2.869,13.527c-0.031,0.058-0.077,0.111-0.112,0.169
					C46.138,47.625,49.02,49.427,53.254,47.674z"/>
				
					<radialGradient id="SVGID_6_" cx="151.6641" cy="624.0635" r="7.3063" gradientTransform="matrix(1 0 0 1 -100 -591)" gradientUnits="userSpaceOnUse">
					<stop  offset="0" style="stop-color:#F2DE00;stop-opacity:0.62"/>
					<stop  offset="1" style="stop-color:#FFFC00;stop-opacity:0"/>
				</radialGradient>
				<path opacity="0.87" fill="url(#SVGID_6_)" enable-background="new    " d="M53.893,38.919c2.622-0.179,2.933-0.669,3.105-1.548
					c0.156-0.804,0.033-1.623-0.563-2.532c-0.97-1.485-5.369-3.49-8.759-2.306c-1.381,0.483-1.934,1.416-2.11,2.635
					C45.305,36.952,48.843,39.265,53.893,38.919z"/>
				<path fill="#F5F500" d="M60.027,83.711c-3.988-11.506-3.817-23.296-4.108-24.66c-0.775-3.633-9.009-6.82-11.732,3.276
					c-5.243,19.418-5.005,44.313,18.104,66.948c16.864,16.52,39.018,24.457,70.764,17.394c19.535-4.349,16.5-12.926,16.5-12.926
					c-27.162,5.184-48.783-0.181-67.726-17.153C71.838,107.639,64.674,97.112,60.027,83.711z"/>
			</g>
		</g>
	</g>
</g>
<g id="outline_x5F_white">
	<g>
		<g>
			<path fill="#FFFFFF" d="M50.359,31.973c2.853,0,5.749,1.493,6.516,2.663c2.381,3.639-2.808,5.824-3.181,11.377
				c-0.026,0.425-0.025,0.807-0.012,1.171c0.002,0.073,0.002,0.152,0.007,0.226c0.128,2.219,0.971,3.337,1.73,4.374
				c0.598-0.954,1.272-1.79,2-2.506c0.251-0.251,0.517-0.499,0.775-0.746c0.276-0.26,0.547-0.519,0.802-0.78
				c0.032-0.033,0.064-0.065,0.094-0.097c0.236-0.244,0.458-0.49,0.649-0.74c0.016-0.019,0.028-0.041,0.043-0.06
				c0.188-0.248,0.35-0.5,0.468-0.757c0.063-0.13,0.11-0.264,0.148-0.401h-0.002c0.018-0.057,0.042-0.112,0.061-0.169
				c1.127-5.141-4.009-9.613-0.547-11.938c1.124-0.752,2.54-1.04,3.874-1.04c1.727,0,3.317,0.482,3.958,1.064
				c2.784,2.524-1.083,5.479-0.186,10.206c0.07,0.354,0.152,0.663,0.238,0.956c0.024,0.076,0.043,0.157,0.068,0.229
				c0.733,2.253,2.016,2.862,2.994,3.782c0.394,0.369,0.767,0.771,1.118,1.197c0.372-0.808,0.808-1.533,1.299-2.171
				c0.191-0.25,0.394-0.495,0.589-0.74c0.164-0.208,0.327-0.412,0.48-0.62c0.029-0.036,0.057-0.075,0.084-0.113
				c0.157-0.215,0.303-0.428,0.425-0.643c0.012-0.017,0.021-0.036,0.032-0.057c0.121-0.213,0.221-0.43,0.287-0.644
				c0.035-0.111,0.056-0.222,0.075-0.333c0.005-0.048,0.022-0.097,0.027-0.14c0.339-4.185-4.199-7.171-1.713-9.378
				c1.071-0.949,2.637-1.307,3.961-1.307c0.967,0,1.805,0.19,2.229,0.482c2.474,1.7-0.263,4.45,0.952,8.09
				c0.117,0.345,0.241,0.645,0.373,0.913c0.822,1.695,1.897,2.042,2.771,2.66c1.277,0.907,2.438,2.127,3.147,3.853
				c8.211,19.999,27.513,32.095,47.869,32.095c6.543,0,13.193-1.25,19.621-3.889c3.705-1.523,7.14-3.427,10.279-5.645
				c0.746-0.532,1.545-0.776,2.312-0.79c0.034,0,0.071-0.02,0.104-0.022c0.622-0.089,1.395-0.84,2.225-1.142h0.003
				c0.143-0.05,0.29-0.078,0.433-0.096c0.036-0.005,0.067-0.018,0.102-0.021c0.019-0.001,0.035-0.001,0.054-0.001
				c0.128,0,0.256,0.026,0.383,0.059c0.035,0.011,0.07,0.002,0.104,0.016c0.18,0.064,0.357,0.168,0.541,0.326
				c0.188,0.164,0.326,0.342,0.436,0.529c0.041,0.074,0.061,0.154,0.091,0.233c0.048,0.115,0.103,0.23,0.13,0.352
				c0.01,0.034,0.014,0.067,0.021,0.101c0-0.001,0.002-0.003,0.004-0.005c0.019,0.119,0.024,0.242,0.026,0.362
				c0.002,0.039,0.008,0.074,0.008,0.11c0,0.021-0.004,0.041-0.004,0.061c-0.002,0.074-0.01,0.146-0.016,0.221
				c-0.007,0.086-0.011,0.173-0.023,0.261c-0.006,0.053-0.016,0.105-0.024,0.157c-0.01,0.065-0.021,0.128-0.035,0.19
				c-0.012,0.07-0.026,0.14-0.042,0.208c-0.021,0.099-0.045,0.193-0.066,0.287c-0.02,0.075-0.033,0.146-0.053,0.221
				c-0.055,0.202-0.102,0.397-0.144,0.582c-0.017,0.07-0.028,0.139-0.041,0.207c-0.021,0.106-0.034,0.208-0.044,0.306
				c-0.014,0.125-0.026,0.25-0.018,0.358c0.086,0.741-0.006,1.555-0.312,2.402c-3.08,8.456-8.353,16.086-15.425,21.999
				c4.008-1.201,7.834-2.741,11.423-4.61c0.817-0.428,1.644-0.622,2.433-0.622c0.193,0,0.385,0.012,0.573,0.035
				c0.001,0,0.003,0,0.005,0c0.006,0,0.012,0,0.02,0c0.005,0,0.008,0,0.011,0V94.67c0.028,0.002,0.062,0.004,0.091,0.004
				c0.918,0,2.254-1.116,3.499-1.116c0.151,0,0.308,0.017,0.455,0.055c0.009,0.002,0.019,0.002,0.022,0.004
				c0.106,0.028,0.209,0.066,0.311,0.119c0.007,0.002,0.014,0.002,0.02,0.005c0.104,0.052,0.198,0.117,0.299,0.194
				c0.004,0.003,0.013,0.006,0.018,0.011c0.104,0.082,0.202,0.179,0.303,0.292c0.188,0.217,0.323,0.443,0.422,0.674
				c0.01,0.015,0.02,0.029,0.023,0.046c0.093,0.222,0.145,0.448,0.169,0.678c0.004,0.022,0.009,0.046,0.011,0.07
				c0.004,0.051,0.008,0.103,0.01,0.154l0,0c0,0.007,0,0.016,0,0.023c0.004,0.167-0.006,0.333-0.025,0.501
				c-0.003,0.023-0.003,0.043-0.005,0.065c-0.005,0.011-0.007,0.021-0.007,0.031c-0.032,0.22-0.084,0.439-0.146,0.657
				c-0.01,0.034-0.018,0.065-0.028,0.099c-0.035,0.125-0.076,0.249-0.121,0.373c-0.008,0.022-0.016,0.041-0.021,0.063
				c-0.023,0.066-0.047,0.133-0.07,0.198c-0.026,0.066-0.051,0.129-0.074,0.194c-0.043,0.102-0.084,0.202-0.125,0.302
				c-0.215,0.531-0.418,1.027-0.504,1.45c-0.023,0.119-0.047,0.239-0.053,0.346c-0.02,0.936-0.27,1.932-0.795,2.934
				c-7.533,14.334-20.4,25.797-36.72,31.271c4.47-0.227,8.848-0.83,13.084-1.805c0.502-0.117,0.989-0.172,1.459-0.172
				c0.741,0,1.438,0.137,2.073,0.387c0.014,0.006,0.023,0.008,0.039,0.011v-0.001c0.168,0.061,0.359,0.084,0.57,0.084
				c0.838,0,1.965-0.375,2.994-0.375c0.875,0,1.682,0.271,2.178,1.271c0.08,0.16,0.141,0.32,0.189,0.479
				c0.021,0.064,0.027,0.126,0.043,0.189c0.021,0.094,0.048,0.187,0.061,0.277c0.01,0.072,0.01,0.146,0.016,0.223
				c0.004,0.078,0.011,0.154,0.009,0.232c-0.003,0.078-0.015,0.156-0.021,0.232c-0.01,0.07-0.015,0.145-0.025,0.211
				c-0.01,0.056-0.02,0.104-0.03,0.154c0-0.002,0-0.002,0-0.002c-0.003,0.008-0.005,0.017-0.009,0.021
				c-0.005,0.021-0.01,0.041-0.016,0.061c-0.018,0.067-0.03,0.137-0.057,0.203c-0.021,0.077-0.051,0.153-0.076,0.229
				c-0.025,0.065-0.054,0.134-0.078,0.197c-0.033,0.074-0.068,0.147-0.104,0.221c-0.031,0.065-0.064,0.135-0.104,0.199
				c-0.036,0.068-0.07,0.138-0.109,0.203c-0.043,0.069-0.084,0.144-0.129,0.213c-0.037,0.061-0.072,0.117-0.111,0.176
				c-0.057,0.084-0.111,0.17-0.168,0.255c-0.025,0.036-0.053,0.073-0.078,0.108c-0.264,0.375-0.539,0.73-0.781,1.068
				c-0.037,0.048-0.065,0.096-0.104,0.143c-0.087,0.123-0.168,0.241-0.242,0.358c-0.055,0.085-0.105,0.168-0.15,0.249
				c-0.037,0.062-0.069,0.124-0.103,0.186c-0.063,0.133-0.126,0.266-0.161,0.389c-0.298,1.037-0.861,2.083-1.742,3.052
				c-13.722,15.067-33.498,24.529-55.489,24.529c-41.441,0-75.033-33.595-75.033-75.033c0-13.735,3.695-26.612,10.139-37.686
				c1.635-2.805,3.739-4.671,5.914-5.933c0.355-0.206,0.72-0.405,1.082-0.604c0.386-0.215,0.768-0.43,1.135-0.649
				c0.042-0.025,0.084-0.052,0.125-0.076c0.34-0.206,0.662-0.42,0.953-0.646c0.018-0.013,0.035-0.029,0.053-0.045
				c0.293-0.232,0.557-0.474,0.772-0.736c0.1-0.123,0.186-0.253,0.263-0.386l-0.001-0.002c0.036-0.058,0.081-0.111,0.116-0.169
				c2.757-5.432-1.688-11.937,2.865-13.528C48.83,32.08,49.593,31.973,50.359,31.973 M50.36,19.973L50.36,19.973
				c-2.161,0-4.248,0.346-6.204,1.029c-5.083,1.777-8.658,5.797-9.811,11.032c-0.601,2.73-0.423,5.161-0.254,7.14
				c-3.994,2.455-7.227,5.778-9.624,9.89c-7.703,13.238-11.771,28.357-11.771,43.729c0,47.99,39.043,87.033,87.033,87.033
				c24.441,0,47.9-10.37,64.361-28.45c1.648-1.812,2.917-3.825,3.787-6.009c0.141-0.191,0.282-0.387,0.423-0.585l0.063-0.091
				c0.086-0.121,0.17-0.243,0.252-0.367l0.08-0.123c0.101-0.148,0.209-0.315,0.312-0.484c0.088-0.138,0.17-0.273,0.249-0.408
				c0.022-0.039,0.048-0.078,0.07-0.117c0.116-0.2,0.229-0.402,0.341-0.61c0.139-0.256,0.271-0.519,0.393-0.772
				c0.015-0.031,0.027-0.062,0.045-0.097c0.055-0.118,0.104-0.226,0.148-0.329c0.062-0.137,0.12-0.273,0.178-0.41l0.092-0.234
				c0.057-0.139,0.117-0.299,0.166-0.438c0.063-0.181,0.127-0.36,0.185-0.541c0.106-0.323,0.185-0.606,0.243-0.837
				c0.035-0.135,0.07-0.27,0.104-0.406c0.066-0.285,0.125-0.566,0.176-0.873c0.062-0.363,0.101-0.668,0.121-0.881
				c0.012-0.1,0.021-0.199,0.03-0.3c0.027-0.28,0.048-0.56,0.058-0.835c0.002-0.052,0.004-0.104,0.006-0.152
				c0.013-0.453-0.004-0.824-0.016-1.07c-0.004-0.067-0.008-0.139-0.013-0.206c-0.013-0.248-0.037-0.597-0.091-1.015
				c-0.072-0.562-0.168-1.024-0.256-1.396c-0.061-0.271-0.145-0.617-0.266-1.021c-0.018-0.056-0.033-0.107-0.051-0.162
				c-0.244-0.766-0.529-1.477-0.878-2.172c-0.067-0.142-0.142-0.276-0.213-0.414c5.728-5.578,10.597-12.08,14.409-19.334
				c1.045-1.985,1.716-4.061,2.008-6.188c0.023-0.063,0.051-0.129,0.074-0.194c0.048-0.115,0.092-0.232,0.135-0.353l0.064-0.188
				l-0.002,0.006c0.008-0.02,0.016-0.039,0.021-0.059l0.021-0.057c0.112-0.321,0.207-0.604,0.289-0.877
				c0.034-0.113,0.067-0.229,0.103-0.343c0.002-0.008,0.004-0.016,0.007-0.023c0.182-0.642,0.325-1.285,0.43-1.915
				c0.057-0.325,0.1-0.652,0.129-0.98c0.053-0.53,0.08-1.061,0.078-1.586c0-0.021,0-0.042,0-0.062c0-0.15-0.003-0.301-0.009-0.451
				c-0.008-0.209-0.021-0.418-0.036-0.623c-0.023-0.294-0.055-0.57-0.095-0.844c-0.164-1.207-0.476-2.377-0.927-3.487
				c-0.105-0.262-0.221-0.521-0.346-0.775c-0.563-1.192-1.289-2.302-2.158-3.305c-0.021-0.021-0.037-0.043-0.059-0.065
				c-0.561-0.637-1.171-1.221-1.814-1.737l0,0c-0.146-0.115-0.291-0.227-0.439-0.335c-0.104-0.076-0.207-0.15-0.312-0.223
				c0.272-0.674,0.533-1.354,0.783-2.039c0.678-1.876,1.031-3.767,1.065-5.657c0.013-0.05,0.022-0.1,0.035-0.15
				c0.01-0.043,0.021-0.086,0.028-0.13c0.03-0.143,0.06-0.283,0.086-0.422c0.033-0.16,0.062-0.322,0.09-0.485
				c0.031-0.181,0.061-0.361,0.086-0.543c0.057-0.406,0.083-0.738,0.101-0.986c0.001-0.002,0.001-0.004,0.001-0.007
				c0.016-0.19,0.028-0.377,0.037-0.563c0.01-0.207,0.016-0.416,0.016-0.624c0-0.251-0.008-0.5-0.021-0.754
				c-0.021-0.538-0.075-1.056-0.155-1.571c-0.051-0.322-0.112-0.64-0.188-0.954c-0.016-0.068-0.031-0.136-0.049-0.204
				c-0.178-0.719-0.393-1.311-0.571-1.76c-0.153-0.413-0.412-1.042-0.804-1.743c-0.033-0.062-0.067-0.123-0.104-0.184
				c-0.778-1.346-1.771-2.544-2.938-3.562c-1.289-1.117-2.717-1.963-4.265-2.533c-0.663-0.245-1.347-0.431-2.042-0.557
				c-0.874-0.175-1.73-0.261-2.602-0.261c-0.256,0-0.51,0.007-0.766,0.022c-0.058,0.003-0.113,0.007-0.171,0.012
				c-0.448,0.033-0.89,0.09-1.329,0.172c-0.693,0.117-1.359,0.28-2.017,0.495c-0.138,0.044-0.271,0.091-0.408,0.14
				c-0.794,0.289-1.483,0.618-2.056,0.925c-1.934,0.489-3.774,1.342-5.445,2.532c-2.416,1.706-5.081,3.169-7.882,4.321
				c-4.825,1.981-9.896,2.987-15.06,2.987c-16.187,0-30.617-9.677-36.768-24.653c-1.196-2.906-2.993-5.431-5.358-7.535
				c0.462-7.095-3.012-11.129-6.189-13.312c-3.118-2.143-6.629-2.592-9.025-2.592c-1.729,0-3.414,0.223-5.011,0.653
				c-3.448-1.714-7.048-1.944-8.725-1.944c-2.019,0-3.969,0.284-5.797,0.836C55.57,20.481,52.951,19.973,50.36,19.973L50.36,19.973z
				"/>
		</g>
	</g>
</g>
<g id="outline_x5F_black">
	<g>
		<path d="M50.359,31.973c2.853,0,5.749,1.493,6.516,2.663c2.381,3.639-2.808,5.824-3.181,11.377
			c-0.026,0.425-0.025,0.807-0.012,1.171c0.002,0.073,0.002,0.152,0.007,0.226c0.128,2.219,0.971,3.337,1.73,4.374
			c0.598-0.954,1.272-1.79,2-2.506c0.251-0.251,0.517-0.499,0.775-0.746c0.276-0.26,0.547-0.519,0.802-0.78
			c0.032-0.033,0.064-0.065,0.094-0.097c0.236-0.244,0.458-0.49,0.649-0.74c0.016-0.019,0.028-0.041,0.043-0.06
			c0.188-0.248,0.35-0.5,0.468-0.757c0.063-0.13,0.11-0.264,0.148-0.401h-0.002c0.018-0.057,0.042-0.112,0.061-0.169
			c1.127-5.141-4.009-9.613-0.547-11.938c1.124-0.752,2.54-1.04,3.874-1.04c1.727,0,3.317,0.482,3.958,1.064
			c2.784,2.524-1.083,5.479-0.186,10.206c0.07,0.354,0.152,0.663,0.238,0.956c0.024,0.076,0.043,0.157,0.068,0.229
			c0.733,2.253,2.016,2.862,2.994,3.782c0.394,0.369,0.767,0.771,1.118,1.197c0.372-0.808,0.808-1.533,1.299-2.171
			c0.191-0.25,0.394-0.495,0.589-0.74c0.164-0.208,0.327-0.412,0.48-0.62c0.029-0.036,0.057-0.075,0.084-0.113
			c0.157-0.215,0.303-0.428,0.425-0.643c0.012-0.017,0.021-0.036,0.032-0.057c0.121-0.213,0.221-0.43,0.287-0.644
			c0.035-0.111,0.056-0.222,0.075-0.333c0.005-0.048,0.022-0.097,0.027-0.14c0.339-4.185-4.199-7.171-1.713-9.378
			c1.071-0.949,2.637-1.307,3.961-1.307c0.967,0,1.805,0.19,2.229,0.482c2.474,1.7-0.263,4.45,0.952,8.09
			c0.117,0.345,0.241,0.645,0.373,0.913c0.822,1.695,1.897,2.042,2.771,2.66c1.277,0.907,2.438,2.127,3.147,3.853
			c8.211,19.999,27.513,32.095,47.869,32.095c6.543,0,13.193-1.25,19.621-3.889c3.705-1.523,7.14-3.427,10.279-5.645
			c0.746-0.532,1.545-0.776,2.312-0.79c0.034,0,0.071-0.02,0.104-0.022c0.622-0.089,1.395-0.84,2.225-1.142h0.003
			c0.143-0.05,0.29-0.078,0.433-0.096c0.036-0.005,0.067-0.018,0.102-0.021c0.019-0.001,0.035-0.001,0.054-0.001
			c0.128,0,0.256,0.026,0.383,0.059c0.035,0.011,0.07,0.002,0.104,0.016c0.18,0.064,0.357,0.168,0.541,0.326
			c0.188,0.164,0.326,0.342,0.436,0.529c0.041,0.074,0.061,0.154,0.091,0.233c0.048,0.115,0.103,0.23,0.13,0.352
			c0.01,0.034,0.014,0.067,0.021,0.101c0-0.001,0.002-0.003,0.004-0.005c0.019,0.119,0.024,0.242,0.026,0.362
			c0.002,0.039,0.008,0.074,0.008,0.11c0,0.021-0.004,0.041-0.004,0.061c-0.002,0.074-0.01,0.146-0.016,0.221
			c-0.007,0.086-0.011,0.173-0.023,0.261c-0.006,0.053-0.016,0.105-0.024,0.157c-0.01,0.065-0.021,0.128-0.035,0.19
			c-0.012,0.07-0.026,0.14-0.042,0.208c-0.021,0.099-0.045,0.193-0.066,0.287c-0.02,0.075-0.033,0.146-0.053,0.221
			c-0.055,0.202-0.102,0.397-0.144,0.582c-0.017,0.07-0.028,0.139-0.041,0.207c-0.021,0.106-0.034,0.208-0.044,0.306
			c-0.014,0.125-0.026,0.25-0.018,0.358c0.086,0.741-0.006,1.555-0.312,2.402c-3.08,8.456-8.353,16.086-15.425,21.999
			c4.008-1.201,7.834-2.741,11.423-4.61c0.817-0.428,1.644-0.622,2.433-0.622c0.193,0,0.385,0.012,0.573,0.035
			c0.001,0,0.003,0,0.005,0c0.006,0,0.012,0,0.02,0c0.005,0,0.008,0,0.011,0V94.67c0.028,0.002,0.062,0.004,0.091,0.004
			c0.918,0,2.254-1.116,3.499-1.116c0.151,0,0.308,0.017,0.455,0.055c0.009,0.002,0.019,0.002,0.022,0.004
			c0.106,0.028,0.209,0.066,0.311,0.119c0.007,0.002,0.014,0.002,0.02,0.005c0.104,0.052,0.198,0.117,0.299,0.194
			c0.004,0.003,0.013,0.006,0.018,0.011c0.104,0.082,0.202,0.179,0.303,0.292c0.188,0.217,0.323,0.443,0.422,0.674
			c0.01,0.015,0.02,0.029,0.023,0.046c0.093,0.222,0.145,0.448,0.169,0.678c0.004,0.022,0.009,0.046,0.011,0.07
			c0.004,0.051,0.008,0.103,0.01,0.154l0,0c0,0.007,0,0.016,0,0.023c0.004,0.167-0.006,0.333-0.025,0.501
			c-0.003,0.023-0.003,0.043-0.005,0.065c-0.005,0.011-0.007,0.021-0.007,0.031c-0.032,0.22-0.084,0.439-0.146,0.657
			c-0.01,0.034-0.018,0.065-0.028,0.099c-0.035,0.125-0.076,0.249-0.121,0.373c-0.008,0.022-0.016,0.041-0.021,0.063
			c-0.023,0.066-0.047,0.133-0.07,0.198c-0.026,0.066-0.051,0.129-0.074,0.194c-0.043,0.102-0.084,0.202-0.125,0.302
			c-0.215,0.531-0.418,1.027-0.504,1.45c-0.023,0.119-0.047,0.239-0.053,0.346c-0.02,0.936-0.27,1.932-0.795,2.934
			c-7.533,14.334-20.4,25.797-36.72,31.271c4.47-0.227,8.848-0.83,13.084-1.805c0.502-0.117,0.989-0.172,1.459-0.172
			c0.741,0,1.438,0.137,2.073,0.387c0.014,0.006,0.023,0.008,0.039,0.011v-0.001c0.168,0.061,0.359,0.084,0.57,0.084
			c0.838,0,1.965-0.375,2.994-0.375c0.875,0,1.682,0.271,2.178,1.271c0.08,0.16,0.141,0.32,0.189,0.479
			c0.021,0.064,0.027,0.126,0.043,0.189c0.021,0.094,0.048,0.187,0.061,0.277c0.01,0.072,0.01,0.146,0.016,0.223
			c0.004,0.078,0.011,0.154,0.009,0.232c-0.003,0.078-0.015,0.156-0.021,0.232c-0.01,0.07-0.015,0.145-0.025,0.211
			c-0.01,0.056-0.02,0.104-0.03,0.154c0-0.002,0-0.002,0-0.002c-0.003,0.008-0.005,0.017-0.009,0.021
			c-0.005,0.021-0.01,0.041-0.016,0.061c-0.018,0.067-0.03,0.137-0.057,0.203c-0.021,0.077-0.051,0.153-0.076,0.229
			c-0.025,0.065-0.054,0.134-0.078,0.197c-0.033,0.074-0.068,0.147-0.104,0.221c-0.031,0.065-0.064,0.135-0.104,0.199
			c-0.036,0.068-0.07,0.138-0.109,0.203c-0.043,0.069-0.084,0.144-0.129,0.213c-0.037,0.061-0.072,0.117-0.111,0.176
			c-0.057,0.084-0.111,0.17-0.168,0.255c-0.025,0.036-0.053,0.073-0.078,0.108c-0.264,0.375-0.539,0.73-0.781,1.068
			c-0.037,0.048-0.065,0.096-0.104,0.143c-0.087,0.123-0.168,0.241-0.242,0.358c-0.055,0.085-0.105,0.168-0.15,0.249
			c-0.037,0.062-0.069,0.124-0.103,0.186c-0.063,0.133-0.126,0.266-0.161,0.389c-0.298,1.037-0.861,2.083-1.742,3.052
			c-13.722,15.067-33.498,24.529-55.489,24.529c-41.441,0-75.033-33.595-75.033-75.033c0-13.735,3.695-26.612,10.139-37.686
			c1.635-2.805,3.739-4.671,5.914-5.933c0.355-0.206,0.72-0.405,1.082-0.604c0.386-0.215,0.768-0.43,1.135-0.649
			c0.042-0.025,0.084-0.052,0.125-0.076c0.34-0.206,0.662-0.42,0.953-0.646c0.018-0.013,0.035-0.029,0.053-0.045
			c0.293-0.232,0.557-0.474,0.772-0.736c0.1-0.123,0.186-0.253,0.263-0.386l-0.001-0.002c0.036-0.058,0.081-0.111,0.116-0.169
			c2.757-5.432-1.688-11.937,2.865-13.528C48.83,32.08,49.593,31.973,50.359,31.973 M50.359,25.973
			c-1.485,0-2.907,0.233-4.226,0.694c-6.887,2.407-6.298,9.28-6.046,12.215c0.118,1.38,0.24,2.799-0.011,3.772
			c-0.029,0.018-0.06,0.037-0.093,0.058l-0.089,0.054c-0.324,0.194-0.65,0.377-0.98,0.561l-0.08,0.044
			c-0.367,0.201-0.734,0.403-1.092,0.611c-3.376,1.958-6.098,4.684-8.091,8.104C22.484,64.405,18.696,78.48,18.696,92.794
			c0,44.681,36.352,81.033,81.033,81.033c22.755,0,44.598-9.655,59.925-26.49c1.32-1.451,2.291-3.078,2.89-4.843
			c0.017-0.021,0.031-0.045,0.047-0.067c0.084-0.116,0.173-0.235,0.265-0.356c0.183-0.243,0.367-0.494,0.549-0.754l0.068-0.096
			c0.043-0.062,0.086-0.125,0.129-0.188l0.121-0.186c0.064-0.097,0.131-0.199,0.196-0.306c0.072-0.115,0.126-0.204,0.179-0.293
			c0.02-0.029,0.047-0.077,0.064-0.104c0.074-0.129,0.145-0.256,0.215-0.39c0.096-0.176,0.18-0.34,0.255-0.502
			c0.009-0.019,0.015-0.03,0.022-0.049l0.021-0.048l0.104-0.229c0.031-0.068,0.061-0.138,0.089-0.207l0.09-0.228
			c0.026-0.067,0.053-0.138,0.078-0.206c0.049-0.137,0.092-0.264,0.132-0.389c0.07-0.215,0.118-0.396,0.148-0.52
			c0.021-0.08,0.043-0.161,0.062-0.24c0.04-0.173,0.074-0.342,0.104-0.523c0.027-0.17,0.053-0.342,0.069-0.518l-0.001,0.004
			c0.01-0.064,0.016-0.132,0.021-0.195c0.018-0.18,0.029-0.346,0.037-0.514c0-0.023,0-0.05,0.002-0.072
			c0.005-0.211,0-0.42-0.012-0.629c-0.002-0.062-0.006-0.108-0.01-0.162c-0.011-0.197-0.025-0.389-0.05-0.572
			c-0.046-0.361-0.113-0.663-0.159-0.852c-0.029-0.146-0.079-0.354-0.152-0.603c-0.01-0.026-0.018-0.056-0.024-0.083
			c-0.149-0.471-0.325-0.902-0.534-1.322c-0.771-1.556-1.91-2.758-3.311-3.541c7.158-5.91,13.138-13.236,17.567-21.669
			c0.826-1.571,1.312-3.211,1.446-4.882c0.044-0.109,0.096-0.236,0.141-0.345l0.125-0.304c0.022-0.061,0.049-0.122,0.07-0.184
			l0.021-0.058c0.035-0.082,0.051-0.126,0.082-0.21l0.047-0.134c0.007-0.018,0.021-0.066,0.029-0.084
			c0.002-0.003,0.024-0.07,0.025-0.073c0.07-0.204,0.138-0.402,0.195-0.6c0.023-0.078,0.049-0.156,0.07-0.236
			c0.127-0.449,0.221-0.871,0.289-1.292c0.029-0.17,0.053-0.341,0.066-0.512c0.002-0.017,0.003-0.034,0.005-0.051
			c0.035-0.349,0.052-0.683,0.051-1.008c0-0.019,0-0.037,0-0.056c0-0.076-0.001-0.152-0.004-0.228
			c-0.005-0.13-0.015-0.259-0.022-0.386c-0.016-0.186-0.033-0.341-0.055-0.467c-0.096-0.72-0.277-1.414-0.544-2.066
			c-0.06-0.146-0.124-0.292-0.194-0.434c-0.332-0.712-0.765-1.375-1.283-1.974c-0.355-0.406-0.713-0.747-1.086-1.045l0,0
			c-0.075-0.061-0.152-0.12-0.231-0.177c-0.362-0.271-0.733-0.501-1.127-0.699c-0.106-0.054-0.217-0.104-0.328-0.153
			c-0.383-0.172-0.778-0.313-1.187-0.419c-0.084-0.022-0.17-0.042-0.256-0.061c-0.565-0.128-1.15-0.194-1.74-0.194
			c-0.145,0-0.282,0.004-0.422,0.011c1.322-2.455,2.473-5.01,3.433-7.646c0.519-1.434,0.75-2.874,0.698-4.3
			c0.006-0.021,0.011-0.042,0.017-0.063c0.011-0.035,0.021-0.07,0.027-0.106l0.056-0.237l0.008-0.023
			c0.026-0.116,0.055-0.232,0.082-0.353c0.006-0.023,0.012-0.046,0.016-0.069c0.025-0.112,0.047-0.216,0.066-0.319
			c0.021-0.11,0.043-0.221,0.062-0.333c0.021-0.12,0.04-0.238,0.057-0.357c0.026-0.196,0.045-0.39,0.06-0.582
			c0-0.017,0.002-0.039,0.004-0.06c0.012-0.129,0.021-0.25,0.023-0.371c0.008-0.113,0.01-0.227,0.01-0.34
			c0-0.146-0.004-0.292-0.015-0.439c-0.014-0.334-0.044-0.65-0.093-0.959c-0.026-0.17-0.061-0.339-0.102-0.505
			c-0.01-0.038-0.02-0.078-0.029-0.119c-0.114-0.47-0.262-0.846-0.354-1.072c-0.094-0.259-0.231-0.597-0.44-0.975
			c-0.019-0.031-0.034-0.062-0.055-0.093c-0.447-0.773-1.016-1.462-1.686-2.045c-0.73-0.633-1.537-1.111-2.405-1.43
			c-0.353-0.129-0.714-0.226-1.085-0.29c-0.504-0.104-0.99-0.155-1.477-0.155c-0.139,0-0.276,0.004-0.416,0.012
			c-0.024,0.002-0.051,0.003-0.075,0.005c-0.233,0.017-0.466,0.047-0.697,0.091c-0.413,0.065-0.823,0.163-1.226,0.294
			c-0.075,0.024-0.15,0.05-0.225,0.077c-0.791,0.288-1.438,0.653-1.924,0.952c-1.474,0.26-2.886,0.854-4.148,1.754
			c-2.803,1.979-5.863,3.66-9.08,4.982c-5.555,2.281-11.389,3.438-17.34,3.438c-18.631,0-35.243-11.138-42.317-28.374
			c-1.064-2.586-2.822-4.761-5.225-6.466c-0.349-0.247-0.657-0.436-0.904-0.587c-0.01-0.006-0.021-0.012-0.03-0.019
			c-0.057-0.188,0.06-0.861,0.154-1.404c0.312-1.802,1.142-6.59-3.391-9.705c-1.849-1.271-4.081-1.537-5.627-1.537
			c-1.327,0-3.556,0.204-5.751,1.326c-2.678-2.428-6.789-2.617-7.985-2.617c-2.161,0-4.185,0.452-5.933,1.316
			C55.645,26.687,52.969,25.973,50.359,25.973L50.359,25.973z"/>
	</g>
</g>
</svg>
