<?xml version="1.0" encoding="utf-8"?>
<!-- Generator: Adobe Illustrator 15.0.0, SVG Export Plug-In . SVG Version: 6.00 Build 0)  -->
<!DOCTYPE svg PUBLIC "-//W3C//DTD SVG 1.1//EN" "http://www.w3.org/Graphics/SVG/1.1/DTD/svg11.dtd">
<svg version="1.1" xmlns="http://www.w3.org/2000/svg" xmlns:xlink="http://www.w3.org/1999/xlink" x="0px" y="0px" width="200px"
	 height="200px" viewBox="0 0 200 200" enable-background="new 0 0 200 200" xml:space="preserve">
<g id="icon">
	<g id="Layer_2">
	</g>
	<g>
		
			<linearGradient id="SVGID_1_" gradientUnits="userSpaceOnUse" x1="161.5723" y1="733.8271" x2="237.9521" y2="733.8271" gradientTransform="matrix(1 0 0 1 -100 -591)">
			<stop  offset="0" style="stop-color:#A2927E"/>
			<stop  offset="0.0572" style="stop-color:#BEB19A"/>
			<stop  offset="0.1199" style="stop-color:#D6CCB2"/>
			<stop  offset="0.1888" style="stop-color:#E8E0C5"/>
			<stop  offset="0.2662" style="stop-color:#F5EFD2"/>
			<stop  offset="0.3592" style="stop-color:#FDF7DA"/>
			<stop  offset="0.5092" style="stop-color:#FFFADC"/>
			<stop  offset="0.603" style="stop-color:#FBF6D8"/>
			<stop  offset="0.7001" style="stop-color:#F0E9CD"/>
			<stop  offset="0.7989" style="stop-color:#DED5BB"/>
			<stop  offset="0.8987" style="stop-color:#C4B8A2"/>
			<stop  offset="0.9985" style="stop-color:#A39382"/>
			<stop  offset="1" style="stop-color:#A29281"/>
		</linearGradient>
		<path fill="url(#SVGID_1_)" d="M99.762,177.275c-21.059,0-38.19-12.515-38.19-27.896c0-7.791,4.463-15.269,12.245-20.514
			l0.746-0.496c2.312-1.522,5.478-3.613,7.751-7.321c5.085-8.289,11.118-12.67,17.448-12.67c6.298,0,12.28,4.301,16.41,11.796
			c2.258,4.099,5.994,6.443,8.227,7.847l0.435,0.271c8.338,5.282,13.119,12.968,13.119,21.087
			C137.95,164.764,120.818,177.275,99.762,177.275z"/>
		<g>
			
				<radialGradient id="SVGID_2_" cx="199.7637" cy="978.1221" r="60.5958" gradientTransform="matrix(1 0 0 0.6951 -100 -552.0097)" gradientUnits="userSpaceOnUse">
				<stop  offset="0.5828" style="stop-color:#A2927E"/>
				<stop  offset="0.6031" style="stop-color:#A2927E;stop-opacity:0.9515"/>
				<stop  offset="1" style="stop-color:#A29281;stop-opacity:0"/>
			</radialGradient>
			<path fill="url(#SVGID_2_)" d="M113.544,121.624c2.791,5.065,7.324,7.713,9.683,9.206c7.195,4.559,11.726,11.182,11.726,18.552
				c0,13.75-15.757,24.894-35.188,24.894c-19.435,0-35.19-11.144-35.19-24.894c0-7.093,4.194-13.491,10.922-18.026
				c2.33-1.567,6.476-4.004,9.378-8.734c3.877-6.32,8.953-11.238,14.891-11.238C105.363,111.381,110.258,115.659,113.544,121.624z"
				/>
		</g>
		
			<radialGradient id="SVGID_3_" cx="201.3066" cy="773.9775" r="79.1845" fx="200.653" fy="799.0076" gradientTransform="matrix(1 0 0 0.8476 -100 -579.3105)" gradientUnits="userSpaceOnUse">
			<stop  offset="0" style="stop-color:#FF9200"/>
			<stop  offset="0.1919" style="stop-color:#FF8500"/>
			<stop  offset="0.5463" style="stop-color:#FF6300"/>
			<stop  offset="0.6626" style="stop-color:#FF5600"/>
			<stop  offset="0.8221" style="stop-color:#E34700"/>
			<stop  offset="1" style="stop-color:#FF5D00"/>
		</radialGradient>
		<path fill="url(#SVGID_3_)" d="M100.001,148.295c-38.427,0-69.688-25.958-69.688-57.864c0-31.31,30.441-67.706,69.688-67.706
			c39.246,0,69.687,36.396,69.687,67.706C169.688,122.337,138.426,148.295,100.001,148.295z"/>
		
			<radialGradient id="SVGID_4_" cx="198.5176" cy="626.5674" r="108.0472" gradientTransform="matrix(1 0 0 1 -100 -591)" gradientUnits="userSpaceOnUse">
			<stop  offset="0" style="stop-color:#FFE300"/>
			<stop  offset="1" style="stop-color:#F7941E"/>
		</radialGradient>
		<path fill="url(#SVGID_4_)" d="M119.904,29.185c0.012-0.016,0.018-0.032,0.029-0.047c-5.514-1.916-11.334-3.076-17.357-3.339
			c0.627,2.227,1.977,4.254,3.863,5.555C110.535,34.18,116.943,33.473,119.904,29.185z"/>
		
			<radialGradient id="SVGID_5_" cx="199.6729" cy="629.0479" r="130.4008" gradientTransform="matrix(1 0 0 1 -100 -591)" gradientUnits="userSpaceOnUse">
			<stop  offset="0" style="stop-color:#FFE300"/>
			<stop  offset="1" style="stop-color:#F7941E"/>
		</radialGradient>
		<path fill="url(#SVGID_5_)" d="M73.817,35.596c0.92,0.861,2.11,1.492,3.495,1.763c3.869,0.753,7.761-1.565,8.695-5.181
			c0.409-1.581,0.215-3.232-0.438-4.66c-4.724,1.173-9.258,2.888-13.547,5.054C71.928,33.485,72.43,34.484,73.817,35.596z"/>
		
			<radialGradient id="SVGID_6_" cx="197.9727" cy="629.1982" r="113.9946" gradientTransform="matrix(1 0 0 1 -100 -591)" gradientUnits="userSpaceOnUse">
			<stop  offset="0" style="stop-color:#FFE300"/>
			<stop  offset="1" style="stop-color:#F7941E"/>
		</radialGradient>
		<path fill="url(#SVGID_6_)" d="M99.54,88.993c-6.718,0-13.313,6.607-13.313,12.735c0,7.035,6.596,12.734,13.313,12.734
			c6.719,0,13.301-5.699,13.301-12.734C112.841,94.695,106.259,88.993,99.54,88.993z"/>
		
			<radialGradient id="SVGID_7_" cx="197.9658" cy="629.2012" r="114.0034" gradientTransform="matrix(1 0 0 1 -100 -591)" gradientUnits="userSpaceOnUse">
			<stop  offset="0" style="stop-color:#FFE300"/>
			<stop  offset="1" style="stop-color:#F7941E"/>
		</radialGradient>
		<path fill="url(#SVGID_7_)" d="M130.395,72.891c-4.205,0.854-7.494,5.824-6.718,9.659c0.894,4.402,5.743,7.133,9.949,6.28
			c4.202-0.852,7.601-5.254,6.708-9.657C139.439,74.771,134.598,72.038,130.395,72.891z"/>
		
			<radialGradient id="SVGID_8_" cx="197.9824" cy="629.2012" r="113.9787" gradientTransform="matrix(1 0 0 1 -100 -591)" gradientUnits="userSpaceOnUse">
			<stop  offset="0" style="stop-color:#FFE300"/>
			<stop  offset="1" style="stop-color:#F7941E"/>
		</radialGradient>
		<path fill="url(#SVGID_8_)" d="M163.27,75.181c-4.371,1.744-8.127,7.964-8.127,13.812c0,7.148,4.256,13.056,8.986,14.118
			c1.655-4.117,2.559-8.461,2.559-12.958C166.688,84.921,165.486,79.887,163.27,75.181z"/>
		
			<radialGradient id="SVGID_9_" cx="198.0371" cy="616.2656" r="130.9387" gradientTransform="matrix(1 0 0 1 -100 -591)" gradientUnits="userSpaceOnUse">
			<stop  offset="0" style="stop-color:#FFE300"/>
			<stop  offset="1" style="stop-color:#F7941E"/>
		</radialGradient>
		<path fill="url(#SVGID_9_)" d="M48.631,51.426c-6.363,7.73-11.023,16.55-13.44,25.504c-0.174,0.713-0.351,1.413-0.54,2.1
			c-0.093,0.412-0.166,0.824-0.251,1.235c4.61,1.394,11.177-1.537,14.776-7.639C52.1,67.667,53.119,56.784,48.631,51.426z"/>
		
			<radialGradient id="SVGID_10_" cx="196.127" cy="627.5732" r="122.8343" gradientTransform="matrix(1 0 0 1 -100 -591)" gradientUnits="userSpaceOnUse">
			<stop  offset="0" style="stop-color:#FFE300"/>
			<stop  offset="1" style="stop-color:#F7941E"/>
		</radialGradient>
		<path fill="url(#SVGID_10_)" d="M134.512,36.312c-2.845-0.562-5.753-0.26-8.326,1.407c-1.248,0.688-2.295,1.556-3.031,2.621
			c-4.192,6.08-0.65,16.44,6.996,21.075c12.045,7.299,21.105,3.998,23.486-0.574c1.858-3.573-0.053-6.572-0.053-6.572
			C148.422,47.342,141.947,41.146,134.512,36.312z"/>
		
			<radialGradient id="SVGID_11_" cx="197.9736" cy="629.1992" r="113.9868" gradientTransform="matrix(1 0 0 1 -100 -591)" gradientUnits="userSpaceOnUse">
			<stop  offset="0" style="stop-color:#FFE300"/>
			<stop  offset="1" style="stop-color:#F7941E"/>
		</radialGradient>
		<path fill="url(#SVGID_11_)" d="M73.602,82.331c8.549,1.664,17.147-3.46,19.211-11.447c2.064-7.987-2.6-16.873-11.147-18.536
			c-8.544-1.665-17.735,4.522-19.8,12.509C59.801,72.845,65.058,80.667,73.602,82.331z"/>
		
			<radialGradient id="SVGID_12_" cx="197.9717" cy="629.2002" r="113.9891" gradientTransform="matrix(1 0 0 1 -100 -591)" gradientUnits="userSpaceOnUse">
			<stop  offset="0" style="stop-color:#FFE300"/>
			<stop  offset="1" style="stop-color:#F7941E"/>
		</radialGradient>
		<path fill="url(#SVGID_12_)" d="M53.975,93.256c0.934-3.614-1.176-7.635-5.045-8.389c-3.867-0.754-8.027,2.046-8.961,5.661
			c-0.935,3.614,1.445,7.155,5.312,7.908C49.15,99.19,53.042,96.871,53.975,93.256z"/>
		
			<radialGradient id="SVGID_13_" cx="198.2217" cy="616.2949" r="130.6947" gradientTransform="matrix(1 0 0 1 -100 -591)" gradientUnits="userSpaceOnUse">
			<stop  offset="0" style="stop-color:#FFE300"/>
			<stop  offset="1" style="stop-color:#F7941E"/>
		</radialGradient>
		<path fill="url(#SVGID_13_)" d="M128.714,106.275c-11.471,4.221-18.233,16.936-15.112,28.398c0.16,0.59,1.283,4.87,6.713,8.026
			c15.607-3.991,23.461-10.019,32.93-19.517C157.08,108.08,139.497,102.307,128.714,106.275z"/>
		
			<radialGradient id="SVGID_14_" cx="196.2109" cy="620.2686" r="128.4904" gradientTransform="matrix(1 0 0 1 -100 -591)" gradientUnits="userSpaceOnUse">
			<stop  offset="0" style="stop-color:#FFE300"/>
			<stop  offset="1" style="stop-color:#F7941E"/>
		</radialGradient>
		<path fill="url(#SVGID_14_)" d="M78.498,123.139c-3.711-10.049-12.998-17.812-21.79-16.979c-4.304,0.407-7.829,2.681-9.93,6.091
			c-1.181,1.914-2.382,7.148,3.8,15.021c6.98,6.646,9.941,7.809,17.947,11.543C75.939,141.614,83.393,136.391,78.498,123.139z"/>
		
			<radialGradient id="SVGID_15_" cx="799.1621" cy="652.6533" r="35.9287" fx="799.0313" fy="661.8074" gradientTransform="matrix(1.2982 0 0 1 -937.71 -591)" gradientUnits="userSpaceOnUse">
			<stop  offset="0.0798" style="stop-color:#FFFAD7"/>
			<stop  offset="0.4172" style="stop-color:#FFFA00"/>
			<stop  offset="1" style="stop-color:#FFFA00;stop-opacity:0"/>
		</radialGradient>
		<ellipse opacity="0.29" fill="url(#SVGID_15_)" enable-background="new    " cx="99.762" cy="61.653" rx="46.642" ry="35.929"/>
		
			<radialGradient id="SVGID_16_" cx="1136.0527" cy="679.9844" r="29.9058" fx="1136.0377" fy="680.475" gradientTransform="matrix(1.5597 0 0 1 -1672.1405 -591)" gradientUnits="userSpaceOnUse">
			<stop  offset="0.1595" style="stop-color:#FFFA00"/>
			<stop  offset="1" style="stop-color:#FFFA00;stop-opacity:0"/>
		</radialGradient>
		<ellipse opacity="0.52" fill="url(#SVGID_16_)" enable-background="new    " cx="99.762" cy="88.985" rx="46.642" ry="29.906"/>
		
			<radialGradient id="SVGID_17_" cx="211.6162" cy="766.1367" r="75.392" fx="211.4891" fy="772.1918" gradientTransform="matrix(1.0052 0 0 0.8476 -111.4648 -579.2471)" gradientUnits="userSpaceOnUse">
			<stop  offset="0.7853" style="stop-color:#FF5600;stop-opacity:0"/>
			<stop  offset="0.9035" style="stop-color:#FF5600;stop-opacity:0.45"/>
			<stop  offset="1" style="stop-color:#FF5600;stop-opacity:0"/>
		</radialGradient>
		<path fill="url(#SVGID_17_)" d="M166.688,90.431c0,30.301-29.854,54.864-66.687,54.864s-66.688-24.562-66.688-54.864
			c0-30.302,29.858-64.706,66.688-64.706S166.688,60.13,166.688,90.431z"/>
	</g>
</g>
<g id="outline_x5F_white">
	<g>
		<g>
			<path fill="#FFFFFF" d="M100.001,25.725c36.83,0,66.687,34.405,66.687,64.706c0,20.899-14.205,39.065-35.104,48.328
				c2.154,3.224,3.366,6.822,3.366,10.623c0,13.75-15.755,24.894-35.188,24.894c-19.435,0-35.19-11.144-35.19-24.894
				c0-3.866,1.254-7.522,3.477-10.786c-20.696-9.312-34.735-27.389-34.735-48.165C33.312,60.13,63.171,25.725,100.001,25.725
				 M100.001,13.725c-20.488,0-40.287,8.743-55.751,24.617c-14.577,14.964-22.937,33.95-22.937,52.089
				c0,21.432,11.911,41.223,31.728,53.708c-0.311,1.731-0.469,3.484-0.469,5.243c0,10.5,5.604,20.487,15.377,27.399
				c8.655,6.121,19.953,9.494,31.813,9.494c11.859,0,23.157-3.373,31.812-9.494c9.771-6.912,15.377-16.899,15.377-27.399
				c0-1.666-0.143-3.327-0.422-4.971c20.082-12.463,32.158-32.361,32.158-53.98c0-18.139-8.358-37.125-22.938-52.089
				C140.288,22.467,120.488,13.725,100.001,13.725L100.001,13.725z"/>
		</g>
	</g>
</g>
<g id="outline_x5F_black">
	<path d="M151.454,42.529c-14.324-14.706-32.599-22.804-51.453-22.804c-18.855,0-37.129,8.099-51.454,22.804
		c-13.296,13.65-21.235,31.557-21.235,47.902c0,16.482,7.714,31.905,21.721,43.428c3.402,2.799,7.079,5.283,10.979,7.438
		c-0.937,2.61-1.441,5.325-1.441,8.086c0,8.652,4.561,16.646,12.843,22.501c7.65,5.412,17.718,8.395,28.348,8.395
		s20.696-2.98,28.347-8.395c8.281-5.855,12.842-13.849,12.842-22.501c0-2.694-0.474-5.337-1.355-7.878
		c4.045-2.204,7.856-4.755,11.371-7.646c14.006-11.522,21.721-26.945,21.721-43.428C172.688,74.086,164.75,56.179,151.454,42.529z
		 M134.952,149.382c0,13.75-15.757,24.894-35.188,24.894c-19.435,0-35.19-11.144-35.19-24.894c0-1.851,0.295-3.652,0.838-5.387
		c10.502,4.761,22.317,7.301,34.587,7.301c12.107,0,23.774-2.468,34.171-7.106C134.676,145.865,134.952,147.6,134.952,149.382z
		 M136.991,136.081L136.991,136.081c-1.746,0.96-3.549,1.854-5.406,2.678l0,0c-9.401,4.168-20.155,6.536-31.584,6.536
		c-11.634,0-22.568-2.456-32.089-6.764c-0.875-0.396-1.739-0.805-2.59-1.23c-0.091-0.046-0.178-0.096-0.27-0.143
		c-0.806-0.408-1.604-0.825-2.386-1.261l0,0c-17.712-9.862-29.354-26.545-29.354-45.466c-0.001-30.301,29.858-64.706,66.688-64.706
		s66.687,34.405,66.687,64.706C166.688,109.473,154.894,126.243,136.991,136.081z"/>
</g>
</svg>
