<?xml version="1.0" encoding="utf-8"?>
<!-- Generator: Adobe Illustrator 15.0.0, SVG Export Plug-In . SVG Version: 6.00 Build 0)  -->
<!DOCTYPE svg PUBLIC "-//W3C//DTD SVG 1.1//EN" "http://www.w3.org/Graphics/SVG/1.1/DTD/svg11.dtd">
<svg version="1.1" xmlns="http://www.w3.org/2000/svg" xmlns:xlink="http://www.w3.org/1999/xlink" x="0px" y="0px" width="200px"
	 height="200px" viewBox="0 0 200 200" enable-background="new 0 0 200 200" xml:space="preserve">
<g id="icon">
	<g id="Layer_2">
	</g>
	<g id="Layer_1_1_">
		<g>
			<polygon fill="#FFFFFF" points="81.472,165.955 77.153,173.592 87.183,170.758 97.279,174.312 101.98,180.652 104.734,172.439 
				108.775,172.15 115.463,175.754 114.41,170.133 124.376,172.582 120.861,165.955 			"/>
			
				<radialGradient id="SVGID_1_" cx="150" cy="-30.5205" r="70.8477" gradientTransform="matrix(1 0 0 -1 -50 61)" gradientUnits="userSpaceOnUse">
				<stop  offset="0" style="stop-color:#FFFFEB"/>
				<stop  offset="0.638" style="stop-color:#F1DBE1"/>
				<stop  offset="0.7066" style="stop-color:#EED7DE"/>
				<stop  offset="0.7736" style="stop-color:#E5CBD3"/>
				<stop  offset="0.8401" style="stop-color:#D5B8C2"/>
				<stop  offset="0.9062" style="stop-color:#BF9CAA"/>
				<stop  offset="0.9714" style="stop-color:#A3798C"/>
				<stop  offset="1" style="stop-color:#95677C"/>
			</radialGradient>
			<path fill="url(#SVGID_1_)" d="M79.345,24.682c0,0,4.478,11.949,2.301,29.026c-0.45,3.519-1.36,8.608-10.069,15.976
				c-8.711,7.369-35.93,13.988-40.529,39.794c-3.118,17.483,7.322,34.83,23.105,42.295c14.962,7.076,21.777,1.369,21.777,1.369
				s1.634,7.571,15.786,9.774c14.152,2.201,25.04-0.485,31.028-5.947c5.986-5.461,3.744-3.739,3.744-3.739s6.465,1.098,17.213-2.107
				c15.514-4.627,26.328-20.574,25.783-39.18s-13.039-29.133-31.229-34.867C116.21,70.129,109.68,61.438,109.68,46.11
				c0-15.328,1.633-22.938,1.633-22.938s-3.646-0.448-7.758-1.538c-2.736-0.725-5.203-2.219-8.68-2.279
				c-2.043-0.039-4.843,1.157-6.903,1.6C84.648,21.668,82.119,22.088,79.345,24.682z"/>
			
				<radialGradient id="SVGID_2_" cx="240.6514" cy="672.1621" r="72.3991" gradientTransform="matrix(0.0059 1 0.5014 -0.0029 -238.9674 -148.0033)" gradientUnits="userSpaceOnUse">
				<stop  offset="0" style="stop-color:#FFFFEB"/>
				<stop  offset="0.638" style="stop-color:#F1DBE1"/>
				<stop  offset="0.7066" style="stop-color:#EED7DE"/>
				<stop  offset="0.7736" style="stop-color:#E5CBD3"/>
				<stop  offset="0.8401" style="stop-color:#D5B8C2"/>
				<stop  offset="0.9062" style="stop-color:#BF9CAA"/>
				<stop  offset="0.9714" style="stop-color:#A3798C"/>
				<stop  offset="1" style="stop-color:#95677C"/>
			</radialGradient>
			<path fill="url(#SVGID_2_)" d="M86.544,26.037c0,0,4.627,6.689,4.354,23.211c-0.059,3.547,0,14.333-5.717,24.488
				c-5.596,9.942-9.123,21.452-11.975,42.549c-2.379,17.6,2.723,36.857,2.723,36.857s1.634,7.571,15.786,9.774
				c14.152,2.201,25.04-0.485,31.028-5.947c5.987-5.461,6.532-7.78,6.532-7.78s3.781-13.943,1.086-32.361
				c-2.584-17.691-11.954-28.805-18.778-41.643c-5.716-10.752-8.729-22.234-8.709-30.671c0.024-11.433,1.903-18.478,1.903-18.478
				S98.177,30.548,86.544,26.037z"/>
			
				<radialGradient id="SVGID_3_" cx="-48.1353" cy="9.561" r="48.7143" gradientTransform="matrix(0.9617 0 0 -1 126.9819 60.79)" gradientUnits="userSpaceOnUse">
				<stop  offset="0" style="stop-color:#FFFFEB"/>
				<stop  offset="0.638" style="stop-color:#F1DBE1"/>
				<stop  offset="0.7066" style="stop-color:#EED7DE"/>
				<stop  offset="0.7736" style="stop-color:#E5CBD3"/>
				<stop  offset="0.8401" style="stop-color:#D5B8C2"/>
				<stop  offset="0.9062" style="stop-color:#BF9CAA"/>
				<stop  offset="0.9714" style="stop-color:#A3798C"/>
				<stop  offset="1" style="stop-color:#95677C"/>
			</radialGradient>
			<path fill="url(#SVGID_3_)" d="M103.691,21.02c3.89,0.938,7.621,0.437,7.621,2.151c0,1.606-2.313,3.974-6.533,3.838
				c-2.774-0.088-6.166,2.636-9.898,2.636c-3.084,0-4.272-1.785-6.704-2.227c-5.255-0.957-8.832-1.101-8.832-2.923
				c0-1.778,2.865-3.014,6.997-3.939c2.479-0.556,5.32-1.208,8.539-1.208C98.287,19.348,101.13,20.406,103.691,21.02z"/>
		</g>
	</g>
</g>
<g id="outline_x5F_white">
	<g>
		<g>
			<path fill="#FFFFFF" d="M94.881,19.348c3.406,0,6.249,1.058,8.812,1.672c3.889,0.938,7.619,0.437,7.619,2.151
				c0,0.217-0.047,0.448-0.129,0.687c-0.385,2.161-1.504,9.546-1.504,22.252c0,15.328,6.531,24.02,28.577,30.966
				c18.188,5.734,30.685,16.262,31.229,34.867c0.543,18.604-10.271,34.553-25.784,39.18c-6.378,1.902-11.241,2.29-14.142,2.29
				c-1.517,0-2.496-0.106-2.875-0.157c-0.406,0.436-1.476,1.465-3.94,3.715c-4.567,4.165-11.983,6.717-21.526,6.717
				c-2.969,0-6.144-0.246-9.502-0.77c-14.152-2.203-15.786-9.775-15.786-9.775s-2.597,2.176-8.104,2.176
				c-3.414,0-7.947-0.836-13.673-3.545c-15.783-7.465-26.224-24.811-23.105-42.295c4.6-25.807,31.818-32.426,40.529-39.793
				c8.709-7.367,9.619-12.457,10.069-15.976c2.002-15.708-1.622-27.07-2.218-28.793c-0.016-0.044-0.035-0.085-0.047-0.133
				c-0.021-0.062-0.036-0.101-0.036-0.101c0.007-0.007,0.015-0.013,0.022-0.021c-0.008-0.056-0.022-0.106-0.022-0.166
				c0-1.778,2.865-3.014,6.997-3.939C88.821,20,91.662,19.348,94.881,19.348 M94.881,7.348c-4.48,0-8.254,0.846-11.009,1.464
				l-0.154,0.035c-3.321,0.744-5.863,1.613-7.999,2.733c-5.953,3.124-7.724,7.75-8.207,10.826c-0.413,2.102-0.244,4.315,0.571,6.427
				c0.013,0.037,0.026,0.075,0.04,0.112c0.381,1.153,3.252,10.433,1.619,23.246c-0.213,1.659-0.478,3.73-5.916,8.331
				c-1.244,1.052-4.546,2.819-7.459,4.378c-12.223,6.542-32.682,17.492-37.134,42.472c-1.969,11.039,0.098,22.721,5.82,32.894
				c5.445,9.682,13.958,17.62,23.969,22.354c6.589,3.116,12.915,4.696,18.804,4.696c1.326,0,2.569-0.08,3.731-0.221
				c4.598,3.92,10.746,6.5,18.313,7.678c3.893,0.605,7.71,0.912,11.348,0.912c12.308,0,22.546-3.406,29.612-9.851
				c0.174-0.158,0.342-0.312,0.502-0.459c3.771-0.144,9.186-0.783,15.799-2.755c20.92-6.24,35.045-27.225,34.35-51.03
				c-0.451-15.413-7.689-35.896-39.614-45.961c-20.187-6.36-20.187-12.168-20.187-19.521c0-10.869,0.854-17.324,1.231-19.643
				c0.267-1.09,0.401-2.194,0.401-3.296c0-5.766-3.682-10.679-9.377-12.516c-1.808-0.583-3.516-0.776-5.021-0.947
				c-0.871-0.099-1.771-0.201-2.409-0.354c-0.493-0.118-0.981-0.254-1.487-0.392C102.521,8.281,99.104,7.348,94.881,7.348
				L94.881,7.348z"/>
		</g>
	</g>
</g>
<g id="outline_x5F_black">
	<path d="M175.48,111.768c-0.572-19.587-12.49-33.185-35.422-40.414c-20.609-6.495-24.381-13.597-24.381-25.244
		c0-11.681,0.973-18.613,1.354-20.88c0.185-0.687,0.278-1.376,0.278-2.059c0-2.477-1.371-5.564-5.219-6.806
		c-1.236-0.399-2.509-0.543-3.855-0.695c-1.053-0.119-2.141-0.242-3.141-0.483c-0.545-0.13-1.095-0.282-1.662-0.437
		c-2.287-0.625-5.134-1.402-8.553-1.402c-3.816,0-7.077,0.731-9.696,1.318l-0.155,0.035c-2.734,0.613-9.347,2.095-11.196,7.008
		l-1.555,1.554l1.438,3.505c0.023,0.069,0.047,0.133,0.068,0.189c0.502,1.482,3.724,11.749,1.908,25.992
		c-0.308,2.406-0.773,6.047-7.992,12.153c-1.729,1.462-5.019,3.223-8.502,5.088c-11.993,6.419-30.117,16.12-34.059,38.236
		c-1.725,9.674,0.101,19.938,5.142,28.899c4.841,8.606,12.407,15.664,21.305,19.872c5.78,2.734,11.244,4.119,16.238,4.119
		c2.208,0,4.107-0.271,5.702-0.666c2.075,2.33,5.359,4.817,10.494,6.562l-3.007,3.699l6.476-2.706
		c1.039,0.243,2.138,0.458,3.303,0.64c2.794,0.436,5.537,0.697,8.188,0.795l2.712,7.654l1.839-7.657
		c1.322-0.052,2.613-0.149,3.87-0.291l5.699,3.546l-2.416-4.027c0.98-0.181,1.931-0.398,2.862-0.638l6.849,2.265l-2.637-3.612
		c3.478-1.354,6.515-3.184,9.027-5.476c0.898-0.82,1.605-1.473,2.167-1.996c0.194,0.003,0.396,0.005,0.604,0.005
		c3.349,0,8.816-0.44,15.856-2.54C163.734,151.409,176.1,132.861,175.48,111.768z M143.702,151.123
		c-6.378,1.902-11.241,2.29-14.142,2.29c-1.517,0-2.496-0.106-2.875-0.157c-0.406,0.436-1.476,1.465-3.94,3.715
		c-4.567,4.165-11.983,6.717-21.526,6.717c-2.969,0-6.144-0.246-9.502-0.77c-14.152-2.203-15.786-9.775-15.786-9.775
		s-2.597,2.176-8.104,2.176c-3.414,0-7.947-0.836-13.673-3.545c-15.783-7.465-26.224-24.811-23.105-42.295
		c4.6-25.807,31.818-32.426,40.529-39.793c8.709-7.367,9.619-12.457,10.069-15.976c2.002-15.708-1.622-27.07-2.218-28.793
		c-0.016-0.044-0.035-0.085-0.047-0.133c-0.021-0.062-0.036-0.101-0.036-0.101c0.007-0.007,0.015-0.013,0.022-0.021
		c-0.008-0.056-0.022-0.106-0.022-0.166c0-1.778,2.865-3.014,6.997-3.939c2.478-0.556,5.319-1.208,8.538-1.208
		c3.406,0,6.249,1.058,8.812,1.672c3.889,0.938,7.619,0.437,7.619,2.151c0,0.217-0.047,0.448-0.129,0.687
		c-0.385,2.161-1.504,9.546-1.504,22.252c0,15.328,6.531,24.02,28.577,30.966c18.188,5.734,30.685,16.262,31.229,34.867
		C170.029,130.548,159.215,146.496,143.702,151.123z"/>
</g>
</svg>
