<?xml version="1.0" encoding="utf-8"?>
<!-- Generator: Adobe Illustrator 15.0.0, SVG Export Plug-In . SVG Version: 6.00 Build 0)  -->
<!DOCTYPE svg PUBLIC "-//W3C//DTD SVG 1.1//EN" "http://www.w3.org/Graphics/SVG/1.1/DTD/svg11.dtd">
<svg version="1.1" xmlns="http://www.w3.org/2000/svg" xmlns:xlink="http://www.w3.org/1999/xlink" x="0px" y="0px" width="200px"
	 height="200px" viewBox="0 0 200 200" enable-background="new 0 0 200 200" xml:space="preserve">
<g id="icon">
	<g id="Layer_2">
	</g>
	<g>
		<path fill="#FFFFFF" d="M126.288,33.844c0,0,3.63,0.232,9.022-0.131c7.347-0.495,11.772-1.709,11.772-1.709
			s-1.146,4.916-4.461,11.396c-2.894,5.654-6.5,9.992-6.5,9.992L126.288,33.844z"/>
		<path fill="#FFFFFF" d="M26.874,81.892c3.662-5.838,7.75-10.875,7.75-10.875l11.25,19.688c0,0-6.084,1.225-11.812,2.344
			c-6.281,1.25-13.156,2.781-13.156,2.781S22.922,88.192,26.874,81.892z"/>
		<g>
			<g>
				<path fill="#7CBF28" d="M126.709,45.836c-2.299,0.612-11.241,8.555-11.029,14.555c0,0-10.504,4.533-11.141,8.867
					c0,0-6.355,1.187-11.47,0.562c-1.708-0.206-1.557-3.368-3.278-3.172c0,0-3.085-3.062-1.879-7.793
					c1.224-4.823,6.741-11.32,6.741-11.32c7.315,0.301,13.871-5.131,13.871-5.131C113.65,46.295,126.709,45.836,126.709,45.836z"/>
				<path fill="#649100" d="M90.454,66.703c0,0,1.137-3.61,8.187-9.381c7.05-5.771,13.02-6.614,13.02-6.614
					s-13.381,3.066-18.705,9.099C87.629,65.839,89.614,67.161,90.454,66.703z"/>
			</g>
			<g>
				<ellipse fill="#75540D" cx="78.352" cy="75.798" rx="3.076" ry="1.487"/>
				<path fill="#75540D" d="M112.52,102.55c0.082,1.21-0.961,2.781-2.328,3.505c-1.363,0.727-2.541,0.33-2.619-0.88
					c-0.08-1.21,0.965-2.78,2.33-3.504C111.268,100.945,112.441,101.339,112.52,102.55z"/>
				<path fill="#75540D" d="M102.497,62.788c0.68,0.697,0.265,2.178-0.927,3.312c-1.188,1.142-2.695,1.504-3.376,0.81
					c-0.683-0.697-0.275-2.192,0.91-3.33C100.294,62.439,101.814,62.091,102.497,62.788z"/>
				<path fill="#75540D" d="M84.831,43.213c0,0-2.459-0.314-3.079,1.069c-0.617,1.382-4.455,4.481-0.192,19.322
					c6.715,23.386,20.834,35.56,27.438,39.727c6.602,4.166-14.187-8.933-21.764-33.564c-3.359-10.925-2.018-15.288-0.717-24.245
					C86.828,43.37,84.831,43.213,84.831,43.213z"/>
				<path fill="#75540D" d="M100.777,64.106c0,0-7.458,4.52-12.607-0.181c-3.375-3.081-3.675-7.234-3.675-7.234
					s-2.006,3.994,1.214,7.538c1.902,2.092,7.218,4.32,11.219,2.636C100.928,65.183,100.777,64.106,100.777,64.106z"/>
				<path fill="#75540D" d="M78.199,75.409c0,0,4.645-3.038,3.207-12.056c-1.439-9.017,1.718,0.8,1.718,0.8s1.317,6.233-1.208,8.88
					c-2.525,2.644-3.189,3.172-3.189,3.172S77.565,75.756,78.199,75.409z"/>
				<path fill="#C7915C" d="M85.839,45.885c-0.364,1.082-1.244,4.547-2.768,4.544c-1.523-0.004-1.371-3.549-1.369-4.692
					c0.002-1.142,0.826-2.342,2.35-2.338C85.575,43.402,86.395,44.231,85.839,45.885z"/>
			</g>
			<g>
				<path fill="#7CBF28" d="M43.781,78.827c1.782-0.994,13.344-2.867,18.225-0.604c0,0,9.586-3.92,13.548-2.702
					c0,0,4.503-2.93,6.813-5.854c0.771-0.976-1.947-2.03-0.831-2.869c0,0-0.846-2.727-5.452-3.787
					c-4.697-1.082-13.16-0.499-13.16-0.499c-3.795,3.97-11.946,5.482-11.946,5.482C51.383,72.098,43.781,78.827,43.781,78.827z"/>
				<path fill="#649100" d="M81.215,67.168c0,0-3.637-0.695-12.343,0.959c-8.708,1.653-12.71,4.501-12.71,4.501
					s9.954-5.965,17.924-6.612C82.057,65.369,82.06,66.89,81.215,67.168z"/>
			</g>
		</g>
		<g>
			<g>
				<g>
					<g>
						<path fill="#421283" d="M115.033,89.513c-0.202,0.305-0.389,0.616-0.564,0.93c-0.22,0.287-0.432,0.581-0.632,0.888
							c-4.931,7.479-2.315,17.896,5.838,23.271c8.155,5.375,18.759,3.668,23.688-3.809c0.201-0.305,0.39-0.613,0.563-0.93
							c0.222-0.286,0.433-0.579,0.634-0.887c4.931-7.479,2.314-17.896-5.838-23.271C130.566,80.33,119.963,82.036,115.033,89.513z"
							/>
					</g>
					<g>
						
							<radialGradient id="SVGID_1_" cx="-149.3145" cy="353.6484" r="17.7357" gradientTransform="matrix(0.9795 -0.2012 0.2012 0.9795 208.0278 -287.9461)" gradientUnits="userSpaceOnUse">
							<stop  offset="0" style="stop-color:#C06FFF;stop-opacity:0.62"/>
							<stop  offset="1" style="stop-color:#908DD9;stop-opacity:0"/>
						</radialGradient>
						<path fill="url(#SVGID_1_)" d="M115.033,89.513c-0.202,0.305-0.389,0.616-0.564,0.93c-0.22,0.287-0.432,0.581-0.632,0.888
							c-4.931,7.479-2.315,17.896,5.838,23.271c8.155,5.375,18.759,3.668,23.688-3.809c0.201-0.305,0.39-0.613,0.563-0.93
							c0.222-0.286,0.433-0.579,0.634-0.887c4.931-7.479,2.314-17.896-5.838-23.271C130.566,80.33,119.963,82.036,115.033,89.513z"
							/>
					</g>
					<g opacity="0.5">
						<path fill="#3A003D" d="M146.795,102.941c-0.176,0.312-0.363,0.623-0.562,0.931c-4.932,7.478-15.537,9.185-23.688,3.81
							c-6.072-4.005-9.07-10.81-8.172-17.107c-0.184,0.245-0.361,0.497-0.534,0.758c-4.931,7.479-2.315,17.896,5.838,23.271
							c8.155,5.375,18.759,3.668,23.688-3.81c0.203-0.305,0.391-0.612,0.566-0.93c0.221-0.286,0.432-0.579,0.631-0.888
							c1.26-1.906,2.021-4.006,2.332-6.162C146.857,102.854,146.826,102.898,146.795,102.941z"/>
					</g>
					<g>
						
							<radialGradient id="SVGID_2_" cx="-151.2681" cy="358.4326" r="22.7561" gradientTransform="matrix(0.9795 -0.2012 0.2012 0.9795 208.0278 -287.9461)" gradientUnits="userSpaceOnUse">
							<stop  offset="0.5276" style="stop-color:#000000;stop-opacity:0"/>
							<stop  offset="0.7939" style="stop-color:#000000;stop-opacity:0.38"/>
							<stop  offset="1" style="stop-color:#000000;stop-opacity:0"/>
						</radialGradient>
						<path fill="url(#SVGID_2_)" d="M115.033,89.513c-0.202,0.305-0.389,0.616-0.564,0.93c-0.22,0.287-0.432,0.581-0.632,0.888
							c-4.931,7.479-2.315,17.896,5.838,23.271c8.155,5.375,18.759,3.668,23.688-3.809c0.201-0.305,0.39-0.613,0.563-0.93
							c0.222-0.286,0.433-0.579,0.634-0.887c4.931-7.479,2.314-17.896-5.838-23.271C130.566,80.33,119.963,82.036,115.033,89.513z"
							/>
					</g>
				</g>
				<g>
					<g>
						<path fill="#421283" d="M72.847,117.091c-0.183,0.276-0.354,0.56-0.517,0.843c-0.197,0.267-0.39,0.528-0.574,0.812
							c-4.484,6.807-2.105,16.29,5.315,21.186c7.423,4.889,17.075,3.336,21.562-3.472c0.184-0.276,0.354-0.562,0.517-0.849
							c0.2-0.26,0.39-0.524,0.575-0.807c4.483-6.807,2.105-16.291-5.314-21.182C86.987,108.729,77.334,110.284,72.847,117.091z"/>
					</g>
					<g opacity="0.5">
						<path fill="#3A003D" d="M101.756,129.312c-0.158,0.282-0.329,0.568-0.513,0.846c-4.487,6.81-14.142,8.359-21.562,3.468
							c-5.527-3.644-8.258-9.838-7.437-15.574c-0.166,0.226-0.332,0.453-0.489,0.693c-4.484,6.807-2.105,16.29,5.315,21.185
							c7.423,4.889,17.075,3.336,21.562-3.471c0.184-0.277,0.354-0.562,0.517-0.848c0.2-0.26,0.39-0.525,0.575-0.808
							c1.144-1.733,1.836-3.645,2.12-5.608C101.814,129.232,101.789,129.273,101.756,129.312z"/>
					</g>
					<g>
						
							<radialGradient id="SVGID_3_" cx="-200.6694" cy="378.71" r="19.697" gradientTransform="matrix(0.9795 -0.2012 0.2012 0.9795 208.0278 -287.9461)" gradientUnits="userSpaceOnUse">
							<stop  offset="0.5276" style="stop-color:#000000;stop-opacity:0"/>
							<stop  offset="0.7939" style="stop-color:#000000;stop-opacity:0.38"/>
							<stop  offset="1" style="stop-color:#000000;stop-opacity:0"/>
						</radialGradient>
						<path fill="url(#SVGID_3_)" d="M72.847,117.091c-0.183,0.276-0.354,0.56-0.517,0.843c-0.197,0.267-0.39,0.528-0.574,0.812
							c-4.484,6.807-2.105,16.29,5.315,21.186c7.423,4.889,17.075,3.336,21.562-3.472c0.184-0.276,0.354-0.562,0.517-0.849
							c0.2-0.26,0.39-0.524,0.575-0.807c4.483-6.807,2.105-16.291-5.314-21.182C86.987,108.729,77.334,110.284,72.847,117.091z"/>
					</g>
				</g>
				<g>
					<g>
						<path fill="#421283" d="M94.737,131.369c-0.183,0.279-0.353,0.562-0.515,0.846c-0.199,0.262-0.394,0.529-0.574,0.807
							c-4.487,6.81-2.109,16.291,5.314,21.185c7.42,4.894,17.074,3.34,21.562-3.465c0.186-0.279,0.354-0.562,0.515-0.849
							c0.198-0.262,0.396-0.526,0.575-0.808c4.486-6.808,2.107-16.292-5.312-21.185C108.877,123.01,99.224,124.562,94.737,131.369z"
							/>
					</g>
					<g opacity="0.5">
						<path fill="#3A003D" d="M123.646,143.591c-0.158,0.286-0.328,0.568-0.514,0.847c-4.486,6.806-14.142,8.359-21.562,3.465
							c-5.529-3.644-8.255-9.834-7.436-15.569c-0.17,0.226-0.332,0.454-0.488,0.688c-4.487,6.81-2.109,16.291,5.314,21.185
							c7.42,4.894,17.074,3.34,21.562-3.465c0.185-0.279,0.354-0.562,0.514-0.849c0.199-0.262,0.395-0.526,0.576-0.808
							c1.145-1.737,1.84-3.647,2.119-5.608C123.703,143.512,123.677,143.553,123.646,143.591z"/>
					</g>
					<g>
						
							<radialGradient id="SVGID_4_" cx="-180.9961" cy="396.3643" r="21.7494" gradientTransform="matrix(0.9795 -0.2012 0.2012 0.9795 208.0278 -287.9461)" gradientUnits="userSpaceOnUse">
							<stop  offset="0.5276" style="stop-color:#000000;stop-opacity:0"/>
							<stop  offset="0.7939" style="stop-color:#000000;stop-opacity:0.38"/>
							<stop  offset="1" style="stop-color:#000000;stop-opacity:0"/>
						</radialGradient>
						<path fill="url(#SVGID_4_)" d="M94.737,131.369c-0.183,0.279-0.353,0.562-0.515,0.846c-0.199,0.262-0.394,0.529-0.574,0.807
							c-4.487,6.81-2.109,16.291,5.314,21.185c7.42,4.894,17.074,3.34,21.562-3.465c0.186-0.279,0.354-0.562,0.515-0.849
							c0.198-0.262,0.396-0.526,0.575-0.808c4.486-6.808,2.107-16.292-5.312-21.185C108.877,123.01,99.224,124.562,94.737,131.369z"
							/>
					</g>
				</g>
				<g>
					<g>
						<path fill="#421283" d="M119.869,115.734c-0.184,0.274-0.354,0.562-0.512,0.847c-0.2,0.259-0.396,0.526-0.578,0.805
							c-4.486,6.81-2.105,16.294,5.313,21.185c7.423,4.896,17.075,3.343,21.563-3.467c0.181-0.279,0.352-0.562,0.514-0.848
							c0.2-0.259,0.393-0.525,0.574-0.806c4.486-6.808,2.107-16.293-5.312-21.185C134.012,107.376,124.357,108.927,119.869,115.734z
							"/>
					</g>
					<g>
						
							<radialGradient id="SVGID_5_" cx="-151.5728" cy="381.1182" r="16.1443" gradientTransform="matrix(0.9795 -0.2012 0.2012 0.9795 208.0278 -287.9461)" gradientUnits="userSpaceOnUse">
							<stop  offset="0" style="stop-color:#C06FFF;stop-opacity:0.62"/>
							<stop  offset="1" style="stop-color:#908DD9;stop-opacity:0"/>
						</radialGradient>
						<path fill="url(#SVGID_5_)" d="M119.869,115.734c-0.184,0.274-0.354,0.562-0.512,0.847c-0.2,0.259-0.396,0.526-0.578,0.805
							c-4.486,6.81-2.105,16.294,5.313,21.185c7.423,4.896,17.075,3.343,21.563-3.467c0.181-0.279,0.352-0.562,0.514-0.848
							c0.2-0.259,0.393-0.525,0.574-0.806c4.486-6.808,2.107-16.293-5.312-21.185C134.012,107.376,124.357,108.927,119.869,115.734z
							"/>
					</g>
					<g opacity="0.5">
						<path fill="#3A003D" d="M148.783,127.957c-0.163,0.282-0.334,0.566-0.518,0.848c-4.488,6.807-14.139,8.36-21.562,3.467
							c-5.529-3.646-8.258-9.838-7.438-15.57c-0.168,0.222-0.332,0.449-0.488,0.688c-4.486,6.811-2.105,16.293,5.313,21.186
							c7.423,4.894,17.075,3.341,21.563-3.467c0.181-0.281,0.352-0.562,0.514-0.85c0.2-0.259,0.391-0.525,0.574-0.806
							c1.145-1.736,1.841-3.646,2.122-5.61C148.838,127.878,148.811,127.917,148.783,127.957z"/>
					</g>
					<g>
						
							<radialGradient id="SVGID_6_" cx="-154.332" cy="382.7979" r="21.8819" gradientTransform="matrix(0.9795 -0.2012 0.2012 0.9795 208.0278 -287.9461)" gradientUnits="userSpaceOnUse">
							<stop  offset="0.5276" style="stop-color:#000000;stop-opacity:0"/>
							<stop  offset="0.7939" style="stop-color:#000000;stop-opacity:0.38"/>
							<stop  offset="1" style="stop-color:#000000;stop-opacity:0"/>
						</radialGradient>
						<path fill="url(#SVGID_6_)" d="M119.869,115.734c-0.184,0.274-0.354,0.562-0.512,0.847c-0.2,0.259-0.396,0.526-0.578,0.805
							c-4.486,6.81-2.105,16.294,5.313,21.185c7.423,4.896,17.075,3.343,21.563-3.467c0.181-0.279,0.352-0.562,0.514-0.848
							c0.2-0.259,0.393-0.525,0.574-0.806c4.486-6.808,2.107-16.293-5.312-21.185C134.012,107.376,124.357,108.927,119.869,115.734z
							"/>
					</g>
				</g>
				<g>
					<g>
						<path fill="#421283" d="M66.281,87.505c-0.232,0.355-0.449,0.711-0.654,1.074c-0.252,0.333-0.497,0.672-0.729,1.022
							c-5.691,8.637-2.676,20.663,6.74,26.869c9.413,6.206,21.659,4.236,27.351-4.396c0.23-0.354,0.447-0.712,0.65-1.072
							c0.252-0.331,0.499-0.669,0.73-1.022c5.689-8.636,2.673-20.666-6.739-26.868C84.215,76.904,71.972,78.871,66.281,87.505z"/>
					</g>
					<g>
						
							<radialGradient id="SVGID_7_" cx="-197.189" cy="345.9219" r="20.4764" gradientTransform="matrix(0.9795 -0.2012 0.2012 0.9795 208.0278 -287.9461)" gradientUnits="userSpaceOnUse">
							<stop  offset="0" style="stop-color:#C06FFF;stop-opacity:0.62"/>
							<stop  offset="1" style="stop-color:#908DD9;stop-opacity:0"/>
						</radialGradient>
						<path fill="url(#SVGID_7_)" d="M66.281,87.505c-0.232,0.355-0.449,0.711-0.654,1.074c-0.252,0.333-0.497,0.672-0.729,1.022
							c-5.691,8.637-2.676,20.663,6.74,26.869c9.413,6.206,21.659,4.236,27.351-4.396c0.23-0.354,0.447-0.712,0.65-1.072
							c0.252-0.331,0.499-0.669,0.73-1.022c5.689-8.636,2.673-20.666-6.739-26.868C84.215,76.904,71.972,78.871,66.281,87.505z"/>
					</g>
					<g opacity="0.5">
						<path fill="#3A003D" d="M102.95,103.009c-0.203,0.363-0.419,0.722-0.651,1.074c-5.691,8.633-17.934,10.603-27.351,4.396
							c-7.012-4.623-10.474-12.479-9.43-19.751c-0.215,0.284-0.422,0.575-0.62,0.875c-5.691,8.637-2.676,20.664,6.74,26.869
							c9.413,6.206,21.659,4.236,27.351-4.396c0.23-0.354,0.447-0.711,0.65-1.072c0.252-0.331,0.499-0.669,0.73-1.023
							c1.451-2.201,2.333-4.625,2.689-7.114C103.023,102.911,102.986,102.958,102.95,103.009z"/>
					</g>
					<g>
						
							<radialGradient id="SVGID_8_" cx="-196.8091" cy="350.1758" r="25.7525" gradientTransform="matrix(0.9795 -0.2012 0.2012 0.9795 208.0278 -287.9461)" gradientUnits="userSpaceOnUse">
							<stop  offset="0.5276" style="stop-color:#000000;stop-opacity:0"/>
							<stop  offset="0.7939" style="stop-color:#000000;stop-opacity:0.38"/>
							<stop  offset="1" style="stop-color:#000000;stop-opacity:0"/>
						</radialGradient>
						<path fill="url(#SVGID_8_)" d="M66.281,87.505c-0.232,0.355-0.449,0.711-0.654,1.074c-0.252,0.333-0.497,0.672-0.729,1.022
							c-5.691,8.637-2.676,20.663,6.74,26.869c9.413,6.206,21.659,4.236,27.351-4.396c0.23-0.354,0.447-0.712,0.65-1.072
							c0.252-0.331,0.499-0.669,0.73-1.022c5.689-8.636,2.673-20.666-6.739-26.868C84.215,76.904,71.972,78.871,66.281,87.505z"/>
					</g>
				</g>
				<g>
					<g>
						<path fill="#421283" d="M93.201,108.695c-0.234,0.351-0.448,0.712-0.654,1.072c-0.252,0.33-0.497,0.672-0.728,1.022
							c-5.692,8.633-2.673,20.661,6.741,26.868c9.413,6.206,21.659,4.236,27.35-4.397c0.229-0.354,0.447-0.713,0.65-1.073
							c0.252-0.33,0.496-0.668,0.729-1.023c5.691-8.635,2.674-20.661-6.739-26.867C111.135,98.092,98.893,100.061,93.201,108.695z"
							/>
					</g>
					<g>
						
							<radialGradient id="SVGID_9_" cx="-169.7476" cy="368.2637" r="20.4773" gradientTransform="matrix(0.9795 -0.2012 0.2012 0.9795 208.0278 -287.9461)" gradientUnits="userSpaceOnUse">
							<stop  offset="0" style="stop-color:#C06FFF;stop-opacity:0.62"/>
							<stop  offset="1" style="stop-color:#908DD9;stop-opacity:0"/>
						</radialGradient>
						<path fill="url(#SVGID_9_)" d="M93.201,108.695c-0.234,0.351-0.448,0.712-0.654,1.072c-0.252,0.33-0.497,0.672-0.728,1.022
							c-5.692,8.633-2.673,20.661,6.741,26.868c9.413,6.206,21.659,4.236,27.35-4.397c0.229-0.354,0.447-0.713,0.65-1.073
							c0.252-0.33,0.496-0.668,0.729-1.023c5.691-8.635,2.674-20.661-6.739-26.867C111.135,98.092,98.893,100.061,93.201,108.695z"
							/>
					</g>
					<g opacity="0.5">
						<path fill="#3A003D" d="M129.872,124.197c-0.203,0.361-0.421,0.721-0.654,1.072c-5.69,8.636-17.934,10.604-27.349,4.397
							c-7.012-4.623-10.473-12.479-9.43-19.752c-0.214,0.285-0.424,0.573-0.62,0.875c-5.692,8.633-2.673,20.661,6.741,26.868
							c9.413,6.205,21.659,4.236,27.35-4.397c0.229-0.354,0.447-0.713,0.65-1.073c0.252-0.33,0.496-0.668,0.729-1.023
							c1.452-2.2,2.333-4.623,2.689-7.114C129.943,124.102,129.908,124.146,129.872,124.197z"/>
					</g>
					<g>
						
							<radialGradient id="SVGID_10_" cx="-175.4385" cy="374.8809" r="25.4321" gradientTransform="matrix(0.9795 -0.2012 0.2012 0.9795 208.0278 -287.9461)" gradientUnits="userSpaceOnUse">
							<stop  offset="0.5276" style="stop-color:#000000;stop-opacity:0"/>
							<stop  offset="0.7939" style="stop-color:#000000;stop-opacity:0.38"/>
							<stop  offset="1" style="stop-color:#000000;stop-opacity:0"/>
						</radialGradient>
						<path fill="url(#SVGID_10_)" d="M93.201,108.695c-0.234,0.351-0.448,0.712-0.654,1.072c-0.252,0.33-0.497,0.672-0.728,1.022
							c-5.692,8.633-2.673,20.661,6.741,26.868c9.413,6.206,21.659,4.236,27.35-4.397c0.229-0.354,0.447-0.713,0.65-1.073
							c0.252-0.33,0.496-0.668,0.729-1.023c5.691-8.635,2.674-20.661-6.739-26.867C111.135,98.092,98.893,100.061,93.201,108.695z"
							/>
					</g>
				</g>
				<g>
					<g>
						<path fill="#421283" d="M117.816,138.114c-0.184,0.278-0.354,0.562-0.516,0.852c-0.201,0.263-0.395,0.53-0.578,0.81
							c-4.512,6.849-2.119,16.382,5.344,21.3c7.463,4.921,17.17,3.358,21.68-3.482c0.186-0.282,0.354-0.563,0.518-0.852
							c0.203-0.263,0.396-0.532,0.577-0.813c4.513-6.843,2.12-16.379-5.342-21.298S122.33,131.271,117.816,138.114z"/>
					</g>
					<g>
						
							<radialGradient id="SVGID_11_" cx="-158.0283" cy="402.0293" r="16.2304" gradientTransform="matrix(0.9795 -0.2012 0.2012 0.9795 208.0278 -287.9461)" gradientUnits="userSpaceOnUse">
							<stop  offset="0" style="stop-color:#C06FFF;stop-opacity:0.62"/>
							<stop  offset="1" style="stop-color:#908DD9;stop-opacity:0"/>
						</radialGradient>
						<path fill="url(#SVGID_11_)" d="M117.816,138.114c-0.184,0.278-0.354,0.562-0.516,0.852c-0.201,0.263-0.395,0.53-0.578,0.81
							c-4.512,6.849-2.119,16.382,5.344,21.3c7.463,4.921,17.17,3.358,21.68-3.482c0.186-0.282,0.354-0.563,0.518-0.852
							c0.203-0.263,0.396-0.532,0.577-0.813c4.513-6.843,2.12-16.379-5.342-21.298S122.33,131.271,117.816,138.114z"/>
					</g>
					<g opacity="0.5">
						<path fill="#3A003D" d="M146.887,150.402c-0.16,0.289-0.33,0.572-0.516,0.853c-4.512,6.843-14.217,8.404-21.682,3.487
							c-5.561-3.663-8.301-9.893-7.478-15.659c-0.17,0.224-0.333,0.457-0.489,0.692c-4.512,6.847-2.119,16.379,5.344,21.298
							c7.463,4.921,17.17,3.358,21.68-3.482c0.186-0.282,0.354-0.565,0.518-0.852c0.203-0.263,0.396-0.532,0.577-0.813
							c1.149-1.744,1.849-3.664,2.136-5.639C146.945,150.325,146.916,150.363,146.887,150.402z"/>
					</g>
					<g>
						
							<radialGradient id="SVGID_12_" cx="-159.3169" cy="406.2139" r="21.338" gradientTransform="matrix(0.9795 -0.2012 0.2012 0.9795 208.0278 -287.9461)" gradientUnits="userSpaceOnUse">
							<stop  offset="0.5276" style="stop-color:#000000;stop-opacity:0"/>
							<stop  offset="0.7939" style="stop-color:#000000;stop-opacity:0.38"/>
							<stop  offset="1" style="stop-color:#000000;stop-opacity:0"/>
						</radialGradient>
						<path fill="url(#SVGID_12_)" d="M117.816,138.114c-0.184,0.278-0.354,0.562-0.516,0.852c-0.201,0.263-0.395,0.53-0.578,0.81
							c-4.512,6.849-2.119,16.382,5.344,21.3c7.463,4.921,17.17,3.358,21.68-3.482c0.186-0.282,0.354-0.563,0.518-0.852
							c0.203-0.263,0.396-0.532,0.577-0.813c4.513-6.843,2.12-16.379-5.342-21.298S122.33,131.271,117.816,138.114z"/>
					</g>
				</g>
				<g>
					<g>
						<path fill="#421283" d="M93.711,73.384c-0.232,0.355-0.45,0.713-0.653,1.073c-0.252,0.333-0.498,0.671-0.73,1.023
							c-5.692,8.635-2.673,20.664,6.74,26.87c9.417,6.205,21.659,4.236,27.351-4.396c0.233-0.353,0.45-0.712,0.651-1.075
							c0.254-0.331,0.498-0.669,0.729-1.023c5.691-8.634,2.676-20.663-6.738-26.867C111.646,62.783,99.4,64.75,93.711,73.384z"/>
					</g>
					<g opacity="0.5">
						<path fill="#3A003D" d="M130.381,88.886c-0.205,0.363-0.42,0.725-0.652,1.074c-5.688,8.636-17.936,10.604-27.35,4.399
							c-7.014-4.624-10.473-12.476-9.432-19.754c-0.215,0.285-0.42,0.575-0.62,0.875c-5.692,8.635-2.673,20.664,6.74,26.87
							c9.416,6.205,21.66,4.236,27.351-4.396c0.234-0.353,0.45-0.712,0.652-1.075c0.253-0.331,0.498-0.669,0.729-1.023
							c1.453-2.2,2.335-4.624,2.691-7.114C130.453,88.79,130.418,88.839,130.381,88.886z"/>
					</g>
					<g>
						
							<radialGradient id="SVGID_13_" cx="-159.0098" cy="330.0977" r="20.4762" gradientTransform="matrix(0.9795 -0.2012 0.2012 0.9795 208.0278 -287.9461)" gradientUnits="userSpaceOnUse">
							<stop  offset="0" style="stop-color:#C06FFF;stop-opacity:0.62"/>
							<stop  offset="1" style="stop-color:#908DD9;stop-opacity:0"/>
						</radialGradient>
						<path fill="url(#SVGID_13_)" d="M93.711,73.384c-0.232,0.355-0.45,0.713-0.653,1.073c-0.252,0.333-0.498,0.671-0.73,1.023
							c-5.692,8.635-2.673,20.664,6.74,26.87c9.417,6.205,21.659,4.236,27.351-4.396c0.233-0.353,0.45-0.712,0.651-1.075
							c0.254-0.331,0.498-0.669,0.729-1.023c5.691-8.634,2.676-20.663-6.738-26.867C111.646,62.783,99.4,64.75,93.711,73.384z"/>
					</g>
					<g>
						
							<radialGradient id="SVGID_14_" cx="-708.1177" cy="253.0996" r="22.6585" gradientTransform="matrix(0.5636 -0.826 0.968 0.6604 266.2753 -672.4542)" gradientUnits="userSpaceOnUse">
							<stop  offset="0.5276" style="stop-color:#000000;stop-opacity:0"/>
							<stop  offset="0.7939" style="stop-color:#000000;stop-opacity:0.38"/>
							<stop  offset="1" style="stop-color:#000000;stop-opacity:0"/>
						</radialGradient>
						<path fill="url(#SVGID_14_)" d="M93.711,73.384c-0.232,0.355-0.45,0.713-0.653,1.073c-0.252,0.333-0.498,0.671-0.73,1.023
							c-5.692,8.635-2.673,20.664,6.74,26.87c9.417,6.205,21.659,4.236,27.351-4.396c0.233-0.353,0.45-0.712,0.651-1.075
							c0.254-0.331,0.498-0.669,0.729-1.023c5.691-8.634,2.676-20.663-6.738-26.867C111.646,62.783,99.4,64.75,93.711,73.384z"/>
					</g>
					<g>
						
							<ellipse transform="matrix(-0.5506 0.8347 -0.8347 -0.5506 238.6612 15.7883)" opacity="0.35" fill="#BD7CFF" enable-background="new    " cx="115.081" cy="72.132" rx="3.705" ry="4.815"/>
						
							<ellipse transform="matrix(-0.5502 0.835 -0.835 -0.5502 238.1843 14.93)" fill="#BD7CFF" cx="115.071" cy="71.612" rx="2.405" ry="3.124"/>
					</g>
				</g>
			</g>
			<g>
				<path fill="#FFFFFF" d="M85.832,64.354c0.329,1.63,0.784,3.41,1.4,5.414c0.179,0.582,0.383,1.141,0.576,1.71
					c0.076-0.105,0.149-0.218,0.226-0.322c0.208-0.354,0.43-0.712,0.667-1.074c0.67-1.018,1.423-1.964,2.234-2.853
					c-0.05-0.068-0.097-0.141-0.152-0.199C88.695,66.46,86.849,65.402,85.832,64.354z"/>
				<path fill="#FFFFFF" d="M79.861,73.566c0.408-0.623,0.821-1.405,1.15-2.406c-0.977,0.968-2.074,1.878-3.027,2.614
					C78.604,73.684,79.229,73.612,79.861,73.566z"/>
				<path fill="#FFFFFF" d="M83.391,69.176c-0.148,1.445-0.555,2.891-1.477,3.858c-0.165,0.172-0.298,0.31-0.447,0.464
					c0.099-0.001,0.196-0.009,0.295-0.009c1.164,0,2.318,0.099,3.465,0.248C84.589,72.268,83.969,70.762,83.391,69.176z"/>
			</g>
			<g>
				<path d="M85.832,64.354c0.329,1.63,0.784,3.41,1.4,5.414c0.179,0.582,0.383,1.141,0.576,1.71
					c0.076-0.105,0.149-0.218,0.226-0.322c0.208-0.354,0.43-0.712,0.667-1.074c0.67-1.018,1.423-1.964,2.234-2.853
					c-0.05-0.068-0.097-0.141-0.152-0.199C88.695,66.46,86.849,65.402,85.832,64.354z"/>
				<path d="M79.861,73.566c0.408-0.623,0.821-1.405,1.15-2.406c-0.977,0.968-2.074,1.878-3.027,2.614
					C78.604,73.684,79.229,73.612,79.861,73.566z"/>
				<path d="M83.391,69.176c-0.148,1.445-0.555,2.891-1.477,3.858c-0.165,0.172-0.298,0.31-0.447,0.464
					c0.099-0.001,0.196-0.009,0.295-0.009c1.164,0,2.318,0.099,3.465,0.248C84.589,72.268,83.969,70.762,83.391,69.176z"/>
			</g>
		</g>
	</g>
</g>
<g id="outline_x5F_white">
	<g>
		<path fill="#FFFFFF" d="M39.864,74.418l-0.06-0.084c2.327-2.06,4.914-5.224,5.224-6.389c0,0.003-0.061,0.238-0.021,0.64
			l4.862-6.486c2.539-0.484,7.067-2.005,8.717-3.732l3.925-1.84c0.102-0.007,2.519-0.171,5.539-0.171
			c2.196,0,4.157,0.087,5.867,0.258c-1.058-7.968,0.643-12.134,2.42-14.945c0.021-0.032,0.04-0.063,0.059-0.092
			c1.36-2.758,4.27-4.394,7.846-4.394c0.607,0,1.081,0.046,1.299,0.072c1.023,0.12,3.509,0.644,5.321,2.908
			c0.61,0.763,1.061,1.628,1.342,2.558l2.697-1.181c0.114,0.005,0.229,0.007,0.343,0.007c3.945,0,8.177-2.731,9.475-3.783
			l0.016,0.019l7.416-0.159c1.428,1.083,6.267,2.175,12.819,2.224l11.17-1.414c-2.216-2.82-5.645-4.598-9.429-4.598
			c-0.143,0-0.284,0.002-0.427,0.007c-0.054,0.001-0.368,0.009-0.858,0.009c-5.02,0-8.744-0.692-9.929-1.212
			c-2.142-1.541-4.616-2.323-7.073-2.323c-2.674,0-5.326,0.926-7.515,2.809c-1.333,1.03-3.997,2.42-5.666,2.42l-0.095-0.002
			c-0.123-0.005-0.245-0.008-0.367-0.01c-3.048-3.222-6.762-4.042-8.621-4.249c-0.414-0.046-1.095-0.104-1.919-0.104
			c-5.71,0-10.635,2.819-13.062,7.416c-1.678,2.687-3.298,6.264-3.559,11.759c-2.964,0.014-5.259,0.166-5.522,0.184
			c-2.943,0.203-5.707,1.482-7.765,3.592c-0.842,0.657-3.557,1.667-5.571,2.068c-5.204,0.921-8.985,5.073-9.674,10.093
			c-0.768,1.051-2.261,2.662-3.262,3.547c-4.169,3.691-5.19,9.692-2.686,14.509L39.864,74.418z"/>
		<path fill="#FFFFFF" d="M156.873,111.309c0.152-0.357,0.296-0.711,0.432-1.064c0.031-0.087,0.062-0.174,0.094-0.26
			c0.131-0.359,0.254-0.721,0.371-1.082c0.028-0.094,0.059-0.188,0.086-0.279c3.705-12.102-1.434-25.624-12.529-32.935
			c-1.797-1.185-3.709-2.178-5.697-2.964c-2.42-5.131-6.195-9.644-10.941-13.028c0.891-1.088,2.061-2.263,2.904-2.898
			c4.85-2.157,7.785-7.326,6.982-12.726c-0.256-1.714-0.873-3.291-1.754-4.673l-8.656,11.643l0.088,0.593
			c0.377-0.1,0.59-0.211,0.594-0.212c-2.216,1.161-7.201,6.68-7.17,8.757l-1.082,1.71c-0.426-0.196-0.856-0.378-1.289-0.55
			c1.75,0.701,3.445,1.574,5.055,2.633c5.014,3.302,8.797,8.104,10.774,13.545c2.427,0.697,4.759,1.768,6.89,3.174
			c8.896,5.859,13.031,16.62,10.084,26.198c-0.017,0.057-0.031,0.108-0.051,0.163c-0.098,0.302-0.201,0.604-0.31,0.904
			c-0.019,0.053-0.037,0.104-0.058,0.157c-0.117,0.308-0.238,0.611-0.375,0.923c-0.016,0.034-0.027,0.069-0.043,0.103
			c-0.115,0.268-0.242,0.53-0.371,0.797l-0.021,0.045c-0.042,0.086-0.084,0.174-0.129,0.263c-0.123,0.241-0.255,0.485-0.391,0.724
			c-0.06,0.11-0.119,0.221-0.182,0.325c-0.103,0.177-0.212,0.356-0.318,0.528c4.688,5.6,6.395,13.041,4.258,19.928
			c-0.1,0.332-0.204,0.633-0.305,0.906c-0.025,0.076-0.055,0.15-0.082,0.225c-0.098,0.26-0.203,0.516-0.312,0.775
			c-0.035,0.086-0.07,0.171-0.109,0.254c-0.102,0.232-0.213,0.466-0.328,0.697c-0.037,0.08-0.076,0.158-0.111,0.23
			c-0.122,0.239-0.25,0.475-0.385,0.708c-0.045,0.09-0.096,0.181-0.149,0.271c-0.213,0.369-0.422,0.696-0.573,0.928
			c-0.185,0.281-0.38,0.56-0.576,0.831c-0.151,0.252-0.308,0.506-0.478,0.77c-0.004,0.007-0.01,0.013-0.015,0.021
			c2.728,5.301,3.211,11.429,1.173,16.901c-0.019,0.043-0.033,0.086-0.052,0.131c-0.108,0.281-0.223,0.563-0.344,0.84
			c-0.003,0.007-0.005,0.012-0.007,0.017c-0.015,0.035-0.028,0.067-0.044,0.101c-0.113,0.25-0.227,0.496-0.35,0.739
			c-0.036,0.081-0.084,0.177-0.139,0.28c-0.113,0.214-0.227,0.424-0.345,0.634c-0.047,0.089-0.104,0.193-0.172,0.308
			c-0.17,0.3-0.356,0.598-0.563,0.91c-0.188,0.285-0.384,0.566-0.582,0.838c-0.164,0.276-0.332,0.549-0.516,0.828
			c-3.734,5.668-10.193,9.053-17.277,9.053c-4.485,0-8.881-1.336-12.711-3.859c-1.662-1.096-3.177-2.395-4.496-3.854
			c-1.906,0.545-3.908,0.826-5.949,0.826c-4.465,0-8.843-1.33-12.66-3.846c-3.916-2.582-6.925-6.271-8.648-10.445
			c-0.196,0.006-0.394,0.008-0.591,0.008c-4.462,0-8.836-1.325-12.652-3.838c-9.007-5.939-12.508-16.998-8.822-26.078
			c-9.414-8.502-11.81-22.312-5.053-32.566c0.222-0.336,0.459-0.674,0.707-1.008c0.209-0.357,0.429-0.711,0.671-1.081
			c0.111-0.168,0.232-0.327,0.347-0.491c-0.001,0.001-0.002,0.002-0.003,0.004l-2.134-0.049c-0.412-0.192-1.775-0.515-4.266-0.515
			c-4.079,0-8.081,0.803-8.914,1.109c0.006-0.002,0.161-0.06,0.402-0.194l-0.036-0.05l-12.023,2.563
			c2.33,2.749,5.697,4.25,9.143,4.25c1.56,0,3.132-0.304,4.628-0.932c0.624-0.152,1.857-0.374,3.323-0.537
			c-3.695,10.482-1.198,22.442,6.416,31.141c-2.47,10.777,2.122,22.729,12.309,29.445c3.878,2.554,8.218,4.133,12.713,4.646
			c2.213,3.79,5.328,7.095,9.181,9.634c4.802,3.161,10.322,4.834,15.96,4.834c1.371,0,2.729-0.101,4.062-0.295
			c0.973,0.842,2.004,1.62,3.085,2.334c4.808,3.17,10.347,4.848,16.009,4.848c9.107,0,17.439-4.394,22.289-11.748
			c0.012-0.018,0.022-0.034,0.033-0.053c0.166-0.254,0.326-0.511,0.485-0.771c0.196-0.273,0.39-0.557,0.575-0.842
			c0.268-0.401,0.509-0.79,0.733-1.182c0.103-0.174,0.188-0.326,0.259-0.457c0.139-0.246,0.271-0.492,0.399-0.742
			c0.073-0.142,0.146-0.282,0.214-0.428c0.178-0.354,0.319-0.668,0.432-0.914c0.021-0.055,0.047-0.106,0.068-0.16
			c0.001-0.002,0.002-0.004,0.002-0.006c0.148-0.344,0.296-0.697,0.436-1.061c0.026-0.07,0.057-0.145,0.082-0.216
			c2.221-5.949,2.143-12.479-0.019-18.441c0.017-0.026,0.031-0.055,0.047-0.079c0.091-0.152,0.166-0.289,0.229-0.406
			c0.164-0.291,0.322-0.582,0.474-0.879c0.056-0.106,0.111-0.224,0.167-0.343c0.143-0.286,0.271-0.563,0.396-0.841
			c0.061-0.135,0.119-0.271,0.177-0.409c0.134-0.312,0.259-0.625,0.379-0.938c0.047-0.121,0.092-0.243,0.134-0.366
			c0.116-0.316,0.254-0.712,0.389-1.158C162.188,125.961,160.969,117.93,156.873,111.309z"/>
	</g>
</g>
<g id="outline_x5F_black">
	<path d="M149.859,111.82c0.106-0.172,0.216-0.352,0.318-0.528c0.062-0.104,0.122-0.215,0.182-0.325
		c0.136-0.238,0.268-0.482,0.391-0.724c0.045-0.089,0.087-0.177,0.129-0.263l0.021-0.045c0.129-0.267,0.256-0.529,0.371-0.797
		c0.016-0.033,0.027-0.068,0.043-0.103c0.137-0.312,0.258-0.615,0.375-0.923c0.021-0.053,0.039-0.104,0.058-0.157
		c0.108-0.301,0.212-0.603,0.31-0.904c0.02-0.055,0.034-0.106,0.051-0.163c2.947-9.578-1.188-20.339-10.084-26.198
		c-2.131-1.406-4.463-2.477-6.89-3.174c-1.978-5.441-5.761-10.243-10.774-13.545c-1.609-1.059-3.305-1.932-5.055-2.633
		c0.433,0.172,0.863,0.354,1.289,0.55l1.082-1.71c-0.031-2.077,4.954-7.596,7.17-8.757c-0.004,0.001-0.217,0.112-0.594,0.212
		l-0.088-0.593l9.518-12.802l-12.712,1.609c-6.553-0.049-11.392-1.142-12.819-2.224l-7.416,0.159l-0.016-0.019
		c-1.298,1.052-5.53,3.783-9.475,3.783c-0.114,0-0.229-0.002-0.343-0.007l-2.697,1.181c-0.281-0.93-0.732-1.795-1.342-2.558
		c-1.812-2.264-4.298-2.788-5.321-2.908c-0.218-0.026-0.692-0.072-1.299-0.072c-3.576,0-6.486,1.636-7.846,4.394
		c-0.019,0.029-0.038,0.06-0.059,0.092c-1.777,2.811-3.478,6.977-2.42,14.945c-1.71-0.171-3.671-0.258-5.867-0.258
		c-3.02,0-5.437,0.164-5.539,0.171l-3.925,1.84c-1.65,1.727-6.178,3.248-8.717,3.732l-4.862,6.486
		c-0.04-0.402,0.021-0.637,0.021-0.64c-0.31,1.165-2.897,4.329-5.224,6.389l0.06,0.084l-8.74,12.911l15.544-3.313l0.036,0.05
		c-0.241,0.134-0.396,0.192-0.402,0.194c0.833-0.306,4.835-1.109,8.914-1.109c2.491,0,3.854,0.323,4.266,0.515l2.134,0.049
		c0.001-0.001,0.002-0.002,0.003-0.004c-0.115,0.165-0.236,0.323-0.347,0.491c-0.242,0.37-0.462,0.724-0.671,1.081
		c-0.248,0.334-0.485,0.672-0.707,1.008c-6.757,10.254-4.361,24.064,5.053,32.566c-3.686,9.08-0.185,20.139,8.822,26.078
		c3.816,2.513,8.19,3.838,12.652,3.838c0.197,0,0.395-0.002,0.591-0.008c1.723,4.174,4.732,7.863,8.648,10.445
		c3.817,2.516,8.195,3.846,12.66,3.846c2.041,0,4.043-0.281,5.949-0.826c1.319,1.459,2.834,2.758,4.496,3.854
		c3.83,2.523,8.226,3.859,12.711,3.859c7.084,0,13.543-3.385,17.277-9.053c0.184-0.279,0.352-0.552,0.516-0.828
		c0.198-0.271,0.395-0.553,0.582-0.838c0.207-0.312,0.394-0.61,0.563-0.91c0.067-0.114,0.125-0.219,0.172-0.308
		c0.118-0.21,0.231-0.42,0.345-0.634c0.055-0.104,0.103-0.199,0.139-0.28c0.123-0.243,0.236-0.489,0.35-0.739
		c0.016-0.033,0.029-0.065,0.044-0.101c0.002-0.005,0.004-0.01,0.007-0.017c0.121-0.276,0.235-0.559,0.344-0.84
		c0.019-0.045,0.033-0.088,0.052-0.131c2.038-5.473,1.555-11.601-1.173-16.901c0.005-0.009,0.011-0.015,0.015-0.021
		c0.17-0.264,0.326-0.518,0.478-0.77c0.196-0.271,0.392-0.55,0.576-0.831c0.151-0.231,0.36-0.559,0.573-0.928
		c0.054-0.09,0.104-0.181,0.149-0.271c0.135-0.233,0.263-0.469,0.385-0.708c0.035-0.072,0.074-0.15,0.111-0.23
		c0.115-0.231,0.227-0.465,0.328-0.697c0.039-0.083,0.074-0.168,0.109-0.254c0.109-0.26,0.215-0.516,0.312-0.775
		c0.027-0.074,0.057-0.148,0.082-0.225c0.101-0.273,0.205-0.574,0.305-0.906C156.254,124.861,154.547,117.42,149.859,111.82z
		 M55.214,77.153c-4.925,0-10.27,1.025-11.435,1.675c0,0,7.602-6.729,7.196-10.832c0,0,8.151-1.512,11.946-5.482
		c0,0,2.278-0.157,5.126-0.157c2.642,0,5.774,0.135,8.034,0.655c3.66,0.843,4.942,2.734,5.316,3.477
		c0.311,0.261,0.164,0.527-0.12,0.651c-0.069,0.26,0.108,0.537,0.348,0.82c0.103-1.324,0.059-2.849-0.222-4.606
		c-0.04-0.242-0.073-0.463-0.105-0.679c-3.836-14.035-0.153-17.04,0.451-18.392c0.426-0.952,1.722-1.1,2.49-1.1
		c0.349,0,0.589,0.031,0.589,0.031s1.997,0.156,1.687,2.309c-0.801,5.517-1.613,9.293-1.338,13.931
		c0.516,1.364,1.409,3.019,2.967,4.448c-0.479-1.304-0.751-3.02-0.234-5.046c1.224-4.823,6.741-11.32,6.741-11.32
		c0.198,0.008,0.394,0.012,0.59,0.012c7.075-0.001,13.282-5.144,13.282-5.144c4.147,3.149,13.492,3.449,16.906,3.449
		c0.362,0,0.646-0.003,0.862-0.007l0.038,0.138c-2.715,1.202-10.642,8.503-10.639,14.194c0.003,0,0.005,0.001,0.008,0.002
		c-2.127-0.527-4.308-0.812-6.51-0.812c-8.408,0-16.067,4.006-20.488,10.715c-0.237,0.362-0.459,0.72-0.667,1.074
		c-0.237,0.321-0.467,0.646-0.696,0.992c-0.372,0.563-0.717,1.139-1.036,1.726c-1.497-0.256-3.013-0.385-4.54-0.385
		c-3.421,0-6.713,0.673-9.719,1.911c-4.414,0.526-10.04,2.824-10.04,2.824C60.314,77.44,57.823,77.153,55.214,77.153z
		 M118.391,60.997c-0.175-0.063-0.352-0.122-0.527-0.181C118.039,60.875,118.215,60.934,118.391,60.997z M62.647,82.348
		c-0.005,0.006-0.01,0.012-0.015,0.018C62.637,82.36,62.642,82.354,62.647,82.348z M148.375,130.018
		c-0.001,0.004-0.001,0.004-0.001,0.004c-0.067,0.229-0.147,0.453-0.229,0.674c-0.006,0.018-0.011,0.029-0.015,0.044
		c-0.08,0.209-0.164,0.415-0.255,0.625c-0.009,0.022-0.02,0.052-0.032,0.075c-0.083,0.19-0.174,0.381-0.271,0.571
		c-0.018,0.038-0.033,0.075-0.055,0.115c-0.094,0.183-0.191,0.36-0.295,0.539c-0.023,0.045-0.045,0.089-0.072,0.133
		c-0.125,0.222-0.262,0.438-0.403,0.655c-0.185,0.279-0.374,0.547-0.574,0.806c-0.161,0.286-0.333,0.566-0.514,0.849
		c-0.703,1.062-1.529,1.996-2.454,2.797c3.716,4.369,4.921,10.226,3.038,15.271c-0.005,0.006-0.007,0.014-0.009,0.021
		c-0.082,0.218-0.17,0.434-0.264,0.646c-0.009,0.018-0.019,0.039-0.025,0.061c-0.088,0.197-0.178,0.394-0.277,0.587
		c-0.018,0.036-0.029,0.069-0.05,0.104c-0.095,0.185-0.194,0.365-0.298,0.546c-0.022,0.045-0.045,0.09-0.071,0.131
		c-0.126,0.225-0.265,0.442-0.407,0.658c-0.183,0.28-0.374,0.551-0.578,0.812c-0.162,0.285-0.332,0.568-0.517,0.852
		c-2.733,4.146-7.375,6.354-12.271,6.354c-3.183,0-6.472-0.933-9.41-2.87c-2.51-1.652-4.443-3.83-5.735-6.25
		c-2.356,1.472-5.14,2.232-8.011,2.232c-3.162,0-6.434-0.928-9.356-2.854c-4.471-2.947-7.109-7.557-7.521-12.246
		c-1.594,0.541-3.291,0.816-5.021,0.816c-3.161,0-6.428-0.924-9.35-2.849c-7.421-4.894-9.8-14.377-5.315-21.184
		c0.157-0.24,0.323-0.47,0.489-0.693c0,0.002,0,0.005-0.001,0.009c0.031-0.039,0.058-0.082,0.086-0.125
		c0.148-0.252,0.301-0.508,0.463-0.758c-0.389-0.223-0.774-0.453-1.154-0.705c-9.416-6.207-12.432-18.231-6.74-26.87
		c0.198-0.3,0.405-0.591,0.62-0.875c-0.001,0.003-0.001,0.005-0.001,0.011c0.037-0.052,0.072-0.109,0.109-0.158
		c0.205-0.363,0.422-0.719,0.654-1.074c3.448-5.231,9.305-8.016,15.48-8.015c2.715,0,5.492,0.538,8.152,1.643
		c0.455-1.972,1.247-3.883,2.413-5.652c0.2-0.3,0.405-0.59,0.62-0.875l0.001,0.008c0.037-0.05,0.07-0.105,0.109-0.157
		c0.203-0.36,0.421-0.718,0.653-1.073c3.449-5.235,9.306-8.019,15.479-8.019c4.014,0,8.16,1.176,11.869,3.621
		c5.084,3.349,8.295,8.393,9.284,13.687c2.868,0.304,5.748,1.297,8.378,3.031c6.85,4.512,9.787,12.588,7.631,19.489
		c-0.002,0.007-0.002,0.011-0.004,0.015c-0.078,0.243-0.16,0.485-0.25,0.728c-0.008,0.019-0.016,0.037-0.021,0.06
		c-0.085,0.226-0.176,0.444-0.271,0.666c-0.016,0.032-0.029,0.067-0.045,0.104c-0.089,0.207-0.188,0.407-0.289,0.611
		c-0.021,0.047-0.043,0.096-0.066,0.143c-0.1,0.192-0.206,0.391-0.315,0.582c-0.026,0.053-0.055,0.105-0.085,0.155
		c-0.141,0.242-0.29,0.481-0.443,0.72c-0.201,0.308-0.412,0.601-0.634,0.887c-0.176,0.316-0.362,0.625-0.563,0.93
		c-0.432,0.654-0.909,1.262-1.424,1.828C147.816,116.791,150.29,123.91,148.375,130.018z"/>
</g>
</svg>
