<?xml version="1.0" encoding="utf-8"?>
<!-- Generator: Adobe Illustrator 15.0.0, SVG Export Plug-In . SVG Version: 6.00 Build 0)  -->
<!DOCTYPE svg PUBLIC "-//W3C//DTD SVG 1.1//EN" "http://www.w3.org/Graphics/SVG/1.1/DTD/svg11.dtd">
<svg version="1.1" xmlns="http://www.w3.org/2000/svg" xmlns:xlink="http://www.w3.org/1999/xlink" x="0px" y="0px" width="200px"
	 height="200px" viewBox="0 0 200 200" enable-background="new 0 0 200 200" xml:space="preserve">
<g id="icon">
	<g id="Layer_2">
	</g>
	<g id="Layer_1_1_">
		<g>
			<g>
				
					<radialGradient id="SVGID_1_" cx="2629.3438" cy="1181.1084" r="72.2045" gradientTransform="matrix(0.6353 0.9118 -1.0371 0.7225 -336.6473 -3159.2063)" gradientUnits="userSpaceOnUse">
					<stop  offset="0" style="stop-color:#FFB352"/>
					<stop  offset="0.1754" style="stop-color:#FDAF4F"/>
					<stop  offset="0.36" style="stop-color:#F7A246"/>
					<stop  offset="0.5486" style="stop-color:#ED8D38"/>
					<stop  offset="0.7402" style="stop-color:#E07024"/>
					<stop  offset="0.9321" style="stop-color:#CE4A0A"/>
					<stop  offset="1" style="stop-color:#C73B00"/>
				</radialGradient>
				<path fill="url(#SVGID_1_)" d="M70.025,43.101c28.579-27.838,68.874-21.132,98.534,21.443
					c19.752,28.349-0.055,68.313-31.893,90.497s-74.199,29.779-95.942-1.43C11.004,110.962,21.717,66.31,58.501,50.808
					c1.397-0.587,2.435-1.809,3.678-2.675C64.731,46.356,67.803,45.266,70.025,43.101z"/>
				
					<radialGradient id="SVGID_2_" cx="2624.2197" cy="1177.6211" r="77.2381" gradientTransform="matrix(0.6353 0.9118 -0.8645 0.6023 -551.7437 -3018.1743)" gradientUnits="userSpaceOnUse">
					<stop  offset="0.0552" style="stop-color:#F03200;stop-opacity:0"/>
					<stop  offset="0.6258" style="stop-color:#D92700;stop-opacity:0.6684"/>
					<stop  offset="0.8461" style="stop-color:#910400;stop-opacity:0.9754"/>
					<stop  offset="0.8675" style="stop-color:#880000"/>
					<stop  offset="1" style="stop-color:#C74900;stop-opacity:0"/>
				</radialGradient>
				<path opacity="0.53" fill="url(#SVGID_2_)" enable-background="new    " d="M168.561,64.544
					c19.752,28.349-0.056,68.313-31.894,90.497s-74.199,29.779-95.942-1.43C9.797,109.229,30.343,70.318,62.18,48.134
					C94.019,25.95,136.314,18.26,168.561,64.544z"/>
				
					<radialGradient id="SVGID_3_" cx="474.5732" cy="88.7529" r="18.7414" gradientTransform="matrix(0.6549 0.7557 -1.6907 1.4653 -90.9666 -434.1025)" gradientUnits="userSpaceOnUse">
					<stop  offset="0" style="stop-color:#650000"/>
					<stop  offset="1" style="stop-color:#C74900;stop-opacity:0"/>
				</radialGradient>
				<path fill="url(#SVGID_3_)" d="M168.561,64.544c19.752,28.349-0.056,68.313-31.894,90.497s-74.199,29.779-95.942-1.43
					C9.797,109.229,30.343,70.318,62.18,48.134C94.019,25.95,136.314,18.26,168.561,64.544z"/>
				
					<radialGradient id="SVGID_4_" cx="-889.6885" cy="193.4238" r="32.6496" gradientTransform="matrix(-0.4568 -0.8896 2.552 -1.3105 -765.2482 -377.913)" gradientUnits="userSpaceOnUse">
					<stop  offset="0" style="stop-color:#600000"/>
					<stop  offset="1" style="stop-color:#C74900;stop-opacity:0"/>
				</radialGradient>
				<path fill="url(#SVGID_4_)" d="M168.561,64.544c19.752,28.349-0.056,68.313-31.894,90.497s-74.199,29.779-95.942-1.43
					C9.797,109.229,30.343,70.318,62.18,48.134C94.019,25.95,136.314,18.26,168.561,64.544z"/>
				<g>
					
						<radialGradient id="SVGID_5_" cx="1385.748" cy="1793.9375" r="16.8948" gradientTransform="matrix(0.9336 -0.6505 0.6353 0.9118 -2377.5361 -652.959)" gradientUnits="userSpaceOnUse">
						<stop  offset="0" style="stop-color:#000000"/>
						<stop  offset="0.1283" style="stop-color:#040100"/>
						<stop  offset="0.2632" style="stop-color:#110500"/>
						<stop  offset="0.4013" style="stop-color:#260B00"/>
						<stop  offset="0.5415" style="stop-color:#431300"/>
						<stop  offset="0.6834" style="stop-color:#691D00"/>
						<stop  offset="0.8267" style="stop-color:#982A00"/>
						<stop  offset="0.9686" style="stop-color:#CE3900"/>
						<stop  offset="1" style="stop-color:#DB3D00"/>
					</radialGradient>
					<path opacity="0.18" fill="url(#SVGID_5_)" enable-background="new    " d="M62.669,55.665c0,0-11.841,6.203-14.865,23.256
						c-2.996,16.88,1.618,28.521,1.618,28.521s-6.919-13.83-2.792-31.875C50.175,60.062,62.669,55.665,62.669,55.665z"/>
					
						<radialGradient id="SVGID_6_" cx="-4508.4214" cy="2476.127" r="16.3787" gradientTransform="matrix(-0.7644 0.841 0.8313 0.7397 -5411.0625 2004.629)" gradientUnits="userSpaceOnUse">
						<stop  offset="0" style="stop-color:#000000"/>
						<stop  offset="0.1283" style="stop-color:#040100"/>
						<stop  offset="0.2632" style="stop-color:#110500"/>
						<stop  offset="0.4013" style="stop-color:#260B00"/>
						<stop  offset="0.5415" style="stop-color:#431300"/>
						<stop  offset="0.6834" style="stop-color:#691D00"/>
						<stop  offset="0.8267" style="stop-color:#982A00"/>
						<stop  offset="0.9686" style="stop-color:#CE3900"/>
						<stop  offset="1" style="stop-color:#DB3D00"/>
					</radialGradient>
					<path opacity="0.18" fill="url(#SVGID_6_)" enable-background="new    " d="M67.817,48.285c0,0,5.887-8.275,26.354-10.398
						c17.161-1.774,25.406,3.312,25.406,3.312s-10.009-6.711-28.439-4.04C71.206,40.045,67.817,48.285,67.817,48.285z"/>
					
						<radialGradient id="SVGID_7_" cx="2186.1143" cy="910.2305" r="17.9598" gradientTransform="matrix(1.0538 -0.4258 0.4059 1.0361 -2625.6499 64.1392)" gradientUnits="userSpaceOnUse">
						<stop  offset="0" style="stop-color:#000000"/>
						<stop  offset="0.1283" style="stop-color:#040100"/>
						<stop  offset="0.2632" style="stop-color:#110500"/>
						<stop  offset="0.4013" style="stop-color:#260B00"/>
						<stop  offset="0.5415" style="stop-color:#431300"/>
						<stop  offset="0.6834" style="stop-color:#691D00"/>
						<stop  offset="0.8267" style="stop-color:#982A00"/>
						<stop  offset="0.9686" style="stop-color:#CE3900"/>
						<stop  offset="1" style="stop-color:#DB3D00"/>
					</radialGradient>
					<path opacity="0.18" fill="url(#SVGID_7_)" enable-background="new    " d="M61.841,51.409c0,0-12.732,8.077-21.812,26.541
						c-7.614,15.484-6.791,23.403-6.791,23.403s-1.733-10.138,7.154-26.501C50.007,57.152,61.841,51.409,61.841,51.409z"/>
					
						<radialGradient id="SVGID_8_" cx="4094.4805" cy="1794.0234" r="15.6536" gradientTransform="matrix(0.5219 -0.3636 0.6353 0.9118 -3209.3262 -72.9959)" gradientUnits="userSpaceOnUse">
						<stop  offset="0" style="stop-color:#000000"/>
						<stop  offset="0.1283" style="stop-color:#040100"/>
						<stop  offset="0.2632" style="stop-color:#110500"/>
						<stop  offset="0.4013" style="stop-color:#260B00"/>
						<stop  offset="0.5415" style="stop-color:#431300"/>
						<stop  offset="0.6834" style="stop-color:#691D00"/>
						<stop  offset="0.8267" style="stop-color:#982A00"/>
						<stop  offset="0.9686" style="stop-color:#CE3900"/>
						<stop  offset="1" style="stop-color:#DB3D00"/>
					</radialGradient>
					<path opacity="0.18" fill="url(#SVGID_8_)" enable-background="new    " d="M65.178,54.109c0,0-3.931,1.448-2.531,15.416
						c1.384,13.829,7.037,24.746,7.037,24.746s-7.726-13.268-8.555-27.859C60.413,53.877,65.178,54.109,65.178,54.109z"/>
					
						<radialGradient id="SVGID_9_" cx="-6743.5947" cy="3620.916" r="15.2142" gradientTransform="matrix(-0.6033 0.4747 0.478 0.6041 -5711.5981 1063.7111)" gradientUnits="userSpaceOnUse">
						<stop  offset="0" style="stop-color:#000000"/>
						<stop  offset="0.1283" style="stop-color:#040100"/>
						<stop  offset="0.2632" style="stop-color:#110500"/>
						<stop  offset="0.4013" style="stop-color:#260B00"/>
						<stop  offset="0.5415" style="stop-color:#431300"/>
						<stop  offset="0.6834" style="stop-color:#691D00"/>
						<stop  offset="0.8267" style="stop-color:#982A00"/>
						<stop  offset="0.9686" style="stop-color:#CE3900"/>
						<stop  offset="1" style="stop-color:#DB3D00"/>
					</radialGradient>
					<path opacity="0.18" fill="url(#SVGID_9_)" enable-background="new    " d="M71.323,48.071c0,0,3.392-3.599,15.15-2.035
						c11.639,1.547,17.579,5.932,17.579,5.932s-6.941-6.344-19.561-7.396C73.651,43.67,71.323,48.071,71.323,48.071z"/>
					
						<radialGradient id="SVGID_10_" cx="2754.6367" cy="2403.9014" r="11.1727" gradientTransform="matrix(0.4408 -0.4579 0.8084 0.764 -3077.156 -512.3187)" gradientUnits="userSpaceOnUse">
						<stop  offset="0" style="stop-color:#000000"/>
						<stop  offset="0.1283" style="stop-color:#040100"/>
						<stop  offset="0.2632" style="stop-color:#110500"/>
						<stop  offset="0.4013" style="stop-color:#260B00"/>
						<stop  offset="0.5415" style="stop-color:#431300"/>
						<stop  offset="0.6834" style="stop-color:#691D00"/>
						<stop  offset="0.8267" style="stop-color:#982A00"/>
						<stop  offset="0.9686" style="stop-color:#CE3900"/>
						<stop  offset="1" style="stop-color:#DB3D00"/>
					</radialGradient>
					<path opacity="0.18" fill="url(#SVGID_10_)" enable-background="new    " d="M68.751,50.449c0,0,0.856-2.913,8.826,7.901
						c8.197,11.129,13.605,17.997,13.605,17.997s-6.959-8.544-16.424-19.563C69.765,50.971,68.751,50.449,68.751,50.449z"/>
				</g>
				
					<radialGradient id="SVGID_11_" cx="-5446.312" cy="-6320.501" r="16.4938" gradientTransform="matrix(-0.9336 0.6505 -0.4691 -0.6732 -7903.3721 -580.1102)" gradientUnits="userSpaceOnUse">
					<stop  offset="0" style="stop-color:#000000"/>
					<stop  offset="0.1283" style="stop-color:#040100"/>
					<stop  offset="0.2632" style="stop-color:#110500"/>
					<stop  offset="0.4013" style="stop-color:#260B00"/>
					<stop  offset="0.5415" style="stop-color:#431300"/>
					<stop  offset="0.6834" style="stop-color:#691D00"/>
					<stop  offset="0.8267" style="stop-color:#982A00"/>
					<stop  offset="0.9686" style="stop-color:#CE3900"/>
					<stop  offset="1" style="stop-color:#DB3D00"/>
				</radialGradient>
				<path opacity="0.18" fill="url(#SVGID_11_)" enable-background="new    " d="M136.494,153.415c0,0,11.59-6.562,16.449-20.983
					c4.812-14.274,2.83-22.137,2.83-22.137s3.818,9.381-2.168,24.757C148.461,148.258,136.494,153.415,136.494,153.415z"/>
				
					<radialGradient id="SVGID_12_" cx="510.7949" cy="-6065.4844" r="16.4276" gradientTransform="matrix(0.7755 -0.8249 -0.7832 -0.6707 -5041.7744 -3483.8354)" gradientUnits="userSpaceOnUse">
					<stop  offset="0" style="stop-color:#000000"/>
					<stop  offset="0.1283" style="stop-color:#040100"/>
					<stop  offset="0.2632" style="stop-color:#110500"/>
					<stop  offset="0.4013" style="stop-color:#260B00"/>
					<stop  offset="0.5415" style="stop-color:#431300"/>
					<stop  offset="0.6834" style="stop-color:#691D00"/>
					<stop  offset="0.8267" style="stop-color:#982A00"/>
					<stop  offset="0.9686" style="stop-color:#CE3900"/>
					<stop  offset="1" style="stop-color:#DB3D00"/>
				</radialGradient>
				<path opacity="0.18" fill="url(#SVGID_12_)" enable-background="new    " d="M130.34,158.361c0,0-7.363,7.146-27.386,9.899
					c-16.791,2.312-23.627-0.76-23.627-0.76s8.545,4.849,26.556,1.344C123.465,165.428,130.34,158.361,130.34,158.361z"/>
				
					<radialGradient id="SVGID_13_" cx="-6100.8145" cy="-4518.5771" r="17.3653" gradientTransform="matrix(-1.0425 0.4418 -0.3578 -0.967 -7825.5083 -1543.38)" gradientUnits="userSpaceOnUse">
					<stop  offset="0" style="stop-color:#000000"/>
					<stop  offset="0.1283" style="stop-color:#040100"/>
					<stop  offset="0.2632" style="stop-color:#110500"/>
					<stop  offset="0.4013" style="stop-color:#260B00"/>
					<stop  offset="0.5415" style="stop-color:#431300"/>
					<stop  offset="0.6834" style="stop-color:#691D00"/>
					<stop  offset="0.8267" style="stop-color:#982A00"/>
					<stop  offset="0.9686" style="stop-color:#CE3900"/>
					<stop  offset="1" style="stop-color:#DB3D00"/>
				</radialGradient>
				<path opacity="0.18" fill="url(#SVGID_13_)" enable-background="new    " d="M137.008,154.139c0,0,11.661-6.533,21.186-24.363
					c7.981-14.947,7.475-22.428,7.475-22.428s1.812,9.834-7.941,25.379C147.878,148.416,137.008,154.139,137.008,154.139z"/>
				
					<radialGradient id="SVGID_14_" cx="-8127.6377" cy="-6102.019" r="14.8513" gradientTransform="matrix(-0.5219 0.3636 -0.4919 -0.7061 -7107.8926 -1213.6211)" gradientUnits="userSpaceOnUse">
					<stop  offset="0" style="stop-color:#000000"/>
					<stop  offset="0.1283" style="stop-color:#040100"/>
					<stop  offset="0.2632" style="stop-color:#110500"/>
					<stop  offset="0.4013" style="stop-color:#260B00"/>
					<stop  offset="0.5415" style="stop-color:#431300"/>
					<stop  offset="0.6834" style="stop-color:#691D00"/>
					<stop  offset="0.8267" style="stop-color:#982A00"/>
					<stop  offset="0.9686" style="stop-color:#CE3900"/>
					<stop  offset="1" style="stop-color:#DB3D00"/>
				</radialGradient>
				<path opacity="0.18" fill="url(#SVGID_14_)" enable-background="new    " d="M134.916,155.314c0,0,3.745-0.727,3.93-12.424
					c0.178-11.582-3.053-19.023-3.053-19.023s4.9,9.218,4.126,21.504C139.257,155.93,134.916,155.314,134.916,155.314z"/>
				
					<radialGradient id="SVGID_15_" cx="2691.584" cy="-7973.8604" r="15.2138" gradientTransform="matrix(0.6079 -0.4681 -0.3989 -0.4904 -4705.2866 -2491.0815)" gradientUnits="userSpaceOnUse">
					<stop  offset="0" style="stop-color:#000000"/>
					<stop  offset="0.1283" style="stop-color:#040100"/>
					<stop  offset="0.2632" style="stop-color:#110500"/>
					<stop  offset="0.4013" style="stop-color:#260B00"/>
					<stop  offset="0.5415" style="stop-color:#431300"/>
					<stop  offset="0.6834" style="stop-color:#691D00"/>
					<stop  offset="0.8267" style="stop-color:#982A00"/>
					<stop  offset="0.9686" style="stop-color:#CE3900"/>
					<stop  offset="1" style="stop-color:#DB3D00"/>
				</radialGradient>
				<path opacity="0.18" fill="url(#SVGID_15_)" enable-background="new    " d="M126.871,159.618c0,0-3.493,3.45-14.43,3.071
					c-10.824-0.377-16.042-3.729-16.042-3.729s5.996,4.987,17.783,4.847C124.311,163.684,126.871,159.618,126.871,159.618z"/>
				
					<radialGradient id="SVGID_16_" cx="-111.8926" cy="-12764.6182" r="13.2354" gradientTransform="matrix(-0.3153 0.8766 -0.5379 0.0653 -6777.7881 1087.1403)" gradientUnits="userSpaceOnUse">
					<stop  offset="0" style="stop-color:#000000"/>
					<stop  offset="0.1283" style="stop-color:#040100"/>
					<stop  offset="0.2632" style="stop-color:#110500"/>
					<stop  offset="0.4013" style="stop-color:#260B00"/>
					<stop  offset="0.5415" style="stop-color:#431300"/>
					<stop  offset="0.6834" style="stop-color:#691D00"/>
					<stop  offset="0.8267" style="stop-color:#982A00"/>
					<stop  offset="0.9686" style="stop-color:#CE3900"/>
					<stop  offset="1" style="stop-color:#DB3D00"/>
				</radialGradient>
				<path opacity="0.18" fill="url(#SVGID_16_)" enable-background="new    " d="M132.257,157.521c0,0-2.858,2.033-10.319-0.768
					c-5.386-2.02-6.892-3.623-6.892-3.623s6.295,3.117,12.543,4.35C130.885,158.131,132.257,157.521,132.257,157.521z"/>
				
					<linearGradient id="SVGID_17_" gradientUnits="userSpaceOnUse" x1="773.8516" y1="1946.2959" x2="780.4452" y2="1891.6237" gradientTransform="matrix(0.8205 -0.5717 0.5717 0.8205 -1674.9323 -1033.8573)">
					<stop  offset="0.1902" style="stop-color:#FFAE58;stop-opacity:0"/>
					<stop  offset="1" style="stop-color:#FFC777"/>
				</linearGradient>
				<path opacity="0.43" fill="url(#SVGID_17_)" enable-background="new    " d="M58.905,67.96c0,0,0.22-4.705-2.936-4.213
					c-3.154,0.489-7.607,13.326-7.384,29.956c0.227,16.627,10.854,33.974,19.264,25.555c8.406-8.421,4.09-12.521-1.853-28.58
					C60.051,74.62,58.905,67.96,58.905,67.96z"/>
				
					<linearGradient id="SVGID_18_" gradientUnits="userSpaceOnUse" x1="764.4502" y1="1933.3594" x2="770.298" y2="1884.8699" gradientTransform="matrix(0.8205 -0.5717 0.5717 0.8205 -1674.9323 -1033.8573)">
					<stop  offset="0.1902" style="stop-color:#FFAE58;stop-opacity:0"/>
					<stop  offset="1" style="stop-color:#FFC777"/>
				</linearGradient>
				<path opacity="0.43" fill="url(#SVGID_18_)" enable-background="new    " d="M49.286,66.696c0,0,4.229-5.222,3.881-6.972
					c-0.348-1.751-9.561,8.434-14.518,20.135c-4.953,11.702-8.641,39.021-2.031,41.813c6.605,2.792,10.84-10.807,8.887-26.96
					C43.788,80.547,46.253,72.793,49.286,66.696z"/>
				
					<linearGradient id="SVGID_19_" gradientUnits="userSpaceOnUse" x1="799.5244" y1="1942.9873" x2="805.6018" y2="1892.5956" gradientTransform="matrix(0.8205 -0.5717 0.5717 0.8205 -1674.9323 -1033.8573)">
					<stop  offset="0.1902" style="stop-color:#FFAE58;stop-opacity:0"/>
					<stop  offset="1" style="stop-color:#FFC777"/>
				</linearGradient>
				<path opacity="0.43" fill="url(#SVGID_19_)" enable-background="new    " d="M65.531,59.077c2.421-6.912,6.08-4.235,9.737-0.242
					c3.655,3.997,20.104,21.331,19.478,24.611c-0.626,3.28-9.77,29.963-16.862,18.861C71.472,92.268,61.049,71.872,65.531,59.077z"
					/>
				
					<linearGradient id="SVGID_20_" gradientUnits="userSpaceOnUse" x1="823.1367" y1="1937.0742" x2="828.6127" y2="1891.6688" gradientTransform="matrix(0.8205 -0.5717 0.5717 0.8205 -1674.9323 -1033.8573)">
					<stop  offset="0.1902" style="stop-color:#FFAE58;stop-opacity:0"/>
					<stop  offset="1" style="stop-color:#FFC777"/>
				</linearGradient>
				<path opacity="0.43" fill="url(#SVGID_20_)" enable-background="new    " d="M77.241,56.514c0,0-4.033-4.397-4.398-6.036
					c-0.542-2.411,4.907-4.939,11.547-3.496c6.637,1.444,21.062,6.815,27.189,14.498c6.126,7.679,7.19,14.117-1.92,19.543
					c-5.626,3.353-12.504-0.39-17.352-7.064C87.464,67.278,80.56,59.321,77.241,56.514z"/>
				
					<linearGradient id="SVGID_21_" gradientUnits="userSpaceOnUse" x1="836.9678" y1="1924.4326" x2="841.1814" y2="1889.4954" gradientTransform="matrix(0.8205 -0.5717 0.5717 0.8205 -1674.9323 -1033.8573)">
					<stop  offset="0.1902" style="stop-color:#FFAE58;stop-opacity:0"/>
					<stop  offset="1" style="stop-color:#FFC777"/>
				</linearGradient>
				<path opacity="0.43" fill="url(#SVGID_21_)" enable-background="new    " d="M84.852,40.399c0,0-8.884,2.019-7.167,3.095
					c1.725,1.077,10.909-1.907,21.62,3.716c10.714,5.622,24.218,15.808,24.861,9.481c0.641-6.327,0.922-13.729-9.107-16.416
					C105.029,37.59,88.925,39.835,84.852,40.399z"/>
				
					<linearGradient id="SVGID_22_" gradientUnits="userSpaceOnUse" x1="999.0127" y1="-6707.5879" x2="1005.3793" y2="-6760.3789" gradientTransform="matrix(0.8587 -0.4221 -0.3424 -0.5123 -3067.0696 -2872.7625)">
					<stop  offset="0.1902" style="stop-color:#FFAE58;stop-opacity:0"/>
					<stop  offset="1" style="stop-color:#FFC777"/>
				</linearGradient>
				<path opacity="0.27" fill="url(#SVGID_22_)" enable-background="new    " d="M119.812,159.277c0,0,3.734,0.695,1.758,2.634
					c-1.979,1.938-9.338,5.504-22.036,2.407c-12.695-3.101-24.806-15.004-14.055-18.902c10.756-3.898,11.724-0.4,21.083,6.264
					C115.92,158.343,119.812,159.277,119.812,159.277z"/>
				
					<linearGradient id="SVGID_23_" gradientUnits="userSpaceOnUse" x1="755.3926" y1="-7744.7734" x2="759.9367" y2="-7782.4521" gradientTransform="matrix(0.8205 -0.5717 -0.3341 -0.4796 -3132.3372 -3126.0508)">
					<stop  offset="0.1902" style="stop-color:#FFAE58;stop-opacity:0"/>
					<stop  offset="1" style="stop-color:#FFC777"/>
				</linearGradient>
				<path opacity="0.27" fill="url(#SVGID_23_)" enable-background="new    " d="M89.691,165.51
					c6.063,1.182,10.896,0.59,10.896,0.59c-11.087,2.904-20.122,4.985-32.056-1.271C63.948,162.421,79.663,163.562,89.691,165.51z"
					/>
				
					<linearGradient id="SVGID_24_" gradientUnits="userSpaceOnUse" x1="799.8594" y1="-7748.5981" x2="805.8047" y2="-7797.896" gradientTransform="matrix(0.8205 -0.5717 -0.3341 -0.4796 -3132.3372 -3126.0508)">
					<stop  offset="0.1902" style="stop-color:#FFAE58;stop-opacity:0"/>
					<stop  offset="1" style="stop-color:#FFC777"/>
				</linearGradient>
				<path opacity="0.27" fill="url(#SVGID_24_)" enable-background="new    " d="M131.57,156.368
					c4.807-1.069,5.133-5.177,4.555-10.185c-0.354-3.055-4.954-14.642-7.646-14.324c-2.692,0.312-26.588,5.826-22.025,11.447
					C110.575,148.391,124.258,157.994,131.57,156.368z"/>
				
					<linearGradient id="SVGID_25_" gradientUnits="userSpaceOnUse" x1="825.083" y1="-7749.6309" x2="830.3306" y2="-7793.1426" gradientTransform="matrix(0.8205 -0.5717 -0.3341 -0.4796 -3132.3372 -3126.0508)">
					<stop  offset="0.1902" style="stop-color:#FFAE58;stop-opacity:0"/>
					<stop  offset="1" style="stop-color:#FFC777"/>
				</linearGradient>
				<path opacity="0.27" fill="url(#SVGID_25_)" enable-background="new    " d="M139.357,142.738c0,0,1.322,3.292,2.365,3.675
					c1.53,0.562,6.039-3.319,8.164-8.349c2.127-5.031,5.731-15.19,2.979-20.254c-2.754-5.067-7.022-6.285-15.45,0.125
					c-5.203,3.955-5.738,9.316-3.114,13.361C136.926,135.348,138.871,140.086,139.357,142.738z"/>
				
					<linearGradient id="SVGID_26_" gradientUnits="userSpaceOnUse" x1="878.0986" y1="-7822.3896" x2="882.0815" y2="-7855.415" gradientTransform="matrix(0.6459 -0.6352 -0.4059 -0.5056 -3592.1748 -3291.9548)">
					<stop  offset="0.1902" style="stop-color:#FFAE58;stop-opacity:0"/>
					<stop  offset="1" style="stop-color:#FFC777"/>
				</linearGradient>
				<path opacity="0.27" fill="url(#SVGID_26_)" enable-background="new    " d="M159.562,127.684c0,0-4.078,7.065-4.321,5.621
					c-0.245-1.447,4.604-8.705,3.853-17.654c-0.758-8.946-3.109-19.422,1.537-19.604c4.65-0.183,9.942-0.018,8.835,8.222
					C168.357,112.506,161.18,124.423,159.562,127.684z"/>
				<path opacity="0.2" fill="none" stroke="#BF3913" stroke-width="5" stroke-miterlimit="10" enable-background="new    " d="
					M63.442,53.988c0,0-8.452,30.712,26.33,73.323c22.408,27.451,32.925,30.308,37.816,30.17"/>
				<path opacity="0.2" fill="none" stroke="#BF3913" stroke-width="5" stroke-miterlimit="10" enable-background="new    " d="
					M68.934,50.162c0,0,19.265,11.401,49.314,57.308c18.784,28.688,22.456,38.574,22.898,41.962"/>
				<path opacity="0.2" fill="none" stroke="#BF3913" stroke-width="5" stroke-miterlimit="10" enable-background="new    " d="
					M74.815,46.064c0,0,28.88-10.389,69.147,44.06c16.075,21.737,15.646,36.579,11.819,45.646"/>
				<path opacity="0.2" fill="none" stroke="#BF3913" stroke-width="5" stroke-miterlimit="10" enable-background="new    " d="
					M73.021,43.492c0,0,45.943-22.613,85.552,28.523c15.813,20.414,11.202,45.062,2.411,57.299"/>
				<path opacity="0.2" fill="none" stroke="#BF3913" stroke-width="5" stroke-miterlimit="10" enable-background="new    " d="
					M50.282,60.61c0,0-38.084,35.929-3.892,90.841c13.647,21.927,46.964,20.146,61.758,15.951"/>
				<path opacity="0.2" fill="none" stroke="#BF3913" stroke-width="5" stroke-miterlimit="10" enable-background="new    " d="
					M57.756,57.95c0,0-28.618,31.666,8.878,85.481c15.562,22.338,29.145,23.555,40.617,22.049"/>
				
					<radialGradient id="SVGID_27_" cx="1986.0576" cy="1365.5898" r="25.7628" gradientTransform="matrix(0.972 0.5486 -0.6431 1.0925 -1000.9639 -2533.875)" gradientUnits="userSpaceOnUse">
					<stop  offset="0" style="stop-color:#DB3D00"/>
					<stop  offset="0.0314" style="stop-color:#CE3900"/>
					<stop  offset="0.1733" style="stop-color:#982A00"/>
					<stop  offset="0.3166" style="stop-color:#691D00"/>
					<stop  offset="0.4585" style="stop-color:#431300"/>
					<stop  offset="0.5987" style="stop-color:#260B00"/>
					<stop  offset="0.7368" style="stop-color:#110500"/>
					<stop  offset="0.8717" style="stop-color:#040100"/>
					<stop  offset="1" style="stop-color:#000000"/>
				</radialGradient>
				<path fill="url(#SVGID_27_)" d="M57.009,51.968c1.206,1.833-0.784,4.239,0.747,5.982c0,0,6.111,5.86,15.266-1.339
					c5.389-4.238-1.16-6.058,1.785-8.835c2.274-2.145-5.687-1.843-7.093-2.894c-2.526-1.885-2.115-18.463-2.115-18.463
					s-5.346-3.105-12.438,2.665C49.886,31.753,52.882,45.704,57.009,51.968z"/>
				
					<radialGradient id="SVGID_28_" cx="1420.4453" cy="1826.6289" r="22.0608" gradientTransform="matrix(0.9336 -0.6505 0.6231 0.8943 -2394.4409 -677.1475)" gradientUnits="userSpaceOnUse">
					<stop  offset="0.2331" style="stop-color:#FFFF00"/>
					<stop  offset="1" style="stop-color:#6F0000;stop-opacity:0"/>
				</radialGradient>
				<path fill="url(#SVGID_28_)" d="M57.9,51.968c1.206,1.833-1.676,4.239-0.145,5.982c0,0,5.631,5.462,14.785-1.737
					c5.389-4.238-0.893-4.804,2.301-9.653c0.879-1.335-5.722-0.626-7.128-1.677c-2.526-1.885-2.115-18.463-2.115-18.463
					s-5.346-3.105-12.438,2.665C49.886,31.753,53.773,45.704,57.9,51.968z"/>
			</g>
		</g>
	</g>
</g>
<g id="outline_x5F_white">
	<g>
		<g>
			<path fill="#FFFFFF" d="M61.791,25.585c2.371,0,3.808,0.834,3.808,0.834s-1.354,11.911,0.208,15.786
				c0.295,0.731,0.984,2.626,1.907,2.677c5.308-3.481,8.839-7.816,13.579-10.558c8.537-4.937,17.676-7.364,26.95-7.364
				c21.104,0,42.894,12.579,59.759,36.792c9.905,14.22,10.88,30.442,2.396,45.532c0,0-7.453,24.958-18.185,30.028
				c0,0-3.038,6.506-15.548,15.728c-12.145,8.946-21.979,11.03-21.979,11.03c-8.832,6.154-19.662,6.89-24.335,6.89
				c-1.47,0-2.332-0.071-2.332-0.071c-2.992,0.633-6.059,0.95-9.146,0.95c-14.122,0-28.644-6.657-38.15-20.228
				c-29.199-41.674-17.56-85.36,16.773-101.364c-0.043-0.196-0.107-0.387-0.222-0.559c-4.127-6.264-7.39-19.936-4.114-22.604
				C56.577,26.306,59.587,25.585,61.791,25.585 M61.791,13.585L61.791,13.585c-3.921,0-9.914,1.074-16.204,6.191
				c-7.677,6.253-6.403,18.132-3.389,27.399C28.6,56.44,18.969,69.966,14.621,86.196c-6.382,23.826-0.602,50.213,16.275,74.302
				c11.118,15.868,29.054,25.342,47.979,25.342c3.372,0,6.739-0.302,10.032-0.896c0.422,0.013,0.905,0.02,1.445,0.02
				c6.428,0,18.476-1.049,29.31-7.8c4.316-1.279,13.54-4.661,24.123-12.46c9.475-6.982,14.531-12.876,17.111-16.607
				c5.668-3.953,10.705-10.75,15.31-20.625c2.673-5.732,4.508-11.066,5.28-13.449c9.988-18.68,8.688-39.43-3.639-57.125
				c-18.562-26.649-43.935-41.933-69.604-41.933c-10.9,0-21.375,2.681-31.164,7.973c-0.866-2.85-2.779-5.337-5.453-6.891
				C70.354,15.304,66.849,13.585,61.791,13.585L61.791,13.585z"/>
		</g>
	</g>
</g>
<g id="outline_x5F_black">
	<g>
		<path d="M61.791,25.585c2.371,0,3.808,0.834,3.808,0.834s-1.354,11.911,0.208,15.786c0.295,0.731,0.984,2.626,1.907,2.677
			c5.308-3.481,8.839-7.816,13.579-10.558c8.537-4.937,17.676-7.364,26.95-7.364c21.104,0,42.894,12.579,59.759,36.792
			c9.905,14.22,10.88,30.442,2.396,45.532c0,0-7.453,24.958-18.185,30.028c0,0-3.038,6.506-15.548,15.728
			c-12.145,8.946-21.979,11.03-21.979,11.03c-8.832,6.154-19.662,6.891-24.335,6.891c-1.47,0-2.332-0.072-2.332-0.072
			c-2.992,0.633-6.059,0.95-9.146,0.95c-14.122,0-28.644-6.657-38.15-20.228c-29.199-41.674-17.56-85.36,16.773-101.364
			c-0.043-0.196-0.107-0.387-0.222-0.559c-4.127-6.264-7.39-19.936-4.114-22.604C56.577,26.306,59.587,25.585,61.791,25.585
			 M61.791,19.585L61.791,19.585c-2.948,0-7.495,0.841-12.417,4.846c-6.088,4.959-3.248,17.284,0.137,25.226
			c-14.488,8.438-24.722,21.769-29.094,38.092c-5.915,22.082-0.448,46.694,15.394,69.308c9.996,14.268,26.095,22.783,43.064,22.783
			c3.225,0,6.443-0.309,9.579-0.917c0.477,0.021,1.12,0.039,1.898,0.039c5.909,0,17.091-0.972,26.828-7.334
			c3.252-0.897,12.404-3.916,23.047-11.757c9.844-7.256,14.438-13.167,16.324-16.098c5.127-3.16,9.792-9.354,14.217-18.84
			c2.78-5.967,4.594-11.437,5.178-13.281c4.556-8.32,6.621-16.993,6.143-25.786c-0.484-8.921-3.568-17.514-9.162-25.543
			c-17.425-25.015-41-39.362-64.682-39.362c-10.501,0-20.579,2.749-29.954,8.17c-2.734,1.582-5.028,3.512-7.224,5.418
			c0.046-2.294,0.213-4.975,0.495-7.452l0.442-3.896l-3.391-1.97C67.947,20.846,65.491,19.585,61.791,19.585L61.791,19.585z"/>
	</g>
</g>
</svg>
