<?xml version="1.0" encoding="utf-8"?>
<!-- Generator: Adobe Illustrator 15.0.0, SVG Export Plug-In . SVG Version: 6.00 Build 0)  -->
<!DOCTYPE svg PUBLIC "-//W3C//DTD SVG 1.1//EN" "http://www.w3.org/Graphics/SVG/1.1/DTD/svg11.dtd">
<svg version="1.1" xmlns="http://www.w3.org/2000/svg" xmlns:xlink="http://www.w3.org/1999/xlink" x="0px" y="0px" width="200px"
	 height="200px" viewBox="0 0 200 200" enable-background="new 0 0 200 200" xml:space="preserve">
<g id="icon">
	<g id="Layer_2">
	</g>
	<g id="Layer_1_1_">
		<g>
			<path fill="#F2ECE0" d="M68.773,114.534c0,0,6.741-0.945,8.052,3.323c1.311,4.271,0.213,3.582,2.73,5.473
				c2.521,1.89-3.174,6.876-4.761,6.679c-1.588-0.198-7.376,4.231-13.679,11.554c-7.231,8.396-5.653,4.727-6.183,12.742
				c-0.528,8.012-6.965,11.424-11.227,10.271c-8.424-2.273-8.775-9.364-7.853-13.668c0,0-6.307,1.378-11.231-3.094
				c-4.926-4.471-5.589-13.815,3.621-15.6c9.21-1.779,13.561,6.117,16.452,3.361C47.589,132.818,68.773,114.534,68.773,114.534z"/>
			
				<radialGradient id="SVGID_1_" cx="3454.8584" cy="-601.1826" r="9.572" gradientTransform="matrix(-0.956 -0.2933 0.2933 -0.956 3524.7493 589.6824)" gradientUnits="userSpaceOnUse">
				<stop  offset="0" style="stop-color:#DCBB81;stop-opacity:0"/>
				<stop  offset="0.2201" style="stop-color:#D8B57F;stop-opacity:0.1122"/>
				<stop  offset="0.5076" style="stop-color:#CEA579;stop-opacity:0.2589"/>
				<stop  offset="0.8311" style="stop-color:#BC8A6E;stop-opacity:0.4239"/>
				<stop  offset="1" style="stop-color:#B17968;stop-opacity:0.51"/>
			</radialGradient>
			<path fill="url(#SVGID_1_)" d="M34.906,150.525c-1.759,5.734,1.461,11.81,7.197,13.57c5.733,1.76,11.809-1.465,13.567-7.199
				c0.737-2.401,0.601-4.863-0.231-7.043c0,0-4.178-0.103-9.778-1.819c-2.37-0.729-5.655-3.398-5.655-3.398
				C36.941,145.771,35.938,147.163,34.906,150.525z"/>
			
				<radialGradient id="SVGID_2_" cx="3197.7754" cy="-591.0483" r="8.7744" gradientTransform="matrix(-1.1548 -0.3543 0.2933 -0.956 3896.7368 704.0123)" gradientUnits="userSpaceOnUse">
				<stop  offset="0" style="stop-color:#DCBB81;stop-opacity:0"/>
				<stop  offset="0.2201" style="stop-color:#D8B57F;stop-opacity:0.1122"/>
				<stop  offset="0.5076" style="stop-color:#CEA579;stop-opacity:0.2589"/>
				<stop  offset="0.8311" style="stop-color:#BC8A6E;stop-opacity:0.4239"/>
				<stop  offset="1" style="stop-color:#B17968;stop-opacity:0.51"/>
			</radialGradient>
			<path fill="url(#SVGID_2_)" d="M21.306,138.064c-1.514,4.935,2.089,10.416,8.05,12.242c1.935,0.594,3.875,0.729,5.671,0.475
				c0,0,0.187-2.59,2.215-5.493c0.449-0.646-1.164-1.669-2.208-6.81c-0.65-3.213,4.069-3.705,3.576-4.203
				c-0.926-0.931-2.374-1.407-3.772-1.834C28.877,130.611,22.82,133.13,21.306,138.064z"/>
			
				<radialGradient id="SVGID_3_" cx="3453.6885" cy="-579.4214" r="21.4669" gradientTransform="matrix(-0.956 -0.2933 0.2933 -0.956 3524.7493 589.6824)" gradientUnits="userSpaceOnUse">
				<stop  offset="0" style="stop-color:#DCBB81;stop-opacity:0"/>
				<stop  offset="0.2201" style="stop-color:#D8B57F;stop-opacity:0.1122"/>
				<stop  offset="0.5076" style="stop-color:#CEA579;stop-opacity:0.2589"/>
				<stop  offset="0.8311" style="stop-color:#BC8A6E;stop-opacity:0.4239"/>
				<stop  offset="1" style="stop-color:#B17968;stop-opacity:0.51"/>
			</radialGradient>
			<path fill="url(#SVGID_3_)" d="M78.902,117.335c0,0,0.779,3.506,3.198,6.799c2.418,3.292-0.611,7.513-4.775,6.959
				c-4.167-0.552-1.818-2.85-10.054,4.027c-8.237,6.877-11.162,13.555-11.162,13.555s-4.113,1.818-8.109,0.353
				c-3.077-1.127-8.615-3.992-10.073-3.371c-1.778,0.758-3.691-5.229-3.47-7.709c0.717-8.016,7.203-2.195,7.203-2.195
				s4.126,0.219,11.054-7.283c6.927-7.502,11.745-9.158,12.332-11.74C65.632,114.145,70.982,107.79,78.902,117.335z"/>
			
				<radialGradient id="SVGID_4_" cx="2348.5898" cy="-1386.3813" r="57.9623" fx="2352.634" fy="-1368.4432" gradientTransform="matrix(-0.2119 0.9773 0.9773 0.2119 1946.4116 -1905.9346)" gradientUnits="userSpaceOnUse">
				<stop  offset="0.1963" style="stop-color:#D98642"/>
				<stop  offset="0.3218" style="stop-color:#D48241"/>
				<stop  offset="0.4698" style="stop-color:#C6763F"/>
				<stop  offset="0.6291" style="stop-color:#AE623B"/>
				<stop  offset="0.7954" style="stop-color:#8D4636"/>
				<stop  offset="0.8182" style="stop-color:#884235"/>
				<stop  offset="1" style="stop-color:#683821"/>
			</radialGradient>
			<path fill="url(#SVGID_4_)" d="M157.078,71.452c-15.744-25.3-34.135-41.686-52.227-29.518
				C88.892,52.665,76.39,65.55,69.221,85.229C63.685,100.425,60,115.45,51.564,120.533c-5.756,3.469-1.232,26.393,12.413,25.25
				c4.312-0.359,11.847-5.441,29.706,0.777c20.867,7.267,50.479,3.354,61.428-1.925C177.883,133.66,173.572,97.96,157.078,71.452z"
				/>
			
				<linearGradient id="SVGID_5_" gradientUnits="userSpaceOnUse" x1="126.3906" y1="-3.1719" x2="148.0559" y2="-33.1217" gradientTransform="matrix(1 0 0 -1 -50 61)">
				<stop  offset="0" style="stop-color:#FFEDD4"/>
				<stop  offset="1" style="stop-color:#DCBB81;stop-opacity:0"/>
			</linearGradient>
			<path opacity="0.5" fill="url(#SVGID_5_)" enable-background="new    " d="M153.677,73.562
				c-14.454-23.228-55.655,40.192-59.867,20.624c-6.396-29.719,1.933-40.225,1.933-40.225c-9.898,8.395-17.726,18.521-22.726,32.248
				c-5.083,13.951-8.466,27.744-16.211,32.412c-5.284,3.184-1.132,24.23,11.396,23.182c3.96-0.33,10.877-4.996,27.273,0.713
				c19.158,6.672,46.343,3.08,56.396-1.766C172.777,130.675,168.82,97.897,153.677,73.562z"/>
			
				<radialGradient id="SVGID_6_" cx="195.4209" cy="15.7363" r="82.6096" gradientTransform="matrix(1 0 0 -1 -50 61)" gradientUnits="userSpaceOnUse">
				<stop  offset="0" style="stop-color:#FFCBAA"/>
				<stop  offset="0.2789" style="stop-color:#FDC6A5"/>
				<stop  offset="0.6076" style="stop-color:#F5B897"/>
				<stop  offset="0.9603" style="stop-color:#EAA07F"/>
				<stop  offset="1" style="stop-color:#E89D7C"/>
			</radialGradient>
			<path fill="url(#SVGID_6_)" d="M172.273,74.054c13.105,29.129,7.771,59.922-11.916,68.777s-46.268-7.582-59.369-36.71
				c-13.104-29.128-7.768-59.923,11.916-68.776C132.592,28.489,159.174,44.925,172.273,74.054z"/>
			
				<radialGradient id="SVGID_7_" cx="40.1509" cy="2.5874" r="40.6316" gradientTransform="matrix(0.9002 -0.4355 -0.5841 -1.2074 104.7108 109.4766)" gradientUnits="userSpaceOnUse">
				<stop  offset="0" style="stop-color:#D43D62"/>
				<stop  offset="0.3661" style="stop-color:#D33D60"/>
				<stop  offset="0.5487" style="stop-color:#CE3E58"/>
				<stop  offset="0.6908" style="stop-color:#C63F4B"/>
				<stop  offset="0.8119" style="stop-color:#BA4138"/>
				<stop  offset="0.9185" style="stop-color:#AC4320"/>
				<stop  offset="1" style="stop-color:#9D4508"/>
			</radialGradient>
			<path fill="url(#SVGID_7_)" d="M168.684,75.669c10.785,23.977,6.395,49.324-9.811,56.613
				c-16.205,7.288-38.085-6.238-48.871-30.218c-10.786-23.977-6.393-49.323,9.811-56.611
				C136.018,38.163,157.896,51.692,168.684,75.669z"/>
			
				<radialGradient id="SVGID_8_" cx="33.3906" cy="16.7598" r="10.4027" gradientTransform="matrix(0.8894 -0.4571 -0.6476 -1.2603 122.3151 124.3449)" gradientUnits="userSpaceOnUse">
				<stop  offset="0" style="stop-color:#F2ECE0"/>
				<stop  offset="0.2386" style="stop-color:#F0E9DD"/>
				<stop  offset="0.4382" style="stop-color:#EBDED3"/>
				<stop  offset="0.6238" style="stop-color:#E2CDC3"/>
				<stop  offset="0.8008" style="stop-color:#D5B5AC"/>
				<stop  offset="0.9704" style="stop-color:#C5958E"/>
				<stop  offset="1" style="stop-color:#C28F88"/>
			</radialGradient>
			<path fill="url(#SVGID_8_)" d="M149.407,83.679c3.499,6.74,2.642,14.121-1.913,16.485c-4.557,2.363-11.086-1.184-14.583-7.924
				c-3.499-6.741-2.642-14.122,1.913-16.486C139.379,73.391,145.908,76.938,149.407,83.679z"/>
		</g>
	</g>
</g>
<g id="outline_x5F_white">
	<g>
		<g>
			<path fill="#FFFFFF" d="M124.311,34.947c17.58,0,37.268,15.322,47.965,39.107c13.104,29.129,7.77,59.922-11.916,68.777
				c-1.613,0.724-3.274,1.262-4.969,1.655c-0.098,0.048-0.184,0.103-0.279,0.148c-6.65,3.205-20.182,5.907-34.461,5.907
				c-9.229,0-18.773-1.13-26.967-3.983c-6.691-2.33-11.933-3.072-16.1-3.072c-6.952,0-10.91,2.07-13.606,2.296
				c-0.331,0.028-0.656,0.042-0.976,0.042c-1.687,0-3.221-0.381-4.606-1.041c-1.604,2.351-2.285,3.892-2.285,3.892
				s-0.338,0.147-0.899,0.324c-0.044,0.246-0.071,0.521-0.09,0.842c0.203,0.011,0.319,0.015,0.319,0.015
				c0.832,2.179,0.969,4.641,0.231,7.043c-1.017,3.317-3.484,5.787-6.491,6.944c-1.245,0.632-2.557,0.948-3.788,0.948
				c-0.585,0-1.152-0.07-1.685-0.215c-0.375-0.102-0.715-0.223-1.059-0.344c-0.182-0.045-0.363-0.082-0.545-0.137
				c-5.561-1.707-8.743-7.467-7.331-13.041c-0.347,0.03-0.767,0.055-1.243,0.055c-2.283,0-5.859-0.528-8.906-3.295
				c-0.473-0.428-0.906-0.903-1.295-1.412c-2.042-2.413-2.904-5.467-2.022-8.338c0.001-0.008,0.004-0.012,0.005-0.018
				c0.558-2.264,2.142-4.246,5.043-5.307c1.379-0.582,2.938-0.896,4.57-0.896c1.276,0,2.597,0.191,3.914,0.596
				c1.11,0.34,2.237,0.72,3.124,1.324c1.836,0.316,3.691,1.979,3.698,1.983c0.001,0.002,0.006,0.002,0.006,0.002s0.009,0,0.027,0
				c0.24,0,2.062-0.07,5.132-2.103c0.768-0.687,1.681-1.494,2.699-2.387c-0.916-4.834-0.264-9.342,2.04-10.729
				c8.437-5.083,12.121-20.107,17.657-35.304c7.169-19.679,19.671-32.563,35.63-43.294c1.215-0.818,2.43-1.495,3.646-2.061
				c1.38-0.969,2.842-1.826,4.406-2.529C116.518,35.72,120.359,34.947,124.311,34.947 M124.311,22.947
				c-5.738,0-11.231,1.162-16.328,3.454c-1.863,0.838-3.715,1.864-5.508,3.057c-1.492,0.745-2.944,1.592-4.331,2.527
				c-20.143,13.543-32.92,29.159-40.198,49.137c-1.035,2.843-1.996,5.642-2.925,8.349c-2.731,7.964-6.473,18.87-9.65,20.784
				c-3.757,2.265-6.308,5.95-7.495,10.572c-2.267-0.649-4.608-0.979-6.952-0.979c-3.136,0-6.15,0.58-8.966,1.728
				c-6.167,2.348-10.594,7.159-12.213,13.271c-1.878,6.486-0.306,13.576,4.234,19.084c0.792,1.008,1.663,1.942,2.593,2.784
				c2.092,1.899,4.5,3.407,7.116,4.479c2.308,6.668,7.664,12.154,14.895,14.375c0.253,0.076,0.482,0.141,0.678,0.19
				c0.363,0.122,0.808,0.265,1.311,0.4c1.561,0.421,3.179,0.632,4.821,0.632c2.927,0,5.904-0.68,8.647-1.969
				c6.335-2.622,11.094-7.846,13.105-14.41c0.314-1.023,0.555-2.069,0.721-3.123c0.883-0.196,1.727-0.428,2.556-0.654
				c2.159-0.591,4.199-1.148,7.162-1.148c3.479,0,7.568,0.811,12.153,2.406c8.736,3.043,19.427,4.65,30.914,4.65
				c14.709,0,29.811-2.625,38.865-6.721c2.006-0.543,3.937-1.228,5.754-2.043c13.09-5.887,22.258-18.894,25.168-35.687
				c2.654-15.325,0.092-32.715-7.22-48.964C170.795,41.507,147.121,22.947,124.311,22.947L124.311,22.947z"/>
		</g>
	</g>
</g>
<g id="outline_x5F_black">
	<g>
		<path d="M124.311,34.947c17.58,0,37.268,15.322,47.965,39.107c13.104,29.129,7.77,59.922-11.916,68.777
			c-1.613,0.724-3.274,1.262-4.969,1.655c-0.098,0.048-0.184,0.103-0.279,0.148c-6.65,3.205-20.182,5.907-34.461,5.907
			c-9.229,0-18.773-1.13-26.967-3.983c-6.691-2.33-11.933-3.072-16.1-3.072c-6.952,0-10.91,2.07-13.606,2.296
			c-0.331,0.028-0.656,0.042-0.976,0.042c-1.687,0-3.221-0.381-4.606-1.041c-1.604,2.351-2.285,3.892-2.285,3.892
			s-0.338,0.147-0.899,0.324c-0.044,0.246-0.071,0.521-0.09,0.842c0.203,0.011,0.319,0.015,0.319,0.015
			c0.832,2.179,0.969,4.641,0.231,7.043c-1.017,3.317-3.484,5.787-6.491,6.944c-1.245,0.632-2.557,0.948-3.788,0.948
			c-0.585,0-1.152-0.07-1.685-0.215c-0.375-0.102-0.715-0.223-1.059-0.344c-0.182-0.045-0.363-0.082-0.545-0.137
			c-5.561-1.707-8.743-7.467-7.331-13.041c-0.347,0.03-0.767,0.055-1.243,0.055c-2.284,0-5.859-0.527-8.907-3.295
			c-0.473-0.428-0.906-0.903-1.295-1.412c-2.042-2.413-2.904-5.467-2.022-8.338c0.001-0.008,0.004-0.012,0.005-0.018
			c0.558-2.264,2.142-4.246,5.043-5.307c1.379-0.582,2.938-0.896,4.57-0.896c1.276,0,2.598,0.191,3.914,0.596
			c1.11,0.34,2.237,0.72,3.124,1.324c1.836,0.316,3.691,1.979,3.698,1.983c0.001,0.002,0.006,0.002,0.006,0.002s0.009,0,0.027,0
			c0.24,0,2.062-0.07,5.132-2.103c0.768-0.687,1.681-1.494,2.699-2.387c-0.916-4.834-0.264-9.342,2.04-10.729
			C60,115.447,63.684,100.423,69.22,85.226c7.169-19.679,19.671-32.563,35.631-43.294c1.213-0.818,2.428-1.495,3.646-2.061
			c1.38-0.969,2.842-1.826,4.407-2.529C116.518,35.72,120.359,34.947,124.311,34.947 M124.311,28.947
			c-4.885,0-9.549,0.984-13.865,2.926c-1.676,0.752-3.342,1.689-4.959,2.789c-1.375,0.667-2.715,1.438-3.988,2.297
			c-19.305,12.979-31,27.234-37.915,46.216c-1.017,2.789-1.967,5.562-2.887,8.242c-3.693,10.767-7.183,20.937-12.229,23.976
			c-3.835,2.312-5.719,7.222-5.296,13.473c-0.188,0.117-0.364,0.221-0.526,0.311c-0.705-0.382-1.498-0.738-2.351-1.004
			c-1.221-0.662-2.491-1.098-3.706-1.468c-1.849-0.568-3.758-0.856-5.665-0.856c-2.379,0-4.655,0.44-6.767,1.311
			c-4.371,1.641-7.397,4.844-8.567,9.058l-0.128,0.337l-0.039,0.271c-1.192,4.515-0.004,9.454,3.23,13.346
			c0.594,0.763,1.248,1.468,1.944,2.099c2.269,2.06,5.041,3.51,8.071,4.26c1.028,6.104,5.391,11.379,11.675,13.308
			c0.207,0.063,0.412,0.118,0.616,0.168c0.333,0.115,0.726,0.246,1.18,0.368c1.045,0.281,2.138,0.424,3.253,0.424
			c2.093,0,4.238-0.503,6.222-1.459c4.737-1.917,8.299-5.794,9.795-10.677c0.682-2.222,0.889-4.565,0.629-6.858
			c0.319,0.018,0.641,0.027,0.964,0.027c0.489,0,0.988-0.021,1.482-0.062c1.465-0.123,2.868-0.507,4.354-0.914
			c2.333-0.638,4.977-1.36,8.746-1.36c4.152,0,8.905,0.922,14.127,2.739c8.109,2.824,18.117,4.316,28.94,4.316
			c13.965,0,28.709-2.562,36.828-6.39c1.873-0.478,3.664-1.099,5.336-1.849c11.399-5.129,19.108-16.221,21.711-31.235
			c2.453-14.158,0.045-30.309-6.779-45.479C166.273,46.085,144.8,28.947,124.311,28.947L124.311,28.947z"/>
	</g>
</g>
</svg>
