<?xml version="1.0" encoding="utf-8"?>
<!-- Generator: Adobe Illustrator 15.0.0, SVG Export Plug-In . SVG Version: 6.00 Build 0)  -->
<!DOCTYPE svg PUBLIC "-//W3C//DTD SVG 1.1//EN" "http://www.w3.org/Graphics/SVG/1.1/DTD/svg11.dtd">
<svg version="1.1" xmlns="http://www.w3.org/2000/svg" xmlns:xlink="http://www.w3.org/1999/xlink" x="0px" y="0px" width="200px"
	 height="200px" viewBox="0 0 200 200" enable-background="new 0 0 200 200" xml:space="preserve">
<g id="icon">
	<g id="Layer_2">
	</g>
	<g id="Layer_1_1_">
		<g>
			<polygon fill="#FFFFFF" points="123.623,133.855 124.956,166.227 157.956,184.736 148.289,141.475 			"/>
			<polygon fill="#FFFFFF" points="106.457,127.792 126.482,167.012 140.207,179.827 133.988,135.706 			"/>
			<g>
				<g>
					
						<radialGradient id="SVGID_1_" cx="3629.5361" cy="-3266.2031" r="36.4562" fx="3624.9817" fy="-3284.6226" gradientTransform="matrix(0.825 0.5651 0.6165 -0.9 -882.4049 -4899.7344)" gradientUnits="userSpaceOnUse">
						<stop  offset="0" style="stop-color:#FFFFCF"/>
						<stop  offset="0.638" style="stop-color:#F1DB9E"/>
						<stop  offset="0.7066" style="stop-color:#EED79C"/>
						<stop  offset="0.7736" style="stop-color:#E6CB95"/>
						<stop  offset="0.8401" style="stop-color:#D9B889"/>
						<stop  offset="0.9062" style="stop-color:#C79C79"/>
						<stop  offset="0.9714" style="stop-color:#AF7965"/>
						<stop  offset="1" style="stop-color:#A3675A"/>
					</radialGradient>
					<path fill="url(#SVGID_1_)" d="M87.51,51.644l1.633,4.473c0,0-0.836,8.263,5.254,19.455c2.693,4.951,8.279,16.541,28.46,44.062
						c25.425,34.673-12.95,9.482-12.95,9.482c-18.601-29.891-24.715-41.37-26.773-43.677c-9.447-10.582-21.457-6.805-21.457-6.805
						l-1.652-13.421l8.668-6.693L87.51,51.644z"/>
					
						<radialGradient id="SVGID_2_" cx="3691.0498" cy="-3289.1226" r="48.3457" fx="3685.01" fy="-3313.5493" gradientTransform="matrix(0.825 0.5651 0.6165 -0.9 -919.4293 -4889.4805)" gradientUnits="userSpaceOnUse">
						<stop  offset="0" style="stop-color:#F1DB9E"/>
						<stop  offset="0.4498" style="stop-color:#C9A07B"/>
						<stop  offset="0.8134" style="stop-color:#AE7763"/>
						<stop  offset="1" style="stop-color:#A3675A"/>
					</radialGradient>
					<path fill="url(#SVGID_2_)" d="M122.857,119.634c4.457,6.078,8.121,11.41,11.131,16.072l4.051,11.043l-2.137-0.877l2.777,9.935
						l-13.968-14.791l1.394,8.727l-16.199-20.625c-8.588-13.796-1.415-9.955,3.335-9.274c0.678,0.099-3.663-6.649-2.899-6.418
						C115.812,115.077,122.857,119.634,122.857,119.634z"/>
					
						<radialGradient id="SVGID_3_" cx="164.5" cy="-94.0708" r="26.0296" gradientTransform="matrix(1 0 0 -1 -50 61)" gradientUnits="userSpaceOnUse">
						<stop  offset="0" style="stop-color:#F1DB9E"/>
						<stop  offset="0.1894" style="stop-color:#EED79C"/>
						<stop  offset="0.3747" style="stop-color:#E6CB95"/>
						<stop  offset="0.5582" style="stop-color:#D9B889"/>
						<stop  offset="0.7407" style="stop-color:#C79C79"/>
						<stop  offset="0.9209" style="stop-color:#AF7965"/>
						<stop  offset="1" style="stop-color:#A3675A"/>
					</radialGradient>
					<path fill="url(#SVGID_3_)" d="M126.184,131.184c7.822,11.735,6.143,14.144,6.143,14.144s-7.37-2.365-12.594-9.421l1.52-4.098
						C121.734,129.302,126.184,131.184,126.184,131.184z"/>
					
						<radialGradient id="SVGID_4_" cx="3590.084" cy="-3294.894" r="13.4241" fx="3588.4067" fy="-3301.6765" gradientTransform="matrix(0.825 0.5651 0.6165 -0.9 -872.6617 -4930.4658)" gradientUnits="userSpaceOnUse">
						<stop  offset="0" style="stop-color:#FFFFCF"/>
						<stop  offset="0.638" style="stop-color:#F1DB9E"/>
						<stop  offset="0.7066" style="stop-color:#EED79C"/>
						<stop  offset="0.7736" style="stop-color:#E6CB95"/>
						<stop  offset="0.8401" style="stop-color:#D9B889"/>
						<stop  offset="0.9062" style="stop-color:#C79C79"/>
						<stop  offset="0.9714" style="stop-color:#AF7965"/>
						<stop  offset="1" style="stop-color:#A3675A"/>
					</radialGradient>
					<path fill="url(#SVGID_4_)" d="M59.547,79.643c-6.812,2.491-14.396-1.119-16.933-8.063c-2.539-6.949,0.927-14.594,7.74-17.085
						c6.814-2.49,14.392,1.117,16.935,8.064C69.826,69.503,66.361,77.151,59.547,79.643z"/>
					
						<radialGradient id="SVGID_5_" cx="3575.8623" cy="-3269.0347" r="19.1301" fx="3573.4724" fy="-3278.7002" gradientTransform="matrix(0.825 0.5651 0.6165 -0.9 -857.4664 -4921.3911)" gradientUnits="userSpaceOnUse">
						<stop  offset="0" style="stop-color:#FFFFCF"/>
						<stop  offset="0.638" style="stop-color:#F1DB9E"/>
						<stop  offset="0.7066" style="stop-color:#EED79C"/>
						<stop  offset="0.7736" style="stop-color:#E6CB95"/>
						<stop  offset="0.8401" style="stop-color:#D9B889"/>
						<stop  offset="0.9062" style="stop-color:#C79C79"/>
						<stop  offset="0.9714" style="stop-color:#AF7965"/>
						<stop  offset="1" style="stop-color:#A3675A"/>
					</radialGradient>
					<path fill="url(#SVGID_5_)" d="M79.558,64.131c-9.708,3.55-20.517-1.598-24.132-11.49c-3.62-9.898,1.316-20.799,11.025-24.35
						c9.711-3.55,20.519,1.598,24.134,11.495C94.2,49.68,89.269,60.583,79.558,64.131z"/>
				</g>
			</g>
		</g>
	</g>
</g>
<g id="outline_x5F_white">
	<g>
		<g>
			<path fill="#FFFFFF" d="M72.771,27.168c7.697,0,14.975,4.844,17.814,12.618c2.058,5.63,1.341,11.583-1.442,16.325v0.005
				c0,0-0.836,8.263,5.254,19.455c2.693,4.951,8.279,16.541,28.46,44.062c4.457,6.078,11.541,16.721,14.552,21.383l1.271,14.789
				l-10.547-9.479l1.393,8.727l-19.618-25.936c-18.601-29.891-24.715-41.37-26.773-43.677c-5.519-6.182-11.912-7.467-16.275-7.467
				c-3.106,0-5.184,0.651-5.184,0.651c-0.668,0.395-1.373,0.743-2.127,1.019c-1.462,0.534-2.959,0.788-4.435,0.788
				c-5.4,0-10.506-3.397-12.498-8.852c-2.539-6.949,0.927-14.594,7.74-17.085c1.452-0.531,2.938-0.776,4.404-0.776
				c0.383,0,0.765,0.017,1.144,0.049c-0.164-0.373-0.336-0.739-0.477-1.126c-3.62-9.898,1.316-20.799,11.025-24.35
				C68.534,27.529,70.668,27.168,72.771,27.168 M72.771,15.168L72.771,15.168c-3.564,0-7.077,0.623-10.439,1.852
				c-7.749,2.834-13.9,8.557-17.322,16.115c-1.729,3.819-2.655,7.875-2.769,11.962c-10.333,6.021-15.181,18.875-10.897,30.6
				C35,85.706,44.552,92.431,55.112,92.431c2.923,0,5.802-0.511,8.556-1.518c0.698-0.256,1.396-0.55,2.09-0.88
				c0.3-0.033,0.673-0.061,1.1-0.061c2.778,0,5.125,1.075,7.166,3.285c0.778,1.087,3.014,4.836,5.586,9.151
				c4.158,6.974,10.441,17.513,20.108,33.047c0.192,0.311,0.398,0.609,0.618,0.898l19.619,25.937c2.322,3.071,5.9,4.762,9.574,4.762
				c1.225,0,2.459-0.188,3.662-0.573c1.707,0.877,3.593,1.326,5.49,1.326c1.818,0,3.649-0.412,5.348-1.259
				c4.408-2.196,7.027-6.862,6.605-11.769l-1.271-14.791c-0.168-1.952-0.812-3.836-1.875-5.481
				c-2.776-4.301-10.086-15.33-14.954-21.968c-17.767-24.228-23.796-35.565-26.693-41.015c-0.335-0.631-0.633-1.189-0.903-1.687
				c-2.678-4.922-3.492-8.859-3.734-11.014c3.17-7.293,3.436-15.544,0.652-23.156C97.378,23.407,85.689,15.168,72.771,15.168
				L72.771,15.168z"/>
		</g>
	</g>
</g>
<g id="outline_x5F_black">
	<g>
		<path d="M72.771,27.168c7.697,0,14.975,4.844,17.814,12.618c2.058,5.63,1.341,11.583-1.442,16.325v0.005
			c0,0-0.836,8.263,5.254,19.455c2.693,4.951,8.279,16.541,28.46,44.062c4.457,6.078,8.121,11.41,11.131,16.072l4.052,11.043
			l-2.138-0.877l2.777,9.934l-13.967-14.789l1.393,8.726l-16.198-20.625c-18.601-29.891-24.715-41.37-26.773-43.677
			c-5.513-6.175-11.896-7.46-16.259-7.46c-3.114,0-5.198,0.655-5.198,0.655l-0.002-0.011c-0.668,0.395-1.373,0.743-2.127,1.019
			c-1.462,0.534-2.959,0.788-4.435,0.788c-5.4,0-10.506-3.397-12.498-8.852c-2.539-6.949,0.927-14.594,7.74-17.085
			c1.453-0.531,2.938-0.776,4.404-0.776c0.383,0,0.765,0.017,1.144,0.049c-0.164-0.373-0.336-0.739-0.477-1.126
			c-3.62-9.898,1.316-20.799,11.025-24.35C68.534,27.529,70.668,27.168,72.771,27.168 M72.771,21.168
			c-2.859,0-5.679,0.5-8.379,1.487c-6.223,2.275-11.165,6.876-13.917,12.955c-1.896,4.187-2.594,8.729-2.08,13.212
			c-0.033,0.012-0.066,0.024-0.1,0.036c-9.909,3.624-14.985,14.74-11.316,24.781c2.795,7.651,10.083,12.792,18.134,12.792
			c0.629,0,1.255-0.031,1.878-0.094l0.038,0.207l1.005-0.34c1.213-0.19,2.408-0.5,3.574-0.927c0.764-0.278,1.509-0.61,2.257-1.006
			c0.571-0.118,1.646-0.292,3.01-0.292c4.587,0,8.551,1.836,11.783,5.456c0.687,0.811,3.078,4.822,6.106,9.9
			c4.146,6.955,10.411,17.464,20.048,32.95l0.174,0.277l0.201,0.258l16.199,20.625l14.29,18.193l-1.974-12.365l0.613,0.649
			l16.685,17.667l-6.013-21.505l3.375,1.385l-4.691-12.788l-4.051-11.043l-0.229-0.628l-0.363-0.561
			c-3.262-5.054-7.074-10.56-11.332-16.366c-18.021-24.575-24.188-36.172-27.152-41.745c-0.326-0.612-0.614-1.154-0.877-1.637
			c-3.885-7.139-4.484-12.826-4.558-15.014c3.104-6.185,3.521-13.37,1.111-19.964C92.604,27.823,83.179,21.168,72.771,21.168
			L72.771,21.168z"/>
	</g>
</g>
</svg>
