<?xml version="1.0" encoding="utf-8"?>
<!-- Generator: Adobe Illustrator 15.0.0, SVG Export Plug-In . SVG Version: 6.00 Build 0)  -->
<!DOCTYPE svg PUBLIC "-//W3C//DTD SVG 1.1//EN" "http://www.w3.org/Graphics/SVG/1.1/DTD/svg11.dtd">
<svg version="1.1" xmlns="http://www.w3.org/2000/svg" xmlns:xlink="http://www.w3.org/1999/xlink" x="0px" y="0px" width="200px"
	 height="200px" viewBox="0 0 200 200" enable-background="new 0 0 200 200" xml:space="preserve">
<g id="icon">
	<g id="Layer_2">
	</g>
	<g id="Layer_1_1_">
		<g>
			<g opacity="0.44">
				
					<radialGradient id="SVGID_1_" cx="150" cy="-59.3989" r="78.3917" gradientTransform="matrix(1 0 0 -1 -50 61)" gradientUnits="userSpaceOnUse">
					<stop  offset="0" style="stop-color:#130C0E;stop-opacity:0"/>
					<stop  offset="0.811" style="stop-color:#130C0E;stop-opacity:0.5555"/>
					<stop  offset="0.9509" style="stop-color:#130C0E;stop-opacity:0.6512"/>
				</radialGradient>
				<circle fill="url(#SVGID_1_)" cx="100" cy="120.399" r="56.984"/>
			</g>
			<g opacity="0.42">
				
					<linearGradient id="SVGID_2_" gradientUnits="userSpaceOnUse" x1="150" y1="-54.9976" x2="150" y2="-123.5001" gradientTransform="matrix(1 0 0 -1 -50 61)">
					<stop  offset="0" style="stop-color:#837881;stop-opacity:0"/>
					<stop  offset="0.3534" style="stop-color:#7D737A;stop-opacity:0.2436"/>
					<stop  offset="0.8632" style="stop-color:#6E6667;stop-opacity:0.5951"/>
					<stop  offset="0.8848" style="stop-color:#6D6566;stop-opacity:0.61"/>
				</linearGradient>
				<path fill="url(#SVGID_2_)" d="M100,147.85c-22.567,0-41.981-13.443-50.71-32.752c-0.18,1.742-0.274,3.512-0.274,5.303
					c0,28.158,22.826,50.983,50.984,50.983s50.984-22.825,50.984-50.983c0-1.791-0.096-3.561-0.274-5.303
					C141.98,134.405,122.566,147.85,100,147.85z"/>
			</g>
			
				<linearGradient id="SVGID_3_" gradientUnits="userSpaceOnUse" x1="144.3105" y1="-142.4663" x2="159.3108" y2="76.5332" gradientTransform="matrix(1 0 0 -1 -50 61)">
				<stop  offset="0" style="stop-color:#FFFFFF"/>
				<stop  offset="0.0896" style="stop-color:#FFFFFF;stop-opacity:0.9104"/>
				<stop  offset="1" style="stop-color:#FFFFFF;stop-opacity:0"/>
			</linearGradient>
			<path opacity="0.53" fill="url(#SVGID_3_)" enable-background="new    " d="M100,67.416c29.216,0,52.984,23.769,52.984,52.984
				c0,29.217-23.77,52.983-52.984,52.983S47.016,149.616,47.016,120.4C47.016,91.185,70.784,67.416,100,67.416 M100,63.416
				c-31.472,0-56.984,25.513-56.984,56.984c0,31.472,25.513,56.983,56.984,56.983c31.471,0,56.984-25.513,56.984-56.983
				C156.984,88.929,131.473,63.416,100,63.416L100,63.416z"/>
			
				<linearGradient id="SVGID_4_" gradientUnits="userSpaceOnUse" x1="144.3105" y1="-142.4663" x2="159.3108" y2="76.5332" gradientTransform="matrix(1 0 0 -1 -50 61)">
				<stop  offset="0" style="stop-color:#FFFFFF"/>
				<stop  offset="0.0896" style="stop-color:#FFFFFF;stop-opacity:0.9104"/>
				<stop  offset="1" style="stop-color:#FFFFFF;stop-opacity:0"/>
			</linearGradient>
			<path opacity="0.53" fill="url(#SVGID_4_)" enable-background="new    " d="M100,65.172c30.452,0,55.229,24.775,55.229,55.227
				c0,30.453-24.775,55.229-55.229,55.229s-55.228-24.774-55.228-55.229C44.772,89.947,69.548,65.172,100,65.172 M100,63.416
				c-31.472,0-56.984,25.513-56.984,56.984c0,31.472,25.513,56.983,56.984,56.983c31.471,0,56.984-25.513,56.984-56.983
				C156.984,88.929,131.473,63.416,100,63.416L100,63.416z"/>
			
				<radialGradient id="SVGID_5_" cx="163.457" cy="-107.6968" r="113.7405" gradientTransform="matrix(1 0 0 -1 -50 61)" gradientUnits="userSpaceOnUse">
				<stop  offset="0" style="stop-color:#130C0E;stop-opacity:0"/>
				<stop  offset="0.9385" style="stop-color:#130C0E;stop-opacity:0.6112"/>
				<stop  offset="1" style="stop-color:#130C0E;stop-opacity:0.6512"/>
			</radialGradient>
			<path opacity="0.44" fill="url(#SVGID_5_)" enable-background="new    " d="M125.469,74.899c0,0-0.941,0.443,2.396,2.596
				c7.363,4.75,17.803,22.571,19.113,33.729c1.313,11.156,1.504,37.734-14.25,39.049c-15.752,1.312-15.375-7.28-18-35.178
				c-2.625-27.894-5.934-34.824-0.742-36.244C122.729,76.46,124.271,76.158,125.469,74.899z"/>
			
				<radialGradient id="SVGID_6_" cx="27.7563" cy="379.627" r="15.6479" gradientTransform="matrix(0.9554 0 0 -0.6715 73.6506 307.5704)" gradientUnits="userSpaceOnUse">
				<stop  offset="0" style="stop-color:#130C0E;stop-opacity:0"/>
				<stop  offset="0.9385" style="stop-color:#130C0E;stop-opacity:0.6112"/>
				<stop  offset="1" style="stop-color:#130C0E;stop-opacity:0.6512"/>
			</radialGradient>
			<ellipse opacity="0.44" fill="url(#SVGID_6_)" enable-background="new    " cx="100.169" cy="52.65" rx="20.313" ry="4.121"/>
			
				<radialGradient id="SVGID_7_" cx="150.167" cy="-375.541" r="45.9501" gradientTransform="matrix(1 0 0 -0.4405 -50 -104.2139)" gradientUnits="userSpaceOnUse">
				<stop  offset="0" style="stop-color:#130C0E;stop-opacity:0"/>
				<stop  offset="0.9385" style="stop-color:#130C0E;stop-opacity:0.6112"/>
				<stop  offset="1" style="stop-color:#130C0E;stop-opacity:0.6512"/>
			</radialGradient>
			<path fill="url(#SVGID_7_)" d="M127.863,55.74c0-5.399-12.399-9.776-27.696-9.776c-15.296,0-27.696,4.377-27.696,9.776
				c0,2.027,0,8.917,0,10.945c0,5.399,12.4,9.775,27.696,9.775c15.297,0,27.696-4.376,27.696-9.775
				C127.863,64.657,127.863,57.767,127.863,55.74z"/>
			
				<linearGradient id="SVGID_8_" gradientUnits="userSpaceOnUse" x1="129.7139" y1="-4.2109" x2="171.0352" y2="-4.2109" gradientTransform="matrix(1 0 0 -1 -50 61)">
				<stop  offset="0" style="stop-color:#81693C"/>
				<stop  offset="0.4847" style="stop-color:#DFAA76"/>
				<stop  offset="1" style="stop-color:#81693C"/>
			</linearGradient>
			<path fill="url(#SVGID_8_)" d="M82.454,57.938c0,0-3.382-0.817-2.632,1.785c0.369,1.281-0.715,2.266,0.748,3.172
				c1.283,0.795,2.619,2.272,2.292,3.291c-0.297,0.928-3.354,0.118-1.042,2.467c2.688,2.731,10.145,3.937,16.13,3.997
				c10.983,0.11,18.681-1.765,20.313-4.397c1.07-1.727,0.444-2.66-0.037-2.925c-1.943-1.068-2.502-0.884,1.209-2.759
				c2.373-1.2,2.103-5.292-0.793-4.752c-2.896,0.54-19.656,4.796-35.781,0.685"/>
			
				<linearGradient id="SVGID_9_" gradientUnits="userSpaceOnUse" x1="-21.9229" y1="-94.0195" x2="-13.5655" y2="-70.0764" gradientTransform="matrix(0.9465 -0.3227 -0.3227 -0.9465 91.1276 -28.8922)">
				<stop  offset="0" style="stop-color:#FFFFFF"/>
				<stop  offset="0.0896" style="stop-color:#FFFFFF;stop-opacity:0.9104"/>
				<stop  offset="1" style="stop-color:#FFFFFF;stop-opacity:0"/>
			</linearGradient>
			<path opacity="0.75" fill="url(#SVGID_9_)" enable-background="new    " d="M85.718,57.767c0,0-5.336,2.969-1.18,4.205
				c2.41,0.714,19.303,3.238,31.96-0.76c1.425-0.451,3.064-4.805,1.393-3.899C119.746,56.308,104.163,60.403,85.718,57.767z"/>
			
				<linearGradient id="SVGID_10_" gradientUnits="userSpaceOnUse" x1="131.4463" y1="17.1597" x2="135.5428" y2="-0.2507" gradientTransform="matrix(1 0 0 -1 -50 61)">
				<stop  offset="0" style="stop-color:#FFFFFF"/>
				<stop  offset="0.0503" style="stop-color:#FFFFFF;stop-opacity:0.9498"/>
				<stop  offset="0.5613" style="stop-color:#FFFFFF;stop-opacity:0.4395"/>
				<stop  offset="1" style="stop-color:#FFFFFF;stop-opacity:0"/>
			</linearGradient>
			<path fill="url(#SVGID_10_)" d="M92.361,49.196c0,0,1.414-1.629-1.803-1.171c-3.539,0.504-8.463,0.632-14.584,4.236
				c-4.826,2.842,0.631,8.29,3.181,6.917c2.547-1.373-6.088-3.611,2.128-7.347C87.748,48.894,92.361,52.135,92.361,49.196z"/>
			
				<linearGradient id="SVGID_11_" gradientUnits="userSpaceOnUse" x1="5277.0918" y1="17.1602" x2="5281.1885" y2="-0.2502" gradientTransform="matrix(-1 0 0 -1 5395.5039 61)">
				<stop  offset="0" style="stop-color:#FFFFFF"/>
				<stop  offset="0.0503" style="stop-color:#FFFFFF;stop-opacity:0.9498"/>
				<stop  offset="0.5613" style="stop-color:#FFFFFF;stop-opacity:0.4395"/>
				<stop  offset="1" style="stop-color:#FFFFFF;stop-opacity:0"/>
			</linearGradient>
			<path fill="url(#SVGID_11_)" d="M107.496,49.196c0,0-1.414-1.629,1.802-1.171c3.539,0.504,8.466,0.632,14.585,4.236
				c4.826,2.842-0.631,8.29-3.18,6.917c-2.547-1.373,6.088-3.611-2.129-7.347C112.109,48.894,107.496,52.135,107.496,49.196z"/>
			<g>
				
					<linearGradient id="SVGID_12_" gradientUnits="userSpaceOnUse" x1="6.7021" y1="391.7158" x2="48.8076" y2="391.7158" gradientTransform="matrix(0.9554 0 0 -0.6715 73.6506 307.5704)">
					<stop  offset="0" style="stop-color:#7C5320"/>
					<stop  offset="0.5153" style="stop-color:#FAC28D"/>
					<stop  offset="1" style="stop-color:#7C5320"/>
				</linearGradient>
				<path fill="url(#SVGID_12_)" d="M117.689,53.216c0,1.962-7.844,3.554-17.522,3.554c-9.679,0-17.522-1.592-17.522-3.554
					c0-1.133-2.591-20.709-2.591-20.709c2.981-0.476,36.139,0,40.227,0C120.279,32.507,117.689,51.253,117.689,53.216z"/>
				
					<linearGradient id="SVGID_13_" gradientUnits="userSpaceOnUse" x1="150.168" y1="4.481" x2="150.168" y2="26.5891" gradientTransform="matrix(1 0 0 -1 -50 61)">
					<stop  offset="0" style="stop-color:#7C5320"/>
					<stop  offset="1" style="stop-color:#7C5320;stop-opacity:0"/>
				</linearGradient>
				<path fill="url(#SVGID_13_)" d="M117.689,53.216c0,1.962-7.844,3.554-17.522,3.554c-9.679,0-17.522-1.592-17.522-3.554
					c0-1.133-2.591-20.709-2.591-20.709c2.981-0.476,36.139,0,40.227,0C120.279,32.507,117.689,51.253,117.689,53.216z"/>
				
					<linearGradient id="SVGID_14_" gradientUnits="userSpaceOnUse" x1="149.9912" y1="30.2588" x2="151.8415" y2="11.5702" gradientTransform="matrix(1 0 0 -1 -50 61)">
					<stop  offset="0" style="stop-color:#FAC28D"/>
					<stop  offset="1" style="stop-color:#7C5320"/>
				</linearGradient>
				<ellipse fill="url(#SVGID_14_)" cx="100.167" cy="32.507" rx="20.112" ry="4.08"/>
				
					<linearGradient id="SVGID_15_" gradientUnits="userSpaceOnUse" x1="149.9912" y1="30.2588" x2="151.8415" y2="11.5702" gradientTransform="matrix(1 0 0 -1 -50 61)">
					<stop  offset="0" style="stop-color:#FAC28D"/>
					<stop  offset="1" style="stop-color:#7C5320"/>
				</linearGradient>
				<ellipse fill="url(#SVGID_15_)" cx="100.167" cy="32.507" rx="20.112" ry="4.08"/>
				
					<linearGradient id="SVGID_16_" gradientUnits="userSpaceOnUse" x1="149.7871" y1="26.8257" x2="154.9346" y2="49.1317" gradientTransform="matrix(1 0 0 -1 -50 61)">
					<stop  offset="0" style="stop-color:#FAC28D"/>
					<stop  offset="1" style="stop-color:#7C5320"/>
				</linearGradient>
				<path fill="url(#SVGID_16_)" d="M100.167,35.192c-9.367,0-17.309-1.173-20.099-2.797c-0.006,0.038-0.015,0.074-0.015,0.112
					c0,2.253,9.006,4.08,20.113,4.08c11.109,0,20.113-1.826,20.113-4.08c0-0.038-0.01-0.074-0.014-0.112
					C117.477,34.02,109.535,35.192,100.167,35.192z"/>
			</g>
			<g opacity="0.53">
				
					<linearGradient id="SVGID_17_" gradientUnits="userSpaceOnUse" x1="150" y1="-19.2612" x2="150" y2="-42.032" gradientTransform="matrix(1 0 0 -1 -50 61)">
					<stop  offset="0" style="stop-color:#FFFFFF"/>
					<stop  offset="0.0896" style="stop-color:#FFFFFF;stop-opacity:0.9104"/>
					<stop  offset="1" style="stop-color:#FFFFFF;stop-opacity:0"/>
				</linearGradient>
				<path fill="url(#SVGID_17_)" d="M100,98.436c22.566,0,41.98,13.443,50.71,32.751c0.181-1.742,0.274-3.513,0.274-5.304
					c0-28.158-22.826-50.984-50.984-50.984s-50.984,22.826-50.984,50.984c0,1.791,0.095,3.562,0.274,5.304
					C58.019,111.879,77.433,98.436,100,98.436z"/>
			</g>
			<g opacity="0.53">
				
					<linearGradient id="SVGID_18_" gradientUnits="userSpaceOnUse" x1="6283.4434" y1="2934.0234" x2="6282.4434" y2="2884.0234" gradientTransform="matrix(-1 0 0 1 6382.5449 -2778.9336)">
					<stop  offset="0" style="stop-color:#FFFFFF"/>
					<stop  offset="0.0896" style="stop-color:#FFFFFF;stop-opacity:0.9104"/>
					<stop  offset="1" style="stop-color:#FFFFFF;stop-opacity:0"/>
				</linearGradient>
				<path fill="url(#SVGID_18_)" d="M100,137.509c-22.567,0-41.981-13.442-50.71-32.752c-0.18,1.744-0.274,3.513-0.274,5.304
					c0,28.157,22.826,50.984,50.984,50.984s50.984-22.827,50.984-50.984c0-1.791-0.096-3.56-0.274-5.304
					C141.98,124.064,122.566,137.509,100,137.509z"/>
			</g>
			
				<radialGradient id="SVGID_19_" cx="612.126" cy="-768.4209" r="171.7363" gradientTransform="matrix(1.0033 0.242 0.2213 -0.9433 -375.6586 -693.5083)" gradientUnits="userSpaceOnUse">
				<stop  offset="0" style="stop-color:#130C0E;stop-opacity:0"/>
				<stop  offset="0.9385" style="stop-color:#130C0E;stop-opacity:0.6112"/>
				<stop  offset="1" style="stop-color:#130C0E;stop-opacity:0.6512"/>
			</radialGradient>
			<path fill="url(#SVGID_19_)" d="M77.574,159.544c0,0-6.592-16.172-5.6-32.228c0.996-16.051,4.976-23.875,9.15-33.771
				c4.181-9.895,9.579-12.594,5.72-13.959c-3.853-1.365-4.664-0.834-9.694,2.572c-10.996,7.447-20.395,30.047-20.223,41.932
				C57.097,135.979,60.698,157.145,77.574,159.544z"/>
		</g>
	</g>
</g>
<g id="outline_x5F_white">
	<path fill="#FFFFFF" d="M139.864,64.101v-8.36c0-3.678-1.295-9.768-8.642-14.611c0.308-2.317,0.633-4.715,0.945-6.981
		c0.075-0.544,0.113-1.093,0.113-1.642c0-1.967-0.605-8.673-8.393-12.408c-1.931-0.926-4.258-1.658-7.113-2.237
		c-4.561-0.925-10.459-1.435-16.608-1.435c-6.148,0-12.047,0.51-16.607,1.435c-2.855,0.579-5.183,1.311-7.114,2.237
		c-7.786,3.734-8.392,10.441-8.392,12.408c0,0.526,0.034,1.052,0.104,1.574c0.309,2.333,0.625,4.749,0.926,7.066
		c-7.322,4.84-8.613,10.919-8.613,14.593v8.125C42.103,76.673,31.016,97.601,31.016,120.4c0,38.037,30.946,68.983,68.984,68.983
		s68.984-30.946,68.984-68.983C168.984,97.766,158.025,76.934,139.864,64.101z M100,177.382c-31.471,0-56.984-25.513-56.984-56.983
		c0-22.053,12.535-41.167,30.862-50.64c-0.908-0.967-1.407-2-1.407-3.076c0-1.231,0-4.25,0-6.889c0-1.708,0-3.258,0-4.054
		c0-2.961,3.734-5.613,9.625-7.405c0,0,0,0,0-0.001l0,0c-0.009-0.075-0.02-0.159-0.029-0.235c-0.04-0.322-0.081-0.652-0.124-0.991
		c-0.018-0.143-0.036-0.285-0.054-0.43c-0.044-0.354-0.09-0.715-0.136-1.081c-0.016-0.123-0.031-0.244-0.046-0.367
		c-0.048-0.375-0.096-0.753-0.145-1.134c-0.028-0.216-0.055-0.431-0.083-0.648c-0.037-0.287-0.074-0.574-0.111-0.862
		c-0.036-0.277-0.071-0.551-0.106-0.826c-0.03-0.236-0.061-0.471-0.091-0.705c-0.044-0.341-0.087-0.676-0.131-1.011
		c-0.007-0.053-0.014-0.104-0.021-0.157c-0.167-1.284-0.326-2.509-0.465-3.57l0,0c-0.295-2.255-0.501-3.81-0.501-3.81
		c0-2.253,9.006-4.08,20.113-4.08c11.108,0,20.112,1.828,20.112,4.08c0,0-0.797,5.771-1.507,11.245
		c-0.003,0.023-0.006,0.045-0.009,0.068c-0.062,0.472-0.121,0.939-0.181,1.403c-0.01,0.076-0.02,0.151-0.029,0.227
		c-0.05,0.39-0.098,0.773-0.146,1.151c-0.016,0.125-0.032,0.251-0.047,0.375c-0.044,0.348-0.085,0.684-0.126,1.015
		c-0.014,0.108-0.028,0.224-0.041,0.33l0,0c0,0,0,0,0,0.001c5.916,1.793,9.669,4.45,9.669,7.418c0,0.796,0,2.345,0,4.053
		c0,2.639,0,5.66,0,6.891c0,1.118-0.537,2.19-1.516,3.19c18.203,9.513,30.637,28.561,30.637,50.524
		C156.984,151.87,131.471,177.382,100,177.382z"/>
</g>
<g id="outline_x5F_black">
	<path d="M133.844,67.284c0.014-0.209,0.021-0.41,0.021-0.6V55.74c-0.001-5.25-3.938-9.095-9.885-11.678
		c0.391-2.904,0.861-6.237,1.376-9.976c0.074-0.409,0.112-0.823,0.112-1.236c0-6.6-7.237-8.233-9.886-8.771
		c-4.18-0.848-9.655-1.315-15.416-1.315c-5.761,0-11.235,0.467-15.415,1.315c-2.648,0.537-10.221,1.688-10.221,8.287
		c0,0.4,0.036,0.802,0.107,1.198c0.493,3.717,0.996,7.38,1.423,10.628c-5.78,2.582-9.589,6.384-9.589,11.546v10.945
		c0,0.128,0.003,0.26,0.009,0.396c-18.3,11.487-29.464,31.461-29.464,53.318c0,34.729,28.255,62.983,62.984,62.983
		c34.729,0,62.984-28.255,62.984-62.983C162.984,98.694,151.945,78.805,133.844,67.284z M100,177.382
		c-31.471,0-56.984-25.513-56.984-56.983c0-22.053,12.535-41.167,30.862-50.64c-0.908-0.967-1.407-2-1.407-3.076
		c0-2.028,0-8.918,0-10.945c0-2.96,3.734-5.612,9.625-7.404c-0.114-0.918-0.239-1.915-0.37-2.946l0,0
		c-0.668-5.266-1.482-11.443-1.645-12.664c-0.018-0.071-0.028-0.143-0.028-0.216c0-2.252,9.006-4.08,20.113-4.08
		c11.108,0,20.112,1.828,20.112,4.08c0,0.075-0.01,0.148-0.028,0.221c-0.138,0.994-0.715,5.204-1.287,9.566c0,0-0.001,0-0.001,0
		c-0.274,2.086-0.546,4.206-0.769,6.026c5.916,1.793,9.669,4.45,9.669,7.418c0,2.027,0,8.917,0,10.945
		c0,1.118-0.537,2.19-1.516,3.19c18.203,9.513,30.637,28.561,30.637,50.524C156.984,151.87,131.471,177.382,100,177.382z"/>
</g>
</svg>
