<?xml version="1.0" encoding="utf-8"?>
<!-- Generator: Adobe Illustrator 15.0.0, SVG Export Plug-In . SVG Version: 6.00 Build 0)  -->
<!DOCTYPE svg PUBLIC "-//W3C//DTD SVG 1.1//EN" "http://www.w3.org/Graphics/SVG/1.1/DTD/svg11.dtd">
<svg version="1.1" xmlns="http://www.w3.org/2000/svg" xmlns:xlink="http://www.w3.org/1999/xlink" x="0px" y="0px" width="200px"
	 height="200px" viewBox="0 0 200 200" enable-background="new 0 0 200 200" xml:space="preserve">
<g id="icon">
	<g id="Layer_2">
	</g>
	<g id="Layer_1_1_">
		<g>
			<g>
				
					<radialGradient id="SVGID_1_" cx="175.0898" cy="734.4746" r="34.0161" gradientTransform="matrix(1 0 0 1 -100 -591)" gradientUnits="userSpaceOnUse">
					<stop  offset="0.1758" style="stop-color:#C0FFFF"/>
					<stop  offset="1" style="stop-color:#007CBB;stop-opacity:0"/>
				</radialGradient>
				<circle fill="url(#SVGID_1_)" cx="75.09" cy="143.475" r="34.016"/>
				
					<radialGradient id="SVGID_2_" cx="158.3027" cy="707.7207" r="23.3145" gradientTransform="matrix(1 0 0 1 -100 -591)" gradientUnits="userSpaceOnUse">
					<stop  offset="0.1758" style="stop-color:#C0FFFF"/>
					<stop  offset="1" style="stop-color:#007CBB;stop-opacity:0"/>
				</radialGradient>
				<circle fill="url(#SVGID_2_)" cx="58.303" cy="116.721" r="23.314"/>
				
					<radialGradient id="SVGID_3_" cx="227.4258" cy="735.1172" r="29.2407" gradientTransform="matrix(1 0 0 1 -100 -591)" gradientUnits="userSpaceOnUse">
					<stop  offset="0.1758" style="stop-color:#C0FFFF"/>
					<stop  offset="1" style="stop-color:#007CBB;stop-opacity:0"/>
				</radialGradient>
				<circle fill="url(#SVGID_3_)" cx="127.426" cy="144.117" r="29.241"/>
				
					<radialGradient id="SVGID_4_" cx="249.0254" cy="677.6289" r="21.0957" gradientTransform="matrix(1 0 0 1 -100 -591)" gradientUnits="userSpaceOnUse">
					<stop  offset="0.1758" style="stop-color:#C0FFFF"/>
					<stop  offset="1" style="stop-color:#007CBB;stop-opacity:0"/>
				</radialGradient>
				<circle fill="url(#SVGID_4_)" cx="149.025" cy="86.629" r="21.096"/>
				
					<radialGradient id="SVGID_5_" cx="227.4258" cy="704.3965" r="25.7207" gradientTransform="matrix(1 0 0 1 -100 -591)" gradientUnits="userSpaceOnUse">
					<stop  offset="0.1758" style="stop-color:#C0FFFF"/>
					<stop  offset="1" style="stop-color:#007CBB;stop-opacity:0"/>
				</radialGradient>
				<path fill="url(#SVGID_5_)" d="M153.146,113.398c0,14.203-11.516,25.719-25.722,25.719c-14.204,0-25.719-11.516-25.719-25.719
					c0-14.208,11.515-25.723,25.719-25.723C141.632,87.678,153.146,99.191,153.146,113.398z"/>
				
					<radialGradient id="SVGID_6_" cx="227.4258" cy="645.124" r="15.8652" gradientTransform="matrix(1 0 0 1 -100 -591)" gradientUnits="userSpaceOnUse">
					<stop  offset="0.1758" style="stop-color:#C0FFFF"/>
					<stop  offset="1" style="stop-color:#007CBB;stop-opacity:0"/>
				</radialGradient>
				<circle fill="url(#SVGID_6_)" cx="127.426" cy="54.124" r="15.865"/>
				
					<radialGradient id="SVGID_7_" cx="165.751" cy="660.9893" r="15.8662" gradientTransform="matrix(1 0 0 1 -100 -591)" gradientUnits="userSpaceOnUse">
					<stop  offset="0.1758" style="stop-color:#C0FFFF"/>
					<stop  offset="1" style="stop-color:#007CBB;stop-opacity:0"/>
				</radialGradient>
				<circle fill="url(#SVGID_7_)" cx="65.751" cy="69.989" r="15.866"/>
				
					<radialGradient id="SVGID_8_" cx="185.8398" cy="645.9238" r="28.5288" gradientTransform="matrix(1 0 0 1 -100 -591)" gradientUnits="userSpaceOnUse">
					<stop  offset="0.1758" style="stop-color:#C0FFFF"/>
					<stop  offset="1" style="stop-color:#007CBB;stop-opacity:0"/>
				</radialGradient>
				<circle fill="url(#SVGID_8_)" cx="85.84" cy="54.923" r="28.529"/>
				
					<radialGradient id="SVGID_9_" cx="214.3691" cy="650.0605" r="28.5293" gradientTransform="matrix(1 0 0 1 -100 -591)" gradientUnits="userSpaceOnUse">
					<stop  offset="0.1758" style="stop-color:#C0FFFF"/>
					<stop  offset="1" style="stop-color:#007CBB;stop-opacity:0"/>
				</radialGradient>
				<circle fill="url(#SVGID_9_)" cx="114.369" cy="59.061" r="28.529"/>
				
					<radialGradient id="SVGID_10_" cx="231.2871" cy="664.7969" r="14.2651" gradientTransform="matrix(1 0 0 1 -100 -591)" gradientUnits="userSpaceOnUse">
					<stop  offset="0.1758" style="stop-color:#C0FFFF"/>
					<stop  offset="1" style="stop-color:#007CBB;stop-opacity:0"/>
				</radialGradient>
				<circle fill="url(#SVGID_10_)" cx="131.287" cy="73.797" r="14.265"/>
				
					<radialGradient id="SVGID_11_" cx="209.1064" cy="629.6406" r="10.1514" gradientTransform="matrix(1 0 0 1 -100 -591)" gradientUnits="userSpaceOnUse">
					<stop  offset="0.1758" style="stop-color:#C0FFFF"/>
					<stop  offset="1" style="stop-color:#007CBB;stop-opacity:0"/>
				</radialGradient>
				<path fill="url(#SVGID_11_)" d="M119.258,38.643c0,5.605-4.547,10.149-10.152,10.149s-10.15-4.544-10.15-10.149
					c0-5.608,4.545-10.153,10.15-10.153S119.258,33.035,119.258,38.643z"/>
				
					<radialGradient id="SVGID_12_" cx="251.0176" cy="652.6621" r="8.6016" gradientTransform="matrix(1 0 0 1 -100 -591)" gradientUnits="userSpaceOnUse">
					<stop  offset="0.1758" style="stop-color:#C0FFFF"/>
					<stop  offset="1" style="stop-color:#007CBB;stop-opacity:0"/>
				</radialGradient>
				<circle fill="url(#SVGID_12_)" cx="151.018" cy="61.662" r="8.601"/>
				
					<radialGradient id="SVGID_13_" cx="172.458" cy="618.4453" r="5.9678" gradientTransform="matrix(1 0 0 1 -100 -591)" gradientUnits="userSpaceOnUse">
					<stop  offset="0.1758" style="stop-color:#C0FFFF"/>
					<stop  offset="1" style="stop-color:#007CBB;stop-opacity:0"/>
				</radialGradient>
				<circle fill="url(#SVGID_13_)" cx="72.458" cy="27.445" r="5.968"/>
				
					<radialGradient id="SVGID_14_" cx="259.6162" cy="724.5684" r="5.9678" gradientTransform="matrix(1 0 0 1 -100 -591)" gradientUnits="userSpaceOnUse">
					<stop  offset="0.1758" style="stop-color:#C0FFFF"/>
					<stop  offset="1" style="stop-color:#007CBB;stop-opacity:0"/>
				</radialGradient>
				<circle fill="url(#SVGID_14_)" cx="159.616" cy="133.568" r="5.968"/>
				
					<radialGradient id="SVGID_15_" cx="152.3789" cy="699.3906" r="8.6836" gradientTransform="matrix(1 0 0 1 -100 -591)" gradientUnits="userSpaceOnUse">
					<stop  offset="0.1758" style="stop-color:#C0FFFF"/>
					<stop  offset="1" style="stop-color:#007CBB;stop-opacity:0"/>
				</radialGradient>
				<circle fill="url(#SVGID_15_)" cx="52.379" cy="108.391" r="8.683"/>
				
					<radialGradient id="SVGID_16_" cx="174.8877" cy="725.2227" r="11.4502" gradientTransform="matrix(1 0 0 1 -100 -591)" gradientUnits="userSpaceOnUse">
					<stop  offset="0.1758" style="stop-color:#C0FFFF"/>
					<stop  offset="1" style="stop-color:#007CBB;stop-opacity:0"/>
				</radialGradient>
				<circle fill="url(#SVGID_16_)" cx="74.888" cy="134.223" r="11.45"/>
				
					<radialGradient id="SVGID_17_" cx="178.4277" cy="639.5684" r="6.3091" gradientTransform="matrix(1 0 0 1 -100 -591)" gradientUnits="userSpaceOnUse">
					<stop  offset="0.1758" style="stop-color:#C0FFFF"/>
					<stop  offset="1" style="stop-color:#007CBB;stop-opacity:0"/>
				</radialGradient>
				<circle fill="url(#SVGID_17_)" cx="78.427" cy="48.569" r="6.309"/>
				
					<radialGradient id="SVGID_18_" cx="245.5508" cy="716.5879" r="30.0762" gradientTransform="matrix(1 0 0 1 -100 -591)" gradientUnits="userSpaceOnUse">
					<stop  offset="0.1758" style="stop-color:#C0FFFF"/>
					<stop  offset="1" style="stop-color:#007CBB;stop-opacity:0"/>
				</radialGradient>
				<circle fill="url(#SVGID_18_)" cx="145.551" cy="125.588" r="30.076"/>
				
					<radialGradient id="SVGID_19_" cx="243.292" cy="735.1182" r="7.1074" gradientTransform="matrix(1 0 0 1 -100 -591)" gradientUnits="userSpaceOnUse">
					<stop  offset="0.1758" style="stop-color:#C0FFFF"/>
					<stop  offset="1" style="stop-color:#007CBB;stop-opacity:0"/>
				</radialGradient>
				<path fill="url(#SVGID_19_)" d="M150.398,144.117c0,3.926-3.181,7.109-7.107,7.109c-3.923,0-7.105-3.186-7.105-7.109
					s3.185-7.107,7.105-7.107C147.221,137.01,150.398,140.193,150.398,144.117z"/>
				
					<radialGradient id="SVGID_20_" cx="209.9141" cy="749.9229" r="10.4438" gradientTransform="matrix(1 0 0 1 -100 -591)" gradientUnits="userSpaceOnUse">
					<stop  offset="0.1758" style="stop-color:#C0FFFF"/>
					<stop  offset="1" style="stop-color:#007CBB;stop-opacity:0"/>
				</radialGradient>
				<path fill="url(#SVGID_20_)" d="M120.357,158.922c0,5.768-4.676,10.445-10.442,10.445s-10.444-4.678-10.444-10.445
					c0-5.766,4.677-10.443,10.444-10.443S120.357,153.156,120.357,158.922z"/>
			</g>
			
				<linearGradient id="SVGID_21_" gradientUnits="userSpaceOnUse" x1="-113.3281" y1="187.3994" x2="-47.4541" y2="187.3994" gradientTransform="matrix(0.7071 -0.7071 0.7071 0.7071 31.6805 -78.0616)">
				<stop  offset="0.103" style="stop-color:#231F5E;stop-opacity:0.38"/>
				<stop  offset="0.1453" style="stop-color:#141F65;stop-opacity:0.341"/>
				<stop  offset="0.2039" style="stop-color:#091F6C;stop-opacity:0.287"/>
				<stop  offset="0.2863" style="stop-color:#021F6F;stop-opacity:0.211"/>
				<stop  offset="0.5152" style="stop-color:#001F70;stop-opacity:0"/>
			</linearGradient>
			<path fill="url(#SVGID_21_)" d="M56.248,59.411C39.173,76.488,42.584,85.879,42.584,85.879s6.797,6.953,7.547,7.566
				c0.848,0.691,2.216,1.531,4.205,1.969c2.555,0.562,3.022-1.141,5.283,0.951c1.784,1.65,2.783,16.564,12.712,26.492
				c21.056,19.68,46.543,43.152,46.543,43.152c14.508,12.994,28.595,8.146,39.958-3.221c11.37-11.365,16.217-25.451,3.217-39.961
				c0,0-23.793-25.828-43.479-46.891c-11.114-11.114-24.115-11.886-25.708-13.605c-2.183-2.359-0.558-2.31-1.175-4.722
				c-0.418-1.63-1.249-2.78-1.978-3.522c-0.728-0.744-7.806-7.535-7.806-7.535S72.631,43.032,56.248,59.411z"/>
			
				<linearGradient id="SVGID_22_" gradientUnits="userSpaceOnUse" x1="-112.6943" y1="187.2861" x2="-46.8628" y2="187.2861" gradientTransform="matrix(0.7071 -0.7071 0.7071 0.7071 31.3123 -77.5616)">
				<stop  offset="0.503" style="stop-color:#685B72;stop-opacity:0"/>
				<stop  offset="0.6176" style="stop-color:#6A5D74;stop-opacity:0.1831"/>
				<stop  offset="0.6771" style="stop-color:#71657B;stop-opacity:0.278"/>
				<stop  offset="0.7239" style="stop-color:#7E7286;stop-opacity:0.3528"/>
				<stop  offset="0.7641" style="stop-color:#8F8697;stop-opacity:0.417"/>
				<stop  offset="0.8" style="stop-color:#A69EAC;stop-opacity:0.4744"/>
				<stop  offset="0.8329" style="stop-color:#C2BDC6;stop-opacity:0.527"/>
				<stop  offset="0.8629" style="stop-color:#E2E0E4;stop-opacity:0.575"/>
				<stop  offset="0.8848" style="stop-color:#FFFFFF;stop-opacity:0.61"/>
			</linearGradient>
			<path fill="url(#SVGID_22_)" d="M56.718,58.883C38.88,76.725,42.584,85.879,42.584,85.879s6.76,7.092,7.702,7.818
				c0.756,0.58,1.923,1.223,3.683,1.652c2.42,0.594,3.534-0.943,5.65,1.016c1.875,1.736,2.93,16.682,13.123,26.875
				c21.043,19.668,46.132,42.771,46.132,42.771c14.508,12.994,28.595,8.146,39.958-3.221c11.37-11.365,16.217-25.451,3.217-39.961
				c0,0-23.344-25.348-43.02-46.4c-11.92-11.919-24.486-12.281-26.167-14.095c-1.899-2.053-0.468-2.137-1.137-4.295
				c-0.521-1.678-1.257-2.863-1.907-3.662c-0.788-0.965-7.914-7.822-7.914-7.822S72.14,43.463,56.718,58.883z"/>
			
				<linearGradient id="SVGID_23_" gradientUnits="userSpaceOnUse" x1="-74.0576" y1="205.1836" x2="-92.8733" y2="267.206" gradientTransform="matrix(0.7071 -0.7071 0.7071 0.7071 31.7049 -77.8936)">
				<stop  offset="0" style="stop-color:#FF78FF;stop-opacity:0"/>
				<stop  offset="0.0985" style="stop-color:#F876F9;stop-opacity:0.0679"/>
				<stop  offset="0.241" style="stop-color:#E56FE9;stop-opacity:0.1661"/>
				<stop  offset="0.4103" style="stop-color:#C565CE;stop-opacity:0.2828"/>
				<stop  offset="0.6001" style="stop-color:#9957A9;stop-opacity:0.4137"/>
				<stop  offset="0.8045" style="stop-color:#62457A;stop-opacity:0.5546"/>
				<stop  offset="0.8848" style="stop-color:#4A3D66;stop-opacity:0.61"/>
			</linearGradient>
			<path fill="url(#SVGID_23_)" d="M146.646,150.604c-11.738,11.732-26.127,16.881-40.64,3.889l12.866,11.521
				c14.508,12.993,28.595,8.146,39.958-3.222c11.37-11.365,16.217-25.451,3.217-39.961l-11.516-12.867
				C163.523,124.475,158.377,138.863,146.646,150.604z"/>
			
				<linearGradient id="SVGID_24_" gradientUnits="userSpaceOnUse" x1="1798.8164" y1="383.0918" x2="1784.9629" y2="428.7575" gradientTransform="matrix(-0.7071 0.7071 -0.2803 -0.2803 1443.637 -1090.1759)">
				<stop  offset="0" style="stop-color:#FF78FF;stop-opacity:0"/>
				<stop  offset="0.0985" style="stop-color:#F876F9;stop-opacity:0.0679"/>
				<stop  offset="0.241" style="stop-color:#E56FE9;stop-opacity:0.1661"/>
				<stop  offset="0.4103" style="stop-color:#C565CE;stop-opacity:0.2828"/>
				<stop  offset="0.6001" style="stop-color:#9957A9;stop-opacity:0.4137"/>
				<stop  offset="0.8045" style="stop-color:#62457A;stop-opacity:0.5546"/>
				<stop  offset="0.8848" style="stop-color:#4A3D66;stop-opacity:0.61"/>
			</linearGradient>
			<path fill="url(#SVGID_24_)" d="M56.802,60.774C68.907,48.671,80.061,44.46,84.068,49.011l-0.775-0.879
				c-4.008-4.552-15.184-0.316-27.318,11.817C43.841,72.083,39.611,83.256,44.16,87.27l0.877,0.773
				C40.486,84.031,44.697,72.881,56.802,60.774z"/>
			<g>
				
					<radialGradient id="SVGID_25_" cx="-80.4277" cy="214.0264" r="35.8175" gradientTransform="matrix(0.7071 -0.7071 0.7071 0.7071 31.6659 -77.9366)" gradientUnits="userSpaceOnUse">
					<stop  offset="0" style="stop-color:#42BBFF"/>
					<stop  offset="1" style="stop-color:#0D4AC0"/>
				</radialGradient>
				<path fill="url(#SVGID_25_)" d="M114.098,117.129c-16.604,16.604-37.449,7.102-37.449,7.102l42.962,39.51
					c13.147,11.775,25.916,7.381,36.217-2.924c8.064-8.061,14.674-15.207,9.062-26.926c-1.533-3.279-11.244-15.223-13.81-18.084
					C151.082,115.807,128.454,102.771,114.098,117.129z"/>
				
					<radialGradient id="SVGID_26_" cx="196.9824" cy="709.9512" r="69.7619" gradientTransform="matrix(1 0 0 1 -89.2114 -590.3018)" gradientUnits="userSpaceOnUse">
					<stop  offset="0" style="stop-color:#00E9FF"/>
					<stop  offset="1" style="stop-color:#3488FF"/>
				</radialGradient>
				<path fill="url(#SVGID_26_)" d="M114.098,117.129c-16.604,16.604-37.449,7.102-37.449,7.102s24.613,21.029,51.871,16.703
					c29.68-3.711,25.127-22.266,22.562-25.127C151.082,115.807,128.454,102.771,114.098,117.129z"/>
				
					<radialGradient id="SVGID_27_" cx="208.2861" cy="739.2051" r="46.9818" gradientTransform="matrix(1 0 0 1 -89.2114 -590.3018)" gradientUnits="userSpaceOnUse">
					<stop  offset="0" style="stop-color:#C2FBFF"/>
					<stop  offset="1" style="stop-color:#0D7CFF;stop-opacity:0"/>
				</radialGradient>
				<path fill="url(#SVGID_27_)" d="M151.596,116.523c2.475,6.021,1.68,19.729-23.863,23.021
					c-21.879,3.433-42.104-9.469-49.206-14.627c-1.197-0.39-1.878-0.688-1.878-0.688s24.613,21.029,51.871,16.703
					C156.4,137.418,154.318,121.053,151.596,116.523z"/>
			</g>
			
				<radialGradient id="SVGID_28_" cx="1070.9043" cy="-748.0176" r="16.7995" gradientTransform="matrix(0.6779 -0.6779 0.6972 0.6972 -142.1227 1314.5977)" gradientUnits="userSpaceOnUse">
				<stop  offset="0" style="stop-color:#130C0E;stop-opacity:0"/>
				<stop  offset="0.9385" style="stop-color:#130C0E;stop-opacity:0.6112"/>
				<stop  offset="1" style="stop-color:#130C0E;stop-opacity:0.6512"/>
			</radialGradient>
			<path opacity="0.44" fill="url(#SVGID_28_)" enable-background="new    " d="M77.8,51.64c2.538,2.536-2.333,11.52-10.88,20.067
				c-8.546,8.544-17.531,13.417-20.068,10.88s2.335-11.522,10.881-20.068S75.263,49.103,77.8,51.64z"/>
			<g>
				
					<linearGradient id="SVGID_29_" gradientUnits="userSpaceOnUse" x1="1043.4248" y1="-1607.3887" x2="1092.9668" y2="-1607.3887" gradientTransform="matrix(0.6755 -0.6755 0.4748 0.4748 98.1735 1546.1272)">
					<stop  offset="0" style="stop-color:#7C5320"/>
					<stop  offset="0.5153" style="stop-color:#FAC28D"/>
					<stop  offset="1" style="stop-color:#7C5320"/>
				</linearGradient>
				<path fill="url(#SVGID_29_)" d="M77.414,55.2c1.56,1.761-3.053,9.066-10.305,16.317c-7.25,7.25-14.582,11.889-16.375,10.364
					c-1.554-1.32-1.376-1.102-21.087-13.947c2.046-2.851,30.063-30.063,33.465-33.465C63.112,34.469,75.854,53.439,77.414,55.2z"/>
				
					<linearGradient id="SVGID_30_" gradientUnits="userSpaceOnUse" x1="1136.4258" y1="-701.4727" x2="1136.4258" y2="-727.9196" gradientTransform="matrix(0.7071 -0.7071 0.7071 0.7071 -240.8644 1371.0908)">
					<stop  offset="0" style="stop-color:#7C5320"/>
					<stop  offset="1" style="stop-color:#7C5320;stop-opacity:0"/>
				</linearGradient>
				<path fill="url(#SVGID_30_)" d="M77.414,55.2c1.56,1.761-3.053,9.066-10.305,16.317c-7.25,7.25-14.582,11.889-16.375,10.364
					c-1.554-1.32-1.376-1.102-21.087-13.947c2.046-2.851,30.063-30.063,33.465-33.465C63.112,34.469,75.854,53.439,77.414,55.2z"/>
				
					<linearGradient id="SVGID_31_" gradientUnits="userSpaceOnUse" x1="1136.2236" y1="-732.3164" x2="1138.432" y2="-710.0124" gradientTransform="matrix(0.7071 -0.7071 0.7071 0.7071 -240.8644 1371.0908)">
					<stop  offset="0" style="stop-color:#FAC28D"/>
					<stop  offset="1" style="stop-color:#7C5320"/>
				</linearGradient>
				<path fill="url(#SVGID_31_)" d="M63.112,34.469c1.771,2.041-4.16,11.062-13.248,20.148c-9.086,9.085-18.14,15.049-20.217,13.316
					c-2.081-1.731,3.849-10.753,13.245-20.148C52.289,38.389,61.341,32.428,63.112,34.469z"/>
				
					<linearGradient id="SVGID_32_" gradientUnits="userSpaceOnUse" x1="1136.2236" y1="-732.3164" x2="1138.432" y2="-710.0124" gradientTransform="matrix(0.7071 -0.7071 0.7071 0.7071 -240.8644 1371.0908)">
					<stop  offset="0" style="stop-color:#FAC28D"/>
					<stop  offset="1" style="stop-color:#7C5320"/>
				</linearGradient>
				<path fill="url(#SVGID_32_)" d="M63.112,34.469c1.771,2.041-4.16,11.062-13.248,20.148c-9.086,9.085-18.14,15.049-20.217,13.316
					c-2.081-1.731,3.849-10.753,13.245-20.148C52.289,38.389,61.341,32.428,63.112,34.469z"/>
				
					<linearGradient id="SVGID_33_" gradientUnits="userSpaceOnUse" x1="1135.9658" y1="-728.2368" x2="1142.0277" y2="-754.5048" gradientTransform="matrix(0.7071 -0.7071 0.7071 0.7071 -240.8644 1371.0908)">
					<stop  offset="0" style="stop-color:#FAC28D"/>
					<stop  offset="1" style="stop-color:#7C5320"/>
				</linearGradient>
				<path fill="url(#SVGID_33_)" d="M48.673,53.449c-7.707,7.707-15.312,13.329-19.118,14.388c0.03,0.032,0.057,0.068,0.093,0.098
					c2.077,1.732,11.131-4.231,20.217-13.316c9.088-9.088,15.019-18.107,13.248-20.148c-0.03-0.035-0.067-0.06-0.1-0.091
					C61.982,38.156,56.381,45.742,48.673,53.449z"/>
			</g>
			
				<linearGradient id="SVGID_34_" gradientUnits="userSpaceOnUse" x1="1114.582" y1="-691.5215" x2="1159.3799" y2="-691.5215" gradientTransform="matrix(0.7071 -0.7071 0.7071 0.7071 -240.8644 1371.0908)">
				<stop  offset="0" style="stop-color:#81693C"/>
				<stop  offset="0.4847" style="stop-color:#DFAA76"/>
				<stop  offset="1" style="stop-color:#81693C"/>
			</linearGradient>
			<path fill="url(#SVGID_34_)" d="M51.709,85.039c0,0,1.005,4.375,3.852,5.947c1.402,0.773,3.598,0.809,5.608,0.336
				c1.765-0.414,1.211,1.727,1.799,2.869c0.535,1.041,1.459,2.918,3.382,2.586c4.536-0.781,8.886-4.326,14.019-9.355
				c9.419-9.232,14.386-15.639,13.538-19.262c-0.556-2.375-2.309-3.109-2.943-2.926c-2.557,0.743-4.465,0.76-3.747-4.179
				c0.529-3.639-6.115-4.321-6.115-4.321c-3.987,8.795-11.607,18.881-27.751,27.309"/>
			
				<linearGradient id="SVGID_35_" gradientUnits="userSpaceOnUse" x1="-76.7603" y1="-73.5054" x2="-90.8343" y2="-27.1132" gradientTransform="matrix(0.7071 -0.7071 0.2803 0.2803 136.3601 26.7657)">
				<stop  offset="0" style="stop-color:#FF78FF;stop-opacity:0"/>
				<stop  offset="0.0985" style="stop-color:#F876F9;stop-opacity:0.0679"/>
				<stop  offset="0.241" style="stop-color:#E56FE9;stop-opacity:0.1661"/>
				<stop  offset="0.4103" style="stop-color:#C565CE;stop-opacity:0.2828"/>
				<stop  offset="0.6001" style="stop-color:#9957A9;stop-opacity:0.4137"/>
				<stop  offset="0.8045" style="stop-color:#62457A;stop-opacity:0.5546"/>
				<stop  offset="0.8848" style="stop-color:#4A3D66;stop-opacity:0.61"/>
			</linearGradient>
			<path fill="url(#SVGID_35_)" d="M69.126,73.998c-11.659,11.66-22.893,15.951-27.448,11.945l1.085,0.955
				c4.557,4.004,15.76-0.26,27.383-11.885C81.77,63.39,86.025,52.195,82.006,47.652l-0.951-1.081
				C85.068,51.114,80.786,62.336,69.126,73.998z"/>
			
				<linearGradient id="SVGID_36_" gradientUnits="userSpaceOnUse" x1="-76.897" y1="-48.6885" x2="-90.5205" y2="-3.7811" gradientTransform="matrix(0.7071 -0.7071 0.2803 0.2803 136.3601 26.7657)">
				<stop  offset="0" style="stop-color:#FF78FF;stop-opacity:0"/>
				<stop  offset="0.0985" style="stop-color:#F876F9;stop-opacity:0.0679"/>
				<stop  offset="0.241" style="stop-color:#E56FE9;stop-opacity:0.1661"/>
				<stop  offset="0.4103" style="stop-color:#C565CE;stop-opacity:0.2828"/>
				<stop  offset="0.6001" style="stop-color:#9957A9;stop-opacity:0.4137"/>
				<stop  offset="0.8045" style="stop-color:#62457A;stop-opacity:0.5546"/>
				<stop  offset="0.8848" style="stop-color:#4A3D66;stop-opacity:0.61"/>
			</linearGradient>
			<path fill="url(#SVGID_36_)" d="M75.738,80.611C64.454,91.898,53.58,96.055,49.169,92.178l1.052,0.924
				c4.412,3.875,15.254-0.252,26.508-11.504C87.98,70.346,92.1,59.507,88.209,55.111l-0.922-1.047
				C91.172,58.461,87.026,69.325,75.738,80.611z"/>
			
				<linearGradient id="SVGID_37_" gradientUnits="userSpaceOnUse" x1="-181.105" y1="191.8086" x2="-138.3493" y2="191.8086" gradientTransform="matrix(0.7071 -0.7071 0.7071 0.7071 31.2166 -77.4307)">
				<stop  offset="0" style="stop-color:#231F20;stop-opacity:0"/>
				<stop  offset="0.3431" style="stop-color:#252122;stop-opacity:0.1453"/>
				<stop  offset="0.4667" style="stop-color:#2C2829;stop-opacity:0.1977"/>
				<stop  offset="0.5548" style="stop-color:#373334;stop-opacity:0.235"/>
				<stop  offset="0.626" style="stop-color:#484445;stop-opacity:0.2652"/>
				<stop  offset="0.6871" style="stop-color:#5D5A5B;stop-opacity:0.2911"/>
				<stop  offset="0.7411" style="stop-color:#787676;stop-opacity:0.314"/>
				<stop  offset="0.79" style="stop-color:#989697;stop-opacity:0.3347"/>
				<stop  offset="0.8349" style="stop-color:#BDBCBC;stop-opacity:0.3537"/>
				<stop  offset="0.8749" style="stop-color:#E5E5E5;stop-opacity:0.3707"/>
				<stop  offset="0.897" style="stop-color:#FFFFFF;stop-opacity:0.38"/>
			</linearGradient>
			<path opacity="0.56" fill="url(#SVGID_37_)" enable-background="new    " d="M83.191,51.388c0,0,2.926,1.962,5.086,5.495
				c2.558,4.181,0.629,6.148,2.686,8.351c1.729,1.854,15.193,1.952,27.441,14.2c18.636,19.791,42.055,44.99,42.055,44.99
				c12.066,13.363,7.098,25.967-3.465,36.529c-10.561,10.561-23.162,15.533-36.527,3.465c0,0-25.47-23.674-45.252-42.299
				c-9.475-9.477-12.062-25.604-13.861-27.285c-2.285-2.133-4.612-0.416-8.876-3.01c-3.315-2.018-5.06-4.658-5.06-4.658
				s9.64-0.012,22.929-13.302C84.852,59.36,83.166,51.352,83.166,51.352L83.191,51.388z M81.906,46.555
				c0,0,1.815,11.042-13.065,25.927C52.748,88.576,42.584,85.879,42.584,85.879s5.966,6.352,7.098,7.148
				c0.756,0.531,1.859,1.09,3.434,1.471c2.42,0.584,4.29-0.182,6.504,1.867c1.824,1.689,2.806,16.541,13.402,27.137
				c21.033,19.658,45.853,42.51,45.853,42.51c14.508,12.994,28.596,8.146,39.958-3.221c11.37-11.365,16.217-25.451,3.217-39.961
				c0,0-22.241-24.168-41.862-45.162C106.271,63.754,94.252,65.4,92.395,63.394c-2.087-2.257-1.071-4.649-1.627-7.109
				c-0.282-1.245-0.724-2.114-1.193-2.724C88.604,52.303,81.906,46.555,81.906,46.555L81.906,46.555z"/>
			
				<linearGradient id="SVGID_38_" gradientUnits="userSpaceOnUse" x1="-77.7197" y1="191.1221" x2="-99.8252" y2="191.1221" gradientTransform="matrix(0.7071 -0.7071 0.7071 0.7071 31.6463 -77.8311)">
				<stop  offset="0" style="stop-color:#FFFFFF;stop-opacity:0"/>
				<stop  offset="0.8485" style="stop-color:#FFFFFF;stop-opacity:0.38"/>
			</linearGradient>
			<path fill="url(#SVGID_38_)" d="M154.1,155.752c-0.119-1.512-2.07-2.701-3.834-2.891c-8.104-0.844-11.172,0.848-19.422-7.182
				c0,0-19.387-19.152-37.359-36.904c-4.165-4.117-11.071-15.594-14.824-19.309c-3.816-3.773-7.357-2.641-9.602-4.852
				c-3.771-3.713-5.602-6.635-5.602-6.635s-2.08,1.635-4.83,3.416c-3.398,2.232-6.894,3.707-6.894,3.707s2.6,2.496,6.677,6.412
				c2.398,2.301,4.436-2.084,7.631,0.98c3.16,3.035,11.742,20.86,16.184,25.149c18.85,18.19,39.003,37.644,39.003,37.644
				c11.896,11.021,20.438,8.685,30.391,4.201C152.529,159.082,154.221,157.256,154.1,155.752z"/>
			
				<radialGradient id="SVGID_39_" cx="1947.1064" cy="-929.2656" r="215.3006" gradientTransform="matrix(0.3988 -0.9519 0.896 0.3688 260.938 2316.6455)" gradientUnits="userSpaceOnUse">
				<stop  offset="0" style="stop-color:#130C0E;stop-opacity:0"/>
				<stop  offset="0.9385" style="stop-color:#130C0E;stop-opacity:0.6112"/>
				<stop  offset="1" style="stop-color:#130C0E;stop-opacity:0.6512"/>
			</radialGradient>
			<path fill="url(#SVGID_39_)" d="M167.343,138.016c0,0-29.381-32.375-37.829-41.725c-11.805-13.064-20.928-19.816-28.059-24.279
				c-7.13-4.47-10.511-5.861-12.047-3.047c-1.539,2.809-0.343,2.534,3.545,5.286c3.893,2.749,24.801,22.397,31.42,28.946
				C130.992,109.75,168.893,158.861,167.343,138.016z"/>
			<g>
				<g>
					
						<radialGradient id="SVGID_40_" cx="251.9414" cy="748.0811" r="2.4041" gradientTransform="matrix(1 0 0 1 -100 -591)" gradientUnits="userSpaceOnUse">
						<stop  offset="0.3681" style="stop-color:#13A7AE;stop-opacity:0"/>
						<stop  offset="0.5236" style="stop-color:#0FB4BD;stop-opacity:0.2337"/>
						<stop  offset="0.8218" style="stop-color:#06D5E4;stop-opacity:0.6821"/>
						<stop  offset="1" style="stop-color:#00EBFF;stop-opacity:0.95"/>
					</radialGradient>
					<circle fill="url(#SVGID_40_)" cx="151.941" cy="156.775" r="2.801"/>
				</g>
				<g>
					
						<radialGradient id="SVGID_41_" cx="254.7422" cy="728.2061" r="2.4041" gradientTransform="matrix(1 0 0 1 -100 -591)" gradientUnits="userSpaceOnUse">
						<stop  offset="0.3681" style="stop-color:#13A7AE;stop-opacity:0"/>
						<stop  offset="0.5236" style="stop-color:#0FB4BD;stop-opacity:0.2337"/>
						<stop  offset="0.8218" style="stop-color:#06D5E4;stop-opacity:0.6821"/>
						<stop  offset="1" style="stop-color:#00EBFF;stop-opacity:0.95"/>
					</radialGradient>
					<circle fill="url(#SVGID_41_)" cx="154.742" cy="136.9" r="2.801"/>
				</g>
				<g>
					
						<radialGradient id="SVGID_42_" cx="241.1172" cy="753.2988" r="1.5414" gradientTransform="matrix(1 0 0 1 -100 -591)" gradientUnits="userSpaceOnUse">
						<stop  offset="0.3681" style="stop-color:#13A7AE;stop-opacity:0"/>
						<stop  offset="0.5236" style="stop-color:#0FB4BD;stop-opacity:0.2337"/>
						<stop  offset="0.8218" style="stop-color:#06D5E4;stop-opacity:0.6821"/>
						<stop  offset="1" style="stop-color:#00EBFF;stop-opacity:0.95"/>
					</radialGradient>
					<circle fill="url(#SVGID_42_)" cx="141.117" cy="162.103" r="1.796"/>
				</g>
				<g>
					
						<radialGradient id="SVGID_43_" cx="211.4482" cy="735.2852" r="1.3169" gradientTransform="matrix(1 0 0 1 -100 -591)" gradientUnits="userSpaceOnUse">
						<stop  offset="0.3681" style="stop-color:#13A7AE;stop-opacity:0"/>
						<stop  offset="0.5236" style="stop-color:#0FB4BD;stop-opacity:0.2337"/>
						<stop  offset="0.8218" style="stop-color:#06D5E4;stop-opacity:0.6821"/>
						<stop  offset="1" style="stop-color:#00EBFF;stop-opacity:0.95"/>
					</radialGradient>
					<circle fill="url(#SVGID_43_)" cx="111.448" cy="144.119" r="1.534"/>
				</g>
				<g>
					
						<radialGradient id="SVGID_44_" cx="237.916" cy="738.376" r="1.3167" gradientTransform="matrix(1 0 0 1 -100 -591)" gradientUnits="userSpaceOnUse">
						<stop  offset="0.3681" style="stop-color:#13A7AE;stop-opacity:0"/>
						<stop  offset="0.5236" style="stop-color:#0FB4BD;stop-opacity:0.2337"/>
						<stop  offset="0.8218" style="stop-color:#06D5E4;stop-opacity:0.6821"/>
						<stop  offset="1" style="stop-color:#00EBFF;stop-opacity:0.95"/>
					</radialGradient>
					<circle fill="url(#SVGID_44_)" cx="137.916" cy="147.209" r="1.534"/>
				</g>
				<g>
					
						<radialGradient id="SVGID_45_" cx="241.1172" cy="734.6426" r="1.3165" gradientTransform="matrix(1 0 0 1 -100 -591)" gradientUnits="userSpaceOnUse">
						<stop  offset="0.3681" style="stop-color:#13A7AE;stop-opacity:0"/>
						<stop  offset="0.5236" style="stop-color:#0FB4BD;stop-opacity:0.2337"/>
						<stop  offset="0.8218" style="stop-color:#06D5E4;stop-opacity:0.6821"/>
						<stop  offset="1" style="stop-color:#00EBFF;stop-opacity:0.95"/>
					</radialGradient>
					<circle fill="url(#SVGID_45_)" cx="141.117" cy="143.473" r="1.534"/>
				</g>
				<g>
					
						<radialGradient id="SVGID_46_" cx="225.9795" cy="736.4639" r="2.8195" gradientTransform="matrix(1 0 0 1 -100 -591)" gradientUnits="userSpaceOnUse">
						<stop  offset="0.3681" style="stop-color:#13A7AE;stop-opacity:0"/>
						<stop  offset="0.5236" style="stop-color:#0FB4BD;stop-opacity:0.2337"/>
						<stop  offset="0.8218" style="stop-color:#06D5E4;stop-opacity:0.6821"/>
						<stop  offset="1" style="stop-color:#00EBFF;stop-opacity:0.95"/>
					</radialGradient>
					<circle fill="url(#SVGID_46_)" cx="125.98" cy="145.104" r="3.284"/>
				</g>
			</g>
		</g>
	</g>
</g>
<g id="outline_x5F_white">
	<path fill="#FFFFFF" d="M170.984,114.82c-0.036-0.041-0.072-0.08-0.11-0.121c-0.235-0.258-23.853-25.893-43.34-46.741
		c-0.093-0.098-0.187-0.195-0.281-0.29c-9.103-9.104-18.651-12.735-24.542-14.548c-0.917-2.712-2.308-5.108-4.142-7.142
		c-0.315-0.349-1.127-1.247-8.418-8.143c-1.316-1.245-2.898-2.176-4.626-2.723c-0.958-0.301-3.002-0.81-5.922-0.81
		c-0.648,0-1.345,0.036-2.064,0.09c-1.49-2.197-3.017-4.459-4.465-6.614c-0.274-0.409-0.575-0.802-0.898-1.174
		c-2.502-2.882-6.197-4.535-10.136-4.535c-4.281,0-8.799,1.86-14.648,6.031c-4.069,2.902-8.559,6.774-12.984,11.2
		c-17.644,17.642-17.28,25.596-17.161,28.21c0.175,3.832,1.854,7.258,4.726,9.649c0.358,0.298,0.733,0.574,1.124,0.828
		c2.78,1.812,5.153,3.357,7.204,4.69c-0.142,3.74,0.615,6.358,1.159,7.703c0.573,1.415,1.41,2.707,2.466,3.809
		c6.879,7.168,7.61,7.795,8.046,8.17c2.321,1.996,5.19,3.451,8.531,4.33c1.958,6.6,5.49,16.801,13.34,24.649
		c0.096,0.097,0.193,0.188,0.292,0.282c20.848,19.484,46.354,42.98,46.608,43.216c0.041,0.038,0.082,0.075,0.124,0.112
		c8.023,7.187,16.736,10.828,25.898,10.828c10.647,0,20.928-4.879,30.551-14.504C185.234,153.363,186.607,132.257,170.984,114.82z
		 M158.831,162.792c-6.59,6.591-14.095,10.989-22.063,10.989c-5.775,0-11.8-2.312-17.895-7.771c0,0-25.487-23.475-46.544-43.155
		c-9.516-9.519-10.928-24.841-12.711-26.489c-1.019-0.943-1.867-1.118-2.747-1.118c-0.519,0-1.047,0.061-1.627,0.061
		c-0.458,0-0.948-0.037-1.491-0.173c-1.969-0.488-3.189-1.225-3.924-1.848c-0.376-0.354-0.909-0.881-1.528-1.505
		c-1.766-1.795-4.512-4.648-5.416-5.588c-0.191-0.2-0.301-0.315-0.301-0.315s-1.197-2.977,1.068-8.834
		c-2.953-1.92-7.339-4.767-14.005-9.111c-2.081-1.731,3.849-10.753,13.245-20.148c8.152-8.151,16.044-13.716,19.148-13.716
		c0.475,0,0.838,0.13,1.072,0.4c0,0,0.898,1.337,2.241,3.326l0,0c0.616,0.913,1.331,1.969,2.092,3.093
		c0.035,0.052,0.069,0.102,0.105,0.155c0.169,0.25,0.341,0.503,0.515,0.759c0.106,0.157,0.212,0.312,0.319,0.47
		c0.159,0.234,0.319,0.469,0.48,0.707c0.125,0.184,0.25,0.368,0.376,0.553c0.136,0.2,0.271,0.398,0.408,0.599
		c0.189,0.277,0.377,0.554,0.567,0.832c0.089,0.131,0.178,0.261,0.267,0.392c0.253,0.37,0.505,0.739,0.756,1.105
		c0.033,0.048,0.066,0.097,0.099,0.145c0.298,0.436,0.594,0.868,0.886,1.292c0.383-0.152,0.755-0.291,1.117-0.417
		c0.002-0.001,0.004-0.002,0.006-0.002c0.283-0.098,0.553-0.182,0.823-0.266c0.083-0.026,0.171-0.057,0.254-0.081
		c0.259-0.077,0.507-0.142,0.754-0.206c0.084-0.022,0.172-0.048,0.254-0.068c0.246-0.061,0.481-0.112,0.714-0.161
		c0.074-0.016,0.151-0.034,0.223-0.049c0.235-0.047,0.46-0.085,0.681-0.121c0.061-0.01,0.125-0.022,0.186-0.031
		c0.224-0.034,0.438-0.061,0.647-0.085c0.049-0.005,0.1-0.013,0.147-0.018c0.211-0.022,0.413-0.039,0.607-0.052
		c0.039-0.002,0.079-0.006,0.117-0.008c0.195-0.012,0.379-0.019,0.557-0.022c0.032,0,0.065-0.002,0.097-0.002
		c0.187-0.003,0.365-0.002,0.532,0.002c0.008,0,0.017,0,0.025,0c0.176,0.005,0.342,0.013,0.495,0.024c0.002,0,0.005,0,0.007,0
		c0.943,0.066,1.438,0.222,1.438,0.222s6.296,6.058,7.705,7.585c-0.01-0.075-0.027-0.145-0.039-0.218
		c0.029,0.03,0.07,0.072,0.09,0.095c0.647,0.718,1.363,1.807,1.823,3.39c0.666,2.299-0.477,2.921,1.381,4.928
		c1.827,1.975,14.082,1.996,25.904,13.82c19.684,21.057,43.278,46.676,43.278,46.676
		C175.048,137.341,170.201,151.427,158.831,162.792z"/>
</g>
<g id="outline_x5F_black">
	<path d="M166.518,118.825l-0.026-0.03l-0.028-0.029c-0.234-0.258-23.837-25.876-43.312-46.708l-0.066-0.074l-0.07-0.071
		c-9.453-9.455-19.223-12.259-24.471-13.765c-0.282-0.081-0.585-0.167-0.879-0.254c-0.061-0.618-0.182-1.346-0.417-2.156
		c-0.646-2.221-1.698-4.15-3.131-5.738c-0.84-0.929-5.427-5.287-8.086-7.803l-1-0.946l-1.312-0.416
		c-0.508-0.161-1.922-0.533-4.115-0.533c-1.55,0-3.366,0.191-5.405,0.675c-1.855-2.811-3.729-5.762-5.802-8.848
		c-0.133-0.198-0.277-0.388-0.433-0.568c-0.283-0.328-0.549-0.566-0.691-0.688c-0.287-0.253-0.596-0.475-0.92-0.665
		c-0.958-0.601-2.287-1.117-4.025-1.117C55.182,29.09,43.812,39.34,39.165,43.988c-4.74,4.738-8.845,9.601-11.56,13.69
		c-1.689,2.545-5.935,8.169-2.396,13.033c0.148,0.221,0.313,0.432,0.493,0.634c0.118,0.136,0.395,0.441,0.79,0.762
		c0.161,0.131,0.328,0.253,0.502,0.366c3.429,2.234,6.786,4.381,9.853,6.364c-1.182,5.118-0.235,8.279,0.175,9.293l0.433,1.07
		l0.8,0.833c4.432,4.618,6.999,7.234,7.628,7.775c1.687,1.45,3.849,2.51,6.425,3.149c0.925,0.23,1.87,0.346,2.882,0.35
		c0.145,0.488,0.295,1.012,0.432,1.49c1.779,6.205,4.758,16.592,12.465,24.301l0.072,0.071l0.074,0.069
		c20.831,19.471,46.32,42.951,46.576,43.186l0.03,0.028l0.031,0.028c6.89,6.17,14.256,9.299,21.896,9.299
		c9,0,17.854-4.288,26.311-12.747c7.119-7.118,11.307-14.574,12.438-22.158C176.871,135.77,173.846,127.004,166.518,118.825z
		 M158.831,162.792c-6.59,6.591-14.095,10.989-22.063,10.989c-5.775,0-11.8-2.312-17.895-7.771c0,0-25.487-23.475-46.544-43.155
		c-9.516-9.519-10.928-24.841-12.711-26.489c-1.019-0.943-1.867-1.118-2.747-1.118c-0.519,0-1.047,0.061-1.627,0.061
		c-0.458,0-0.949-0.037-1.491-0.173c-1.999-0.496-3.229-1.248-3.96-1.877c-0.729-0.627-7.21-7.379-7.21-7.379
		s-1.197-2.977,1.068-8.835c-1.366-0.889-3.042-1.977-5.106-3.319c-0.003,0.006-0.005,0.012-0.007,0.018
		c-2.922-1.922-4.078-2.673-8.891-5.81c-0.036-0.029-0.062-0.065-0.093-0.098c0.006-0.002,0.012-0.004,0.018-0.006
		c-1.8-1.93,4.072-10.798,13.32-20.045c8.149-8.149,16.026-13.7,19.13-13.7c0.419,0,0.751,0.102,0.984,0.311
		c0.002-0.006,0.005-0.013,0.006-0.018c0.032,0.031,0.069,0.056,0.1,0.091c0,0,2.633,3.919,5.651,8.358c0,0,0,0-0.001,0
		c1.139,1.676,2.332,3.424,3.46,5.066c3.224-1.284,5.729-1.592,7.381-1.592c1.503,0,2.304,0.253,2.304,0.253
		s6.951,6.574,7.754,7.462c0.647,0.718,1.363,1.807,1.823,3.39c0.666,2.299-0.477,2.921,1.381,4.928
		c1.827,1.975,14.082,1.996,25.904,13.82c19.684,21.057,43.278,46.676,43.278,46.676
		C175.048,137.341,170.201,151.427,158.831,162.792z"/>
</g>
</svg>
