<?xml version="1.0" encoding="utf-8"?>
<!-- Generator: Adobe Illustrator 15.0.0, SVG Export Plug-In . SVG Version: 6.00 Build 0)  -->
<!DOCTYPE svg PUBLIC "-//W3C//DTD SVG 1.1//EN" "http://www.w3.org/Graphics/SVG/1.1/DTD/svg11.dtd">
<svg version="1.1" xmlns="http://www.w3.org/2000/svg" xmlns:xlink="http://www.w3.org/1999/xlink" x="0px" y="0px" width="200px"
	 height="200px" viewBox="0 0 200 200" enable-background="new 0 0 200 200" xml:space="preserve">
<g id="icon">
	<g id="Layer_2">
	</g>
	<g id="Layer_1_1_">
		<g>
			<path fill="none" stroke="#FFFFFF" stroke-width="12" stroke-miterlimit="10" d="M155.396,165.245
				c-2.643-3.372-7.307-8.313-7.307-8.313l-15.523,9.7c0,0,8.22-1.512,14.61,3.591c1.747,1.393,3.31,2.586,4.716,3.471
				c0.431,0.459,1.178,0.852,2.142,1.136c0.946,0.388,1.806,0.552,2.585,0.44c0.339,0.022,0.682,0.043,1.035,0.043
				c3.416,0,6.186-1.125,6.186-2.514C163.84,171.454,159.639,170.66,155.396,165.245z"/>
			<path fill="none" stroke="#FFFFFF" stroke-width="12" stroke-miterlimit="10" d="M51.801,156.932c0,0-4.913,4.76-7.307,8.313
				c-3.126,4.644-8.54,6.194-8.54,7.554c0,1.389,2.769,2.514,6.186,2.514c0.381,0,0.75-0.021,1.112-0.047
				c0.889,0.133,1.877-0.088,2.984-0.599c0.62-0.224,1.128-0.495,1.485-0.806c1.476-0.896,3.13-2.154,4.991-3.641
				c6.392-5.102,14.61-3.59,14.61-3.59L51.801,156.932z"/>
			<path fill="none" stroke="#FFFFFF" stroke-width="12" stroke-miterlimit="10" d="M24.799,57.324c-9.555,0-17.3,6.757-17.3,15.093
				c0,8.333,7.745,15.092,17.3,15.092c9.556,0,17.3-6.759,17.3-15.092C42.099,64.081,34.354,57.324,24.799,57.324z M26.999,80.315
				c-5.002,0-9.056-3.537-9.056-7.898c0-4.363,4.054-7.899,9.056-7.899c5,0,9.056,3.536,9.056,7.899
				C36.055,76.778,31.999,80.315,26.999,80.315z"/>
			<path fill="none" stroke="#FFFFFF" stroke-width="12" stroke-miterlimit="10" d="M175.201,57.324
				c-9.555,0-17.301,6.757-17.301,15.093c0,8.333,7.746,15.092,17.301,15.092c9.557,0,17.3-6.759,17.3-15.092
				C192.501,64.081,184.758,57.324,175.201,57.324z M174.102,80.315c-5,0-9.054-3.537-9.054-7.898c0-4.363,4.054-7.899,9.054-7.899
				c5.002,0,9.057,3.536,9.057,7.899C183.157,76.778,179.104,80.315,174.102,80.315z"/>
			<g>
				
					<radialGradient id="SVGID_1_" cx="150.2266" cy="-72.5469" r="81.3536" fx="150.563" fy="-63.4352" gradientTransform="matrix(1 0 0 -0.8893 -50 32.2508)" gradientUnits="userSpaceOnUse">
					<stop  offset="0.0736" style="stop-color:#B8CFF0"/>
					<stop  offset="0.1718" style="stop-color:#8DA6C7"/>
					<stop  offset="0.6687" style="stop-color:#000000"/>
					<stop  offset="0.773" style="stop-color:#08090B"/>
					<stop  offset="0.9509" style="stop-color:#3F4A5D"/>
				</radialGradient>
				<path fill="url(#SVGID_1_)" d="M100.227,169.396c-43.298,0-73.537-20.34-73.537-49.461c0-17.16,7.717-29.585,13.352-38.659
					c2.772-4.464,5.166-8.319,5.166-10.587c0-3.229-4.141-10.31-5.514-12.068c-1.894-2.428-2.896-4.887-2.896-7.113
					c0-7.816,6.953-14.924,19.577-20.016c11.762-4.744,27.335-7.356,43.852-7.356c16.518,0,32.091,2.612,43.853,7.356
					c12.624,5.091,19.576,12.2,19.576,20.016c0,1.896-0.256,3.999-2.11,6.519c-0.104,0.141-0.253,0.336-0.44,0.582
					c-5.295,6.908-6.084,9.879-6.084,11.035c0,2.393,2.451,6.388,5.291,11.014c5.677,9.249,13.451,21.917,13.451,39.278
					C173.764,149.059,143.523,169.396,100.227,169.396z"/>
			</g>
			<g>
				
					<radialGradient id="SVGID_2_" cx="469.5752" cy="-113.0132" r="80.5874" fx="469.6137" fy="-130.5957" gradientTransform="matrix(1.1427 0 0 -0.7013 -435.8785 -31.1472)" gradientUnits="userSpaceOnUse">
					<stop  offset="0.6564" style="stop-color:#000000"/>
					<stop  offset="0.7607" style="stop-color:#7CA5C3;stop-opacity:0"/>
				</radialGradient>
				<path fill="url(#SVGID_2_)" d="M152.02,69.644c0-4.537,6.109-12.041,7.109-13.395c1.396-1.898,1.525-3.317,1.525-4.74
					c0-13.461-27.053-24.372-60.428-24.372c-33.373,0-60.429,10.911-60.429,24.372c0,1.449,0.692,3.258,2.261,5.268
					c1.229,1.574,6.148,9.448,6.148,13.914c0,8.542-18.518,23.543-18.518,49.247c0,28.217,30.493,46.459,70.537,46.459
					c40.046,0,70.537-18.242,70.537-46.459C170.764,93.825,152.02,78.46,152.02,69.644z"/>
			</g>
			
				<radialGradient id="SVGID_3_" cx="474.5762" cy="16.5386" r="170.9107" gradientTransform="matrix(1.1427 0 0 -1 -435.9586 61)" gradientUnits="userSpaceOnUse">
				<stop  offset="0.0798" style="stop-color:#B8C2B6"/>
				<stop  offset="0.1595" style="stop-color:#8D9D81"/>
				<stop  offset="0.7301" style="stop-color:#000000"/>
				<stop  offset="0.8098" style="stop-color:#08090B"/>
				<stop  offset="1" style="stop-color:#3F4A5D"/>
			</radialGradient>
			<ellipse fill="url(#SVGID_3_)" cx="100.227" cy="50.599" rx="60.052" ry="23.46"/>
			
				<radialGradient id="SVGID_4_" cx="469.2275" cy="-428.7017" r="54.9593" gradientTransform="matrix(1.1427 0 0 -0.4585 -435.9586 -142.0201)" gradientUnits="userSpaceOnUse">
				<stop  offset="0.7301" style="stop-color:#00D918"/>
				<stop  offset="1" style="stop-color:#000000"/>
			</radialGradient>
			<ellipse fill="url(#SVGID_4_)" cx="100.228" cy="48.936" rx="54.415" ry="20.07"/>
			
				<linearGradient id="SVGID_5_" gradientUnits="userSpaceOnUse" x1="149.3965" y1="12.2554" x2="154.7529" y2="-28.3407" gradientTransform="matrix(1 0 0 -1 -50 61)">
				<stop  offset="0" style="stop-color:#00FF00"/>
				<stop  offset="0.1399" style="stop-color:#00F600"/>
				<stop  offset="0.3668" style="stop-color:#00DE00"/>
				<stop  offset="0.6525" style="stop-color:#00B700"/>
				<stop  offset="0.9829" style="stop-color:#008100"/>
				<stop  offset="1" style="stop-color:#007E00"/>
			</linearGradient>
			<path fill="url(#SVGID_5_)" d="M100.227,69.006c24.276,0,44.832-5.865,51.839-13.962c-1.148-10.197-23.914-18.331-51.839-18.331
				c-27.926,0-50.691,8.132-51.84,18.33C55.395,63.141,75.951,69.006,100.227,69.006z"/>
			<g>
				<g>
					
						<radialGradient id="SVGID_6_" cx="500.7148" cy="5.96" r="12.1921" gradientTransform="matrix(1.1427 0 0 -1 -435.9586 61)" gradientUnits="userSpaceOnUse">
						<stop  offset="0.1758" style="stop-color:#96FF00"/>
						<stop  offset="1" style="stop-color:#00B300;stop-opacity:0"/>
					</radialGradient>
					<ellipse fill="url(#SVGID_6_)" cx="136.209" cy="55.04" rx="13.932" ry="12.192"/>
					
						<radialGradient id="SVGID_7_" cx="481.082" cy="19.791" r="9.1699" gradientTransform="matrix(1.1427 0 0 -1 -435.9586 61)" gradientUnits="userSpaceOnUse">
						<stop  offset="0.1758" style="stop-color:#96FF00"/>
						<stop  offset="1" style="stop-color:#00B300;stop-opacity:0"/>
					</radialGradient>
					<ellipse fill="url(#SVGID_7_)" cx="113.773" cy="41.209" rx="10.479" ry="9.171"/>
					
						<radialGradient id="SVGID_8_" cx="445.4375" cy="10.6201" r="9.1689" gradientTransform="matrix(1.1427 0 0 -1 -435.9586 61)" gradientUnits="userSpaceOnUse">
						<stop  offset="0.1758" style="stop-color:#96FF00"/>
						<stop  offset="1" style="stop-color:#00B300;stop-opacity:0"/>
					</radialGradient>
					<ellipse fill="url(#SVGID_8_)" cx="73.043" cy="50.38" rx="10.477" ry="9.169"/>
					
						<radialGradient id="SVGID_9_" cx="457.0488" cy="19.3262" r="16.4871" gradientTransform="matrix(1.1427 0 0 -1 -435.9586 61)" gradientUnits="userSpaceOnUse">
						<stop  offset="0.1758" style="stop-color:#96FF00"/>
						<stop  offset="1" style="stop-color:#00B300;stop-opacity:0"/>
					</radialGradient>
					<ellipse fill="url(#SVGID_9_)" cx="86.311" cy="41.674" rx="18.841" ry="16.486"/>
					
						<radialGradient id="SVGID_10_" cx="466.8262" cy="3.3027" r="16.4888" gradientTransform="matrix(1.1427 0 0 -1 -435.9586 61)" gradientUnits="userSpaceOnUse">
						<stop  offset="0.1758" style="stop-color:#96FF00"/>
						<stop  offset="1" style="stop-color:#00B300;stop-opacity:0"/>
					</radialGradient>
					<ellipse fill="url(#SVGID_10_)" cx="97.484" cy="57.697" rx="18.84" ry="16.49"/>
					
						<radialGradient id="SVGID_11_" cx="483.3145" cy="8.4199" r="8.2437" gradientTransform="matrix(1.1427 0 0 -1 -435.9586 61)" gradientUnits="userSpaceOnUse">
						<stop  offset="0.1758" style="stop-color:#96FF00"/>
						<stop  offset="1" style="stop-color:#00B300;stop-opacity:0"/>
					</radialGradient>
					<ellipse fill="url(#SVGID_11_)" cx="116.324" cy="52.58" rx="9.42" ry="8.244"/>
					
						<radialGradient id="SVGID_12_" cx="470.4941" cy="28.7383" r="5.8674" gradientTransform="matrix(1.1427 0 0 -1 -435.9586 61)" gradientUnits="userSpaceOnUse">
						<stop  offset="0.1758" style="stop-color:#96FF00"/>
						<stop  offset="1" style="stop-color:#00B300;stop-opacity:0"/>
					</radialGradient>
					<ellipse fill="url(#SVGID_12_)" cx="101.675" cy="32.262" rx="6.705" ry="5.868"/>
					
						<radialGradient id="SVGID_13_" cx="494.7148" cy="15.4336" r="4.9709" gradientTransform="matrix(1.1427 0 0 -1 -435.9586 61)" gradientUnits="userSpaceOnUse">
						<stop  offset="0.1758" style="stop-color:#96FF00"/>
						<stop  offset="1" style="stop-color:#00B300;stop-opacity:0"/>
					</radialGradient>
					<ellipse fill="url(#SVGID_13_)" cx="129.354" cy="45.566" rx="5.68" ry="4.97"/>
					
						<radialGradient id="SVGID_14_" cx="442.3926" cy="30.7432" r="3.4504" gradientTransform="matrix(1.1427 0 0 -1 -435.9586 61)" gradientUnits="userSpaceOnUse">
						<stop  offset="0.1758" style="stop-color:#96FF00"/>
						<stop  offset="1" style="stop-color:#00B300;stop-opacity:0"/>
					</radialGradient>
					<ellipse fill="url(#SVGID_14_)" cx="69.564" cy="30.257" rx="3.942" ry="3.451"/>
					
						<radialGradient id="SVGID_15_" cx="432.6914" cy="2.8379" r="5.0168" gradientTransform="matrix(1.1427 0 0 -1 -435.9586 61)" gradientUnits="userSpaceOnUse">
						<stop  offset="0.1758" style="stop-color:#96FF00"/>
						<stop  offset="1" style="stop-color:#00B300;stop-opacity:0"/>
					</radialGradient>
					<ellipse fill="url(#SVGID_15_)" cx="58.478" cy="58.162" rx="5.733" ry="5.017"/>
					
						<radialGradient id="SVGID_16_" cx="452.7637" cy="22.9995" r="3.6465" gradientTransform="matrix(1.1427 0 0 -1 -435.9586 61)" gradientUnits="userSpaceOnUse">
						<stop  offset="0.1758" style="stop-color:#96FF00"/>
						<stop  offset="1" style="stop-color:#00B300;stop-opacity:0"/>
					</radialGradient>
					<path fill="url(#SVGID_16_)" d="M85.582,37.999c0,2.015-1.866,3.648-4.167,3.648c-2.3,0-4.166-1.634-4.166-3.648
						c0-2.012,1.866-3.645,4.166-3.645C83.716,34.354,85.582,35.987,85.582,37.999z"/>
				</g>
				<g>
					<g>
						
							<radialGradient id="SVGID_17_" cx="465.9688" cy="-3.1611" r="4.6443" gradientTransform="matrix(1.1427 0 0 -1 -435.9586 61)" gradientUnits="userSpaceOnUse">
							<stop  offset="0.3681" style="stop-color:#13FF0E;stop-opacity:0"/>
							<stop  offset="0.4596" style="stop-color:#22FF0E;stop-opacity:0.1376"/>
							<stop  offset="0.6362" style="stop-color:#4AFF0E;stop-opacity:0.403"/>
							<stop  offset="0.8776" style="stop-color:#89FF0E;stop-opacity:0.766"/>
							<stop  offset="1" style="stop-color:#ACFF0E;stop-opacity:0.95"/>
						</radialGradient>
						<path fill="url(#SVGID_17_)" d="M103.575,63.821c0,0-3.236,1.634-7.223,1.634c-3.993,0-7.224-1.634-7.224-1.634
							c0-3.491,3.23-6.323,7.224-6.323C100.339,57.498,103.575,60.33,103.575,63.821z"/>
					</g>
					<g>
						
							<radialGradient id="SVGID_18_" cx="432.6914" cy="4.3193" r="3.3209" gradientTransform="matrix(1.1427 0 0 -1 -435.9586 61)" gradientUnits="userSpaceOnUse">
							<stop  offset="0.3681" style="stop-color:#13FF0E;stop-opacity:0"/>
							<stop  offset="0.4596" style="stop-color:#22FF0E;stop-opacity:0.1376"/>
							<stop  offset="0.6362" style="stop-color:#4AFF0E;stop-opacity:0.403"/>
							<stop  offset="0.8776" style="stop-color:#89FF0E;stop-opacity:0.766"/>
							<stop  offset="1" style="stop-color:#ACFF0E;stop-opacity:0.95"/>
						</radialGradient>
						<ellipse fill="url(#SVGID_18_)" cx="58.479" cy="56.259" rx="4.421" ry="3.871"/>
					</g>
					<g>
						
							<radialGradient id="SVGID_19_" cx="505.9824" cy="9.9854" r="3.3214" gradientTransform="matrix(1.1427 0 0 -1 -435.9586 61)" gradientUnits="userSpaceOnUse">
							<stop  offset="0.3681" style="stop-color:#13FF0E;stop-opacity:0"/>
							<stop  offset="0.4596" style="stop-color:#22FF0E;stop-opacity:0.1376"/>
							<stop  offset="0.6362" style="stop-color:#4AFF0E;stop-opacity:0.403"/>
							<stop  offset="0.8776" style="stop-color:#89FF0E;stop-opacity:0.766"/>
							<stop  offset="1" style="stop-color:#ACFF0E;stop-opacity:0.95"/>
						</radialGradient>
						<ellipse fill="url(#SVGID_19_)" cx="142.227" cy="50.592" rx="4.424" ry="3.869"/>
					</g>
					<g>
						
							<radialGradient id="SVGID_20_" cx="487.1504" cy="15.8477" r="2.1301" gradientTransform="matrix(1.1427 0 0 -1 -435.9586 61)" gradientUnits="userSpaceOnUse">
							<stop  offset="0.3681" style="stop-color:#13FF0E;stop-opacity:0"/>
							<stop  offset="0.4596" style="stop-color:#22FF0E;stop-opacity:0.1376"/>
							<stop  offset="0.6362" style="stop-color:#4AFF0E;stop-opacity:0.403"/>
							<stop  offset="0.8776" style="stop-color:#89FF0E;stop-opacity:0.766"/>
							<stop  offset="1" style="stop-color:#ACFF0E;stop-opacity:0.95"/>
						</radialGradient>
						<ellipse fill="url(#SVGID_20_)" cx="120.709" cy="44.881" rx="2.836" ry="2.482"/>
					</g>
					<g>
						
							<radialGradient id="SVGID_21_" cx="484.6699" cy="-1.3013" r="2.1291" gradientTransform="matrix(1.1427 0 0 -1 -435.9586 61)" gradientUnits="userSpaceOnUse">
							<stop  offset="0.3681" style="stop-color:#13FF0E;stop-opacity:0"/>
							<stop  offset="0.4596" style="stop-color:#22FF0E;stop-opacity:0.1376"/>
							<stop  offset="0.6362" style="stop-color:#4AFF0E;stop-opacity:0.403"/>
							<stop  offset="0.8776" style="stop-color:#89FF0E;stop-opacity:0.766"/>
							<stop  offset="1" style="stop-color:#ACFF0E;stop-opacity:0.95"/>
						</radialGradient>
						<ellipse fill="url(#SVGID_21_)" cx="117.874" cy="62.029" rx="2.835" ry="2.482"/>
					</g>
					<g>
						
							<radialGradient id="SVGID_22_" cx="498.2412" cy="3.2266" r="2.1616" gradientTransform="matrix(1.1427 0 0 -1 -435.9586 61)" gradientUnits="userSpaceOnUse">
							<stop  offset="0.3681" style="stop-color:#13FF0E;stop-opacity:0"/>
							<stop  offset="0.4596" style="stop-color:#22FF0E;stop-opacity:0.1376"/>
							<stop  offset="0.6362" style="stop-color:#4AFF0E;stop-opacity:0.403"/>
							<stop  offset="0.8776" style="stop-color:#89FF0E;stop-opacity:0.766"/>
							<stop  offset="1" style="stop-color:#ACFF0E;stop-opacity:0.95"/>
						</radialGradient>
						<ellipse fill="url(#SVGID_22_)" cx="133.382" cy="57.498" rx="2.878" ry="2.52"/>
					</g>
					<g>
						
							<radialGradient id="SVGID_23_" cx="469.3789" cy="10.1768" r="1.8192" gradientTransform="matrix(1.1427 0 0 -1 -435.9586 61)" gradientUnits="userSpaceOnUse">
							<stop  offset="0.3681" style="stop-color:#13FF0E;stop-opacity:0"/>
							<stop  offset="0.4596" style="stop-color:#22FF0E;stop-opacity:0.1376"/>
							<stop  offset="0.6362" style="stop-color:#4AFF0E;stop-opacity:0.403"/>
							<stop  offset="0.8776" style="stop-color:#89FF0E;stop-opacity:0.766"/>
							<stop  offset="1" style="stop-color:#ACFF0E;stop-opacity:0.95"/>
						</radialGradient>
						<ellipse fill="url(#SVGID_23_)" cx="100.401" cy="50.592" rx="2.422" ry="2.119"/>
					</g>
					<g>
						
							<radialGradient id="SVGID_24_" cx="454.3809" cy="31.8955" r="1.819" gradientTransform="matrix(1.1427 0 0 -1 -435.9586 61)" gradientUnits="userSpaceOnUse">
							<stop  offset="0.3681" style="stop-color:#13FF0E;stop-opacity:0"/>
							<stop  offset="0.4596" style="stop-color:#22FF0E;stop-opacity:0.1376"/>
							<stop  offset="0.6362" style="stop-color:#4AFF0E;stop-opacity:0.403"/>
							<stop  offset="0.8776" style="stop-color:#89FF0E;stop-opacity:0.766"/>
							<stop  offset="1" style="stop-color:#ACFF0E;stop-opacity:0.95"/>
						</radialGradient>
						<ellipse fill="url(#SVGID_24_)" cx="83.262" cy="28.872" rx="2.422" ry="2.121"/>
					</g>
					<g>
						
							<radialGradient id="SVGID_25_" cx="484.6699" cy="28.3887" r="1.8194" gradientTransform="matrix(1.1427 0 0 -1 -435.9586 61)" gradientUnits="userSpaceOnUse">
							<stop  offset="0.3681" style="stop-color:#13FF0E;stop-opacity:0"/>
							<stop  offset="0.4596" style="stop-color:#22FF0E;stop-opacity:0.1376"/>
							<stop  offset="0.6362" style="stop-color:#4AFF0E;stop-opacity:0.403"/>
							<stop  offset="0.8776" style="stop-color:#89FF0E;stop-opacity:0.766"/>
							<stop  offset="1" style="stop-color:#ACFF0E;stop-opacity:0.95"/>
						</radialGradient>
						<ellipse fill="url(#SVGID_25_)" cx="117.875" cy="32.38" rx="2.421" ry="2.12"/>
					</g>
					<g>
						
							<radialGradient id="SVGID_26_" cx="462.8154" cy="17.6548" r="3.8959" gradientTransform="matrix(1.1427 0 0 -1 -435.9586 61)" gradientUnits="userSpaceOnUse">
							<stop  offset="0.3681" style="stop-color:#13FF0E;stop-opacity:0"/>
							<stop  offset="0.4596" style="stop-color:#22FF0E;stop-opacity:0.1376"/>
							<stop  offset="0.6362" style="stop-color:#4AFF0E;stop-opacity:0.403"/>
							<stop  offset="0.8776" style="stop-color:#89FF0E;stop-opacity:0.766"/>
							<stop  offset="1" style="stop-color:#ACFF0E;stop-opacity:0.95"/>
						</radialGradient>
						<ellipse fill="url(#SVGID_26_)" cx="92.901" cy="42.848" rx="5.188" ry="4.539"/>
					</g>
					<g>
						
							<radialGradient id="SVGID_27_" cx="461.6973" cy="32.168" r="3.8957" gradientTransform="matrix(1.1427 0 0 -1 -435.9586 61)" gradientUnits="userSpaceOnUse">
							<stop  offset="0.3681" style="stop-color:#13FF0E;stop-opacity:0"/>
							<stop  offset="0.4596" style="stop-color:#22FF0E;stop-opacity:0.1376"/>
							<stop  offset="0.6362" style="stop-color:#4AFF0E;stop-opacity:0.403"/>
							<stop  offset="0.8776" style="stop-color:#89FF0E;stop-opacity:0.766"/>
							<stop  offset="1" style="stop-color:#ACFF0E;stop-opacity:0.95"/>
						</radialGradient>
						<ellipse fill="url(#SVGID_27_)" cx="91.623" cy="28.336" rx="5.187" ry="4.54"/>
					</g>
					<g>
						
							<radialGradient id="SVGID_28_" cx="439.332" cy="16.3291" r="2.6287" gradientTransform="matrix(1.1427 0 0 -1 -435.9586 61)" gradientUnits="userSpaceOnUse">
							<stop  offset="0.3681" style="stop-color:#13FF0E;stop-opacity:0"/>
							<stop  offset="0.4596" style="stop-color:#22FF0E;stop-opacity:0.1376"/>
							<stop  offset="0.6362" style="stop-color:#4AFF0E;stop-opacity:0.403"/>
							<stop  offset="0.8776" style="stop-color:#89FF0E;stop-opacity:0.766"/>
							<stop  offset="1" style="stop-color:#ACFF0E;stop-opacity:0.95"/>
						</radialGradient>
						<ellipse fill="url(#SVGID_28_)" cx="66.066" cy="44.336" rx="3.5" ry="3.063"/>
					</g>
					<g>
						
							<radialGradient id="SVGID_29_" cx="449.1182" cy="19.7817" r="4.8648" gradientTransform="matrix(1.1427 0 0 -1 -435.9586 61)" gradientUnits="userSpaceOnUse">
							<stop  offset="0.3681" style="stop-color:#13FF0E;stop-opacity:0"/>
							<stop  offset="0.4596" style="stop-color:#22FF0E;stop-opacity:0.1376"/>
							<stop  offset="0.6362" style="stop-color:#4AFF0E;stop-opacity:0.403"/>
							<stop  offset="0.8776" style="stop-color:#89FF0E;stop-opacity:0.766"/>
							<stop  offset="1" style="stop-color:#ACFF0E;stop-opacity:0.95"/>
						</radialGradient>
						<path fill="url(#SVGID_29_)" d="M83.727,40.597c0,3.132-2.899,5.669-6.477,5.669c-3.581,0-6.479-2.537-6.479-5.669
							c0-3.132,2.898-5.667,6.479-5.667C80.827,34.93,83.727,37.465,83.727,40.597z"/>
					</g>
					<g>
						
							<radialGradient id="SVGID_30_" cx="447.0957" cy="7.251" r="5.0963" gradientTransform="matrix(1.1427 0 0 -1 -435.9586 61)" gradientUnits="userSpaceOnUse">
							<stop  offset="0.3681" style="stop-color:#13FF0E;stop-opacity:0"/>
							<stop  offset="0.4596" style="stop-color:#22FF0E;stop-opacity:0.1376"/>
							<stop  offset="0.6362" style="stop-color:#4AFF0E;stop-opacity:0.403"/>
							<stop  offset="0.8776" style="stop-color:#89FF0E;stop-opacity:0.766"/>
							<stop  offset="1" style="stop-color:#ACFF0E;stop-opacity:0.95"/>
						</radialGradient>
						<path fill="url(#SVGID_30_)" d="M82.627,55.198c0,3.717-15.378,3.717-15.378,0c0-3.718,3.44-6.727,7.69-6.727
							C79.186,48.472,82.627,51.48,82.627,55.198z"/>
					</g>
				</g>
				
					<radialGradient id="SVGID_31_" cx="466.5244" cy="-6.0269" r="8.4988" gradientTransform="matrix(1.1427 0 0 -1 -435.9586 61)" gradientUnits="userSpaceOnUse">
					<stop  offset="0.3681" style="stop-color:#13FF0E;stop-opacity:0"/>
					<stop  offset="0.4596" style="stop-color:#22FF0E;stop-opacity:0.1376"/>
					<stop  offset="0.6362" style="stop-color:#4AFF0E;stop-opacity:0.403"/>
					<stop  offset="0.8776" style="stop-color:#89FF0E;stop-opacity:0.766"/>
					<stop  offset="1" style="stop-color:#ACFF0E;stop-opacity:0.95"/>
				</radialGradient>
				<path fill="url(#SVGID_31_)" d="M88.797,61.682c0,0-1.701-0.033-2.897,0.699c-1.06,0.648-2.456,2.44,3.229,3.604
					c6.098,1.248,10.353,0.752,15.25,0c5.184-0.794,5.221-3.029,3.141-3.642c-2.158-0.633-3.93-0.865-3.93-0.865
					s7.447,0.138,6.653,3.034c-0.818,2.979-6.179,3.592-13.434,3.592c-7.255,0-14.337-1.367-13.289-4.403
					C84.258,61.566,88.797,61.682,88.797,61.682z"/>
				
					<radialGradient id="SVGID_32_" cx="447.3418" cy="1.4404" r="8.4985" gradientTransform="matrix(1.1427 0 0 -1 -435.9586 61)" gradientUnits="userSpaceOnUse">
					<stop  offset="0.3681" style="stop-color:#13FF0E;stop-opacity:0"/>
					<stop  offset="0.4596" style="stop-color:#22FF0E;stop-opacity:0.1376"/>
					<stop  offset="0.6362" style="stop-color:#4AFF0E;stop-opacity:0.403"/>
					<stop  offset="0.8776" style="stop-color:#89FF0E;stop-opacity:0.766"/>
					<stop  offset="1" style="stop-color:#ACFF0E;stop-opacity:0.95"/>
				</radialGradient>
				<path fill="url(#SVGID_32_)" d="M66.875,54.215c0,0-1.701-0.033-2.897,0.699c-1.06,0.648-2.455,2.44,3.229,3.604
					c6.1,1.248,10.353,0.752,15.251,0c5.183-0.794,5.221-3.029,3.141-3.642c-2.157-0.633-3.93-0.865-3.93-0.865
					s7.447,0.138,6.653,3.034c-0.818,2.979-6.179,3.592-13.434,3.592c-7.255,0-14.337-1.367-13.289-4.403
					C62.337,54.1,66.875,54.215,66.875,54.215z"/>
			</g>
			
				<linearGradient id="SVGID_33_" gradientUnits="userSpaceOnUse" x1="176.6846" y1="-8.3037" x2="178.2979" y2="-13.1405" gradientTransform="matrix(1 0 0 -1 -50 61)">
				<stop  offset="0" style="stop-color:#00FF00"/>
				<stop  offset="0.1582" style="stop-color:#00F600"/>
				<stop  offset="0.4149" style="stop-color:#00DE00"/>
				<stop  offset="0.736" style="stop-color:#00B700"/>
				<stop  offset="1" style="stop-color:#009200"/>
			</linearGradient>
			<path fill="url(#SVGID_33_)" d="M119.889,67.232c0,0,6.584,1.378,6.916,4.408c0.334,3.03-3.312,4.53-2.553,10.53
				s5.242,14.5,6.252,17.5s2.551,10.125,4.529,9.25s2.895-4.125,0-8.375c-2.896-4.25-7.03-10.25-6.65-13.625
				c0.381-3.375,4.309-0.949,4.999,2.25c1.132,5.25,3.664,3.188,2.878,1.5c-1.544-3.312-2.878-4.25-4.121-11.25
				c-0.67-3.766,1.24-6.251,1.896-8.725c0.655-2.474-4.681-5.05-4.681-5.05L119.889,67.232z"/>
			
				<radialGradient id="SVGID_34_" cx="183.8477" cy="-42.3467" r="3.3158" gradientTransform="matrix(1 0 0 -1 -50 61)" gradientUnits="userSpaceOnUse">
				<stop  offset="0.3681" style="stop-color:#13FF0E;stop-opacity:0"/>
				<stop  offset="0.4596" style="stop-color:#22FF0E;stop-opacity:0.1376"/>
				<stop  offset="0.6362" style="stop-color:#4AFF0E;stop-opacity:0.403"/>
				<stop  offset="0.8776" style="stop-color:#89FF0E;stop-opacity:0.766"/>
				<stop  offset="1" style="stop-color:#ACFF0E;stop-opacity:0.95"/>
			</radialGradient>
			<path fill="url(#SVGID_34_)" d="M133.382,100.171c0,0,2.339,1.545,2.828,4.125c0.49,2.58-2.084,5-2.828,0.75
				C132.639,100.796,129.376,97.796,133.382,100.171z"/>
			
				<radialGradient id="SVGID_35_" cx="184.5215" cy="-28.9219" r="1.7206" gradientTransform="matrix(1 0 0 -1 -50 61)" gradientUnits="userSpaceOnUse">
				<stop  offset="0.3681" style="stop-color:#13FF0E;stop-opacity:0"/>
				<stop  offset="0.4596" style="stop-color:#22FF0E;stop-opacity:0.1376"/>
				<stop  offset="0.6362" style="stop-color:#4AFF0E;stop-opacity:0.403"/>
				<stop  offset="0.8776" style="stop-color:#89FF0E;stop-opacity:0.766"/>
				<stop  offset="1" style="stop-color:#ACFF0E;stop-opacity:0.95"/>
			</radialGradient>
			<path fill="url(#SVGID_35_)" d="M134.279,88.274c0,0,1.213,0.801,1.468,2.141c0.254,1.338-1.082,2.594-1.468,0.389
				C133.893,88.599,132.201,87.042,134.279,88.274z"/>
			
				<radialGradient id="SVGID_36_" cx="177.6934" cy="-8.1904" r="4.366" gradientTransform="matrix(1 0 0 -1 -50 61)" gradientUnits="userSpaceOnUse">
				<stop  offset="0.3681" style="stop-color:#13FF0E;stop-opacity:0"/>
				<stop  offset="0.4596" style="stop-color:#22FF0E;stop-opacity:0.1376"/>
				<stop  offset="0.6362" style="stop-color:#4AFF0E;stop-opacity:0.403"/>
				<stop  offset="0.8776" style="stop-color:#89FF0E;stop-opacity:0.766"/>
				<stop  offset="1" style="stop-color:#ACFF0E;stop-opacity:0.95"/>
			</radialGradient>
			<path fill="url(#SVGID_36_)" d="M122.277,67.289c0,0,4.547,1.382,5.047,3.444s0.306,1.312,2.027,1.188
				c1.723-0.124,4.885-0.314,3.349-2.915c-1.537-2.601-3.188-2.835-3.625-2.772S124.357,67.274,122.277,67.289z"/>
			
				<radialGradient id="SVGID_37_" cx="179.2891" cy="-12.7271" r="4.2351" gradientTransform="matrix(1 0 0 -1 -50 61)" gradientUnits="userSpaceOnUse">
				<stop  offset="0.3681" style="stop-color:#13FF0E;stop-opacity:0"/>
				<stop  offset="0.4596" style="stop-color:#22FF0E;stop-opacity:0.1376"/>
				<stop  offset="0.6362" style="stop-color:#4AFF0E;stop-opacity:0.403"/>
				<stop  offset="0.8776" style="stop-color:#89FF0E;stop-opacity:0.766"/>
				<stop  offset="1" style="stop-color:#ACFF0E;stop-opacity:0.95"/>
			</radialGradient>
			<path fill="url(#SVGID_37_)" d="M127.693,73.171c0,0-1.467,2.75-1.949,4.25c-0.48,1.5,2.395,1.125,4.02,0s1.875-1.6,2.375-3.362
				c0.5-1.762,0.5-1.763,0.5-1.763L127.693,73.171z"/>
		</g>
	</g>
</g>
<g id="outline_x5F_white">
	<g>
		<g>
			<path fill="#FFFFFF" d="M100.227,27.137c33.375,0,60.429,10.911,60.429,24.372c0,1.423-0.129,2.842-1.526,4.74
				c-1,1.354-7.108,8.857-7.108,13.395c0,8.816,18.742,24.182,18.742,50.293c0,28.217-30.49,46.459-70.536,46.459
				c-40.044,0-70.537-18.242-70.537-46.459c0-25.704,18.518-40.705,18.518-49.247c0-4.466-4.92-12.34-6.148-13.914
				c-1.568-2.01-2.261-3.818-2.261-5.268C39.798,38.048,66.854,27.137,100.227,27.137 M100.227,15.137
				c-17.643,0-34.411,2.844-47.218,8.009c-21.936,8.847-25.211,21.567-25.211,28.363c0,4.233,1.646,8.588,4.76,12.599
				c0.962,1.32,2.697,4.454,3.411,6.336c-0.742,1.525-2.343,4.104-3.574,6.086c-5.856,9.43-14.706,23.681-14.706,43.407
				c0,17.672,9.156,33.27,25.78,43.916c14.644,9.379,34.801,14.543,56.757,14.543c21.958,0,42.113-5.164,56.756-14.543
				c16.625-10.646,25.779-26.244,25.779-43.916c0-19.904-8.896-34.397-14.781-43.987c-1.222-1.99-2.795-4.553-3.594-6.172
				c0.549-1.035,1.652-2.814,3.86-5.695c0.229-0.298,0.409-0.536,0.532-0.703c3.475-4.72,3.875-9.034,3.875-11.871
				c0-6.795-3.275-19.516-25.211-28.363C134.641,17.981,117.87,15.137,100.227,15.137L100.227,15.137z"/>
		</g>
	</g>
</g>
<g id="outline_x5F_black">
	<path d="M100.227,27.137c33.375,0,60.429,10.911,60.429,24.372c0,1.423-0.129,2.842-1.526,4.74c-1,1.354-7.108,8.857-7.108,13.395
		c0,8.816,18.742,24.182,18.742,50.293c0,28.217-30.49,46.459-70.536,46.459c-40.044,0-70.537-18.242-70.537-46.459
		c0-25.704,18.518-40.705,18.518-49.247c0-4.466-4.92-12.34-6.148-13.914c-1.568-2.01-2.261-3.818-2.261-5.268
		C39.798,38.048,66.854,27.137,100.227,27.137 M100.227,21.137c-16.892,0-32.863,2.69-44.974,7.574
		c-13.835,5.58-21.455,13.677-21.455,22.798c0,2.942,1.188,5.957,3.531,8.959c1.533,1.965,4.878,8.245,4.878,10.223
		c-0.014,1.435-2.731,5.81-4.715,9.004c-5.496,8.851-13.803,22.227-13.803,40.243c0,30.888,31.474,52.459,76.537,52.459
		s76.536-21.571,76.536-52.459c0-18.209-8.031-31.295-13.896-40.85c-2.16-3.52-4.849-7.898-4.849-9.444
		c0.028-0.354,0.43-2.637,5.467-9.21c0.201-0.263,0.361-0.472,0.47-0.619c2.38-3.234,2.7-6.013,2.7-8.306
		c0-9.122-7.619-17.218-21.454-22.798C133.091,23.827,117.119,21.137,100.227,21.137L100.227,21.137z"/>
	<path d="M24.799,57.324c-9.555,0-17.3,6.757-17.3,15.093c0,8.333,7.745,15.092,17.3,15.092c9.556,0,17.3-6.759,17.3-15.092
		C42.099,64.081,34.354,57.324,24.799,57.324z M26.999,80.315c-5.002,0-9.056-3.537-9.056-7.898c0-4.363,4.054-7.899,9.056-7.899
		c5,0,9.056,3.536,9.056,7.899C36.055,76.778,31.999,80.315,26.999,80.315z"/>
	<path d="M175.201,57.324c-9.555,0-17.301,6.757-17.301,15.093c0,8.333,7.746,15.092,17.301,15.092c9.557,0,17.3-6.759,17.3-15.092
		C192.501,64.081,184.758,57.324,175.201,57.324z M174.102,80.315c-5,0-9.054-3.537-9.054-7.898c0-4.363,4.054-7.899,9.054-7.899
		c5.002,0,9.057,3.536,9.057,7.899C183.157,76.778,179.104,80.315,174.102,80.315z"/>
	<path d="M51.801,156.932c0,0-4.913,4.76-7.307,8.313c-3.126,4.644-8.54,6.194-8.54,7.554c0,1.389,2.769,2.514,6.186,2.514
		c0.381,0,0.75-0.021,1.112-0.047c0.889,0.133,1.877-0.088,2.984-0.599c0.62-0.224,1.128-0.495,1.485-0.806
		c1.476-0.896,3.13-2.154,4.991-3.641c6.392-5.102,14.61-3.59,14.61-3.59L51.801,156.932z"/>
	<path d="M155.396,165.245c-2.643-3.372-7.307-8.313-7.307-8.313l-15.523,9.7c0,0,8.22-1.512,14.61,3.591
		c1.747,1.393,3.31,2.586,4.716,3.471c0.431,0.459,1.178,0.852,2.142,1.136c0.946,0.388,1.806,0.552,2.585,0.44
		c0.339,0.022,0.682,0.043,1.035,0.043c3.416,0,6.186-1.125,6.186-2.514C163.84,171.454,159.639,170.66,155.396,165.245z"/>
</g>
</svg>
