<?xml version="1.0" encoding="utf-8"?>
<!-- Generator: Adobe Illustrator 15.0.0, SVG Export Plug-In . SVG Version: 6.00 Build 0)  -->
<!DOCTYPE svg PUBLIC "-//W3C//DTD SVG 1.1//EN" "http://www.w3.org/Graphics/SVG/1.1/DTD/svg11.dtd">
<svg version="1.1" xmlns="http://www.w3.org/2000/svg" xmlns:xlink="http://www.w3.org/1999/xlink" x="0px" y="0px" width="200px"
	 height="200px" viewBox="0 0 200 200" enable-background="new 0 0 200 200" xml:space="preserve">
<g id="icon">
	<g id="Layer_2">
	</g>
	<g id="Layer_1_1_">
		<g>
			<g>
				
					<radialGradient id="SVGID_1_" cx="130.1836" cy="-69.7637" r="33.5938" gradientTransform="matrix(1 0 0 -1 -50 61)" gradientUnits="userSpaceOnUse">
					<stop  offset="0.1758" style="stop-color:#C9BDF4"/>
					<stop  offset="1" style="stop-color:#650086;stop-opacity:0"/>
				</radialGradient>
				<circle fill="url(#SVGID_1_)" cx="80.183" cy="130.764" r="33.594"/>
				
					<radialGradient id="SVGID_2_" cx="85.8267" cy="-47.9409" r="23.0249" gradientTransform="matrix(1 0 0 -1 -50 61)" gradientUnits="userSpaceOnUse">
					<stop  offset="0.1758" style="stop-color:#C9BDF4"/>
					<stop  offset="1" style="stop-color:#650086;stop-opacity:0"/>
				</radialGradient>
				<circle fill="url(#SVGID_2_)" cx="35.827" cy="108.941" r="23.025"/>
				
					<radialGradient id="SVGID_3_" cx="203.8223" cy="-23.1973" r="20.8342" gradientTransform="matrix(1 0 0 -1 -50 61)" gradientUnits="userSpaceOnUse">
					<stop  offset="0.1758" style="stop-color:#C9BDF4"/>
					<stop  offset="1" style="stop-color:#650086;stop-opacity:0"/>
				</radialGradient>
				<circle fill="url(#SVGID_3_)" cx="153.822" cy="84.197" r="20.834"/>
				
					<radialGradient id="SVGID_4_" cx="164.6914" cy="-52.771" r="25.4011" gradientTransform="matrix(1 0 0 -1 -50 61)" gradientUnits="userSpaceOnUse">
					<stop  offset="0.1758" style="stop-color:#C9BDF4"/>
					<stop  offset="1" style="stop-color:#650086;stop-opacity:0"/>
				</radialGradient>
				<circle fill="url(#SVGID_4_)" cx="114.691" cy="113.771" r="25.401"/>
				
					<radialGradient id="SVGID_5_" cx="164.6904" cy="5.769" r="15.6689" gradientTransform="matrix(1 0 0 -1 -50 61)" gradientUnits="userSpaceOnUse">
					<stop  offset="0.1758" style="stop-color:#C9BDF4"/>
					<stop  offset="1" style="stop-color:#650086;stop-opacity:0"/>
				</radialGradient>
				<circle fill="url(#SVGID_5_)" cx="114.691" cy="55.231" r="15.669"/>
				
					<radialGradient id="SVGID_6_" cx="207.4961" cy="7.8232" r="15.6689" gradientTransform="matrix(1 0 0 -1 -50 61)" gradientUnits="userSpaceOnUse">
					<stop  offset="0.1758" style="stop-color:#C9BDF4"/>
					<stop  offset="1" style="stop-color:#650086;stop-opacity:0"/>
				</radialGradient>
				<circle fill="url(#SVGID_6_)" cx="157.496" cy="53.177" r="15.669"/>
				
					<radialGradient id="SVGID_7_" cx="114.0039" cy="1.3877" r="28.176" gradientTransform="matrix(1 0 0 -1 -50 61)" gradientUnits="userSpaceOnUse">
					<stop  offset="0.1758" style="stop-color:#C9BDF4"/>
					<stop  offset="1" style="stop-color:#650086;stop-opacity:0"/>
				</radialGradient>
				<circle fill="url(#SVGID_7_)" cx="64.003" cy="59.612" r="28.176"/>
				
					<radialGradient id="SVGID_8_" cx="151.7949" cy="0.8906" r="28.176" gradientTransform="matrix(1 0 0 -1 -50 61)" gradientUnits="userSpaceOnUse">
					<stop  offset="0.1758" style="stop-color:#C9BDF4"/>
					<stop  offset="1" style="stop-color:#650086;stop-opacity:0"/>
				</radialGradient>
				<path fill="url(#SVGID_8_)" d="M129.971,60.108c0,15.562-12.613,28.177-28.173,28.177c-15.563,0-28.178-12.616-28.178-28.177
					c0-15.56,12.614-28.175,28.178-28.175C117.355,31.933,129.971,44.548,129.971,60.108z"/>
				
					<radialGradient id="SVGID_9_" cx="168.5049" cy="-13.6611" r="14.0879" gradientTransform="matrix(1 0 0 -1 -50 61)" gradientUnits="userSpaceOnUse">
					<stop  offset="0.1758" style="stop-color:#C9BDF4"/>
					<stop  offset="1" style="stop-color:#650086;stop-opacity:0"/>
				</radialGradient>
				<circle fill="url(#SVGID_9_)" cx="118.505" cy="74.661" r="14.088"/>
				
					<radialGradient id="SVGID_10_" cx="146.5977" cy="21.0571" r="10.0261" gradientTransform="matrix(1 0 0 -1 -50 61)" gradientUnits="userSpaceOnUse">
					<stop  offset="0.1758" style="stop-color:#C9BDF4"/>
					<stop  offset="1" style="stop-color:#650086;stop-opacity:0"/>
				</radialGradient>
				<circle fill="url(#SVGID_10_)" cx="96.598" cy="39.943" r="10.026"/>
				
					<radialGradient id="SVGID_11_" cx="196.4824" cy="-2.3652" r="8.4941" gradientTransform="matrix(1 0 0 -1 -50 61)" gradientUnits="userSpaceOnUse">
					<stop  offset="0.1758" style="stop-color:#C9BDF4"/>
					<stop  offset="1" style="stop-color:#650086;stop-opacity:0"/>
				</radialGradient>
				<circle fill="url(#SVGID_11_)" cx="146.482" cy="63.365" r="8.494"/>
				
					<radialGradient id="SVGID_12_" cx="191.5879" cy="41.8882" r="5.8943" gradientTransform="matrix(1 0 0 -1 -50 61)" gradientUnits="userSpaceOnUse">
					<stop  offset="0.1758" style="stop-color:#C9BDF4"/>
					<stop  offset="1" style="stop-color:#650086;stop-opacity:0"/>
				</radialGradient>
				<circle fill="url(#SVGID_12_)" cx="141.588" cy="19.112" r="5.894"/>
				
					<radialGradient id="SVGID_13_" cx="78.5518" cy="-17.1797" r="8.575" gradientTransform="matrix(1 0 0 -1 -50 61)" gradientUnits="userSpaceOnUse">
					<stop  offset="0.1758" style="stop-color:#C9BDF4"/>
					<stop  offset="1" style="stop-color:#650086;stop-opacity:0"/>
				</radialGradient>
				<circle fill="url(#SVGID_13_)" cx="28.552" cy="78.18" r="8.575"/>
				
					<radialGradient id="SVGID_14_" cx="110.0703" cy="35.6582" r="6.2302" gradientTransform="matrix(1 0 0 -1 -50 61)" gradientUnits="userSpaceOnUse">
					<stop  offset="0.1758" style="stop-color:#C9BDF4"/>
					<stop  offset="1" style="stop-color:#650086;stop-opacity:0"/>
				</radialGradient>
				<circle fill="url(#SVGID_14_)" cx="60.071" cy="25.342" r="6.23"/>
				
					<radialGradient id="SVGID_15_" cx="207.4961" cy="-47.8066" r="29.7029" gradientTransform="matrix(1 0 0 -1 -50 61)" gradientUnits="userSpaceOnUse">
					<stop  offset="0.1758" style="stop-color:#C9BDF4"/>
					<stop  offset="1" style="stop-color:#650086;stop-opacity:0"/>
				</radialGradient>
				<circle fill="url(#SVGID_15_)" cx="157.496" cy="108.807" r="29.703"/>
			</g>
			<g>
				<g>
					
						<linearGradient id="SVGID_16_" gradientUnits="userSpaceOnUse" x1="189.6367" y1="-86.3711" x2="164.8699" y2="-74.5773" gradientTransform="matrix(1 0 0 -1 -50 61)">
						<stop  offset="0" style="stop-color:#B249FF"/>
						<stop  offset="1" style="stop-color:#600A9F"/>
					</linearGradient>
					<polygon fill="url(#SVGID_16_)" points="138.318,97.379 99.145,111.68 67.521,96.078 36.755,136.617 95.528,175.73 
						167.562,142.316 					"/>
					
						<linearGradient id="SVGID_17_" gradientUnits="userSpaceOnUse" x1="156.0127" y1="-51.4541" x2="161.8234" y2="-80.9917" gradientTransform="matrix(1 0 0 -1 -50 61)">
						<stop  offset="0" style="stop-color:#B249FF"/>
						<stop  offset="1" style="stop-color:#600A9F"/>
					</linearGradient>
					<polygon fill="url(#SVGID_17_)" points="138.318,97.379 99.145,111.68 67.521,96.078 102.141,84.119 					"/>
					
						<linearGradient id="SVGID_18_" gradientUnits="userSpaceOnUse" x1="152.9189" y1="-29.0244" x2="152.9189" y2="-39.9201" gradientTransform="matrix(1 0 0 -1 -50 61)">
						<stop  offset="0" style="stop-color:#B249FF"/>
						<stop  offset="1" style="stop-color:#DC6FFF"/>
					</linearGradient>
					<polygon fill="url(#SVGID_18_)" points="99.145,109.857 69.692,95.328 67.521,96.078 99.145,111.68 138.318,97.379 
						135.828,96.467 					"/>
					
						<linearGradient id="SVGID_19_" gradientUnits="userSpaceOnUse" x1="152.1592" y1="-118.8472" x2="152.1592" y2="-57.3458" gradientTransform="matrix(1 0 0 -1 -50 61)">
						<stop  offset="0" style="stop-color:#B249FF"/>
						<stop  offset="1" style="stop-color:#600A9F"/>
					</linearGradient>
					<polygon fill="url(#SVGID_19_)" points="167.562,142.316 95.528,175.73 36.755,136.617 99.327,108.807 					"/>
					<g opacity="0.44">
						<g>
							
								<radialGradient id="SVGID_20_" cx="383.7305" cy="-547.4253" r="46.6163" gradientTransform="matrix(0.9964 -0.05 -0.0124 -1.0029 -323.983 -401.4404)" gradientUnits="userSpaceOnUse">
								<stop  offset="0" style="stop-color:#130C0E;stop-opacity:0"/>
								<stop  offset="0.9385" style="stop-color:#130C0E;stop-opacity:0.6112"/>
								<stop  offset="1" style="stop-color:#130C0E;stop-opacity:0.6512"/>
							</radialGradient>
							<path fill="url(#SVGID_20_)" d="M28.552,137.777l66.113,43.998l6.586-103.865c0,0-6.323-0.035-12.424-1.334
								c-5.679-1.208-11.165-3.688-11.165-3.688L28.552,137.777z"/>
						</g>
						<g>
							
								<radialGradient id="SVGID_21_" cx="383.2373" cy="-563.4131" r="37.5317" gradientTransform="matrix(0.9964 -0.05 -0.0124 -1.0029 -323.983 -401.4404)" gradientUnits="userSpaceOnUse">
								<stop  offset="0" style="stop-color:#130C0E;stop-opacity:0"/>
								<stop  offset="0.9385" style="stop-color:#130C0E;stop-opacity:0.6112"/>
								<stop  offset="1" style="stop-color:#130C0E;stop-opacity:0.6512"/>
							</radialGradient>
							<polygon fill="url(#SVGID_21_)" points="28.552,137.777 94.665,181.775 100.587,103.825 							"/>
						</g>
						
							<radialGradient id="SVGID_22_" cx="453.5352" cy="-548.6587" r="47.5739" gradientTransform="matrix(0.9964 -0.05 -0.0124 -1.0029 -323.983 -401.4404)" gradientUnits="userSpaceOnUse">
							<stop  offset="0" style="stop-color:#130C0E;stop-opacity:0"/>
							<stop  offset="0.9385" style="stop-color:#130C0E;stop-opacity:0.6112"/>
							<stop  offset="1" style="stop-color:#130C0E;stop-opacity:0.6512"/>
						</radialGradient>
						<path fill="url(#SVGID_22_)" d="M94.665,181.775l81.028-37.586l-48.715-71.301c0,0-5.537,2.362-11.094,3.627
							c-6.853,1.559-14.635,1.395-14.635,1.395L94.665,181.775z"/>
						
							<radialGradient id="SVGID_23_" cx="453.5352" cy="-563.4131" r="39.7942" gradientTransform="matrix(0.9964 -0.05 -0.0124 -1.0029 -323.983 -401.4404)" gradientUnits="userSpaceOnUse">
							<stop  offset="0" style="stop-color:#130C0E;stop-opacity:0"/>
							<stop  offset="0.9385" style="stop-color:#130C0E;stop-opacity:0.6112"/>
							<stop  offset="1" style="stop-color:#130C0E;stop-opacity:0.6512"/>
						</radialGradient>
						<polygon fill="url(#SVGID_23_)" points="94.665,181.775 175.693,144.189 100.587,103.825 						"/>
					</g>
					
						<radialGradient id="SVGID_24_" cx="29.8315" cy="377.0674" r="15.6477" gradientTransform="matrix(0.9554 0 0 -0.6715 73.6506 307.5704)" gradientUnits="userSpaceOnUse">
						<stop  offset="0" style="stop-color:#130C0E;stop-opacity:0"/>
						<stop  offset="0.9385" style="stop-color:#130C0E;stop-opacity:0.6112"/>
						<stop  offset="1" style="stop-color:#130C0E;stop-opacity:0.6512"/>
					</radialGradient>
					
						<ellipse opacity="0.44" fill="url(#SVGID_24_)" enable-background="new    " cx="102.152" cy="54.369" rx="20.312" ry="4.121"/>
					<g opacity="0.54">
						
							<linearGradient id="SVGID_25_" gradientUnits="userSpaceOnUse" x1="662.9004" y1="-558.7559" x2="683.3616" y2="-571.2098" gradientTransform="matrix(0.9617 0.2268 0.2612 -0.9782 -403.1037 -592.5121)">
							<stop  offset="0" style="stop-color:#FFFFFF;stop-opacity:0"/>
							<stop  offset="0.5215" style="stop-color:#FFFFFF"/>
							<stop  offset="1" style="stop-color:#FFFFFF;stop-opacity:0"/>
						</linearGradient>
						<path fill="url(#SVGID_25_)" d="M94.7,181.775l81.028-37.586l-48.75-71.301c0,0-5.358,2.508-11.395,3.688
							c-6.77,1.323-14.299,1.334-14.299,1.334L94.7,181.775z"/>
						
							<linearGradient id="SVGID_26_" gradientUnits="userSpaceOnUse" x1="690.7363" y1="-591.1807" x2="673.4657" y2="-582.9565" gradientTransform="matrix(0.9617 0.2268 0.2612 -0.9782 -403.1037 -592.5121)">
							<stop  offset="0" style="stop-color:#FFFFFF"/>
							<stop  offset="1" style="stop-color:#A212FF;stop-opacity:0"/>
						</linearGradient>
						<path fill="url(#SVGID_26_)" d="M28.587,137.777L94.7,181.775l6.586-103.865c0,0-6.949,0.23-13.116-1.066
							c-5.626-1.182-10.522-3.9-10.522-3.9L28.587,137.777z"/>
					</g>
					
						<radialGradient id="SVGID_27_" cx="152.1514" cy="-377.2598" r="45.9492" gradientTransform="matrix(1 0 0 -0.4405 -50 -103.252)" gradientUnits="userSpaceOnUse">
						<stop  offset="0" style="stop-color:#130C0E;stop-opacity:0"/>
						<stop  offset="0.9385" style="stop-color:#130C0E;stop-opacity:0.6112"/>
						<stop  offset="1" style="stop-color:#130C0E;stop-opacity:0.6512"/>
					</radialGradient>
					<path fill="url(#SVGID_27_)" d="M129.848,57.459c0-5.399-12.399-9.776-27.697-9.776c-15.295,0-27.695,4.377-27.695,9.776
						c0,2.027,0,8.917,0,10.945c0,5.399,12.4,9.775,27.695,9.775c15.298,0,27.697-4.376,27.697-9.775
						C129.848,66.376,129.848,59.486,129.848,57.459z"/>
					
						<linearGradient id="SVGID_28_" gradientUnits="userSpaceOnUse" x1="131.6982" y1="-5.9307" x2="173.0186" y2="-5.9307" gradientTransform="matrix(1 0 0 -1 -50 61)">
						<stop  offset="0" style="stop-color:#81693C"/>
						<stop  offset="0.4847" style="stop-color:#DFAA76"/>
						<stop  offset="1" style="stop-color:#81693C"/>
					</linearGradient>
					<path fill="url(#SVGID_28_)" d="M84.438,59.657c0,0-3.382-0.817-2.632,1.785c0.369,1.281-0.715,2.266,0.748,3.172
						c1.283,0.795,2.619,2.271,2.292,3.291c-0.297,0.928-3.354,0.118-1.042,2.467c2.688,2.731,10.145,3.937,16.13,3.997
						c10.983,0.11,18.681-1.765,20.313-4.397c1.071-1.727,0.444-2.66-0.037-2.925c-1.942-1.068-2.502-0.884,1.209-2.759
						c2.373-1.2,2.103-5.292-0.793-4.752s-19.655,4.796-35.78,0.685"/>
					
						<linearGradient id="SVGID_29_" gradientUnits="userSpaceOnUse" x1="-20.6011" y1="-96.2856" x2="-12.2457" y2="-72.3479" gradientTransform="matrix(0.9465 -0.3227 -0.3227 -0.9465 91.1276 -28.8922)">
						<stop  offset="0" style="stop-color:#FFFFFF"/>
						<stop  offset="0.0896" style="stop-color:#FFFFFF;stop-opacity:0.9104"/>
						<stop  offset="1" style="stop-color:#FFFFFF;stop-opacity:0"/>
					</linearGradient>
					<path opacity="0.75" fill="url(#SVGID_29_)" enable-background="new    " d="M87.701,59.486c0,0-5.336,2.969-1.18,4.205
						c2.41,0.714,19.303,3.238,31.959-0.76c1.426-0.451,3.064-4.805,1.394-3.899C121.729,58.027,106.146,62.123,87.701,59.486z"/>
					
						<linearGradient id="SVGID_30_" gradientUnits="userSpaceOnUse" x1="147.9619" y1="-198.5366" x2="158.4471" y2="98.8616" gradientTransform="matrix(1 0 0 -1 -50 61)">
						<stop  offset="0" style="stop-color:#FFFFFF"/>
						<stop  offset="0.0896" style="stop-color:#FFFFFF;stop-opacity:0.9104"/>
						<stop  offset="1" style="stop-color:#FFFFFF;stop-opacity:0"/>
					</linearGradient>
					<path opacity="0.75" fill="url(#SVGID_30_)" enable-background="new    " d="M102.15,52.525
						c13.817,0,21.619,3.594,22.854,5.253v10.286c-0.145,0.174-0.488,0.52-1.209,0.981l2.354,4.569l-2.814,2.461l48.671,69.194
						l-77.34,36.504l-62.404-42.659l48.951-62.933l3.738-4.146l-4.631-3.115c-0.596-0.4-0.891-0.701-1.023-0.859V57.778
						C80.531,56.119,88.332,52.525,102.15,52.525 M102.15,47.683c-15.296,0-27.696,4.377-27.696,9.776c0,2.027,0,8.917,0,10.945
						c0,1.637,1.146,3.179,3.162,4.536l-49.064,64.837l0.26,3.342l66.058,44.433l80.521-38.14l0.34-3.223l-48.75-71.301
						c0,0-0.209,0.089-0.578,0.238c2.193-1.4,3.447-3.009,3.447-4.723c0-2.028,0-8.918,0-10.945
						C129.848,52.06,117.447,47.683,102.15,47.683L102.15,47.683z"/>
					
						<linearGradient id="SVGID_31_" gradientUnits="userSpaceOnUse" x1="133.4297" y1="15.4404" x2="137.5256" y2="-1.967" gradientTransform="matrix(1 0 0 -1 -50 61)">
						<stop  offset="0" style="stop-color:#FFFFFF"/>
						<stop  offset="0.0503" style="stop-color:#FFFFFF;stop-opacity:0.9498"/>
						<stop  offset="0.5613" style="stop-color:#FFFFFF;stop-opacity:0.4395"/>
						<stop  offset="1" style="stop-color:#FFFFFF;stop-opacity:0"/>
					</linearGradient>
					<path fill="url(#SVGID_31_)" d="M94.345,50.915c0,0,1.414-1.629-1.803-1.171c-3.539,0.504-8.463,0.632-14.584,4.236
						c-4.826,2.842,0.631,8.29,3.181,6.917c2.547-1.373-6.088-3.611,2.128-7.347C89.731,50.613,94.345,53.854,94.345,50.915z"/>
					
						<linearGradient id="SVGID_32_" gradientUnits="userSpaceOnUse" x1="5275.1094" y1="15.4404" x2="5279.2056" y2="-1.968" gradientTransform="matrix(-1 0 0 -1 5395.5039 61)">
						<stop  offset="0" style="stop-color:#FFFFFF"/>
						<stop  offset="0.0503" style="stop-color:#FFFFFF;stop-opacity:0.9498"/>
						<stop  offset="0.5613" style="stop-color:#FFFFFF;stop-opacity:0.4395"/>
						<stop  offset="1" style="stop-color:#FFFFFF;stop-opacity:0"/>
					</linearGradient>
					<path fill="url(#SVGID_32_)" d="M109.479,50.915c0,0-1.414-1.629,1.803-1.171c3.539,0.504,8.465,0.632,14.585,4.236
						c4.825,2.842-0.632,8.29-3.181,6.917c-2.547-1.373,6.088-3.611-2.129-7.347C114.094,50.613,109.479,53.854,109.479,50.915z"/>
					<g>
						
							<linearGradient id="SVGID_33_" gradientUnits="userSpaceOnUse" x1="8.7783" y1="389.1543" x2="50.8838" y2="389.1543" gradientTransform="matrix(0.9554 0 0 -0.6715 73.6506 307.5704)">
							<stop  offset="0" style="stop-color:#7C5320"/>
							<stop  offset="0.5153" style="stop-color:#FAC28D"/>
							<stop  offset="1" style="stop-color:#7C5320"/>
						</linearGradient>
						<path fill="url(#SVGID_33_)" d="M119.674,54.936c0,1.962-7.844,3.554-17.523,3.554c-9.678,0-17.521-1.592-17.521-3.554
							c0-1.133-2.591-20.709-2.591-20.709c2.981-0.476,36.139,0,40.228,0C122.264,34.226,119.674,52.973,119.674,54.936z"/>
						
							<linearGradient id="SVGID_34_" gradientUnits="userSpaceOnUse" x1="152.1523" y1="2.7607" x2="152.1523" y2="24.8698" gradientTransform="matrix(1 0 0 -1 -50 61)">
							<stop  offset="0" style="stop-color:#7C5320"/>
							<stop  offset="1" style="stop-color:#7C5320;stop-opacity:0"/>
						</linearGradient>
						<path fill="url(#SVGID_34_)" d="M119.674,54.936c0,1.962-7.844,3.554-17.523,3.554c-9.678,0-17.521-1.592-17.521-3.554
							c0-1.133-2.591-20.709-2.591-20.709c2.981-0.476,36.139,0,40.228,0C122.264,34.226,119.674,52.973,119.674,54.936z"/>
						
							<linearGradient id="SVGID_35_" gradientUnits="userSpaceOnUse" x1="151.9756" y1="28.5381" x2="153.8259" y2="9.8495" gradientTransform="matrix(1 0 0 -1 -50 61)">
							<stop  offset="0" style="stop-color:#FAC28D"/>
							<stop  offset="1" style="stop-color:#7C5320"/>
						</linearGradient>
						<ellipse fill="url(#SVGID_35_)" cx="102.15" cy="34.226" rx="20.113" ry="4.08"/>
						
							<linearGradient id="SVGID_36_" gradientUnits="userSpaceOnUse" x1="151.9756" y1="28.5381" x2="153.8259" y2="9.8495" gradientTransform="matrix(1 0 0 -1 -50 61)">
							<stop  offset="0" style="stop-color:#FAC28D"/>
							<stop  offset="1" style="stop-color:#7C5320"/>
						</linearGradient>
						<ellipse fill="url(#SVGID_36_)" cx="102.15" cy="34.226" rx="20.113" ry="4.08"/>
						
							<linearGradient id="SVGID_37_" gradientUnits="userSpaceOnUse" x1="151.7705" y1="25.1084" x2="156.9178" y2="47.4135" gradientTransform="matrix(1 0 0 -1 -50 61)">
							<stop  offset="0" style="stop-color:#FAC28D"/>
							<stop  offset="1" style="stop-color:#7C5320"/>
						</linearGradient>
						<path fill="url(#SVGID_37_)" d="M102.15,36.912c-9.367,0-17.31-1.173-20.1-2.797c-0.006,0.038-0.015,0.074-0.015,0.112
							c0,2.253,9.006,4.08,20.112,4.08c11.109,0,20.113-1.826,20.113-4.08c0-0.038-0.009-0.074-0.014-0.112
							C119.46,35.739,111.52,36.912,102.15,36.912z"/>
					</g>
					
						<linearGradient id="SVGID_38_" gradientUnits="userSpaceOnUse" x1="137.166" y1="1165.1025" x2="137.0075" y2="1177.9066" gradientTransform="matrix(1 0 0 -1 -50 61)">
						<stop  offset="0" style="stop-color:#FFFFFF"/>
						<stop  offset="0.0896" style="stop-color:#FFFFFF;stop-opacity:0.9104"/>
						<stop  offset="1" style="stop-color:#FFFFFF;stop-opacity:0"/>
					</linearGradient>
					<polygon opacity="0.53" fill="url(#SVGID_38_)" enable-background="new    " points="29.446,137.381 93.378,179.256 
						99.345,78.18 102.759,78.18 96.234,178.396 173.009,143.062 175.729,144.189 96.234,182.671 93.073,181.775 29.446,139.174 
											"/>
				</g>
				<g>
					<g>
						
							<radialGradient id="SVGID_39_" cx="172.2637" cy="-49.7876" r="3.3687" gradientTransform="matrix(1 0 0 -1 -50 61)" gradientUnits="userSpaceOnUse">
							<stop  offset="0.3681" style="stop-color:#AC65DC;stop-opacity:0"/>
							<stop  offset="0.7817" style="stop-color:#B06DEB;stop-opacity:0.6218"/>
							<stop  offset="1" style="stop-color:#B372F5;stop-opacity:0.95"/>
						</radialGradient>
						<circle fill="url(#SVGID_39_)" cx="122.264" cy="110.358" r="3.924"/>
					</g>
					<g>
						
							<radialGradient id="SVGID_40_" cx="163.0195" cy="-80.4888" r="2.063" gradientTransform="matrix(1 0 0 -1 -50 61)" gradientUnits="userSpaceOnUse">
							<stop  offset="0.3681" style="stop-color:#AC65DC;stop-opacity:0"/>
							<stop  offset="0.7817" style="stop-color:#B06DEB;stop-opacity:0.6218"/>
							<stop  offset="1" style="stop-color:#B372F5;stop-opacity:0.95"/>
						</radialGradient>
						<circle fill="url(#SVGID_40_)" cx="113.02" cy="141.225" r="2.403"/>
					</g>
					<g>
						
							<radialGradient id="SVGID_41_" cx="165.4219" cy="-63.437" r="2.063" gradientTransform="matrix(1 0 0 -1 -50 61)" gradientUnits="userSpaceOnUse">
							<stop  offset="0.3681" style="stop-color:#AC65DC;stop-opacity:0"/>
							<stop  offset="0.7817" style="stop-color:#B06DEB;stop-opacity:0.6218"/>
							<stop  offset="1" style="stop-color:#B372F5;stop-opacity:0.95"/>
						</radialGradient>
						<circle fill="url(#SVGID_41_)" cx="115.422" cy="124.174" r="2.403"/>
					</g>
					<g>
						
							<radialGradient id="SVGID_42_" cx="153.7324" cy="-59.7969" r="1.3231" gradientTransform="matrix(1 0 0 -1 -50 61)" gradientUnits="userSpaceOnUse">
							<stop  offset="0.3681" style="stop-color:#AC65DC;stop-opacity:0"/>
							<stop  offset="0.7817" style="stop-color:#B06DEB;stop-opacity:0.6218"/>
							<stop  offset="1" style="stop-color:#B372F5;stop-opacity:0.95"/>
						</radialGradient>
						<circle fill="url(#SVGID_42_)" cx="103.732" cy="120.629" r="1.541"/>
					</g>
					<g>
						
							<radialGradient id="SVGID_43_" cx="133.3867" cy="-84.752" r="1.3226" gradientTransform="matrix(1 0 0 -1 -50 61)" gradientUnits="userSpaceOnUse">
							<stop  offset="0.3681" style="stop-color:#AC65DC;stop-opacity:0"/>
							<stop  offset="0.7817" style="stop-color:#B06DEB;stop-opacity:0.6218"/>
							<stop  offset="1" style="stop-color:#B372F5;stop-opacity:0.95"/>
						</radialGradient>
						<circle fill="url(#SVGID_43_)" cx="83.387" cy="145.584" r="1.541"/>
					</g>
					<g>
						
							<radialGradient id="SVGID_44_" cx="181.4238" cy="-57.9819" r="1.3424" gradientTransform="matrix(1 0 0 -1 -50 61)" gradientUnits="userSpaceOnUse">
							<stop  offset="0.3681" style="stop-color:#AC65DC;stop-opacity:0"/>
							<stop  offset="0.7817" style="stop-color:#B06DEB;stop-opacity:0.6218"/>
							<stop  offset="1" style="stop-color:#B372F5;stop-opacity:0.95"/>
						</radialGradient>
						<circle fill="url(#SVGID_44_)" cx="131.424" cy="118.812" r="1.564"/>
					</g>
					<g>
						
							<radialGradient id="SVGID_45_" cx="142.6992" cy="-63.3174" r="1.1298" gradientTransform="matrix(1 0 0 -1 -50 61)" gradientUnits="userSpaceOnUse">
							<stop  offset="0.3681" style="stop-color:#AC65DC;stop-opacity:0"/>
							<stop  offset="0.7817" style="stop-color:#B06DEB;stop-opacity:0.6218"/>
							<stop  offset="1" style="stop-color:#B372F5;stop-opacity:0.95"/>
						</radialGradient>
						<circle fill="url(#SVGID_45_)" cx="92.699" cy="124.174" r="1.316"/>
					</g>
					<g>
						
							<radialGradient id="SVGID_46_" cx="133.3887" cy="-49.8345" r="1.129" gradientTransform="matrix(1 0 0 -1 -50 61)" gradientUnits="userSpaceOnUse">
							<stop  offset="0.3681" style="stop-color:#AC65DC;stop-opacity:0"/>
							<stop  offset="0.7817" style="stop-color:#B06DEB;stop-opacity:0.6218"/>
							<stop  offset="1" style="stop-color:#B372F5;stop-opacity:0.95"/>
						</radialGradient>
						<circle fill="url(#SVGID_46_)" cx="83.388" cy="110.691" r="1.316"/>
					</g>
					<g>
						
							<radialGradient id="SVGID_47_" cx="148.1631" cy="-52.0132" r="1.1296" gradientTransform="matrix(1 0 0 -1 -50 61)" gradientUnits="userSpaceOnUse">
							<stop  offset="0.3681" style="stop-color:#AC65DC;stop-opacity:0"/>
							<stop  offset="0.7817" style="stop-color:#B06DEB;stop-opacity:0.6218"/>
							<stop  offset="1" style="stop-color:#B372F5;stop-opacity:0.95"/>
						</radialGradient>
						<circle fill="url(#SVGID_47_)" cx="98.163" cy="112.868" r="1.316"/>
					</g>
					<g>
						
							<radialGradient id="SVGID_48_" cx="135.1123" cy="-65.8848" r="2.4185" gradientTransform="matrix(1 0 0 -1 -50 61)" gradientUnits="userSpaceOnUse">
							<stop  offset="0.3681" style="stop-color:#AC65DC;stop-opacity:0"/>
							<stop  offset="0.7817" style="stop-color:#B06DEB;stop-opacity:0.6218"/>
							<stop  offset="1" style="stop-color:#B372F5;stop-opacity:0.95"/>
						</radialGradient>
						<circle fill="url(#SVGID_48_)" cx="85.112" cy="126.577" r="2.817"/>
					</g>
					<g>
						
							<radialGradient id="SVGID_49_" cx="137.9297" cy="-49.6665" r="2.4189" gradientTransform="matrix(1 0 0 -1 -50 61)" gradientUnits="userSpaceOnUse">
							<stop  offset="0.3681" style="stop-color:#AC65DC;stop-opacity:0"/>
							<stop  offset="0.7817" style="stop-color:#B06DEB;stop-opacity:0.6218"/>
							<stop  offset="1" style="stop-color:#B372F5;stop-opacity:0.95"/>
						</radialGradient>
						<circle fill="url(#SVGID_49_)" cx="87.93" cy="110.358" r="2.818"/>
					</g>
					<g>
						
							<radialGradient id="SVGID_50_" cx="130.5371" cy="-48.748" r="1.6317" gradientTransform="matrix(1 0 0 -1 -50 61)" gradientUnits="userSpaceOnUse">
							<stop  offset="0.3681" style="stop-color:#AC65DC;stop-opacity:0"/>
							<stop  offset="0.7817" style="stop-color:#B06DEB;stop-opacity:0.6218"/>
							<stop  offset="1" style="stop-color:#B372F5;stop-opacity:0.95"/>
						</radialGradient>
						<circle fill="url(#SVGID_50_)" cx="80.537" cy="109.539" r="1.9"/>
					</g>
					<g>
						
							<radialGradient id="SVGID_51_" cx="117.5215" cy="-67.5308" r="3.0201" gradientTransform="matrix(1 0 0 -1 -50 61)" gradientUnits="userSpaceOnUse">
							<stop  offset="0.3681" style="stop-color:#AC65DC;stop-opacity:0"/>
							<stop  offset="0.7817" style="stop-color:#B06DEB;stop-opacity:0.6218"/>
							<stop  offset="1" style="stop-color:#B372F5;stop-opacity:0.95"/>
						</radialGradient>
						<circle fill="url(#SVGID_51_)" cx="67.522" cy="128.146" r="3.519"/>
					</g>
				</g>
			</g>
		</g>
	</g>
</g>
<g id="outline_x5F_white">
	<path fill="#FFFFFF" d="M185.637,137.418L141.283,72.55c0.439-1.602,0.564-3.036,0.564-4.146V57.459
		c0-3.678-1.295-9.768-8.643-14.611c0.309-2.317,0.633-4.714,0.945-6.98c0.076-0.544,0.113-1.093,0.113-1.642
		c0-1.967-0.604-8.673-8.392-12.408c-1.931-0.926-4.259-1.658-7.113-2.237c-4.561-0.925-10.459-1.435-16.608-1.435
		c-6.148,0-12.047,0.51-16.607,1.435c-2.855,0.579-5.183,1.311-7.114,2.237c-7.786,3.734-8.392,10.441-8.392,12.408
		c0,0.526,0.034,1.052,0.104,1.574c0.309,2.334,0.625,4.75,0.926,7.067c-7.322,4.84-8.613,10.919-8.613,14.593v10.945
		c0,1.067,0.116,2.446,0.524,3.992l-43.996,58.14c-1.771,2.34-2.623,5.246-2.395,8.171l0.26,3.342
		c0.284,3.656,2.224,6.981,5.267,9.027l66.058,44.433c2.013,1.354,4.35,2.043,6.698,2.043c1.749,0,3.503-0.382,5.136-1.154
		l80.521-38.141c3.783-1.792,6.359-5.426,6.798-9.59l0.339-3.223C187.962,142.613,187.242,139.768,185.637,137.418z
		 M175.389,147.413l-80.521,38.14L28.81,141.12l-0.26-3.343L77.616,72.94c-2.016-1.356-3.162-2.898-3.162-4.536
		c0-1.231,0-4.252,0-6.891c0,0,0,0.001,0.001,0.002c0-1.708,0-3.259,0-4.056c0-2.96,3.734-5.612,9.625-7.405l0,0c0,0,0,0,0.001,0
		c-0.456-3.682-1.099-8.637-1.542-12.018c0,0,0,0-0.001,0c-0.295-2.256-0.501-3.811-0.501-3.811c0-2.252,9.006-4.08,20.113-4.08
		c11.108,0,20.113,1.828,20.113,4.08c0,0-1.332,9.636-2.086,15.814c0,0,0.001,0,0.001,0l0,0c5.916,1.793,9.669,4.45,9.669,7.418
		c0,0.796,0,2.344,0,4.051c0,2.64,0,5.662,0,6.894c0,1.713-1.254,3.323-3.447,4.723c0.369-0.149,0.578-0.238,0.578-0.238l48.75,71.3
		L175.389,147.413z"/>
</g>
<g id="outline_x5F_black">
	<path d="M180.682,140.802l-46.152-67.498c1.021-1.792,1.318-3.51,1.318-4.899V57.459c0-5.25-3.938-9.095-9.885-11.677
		c0.391-2.904,0.86-6.237,1.375-9.976c0.075-0.409,0.113-0.823,0.113-1.236c0-6.6-7.237-8.233-9.887-8.771
		c-4.18-0.848-9.654-1.315-15.416-1.315c-5.76,0-11.233,0.468-15.414,1.316c-2.648,0.537-10.221,1.688-10.221,8.287
		c0,0.4,0.036,0.802,0.107,1.198c0.492,3.716,0.995,7.38,1.422,10.628c-5.78,2.581-9.589,6.384-9.589,11.546v10.945
		c0,1.388,0.297,3.12,1.338,4.932l-46.025,60.821c-0.885,1.169-1.311,2.623-1.197,4.085l0.26,3.342
		c0.142,1.828,1.112,3.49,2.633,4.514l66.058,44.434c1.007,0.677,2.175,1.021,3.349,1.021c0.875,0,1.752-0.19,2.568-0.577
		l80.521-38.14c1.893-0.896,3.18-2.714,3.398-4.796l0.338-3.223C181.846,143.4,181.486,141.979,180.682,140.802z M175.389,147.413
		l-80.521,38.14L28.81,141.12l-0.26-3.343L77.616,72.94c-2.016-1.356-3.162-2.898-3.162-4.536c0-2.028,0-8.918,0-10.945
		c0-2.961,3.735-5.612,9.626-7.405c-0.225-1.815-0.495-3.935-0.764-6.029c0,0,0,0,0,0c-0.562-4.366-1.119-8.595-1.251-9.582
		c-0.018-0.071-0.028-0.143-0.028-0.216c0-2.252,9.006-4.08,20.113-4.08c11.108,0,20.113,1.828,20.113,4.08
		c0,0.075-0.012,0.148-0.029,0.221c-0.17,1.229-1.014,7.375-1.688,12.646h0.001c-0.132,1.03-0.257,2.026-0.369,2.946
		c5.916,1.793,9.669,4.45,9.669,7.418c0,2.027,0,8.917,0,10.945c0,1.713-1.254,3.323-3.447,4.723
		c0.369-0.149,0.578-0.238,0.578-0.238l48.75,71.3L175.389,147.413z"/>
</g>
</svg>
