<?xml version="1.0" encoding="utf-8"?>
<!-- Generator: Adobe Illustrator 15.0.0, SVG Export Plug-In . SVG Version: 6.00 Build 0)  -->
<!DOCTYPE svg PUBLIC "-//W3C//DTD SVG 1.1//EN" "http://www.w3.org/Graphics/SVG/1.1/DTD/svg11.dtd">
<svg version="1.1" xmlns="http://www.w3.org/2000/svg" xmlns:xlink="http://www.w3.org/1999/xlink" x="0px" y="0px" width="200px"
	 height="200px" viewBox="0 0 200 200" enable-background="new 0 0 200 200" xml:space="preserve">
<g id="icon">
	<g id="Layer_2">
	</g>
	<g id="Layer_1_1_">
		<g>
			<g>
				<g>
					<polygon fill="#8C898A" points="43.841,136.501 44.46,156.785 77.716,183.607 77.928,161.203 					"/>
					<polygon fill="#646162" points="118.252,97.319 156.16,117.566 77.928,161.203 43.841,136.501 					"/>
					<polygon fill="#C8C7C7" points="77.928,161.203 77.716,183.607 154.634,137.887 156.16,117.566 					"/>
					<polygon fill="#8C898A" points="56.146,52.146 55.502,137.411 77.538,154.297 79.008,66.937 					"/>
					<polygon fill="#646162" points="121.482,19.681 148.118,32.166 79.008,66.937 56.146,52.146 					"/>
					
						<linearGradient id="SVGID_1_" gradientUnits="userSpaceOnUse" x1="163.5771" y1="40.4531" x2="135.4745" y2="3.8809" gradientTransform="matrix(1 0 0 -1 -50 61)">
						<stop  offset="0" style="stop-color:#757375"/>
						<stop  offset="0.5" style="stop-color:#ACACAC"/>
						<stop  offset="1" style="stop-color:#6B696B"/>
					</linearGradient>
					<path fill="url(#SVGID_1_)" d="M133.557,32.473c0,8.247-43.323,28.815-43.323,28.815l-22.98-14.244
						c0-8.247,10.238-20.166,22.865-26.621c9.323-4.766,17.342-5.221,20.9-1.815C112.283,19.815,133.557,32.473,133.557,32.473z"/>
					<path fill="#C8C7C7" d="M135.936,38.297c0.004-0.127,0.025-0.26,0.025-0.386c0-8.247-10.234-9.7-22.861-3.243
						c-12.628,6.455-22.866,18.374-22.866,26.62l-11.226,5.649l-1.47,87.36l65.745-36.365l4.835-85.766L135.936,38.297z"/>
					<g>
						<polygon fill="#646162" points="130.596,63.535 118.259,69.215 125.961,73.751 139.479,67.362 						"/>
						
							<linearGradient id="SVGID_2_" gradientUnits="userSpaceOnUse" x1="176.6436" y1="-51.5264" x2="197.7371" y2="-53.1084" gradientTransform="matrix(1.0016 0.0218 -0.0301 -0.999 -75.7842 30.6672)">
							<stop  offset="0" style="stop-color:#E6EDF0"/>
							<stop  offset="0.3067" style="stop-color:#8D8B8D"/>
							<stop  offset="1" style="stop-color:#2E332E"/>
						</linearGradient>
						<polygon fill="url(#SVGID_2_)" points="108.646,57.795 108.301,110.048 116.602,116.104 117.395,62.721 						"/>
						<polygon fill="#C8C7C7" points="139.479,67.362 126.408,73.538 126.932,57.918 117.395,62.721 117.105,78.04 102.104,85.106 
							101.986,94.631 116.932,87.167 116.602,116.104 125.551,110.805 126.09,83.15 139.15,76.559 						"/>
						<polygon fill="#646162" points="108.509,74.078 94.399,80.57 102.104,85.106 117.395,77.905 						"/>
						
							<linearGradient id="SVGID_3_" gradientUnits="userSpaceOnUse" x1="3657.2832" y1="-4281.5864" x2="3672.7737" y2="-4293.0244" gradientTransform="matrix(-0.0121 1.0671 0.9417 -0.4166 4181.6055 -5612.7686)">
							<stop  offset="0" style="stop-color:#E6EDF0"/>
							<stop  offset="0.3067" style="stop-color:#8D8B8D"/>
							<stop  offset="1" style="stop-color:#2E332E"/>
						</linearGradient>
						<polygon fill="url(#SVGID_3_)" points="94.399,89.571 94.399,80.57 102.104,85.106 101.986,94.631 						"/>
						<polygon fill="#646162" points="117.395,53.644 126.932,57.918 117.395,62.721 108.646,57.795 						"/>
					</g>
				</g>
				<g opacity="0.87">
					
						<radialGradient id="SVGID_4_" cx="145.041" cy="-21.1479" r="104.9812" gradientTransform="matrix(1 0 0 -1 -50 61)" gradientUnits="userSpaceOnUse">
						<stop  offset="0" style="stop-color:#FFFFFF;stop-opacity:0"/>
						<stop  offset="0.092" style="stop-color:#F7F7F7;stop-opacity:0.0506"/>
						<stop  offset="0.2383" style="stop-color:#E0E0E0;stop-opacity:0.1311"/>
						<stop  offset="0.4206" style="stop-color:#BABABA;stop-opacity:0.2313"/>
						<stop  offset="0.6317" style="stop-color:#868686;stop-opacity:0.3475"/>
						<stop  offset="0.8642" style="stop-color:#444444;stop-opacity:0.4753"/>
						<stop  offset="1" style="stop-color:#1A1A1A;stop-opacity:0.55"/>
					</radialGradient>
					<path fill="url(#SVGID_4_)" d="M143.639,110.878l4.479-78.712l-26.636-12.484l-4.994,2.481
						c-2.885-1.785-5.088-3.191-5.469-3.555c-3.559-3.406-11.578-2.951-20.9,1.815c-12.413,6.345-22.491,17.961-22.832,26.188
						l-11.141,5.535l-0.597,78.188l-11.709,6.167l0.619,20.284l33.256,26.822l76.917-45.722l1.526-20.319L143.639,110.878z"/>
				</g>
			</g>
			<g opacity="0.54">
				<polygon fill="#231F20" points="91.511,147.27 93.728,137.848 91.511,129.264 93.728,117.566 92.125,128.798 94.514,137.684 
					93.259,145.473 				"/>
				<polygon fill="#231F20" points="144.686,91.567 140.561,91.854 137.832,94.344 132.006,90.366 137.71,93.273 139.479,91.075 
					144.837,90.366 				"/>
				<polygon fill="#231F20" points="134.98,99.303 138.421,96.608 137.832,94.344 138.421,93.807 139.07,96.555 				"/>
				<polygon fill="#231F20" points="56.119,75.356 62.794,78.508 61.811,82.73 66.921,87.644 61.52,83.516 61.52,78.897 
					56.012,76.538 				"/>
				<polygon fill="#231F20" points="127.426,134.434 131.919,137.148 131.221,141.326 134.449,142.914 135.68,149.896 
					133.436,151.602 133.639,143.701 130.275,142.333 131.007,137.76 				"/>
			</g>
		</g>
	</g>
</g>
<g id="outline_x5F_white">
	<g>
		<g>
			<path fill="#FFFFFF" d="M104.201,16.392c2.931,0,5.287,0.75,6.818,2.216c0.381,0.364,2.584,1.77,5.469,3.555l4.994-2.481
				l26.636,12.484l-4.479,78.712l12.521,6.688l-1.526,20.319l-76.917,45.722L44.46,156.785l-0.619-20.284l11.709-6.167l0.597-78.188
				l11.141-5.535c0.341-8.227,10.419-19.842,22.832-26.188C95.432,17.708,100.319,16.392,104.201,16.392 M104.201,4.392
				L104.201,4.392c-5.943,0-12.702,1.849-19.544,5.347c-11.594,5.926-23.514,16.955-27.759,28.634l-6.091,3.026
				c-4.051,2.012-6.626,6.132-6.66,10.655l-0.542,71.008l-5.356,2.82c-4.057,2.137-6.542,6.399-6.402,10.983l0.619,20.284
				c0.107,3.498,1.736,6.775,4.461,8.975l33.256,26.823c2.184,1.762,4.854,2.659,7.536,2.659c2.111,0,4.23-0.557,6.129-1.686
				l76.917-45.722c3.363-2,5.541-5.515,5.834-9.417l1.526-20.32c0.356-4.74-2.119-9.243-6.312-11.482l-5.76-3.076l4.045-71.058
				c0.277-4.895-2.449-9.467-6.889-11.548L126.575,8.815c-1.614-0.757-3.354-1.134-5.093-1.134c-1.364,0-2.728,0.232-4.029,0.696
				C114.639,6.318,110.355,4.392,104.201,4.392L104.201,4.392L104.201,4.392z"/>
		</g>
	</g>
</g>
<g id="outline_x5F_black">
	<g>
		<path d="M104.201,16.392c2.931,0,5.287,0.75,6.818,2.216c0.381,0.364,2.584,1.77,5.469,3.555l4.994-2.481l26.636,12.484
			l-4.479,78.712l12.521,6.688l-1.526,20.319l-76.917,45.722L44.46,156.785l-0.619-20.284l11.709-6.167l0.597-78.188l11.141-5.535
			c0.341-8.227,10.419-19.842,22.832-26.188C95.431,17.708,100.319,16.392,104.201,16.392 M104.201,10.392v6V10.392
			c-4.998,0-10.812,1.621-16.812,4.689c-12.761,6.523-23.004,17.78-25.517,27.521l-8.395,4.17l-3.302,1.641L50.146,52.1
			l-0.569,74.598l-8.532,4.493l-3.315,1.746l0.114,3.746l0.619,20.283l0.084,2.758l2.146,1.729l33.256,26.823l3.247,2.619
			l3.586-2.133l76.917-45.722l2.684-1.595l0.234-3.113l1.525-20.32l0.293-3.898l-3.449-1.842l-9.141-4.883l4.262-74.886l0.23-4.051
			l-3.674-1.723l-26.637-12.484l-2.623-1.229l-2.594,1.289l-1.986,0.987c-1.191-0.757-1.689-1.096-1.885-1.234
			C112.307,11.661,108.6,10.392,104.201,10.392L104.201,10.392z"/>
	</g>
</g>
</svg>
