<?xml version="1.0" encoding="utf-8"?>
<!-- Generator: Adobe Illustrator 15.0.0, SVG Export Plug-In . SVG Version: 6.00 Build 0)  -->
<!DOCTYPE svg PUBLIC "-//W3C//DTD SVG 1.1//EN" "http://www.w3.org/Graphics/SVG/1.1/DTD/svg11.dtd">
<svg version="1.1" xmlns="http://www.w3.org/2000/svg" xmlns:xlink="http://www.w3.org/1999/xlink" x="0px" y="0px" width="200px"
	 height="200px" viewBox="0 0 200 200" enable-background="new 0 0 200 200" xml:space="preserve">
<g id="icon">
	<g id="Layer_2">
	</g>
	<g id="Layer_1_1_">
		<g>
			<g opacity="0.44">
				<g>
					
						<radialGradient id="SVGID_1_" cx="393.0254" cy="-511.7734" r="25.8993" gradientTransform="matrix(0.9964 -0.05 -0.0124 -1.0029 -323.983 -401.4404)" gradientUnits="userSpaceOnUse">
						<stop  offset="0" style="stop-color:#130C0E;stop-opacity:0"/>
						<stop  offset="0.9385" style="stop-color:#130C0E;stop-opacity:0.6112"/>
						<stop  offset="1" style="stop-color:#130C0E;stop-opacity:0.6512"/>
					</radialGradient>
					<path fill="url(#SVGID_1_)" d="M48.628,94.647l48.318,22.796l2.143-46.56c0,0-6.529-0.037-12.828-1.378
						c-5.864-1.248-11.529-3.808-11.529-3.808L48.628,94.647z"/>
				</g>
				<g>
					
						<radialGradient id="SVGID_2_" cx="392.6699" cy="-515.9453" r="23.6763" gradientTransform="matrix(0.9964 -0.05 -0.0124 -1.0029 -323.983 -401.4404)" gradientUnits="userSpaceOnUse">
						<stop  offset="0" style="stop-color:#130C0E;stop-opacity:0"/>
						<stop  offset="0.9385" style="stop-color:#130C0E;stop-opacity:0.6112"/>
						<stop  offset="1" style="stop-color:#130C0E;stop-opacity:0.6512"/>
					</radialGradient>
					<polygon fill="url(#SVGID_2_)" points="48.628,94.647 96.946,117.443 98.403,72.884 					"/>
				</g>
				
					<radialGradient id="SVGID_3_" cx="656.8359" cy="-596.1006" r="36.591" gradientTransform="matrix(0.9617 0.2268 0.2612 -0.9782 -403.1037 -592.5121)" gradientUnits="userSpaceOnUse">
					<stop  offset="0" style="stop-color:#130C0E;stop-opacity:0"/>
					<stop  offset="0.9385" style="stop-color:#130C0E;stop-opacity:0.6112"/>
					<stop  offset="1" style="stop-color:#130C0E;stop-opacity:0.6512"/>
				</radialGradient>
				<polygon fill="url(#SVGID_3_)" points="48.628,94.647 96.946,117.443 97.121,184.479 53.953,163.143 				"/>
				<g>
					
						<radialGradient id="SVGID_4_" cx="393.9395" cy="-584.9951" r="20.9227" gradientTransform="matrix(0.9964 -0.05 -0.0124 -1.0029 -323.983 -401.4404)" gradientUnits="userSpaceOnUse">
						<stop  offset="0" style="stop-color:#130C0E;stop-opacity:0"/>
						<stop  offset="0.9385" style="stop-color:#130C0E;stop-opacity:0.6112"/>
						<stop  offset="1" style="stop-color:#130C0E;stop-opacity:0.6512"/>
					</radialGradient>
					<polygon fill="url(#SVGID_4_)" points="97.343,144.479 97.121,184.479 53.953,163.143 					"/>
				</g>
				<g>
					
						<radialGradient id="SVGID_5_" cx="442.8398" cy="-561.7427" r="36.2892" gradientTransform="matrix(0.9964 -0.05 -0.0124 -1.0029 -323.983 -401.4404)" gradientUnits="userSpaceOnUse">
						<stop  offset="0" style="stop-color:#130C0E;stop-opacity:0"/>
						<stop  offset="0.9385" style="stop-color:#130C0E;stop-opacity:0.6112"/>
						<stop  offset="1" style="stop-color:#130C0E;stop-opacity:0.6512"/>
					</radialGradient>
					<polygon fill="url(#SVGID_5_)" points="151.335,95.101 96.946,117.443 97.121,184.479 144.242,162.661 					"/>
				</g>
				<g>
					
						<radialGradient id="SVGID_6_" cx="438.8633" cy="-582.8921" r="22.9132" gradientTransform="matrix(0.9964 -0.05 -0.0124 -1.0029 -323.983 -401.4404)" gradientUnits="userSpaceOnUse">
						<stop  offset="0" style="stop-color:#130C0E;stop-opacity:0"/>
						<stop  offset="0.9385" style="stop-color:#130C0E;stop-opacity:0.6112"/>
						<stop  offset="1" style="stop-color:#130C0E;stop-opacity:0.6512"/>
					</radialGradient>
					<polygon fill="url(#SVGID_6_)" points="97.292,140.261 97.121,184.479 144.242,162.661 					"/>
				</g>
				
					<radialGradient id="SVGID_7_" cx="443.168" cy="-513.0464" r="26.2653" gradientTransform="matrix(0.9964 -0.05 -0.0124 -1.0029 -323.983 -401.4404)" gradientUnits="userSpaceOnUse">
					<stop  offset="0" style="stop-color:#130C0E;stop-opacity:0"/>
					<stop  offset="0.9385" style="stop-color:#130C0E;stop-opacity:0.6112"/>
					<stop  offset="1" style="stop-color:#130C0E;stop-opacity:0.6512"/>
				</radialGradient>
				<path fill="url(#SVGID_7_)" d="M96.946,117.443L151.335,95.1l-25.681-29.402c0,0-5.717,2.439-11.454,3.745
					c-7.075,1.61-15.111,1.44-15.111,1.44L96.946,117.443z"/>
				
					<radialGradient id="SVGID_8_" cx="443.168" cy="-515.9453" r="24.9281" gradientTransform="matrix(0.9964 -0.05 -0.0124 -1.0029 -323.983 -401.4404)" gradientUnits="userSpaceOnUse">
					<stop  offset="0" style="stop-color:#130C0E;stop-opacity:0"/>
					<stop  offset="0.9385" style="stop-color:#130C0E;stop-opacity:0.6112"/>
					<stop  offset="1" style="stop-color:#130C0E;stop-opacity:0.6512"/>
				</radialGradient>
				<polygon fill="url(#SVGID_8_)" points="96.946,117.443 151.335,95.101 98.403,72.884 				"/>
			</g>
			
				<radialGradient id="SVGID_9_" cx="27.6001" cy="388.6729" r="16.1586" gradientTransform="matrix(0.9554 0 0 -0.6715 73.6506 307.5704)" gradientUnits="userSpaceOnUse">
				<stop  offset="0" style="stop-color:#130C0E;stop-opacity:0"/>
				<stop  offset="0.9385" style="stop-color:#130C0E;stop-opacity:0.6112"/>
				<stop  offset="1" style="stop-color:#130C0E;stop-opacity:0.6512"/>
			</radialGradient>
			<ellipse opacity="0.44" fill="url(#SVGID_9_)" enable-background="new    " cx="100.02" cy="46.576" rx="20.976" ry="4.255"/>
			<g opacity="0.54">
				
					<linearGradient id="SVGID_10_" gradientUnits="userSpaceOnUse" x1="681.8613" y1="-541.1978" x2="692.9659" y2="-547.9567" gradientTransform="matrix(0.9617 0.2268 0.2612 -0.9782 -403.1037 -592.5121)">
					<stop  offset="0" style="stop-color:#FFFFFF;stop-opacity:0"/>
					<stop  offset="0.5215" style="stop-color:#FFFFFF"/>
					<stop  offset="1" style="stop-color:#FFFFFF;stop-opacity:0"/>
				</linearGradient>
				<path fill="url(#SVGID_10_)" d="M96.983,117.443L151.371,95.1l-25.717-29.402c0,0-5.532,2.59-11.766,3.808
					c-6.988,1.366-14.765,1.378-14.765,1.378L96.983,117.443z"/>
				
					<linearGradient id="SVGID_11_" gradientUnits="userSpaceOnUse" x1="670.6006" y1="-554.3887" x2="659.76" y2="-549.2265" gradientTransform="matrix(0.9617 0.2268 0.2612 -0.9782 -403.1037 -592.5121)">
					<stop  offset="0" style="stop-color:#FFFFFF"/>
					<stop  offset="1" style="stop-color:#00060F;stop-opacity:0"/>
				</linearGradient>
				<path fill="url(#SVGID_11_)" d="M48.664,94.647l48.319,22.796l2.142-46.56c0,0-7.175,0.237-13.543-1.101
					c-5.81-1.221-10.865-4.028-10.865-4.028L48.664,94.647z"/>
			</g>
			
				<radialGradient id="SVGID_12_" cx="150.0176" cy="-369.7451" r="47.4468" gradientTransform="matrix(1 0 0 -0.4405 -50 -107.4561)" gradientUnits="userSpaceOnUse">
				<stop  offset="0" style="stop-color:#130C0E;stop-opacity:0"/>
				<stop  offset="0.9385" style="stop-color:#130C0E;stop-opacity:0.6112"/>
				<stop  offset="1" style="stop-color:#130C0E;stop-opacity:0.6512"/>
			</radialGradient>
			<path fill="url(#SVGID_12_)" d="M128.617,49.766c0-5.575-12.805-10.095-28.6-10.095c-15.794,0-28.599,4.52-28.599,10.095
				c0,2.094,0,9.208,0,11.302c0,5.575,12.805,10.094,28.599,10.094c15.795,0,28.6-4.519,28.6-10.094
				C128.617,58.974,128.617,51.86,128.617,49.766z"/>
			
				<linearGradient id="SVGID_13_" gradientUnits="userSpaceOnUse" x1="128.8975" y1="1.4546" x2="171.5645" y2="1.4546" gradientTransform="matrix(1 0 0 -1 -50 61)">
				<stop  offset="0" style="stop-color:#81693C"/>
				<stop  offset="0.4847" style="stop-color:#DFAA76"/>
				<stop  offset="1" style="stop-color:#81693C"/>
			</linearGradient>
			<path fill="url(#SVGID_13_)" d="M81.728,52.036c0,0-3.492-0.844-2.718,1.843c0.382,1.323-0.737,2.34,0.772,3.275
				c1.325,0.821,2.705,2.346,2.367,3.398c-0.307,0.958-3.464,0.122-1.076,2.547c2.776,2.82,10.476,4.064,16.655,4.127
				c11.342,0.114,19.29-1.822,20.976-4.54c1.106-1.783,0.46-2.747-0.038-3.02c-2.007-1.103-2.583-0.913,1.248-2.849
				c2.449-1.239,2.171-5.465-0.818-4.907c-2.99,0.558-20.296,4.953-36.946,0.707"/>
			
				<linearGradient id="SVGID_14_" gradientUnits="userSpaceOnUse" x1="-20.2402" y1="-88.6743" x2="-11.6131" y2="-63.9584" gradientTransform="matrix(0.9465 -0.3227 -0.3227 -0.9465 91.1276 -28.8922)">
				<stop  offset="0" style="stop-color:#FFFFFF"/>
				<stop  offset="0.0896" style="stop-color:#FFFFFF;stop-opacity:0.9104"/>
				<stop  offset="1" style="stop-color:#FFFFFF;stop-opacity:0"/>
			</linearGradient>
			<path opacity="0.75" fill="url(#SVGID_14_)" enable-background="new    " d="M85.098,51.86c0,0-5.51,3.065-1.218,4.342
				c2.488,0.737,19.933,3.344,33.001-0.785c1.473-0.465,3.164-4.961,1.438-4.026C120.234,50.353,104.145,54.582,85.098,51.86z"/>
			
				<linearGradient id="SVGID_15_" gradientUnits="userSpaceOnUse" x1="145.2393" y1="-168.9146" x2="156.239" y2="143.0829" gradientTransform="matrix(1 0 0 -1 -50 61)">
				<stop  offset="0" style="stop-color:#FFFFFF"/>
				<stop  offset="0.0896" style="stop-color:#FFFFFF;stop-opacity:0.9104"/>
				<stop  offset="1" style="stop-color:#FFFFFF;stop-opacity:0"/>
			</linearGradient>
			<path opacity="0.75" fill="url(#SVGID_15_)" enable-background="new    " d="M100.018,44.671c14.269,0,22.325,3.711,23.6,5.425
				v10.621c-0.149,0.18-0.505,0.537-1.249,1.013l2.43,4.718l-2.906,2.542l25.635,27.229l-6.567,63.723L97.173,180.08l-39.775-19.377
				L52.457,96.03l25.94-26.93l3.86-4.28l-4.782-3.217c-0.615-0.414-0.92-0.724-1.057-0.887v-10.62
				C77.694,48.383,85.749,44.671,100.018,44.671 M100.018,39.671c-15.794,0-28.599,4.52-28.599,10.095c0,2.094,0,9.208,0,11.302
				c0,1.691,1.184,3.283,3.266,4.684L48.628,94.647l5.325,68.494l43.168,21.336l0.036-0.018v0.018l47.12-21.815l7.094-67.561
				l-25.717-29.402c0,0-0.215,0.092-0.598,0.246c2.267-1.446,3.561-3.107,3.561-4.877c0-2.094,0-9.208,0-11.302
				C128.617,44.191,115.812,39.671,100.018,39.671L100.018,39.671z"/>
			
				<linearGradient id="SVGID_16_" gradientUnits="userSpaceOnUse" x1="130.6875" y1="23.52" x2="134.9171" y2="5.5442" gradientTransform="matrix(1 0 0 -1 -50 61)">
				<stop  offset="0" style="stop-color:#FFFFFF"/>
				<stop  offset="0.0503" style="stop-color:#FFFFFF;stop-opacity:0.9498"/>
				<stop  offset="0.5613" style="stop-color:#FFFFFF;stop-opacity:0.4395"/>
				<stop  offset="1" style="stop-color:#FFFFFF;stop-opacity:0"/>
			</linearGradient>
			<path fill="url(#SVGID_16_)" d="M91.958,43.009c0,0,1.46-1.683-1.861-1.209c-3.654,0.521-8.738,0.652-15.06,4.374
				c-4.983,2.935,0.651,8.56,3.284,7.143c2.63-1.417-6.286-3.729,2.197-7.585C87.194,42.698,91.958,46.044,91.958,43.009z"/>
			
				<linearGradient id="SVGID_17_" gradientUnits="userSpaceOnUse" x1="5276.6484" y1="23.5205" x2="5280.8779" y2="5.5466" gradientTransform="matrix(-1 0 0 -1 5395.5039 61)">
				<stop  offset="0" style="stop-color:#FFFFFF"/>
				<stop  offset="0.0503" style="stop-color:#FFFFFF;stop-opacity:0.9498"/>
				<stop  offset="0.5613" style="stop-color:#FFFFFF;stop-opacity:0.4395"/>
				<stop  offset="1" style="stop-color:#FFFFFF;stop-opacity:0"/>
			</linearGradient>
			<path fill="url(#SVGID_17_)" d="M107.586,43.009c0,0-1.46-1.683,1.859-1.209c3.654,0.521,8.74,0.652,15.062,4.374
				c4.981,2.935-0.651,8.56-3.284,7.143c-2.63-1.417,6.286-3.729-2.197-7.585C112.352,42.698,107.586,46.044,107.586,43.009z"/>
			<g>
				
					<linearGradient id="SVGID_18_" gradientUnits="userSpaceOnUse" x1="5.8584" y1="401.1543" x2="49.335" y2="401.1543" gradientTransform="matrix(0.9554 0 0 -0.6715 73.6506 307.5704)">
					<stop  offset="0" style="stop-color:#7C5320"/>
					<stop  offset="0.5153" style="stop-color:#FAC28D"/>
					<stop  offset="1" style="stop-color:#7C5320"/>
				</linearGradient>
				<path fill="url(#SVGID_18_)" d="M118.111,47.161c0,2.026-8.1,3.67-18.094,3.67c-9.993,0-18.093-1.644-18.093-3.67
					c0-1.17-2.676-21.384-2.676-21.384c3.079-0.491,37.316,0,41.537,0C120.786,25.776,118.111,45.134,118.111,47.161z"/>
				
					<linearGradient id="SVGID_19_" gradientUnits="userSpaceOnUse" x1="150.0176" y1="10.4287" x2="150.0176" y2="33.2571" gradientTransform="matrix(1 0 0 -1 -50 61)">
					<stop  offset="0" style="stop-color:#7C5320"/>
					<stop  offset="1" style="stop-color:#7C5320;stop-opacity:0"/>
				</linearGradient>
				<path fill="url(#SVGID_19_)" d="M118.111,47.161c0,2.026-8.1,3.67-18.094,3.67c-9.993,0-18.093-1.644-18.093-3.67
					c0-1.17-2.676-21.384-2.676-21.384c3.079-0.491,37.316,0,41.537,0C120.786,25.776,118.111,45.134,118.111,47.161z"/>
				
					<linearGradient id="SVGID_20_" gradientUnits="userSpaceOnUse" x1="149.8379" y1="37.0459" x2="151.7484" y2="17.7495" gradientTransform="matrix(1 0 0 -1 -50 61)">
					<stop  offset="0" style="stop-color:#FAC28D"/>
					<stop  offset="1" style="stop-color:#7C5320"/>
				</linearGradient>
				<ellipse fill="url(#SVGID_20_)" cx="100.018" cy="25.776" rx="20.769" ry="4.212"/>
				
					<linearGradient id="SVGID_21_" gradientUnits="userSpaceOnUse" x1="149.8379" y1="37.0459" x2="151.7484" y2="17.7495" gradientTransform="matrix(1 0 0 -1 -50 61)">
					<stop  offset="0" style="stop-color:#FAC28D"/>
					<stop  offset="1" style="stop-color:#7C5320"/>
				</linearGradient>
				<ellipse fill="url(#SVGID_21_)" cx="100.018" cy="25.776" rx="20.769" ry="4.212"/>
				
					<linearGradient id="SVGID_22_" gradientUnits="userSpaceOnUse" x1="149.627" y1="33.5034" x2="154.9418" y2="56.5346" gradientTransform="matrix(1 0 0 -1 -50 61)">
					<stop  offset="0" style="stop-color:#FAC28D"/>
					<stop  offset="1" style="stop-color:#7C5320"/>
				</linearGradient>
				<path fill="url(#SVGID_22_)" d="M100.018,28.549c-9.672,0-17.872-1.211-20.753-2.889c-0.006,0.039-0.016,0.077-0.016,0.116
					c0,2.327,9.3,4.212,20.769,4.212c11.472,0,20.769-1.886,20.769-4.212c0-0.039-0.01-0.077-0.014-0.116
					C117.893,27.338,109.691,28.549,100.018,28.549z"/>
			</g>
			
				<linearGradient id="SVGID_23_" gradientUnits="userSpaceOnUse" x1="134.3789" y1="1265.0527" x2="134.208" y2="1278.8632" gradientTransform="matrix(1 0 0 -1 -50 61)">
				<stop  offset="0" style="stop-color:#FFFFFF"/>
				<stop  offset="0.0896" style="stop-color:#FFFFFF;stop-opacity:0.9104"/>
				<stop  offset="1" style="stop-color:#FFFFFF;stop-opacity:0"/>
			</linearGradient>
			<polygon opacity="0.53" fill="url(#SVGID_23_)" enable-background="new    " points="49.552,94.239 95.618,114.843 
				97.121,71.162 100.646,71.162 98.567,113.956 148.562,93.938 151.371,95.101 98.567,118.369 98.567,183.809 96.946,182.834 
				95.303,117.443 49.552,96.09 			"/>
		</g>
	</g>
</g>
<g id="outline_x5F_white">
	<path fill="#FFFFFF" d="M160.402,87.2l-20.106-22.99c0.245-1.197,0.321-2.27,0.321-3.143V49.766c0-3.743-1.338-9.962-8.95-14.889
		c0.327-2.469,0.675-5.035,1.009-7.458c0.075-0.544,0.113-1.093,0.113-1.642c0-1.973-0.607-8.702-8.441-12.459
		c-1.966-0.942-4.339-1.688-7.255-2.28c-4.688-0.952-10.75-1.476-17.075-1.476c-6.323,0-12.386,0.523-17.07,1.474
		c-2.917,0.592-5.29,1.337-7.255,2.279c-7.835,3.757-8.443,10.487-8.443,12.46c0,0.527,0.034,1.053,0.104,1.575
		c0.33,2.493,0.668,5.077,0.988,7.543c-7.588,4.923-8.923,11.132-8.923,14.872v11.302c0,0.906,0.083,2.034,0.355,3.299
		L39.716,86.611c-2.204,2.443-3.307,5.686-3.052,8.966l5.325,68.493c0.328,4.22,2.854,7.953,6.647,9.828l43.167,21.336
		c1.676,0.828,3.496,1.242,5.317,1.242c0.289,0,0.577-0.011,0.865-0.031c1.438-0.098,2.867-0.455,4.213-1.078l47.12-21.816
		c3.834-1.775,6.451-5.436,6.894-9.637l7.093-67.561C163.654,93.031,162.602,89.714,160.402,87.2z M144.279,162.662l-47.121,21.816
		v-0.019l-0.036,0.019l-43.168-21.336l-5.325-68.495l26.057-28.896c-2.082-1.4-3.266-2.993-3.266-4.684c0-2.094,0-9.208,0-11.302
		c0-3.057,3.855-5.795,9.938-7.646l0,0c0,0,0,0,0.001,0c-0.785-6.34-2.109-16.343-2.109-16.343c0-2.326,9.3-4.213,20.769-4.213
		c11.472,0,20.769,1.887,20.769,4.213c0,0-0.246,1.783-0.589,4.32c0,0-0.001,0-0.001,0c-0.468,3.461-1.115,8.328-1.564,12.01
		c0.001,0,0.001,0,0.002,0c0,0,0,0,0,0c6.108,1.851,9.982,4.595,9.982,7.66c0,0.696,0,1.949,0,3.385c0,0,0.001-0.001,0.001-0.002
		c0,2.886,0,6.521,0,7.919c0,1.77-1.294,3.431-3.56,4.877c0.383-0.154,0.598-0.246,0.598-0.246l25.716,29.402L144.279,162.662z"/>
</g>
<g id="outline_x5F_black">
	<path d="M155.887,91.15l-22.365-25.569c0.842-1.653,1.095-3.223,1.095-4.513V49.766c0.001-5.322-3.992-9.229-10.033-11.863
		c0.408-3.043,0.902-6.551,1.446-10.493c0.076-0.423,0.115-0.85,0.115-1.277c0-6.814-7.473-8.501-10.207-9.056
		c-4.315-0.876-9.97-1.358-15.918-1.358c-5.948,0-11.602,0.482-15.917,1.358c-2.734,0.555-10.554,1.742-10.554,8.557
		c0,0.414,0.037,0.828,0.11,1.237c0.517,3.911,1.047,7.764,1.493,11.166c-5.871,2.632-9.732,6.497-9.732,11.729v11.302
		c0,1.326,0.269,2.962,1.186,4.685L44.172,90.63c-1.102,1.222-1.653,2.842-1.526,4.482l5.325,68.494
		c0.164,2.109,1.427,3.978,3.323,4.914l43.168,21.336c0.837,0.414,1.748,0.621,2.658,0.621c0.148,0,0.297-0.006,0.445-0.017
		c0.721-0.048,1.437-0.228,2.111-0.539l47.121-21.815c1.917-0.888,3.227-2.717,3.446-4.817l7.093-67.561
		C157.512,94.066,156.984,92.407,155.887,91.15z M144.279,162.662l-47.121,21.816v-0.019l-0.036,0.019l-43.168-21.336l-5.325-68.495
		l26.057-28.896c-2.082-1.4-3.266-2.993-3.266-4.684c0-2.094,0-9.208,0-11.302c0-3.057,3.855-5.795,9.938-7.646
		c-0.118-0.948-0.247-1.978-0.382-3.042c0,0,0.001,0,0.002,0C80.287,33.639,79.446,27.26,79.278,26
		c-0.019-0.073-0.029-0.147-0.029-0.223c0-2.326,9.3-4.213,20.769-4.213c11.472,0,20.769,1.887,20.769,4.213
		c0,0.077-0.012,0.153-0.03,0.229c-0.144,1.04-0.755,5.496-1.354,10.067c-0.001,0-0.001,0-0.002,0
		c-0.274,2.092-0.546,4.208-0.769,6.033c6.11,1.852,9.985,4.596,9.985,7.661c0,2.094,0,9.208,0,11.302
		c0,1.77-1.294,3.431-3.56,4.877c0.383-0.154,0.598-0.246,0.598-0.246l25.716,29.402L144.279,162.662z"/>
</g>
</svg>
