<?xml version="1.0" encoding="utf-8"?>
<!-- Generator: Adobe Illustrator 15.0.0, SVG Export Plug-In . SVG Version: 6.00 Build 0)  -->
<!DOCTYPE svg PUBLIC "-//W3C//DTD SVG 1.1//EN" "http://www.w3.org/Graphics/SVG/1.1/DTD/svg11.dtd">
<svg version="1.1" xmlns="http://www.w3.org/2000/svg" xmlns:xlink="http://www.w3.org/1999/xlink" x="0px" y="0px" width="200px"
	 height="200px" viewBox="0 0 200 200" enable-background="new 0 0 200 200" xml:space="preserve">
<g id="icon">
	<g id="Layer_2">
	</g>
	<g>
		<g>
			
				<radialGradient id="SVGID_1_" cx="166.2109" cy="732.1875" r="37.5098" gradientTransform="matrix(1 0 0 1 -100 -591)" gradientUnits="userSpaceOnUse">
				<stop  offset="0.1758" style="stop-color:#96FF00"/>
				<stop  offset="1" style="stop-color:#007C00;stop-opacity:0"/>
			</radialGradient>
			<circle fill="url(#SVGID_1_)" cx="66.211" cy="141.187" r="37.51"/>
			
				<radialGradient id="SVGID_2_" cx="147.7002" cy="702.6826" r="25.71" gradientTransform="matrix(1 0 0 1 -100 -591)" gradientUnits="userSpaceOnUse">
				<stop  offset="0.1758" style="stop-color:#96FF00"/>
				<stop  offset="1" style="stop-color:#007C00;stop-opacity:0"/>
			</radialGradient>
			<circle fill="url(#SVGID_2_)" cx="47.7" cy="111.683" r="25.71"/>
			
				<radialGradient id="SVGID_3_" cx="223.9258" cy="732.8955" r="32.2451" gradientTransform="matrix(1 0 0 1 -100 -591)" gradientUnits="userSpaceOnUse">
				<stop  offset="0.1758" style="stop-color:#96FF00"/>
				<stop  offset="1" style="stop-color:#007C00;stop-opacity:0"/>
			</radialGradient>
			<circle fill="url(#SVGID_3_)" cx="123.926" cy="141.896" r="32.245"/>
			
				<radialGradient id="SVGID_4_" cx="247.7451" cy="669.5" r="23.2632" gradientTransform="matrix(1 0 0 1 -100 -591)" gradientUnits="userSpaceOnUse">
				<stop  offset="0.1758" style="stop-color:#96FF00"/>
				<stop  offset="1" style="stop-color:#007C00;stop-opacity:0"/>
			</radialGradient>
			<circle fill="url(#SVGID_4_)" cx="147.745" cy="78.5" r="23.263"/>
			
				<radialGradient id="SVGID_5_" cx="223.9248" cy="699.0195" r="28.3618" gradientTransform="matrix(1 0 0 1 -100 -591)" gradientUnits="userSpaceOnUse">
				<stop  offset="0.1758" style="stop-color:#96FF00"/>
				<stop  offset="1" style="stop-color:#007C00;stop-opacity:0"/>
			</radialGradient>
			<circle fill="url(#SVGID_5_)" cx="123.925" cy="108.019" r="28.362"/>
			
				<radialGradient id="SVGID_6_" cx="223.9258" cy="633.6543" r="17.4956" gradientTransform="matrix(1 0 0 1 -100 -591)" gradientUnits="userSpaceOnUse">
				<stop  offset="0.1758" style="stop-color:#96FF00"/>
				<stop  offset="1" style="stop-color:#007C00;stop-opacity:0"/>
			</radialGradient>
			<circle fill="url(#SVGID_6_)" cx="123.925" cy="42.654" r="17.496"/>
			
				<radialGradient id="SVGID_7_" cx="155.915" cy="651.1504" r="17.4961" gradientTransform="matrix(1 0 0 1 -100 -591)" gradientUnits="userSpaceOnUse">
				<stop  offset="0.1758" style="stop-color:#96FF00"/>
				<stop  offset="1" style="stop-color:#007C00;stop-opacity:0"/>
			</radialGradient>
			<circle fill="url(#SVGID_7_)" cx="55.915" cy="60.15" r="17.496"/>
			
				<radialGradient id="SVGID_8_" cx="180.4062" cy="638.2148" r="31.46" gradientTransform="matrix(1 0 0 1 -100 -591)" gradientUnits="userSpaceOnUse">
				<stop  offset="0.1758" style="stop-color:#96FF00"/>
				<stop  offset="1" style="stop-color:#007C00;stop-opacity:0"/>
			</radialGradient>
			<circle fill="url(#SVGID_8_)" cx="80.406" cy="47.215" r="31.46"/>
			
				<radialGradient id="SVGID_9_" cx="209.5254" cy="639.0996" r="31.459" gradientTransform="matrix(1 0 0 1 -100 -591)" gradientUnits="userSpaceOnUse">
				<stop  offset="0.1758" style="stop-color:#96FF00"/>
				<stop  offset="1" style="stop-color:#007C00;stop-opacity:0"/>
			</radialGradient>
			<circle fill="url(#SVGID_9_)" cx="109.525" cy="48.099" r="31.459"/>
			
				<radialGradient id="SVGID_10_" cx="228.1836" cy="655.3496" r="15.73" gradientTransform="matrix(1 0 0 1 -100 -591)" gradientUnits="userSpaceOnUse">
				<stop  offset="0.1758" style="stop-color:#96FF00"/>
				<stop  offset="1" style="stop-color:#007C00;stop-opacity:0"/>
			</radialGradient>
			<circle fill="url(#SVGID_10_)" cx="128.184" cy="64.349" r="15.73"/>
			
				<radialGradient id="SVGID_11_" cx="203.7227" cy="616.582" r="11.1953" gradientTransform="matrix(1 0 0 1 -100 -591)" gradientUnits="userSpaceOnUse">
				<stop  offset="0.1758" style="stop-color:#96FF00"/>
				<stop  offset="1" style="stop-color:#007C00;stop-opacity:0"/>
			</radialGradient>
			<circle fill="url(#SVGID_11_)" cx="103.723" cy="25.582" r="11.195"/>
			
				<radialGradient id="SVGID_12_" cx="249.9395" cy="641.9668" r="9.4839" gradientTransform="matrix(1 0 0 1 -100 -591)" gradientUnits="userSpaceOnUse">
				<stop  offset="0.1758" style="stop-color:#96FF00"/>
				<stop  offset="1" style="stop-color:#007C00;stop-opacity:0"/>
			</radialGradient>
			<circle fill="url(#SVGID_12_)" cx="149.939" cy="50.967" r="9.484"/>
			
				<radialGradient id="SVGID_13_" cx="169.8936" cy="610.8154" r="6.5811" gradientTransform="matrix(1 0 0 1 -100 -591)" gradientUnits="userSpaceOnUse">
				<stop  offset="0.1758" style="stop-color:#96FF00"/>
				<stop  offset="1" style="stop-color:#007C00;stop-opacity:0"/>
			</radialGradient>
			<circle fill="url(#SVGID_13_)" cx="69.893" cy="19.816" r="6.581"/>
			
				<radialGradient id="SVGID_14_" cx="259.4229" cy="721.2617" r="6.582" gradientTransform="matrix(1 0 0 1 -100 -591)" gradientUnits="userSpaceOnUse">
				<stop  offset="0.1758" style="stop-color:#96FF00"/>
				<stop  offset="1" style="stop-color:#007C00;stop-opacity:0"/>
			</radialGradient>
			<circle fill="url(#SVGID_14_)" cx="159.423" cy="130.262" r="6.582"/>
			
				<radialGradient id="SVGID_15_" cx="141.168" cy="693.4971" r="9.5752" gradientTransform="matrix(1 0 0 1 -100 -591)" gradientUnits="userSpaceOnUse">
				<stop  offset="0.1758" style="stop-color:#96FF00"/>
				<stop  offset="1" style="stop-color:#007C00;stop-opacity:0"/>
			</radialGradient>
			<circle fill="url(#SVGID_15_)" cx="41.168" cy="102.497" r="9.575"/>
			
				<radialGradient id="SVGID_16_" cx="165.9883" cy="721.9824" r="12.627" gradientTransform="matrix(1 0 0 1 -100 -591)" gradientUnits="userSpaceOnUse">
				<stop  offset="0.1758" style="stop-color:#96FF00"/>
				<stop  offset="1" style="stop-color:#007C00;stop-opacity:0"/>
			</radialGradient>
			<circle fill="url(#SVGID_16_)" cx="65.988" cy="130.982" r="12.627"/>
			
				<radialGradient id="SVGID_17_" cx="169.8926" cy="627.5293" r="6.957" gradientTransform="matrix(1 0 0 1 -100 -591)" gradientUnits="userSpaceOnUse">
				<stop  offset="0.1758" style="stop-color:#96FF00"/>
				<stop  offset="1" style="stop-color:#007C00;stop-opacity:0"/>
			</radialGradient>
			<circle fill="url(#SVGID_17_)" cx="69.892" cy="36.529" r="6.957"/>
			
				<radialGradient id="SVGID_18_" cx="243.9141" cy="712.4619" r="33.167" gradientTransform="matrix(1 0 0 1 -100 -591)" gradientUnits="userSpaceOnUse">
				<stop  offset="0.1758" style="stop-color:#96FF00"/>
				<stop  offset="1" style="stop-color:#007C00;stop-opacity:0"/>
			</radialGradient>
			<circle fill="url(#SVGID_18_)" cx="143.914" cy="121.462" r="33.167"/>
			
				<radialGradient id="SVGID_19_" cx="241.4219" cy="732.8945" r="7.8379" gradientTransform="matrix(1 0 0 1 -100 -591)" gradientUnits="userSpaceOnUse">
				<stop  offset="0.1758" style="stop-color:#96FF00"/>
				<stop  offset="1" style="stop-color:#007C00;stop-opacity:0"/>
			</radialGradient>
			<circle fill="url(#SVGID_19_)" cx="141.422" cy="141.895" r="7.838"/>
			
				<radialGradient id="SVGID_20_" cx="204.6133" cy="749.2207" r="11.5156" gradientTransform="matrix(1 0 0 1 -100 -591)" gradientUnits="userSpaceOnUse">
				<stop  offset="0.1758" style="stop-color:#96FF00"/>
				<stop  offset="1" style="stop-color:#007C00;stop-opacity:0"/>
			</radialGradient>
			<circle fill="url(#SVGID_20_)" cx="104.613" cy="158.22" r="11.516"/>
		</g>
		<g opacity="0.44">
			<g>
				
					<radialGradient id="SVGID_21_" cx="202.0029" cy="714.8242" r="62.7138" gradientTransform="matrix(1 0 0 1 -100 -591)" gradientUnits="userSpaceOnUse">
					<stop  offset="0" style="stop-color:#130C0E;stop-opacity:0"/>
					<stop  offset="0.9385" style="stop-color:#130C0E;stop-opacity:0.6112"/>
					<stop  offset="1" style="stop-color:#130C0E;stop-opacity:0.6512"/>
				</radialGradient>
				<path fill="url(#SVGID_21_)" d="M147.506,116.359c-8.357-7.075-12.979-13.104-16.072-21.863
					c-2.494-7.081-7.916-15.771-1.367-18.452c4.604-1.885,3.233-7.976-3.592-10.73c-7.227-2.916-11.137-4.431-26.375-4.431
					c-12.319,0-18.541,1.716-22.878,3.44c-4.766,1.034-7.635,2.559-7.985,6.229c-0.876,9.168,10.57,6.994,5.521,19.429
					c-3.956,9.738-12.944,16.166-25.964,34.11c-5.878,7.325-9.277,15.952-9.277,25.197c0,26.542,27.975,37.478,62.484,37.478
					c34.508,0,62.487-10.936,62.487-37.478C164.486,136.544,157.877,125.146,147.506,116.359z"/>
			</g>
		</g>
		<path fill="#FFFFFF" d="M127.039,79.644c1.258-1.061,2.296-2.284,3.083-3.628c-0.02,0.009-0.035,0.02-0.056,0.028
			C128.192,76.811,127.302,78.071,127.039,79.644z"/>
		<g>
			<g opacity="0.44">
				
					<linearGradient id="SVGID_22_" gradientUnits="userSpaceOnUse" x1="267.0303" y1="703.9062" x2="204.6758" y2="714.7363" gradientTransform="matrix(1 0 0 1 -100 -591)">
					<stop  offset="0" style="stop-color:#FFFFFF"/>
					<stop  offset="0.0896" style="stop-color:#FFFFFF;stop-opacity:0.9104"/>
					<stop  offset="1" style="stop-color:#FFFFFF;stop-opacity:0"/>
				</linearGradient>
				<path fill="url(#SVGID_22_)" d="M147.506,116.359c-8.357-7.075-15.663-13.547-18.757-22.309
					c-2.494-7.081-8.909-17.14-1.294-17.243c4.975-0.067,7.959-4.724,2.924-8.256c-7.23-5.074-9.463-7.154-34.767-7.154
					c-1.696,0-3.292,0.022-4.81,0.067c23.32,0.702,26.722,1.118,33.65,5.983c5.032,3.532,0.103,9.292-4.875,9.359
					c-7.615,0.104-1.2,10.162,1.299,17.243c3.092,8.763,10.39,15.231,18.749,22.31c10.376,8.785,16.982,20.184,16.982,32.929
					c0,25.524-25.873,36.612-58.547,37.424c1.304,0.032,2.614,0.054,3.938,0.054c34.508,0,62.486-10.936,62.486-37.478
					C164.486,136.544,157.877,125.146,147.506,116.359z"/>
			</g>
		</g>
		
			<radialGradient id="SVGID_23_" cx="201.541" cy="1068.2402" r="68.0039" fx="201.5398" fy="1044.5508" gradientTransform="matrix(1 0 0 0.6457 -100.0396 -540.1754)" gradientUnits="userSpaceOnUse">
			<stop  offset="0.2761" style="stop-color:#6DEB05"/>
			<stop  offset="1" style="stop-color:#3D7900"/>
		</radialGradient>
		<path fill="url(#SVGID_23_)" d="M159.512,148.749c0-6.444-1.834-12.517-5.076-18.019c-0.457-0.775-2.877-6.172-16.67-17.851
			c-7.311-6.675-6.096-2.416-36.748-2.416c-33.333,0-33.609-1.024-35.743,0.905c0,0-0.827,0.99-0.808,1.009
			c-0.472,0.586-12.361,14.362-12.796,14.965c-4.572,6.345-7.18,13.638-7.18,21.404c0,24.429,25.748,34.494,57.509,34.494
			C133.76,183.243,159.512,173.178,159.512,148.749z"/>
		
			<radialGradient id="SVGID_24_" cx="200.1113" cy="663.3086" r="82.9274" gradientTransform="matrix(1 0 0 1 -100 -591)" gradientUnits="userSpaceOnUse">
			<stop  offset="0" style="stop-color:#B9FF4B"/>
			<stop  offset="1" style="stop-color:#51DC00"/>
		</radialGradient>
		<path fill="url(#SVGID_24_)" d="M137.361,114.07c-0.084,6.365-16.211,11.197-36.016,10.791
			c-19.81-0.407-35.796-5.896-35.705-12.262c0.084-6.365,16.21-11.199,36.015-10.791
			C121.462,102.216,137.445,107.704,137.361,114.07z"/>
		
			<radialGradient id="SVGID_25_" cx="202.124" cy="716.2656" r="44.431" gradientTransform="matrix(1 0 0 1 -100 -591)" gradientUnits="userSpaceOnUse">
			<stop  offset="0" style="stop-color:#90E630"/>
			<stop  offset="1" style="stop-color:#90E630;stop-opacity:0"/>
		</radialGradient>
		<path fill="url(#SVGID_25_)" d="M101.346,122.445c-18.16-0.373-33.094-5.02-35.392-10.693c-0.196,0.475-0.308,0.958-0.312,1.452
			c-0.091,6.364,15.896,11.856,35.704,12.262c19.805,0.406,35.932-4.426,36.016-10.791c0.009-0.528-0.107-1.051-0.313-1.569
			C134.738,118.738,119.611,122.82,101.346,122.445z"/>
		
			<linearGradient id="SVGID_26_" gradientUnits="userSpaceOnUse" x1="180.1953" y1="648.168" x2="184.7695" y2="667.608" gradientTransform="matrix(1 0 0 1 -100 -591)">
			<stop  offset="0" style="stop-color:#FFFFFF"/>
			<stop  offset="0.0896" style="stop-color:#FFFFFF;stop-opacity:0.9104"/>
			<stop  offset="1" style="stop-color:#FFFFFF;stop-opacity:0"/>
		</linearGradient>
		<path opacity="0.42" fill="url(#SVGID_26_)" enable-background="new    " d="M92.383,63.149c0,0,1.578-1.819-2.012-1.308
			c-3.951,0.563-9.45,0.705-16.285,4.729c-5.389,3.173,0.704,9.256,3.551,7.724c2.844-1.532-6.797-4.032,2.377-8.202
			C87.231,62.812,92.383,66.431,92.383,63.149z"/>
		
			<radialGradient id="SVGID_27_" cx="87.5068" cy="441.6611" r="17.4727" gradientTransform="matrix(0.9554 0 0 0.6715 16.7151 -227.3195)" gradientUnits="userSpaceOnUse">
			<stop  offset="0" style="stop-color:#130C0E;stop-opacity:0"/>
			<stop  offset="0.9385" style="stop-color:#130C0E;stop-opacity:0.6112"/>
			<stop  offset="1" style="stop-color:#130C0E;stop-opacity:0.6512"/>
		</radialGradient>
		<ellipse opacity="0.44" fill="url(#SVGID_27_)" enable-background="new    " cx="100.319" cy="69.256" rx="22.683" ry="4.601"/>
		
			<linearGradient id="SVGID_28_" gradientUnits="userSpaceOnUse" x1="63.9995" y1="427.627" x2="111.0137" y2="427.627" gradientTransform="matrix(0.9554 0 0 0.6715 16.7151 -227.3195)">
			<stop  offset="0" style="stop-color:#7C5320"/>
			<stop  offset="0.5153" style="stop-color:#FAC28D"/>
			<stop  offset="1" style="stop-color:#7C5320"/>
		</linearGradient>
		<path fill="url(#SVGID_28_)" d="M119.885,69.528c0,2.191-8.759,3.969-19.566,3.969c-10.807,0-19.565-1.777-19.565-3.969
			c0-1.266-2.893-23.124-2.893-23.124c3.329-0.531,40.353,0,44.917,0C122.777,46.405,119.885,67.337,119.885,69.528z"/>
		
			<linearGradient id="SVGID_29_" gradientUnits="userSpaceOnUse" x1="200.3184" y1="664.2168" x2="200.3184" y2="639.532" gradientTransform="matrix(1 0 0 1 -100 -591)">
			<stop  offset="0" style="stop-color:#7C5320"/>
			<stop  offset="1" style="stop-color:#7C5320;stop-opacity:0"/>
		</linearGradient>
		<path fill="url(#SVGID_29_)" d="M119.885,69.528c0,2.191-8.759,3.969-19.566,3.969c-10.807,0-19.565-1.777-19.565-3.969
			c0-1.266-2.893-23.124-2.893-23.124c3.329-0.531,40.353,0,44.917,0C122.777,46.405,119.885,67.337,119.885,69.528z"/>
		
			<linearGradient id="SVGID_30_" gradientUnits="userSpaceOnUse" x1="200.124" y1="635.4355" x2="202.19" y2="656.3018" gradientTransform="matrix(1 0 0 1 -100 -591)">
			<stop  offset="0" style="stop-color:#FAC28D"/>
			<stop  offset="1" style="stop-color:#7C5320"/>
		</linearGradient>
		<ellipse fill="url(#SVGID_30_)" cx="100.319" cy="46.405" rx="22.458" ry="4.555"/>
		
			<linearGradient id="SVGID_31_" gradientUnits="userSpaceOnUse" x1="200.124" y1="635.4355" x2="202.19" y2="656.3018" gradientTransform="matrix(1 0 0 1 -100 -591)">
			<stop  offset="0" style="stop-color:#FAC28D"/>
			<stop  offset="1" style="stop-color:#7C5320"/>
		</linearGradient>
		<ellipse fill="url(#SVGID_31_)" cx="100.319" cy="46.405" rx="22.458" ry="4.555"/>
		
			<linearGradient id="SVGID_32_" gradientUnits="userSpaceOnUse" x1="199.8965" y1="639.2656" x2="205.6447" y2="614.3569" gradientTransform="matrix(1 0 0 1 -100 -591)">
			<stop  offset="0" style="stop-color:#FAC28D"/>
			<stop  offset="1" style="stop-color:#7C5320"/>
		</linearGradient>
		<path fill="url(#SVGID_32_)" d="M100.318,49.403c-10.459,0-19.326-1.31-22.441-3.124c-0.006,0.042-0.017,0.083-0.017,0.125
			c0,2.516,10.056,4.555,22.458,4.555c12.405,0,22.459-2.04,22.459-4.555c0-0.042-0.012-0.083-0.019-0.125
			C119.646,48.094,110.779,49.403,100.318,49.403z"/>
		<g>
			<g>
				
					<radialGradient id="SVGID_33_" cx="188.3467" cy="737.0986" r="3.7607" gradientTransform="matrix(1 0 0 1 -100 -591)" gradientUnits="userSpaceOnUse">
					<stop  offset="0.3681" style="stop-color:#13FF0E;stop-opacity:0"/>
					<stop  offset="0.4596" style="stop-color:#22FF0E;stop-opacity:0.1376"/>
					<stop  offset="0.6362" style="stop-color:#4AFF0E;stop-opacity:0.403"/>
					<stop  offset="0.8776" style="stop-color:#89FF0E;stop-opacity:0.766"/>
					<stop  offset="1" style="stop-color:#ACFF0E;stop-opacity:0.95"/>
				</radialGradient>
				<circle fill="url(#SVGID_33_)" cx="88.347" cy="145.62" r="4.382"/>
			</g>
			<g>
				
					<radialGradient id="SVGID_34_" cx="213.4932" cy="746.7812" r="2.3024" gradientTransform="matrix(1 0 0 1 -100 -591)" gradientUnits="userSpaceOnUse">
					<stop  offset="0.3681" style="stop-color:#13FF0E;stop-opacity:0"/>
					<stop  offset="0.4596" style="stop-color:#22FF0E;stop-opacity:0.1376"/>
					<stop  offset="0.6362" style="stop-color:#4AFF0E;stop-opacity:0.403"/>
					<stop  offset="0.8776" style="stop-color:#89FF0E;stop-opacity:0.766"/>
					<stop  offset="1" style="stop-color:#ACFF0E;stop-opacity:0.95"/>
				</radialGradient>
				<circle fill="url(#SVGID_34_)" cx="113.493" cy="155.488" r="2.683"/>
			</g>
			<g>
				
					<radialGradient id="SVGID_35_" cx="216.1758" cy="727.7422" r="2.3033" gradientTransform="matrix(1 0 0 1 -100 -591)" gradientUnits="userSpaceOnUse">
					<stop  offset="0.3681" style="stop-color:#13FF0E;stop-opacity:0"/>
					<stop  offset="0.4596" style="stop-color:#22FF0E;stop-opacity:0.1376"/>
					<stop  offset="0.6362" style="stop-color:#4AFF0E;stop-opacity:0.403"/>
					<stop  offset="0.8776" style="stop-color:#89FF0E;stop-opacity:0.766"/>
					<stop  offset="1" style="stop-color:#ACFF0E;stop-opacity:0.95"/>
				</radialGradient>
				<circle fill="url(#SVGID_35_)" cx="116.176" cy="136.449" r="2.683"/>
			</g>
			<g>
				
					<radialGradient id="SVGID_36_" cx="203.124" cy="723.6797" r="1.4759" gradientTransform="matrix(1 0 0 1 -100 -591)" gradientUnits="userSpaceOnUse">
					<stop  offset="0.3681" style="stop-color:#13FF0E;stop-opacity:0"/>
					<stop  offset="0.4596" style="stop-color:#22FF0E;stop-opacity:0.1376"/>
					<stop  offset="0.6362" style="stop-color:#4AFF0E;stop-opacity:0.403"/>
					<stop  offset="0.8776" style="stop-color:#89FF0E;stop-opacity:0.766"/>
					<stop  offset="1" style="stop-color:#ACFF0E;stop-opacity:0.95"/>
				</radialGradient>
				<circle fill="url(#SVGID_36_)" cx="103.124" cy="132.491" r="1.72"/>
			</g>
			<g>
				
					<radialGradient id="SVGID_37_" cx="180.4062" cy="751.5439" r="1.4765" gradientTransform="matrix(1 0 0 1 -100 -591)" gradientUnits="userSpaceOnUse">
					<stop  offset="0.3681" style="stop-color:#13FF0E;stop-opacity:0"/>
					<stop  offset="0.4596" style="stop-color:#22FF0E;stop-opacity:0.1376"/>
					<stop  offset="0.6362" style="stop-color:#4AFF0E;stop-opacity:0.403"/>
					<stop  offset="0.8776" style="stop-color:#89FF0E;stop-opacity:0.766"/>
					<stop  offset="1" style="stop-color:#ACFF0E;stop-opacity:0.95"/>
				</radialGradient>
				<circle fill="url(#SVGID_37_)" cx="80.406" cy="160.354" r="1.721"/>
			</g>
			<g>
				
					<radialGradient id="SVGID_38_" cx="234.0439" cy="721.6523" r="1.4989" gradientTransform="matrix(1 0 0 1 -100 -591)" gradientUnits="userSpaceOnUse">
					<stop  offset="0.3681" style="stop-color:#13FF0E;stop-opacity:0"/>
					<stop  offset="0.4596" style="stop-color:#22FF0E;stop-opacity:0.1376"/>
					<stop  offset="0.6362" style="stop-color:#4AFF0E;stop-opacity:0.403"/>
					<stop  offset="0.8776" style="stop-color:#89FF0E;stop-opacity:0.766"/>
					<stop  offset="1" style="stop-color:#ACFF0E;stop-opacity:0.95"/>
				</radialGradient>
				<circle fill="url(#SVGID_38_)" cx="134.044" cy="130.462" r="1.746"/>
			</g>
			<g>
				
					<radialGradient id="SVGID_39_" cx="190.8037" cy="727.6104" r="1.2607" gradientTransform="matrix(1 0 0 1 -100 -591)" gradientUnits="userSpaceOnUse">
					<stop  offset="0.3681" style="stop-color:#13FF0E;stop-opacity:0"/>
					<stop  offset="0.4596" style="stop-color:#22FF0E;stop-opacity:0.1376"/>
					<stop  offset="0.6362" style="stop-color:#4AFF0E;stop-opacity:0.403"/>
					<stop  offset="0.8776" style="stop-color:#89FF0E;stop-opacity:0.766"/>
					<stop  offset="1" style="stop-color:#ACFF0E;stop-opacity:0.95"/>
				</radialGradient>
				<circle fill="url(#SVGID_39_)" cx="90.804" cy="136.449" r="1.47"/>
			</g>
			<g>
				
					<radialGradient id="SVGID_40_" cx="180.4062" cy="712.5557" r="1.2611" gradientTransform="matrix(1 0 0 1 -100 -591)" gradientUnits="userSpaceOnUse">
					<stop  offset="0.3681" style="stop-color:#13FF0E;stop-opacity:0"/>
					<stop  offset="0.4596" style="stop-color:#22FF0E;stop-opacity:0.1376"/>
					<stop  offset="0.6362" style="stop-color:#4AFF0E;stop-opacity:0.403"/>
					<stop  offset="0.8776" style="stop-color:#89FF0E;stop-opacity:0.766"/>
					<stop  offset="1" style="stop-color:#ACFF0E;stop-opacity:0.95"/>
				</radialGradient>
				<circle fill="url(#SVGID_40_)" cx="80.406" cy="121.394" r="1.47"/>
			</g>
			<g>
				
					<radialGradient id="SVGID_41_" cx="196.9033" cy="714.9863" r="1.2613" gradientTransform="matrix(1 0 0 1 -100 -591)" gradientUnits="userSpaceOnUse">
					<stop  offset="0.3681" style="stop-color:#13FF0E;stop-opacity:0"/>
					<stop  offset="0.4596" style="stop-color:#22FF0E;stop-opacity:0.1376"/>
					<stop  offset="0.6362" style="stop-color:#4AFF0E;stop-opacity:0.403"/>
					<stop  offset="0.8776" style="stop-color:#89FF0E;stop-opacity:0.766"/>
					<stop  offset="1" style="stop-color:#ACFF0E;stop-opacity:0.95"/>
				</radialGradient>
				<circle fill="url(#SVGID_41_)" cx="96.903" cy="123.825" r="1.47"/>
			</g>
			<g>
				
					<radialGradient id="SVGID_42_" cx="182.332" cy="730.4766" r="2.7007" gradientTransform="matrix(1 0 0 1 -100 -591)" gradientUnits="userSpaceOnUse">
					<stop  offset="0.3681" style="stop-color:#13FF0E;stop-opacity:0"/>
					<stop  offset="0.4596" style="stop-color:#22FF0E;stop-opacity:0.1376"/>
					<stop  offset="0.6362" style="stop-color:#4AFF0E;stop-opacity:0.403"/>
					<stop  offset="0.8776" style="stop-color:#89FF0E;stop-opacity:0.766"/>
					<stop  offset="1" style="stop-color:#ACFF0E;stop-opacity:0.95"/>
				</radialGradient>
				<circle fill="url(#SVGID_42_)" cx="82.332" cy="139.132" r="3.146"/>
			</g>
			<g>
				
					<radialGradient id="SVGID_43_" cx="185.4785" cy="712.3672" r="2.7009" gradientTransform="matrix(1 0 0 1 -100 -591)" gradientUnits="userSpaceOnUse">
					<stop  offset="0.3681" style="stop-color:#13FF0E;stop-opacity:0"/>
					<stop  offset="0.4596" style="stop-color:#22FF0E;stop-opacity:0.1376"/>
					<stop  offset="0.6362" style="stop-color:#4AFF0E;stop-opacity:0.403"/>
					<stop  offset="0.8776" style="stop-color:#89FF0E;stop-opacity:0.766"/>
					<stop  offset="1" style="stop-color:#ACFF0E;stop-opacity:0.95"/>
				</radialGradient>
				<circle fill="url(#SVGID_43_)" cx="85.479" cy="121.022" r="3.146"/>
			</g>
			<g>
				
					<radialGradient id="SVGID_44_" cx="177.2227" cy="711.3408" r="1.8216" gradientTransform="matrix(1 0 0 1 -100 -591)" gradientUnits="userSpaceOnUse">
					<stop  offset="0.3681" style="stop-color:#13FF0E;stop-opacity:0"/>
					<stop  offset="0.4596" style="stop-color:#22FF0E;stop-opacity:0.1376"/>
					<stop  offset="0.6362" style="stop-color:#4AFF0E;stop-opacity:0.403"/>
					<stop  offset="0.8776" style="stop-color:#89FF0E;stop-opacity:0.766"/>
					<stop  offset="1" style="stop-color:#ACFF0E;stop-opacity:0.95"/>
				</radialGradient>
				<circle fill="url(#SVGID_44_)" cx="77.223" cy="120.107" r="2.123"/>
			</g>
			<g>
				
					<radialGradient id="SVGID_45_" cx="174.7559" cy="731.8086" r="3.3727" gradientTransform="matrix(1 0 0 1 -100 -591)" gradientUnits="userSpaceOnUse">
					<stop  offset="0.3681" style="stop-color:#13FF0E;stop-opacity:0"/>
					<stop  offset="0.4596" style="stop-color:#22FF0E;stop-opacity:0.1376"/>
					<stop  offset="0.6362" style="stop-color:#4AFF0E;stop-opacity:0.403"/>
					<stop  offset="0.8776" style="stop-color:#89FF0E;stop-opacity:0.766"/>
					<stop  offset="1" style="stop-color:#ACFF0E;stop-opacity:0.95"/>
				</radialGradient>
				<circle fill="url(#SVGID_45_)" cx="74.756" cy="140.378" r="3.929"/>
			</g>
		</g>
		
			<linearGradient id="SVGID_46_" gradientUnits="userSpaceOnUse" x1="178.8164" y1="672.0801" x2="224.4941" y2="672.0801" gradientTransform="matrix(1 0 0 1 -100 -591)">
			<stop  offset="0" style="stop-color:#81693C"/>
			<stop  offset="0.4847" style="stop-color:#DFAA76"/>
			<stop  offset="1" style="stop-color:#81693C"/>
		</linearGradient>
		<path fill="url(#SVGID_46_)" d="M81.876,73.229c0,0-3.776-0.913-2.939,1.993c0.412,1.431,3.395,2.851,5.028,3.864
			c1.434,0.888-1.269,2.215-1.634,3.353c-0.332,1.036-3.745,0.131-1.163,2.755c3.002,3.049,11.305,3.884,17.986,3.951
			c12.265,0.123,20.858-1.971,22.683-4.91c1.196-1.928,0.521-2.458-0.019-2.754c-2.17-1.192-3.678-2.695,0.465-4.789
			c2.648-1.34,3.232-4.201,0-3.598c-3.233,0.604-21.947,5.355-39.952,0.765"/>
		
			<linearGradient id="SVGID_47_" gradientUnits="userSpaceOnUse" x1="174.3721" y1="754.4453" x2="210.6741" y2="635.7294" gradientTransform="matrix(1 0 0 1 -100 -591)">
			<stop  offset="0" style="stop-color:#FFFFFF"/>
			<stop  offset="0.0896" style="stop-color:#FFFFFF;stop-opacity:0.9104"/>
			<stop  offset="1" style="stop-color:#FFFFFF;stop-opacity:0"/>
		</linearGradient>
		<path fill="url(#SVGID_47_)" d="M80.694,62.405c0,0-8.038,1.641-5.41,7.547c2.624,5.907,6.057,8.643,19.85,9.846
			c20.675,1.806,24.445-1.121,32.418-3.94c4.988-1.765,5.697-7.361-0.538-10.314c-6.234-2.953-11.437-3.068-7.365-2.025
			c4.582,1.173,11.965,3.932,4.807,8.861c-7.033,4.842-17.986,4.766-30.305,3.48c-15.752-1.641-15.912-4.921-14.598-8.205
			c1.312-3.282,0.486-4.595,3.109-4.595C85.285,63.06,83.319,62.732,80.694,62.405z"/>
		
			<linearGradient id="SVGID_48_" gradientUnits="userSpaceOnUse" x1="163.7002" y1="705.7617" x2="184.109" y2="716.1666" gradientTransform="matrix(1 0 0 1 -100 -591)">
			<stop  offset="0" style="stop-color:#FFFFFF"/>
			<stop  offset="0.0896" style="stop-color:#FFFFFF;stop-opacity:0.9104"/>
			<stop  offset="1" style="stop-color:#FFFFFF;stop-opacity:0"/>
		</linearGradient>
		<path opacity="0.3" fill="url(#SVGID_48_)" enable-background="new    " d="M80.862,74.218c0,0-5.578-1.968-3.938,3.284
			c1.641,5.25,0.488,13.782-10.016,26.581c-10.501,12.8-27.238,35.115-20.676,50.211c6.562,15.097,47.259,27.238,49.553,0.656
			c2.302-26.583,2.631-55.462,0.991-65.308c-1.643-9.845,0.153-13.42-5.507-13.598C85.315,75.857,84.145,75.53,80.862,74.218z"/>
		
			<linearGradient id="SVGID_49_" gradientUnits="userSpaceOnUse" x1="-72.2842" y1="816.0713" x2="-64.6276" y2="794.1357" gradientTransform="matrix(0.9465 -0.3227 0.3227 0.9465 -82.2348 -711.9991)">
			<stop  offset="0" style="stop-color:#FFFFFF"/>
			<stop  offset="0.0896" style="stop-color:#FFFFFF;stop-opacity:0.9104"/>
			<stop  offset="1" style="stop-color:#FFFFFF;stop-opacity:0"/>
		</linearGradient>
		<path opacity="0.44" fill="url(#SVGID_49_)" enable-background="new    " d="M101.475,77.258c0,0-3.666,0.854,0.977,2.235
			c2.689,0.797,9.467,1.31,16.943-0.043c1.646-0.298,2.621-5.084,6.002-4.912C123.043,74.414,109.193,77.456,101.475,77.258z"/>
		
			<radialGradient id="SVGID_50_" cx="210.5576" cy="783.0352" r="138.486" gradientTransform="matrix(1 0 0 1 -100 -591)" gradientUnits="userSpaceOnUse">
			<stop  offset="0" style="stop-color:#130C0E;stop-opacity:0"/>
			<stop  offset="0.9385" style="stop-color:#130C0E;stop-opacity:0.6112"/>
			<stop  offset="1" style="stop-color:#130C0E;stop-opacity:0.6512"/>
		</radialGradient>
		<path opacity="0.44" fill="url(#SVGID_50_)" enable-background="new    " d="M122.37,83.736c0,0-2.952,4.923-0.325,11.485
			c2.623,6.564,28.879,43.647,30.189,54.806c1.312,11.156-0.655,19.361-16.409,20.675c-15.751,1.313-20.675-14.111-23.3-42.009
			c-2.625-27.894-7.219-40.034-2.953-43.316C113.84,82.095,120.73,83.079,122.37,83.736z"/>
		
			<radialGradient id="SVGID_51_" cx="241.627" cy="842.7041" r="168.0606" gradientTransform="matrix(1.0315 0.0359 -0.0276 0.9685 -145.7409 -643.5374)" gradientUnits="userSpaceOnUse">
			<stop  offset="0" style="stop-color:#130C0E;stop-opacity:0"/>
			<stop  offset="0.9385" style="stop-color:#130C0E;stop-opacity:0.6112"/>
			<stop  offset="1" style="stop-color:#130C0E;stop-opacity:0.6512"/>
		</radialGradient>
		<path fill="url(#SVGID_51_)" d="M61.873,159.87c0,0,0.743-10.154,8.374-24.313c7.632-14.156,14.304-26.228,16.408-36.76
			c2.112-10.531,2.245-15.195-1.81-15.759c-4.047-0.564-3.182,0.738-4.706,6.623c-1.523,5.889-16.288,32.521-21.114,43.385
			C54.196,143.907,43.064,154.126,61.873,159.87z"/>
	</g>
</g>
<g id="outline_x5F_white">
	<path fill="#FFFFFF" d="M155.262,107.205c-7.637-6.466-13.195-11.479-15.197-17.147l-0.354-1.005
		c-0.396-1.115-0.938-2.644-1.353-3.996c3.636-2.723,5.942-6.873,6.275-11.585c0.5-7.059-3.521-13.807-10.494-17.613
		c-0.165-0.09-0.333-0.166-0.498-0.253c0.293-2.195,0.61-4.547,0.947-6.997c0.127-0.73,0.189-1.468,0.189-2.204
		c0-2.55-0.836-8.881-8.574-12.593c-2.053-0.983-4.543-1.765-7.616-2.389c-5.005-1.015-11.491-1.574-18.269-1.574
		c-6.775,0-13.262,0.559-18.266,1.574c-3.074,0.624-5.565,1.405-7.616,2.389c-7.74,3.712-8.576,10.043-8.576,12.593
		c0,0.718,0.061,1.436,0.179,2.144c0.338,2.561,0.658,5.004,0.953,7.278c-8.111,4.957-10.061,12.624-8.852,18.933
		c0.875,4.575,3.493,7.529,5.584,9.326c-2.159,7.151-6.444,11.705-12.169,17.788c-3.992,4.242-8.501,9.033-12.53,15.224
		c-7.533,9.602-11.51,20.717-11.51,32.192c0,16.821,8.75,30.769,24.639,39.272c12.475,6.676,29.711,10.205,49.846,10.205
		c20.134,0,37.37-3.529,49.846-10.205c15.891-8.504,24.644-22.451,24.644-39.272C176.489,133.745,168.951,118.799,155.262,107.205z
		 M102.002,186.77c-34.51,0-62.484-10.937-62.484-37.479c0-9.245,3.399-17.872,9.277-25.197
		c9.547-14.965,23.143-21.126,27.254-39.742c1.856-8.408-5.319-7.659-6.121-11.847c-0.659-3.442,1.464-6.351,7.296-8.179
		c0.821-0.327,1.761-0.653,2.828-0.968c-0.001-0.014-0.003-0.028-0.005-0.042c0,0,0,0,0,0c-0.778-6.239-1.947-15.105-2.153-16.67
		c-0.021-0.08-0.032-0.161-0.032-0.242c-0.002-2.516,10.054-4.556,22.456-4.556c12.405,0,22.459,2.041,22.459,4.556
		c0,0.083-0.014,0.166-0.034,0.248c-0.083,0.602-0.312,2.27-0.605,4.443l0,0c-0.467,3.453-1.097,8.189-1.573,12.025
		c0.552,0.165,1.08,0.345,1.608,0.527c0.823,0.294,1.653,0.612,2.514,0.952c1.281,0.542,2.507,1.139,3.704,1.792
		c5.399,2.947,5.389,8.263,1.676,9.653c-7.133,2.671-3.812,10.927-1.315,18.008c3.095,8.762,10.397,15.231,18.757,22.309
		c10.371,8.785,16.98,20.185,16.98,32.93C164.488,175.833,136.51,186.77,102.002,186.77z"/>
</g>
<g id="outline_x5F_black">
	<path d="M151.385,111.777c-8.361-7.077-14.474-12.636-16.978-19.728l-0.354-0.997c-0.889-2.503-2.716-7.653-2.252-9.226
		c0.066-0.039,0.184-0.099,0.369-0.169c3.719-1.392,6.199-4.694,6.479-8.616c0.33-4.688-2.498-9.256-7.385-11.922
		c-1.556-0.849-3.133-1.598-4.754-2.259c0.438-3.374,0.966-7.329,1.547-11.541c0.084-0.458,0.127-0.919,0.127-1.381
		c0-7.369-7.695-7.83-10.651-8.43c-4.667-0.948-10.78-1.468-17.214-1.468c-6.432,0-12.545,0.521-17.213,1.468
		c-2.956,0.6-10.735,1.289-10.735,8.658c0,0.447,0.041,0.895,0.119,1.338c0.518,3.92,1.05,8.001,1.509,11.584
		c-11.013,4.102-10.431,12.105-9.964,14.541c0.751,3.924,3.531,5.932,5.192,7.131c0.368,0.266,0.903,0.652,1.12,0.87
		c0.016,0.169,0.023,0.605-0.157,1.423c-2.243,10.156-7.813,16.075-14.263,22.929c-4.056,4.31-8.247,8.764-12.016,14.605
		c-6.801,8.581-10.394,18.497-10.394,28.696c0,14.714,7.424,26.465,21.47,33.981c11.607,6.211,27.865,9.494,47.015,9.494
		c19.148,0,35.407-3.283,47.016-9.494c14.047-7.519,21.473-19.27,21.473-33.981C170.488,135.534,163.705,122.215,151.385,111.777z
		 M102.002,186.77c-34.51,0-62.484-10.937-62.484-37.479c0-9.245,3.399-17.872,9.277-25.197
		c9.547-14.965,23.143-21.126,27.254-39.742c1.856-8.408-5.319-7.659-6.121-11.847c-0.659-3.442,1.464-6.351,7.296-8.179
		c0.821-0.327,1.761-0.653,2.828-0.968c-0.232-1.859-0.498-3.95-0.764-6.018c0,0-0.001,0-0.001,0
		c-0.627-4.874-1.25-9.593-1.395-10.695c-0.021-0.08-0.032-0.16-0.032-0.242c0-2.516,10.056-4.556,22.458-4.556
		c12.405,0,22.459,2.041,22.459,4.556c0,0.083-0.014,0.166-0.034,0.247c-0.15,1.092-0.777,5.663-1.405,10.451
		c-0.001,0-0.001,0-0.001,0c-0.27,2.053-0.539,4.144-0.772,6.019c2.879,0.857,5.408,1.952,7.826,3.271
		c5.399,2.947,5.389,8.263,1.676,9.653c-7.133,2.671-3.812,10.927-1.315,18.008c3.095,8.762,10.397,15.231,18.757,22.309
		c10.371,8.785,16.98,20.185,16.98,32.93C164.488,175.833,136.51,186.77,102.002,186.77z"/>
</g>
</svg>
