<?xml version="1.0" encoding="utf-8"?>
<!-- Generator: Adobe Illustrator 15.0.0, SVG Export Plug-In . SVG Version: 6.00 Build 0)  -->
<!DOCTYPE svg PUBLIC "-//W3C//DTD SVG 1.1//EN" "http://www.w3.org/Graphics/SVG/1.1/DTD/svg11.dtd">
<svg version="1.1" xmlns="http://www.w3.org/2000/svg" xmlns:xlink="http://www.w3.org/1999/xlink" x="0px" y="0px" width="200px"
	 height="200px" viewBox="0 0 200 200" enable-background="new 0 0 200 200" xml:space="preserve">
<g id="icon">
	<g id="Layer_2">
	</g>
	<g id="Layer_1_1_">
		<g>
			
				<linearGradient id="SVGID_1_" gradientUnits="userSpaceOnUse" x1="-140.0259" y1="1232.1797" x2="-113.4042" y2="1224.0303" gradientTransform="matrix(0.9826 -0.1858 0.1858 0.9826 52.956 -1147.6605)">
				<stop  offset="0" style="stop-color:#383838"/>
				<stop  offset="0.4601" style="stop-color:#9B9B9B"/>
				<stop  offset="1" style="stop-color:#403F3E"/>
			</linearGradient>
			<path fill="url(#SVGID_1_)" d="M157.898,28.733L38.109,89.329c1.662,3.435-2.515,4.964-3.335,7.591
				c1.104,2.722,1.558,5.23,1.807,7.676c0.083,0.816-2.998,2.234-2.942,3.041c0.261,3.812,3.527,6.969,5.287,11.258
				c5.718,2.701,15.562-3.797,19.548,2.992c0.496,17.25-2.475,38.746,9.738,56.062c0.497,0.23,43.283-16.018,43.283-16.018
				c0.017-0.094-0.41-1.201-1.134-3.021c-0.478-1.199-3.854-6.428-4.536-8.158c-0.724-1.84-1.604,2.355-2.279-0.061
				c-2.468-8.822-4.609-20.504-6.383-27.895h-0.001c0,0-0.044-0.176-0.11-0.443c-0.112-0.463-0.225-0.928-0.335-1.352
				c-0.005-0.02,0.002-0.037-0.001-0.059c-0.912-3.84-2.896-12.641-2.744-15.834c0-0.006,0.004-0.014,0.005-0.021
				c-0.422-3.086-0.133-6.446,2.187-9.276c0,0,2.829-2.286,6.521-4.122c1.529-0.736,21.676-11.555,33.695-16.881
				c7.861-4.138,19.428-10.148,27.266-14.783c-5.195-6.553,4.592-8.386,4-13.485L157.898,28.733z"/>
			
				<linearGradient id="SVGID_2_" gradientUnits="userSpaceOnUse" x1="-117.8779" y1="1193.5234" x2="-111.6302" y2="1191.0787" gradientTransform="matrix(0.9826 -0.1858 0.1858 0.9826 52.956 -1147.6605)">
				<stop  offset="0" style="stop-color:#4F4A4E"/>
				<stop  offset="0.4601" style="stop-color:#9B9B9B"/>
				<stop  offset="1" style="stop-color:#4F494D"/>
			</linearGradient>
			<path fill="url(#SVGID_2_)" d="M149.355,36.953l8.537,13.639l5.752,9.438c-5.194-6.553,4.594-8.386,4.002-13.485l-6.422-11.735
				L149.355,36.953z"/>
			
				<linearGradient id="SVGID_3_" gradientUnits="userSpaceOnUse" x1="-158.5249" y1="1236.999" x2="-254.6892" y2="1198.9681" gradientTransform="matrix(0.9826 -0.1858 0.1858 0.9826 52.956 -1147.6605)">
				<stop  offset="0" style="stop-color:#9B999B"/>
				<stop  offset="0.4601" style="stop-color:#F2F2F2"/>
				<stop  offset="1" style="stop-color:#A4A0A2"/>
			</linearGradient>
			<path fill="url(#SVGID_3_)" d="M152.734,18.986L32.946,79.582c-0.087,3.18-2.515,4.963-3.335,7.59
				c3.214,7.923,0.905,14.053,4.151,21.975c5.719,2.701,15.563-3.797,19.549,2.994c0.495,17.248-2.475,38.744,9.738,56.062
				c0.496,0.229,43.281-16.018,43.281-16.018c0.018-0.092-0.409-1.203-1.132-3.021c-0.476-1.197-4.036-0.029-4.718-1.762
				c-3.592-9.139-6.604-27.17-8.928-36.146c-1.016-3.778,26.564-11.098,34.281-19.25c2.196-4.992-0.533-14.467-3.206-22.146
				c0.16-0.692,23.016-11.988,35.854-19.576c-5.194-6.554,4.595-8.387,4.002-13.486L152.734,18.986z M90.903,104.418
				c-1.244-6.441-4.79-13.322,0.917-16.477l-0.001-0.011c0,0,2.626-2.772,6.318-4.606c7.121-3.422,14.665-8.098,19.927-6.523
				C129.441,93.313,104.598,98.697,90.903,104.418z"/>
			
				<linearGradient id="SVGID_4_" gradientUnits="userSpaceOnUse" x1="-189.5054" y1="1185.3477" x2="-185.5053" y2="1199.0978" gradientTransform="matrix(0.9826 -0.1858 0.1858 0.9826 52.956 -1147.6605)">
				<stop  offset="0.4663" style="stop-color:#FFFFFF"/>
				<stop  offset="1" style="stop-color:#A8CEC9;stop-opacity:0"/>
			</linearGradient>
			<path opacity="0.48" fill="url(#SVGID_4_)" enable-background="new    " d="M152.734,18.986L32.946,79.582
				c-0.087,3.18-2.515,4.963-3.335,7.59c3.214,7.923,0.905,14.053,4.151,21.975c5.719,2.701,15.563-3.797,19.549,2.994
				c0.495,17.248-2.475,38.744,9.738,56.062c0.496,0.229,43.281-16.018,43.281-16.018c0.018-0.092-0.409-1.203-1.132-3.021
				c-0.476-1.197-4.036-0.029-4.718-1.762c-3.592-9.139-6.604-27.17-8.928-36.146c-1.016-3.778,26.564-11.098,34.281-19.25
				c2.196-4.992-0.533-14.467-3.206-22.146c0.16-0.692,23.016-11.988,35.854-19.576c-5.194-6.554,4.595-8.387,4.002-13.486
				L152.734,18.986z M90.903,104.418c-1.244-6.441-4.79-13.322,0.917-16.477l-0.001-0.011c0,0,2.626-2.772,6.318-4.606
				c7.121-3.422,14.665-8.098,19.927-6.523C129.441,93.313,104.598,98.697,90.903,104.418z"/>
			
				<linearGradient id="SVGID_5_" gradientUnits="userSpaceOnUse" x1="-145.9346" y1="1194.5186" x2="-114.5649" y2="1194.5186" gradientTransform="matrix(0.9826 -0.1858 0.1858 0.9826 52.956 -1147.6605)">
				<stop  offset="0" style="stop-color:#383838"/>
				<stop  offset="0.4601" style="stop-color:#9B9B9B"/>
			</linearGradient>
			<path fill="url(#SVGID_5_)" d="M160.37,37.127c0,0-26.052,12.539-26.479,14.97c-0.432,2.43-0.453,11.326-0.453,11.326
				l25.045-13.14c0,0-3.99-2.003-1.104-5.909C160.238,40.467,161.145,40.275,160.37,37.127z"/>
			
				<linearGradient id="SVGID_6_" gradientUnits="userSpaceOnUse" x1="-193.5684" y1="1164.2861" x2="-192.2089" y2="1168.6365" gradientTransform="matrix(0.9826 -0.1858 0.1858 0.9826 52.956 -1147.6605)">
				<stop  offset="0" style="stop-color:#6A6669"/>
				<stop  offset="0.4601" style="stop-color:#9B9B9B"/>
				<stop  offset="1" style="stop-color:#696467"/>
			</linearGradient>
			<polygon fill="url(#SVGID_6_)" points="32.254,95.406 159.715,32.532 160.496,33.786 32.298,95.85 			"/>
			
				<linearGradient id="SVGID_7_" gradientUnits="userSpaceOnUse" x1="-192.7046" y1="1144.584" x2="-172.3384" y2="1251.0314" gradientTransform="matrix(0.9826 -0.1858 0.1858 0.9826 52.956 -1147.6605)">
				<stop  offset="0" style="stop-color:#6A6669"/>
				<stop  offset="0.4601" style="stop-color:#9B9B9B"/>
				<stop  offset="1" style="stop-color:#696467"/>
			</linearGradient>
			<polygon fill="url(#SVGID_7_)" points="33.081,96.493 160.542,33.62 161.323,34.874 33.125,96.937 			"/>
			
				<linearGradient id="SVGID_8_" gradientUnits="userSpaceOnUse" x1="-182.3071" y1="1195.7344" x2="-185.4349" y2="1184.7325" gradientTransform="matrix(0.9826 -0.1858 0.1858 0.9826 52.956 -1147.6605)">
				<stop  offset="0.4601" style="stop-color:#BABBBA"/>
				<stop  offset="0.7362" style="stop-color:#E9E9E9"/>
				<stop  offset="0.7712" style="stop-color:#E4E4E4"/>
				<stop  offset="0.8121" style="stop-color:#D6D6D6"/>
				<stop  offset="0.856" style="stop-color:#BFBFBE"/>
				<stop  offset="0.902" style="stop-color:#9E9E9D"/>
				<stop  offset="0.9497" style="stop-color:#757473"/>
				<stop  offset="0.9981" style="stop-color:#424140"/>
				<stop  offset="1" style="stop-color:#403F3E"/>
			</linearGradient>
			<path fill="url(#SVGID_8_)" d="M78.978,55.996c0,0-0.569,1.051,0.085,4.383c0.749,3.82,1.874,9.108,4.424,7.685
				c3.907-2.186,23.299-10.369,24.019-12.841c0.42-1.445-0.615-5.286-1.611-8.207c-1.078-3.163-1.092-4.102-1.092-4.102
				L78.978,55.996z"/>
			
				<linearGradient id="SVGID_9_" gradientUnits="userSpaceOnUse" x1="-189.0381" y1="1173.0215" x2="-175.6152" y2="1228.0117" gradientTransform="matrix(0.9826 -0.1858 0.1858 0.9826 52.956 -1147.6605)">
				<stop  offset="0" style="stop-color:#878787"/>
				<stop  offset="1" style="stop-color:#000000"/>
			</linearGradient>
			<path fill="url(#SVGID_9_)" d="M107.378,54.521c-0.721,2.471-20.086,10.657-23.986,12.844c-2.399,1.342-3.676-3.253-4.307-7.008
				c0.547,3.872,1.832,9.685,4.494,8.196c3.907-2.187,23.3-10.369,24.021-12.841c0.201-0.685,0.058-1.915-0.246-3.325
				C107.486,53.282,107.518,54.038,107.378,54.521z"/>
			<path opacity="0.18" fill="#2F292B" enable-background="new    " d="M40.241,77.261l0.507,13.043l-8.495,5.103
				c0,0-1.01-2.959-1.442-4.904c-0.432-1.946-1.908-2.549,0.182-5.233c2.076-2.685,1.952-5.687,1.952-5.687l7.425-3.256
				L40.241,77.261z"/>
			
				<linearGradient id="SVGID_10_" gradientUnits="userSpaceOnUse" x1="-239.4985" y1="1202.4355" x2="-237.3345" y2="1208.9279" gradientTransform="matrix(0.9826 -0.1858 0.1858 0.9826 52.956 -1147.6605)">
				<stop  offset="0" style="stop-color:#383838"/>
				<stop  offset="0.4601" style="stop-color:#9B9B9B"/>
				<stop  offset="1" style="stop-color:#403F3E"/>
			</linearGradient>
			<path fill="url(#SVGID_10_)" d="M45.34,78.709c0,0-7.571,3.819-7.379,5.59c0.192,1.773-0.584,5.553,2.152,4.547
				c2.735-1.008,8.24-4.621,8.24-4.621s2.585-2.117,1.853-4.242C49.474,77.857,47.354,77.839,45.34,78.709z"/>
			
				<linearGradient id="SVGID_11_" gradientUnits="userSpaceOnUse" x1="-244.8843" y1="1149.9482" x2="-238.4373" y2="1202.1189" gradientTransform="matrix(0.9826 -0.1858 0.1858 0.9826 52.956 -1147.6605)">
				<stop  offset="0" style="stop-color:#878787"/>
				<stop  offset="1" style="stop-color:#000000"/>
			</linearGradient>
			<path fill="url(#SVGID_11_)" d="M48.709,83.244c0,0-5.499,3.614-8.23,4.622c-2.687,0.988-1.989-2.638-2.147-4.445
				c-0.25,0.323-0.398,0.624-0.371,0.878c0.192,1.773-0.584,5.553,2.152,4.547c2.735-1.008,8.24-4.621,8.24-4.621
				s1.562-1.297,1.9-2.877C49.669,82.449,48.709,83.244,48.709,83.244z"/>
			
				<linearGradient id="SVGID_12_" gradientUnits="userSpaceOnUse" x1="-179.8262" y1="1076.1797" x2="-182.4247" y2="1303.124" gradientTransform="matrix(0.9826 -0.1858 0.1858 0.9826 52.956 -1147.6605)">
				<stop  offset="0" style="stop-color:#6A6669"/>
				<stop  offset="0.4601" style="stop-color:#9B9B9B"/>
				<stop  offset="1" style="stop-color:#696467"/>
			</linearGradient>
			<path fill="url(#SVGID_12_)" d="M110.967,96.034c0.879-3.464-8.933-3.506-10.246-10.709c-3.694,1.835-6.318,4.607-6.318,4.607
				l-0.001,0.012c0.074-0.04,0.133-0.088,0.209-0.127C101.13,89.037,104.051,97.676,110.967,96.034z"/>
			
				<linearGradient id="SVGID_13_" gradientUnits="userSpaceOnUse" x1="-218.6978" y1="1203.8018" x2="-210.0047" y2="1309.2043" gradientTransform="matrix(0.9826 -0.1858 0.1858 0.9826 52.956 -1147.6605)">
				<stop  offset="0" style="stop-color:#6A6669"/>
				<stop  offset="0.4601" style="stop-color:#9B9B9B"/>
				<stop  offset="1" style="stop-color:#403F3E"/>
			</linearGradient>
			<polygon fill="url(#SVGID_13_)" points="66.283,168.334 70.134,175.67 106.518,162.18 101.656,154.598 			"/>
			<g opacity="0.22">
				<g>
					<path fill="#A7AEA9" d="M162.482,37.108c-0.004-0.105,0.014-0.202,0.002-0.311l-9.75-17.812L32.946,79.582
						c0,0,0.087,2.395-1.37,4.818c-0.802,0.875-1.643,1.738-1.965,2.771c0.126,0.312,0.23,0.615,0.34,0.924
						c0.06,0.307,0.176,0.604,0.309,0.906c2.227,7.062,0.511,12.845,3.502,20.146c0.052,0.024,0.11,0.037,0.162,0.06
						c0.875,3.149,3.49,6.002,5.001,9.688c3.943,1.862,9.852-0.647,14.445-0.158c-0.067,15.813-0.993,34.048,9.48,49.158
						c1.343,3.459,3.088,6.83,5.36,10.056c0.497,0.229,43.283-16.019,43.283-16.019c0.017-0.093-0.41-1.201-1.134-3.021
						c-0.478-1.199-3.854-6.429-4.537-8.158c0-0.002-0.002-0.002-0.004-0.004c-0.17-0.442-0.377-0.969-0.621-1.586
						c-0.236-0.593-1.227-0.604-2.247-0.679c-2.22-8.487-4.16-18.896-5.789-25.687H97.16c0,0-0.044-0.176-0.11-0.444
						c-0.112-0.463-0.225-0.927-0.335-1.351c-0.005-0.019,0.002-0.037-0.001-0.058c-0.682-2.864-1.958-8.491-2.498-12.491
						c6.964-4.065,25.509-9.995,31.617-16.449c1.284-2.918,0.879-7.371-0.208-12.098c3.824-1.891,7.574-3.686,10.755-5.096
						c7.861-4.138,19.427-10.148,27.265-14.783c-5.194-6.553,4.592-8.386,4-13.485L162.482,37.108z M93.831,103.256
						c-0.074-2.545,0.465-5.163,2.332-7.44c0,0,2.22-1.791,5.29-3.475c2.814,2.124,5.488,4.648,9.514,3.693
						c0.566-2.232-3.301-3.052-6.479-5.272c3.049-1.598,9.396-4.945,16.203-8.385C123.311,93.684,105.973,98.615,93.831,103.256z"/>
				</g>
			</g>
			<path d="M159.686,19.684c0,0,2.311-1.021,3.362,0.341c0.882,1.142,6.979,12.363,6.979,12.363s0.473,1.864-0.619,2.534l-1.062,0.2
				L159.686,19.684z"/>
			
				<linearGradient id="SVGID_14_" gradientUnits="userSpaceOnUse" x1="-258.6748" y1="1224.5615" x2="-237.4871" y2="1239.7733" gradientTransform="matrix(0.9826 -0.1858 0.1858 0.9826 52.956 -1147.6605)">
				<stop  offset="0" style="stop-color:#D16E00"/>
				<stop  offset="0.1896" style="stop-color:#B56205"/>
				<stop  offset="0.5959" style="stop-color:#6E4313"/>
				<stop  offset="1" style="stop-color:#222222"/>
			</linearGradient>
			<path fill="url(#SVGID_14_)" d="M94.809,152.334c-6.38,2.518-17.849,7.023-24.444,9.604c-3.031,1.182-5.632,1.104-6.5-0.529
				c-2.596-4.896-7.271-13.887-7.188-30.434c0.016-15.904,1.855-24.357,3.801-29.242c1.085-2.756,3.521-4.822,5.871-5.859
				c3.035-1.339,9.318-4.742,12.642-6.221c3.066-1.365,5.609-0.48,6.02,2.676c0.968,7.49,3.008,21.906,5.849,34.062
				c2.533,10.768,5.235,17.477,6.921,21.004C98.802,149.525,97.618,151.221,94.809,152.334z"/>
			
				<radialGradient id="SVGID_15_" cx="-214.8428" cy="1238.5654" r="3.6273" gradientTransform="matrix(0.9826 -0.1858 0.1858 0.9826 52.956 -1147.6605)" gradientUnits="userSpaceOnUse">
				<stop  offset="0" style="stop-color:#262625"/>
				<stop  offset="0.1511" style="stop-color:#282828"/>
				<stop  offset="0.2419" style="stop-color:#313130"/>
				<stop  offset="0.3168" style="stop-color:#3F3F3E"/>
				<stop  offset="0.3827" style="stop-color:#535352"/>
				<stop  offset="0.4233" style="stop-color:#636363"/>
				<stop  offset="0.4799" style="stop-color:#555455"/>
				<stop  offset="0.5861" style="stop-color:#413D40"/>
				<stop  offset="0.701" style="stop-color:#322D31"/>
				<stop  offset="0.8296" style="stop-color:#2A2328"/>
				<stop  offset="1" style="stop-color:#272025"/>
			</radialGradient>
			<path fill="url(#SVGID_15_)" d="M75.677,108.553c0.275,1.906-1.163,3.771-3.215,4.164c-2.052,0.395-3.923-0.828-4.184-2.729
				c-0.26-1.904,1.179-3.768,3.215-4.164C73.528,105.428,75.4,106.648,75.677,108.553z"/>
			
				<radialGradient id="SVGID_16_" cx="-217.0576" cy="1274.8965" r="3.6979" gradientTransform="matrix(0.9826 -0.1858 0.1858 0.9826 52.956 -1147.6605)" gradientUnits="userSpaceOnUse">
				<stop  offset="0" style="stop-color:#262625"/>
				<stop  offset="0.1511" style="stop-color:#282828"/>
				<stop  offset="0.2419" style="stop-color:#313130"/>
				<stop  offset="0.3168" style="stop-color:#3F3F3E"/>
				<stop  offset="0.3827" style="stop-color:#535352"/>
				<stop  offset="0.4233" style="stop-color:#636363"/>
				<stop  offset="0.4799" style="stop-color:#555455"/>
				<stop  offset="0.5861" style="stop-color:#413D40"/>
				<stop  offset="0.701" style="stop-color:#322D31"/>
				<stop  offset="0.8296" style="stop-color:#2A2328"/>
				<stop  offset="1" style="stop-color:#272025"/>
			</radialGradient>
			<path fill="url(#SVGID_16_)" d="M80.391,144.682c0.275,1.902-1.228,3.76-3.356,4.146c-2.128,0.386-4.064-0.844-4.324-2.746
				c-0.261-1.902,1.244-3.758,3.356-4.146C78.182,141.547,80.117,142.775,80.391,144.682z"/>
		</g>
	</g>
</g>
<g id="outline_x5F_white">
	<g>
		<path fill="#FFFFFF" d="M152.734,18.986l9.75,17.812c0.012,0.108-0.006,0.206-0.002,0.311l5.164,9.437
			c0.592,5.099-9.196,6.932-4.002,13.485c-7.838,4.635-19.401,10.645-27.265,14.783c-3.181,1.41-6.931,3.205-10.755,5.096
			c1.087,4.727,1.492,9.18,0.208,12.098c-6.106,6.454-24.651,12.383-31.617,16.449c0.54,4,1.816,9.627,2.498,12.492
			c0.003,0.02-0.004,0.039,0.001,0.057c0.11,0.424,0.223,0.887,0.335,1.35c0.066,0.271,0.11,0.445,0.11,0.445h0.001
			c1.629,6.789,3.567,17.197,5.789,25.686c1.021,0.072,2.011,0.088,2.245,0.68c0.244,0.617,0.451,1.145,0.623,1.586
			c0,0.002,0.005,0.002,0.005,0.004c0.682,1.729,4.061,6.959,4.536,8.158c0.724,1.818,1.148,2.93,1.134,3.021
			c0,0-42.188,16.021-43.267,16.021c-0.007,0-0.013,0-0.017-0.002c-2.272-3.226-4.018-6.597-5.36-10.056
			c-10.474-15.11-9.548-33.345-9.48-49.157c-0.423-0.046-0.857-0.064-1.3-0.064c-3.028,0-6.457,0.921-9.469,0.921
			c-1.33,0-2.58-0.18-3.677-0.697c-1.511-3.688-4.127-6.539-5.001-9.688c-0.052-0.021-0.11-0.032-0.162-0.06
			c-2.991-7.301-1.275-13.083-3.502-20.146c-0.133-0.303-0.25-0.6-0.309-0.906c-0.11-0.309-0.214-0.611-0.34-0.924
			c0.322-1.033,1.163-1.896,1.965-2.771c1.457-2.424,1.37-4.818,1.37-4.818L152.734,18.986 M109.245,96.242
			c-3.106,0-5.397-2.096-7.792-3.901c-3.07,1.684-5.29,3.475-5.29,3.475c-1.867,2.277-2.406,4.895-2.332,7.44
			c12.142-4.641,29.479-9.572,26.86-20.879c-6.808,3.439-13.154,6.787-16.203,8.385c3.178,2.221,7.045,3.04,6.479,5.272
			C110.363,96.177,109.792,96.242,109.245,96.242 M152.727,6.984c-1.824,0-3.672,0.417-5.408,1.294L27.53,68.874
			c-3.65,1.847-6.071,5.401-6.511,9.39c-1.029,1.314-2.161,3.084-2.863,5.334c-0.822,2.634-0.71,5.47,0.314,8.031
			c0.147,0.518,0.309,0.979,0.464,1.38c0.482,1.73,0.606,3.595,0.759,5.912c0.266,4.009,0.597,8.995,2.964,14.774
			c0.151,0.369,0.32,0.729,0.506,1.078c0.904,2.248,2.055,4.138,3.027,5.731c0.67,1.101,1.303,2.14,1.631,2.938
			c1.136,2.771,3.268,5.02,5.977,6.3c2.296,1.085,4.78,1.684,7.562,1.819c0.25,13.405,1.923,28.431,10.831,41.984
			c1.675,4.035,3.761,7.835,6.211,11.312c1.224,1.738,2.887,3.119,4.82,4.002c1.566,0.717,3.284,1.089,5.006,1.089
			c2.689,0,2.85,0,26.251-8.773c10.583-3.968,21.169-7.987,21.275-8.026c3.936-1.493,6.801-4.94,7.549-9.084
			c0.631-3.489-0.229-5.653-1.787-9.584c-0.541-1.358-1.271-2.609-2.736-5.088c-0.586-0.989-1.549-2.612-1.881-3.27
			c-0.154-0.402-0.336-0.859-0.541-1.378c-0.521-1.308-1.453-3.022-3.082-4.552c-0.801-3.447-1.566-7.051-2.271-10.363
			c-0.763-3.583-1.482-6.969-2.171-9.834c-0.021-0.079-0.039-0.157-0.06-0.234l-0.069-0.281c-0.074-0.308-0.153-0.631-0.231-0.947
			c-0.025-0.121-0.053-0.243-0.08-0.364c-0.229-0.963-0.447-1.911-0.654-2.831c0.541-0.23,1.084-0.466,1.625-0.697
			c11.414-4.898,19.902-8.801,25.188-14.387c0.946-1,1.714-2.155,2.269-3.415c1.268-2.877,1.871-6.113,1.813-9.871
			c0.937-0.433,1.808-0.828,2.612-1.186c0.246-0.109,0.486-0.226,0.727-0.351l2.737-1.439c7.938-4.17,17.815-9.359,25.045-13.633
			c2.981-1.765,5.06-4.734,5.688-8.143c0.268-1.435,0.268-2.888,0.017-4.292c2.208-2.68,4.781-6.956,4.106-12.763
			c-0.178-1.535-0.65-3.021-1.394-4.377l-4.385-8.012c-0.212-0.597-0.474-1.178-0.778-1.737l-9.748-17.812
			C161.086,9.25,156.979,6.984,152.727,6.984L152.727,6.984z"/>
	</g>
</g>
<g id="outline_x5F_black">
	<g>
		<path d="M152.734,18.986l9.75,17.812c0.012,0.108-0.006,0.206-0.002,0.311l5.164,9.437c0.592,5.099-9.196,6.932-4.002,13.485
			c-7.838,4.635-19.401,10.645-27.265,14.783c-3.181,1.41-6.931,3.205-10.755,5.096c1.087,4.727,1.492,9.18,0.208,12.098
			c-6.106,6.454-24.651,12.383-31.617,16.449c0.54,4,1.816,9.627,2.498,12.492c0.003,0.02-0.004,0.039,0.001,0.057
			c0.11,0.424,0.223,0.887,0.335,1.35c0.066,0.271,0.11,0.445,0.11,0.445h0.001c1.629,6.789,3.567,17.197,5.789,25.686
			c1.021,0.072,2.011,0.088,2.245,0.68c0.244,0.617,0.451,1.145,0.623,1.586c0,0.002,0.005,0.002,0.005,0.004
			c0.682,1.729,4.061,6.959,4.536,8.158c0.724,1.818,1.148,2.93,1.134,3.021c0,0-42.188,16.021-43.267,16.021
			c-0.007,0-0.013,0-0.017-0.002c-2.272-3.226-4.018-6.597-5.36-10.056c-10.474-15.11-9.548-33.345-9.48-49.157
			c-0.423-0.046-0.857-0.064-1.3-0.064c-3.028,0-6.457,0.921-9.469,0.921c-1.331,0-2.58-0.18-3.677-0.697
			c-1.511-3.688-4.127-6.539-5.001-9.688c-0.052-0.021-0.11-0.032-0.162-0.06c-2.991-7.301-1.275-13.083-3.502-20.146
			c-0.133-0.303-0.25-0.6-0.309-0.906c-0.11-0.309-0.214-0.611-0.34-0.924c0.322-1.033,1.163-1.896,1.965-2.771
			c1.457-2.424,1.37-4.818,1.37-4.818L152.734,18.986 M109.245,96.242c-3.106,0-5.397-2.096-7.792-3.901
			c-3.07,1.684-5.29,3.475-5.29,3.475c-1.867,2.277-2.406,4.895-2.332,7.44c12.142-4.641,29.479-9.572,26.86-20.879
			c-6.808,3.439-13.154,6.787-16.203,8.385c3.178,2.221,7.045,3.04,6.479,5.272C110.363,96.177,109.792,96.242,109.245,96.242
			 M152.73,12.985c-0.912,0-1.836,0.208-2.703,0.647L30.238,74.228c-2.178,1.102-3.492,3.066-3.295,5.485
			c-0.015,0.182-0.075,0.666-0.302,1.193c-0.966,1.067-2.134,2.484-2.757,4.479c-0.412,1.322-0.354,2.746,0.163,4.03
			c0.052,0.128,0.097,0.255,0.142,0.381c0.127,0.484,0.281,0.908,0.428,1.267c0.73,2.438,0.885,4.772,1.063,7.461
			c0.25,3.76,0.532,8.021,2.53,12.897c0.111,0.271,0.242,0.533,0.39,0.783c0.72,1.907,1.73,3.565,2.714,5.18
			c0.797,1.31,1.551,2.544,2.06,3.786c0.568,1.387,1.634,2.51,2.988,3.148c1.813,0.855,3.854,1.272,6.24,1.272
			c1.628,0,3.199-0.188,4.725-0.399c-0.071,14.776,0.47,31.093,10.192,45.533c1.542,3.823,3.487,7.414,5.789,10.68
			c0.61,0.867,1.438,1.556,2.4,1.998c0.786,0.358,1.656,0.549,2.521,0.549c1.406,0,2.18,0,45.396-16.41
			c1.968-0.747,3.398-2.471,3.773-4.541c0.326-1.805-0.018-2.668-1.461-6.305c-0.373-0.938-1.018-2.039-2.321-4.243
			c-0.683-1.152-1.951-3.296-2.22-3.925c-0.01-0.027-0.021-0.055-0.033-0.082c-0.164-0.426-0.359-0.92-0.586-1.49
			c-0.653-1.639-1.721-2.662-2.854-3.309c-0.992-4.117-1.938-8.552-2.791-12.564c-0.755-3.544-1.468-6.893-2.138-9.684
			c-0.013-0.047-0.021-0.092-0.034-0.141l-0.085-0.341c-0.087-0.356-0.176-0.724-0.265-1.072c-0.02-0.097-0.038-0.19-0.062-0.286
			c-0.366-1.55-1.093-4.68-1.686-7.746c1.812-0.834,3.938-1.746,6.128-2.688c8.604-3.691,18.354-7.879,23.195-12.997
			c0.476-0.5,0.857-1.078,1.136-1.708c1.286-2.925,1.627-6.524,1.021-11.119c2.457-1.182,4.621-2.188,6.465-3.006
			c0.123-0.055,0.244-0.113,0.363-0.176l2.743-1.442c7.878-4.139,17.683-9.289,24.778-13.486c1.492-0.882,2.531-2.367,2.847-4.071
			c0.296-1.594-0.067-3.234-0.996-4.551c0.22-0.235,0.457-0.48,0.651-0.68c1.861-1.916,4.977-5.123,4.406-10.039
			c-0.09-0.768-0.326-1.511-0.697-2.188l-4.652-8.502c-0.122-0.432-0.293-0.85-0.509-1.246l-9.75-17.812
			C156.911,14.118,154.855,12.985,152.73,12.985L152.73,12.985z"/>
	</g>
</g>
</svg>
