<?xml version="1.0" encoding="utf-8"?>
<!-- Generator: Adobe Illustrator 15.0.0, SVG Export Plug-In . SVG Version: 6.00 Build 0)  -->
<!DOCTYPE svg PUBLIC "-//W3C//DTD SVG 1.1//EN" "http://www.w3.org/Graphics/SVG/1.1/DTD/svg11.dtd">
<svg version="1.1" xmlns="http://www.w3.org/2000/svg" xmlns:xlink="http://www.w3.org/1999/xlink" x="0px" y="0px" width="200px"
	 height="200px" viewBox="0 0 200 200" enable-background="new 0 0 200 200" xml:space="preserve">
<g id="icon">
	<g id="Layer_2">
	</g>
	<g id="Layer_1_1_">
		<g>
			
				<linearGradient id="SVGID_1_" gradientUnits="userSpaceOnUse" x1="164.123" y1="734.7646" x2="172.2233" y2="741.1774" gradientTransform="matrix(1 0 0 1 -100 -591)">
				<stop  offset="0" style="stop-color:#444241"/>
				<stop  offset="1" style="stop-color:#000000"/>
			</linearGradient>
			<path fill="url(#SVGID_1_)" d="M45.715,173.166c5.112,4.24,12.012,4.357,15.404,0.262l31.242-38.934
				c3.396-4.096,2.003-10.854-3.112-15.092l-0.643-0.234c-5.117-4.238-12.015-4.357-15.41-0.26l-31.243,38.934
				c-3.394,4.092-2,10.85,3.113,15.09L45.715,173.166z"/>
			<path d="M65.196,104.234c-2.087,4.014,5.579,15.643,17.123,25.974c11.542,10.331,22.595,15.454,24.681,11.438
				c2.086-4.013-5.581-15.644-17.122-25.973C78.333,105.345,67.279,100.219,65.196,104.234z"/>
			<path d="M66.291,103.01c-2.087,4.014,5.579,15.646,17.122,25.973c11.544,10.334,22.594,15.455,24.683,11.441
				c2.088-4.012-5.582-15.645-17.125-25.973C79.428,104.119,68.377,98.996,66.291,103.01z"/>
			<path fill="#404040" d="M84.48,127.479c-11.006-9.847-18.466-20.859-17.333-25.345c-0.353,0.22-0.658,0.494-0.856,0.875
				c-2.087,4.015,5.579,15.646,17.122,25.974c11.544,10.334,22.594,15.453,24.683,11.44c0.098-0.187,0.152-0.407,0.205-0.629
				C104.939,141.885,94.922,136.827,84.48,127.479z"/>
			
				<linearGradient id="SVGID_2_" gradientUnits="userSpaceOnUse" x1="206.7119" y1="650.7344" x2="293.2823" y2="713.5104" gradientTransform="matrix(1 0 0 1 -100 -591)">
				<stop  offset="0" style="stop-color:#FFFFFF"/>
				<stop  offset="1" style="stop-color:#516EA2"/>
			</linearGradient>
			<path fill="url(#SVGID_2_)" d="M109.538,124.469c3.888-4.479,9.008-10.359,14.373-16.459
				c20.763-23.854,42.601-49.744,34.11-84.436c-7.029,14.774-15.285,32.358-37.75,44.034l0.387,1.597l-3.4-0.1
				c-0.896,0.421-1.818,0.833-2.757,1.236l1.149,4.768l-6.291-0.188l1.49,6.168l-6.428-0.189c-0.014,0.016-0.025,0.032-0.039,0.049
				l1.458,6.043l-6.186-0.182c-0.122,0.147-0.24,0.297-0.362,0.446l1.454,6.021l-6.226-0.184c-0.065,0.077-0.129,0.154-0.193,0.232
				l1.412,5.854l-6.134-0.183c-0.041,0.048-0.081,0.097-0.121,0.144l1.454,6.02l-6.45-0.189c-0.008,0.008-0.014,0.016-0.021,0.023
				l-5.375,5.865c-0.12,0.123-0.251,0.258-0.366,0.373l19.537,15.742c0.862-0.998,2.198-2.545,3.886-4.494
				C102.794,121.74,108.801,125.318,109.538,124.469z"/>
			
				<linearGradient id="SVGID_3_" gradientUnits="userSpaceOnUse" x1="218.208" y1="652.125" x2="220.233" y2="675.0754" gradientTransform="matrix(1 0 0 1 -100 -591)">
				<stop  offset="0.092" style="stop-color:#A8CEC9;stop-opacity:0"/>
				<stop  offset="0.1885" style="stop-color:#C4DEDA;stop-opacity:0.3455"/>
				<stop  offset="0.2883" style="stop-color:#E5F0EF;stop-opacity:0.7027"/>
				<stop  offset="0.4663" style="stop-color:#FFFFFF"/>
				<stop  offset="1" style="stop-color:#A8CEC9;stop-opacity:0"/>
			</linearGradient>
			<path fill="url(#SVGID_3_)" d="M109.538,124.469c3.888-4.479,9.008-10.359,14.373-16.459
				c20.763-23.854,42.601-49.744,34.11-84.436c-7.029,14.774-15.285,32.358-37.75,44.034l0.387,1.597l-3.4-0.1
				c-0.896,0.421-1.818,0.833-2.757,1.236l1.149,4.768l-6.291-0.188l1.49,6.168l-6.428-0.189c-0.014,0.016-0.025,0.032-0.039,0.049
				l1.458,6.043l-6.186-0.182c-0.122,0.147-0.24,0.297-0.362,0.446l1.454,6.021l-6.226-0.184c-0.065,0.077-0.129,0.154-0.193,0.232
				l1.412,5.854l-6.134-0.183c-0.041,0.048-0.081,0.097-0.121,0.144l1.454,6.02l-6.45-0.189c-0.008,0.008-0.014,0.016-0.021,0.023
				l-5.375,5.865c-0.12,0.123-0.251,0.258-0.366,0.373l19.537,15.742c0.862-0.998,2.198-2.545,3.886-4.494
				C102.794,121.74,108.801,125.318,109.538,124.469z"/>
			
				<linearGradient id="SVGID_4_" gradientUnits="userSpaceOnUse" x1="192.9873" y1="621.8184" x2="230.5594" y2="698.1946" gradientTransform="matrix(1 0 0 1 -100 -591)">
				<stop  offset="0" style="stop-color:#FFFFFF"/>
				<stop  offset="1" style="stop-color:#718BAB"/>
			</linearGradient>
			<path fill="url(#SVGID_4_)" d="M100.141,116.372c0.642-0.74,3.738,2.397,4.475,1.549c3.889-4.481,7.595-7.304,12.959-13.403
				c20.764-23.855,32.146-33.354,35.122-58.452c-7.747,11.723-13.79,16.572-28.174,25.269l0.388,1.598l-3.402-0.1
				c-0.896,0.42-1.815,0.832-2.756,1.234l1.149,4.768l-6.291-0.186l1.488,6.168l-6.426-0.19c-0.013,0.017-0.023,0.032-0.037,0.05
				l1.459,6.043l-6.188-0.184c-0.12,0.148-0.243,0.298-0.362,0.446L105,97.003l-6.226-0.185c-0.064,0.078,1.219,6.086,1.219,6.086
				l-6.134-0.182c-0.041,0.049-0.082,0.096-0.121,0.145l1.453,6.02l-1.292,1.867l-6.122-2.371c-0.007,0.008-5.646,6.146-5.762,6.262
				l12.824,9.278C95.702,122.924,98.452,118.322,100.141,116.372z"/>
		</g>
	</g>
</g>
<g id="outline_x5F_white">
	<g>
		<g>
			<path fill="#FFFFFF" d="M158.021,23.574c8.49,34.691-13.35,60.58-34.11,84.436c-5.365,6.1-10.485,11.979-14.373,16.459
				c-0.079,0.092-0.22,0.131-0.406,0.131c-1.394,0-5.414-2.221-6.661-2.221c-0.148,0-0.258,0.031-0.318,0.102
				c-0.584,0.674-1.106,1.279-1.604,1.854c5.452,6.57,8.534,12.508,7.743,15.498c-0.052,0.209-0.104,0.418-0.196,0.594
				c-0.229,0.438-0.582,0.748-1.013,0.975c-0.032,0.08-0.044,0.176-0.083,0.25c-0.48,0.929-1.441,1.367-2.775,1.367
				c-3.037,0-8.01-2.274-13.686-6.248l-29.42,36.66c-1.658,2.002-4.152,2.997-6.867,2.997c-2.841,0-5.923-1.091-8.537-3.259
				l-0.648-0.232c-5.113-4.242-6.506-10.998-3.113-15.092L72.399,119.9c-5.603-6.854-8.603-12.977-7.203-15.666
				c0.228-0.439,0.58-0.75,1.011-0.977c0.033-0.078,0.045-0.176,0.084-0.25c0.104-0.199,0.24-0.367,0.396-0.519
				c0.537-0.563,1.354-0.833,2.4-0.833c2.929,0,7.657,2.115,13.088,5.84l2.294-2.504c0.008-0.01,0.014-0.018,0.021-0.022l6.45,0.188
				l-1.454-6.02c0.04-0.047,0.08-0.096,0.121-0.144l6.134,0.183l-1.412-5.854c0.064-0.078,0.128-0.155,0.193-0.232l6.226,0.184
				l-1.454-6.021c0.122-0.149,0.24-0.299,0.362-0.446l6.186,0.182l-1.458-6.043c0.013-0.017,0.025-0.033,0.039-0.049l6.427,0.189
				l-1.49-6.168l6.291,0.188l-1.148-4.768c0.938-0.403,1.857-0.815,2.757-1.236l3.4,0.1l-0.388-1.597
				C142.736,55.933,150.992,38.348,158.021,23.574 M158.018,11.574c-4.591,0-8.828,2.634-10.832,6.845l-0.138,0.29
				c-6.668,14.016-13.563,28.51-32.312,38.252c-0.438,0.229-0.86,0.482-1.262,0.757c-0.445,0.148-0.886,0.323-1.312,0.524
				c-0.745,0.35-1.553,0.711-2.398,1.075c-2.344,1.007-4.222,2.687-5.479,4.732c-1.625,0.758-3.08,1.881-4.24,3.311
				c-0.819,1.01-1.459,2.133-1.908,3.321c-1.014,0.624-1.938,1.401-2.74,2.316c-0.192,0.22-0.377,0.447-0.555,0.68
				c-0.716,0.939-1.281,1.969-1.688,3.051c-1.021,0.658-1.946,1.475-2.739,2.432c-0.104,0.127-0.207,0.254-0.31,0.382l-0.102,0.125
				c-0.819,1.003-1.461,2.119-1.913,3.3c-1.009,0.641-1.926,1.435-2.716,2.366c-0.097,0.113-0.191,0.228-0.286,0.343
				c-0.796,0.966-1.429,2.039-1.885,3.177c-1.003,0.633-1.917,1.418-2.706,2.339l-0.15,0.177c-0.243,0.285-0.471,0.579-0.685,0.882
				c-3.874-1.735-7.376-2.59-10.573-2.59c-4.248,0-8.103,1.542-10.888,4.349c-0.372,0.369-0.721,0.756-1.046,1.159
				c-1.049,1.036-1.93,2.229-2.614,3.551c-2.98,5.731-2.062,12.568,2.83,20.738l-24.73,30.819
				c-7.522,9.183-5.398,23.463,4.765,31.894c0.706,0.586,1.476,1.087,2.293,1.496c4.352,3.082,9.448,4.761,14.554,4.761
				c6.372,0,12.243-2.677,16.108-7.342c0.04-0.048,0.079-0.097,0.118-0.145l22.956-28.607c3.957,1.798,7.53,2.684,10.79,2.684
				c4.908,0,9.229-2.058,12-5.608c0.996-1.002,1.84-2.146,2.5-3.41c0.658-1.258,0.987-2.367,1.197-3.207
				c0.857-3.349,0.587-7.001-0.835-11.015c4.854-5.592,9.507-10.918,13.835-15.838c0.016-0.017,0.026-0.031,0.041-0.049
				c9.697-11.142,21.768-25.009,29.678-40.604c9.254-18.25,11.557-36.098,7.037-54.562c-1.205-4.93-5.385-8.568-10.434-9.085
				C158.833,11.595,158.424,11.574,158.018,11.574L158.018,11.574z"/>
		</g>
	</g>
</g>
<g id="outline_x5F_black">
	<g>
		<path d="M158.021,23.574c8.49,34.691-13.35,60.58-34.11,84.436c-5.365,6.1-10.485,11.979-14.373,16.459
			c-0.079,0.092-0.22,0.133-0.406,0.133c-1.394,0-5.414-2.223-6.661-2.223c-0.148,0-0.258,0.031-0.318,0.102
			c-0.584,0.676-1.106,1.279-1.604,1.854c5.452,6.572,8.534,12.508,7.743,15.498c-0.052,0.209-0.104,0.418-0.196,0.594
			c-0.229,0.438-0.582,0.748-1.013,0.975c-0.032,0.08-0.044,0.176-0.083,0.25c-0.48,0.929-1.441,1.367-2.775,1.367
			c-3.037,0-8.01-2.274-13.686-6.248l-29.42,36.662c-1.658,2-4.152,2.995-6.867,2.995c-2.841,0-5.923-1.091-8.537-3.259
			l-0.648-0.232c-5.113-4.242-6.506-10.998-3.113-15.092L72.399,119.9c-5.603-6.854-8.603-12.977-7.203-15.666
			c0.228-0.439,0.58-0.75,1.011-0.977c0.033-0.078,0.045-0.176,0.084-0.25c0.104-0.199,0.24-0.367,0.396-0.519
			c0.537-0.563,1.354-0.833,2.399-0.833c2.93,0,7.658,2.115,13.089,5.84l2.294-2.504c0.008-0.01,0.014-0.018,0.021-0.022l6.45,0.188
			l-1.454-6.02c0.04-0.047,0.08-0.096,0.121-0.144l6.134,0.183l-1.412-5.854c0.064-0.078,0.128-0.155,0.193-0.232l6.226,0.184
			l-1.454-6.021c0.122-0.149,0.24-0.299,0.362-0.446l6.186,0.182l-1.458-6.043c0.013-0.017,0.025-0.033,0.039-0.049l6.427,0.189
			l-1.49-6.168l6.291,0.188l-1.148-4.768c0.938-0.403,1.857-0.815,2.757-1.236l3.4,0.1l-0.388-1.597
			C142.736,55.933,150.992,38.348,158.021,23.574 M158.02,17.574c-2.295,0-4.414,1.317-5.416,3.422l-0.138,0.289
			c-6.763,14.215-14.428,30.328-34.961,40.999c-0.481,0.25-0.919,0.56-1.305,0.915c-0.515,0.092-1.015,0.251-1.49,0.474
			c-0.804,0.377-1.672,0.766-2.578,1.155c-1.796,0.772-3.045,2.334-3.471,4.134c-1.542,0.181-2.968,0.955-3.959,2.178
			c-0.894,1.1-1.358,2.467-1.343,3.854c-1.327,0.239-2.549,0.922-3.455,1.956c-0.099,0.114-0.194,0.231-0.287,0.353
			c-0.808,1.056-1.234,2.339-1.234,3.646c-1.3,0.282-2.483,0.991-3.349,2.037c-0.089,0.106-0.175,0.213-0.262,0.32l-0.126,0.156
			c-0.877,1.072-1.346,2.403-1.354,3.76c-1.294,0.271-2.477,0.965-3.348,1.993l-0.23,0.276c-0.854,1.036-1.335,2.325-1.381,3.644
			c-1.267,0.274-2.424,0.956-3.284,1.96l-0.105,0.125c-0.921,1.077-1.431,2.443-1.455,3.836c-0.762,0.129-1.492,0.403-2.15,0.81
			c-4.814-2.794-8.924-4.206-12.253-4.206c-3.357,0-5.455,1.386-6.645,2.592c-0.304,0.3-0.581,0.619-0.829,0.956
			c-0.713,0.649-1.303,1.414-1.746,2.271c-1.609,3.096-1.326,6.885,0.87,11.573c0.969,2.067,2.34,4.356,4.043,6.759L37.3,154.055
			c-5.458,6.635-3.699,17.162,3.936,23.495c0.458,0.38,0.97,0.688,1.518,0.918c3.432,2.56,7.476,3.957,11.499,3.957
			c4.579,0,8.767-1.885,11.488-5.17c0.02-0.022,0.039-0.048,0.059-0.071l26.038-32.447c4.866,2.843,9.02,4.277,12.387,4.277
			c3.191,0,5.859-1.296,7.489-3.597c0.693-0.64,1.269-1.388,1.703-2.222c0.408-0.773,0.599-1.512,0.69-1.889
			c0.789-3.062,0.009-6.822-2.321-11.236c0.871-0.373,1.647-0.938,2.284-1.668c5.039-5.811,9.865-11.336,14.347-16.43
			c19.978-22.955,44.815-51.493,35.435-89.827c-0.604-2.465-2.691-4.284-5.218-4.542C158.428,17.584,158.223,17.574,158.02,17.574
			L158.02,17.574z"/>
	</g>
</g>
</svg>
