<?xml version="1.0" encoding="utf-8"?>
<!-- Generator: Adobe Illustrator 15.0.0, SVG Export Plug-In . SVG Version: 6.00 Build 0)  -->
<!DOCTYPE svg PUBLIC "-//W3C//DTD SVG 1.1//EN" "http://www.w3.org/Graphics/SVG/1.1/DTD/svg11.dtd">
<svg version="1.1" xmlns="http://www.w3.org/2000/svg" xmlns:xlink="http://www.w3.org/1999/xlink" x="0px" y="0px" width="200px"
	 height="200px" viewBox="0 0 200 200" enable-background="new 0 0 200 200" xml:space="preserve">
<g id="icon">
	<g id="Layer_2">
	</g>
	<g id="Layer_1_1_">
		<g>
			<g>
				<g>
					
						<linearGradient id="SVGID_1_" gradientUnits="userSpaceOnUse" x1="-2995.0791" y1="-4806.8608" x2="-3042.5171" y2="-4806.8608" gradientTransform="matrix(-0.7071 0.7071 -0.7071 -0.7071 -5480.7539 -1211.4258)">
						<stop  offset="0" style="stop-color:#89682B"/>
						<stop  offset="0.2025" style="stop-color:#724E19"/>
						<stop  offset="0.2525" style="stop-color:#89682B"/>
						<stop  offset="0.3203" style="stop-color:#A3843E"/>
						<stop  offset="0.3933" style="stop-color:#B69A4D"/>
						<stop  offset="0.473" style="stop-color:#C4AA58"/>
						<stop  offset="0.5643" style="stop-color:#CCB35E"/>
						<stop  offset="0.6933" style="stop-color:#CFB660"/>
						<stop  offset="0.7914" style="stop-color:#EBD760"/>
						<stop  offset="0.8589" style="stop-color:#EBD760"/>
						<stop  offset="0.9693" style="stop-color:#CFB660"/>
					</linearGradient>
					<path fill="url(#SVGID_1_)" d="M37.046,69.666c7.352,6.92,20.292,5.444,29.159-3.422c8.867-8.867,10.342-21.807,3.422-29.158
						l0.01-0.011l-0.326-0.327l-0.375-0.375l-0.328-0.327l-0.01,0.01c-7.352-6.921-20.292-5.445-29.159,3.421
						c-8.867,8.867-10.342,21.808-3.422,29.159l-0.01,0.011l0.327,0.326l0.375,0.375l0.327,0.327L37.046,69.666z"/>
					
						<radialGradient id="SVGID_2_" cx="-3018.8721" cy="-4989.3672" r="22.5341" gradientTransform="matrix(-0.7071 0.7071 -0.5631 -0.5631 -4890.3721 -621.0439)" gradientUnits="userSpaceOnUse">
						<stop  offset="0.773" style="stop-color:#89682B"/>
						<stop  offset="1" style="stop-color:#89682B;stop-opacity:0"/>
					</radialGradient>
					<path fill="url(#SVGID_2_)" d="M39.073,69.428c6.841,6.44,18.882,5.066,27.132-3.184c8.251-8.251,9.623-20.292,3.184-27.133
						l0.01-0.009l-0.305-0.304l-0.348-0.35l-0.307-0.305l-0.01,0.01c-6.838-6.439-18.879-5.066-27.129,3.184
						c-8.252,8.251-9.625,20.292-3.185,27.132l-0.009,0.009l0.304,0.306l0.349,0.348l0.305,0.305L39.073,69.428z"/>
					
						<radialGradient id="SVGID_3_" cx="-3018.8721" cy="-4989.3672" r="22.5341" gradientTransform="matrix(-0.7071 0.7071 -0.5631 -0.5631 -4890.3721 -621.0439)" gradientUnits="userSpaceOnUse">
						<stop  offset="0.773" style="stop-color:#3D2D00"/>
						<stop  offset="1" style="stop-color:#89682B;stop-opacity:0"/>
					</radialGradient>
					<path fill="url(#SVGID_3_)" d="M39.073,69.428c6.841,6.44,18.882,5.066,27.132-3.184c8.251-8.251,9.623-20.292,3.184-27.133
						l0.01-0.009l-0.305-0.304l-0.348-0.35l-0.307-0.305l-0.01,0.01c-6.838-6.439-18.879-5.066-27.129,3.184
						c-8.252,8.251-9.625,20.292-3.185,27.132l-0.009,0.009l0.304,0.306l0.349,0.348l0.305,0.305L39.073,69.428z"/>
					
						<linearGradient id="SVGID_4_" gradientUnits="userSpaceOnUse" x1="-3018.8711" y1="-4796.1113" x2="-3018.8711" y2="-4791.5049" gradientTransform="matrix(-0.7071 0.7071 -0.7071 -0.7071 -5480.7539 -1211.4258)">
						<stop  offset="0" style="stop-color:#EBD760;stop-opacity:0"/>
						<stop  offset="1" style="stop-color:#EBD760"/>
					</linearGradient>
					<path opacity="0.42" fill="url(#SVGID_4_)" enable-background="new    " d="M41.461,41.5
						c8.495-8.496,20.895-9.909,27.938-3.278l0.01-0.01l-0.232-0.232l-0.359-0.359l-0.314-0.313l-0.01,0.01
						c-7.043-6.63-19.441-5.217-27.937,3.278c-8.496,8.496-9.91,20.895-3.279,27.937l-0.01,0.009l0.314,0.314l0.358,0.359
						l0.232,0.233l0.01-0.01C31.552,62.393,32.965,49.995,41.461,41.5z"/>
					
						<linearGradient id="SVGID_5_" gradientUnits="userSpaceOnUse" x1="-2995.0776" y1="-4836.1978" x2="-3042.5161" y2="-4836.1978" gradientTransform="matrix(-0.7071 0.7071 -0.7071 -0.7071 -5480.7539 -1211.4258)">
						<stop  offset="0" style="stop-color:#89682B"/>
						<stop  offset="0.2025" style="stop-color:#724E19"/>
						<stop  offset="0.2525" style="stop-color:#89682B"/>
						<stop  offset="0.3203" style="stop-color:#A3843E"/>
						<stop  offset="0.3933" style="stop-color:#B69A4D"/>
						<stop  offset="0.473" style="stop-color:#C4AA58"/>
						<stop  offset="0.5643" style="stop-color:#CCB35E"/>
						<stop  offset="0.6933" style="stop-color:#CFB660"/>
						<stop  offset="0.7914" style="stop-color:#EBD760"/>
						<stop  offset="0.8589" style="stop-color:#EBD760"/>
						<stop  offset="0.9693" style="stop-color:#CFB660"/>
					</linearGradient>
					<path fill="url(#SVGID_5_)" d="M118.871,86.308L74.058,41.496c-7.287-7.287-20.493-5.898-29.496,3.104
						c-9.001,9.003-10.392,22.208-3.104,29.496l44.812,44.812L118.871,86.308z"/>
					<g>
						
							<radialGradient id="SVGID_6_" cx="374.2021" cy="513.3467" r="47.6789" gradientTransform="matrix(0.7188 0.6952 -0.3909 0.4042 24.3136 -370.9683)" gradientUnits="userSpaceOnUse">
							<stop  offset="0.3804" style="stop-color:#CFB660"/>
							<stop  offset="0.6319" style="stop-color:#EBD760"/>
							<stop  offset="0.6994" style="stop-color:#EBD760"/>
							<stop  offset="0.8528" style="stop-color:#CFB660"/>
						</radialGradient>
						<path fill="url(#SVGID_6_)" d="M119.176,86.713c4.648,4.648,9.812,20.84,6.699,31.68c-0.918,3.189-2.873,4.647-2.873,4.647
							s-1.391,1.918-4.701,2.89c-10.814,3.172-27.605-2.695-31.627-6.716c-9.421-9.421-3.07-21.258,4.086-28.416
							C97.949,83.608,110.867,78.404,119.176,86.713z"/>
					</g>
					<g>
						
							<radialGradient id="SVGID_7_" cx="376.7852" cy="560.8555" r="58.5749" gradientTransform="matrix(0.7188 0.6952 -0.3162 0.3269 1.6947 -359.5798)" gradientUnits="userSpaceOnUse">
							<stop  offset="0.6503" style="stop-color:#89682B;stop-opacity:0"/>
							<stop  offset="0.8098" style="stop-color:#7D5916"/>
						</radialGradient>
						<path fill="url(#SVGID_7_)" d="M119.176,86.713c4.648,4.648,9.812,20.84,6.699,31.68c-0.918,3.189-2.873,4.647-2.873,4.647
							s-1.391,1.918-4.701,2.89c-10.814,3.172-27.605-2.695-31.627-6.716c-9.421-9.421-3.07-21.258,4.086-28.416
							C97.949,83.608,110.867,78.404,119.176,86.713z"/>
					</g>
					
						<linearGradient id="SVGID_8_" gradientUnits="userSpaceOnUse" x1="-3018.8721" y1="-4801.7773" x2="-3018.8721" y2="-4797.1704" gradientTransform="matrix(-0.7071 0.7071 -0.7071 -0.7071 -5480.7539 -1211.4258)">
						<stop  offset="0" style="stop-color:#EBD760;stop-opacity:0"/>
						<stop  offset="1" style="stop-color:#EBD760"/>
					</linearGradient>
					<path opacity="0.42" fill="url(#SVGID_8_)" enable-background="new    " d="M45.468,45.506
						c8.495-8.495,20.894-9.909,27.937-3.277l0.01-0.01l-0.232-0.233l-0.359-0.358l-0.312-0.313l-0.01,0.009
						c-7.043-6.631-19.441-5.217-27.938,3.278c-8.495,8.496-9.909,20.895-3.278,27.938l-0.01,0.01l0.313,0.313l0.359,0.358
						l0.232,0.233l0.011-0.011C35.558,66.4,36.971,54.001,45.468,45.506z"/>
					<g>
						
							<linearGradient id="SVGID_9_" gradientUnits="userSpaceOnUse" x1="-2734.9126" y1="-4816.6895" x2="-2706.3699" y2="-4816.6895" gradientTransform="matrix(-0.7071 0.7071 -0.7071 -0.7071 -5231.0381 -1366.8984)">
							<stop  offset="0" style="stop-color:#89682B;stop-opacity:0"/>
							<stop  offset="1" style="stop-color:#7D5916"/>
						</linearGradient>
						<path fill="url(#SVGID_9_)" d="M119.176,86.713c4.648,4.648,9.812,20.84,6.699,31.68c-0.918,3.189-2.873,4.647-2.873,4.647
							s-1.391,1.918-4.701,2.89c-10.814,3.172-27.605-2.695-31.627-6.716c-9.421-9.421-3.07-21.258,4.086-28.416
							C97.949,83.608,110.867,78.404,119.176,86.713z"/>
					</g>
				</g>
				<g>
					
						<linearGradient id="SVGID_10_" gradientUnits="userSpaceOnUse" x1="-3002.7954" y1="-4905.9092" x2="-3034.845" y2="-4905.9092" gradientTransform="matrix(-0.7071 0.7071 -0.7071 -0.7071 -5480.7539 -1211.4258)">
						<stop  offset="0" style="stop-color:#89682B"/>
						<stop  offset="0.2025" style="stop-color:#724E19"/>
						<stop  offset="0.2525" style="stop-color:#89682B"/>
						<stop  offset="0.3203" style="stop-color:#A3843E"/>
						<stop  offset="0.3933" style="stop-color:#B69A4D"/>
						<stop  offset="0.473" style="stop-color:#C4AA58"/>
						<stop  offset="0.5643" style="stop-color:#CCB35E"/>
						<stop  offset="0.6933" style="stop-color:#CFB660"/>
						<stop  offset="0.7914" style="stop-color:#EBD760"/>
						<stop  offset="0.8589" style="stop-color:#EBD760"/>
						<stop  offset="0.9693" style="stop-color:#CFB660"/>
					</linearGradient>
					<path fill="url(#SVGID_10_)" d="M151.354,129.366l-26.049-26.048c-4.924-4.923-13.846-3.983-19.928,2.099
						s-7.02,15.003-2.096,19.928l26.045,26.048L151.354,129.366z"/>
					<g>
						
							<radialGradient id="SVGID_11_" cx="420.7012" cy="648.1357" r="44.5741" gradientTransform="matrix(0.7072 0.707 -0.2655 0.2655 11.4375 -329.975)" gradientUnits="userSpaceOnUse">
							<stop  offset="0.3804" style="stop-color:#CFB660"/>
							<stop  offset="0.6319" style="stop-color:#EBD760"/>
							<stop  offset="0.6994" style="stop-color:#EBD760"/>
							<stop  offset="0.8528" style="stop-color:#CFB660"/>
						</radialGradient>
						<path fill="url(#SVGID_11_)" d="M151.559,129.641c3.143,3.142,18.687,31.104,16.582,38.428l-0.057,0.029
							c-7.307,2.144-35.768-13.783-38.482-16.5c-6.365-6.365-2.076-14.363,2.76-19.197
							C137.218,127.543,145.945,124.025,151.559,129.641z"/>
					</g>
					<g>
						
							<radialGradient id="SVGID_12_" cx="421.8018" cy="748.1025" r="54.7894" gradientTransform="matrix(0.7188 0.6952 -0.2177 0.225 -0.1576 -327.0557)" gradientUnits="userSpaceOnUse">
							<stop  offset="0.6503" style="stop-color:#89682B;stop-opacity:0"/>
							<stop  offset="0.8098" style="stop-color:#7D5916"/>
						</radialGradient>
						<path fill="url(#SVGID_12_)" d="M151.559,129.641c3.143,3.142,18.687,31.104,16.582,38.428l-0.057,0.029
							c-7.307,2.144-35.768-13.783-38.482-16.5c-6.365-6.365-2.076-14.363,2.76-19.197
							C137.218,127.543,145.945,124.025,151.559,129.641z"/>
					</g>
					<g>
						
							<linearGradient id="SVGID_13_" gradientUnits="userSpaceOnUse" x1="-2734.082" y1="-4877.9678" x2="-2714.8008" y2="-4877.9678" gradientTransform="matrix(-0.7071 0.7071 -0.7071 -0.7071 -5231.0381 -1366.8984)">
							<stop  offset="0" style="stop-color:#89682B;stop-opacity:0"/>
							<stop  offset="1" style="stop-color:#7D5916"/>
						</linearGradient>
						<path fill="url(#SVGID_13_)" d="M151.559,129.641c3.143,3.142,18.687,31.104,16.582,38.428l-0.057,0.029
							c-7.307,2.144-35.768-13.783-38.482-16.5c-6.365-6.365-2.076-14.363,2.76-19.197
							C137.218,127.543,145.945,124.025,151.559,129.641z"/>
					</g>
				</g>
				<g opacity="0.42">
					<path fill="#881405" d="M151.559,129.641c-0.082-0.082-0.172-0.146-0.256-0.224l0.051-0.051l-20.316-20.316
						c-4.926-4.924-13.848-3.985-19.93,2.097c-6.082,6.084-7.02,15.004-2.096,19.93l20.314,20.316l0.043-0.041
						c0.076,0.082,0.15,0.164,0.232,0.246c2.715,2.717,31.176,18.644,38.48,16.5l0.057-0.029
						C170.243,160.745,154.699,132.78,151.559,129.641z"/>
				</g>
				<g opacity="0.21">
					<path fill="#421405" d="M151.559,129.641c-0.082-0.082-0.172-0.146-0.256-0.224l0.051-0.051l-20.316-20.316
						c-4.926-4.924-13.848-3.985-19.93,2.097c-6.082,6.084-7.02,15.004-2.096,19.93l20.314,20.316l0.043-0.041
						c0.076,0.082,0.15,0.164,0.232,0.246c2.715,2.717,31.176,18.644,38.48,16.5l0.057-0.029
						C170.243,160.745,154.699,132.78,151.559,129.641z"/>
				</g>
				<g>
					
						<radialGradient id="SVGID_14_" cx="-2723.2441" cy="-4849.4629" r="33.1116" gradientTransform="matrix(-0.7071 0.7071 -0.7071 -0.7071 -5231.0381 -1366.8984)" gradientUnits="userSpaceOnUse">
						<stop  offset="0.773" style="stop-color:#3D2D00"/>
						<stop  offset="1" style="stop-color:#89682B;stop-opacity:0"/>
					</radialGradient>
					<path fill="url(#SVGID_14_)" d="M110.727,110.699c5.811-5.811,12.951-8.186,18.494-3.504c-0.082-0.081-0.854-0.852-0.938-0.93
						c-5.648-5.252-14.363-1.604-19.014,3.045c-4.602,4.599-9.17,12.896-2.773,19.291c0.158,0.162,1.039,1.013,1.256,1.181
						C101.629,123.445,104.699,116.729,110.727,110.699z"/>
				</g>
				
					<radialGradient id="SVGID_15_" cx="-83.6797" cy="-2107.5918" r="9.4495" fx="-78.4804" fy="-2105.7234" gradientTransform="matrix(4.3223 4.8845 -0.7489 0.6627 -1091.2999 1926.9355)" gradientUnits="userSpaceOnUse">
					<stop  offset="0.1595" style="stop-color:#FFFC00;stop-opacity:0.71"/>
					<stop  offset="1" style="stop-color:#FF7900;stop-opacity:0"/>
				</radialGradient>
				<path opacity="0.74" fill="url(#SVGID_15_)" enable-background="new    " d="M164.756,166.432
					c-5.012,4.436-32.521-18.467-61.445-51.149C74.389,82.596,55.008,52.506,60.018,48.07c5.012-4.434,32.52,18.465,61.442,51.152
					C150.383,131.907,169.766,161.997,164.756,166.432z"/>
				
					<radialGradient id="SVGID_16_" cx="1793.1113" cy="-2872.6919" r="6.636" fx="1798.0146" fy="-2872.7878" gradientTransform="matrix(0.8188 1.0822 -0.5196 0.3931 -2800.9158 -652.3287)" gradientUnits="userSpaceOnUse">
					<stop  offset="0.1595" style="stop-color:#FFC000"/>
					<stop  offset="0.162" style="stop-color:#FFBF00;stop-opacity:0.9971"/>
					<stop  offset="0.2731" style="stop-color:#FFA600;stop-opacity:0.8649"/>
					<stop  offset="0.3955" style="stop-color:#FF9200;stop-opacity:0.7192"/>
					<stop  offset="0.5356" style="stop-color:#FF8400;stop-opacity:0.5526"/>
					<stop  offset="0.707" style="stop-color:#FF7B00;stop-opacity:0.3486"/>
					<stop  offset="1" style="stop-color:#FF7900;stop-opacity:0"/>
				</radialGradient>
				<path opacity="0.32" fill="url(#SVGID_16_)" enable-background="new    " d="M165.367,166.102
					c-1.903,1.44-5.881-0.604-8.881-4.572c-3-3.967-3.891-8.35-1.986-9.788c1.904-1.441,5.881,0.604,8.883,4.571
					C166.382,160.277,167.271,164.661,165.367,166.102z"/>
			</g>
		</g>
	</g>
</g>
<g id="outline_x5F_white">
	<g>
		<path fill="#FFFFFF" d="M57.005,31.705c4.376,0,8.484,1.425,11.593,4.352l0.01-0.01l0.328,0.327l0.375,0.375l0.326,0.327
			l-0.01,0.011c0.668,0.71,1.234,1.485,1.746,2.292c0.957,0.602,1.863,1.297,2.685,2.119l44.813,44.812l-0.062,0.062
			c0.121,0.115,0.246,0.223,0.367,0.343c2.836,2.835,5.859,9.968,7.082,17.561l1.873,1.873c0.049,0.043,0.102,0.076,0.15,0.121
			c0.084,0.078,0.854,0.849,0.939,0.931c-0.053-0.043-0.105-0.076-0.156-0.117l1.969,1.967c0,0.002,0.002,0.002,0.002,0.005
			l20.318,20.315l-0.053,0.051c0.084,0.078,0.176,0.142,0.258,0.224c3.141,3.142,18.685,31.104,16.58,38.428l-0.057,0.029
			c-0.458,0.135-0.999,0.196-1.612,0.196c-9.161,0-34.323-14.149-36.868-16.696c-0.082-0.08-0.156-0.164-0.232-0.246l-0.043,0.041
			l-21.83-21.832c-0.346-0.315-0.88-0.834-1.002-0.957c-0.213-0.213-0.412-0.43-0.602-0.646l-1.785-1.785
			c-7.729-1.35-14.975-4.496-17.436-6.957c-0.121-0.119-0.228-0.242-0.344-0.365l-0.061,0.062l-44.81-44.816
			c-0.821-0.82-1.516-1.727-2.118-2.683c-0.806-0.513-1.583-1.079-2.293-1.748l-0.01,0.01l-0.327-0.327l-0.375-0.375l-0.327-0.326
			l0.01-0.011c-6.92-7.351-5.445-20.292,3.422-29.159C44.557,34.36,51.03,31.705,57.005,31.705 M57.006,19.705L57.006,19.705
			c-9.383-0.001-18.878,4.113-26.052,11.287C17.636,44.31,15.86,64.032,26.74,76.271c0.248,0.302,0.513,0.593,0.794,0.874
			l0.327,0.326l0.363,0.362l0.327,0.327c0.278,0.278,0.568,0.541,0.87,0.788c0.418,0.369,0.854,0.727,1.311,1.078
			c0.705,0.914,1.455,1.77,2.246,2.56l44.807,44.807c0.374,0.375,0.768,0.719,1.176,1.033c4.7,4.192,12.481,7.135,19.127,8.739
			c0.232,0.229,0.681,0.663,1.088,1.043l21.666,21.668c0.42,0.419,0.862,0.801,1.324,1.146c4.909,4.041,16.628,9.918,18.047,10.623
			c17.393,8.648,24.066,8.648,26.26,8.648c1.769,0,3.445-0.229,4.989-0.684c0.765-0.225,1.505-0.522,2.21-0.896l0.057-0.028
			c2.896-1.522,5.043-4.162,5.945-7.308c1.314-4.574,1.504-11.634-7.056-29.321c-0.073-0.152-7.005-14.427-11.744-19.998
			c-0.315-0.412-0.662-0.809-1.035-1.181l-20.19-20.188c-0.043-0.045-0.088-0.09-0.133-0.136l-1.252-1.252
			c-0.193-0.22-0.395-0.434-0.604-0.643l-0.133-0.13c-0.062-0.063-0.137-0.137-0.217-0.215c-1.572-6.795-4.521-14.474-8.949-19.355
			c-0.309-0.398-0.644-0.779-1.004-1.14L82.543,33.011c-0.789-0.789-1.644-1.538-2.556-2.241c-0.343-0.446-0.693-0.873-1.054-1.283
			c-0.249-0.305-0.516-0.599-0.799-0.883l-0.326-0.327l-0.394-0.393l-0.335-0.334c-0.268-0.266-0.546-0.519-0.834-0.756
			C71.095,22.216,64.294,19.706,57.006,19.705L57.006,19.705L57.006,19.705z"/>
	</g>
</g>
<g id="outline_x5F_black">
	<g>
		<path d="M57.005,31.705c4.376,0,8.484,1.425,11.593,4.352l0.01-0.01l0.328,0.327l0.375,0.375l0.326,0.327l-0.01,0.011
			c0.668,0.71,1.234,1.485,1.746,2.292c0.957,0.602,1.863,1.297,2.685,2.119l44.813,44.812l-0.062,0.062
			c0.121,0.115,0.246,0.223,0.367,0.343c2.836,2.835,5.859,9.968,7.082,17.561l1.873,1.873c0.049,0.043,0.102,0.076,0.15,0.121
			c0.084,0.078,0.854,0.849,0.939,0.931c-0.053-0.043-0.105-0.076-0.156-0.117l1.969,1.967c0,0.002,0.002,0.002,0.002,0.005
			l20.318,20.315l-0.053,0.051c0.084,0.078,0.176,0.142,0.258,0.224c3.141,3.142,18.685,31.104,16.58,38.428l-0.057,0.029
			c-0.458,0.135-0.999,0.196-1.612,0.196c-9.161,0-34.323-14.149-36.868-16.696c-0.082-0.08-0.156-0.164-0.232-0.246l-0.043,0.041
			l-21.83-21.832c-0.346-0.315-0.88-0.834-1.002-0.957c-0.213-0.213-0.412-0.43-0.602-0.646l-1.785-1.785
			c-7.729-1.35-14.975-4.496-17.436-6.957c-0.121-0.119-0.228-0.242-0.344-0.365l-0.061,0.062l-44.81-44.816
			c-0.821-0.82-1.516-1.727-2.118-2.683c-0.806-0.513-1.583-1.079-2.293-1.748l-0.01,0.01l-0.327-0.327l-0.375-0.375l-0.327-0.326
			l0.01-0.011c-6.92-7.351-5.445-20.292,3.422-29.159C44.557,34.36,51.03,31.705,57.005,31.705 M57.005,25.705L57.005,25.705
			c-7.803,0-15.751,3.473-21.809,9.53c-11.087,11.087-12.745,27.299-3.884,37.149c0.142,0.178,0.294,0.349,0.458,0.513l0.327,0.326
			l0.369,0.368l0.328,0.328c0.164,0.164,0.335,0.316,0.513,0.458c0.525,0.467,1.092,0.917,1.709,1.357
			c0.68,0.95,1.417,1.824,2.201,2.607l44.81,44.81c0.235,0.235,0.486,0.449,0.749,0.639c3.474,3.201,10.755,6.322,18.389,7.926
			l0.351,0.352c0.243,0.271,0.485,0.529,0.735,0.779c0.146,0.146,0.668,0.653,1.089,1.045l21.743,21.744
			c0.246,0.246,0.508,0.467,0.782,0.66c4.759,3.924,29.703,18,40.605,18c1.211,0,2.29-0.145,3.301-0.438
			c0.383-0.112,0.754-0.265,1.106-0.449l0.058-0.029c1.444-0.762,2.52-2.081,2.971-3.652c0.554-1.926,2.023-7.043-6.689-25.052
			c-3.445-7.122-8.376-15.848-11.027-18.858c-0.178-0.24-0.375-0.473-0.594-0.688l-20.229-20.229
			c-0.03-0.03-0.062-0.062-0.094-0.095l-1.422-1.422c-0.129-0.155-0.268-0.306-0.412-0.45l-0.146-0.144
			c-0.289-0.287-0.825-0.815-0.896-0.886c-0.02-0.019-0.035-0.032-0.054-0.049c-0.062-0.06-0.126-0.113-0.188-0.168l-0.322-0.322
			c-1.53-7.758-4.602-14.833-8.088-18.554c-0.188-0.263-0.398-0.511-0.631-0.742L78.3,37.253c-0.783-0.784-1.656-1.521-2.605-2.199
			c-0.438-0.614-0.886-1.178-1.353-1.703c-0.141-0.178-0.293-0.349-0.456-0.513l-0.326-0.327l-0.384-0.384l-0.332-0.331
			c-0.156-0.156-0.321-0.303-0.492-0.439C68.29,27.709,62.861,25.706,57.005,25.705L57.005,25.705z"/>
	</g>
</g>
</svg>
