<?xml version="1.0" encoding="utf-8"?>
<!-- Generator: Adobe Illustrator 15.0.0, SVG Export Plug-In . SVG Version: 6.00 Build 0)  -->
<!DOCTYPE svg PUBLIC "-//W3C//DTD SVG 1.1//EN" "http://www.w3.org/Graphics/SVG/1.1/DTD/svg11.dtd">
<svg version="1.1" xmlns="http://www.w3.org/2000/svg" xmlns:xlink="http://www.w3.org/1999/xlink" x="0px" y="0px" width="200px"
	 height="200px" viewBox="0 0 200 200" enable-background="new 0 0 200 200" xml:space="preserve">
<g id="icon">
	<g id="Layer_2">
	</g>
	<g id="Layer_1_1_">
		<g>
			
				<linearGradient id="SVGID_1_" gradientUnits="userSpaceOnUse" x1="179.6006" y1="6.1465" x2="178.8633" y2="-83.6372" gradientTransform="matrix(1 0 0 -1 -50 61)">
				<stop  offset="0" style="stop-color:#B2C4CE"/>
				<stop  offset="1" style="stop-color:#011025"/>
			</linearGradient>
			<path fill="url(#SVGID_1_)" d="M90.757,113.743c31.787-20.764,85.373-54.545,87.584-69.466
				c-0.067-22.73-25.932-3.863-36.26,3.982c-19.133,14.526-46.09,37.867-61.189,50.99c0.311,0.787,0.16,1.262-0.322,1.521
				C81.882,102.34,90.307,110.747,90.757,113.743z"/>
			
				<linearGradient id="SVGID_2_" gradientUnits="userSpaceOnUse" x1="181.3184" y1="-3.2412" x2="177.0184" y2="-22.5912" gradientTransform="matrix(1 0 0 -1 -50 61)">
				<stop  offset="0.092" style="stop-color:#A8CEC9;stop-opacity:0"/>
				<stop  offset="0.1885" style="stop-color:#C4DEDA;stop-opacity:0.3455"/>
				<stop  offset="0.2883" style="stop-color:#E5F0EF;stop-opacity:0.7027"/>
				<stop  offset="0.4663" style="stop-color:#FFFFFF"/>
				<stop  offset="1" style="stop-color:#A8CEC9;stop-opacity:0"/>
			</linearGradient>
			<path opacity="0.48" fill="url(#SVGID_2_)" enable-background="new    " d="M90.757,113.743
				c31.787-20.764,86.55-55.721,87.584-69.466c-0.067-22.73-25.932-3.863-36.26,3.982c-19.133,14.526-46.09,37.867-61.189,50.99
				c0.311,0.787,0.16,1.262-0.322,1.521C81.882,102.34,90.307,110.747,90.757,113.743z"/>
			<path opacity="0.45" fill="#FFFFFF" enable-background="new    " d="M142.081,51.547c9.86-7.49,33.867-25,36.078-6.788
				c0.057-0.161,0.138-0.328,0.182-0.483c-0.067-22.73-25.932-3.863-36.26,3.982c-19.133,14.526-46.09,37.867-61.189,50.99
				c0.311,0.787,0.16,1.262-0.322,1.521c0.197,0.237,0.568,0.642,1.037,1.147C96.827,88.692,123.238,65.855,142.081,51.547z"/>
			
				<linearGradient id="SVGID_3_" gradientUnits="userSpaceOnUse" x1="137.1885" y1="58.6597" x2="254.4104" y2="-113.5846" gradientTransform="matrix(1 0 0 -1 -50 61)">
				<stop  offset="0" style="stop-color:#B2C4CE"/>
				<stop  offset="1" style="stop-color:#011025"/>
			</linearGradient>
			<path fill="url(#SVGID_3_)" d="M184.096,36.288c-4.388-1.595-5.781-2.99-5.979-8.172c0,0-7.476,4.57-12.709-0.434
				c-0.498,5.225-10.15,4.331-12.009,2.927c-0.932,4.241-2.084,8.078-10.094,5.888c1.086,5.042-4.373,9.297-8.4,7.902
				c-1.116,4.443-2.859,8.285-8.432,7.295c-0.676,5.443-4.527,6.674-8.098,6.285c0.205,3.428-3.936,10.102-8.783,8.104
				c0.785,2.763-2.092,7.877-7.041,7.492c-0.263,4.051-2.818,5.036-5.982,5.469c-1.603,6.341-6.724,6.283-6.724,6.283
				c0.005,3.428-3.741,6.67-6.337,6.076c-0.216,5.453-2.031,5.656-3.797,5.906c-0.564,0.033-1.09,0.082-1.596,0.141L81,100.266
				c0.086-0.262,0.064-0.591-0.109-1.018c15.1-13.123,42.057-36.464,61.189-50.99c10.328-7.845,36.191-26.712,36.26-3.982
				c-2.32,12.745-55.482,48.478-87.094,69.142l1.256,2.876c2.699-1.933,5.188-3.419,7.531-4.638
				c3.115-3.708,6.361-5.385,10.061-4.376c2.643-5.167,6.062-6.042,10.166-4.861c1.434-5.366,4.07-6.471,8.264-6.517
				c0.961-4.554,4.707-8.033,8.81-6.463c-1.394-2.719,3.533-9.445,11.219-6.775c-0.862-3.277,0.938-9.34,9.24-7.242
				c1.438-6.73,4.724-9.206,10.658-7.793c-0.115-7.783,5.327-9.381,9.643-7.428c0.334-4.646-0.376-12.153,4.808-13.948
				C181.025,43.494,181.305,39.279,184.096,36.288z"/>
			
				<linearGradient id="SVGID_4_" gradientUnits="userSpaceOnUse" x1="108.8672" y1="-17.9551" x2="115.3672" y2="-88.955" gradientTransform="matrix(1 0 0 -1 -50 61)">
				<stop  offset="0" style="stop-color:#FFE300"/>
				<stop  offset="0.7485" style="stop-color:#E39400"/>
				<stop  offset="0.8773" style="stop-color:#F6C800"/>
				<stop  offset="1" style="stop-color:#CD7700"/>
			</linearGradient>
			<path fill="url(#SVGID_4_)" d="M110.913,105.818c-0.326-1.241-1.822-1.602-1.177-2.104L97.305,87.97
				c-3.845,0.451-5.817,1.166-8.983-3.462c-3.816-4.868-9.316-7.349-11.893-8.306c-0.729,1.09-1.467,2.176-2.203,3.26
				c-5.039-2.412-10.183-11.717-17.305-6.217c-0.902,0.76-2.032,1.871-2.902,3.542c-2.506,4.309-1.232,11.173-2.188,16.529
				c-6.434,7.28-16.712,17.282-21.092,23.745c2.111,2.266,0.063,3.358-0.152,5.4c2.757,4.586-4.049,8.371-10.652,19.018
				c-1.766,4.418-6.209,8.043-2.744,13.652c4.46,5.648,7.265,12.536,13.591,11.707c9.219-1.211,16.262-10.199,26.227-12.467
				c5.701-1.301,7.961-3.514,13.037-6.688c9.783-6.117,20.303-13.857,26.793-18.875c5.2-4.492,17.979-13.304,11.531-20.713
				C108.143,106.609,110.335,106.761,110.913,105.818z M29.319,162.346c-2.327-1.8-6.669-4.302-6.949-8.21
				c-0.445-6.219,2.273-7.004,7.73-12.489c4.919-4.556,8.267-5.562,10.488-4.404c2.338,4.183,5.812,6.685,8.082,10.979
				C42.338,155.938,39.438,157.189,29.319,162.346z M58.403,90.263c-0.043-4.531-0.587-9.403,1.125-12.747
				c3.509,0.25,7.879,5.601,10.734,9.271C69.866,89.388,59.337,95.142,58.403,90.263z"/>
			
				<linearGradient id="SVGID_5_" gradientUnits="userSpaceOnUse" x1="142.5547" y1="-23.8955" x2="121.9925" y2="-46.515" gradientTransform="matrix(1 0 0 -1 -50 61)">
				<stop  offset="0" style="stop-color:#FFE300"/>
				<stop  offset="0.7485" style="stop-color:#E39400"/>
				<stop  offset="1" style="stop-color:#CD7700"/>
			</linearGradient>
			<path fill="url(#SVGID_5_)" d="M30.587,122.462c2.757,4.586-4.049,8.371-10.652,19.017c-1.766,4.42-6.209,8.045-2.744,13.653
				c4.46,5.647,7.265,12.536,13.591,11.707c9.219-1.211,16.262-10.198,26.227-12.467C62.71,153.07,30.802,120.42,30.587,122.462z
				 M29.319,162.346c-2.327-1.8-6.669-4.302-6.949-8.21c-0.445-6.219,2.273-7.004,7.73-12.489c4.919-4.556,8.267-5.562,10.488-4.404
				c2.338,4.183,5.812,6.685,8.082,10.979C42.338,155.938,39.438,157.189,29.319,162.346z"/>
			
				<linearGradient id="SVGID_6_" gradientUnits="userSpaceOnUse" x1="106.9062" y1="-37.2651" x2="140.3853" y2="-82.7954" gradientTransform="matrix(1 0 0 -1 -50 61)">
				<stop  offset="0" style="stop-color:#FFE300"/>
				<stop  offset="1" style="stop-color:#F7941E"/>
			</linearGradient>
			<path fill="url(#SVGID_6_)" d="M89.551,120.223c0.972,1.252,0.742,3.053-0.511,4.02L72.745,136.87
				c-1.254,0.968-3.053,0.739-4.021-0.513l-5.99-7.731c-0.967-1.248-0.736-3.051,0.513-4.019l16.298-12.627
				c1.252-0.969,3.053-0.741,4.021,0.512L89.551,120.223z"/>
			<path d="M62.765,122.643c0.312,0.403,0.102,1.092-0.471,1.532l-7.445,5.769c-0.57,0.442-1.289,0.475-1.6,0.07l-1.936-2.496
				c-0.312-0.403-0.104-1.093,0.468-1.533l7.444-5.77c0.572-0.443,1.291-0.475,1.605-0.07L62.765,122.643z"/>
			
				<linearGradient id="SVGID_7_" gradientUnits="userSpaceOnUse" x1="61.6226" y1="-64.7778" x2="83.059" y2="-93.9305" gradientTransform="matrix(1 0 0 -1 -50 61)">
				<stop  offset="0" style="stop-color:#FFE300"/>
				<stop  offset="1" style="stop-color:#F7941E"/>
			</linearGradient>
			<path fill="url(#SVGID_7_)" d="M31.801,132.452c-12.048,14.831-11.807,17.405-11.807,17.405
				c-1.235,3.709-3.021,3.966-3.021,3.966c-0.966-1.249-0.307-3.398,1.546-8.033c0,0,2.469-6.229,10.744-13.543L31.801,132.452z"/>
			
				<linearGradient id="SVGID_8_" gradientUnits="userSpaceOnUse" x1="132.7461" y1="5.0024" x2="124.6834" y2="-15.423" gradientTransform="matrix(1 0 0 -1 -50 61)">
				<stop  offset="0" style="stop-color:#608AD6"/>
				<stop  offset="1" style="stop-color:#011025"/>
			</linearGradient>
			<path fill="url(#SVGID_8_)" d="M88.321,84.508c2.98-14.312-7.816-22.67-14.143-30.096c-3.041-0.368-6.518,0.566-8.52,2.236
				c1.223,7.312,8.325,11.66,10.886,19.387c-0.036,0.057-0.075,0.111-0.116,0.168C79.005,77.159,84.505,79.64,88.321,84.508z"/>
			
				<linearGradient id="SVGID_9_" gradientUnits="userSpaceOnUse" x1="110.54" y1="-51.3218" x2="114.54" y2="-66.8218" gradientTransform="matrix(1 0 0 -1 -50 61)">
				<stop  offset="0" style="stop-color:#FFE300"/>
				<stop  offset="1" style="stop-color:#F7941E"/>
			</linearGradient>
			<path fill="url(#SVGID_9_)" d="M87.913,90.806c0.438-3.277-5.979-9.982-11.791-14.147c-0.629,0.935-1.263,1.872-1.896,2.804
				c-5.039-2.412-10.183-11.717-17.305-6.217c-0.902,0.76-2.032,1.871-2.902,3.542c-2.506,4.309-1.232,11.173-2.188,16.529
				c-6.434,7.281-16.712,17.281-21.092,23.746c2.111,2.265,0.063,3.357-0.152,5.399c0.51,0.853,0.545,1.881,0.22,3.06
				c4.303,2.528,10.4,4.008,17.184-0.818C61.046,115.411,87.409,94.573,87.913,90.806z M55.524,95.074
				c-0.046-4.53,0.545-15.485,2.258-18.83c7.281-4.269,13.463,3.611,16.32,7.28C74.604,88.547,56.458,99.954,55.524,95.074z"/>
			<polygon points="57.224,136.882 85.649,114.637 104.807,116.491 62.785,143.68 			"/>
			
				<linearGradient id="SVGID_10_" gradientUnits="userSpaceOnUse" x1="127.4854" y1="-118.6768" x2="129.3391" y2="-111.8793" gradientTransform="matrix(1 0 0 -1 -50 61)">
				<stop  offset="0" style="stop-color:#FFE300"/>
				<stop  offset="0.7485" style="stop-color:#E39400"/>
				<stop  offset="1" style="stop-color:#CD7700"/>
			</linearGradient>
			<path fill="url(#SVGID_10_)" d="M89.665,86.831c0,0,19.153,21.317,19.463,23.789c0.312,2.473-1.231,2.473-1.231,2.473
				l-16.995-21.01C90.901,92.083,91.209,89.919,89.665,86.831z"/>
			
				<linearGradient id="SVGID_11_" gradientUnits="userSpaceOnUse" x1="133.1338" y1="-62.7622" x2="133.6916" y2="-60.7167" gradientTransform="matrix(1 0 0 -1 -50 61)">
				<stop  offset="0" style="stop-color:#FFE300"/>
				<stop  offset="0.7485" style="stop-color:#E39400"/>
				<stop  offset="1" style="stop-color:#CD7700"/>
			</linearGradient>
			<circle fill="url(#SVGID_11_)" cx="89.666" cy="99.808" r="3.089"/>
		</g>
	</g>
</g>
<g id="outline_x5F_white">
	<g>
		<path fill="#FFFFFF" d="M165.407,27.682c1.852,1.771,3.983,2.342,5.966,2.342c3.621,0,6.743-1.909,6.743-1.909
			c0.196,5.183,1.592,6.577,5.979,8.172c-2.791,2.991-3.068,7.207-1.195,9.966c-5.184,1.795-4.474,9.302-4.808,13.948
			c-1.086-0.491-2.241-0.758-3.362-0.758c-3.338,0-6.365,2.36-6.279,8.186c-1.069-0.254-2.053-0.382-2.953-0.382
			c-4.105,0-6.523,2.658-7.705,8.176c-1.18-0.298-2.229-0.431-3.156-0.431c-5.604,0-6.824,4.862-6.084,7.673
			c-1.232-0.428-2.395-0.615-3.471-0.615c-5.632,0-8.917,5.107-7.748,7.39c-0.684-0.261-1.354-0.383-2.007-0.383
			c-3.265,0-6.001,3.05-6.804,6.846c-4.191,0.046-6.828,1.15-8.263,6.517c-1.036-0.298-2.028-0.465-2.976-0.465
			c-2.807,0-5.215,1.464-7.19,5.326c-0.426-0.116-0.846-0.192-1.26-0.239c-0.328,0.235-0.543,0.545-0.465,1.056
			c6.448,7.409-6.331,16.221-11.531,20.713c-6.49,5.018-17.01,12.758-26.793,18.875c-5.076,3.174-7.336,5.387-13.037,6.688
			c-9.966,2.268-17.009,11.255-26.227,12.466c-0.351,0.046-0.691,0.068-1.021,0.068c-5.62,0-8.357-6.44-12.569-11.775
			c-3.466-5.608,0.978-9.233,2.744-13.653c5.053-8.146,10.208-12.273,11.123-15.817c-0.083-0.048-0.169-0.093-0.25-0.14
			c0.325-1.179,0.29-2.207-0.22-3.06c0.215-2.042,2.263-3.136,0.152-5.399c4.38-6.465,14.659-16.465,21.092-23.746
			c0.955-5.356-0.318-12.221,2.188-16.529c0.87-1.671,2-2.782,2.902-3.542c1.58-1.22,3.062-1.712,4.467-1.711
			c4.931,0.001,8.917,6.051,12.837,7.928c0.736-1.084,1.475-2.17,2.203-3.26c0.041-0.057,0.08-0.111,0.116-0.168
			c-2.561-7.727-9.663-12.075-10.886-19.387c1.71-1.426,4.496-2.315,7.167-2.315c0.457,0,0.91,0.026,1.353,0.08
			c6.326,7.426,17.123,15.784,14.143,30.096c0.498,0.729,0.965,1.312,1.416,1.798c0.065-0.322,0.109-0.649,0.108-0.979
			c0,0,0.001,0,0.005,0c0.177,0,5.145-0.056,6.719-6.283c3.164-0.433,5.72-1.418,5.982-5.469c0.178,0.014,0.354,0.021,0.525,0.021
			c4.625,0,7.271-4.849,6.516-7.513c0.611,0.252,1.213,0.366,1.795,0.366c4.028,0,7.168-5.475,6.988-8.47
			c0.395,0.043,0.791,0.066,1.188,0.066c3.193,0,6.31-1.508,6.91-6.351c0.601,0.106,1.153,0.157,1.668,0.157
			c4.271,0,5.768-3.487,6.765-7.452c0.526,0.183,1.077,0.268,1.636,0.268c3.707,0,7.708-3.788,6.764-8.17
			c1.605,0.439,2.937,0.636,4.043,0.636c4.42,0,5.308-3.133,6.051-6.524c0.776,0.586,2.912,1.084,5.172,1.084
			C161.723,31.692,165.117,30.725,165.407,27.682 M61.017,92.163c3.428,0,8.96-3.504,9.246-5.376
			c-2.855-3.67-7.226-9.021-10.734-9.271c-1.712,3.344-1.168,8.216-1.125,12.747C58.665,91.631,59.681,92.163,61.017,92.163
			 M29.319,162.346c10.119-5.154,13.02-6.406,19.352-14.125c-2.27-4.295-5.744-6.797-8.082-10.979
			c-0.55-0.286-1.169-0.44-1.865-0.44c-2.112,0-4.923,1.419-8.624,4.846c-5.457,5.485-8.175,6.271-7.73,12.489
			C22.65,158.044,26.992,160.546,29.319,162.346 M165.404,15.681c-1.404,0-2.821,0.247-4.186,0.755
			c-1.625,0.605-3.064,1.54-4.253,2.715c-1.155-0.36-2.358-0.543-3.569-0.543c-1.398,0-2.807,0.245-4.155,0.743
			c-2.624,0.969-4.786,2.805-6.171,5.147c-2.948,0.058-5.817,1.202-8.018,3.285c-1.479,1.4-2.55,3.125-3.16,5
			c-0.93,0.241-1.834,0.595-2.693,1.06c-2.506,1.354-4.434,3.547-5.463,6.168c-1.569,0.368-3.064,1.051-4.389,2.028
			c-1.521,1.122-2.738,2.575-3.576,4.227c-2.107,0.469-4.074,1.503-5.672,3.025c-1.488,1.418-2.57,3.176-3.173,5.093
			c-1.94,0.442-3.778,1.368-5.323,2.746c-1.625,1.45-2.791,3.28-3.434,5.275c-0.581,0.228-1.145,0.501-1.686,0.818
			c-3.064-5.624-7.157-10.032-10.263-13.378c-1.069-1.152-2.078-2.239-2.908-3.213c-1.955-2.294-4.701-3.77-7.694-4.131
			c-0.912-0.11-1.852-0.167-2.792-0.167c-5.555,0-10.969,1.859-14.854,5.101c-3.273,2.729-4.852,6.991-4.149,11.194
			c0.136,0.81,0.306,1.59,0.506,2.344c-1.649,0.688-3.241,1.618-4.743,2.777c-0.134,0.104-0.266,0.209-0.395,0.318
			c-2.418,2.036-4.282,4.309-5.691,6.942c-2.992,5.316-3.117,11.051-3.217,15.672c-0.012,0.52-0.023,1.044-0.039,1.554
			c-1.401,1.518-2.922,3.132-4.496,4.802c-5.646,5.991-11.483,12.187-14.945,17.294c-1.844,2.723-2.439,5.979-1.843,9.033
			c-0.131,0.568-0.239,1.184-0.308,1.84c-0.07,0.665-0.084,1.331-0.044,1.992c-0.392,0.488-0.813,1.005-1.179,1.453
			c-2.063,2.523-4.889,5.981-7.694,10.506c-0.369,0.595-0.686,1.222-0.945,1.871c-0.126,0.314-0.597,1.123-0.94,1.715
			c-2.163,3.713-7.227,12.408-0.868,22.699c0.242,0.391,0.505,0.768,0.791,1.129c0.749,0.949,1.511,2.051,2.317,3.217
			c3.393,4.906,9.072,13.122,19.67,13.122c0.852,0,1.72-0.058,2.581-0.171c7.438-0.978,13.147-4.661,18.185-7.913
			c3.285-2.12,6.389-4.123,9.145-4.75c6.588-1.503,10.351-4.007,13.99-6.427c0.867-0.576,1.764-1.174,2.747-1.787
			c11.682-7.305,23.312-16.109,27.771-19.557c0.172-0.134,0.34-0.271,0.506-0.412c0.494-0.428,1.157-0.974,1.861-1.551
			c5.807-4.768,14.561-11.956,15.52-22.058c1.43-0.218,2.82-0.692,4.104-1.419c2.145-1.213,3.848-3.047,4.9-5.233
			c3.552-0.771,6.561-3.116,8.181-6.345c2.647-0.43,5.14-1.742,7.013-3.83c0.769-0.855,1.396-1.799,1.879-2.8
			c0.135,0.005,0.27,0.007,0.404,0.007c2.977,0,5.902-1.107,8.156-3.194c1.285-1.191,2.271-2.625,2.924-4.187
			c1.582-0.245,3.115-0.806,4.503-1.668c2.269-1.41,3.985-3.526,4.907-5.998c2.498-0.122,4.927-1.024,6.923-2.625
			c1.627-1.306,2.864-2.994,3.624-4.881c1.62-0.203,3.205-0.737,4.648-1.596c3.371-2.007,5.549-5.537,5.83-9.451
			c0.068-0.963,0.102-1.917,0.131-2.84c0.023-0.708,0.058-1.689,0.119-2.531c1.83-1.438,3.226-3.395,3.977-5.657
			c0.812-2.45,0.807-5.064,0.031-7.465c1.65-2.688,2.195-5.953,1.443-9.083c-0.793-3.301-2.937-6.081-5.856-7.698
			c-0.65-3.648-2.786-6.909-6.138-8.586c-1.777-0.89-3.652-1.345-5.508-1.346c-2.144,0-4.26,0.609-6.167,1.861
			C170.104,16.381,167.771,15.681,165.404,15.681L165.404,15.681z"/>
	</g>
</g>
<g id="outline_x5F_black">
	<g>
		<path d="M165.407,27.682c1.852,1.771,3.983,2.342,5.966,2.342c3.621,0,6.743-1.909,6.743-1.909
			c0.196,5.183,1.592,6.577,5.979,8.172c-2.791,2.991-3.068,7.207-1.195,9.966c-5.184,1.795-4.474,9.302-4.808,13.948
			c-1.086-0.491-2.241-0.758-3.364-0.758c-3.336,0-6.363,2.36-6.277,8.186c-1.069-0.254-2.053-0.382-2.954-0.382
			c-4.104,0-6.522,2.658-7.704,8.176c-1.18-0.298-2.229-0.431-3.156-0.431c-5.604,0-6.824,4.862-6.084,7.673
			c-1.232-0.428-2.395-0.615-3.471-0.615c-5.632,0-8.917,5.107-7.748,7.39c-0.684-0.261-1.354-0.383-2.007-0.383
			c-3.265,0-6.001,3.05-6.804,6.846c-4.191,0.046-6.828,1.15-8.262,6.517c-1.037-0.298-2.029-0.465-2.977-0.465
			c-2.807,0-5.215,1.464-7.189,5.326c-0.427-0.116-0.847-0.192-1.261-0.239c-0.328,0.235-0.543,0.545-0.465,1.056
			c6.448,7.409-6.331,16.221-11.531,20.713c-6.49,5.018-17.01,12.758-26.793,18.875c-5.076,3.174-7.336,5.387-13.037,6.688
			c-9.966,2.268-17.009,11.255-26.227,12.466c-0.352,0.046-0.691,0.068-1.022,0.068c-5.62,0-8.356-6.44-12.569-11.775
			c-3.466-5.608,0.978-9.233,2.744-13.653c5.053-8.146,10.208-12.273,11.123-15.817c-0.083-0.048-0.169-0.093-0.25-0.14
			c0.325-1.179,0.29-2.207-0.22-3.06c0.215-2.042,2.263-3.136,0.152-5.399c4.38-6.465,14.659-16.465,21.092-23.746
			c0.955-5.356-0.318-12.221,2.188-16.529c0.87-1.671,2-2.782,2.902-3.542c1.58-1.22,3.062-1.712,4.468-1.711
			c4.93,0.001,8.916,6.051,12.837,7.928c0.736-1.084,1.475-2.17,2.203-3.26c0.041-0.057,0.08-0.111,0.116-0.168
			c-2.561-7.727-9.663-12.075-10.886-19.387c1.71-1.426,4.496-2.315,7.167-2.315c0.457,0,0.909,0.026,1.353,0.08
			c6.326,7.426,17.123,15.784,14.143,30.096c0.498,0.729,0.965,1.312,1.416,1.798c0.065-0.322,0.109-0.649,0.108-0.979
			c0,0,0.001,0,0.005,0c0.177,0,5.145-0.056,6.719-6.283c3.164-0.433,5.72-1.418,5.982-5.469c0.178,0.014,0.354,0.021,0.525,0.021
			c4.625,0,7.271-4.849,6.516-7.513c0.611,0.252,1.213,0.366,1.795,0.366c4.028,0,7.168-5.475,6.988-8.47
			c0.395,0.043,0.791,0.066,1.188,0.066c3.193,0,6.31-1.508,6.91-6.351c0.601,0.106,1.153,0.157,1.668,0.157
			c4.271,0,5.768-3.487,6.765-7.452c0.526,0.183,1.077,0.268,1.636,0.268c3.707,0,7.708-3.788,6.764-8.17
			c1.605,0.439,2.937,0.636,4.043,0.636c4.42,0,5.308-3.133,6.051-6.524c0.776,0.586,2.912,1.084,5.172,1.084
			C161.723,31.692,165.117,30.725,165.407,27.682 M61.017,92.163c3.428,0,8.96-3.504,9.246-5.376
			c-2.855-3.67-7.226-9.021-10.734-9.271c-1.712,3.344-1.168,8.216-1.125,12.747C58.665,91.631,59.681,92.163,61.017,92.163
			 M29.319,162.346c10.119-5.154,13.02-6.406,19.352-14.125c-2.27-4.295-5.744-6.797-8.082-10.979
			c-0.55-0.286-1.169-0.44-1.865-0.44c-2.112,0-4.923,1.419-8.624,4.846c-5.457,5.485-8.175,6.271-7.73,12.489
			C22.65,158.044,26.992,160.546,29.319,162.346 M165.406,21.682c-0.703,0-1.411,0.124-2.094,0.377
			c-1.662,0.619-2.938,1.928-3.535,3.545c-0.303,0.049-0.704,0.088-1.207,0.088c-0.949,0-1.745-0.144-2.105-0.242
			c-0.936-0.556-1.996-0.842-3.066-0.842c-0.699,0-1.402,0.122-2.078,0.372c-1.918,0.708-3.344,2.345-3.781,4.342
			c-0.076,0.346-0.264,1.201-0.455,1.801c-0.449-0.027-1.15-0.129-2.195-0.415c-0.522-0.143-1.055-0.212-1.582-0.212
			c-1.516,0-2.996,0.574-4.125,1.643c-1.522,1.441-2.183,3.572-1.74,5.621c0.015,0.07-0.025,0.175-0.121,0.31
			c-0.207,0.298-0.527,0.5-0.721,0.572c-0.556-0.163-1.125-0.244-1.692-0.244c-0.986,0-1.968,0.243-2.854,0.722
			c-1.479,0.8-2.556,2.184-2.966,3.815c-0.455,1.812-0.826,2.595-1.021,2.914c-0.121-0.004-0.299-0.02-0.541-0.063
			c-0.351-0.062-0.7-0.092-1.051-0.092c-1.272,0-2.522,0.405-3.562,1.172c-1.324,0.977-2.188,2.455-2.392,4.088
			c-0.069,0.558-0.188,0.877-0.254,1.007c-0.106,0.035-0.338,0.083-0.703,0.083c-0.17,0-0.351-0.01-0.537-0.031
			c-0.217-0.023-0.435-0.035-0.649-0.035c-1.532,0-3.017,0.587-4.138,1.655c-1.244,1.185-1.92,2.845-1.858,4.557
			c-0.096,0.606-0.68,1.617-1.18,2.111c-0.528-0.147-1.068-0.219-1.606-0.219c-1.447,0-2.875,0.524-3.994,1.522
			c-1.541,1.374-2.254,3.43-1.93,5.436c-0.117,0.229-0.363,0.555-0.593,0.555l-0.062-0.002c-0.154-0.012-0.311-0.018-0.465-0.018
			c-1.438,0-2.835,0.518-3.93,1.466c-1.155,1.001-1.882,2.403-2.038,3.918c-0.205,0.043-0.475,0.092-0.827,0.14
			c-0.563,0.077-1.103,0.232-1.606,0.454c-1.967-8.469-7.74-14.688-12.326-19.628c-1.113-1.199-2.166-2.333-3.078-3.404
			c-0.978-1.147-2.351-1.885-3.847-2.066c-0.675-0.082-1.372-0.123-2.073-0.123c-4.11,0-8.226,1.386-11.01,3.708
			c-1.636,1.365-2.426,3.495-2.075,5.597c0.513,3.068,1.713,5.67,3.142,7.986c-0.485-0.058-0.982-0.089-1.493-0.089
			c-0.001,0-0.001,0-0.002,0c-2.852,0-5.588,0.997-8.134,2.962c-0.066,0.052-0.132,0.105-0.197,0.159
			c-1.842,1.551-3.249,3.267-4.297,5.241c-2.285,4.021-2.387,8.743-2.478,12.914c-0.03,1.376-0.059,2.7-0.161,3.888
			c-1.809,1.998-3.859,4.173-6.005,6.452c-5.483,5.819-11.153,11.836-14.345,16.545c-1.164,1.718-1.333,3.863-0.564,5.691
			c-0.25,0.67-0.487,1.49-0.587,2.445c-0.092,0.876,0.01,1.756,0.293,2.58c-0.028,0.154-0.05,0.312-0.066,0.468
			c-0.617,0.929-1.785,2.356-2.77,3.563c-2.068,2.531-4.642,5.681-7.241,9.871c-0.185,0.299-0.343,0.61-0.473,0.937
			c-0.29,0.728-0.794,1.592-1.328,2.508c-2.025,3.478-5.415,9.298-0.949,16.525c0.121,0.196,0.253,0.385,0.396,0.563
			c0.867,1.1,1.719,2.332,2.543,3.523c3.245,4.693,7.283,10.533,14.734,10.533c0.592,0,1.198-0.039,1.801-0.118
			c6.099-0.802,10.985-3.955,15.711-7.007c3.743-2.416,7.279-4.696,11.067-5.56c5.513-1.258,8.519-3.257,11.999-5.571
			c0.901-0.601,1.833-1.221,2.888-1.879c11.455-7.162,22.895-15.824,27.282-19.216c0.086-0.065,0.171-0.136,0.252-0.206
			c0.552-0.477,1.244-1.045,1.978-1.646c5.369-4.408,12.722-10.444,13.365-18.129c0.119-1.416-0.002-2.805-0.354-4.139
			c0.858-1.48,1.358-1.48,1.534-1.48c0.234,0,0.652,0.04,1.316,0.23c0.545,0.156,1.104,0.233,1.659,0.233
			c1.026,0,2.045-0.265,2.954-0.776c1.402-0.795,2.428-2.117,2.844-3.675c0.338-1.268,0.651-1.753,0.75-1.882
			c0.141-0.05,0.604-0.171,1.78-0.184c2.812-0.031,5.224-2.009,5.806-4.76c0.229-1.091,0.731-1.758,1.022-2.018
			c0.625,0.21,1.271,0.312,1.909,0.312c1.672,0,3.308-0.698,4.468-1.991c1.177-1.311,1.696-3.04,1.495-4.723
			c0.312-0.3,0.887-0.674,1.792-0.674c0.457,0,0.962,0.095,1.502,0.283c0.644,0.223,1.31,0.332,1.968,0.332
			c1.488,0,2.95-0.554,4.078-1.598c1.626-1.506,2.29-3.787,1.725-5.931c-0.004-0.028-0.002-0.078,0.004-0.133
			c0.073-0.007,0.166-0.012,0.278-0.012c0.321,0,0.873,0.043,1.687,0.249c0.484,0.122,0.979,0.183,1.471,0.183
			c1.109,0,2.209-0.308,3.168-0.905c1.384-0.86,2.357-2.247,2.699-3.84c0.592-2.768,1.324-3.368,1.336-3.375l0,0
			c0.001,0,0.137-0.056,0.501-0.056c0.293,0,0.803,0.038,1.565,0.219c0.459,0.109,0.926,0.163,1.389,0.163
			c1.352,0,2.679-0.457,3.754-1.319c1.443-1.159,2.271-2.918,2.244-4.77c-0.018-1.234,0.185-1.854,0.294-2.097
			c0.128,0.001,0.444,0.029,0.876,0.224c0.789,0.357,1.633,0.534,2.475,0.534c1.065,0,2.127-0.284,3.069-0.844
			c1.687-1.004,2.774-2.769,2.915-4.726c0.062-0.848,0.091-1.744,0.119-2.609c0.052-1.555,0.171-5.126,0.795-6.146
			c1.701-0.633,3.027-2.005,3.602-3.733c0.588-1.771,0.319-3.716-0.729-5.26c-0.244-0.36-0.317-1.5,0.617-2.503
			c1.375-1.472,1.918-3.536,1.447-5.494c-0.47-1.958-1.891-3.55-3.783-4.238c-1.09-0.396-1.596-0.651-1.816-0.783
			c-0.064-0.253-0.172-0.826-0.217-1.979c-0.082-2.151-1.256-4.128-3.164-5.125c-0.887-0.463-1.846-0.697-2.801-0.697
			c-1.09,0-2.174,0.304-3.139,0.916c-0.539,0.306-2.15,1.042-3.636,1.042c-0.976,0-1.45-0.327-1.819-0.679
			C168.417,22.258,166.925,21.682,165.406,21.682L165.406,21.682z M34.262,145.971c1.425-1.312,2.493-2.086,3.236-2.541
			c0.833,1.103,1.678,2.088,2.469,3.01c0.393,0.459,0.771,0.899,1.13,1.334c-3.105,3.248-5.636,4.701-11.169,7.528
			c-0.736-0.599-1.414-1.229-1.577-1.649c-0.143-2-0.117-2.024,2.794-4.713C32.056,148.1,33.084,147.148,34.262,145.971
			L34.262,145.971z"/>
	</g>
</g>
</svg>
