<?xml version="1.0" encoding="utf-8"?>
<!-- Generator: Adobe Illustrator 15.0.0, SVG Export Plug-In . SVG Version: 6.00 Build 0)  -->
<!DOCTYPE svg PUBLIC "-//W3C//DTD SVG 1.1//EN" "http://www.w3.org/Graphics/SVG/1.1/DTD/svg11.dtd">
<svg version="1.1" xmlns="http://www.w3.org/2000/svg" xmlns:xlink="http://www.w3.org/1999/xlink" x="0px" y="0px" width="200px"
	 height="200px" viewBox="0 0 200 200" enable-background="new 0 0 200 200" xml:space="preserve">
<g id="icon">
	<g id="Layer_2">
	</g>
	<g id="Layer_1_1_">
		<g>
			
				<linearGradient id="SVGID_1_" gradientUnits="userSpaceOnUse" x1="133.8057" y1="-31.9976" x2="137.2637" y2="-33.8601" gradientTransform="matrix(1 0 0 -1 -50 61)">
				<stop  offset="0" style="stop-color:#9C6835"/>
				<stop  offset="1" style="stop-color:#7A4621"/>
			</linearGradient>
			<path fill="url(#SVGID_1_)" d="M178.958,134.551c0.172,0.617-2.065,2.502-2.347,3.002c-0.293,0.527-0.799,0.928-1.442,1.072
				L51.948,170.646c-1.255,0.283-2.56-0.515-2.912-1.775L20.802,62.637c-0.154-0.558-0.098-1.115,0.121-1.587
				c0.277-0.599,2.299-2.782,3.001-2.941l121.887-26.521c1.256-0.283,2.562,0.514,2.912,1.777L178.958,134.551z"/>
			
				<linearGradient id="SVGID_2_" gradientUnits="userSpaceOnUse" x1="142.8428" y1="19.8486" x2="175.0582" y2="-195.8806" gradientTransform="matrix(1 0 0 -1 -50 61)">
				<stop  offset="0" style="stop-color:#F7BD79"/>
				<stop  offset="1" style="stop-color:#9F4C00"/>
			</linearGradient>
			<path fill="url(#SVGID_2_)" d="M179.195,133.66c0.353,1.266-0.383,2.521-1.637,2.805L54.337,168.486
				c-1.256,0.283-2.561-0.514-2.91-1.775L23.191,60.477c-0.35-1.266,0.383-2.521,1.639-2.807L148.2,29.428
				c1.256-0.284,2.562,0.514,2.911,1.776L179.195,133.66z"/>
			
				<radialGradient id="SVGID_3_" cx="-276.0791" cy="-920.938" r="86.9408" gradientTransform="matrix(0.9749 -0.2204 -0.2726 -0.9818 119.3687 -866.0662)" gradientUnits="userSpaceOnUse">
				<stop  offset="0" style="stop-color:#FFFFFF"/>
				<stop  offset="0.8764" style="stop-color:#037F00"/>
			</radialGradient>
			<path fill="url(#SVGID_3_)" d="M164.723,126.189c0.274,0.998-0.345,1.996-1.384,2.229L62.671,155.34
				c-1.039,0.236-2.105-0.383-2.383-1.375L37.667,67.95c-0.277-1,0.34-1.996,1.383-2.231l100.816-23.144
				c1.038-0.236,2.104,0.381,2.381,1.379L164.723,126.189z"/>
			
				<linearGradient id="SVGID_4_" gradientUnits="userSpaceOnUse" x1="149.6807" y1="4.7788" x2="153.6977" y2="-103.6841" gradientTransform="matrix(1 0 0 -1 -50 61)">
				<stop  offset="0" style="stop-color:#3A8400"/>
				<stop  offset="1" style="stop-color:#032D00"/>
			</linearGradient>
			<path fill="url(#SVGID_4_)" d="M164.048,125.938c0.271,0.986-0.338,1.976-1.368,2.209l-99.57,26.672
				c-1.029,0.229-2.086-0.381-2.359-1.365l-22.41-85.255c-0.274-0.985,0.338-1.975,1.369-2.209l99.714-22.892
				c1.031-0.231,2.088,0.379,2.361,1.364L164.048,125.938z"/>
			
				<linearGradient id="SVGID_5_" gradientUnits="userSpaceOnUse" x1="-266.9189" y1="-938.9316" x2="-266.9189" y2="-890.0409" gradientTransform="matrix(0.9749 -0.2167 -0.2726 -0.9653 119.3687 -813.8037)">
				<stop  offset="0" style="stop-color:#FFFFFF"/>
				<stop  offset="1" style="stop-color:#000000"/>
			</linearGradient>
			<path opacity="0.63" fill="url(#SVGID_5_)" enable-background="new    " d="M165.105,128.629c0.104,0.369-0.117,0.736-0.489,0.82
				l-103.1,27.471c-0.375,0.084-0.76-0.145-0.863-0.516l0,0c-0.102-0.367,0.119-0.736,0.496-0.82l103.094-27.469
				C164.618,128.029,165.005,128.258,165.105,128.629L165.105,128.629z"/>
			
				<linearGradient id="SVGID_6_" gradientUnits="userSpaceOnUse" x1="-394.0132" y1="-885.5752" x2="-265.4213" y2="-885.5752" gradientTransform="matrix(0.9749 -0.2167 -0.2726 -0.9653 119.3687 -813.8037)">
				<stop  offset="0" style="stop-color:#FFFFFF"/>
				<stop  offset="1" style="stop-color:#000000"/>
			</linearGradient>
			<path opacity="0.63" fill="url(#SVGID_6_)" enable-background="new    " d="M59.753,153.158c0.043,0.162-0.047,0.316-0.205,0.352
				l0,0c-0.158,0.037-0.32-0.062-0.363-0.221L36.727,67.864c-0.043-0.156,0.046-0.314,0.206-0.35l0,0
				c0.156-0.037,0.318,0.065,0.361,0.222L59.753,153.158z"/>
			
				<linearGradient id="SVGID_7_" gradientUnits="userSpaceOnUse" x1="-1441.7051" y1="341.4492" x2="-1142.0107" y2="341.4492" gradientTransform="matrix(-0.2726 -0.9653 -0.9749 0.2167 102.3676 -1148.3606)">
				<stop  offset="0" style="stop-color:#FFFFFF"/>
				<stop  offset="1" style="stop-color:#000000"/>
			</linearGradient>
			<path opacity="0.63" fill="url(#SVGID_7_)" enable-background="new    " d="M177.632,135.764
				c0.279-0.062,0.543,0.014,0.586,0.172l0,0c0.044,0.158-0.149,0.338-0.428,0.4L54.065,168.471
				c-0.279,0.066-0.543-0.012-0.586-0.17l0,0c-0.045-0.16,0.146-0.338,0.428-0.402L177.632,135.764z"/>
			
				<linearGradient id="SVGID_8_" gradientUnits="userSpaceOnUse" x1="-265.3936" y1="-834.7637" x2="-265.3936" y2="-884.3041" gradientTransform="matrix(0.9749 -0.2167 -0.2726 -0.9653 119.3687 -813.8037)">
				<stop  offset="0" style="stop-color:#FFFFFF"/>
				<stop  offset="1" style="stop-color:#000000"/>
			</linearGradient>
			<path opacity="0.63" fill="url(#SVGID_8_)" enable-background="new    " d="M148.671,30.157c0.279-0.061,0.541,0.017,0.586,0.174
				l0,0c0.045,0.158-0.147,0.337-0.426,0.402L24.958,59.086c-0.282,0.062-0.542-0.012-0.587-0.171l0,0
				c-0.043-0.157,0.146-0.337,0.428-0.398L148.671,30.157z"/>
			
				<linearGradient id="SVGID_9_" gradientUnits="userSpaceOnUse" x1="-1210.8984" y1="340.2168" x2="-1138.5387" y2="340.2168" gradientTransform="matrix(-0.2726 -0.9653 -0.9749 0.2167 102.3676 -1148.3606)">
				<stop  offset="0" style="stop-color:#FFFFFF"/>
				<stop  offset="0.7528" style="stop-color:#000000"/>
			</linearGradient>
			<path opacity="0.63" fill="url(#SVGID_9_)" enable-background="new    " d="M140.001,42.505c0.231-0.052,0.453,0.019,0.49,0.155
				l0,0c0.038,0.142-0.119,0.293-0.353,0.347L39.031,66.215c-0.232,0.053-0.447-0.014-0.486-0.155l0,0
				c-0.038-0.138,0.116-0.293,0.348-0.347L140.001,42.505z"/>
			
				<linearGradient id="SVGID_10_" gradientUnits="userSpaceOnUse" x1="-255.4883" y1="-882.9849" x2="-178.7456" y2="-882.9849" gradientTransform="matrix(0.9749 -0.2167 -0.2726 -0.9653 119.3687 -813.8037)">
				<stop  offset="0" style="stop-color:#FFFFFF"/>
				<stop  offset="1" style="stop-color:#000000"/>
			</linearGradient>
			<path opacity="0.63" fill="url(#SVGID_10_)" enable-background="new    " d="M165.157,125.17c0.043,0.156-0.052,0.312-0.207,0.35
				l0,0c-0.16,0.033-0.32-0.063-0.365-0.225l-22.308-81.643c-0.045-0.157,0.048-0.314,0.203-0.352l0,0
				c0.158-0.035,0.322,0.064,0.367,0.224L165.157,125.17z"/>
			
				<linearGradient id="SVGID_11_" gradientUnits="userSpaceOnUse" x1="-209.855" y1="-829.7256" x2="-195.6221" y2="-848.5391" gradientTransform="matrix(0.9749 -0.2167 -0.2726 -0.9653 119.3687 -813.8037)">
				<stop  offset="0" style="stop-color:#FFFFFF"/>
				<stop  offset="1" style="stop-color:#000000"/>
			</linearGradient>
			<path opacity="0.63" fill="url(#SVGID_11_)" enable-background="new    " d="M150.146,29.99c0.069,0.046-1.027,1.63-1.086,1.718
				l-7.259,10.985c-0.057,0.085-0.202,0.313-0.27,0.266l0.043-0.198c-0.07-0.049-0.078-0.152-0.021-0.24l7.649-11.38
				C149.262,31.055,150.077,29.942,150.146,29.99L150.146,29.99z"/>
			
				<linearGradient id="SVGID_12_" gradientUnits="userSpaceOnUse" x1="23.4307" y1="-831.0732" x2="37.5664" y2="-849.7583" gradientTransform="matrix(-0.9749 0.2167 -0.2726 -0.9653 -170.9668 -749.827)">
				<stop  offset="0" style="stop-color:#FFFFFF"/>
				<stop  offset="1" style="stop-color:#000000"/>
			</linearGradient>
			<path opacity="0.63" fill="url(#SVGID_12_)" enable-background="new    " d="M23.325,59.013c-0.034,0.07,1.763,1.001,1.855,1.052
				l12.14,6.599c0.096,0.052,0.344,0.191,0.379,0.119l-0.143-0.155c0.035-0.071-0.012-0.17-0.107-0.221l-12.691-6.78
				C24.664,59.577,23.363,58.941,23.325,59.013L23.325,59.013z"/>
			
				<linearGradient id="SVGID_13_" gradientUnits="userSpaceOnUse" x1="1000.5098" y1="271.6553" x2="1012.6697" y2="255.5819" gradientTransform="matrix(0.1861 0.9805 -0.995 0.1313 136.0564 -857.5927)">
				<stop  offset="0" style="stop-color:#FFFFFF"/>
				<stop  offset="1" style="stop-color:#000000"/>
			</linearGradient>
			<path opacity="0.63" fill="url(#SVGID_13_)" enable-background="new    " d="M52.481,168.176
				c0.072,0.047,1.068-1.604,1.123-1.691l7.061-11.118c0.053-0.087,0.201-0.312,0.133-0.357l-0.16,0.117
				c-0.072-0.047-0.172-0.012-0.227,0.076l-7.262,11.641C53.095,166.932,52.411,168.131,52.481,168.176L52.481,168.176z"/>
			
				<linearGradient id="SVGID_14_" gradientUnits="userSpaceOnUse" x1="957.5664" y1="-163.0703" x2="969.5638" y2="-178.9289" gradientTransform="matrix(0.357 0.9424 0.9471 -0.3006 -12.8015 -824.1729)">
				<stop  offset="0" style="stop-color:#FFFFFF"/>
				<stop  offset="1" style="stop-color:#000000"/>
			</linearGradient>
			<path opacity="0.63" fill="url(#SVGID_14_)" enable-background="new    " d="M178.958,135.42
				c-0.037,0.068-1.781-0.963-1.877-1.016l-12.033-6.801c-0.09-0.054-0.342-0.188-0.305-0.259l0.205,0.037
				c0.04-0.069,0.145-0.084,0.237-0.028l12.484,7.176C177.766,134.582,178.995,135.352,178.958,135.42L178.958,135.42z"/>
			<circle fill="none" stroke="#FFFFFF" stroke-width="4" stroke-miterlimit="10" cx="124.055" cy="69.588" r="10.581"/>
			<g>
				
					<path fill="none" stroke="#FFFFFF" stroke-width="4" stroke-linecap="round" stroke-linejoin="round" stroke-miterlimit="10" d="
					M80.103,124.301c0,0,34.5,15.5,45.254-26.682"/>
				
					<polygon fill="none" stroke="#FFFFFF" stroke-width="4" stroke-linecap="round" stroke-linejoin="round" stroke-miterlimit="10" points="
					119.104,100.037 126.715,91.377 129.604,102.739 				"/>
			</g>
			<g>
				
					<line fill="none" stroke="#FFFFFF" stroke-width="4" stroke-linecap="round" stroke-miterlimit="10" x1="78.021" y1="86.103" x2="97.691" y2="96.652"/>
				
					<line fill="none" stroke="#FFFFFF" stroke-width="4" stroke-linecap="round" stroke-miterlimit="10" x1="93.132" y1="81.542" x2="82.582" y2="101.211"/>
			</g>
		</g>
	</g>
</g>
<g id="outline_x5F_white">
	<g>
		<g>
			<path fill="#FFFFFF" d="M148.715,29.371c1.08,0,2.094,0.744,2.396,1.834l28.084,102.456c0.347,1.241-0.36,2.471-1.575,2.784
				c-0.463,0.478-0.896,0.906-1.009,1.107c-0.293,0.527-0.799,0.928-1.442,1.072L51.948,170.646
				c-0.171,0.039-0.344,0.058-0.514,0.058c-1.08,0-2.094-0.743-2.398-1.833L20.802,62.637c-0.154-0.558-0.098-1.115,0.121-1.587
				c0.277-0.599,2.299-2.782,3.001-2.941l0.009-0.001c0.254-0.205,0.553-0.36,0.896-0.438L148.2,29.428
				C148.372,29.389,148.544,29.371,148.715,29.371 M148.715,17.371c-1.062,0-2.127,0.119-3.164,0.354L22.178,45.967
				c-1.524,0.345-2.995,0.95-4.33,1.775c-4.367,2.439-7.191,6.922-7.812,8.263c-1.408,3.036-1.7,6.496-0.821,9.747l28.226,106.2
				c0.012,0.047,0.025,0.093,0.038,0.139c1.741,6.248,7.48,10.611,13.958,10.611c1.061,0,2.122-0.118,3.155-0.351
				c0.126-0.029,0.252-0.061,0.377-0.093l123.111-31.993c2.832-0.695,5.361-2.242,7.263-4.396c1.634-1.164,3.011-2.677,4.042-4.466
				c1.926-3.338,2.413-7.231,1.374-10.963L162.686,28.032C160.934,21.736,155.191,17.371,148.715,17.371L148.715,17.371z"/>
		</g>
	</g>
</g>
<g id="outline_x5F_black">
	<g>
		<path d="M148.715,29.371c1.08,0,2.094,0.744,2.396,1.834l28.084,102.456c0.347,1.241-0.36,2.471-1.575,2.784
			c-0.463,0.478-0.896,0.906-1.009,1.107c-0.293,0.527-0.799,0.928-1.442,1.072L51.948,170.646
			c-0.171,0.039-0.344,0.058-0.514,0.058c-1.08,0-2.094-0.743-2.398-1.833L20.802,62.637c-0.154-0.558-0.098-1.115,0.121-1.587
			c0.277-0.599,2.299-2.782,3.001-2.941l0.009-0.001c0.254-0.205,0.553-0.36,0.896-0.438L148.2,29.428
			C148.372,29.389,148.544,29.371,148.715,29.371 M148.715,23.371c-0.617,0-1.236,0.069-1.839,0.206L23.491,51.822
			c-0.935,0.21-1.823,0.585-2.636,1.115c-2.755,1.505-4.951,4.676-5.375,5.591c-0.818,1.764-0.985,3.777-0.47,5.672l28.229,106.212
			c0.006,0.023,0.013,0.046,0.019,0.068c1.021,3.664,4.383,6.224,8.178,6.224c0.616,0,1.233-0.069,1.834-0.205
			c0.063-0.015,0.126-0.029,0.188-0.046l123.153-32.004c1.883-0.453,3.535-1.557,4.674-3.092c1.191-0.709,2.188-1.715,2.9-2.948
			c1.113-1.933,1.396-4.19,0.791-6.357L156.898,29.619C155.872,25.93,152.51,23.371,148.715,23.371L148.715,23.371z"/>
	</g>
</g>
</svg>
