<?xml version="1.0" encoding="utf-8"?>
<!-- Generator: Adobe Illustrator 15.0.0, SVG Export Plug-In . SVG Version: 6.00 Build 0)  -->
<!DOCTYPE svg PUBLIC "-//W3C//DTD SVG 1.1//EN" "http://www.w3.org/Graphics/SVG/1.1/DTD/svg11.dtd">
<svg version="1.1" xmlns="http://www.w3.org/2000/svg" xmlns:xlink="http://www.w3.org/1999/xlink" x="0px" y="0px" width="200px"
	 height="200px" viewBox="0 0 200 200" enable-background="new 0 0 200 200" xml:space="preserve">
<g id="icon">
	<g id="Layer_2">
	</g>
	<g id="Layer_1_1_">
		<g>
			<g>
				
					<radialGradient id="SVGID_1_" cx="146.4277" cy="702.9795" r="9.5278" fx="144.5337" fy="696.8246" gradientTransform="matrix(1 0 0 1 -100 -591)" gradientUnits="userSpaceOnUse">
					<stop  offset="0" style="stop-color:#4A4A4A"/>
					<stop  offset="1" style="stop-color:#000000"/>
				</radialGradient>
				<path fill="url(#SVGID_1_)" d="M42.287,91.977c3.443-1.853,8.898,2.518,12.838,10.65c4.332,9.027,4.178,18.586,0.924,22.195
					c-3.25,3.609-8.45,4.732-8.45,4.732c-4.335-9.025-16.75-30.772-13.481-34.385C34.445,94.815,41.905,92.181,42.287,91.977z"/>
				
					<linearGradient id="SVGID_2_" gradientUnits="userSpaceOnUse" x1="150.1992" y1="698.9199" x2="139.8347" y2="703.9787" gradientTransform="matrix(1 0 0 1 -100 -591)">
					<stop  offset="0" style="stop-color:#474747"/>
					<stop  offset="1" style="stop-color:#000000"/>
				</linearGradient>
				<path fill="url(#SVGID_2_)" d="M47.152,105.775c4.352,9.029,5.217,19.272,1.978,22.885c-3.23,3.611-9.354-0.78-13.733-9.805
					c-4.417-9.03-5.404-19.275-2.149-22.887C36.511,92.357,42.759,96.75,47.152,105.775z"/>
				
					<radialGradient id="SVGID_3_" cx="-138.1826" cy="1301.0498" r="12.0876" gradientTransform="matrix(0.6134 -0.7745 0.4571 0.9808 -474.6135 -1257.7579)" gradientUnits="userSpaceOnUse">
					<stop  offset="0.0545" style="stop-color:#A7A7A7"/>
					<stop  offset="1" style="stop-color:#000000"/>
				</radialGradient>
				<path fill="url(#SVGID_3_)" d="M44.306,108.688c2.635,5.441,3.351,11.506,1.623,13.537c-1.728,2.039-5.253-0.725-7.89-6.17
					c-2.656-5.438-3.42-11.503-1.685-13.539C38.09,100.479,41.661,103.244,44.306,108.688z"/>
				
					<linearGradient id="SVGID_4_" gradientUnits="userSpaceOnUse" x1="-149.8228" y1="1291.7666" x2="-141.2661" y2="1291.7666" gradientTransform="matrix(0.6306 -0.786 0.4571 0.9808 -457.1801 -1269.2253)">
					<stop  offset="0.0242" style="stop-color:#283830"/>
					<stop  offset="0.3744" style="stop-color:#2A3B32"/>
					<stop  offset="0.6222" style="stop-color:#31443A"/>
					<stop  offset="0.8377" style="stop-color:#3C5447"/>
					<stop  offset="1" style="stop-color:#486556"/>
				</linearGradient>
				<path fill="url(#SVGID_4_)" d="M44.279,108.943c2.261,4.672,2.845,9.895,1.319,11.666c-1.525,1.771-4.585-0.576-6.849-5.244
					c-2.275-4.666-2.891-9.889-1.365-11.66C38.918,101.93,42.007,104.279,44.279,108.943z"/>
				
					<linearGradient id="SVGID_5_" gradientUnits="userSpaceOnUse" x1="-446.7827" y1="516.0234" x2="-443.606" y2="516.0234" gradientTransform="matrix(1.3304 -0.6962 0.719 1.9858 262.9834 -1222.4868)">
					<stop  offset="0.0242" style="stop-color:#283830"/>
					<stop  offset="0.3744" style="stop-color:#2A3B32"/>
					<stop  offset="0.6222" style="stop-color:#31443A"/>
					<stop  offset="0.8377" style="stop-color:#3C5447"/>
					<stop  offset="1" style="stop-color:#486556"/>
				</linearGradient>
				<path fill="url(#SVGID_5_)" d="M43.851,111.127c1.024,2.713,0.899,5.393-0.271,5.979c-1.181,0.578-2.967-1.16-3.993-3.877
					c-1.03-2.723-0.913-5.396,0.269-5.982C41.034,106.666,42.825,108.402,43.851,111.127z"/>
				
					<linearGradient id="SVGID_6_" gradientUnits="userSpaceOnUse" x1="-418.9336" y1="517.2949" x2="-416.438" y2="517.2949" gradientTransform="matrix(1.1775 -0.6282 0.7343 1.979 153.3135 -1173.849)">
					<stop  offset="0.0242" style="stop-color:#283830"/>
					<stop  offset="0.3744" style="stop-color:#2A3B32"/>
					<stop  offset="0.6222" style="stop-color:#31443A"/>
					<stop  offset="0.8377" style="stop-color:#3C5447"/>
					<stop  offset="1" style="stop-color:#486556"/>
				</linearGradient>
				<path fill="url(#SVGID_6_)" d="M42.824,111.529c0.819,2.131,0.815,4.188-0.002,4.602c-0.821,0.408-2.149-0.988-2.966-3.117
					c-0.825-2.135-0.829-4.195-0.007-4.605C40.669,108,42,109.395,42.824,111.529z"/>
				
					<radialGradient id="SVGID_7_" cx="-371.2075" cy="519.8711" r="4.097" gradientTransform="matrix(0.9796 -0.5402 0.7542 1.9702 12.6665 -1111.2231)" gradientUnits="userSpaceOnUse">
					<stop  offset="0" style="stop-color:#AEAEAE"/>
					<stop  offset="0" style="stop-color:#787878"/>
					<stop  offset="1" style="stop-color:#000000"/>
				</radialGradient>
				<path fill="url(#SVGID_7_)" d="M41.857,112.002c0.354,0.898,0.406,1.742,0.121,1.893c-0.29,0.148-0.812-0.463-1.167-1.356
					c-0.355-0.897-0.409-1.745-0.119-1.896C40.983,110.492,41.51,111.102,41.857,112.002z"/>
			</g>
			<g>
				
					<radialGradient id="SVGID_8_" cx="203.2734" cy="752.8525" r="9.5273" fx="201.3796" fy="746.6979" gradientTransform="matrix(1 0 0 1 -100 -591)" gradientUnits="userSpaceOnUse">
					<stop  offset="0" style="stop-color:#4A4A4A"/>
					<stop  offset="1" style="stop-color:#000000"/>
				</radialGradient>
				<path fill="url(#SVGID_8_)" d="M99.133,141.85c3.443-1.854,8.898,2.519,12.838,10.65c4.334,9.027,4.178,18.586,0.926,22.195
					s-8.448,4.73-8.448,4.73c-4.336-9.023-16.752-30.771-13.482-34.383C91.29,144.688,98.751,142.053,99.133,141.85z"/>
				
					<linearGradient id="SVGID_9_" gradientUnits="userSpaceOnUse" x1="207.0459" y1="748.7939" x2="196.6827" y2="753.8522" gradientTransform="matrix(1 0 0 1 -100 -591)">
					<stop  offset="0" style="stop-color:#474747"/>
					<stop  offset="1" style="stop-color:#000000"/>
				</linearGradient>
				<path fill="url(#SVGID_9_)" d="M103.998,155.648c4.354,9.027,5.218,19.271,1.979,22.885c-3.229,3.611-9.354-0.781-13.732-9.807
					c-4.416-9.029-5.403-19.273-2.149-22.886C93.357,142.23,99.605,146.623,103.998,155.648z"/>
				
					<radialGradient id="SVGID_10_" cx="-103.6963" cy="1379.1357" r="12.0896" gradientTransform="matrix(0.6134 -0.7745 0.4571 0.9808 -474.6135 -1257.7579)" gradientUnits="userSpaceOnUse">
					<stop  offset="0.0545" style="stop-color:#A7A7A7"/>
					<stop  offset="1" style="stop-color:#000000"/>
				</radialGradient>
				<path fill="url(#SVGID_10_)" d="M101.152,158.561c2.635,5.441,3.351,11.504,1.623,13.537c-1.729,2.039-5.254-0.725-7.893-6.17
					c-2.655-5.438-3.42-11.504-1.685-13.539C94.934,150.352,98.507,153.116,101.152,158.561z"/>
				
					<linearGradient id="SVGID_11_" gradientUnits="userSpaceOnUse" x1="-116.1157" y1="1369.6279" x2="-107.5596" y2="1369.6279" gradientTransform="matrix(0.6306 -0.786 0.4571 0.9808 -457.1801 -1269.2253)">
					<stop  offset="0.0242" style="stop-color:#283830"/>
					<stop  offset="0.3744" style="stop-color:#2A3B32"/>
					<stop  offset="0.6222" style="stop-color:#31443A"/>
					<stop  offset="0.8377" style="stop-color:#3C5447"/>
					<stop  offset="1" style="stop-color:#486556"/>
				</linearGradient>
				<path fill="url(#SVGID_11_)" d="M101.125,158.816c2.262,4.672,2.846,9.895,1.318,11.666c-1.524,1.771-4.584-0.576-6.848-5.244
					c-2.275-4.668-2.892-9.889-1.365-11.66C95.764,151.803,98.854,154.152,101.125,158.816z"/>
				
					<linearGradient id="SVGID_12_" gradientUnits="userSpaceOnUse" x1="-422.2705" y1="549.7314" x2="-419.0942" y2="549.7314" gradientTransform="matrix(1.3304 -0.6962 0.719 1.9858 262.9834 -1222.4868)">
					<stop  offset="0.0242" style="stop-color:#283830"/>
					<stop  offset="0.3744" style="stop-color:#2A3B32"/>
					<stop  offset="0.6222" style="stop-color:#31443A"/>
					<stop  offset="0.8377" style="stop-color:#3C5447"/>
					<stop  offset="1" style="stop-color:#486556"/>
				</linearGradient>
				<path fill="url(#SVGID_12_)" d="M100.697,160.999c1.023,2.714,0.898,5.394-0.271,5.978c-1.18,0.58-2.967-1.158-3.991-3.875
					c-1.03-2.724-0.915-5.398,0.268-5.982C97.881,156.539,99.671,158.275,100.697,160.999z"/>
				
					<linearGradient id="SVGID_13_" gradientUnits="userSpaceOnUse" x1="-391.7539" y1="551.124" x2="-389.2573" y2="551.124" gradientTransform="matrix(1.1775 -0.6282 0.7343 1.979 153.3135 -1173.849)">
					<stop  offset="0.0242" style="stop-color:#283830"/>
					<stop  offset="0.3744" style="stop-color:#2A3B32"/>
					<stop  offset="0.6222" style="stop-color:#31443A"/>
					<stop  offset="0.8377" style="stop-color:#3C5447"/>
					<stop  offset="1" style="stop-color:#486556"/>
				</linearGradient>
				<path fill="url(#SVGID_13_)" d="M99.67,161.402c0.818,2.131,0.814,4.188-0.002,4.601c-0.822,0.409-2.149-0.987-2.967-3.116
					c-0.826-2.135-0.828-4.195-0.008-4.607C97.516,157.873,98.848,159.268,99.67,161.402z"/>
				
					<radialGradient id="SVGID_14_" cx="-339.3857" cy="553.9102" r="4.101" gradientTransform="matrix(0.9796 -0.5402 0.7542 1.9702 12.6665 -1111.2231)" gradientUnits="userSpaceOnUse">
					<stop  offset="0" style="stop-color:#AEAEAE"/>
					<stop  offset="0" style="stop-color:#787878"/>
					<stop  offset="1" style="stop-color:#000000"/>
				</radialGradient>
				<path fill="url(#SVGID_14_)" d="M98.703,161.874c0.355,0.899,0.405,1.742,0.121,1.894c-0.289,0.148-0.811-0.463-1.166-1.356
					c-0.355-0.899-0.408-1.746-0.119-1.896C97.829,160.365,98.355,160.975,98.703,161.874z"/>
			</g>
			<polygon points="48.438,103.324 107.406,159.443 138.939,139.201 75.678,94.045 			"/>
			
				<linearGradient id="SVGID_15_" gradientUnits="userSpaceOnUse" x1="135.4219" y1="783.2773" x2="129.9357" y2="788.6191" gradientTransform="matrix(1.039 -0.0625 0.0244 0.961 -85.4056 -614.8367)">
				<stop  offset="0" style="stop-color:#041717"/>
				<stop  offset="0.5879" style="stop-color:#283830"/>
				<stop  offset="0.7485" style="stop-color:#25352E"/>
				<stop  offset="0.8623" style="stop-color:#1C2D28"/>
				<stop  offset="0.9612" style="stop-color:#0C1F1D"/>
				<stop  offset="1" style="stop-color:#041717"/>
			</linearGradient>
			<path fill="url(#SVGID_15_)" d="M89.109,145.549c-2.73,3.039-7.062,3.501-9.693,1.037L57.914,124.99
				c-2.682-2.467-2.66-6.934,0.062-9.975l0,0c2.74-3.043,6.559-2.232,9.24,0.234l21.509,19.592
				C91.363,137.314,91.85,142.505,89.109,145.549L89.109,145.549z"/>
			<g>
				
					<linearGradient id="SVGID_16_" gradientUnits="userSpaceOnUse" x1="371.9043" y1="913.79" x2="358.5639" y2="904.2612" gradientTransform="matrix(0.9207 -0.0553 0.0244 0.961 -124.895 -611.7137)">
					<stop  offset="0.0242" style="stop-color:#283830"/>
					<stop  offset="0.4046" style="stop-color:#25352E"/>
					<stop  offset="0.6739" style="stop-color:#1C2D28"/>
					<stop  offset="0.9082" style="stop-color:#0C1F1D"/>
					<stop  offset="1" style="stop-color:#041717"/>
				</linearGradient>
				<path fill="url(#SVGID_16_)" d="M80.472,137.967c-2.216,2.469-2.632,5.859-1.312,8.379l0.256,0.24
					c2.632,2.464,6.963,2.002,9.693-1.037c2.223-2.471,2.092-6.587,0.785-9.104l-0.256-0.236
					C86.993,133.734,83.206,134.924,80.472,137.967z"/>
			</g>
			
				<linearGradient id="SVGID_17_" gradientUnits="userSpaceOnUse" x1="144.125" y1="784.46" x2="143.9306" y2="797.1151" gradientTransform="matrix(1.039 -0.0625 0.0244 0.961 -85.4056 -614.8367)">
				<stop  offset="0" style="stop-color:#476C58"/>
				<stop  offset="1" style="stop-color:#000000"/>
			</linearGradient>
			<path fill="url(#SVGID_17_)" d="M80.37,147.369l-0.252-0.238c-1.319-2.518-0.901-5.91,1.315-8.379
				c2.284-2.541,5.295-3.775,7.77-2.684l-0.047-0.043c-2.645-2.471-6.436-1.283-9.171,1.76c-2.216,2.468-2.63,5.859-1.307,8.378
				l0.253,0.237c0.451,0.418,0.949,0.744,1.477,0.996C80.396,147.386,80.385,147.375,80.37,147.369z"/>
			
				<linearGradient id="SVGID_18_" gradientUnits="userSpaceOnUse" x1="224.8604" y1="707.6084" x2="185.798" y2="659.0186" gradientTransform="matrix(1 0 0 1 -100 -591)">
				<stop  offset="0.0242" style="stop-color:#283830"/>
				<stop  offset="0.3744" style="stop-color:#2A3B32"/>
				<stop  offset="0.6222" style="stop-color:#31443A"/>
				<stop  offset="0.8377" style="stop-color:#3C5447"/>
				<stop  offset="1" style="stop-color:#486556"/>
			</linearGradient>
			<path fill="url(#SVGID_18_)" d="M82.414,95.359l-0.65,10.809l-2.912,22.969l2.873,7.387l56.48-27.494l3.289-45.304
				c0,0-6.451-5.469-11.951-3.641C111.432,66.107,75.417,85.7,75.417,85.7L82.414,95.359z"/>
			
				<linearGradient id="SVGID_19_" gradientUnits="userSpaceOnUse" x1="215.9912" y1="716.7939" x2="202.3655" y2="699.8448" gradientTransform="matrix(1 0 0 1 -100 -591)">
				<stop  offset="0.0242" style="stop-color:#283830"/>
				<stop  offset="0.4046" style="stop-color:#25352E"/>
				<stop  offset="0.6739" style="stop-color:#1C2D28"/>
				<stop  offset="0.9082" style="stop-color:#0C1F1D"/>
				<stop  offset="1" style="stop-color:#041717"/>
			</linearGradient>
			<polygon fill="url(#SVGID_19_)" points="81.857,128.588 81.725,136.523 138.205,109.029 138.246,100.124 			"/>
			
				<linearGradient id="SVGID_20_" gradientUnits="userSpaceOnUse" x1="165.252" y1="670.2207" x2="201.6896" y2="623.8069" gradientTransform="matrix(1 0 0 1 -100 -591)">
				<stop  offset="0" style="stop-color:#678365"/>
				<stop  offset="0.1455" style="stop-color:#90B388"/>
				<stop  offset="0.8303" style="stop-color:#90B388"/>
				<stop  offset="0.8607" style="stop-color:#8AAC83"/>
				<stop  offset="0.9048" style="stop-color:#7A9975"/>
				<stop  offset="0.957" style="stop-color:#5F795F"/>
				<stop  offset="1" style="stop-color:#445A48"/>
			</linearGradient>
			<path fill="url(#SVGID_20_)" d="M82.414,95.359c0,0,0.791-5.066,5.064-7.355c12.407-6.644,37.903-20.296,47.917-25.658
				c2.61-1.398,6.101,1.378,6.101,1.378L84.002,21.377c0,0-3.428-2.911-5.934-1.738c-9.776,4.57-34.898,16.313-46.335,21.66
				c-3.586,1.677-3.897,6.334-3.897,6.334L82.414,95.359z"/>
			
				<linearGradient id="SVGID_21_" gradientUnits="userSpaceOnUse" x1="174.2578" y1="621.3135" x2="155.5477" y2="680.4897" gradientTransform="matrix(1 0 0 1 -100 -591)">
				<stop  offset="0" style="stop-color:#90B388"/>
				<stop  offset="0.1959" style="stop-color:#8AAC84"/>
				<stop  offset="0.4798" style="stop-color:#789977"/>
				<stop  offset="0.8158" style="stop-color:#5B7963"/>
				<stop  offset="1" style="stop-color:#486556"/>
			</linearGradient>
			<polygon fill="url(#SVGID_21_)" points="82.414,95.359 81.725,136.523 31.129,87.71 27.903,47.099 			"/>
			
				<linearGradient id="SVGID_22_" gradientUnits="userSpaceOnUse" x1="154.4736" y1="701.2363" x2="158.0462" y2="696.9494" gradientTransform="matrix(1 0 0 1 -100 -591)">
				<stop  offset="0.0242" style="stop-color:#283830"/>
				<stop  offset="0.4046" style="stop-color:#25352E"/>
				<stop  offset="0.6739" style="stop-color:#1C2D28"/>
				<stop  offset="0.9082" style="stop-color:#0C1F1D"/>
				<stop  offset="1" style="stop-color:#041717"/>
			</linearGradient>
			<polygon fill="url(#SVGID_22_)" points="81.857,128.588 81.725,136.523 31.129,87.71 30.516,79.996 			"/>
			
				<linearGradient id="SVGID_23_" gradientUnits="userSpaceOnUse" x1="221.5879" y1="720.9697" x2="216.1182" y2="720.9697" gradientTransform="matrix(1 0 0 1 -100 -591)">
				<stop  offset="0.4121" style="stop-color:#2D4236"/>
				<stop  offset="1" style="stop-color:#001E19"/>
			</linearGradient>
			<path fill="url(#SVGID_23_)" d="M166.846,98.473c1.174,0.918,2.018,2.417,2.018,2.417c1.298,1.562,4.379,26.148,2.919,45.09
				c0,0-0.296,1.922-0.731,3.414c-0.146,1.028-0.8,1.787-1.68,2.385c0,0-9.909,7.836-17.463,13.062
				c-8.244,5.707-28.074,15.537-28.074,15.537c-2.335,1.052-4.67-1.228-7.592-4.146c-4.104-3.604-6.229-5.447-10.271-10.058
				c-0.543-0.616-1.271-0.312-1.893-1.039c-0.559-5.69-4.285-14.791-8.029-19.108c-6.521-6.631-7.351,0.375-7.351,0.375
				s-0.389-6.075,2.035-7.442c-1.06-12.701-0.184-24.67-0.184-24.67c0.293-7.595,1.16-10.429,2.723-11.418l44.684-23.17
				c1.619-0.994,3.603,0.029,5.392,1.215C143.346,80.916,160.953,93.861,166.846,98.473z"/>
			
				<linearGradient id="SVGID_24_" gradientUnits="userSpaceOnUse" x1="197.2402" y1="617.7803" x2="265.6875" y2="779.9481" gradientTransform="matrix(1 0 0 1 -100 -591)">
				<stop  offset="0" style="stop-color:#90CAAE"/>
				<stop  offset="1" style="stop-color:#000000"/>
			</linearGradient>
			<path fill="url(#SVGID_24_)" d="M125.365,126.479c21.826-9.795,33.568-18.123,39.311-22.979c2.771-2.305,4.186-3.185,1.572-5.639
				c-3.229-3.084-22.902-16.943-22.902-16.943c-1.789-1.186-3.771-2.209-5.391-1.215l-44.684,23.17
				c-0.822,0.521-1.443,2.098-1.814,3.984c0,0,17.143,15.057,21.594,18.969C117.264,128.885,119.259,129.188,125.365,126.479z"/>
			
				<linearGradient id="SVGID_25_" gradientUnits="userSpaceOnUse" x1="242.8213" y1="468.0137" x2="245.5738" y2="458.7553" gradientTransform="matrix(1 -0.0748 0 1 -100 -310.9659)">
				<stop  offset="0.3374" style="stop-color:#08DEFF"/>
				<stop  offset="0.4304" style="stop-color:#0ADEFF"/>
				<stop  offset="0.4639" style="stop-color:#11DEFE"/>
				<stop  offset="0.4878" style="stop-color:#1CDDFC"/>
				<stop  offset="0.5071" style="stop-color:#2DDDFA"/>
				<stop  offset="0.5237" style="stop-color:#43DCF6"/>
				<stop  offset="0.5383" style="stop-color:#5FDBF2"/>
				<stop  offset="0.5514" style="stop-color:#7EDAEE"/>
				<stop  offset="0.5632" style="stop-color:#A3D9E9"/>
				<stop  offset="0.5644" style="stop-color:#A7D9E8"/>
				<stop  offset="0.6418" style="stop-color:#A5D9E8"/>
				<stop  offset="0.6779" style="stop-color:#9DD9E9"/>
				<stop  offset="0.7054" style="stop-color:#91DAEB"/>
				<stop  offset="0.7286" style="stop-color:#7EDAEE"/>
				<stop  offset="0.749" style="stop-color:#67DBF1"/>
				<stop  offset="0.7675" style="stop-color:#49DCF6"/>
				<stop  offset="0.7842" style="stop-color:#27DDFA"/>
				<stop  offset="0.7914" style="stop-color:#16DEFD"/>
				<stop  offset="1" style="stop-color:#08AFCD"/>
			</linearGradient>
			<path fill="url(#SVGID_25_)" stroke="#2C7592" stroke-miterlimit="10" d="M168.713,104.922c0,0-0.29-0.271-0.807,0.121
				c0,0-2.826,5.285-20.033,15.193c-5.787,3.332-17.323,9.08-24.041,11.771c-0.619,0.25-1.021,0.732-1.021,1.391l0.244,15.528
				c-0.025,0.608,0.756,0.769,1.217,0.567c6.082-2.646,15.264-7.502,26.364-14.512c15.294-9.649,19.39-15.565,19.39-15.565
				s0.369-0.245,0.293-1.112C170.209,116.993,168.713,104.922,168.713,104.922z"/>
			
				<radialGradient id="SVGID_26_" cx="160.3604" cy="740.0459" r="68.753" gradientTransform="matrix(1 0 0 1 -100 -591)" gradientUnits="userSpaceOnUse">
				<stop  offset="0" style="stop-color:#D9FF8B"/>
				<stop  offset="1" style="stop-color:#D9FF8B;stop-opacity:0"/>
			</radialGradient>
			<path fill="url(#SVGID_26_)" d="M114.629,124.918c1.04,0.754,2.605,0.794,2.49,1.438c-0.178,0.938-1.674,0.918-3.033-0.151
				c-4.477-3.933-22.629-19.787-22.629-19.787s0.026-0.985,1.135-2.543c1.109-1.558,2.435-1.751,2.435-1.751
				s-3.237,1.924-1.691,3.868C94.668,107.665,110.732,121.574,114.629,124.918z"/>
			
				<linearGradient id="SVGID_27_" gradientUnits="userSpaceOnUse" x1="236.1504" y1="710.5889" x2="234.4829" y2="711.5417" gradientTransform="matrix(1 0 0 1 -100 -591)">
				<stop  offset="0" style="stop-color:#0888A4"/>
				<stop  offset="0.3374" style="stop-color:#08DEFF"/>
				<stop  offset="0.4304" style="stop-color:#0ADEFF"/>
				<stop  offset="0.4639" style="stop-color:#11DEFE"/>
				<stop  offset="0.4878" style="stop-color:#1CDDFC"/>
				<stop  offset="0.5071" style="stop-color:#2DDDFA"/>
				<stop  offset="0.5237" style="stop-color:#43DCF6"/>
				<stop  offset="0.5383" style="stop-color:#5FDBF2"/>
				<stop  offset="0.5514" style="stop-color:#7EDAEE"/>
				<stop  offset="0.5632" style="stop-color:#A3D9E9"/>
				<stop  offset="0.5644" style="stop-color:#A7D9E8"/>
				<stop  offset="0.6418" style="stop-color:#A5D9E8"/>
				<stop  offset="0.6779" style="stop-color:#9DD9E9"/>
				<stop  offset="0.7054" style="stop-color:#91DAEB"/>
				<stop  offset="0.7286" style="stop-color:#7EDAEE"/>
				<stop  offset="0.749" style="stop-color:#67DBF1"/>
				<stop  offset="0.7675" style="stop-color:#49DCF6"/>
				<stop  offset="0.7842" style="stop-color:#27DDFA"/>
				<stop  offset="0.7914" style="stop-color:#16DEFD"/>
				<stop  offset="1" style="stop-color:#08AFCD"/>
			</linearGradient>
			<path fill="url(#SVGID_27_)" stroke="#2C7592" stroke-miterlimit="10" d="M103.664,141.007c3.33,3.461,8.783,9.136,8.783,9.136
				l-0.331-18.727l-10.96-8.841c0,0,0.01,9.044,0.002,11.563C101.154,136.334,102.2,139.484,103.664,141.007z"/>
			<path d="M126.691,161.879c-1.414,0.715-2.943,1.219-2.943,1.219s0.637,3.938,1.014,7.012c0.163,1.318,1.023,1.684,2.377,1.041
				c1.219-0.58,9.656-4.857,9.656-4.857l-0.463-8.863C136.332,157.427,128.005,161.211,126.691,161.879z"/>
			<g>
				<g>
					<path d="M111.125,144.154c-0.012,0.432-0.297,0.854-0.654,0.96l-4.221,1.188c-0.384,0.107-0.723-0.157-0.758-0.604l-0.68-8.802
						c-0.043-0.574,0.289-1.121,0.739-1.205l4.947-0.918c0.413-0.073,0.735,0.32,0.729,0.873L111.125,144.154z"/>
				</g>
			</g>
			<path fill="none" stroke="#CCCCCC" stroke-linecap="round" d="M119.294,158.088"/>
			<path fill="none" stroke="#FFFFFF" stroke-width="0.5" stroke-linecap="round" d="M119.294,158.088"/>
			
				<radialGradient id="SVGID_28_" cx="227.2617" cy="493.7441" r="2.1602" gradientTransform="matrix(1 -0.0748 0 1 -100 -310.9659)" gradientUnits="userSpaceOnUse">
				<stop  offset="0" style="stop-color:#FFFFFF"/>
				<stop  offset="0.4202" style="stop-color:#FDFDFD"/>
				<stop  offset="0.5716" style="stop-color:#F6F6F6"/>
				<stop  offset="0.6794" style="stop-color:#EBEBEB"/>
				<stop  offset="0.7667" style="stop-color:#DADADA"/>
				<stop  offset="0.8414" style="stop-color:#C4C4C4"/>
				<stop  offset="0.9076" style="stop-color:#A8A8A8"/>
				<stop  offset="0.9659" style="stop-color:#898989"/>
				<stop  offset="1" style="stop-color:#737373"/>
			</radialGradient>
			<path fill="url(#SVGID_28_)" d="M129.184,164.844c0.088,1.227-0.703,2.643-1.768,3.157c-1.061,0.515-1.992-0.062-2.077-1.288
				c-0.085-1.229,0.704-2.641,1.769-3.156C128.17,163.039,129.102,163.617,129.184,164.844z"/>
			
				<radialGradient id="SVGID_29_" cx="233.1562" cy="491.7793" r="2.1612" gradientTransform="matrix(1 -0.0748 0 1 -100 -310.9659)" gradientUnits="userSpaceOnUse">
				<stop  offset="0" style="stop-color:#FFFFFF"/>
				<stop  offset="0.4202" style="stop-color:#FDFDFD"/>
				<stop  offset="0.5716" style="stop-color:#F6F6F6"/>
				<stop  offset="0.6794" style="stop-color:#EBEBEB"/>
				<stop  offset="0.7667" style="stop-color:#DADADA"/>
				<stop  offset="0.8414" style="stop-color:#C4C4C4"/>
				<stop  offset="0.9076" style="stop-color:#A8A8A8"/>
				<stop  offset="0.9659" style="stop-color:#898989"/>
				<stop  offset="1" style="stop-color:#737373"/>
			</radialGradient>
			<path fill="url(#SVGID_29_)" d="M135.079,162.438c0.087,1.228-0.703,2.645-1.769,3.158c-1.062,0.514-1.99-0.062-2.076-1.289
				s0.703-2.64,1.769-3.156C134.064,160.634,134.996,161.212,135.079,162.438z"/>
			
				<radialGradient id="SVGID_30_" cx="206.3145" cy="729.1113" r="10.7338" gradientTransform="matrix(1 0 0 1 -100 -591)" gradientUnits="userSpaceOnUse">
				<stop  offset="0" style="stop-color:#D9FF8B"/>
				<stop  offset="1" style="stop-color:#D9FF8B;stop-opacity:0"/>
			</radialGradient>
			<path fill="url(#SVGID_30_)" d="M91.523,139.301c0,0,5.061-0.488,8.855,5.738c3.343,5.486,5.449,10.706,4.867,12.459
				c-0.584,1.752-1.991-5.54-5.257-10.707c-5.353-8.467-9.732-6.811-9.732-6.811L91.523,139.301z"/>
			
				<linearGradient id="SVGID_31_" gradientUnits="userSpaceOnUse" x1="190.0625" y1="743.3496" x2="206.2695" y2="743.3496" gradientTransform="matrix(1 0 0 1 -100 -591)">
				<stop  offset="0" style="stop-color:#001C18"/>
				<stop  offset="1" style="stop-color:#000000;stop-opacity:0"/>
			</linearGradient>
			<path fill="url(#SVGID_31_)" d="M90.732,138.959c0,0,3.904-3.359,10.229,5.068c3.422,4.561,5.404,14.004,5.305,22.375
				l-0.682-0.729c0-3.215-1.555-15.732-5.205-20.927c-5.303-7.544-10.317-5.396-10.317-5.396L90.732,138.959z"/>
			
				<radialGradient id="SVGID_32_" cx="214.0625" cy="762.2168" r="31.5562" gradientTransform="matrix(1 0 0 1 -100 -591)" gradientUnits="userSpaceOnUse">
				<stop  offset="0" style="stop-color:#FFFFFF"/>
				<stop  offset="0.3676" style="stop-color:#FDFDFD"/>
				<stop  offset="0.5022" style="stop-color:#F6F6F6"/>
				<stop  offset="0.5985" style="stop-color:#EAEAEA"/>
				<stop  offset="0.6766" style="stop-color:#D9D9D9"/>
				<stop  offset="0.7436" style="stop-color:#C3C3C3"/>
				<stop  offset="0.8031" style="stop-color:#A8A8A8"/>
				<stop  offset="0.8569" style="stop-color:#878787"/>
				<stop  offset="0.9064" style="stop-color:#616161"/>
				<stop  offset="0.9524" style="stop-color:#363636"/>
				<stop  offset="0.9934" style="stop-color:#080808"/>
				<stop  offset="1" style="stop-color:#000000"/>
			</radialGradient>
			<path fill="url(#SVGID_32_)" d="M88.697,146.402l3.165-1.897l0.292-0.729c0,0,0.438-0.584-0.438-0.729
				S89.333,143.336,88.697,146.402z"/>
			<path opacity="0.31" fill="none" stroke="#000000" stroke-width="0.25" enable-background="new    " d="M114.004,165.865v-35.229
				l-17.712-15.182v16.937c0,0,0.387,3.696,2.337,6.032c1.943,2.335,6.227,7.396,7.59,13.231c1.363,5.845,1.752,8.566,1.752,8.566
				L114.004,165.865z"/>
			<path d="M170.102,134.398c0.771-0.828,1.791-2.025,1.791-2.025s-0.186,3.973-0.367,7.766c-0.069,1.498-0.932,3.188-1.668,4.023
				c-0.664,0.757-5.227,4.705-5.227,4.705l0.512-9.779C165.143,139.088,169.387,135.172,170.102,134.398z"/>
			
				<radialGradient id="SVGID_33_" cx="270.3281" cy="469.8184" r="1.8602" gradientTransform="matrix(1 -0.0748 0 1 -100 -310.9659)" gradientUnits="userSpaceOnUse">
				<stop  offset="0" style="stop-color:#FFFFFF"/>
				<stop  offset="0.4202" style="stop-color:#FDFDFD"/>
				<stop  offset="0.5716" style="stop-color:#F6F6F6"/>
				<stop  offset="0.6794" style="stop-color:#EBEBEB"/>
				<stop  offset="0.7667" style="stop-color:#DADADA"/>
				<stop  offset="0.8414" style="stop-color:#C4C4C4"/>
				<stop  offset="0.9076" style="stop-color:#A8A8A8"/>
				<stop  offset="0.9659" style="stop-color:#898989"/>
				<stop  offset="1" style="stop-color:#737373"/>
			</radialGradient>
			<path fill="url(#SVGID_33_)" d="M171.464,137.758c0.05,1.229-0.419,2.614-1.043,3.102c-0.626,0.481-1.173-0.123-1.228-1.354
				c-0.051-1.232,0.416-2.615,1.041-3.104C170.863,135.922,171.413,136.525,171.464,137.758z"/>
			
				<radialGradient id="SVGID_34_" cx="267.0664" cy="472.9736" r="1.8593" gradientTransform="matrix(1 -0.0748 0 1 -100 -310.9659)" gradientUnits="userSpaceOnUse">
				<stop  offset="0" style="stop-color:#FFFFFF"/>
				<stop  offset="0.4202" style="stop-color:#FDFDFD"/>
				<stop  offset="0.5716" style="stop-color:#F6F6F6"/>
				<stop  offset="0.6794" style="stop-color:#EBEBEB"/>
				<stop  offset="0.7667" style="stop-color:#DADADA"/>
				<stop  offset="0.8414" style="stop-color:#C4C4C4"/>
				<stop  offset="0.9076" style="stop-color:#A8A8A8"/>
				<stop  offset="0.9659" style="stop-color:#898989"/>
				<stop  offset="1" style="stop-color:#737373"/>
			</radialGradient>
			<path fill="url(#SVGID_34_)" d="M168.201,141.157c0.051,1.229-0.418,2.614-1.043,3.101c-0.626,0.482-1.174-0.121-1.227-1.352
				c-0.052-1.232,0.416-2.617,1.041-3.104C167.604,139.322,168.15,139.927,168.201,141.157z"/>
			<path opacity="0.31" fill="none" stroke="#000000" stroke-width="0.25" enable-background="new    " d="M171.875,143.637
				c0,0-9.113,8.137-19.626,15.346c-10.511,7.207-21.459,11.824-25.983,13.77c-4.523,1.945-5.689,0.123-7.007-0.459
				c-1.313-0.584-12.993-10.514-12.993-10.514s-0.223-8.637-4.273-15.66c-6.351-11.008-11.258-7.158-11.258-7.158"/>
			<path d="M149.85,149.826c-5.42,3.566-10.972,6.682-10.972,6.682s0.543,2.906,0.729,6.344c0.082,1.447,1.065,1.75,2.488,1.008
				c5.049-2.637,14.105-8.01,18.578-11.945c1.085-0.955,2.02-2.51,2.112-4.184c0.214-3.729,0.401-7.035,0.401-7.035
				S155.132,146.348,149.85,149.826z"/>
			<path d="M88.834,143.448c-0.207,0.479-0.063,3.437-0.063,3.437s0.847-0.013,0.974-0.455c0.13-0.451,0.158-1.06,0.328-1.51
				c0.656-1.766,2.587-1.602,2.587-1.602S89.744,141.375,88.834,143.448z"/>
			<path fill="#627C6A" d="M67.31,122.544l-0.941-1.089c0.006-0.04,0.54-38.336,0.62-38.664c0.351-1.443,1.582-5.193,5.191-7.125
				l47.416-24.959c2.853-1.529,5.547,1.092,5.699,1.214l0.921,0.893c-0.032-0.026-3.087-2.585-6.17-1.267L72.629,76.506
				c-3.184,1.704-4.343,5.077-4.69,6.428C67.848,83.289,67.31,123.486,67.31,122.544z"/>
			<path fill="#627C6A" d="M56.469,111.546l-0.916-1.06c0.007-0.039-0.078-37.658,0-37.979c0.342-1.403,1.538-5.052,5.05-6.931
				l46.734-23.919c2.772-1.487,5.396,1.062,5.544,1.181l0.896,0.869c-0.032-0.025-3.004-2.515-6.004-1.232L61.04,66.395
				c-3.097,1.657-4.226,4.939-4.563,6.253C56.388,72.994,56.469,112.463,56.469,111.546z"/>
			<path fill="#627C6A" d="M46.728,102.105l-0.894-1.033c0.006-0.038-0.15-37.209-0.074-37.521c0.333-1.37,1.502-4.932,4.93-6.767
				l45.699-22.906c2.707-1.453,5.267,1.038,5.412,1.153l0.874,0.848c-0.03-0.024-2.931-2.455-5.86-1.203L51.116,57.582
				c-3.022,1.618-4.124,4.822-4.455,6.106C46.575,64.024,46.728,103.001,46.728,102.105z"/>
			<path fill="#627C6A" d="M36.623,92.76l-0.881-1.02c0.006-0.037-0.075-36.725,0-37.033c0.329-1.349,1.479-4.857,4.856-6.665
				l44.939-22.487c2.667-1.43,5.188,1.022,5.332,1.136l0.86,0.835c-0.03-0.024-2.887-2.417-5.771-1.184l-44.94,22.487
				c-2.978,1.594-4.062,4.749-4.389,6.014C36.544,55.174,36.623,93.641,36.623,92.76z"/>
		</g>
	</g>
</g>
<g id="outline_x5F_white">
	<g>
		<g>
			<path fill="#FFFFFF" d="M79.386,19.361c2.241,0,4.616,2.017,4.616,2.017l56.05,41.285c0.896,0.603,1.442,1.062,1.442,1.062
				l-1.141,15.714c0.994,0.252,2.021,0.835,2.992,1.479c0,0,19.674,13.859,22.9,16.943c0.225,0.211,0.406,0.406,0.572,0.596
				c0.01,0.006,0.019,0.012,0.023,0.018c1.174,0.918,2.018,2.417,2.018,2.417c1.298,1.562,4.379,26.148,2.918,45.09
				c0,0-0.295,1.922-0.73,3.414c-0.146,1.028-0.8,1.787-1.68,2.386c0,0-9.909,7.835-17.463,13.062
				c-8.244,5.707-28.074,15.537-28.074,15.537c-0.396,0.178-0.791,0.262-1.188,0.262c-1.953,0-3.978-1.981-6.402-4.408
				c-1.004-0.881-1.887-1.654-2.709-2.393c-0.198,0.311-0.407,0.602-0.637,0.855c-2.562,2.846-6.322,4.142-7.807,4.562
				c-0.564,0.352-1.188,0.52-1.854,0.52c-3.311,0-7.655-4.174-10.992-11.051c-4.101-8.386-5.238-17.81-2.776-22.002
				c-0.292,0.148-0.695,0.158-0.695,0.158s-0.01-0.203-0.021-0.513l-0.053,0.028c0.016-0.066,0.031-0.129,0.047-0.193
				c-0.001-0.021-0.001-0.047-0.002-0.068c-0.031,0.162-0.045,0.266-0.045,0.266s-0.009-0.161-0.016-0.418
				c-1.49,1.437-3.361,2.178-5.161,2.178c-1.203,0-2.374-0.331-3.377-1.008l0.227,0.215c0.015,0.006,0.025,0.018,0.038,0.027
				c-0.527-0.252-1.025-0.578-1.477-0.996l-0.253-0.237c-0.093-0.177-0.157-0.367-0.233-0.552L57.914,124.99
				c-0.425-0.391-0.773-0.836-1.063-1.314c-0.244,0.424-0.505,0.817-0.802,1.146c-2.56,2.844-6.319,4.141-7.805,4.562
				c-0.565,0.352-1.189,0.521-1.855,0.521c-3.31,0-7.655-4.173-10.993-11.05c-4.417-9.03-5.404-19.275-2.149-22.887
				c0.242-0.269,0.505-0.479,0.778-0.66c0.033-0.044,0.056-0.098,0.093-0.139c0.143-0.154,1.642-0.744,3.319-1.375l-6.308-6.087
				l-3.175-39.974l-0.118-0.103c0,0,0.016-0.204,0.067-0.531v-0.004v0.001c0.202-1.266,0.982-4.47,3.83-5.801
				c11.437-5.347,36.559-17.09,46.335-21.66C78.488,19.442,78.934,19.361,79.386,19.361 M58.371,114.621
				c0.112-0.105,0.226-0.205,0.341-0.299l-0.394-0.381C58.34,114.171,58.355,114.396,58.371,114.621 M91.16,144.926
				c0.152-0.078,0.379-0.18,0.674-0.303l-0.065-0.062L91.16,144.926 M89.782,146.26c0.103-0.141,0.198-0.291,0.311-0.417
				c0.242-0.269,0.506-0.479,0.779-0.659c0.032-0.045,0.057-0.099,0.092-0.139c0.005-0.004,0.022-0.013,0.028-0.018l-1.102,0.66
				C89.857,145.886,89.823,146.078,89.782,146.26 M79.386,7.361c-2.25,0-4.404,0.474-6.402,1.409L26.651,30.428
				c-5.582,2.609-9.417,7.887-10.552,14.506c-0.033,0.18-0.062,0.361-0.086,0.543c-0.084,0.575-0.125,1.013-0.142,1.238
				c-0.09,1.176-0.006,2.344,0.239,3.47l3.056,38.474c0.147,1.851,0.72,3.628,1.658,5.199c-3.232,8.841-0.824,20.833,3.793,30.27
				c5.476,11.284,13.418,17.776,21.772,17.776c2.201,0,4.359-0.463,6.342-1.348c0.811-0.269,1.732-0.606,2.719-1.035l13.256,13.312
				c0.501,0.749,1.086,1.439,1.745,2.062l0.253,0.236c0.028,0.026,0.056,0.055,0.084,0.078c1.31,1.211,2.801,2.223,4.432,3.004
				c0.346,0.166,0.696,0.312,1.05,0.443c0.127,0.056,0.256,0.109,0.384,0.162c0.84,5.478,2.695,10.854,4.809,15.176
				c5.477,11.286,13.418,17.777,21.773,17.777c2.199,0,4.356-0.461,6.341-1.346c0.938-0.31,2.021-0.716,3.185-1.242
				c2.648,1.931,5.869,3.449,9.883,3.449c2.113,0,4.17-0.443,6.113-1.316c0.137-0.062,0.271-0.127,0.405-0.19
				c2.108-1.046,20.862-10.394,29.573-16.423c7.187-4.975,16.168-12.014,17.822-13.312c3.221-2.338,5.383-5.574,6.18-9.244
				c0.527-1.967,0.843-3.946,0.904-4.356c0.045-0.296,0.08-0.593,0.104-0.892c0.919-11.922,0.122-24.549-0.436-31.012
				c-1.402-16.312-3.027-19.841-4.633-21.945c-0.736-1.133-1.927-2.727-3.555-4.184c-0.203-0.209-0.41-0.414-0.625-0.616
				c-3.126-2.964-14.716-11.295-21.645-16.204l0.606-8.351c0.279-3.845-1.308-7.591-4.262-10.067
				c-0.228-0.19-1.028-0.846-2.216-1.66l-55.61-40.96C89.397,10.313,84.974,7.361,79.386,7.361L79.386,7.361z"/>
		</g>
	</g>
</g>
<g id="outline_x5F_black">
	<g>
		<path d="M79.386,19.361c2.241,0,4.616,2.017,4.616,2.017l56.05,41.285c0.896,0.603,1.442,1.062,1.442,1.062l-1.141,15.714
			c0.994,0.252,2.021,0.835,2.992,1.479c0,0,19.674,13.859,22.9,16.943c0.225,0.211,0.406,0.406,0.572,0.596
			c0.01,0.006,0.019,0.012,0.023,0.018c1.174,0.918,2.018,2.417,2.018,2.417c1.298,1.562,4.379,26.148,2.918,45.09
			c0,0-0.295,1.922-0.73,3.414c-0.146,1.028-0.8,1.787-1.68,2.386c0,0-9.909,7.835-17.463,13.062
			c-8.244,5.707-28.074,15.537-28.074,15.537c-0.396,0.178-0.791,0.262-1.188,0.262c-1.953,0-3.978-1.981-6.402-4.408
			c-1.004-0.881-1.887-1.654-2.709-2.393c-0.198,0.311-0.407,0.602-0.637,0.855c-2.562,2.846-6.322,4.142-7.807,4.562
			c-0.564,0.352-1.188,0.52-1.854,0.52c-3.311,0-7.655-4.174-10.992-11.051c-4.101-8.386-5.238-17.81-2.776-22.002
			c-0.292,0.148-0.695,0.158-0.695,0.158s-0.01-0.203-0.021-0.513l-0.053,0.028c0.016-0.066,0.031-0.129,0.047-0.193
			c-0.001-0.021-0.001-0.047-0.002-0.068c-0.031,0.162-0.045,0.266-0.045,0.266s-0.009-0.161-0.016-0.418
			c-1.49,1.437-3.361,2.178-5.161,2.178c-1.203,0-2.374-0.331-3.377-1.008l0.227,0.215c0.015,0.006,0.025,0.018,0.038,0.027
			c-0.527-0.252-1.025-0.578-1.477-0.996l-0.253-0.237c-0.093-0.177-0.157-0.367-0.233-0.552L57.914,124.99
			c-0.425-0.391-0.773-0.836-1.063-1.314c-0.244,0.424-0.505,0.817-0.802,1.146c-2.56,2.844-6.319,4.141-7.805,4.562
			c-0.565,0.352-1.189,0.521-1.855,0.521c-3.31,0-7.655-4.173-10.993-11.05c-4.417-9.03-5.404-19.275-2.149-22.887
			c0.242-0.269,0.505-0.479,0.778-0.66c0.033-0.044,0.056-0.098,0.093-0.139c0.143-0.154,1.642-0.744,3.319-1.375l-6.308-6.087
			l-3.175-39.974l-0.118-0.103c0,0,0.016-0.204,0.067-0.531v-0.004v0.001c0.202-1.266,0.982-4.47,3.83-5.801
			c11.437-5.347,36.559-17.09,46.335-21.66C78.488,19.442,78.934,19.361,79.386,19.361 M58.371,114.621
			c0.112-0.105,0.226-0.205,0.341-0.299l-0.394-0.381C58.34,114.171,58.355,114.396,58.371,114.621 M91.16,144.926
			c0.152-0.078,0.379-0.18,0.674-0.303l-0.065-0.062L91.16,144.926 M89.782,146.26c0.103-0.141,0.198-0.291,0.311-0.417
			c0.242-0.269,0.506-0.479,0.779-0.659c0.032-0.045,0.057-0.099,0.092-0.139c0.005-0.004,0.022-0.013,0.028-0.018l-1.102,0.66
			C89.857,145.886,89.823,146.078,89.782,146.26 M79.386,13.361c-1.365,0-2.664,0.284-3.86,0.844L29.192,35.863
			c-3.79,1.771-6.404,5.466-7.19,10.151c-0.017,0.091-0.032,0.184-0.044,0.277c-0.067,0.445-0.095,0.762-0.104,0.885
			c-0.054,0.702,0.017,1.398,0.2,2.06l3.094,38.949c0.116,1.459,0.761,2.826,1.814,3.843l0.999,0.964
			c-4.819,6.83-2.436,19.34,2.045,28.5c4.442,9.152,10.416,14.413,16.382,14.413c1.449,0,2.866-0.324,4.15-0.943
			c1.601-0.504,3.822-1.377,6.039-2.81l16.862,16.936c0.299,0.535,0.678,1.021,1.125,1.442l0.253,0.237
			c0.014,0.015,0.028,0.025,0.042,0.039c0.87,0.805,1.863,1.478,2.954,2c0.226,0.106,0.455,0.2,0.687,0.277
			c1.159,0.525,2.4,0.866,3.686,1.005c0.24,5.763,2.131,12.091,4.667,17.271c4.442,9.154,10.416,14.416,16.383,14.416
			c1.447,0,2.865-0.323,4.147-0.942c1.622-0.511,3.884-1.399,6.128-2.866c2.59,2.485,5.393,4.672,9.131,4.672
			c1.26,0,2.487-0.267,3.651-0.789c0.065-0.031,0.136-0.062,0.202-0.097c0.824-0.407,20.318-10.092,28.822-15.979
			c7.217-4.992,16.322-12.147,17.625-13.176c2.615-1.854,3.605-4.117,3.955-5.854c0.479-1.74,0.776-3.639,0.812-3.86
			c0.022-0.146,0.04-0.296,0.054-0.444c0.885-11.498,0.109-23.754-0.432-30.035c-1.229-14.29-2.594-17.583-3.486-18.874
			c-0.482-0.785-1.473-2.22-2.88-3.435c-0.192-0.206-0.394-0.405-0.603-0.601c-3.354-3.203-20.219-15.126-23.563-17.484
			c-0.046-0.032-0.093-0.062-0.14-0.095c-0.014-0.008-0.021-0.016-0.034-0.023l0.853-11.734c0.141-1.923-0.652-3.796-2.131-5.034
			c-0.127-0.106-0.798-0.659-1.832-1.364L87.699,16.648C86.541,15.704,83.274,13.361,79.386,13.361L79.386,13.361z"/>
	</g>
</g>
</svg>
