<?xml version="1.0" encoding="utf-8"?>
<!-- Generator: Adobe Illustrator 15.0.0, SVG Export Plug-In . SVG Version: 6.00 Build 0)  -->
<!DOCTYPE svg PUBLIC "-//W3C//DTD SVG 1.1//EN" "http://www.w3.org/Graphics/SVG/1.1/DTD/svg11.dtd">
<svg version="1.1" xmlns="http://www.w3.org/2000/svg" xmlns:xlink="http://www.w3.org/1999/xlink" x="0px" y="0px" width="200px"
	 height="200px" viewBox="0 0 200 200" enable-background="new 0 0 200 200" xml:space="preserve">
<g id="icon">
	<g id="Layer_2">
	</g>
	<g id="Layer_1_1_">
		<g>
			<ellipse cx="81.566" cy="125.139" rx="14.004" ry="11.348"/>
			<polygon points="59.891,97.261 70.109,90.318 125.176,60.247 154.27,47.345 156.643,52.693 63.547,101.27 			"/>
			
				<linearGradient id="SVGID_1_" gradientUnits="userSpaceOnUse" x1="200.4443" y1="658.8008" x2="200.9023" y2="676.2035" gradientTransform="matrix(1 0 0 1 -100 -591)">
				<stop  offset="0" style="stop-color:#6A6669"/>
				<stop  offset="0.5031" style="stop-color:#8B8B8B"/>
				<stop  offset="0.551" style="stop-color:#8E8E8E"/>
				<stop  offset="0.5843" style="stop-color:#979797"/>
				<stop  offset="0.6131" style="stop-color:#A6A6A6"/>
				<stop  offset="0.6319" style="stop-color:#B5B5B5"/>
				<stop  offset="1" style="stop-color:#494447"/>
			</linearGradient>
			<path fill="url(#SVGID_1_)" d="M168.881,57.183c0,0,6.861-3.033,11.004-5.604l-1.361-2.936c-4.135,2.097-10.59,4.942-10.59,4.942
				c-4.599-7.725-7.207-13.567-10.642-17.567c-0.365,0.64-2.181,1.358-3.269,1.753c3.131,3.263,4.43,7.377,4.668,9.902
				c-5.405,2.525-15.375,9.695-21.692,9.776c-2.926,0.902-3.464,2.635-4.717,4.117c-16.808,7.706-44.402,23.039-57.645,30.35
				c-2.625,1.451-13.354,7.9-16.337,8.346c0,0-0.241-0.843-2.279-3.518l-10.208,4.938c0.64,1.479,0.621,3.412,1.708,5.051
				c-4.658,2.318-8.832,3.955-12.589,6.941c-0.962,2.361-1.321,6.301,0.093,8.309c-0.881,0.723-0.816,0.523-0.862,2.711
				c-4.249,1.771-7.654,1.715-10.126,0.613c-1.875,0.219-1.875,2.729-1.875,2.729c5.39,7.185,10.337,16.31,12.354,28.14
				c0.141,0.828-1.835,2.658-1.721,3.486c0.09,0.652,2.065,3.012,2.137,3.663c0.862,0.435,1.683,0.934,3.428,0.844
				c2.836-8.022-4.496-19.646-2.087-27.826c-0.37-0.53,0.698-1.373,1.668-2.049c2.602,0.749,4.797,2.744,7.322,3.699
				c3.034-1.694,6.076-3.394,9.121-5.093c2.901,2.777,6.206,0.891,8.243,5.936c2.376,5.921-5.476,14.112-5.333,20.96
				c0.031,1.485,2.277,4.702,3.027,5.81c2.732,4.059,12.577,0.869,16.482,0.629c0.281-7.244,0.51-14.508,0.035-22.025
				c-0.148-1.468-0.989-11.432,3.198-13.982c4.522-2.756,7.381-5.215,12.073-7.646c0.001,0,0.001,0,0.001,0
				c0.736-0.496,1.486-0.955,2.15-1.259c4.458-2.828,9.744-7.27,10.083-6.075c2.277,0.671,4.294,2.243,5.761,3.948
				c9.854,11.539,23.114,20.761,36.24,26.059c2.229-2.939,4.385-5.902,5.176-9.227c-0.629-0.402-1.9-2.897-2.539-3.305
				c-14.527-9.267-31.521-16.465-39.082-36.883c-0.281,1.424,61.804-34.605,61.804-34.605L168.881,57.183z"/>
			
				<linearGradient id="SVGID_2_" gradientUnits="userSpaceOnUse" x1="197.3213" y1="661.4385" x2="211.2775" y2="688.0004" gradientTransform="matrix(1 0 0 1 -100 -591)">
				<stop  offset="0" style="stop-color:#6A6669"/>
				<stop  offset="0.092" style="stop-color:#AFAFAF"/>
				<stop  offset="0.0934" style="stop-color:#AFAFAF"/>
				<stop  offset="0.1604" style="stop-color:#A3A3A3"/>
				<stop  offset="0.2535" style="stop-color:#9C9C9C"/>
				<stop  offset="0.5031" style="stop-color:#9A9A9A"/>
				<stop  offset="0.6587" style="stop-color:#9D9D9D"/>
				<stop  offset="0.7667" style="stop-color:#A6A6A6"/>
				<stop  offset="0.8589" style="stop-color:#B5B5B5"/>
				<stop  offset="1" style="stop-color:#696467"/>
			</linearGradient>
			<path fill="url(#SVGID_2_)" d="M167.71,54.247c0,0,6.671-3.033,10.813-5.604l-1.922-3.832
				c-4.137,2.097-10.807,5.109-10.807,5.109c-4.602-7.725-7.208-13.567-10.645-17.567c-0.363,0.641-2.18,1.358-3.268,1.753
				c3.131,3.263,4.43,7.376,4.666,9.902c-5.404,2.524-15.371,9.695-21.689,9.776c-2.928,0.902-3.465,2.635-4.719,4.117
				C113.338,65.608,85.743,80.94,72.5,88.252c-2.624,1.451-13.354,7.9-16.336,8.346c0,0-0.243-0.843-2.279-3.518l-10.208,4.937
				c0.64,1.478,0.621,3.415,1.708,5.049c-4.659,2.318-8.832,3.955-12.589,6.941c-0.962,2.362-1.321,6.301,0.093,8.311
				c-0.82,0.673-0.82,0.549-0.854,2.299l4.253,10.179c2.393,0.841,4.474,2.638,6.839,3.531c3.034-1.694,6.076-3.394,9.121-5.091
				c2.901,2.777,6.206,0.889,8.243,5.934c2.893,7.206-6.505,20.561-2.306,26.77c2.733,4.059,12.577,0.869,16.481,0.629
				c0.295-7.602,0.542-15.221-0.032-23.137c4.867-4.619,15.234-1.969,21.398-10.231c1.281-5.004-3.016-11.982,2.969-15.32
				c1.223,0.454,0.744-0.499,3.205-2.299c2.276,0.671,4.293,2.243,5.76,3.949c9.853,11.538,22.716,21.12,35.841,26.419
				c2.229-2.94,4.385-5.902,5.174-9.229c-14.976-9.585-33.33-19.233-41.221-40.545l61.803-34.606L167.71,54.247z M38.813,122.268
				c-0.92-1.477,3.285-3.101,3.966-2.763C40.825,120.204,40.772,121.568,38.813,122.268z M111.218,71.233
				c-1.417,1.24-2.632,0.442-3.03,1.619C107.16,71.422,111.003,70.025,111.218,71.233z M96.348,78.656
				c2.142-0.794,4.917-3.355,6.656-3.027c-4.298,1.943-9.227,5.683-13.1,6.501C92.051,80.971,94.198,79.812,96.348,78.656z
				 M80.056,87.454c0.981,2.61-3.931,3.099-5.121,2.778C76.645,89.308,78.351,88.379,80.056,87.454z M63.017,118.277
				c-0.131-0.297-0.256-0.592-0.384-0.893c2.037-0.715-1.176-0.867,0.87-1.587c0.32,0.742,0.639,1.488,0.958,2.232
				C63.896,118.368,63.453,118.33,63.017,118.277z M72.602,103.073c3.662-2.005,7.346-4.011,11.027-6.018
				c3.205-1.632,6.727-3.811,8.52-4.631c-0.057,0.028,3.945-2.037,1.468-0.247C87.801,96.383,78.348,100.134,72.602,103.073z
				 M93.988,129.229c-6.066,3.989-11.783,7.047-17.16,5.672c-0.386-2.77,0.58-9.278,2.055-7.373c3.384,4.373,7.37,5.104,9.484,4.267
				c-2.916-1.157-7.185-8.269-1.812-10.524c0.603-0.121,5.546-4.459,7.147-3.937C94.339,121.489,95.189,125.723,93.988,129.229z
				 M43.259,115.902c17.187-7.842,38.89-21.945,53.7-28.271C78.774,96.525,56.766,111.43,43.259,115.902z M102.46,98.324
				c1.412-0.426,3.438-2.568,4.452-1.871C105.496,96.878,103.469,99.02,102.46,98.324z M114.959,79.032
				c-5.249,1.635-12.79,9.17-17.761,7.921c6.543-3.034,13.136-7.979,17.647-9.493C115.117,78.065,115.042,78.55,114.959,79.032z
				 M117.542,67.312c1.116-0.576,2.315-1.265,3.478-1.854C127.624,62.11,120.85,66.837,117.542,67.312z"/>
			
				<linearGradient id="SVGID_3_" gradientUnits="userSpaceOnUse" x1="197.8418" y1="663.0312" x2="201.4465" y2="669.6402" gradientTransform="matrix(1 0 0 1 -100 -591)">
				<stop  offset="0.4663" style="stop-color:#FFFFFF"/>
				<stop  offset="0.468" style="stop-color:#FEFEFE;stop-opacity:0.9967"/>
				<stop  offset="0.5062" style="stop-color:#E3EFEE;stop-opacity:0.9251"/>
				<stop  offset="0.5496" style="stop-color:#CDE3E0;stop-opacity:0.8438"/>
				<stop  offset="0.6009" style="stop-color:#BCDAD6;stop-opacity:0.7478"/>
				<stop  offset="0.6642" style="stop-color:#B1D3CE;stop-opacity:0.6291"/>
				<stop  offset="0.7531" style="stop-color:#AACFCA;stop-opacity:0.4625"/>
				<stop  offset="1" style="stop-color:#A8CEC9;stop-opacity:0"/>
			</linearGradient>
			<path opacity="0.48" fill="url(#SVGID_3_)" enable-background="new    " d="M167.71,54.247c0,0,6.671-3.033,10.813-5.604
				l-1.922-3.832c-4.137,2.097-10.807,5.109-10.807,5.109c-4.602-7.725-7.208-13.567-10.645-17.567
				c-0.363,0.641-2.18,1.358-3.268,1.753c3.131,3.263,4.43,7.376,4.666,9.902c-5.404,2.524-15.371,9.695-21.689,9.776
				c-2.928,0.902-3.465,2.635-4.719,4.117C113.338,65.608,85.743,80.94,72.5,88.252c-2.624,1.451-13.354,7.9-16.336,8.346
				c0,0-0.243-0.843-2.279-3.518l-10.208,4.937c0.64,1.478,0.621,3.415,1.708,5.049c-4.659,2.318-8.832,3.955-12.589,6.941
				c-0.962,2.362-1.321,6.301,0.093,8.311c-0.82,0.673-0.82,0.549-0.854,2.299l4.253,10.179c2.393,0.841,4.474,2.638,6.839,3.531
				c3.034-1.694,6.076-3.394,9.121-5.091c2.901,2.777,6.206,0.889,8.243,5.934c2.893,7.206-6.505,20.561-2.306,26.77
				c2.733,4.059,12.577,0.869,16.481,0.629c0.295-7.602,0.542-15.221-0.032-23.137c4.867-4.619,15.234-1.969,21.398-10.231
				c1.281-5.004-3.016-11.982,2.969-15.32c1.223,0.454,0.744-0.499,3.205-2.299c2.276,0.671,4.293,2.243,5.76,3.949
				c9.853,11.538,22.716,21.12,35.841,26.419c2.229-2.94,4.385-5.902,5.174-9.229c-14.976-9.585-33.33-19.233-41.221-40.545
				l61.803-34.606L167.71,54.247z M38.813,122.268c-0.92-1.477,3.285-3.101,3.966-2.763
				C40.825,120.204,40.772,121.568,38.813,122.268z M111.218,71.233c-1.417,1.24-2.632,0.442-3.03,1.619
				C107.16,71.422,111.003,70.025,111.218,71.233z M96.348,78.656c2.142-0.794,4.917-3.355,6.656-3.027
				c-4.298,1.943-9.227,5.683-13.1,6.501C92.051,80.971,94.198,79.812,96.348,78.656z M80.056,87.454
				c0.981,2.61-3.931,3.099-5.121,2.778C76.645,89.308,78.351,88.379,80.056,87.454z M63.017,118.277
				c-0.131-0.297-0.256-0.592-0.384-0.893c2.037-0.715-1.176-0.867,0.87-1.587c0.32,0.742,0.639,1.488,0.958,2.232
				C63.896,118.368,63.453,118.33,63.017,118.277z M72.602,103.073c3.662-2.005,7.346-4.011,11.027-6.018
				c3.205-1.632,6.727-3.811,8.52-4.631c-0.057,0.028,3.945-2.037,1.468-0.247C87.801,96.383,78.348,100.134,72.602,103.073z
				 M93.988,129.229c-6.066,3.989-11.783,7.047-17.16,5.672c-0.386-2.77,0.58-9.278,2.055-7.373c3.384,4.373,7.37,5.104,9.484,4.267
				c-2.916-1.157-7.185-8.269-1.812-10.524c0.603-0.121,5.546-4.459,7.147-3.937C94.339,121.489,95.189,125.723,93.988,129.229z
				 M43.259,115.902c17.187-7.842,38.89-21.945,53.7-28.271C78.774,96.525,56.766,111.43,43.259,115.902z M102.46,98.324
				c1.412-0.426,3.438-2.568,4.452-1.871C105.496,96.878,103.469,99.02,102.46,98.324z M114.959,79.032
				c-5.249,1.635-12.79,9.17-17.761,7.921c6.543-3.034,13.136-7.979,17.647-9.493C115.117,78.065,115.042,78.55,114.959,79.032z
				 M117.542,67.312c1.116-0.576,2.315-1.265,3.478-1.854C127.624,62.11,120.85,66.837,117.542,67.312z"/>
			
				<linearGradient id="SVGID_4_" gradientUnits="userSpaceOnUse" x1="206.624" y1="680.3379" x2="211.5092" y2="697.4353" gradientTransform="matrix(1 0 0 1 -100 -591)">
				<stop  offset="0.092" style="stop-color:#A8CEC9;stop-opacity:0"/>
				<stop  offset="0.1885" style="stop-color:#C4DEDA;stop-opacity:0.3455"/>
				<stop  offset="0.2883" style="stop-color:#E5F0EF;stop-opacity:0.7027"/>
				<stop  offset="0.4663" style="stop-color:#FFFFFF"/>
				<stop  offset="1" style="stop-color:#A8CEC9;stop-opacity:0"/>
			</linearGradient>
			<path opacity="0.48" fill="url(#SVGID_4_)" enable-background="new    " d="M167.71,54.247c0,0,6.671-3.033,10.813-5.604
				l-1.922-3.832c-4.137,2.097-10.807,5.109-10.807,5.109c-4.602-7.725-7.208-13.567-10.645-17.567
				c-0.363,0.641-2.18,1.358-3.268,1.753c3.131,3.263,4.43,7.376,4.666,9.902c-5.404,2.524-15.371,9.695-21.689,9.776
				c-2.928,0.902-3.465,2.635-4.719,4.117C113.338,65.608,85.743,80.94,72.5,88.252c-2.624,1.451-13.354,7.9-16.336,8.346
				c0,0-0.243-0.843-2.279-3.518l-10.208,4.937c0.64,1.478,0.621,3.415,1.708,5.049c-4.659,2.318-8.832,3.955-12.589,6.941
				c-0.962,2.362-1.321,6.301,0.093,8.311c-0.82,0.673-0.82,0.549-0.854,2.299l4.253,10.179c2.393,0.841,4.474,2.638,6.839,3.531
				c3.034-1.694,6.076-3.394,9.121-5.091c2.901,2.777,6.206,0.889,8.243,5.934c2.893,7.206-6.505,20.561-2.306,26.77
				c2.733,4.059,12.577,0.869,16.481,0.629c0.295-7.602,0.542-15.221-0.032-23.137c4.867-4.619,15.234-1.969,21.398-10.231
				c1.281-5.004-3.016-11.982,2.969-15.32c1.223,0.454,0.744-0.499,3.205-2.299c2.276,0.671,4.293,2.243,5.76,3.949
				c9.853,11.538,22.716,21.12,35.841,26.419c2.229-2.94,4.385-5.902,5.174-9.229c-14.976-9.585-33.33-19.233-41.221-40.545
				l61.803-34.606L167.71,54.247z M38.813,122.268c-0.92-1.477,3.285-3.101,3.966-2.763
				C40.825,120.204,40.772,121.568,38.813,122.268z M111.218,71.233c-1.417,1.24-2.632,0.442-3.03,1.619
				C107.16,71.422,111.003,70.025,111.218,71.233z M96.348,78.656c2.142-0.794,4.917-3.355,6.656-3.027
				c-4.298,1.943-9.227,5.683-13.1,6.501C92.051,80.971,94.198,79.812,96.348,78.656z M80.056,87.454
				c0.981,2.61-3.931,3.099-5.121,2.778C76.645,89.308,78.351,88.379,80.056,87.454z M63.017,118.277
				c-0.131-0.297-0.256-0.592-0.384-0.893c2.037-0.715-1.176-0.867,0.87-1.587c0.32,0.742,0.639,1.488,0.958,2.232
				C63.896,118.368,63.453,118.33,63.017,118.277z M72.602,103.073c3.662-2.005,7.346-4.011,11.027-6.018
				c3.205-1.632,6.727-3.811,8.52-4.631c-0.057,0.028,3.945-2.037,1.468-0.247C87.801,96.383,78.348,100.134,72.602,103.073z
				 M93.988,129.229c-6.066,3.989-11.783,7.047-17.16,5.672c-0.386-2.77,0.58-9.278,2.055-7.373c3.384,4.373,7.37,5.104,9.484,4.267
				c-2.916-1.157-7.185-8.269-1.812-10.524c0.603-0.121,5.546-4.459,7.147-3.937C94.339,121.489,95.189,125.723,93.988,129.229z
				 M43.259,115.902c17.187-7.842,38.89-21.945,53.7-28.271C78.774,96.525,56.766,111.43,43.259,115.902z M102.46,98.324
				c1.412-0.426,3.438-2.568,4.452-1.871C105.496,96.878,103.469,99.02,102.46,98.324z M114.959,79.032
				c-5.249,1.635-12.79,9.17-17.761,7.921c6.543-3.034,13.136-7.979,17.647-9.493C115.117,78.065,115.042,78.55,114.959,79.032z
				 M117.542,67.312c1.116-0.576,2.315-1.265,3.478-1.854C127.624,62.11,120.85,66.837,117.542,67.312z"/>
			<path fill="none" d="M62.633,117.387c0.128,0.299,0.252,0.594,0.384,0.894c0.436,0.052,0.879,0.09,1.444-0.246
				c-0.319-0.744-0.638-1.49-0.958-2.232C61.457,116.52,64.67,116.672,62.633,117.387z"/>
			<path fill="none" d="M92.149,92.425c-1.793,0.82-5.315,2.999-8.52,4.631c-3.682,2.007-7.365,4.012-11.027,6.018
				c5.746-2.939,15.199-6.69,21.016-10.896C96.095,90.388,92.093,92.453,92.149,92.425z"/>
			<path fill="none" d="M86.555,121.268c-5.373,2.258-1.104,9.368,1.812,10.525c-2.488,0.986-7.137-0.809-9.484-4.266
				c-0.981-1.444-2.371,5.104-2.055,7.373c5.376,1.375,11.093-1.684,17.16-5.672c1.201-3.509,0.351-7.739-0.286-11.896
				C92.101,116.809,87.158,121.146,86.555,121.268z"/>
			<path fill="none" d="M80.056,87.454c-1.705,0.925-3.411,1.854-5.121,2.778C76.125,90.553,81.037,90.064,80.056,87.454z"/>
			<path fill="none" d="M25.766,127.869c-1.66,2.851,4.358-1.165,5.771-0.992C31.867,124.354,26.881,129.434,25.766,127.869z"/>
			<path fill="none" d="M96.348,78.656c-2.15,1.156-4.297,2.315-6.444,3.474c3.874-0.818,8.802-4.558,13.1-6.501
				C101.266,75.301,98.489,77.862,96.348,78.656z"/>
			<path fill="none" d="M38.813,122.268c1.959-0.697,2.012-2.062,3.966-2.763C42.098,119.167,37.893,120.791,38.813,122.268z"/>
			<path fill="none" d="M111.218,71.233c-0.215-1.208-4.058,0.189-3.03,1.619C108.586,71.675,109.801,72.473,111.218,71.233z"/>
			<path fill="none" d="M96.959,87.632c-14.81,6.325-36.514,20.429-53.7,28.271C56.766,111.43,78.774,96.525,96.959,87.632z"/>
			<path fill="none" d="M121.02,65.458c-1.16,0.589-2.359,1.278-3.478,1.854C120.85,66.837,127.624,62.11,121.02,65.458z"/>
			<path fill="none" d="M97.198,86.953c4.971,1.249,12.512-6.286,17.761-7.921c0.083-0.481,0.158-0.967-0.111-1.572
				C110.334,78.974,103.741,83.919,97.198,86.953z"/>
			<path fill="none" d="M102.46,98.324c1.009,0.696,3.036-1.445,4.452-1.871C105.898,95.756,103.872,97.898,102.46,98.324z"/>
			
				<linearGradient id="SVGID_5_" gradientUnits="userSpaceOnUse" x1="176.7422" y1="704.9531" x2="184.4176" y2="721.1889" gradientTransform="matrix(1 0 0 1 -100 -591)">
				<stop  offset="0" style="stop-color:#6A6669"/>
				<stop  offset="0.1779" style="stop-color:#D0CFCF"/>
				<stop  offset="0.4601" style="stop-color:#C3C3C3"/>
				<stop  offset="1" style="stop-color:#696467"/>
			</linearGradient>
			<path fill="url(#SVGID_5_)" d="M80.464,112.587l-28.216,16.649c2.901,2.777,6.206,0.888,8.243,5.933
				c2.893,7.206-6.505,20.56-2.306,26.769c2.733,4.06,12.577,0.869,16.481,0.629c0.295-7.601,0.542-15.221-0.032-23.135
				c4.867-4.619,15.234-1.97,21.398-10.232c1.281-5.006-3.016-11.982,2.969-15.32c1.223,0.454,0.744-0.499,3.205-2.299l10.079-9.497
				c-1.689-3.074-3.213-6.364-4.525-9.908l-25.277,14.931L80.464,112.587z M106.912,96.453c-1.416,0.426-3.443,2.567-4.452,1.871
				C103.872,97.898,105.898,95.756,106.912,96.453z M86.555,121.268c0.603-0.121,5.546-4.459,7.147-3.936
				c0.637,4.157,1.487,8.391,0.286,11.896c-6.066,3.988-11.783,7.047-17.16,5.672C76.047,129.28,81.182,123.525,86.555,121.268z"/>
			
				<linearGradient id="SVGID_6_" gradientUnits="userSpaceOnUse" x1="184.3633" y1="704.0605" x2="175.6611" y2="688.4882" gradientTransform="matrix(1 0 0 1 -100 -591)">
				<stop  offset="0" style="stop-color:#6A6669"/>
				<stop  offset="0.1779" style="stop-color:#D0CFCF"/>
				<stop  offset="0.4601" style="stop-color:#C3C3C3"/>
				<stop  offset="1" style="stop-color:#696467"/>
			</linearGradient>
			<polygon fill="url(#SVGID_6_)" points="32.97,116.743 116.199,74.623 118.646,78.485 37.306,124.777 			"/>
			
				<linearGradient id="SVGID_7_" gradientUnits="userSpaceOnUse" x1="157.0791" y1="648.6201" x2="157.0791" y2="638.1502" gradientTransform="matrix(0.999 -0.0456 0.0456 0.999 -25.7576 -582.1991)">
				<stop  offset="0" style="stop-color:#98ADDB"/>
				<stop  offset="1" style="stop-color:#011025"/>
			</linearGradient>
			<polygon opacity="0.2" fill="url(#SVGID_7_)" enable-background="new    " points="156.553,44.008 165.072,57.062 
				162.895,59.149 155.746,45.568 			"/>
			
				<linearGradient id="SVGID_8_" gradientUnits="userSpaceOnUse" x1="152.2559" y1="651.7412" x2="152.2559" y2="641.2699" gradientTransform="matrix(0.999 -0.0456 0.0456 0.999 -25.7576 -582.1991)">
				<stop  offset="0" style="stop-color:#98ADDB"/>
				<stop  offset="1" style="stop-color:#011025"/>
			</linearGradient>
			<polygon opacity="0.2" fill="url(#SVGID_8_)" enable-background="new    " points="151.881,47.345 160.396,60.398 
				158.221,62.485 151.07,48.903 			"/>
			
				<linearGradient id="SVGID_9_" gradientUnits="userSpaceOnUse" x1="146.0195" y1="654.0107" x2="146.0195" y2="643.5388" gradientTransform="matrix(0.999 -0.0456 0.0456 0.999 -25.7576 -582.1991)">
				<stop  offset="0" style="stop-color:#98ADDB"/>
				<stop  offset="1" style="stop-color:#011025"/>
			</linearGradient>
			<polygon opacity="0.2" fill="url(#SVGID_9_)" enable-background="new    " points="145.754,49.895 154.27,62.949 152.094,65.036 
				144.943,51.452 			"/>
			
				<linearGradient id="SVGID_10_" gradientUnits="userSpaceOnUse" x1="140.916" y1="656.5615" x2="140.916" y2="646.0903" gradientTransform="matrix(0.999 -0.0456 0.0456 0.999 -25.7576 -582.1991)">
				<stop  offset="0" style="stop-color:#98ADDB"/>
				<stop  offset="1" style="stop-color:#011025"/>
			</linearGradient>
			<polygon opacity="0.2" fill="url(#SVGID_10_)" enable-background="new    " points="140.771,52.676 149.286,65.732 
				147.109,67.817 139.963,54.235 			"/>
			
				<linearGradient id="SVGID_11_" gradientUnits="userSpaceOnUse" x1="134.9609" y1="659.1152" x2="134.9609" y2="648.6433" gradientTransform="matrix(0.999 -0.0456 0.0456 0.999 -25.7576 -582.1991)">
				<stop  offset="0" style="stop-color:#98ADDB"/>
				<stop  offset="1" style="stop-color:#011025"/>
			</linearGradient>
			<polygon opacity="0.2" fill="url(#SVGID_11_)" enable-background="new    " points="134.939,55.497 143.454,68.552 
				141.279,70.639 134.131,57.057 			"/>
			
				<linearGradient id="SVGID_12_" gradientUnits="userSpaceOnUse" x1="271.8291" y1="639.4365" x2="274.0045" y2="643.902" gradientTransform="matrix(1 0 0 1 -100 -591)">
				<stop  offset="0" style="stop-color:#6A6669"/>
				<stop  offset="0.1779" style="stop-color:#D0CFCF"/>
				<stop  offset="0.4601" style="stop-color:#C3C3C3"/>
				<stop  offset="1" style="stop-color:#696467"/>
			</linearGradient>
			<polygon fill="url(#SVGID_12_)" points="179.975,51.653 169.365,56.729 165.955,49.884 176.564,44.808 			"/>
			<path fill="none" d="M80.056,87.454c-1.705,0.925-3.411,1.854-5.121,2.778C76.125,90.553,81.037,90.064,80.056,87.454z"/>
			<path fill="none" d="M62.633,117.387c0.128,0.299,0.252,0.594,0.384,0.894c0.436,0.052,0.879,0.09,1.444-0.246
				c-0.319-0.744-0.638-1.49-0.958-2.232C61.457,116.52,64.67,116.672,62.633,117.387z"/>
			<path fill="none" d="M96.348,78.656c-2.15,1.156-4.297,2.315-6.444,3.474c3.874-0.818,8.802-4.558,13.1-6.501
				C101.266,75.301,98.489,77.862,96.348,78.656z"/>
			<path fill="none" d="M92.149,92.425c-1.793,0.82-5.315,2.999-8.52,4.631c-3.682,2.007-7.365,4.012-11.027,6.018
				c5.746-2.939,15.199-6.69,21.016-10.896C96.095,90.388,92.093,92.453,92.149,92.425z"/>
			<path fill="none" d="M111.218,71.233c-0.215-1.208-4.058,0.189-3.03,1.619C108.586,71.675,109.801,72.473,111.218,71.233z"/>
			<path fill="none" d="M25.766,127.869c-1.66,2.851,4.358-1.165,5.771-0.992C31.867,124.354,26.881,129.434,25.766,127.869z"/>
			<path fill="none" d="M38.813,122.268c1.959-0.697,2.012-2.062,3.966-2.763C42.098,119.167,37.893,120.791,38.813,122.268z"/>
			<path fill="none" d="M96.959,87.632c-14.81,6.325-36.514,20.429-53.7,28.271C56.766,111.43,78.774,96.525,96.959,87.632z"/>
			<path fill="none" d="M121.02,65.458c-1.16,0.589-2.359,1.278-3.478,1.854C120.85,66.837,127.624,62.11,121.02,65.458z"/>
			<path fill="none" d="M97.198,86.953c4.971,1.249,12.512-6.286,17.761-7.921c0.083-0.481,0.158-0.967-0.111-1.572
				C110.334,78.974,103.741,83.919,97.198,86.953z"/>
			<path fill="none" d="M102.46,98.324c1.009,0.696,3.036-1.445,4.452-1.871C105.898,95.756,103.872,97.898,102.46,98.324z"/>
			
				<linearGradient id="SVGID_13_" gradientUnits="userSpaceOnUse" x1="20.0601" y1="715.0938" x2="51.6601" y2="719.6735" gradientTransform="matrix(1 0 0 1 -100 -591)">
				<stop  offset="0" style="stop-color:#6A6669"/>
				<stop  offset="0.092" style="stop-color:#AFAFAF"/>
				<stop  offset="0.0934" style="stop-color:#AFAFAF"/>
				<stop  offset="0.1604" style="stop-color:#A3A3A3"/>
				<stop  offset="0.2535" style="stop-color:#9C9C9C"/>
				<stop  offset="0.5031" style="stop-color:#9A9A9A"/>
				<stop  offset="0.6587" style="stop-color:#9D9D9D"/>
				<stop  offset="0.7667" style="stop-color:#A6A6A6"/>
				<stop  offset="0.8589" style="stop-color:#B5B5B5"/>
				<stop  offset="1" style="stop-color:#696467"/>
			</linearGradient>
			<path fill="url(#SVGID_13_)" d="M32.026,121.027c-4.248,1.771-7.654,1.714-10.126,0.613c-1.875,0.221-1.875,2.729-1.875,2.729
				c6.066,8.086,11.306,22.054,12.77,35.29c0.862,0.434,1.683,0.933,3.428,0.843c2.836-8.023-4.496-19.645-2.087-27.826
				c-0.37-0.531,0.698-1.373,1.668-2.049c0.164,0.047,0.322,0.111,0.483,0.168l-4.253-10.179
				C32.032,120.743,32.029,120.879,32.026,121.027z M31.536,126.877c-1.413-0.173-7.43,3.843-5.771,0.992
				C26.881,129.434,31.867,124.354,31.536,126.877z"/>
			
				<linearGradient id="SVGID_14_" gradientUnits="userSpaceOnUse" x1="126.4619" y1="715.457" x2="147.8143" y2="725.2178" gradientTransform="matrix(1 0 0 1 -100 -591)">
				<stop  offset="0" style="stop-color:#6A6669"/>
				<stop  offset="0.092" style="stop-color:#AFAFAF"/>
				<stop  offset="0.0934" style="stop-color:#AFAFAF"/>
				<stop  offset="0.1604" style="stop-color:#A3A3A3"/>
				<stop  offset="0.2535" style="stop-color:#9C9C9C"/>
				<stop  offset="0.5031" style="stop-color:#9A9A9A"/>
				<stop  offset="0.6587" style="stop-color:#9D9D9D"/>
				<stop  offset="0.7667" style="stop-color:#A6A6A6"/>
				<stop  offset="0.8589" style="stop-color:#B5B5B5"/>
				<stop  offset="1" style="stop-color:#696467"/>
			</linearGradient>
			<circle fill="url(#SVGID_14_)" cx="31.148" cy="126.599" r="1.822"/>
			<path opacity="0.42" enable-background="new    " d="M104.688,110.757c0,0,13.304,12.077,21.854,18.601
				c8.552,6.522,15.99,9.343,15.99,9.343l0.651-1.22c0,0-12.373-5.849-24.809-16.926c-11.23-10.004-12.26-10.828-12.26-10.828
				L104.688,110.757z"/>
			<path opacity="0.42" enable-background="new    " d="M107.389,108.176c0,0,13.104,12.25,21.541,18.868
				c8.44,6.619,14.899,9.005,14.899,9.005l0.657-1.224c0,0-11.241-5.703-22.487-15.692c-11.286-10.023-13.183-11.986-13.183-11.986
				L107.389,108.176z"/>
			<path opacity="0.42" enable-background="new    " d="M110.555,105.714c0,0,8.934,9.718,17.082,16.414
				c8.149,6.694,17.78,11.769,17.78,11.769l0.649-1.27c0,0-12.09-6.044-22.735-16.357c-10.646-10.312-11.373-11.639-11.373-11.639
				L110.555,105.714z"/>
			<path opacity="0.15" fill="#A7AEA9" enable-background="new    " d="M179.975,51.653l-0.793-1.59l-0.658-1.42l-1.922-3.832
				c-0.009,0.005-0.02,0.01-0.026,0.015l-0.011-0.018l-9.012,4.312c-1.025,0.47-1.691,0.771-1.742,0.794
				c-2.043-3.616-3.707-6.743-5.334-9.392c-1.828-3.264-3.457-5.998-5.322-8.169c-0.363,0.641-2.18,1.358-3.268,1.753
				c1.059,1.103,1.891,2.304,2.562,3.507c-0.148,0.056-0.29,0.109-0.425,0.157c0.453,0.47,0.854,0.96,1.231,1.459
				c0.776,1.79,1.179,3.492,1.298,4.779c-2.761,1.29-6.715,3.79-10.764,5.94l-0.035-0.054l-0.052,0.1
				c-3.847,2.038-7.772,3.751-10.841,3.79c-2.926,0.902-3.465,2.635-4.717,4.117c-1.567,0.719-3.229,1.504-4.963,2.342l-0.008,0.003
				l-0.003,0.001C108.307,68.403,84.505,81.623,72.5,88.252c-2.624,1.451-13.354,7.9-16.336,8.346c0,0-0.243-0.843-2.279-3.518
				l-10.208,4.937c0.64,1.478,0.621,3.415,1.708,5.049c-4.659,2.318-8.832,3.955-12.589,6.941c-0.962,2.362-1.321,6.301,0.093,8.311
				c-0.82,0.673-0.82,0.549-0.854,2.299c-0.002,0.127-0.005,0.263-0.008,0.41c-4.248,1.771-7.654,1.715-10.126,0.613
				c-1.875,0.221-1.875,2.729-1.875,2.729c0.739,0.984,1.466,2.062,2.175,3.209c-0.036,0.271-0.038,0.455-0.038,0.455
				c0.505,0.672,1.004,1.367,1.499,2.074c4.437,8.117,7.974,19.061,9.134,29.552c0.09,0.653,2.065,3.012,2.137,3.663
				c0.862,0.435,1.683,0.934,3.428,0.844c2.836-8.021-4.496-19.646-2.087-27.826c-0.37-0.531,0.698-1.373,1.668-2.049
				c2.602,0.749,4.797,2.744,7.322,3.699c3.034-1.694,6.076-3.395,9.121-5.092c2.134,2.043,4.486,1.567,6.392,3.182
				c1.658,6.576-4.902,17.25-3.481,23.708c0,0.002,0,0.004,0,0.005c0.031,1.484,2.277,4.702,3.027,5.809
				c2.732,4.06,12.577,0.871,16.482,0.631c0.281-7.246,0.51-14.508,0.035-22.026c-0.071-0.706-0.298-3.377-0.054-6.242
				c5.335-2.646,13.882-1.571,19.248-8.765c0.684-2.672-0.221-5.904-0.303-8.846c4.075-2.761,8.311-6.175,8.615-5.109
				c2.276,0.671,4.293,2.242,5.76,3.949c9.854,11.537,23.115,20.76,36.24,26.058c2.229-2.938,4.385-5.901,5.176-9.228
				c-0.629-0.401-1.9-2.896-2.539-3.305c-11.205-7.173-25.627-13.187-33.957-26.063c-1.92-3.259-3.649-6.832-5.125-10.816
				c-0.281,1.424,61.804-34.605,61.804-34.605l-2.437-3.497l0.297-0.167l-0.308-0.552c1.345-0.604,6.112-2.788,9.654-4.853
				L179.975,51.653z M93.988,129.229c-5.932,3.902-11.532,6.912-16.806,5.756l0.072-0.096c0.631-3.095,1.905-4.34,3.631-5.201
				l0.01-0.018c2.842,2.453,5.767,2.799,7.472,2.122c-1.376-0.546-3.055-2.418-3.877-4.481c0,0,2.318-1.648,4.33-2.899
				c1.784-1.109,3.289-1.834,3.289-1.834s1.462-1.086,2.003-1.188l0.191-0.074C94.673,124.119,94.806,126.842,93.988,129.229z"/>
			
				<linearGradient id="SVGID_15_" gradientUnits="userSpaceOnUse" x1="158.8174" y1="730.2021" x2="175.7633" y2="743.9421" gradientTransform="matrix(1 0 0 1 -100 -591)">
				<stop  offset="0" style="stop-color:#D16E00"/>
				<stop  offset="0.1896" style="stop-color:#B56205"/>
				<stop  offset="0.5959" style="stop-color:#6E4313"/>
				<stop  offset="1" style="stop-color:#222222"/>
			</linearGradient>
			<path fill="url(#SVGID_15_)" d="M60.972,157.58c0,0-2.667-0.697,0.375-11.23c3.079-10.537,4.4-21.375,7.741-15.882
				c3.327,5.495,4.95,24.781,3.276,26.901C70.694,159.488,61.148,161.456,60.972,157.58z"/>
			
				<linearGradient id="SVGID_16_" gradientUnits="userSpaceOnUse" x1="163.7773" y1="729.2256" x2="181.0241" y2="737.1096" gradientTransform="matrix(1 0 0 1 -100 -591)">
				<stop  offset="0" style="stop-color:#6A6669"/>
				<stop  offset="0.092" style="stop-color:#AFAFAF"/>
				<stop  offset="0.0934" style="stop-color:#AFAFAF"/>
				<stop  offset="0.1604" style="stop-color:#A3A3A3"/>
				<stop  offset="0.2535" style="stop-color:#9C9C9C"/>
				<stop  offset="0.5031" style="stop-color:#9A9A9A"/>
				<stop  offset="0.6587" style="stop-color:#9D9D9D"/>
				<stop  offset="0.7667" style="stop-color:#A6A6A6"/>
				<stop  offset="0.8589" style="stop-color:#B5B5B5"/>
				<stop  offset="1" style="stop-color:#696467"/>
			</linearGradient>
			<circle fill="url(#SVGID_16_)" cx="67.562" cy="139.956" r="1.47"/>
			
				<linearGradient id="SVGID_17_" gradientUnits="userSpaceOnUse" x1="162.6768" y1="743.5352" x2="179.9148" y2="751.4152" gradientTransform="matrix(1 0 0 1 -100 -591)">
				<stop  offset="0" style="stop-color:#6A6669"/>
				<stop  offset="0.092" style="stop-color:#AFAFAF"/>
				<stop  offset="0.0934" style="stop-color:#AFAFAF"/>
				<stop  offset="0.1604" style="stop-color:#A3A3A3"/>
				<stop  offset="0.2535" style="stop-color:#9C9C9C"/>
				<stop  offset="0.5031" style="stop-color:#9A9A9A"/>
				<stop  offset="0.6587" style="stop-color:#9D9D9D"/>
				<stop  offset="0.7667" style="stop-color:#A6A6A6"/>
				<stop  offset="0.8589" style="stop-color:#B5B5B5"/>
				<stop  offset="1" style="stop-color:#696467"/>
			</linearGradient>
			<circle fill="url(#SVGID_17_)" cx="66.46" cy="154.265" r="1.47"/>
		</g>
	</g>
</g>
<g id="outline_x5F_white">
	<g>
		<path fill="#FFFFFF" d="M155.154,32.353c1.865,2.171,3.494,4.906,5.322,8.169c1.625,2.648,3.289,5.776,5.334,9.392
			c0.051-0.023,0.715-0.324,1.739-0.794l9.015-4.312l0.009,0.018c0.009-0.005,0.021-0.01,0.028-0.015l1.922,3.832l0.658,1.42
			l0.793,1.59l-1.065,0.51c-3.542,2.064-8.312,4.248-9.654,4.853l0.308,0.552l-0.297,0.167l2.437,3.497
			c0,0-59.705,34.646-61.75,34.646c-0.019,0-0.031-0.002-0.041-0.008c-0.004-0.011-0.009-0.022-0.013-0.033
			c-0.004,0.015,0,0.026,0.013,0.033c1.473,3.971,3.196,7.535,5.112,10.784c8.33,12.879,22.752,18.893,33.957,26.063
			c0.639,0.406,1.91,2.901,2.539,3.306c-0.791,3.324-2.945,6.287-5.176,9.227c-13.126-5.298-26.389-14.52-36.24-26.059
			c-1.467-1.705-3.481-3.277-5.761-3.948c-0.038-0.138-0.143-0.199-0.302-0.199c-1.085,0-4.76,2.903-8.312,5.31
			c0.082,2.94,0.987,6.174,0.303,8.847c-5.365,7.19-13.912,6.118-19.248,8.765c-0.244,2.865-0.018,5.536,0.054,6.242
			c0.475,7.52,0.246,14.779-0.035,22.025c-2.408,0.147-7.074,1.416-10.938,1.416c-2.403,0-4.497-0.488-5.544-2.047
			c-0.75-1.104-2.996-4.32-3.027-5.808c0-0.001,0-0.003,0-0.005c-1.42-6.458,5.14-17.132,3.481-23.708
			c-1.905-1.612-4.258-1.138-6.392-3.181c-3.045,1.697-6.087,3.396-9.121,5.091c-2.524-0.955-4.72-2.95-7.322-3.699
			c-0.971,0.676-2.039,1.517-1.668,2.049c-2.409,8.183,4.923,19.804,2.087,27.826c-0.139,0.007-0.272,0.011-0.401,0.011
			c-1.475,0-2.233-0.455-3.027-0.854c-0.072-0.651-2.047-3.01-2.137-3.663c-1.16-10.491-4.697-21.433-9.134-29.55
			c-0.495-0.709-0.994-1.404-1.499-2.076c0,0,0.001-0.186,0.038-0.455c-0.709-1.148-1.436-2.225-2.175-3.209
			c0,0,0-2.508,1.875-2.729c1.115,0.496,2.419,0.778,3.906,0.778c1.81,0,3.888-0.421,6.22-1.396
			c0.003-0.146,0.006-0.282,0.008-0.409c0.034-1.75,0.034-1.626,0.854-2.3c-1.414-2.01-1.055-5.945-0.093-8.31
			c3.757-2.987,7.93-4.623,12.589-6.942c-1.087-1.637-1.068-3.571-1.708-5.048l10.208-4.937c2.037,2.675,2.279,3.518,2.279,3.518
			c2.982-0.446,13.712-6.895,16.336-8.346c12.005-6.629,35.807-19.849,52.673-28.004l0.003-0.001l0.008-0.003
			c1.732-0.838,3.396-1.624,4.961-2.342c1.254-1.482,1.791-3.215,4.719-4.117c3.066-0.039,6.992-1.752,10.841-3.79l0.052-0.1
			l0.035,0.054c4.049-2.15,8.003-4.651,10.764-5.94c-0.119-1.288-0.521-2.989-1.298-4.779c-0.377-0.499-0.778-0.989-1.229-1.459
			c0.133-0.048,0.272-0.101,0.422-0.157c-0.668-1.203-1.5-2.404-2.559-3.507C152.975,33.711,154.789,32.994,155.154,32.353
			 M81.455,130.124c-0.183-0.142-0.367-0.291-0.549-0.449c-0.007,0.005-0.015,0.009-0.021,0.015
			C81.07,129.841,81.261,129.984,81.455,130.124 M155.154,20.353c-0.381,0-0.764,0.018-1.147,0.055
			c-2.241,0.215-4.342,1.052-6.089,2.372c-0.041,0.016-0.085,0.031-0.13,0.048c-3.813,1.386-6.67,4.606-7.589,8.56
			c-0.596,2.557-0.328,5.197,0.695,7.534c-0.608,0.27-1.193,0.59-1.75,0.956c-3.029,1.541-4.313,1.853-4.623,1.911
			c-1.084,0.031-2.158,0.208-3.194,0.528c-4.624,1.425-7.369,4.036-8.962,5.972c-0.76,0.359-1.541,0.733-2.342,1.12
			c-0.024,0.012-0.049,0.024-0.074,0.036l0,0c-16.209,7.837-38.058,19.909-51.112,27.122l-2.138,1.181
			c-0.512,0.283-1.295,0.732-2.258,1.287c-2.141,1.232-3.994,2.278-5.556,3.137c-1.568-0.718-3.278-1.092-5.006-1.092
			c-1.764,0-3.546,0.389-5.219,1.198l-10.208,4.937c-3.747,1.812-6.138,5.326-6.667,9.181c-2.139,1.162-4.299,2.505-6.458,4.223
			c-1.613,1.281-2.868,2.959-3.645,4.867c-0.513,1.259-0.954,2.699-1.266,4.248c-7.185,0.889-12.391,7.029-12.391,14.638
			c0,2.597,0.843,5.124,2.401,7.201c0.169,0.226,0.34,0.462,0.512,0.708c0.398,1.054,0.946,2.052,1.631,2.964
			c0.268,0.356,0.554,0.749,0.869,1.192c3.738,7.049,6.503,16.168,7.43,24.543c0.012,0.104,0.024,0.209,0.039,0.312
			c0.429,3.125,1.937,5.332,3.038,6.943c0.04,0.059,0.079,0.115,0.119,0.173c1.125,2.401,3.032,4.401,5.468,5.63l0.13,0.064
			c1.212,0.621,4.052,2.072,8.298,2.072c0.325,0,0.663-0.009,1.016-0.025c4.175-0.215,7.885-2.576,9.872-6.149
			c0.46,0.731,0.939,1.45,1.421,2.157l0.121,0.178c2.233,3.316,6.753,7.312,15.476,7.312c3.417,0,6.722-0.588,9.377-1.062
			c0.827-0.146,1.958-0.348,2.343-0.383c6.151-0.378,10.97-5.353,11.208-11.511c0.253-6.543,0.455-12.993,0.199-19.686
			c5.088-1.353,11.651-3.929,16.655-10.638c0.633-0.847,1.146-1.771,1.535-2.748c9.885,9.671,21.938,17.614,34.668,22.753
			c1.459,0.589,2.98,0.873,4.485,0.873c3.674,0,7.245-1.689,9.565-4.751c2.339-3.084,5.871-7.745,7.287-13.702
			c0.936-3.934-0.183-7.992-2.821-10.877c-0.028-0.043-0.058-0.087-0.085-0.13c-0.999-1.521-2.367-3.603-4.854-5.188
			c-2.732-1.75-5.611-3.416-8.395-5.027c-8.34-4.832-16.239-9.408-21.198-16.346c5.026-2.77,11.955-6.692,21.696-12.25
			c15.047-8.584,30.035-17.28,30.185-17.367c2.901-1.684,4.966-4.505,5.692-7.78c0.035-0.161,0.068-0.323,0.098-0.485
			c0.335-0.185,0.667-0.371,0.993-0.557l0.647-0.31c2.9-1.388,5.125-3.883,6.17-6.925s0.824-6.376-0.609-9.254l-0.716-1.436
			l-0.587-1.266c-0.053-0.112-0.105-0.224-0.161-0.335l-1.923-3.832c-1.463-2.917-4.051-5.112-7.168-6.08
			c-1.035-0.322-2.101-0.499-3.164-0.534c-0.15-0.005-0.301-0.008-0.451-0.008c-1.732,0-3.493,0.377-5.158,1.174l-0.646,0.309
			c-1.848-3.29-3.879-6.728-6.481-9.758C161.966,21.866,158.634,20.353,155.154,20.353L155.154,20.353z"/>
	</g>
</g>
<g id="outline_x5F_black">
	<g>
		<path d="M155.154,32.353c1.865,2.171,3.494,4.906,5.322,8.169c1.625,2.648,3.289,5.776,5.334,9.392
			c0.051-0.023,0.715-0.324,1.739-0.794l9.015-4.312l0.009,0.018c0.009-0.005,0.021-0.01,0.028-0.015l1.922,3.832l0.658,1.42
			l0.793,1.59l-1.065,0.51c-3.542,2.064-8.312,4.248-9.654,4.853l0.308,0.552l-0.297,0.167l2.437,3.497
			c0,0-59.705,34.646-61.75,34.646c-0.019,0-0.031-0.002-0.041-0.008c-0.004-0.011-0.009-0.022-0.013-0.033
			c-0.004,0.015,0,0.026,0.013,0.033c1.473,3.971,3.196,7.535,5.112,10.784c8.33,12.879,22.752,18.893,33.957,26.063
			c0.639,0.406,1.91,2.901,2.539,3.306c-0.791,3.324-2.945,6.287-5.176,9.227c-13.126-5.298-26.389-14.52-36.24-26.059
			c-1.467-1.705-3.481-3.277-5.761-3.948c-0.038-0.138-0.143-0.199-0.302-0.199c-1.085,0-4.76,2.903-8.312,5.31
			c0.082,2.94,0.987,6.174,0.303,8.847c-5.365,7.19-13.912,6.118-19.248,8.765c-0.244,2.865-0.018,5.536,0.054,6.242
			c0.475,7.52,0.246,14.779-0.035,22.025c-2.408,0.147-7.074,1.416-10.938,1.416c-2.403,0-4.497-0.488-5.544-2.047
			c-0.75-1.104-2.996-4.32-3.027-5.808c0-0.001,0-0.003,0-0.005c-1.42-6.458,5.14-17.132,3.481-23.708
			c-1.905-1.612-4.258-1.138-6.392-3.181c-3.045,1.697-6.087,3.396-9.121,5.091c-2.524-0.955-4.72-2.95-7.322-3.699
			c-0.971,0.676-2.039,1.517-1.668,2.049c-2.409,8.183,4.923,19.804,2.087,27.826c-0.139,0.007-0.272,0.011-0.4,0.011
			c-1.476,0-2.234-0.455-3.027-0.854c-0.072-0.651-2.047-3.01-2.137-3.663c-1.16-10.491-4.697-21.433-9.134-29.55
			c-0.495-0.709-0.994-1.404-1.499-2.076c0,0,0.001-0.186,0.038-0.455c-0.709-1.148-1.436-2.225-2.175-3.209
			c0,0,0-2.508,1.875-2.729c1.115,0.496,2.419,0.778,3.906,0.778c1.81,0,3.888-0.421,6.22-1.396
			c0.003-0.146,0.006-0.282,0.008-0.409c0.034-1.75,0.034-1.626,0.854-2.3c-1.414-2.01-1.055-5.945-0.093-8.31
			c3.757-2.987,7.93-4.623,12.589-6.942c-1.087-1.637-1.068-3.571-1.708-5.048l10.208-4.937c2.037,2.675,2.279,3.518,2.279,3.518
			c2.982-0.446,13.712-6.895,16.336-8.346c12.005-6.629,35.808-19.849,52.673-28.004l0.003-0.001l0.007-0.003
			c1.733-0.838,3.396-1.624,4.963-2.342c1.252-1.482,1.791-3.215,4.717-4.117c3.066-0.039,6.994-1.752,10.842-3.79l0.052-0.1
			l0.035,0.054c4.049-2.15,8.003-4.651,10.765-5.94c-0.119-1.288-0.521-2.989-1.299-4.779c-0.377-0.499-0.777-0.989-1.23-1.459
			c0.133-0.048,0.273-0.101,0.424-0.157c-0.67-1.203-1.502-2.404-2.561-3.507C152.975,33.711,154.789,32.994,155.154,32.353
			 M81.455,130.124c-0.183-0.142-0.367-0.291-0.549-0.449c-0.007,0.005-0.015,0.009-0.021,0.015
			C81.07,129.841,81.261,129.984,81.455,130.124 M155.154,26.353c-0.19,0-0.383,0.009-0.574,0.027
			c-1.342,0.129-2.583,0.704-3.541,1.606c-0.227,0.104-0.605,0.265-1.202,0.481c-1.907,0.693-3.334,2.303-3.794,4.28
			s0.109,4.051,1.516,5.515c0.199,0.208,0.394,0.426,0.576,0.658c0.159,0.814,0.486,1.593,0.969,2.283
			c-0.383,0.219-0.771,0.442-1.162,0.667c-1.379,0.792-2.799,1.607-4.223,2.381c-0.533,0.192-1.037,0.459-1.492,0.791
			c-4.324,2.233-6.43,2.73-7.438,2.743c-0.574,0.007-1.146,0.097-1.69,0.266c-3.945,1.217-5.764,3.519-6.854,5.046
			c-1.149,0.537-2.364,1.114-3.628,1.725c-0.02,0.008-0.035,0.017-0.053,0.025l0,0C106.5,62.613,84.739,74.636,71.738,81.819
			L69.599,83c-0.489,0.27-1.241,0.702-2.166,1.235c-3.847,2.214-6.846,3.871-8.976,4.961c-1.164-1.372-2.851-2.116-4.576-2.116
			c-0.881,0-1.773,0.194-2.609,0.599l-10.208,4.937c-2.753,1.332-4.042,4.502-3.063,7.348c-3.001,1.452-6.049,3.052-8.939,5.351
			c-0.806,0.643-1.434,1.479-1.823,2.435c-0.984,2.418-1.537,5.628-1.177,8.67c-0.086,0.003-0.171,0.005-0.255,0.005
			c-0.582,0-1.075-0.088-1.465-0.262c-0.771-0.344-1.603-0.52-2.44-0.52c-0.234,0-0.468,0.015-0.702,0.041
			c-4.709,0.556-7.173,4.789-7.173,8.688c0,1.299,0.421,2.562,1.201,3.603c0.378,0.504,0.761,1.049,1.144,1.625
			c0.198,0.732,0.534,1.428,0.996,2.043c0.363,0.481,0.753,1.021,1.187,1.637c4.17,7.736,7.259,17.818,8.279,27.043
			c0.006,0.054,0.013,0.104,0.02,0.158c0.237,1.725,1.117,3.013,2.048,4.375c0.136,0.197,0.32,0.469,0.449,0.666
			c0.533,1.354,1.55,2.489,2.884,3.164l0.161,0.082c0.966,0.492,2.766,1.414,5.566,1.414c0.227,0,0.462-0.008,0.709-0.021
			c2.427-0.125,4.539-1.701,5.349-3.992c2.039-5.771,0.541-12.035-0.78-17.563c-0.441-1.848-0.89-3.723-1.171-5.449
			c0.346,0.158,0.704,0.311,1.074,0.449c0.686,0.261,1.406,0.39,2.123,0.39c1.013,0,2.021-0.257,2.926-0.763
			c2.029-1.133,4.062-2.269,6.097-3.402c0.217,0.087,0.427,0.165,0.631,0.236c-0.296,1.937-1.01,4.381-1.626,6.488
			c-1.371,4.688-2.786,9.533-1.949,14.066c0.268,2.428,1.652,4.882,3.886,8.162l0.127,0.188c2.086,3.1,5.626,4.68,10.51,4.68
			c2.888,0,5.904-0.535,8.327-0.969c1.172-0.207,2.385-0.424,2.98-0.461c3.075-0.188,5.507-2.677,5.627-5.756
			c0.292-7.535,0.514-14.938,0.027-22.637c-0.005-0.075-0.011-0.15-0.019-0.225c-0.011-0.11-0.057-0.588-0.092-1.285
			c0.478-0.111,0.974-0.223,1.477-0.334c4.947-1.094,11.722-2.594,16.648-9.197c0.468-0.628,0.81-1.342,1.003-2.1
			c0.674-2.629,0.447-5.152,0.184-7.414c0.037-0.026,0.076-0.054,0.113-0.08c0.617-0.438,1.346-0.954,2.002-1.406
			c0.487,0.357,0.974,0.809,1.412,1.318c10.057,11.776,24.108,21.884,38.543,27.709c0.729,0.295,1.491,0.437,2.243,0.437
			c1.837,0,3.623-0.844,4.783-2.375c2.69-3.551,5.192-7.099,6.229-11.464c0.498-2.092-0.164-4.255-1.672-5.707
			c-0.123-0.18-0.289-0.432-0.412-0.618c-0.816-1.244-1.662-2.53-3.062-3.425c-2.629-1.684-5.449-3.314-8.176-4.896
			c-8.963-5.19-18.229-10.561-23.905-19.267c-0.896-1.528-1.717-3.08-2.474-4.673c4.697-2.474,12.703-6.952,26.912-15.059
			c15.025-8.573,29.996-17.258,30.146-17.345c1.45-0.842,2.481-2.252,2.847-3.89c0.207-0.936,0.188-1.897-0.051-2.806
			c1.4-0.707,2.868-1.481,4.205-2.252l0.852-0.408c1.451-0.694,2.562-1.941,3.084-3.462c0.523-1.521,0.414-3.188-0.305-4.627
			l-0.754-1.513l-0.621-1.343c-0.027-0.057-0.055-0.112-0.082-0.167l-1.922-3.832c-0.732-1.463-2.033-2.562-3.597-3.044
			c-0.558-0.172-1.132-0.26-1.704-0.266c-0.038-0.001-0.077-0.001-0.116-0.001c-0.864,0-1.741,0.188-2.573,0.585l-5.653,2.706
			c-0.91-1.632-1.79-3.183-2.666-4.614c-2.116-3.773-3.854-6.608-5.947-9.044C158.561,27.11,156.895,26.353,155.154,26.353
			L155.154,26.353z"/>
	</g>
</g>
</svg>
