<?xml version="1.0" encoding="utf-8"?>
<!-- Generator: Adobe Illustrator 15.0.0, SVG Export Plug-In . SVG Version: 6.00 Build 0)  -->
<!DOCTYPE svg PUBLIC "-//W3C//DTD SVG 1.1//EN" "http://www.w3.org/Graphics/SVG/1.1/DTD/svg11.dtd">
<svg version="1.1" xmlns="http://www.w3.org/2000/svg" xmlns:xlink="http://www.w3.org/1999/xlink" x="0px" y="0px" width="200px"
	 height="200px" viewBox="0 0 200 200" enable-background="new 0 0 200 200" xml:space="preserve">
<g id="icon">
	<g id="Layer_2">
	</g>
	<g>
		
			<linearGradient id="SVGID_1_" gradientUnits="userSpaceOnUse" x1="171.6201" y1="732.7578" x2="176.6201" y2="744.7579" gradientTransform="matrix(1 0 0 1 -100 -591)">
			<stop  offset="0" style="stop-color:#263639"/>
			<stop  offset="1" style="stop-color:#919F4E"/>
		</linearGradient>
		<path fill="url(#SVGID_1_)" d="M77.939,122.129c0,0-6.406,11.393,0,20.646c6.407,9.254,0.714,24.918-3.559,28.479
			c-4.271,3.559-6.408-3.561-6.408-3.561s7.831-3.562,4.273-17.086c-3.562-13.527-9.257-19.225-4.986-25.631
			C71.533,118.572,77.939,122.129,77.939,122.129z"/>
		
			<linearGradient id="SVGID_2_" gradientUnits="userSpaceOnUse" x1="237.5771" y1="720.9775" x2="236.5773" y2="732.2265" gradientTransform="matrix(1 0 0 1 -100 -591)">
			<stop  offset="0" style="stop-color:#263639"/>
			<stop  offset="1" style="stop-color:#919F4E"/>
		</linearGradient>
		<path fill="url(#SVGID_2_)" d="M133.605,122.527c0,0-6.408-3.562-4.271,1.425c2.137,4.983-4.271,14.954,4.271,19.937
			c8.541,4.983,12.103,0,12.103,0l-4.271-4.271c0,0-6.406,4.981-7.119-4.271C133.605,126.088,133.605,122.527,133.605,122.527z"/>
		
			<radialGradient id="SVGID_3_" cx="200.0439" cy="785.0977" r="107.3106" fx="199.7094" fy="751.1637" gradientTransform="matrix(1 0 0 0.8338 -100 -578.3185)" gradientUnits="userSpaceOnUse">
			<stop  offset="0" style="stop-color:#98AA75"/>
			<stop  offset="0.0875" style="stop-color:#92A472"/>
			<stop  offset="0.2019" style="stop-color:#82946A"/>
			<stop  offset="0.3312" style="stop-color:#68795C"/>
			<stop  offset="0.4705" style="stop-color:#435348"/>
			<stop  offset="0.5644" style="stop-color:#263639"/>
			<stop  offset="0.9141" style="stop-color:#47584B"/>
		</radialGradient>
		<path fill="url(#SVGID_3_)" d="M171.339,105.576c-3.562-4.982-4.245-7.508-4.272-9.255c0.543-6.571,0.713-7.831,0.49-12.191
			C165.759,48.405,136.475,20,100.611,20c-37.015,0-67.023,30.268-67.023,67.611c0,14.881-12.246,25.097-10.569,31.02
			c2.518,14.238,16.797,13.629,32.274,12.34c22.782-1.897,16.396-12.391,81.637-5.695
			C173.949,129.07,185.577,119.104,171.339,105.576z"/>
		
			<radialGradient id="SVGID_4_" cx="201.333" cy="722.1211" r="103.8407" fx="201.4135" fy="718.1388" gradientTransform="matrix(1 0 0 0.8338 -100 -585.4973)" gradientUnits="userSpaceOnUse">
			<stop  offset="0" style="stop-color:#ACBB75"/>
			<stop  offset="1" style="stop-color:#98AA75;stop-opacity:0"/>
		</radialGradient>
		<path fill="url(#SVGID_4_)" d="M150.434,84.588c-2.518-3.521-3-5.306-3.021-6.54c0.383-4.645,0.503-5.535,0.346-8.616
			c-1.271-25.25-21.967-45.325-47.313-45.325c-26.161,0-47.37,21.393-47.37,47.785c0,10.518-8.655,17.737-7.47,21.924
			c1.779,10.063,11.872,9.633,22.81,8.722c16.102-1.343,11.588-8.758,57.697-4.025C152.277,101.193,160.496,94.149,150.434,84.588z"
			/>
		
			<radialGradient id="SVGID_5_" cx="199.0439" cy="1411.2559" r="177.3082" gradientTransform="matrix(1 0 0 0.4303 -100 -569.4674)" gradientUnits="userSpaceOnUse">
			<stop  offset="0.5092" style="stop-color:#263639;stop-opacity:0"/>
			<stop  offset="0.8405" style="stop-color:#263639"/>
			<stop  offset="1" style="stop-color:#47584B"/>
		</radialGradient>
		<path fill="url(#SVGID_5_)" d="M171.339,105.576c-3.562-4.982-4.245-7.508-4.272-9.255c0.543-6.571,0.713-7.831,0.49-12.191
			C165.759,48.405,136.475,20,100.611,20c-37.015,0-67.023,30.268-67.023,67.611c0,14.881-12.246,25.097-10.569,31.02
			c2.518,14.238,16.797,13.629,32.274,12.34c22.782-1.897,16.396-12.391,81.637-5.695
			C173.949,129.07,185.577,119.104,171.339,105.576z"/>
		<path d="M167.066,96.321c-6.012,2.054-24.189,6.519-68.108,3.323c0,0,49.362-1.188,64.549-6.883
			c2.829-1.06,3.815-2.317,4.103-4.029C167.607,88.732,167.094,98.068,167.066,96.321z"/>
		
			<radialGradient id="SVGID_6_" cx="168.4414" cy="696.916" r="4.834" gradientTransform="matrix(1 0 0 1 -100 -591)" gradientUnits="userSpaceOnUse">
			<stop  offset="0" style="stop-color:#FFFFFF"/>
			<stop  offset="1" style="stop-color:#787878"/>
		</radialGradient>
		<circle fill="url(#SVGID_6_)" cx="68.442" cy="105.916" r="4.834"/>
		
			<radialGradient id="SVGID_7_" cx="200" cy="708.9473" r="57.018" gradientTransform="matrix(1 0 0 1 -100 -591)" gradientUnits="userSpaceOnUse">
			<stop  offset="0" style="stop-color:#98AA75"/>
			<stop  offset="0.2791" style="stop-color:#92A472"/>
			<stop  offset="0.6429" style="stop-color:#82946A"/>
			<stop  offset="1" style="stop-color:#6B7D5E"/>
		</radialGradient>
		<path fill="url(#SVGID_7_)" d="M43.772,133.611c-10.632,0-20.525-2.469-22.707-14.541c-0.886-3.355,1.795-9.695,8.238-15.657
			c0,0-1.875,3.426-2.318,4.212c-2.006,3.559-2.547,8.68-2.042,10.461l0.045,0.197c2.136,12.08,13.838,12.053,30.139,10.693
			c6.794-0.566,10.905-1.925,15.257-3.36c9.944-3.282,21.216-7.003,66.75-2.331c24.691,2.533,35.666-1.305,37.706-5.74
			c1.639-3.562-0.803-7.957-3.501-11.969l-2.159-3.292c10.557,7.091,10.698,13.878,9.295,16.932
			c-3.492,7.593-18.315,10.452-41.748,8.05c-44.685-4.588-55.522-1.008-65.087,2.148c-4.584,1.514-8.913,2.943-16.179,3.549
			C51.694,133.277,47.683,133.611,43.772,133.611z"/>
		
			<radialGradient id="SVGID_8_" cx="200.0684" cy="706.9316" r="54.1137" gradientTransform="matrix(1 0 0 1 -100 -591)" gradientUnits="userSpaceOnUse">
			<stop  offset="0" style="stop-color:#263639"/>
			<stop  offset="0.5644" style="stop-color:#263639"/>
		</radialGradient>
		<path opacity="0.5" fill="url(#SVGID_8_)" enable-background="new    " d="M44.173,127.398c-10.632,0-15.442-1.76-17.688-8.773
			c-0.886-3.355-0.307-9.301,2.818-15.212c0,0-1.875,3.426-2.318,4.212c-2.006,3.559-2.547,8.68-2.042,10.461l0.045,0.197
			c2.136,12.08,13.838,12.053,30.139,10.693c6.794-0.566,10.905-1.925,15.257-3.36c9.944-3.282,21.216-7.003,66.75-2.331
			c24.691,2.533,35.666-1.305,37.706-5.74c1.639-3.562-0.803-7.957-3.501-11.969l-2.159-3.292c4.519,7.169,5.45,11.909,3.807,14.841
			c-2.211,3.939-12.252,6.574-35.684,4.172c-44.685-4.588-53.004-1.828-62.567,1.328c-4.584,1.514-11.609,3.52-18.875,4.125
			C52.097,127.062,48.084,127.398,44.173,127.398z"/>
		
			<linearGradient id="SVGID_9_" gradientUnits="userSpaceOnUse" x1="126.7441" y1="-54.437" x2="130.149" y2="-13.5788" gradientTransform="matrix(1 0 0 -1 -50 61)">
			<stop  offset="0" style="stop-color:#7BA973"/>
			<stop  offset="0.4417" style="stop-color:#527258"/>
			<stop  offset="0.7362" style="stop-color:#6AA46D"/>
			<stop  offset="1" style="stop-color:#9DB381"/>
		</linearGradient>
		<path fill="url(#SVGID_9_)" d="M101.675,118.488c0,0-2.147-13.598-11.647-16.661c-9.5-3.064-7.5-15.064-7.5-15.064l7.5-3.943
			c0,0,0.5,3.443,4,4.443s7.5-6.41,2-10.705c-5.5-4.295-7-4.743-6.5-9.019s-7.517,3.271-17.224-2.335
			c-9.706-5.606-18.346,2.63-16.775,5.762c1.569,3.132,4.278,4.204,8.778,1.96c4.5-2.242,10.126,9.66,10.126,9.66l-1.407,5.764
			c0,0-7.51-1.252-9.255-4.499s-5.986,1.429-5.986,1.429s-6.259,8.229-2.259,9.777c4,1.547,8.082-0.309,8.082-0.309l8.418,0.271
			c0,0,12.664,13.745,14.083,16.495c1.419,2.748,9.919,8.881,9.919,8.881L101.675,118.488z"/>
		
			<linearGradient id="SVGID_10_" gradientUnits="userSpaceOnUse" x1="196.6191" y1="19.416" x2="178.6191" y2="2.916" gradientTransform="matrix(1 0 0 -1 -50 61)">
			<stop  offset="0" style="stop-color:#6AA46D"/>
			<stop  offset="1" style="stop-color:#9DB381"/>
		</linearGradient>
		<path fill="url(#SVGID_10_)" d="M142.671,34.967l-3.187,9.861c0,0-2.653,2.828-6.201,0C129.734,42,123.234,34.5,119.734,38.5
			s-6.489,8.17-10.494,7.585c-4.006-0.585,0.494,13.16,6.494,9.788s11.5-11.398,11.5-5.885c0,5.513,3.097,4.824,6.049,6.418
			c2.951,1.594,6.322,0.406,9.388,0c3.063-0.406,3.742,1.243,4.415,7.134c0.673,5.892,6.866,4.552,7.508-0.994
			c0.643-5.546,0-12.559,0-12.559l0.285-2.069C154.879,47.918,151.396,40.995,142.671,34.967z"/>
		
			<radialGradient id="SVGID_11_" cx="178.2354" cy="633.999" r="98.2053" gradientTransform="matrix(1 0 0 1 -100 -591)" gradientUnits="userSpaceOnUse">
			<stop  offset="0" style="stop-color:#98AA75"/>
			<stop  offset="0.0875" style="stop-color:#92A472"/>
			<stop  offset="0.2019" style="stop-color:#82946A"/>
			<stop  offset="0.3312" style="stop-color:#68795C"/>
			<stop  offset="0.4705" style="stop-color:#435348"/>
			<stop  offset="0.5644" style="stop-color:#263639"/>
			<stop  offset="0.9141" style="stop-color:#47584B"/>
		</radialGradient>
		<path fill="url(#SVGID_11_)" d="M59.438,34.26c4.759-3.716,11.03-7.05,11.03-7.05s4.518-0.21,1.768,5.04s4.5,7.25,5.25,7.25
			s8-2.75,8-2.75L96.22,39.5c0,0,1.016,5.25-1.484,6.25s-11.289,0-11.289,0s8.789,4,7.289,6.5s-7.75,6.75-11,3.75s-4-8.5-7.75-8.75
			s-9.5-5.25-11.5-2s0,10-4,10.75s-8.75-0.25-8.75-0.25l3-9.75l-0.476-3.009C50.26,42.991,54.124,38.41,59.438,34.26z"/>
		<path opacity="0.51" fill="#421C00" enable-background="new    " d="M172.984,117.125c0,0-5.25-8.898-12.25-8.762
			c-7,0.136-10.5-7.281-10.5-7.281V92.85l-4.526-17.055l-16.812-2.854c0,0-4.336,10.559,0,12.059c4.338,1.5,8.404,5.243,8.404,5.243
			l2.434,12.731l-10.838,1.81l-1.926,5.967l6.312,3.556l4.02-5.941l8.405,3.521l15.018,9.994
			C160.725,121.88,167.455,121.438,172.984,117.125z"/>
		<path opacity="0.51" fill="#421C00" enable-background="new    " d="M33.604,86.248l5.132,5.598l1.5,5.565c0,0-3.5,9.339,0,10.589
			s9.5,1.5,9.5,1.5v4.75l-4.241,3.697h-7.759l-6.5-5.197l-2.735-7.792C28.5,104.958,32.297,98.316,33.604,86.248z"/>
	</g>
</g>
<g id="outline_x5F_white">
	<g>
		<g>
			<path fill="#FFFFFF" d="M100.611,20c35.863,0,65.146,28.405,66.943,64.13c0.223,4.36,0.053,5.62-0.488,12.191
				c0.025,1.747,0.711,4.272,4.271,9.255l-2.157-3.292c10.555,7.091,10.696,13.878,9.293,16.932
				c-2.686,5.839-12.07,8.878-26.921,8.878c-4.461,0-9.413-0.273-14.827-0.828c-1.011-0.104-1.982-0.199-2.959-0.295
				c0.104,2.006,0.271,4.748,0.551,8.375c0.344,4.456,2.008,5.611,3.64,5.611c1.758,0,3.479-1.34,3.479-1.34l4.271,4.271
				c0,0-1.581,2.215-5.168,2.215c-1.792,0-4.087-0.556-6.937-2.215c-7.217-4.209-3.766-11.979-3.808-17.295
				c-11.874-1.076-21.073-1.512-28.385-1.512c-13.174,0-20.209,1.413-25.686,3.032c-0.973,4.104-1.228,9.688,2.212,14.657
				c6.407,9.256,0.714,24.918-3.559,28.479c-0.854,0.712-1.623,0.996-2.306,0.996c-2.734,0-4.102-4.558-4.102-4.558
				s7.831-3.561,4.273-17.086c-2.42-9.19-5.821-14.767-6.416-19.404c-2.879,0.771-6.122,1.406-10.371,1.761
				c-3.765,0.313-7.776,0.647-11.687,0.647c-10.632,0-20.525-2.469-22.707-14.541c-0.886-3.354,1.795-9.694,8.238-15.655
				c2.277-4.521,4.284-9.779,4.284-15.803C33.588,50.268,63.597,20,100.611,20 M26.525,108.531c0.894-1.586,1.857-3.289,2.777-5.115
				c-0.019,0.035-1.876,3.427-2.316,4.209C26.821,107.916,26.67,108.223,26.525,108.531 M100.611,8
				C57.038,8,21.588,43.713,21.588,87.611c0,2.633-0.679,5.364-2.176,8.681c-8.127,8.231-11.852,17.515-10.086,25.281
				c1.732,9.04,6.696,15.928,14.374,19.934c5.367,2.8,11.745,4.104,20.073,4.104c4.424,0,8.813-0.366,12.686-0.69
				c0.406-0.032,0.809-0.069,1.208-0.108c1.039,2.66,2.084,5.463,2.976,8.853c0.506,1.923,0.57,3.222,0.517,3.944l-7.692,3.496
				l3.014,10.039c2.39,7.961,8.512,13.105,15.595,13.105c2.488,0,6.24-0.654,9.987-3.775c8.763-7.304,15.175-28.39,6.849-42.785
				c3.276-0.368,7.329-0.604,12.502-0.604c4.573,0,9.821,0.188,15.687,0.561c0.065,0.793,0.17,1.604,0.325,2.426
				c1.144,6.08,4.648,10.986,10.136,14.187c4.379,2.554,8.746,3.849,12.979,3.849c7.198,0,12.435-3.738,14.935-7.239l5.906-8.271
				l-2.734-2.734c16.158-1.146,26.481-6.387,30.729-15.627c3.421-7.438,2.556-19.266-10.142-29.44
				c0.396-4.751,0.535-6.759,0.306-11.271C177.41,41.175,142.741,8,100.611,8L100.611,8z"/>
		</g>
	</g>
</g>
<g id="outline_x5F_black">
	<g>
		<path d="M100.611,20c35.863,0,65.146,28.405,66.943,64.13c0.223,4.36,0.053,5.62-0.488,12.191
			c0.025,1.747,0.711,4.272,4.271,9.255l-2.157-3.292c10.555,7.091,10.696,13.878,9.293,16.932
			c-2.686,5.839-12.07,8.878-26.921,8.878c-4.461,0-9.413-0.273-14.827-0.828c-1.011-0.104-1.982-0.199-2.959-0.295
			c0.104,2.006,0.271,4.748,0.551,8.375c0.344,4.456,2.008,5.611,3.64,5.611c1.758,0,3.479-1.34,3.479-1.34l4.271,4.271
			c0,0-1.581,2.215-5.168,2.215c-1.793,0-4.087-0.556-6.937-2.215c-7.217-4.209-3.766-11.979-3.808-17.295
			c-11.876-1.076-21.073-1.512-28.385-1.512c-13.172,0-20.21,1.413-25.686,3.032c-0.973,4.104-1.228,9.688,2.212,14.657
			c6.407,9.256,0.714,24.918-3.559,28.479c-0.854,0.712-1.623,0.996-2.306,0.996c-2.734,0-4.102-4.558-4.102-4.558
			s7.831-3.561,4.273-17.086c-2.42-9.19-5.821-14.767-6.416-19.404c-2.879,0.771-6.122,1.406-10.371,1.761
			c-3.765,0.313-7.776,0.647-11.687,0.647c-10.632,0-20.525-2.469-22.707-14.541c-0.886-3.354,1.795-9.694,8.238-15.655
			c2.277-4.521,4.284-9.779,4.284-15.803C33.588,50.268,63.597,20,100.611,20 M26.525,108.531c0.894-1.586,1.857-3.289,2.777-5.115
			c-0.019,0.035-1.876,3.427-2.316,4.209C26.821,107.916,26.67,108.223,26.525,108.531 M100.611,14
			c-40.265,0-73.023,33.022-73.023,73.611c0,3.811-0.989,7.604-3.192,12.188c-7.096,6.891-10.586,14.655-9.198,20.535
			c1.375,7.332,5.168,12.665,11.277,15.854c4.477,2.336,9.974,3.424,17.298,3.424c4.174,0,8.431-0.354,12.187-0.67
			c1.959-0.161,3.809-0.389,5.605-0.687c0.378,1.033,0.796,2.097,1.233,3.207c1.188,3.022,2.536,6.451,3.647,10.672
			c1.64,6.234,0.147,9.253-1.084,10.14l-5.421,1.785l2.287,5.359c1.223,4.073,4.536,8.831,9.849,8.831
			c1.497,0,3.779-0.414,6.146-2.386c6.496-5.414,12.926-24.551,4.651-36.504c-1.255-1.813-1.849-3.977-1.777-6.452
			c4.413-1.003,10.516-1.824,20.318-1.824c6.247,0,13.423,0.319,21.804,0.976c-0.526,5.065-0.401,12.481,7.366,17.012
			c3.449,2.014,6.8,3.033,9.957,3.033c4.927,0,8.493-2.547,10.051-4.729l2.953-4.137l-3.594-3.594l-4.271-4.271l-1.494-1.496
			c2.572,0.145,5.035,0.215,7.369,0.215c17.705,0,28.598-4.16,32.371-12.369c0.958-2.084,4.848-12.797-10.173-23.569
			c-0.483-0.962-0.629-1.504-0.67-1.767l0.114-1.375c0.429-5.13,0.572-6.858,0.352-11.188C171.578,44.672,139.541,14,100.611,14
			L100.611,14z"/>
	</g>
	<polygon points="64.173,163.812 50.86,166 57.485,180 72.235,177.125 70.485,174.75 58.985,176.875 54.548,167.562 65.11,165.875 	
		"/>
</g>
</svg>
