<?xml version="1.0" encoding="utf-8"?>
<!-- Generator: Adobe Illustrator 15.0.0, SVG Export Plug-In . SVG Version: 6.00 Build 0)  -->
<!DOCTYPE svg PUBLIC "-//W3C//DTD SVG 1.1//EN" "http://www.w3.org/Graphics/SVG/1.1/DTD/svg11.dtd">
<svg version="1.1" xmlns="http://www.w3.org/2000/svg" xmlns:xlink="http://www.w3.org/1999/xlink" x="0px" y="0px" width="200px"
	 height="200px" viewBox="0 0 200 200" enable-background="new 0 0 200 200" xml:space="preserve">
<g id="icon">
	<g id="Layer_2">
	</g>
	<g id="Layer_1_1_">
		<g>
			<g>
				<polygon fill="#141414" points="55.813,151.863 91.474,162.843 127.346,145.246 109.766,106.02 92.619,123.245 91.453,142.503 
					72.379,144.268 				"/>
				<polygon fill="#3D3D3D" points="112.184,147.271 127.346,145.246 138.904,124.402 151.283,107.619 147.381,83.049 
					124.916,82.86 124.037,109.459 109.766,106.02 				"/>
				<polygon fill="#666666" points="130.633,46.295 139.006,64.671 147.381,83.049 129.127,111.594 112.107,111.355 109.766,106.02 
					105.828,86.213 114.795,70.651 111.833,56.987 				"/>
				<polygon fill="#616161" points="74.721,149.604 55.813,151.863 48.961,134.762 55.571,115.451 75.717,107.129 92.619,123.245 
					91.453,142.503 				"/>
				<polygon fill="#9C9C9C" points="112.107,111.355 92.619,123.245 73.936,118.061 66.826,112.768 55.571,115.451 55.221,94.123 
					68.125,75.251 88.587,70.299 114.795,70.651 105.828,86.213 				"/>
				<polygon fill="#6E6E6E" points="91.453,142.503 112.184,147.271 112.107,111.355 102.691,130.443 				"/>
				<polygon fill="#787878" points="55.571,115.451 66.826,112.768 76.137,96.608 88.444,89.351 88.587,70.299 69.301,54.404 
					54.958,60.49 48.717,76.026 54.996,89.809 				"/>
				<polygon fill="#8C8C8C" points="114.795,70.651 88.587,70.299 69.301,54.404 54.958,60.49 62.227,44.35 86.497,42.19 
					99.555,37.158 130.633,46.295 115.754,56.057 				"/>
			</g>
			<g opacity="0.47">
				
					<radialGradient id="SVGID_1_" cx="-1029.0742" cy="1297.2539" r="83.2545" gradientTransform="matrix(0.4992 -0.8665 0.635 0.3659 -203.1699 -1307.6917)" gradientUnits="userSpaceOnUse">
					<stop  offset="0" style="stop-color:#000000;stop-opacity:0"/>
					<stop  offset="1" style="stop-color:#000000"/>
				</radialGradient>
				<polygon fill="url(#SVGID_1_)" points="99.555,37.158 86.497,42.19 62.227,44.35 54.958,60.49 48.717,76.026 54.996,89.809 
					55.571,115.451 48.961,134.762 55.813,151.863 91.474,162.843 127.346,145.246 138.904,124.402 151.283,107.619 147.381,83.049 
					139.006,64.671 130.633,46.295 				"/>
			</g>
		</g>
	</g>
</g>
<g id="outline_x5F_white">
	<g>
		<g>
			<path fill="#FFFFFF" d="M99.555,37.158l31.078,9.137l8.373,18.376l8.375,18.378l3.902,24.57l-12.379,16.783l-11.559,20.844
				l-35.874,17.597l-35.66-10.979l-6.853-17.104l6.61-19.311l-0.575-25.643l-6.279-13.782l6.241-15.536l7.269-16.141l24.271-2.16
				L99.555,37.158 M99.555,25.158c-1.466,0-2.93,0.269-4.315,0.803l-11.484,4.426l-22.592,2.01c-4.32,0.384-8.098,3.07-9.878,7.025
				l-7.269,16.141c-0.067,0.15-0.132,0.301-0.193,0.454l-6.241,15.536c-1.224,3.047-1.146,6.461,0.215,9.449l5.257,11.539
				l0.472,21.044l-5.918,17.29c-0.931,2.72-0.855,5.684,0.214,8.35l6.853,17.104c1.348,3.363,4.144,5.938,7.608,7.006l35.66,10.979
				c1.154,0.354,2.344,0.53,3.531,0.53c1.816,0,3.626-0.411,5.285-1.227l35.872-17.597c2.202-1.08,4.021-2.811,5.209-4.955
				l11.183-20.164l11.918-16.158c1.908-2.588,2.699-5.831,2.194-9.006l-3.901-24.569c-0.17-1.069-0.482-2.109-0.933-3.095
				l-8.375-18.377l-8.372-18.375c-1.445-3.169-4.193-5.555-7.535-6.537l-31.078-9.137C101.833,25.32,100.693,25.158,99.555,25.158
				L99.555,25.158z"/>
		</g>
	</g>
</g>
<g id="outline_x5F_black">
	<g>
		<path d="M99.555,37.158l31.078,9.137l8.373,18.376l8.375,18.378l3.902,24.57l-12.379,16.783l-11.559,20.844l-35.874,17.597
			l-35.66-10.979l-6.853-17.104l6.61-19.311l-0.575-25.643l-6.279-13.782l6.241-15.536l7.269-16.141l24.271-2.16L99.555,37.158
			 M99.295,30.828l-1.897,0.731l-12.271,4.729l-23.432,2.085l-3.497,0.312l-1.441,3.201l-7.269,16.141l-0.051,0.113l-0.046,0.114
			L43.149,73.79l-0.958,2.385l1.066,2.339l5.769,12.661l0.523,23.345l-6.265,18.299l-0.721,2.107l0.829,2.067l6.853,17.103
			l1.065,2.659l2.738,0.843l35.66,10.979l2.272,0.7l2.136-1.049l35.872-17.598l1.691-0.829l0.911-1.646l11.37-20.506l12.148-16.471
			l1.49-2.021l-0.395-2.481l-3.902-24.57l-0.128-0.805l-0.338-0.742l-8.375-18.378l-8.373-18.375l-1.137-2.495l-2.632-0.773
			l-31.077-9.137L99.295,30.828L99.295,30.828z"/>
	</g>
</g>
</svg>
