<?xml version="1.0" encoding="utf-8"?>
<!-- Generator: Adobe Illustrator 15.0.0, SVG Export Plug-In . SVG Version: 6.00 Build 0)  -->
<!DOCTYPE svg PUBLIC "-//W3C//DTD SVG 1.1//EN" "http://www.w3.org/Graphics/SVG/1.1/DTD/svg11.dtd">
<svg version="1.1" xmlns="http://www.w3.org/2000/svg" xmlns:xlink="http://www.w3.org/1999/xlink" x="0px" y="0px" width="200px"
	 height="200px" viewBox="0 0 200 200" enable-background="new 0 0 200 200" xml:space="preserve">
<g id="icon">
	<g id="Layer_2">
	</g>
	<g id="Layer_1_1_">
		<g>
			<g>
				
					<linearGradient id="SVGID_1_" gradientUnits="userSpaceOnUse" x1="3.2012" y1="549.3906" x2="-4.8103" y2="556.6734" gradientTransform="matrix(0.9617 -0.2741 0.2741 0.9617 -75.9301 -454.495)">
					<stop  offset="0" style="stop-color:#0097FF"/>
					<stop  offset="1" style="stop-color:#004C81"/>
				</linearGradient>
				<polygon fill="url(#SVGID_1_)" points="47.334,82.481 95.537,92.414 79.724,21.646 				"/>
			</g>
			<g>
				
					<linearGradient id="SVGID_2_" gradientUnits="userSpaceOnUse" x1="8.1548" y1="552.002" x2="-6.3691" y2="550.3421" gradientTransform="matrix(0.9617 -0.2741 0.2741 0.9617 -75.9301 -454.495)">
					<stop  offset="0" style="stop-color:#0097FF"/>
					<stop  offset="1" style="stop-color:#004C81"/>
				</linearGradient>
				<polygon fill="url(#SVGID_2_)" points="47.334,82.481 95.537,92.414 86.287,53.299 				"/>
			</g>
			
				<linearGradient id="SVGID_3_" gradientUnits="userSpaceOnUse" x1="181.0234" y1="708.9287" x2="191.2285" y2="698.0861" gradientTransform="matrix(1 0 0 1 -100 -591)">
				<stop  offset="0" style="stop-color:#0097FF"/>
				<stop  offset="1" style="stop-color:#004C81"/>
			</linearGradient>
			<polygon fill="url(#SVGID_3_)" points="47.334,82.481 95.537,92.414 112.811,155.398 69.513,145.682 			"/>
			<g>
				
					<linearGradient id="SVGID_4_" gradientUnits="userSpaceOnUse" x1="8.0552" y1="616.1113" x2="1.5465" y2="621.8064" gradientTransform="matrix(0.9617 -0.2741 0.2741 0.9617 -75.9301 -454.495)">
					<stop  offset="0" style="stop-color:#0097FF"/>
					<stop  offset="1" style="stop-color:#004C81"/>
				</linearGradient>
				<polygon fill="url(#SVGID_4_)" points="103.543,120.514 112.811,155.398 69.513,145.682 				"/>
			</g>
			<g>
				
					<linearGradient id="SVGID_5_" gradientUnits="userSpaceOnUse" x1="-142.8291" y1="889.3555" x2="-164.6452" y2="928.6242" gradientTransform="matrix(0.9617 -0.2741 0.2741 0.9617 -75.9301 -454.495)">
					<stop  offset="0" style="stop-color:#0097FF"/>
					<stop  offset="1" style="stop-color:#004C81"/>
				</linearGradient>
				<polygon fill="url(#SVGID_5_)" points="121.491,177.447 112.811,155.398 69.513,145.682 				"/>
			</g>
			
				<linearGradient id="SVGID_6_" gradientUnits="userSpaceOnUse" x1="181.4551" y1="745.5244" x2="200.1566" y2="751.7581" gradientTransform="matrix(1 0 0 1 -100 -591)">
				<stop  offset="0" style="stop-color:#00FFFF;stop-opacity:0"/>
				<stop  offset="0.5337" style="stop-color:#FFFFFF"/>
				<stop  offset="1" style="stop-color:#00FFFF;stop-opacity:0"/>
			</linearGradient>
			<polygon fill="url(#SVGID_6_)" points="121.491,177.447 112.811,155.398 69.513,145.682 			"/>
			<g>
				
					<linearGradient id="SVGID_7_" gradientUnits="userSpaceOnUse" x1="-140.7612" y1="622.8496" x2="-53.1115" y2="631.9389" gradientTransform="matrix(0.9617 -0.2741 0.2741 0.9617 -75.9301 -454.495)">
					<stop  offset="0" style="stop-color:#0097FF"/>
					<stop  offset="1" style="stop-color:#004C81"/>
				</linearGradient>
				<polygon fill="url(#SVGID_7_)" points="121.491,177.447 112.811,155.398 149.398,126.717 				"/>
			</g>
			<g>
				
					<linearGradient id="SVGID_8_" gradientUnits="userSpaceOnUse" x1="45.917" y1="600.5293" x2="58.7055" y2="608.026" gradientTransform="matrix(0.9617 -0.2741 0.2741 0.9617 -75.9301 -454.495)">
					<stop  offset="0" style="stop-color:#0097FF"/>
					<stop  offset="1" style="stop-color:#004C81"/>
				</linearGradient>
				<polygon fill="url(#SVGID_8_)" points="138.441,61.778 95.537,92.414 112.811,155.398 149.398,126.717 				"/>
			</g>
			<g>
				
					<linearGradient id="SVGID_9_" gradientUnits="userSpaceOnUse" x1="25.8696" y1="619.498" x2="19.333" y2="612.9614" gradientTransform="matrix(0.9617 -0.2741 0.2741 0.9617 -75.9301 -454.495)">
					<stop  offset="0" style="stop-color:#0097FF"/>
					<stop  offset="1" style="stop-color:#004C81"/>
				</linearGradient>
				<polygon fill="url(#SVGID_9_)" points="102.5,116.85 112.811,155.398 149.398,126.717 				"/>
			</g>
			
				<linearGradient id="SVGID_10_" gradientUnits="userSpaceOnUse" x1="43.5156" y1="563.1953" x2="27.8629" y2="547.5426" gradientTransform="matrix(0.9617 -0.2741 0.2741 0.9617 -75.9301 -454.495)">
				<stop  offset="0" style="stop-color:#0097FF"/>
				<stop  offset="1" style="stop-color:#004C81"/>
			</linearGradient>
			<polygon fill="url(#SVGID_10_)" points="95.537,92.414 138.441,61.778 79.724,21.646 			"/>
			
				<linearGradient id="SVGID_11_" gradientUnits="userSpaceOnUse" x1="164.458" y1="633.9258" x2="178.7961" y2="642.6529" gradientTransform="matrix(1 0 0 1 -100 -591)">
				<stop  offset="0" style="stop-color:#00FFFF;stop-opacity:0"/>
				<stop  offset="0.5337" style="stop-color:#FFFFFF"/>
				<stop  offset="1" style="stop-color:#00FFFF;stop-opacity:0"/>
			</linearGradient>
			<polygon fill="url(#SVGID_11_)" points="95.537,92.414 138.441,61.778 79.724,21.646 			"/>
			
				<linearGradient id="SVGID_12_" gradientUnits="userSpaceOnUse" x1="39.8379" y1="544.5674" x2="27.5336" y2="551.873" gradientTransform="matrix(0.9617 -0.2741 0.2741 0.9617 -75.9301 -454.495)">
				<stop  offset="0" style="stop-color:#0097FF"/>
				<stop  offset="1" style="stop-color:#004C81;stop-opacity:0"/>
			</linearGradient>
			<polygon fill="url(#SVGID_12_)" points="95.537,92.414 138.441,61.778 86.287,53.299 			"/>
			
				<linearGradient id="SVGID_13_" gradientUnits="userSpaceOnUse" x1="202.5127" y1="690.1328" x2="212.7985" y2="694.3408" gradientTransform="matrix(1 0 0 1 -100 -591)">
				<stop  offset="0" style="stop-color:#FFFFFF"/>
				<stop  offset="1" style="stop-color:#00FFFF;stop-opacity:0"/>
			</linearGradient>
			<polygon fill="url(#SVGID_13_)" points="138.441,61.778 95.537,92.414 112.811,155.398 149.398,126.717 			"/>
			
				<linearGradient id="SVGID_14_" gradientUnits="userSpaceOnUse" x1="197.0371" y1="659.0195" x2="187.2185" y2="654.3441" gradientTransform="matrix(1 0 0 1 -100 -591)">
				<stop  offset="0" style="stop-color:#FFFFFF"/>
				<stop  offset="1" style="stop-color:#00FFFF;stop-opacity:0"/>
			</linearGradient>
			<polygon fill="url(#SVGID_14_)" points="47.334,82.481 95.537,92.414 79.724,21.646 			"/>
		</g>
	</g>
</g>
<g id="outline_x5F_white">
	<g>
		<g>
			<path fill="#FFFFFF" d="M79.724,21.646l58.717,40.132l10.957,64.938l-27.906,50.729L69.513,145.68l-22.179-63.2L79.724,21.646
				 M79.724,9.646c-0.957,0-1.918,0.114-2.864,0.347c-3.313,0.814-6.124,3.001-7.728,6.014l-32.39,60.835
				c-1.577,2.961-1.842,6.447-0.731,9.613l22.179,63.199c0.916,2.609,2.705,4.824,5.065,6.267l51.979,31.767
				c1.899,1.162,4.068,1.762,6.258,1.762c1.031,0,2.066-0.135,3.081-0.402c3.168-0.842,5.854-2.941,7.433-5.812l27.907-50.729
				c1.305-2.371,1.771-5.112,1.319-7.78l-10.957-64.938c-0.543-3.215-2.371-6.071-5.062-7.911L86.495,11.739
				C84.481,10.363,82.117,9.646,79.724,9.646L79.724,9.646z"/>
		</g>
	</g>
</g>
<g id="outline_x5F_black">
	<g>
		<path d="M79.724,21.646l58.717,40.132l10.957,64.938l-27.906,50.729L69.513,145.68l-22.179-63.2L79.724,21.646 M77.577,12.912
			l-3.149,5.915l-32.39,60.835l-1.237,2.322l0.872,2.483l22.179,63.2l0.708,2.019l1.824,1.114l51.979,31.767l5.359,3.274
			l3.024-5.503l27.905-50.73l1.009-1.83l-0.349-2.06L144.357,60.78l-0.424-2.516l-2.106-1.439L83.109,16.693L77.577,12.912
			L77.577,12.912z"/>
	</g>
</g>
</svg>
