<?xml version="1.0" encoding="utf-8"?>
<!-- Generator: Adobe Illustrator 15.0.0, SVG Export Plug-In . SVG Version: 6.00 Build 0)  -->
<!DOCTYPE svg PUBLIC "-//W3C//DTD SVG 1.1//EN" "http://www.w3.org/Graphics/SVG/1.1/DTD/svg11.dtd">
<svg version="1.1" xmlns="http://www.w3.org/2000/svg" xmlns:xlink="http://www.w3.org/1999/xlink" x="0px" y="0px" width="200px"
	 height="200px" viewBox="0 0 200 200" enable-background="new 0 0 200 200" xml:space="preserve">
<g id="icon">
	<g id="Layer_2">
	</g>
	<g id="Layer_1_1_">
		<g>
			<g>
				<polygon fill="#F0AE00" points="162.012,83.27 144.029,63.64 130.641,44.58 103.232,40.005 80.799,42.362 58.368,44.719 
					37.675,74.398 38.378,90.012 32.063,116.484 46.583,129.904 60.827,142.021 71.554,159.172 105.016,148.732 129.134,157.217 
					143.77,155.989 163.736,138.277 167.938,127.502 				"/>
			</g>
			<g>
				<polygon fill="#903D00" points="163.736,138.277 167.938,127.502 162.012,83.27 114.23,87.988 126.398,112.255 105.016,148.732 
					147.977,140.555 				"/>
				<polygon fill="#D78D00" points="163.736,138.277 143.77,155.989 129.134,157.217 105.016,148.732 147.977,140.555 				"/>
				<polygon fill="#FFD900" points="58.368,44.719 80.799,42.362 103.232,40.005 126.999,69.456 120.714,87.398 114.23,87.988 
					91.856,85.139 78.552,70.127 63.03,68.421 				"/>
				<polygon fill="#FFFA60" points="58.368,44.719 80.799,42.362 120.714,87.398 91.856,85.139 78.552,70.127 63.03,68.421 				"/>
				<polygon fill="#FFA700" points="147.977,140.555 163.736,138.277 151.581,128.539 105.016,148.732 103.339,124.445 
					126.398,112.255 146.384,120.314 				"/>
				<polygon fill="#FFC700" points="120.714,87.398 126.398,112.255 114.286,130.207 106.161,135.861 105.016,148.732 82.3,141.545 
					61.202,133.788 68.892,97.762 78.552,70.127 91.856,85.139 				"/>
				<polygon fill="#FFD900" points="146.384,120.314 158.782,100.048 120.714,87.398 137.594,104.139 				"/>
				<polygon fill="#D77700" points="105.016,148.732 106.161,135.861 92.345,120.271 66.433,135.539 68.892,97.762 45.22,112.555 
					46.583,129.904 60.827,142.021 71.554,159.172 				"/>
				<polygon fill="#FFA700" points="78.552,70.127 68.892,97.762 45.22,112.555 46.583,129.904 32.063,116.484 38.378,90.012 
					37.675,74.398 58.368,44.719 63.435,63.938 				"/>
			</g>
			
				<radialGradient id="SVGID_1_" cx="204.666" cy="667.2559" r="74.7768" gradientTransform="matrix(1 0 0 1 -100 -591)" gradientUnits="userSpaceOnUse">
				<stop  offset="0.5031" style="stop-color:#FFFF00;stop-opacity:0"/>
				<stop  offset="1" style="stop-color:#5D1A00;stop-opacity:0.55"/>
			</radialGradient>
			<polygon opacity="0.87" fill="url(#SVGID_1_)" enable-background="new    " points="162.012,83.27 144.029,63.64 130.641,44.58 
				103.232,40.005 80.799,42.362 58.368,44.719 37.675,74.398 38.378,90.012 32.063,116.484 46.583,129.904 60.827,142.021 
				71.554,159.172 105.016,148.732 129.134,157.217 143.77,155.989 163.736,138.277 167.938,127.502 			"/>
		</g>
	</g>
</g>
<g id="outline_x5F_white">
	<g>
		<g>
			<path fill="#FFFFFF" d="M103.232,40.005l27.408,4.575l13.389,19.06l17.979,19.63l5.927,44.232l-4.199,10.775l-19.969,17.712
				l-14.636,1.228l-24.118-8.482l-33.46,10.438l-10.727-17.149l-14.244-12.116l-14.52-13.421l6.314-26.472l-0.703-15.613
				l20.693-29.68l22.431-2.356L103.232,40.005 M103.232,28.005c-0.418,0-0.836,0.022-1.254,0.066l-22.436,2.357l-22.431,2.356
				c-3.463,0.364-6.598,2.215-8.59,5.071L27.83,67.535c-1.509,2.165-2.263,4.767-2.144,7.403l0.627,13.929L20.391,113.7
				c-1.006,4.219,0.342,8.651,3.527,11.597l14.52,13.42c0.121,0.111,0.245,0.221,0.37,0.328l12.83,10.913l9.742,15.577
				c2.236,3.576,6.121,5.638,10.175,5.638c1.188,0,2.392-0.177,3.572-0.546l29.661-9.253l20.364,7.163
				c1.281,0.449,2.627,0.68,3.979,0.68c0.334,0,0.669-0.014,1.004-0.042l14.636-1.228c2.58-0.217,5.021-1.262,6.959-2.98
				l19.97-17.711c1.424-1.263,2.526-2.847,3.218-4.62l4.199-10.776c0.736-1.892,0.982-3.938,0.713-5.949l-5.926-44.232
				c-0.325-2.431-1.389-4.703-3.045-6.512l-17.457-19.058L140.46,37.682c-1.849-2.63-4.673-4.409-7.844-4.938l-27.407-4.575
				C104.557,28.06,103.895,28.005,103.232,28.005L103.232,28.005z"/>
		</g>
	</g>
</g>
<g id="outline_x5F_black">
	<g>
		<path d="M103.232,40.005l27.408,4.575l13.389,19.06l17.979,19.63l5.927,44.232l-4.199,10.775l-19.969,17.712l-14.636,1.228
			l-24.118-8.482l-33.46,10.438l-10.727-17.149l-14.244-12.116l-14.52-13.421l6.314-26.472l-0.703-15.613l20.693-29.68l22.431-2.356
			L103.232,40.005 M103.417,33.953l-0.812,0.085L80.17,36.395l-22.43,2.356l-2.727,0.287l-1.568,2.249l-20.693,29.68l-1.164,1.669
			l0.091,2.032l0.666,14.771l-6.119,25.652l-0.814,3.416l2.579,2.384l14.52,13.42l0.09,0.084l0.094,0.08l13.537,11.516
			l10.234,16.363l2.454,3.924l4.42-1.379l31.561-9.846l22.242,7.823l1.211,0.426l1.281-0.106l14.635-1.229l1.987-0.166l1.492-1.322
			l19.969-17.711l1.083-0.961l0.526-1.351l4.198-10.776l0.562-1.44l-0.205-1.533l-5.926-44.232l-0.251-1.867l-1.271-1.389
			l-17.72-19.344L135.55,41.131l-1.442-2.055l-2.479-0.414l-27.406-4.575L103.417,33.953L103.417,33.953z"/>
	</g>
</g>
</svg>
