<?xml version="1.0" encoding="utf-8"?>
<!-- Generator: Adobe Illustrator 15.0.0, SVG Export Plug-In . SVG Version: 6.00 Build 0)  -->
<!DOCTYPE svg PUBLIC "-//W3C//DTD SVG 1.1//EN" "http://www.w3.org/Graphics/SVG/1.1/DTD/svg11.dtd">
<svg version="1.1" xmlns="http://www.w3.org/2000/svg" xmlns:xlink="http://www.w3.org/1999/xlink" x="0px" y="0px" width="200px"
	 height="200px" viewBox="0 0 200 200" enable-background="new 0 0 200 200" xml:space="preserve">
<g id="icon">
	<g id="Layer_2">
	</g>
	<g id="Layer_1_1_">
		<g>
			<g>
				
					<linearGradient id="SVGID_1_" gradientUnits="userSpaceOnUse" x1="148.7773" y1="-3.3223" x2="151.8614" y2="4.6952" gradientTransform="matrix(1 0 0 -1 -50 61)">
					<stop  offset="0" style="stop-color:#FF0A00"/>
					<stop  offset="1" style="stop-color:#860A00"/>
				</linearGradient>
				<polygon fill="url(#SVGID_1_)" points="77.31,83.441 47.4,68.308 49.964,48.079 78.25,34.118 122.004,34.118 150.062,48.079 
					152.307,68.308 122.169,83.441 				"/>
				
					<linearGradient id="SVGID_2_" gradientUnits="userSpaceOnUse" x1="149.2598" y1="21.7979" x2="126.443" y2="19.9478" gradientTransform="matrix(1 0 0 -1 -50 61)">
					<stop  offset="0" style="stop-color:#FF0A00"/>
					<stop  offset="1" style="stop-color:#860A00"/>
				</linearGradient>
				<polygon fill="url(#SVGID_2_)" points="73.731,43.912 78.25,34.118 122.004,34.118 124.887,43.912 				"/>
				
					<linearGradient id="SVGID_3_" gradientUnits="userSpaceOnUse" x1="161.7812" y1="-43.0693" x2="244.1078" y2="-42.1443" gradientTransform="matrix(1 0 0 -1 -50 61)">
					<stop  offset="0" style="stop-color:#FF0A00"/>
					<stop  offset="1" style="stop-color:#860A00"/>
				</linearGradient>
				<polygon fill="url(#SVGID_3_)" points="73.731,43.912 100.214,164.785 124.887,43.912 				"/>
				
					<linearGradient id="SVGID_4_" gradientUnits="userSpaceOnUse" x1="174.1338" y1="19.6768" x2="213.6797" y2="8.5762" gradientTransform="matrix(1 0 0 -1 -50 61)">
					<stop  offset="0" style="stop-color:#FF0A00"/>
					<stop  offset="1" style="stop-color:#860A00"/>
				</linearGradient>
				<polygon fill="url(#SVGID_4_)" points="159.426,57.839 150.062,48.079 122.004,34.118 124.887,43.912 				"/>
				
					<linearGradient id="SVGID_5_" gradientUnits="userSpaceOnUse" x1="119.0283" y1="17.5518" x2="101.4515" y2="12.9262" gradientTransform="matrix(1 0 0 -1 -50 61)">
					<stop  offset="0" style="stop-color:#FF0A00"/>
					<stop  offset="1" style="stop-color:#860A00"/>
				</linearGradient>
				<polygon fill="url(#SVGID_5_)" points="73.731,43.912 78.25,34.118 49.964,48.079 40.574,57.839 				"/>
				
					<linearGradient id="SVGID_6_" gradientUnits="userSpaceOnUse" x1="154.6748" y1="16.001" x2="155.5998" y2="28.335" gradientTransform="matrix(1 0 0 -1 -50 61)">
					<stop  offset="0" style="stop-color:#FF0A00"/>
					<stop  offset="1" style="stop-color:#860A00"/>
				</linearGradient>
				<polygon fill="url(#SVGID_6_)" points="126.736,109.297 72.971,109.297 77.66,83.441 122.169,83.441 				"/>
				
					<linearGradient id="SVGID_7_" gradientUnits="userSpaceOnUse" x1="139.4932" y1="-45.9434" x2="197.4651" y2="36.0801" gradientTransform="matrix(1 0 0 -1 -50 61)">
					<stop  offset="0" style="stop-color:#FF0A00"/>
					<stop  offset="1" style="stop-color:#860A00"/>
				</linearGradient>
				<polygon fill="url(#SVGID_7_)" points="116.818,83.441 82.392,83.441 88.057,109.297 111.541,109.297 				"/>
				
					<linearGradient id="SVGID_8_" gradientUnits="userSpaceOnUse" x1="-20.0537" y1="1.8979" x2="-13.2695" y2="0.3564" gradientTransform="matrix(1 0 0 -1 -50 61)">
					<stop  offset="0" style="stop-color:#FF0A00"/>
					<stop  offset="1" style="stop-color:#860A00"/>
				</linearGradient>
				<polygon fill="url(#SVGID_8_)" points="34.714,87.415 72.971,109.297 77.66,83.441 47.54,68.125 				"/>
				
					<linearGradient id="SVGID_9_" gradientUnits="userSpaceOnUse" x1="70.6631" y1="-47.0674" x2="165.6296" y2="5.9664" gradientTransform="matrix(1 0 0 -1 -50 61)">
					<stop  offset="0" style="stop-color:#FF0A00"/>
					<stop  offset="1" style="stop-color:#860A00"/>
				</linearGradient>
				<polygon fill="url(#SVGID_9_)" points="46.871,69.13 34.714,87.415 67.538,106.191 				"/>
				
					<linearGradient id="SVGID_10_" gradientUnits="userSpaceOnUse" x1="92.3384" y1="-1.6426" x2="92.3384" y2="4.3701" gradientTransform="matrix(1 0 0 -1 -50 61)">
					<stop  offset="0" style="stop-color:#FF0A00"/>
					<stop  offset="1" style="stop-color:#860A00"/>
				</linearGradient>
				<polygon fill="url(#SVGID_10_)" points="34.714,87.415 40.574,57.839 49.964,48.079 47.54,68.125 				"/>
				
					<linearGradient id="SVGID_11_" gradientUnits="userSpaceOnUse" x1="77.8867" y1="-4.5791" x2="94.5382" y2="-16.6052" gradientTransform="matrix(1 0 0 -1 -50 61)">
					<stop  offset="0" style="stop-color:#FF0A00"/>
					<stop  offset="1" style="stop-color:#860A00"/>
				</linearGradient>
				<polygon fill="url(#SVGID_11_)" points="40.574,57.839 34.714,87.415 46.871,69.13 				"/>
				
					<linearGradient id="SVGID_12_" gradientUnits="userSpaceOnUse" x1="104.1025" y1="12.4668" x2="108.497" y2="15.0109" gradientTransform="matrix(1 0 0 -1 -50 61)">
					<stop  offset="0" style="stop-color:#FF0A00"/>
					<stop  offset="1" style="stop-color:#860A00"/>
				</linearGradient>
				<polygon fill="url(#SVGID_12_)" points="49.964,48.079 40.574,57.839 49.224,54.207 				"/>
				
					<linearGradient id="SVGID_13_" gradientUnits="userSpaceOnUse" x1="770.3486" y1="-27.8027" x2="813.4658" y2="-27.8027" gradientTransform="matrix(-1 0 0 -1 935.6348 61)">
					<stop  offset="0" style="stop-color:#FF0A00"/>
					<stop  offset="1" style="stop-color:#860A00"/>
				</linearGradient>
				<polygon fill="url(#SVGID_13_)" points="165.286,87.415 126.736,109.297 122.169,83.441 152.307,68.308 				"/>
				
					<linearGradient id="SVGID_14_" gradientUnits="userSpaceOnUse" x1="182.8594" y1="-26.6016" x2="215.2861" y2="-26.6016" gradientTransform="matrix(1 0 0 -1 -50 61)">
					<stop  offset="0" style="stop-color:#FF0A00"/>
					<stop  offset="1" style="stop-color:#860A00"/>
				</linearGradient>
				<polygon fill="url(#SVGID_14_)" points="132.859,105.822 165.286,87.415 153.036,69.381 				"/>
				
					<linearGradient id="SVGID_15_" gradientUnits="userSpaceOnUse" x1="-51.1943" y1="-0.5654" x2="-33.3097" y2="-5.499" gradientTransform="matrix(1 0 0 -1 -50 61)">
					<stop  offset="0" style="stop-color:#FF0A00"/>
					<stop  offset="1" style="stop-color:#860A00"/>
				</linearGradient>
				<polygon fill="url(#SVGID_15_)" points="100.214,164.785 34.714,87.415 72.971,109.297 126.736,109.297 165.286,87.415 				"/>
				
					<linearGradient id="SVGID_16_" gradientUnits="userSpaceOnUse" x1="154.2725" y1="-59.8711" x2="188.2663" y2="-66.1149" gradientTransform="matrix(1 0 0 -1 -50 61)">
					<stop  offset="0" style="stop-color:#FF0A00"/>
					<stop  offset="1" style="stop-color:#860A00"/>
				</linearGradient>
				<polygon fill="url(#SVGID_16_)" points="132.859,105.822 100.214,164.785 165.286,87.415 				"/>
				
					<linearGradient id="SVGID_17_" gradientUnits="userSpaceOnUse" x1="189.7822" y1="-86.1973" x2="182.382" y2="-63.9963" gradientTransform="matrix(1 0 0 -1 -50 61)">
					<stop  offset="0" style="stop-color:#FFFFFF"/>
					<stop  offset="1" style="stop-color:#FF0A00;stop-opacity:0"/>
				</linearGradient>
				<polygon fill="url(#SVGID_17_)" points="132.859,105.822 100.214,164.785 165.286,87.415 				"/>
				
					<linearGradient id="SVGID_18_" gradientUnits="userSpaceOnUse" x1="115.7295" y1="-58.1592" x2="123.1299" y2="-71.1099" gradientTransform="matrix(1 0 0 -1 -50 61)">
					<stop  offset="0" style="stop-color:#FF0A00"/>
					<stop  offset="1" style="stop-color:#860A00"/>
				</linearGradient>
				<polygon fill="url(#SVGID_18_)" points="100.214,164.785 34.714,87.415 72.971,109.297 				"/>
				
					<linearGradient id="SVGID_19_" gradientUnits="userSpaceOnUse" x1="106.8711" y1="-71.376" x2="119.3583" y2="-63.9761" gradientTransform="matrix(1 0 0 -1 -50 61)">
					<stop  offset="0" style="stop-color:#FF0A00"/>
					<stop  offset="1" style="stop-color:#860A00"/>
				</linearGradient>
				<polygon fill="url(#SVGID_19_)" points="67.538,106.191 34.714,87.415 100.214,164.785 				"/>
				
					<linearGradient id="SVGID_20_" gradientUnits="userSpaceOnUse" x1="122.9707" y1="-76.041" x2="176.7363" y2="-76.041" gradientTransform="matrix(1 0 0 -1 -50 61)">
					<stop  offset="0" style="stop-color:#FF0A00"/>
					<stop  offset="1" style="stop-color:#860A00"/>
				</linearGradient>
				<polygon fill="url(#SVGID_20_)" points="100.214,164.785 72.971,109.297 126.736,109.297 				"/>
				
					<linearGradient id="SVGID_21_" gradientUnits="userSpaceOnUse" x1="138.0566" y1="-76.041" x2="161.541" y2="-76.041" gradientTransform="matrix(1 0 0 -1 -50 61)">
					<stop  offset="0" style="stop-color:#FF0A00"/>
					<stop  offset="1" style="stop-color:#860A00"/>
				</linearGradient>
				<polygon fill="url(#SVGID_21_)" points="88.057,109.297 100.214,164.785 111.541,109.297 				"/>
				
					<linearGradient id="SVGID_22_" gradientUnits="userSpaceOnUse" x1="770.3486" y1="-6.7471" x2="785.5723" y2="-6.7471" gradientTransform="matrix(-1 0 0 -1 935.6348 61)">
					<stop  offset="0" style="stop-color:#FF0A00"/>
					<stop  offset="1" style="stop-color:#860A00"/>
				</linearGradient>
				<polygon fill="url(#SVGID_22_)" points="165.286,87.415 159.426,57.839 150.062,48.079 152.307,68.308 				"/>
				
					<linearGradient id="SVGID_23_" gradientUnits="userSpaceOnUse" x1="203.0361" y1="-11.627" x2="215.2861" y2="-11.627" gradientTransform="matrix(1 0 0 -1 -50 61)">
					<stop  offset="0" style="stop-color:#FF0A00"/>
					<stop  offset="1" style="stop-color:#860A00"/>
				</linearGradient>
				<polygon fill="url(#SVGID_23_)" points="165.286,87.415 159.426,57.839 153.036,69.381 				"/>
				
					<linearGradient id="SVGID_24_" gradientUnits="userSpaceOnUse" x1="242.2461" y1="18.8584" x2="254.2711" y2="22.3272" gradientTransform="matrix(1 0 0 -1 -50 61)">
					<stop  offset="0" style="stop-color:#FF0A00"/>
					<stop  offset="1" style="stop-color:#860A00"/>
				</linearGradient>
				<polygon fill="url(#SVGID_24_)" points="159.426,57.839 150.062,48.079 150.758,54.344 				"/>
				
					<linearGradient id="SVGID_25_" gradientUnits="userSpaceOnUse" x1="139.582" y1="-27.3794" x2="146.0574" y2="-33.8547" gradientTransform="matrix(1 0 0 -1 -50 61)">
					<stop  offset="0" style="stop-color:#FFFFFF"/>
					<stop  offset="1" style="stop-color:#FF0A00;stop-opacity:0"/>
				</linearGradient>
				<polygon fill="url(#SVGID_25_)" points="126.736,109.297 72.971,109.297 77.66,83.441 122.169,83.441 				"/>
				
					<linearGradient id="SVGID_26_" gradientUnits="userSpaceOnUse" x1="139.0127" y1="22.2437" x2="149.4507" y2="1.3676" gradientTransform="matrix(1 0 0 -1 -50 61)">
					<stop  offset="0" style="stop-color:#FFFFFF"/>
					<stop  offset="1" style="stop-color:#FF0A00;stop-opacity:0"/>
				</linearGradient>
				<polygon fill="url(#SVGID_26_)" points="77.31,83.441 47.4,68.308 49.964,48.079 78.25,34.118 122.004,34.118 150.062,48.079 
					152.307,68.308 122.169,83.441 				"/>
				
					<linearGradient id="SVGID_27_" gradientUnits="userSpaceOnUse" x1="130.7344" y1="-76.9419" x2="146.7695" y2="-74.4751" gradientTransform="matrix(1 0 0 -1 -50 61)">
					<stop  offset="0" style="stop-color:#FFFFFF"/>
					<stop  offset="1" style="stop-color:#FF0A00;stop-opacity:0"/>
				</linearGradient>
				<polygon fill="url(#SVGID_27_)" points="100.214,164.785 72.971,109.297 126.736,109.297 				"/>
				
					<linearGradient id="SVGID_28_" gradientUnits="userSpaceOnUse" x1="99.0459" y1="-12.1836" x2="103.3621" y2="-19.5839" gradientTransform="matrix(1 0 0 -1 -50 61)">
					<stop  offset="0" style="stop-color:#FFFFFF"/>
					<stop  offset="1" style="stop-color:#FF0A00;stop-opacity:0"/>
				</linearGradient>
				<polygon fill="url(#SVGID_28_)" points="34.714,87.415 72.971,109.297 77.66,83.441 47.54,68.125 				"/>
			</g>
		</g>
	</g>
</g>
<g id="outline_x5F_white">
	<g>
		<g>
			<path fill="#FFFFFF" d="M122.004,34.118l28.059,13.96l9.363,9.761l5.86,29.575l-65.072,77.371l-65.5-77.371l5.86-29.575
				l9.39-9.761l28.286-13.96H122.004 M122.004,22.118H78.25c-1.842,0-3.659,0.424-5.311,1.239l-28.287,13.96
				c-1.245,0.615-2.375,1.44-3.337,2.441l-9.39,9.761c-1.593,1.656-2.677,3.733-3.123,5.987l-5.86,29.576
				c-0.71,3.584,0.251,7.297,2.612,10.086l65.5,77.371c2.28,2.693,5.631,4.246,9.159,4.246c0.007,0,0.013,0,0.02,0
				c3.535-0.006,6.889-1.57,9.164-4.277l65.072-77.37c2.344-2.786,3.295-6.485,2.588-10.056l-5.859-29.576
				c-0.445-2.248-1.525-4.321-3.111-5.975l-9.363-9.761c-0.957-0.997-2.078-1.821-3.313-2.437l-28.06-13.96
				C125.688,22.548,123.857,22.118,122.004,22.118L122.004,22.118z"/>
		</g>
	</g>
</g>
<g id="outline_x5F_black">
	<g>
		<path d="M122.004,34.118l28.059,13.96l9.363,9.761l5.86,29.575l-65.072,77.371l-65.5-77.371l5.86-29.575l9.39-9.761l28.286-13.96
			H122.004 M123.414,28.118h-1.41H78.25h-1.4l-1.255,0.62l-28.286,13.96l-0.941,0.464l-0.728,0.756l-9.39,9.761l-1.219,1.268
			l-0.342,1.726l-5.86,29.575l-0.562,2.836l1.869,2.207l65.5,77.371l4.594,5.426l4.577-5.441l65.072-77.37l1.854-2.204l-0.56-2.824
			l-5.86-29.575l-0.34-1.721l-1.216-1.266l-9.362-9.761l-0.724-0.753l-0.935-0.465l-28.06-13.96L123.414,28.118L123.414,28.118z"/>
	</g>
</g>
</svg>
