<?xml version="1.0" encoding="utf-8"?>
<!-- Generator: Adobe Illustrator 15.0.0, SVG Export Plug-In . SVG Version: 6.00 Build 0)  -->
<!DOCTYPE svg PUBLIC "-//W3C//DTD SVG 1.1//EN" "http://www.w3.org/Graphics/SVG/1.1/DTD/svg11.dtd">
<svg version="1.1" xmlns="http://www.w3.org/2000/svg" xmlns:xlink="http://www.w3.org/1999/xlink" x="0px" y="0px" width="200px"
	 height="200px" viewBox="0 0 200 200" enable-background="new 0 0 200 200" xml:space="preserve">
<g id="icon">
	<g id="Layer_2">
	</g>
	<g>
		
			<linearGradient id="SVGID_1_" gradientUnits="userSpaceOnUse" x1="978.0703" y1="-67.957" x2="985.1967" y2="-61.8483" gradientTransform="matrix(0.3568 0.9342 -0.9342 0.3568 -318.8015 -772.7075)">
			<stop  offset="0" style="stop-color:#74DC00"/>
			<stop  offset="1" style="stop-color:#2B8600"/>
		</linearGradient>
		<polygon fill="url(#SVGID_1_)" points="38.311,81.684 71.825,27.131 133.174,45.448 161.008,118.316 127.494,172.869 
			66.144,154.553 		"/>
		
			<linearGradient id="SVGID_2_" gradientUnits="userSpaceOnUse" x1="954.9648" y1="-76.1289" x2="926.4597" y2="-82.746" gradientTransform="matrix(0.3568 0.9342 -0.9342 0.3568 -318.8015 -772.7075)">
			<stop  offset="0" style="stop-color:#74DC00"/>
			<stop  offset="1" style="stop-color:#2B8600"/>
		</linearGradient>
		<polygon fill="url(#SVGID_2_)" points="90.659,134.432 136.201,148.027 127.494,172.869 66.144,154.553 		"/>
		
			<linearGradient id="SVGID_3_" gradientUnits="userSpaceOnUse" x1="1003.0664" y1="-65.9697" x2="1016.8104" y2="-61.3884" gradientTransform="matrix(0.3568 0.9342 -0.9342 0.3568 -318.8015 -772.7075)">
			<stop  offset="0" style="stop-color:#FFFFFF"/>
			<stop  offset="1" style="stop-color:#FFFF00;stop-opacity:0"/>
		</linearGradient>
		<polygon fill="url(#SVGID_3_)" points="90.659,134.432 136.201,148.027 127.494,172.869 66.144,154.553 		"/>
		
			<linearGradient id="SVGID_4_" gradientUnits="userSpaceOnUse" x1="873.4199" y1="-39.1914" x2="884.8726" y2="-40.3368" gradientTransform="matrix(0.3568 0.9342 -0.9342 0.3568 -318.8015 -772.7075)">
			<stop  offset="0" style="stop-color:#74DC00"/>
			<stop  offset="1" style="stop-color:#2B8600"/>
		</linearGradient>
		<polygon fill="url(#SVGID_4_)" points="73.483,148.529 107.949,158.82 127.494,172.869 66.144,154.553 		"/>
		
			<linearGradient id="SVGID_5_" gradientUnits="userSpaceOnUse" x1="966.6406" y1="-77.4556" x2="981.9123" y2="-62.1841" gradientTransform="matrix(0.3568 0.9342 -0.9342 0.3568 -318.8015 -772.7075)">
			<stop  offset="0" style="stop-color:#FFFFFF"/>
			<stop  offset="1" style="stop-color:#FFFF00;stop-opacity:0"/>
		</linearGradient>
		<polygon fill="url(#SVGID_5_)" points="38.311,81.684 71.825,27.131 133.174,45.448 161.008,118.316 127.494,172.869 
			66.144,154.553 		"/>
		
			<linearGradient id="SVGID_6_" gradientUnits="userSpaceOnUse" x1="1063.7207" y1="-94.1729" x2="979.7377" y2="-68.2145" gradientTransform="matrix(0.3568 0.9342 -0.9342 0.3568 -318.8015 -772.7075)">
			<stop  offset="0" style="stop-color:#74DC00"/>
			<stop  offset="1" style="stop-color:#2B8600"/>
		</linearGradient>
		<polygon fill="url(#SVGID_6_)" points="136.201,148.027 107.949,158.82 127.494,172.869 127.494,172.869 		"/>
		
			<linearGradient id="SVGID_7_" gradientUnits="userSpaceOnUse" x1="923.9326" y1="-69.1729" x2="920.8786" y2="-66.6282" gradientTransform="matrix(0.3568 0.9342 -0.9342 0.3568 -318.8015 -772.7075)">
			<stop  offset="0" style="stop-color:#74DC00"/>
			<stop  offset="1" style="stop-color:#2B8600"/>
		</linearGradient>
		<polygon fill="url(#SVGID_7_)" points="38.311,81.684 71.825,27.131 94.875,39.841 69.997,80.338 		"/>
		
			<linearGradient id="SVGID_8_" gradientUnits="userSpaceOnUse" x1="853.4199" y1="-12.0439" x2="834.3384" y2="3.2212" gradientTransform="matrix(0.3568 0.9342 -0.9342 0.3568 -318.8015 -772.7075)">
			<stop  offset="0" style="stop-color:#74DC00"/>
			<stop  offset="1" style="stop-color:#2B8600"/>
		</linearGradient>
		<polygon fill="url(#SVGID_8_)" points="38.311,81.684 71.825,27.131 66.624,50.633 47.795,81.282 		"/>
		
			<linearGradient id="SVGID_9_" gradientUnits="userSpaceOnUse" x1="929.1035" y1="-93.0571" x2="918.7947" y2="-87.7119" gradientTransform="matrix(0.3568 0.9342 -0.9342 0.3568 -318.8015 -772.7075)">
			<stop  offset="0" style="stop-color:#74DC00"/>
			<stop  offset="1" style="stop-color:#2B8600"/>
		</linearGradient>
		<polygon fill="url(#SVGID_9_)" points="94.875,39.841 71.825,27.131 66.624,50.633 84.894,56.089 		"/>
		
			<linearGradient id="SVGID_10_" gradientUnits="userSpaceOnUse" x1="916.6074" y1="-105.4561" x2="924.6021" y2="-103.3925" gradientTransform="matrix(0.3568 0.9342 -0.9342 0.3568 -318.8015 -772.7075)">
			<stop  offset="0" style="stop-color:#74DC00"/>
			<stop  offset="1" style="stop-color:#2B8600"/>
		</linearGradient>
		<polygon fill="url(#SVGID_10_)" points="71.825,27.131 133.174,45.448 140.416,53.438 94.875,39.841 		"/>
		
			<linearGradient id="SVGID_11_" gradientUnits="userSpaceOnUse" x1="239.2549" y1="735.4922" x2="258.8385" y2="718.7889" gradientTransform="matrix(1 0 0 1 -100 -591)">
			<stop  offset="0.1104" style="stop-color:#FFFFFF"/>
			<stop  offset="0.3742" style="stop-color:#74DC00"/>
			<stop  offset="1" style="stop-color:#2B8600"/>
		</linearGradient>
		<polygon fill="url(#SVGID_11_)" points="136.201,148.027 161.08,107.533 161.008,118.316 127.494,172.869 		"/>
		
			<linearGradient id="SVGID_12_" gradientUnits="userSpaceOnUse" x1="982.8965" y1="-91.8052" x2="1009.4011" y2="-84.9641" gradientTransform="matrix(0.3568 0.9342 -0.9342 0.3568 -318.8015 -772.7075)">
			<stop  offset="0" style="stop-color:#74DC00"/>
			<stop  offset="1" style="stop-color:#2B8600"/>
		</linearGradient>
		<polygon fill="url(#SVGID_12_)" points="69.997,80.338 94.875,39.841 140.416,53.438 161.08,107.533 136.201,148.027 
			90.659,134.432 		"/>
		
			<linearGradient id="SVGID_13_" gradientUnits="userSpaceOnUse" x1="182.4092" y1="696.9082" x2="204.8714" y2="689.1327" gradientTransform="matrix(1 0 0 1 -100 -591)">
			<stop  offset="0" style="stop-color:#74DC00"/>
			<stop  offset="1" style="stop-color:#2B8600"/>
		</linearGradient>
		<polygon fill="url(#SVGID_13_)" points="112.164,64.23 84.894,56.089 69.997,80.338 90.659,134.432 117.93,142.574 
			132.826,118.324 		"/>
		
			<linearGradient id="SVGID_14_" gradientUnits="userSpaceOnUse" x1="1004.4971" y1="-174.0166" x2="1002.7142" y2="-161.5401" gradientTransform="matrix(0.3568 0.9342 -0.9342 0.3568 -318.8015 -772.7075)">
			<stop  offset="0" style="stop-color:#96DC00"/>
			<stop  offset="1" style="stop-color:#568D00"/>
		</linearGradient>
		<polygon fill="url(#SVGID_14_)" points="161.08,107.533 161.008,118.316 158.494,111.738 		"/>
		
			<linearGradient id="SVGID_15_" gradientUnits="userSpaceOnUse" x1="859.7422" y1="-157.5107" x2="881.8781" y2="-149.6231" gradientTransform="matrix(0.3568 0.9342 -0.9342 0.3568 -318.8015 -772.7075)">
			<stop  offset="0" style="stop-color:#FFFFFF"/>
			<stop  offset="1" style="stop-color:#FFFF00;stop-opacity:0"/>
		</linearGradient>
		<polygon fill="url(#SVGID_15_)" points="140.416,53.438 135.686,52.027 133.174,45.448 		"/>
		
			<linearGradient id="SVGID_16_" gradientUnits="userSpaceOnUse" x1="964.6289" y1="-131.2402" x2="962.8466" y2="-109.5946" gradientTransform="matrix(0.3568 0.9342 -0.9342 0.3568 -318.8015 -772.7075)">
			<stop  offset="0" style="stop-color:#74DC00"/>
			<stop  offset="1" style="stop-color:#2B8600"/>
		</linearGradient>
		<polygon fill="url(#SVGID_16_)" points="140.416,53.438 161.08,107.533 158.494,111.738 135.686,52.027 		"/>
		
			<linearGradient id="SVGID_17_" gradientUnits="userSpaceOnUse" x1="237.6221" y1="688.1562" x2="239.9255" y2="697.3725" gradientTransform="matrix(1 0 0 1 -100 -591)">
			<stop  offset="0" style="stop-color:#74DC00"/>
			<stop  offset="1" style="stop-color:#2B8600"/>
		</linearGradient>
		<polygon fill="url(#SVGID_17_)" points="112.164,64.23 132.826,118.324 158.494,111.738 135.686,52.027 		"/>
		
			<linearGradient id="SVGID_18_" gradientUnits="userSpaceOnUse" x1="242.373" y1="641.4902" x2="212.5932" y2="689.704" gradientTransform="matrix(1 0 0 1 -100 -591)">
			<stop  offset="0.2822" style="stop-color:#FFFFFF"/>
			<stop  offset="0.7117" style="stop-color:#FFFF00;stop-opacity:0"/>
		</linearGradient>
		<polygon fill="url(#SVGID_18_)" points="69.997,80.338 94.875,39.841 140.416,53.438 161.08,107.533 136.201,148.027 
			90.659,134.432 		"/>
		
			<linearGradient id="SVGID_19_" gradientUnits="userSpaceOnUse" x1="1012.3184" y1="-30.835" x2="1040.9528" y2="-26.2534" gradientTransform="matrix(0.3568 0.9342 -0.9342 0.3568 -318.8015 -772.7075)">
			<stop  offset="0" style="stop-color:#74DC00"/>
			<stop  offset="1" style="stop-color:#2B8600"/>
		</linearGradient>
		<polygon fill="url(#SVGID_19_)" points="62.604,145.281 66.144,154.553 73.483,148.529 		"/>
		
			<linearGradient id="SVGID_20_" gradientUnits="userSpaceOnUse" x1="663.1953" y1="-68.8462" x2="697.1784" y2="-64.2642" gradientTransform="matrix(0.3568 0.9342 -0.9342 0.3568 -318.8015 -772.7075)">
			<stop  offset="0" style="stop-color:#96DC00"/>
			<stop  offset="1" style="stop-color:#568D00"/>
		</linearGradient>
		<polygon fill="url(#SVGID_20_)" points="38.311,81.684 41.851,90.956 47.795,81.282 		"/>
	</g>
</g>
<g id="outline_x5F_white">
	<g>
		<g>
			<path fill="#FFFFFF" d="M71.825,27.131l61.349,18.317l7.242,7.99l20.664,54.095l-0.072,10.783l-33.514,54.553l-61.35-18.316
				l-3.54-9.271L41.851,90.955v0.001l-3.54-9.271L71.825,27.131 M71.825,15.13c-4.09,0-8,2.098-10.225,5.72L28.086,75.403
				c-1.952,3.176-2.316,7.079-0.986,10.562l3.54,9.271l20.753,54.329l3.539,9.271c1.33,3.482,4.205,6.148,7.778,7.217l61.349,18.316
				c1.137,0.34,2.291,0.504,3.436,0.504c4.09,0,8-2.102,10.225-5.723l33.516-54.553c1.146-1.865,1.76-4.01,1.773-6.201l0.072-10.781
				c0.01-1.49-0.26-2.971-0.791-4.361l-20.662-54.095c-0.533-1.393-1.316-2.673-2.318-3.778l-7.242-7.99
				c-1.473-1.623-3.359-2.812-5.457-3.439L75.259,15.634C74.122,15.293,72.966,15.13,71.825,15.13L71.825,15.13z"/>
		</g>
	</g>
</g>
<g id="outline_x5F_black">
	<g>
		<path d="M71.825,27.131l61.349,18.317l7.242,7.99l20.664,54.095l-0.072,10.783l-33.514,54.553l-61.35-18.316l-3.54-9.271
			L41.851,90.955v0.001l-3.54-9.271L71.825,27.131 M69.125,20.063l-2.412,3.927L33.199,78.543l-1.547,2.519l1.054,2.763l3.54,9.271
			L57,147.422l3.539,9.271l1.055,2.764l2.834,0.846l61.349,18.316l4.416,1.318l2.412-3.93l33.515-54.553l0.877-1.428l0.012-1.674
			l0.072-10.781l0.008-1.131l-0.401-1.053l-20.664-54.095l-0.401-1.053l-0.759-0.835l-7.241-7.99l-1.125-1.24l-1.604-0.479
			L73.542,21.382L69.125,20.063L69.125,20.063z"/>
	</g>
</g>
</svg>
