<?xml version="1.0" encoding="utf-8"?>
<!-- Generator: Adobe Illustrator 15.0.0, SVG Export Plug-In . SVG Version: 6.00 Build 0)  -->
<!DOCTYPE svg PUBLIC "-//W3C//DTD SVG 1.1//EN" "http://www.w3.org/Graphics/SVG/1.1/DTD/svg11.dtd">
<svg version="1.1" xmlns="http://www.w3.org/2000/svg" xmlns:xlink="http://www.w3.org/1999/xlink" x="0px" y="0px" width="200px"
	 height="200px" viewBox="0 0 200 200" enable-background="new 0 0 200 200" xml:space="preserve">
<g id="icon">
	<g id="Layer_2">
	</g>
	<g id="Layer_1_1_">
		<g>
			
				<radialGradient id="SVGID_1_" cx="203.0938" cy="1151.8184" r="40.7024" gradientTransform="matrix(1 0 0 0.5877 -100 -524.2978)" gradientUnits="userSpaceOnUse">
				<stop  offset="0" style="stop-color:#FFCF0C"/>
				<stop  offset="0.3394" style="stop-color:#FFC500"/>
				<stop  offset="0.8242" style="stop-color:#B8681E"/>
			</radialGradient>
			<path fill="url(#SVGID_1_)" d="M129.902,156.709c0,8.162-12.006,14.777-26.811,14.777c-14.807,0-26.809-6.615-26.809-14.777
				c0-0.648,0-4.75,0-4.75c1.707-7.254,13.182-10.025,26.809-10.025c13.439,0,24.871,2.652,26.812,9.762
				C129.906,151.695,129.902,155.956,129.902,156.709z"/>
			
				<radialGradient id="SVGID_2_" cx="203.0938" cy="1147.3184" r="31.2994" gradientTransform="matrix(1 0 0 0.5877 -100 -526.4023)" gradientUnits="userSpaceOnUse">
				<stop  offset="0.1104" style="stop-color:#CF7C1E"/>
				<stop  offset="0.3804" style="stop-color:#F7A00F"/>
				<stop  offset="0.6933" style="stop-color:#FFB800"/>
				<stop  offset="1" style="stop-color:#FFCF0C"/>
			</radialGradient>
			<ellipse fill="url(#SVGID_2_)" cx="103.094" cy="151.959" rx="26.809" ry="14.777"/>
			
				<radialGradient id="SVGID_3_" cx="203.0117" cy="719.083" r="30.6861" gradientTransform="matrix(1 0 0 1.0555 -100 -592.693)" gradientUnits="userSpaceOnUse">
				<stop  offset="0" style="stop-color:#F7F51E"/>
				<stop  offset="0.3939" style="stop-color:#F7C71E"/>
				<stop  offset="1" style="stop-color:#FFB100"/>
			</radialGradient>
			<path fill="url(#SVGID_3_)" d="M103.094,165.504c-14.432,0-26.196-6.285-26.782-14.16c-0.015,0.205-0.026,0.41-0.026,0.615
				c0,8.162,12.002,14.777,26.81,14.777c14.803,0,26.809-6.615,26.809-14.777c0-0.205-0.014-0.41-0.028-0.615
				C129.287,159.219,117.521,165.504,103.094,165.504z"/>
			
				<radialGradient id="SVGID_4_" cx="203.0938" cy="1142.9404" r="26.2685" gradientTransform="matrix(1 0 0 0.5877 -100 -528.4501)" gradientUnits="userSpaceOnUse">
				<stop  offset="0.1104" style="stop-color:#CF7C1E"/>
				<stop  offset="0.3804" style="stop-color:#F7A00F"/>
				<stop  offset="0.6933" style="stop-color:#FFB800"/>
				<stop  offset="1" style="stop-color:#FFCF0C"/>
			</radialGradient>
			<ellipse fill="url(#SVGID_4_)" cx="103.094" cy="146.682" rx="22.5" ry="12.402"/>
			
				<radialGradient id="SVGID_5_" cx="203.9258" cy="711.082" r="31.1886" gradientTransform="matrix(1 0 0 1.0555 -100 -592.693)" gradientUnits="userSpaceOnUse">
				<stop  offset="0" style="stop-color:#F7F51E"/>
				<stop  offset="0.3939" style="stop-color:#F7C71E"/>
				<stop  offset="1" style="stop-color:#FFB100"/>
			</radialGradient>
			<path fill="url(#SVGID_5_)" d="M103.094,157.854c-12.053,0-21.891-5.223-22.473-11.785c-0.019,0.203-0.027,0.408-0.027,0.613
				c0,6.852,10.072,12.402,22.5,12.402c12.426,0,22.5-5.553,22.5-12.402c0-0.205-0.012-0.41-0.029-0.613
				C124.982,152.631,115.145,157.854,103.094,157.854z"/>
			
				<linearGradient id="SVGID_6_" gradientUnits="userSpaceOnUse" x1="196.752" y1="712.2188" x2="208.502" y2="712.2188" gradientTransform="matrix(1 0 0 1 -100 -591)">
				<stop  offset="0" style="stop-color:#F7F01E"/>
				<stop  offset="0.1333" style="stop-color:#E19700"/>
				<stop  offset="0.3939" style="stop-color:#F7D41E"/>
				<stop  offset="0.6606" style="stop-color:#FFB600"/>
				<stop  offset="0.8008" style="stop-color:#D18804"/>
				<stop  offset="0.9264" style="stop-color:#E6B312"/>
			</linearGradient>
			<path fill="url(#SVGID_6_)" d="M108.502,142.732c0,2.328-2.631,4.213-5.875,4.213l0,0c-3.246,0-5.875-1.885-5.875-4.213V99.705
				c0-2.326,2.629-4.213,5.875-4.213l0,0c3.244,0,5.875,1.887,5.875,4.213V142.732z"/>
			<g>
				<g>
					
						<radialGradient id="SVGID_7_" cx="269.958" cy="602.3447" r="24.4112" gradientTransform="matrix(1 0 0 1.0555 -100 -592.693)" gradientUnits="userSpaceOnUse">
						<stop  offset="0" style="stop-color:#E3E800"/>
						<stop  offset="0.4909" style="stop-color:#FFBB00"/>
						<stop  offset="0.7853" style="stop-color:#FF9A00"/>
						<stop  offset="1" style="stop-color:#C56C12"/>
					</radialGradient>
					<path fill="url(#SVGID_7_)" d="M136.479,111.135c-2.75,1.495-4.383,1.377-6.076-1.098c-2.215-3.232-0.896-8.861,0.311-11.923
						c1.891-4.812,4.918-9.317,8.221-12.501c7.029-6.779,19.373-12.249,21.346-24.42c1.098-6.776-2.021-13.605-6.938-16.513
						c-5.041-2.984-15.6,1.759-13.918,9.833c0.479,2.292-3.803,4.509-4.383,1.724c-2.299-11.03,12.434-23.587,19.699-22.296
						c14.709,2.614,17.883,18.323,13.922,28.781c-4.27,11.27-22.803,20.184-30.135,27.584c-2.799,2.823-10.316,12.708-6.055,17.674
						c1.559,1.814,3.521-1.937,5.221-2.674c2.957-1.285,1.883,3.375-0.156,5.111L136.479,111.135z"/>
				</g>
				<g>
					
						<radialGradient id="SVGID_8_" cx="236.8008" cy="663.0693" r="2.3687" gradientTransform="matrix(1 0 0 1.0555 -100 -592.693)" gradientUnits="userSpaceOnUse">
						<stop  offset="0" style="stop-color:#F7D11E"/>
						<stop  offset="0.3939" style="stop-color:#F7941E"/>
						<stop  offset="1" style="stop-color:#CC6300"/>
					</radialGradient>
					<path fill="url(#SVGID_8_)" d="M137.693,105.309c-1.148,0.498-2.414,2.363-3.596,2.969c0.111,0.171,0.236,0.338,0.375,0.496
						c1.5,1.75,3.377-1.662,5.031-2.572C139.467,105.288,138.943,104.766,137.693,105.309z"/>
					
						<radialGradient id="SVGID_9_" cx="245.8496" cy="635.8281" r="25.4404" gradientTransform="matrix(1 0 0 1.0555 -100 -592.693)" gradientUnits="userSpaceOnUse">
						<stop  offset="0" style="stop-color:#E3E800"/>
						<stop  offset="0.4909" style="stop-color:#FFBB00"/>
						<stop  offset="0.7853" style="stop-color:#FF9A00"/>
						<stop  offset="1" style="stop-color:#C56C12"/>
					</radialGradient>
					<path fill="url(#SVGID_9_)" d="M132.402,110.83c-1.051-1.535-1.301-3.61-1.15-5.693c-0.303-2.402,0.713-5.229,2.131-7.812
						c1.896-4.209,4.611-8.089,7.547-10.919c7.031-6.779,19.373-12.249,21.346-24.42c1.1-6.776-2.021-13.606-6.936-16.514
						c-0.564-0.335-1.201-0.567-1.879-0.713c4.842,2.948,7.902,9.716,6.814,16.435c-1.975,12.171-14.314,17.641-21.346,24.42
						c-3.303,3.184-6.33,7.688-8.221,12.501c-1.205,3.062-2.523,8.689-0.311,11.923c0.979,1.428,1.939,2.049,3.102,2.052
						C133.131,111.766,132.768,111.363,132.402,110.83z"/>
					
						<radialGradient id="SVGID_10_" cx="247.2539" cy="604.8164" r="11.8535" gradientTransform="matrix(1 0 0 1.0555 -100 -592.693)" gradientUnits="userSpaceOnUse">
						<stop  offset="0" style="stop-color:#F7D11E"/>
						<stop  offset="0.3939" style="stop-color:#F7941E"/>
						<stop  offset="1" style="stop-color:#CC6300"/>
					</radialGradient>
					<path fill="url(#SVGID_10_)" d="M137.172,57.441c-0.053-0.125-0.102-0.258-0.133-0.413
						c-2.299-11.03,12.432-23.587,19.699-22.296c1.051,0.187,2.037,0.447,2.971,0.762c-1.482-0.698-3.137-1.228-4.971-1.553
						c-7.268-1.292-21.998,11.266-19.699,22.296C135.289,57.437,136.225,57.705,137.172,57.441z"/>
				</g>
			</g>
			
				<radialGradient id="SVGID_11_" cx="202.123" cy="416.502" r="41.9881" gradientTransform="matrix(1 0 0 1.6622 -100 -629.6719)" gradientUnits="userSpaceOnUse">
				<stop  offset="0" style="stop-color:#F7D11E"/>
				<stop  offset="0.3939" style="stop-color:#F7B31E"/>
				<stop  offset="1" style="stop-color:#D49A00"/>
			</radialGradient>
			<path fill="url(#SVGID_11_)" d="M144.807,59.181c0,41.038-18.635,74.308-41.621,74.308h-1.121
				c-22.986,0-41.623-33.271-41.623-74.308V45.265h84.365V59.181z"/>
			
				<radialGradient id="SVGID_12_" cx="436.416" cy="416.502" r="41.9874" gradientTransform="matrix(0.8696 0 0 1.6622 -277.3187 -629.6719)" gradientUnits="userSpaceOnUse">
				<stop  offset="0" style="stop-color:#F7FF1E"/>
				<stop  offset="0.3939" style="stop-color:#F7DC1E"/>
				<stop  offset="1" style="stop-color:#E8A900"/>
			</radialGradient>
			<path fill="url(#SVGID_12_)" d="M139.307,59.181c0,41.038-16.205,74.308-36.195,74.308h-0.975
				c-19.991,0-36.195-33.271-36.195-74.308V45.265h73.365V59.181z"/>
			
				<radialGradient id="SVGID_13_" cx="839.6885" cy="416.5039" r="41.9866" gradientTransform="matrix(0.6622 0 -0.1135 1.6622 -401.2566 -629.6719)" gradientUnits="userSpaceOnUse">
				<stop  offset="0" style="stop-color:#F7F01E"/>
				<stop  offset="0.3939" style="stop-color:#F7C71E"/>
				<stop  offset="1" style="stop-color:#F0AC00"/>
			</radialGradient>
			<path fill="url(#SVGID_13_)" d="M133.936,57.495c1.25,43.538-15.344,75.993-30.564,75.993h-0.742
				c-10.941,0-21.441-32.455-22.482-74.308l0.951-13.916h55.863L133.936,57.495z"/>
			
				<radialGradient id="SVGID_14_" cx="202.291" cy="308.5205" r="48.8315" gradientTransform="matrix(1 0 0 2.2129 -100 -640.6664)" gradientUnits="userSpaceOnUse">
				<stop  offset="0.5399" style="stop-color:#FF9E00;stop-opacity:0"/>
				<stop  offset="0.7395" style="stop-color:#DE6500;stop-opacity:0.8245"/>
				<stop  offset="1" style="stop-color:#FF8B00;stop-opacity:0"/>
			</radialGradient>
			<path fill="url(#SVGID_14_)" d="M144.807,59.181c0,41.038-18.635,74.308-41.621,74.308h-1.121
				c-22.986,0-41.623-33.271-41.623-74.308V45.265h84.365V59.181z"/>
			
				<radialGradient id="SVGID_15_" cx="352.6826" cy="-718.771" r="73.552" gradientTransform="matrix(-4.371139e-08 1.0555 -0.5393 -2.488193e-08 -283.8738 -328.2184)" gradientUnits="userSpaceOnUse">
				<stop  offset="0" style="stop-color:#F7FF1E"/>
				<stop  offset="0.3939" style="stop-color:#F7D21E"/>
				<stop  offset="1" style="stop-color:#FA9A02"/>
			</radialGradient>
			<ellipse fill="url(#SVGID_15_)" cx="102.634" cy="45.621" rx="42.177" ry="17.107"/>
			<g>
				
					<radialGradient id="SVGID_16_" cx="201.9355" cy="620.668" r="57.2204" gradientTransform="matrix(1 0 0 1.0555 -100 -592.693)" gradientUnits="userSpaceOnUse">
					<stop  offset="0" style="stop-color:#F7FF1E"/>
					<stop  offset="0.3939" style="stop-color:#F7CD1E"/>
					<stop  offset="1" style="stop-color:#FFA700"/>
				</radialGradient>
				<path fill="url(#SVGID_16_)" d="M102.633,61.849c-22.639,0-41.107-7.236-42.127-16.314c-0.029,0.262-0.049,0.524-0.049,0.792
					c0,9.447,18.883,17.106,42.176,17.106c23.295,0,42.178-7.659,42.178-17.106c0-0.267-0.02-0.53-0.049-0.792
					C143.74,54.613,125.271,61.849,102.633,61.849z"/>
			</g>
			
				<radialGradient id="SVGID_17_" cx="212.6328" cy="189.8477" r="45.0194" gradientTransform="matrix(1 0 0 4.0706 -100 -727.3525)" gradientUnits="userSpaceOnUse">
				<stop  offset="0.0613" style="stop-color:#EFD26E"/>
				<stop  offset="0.3497" style="stop-color:#FFD200"/>
				<stop  offset="0.6196" style="stop-color:#CD7724"/>
				<stop  offset="0.8282" style="stop-color:#FCBB00"/>
				<stop  offset="1" style="stop-color:#BD6000"/>
			</radialGradient>
			<ellipse fill="url(#SVGID_17_)" cx="102.633" cy="44.741" rx="38.219" ry="14.424"/>
			<g>
				
					<radialGradient id="SVGID_18_" cx="-2921.3745" cy="3711.5322" r="52.1614" gradientTransform="matrix(-1 0 0 -0.9985 -2818.1045 3736.7153)" gradientUnits="userSpaceOnUse">
					<stop  offset="0" style="stop-color:#F7FF1E"/>
					<stop  offset="0.3939" style="stop-color:#F7CD1E"/>
					<stop  offset="1" style="stop-color:#FFA700"/>
				</radialGradient>
				<path fill="url(#SVGID_18_)" d="M102.633,31.243c20.637,0,37.471,6.24,38.402,14.07c0.025-0.228,0.045-0.454,0.045-0.682
					c0-8.148-17.213-14.753-38.447-14.753c-21.232,0-38.446,6.605-38.446,14.753c0,0.229,0.019,0.455,0.046,0.682
					C65.162,37.482,81.996,31.243,102.633,31.243z"/>
			</g>
			<g>
				<g>
					
						<radialGradient id="SVGID_19_" cx="140.958" cy="635.8428" r="16.4465" gradientTransform="matrix(1 0 0 1.0555 -100 -592.693)" gradientUnits="userSpaceOnUse">
						<stop  offset="0" style="stop-color:#E3E800"/>
						<stop  offset="0.4909" style="stop-color:#FFBB00"/>
						<stop  offset="0.7853" style="stop-color:#FF9A00"/>
						<stop  offset="1" style="stop-color:#C56C12"/>
					</radialGradient>
					<path fill="url(#SVGID_19_)" d="M69.01,123.639c3.25,0.088,5.166-0.881,7.127-4.27c2.561-4.428,0.939-9.449-0.512-11.93
						c-2.281-3.896-5.897-6.893-9.814-8.404c-8.346-3.221-22.915-2.356-25.383-13.671c-1.375-6.3,2.203-14.845,7.941-20.345
						c5.887-5.644,18.352-6.319,16.475,2.741c-0.532,2.571,4.525,2.595,5.172-0.53c2.564-12.377-14.902-17.458-23.422-12.374
						c-17.25,10.291-20.785,27.868-16,36.413c5.154,9.211,27.041,8.623,35.75,12.316c3.322,1.407,12.281,7.522,7.332,14.774
						c-1.805,2.646-4.158-0.135-6.166,0c-3.49,0.231-2.166,4.396,0.25,5.102L69.01,123.639z"/>
				</g>
				<g>
					
						<radialGradient id="SVGID_20_" cx="159.0645" cy="654.9238" r="12.3737" gradientTransform="matrix(1 0 0 1.0555 -100 -592.693)" gradientUnits="userSpaceOnUse">
						<stop  offset="0" style="stop-color:#F7D11E"/>
						<stop  offset="0.3939" style="stop-color:#F7941E"/>
						<stop  offset="1" style="stop-color:#CC6300"/>
					</radialGradient>
					<path fill="url(#SVGID_20_)" d="M43.197,90.791c4.541,7.494,16.633,7.182,23.945,10.004c2.904,1.121,5.639,3.061,7.789,5.573
						c-2.286-3.368-5.574-5.962-9.121-7.333C59.125,96.455,48.451,96.49,43.197,90.791z"/>
					
						<radialGradient id="SVGID_21_" cx="165.5039" cy="624.7695" r="1.9802" gradientTransform="matrix(1 0 0 1.0555 -100 -592.693)" gradientUnits="userSpaceOnUse">
						<stop  offset="0" style="stop-color:#F7D11E"/>
						<stop  offset="0.3939" style="stop-color:#F7941E"/>
						<stop  offset="1" style="stop-color:#CC6300"/>
					</radialGradient>
					<path fill="url(#SVGID_21_)" d="M64.641,63.939c0.418,1.006,0.525,2.267,0.203,3.821c-0.207,1,0.436,1.609,1.33,1.803
						c0.004-0.016,0-0.028,0.004-0.043C66.728,66.857,66.035,65.042,64.641,63.939z"/>
					
						<radialGradient id="SVGID_22_" cx="148.7314" cy="630.709" r="19.5805" gradientTransform="matrix(1 0 0 1.0555 -100 -592.693)" gradientUnits="userSpaceOnUse">
						<stop  offset="0" style="stop-color:#E3E800"/>
						<stop  offset="0.4909" style="stop-color:#FFBB00"/>
						<stop  offset="0.7853" style="stop-color:#FF9A00"/>
						<stop  offset="1" style="stop-color:#C56C12"/>
					</radialGradient>
					<path fill="url(#SVGID_22_)" d="M31.926,93.031c-4.783-8.547-1.25-26.124,16-36.414c5.881-3.509,16.018-2.175,20.895,3.055
						c-4.062-6.657-15.736-8.688-22.227-4.816c-17.25,10.291-20.785,27.868-16,36.413c0.377,0.676,0.855,1.293,1.402,1.868
						C31.975,93.101,31.947,93.066,31.926,93.031z"/>
					
						<radialGradient id="SVGID_23_" cx="170.9238" cy="671.8379" r="5.9153" gradientTransform="matrix(1 0 0 1.0555 -100 -592.693)" gradientUnits="userSpaceOnUse">
						<stop  offset="0" style="stop-color:#F7D11E"/>
						<stop  offset="0.3939" style="stop-color:#F7941E"/>
						<stop  offset="1" style="stop-color:#CC6300"/>
					</radialGradient>
					<path fill="url(#SVGID_23_)" d="M68.842,120.121c2.008-0.135,4.361,2.646,6.168,0c2.709-3.971,1.248-7.598-1.172-10.301
						c1.51,2.435,1.996,5.379-0.162,8.541c-1.805,2.646-4.158-0.135-6.166,0c-3.051,0.203-2.424,3.41-0.604,4.684
						C66.42,121.71,66.82,120.256,68.842,120.121z"/>
				</g>
			</g>
			
				<linearGradient id="SVGID_24_" gradientUnits="userSpaceOnUse" x1="188.959" y1="635.7402" x2="210.9991" y2="635.7402" gradientTransform="matrix(1 0 0 1 -100 -591)">
				<stop  offset="0.3865" style="stop-color:#E38500;stop-opacity:0"/>
				<stop  offset="1" style="stop-color:#AB4200;stop-opacity:0.61"/>
			</linearGradient>
			<ellipse fill="url(#SVGID_24_)" cx="102.633" cy="44.741" rx="38.219" ry="14.424"/>
		</g>
	</g>
</g>
<g id="outline_x5F_white">
	<g>
		<g>
			<path fill="#FFFFFF" d="M102.633,28.514c18.105,0,33.541,4.629,39.521,11.127c3.729-3.482,8.164-5.792,11.49-5.792
				c0.379,0,0.746,0.03,1.094,0.092c0.459,0.082,0.906,0.177,1.344,0.283c0.104,0.025,0.201,0.058,0.303,0.084
				c0.328,0.085,0.656,0.171,0.973,0.271c12.457,3.916,15.02,18.337,11.305,28.143c-3.748,9.897-18.492,17.977-26.998,24.809
				c-1.74,7.523-4.156,14.414-7.104,20.453c0.617-0.457,1.254-1.157,1.879-1.746c0.105-0.103,0.215-0.197,0.318-0.289
				c0.045-0.039,0.092-0.074,0.137-0.111c0.096-0.08,0.188-0.152,0.283-0.22c0.041-0.031,0.082-0.062,0.125-0.089
				c0.133-0.086,0.264-0.165,0.395-0.223c0.172-0.074,0.326-0.123,0.473-0.16c0.051-0.015,0.094-0.018,0.141-0.024
				c0.088-0.015,0.174-0.028,0.252-0.028c0.051,0,0.1,0.006,0.146,0.01c0.062,0.008,0.119,0.02,0.172,0.035
				c0.045,0.014,0.09,0.029,0.131,0.051c0.041,0.022,0.076,0.047,0.109,0.072c0.041,0.031,0.082,0.062,0.115,0.104
				c0.021,0.021,0.033,0.049,0.051,0.07c0.688,0.965-0.275,3.73-1.746,4.984l-1.059,0.715c-1.16,0.633-2.116,0.954-2.969,0.954
				c-0.003,0-0.005,0-0.008,0c-0.004,0-0.01-0.001-0.014-0.001c-0.258-0.002-0.508-0.037-0.746-0.104
				c-0.049-0.015-0.098-0.025-0.143-0.043c-0.031-0.01-0.064-0.018-0.098-0.027c-6.338,11.232-14.689,18.829-24.002,20.95v1.778
				c7.779,1.06,13.961,4.348,16.188,8.564c3.168,2.371,5.076,5.282,5.195,8.438c0.006,0.018,0.014,0.03,0.021,0.049
				c0,0-0.006,4.262-0.006,5.015c0,8.162-12.004,14.776-26.809,14.776c-14.807,0-26.809-6.614-26.809-14.776c0-0.647,0-4.75,0-4.75
				c0-3.274,1.936-6.301,5.209-8.75c2.141-4.049,7.918-7.238,15.258-8.426v-1.918c-7.475-1.701-14.328-6.933-20.02-14.74
				c-0.171,0.418-0.359,0.835-0.596,1.244c-1.881,3.252-3.721,4.274-6.738,4.274c-0.127,0-0.257-0.002-0.389-0.006l-1.25-0.178
				c-0.314-0.092-0.609-0.244-0.879-0.438c-0.111-0.08-0.217-0.166-0.319-0.256c-0.042-0.041-0.079-0.084-0.123-0.125
				c-0.063-0.065-0.128-0.132-0.188-0.201c-0.043-0.051-0.08-0.102-0.119-0.151c-0.053-0.067-0.105-0.14-0.154-0.21
				c-0.035-0.055-0.07-0.109-0.104-0.165c-0.043-0.073-0.084-0.147-0.123-0.224c-0.029-0.059-0.057-0.112-0.082-0.172
				c-0.035-0.078-0.066-0.156-0.096-0.235c-0.02-0.056-0.041-0.112-0.059-0.169c-0.025-0.088-0.047-0.176-0.064-0.264
				c-0.011-0.05-0.023-0.099-0.031-0.146c-0.022-0.127-0.031-0.251-0.033-0.374c0-0.011-0.002-0.021-0.002-0.031
				c-0.002-0.133,0.012-0.262,0.033-0.389c0.008-0.039,0.02-0.075,0.029-0.113c0.021-0.086,0.045-0.171,0.075-0.252
				c0.019-0.044,0.041-0.084,0.062-0.126c0.037-0.07,0.074-0.143,0.121-0.208c0.029-0.041,0.061-0.08,0.094-0.119
				c0.051-0.061,0.107-0.118,0.17-0.174c0.041-0.035,0.08-0.067,0.125-0.103c0.07-0.053,0.148-0.098,0.23-0.144
				c0.049-0.026,0.096-0.054,0.15-0.077c0.096-0.043,0.205-0.074,0.314-0.107c0.053-0.016,0.1-0.034,0.156-0.049
				c0.174-0.039,0.359-0.067,0.566-0.082c0.048-0.004,0.096-0.006,0.145-0.006c1.318,0,2.773,1.152,4.119,1.152
				c0.671,0,1.316-0.287,1.902-1.146c0.146-0.215,0.277-0.426,0.4-0.637c0.039-0.07,0.074-0.141,0.11-0.211
				c0.079-0.142,0.153-0.281,0.22-0.423c0.039-0.08,0.071-0.159,0.107-0.239c0.057-0.132,0.109-0.259,0.158-0.388
				c0.031-0.083,0.061-0.166,0.088-0.249c0.043-0.126,0.08-0.249,0.115-0.373c0.022-0.083,0.045-0.165,0.063-0.246
				c0.007-0.02,0.009-0.039,0.015-0.06c-1.998-3.063-3.83-6.46-5.471-10.142c-1.191-0.849-2.332-1.471-3.139-1.812
				c-8.373-3.551-28.924-3.15-35.074-11.301c-0.016-0.021-0.033-0.04-0.049-0.061c-0.229-0.307-0.441-0.623-0.627-0.955
				c-4.785-8.545-1.25-26.122,16-36.413c0.361-0.215,0.744-0.406,1.134-0.585c0.097-0.043,0.19-0.085,0.286-0.126
				c0.395-0.169,0.798-0.327,1.217-0.461c0.025-0.007,0.051-0.013,0.076-0.021c0.404-0.128,0.818-0.233,1.24-0.328
				c0.099-0.022,0.199-0.045,0.301-0.066c0.447-0.091,0.9-0.169,1.361-0.226c0.035-0.005,0.07-0.006,0.104-0.01
				c0.442-0.052,0.89-0.084,1.341-0.104c0.088-0.004,0.176-0.009,0.264-0.013c0.221-0.006,0.442-0.01,0.664-0.01
				c0.268,0,0.536,0.005,0.805,0.016c0.025,0.002,0.05,0.004,0.078,0.005c0.482,0.022,0.965,0.065,1.447,0.121
				c0.057,0.006,0.113,0.012,0.17,0.019c0.514,0.064,1.022,0.146,1.529,0.247c0.006,0.002,0.012,0.003,0.018,0.004
				c0.516,0.104,1.025,0.229,1.529,0.372c0.016,0.005,0.03,0.008,0.047,0.013c0.078,0.022,0.158,0.042,0.236,0.064V45.26h0.036
				C60.949,35.982,79.635,28.514,102.633,28.514 M144.787,45.265h0.02v0.309c0,0.017,0.004,0.032,0.004,0.047
				c0,0.016-0.004,0.031-0.004,0.047v0.609c0,0.016,0.004,0.032,0.004,0.048c0,0.015-0.004,0.03-0.004,0.045v12.809
				c0,8.098-0.736,15.887-2.076,23.185c6.984-5.494,15.896-10.987,17.545-21.172c0.068-0.421,0.119-0.843,0.156-1.265
				c0.014-0.163,0.018-0.324,0.023-0.485c0.016-0.258,0.035-0.517,0.039-0.773c0.002-0.226-0.01-0.45-0.018-0.674
				c-0.004-0.191,0-0.383-0.014-0.573c-0.016-0.262-0.047-0.519-0.07-0.779c-0.018-0.151-0.025-0.301-0.043-0.451
				c-0.039-0.288-0.092-0.572-0.143-0.855c-0.021-0.116-0.035-0.236-0.061-0.352c-0.062-0.313-0.141-0.621-0.219-0.925
				c-0.021-0.084-0.037-0.17-0.061-0.254c-0.092-0.333-0.195-0.66-0.305-0.984c-0.02-0.052-0.031-0.108-0.049-0.16
				c-0.123-0.351-0.258-0.692-0.398-1.031c-0.01-0.024-0.018-0.05-0.029-0.075c-0.15-0.355-0.314-0.703-0.486-1.044
				c-0.004-0.005-0.006-0.011-0.01-0.017c-1.236-2.424-3.01-4.442-5.125-5.733c-0.043-0.026-0.084-0.058-0.129-0.083
				c-1.031-0.611-2.295-0.897-3.636-0.897c-1.619,0-3.353,0.417-4.935,1.183C144.777,45.064,144.783,45.165,144.787,45.265
				 M43.199,90.792L43.199,90.792L43.199,90.792C43.198,90.791,43.198,90.791,43.199,90.792c3.994,4.331,11.115,5.352,17.24,6.725
				c0.375,0.083,0.747,0.169,1.114,0.255c0.121,0.03,0.24,0.061,0.359,0.09c0.342,0.084,0.678,0.17,1.01,0.258
				c0.096,0.025,0.193,0.051,0.287,0.078c0.4,0.109,0.791,0.225,1.174,0.345c0.09,0.028,0.178,0.058,0.265,0.087
				c0.399,0.129,0.789,0.263,1.163,0.406c0.451,0.176,0.9,0.371,1.342,0.584c-4.066-11.165-6.494-24.396-6.686-38.623
				c-0.553-0.096-1.137-0.143-1.742-0.143c-3.474,0-7.623,1.546-10.356,4.166c-5.738,5.5-9.316,14.045-7.941,20.345
				C40.918,87.615,41.895,89.378,43.199,90.792 M102.633,16.514c-12.594,0-24.656,2.041-33.963,5.745
				c-13.967,5.56-18.438,13.481-19.727,19.155c-0.164,0.031-0.329,0.063-0.496,0.097c-0.211,0.044-0.39,0.083-0.565,0.123
				c-0.69,0.156-1.333,0.324-1.94,0.508c-0.009,0.003-0.018,0.005-0.027,0.008c-0.113,0.032-0.225,0.066-0.337,0.102
				c-0.749,0.239-1.501,0.522-2.301,0.866c-0.116,0.049-0.242,0.105-0.369,0.162l-0.054,0.024c-0.051,0.022-0.102,0.045-0.152,0.069
				c-0.849,0.392-1.564,0.765-2.251,1.174c-22.32,13.315-28.528,37.939-20.327,52.584c0.424,0.758,0.908,1.501,1.475,2.262
				c0.028,0.038,0.056,0.075,0.084,0.112c0.041,0.053,0.086,0.112,0.133,0.171c6.872,8.934,19.282,11.041,30.239,12.901
				c1.052,0.179,2.181,0.37,3.291,0.569c-0.172,0.291-0.307,0.541-0.408,0.734c-0.027,0.053-0.053,0.104-0.079,0.153
				c-0.099,0.194-0.24,0.479-0.394,0.846c-0.065,0.155-0.128,0.312-0.187,0.472c-0.165,0.439-0.307,0.893-0.432,1.373
				c-0.055,0.2-0.125,0.479-0.194,0.821c-0.024,0.122-0.047,0.244-0.068,0.366c-0.145,0.855-0.212,1.72-0.199,2.562
				c0.001,0.104,0.004,0.209,0.009,0.313c0.022,0.665,0.09,1.323,0.201,1.962c0.038,0.219,0.083,0.441,0.132,0.664
				c0.074,0.344,0.161,0.689,0.26,1.029c0.021,0.074,0.043,0.146,0.065,0.219c0.064,0.208,0.135,0.418,0.209,0.624
				c0.023,0.067,0.034,0.096,0.059,0.162c0.119,0.321,0.241,0.622,0.372,0.918c0.114,0.258,0.233,0.507,0.363,0.763
				c0.015,0.03,0.031,0.061,0.046,0.09c0.134,0.26,0.275,0.514,0.423,0.766c0.014,0.023,0.028,0.049,0.042,0.07
				c0.119,0.2,0.245,0.4,0.371,0.594c0.046,0.07,0.093,0.143,0.141,0.211c0.163,0.236,0.335,0.475,0.51,0.701
				c0.173,0.229,0.343,0.441,0.527,0.657c0.276,0.325,0.511,0.571,0.705,0.771c0.021,0.021,0.044,0.045,0.067,0.067
				c0.13,0.135,0.26,0.266,0.394,0.394c0.105,0.101,0.213,0.198,0.322,0.296c0.41,0.361,0.837,0.705,1.269,1.018
				c1.42,1.014,2.93,1.75,4.526,2.217c0.551,0.16,1.113,0.28,1.682,0.36l1.25,0.179c0.45,0.062,0.903,0.102,1.357,0.112
				c0.241,0.007,0.479,0.011,0.712,0.011c0.897,0,1.77-0.052,2.618-0.15c-5.008,4.582-7.731,10.339-7.731,16.466v4.75
				c0,15.267,16.684,26.776,38.81,26.776c22.125,0,38.809-11.512,38.809-26.776l0.005-5.003c0-0.473-0.027-0.941-0.082-1.41
				c-0.466-5.65-3.275-10.934-8.038-15.146c-0.602-0.84-1.264-1.645-1.982-2.414c2.893-2.866,5.604-6.194,8.112-9.965
				c0.759-0.311,1.522-0.676,2.3-1.098c0.338-0.184,0.664-0.383,0.981-0.597l1.058-0.716c0.37-0.25,0.727-0.521,1.065-0.812
				c4.991-4.256,7.938-12.19,5.065-18.733c0.682-2.047,1.312-4.145,1.889-6.28c1.125-0.819,2.328-1.674,3.565-2.554
				c9.343-6.635,19.931-14.155,24.041-25.01c3.49-9.214,3.087-19.838-1.079-28.418c-3.625-7.467-9.965-12.944-17.848-15.422
				c-0.532-0.168-1.032-0.302-1.421-0.403c-0.201-0.058-0.396-0.11-0.593-0.159c-0.752-0.181-1.426-0.323-2.104-0.443
				c-1.034-0.184-2.108-0.277-3.192-0.277c-3.644,0-7.551,1.077-11.377,3.073C131.091,18.838,115.455,16.514,102.633,16.514
				L102.633,16.514z"/>
		</g>
	</g>
</g>
<g id="outline_x5F_black">
	<g>
		<path d="M102.633,28.514c18.105,0,33.541,4.629,39.521,11.127c3.729-3.482,8.164-5.792,11.49-5.792
			c0.379,0,0.746,0.03,1.094,0.092c0.459,0.082,0.906,0.177,1.344,0.283c0.104,0.025,0.201,0.058,0.303,0.084
			c0.328,0.085,0.656,0.171,0.973,0.271c12.457,3.916,15.02,18.337,11.305,28.143c-3.748,9.897-18.492,17.977-26.998,24.809
			c-1.74,7.523-4.156,14.414-7.104,20.453c0.617-0.457,1.254-1.157,1.879-1.746c0.105-0.103,0.215-0.197,0.318-0.289
			c0.045-0.039,0.092-0.074,0.137-0.111c0.096-0.08,0.188-0.152,0.283-0.22c0.041-0.031,0.082-0.062,0.125-0.089
			c0.133-0.086,0.264-0.165,0.395-0.223c0.172-0.074,0.326-0.123,0.473-0.16c0.051-0.015,0.094-0.018,0.141-0.024
			c0.088-0.015,0.174-0.028,0.252-0.028c0.051,0,0.1,0.006,0.146,0.01c0.062,0.008,0.119,0.02,0.172,0.035
			c0.045,0.014,0.09,0.029,0.131,0.051c0.041,0.022,0.076,0.047,0.109,0.072c0.041,0.031,0.082,0.062,0.115,0.104
			c0.021,0.021,0.033,0.049,0.051,0.07c0.688,0.965-0.275,3.73-1.746,4.984l-1.059,0.715c-1.162,0.633-2.116,0.954-2.969,0.954
			c-0.003,0-0.005,0-0.008,0c-0.004,0-0.01-0.001-0.014-0.001c-0.258-0.002-0.508-0.037-0.746-0.104
			c-0.049-0.015-0.098-0.025-0.143-0.043c-0.031-0.01-0.064-0.018-0.098-0.027c-6.338,11.232-14.689,18.829-24.002,20.95v1.778
			c7.779,1.06,13.961,4.348,16.188,8.564c3.168,2.371,5.076,5.282,5.195,8.438c0.006,0.018,0.014,0.03,0.021,0.049
			c0,0-0.006,4.262-0.006,5.015c0,8.162-12.004,14.776-26.809,14.776c-14.807,0-26.809-6.614-26.809-14.776c0-0.647,0-4.75,0-4.75
			c0-3.274,1.936-6.301,5.209-8.75c2.141-4.049,7.918-7.238,15.258-8.426v-1.918c-7.475-1.701-14.328-6.933-20.02-14.74
			c-0.171,0.418-0.359,0.835-0.596,1.244c-1.881,3.251-3.722,4.274-6.738,4.274c-0.127,0-0.257-0.002-0.389-0.006l-1.25-0.178
			c-0.314-0.092-0.609-0.244-0.879-0.438c-0.111-0.08-0.217-0.166-0.319-0.256c-0.042-0.041-0.079-0.084-0.123-0.125
			c-0.063-0.065-0.128-0.132-0.188-0.201c-0.043-0.051-0.08-0.102-0.119-0.151c-0.053-0.067-0.105-0.14-0.154-0.21
			c-0.035-0.055-0.07-0.109-0.104-0.165c-0.043-0.073-0.084-0.147-0.123-0.224c-0.029-0.059-0.057-0.112-0.082-0.172
			c-0.035-0.078-0.066-0.156-0.096-0.235c-0.02-0.056-0.041-0.112-0.059-0.169c-0.025-0.088-0.047-0.176-0.064-0.264
			c-0.011-0.05-0.023-0.099-0.031-0.146c-0.022-0.127-0.031-0.251-0.033-0.374c0-0.011-0.002-0.021-0.002-0.031
			c-0.002-0.133,0.012-0.262,0.033-0.389c0.008-0.039,0.02-0.075,0.029-0.113c0.021-0.086,0.045-0.171,0.075-0.252
			c0.019-0.044,0.041-0.084,0.062-0.126c0.037-0.07,0.074-0.143,0.121-0.208c0.029-0.041,0.061-0.08,0.094-0.119
			c0.051-0.061,0.107-0.118,0.17-0.174c0.041-0.035,0.08-0.067,0.125-0.103c0.07-0.053,0.148-0.098,0.23-0.144
			c0.049-0.026,0.096-0.054,0.15-0.077c0.096-0.043,0.205-0.074,0.314-0.107c0.053-0.016,0.1-0.034,0.156-0.049
			c0.174-0.039,0.359-0.067,0.566-0.082c0.048-0.004,0.096-0.006,0.145-0.006c1.318,0,2.773,1.152,4.119,1.152
			c0.671,0,1.316-0.287,1.902-1.146c0.146-0.215,0.277-0.426,0.4-0.637c0.039-0.07,0.074-0.141,0.11-0.211
			c0.079-0.142,0.153-0.281,0.22-0.423c0.039-0.08,0.071-0.159,0.107-0.239c0.057-0.132,0.109-0.259,0.158-0.388
			c0.031-0.083,0.061-0.166,0.088-0.249c0.043-0.126,0.08-0.249,0.115-0.373c0.022-0.083,0.045-0.165,0.063-0.246
			c0.007-0.02,0.009-0.039,0.015-0.06c-1.998-3.063-3.83-6.46-5.471-10.142c-1.191-0.849-2.332-1.471-3.139-1.812
			c-8.373-3.551-28.924-3.15-35.074-11.301c-0.016-0.021-0.033-0.04-0.049-0.061c-0.229-0.307-0.441-0.623-0.627-0.955
			c-4.785-8.545-1.25-26.122,16-36.413c0.361-0.215,0.744-0.406,1.134-0.585c0.097-0.043,0.19-0.085,0.286-0.126
			c0.395-0.169,0.798-0.327,1.217-0.461c0.025-0.007,0.051-0.013,0.076-0.021c0.404-0.128,0.818-0.233,1.24-0.328
			c0.099-0.022,0.199-0.045,0.301-0.066c0.447-0.091,0.9-0.169,1.361-0.226c0.035-0.005,0.07-0.006,0.104-0.01
			c0.442-0.052,0.89-0.084,1.341-0.104c0.088-0.004,0.176-0.009,0.264-0.013c0.221-0.006,0.442-0.01,0.665-0.01
			c0.267,0,0.536,0.005,0.804,0.016c0.025,0.002,0.05,0.004,0.078,0.005c0.482,0.022,0.965,0.065,1.447,0.121
			c0.057,0.006,0.113,0.012,0.17,0.019c0.514,0.064,1.022,0.146,1.529,0.247c0.006,0.002,0.012,0.003,0.018,0.004
			c0.516,0.104,1.025,0.229,1.529,0.372c0.016,0.005,0.03,0.008,0.047,0.013c0.078,0.022,0.158,0.042,0.236,0.064V45.26h0.036
			C60.949,35.982,79.635,28.514,102.633,28.514 M144.787,45.265h0.02v0.309c0,0.017,0.004,0.032,0.004,0.047
			c0,0.016-0.004,0.031-0.004,0.047v0.609c0,0.016,0.004,0.032,0.004,0.048c0,0.015-0.004,0.03-0.004,0.045v12.809
			c0,8.098-0.736,15.887-2.076,23.185c6.984-5.494,15.896-10.987,17.545-21.172c0.068-0.421,0.119-0.843,0.156-1.265
			c0.014-0.163,0.018-0.324,0.023-0.485c0.016-0.258,0.035-0.517,0.039-0.773c0.002-0.226-0.01-0.45-0.018-0.674
			c-0.004-0.191,0-0.383-0.014-0.573c-0.016-0.262-0.047-0.519-0.07-0.779c-0.018-0.151-0.025-0.301-0.043-0.451
			c-0.039-0.288-0.092-0.572-0.143-0.855c-0.021-0.116-0.035-0.236-0.061-0.352c-0.062-0.313-0.141-0.621-0.219-0.925
			c-0.021-0.084-0.037-0.17-0.061-0.254c-0.092-0.333-0.195-0.66-0.305-0.984c-0.02-0.052-0.031-0.108-0.049-0.16
			c-0.123-0.351-0.258-0.692-0.398-1.031c-0.01-0.024-0.018-0.05-0.029-0.075c-0.15-0.355-0.314-0.703-0.486-1.044
			c-0.004-0.005-0.006-0.011-0.01-0.017c-1.236-2.424-3.01-4.442-5.125-5.733c-0.043-0.026-0.084-0.058-0.129-0.083
			c-1.031-0.611-2.295-0.897-3.636-0.897c-1.619,0-3.353,0.417-4.935,1.183C144.777,45.064,144.783,45.165,144.787,45.265
			 M43.199,90.792L43.199,90.792C43.198,90.792,43.198,90.792,43.199,90.792C43.198,90.791,43.198,90.791,43.199,90.792
			c3.994,4.331,11.115,5.352,17.24,6.725c0.375,0.083,0.747,0.169,1.114,0.255c0.121,0.03,0.24,0.061,0.359,0.09
			c0.342,0.084,0.678,0.17,1.01,0.258c0.096,0.025,0.193,0.051,0.287,0.078c0.4,0.109,0.791,0.225,1.174,0.345
			c0.09,0.028,0.178,0.058,0.265,0.087c0.399,0.129,0.789,0.263,1.163,0.406c0.451,0.176,0.9,0.371,1.342,0.584
			c-4.066-11.165-6.494-24.396-6.686-38.623c-0.553-0.096-1.137-0.143-1.742-0.143c-3.474,0-7.623,1.546-10.356,4.166
			c-5.738,5.5-9.316,14.045-7.941,20.345C40.918,87.615,41.895,89.378,43.199,90.792 M102.633,22.514
			c-22.899,0-46.451,7.408-48.076,21.582c-0.076,0.378-0.115,0.769-0.115,1.169v1.642c-0.233,0.001-0.466,0.005-0.698,0.012
			c-0.019,0-0.038,0.001-0.057,0.002l-0.274,0.013l-0.057,0.003c-0.562,0.024-1.117,0.067-1.658,0.128
			c-0.08,0.007-0.159,0.016-0.238,0.026c-0.585,0.073-1.178,0.171-1.811,0.3c-0.156,0.032-0.296,0.063-0.433,0.095
			c-0.586,0.132-1.097,0.266-1.583,0.416c-0.02,0.005-0.039,0.011-0.058,0.017c-0.056,0.016-0.112,0.033-0.168,0.051
			c-0.562,0.18-1.137,0.397-1.759,0.664c-0.095,0.041-0.193,0.084-0.293,0.129l-0.063,0.028c-0.025,0.011-0.05,0.022-0.075,0.034
			c-0.652,0.301-1.19,0.581-1.693,0.88c-8.951,5.339-15.638,13.143-18.833,21.974c-2.936,8.113-2.685,16.534,0.67,22.525
			c0.297,0.532,0.642,1.06,1.051,1.608c0.013,0.018,0.026,0.036,0.04,0.053c0.026,0.034,0.059,0.076,0.091,0.117
			c5.408,7.1,16.622,9.002,26.518,10.684c4.241,0.72,8.627,1.465,10.943,2.445c0.186,0.08,0.447,0.209,0.758,0.384
			c0.477,1.014,0.969,2.008,1.476,2.981c-0.214,0.032-0.428,0.073-0.639,0.123c-0.239,0.055-0.455,0.118-0.609,0.17
			c-0.198,0.062-0.535,0.166-0.926,0.338c-0.235,0.104-0.417,0.197-0.596,0.297c-0.24,0.132-0.567,0.318-0.929,0.586
			c-0.165,0.121-0.316,0.244-0.469,0.374c-0.014,0.013-0.038,0.032-0.052,0.046c-0.291,0.255-0.565,0.535-0.815,0.833
			c-0.118,0.139-0.251,0.309-0.378,0.485c-0.27,0.383-0.441,0.693-0.562,0.927c-0.016,0.03-0.032,0.062-0.048,0.094
			c-0.079,0.155-0.151,0.31-0.219,0.469c-0.033,0.077-0.064,0.155-0.093,0.234c-0.125,0.333-0.205,0.622-0.258,0.827
			c-0.042,0.152-0.079,0.305-0.11,0.463c-0.012,0.058-0.022,0.115-0.032,0.173c-0.086,0.506-0.124,0.989-0.117,1.478
			c0.001,0.061,0.003,0.117,0.005,0.176c0.012,0.398,0.05,0.777,0.115,1.156c0.023,0.135,0.051,0.272,0.083,0.41
			c0.046,0.217,0.1,0.432,0.163,0.648c0.011,0.039,0.023,0.078,0.035,0.115c0.038,0.123,0.08,0.246,0.124,0.369
			c0.011,0.03,0.026,0.07,0.038,0.104c0.072,0.195,0.15,0.39,0.236,0.582c0.069,0.156,0.142,0.308,0.221,0.463
			c0.007,0.016,0.016,0.029,0.023,0.045c0.086,0.167,0.178,0.332,0.273,0.495c0.097,0.163,0.177,0.291,0.258,0.414
			c0.023,0.035,0.046,0.069,0.069,0.104c0.106,0.153,0.219,0.31,0.334,0.459c0.116,0.15,0.226,0.291,0.347,0.432
			c0.111,0.131,0.256,0.285,0.405,0.438c0.019,0.021,0.042,0.042,0.066,0.066c0.082,0.086,0.162,0.166,0.244,0.244
			c0.053,0.051,0.106,0.1,0.161,0.146c0.263,0.233,0.523,0.441,0.795,0.639c0.85,0.604,1.752,1.047,2.701,1.324
			c0.275,0.079,0.557,0.142,0.841,0.182l1.25,0.177c0.225,0.032,0.451,0.051,0.678,0.058c0.187,0.006,0.371,0.008,0.551,0.008
			c2.871,0,5.303-0.686,7.387-2.11c2.087,2.172,4.276,4.063,6.545,5.665c-2.729,1.654-4.914,3.679-6.423,5.988
			c-4.281,3.562-6.623,8.059-6.623,12.771v4.75c0,11.846,14.104,20.777,32.81,20.777c18.705,0,32.81-8.934,32.81-20.777l0.004-5.008
			c0-0.27-0.019-0.538-0.054-0.805c-0.324-4.321-2.635-8.428-6.58-11.713c-1.594-2.427-3.963-4.547-6.922-6.259
			c5.033-3.636,9.635-8.729,13.651-15.157c1.066-0.271,2.165-0.724,3.343-1.363c0.168-0.092,0.332-0.191,0.491-0.299l1.058-0.715
			c0.187-0.125,0.363-0.262,0.533-0.406c3.014-2.569,5.719-8.584,2.857-12.86c-0.148-0.229-0.309-0.44-0.479-0.644
			c1.217-3.359,2.282-6.867,3.194-10.503c1.627-1.231,3.456-2.531,5.364-3.886c8.645-6.139,18.439-13.097,21.902-22.244
			c2.873-7.584,2.543-16.656-0.863-23.673c-2.938-6.053-7.867-10.312-14.25-12.319c-0.436-0.138-0.848-0.246-1.213-0.341
			c-0.158-0.046-0.295-0.084-0.436-0.118c-0.607-0.146-1.162-0.263-1.722-0.362c-0.688-0.123-1.41-0.185-2.144-0.185
			c-3.49,0-7.531,1.47-11.393,4.063C133.627,26.03,119.13,22.514,102.633,22.514L102.633,22.514z M150.529,67.931
			c0.185-2.9,0.277-5.82,0.277-8.75v-8.983c0.934,0.696,1.795,1.756,2.44,3.025c0.006,0.012,0.015,0.025,0.021,0.037
			c0.098,0.194,0.188,0.387,0.271,0.575c0.004,0.01,0.007,0.019,0.011,0.027c0.014,0.034,0.027,0.067,0.041,0.101
			c0.084,0.198,0.158,0.389,0.229,0.579c0.021,0.066,0.041,0.13,0.062,0.194c0.064,0.196,0.131,0.391,0.188,0.588
			c0.018,0.077,0.033,0.146,0.052,0.216c0.049,0.191,0.098,0.373,0.137,0.557c0.019,0.118,0.035,0.222,0.054,0.322
			c0.03,0.168,0.062,0.336,0.088,0.505l0.004,0.051l0.027,0.287l0.021,0.219c0.011,0.09,0.021,0.181,0.026,0.272l0.002,0.091
			c0,0.102,0.002,0.203,0.004,0.305l0.009,0.242c0.004,0.076,0.008,0.152,0.008,0.229c-0.001,0.069-0.013,0.179-0.019,0.289
			l-0.012,0.171c-0.001,0.025-0.003,0.049-0.004,0.074l-0.01,0.233l-0.003,0.073c-0.022,0.262-0.056,0.521-0.097,0.772
			C153.874,63.19,152.471,65.678,150.529,67.931L150.529,67.931z M47.655,86.774c-0.015-0.017-0.031-0.034-0.046-0.051
			c-0.665-0.721-1.084-1.558-1.318-2.636c-0.888-4.065,1.85-10.537,6.23-14.736c0.596-0.572,1.364-1.082,2.204-1.489
			c0.499,7.966,1.684,15.735,3.509,23.042C53.94,89.979,49.701,88.938,47.655,86.774L47.655,86.774z"/>
	</g>
</g>
</svg>
