<?xml version="1.0" encoding="utf-8"?>
<!-- Generator: Adobe Illustrator 15.0.0, SVG Export Plug-In . SVG Version: 6.00 Build 0)  -->
<!DOCTYPE svg PUBLIC "-//W3C//DTD SVG 1.1//EN" "http://www.w3.org/Graphics/SVG/1.1/DTD/svg11.dtd">
<svg version="1.1" xmlns="http://www.w3.org/2000/svg" xmlns:xlink="http://www.w3.org/1999/xlink" x="0px" y="0px" width="200px"
	 height="200px" viewBox="0 0 200 200" enable-background="new 0 0 200 200" xml:space="preserve">
<g id="icon">
	<g id="Layer_2">
	</g>
	<g id="Layer_1_1_">
		<g>
			
				<linearGradient id="SVGID_1_" gradientUnits="userSpaceOnUse" x1="295.1211" y1="-117.1826" x2="389.3484" y2="-215.543" gradientTransform="matrix(0.9245 -0.106 0.1001 -1.0931 -206.1188 -36.7226)">
				<stop  offset="0" style="stop-color:#860A00"/>
				<stop  offset="1" style="stop-color:#320000"/>
			</linearGradient>
			<path fill="url(#SVGID_1_)" d="M129.529,70.207c24.445,23.816,18.468,71.205,18.468,71.205
				c-1.388,1.418-10.638,8.307-12.136,9.535c-22.495,18.447-57.133,16.199-80.048-6.131c-22.922-22.328-25.983-56.812-8.022-79.672
				c1.196-1.524,6.695-8.003,8.077-9.416C55.868,55.727,105.083,46.391,129.529,70.207z"/>
			
				<linearGradient id="SVGID_2_" gradientUnits="userSpaceOnUse" x1="221.9062" y1="240.0068" x2="229.4064" y2="162.5043" gradientTransform="matrix(0.9865 0.1636 0.1636 -0.9865 -153.9871 278.3307)">
				<stop  offset="0" style="stop-color:#FFFFFF"/>
				<stop  offset="0.1888" style="stop-color:#FDFCFB"/>
				<stop  offset="0.385" style="stop-color:#F9F2EE"/>
				<stop  offset="0.5846" style="stop-color:#F1E2DA"/>
				<stop  offset="0.7866" style="stop-color:#E6CCBC"/>
				<stop  offset="0.9887" style="stop-color:#D8B097"/>
				<stop  offset="1" style="stop-color:#D7AE95"/>
			</linearGradient>
			<path fill="url(#SVGID_2_)" d="M143.764,55.672c24.93,24.288,26.822,62.674,4.233,85.739
				c-22.593,23.067-61.115,22.075-86.045-2.207c-24.931-24.287-26.821-62.678-4.229-85.743
				C80.313,30.396,118.837,31.385,143.764,55.672z"/>
			
				<linearGradient id="SVGID_3_" gradientUnits="userSpaceOnUse" x1="149.6611" y1="-32.0073" x2="188.6607" y2="-96.5066" gradientTransform="matrix(1 0 0 -1 -49.71 60.9424)">
				<stop  offset="0" style="stop-color:#FF0000"/>
				<stop  offset="0.1674" style="stop-color:#F60000"/>
				<stop  offset="0.4388" style="stop-color:#DE0000"/>
				<stop  offset="0.7785" style="stop-color:#B70000"/>
				<stop  offset="1" style="stop-color:#9A0000"/>
			</linearGradient>
			<path fill="url(#SVGID_3_)" d="M114.299,158.055c-18.991,2.178-38.144-4.619-52.543-18.648
				C36.771,115.062,34.83,76.487,57.43,53.415c9.009-9.196,20.681-14.85,33.753-16.35c18.991-2.179,38.142,4.622,52.543,18.654
				c24.981,24.336,26.924,62.913,4.326,85.987C139.044,150.9,127.373,156.557,114.299,158.055z M92.226,44.727
				c-10.734,1.584-20.299,6.389-27.656,13.889c-19.615,20-18.039,53.325,3.512,74.282c12.615,12.268,30.187,18.112,47.002,15.631
				c10.736-1.584,20.299-6.389,27.657-13.891c19.612-20,18.038-53.321-3.511-74.281C126.616,48.086,109.043,42.246,92.226,44.727z"
				/>
			
				<linearGradient id="SVGID_4_" gradientUnits="userSpaceOnUse" x1="152.8223" y1="-30.0361" x2="191.9318" y2="-94.7172" gradientTransform="matrix(1 0 0 -1 -49.71 60.9424)">
				<stop  offset="0" style="stop-color:#FF0000"/>
				<stop  offset="0.1674" style="stop-color:#F60000"/>
				<stop  offset="0.4388" style="stop-color:#DE0000"/>
				<stop  offset="0.7785" style="stop-color:#B70000"/>
				<stop  offset="1" style="stop-color:#9A0000"/>
			</linearGradient>
			<path fill="url(#SVGID_4_)" d="M112.186,135.264c-12.979,0.95-25.909-4.119-35.47-13.908
				c-16.473-16.861-16.992-42.482-1.156-57.116c6.285-5.813,14.279-9.227,23.113-9.873c12.791-0.936,26.056,4.266,35.479,13.91
				c16.468,16.858,16.984,42.481,1.15,57.115C129.016,131.198,121.021,134.614,112.186,135.264z M98.114,64.254
				c-4.101,0.773-10.029,2.781-14.975,7.979c-10.893,11.449-9.389,31,3.287,42.691c7.783,7.172,18.439,10.324,28.508,8.426
				c4.104-0.771,10.027-2.785,14.978-7.983c10.894-11.447,9.388-30.996-3.288-42.684C118.843,65.504,108.188,62.352,98.114,64.254z"
				/>
			
				<linearGradient id="SVGID_5_" gradientUnits="userSpaceOnUse" x1="154.5742" y1="-28.9395" x2="193.6925" y2="-93.6351" gradientTransform="matrix(1 0 0 -1 -49.71 60.9424)">
				<stop  offset="0" style="stop-color:#FF0000"/>
				<stop  offset="0.1674" style="stop-color:#F60000"/>
				<stop  offset="0.4388" style="stop-color:#DE0000"/>
				<stop  offset="0.7785" style="stop-color:#B70000"/>
				<stop  offset="1" style="stop-color:#9A0000"/>
			</linearGradient>
			<path fill="url(#SVGID_5_)" d="M110.833,108.753c-4.847,0.715-10.071-1.127-13.98-4.928c-6.523-6.348-7.166-15.873-1.463-21.686
				c2.125-2.166,4.832-3.545,7.828-3.986c4.845-0.717,10.072,1.127,13.979,4.928c6.521,6.344,7.164,15.871,1.463,21.688
				C116.536,106.934,113.829,108.312,110.833,108.753z"/>
		</g>
	</g>
</g>
<g id="outline_x5F_white">
	<g>
		<g>
			<path fill="#FFFFFF" d="M98.29,36.79c16.069,0,32.59,6.33,45.474,18.883c24.93,24.288,26.822,62.675,4.233,85.739
				c-0.097,0.098-0.263,0.256-0.479,0.463c-0.979,0.977-1.992,1.904-3.031,2.795c-5.127,4.682-7.514,5.367-8.625,6.277
				c-10.094,8.277-22.627,12.388-35.456,12.388c-15.76,0-31.959-6.209-44.592-18.519c-22.922-22.328-25.983-56.812-8.022-79.672
				c0.914-1.164,1.592-2.138,5.575-6.637c1.337-1.747,2.777-3.436,4.356-5.045C68.638,42.317,83.268,36.79,98.29,36.79 M98.29,24.79
				c-18.883,0-36.335,7.201-49.141,20.275c-1.758,1.792-3.413,3.694-5.042,5.797c-3.496,3.957-4.573,5.347-5.442,6.469l-0.314,0.404
				C27.71,71.277,22.799,88.541,24.527,106.338c1.712,17.631,9.849,34.348,22.913,47.073c14.507,14.137,33.317,21.923,52.965,21.923
				c15.683,0,30.785-5.227,42.598-14.729c0.041-0.022,0.082-0.047,0.125-0.071c1.663-0.956,4.743-2.728,9.312-6.877
				c1.237-1.066,2.369-2.111,3.453-3.188l0.004-0.003c0.299-0.286,0.528-0.51,0.672-0.655
				c12.601-12.865,19.418-30.147,19.201-48.666c-0.233-19.957-8.848-39.664-23.631-54.066C137.387,32.705,118.264,24.79,98.29,24.79
				L98.29,24.79z"/>
		</g>
	</g>
</g>
<g id="outline_x5F_black">
	<g>
		<path d="M98.29,36.79c16.069,0,32.591,6.33,45.474,18.883c24.93,24.288,26.822,62.675,4.233,85.739
			c-0.097,0.098-0.263,0.256-0.479,0.463c-0.979,0.977-1.992,1.904-3.031,2.795c-5.127,4.682-7.514,5.367-8.625,6.277
			c-10.094,8.277-22.627,12.388-35.456,12.388c-15.76,0-31.959-6.209-44.592-18.519c-22.922-22.328-25.983-56.812-8.022-79.672
			c0.914-1.164,1.592-2.138,5.575-6.637c1.337-1.747,2.777-3.436,4.356-5.045C68.638,42.317,83.268,36.79,98.29,36.79 M98.29,30.79
			c-17.257,0-33.187,6.561-44.854,18.474c-1.639,1.669-3.179,3.446-4.702,5.423c-3.473,3.927-4.5,5.252-5.327,6.32L43.07,61.44
			c-9.684,12.326-14.149,28.066-12.571,44.32c1.575,16.221,9.078,31.617,21.127,43.354c13.381,13.038,30.704,20.221,48.778,20.221
			c14.465,0,28.37-4.854,39.167-13.672c0.121-0.074,0.365-0.215,0.566-0.331c1.574-0.905,4.205-2.417,8.324-6.169
			c1.168-1.005,2.23-1.983,3.243-2.991l0.044-0.043c0.236-0.227,0.42-0.402,0.531-0.518c11.477-11.717,17.687-27.483,17.488-44.396
			c-0.217-18.375-8.17-36.541-21.819-49.84C134.326,38.1,116.689,30.79,98.29,30.79L98.29,30.79z"/>
	</g>
</g>
</svg>
