<?xml version="1.0" encoding="utf-8"?>
<!-- Generator: Adobe Illustrator 15.0.0, SVG Export Plug-In . SVG Version: 6.00 Build 0)  -->
<!DOCTYPE svg PUBLIC "-//W3C//DTD SVG 1.1//EN" "http://www.w3.org/Graphics/SVG/1.1/DTD/svg11.dtd">
<svg version="1.1" xmlns="http://www.w3.org/2000/svg" xmlns:xlink="http://www.w3.org/1999/xlink" x="0px" y="0px" width="200px"
	 height="200px" viewBox="0 0 200 200" enable-background="new 0 0 200 200" xml:space="preserve">
<g id="icon">
	<g id="Layer_2">
	</g>
	<g id="Layer_1_1_">
		<g>
			
				<radialGradient id="SVGID_1_" cx="149.1582" cy="83.979" r="0.5695" gradientTransform="matrix(1 0 0 -1 -50 61)" gradientUnits="userSpaceOnUse">
				<stop  offset="0" style="stop-color:#6D93B3"/>
				<stop  offset="1" style="stop-color:#263047"/>
			</radialGradient>
			<polygon fill="url(#SVGID_1_)" points="20.735,56.094 51.209,174.236 52.291,171.368 21.817,53.224 			"/>
			
				<linearGradient id="SVGID_2_" gradientUnits="userSpaceOnUse" x1="71.8169" y1="-41.0337" x2="229.2656" y2="-41.0337" gradientTransform="matrix(1 0 0 -1 -50 61)">
				<stop  offset="0" style="stop-color:#3A4453"/>
				<stop  offset="1" style="stop-color:#000000"/>
			</linearGradient>
			<polygon fill="url(#SVGID_2_)" points="179.266,144.229 52.354,171.6 21.817,53.224 141.848,32.468 			"/>
			
				<radialGradient id="SVGID_3_" cx="16.5225" cy="68.0938" r="6.5517" gradientTransform="matrix(1 0 0 -1 -50 61)" gradientUnits="userSpaceOnUse">
				<stop  offset="0" style="stop-color:#6D93B3"/>
				<stop  offset="1" style="stop-color:#141C38"/>
			</radialGradient>
			<polygon fill="url(#SVGID_3_)" points="178.184,147.1 179.266,144.229 52.291,171.368 51.209,174.236 51.271,174.471 			"/>
			<g>
				<polygon opacity="0.35" fill="#231F20" enable-background="new    " points="171.572,144.364 55.736,170.159 26.471,60.667 
					134.579,41.159 				"/>
				
					<linearGradient id="SVGID_4_" gradientUnits="userSpaceOnUse" x1="129.6816" y1="-35.2422" x2="131.3943" y2="-35.8125" gradientTransform="matrix(1 0 0 -1 -50 61)">
					<stop  offset="0" style="stop-color:#C5C5C5"/>
					<stop  offset="1" style="stop-color:#8C8C8C"/>
				</linearGradient>
				<polygon fill="url(#SVGID_4_)" points="170.582,141.473 56.813,166.605 27.547,57.114 29.397,53.223 137.773,37.609 
					171.842,138.416 				"/>
				
					<radialGradient id="SVGID_5_" cx="114.4287" cy="-419.4502" r="102.4882" gradientTransform="matrix(0.9397 -0.1403 -0.2942 -0.9939 -137.094 -336.3302)" gradientUnits="userSpaceOnUse">
					<stop  offset="0" style="stop-color:#FFFFFF"/>
					<stop  offset="0.2923" style="stop-color:#FCFCFC"/>
					<stop  offset="0.5367" style="stop-color:#F1F1F1"/>
					<stop  offset="0.764" style="stop-color:#E0E0E0"/>
					<stop  offset="0.9797" style="stop-color:#C8C8C8"/>
					<stop  offset="1" style="stop-color:#C5C5C5"/>
				</radialGradient>
				<polygon fill="url(#SVGID_5_)" points="171.841,138.412 58.665,162.714 29.397,53.223 137.773,37.609 				"/>
				
					<linearGradient id="SVGID_6_" gradientUnits="userSpaceOnUse" x1="126.0859" y1="-24.3018" x2="108.1265" y2="-14.2442" gradientTransform="matrix(1 0 0 -1 -50 61)">
					<stop  offset="0" style="stop-color:#FFFFFF"/>
					<stop  offset="0.1897" style="stop-color:#F1F1F1"/>
					<stop  offset="0.5472" style="stop-color:#CDCDCD"/>
					<stop  offset="1" style="stop-color:#969696"/>
				</linearGradient>
				<polygon fill="url(#SVGID_6_)" points="171.572,122.88 140.186,145.111 58.665,162.714 29.397,53.223 139.624,33.717 
					161.54,98.847 				"/>
				
					<radialGradient id="SVGID_7_" cx="115.1953" cy="-417.0508" r="104.788" gradientTransform="matrix(0.9397 -0.1403 -0.2942 -0.9939 -137.094 -336.3302)" gradientUnits="userSpaceOnUse">
					<stop  offset="0" style="stop-color:#FFFFFF"/>
					<stop  offset="0.2923" style="stop-color:#FCFCFC"/>
					<stop  offset="0.5367" style="stop-color:#F1F1F1"/>
					<stop  offset="0.764" style="stop-color:#E0E0E0"/>
					<stop  offset="0.9797" style="stop-color:#C8C8C8"/>
					<stop  offset="1" style="stop-color:#C5C5C5"/>
				</radialGradient>
				<polygon fill="url(#SVGID_7_)" points="161.54,98.847 140.186,145.111 58.665,162.714 29.397,53.223 139.624,33.717 				"/>
				
					<radialGradient id="SVGID_8_" cx="115.4229" cy="-400.9229" r="57.3008" gradientTransform="matrix(0.9397 -0.1403 -0.2942 -0.9939 -137.094 -336.3302)" gradientUnits="userSpaceOnUse">
					<stop  offset="0" style="stop-color:#FF0000"/>
					<stop  offset="0.1774" style="stop-color:#F70000"/>
					<stop  offset="0.4502" style="stop-color:#E20000"/>
					<stop  offset="0.7825" style="stop-color:#BF0000"/>
					<stop  offset="1" style="stop-color:#A40000"/>
				</radialGradient>
				<polygon fill="url(#SVGID_8_)" points="146.835,55.095 35.207,75.057 29.397,53.223 139.624,33.717 				"/>
				
					<radialGradient id="SVGID_9_" cx="130.9736" cy="65.0034" r="4.2499" gradientTransform="matrix(1 0 0 -1 -50 61)" gradientUnits="userSpaceOnUse">
					<stop  offset="0" style="stop-color:#FF0000"/>
					<stop  offset="0.1774" style="stop-color:#F70000"/>
					<stop  offset="0.4502" style="stop-color:#E20000"/>
					<stop  offset="0.7825" style="stop-color:#BF0000"/>
					<stop  offset="1" style="stop-color:#A40000"/>
				</radialGradient>
				<polygon fill="url(#SVGID_9_)" points="33.307,78.661 35.207,75.057 29.397,53.223 27.593,57.228 				"/>
			</g>
			<g>
				<path d="M116.98,45.354c1.125,1.26,0.86,2.942-0.594,3.759c-1.46,0.814-3.553,0.452-4.671-0.81
					c-1.116-1.264-0.843-2.945,0.611-3.758C113.777,43.733,115.859,44.094,116.98,45.354z"/>
				
					<radialGradient id="SVGID_10_" cx="106.9424" cy="45.2983" r="4.8044" gradientTransform="matrix(1 0 0 -1 -50 61)" gradientUnits="userSpaceOnUse">
					<stop  offset="0" style="stop-color:#FFFFFF"/>
					<stop  offset="0.1612" style="stop-color:#F1F1F1"/>
					<stop  offset="0.4652" style="stop-color:#CDCDCD"/>
					<stop  offset="0.8767" style="stop-color:#929292"/>
					<stop  offset="1" style="stop-color:#7F7F7F"/>
				</radialGradient>
				<path fill="url(#SVGID_10_)" d="M104.514,38.922c0.008-0.425,0.03-0.604,0.043-0.691c0.455-3.267,1.697-5.533,3.336-5.618
					c2.371-0.121,4.68,4.38,5.148,10.056c0.186,2.195,0.062,4.537-0.287,6.232c0.542,0.687,2.053,0.528,2.464,0.537
					c0.507-1.989,0.466-4.638,0.312-7.181c-0.485-8.157-4.045-12.353-7.416-12.312c-2.629,0.031-4.668,3.511-5.239,8.358
					c-0.008,0.072-0.069,0.344-0.069,0.916L104.514,38.922z"/>
				
					<radialGradient id="SVGID_11_" cx="1612.6777" cy="533.7705" r="22.3858" gradientTransform="matrix(0.6526 0.102 0.1508 -0.9653 -1022.2296 384.1862)" gradientUnits="userSpaceOnUse">
					<stop  offset="0" style="stop-color:#FFFFFF"/>
					<stop  offset="0.1316" style="stop-color:#F1F1F1"/>
					<stop  offset="0.3798" style="stop-color:#CDCDCD"/>
					<stop  offset="0.7153" style="stop-color:#929292"/>
					<stop  offset="1" style="stop-color:#5B5B5B"/>
				</radialGradient>
				<path fill="url(#SVGID_11_)" d="M104.512,38.964c0.016-0.512,0.021-0.556,0.026-0.601c0.438-3.338,1.692-5.665,3.354-5.751
					c2.371-0.121,4.678,4.38,5.147,10.056c0.185,2.195,0.063,4.537-0.287,6.232l0.478,0.339c0.494-2.979,0.424-4.671,0.264-7.209
					c-0.227-3.578-2.208-9.971-5.559-10.152c-1.806-0.102-3.371,2.344-3.877,6.499c-0.006,0.041-0.011,0.084-0.024,0.594
					L104.512,38.964z"/>
				
					<radialGradient id="SVGID_12_" cx="1763.8701" cy="500.0762" r="20.0747" gradientTransform="matrix(0.643 0.0974 0.1029 -0.988 -1072.9395 359.8193)" gradientUnits="userSpaceOnUse">
					<stop  offset="0" style="stop-color:#FFFFFF"/>
					<stop  offset="0.1316" style="stop-color:#F1F1F1"/>
					<stop  offset="0.3798" style="stop-color:#CDCDCD"/>
					<stop  offset="0.7153" style="stop-color:#929292"/>
					<stop  offset="1" style="stop-color:#5B5B5B"/>
				</radialGradient>
				<path fill="url(#SVGID_12_)" d="M114.843,49.562c0,0,0.921-3.953-0.053-9.309c-0.876-4.803-2.418-7.054-3.761-8.378
					c-1.438-1.416-3.229-1.505-2.12-1.027c1.34,0.575,2.11,1.149,3.336,3.218c1.073,1.815,1.973,5.249,2.171,6.668
					c0.755,5.407-0.012,8.638-0.012,8.638S114.594,49.607,114.843,49.562z"/>
			</g>
			<g>
				<path d="M65.722,54.447c1.126,1.262,0.861,2.943-0.594,3.758c-1.459,0.816-3.552,0.454-4.67-0.809
					c-1.116-1.264-0.843-2.944,0.61-3.756C62.519,52.826,64.602,53.187,65.722,54.447z"/>
				
					<radialGradient id="SVGID_13_" cx="55.6792" cy="36.2046" r="4.8046" gradientTransform="matrix(1 0 0 -1 -50 61)" gradientUnits="userSpaceOnUse">
					<stop  offset="0" style="stop-color:#FFFFFF"/>
					<stop  offset="0.1612" style="stop-color:#F1F1F1"/>
					<stop  offset="0.4652" style="stop-color:#CDCDCD"/>
					<stop  offset="0.8767" style="stop-color:#929292"/>
					<stop  offset="1" style="stop-color:#7F7F7F"/>
				</radialGradient>
				<path fill="url(#SVGID_13_)" d="M53.255,48.017c0.008-0.427,0.03-0.604,0.043-0.692c0.455-3.268,1.697-5.534,3.336-5.619
					c2.371-0.119,4.678,4.381,5.148,10.057c0.185,2.194,0.063,4.537-0.288,6.233c0.543,0.685,2.053,0.527,2.465,0.536
					c0.506-1.988,0.464-4.637,0.312-7.18c-0.486-8.158-4.045-12.354-7.417-12.314c-2.628,0.03-4.666,3.511-5.238,8.358
					c-0.01,0.073-0.072,0.346-0.072,0.917L53.255,48.017z"/>
				
					<radialGradient id="SVGID_14_" cx="1538.1299" cy="516.4727" r="22.3888" gradientTransform="matrix(0.6526 0.102 0.1508 -0.9653 -1022.2296 384.1862)" gradientUnits="userSpaceOnUse">
					<stop  offset="0" style="stop-color:#FFFFFF"/>
					<stop  offset="0.1316" style="stop-color:#F1F1F1"/>
					<stop  offset="0.3798" style="stop-color:#CDCDCD"/>
					<stop  offset="0.7153" style="stop-color:#929292"/>
					<stop  offset="1" style="stop-color:#5B5B5B"/>
				</radialGradient>
				<path fill="url(#SVGID_14_)" d="M53.253,48.058c0.015-0.512,0.021-0.555,0.025-0.6c0.44-3.338,1.693-5.667,3.355-5.753
					c2.371-0.119,4.678,4.381,5.148,10.057c0.185,2.194,0.063,4.537-0.288,6.233l0.478,0.339c0.495-2.979,0.425-4.673,0.264-7.212
					c-0.226-3.576-2.209-9.97-5.559-10.15c-1.805-0.101-3.371,2.343-3.877,6.499c-0.005,0.041-0.01,0.083-0.025,0.593L53.253,48.058
					z"/>
				
					<radialGradient id="SVGID_15_" cx="1686.8398" cy="483.2803" r="20.073" gradientTransform="matrix(0.643 0.0974 0.1029 -0.988 -1072.9395 359.8193)" gradientUnits="userSpaceOnUse">
					<stop  offset="0" style="stop-color:#FFFFFF"/>
					<stop  offset="0.1316" style="stop-color:#F1F1F1"/>
					<stop  offset="0.3798" style="stop-color:#CDCDCD"/>
					<stop  offset="0.7153" style="stop-color:#929292"/>
					<stop  offset="1" style="stop-color:#5B5B5B"/>
				</radialGradient>
				<path fill="url(#SVGID_15_)" d="M63.583,58.654c0,0,0.922-3.953-0.053-9.308c-0.876-4.804-2.418-7.054-3.759-8.378
					c-1.438-1.416-3.231-1.504-2.122-1.027c1.34,0.574,2.111,1.15,3.336,3.218c1.075,1.816,1.973,5.247,2.172,6.668
					c0.754,5.406-0.012,8.639-0.012,8.639S63.335,58.7,63.583,58.654z"/>
			</g>
			<g opacity="0.5">
				<polyline fill="none" stroke="#232B42" stroke-miterlimit="10" points="80.232,74.488 135.193,64.248 151.07,118.146 				"/>
				<polyline fill="none" stroke="#232B42" stroke-miterlimit="10" points="112.922,139.621 71.034,148.406 55.908,93.468 				"/>
				<line fill="none" stroke="#232B42" stroke-miterlimit="10" x1="67.255" y1="134.68" x2="151.268" y2="117.811"/>
				<line fill="none" stroke="#232B42" stroke-miterlimit="10" x1="63.471" y1="120.938" x2="147.521" y2="104.275"/>
				<line fill="none" stroke="#232B42" stroke-miterlimit="10" x1="59.688" y1="107.189" x2="143.032" y2="90.857"/>
				<line fill="none" stroke="#232B42" stroke-miterlimit="10" x1="55.908" y1="93.47" x2="139.227" y2="77.934"/>
				<line fill="none" stroke="#232B42" stroke-miterlimit="10" x1="121.198" y1="66.854" x2="136.775" y2="120.596"/>
				<line fill="none" stroke="#232B42" stroke-miterlimit="10" x1="108.055" y1="69.305" x2="123.273" y2="123.523"/>
				<line fill="none" stroke="#232B42" stroke-miterlimit="10" x1="93.923" y1="71.936" x2="112.922" y2="139.621"/>
				<line fill="none" stroke="#232B42" stroke-miterlimit="10" x1="80.232" y1="74.488" x2="98.95" y2="142.551"/>
				<line fill="none" stroke="#232B42" stroke-miterlimit="10" x1="69.92" y1="90.857" x2="85.002" y2="145.477"/>
			</g>
		</g>
	</g>
</g>
<g id="outline_x5F_white">
	<g>
		<g>
			<path fill="#FFFFFF" d="M108.161,29.944c2.562,0,5.219,2.451,6.552,7.216l27.135-4.692l37.418,111.761l-1.082,2.871
				L51.271,174.471l-0.062-0.232L20.735,56.094l1.083-2.87l29.733-5.142c0.014-0.407,0.058-0.624,0.065-0.687
				c0.572-4.848,2.61-8.328,5.238-8.358c0.016,0,0.032,0,0.048,0c2.524,0,5.143,2.372,6.493,6.997l39.408-6.814
				c0-0.572,0.062-0.844,0.07-0.916c0.572-4.848,2.611-8.327,5.24-8.358C108.13,29.944,108.146,29.944,108.161,29.944
				 M104.514,38.922L104.514,38.922L104.514,38.922L104.514,38.922l7.543-1.303c-0.978-3.003-2.504-5.009-4.07-5.009
				c-0.03,0-0.062,0.001-0.094,0.002c-0.205,0.012-0.404,0.057-0.599,0.133c-0.067,0.027-0.128,0.079-0.194,0.114
				c-0.121,0.065-0.246,0.123-0.361,0.213c-0.073,0.058-0.141,0.141-0.211,0.21c-0.103,0.094-0.204,0.181-0.299,0.296
				c-0.071,0.089-0.136,0.198-0.203,0.296c-0.086,0.122-0.176,0.236-0.254,0.376c-0.067,0.116-0.125,0.254-0.188,0.38
				c-0.071,0.146-0.147,0.282-0.214,0.44c-0.062,0.146-0.112,0.312-0.168,0.467c-0.059,0.163-0.12,0.316-0.172,0.489
				c-0.055,0.177-0.098,0.37-0.146,0.559c-0.044,0.173-0.092,0.338-0.13,0.518c-0.045,0.211-0.078,0.436-0.115,0.655
				c-0.031,0.187-0.068,0.366-0.094,0.559C104.534,38.424,104.52,38.604,104.514,38.922 M103.064,39.174l1.193-0.206h-0.004
				L103.064,39.174 M53.263,47.785l7.46-1.29c-0.979-2.881-2.468-4.792-3.996-4.792c-0.031,0-0.062,0.001-0.093,0.002
				c-0.206,0.012-0.406,0.057-0.599,0.133c-0.067,0.028-0.129,0.081-0.195,0.114c-0.122,0.066-0.246,0.124-0.362,0.215
				c-0.073,0.058-0.141,0.141-0.211,0.208c-0.101,0.096-0.203,0.182-0.298,0.297c-0.071,0.088-0.135,0.198-0.203,0.296
				c-0.085,0.122-0.175,0.236-0.255,0.375c-0.066,0.117-0.125,0.255-0.188,0.38c-0.071,0.146-0.146,0.283-0.214,0.441
				c-0.061,0.146-0.112,0.311-0.167,0.467c-0.059,0.162-0.121,0.317-0.173,0.49c-0.053,0.176-0.097,0.37-0.144,0.558
				c-0.044,0.172-0.092,0.337-0.131,0.518c-0.044,0.21-0.078,0.437-0.115,0.656c-0.031,0.186-0.068,0.364-0.094,0.558
				C53.278,47.484,53.271,47.618,53.263,47.785 M108.162,17.944L108.162,17.944h-0.077l-0.123,0.001
				c-5.257,0.062-11.546,3.057-14.899,10.78L69.57,32.787c-3.799-4.111-8.561-5.75-12.667-5.75h-0.075l-0.123,0.001
				c-5.201,0.06-11.413,2.99-14.792,10.532l-22.141,3.829l-6.761,1.169l-2.422,6.42l-1.083,2.87l-1.34,3.554l0.949,3.678
				l30.474,118.145l0.008,0.029l0.008,0.03l0.062,0.233l2.922,11.091L53.8,186.2l126.913-27.371l6.393-1.379l2.307-6.119
				l1.083-2.871l1.505-3.994l-1.355-4.048l-37.418-111.76l-3.271-9.771l-10.153,1.755l-18.87,3.264
				C117.521,20.125,113.047,17.944,108.162,17.944L108.162,17.944z"/>
		</g>
	</g>
</g>
<g id="outline_x5F_black">
	<g>
		<path d="M108.161,29.944c2.562,0,5.219,2.451,6.552,7.216l27.135-4.692l37.418,111.761l-1.082,2.871L51.271,174.471l-0.062-0.232
			L20.735,56.094l1.083-2.87l29.733-5.142c0.014-0.407,0.058-0.624,0.065-0.687c0.572-4.848,2.61-8.328,5.238-8.358
			c0.016,0,0.032,0,0.048,0c2.524,0,5.143,2.372,6.493,6.997l39.408-6.814c0-0.572,0.062-0.844,0.07-0.916
			c0.572-4.848,2.611-8.327,5.24-8.358C108.13,29.944,108.146,29.944,108.161,29.944 M104.514,38.922L104.514,38.922L104.514,38.922
			L104.514,38.922l7.543-1.303c-0.978-3.003-2.504-5.009-4.07-5.009c-0.03,0-0.062,0.001-0.094,0.002
			c-0.205,0.012-0.404,0.057-0.599,0.133c-0.067,0.027-0.128,0.079-0.194,0.114c-0.121,0.065-0.246,0.123-0.361,0.213
			c-0.073,0.058-0.141,0.141-0.211,0.21c-0.103,0.094-0.204,0.181-0.299,0.296c-0.071,0.089-0.136,0.198-0.203,0.296
			c-0.086,0.122-0.176,0.236-0.254,0.376c-0.067,0.116-0.125,0.254-0.188,0.38c-0.071,0.146-0.147,0.282-0.214,0.44
			c-0.062,0.146-0.112,0.312-0.168,0.467c-0.059,0.163-0.12,0.316-0.172,0.489c-0.055,0.177-0.098,0.37-0.146,0.559
			c-0.044,0.173-0.092,0.338-0.13,0.518c-0.045,0.211-0.078,0.436-0.115,0.655c-0.031,0.187-0.068,0.366-0.094,0.559
			C104.534,38.424,104.52,38.604,104.514,38.922 M103.064,39.174l1.193-0.206h-0.004L103.064,39.174 M53.263,47.785l7.46-1.29
			c-0.979-2.881-2.468-4.792-3.996-4.792c-0.031,0-0.062,0.001-0.093,0.002c-0.206,0.012-0.406,0.057-0.599,0.133
			c-0.067,0.028-0.129,0.081-0.195,0.114c-0.122,0.066-0.246,0.124-0.362,0.215c-0.073,0.058-0.141,0.141-0.211,0.208
			c-0.101,0.096-0.203,0.182-0.298,0.297c-0.071,0.088-0.135,0.198-0.203,0.296c-0.085,0.122-0.175,0.236-0.255,0.375
			c-0.066,0.117-0.125,0.255-0.188,0.38c-0.071,0.146-0.146,0.283-0.214,0.441c-0.061,0.146-0.112,0.311-0.167,0.467
			c-0.059,0.162-0.121,0.317-0.173,0.49c-0.053,0.176-0.097,0.37-0.144,0.558c-0.044,0.172-0.092,0.337-0.131,0.518
			c-0.044,0.21-0.078,0.437-0.115,0.656c-0.031,0.186-0.068,0.364-0.094,0.558C53.278,47.484,53.271,47.618,53.263,47.785
			 M108.161,23.944c-0.022,0-0.093,0-0.115,0.001c-4.903,0.058-8.788,3.911-10.453,10.086l-30.61,5.293
			c-2.783-4.548-6.772-6.287-10.08-6.287c-0.022,0-0.093,0-0.115,0.001c-4.841,0.056-8.687,3.81-10.387,9.846l-25.606,4.428
			c-2.095,0.362-3.841,1.806-4.591,3.794l-1.083,2.87c-0.437,1.157-0.505,2.419-0.196,3.616l30.474,118.145l0.07,0.264
			c0.707,2.682,3.128,4.473,5.797,4.473c0.419,0,0.844-0.045,1.27-0.137l126.912-27.371c1.993-0.43,3.631-1.842,4.35-3.749
			l1.082-2.87c0.487-1.293,0.515-2.713,0.075-4.021l-37.418-111.76c-0.83-2.479-3.146-4.096-5.686-4.096
			c-0.34,0-0.684,0.029-1.026,0.088l-22.459,3.884C115.582,25.739,111.532,23.944,108.161,23.944L108.161,23.944z"/>
	</g>
</g>
</svg>
