<?xml version="1.0" encoding="utf-8"?>
<!-- Generator: Adobe Illustrator 15.0.0, SVG Export Plug-In . SVG Version: 6.00 Build 0)  -->
<!DOCTYPE svg PUBLIC "-//W3C//DTD SVG 1.1//EN" "http://www.w3.org/Graphics/SVG/1.1/DTD/svg11.dtd">
<svg version="1.1" xmlns="http://www.w3.org/2000/svg" xmlns:xlink="http://www.w3.org/1999/xlink" x="0px" y="0px" width="200px"
	 height="200px" viewBox="0 0 200 200" enable-background="new 0 0 200 200" xml:space="preserve">
<g id="icon">
	<g id="Layer_2">
	</g>
	<g id="Layer_1_1_">
		<g>
			
				<linearGradient id="SVGID_1_" gradientUnits="userSpaceOnUse" x1="130.6055" y1="35.6016" x2="158.8683" y2="-84.5169" gradientTransform="matrix(1 0 0 -1 -50 61)">
				<stop  offset="0.1758" style="stop-color:#08DEFF"/>
				<stop  offset="0.6485" style="stop-color:#44B1E8"/>
			</linearGradient>
			<path fill="url(#SVGID_1_)" d="M164.656,113.109c-2.03-10.078-11.406-50.265-13.997-60.584
				c-1.726-6.869-3.769-12.616-6.358-15.219c-6.023-6.057-19.42-0.823-27.896,1.014c-11.559,2.504-21.004,4.552-31.118,6.743
				c-3.775-5.445-4.626-9.29-9.116-10.604c-2.499-0.73-5.754-0.604-9.239-0.052c-7.266,1.152-23.087,4.442-30.099,6.584
				c-5.295,1.617-9.502,3.958-10.615,7.77c-1.758,6.025,2.539,18.938,4.147,26.146c4.185,18.757,8.1,39.3,12.314,58.19
				c3.64,16.312,4.376,32.215,16.348,32.936c37.736-8.178,63.455-18.455,101.19-26.631
				C167.463,136.221,167.17,125.584,164.656,113.109z"/>
			
				<linearGradient id="SVGID_2_" gradientUnits="userSpaceOnUse" x1="141.6143" y1="-10.6118" x2="145.9689" y2="-29.3815" gradientTransform="matrix(1 0 0 -1 -50 61)">
				<stop  offset="0" style="stop-color:#03FFFF"/>
				<stop  offset="1" style="stop-color:#08DEFF"/>
			</linearGradient>
			<path fill="url(#SVGID_2_)" d="M164.656,113.109c-2.03-10.078-11.406-50.265-13.997-60.584
				c-1.726-6.869-3.769-12.616-6.358-15.219c-6.023-6.057-19.42-0.823-27.896,1.014c-11.559,2.504-21.004,4.552-31.118,6.743
				c-3.775-5.445-4.626-9.29-9.116-10.604c-2.499-0.73-5.754-0.604-9.239-0.052c-7.266,1.152-23.087,4.442-30.099,6.584
				c-5.295,1.617-9.502,3.958-10.615,7.77c-1.758,6.025,2.539,18.938,4.147,26.146c4.185,18.757,8.1,39.3,12.314,58.19
				c3.64,16.312,4.376,32.215,16.348,32.936c0.896,0,1.183,0.054,1.604-0.037c0.209-0.045,0.082-0.328,0.291-0.373
				c36.711-7.945,62.195-18.182,99.296-26.221C167.463,136.221,167.17,125.584,164.656,113.109z"/>
			
				<linearGradient id="SVGID_3_" gradientUnits="userSpaceOnUse" x1="132.6553" y1="35.4966" x2="156.5053" y2="-65.867" gradientTransform="matrix(1 0 0 -1 -50 61)">
				<stop  offset="0.1758" style="stop-color:#08DEFF"/>
				<stop  offset="0.6485" style="stop-color:#44B1E8"/>
				<stop  offset="1" style="stop-color:#1788CA"/>
			</linearGradient>
			<path fill="url(#SVGID_3_)" d="M166.672,113.109c-2.029-10.078-11.406-50.265-13.996-60.584
				c-1.725-6.869-3.77-12.616-6.357-15.219c-6.024-6.057-19.42-0.823-27.897,1.014c-11.56,2.504-21.004,4.552-31.118,6.743
				c-3.776-5.445-4.626-9.29-9.116-10.604c-2.499-0.73-5.754-0.604-9.239-0.052c-7.267,1.152-23.088,4.442-30.1,6.584
				c-5.295,1.617-9.501,3.958-10.614,7.77c-1.758,6.025,2.539,18.938,4.147,26.146c4.185,18.757,8.1,39.3,12.314,58.19
				c3.64,16.312,3.756,29.336,15.729,30.057c37.736-8.178,64.074-15.576,101.811-23.752
				C169.479,136.221,169.186,125.584,166.672,113.109z"/>
			
				<linearGradient id="SVGID_4_" gradientUnits="userSpaceOnUse" x1="-537.6084" y1="77.4536" x2="-514.4833" y2="-34.0213" gradientTransform="matrix(0.9639 -0.0041 -0.3211 -1.0361 626.3235 136.862)">
				<stop  offset="0.1758" style="stop-color:#08DEFF"/>
				<stop  offset="1" style="stop-color:#44B1E8"/>
			</linearGradient>
			<path fill="url(#SVGID_4_)" d="M171.471,126.238c0.961,5.893-2.684,11.74-8.139,13.062L59.531,166.049c0,0,2.74-1.021,3.03-2.418
				c0.432-2.076,0.114-2.842-0.459-6.363L50.688,84.24c-0.96-5.893,2.684-11.741,8.141-13.062l89.612-21.24
				c5.455-1.321,10.656,2.382,11.615,8.274L171.471,126.238z"/>
			
				<linearGradient id="SVGID_5_" gradientUnits="userSpaceOnUse" x1="-534.0996" y1="78.9199" x2="-529.5278" y2="41.1256" gradientTransform="matrix(0.9639 -0.0041 -0.3211 -1.0361 626.3235 136.862)">
				<stop  offset="0" style="stop-color:#03FFFF"/>
				<stop  offset="1" style="stop-color:#08DEFF"/>
			</linearGradient>
			<path fill="url(#SVGID_5_)" d="M171.471,126.238c0.961,5.893-2.684,11.74-8.139,13.062L59.531,166.049
				c0,0-2.508-1.043-2.344-3.469c4.65,0.574,3.657-7.75,3.083-11.271l-10.7-66.606c-1.127-7.137,2.303-11.741,7.76-13.062
				l91.111-21.701c5.455-1.321,10.656,2.382,11.615,8.274L171.471,126.238z"/>
			
				<linearGradient id="SVGID_6_" gradientUnits="userSpaceOnUse" x1="-535.9556" y1="75.9912" x2="-513.049" y2="-34.4303" gradientTransform="matrix(0.9639 -0.0041 -0.3211 -1.0361 626.3235 136.862)">
				<stop  offset="0.1758" style="stop-color:#08DEFF"/>
				<stop  offset="0.6485" style="stop-color:#44B1E8"/>
				<stop  offset="0.8485" style="stop-color:#1788CA"/>
			</linearGradient>
			<path fill="url(#SVGID_6_)" d="M174.045,128.076c0.962,5.893-2.684,11.74-8.138,13.061L60.629,165.996
				c0,0,2.625-0.408,3.418-4.449c0.43-2.076,0.328-4.018-0.246-7.539L52.887,85.657c-0.961-5.893,0.617-11.36,8.14-13.061
				l89.614-21.241c5.455-1.321,10.654,2.383,11.614,8.274L174.045,128.076z"/>
		</g>
	</g>
</g>
<g id="outline_x5F_white">
	<g>
		<g>
			<path fill="#FFFFFF" d="M72.05,33.953c0.353,0,0.699,0.008,1.038,0.025c0.339-0.014,0.674-0.021,1.002-0.021
				c1.502,0,2.889,0.149,4.096,0.502c4.383,1.282,5.306,4.981,8.859,10.222c9.459-2.049,18.475-4.004,29.359-6.361
				c5.543-1.202,13.188-3.854,19.503-3.854c0.337,0,0.67,0.008,0.999,0.023c0.342-0.014,0.679-0.021,1.014-0.021
				c3.342,0,6.312,0.741,8.398,2.838c2.233,2.246,4.062,6.838,5.63,12.47c1.747,0.253,3.366,1.001,4.698,2.156
				c2.846,1.318,5.021,4.095,5.607,7.697l11.79,68.446c0.962,5.893-2.683,11.739-8.138,13.061L60.718,165.977
				c0.145-0.037,0.45-0.134,0.822-0.35l-0.758,0.159c-0.023,0.089-0.039,0.185-0.154,0.209c-0.192,0.041-0.357,0.053-0.565,0.053
				c-0.137,0-0.293-0.005-0.487-0.01l-0.045,0.01c0,0-0.011-0.004-0.024-0.011c-0.14-0.003-0.295-0.005-0.481-0.005
				c-11.972-0.722-12.708-16.623-16.348-32.937c-4.215-18.891-8.129-39.434-12.314-58.189c-1.608-7.208-5.905-20.12-4.147-26.146
				c1.113-3.812,5.319-6.152,10.615-7.77c7.012-2.142,22.833-5.432,30.099-6.584C68.721,34.124,70.451,33.953,72.05,33.953
				 M60.719,165.977c-0.024,0.006-0.045,0.012-0.06,0.015L60.719,165.977 M72.052,21.953c-0.001,0-0.001,0-0.002,0
				c-2.148,0-4.438,0.197-6.999,0.603c-7.404,1.174-23.833,4.549-31.726,6.959c-10.192,3.113-16.46,8.457-18.628,15.883
				c-2.129,7.297-0.136,16.194,2.691,27.067c0.491,1.888,0.954,3.67,1.263,5.055c2.068,9.268,4.115,19.2,6.095,28.806
				c2.01,9.748,4.087,19.828,6.22,29.385c0.568,2.547,1.078,5.166,1.57,7.699c1.411,7.256,2.743,14.107,5.481,19.959
				c5.341,11.414,13.981,14.263,20.289,14.643c0.2,0.012,0.401,0.02,0.603,0.021c0.208,0.011,0.416,0.017,0.624,0.017
				c0.082,0,0.164-0.001,0.246-0.003c0.101,0.002,0.196,0.003,0.286,0.003c1.013,0,1.969-0.094,2.917-0.284
				c0.059-0.013,0.118-0.023,0.177-0.037c0.1-0.021,0.227-0.049,0.378-0.086l105.13-24.826c0.021-0.004,0.044-0.01,0.065-0.016
				c11.603-2.809,19.14-14.518,17.156-26.656c-0.005-0.035-0.011-0.069-0.017-0.104l-11.783-68.406
				c-1.125-6.781-5.146-12.576-10.892-15.817c-0.486-0.358-0.985-0.695-1.498-1.01c-1.948-5.425-4.146-9.221-6.872-11.962
				c-4.209-4.23-9.897-6.375-16.906-6.375c-0.328,0-0.657,0.004-0.989,0.014c-0.338-0.01-0.681-0.016-1.022-0.016
				c-6.089,0-12.394,1.653-17.457,2.982c-1.688,0.443-3.284,0.861-4.589,1.144l-16.3,3.532l-4.833,1.047
				c-2.289-3.25-5.562-6.587-11.174-8.229c-2.262-0.663-4.705-0.985-7.465-0.985c-0.314,0-0.634,0.004-0.955,0.013
				C72.778,21.959,72.416,21.953,72.052,21.953L72.052,21.953z"/>
		</g>
	</g>
</g>
<g id="outline_x5F_black">
	<g>
		<path d="M72.05,33.953c0.353,0,0.699,0.009,1.038,0.026c0.339-0.014,0.673-0.021,1.002-0.021c1.502,0,2.889,0.149,4.096,0.502
			c4.383,1.282,5.306,4.981,8.859,10.222c9.459-2.049,18.475-4.004,29.359-6.361c5.543-1.202,13.188-3.854,19.503-3.854
			c0.337,0,0.67,0.008,0.999,0.023c0.342-0.014,0.679-0.021,1.014-0.021c3.342,0,6.312,0.741,8.398,2.838
			c2.233,2.246,4.062,6.838,5.63,12.47c1.747,0.253,3.366,1.001,4.698,2.156c2.846,1.318,5.021,4.095,5.607,7.697l11.79,68.446
			c0.962,5.893-2.683,11.74-8.138,13.061L60.72,165.977c0.145-0.037,0.449-0.133,0.821-0.349l-0.758,0.159
			c-0.023,0.089-0.039,0.184-0.154,0.209c-0.192,0.041-0.357,0.053-0.564,0.053c-0.138,0-0.293-0.005-0.488-0.01l-0.045,0.01
			c0,0-0.011-0.004-0.024-0.011c-0.14-0.003-0.295-0.005-0.481-0.005c-11.972-0.721-12.708-16.623-16.348-32.936
			c-4.215-18.892-8.129-39.435-12.314-58.19c-1.608-7.208-5.905-20.12-4.147-26.146c1.113-3.812,5.319-6.152,10.615-7.77
			c7.012-2.142,22.833-5.432,30.099-6.584C68.721,34.124,70.451,33.953,72.05,33.953 M60.72,165.977
			c-0.025,0.006-0.046,0.012-0.061,0.015L60.72,165.977 M72.05,27.953c-1.831,0-3.812,0.173-6.06,0.53
			c-7.322,1.161-23.528,4.516-30.912,6.771c-3.033,0.926-12.262,3.745-14.622,11.826c-1.699,5.825,0.148,13.911,2.739,23.876
			c0.504,1.939,0.98,3.771,1.312,5.258c2.078,9.314,4.13,19.271,6.115,28.897c2.005,9.727,4.078,19.783,6.2,29.293
			c0.586,2.628,1.104,5.287,1.604,7.861c1.337,6.881,2.601,13.381,5.025,18.561c3.285,7.02,8.403,10.785,15.215,11.195
			c0.12,0.008,0.24,0.012,0.36,0.012c0.025,0,0.051,0,0.075,0c0.144,0.011,0.287,0.016,0.431,0.016c0.072,0,0.145-0.001,0.217-0.004
			c0.114,0.002,0.219,0.004,0.316,0.004c0.396,0,1.002-0.02,1.743-0.17c0.034-0.006,0.067-0.013,0.102-0.021
			c0.058-0.012,0.132-0.027,0.222-0.051l105.155-24.83c8.604-2.084,14.158-10.807,12.681-19.867
			c-0.003-0.019-0.006-0.034-0.009-0.053l-11.786-68.422c-0.843-5.115-3.897-9.454-8.246-11.77
			c-0.974-0.755-2.028-1.386-3.144-1.881c-1.833-5.741-3.792-9.479-6.21-11.909c-3.041-3.057-7.298-4.606-12.652-4.606
			c-0.331,0-0.663,0.005-0.999,0.017c-0.335-0.012-0.673-0.019-1.014-0.019c-5.314,0-10.957,1.48-15.936,2.786
			c-1.754,0.46-3.408,0.894-4.84,1.204l-16.312,3.534l-8.924,1.934c-0.012-0.02-0.023-0.04-0.035-0.059
			c-2.099-3.54-4.478-7.551-9.992-9.164c-1.708-0.5-3.6-0.744-5.78-0.744c-0.321,0-0.646,0.005-0.976,0.016
			C72.767,27.96,72.41,27.953,72.05,27.953L72.05,27.953z"/>
	</g>
</g>
</svg>
