<?xml version="1.0" encoding="utf-8"?>
<!-- Generator: Adobe Illustrator 15.0.0, SVG Export Plug-In . SVG Version: 6.00 Build 0)  -->
<!DOCTYPE svg PUBLIC "-//W3C//DTD SVG 1.1//EN" "http://www.w3.org/Graphics/SVG/1.1/DTD/svg11.dtd">
<svg version="1.1" xmlns="http://www.w3.org/2000/svg" xmlns:xlink="http://www.w3.org/1999/xlink" x="0px" y="0px" width="200px"
	 height="200px" viewBox="0 0 200 200" enable-background="new 0 0 200 200" xml:space="preserve">
<g id="icon">
	<g id="Layer_2">
	</g>
	<g id="Layer_1_1_">
		<g>
			<g>
				
					<radialGradient id="SVGID_1_" cx="-1308.1162" cy="-1307.8882" r="7.5125" fx="-1308.0691" fy="-1308.6841" gradientTransform="matrix(-0.8922 -0.4259 -0.3429 0.8554 -1515.4132 706.1408)" gradientUnits="userSpaceOnUse">
					<stop  offset="0" style="stop-color:#FFFF00"/>
					<stop  offset="0.3313" style="stop-color:#FFD400"/>
					<stop  offset="0.4016" style="stop-color:#FCD001"/>
					<stop  offset="0.4777" style="stop-color:#F2C303"/>
					<stop  offset="0.5565" style="stop-color:#E2AD06"/>
					<stop  offset="0.6371" style="stop-color:#CC8F0B"/>
					<stop  offset="0.7184" style="stop-color:#B06811"/>
					<stop  offset="0.7485" style="stop-color:#A45814"/>
					<stop  offset="0.9002" style="stop-color:#B57010"/>
					<stop  offset="1" style="stop-color:#BD7B0E"/>
				</radialGradient>
				<path fill="url(#SVGID_1_)" d="M94.725,142.979c-1.097,2.73,0.326,6.045,3.173,7.404c2.849,1.359,6.042,0.248,7.138-2.48
					c1.094-2.729-0.327-6.045-3.175-7.402C99.014,139.141,95.817,140.251,94.725,142.979z"/>
				
					<linearGradient id="SVGID_2_" gradientUnits="userSpaceOnUse" x1="-1616.9448" y1="-1723.7915" x2="-1621.344" y2="-1719.5442" gradientTransform="matrix(-0.6542 -0.5108 -0.1975 0.8272 -1317.8599 748.304)">
					<stop  offset="0" style="stop-color:#FFCA00"/>
					<stop  offset="0.2793" style="stop-color:#EBAE0B"/>
					<stop  offset="0.8792" style="stop-color:#B96725"/>
					<stop  offset="1" style="stop-color:#AE582B"/>
				</linearGradient>
				<path fill="url(#SVGID_2_)" d="M65.865,152.264c-0.854,0.235-1.14,1.537-0.646,2.904l0,0c0.496,1.366,1.59,2.284,2.442,2.048
					l28.915-8.176c0.852-0.235,1.143-1.539,0.646-2.903l0,0c-0.497-1.369-1.59-2.287-2.441-2.052L65.865,152.264z"/>
				<g>
					
						<linearGradient id="SVGID_3_" gradientUnits="userSpaceOnUse" x1="-1373.4546" y1="-1457.7363" x2="-1338.1967" y2="-1464.0647" gradientTransform="matrix(-0.928 -0.3726 -0.3726 0.928 -1711.4155 1020.7267)">
						<stop  offset="0" style="stop-color:#D16E00"/>
						<stop  offset="0.1896" style="stop-color:#B56205"/>
						<stop  offset="0.5959" style="stop-color:#6E4313"/>
						<stop  offset="1" style="stop-color:#222222"/>
					</linearGradient>
					<path fill="url(#SVGID_3_)" d="M89.172,152.417l5.457,29.166c0,0-0.24,3.672-3.067,4.092c-2.861,0.427-4.722-1.926-4.722-1.926
						l-8.468-27.158L89.172,152.417z"/>
					
						<linearGradient id="SVGID_4_" gradientUnits="userSpaceOnUse" x1="-1368.7666" y1="-1465.8188" x2="-1338.5986" y2="-1456.7992" gradientTransform="matrix(-0.928 -0.3726 -0.3726 0.928 -1711.4155 1020.7267)">
						<stop  offset="0" style="stop-color:#906E81"/>
						<stop  offset="0.2884" style="stop-color:#745B69"/>
						<stop  offset="0.9081" style="stop-color:#2D2A2C"/>
						<stop  offset="1" style="stop-color:#222222"/>
					</linearGradient>
					<path fill="url(#SVGID_4_)" d="M89.172,152.417l5.457,29.166c0,0-0.24,3.672-3.067,4.092c-2.861,0.427-4.722-1.926-4.722-1.926
						l-8.468-27.158L89.172,152.417z"/>
					<g>
						
							<linearGradient id="SVGID_5_" gradientUnits="userSpaceOnUse" x1="-1358.0283" y1="-1464.7456" x2="-1347.2736" y2="-1457.7695" gradientTransform="matrix(-0.928 -0.3726 -0.3726 0.928 -1711.4155 1020.7267)">
							<stop  offset="0" style="stop-color:#9F8292"/>
							<stop  offset="0.257" style="stop-color:#836D79"/>
							<stop  offset="0.8088" style="stop-color:#3C3639"/>
							<stop  offset="1" style="stop-color:#222222"/>
						</linearGradient>
						<path fill="url(#SVGID_5_)" d="M87.468,153.068l1.704-0.651l5.457,29.166c0,0-0.07,1.024-0.551,2.056L87.468,153.068z"/>
					</g>
				</g>
				
					<linearGradient id="SVGID_6_" gradientUnits="userSpaceOnUse" x1="-1368.6392" y1="-1420.6338" x2="-1365.9607" y2="-1418.2903" gradientTransform="matrix(-0.9153 -0.4027 -0.4027 0.9153 -1733.499 924.5903)">
					<stop  offset="0" style="stop-color:#484848"/>
					<stop  offset="0.2454" style="stop-color:#A6A6A7"/>
					<stop  offset="1" style="stop-color:#000000"/>
				</linearGradient>
				<path fill="url(#SVGID_6_)" d="M85.769,180.109c0,0,2.946,3.026,6.408-0.293c2.191-2.104,1.121-4.961,1.121-4.961l-1.02-5.065
					c0,0,1.21,6.437-2.872,7.769c-4.082,1.332-5.019-1.882-5.019-1.882L85.769,180.109z"/>
				
					<linearGradient id="SVGID_7_" gradientUnits="userSpaceOnUse" x1="-1362.5103" y1="-1427.1064" x2="-1359.8048" y2="-1424.7394" gradientTransform="matrix(-0.9153 -0.4027 -0.4027 0.9153 -1733.499 924.5903)">
					<stop  offset="0" style="stop-color:#484848"/>
					<stop  offset="0.2454" style="stop-color:#A6A6A7"/>
					<stop  offset="1" style="stop-color:#000000"/>
				</linearGradient>
				<path fill="url(#SVGID_7_)" d="M83.317,171.544c0,0,3.217,3.217,6.887-0.187c2.323-2.153,1.127-5.157,1.127-5.157l-1.175-5.31
					c0,0,1.401,6.74-2.966,8.058c-4.368,1.313-5.43-2.058-5.43-2.058L83.317,171.544z"/>
				
					<linearGradient id="SVGID_8_" gradientUnits="userSpaceOnUse" x1="-1355.4897" y1="-1434.4736" x2="-1352.7523" y2="-1432.0786" gradientTransform="matrix(-0.9153 -0.4027 -0.4027 0.9153 -1733.499 924.5903)">
					<stop  offset="0" style="stop-color:#484848"/>
					<stop  offset="0.2454" style="stop-color:#A6A6A7"/>
					<stop  offset="1" style="stop-color:#000000"/>
				</linearGradient>
				<path fill="url(#SVGID_8_)" d="M80.397,161.794c0,0,4.043,3.692,8.235,0.283c2.656-2.162,1.048-5.485,1.048-5.485l-0.958-6.648
					c0,0,1.313,8.212-3.842,9.322c-5.15,1.11-6.619-2.602-6.619-2.602L80.397,161.794z"/>
				
					<linearGradient id="SVGID_9_" gradientUnits="userSpaceOnUse" x1="-1337.3164" y1="-1494.9526" x2="-1278.4283" y2="-1453.9669" gradientTransform="matrix(-0.9153 -0.4027 -0.4027 0.9153 -1733.499 924.5903)">
					<stop  offset="0" style="stop-color:#D2E6FF"/>
					<stop  offset="0.6457" style="stop-color:#EEF5F4"/>
					<stop  offset="1" style="stop-color:#FFFFFF"/>
				</linearGradient>
				<polygon fill="url(#SVGID_9_)" points="88.845,146.624 84.316,149.938 61.983,61.956 67.916,46.104 				"/>
				
					<linearGradient id="SVGID_10_" gradientUnits="userSpaceOnUse" x1="-1324.936" y1="-1488.4429" x2="-1326.0424" y2="-1464.6665" gradientTransform="matrix(-0.9153 -0.4027 -0.4027 0.9153 -1733.499 924.5903)">
					<stop  offset="0.092" style="stop-color:#A8CEC9;stop-opacity:0"/>
					<stop  offset="0.1885" style="stop-color:#C4DEDA;stop-opacity:0.3455"/>
					<stop  offset="0.2883" style="stop-color:#E5F0EF;stop-opacity:0.7027"/>
					<stop  offset="0.4663" style="stop-color:#FFFFFF"/>
					<stop  offset="1" style="stop-color:#A8CEC9;stop-opacity:0"/>
				</linearGradient>
				<polygon fill="url(#SVGID_10_)" points="88.845,146.624 84.316,149.938 61.983,61.956 67.916,46.104 				"/>
				
					<linearGradient id="SVGID_11_" gradientUnits="userSpaceOnUse" x1="-1320.2578" y1="-1482.8921" x2="-1351.3413" y2="-1505.9058" gradientTransform="matrix(-0.9153 -0.4027 -0.4027 0.9153 -1733.499 924.5903)">
					<stop  offset="0" style="stop-color:#6883A2"/>
					<stop  offset="1" style="stop-color:#FFFFFF"/>
				</linearGradient>
				<polygon fill="url(#SVGID_11_)" points="74.786,150.448 84.316,149.938 61.983,61.956 42.818,51.861 				"/>
				
					<linearGradient id="SVGID_12_" gradientUnits="userSpaceOnUse" x1="-1284.5669" y1="-1522.1406" x2="-1284.5669" y2="-1526.3981" gradientTransform="matrix(-0.9153 -0.4027 -0.4027 0.9153 -1733.499 924.5903)">
					<stop  offset="0" style="stop-color:#B8CEE8"/>
					<stop  offset="0.3566" style="stop-color:#C4DEF2"/>
					<stop  offset="1" style="stop-color:#FFFFFF"/>
				</linearGradient>
				<polygon fill="url(#SVGID_12_)" points="50.019,31.887 67.916,46.104 61.983,61.956 42.818,51.861 				"/>
				<path d="M84.194,160.992c-0.437,1.181,0.134,2.261,1.269,2.418c1.136,0.154,2.409-0.676,2.844-1.854
					c0.436-1.18-0.135-2.263-1.27-2.418C85.901,158.984,84.629,159.812,84.194,160.992z"/>
				<path d="M86.88,169.88c-0.398,1.084,0.123,2.076,1.167,2.22c1.042,0.146,2.21-0.617,2.609-1.701
					c0.399-1.082-0.122-2.073-1.166-2.217C88.449,168.036,87.28,168.798,86.88,169.88z"/>
				<path d="M89.271,178.527c-0.359,0.978,0.111,1.873,1.053,2.004c0.942,0.13,1.996-0.559,2.356-1.535
					c0.358-0.977-0.11-1.874-1.053-2.002C90.688,176.864,89.632,177.552,89.271,178.527z"/>
				
					<radialGradient id="SVGID_13_" cx="-1276.7354" cy="-1279.5898" r="7.512" fx="-1276.6884" fy="-1280.3856" gradientTransform="matrix(-0.8922 -0.4259 -0.3429 0.8554 -1515.4132 706.1408)" gradientUnits="userSpaceOnUse">
					<stop  offset="0" style="stop-color:#FFFF00"/>
					<stop  offset="0.3313" style="stop-color:#FFD400"/>
					<stop  offset="0.4016" style="stop-color:#FCD001"/>
					<stop  offset="0.4777" style="stop-color:#F2C303"/>
					<stop  offset="0.5565" style="stop-color:#E2AD06"/>
					<stop  offset="0.6371" style="stop-color:#CC8F0B"/>
					<stop  offset="0.7184" style="stop-color:#B06811"/>
					<stop  offset="0.7485" style="stop-color:#A45814"/>
					<stop  offset="0.9002" style="stop-color:#B57010"/>
					<stop  offset="1" style="stop-color:#BD7B0E"/>
				</radialGradient>
				<path fill="url(#SVGID_13_)" d="M57.021,153.823c-1.095,2.729,0.325,6.045,3.174,7.403c2.849,1.357,6.042,0.248,7.137-2.481
					c1.095-2.729-0.326-6.044-3.174-7.404C61.309,149.98,58.114,151.094,57.021,153.823z"/>
				
					<radialGradient id="SVGID_14_" cx="-1295.0464" cy="-1297.6167" r="12.8337" gradientTransform="matrix(-0.8922 -0.4259 -0.3429 0.8554 -1515.4132 706.1408)" gradientUnits="userSpaceOnUse">
					<stop  offset="0" style="stop-color:#FFFF00"/>
					<stop  offset="0.3313" style="stop-color:#FFD400"/>
					<stop  offset="0.4016" style="stop-color:#FCD001"/>
					<stop  offset="0.4777" style="stop-color:#F2C303"/>
					<stop  offset="0.5565" style="stop-color:#E2AD06"/>
					<stop  offset="0.6371" style="stop-color:#CC8F0B"/>
					<stop  offset="0.7184" style="stop-color:#B06811"/>
					<stop  offset="0.7485" style="stop-color:#A45814"/>
					<stop  offset="0.9002" style="stop-color:#B57010"/>
					<stop  offset="1" style="stop-color:#BD7B0E"/>
				</radialGradient>
				<path fill="url(#SVGID_14_)" d="M77.158,150.208c-1.308,3.504,0.391,7.194,3.791,8.243c3.4,1.049,7.218-0.942,8.523-4.448
					c1.308-3.504-0.391-7.192-3.793-8.242C82.279,144.712,78.465,146.702,77.158,150.208z"/>
				
					<linearGradient id="SVGID_15_" gradientUnits="userSpaceOnUse" x1="-1419.832" y1="-1290.4399" x2="-1405.8291" y2="-1290.4399" gradientTransform="matrix(-0.9201 -0.2436 -0.4046 0.9797 -1737.8728 1072.8181)">
					<stop  offset="0" style="stop-color:#FFCA00"/>
					<stop  offset="0.2793" style="stop-color:#EBAE0B"/>
					<stop  offset="0.8792" style="stop-color:#B96725"/>
					<stop  offset="1" style="stop-color:#AE582B"/>
				</linearGradient>
				<path fill="url(#SVGID_15_)" d="M77.851,150.786c-1.346,3.606,0.401,7.403,3.9,8.481c3.5,1.078,7.426-0.971,8.771-4.576
					c1.343-3.604-0.404-7.401-3.903-8.48C83.121,145.132,79.194,147.182,77.851,150.786z"/>
				
					<radialGradient id="SVGID_16_" cx="-219.5874" cy="-1080.6074" r="3.016" fx="-219.9955" fy="-1080.5511" gradientTransform="matrix(-0.2178 0.9056 0.8553 0.2803 960.7489 654.2239)" gradientUnits="userSpaceOnUse">
					<stop  offset="0" style="stop-color:#FFFF00"/>
					<stop  offset="0.3313" style="stop-color:#FFD400"/>
					<stop  offset="0.4016" style="stop-color:#FCD001"/>
					<stop  offset="0.4777" style="stop-color:#F2C303"/>
					<stop  offset="0.5565" style="stop-color:#E2AD06"/>
					<stop  offset="0.6371" style="stop-color:#CC8F0B"/>
					<stop  offset="0.7184" style="stop-color:#B06811"/>
					<stop  offset="0.7485" style="stop-color:#A45814"/>
					<stop  offset="0.9002" style="stop-color:#B57010"/>
					<stop  offset="1" style="stop-color:#BD7B0E"/>
				</radialGradient>
				<path fill="url(#SVGID_16_)" d="M81.852,152.021c-0.496,1.328,0.147,2.729,1.438,3.125c1.29,0.396,2.735-0.357,3.231-1.688
					c0.495-1.328-0.149-2.729-1.438-3.125S82.345,150.691,81.852,152.021z"/>
			</g>
			<g>
				
					<radialGradient id="SVGID_17_" cx="-1506.146" cy="-1461.209" r="7.2315" fx="-1506.1007" fy="-1461.9751" gradientTransform="matrix(-0.818 -0.4776 -0.4215 0.8653 -1691.4889 673.0303)" gradientUnits="userSpaceOnUse">
					<stop  offset="0" style="stop-color:#FFFF00"/>
					<stop  offset="0.3313" style="stop-color:#FFD400"/>
					<stop  offset="0.4016" style="stop-color:#FCD001"/>
					<stop  offset="0.4777" style="stop-color:#F2C303"/>
					<stop  offset="0.5565" style="stop-color:#E2AD06"/>
					<stop  offset="0.6371" style="stop-color:#CC8F0B"/>
					<stop  offset="0.7184" style="stop-color:#B06811"/>
					<stop  offset="0.7485" style="stop-color:#A45814"/>
					<stop  offset="0.9002" style="stop-color:#B57010"/>
					<stop  offset="1" style="stop-color:#BD7B0E"/>
				</radialGradient>
				<path fill="url(#SVGID_17_)" d="M151.525,126.247c-1.299,2.66-0.31,6.004,2.205,7.473c2.516,1.468,5.601,0.503,6.896-2.157
					c1.294-2.657,0.31-6.002-2.206-7.472C155.908,122.624,152.818,123.591,151.525,126.247z"/>
				
					<linearGradient id="SVGID_18_" gradientUnits="userSpaceOnUse" x1="-1899.3604" y1="-1955.4077" x2="-1903.5953" y2="-1951.3187" gradientTransform="matrix(-0.5789 -0.5545 -0.278 0.8427 -1505.4999 725.5578)">
					<stop  offset="0" style="stop-color:#FFCA00"/>
					<stop  offset="0.2793" style="stop-color:#EBAE0B"/>
					<stop  offset="0.8792" style="stop-color:#B96725"/>
					<stop  offset="1" style="stop-color:#AE582B"/>
				</linearGradient>
				<path fill="url(#SVGID_18_)" d="M123.715,134.227c-0.82,0.197-1.217,1.478-0.896,2.853l0,0c0.324,1.375,1.25,2.33,2.066,2.134
					l27.752-6.879c0.817-0.198,1.219-1.479,0.896-2.852l0,0c-0.324-1.377-1.25-2.332-2.066-2.137L123.715,134.227z"/>
				<g>
					
						<linearGradient id="SVGID_19_" gradientUnits="userSpaceOnUse" x1="-1568.1934" y1="-1589.2007" x2="-1534.252" y2="-1595.2927" gradientTransform="matrix(-0.8583 -0.4242 -0.4579 0.9388 -1915.0886 989.8352)">
						<stop  offset="0" style="stop-color:#D16E00"/>
						<stop  offset="0.1896" style="stop-color:#B56205"/>
						<stop  offset="0.5959" style="stop-color:#6E4313"/>
						<stop  offset="1" style="stop-color:#222222"/>
					</linearGradient>
					<path fill="url(#SVGID_19_)" d="M145.4,135.364l2.127,29.134c0,0-0.596,3.627-3.271,3.924c-2.708,0.303-4.2-2.107-4.2-2.107
						l-5.136-27.271L145.4,135.364z"/>
					
						<linearGradient id="SVGID_20_" gradientUnits="userSpaceOnUse" x1="-1563.6836" y1="-1596.9844" x2="-1534.6381" y2="-1588.3003" gradientTransform="matrix(-0.8583 -0.4242 -0.4579 0.9388 -1915.0886 989.8352)">
						<stop  offset="0" style="stop-color:#906E81"/>
						<stop  offset="0.2884" style="stop-color:#745B69"/>
						<stop  offset="0.9081" style="stop-color:#2D2A2C"/>
						<stop  offset="1" style="stop-color:#222222"/>
					</linearGradient>
					<path fill="url(#SVGID_20_)" d="M145.4,135.364l2.127,29.134c0,0-0.596,3.627-3.271,3.924c-2.708,0.303-4.2-2.107-4.2-2.107
						l-5.136-27.271L145.4,135.364z"/>
					<g>
						
							<linearGradient id="SVGID_21_" gradientUnits="userSpaceOnUse" x1="-1553.3477" y1="-1595.9541" x2="-1542.9839" y2="-1589.2314" gradientTransform="matrix(-0.8583 -0.4242 -0.4579 0.9388 -1915.0886 989.8352)">
							<stop  offset="0" style="stop-color:#9F8292"/>
							<stop  offset="0.257" style="stop-color:#836D79"/>
							<stop  offset="0.8088" style="stop-color:#3C3639"/>
							<stop  offset="1" style="stop-color:#222222"/>
						</linearGradient>
						<path fill="url(#SVGID_21_)" d="M143.747,135.939l1.653-0.575l2.127,29.134c0,0-0.168,1.013-0.719,2.012L143.747,135.939z"/>
					</g>
				</g>
				
					<linearGradient id="SVGID_22_" gradientUnits="userSpaceOnUse" x1="-1560.2925" y1="-1558.2183" x2="-1557.7137" y2="-1555.9619" gradientTransform="matrix(-0.8429 -0.4547 -0.4857 0.9244 -1926.9375 889.2153)">
					<stop  offset="0" style="stop-color:#484848"/>
					<stop  offset="0.2454" style="stop-color:#A6A6A7"/>
					<stop  offset="1" style="stop-color:#000000"/>
				</linearGradient>
				<path fill="url(#SVGID_22_)" d="M139.428,162.663c0,0,2.438,3.125,5.996-0.019c2.253-1.992,1.547-4.871,1.547-4.871
					l-0.438-5.062c0,0,0.475,6.43-3.461,7.575c-3.937,1.146-4.48-2.076-4.48-2.076L139.428,162.663z"/>
				
					<linearGradient id="SVGID_23_" gradientUnits="userSpaceOnUse" x1="-1554.3931" y1="-1564.4492" x2="-1551.7882" y2="-1562.1702" gradientTransform="matrix(-0.8429 -0.4547 -0.4857 0.9244 -1926.9375 889.2153)">
					<stop  offset="0" style="stop-color:#484848"/>
					<stop  offset="0.2454" style="stop-color:#A6A6A7"/>
					<stop  offset="1" style="stop-color:#000000"/>
				</linearGradient>
				<path fill="url(#SVGID_23_)" d="M138.014,154.07c0,0,2.668,3.322,6.43,0.106c2.383-2.036,1.572-5.062,1.572-5.062l-0.556-5.312
					c0,0,0.621,6.74-3.579,7.858c-4.199,1.116-4.847-2.269-4.847-2.269L138.014,154.07z"/>
				
					<linearGradient id="SVGID_24_" gradientUnits="userSpaceOnUse" x1="-1547.6353" y1="-1571.5449" x2="-1545.0001" y2="-1569.2393" gradientTransform="matrix(-0.8429 -0.4547 -0.4857 0.9244 -1926.9375 889.2153)">
					<stop  offset="0" style="stop-color:#484848"/>
					<stop  offset="0.2454" style="stop-color:#A6A6A7"/>
					<stop  offset="1" style="stop-color:#000000"/>
				</linearGradient>
				<path fill="url(#SVGID_24_)" d="M136.281,144.286c0,0,3.39,3.83,7.638,0.628c2.692-2.029,1.532-5.391,1.532-5.391l-0.219-6.631
					c0,0,0.393,8.192-4.521,9.074c-4.906,0.885-5.898-2.855-5.898-2.855L136.281,144.286z"/>
				
					<linearGradient id="SVGID_25_" gradientUnits="userSpaceOnUse" x1="-1530.1338" y1="-1629.7646" x2="-1473.4666" y2="-1590.3246" gradientTransform="matrix(-0.8429 -0.4547 -0.4857 0.9244 -1926.9375 889.2153)">
					<stop  offset="0" style="stop-color:#D2E6FF"/>
					<stop  offset="0.6457" style="stop-color:#EEF5F4"/>
					<stop  offset="1" style="stop-color:#FFFFFF"/>
				</linearGradient>
				<polygon fill="url(#SVGID_25_)" points="145.682,129.609 141.131,132.702 129.244,44.573 136.372,29.118 				"/>
				
					<linearGradient id="SVGID_26_" gradientUnits="userSpaceOnUse" x1="-1518.2144" y1="-1623.502" x2="-1519.2795" y2="-1600.6108" gradientTransform="matrix(-0.8429 -0.4547 -0.4857 0.9244 -1926.9375 889.2153)">
					<stop  offset="0.092" style="stop-color:#A8CEC9;stop-opacity:0"/>
					<stop  offset="0.1885" style="stop-color:#C4DEDA;stop-opacity:0.3455"/>
					<stop  offset="0.2883" style="stop-color:#E5F0EF;stop-opacity:0.7027"/>
					<stop  offset="0.4663" style="stop-color:#FFFFFF"/>
					<stop  offset="1" style="stop-color:#A8CEC9;stop-opacity:0"/>
				</linearGradient>
				<polygon fill="url(#SVGID_26_)" points="145.682,129.609 141.131,132.702 129.244,44.573 136.372,29.118 				"/>
				
					<linearGradient id="SVGID_27_" gradientUnits="userSpaceOnUse" x1="-1513.7124" y1="-1618.1558" x2="-1543.6348" y2="-1640.3098" gradientTransform="matrix(-0.8429 -0.4547 -0.4857 0.9244 -1926.9375 889.2153)">
					<stop  offset="0" style="stop-color:#6883A2"/>
					<stop  offset="1" style="stop-color:#FFFFFF"/>
				</linearGradient>
				<polygon fill="url(#SVGID_27_)" points="132.206,132.807 141.131,132.702 129.244,44.573 112.42,33.759 				"/>
				
					<linearGradient id="SVGID_28_" gradientUnits="userSpaceOnUse" x1="-1479.3545" y1="-1655.9453" x2="-1479.3545" y2="-1660.0438" gradientTransform="matrix(-0.8429 -0.4547 -0.4857 0.9244 -1926.9375 889.2153)">
					<stop  offset="0" style="stop-color:#B8CEE8"/>
					<stop  offset="0.3566" style="stop-color:#C4DEF2"/>
					<stop  offset="1" style="stop-color:#FFFFFF"/>
				</linearGradient>
				<polygon fill="url(#SVGID_28_)" points="121.146,14.272 136.372,29.118 129.244,44.573 112.42,33.759 				"/>
				<path d="M139.898,143.65c-0.527,1.15-0.105,2.248,0.935,2.451c1.043,0.2,2.313-0.566,2.836-1.718
					c0.524-1.147,0.103-2.245-0.937-2.448C141.689,141.732,140.422,142.501,139.898,143.65z"/>
				<path d="M141.498,152.573c-0.48,1.057-0.096,2.062,0.861,2.247c0.957,0.187,2.121-0.52,2.603-1.575
					c0.481-1.054,0.097-2.062-0.86-2.246C143.146,150.812,141.98,151.518,141.498,152.573z"/>
				<path d="M142.852,161.243c-0.437,0.952-0.086,1.86,0.774,2.028c0.864,0.168,1.916-0.467,2.351-1.42s0.086-1.862-0.775-2.028
					C144.337,159.654,143.284,160.292,142.852,161.243z"/>
				
					<radialGradient id="SVGID_29_" cx="-1475.9292" cy="-1433.96" r="7.232" fx="-1475.8838" fy="-1434.7261" gradientTransform="matrix(-0.818 -0.4776 -0.4215 0.8653 -1691.4889 673.0303)" gradientUnits="userSpaceOnUse">
					<stop  offset="0" style="stop-color:#FFFF00"/>
					<stop  offset="0.3313" style="stop-color:#FFD400"/>
					<stop  offset="0.4016" style="stop-color:#FCD001"/>
					<stop  offset="0.4777" style="stop-color:#F2C303"/>
					<stop  offset="0.5565" style="stop-color:#E2AD06"/>
					<stop  offset="0.6371" style="stop-color:#CC8F0B"/>
					<stop  offset="0.7184" style="stop-color:#B06811"/>
					<stop  offset="0.7485" style="stop-color:#A45814"/>
					<stop  offset="0.9002" style="stop-color:#B57010"/>
					<stop  offset="1" style="stop-color:#BD7B0E"/>
				</radialGradient>
				<path fill="url(#SVGID_29_)" d="M115.32,135.396c-1.295,2.658-0.309,6.004,2.207,7.472c2.514,1.467,5.602,0.502,6.896-2.157
					s0.31-6.003-2.206-7.472C119.703,131.773,116.616,132.74,115.32,135.396z"/>
				
					<radialGradient id="SVGID_30_" cx="-1493.5581" cy="-1451.3149" r="12.3592" gradientTransform="matrix(-0.818 -0.4776 -0.4215 0.8653 -1691.4889 673.0303)" gradientUnits="userSpaceOnUse">
					<stop  offset="0" style="stop-color:#FFFF00"/>
					<stop  offset="0.3313" style="stop-color:#FFD400"/>
					<stop  offset="0.4016" style="stop-color:#FCD001"/>
					<stop  offset="0.4777" style="stop-color:#F2C303"/>
					<stop  offset="0.5565" style="stop-color:#E2AD06"/>
					<stop  offset="0.6371" style="stop-color:#CC8F0B"/>
					<stop  offset="0.7184" style="stop-color:#B06811"/>
					<stop  offset="0.7485" style="stop-color:#A45814"/>
					<stop  offset="0.9002" style="stop-color:#B57010"/>
					<stop  offset="1" style="stop-color:#BD7B0E"/>
				</radialGradient>
				<path fill="url(#SVGID_30_)" d="M134.438,132.668c-1.57,3.417-0.363,7.146,2.695,8.328c3.061,1.184,6.814-0.629,8.387-4.046
					c1.571-3.416,0.363-7.146-2.696-8.328C139.764,127.438,136.009,129.249,134.438,132.668z"/>
				
					<linearGradient id="SVGID_31_" gradientUnits="userSpaceOnUse" x1="-1626.1821" y1="-1390.415" x2="-1612.6997" y2="-1390.415" gradientTransform="matrix(-0.8642 -0.2912 -0.4943 0.9906 -1946.0802 1041.2375)">
					<stop  offset="0" style="stop-color:#FFCA00"/>
					<stop  offset="0.2793" style="stop-color:#EBAE0B"/>
					<stop  offset="0.8792" style="stop-color:#B96725"/>
					<stop  offset="1" style="stop-color:#AE582B"/>
				</linearGradient>
				<path fill="url(#SVGID_31_)" d="M135.021,133.271c-1.615,3.517-0.373,7.354,2.773,8.568c3.148,1.219,7.014-0.646,8.631-4.164
					c1.614-3.516,0.374-7.353-2.773-8.568C140.504,127.891,136.641,129.754,135.021,133.271z"/>
				
					<radialGradient id="SVGID_32_" cx="-425.6655" cy="-1092.2793" r="2.9036" fx="-426.0585" fy="-1092.2251" gradientTransform="matrix(-0.3058 0.9224 0.7976 0.3261 881.9612 884.1141)" gradientUnits="userSpaceOnUse">
					<stop  offset="0" style="stop-color:#FFFF00"/>
					<stop  offset="0.3313" style="stop-color:#FFD400"/>
					<stop  offset="0.4016" style="stop-color:#FCD001"/>
					<stop  offset="0.4777" style="stop-color:#F2C303"/>
					<stop  offset="0.5565" style="stop-color:#E2AD06"/>
					<stop  offset="0.6371" style="stop-color:#CC8F0B"/>
					<stop  offset="0.7184" style="stop-color:#B06811"/>
					<stop  offset="0.7485" style="stop-color:#A45814"/>
					<stop  offset="0.9002" style="stop-color:#B57010"/>
					<stop  offset="1" style="stop-color:#BD7B0E"/>
				</radialGradient>
				<path fill="url(#SVGID_32_)" d="M138.625,134.663c-0.598,1.294-0.141,2.709,1.021,3.157c1.162,0.447,2.582-0.239,3.181-1.534
					c0.596-1.295,0.138-2.709-1.022-3.158C140.643,132.68,139.219,133.366,138.625,134.663z"/>
			</g>
		</g>
	</g>
</g>
<g id="outline_x5F_white">
	<g>
		<path fill="#FFFFFF" d="M78.33,156.811c0.049,0.099,0.127,0.241,0.238,0.412l-0.079-0.255
			C78.437,156.915,78.38,156.865,78.33,156.811z"/>
		<path fill="#FFFFFF" d="M164.475,113.727c-2.574-1.502-5.484-2.306-8.43-2.324l-7.727-83.396c-0.264-2.84-1.529-5.494-3.571-7.485
			L129.521,5.68c-2.26-2.205-5.275-3.408-8.375-3.408c-0.748,0-1.5,0.07-2.25,0.213c-3.853,0.735-7.102,3.305-8.703,6.883
			l-8.727,19.486c-1.019,2.275-1.304,4.811-0.814,7.255l16.896,84.586c-5.146,0.665-9.671,3.666-12.352,8.222
			c-1.884-0.655-3.871-0.997-5.836-0.997c-0.718,0-1.427,0.044-2.125,0.129l-17.57-84.39c-0.572-2.747-2.087-5.206-4.284-6.951
			l-17.9-14.217c-2.147-1.706-4.785-2.604-7.464-2.604c-1.096,0-2.199,0.15-3.278,0.457c-3.718,1.056-6.7,3.838-8.01,7.474
			l-7.2,19.974c-0.903,2.504-0.947,5.238-0.126,7.771l27.073,83.492c-5.651,1.049-10.413,4.862-12.595,10.307
			c-3.46,8.632,0.558,18.604,9.148,22.697c2.396,1.146,5.048,1.75,7.667,1.75c2.819,0,5.507-0.676,7.881-1.899l4.806,15.415
			c0.438,1.402,1.131,2.717,2.044,3.869c2.498,3.16,7.341,6.535,13.441,6.535c0.82,0,1.648-0.062,2.463-0.184
			c5.038-0.749,9.223-3.879,11.511-8.604c0.078-0.159,0.154-0.322,0.228-0.486c0.125-0.28,0.242-0.562,0.353-0.846
			c0.031-0.077,0.062-0.156,0.091-0.235c0.797-2.153,1.022-4.022,1.09-4.954c0.069-1.018,0.012-2.04-0.178-3.043l-3.115-16.654
			c4.89-0.829,9.135-3.726,11.666-7.953c1.63,0.511,3.326,0.782,5.035,0.782c1.957,0,3.854-0.334,5.625-0.961l2.625,13.942
			c0.274,1.451,0.813,2.844,1.594,4.101c2.342,3.776,7.229,7.812,13.936,7.812c0.598,0,1.203-0.033,1.8-0.102
			c4.772-0.527,8.935-3.294,11.479-7.613c0.121-0.201,0.238-0.406,0.351-0.617c0.024-0.051,0.054-0.104,0.082-0.158
			c0.095-0.182,0.187-0.36,0.274-0.544c0.055-0.112,0.104-0.228,0.156-0.341c0.116-0.254,0.225-0.5,0.32-0.743
			c0.025-0.062,0.055-0.128,0.076-0.188c0.104-0.264,0.193-0.517,0.277-0.76c0.104-0.299,0.195-0.587,0.272-0.854
			c0.001-0.004,0.003-0.008,0.005-0.015c0.271-0.925,0.413-1.663,0.475-2.022c0.16-0.946,0.205-1.909,0.136-2.867l-1.267-17.338
			c5.664-0.674,10.603-4.172,13.184-9.463C175.46,128.503,172.41,118.363,164.475,113.727z M100.399,150.963
			c-0.823,0-1.677-0.188-2.502-0.58c-0.658-0.312-1.235-0.734-1.729-1.229l-5.378,1.521c0.304,1.263,0.238,2.652-0.269,4.017
			c-0.179,0.479-0.407,0.933-0.672,1.354l4.778,25.538c0,0-0.055,0.782-0.388,1.665c-0.001,0.005-0.003,0.009-0.005,0.014
			c-0.045,0.117-0.095,0.235-0.149,0.354c-0.003,0.007-0.005,0.014-0.009,0.021v-0.002c-0.429,0.92-1.183,1.842-2.517,2.039
			c-0.238,0.035-0.469,0.053-0.692,0.053c-2.465,0-4.029-1.979-4.029-1.979l-8.048-25.812l-0.474-1.14
			c-0.586-0.637-1.023-1.397-1.291-2.229l-9.344,2.644c-0.039,0.521-0.153,1.037-0.353,1.535c-0.778,1.938-2.615,3.062-4.635,3.062
			c-0.823,0-1.677-0.188-2.502-0.58c-2.849-1.357-4.269-4.674-3.174-7.402c0.777-1.939,2.615-3.062,4.635-3.062
			c0.823,0,1.677,0.188,2.501,0.58c0.562,0.27,1.065,0.615,1.508,1.018c0.063-0.035,0.127-0.073,0.2-0.094l8.711-2.465
			l-31.754-97.94l7.201-19.974l17.897,14.217l20.76,99.708l5.734-1.621c0.057-0.41,0.156-0.816,0.314-1.211
			c0.776-1.938,2.614-3.062,4.635-3.062c0.823,0,1.678,0.188,2.502,0.58c0.441,0.21,0.844,0.473,1.212,0.768
			c2.332,1.859,3.177,3.609,2.209,5.799c-0.06,0.282-0.138,0.562-0.247,0.836C104.257,149.839,102.42,150.963,100.399,150.963z
			 M160.627,131.562c-0.886,1.815-2.605,2.844-4.41,2.844c-0.836,0-1.689-0.223-2.486-0.688c-0.582-0.34-1.076-0.781-1.484-1.291
			l-5.161,1.28c0.153,1.263-0.046,2.638-0.655,3.968c-0.217,0.469-0.475,0.905-0.764,1.312l1.863,25.51c0,0-0.043,0.255-0.153,0.63
			l-0.001,0.003c-0.025,0.092-0.057,0.189-0.093,0.294c-0.003,0.011-0.007,0.019-0.011,0.027c-0.031,0.096-0.067,0.196-0.108,0.301
			c-0.009,0.019-0.017,0.037-0.022,0.058c-0.037,0.094-0.08,0.188-0.125,0.289c-0.014,0.028-0.027,0.06-0.041,0.088
			c-0.043,0.09-0.088,0.179-0.136,0.267c-0.01,0.021-0.019,0.039-0.028,0.058v-0.005c-0.492,0.896-1.289,1.777-2.551,1.917
			c-0.16,0.02-0.314,0.026-0.467,0.026c-2.412,0-3.734-2.136-3.734-2.136l-4.882-25.92l-0.323-1.146
			c-0.48-0.657-0.812-1.431-0.978-2.267l-8.968,2.224c-0.09,0.515-0.247,1.021-0.483,1.505c-0.885,1.816-2.606,2.844-4.409,2.844
			c-0.836,0-1.689-0.222-2.486-0.687c-0.165-0.096-0.305-0.221-0.456-0.332c-1.823-0.633-2.761-2.286-2.2-5.696
			c0.091-0.492,0.224-0.979,0.449-1.443c0.887-1.815,2.607-2.842,4.412-2.842c0.836,0,1.688,0.221,2.484,0.685
			c0.497,0.291,0.932,0.655,1.303,1.069c0.062-0.031,0.125-0.065,0.194-0.084l8.361-2.072L112.42,33.759l8.727-19.487l15.227,14.845
			l9.234,99.681l5.502-1.364c0.096-0.402,0.229-0.803,0.416-1.188c0.885-1.814,2.604-2.841,4.41-2.841
			c0.836,0,1.689,0.22,2.485,0.685C160.936,125.559,161.921,128.902,160.627,131.562z"/>
		<path fill="#FFFFFF" d="M134.859,139.261c0.039,0.099,0.096,0.242,0.181,0.414l-0.047-0.252
			C134.95,139.368,134.902,139.316,134.859,139.261z"/>
	</g>
</g>
<g id="outline_x5F_black">
	<g>
		<path d="M78.33,156.811c0.049,0.099,0.127,0.241,0.238,0.412l-0.079-0.255C78.437,156.915,78.38,156.865,78.33,156.811z"/>
		<path d="M134.859,139.261c0.039,0.099,0.096,0.242,0.181,0.414l-0.047-0.252C134.95,139.368,134.902,139.316,134.859,139.261z"/>
		<path d="M161.448,118.91c-1.688-0.984-3.595-1.504-5.515-1.504c-1.875,0-3.662,0.478-5.232,1.351l-8.354-90.193
			c-0.134-1.42-0.767-2.747-1.787-3.742L125.334,9.977c-1.131-1.103-2.639-1.705-4.188-1.705c-0.375,0-0.75,0.035-1.125,0.106
			c-1.926,0.367-3.551,1.652-4.353,3.441l-8.728,19.486c-0.51,1.138-0.65,2.405-0.406,3.627l18.531,92.774l-0.316,0.079
			c-1.564-0.809-3.286-1.232-5.02-1.232c-4.18,0-7.938,2.381-9.805,6.215c-0.897,1.839-1.259,3.812-1.162,5.739
			c-1.127-1.406-2.58-2.595-4.316-3.425c-1.621-0.773-3.334-1.166-5.088-1.166c-2.443,0-4.733,0.777-6.585,2.143L73.79,44.881
			c-0.286-1.373-1.044-2.603-2.142-3.475L53.75,27.189c-1.073-0.853-2.392-1.302-3.732-1.302c-0.548,0-1.099,0.075-1.639,0.229
			c-1.859,0.528-3.35,1.919-4.005,3.737l-7.2,19.974c-0.451,1.252-0.474,2.619-0.063,3.885l29.835,92.011l-0.4,0.112
			c-1.564-0.713-3.207-1.074-4.89-1.074c-4.537,0-8.542,2.681-10.205,6.831c-2.286,5.701,0.42,12.312,6.161,15.051
			c1.619,0.772,3.33,1.164,5.084,1.164c4.103,0,7.772-2.193,9.667-5.685l1.332-0.376l7.417,23.789
			c0.219,0.701,0.565,1.357,1.022,1.936c0.562,0.711,3.625,4.256,8.735,4.256c0.524,0,1.055-0.039,1.578-0.117
			c3.048-0.451,5.595-2.383,7.005-5.303c0.045-0.092,0.089-0.186,0.13-0.281c0.088-0.193,0.17-0.391,0.245-0.584
			c0.018-0.047,0.036-0.094,0.053-0.142c0.576-1.556,0.708-2.915,0.733-3.299c0.037-0.509,0.007-1.021-0.088-1.521l-4.417-23.604
			c0.012-0.029,0.023-0.062,0.035-0.094c0.068-0.186,0.132-0.367,0.192-0.553c1.312,0.485,2.673,0.73,4.062,0.73
			c4.536,0,8.54-2.679,10.206-6.824c0.622-1.555,0.861-3.175,0.783-4.767c0.853,1.048,1.892,1.966,3.114,2.679
			c1.685,0.983,3.59,1.503,5.511,1.503c3.817,0,7.282-1.987,9.276-5.253l0.491-0.122l4.379,23.246
			c0.137,0.728,0.406,1.423,0.796,2.05c1.422,2.295,4.589,4.976,8.834,4.976c0.376,0,0.758-0.021,1.134-0.063
			c2.93-0.322,5.405-2.002,6.998-4.734c0.069-0.112,0.135-0.229,0.197-0.348c0.016-0.027,0.033-0.064,0.052-0.102
			c0.071-0.135,0.14-0.27,0.203-0.402c0.03-0.062,0.06-0.123,0.087-0.188c0.002-0.004,0.004-0.008,0.006-0.014
			c0.086-0.186,0.162-0.363,0.233-0.539c0.016-0.037,0.032-0.08,0.046-0.113c0.07-0.184,0.136-0.359,0.193-0.528
			c0.002-0.005,0.004-0.01,0.006-0.017c0.068-0.193,0.127-0.383,0.178-0.558c0.003-0.008,0.005-0.016,0.007-0.022
			c0.19-0.646,0.283-1.145,0.313-1.325c0.08-0.476,0.104-0.955,0.067-1.437l-1.729-23.674c0.032-0.066,0.063-0.134,0.095-0.199
			c0.089-0.193,0.173-0.39,0.252-0.586c1.305,0.528,2.691,0.805,4.088,0.805c4.178,0,7.936-2.381,9.803-6.213
			C168.7,128.684,166.689,121.973,161.448,118.91z M105.035,147.9c-0.778,1.938-2.615,3.062-4.636,3.062
			c-0.823,0-1.677-0.188-2.502-0.58c-0.658-0.312-1.235-0.734-1.729-1.229l-5.378,1.521c0.304,1.263,0.238,2.652-0.269,4.017
			c-0.179,0.479-0.407,0.933-0.672,1.354l4.778,25.538c0,0-0.055,0.782-0.388,1.665c-0.001,0.005-0.003,0.009-0.005,0.014
			c-0.045,0.117-0.095,0.235-0.149,0.354c-0.003,0.007-0.005,0.014-0.009,0.021v-0.002c-0.429,0.92-1.183,1.842-2.517,2.039
			c-0.238,0.035-0.469,0.053-0.692,0.053c-2.465,0-4.029-1.979-4.029-1.979l-8.048-25.812l-0.474-1.14
			c-0.586-0.637-1.023-1.397-1.291-2.229l-9.344,2.644c-0.039,0.521-0.153,1.037-0.353,1.535c-0.778,1.938-2.615,3.062-4.635,3.062
			c-0.823,0-1.677-0.188-2.502-0.58c-2.849-1.357-4.269-4.674-3.174-7.402c0.777-1.939,2.615-3.062,4.635-3.062
			c0.823,0,1.677,0.188,2.501,0.58c0.562,0.27,1.065,0.615,1.508,1.018c0.063-0.035,0.127-0.073,0.2-0.094l8.711-2.465
			l-31.754-97.94l7.201-19.974l17.897,14.217l20.76,99.708l5.734-1.621c0.057-0.41,0.156-0.816,0.314-1.211
			c0.776-1.938,2.614-3.062,4.635-3.062c0.823,0,1.678,0.188,2.502,0.58C104.708,141.855,106.129,145.171,105.035,147.9z
			 M160.627,131.562c-0.886,1.815-2.605,2.844-4.41,2.844c-0.836,0-1.689-0.223-2.486-0.688c-0.582-0.34-1.076-0.781-1.484-1.291
			l-5.161,1.28c0.153,1.263-0.046,2.638-0.655,3.968c-0.217,0.469-0.475,0.905-0.764,1.312l1.863,25.51c0,0-0.043,0.255-0.153,0.63
			l-0.001,0.003c-0.025,0.092-0.057,0.189-0.093,0.294c-0.003,0.011-0.007,0.019-0.011,0.027c-0.031,0.096-0.067,0.196-0.108,0.301
			c-0.009,0.019-0.017,0.037-0.022,0.058c-0.037,0.094-0.08,0.188-0.125,0.289c-0.014,0.028-0.027,0.06-0.041,0.088
			c-0.043,0.09-0.088,0.179-0.136,0.267c-0.01,0.021-0.019,0.039-0.028,0.058v-0.005c-0.492,0.896-1.289,1.777-2.551,1.917
			c-0.16,0.02-0.314,0.026-0.468,0.026c-2.411,0-3.733-2.136-3.733-2.136l-4.882-25.92l-0.323-1.146
			c-0.48-0.657-0.812-1.431-0.978-2.267l-8.968,2.224c-0.09,0.515-0.247,1.021-0.483,1.505c-0.885,1.816-2.606,2.844-4.409,2.844
			c-0.836,0-1.689-0.222-2.486-0.687c-2.516-1.468-3.502-4.812-2.207-7.472c0.887-1.815,2.607-2.842,4.412-2.842
			c0.836,0,1.688,0.221,2.484,0.685c0.497,0.291,0.932,0.655,1.303,1.069c0.062-0.031,0.125-0.065,0.194-0.084l8.361-2.072
			L112.42,33.759l8.727-19.487l15.227,14.845l9.234,99.681l5.502-1.364c0.096-0.402,0.229-0.803,0.416-1.188
			c0.885-1.814,2.604-2.841,4.41-2.841c0.836,0,1.689,0.22,2.485,0.685C160.936,125.559,161.921,128.902,160.627,131.562z"/>
	</g>
</g>
</svg>
