<?xml version="1.0" encoding="utf-8"?>
<!-- Generator: Adobe Illustrator 15.0.0, SVG Export Plug-In . SVG Version: 6.00 Build 0)  -->
<!DOCTYPE svg PUBLIC "-//W3C//DTD SVG 1.1//EN" "http://www.w3.org/Graphics/SVG/1.1/DTD/svg11.dtd">
<svg version="1.1" xmlns="http://www.w3.org/2000/svg" xmlns:xlink="http://www.w3.org/1999/xlink" x="0px" y="0px" width="200px"
	 height="200px" viewBox="0 0 200 200" enable-background="new 0 0 200 200" xml:space="preserve">
<g id="icon">
	<g id="Layer_2">
	</g>
	<g id="Layer_1_1_">
		<g>
			<g>
				<g>
					
						<radialGradient id="SVGID_1_" cx="453.8213" cy="-155.2012" r="117.5539" gradientTransform="matrix(0.2341 0.9722 -1.3264 0.3194 -218.0767 -355.3658)" gradientUnits="userSpaceOnUse">
						<stop  offset="0" style="stop-color:#08DEFF"/>
						<stop  offset="0.3252" style="stop-color:#08A4FF"/>
						<stop  offset="0.8405" style="stop-color:#0F60B3"/>
						<stop  offset="1" style="stop-color:#1F90DF"/>
					</radialGradient>
					<path fill="url(#SVGID_1_)" d="M32.063,68.454c2.441-10.415,5.922-13.044,11.523-16.916
						c6.916-5.017,28.127-11.474,42.216-14.562c19.524-4.28,41.763-5.28,52.486-1.607c9.965,3.411,14.392,6.381,18.108,13.934
						c4.09,8.624,6.543,16.712,8.838,26.451c2.644,11.217,3.763,19.14,3.926,24.989c0.322,7.624-1.751,15.719-10.264,23.104
						c-10.166,8.822-27.959,15.426-47.125,19.631c-18.723,4.104-37.937,5.26-51.945,1.558c-9.344-2.468-13.61-7.647-17.278-13.531
						c-4.365-7.913-8.205-22.021-9.333-26.802C31.139,95.887,29.622,78.871,32.063,68.454z"/>
					
						<linearGradient id="SVGID_2_" gradientUnits="userSpaceOnUse" x1="212.5518" y1="630.8691" x2="185.6851" y2="737.4581" gradientTransform="matrix(1 0 0 1 -100 -591)">
						<stop  offset="0" style="stop-color:#08A4FF;stop-opacity:0"/>
						<stop  offset="1" style="stop-color:#1667B2"/>
					</linearGradient>
					<path opacity="0.52" fill="url(#SVGID_2_)" enable-background="new    " d="M161.305,116.216
						c-9.93,8.619-27.309,15.067-46.029,19.175c-18.287,4.008-37.054,5.135-50.739,1.521c-9.126-2.409-13.294-7.473-16.877-13.219
						c-4.264-7.729-8.015-21.512-9.116-26.181c-2.029-8.609-3.511-25.229-1.126-35.404c0.825-3.525,1.777-6.123,2.891-8.188
						c-3.744,2.956-6.319,6.326-8.242,14.534c-2.441,10.417-0.925,27.433,1.152,36.248c1.128,4.78,4.968,18.889,9.333,26.802
						c3.668,5.883,7.935,11.064,17.278,13.531c14.011,3.701,33.225,2.548,51.944-1.557c19.166-4.205,36.959-10.81,47.125-19.634
						c6.379-5.534,9.145-11.471,9.99-17.307C167.326,109.833,164.908,113.09,161.305,116.216z"/>
					
						<radialGradient id="SVGID_3_" cx="449.8086" cy="-161.4121" r="106.7293" gradientTransform="matrix(0.2341 0.9722 -1.3264 0.3194 -229.3872 -355.691)" gradientUnits="userSpaceOnUse">
						<stop  offset="0" style="stop-color:#00FFFF"/>
						<stop  offset="1" style="stop-color:#0086FF;stop-opacity:0"/>
					</radialGradient>
					<path fill="url(#SVGID_3_)" d="M40.913,66.44c2.217-9.457,5.378-11.843,10.462-15.359c6.28-4.553,25.398-10.416,38.191-13.221
						c17.727-3.887,38.056-4.795,47.792-1.46c9.05,3.098,13.065,5.794,16.441,12.65c3.713,7.831,5.939,15.173,8.024,24.018
						c2.399,10.183,3.415,17.378,3.562,22.688c0.295,6.922-1.59,14.271-9.316,20.979c-9.229,8.014-25.385,14.006-42.785,17.822
						c-16.997,3.729-34.441,4.773-47.162,1.413c-8.483-2.239-12.358-6.944-15.688-12.284c-3.963-7.187-7.449-19.994-8.474-24.333
						C40.075,91.349,38.697,75.898,40.913,66.44z"/>
					
						<radialGradient id="SVGID_4_" cx="233.4277" cy="655.7822" r="30.6689" fx="239.3277" fy="668.9947" gradientTransform="matrix(0.9505 0.031 0.1506 1.057 -232.7387 -564.6631)" gradientUnits="userSpaceOnUse">
						<stop  offset="0.3252" style="stop-color:#08A4FF"/>
						<stop  offset="0.8405" style="stop-color:#0F60B3"/>
						<stop  offset="1" style="stop-color:#1F90DF"/>
					</radialGradient>
					<path fill="url(#SVGID_4_)" d="M101.25,142.792c1.701,3.771,2.161,8.22,0.973,12.634c-2.34,8.68-8.197,11.069-8.197,11.069
						c10.845,2.476,20.085-7.157,23.348-16.261c1.424-3.971,1.549-8.094,1.89-11.739C119.51,135.836,99.955,139.923,101.25,142.792z
						"/>
				</g>
			</g>
		</g>
	</g>
</g>
<g id="outline_x5F_white">
	<g>
		<g>
			<path fill="#FFFFFF" d="M119.781,33.11c7.492,0,14.013,0.719,18.508,2.258c9.965,3.411,14.391,6.381,18.109,13.934
				c4.088,8.624,6.543,16.712,8.838,26.451c2.643,11.217,3.762,19.14,3.925,24.989c0.081,1.918,0.01,3.865-0.276,5.824
				c-0.062,0.423-0.137,0.845-0.219,1.268c-0.027,0.139-0.059,0.279-0.088,0.417c-0.066,0.313-0.139,0.626-0.217,0.938
				c-0.035,0.141-0.07,0.28-0.107,0.422c-0.111,0.412-0.23,0.824-0.363,1.238c-0.01,0.03-0.02,0.062-0.029,0.096
				c-0.141,0.429-0.297,0.854-0.463,1.283c-0.053,0.137-0.107,0.271-0.166,0.406c-0.129,0.317-0.266,0.635-0.406,0.95
				c-0.062,0.138-0.125,0.272-0.188,0.41c-0.203,0.422-0.414,0.844-0.646,1.266c-0.01,0.019-0.018,0.031-0.024,0.05
				c-0.235,0.431-0.493,0.859-0.763,1.291c-0.081,0.131-0.167,0.262-0.252,0.391c-0.206,0.318-0.424,0.637-0.646,0.953
				c-0.093,0.132-0.184,0.263-0.277,0.393c-0.312,0.426-0.635,0.85-0.979,1.271c-0.006,0.007-0.01,0.013-0.016,0.019
				c-0.351,0.427-0.726,0.851-1.109,1.274c-0.114,0.127-0.233,0.25-0.354,0.375c-0.295,0.313-0.602,0.627-0.916,0.938
				c-0.129,0.126-0.252,0.25-0.383,0.375c-0.438,0.42-0.893,0.842-1.371,1.255c-8.879,7.707-23.57,13.718-39.918,17.919
				c-0.241,2.75-0.596,5.646-1.606,8.471c-2.908,8.117-10.569,16.654-19.886,16.654c-1.131,0-2.288-0.128-3.462-0.396
				c0,0,5.857-2.392,8.197-11.069c0.936-3.468,0.84-6.951-0.064-10.117c-7.764,1.262-15.443,1.961-22.636,1.961
				c-7.187,0-13.888-0.699-19.693-2.232c-9.344-2.467-13.61-7.648-17.278-13.531c-4.365-7.913-8.205-22.021-9.333-26.802
				c-2.077-8.815-3.594-25.831-1.152-36.248c0.139-0.593,0.281-1.152,0.427-1.696c0.046-0.173,0.094-0.337,0.142-0.506
				c0.103-0.366,0.206-0.724,0.312-1.068c0.055-0.179,0.11-0.355,0.167-0.529c0.106-0.331,0.217-0.651,0.328-0.965
				c0.052-0.147,0.103-0.301,0.157-0.443c0.158-0.425,0.319-0.836,0.484-1.226c0.053-0.122,0.106-0.233,0.159-0.352
				c0.12-0.271,0.241-0.537,0.365-0.792c0.077-0.162,0.158-0.316,0.238-0.472c0.103-0.198,0.207-0.393,0.312-0.583
				c0.087-0.156,0.175-0.313,0.265-0.464c0.104-0.177,0.211-0.346,0.318-0.513c0.092-0.146,0.183-0.294,0.276-0.433
				c0.18-0.265,0.363-0.521,0.551-0.769c0.12-0.159,0.244-0.31,0.367-0.461c0.088-0.108,0.175-0.218,0.265-0.323
				c0.133-0.156,0.268-0.309,0.404-0.458c0.08-0.087,0.161-0.174,0.242-0.259c0.148-0.158,0.299-0.314,0.452-0.466
				c0.041-0.04,0.084-0.079,0.125-0.12c1.492-1.445,3.194-2.658,5.164-4.02c6.916-5.017,28.127-11.474,42.216-14.562
				C97.144,34.489,109.396,33.11,119.781,33.11 M119.781,21.11c-11.379,0-24.359,1.472-36.548,4.144
				c-11.772,2.581-36.583,9.333-46.565,16.479c-2.262,1.565-4.468,3.147-6.594,5.206c-0.014,0.013-0.027,0.026-0.041,0.039
				l-0.11,0.106c-0.02,0.019-0.039,0.038-0.058,0.057c-0.25,0.247-0.496,0.5-0.737,0.757c-0.118,0.124-0.235,0.249-0.351,0.375
				c-0.262,0.287-0.494,0.548-0.722,0.817c-0.142,0.167-0.27,0.324-0.397,0.481l-0.043,0.053c-0.214,0.262-0.422,0.521-0.627,0.792
				c-0.297,0.393-0.599,0.813-0.891,1.243c-0.171,0.253-0.317,0.482-0.462,0.713l-0.03,0.047c-0.173,0.271-0.345,0.547-0.515,0.833
				c-0.132,0.223-0.278,0.48-0.421,0.737c-0.164,0.294-0.325,0.595-0.483,0.902l-0.038,0.073c-0.118,0.228-0.235,0.458-0.349,0.695
				c-0.176,0.363-0.349,0.739-0.519,1.123c-0.076,0.165-0.146,0.318-0.215,0.478c-0.01,0.023-0.019,0.045-0.029,0.068
				c-0.225,0.531-0.446,1.088-0.675,1.703c-0.074,0.197-0.147,0.404-0.219,0.609l-0.026,0.075c-0.132,0.373-0.278,0.796-0.419,1.235
				c-0.075,0.228-0.147,0.459-0.219,0.693c-0.139,0.452-0.271,0.907-0.402,1.373l-0.021,0.072c-0.052,0.184-0.104,0.367-0.155,0.556
				c-0.193,0.722-0.364,1.4-0.522,2.075c-3.152,13.448-0.963,32.736,1.157,41.733c0.183,0.774,4.522,18.999,10.506,29.846
				c0.103,0.188,0.211,0.372,0.325,0.554c4.556,7.308,11.017,15.252,24.397,18.784c6.605,1.745,14.262,2.63,22.757,2.63
				c1.64,0,3.308-0.033,5-0.098c-1.78,2.311-2.704,5.251-2.455,8.303c0.426,5.219,4.187,9.557,9.29,10.723
				c2.021,0.461,4.084,0.695,6.132,0.695c15.367,0,26.937-12.757,31.183-24.606c0.365-1.021,0.67-2.023,0.926-3.013
				c16.231-4.858,28.713-11.021,37.17-18.36c0.56-0.484,1.133-1.011,1.795-1.644c0.146-0.141,0.289-0.281,0.435-0.423l0.078-0.077
				c0.435-0.429,0.842-0.846,1.235-1.266l0.047-0.049c0.152-0.161,0.306-0.322,0.453-0.486c0.553-0.607,1.021-1.144,1.449-1.666
				c0.026-0.031,0.053-0.062,0.077-0.094c0.435-0.53,0.867-1.09,1.358-1.759c0.15-0.208,0.271-0.38,0.395-0.554l0.031-0.045
				c0.314-0.445,0.604-0.871,0.881-1.3c0.13-0.196,0.26-0.397,0.384-0.597c0.411-0.659,0.769-1.266,1.093-1.854
				c0.03-0.058,0.062-0.113,0.092-0.172c0.013-0.02,0.021-0.037,0.031-0.059c0.285-0.528,0.566-1.082,0.857-1.688
				c0.011-0.022,0.021-0.048,0.031-0.068l0.158-0.344l0.047-0.101c0.024-0.058,0.053-0.11,0.076-0.169
				c0.195-0.438,0.385-0.87,0.562-1.307l0.007-0.017c0.088-0.211,0.174-0.421,0.255-0.633c0.25-0.646,0.474-1.259,0.667-1.854
				c0.029-0.09,0.061-0.18,0.088-0.271l0.002-0.008c0.168-0.528,0.328-1.077,0.488-1.675c0.008-0.021,0.014-0.045,0.02-0.068
				c0.047-0.177,0.092-0.354,0.137-0.531c0.123-0.496,0.229-0.949,0.324-1.404l0.013-0.06l0.093-0.44
				c0.008-0.039,0.016-0.078,0.023-0.117c0.123-0.637,0.225-1.225,0.31-1.799c0.376-2.57,0.509-5.256,0.397-7.995
				c-0.209-7.168-1.594-16.107-4.236-27.324c-2.807-11.91-5.609-20.265-9.676-28.84c-0.025-0.053-0.051-0.106-0.077-0.16
				c-5.662-11.5-13.45-16.036-24.987-19.986C136.548,22.087,129.014,21.11,119.781,21.11L119.781,21.11z"/>
		</g>
	</g>
</g>
<g id="outline_x5F_black">
	<g>
		<path d="M119.781,33.11c7.492,0,14.013,0.719,18.508,2.258c9.965,3.411,14.391,6.381,18.109,13.934
			c4.088,8.624,6.543,16.712,8.838,26.451c2.643,11.217,3.762,19.14,3.925,24.989c0.081,1.918,0.01,3.865-0.276,5.824
			c-0.062,0.423-0.137,0.845-0.219,1.268c-0.027,0.139-0.059,0.279-0.088,0.417c-0.066,0.313-0.139,0.626-0.217,0.938
			c-0.035,0.141-0.07,0.28-0.107,0.422c-0.111,0.412-0.23,0.824-0.363,1.238c-0.01,0.03-0.02,0.062-0.029,0.096
			c-0.141,0.429-0.297,0.854-0.463,1.283c-0.053,0.137-0.107,0.271-0.166,0.406c-0.129,0.317-0.266,0.635-0.406,0.95
			c-0.062,0.138-0.125,0.272-0.188,0.41c-0.203,0.422-0.414,0.844-0.646,1.266c-0.01,0.019-0.018,0.031-0.024,0.05
			c-0.235,0.431-0.493,0.859-0.763,1.291c-0.081,0.131-0.167,0.262-0.252,0.391c-0.206,0.318-0.424,0.637-0.646,0.953
			c-0.093,0.132-0.184,0.263-0.277,0.393c-0.312,0.426-0.635,0.85-0.979,1.271c-0.006,0.007-0.01,0.013-0.016,0.019
			c-0.351,0.427-0.726,0.851-1.109,1.274c-0.114,0.127-0.233,0.25-0.354,0.375c-0.295,0.313-0.602,0.627-0.916,0.938
			c-0.129,0.126-0.252,0.25-0.383,0.375c-0.438,0.42-0.893,0.842-1.371,1.255c-8.879,7.707-23.57,13.718-39.918,17.919
			c-0.241,2.75-0.596,5.646-1.606,8.471c-2.908,8.117-10.569,16.654-19.886,16.654c-1.131,0-2.288-0.128-3.462-0.396
			c0,0,5.857-2.392,8.197-11.069c0.936-3.468,0.84-6.951-0.064-10.117c-7.764,1.262-15.443,1.961-22.636,1.961
			c-7.187,0-13.888-0.699-19.693-2.232c-9.344-2.467-13.61-7.648-17.278-13.531c-4.365-7.913-8.205-22.021-9.333-26.802
			c-2.077-8.815-3.594-25.831-1.152-36.248c0.139-0.593,0.281-1.152,0.427-1.696c0.046-0.173,0.094-0.337,0.142-0.506
			c0.103-0.366,0.206-0.724,0.312-1.068c0.055-0.179,0.11-0.355,0.167-0.529c0.106-0.331,0.217-0.651,0.328-0.965
			c0.052-0.147,0.103-0.301,0.157-0.443c0.158-0.425,0.319-0.836,0.484-1.226c0.053-0.122,0.106-0.233,0.159-0.352
			c0.12-0.271,0.241-0.537,0.365-0.792c0.077-0.162,0.158-0.316,0.238-0.472c0.103-0.198,0.207-0.393,0.312-0.583
			c0.087-0.156,0.175-0.313,0.265-0.464c0.104-0.177,0.211-0.346,0.318-0.513c0.092-0.146,0.183-0.294,0.276-0.433
			c0.18-0.265,0.363-0.521,0.551-0.769c0.12-0.159,0.244-0.31,0.367-0.461c0.088-0.108,0.175-0.218,0.265-0.323
			c0.133-0.156,0.268-0.309,0.404-0.458c0.08-0.087,0.161-0.174,0.242-0.259c0.148-0.158,0.299-0.314,0.452-0.466
			c0.041-0.04,0.084-0.079,0.125-0.12c1.492-1.445,3.194-2.658,5.164-4.02c6.916-5.017,28.127-11.474,42.216-14.562
			C97.144,34.489,109.396,33.11,119.781,33.11 M119.781,27.11c-10.961,0-23.483,1.422-35.264,4.005
			c-12.711,2.787-35.966,9.458-44.394,15.523c-2.14,1.48-4.061,2.852-5.875,4.61c-0.01,0.01-0.021,0.02-0.031,0.03l-0.111,0.107
			c-0.231,0.228-0.435,0.439-0.636,0.653c-0.071,0.075-0.176,0.187-0.28,0.299c-0.199,0.217-0.382,0.425-0.563,0.638
			c-0.106,0.125-0.206,0.248-0.305,0.371l-0.047,0.059c-0.176,0.215-0.338,0.416-0.497,0.626c-0.243,0.322-0.484,0.658-0.721,1.006
			c-0.121,0.179-0.23,0.35-0.337,0.521l-0.055,0.087c-0.123,0.191-0.267,0.421-0.408,0.66c-0.112,0.188-0.229,0.395-0.344,0.601
			c-0.135,0.242-0.268,0.49-0.398,0.743l-0.038,0.074c-0.092,0.178-0.184,0.358-0.273,0.543c-0.154,0.317-0.305,0.646-0.454,0.983
			l-0.024,0.053c-0.051,0.111-0.102,0.222-0.152,0.339c-0.208,0.488-0.4,0.974-0.602,1.517c-0.043,0.114-0.102,0.28-0.159,0.445
			l-0.034,0.099c-0.124,0.348-0.253,0.726-0.379,1.115c-0.057,0.171-0.123,0.383-0.188,0.596c-0.123,0.399-0.24,0.805-0.357,1.221
			l-0.029,0.1c-0.044,0.155-0.088,0.309-0.13,0.469c-0.162,0.603-0.32,1.225-0.475,1.883c-2.763,11.788-0.988,29.897,1.155,38.991
			c0.043,0.183,4.329,18.188,9.919,28.323c0.051,0.095,0.105,0.187,0.162,0.275c4.131,6.625,9.515,13.17,20.838,16.157
			c6.105,1.612,13.247,2.433,21.225,2.433c5.446,0,11.227-0.377,17.25-1.127c-0.074,0.578-0.188,1.154-0.342,1.725
			c-1.449,5.376-4.639,7.062-4.67,7.074c-2.424,0.988-3.927,3.437-3.714,6.045c0.214,2.607,2.094,4.779,4.646,5.359
			c1.583,0.361,3.197,0.547,4.797,0.547c12.465,0,21.974-10.695,25.535-20.634c0.696-1.944,1.138-3.873,1.438-5.751
			c12.594-3.525,28.23-9.324,38.373-18.129c0.488-0.423,0.994-0.885,1.584-1.448c0.123-0.116,0.243-0.235,0.361-0.354l0.086-0.083
			c0.373-0.369,0.729-0.734,1.076-1.102l0.062-0.064c0.122-0.129,0.244-0.26,0.361-0.391c0.498-0.547,0.906-1.017,1.277-1.467
			c0.019-0.021,0.034-0.043,0.053-0.062c0.367-0.448,0.738-0.93,1.166-1.512c0.115-0.158,0.216-0.3,0.312-0.438l0.045-0.063
			c0.256-0.36,0.514-0.74,0.762-1.123c0.105-0.162,0.213-0.326,0.314-0.49c0.354-0.563,0.654-1.077,0.928-1.571
			c0.018-0.031,0.034-0.062,0.051-0.095c0.012-0.02,0.021-0.036,0.029-0.057c0.245-0.451,0.489-0.933,0.745-1.467l0.146-0.316
			l0.066-0.144c0.014-0.028,0.026-0.058,0.039-0.085c0.172-0.384,0.338-0.766,0.493-1.15l0.008-0.019
			c0.067-0.163,0.136-0.324,0.197-0.487c0.216-0.557,0.401-1.072,0.565-1.568c0.014-0.045,0.026-0.088,0.041-0.133l0.017-0.053
			c0.146-0.455,0.284-0.933,0.427-1.458c0.049-0.184,0.087-0.336,0.125-0.487c0.107-0.428,0.195-0.811,0.277-1.193l0.015-0.068
			l0.082-0.391c0.004-0.021,0.008-0.039,0.013-0.061c0.104-0.545,0.19-1.047,0.264-1.533c0.322-2.205,0.437-4.525,0.338-6.908
			c-0.192-6.763-1.527-15.319-4.081-26.156c-2.702-11.469-5.386-19.479-9.257-27.646c-0.014-0.027-0.025-0.054-0.039-0.08
			c-4.797-9.743-11.021-13.356-21.549-16.96C135.23,27.979,128.35,27.11,119.781,27.11L119.781,27.11z"/>
	</g>
</g>
</svg>
