<?xml version="1.0" encoding="utf-8"?>
<!-- Generator: Adobe Illustrator 15.0.0, SVG Export Plug-In . SVG Version: 6.00 Build 0)  -->
<!DOCTYPE svg PUBLIC "-//W3C//DTD SVG 1.1//EN" "http://www.w3.org/Graphics/SVG/1.1/DTD/svg11.dtd">
<svg version="1.1" xmlns="http://www.w3.org/2000/svg" xmlns:xlink="http://www.w3.org/1999/xlink" x="0px" y="0px" width="200px"
	 height="200px" viewBox="0 0 200 200" enable-background="new 0 0 200 200" xml:space="preserve">
<g id="icon">
	<g id="Layer_2">
	</g>
	<g>
		<path fill="#FFFFFF" d="M65.288,45.681c-0.094-0.007-0.188-0.011-0.28-0.011c-1.549,0-2.793,0.985-2.837,2.295
			c-0.048,1.386,1.27,2.612,2.944,2.735c0.093,0.007,0.185,0.01,0.277,0.01c1.547,0,2.794-0.985,2.839-2.293
			C68.279,47.028,66.962,45.804,65.288,45.681z"/>
		
			<linearGradient id="SVGID_1_" gradientUnits="userSpaceOnUse" x1="727.5781" y1="26.2954" x2="727.5781" y2="-76.5928" gradientTransform="matrix(0.8609 -0.4868 -0.6691 -0.7832 -531.7404 444.6794)">
			<stop  offset="0" style="stop-color:#FFFFFF"/>
			<stop  offset="1" style="stop-color:#A8A8A8"/>
		</linearGradient>
		<path fill="url(#SVGID_1_)" d="M184.582,97.521c1.482,1.734,1.314,2.83-0.604,3.92L77.596,163.814
			c-1.913,1.086-3.586,0.812-5.062-0.922L15.33,95.929c-1.482-1.731-1.088-2.957,0.826-4.044l104.256-55.751
			c1.926-1.092,3.646-0.636,5.131,1.095L184.582,97.521z"/>
		
			<linearGradient id="SVGID_2_" gradientUnits="userSpaceOnUse" x1="149.8877" y1="-34.0396" x2="156.8876" y2="-142.0396" gradientTransform="matrix(1 0 0 -1 -50 61)">
			<stop  offset="0" style="stop-color:#FFFFFF"/>
			<stop  offset="1" style="stop-color:#CECECE"/>
		</linearGradient>
		<path fill="url(#SVGID_2_)" d="M184.918,97.407c1.486,1.733,1.316,2.832-0.616,3.922L77.365,164.021
			c-1.926,1.09-3.602,0.822-5.087-0.908L14.989,96.046c-1.479-1.732-1.085-2.959,0.843-4.048l104.816-56.081
			c1.933-1.09,3.666-0.635,5.146,1.097L184.918,97.407z"/>
		<path d="M65.288,45.681c-0.094-0.007-0.188-0.011-0.28-0.011c-1.549,0-2.793,0.985-2.837,2.295
			c-0.048,1.386,1.27,2.612,2.944,2.735c0.093,0.007,0.185,0.01,0.277,0.01c1.547,0,2.794-0.985,2.839-2.293
			C68.279,47.028,66.962,45.804,65.288,45.681z"/>
		
			<radialGradient id="SVGID_3_" cx="122.0156" cy="-51.6465" r="27.3221" gradientTransform="matrix(1 0 0 -1 -50 61)" gradientUnits="userSpaceOnUse">
			<stop  offset="0.5" style="stop-color:#52B5FF"/>
			<stop  offset="0.5706" style="stop-color:#4EAFFA"/>
			<stop  offset="0.6678" style="stop-color:#439DEC"/>
			<stop  offset="0.7805" style="stop-color:#3080D4"/>
			<stop  offset="0.9039" style="stop-color:#1758B4"/>
			<stop  offset="1" style="stop-color:#003396"/>
		</radialGradient>
		<path fill="url(#SVGID_3_)" d="M99.651,115.697c2.885,3.313,2.083,7.804-1.78,10.033l-18.719,10.793
			c-3.863,2.229-9.33,1.354-12.212-1.961l-22.642-25.629c-2.83-3.347-1.934-7.787,2.008-9.924l19.069-10.347
			c3.938-2.129,9.428-1.152,12.256,2.192L99.651,115.697z"/>
		<path opacity="0.23" fill="none" stroke="#000000" stroke-width="2" stroke-miterlimit="10" enable-background="new    " d="
			M99.651,115.697c2.885,3.313,2.083,7.804-1.78,10.033l-18.719,10.793c-3.863,2.229-9.33,1.354-12.212-1.961l-22.642-25.629
			c-2.83-3.347-1.934-7.787,2.008-9.924l19.069-10.347c3.938-2.129,9.428-1.152,12.256,2.192L99.651,115.697z"/>
		
			<linearGradient id="SVGID_4_" gradientUnits="userSpaceOnUse" x1="1222.7607" y1="-1542.6128" x2="1177.9498" y2="-1486.5184" gradientTransform="matrix(1.0153 -0.0044 0.1433 -0.9856 -884.2034 -1391.5337)">
			<stop  offset="0" style="stop-color:#FFFFFF"/>
			<stop  offset="1" style="stop-color:#000000"/>
		</linearGradient>
		<polygon opacity="0.65" fill="url(#SVGID_4_)" enable-background="new    " points="109.551,100.895 113.133,96.312 
			115.748,96.015 119.068,94.353 122.738,92.009 125.811,91.577 118.865,96.626 114.67,98.394 114.295,99.407 		"/>
		
			<linearGradient id="SVGID_5_" gradientUnits="userSpaceOnUse" x1="1240.8662" y1="-1528.7764" x2="1198.9855" y2="-1476.35" gradientTransform="matrix(1.0153 -0.0044 0.1433 -0.9856 -884.2034 -1391.5337)">
			<stop  offset="0" style="stop-color:#FFFFFF"/>
			<stop  offset="1" style="stop-color:#000000"/>
		</linearGradient>
		<polygon opacity="0.65" fill="url(#SVGID_5_)" enable-background="new    " points="130.912,88.553 132.497,86.131 
			134.723,85.819 136.225,84.006 143.087,81.562 147.393,79.74 140.525,84.283 138.883,84.892 136.809,86.413 		"/>
		
			<linearGradient id="SVGID_6_" gradientUnits="userSpaceOnUse" x1="950.6016" y1="-1183.5381" x2="886.7559" y2="-1103.6162" gradientTransform="matrix(0.9511 -0.1072 0.0956 -1.0621 -664.2908 -1037.2916)">
			<stop  offset="0" style="stop-color:#FFFFFF"/>
			<stop  offset="1" style="stop-color:#000000"/>
		</linearGradient>
		<polygon opacity="0.65" fill="url(#SVGID_6_)" enable-background="new    " points="94.565,79.812 97.705,83.317 98.885,79.81 
			102.859,78.885 104.044,75.374 100.848,77.183 		"/>
		
			<linearGradient id="SVGID_7_" gradientUnits="userSpaceOnUse" x1="1236.3184" y1="-1528.0474" x2="1167.5968" y2="-1442.0217" gradientTransform="matrix(1.0153 -0.0044 0.1433 -0.9856 -884.2034 -1391.5337)">
			<stop  offset="0" style="stop-color:#FFFFFF"/>
			<stop  offset="1" style="stop-color:#000000"/>
		</linearGradient>
		<polygon opacity="0.65" fill="url(#SVGID_7_)" enable-background="new    " points="107.182,74.047 110.631,74.149 
			113.423,70.971 116.344,70.059 121.997,66.427 126.118,66.853 126.98,64.138 132.77,62.759 138.547,58.21 129.768,60.956 		"/>
		
			<linearGradient id="SVGID_8_" gradientUnits="userSpaceOnUse" x1="959.5283" y1="-1193.2104" x2="895.8772" y2="-1113.5321" gradientTransform="matrix(0.9511 -0.1072 0.0956 -1.0621 -664.2908 -1037.2916)">
			<stop  offset="0" style="stop-color:#FFFFFF"/>
			<stop  offset="1" style="stop-color:#000000"/>
		</linearGradient>
		<polygon opacity="0.65" fill="url(#SVGID_8_)" enable-background="new    " points="102.223,89.253 105.35,92.757 106.54,89.24 
			110.506,88.313 111.678,84.802 108.5,86.616 		"/>
		
			<linearGradient id="SVGID_9_" gradientUnits="userSpaceOnUse" x1="1244.5996" y1="-1536.8882" x2="1177.0341" y2="-1452.3097" gradientTransform="matrix(1.0153 -0.0044 0.1433 -0.9856 -884.2034 -1391.5337)">
			<stop  offset="0" style="stop-color:#FFFFFF"/>
			<stop  offset="1" style="stop-color:#000000"/>
		</linearGradient>
		<polygon opacity="0.65" fill="url(#SVGID_9_)" enable-background="new    " points="114.835,83.485 118.284,83.585 121.02,80.337 
			123.943,79.424 129.596,75.778 133.727,76.21 134.59,73.491 140.372,72.118 146.154,67.573 137.369,70.331 		"/>
		<path opacity="0.49" fill="#FFFFFF" enable-background="new    " d="M74.949,52.442c-1.092,0.594-2.167,1.179-2.79,1.518
			c-0.002,0.008-0.001,0.016-0.004,0.022c0,0,1.409-0.771,2.952-1.608C75.059,52.4,74.998,52.415,74.949,52.442z"/>
		<path fill="#FFFFFF" d="M81.096,52.647c-1.061,0.57-2.102,1.127-2.724,1.463c-0.01,0.043-0.017,0.09-0.027,0.132
			c0,0,3.541-2.009,5.204-2.899c0.121-0.064,0.261-0.109,0.395-0.16C83.609,51.26,81.381,52.495,81.096,52.647z"/>
		
			<linearGradient id="SVGID_10_" gradientUnits="userSpaceOnUse" x1="1206.3506" y1="5.4746" x2="1225.2998" y2="-29.8444" gradientTransform="matrix(0.9165 0.0683 0.0376 -1.0883 -1042.7905 -47.0215)">
			<stop  offset="0" style="stop-color:#FFFFFF"/>
			<stop  offset="0.6871" style="stop-color:#ADADAD"/>
			<stop  offset="0.7592" style="stop-color:#A8A8A8"/>
			<stop  offset="0.8524" style="stop-color:#989898"/>
			<stop  offset="0.9396" style="stop-color:#828282"/>
			<stop  offset="1" style="stop-color:#CACACA"/>
		</linearGradient>
		<path fill="url(#SVGID_10_)" d="M91.357,52.065c-1.637-2.129-4.82-2.597-6.787-1.545c-0.89,0.479-3.681,2.084-4.366,2.453
			c-2.988,1.631-2.647-2.564-2.627-3.209c0.198-5.674-5.196-10.689-12.044-11.2c-6.848-0.511-12.562,3.678-12.759,9.354
			c-0.159,4.651,3.438,8.86,8.513,10.506c0.755,0.243,6.615,1.569,2.461,3.405c-0.743,0.4-3.01,1.361-3.971,1.879
			c-2.291,1.23-3.52,4.154-1.91,6.427c3.648,5.152,5.402,8.128,5.402,8.128l33.645-18.754
			C96.914,59.509,95.021,56.836,91.357,52.065z M62.17,47.965c0.047-1.388,1.441-2.411,3.117-2.284
			c1.675,0.123,2.991,1.348,2.943,2.736c-0.047,1.386-1.443,2.409-3.116,2.283C63.439,50.577,62.122,49.351,62.17,47.965z"/>
		<path d="M99.139,116.248c-0.579-0.17-1.935-1.055-2.631-1.13c-3.005-0.316-10.514,2.391-13.245,1.61
			c-1.367-0.392-4.065-2.496-4.267-3.711c-0.151-0.914-0.463-2.14-0.924-3.49c-0.441-1.293-0.102-2.829-0.803-4.195
			c-0.618-1.204-1.25-0.508-1.428-0.82c-0.946-1.676-2.086-3.229-3.396-4.356c-3.377-2.909-8.07-4.229-11.758-0.978
			s-1.342,8.319,1.961,11.543c0.242,0.234-0.963,0.262-0.193,1.115c1.299,1.439,3.806,1.928,5.064,2.743
			c1.355,0.882,2.517,1.517,3.329,2.037c1.065,0.681,2.983,3.839,2.034,5.213c-1.99,2.877-2.597,4.147-4.896,6.522
			c-1.77,1.825-1.448,3.701-1.448,3.701l0.301,1.182c5.97,7.648,13.026,2.197,21.067-1.936
			C95.204,127.549,104.896,121.425,99.139,116.248z"/>
	</g>
</g>
<g id="outline_x5F_white">
	<path fill="#FFFFFF" d="M194.025,89.597c-0.172-0.2-0.35-0.395-0.533-0.583l-58.909-60.176c-3.207-3.558-7.417-5.51-11.903-5.51
		c-2.693,0-5.31,0.691-7.781,2.056L90.612,38.378c-1.211-0.257-2.456-0.396-3.716-0.396c-0.225,0-0.449,0.004-0.672,0.013
		c-4.005-6.306-11.242-10.757-19.797-11.396c-0.671-0.051-1.35-0.077-2.019-0.077c-12.84-0.001-23.217,9.214-23.626,20.979
		c-0.188,5.466,1.753,10.625,5.246,14.731L10.171,81.417c-0.081,0.044-0.161,0.088-0.241,0.133
		c-5.629,3.18-7.198,7.773-7.632,10.229c-0.431,2.44-0.541,7.252,3.566,12.061l57.29,67.068c3.194,3.724,7.465,5.765,12.04,5.765
		c2.774,0,5.491-0.741,8.077-2.202c0.055-0.031,0.108-0.062,0.163-0.095l106.869-62.653c5.182-2.966,6.887-7.072,7.402-10.006
		C198.227,98.754,198.012,94.245,194.025,89.597z M191.796,100.675c-0.428,2.427-1.94,4.396-4.5,5.853L80.399,169.198l-0.04,0.024
		l-0.041,0.021c-1.674,0.947-3.397,1.427-5.124,1.427c-1.979,0-4.881-0.634-7.479-3.661L10.426,99.942
		c-2.382-2.789-2.522-5.411-2.22-7.12c0.305-1.729,1.363-4.179,4.674-6.049l0.06-0.033l0.061-0.032l38.283-20.483
		c0.038-0.224,0.069-0.447,0.122-0.67c0.383-1.627,1.142-3.131,2.198-4.407c-4.404-3.274-7.006-8.176-6.826-13.438
		c0.296-8.517,8.04-15.187,17.629-15.187c0.521,0,1.05,0.02,1.571,0.06c8.126,0.606,14.689,5.595,16.848,12.148
		c1.261-0.492,2.646-0.749,4.068-0.749c1.524,0,3.008,0.305,4.382,0.846l26.494-14.175c1.582-0.878,3.233-1.324,4.91-1.324
		c1.985,0,4.887,0.632,7.523,3.61l59.001,60.271l0.139,0.142l0.13,0.15C191.445,95.804,192.229,98.218,191.796,100.675z"/>
</g>
<g id="outline_x5F_black">
	<path d="M189.473,93.501l-0.13-0.15l-0.139-0.142l-59.001-60.271c-2.637-2.978-5.538-3.61-7.523-3.61
		c-1.677,0-3.328,0.446-4.91,1.324L91.276,44.827c-1.374-0.541-2.857-0.846-4.382-0.846c-1.422,0-2.807,0.257-4.068,0.749
		c-2.159-6.553-8.722-11.542-16.848-12.148c-0.521-0.04-1.05-0.06-1.571-0.06c-9.589,0-17.333,6.67-17.629,15.187
		c-0.18,5.262,2.422,10.164,6.826,13.438c-1.056,1.276-1.815,2.78-2.198,4.407c-0.052,0.223-0.084,0.447-0.122,0.67L13.001,86.708
		L12.94,86.74l-0.06,0.033c-3.311,1.87-4.369,4.321-4.674,6.049c-0.302,1.709-0.162,4.331,2.22,7.12l57.289,67.068
		c2.598,3.027,5.5,3.661,7.479,3.661c1.727,0,3.45-0.479,5.124-1.427l0.041-0.021l0.04-0.024l106.897-62.671
		c2.56-1.457,4.072-3.426,4.5-5.853C192.229,98.218,191.445,95.804,189.473,93.501z M184.302,101.33L77.365,164.021
		c-0.22,0.125-0.436,0.227-0.649,0.315c-0.064,0.026-0.127,0.047-0.19,0.07c-0.15,0.056-0.3,0.103-0.447,0.141
		c-0.07,0.018-0.141,0.034-0.21,0.048c-0.147,0.028-0.293,0.047-0.438,0.057c-0.059,0.004-0.118,0.013-0.176,0.014
		c-0.021,0-0.041,0.005-0.061,0.005c-0.054,0-0.106-0.018-0.16-0.02c-0.172-0.009-0.344-0.027-0.512-0.064
		c-0.083-0.019-0.166-0.045-0.248-0.07c-0.154-0.047-0.306-0.106-0.456-0.178c-0.081-0.039-0.161-0.078-0.24-0.124
		c-0.159-0.091-0.315-0.2-0.47-0.319c-0.063-0.05-0.128-0.092-0.191-0.146c-0.217-0.186-0.43-0.393-0.639-0.636L14.989,96.046
		c-1.479-1.732-1.085-2.959,0.843-4.048l39.431-21.097l3.104,3.391c-0.371,1.065-0.178,2.308,0.678,3.382l2.396,2.424
		c1.482,1.856,4.267,2.457,6.216,1.346l30.105-17.106c1.95-1.109,2.328-3.518,0.846-5.372l-1.274-1.456
		c-0.735-0.924-1.809-1.545-2.95-1.801l-1.229-1.285c2.482,3.283,3.76,5.085,3.76,5.085L63.269,78.263c0,0-1.754-2.976-5.402-8.128
		c-1.037-1.464-0.893-3.196-0.049-4.573c0.005-0.008,0.01-0.015,0.015-0.023c0.107-0.172,0.225-0.338,0.353-0.499
		c0.013-0.017,0.025-0.034,0.039-0.05c0.134-0.163,0.276-0.318,0.43-0.464c0.02-0.02,0.042-0.037,0.062-0.056
		c0.13-0.12,0.266-0.232,0.408-0.339c0.043-0.032,0.085-0.064,0.129-0.095c0.168-0.118,0.341-0.23,0.523-0.328
		c0.961-0.518,3.228-1.479,3.971-1.879c0.136-0.06,0.26-0.12,0.375-0.179c0.04-0.02,0.072-0.04,0.109-0.06
		c0.071-0.039,0.142-0.077,0.204-0.115c0.039-0.023,0.072-0.047,0.107-0.07c0.052-0.034,0.104-0.069,0.15-0.103
		c0.032-0.024,0.06-0.047,0.089-0.071c0.04-0.033,0.079-0.065,0.113-0.097c0.025-0.023,0.046-0.047,0.068-0.07
		c0.03-0.032,0.059-0.064,0.083-0.096c0.018-0.022,0.033-0.045,0.048-0.067c0.021-0.032,0.039-0.063,0.054-0.095
		c0.011-0.021,0.021-0.043,0.029-0.064c0.012-0.032,0.021-0.063,0.027-0.094c0.004-0.02,0.009-0.04,0.011-0.06
		c0.003-0.033,0.003-0.065,0.001-0.098c-0.001-0.017-0.001-0.035-0.003-0.052c-0.005-0.036-0.015-0.071-0.027-0.106
		c-0.004-0.013-0.007-0.026-0.012-0.039c-0.017-0.043-0.04-0.086-0.065-0.128c-0.003-0.004-0.004-0.009-0.007-0.013
		c-0.124-0.192-0.337-0.372-0.602-0.537c-0.004-0.002-0.008-0.005-0.012-0.007c-0.063-0.039-0.128-0.077-0.197-0.114
		c-0.004-0.002-0.008-0.004-0.012-0.006c-0.069-0.038-0.141-0.075-0.214-0.11c-0.002-0.001-0.004-0.002-0.006-0.003
		c-0.638-0.312-1.413-0.558-1.995-0.728c-0.006-0.002-0.012-0.003-0.018-0.005c0,0-0.001,0-0.002,0
		c-0.109-0.032-0.209-0.06-0.302-0.086c-0.099-0.028-0.188-0.053-0.264-0.074c-0.008-0.002-0.015-0.004-0.022-0.006
		c-0.07-0.02-0.129-0.037-0.17-0.05c-5.075-1.646-8.672-5.855-8.513-10.506c0.003-0.095,0.021-0.187,0.027-0.281
		c0.017-0.245,0.033-0.491,0.07-0.73l0,0c0.042-0.272,0.106-0.538,0.173-0.802c0.014-0.06,0.024-0.121,0.04-0.18c0,0,0,0,0-0.001
		c0.13-0.467,0.309-0.915,0.515-1.351c0,0,0.001-0.001,0.001-0.002c0.064-0.135,0.129-0.269,0.198-0.401
		c0.086-0.161,0.181-0.316,0.277-0.472l0,0c0.009-0.015,0.019-0.028,0.028-0.043c0.167-0.267,0.347-0.525,0.542-0.775
		c0,0,0-0.001,0.001-0.001c0.087-0.112,0.178-0.223,0.27-0.332c0.142-0.167,0.291-0.328,0.445-0.485
		c0.109-0.112,0.218-0.224,0.333-0.331c0.001,0,0.001-0.001,0.002-0.002c0.115-0.107,0.233-0.21,0.354-0.312
		c0.001,0,0.002-0.001,0.003-0.002c0.141-0.119,0.283-0.236,0.43-0.349c0,0,0.001-0.001,0.002-0.001
		c0.155-0.119,0.315-0.231,0.479-0.343c0.126-0.086,0.252-0.172,0.383-0.254c0,0,0.001-0.001,0.002-0.001
		c0.138-0.086,0.278-0.17,0.421-0.252c0.001,0,0.001-0.001,0.002-0.001c0.166-0.094,0.335-0.184,0.508-0.271
		c0.001,0,0.001-0.001,0.002-0.001c0.47-0.237,0.959-0.45,1.471-0.631c0.001,0,0.002,0,0.003-0.001
		c0.15-0.053,0.305-0.1,0.458-0.146c0.204-0.064,0.408-0.129,0.617-0.184c0.001,0,0.001,0,0.002,0
		c0.201-0.052,0.407-0.095,0.612-0.139c0.002,0,0.005-0.001,0.007-0.001c0.209-0.044,0.42-0.086,0.635-0.121
		c0.172-0.026,0.345-0.05,0.52-0.072c0.004,0,0.009-0.001,0.014-0.001c0.258-0.032,0.518-0.057,0.781-0.075
		c0.141-0.007,0.28-0.016,0.421-0.022c0.004,0,0.008,0,0.012,0c0.167-0.006,0.332-0.019,0.5-0.02c0.023,0,0.045-0.003,0.068-0.003
		c0.372,0,0.748,0.014,1.127,0.042c6.848,0.511,12.242,5.526,12.044,11.2c-0.001,0.042-0.004,0.105-0.007,0.175
		c-0.002,0.062-0.005,0.133-0.008,0.213c0,0.006,0,0.013,0,0.02c-0.002,0.074-0.004,0.154-0.005,0.24c0,0.045,0,0.095,0,0.143
		c0,0.056,0,0.112,0.001,0.171c0.001,0.054,0.004,0.11,0.006,0.166c0,0.011,0.001,0.021,0.001,0.032
		c0.002,0.048,0.003,0.095,0.007,0.144c0.003,0.057,0.009,0.115,0.014,0.172c0.005,0.063,0.011,0.127,0.019,0.191
		c0.007,0.061,0.016,0.121,0.025,0.181c0.009,0.06,0.018,0.119,0.029,0.178c0.011,0.06,0.024,0.119,0.038,0.178
		c0.028,0.124,0.063,0.244,0.104,0.36c0.006,0.017,0.013,0.034,0.019,0.051c0.036,0.097,0.077,0.188,0.124,0.275
		c0.014,0.026,0.029,0.051,0.043,0.077c0.043,0.073,0.092,0.14,0.144,0.202c0.023,0.028,0.047,0.055,0.072,0.08
		c0.051,0.052,0.108,0.097,0.168,0.138c0.032,0.022,0.064,0.045,0.1,0.064c0.061,0.033,0.13,0.055,0.2,0.076
		c0.042,0.013,0.083,0.027,0.128,0.035c0.075,0.013,0.158,0.011,0.242,0.01c0.051-0.001,0.098,0.003,0.152-0.003
		c0.096-0.011,0.203-0.041,0.31-0.071c0.053-0.015,0.1-0.021,0.156-0.041c0.168-0.06,0.348-0.139,0.544-0.246
		c0.685-0.369,3.476-1.974,4.366-2.453c0.217-0.116,0.453-0.207,0.695-0.285c0.075-0.024,0.151-0.045,0.229-0.066
		c0.178-0.047,0.361-0.084,0.548-0.113c0.091-0.014,0.18-0.032,0.273-0.042c0.215-0.021,0.435-0.028,0.655-0.023
		c0.179,0.002,0.356,0.019,0.537,0.037c0.049,0.005,0.097,0.011,0.146,0.018c1.259,0.161,2.501,0.723,3.406,1.702c0,0,0,0,0,0
		l0.013-0.007l5.387-2.882l24.19-12.942c0.216-0.122,0.429-0.218,0.64-0.301c0.062-0.025,0.123-0.045,0.185-0.066
		c0.16-0.056,0.318-0.1,0.476-0.134c0.055-0.011,0.109-0.026,0.163-0.035c0.191-0.032,0.381-0.053,0.568-0.053
		c0.008,0,0.016,0.003,0.023,0.003c0.257,0.002,0.508,0.037,0.755,0.099c0.069,0.017,0.138,0.047,0.206,0.069
		c0.179,0.057,0.354,0.125,0.527,0.212c0.083,0.042,0.165,0.088,0.247,0.137c0.163,0.097,0.322,0.208,0.48,0.333
		c0.073,0.058,0.147,0.111,0.221,0.175c0.214,0.187,0.423,0.394,0.627,0.63c0.01,0.011,0.02,0.018,0.029,0.029l29.875,30.518
		l29.247,29.875c0.743,0.866,1.072,1.575,0.974,2.202C185.794,100.237,185.269,100.785,184.302,101.33z"/>
</g>
</svg>
