<?xml version="1.0" encoding="utf-8"?>
<!-- Generator: Adobe Illustrator 15.0.0, SVG Export Plug-In . SVG Version: 6.00 Build 0)  -->
<!DOCTYPE svg PUBLIC "-//W3C//DTD SVG 1.1//EN" "http://www.w3.org/Graphics/SVG/1.1/DTD/svg11.dtd">
<svg version="1.1" xmlns="http://www.w3.org/2000/svg" xmlns:xlink="http://www.w3.org/1999/xlink" x="0px" y="0px" width="200px"
	 height="200px" viewBox="0 0 200 200" enable-background="new 0 0 200 200" xml:space="preserve">
<g id="icon">
	<g id="Layer_2">
	</g>
	<g id="Layer_1_1_">
		<g>
			
				<radialGradient id="SVGID_1_" cx="115.7842" cy="-1304.1304" r="79.3566" gradientTransform="matrix(0.7071 0.7071 -0.7071 0.7071 -958.4326 967.7802)" gradientUnits="userSpaceOnUse">
				<stop  offset="0" style="stop-color:#FFFFFF"/>
				<stop  offset="0.4357" style="stop-color:#D3DBE1"/>
				<stop  offset="0.7954" style="stop-color:#B6C2CD"/>
				<stop  offset="1" style="stop-color:#ABB9C6"/>
			</radialGradient>
			<path fill="url(#SVGID_1_)" d="M142.902,56.458c-30.071-30.071-73.479-35.414-96.958-11.936
				c-23.479,23.479-18.135,66.886,11.938,96.958c30.068,30.067,73.478,35.414,96.954,11.934
				C178.314,129.936,172.973,86.528,142.902,56.458z M86.434,112.93C75.705,102.2,73.8,86.711,82.175,78.336
				c8.377-8.376,23.864-6.469,34.593,4.26c10.728,10.724,12.633,26.212,4.256,34.587C112.646,125.561,97.159,123.654,86.434,112.93z
				"/>
			
				<radialGradient id="SVGID_2_" cx="157.834" cy="-1314.4058" r="31.207" gradientTransform="matrix(0.7071 0.7071 -0.7071 0.7071 -958.4326 967.7802)" gradientUnits="userSpaceOnUse">
				<stop  offset="0" style="stop-color:#FFFFFF"/>
				<stop  offset="1" style="stop-color:#FFFFFF;stop-opacity:0"/>
			</radialGradient>
			<path fill="url(#SVGID_2_)" d="M142.902,56.458c-30.071-30.071-73.479-35.414-96.958-11.936
				c-23.479,23.479-18.135,66.886,11.938,96.958c30.068,30.067,73.478,35.414,96.954,11.934
				C178.314,129.936,172.973,86.528,142.902,56.458z M86.434,112.93C75.705,102.2,73.8,86.711,82.175,78.336
				c8.377-8.376,23.864-6.469,34.593,4.26c10.728,10.724,12.633,26.212,4.256,34.587C112.646,125.561,97.159,123.654,86.434,112.93z
				"/>
			<path fill="#4E4E4E" d="M57.345,142.02C27.387,112.059,21.981,68.871,45.15,45.331c-0.087,0.084-0.176,0.162-0.262,0.248
				c-23.478,23.477-18.135,66.884,11.939,96.957c30.067,30.069,73.478,35.413,96.952,11.935c0.087-0.085,0.166-0.174,0.248-0.261
				C130.488,177.379,87.298,171.973,57.345,142.02z"/>
			
				<radialGradient id="SVGID_3_" cx="171.6328" cy="-1417.3833" r="68.8367" gradientTransform="matrix(0.9057 0.9057 -0.7071 0.7071 -1041.6719 884.5403)" gradientUnits="userSpaceOnUse">
				<stop  offset="0" style="stop-color:#FFFFFF"/>
				<stop  offset="0.0103" style="stop-color:#FDFDFE"/>
				<stop  offset="0.1725" style="stop-color:#DFE5E9"/>
				<stop  offset="0.3445" style="stop-color:#C8D1DA"/>
				<stop  offset="0.5286" style="stop-color:#B8C4CF"/>
				<stop  offset="0.7334" style="stop-color:#AEBCC8"/>
				<stop  offset="1" style="stop-color:#ABB9C6"/>
			</radialGradient>
			<path fill="url(#SVGID_3_)" d="M142.902,56.458C120.168,33.723,89.815,25.134,66.21,32.436L89.169,74.12
				c8.457-2.743,19.41,0.287,27.599,8.477c10.728,10.724,12.633,26.213,4.256,34.588c-2.172,2.172-4.832,3.642-7.754,4.457
				l20.539,44.097c7.924-2.317,15.108-6.403,21.027-12.323C178.314,129.936,172.973,86.528,142.902,56.458z"/>
			<defs>
				<filter id="Adobe_OpacityMaskFilter" filterUnits="userSpaceOnUse" x="68.626" y="29.905" width="100.844" height="133.293">
					<feColorMatrix  type="matrix" values="1 0 0 0 0  0 1 0 0 0  0 0 1 0 0  0 0 0 1 0"/>
				</filter>
			</defs>
			<mask maskUnits="userSpaceOnUse" x="68.626" y="29.905" width="100.844" height="133.293" id="SVGID_4_">
				<g filter="url(#Adobe_OpacityMaskFilter)">
					
						<linearGradient id="SVGID_5_" gradientUnits="userSpaceOnUse" x1="162.2832" y1="-1417.0771" x2="141.6935" y2="-1377.4806" gradientTransform="matrix(0.7071 0.7071 -0.7071 0.7071 -958.4326 967.7802)">
						<stop  offset="0" style="stop-color:#FFFFFF"/>
						<stop  offset="1" style="stop-color:#000000"/>
					</linearGradient>
					<path fill="url(#SVGID_5_)" d="M92.026,74.472c7.703-0.82,16.607,2.404,23.533,9.332c10.729,10.725,12.631,26.213,4.256,34.588
						c-0.797,0.795-1.674,1.473-2.59,2.084l23.398,42.722c5.24-2.375,10.044-5.615,14.212-9.783
						c23.479-23.479,18.136-66.886-11.933-96.956c-21.965-21.965-51.045-30.72-74.276-24.703L92.026,74.472z"/>
				</g>
			</mask>
			
				<linearGradient id="SVGID_6_" gradientUnits="userSpaceOnUse" x1="97.5698" y1="-1408.9248" x2="193.9267" y2="-1376.5604" gradientTransform="matrix(0.7071 0.7071 -0.7071 0.7071 -958.4326 967.7802)">
				<stop  offset="0" style="stop-color:#000000"/>
				<stop  offset="0.0409" style="stop-color:#010202"/>
				<stop  offset="0.0557" style="stop-color:#040909"/>
				<stop  offset="0.0662" style="stop-color:#0B1414"/>
				<stop  offset="0.0747" style="stop-color:#132525"/>
				<stop  offset="0.082" style="stop-color:#1F3B3B"/>
				<stop  offset="0.0885" style="stop-color:#2C5757"/>
				<stop  offset="0.0943" style="stop-color:#3D7777"/>
				<stop  offset="0.0997" style="stop-color:#519D9D"/>
				<stop  offset="0.1047" style="stop-color:#67C8C8"/>
				<stop  offset="0.1091" style="stop-color:#7EF6F6"/>
				<stop  offset="0.1099" style="stop-color:#83FFFF"/>
				<stop  offset="0.1105" style="stop-color:#7EF6F7"/>
				<stop  offset="0.1141" style="stop-color:#67C8CD"/>
				<stop  offset="0.1181" style="stop-color:#519DA6"/>
				<stop  offset="0.1224" style="stop-color:#3D7784"/>
				<stop  offset="0.127" style="stop-color:#2C5767"/>
				<stop  offset="0.1322" style="stop-color:#1F3B4F"/>
				<stop  offset="0.138" style="stop-color:#13253B"/>
				<stop  offset="0.1448" style="stop-color:#0B142B"/>
				<stop  offset="0.1532" style="stop-color:#040921"/>
				<stop  offset="0.165" style="stop-color:#01021B"/>
				<stop  offset="0.1978" style="stop-color:#000019"/>
				<stop  offset="0.2802" style="stop-color:#000012"/>
				<stop  offset="0.2888" style="stop-color:#030416"/>
				<stop  offset="0.2976" style="stop-color:#0E0E23"/>
				<stop  offset="0.3066" style="stop-color:#1F2037"/>
				<stop  offset="0.3157" style="stop-color:#373954"/>
				<stop  offset="0.3249" style="stop-color:#56597A"/>
				<stop  offset="0.334" style="stop-color:#7B80A7"/>
				<stop  offset="0.3407" style="stop-color:#9AA0CD"/>
				<stop  offset="0.3589" style="stop-color:#767BA4"/>
				<stop  offset="0.3835" style="stop-color:#4C4F74"/>
				<stop  offset="0.4068" style="stop-color:#2B2D4E"/>
				<stop  offset="0.4283" style="stop-color:#141432"/>
				<stop  offset="0.4472" style="stop-color:#050522"/>
				<stop  offset="0.4615" style="stop-color:#00001C"/>
				<stop  offset="0.5055" style="stop-color:#707380"/>
				<stop  offset="1" style="stop-color:#9D9DA8"/>
			</linearGradient>
			<path opacity="0.55" mask="url(#SVGID_4_)" fill="url(#SVGID_6_)" enable-background="new    " d="M93.235,73.265
				c7.703-0.822,16.605,2.402,23.531,9.331c10.729,10.724,12.633,26.212,4.256,34.587c-0.795,0.797-1.672,1.474-2.588,2.086
				l22.189,43.929c5.24-2.375,10.044-5.615,14.212-9.783c23.479-23.479,18.136-66.886-11.933-96.956
				c-21.965-21.965-51.045-30.72-74.276-24.703L93.235,73.265z"/>
			
				<linearGradient id="SVGID_7_" gradientUnits="userSpaceOnUse" x1="69.7998" y1="-1354.3506" x2="97.7501" y2="-1385.9788" gradientTransform="matrix(0.7071 0.7071 -0.7071 0.7071 -958.4326 967.7802)">
				<stop  offset="0" style="stop-color:#A9EDD7"/>
				<stop  offset="0.025" style="stop-color:#B8E6D6"/>
				<stop  offset="0.0876" style="stop-color:#D8D7D3"/>
				<stop  offset="0.1401" style="stop-color:#ECCDD1"/>
				<stop  offset="0.1758" style="stop-color:#F3CAD0"/>
				<stop  offset="0.3297" style="stop-color:#AE95FF"/>
				<stop  offset="0.6374" style="stop-color:#FF9DDC"/>
				<stop  offset="0.6983" style="stop-color:#FD9EDC"/>
				<stop  offset="0.7332" style="stop-color:#F4A2DC"/>
				<stop  offset="0.7616" style="stop-color:#E6A9DD"/>
				<stop  offset="0.7864" style="stop-color:#D3B3DE"/>
				<stop  offset="0.8087" style="stop-color:#B9BFDF"/>
				<stop  offset="0.8132" style="stop-color:#B3C2DF"/>
				<stop  offset="0.9011" style="stop-color:#81CEFF"/>
			</linearGradient>
			<path fill="url(#SVGID_7_)" d="M45.944,44.522c-2.048,2.049-3.864,4.258-5.478,6.59l39.687,29.719
				c0.599-0.879,1.252-1.726,2.021-2.495c1.346-1.347,2.89-2.396,4.551-3.22L58.384,35.564
				C53.828,37.849,49.639,40.827,45.944,44.522z"/>
			
				<linearGradient id="SVGID_8_" gradientUnits="userSpaceOnUse" x1="65.959" y1="-1364.8628" x2="115.9777" y2="-1401.6416" gradientTransform="matrix(0.7071 0.7071 -0.7071 0.7071 -958.4326 967.7802)">
				<stop  offset="0" style="stop-color:#A9EDD7"/>
				<stop  offset="0.025" style="stop-color:#B8E6D6"/>
				<stop  offset="0.0876" style="stop-color:#D8D7D3"/>
				<stop  offset="0.1401" style="stop-color:#ECCDD1"/>
				<stop  offset="0.1758" style="stop-color:#F3CAD0"/>
				<stop  offset="0.3297" style="stop-color:#AE95FF"/>
				<stop  offset="0.6374" style="stop-color:#FF9DDC"/>
				<stop  offset="0.6983" style="stop-color:#FD9EDC"/>
				<stop  offset="0.7332" style="stop-color:#F4A2DC"/>
				<stop  offset="0.7616" style="stop-color:#E6A9DD"/>
				<stop  offset="0.7864" style="stop-color:#D3B3DE"/>
				<stop  offset="0.8087" style="stop-color:#B9BFDF"/>
				<stop  offset="0.8132" style="stop-color:#B3C2DF"/>
				<stop  offset="0.9011" style="stop-color:#81CEFF"/>
			</linearGradient>
			<path fill="url(#SVGID_8_)" d="M61.341,34.21l26.486,40.392c0.891-0.368,1.822-0.648,2.769-0.881L68.88,31.689
				C66.29,32.351,63.769,33.179,61.341,34.21z"/>
			
				<linearGradient id="SVGID_9_" gradientUnits="userSpaceOnUse" x1="90.7188" y1="-1418.2188" x2="209.8735" y2="-1362.3191" gradientTransform="matrix(0.7071 0.7071 -0.7071 0.7071 -958.4326 967.7802)">
				<stop  offset="0" style="stop-color:#A9EDD7"/>
				<stop  offset="0.025" style="stop-color:#B8E6D6"/>
				<stop  offset="0.0876" style="stop-color:#D8D7D3"/>
				<stop  offset="0.1401" style="stop-color:#ECCDD1"/>
				<stop  offset="0.1758" style="stop-color:#F3CAD0"/>
				<stop  offset="0.3297" style="stop-color:#AE95FF"/>
				<stop  offset="0.6374" style="stop-color:#FF9DDC"/>
				<stop  offset="0.6983" style="stop-color:#FD9EDC"/>
				<stop  offset="0.7332" style="stop-color:#F4A2DC"/>
				<stop  offset="0.7616" style="stop-color:#E6A9DD"/>
				<stop  offset="0.7864" style="stop-color:#D3B3DE"/>
				<stop  offset="0.8087" style="stop-color:#B9BFDF"/>
				<stop  offset="0.8132" style="stop-color:#B3C2DF"/>
				<stop  offset="0.9011" style="stop-color:#81CEFF"/>
			</linearGradient>
			<path fill="url(#SVGID_9_)" d="M162.493,143.378c0.53-0.915,1.021-1.854,1.489-2.802l-39.646-28.135
				c-0.156,0.334-0.314,0.664-0.495,0.983L162.493,143.378z"/>
			
				<linearGradient id="SVGID_10_" gradientUnits="userSpaceOnUse" x1="81.5571" y1="-1398.708" x2="200.7211" y2="-1342.8042" gradientTransform="matrix(0.7071 0.7071 -0.7071 0.7071 -958.4326 967.7802)">
				<stop  offset="0" style="stop-color:#A9EDD7"/>
				<stop  offset="0.025" style="stop-color:#B8E6D6"/>
				<stop  offset="0.0876" style="stop-color:#D8D7D3"/>
				<stop  offset="0.1401" style="stop-color:#ECCDD1"/>
				<stop  offset="0.1758" style="stop-color:#F3CAD0"/>
				<stop  offset="0.3297" style="stop-color:#AE95FF"/>
				<stop  offset="0.6374" style="stop-color:#FF9DDC"/>
				<stop  offset="0.6983" style="stop-color:#FD9EDC"/>
				<stop  offset="0.7332" style="stop-color:#F4A2DC"/>
				<stop  offset="0.7616" style="stop-color:#E6A9DD"/>
				<stop  offset="0.7864" style="stop-color:#D3B3DE"/>
				<stop  offset="0.8087" style="stop-color:#B9BFDF"/>
				<stop  offset="0.8132" style="stop-color:#B3C2DF"/>
				<stop  offset="0.9011" style="stop-color:#81CEFF"/>
			</linearGradient>
			<path fill="url(#SVGID_10_)" d="M113.316,121.626l19.291,44.431c2.511-0.677,4.961-1.507,7.319-2.529l-24.075-42.812
				C115.034,121.075,114.188,121.381,113.316,121.626z"/>
			
				<linearGradient id="SVGID_11_" gradientUnits="userSpaceOnUse" x1="90.3682" y1="-1324.2051" x2="-2.3555" y2="-1733.182" gradientTransform="matrix(0.7071 0.7071 -0.7071 0.7071 -958.4326 967.7802)">
				<stop  offset="0" style="stop-color:#A9EDD7"/>
				<stop  offset="0.025" style="stop-color:#B8E6D6"/>
				<stop  offset="0.0876" style="stop-color:#D8D7D3"/>
				<stop  offset="0.1401" style="stop-color:#ECCDD1"/>
				<stop  offset="0.1758" style="stop-color:#F3CAD0"/>
				<stop  offset="0.3297" style="stop-color:#AE95FF"/>
				<stop  offset="0.6374" style="stop-color:#FF9DDC"/>
				<stop  offset="0.6983" style="stop-color:#FD9EDC"/>
				<stop  offset="0.7332" style="stop-color:#F4A2DC"/>
				<stop  offset="0.7616" style="stop-color:#E6A9DD"/>
				<stop  offset="0.7864" style="stop-color:#D3B3DE"/>
				<stop  offset="0.8087" style="stop-color:#B9BFDF"/>
				<stop  offset="0.8132" style="stop-color:#B3C2DF"/>
				<stop  offset="0.9011" style="stop-color:#81CEFF"/>
			</linearGradient>
			<path fill="url(#SVGID_11_)" d="M38.586,54.029c-0.554,0.942-1.083,1.901-1.571,2.88l42.072,25.717
				c0.186-0.354,0.362-0.715,0.574-1.057L38.586,54.029z"/>
			<path opacity="0.39" fill="#FFFFFF" enable-background="new    " d="M118.284,38.603l-3.056-1.366l-10.394,37.404
				c0.369,0.029,0.731,0.059,1.097,0.109L118.284,38.603z"/>
			<path opacity="0.39" fill="#FFFFFF" enable-background="new    " d="M81.421,158.812l3.057,1.496l9.168-41.806
				c-0.396-0.048-0.798-0.089-1.191-0.155L81.421,158.812z"/>
			
				<linearGradient id="SVGID_12_" gradientUnits="userSpaceOnUse" x1="87.0928" y1="-1343.7505" x2="67.7855" y2="-1411.6022" gradientTransform="matrix(0.7071 0.7071 -0.7071 0.7071 -958.4326 967.7802)">
				<stop  offset="0" style="stop-color:#A9EDD7"/>
				<stop  offset="0.025" style="stop-color:#B8E6D6"/>
				<stop  offset="0.0876" style="stop-color:#D8D7D3"/>
				<stop  offset="0.1401" style="stop-color:#ECCDD1"/>
				<stop  offset="0.1758" style="stop-color:#F3CAD0"/>
				<stop  offset="0.3297" style="stop-color:#AE95FF"/>
				<stop  offset="0.6374" style="stop-color:#FF9DDC"/>
				<stop  offset="0.6983" style="stop-color:#FD9EDC"/>
				<stop  offset="0.7332" style="stop-color:#F4A2DC"/>
				<stop  offset="0.7616" style="stop-color:#E6A9DD"/>
				<stop  offset="0.7864" style="stop-color:#D3B3DE"/>
				<stop  offset="0.8087" style="stop-color:#B9BFDF"/>
				<stop  offset="0.8132" style="stop-color:#B3C2DF"/>
				<stop  offset="0.9011" style="stop-color:#81CEFF"/>
			</linearGradient>
			<path fill="url(#SVGID_12_)" d="M31.695,73.663c1.227-7.171,5.096-15.949,4.606-14.974l42.395,25.108
				c0.186-0.355-1.045,0.635-1.957,4.409L31.695,73.663z"/>
			
				<linearGradient id="SVGID_13_" gradientUnits="userSpaceOnUse" x1="-187.5146" y1="-1227.3877" x2="-191.1931" y2="-1493.6392" gradientTransform="matrix(0.5118 0.847 -0.8559 0.5172 -916.578 870.7642)">
				<stop  offset="0" style="stop-color:#A9ED7C"/>
				<stop  offset="0.076" style="stop-color:#BFDA95"/>
				<stop  offset="0.1927" style="stop-color:#DBC2B5"/>
				<stop  offset="0.2906" style="stop-color:#EDB3C9"/>
				<stop  offset="0.3571" style="stop-color:#F3AED0"/>
				<stop  offset="0.9066" style="stop-color:#AEACD7"/>
				<stop  offset="1" style="stop-color:#FF9DDC"/>
			</linearGradient>
			<path fill="url(#SVGID_13_)" d="M49.869,41.172c-0.765,0.779-1.508,1.583-2.218,2.411l34.43,34.618
				c0.265-0.298,0.523-0.605,0.812-0.887L49.869,41.172z"/>
			
				<linearGradient id="SVGID_14_" gradientUnits="userSpaceOnUse" x1="87.5435" y1="-1411.457" x2="206.7034" y2="-1355.5551" gradientTransform="matrix(0.7071 0.7071 -0.7071 0.7071 -958.4326 967.7802)">
				<stop  offset="0" style="stop-color:#A9EDD7"/>
				<stop  offset="0.025" style="stop-color:#B8E6D6"/>
				<stop  offset="0.0876" style="stop-color:#D8D7D3"/>
				<stop  offset="0.1401" style="stop-color:#ECCDD1"/>
				<stop  offset="0.1758" style="stop-color:#F3CAD0"/>
				<stop  offset="0.3297" style="stop-color:#AE95FF"/>
				<stop  offset="0.6374" style="stop-color:#FF9DDC"/>
				<stop  offset="0.6983" style="stop-color:#FD9EDC"/>
				<stop  offset="0.7332" style="stop-color:#F4A2DC"/>
				<stop  offset="0.7616" style="stop-color:#E6A9DD"/>
				<stop  offset="0.7864" style="stop-color:#D3B3DE"/>
				<stop  offset="0.8087" style="stop-color:#B9BFDF"/>
				<stop  offset="0.8132" style="stop-color:#B3C2DF"/>
				<stop  offset="0.9011" style="stop-color:#81CEFF"/>
			</linearGradient>
			<path fill="url(#SVGID_14_)" d="M160.032,147.223l-37.259-32.132c-0.526,0.735-1.101,1.441-1.752,2.093
				c-1.263,1.266-2.701,2.268-4.25,3.062l25.932,41.97c4.436-2.264,8.521-5.188,12.133-8.802
				C156.77,151.482,158.486,149.402,160.032,147.223z"/>
			
				<linearGradient id="SVGID_15_" gradientUnits="userSpaceOnUse" x1="144.2832" y1="-1340.3613" x2="125.5276" y2="-1387.8021" gradientTransform="matrix(0.7071 0.7071 -0.7071 0.7071 -958.4326 967.7802)">
				<stop  offset="0" style="stop-color:#FFFFFF"/>
				<stop  offset="1" style="stop-color:#BDD5EC"/>
			</linearGradient>
			<path opacity="0.44" fill="url(#SVGID_15_)" enable-background="new    " d="M116.963,82.791
				c-10.729-10.728-26.217-12.637-34.593-4.259c-8.377,8.375-6.469,23.864,4.26,34.593c10.725,10.727,26.213,12.631,34.588,4.255
				C129.596,109.005,127.688,93.517,116.963,82.791z M96.458,103.296c-3.777-3.778-4.447-9.229-1.5-12.176
				c2.947-2.947,8.397-2.277,12.176,1.5c3.771,3.772,4.443,9.223,1.496,12.171C105.684,107.739,100.231,107.066,96.458,103.296z"/>
			<path opacity="0.31" fill="none" stroke="#829ECE" stroke-width="0.5" enable-background="new    " d="M113.907,85.457
				c-8.898-8.899-21.619-10.603-28.416-3.805c-6.797,6.795-5.094,19.519,3.803,28.417c8.896,8.896,21.619,10.597,28.414,3.802
				C124.505,107.072,122.802,94.351,113.907,85.457z"/>
			<path opacity="0.18" fill="#829ECE" enable-background="new    " d="M85.293,81.455c6.964-6.938,19.827-5.153,28.812,3.803l0,0
				l-0.195,0.196l-0.197,0.197c-8.828-8.831-21.368-10.436-28.027-3.805l0,0c-6.631,6.66-5.023,19.197,3.805,28.026l0,0
				c8.824,8.823,21.36,10.429,28.021,3.799l0,0c6.631-6.661,5.023-19.198-3.799-28.021l0,0l0.197-0.197l0.195-0.196
				c8.951,8.981,10.733,21.845,3.797,28.806l0,0c-6.959,6.937-19.824,5.153-28.801-3.801l0,0
				C80.141,101.281,78.36,88.415,85.293,81.455L85.293,81.455z"/>
			<path opacity="0.31" fill="#FFFFFF" enable-background="new    " d="M84.806,81.942c6.963-6.935,19.826-5.152,28.811,3.805l0,0
				l-0.197,0.197l-0.195,0.193c-8.828-8.827-21.366-10.435-28.023-3.804l0,0c-6.631,6.658-5.023,19.197,3.805,28.024l0,0
				c8.824,8.824,21.361,10.43,28.021,3.803l0,0c6.633-6.662,5.022-19.2-3.799-28.023l0,0l0.193-0.193l0.197-0.197
				c8.951,8.979,10.734,21.843,3.797,28.803l0,0c-6.958,6.937-19.82,5.152-28.801-3.799l0,0
				C79.656,101.766,77.872,88.903,84.806,81.942L84.806,81.942z"/>
			
				<radialGradient id="SVGID_16_" cx="137.2412" cy="-1447.7476" r="47.3186" gradientTransform="matrix(0.7071 0.7071 -0.7059 0.7059 -957.9082 967.2557)" gradientUnits="userSpaceOnUse">
				<stop  offset="0" style="stop-color:#FFFFFF"/>
				<stop  offset="0.0887" style="stop-color:#ECEEF1"/>
				<stop  offset="0.4088" style="stop-color:#AAB5C1"/>
				<stop  offset="0.6783" style="stop-color:#7A8B9E"/>
				<stop  offset="0.8834" style="stop-color:#5D7289"/>
				<stop  offset="1" style="stop-color:#526881"/>
			</radialGradient>
			<path fill="url(#SVGID_16_)" d="M29.924,91.088c-2.135-17.929,2.574-35.074,14.653-47.154l0,0
				c12.076-12.075,29.22-16.785,47.154-14.653l0,0c17.93,2.135,36.66,11.104,51.951,26.398l0,0l-0.191,0.193l-0.195,0.194
				c-15.211-15.211-33.829-24.121-51.631-26.235l0,0c-17.797-2.116-34.757,2.556-46.695,14.494l0,0
				c-11.939,11.94-16.613,28.9-14.497,46.697l0,0c2.116,17.798,11.027,36.416,26.239,51.628l0,0
				c15.209,15.209,33.828,24.119,51.623,26.233l0,0c17.799,2.115,34.764-2.557,46.699-14.493l0,0
				c11.938-11.938,16.607-28.9,14.49-46.697l0,0c-2.107-17.799-11.021-36.417-26.229-51.627l0,0l0.195-0.194l0.191-0.193
				c15.291,15.29,24.26,34.021,26.396,51.948l0,0c2.132,17.934-2.576,35.078-14.652,47.154l0,0
				c-12.076,12.078-29.225,16.787-47.154,14.652l0,0c-17.932-2.134-36.66-11.104-51.951-26.395l0,0
				C41.028,127.749,32.058,109.02,29.924,91.088L29.924,91.088z"/>
			
				<radialGradient id="SVGID_17_" cx="134.3604" cy="-1375.2188" r="21.0747" gradientTransform="matrix(0.7071 0.7071 -0.7071 0.7071 -958.4326 967.7802)" gradientUnits="userSpaceOnUse">
				<stop  offset="0" style="stop-color:#A0ACBB"/>
				<stop  offset="1" style="stop-color:#315673"/>
			</radialGradient>
			<path fill="url(#SVGID_17_)" d="M115.891,83.473c10.584,10.584,12.627,25.77,4.754,34.302c0.17-0.154,0.34-0.308,0.506-0.471
				c8.428-8.43,6.512-24.014-4.282-34.809C106.066,71.7,90.483,69.782,82.055,78.211c-0.163,0.163-0.316,0.335-0.472,0.504
				C90.116,70.844,105.303,72.886,115.891,83.473z"/>
			
				<radialGradient id="SVGID_18_" cx="113.1494" cy="-1309.9023" r="39.9537" gradientTransform="matrix(0.7071 0.7071 -0.7071 0.7071 -958.4326 967.7802)" gradientUnits="userSpaceOnUse">
				<stop  offset="0" style="stop-color:#D1D7DE"/>
				<stop  offset="1" style="stop-color:#607C93"/>
			</radialGradient>
			<path fill="url(#SVGID_18_)" d="M58.085,141.533c-30.146-30.146-35.273-73.889-11.454-97.709c1.991-1.99,4.132-3.762,6.382-5.35
				c-2.587,1.743-5.026,3.738-7.284,5.994c-23.819,23.82-18.693,67.562,11.453,97.708c27.622,27.622,66.653,34.217,91.321,16.801
				C123.796,175.602,85.368,168.814,58.085,141.533z"/>
			
				<radialGradient id="SVGID_19_" cx="138.4844" cy="-1368.5967" r="7.4085" gradientTransform="matrix(0.7172 0.7172 -0.7071 0.7071 -962.532 963.6818)" gradientUnits="userSpaceOnUse">
				<stop  offset="0" style="stop-color:#A0ACBB"/>
				<stop  offset="1" style="stop-color:#315673"/>
			</radialGradient>
			<path opacity="0.82" fill="url(#SVGID_19_)" enable-background="new    " d="M106.73,93.066
				c3.666,3.667,4.403,8.918,1.787,11.997c0.123-0.105,0.252-0.209,0.369-0.328c3.012-3.012,2.354-8.549-1.459-12.364
				c-3.818-3.818-9.358-4.475-12.371-1.462c-0.118,0.117-0.222,0.245-0.325,0.371C97.81,88.658,103.061,89.396,106.73,93.066z"/>
			<path opacity="0.58" fill="#FFFFFF" enable-background="new    " d="M107.157,92.444c3.713,3.712,4.426,9.057,1.733,12.213
				c0.129-0.111,0.26-0.218,0.379-0.337c2.694-2.694,2.063-8.33-1.799-12.192c-3.863-3.864-9.651-4.346-12.194-1.801
				c-0.121,0.12-0.225,0.251-0.334,0.384C98.099,88.017,103.443,88.73,107.157,92.444z"/>
			
				<radialGradient id="SVGID_20_" cx="134.3594" cy="-1376.2178" r="20.9538" gradientTransform="matrix(0.7071 0.7071 -0.7071 0.7071 -958.4326 967.7802)" gradientUnits="userSpaceOnUse">
				<stop  offset="0" style="stop-color:#FFFFFF"/>
				<stop  offset="1" style="stop-color:#000000"/>
			</radialGradient>
			<path fill="url(#SVGID_20_)" d="M116.922,82.44c10.585,10.584,12.628,25.77,4.755,34.303c0.173-0.155,0.341-0.31,0.503-0.472
				c7.53-7.53,5.862-23.361-4.932-34.157C106.45,71.316,90.617,69.648,83.086,77.18c-0.161,0.163-0.313,0.333-0.47,0.503
				C91.149,69.811,106.334,71.854,116.922,82.44z"/>
			
				<radialGradient id="SVGID_21_" cx="134.3613" cy="-1374.5039" r="20.9597" gradientTransform="matrix(0.7071 0.7071 -0.7071 0.7071 -958.4326 967.7802)" gradientUnits="userSpaceOnUse">
				<stop  offset="0" style="stop-color:#A0ACBB"/>
				<stop  offset="1" style="stop-color:#133D5F"/>
			</radialGradient>
			<path fill="url(#SVGID_21_)" d="M115.693,83.668c10.584,10.584,12.627,25.77,4.755,34.303c0.172-0.154,0.342-0.308,0.505-0.47
				c7.559-7.56,5.896-23.396-4.901-34.191c-10.797-10.798-26.568-12.527-34.191-4.903c-0.164,0.163-0.316,0.334-0.473,0.503
				C89.921,71.037,105.107,73.081,115.693,83.668z"/>
			
				<radialGradient id="SVGID_22_" cx="125.2891" cy="-1321.1641" r="112.1793" gradientTransform="matrix(0.7071 0.7071 -0.7071 0.7071 -958.4326 967.7802)" gradientUnits="userSpaceOnUse">
				<stop  offset="0" style="stop-color:#FFFFFF"/>
				<stop  offset="0.052" style="stop-color:#EEEEEE"/>
				<stop  offset="0.3228" style="stop-color:#9B9B9B"/>
				<stop  offset="0.5624" style="stop-color:#585858"/>
				<stop  offset="0.7619" style="stop-color:#282828"/>
				<stop  offset="0.9137" style="stop-color:#0B0B0B"/>
				<stop  offset="1" style="stop-color:#000000"/>
			</radialGradient>
			<path fill="url(#SVGID_22_)" d="M154.768,153.475c-23.531,23.213-66.751,17.813-96.724-12.156
				c-29.976-29.976-35.372-73.191-12.157-96.724c-0.079,0.075-0.159,0.146-0.235,0.221C22.174,68.294,27.517,111.7,57.59,141.773
				c30.067,30.066,73.477,35.412,96.954,11.935C154.62,153.632,154.688,153.551,154.768,153.475z"/>
			
				<linearGradient id="SVGID_23_" gradientUnits="userSpaceOnUse" x1="-78.7549" y1="-1355.0254" x2="39.1009" y2="-1299.7351" gradientTransform="matrix(0.5901 0.8073 -0.8073 0.5901 -929.4131 897.645)">
				<stop  offset="0" style="stop-color:#A9EDD7"/>
				<stop  offset="0.025" style="stop-color:#B8E6D6"/>
				<stop  offset="0.0876" style="stop-color:#D8D7D3"/>
				<stop  offset="0.1401" style="stop-color:#ECCDD1"/>
				<stop  offset="0.1758" style="stop-color:#F3CAD0"/>
				<stop  offset="0.3297" style="stop-color:#AE95FF"/>
				<stop  offset="0.6374" style="stop-color:#FF9DDC"/>
				<stop  offset="0.6983" style="stop-color:#FD9EDC"/>
				<stop  offset="0.7332" style="stop-color:#F4A2DC"/>
				<stop  offset="0.7616" style="stop-color:#E6A9DD"/>
				<stop  offset="0.7864" style="stop-color:#D3B3DE"/>
				<stop  offset="0.8087" style="stop-color:#B9BFDF"/>
				<stop  offset="0.8132" style="stop-color:#B3C2DF"/>
				<stop  offset="0.9011" style="stop-color:#81CEFF"/>
			</linearGradient>
			<path fill="url(#SVGID_23_)" d="M153.396,154.346c0.664-0.826,1.293-1.678,2.293-1.896l-34.855-33.888
				c-0.596-0.346-0.807-0.041-1.027,0.246L153.396,154.346z"/>
			<path fill="#D8DAEB" d="M119.807,79.557c-12.88-12.878-31.47-15.165-41.521-5.112c-10.055,10.054-7.766,28.644,5.113,41.521
				c12.875,12.875,31.462,15.165,41.518,5.109C134.968,111.021,132.682,92.432,119.807,79.557z M86.434,112.93
				C75.705,102.2,73.8,86.711,82.175,78.336c8.377-8.376,23.864-6.469,34.593,4.26c10.728,10.724,12.633,26.212,4.256,34.587
				C112.646,125.561,97.159,123.654,86.434,112.93z"/>
			
				<radialGradient id="SVGID_24_" cx="193.9668" cy="-1331.876" r="123.2471" gradientTransform="matrix(0.7071 0.7071 -0.7071 0.7071 -958.4326 967.7802)" gradientUnits="userSpaceOnUse">
				<stop  offset="0" style="stop-color:#FFFFFF"/>
				<stop  offset="1" style="stop-color:#FFFFFF;stop-opacity:0"/>
			</radialGradient>
			<path fill="url(#SVGID_24_)" d="M78.162,99.474c-2.439-7.892-1.22-15.903,4.013-21.138c8.377-8.376,23.864-6.469,34.593,4.26
				c3.803,3.8,6.489,8.2,8.012,12.671c-1.465-4.737-4.245-9.428-8.271-13.453c-10.729-10.728-26.216-12.634-34.592-4.258
				C76.509,82.962,75.392,91.333,78.162,99.474z M165.825,93.383c6.842,22.12,3.426,44.579-11.248,59.252
				C131.1,176.114,87.69,170.77,57.62,140.7c-11.054-11.056-18.755-23.917-22.923-36.927c4.108,13.275,11.908,26.43,23.185,37.707
				c30.068,30.067,73.478,35.414,96.954,11.934C169.684,138.568,172.991,115.755,165.825,93.383z"/>
			
				<radialGradient id="SVGID_25_" cx="99.9136" cy="-1423.4321" r="132.1899" gradientTransform="matrix(0.7071 0.7071 -0.7071 0.7071 -958.4326 967.7802)" gradientUnits="userSpaceOnUse">
				<stop  offset="0" style="stop-color:#FFFFFF"/>
				<stop  offset="1" style="stop-color:#FFFFFF;stop-opacity:0"/>
			</radialGradient>
			<path fill="url(#SVGID_25_)" d="M142.902,56.458c-30.071-30.071-73.479-35.414-96.958-11.936
				c-6.656,6.656-10.99,14.917-13.108,24.018c2.181-8.791,6.449-16.772,12.914-23.237c23.478-23.477,66.889-18.135,96.959,11.938
				c21.545,21.546,30.389,49.935,25.038,72.937C173.484,107.036,164.691,78.247,142.902,56.458z"/>
		</g>
	</g>
</g>
<g id="outline_x5F_white">
	<g>
		<g>
			<path fill="#FFFFFF" d="M83.462,28.788c20.296,0,42.552,9.223,60.22,26.891c30.609,30.609,35.865,74.979,11.74,99.104
				c-10.201,10.201-24.018,15.148-38.887,15.148c-20.295,0-42.55-9.225-60.216-26.892C25.708,112.43,20.45,68.062,44.576,43.936
				C54.777,33.734,68.592,28.788,83.462,28.788 M83.462,16.788c-18.514,0-35.337,6.627-47.372,18.662
				C21.768,49.774,15.344,70.023,18.004,92.469c2.534,21.383,13.128,42.355,29.831,59.059
				c19.321,19.322,44.362,30.404,68.701,30.404c18.515,0,35.338-6.629,47.372-18.664c14.322-14.322,20.744-34.568,18.087-57.017
				c-2.533-21.383-13.126-42.356-29.827-59.058C132.844,27.87,107.802,16.788,83.462,16.788L83.462,16.788z"/>
		</g>
	</g>
</g>
<g id="outline_x5F_black">
	<g>
		<path d="M83.462,28.788c20.296,0,42.552,9.223,60.22,26.891c30.609,30.609,35.865,74.979,11.74,99.104
			c-10.201,10.201-24.018,15.148-38.887,15.148c-20.295,0-42.55-9.225-60.216-26.892C25.708,112.43,20.45,68.062,44.576,43.936
			C54.777,33.734,68.592,28.788,83.462,28.788 M83.462,22.788c-16.911,0-32.228,6.003-43.129,16.905
			c-12.996,12.996-18.81,31.488-16.37,52.07c2.376,20.049,12.361,39.768,28.115,55.521c18.205,18.206,41.699,28.647,64.458,28.647
			c16.911,0,32.229-6.006,43.13-16.908c12.994-12.994,18.809-31.484,16.37-52.066c-2.375-20.051-12.358-39.769-28.111-55.521
			C129.719,33.229,106.223,22.788,83.462,22.788L83.462,22.788z"/>
	</g>
</g>
</svg>
