<?xml version="1.0" encoding="utf-8"?>
<!-- Generator: Adobe Illustrator 15.0.0, SVG Export Plug-In . SVG Version: 6.00 Build 0)  -->
<!DOCTYPE svg PUBLIC "-//W3C//DTD SVG 1.1//EN" "http://www.w3.org/Graphics/SVG/1.1/DTD/svg11.dtd">
<svg version="1.1" xmlns="http://www.w3.org/2000/svg" xmlns:xlink="http://www.w3.org/1999/xlink" x="0px" y="0px" width="200px"
	 height="200px" viewBox="0 0 200 200" enable-background="new 0 0 200 200" xml:space="preserve">
<g id="icon">
	<g id="Layer_2">
	</g>
	<g id="Layer_1_1_">
		<g>
			<g>
				<g>
					
						<radialGradient id="SVGID_1_" cx="149" cy="27" r="128.8652" gradientTransform="matrix(1 0 0 -1 -50 61)" gradientUnits="userSpaceOnUse">
						<stop  offset="0" style="stop-color:#19D900"/>
						<stop  offset="1" style="stop-color:#004230"/>
					</radialGradient>
					<path fill="url(#SVGID_1_)" d="M70.082,170.303c0,0-2.352-6.385-1.504-12.779c0.62-5.172,4.151-9.604,4.151-9.604
						l54.638-22.398l33.053,21.188l-0.316,3.195L70.082,170.303z"/>
					
						<radialGradient id="SVGID_2_" cx="331.4219" cy="995.5225" r="328.4615" gradientTransform="matrix(1.0039 -0.0037 -0.083 0.8366 -139.7694 -789.5649)" gradientUnits="userSpaceOnUse">
						<stop  offset="0" style="stop-color:#19D900"/>
						<stop  offset="1" style="stop-color:#004230"/>
					</radialGradient>
					<polygon fill="url(#SVGID_2_)" points="168.559,126.966 72.729,147.919 35.03,45.906 128.552,26.738 					"/>
					
						<linearGradient id="SVGID_3_" gradientUnits="userSpaceOnUse" x1="162.6738" y1="-53.5088" x2="189.1738" y2="-129.7588" gradientTransform="matrix(1 0 0 -1 -50 61)">
						<stop  offset="0" style="stop-color:#2B9000"/>
						<stop  offset="0.454" style="stop-color:#2C2300"/>
						<stop  offset="1" style="stop-color:#196800"/>
					</linearGradient>
					<polygon fill="url(#SVGID_3_)" points="168.559,126.966 72.729,147.919 74.045,149.689 168.1,129.454 					"/>
					
						<linearGradient id="SVGID_4_" gradientUnits="userSpaceOnUse" x1="172.4961" y1="741.2295" x2="275.6789" y2="641.4116" gradientTransform="matrix(1.0108 0.04 -0.0406 0.9877 -108.8667 -615.9487)">
						<stop  offset="0" style="stop-color:#2B9000"/>
						<stop  offset="0.454" style="stop-color:#2C2300"/>
						<stop  offset="1" style="stop-color:#196800"/>
					</linearGradient>
					<path fill="url(#SVGID_4_)" d="M70.082,170.303c0,0-1.097-7.264-0.438-12.783c0.591-4.929,3.085-9.601,3.085-9.601
						L35.03,45.906c0,0-2.26,2.731-3.296,11.732c-1.069,5.055,1.144,9.94,1.144,9.94L70.082,170.303z"/>
					<path fill="#C3C1C2" d="M72.087,167.54c0,0-0.862-5.72-0.341-10.067c0.463-3.879,2.427-7.56,2.427-7.56l86.536-18.997
						l-4.482,17.254L72.087,167.54z"/>
					
						<linearGradient id="SVGID_5_" gradientUnits="userSpaceOnUse" x1="217.5703" y1="727.209" x2="218.5066" y2="774.3974" gradientTransform="matrix(1.0116 0.0062 -0.006 0.9885 -101.8472 -597.8512)">
						<stop  offset="0" style="stop-color:#231F20"/>
						<stop  offset="0.0896" style="stop-color:#231F20;stop-opacity:0.9104"/>
						<stop  offset="1" style="stop-color:#231F20;stop-opacity:0"/>
					</linearGradient>
					<path fill="url(#SVGID_5_)" d="M71.742,164.387c0.15,1.84,0.345,3.153,0.345,3.153l84.14-19.37l0.725-2.784l-85.037,18.667
						C71.912,164.053,71.848,164.174,71.742,164.387z"/>
					
						<linearGradient id="SVGID_6_" gradientUnits="userSpaceOnUse" x1="252.8516" y1="754.8516" x2="254.9797" y2="762.418" gradientTransform="matrix(1.0108 0.04 -0.0406 0.9877 -109.8316 -616.0542)">
						<stop  offset="0" style="stop-color:#231F20"/>
						<stop  offset="0.0896" style="stop-color:#231F20;stop-opacity:0.9104"/>
						<stop  offset="1" style="stop-color:#231F20;stop-opacity:0"/>
					</linearGradient>
					<path fill="url(#SVGID_6_)" d="M71.746,157.473c0.463-3.879,2.427-7.56,2.427-7.56l86.536-18.997l-2.372,8.871
						C158.337,139.787,71.225,161.82,71.746,157.473z"/>
					
						<radialGradient id="SVGID_7_" cx="1419.9033" cy="1019.707" r="79.8905" gradientTransform="matrix(0.6102 0.4867 -0.7555 0.5491 -146.8978 -1074.6133)" gradientUnits="userSpaceOnUse">
						<stop  offset="0" style="stop-color:#19D900"/>
						<stop  offset="1" style="stop-color:#00DC30"/>
					</radialGradient>
					<path fill="url(#SVGID_7_)" d="M73.534,148.432c-0.476,0.373-0.476,0.373-0.811,0.965L35.949,47.491
						c-0.377-0.333-0.299-0.91,0.178-1.286l0,0c0.475-0.376,1.166-0.41,1.547-0.076l36.771,101.907c0,0-0.317,0.016-0.57,0.183
						L73.534,148.432z"/>
					
						<radialGradient id="SVGID_8_" cx="1427.8809" cy="1003.7852" r="79.9767" gradientTransform="matrix(0.6102 0.4867 -0.7555 0.5491 -146.8978 -1074.6133)" gradientUnits="userSpaceOnUse">
						<stop  offset="0" style="stop-color:#888BC5"/>
						<stop  offset="0.6258" style="stop-color:#45488D"/>
						<stop  offset="1" style="stop-color:#2E3192"/>
					</radialGradient>
					<path opacity="0.27" fill="url(#SVGID_8_)" enable-background="new    " d="M90.816,144.173
						c-0.477,0.375-1.169,0.41-1.547,0.076L52.496,42.343c-0.378-0.333-0.299-0.91,0.178-1.286l0,0
						c0.475-0.376,1.166-0.41,1.547-0.077l36.771,101.907C91.371,143.223,91.292,143.796,90.816,144.173L90.816,144.173z"/>
					
						<radialGradient id="SVGID_9_" cx="1426.8105" cy="1006.127" r="79.9336" gradientTransform="matrix(0.6102 0.4867 -0.7555 0.5491 -146.8978 -1074.6133)" gradientUnits="userSpaceOnUse">
						<stop  offset="0" style="stop-color:#19D900"/>
						<stop  offset="1" style="stop-color:#00DC30"/>
					</radialGradient>
					<path fill="url(#SVGID_9_)" d="M88.312,144.479c-0.476,0.375-1.295,0.679-1.295,0.679L50.245,43.251
						c-0.378-0.333-0.3-0.91,0.177-1.286l0,0c0.475-0.376,1.166-0.41,1.547-0.077L88.74,143.796c0.136,0.513,0.136,0.513-0.341,0.89
						L88.312,144.479z"/>
					
						<radialGradient id="SVGID_10_" cx="1237.5742" cy="-1617.0181" r="32.0467" gradientTransform="matrix(-0.8939 0.229 -0.2519 -0.7217 814.7755 -1321.668)" gradientUnits="userSpaceOnUse">
						<stop  offset="0" style="stop-color:#19D900"/>
						<stop  offset="1" style="stop-color:#00DC30"/>
					</radialGradient>
					<path fill="url(#SVGID_10_)" d="M73.109,147.438c-0.191-0.467-0.211-0.039,0.381-0.172l92.422-20.373
						c0.592-0.131,1.484-0.776,1.678-0.312l0,0c0.193,0.465-0.13,0.946-0.721,1.078l-92.424,20.377
						C73.854,148.166,73.109,147.438,73.109,147.438z"/>
					
						<radialGradient id="SVGID_11_" cx="1114.6738" cy="-1651.9819" r="40.5426" gradientTransform="matrix(-0.8338 0.1868 -0.1445 -0.6149 810.8842 -1085.5005)" gradientUnits="userSpaceOnUse">
						<stop  offset="0" style="stop-color:#19D900"/>
						<stop  offset="1" style="stop-color:#00DC30"/>
					</radialGradient>
					<path opacity="0.24" fill="url(#SVGID_11_)" enable-background="new    " d="M72.399,149.3
						c-0.074-0.321,0.292-0.678,0.815-0.797l93.67-21.124c0.521-0.115,1.009,0.048,1.08,0.37l0,0
						c0.071,0.321-0.295,0.678-0.815,0.796l-93.669,21.124C72.955,149.786,72.473,149.622,72.399,149.3L72.399,149.3z"/>
					
						<radialGradient id="SVGID_12_" cx="1149.6895" cy="-1680.8193" r="39.352" gradientTransform="matrix(-0.8009 0.1795 -0.1445 -0.6149 792.6535 -1080.8136)" gradientUnits="userSpaceOnUse">
						<stop  offset="0" style="stop-color:#19D900"/>
						<stop  offset="1" style="stop-color:#00DC30"/>
					</radialGradient>
					<path opacity="0.24" fill="url(#SVGID_12_)" enable-background="new    " d="M70.211,169.195
						c-0.073-0.322,0.808-0.471,1.312-0.584l87.174-20.102c0.502-0.111,0.437-0.146,0.51,0.174l0,0
						c0.072,0.319-0.277,0.674-0.779,0.789l-87.174,20.1C70.752,169.686,70.284,169.52,70.211,169.195L70.211,169.195z"/>
					<path opacity="0.12" fill="#FFFFFF" enable-background="new    " d="M159.26,136.497l-86.686,17.317
						c-0.357,1.111-0.676,2.373-0.828,3.658c-0.195,1.623-0.197,3.438-0.123,5.072l86.102-20.146L159.26,136.497z"/>
					<path opacity="0.07" fill="#FFFFFF" enable-background="new    " d="M71.705,157.867c-0.427,4.29,0.382,9.673,0.382,9.673
						l84.14-19.37l1.82-7.007L71.705,157.867z"/>
					<path opacity="0.4" fill="#B1B5DE" enable-background="new    " d="M72.087,167.54c0,0-0.862-5.72-0.341-10.067
						c0.463-3.879,2.427-7.56,2.427-7.56l86.536-18.997l-4.482,17.254L72.087,167.54z"/>
				</g>
				
					<radialGradient id="SVGID_13_" cx="176.6641" cy="764.3984" r="7.5431" gradientTransform="matrix(1.0116 0.0062 -0.006 0.9885 -101.8472 -597.8512)" gradientUnits="userSpaceOnUse">
					<stop  offset="0" style="stop-color:#19D900"/>
					<stop  offset="1" style="stop-color:#00DC30"/>
				</radialGradient>
				<path opacity="0.24" fill="url(#SVGID_13_)" enable-background="new    " d="M71.523,168.611c0,0-1.265-4.43-0.568-8.979
					c0.88-5.741,3.429-10.778,3.429-10.778l-1.169-0.352c0,0-2.952,5.542-2.984,11.366c-0.027,5.067-0.02,9.325-0.02,9.325
					L71.523,168.611z"/>
			</g>
		</g>
	</g>
</g>
<g id="outline_x5F_white">
	<g>
		<g>
			<path fill="#FFFFFF" d="M128.552,26.738l40.007,100.228l-0.459,2.488l-7.425,1.598l-1.323,5.089l1.323-5.089l-1.415,5.445
				l-0.547,2.104l-1.562,6.01l3.271,2.096l-0.172,1.732c0.006,0.014,0.015,0.02,0.021,0.033l-0.024,0.023l-0.063,0.637
				c0.053,0.003,0.047,0.021-0.002,0.027l-0.074,0.74L70.085,170.3L32.878,67.578c0,0-2.213-4.885-1.144-9.94
				c1.036-9,3.296-11.732,3.296-11.732L128.552,26.738 M128.559,14.736c-0.8,0-1.605,0.08-2.416,0.246L32.621,34.15
				c-2.681,0.55-5.093,1.999-6.837,4.106c-1.666,2.013-4.624,6.949-5.913,17.518c-1.374,7.427,0.92,13.988,1.836,16.201
				l37.091,102.414c1.75,4.832,6.323,7.916,11.277,7.916c0.879,0,1.769-0.098,2.658-0.299l90.021-20.4
				c4.973-1.127,8.684-5.271,9.268-10.32c0.104-0.557,0.164-1.121,0.187-1.696c0.019-0.177,0.028-0.354,0.039-0.53l0.114-1.166
				c0.236-2.395-0.252-4.75-1.336-6.799c4.539-1.141,8.019-4.826,8.873-9.455l0.459-2.488c0.412-2.229,0.187-4.525-0.653-6.629
				l-40.009-100.23C137.85,17.66,133.383,14.736,128.559,14.736L128.559,14.736z"/>
		</g>
	</g>
</g>
<g id="outline_x5F_black">
	<g>
		<path d="M128.552,26.738l40.007,100.228l-0.459,2.488l-7.425,1.598l-1.323,5.089l1.323-5.089l-1.415,5.445l-0.547,2.104
			l-1.562,6.01l3.271,2.096l-0.172,1.732c0.006,0.014,0.015,0.02,0.021,0.033l-0.024,0.023l-0.063,0.637
			c0.053,0.003,0.047,0.021-0.002,0.027l-0.074,0.74L70.085,170.3L32.878,67.578c0,0-2.213-4.885-1.144-9.94
			c1.036-9,3.296-11.732,3.296-11.732L128.552,26.738 M132.264,19.853l-4.916,1.007L33.826,40.028l-2.071,0.424l-1.348,1.629
			c-1.011,1.223-3.47,5.082-4.603,14.612c-1.193,6.132,0.911,11.717,1.494,13.097L64.44,172.346l1.804,4.979l5.164-1.171
			l90.021-20.399l4.219-0.956l0.035-0.349l0.711-0.101l-0.115-3.404l1.08-1.079l-0.988-2.357l0.021-0.21l0.361-3.658l-2.699-1.729
			l0.467-1.8l0.547-2.104l0.483-1.867l3.812-0.82l3.91-0.84l0.728-3.935l0.46-2.487l0.314-1.705l-0.645-1.609l-40.007-100.23
			L132.264,19.853L132.264,19.853z"/>
	</g>
</g>
</svg>
