<?xml version="1.0" encoding="utf-8"?>
<!-- Generator: Adobe Illustrator 15.0.0, SVG Export Plug-In . SVG Version: 6.00 Build 0)  -->
<!DOCTYPE svg PUBLIC "-//W3C//DTD SVG 1.1//EN" "http://www.w3.org/Graphics/SVG/1.1/DTD/svg11.dtd">
<svg version="1.1" xmlns="http://www.w3.org/2000/svg" xmlns:xlink="http://www.w3.org/1999/xlink" x="0px" y="0px" width="200px"
	 height="200px" viewBox="0 0 200 200" enable-background="new 0 0 200 200" xml:space="preserve">
<g id="icon">
	<g id="Layer_2">
	</g>
	<g>
		
			<radialGradient id="SVGID_1_" cx="-2604.4438" cy="-1459.6548" r="8.2473" fx="-2604.3923" fy="-1460.5284" gradientTransform="matrix(-0.0342 -0.9993 0.9086 -0.0376 1362.0336 -2517.3003)" gradientUnits="userSpaceOnUse">
			<stop  offset="0" style="stop-color:#FFFF00"/>
			<stop  offset="0.3313" style="stop-color:#FFD400"/>
			<stop  offset="0.4016" style="stop-color:#FCD001"/>
			<stop  offset="0.4777" style="stop-color:#F2C303"/>
			<stop  offset="0.5565" style="stop-color:#E2AD06"/>
			<stop  offset="0.6371" style="stop-color:#CC8F0B"/>
			<stop  offset="0.7184" style="stop-color:#B06811"/>
			<stop  offset="0.7485" style="stop-color:#A45814"/>
			<stop  offset="0.9002" style="stop-color:#B57010"/>
			<stop  offset="1" style="stop-color:#BD7B0E"/>
		</radialGradient>
		<path fill="url(#SVGID_1_)" d="M125.709,133.916c3.186-0.132,5.861,2.6,5.98,6.104c0.121,3.502-2.361,6.447-5.547,6.58
			c-3.187,0.131-5.863-2.6-5.981-6.104C120.041,136.994,122.525,134.048,125.709,133.916z"/>
		
			<linearGradient id="SVGID_2_" gradientUnits="userSpaceOnUse" x1="-3223.1357" y1="-2069.1665" x2="-3228.0518" y2="-2064.4199" gradientTransform="matrix(-0.2343 -0.7962 0.8418 0.1207 1123.7205 -2195.7527)">
			<stop  offset="0" style="stop-color:#FFCA00"/>
			<stop  offset="0.2793" style="stop-color:#EBAE0B"/>
			<stop  offset="0.8792" style="stop-color:#B96725"/>
			<stop  offset="1" style="stop-color:#AE582B"/>
		</linearGradient>
		<path fill="url(#SVGID_2_)" d="M147.396,107.025c0.604-0.811,2.02-0.627,3.162,0.404l0,0c1.146,1.031,1.584,2.523,0.98,3.334
			l-20.614,27.363c-0.604,0.809-2.021,0.627-3.163-0.404l0,0c-1.146-1.033-1.585-2.525-0.979-3.332L147.396,107.025z"/>
		<g>
			
				<linearGradient id="SVGID_3_" gradientUnits="userSpaceOnUse" x1="-2614.4019" y1="-1377.3672" x2="-2576.4229" y2="-1384.184" gradientTransform="matrix(-0.0051 -1 1 -0.0051 1521.9091 -2462.4036)">
				<stop  offset="0" style="stop-color:#D16E00"/>
				<stop  offset="0.1896" style="stop-color:#B56205"/>
				<stop  offset="0.5959" style="stop-color:#6E4313"/>
				<stop  offset="1" style="stop-color:#222222"/>
			</linearGradient>
			<path fill="url(#SVGID_3_)" d="M137.479,131.6l26.617,16.627c0,0,3.752,1.117,5.391-1.699c1.66-2.852,0.125-5.686,0.125-5.686
				l-23.318-19.045L137.479,131.6z"/>
			
				<linearGradient id="SVGID_4_" gradientUnits="userSpaceOnUse" x1="-2609.7993" y1="-1386.1699" x2="-2576.5581" y2="-1376.2313" gradientTransform="matrix(-0.0051 -1 1 -0.0051 1521.9091 -2462.4036)">
				<stop  offset="0" style="stop-color:#906E81"/>
				<stop  offset="0.2884" style="stop-color:#745B69"/>
				<stop  offset="0.9081" style="stop-color:#2D2A2C"/>
				<stop  offset="1" style="stop-color:#222222"/>
			</linearGradient>
			<path fill="url(#SVGID_4_)" d="M137.479,131.6l26.617,16.627c0,0,3.752,1.117,5.391-1.699c1.66-2.852,0.125-5.686,0.125-5.686
				l-23.318-19.045L137.479,131.6z"/>
			<g>
				
					<linearGradient id="SVGID_5_" gradientUnits="userSpaceOnUse" x1="-2598.2861" y1="-1385.1216" x2="-2586.0347" y2="-1377.1746" gradientTransform="matrix(-0.0051 -1 1 -0.0051 1521.9091 -2462.4036)">
					<stop  offset="0" style="stop-color:#9F8292"/>
					<stop  offset="0.257" style="stop-color:#836D79"/>
					<stop  offset="0.8088" style="stop-color:#3C3639"/>
					<stop  offset="1" style="stop-color:#222222"/>
				</linearGradient>
				<path fill="url(#SVGID_5_)" d="M138.866,130.05l-1.388,1.55l26.617,16.627c0,0,1.049,0.312,2.277,0.188L138.866,130.05z"/>
			</g>
		</g>
		
			<linearGradient id="SVGID_6_" gradientUnits="userSpaceOnUse" x1="-2609.5859" y1="-1381.9395" x2="-2606.5415" y2="-1379.2759" gradientTransform="matrix(-0.0376 -0.9993 0.9993 -0.0376 1442.2836 -2517.3003)">
			<stop  offset="0" style="stop-color:#484848"/>
			<stop  offset="0.2454" style="stop-color:#A6A6A7"/>
			<stop  offset="1" style="stop-color:#000000"/>
		</linearGradient>
		<path fill="url(#SVGID_6_)" d="M166.461,138.355c0,0,1.732,4.229-3.061,6.633c-3.033,1.52-5.414-0.672-5.414-0.672l-4.592-2.965
			c0,0,5.871,3.676,8.957-0.121c3.088-3.797,0.301-5.982,0.301-5.982L166.461,138.355z"/>
		
			<linearGradient id="SVGID_7_" gradientUnits="userSpaceOnUse" x1="-2603.0391" y1="-1388.7236" x2="-2599.9612" y2="-1386.0308" gradientTransform="matrix(-0.0376 -0.9993 0.9993 -0.0376 1442.2836 -2517.3003)">
			<stop  offset="0" style="stop-color:#484848"/>
			<stop  offset="0.2454" style="stop-color:#A6A6A7"/>
			<stop  offset="1" style="stop-color:#000000"/>
		</linearGradient>
		<path fill="url(#SVGID_7_)" d="M159.01,132.58c0,0,1.807,4.584-3.158,7.174c-3.145,1.641-5.61-0.738-5.61-0.738l-4.767-3.217
			c0,0,6.092,3.99,9.284-0.115c3.191-4.104,0.302-6.479,0.302-6.479L159.01,132.58z"/>
		
			<linearGradient id="SVGID_8_" gradientUnits="userSpaceOnUse" x1="-2595.5425" y1="-1396.4424" x2="-2592.4282" y2="-1393.7177" gradientTransform="matrix(-0.0376 -0.9993 0.9993 -0.0376 1442.2836 -2517.3003)">
			<stop  offset="0" style="stop-color:#484848"/>
			<stop  offset="0.2454" style="stop-color:#A6A6A7"/>
			<stop  offset="1" style="stop-color:#000000"/>
		</linearGradient>
		<path fill="url(#SVGID_8_)" d="M150.586,125.87c0,0,1.924,5.63-3.277,8.767c-3.291,1.986-5.898-0.943-5.898-0.943l-6.189-3.492
			c0,0,7.59,4.447,10.918-0.561c3.332-5.004,0.277-7.932,0.277-7.932L150.586,125.87z"/>
		
			<linearGradient id="SVGID_9_" gradientUnits="userSpaceOnUse" x1="-2577.4102" y1="-1461.1934" x2="-2511.7141" y2="-1415.4694" gradientTransform="matrix(-0.0376 -0.9993 0.9993 -0.0376 1442.2836 -2517.3003)">
			<stop  offset="0" style="stop-color:#7CA4BD"/>
			<stop  offset="0.632" style="stop-color:#CFDBF0"/>
			<stop  offset="1" style="stop-color:#FFFFFF"/>
		</linearGradient>
		<polygon fill="url(#SVGID_9_)" points="131.865,129.092 137.117,125.566 59.368,69.229 41.06,69.553 		"/>
		
			<linearGradient id="SVGID_10_" gradientUnits="userSpaceOnUse" x1="-2563.5054" y1="-1453.7949" x2="-2564.6794" y2="-1428.5641" gradientTransform="matrix(-0.0376 -0.9993 0.9993 -0.0376 1442.2836 -2517.3003)">
			<stop  offset="0.092" style="stop-color:#A8CEC9;stop-opacity:0"/>
			<stop  offset="0.1885" style="stop-color:#C4DEDA;stop-opacity:0.3455"/>
			<stop  offset="0.2883" style="stop-color:#E5F0EF;stop-opacity:0.7027"/>
			<stop  offset="0.4663" style="stop-color:#FFFFFF"/>
			<stop  offset="1" style="stop-color:#A8CEC9;stop-opacity:0"/>
		</linearGradient>
		<polygon fill="url(#SVGID_10_)" points="131.865,129.092 137.117,125.566 59.368,69.229 41.06,69.553 		"/>
		
			<linearGradient id="SVGID_11_" gradientUnits="userSpaceOnUse" x1="191.1094" y1="693.8047" x2="198.895" y2="673.5621" gradientTransform="matrix(1 0 0 1 -100 -591)">
			<stop  offset="0" style="stop-color:#7992B3"/>
			<stop  offset="0.5938" style="stop-color:#B2CFE3"/>
			<stop  offset="1" style="stop-color:#FFFFFF"/>
		</linearGradient>
		<polygon fill="url(#SVGID_11_)" points="141.741,115.732 137.117,125.566 59.368,69.229 57.619,45.302 		"/>
		
			<linearGradient id="SVGID_12_" gradientUnits="userSpaceOnUse" x1="148.3203" y1="641.291" x2="145.9115" y2="654.2985" gradientTransform="matrix(1 0 0 1 -100 -591)">
			<stop  offset="0" style="stop-color:#B6CEE1"/>
			<stop  offset="0.3566" style="stop-color:#CDDEEB"/>
			<stop  offset="1" style="stop-color:#FFFFFF"/>
		</linearGradient>
		<polygon fill="url(#SVGID_12_)" points="34.667,45.42 41.06,69.553 59.368,69.229 57.619,45.302 		"/>
		<path d="M148.15,129.562c1.358-0.018,2.188,0.984,1.853,2.236c-0.337,1.256-1.71,2.283-3.069,2.303
			c-1.357,0.017-2.188-0.986-1.853-2.238C145.418,130.609,146.79,129.58,148.15,129.562z"/>
		<path d="M155.818,135.707c1.248-0.016,2.009,0.904,1.699,2.055c-0.31,1.151-1.569,2.096-2.815,2.111s-2.009-0.904-1.701-2.055
			C153.311,136.669,154.57,135.723,155.818,135.707z"/>
		<path d="M163.376,141.451c1.126-0.014,1.813,0.816,1.534,1.854c-0.277,1.039-1.416,1.895-2.542,1.906
			c-1.126,0.014-1.813-0.816-1.535-1.854C161.111,142.318,162.25,141.465,163.376,141.451z"/>
		
			<radialGradient id="SVGID_13_" cx="-2569.9761" cy="-1428.5752" r="8.2494" fx="-2569.9246" fy="-1429.4491" gradientTransform="matrix(-0.0342 -0.9993 0.9086 -0.0376 1362.0336 -2517.3003)" gradientUnits="userSpaceOnUse">
			<stop  offset="0" style="stop-color:#FFFF00"/>
			<stop  offset="0.3313" style="stop-color:#FFD400"/>
			<stop  offset="0.4016" style="stop-color:#FCD001"/>
			<stop  offset="0.4777" style="stop-color:#F2C303"/>
			<stop  offset="0.5565" style="stop-color:#E2AD06"/>
			<stop  offset="0.6371" style="stop-color:#CC8F0B"/>
			<stop  offset="0.7184" style="stop-color:#B06811"/>
			<stop  offset="0.7485" style="stop-color:#A45814"/>
			<stop  offset="0.9002" style="stop-color:#B57010"/>
			<stop  offset="1" style="stop-color:#BD7B0E"/>
		</radialGradient>
		<path fill="url(#SVGID_13_)" d="M152.768,98.303c3.187-0.133,5.862,2.6,5.983,6.104c0.12,3.504-2.364,6.448-5.549,6.579
			c-3.185,0.134-5.862-2.601-5.981-6.103C147.102,101.381,149.583,98.436,152.768,98.303z"/>
		
			<radialGradient id="SVGID_14_" cx="-2590.0864" cy="-1448.3716" r="14.0968" gradientTransform="matrix(-0.0342 -0.9993 0.9086 -0.0376 1362.0336 -2517.3003)" gradientUnits="userSpaceOnUse">
			<stop  offset="0" style="stop-color:#FFFF00"/>
			<stop  offset="0.3313" style="stop-color:#FFD400"/>
			<stop  offset="0.4016" style="stop-color:#FCD001"/>
			<stop  offset="0.4777" style="stop-color:#F2C303"/>
			<stop  offset="0.5565" style="stop-color:#E2AD06"/>
			<stop  offset="0.6371" style="stop-color:#CC8F0B"/>
			<stop  offset="0.7184" style="stop-color:#B06811"/>
			<stop  offset="0.7485" style="stop-color:#A45814"/>
			<stop  offset="0.9002" style="stop-color:#B57010"/>
			<stop  offset="1" style="stop-color:#BD7B0E"/>
		</radialGradient>
		<path fill="url(#SVGID_14_)" d="M140.477,118.137c4.047-0.068,6.979,3.096,6.551,7.066c-0.426,3.967-4.053,7.238-8.101,7.305
			c-4.045,0.065-6.979-3.098-6.549-7.066C132.805,121.473,136.43,118.203,140.477,118.137z"/>
		
			<linearGradient id="SVGID_15_" gradientUnits="userSpaceOnUse" x1="-2734.3848" y1="-1071.4512" x2="-2718.7354" y2="-1071.4512" gradientTransform="matrix(0.112 -0.9452 1.0599 -0.0158 1580.9611 -2467.5979)">
			<stop  offset="0" style="stop-color:#FFCA00"/>
			<stop  offset="0.2793" style="stop-color:#EBAE0B"/>
			<stop  offset="0.8792" style="stop-color:#B96725"/>
			<stop  offset="1" style="stop-color:#AE582B"/>
		</linearGradient>
		<path fill="url(#SVGID_15_)" d="M140.753,119.08c4.163-0.068,7.181,3.188,6.741,7.27c-0.441,4.084-4.174,7.449-8.335,7.521
			c-4.162,0.065-7.181-3.188-6.74-7.271C132.859,122.516,136.589,119.148,140.753,119.08z"/>
		
			<radialGradient id="SVGID_16_" cx="-1475.3198" cy="-1281.3633" r="3.314" fx="-1475.7683" fy="-1281.3014" gradientTransform="matrix(0.9048 0.0993 -0.083 0.9145 1368.1218 1444.7432)" gradientUnits="userSpaceOnUse">
			<stop  offset="0" style="stop-color:#FFFF00"/>
			<stop  offset="0.3313" style="stop-color:#FFD400"/>
			<stop  offset="0.4016" style="stop-color:#FCD001"/>
			<stop  offset="0.4777" style="stop-color:#F2C303"/>
			<stop  offset="0.5565" style="stop-color:#E2AD06"/>
			<stop  offset="0.6371" style="stop-color:#CC8F0B"/>
			<stop  offset="0.7184" style="stop-color:#B06811"/>
			<stop  offset="0.7485" style="stop-color:#A45814"/>
			<stop  offset="0.9002" style="stop-color:#B57010"/>
			<stop  offset="1" style="stop-color:#BD7B0E"/>
		</radialGradient>
		<path fill="url(#SVGID_16_)" d="M140.249,123.75c1.533-0.025,2.647,1.174,2.483,2.68c-0.16,1.504-1.537,2.744-3.07,2.771
			c-1.534,0.025-2.645-1.178-2.484-2.682C137.341,125.016,138.715,123.773,140.249,123.75z"/>
		
			<radialGradient id="SVGID_17_" cx="-2700.0947" cy="-2035.748" r="8.2492" fx="-2700.0432" fy="-2036.6218" gradientTransform="matrix(-0.3284 -0.9325 -0.8478 0.3612 -2538.4475 -1632.3184)" gradientUnits="userSpaceOnUse">
			<stop  offset="0" style="stop-color:#FFFF00"/>
			<stop  offset="0.3313" style="stop-color:#FFD400"/>
			<stop  offset="0.4016" style="stop-color:#FCD001"/>
			<stop  offset="0.4777" style="stop-color:#F2C303"/>
			<stop  offset="0.5565" style="stop-color:#E2AD06"/>
			<stop  offset="0.6371" style="stop-color:#CC8F0B"/>
			<stop  offset="0.7184" style="stop-color:#B06811"/>
			<stop  offset="0.7485" style="stop-color:#A45814"/>
			<stop  offset="0.9002" style="stop-color:#B57010"/>
			<stop  offset="1" style="stop-color:#BD7B0E"/>
		</radialGradient>
		<path fill="url(#SVGID_17_)" d="M71.132,144.801c-2.973,1.266-4.447,4.941-3.297,8.209c1.152,3.27,4.493,4.893,7.465,3.627
			c2.972-1.268,4.447-4.941,3.296-8.211C77.445,145.158,74.102,143.535,71.132,144.801z"/>
		
			<linearGradient id="SVGID_18_" gradientUnits="userSpaceOnUse" x1="-3526.6631" y1="-2939.0386" x2="-3531.4963" y2="-2934.3718" gradientTransform="matrix(-0.1002 -0.8239 -0.7252 0.4443 -2428.894 -1462.0079)">
			<stop  offset="0" style="stop-color:#FFCA00"/>
			<stop  offset="0.2793" style="stop-color:#EBAE0B"/>
			<stop  offset="0.8792" style="stop-color:#B96725"/>
			<stop  offset="1" style="stop-color:#AE582B"/>
		</linearGradient>
		<path fill="url(#SVGID_18_)" d="M41.532,129.557c-0.846-0.479-2.079,0.309-2.76,1.75l0,0c-0.678,1.447-0.544,3.008,0.301,3.488
			l28.783,16.146c0.844,0.479,2.082-0.305,2.76-1.75l0,0c0.679-1.447,0.545-3.01-0.299-3.488L41.532,129.557z"/>
		<g>
			
				<linearGradient id="SVGID_19_" gradientUnits="userSpaceOnUse" x1="-2748.0947" y1="-2038.8174" x2="-2709.3777" y2="-2045.7667" gradientTransform="matrix(-0.3915 -0.9202 -0.9202 0.3915 -2900.4421 -1548.3235)">
				<stop  offset="0" style="stop-color:#D16E00"/>
				<stop  offset="0.1896" style="stop-color:#B56205"/>
				<stop  offset="0.5959" style="stop-color:#6E4313"/>
				<stop  offset="1" style="stop-color:#222222"/>
			</linearGradient>
			<path fill="url(#SVGID_19_)" d="M59.487,147.801l-18.449,26.862c0,0-3.043,2.66-5.562,0.788
				c-2.551-1.895-2.164-5.166-2.164-5.166l14.554-27.646L59.487,147.801z"/>
			
				<linearGradient id="SVGID_20_" gradientUnits="userSpaceOnUse" x1="-2742.9521" y1="-2047.6958" x2="-2709.8145" y2="-2037.7883" gradientTransform="matrix(-0.3915 -0.9202 -0.9202 0.3915 -2900.4421 -1548.3235)">
				<stop  offset="0" style="stop-color:#906E81"/>
				<stop  offset="0.2884" style="stop-color:#745B69"/>
				<stop  offset="0.9081" style="stop-color:#2D2A2C"/>
				<stop  offset="1" style="stop-color:#222222"/>
			</linearGradient>
			<path fill="url(#SVGID_20_)" d="M59.487,147.801l-18.449,26.862c0,0-3.043,2.66-5.562,0.788
				c-2.551-1.895-2.164-5.166-2.164-5.166l14.554-27.646L59.487,147.801z"/>
			<g>
				
					<linearGradient id="SVGID_21_" gradientUnits="userSpaceOnUse" x1="-2731.1538" y1="-2046.5161" x2="-2719.3486" y2="-2038.8586" gradientTransform="matrix(-0.3915 -0.9202 -0.9202 0.3915 -2900.4421 -1548.3235)">
					<stop  offset="0" style="stop-color:#9F8292"/>
					<stop  offset="0.257" style="stop-color:#836D79"/>
					<stop  offset="0.8088" style="stop-color:#3C3639"/>
					<stop  offset="1" style="stop-color:#222222"/>
				</linearGradient>
				<path fill="url(#SVGID_21_)" d="M57.658,146.982l1.829,0.816l-18.449,26.862c0,0-0.853,0.739-2.026,1.165L57.658,146.982z"/>
			</g>
		</g>
		
			<linearGradient id="SVGID_22_" gradientUnits="userSpaceOnUse" x1="-2722.4575" y1="-2046.1226" x2="-2719.5159" y2="-2043.5488" gradientTransform="matrix(-0.3612 -0.9325 -0.9325 0.3612 -2848.1152 -1632.3184)">
			<stop  offset="0" style="stop-color:#484848"/>
			<stop  offset="0.2454" style="stop-color:#A6A6A7"/>
			<stop  offset="1" style="stop-color:#000000"/>
		</linearGradient>
		<path fill="url(#SVGID_22_)" d="M35.312,166.631c0,0-0.069,4.641,5.197,4.756c3.334,0.074,4.729-2.976,4.729-2.976l3.147-4.722
			c0,0-4.065,5.932-8.267,3.791c-4.202-2.143-2.43-5.363-2.43-5.363L35.312,166.631z"/>
		
			<linearGradient id="SVGID_23_" gradientUnits="userSpaceOnUse" x1="-2715.728" y1="-2053.2295" x2="-2712.7573" y2="-2050.6304" gradientTransform="matrix(-0.3612 -0.9325 -0.9325 0.3612 -2848.1152 -1632.3184)">
			<stop  offset="0" style="stop-color:#484848"/>
			<stop  offset="0.2454" style="stop-color:#A6A6A7"/>
			<stop  offset="1" style="stop-color:#000000"/>
		</linearGradient>
		<path fill="url(#SVGID_23_)" d="M40.072,158.081c0,0-0.007,4.995,5.484,5.212c3.478,0.137,4.886-3.123,4.886-3.123l3.218-5.031
			c0,0-4.155,6.318-8.565,3.941c-4.41-2.379-2.61-5.818-2.61-5.818L40.072,158.081z"/>
		
			<linearGradient id="SVGID_24_" gradientUnits="userSpaceOnUse" x1="-2708.0156" y1="-2061.3223" x2="-2705.0098" y2="-2058.6924" gradientTransform="matrix(-0.3612 -0.9325 -0.9325 0.3612 -2848.1152 -1632.3184)">
			<stop  offset="0" style="stop-color:#484848"/>
			<stop  offset="0.2454" style="stop-color:#A6A6A7"/>
			<stop  offset="1" style="stop-color:#000000"/>
		</linearGradient>
		<path fill="url(#SVGID_24_)" d="M45.391,148.25c0,0,0.263,6.008,6.166,6.623c3.74,0.389,5.078-3.439,5.078-3.439l4.428-5.9
			c0,0-5.367,7.391-10.229,4.242c-4.858-3.145-3.11-7.164-3.11-7.164L45.391,148.25z"/>
		
			<linearGradient id="SVGID_25_" gradientUnits="userSpaceOnUse" x1="-2688.0596" y1="-2127.7412" x2="-2623.3884" y2="-2082.7305" gradientTransform="matrix(-0.3612 -0.9325 -0.9325 0.3612 -2848.1152 -1632.3184)">
			<stop  offset="0" style="stop-color:#D2E6FF"/>
			<stop  offset="0.6457" style="stop-color:#EEF5F4"/>
			<stop  offset="1" style="stop-color:#FFFFFF"/>
		</linearGradient>
		<polygon fill="url(#SVGID_25_)" points="63.739,143.055 57.649,142.104 108.751,56.504 125.68,48.825 		"/>
		
			<linearGradient id="SVGID_26_" gradientUnits="userSpaceOnUse" x1="-2674.4585" y1="-2120.5913" x2="-2675.6736" y2="-2094.4792" gradientTransform="matrix(-0.3612 -0.9325 -0.9325 0.3612 -2848.1152 -1632.3184)">
			<stop  offset="0.092" style="stop-color:#A8CEC9;stop-opacity:0"/>
			<stop  offset="0.1885" style="stop-color:#C4DEDA;stop-opacity:0.3455"/>
			<stop  offset="0.2883" style="stop-color:#E5F0EF;stop-opacity:0.7027"/>
			<stop  offset="0.4663" style="stop-color:#FFFFFF"/>
			<stop  offset="1" style="stop-color:#A8CEC9;stop-opacity:0"/>
		</linearGradient>
		<polygon fill="url(#SVGID_26_)" points="63.739,143.055 57.649,142.104 108.751,56.504 125.68,48.825 		"/>
		
			<linearGradient id="SVGID_27_" gradientUnits="userSpaceOnUse" x1="-2669.3223" y1="-2114.4932" x2="-2703.4526" y2="-2139.7629" gradientTransform="matrix(-0.3612 -0.9325 -0.9325 0.3612 -2848.1152 -1632.3184)">
			<stop  offset="0" style="stop-color:#6883A2"/>
			<stop  offset="1" style="stop-color:#FFFFFF"/>
		</linearGradient>
		<polygon fill="url(#SVGID_27_)" points="49.862,135.088 57.649,142.104 108.751,56.504 101.738,33.771 		"/>
		
			<linearGradient id="SVGID_28_" gradientUnits="userSpaceOnUse" x1="-2630.126" y1="-2157.5977" x2="-2630.126" y2="-2162.2732" gradientTransform="matrix(-0.3612 -0.9325 -0.9325 0.3612 -2848.1152 -1632.3184)">
			<stop  offset="0" style="stop-color:#B8CEE8"/>
			<stop  offset="0.3566" style="stop-color:#C4DEF2"/>
			<stop  offset="1" style="stop-color:#FFFFFF"/>
		</linearGradient>
		<polygon fill="url(#SVGID_28_)" points="122.855,23.881 125.68,48.825 108.751,56.504 101.738,33.771 		"/>
		<path d="M48.958,150.58c-1.256,0.576-1.655,1.857-0.896,2.861c0.761,1.004,2.394,1.352,3.646,0.773
			c1.254-0.574,1.654-1.857,0.896-2.861C51.844,150.35,50.212,150.004,48.958,150.58z"/>
		<path d="M44.129,159.562c-1.151,0.528-1.519,1.705-0.821,2.627c0.698,0.922,2.195,1.24,3.348,0.711
			c1.15-0.528,1.519-1.705,0.82-2.627C46.78,159.352,45.281,159.033,44.129,159.562z"/>
		<path d="M39.259,168.129c-1.039,0.477-1.371,1.539-0.742,2.371c0.63,0.832,1.982,1.119,3.021,0.643
			c1.037-0.479,1.371-1.541,0.741-2.371C41.65,167.939,40.297,167.65,39.259,168.129z"/>
		
			<radialGradient id="SVGID_29_" cx="-2665.627" cy="-2004.6646" r="8.2484" fx="-2665.5752" fy="-2005.5383" gradientTransform="matrix(-0.3284 -0.9325 -0.8478 0.3612 -2538.4475 -1632.3184)" gradientUnits="userSpaceOnUse">
			<stop  offset="0" style="stop-color:#FFFF00"/>
			<stop  offset="0.3313" style="stop-color:#FFD400"/>
			<stop  offset="0.4016" style="stop-color:#FCD001"/>
			<stop  offset="0.4777" style="stop-color:#F2C303"/>
			<stop  offset="0.5565" style="stop-color:#E2AD06"/>
			<stop  offset="0.6371" style="stop-color:#CC8F0B"/>
			<stop  offset="0.7184" style="stop-color:#B06811"/>
			<stop  offset="0.7485" style="stop-color:#A45814"/>
			<stop  offset="0.9002" style="stop-color:#B57010"/>
			<stop  offset="1" style="stop-color:#BD7B0E"/>
		</radialGradient>
		<path fill="url(#SVGID_29_)" d="M33.46,123.889c-2.973,1.268-4.448,4.939-3.296,8.209c1.151,3.271,4.493,4.895,7.465,3.625
			c2.972-1.266,4.446-4.938,3.296-8.209C39.772,124.244,36.431,122.622,33.46,123.889z"/>
		
			<radialGradient id="SVGID_30_" cx="-2685.7378" cy="-2024.4644" r="14.0958" gradientTransform="matrix(-0.3284 -0.9325 -0.8478 0.3612 -2538.4475 -1632.3184)" gradientUnits="userSpaceOnUse">
			<stop  offset="0" style="stop-color:#FFFF00"/>
			<stop  offset="0.3313" style="stop-color:#FFD400"/>
			<stop  offset="0.4016" style="stop-color:#FCD001"/>
			<stop  offset="0.4777" style="stop-color:#F2C303"/>
			<stop  offset="0.5565" style="stop-color:#E2AD06"/>
			<stop  offset="0.6371" style="stop-color:#CC8F0B"/>
			<stop  offset="0.7184" style="stop-color:#B06811"/>
			<stop  offset="0.7485" style="stop-color:#A45814"/>
			<stop  offset="0.9002" style="stop-color:#B57010"/>
			<stop  offset="1" style="stop-color:#BD7B0E"/>
		</radialGradient>
		<path fill="url(#SVGID_30_)" d="M51.888,136.746c-3.739,1.699-5.292,5.883-3.47,9.34c1.821,3.457,6.33,4.881,10.068,3.18
			c3.738-1.701,5.292-5.884,3.469-9.342C60.134,136.465,55.627,135.043,51.888,136.746z"/>
		
			<linearGradient id="SVGID_31_" gradientUnits="userSpaceOnUse" x1="-2868.314" y1="-1680.3154" x2="-2852.9341" y2="-1680.3154" gradientTransform="matrix(-0.4772 -0.8235 -0.9794 0.4053 -2955.4226 -1530.5195)">
			<stop  offset="0" style="stop-color:#FFCA00"/>
			<stop  offset="0.2793" style="stop-color:#EBAE0B"/>
			<stop  offset="0.8792" style="stop-color:#B96725"/>
			<stop  offset="1" style="stop-color:#AE582B"/>
		</linearGradient>
		<path fill="url(#SVGID_31_)" d="M51.975,137.732c-3.848,1.75-5.446,6.055-3.571,9.609c1.876,3.561,6.514,5.021,10.361,3.271
			c3.845-1.752,5.444-6.055,3.569-9.61C60.46,137.445,55.822,135.98,51.975,137.732z"/>
		
			<radialGradient id="SVGID_32_" cx="-2081.168" cy="-1009.9868" r="3.3119" fx="-2081.6162" fy="-1009.9249" gradientTransform="matrix(-0.795 0.4852 0.4054 0.8036 -1189.2921 1965.4584)" gradientUnits="userSpaceOnUse">
			<stop  offset="0" style="stop-color:#FFFF00"/>
			<stop  offset="0.3313" style="stop-color:#FFD400"/>
			<stop  offset="0.4016" style="stop-color:#FCD001"/>
			<stop  offset="0.4777" style="stop-color:#F2C303"/>
			<stop  offset="0.5565" style="stop-color:#E2AD06"/>
			<stop  offset="0.6371" style="stop-color:#CC8F0B"/>
			<stop  offset="0.7184" style="stop-color:#B06811"/>
			<stop  offset="0.7485" style="stop-color:#A45814"/>
			<stop  offset="0.9002" style="stop-color:#B57010"/>
			<stop  offset="1" style="stop-color:#BD7B0E"/>
		</radialGradient>
		<path fill="url(#SVGID_32_)" d="M54.118,141.801c-1.417,0.645-2.007,2.23-1.316,3.541c0.692,1.312,2.4,1.852,3.818,1.206
			c1.416-0.646,2.005-2.231,1.314-3.542C57.245,141.695,55.535,141.154,54.118,141.801z"/>
	</g>
</g>
<g id="outline_x5F_white">
	<g>
		<g>
			<path fill="#FFFFFF" d="M122.855,23.881l2.821,24.943l-22.665,34.482l38.174,31.961l6.211-8.242
				c0.052-0.07,0.117-0.121,0.181-0.176c-0.208-0.615-0.334-1.274-0.356-1.967c-0.119-3.504,2.362-6.449,5.547-6.582
				c0.074-0.003,0.148-0.005,0.225-0.005c3.086,0,5.643,2.688,5.761,6.108c0.12,3.504-2.364,6.447-5.549,6.578
				c-0.072,0.004-0.146,0.006-0.216,0.006c-0.506,0-0.993-0.071-1.463-0.206l-6.658,8.841c0.71,0.594,1.277,1.338,1.658,2.191
				l0.93,0.93l22.156,18.096c0,0,1.535,2.834-0.125,5.688c-0.772,1.328-2.014,1.777-3.11,1.885l0.001,0.002
				c-0.009,0-0.018,0-0.023,0.001c-0.142,0.015-0.278,0.022-0.414,0.024c-0.008,0-0.015,0.002-0.021,0.002c-0.041,0-0.081,0-0.121,0
				c-0.961,0-1.697-0.215-1.697-0.215l-23.306-14.562c-0.532,0.12-1.078,0.19-1.632,0.201c-0.044,0.001-0.087,0.001-0.13,0.001
				c-1.521,0-2.888-0.449-3.978-1.219l-3.834,5.092c0.273,0.699,0.444,1.467,0.471,2.275c0.121,3.502-2.36,6.447-5.547,6.58
				c-0.074,0.004-0.146,0.006-0.221,0.006c-3.087,0-5.646-2.687-5.762-6.107c-0.12-3.502,2.363-6.448,5.548-6.58
				c0.069-0.003,0.138-0.004,0.206-0.004c0.387,0,0.766,0.046,1.134,0.127l4.085-5.426L90.672,102.08L64.24,142.294l5.706,3.201
				c0.363-0.274,0.756-0.513,1.186-0.694c0.685-0.292,1.389-0.43,2.082-0.43c2.312,0,4.497,1.54,5.382,4.055
				c1.151,3.27-0.324,6.943-3.296,8.211c-0.685,0.293-1.389,0.43-2.083,0.43c-2.313,0-4.496-1.541-5.382-4.057
				c-0.266-0.756-0.385-1.531-0.385-2.297l-5.354-3.003c-0.746,1.214-1.878,2.243-3.332,2.905c-0.513,0.232-1.041,0.404-1.571,0.527
				l-16.155,23.521c0,0-0.649,0.562-1.593,0.987c-0.007,0.004-0.015,0.008-0.023,0.012c-0.122,0.055-0.247,0.105-0.377,0.152
				c-0.012,0.004-0.021,0.01-0.033,0.014l0.001-0.002c-0.47,0.17-0.993,0.29-1.533,0.29c-0.661,0-1.35-0.181-2.003-0.665
				c-2.551-1.895-2.164-5.166-2.164-5.166l13.829-26.27l0.52-1.258c0.041-0.949,0.295-1.881,0.734-2.734l-9.301-5.217
				c-0.435,0.372-0.925,0.687-1.466,0.916c-0.686,0.29-1.391,0.43-2.084,0.43c-2.312,0-4.495-1.539-5.38-4.055
				c-1.152-3.271,0.323-6.943,3.296-8.21c0.686-0.293,1.39-0.432,2.083-0.432c2.312,0,4.495,1.54,5.381,4.057
				c0.228,0.646,0.348,1.306,0.38,1.96c0.077,0.021,0.155,0.043,0.228,0.084l8.671,4.862l22.568-44.075L41.06,69.553L34.667,45.42
				l22.952-0.118l26.749,22.396l17.37-33.926L122.855,23.881 M146.838,122.242c-0.122-0.184-0.229-0.318-0.309-0.408
				c0.033,0.076,0.06,0.154,0.09,0.229L146.838,122.242 M47.527,143.287l0.136-0.26c0-0.084-0.005-0.166-0.002-0.25
				C47.624,142.895,47.571,143.064,47.527,143.287 M122.855,11.881c-1.735,0-3.476,0.376-5.09,1.133l-21.118,9.89
				c-2.411,1.129-4.378,3.028-5.591,5.398L80.541,48.843L65.323,36.102c-2.16-1.809-4.888-2.799-7.704-2.799
				c-0.021,0-0.041,0-0.062,0L34.605,33.42c-3.714,0.02-7.209,1.757-9.467,4.706c-2.257,2.949-3.022,6.777-2.071,10.367
				l6.393,24.132c0.758,2.86,2.546,5.34,5.02,6.962L57.178,94.47l-10.695,20.888c-3.062-2.467-6.891-3.898-10.938-3.898
				c-2.339,0-4.624,0.468-6.791,1.393c-8.822,3.756-13.176,13.965-9.908,23.236c2.087,5.928,6.985,10.256,12.793,11.615
				l-8.946,16.992c-0.686,1.303-1.125,2.721-1.298,4.182c-0.555,4.691,0.926,11.753,6.926,16.209
				c2.667,1.98,5.835,3.031,9.158,3.031c1.775,0,3.556-0.303,5.3-0.896c0.009-0.003,0.018-0.007,0.027-0.01
				c0.174-0.059,0.352-0.122,0.528-0.189c0.327-0.123,0.653-0.256,0.972-0.397c0.035-0.017,0.071-0.032,0.107-0.049
				c2.276-1.032,3.891-2.329,4.481-2.843c0.772-0.668,1.457-1.434,2.035-2.274l11.247-16.375c3.079,2.521,6.949,3.983,11.041,3.983
				c2.337,0,4.62-0.467,6.785-1.391c8.824-3.764,13.176-13.97,9.913-23.236c-1.317-3.738-3.753-6.844-6.831-8.967l11.031-16.783
				l17.141,11.238c-2.068,3.122-3.227,6.926-3.088,10.979c0.338,9.922,8.137,17.696,17.755,17.696c0.236,0,0.472-0.004,0.709-0.016
				c6.681-0.277,12.369-4.357,15.183-10.135l15.924,9.947c0.931,0.58,1.935,1.031,2.984,1.34c0.894,0.262,2.737,0.699,5.071,0.699
				c0.118,0,0.235-0.002,0.356-0.004c0.088-0.002,0.177-0.004,0.266-0.008c0.275-0.01,0.557-0.024,0.839-0.05
				c0.235-0.019,0.47-0.041,0.701-0.071c5.062-0.619,9.383-3.425,11.899-7.744c3.729-6.403,2.496-13.396,0.309-17.438
				c-0.744-1.375-1.751-2.592-2.963-3.581l-14.309-11.687c4.918-3.43,8.074-9.319,7.852-15.866
				c-0.344-9.925-8.143-17.697-17.754-17.697c-0.24,0-0.48,0.005-0.723,0.015c-6.602,0.275-12.238,4.275-15.08,9.956l-18.276-15.302
				l16.795-25.551c1.541-2.344,2.212-5.154,1.896-7.941l-2.822-24.943c-0.436-3.84-2.691-7.236-6.064-9.123
				C126.898,12.393,124.879,11.881,122.855,11.881L122.855,11.881z"/>
		</g>
	</g>
</g>
<g id="outline_x5F_black">
	<g>
		<path d="M47.527,143.287l0.136-0.26c0-0.084-0.005-0.166-0.002-0.25C47.624,142.895,47.571,143.064,47.527,143.287z"/>
		<path d="M174.891,137.984c-0.373-0.688-0.875-1.295-1.481-1.791l-20.747-16.941l1.771-2.354
			c5.986-0.774,10.537-6.266,10.314-12.695c-0.229-6.676-5.396-11.903-11.757-11.903c-0.157,0-0.314,0.003-0.474,0.01
			c-6.459,0.269-11.523,6.002-11.295,12.781c0.002,0.05,0.004,0.101,0.006,0.151l-1.033,1.371l-29.232-24.475l19.729-30.016
			c0.771-1.172,1.106-2.577,0.949-3.971l-2.824-24.943c-0.217-1.92-1.346-3.618-3.03-4.562c-0.909-0.509-1.919-0.765-2.931-0.765
			c-0.869,0-1.737,0.188-2.545,0.566l-21.118,9.89c-1.206,0.564-2.189,1.514-2.796,2.699L82.455,58.27L61.471,40.702
			c-1.08-0.904-2.443-1.399-3.852-1.399c-0.01,0-0.021,0-0.031,0L34.636,39.42c-1.857,0.01-3.605,0.878-4.733,2.353
			c-1.129,1.474-1.511,3.388-1.036,5.184l6.393,24.132c0.379,1.43,1.272,2.67,2.51,3.481l27.205,17.838l-17.271,33.73l-1.123-0.632
			c-1.701-4.813-6.135-8.051-11.036-8.051c-1.526,0-3.019,0.308-4.437,0.911c-5.919,2.521-8.821,9.428-6.602,15.723
			c1.698,4.821,6.134,8.062,11.039,8.062c1.168,0,2.318-0.18,3.429-0.534l2.046,1.147L28.003,167.49
			c-0.343,0.65-0.563,1.359-0.649,2.091c-0.367,3.101,0.604,7.76,4.545,10.687c1.626,1.209,3.557,1.851,5.581,1.851
			c1.123,0,2.263-0.196,3.391-0.583c0.011-0.004,0.022-0.01,0.034-0.014c0.095-0.029,0.195-0.065,0.295-0.104
			c0.231-0.087,0.456-0.181,0.676-0.276c0.015-0.008,0.034-0.017,0.052-0.022c1.608-0.729,2.732-1.65,3.039-1.916
			c0.386-0.334,0.728-0.718,1.018-1.138l15.027-21.879c0.078-0.033,0.155-0.067,0.231-0.104c0.385-0.176,0.76-0.367,1.124-0.573
			c1.826,4.548,6.122,7.562,10.852,7.562c1.524,0,3.016-0.307,4.434-0.909c5.92-2.524,8.82-9.433,6.604-15.726
			c-1.608-4.567-5.677-7.719-10.273-8.035l18.412-28.012l28.522,18.701c-4.127,2.047-6.925,6.537-6.75,11.614
			c0.227,6.673,5.393,11.901,11.758,11.901c0.155,0,0.311-0.004,0.467-0.01c6.465-0.271,11.531-6.005,11.297-12.783
			c0-0.002,0-0.006,0-0.01c0.442,0.045,0.893,0.066,1.345,0.066l0.229-0.002c0.043-0.001,0.084-0.001,0.127-0.003l21.529,13.45
			c0.464,0.291,0.966,0.516,1.491,0.67c0.366,0.105,1.694,0.457,3.386,0.457h0.122c0.036,0,0.072,0,0.108-0.002h0.002
			c0.053,0,0.104-0.002,0.156-0.004c0.199-0.006,0.401-0.021,0.611-0.037c0.13-0.008,0.262-0.021,0.389-0.039
			c3.246-0.383,5.896-2.084,7.485-4.812C177.15,145.292,176.337,140.659,174.891,137.984z M41.06,69.553L34.667,45.42l22.952-0.118
			l24.493,20.507L70.555,88.891L41.06,69.553z M69.946,145.495c0.363-0.274,0.756-0.513,1.186-0.694
			c0.685-0.292,1.389-0.43,2.082-0.43c2.312,0,4.497,1.54,5.382,4.055c1.151,3.27-0.324,6.943-3.296,8.211
			c-0.685,0.293-1.389,0.43-2.083,0.43c-2.313,0-4.496-1.541-5.382-4.057c-0.266-0.756-0.385-1.531-0.385-2.297l-5.354-3.003
			c-0.746,1.214-1.878,2.243-3.332,2.905c-0.513,0.232-1.041,0.404-1.571,0.527l-16.155,23.521c0,0-0.649,0.562-1.593,0.987
			c-0.007,0.004-0.015,0.008-0.023,0.012c-0.122,0.055-0.247,0.105-0.377,0.152c-0.012,0.004-0.021,0.01-0.033,0.014l0.001-0.002
			c-0.47,0.17-0.993,0.29-1.533,0.29c-0.661,0-1.35-0.181-2.003-0.665c-2.551-1.895-2.164-5.166-2.164-5.166l13.829-26.27
			l0.52-1.258c0.041-0.949,0.295-1.881,0.734-2.734l-9.301-5.217c-0.435,0.372-0.925,0.687-1.466,0.916
			c-0.686,0.29-1.391,0.43-2.084,0.43c-2.312,0-4.495-1.539-5.38-4.055c-1.152-3.271,0.323-6.943,3.296-8.21
			c0.686-0.293,1.39-0.432,2.083-0.432c2.312,0,4.495,1.54,5.381,4.057c0.228,0.646,0.348,1.306,0.38,1.96
			c0.077,0.021,0.155,0.043,0.228,0.084l8.671,4.862l22.566-44.073h0l11.597-22.648l17.37-33.926l21.117-9.891l2.821,24.943
			l-22.665,34.482l0.001,0l-12.34,18.774l-0.001-0.001L64.24,142.294L69.946,145.495z M169.486,146.527
			c-0.772,1.328-2.014,1.777-3.11,1.885l0.001,0.002c-0.009,0-0.018,0-0.023,0.001c-0.142,0.015-0.278,0.022-0.414,0.024
			c-0.008,0-0.015,0.002-0.021,0.002c-0.041,0-0.081,0-0.121,0c-0.961,0-1.697-0.215-1.697-0.215l-23.306-14.562
			c-0.532,0.12-1.078,0.19-1.632,0.201c-0.044,0.001-0.087,0.001-0.13,0.001c-1.521,0-2.888-0.449-3.978-1.219l-3.834,5.092
			c0.273,0.699,0.444,1.467,0.471,2.275c0.121,3.502-2.36,6.447-5.547,6.58c-0.074,0.004-0.146,0.006-0.221,0.006
			c-3.087,0-5.646-2.687-5.762-6.107c-0.12-3.502,2.363-6.448,5.548-6.58c0.067-0.003,0.138-0.004,0.205-0.004
			c0.388,0,0.767,0.046,1.135,0.127l4.085-5.426l-38.803-25.442l12.183-18.604l36.671,30.703l6.211-8.242
			c0.052-0.07,0.117-0.121,0.181-0.176c-0.208-0.615-0.334-1.274-0.356-1.967c-0.119-3.504,2.362-6.449,5.547-6.582
			c0.074-0.003,0.148-0.005,0.225-0.005c3.086,0,5.643,2.688,5.761,6.108c0.12,3.504-2.364,6.447-5.549,6.578
			c-0.072,0.004-0.146,0.006-0.216,0.006c-0.506,0-0.993-0.071-1.463-0.206l-6.658,8.841c0.71,0.594,1.277,1.338,1.658,2.191
			l0.93,0.93l22.156,18.096C169.611,140.84,171.146,143.674,169.486,146.527z"/>
		<path d="M146.619,122.062l0.219,0.18c-0.122-0.184-0.229-0.318-0.309-0.408C146.562,121.91,146.589,121.988,146.619,122.062z"/>
	</g>
</g>
</svg>
