<?xml version="1.0" encoding="utf-8"?>
<!-- Generator: Adobe Illustrator 15.0.0, SVG Export Plug-In . SVG Version: 6.00 Build 0)  -->
<!DOCTYPE svg PUBLIC "-//W3C//DTD SVG 1.1//EN" "http://www.w3.org/Graphics/SVG/1.1/DTD/svg11.dtd">
<svg version="1.1" xmlns="http://www.w3.org/2000/svg" xmlns:xlink="http://www.w3.org/1999/xlink" x="0px" y="0px" width="200px"
	 height="200px" viewBox="0 0 200 200" enable-background="new 0 0 200 200" xml:space="preserve">
<g id="icon">
	<g id="Layer_2">
	</g>
	<g id="Layer_1_1_">
		<g>
			<g>
				<g>
					
						<radialGradient id="SVGID_1_" cx="204.3174" cy="636.3408" r="136.4431" gradientTransform="matrix(1 0 0 1 -100 -591)" gradientUnits="userSpaceOnUse">
						<stop  offset="0" style="stop-color:#FF0000"/>
						<stop  offset="0.1377" style="stop-color:#F50000"/>
						<stop  offset="0.3732" style="stop-color:#DA0000"/>
						<stop  offset="0.678" style="stop-color:#AD0000"/>
						<stop  offset="1" style="stop-color:#770000"/>
					</radialGradient>
					<path fill="url(#SVGID_1_)" d="M125.846,160.379c-1.834-0.246-45.279-6.371-77.357-35.982
						c-5.412-4.979-9.635-11.252-12.211-18.129c-4.164-11.138-3.775-22.707,1.096-32.577c4.396-8.908,12.062-15.415,21.585-18.322
						C63,54.135,67.382,53.51,71.984,53.51c8.183,0,15.212,1.952,18.87,3.201c4.491-8.254,11.824-14.195,20.908-16.865
						c3.396-0.998,6.939-1.504,10.533-1.504c17.779,0,34.812,12.341,41.424,30.011c2.614,6.988,3.449,14.369,2.413,21.346
						c-6.088,40.969-36.588,68.775-37.883,69.938l-1.031,0.926L125.846,160.379z"/>
				</g>
				<g opacity="0.3">
					<g>
						<path fill="#8A0036" d="M163.165,89.258c0.326-2.19,0.438-4.444,0.369-6.729c-4.533,42.268-39.327,63.688-39.327,63.688
							s-36.732-2.945-66.337-26.479c-25.318-20.126-23-52.667,4.758-62.178c-0.935,0.189-1.868,0.406-2.793,0.679
							c-19.068,5.604-28.353,26.636-20.748,46.977c2.499,6.671,6.506,12.438,11.436,16.978
							c31.75,29.311,75.722,35.215,75.722,35.215S157.166,129.628,163.165,89.258z"/>
					</g>
				</g>
				<g opacity="0.87">
					
						<radialGradient id="SVGID_2_" cx="441.0977" cy="182.0107" r="108.6715" gradientTransform="matrix(0.9392 0.2794 -0.3098 0.735 -244.0727 -179.7185)" gradientUnits="userSpaceOnUse">
						<stop  offset="0" style="stop-color:#FFFFFF;stop-opacity:0"/>
						<stop  offset="0.1274" style="stop-color:#FDFCFD;stop-opacity:0.061"/>
						<stop  offset="0.2308" style="stop-color:#F6F2F5;stop-opacity:0.1105"/>
						<stop  offset="0.3258" style="stop-color:#EAE1E8;stop-opacity:0.1559"/>
						<stop  offset="0.4158" style="stop-color:#D9C9D6;stop-opacity:0.199"/>
						<stop  offset="0.5022" style="stop-color:#C3AABE;stop-opacity:0.2404"/>
						<stop  offset="0.586" style="stop-color:#A884A1;stop-opacity:0.2805"/>
						<stop  offset="0.6677" style="stop-color:#89567F;stop-opacity:0.3196"/>
						<stop  offset="0.7457" style="stop-color:#652358;stop-opacity:0.3569"/>
						<stop  offset="0.7939" style="stop-color:#4C003D;stop-opacity:0.38"/>
						<stop  offset="1" style="stop-color:#FFFFFF;stop-opacity:0"/>
					</radialGradient>
					<path fill="url(#SVGID_2_)" d="M163.165,89.258c0.937-6.307,0.267-13.118-2.255-19.854
						c-7.61-20.341-29.235-32.285-48.303-26.68c-10.586,3.111-18.147,10.979-21.486,20.844c-9.331-6.136-20.7-8.443-31.286-5.33
						c-19.068,5.604-28.353,26.636-20.748,46.977c2.499,6.671,6.506,12.438,11.436,16.979c31.75,29.31,75.722,35.214,75.722,35.214
						S157.166,129.628,163.165,89.258z"/>
				</g>
			</g>
			
				<radialGradient id="SVGID_3_" cx="448.4053" cy="14.5244" r="57.3339" gradientTransform="matrix(0.9392 0.2794 -0.3988 0.9461 -278.3083 -98.5001)" gradientUnits="userSpaceOnUse">
				<stop  offset="0" style="stop-color:#FF72A9"/>
				<stop  offset="1" style="stop-color:#FF72A9;stop-opacity:0"/>
			</radialGradient>
			<path fill="url(#SVGID_3_)" d="M152.605,77.991c-5.808,13.775-23.938,20.95-40.498,16.023
				C95.55,89.089,86.833,73.927,92.641,60.151s23.939-20.95,40.498-16.024C149.697,49.054,158.413,64.216,152.605,77.991z"/>
			
				<radialGradient id="SVGID_4_" cx="386.4932" cy="33.3838" r="67.9071" gradientTransform="matrix(0.9392 0.2794 -0.3988 0.9461 -278.3083 -98.5001)" gradientUnits="userSpaceOnUse">
				<stop  offset="0" style="stop-color:#FF72A9"/>
				<stop  offset="1" style="stop-color:#FF72A9;stop-opacity:0"/>
			</radialGradient>
			<path fill="url(#SVGID_4_)" d="M105.001,93.123c-5.807,13.773-23.938,20.95-40.498,16.023
				C47.945,104.223,39.23,89.06,45.037,75.282c5.808-13.775,23.938-20.95,40.497-16.022
				C102.093,64.186,110.811,79.346,105.001,93.123z"/>
			
				<radialGradient id="SVGID_5_" cx="450.8193" cy="17.2695" r="57.332" gradientTransform="matrix(0.9392 0.2794 -0.3988 0.9461 -278.3083 -98.5001)" gradientUnits="userSpaceOnUse">
				<stop  offset="0" style="stop-color:#FFC29A"/>
				<stop  offset="1" style="stop-color:#FF723A;stop-opacity:0"/>
			</radialGradient>
			<path fill="url(#SVGID_5_)" d="M153.777,81.261c-5.807,13.775-23.939,20.949-40.498,16.022
				C96.722,92.357,88.005,77.196,93.812,63.42c5.809-13.775,23.939-20.95,40.499-16.024
				C150.868,52.323,159.584,67.485,153.777,81.261z"/>
			
				<radialGradient id="SVGID_6_" cx="388.9053" cy="36.126" r="67.9068" gradientTransform="matrix(0.9392 0.2794 -0.3988 0.9461 -278.3083 -98.5001)" gradientUnits="userSpaceOnUse">
				<stop  offset="0" style="stop-color:#FFC29A"/>
				<stop  offset="1" style="stop-color:#FF723A;stop-opacity:0"/>
			</radialGradient>
			<path fill="url(#SVGID_6_)" d="M106.173,96.392c-5.807,13.775-23.938,20.95-40.498,16.023
				c-16.558-4.926-25.273-20.088-19.466-33.863c5.808-13.776,23.939-20.951,40.498-16.023
				C103.266,67.454,111.98,82.614,106.173,96.392z"/>
		</g>
	</g>
</g>
<g id="outline_x5F_white">
	<g>
		<g>
			<path fill="#FFFFFF" d="M122.296,41.341c16.209,0,32.274,11.118,38.614,28.062c2.521,6.736,3.191,13.548,2.255,19.854
				c-5.999,40.37-36.92,68.147-36.92,68.147s-43.972-5.904-75.722-35.213c-4.93-4.539-8.938-10.309-11.436-16.979
				c-7.605-20.341,1.722-41.17,20.748-46.977c4.127-1.26,8.269-1.728,12.149-1.728c11.283,0,20.352,3.962,20.352,3.962
				c3.776-8.399,10.818-14.97,20.271-17.749C115.792,41.788,119.046,41.341,122.296,41.341 M122.296,29.341
				c-4.454,0-8.853,0.629-13.071,1.87c-9.022,2.652-16.668,7.867-22.261,15.051c-4.159-0.957-9.318-1.752-14.979-1.752
				c-5.493,0-10.759,0.757-15.652,2.251C44.408,50.4,34.809,58.549,29.302,69.708c-5.98,12.121-6.498,26.224-1.455,39.709
				c3.071,8.199,8.101,15.668,14.548,21.604c34.131,31.506,80.304,38.017,82.253,38.276c0.531,0.071,1.064,0.104,1.597,0.104
				c2.942,0,5.804-1.08,8.021-3.071c1.395-1.252,34.211-31.173,40.771-75.311c1.259-8.482,0.262-17.412-2.887-25.823
				c-3.916-10.464-10.78-19.432-19.854-25.935C143.363,32.865,132.71,29.341,122.296,29.341L122.296,29.341z"/>
		</g>
	</g>
</g>
<g id="outline_x5F_black">
	<path d="M122.296,41.341c16.209,0,32.274,11.118,38.614,28.062c2.521,6.736,3.191,13.548,2.255,19.854
		c-5.999,40.37-36.92,68.147-36.92,68.147s-43.972-5.904-75.722-35.213c-4.93-4.539-8.938-10.309-11.436-16.979
		c-7.605-20.341,1.722-41.17,20.748-46.977c4.127-1.26,8.269-1.728,12.149-1.728c11.283,0,20.352,3.962,20.352,3.962
		c3.776-8.399,10.818-14.97,20.271-17.749C115.792,41.788,119.046,41.341,122.296,41.341 M122.296,35.341
		c-3.881,0-7.709,0.547-11.38,1.626c-9.059,2.663-16.512,8.318-21.441,16.163c-4.161-1.229-10.428-2.62-17.49-2.62
		c-4.898,0-9.575,0.669-13.901,1.989C47.76,55.65,39.45,62.705,34.684,72.363c-5.241,10.62-5.672,23.033-1.216,34.954
		c2.742,7.318,7.234,13.988,12.992,19.289c32.76,30.242,77.115,36.494,78.987,36.746l2.746,0.369l2.062-1.853
		c1.328-1.193,32.603-29.705,38.847-71.729c1.109-7.479,0.221-15.377-2.57-22.839C159.488,48.483,141.3,35.341,122.296,35.341
		L122.296,35.341z"/>
</g>
</svg>
