<?xml version="1.0" encoding="utf-8"?>
<!-- Generator: Adobe Illustrator 15.0.0, SVG Export Plug-In . SVG Version: 6.00 Build 0)  -->
<!DOCTYPE svg PUBLIC "-//W3C//DTD SVG 1.1//EN" "http://www.w3.org/Graphics/SVG/1.1/DTD/svg11.dtd">
<svg version="1.1" xmlns="http://www.w3.org/2000/svg" xmlns:xlink="http://www.w3.org/1999/xlink" x="0px" y="0px" width="200px"
	 height="200px" viewBox="0 0 200 200" enable-background="new 0 0 200 200" xml:space="preserve">
<g id="icon">
	<g id="Layer_2">
	</g>
	<g id="Layer_1_1_">
		<g>
			
				<linearGradient id="SVGID_1_" gradientUnits="userSpaceOnUse" x1="214.9492" y1="778.2178" x2="204.1389" y2="735.9575" gradientTransform="matrix(1 0 0 1 -100 -591)">
				<stop  offset="0" style="stop-color:#FF0000"/>
				<stop  offset="0.1674" style="stop-color:#F60000"/>
				<stop  offset="0.4388" style="stop-color:#DE0000"/>
				<stop  offset="0.7785" style="stop-color:#B70000"/>
				<stop  offset="1" style="stop-color:#9A0000"/>
			</linearGradient>
			<path fill="url(#SVGID_1_)" d="M131.846,153.193c-1.932-8.195-2.395-17.613-2.395-17.613l-50.973,5.258
				c0,0,0.564,11.402,2.408,20.836c2.005,10.252,5.301,18.602,5.301,18.602l20.752-22.348c0,0,8.537,8.18,15.963,10.938
				c7.617,2.827,15.973,6.678,15.973,6.678S134.506,164.477,131.846,153.193z"/>
			
				<linearGradient id="SVGID_2_" gradientUnits="userSpaceOnUse" x1="120.9111" y1="614.0332" x2="162.716" y2="720.5172" gradientTransform="matrix(0.9643 -0.1482 0.1505 1.0139 -129.2564 -554.8091)">
				<stop  offset="0" style="stop-color:#FFE300"/>
				<stop  offset="1" style="stop-color:#F7941E"/>
			</linearGradient>
			<polygon fill="url(#SVGID_2_)" points="91.562,29.589 102.637,19.724 112.887,30.738 126.755,26.111 132.248,40.363 
				146.799,41.675 146.701,56.998 159.721,64.052 154.044,78.109 163.548,89.835 153.158,100.489 157.701,115.098 144.18,120.727 
				143.07,135.99 128.477,135.738 121.882,149.34 108.438,143.244 97.362,153.109 87.115,142.096 73.245,146.725 67.752,132.473 
				53.2,131.156 53.299,115.836 40.279,108.781 45.955,94.722 36.452,82.998 46.842,72.346 42.298,57.735 55.82,52.109 
				56.929,36.841 71.523,37.095 78.117,23.492 			"/>
			<g>
				
					<linearGradient id="SVGID_3_" gradientUnits="userSpaceOnUse" x1="272.0605" y1="721.5811" x2="262.1909" y2="684.5693" gradientTransform="matrix(1 0 0 1 -100 -591)">
					<stop  offset="0" style="stop-color:#F0BE49"/>
					<stop  offset="0.2545" style="stop-color:#F5D140"/>
					<stop  offset="0.7307" style="stop-color:#FCEF32"/>
					<stop  offset="1" style="stop-color:#FFFA2D"/>
				</linearGradient>
				<polygon fill="url(#SVGID_3_)" points="147.703,59.5 159.07,65.66 159.721,64.052 147.716,57.547 				"/>
				
					<linearGradient id="SVGID_4_" gradientUnits="userSpaceOnUse" x1="206.6758" y1="739.0137" x2="196.8066" y2="702.0037" gradientTransform="matrix(1 0 0 1 -100 -591)">
					<stop  offset="0" style="stop-color:#F0BE49"/>
					<stop  offset="0.2545" style="stop-color:#F5D140"/>
					<stop  offset="0.7307" style="stop-color:#FCEF32"/>
					<stop  offset="1" style="stop-color:#FFFA2D"/>
				</linearGradient>
				<polygon fill="url(#SVGID_4_)" points="38.015,84.926 47.844,74.848 43.301,60.238 56.822,54.611 57.932,39.343 72.525,39.597 
					79.119,25.995 92.564,32.092 103.639,22.226 113.889,33.24 127.725,28.625 126.755,26.111 112.887,30.738 102.637,19.724 
					91.562,29.589 78.117,23.492 71.523,37.095 56.929,36.841 55.82,52.109 42.298,57.735 46.842,72.346 36.452,82.998 				"/>
				
					<linearGradient id="SVGID_5_" gradientUnits="userSpaceOnUse" x1="271.4355" y1="721.7402" x2="261.5674" y2="684.7341" gradientTransform="matrix(1 0 0 1 -100 -591)">
					<stop  offset="0" style="stop-color:#F0BE49"/>
					<stop  offset="0.2545" style="stop-color:#F5D140"/>
					<stop  offset="0.7307" style="stop-color:#FCEF32"/>
					<stop  offset="1" style="stop-color:#FFFA2D"/>
				</linearGradient>
				<polygon fill="url(#SVGID_5_)" points="155.047,80.612 162.986,90.41 163.548,89.835 155.389,79.767 				"/>
				
					<linearGradient id="SVGID_6_" gradientUnits="userSpaceOnUse" x1="264.0117" y1="723.7793" x2="254.1369" y2="686.748" gradientTransform="matrix(1 0 0 1 -100 -591)">
					<stop  offset="0" style="stop-color:#F0BE49"/>
					<stop  offset="0.2545" style="stop-color:#F5D140"/>
					<stop  offset="0.7307" style="stop-color:#FCEF32"/>
					<stop  offset="1" style="stop-color:#FFFA2D"/>
				</linearGradient>
				<polygon fill="url(#SVGID_6_)" points="133.251,42.865 146.783,44.086 146.799,41.675 132.287,40.366 				"/>
				
					<linearGradient id="SVGID_7_" gradientUnits="userSpaceOnUse" x1="175.1504" y1="747.4199" x2="165.2804" y2="710.4069" gradientTransform="matrix(1 0 0 1 -100 -591)">
					<stop  offset="0" style="stop-color:#F0BE49"/>
					<stop  offset="0.2545" style="stop-color:#F5D140"/>
					<stop  offset="0.7307" style="stop-color:#FCEF32"/>
					<stop  offset="1" style="stop-color:#FFFA2D"/>
				</linearGradient>
				<polygon fill="url(#SVGID_7_)" points="68.755,134.975 68.715,134.971 73.245,146.725 73.278,146.713 				"/>
				
					<linearGradient id="SVGID_8_" gradientUnits="userSpaceOnUse" x1="159.0107" y1="751.7266" x2="149.1414" y2="714.7161" gradientTransform="matrix(1 0 0 1 -100 -591)">
					<stop  offset="0" style="stop-color:#F0BE49"/>
					<stop  offset="0.2545" style="stop-color:#F5D140"/>
					<stop  offset="0.7307" style="stop-color:#FCEF32"/>
					<stop  offset="1" style="stop-color:#FFFA2D"/>
				</linearGradient>
				<polygon fill="url(#SVGID_8_)" points="46.958,97.225 45.614,95.568 40.279,108.781 41.931,109.676 				"/>
				
					<linearGradient id="SVGID_9_" gradientUnits="userSpaceOnUse" x1="163.0596" y1="750.6543" x2="153.1876" y2="713.6335" gradientTransform="matrix(1 0 0 1 -100 -591)">
					<stop  offset="0" style="stop-color:#F0BE49"/>
					<stop  offset="0.2545" style="stop-color:#F5D140"/>
					<stop  offset="0.7307" style="stop-color:#FCEF32"/>
					<stop  offset="1" style="stop-color:#FFFA2D"/>
				</linearGradient>
				<polygon fill="url(#SVGID_9_)" points="54.302,118.34 53.287,117.787 53.2,131.156 54.219,131.25 				"/>
			</g>
			<path opacity="0.23" fill="none" stroke="#754C29" stroke-miterlimit="10" enable-background="new    " d="M54.308,93.152
				C50.3,66.153,67.864,41.068,93.54,37.122c25.677-3.947,49.739,14.74,53.75,41.738c4.008,26.998-13.556,52.082-39.231,56.029
				C82.382,138.838,58.317,120.15,54.308,93.152z"/>
			
				<linearGradient id="SVGID_10_" gradientUnits="userSpaceOnUse" x1="95.9468" y1="628.9111" x2="46.4493" y2="629.3397" gradientTransform="matrix(0.9643 -0.1482 0.1505 1.0139 -129.2564 -554.8091)">
				<stop  offset="0.2515" style="stop-color:#F0BE2D"/>
				<stop  offset="0.2792" style="stop-color:#F0CF2D"/>
				<stop  offset="0.3136" style="stop-color:#F0DA2D"/>
				<stop  offset="0.3622" style="stop-color:#F0E12D"/>
				<stop  offset="0.4969" style="stop-color:#F0E32D"/>
				<stop  offset="0.7791" style="stop-color:#F0BE2D"/>
				<stop  offset="1" style="stop-color:#D48800"/>
			</linearGradient>
			<path opacity="0.96" fill="url(#SVGID_10_)" enable-background="new    " d="M93.799,38.858
				c25.399-3.903,49.206,14.345,53.598,40.875c-0.039-0.292-0.062-0.581-0.104-0.873c-4.01-26.998-28.073-45.686-53.75-41.738
				C67.864,41.068,50.3,66.153,54.309,93.152c0.045,0.29,0.101,0.576,0.148,0.864C50.953,67.353,68.399,42.761,93.799,38.858z"/>
			
				<linearGradient id="SVGID_11_" gradientUnits="userSpaceOnUse" x1="155.0605" y1="700.332" x2="247.9375" y2="700.332" gradientTransform="matrix(1 0 0 1 -100 -591)">
				<stop  offset="0" style="stop-color:#F0BE49;stop-opacity:0"/>
				<stop  offset="0.3014" style="stop-color:#F0D836;stop-opacity:0.6064"/>
				<stop  offset="0.4969" style="stop-color:#F0E32D"/>
				<stop  offset="1" style="stop-color:#D48800;stop-opacity:0"/>
			</linearGradient>
			<path fill="url(#SVGID_11_)" d="M108.381,137.062c-25.414,3.904-49.265-14.285-53.163-40.555
				c-0.043-0.293-0.075-0.586-0.112-0.876l-0.046-0.398l0.007,0.045l0.049,0.414c0.031,0.27,0.062,0.542,0.103,0.815
				c3.758,25.311,28.401,42.583,52.903,38.815c24.502-3.767,43.032-27.675,39.272-52.981c-0.039-0.273-0.088-0.544-0.138-0.81
				l-0.075-0.41l-0.007-0.047l0.07,0.396c0.054,0.288,0.104,0.578,0.147,0.871C151.296,108.609,133.793,133.156,108.381,137.062z"/>
			
				<linearGradient id="SVGID_12_" gradientUnits="userSpaceOnUse" x1="137.0117" y1="675.1436" x2="137.4403" y2="723.5692" gradientTransform="matrix(0.9643 -0.1482 0.1505 1.0139 -129.2564 -554.8091)">
				<stop  offset="0" style="stop-color:#6F3D00;stop-opacity:0"/>
				<stop  offset="1" style="stop-color:#6F3D00"/>
			</linearGradient>
			<path fill="url(#SVGID_12_)" d="M107.67,133.549c-25.261,3.881-48.945-15.414-53.524-41.707c0.054,0.438,0.098,0.872,0.162,1.31
				c4.01,26.999,28.074,45.686,53.75,41.737c25.676-3.947,43.238-29.031,39.23-56.029c-0.064-0.438-0.148-0.865-0.229-1.299
				C150.324,104.057,132.934,129.666,107.67,133.549z"/>
			
				<linearGradient id="SVGID_13_" gradientUnits="userSpaceOnUse" x1="176.1943" y1="731.9932" x2="181.3212" y2="708.7253" gradientTransform="matrix(0.9996 0.027 -0.027 0.9996 -106.1242 -597.0808)">
				<stop  offset="0" style="stop-color:#F0BE49"/>
				<stop  offset="0.3014" style="stop-color:#F0D836"/>
				<stop  offset="0.4969" style="stop-color:#F0E32D"/>
				<stop  offset="0.6256" style="stop-color:#EFE02B;stop-opacity:0.7442"/>
				<stop  offset="0.7256" style="stop-color:#ECD627;stop-opacity:0.5455"/>
				<stop  offset="0.8159" style="stop-color:#E7C61E;stop-opacity:0.366"/>
				<stop  offset="0.9005" style="stop-color:#E0AE13;stop-opacity:0.1978"/>
				<stop  offset="0.9804" style="stop-color:#D79104;stop-opacity:0.039"/>
				<stop  offset="1" style="stop-color:#D48800;stop-opacity:0"/>
			</linearGradient>
			<path fill="url(#SVGID_13_)" d="M54.869,129.254c-0.01,0.381-0.327,0.682-0.708,0.67l0,0c-0.382-0.01-0.683-0.326-0.672-0.707
				l0.347-12.812c0.01-0.382,0.328-0.683,0.709-0.673l0,0c0.381,0.013,0.682,0.328,0.672,0.709L54.869,129.254z"/>
			
				<linearGradient id="SVGID_14_" gradientUnits="userSpaceOnUse" x1="1157.3467" y1="221.3691" x2="1163.6562" y2="225.5098" gradientTransform="matrix(0.408 0.913 -0.913 0.408 -122.1174 -1017.082)">
				<stop  offset="0" style="stop-color:#F0BE49"/>
				<stop  offset="0.3014" style="stop-color:#F0D836"/>
				<stop  offset="0.4969" style="stop-color:#F0E32D"/>
				<stop  offset="0.6256" style="stop-color:#EFE02B;stop-opacity:0.7442"/>
				<stop  offset="0.7256" style="stop-color:#ECD627;stop-opacity:0.5455"/>
				<stop  offset="0.8159" style="stop-color:#E7C61E;stop-opacity:0.366"/>
				<stop  offset="0.9005" style="stop-color:#E0AE13;stop-opacity:0.1978"/>
				<stop  offset="0.9804" style="stop-color:#D79104;stop-opacity:0.039"/>
				<stop  offset="1" style="stop-color:#D48800;stop-opacity:0"/>
			</linearGradient>
			<path fill="url(#SVGID_14_)" d="M144.463,120.398c-0.346,0.156-0.756,0-0.912-0.35l0,0c-0.154-0.35,0.002-0.756,0.35-0.91
				l11.701-5.229c0.352-0.156,0.758,0,0.912,0.348l0,0c0.155,0.351,0,0.757-0.349,0.914L144.463,120.398z"/>
			
				<linearGradient id="SVGID_15_" gradientUnits="userSpaceOnUse" x1="1258.9844" y1="-131.3652" x2="1249.3359" y2="-131.3652" gradientTransform="matrix(0.0116 0.9999 -0.9999 0.0116 -10.4447 -1128.589)">
				<stop  offset="0" style="stop-color:#F0BE49"/>
				<stop  offset="0.3014" style="stop-color:#F0D836"/>
				<stop  offset="0.4969" style="stop-color:#F0E32D"/>
				<stop  offset="0.6256" style="stop-color:#EFE02B;stop-opacity:0.7442"/>
				<stop  offset="0.7256" style="stop-color:#ECD627;stop-opacity:0.5455"/>
				<stop  offset="0.8159" style="stop-color:#E7C61E;stop-opacity:0.366"/>
				<stop  offset="0.9005" style="stop-color:#E0AE13;stop-opacity:0.1978"/>
				<stop  offset="0.9804" style="stop-color:#D79104;stop-opacity:0.039"/>
				<stop  offset="1" style="stop-color:#D48800;stop-opacity:0"/>
			</linearGradient>
			<path fill="url(#SVGID_15_)" d="M129.186,135.906c-0.381,0.006-0.691-0.301-0.697-0.682l0,0
				c-0.006-0.383,0.302-0.693,0.682-0.699l12.814-0.148c0.383-0.004,0.693,0.303,0.699,0.684l0,0
				c0.004,0.381-0.301,0.693-0.683,0.697L129.186,135.906z"/>
			
				<linearGradient id="SVGID_16_" gradientUnits="userSpaceOnUse" x1="1208.333" y1="-520.7222" x2="1198.6846" y2="-520.7222" gradientTransform="matrix(-0.4198 0.9076 -0.9076 -0.4198 152.3215 -1175.864)">
				<stop  offset="0" style="stop-color:#F0BE49"/>
				<stop  offset="0.3014" style="stop-color:#F0D836"/>
				<stop  offset="0.4969" style="stop-color:#F0E32D"/>
				<stop  offset="0.6256" style="stop-color:#EFE02B;stop-opacity:0.7442"/>
				<stop  offset="0.7256" style="stop-color:#ECD627;stop-opacity:0.5455"/>
				<stop  offset="0.8159" style="stop-color:#E7C61E;stop-opacity:0.366"/>
				<stop  offset="0.9005" style="stop-color:#E0AE13;stop-opacity:0.1978"/>
				<stop  offset="0.9804" style="stop-color:#D79104;stop-opacity:0.039"/>
				<stop  offset="1" style="stop-color:#D48800;stop-opacity:0"/>
			</linearGradient>
			<path fill="url(#SVGID_16_)" d="M108.879,143.16c-0.348-0.158-0.498-0.57-0.337-0.916l0,0c0.159-0.346,0.569-0.498,0.916-0.338
				l11.633,5.381c0.345,0.16,0.495,0.57,0.337,0.916l0,0c-0.16,0.348-0.57,0.498-0.916,0.338L108.879,143.16z"/>
			
				<linearGradient id="SVGID_17_" gradientUnits="userSpaceOnUse" x1="928.1895" y1="468.7852" x2="934.4987" y2="472.9256" gradientTransform="matrix(0.7038 0.7104 -0.7104 0.7038 -160.6106 -881.625)">
				<stop  offset="0" style="stop-color:#F0BE49"/>
				<stop  offset="0.3014" style="stop-color:#F0D836"/>
				<stop  offset="0.4969" style="stop-color:#F0E32D"/>
				<stop  offset="0.6256" style="stop-color:#EFE02B;stop-opacity:0.7442"/>
				<stop  offset="0.7256" style="stop-color:#ECD627;stop-opacity:0.5455"/>
				<stop  offset="0.8159" style="stop-color:#E7C61E;stop-opacity:0.366"/>
				<stop  offset="0.9005" style="stop-color:#E0AE13;stop-opacity:0.1978"/>
				<stop  offset="0.9804" style="stop-color:#D79104;stop-opacity:0.039"/>
				<stop  offset="1" style="stop-color:#D48800;stop-opacity:0"/>
			</linearGradient>
			<path fill="url(#SVGID_17_)" d="M152.994,100.045c-0.27,0.268-0.707,0.266-0.977-0.005l0,0c-0.27-0.271-0.267-0.707,0.006-0.977
				l9.104-9.021c0.271-0.268,0.708-0.266,0.977,0.005l0,0c0.27,0.271,0.269,0.707-0.006,0.976L152.994,100.045z"/>
			
				<linearGradient id="SVGID_18_" gradientUnits="userSpaceOnUse" x1="-168.2178" y1="602.9277" x2="-175.1189" y2="587.5482" gradientTransform="matrix(0.9282 -0.372 0.3982 0.9937 0.6483 -508.5522)">
				<stop  offset="0" style="stop-color:#F0BE49"/>
				<stop  offset="0.3014" style="stop-color:#F0D836"/>
				<stop  offset="0.4969" style="stop-color:#F0E32D"/>
				<stop  offset="0.6256" style="stop-color:#EFE02B;stop-opacity:0.7442"/>
				<stop  offset="0.7256" style="stop-color:#ECD627;stop-opacity:0.5455"/>
				<stop  offset="0.8159" style="stop-color:#E7C61E;stop-opacity:0.366"/>
				<stop  offset="0.9005" style="stop-color:#E0AE13;stop-opacity:0.1978"/>
				<stop  offset="0.9804" style="stop-color:#D79104;stop-opacity:0.039"/>
				<stop  offset="1" style="stop-color:#D48800;stop-opacity:0"/>
			</linearGradient>
			<path fill="url(#SVGID_18_)" d="M74.15,145.428c0.152,0.379-0.014,0.799-0.367,0.941l0,0c-0.354,0.141-0.763-0.051-0.916-0.428
				l-5.103-12.736c-0.151-0.381,0.012-0.801,0.365-0.943l0,0c0.354-0.141,0.764,0.051,0.916,0.428L74.15,145.428z"/>
			<path opacity="0.23" fill="none" stroke="#F9ED32" stroke-miterlimit="10" enable-background="new    " d="M53.232,93.317
				c-4.101-27.625,13.869-53.288,40.14-57.327c26.271-4.037,50.892,15.083,54.991,42.705c4.102,27.622-13.867,53.286-40.137,57.323
				C81.955,140.059,57.335,120.939,53.232,93.317z"/>
			<polygon fill="#9D6233" stroke="#9D6233" stroke-width="6" stroke-linejoin="round" stroke-miterlimit="10" points="
				97.75,63.042 106.488,76.334 121.238,76.146 112.627,89.17 117.619,104.58 103.559,99.337 91.893,109.049 91.815,92.787 
				79.613,83.378 93.625,78.568 			"/>
		</g>
	</g>
</g>
<g id="outline_x5F_white">
	<g>
		<g>
			<path fill="#FFFFFF" d="M102.637,19.724l10.25,11.014l13.868-4.627l5.493,14.252l14.551,1.312l-0.098,15.322l13.02,7.055
				l-5.677,14.057l9.504,11.727l-10.39,10.653l4.543,14.608l-13.521,5.629l-1.109,15.265l-8.461-0.146l-5.141,0.061
				c0.1,1.704,0.654,9.979,2.377,17.288c2.66,11.283,7.029,22.351,7.029,22.351s-8.355-3.851-15.973-6.678
				c-7.426-2.759-15.963-10.938-15.963-10.938l-20.752,22.348c0,0-3.296-8.35-5.301-18.602c-1.158-5.924-1.811-12.621-2.137-16.787
				l-5.505,1.838l-0.202-0.523c-0.072-0.072-0.135-0.156-0.176-0.26l-5.103-12.734c-0.085-0.215-0.062-0.438,0.03-0.621
				l-0.043-0.109l-14.55-1.318l0.099-15.32l-13.02-7.055l5.676-14.059l-9.503-11.725l10.39-10.651l-4.543-14.611l13.522-5.626
				l1.108-15.268l14.595,0.254l6.594-13.604l13.444,6.098L102.637,19.724 M102.634,7.724c-2.843,0-5.694,1.004-7.979,3.04
				l-5.246,4.673l-6.335-2.874c-1.606-0.728-3.291-1.074-4.95-1.074c-4.461,0-8.735,2.499-10.806,6.769l-3.25,6.706l-6.931-0.121
				c-0.071-0.001-0.142-0.002-0.213-0.002c-6.276,0-11.508,4.848-11.965,11.131l-0.573,7.896l-6.698,2.787
				c-5.721,2.38-8.689,8.725-6.849,14.642l2.421,7.786l-5.399,5.535c-4.25,4.357-4.565,11.206-0.732,15.935l5.051,6.232
				l-3.029,7.503c-2.285,5.66,0.043,12.133,5.41,15.043l6.691,3.625l-0.052,8.123c-0.041,6.237,4.706,11.467,10.918,12.026
				l6.938,0.629l2.671,6.668c0.163,0.402,0.344,0.796,0.543,1.175c1.189,2.694,3.275,4.758,5.772,5.959
				c0.301,2.147,0.654,4.332,1.066,6.438c2.191,11.202,5.766,20.321,5.916,20.705c1.514,3.834,4.89,6.622,8.94,7.387
				c0.74,0.14,1.483,0.207,2.223,0.207c3.303,0,6.5-1.364,8.792-3.834l13.119-14.129c3.2,2.229,6.896,4.416,10.627,5.801
				c7.104,2.64,15.049,6.291,15.127,6.328c1.607,0.74,3.32,1.103,5.021,1.103c3.007,0,5.974-1.129,8.249-3.283
				c3.562-3.366,4.716-8.563,2.915-13.125c-0.038-0.098-4.095-10.438-6.513-20.694c-0.188-0.801-0.359-1.623-0.521-2.448
				c0.022,0,0.046,0,0.069,0c6.275,0,11.508-4.849,11.965-11.13l0.572-7.896l6.701-2.789c5.721-2.381,8.688-8.727,6.848-14.643
				l-2.422-7.783l5.398-5.537c4.249-4.356,4.564-11.205,0.731-15.934l-5.054-6.233l3.029-7.5c2.286-5.661-0.042-12.136-5.41-15.044
				l-6.688-3.625l0.052-8.124c0.04-6.239-4.708-11.468-10.922-12.028l-7.116-0.642l-2.809-7.287
				c-1.83-4.746-6.364-7.687-11.196-7.687c-1.261,0-2.54,0.2-3.799,0.62l-6.545,2.184l-4.991-5.363
				C109.061,9.012,105.854,7.724,102.634,7.724L102.634,7.724z"/>
		</g>
	</g>
</g>
<g id="outline_x5F_black">
	<g>
		<path d="M102.637,19.724l10.25,11.014l13.868-4.627l5.493,14.252l14.551,1.312l-0.098,15.322l13.02,7.055l-5.677,14.057
			l9.504,11.727l-10.39,10.653l4.543,14.608l-13.521,5.629l-1.109,15.265l-8.461-0.146l-5.141,0.061
			c0.1,1.704,0.654,9.979,2.377,17.288c2.66,11.283,7.029,22.351,7.029,22.351s-8.355-3.851-15.973-6.678
			c-7.426-2.759-15.963-10.938-15.963-10.938l-20.752,22.348c0,0-3.296-8.35-5.301-18.602c-1.158-5.924-1.811-12.621-2.137-16.787
			l-5.505,1.838l-0.202-0.523c-0.072-0.072-0.135-0.156-0.176-0.26l-5.103-12.734c-0.085-0.215-0.062-0.438,0.03-0.621l-0.043-0.109
			l-14.55-1.318l0.099-15.32l-13.02-7.055l5.676-14.059l-9.503-11.725l10.39-10.651l-4.543-14.611l13.522-5.626l1.108-15.268
			l14.595,0.254l6.594-13.604l13.444,6.098L102.637,19.724 M103.029,11.339l-4.384,3.905l-8.16,7.269l-9.89-4.485l-5.327-2.416
			l-2.551,5.263L67.795,31.03l-10.763-0.188l-5.678-0.099l-0.411,5.663l-0.841,11.582l-10.11,4.207l-5.048,2.1l1.624,5.221
			l3.482,11.198l-7.894,8.093l-3.727,3.821l3.361,4.146l7.277,8.979l-4.352,10.781l-2.006,4.969l4.71,2.554l9.855,5.34L47.2,131.117
			l-0.036,5.518l5.495,0.498l10.6,0.959l4.039,10.08c0.111,0.275,0.238,0.541,0.382,0.797l2.028,5.262l3.797-1.268
			c0.373,3.197,0.861,6.629,1.493,9.863c2.087,10.668,5.466,19.289,5.608,19.652l3.497,8.855l6.48-6.979l16.801-18.092
			c3.511,2.832,8.532,6.403,13.431,8.226c7.316,2.717,15.47,6.465,15.551,6.502l13.584,6.258l-5.492-13.91
			c-0.042-0.106-4.247-10.817-6.771-21.522c-0.791-3.356-1.319-6.963-1.666-9.944l6.946,0.119l5.677,0.098l0.412-5.662l0.842-11.579
			l10.109-4.209l5.047-2.103l-1.623-5.22l-3.479-11.196l7.896-8.094l3.727-3.821l-3.36-4.146l-7.276-8.979l4.354-10.778l2.007-4.969
			l-4.712-2.553l-9.854-5.34l0.074-11.724l0.034-5.518l-5.496-0.496l-10.834-0.978l-4.149-10.769l-2.062-5.348l-5.438,1.814
			l-10.207,3.405l-7.618-8.188L103.029,11.339L103.029,11.339z"/>
	</g>
</g>
</svg>
