<?xml version="1.0" encoding="utf-8"?>
<!-- Generator: Adobe Illustrator 15.0.0, SVG Export Plug-In . SVG Version: 6.00 Build 0)  -->
<!DOCTYPE svg PUBLIC "-//W3C//DTD SVG 1.1//EN" "http://www.w3.org/Graphics/SVG/1.1/DTD/svg11.dtd">
<svg version="1.1" xmlns="http://www.w3.org/2000/svg" xmlns:xlink="http://www.w3.org/1999/xlink" x="0px" y="0px" width="200px"
	 height="200px" viewBox="0 0 200 200" enable-background="new 0 0 200 200" xml:space="preserve">
<g id="icon">
	<g id="Layer_2">
	</g>
	<g id="Layer_1_1_">
		<g>
			<g>
				<g>
					<polygon fill="#30C0FF" points="161.229,68.114 101.857,38.599 39.71,59.532 42.153,82.044 42.043,81.979 42.338,83.749 
						47.673,134.486 94.886,171.971 150.585,141.688 					"/>
				</g>
				<g>
					<g>
						<polygon fill="#008DCD" points="39.71,59.532 47.673,134.486 94.886,171.971 95.349,92.247 						"/>
					</g>
					<g>
						<polygon fill="#4ECDFF" points="39.71,59.532 95.349,92.247 161.229,68.114 101.857,38.599 						"/>
					</g>
					<g>
						<polygon fill="#1278AC" points="95.431,114.12 42.043,81.979 42.384,84.03 95.185,116.275 95.239,116.254 95.479,114.102 
													"/>
					</g>
					<g>
						<polygon fill="#1291D2" points="158.003,90.076 95.479,114.102 95.239,116.254 157.684,92.238 						"/>
					</g>
				</g>
				<path fill="#78D4F7" d="M107.877,97.495c0.01,3.06-1.777,6.071-3.986,6.724c-2.207,0.652-4.021-1.298-4.06-4.357
					c-0.035-3.058,1.744-6.066,3.978-6.722C106.045,92.486,107.868,94.435,107.877,97.495z"/>
				<path fill="#00A3E0" d="M88.918,96.116c0.793,3.3-0.087,6.593-1.956,7.354c-1.867,0.765-4.035-1.286-4.852-4.588
					c-0.82-3.298,0.039-6.591,1.928-7.355C85.933,90.765,88.121,92.817,88.918,96.116z"/>
				<path fill="#00A3E0" d="M78.298,135.788c0.805,3.298,0.008,6.588-1.771,7.347c-1.774,0.76-3.876-1.296-4.703-4.595
					c-0.83-3.297-0.054-6.585,1.743-7.347C75.368,130.434,77.489,132.488,78.298,135.788z"/>
				<path fill="#00A3E0" d="M57.233,125.979c0.822,3.043,0.147,6.078-1.498,6.778c-1.645,0.702-3.653-1.194-4.494-4.235
					c-0.845-3.043-0.188-6.076,1.475-6.776C54.383,121.041,56.407,122.936,57.233,125.979z"/>
				<path fill="#1278AC" d="M77.458,107.02c0.827,3.297,0.002,6.59-1.836,7.353c-1.836,0.762-4.006-1.29-4.855-4.589
					c-0.855-3.297-0.048-6.585,1.809-7.352C74.438,101.67,76.626,103.723,77.458,107.02z"/>
				<path fill="#1278AC" d="M55.72,102.771c0.841,3.041,0.145,6.078-1.546,6.779c-1.688,0.703-3.747-1.188-4.607-4.23
					c-0.864-3.039-0.186-6.074,1.521-6.779C52.799,97.837,54.875,99.729,55.72,102.771z"/>
				<path fill="#00A3E0" d="M54.276,75.636c0.863,3.039,0.141,6.077-1.603,6.782c-1.741,0.706-3.859-1.185-4.739-4.225
					c-0.885-3.04-0.178-6.076,1.58-6.784C51.278,70.704,53.412,72.593,54.276,75.636z"/>
				<path fill="#1278AC" d="M88.93,124.906c0.772,3.3-0.077,6.593-1.886,7.353c-1.808,0.763-3.909-1.295-4.703-4.596
					c-0.799-3.299,0.031-6.589,1.858-7.353C86.032,119.552,88.154,121.605,88.93,124.906z"/>
				<path fill="#00A3E0" d="M89.832,152.341c0.747,3.302-0.074,6.593-1.827,7.351c-1.75,0.76-3.786-1.301-4.557-4.604
					c-0.774-3.298,0.028-6.589,1.799-7.348C87.024,146.98,89.08,149.039,89.832,152.341z"/>
				<path fill="#00AEEF" d="M93.944,77.637c2.888-0.762,6.074,0.354,7.105,2.494c1.029,2.139-0.469,4.487-3.337,5.248
					c-2.861,0.76-6.026-0.359-7.076-2.494C89.584,80.747,91.06,78.396,93.944,77.637z"/>
				<path fill="#00AEEF" d="M140.422,61.761c2.973-0.765,6.154,0.354,7.096,2.494c0.939,2.145-0.697,4.499-3.647,5.264
					c-2.945,0.763-6.104-0.355-7.063-2.495C135.839,64.882,137.456,62.526,140.422,61.761z"/>
				<path fill="#00AEEF" d="M56.702,56.145c2.93-0.764,6.235,0.348,7.373,2.482c1.138,2.133-0.304,4.479-3.213,5.241
					c-2.902,0.763-6.187-0.351-7.343-2.481C52.356,59.254,53.778,56.905,56.702,56.145z"/>
				<path fill="#00AEEF" d="M95.702,43.513c2.995-0.766,6.297,0.345,7.358,2.48c1.062,2.138-0.494,4.49-3.472,5.256
					c-2.97,0.766-6.249-0.35-7.33-2.484C91.173,46.63,92.71,44.276,95.702,43.513z"/>
				<path fill="#00AEEF" d="M108.549,130.9c0.006,3.059-1.72,6.064-3.848,6.717c-2.126,0.646-3.873-1.305-3.906-4.364
					c-0.031-3.06,1.686-6.065,3.838-6.716C106.788,125.889,108.542,127.838,108.549,130.9z"/>
				<path fill="#00AEEF" d="M133.716,88.144c-0.077,3.063-1.966,6.079-4.215,6.732c-2.248,0.655-4.024-1.297-3.976-4.359
					c0.05-3.064,1.931-6.077,4.203-6.733C132.005,83.128,133.791,85.079,133.716,88.144z"/>
				<path fill="#00AEEF" d="M133.633,122.677c-0.08,3.062-1.906,6.076-4.07,6.726c-2.164,0.652-3.869-1.303-3.814-4.365
					c0.054-3.062,1.871-6.074,4.061-6.729C131.999,117.657,133.714,119.611,133.633,122.677z"/>
				<path fill="#00AEEF" d="M147.168,100.227c-0.126,3.064-2.034,6.082-4.26,6.731c-2.227,0.657-3.948-1.299-3.852-4.363
					c0.047-1.463,0.504-2.916,1.213-4.104l5.698-2.012C146.768,97.252,147.232,98.578,147.168,100.227z"/>
				<path fill="#78D4F7" d="M157.805,78.956c-0.142,2.754-1.923,5.466-3.978,6.054c-2.052,0.59-3.618-1.165-3.502-3.918
					s1.893-5.464,3.967-6.054C156.369,74.449,157.941,76.201,157.805,78.956z"/>
				<path fill="#78D4F7" d="M153.223,116.461c-0.133,2.717-1.815,5.391-3.764,5.967c-1.943,0.58-3.43-1.154-3.318-3.871
					c0.108-2.72,1.789-5.389,3.754-5.97C151.859,112.011,153.354,113.743,153.223,116.461z"/>
				<path fill="#00AEEF" d="M143.562,133.932c-0.119,3.063-1.955,6.077-4.102,6.728c-2.145,0.649-3.804-1.308-3.714-4.371
					c0.091-3.063,1.921-6.077,4.09-6.729C142.012,128.908,143.682,130.864,143.562,133.932z"/>
				<path fill="#00AEEF" d="M121.055,111.3c-0.037,3.062-1.842,6.074-4.025,6.726c-2.182,0.65-3.939-1.301-3.93-4.36
					c0.006-1.765,0.603-3.508,1.527-4.797c0,0,4.531-1.945,5.24-1.202C120.617,108.447,121.073,109.729,121.055,111.3z"/>
				<path fill="#00AEEF" d="M108.081,158.831c0.005,3.06-1.664,6.063-3.724,6.709s-3.75-1.31-3.78-4.368
					c-0.033-3.061,1.628-6.062,3.711-6.712C106.376,153.814,108.074,155.77,108.081,158.831z"/>
				<path fill="#78D4F7" d="M120.137,141.527c-0.037,3.062-1.783,6.07-3.892,6.716c-2.108,0.649-3.808-1.306-3.797-4.367
					c0.008-3.06,1.743-6.067,3.878-6.718C118.464,136.511,120.171,138.464,120.137,141.527z"/>
				<polygon fill="#540E94" points="62.395,145.589 56.874,69.674 73.757,79.357 74.608,155.3 				"/>
				<polygon fill="#804CAF" points="120.396,47.528 56.874,69.674 73.757,79.357 136.852,55.198 				"/>
				<polygon fill="#804CAF" points="79.716,45.827 137.199,76.468 118.234,83.181 64.419,50.803 				"/>
				<polygon fill="#7841AA" points="131.12,152.121 137.199,76.468 118.234,83.181 115.305,160.552 				"/>
				<path fill="#804CAF" d="M92.533,67.497l-6.156,17.081l10.3-4.67l10.519,6.78l-4.139-21.176
					C103.057,65.513,95.621,68.637,92.533,67.497z"/>
				<polygon fill="#804CAF" points="106.786,65.634 146.702,71.876 138.439,64.559 144.628,60.262 114.787,60.982 				"/>
				<polygon fill="#804CAF" points="92.257,53.033 91.571,42.588 100.396,46.848 96.655,55.656 				"/>
				<polygon fill="#804CAF" points="78.032,64.313 52.025,64.476 61.231,59.48 57.539,54.146 85.575,59.335 				"/>
				<g>
					<path fill="#BE1E2D" d="M129.729,45.584l1.041,0.538C130.77,46.122,130.42,45.836,129.729,45.584z"/>
				</g>
				<g>
					<path fill="#540E94" d="M75.882,34.602c0,0-6.422,0.153-9.133,2.138c-2.711,1.985,0.998,7.938,3.139,8.852
						c2.142,0.917,19.123,6.258,19.123,6.258L75.882,34.602z"/>
					<path fill="#804CAF" d="M97.146,46.508c0,0-4.424-14.805-9.134-16.027c-4.709-1.221-21.263,6.259-21.263,6.259
						s4.542-1.229,8.562,2.289c4.709,4.122,16.268,14.652,16.268,14.652L97.146,46.508z"/>
					<g>
						<g>
							<path fill="#540E94" d="M128.4,34.079c0,0,8.104,1.902,3.562,11.056c-3.661,7.465-4.461,5.101-17.721,12.22
								c-8.312,4.485-15.375,7.352-15.375,7.352l9.696-23.019C108.564,41.688,114.135,28.41,128.4,34.079z"/>
							<path fill="#804CAF" d="M94.987,53.56c0,0,7.273-19.01,12.757-23.169c5.518-4.165,11.849-0.423,11.849-0.423l10.052,4.482
								l0.965,0.802c0,0-1.836-2.2-7.612,1.675c-9.147,6.165-22.902,25.16-22.902,25.16S92.608,63.104,94.987,53.56z"/>
							<path fill="#540E94" d="M92.118,52.647c0,0,5.138-2.956,8.178-1.865c3.031,1.09,2.56,6.417,1.688,7.586
								c-0.867,1.172,5.371-6.743,0.32-8.912C97.231,47.291,94.225,49.807,92.118,52.647z"/>
						</g>
						<g>
							<path fill="#540E94" d="M98.868,64.706c0,0-7.564-12.948-13.91-14.187c-6.369-1.236-6.455,0.278-6.455,0.278l15.333,10.685
								L98.868,64.706z"/>
							<path fill="#540E94" d="M80.699,67.324c0,0,4.771,1.307,10.979,0.313c6.211-0.994,7.189-2.932,7.189-2.932l-2.261-1.496
								l-3.911-2.626c0,0-12.713-1.574-18.066-3.7C69.249,54.764,77.398,65.52,80.699,67.324z"/>
							<path fill="#804CAF" d="M87.353,51.07c0,0-6.515-1.99-9.162,6.831c-2.177,7.356,4.286,10.685,4.286,10.685L60.144,54.489
								c0,0-5.051-3.771-3.114-9.021c3.072-8.232,9.46-5.62,9.46-5.62L87.353,51.07z"/>
							<g>
								<path opacity="0.53" fill="#540E94" enable-background="new    " d="M77.749,60.522l-18.178-11.36
									c0,0-1.625-1.212-2.683-3.214c-1.469,4.998,3.255,8.541,3.255,8.541l21.512,13.567
									C80.269,67.062,77.613,64.618,77.749,60.522z"/>
								<path fill="#540E94" d="M81.655,68.057c0.484,0.35,0.821,0.529,0.821,0.529L81.655,68.057z"/>
							</g>
						</g>
						<g>
							<path fill="#804CAF" d="M126.562,46.049L99.579,60.352l16.069,12.854l20.104-11.754
								C135.754,61.452,141.38,43.427,126.562,46.049z"/>
							<path opacity="0.53" fill="#540E94" enable-background="new    " d="M114.859,67.296l0.789,5.91l20.104-11.754
								c0,0,0.715-2.751,1.098-6.254L114.859,67.296z"/>
							<path fill="#540E94" d="M97.442,63.447c0,0,13.141-11.21,17.637-6.408c4.453,4.812,4.047,17.84-1.563,16.255
								C105.137,70.928,97.442,63.447,97.442,63.447z"/>
						</g>
						<polygon fill="#B373D4" points="130.966,47.27 114.27,55.971 116.409,57.802 134.391,48.339 						"/>
						<path fill="#B373D4" d="M110.288,29.821c0,0,3.14-1.373,4.995-0.916c1.854,0.458,12.441,5.334,12.441,5.334l-3.565,1.527
							L110.288,29.821z"/>
						<path fill="#B373D4" d="M64.464,40.097l18.553,10.837l2.854-0.458L67.177,40.249C67.177,40.249,64.464,38.876,64.464,40.097z"
							/>
					</g>
					<polygon fill="#B373D4" points="88.868,31.396 72.6,37.196 76.167,39.791 91.151,33.839 					"/>
				</g>
			</g>
		</g>
	</g>
</g>
<g id="outline_x5F_white">
	<g>
		<g>
			<path fill="#FFFFFF" d="M113.646,28.423c3.332,0,5.944,1.544,5.944,1.544l10.054,4.482l0.276,0.232
				c2.101,1.096,5.272,3.935,2.041,10.452c-0.155,0.318-0.308,0.612-0.454,0.897c4.494,1.042,5.412,5.338,5.279,9.138l0.062,0.028
				l-0.063,0.024c0,0.004-0.001,0.007-0.001,0.011l0.064-0.035c-0.027,0.256-0.06,0.505-0.089,0.751l24.468,12.165l-10.646,73.572
				l-55.699,30.284l-47.213-37.483l-5.486-51.642l-0.144-0.867l0.056,0.033L39.71,59.532l19.029-6.409
				c-1.264-1.471-2.77-4.03-1.854-7.165c0.001-0.005,0.002-0.007,0.003-0.01c0.048-0.16,0.081-0.316,0.141-0.479
				c1.879-5.037,5.001-6.015,7.14-6.015c0.702,0,1.299,0.105,1.711,0.207c-0.211-1.188-0.021-2.271,0.869-2.922
				c0.771-0.564,1.841-0.976,2.977-1.282c4.475-1.866,12.856-5.112,17.03-5.111c0.478,0,0.9,0.042,1.256,0.135
				c2.749,0.714,5.4,6.056,7.131,10.379l6.654-2.241c1.947-3.584,4.055-6.791,5.947-8.228
				C109.717,28.901,111.793,28.423,113.646,28.423 M113.646,16.423L113.646,16.423c-4.787,0-9.328,1.518-13.133,4.39
				c-0.812,0.616-1.604,1.316-2.384,2.117c-1.979-1.885-4.315-3.341-7.104-4.065c-1.332-0.345-2.769-0.521-4.272-0.521
				c-0.012,0-0.023,0-0.035,0c-1.957,0-7.064,0.034-20.971,5.771c-2.382,0.724-4.382,1.691-6.093,2.944
				c-0.602,0.44-1.161,0.919-1.676,1.432c-5.45,1.915-9.814,6.401-12.195,12.784c-0.01,0.026-0.02,0.053-0.029,0.079
				c-0.187,0.512-0.308,0.933-0.401,1.279c-0.243,0.836-0.426,1.678-0.551,2.521L35.88,48.16c-5.329,1.794-8.697,7.049-8.103,12.64
				l2.266,21.329c0.008,0.601,0.061,1.205,0.161,1.81l0.086,0.522l5.45,51.294c0.34,3.2,1.951,6.13,4.471,8.131l47.212,37.483
				c2.169,1.721,4.808,2.602,7.464,2.602c1.962,0,3.933-0.479,5.73-1.457l55.699-30.283c3.324-1.81,5.602-5.08,6.144-8.823
				l10.646-73.573c0.742-5.129-1.894-10.156-6.532-12.463l-18.513-9.204c-0.617-2.456-1.592-4.561-2.809-6.344
				c0.657-7.688-3.279-13.789-8.545-17.072c-0.68-0.494-1.408-0.917-2.176-1.259l-9.627-4.293
				C123.001,18.202,118.865,16.423,113.646,16.423L113.646,16.423L113.646,16.423z"/>
		</g>
	</g>
</g>
<g id="outline_x5F_black">
	<g>
		<path d="M113.646,28.423c3.332,0,5.944,1.544,5.944,1.544l10.054,4.482l0.276,0.232c2.101,1.096,5.272,3.935,2.041,10.452
			c-0.155,0.318-0.308,0.612-0.454,0.897c4.494,1.042,5.412,5.338,5.279,9.138l0.062,0.028l-0.063,0.024
			c0,0.004-0.001,0.007-0.001,0.011l0.064-0.035c-0.027,0.256-0.06,0.505-0.089,0.751l24.468,12.165l-10.646,73.572l-55.699,30.284
			l-47.213-37.483l-5.486-51.642l-0.144-0.867l0.056,0.033L39.71,59.532l19.029-6.409c-1.264-1.471-2.77-4.03-1.854-7.165
			c0.001-0.005,0.002-0.007,0.003-0.01c0.048-0.16,0.081-0.316,0.141-0.479c1.879-5.037,5.001-6.015,7.14-6.015
			c0.702,0,1.299,0.105,1.711,0.207c-0.211-1.188-0.021-2.271,0.869-2.922c0.771-0.564,1.841-0.976,2.977-1.282
			c4.475-1.866,12.856-5.112,17.03-5.111c0.478,0,0.9,0.042,1.256,0.135c2.749,0.714,5.4,6.056,7.131,10.379l6.654-2.241
			c1.947-3.584,4.055-6.791,5.947-8.228C109.717,28.901,111.793,28.423,113.646,28.423 M113.646,22.423L113.646,22.423
			c-3.474,0-6.765,1.099-9.52,3.179c-1.949,1.48-3.894,3.854-6.016,7.371c-2.608-4.837-5.356-7.459-8.594-8.3
			c-0.85-0.22-1.753-0.327-2.764-0.327c-3.911,0-10.303,1.827-19,5.432c-1.845,0.535-3.337,1.231-4.553,2.121
			c-0.727,0.532-1.346,1.165-1.848,1.877c-3.177,0.726-7.479,2.979-9.948,9.596c-0.143,0.392-0.223,0.69-0.266,0.85l0,0
			c-0.006,0.021-0.013,0.043-0.019,0.065c-0.5,1.715-0.629,3.475-0.407,5.207l-12.921,4.352c-2.665,0.897-4.349,3.524-4.051,6.32
			l2.301,21.656c-0.01,0.376,0.016,0.757,0.079,1.136l0.115,0.695l5.468,51.468c0.17,1.602,0.976,3.064,2.235,4.064l47.213,37.482
			c1.084,0.859,2.403,1.303,3.731,1.303c0.981,0,1.967-0.24,2.865-0.729l55.698-30.284c1.662-0.904,2.802-2.539,3.072-4.412
			l10.646-73.573c0.371-2.564-0.946-5.078-3.269-6.231L142.67,52.188c-0.391-3.567-1.688-6.521-3.75-8.65
			c1.617-6.718-1.624-11.465-5.596-13.824c-0.383-0.297-0.799-0.547-1.241-0.744l-9.812-4.375
			C121.088,23.955,117.809,22.423,113.646,22.423L113.646,22.423z"/>
	</g>
</g>
</svg>
