<?xml version="1.0" encoding="utf-8"?>
<!-- Generator: Adobe Illustrator 15.0.0, SVG Export Plug-In . SVG Version: 6.00 Build 0)  -->
<!DOCTYPE svg PUBLIC "-//W3C//DTD SVG 1.1//EN" "http://www.w3.org/Graphics/SVG/1.1/DTD/svg11.dtd">
<svg version="1.1" xmlns="http://www.w3.org/2000/svg" xmlns:xlink="http://www.w3.org/1999/xlink" x="0px" y="0px" width="200px"
	 height="200px" viewBox="0 0 200 200" enable-background="new 0 0 200 200" xml:space="preserve">
<g id="icon">
	<g id="Layer_2">
	</g>
	<g id="Layer_1_1_">
		<g>
			<g>
				<g>
					
						<linearGradient id="SVGID_1_" gradientUnits="userSpaceOnUse" x1="150.2998" y1="614.4844" x2="189.3738" y2="653.8325" gradientTransform="matrix(1 0 0 1 -100 -591)">
						<stop  offset="0" style="stop-color:#E6EDF0"/>
						<stop  offset="0.736" style="stop-color:#8B898B"/>
						<stop  offset="1" style="stop-color:#4A4F4A"/>
					</linearGradient>
					<path fill="url(#SVGID_1_)" d="M59.411,70.693c-2.94-2.582-5.62-6.052-5.62-6.052l52.034-22.088l1.714,1.234l-1.436,3.235
						l5.854,5.169l3.003-1.503l1.963,1.749l-51.06,22.392C65.865,74.828,61.997,72.963,59.411,70.693z"/>
					
						<linearGradient id="SVGID_2_" gradientUnits="userSpaceOnUse" x1="147.7305" y1="633.3262" x2="157.1906" y2="636.7538" gradientTransform="matrix(1 0 0 1 -100 -591)">
						<stop  offset="0" style="stop-color:#E6EDF0"/>
						<stop  offset="0.736" style="stop-color:#8B898B"/>
						<stop  offset="1" style="stop-color:#4A4F4A"/>
					</linearGradient>
					<polygon fill="url(#SVGID_2_)" points="58.547,66.455 105.003,46.049 106.104,47.021 107.539,43.787 58.252,65.654 					"/>
					
						<linearGradient id="SVGID_3_" gradientUnits="userSpaceOnUse" x1="139.1426" y1="684.9746" x2="157.1033" y2="691.2814" gradientTransform="matrix(1 0 0 1 -100 -591)">
						<stop  offset="0" style="stop-color:#E6EDF0"/>
						<stop  offset="0.5583" style="stop-color:#8B898B"/>
						<stop  offset="1" style="stop-color:#4A4F4A"/>
					</linearGradient>
					<path fill="url(#SVGID_3_)" d="M53.791,64.641l-17.768,55.205c0,0,4.397,7.875,13.296,12.18l16.644-57.512
						C65.963,74.512,61.071,73.058,53.791,64.641z"/>
					
						<linearGradient id="SVGID_4_" gradientUnits="userSpaceOnUse" x1="119.835" y1="659.8633" x2="135.6264" y2="665.694" gradientTransform="matrix(1 0 0 1 -100 -591)">
						<stop  offset="0" style="stop-color:#E6EDF0"/>
						<stop  offset="0.736" style="stop-color:#8B898B"/>
						<stop  offset="1" style="stop-color:#303630"/>
					</linearGradient>
					<polygon fill="url(#SVGID_4_)" points="116.925,52.436 92.746,107.936 49.319,132.025 65.865,74.828 					"/>
					<path opacity="0.16" fill="#3F2E1B" enable-background="new    " d="M114.962,50.687l-3.003,1.503l-5.855-5.169l1.438-3.235
						l-1.714-1.234L53.791,64.641l-17.768,55.205c0,0,4.397,7.875,13.296,12.18l43.427-24.09l24.179-55.5L114.962,50.687z"/>
					<path fill="#CDC5AC" d="M61.91,69.712c-2.239-1.966-3.363-3.257-3.363-3.257l46.456-20.406l6.956,6.142L66.303,72.326
						C66.303,72.326,63.878,71.439,61.91,69.712z"/>
					
						<linearGradient id="SVGID_5_" gradientUnits="userSpaceOnUse" x1="184.5059" y1="648.7207" x2="183.5461" y2="646.664" gradientTransform="matrix(1 0 0 1 -100 -591)">
						<stop  offset="0.0123" style="stop-color:#FFFFFF;stop-opacity:0"/>
						<stop  offset="1" style="stop-color:#949494"/>
					</linearGradient>
					<path fill="url(#SVGID_5_)" d="M61.91,69.712c-2.239-1.966-3.363-3.257-3.363-3.257l46.456-20.406l6.956,6.142L66.303,72.326
						C66.303,72.326,63.878,71.439,61.91,69.712z"/>
				</g>
				<g>
					
						<linearGradient id="SVGID_6_" gradientUnits="userSpaceOnUse" x1="317.3457" y1="680.7031" x2="154.0029" y2="710.4017" gradientTransform="matrix(1.0016 0.0218 0.0301 0.999 -136.3803 -617.4255)">
						<stop  offset="0" style="stop-color:#E6EDF0"/>
						<stop  offset="0.4294" style="stop-color:#5D3500"/>
						<stop  offset="1" style="stop-color:#4B4F4B"/>
					</linearGradient>
					<polygon fill="url(#SVGID_6_)" points="123.738,32.178 119.895,110.006 67.618,140.961 67.701,59.038 					"/>
					
						<linearGradient id="SVGID_7_" gradientUnits="userSpaceOnUse" x1="242.2246" y1="654.1084" x2="243.2034" y2="652.3467" gradientTransform="matrix(1.0016 0.0218 0.0301 0.999 -136.3803 -617.4255)">
						<stop  offset="0.0056" style="stop-color:#FFFFFF"/>
						<stop  offset="1" style="stop-color:#610000"/>
					</linearGradient>
					<polygon fill="url(#SVGID_7_)" points="119.568,37.506 133.107,44.665 132.361,44.882 118.807,37.817 					"/>
					
						<linearGradient id="SVGID_8_" gradientUnits="userSpaceOnUse" x1="168.2041" y1="718.6924" x2="212.6252" y2="722.0239" gradientTransform="matrix(1.0016 0.0218 0.0301 0.999 -136.266 -617.5866)">
						<stop  offset="0" style="stop-color:#E6CA81"/>
						<stop  offset="0.4969" style="stop-color:#745123"/>
						<stop  offset="1" style="stop-color:#442303"/>
					</linearGradient>
					<path fill="url(#SVGID_8_)" d="M74.672,67.057c-6.921-3.854-8.922-8.528-8.922-8.528l-0.543,84.538
						c0,0,3.422,10.873,18.559,10.279l1.235-82.36C85.001,70.985,79.351,69.663,74.672,67.057z"/>
					
						<linearGradient id="SVGID_9_" gradientUnits="userSpaceOnUse" x1="340.0957" y1="690.3252" x2="168.6552" y2="721.4963" gradientTransform="matrix(1.0016 0.0218 0.0301 0.999 -136.3803 -617.4255)">
						<stop  offset="0" style="stop-color:#E6EDF0"/>
						<stop  offset="0.3742" style="stop-color:#8D8B8D"/>
						<stop  offset="1" style="stop-color:#300D00"/>
					</linearGradient>
					<polygon fill="url(#SVGID_9_)" points="143.205,41.702 139.134,122.148 83.766,153.346 85.001,70.985 					"/>
					
						<linearGradient id="SVGID_10_" gradientUnits="userSpaceOnUse" x1="184.8574" y1="599.3037" x2="279.4471" y2="771.7909" gradientTransform="matrix(1.0016 0.0218 0.0301 0.999 -136.3803 -617.4255)">
						<stop  offset="0" style="stop-color:#E6D2B3"/>
						<stop  offset="0.411" style="stop-color:#8D6D3D"/>
						<stop  offset="1" style="stop-color:#6A4F35"/>
					</linearGradient>
					<path fill="url(#SVGID_10_)" d="M120.771,31.188l2.967,0.991L69.805,59.545c0,0-0.105,2.635,5.445,5.926
						c3.781,2.243,9.215,3.191,9.215,3.191l56.391-27.936l2.352,0.977L85.001,70.985c0,0-6.147-0.003-13.827-5.12
						c-6.893-4.593-5.424-7.336-5.424-7.336L120.771,31.188z"/>
					<path fill="#DED9C9" d="M119.568,37.506l13.539,7.159L84.465,68.662c0,0-5.434-0.739-9.215-3.191
						c-3.871-2.51-3.981-3.578-3.981-3.578L119.568,37.506z"/>
					
						<linearGradient id="SVGID_11_" gradientUnits="userSpaceOnUse" x1="198.7686" y1="643.2061" x2="197.123" y2="640.0522" gradientTransform="matrix(1 0 0 1 -100 -591)">
						<stop  offset="0.0123" style="stop-color:#FFFFFF;stop-opacity:0"/>
						<stop  offset="1" style="stop-color:#949494"/>
					</linearGradient>
					<path fill="url(#SVGID_11_)" d="M119.568,37.506l5.973,3.119L76.25,65.471c0,0-5.884-2.675-4.981-3.578
						C72.17,60.985,119.568,37.506,119.568,37.506z"/>
				</g>
				<g>
					
						<linearGradient id="SVGID_12_" gradientUnits="userSpaceOnUse" x1="342.1592" y1="691.5986" x2="174.2186" y2="722.1333" gradientTransform="matrix(1.0016 0.0218 0.0301 0.999 -136.3803 -617.4255)">
						<stop  offset="0" style="stop-color:#E6EDF0"/>
						<stop  offset="0.3804" style="stop-color:#729056"/>
						<stop  offset="1" style="stop-color:#4B4F4B"/>
					</linearGradient>
					<polygon fill="url(#SVGID_12_)" points="146.721,42.553 142.768,122.568 89.02,154.396 89.105,70.167 					"/>
					
						<linearGradient id="SVGID_13_" gradientUnits="userSpaceOnUse" x1="264.9219" y1="664.2578" x2="265.9265" y2="662.4493" gradientTransform="matrix(1.0016 0.0218 0.0301 0.999 -136.3803 -617.4255)">
						<stop  offset="0.0056" style="stop-color:#FFFFFF"/>
						<stop  offset="1" style="stop-color:#610000"/>
					</linearGradient>
					<polygon fill="url(#SVGID_13_)" points="142.434,48.03 156.352,55.391 155.584,55.614 141.648,48.35 					"/>
					
						<linearGradient id="SVGID_14_" gradientUnits="userSpaceOnUse" x1="188.8252" y1="730.6504" x2="234.4962" y2="734.0757" gradientTransform="matrix(1.0016 0.0218 0.0301 0.999 -136.266 -617.5866)">
						<stop  offset="0" style="stop-color:#E6EDF0"/>
						<stop  offset="0.3067" style="stop-color:#79884C"/>
						<stop  offset="1" style="stop-color:#2E3F2E"/>
					</linearGradient>
					<path fill="url(#SVGID_14_)" d="M96.271,78.412c-7.115-3.962-9.172-8.768-9.172-8.768l-0.559,86.915
						c0,0,3.519,11.181,19.08,10.567l1.271-84.676C106.893,82.451,101.082,81.092,96.271,78.412z"/>
					
						<linearGradient id="SVGID_15_" gradientUnits="userSpaceOnUse" x1="365.5488" y1="701.4902" x2="189.2839" y2="733.5385" gradientTransform="matrix(1.0016 0.0218 0.0301 0.999 -136.3803 -617.4255)">
						<stop  offset="0" style="stop-color:#E6EDF0"/>
						<stop  offset="0.4172" style="stop-color:#778B5B"/>
						<stop  offset="1" style="stop-color:#253225"/>
					</linearGradient>
					<polygon fill="url(#SVGID_15_)" points="166.732,52.344 162.547,135.055 105.621,167.127 106.893,82.451 					"/>
					
						<linearGradient id="SVGID_16_" gradientUnits="userSpaceOnUse" x1="205.9473" y1="607.9102" x2="303.196" y2="785.246" gradientTransform="matrix(1.0016 0.0218 0.0301 0.999 -136.3803 -617.4255)">
						<stop  offset="0" style="stop-color:#E6EDF0"/>
						<stop  offset="0.454" style="stop-color:#889753"/>
						<stop  offset="1" style="stop-color:#4B604B"/>
					</linearGradient>
					<path fill="url(#SVGID_16_)" d="M143.669,41.534l3.052,1.019L91.27,70.689c0,0-0.109,2.709,5.597,6.092
						c3.889,2.307,9.476,3.281,9.476,3.281l57.976-28.722l2.416,1.003l-59.84,30.107c0,0-6.32-0.002-14.215-5.264
						c-7.087-4.723-5.577-7.543-5.577-7.543L143.669,41.534z"/>
					<path fill="#E5E6D4" d="M142.434,48.03l13.918,7.36l-50.01,24.672c0,0-5.587-0.76-9.476-3.281
						c-3.979-2.58-4.094-3.679-4.094-3.679L142.434,48.03z"/>
					<path opacity="0.15" fill="#D4CD95" enable-background="new    " d="M142.434,48.03l13.918,7.36l-50.01,24.672
						c0,0-5.587-0.76-9.476-3.281c-3.979-2.58-4.094-3.679-4.094-3.679L142.434,48.03z"/>
					
						<linearGradient id="SVGID_17_" gradientUnits="userSpaceOnUse" x1="221.0469" y1="654.1416" x2="219.3553" y2="650.8993" gradientTransform="matrix(1 0 0 1 -100 -591)">
						<stop  offset="0.0123" style="stop-color:#FFFFFF;stop-opacity:0"/>
						<stop  offset="1" style="stop-color:#949494"/>
					</linearGradient>
					<path fill="url(#SVGID_17_)" d="M142.434,48.03l6.14,3.206L97.895,76.781c0,0-6.049-2.75-5.122-3.679
						C93.7,72.17,142.434,48.03,142.434,48.03z"/>
				</g>
			</g>
		</g>
	</g>
</g>
<g id="outline_x5F_white">
	<g>
		<g>
			<path fill="#FFFFFF" d="M120.771,31.188l2.967,0.991l-0.36,7.317l2.163,1.129l-0.037,0.019l7.506,3.969l7.846-3.887l2.352,0.977
				l-0.003,0.064l0.467-0.232l3.052,1.019l-0.371,7.522l2.224,1.161l-0.039,0.02l7.718,4.081l8.066-3.996l2.416,1.003l-4.188,82.709
				l-56.926,32.071c-0.415,0.019-0.818,0.022-1.219,0.022c-14.525,0-17.861-10.592-17.861-10.592l0.031-4.795l-2.807,1.58
				c-0.403,0.016-0.797,0.023-1.184,0.023c-14.131,0-17.375-10.303-17.375-10.303l0.129-19.927l-16.017,8.886
				c-8.898-4.306-13.296-12.181-13.296-12.181l17.768-55.205l11.855-5.033c-0.009-0.066-0.012-0.125-0.017-0.185
				c-0.001-0.013-0.003-0.025-0.003-0.038c-0.01-0.178-0.002-0.327,0.015-0.45c0.003-0.012,0.004-0.021,0.005-0.033
				c0.02-0.119,0.041-0.21,0.062-0.271c0.004-0.01,0.004-0.008,0.006-0.017c0.02-0.052,0.035-0.086,0.035-0.086L120.771,31.188
				 M120.771,19.188c-1.836,0-3.664,0.421-5.34,1.253L60.41,47.782c-1.235,0.614-2.347,1.432-3.291,2.41l-8.017,3.403
				c-3.208,1.362-5.666,4.052-6.734,7.37L24.6,116.169c-1.02,3.17-0.678,6.62,0.946,9.526c0.639,1.146,6.587,11.347,18.547,17.133
				c1.653,0.799,3.44,1.197,5.225,1.197c1.317,0,2.633-0.217,3.892-0.648c0.029,1.117,0.214,2.227,0.55,3.293
				c1.964,6.235,9.041,16.348,23.57,18.35c3.99,6.625,12.467,14.133,27.072,14.133c0.553,0,1.113-0.012,1.688-0.033
				c1.902-0.074,3.762-0.602,5.419-1.535l56.927-32.072c3.586-2.021,5.887-5.738,6.094-9.85l4.188-82.709
				c0.258-5.065-2.699-9.745-7.383-11.689l-2.417-1.003c-1.476-0.612-3.04-0.917-4.603-0.917c-1.826,0-3.651,0.417-5.326,1.247
				l-0.399,0.198c-0.653-4.403-3.726-8.165-8.069-9.616l-3.051-1.019c-0.629-0.21-1.27-0.366-1.916-0.469l-0.093-0.039
				c-1.478-0.614-3.042-0.919-4.604-0.919c-1.826,0-3.646,0.416-5.319,1.244c-0.788-4.211-3.798-7.771-7.995-9.173l-2.969-0.991
				C123.337,19.392,122.053,19.188,120.771,19.188L120.771,19.188z"/>
		</g>
	</g>
</g>
<g id="outline_x5F_black">
	<g>
		<path d="M120.771,31.188l2.967,0.991l-0.36,7.317l2.163,1.129l-0.037,0.019l7.506,3.969l7.846-3.887l2.352,0.977l-0.003,0.064
			l0.467-0.232l3.052,1.019l-0.371,7.522l2.224,1.161l-0.039,0.02l7.718,4.081l8.066-3.996l2.416,1.003l-4.188,82.709
			l-56.926,32.071c-0.415,0.019-0.818,0.022-1.219,0.022c-14.525,0-17.861-10.592-17.861-10.592l0.031-4.795l-2.807,1.58
			c-0.403,0.016-0.797,0.023-1.184,0.023c-14.131,0-17.375-10.303-17.375-10.303l0.129-19.927l-16.017,8.886
			c-8.898-4.306-13.296-12.181-13.296-12.181l17.768-55.205l11.855-5.033c-0.009-0.066-0.012-0.125-0.017-0.185
			c-0.001-0.013-0.003-0.025-0.003-0.038c-0.01-0.178-0.002-0.327,0.015-0.45c0.003-0.012,0.004-0.021,0.005-0.033
			c0.02-0.119,0.041-0.21,0.062-0.271c0.004-0.01,0.004-0.008,0.006-0.017c0.02-0.052,0.035-0.086,0.035-0.086L120.771,31.188
			 M120.322,24.711l-2.221,1.103L63.08,53.156l-1.861,0.925l-0.527,1.113l-9.245,3.925L48.92,60.19l-0.841,2.612l-17.768,55.205
			l-0.8,2.484l1.272,2.278c0.217,0.39,5.44,9.586,15.922,14.654l2.802,1.355l2.721-1.512l7.04-3.903l-0.062,9.657l-0.006,0.942
			l0.283,0.897c0.182,0.578,4.542,13.793,21.706,14.475c1.408,3.326,7.127,13.811,23.213,13.811c0.476,0,0.957-0.01,1.453-0.027
			l1.446-0.059l1.263-0.711l56.927-32.072l2.88-1.622l0.167-3.302l4.187-82.709l0.215-4.223l-3.904-1.622l-2.417-1.003l-2.521-1.046
			l-2.445,1.211l-5.262,2.606l-3.861-2.032l0.185-3.69l0.226-4.546l-4.316-1.442l-3.051-1.019l-2.352-0.785l-0.168,0.083
			l-2.412-1.004l-2.447,1.212l-5.041,2.498l-3.59-1.888l0.172-3.485l0.225-4.545l-4.316-1.441l-2.967-0.991L120.322,24.711
			L120.322,24.711z"/>
	</g>
</g>
</svg>
