<?xml version="1.0" encoding="utf-8"?>
<!-- Generator: Adobe Illustrator 15.0.0, SVG Export Plug-In . SVG Version: 6.00 Build 0)  -->
<!DOCTYPE svg PUBLIC "-//W3C//DTD SVG 1.1//EN" "http://www.w3.org/Graphics/SVG/1.1/DTD/svg11.dtd">
<svg version="1.1" xmlns="http://www.w3.org/2000/svg" xmlns:xlink="http://www.w3.org/1999/xlink" x="0px" y="0px" width="200px"
	 height="200px" viewBox="0 0 200 200" enable-background="new 0 0 200 200" xml:space="preserve">
<g id="icon">
	<g id="Layer_2">
	</g>
	<g id="Layer_1_1_">
		<g>
			
				<radialGradient id="SVGID_1_" cx="207.8184" cy="661.7812" r="126.5666" gradientTransform="matrix(1 0 0 1 -100 -591)" gradientUnits="userSpaceOnUse">
				<stop  offset="0" style="stop-color:#C29756"/>
				<stop  offset="1" style="stop-color:#653F19"/>
			</radialGradient>
			<polygon fill="url(#SVGID_1_)" points="89.714,177.216 39.208,127.064 32.949,55.686 87.974,101.693 			"/>
			
				<radialGradient id="SVGID_2_" cx="210.832" cy="678.9971" r="78.5463" gradientTransform="matrix(1 0 0 1 -100 -591)" gradientUnits="userSpaceOnUse">
				<stop  offset="0" style="stop-color:#C29756"/>
				<stop  offset="1" style="stop-color:#653F19"/>
			</radialGradient>
			<polygon fill="url(#SVGID_2_)" points="83.207,163.279 43.64,124.093 38.819,69.083 81.866,105.079 			"/>
			
				<radialGradient id="SVGID_3_" cx="167.3047" cy="791.4775" r="18.3251" gradientTransform="matrix(1 0 0 1 -100 -591)" gradientUnits="userSpaceOnUse">
				<stop  offset="0" style="stop-color:#C29756"/>
				<stop  offset="1" style="stop-color:#563611"/>
			</radialGradient>
			<polygon fill="url(#SVGID_3_)" points="45.272,123.591 40.628,70.595 38.819,69.083 43.64,124.093 83.207,163.279 
				83.158,161.236 			"/>
			
				<radialGradient id="SVGID_4_" cx="239.7383" cy="637.0527" r="1321.3854" gradientTransform="matrix(1 0 0 1 -100 -591)" gradientUnits="userSpaceOnUse">
				<stop  offset="0" style="stop-color:#B89758"/>
				<stop  offset="1" style="stop-color:#885D14"/>
			</radialGradient>
			<polygon fill="url(#SVGID_4_)" points="167.123,61.396 106.35,23.275 32.949,55.686 87.974,101.693 			"/>
			
				<linearGradient id="SVGID_5_" gradientUnits="userSpaceOnUse" x1="189.7324" y1="723.6025" x2="231.0498" y2="426.6319" gradientTransform="matrix(1 0 0 1 -100 -591)">
				<stop  offset="0" style="stop-color:#F6D288"/>
				<stop  offset="1" style="stop-color:#975D00"/>
			</linearGradient>
			<polygon fill="url(#SVGID_5_)" points="167.123,61.396 106.35,23.275 32.949,55.686 87.974,101.693 			"/>
			
				<linearGradient id="SVGID_6_" gradientUnits="userSpaceOnUse" x1="190.0723" y1="723.6523" x2="231.3905" y2="426.6759" gradientTransform="matrix(1 0 0 1 -100 -591)">
				<stop  offset="0" style="stop-color:#F6D288"/>
				<stop  offset="1" style="stop-color:#975D00"/>
			</linearGradient>
			<polygon fill="url(#SVGID_6_)" points="153.624,60.514 105.963,29.984 46.899,58.308 89.595,93.083 			"/>
			
				<linearGradient id="SVGID_7_" gradientUnits="userSpaceOnUse" x1="194.6748" y1="564.4971" x2="201.4629" y2="668.9015" gradientTransform="matrix(1 0 0 1 -100 -591)">
				<stop  offset="0" style="stop-color:#C59758"/>
				<stop  offset="1" style="stop-color:#6A2B00"/>
			</linearGradient>
			<polygon fill="url(#SVGID_7_)" points="105.963,31.498 152.289,61.192 153.624,60.514 105.963,29.984 46.899,58.308 
				48.082,59.274 			"/>
			
				<linearGradient id="SVGID_8_" gradientUnits="userSpaceOnUse" x1="173.8516" y1="671.0088" x2="278.4391" y2="746.329" gradientTransform="matrix(1 0 0 1 -100 -591)">
				<stop  offset="0" style="stop-color:#DCB665"/>
				<stop  offset="0.6154" style="stop-color:#AE7230"/>
				<stop  offset="1" style="stop-color:#3D1900"/>
			</linearGradient>
			<polygon fill="url(#SVGID_8_)" points="87.974,101.693 89.714,177.216 160.697,135.372 167.123,61.396 			"/>
			
				<linearGradient id="SVGID_9_" gradientUnits="userSpaceOnUse" x1="167.7471" y1="662.5352" x2="271.0428" y2="742.5894" gradientTransform="matrix(1 0 0 1 -100 -591)">
				<stop  offset="0" style="stop-color:#DCB665"/>
				<stop  offset="0.6154" style="stop-color:#AE7230"/>
				<stop  offset="1" style="stop-color:#3D1900"/>
			</linearGradient>
			<polygon fill="url(#SVGID_9_)" points="96.989,105.578 98.191,163.596 154.582,130.354 158.58,73.466 			"/>
			
				<linearGradient id="SVGID_10_" gradientUnits="userSpaceOnUse" x1="229.4893" y1="689.2266" x2="224.8303" y2="680.3768" gradientTransform="matrix(1 0 0 1 -100 -591)">
				<stop  offset="0.6687" style="stop-color:#3D1900;stop-opacity:0"/>
				<stop  offset="1" style="stop-color:#3D1900"/>
			</linearGradient>
			<polygon opacity="0.52" fill="url(#SVGID_10_)" enable-background="new    " points="96.989,105.578 97.226,116.962 
				157.793,84.673 158.58,73.466 			"/>
			
				<linearGradient id="SVGID_11_" gradientUnits="userSpaceOnUse" x1="192.3232" y1="651.832" x2="254.0763" y2="750.6362" gradientTransform="matrix(1 0 0 1 -100 -591)">
				<stop  offset="0" style="stop-color:#C59758"/>
				<stop  offset="1" style="stop-color:#6A3200"/>
			</linearGradient>
			<polygon fill="url(#SVGID_11_)" points="157.001,74.29 153.117,129.459 98.154,161.861 98.191,163.596 154.582,130.354 
				158.58,73.466 			"/>
			
				<linearGradient id="SVGID_12_" gradientUnits="userSpaceOnUse" x1="209.7207" y1="698.0605" x2="229.598" y2="742.9213" gradientTransform="matrix(1 0.0099 0 1 -100 -602.1637)">
				<stop  offset="0" style="stop-color:#C59758"/>
				<stop  offset="1" style="stop-color:#6A3200"/>
			</linearGradient>
			<polygon opacity="0.2" fill="url(#SVGID_12_)" enable-background="new    " points="98.251,149.834 153.535,118.439 
				153.553,118.909 98.074,150.425 98.074,149.947 			"/>
			
				<linearGradient id="SVGID_13_" gradientUnits="userSpaceOnUse" x1="210.0137" y1="683.0889" x2="229.9124" y2="727.9979" gradientTransform="matrix(1 0.0099 0 1 -100 -602.1637)">
				<stop  offset="0" style="stop-color:#C59758"/>
				<stop  offset="1" style="stop-color:#6A3200"/>
			</linearGradient>
			<polygon opacity="0.2" fill="url(#SVGID_13_)" enable-background="new    " points="98.111,135.085 154.302,103.307 
				154.318,103.788 97.927,135.695 97.927,135.202 			"/>
			
				<linearGradient id="SVGID_14_" gradientUnits="userSpaceOnUse" x1="212.5713" y1="671.167" x2="229.904" y2="710.2849" gradientTransform="matrix(1 0.0099 0 1 -100 -602.1637)">
				<stop  offset="0" style="stop-color:#C59758"/>
				<stop  offset="1" style="stop-color:#6A3200"/>
			</linearGradient>
			<polygon opacity="0.2" fill="url(#SVGID_14_)" enable-background="new    " points="97.795,118.29 155.588,86.87 155.604,87.372 
				97.606,118.93 97.608,118.414 			"/>
			
				<linearGradient id="SVGID_15_" gradientUnits="userSpaceOnUse" x1="2486.709" y1="171.752" x2="2501.5264" y2="205.1927" gradientTransform="matrix(-0.3854 0.7542 -0.7567 -0.3773 1210.9052 -1674.9633)">
				<stop  offset="0" style="stop-color:#C59758"/>
				<stop  offset="1" style="stop-color:#6A3200"/>
			</linearGradient>
			<polygon opacity="0.2" fill="url(#SVGID_15_)" enable-background="new    " points="97.166,105.896 98.191,163.596 
				97.789,163.395 96.739,105.491 97.145,105.691 			"/>
			
				<linearGradient id="SVGID_16_" gradientUnits="userSpaceOnUse" x1="-37.1299" y1="189.9688" x2="-31.9526" y2="201.6536" gradientTransform="matrix(0.8903 -0.4624 0.4769 0.7981 96.6534 -106.533)">
				<stop  offset="0" style="stop-color:#C59758"/>
				<stop  offset="1" style="stop-color:#6A3200"/>
			</linearGradient>
			<polygon opacity="0.2" fill="url(#SVGID_16_)" enable-background="new    " points="158.461,73.282 166.27,61.828 
				166.521,62.247 158.598,73.89 158.348,73.474 			"/>
			
				<linearGradient id="SVGID_17_" gradientUnits="userSpaceOnUse" x1="-148.8623" y1="180.4365" x2="-139.9293" y2="200.5974" gradientTransform="matrix(0.8875 -0.4607 0.4366 0.8224 124.6435 -123.883)">
				<stop  offset="0" style="stop-color:#C59758"/>
				<stop  offset="1" style="stop-color:#6A3200"/>
			</linearGradient>
			<polygon opacity="0.2" fill="url(#SVGID_17_)" enable-background="new    " points="81.756,104.456 87.857,101.298 
				88.082,101.729 81.866,105.079 			"/>
			
				<linearGradient id="SVGID_18_" gradientUnits="userSpaceOnUse" x1="1176.3945" y1="997.5107" x2="1180.4341" y2="1006.6281" gradientTransform="matrix(0.6417 0.767 -0.7606 0.6492 99.8899 -1453.7279)">
				<stop  offset="0" style="stop-color:#C59758"/>
				<stop  offset="1" style="stop-color:#6A3200"/>
			</linearGradient>
			<polygon opacity="0.2" fill="url(#SVGID_18_)" enable-background="new    " points="88.165,101.542 97.58,105.079 97.18,105.419 
				87.541,101.814 87.941,101.479 			"/>
			
				<linearGradient id="SVGID_19_" gradientUnits="userSpaceOnUse" x1="1154.4492" y1="962.4102" x2="1177.0073" y2="1013.3212" gradientTransform="matrix(0.6417 0.767 -0.7606 0.6492 99.8899 -1453.7279)">
				<stop  offset="0" style="stop-color:#C59758"/>
				<stop  offset="1" style="stop-color:#6A3200"/>
			</linearGradient>
			<polygon opacity="0.2" fill="url(#SVGID_19_)" enable-background="new    " points="90.085,93.159 88.496,101.499 
				87.857,101.298 89.461,93.431 89.863,93.095 			"/>
			
				<linearGradient id="SVGID_20_" gradientUnits="userSpaceOnUse" x1="1115.7422" y1="912.7832" x2="1133.5715" y2="953.0222" gradientTransform="matrix(0.6417 0.767 -0.7606 0.6492 99.8899 -1453.7279)">
				<stop  offset="0" style="stop-color:#C59758"/>
				<stop  offset="1" style="stop-color:#6A3200"/>
			</linearGradient>
			<polygon opacity="0.2" fill="url(#SVGID_20_)" enable-background="new    " points="106.541,23.405 106.077,30.364 
				105.439,30.162 105.922,23.676 106.324,23.34 			"/>
			
				<linearGradient id="SVGID_21_" gradientUnits="userSpaceOnUse" x1="2217.6797" y1="-471.2549" x2="2251.9236" y2="-393.9705" gradientTransform="matrix(-0.8145 0.6156 -0.6954 -0.7021 1585.144 -1612.312)">
				<stop  offset="0" style="stop-color:#C59758"/>
				<stop  offset="1" style="stop-color:#6A3200"/>
			</linearGradient>
			<polygon opacity="0.2" fill="url(#SVGID_21_)" enable-background="new    " points="47.237,58.117 33.651,56.117 33.863,55.514 
				46.942,57.542 47.303,57.911 			"/>
			
				<linearGradient id="SVGID_22_" gradientUnits="userSpaceOnUse" x1="976.1494" y1="-1536.9678" x2="1007.4299" y2="-1466.3716" gradientTransform="matrix(0.7586 0.6721 0.694 -0.7033 427.0493 -1652.6086)">
				<stop  offset="0" style="stop-color:#C59758"/>
				<stop  offset="1" style="stop-color:#6A3200"/>
			</linearGradient>
			<polygon opacity="0.2" fill="url(#SVGID_22_)" enable-background="new    " points="153.312,61.102 166.27,61.828 166.09,61.195 
				153.617,60.511 153.254,60.882 			"/>
			
				<linearGradient id="SVGID_23_" gradientUnits="userSpaceOnUse" x1="2262.3291" y1="-564.0879" x2="2266.821" y2="-553.9503" gradientTransform="matrix(-0.8886 0.5394 -0.5281 -0.8514 1814.145 -1525.5796)">
				<stop  offset="0" style="stop-color:#C59758"/>
				<stop  offset="1" style="stop-color:#6A3200"/>
			</linearGradient>
			<polygon opacity="0.2" fill="url(#SVGID_23_)" enable-background="new    " points="98.621,163.2 89.893,177.384 89.62,176.938 
				98.452,162.538 98.725,162.984 			"/>
			
				<linearGradient id="SVGID_24_" gradientUnits="userSpaceOnUse" x1="2234.5488" y1="-651.2432" x2="2239.4009" y2="-640.2928" gradientTransform="matrix(-0.9853 0.4585 -0.4972 -0.8256 1927.7104 -1431.1193)">
				<stop  offset="0" style="stop-color:#C59758"/>
				<stop  offset="1" style="stop-color:#6A3200"/>
			</linearGradient>
			<polygon opacity="0.2" fill="url(#SVGID_24_)" enable-background="new    " points="43.673,124.591 39.494,127.16 
				39.235,126.729 43.542,123.964 43.798,124.396 			"/>
			
				<linearGradient id="SVGID_25_" gradientUnits="userSpaceOnUse" x1="531.0469" y1="-1314.3799" x2="533.3661" y2="-1309.1455" gradientTransform="matrix(1.0311 0.2707 0.2603 -0.9416 -51.082 -1245.5763)">
				<stop  offset="0" style="stop-color:#C59758"/>
				<stop  offset="1" style="stop-color:#6A3200"/>
			</linearGradient>
			<polygon opacity="0.2" fill="url(#SVGID_25_)" enable-background="new    " points="154.387,130.182 160.414,135.126 
				160.549,134.637 154.354,129.516 154.225,130.011 			"/>
			
				<linearGradient id="SVGID_26_" gradientUnits="userSpaceOnUse" x1="508.6504" y1="-1390.7349" x2="527.9584" y2="-1347.1593" gradientTransform="matrix(1.039 0.325 0.38 -0.8835 6.4363 -1305.2955)">
				<stop  offset="0" style="stop-color:#C59758"/>
				<stop  offset="1" style="stop-color:#6A3200"/>
			</linearGradient>
			<polygon opacity="0.2" fill="url(#SVGID_26_)" enable-background="new    " points="33.028,56.198 39.08,69.749 39.273,69.289 
				33.075,55.559 32.877,56.022 			"/>
			
				<linearGradient id="SVGID_27_" gradientUnits="userSpaceOnUse" x1="449.0312" y1="-1416.1309" x2="467.727" y2="-1373.9369" gradientTransform="matrix(0.998 0.2907 0.2894 -0.9592 23.2513 -1290.6562)">
				<stop  offset="0" style="stop-color:#C59758"/>
				<stop  offset="1" style="stop-color:#6A3200"/>
			</linearGradient>
			<polygon opacity="0.2" fill="url(#SVGID_27_)" enable-background="new    " points="89.719,176.979 89.867,176.475 
				83.354,162.775 83.207,163.279 			"/>
			
				<linearGradient id="SVGID_28_" gradientUnits="userSpaceOnUse" x1="-180.71" y1="887.5293" x2="-157.7385" y2="939.3732" gradientTransform="matrix(1.3996 -0.1136 0.7294 0.6553 -338.4421 -556.6581)">
				<stop  offset="0" style="stop-color:#C59758"/>
				<stop  offset="1" style="stop-color:#6A3200"/>
			</linearGradient>
			<polygon opacity="0.2" fill="url(#SVGID_28_)" enable-background="new    " points="81.723,86.237 143.322,55.05 143.663,55.365 
				81.904,86.646 81.562,86.333 			"/>
			
				<linearGradient id="SVGID_29_" gradientUnits="userSpaceOnUse" x1="-179.7383" y1="896.9326" x2="-156.7882" y2="948.7285" gradientTransform="matrix(1.3996 -0.1136 0.7294 0.6553 -338.4421 -556.6581)">
				<stop  offset="0" style="stop-color:#C59758"/>
				<stop  offset="1" style="stop-color:#6A3200"/>
			</linearGradient>
			<polygon opacity="0.2" fill="url(#SVGID_29_)" enable-background="new    " points="89.721,92.321 151.654,61.022 152.021,61.33 
				89.908,92.731 89.557,92.415 			"/>
			
				<linearGradient id="SVGID_30_" gradientUnits="userSpaceOnUse" x1="-180.291" y1="876.7754" x2="-159.6828" y2="923.2858" gradientTransform="matrix(1.3996 -0.1136 0.7294 0.6553 -338.4421 -556.6581)">
				<stop  offset="0" style="stop-color:#C59758"/>
				<stop  offset="1" style="stop-color:#6A3200"/>
			</linearGradient>
			<polygon opacity="0.2" fill="url(#SVGID_30_)" enable-background="new    " points="69.501,75.758 129.381,46.111 
				129.741,46.433 69.691,76.177 69.333,75.855 			"/>
			
				<linearGradient id="SVGID_31_" gradientUnits="userSpaceOnUse" x1="-179.5825" y1="866.7627" x2="-161.7376" y2="907.0364" gradientTransform="matrix(1.3996 -0.1136 0.7294 0.6553 -338.4421 -556.6581)">
				<stop  offset="0" style="stop-color:#C59758"/>
				<stop  offset="1" style="stop-color:#6A3200"/>
			</linearGradient>
			<polygon opacity="0.2" fill="url(#SVGID_31_)" enable-background="new    " points="56.584,65.441 116.035,37.011 
				116.416,37.352 56.787,65.885 56.409,65.545 			"/>
			
				<linearGradient id="SVGID_32_" gradientUnits="userSpaceOnUse" x1="1895.8711" y1="611.291" x2="1936.4321" y2="702.8322" gradientTransform="matrix(-0.9502 -0.009 -0.0068 1.0524 1900.6509 -571.6689)">
				<stop  offset="0" style="stop-color:#C59758"/>
				<stop  offset="1" style="stop-color:#6A3200"/>
			</linearGradient>
			<polygon opacity="0.2" fill="url(#SVGID_32_)" enable-background="new    " points="82.117,149.693 44.425,114.18 
				44.442,114.682 82.271,150.318 82.255,149.816 			"/>
			
				<linearGradient id="SVGID_33_" gradientUnits="userSpaceOnUse" x1="1900.6064" y1="606.8496" x2="1936.0266" y2="686.7889" gradientTransform="matrix(-0.9502 -0.009 -0.0068 1.0524 1900.6509 -571.6689)">
				<stop  offset="0" style="stop-color:#C59758"/>
				<stop  offset="1" style="stop-color:#6A3200"/>
			</linearGradient>
			<polygon opacity="0.2" fill="url(#SVGID_33_)" enable-background="new    " points="81.846,134.124 43.784,100.611 
				43.764,101.102 82.006,134.77 81.992,134.247 			"/>
			
				<linearGradient id="SVGID_34_" gradientUnits="userSpaceOnUse" x1="1903.8047" y1="595.4395" x2="1936.4207" y2="669.0502" gradientTransform="matrix(-0.9502 -0.009 -0.0068 1.0524 1900.6509 -571.6689)">
				<stop  offset="0" style="stop-color:#C59758"/>
				<stop  offset="1" style="stop-color:#6A3200"/>
			</linearGradient>
			<polygon opacity="0.2" fill="url(#SVGID_34_)" enable-background="new    " points="81.662,116.398 42.415,83.499 42.387,84.005 
				81.833,117.068 81.817,116.529 			"/>
		</g>
	</g>
</g>
<g id="outline_x5F_white">
	<g>
		<g>
			<path fill="#FFFFFF" d="M106.35,23.275l60.773,38.122l-6.426,73.976l-70.983,41.844l-50.506-50.15l-6.259-71.377L106.35,23.275
				 M106.348,11.275c-1.646,0-3.297,0.338-4.847,1.022L28.102,44.708c-4.698,2.075-7.556,6.909-7.107,12.026l6.259,71.379
				c0.248,2.824,1.487,5.47,3.499,7.468l50.506,50.149c2.31,2.293,5.369,3.483,8.459,3.483c2.09,0,4.193-0.545,6.09-1.662
				l70.983-41.844c3.342-1.972,5.525-5.437,5.861-9.3l6.426-73.975c0.39-4.486-1.766-8.812-5.578-11.204l-60.773-38.122
				C110.786,11.893,108.572,11.275,106.348,11.275L106.348,11.275z"/>
		</g>
	</g>
</g>
<g id="outline_x5F_black">
	<g>
		<path d="M106.35,23.275l60.773,38.122l-6.426,73.976l-70.983,41.844l-50.506-50.15l-6.259-71.377L106.35,23.275 M106.839,16.5
			l-2.914,1.287l-73.4,32.41l-3.928,1.735l0.375,4.278l6.259,71.38l0.192,2.188l1.558,1.548l50.506,50.149l3.285,3.262l3.989-2.352
			l70.983-41.844l2.663-1.57l0.268-3.078l6.427-73.977l0.316-3.653l-3.105-1.949l-60.773-38.122L106.839,16.5L106.839,16.5z"/>
	</g>
</g>
</svg>
