<?xml version="1.0" encoding="utf-8"?>
<!-- Generator: Adobe Illustrator 15.0.0, SVG Export Plug-In . SVG Version: 6.00 Build 0)  -->
<!DOCTYPE svg PUBLIC "-//W3C//DTD SVG 1.1//EN" "http://www.w3.org/Graphics/SVG/1.1/DTD/svg11.dtd">
<svg version="1.1" xmlns="http://www.w3.org/2000/svg" xmlns:xlink="http://www.w3.org/1999/xlink" x="0px" y="0px" width="200px"
	 height="200px" viewBox="0 0 200 200" enable-background="new 0 0 200 200" xml:space="preserve">
<g id="icon">
	<g id="Layer_2">
	</g>
	<g id="Layer_1_1_">
		<g>
			<polygon fill="#FFFFFF" points="171.23,25.059 188.072,22.128 183.605,39.678 			"/>
			<g>
				<g>
					
						<radialGradient id="SVGID_1_" cx="136.1143" cy="746.8838" r="20.7433" gradientTransform="matrix(1 0 0 1 -100 -591)" gradientUnits="userSpaceOnUse">
						<stop  offset="0" style="stop-color:#FFC000"/>
						<stop  offset="0.6626" style="stop-color:#FF8600"/>
					</radialGradient>
					<path fill="url(#SVGID_1_)" d="M15.381,172.625c-1.328-3.057,0.051-5.512,1.312-7.2l0.03-1.415
						c0.005-0.242,0.006-0.496,0.008-0.76c0.007-1.566,0.021-4.418,1.419-6.657l-3.138-2.681l5.79-1.344
						c0.225-0.051,0.299-0.104,0.3-0.104c0.117-0.116,0.326-0.696,0.464-1.081c0.189-0.521,0.413-1.143,0.749-1.787
						c-0.068-0.261-0.105-0.529-0.111-0.812l-0.01-0.432l0.112-0.416c1.067-3.969,3.469-7.188,7.139-9.573
						c2.842-1.851,5.624-2.677,9.017-2.677c0.905,0,1.841,0.061,2.863,0.182c4.389,0.52,8.048,1.683,11.641,5.679
						c4.695,5.229,5.736,12.067,2.717,17.849c-0.166,0.316-4.129,7.824-9.288,9.817c-0.602,0.231-1.045,0.579-1.659,1.058
						c-0.673,0.524-1.511,1.18-2.686,1.754l-2.167,1.06l-1.426-1.795c-0.052,0.003-0.394,0.024-0.52,0.035
						c-0.004,0.018-0.009,0.034-0.013,0.053c-0.257,1.024-1.041,4.146-4.307,4.146c0,0,0,0-0.001,0
						c-0.801,0-1.627-0.219-2.519-0.666c-1.346,0.717-2.818,1.104-4.301,1.104c-1.757,0-3.432-0.524-4.979-1.562l-0.278-0.188
						l-0.23-0.244c-0.064-0.067-0.126-0.137-0.185-0.206c-0.222-0.021-0.429-0.037-0.613-0.037c-0.429,0-0.536,0.077-0.6,0.127
						l-3.031,2.232L15.381,172.625z"/>
				</g>
				<g>
					
						<radialGradient id="SVGID_2_" cx="-2723.439" cy="5791.1455" r="4.3915" gradientTransform="matrix(-0.3233 -0.8763 0.8174 -0.0684 -5588.189 -1825.3796)" gradientUnits="userSpaceOnUse">
						<stop  offset="0" style="stop-color:#FFE600"/>
						<stop  offset="1" style="stop-color:#FFAE00"/>
					</radialGradient>
					<path fill="url(#SVGID_2_)" d="M29.895,162.898c-3.198-1.791-7.087,2.067-7.677,4.724c2.994,0.799,4.006-2.759,5.809-4.081
						C28.686,163.059,29.634,163.258,29.895,162.898z"/>
					
						<radialGradient id="SVGID_3_" cx="-2724.9512" cy="5795.8535" r="4.5606" gradientTransform="matrix(-0.3233 -0.8763 0.8174 -0.0684 -5588.189 -1825.3796)" gradientUnits="userSpaceOnUse">
						<stop  offset="0" style="stop-color:#FFE600"/>
						<stop  offset="1" style="stop-color:#FFAE00"/>
					</radialGradient>
					<path fill="url(#SVGID_3_)" d="M28.167,167.867c-0.045,0.095-0.185,0.169-0.062,0.301c-0.114,0.43-0.602,0.777-1.021,1.141
						c4.983,1.52,4.735-4.229,6.362-6.789C30.294,162.094,28.466,165.568,28.167,167.867z"/>
					
						<radialGradient id="SVGID_4_" cx="-2712.5679" cy="5810.3955" r="16.2645" gradientTransform="matrix(-0.3233 -0.8763 0.8174 -0.0684 -5588.189 -1825.3796)" gradientUnits="userSpaceOnUse">
						<stop  offset="0" style="stop-color:#FFE600"/>
						<stop  offset="1" style="stop-color:#FFAE00"/>
					</radialGradient>
					<path fill="url(#SVGID_4_)" d="M29.001,148.354c1.208-0.666,2.698,0.438,4.012,0.453c-1.342,1.316-5.091,0.732-5.266,3.36
						c-0.079,0.124-0.005,0.278,0.069,0.435c-0.375,0.758,0.223,1.727-0.719,2.356c1.839,1.028,2.177-0.726,3.187-1.299
						c1.252-0.708,3.711,0.302,4.677-0.869c-0.281,0.498-0.438,1.022-1.084,1.44c-0.168-0.143-0.293-0.013-0.418,0.119
						c-3.015,0.129-2.144,3.414-3.122,4.455c-1.097,1.168-4.809,0.074-4.462,2.905c0.237-0.351,0.536-0.301,0.803-0.454
						c0.167,0.133,0.31,0.112,0.455,0.102c1.946,0.463,3.978,1.484,5.172,0.179c0.529-0.578,0.211-1.874,0.815-2.44
						c0.906-0.851,2.168-0.271,3.387-0.73c-0.214,0.714,0.582,1.857,0.092,2.64c-0.546,0.87-2.044,1.017-2.665,1.831
						c-1.017,1.341-0.394,2.732,0.533,4.725c0.336-0.347,0.057-0.824,0.247-1.203c0.952-1.416,2.549-0.571,3.578-0.899
						c2.254-0.713,1.831-2.937,1.788-5.267c0.052-0.061,0.096-0.119-0.033-0.217c0.2-0.623,0.325-1.812,1.11-1.959
						c-0.66,1.611,2.784,4.532,1.05,5.567c0.454,0.224-0.576,0.724-0.178,0.591c3.862-0.396,6.826-4.501,8.297-6.688
						c1.742-2.475,3.73-13.566-7.68-16.051C34.094,139.771,28.84,145.088,29.001,148.354z"/>
					
						<radialGradient id="SVGID_5_" cx="-2716.0562" cy="5794.2891" r="3.2978" gradientTransform="matrix(-0.3233 -0.8763 0.8174 -0.0684 -5588.189 -1825.3796)" gradientUnits="userSpaceOnUse">
						<stop  offset="0" style="stop-color:#FFE600"/>
						<stop  offset="1" style="stop-color:#FFAE00"/>
					</radialGradient>
					<path fill="url(#SVGID_5_)" d="M28.823,156.173c-1.457,1.537-6.455,0.712-5.32,4.396
						C24.453,158.911,29.79,159.609,28.823,156.173z"/>
				</g>
				
					<radialGradient id="SVGID_6_" cx="-2708.749" cy="5819.2705" r="6.7694" gradientTransform="matrix(-0.3233 -0.8763 0.8174 -0.0684 -5588.189 -1825.3796)" gradientUnits="userSpaceOnUse">
					<stop  offset="0" style="stop-color:#FFFFD7"/>
					<stop  offset="0.2089" style="stop-color:#FFFFD4"/>
					<stop  offset="0.3515" style="stop-color:#FFFDCB"/>
					<stop  offset="0.4743" style="stop-color:#FFFBBC"/>
					<stop  offset="0.5858" style="stop-color:#FFF9A6"/>
					<stop  offset="0.6899" style="stop-color:#FFF58A"/>
					<stop  offset="0.7884" style="stop-color:#FFF168"/>
					<stop  offset="0.8824" style="stop-color:#FFEB3F"/>
					<stop  offset="0.9708" style="stop-color:#FFE511"/>
					<stop  offset="1" style="stop-color:#FFE300"/>
				</radialGradient>
				<path fill="url(#SVGID_6_)" d="M47.786,156.73c0,0,1.295-3.043,1.199-5.211c-0.097-2.17-0.546-6.39-4.548-7.195
					c-4.004-0.811-7.302-0.318-7.399,0.072c0,0,2.352,1.396,3.399,0.994c1.049-0.404,3.07,0.965,2.932,1.604
					c-0.11,0.506-0.675,0.195-0.833,0.387c-0.25,0.301-0.349,0.919-0.349,0.919s0.405-0.424,1.255-0.14
					c0.661,0.222,1.526,0.718,1.425,1.488c-0.139,1.068,0.679,2.617,0.679,2.617L46.175,151c0.398,1.497,1.288,1.912,1.127,3.419
					C47.132,156.023,47.786,156.73,47.786,156.73z"/>
				
					<radialGradient id="SVGID_7_" cx="-2708.3242" cy="5814.5098" r="2.2067" gradientTransform="matrix(-0.3233 -0.8763 0.8174 -0.0684 -5588.189 -1825.3796)" gradientUnits="userSpaceOnUse">
					<stop  offset="0" style="stop-color:#FFFFD7"/>
					<stop  offset="0.2089" style="stop-color:#FFFFD4"/>
					<stop  offset="0.3515" style="stop-color:#FFFDCB"/>
					<stop  offset="0.4743" style="stop-color:#FFFBBC"/>
					<stop  offset="0.5858" style="stop-color:#FFF9A6"/>
					<stop  offset="0.6899" style="stop-color:#FFF58A"/>
					<stop  offset="0.7884" style="stop-color:#FFF168"/>
					<stop  offset="0.8824" style="stop-color:#FFEB3F"/>
					<stop  offset="0.9708" style="stop-color:#FFE511"/>
					<stop  offset="1" style="stop-color:#FFE300"/>
				</radialGradient>
				<path fill="url(#SVGID_7_)" d="M42.149,148.952c0,0,0.355,1.125-0.223,1.625c-0.577,0.504-3.496,0.255-3.664,0.812
					c-0.168,0.555,0.396-1.851,1.835-1.945C41.114,149.376,42.207,149.445,42.149,148.952z"/>
				
					<radialGradient id="SVGID_8_" cx="-2713.7104" cy="5816.7598" r="1.9315" gradientTransform="matrix(-0.3233 -0.8763 0.8174 -0.0684 -5588.189 -1825.3796)" gradientUnits="userSpaceOnUse">
					<stop  offset="0" style="stop-color:#FFFFD7"/>
					<stop  offset="0.2089" style="stop-color:#FFFFD4"/>
					<stop  offset="0.3515" style="stop-color:#FFFDCB"/>
					<stop  offset="0.4743" style="stop-color:#FFFBBC"/>
					<stop  offset="0.5858" style="stop-color:#FFF9A6"/>
					<stop  offset="0.6899" style="stop-color:#FFF58A"/>
					<stop  offset="0.7884" style="stop-color:#FFF168"/>
					<stop  offset="0.8824" style="stop-color:#FFEB3F"/>
					<stop  offset="0.9708" style="stop-color:#FFE511"/>
					<stop  offset="1" style="stop-color:#FFE300"/>
				</radialGradient>
				<path fill="url(#SVGID_8_)" d="M45.139,153.307c0,0-0.333,1.269-1.434,1.047c-1.463-0.293-1.312,1.896-1.312,1.896
					s0.172-0.6,2-0.65C45.362,155.57,46.142,155.709,45.139,153.307z"/>
				
					<radialGradient id="SVGID_9_" cx="-2702.5317" cy="5809.2861" r="1.7319" gradientTransform="matrix(-0.3233 -0.8763 0.8174 -0.0684 -5588.189 -1825.3796)" gradientUnits="userSpaceOnUse">
					<stop  offset="0" style="stop-color:#FFFFD7"/>
					<stop  offset="0.2089" style="stop-color:#FFFFD4"/>
					<stop  offset="0.3515" style="stop-color:#FFFDCB"/>
					<stop  offset="0.4743" style="stop-color:#FFFBBC"/>
					<stop  offset="0.5858" style="stop-color:#FFF9A6"/>
					<stop  offset="0.6899" style="stop-color:#FFF58A"/>
					<stop  offset="0.7884" style="stop-color:#FFF168"/>
					<stop  offset="0.8824" style="stop-color:#FFEB3F"/>
					<stop  offset="0.9708" style="stop-color:#FFE511"/>
					<stop  offset="1" style="stop-color:#FFE300"/>
				</radialGradient>
				<path fill="url(#SVGID_9_)" d="M35.613,144.546c0,0-1.808,0.011-2.466,0.72c-0.659,0.711-0.656,1.188-0.656,1.188
					S35.318,145.625,35.613,144.546z"/>
				
					<radialGradient id="SVGID_10_" cx="-2718.564" cy="5817.2979" r="1.5253" gradientTransform="matrix(-0.3233 -0.8763 0.8174 -0.0684 -5588.189 -1825.3796)" gradientUnits="userSpaceOnUse">
					<stop  offset="0" style="stop-color:#FFFFD7"/>
					<stop  offset="0.2089" style="stop-color:#FFFFD4"/>
					<stop  offset="0.3515" style="stop-color:#FFFDCB"/>
					<stop  offset="0.4743" style="stop-color:#FFFBBC"/>
					<stop  offset="0.5858" style="stop-color:#FFF9A6"/>
					<stop  offset="0.6899" style="stop-color:#FFF58A"/>
					<stop  offset="0.7884" style="stop-color:#FFF168"/>
					<stop  offset="0.8824" style="stop-color:#FFEB3F"/>
					<stop  offset="0.9708" style="stop-color:#FFE511"/>
					<stop  offset="1" style="stop-color:#FFE300"/>
				</radialGradient>
				<path fill="url(#SVGID_10_)" d="M47,157.966c0,0-0.098,1.86-2.438,2.058c0,0,0.313-1.022,0.791-1.373
					C45.833,158.302,47,157.966,47,157.966z"/>
				
					<radialGradient id="SVGID_11_" cx="-128.5068" cy="2835.5947" r="70.229" gradientTransform="matrix(1.078 -0.0417 -0.1565 1.6094 585.6244 -4398.627)" gradientUnits="userSpaceOnUse">
					<stop  offset="0.3436" style="stop-color:#8B0000"/>
					<stop  offset="0.545" style="stop-color:#890000"/>
					<stop  offset="0.6176" style="stop-color:#820000"/>
					<stop  offset="0.6693" style="stop-color:#770000"/>
					<stop  offset="0.7111" style="stop-color:#660000"/>
					<stop  offset="0.7469" style="stop-color:#500000"/>
					<stop  offset="0.7786" style="stop-color:#340000"/>
					<stop  offset="0.8066" style="stop-color:#150000"/>
					<stop  offset="0.8221" style="stop-color:#000000"/>
					<stop  offset="1" style="stop-color:#620000"/>
				</radialGradient>
				<path fill="url(#SVGID_11_)" d="M64.28,130.811c7.76,8.621,8.592,20.523,1.855,26.588c-6.734,6.062-18.484,3.985-26.246-4.635
					c-7.759-8.621-8.59-20.522-1.855-26.587C44.77,120.115,56.52,122.189,64.28,130.811z"/>
				<path fill="#FFFFFF" d="M80.388,91.399c-1.137,7.541-6.248,14.251-11.424,15.056c-5.164,0.785-8.447-4.646-7.295-12.159
					c1.123-7.494,6.236-14.225,11.406-15.022C78.252,78.47,81.521,83.905,80.388,91.399z"/>
				<g>
					
						<radialGradient id="SVGID_12_" cx="222.4307" cy="734.9561" r="28.0573" gradientTransform="matrix(1 0 0 1 -100 -591)" gradientUnits="userSpaceOnUse">
						<stop  offset="0.3436" style="stop-color:#FF0000"/>
						<stop  offset="0.5854" style="stop-color:#FD0000"/>
						<stop  offset="0.6724" style="stop-color:#F60000"/>
						<stop  offset="0.7345" style="stop-color:#EB0000"/>
						<stop  offset="0.7844" style="stop-color:#DA0000"/>
						<stop  offset="0.8221" style="stop-color:#C70000"/>
						<stop  offset="1" style="stop-color:#F10000"/>
					</radialGradient>
					<path fill="url(#SVGID_12_)" d="M113.593,159.068c-5.228,4.562-22.356,16.578-24.189,14.496l-6.598-43.088
						c19.764-17.338,41.305-6.568,43.081-4.479C125.887,125.997,133.336,141.771,113.593,159.068z"/>
					
						<linearGradient id="SVGID_13_" gradientUnits="userSpaceOnUse" x1="199.1416" y1="736.4443" x2="206.9021" y2="753.755" gradientTransform="matrix(1 0 0 1 -100 -591)">
						<stop  offset="0" style="stop-color:#950000"/>
						<stop  offset="1" style="stop-color:#F10000"/>
					</linearGradient>
					<path fill="url(#SVGID_13_)" d="M108.854,163.135c-5.228,4.562-22.354,16.577-24.188,14.497l-6.597-43.09
						c19.762-17.336,41.305-6.567,43.082-4.479C121.146,130.062,128.598,145.836,108.854,163.135z"/>
					
						<linearGradient id="SVGID_14_" gradientUnits="userSpaceOnUse" x1="157.4717" y1="687.9375" x2="138.6681" y2="675.7008" gradientTransform="matrix(1 0 0 1 -100 -591)">
						<stop  offset="0" style="stop-color:#950000"/>
						<stop  offset="1" style="stop-color:#F10000"/>
					</linearGradient>
					<path fill="url(#SVGID_14_)" d="M38.642,83.128c-5.203,4.55-19.34,19.974-17.498,22.062l41.845,12.188
						C82.766,100.017,74.887,77.299,73.075,75.2C73.075,75.199,58.384,65.788,38.642,83.128z"/>
					
						<radialGradient id="SVGID_15_" cx="466.6426" cy="69.7656" r="119.5877" gradientTransform="matrix(0.6375 0.7704 -1.0642 0.8807 -162.9702 -394.7075)" gradientUnits="userSpaceOnUse">
						<stop  offset="0.3436" style="stop-color:#FF0000"/>
						<stop  offset="0.5854" style="stop-color:#FD0000"/>
						<stop  offset="0.6724" style="stop-color:#F60000"/>
						<stop  offset="0.7345" style="stop-color:#EB0000"/>
						<stop  offset="0.7844" style="stop-color:#DA0000"/>
						<stop  offset="0.8221" style="stop-color:#C70000"/>
						<stop  offset="1" style="stop-color:#F10000"/>
					</radialGradient>
					<path fill="url(#SVGID_15_)" d="M47.757,145.178c8.039,9.152,20.311,13.202,31.928,10.967
						c22.816-9.679,47.732-25.111,62.736-38.289c39.804-34.88,30.442-81.78,30.442-81.78s-45.262-15.41-85.06,19.473
						c-15.035,13.211-33.535,35.854-46.112,57.181C38.642,122.977,39.637,135.923,47.757,145.178z"/>
					
						<radialGradient id="SVGID_16_" cx="154.6729" cy="694.6025" r="75.7683" gradientTransform="matrix(1 0 0 1 -100 -591)" gradientUnits="userSpaceOnUse">
						<stop  offset="0.3436" style="stop-color:#8B0000"/>
						<stop  offset="0.545" style="stop-color:#890000"/>
						<stop  offset="0.6176" style="stop-color:#820000"/>
						<stop  offset="0.6693" style="stop-color:#770000"/>
						<stop  offset="0.7111" style="stop-color:#660000"/>
						<stop  offset="0.7469" style="stop-color:#500000"/>
						<stop  offset="0.7786" style="stop-color:#340000"/>
						<stop  offset="0.8066" style="stop-color:#150000"/>
						<stop  offset="0.8221" style="stop-color:#000000"/>
						<stop  offset="1" style="stop-color:#620000"/>
					</radialGradient>
					<path fill="url(#SVGID_16_)" d="M56.589,152.34c0,0-6.031-2.804-8.023-5.049c-1.926-2.229-12.188-1.305-5.551-7.148
						c24.131-21.164,39.56-28.85,41.51-26.629C86.468,115.741,75.39,132.832,56.589,152.34z"/>
					
						<linearGradient id="SVGID_17_" gradientUnits="userSpaceOnUse" x1="130.7012" y1="726.749" x2="185.6064" y2="726.749" gradientTransform="matrix(1 0 0 1 -100 -591)">
						<stop  offset="0" style="stop-color:#950000"/>
						<stop  offset="1" style="stop-color:#F10000"/>
					</linearGradient>
					<path fill="url(#SVGID_17_)" d="M45.308,154.039c-6.38,5.579-11.931,7.281-13.924,5.036c-1.926-2.229,0.185-7.265,6.821-13.108
						c24.13-21.165,45.307-36.51,47.258-34.289C87.407,113.905,69.401,132.878,45.308,154.039z"/>
					
						<radialGradient id="SVGID_18_" cx="164.5293" cy="720.0332" r="111.4127" gradientTransform="matrix(1 0 0 1 -100 -591)" gradientUnits="userSpaceOnUse">
						<stop  offset="0.3436" style="stop-color:#FF0000"/>
						<stop  offset="0.5854" style="stop-color:#FD0000"/>
						<stop  offset="0.6724" style="stop-color:#F60000"/>
						<stop  offset="0.7345" style="stop-color:#EB0000"/>
						<stop  offset="0.7844" style="stop-color:#DA0000"/>
						<stop  offset="0.8221" style="stop-color:#C70000"/>
						<stop  offset="1" style="stop-color:#F10000"/>
					</radialGradient>
					<path fill="url(#SVGID_18_)" d="M43.75,152.262c-6.376,5.584-11.237,8.072-12.36,6.819c-1.071-1.255,1.734-5.497,8.375-11.337
						c24.131-21.165,44.604-37.312,45.696-36.068C86.548,112.925,67.849,131.107,43.75,152.262z"/>
				</g>
				<g>
					
						<radialGradient id="SVGID_19_" cx="-1225.5059" cy="2929.0742" r="13.7245" gradientTransform="matrix(0.8399 0.5428 0.5428 -0.8399 -468.4838 3205.7415)" gradientUnits="userSpaceOnUse">
						<stop  offset="0.2892" style="stop-color:#B5B5B5"/>
						<stop  offset="0.3849" style="stop-color:#B0B0B0"/>
						<stop  offset="0.4995" style="stop-color:#A1A1A1"/>
						<stop  offset="0.6238" style="stop-color:#898989"/>
						<stop  offset="0.755" style="stop-color:#676767"/>
						<stop  offset="0.8902" style="stop-color:#3D3D3D"/>
						<stop  offset="1" style="stop-color:#141414"/>
					</radialGradient>
					<path fill="url(#SVGID_19_)" d="M102.027,86.814c4.552-7.042,3.856-15.703-1.548-19.345
						c-5.408-3.644-13.592-0.716-18.281,6.538c-4.688,7.251-3.992,15.912,1.553,19.343C89.295,96.78,97.478,93.853,102.027,86.814z"
						/>
					
						<linearGradient id="SVGID_20_" gradientUnits="userSpaceOnUse" x1="24.4614" y1="2729.9834" x2="-43.2627" y2="2802.6707" gradientTransform="matrix(0.9837 0.1796 0.1796 -0.9837 -406.0503 2786.9099)">
						<stop  offset="0" style="stop-color:#8DA6C7"/>
						<stop  offset="0.7301" style="stop-color:#000000"/>
						<stop  offset="0.8098" style="stop-color:#08090B"/>
						<stop  offset="1" style="stop-color:#3F4A5D"/>
					</linearGradient>
					<path fill="url(#SVGID_20_)" d="M102.027,86.814c4.552-7.042,3.859-15.703-1.548-19.345c-5.408-3.644-13.592-0.716-18.28,6.538
						c-4.688,7.251-3.991,15.912,1.552,19.343C89.296,96.78,97.478,93.853,102.027,86.814z"/>
					<g>
						
							<radialGradient id="SVGID_21_" cx="-1236.2871" cy="2930.0322" r="12.8331" gradientTransform="matrix(0.8399 0.5428 0.5428 -0.8399 -468.4838 3205.7415)" gradientUnits="userSpaceOnUse">
							<stop  offset="0" style="stop-color:#472D60"/>
							<stop  offset="1" style="stop-color:#000D1E"/>
						</radialGradient>
						<path fill="url(#SVGID_21_)" d="M101.997,86.688c4.224-6.532,3.476-14.623-1.668-18.072
							c-5.141-3.448-12.828-0.801-17.166,5.909c-4.338,6.709-3.59,14.8,1.668,18.068C90.091,95.86,97.776,93.218,101.997,86.688z"/>
					</g>
					
						<radialGradient id="SVGID_22_" cx="40.9829" cy="2811.0029" r="22.0444" gradientTransform="matrix(0.9729 0.1892 0.1658 -0.9713 -420.1147 2799.7222)" gradientUnits="userSpaceOnUse">
						<stop  offset="0.1902" style="stop-color:#28FFFF"/>
						<stop  offset="0.7546" style="stop-color:#000000;stop-opacity:0"/>
					</radialGradient>
					<path fill="url(#SVGID_22_)" d="M102.467,70.858c-3.677-4.987-11.085-4.563-16.571,0.997c-5.508,5.59-6.93,14.064-3.145,18.886
						c3.803,4.793,11.291,4.24,16.688-1.178C104.82,84.169,106.163,75.817,102.467,70.858z"/>
					
						<linearGradient id="SVGID_23_" gradientUnits="userSpaceOnUse" x1="8.4697" y1="2754.2861" x2="13.4859" y2="2757.5947" gradientTransform="matrix(0.9837 0.1796 0.1796 -0.9837 -406.0503 2786.9099)">
						<stop  offset="0" style="stop-color:#86FF97;stop-opacity:0"/>
						<stop  offset="1" style="stop-color:#00C0FF"/>
					</linearGradient>
					<path opacity="0.71" fill="url(#SVGID_23_)" enable-background="new    " d="M104.184,79.031
						c0.422-5.626-2.738-10.09-7.083-9.931c-4.355,0.18-8.27,4.953-8.715,10.624c-0.429,5.642,2.801,10.001,7.182,9.779
						C99.937,89.306,103.779,84.634,104.184,79.031z"/>
					
						<radialGradient id="SVGID_24_" cx="698.7793" cy="2276.8662" r="15.875" gradientTransform="matrix(0.9449 -0.3054 -0.0813 -0.8691 -379.3302 2284.615)" gradientUnits="userSpaceOnUse">
						<stop  offset="0" style="stop-color:#B1FFFF"/>
						<stop  offset="1" style="stop-color:#008BFF"/>
					</radialGradient>
					<path opacity="0.71" fill="url(#SVGID_24_)" enable-background="new    " d="M94.517,84.767
						c-0.002,1.669-2.361,6.628-3.568,7.666c-3.466-0.173-6.148-2.146-7.414-5.11c1.869-1.366,5.127-3.356,7.279-4.913
						C91.494,83.632,92.327,84.744,94.517,84.767z"/>
					
						<radialGradient id="SVGID_25_" cx="-1388.1748" cy="2949.208" r="26.6105" gradientTransform="matrix(0.7152 0.452 0.5428 -0.8399 -506.1491 3179.7324)" gradientUnits="userSpaceOnUse">
						<stop  offset="0" style="stop-color:#83FFFF"/>
						<stop  offset="1" style="stop-color:#2368FF"/>
					</radialGradient>
					<path opacity="0.26" fill="url(#SVGID_25_)" enable-background="new    " d="M99.104,88.928
						c-0.622,0.614-1.271,1.159-1.941,1.636c4.381-5.012,5.264-12.236,1.891-16.644c-3.117-4.099-8.898-4.334-13.737-0.856
						c0.253-0.291,0.511-0.578,0.788-0.856c5.125-5.136,12.131-5.461,15.668-0.767C105.327,76.112,104.145,83.924,99.104,88.928z"/>
				</g>
				
					<radialGradient id="SVGID_26_" cx="188.4072" cy="663.3232" r="52.1292" gradientTransform="matrix(1 0 0 1 -100 -591)" gradientUnits="userSpaceOnUse">
					<stop  offset="0.3436" style="stop-color:#8B0000"/>
					<stop  offset="0.545" style="stop-color:#890000"/>
					<stop  offset="0.6176" style="stop-color:#820000"/>
					<stop  offset="0.6693" style="stop-color:#770000"/>
					<stop  offset="0.7111" style="stop-color:#660000"/>
					<stop  offset="0.7469" style="stop-color:#500000"/>
					<stop  offset="0.7786" style="stop-color:#340000"/>
					<stop  offset="0.8066" style="stop-color:#150000"/>
					<stop  offset="0.8221" style="stop-color:#000000"/>
					<stop  offset="1" style="stop-color:#620000"/>
				</radialGradient>
				<path fill="url(#SVGID_26_)" d="M98.423,89.909c-9.375,7.97-19.473,3.19-19.291-6.248c0.223-11.194,14.006-22.665,21.515-15.316
					C105.432,72.956,105.521,83.504,98.423,89.909 M84.048,65.65c-18.334,18.094-10.709,35.262,3.564,35.484
					c19.982,0.267,29.678-26.641,17.664-38.247C100.026,57.638,92.056,58.604,84.048,65.65"/>
				<path fill="#FFFFFF" d="M98.423,89.909c-9.375,7.97-19.473,3.19-19.291-6.248c0.223-11.194,14.006-22.665,21.515-15.316
					C105.432,72.956,105.521,83.504,98.423,89.909 M84.723,67.28c-15.853,15.645-9.259,30.488,3.083,30.681
					c17.275,0.231,25.659-23.034,15.272-33.068C98.538,60.354,91.646,61.188,84.723,67.28"/>
				
					<radialGradient id="SVGID_27_" cx="483.3896" cy="137.5371" r="90.0961" gradientTransform="matrix(0.7236 0.6902 -1.0412 1.0916 -117.515 -441.673)" gradientUnits="userSpaceOnUse">
					<stop  offset="0.3436" style="stop-color:#8B0000"/>
					<stop  offset="0.5166" style="stop-color:#890000"/>
					<stop  offset="0.5789" style="stop-color:#820000"/>
					<stop  offset="0.6234" style="stop-color:#770000"/>
					<stop  offset="0.6593" style="stop-color:#660000"/>
					<stop  offset="0.6901" style="stop-color:#500000"/>
					<stop  offset="0.7173" style="stop-color:#340000"/>
					<stop  offset="0.7413" style="stop-color:#150000"/>
					<stop  offset="0.7546" style="stop-color:#000000"/>
					<stop  offset="0.8037" style="stop-color:#620000"/>
				</radialGradient>
				<path fill="url(#SVGID_27_)" d="M172.863,36.073c0,0-15.5-5.271-36.331-2.662c-1.541,2.061-3.093,11.636,2.571,21.899
					c8.504,15.406,28.168,23.015,31.918,16.069C175.954,51.574,172.863,36.073,172.863,36.073z"/>
			</g>
		</g>
	</g>
</g>
<g id="outline_x5F_white">
	<path fill="#FFFFFF" d="M185.475,40.211c-0.004-0.057-0.01-0.113-0.015-0.169c-0.026-0.307-0.056-0.602-0.083-0.885
		c-0.003-0.035-0.006-0.069-0.01-0.104l-0.08-0.784c-0.01-0.079-0.018-0.157-0.027-0.235c-0.102-0.914-0.218-1.805-0.347-2.651
		c-0.004-0.03-0.013-0.078-0.017-0.11l-0.039-0.252l-0.008-0.054c-0.013-0.071-0.022-0.142-0.035-0.212
		c-0.006-0.03-0.01-0.061-0.017-0.09c-0.021-0.126-0.041-0.252-0.063-0.377l-0.002-0.009c-0.002-0.017-0.006-0.035-0.008-0.052
		c-0.013-0.062-0.021-0.124-0.033-0.186c-0.025-0.144-0.055-0.288-0.086-0.431c-0.029-0.146-0.062-0.29-0.101-0.433
		c-0.376-1.511-1.038-2.907-1.924-4.131l-3.837,5.768l0.05,0.325l0.032,0.169v0.005l0.018,0.07l0.035,0.24
		c0.002,0.013,0.004,0.025,0.006,0.038l0.01,0.033l0.027,0.192l0.012,0.062l0.039,0.264l0.008,0.042l0.004,0.024
		c0.117,0.781,0.224,1.605,0.318,2.453l0.008,0.054l0.012,0.112l0.068,0.665l0.014,0.103l0.008,0.111
		c0.025,0.256,0.05,0.522,0.074,0.798l0.022,0.276v0.013c0.291,3.459,0.515,8.833,0.021,15.309v0.768l-0.082,0.239
		c-0.281,3.241-0.719,6.493-1.309,9.682l-0.012,0.075l-0.039,0.187c-0.109,0.576-0.222,1.158-0.344,1.751l-0.016,0.063l-0.016,0.079
		c-0.117,0.567-0.242,1.138-0.372,1.712c-0.017,0.075-0.032,0.149-0.051,0.222c-4.604,20.177-15.007,37.476-30.912,51.414
		c-3.795,3.333-8.201,6.808-13.131,10.361c0.229,7.52-2.263,19.08-15.715,30.866c-0.755,0.657-1.69,1.425-2.787,2.278
		c-0.67,0.638-1.308,1.223-1.949,1.783c-2.797,2.443-8.057,6.324-12.792,9.438c-9.057,5.958-12.389,6.778-14.641,6.778
		c-2.063,0-3.911-0.805-5.203-2.271l-1.163-1.32l-0.266-1.737l-2.436-15.906c-0.961,0.07-1.926,0.105-2.891,0.105
		c-1.347,0-2.7-0.068-4.051-0.206c-3.519,2.84-7.91,4.335-12.766,4.335c-0.757,0-1.518-0.051-2.279-0.124
		c-1.807,2.122-4.127,4.222-6.83,5.267c-0.172,0.067-0.383,0.226-0.896,0.625c-0.742,0.578-1.757,1.37-3.213,2.082l-4.333,2.118
		l-0.37-0.465c-1.758,1.874-3.929,2.148-5.047,2.148c-0.819,0-1.632-0.131-2.457-0.399c-1.396,0.547-2.873,0.838-4.363,0.838
		c-2.189,0-4.35-0.632-6.28-1.833l-4.889,3.604l-3.001-6.908c-1.712-3.939-0.316-7.221,1.084-9.36l0.011-0.515
		c0.005-0.227,0.006-0.463,0.007-0.709c0.007-1.569,0.017-3.692,0.734-5.846l-5.92-5.059l10.36-2.402
		c0.091-0.242,0.194-0.509,0.314-0.791c-0.007-0.1-0.011-0.197-0.013-0.287l-0.019-0.86l0.223-0.831
		c1.214-4.514,4.006-8.327,8.064-11.072c0.25-5.587,2.462-10.697,6.546-14.372c0.047-0.042,0.094-0.084,0.141-0.125
		c0.097-2.061,0.337-4.128,0.714-6.153l-15.411-4.486l-1.669-0.486l-1.151-1.304c-1.185-1.343-1.771-3.11-1.651-4.974
		c0.139-2.136,0.924-5.153,8.542-13.996c3.753-4.356,8.341-9.118,11.146-11.571C43.724,70.677,53.08,66.65,62.488,66.65
		c1.824,0,3.611,0.155,5.348,0.464c5.523-6.171,11.011-11.687,16.012-16.08c15.075-13.212,32.548-21.144,51.938-23.575v0.004
		c0.088-0.014,0.177-0.026,0.267-0.037l0.071-0.009l0.021-0.002c4.049-0.506,8.18-0.762,12.276-0.762
		c12.487,0,21.856,2.379,25.409,3.44l0.271,0.08l0.021,0.008c0.021,0.006,0.041,0.013,0.062,0.019l0.019,0.005l0.008,0.002
		l0.015,0.004l0.037,0.011l0.02,0.006l0.102,0.032l0.043,0.012l0.131,0.042l-0.029-0.009l0.051,0.017l0.463,0.143l0.167,0.083
		l0.443,0.16l5.658-3.123c-1.286-1.278-2.849-2.283-4.618-2.879c-0.078-0.027-0.157-0.053-0.236-0.078
		c-0.027-0.009-0.055-0.018-0.08-0.026c-0.057-0.018-0.111-0.036-0.168-0.053l-0.134-0.042c-0.021-0.006-0.039-0.012-0.06-0.018
		c-0.027-0.009-0.059-0.018-0.086-0.027c-0.094-0.028-0.179-0.054-0.265-0.08c-0.021-0.007-0.045-0.014-0.065-0.021
		c-0.004-0.001-0.009-0.002-0.013-0.003c-3.681-1.108-13.718-3.672-27.358-3.672c-4.386,0-8.795,0.272-13.104,0.809
		c-0.025,0.003-0.057,0.006-0.082,0.01c-20.602,2.584-39.153,11.001-55.146,25.017c-4.61,4.051-9.438,8.825-14.408,14.248
		c-0.989-0.08-1.988-0.119-2.995-0.12c-7.5,0-19.1,2.335-31.768,13.463c-3.031,2.65-7.753,7.545-11.731,12.162
		C10.99,95.564,9.272,99.735,9.01,103.8c-0.224,3.47,0.891,6.782,3.14,9.33c1.503,1.703,3.459,2.944,5.64,3.58l9.938,2.896
		c-3.158,3.718-5.125,8.29-5.862,13.214c-4.053,3.385-6.895,7.739-8.25,12.78l-0.447,1.664l0.011,0.496l-9.925,7.096l4.731,4.043
		c-0.243,1.719-0.25,3.229-0.255,4.312c-0.001,0.211-0.001,0.414-0.005,0.606l-0.279,12.978l1.533-0.087v7.488l11.428-0.442
		c2.044,0.795,4.205,1.206,6.392,1.206c1.567,0,3.12-0.212,4.625-0.618c0.73,0.12,1.462,0.181,2.195,0.181
		c0.561,0,1.868-0.057,3.464-0.494l0.255,0.318l8.667-4.234c2.018-0.986,3.426-2.086,4.268-2.741
		c0.017-0.013,0.034-0.026,0.051-0.04c2.464-1.075,4.618-2.695,6.453-4.465c5.204-0.034,10.158-1.493,14.302-4.182
		c0.025,0.002,0.05,0.004,0.075,0.004l1.648,10.767c0.348,2.271,1.339,4.396,2.858,6.117c2.411,2.735,5.948,4.306,9.704,4.306
		c3.786,0,8.107-1.299,17.938-7.768c5.014-3.299,10.414-7.288,13.439-9.93c0.639-0.559,1.271-1.136,1.928-1.757
		c1.084-0.851,2.023-1.623,2.805-2.302c13.45-11.786,17.223-23.627,17.729-32.312c4.109-3.047,7.841-6.037,11.136-8.933
		c16.865-14.78,27.902-33.14,32.8-54.564c0.021-0.096,0.043-0.192,0.063-0.289c0.135-0.597,0.264-1.19,0.387-1.78l0.021-0.103
		c0-0.004,0.012-0.051,0.013-0.055c0.13-0.625,0.251-1.246,0.364-1.861c0.01-0.043,0.019-0.086,0.025-0.13
		c0.68-3.661,1.176-7.401,1.471-11.122c0.004-0.03,0.008-0.061,0.01-0.091C186.049,49.806,185.794,43.931,185.475,40.211z"/>
</g>
<g id="outline_x5F_black">
	<path d="M179.509,40.849l-0.022-0.276c-0.024-0.276-0.049-0.542-0.074-0.798l-0.008-0.111l-0.014-0.103l-0.068-0.665l-0.012-0.112
		l-0.008-0.054c-0.095-0.848-0.201-1.672-0.318-2.453l-0.004-0.024l-0.008-0.042l-0.039-0.264l-0.012-0.062l-0.027-0.192
		l-0.01-0.033c-0.002-0.013-0.004-0.025-0.006-0.038l-0.035-0.24l-0.018-0.07v-0.005l-0.032-0.169l-0.05-0.325l6.111-9.187
		l-9.204,5.08l-0.443-0.16l-0.167-0.083l-0.463-0.143l-0.051-0.017l0.029,0.009l-0.131-0.042l-0.043-0.012l-0.102-0.032l-0.02-0.006
		l-0.037-0.011l-0.015-0.004l-0.008-0.002l-0.019-0.005c-0.021-0.006-0.041-0.013-0.062-0.019l-0.021-0.008l-0.271-0.08
		c-3.553-1.061-12.922-3.44-25.409-3.44c-4.097,0-8.228,0.256-12.276,0.762l-0.021,0.002l-0.071,0.009
		c-0.09,0.011-0.179,0.023-0.267,0.037v-0.004c-19.39,2.431-36.863,10.363-51.938,23.575c-5.001,4.394-10.489,9.909-16.012,16.08
		c-1.737-0.309-3.524-0.464-5.348-0.464c-9.408,0-18.764,4.027-27.807,11.971c-2.805,2.453-7.393,7.215-11.146,11.571
		c-7.618,8.842-8.403,11.86-8.542,13.996c-0.12,1.863,0.466,3.631,1.651,4.974l1.151,1.304l1.669,0.486l15.411,4.486
		c-0.377,2.025-0.617,4.093-0.714,6.153c-0.047,0.041-0.094,0.083-0.141,0.125c-4.083,3.675-6.296,8.785-6.546,14.372
		c-4.058,2.745-6.85,6.559-8.064,11.072l-0.223,0.831l0.019,0.86c0.002,0.09,0.006,0.188,0.013,0.287
		c-0.12,0.282-0.223,0.549-0.314,0.791l-10.36,2.402l5.92,5.059c-0.717,2.153-0.727,4.276-0.734,5.846
		c-0.001,0.246-0.002,0.482-0.007,0.709l-0.011,0.515c-1.4,2.14-2.796,5.421-1.084,9.36l3.001,6.908l4.889-3.604
		c1.93,1.201,4.091,1.833,6.28,1.833c1.49,0,2.967-0.291,4.363-0.838c0.825,0.269,1.638,0.399,2.457,0.399
		c1.118,0,3.289-0.274,5.047-2.148l0.37,0.465l4.333-2.118c1.456-0.712,2.471-1.504,3.213-2.082
		c0.513-0.399,0.724-0.558,0.896-0.625c2.703-1.045,5.023-3.145,6.83-5.267c0.761,0.073,1.521,0.124,2.279,0.124
		c4.856,0,9.247-1.495,12.766-4.335c1.351,0.138,2.704,0.206,4.051,0.206c0.965,0,1.93-0.035,2.891-0.105l2.436,15.906l0.266,1.737
		l1.163,1.32c1.292,1.467,3.14,2.271,5.203,2.271c2.252,0,5.584-0.82,14.641-6.778c4.735-3.114,9.995-6.995,12.792-9.438
		c0.642-0.561,1.279-1.146,1.949-1.783c1.097-0.854,2.032-1.621,2.787-2.278c13.452-11.786,15.944-23.347,15.715-30.866
		c4.93-3.554,9.336-7.028,13.131-10.361c15.905-13.938,26.308-31.237,30.912-51.414c0.019-0.073,0.034-0.147,0.051-0.222
		c0.13-0.574,0.255-1.145,0.372-1.712l0.016-0.079l0.016-0.063c0.122-0.593,0.234-1.175,0.344-1.751l0.039-0.187l0.012-0.075
		c0.59-3.189,1.027-6.441,1.309-9.682l0.082-0.239v-0.768c0.494-6.476,0.271-11.85-0.021-15.309V40.849z M173.536,55.936
		c0,0.003,0,0.005-0.001,0.008c-0.243,3.088-0.658,6.435-1.317,9.972c-0.002,0.016-0.006,0.031-0.009,0.047
		c-0.104,0.558-0.214,1.12-0.331,1.687c-0.01,0.047-0.021,0.095-0.028,0.142c-0.115,0.553-0.235,1.109-0.363,1.669
		c-0.008,0.041-0.019,0.082-0.026,0.122c-3.428,15.04-11.41,32.833-29.028,48.274c-4.402,3.865-9.662,7.926-15.469,11.979
		c0.956,5.712,0.495,17.094-13.359,29.234c-0.722,0.628-1.672,1.399-2.772,2.256c-0.625,0.602-1.274,1.205-1.968,1.81
		c-4.815,4.204-19.739,14.736-23.486,14.736c-0.319,0-0.558-0.076-0.701-0.239l-3.395-22.171c-0.528,0.229-1.058,0.459-1.585,0.683
		c-2.081,0.401-4.183,0.598-6.277,0.598c-2.047,0-4.088-0.188-6.095-0.549c-0.362,0.424-0.755,0.826-1.177,1.205
		c-0.404,0.363-0.831,0.688-1.269,0.992c-0.042,0.029-0.084,0.059-0.126,0.088c-0.434,0.294-0.88,0.566-1.343,0.805
		c-0.026,0.014-0.054,0.024-0.08,0.038c-0.402,0.204-0.816,0.383-1.237,0.545c-0.128,0.05-0.256,0.101-0.386,0.146
		c-0.413,0.146-0.833,0.275-1.262,0.383c-0.191,0.049-0.387,0.084-0.582,0.125c-0.26,0.055-0.522,0.103-0.788,0.144
		c-0.234,0.037-0.467,0.074-0.704,0.101c-0.007,0.001-0.015,0.002-0.022,0.003c0-0.001,0-0.001,0.001-0.002
		c-2.023,0.219-4.149,0.028-6.281-0.502c0.004,0.006,0.016,0.024,0.016,0.024s-2.262,3.3-4.749,4.777
		c0.038,0.015,0.075,0.033,0.113,0.048c-0.699,0.564-1.418,1.023-2.135,1.301c-1.896,0.732-2.654,1.971-4.58,2.912
		c-0.513-0.646,0.16-1.038-0.265-1.667c-1.474,1.159-3.689,0.062-4.914,1.575c-0.728,0.9-0.467,3.283-1.937,3.283
		c-0.34,0-0.772-0.127-1.331-0.431c0.502-0.616,0.678-1.31,0.014-2.18c-1.25,1.713-3.281,3.048-5.502,3.048
		c-1.08,0-2.205-0.312-3.308-1.057c-0.668-0.707,0.049-0.399,0.345-0.844c-1.099-0.06-2.234-0.341-3.324-0.341
		c-0.831,0-1.636,0.163-2.38,0.712c-1.287-2.962,2.134-4.898,3.15-7.361c-0.206-0.185-0.392-0.246-0.568-0.246
		c-0.344,0-0.651,0.232-0.991,0.254c0.058-2.701-0.353-6.842,3.718-7.582c-0.729-0.795-1.266-0.406-1.961-1
		c3.248-0.754,2.368-3.749,4.373-5.719c0.326-0.437-0.636-0.491-0.648-1.06c0.604-2.249,1.697-4.015,2.998-5.423
		c0.021,0.088,0.05,0.175,0.072,0.263c0.043-0.059,2.317-3.121,5.369-4.124c-0.277-2.42-0.122-4.781,0.509-6.938
		c0.038-0.128,0.072-0.258,0.113-0.385c0.088-0.272,0.182-0.54,0.285-0.805c0.07-0.18,0.148-0.355,0.225-0.532
		c0.16-0.367,0.333-0.726,0.522-1.076c0.107-0.198,0.218-0.394,0.335-0.586c0.119-0.196,0.236-0.393,0.365-0.581
		c0.218-0.321,0.454-0.631,0.701-0.932c0.13-0.159,0.268-0.312,0.406-0.466c0.215-0.237,0.441-0.468,0.675-0.691
		c0.088-0.084,0.163-0.178,0.253-0.26c0.653-0.588,1.365-1.075,2.104-1.512c-0.108-4.132,0.457-8.214,1.565-11.938
		c0.259-0.438,0.525-0.881,0.789-1.322l-21.337-6.215c-1.842-2.086,12.295-17.511,17.498-22.061
		C48.119,74.814,56.421,72.65,62.5,72.65c3.107,0,5.635,0.566,7.439,1.164c6.115-7.037,12.238-13.315,17.875-18.268
		c16.51-14.471,33.959-20.282,48.729-22.134c0-0.001,0.342-0.042,0.355-0.044c4.08-0.511,7.947-0.715,11.522-0.715
		c12.334,0,21.199,2.439,23.726,3.196c0.015,0.004,0.024,0.007,0.037,0.012c0.101,0.028,0.188,0.056,0.265,0.079
		c0.015,0.005,0.026,0.009,0.041,0.013c0.033,0.011,0.06,0.019,0.089,0.028l0.356,0.449c0,0.002,0.001,0.004,0.001,0.007
		c0.004,0.024,0.008,0.048,0.015,0.073c0.01,0.066,0.022,0.14,0.034,0.221c0.005,0.025,0.009,0.05,0.015,0.076
		c0.017,0.101,0.033,0.211,0.051,0.331c0.003,0.013,0.005,0.024,0.007,0.037c0.086,0.567,0.192,1.345,0.299,2.312
		c0.002,0.013,0.004,0.026,0.006,0.04c0.023,0.23,0.05,0.472,0.074,0.724c0.002,0.015,0.002,0.028,0.004,0.042
		c0.024,0.261,0.051,0.532,0.076,0.815c0,0.002,0,0.005,0,0.009C173.82,44.616,174.021,49.751,173.536,55.936z"/>
</g>
</svg>
