<?xml version="1.0" encoding="utf-8"?>
<!-- Generator: Adobe Illustrator 15.0.0, SVG Export Plug-In . SVG Version: 6.00 Build 0)  -->
<!DOCTYPE svg PUBLIC "-//W3C//DTD SVG 1.1//EN" "http://www.w3.org/Graphics/SVG/1.1/DTD/svg11.dtd">
<svg version="1.1" xmlns="http://www.w3.org/2000/svg" xmlns:xlink="http://www.w3.org/1999/xlink" x="0px" y="0px" width="200px"
	 height="200px" viewBox="0 0 200 200" enable-background="new 0 0 200 200" xml:space="preserve">
<g id="outline_x5F_white">
	<path fill="#FFFFFF" d="M193.119,148.327l-10.036-41.04c-2.759-11.273-12.592-19.661-23.919-20.788
		c6.053-10.364,8.025-23.009,5.009-35.342c-5.47-22.365-25.989-38.597-48.795-38.597c-3.088,0-6.188,0.3-9.218,0.893
		c-8.119,1.588-15.645,5.283-21.763,10.687c-0.023,0.021-0.046,0.041-0.068,0.061c-0.044,0.039-0.087,0.077-0.129,0.116
		c0,0-0.021,0.019-0.06,0.055c-1.041,0.934-2.049,1.926-3.003,2.954c-2.513,2.551-6.104,6.384-9.233,10.429
		c-0.455,0.589-0.886,1.191-1.31,1.798c-5.385-2.349-11.255-3.652-17.312-3.652c-2.731,0-5.476,0.266-8.156,0.79
		c-7.133,1.396-13.746,4.626-19.143,9.346c-0.131,0.111-0.259,0.226-0.385,0.343c-0.916,0.822-1.801,1.692-2.635,2.59
		c-2.16,2.195-5.244,5.487-7.942,8.976C7.368,67.841,4.726,80.657,7.77,93.108c2.427,9.92,8.26,18.45,16.021,24.438
		c-1.55,1.737-3.355,3.814-4.396,5.194c-4.299,5.682-5.778,12.982-4.057,20.027l8.382,34.271c1.335,5.457,6.223,9.151,11.646,9.151
		c0.764,0,1.537-0.073,2.314-0.227l45.06-8.812c1.531,5.133,6.251,8.568,11.477,8.568c0.764,0,1.537-0.072,2.314-0.226
		l79.442-15.538c2.127-0.416,4.103-1.4,5.715-2.85l7.793-7C192.771,157.148,194.169,152.623,193.119,148.327z M81.396,45.097
		c2.85-3.684,6.189-7.223,8.425-9.486c0.774-0.844,1.592-1.649,2.452-2.413c0.04-0.039,0.065-0.062,0.065-0.062
		c0.001,0,0.003,0,0.003-0.001c4.394-3.88,9.863-6.68,16.123-7.904c2.31-0.454,4.623-0.671,6.914-0.671
		c17.058,0,32.89,12.071,37.14,29.447c3.274,13.388-1.176,26.478-10.479,34.695l-42.821,8.376c-1.857,0.363-3.641,0.928-5.339,1.663
		c-0.154-0.086-0.306-0.177-0.458-0.266c4.175-8.609,5.371-18.662,2.966-28.494c-2.381-9.737-8-18.153-15.496-24.188
		C81.059,45.561,81.221,45.324,81.396,45.097z M100.736,120.357l8.498,34.746l-6.6,5.928L91.65,163.18l-7.322-29.938
		c-1.056-4.322-0.074-8.566,2.328-11.742c1.921-2.538,7.518-8.614,7.518-8.614h0.002c0.183-0.195,0.377-0.38,0.572-0.564
		c0.089,0.034,0.178,0.069,0.268,0.103C97.776,114.183,99.908,116.97,100.736,120.357z M75.52,56.978
		c4.386,4.187,7.681,9.614,9.207,15.854c1.519,6.211,1.063,12.341-0.946,17.764c-3.942-4.466-6.9-9.899-8.393-16.006
		C73.901,68.508,74.04,62.49,75.52,56.978z M24.512,65.289c2.412-3.119,5.24-6.116,7.133-8.031c0.656-0.715,1.348-1.396,2.076-2.043
		c0.034-0.033,0.055-0.053,0.055-0.053c0.002,0,0.002-0.001,0.004-0.001c3.719-3.285,8.351-5.655,13.649-6.692
		c1.957-0.384,3.914-0.568,5.853-0.568c4.081,0,8.08,0.817,11.797,2.32c-3.077,8.546-3.61,17.967-1.349,27.22
		c2.142,8.759,6.633,16.558,12.67,22.785l-37.154,7.268c-2.133,0.418-4.159,1.126-6.055,2.072
		c-6.643-4.325-11.76-11.103-13.766-19.307C17.173,81.047,19.319,72.004,24.512,65.289z M35.376,174.186l-8.381-34.27
		c-0.895-3.659-0.063-7.252,1.971-9.939c1.189-1.572,4.036-4.739,5.484-6.331c4.968,1.987,10.326,3.079,15.837,3.079
		c2.696,0,5.403-0.263,8.047-0.779c5.81-1.135,11.14-3.44,15.865-6.831c-2.375,5.23-2.944,11.18-1.528,16.975l7.189,29.396
		L35.376,174.186z M173.668,158.18l-63.943,12.507c0.317-0.233,0.636-0.464,0.93-0.729l6.6-5.929
		c3.29-2.954,4.688-7.48,3.637-11.776l-8.496-34.746c-0.168-0.686-0.365-1.358-0.588-2.02c0.01,0,0.021,0.001,0.03,0.001
		c3.044,0,6.103-0.295,9.087-0.879c6.774-1.324,12.979-4.045,18.438-8.084c0.191-0.142,0.379-0.287,0.561-0.439l7.401-6.19
		l6.481-1.268c0.924-0.181,1.848-0.268,2.764-0.268c6.824,0,13.156,4.83,14.857,11.779l10.036,41.041L173.668,158.18z"/>
</g>
<g id="outline_x5F_black">
	<path d="M187.288,149.755l-10.036-41.041c-2.316-9.477-11.016-16.354-20.682-16.354c-1.312,0-2.631,0.127-3.918,0.379l-7.987,1.562
		c12.142-9.815,17.516-26.039,13.681-41.721c-4.822-19.713-22.893-34.021-42.968-34.021c-2.702,0-5.416,0.263-8.065,0.781
		c-7.059,1.38-13.596,4.583-18.908,9.265c-0.046,0.039-0.09,0.078-0.134,0.118c0,0-0.026,0.023-0.071,0.066
		c-0.944,0.844-1.859,1.744-2.722,2.679c-2.399,2.432-5.852,6.109-8.828,9.956c-1.469,1.9-2.744,3.914-3.831,6.012
		c-5.808-3.517-12.528-5.536-19.537-5.536c-2.346,0-4.703,0.229-7.004,0.679c-6.109,1.195-11.768,3.96-16.375,7.999
		c-0.085,0.072-0.169,0.147-0.251,0.225c-0.819,0.732-1.608,1.509-2.351,2.312c-2.047,2.076-4.99,5.212-7.535,8.501
		c-6.528,8.441-8.777,19.4-6.168,30.067c2.669,10.915,10.101,19.882,19.67,24.841c-0.799,0.594-1.554,1.252-2.249,1.983
		c-0.034,0.035-0.067,0.071-0.102,0.107c-0.505,0.549-4.985,5.425-6.737,7.739c-3.206,4.238-4.305,9.701-3.014,14.984l8.382,34.271
		c0.667,2.729,3.111,4.574,5.823,4.574c0.381,0,0.768-0.035,1.156-0.111l50.654-9.907l1.217,4.978
		c0.667,2.729,3.111,4.575,5.822,4.575c0.383,0,0.77-0.036,1.157-0.112l79.441-15.537c1.063-0.209,2.052-0.701,2.857-1.426l7.795-7
		C187.115,154.166,187.814,151.902,187.288,149.755z M81.396,45.097c0.332-0.429,0.672-0.856,1.015-1.28
		c0.108-0.134,0.218-0.266,0.327-0.398c0.239-0.292,0.478-0.581,0.719-0.867c0.125-0.148,0.25-0.294,0.375-0.441
		c0.232-0.272,0.463-0.541,0.695-0.807c0.122-0.14,0.242-0.278,0.363-0.416c0.251-0.285,0.499-0.563,0.747-0.839
		c0.094-0.105,0.189-0.212,0.283-0.315c0.702-0.775,1.383-1.508,2.026-2.186c0.027-0.028,0.053-0.055,0.079-0.083
		c0.3-0.315,0.589-0.616,0.868-0.905c0.039-0.04,0.075-0.077,0.113-0.116c0.272-0.28,0.532-0.546,0.78-0.796
		c0.011-0.011,0.024-0.025,0.035-0.036c0.754-0.821,1.551-1.605,2.386-2.35c0.077-0.074,0.131-0.125,0.131-0.125
		c0.001,0,0.003,0,0.003-0.001c4.394-3.88,9.863-6.68,16.123-7.904c2.31-0.454,4.623-0.671,6.914-0.671
		c17.058,0,32.89,12.071,37.14,29.447c3.494,14.285-1.807,28.231-12.414,36.28c0,0.001,0,0.001,0,0.003l-7.656,6.402l-0.223,0.186
		c-3.885,2.875-8.476,4.951-13.603,5.953c-6.968,1.362-13.96,0.546-20.269-1.965c-0.008-0.003-0.017-0.007-0.024-0.01
		c-1.55-0.618-3.056-1.339-4.512-2.155c-0.038-0.021-0.076-0.042-0.114-0.064c-1.427-0.807-2.802-1.705-4.117-2.689
		c-0.063-0.047-0.125-0.094-0.188-0.142c-0.468-0.355-0.919-0.732-1.372-1.108c-0.526-0.438-1.038-0.892-1.541-1.357
		c-0.21-0.194-0.426-0.38-0.632-0.58c-0.704-0.681-1.387-1.386-2.04-2.122c-0.524-0.592-1.03-1.202-1.519-1.828
		c-0.077-0.099-0.151-0.2-0.227-0.299c-0.418-0.547-0.822-1.106-1.211-1.677c-0.077-0.114-0.157-0.225-0.233-0.339
		c-0.434-0.651-0.849-1.316-1.244-1.997c-0.062-0.107-0.121-0.218-0.182-0.327c-0.331-0.584-0.646-1.18-0.947-1.784
		c-0.082-0.165-0.165-0.328-0.245-0.494c-0.338-0.705-0.66-1.419-0.955-2.149c-0.036-0.087-0.066-0.178-0.101-0.265
		c-0.257-0.651-0.495-1.312-0.717-1.982c-0.065-0.198-0.131-0.396-0.193-0.596c-0.238-0.761-0.462-1.528-0.654-2.312
		c-1.487-6.082-1.349-12.1,0.132-17.612l0,0c0.081-0.299,0.174-0.594,0.263-0.89c0.076-0.255,0.149-0.511,0.23-0.763
		c0.118-0.362,0.245-0.72,0.375-1.077c0.058-0.16,0.115-0.321,0.175-0.48c0.156-0.411,0.32-0.819,0.492-1.223
		c0.033-0.079,0.067-0.157,0.101-0.235c0.195-0.45,0.398-0.897,0.612-1.337l0,0C78.778,48.892,79.987,46.919,81.396,45.097z
		 M88.158,104.384c-1.17,0-2.345,0.114-3.492,0.339l-3.477,0.68c1.59-1.569,3.003-3.283,4.243-5.106
		c2.391,1.854,4.971,3.452,7.688,4.783C91.525,104.628,89.86,104.384,88.158,104.384z M30.459,107.574
		c-0.086-0.07-0.171-0.143-0.258-0.214c-0.411-0.34-0.814-0.69-1.209-1.051c-0.085-0.078-0.172-0.155-0.257-0.233
		c-0.465-0.435-0.921-0.88-1.361-1.342c-0.006-0.006-0.012-0.013-0.018-0.02c-0.418-0.439-0.821-0.894-1.215-1.357
		c-0.098-0.114-0.193-0.23-0.29-0.347c-0.329-0.397-0.648-0.803-0.958-1.217c-0.071-0.095-0.145-0.188-0.215-0.284
		c-0.368-0.503-0.723-1.017-1.063-1.542c-0.062-0.097-0.121-0.197-0.183-0.294c-0.272-0.432-0.535-0.872-0.788-1.318
		c-0.087-0.155-0.174-0.31-0.259-0.466c-0.254-0.467-0.498-0.941-0.729-1.423c-0.043-0.089-0.089-0.175-0.131-0.265
		c-0.265-0.564-0.511-1.139-0.743-1.722c-0.062-0.156-0.12-0.314-0.179-0.472c-0.171-0.45-0.333-0.904-0.484-1.364
		c-0.059-0.178-0.118-0.356-0.173-0.536c-0.186-0.6-0.36-1.205-0.511-1.821c-0.002-0.009-0.005-0.018-0.008-0.027
		c-0.563-2.303-0.852-4.596-0.886-6.844c-0.104-6.745,2.077-13.09,5.972-18.126c0.286-0.37,0.579-0.737,0.875-1.102
		c0.07-0.087,0.142-0.172,0.212-0.259c0.225-0.274,0.45-0.547,0.677-0.817c0.089-0.105,0.178-0.21,0.267-0.314
		c0.216-0.254,0.431-0.504,0.647-0.751c0.086-0.099,0.171-0.196,0.257-0.294c0.239-0.271,0.476-0.538,0.711-0.799
		c0.053-0.06,0.107-0.12,0.16-0.179c2.911-3.219,5.458-5.611,5.458-5.611c0.001,0,0.003,0,0.004,0
		c3.719-3.285,8.351-5.655,13.649-6.692c1.957-0.384,3.914-0.568,5.853-0.568c6.138,0,12.084,1.854,17.173,5.107
		c-2.444,7.249-2.806,15.193-0.895,23.006c1.911,7.815,5.951,14.752,11.372,20.266c-1.793,2.779-4.051,5.246-6.715,7.268
		c0,0.001,0,0.003,0.001,0.004l-6.671,5.577c-3.288,2.434-7.177,4.191-11.517,5.04c-5.774,1.129-11.568,0.49-16.819-1.53
		c-0.09-0.035-0.18-0.07-0.27-0.105c-0.577-0.229-1.148-0.47-1.711-0.73c-0.007-0.003-0.014-0.006-0.02-0.009
		c-0.594-0.276-1.179-0.572-1.756-0.884c-0.053-0.029-0.104-0.06-0.157-0.088c-0.503-0.276-0.998-0.566-1.486-0.869
		c-0.089-0.055-0.178-0.109-0.266-0.165C32.476,109.111,31.445,108.373,30.459,107.574z M35.376,174.186l-8.381-34.27
		c-0.895-3.659-0.063-7.252,1.971-9.939c1.626-2.15,6.364-7.295,6.364-7.295h0.002c0.001-0.002,0.003-0.003,0.005-0.005
		c0.328-0.348,0.683-0.671,1.055-0.978c0.085-0.07,0.175-0.135,0.262-0.203c0.307-0.237,0.626-0.46,0.958-0.668
		c0.091-0.057,0.18-0.115,0.273-0.169c0.849-0.497,1.775-0.891,2.769-1.166c0.041-0.011,0.077-0.029,0.118-0.04
		c0.007,0.002,0.015,0.003,0.022,0.005c0.25-0.065,0.498-0.138,0.756-0.188l30.314-5.93h0l13.952-2.729
		c0.406-0.08,0.811-0.136,1.215-0.174c0.101-0.009,0.202-0.008,0.302-0.015c0.275-0.019,0.55-0.039,0.824-0.039
		c0.026,0,0.051,0.003,0.077,0.003c0.03,0,0.061,0.003,0.09,0.004c-1.863,2.055-4.989,5.552-6.455,7.488
		c-3.59,4.746-4.819,10.864-3.373,16.787l7.256,29.667L35.376,174.186z M181.462,151.18l-7.794,7l-79.441,15.538l-1.15-4.704l0,0
		l-1.427-5.834l0,0l-7.322-29.938c-1.056-4.322-0.074-8.566,2.328-11.742c1.921-2.538,7.518-8.614,7.518-8.614h0.002
		c0.001-0.001,0.002-0.002,0.004-0.004c0.076-0.081,0.16-0.155,0.238-0.234c0.151-0.152,0.309-0.298,0.466-0.443
		c0.325-0.299,0.666-0.581,1.021-0.849c0.054-0.04,0.106-0.084,0.161-0.124c0.01-0.008,0.021-0.015,0.031-0.022
		c0.828-0.6,1.732-1.11,2.704-1.519c0.058-0.023,0.116-0.048,0.174-0.071c0.03-0.012,0.062-0.021,0.092-0.033
		c0.42-0.166,0.852-0.313,1.295-0.44c0.38-0.109,0.764-0.212,1.16-0.289l1.556-0.305h0.001l31.82-6.225l18.906-3.698
		c0.476-0.093,0.951-0.159,1.427-0.204c0.155-0.015,0.311-0.013,0.466-0.022c0.291-0.018,0.583-0.042,0.873-0.042
		c0.028,0,0.056,0.003,0.084,0.003c0.143,0.001,0.283,0.014,0.425,0.019c0.314,0.011,0.628,0.025,0.938,0.057
		c0.174,0.017,0.345,0.044,0.517,0.068c0.277,0.038,0.554,0.079,0.827,0.132c0.182,0.036,0.361,0.077,0.541,0.119
		c0.261,0.061,0.52,0.127,0.776,0.202c0.181,0.053,0.361,0.108,0.54,0.167c0.252,0.083,0.5,0.175,0.747,0.271
		c0.175,0.068,0.349,0.135,0.521,0.209c0.251,0.109,0.496,0.229,0.741,0.351c0.158,0.079,0.319,0.153,0.475,0.237
		c0.271,0.147,0.535,0.308,0.797,0.471c0.12,0.074,0.245,0.142,0.363,0.22c0.37,0.243,0.729,0.502,1.079,0.776
		c0.108,0.086,0.21,0.182,0.316,0.271c0.24,0.199,0.479,0.399,0.706,0.612c0.135,0.127,0.262,0.262,0.393,0.393
		c0.188,0.189,0.377,0.38,0.556,0.58c0.133,0.147,0.258,0.3,0.385,0.453c0.165,0.197,0.326,0.398,0.481,0.604
		c0.122,0.162,0.239,0.327,0.355,0.495c0.146,0.212,0.287,0.428,0.423,0.647c0.107,0.173,0.213,0.346,0.312,0.522
		c0.131,0.23,0.252,0.468,0.371,0.706c0.089,0.177,0.18,0.353,0.262,0.533c0.119,0.264,0.224,0.534,0.328,0.806
		c0.064,0.167,0.135,0.329,0.193,0.498c0.135,0.392,0.253,0.792,0.356,1.199c0.014,0.053,0.034,0.103,0.047,0.156L181.462,151.18
		L181.462,151.18z"/>
</g>
<g id="icon">
	<g id="Layer_2">
	</g>
	<g id="Layer_1_1_">
		<g>
			
				<linearGradient id="SVGID_1_" gradientUnits="userSpaceOnUse" x1="82.4121" y1="-56.166" x2="108.1438" y2="-81.5498" gradientTransform="matrix(1 0 0 -1 -50 61)">
				<stop  offset="0" style="stop-color:#FFBA00"/>
				<stop  offset="1" style="stop-color:#F72B00"/>
			</linearGradient>
			<path fill="url(#SVGID_1_)" d="M102.637,161.029l6.598-5.928L94.255,126.76c-1.611-6.583-8.198-10.887-14.715-9.611
				l-44.209,5.533c0,0-4.738,5.145-6.364,7.295c-2.034,2.688-2.865,6.28-1.971,9.939l8.381,34.27L102.637,161.029z"/>
			
				<linearGradient id="SVGID_2_" gradientUnits="userSpaceOnUse" x1="70.1567" y1="6.4165" x2="103.0026" y2="-42.7644" gradientTransform="matrix(1 0 0 -1 -50 61)">
				<stop  offset="0" style="stop-color:#FFBA00"/>
				<stop  offset="1" style="stop-color:#F72B00"/>
			</linearGradient>
			<path fill="url(#SVGID_2_)" d="M74.218,103.552l-6.671,5.577c-3.288,2.434-7.177,4.191-11.517,5.04
				c-16.211,3.17-32.6-7.535-36.604-23.911c-2.253-9.212-0.107-18.255,5.086-24.97c4.039-5.222,9.264-10.127,9.264-10.127
				C49.987,51.99,70.213,87.175,74.218,103.552z"/>
			
				<linearGradient id="SVGID_3_" gradientUnits="userSpaceOnUse" x1="-638.0273" y1="-308.646" x2="-679.7526" y2="-451.9033" gradientTransform="matrix(0.972 -0.1901 -0.2401 -0.9819 601.1938 -353.3628)">
				<stop  offset="0" style="stop-color:#FFE300"/>
				<stop  offset="1" style="stop-color:#F7941E"/>
			</linearGradient>
			<path fill="url(#SVGID_3_)" d="M84.728,72.832c4.08,16.687-6.002,32.834-22.521,36.064c-16.519,3.229-33.218-7.678-37.298-24.363
				C20.827,67.846,30.91,51.699,47.43,48.468C63.948,45.237,80.646,56.145,84.728,72.832z"/>
			
				<linearGradient id="SVGID_4_" gradientUnits="userSpaceOnUse" x1="-620.2939" y1="-313.8071" x2="-662.0208" y2="-457.0699" gradientTransform="matrix(0.972 -0.1901 -0.2401 -0.9819 601.1938 -353.3628)">
				<stop  offset="0" style="stop-color:#FFE300"/>
				<stop  offset="1" style="stop-color:#F7941E"/>
			</linearGradient>
			<path fill="url(#SVGID_4_)" d="M109.234,155.104l-8.498-34.746c-1.632-6.676-8.312-11.039-14.919-9.746l-44.266,8.658
				c-6.607,1.293-10.641,7.752-9.009,14.426l8.497,34.746L109.234,155.104z"/>
			
				<linearGradient id="SVGID_5_" gradientUnits="userSpaceOnUse" x1="140.7256" y1="-45.3726" x2="171.1178" y2="-75.3542" gradientTransform="matrix(1 0 0 -1 -50 61)">
				<stop  offset="0" style="stop-color:#52FFFF"/>
				<stop  offset="1" style="stop-color:#0074FF"/>
			</linearGradient>
			<path fill="url(#SVGID_5_)" d="M173.669,158.18l7.794-7l-17.691-33.478c-1.903-7.776-9.685-12.858-17.381-11.354l-52.217,6.536
				c0,0-5.597,6.076-7.518,8.614c-2.402,3.176-3.384,7.42-2.328,11.742l9.899,40.477L173.669,158.18z"/>
			
				<linearGradient id="SVGID_6_" gradientUnits="userSpaceOnUse" x1="126.25" y1="28.5488" x2="165.0455" y2="-29.5406" gradientTransform="matrix(1 0 0 -1 -50 61)">
				<stop  offset="0" style="stop-color:#52FFFF"/>
				<stop  offset="1" style="stop-color:#0074FF"/>
			</linearGradient>
			<path fill="url(#SVGID_6_)" d="M140.104,90.29l-7.879,6.588c-3.885,2.875-8.476,4.951-13.603,5.953
				c-19.147,3.744-38.504-8.899-43.234-28.241c-2.66-10.88-0.127-21.562,6.008-29.493c4.771-6.168,10.942-11.961,10.942-11.961
				C111.484,29.389,135.373,70.947,140.104,90.29z"/>
			
				<linearGradient id="SVGID_7_" gradientUnits="userSpaceOnUse" x1="-572.1299" y1="-301.8906" x2="-621.4138" y2="-471.0992" gradientTransform="matrix(0.972 -0.1901 -0.2401 -0.9819 601.1938 -353.3628)">
				<stop  offset="0" style="stop-color:#52FFFF"/>
				<stop  offset="1" style="stop-color:#0074FF"/>
			</linearGradient>
			<path fill="url(#SVGID_7_)" d="M152.518,54.006c4.819,19.709-7.088,38.782-26.601,42.598
				c-19.51,3.815-39.234-9.068-44.055-28.778c-4.818-19.71,7.09-38.781,26.602-42.598C127.975,21.413,147.695,34.297,152.518,54.006
				z"/>
			
				<linearGradient id="SVGID_8_" gradientUnits="userSpaceOnUse" x1="-551.1846" y1="-307.9878" x2="-600.4692" y2="-477.1986" gradientTransform="matrix(0.972 -0.1901 -0.2401 -0.9819 601.1938 -353.3628)">
				<stop  offset="0" style="stop-color:#52FFFF"/>
				<stop  offset="1" style="stop-color:#0074FF"/>
			</linearGradient>
			<path fill="url(#SVGID_8_)" d="M181.463,151.18l-10.036-41.041c-1.93-7.884-9.817-13.038-17.622-11.511l-52.283,10.228
				c-7.805,1.525-12.568,9.153-10.642,17.039l10.037,41.039L181.463,151.18z"/>
		</g>
	</g>
</g>
</svg>
