<?xml version="1.0" encoding="utf-8"?>
<!-- Generator: Adobe Illustrator 15.0.0, SVG Export Plug-In . SVG Version: 6.00 Build 0)  -->
<!DOCTYPE svg PUBLIC "-//W3C//DTD SVG 1.1//EN" "http://www.w3.org/Graphics/SVG/1.1/DTD/svg11.dtd">
<svg version="1.1" xmlns="http://www.w3.org/2000/svg" xmlns:xlink="http://www.w3.org/1999/xlink" x="0px" y="0px" width="200px"
	 height="200px" viewBox="0 0 200 200" enable-background="new 0 0 200 200" xml:space="preserve">
<g id="icon">
	<g id="Layer_2">
	</g>
	<g id="Layer_1_1_">
		<g>
			<g>
				
					<linearGradient id="SVGID_1_" gradientUnits="userSpaceOnUse" x1="144.915" y1="740.5273" x2="169.4102" y2="695.3981" gradientTransform="matrix(1 0 0 1 -100 -591)">
					<stop  offset="0" style="stop-color:#FFFFFF"/>
					<stop  offset="0.4663" style="stop-color:#B7CBE2"/>
					<stop  offset="1" style="stop-color:#83A6CD"/>
				</linearGradient>
				<polygon fill="url(#SVGID_1_)" points="87.881,182.348 39.145,132.469 32.212,60.956 87.431,104.27 				"/>
				
					<radialGradient id="SVGID_2_" cx="170.8291" cy="631.0273" r="68.3807" gradientTransform="matrix(1 0 0 1 -100 -591)" gradientUnits="userSpaceOnUse">
					<stop  offset="0" style="stop-color:#FFFFFF"/>
					<stop  offset="1" style="stop-color:#D0DDEC"/>
				</radialGradient>
				<polygon fill="url(#SVGID_2_)" points="169.803,64.724 112.252,28.38 32.212,60.956 87.431,104.27 				"/>
				
					<linearGradient id="SVGID_3_" gradientUnits="userSpaceOnUse" x1="251.7197" y1="759.752" x2="225.9398" y2="708.7996" gradientTransform="matrix(1 0 0 1 -100 -591)">
					<stop  offset="0" style="stop-color:#FFFFFF"/>
					<stop  offset="0.4663" style="stop-color:#B7CBE2"/>
					<stop  offset="1" style="stop-color:#83A6CD"/>
				</linearGradient>
				<polygon fill="url(#SVGID_3_)" points="87.431,104.27 87.881,182.348 162.234,138.021 169.803,64.724 				"/>
				
					<radialGradient id="SVGID_4_" cx="150.417" cy="646.7275" r="71.0785" gradientTransform="matrix(1 0 0 1 -100 -591)" gradientUnits="userSpaceOnUse">
					<stop  offset="0" style="stop-color:#FFFFFF"/>
					<stop  offset="1" style="stop-color:#D0DDEC"/>
				</radialGradient>
				<polygon fill="url(#SVGID_4_)" points="87.881,105.365 29.869,61.191 28.133,47.382 87.431,90.018 				"/>
				
					<linearGradient id="SVGID_5_" gradientUnits="userSpaceOnUse" x1="199.2451" y1="651.1436" x2="209.7452" y2="559.1138" gradientTransform="matrix(1 0 0 1 -100 -591)">
					<stop  offset="0" style="stop-color:#FFFFFF"/>
					<stop  offset="1" style="stop-color:#D0DDEC"/>
				</linearGradient>
				<polygon fill="url(#SVGID_5_)" points="172.695,52.412 106.98,17.653 28.133,47.382 87.431,90.018 				"/>
				
					<linearGradient id="SVGID_6_" gradientUnits="userSpaceOnUse" x1="198.4033" y1="653.4482" x2="228.0509" y2="471.8563" gradientTransform="matrix(1 0 0 1 -100 -591)">
					<stop  offset="0" style="stop-color:#A57E6A"/>
					<stop  offset="1" style="stop-color:#1C0F00"/>
				</linearGradient>
				<polygon fill="url(#SVGID_6_)" points="155.088,52.636 105.293,25.762 45.545,48.824 90.479,81.132 				"/>
				
					<linearGradient id="SVGID_7_" gradientUnits="userSpaceOnUse" x1="198.3369" y1="673.207" x2="205.1312" y2="565.1122" gradientTransform="matrix(1 0 0 1 -100 -591)">
					<stop  offset="0" style="stop-color:#A57E6A"/>
					<stop  offset="1" style="stop-color:#1C0F00"/>
				</linearGradient>
				<polygon fill="url(#SVGID_7_)" points="105.293,27.55 153.264,53.439 155.088,52.636 105.293,25.762 45.545,48.824 
					47.163,49.987 				"/>
				
					<radialGradient id="SVGID_8_" cx="326.9824" cy="721.6514" r="131.5997" gradientTransform="matrix(1 0 0 1 -100 -591)" gradientUnits="userSpaceOnUse">
					<stop  offset="0" style="stop-color:#FFFFFF"/>
					<stop  offset="1" style="stop-color:#B7CBE2"/>
				</radialGradient>
				<polygon fill="url(#SVGID_8_)" points="87.431,90.018 87.881,105.365 170.852,65.029 172.695,52.412 				"/>
				<g>
					<polygon fill="#744818" points="140.691,150.961 115.037,166.572 116.223,122.539 145.088,107.654 					"/>
					
						<linearGradient id="SVGID_9_" gradientUnits="userSpaceOnUse" x1="173.1953" y1="716.1885" x2="192.15" y2="721.8596" gradientTransform="matrix(1 0 0.0222 1 -98.5642 -591)">
						<stop  offset="0" style="stop-color:#C98140"/>
						<stop  offset="1" style="stop-color:#391301"/>
					</linearGradient>
					<polygon fill="url(#SVGID_9_)" points="138.635,150.252 115.086,164.234 116.223,122.539 142.699,108.945 					"/>
					
						<linearGradient id="SVGID_10_" gradientUnits="userSpaceOnUse" x1="208.8721" y1="693.7764" x2="231.726" y2="732.6894" gradientTransform="matrix(1 0 0 1 -100 -591)">
						<stop  offset="0" style="stop-color:#0888A4"/>
						<stop  offset="0.3374" style="stop-color:#08DEFF"/>
						<stop  offset="0.4304" style="stop-color:#0ADEFF"/>
						<stop  offset="0.4639" style="stop-color:#11DEFE"/>
						<stop  offset="0.4878" style="stop-color:#1CDDFC"/>
						<stop  offset="0.5071" style="stop-color:#2DDDFA"/>
						<stop  offset="0.5237" style="stop-color:#43DCF6"/>
						<stop  offset="0.5383" style="stop-color:#5FDBF2"/>
						<stop  offset="0.5514" style="stop-color:#7EDAEE"/>
						<stop  offset="0.5632" style="stop-color:#A3D9E9"/>
						<stop  offset="0.5644" style="stop-color:#A7D9E8"/>
						<stop  offset="0.6418" style="stop-color:#A5D9E8"/>
						<stop  offset="0.6779" style="stop-color:#9DD9E9"/>
						<stop  offset="0.7054" style="stop-color:#91DAEB"/>
						<stop  offset="0.7286" style="stop-color:#7EDAEE"/>
						<stop  offset="0.749" style="stop-color:#67DBF1"/>
						<stop  offset="0.7675" style="stop-color:#49DCF6"/>
						<stop  offset="0.7842" style="stop-color:#27DDFA"/>
						<stop  offset="0.7914" style="stop-color:#16DEFD"/>
						<stop  offset="1" style="stop-color:#08AFCD"/>
					</linearGradient>
					<polygon fill="url(#SVGID_10_)" points="138.252,149.857 115.232,163.527 116.348,122.943 142.23,109.652 					"/>
					<polygon fill="#744818" points="138.252,149.857 137.318,150.676 140.98,110.404 142.23,109.652 					"/>
					
						<linearGradient id="SVGID_11_" gradientUnits="userSpaceOnUse" x1="220.8213" y1="720.3955" x2="227.1734" y2="720.9249" gradientTransform="matrix(1 0 0 1 -100 -591)">
						<stop  offset="0" style="stop-color:#C98140"/>
						<stop  offset="1" style="stop-color:#391301"/>
					</linearGradient>
					<polygon opacity="0.46" fill="url(#SVGID_11_)" enable-background="new    " points="137.014,150.752 137.305,150.678 
						140.789,111.053 140.498,111.203 					"/>
					
						<linearGradient id="SVGID_12_" gradientUnits="userSpaceOnUse" x1="682.3867" y1="-105.5625" x2="687.9231" y2="-105.1012" gradientTransform="matrix(0.5309 0.8475 -0.8475 0.5309 -330.5637 -418.8195)">
						<stop  offset="0" style="stop-color:#C98140"/>
						<stop  offset="1" style="stop-color:#391301"/>
					</linearGradient>
					<polygon opacity="0.46" fill="url(#SVGID_12_)" enable-background="new    " points="116.203,123.602 116.191,123.865 
						140.781,111.369 140.498,111.203 					"/>
				</g>
				<g>
					<polygon fill="#542C0B" points="81.978,161.422 45.108,126.342 41.825,92.627 81.294,128.83 					"/>
					<polygon fill="#744818" points="81.229,159.906 45.693,126.047 42.602,94.149 80.679,129.113 					"/>
					<polygon fill="#542C0B" points="79.202,155.809 47.279,125.246 44.697,98.256 79.016,129.883 					"/>
					
						<linearGradient id="SVGID_13_" gradientUnits="userSpaceOnUse" x1="6390.1895" y1="-3161.8008" x2="6409.8652" y2="-3185.8284" gradientTransform="matrix(0.8935 0.787 0.0732 1.1835 -5423.3613 -1154.1135)">
						<stop  offset="0.0225" style="stop-color:#F0F8EB"/>
						<stop  offset="0.0417" style="stop-color:#CFEBBB"/>
						<stop  offset="0.0623" style="stop-color:#B1DE8F"/>
						<stop  offset="0.0807" style="stop-color:#9BD56F"/>
						<stop  offset="0.0962" style="stop-color:#8ED05B"/>
						<stop  offset="0.1067" style="stop-color:#89CE54"/>
						<stop  offset="0.1646" style="stop-color:#A0D775"/>
						<stop  offset="0.2897" style="stop-color:#CEEAB9"/>
						<stop  offset="0.3483" style="stop-color:#E0F1D4"/>
						<stop  offset="0.374" style="stop-color:#D3EAC3"/>
						<stop  offset="0.4569" style="stop-color:#ADD48F"/>
						<stop  offset="0.5291" style="stop-color:#91C469"/>
						<stop  offset="0.5871" style="stop-color:#80BB52"/>
						<stop  offset="0.6236" style="stop-color:#7AB74A"/>
						<stop  offset="0.9326" style="stop-color:#699E3E"/>
						<stop  offset="1" style="stop-color:#89CE54"/>
					</linearGradient>
					<polygon fill="url(#SVGID_13_)" points="79.141,154.719 47.839,124.725 45.429,99.027 79.103,130.08 					"/>
					<polygon fill="#DFBBE7" points="79.141,154.719 47.839,124.725 45.429,99.027 79.103,130.08 					"/>
					
						<linearGradient id="SVGID_14_" gradientUnits="userSpaceOnUse" x1="160.4072" y1="710.1553" x2="168.4366" y2="731.7728" gradientTransform="matrix(1 0 0 1 -100 -591)">
						<stop  offset="0" style="stop-color:#0888A4"/>
						<stop  offset="0.3374" style="stop-color:#08DEFF"/>
						<stop  offset="0.4304" style="stop-color:#0ADEFF"/>
						<stop  offset="0.4639" style="stop-color:#11DEFE"/>
						<stop  offset="0.4878" style="stop-color:#1CDDFC"/>
						<stop  offset="0.5071" style="stop-color:#2DDDFA"/>
						<stop  offset="0.5237" style="stop-color:#43DCF6"/>
						<stop  offset="0.5383" style="stop-color:#5FDBF2"/>
						<stop  offset="0.5514" style="stop-color:#7EDAEE"/>
						<stop  offset="0.5632" style="stop-color:#A3D9E9"/>
						<stop  offset="0.5644" style="stop-color:#A7D9E8"/>
						<stop  offset="0.6418" style="stop-color:#A5D9E8"/>
						<stop  offset="0.6779" style="stop-color:#9DD9E9"/>
						<stop  offset="0.7054" style="stop-color:#91DAEB"/>
						<stop  offset="0.7286" style="stop-color:#7EDAEE"/>
						<stop  offset="0.749" style="stop-color:#67DBF1"/>
						<stop  offset="0.7675" style="stop-color:#49DCF6"/>
						<stop  offset="0.7842" style="stop-color:#27DDFA"/>
						<stop  offset="0.7914" style="stop-color:#16DEFD"/>
						<stop  offset="1" style="stop-color:#08AFCD"/>
					</linearGradient>
					<polygon fill="url(#SVGID_14_)" points="79.141,154.719 47.839,124.725 45.429,99.027 79.103,130.08 					"/>
				</g>
				<g>
					<g>
						
							<linearGradient id="SVGID_15_" gradientUnits="userSpaceOnUse" x1="167.0215" y1="1052.6357" x2="210.5455" y2="1123.803" gradientTransform="matrix(1.0074 -0.1019 0.0062 0.992 -72.1904 -909.9607)">
							<stop  offset="0" style="stop-color:#FF0000"/>
							<stop  offset="0.1674" style="stop-color:#F60000"/>
							<stop  offset="0.4388" style="stop-color:#DE0000"/>
							<stop  offset="0.7785" style="stop-color:#B70000"/>
							<stop  offset="1" style="stop-color:#9A0000"/>
						</linearGradient>
						<polygon fill="url(#SVGID_15_)" points="100.495,99.841 90.093,104.904 100.816,128.836 112.486,122.838 						"/>
						
							<linearGradient id="SVGID_16_" gradientUnits="userSpaceOnUse" x1="153.9209" y1="771.7373" x2="161.2511" y2="778.7743" gradientTransform="matrix(1 -0.0298 0 1 -100 -688.382)">
							<stop  offset="0" style="stop-color:#FF0000"/>
							<stop  offset="0.1674" style="stop-color:#F60000"/>
							<stop  offset="0.4388" style="stop-color:#DE0000"/>
							<stop  offset="0.7785" style="stop-color:#B70000"/>
							<stop  offset="1" style="stop-color:#9A0000"/>
						</linearGradient>
						<polygon fill="url(#SVGID_16_)" points="90.093,104.904 100.816,128.836 90.53,120.334 						"/>
						
							<linearGradient id="SVGID_17_" gradientUnits="userSpaceOnUse" x1="187.2051" y1="1040.3076" x2="229.9708" y2="1110.2349" gradientTransform="matrix(1.0074 -0.1019 0.0062 0.992 -72.1904 -909.9607)">
							<stop  offset="0" style="stop-color:#FF0000"/>
							<stop  offset="0.1674" style="stop-color:#F60000"/>
							<stop  offset="0.4388" style="stop-color:#DE0000"/>
							<stop  offset="0.7785" style="stop-color:#B70000"/>
							<stop  offset="1" style="stop-color:#9A0000"/>
						</linearGradient>
						<polygon fill="url(#SVGID_17_)" points="122.754,89.012 111.414,94.53 123.236,117.314 134.906,111.318 						"/>
						
							<linearGradient id="SVGID_18_" gradientUnits="userSpaceOnUse" x1="207.5674" y1="1028.0439" x2="249.541" y2="1096.676" gradientTransform="matrix(1.0074 -0.1019 0.0062 0.992 -72.1904 -909.9607)">
							<stop  offset="0" style="stop-color:#FF0000"/>
							<stop  offset="0.1674" style="stop-color:#F60000"/>
							<stop  offset="0.4388" style="stop-color:#DE0000"/>
							<stop  offset="0.7785" style="stop-color:#B70000"/>
							<stop  offset="1" style="stop-color:#9A0000"/>
						</linearGradient>
						<polygon fill="url(#SVGID_18_)" points="145.23,78.078 134.006,83.539 145.664,105.791 156.871,100.031 						"/>
						<polygon fill="#FFFFFF" points="133.992,83.544 122.729,89.024 134.453,111.551 145.723,105.76 						"/>
						<polygon fill="#FFFFFF" points="156.342,72.671 145.281,78.052 156.871,100.031 168.145,94.239 						"/>
						
							<linearGradient id="SVGID_19_" gradientUnits="userSpaceOnUse" x1="227.7764" y1="1016.0371" x2="268.9708" y2="1083.3951" gradientTransform="matrix(1.0074 -0.1019 0.0062 0.992 -72.1904 -909.9607)">
							<stop  offset="0" style="stop-color:#FF0000"/>
							<stop  offset="0.1674" style="stop-color:#F60000"/>
							<stop  offset="0.4388" style="stop-color:#DE0000"/>
							<stop  offset="0.7785" style="stop-color:#B70000"/>
							<stop  offset="1" style="stop-color:#9A0000"/>
						</linearGradient>
						<polygon fill="url(#SVGID_19_)" points="167.213,67.382 156.342,72.671 168.082,94.271 179.475,88.416 						"/>
						<polygon fill="#FFFFFF" points="111.555,94.462 100.583,99.798 112.027,123.074 123.244,117.311 						"/>
					</g>
					<g>
						
							<linearGradient id="SVGID_20_" gradientUnits="userSpaceOnUse" x1="155.5762" y1="1035.4668" x2="169.6905" y2="1062.2843" gradientTransform="matrix(1.0074 -0.1019 0.0062 0.992 -72.1904 -909.9607)">
							<stop  offset="0" style="stop-color:#FF0000"/>
							<stop  offset="0.1674" style="stop-color:#F60000"/>
							<stop  offset="0.4388" style="stop-color:#DE0000"/>
							<stop  offset="0.7785" style="stop-color:#B70000"/>
							<stop  offset="1" style="stop-color:#9A0000"/>
						</linearGradient>
						<path fill="url(#SVGID_20_)" d="M112.1,125.727l-0.037-2.672l-11.237,5.777l0.044,3.867c0.021,3.211,2.544,4.523,5.64,2.934
							c3.097-1.589,5.591-5.482,5.568-8.693C112.074,126.529,112.18,126.072,112.1,125.727z"/>
						<path fill="#B4B4B4" d="M123.311,119.967l-0.037-2.67l-11.238,5.775l0.043,3.867c0.021,3.211,2.547,4.521,5.645,2.934
							c3.096-1.589,5.588-5.482,5.566-8.693C123.285,120.77,123.391,120.312,123.311,119.967z"/>
						
							<linearGradient id="SVGID_21_" gradientUnits="userSpaceOnUse" x1="177.2441" y1="1024.9219" x2="191.3628" y2="1051.7479" gradientTransform="matrix(1.0074 -0.1019 0.0062 0.992 -72.1904 -909.9607)">
							<stop  offset="0" style="stop-color:#FF0000"/>
							<stop  offset="0.1674" style="stop-color:#F60000"/>
							<stop  offset="0.4388" style="stop-color:#DE0000"/>
							<stop  offset="0.7785" style="stop-color:#B70000"/>
							<stop  offset="1" style="stop-color:#9A0000"/>
						</linearGradient>
						<path fill="url(#SVGID_21_)" d="M134.52,114.207l-0.037-2.672l-11.236,5.775l0.043,3.869c0.021,3.211,2.545,4.521,5.643,2.934
							c3.096-1.592,5.59-5.484,5.568-8.693C134.494,115.008,134.6,114.553,134.52,114.207z"/>
						<path fill="#B4B4B4" d="M145.73,108.445l-0.037-2.67l-11.24,5.773l0.045,3.869c0.02,3.209,2.545,4.521,5.639,2.934
							c3.098-1.592,5.59-5.48,5.57-8.691C145.705,109.248,145.809,108.793,145.73,108.445z"/>
						
							<linearGradient id="SVGID_22_" gradientUnits="userSpaceOnUse" x1="198.9189" y1="1014.3936" x2="213.0343" y2="1041.2131" gradientTransform="matrix(1.0074 -0.1019 0.0062 0.992 -72.1904 -909.9607)">
							<stop  offset="0" style="stop-color:#FF0000"/>
							<stop  offset="0.1674" style="stop-color:#F60000"/>
							<stop  offset="0.4388" style="stop-color:#DE0000"/>
							<stop  offset="0.7785" style="stop-color:#B70000"/>
							<stop  offset="1" style="stop-color:#9A0000"/>
						</linearGradient>
						<path fill="url(#SVGID_22_)" d="M156.939,102.686l-0.037-2.668l-11.238,5.776l0.043,3.869c0.02,3.211,2.545,4.521,5.641,2.932
							c3.096-1.589,5.588-5.48,5.568-8.689C156.914,103.488,157.02,103.033,156.939,102.686z"/>
						<path fill="#B4B4B4" d="M168.148,96.925l-0.035-2.672l-11.24,5.777l0.043,3.87c0.021,3.209,2.545,4.521,5.643,2.932
							c3.094-1.59,5.588-5.482,5.566-8.692C168.123,97.728,168.23,97.273,168.148,96.925z"/>
						
							<linearGradient id="SVGID_23_" gradientUnits="userSpaceOnUse" x1="220.5898" y1="1003.8545" x2="234.7076" y2="1030.6783" gradientTransform="matrix(1.0074 -0.1019 0.0062 0.992 -72.1904 -909.9607)">
							<stop  offset="0" style="stop-color:#FF0000"/>
							<stop  offset="0.1674" style="stop-color:#F60000"/>
							<stop  offset="0.4388" style="stop-color:#DE0000"/>
							<stop  offset="0.7785" style="stop-color:#B70000"/>
							<stop  offset="1" style="stop-color:#9A0000"/>
						</linearGradient>
						<path fill="url(#SVGID_23_)" d="M179.359,91.166l-0.037-2.67l-11.24,5.775l0.043,3.869c0.021,3.209,2.547,4.522,5.643,2.932
							c3.096-1.59,5.588-5.483,5.568-8.694C179.334,91.967,179.439,91.512,179.359,91.166z"/>
					</g>
				</g>
				<g>
					<g>
						
							<linearGradient id="SVGID_24_" gradientUnits="userSpaceOnUse" x1="-6200.8936" y1="325.0664" x2="-6160.9326" y2="390.4075" gradientTransform="matrix(-1.0074 -0.1439 -0.0062 0.9918 -6171.8569 -1100.3955)">
							<stop  offset="0" style="stop-color:#FF0000"/>
							<stop  offset="0.1674" style="stop-color:#F60000"/>
							<stop  offset="0.4388" style="stop-color:#DE0000"/>
							<stop  offset="0.7785" style="stop-color:#B70000"/>
							<stop  offset="1" style="stop-color:#9A0000"/>
						</linearGradient>
						<polygon fill="url(#SVGID_24_)" points="78.728,99.245 85.731,104.613 71.666,124.947 63.807,118.607 						"/>
						
							<linearGradient id="SVGID_25_" gradientUnits="userSpaceOnUse" x1="-6266.5039" y1="509.7119" x2="-6259.0562" y2="516.8613" gradientTransform="matrix(-1 -0.0715 0 1 -6144.0488 -878.2032)">
							<stop  offset="0" style="stop-color:#FF0000"/>
							<stop  offset="0.1674" style="stop-color:#F60000"/>
							<stop  offset="0.4388" style="stop-color:#DE0000"/>
							<stop  offset="0.7785" style="stop-color:#B70000"/>
							<stop  offset="1" style="stop-color:#9A0000"/>
						</linearGradient>
						<polygon fill="url(#SVGID_25_)" points="85.731,104.613 71.666,124.947 85.438,120.029 						"/>
						
							<linearGradient id="SVGID_26_" gradientUnits="userSpaceOnUse" x1="-6188.0562" y1="312.5" x2="-6149.1421" y2="376.1293" gradientTransform="matrix(-1.0074 -0.1439 -0.0062 0.9918 -6171.8569 -1100.3955)">
							<stop  offset="0" style="stop-color:#FF0000"/>
							<stop  offset="0.1674" style="stop-color:#F60000"/>
							<stop  offset="0.4388" style="stop-color:#DE0000"/>
							<stop  offset="0.7785" style="stop-color:#B70000"/>
							<stop  offset="1" style="stop-color:#9A0000"/>
						</linearGradient>
						<polygon fill="url(#SVGID_26_)" points="63.74,87.756 71.375,93.609 56.57,112.766 48.713,106.424 						"/>
						
							<linearGradient id="SVGID_27_" gradientUnits="userSpaceOnUse" x1="-6174.9043" y1="299.8379" x2="-6136.6304" y2="362.4205" gradientTransform="matrix(-1.0074 -0.1439 -0.0062 0.9918 -6171.8569 -1100.3955)">
							<stop  offset="0" style="stop-color:#FF0000"/>
							<stop  offset="0.1674" style="stop-color:#F60000"/>
							<stop  offset="0.4388" style="stop-color:#DE0000"/>
							<stop  offset="0.7785" style="stop-color:#B70000"/>
							<stop  offset="1" style="stop-color:#9A0000"/>
						</linearGradient>
						<polygon fill="url(#SVGID_27_)" points="48.608,76.158 56.165,81.951 41.47,100.58 33.925,94.488 						"/>
						<polygon fill="#FFFFFF" points="56.174,81.957 63.758,87.769 49.018,106.67 41.43,100.546 						"/>
						<polygon fill="#FFFFFF" points="41.126,70.424 48.573,76.131 33.925,94.489 26.335,88.364 						"/>
						
							<linearGradient id="SVGID_28_" gradientUnits="userSpaceOnUse" x1="-6161.5488" y1="287.2031" x2="-6124.1323" y2="348.3837" gradientTransform="matrix(-1.0074 -0.1439 -0.0062 0.9918 -6171.8569 -1100.3955)">
							<stop  offset="0" style="stop-color:#FF0000"/>
							<stop  offset="0.1674" style="stop-color:#F60000"/>
							<stop  offset="0.4388" style="stop-color:#DE0000"/>
							<stop  offset="0.7785" style="stop-color:#B70000"/>
							<stop  offset="1" style="stop-color:#9A0000"/>
						</linearGradient>
						<polygon fill="url(#SVGID_28_)" points="33.808,64.814 41.126,70.424 26.376,88.396 18.707,82.207 						"/>
						<polygon fill="#FFFFFF" points="71.282,93.537 78.668,99.199 64.118,118.857 56.565,112.762 						"/>
					</g>
					<g>
						
							<linearGradient id="SVGID_29_" gradientUnits="userSpaceOnUse" x1="-6211.1152" y1="307.3779" x2="-6197.1084" y2="333.9914" gradientTransform="matrix(-1.0074 -0.1439 -0.0062 0.9918 -6171.8569 -1100.3955)">
							<stop  offset="0" style="stop-color:#FF0000"/>
							<stop  offset="0.1674" style="stop-color:#F60000"/>
							<stop  offset="0.4388" style="stop-color:#DE0000"/>
							<stop  offset="0.7785" style="stop-color:#B70000"/>
							<stop  offset="1" style="stop-color:#9A0000"/>
						</linearGradient>
						<path fill="url(#SVGID_29_)" d="M64.068,121.506l0.024-2.668l7.568,6.107l-0.031,3.867c-0.012,3.209-1.713,4.445-3.796,2.766
							c-2.085-1.682-3.764-5.646-3.749-8.857C64.085,122.309,64.013,121.85,64.068,121.506z"/>
						<path fill="#B4B4B4" d="M56.521,115.416l0.024-2.67l7.568,6.107l-0.029,3.865c-0.015,3.213-1.715,4.447-3.799,2.768
							c-2.085-1.682-3.764-5.646-3.75-8.855C56.538,116.219,56.465,115.76,56.521,115.416z"/>
						
							<linearGradient id="SVGID_30_" gradientUnits="userSpaceOnUse" x1="-6196.7104" y1="296.0605" x2="-6182.6973" y2="322.6855" gradientTransform="matrix(-1.0074 -0.1439 -0.0062 0.9918 -6171.8569 -1100.3955)">
							<stop  offset="0" style="stop-color:#FF0000"/>
							<stop  offset="0.1674" style="stop-color:#F60000"/>
							<stop  offset="0.4388" style="stop-color:#DE0000"/>
							<stop  offset="0.7785" style="stop-color:#B70000"/>
							<stop  offset="1" style="stop-color:#9A0000"/>
						</linearGradient>
						<path fill="url(#SVGID_30_)" d="M48.974,109.324l0.024-2.67l7.567,6.105l-0.029,3.867c-0.014,3.211-1.714,4.449-3.798,2.77
							c-2.083-1.686-3.763-5.648-3.749-8.857C48.991,110.127,48.919,109.668,48.974,109.324z"/>
						<path fill="#B4B4B4" d="M41.426,103.232l0.025-2.668l7.567,6.104l-0.029,3.869c-0.014,3.209-1.715,4.446-3.798,2.764
							c-2.085-1.682-3.764-5.646-3.75-8.854C41.443,104.037,41.373,103.578,41.426,103.232z"/>
						
							<linearGradient id="SVGID_31_" gradientUnits="userSpaceOnUse" x1="-6182.2935" y1="284.7656" x2="-6168.2847" y2="311.3818" gradientTransform="matrix(-1.0074 -0.1439 -0.0062 0.9918 -6171.8569 -1100.3955)">
							<stop  offset="0" style="stop-color:#FF0000"/>
							<stop  offset="0.1674" style="stop-color:#F60000"/>
							<stop  offset="0.4388" style="stop-color:#DE0000"/>
							<stop  offset="0.7785" style="stop-color:#B70000"/>
							<stop  offset="1" style="stop-color:#9A0000"/>
						</linearGradient>
						<path fill="url(#SVGID_31_)" d="M33.879,97.142l0.024-2.67l7.567,6.107l-0.029,3.868c-0.014,3.209-1.713,4.447-3.798,2.766
							c-2.084-1.682-3.762-5.648-3.749-8.857C33.896,97.945,33.824,97.486,33.879,97.142z"/>
						<path fill="#B4B4B4" d="M26.332,91.05l0.025-2.67l7.567,6.107l-0.03,3.867c-0.014,3.208-1.714,4.451-3.798,2.766
							c-2.083-1.682-3.762-5.647-3.749-8.856C26.349,91.853,26.278,91.394,26.332,91.05z"/>
						
							<linearGradient id="SVGID_32_" gradientUnits="userSpaceOnUse" x1="-6167.8857" y1="273.4492" x2="-6153.874" y2="300.0725" gradientTransform="matrix(-1.0074 -0.1439 -0.0062 0.9918 -6171.8569 -1100.3955)">
							<stop  offset="0" style="stop-color:#FF0000"/>
							<stop  offset="0.1674" style="stop-color:#F60000"/>
							<stop  offset="0.4388" style="stop-color:#DE0000"/>
							<stop  offset="0.7785" style="stop-color:#B70000"/>
							<stop  offset="1" style="stop-color:#9A0000"/>
						</linearGradient>
						<path fill="url(#SVGID_32_)" d="M18.784,84.958l0.024-2.67l7.567,6.107l-0.029,3.869c-0.013,3.209-1.713,4.447-3.799,2.766
							c-2.084-1.683-3.761-5.648-3.749-8.857C18.801,85.762,18.73,85.303,18.784,84.958z"/>
					</g>
				</g>
				<g>
					
						<linearGradient id="SVGID_33_" gradientUnits="userSpaceOnUse" x1="163.3184" y1="647.2256" x2="173.0582" y2="634.3431" gradientTransform="matrix(1 0.0373 0 1 -100 -550.8473)">
						<stop  offset="0" style="stop-color:#B7CBE2;stop-opacity:0"/>
						<stop  offset="1" style="stop-color:#0E264E;stop-opacity:0.4"/>
					</linearGradient>
					<polygon fill="url(#SVGID_33_)" points="78.728,99.245 76.57,102.258 78.668,99.199 71.282,93.537 71.282,93.538 63.757,87.77 
						63.758,87.769 56.174,81.957 53.913,85.024 56.165,81.951 48.608,76.158 37.785,89.3 81.984,121.191 85.438,120.029 
						85.731,104.613 					"/>
					
						<linearGradient id="SVGID_34_" gradientUnits="userSpaceOnUse" x1="133.5996" y1="625.4727" x2="143.0648" y2="612.9535" gradientTransform="matrix(1 0.0373 0 1 -100 -550.8473)">
						<stop  offset="0" style="stop-color:#B7CBE2;stop-opacity:0"/>
						<stop  offset="1" style="stop-color:#0E264E;stop-opacity:0.4"/>
					</linearGradient>
					<polygon fill="url(#SVGID_34_)" points="39.102,88.906 48.573,76.131 41.126,70.424 33.808,64.814 22.117,77.996 					"/>
				</g>
				<g>
					
						<linearGradient id="SVGID_35_" gradientUnits="userSpaceOnUse" x1="233.1816" y1="580.626" x2="183.7613" y2="652.2854" gradientTransform="matrix(1 0 0 1 -100 -591)">
						<stop  offset="0" style="stop-color:#5987BC"/>
						<stop  offset="0.5706" style="stop-color:#FFFFFF"/>
						<stop  offset="1" style="stop-color:#5987BC"/>
					</linearGradient>
					<polygon fill="url(#SVGID_35_)" points="96.191,62.151 81.038,50.612 80.583,47.005 96.073,58.143 					"/>
					
						<linearGradient id="SVGID_36_" gradientUnits="userSpaceOnUse" x1="183.9072" y1="619.6816" x2="211.4814" y2="653.3223" gradientTransform="matrix(1 0 0 1 -100 -591)">
						<stop  offset="0" style="stop-color:#5987BC"/>
						<stop  offset="0.5706" style="stop-color:#FFFFFF"/>
						<stop  offset="1" style="stop-color:#5987BC"/>
					</linearGradient>
					<polygon fill="url(#SVGID_36_)" points="118.346,48.319 101.18,38.807 80.583,47.005 96.073,58.143 					"/>
					
						<linearGradient id="SVGID_37_" gradientUnits="userSpaceOnUse" x1="202.7373" y1="609.2432" x2="217.6451" y2="678.0591" gradientTransform="matrix(1 0 0 1 -100 -591)">
						<stop  offset="0" style="stop-color:#5987BC"/>
						<stop  offset="0.5706" style="stop-color:#FFFFFF"/>
						<stop  offset="1" style="stop-color:#5987BC"/>
					</linearGradient>
					<polygon fill="url(#SVGID_37_)" points="118.346,48.319 101.18,38.807 98.799,42.038 					"/>
					
						<linearGradient id="SVGID_38_" gradientUnits="userSpaceOnUse" x1="159.8828" y1="629.5615" x2="222.7423" y2="648.8604" gradientTransform="matrix(1 0 0 1 -100 -591)">
						<stop  offset="0" style="stop-color:#5987BC"/>
						<stop  offset="0.5706" style="stop-color:#FFFFFF"/>
						<stop  offset="1" style="stop-color:#5987BC"/>
					</linearGradient>
					<polygon fill="url(#SVGID_38_)" points="98.799,42.038 80.583,47.005 96.073,58.143 					"/>
					
						<linearGradient id="SVGID_39_" gradientUnits="userSpaceOnUse" x1="177.2861" y1="588.0381" x2="217.7372" y2="663.9999" gradientTransform="matrix(1 0 0 1 -100 -591)">
						<stop  offset="0" style="stop-color:#5987BC"/>
						<stop  offset="0.5706" style="stop-color:#FFFFFF"/>
						<stop  offset="1" style="stop-color:#5987BC"/>
					</linearGradient>
					<polygon fill="url(#SVGID_39_)" points="118.346,48.319 98.799,42.038 96.073,58.143 					"/>
					
						<linearGradient id="SVGID_40_" gradientUnits="userSpaceOnUse" x1="167.457" y1="550.0859" x2="212.4427" y2="658.7302" gradientTransform="matrix(1 0 0 1 -100 -591)">
						<stop  offset="0" style="stop-color:#5987BC"/>
						<stop  offset="0.5706" style="stop-color:#FFFFFF"/>
						<stop  offset="1" style="stop-color:#5987BC"/>
					</linearGradient>
					<polygon fill="url(#SVGID_40_)" points="96.073,58.143 96.191,62.151 117.863,51.614 118.346,48.319 					"/>
				</g>
				
					<linearGradient id="SVGID_41_" gradientUnits="userSpaceOnUse" x1="226.4766" y1="725.6416" x2="228.1016" y2="728.8922" gradientTransform="matrix(1 0 0 1 -100 -591)">
					<stop  offset="0" style="stop-color:#5987BC"/>
					<stop  offset="0.5706" style="stop-color:#FFFFFF"/>
					<stop  offset="1" style="stop-color:#5987BC"/>
				</linearGradient>
				<polygon fill="url(#SVGID_41_)" points="137.951,132.965 116.191,144.078 116.191,139.529 138.365,128.416 				"/>
				
					<linearGradient id="SVGID_42_" gradientUnits="userSpaceOnUse" x1="227.4873" y1="726.332" x2="228.453" y2="728.2639" gradientTransform="matrix(1 0 0 1 -100 -591)">
					<stop  offset="0" style="stop-color:#5987BC"/>
					<stop  offset="0.5706" style="stop-color:#FFFFFF"/>
					<stop  offset="1" style="stop-color:#5987BC"/>
				</linearGradient>
				<path fill="url(#SVGID_42_)" d="M138.787,130.803c0.289,0.568,0.061,1.264-0.51,1.553l-19.58,9.924
					c-0.568,0.287-1.264,0.062-1.555-0.51l0,0c-0.287-0.566-0.062-1.264,0.51-1.553l19.58-9.924
					C137.805,130.006,138.5,130.232,138.787,130.803L138.787,130.803z"/>
				
					<linearGradient id="SVGID_43_" gradientUnits="userSpaceOnUse" x1="217.5957" y1="731.3398" x2="218.5026" y2="733.1541" gradientTransform="matrix(1 0 0 1 -100 -591)">
					<stop  offset="0" style="stop-color:#5987BC"/>
					<stop  offset="1" style="stop-color:#004798"/>
				</linearGradient>
				<ellipse fill="url(#SVGID_43_)" cx="118.042" cy="141.232" rx="1.022" ry="1.172"/>
				<g>
					
						<linearGradient id="SVGID_44_" gradientUnits="userSpaceOnUse" x1="220.2871" y1="688.9912" x2="214.7725" y2="677.6866" gradientTransform="matrix(1 0.0044 0 1 -100 -586.4994)">
						<stop  offset="0" style="stop-color:#B7CBE2;stop-opacity:0"/>
						<stop  offset="1" style="stop-color:#0E264E;stop-opacity:0.4"/>
					</linearGradient>
					<polygon fill="url(#SVGID_44_)" points="134.006,83.539 136.023,87.39 133.992,83.544 122.729,89.024 122.729,89.024 
						111.555,94.462 111.555,94.462 100.583,99.798 102.406,103.51 100.495,99.841 90.093,104.904 90.53,120.334 94.34,123.482 
						153.395,93.472 145.23,78.078 					"/>
					
						<linearGradient id="SVGID_45_" gradientUnits="userSpaceOnUse" x1="262.084" y1="668.6016" x2="256.5695" y2="657.2971" gradientTransform="matrix(1 0.0044 0 1 -100 -586.4994)">
						<stop  offset="0" style="stop-color:#B7CBE2;stop-opacity:0"/>
						<stop  offset="1" style="stop-color:#0E264E;stop-opacity:0.4"/>
					</linearGradient>
					<polygon fill="url(#SVGID_45_)" points="167.213,67.382 156.342,72.671 145.281,78.052 153.41,93.464 175.787,82.092 					"/>
				</g>
			</g>
		</g>
	</g>
</g>
<g id="outline_x5F_white">
	<g>
		<g>
			<path fill="#FFFFFF" d="M106.98,17.653l65.715,34.759l-1.844,12.617l-1.141,0.554l-0.531,5.174l10.143,17.739l0.037,2.67
				c0.08,0.347-0.025,0.802-0.023,1.213c0.02,3.211-2.473,7.104-5.568,8.694c-0.893,0.458-1.735,0.676-2.487,0.676
				c-1.854,0-3.14-1.324-3.153-3.608c0.016,1.985-0.938,4.231-2.396,6.032l-3.494,33.851L87.883,182.35l-48.737-49.88l-2.554-26.34
				c-1.568-1.969-2.708-5.127-2.697-7.773c0-0.003,0-0.006,0-0.009v0.008c-0.01,2.237-0.838,3.518-2.046,3.518
				c-0.524,0-1.121-0.242-1.752-0.752c-2.083-1.682-3.762-5.647-3.749-8.856c-0.009,2.237-0.838,3.517-2.046,3.517
				c-0.525,0-1.122-0.242-1.753-0.751c-2.084-1.683-3.761-5.648-3.749-8.857c0.001-0.411-0.069-0.87-0.015-1.215l-0.078-2.752
				l3.568-4.109l-0.158-0.102l10.59-11.94l-0.284-2.92l-2.554-1.944l-1.735-13.809L106.98,17.653 M106.98,5.653
				c-1.433,0-2.865,0.256-4.233,0.771L23.9,36.153c-5.192,1.958-8.365,7.219-7.673,12.725l1.735,13.809
				c0.066,0.531,0.168,1.054,0.303,1.566l-5.126,5.78c-0.5,0.563-0.942,1.168-1.322,1.805l-2.172,2.501
				c-1.972,2.271-3.019,5.199-2.934,8.206l0.062,2.194c-0.026,0.708,0.005,1.277,0.026,1.635c0.05,6.848,3.33,14.054,8.209,17.994
				c1.28,1.032,2.653,1.839,4.087,2.409c1.025,1.404,2.189,2.654,3.461,3.682c0.818,0.66,1.675,1.229,2.562,1.702l2.082,21.467
				c0.264,2.722,1.45,5.272,3.361,7.229l48.737,49.879c2.322,2.375,5.438,3.613,8.587,3.613c2.108,0,4.23-0.556,6.141-1.692
				l74.353-44.326c3.256-1.94,5.403-5.306,5.792-9.075l2.733-26.492c0.789-0.279,1.572-0.617,2.346-1.015
				c7.016-3.604,11.927-11.347,12.082-18.961c0.043-0.509,0.098-1.334,0.02-2.358l-0.029-2.099
				c-0.027-2.033-0.571-4.024-1.581-5.789l-7.634-13.35c0.287-0.777,0.496-1.589,0.619-2.426l1.844-12.617
				c0.734-5.025-1.773-9.968-6.264-12.343L112.591,7.045C110.843,6.121,108.915,5.653,106.98,5.653L106.98,5.653z"/>
		</g>
	</g>
</g>
<g id="outline_x5F_black">
	<g>
		<path d="M106.98,17.653l65.715,34.759l-1.844,12.617l-1.141,0.554l-0.531,5.174l10.143,17.739l0.037,2.67
			c0.08,0.347-0.025,0.802-0.023,1.213c0.02,3.211-2.473,7.104-5.568,8.694c-0.893,0.458-1.735,0.676-2.487,0.676
			c-1.854,0-3.14-1.324-3.153-3.608c0.016,1.985-0.938,4.231-2.396,6.032l-3.494,33.851L87.883,182.35l-48.737-49.88l-2.554-26.34
			c-1.568-1.969-2.708-5.127-2.697-7.773c0-0.003,0-0.006,0-0.009v0.008c-0.01,2.237-0.838,3.518-2.046,3.518
			c-0.524,0-1.121-0.242-1.752-0.752c-2.083-1.682-3.762-5.647-3.749-8.856c-0.009,2.237-0.838,3.517-2.046,3.517
			c-0.524,0-1.121-0.242-1.752-0.751c-2.084-1.683-3.761-5.648-3.749-8.857c0.001-0.411-0.069-0.87-0.015-1.215l-0.078-2.752
			l3.568-4.109l-0.158-0.102l10.59-11.94l-0.284-2.92l-2.554-1.944l-1.735-13.809L106.98,17.653 M107.395,11.084l-2.531,0.954
			l-78.845,29.73l-4.426,1.669l0.59,4.693l1.735,13.809l0.314,2.5l1.129,0.859l-7.73,8.716l-4.644,5.236l0.22,0.142l-0.561,0.646
			l0.066,2.337l0.068,2.412c-0.029,0.525-0.003,0.968,0.015,1.271l0.008,0.139c-0.005,5.024,2.505,10.697,5.979,13.502
			c1.5,1.21,2.957,1.748,4.156,1.961c0.945,1.65,2.102,3.088,3.392,4.129c1.495,1.208,2.949,1.746,4.147,1.96
			c0.096,0.169,0.194,0.336,0.295,0.5l2.404,24.799l0.204,2.103l1.477,1.514l48.737,49.879l3.304,3.381l4.06-2.421l74.354-44.326
			l2.588-1.542l0.31-2.994l3.188-30.892c1.703-0.021,3.426-0.47,5.117-1.338c5.104-2.622,8.795-8.458,8.825-13.924l0.004-0.045
			c0.033-0.373,0.087-0.977,0.015-1.716l-0.031-2.312l-0.021-1.549l-0.769-1.345l-9.157-16.016l0.956-0.465l0.458-3.14l1.844-12.617
			l0.613-4.191l-3.744-1.98l-65.715-34.759L107.395,11.084L107.395,11.084z"/>
	</g>
</g>
</svg>
