<?xml version="1.0" encoding="utf-8"?>
<!-- Generator: Adobe Illustrator 15.0.0, SVG Export Plug-In . SVG Version: 6.00 Build 0)  -->
<!DOCTYPE svg PUBLIC "-//W3C//DTD SVG 1.1//EN" "http://www.w3.org/Graphics/SVG/1.1/DTD/svg11.dtd">
<svg version="1.1" xmlns="http://www.w3.org/2000/svg" xmlns:xlink="http://www.w3.org/1999/xlink" x="0px" y="0px" width="200px"
	 height="200px" viewBox="0 0 200 200" enable-background="new 0 0 200 200" xml:space="preserve">
<g id="icon">
	<g id="Layer_2">
	</g>
	<g id="Layer_1_1_">
		<g>
			
				<linearGradient id="SVGID_1_" gradientUnits="userSpaceOnUse" x1="170.0479" y1="-41.9033" x2="99.176" y2="-72.142" gradientTransform="matrix(1 0 0 -1 -50 61)">
				<stop  offset="0" style="stop-color:#FFE300"/>
				<stop  offset="1" style="stop-color:#F7941E"/>
			</linearGradient>
			<polygon fill="url(#SVGID_1_)" points="80.812,179.879 29.99,128.219 25.143,83.161 80.362,126.477 			"/>
			
				<radialGradient id="SVGID_2_" cx="116.3076" cy="22.123" r="79.4708" gradientTransform="matrix(1 0 0 -1 -50 61)" gradientUnits="userSpaceOnUse">
				<stop  offset="0" style="stop-color:#FFFFFF"/>
				<stop  offset="1" style="stop-color:#D0DDEC"/>
			</radialGradient>
			<polygon fill="url(#SVGID_2_)" points="171.812,59.342 114.264,22.998 97.227,50.335 25.143,83.161 80.362,126.477 
				149.029,91.471 			"/>
			
				<linearGradient id="SVGID_3_" gradientUnits="userSpaceOnUse" x1="184.1797" y1="9.8071" x2="175.6796" y2="-4.1931" gradientTransform="matrix(1 0 0 -1 -50 61)">
				<stop  offset="0" style="stop-color:#A26849"/>
				<stop  offset="1" style="stop-color:#603F26"/>
			</linearGradient>
			<polygon fill="url(#SVGID_3_)" points="171.812,59.342 116.531,19.858 93.768,47.622 148.986,90.937 			"/>
			
				<linearGradient id="SVGID_4_" gradientUnits="userSpaceOnUse" x1="161.1797" y1="-2.3384" x2="152.6794" y2="-16.3388" gradientTransform="matrix(1 0 0 -1 -50 61)">
				<stop  offset="0" style="stop-color:#A26849"/>
				<stop  offset="1" style="stop-color:#603F26"/>
			</linearGradient>
			<polygon fill="url(#SVGID_4_)" points="148.812,71.488 93.531,32.005 70.768,59.769 125.986,103.083 			"/>
			
				<linearGradient id="SVGID_5_" gradientUnits="userSpaceOnUse" x1="138.3047" y1="-14.0889" x2="129.8046" y2="-28.089" gradientTransform="matrix(1 0 0 -1 -50 61)">
				<stop  offset="0" style="stop-color:#A26849"/>
				<stop  offset="1" style="stop-color:#603F26"/>
			</linearGradient>
			<polygon fill="url(#SVGID_5_)" points="125.938,83.238 70.656,43.755 47.893,71.519 103.111,114.833 			"/>
			
				<linearGradient id="SVGID_6_" gradientUnits="userSpaceOnUse" x1="109.7148" y1="-18.3867" x2="173.214" y2="-155.8846" gradientTransform="matrix(1 0 0 -1 -50 61)">
				<stop  offset="0" style="stop-color:#A26849"/>
				<stop  offset="1" style="stop-color:#603F26"/>
			</linearGradient>
			<polygon fill="url(#SVGID_6_)" points="103.188,94.881 47.906,55.397 25.143,83.161 80.362,126.477 			"/>
			<polygon fill="#FFCE00" points="80.362,126.477 80.812,179.879 165.99,126.477 171.812,59.342 148.812,91.06 148.812,71.488 
				125.938,102.896 125.938,83.238 103.025,114.75 103.188,94.881 			"/>
			<g>
				<polygon fill="#A65E1E" points="161.861,129.157 129.204,149.671 129.454,127.184 163.357,106.434 				"/>
				
					<linearGradient id="SVGID_7_" gradientUnits="userSpaceOnUse" x1="146.2617" y1="-52.7183" x2="165.8414" y2="-58.5762" gradientTransform="matrix(1 0.0134 -0.0222 -1.0003 -40.6492 60.9534)">
					<stop  offset="0" style="stop-color:#C98140"/>
					<stop  offset="1" style="stop-color:#391301"/>
				</linearGradient>
				<polygon fill="url(#SVGID_7_)" points="160.259,128.583 129.241,147.852 129.454,127.184 161.496,107.414 				"/>
				
					<linearGradient id="SVGID_8_" gradientUnits="userSpaceOnUse" x1="244.6689" y1="-75.9351" x2="156.9406" y2="-59.4214" gradientTransform="matrix(1 0 0 -1 -50 61)">
					<stop  offset="0" style="stop-color:#FFFFFF"/>
					<stop  offset="1" style="stop-color:#6E6E6E"/>
				</linearGradient>
				<polygon fill="url(#SVGID_8_)" points="159.963,128.271 129.355,147.3 129.551,127.498 161.131,107.96 				"/>
				
					<linearGradient id="SVGID_9_" gradientUnits="userSpaceOnUse" x1="183.418" y1="-80.9565" x2="183.9196" y2="-81.7813" gradientTransform="matrix(0.9952 0.0163 0.0077 -1.0047 -37.488 52.3938)">
					<stop  offset="0" style="stop-color:#9C9E9E"/>
					<stop  offset="1" style="stop-color:#D6D6D6"/>
				</linearGradient>
				<polygon fill="url(#SVGID_9_)" points="159.964,128.27 129.354,147.299 129.413,146.008 160.041,127.059 				"/>
				
					<linearGradient id="SVGID_10_" gradientUnits="userSpaceOnUse" x1="183.498" y1="-77.5493" x2="184.0055" y2="-78.3835" gradientTransform="matrix(0.9952 0.0163 0.0077 -1.0047 -37.488 52.3938)">
					<stop  offset="0" style="stop-color:#9C9E9E"/>
					<stop  offset="1" style="stop-color:#D6D6D6"/>
				</linearGradient>
				<polygon fill="url(#SVGID_10_)" points="160.15,124.794 129.38,143.939 129.438,142.648 160.229,123.582 				"/>
				
					<linearGradient id="SVGID_11_" gradientUnits="userSpaceOnUse" x1="183.5791" y1="-73.9678" x2="184.086" y2="-74.801" gradientTransform="matrix(0.9952 0.0163 0.0077 -1.0047 -37.488 52.3938)">
					<stop  offset="0" style="stop-color:#9C9E9E"/>
					<stop  offset="1" style="stop-color:#D6D6D6"/>
				</linearGradient>
				<polygon fill="url(#SVGID_11_)" points="160.341,121.146 129.407,140.391 129.466,139.1 160.419,119.936 				"/>
				
					<linearGradient id="SVGID_12_" gradientUnits="userSpaceOnUse" x1="183.665" y1="-70.4805" x2="184.1736" y2="-71.3166" gradientTransform="matrix(0.9952 0.0163 0.0077 -1.0047 -37.488 52.3938)">
					<stop  offset="0" style="stop-color:#9C9E9E"/>
					<stop  offset="1" style="stop-color:#D6D6D6"/>
				</linearGradient>
				<polygon fill="url(#SVGID_12_)" points="160.539,117.594 129.434,136.945 129.492,135.654 160.617,116.382 				"/>
				
					<linearGradient id="SVGID_13_" gradientUnits="userSpaceOnUse" x1="183.7373" y1="-66.7285" x2="184.2496" y2="-67.5708" gradientTransform="matrix(0.9952 0.0163 0.0077 -1.0047 -37.488 52.3938)">
					<stop  offset="0" style="stop-color:#9C9E9E"/>
					<stop  offset="1" style="stop-color:#D6D6D6"/>
				</linearGradient>
				<polygon fill="url(#SVGID_13_)" points="160.717,113.773 129.461,133.232 129.521,131.941 160.795,112.562 				"/>
				
					<linearGradient id="SVGID_14_" gradientUnits="userSpaceOnUse" x1="183.7354" y1="-63.0088" x2="184.2483" y2="-63.8521" gradientTransform="matrix(0.9952 0.0163 0.0077 -1.0047 -37.488 52.3938)">
					<stop  offset="0" style="stop-color:#9C9E9E"/>
					<stop  offset="1" style="stop-color:#D6D6D6"/>
				</linearGradient>
				<polygon fill="url(#SVGID_14_)" points="160.746,110.038 129.49,129.497 129.549,128.206 160.823,108.826 				"/>
			</g>
			<g>
				<polygon fill="#A65E1E" points="125.145,147.068 107.699,158.057 108.436,139.78 125.512,129.405 				"/>
				
					<linearGradient id="SVGID_15_" gradientUnits="userSpaceOnUse" x1="133.4375" y1="-73.8896" x2="144.3633" y2="-77.1586" gradientTransform="matrix(1 0.0134 -0.0222 -1.0003 -40.6492 60.9534)">
					<stop  offset="0" style="stop-color:#C98140"/>
					<stop  offset="1" style="stop-color:#391301"/>
				</linearGradient>
				<polygon fill="url(#SVGID_15_)" points="123.54,146.495 107.736,156.236 107.949,139.963 123.998,130.387 				"/>
				
					<linearGradient id="SVGID_16_" gradientUnits="userSpaceOnUse" x1="161.873" y1="-73.7012" x2="168.0765" y2="-84.2638" gradientTransform="matrix(1 0.0134 0 -1 -50 60.8025)">
					<stop  offset="0.1758" style="stop-color:#08DEFF"/>
					<stop  offset="1" style="stop-color:#A7D9E8"/>
				</linearGradient>
				<polygon fill="url(#SVGID_16_)" points="123.244,146.184 107.852,155.686 108.046,140.277 123.633,130.934 				"/>
			</g>
			<g>
				<polygon fill="#A65E1E" points="103.818,159.889 86.374,170.875 87.11,152.6 104.188,142.225 				"/>
				
					<linearGradient id="SVGID_17_" gradientUnits="userSpaceOnUse" x1="111.8232" y1="-86.9946" x2="122.7483" y2="-90.2633" gradientTransform="matrix(1 0.0134 -0.0222 -1.0003 -40.6492 60.9534)">
					<stop  offset="0" style="stop-color:#C98140"/>
					<stop  offset="1" style="stop-color:#391301"/>
				</linearGradient>
				<polygon fill="url(#SVGID_17_)" points="102.215,159.312 86.411,169.055 86.624,152.781 102.673,143.205 				"/>
				
					<linearGradient id="SVGID_18_" gradientUnits="userSpaceOnUse" x1="140.5488" y1="-86.8027" x2="146.7528" y2="-97.3661" gradientTransform="matrix(1 0.0134 0 -1 -50 60.8025)">
					<stop  offset="0.1758" style="stop-color:#08DEFF"/>
					<stop  offset="1" style="stop-color:#A7D9E8"/>
				</linearGradient>
				<polygon fill="url(#SVGID_18_)" points="101.919,159.001 86.525,168.504 86.721,153.098 102.309,143.751 				"/>
			</g>
			
				<linearGradient id="SVGID_19_" gradientUnits="userSpaceOnUse" x1="100.9902" y1="-4.7979" x2="118.7415" y2="-4.7979" gradientTransform="matrix(1 0 0 -1 -50 61)">
				<stop  offset="0.1152" style="stop-color:#CA0000"/>
				<stop  offset="0.1339" style="stop-color:#CE0800"/>
				<stop  offset="0.2249" style="stop-color:#E02B00"/>
				<stop  offset="0.3171" style="stop-color:#ED4700"/>
				<stop  offset="0.41" style="stop-color:#F75A00"/>
				<stop  offset="0.5038" style="stop-color:#FD6600"/>
				<stop  offset="0.6" style="stop-color:#FF6A00"/>
				<stop  offset="0.6793" style="stop-color:#FD6600"/>
				<stop  offset="0.7567" style="stop-color:#F75A00"/>
				<stop  offset="0.8334" style="stop-color:#ED4700"/>
				<stop  offset="0.9096" style="stop-color:#E02B00"/>
				<stop  offset="0.9848" style="stop-color:#CE0800"/>
				<stop  offset="1" style="stop-color:#CA0000"/>
			</linearGradient>
			<path fill="url(#SVGID_19_)" d="M69.555,31.208c0,0,4.059,46.383,4.31,48.617c0.423,3.756-1.233,8.524-4.811,12.776
				c-5.706,6.788-14.146,9.687-18.849,6.481c-2.455-1.672-3.403-4.684-2.934-8.146c0.428-3.158,4.258-59.729,4.258-59.729
				L69.555,31.208L69.555,31.208z"/>
			
				<linearGradient id="SVGID_20_" gradientUnits="userSpaceOnUse" x1="123.9902" y1="48.6006" x2="106.607" y2="24.2893" gradientTransform="matrix(1 0 0 -1 -50 61)">
				<stop  offset="0.1152" style="stop-color:#CA0000"/>
				<stop  offset="0.1339" style="stop-color:#CE0800"/>
				<stop  offset="0.2249" style="stop-color:#E02B00"/>
				<stop  offset="0.3171" style="stop-color:#ED4700"/>
				<stop  offset="0.41" style="stop-color:#F75A00"/>
				<stop  offset="0.5038" style="stop-color:#FD6600"/>
				<stop  offset="0.6" style="stop-color:#FF6A00"/>
			</linearGradient>
			<ellipse fill="url(#SVGID_20_)" cx="60.542" cy="31.208" rx="9.013" ry="5.449"/>
			
				<linearGradient id="SVGID_21_" gradientUnits="userSpaceOnUse" x1="107.0557" y1="30.0215" x2="116.8053" y2="30.3965" gradientTransform="matrix(1 0 0 -1 -50 61)">
				<stop  offset="0" style="stop-color:#510000"/>
				<stop  offset="0.119" style="stop-color:#5D0200"/>
				<stop  offset="0.3343" style="stop-color:#7D0800"/>
				<stop  offset="0.6214" style="stop-color:#B11100"/>
				<stop  offset="0.9661" style="stop-color:#F81D00"/>
				<stop  offset="1" style="stop-color:#FF1E00"/>
			</linearGradient>
			<ellipse fill="url(#SVGID_21_)" cx="60.542" cy="30.845" rx="5.915" ry="3.213"/>
			
				<linearGradient id="SVGID_22_" gradientUnits="userSpaceOnUse" x1="141.5137" y1="-39.9229" x2="83.2625" y2="-15.1724" gradientTransform="matrix(1 0 0 -1 -50 61)">
				<stop  offset="0" style="stop-color:#A26849"/>
				<stop  offset="1" style="stop-color:#603F26"/>
			</linearGradient>
			<path fill="url(#SVGID_22_)" d="M74.858,79.714c0,0-0.171-0.946-0.509-1.781c-0.25-0.781-0.812-1.593-0.812-1.593l0.226,2.443
				l0.097,1.044l0.004-0.002c0.003,0.029,0.001,0.061,0.004,0.09l0.035,0.382l-0.019,0.024c0.236,3.676-1.406,8.209-4.831,12.28
				c-4.129,4.911-9.688,7.787-14.229,7.787c-1.734,0-3.319-0.42-4.62-1.306c-2.308-1.571-3.267-4.331-2.986-7.531l-0.016,0.002
				l0.406-4.499c0,0-0.463,0.722-0.744,1.55c-0.266,0.552-0.508,1.63-0.508,1.63l-0.076,0.567c-0.539,3.968,0.687,7.287,3.361,9.107
				c1.439,0.98,3.184,1.479,5.183,1.479c5.026,0,10.771-3.12,14.994-8.144C73.443,88.938,75.327,83.879,74.858,79.714z"/>
		</g>
	</g>
</g>
<g id="outline_x5F_white">
	<g>
		<g>
			<path fill="#FFFFFF" d="M116.531,19.858l55.281,39.483l-5.822,67.134l-85.179,53.403l-50.821-51.66L25.142,83.16l22.764-27.764
				l1.873,1.338c0.926-13.362,1.75-25.527,1.75-25.527c0-3.01,4.035-5.449,9.013-5.449s9.013,2.439,9.013,5.449
				c0,0,0.471,5.373,1.101,12.549l0.001-0.002l8.351,5.965l14.524-17.715l8.225,5.874L116.531,19.858 M116.538,7.858
				c-3.481,0-6.923,1.51-9.286,4.392l-7.69,9.379c-1.876-1.093-3.957-1.625-6.023-1.625c-3.481,0-6.924,1.51-9.286,4.392
				l-3.008,3.668c-1.683-8.344-10.021-14.306-20.702-14.306c-11.763,0-20.686,7.234-21.004,16.913
				c-0.099,1.465-0.584,8.604-1.193,17.461l-22.482,27.42c-2.04,2.489-2.996,5.692-2.651,8.892l4.848,45.058
				c0.29,2.689,1.479,5.204,3.376,7.133l50.821,51.66c2.322,2.359,5.426,3.584,8.559,3.584c2.195,0,4.405-0.602,6.37-1.833
				l85.179-53.403c3.188-2,5.256-5.379,5.581-9.129l5.822-67.135c0.366-4.228-1.527-8.335-4.98-10.802l-55.281-39.483
				C121.396,8.588,118.958,7.858,116.538,7.858L116.538,7.858z"/>
		</g>
	</g>
</g>
<g id="outline_x5F_black">
	<g>
		<path d="M116.531,19.858l55.281,39.483l-5.822,67.134l-85.179,53.403l-50.821-51.66L25.142,83.16l22.764-27.764l1.873,1.338
			c0.926-13.362,1.75-25.527,1.75-25.527c0-3.01,4.035-5.449,9.013-5.449s9.013,2.439,9.013,5.449c0,0,0.471,5.373,1.101,12.549
			l0.001-0.002l8.351,5.965l14.524-17.715l8.225,5.874L116.531,19.858 M115.45,11.713l-3.56,4.341l-11.217,13.68l-3.656-2.612
			L92.45,23.86l-3.559,4.341L77.927,41.574l-1.536-1.097l-0.841-9.592c-0.209-6.366-6.591-11.126-15.008-11.126
			c-8.449,0-14.847,4.797-15.01,11.199c-0.083,1.222-0.644,9.488-1.333,19.498l-0.932,1.137L20.503,79.357l-1.595,1.945l0.269,2.501
			l4.848,45.059l0.224,2.076l1.465,1.489l50.821,51.66l3.381,3.437L84,184.963l85.18-53.404l2.531-1.586l0.258-2.979l5.822-67.134
			l0.296-3.411l-2.786-1.99L120.02,14.976L115.45,11.713L115.45,11.713z"/>
	</g>
</g>
</svg>
