<?xml version="1.0" encoding="utf-8"?>
<!-- Generator: Adobe Illustrator 15.0.0, SVG Export Plug-In . SVG Version: 6.00 Build 0)  -->
<!DOCTYPE svg PUBLIC "-//W3C//DTD SVG 1.1//EN" "http://www.w3.org/Graphics/SVG/1.1/DTD/svg11.dtd">
<svg version="1.1" xmlns="http://www.w3.org/2000/svg" xmlns:xlink="http://www.w3.org/1999/xlink" x="0px" y="0px" width="200px"
	 height="200px" viewBox="0 0 200 200" enable-background="new 0 0 200 200" xml:space="preserve">
<g id="icon">
	<g id="Layer_2">
	</g>
	<g id="Layer_1_1_">
		<g>
			<g>
				
					<linearGradient id="SVGID_1_" gradientUnits="userSpaceOnUse" x1="180.1094" y1="663.0273" x2="209.422" y2="739.5814" gradientTransform="matrix(1 0 0 1 -100 -591)">
					<stop  offset="0" style="stop-color:#3B4653"/>
					<stop  offset="0.7301" style="stop-color:#000000"/>
					<stop  offset="0.8098" style="stop-color:#08090B"/>
					<stop  offset="1" style="stop-color:#3F4A5D"/>
				</linearGradient>
				<path fill="url(#SVGID_1_)" d="M116.471,45.495l-22.582,7.104L47.714,70.044l-2.185-1.021L31.018,78.05
					c-4.468,3.324-6.849,7.253-4.922,11.9l28.327,68.291c1.927,4.644,3.989,5.823,10.438,5.487l16.367-3.334l70.566-35.384
					c4.646-1.928,6.851-7.257,4.923-11.899L130.369,49.59C128.441,44.942,121.115,43.569,116.471,45.495z"/>
				<g>
					
						<linearGradient id="SVGID_2_" gradientUnits="userSpaceOnUse" x1="-302.8203" y1="37.6294" x2="-300.874" y2="52.0322" gradientTransform="matrix(0.9237 -0.3831 -0.3831 -0.9237 368.8809 82.8422)">
						<stop  offset="0" style="stop-color:#8DA6C7"/>
						<stop  offset="0.7301" style="stop-color:#000000"/>
						<stop  offset="0.8098" style="stop-color:#08090B"/>
						<stop  offset="1" style="stop-color:#3F4A5D;stop-opacity:0"/>
					</linearGradient>
					<path fill="url(#SVGID_2_)" d="M51.301,147.002l9.184-2.479l14.362-2.266l13.177,6.078l2.688,4.305
						c-3.126,2.349-8.442,6.338-8.442,6.338l-16.008,3.623c-5.652,0.707-9.451-0.263-11.277-4.666l-2.383-5.746L51.301,147.002z"/>
				</g>
				<g>
					
						<linearGradient id="SVGID_3_" gradientUnits="userSpaceOnUse" x1="-152.6035" y1="2681.8154" x2="-150.4641" y2="2697.6479" gradientTransform="matrix(0.963 -0.2695 0.2695 0.963 -539.1671 -2554.3145)">
						<stop  offset="0.3436" style="stop-color:#8DA6C7"/>
						<stop  offset="0.8098" style="stop-color:#08090B;stop-opacity:0.27"/>
						<stop  offset="1" style="stop-color:#3F4A5D;stop-opacity:0"/>
					</linearGradient>
					<path fill="url(#SVGID_3_)" d="M29.637,99.384l8.752-3.727l12.691-7.094l6.605-12.922l-0.547-5.045
						c-3.908,0.086-10.695-1.816-10.695-1.816L31.76,77.874c-4.881,2.938-7.268,6.045-5.982,10.637l1.676,5.991L29.637,99.384z"/>
				</g>
				
					<linearGradient id="SVGID_4_" gradientUnits="userSpaceOnUse" x1="-244.7856" y1="1184.4873" x2="-244.7856" y2="1112.2367" gradientTransform="matrix(0.9276 -0.3738 0.3831 0.9237 -86.1683 -1013.4156)">
					<stop  offset="0" style="stop-color:#D9FFFF"/>
					<stop  offset="0.2107" style="stop-color:#9CB7B7"/>
					<stop  offset="0.4216" style="stop-color:#657777"/>
					<stop  offset="0.6138" style="stop-color:#3A4444"/>
					<stop  offset="0.7803" style="stop-color:#1A1F1F"/>
					<stop  offset="0.9147" style="stop-color:#070808"/>
					<stop  offset="1" style="stop-color:#000000"/>
				</linearGradient>
				<path opacity="0.43" fill="url(#SVGID_4_)" enable-background="new    " d="M169.624,116.537l-87.723,40.038
					c-3.511,1.604-7.951-0.941-9.917-5.683l1.163,2.806c1.966,4.737,6.404,7.278,9.91,5.665l87.638-40.245
					c3.507-1.611,4.893-6.435,3.096-10.771l-1.066-2.566C174.523,110.119,173.137,114.936,169.624,116.537z"/>
				
					<radialGradient id="SVGID_5_" cx="-202.3516" cy="1084.6221" r="117.7776" gradientTransform="matrix(0.7848 -0.3162 0.3831 0.9237 -128.0915 -996.0677)" gradientUnits="userSpaceOnUse">
					<stop  offset="0" style="stop-color:#D2FFFF"/>
					<stop  offset="1" style="stop-color:#000000"/>
				</radialGradient>
				<path fill="url(#SVGID_5_)" d="M51.732,76.452l-8.543,3.222l30.223,72.862l8.326-3.744c4.312-1.938,5.449-9.188,2.545-16.19
					L65,86.11C62.096,79.108,56.157,74.784,51.732,76.452z"/>
				
					<linearGradient id="SVGID_6_" gradientUnits="userSpaceOnUse" x1="-299.2681" y1="1101.7158" x2="-281.5864" y2="1101.7158" gradientTransform="matrix(0.9276 -0.3738 0.3831 0.9237 -86.1683 -1013.4156)">
					<stop  offset="0" style="stop-color:#D9FFFF"/>
					<stop  offset="0.0037" style="stop-color:#D1F6F6"/>
					<stop  offset="0.0241" style="stop-color:#AAC8C8"/>
					<stop  offset="0.0471" style="stop-color:#859D9D"/>
					<stop  offset="0.0718" style="stop-color:#657777"/>
					<stop  offset="0.0987" style="stop-color:#4A5757"/>
					<stop  offset="0.1284" style="stop-color:#333B3B"/>
					<stop  offset="0.1619" style="stop-color:#202525"/>
					<stop  offset="0.2011" style="stop-color:#111414"/>
					<stop  offset="0.2495" style="stop-color:#070909"/>
					<stop  offset="0.3175" style="stop-color:#020202"/>
					<stop  offset="0.506" style="stop-color:#000000"/>
				</linearGradient>
				<path opacity="0.68" fill="url(#SVGID_6_)" enable-background="new    " d="M51.732,76.452l-8.543,3.222l30.223,72.862
					l8.326-3.744c4.312-1.938,5.449-9.188,2.545-16.19L65,86.11C62.096,79.108,56.157,74.784,51.732,76.452z"/>
				
					<linearGradient id="SVGID_7_" gradientUnits="userSpaceOnUse" x1="184.1602" y1="640.7559" x2="237.6596" y2="741.2549" gradientTransform="matrix(1 0 0 1 -100 -591)">
					<stop  offset="0" style="stop-color:#8DA6C7"/>
					<stop  offset="0.7301" style="stop-color:#000000"/>
					<stop  offset="0.8098" style="stop-color:#08090B"/>
					<stop  offset="1" style="stop-color:#3F4A5D"/>
				</linearGradient>
				<path fill="url(#SVGID_7_)" d="M136.049,35.591L45.612,69.089c-3.621,1.336-4.964,6.261-2.997,11.003l30.532,73.606
					c1.966,4.737,6.404,7.278,9.91,5.666l87.638-40.246c3.507-1.611,4.893-6.435,3.096-10.771l-27.934-67.341
					C144.059,36.667,139.666,34.244,136.049,35.591z"/>
				
					<linearGradient id="SVGID_8_" gradientUnits="userSpaceOnUse" x1="145.0361" y1="661.9863" x2="195.7957" y2="757.3381" gradientTransform="matrix(1 0 0 1 -100 -591)">
					<stop  offset="0" style="stop-color:#5F7086"/>
					<stop  offset="0.7301" style="stop-color:#000000"/>
					<stop  offset="0.8098" style="stop-color:#08090B"/>
					<stop  offset="1" style="stop-color:#3F4A5D"/>
				</linearGradient>
				<path fill="url(#SVGID_8_)" d="M59.18,64.661l-14.567,5.428c-3.621,1.336-4.964,6.261-2.997,11.003l30.532,73.606
					c1.966,4.737,6.404,6.764,9.91,5.149l13.079-6.007L59.18,64.661z"/>
				<polygon points="57.686,64.616 94.086,154.325 95.137,153.843 58.979,64.138 				"/>
				
					<linearGradient id="SVGID_9_" gradientUnits="userSpaceOnUse" x1="160.3848" y1="671.5635" x2="180.3847" y2="771.2302" gradientTransform="matrix(1 0 0 1 -100 -591)">
					<stop  offset="0" style="stop-color:#8DA6C7"/>
					<stop  offset="0.7301" style="stop-color:#000000"/>
					<stop  offset="0.8098" style="stop-color:#08090B"/>
					<stop  offset="1" style="stop-color:#3F4A5D"/>
				</linearGradient>
				<path fill="url(#SVGID_9_)" d="M42.869,71.531l14.566-5.427l35.57,88.221l1.051-0.482L58.1,64.661l-14.567,5.428
					c-1.678,0.619-2.858,2.014-3.456,3.799C40.738,72.805,41.678,71.971,42.869,71.531z"/>
				
					<radialGradient id="SVGID_10_" cx="-285.8882" cy="1051.9404" r="84.0915" gradientTransform="matrix(0.9237 -0.3831 0.3831 0.9237 -87.057 -1014.6968)" gradientUnits="userSpaceOnUse">
					<stop  offset="0.1446" style="stop-color:#D2FFFF"/>
					<stop  offset="0.2545" style="stop-color:#A9CECE"/>
					<stop  offset="0.4071" style="stop-color:#779090"/>
					<stop  offset="0.5536" style="stop-color:#4C5D5D"/>
					<stop  offset="0.69" style="stop-color:#2B3434"/>
					<stop  offset="0.8139" style="stop-color:#141818"/>
					<stop  offset="0.9213" style="stop-color:#050606"/>
					<stop  offset="1" style="stop-color:#000000"/>
				</radialGradient>
				<path fill="url(#SVGID_10_)" d="M106.488,60.53c-0.959,0.221-9.328,4.734-9.792,4.953c-12.281,5.82-16.725,23.193-9.863,39.733
					c6.66,16.058,21.403,25.14,33.972,21.474c0.864-0.25,10.932-2.816,12.262-3.845c9.752-7.534,7.591-22.955,1.582-37.442
					C128.298,70.095,119.238,57.599,106.488,60.53z"/>
				
					<linearGradient id="SVGID_11_" gradientUnits="userSpaceOnUse" x1="207.8164" y1="677.4863" x2="214.5663" y2="697.4858" gradientTransform="matrix(1 0 0 1 -100 -591)">
					<stop  offset="0" style="stop-color:#8DA6C7"/>
					<stop  offset="0.7301" style="stop-color:#000000"/>
					<stop  offset="0.8098" style="stop-color:#08090B"/>
					<stop  offset="1" style="stop-color:#3F4A5D"/>
				</linearGradient>
				<path fill="url(#SVGID_11_)" d="M106.488,60.53c-0.959,0.221-9.328,4.734-9.792,4.953c-12.281,5.82-16.725,23.193-9.863,39.733
					c6.66,16.058,21.403,25.14,33.972,21.474c0.864-0.25,10.932-2.816,12.262-3.845c9.752-7.534,7.591-22.955,1.582-37.442
					C128.298,70.095,119.238,57.599,106.488,60.53z"/>
				<path fill="none" stroke="#000000" d="M106.488,60.53c-0.959,0.221-9.328,4.734-9.792,4.953
					c-12.281,5.82-16.725,23.193-9.863,39.733c6.66,16.058,21.403,25.14,33.972,21.474c0.864-0.25,10.932-2.816,12.262-3.845
					c9.752-7.534,7.591-22.955,1.582-37.442C128.298,70.095,119.238,57.599,106.488,60.53z"/>
				<path d="M125.254,125.383c-12.99,3.79-27.854-5.564-34.572-21.763c-6.917-16.677-2.475-34.412,10.113-40.376l0.428,0.903
					c-12.104,5.736-16.33,22.906-9.617,39.089c6.523,15.727,20.869,24.834,33.369,21.187L125.254,125.383L125.254,125.383z"/>
				
					<linearGradient id="SVGID_12_" gradientUnits="userSpaceOnUse" x1="220.3262" y1="681.9277" x2="250.8263" y2="756.4279" gradientTransform="matrix(1 0 0 1 -100 -591)">
					<stop  offset="0" style="stop-color:#8DA6C7"/>
					<stop  offset="0.7301" style="stop-color:#000000"/>
					<stop  offset="0.8098" style="stop-color:#08090B"/>
					<stop  offset="1" style="stop-color:#3F4A5D"/>
				</linearGradient>
				<path fill="url(#SVGID_12_)" d="M107.5,60.009c-13.715,5.259-18.905,23.812-11.592,41.443
					c7.312,17.633,24.117,27.077,37.533,21.096c13.416-5.979,18.604-24.537,11.588-41.451
					C138.016,64.185,121.215,54.747,107.5,60.009z M130.246,114.846c-10.137,4.442-22.805-2.676-28.289-15.897
					c-5.483-13.22-1.57-27.205,8.738-31.234c10.307-4.033,22.971,3.081,28.285,15.893
					C144.297,96.42,140.385,110.405,130.246,114.846z"/>
				
					<radialGradient id="SVGID_13_" cx="-232.0083" cy="1101.1074" r="26.7931" gradientTransform="matrix(0.9237 -0.3831 0.3831 0.9237 -87.057 -1014.6968)" gradientUnits="userSpaceOnUse">
					<stop  offset="0" style="stop-color:#FFFFFF"/>
					<stop  offset="1" style="stop-color:#000000"/>
				</radialGradient>
				<path fill="url(#SVGID_13_)" d="M109.055,63.755c-12.056,4.668-16.623,21-10.203,36.479
					c6.421,15.482,21.212,23.795,33.035,18.568c11.824-5.227,16.391-21.562,10.201-36.486
					C135.898,67.396,121.109,59.087,109.055,63.755z"/>
				
					<radialGradient id="SVGID_14_" cx="-232.0073" cy="1101.1074" r="26.5841" gradientTransform="matrix(0.9237 -0.3831 0.3831 0.9237 -87.057 -1014.6968)" gradientUnits="userSpaceOnUse">
					<stop  offset="0" style="stop-color:#8DA6C7"/>
					<stop  offset="0.7301" style="stop-color:#000000"/>
					<stop  offset="0.8098" style="stop-color:#08090B"/>
					<stop  offset="1" style="stop-color:#3F4A5D"/>
				</radialGradient>
				<path fill="url(#SVGID_14_)" d="M109.145,63.971c-11.959,4.634-16.494,20.835-10.124,36.192
					c6.37,15.356,21.045,23.606,32.777,18.424c11.731-5.187,16.265-21.391,10.122-36.201
					C135.777,67.579,121.104,59.337,109.145,63.971z"/>
				
					<radialGradient id="SVGID_15_" cx="-232.6157" cy="1101.1074" r="24.9052" gradientTransform="matrix(0.9237 -0.3831 0.3831 0.9237 -87.057 -1014.6968)" gradientUnits="userSpaceOnUse">
					<stop  offset="0" style="stop-color:#8DA6C7"/>
					<stop  offset="0.7301" style="stop-color:#000000"/>
					<stop  offset="0.8098" style="stop-color:#08090B"/>
					<stop  offset="1" style="stop-color:#3F4A5D"/>
				</radialGradient>
				<path fill="url(#SVGID_15_)" d="M109.299,65.926c-11.198,4.357-15.444,19.538-9.484,33.909
					c5.962,14.373,19.71,22.101,30.708,17.261c10.998-4.842,15.244-20.021,9.479-33.915
					C134.244,69.292,120.497,61.566,109.299,65.926z"/>
				
					<radialGradient id="SVGID_16_" cx="-233.2607" cy="1101.1074" r="23.1533" gradientTransform="matrix(0.9237 -0.3831 0.3831 0.9237 -87.057 -1014.6968)" gradientUnits="userSpaceOnUse">
					<stop  offset="0" style="stop-color:#8DA6C7"/>
					<stop  offset="0.7301" style="stop-color:#000000"/>
					<stop  offset="0.8098" style="stop-color:#08090B"/>
					<stop  offset="1" style="stop-color:#3F4A5D"/>
				</radialGradient>
				<path fill="url(#SVGID_16_)" d="M109.381,67.811c-10.291,4.016-14.113,18.161-8.539,31.599
					c5.574,13.439,18.291,20.736,28.406,16.297c10.113-4.438,13.938-18.588,8.537-31.605
					C132.387,71.086,119.669,63.792,109.381,67.811z"/>
				<g>
					
						<radialGradient id="SVGID_17_" cx="-233.9458" cy="1101.1074" r="21.4322" gradientTransform="matrix(0.9237 -0.3831 0.3831 0.9237 -87.057 -1014.6968)" gradientUnits="userSpaceOnUse">
						<stop  offset="0.2892" style="stop-color:#B5B5B5"/>
						<stop  offset="0.3849" style="stop-color:#B0B0B0"/>
						<stop  offset="0.4995" style="stop-color:#A1A1A1"/>
						<stop  offset="0.6238" style="stop-color:#898989"/>
						<stop  offset="0.755" style="stop-color:#676767"/>
						<stop  offset="0.8902" style="stop-color:#3D3D3D"/>
						<stop  offset="1" style="stop-color:#141414"/>
					</radialGradient>
					<path fill="url(#SVGID_17_)" d="M109.465,69.796c-9.479,3.715-12.977,16.823-7.811,29.277
						c5.166,12.457,16.918,19.249,26.246,15.171s12.822-17.188,7.807-29.282C130.691,72.872,118.943,66.083,109.465,69.796z"/>
					
						<linearGradient id="SVGID_18_" gradientUnits="userSpaceOnUse" x1="250.6963" y1="648.5293" x2="144.9516" y2="762.0234" gradientTransform="matrix(1 0 0 1 -100 -591)">
						<stop  offset="0" style="stop-color:#8DA6C7"/>
						<stop  offset="0.7301" style="stop-color:#000000"/>
						<stop  offset="0.8098" style="stop-color:#08090B"/>
						<stop  offset="1" style="stop-color:#3F4A5D"/>
					</linearGradient>
					<path fill="url(#SVGID_18_)" d="M109.465,69.796c-9.479,3.715-12.977,16.823-7.811,29.277
						c5.166,12.457,16.918,19.249,26.246,15.171s12.822-17.188,7.807-29.282C130.691,72.872,118.943,66.083,109.465,69.796z"/>
					<g>
						
							<radialGradient id="SVGID_19_" cx="-252.1309" cy="1102.4629" r="20.0408" gradientTransform="matrix(0.9237 -0.3831 0.3831 0.9237 -87.057 -1014.6968)" gradientUnits="userSpaceOnUse">
							<stop  offset="0" style="stop-color:#472D60"/>
							<stop  offset="1" style="stop-color:#000D1E"/>
						</radialGradient>
						<path fill="url(#SVGID_19_)" d="M109.611,71.651c-8.995,3.544-12.413,15.76-7.631,27.287
							c4.781,11.527,15.846,17.748,24.711,13.891c8.867-3.856,12.283-16.075,7.631-27.292
							C129.67,74.323,118.607,68.106,109.611,71.651z"/>
					</g>
					
						<radialGradient id="SVGID_20_" cx="228.9502" cy="715.2246" r="34.4215" gradientTransform="matrix(0.9911 -0.0114 -0.0114 0.9853 -111.958 -606.4482)" gradientUnits="userSpaceOnUse">
						<stop  offset="0.1595" style="stop-color:#28FFFF"/>
						<stop  offset="0.8466" style="stop-color:#000000;stop-opacity:0"/>
					</radialGradient>
					<path fill="url(#SVGID_20_)" d="M131.201,80.401c-6.771-9.838-18.118-12.783-25.303-6.49
						c-7.167,6.342-7.363,19.762-0.474,29.892c6.872,10.079,18.132,12.812,25.179,6.182
						C137.672,103.402,137.955,90.196,131.201,80.401z"/>
					
						<linearGradient id="SVGID_21_" gradientUnits="userSpaceOnUse" x1="224.4287" y1="686.8711" x2="232.2617" y2="692.0378" gradientTransform="matrix(1 0 0 1 -100 -591)">
						<stop  offset="0" style="stop-color:#86FF97;stop-opacity:0"/>
						<stop  offset="1" style="stop-color:#00C0FF"/>
					</linearGradient>
					<path opacity="0.71" fill="url(#SVGID_21_)" enable-background="new    " d="M125.236,79.407
						c-6.668-1.569-12.854,4.223-13.774,13.007c-0.907,8.835,3.767,17.27,10.405,18.768c6.628,1.461,12.734-4.511,13.668-13.272
						C136.486,89.19,131.893,80.938,125.236,79.407z"/>
					
						<radialGradient id="SVGID_22_" cx="335.2568" cy="10.6914" r="24.8004" gradientTransform="matrix(0.8747 0.4702 -0.2361 0.8404 -164.2661 -91.5637)" gradientUnits="userSpaceOnUse">
						<stop  offset="0" style="stop-color:#B1FFFF"/>
						<stop  offset="1" style="stop-color:#008BFF"/>
					</radialGradient>
					<path opacity="0.71" fill="url(#SVGID_22_)" enable-background="new    " d="M122.293,86.39
						c0.465-2.564-1.768-10.841-3.332-12.776c-5.372-0.706-10.043,1.572-12.82,5.769c2.487,2.622,6.936,6.598,9.803,9.591
						C117.332,87.286,118.924,85.811,122.293,86.39z"/>
					
						<radialGradient id="SVGID_23_" cx="-214.9502" cy="1116.3682" r="41.5504" gradientTransform="matrix(0.7848 -0.3162 0.3831 0.9237 -128.0915 -996.0677)" gradientUnits="userSpaceOnUse">
						<stop  offset="0" style="stop-color:#83FFFF"/>
						<stop  offset="1" style="stop-color:#2368FF"/>
					</radialGradient>
					<path opacity="0.26" fill="url(#SVGID_23_)" enable-background="new    " d="M130.507,81.284
						c-0.782-1.121-1.626-2.138-2.522-3.057c5.324,8.926,4.652,20.273-1.766,26.091c-5.938,5.427-14.883,4.166-21.34-2.535
						c0.307,0.519,0.624,1.033,0.971,1.535c6.434,9.328,17.102,11.796,23.854,5.578C136.471,102.714,136.844,90.384,130.507,81.284z
						"/>
				</g>
				
					<radialGradient id="SVGID_24_" cx="-219.6011" cy="1194.3955" r="92.725" gradientTransform="matrix(0.7848 -0.3162 0.3831 0.9237 -128.0915 -996.0677)" gradientUnits="userSpaceOnUse">
					<stop  offset="0" style="stop-color:#FFFFFF"/>
					<stop  offset="1" style="stop-color:#000000"/>
				</radialGradient>
				<path fill="url(#SVGID_24_)" d="M132.801,121.005c-13.164,5.853-29.6-3.203-37.051-20.258c0.104,0.267,0.202,0.532,0.312,0.795
					c7.284,17.562,24.021,26.963,37.379,21.008c13.36-5.957,18.531-24.44,11.543-41.286c-0.104-0.255-0.221-0.499-0.33-0.749
					C151.176,97.146,145.969,115.157,132.801,121.005z"/>
				<g>
					<polygon points="144.172,48.213 140.13,38.518 119.674,46.808 123.812,56.731 					"/>
					<polygon fill="#717171" points="143.673,47.833 140.048,39.14 120.18,47.204 123.889,56.097 					"/>
					
						<linearGradient id="SVGID_25_" gradientUnits="userSpaceOnUse" x1="44.3477" y1="1092.1582" x2="44.3477" y2="1099.6713" gradientTransform="matrix(0.6892 -0.3222 0.3889 0.9325 -324.6314 -959.6331)">
						<stop  offset="0" style="stop-color:#F0F0F0"/>
						<stop  offset="1" style="stop-color:#9A9A9A"/>
					</linearGradient>
					<polygon fill="url(#SVGID_25_)" points="142.729,47.254 139.791,40.213 121.135,47.805 124.137,55.001 					"/>
					
						<linearGradient id="SVGID_26_" gradientUnits="userSpaceOnUse" x1="18.5156" y1="1080.6875" x2="21.7657" y2="1082.1875" gradientTransform="matrix(0.6892 -0.3222 0.3889 0.9325 -324.6314 -959.6311)">
						<stop  offset="0" style="stop-color:#FFFFFF"/>
						<stop  offset="0.4699" style="stop-color:#FFFFFF"/>
						<stop  offset="0.4878" style="stop-color:#FDFDFD"/>
						<stop  offset="0.4943" style="stop-color:#F6F6F6"/>
						<stop  offset="0.4989" style="stop-color:#EBEBEB"/>
						<stop  offset="0.5026" style="stop-color:#DADADA"/>
						<stop  offset="0.5058" style="stop-color:#C4C4C4"/>
						<stop  offset="0.5087" style="stop-color:#A8A8A8"/>
						<stop  offset="0.5112" style="stop-color:#888888"/>
						<stop  offset="0.5136" style="stop-color:#626262"/>
						<stop  offset="0.5158" style="stop-color:#373737"/>
						<stop  offset="0.5177" style="stop-color:#090909"/>
						<stop  offset="0.5181" style="stop-color:#000000"/>
						<stop  offset="0.521" style="stop-color:#030303"/>
						<stop  offset="0.5788" style="stop-color:#3D3D3D"/>
						<stop  offset="0.6381" style="stop-color:#717171"/>
						<stop  offset="0.6975" style="stop-color:#9D9D9D"/>
						<stop  offset="0.757" style="stop-color:#C0C0C0"/>
						<stop  offset="0.8168" style="stop-color:#DCDCDC"/>
						<stop  offset="0.877" style="stop-color:#EFEFEF"/>
						<stop  offset="0.9377" style="stop-color:#FBFBFB"/>
						<stop  offset="1" style="stop-color:#FFFFFF"/>
					</linearGradient>
					<polygon fill="url(#SVGID_26_)" points="140.012,41.632 122.04,48.976 121.732,48.239 139.709,40.907 					"/>
					
						<linearGradient id="SVGID_27_" gradientUnits="userSpaceOnUse" x1="17.9546" y1="1081.9004" x2="21.2047" y2="1083.4004" gradientTransform="matrix(0.6892 -0.3222 0.3889 0.9325 -324.6314 -959.6311)">
						<stop  offset="0" style="stop-color:#FFFFFF"/>
						<stop  offset="0.4699" style="stop-color:#FFFFFF"/>
						<stop  offset="0.4878" style="stop-color:#FDFDFD"/>
						<stop  offset="0.4943" style="stop-color:#F6F6F6"/>
						<stop  offset="0.4989" style="stop-color:#EBEBEB"/>
						<stop  offset="0.5026" style="stop-color:#DADADA"/>
						<stop  offset="0.5058" style="stop-color:#C4C4C4"/>
						<stop  offset="0.5087" style="stop-color:#A8A8A8"/>
						<stop  offset="0.5112" style="stop-color:#888888"/>
						<stop  offset="0.5136" style="stop-color:#626262"/>
						<stop  offset="0.5158" style="stop-color:#373737"/>
						<stop  offset="0.5177" style="stop-color:#090909"/>
						<stop  offset="0.5181" style="stop-color:#000000"/>
						<stop  offset="0.521" style="stop-color:#030303"/>
						<stop  offset="0.5788" style="stop-color:#3D3D3D"/>
						<stop  offset="0.6381" style="stop-color:#717171"/>
						<stop  offset="0.6975" style="stop-color:#9D9D9D"/>
						<stop  offset="0.757" style="stop-color:#C0C0C0"/>
						<stop  offset="0.8168" style="stop-color:#DCDCDC"/>
						<stop  offset="0.877" style="stop-color:#EFEFEF"/>
						<stop  offset="0.9377" style="stop-color:#FBFBFB"/>
						<stop  offset="1" style="stop-color:#FFFFFF"/>
					</linearGradient>
					<polygon fill="url(#SVGID_27_)" points="140.578,42.989 122.618,50.362 122.311,49.626 140.275,42.266 					"/>
					
						<linearGradient id="SVGID_28_" gradientUnits="userSpaceOnUse" x1="17.3589" y1="1083.1934" x2="20.6087" y2="1084.6932" gradientTransform="matrix(0.6892 -0.3222 0.3889 0.9325 -324.6314 -959.6311)">
						<stop  offset="0" style="stop-color:#FFFFFF"/>
						<stop  offset="0.4699" style="stop-color:#FFFFFF"/>
						<stop  offset="0.4878" style="stop-color:#FDFDFD"/>
						<stop  offset="0.4943" style="stop-color:#F6F6F6"/>
						<stop  offset="0.4989" style="stop-color:#EBEBEB"/>
						<stop  offset="0.5026" style="stop-color:#DADADA"/>
						<stop  offset="0.5058" style="stop-color:#C4C4C4"/>
						<stop  offset="0.5087" style="stop-color:#A8A8A8"/>
						<stop  offset="0.5112" style="stop-color:#888888"/>
						<stop  offset="0.5136" style="stop-color:#626262"/>
						<stop  offset="0.5158" style="stop-color:#373737"/>
						<stop  offset="0.5177" style="stop-color:#090909"/>
						<stop  offset="0.5181" style="stop-color:#000000"/>
						<stop  offset="0.521" style="stop-color:#030303"/>
						<stop  offset="0.5788" style="stop-color:#3D3D3D"/>
						<stop  offset="0.6381" style="stop-color:#717171"/>
						<stop  offset="0.6975" style="stop-color:#9D9D9D"/>
						<stop  offset="0.757" style="stop-color:#C0C0C0"/>
						<stop  offset="0.8168" style="stop-color:#DCDCDC"/>
						<stop  offset="0.877" style="stop-color:#EFEFEF"/>
						<stop  offset="0.9377" style="stop-color:#FBFBFB"/>
						<stop  offset="1" style="stop-color:#FFFFFF"/>
					</linearGradient>
					<polygon fill="url(#SVGID_28_)" points="141.182,44.438 123.234,51.841 122.927,51.103 140.879,43.714 					"/>
					
						<linearGradient id="SVGID_29_" gradientUnits="userSpaceOnUse" x1="16.7979" y1="1084.4102" x2="20.0479" y2="1085.9102" gradientTransform="matrix(0.6892 -0.3222 0.3889 0.9325 -324.6314 -959.6311)">
						<stop  offset="0" style="stop-color:#FFFFFF"/>
						<stop  offset="0.4699" style="stop-color:#FFFFFF"/>
						<stop  offset="0.4878" style="stop-color:#FDFDFD"/>
						<stop  offset="0.4943" style="stop-color:#F6F6F6"/>
						<stop  offset="0.4989" style="stop-color:#EBEBEB"/>
						<stop  offset="0.5026" style="stop-color:#DADADA"/>
						<stop  offset="0.5058" style="stop-color:#C4C4C4"/>
						<stop  offset="0.5087" style="stop-color:#A8A8A8"/>
						<stop  offset="0.5112" style="stop-color:#888888"/>
						<stop  offset="0.5136" style="stop-color:#626262"/>
						<stop  offset="0.5158" style="stop-color:#373737"/>
						<stop  offset="0.5177" style="stop-color:#090909"/>
						<stop  offset="0.5181" style="stop-color:#000000"/>
						<stop  offset="0.521" style="stop-color:#030303"/>
						<stop  offset="0.5788" style="stop-color:#3D3D3D"/>
						<stop  offset="0.6381" style="stop-color:#717171"/>
						<stop  offset="0.6975" style="stop-color:#9D9D9D"/>
						<stop  offset="0.757" style="stop-color:#C0C0C0"/>
						<stop  offset="0.8168" style="stop-color:#DCDCDC"/>
						<stop  offset="0.877" style="stop-color:#EFEFEF"/>
						<stop  offset="0.9377" style="stop-color:#FBFBFB"/>
						<stop  offset="1" style="stop-color:#FFFFFF"/>
					</linearGradient>
					<polygon fill="url(#SVGID_29_)" points="141.748,45.798 123.812,53.229 123.504,52.487 141.445,45.072 					"/>
					
						<linearGradient id="SVGID_30_" gradientUnits="userSpaceOnUse" x1="16.2715" y1="1085.5381" x2="19.5222" y2="1087.0383" gradientTransform="matrix(0.6892 -0.3222 0.3889 0.9325 -324.6314 -959.6311)">
						<stop  offset="0" style="stop-color:#FFFFFF"/>
						<stop  offset="0.4699" style="stop-color:#FFFFFF"/>
						<stop  offset="0.4878" style="stop-color:#FDFDFD"/>
						<stop  offset="0.4943" style="stop-color:#F6F6F6"/>
						<stop  offset="0.4989" style="stop-color:#EBEBEB"/>
						<stop  offset="0.5026" style="stop-color:#DADADA"/>
						<stop  offset="0.5058" style="stop-color:#C4C4C4"/>
						<stop  offset="0.5087" style="stop-color:#A8A8A8"/>
						<stop  offset="0.5112" style="stop-color:#888888"/>
						<stop  offset="0.5136" style="stop-color:#626262"/>
						<stop  offset="0.5158" style="stop-color:#373737"/>
						<stop  offset="0.5177" style="stop-color:#090909"/>
						<stop  offset="0.5181" style="stop-color:#000000"/>
						<stop  offset="0.521" style="stop-color:#030303"/>
						<stop  offset="0.5788" style="stop-color:#3D3D3D"/>
						<stop  offset="0.6381" style="stop-color:#717171"/>
						<stop  offset="0.6975" style="stop-color:#9D9D9D"/>
						<stop  offset="0.757" style="stop-color:#C0C0C0"/>
						<stop  offset="0.8168" style="stop-color:#DCDCDC"/>
						<stop  offset="0.877" style="stop-color:#EFEFEF"/>
						<stop  offset="0.9377" style="stop-color:#FBFBFB"/>
						<stop  offset="1" style="stop-color:#FFFFFF"/>
					</linearGradient>
					<polygon fill="url(#SVGID_30_)" points="142.277,47.063 124.354,54.522 124.045,53.783 141.975,46.339 					"/>
				</g>
				<path d="M76.965,67.319c-0.586-1.411-0.162-2.889,0.943-3.306c1.106-0.415,2.476,0.386,3.059,1.79
					c0.584,1.408,0.16,2.889-0.944,3.308C78.918,69.532,77.549,68.729,76.965,67.319z"/>
			</g>
		</g>
	</g>
</g>
<g id="outline_x5F_white">
	<g>
		<g>
			<path fill="#FFFFFF" d="M138.141,35.219c3.08,0,6.254,2.261,7.717,5.79l27.936,67.341c1.797,4.336,0.411,9.157-3.098,10.771
				l-75.566,34.703l0.01,0.021l-9.967,4.577l-3.941,1.978l-16.367,3.334c-0.67,0.035-1.292,0.054-1.872,0.054
				c-5.004,0-6.84-1.382-8.566-5.542L26.096,89.95c-1.927-4.647,0.454-8.576,4.922-11.9l14.512-9.026l0.114,0.054l90.405-33.486
				C136.727,35.339,137.432,35.219,138.141,35.219 M138.141,23.219c-2.158,0-4.271,0.379-6.279,1.126l-89.089,33
				c-1.249,0.295-2.458,0.792-3.579,1.489L24.68,67.86c-0.283,0.176-0.558,0.364-0.825,0.562c-3.995,2.972-6.885,6.355-8.592,10.055
				c-2.348,5.089-2.438,10.796-0.251,16.069l28.328,68.293c3.665,8.831,9.909,12.944,19.651,12.944c0.78,0,1.597-0.023,2.496-0.07
				c0.596-0.029,1.188-0.105,1.771-0.225l16.367-3.334c1.035-0.211,2.037-0.56,2.981-1.031l3.758-1.885l9.781-4.49
				c0.231-0.105,0.458-0.221,0.68-0.338l74.879-34.387c9.45-4.345,13.479-15.881,9.174-26.271L156.941,36.41
				C153.671,28.521,146.115,23.219,138.141,23.219L138.141,23.219z"/>
		</g>
	</g>
</g>
<g id="outline_x5F_black">
	<g>
		<path d="M138.141,35.219c3.08,0,6.254,2.261,7.717,5.79l27.936,67.341c1.797,4.336,0.411,9.157-3.098,10.771l-75.566,34.703
			l0.01,0.021l-9.967,4.577l-3.941,1.978l-16.367,3.334c-0.67,0.035-1.292,0.054-1.872,0.054c-5.003,0-6.84-1.382-8.566-5.542
			L26.096,89.95c-1.927-4.647,0.454-8.576,4.922-11.9l14.512-9.026l0.114,0.054l90.405-33.486
			C136.727,35.339,137.432,35.219,138.141,35.219 M138.141,29.219c-1.44,0-2.85,0.252-4.186,0.749L44.448,63.122
			c-0.73,0.134-1.439,0.403-2.087,0.807l-14.512,9.026c-0.142,0.088-0.279,0.182-0.413,0.281
			c-9.818,7.305-8.527,15.047-6.883,19.012l28.328,68.292c2.724,6.565,6.812,9.243,14.108,9.243c0.675,0,1.39-0.021,2.185-0.062
			c0.297-0.016,0.593-0.054,0.885-0.113l16.367-3.334c0.518-0.104,1.02-0.276,1.491-0.515l3.85-1.93l9.874-4.535
			c0.164-0.075,0.323-0.157,0.478-0.245L173.2,124.57c6.506-2.988,9.198-11.123,6.135-18.521l-27.937-67.34
			C149.047,33.034,143.718,29.219,138.141,29.219L138.141,29.219z"/>
	</g>
</g>
</svg>
