<?xml version="1.0" encoding="utf-8"?>
<!-- Generator: Adobe Illustrator 15.0.0, SVG Export Plug-In . SVG Version: 6.00 Build 0)  -->
<!DOCTYPE svg PUBLIC "-//W3C//DTD SVG 1.1//EN" "http://www.w3.org/Graphics/SVG/1.1/DTD/svg11.dtd">
<svg version="1.1" xmlns="http://www.w3.org/2000/svg" xmlns:xlink="http://www.w3.org/1999/xlink" x="0px" y="0px" width="200px"
	 height="200px" viewBox="0 0 200 200" enable-background="new 0 0 200 200" xml:space="preserve">
<g id="icon">
	<g id="Layer_2">
	</g>
	<g id="Layer_1_1_">
		<g>
			
				<linearGradient id="SVGID_1_" gradientUnits="userSpaceOnUse" x1="118.1963" y1="34.1025" x2="145.8267" y2="-83.3276" gradientTransform="matrix(1 0 0 -1 -50 61)">
				<stop  offset="0.1758" style="stop-color:#08DEFF"/>
				<stop  offset="0.6485" style="stop-color:#44B1E8"/>
			</linearGradient>
			<path fill="url(#SVGID_1_)" d="M147.923,114.57c-2.03-10.077-7.407-50.263-9.997-60.583c-1.725-6.869-3.769-12.616-6.357-15.219
				c-6.023-6.057-19.42-0.823-27.896,1.014c-11.56,2.504-21.005,4.552-31.119,6.743c-3.775-5.445-4.626-9.29-9.115-10.604
				c-2.5-0.73-5.755-0.604-9.24-0.052c-7.266,1.152-23.087,4.442-30.099,6.584c-5.295,1.617-9.502,3.958-10.615,7.77
				c-1.758,6.025,2.539,18.938,4.147,26.146c4.185,18.757,8.1,36.3,12.314,55.189c3.64,16.312,4.376,32.215,16.349,32.937
				c37.736-8.177,60.455-15.455,98.19-23.631C151.729,137.684,150.438,127.046,147.923,114.57z"/>
			
				<linearGradient id="SVGID_2_" gradientUnits="userSpaceOnUse" x1="128.9023" y1="-10.9941" x2="133.1495" y2="-29.3005" gradientTransform="matrix(1 0 0 -1 -50 61)">
				<stop  offset="0" style="stop-color:#03FFFF"/>
				<stop  offset="1" style="stop-color:#08DEFF"/>
			</linearGradient>
			<path fill="url(#SVGID_2_)" d="M147.923,114.57c-2.03-10.077-7.407-50.263-9.997-60.583c-1.725-6.869-3.769-12.616-6.357-15.219
				c-6.023-6.057-19.42-0.823-27.896,1.014c-11.56,2.504-21.005,4.552-31.119,6.743c-3.775-5.445-4.626-9.29-9.115-10.604
				c-2.5-0.73-5.755-0.604-9.24-0.052c-7.266,1.152-23.087,4.442-30.099,6.584c-5.295,1.617-9.502,3.958-10.615,7.77
				c-1.758,6.025,2.539,18.938,4.147,26.146c4.185,18.757,8.1,36.3,12.314,55.189c3.64,16.312,4.376,32.215,16.349,32.937
				c37.736-8.177,60.455-15.455,98.19-23.631C151.729,137.684,150.438,127.046,147.923,114.57z"/>
			
				<linearGradient id="SVGID_3_" gradientUnits="userSpaceOnUse" x1="120.2275" y1="34.0703" x2="147.6588" y2="-82.5138" gradientTransform="matrix(1 0 0 -1 -50 61)">
				<stop  offset="0.1758" style="stop-color:#08DEFF"/>
				<stop  offset="0.6485" style="stop-color:#44B1E8"/>
				<stop  offset="1" style="stop-color:#1788CA"/>
			</linearGradient>
			<path fill="url(#SVGID_3_)" d="M149.938,114.57c-2.028-10.077-7.405-50.263-9.996-60.583c-1.725-6.869-3.77-12.616-6.356-15.219
				c-6.024-6.057-19.421-0.823-27.897,1.014c-11.56,2.504-21.004,4.552-31.119,6.743c-3.776-5.445-4.626-9.29-9.116-10.604
				c-2.499-0.73-5.754-0.604-9.239-0.052c-7.266,1.152-23.088,4.442-30.1,6.584c-5.295,1.617-9.501,3.958-10.614,7.77
				c-1.758,6.025,2.539,18.938,4.147,26.146c4.185,18.757,8.1,36.3,12.314,55.189c3.64,16.312,3.756,29.336,15.728,30.058
				c37.737-8.179,60.075-12.576,97.811-20.752C152.745,137.684,152.452,127.046,149.938,114.57z"/>
			
				<linearGradient id="SVGID_4_" gradientUnits="userSpaceOnUse" x1="156.5107" y1="-3.1074" x2="179.0315" y2="-111.6692" gradientTransform="matrix(1 0 0 -1 -50 61)">
				<stop  offset="0.1758" style="stop-color:#08DEFF"/>
				<stop  offset="1" style="stop-color:#44B1E8"/>
			</linearGradient>
			<path fill="url(#SVGID_4_)" d="M170.84,129.395c-0.896,5.684-6.549,11.306-12.624,12.557L47.688,164.495
				c0,0,2.862,0.499,3.611-0.847c1.114-2,1.336-4.211,1.872-7.608l10.658-67.549c0.896-5.684,6.549-11.306,12.627-12.557
				l99.665-20.111c6.074-1.252,10.273,2.339,9.378,8.022L170.84,129.395z"/>
			
				<linearGradient id="SVGID_5_" gradientUnits="userSpaceOnUse" x1="160.5273" y1="-1.5254" x2="164.9676" y2="-38.2312" gradientTransform="matrix(1 0 0 -1 -50 61)">
				<stop  offset="0" style="stop-color:#03FFFF"/>
				<stop  offset="1" style="stop-color:#08DEFF"/>
			</linearGradient>
			<path fill="url(#SVGID_5_)" d="M170.84,129.395c-0.896,5.684-6.549,11.306-12.624,12.557L47.688,164.495
				c0,0-0.138-0.718,0.811-3.056c2.827-1.16,3.625-4.295,4.163-7.691l9.861-64.816c1.123-6.884,6.155-11.308,12.232-12.56
				l101.366-20.549c6.074-1.252,10.273,2.339,9.378,8.021L170.84,129.395z"/>
			
				<linearGradient id="SVGID_6_" gradientUnits="userSpaceOnUse" x1="158.9307" y1="-7.7734" x2="180.6821" y2="-112.6268" gradientTransform="matrix(1 0 0 -1 -50 61)">
				<stop  offset="0.1758" style="stop-color:#08DEFF"/>
				<stop  offset="0.6485" style="stop-color:#44B1E8"/>
				<stop  offset="0.8485" style="stop-color:#1788CA"/>
			</linearGradient>
			<path fill="url(#SVGID_6_)" d="M172.918,131.175c-0.896,5.685-6.549,11.308-12.624,12.558L49.379,164.111
				c0,0,3.276-0.523,4.618-2.939c1.113-2,1.336-4.212,1.873-7.609l10.037-60.524c0.896-5.684,6.549-11.306,12.627-12.557
				l99.665-20.111c6.074-1.252,10.273,2.339,9.378,8.022L172.918,131.175z"/>
		</g>
	</g>
</g>
<g id="outline_x5F_white">
	<g>
		<g>
			<path fill="#FFFFFF" d="M59.32,35.415c1.51,0,2.902,0.153,4.116,0.507c4.489,1.313,5.34,5.158,9.115,10.604
				c10.114-2.191,19.56-4.239,31.119-6.743c5.543-1.201,13.188-3.854,19.5-3.854c3.342,0,6.312,0.744,8.396,2.84
				c2.59,2.603,4.634,8.35,6.357,15.219c0.501,1.996,1.258,5.191,2.163,9.106l36.032-7.271c0.816-0.168,1.599-0.249,2.34-0.249
				c4.771,0,7.814,3.352,7.038,8.271l-14.659,65.548c-0.896,5.685-6.549,11.307-12.624,12.558L51.138,163.876
				c0.004-0.005-0.004-0.007-0.022-0.007c-0.268,0-2.723,0.433-4.823,0.626c-11.972-0.722-12.708-16.623-16.349-32.937
				c-4.215-18.891-8.129-36.434-12.314-55.189c-1.608-7.208-5.905-20.12-4.147-26.146c1.113-3.812,5.319-6.152,10.615-7.77
				c7.012-2.142,22.833-5.432,30.099-6.584C55.989,35.586,57.721,35.415,59.32,35.415 M59.321,23.415
				C59.32,23.415,59.32,23.415,59.321,23.415c-2.151,0-4.442,0.197-7.005,0.604c-7.402,1.174-23.832,4.549-31.725,6.959
				C10.399,34.09,4.131,39.434,1.963,46.86c-2.129,7.297-0.136,16.194,2.691,27.067c0.491,1.887,0.954,3.67,1.263,5.055
				l5.785,25.929l6.529,29.262c0.568,2.547,1.078,5.166,1.57,7.699c1.411,7.256,2.743,14.108,5.481,19.959
				c5.341,11.414,13.981,14.263,20.289,14.644c0.24,0.015,0.481,0.021,0.721,0.021c0.367,0,0.734-0.017,1.101-0.052
				c1.66-0.151,3.328-0.399,4.43-0.562c0.111-0.017,0.214-0.031,0.307-0.046c0.471-0.039,0.943-0.106,1.415-0.203l107.078-21.926
				c10.771-2.218,20.139-11.623,21.994-21.993l14.593-65.248c0.056-0.249,0.103-0.498,0.144-0.75
				c0.924-5.862-0.547-11.407-4.143-15.614c-3.598-4.209-8.836-6.527-14.75-6.527c-1.562,0-3.165,0.167-4.762,0.496l-24.658,4.975
				c-2.496-9.309-5.221-14.976-8.968-18.741c-4.206-4.229-9.894-6.375-16.901-6.376c-6.087,0-12.389,1.653-17.451,2.981
				c-1.689,0.443-3.287,0.862-4.591,1.145l-19.208,4.162l-3.682,0.798c-2.297-3.367-5.602-6.903-11.434-8.609
				C64.524,23.738,62.077,23.415,59.321,23.415L59.321,23.415z"/>
		</g>
	</g>
</g>
<g id="outline_x5F_black">
	<g>
		<g>
			<path d="M59.32,35.415c1.51,0,2.902,0.153,4.116,0.507c4.489,1.313,5.34,5.158,9.115,10.604
				c10.114-2.191,19.56-4.239,31.119-6.743c5.543-1.201,13.188-3.854,19.5-3.854c3.342,0,6.312,0.744,8.396,2.84
				c2.59,2.603,4.634,8.35,6.357,15.219c0.501,1.996,1.258,5.191,2.163,9.106l36.032-7.271c0.816-0.168,1.599-0.249,2.34-0.249
				c4.771,0,7.814,3.352,7.038,8.271l-14.659,65.548c-0.896,5.685-6.549,11.307-12.624,12.558L51.138,163.876
				c0.004-0.005-0.004-0.007-0.022-0.007c-0.268,0-2.723,0.433-4.823,0.626c-11.972-0.722-12.708-16.623-16.349-32.937
				c-4.215-18.891-8.129-36.434-12.314-55.189c-1.608-7.208-5.905-20.12-4.147-26.146c1.113-3.812,5.319-6.152,10.615-7.77
				c7.012-2.142,22.833-5.432,30.099-6.584C55.989,35.586,57.721,35.415,59.32,35.415 M59.32,29.415L59.32,29.415
				c-1.832,0-3.815,0.173-6.063,0.53c-7.322,1.161-23.527,4.516-30.912,6.771c-3.033,0.926-12.263,3.745-14.622,11.826
				c-1.699,5.825,0.148,13.911,2.739,23.876c0.504,1.939,0.98,3.771,1.312,5.258l5.578,25l6.736,30.19
				c0.586,2.628,1.104,5.288,1.604,7.86c1.338,6.881,2.602,13.381,5.026,18.562c3.285,7.021,8.403,10.786,15.215,11.196
				c0.12,0.007,0.24,0.011,0.36,0.011c0.184,0,0.367-0.009,0.55-0.024c1.495-0.139,3.063-0.371,4.102-0.525
				c0.211-0.03,0.393-0.059,0.535-0.078c0.286-0.018,0.574-0.055,0.861-0.112l107.078-21.926
				c8.526-1.756,15.929-9.166,17.313-17.291l14.621-65.382c0.027-0.124,0.053-0.249,0.071-0.375
				c0.646-4.101-0.339-7.929-2.774-10.78c-2.439-2.854-6.059-4.426-10.189-4.426c-1.156,0-2.352,0.125-3.551,0.373l-30.307,6.115
				c-0.344-1.442-0.631-2.624-0.858-3.535c-2.328-9.274-4.772-14.823-7.925-17.991c-3.04-3.057-7.297-4.607-12.648-4.608
				c-5.312,0-10.953,1.479-15.929,2.785c-1.755,0.46-3.412,0.895-4.843,1.205l-19.17,4.153l-7.856,1.703
				c-0.091-0.152-0.181-0.304-0.271-0.455c-2.095-3.536-4.469-7.543-9.982-9.156C63.396,29.659,61.499,29.415,59.32,29.415
				L59.32,29.415L59.32,29.415z"/>
		</g>
	</g>
</g>
</svg>
