<?xml version="1.0" encoding="utf-8"?>
<!-- Generator: Adobe Illustrator 15.0.0, SVG Export Plug-In . SVG Version: 6.00 Build 0)  -->
<!DOCTYPE svg PUBLIC "-//W3C//DTD SVG 1.1//EN" "http://www.w3.org/Graphics/SVG/1.1/DTD/svg11.dtd">
<svg version="1.1" xmlns="http://www.w3.org/2000/svg" xmlns:xlink="http://www.w3.org/1999/xlink" x="0px" y="0px" width="200px"
	 height="200px" viewBox="0 0 200 200" enable-background="new 0 0 200 200" xml:space="preserve">
<g id="icon">
	<g id="Layer_2">
	</g>
	<g id="Layer_1_1_">
		<g>
			
				<linearGradient id="SVGID_1_" gradientUnits="userSpaceOnUse" x1="223.1797" y1="700.626" x2="166.458" y2="590.3926" gradientTransform="matrix(1 0 0 1 -100 -591)">
				<stop  offset="0.1779" style="stop-color:#FFFFFF"/>
				<stop  offset="0.7914" style="stop-color:#687D9F"/>
			</linearGradient>
			<polygon fill="url(#SVGID_1_)" points="132.277,33.233 160.723,53.131 68.306,100.294 39.276,76.023 64.854,64.254 
				72.935,71.274 72.673,60.657 104.441,46.04 112.449,54.199 113.355,41.938 			"/>
			
				<linearGradient id="SVGID_2_" gradientUnits="userSpaceOnUse" x1="191.3535" y1="662.9814" x2="267.1607" y2="798.9286" gradientTransform="matrix(1 0 0 1 -100 -591)">
				<stop  offset="0.3129" style="stop-color:#FFFFFF"/>
				<stop  offset="1" style="stop-color:#687D9F"/>
			</linearGradient>
			<polygon fill="url(#SVGID_2_)" points="68.306,100.294 68.805,174.799 157.258,125.468 160.723,53.131 			"/>
			
				<rect x="135.604" y="36.507" transform="matrix(0.436 0.9 -0.9 0.436 118.6279 -96.128)" opacity="0.2" fill="#1E2B38" enable-background="new    " width="0.802" height="20.14"/>
			
				<linearGradient id="SVGID_3_" gradientUnits="userSpaceOnUse" x1="100.9229" y1="762.2148" x2="266.1847" y2="619.7014" gradientTransform="matrix(1 0 0 1 -100 -591)">
				<stop  offset="0" style="stop-color:#6A7D95"/>
				<stop  offset="1" style="stop-color:#6D7D9D"/>
			</linearGradient>
			<polygon fill="url(#SVGID_3_)" points="39.276,76.023 42.198,149.535 68.805,174.799 68.306,100.294 			"/>
			
				<linearGradient id="SVGID_4_" gradientUnits="userSpaceOnUse" x1="160.4961" y1="664.9326" x2="150.2367" y2="678.856" gradientTransform="matrix(1.0102 -0.0029 0.1148 0.9896 -114.9827 -592.2267)">
				<stop  offset="0" style="stop-color:#FF0000"/>
				<stop  offset="0.1674" style="stop-color:#F60000"/>
				<stop  offset="0.4388" style="stop-color:#DE0000"/>
				<stop  offset="0.7785" style="stop-color:#B70000"/>
				<stop  offset="1" style="stop-color:#9A0000"/>
			</linearGradient>
			<path fill="url(#SVGID_4_)" d="M138.043,55.302c-0.787,0.424-1.982,0.357-2.664-0.146l-12.031-8.98
				c-0.693-0.519-0.602-1.256,0.205-1.645l7.713-3.731c0.805-0.391,2.021-0.287,2.715,0.231l11.781,8.545
				c0.687,0.505,0.603,1.258-0.188,1.682L138.043,55.302z"/>
			
				<linearGradient id="SVGID_5_" gradientUnits="userSpaceOnUse" x1="194.4092" y1="641.1191" x2="189.3255" y2="651.8212" gradientTransform="matrix(1 0 0 1 -100 -591)">
				<stop  offset="0" style="stop-color:#FF0000"/>
				<stop  offset="0.1674" style="stop-color:#F60000"/>
				<stop  offset="0.4388" style="stop-color:#DE0000"/>
				<stop  offset="0.7785" style="stop-color:#B70000"/>
				<stop  offset="1" style="stop-color:#9A0000"/>
			</linearGradient>
			<path fill="url(#SVGID_5_)" d="M80.138,39.454c9.192-3.958,32.659-14.062,32.659-14.062c2.406-1.035,4.547,0.485,4.547,0.485
				l9.145,5.261c0,0-2.116-1.219-4.859-0.198l-33.25,15.067c-4.365,2.03-6.391,6.357-6.391,6.357l-8.586-6.576
				C73.401,45.788,75.423,41.483,80.138,39.454z"/>
			
				<linearGradient id="SVGID_6_" gradientUnits="userSpaceOnUse" x1="183.3105" y1="646.2764" x2="177.9592" y2="652.9656" gradientTransform="matrix(1 0 0 1 -100 -591)">
				<stop  offset="0" style="stop-color:#C20A00"/>
				<stop  offset="1" style="stop-color:#860A00"/>
			</linearGradient>
			<path fill="url(#SVGID_6_)" d="M73.452,45.757c0,0-1.014,1.812-1.014,5.424l0.496,20.094l8.146,8.63l-0.203-23.643
				c0-1.819,1.16-3.929,1.16-3.929L73.452,45.757z"/>
			
				<linearGradient id="SVGID_7_" gradientUnits="userSpaceOnUse" x1="212.4365" y1="631.0049" x2="233.2259" y2="668.287" gradientTransform="matrix(1 0 0 1 -100 -591)">
				<stop  offset="0" style="stop-color:#C20A00"/>
				<stop  offset="1" style="stop-color:#860A00"/>
			</linearGradient>
			<polygon fill="url(#SVGID_7_)" points="120.604,40.479 119.625,60.744 112.449,54.199 113.055,43.899 			"/>
			
				<linearGradient id="SVGID_8_" gradientUnits="userSpaceOnUse" x1="193.3418" y1="627.5508" x2="226.422" y2="686.8745" gradientTransform="matrix(1 0 0 1 -100.0566 -591.0791)">
				<stop  offset="0" style="stop-color:#FF0000"/>
				<stop  offset="0.1674" style="stop-color:#F60000"/>
				<stop  offset="0.4388" style="stop-color:#DE0000"/>
				<stop  offset="0.7785" style="stop-color:#B70000"/>
				<stop  offset="1" style="stop-color:#9A0000"/>
			</linearGradient>
			<path fill="url(#SVGID_8_)" d="M120.979,31.233c-8.846,4.009-23.65,10.719-32.603,14.775c-4.527,2.051-7.529,6.545-7.494,10.79
				c0.078,9.019,0.199,23.105,0.199,23.105l7.586-3.771c0,0-0.072-10.203-0.117-16.425c-0.02-2.728,1.294-5.292,3.408-6.25
				c6.275-2.842,19.481-8.827,25.517-11.562c1.934-0.874,3.037,0.461,2.91,3.074c-0.287,5.97-0.76,15.774-0.76,15.774l6.951-3.455
				c0,0,0.779-13.261,1.289-21.961C128.115,31.078,125.377,29.241,120.979,31.233z"/>
			<g>
				
					<radialGradient id="SVGID_9_" cx="219.0635" cy="602.8486" r="81.3756" gradientTransform="matrix(1 0 0 1 -100 -591)" gradientUnits="userSpaceOnUse">
					<stop  offset="0" style="stop-color:#FF723A"/>
					<stop  offset="1" style="stop-color:#FF723A;stop-opacity:0"/>
				</radialGradient>
				<path fill="url(#SVGID_9_)" d="M88.376,47.186c8.95-4.056,23.757-10.767,32.603-14.774c4.021-1.822,6.647-0.435,6.879,3.064
					c0.004-0.049,0.006-0.099,0.01-0.147c0.25-4.25-2.488-6.087-6.889-4.095c-8.846,4.009-23.65,10.719-32.603,14.775
					c-4.527,2.051-7.529,6.545-7.494,10.79c0.004,0.31,0.006,0.627,0.009,0.947C80.962,53.569,83.929,49.199,88.376,47.186z"/>
				
					<radialGradient id="SVGID_10_" cx="219.0615" cy="602.8486" r="81.3765" gradientTransform="matrix(1 0 0 1 -100 -591)" gradientUnits="userSpaceOnUse">
					<stop  offset="0" style="stop-color:#FF723A"/>
					<stop  offset="1" style="stop-color:#000000"/>
				</radialGradient>
				<path fill="url(#SVGID_10_)" d="M120.375,45.211c-0.289,5.99-0.75,15.533-0.75,15.533l0.059-0.029
					c0.135-2.801,0.477-9.869,0.701-14.568C120.402,45.812,120.396,45.5,120.375,45.211z"/>
				
					<radialGradient id="SVGID_11_" cx="219.165" cy="602.8535" r="81.4226" gradientTransform="matrix(1 0 0 1 -100 -591)" gradientUnits="userSpaceOnUse">
					<stop  offset="0" style="stop-color:#FF723A"/>
					<stop  offset="1" style="stop-color:#000000"/>
				</radialGradient>
				<path fill="url(#SVGID_11_)" d="M88.55,60.886c0.035,4.944,0.088,12.398,0.109,15.252l0.008-0.005c0,0-0.064-9.132-0.109-15.384
					C88.558,60.795,88.55,60.839,88.55,60.886z"/>
			</g>
			<polygon opacity="0.2" fill="#1E2B38" enable-background="new    " points="53.64,160.786 52.708,86.672 76.64,75.025 
				76.991,75.747 53.519,87.171 54.442,160.775 			"/>
			
				<rect x="101.507" y="48.395" transform="matrix(0.4372 0.8994 -0.8994 0.4372 114.166 -56.1001)" opacity="0.2" fill="#1E2B38" enable-background="new    " width="0.804" height="29.555"/>
			
				<linearGradient id="SVGID_12_" gradientUnits="userSpaceOnUse" x1="150.5469" y1="691.6523" x2="139.309" y2="706.9037" gradientTransform="matrix(1 0 0 1 -100 -591)">
				<stop  offset="0" style="stop-color:#FF0000"/>
				<stop  offset="0.1674" style="stop-color:#F60000"/>
				<stop  offset="0.4388" style="stop-color:#DE0000"/>
				<stop  offset="0.7785" style="stop-color:#B70000"/>
				<stop  offset="1" style="stop-color:#9A0000"/>
			</linearGradient>
			<path fill="url(#SVGID_12_)" d="M67.589,89.606c-0.906,0.469-2.191,0.391-2.869-0.171l-11.906-9.973
				c-0.686-0.576-0.495-1.391,0.428-1.818l8.827-4.103c0.921-0.43,2.227-0.311,2.913,0.264l11.69,9.491
				c0.679,0.56,0.493,1.393-0.412,1.858L67.589,89.606z"/>
			<g>
				
					<linearGradient id="SVGID_13_" gradientUnits="userSpaceOnUse" x1="546.4971" y1="1328.6113" x2="556.241" y2="1373.7877" gradientTransform="matrix(0.9238 -0.3796 -0.1728 1.1535 -158.5711 -1229.8408)">
					<stop  offset="0" style="stop-color:#FF0000"/>
					<stop  offset="0.1674" style="stop-color:#F60000"/>
					<stop  offset="0.4388" style="stop-color:#DE0000"/>
					<stop  offset="0.7785" style="stop-color:#B70000"/>
					<stop  offset="1" style="stop-color:#9A0000"/>
				</linearGradient>
				<path fill="url(#SVGID_13_)" d="M136.777,93.589l-12.029,6.217l0.109-14.494c0.02-1.91-1.219-2.854-2.768-2.102l-8.562,4.191
					c-1.551,0.765-2.859,2.998-2.914,4.979l-0.383,15.047l-12.162,6.483c-1.6,0.857-2.965,3.211-3.046,5.25l-0.424,11.199
					c-0.073,2.021,1.197,2.896,2.833,1.967l12.433-7.033l-0.229,14.732c-0.023,1.923,1.307,2.679,2.967,1.69l9.164-5.409
					c1.657-0.977,2.99-3.261,2.979-5.107l-0.043-14.186l12.303-6.771c1.609-0.878,2.885-3.046,2.85-4.849l-0.179-9.979
					C139.65,93.604,138.354,92.781,136.777,93.589z"/>
				
					<linearGradient id="SVGID_14_" gradientUnits="userSpaceOnUse" x1="546.4971" y1="1328.6113" x2="556.241" y2="1373.7877" gradientTransform="matrix(0.9238 -0.3796 -0.1728 1.1535 -158.5711 -1229.8408)">
					<stop  offset="0" style="stop-color:#FF0000"/>
					<stop  offset="0.1674" style="stop-color:#F60000"/>
					<stop  offset="0.4388" style="stop-color:#DE0000"/>
					<stop  offset="0.7785" style="stop-color:#B70000"/>
					<stop  offset="1" style="stop-color:#9A0000"/>
				</linearGradient>
				<path fill="url(#SVGID_14_)" d="M136.777,93.589l-12.029,6.217l0.109-14.494c0.02-1.91-1.219-2.854-2.768-2.102l-8.562,4.191
					c-1.551,0.765-2.859,2.998-2.914,4.979l-0.383,15.047l-12.162,6.483c-1.6,0.857-2.965,3.211-3.046,5.25l-0.424,11.199
					c-0.073,2.021,1.197,2.896,2.833,1.967l12.433-7.033l-0.229,14.732c-0.023,1.923,1.307,2.679,2.967,1.69l9.164-5.409
					c1.657-0.977,2.99-3.261,2.979-5.107l-0.043-14.186l12.303-6.771c1.609-0.878,2.885-3.046,2.85-4.849l-0.179-9.979
					C139.65,93.604,138.354,92.781,136.777,93.589z"/>
			</g>
		</g>
	</g>
</g>
<g id="outline_x5F_white">
	<g>
		<g>
			<path fill="#FFFFFF" d="M114.548,25.032c1.604,0,2.796,0.846,2.796,0.846l8.646,4.975c0.084,0.044,0.17,0.089,0.248,0.144
				l0.25,0.143c0,0-0.062-0.035-0.172-0.086c1.088,0.766,1.65,2.215,1.551,4.21l4.41-2.029l12.402,8.676l0.199-0.096l0.176,0.359
				l15.668,10.958l-3.467,72.337L68.804,174.8L54.04,160.779l-0.4,0.007l-0.006-0.394l-11.436-10.857l-2.921-73.512l25.578-11.77
				l8.08,7.021L72.439,51.18c0-3.343,0.859-5.123,0.988-5.373l-0.025-0.02c0,0,2.021-4.305,6.736-6.334
				c9.192-3.958,32.659-14.062,32.659-14.062C113.408,25.13,114.002,25.032,114.548,25.032 M112.449,54.199l0.605-10.3l0.16-0.074
				c-2.289,1.038-4.91,2.227-7.576,3.434L112.449,54.199 M114.549,13.032C114.548,13.032,114.548,13.032,114.549,13.032
				c-2.246,0-4.431,0.45-6.494,1.337L75.392,28.433C66.925,32.077,63.2,39.28,62.54,40.688c-0.184,0.39-0.344,0.786-0.482,1.186
				c-0.782,1.994-1.619,5.107-1.619,9.307c0,0.099,0.001,0.197,0.003,0.296l0.04,1.602c-0.216,0.084-0.431,0.176-0.643,0.273
				L34.26,65.122c-4.414,2.031-7.167,6.523-6.975,11.378l2.921,73.512c0.125,3.123,1.462,6.074,3.728,8.228l9.76,9.267
				c0.976,1.442,2.257,2.659,3.749,3.562l13.098,12.437c2.287,2.171,5.262,3.298,8.266,3.298c1.999,0,4.01-0.498,5.841-1.52
				l88.454-49.331c3.621-2.021,5.942-5.765,6.143-9.906l3.465-72.337c0.195-4.116-1.73-8.046-5.107-10.408l-14.176-9.913
				c-1.027-1.044-2.23-1.878-3.537-2.477l-10.73-7.509c-1.77-1.237-3.805-1.953-5.885-2.125c-0.018-0.012-0.033-0.024-0.049-0.036
				l-0.021,0.03c-0.051-0.004-0.1-0.007-0.15-0.011l0.066-0.094c-0.243-0.17-0.473-0.318-0.686-0.448l0,0l-0.021-0.013
				c-0.221-0.133-0.42-0.247-0.602-0.345l-8.228-4.733C121.934,14.595,118.736,13.032,114.549,13.032L114.549,13.032z"/>
		</g>
	</g>
</g>
<g id="outline_x5F_black">
	<g>
		<path d="M114.548,25.032c1.604,0,2.796,0.846,2.796,0.846l8.646,4.975c0.084,0.044,0.17,0.089,0.248,0.144l0.25,0.143
			c0,0-0.062-0.035-0.172-0.086c1.088,0.766,1.65,2.215,1.551,4.21l4.41-2.029l12.402,8.676l0.199-0.096l0.176,0.359l15.668,10.958
			l-3.467,72.337L68.804,174.8L54.04,160.779l-0.4,0.007l-0.006-0.394l-11.436-10.857l-2.921-73.512l25.578-11.77l8.08,7.021
			L72.439,51.18c0-3.343,0.859-5.123,0.988-5.373l-0.025-0.02c0,0,2.021-4.305,6.736-6.334c9.192-3.958,32.659-14.062,32.659-14.062
			C113.408,25.13,114.002,25.032,114.548,25.032 M112.449,54.199l0.605-10.3l0.16-0.074c-2.289,1.038-4.91,2.227-7.576,3.434
			L112.449,54.199 M114.549,19.032C114.548,19.032,114.548,19.032,114.549,19.032L114.549,19.032c-1.426,0-2.812,0.286-4.123,0.849
			L77.765,33.943c-6.614,2.847-9.488,8.643-9.794,9.294c-0.108,0.231-0.201,0.466-0.278,0.705c-0.546,1.353-1.253,3.773-1.253,7.238
			c0,0.049,0,0.099,0.002,0.148l0.177,7.19c-0.572-0.175-1.167-0.265-1.764-0.265c-0.85,0-1.705,0.18-2.507,0.549L36.77,70.572
			c-2.207,1.016-3.584,3.262-3.487,5.688l2.921,73.514c0.062,1.562,0.73,3.037,1.864,4.113l10.317,9.795
			c0.598,1.084,1.521,1.961,2.634,2.502l13.656,12.967c1.143,1.084,2.631,1.646,4.133,1.646c1,0,2.005-0.249,2.921-0.76
			l88.455-49.331c1.812-1.01,2.971-2.883,3.069-4.953l3.465-72.337c0.099-2.058-0.866-4.023-2.555-5.204l-14.706-10.285
			c-0.675-0.796-1.536-1.387-2.484-1.74l-11.254-7.872c-1.025-0.717-2.229-1.083-3.438-1.083c-0.378,0-0.755,0.036-1.13,0.107
			c-0.482-0.511-0.965-0.903-1.379-1.194l-1.703,2.42l-0.148,0.069l0.107-0.191l1.654-2.363c-0.076-0.053-0.148-0.103-0.222-0.149
			l0.003-0.005l-0.111-0.062c-0.184-0.113-0.342-0.202-0.461-0.265l-8.397-4.833C119.557,20.17,117.396,19.032,114.549,19.032
			L114.549,19.032L114.549,19.032z"/>
	</g>
</g>
</svg>
