<?xml version="1.0" encoding="utf-8"?>
<!-- Generator: Adobe Illustrator 15.0.0, SVG Export Plug-In . SVG Version: 6.00 Build 0)  -->
<!DOCTYPE svg PUBLIC "-//W3C//DTD SVG 1.1//EN" "http://www.w3.org/Graphics/SVG/1.1/DTD/svg11.dtd">
<svg version="1.1" xmlns="http://www.w3.org/2000/svg" xmlns:xlink="http://www.w3.org/1999/xlink" x="0px" y="0px" width="200px"
	 height="200px" viewBox="0 0 200 200" enable-background="new 0 0 200 200" xml:space="preserve">
<g id="icon">
	<g id="Layer_2">
	</g>
	<g>
		<g>
			<path fill="#FFFFFF" stroke="#000000" stroke-miterlimit="10" d="M123.376,32.663c1.651,0,2.962,0.527,3.822,1.938
				c0.625,1.025,3.073,5.229,3.143,6.029c6.349,14.238,20.718,67.406,22.396,76.986c1.785,4.524-3.854,5.129-9.67,7.512l-1.836,0.72
				c0,0,3.851,8.194,5.278,13.204c1.429,5.011,3.412,12.216-1.797,16.347c-2.032,1.611-4.987,2.168-8.675,2.168
				c-7.57,0-18.225-2.346-30.305-2.707c-0.779-0.022-1.556-0.033-2.332-0.033c-22.692,0-43.354,9.677-43.354,9.677
				c-2.043,0.837-4.222,1.236-6.308,1.236c-3.851,0-7.383-1.361-9.149-3.839c-2.627-3.688-30.107-78.827-26.738-86.05
				c0.732-2.447,3.171-4.799,6.594-6.473c0,0,21.802-10.326,44.604-19.092c21.509-8.268,44.096-15.004,44.096-15.004
				C117.159,34.03,120.714,32.663,123.376,32.663"/>
		</g>
		<polygon fill="none" stroke="#FFFFFF" stroke-width="12" stroke-linejoin="round" stroke-miterlimit="10" points="133.335,42.415 
			150.579,30.679 182.434,107.318 156.327,120.251 		"/>
		
			<linearGradient id="SVGID_1_" gradientUnits="userSpaceOnUse" x1="165.0459" y1="708.3389" x2="140.2627" y2="716.8428" gradientTransform="matrix(1 0 0 1 -100.0342 -591.0723)">
			<stop  offset="0" style="stop-color:#A65200"/>
			<stop  offset="0.2081" style="stop-color:#A15000"/>
			<stop  offset="0.4536" style="stop-color:#934900"/>
			<stop  offset="0.7169" style="stop-color:#7B3D00"/>
			<stop  offset="0.8182" style="stop-color:#703800"/>
			<stop  offset="1" style="stop-color:#7F3F00"/>
		</linearGradient>
		<path fill="url(#SVGID_1_)" d="M152.734,117.616c-1.678-9.58-16.047-62.748-22.396-76.986c-0.067-0.801-2.519-5.004-3.144-6.029
			c-2.245-3.682-7.545-1.348-14.055,0.68c0,0-22.584,6.736-44.095,15.004c-22.8,8.765-44.602,19.091-44.602,19.091
			c-3.423,1.674-5.861,4.025-6.594,6.473c-3.367,7.223,24.113,82.361,26.74,86.051c2.723,3.816,9.643,4.982,15.457,2.602
			c0,0,22.094-10.35,45.686-9.643c17.963,0.539,32.771,5.463,38.979,0.539c5.209-4.131,3.226-11.336,1.797-16.348
			c-1.43-5.01-5.278-13.203-5.278-13.203l1.836-0.721C148.88,122.745,154.521,122.143,152.734,117.616z"/>
		
			<linearGradient id="SVGID_2_" gradientUnits="userSpaceOnUse" x1="176.6523" y1="748.0059" x2="190.6522" y2="673.0067" gradientTransform="matrix(1 0 0 1 -100 -591)">
			<stop  offset="0" style="stop-color:#703800"/>
			<stop  offset="1" style="stop-color:#703800;stop-opacity:0"/>
		</linearGradient>
		<path fill="url(#SVGID_2_)" d="M152.734,117.616c-1.678-9.58-16.047-62.748-22.396-76.986c-0.067-0.801-2.519-5.004-3.144-6.029
			c-2.245-3.682-7.209,2.844-13.719,4.871c0,0-21.625,5.451-43.133,13.721C47.541,61.957,26.6,72.798,26.6,72.798
			c-3.423,1.674-3.902,3.334-4.635,5.781c-3.369,7.223,21.883,75.205,24.512,78.894c2.721,3.819,7.935,4.883,13.75,2.5
			c0,0,20.908-9.457,44.5-8.75c17.963,0.538,31.543,5.422,37.75,0.5c5.209-4.132,0.457-7.785-0.972-12.796
			c-1.43-5.01-5.278-13.204-5.278-13.204l6.836-0.595C148.88,122.745,154.521,122.143,152.734,117.616z"/>
		
			<linearGradient id="SVGID_3_" gradientUnits="userSpaceOnUse" x1="183.1309" y1="640.6777" x2="187.7554" y2="730.5203" gradientTransform="matrix(1 0 0 1 -100 -591)">
			<stop  offset="0" style="stop-color:#A65200"/>
			<stop  offset="0.2544" style="stop-color:#A15000"/>
			<stop  offset="0.5544" style="stop-color:#934900"/>
			<stop  offset="0.8762" style="stop-color:#7B3D00"/>
			<stop  offset="1" style="stop-color:#703800"/>
		</linearGradient>
		<path fill="url(#SVGID_3_)" d="M147.943,123.845c-3.047,2.505-9.34,4.908-9.34,4.908s-15.508-45.145-19.58-52.211
			c0,0-9.978-7.705-41.31-4.598C48.737,74.817,37.12,82.171,37.12,82.171c-8.496,3.934-13.689,1.102-15.152-3.592l0.24,0.479
			c-1.557-1.916,0.315-5.576,5.574-8.148c0,0,21.117-9.473,42.564-17.717c20.23-7.777,40.863-14.354,40.863-14.354
			c5.654-2.172,11.678-4.598,13.652-1.453c0,0,6.26,14.66,11.826,33.289c6.707,22.447,12.934,49.576,12.934,49.576
			S150.146,122.032,147.943,123.845z"/>
		
			<linearGradient id="SVGID_4_" gradientUnits="userSpaceOnUse" x1="182.9629" y1="672.9775" x2="175.4579" y2="629.8096" gradientTransform="matrix(1 0 0 1 -100 -591)">
			<stop  offset="0" style="stop-color:#A65200"/>
			<stop  offset="0.2373" style="stop-color:#A95702"/>
			<stop  offset="0.5171" style="stop-color:#B16508"/>
			<stop  offset="0.8172" style="stop-color:#BF7D12"/>
			<stop  offset="1" style="stop-color:#C98F1A"/>
		</linearGradient>
		<path fill="url(#SVGID_4_)" d="M27.648,74.747c0,0,21.118-9.475,42.564-17.719c20.23-7.775,40.862-14.352,40.862-14.352
			c5.654-2.174,11.678-4.598,13.654-1.455c0,0,5.213,12.713,10.777,31.342c6.705,22.445,12.936,49.576,12.936,49.576
			s0.15,0.533-0.064,1.312c1.691-1.668,1.244-3.201,1.244-3.201s-6.227-27.129-12.934-49.576
			c-5.566-18.629-11.826-33.289-11.826-33.289c-1.975-3.145-7.998-0.719-13.652,1.453c0,0-20.633,6.576-40.863,14.354
			c-21.447,8.244-42.564,17.717-42.564,17.717c-3.217,1.574-5.16,3.553-5.832,5.291C22.968,75.013,25.56,75.769,27.648,74.747z"/>
		
			<linearGradient id="SVGID_5_" gradientUnits="userSpaceOnUse" x1="219.5098" y1="666.541" x2="236.5101" y2="638.5403" gradientTransform="matrix(1 0 0 1 -100 -591)">
			<stop  offset="0" style="stop-color:#629158"/>
			<stop  offset="0.1206" style="stop-color:#75A067"/>
			<stop  offset="0.3647" style="stop-color:#96BA80"/>
			<stop  offset="0.5985" style="stop-color:#AECD92"/>
			<stop  offset="0.8158" style="stop-color:#BCD89D"/>
			<stop  offset="1" style="stop-color:#C1DCA1"/>
		</linearGradient>
		<path fill="url(#SVGID_5_)" d="M68.371,68.579c0,0,14.057-5.133,25.147-12.035c21.154-13.162,29.638-25.506,29.638-25.506
			l42.751,59.275l-25.687,21.557l-13.83-34.308c0,0-3.724-6.683-11.484-8.892C108.979,66.984,98.912,63.526,68.371,68.579z"/>
		
			<linearGradient id="SVGID_6_" gradientUnits="userSpaceOnUse" x1="1.7734" y1="966.8672" x2="73.1401" y2="966.8672" gradientTransform="matrix(0.9922 -0.1248 0.1248 0.9922 -37.2012 -877.4954)">
			<stop  offset="0" style="stop-color:#0F5700"/>
			<stop  offset="0.174" style="stop-color:#2D710E"/>
			<stop  offset="0.4032" style="stop-color:#4E8E1E"/>
			<stop  offset="0.6229" style="stop-color:#66A22A"/>
			<stop  offset="0.827" style="stop-color:#74AF31"/>
			<stop  offset="1" style="stop-color:#79B333"/>
		</linearGradient>
		<path fill="url(#SVGID_6_)" d="M83.321,66.483c0,0,5.7-1.235,16.5-8.585c17.318-11.786,22.445-18.127,22.445-18.127l36.297,53.034
			l-18.342,19.064l-13.83-34.307c0,0-3.236-5.793-10.391-8.677C110.072,67.199,102.188,64.5,83.321,66.483z"/>
		<path opacity="0.5" fill="#8DC63F" enable-background="new    " d="M91.457,59.009c21.154-13.162,31.699-25.637,31.699-25.637
			l41.701,57.822l1.05-0.881l-42.751-59.275c0,0-8.483,12.344-29.638,25.506c-11.091,6.902-25.147,12.035-25.147,12.035
			c3.81-0.82,5.196-1.338,8.358-1.857C81.269,64.667,86.642,62.005,91.457,59.009z"/>
		
			<linearGradient id="SVGID_7_" gradientUnits="userSpaceOnUse" x1="229.8516" y1="681.2129" x2="260.8522" y2="636.8785" gradientTransform="matrix(1 0 0 1 -100 -591)">
			<stop  offset="0" style="stop-color:#629158"/>
			<stop  offset="0.1206" style="stop-color:#75A067"/>
			<stop  offset="0.3647" style="stop-color:#96BA80"/>
			<stop  offset="0.5985" style="stop-color:#AECD92"/>
			<stop  offset="0.8158" style="stop-color:#BCD89D"/>
			<stop  offset="1" style="stop-color:#C1DCA1"/>
		</linearGradient>
		<path fill="url(#SVGID_7_)" d="M88.988,66.483c0,0,14.04-5.195,25.905-10.656c22.633-10.42,33.949-18.322,33.949-18.322
			l27.842,67.897l-31.545,16.185l-15.656-41.775c0,0-0.893-7.932-8.613-10.268C113.145,67.21,110.363,63.608,88.988,66.483z"/>
		
			<linearGradient id="SVGID_8_" gradientUnits="userSpaceOnUse" x1="230.375" y1="684.9951" x2="249.8531" y2="654.2402" gradientTransform="matrix(1 0 0 1 -100 -591)">
			<stop  offset="0" style="stop-color:#0F5700"/>
			<stop  offset="0.174" style="stop-color:#2D710E"/>
			<stop  offset="0.4032" style="stop-color:#4E8E1E"/>
			<stop  offset="0.6229" style="stop-color:#66A22A"/>
			<stop  offset="0.827" style="stop-color:#74AF31"/>
			<stop  offset="1" style="stop-color:#79B333"/>
		</linearGradient>
		<path fill="url(#SVGID_8_)" d="M103.048,65.758c0,0,7.166-1.232,19.031-6.693c22.633-10.42,25.045-12.952,25.045-12.952
			l23.03,56.452l-27.529,15.599l-14.559-36.44c0,0-3.254-7.597-10.323-11.786C111.875,67.438,113.145,67.21,103.048,65.758z"/>
		<path opacity="0.5" fill="#8DC63F" enable-background="new    " d="M114.229,57.827c22.633-10.42,33.948-18.322,33.948-18.322
			l27.279,66.527l1.229-0.63l-27.844-67.897c0,0-11.314,7.902-33.947,18.322c-11.865,5.461-21.489,9.017-21.489,9.017l-4.418,1.639
			C96.44,64.492,108.023,60.683,114.229,57.827z"/>
		
			<linearGradient id="SVGID_9_" gradientUnits="userSpaceOnUse" x1="149.3525" y1="660.7148" x2="132.8599" y2="666.374" gradientTransform="matrix(1 0 0 1 -100 -591)">
			<stop  offset="0" style="stop-color:#A65200"/>
			<stop  offset="0.2081" style="stop-color:#A15000"/>
			<stop  offset="0.4536" style="stop-color:#934900"/>
			<stop  offset="0.7169" style="stop-color:#7B3D00"/>
			<stop  offset="0.8182" style="stop-color:#703800"/>
			<stop  offset="1" style="stop-color:#7F3F00"/>
		</linearGradient>
		<path fill="url(#SVGID_9_)" d="M33.345,79.024c0,0-7.225,1.162-5.822-2.832c1.403-3.994,28.007-12.588,38.234-16.363
			c10.229-3.777,37.291-11.959,37.291-11.959s-8.023,9.912-28.322,17.309C54.429,72.573,33.345,79.024,33.345,79.024z"/>
		
			<linearGradient id="SVGID_10_" gradientUnits="userSpaceOnUse" x1="183.0996" y1="708.585" x2="192.3043" y2="645.8043" gradientTransform="matrix(1 0 0 1 -100 -591)">
			<stop  offset="0" style="stop-color:#A65200"/>
			<stop  offset="0.2373" style="stop-color:#A95702"/>
			<stop  offset="0.5171" style="stop-color:#B16508"/>
			<stop  offset="0.8172" style="stop-color:#BF7D12"/>
			<stop  offset="1" style="stop-color:#C98F1A"/>
		</linearGradient>
		<path fill="url(#SVGID_10_)" d="M119.688,78.159c-2.336-4.67-14.478-9.941-36.109-9.205c-10.633,0.361-12.619,0.998-29.848,5.602
			c-7.436,1.984-12.365,5.338-14.834,5.832c-3.428,0.686-7.637,3.457-9.833,2c0.089,0.268-2.348-1.057-2.167-0.832l0.834,1.166
			c2.832,3.186,10.086-0.305,15.74-2.479c0,0,9.344-4.736,29.03-6.727c35.05-3.539,45.562,6.205,45.562,6.205
			c4.07,7.064,19.092,49.771,19.092,49.771l4.367,9.086C137.036,124.184,121.718,82.22,119.688,78.159z"/>
		
			<linearGradient id="SVGID_11_" gradientUnits="userSpaceOnUse" x1="232.2979" y1="702.8281" x2="253.0628" y2="697.3069" gradientTransform="matrix(1 0 0 1 -100 -591)">
			<stop  offset="0" style="stop-color:#A65200"/>
			<stop  offset="0.2937" style="stop-color:#A15000"/>
			<stop  offset="0.64" style="stop-color:#934900"/>
			<stop  offset="1" style="stop-color:#7C3E00"/>
		</linearGradient>
		<path fill="url(#SVGID_11_)" d="M123.818,100.345c0,0,9.438-0.236,15.104,0.236c5.666,0.474,11.684,3.541,13.336,11.801
			c1.363,6.812-4.721,9.795-8.615,9.912c-2.238,0.067-12.271,0.236-12.271,0.236L123.818,100.345z"/>
		
			<linearGradient id="SVGID_12_" gradientUnits="userSpaceOnUse" x1="233.3525" y1="788.2461" x2="239.3528" y2="675.5771" gradientTransform="matrix(1 0 0 1 -100 -591)">
			<stop  offset="0" style="stop-color:#703800"/>
			<stop  offset="1" style="stop-color:#703800;stop-opacity:0"/>
		</linearGradient>
		<path fill="url(#SVGID_12_)" d="M123.818,100.345c0,0,9.438-0.236,15.104,0.236c5.666,0.474,11.684,3.541,13.336,11.801
			c1.363,6.812-4.721,9.795-8.615,9.912c-2.238,0.067-12.271,0.236-12.271,0.236L123.818,100.345z"/>
		
			<linearGradient id="SVGID_13_" gradientUnits="userSpaceOnUse" x1="236.8086" y1="702.9932" x2="244.4755" y2="692.4927" gradientTransform="matrix(1 0 0 1 -100 -591)">
			<stop  offset="0" style="stop-color:#A65200"/>
			<stop  offset="0.2373" style="stop-color:#A95702"/>
			<stop  offset="0.5171" style="stop-color:#B16508"/>
			<stop  offset="0.8172" style="stop-color:#BF7D12"/>
			<stop  offset="1" style="stop-color:#C98F1A"/>
		</linearGradient>
		<path fill="url(#SVGID_13_)" d="M138.423,102.081c5.666,0.474,11.685,3.541,13.336,11.801c0.257,1.283,0.248,2.431,0.041,3.447
			c0.613-1.351,0.853-2.984,0.459-4.947c-1.651-8.26-7.67-11.327-13.336-11.801c-5.664-0.473-12.526-0.193-12.526-0.193l0.504,1.48
			C129.473,101.823,133.872,101.702,138.423,102.081z"/>
		
			<linearGradient id="SVGID_14_" gradientUnits="userSpaceOnUse" x1="236.1328" y1="702.5176" x2="245.7266" y2="702.5176" gradientTransform="matrix(1 0 0 1 -100 -591)">
			<stop  offset="0.5951" style="stop-color:#D67300"/>
			<stop  offset="0.6625" style="stop-color:#DE8F00"/>
			<stop  offset="0.7501" style="stop-color:#E7AD00"/>
			<stop  offset="0.8367" style="stop-color:#EDC200"/>
			<stop  offset="0.9209" style="stop-color:#F1CF00"/>
			<stop  offset="1" style="stop-color:#F2D300"/>
		</linearGradient>
		<path fill="url(#SVGID_14_)" d="M145.575,111.427c0.657,2.938-0.888,5.359-3.451,5.408c-2.565,0.049-5.183-2.293-5.84-5.229
			c-0.658-2.938,0.887-5.356,3.452-5.405C142.302,106.146,144.917,108.489,145.575,111.427z"/>
		
			<linearGradient id="SVGID_15_" gradientUnits="userSpaceOnUse" x1="234.626" y1="703.8418" x2="244.2197" y2="703.8418" gradientTransform="matrix(1 0 0 1 -100 -591)">
			<stop  offset="0.4785" style="stop-color:#FFFF00"/>
			<stop  offset="0.4954" style="stop-color:#FDF700"/>
			<stop  offset="0.5216" style="stop-color:#F6E100"/>
			<stop  offset="0.5539" style="stop-color:#ECBD00"/>
			<stop  offset="0.5908" style="stop-color:#DD8C00"/>
			<stop  offset="0.6074" style="stop-color:#D67300"/>
			<stop  offset="0.6727" style="stop-color:#DE8F00"/>
			<stop  offset="0.7577" style="stop-color:#E7AD00"/>
			<stop  offset="0.8416" style="stop-color:#EDC200"/>
			<stop  offset="0.9233" style="stop-color:#F1CF00"/>
			<stop  offset="1" style="stop-color:#F2D300"/>
		</linearGradient>
		<path fill="url(#SVGID_15_)" d="M144.068,112.753c0.658,2.938-0.887,5.358-3.451,5.408c-2.566,0.049-5.182-2.291-5.84-5.229
			c-0.658-2.938,0.887-5.357,3.453-5.408C140.795,107.477,143.41,109.814,144.068,112.753z"/>
		
			<linearGradient id="SVGID_16_" gradientUnits="userSpaceOnUse" x1="242.96" y1="656.9707" x2="261.9022" y2="580.8029" gradientTransform="matrix(1 0 0 1 -100 -591)">
			<stop  offset="0" style="stop-color:#0F5700"/>
			<stop  offset="0.174" style="stop-color:#2D710E"/>
			<stop  offset="0.4032" style="stop-color:#4E8E1E"/>
			<stop  offset="0.6229" style="stop-color:#66A22A"/>
			<stop  offset="0.827" style="stop-color:#74AF31"/>
			<stop  offset="1" style="stop-color:#79B333"/>
		</linearGradient>
		<path opacity="0.56" fill="url(#SVGID_16_)" enable-background="new    " d="M144.182,48.185l-2.354,1.061
			c0,0,0.233,2.707-0.472,4.475c-0.707,1.766-0.707,1.766-0.707,1.766l1.767,1.295l1.178-1.766l1.855,4.916l-1.017,0.662
			l0.661,1.281l4.638-1.855l-0.485-1.324l-0.841,0.176L144.182,48.185z"/>
		
			<linearGradient id="SVGID_17_" gradientUnits="userSpaceOnUse" x1="-4428.6333" y1="-2071.3657" x2="-4409.6924" y2="-2147.5278" gradientTransform="matrix(-0.997 0.0776 -0.0776 -0.997 -4411.2305 -1632.9309)">
			<stop  offset="0" style="stop-color:#0F5700"/>
			<stop  offset="0.174" style="stop-color:#2D710E"/>
			<stop  offset="0.4032" style="stop-color:#4E8E1E"/>
			<stop  offset="0.6229" style="stop-color:#66A22A"/>
			<stop  offset="0.827" style="stop-color:#74AF31"/>
			<stop  offset="1" style="stop-color:#79B333"/>
		</linearGradient>
		<path opacity="0.56" fill="url(#SVGID_17_)" enable-background="new    " d="M165.018,106.382l2.267-1.237
			c0,0-0.445-2.685,0.12-4.498c0.568-1.815,0.568-1.815,0.568-1.815l-1.861-1.154l-1.036,1.854l-2.229-4.758l0.961-0.74
			l-0.763-1.225l-4.479,2.209l0.588,1.283l0.822-0.242L165.018,106.382z"/>
		
			<linearGradient id="SVGID_18_" gradientUnits="userSpaceOnUse" x1="221.1689" y1="644.4951" x2="233.7773" y2="593.7962" gradientTransform="matrix(1 0 0 1 -100 -591)">
			<stop  offset="0" style="stop-color:#0F5700"/>
			<stop  offset="0.174" style="stop-color:#2D710E"/>
			<stop  offset="0.4032" style="stop-color:#4E8E1E"/>
			<stop  offset="0.6229" style="stop-color:#66A22A"/>
			<stop  offset="0.827" style="stop-color:#74AF31"/>
			<stop  offset="1" style="stop-color:#79B333"/>
		</linearGradient>
		<path opacity="0.23" fill="url(#SVGID_18_)" enable-background="new    " d="M120.607,48.024
			c-0.267,1.975-0.267,1.975-0.267,1.975l1.353,0.549c0.336-0.201,0.718-0.43,1.127-0.678l0.392-1.104l0.425,0.607
			c0.825-0.506,1.75-1.082,2.733-1.709l-4.312-5.988l-2.121,1.682C119.938,43.358,120.872,46.048,120.607,48.024z"/>
		
			<linearGradient id="SVGID_19_" gradientUnits="userSpaceOnUse" x1="230.7373" y1="694.0137" x2="262.9448" y2="564.5054" gradientTransform="matrix(1 0 0 1 -100 -591)">
			<stop  offset="0" style="stop-color:#0F5700"/>
			<stop  offset="0.174" style="stop-color:#2D710E"/>
			<stop  offset="0.4032" style="stop-color:#4E8E1E"/>
			<stop  offset="0.6229" style="stop-color:#66A22A"/>
			<stop  offset="0.827" style="stop-color:#74AF31"/>
			<stop  offset="1" style="stop-color:#79B333"/>
		</linearGradient>
		<path opacity="0.56" fill="url(#SVGID_19_)" enable-background="new    " d="M127.107,74.636
			c0.97,1.938,4.569,11.355,8.478,21.719c1.588,0.041,3.229,0.107,4.754,0.215c2.183,0.152,4.149,0.623,5.92,1.363
			c0.22-2.469,0.062-5.094-0.561-7.791c-2.605-11.279-12.095-19.477-21.386-18.621C125.695,72.628,126.643,73.704,127.107,74.636z"
			/>
	</g>
</g>
<g id="outline_x5F_black_1_">
	<g id="outline_x5F_black">
		<path d="M150.579,30.679l-16.042,10.918c-0.314-0.79-0.615-1.517-0.9-2.166c-0.307-0.971-1.136-2.856-3.451-6.653
			c-1.006-1.649-3.004-3.616-6.811-3.616c-2.689,0-5.607,0.947-8.986,2.044c-0.742,0.241-1.506,0.489-2.246,0.72
			c-0.228,0.068-22.961,6.87-44.351,15.091c-22.661,8.711-44.625,19.091-44.884,19.214c-4.293,2.1-7.239,5.059-8.328,8.356
			c-0.864,1.952-2.171,7.347,11.075,46.728c5.904,17.552,14.215,39.99,16.085,42.617c2.369,3.321,6.855,5.305,12,5.305
			c2.604,0,5.243-0.519,7.633-1.497l0.158-0.068c0.207-0.097,21.571-9.989,44.096-9.313c6.163,0.186,12.049,0.912,17.241,1.555
			c5.015,0.62,9.346,1.154,13.168,1.154c4.886,0,8.333-0.93,10.851-2.926c7.1-5.631,4.426-15.011,2.987-20.051
			c-0.899-3.156-2.653-7.39-3.937-10.32c0.617-0.226,1.231-0.439,1.836-0.649c3.535-1.229,6.873-2.392,8.244-5.384
			c0.231-0.506,0.383-1.028,0.471-1.565l25.945-12.853L150.579,30.679z M117.303,37.622c0.09-0.029,0.178-0.057,0.268-0.085
			c3.849-3.975,5.587-6.498,5.587-6.498l8.923,12.372c0,0-1.257,0.917-3.421,2.378c0.032,0.089,0.065,0.172,0.1,0.262
			c-2.64,1.81-6.233,4.127-10.392,6.423c-2.869,1.584-5.609,3.037-8.186,4.363c-0.021,0.01-0.039,0.021-0.06,0.031
			c-0.071,0.037-0.151,0.077-0.226,0.115c-6.191,3.18-11.361,5.582-14.87,7.145c-2.651-0.325-5.117-0.436-7.204-0.239
			c-3.828,0.362-7.444,0.757-10.973,1.232c4.891-2.145,11.146-5.141,16.667-8.577c5.894-3.667,10.801-7.27,14.819-10.561
			C111.959,42.918,115.01,39.979,117.303,37.622z M151.463,117.979c-0.636,1.082-1.529,1.947-2.535,2.611
			c-0.002,0.001-0.004,0.002-0.006,0.003c-0.326,0.216-0.664,0.407-1.008,0.58c-0.016,0.009-0.03,0.017-0.046,0.022
			c-0.679,0.338-1.382,0.592-2.072,0.771c-0.073,0.02-0.146,0.034-0.218,0.053c-0.26,0.062-0.518,0.111-0.77,0.152
			c-0.084,0.014-0.17,0.028-0.252,0.039c-0.313,0.042-0.621,0.072-0.914,0.081c-0.598,0.019-1.75,0.043-3.117,0.069
			c-1.174,0.023-2.5,0.049-3.779,0.072l0,0c-0.191,0.004-0.387,0.008-0.575,0.01c0.172,0.502,0.335,0.979,0.491,1.434l-0.188,0.074
			l0.781,1.666c0.753,2.206,1.195,3.52,1.195,3.52s0.146-0.029,0.396-0.086c1.168,2.602,3.338,7.604,4.295,10.959
			c1.491,5.229,2.566,10.129-0.604,12.646c-1.197,0.948-3.324,1.411-6.501,1.411c-3.391,0-7.523-0.512-12.311-1.104
			c-5.344-0.66-11.4-1.408-17.89-1.604c-23.621-0.711-45.415,9.111-47.187,9.931c-1.537,0.618-3.233,0.944-4.909,0.944
			c-2.801,0-5.275-0.93-6.25-2.293c-3.433-5.646-27.968-74.569-26.401-82.756l0.115-0.334c0.338-1.13,1.771-2.862,4.739-4.314
			c0.217-0.103,21.953-10.374,44.36-18.987c20.305-7.805,41.852-14.32,43.737-14.886c-2.693,2.675-6.742,6.284-12.799,10.964
			c-9.811,7.581-19.495,12.659-26.548,15.794c-8.438,1.232-16.484,3.004-25.773,6.047c-7.312,2.396-10.621,4.406-13.925,5.9
			c-3.187,1.441-4.635,1.125-6.831-0.332c0.088,0.266,0.219,0.514,0.4,0.736c2.675,3.588,6.799,1.814,12.453-0.357
			c0,0,6.337-5.068,35.316-7.941c31.33-3.107,42.689,7.064,42.689,7.064c1.75,3.036,5.582,13.172,9.383,23.747
			c0.529-0.001,1.091-0.001,1.666,0c0.092,0,0.188,0.001,0.281,0.002c0.502,0.002,1.016,0.006,1.537,0.013
			c0.073,0,0.147,0.001,0.223,0.002c1.24,0.018,2.509,0.047,3.728,0.096c1.089,0.043,2.14,0.101,3.081,0.179
			c5.666,0.474,11.684,3.541,13.336,11.801C152.716,114.671,152.32,116.52,151.463,117.979z M157.693,115.146l-0.604,0.31
			c0.209-1.582,0.079-3.377-0.585-5.435c-2.481-7.683-7.789-12.861-16.168-13.453c-1.94-0.137-4.069-0.207-6.038-0.241
			c-4.039-10.548-7.736-20.061-8.689-21.966c-1.111-2.222-17.902-8.662-30.496-10.223c0.109-0.042,0.218-0.085,0.329-0.128
			c0.199-0.078,0.402-0.158,0.608-0.239c0.118-0.047,0.236-0.093,0.357-0.141c0.299-0.118,0.604-0.239,0.917-0.362
			c0.037-0.015,0.073-0.029,0.111-0.044c0.364-0.144,0.736-0.292,1.115-0.444c0.071-0.028,0.144-0.057,0.214-0.086
			c0.305-0.122,0.615-0.246,0.928-0.373c0.101-0.04,0.202-0.081,0.303-0.122c0.313-0.126,0.63-0.255,0.952-0.385
			c0.081-0.033,0.161-0.065,0.243-0.099c0.359-0.146,0.725-0.295,1.092-0.445c0.052-0.021,0.104-0.042,0.154-0.063
			c0.426-0.175,0.856-0.353,1.293-0.533c0.022-0.01,0.047-0.02,0.069-0.029c0.396-0.164,0.796-0.33,1.196-0.498
			c0.095-0.04,0.189-0.08,0.285-0.119c0.345-0.145,0.691-0.291,1.041-0.438c0.097-0.041,0.193-0.081,0.289-0.122
			c0.375-0.159,0.752-0.318,1.129-0.479c0.064-0.028,0.129-0.055,0.193-0.083c0.885-0.378,1.773-0.763,2.662-1.152
			c0.104-0.046,0.209-0.092,0.313-0.139c0.327-0.144,0.655-0.289,0.983-0.435c0.139-0.062,0.275-0.123,0.414-0.185
			c0.31-0.138,0.617-0.276,0.924-0.415c0.127-0.057,0.254-0.114,0.379-0.171c0.431-0.194,0.857-0.389,1.281-0.584
			c5.637-2.595,10.562-5.03,14.793-7.229v0.001c2.284-1.187,4.358-2.301,6.233-3.336l0,0c7.517-4.146,11.757-6.965,12.713-7.614
			c0.007-0.003,0.013-0.007,0.017-0.011c0.06-0.04,0.104-0.071,0.138-0.093c0.002-0.002,0.008-0.005,0.01-0.007
			c0.029-0.02,0.047-0.032,0.047-0.032l27.843,67.897l-18.985,9.74L157.693,115.146z"/>
	</g>
</g>
<g id="outline_x5F_white">
	<g>
		<polygon fill="#FFFFFF" points="123.157,31.039 124.209,32.497 123.157,31.039 		"/>
		<path fill="#FFFFFF" d="M134.122,46.243l0.002,0.002c2.548-1.38,4.758-2.63,6.645-3.728c0-0.001-0.001-0.001-0.001-0.002
			c-1.429,0.832-3.043,1.75-4.851,2.748C135.34,45.581,134.737,45.909,134.122,46.243z"/>
		<path fill="#FFFFFF" d="M156.488,120.171c-0.088,0.537-0.239,1.06-0.471,1.565c-1.371,2.992-4.709,4.154-8.244,5.384
			c-0.604,0.21-1.219,0.424-1.836,0.649c1.283,2.931,3.037,7.164,3.937,10.32c1.438,5.04,4.112,14.42-2.987,20.051
			c-2.518,1.996-5.965,2.926-10.851,2.926c-3.822,0-8.153-0.534-13.168-1.154c-5.192-0.643-11.078-1.369-17.241-1.555
			c-22.525-0.676-43.889,9.217-44.096,9.313l-0.158,0.068c-2.39,0.979-5.029,1.497-7.633,1.497c-5.145,0-9.631-1.983-12-5.305
			c-1.87-2.627-10.181-25.065-16.085-42.617C12.409,81.934,13.716,76.539,14.58,74.587c1.089-3.297,4.035-6.256,8.328-8.356
			c0.259-0.123,22.223-10.503,44.884-19.214c21.389-8.221,44.123-15.023,44.351-15.091c0.74-0.231,1.504-0.479,2.246-0.72
			c3.379-1.097,6.297-2.044,8.986-2.044c3.807,0,5.805,1.967,6.811,3.616c2.315,3.797,3.145,5.682,3.451,6.653
			c0.285,0.649,0.586,1.376,0.9,2.166l4.648-3.164c-0.104-0.252-0.209-0.507-0.311-0.744c-0.479-1.463-1.537-3.743-3.995-7.775
			c-2.458-4.033-6.544-6.252-11.504-6.252c-3.56,0-7.019,1.123-10.683,2.312c-0.707,0.23-1.436,0.466-2.178,0.698
			c-1.531,0.458-23.429,7.036-44.697,15.211c-22.855,8.786-44.323,18.93-45.226,19.358c-0.034,0.016-0.067,0.032-0.101,0.049
			c-5.575,2.726-9.486,6.761-11.081,11.411c-1.377,3.471-1.339,8.296,2.126,21.418c1.988,7.53,5.068,17.541,8.905,28.948
			c2.751,8.181,13.67,39.633,16.816,44.051c3.402,4.771,9.562,7.617,16.481,7.617c3.312,0,6.674-0.659,9.721-1.907
			c0.136-0.058,0.271-0.115,0.404-0.179c0.178-0.082,19.229-8.826,39.535-8.826c0.691,0,1.387,0.01,2.062,0.029
			c5.906,0.178,11.657,0.889,16.73,1.516c4.979,0.615,9.682,1.197,13.843,1.197c3.896,0,9.614-0.428,14.269-4.118
			c9.975-7.91,6.391-20.491,4.858-25.863c-0.493-1.729-1.199-3.705-1.951-5.636c3.08-1.323,6.127-3.264,7.806-6.92
			c0.707-1.545,1.309-3.795,0.921-6.557L156.488,120.171z"/>
		
			<rect x="157.052" y="115.3" transform="matrix(0.8898 -0.4564 0.4564 0.8898 -35.2735 84.5376)" fill="#FFFFFF" width="0.68" height="0.001"/>
	</g>
</g>
</svg>
