<?xml version="1.0" encoding="utf-8"?>
<!-- Generator: Adobe Illustrator 15.0.0, SVG Export Plug-In . SVG Version: 6.00 Build 0)  -->
<!DOCTYPE svg PUBLIC "-//W3C//DTD SVG 1.1//EN" "http://www.w3.org/Graphics/SVG/1.1/DTD/svg11.dtd">
<svg version="1.1" xmlns="http://www.w3.org/2000/svg" xmlns:xlink="http://www.w3.org/1999/xlink" x="0px" y="0px" width="200px"
	 height="200px" viewBox="0 0 200 200" enable-background="new 0 0 200 200" xml:space="preserve">
<g id="icon">
	<g id="Layer_2">
	</g>
	<g>
		
			<linearGradient id="SVGID_1_" gradientUnits="userSpaceOnUse" x1="306.3779" y1="-1248.2715" x2="396.2159" y2="-1248.2715" gradientTransform="matrix(1 0 0 -1 -250 -1121)">
			<stop  offset="0" style="stop-color:#CF7900"/>
			<stop  offset="0.1273" style="stop-color:#FFC000"/>
			<stop  offset="0.2638" style="stop-color:#FFCF00"/>
			<stop  offset="0.4424" style="stop-color:#D27700"/>
			<stop  offset="0.6364" style="stop-color:#E88800"/>
			<stop  offset="0.7232" style="stop-color:#FDCA00"/>
			<stop  offset="0.8303" style="stop-color:#FFA700"/>
			<stop  offset="1" style="stop-color:#BD6A00"/>
		</linearGradient>
		<path fill="url(#SVGID_1_)" d="M99.643,89.57c27.607,0,50.97,25.069,50.97,25.069c-0.006,1.301-1.079,15.221-1.244,16.482
			c-2.557,19.018-23.846,33.852-49.721,33.852c-25.885,0-47.171-14.834-49.73-33.846c-0.17-1.27-1.031-13.271-1.031-14.57
			C48.886,116.557,72.036,89.57,99.643,89.57z"/>
		
			<linearGradient id="SVGID_2_" gradientUnits="userSpaceOnUse" x1="-1082.7515" y1="-1661.8091" x2="-1138.8956" y2="-1708.4974" gradientTransform="matrix(0.7071 -0.7071 -0.7071 -0.7071 -305.583 -1871.9753)">
			<stop  offset="0" style="stop-color:#FFAE30"/>
			<stop  offset="1" style="stop-color:#B66800"/>
		</linearGradient>
		<path fill="url(#SVGID_2_)" d="M99.647,76.195c28.146,0,50.964,17.215,50.964,38.444c0,21.235-22.817,38.445-50.964,38.445
			c-28.151,0-50.97-17.21-50.97-38.445C48.677,93.41,71.496,76.195,99.647,76.195z"/>
		
			<linearGradient id="SVGID_3_" gradientUnits="userSpaceOnUse" x1="349.7314" y1="-1232.0322" x2="348.5493" y2="-1269.8584" gradientTransform="matrix(1 0 0 -1 -250 -1121)">
			<stop  offset="0" style="stop-color:#FFCF6A"/>
			<stop  offset="1" style="stop-color:#944D00"/>
		</linearGradient>
		<path fill="url(#SVGID_3_)" d="M99.647,81.726c24.096,0,43.632,14.311,43.632,31.963c0,17.649-19.536,31.963-43.632,31.963
			c-24.102,0-43.632-14.312-43.632-31.963C56.016,96.037,75.546,81.726,99.647,81.726z"/>
		
			<radialGradient id="SVGID_4_" cx="-1083.6855" cy="-1717.4365" r="61.7288" gradientTransform="matrix(0.7071 -0.7071 -0.7071 -0.7071 -305.583 -1871.9753)" gradientUnits="userSpaceOnUse">
			<stop  offset="0" style="stop-color:#FFA800"/>
			<stop  offset="1" style="stop-color:#944D00"/>
		</radialGradient>
		<path fill="url(#SVGID_4_)" d="M99.647,81.726c-24.106,0-43.637,14.311-43.637,31.965c0,0.424,0.023,0.848,0.038,1.271
			c0.918-17.062,20.084-30.688,43.599-30.688s42.671,13.626,43.585,30.688c0.022-0.419,0.047-0.847,0.047-1.271
			C143.279,96.037,123.743,81.726,99.647,81.726z"/>
		
			<linearGradient id="SVGID_5_" gradientUnits="userSpaceOnUse" x1="-1122.5664" y1="-1698.6187" x2="-1128.0839" y2="-1706.8938" gradientTransform="matrix(0.7071 -0.7071 -0.7071 -0.7071 -305.583 -1871.9753)">
			<stop  offset="0" style="stop-color:#FFCF6A"/>
			<stop  offset="1" style="stop-color:#944D00"/>
		</linearGradient>
		<path fill="url(#SVGID_5_)" d="M131.525,121.773c0.181,0.4-0.01,1.572-0.521,3.508c-0.028,0.053-0.235,0.593-0.644,1.631
			c-0.271,0.73-0.506,1.207-0.719,1.436c-2.313-0.826-5.275-1.854-8.881-3.093l-0.304-0.116c-2.039,2.172-4.755,3.844-8.166,5.025
			c-3.397,1.176-6.151,1.361-8.237,0.557c-1.67-0.646-2.65-1.24-2.918-1.785c-0.517-0.976-0.354-2.859,0.5-5.65
			c0.512-0.053,1.127,0.047,1.852,0.297c0.502,0.167,1.188,0.438,2.049,0.831c0.923,0.438,1.504,0.704,1.755,0.8
			c3.416,1.318,6.149,0.571,8.194-2.229l-1.745-1.002c-1.282-0.498-4.831-1.918-10.66-4.27c-3.165-1.306-6.16-2.455-9.003-3.468
			c-3.019,1.958-5.304,3.224-6.846,3.785c-2.815,1.012-5.512,1.021-8.1,0.026c-3.634-1.397-4.836-5.121-3.591-11.158l-7.598-2.93
			c-0.024-0.177,0.033-0.394,0.165-0.646c0.294-0.557,0.871-1.229,1.736-2.024l2.285-2.389c0.587,0.416,0.999,0.67,1.24,0.766
			c1.608,0.592,3.18,1.204,4.703,1.856c2.115-1.923,4.75-3.541,7.892-4.847c0.075,0.037,0.297,0.101,0.672,0.206
			c0.378,0.106,0.686,0.198,0.932,0.294c1.571,0.612,2.044,1.71,1.4,3.318c-0.085,0.053-0.951,0.45-2.593,1.2
			c-1.301,0.571-2.11,1.144-2.422,1.722c-0.081,0.156-0.123,0.317-0.123,0.484l3.937,1.64c0.108,0.066,0.686,0.349,1.727,0.834
			c0.842,0.427,1.604,0.771,2.309,1.011l0.218,0.088c8.185-4.699,15.31-5.879,21.372-3.543c2.989,1.145,5.469,3.084,7.457,5.806
			c2.198,3.007,3.064,6.112,2.578,9.323C128.744,120.852,131.451,121.753,131.525,121.773z M86.419,111.08l-4.651-1.79
			c-0.076,0.599-0.119,1.302-0.104,2.123c0.303,0.892,0.691,1.415,1.155,1.595c0.44,0.176,1.188,0.069,2.247-0.291L86.419,111.08z
			 M100.116,110.471c5.114,1.971,10.021,3.898,14.737,5.801c0.459,0.194,1.539,0.578,3.266,1.129
			c0.677-3.853-1.254-6.658-5.807-8.412C108.816,107.643,104.757,108.141,100.116,110.471z"/>
		<path fill="#FFF200" d="M115.312,117.511c0.459,0.201,1.537,0.577,3.26,1.13c0.283-1.611,0.113-3.031-0.516-4.275
			c0.23,0.927,0.25,1.938,0.062,3.035c-1.731-0.551-2.806-0.928-3.265-1.125c-4.184-1.684-8.53-3.404-13.03-5.143
			c-0.411,0.178-0.827,0.365-1.259,0.572C105.688,113.682,110.602,115.607,115.312,117.511z"/>
		<path fill="#FFF200" d="M70.294,102.536l2.28-2.389c0.587,0.414,1.003,0.667,1.245,0.758c1.613,0.602,3.179,1.212,4.708,1.858
			c2.105-1.916,4.74-3.539,7.887-4.836c0.071,0.029,0.298,0.096,0.672,0.194c0.378,0.111,0.686,0.203,0.932,0.304
			c0.53,0.201,0.932,0.466,1.206,0.784c-0.009-0.921-0.554-1.6-1.67-2.024c-0.242-0.101-0.549-0.19-0.932-0.296
			c-0.369-0.105-0.591-0.169-0.671-0.206c-3.142,1.302-5.772,2.924-7.888,4.847c-1.523-0.646-3.099-1.264-4.703-1.854
			c-0.241-0.096-0.657-0.35-1.24-0.768l-2.29,2.389c-0.856,0.795-1.433,1.468-1.736,2.024c-0.132,0.254-0.179,0.471-0.165,0.645
			l0.809,0.309C69.06,103.775,69.571,103.198,70.294,102.536z"/>
		<path fill="#FFF200" d="M75.991,108.135l-0.638-0.254c-0.521,3.072-0.341,5.471,0.515,7.229
			C75.371,113.3,75.404,110.979,75.991,108.135z"/>
		<path fill="#FFF200" d="M107.283,125.206c-0.26-0.095-0.838-0.358-1.756-0.8c-0.864-0.393-1.547-0.656-2.047-0.831
			c-0.729-0.249-1.346-0.349-1.852-0.298c-0.852,2.791-1.018,4.683-0.502,5.652c0.047,0.073,0.124,0.163,0.193,0.243
			c-0.112-1.075,0.143-2.622,0.762-4.655c0.508-0.054,1.122,0.041,1.848,0.297c0.51,0.164,1.19,0.439,2.049,0.826
			c0.932,0.44,1.513,0.703,1.754,0.801c3.426,1.312,6.156,0.569,8.199-2.229l-1.013-0.586
			C112.947,125.874,110.406,126.409,107.283,125.206z"/>
		<path fill="#FFF200" d="M113.382,103.936c-6.065-2.336-13.195-1.16-21.371,3.543l-0.218-0.086
			c-0.705-0.244-1.467-0.58-2.314-1.016c-1.045-0.482-1.623-0.758-1.731-0.832l-3.062-1.275c-0.118,0.127-0.217,0.26-0.283,0.386
			c-0.085,0.159-0.128,0.329-0.128,0.493l3.932,1.638c0.109,0.067,0.69,0.349,1.737,0.831c0.842,0.429,1.599,0.769,2.304,1.012
			l0.228,0.085c8.17-4.692,15.299-5.88,21.375-3.543c2.976,1.147,5.459,3.086,7.446,5.81c0.724,0.984,1.281,1.977,1.718,2.981
			c-0.445-1.428-1.164-2.832-2.182-4.221C118.848,107.018,116.367,105.084,113.382,103.936z"/>
		<path fill="#FFF200" d="M123.871,120.307c4.145,1.383,6.693,2.23,7.664,2.555c0.076-0.529,0.072-0.901-0.01-1.088
			c-0.07-0.025-2.592-0.86-7.551-2.522C123.956,119.607,123.923,119.958,123.871,120.307z"/>
		<path fill="#FFF200" d="M82.123,112.658c0.303,0.885,0.691,1.414,1.154,1.595c0.445,0.169,1.197,0.069,2.248-0.297l1.354-1.638
			l-1.126-0.43l-0.686,0.827c-1.06,0.365-1.807,0.466-2.247,0.291c-0.256-0.094-0.483-0.306-0.691-0.62
			C82.127,112.484,82.123,112.562,82.123,112.658z"/>
		
			<linearGradient id="SVGID_6_" gradientUnits="userSpaceOnUse" x1="-1141.8789" y1="-1645.9961" x2="-1110.3658" y2="-1683.7162" gradientTransform="matrix(0.7071 -0.7071 -0.7071 -0.7071 -305.583 -1871.9753)">
			<stop  offset="0" style="stop-color:#964F00"/>
			<stop  offset="0.0606" style="stop-color:#FFA800"/>
			<stop  offset="0.1273" style="stop-color:#FFA800"/>
			<stop  offset="0.4424" style="stop-color:#944D00"/>
			<stop  offset="0.6364" style="stop-color:#9A5200"/>
			<stop  offset="0.6414" style="stop-color:#A95F00"/>
			<stop  offset="0.6523" style="stop-color:#C47500"/>
			<stop  offset="0.6649" style="stop-color:#DA8800"/>
			<stop  offset="0.6796" style="stop-color:#EB9700"/>
			<stop  offset="0.6977" style="stop-color:#F6A100"/>
			<stop  offset="0.7232" style="stop-color:#FDA600"/>
			<stop  offset="0.7939" style="stop-color:#FFA800"/>
			<stop  offset="0.8303" style="stop-color:#CF7F00"/>
			<stop  offset="1" style="stop-color:#9E5600"/>
		</linearGradient>
		<path fill="url(#SVGID_6_)" d="M88.543,102.5c0.279-0.693,0.331-1.293,0.199-1.802c-0.331,0.157-1.131,0.528-2.427,1.112
			c-1.302,0.57-2.106,1.148-2.422,1.724c-0.081,0.161-0.124,0.327-0.124,0.489l0.861,0.362c0.369-0.229,0.79-0.456,1.31-0.69
			C87.597,102.949,88.458,102.547,88.543,102.5z"/>
		
			<linearGradient id="SVGID_7_" gradientUnits="userSpaceOnUse" x1="-1148.6807" y1="-1651.5615" x2="-1117.0839" y2="-1689.3822" gradientTransform="matrix(0.7071 -0.7071 -0.7071 -0.7071 -305.583 -1871.9753)">
			<stop  offset="0" style="stop-color:#964F00"/>
			<stop  offset="0.0606" style="stop-color:#FFA800"/>
			<stop  offset="0.1273" style="stop-color:#FFA800"/>
			<stop  offset="0.4424" style="stop-color:#944D00"/>
			<stop  offset="0.6364" style="stop-color:#9A5200"/>
			<stop  offset="0.6414" style="stop-color:#A95F00"/>
			<stop  offset="0.6523" style="stop-color:#C47500"/>
			<stop  offset="0.6649" style="stop-color:#DA8800"/>
			<stop  offset="0.6796" style="stop-color:#EB9700"/>
			<stop  offset="0.6977" style="stop-color:#F6A100"/>
			<stop  offset="0.7232" style="stop-color:#FDA600"/>
			<stop  offset="0.7939" style="stop-color:#FFA800"/>
			<stop  offset="0.8303" style="stop-color:#CF7F00"/>
			<stop  offset="1" style="stop-color:#9E5600"/>
		</linearGradient>
		<path fill="url(#SVGID_7_)" d="M81.726,109.412c-0.071,0.556-0.1,1.229-0.095,1.977l3.473,1.34l1.272-1.528L81.726,109.412z"/>
		
			<linearGradient id="SVGID_8_" gradientUnits="userSpaceOnUse" x1="-1148.0312" y1="-1651.0659" x2="-1116.4764" y2="-1688.8362" gradientTransform="matrix(0.7071 -0.7071 -0.7071 -0.7071 -305.583 -1871.9753)">
			<stop  offset="0" style="stop-color:#964F00"/>
			<stop  offset="0.0606" style="stop-color:#FFA800"/>
			<stop  offset="0.1273" style="stop-color:#FFA800"/>
			<stop  offset="0.4424" style="stop-color:#944D00"/>
			<stop  offset="0.6364" style="stop-color:#9A5200"/>
			<stop  offset="0.6414" style="stop-color:#A95F00"/>
			<stop  offset="0.6523" style="stop-color:#C47500"/>
			<stop  offset="0.6649" style="stop-color:#DA8800"/>
			<stop  offset="0.6796" style="stop-color:#EB9700"/>
			<stop  offset="0.6977" style="stop-color:#F6A100"/>
			<stop  offset="0.7232" style="stop-color:#FDA600"/>
			<stop  offset="0.7939" style="stop-color:#FFA800"/>
			<stop  offset="0.8303" style="stop-color:#CF7F00"/>
			<stop  offset="1" style="stop-color:#9E5600"/>
		</linearGradient>
		<path fill="url(#SVGID_8_)" d="M118.076,117.516c0.671-3.851-1.26-6.658-5.811-8.41c-3.492-1.34-7.552-0.85-12.198,1.477
			c0.706,0.275,1.401,0.548,2.101,0.816c3.625-1.361,6.865-1.516,9.731-0.408c3.729,1.439,5.701,3.587,5.91,6.439
			C117.904,117.468,117.98,117.49,118.076,117.516z"/>
		
			<linearGradient id="SVGID_9_" gradientUnits="userSpaceOnUse" x1="-1159.8984" y1="-1661.0024" x2="-1128.3538" y2="-1698.7614" gradientTransform="matrix(0.7071 -0.7071 -0.7071 -0.7071 -305.583 -1871.9753)">
			<stop  offset="0" style="stop-color:#964F00"/>
			<stop  offset="0.0606" style="stop-color:#FFA800"/>
			<stop  offset="0.1273" style="stop-color:#FFA800"/>
			<stop  offset="0.4424" style="stop-color:#944D00"/>
			<stop  offset="0.6364" style="stop-color:#9A5200"/>
			<stop  offset="0.6414" style="stop-color:#A95F00"/>
			<stop  offset="0.6523" style="stop-color:#C47500"/>
			<stop  offset="0.6649" style="stop-color:#DA8800"/>
			<stop  offset="0.6796" style="stop-color:#EB9700"/>
			<stop  offset="0.6977" style="stop-color:#F6A100"/>
			<stop  offset="0.7232" style="stop-color:#FDA600"/>
			<stop  offset="0.7939" style="stop-color:#FFA800"/>
			<stop  offset="0.8303" style="stop-color:#CF7F00"/>
			<stop  offset="1" style="stop-color:#9E5600"/>
		</linearGradient>
		<path fill="url(#SVGID_9_)" d="M130.959,125.396c-0.027,0.047-0.241,0.594-0.645,1.637c-0.27,0.73-0.506,1.208-0.715,1.437
			c-2.316-0.827-5.279-1.858-8.89-3.1l-0.288-0.11c-2.04,2.172-4.76,3.846-8.167,5.021c-3.411,1.181-6.155,1.361-8.246,0.557
			c-1.67-0.646-2.646-1.238-2.919-1.791c-0.294-0.545-0.359-1.388-0.218-2.495c-0.535,2.093-0.586,3.56-0.157,4.38
			c0.285,0.553,1.25,1.14,2.92,1.791c2.096,0.801,4.836,0.62,8.246-0.556c3.407-1.185,6.133-2.854,8.171-5.028l0.289,0.114
			c3.609,1.24,6.566,2.271,8.89,3.092c0.209-0.223,0.445-0.702,0.715-1.424c0.402-1.045,0.619-1.584,0.645-1.639
			c0.303-1.127,0.486-1.991,0.555-2.601C131.092,124.91,131.023,125.148,130.959,125.396z"/>
		
			<linearGradient id="SVGID_10_" gradientUnits="userSpaceOnUse" x1="-1150.626" y1="-1653.2666" x2="-1119.0835" y2="-1691.0222" gradientTransform="matrix(0.7071 -0.7071 -0.7071 -0.7071 -305.583 -1871.9753)">
			<stop  offset="0" style="stop-color:#964F00"/>
			<stop  offset="0.0606" style="stop-color:#FFA800"/>
			<stop  offset="0.1273" style="stop-color:#FFA800"/>
			<stop  offset="0.4424" style="stop-color:#944D00"/>
			<stop  offset="0.6364" style="stop-color:#9A5200"/>
			<stop  offset="0.6414" style="stop-color:#A95F00"/>
			<stop  offset="0.6523" style="stop-color:#C47500"/>
			<stop  offset="0.6649" style="stop-color:#DA8800"/>
			<stop  offset="0.6796" style="stop-color:#EB9700"/>
			<stop  offset="0.6977" style="stop-color:#F6A100"/>
			<stop  offset="0.7232" style="stop-color:#FDA600"/>
			<stop  offset="0.7939" style="stop-color:#FFA800"/>
			<stop  offset="0.8303" style="stop-color:#CF7F00"/>
			<stop  offset="1" style="stop-color:#9E5600"/>
		</linearGradient>
		<path fill="url(#SVGID_10_)" d="M102.661,119.703c5.823,2.357,9.387,3.775,10.669,4.273l0.837,0.482
			c0.449-0.389,0.876-0.827,1.272-1.366l-1.746-0.995c-1.276-0.505-4.83-1.918-10.653-4.274c-3.17-1.302-6.166-2.456-9.004-3.468
			c-3.028,1.963-5.308,3.224-6.846,3.785c-2.814,1.017-5.516,1.026-8.1,0.034c-3.643-1.401-4.84-5.126-3.591-11.166l-7.064-2.717
			c-0.327,0.374-0.586,0.72-0.738,1.021c-0.143,0.262-0.189,0.478-0.17,0.654l7.608,2.924c-1.249,6.041-0.052,9.766,3.591,11.166
			c2.583,0.992,5.285,0.979,8.1-0.037c1.538-0.566,3.823-1.828,6.841-3.787C96.501,117.246,99.5,118.405,102.661,119.703z"/>
		
			<linearGradient id="SVGID_11_" gradientUnits="userSpaceOnUse" x1="306.3779" y1="-1227.0146" x2="396.2159" y2="-1227.0146" gradientTransform="matrix(1 0 0 -1 -250 -1121)">
			<stop  offset="0" style="stop-color:#CF7900"/>
			<stop  offset="0.1273" style="stop-color:#FFC000"/>
			<stop  offset="0.2638" style="stop-color:#FFCF00"/>
			<stop  offset="0.4424" style="stop-color:#D27700"/>
			<stop  offset="0.6364" style="stop-color:#E88800"/>
			<stop  offset="0.7232" style="stop-color:#FDCA00"/>
			<stop  offset="0.8303" style="stop-color:#FFA700"/>
			<stop  offset="1" style="stop-color:#BD6A00"/>
		</linearGradient>
		<path fill="url(#SVGID_11_)" d="M99.643,68.312c27.607,0,50.97,25.063,50.97,25.063c-0.006,1.301-1.079,15.221-1.244,16.492
			c-2.557,19.015-23.846,33.851-49.721,33.851c-25.885-0.005-47.171-14.841-49.73-33.851c-0.17-1.271-1.031-13.273-1.031-14.574
			C48.886,95.293,72.036,68.312,99.643,68.312z"/>
		
			<linearGradient id="SVGID_12_" gradientUnits="userSpaceOnUse" x1="-1067.7158" y1="-1646.7734" x2="-1123.863" y2="-1693.464" gradientTransform="matrix(0.7071 -0.7071 -0.7071 -0.7071 -305.583 -1871.9753)">
			<stop  offset="0" style="stop-color:#FFAE30"/>
			<stop  offset="1" style="stop-color:#B66800"/>
		</linearGradient>
		<path fill="url(#SVGID_12_)" d="M99.647,54.927c28.146,0,50.964,17.212,50.964,38.446c0,21.234-22.817,38.449-50.964,38.449
			c-28.151,0-50.97-17.215-50.97-38.449C48.677,72.139,71.496,54.927,99.647,54.927z"/>
		
			<linearGradient id="SVGID_13_" gradientUnits="userSpaceOnUse" x1="349.7295" y1="-1210.7676" x2="348.5473" y2="-1248.59" gradientTransform="matrix(1 0 0 -1 -250 -1121)">
			<stop  offset="0" style="stop-color:#FFCF6A"/>
			<stop  offset="1" style="stop-color:#944D00"/>
		</linearGradient>
		<path fill="url(#SVGID_13_)" d="M99.647,60.464c24.096,0,43.632,14.31,43.632,31.961c0,17.651-19.536,31.961-43.632,31.961
			c-24.102,0-43.632-14.31-43.632-31.961C56.015,74.774,75.546,60.464,99.647,60.464z"/>
		
			<radialGradient id="SVGID_14_" cx="-1068.6445" cy="-1702.4053" r="61.6992" gradientTransform="matrix(0.7071 -0.7071 -0.7071 -0.7071 -305.583 -1871.9753)" gradientUnits="userSpaceOnUse">
			<stop  offset="0" style="stop-color:#FFA800"/>
			<stop  offset="1" style="stop-color:#944D00"/>
		</radialGradient>
		<path fill="url(#SVGID_14_)" d="M99.647,60.464c-24.106,0-43.637,14.306-43.637,31.961c0,0.424,0.023,0.853,0.038,1.279
			c0.918-17.063,20.084-30.688,43.599-30.688s42.671,13.627,43.585,30.688c0.022-0.427,0.047-0.845,0.047-1.279
			C143.279,74.77,123.743,60.464,99.647,60.464z"/>
		
			<linearGradient id="SVGID_15_" gradientUnits="userSpaceOnUse" x1="-1107.5298" y1="-1683.5762" x2="-1113.0479" y2="-1691.8524" gradientTransform="matrix(0.7071 -0.7071 -0.7071 -0.7071 -305.583 -1871.9753)">
			<stop  offset="0" style="stop-color:#FFCF6A"/>
			<stop  offset="1" style="stop-color:#944D00"/>
		</linearGradient>
		<path fill="url(#SVGID_15_)" d="M131.525,100.52c0.181,0.396-0.01,1.566-0.521,3.506c-0.028,0.051-0.235,0.582-0.644,1.635
			c-0.271,0.729-0.506,1.205-0.719,1.432c-2.313-0.824-5.275-1.855-8.881-3.096l-0.304-0.112c-2.039,2.173-4.755,3.851-8.166,5.021
			c-3.397,1.178-6.151,1.368-8.237,0.561c-1.67-0.647-2.65-1.243-2.918-1.786c-0.517-0.976-0.354-2.863,0.5-5.652
			c0.512-0.055,1.127,0.046,1.852,0.3c0.502,0.167,1.188,0.44,2.049,0.83c0.923,0.432,1.504,0.702,1.755,0.799
			c3.416,1.315,6.149,0.573,8.194-2.229l-1.745-1.004c-1.282-0.496-4.831-1.913-10.66-4.269c-3.165-1.297-6.16-2.453-9.003-3.464
			c-3.019,1.965-5.304,3.221-6.846,3.788c-2.815,1.017-5.512,1.028-8.1,0.032c-3.634-1.399-4.836-5.123-3.591-11.166l-7.598-2.923
			c-0.024-0.176,0.033-0.392,0.165-0.652c0.294-0.553,0.871-1.231,1.736-2.013l2.285-2.398c0.587,0.418,0.999,0.673,1.24,0.768
			c1.608,0.598,3.18,1.208,4.703,1.859c2.115-1.922,4.75-3.538,7.892-4.842c0.075,0.027,0.297,0.101,0.672,0.197
			c0.378,0.109,0.686,0.204,0.932,0.3c1.571,0.606,2.044,1.712,1.4,3.307c-0.085,0.06-0.951,0.456-2.593,1.203
			c-1.301,0.572-2.11,1.149-2.422,1.721c-0.081,0.159-0.123,0.329-0.123,0.498l3.937,1.634c0.108,0.071,0.686,0.349,1.727,0.84
			c0.842,0.421,1.604,0.765,2.309,1.011l0.218,0.077c8.185-4.691,15.31-5.874,21.372-3.542c2.989,1.147,5.469,3.091,7.457,5.814
			c2.198,3.005,3.064,6.113,2.578,9.325C128.744,99.584,131.451,100.486,131.525,100.52z M86.419,89.819l-4.651-1.791
			c-0.076,0.602-0.119,1.303-0.104,2.13c0.303,0.878,0.691,1.409,1.155,1.595c0.44,0.168,1.188,0.068,2.247-0.3L86.419,89.819z
			 M100.116,89.209c5.114,1.968,10.021,3.899,14.737,5.8c0.459,0.195,1.539,0.58,3.266,1.131c0.677-3.854-1.254-6.658-5.807-8.408
			C108.816,86.386,104.757,86.874,100.116,89.209z"/>
		<path fill="#FFF200" d="M115.312,96.244c0.459,0.201,1.537,0.583,3.26,1.133c0.283-1.61,0.113-3.036-0.516-4.279
			c0.23,0.932,0.25,1.938,0.062,3.04c-1.731-0.55-2.806-0.932-3.265-1.133c-4.184-1.678-8.53-3.395-13.03-5.132
			c-0.411,0.178-0.827,0.36-1.259,0.573C105.688,92.414,110.602,94.353,115.312,96.244z"/>
		<path fill="#FFF200" d="M70.294,81.277l2.28-2.396c0.587,0.413,1.003,0.673,1.245,0.768c1.613,0.599,3.179,1.208,4.708,1.857
			c2.105-1.921,4.74-3.536,7.887-4.839c0.071,0.032,0.298,0.098,0.672,0.196c0.378,0.111,0.686,0.201,0.932,0.296
			c0.53,0.207,0.932,0.477,1.206,0.794c-0.009-0.926-0.554-1.605-1.67-2.033c-0.242-0.096-0.549-0.191-0.932-0.299
			c-0.369-0.101-0.591-0.171-0.671-0.197c-3.142,1.303-5.772,2.919-7.888,4.84c-1.523-0.641-3.099-1.258-4.703-1.857
			c-0.241-0.096-0.657-0.352-1.24-0.768l-2.29,2.396c-0.856,0.787-1.433,1.462-1.736,2.016c-0.132,0.262-0.179,0.474-0.165,0.651
			l0.809,0.304C69.06,82.517,69.571,81.938,70.294,81.277z"/>
		<path fill="#FFF200" d="M75.991,86.869l-0.638-0.25c-0.521,3.062-0.341,5.472,0.515,7.23
			C75.371,92.038,75.404,89.713,75.991,86.869z"/>
		<path fill="#FFF200" d="M107.283,103.943c-0.26-0.094-0.838-0.363-1.756-0.799c-0.864-0.387-1.547-0.662-2.047-0.832
			c-0.729-0.256-1.346-0.354-1.852-0.295c-0.852,2.791-1.018,4.676-0.502,5.65c0.047,0.074,0.124,0.161,0.193,0.239
			c-0.112-1.071,0.143-2.617,0.762-4.651c0.508-0.059,1.122,0.042,1.848,0.291c0.51,0.172,1.19,0.445,2.049,0.831
			c0.932,0.44,1.513,0.71,1.754,0.806c3.426,1.313,6.156,0.572,8.199-2.234l-1.018-0.582
			C112.947,104.607,110.406,105.148,107.283,103.943z"/>
		<path fill="#FFF200" d="M113.382,82.668c-6.065-2.336-13.195-1.156-21.371,3.542l-0.218-0.08
			c-0.705-0.248-1.467-0.587-2.314-1.013c-1.045-0.485-1.623-0.761-1.731-0.84l-3.062-1.271c-0.118,0.127-0.217,0.26-0.283,0.387
			c-0.085,0.159-0.128,0.323-0.128,0.49l3.932,1.639c0.109,0.064,0.69,0.344,1.737,0.832c0.842,0.435,1.599,0.773,2.304,1.007
			l0.228,0.09c8.17-4.701,15.299-5.878,21.375-3.542c2.976,1.144,5.459,3.083,7.446,5.81c0.724,0.985,1.281,1.975,1.718,2.979
			c-0.445-1.422-1.164-2.828-2.182-4.219C118.848,85.755,116.367,83.817,113.382,82.668z"/>
		<path fill="#FFF200" d="M123.871,99.046c4.145,1.383,6.693,2.231,7.664,2.56c0.076-0.535,0.072-0.9-0.01-1.086
			c-0.07-0.026-2.592-0.873-7.551-2.527C123.956,98.344,123.923,98.69,123.871,99.046z"/>
		<path fill="#FFF200" d="M82.123,91.398c0.303,0.878,0.691,1.411,1.154,1.593c0.445,0.17,1.197,0.069,2.248-0.296l1.354-1.637
			l-1.126-0.435l-0.686,0.829c-1.06,0.368-1.807,0.468-2.247,0.3c-0.256-0.101-0.483-0.314-0.691-0.62
			C82.127,91.223,82.123,91.302,82.123,91.398z"/>
		
			<linearGradient id="SVGID_16_" gradientUnits="userSpaceOnUse" x1="-1126.8438" y1="-1630.9629" x2="-1095.3334" y2="-1668.6796" gradientTransform="matrix(0.7071 -0.7071 -0.7071 -0.7071 -305.583 -1871.9753)">
			<stop  offset="0" style="stop-color:#964F00"/>
			<stop  offset="0.0606" style="stop-color:#FFA800"/>
			<stop  offset="0.1273" style="stop-color:#FFA800"/>
			<stop  offset="0.4424" style="stop-color:#944D00"/>
			<stop  offset="0.6364" style="stop-color:#9A5200"/>
			<stop  offset="0.6414" style="stop-color:#A95F00"/>
			<stop  offset="0.6523" style="stop-color:#C47500"/>
			<stop  offset="0.6649" style="stop-color:#DA8800"/>
			<stop  offset="0.6796" style="stop-color:#EB9700"/>
			<stop  offset="0.6977" style="stop-color:#F6A100"/>
			<stop  offset="0.7232" style="stop-color:#FDA600"/>
			<stop  offset="0.7939" style="stop-color:#FFA800"/>
			<stop  offset="0.8303" style="stop-color:#CF7F00"/>
			<stop  offset="1" style="stop-color:#9E5600"/>
		</linearGradient>
		<path fill="url(#SVGID_16_)" d="M88.543,81.233c0.279-0.695,0.331-1.293,0.199-1.796c-0.331,0.158-1.131,0.524-2.427,1.118
			c-1.302,0.572-2.106,1.144-2.422,1.721c-0.081,0.16-0.124,0.323-0.124,0.487l0.861,0.365c0.369-0.233,0.79-0.455,1.31-0.688
			C87.597,81.684,88.458,81.286,88.543,81.233z"/>
		
			<linearGradient id="SVGID_17_" gradientUnits="userSpaceOnUse" x1="-1133.6289" y1="-1636.5459" x2="-1102.0607" y2="-1674.3326" gradientTransform="matrix(0.7071 -0.7071 -0.7071 -0.7071 -305.583 -1871.9753)">
			<stop  offset="0" style="stop-color:#964F00"/>
			<stop  offset="0.0606" style="stop-color:#FFA800"/>
			<stop  offset="0.1273" style="stop-color:#FFA800"/>
			<stop  offset="0.4424" style="stop-color:#944D00"/>
			<stop  offset="0.6364" style="stop-color:#9A5200"/>
			<stop  offset="0.6414" style="stop-color:#A95F00"/>
			<stop  offset="0.6523" style="stop-color:#C47500"/>
			<stop  offset="0.6649" style="stop-color:#DA8800"/>
			<stop  offset="0.6796" style="stop-color:#EB9700"/>
			<stop  offset="0.6977" style="stop-color:#F6A100"/>
			<stop  offset="0.7232" style="stop-color:#FDA600"/>
			<stop  offset="0.7939" style="stop-color:#FFA800"/>
			<stop  offset="0.8303" style="stop-color:#CF7F00"/>
			<stop  offset="1" style="stop-color:#9E5600"/>
		</linearGradient>
		<path fill="url(#SVGID_17_)" d="M81.726,88.145c-0.071,0.562-0.1,1.233-0.095,1.986l3.473,1.34l1.272-1.535L81.726,88.145z"/>
		
			<linearGradient id="SVGID_18_" gradientUnits="userSpaceOnUse" x1="-1132.9976" y1="-1636.0356" x2="-1101.4441" y2="-1673.8042" gradientTransform="matrix(0.7071 -0.7071 -0.7071 -0.7071 -305.583 -1871.9753)">
			<stop  offset="0" style="stop-color:#964F00"/>
			<stop  offset="0.0606" style="stop-color:#FFA800"/>
			<stop  offset="0.1273" style="stop-color:#FFA800"/>
			<stop  offset="0.4424" style="stop-color:#944D00"/>
			<stop  offset="0.6364" style="stop-color:#9A5200"/>
			<stop  offset="0.6414" style="stop-color:#A95F00"/>
			<stop  offset="0.6523" style="stop-color:#C47500"/>
			<stop  offset="0.6649" style="stop-color:#DA8800"/>
			<stop  offset="0.6796" style="stop-color:#EB9700"/>
			<stop  offset="0.6977" style="stop-color:#F6A100"/>
			<stop  offset="0.7232" style="stop-color:#FDA600"/>
			<stop  offset="0.7939" style="stop-color:#FFA800"/>
			<stop  offset="0.8303" style="stop-color:#CF7F00"/>
			<stop  offset="1" style="stop-color:#9E5600"/>
		</linearGradient>
		<path fill="url(#SVGID_18_)" d="M118.076,96.26c0.671-3.862-1.26-6.659-5.811-8.417c-3.492-1.34-7.552-0.848-12.198,1.483
			c0.706,0.275,1.401,0.537,2.101,0.811c3.625-1.357,6.865-1.51,9.731-0.404c3.729,1.432,5.701,3.576,5.91,6.441
			C117.904,96.201,117.98,96.223,118.076,96.26z"/>
		
			<linearGradient id="SVGID_19_" gradientUnits="userSpaceOnUse" x1="-1144.8652" y1="-1645.9692" x2="-1113.3217" y2="-1683.7264" gradientTransform="matrix(0.7071 -0.7071 -0.7071 -0.7071 -305.583 -1871.9753)">
			<stop  offset="0" style="stop-color:#964F00"/>
			<stop  offset="0.0606" style="stop-color:#FFA800"/>
			<stop  offset="0.1273" style="stop-color:#FFA800"/>
			<stop  offset="0.4424" style="stop-color:#944D00"/>
			<stop  offset="0.6364" style="stop-color:#9A5200"/>
			<stop  offset="0.6414" style="stop-color:#A95F00"/>
			<stop  offset="0.6523" style="stop-color:#C47500"/>
			<stop  offset="0.6649" style="stop-color:#DA8800"/>
			<stop  offset="0.6796" style="stop-color:#EB9700"/>
			<stop  offset="0.6977" style="stop-color:#F6A100"/>
			<stop  offset="0.7232" style="stop-color:#FDA600"/>
			<stop  offset="0.7939" style="stop-color:#FFA800"/>
			<stop  offset="0.8303" style="stop-color:#CF7F00"/>
			<stop  offset="1" style="stop-color:#9E5600"/>
		</linearGradient>
		<path fill="url(#SVGID_19_)" d="M130.959,104.136c-0.027,0.054-0.241,0.593-0.645,1.632c-0.27,0.735-0.506,1.213-0.715,1.437
			c-2.316-0.826-5.279-1.854-8.89-3.095l-0.288-0.113c-2.04,2.175-4.76,3.844-8.167,5.02c-3.411,1.176-6.155,1.365-8.246,0.557
			c-1.67-0.641-2.646-1.24-2.919-1.78c-0.294-0.55-0.359-1.387-0.218-2.505c-0.535,2.102-0.586,3.566-0.157,4.386
			c0.285,0.546,1.25,1.14,2.92,1.785c2.096,0.812,4.836,0.622,8.246-0.556c3.407-1.178,6.133-2.854,8.171-5.02l0.289,0.11
			c3.609,1.245,6.566,2.272,8.89,3.096c0.209-0.228,0.445-0.706,0.715-1.437c0.402-1.037,0.619-1.582,0.645-1.633
			c0.303-1.131,0.486-1.994,0.555-2.599C131.092,103.645,131.023,103.885,130.959,104.136z"/>
		
			<linearGradient id="SVGID_20_" gradientUnits="userSpaceOnUse" x1="-1135.6011" y1="-1638.2236" x2="-1104.0533" y2="-1675.9856" gradientTransform="matrix(0.7071 -0.7071 -0.7071 -0.7071 -305.583 -1871.9753)">
			<stop  offset="0" style="stop-color:#964F00"/>
			<stop  offset="0.0606" style="stop-color:#FFA800"/>
			<stop  offset="0.1273" style="stop-color:#FFA800"/>
			<stop  offset="0.4424" style="stop-color:#944D00"/>
			<stop  offset="0.6364" style="stop-color:#9A5200"/>
			<stop  offset="0.6414" style="stop-color:#A95F00"/>
			<stop  offset="0.6523" style="stop-color:#C47500"/>
			<stop  offset="0.6649" style="stop-color:#DA8800"/>
			<stop  offset="0.6796" style="stop-color:#EB9700"/>
			<stop  offset="0.6977" style="stop-color:#F6A100"/>
			<stop  offset="0.7232" style="stop-color:#FDA600"/>
			<stop  offset="0.7939" style="stop-color:#FFA800"/>
			<stop  offset="0.8303" style="stop-color:#CF7F00"/>
			<stop  offset="1" style="stop-color:#9E5600"/>
		</linearGradient>
		<path fill="url(#SVGID_20_)" d="M102.661,98.441c5.823,2.353,9.387,3.784,10.669,4.271l0.837,0.483
			c0.449-0.391,0.876-0.824,1.272-1.364l-1.746-1c-1.276-0.493-4.83-1.918-10.653-4.269c-3.17-1.298-6.166-2.458-9.004-3.467
			c-3.028,1.96-5.308,3.224-6.846,3.79c-2.814,1.012-5.516,1.022-8.1,0.026c-3.643-1.402-4.84-5.119-3.591-11.157l-7.064-2.717
			c-0.327,0.376-0.586,0.721-0.738,1.022c-0.143,0.254-0.189,0.472-0.17,0.649l7.608,2.929c-1.249,6.041-0.052,9.764,3.591,11.159
			c2.583,0.996,5.285,0.985,8.1-0.031c1.538-0.567,3.823-1.822,6.841-3.787C96.501,95.989,99.5,97.139,102.661,98.441z"/>
		
			<linearGradient id="SVGID_21_" gradientUnits="userSpaceOnUse" x1="306.3779" y1="-1205.7539" x2="396.2159" y2="-1205.7539" gradientTransform="matrix(1 0 0 -1 -250 -1121)">
			<stop  offset="0" style="stop-color:#CF7900"/>
			<stop  offset="0.1273" style="stop-color:#FFC000"/>
			<stop  offset="0.2638" style="stop-color:#FFCF00"/>
			<stop  offset="0.4424" style="stop-color:#D27700"/>
			<stop  offset="0.6364" style="stop-color:#E88800"/>
			<stop  offset="0.7232" style="stop-color:#FDCA00"/>
			<stop  offset="0.8303" style="stop-color:#FFA700"/>
			<stop  offset="1" style="stop-color:#BD6A00"/>
		</linearGradient>
		<path fill="url(#SVGID_21_)" d="M99.643,47.054c27.607,0,50.97,25.063,50.97,25.063c-0.006,1.302-1.079,15.226-1.244,16.492
			c-2.557,19.019-23.846,33.844-49.721,33.844c-25.885,0-47.171-14.831-49.73-33.844c-0.17-1.266-1.031-13.272-1.031-14.574
			C48.886,74.031,72.036,47.054,99.643,47.054z"/>
		
			<linearGradient id="SVGID_22_" gradientUnits="userSpaceOnUse" x1="-1505.8813" y1="-1109.8525" x2="-1521.0225" y2="-1089.8668" gradientTransform="matrix(0.7071 -0.7071 -0.7071 -0.7071 -305.583 -1871.9753)">
			<stop  offset="0" style="stop-color:#FFDE00"/>
			<stop  offset="1" style="stop-color:#C77400"/>
		</linearGradient>
		<path fill="url(#SVGID_22_)" d="M99.647,33.67c28.146,0,50.964,17.213,50.964,38.446c0,21.235-22.817,38.45-50.964,38.45
			c-28.151,0-50.97-17.215-50.97-38.45C48.677,50.884,71.496,33.67,99.647,33.67z"/>
		
			<linearGradient id="SVGID_23_" gradientUnits="userSpaceOnUse" x1="451.5596" y1="-1322.7451" x2="490.3239" y2="-1372.4124" gradientTransform="matrix(1 0 0 -1 -250 -1121)">
			<stop  offset="0" style="stop-color:#FFDE00"/>
			<stop  offset="1" style="stop-color:#C77400"/>
		</linearGradient>
		<path fill="url(#SVGID_23_)" d="M99.647,39.208c24.096,0,43.632,14.309,43.632,31.961c0,17.649-19.536,31.961-43.632,31.961
			c-24.102,0-43.632-14.312-43.632-31.961C56.016,53.517,75.546,39.208,99.647,39.208z"/>
		
			<radialGradient id="SVGID_24_" cx="-1053.6104" cy="-1687.373" r="61.7073" gradientTransform="matrix(0.7071 -0.7071 -0.7071 -0.7071 -305.583 -1871.9753)" gradientUnits="userSpaceOnUse">
			<stop  offset="0" style="stop-color:#FFA800"/>
			<stop  offset="1" style="stop-color:#944D00"/>
		</radialGradient>
		<path fill="url(#SVGID_24_)" d="M99.647,39.208C75.541,39.202,56.01,53.511,56.01,71.166c0,0.426,0.023,0.851,0.038,1.272
			c0.918-17.058,20.084-30.686,43.599-30.686s42.671,13.628,43.585,30.692c0.022-0.427,0.047-0.852,0.047-1.278
			C143.279,53.511,123.743,39.202,99.647,39.208z"/>
		
			<linearGradient id="SVGID_25_" gradientUnits="userSpaceOnUse" x1="-1092.4971" y1="-1668.5479" x2="-1098.0144" y2="-1676.8224" gradientTransform="matrix(0.7071 -0.7071 -0.7071 -0.7071 -305.583 -1871.9753)">
			<stop  offset="0" style="stop-color:#FFDE00"/>
			<stop  offset="1" style="stop-color:#C77400"/>
		</linearGradient>
		<path fill="url(#SVGID_25_)" d="M131.525,79.257c0.181,0.397-0.01,1.565-0.521,3.506c-0.028,0.051-0.235,0.583-0.644,1.628
			c-0.271,0.729-0.506,1.206-0.719,1.434c-2.313-0.827-5.275-1.855-8.881-3.094l-0.304-0.111c-2.039,2.172-4.755,3.84-8.166,5.022
			c-3.397,1.173-6.151,1.36-8.237,0.55c-1.67-0.64-2.65-1.24-2.918-1.785c-0.517-0.973-0.354-2.855,0.5-5.652
			c0.512-0.058,1.127,0.051,1.852,0.297c0.502,0.169,1.188,0.445,2.049,0.826c0.923,0.44,1.504,0.707,1.755,0.805
			c3.416,1.311,6.149,0.567,8.194-2.227l-1.745-1.006c-1.282-0.49-4.831-1.917-10.66-4.265c-3.165-1.304-6.16-2.455-9.003-3.469
			c-3.019,1.961-5.304,3.222-6.846,3.791c-2.815,1.013-5.512,1.025-8.1,0.029c-3.634-1.403-4.836-5.126-3.591-11.164l-7.598-2.929
			c-0.024-0.174,0.033-0.394,0.165-0.648c0.294-0.554,0.871-1.231,1.736-2.021l2.285-2.389c0.587,0.417,0.999,0.673,1.24,0.769
			c1.608,0.59,3.18,1.211,4.703,1.853c2.115-1.925,4.75-3.533,7.892-4.84c0.075,0.03,0.297,0.095,0.672,0.2
			c0.378,0.104,0.686,0.199,0.932,0.298c1.571,0.608,2.044,1.709,1.4,3.314c-0.085,0.052-0.951,0.451-2.593,1.202
			c-1.301,0.572-2.11,1.145-2.422,1.722c-0.081,0.158-0.123,0.321-0.123,0.488l3.937,1.639c0.108,0.07,0.686,0.35,1.727,0.832
			c0.842,0.432,1.604,0.773,2.309,1.015l0.218,0.084c8.185-4.698,15.31-5.882,21.372-3.539c2.989,1.144,5.469,3.082,7.457,5.812
			c2.198,2.999,3.064,6.107,2.578,9.322C128.744,78.325,131.451,79.226,131.525,79.257z M86.419,68.557l-4.651-1.786
			c-0.076,0.595-0.119,1.303-0.104,2.128c0.303,0.878,0.691,1.41,1.155,1.589c0.44,0.173,1.188,0.071,2.247-0.299L86.419,68.557z
			 M100.116,67.948c5.114,1.969,10.021,3.903,14.737,5.802c0.459,0.199,1.539,0.577,3.266,1.131
			c0.677-3.856-1.254-6.664-5.807-8.414C108.816,65.123,104.757,65.611,100.116,67.948z"/>
		<path fill="#FFF200" d="M115.312,74.986c0.459,0.199,1.537,0.577,3.26,1.131c0.283-1.613,0.113-3.038-0.516-4.282
			c0.23,0.928,0.25,1.94,0.062,3.042c-1.731-0.553-2.806-0.932-3.265-1.131c-4.184-1.685-8.53-3.397-13.03-5.138
			c-0.411,0.179-0.827,0.363-1.259,0.577C105.688,71.151,110.602,73.082,115.312,74.986z"/>
		<path fill="#FFF200" d="M70.294,60.012l2.28-2.389c0.587,0.414,1.003,0.673,1.245,0.766c1.613,0.598,3.179,1.208,4.708,1.85
			c2.105-1.917,4.74-3.533,7.887-4.835c0.071,0.027,0.298,0.101,0.672,0.199c0.378,0.105,0.686,0.199,0.932,0.297
			c0.53,0.204,0.932,0.468,1.206,0.784c-0.009-0.922-0.554-1.598-1.67-2.026c-0.242-0.1-0.549-0.194-0.932-0.298
			c-0.369-0.105-0.591-0.17-0.671-0.201c-3.142,1.309-5.772,2.916-7.888,4.842c-1.523-0.643-3.099-1.263-4.703-1.855
			c-0.241-0.095-0.657-0.35-1.24-0.767l-2.29,2.388c-0.856,0.792-1.433,1.468-1.736,2.021c-0.132,0.255-0.179,0.474-0.165,0.647
			l0.809,0.308C69.06,61.25,69.571,60.676,70.294,60.012z"/>
		<path fill="#FFF200" d="M75.991,65.609l-0.638-0.252c-0.521,3.067-0.341,5.476,0.515,7.236
			C75.371,70.778,75.404,68.45,75.991,65.609z"/>
		<path fill="#FFF200" d="M107.283,82.684c-0.26-0.095-0.838-0.365-1.756-0.805c-0.864-0.381-1.547-0.651-2.047-0.826
			c-0.729-0.252-1.346-0.353-1.852-0.297c-0.852,2.796-1.018,4.683-0.502,5.652c0.047,0.079,0.124,0.164,0.193,0.243
			c-0.112-1.069,0.143-2.616,0.762-4.656c0.508-0.055,1.122,0.048,1.848,0.297c0.51,0.169,1.19,0.442,2.049,0.832
			c0.932,0.44,1.513,0.704,1.754,0.799c3.426,1.317,6.156,0.567,8.199-2.229l-1.018-0.584
			C112.947,83.346,110.406,83.883,107.283,82.684z"/>
		<path fill="#FFF200" d="M113.382,61.413c-6.065-2.343-13.195-1.158-21.371,3.541l-0.218-0.085
			c-0.705-0.241-1.467-0.583-2.314-1.015c-1.045-0.481-1.623-0.762-1.731-0.833l-3.062-1.27c-0.118,0.126-0.217,0.253-0.283,0.388
			c-0.085,0.157-0.128,0.322-0.128,0.488l3.932,1.637c0.109,0.071,0.69,0.352,1.737,0.834c0.842,0.432,1.599,0.772,2.304,1.014
			l0.228,0.085c8.17-4.698,15.299-5.878,21.375-3.54c2.976,1.145,5.459,3.08,7.446,5.807c0.724,0.984,1.281,1.976,1.718,2.979
			c-0.445-1.423-1.164-2.833-2.182-4.216C118.848,64.491,116.367,62.555,113.382,61.413z"/>
		<path fill="#FFF200" d="M123.871,77.785c4.145,1.382,6.693,2.229,7.664,2.553c0.076-0.526,0.072-0.9-0.01-1.08
			c-0.07-0.032-2.592-0.869-7.551-2.522C123.956,77.08,123.923,77.43,123.871,77.785z"/>
		<path fill="#FFF200" d="M82.123,70.134c0.303,0.883,0.691,1.412,1.154,1.59c0.445,0.171,1.197,0.071,2.248-0.298l1.354-1.632
			l-1.126-0.43l-0.686,0.823c-1.06,0.369-1.807,0.472-2.247,0.297c-0.256-0.099-0.483-0.311-0.691-0.621
			C82.127,69.961,82.123,70.043,82.123,70.134z"/>
		
			<linearGradient id="SVGID_26_" gradientUnits="userSpaceOnUse" x1="-1111.8071" y1="-1615.9302" x2="-1080.3015" y2="-1653.6416" gradientTransform="matrix(0.7071 -0.7071 -0.7071 -0.7071 -305.583 -1871.9753)">
			<stop  offset="0" style="stop-color:#964F00"/>
			<stop  offset="0.0606" style="stop-color:#FFA800"/>
			<stop  offset="0.1273" style="stop-color:#FFA800"/>
			<stop  offset="0.4424" style="stop-color:#944D00"/>
			<stop  offset="0.6364" style="stop-color:#9A5200"/>
			<stop  offset="0.6414" style="stop-color:#A95F00"/>
			<stop  offset="0.6523" style="stop-color:#C47500"/>
			<stop  offset="0.6649" style="stop-color:#DA8800"/>
			<stop  offset="0.6796" style="stop-color:#EB9700"/>
			<stop  offset="0.6977" style="stop-color:#F6A100"/>
			<stop  offset="0.7232" style="stop-color:#FDA600"/>
			<stop  offset="0.7939" style="stop-color:#FFA800"/>
			<stop  offset="0.8303" style="stop-color:#CF7F00"/>
			<stop  offset="1" style="stop-color:#9E5600"/>
		</linearGradient>
		<path fill="url(#SVGID_26_)" d="M88.543,59.973c0.279-0.694,0.331-1.294,0.199-1.796c-0.331,0.156-1.131,0.522-2.427,1.11
			c-1.302,0.575-2.106,1.151-2.422,1.723c-0.081,0.161-0.124,0.328-0.124,0.492l0.861,0.362c0.369-0.225,0.79-0.459,1.31-0.692
			C87.597,60.421,88.458,60.019,88.543,59.973z"/>
		
			<linearGradient id="SVGID_27_" gradientUnits="userSpaceOnUse" x1="-1118.5884" y1="-1621.5278" x2="-1087.0315" y2="-1659.3009" gradientTransform="matrix(0.7071 -0.7071 -0.7071 -0.7071 -305.583 -1871.9753)">
			<stop  offset="0" style="stop-color:#964F00"/>
			<stop  offset="0.0606" style="stop-color:#FFA800"/>
			<stop  offset="0.1273" style="stop-color:#FFA800"/>
			<stop  offset="0.4424" style="stop-color:#944D00"/>
			<stop  offset="0.6364" style="stop-color:#9A5200"/>
			<stop  offset="0.6414" style="stop-color:#A95F00"/>
			<stop  offset="0.6523" style="stop-color:#C47500"/>
			<stop  offset="0.6649" style="stop-color:#DA8800"/>
			<stop  offset="0.6796" style="stop-color:#EB9700"/>
			<stop  offset="0.6977" style="stop-color:#F6A100"/>
			<stop  offset="0.7232" style="stop-color:#FDA600"/>
			<stop  offset="0.7939" style="stop-color:#FFA800"/>
			<stop  offset="0.8303" style="stop-color:#CF7F00"/>
			<stop  offset="1" style="stop-color:#9E5600"/>
		</linearGradient>
		<path fill="url(#SVGID_27_)" d="M81.726,66.889c-0.071,0.56-0.1,1.232-0.095,1.986l3.473,1.34l1.272-1.539L81.726,66.889z"/>
		
			<linearGradient id="SVGID_28_" gradientUnits="userSpaceOnUse" x1="-1117.958" y1="-1621.0005" x2="-1086.4036" y2="-1658.7695" gradientTransform="matrix(0.7071 -0.7071 -0.7071 -0.7071 -305.583 -1871.9753)">
			<stop  offset="0" style="stop-color:#964F00"/>
			<stop  offset="0.0606" style="stop-color:#FFA800"/>
			<stop  offset="0.1273" style="stop-color:#FFA800"/>
			<stop  offset="0.4424" style="stop-color:#944D00"/>
			<stop  offset="0.6364" style="stop-color:#9A5200"/>
			<stop  offset="0.6414" style="stop-color:#A95F00"/>
			<stop  offset="0.6523" style="stop-color:#C47500"/>
			<stop  offset="0.6649" style="stop-color:#DA8800"/>
			<stop  offset="0.6796" style="stop-color:#EB9700"/>
			<stop  offset="0.6977" style="stop-color:#F6A100"/>
			<stop  offset="0.7232" style="stop-color:#FDA600"/>
			<stop  offset="0.7939" style="stop-color:#FFA800"/>
			<stop  offset="0.8303" style="stop-color:#CF7F00"/>
			<stop  offset="1" style="stop-color:#9E5600"/>
		</linearGradient>
		<path fill="url(#SVGID_28_)" d="M118.076,74.992c0.671-3.852-1.26-6.658-5.811-8.41c-3.492-1.346-7.552-0.852-12.198,1.48
			c0.706,0.272,1.401,0.541,2.101,0.814c3.625-1.361,6.865-1.511,9.731-0.411c3.729,1.436,5.701,3.584,5.91,6.44
			C117.904,74.932,117.98,74.968,118.076,74.992z"/>
		
			<linearGradient id="SVGID_29_" gradientUnits="userSpaceOnUse" x1="-1129.8271" y1="-1630.939" x2="-1098.2832" y2="-1668.6956" gradientTransform="matrix(0.7071 -0.7071 -0.7071 -0.7071 -305.583 -1871.9753)">
			<stop  offset="0" style="stop-color:#964F00"/>
			<stop  offset="0.0606" style="stop-color:#FFA800"/>
			<stop  offset="0.1273" style="stop-color:#FFA800"/>
			<stop  offset="0.4424" style="stop-color:#944D00"/>
			<stop  offset="0.6364" style="stop-color:#9A5200"/>
			<stop  offset="0.6414" style="stop-color:#A95F00"/>
			<stop  offset="0.6523" style="stop-color:#C47500"/>
			<stop  offset="0.6649" style="stop-color:#DA8800"/>
			<stop  offset="0.6796" style="stop-color:#EB9700"/>
			<stop  offset="0.6977" style="stop-color:#F6A100"/>
			<stop  offset="0.7232" style="stop-color:#FDA600"/>
			<stop  offset="0.7939" style="stop-color:#FFA800"/>
			<stop  offset="0.8303" style="stop-color:#CF7F00"/>
			<stop  offset="1" style="stop-color:#9E5600"/>
		</linearGradient>
		<path fill="url(#SVGID_29_)" d="M130.959,82.88c-0.027,0.049-0.241,0.588-0.645,1.633c-0.27,0.729-0.506,1.201-0.715,1.428
			c-2.316-0.823-5.279-1.849-8.89-3.093l-0.288-0.117c-2.04,2.171-4.76,3.846-8.167,5.022c-3.411,1.178-6.155,1.362-8.246,0.561
			c-1.67-0.644-2.646-1.245-2.919-1.79c-0.294-0.543-0.359-1.383-0.218-2.5c-0.535,2.097-0.586,3.565-0.157,4.391
			c0.285,0.541,1.25,1.134,2.92,1.78c2.096,0.805,4.836,0.62,8.246-0.556c3.407-1.175,6.133-2.85,8.171-5.021l0.289,0.116
			c3.609,1.246,6.566,2.272,8.89,3.093c0.209-0.225,0.445-0.704,0.715-1.43c0.402-1.043,0.619-1.584,0.645-1.636
			c0.303-1.128,0.486-1.987,0.555-2.596C131.092,82.382,131.023,82.62,130.959,82.88z"/>
		
			<linearGradient id="SVGID_30_" gradientUnits="userSpaceOnUse" x1="-1120.5625" y1="-1623.1914" x2="-1089.0192" y2="-1660.9485" gradientTransform="matrix(0.7071 -0.7071 -0.7071 -0.7071 -305.583 -1871.9753)">
			<stop  offset="0" style="stop-color:#964F00"/>
			<stop  offset="0.0606" style="stop-color:#FFA800"/>
			<stop  offset="0.1273" style="stop-color:#FFA800"/>
			<stop  offset="0.4424" style="stop-color:#944D00"/>
			<stop  offset="0.6364" style="stop-color:#9A5200"/>
			<stop  offset="0.6414" style="stop-color:#A95F00"/>
			<stop  offset="0.6523" style="stop-color:#C47500"/>
			<stop  offset="0.6649" style="stop-color:#DA8800"/>
			<stop  offset="0.6796" style="stop-color:#EB9700"/>
			<stop  offset="0.6977" style="stop-color:#F6A100"/>
			<stop  offset="0.7232" style="stop-color:#FDA600"/>
			<stop  offset="0.7939" style="stop-color:#FFA800"/>
			<stop  offset="0.8303" style="stop-color:#CF7F00"/>
			<stop  offset="1" style="stop-color:#9E5600"/>
		</linearGradient>
		<path fill="url(#SVGID_30_)" d="M102.661,77.18c5.823,2.353,9.387,3.783,10.669,4.27l0.837,0.481
			c0.449-0.387,0.876-0.821,1.272-1.361l-1.746-1.001c-1.276-0.493-4.83-1.917-10.653-4.271c-3.17-1.302-6.166-2.457-9.004-3.464
			c-3.028,1.958-5.308,3.222-6.846,3.789c-2.814,1.014-5.516,1.022-8.1,0.031c-3.643-1.403-4.84-5.126-3.591-11.166l-7.064-2.715
			c-0.327,0.374-0.586,0.713-0.738,1.018c-0.143,0.26-0.189,0.472-0.17,0.653l7.608,2.927c-1.249,6.042-0.052,9.766,3.591,11.164
			c2.583,0.996,5.285,0.98,8.1-0.032c1.538-0.567,3.823-1.829,6.841-3.785C96.501,74.724,99.5,75.879,102.661,77.18z"/>
	</g>
</g>
<g id="outline_x5F_white">
	<path fill="#FFFFFF" d="M99.439,33.868c28.092,0,50.866,17.178,50.87,38.367c0,0.086-0.007,0.227-0.015,0.412
		c-0.015,0.93-0.076,1.85-0.174,2.764c-0.06,0.828-0.125,1.766-0.197,2.75c-0.002,0.027-0.004,0.055-0.006,0.08
		c-0.021,0.268-0.039,0.537-0.062,0.809c-0.019,0.23-0.035,0.463-0.053,0.695c0,0.014-0.003,0.025-0.003,0.04
		c-0.051,0.676-0.104,1.355-0.155,2.027c-0.004,0.051-0.008,0.102-0.013,0.152c-0.043,0.564-0.086,1.117-0.129,1.652
		c-0.019,0.219-0.035,0.432-0.053,0.643c-0.002,0.047-0.007,0.096-0.011,0.141c-0.022,0.291-0.047,0.574-0.067,0.846
		c-0.002,0.018-0.004,0.035-0.006,0.053c-0.019,0.213-0.033,0.418-0.052,0.615c0.646,2.439,0.99,4.961,0.99,7.541
		c0,0.086-0.007,0.227-0.015,0.412c-0.015,0.93-0.076,1.85-0.174,2.762c-0.06,0.834-0.125,1.773-0.199,2.766
		c0,0.02-0.002,0.039-0.004,0.059c-0.021,0.277-0.041,0.555-0.062,0.836c-0.018,0.215-0.031,0.43-0.049,0.646
		c-0.002,0.031-0.006,0.062-0.008,0.092c-0.051,0.664-0.104,1.33-0.15,1.988c-0.006,0.061-0.01,0.119-0.016,0.18
		c-0.031,0.43-0.064,0.854-0.1,1.268c0,0.014-0.002,0.021-0.002,0.033c-0.012,0.111-0.02,0.223-0.027,0.332
		c-0.02,0.223-0.034,0.438-0.053,0.652c-0.004,0.047-0.008,0.096-0.012,0.141c-0.021,0.291-0.047,0.572-0.066,0.846
		c-0.002,0.02-0.004,0.035-0.006,0.055c-0.02,0.213-0.033,0.418-0.053,0.615c0.646,2.438,0.99,4.959,0.99,7.541
		c0,0.084-0.006,0.229-0.014,0.412c-0.014,0.93-0.076,1.852-0.174,2.764c-0.059,0.83-0.125,1.766-0.197,2.752
		c-0.002,0.025-0.004,0.053-0.006,0.08c-0.02,0.266-0.039,0.533-0.061,0.807c-0.02,0.23-0.035,0.463-0.054,0.697
		c0,0.012-0.003,0.023-0.003,0.039c-0.051,0.676-0.104,1.354-0.154,2.023c-0.004,0.051-0.009,0.104-0.014,0.15
		c-0.043,0.564-0.086,1.119-0.129,1.654c-0.02,0.217-0.035,0.434-0.053,0.643c-0.002,0.049-0.008,0.096-0.012,0.143
		c-0.021,0.291-0.047,0.574-0.066,0.848c-0.002,0.018-0.004,0.035-0.006,0.051c-0.115,1.428-0.215,2.559-0.271,3.111
		c-0.002,0.018-0.005,0.031-0.007,0.049c-0.01,0.098-0.021,0.182-0.024,0.232c-2.558,18.979-23.799,33.781-49.626,33.783
		c-25.828-0.002-47.072-14.809-49.627-33.781c-0.008-0.055-0.016-0.135-0.025-0.225c-0.004-0.021-0.006-0.043-0.008-0.066
		c-0.01-0.098-0.02-0.209-0.033-0.338c0-0.012-0.002-0.023-0.004-0.037c-0.01-0.123-0.021-0.262-0.035-0.408
		c-0.004-0.039-0.006-0.078-0.01-0.119c-0.014-0.158-0.027-0.324-0.043-0.506c-0.006-0.072-0.012-0.15-0.018-0.229
		c-0.01-0.105-0.02-0.217-0.027-0.332c-0.01-0.105-0.018-0.217-0.027-0.33c-0.014-0.184-0.029-0.369-0.043-0.562
		c-0.008-0.099-0.016-0.198-0.023-0.299c-0.008-0.115-0.018-0.229-0.027-0.353c-0.01-0.133-0.02-0.267-0.029-0.401
		c-0.006-0.062-0.01-0.125-0.016-0.188c-0.021-0.307-0.045-0.613-0.068-0.934c-0.006-0.057-0.01-0.112-0.014-0.172
		c-0.166-2.27-0.34-4.777-0.453-6.594c0-0.008-0.002-0.014-0.002-0.021c-0.102-0.678-0.182-1.357-0.236-2.049
		c-0.002-0.041-0.008-0.08-0.012-0.119c-0.053-0.721-0.086-1.445-0.086-2.178c0-2.59,0.346-5.119,0.994-7.566
		c-0.01-0.109-0.018-0.223-0.027-0.338c-0.01-0.111-0.018-0.232-0.027-0.352c-0.006-0.094-0.014-0.186-0.021-0.281
		c-0.01-0.146-0.021-0.297-0.033-0.449c-0.002-0.021-0.004-0.045-0.006-0.064c-0.025-0.35-0.053-0.703-0.08-1.066
		c-0.002-0.035-0.004-0.07-0.008-0.107c-0.166-2.277-0.342-4.799-0.455-6.625c0-0.006-0.002-0.012-0.002-0.021
		c-0.102-0.678-0.182-1.361-0.236-2.049c-0.002-0.041-0.008-0.08-0.012-0.119c-0.053-0.723-0.086-1.447-0.086-2.178
		c0-2.59,0.346-5.119,0.994-7.566c-0.01-0.117-0.02-0.234-0.027-0.355c-0.008-0.086-0.014-0.176-0.021-0.266
		c-0.01-0.129-0.02-0.26-0.029-0.393c-0.01-0.125-0.02-0.25-0.029-0.377c-0.006-0.082-0.012-0.168-0.02-0.252
		c-0.021-0.281-0.043-0.566-0.062-0.857c-0.006-0.07-0.012-0.141-0.016-0.213c-0.168-2.264-0.34-4.762-0.453-6.575
		c0-0.006-0.002-0.014-0.002-0.02c-0.102-0.68-0.182-1.363-0.236-2.053c-0.002-0.039-0.008-0.076-0.012-0.115
		c-0.053-0.723-0.086-1.447-0.086-2.18C48.57,51.045,71.346,33.868,99.439,33.868 M99.439,21.868
		c-16.179,0-31.52,4.85-43.195,13.657c-12.503,9.43-19.673,22.811-19.672,36.711c0,0.968,0.039,1.967,0.118,3.053
		c0.008,0.103,0.017,0.205,0.026,0.308c0.001,0.008,0.002,0.016,0.002,0.024c0.06,0.722,0.141,1.458,0.242,2.199
		c0.115,1.797,0.274,4.104,0.428,6.168c0.006,0.099,0.013,0.196,0.021,0.294c0.016,0.228,0.032,0.453,0.049,0.676
		c-0.589,2.807-0.887,5.656-0.887,8.499c0,0.968,0.039,1.966,0.118,3.052c0.008,0.103,0.017,0.205,0.026,0.308
		c0,0.003,0,0.005,0.001,0.008c0.06,0.728,0.142,1.471,0.244,2.214c0.105,1.646,0.26,3.896,0.434,6.281
		c0.001,0.019,0.003,0.035,0.004,0.055c0.002,0.025,0.004,0.053,0.006,0.077l0.029,0.382l0.025,0.343
		c-0.589,2.808-0.887,5.657-0.887,8.5c0,0.972,0.039,1.97,0.118,3.054c0.007,0.104,0.016,0.203,0.026,0.307
		c0,0.002,0,0.005,0.001,0.007c0.06,0.729,0.142,1.472,0.244,2.217c0.108,1.696,0.266,3.979,0.431,6.229
		c0.007,0.104,0.015,0.207,0.024,0.309l0.013,0.184l0.044,0.605c0.004,0.062,0.01,0.129,0.015,0.193
		c0.003,0.033,0.005,0.068,0.008,0.103l0.024,0.33c0.002,0.028,0.004,0.058,0.007,0.084l0.006,0.08l0.01,0.122
		c0.002,0.025,0.007,0.096,0.009,0.123l0.008,0.104l0.017,0.209l0.025,0.338l0.013,0.175c0.003,0.043,0.007,0.087,0.011,0.13
		l0.005,0.068l0.012,0.139c0.011,0.146,0.022,0.286,0.035,0.425l0.016,0.196c0.001,0.019,0.003,0.035,0.004,0.056l0.02,0.229
		l0.021,0.246c0.006,0.078,0.012,0.15,0.019,0.228l0.022,0.257c0.008,0.105,0.018,0.21,0.029,0.314
		c0.001,0.014,0.002,0.024,0.004,0.039l0.009,0.095l0.008,0.083c0.012,0.13,0.025,0.257,0.041,0.383
		c0.018,0.159,0.034,0.292,0.049,0.402l0,0c3.391,25.185,29.838,44.179,61.519,44.181c31.68-0.002,58.126-18.996,61.521-44.181
		c0.014-0.092,0.023-0.187,0.034-0.276l0.021-0.185c0.006-0.047,0.01-0.094,0.014-0.127c0.027-0.262,0.104-0.955,0.291-3.287
		c0.009-0.075,0.016-0.15,0.021-0.228l0.039-0.489l0.025-0.338c0.009-0.082,0.016-0.168,0.021-0.261l0.043-0.518
		c0.047-0.562,0.09-1.134,0.135-1.716l0.006-0.064l0.006-0.076c0.052-0.667,0.104-1.357,0.156-2.047
		c0.004-0.05,0.008-0.102,0.012-0.148l0.044-0.574l0.056-0.747l0.008-0.093l0.008-0.104c0.064-0.898,0.127-1.773,0.185-2.562
		c0.12-1.184,0.19-2.347,0.214-3.463c0.014-0.334,0.02-0.596,0.02-0.756c0-2.82-0.295-5.652-0.877-8.443l0.037-0.461l0.014-0.172
		l0.007-0.074c0.006-0.072,0.012-0.146,0.017-0.221l0.094-1.181c0.002-0.036,0.006-0.071,0.009-0.106
		c0.002-0.025,0.005-0.054,0.007-0.078l0.122-1.598l0.028-0.398c0.004-0.049,0.009-0.098,0.013-0.146
		c0.017-0.214,0.03-0.426,0.048-0.638l0.005-0.062l0.05-0.667c0.008-0.089,0.016-0.177,0.02-0.265
		c0.066-0.886,0.127-1.729,0.181-2.491c0.122-1.195,0.192-2.334,0.214-3.466c0.014-0.332,0.018-0.587,0.018-0.752
		c0-2.819-0.295-5.65-0.877-8.442l0.035-0.434c0.045-0.553,0.09-1.122,0.136-1.704l0.004-0.065l0.007-0.076
		c0.053-0.667,0.104-1.36,0.157-2.049c0.004-0.05,0.008-0.1,0.011-0.149l0.044-0.574c0.021-0.246,0.04-0.526,0.062-0.805l0.01-0.136
		c0.064-0.899,0.129-1.775,0.185-2.563c0.122-1.198,0.192-2.337,0.214-3.468c0.014-0.332,0.019-0.587,0.019-0.752
		c-0.002-13.901-7.175-27.281-19.677-36.71C130.957,26.718,115.617,21.868,99.439,21.868L99.439,21.868z"/>
</g>
<g id="outline_x5F_black">
	<path d="M99.439,33.868c28.092,0,50.866,17.178,50.87,38.367c0,0.086-0.007,0.227-0.015,0.412c-0.015,0.93-0.076,1.85-0.174,2.764
		c-0.06,0.828-0.125,1.766-0.197,2.75c-0.002,0.027-0.004,0.055-0.006,0.08c-0.021,0.268-0.039,0.537-0.062,0.809
		c-0.019,0.23-0.035,0.463-0.053,0.695c0,0.014-0.003,0.025-0.003,0.04c-0.051,0.676-0.104,1.355-0.155,2.027
		c-0.004,0.051-0.008,0.102-0.013,0.152c-0.043,0.564-0.086,1.117-0.129,1.652c-0.019,0.219-0.035,0.432-0.053,0.643
		c-0.002,0.047-0.007,0.096-0.011,0.141c-0.022,0.291-0.047,0.574-0.067,0.846c-0.002,0.018-0.004,0.035-0.006,0.053
		c-0.019,0.213-0.033,0.418-0.052,0.615c0.646,2.439,0.99,4.961,0.99,7.541c0,0.086-0.007,0.227-0.015,0.412
		c-0.015,0.93-0.076,1.85-0.174,2.762c-0.06,0.834-0.125,1.773-0.199,2.766c0,0.02-0.002,0.039-0.004,0.059
		c-0.021,0.277-0.041,0.555-0.062,0.836c-0.018,0.215-0.031,0.43-0.049,0.646c-0.002,0.031-0.006,0.062-0.008,0.092
		c-0.051,0.664-0.104,1.33-0.15,1.988c-0.006,0.061-0.01,0.119-0.016,0.18c-0.031,0.43-0.064,0.854-0.1,1.268
		c0,0.014-0.002,0.021-0.002,0.033c-0.012,0.111-0.02,0.223-0.027,0.332c-0.02,0.223-0.034,0.438-0.053,0.652
		c-0.004,0.047-0.008,0.096-0.012,0.141c-0.021,0.291-0.047,0.572-0.066,0.846c-0.002,0.02-0.004,0.035-0.006,0.055
		c-0.02,0.213-0.033,0.418-0.053,0.615c0.646,2.438,0.99,4.959,0.99,7.541c0,0.084-0.006,0.229-0.014,0.412
		c-0.014,0.93-0.076,1.852-0.174,2.764c-0.059,0.83-0.125,1.766-0.197,2.752c-0.002,0.025-0.004,0.053-0.006,0.08
		c-0.02,0.266-0.039,0.533-0.061,0.807c-0.02,0.23-0.035,0.463-0.054,0.697c0,0.012-0.003,0.023-0.003,0.039
		c-0.051,0.676-0.104,1.354-0.154,2.023c-0.004,0.051-0.009,0.104-0.014,0.15c-0.043,0.564-0.086,1.119-0.129,1.654
		c-0.02,0.217-0.035,0.434-0.053,0.643c-0.002,0.049-0.008,0.096-0.012,0.143c-0.021,0.291-0.047,0.574-0.066,0.848
		c-0.002,0.018-0.004,0.035-0.006,0.051c-0.115,1.428-0.215,2.559-0.271,3.111c-0.002,0.018-0.005,0.031-0.007,0.049
		c-0.01,0.098-0.021,0.182-0.024,0.232c-2.558,18.979-23.799,33.781-49.626,33.783c-25.828-0.002-47.072-14.809-49.627-33.781
		c-0.008-0.055-0.016-0.135-0.025-0.225c-0.004-0.021-0.006-0.043-0.008-0.066c-0.01-0.098-0.02-0.209-0.033-0.338
		c0-0.012-0.002-0.023-0.004-0.037c-0.01-0.123-0.021-0.262-0.035-0.408c-0.004-0.039-0.006-0.078-0.01-0.119
		c-0.014-0.158-0.027-0.324-0.043-0.506c-0.006-0.072-0.012-0.15-0.018-0.229c-0.01-0.105-0.02-0.217-0.027-0.332
		c-0.01-0.105-0.018-0.217-0.027-0.33c-0.014-0.184-0.029-0.369-0.043-0.562c-0.008-0.099-0.016-0.198-0.023-0.299
		c-0.008-0.115-0.018-0.229-0.027-0.353c-0.01-0.133-0.02-0.267-0.029-0.401c-0.006-0.062-0.01-0.125-0.016-0.188
		c-0.021-0.307-0.045-0.613-0.068-0.934c-0.006-0.057-0.01-0.112-0.014-0.172c-0.166-2.27-0.34-4.777-0.453-6.594
		c0-0.008-0.002-0.014-0.002-0.021c-0.102-0.678-0.182-1.357-0.236-2.049c-0.002-0.041-0.008-0.08-0.012-0.119
		c-0.053-0.721-0.086-1.445-0.086-2.178c0-2.59,0.346-5.119,0.994-7.566c-0.01-0.109-0.018-0.223-0.027-0.338
		c-0.01-0.111-0.018-0.232-0.027-0.352c-0.006-0.094-0.014-0.186-0.021-0.281c-0.01-0.146-0.021-0.297-0.033-0.449
		c-0.002-0.021-0.004-0.045-0.006-0.064c-0.025-0.35-0.053-0.703-0.08-1.066c-0.002-0.035-0.004-0.07-0.008-0.107
		c-0.166-2.277-0.342-4.799-0.455-6.625c0-0.006-0.002-0.012-0.002-0.021c-0.102-0.678-0.182-1.361-0.236-2.049
		c-0.002-0.041-0.008-0.08-0.012-0.119c-0.053-0.723-0.086-1.447-0.086-2.178c0-2.59,0.346-5.119,0.994-7.566
		c-0.01-0.117-0.02-0.234-0.027-0.355c-0.008-0.086-0.014-0.176-0.021-0.266c-0.01-0.129-0.02-0.26-0.029-0.393
		c-0.01-0.125-0.02-0.25-0.029-0.377c-0.006-0.082-0.012-0.168-0.02-0.252c-0.021-0.281-0.043-0.566-0.062-0.857
		c-0.006-0.07-0.012-0.141-0.016-0.213c-0.168-2.264-0.34-4.762-0.453-6.575c0-0.006-0.002-0.014-0.002-0.02
		c-0.102-0.68-0.182-1.363-0.236-2.053c-0.002-0.039-0.008-0.076-0.012-0.115c-0.053-0.723-0.086-1.447-0.086-2.18
		C48.57,51.045,71.346,33.868,99.439,33.868 M99.439,27.868c-14.883,0-28.94,4.42-39.582,12.447
		c-11.148,8.408-17.286,19.744-17.285,31.92c0,0.821,0.033,1.676,0.102,2.616c0.004,0.054,0.008,0.107,0.014,0.161
		c0.001,0.013,0.003,0.032,0.005,0.052c0.057,0.703,0.138,1.424,0.241,2.15c0.115,1.816,0.281,4.223,0.44,6.365
		c0.005,0.087,0.012,0.173,0.019,0.259c0.02,0.294,0.042,0.582,0.063,0.867c0.002,0.032,0.005,0.065,0.008,0.099l0.007,0.095
		c0.001,0.012,0.003,0.051,0.004,0.062l0.03,0.384l0.003,0.04c-0.623,2.662-0.938,5.372-0.938,8.072
		c0,0.819,0.033,1.675,0.102,2.614c0.004,0.054,0.008,0.107,0.014,0.16c0.001,0.011,0.002,0.025,0.004,0.042
		c0.057,0.707,0.139,1.433,0.242,2.16c0.104,1.643,0.264,3.973,0.445,6.45c0.001,0.02,0.002,0.038,0.004,0.059
		c0.001,0.021,0.003,0.043,0.004,0.062l0.029,0.382l0.051,0.677c0.002,0.037,0.005,0.072,0.009,0.108l0.001,0.015l0.002,0.027
		l0.023,0.32c0.002,0.023,0.004,0.05,0.006,0.074c-0.622,2.66-0.937,5.369-0.937,8.067c0,0.822,0.033,1.679,0.102,2.615
		c0.004,0.054,0.008,0.106,0.014,0.159c0.001,0.011,0.002,0.025,0.004,0.041c0.057,0.705,0.138,1.431,0.242,2.16
		c0.107,1.701,0.271,4.078,0.443,6.423c0.004,0.065,0.01,0.149,0.019,0.237l0.017,0.228l0.045,0.623
		c0.003,0.047,0.007,0.093,0.012,0.14l0.004,0.055l0.03,0.414l0.01,0.121l0.015,0.196c0.001,0.021,0.003,0.042,0.005,0.062
		l0.007,0.099l0.017,0.212l0.026,0.346l0.015,0.189c0.001,0.021,0.003,0.042,0.005,0.062l0.009,0.107l0.014,0.158
		c0.009,0.132,0.02,0.259,0.031,0.384l0.016,0.207l0.024,0.28l0.022,0.258c0,0.001,0,0.001,0,0.001
		c0.005,0.069,0.011,0.135,0.017,0.198l0.024,0.289c0.004,0.057,0.01,0.112,0.016,0.168c0.001,0.01,0.002,0.019,0.002,0.024
		l0.016,0.161l0.009,0.096c0.007,0.084,0.016,0.162,0.026,0.241c0.015,0.138,0.029,0.259,0.042,0.349
		c2.985,22.174,26.876,38.932,55.566,38.934c28.688-0.002,52.579-16.762,55.573-38.982c0.006-0.046,0.012-0.093,0.018-0.14
		l0.021-0.202c0.003-0.027,0.008-0.059,0.01-0.074c0.063-0.605,0.157-1.674,0.28-3.203c0.006-0.052,0.011-0.104,0.015-0.152
		l0.041-0.499l0.026-0.338c0.006-0.066,0.011-0.14,0.017-0.214l0.047-0.566c0.043-0.547,0.088-1.109,0.131-1.686l0.013-0.146
		c0.054-0.669,0.104-1.354,0.157-2.036c0.002-0.033,0.005-0.068,0.007-0.104l0.047-0.625l0.056-0.715l0.008-0.106l0.008-0.097
		c0.068-0.938,0.133-1.84,0.188-2.649c0.111-1.069,0.178-2.116,0.194-3.116c0.011-0.26,0.017-0.461,0.017-0.584
		c0-2.682-0.312-5.377-0.93-8.025l0.018-0.211l0.026-0.338l0.013-0.154l0.053-0.647l0.015-0.176l0.009-0.112
		c0.004-0.046,0.008-0.09,0.012-0.134l0.097-1.217c0.002-0.024,0.004-0.054,0.005-0.078l-0.004,0.033
		c0.005-0.047,0.009-0.093,0.013-0.138l0.122-1.597l0.03-0.397c0.002-0.026,0.004-0.057,0.006-0.086l0.002-0.029
		c0.019-0.215,0.032-0.43,0.049-0.645l0.009-0.099l0.051-0.68c0.006-0.06,0.01-0.118,0.014-0.178
		c0.068-0.934,0.132-1.819,0.188-2.614c0.113-1.083,0.178-2.104,0.194-3.115c0.011-0.26,0.017-0.458,0.017-0.584
		c0-2.68-0.312-5.374-0.93-8.025l0.018-0.21l0.026-0.338c0.005-0.056,0.011-0.13,0.017-0.21l0.047-0.574
		c0.044-0.543,0.089-1.104,0.132-1.678l0.012-0.147c0.054-0.669,0.104-1.355,0.157-2.038c0.002-0.035,0.005-0.071,0.007-0.106
		l0.047-0.622l0.06-0.77l0.004-0.058l0.008-0.093c0.068-0.935,0.133-1.84,0.189-2.647c0.111-1.085,0.176-2.108,0.192-3.119
		c0.011-0.259,0.017-0.458,0.017-0.583c-0.002-12.177-6.144-23.513-17.287-31.92C128.378,32.288,114.32,27.868,99.439,27.868
		L99.439,27.868z"/>
</g>
</svg>
