<?xml version="1.0" encoding="utf-8"?>
<!-- Generator: Adobe Illustrator 15.0.0, SVG Export Plug-In . SVG Version: 6.00 Build 0)  -->
<!DOCTYPE svg PUBLIC "-//W3C//DTD SVG 1.1//EN" "http://www.w3.org/Graphics/SVG/1.1/DTD/svg11.dtd">
<svg version="1.1" xmlns="http://www.w3.org/2000/svg" xmlns:xlink="http://www.w3.org/1999/xlink" x="0px" y="0px" width="200px"
	 height="200px" viewBox="0 0 200 200" enable-background="new 0 0 200 200" xml:space="preserve">
<g id="icon">
	<g id="Layer_2">
	</g>
	<g id="Layer_1_1_">
		<g>
			<g>
				
					<linearGradient id="SVGID_1_" gradientUnits="userSpaceOnUse" x1="218.5059" y1="80.4307" x2="126.9211" y2="-61.2154" gradientTransform="matrix(1 0 0 -1 -50 61)">
					<stop  offset="0.4848" style="stop-color:#FFFF00"/>
					<stop  offset="0.5273" style="stop-color:#FDF800"/>
					<stop  offset="0.6881" style="stop-color:#F7E400"/>
					<stop  offset="0.8468" style="stop-color:#F3D700"/>
					<stop  offset="1" style="stop-color:#F2D300"/>
				</linearGradient>
				<path fill="url(#SVGID_1_)" d="M120.436,52.49c2.638-1.049,5.662-0.439,8.086,1.307l40.859,28.916l-91.209,42.215l-47.938-34
					C30.234,90.928,111.287,56.141,120.436,52.49z"/>
				
					<linearGradient id="SVGID_2_" gradientUnits="userSpaceOnUse" x1="30.7295" y1="-66.9546" x2="111.138" y2="-71.4198" gradientTransform="matrix(1 0 0 -1 -50.0498 60.8438)">
					<stop  offset="0.4485" style="stop-color:#FFFF00"/>
					<stop  offset="0.4677" style="stop-color:#FDF700"/>
					<stop  offset="0.4975" style="stop-color:#F6E100"/>
					<stop  offset="0.5343" style="stop-color:#ECBD00"/>
					<stop  offset="0.5762" style="stop-color:#DD8C00"/>
					<stop  offset="0.5951" style="stop-color:#D67300"/>
					<stop  offset="0.6625" style="stop-color:#DE8F00"/>
					<stop  offset="0.7501" style="stop-color:#E7AD00"/>
					<stop  offset="0.8367" style="stop-color:#EDC200"/>
					<stop  offset="0.9209" style="stop-color:#F1CF00"/>
					<stop  offset="1" style="stop-color:#F2D300"/>
				</linearGradient>
				<path fill="url(#SVGID_2_)" d="M30.234,90.928l1.604,30.939l-1.754,0.848l0.311,4.803c0.381,4.299,0.34,4.986,2.844,7.236
					c12.168,11.098,27.691,23.393,40.742,35.828c2.99,2.891,5.016,3.387,5.016,3.387l-0.824-49.041l-45.6-32.535
					C32.572,92.393,30.068,87.848,30.234,90.928z"/>
				
					<linearGradient id="SVGID_3_" gradientUnits="userSpaceOnUse" x1="159.6582" y1="-25.5547" x2="184.0175" y2="-96.2347" gradientTransform="matrix(1 0 0 -1 -49.9087 60.8887)">
					<stop  offset="0" style="stop-color:#FFFF00"/>
					<stop  offset="0.1442" style="stop-color:#F4DA00"/>
					<stop  offset="0.3186" style="stop-color:#E9B500"/>
					<stop  offset="0.4933" style="stop-color:#E19800"/>
					<stop  offset="0.666" style="stop-color:#DB8400"/>
					<stop  offset="0.836" style="stop-color:#D77700"/>
					<stop  offset="1" style="stop-color:#D67300"/>
				</linearGradient>
				<path fill="url(#SVGID_3_)" d="M166.885,117.893l1.76,1.461c-0.098,2.088-0.17,3.789-0.199,4.892
					c-0.104,3.752-0.512,6.241-2.825,7.412c-8.457,4.288-74.115,36.741-82.705,41.312c-2.574,1.375-3.918,1-3.918,1l-0.824-49.041
					l91.209-42.215L166.885,117.893z"/>
				
					<linearGradient id="SVGID_4_" gradientUnits="userSpaceOnUse" x1="119.6055" y1="-86.1064" x2="135.3262" y2="-86.1792" gradientTransform="matrix(1 0 0 -1 -50 61)">
					<stop  offset="0" style="stop-color:#FFA800;stop-opacity:0"/>
					<stop  offset="0.5212" style="stop-color:#FFFF00;stop-opacity:0.62"/>
					<stop  offset="0.5384" style="stop-color:#FFFA00;stop-opacity:0.5978"/>
					<stop  offset="0.6562" style="stop-color:#FFDD00;stop-opacity:0.4452"/>
					<stop  offset="0.7733" style="stop-color:#FFC900;stop-opacity:0.2935"/>
					<stop  offset="0.8887" style="stop-color:#FFBC00;stop-opacity:0.1442"/>
					<stop  offset="1" style="stop-color:#FFB800;stop-opacity:0"/>
				</linearGradient>
				<path fill="url(#SVGID_4_)" d="M74.184,170.465c0,0,2.32,2.629,4.863,3.02c2.639,0.402,5.518-1.44,5.518-1.44l-0.969-49.396
					l-5.424,2.279l-4.979-4.193L74.184,170.465z"/>
				
					<linearGradient id="SVGID_5_" gradientUnits="userSpaceOnUse" x1="129.4375" y1="-28.9756" x2="139.2804" y2="-24.1743" gradientTransform="matrix(1 0 0 -1 -50 61)">
					<stop  offset="0" style="stop-color:#FFFF00"/>
					<stop  offset="0.1442" style="stop-color:#F4DA00"/>
					<stop  offset="0.3186" style="stop-color:#E9B500"/>
					<stop  offset="0.4933" style="stop-color:#E19800"/>
					<stop  offset="0.666" style="stop-color:#DB8400"/>
					<stop  offset="0.836" style="stop-color:#D77700"/>
					<stop  offset="1" style="stop-color:#D67300"/>
				</linearGradient>
				<path fill="url(#SVGID_5_)" d="M172.127,82.252c1.164-21.061-9.441-44.951-23.852-53.344
					c-5.451-3.143-10.404-2.986-14.935-1.984c-19.141,4.238-28.157,31.881-28.157,31.881L172.127,82.252z"/>
				
					<linearGradient id="SVGID_6_" gradientUnits="userSpaceOnUse" x1="151.5684" y1="4.1084" x2="165.1002" y2="-27.2623" gradientTransform="matrix(1 0 0 -1 -50 61)">
					<stop  offset="0" style="stop-color:#A65200"/>
					<stop  offset="0.2081" style="stop-color:#A15000"/>
					<stop  offset="0.4536" style="stop-color:#934900"/>
					<stop  offset="0.7169" style="stop-color:#7B3D00"/>
					<stop  offset="0.8182" style="stop-color:#703800"/>
					<stop  offset="1" style="stop-color:#7F3F00"/>
				</linearGradient>
				<path fill="url(#SVGID_6_)" d="M169.723,81.98c1.082-20.297-9.17-43.322-23.057-51.41c-5.25-3.029-10.211-3.535-14.377-1.918
					C128.824,30,39.611,62.756,39.611,62.756l39.449,58.777L169.723,81.98z"/>
				
					<linearGradient id="SVGID_7_" gradientUnits="userSpaceOnUse" x1="33.3535" y1="95.6196" x2="110.07" y2="91.3594" gradientTransform="matrix(1 0.5598 0 -1 -50 120.5372)">
					<stop  offset="0.4485" style="stop-color:#FFFF00"/>
					<stop  offset="0.4677" style="stop-color:#FDF700"/>
					<stop  offset="0.4975" style="stop-color:#F6E100"/>
					<stop  offset="0.5343" style="stop-color:#ECBD00"/>
					<stop  offset="0.5762" style="stop-color:#DD8C00"/>
					<stop  offset="0.5951" style="stop-color:#D67300"/>
					<stop  offset="0.6625" style="stop-color:#DE8F00"/>
					<stop  offset="0.7501" style="stop-color:#E7AD00"/>
					<stop  offset="0.8367" style="stop-color:#EDC200"/>
					<stop  offset="0.9209" style="stop-color:#F1CF00"/>
					<stop  offset="1" style="stop-color:#F2D300"/>
				</linearGradient>
				<path fill="url(#SVGID_7_)" d="M78.123,123.281c-0.4-23.24-12.109-49.643-26.328-58.949
					c-14.416-9.281-25.199,1.967-23.904,25.102L78.123,123.281z"/>
				
					<linearGradient id="SVGID_8_" gradientUnits="userSpaceOnUse" x1="59.7578" y1="111.3682" x2="105.4588" y2="108.8303" gradientTransform="matrix(1 0.6425 0 -1 -50 129.0279)">
					<stop  offset="0" style="stop-color:#A65200"/>
					<stop  offset="0.2081" style="stop-color:#A15000"/>
					<stop  offset="0.4536" style="stop-color:#934900"/>
					<stop  offset="0.7169" style="stop-color:#7B3D00"/>
					<stop  offset="0.8182" style="stop-color:#703800"/>
					<stop  offset="1" style="stop-color:#7F3F00"/>
				</linearGradient>
				<path fill="url(#SVGID_8_)" d="M66.338,106.021c-0.324-12.333-7.361-26.906-15.785-32.54
					c-8.494-5.625-14.939-0.209-14.334,12.094L66.338,106.021z"/>
				
					<linearGradient id="SVGID_9_" gradientUnits="userSpaceOnUse" x1="163.6299" y1="-30.4893" x2="181.5048" y2="-82.3545" gradientTransform="matrix(1 0 0 -1 -50 61)">
					<stop  offset="0" style="stop-color:#A65200"/>
					<stop  offset="0.2081" style="stop-color:#A15000"/>
					<stop  offset="0.4536" style="stop-color:#934900"/>
					<stop  offset="0.7169" style="stop-color:#7B3D00"/>
					<stop  offset="0.8182" style="stop-color:#703800"/>
					<stop  offset="1" style="stop-color:#7F3F00"/>
				</linearGradient>
				<polygon fill="url(#SVGID_9_)" points="164.018,118.627 82.004,159.209 81.488,123.723 166.562,85.592 				"/>
				
					<linearGradient id="SVGID_10_" gradientUnits="userSpaceOnUse" x1="85.96" y1="-8.1338" x2="118.5253" y2="-102.6239" gradientTransform="matrix(1 0 0 -1 -50 61)">
					<stop  offset="0" style="stop-color:#A65200"/>
					<stop  offset="0.2081" style="stop-color:#A15000"/>
					<stop  offset="0.4536" style="stop-color:#934900"/>
					<stop  offset="0.7169" style="stop-color:#7B3D00"/>
					<stop  offset="0.8182" style="stop-color:#703800"/>
					<stop  offset="1" style="stop-color:#7F3F00"/>
				</linearGradient>
				<polygon fill="url(#SVGID_10_)" points="33.961,123.33 76.105,158.812 75.422,123.637 32.357,92.865 				"/>
				
					<linearGradient id="SVGID_11_" gradientUnits="userSpaceOnUse" x1="148.8789" y1="13.5845" x2="173.488" y2="-40.4588" gradientTransform="matrix(1 0 0 -1 -50 61)">
					<stop  offset="0.4785" style="stop-color:#FFFF00"/>
					<stop  offset="0.4954" style="stop-color:#FDF700"/>
					<stop  offset="0.5216" style="stop-color:#F6E100"/>
					<stop  offset="0.5539" style="stop-color:#ECBD00"/>
					<stop  offset="0.5908" style="stop-color:#DD8C00"/>
					<stop  offset="0.6074" style="stop-color:#D67300"/>
					<stop  offset="0.6727" style="stop-color:#DE8F00"/>
					<stop  offset="0.7577" style="stop-color:#E7AD00"/>
					<stop  offset="0.8416" style="stop-color:#EDC200"/>
					<stop  offset="0.9233" style="stop-color:#F1CF00"/>
					<stop  offset="1" style="stop-color:#F2D300"/>
				</linearGradient>
				<path fill="url(#SVGID_11_)" d="M172.127,82.252c1.164-21.061-9.441-44.951-23.852-53.344c-3.437-1.982-6.758-2.922-9.83-2.924
					c-1.799,0-3.508,0.318-5.104,0.939c-0.7,0.271-6.442,2.355-6.442,2.355c9.748-1.91,32.149,9.459,35.162,45.756L87.376,106.72
					c-1.428-7.66-3.74-15.35-6.883-22.574C74.68,70.99,65.23,56.246,53.516,56.207c0,0-10.543,3.924-13.889,5.172
					c0.855-0.201,1.742-0.305,2.664-0.303c2.902,0.012,6.111,1.059,9.504,3.256c14.219,9.307,25.928,35.709,26.328,58.949
					l4.428-1.977l0,0L172.127,82.252z"/>
				<polygon opacity="0.54" fill="#582B20" enable-background="new    " points="84.18,93.957 156.871,63.785 84.727,95.73 				"/>
				<polygon opacity="0.31" fill="#582B20" enable-background="new    " points="81.58,130.029 164.949,92.822 82.211,132.23 				
					"/>
				<polygon opacity="0.54" fill="#582B20" enable-background="new    " points="156.791,52.594 83.434,82.227 156.357,51.545 				
					"/>
				<polygon opacity="0.31" fill="#582B20" enable-background="new    " points="164.365,104.48 81.771,143.256 163.893,103.09 				
					"/>
				<polygon opacity="0.47" fill="#582B20" enable-background="new    " points="145.945,37.031 70.039,64.906 145.236,36.523 				
					"/>
				<polygon opacity="0.45" fill="#582B20" enable-background="new    " points="75.361,73.645 149.475,44.65 75.074,73.098 				"/>
				<polygon opacity="0.45" fill="#582B20" enable-background="new    " points="82.877,151.662 163.939,112.955 82.566,150.92 				
					"/>
				<polygon opacity="0.31" fill="#582B20" enable-background="new    " points="75.02,130.139 32.754,99.648 74.756,131.891 				
					"/>
				<polygon opacity="0.31" fill="#582B20" enable-background="new    " points="64.338,94.428 37.799,76.99 64.176,95.432 				"/>
				<polygon opacity="0.31" fill="#582B20" enable-background="new    " points="33.264,109.346 75.24,141.199 33.477,108.254 				
					"/>
				<polygon opacity="0.45" fill="#582B20" enable-background="new    " points="74.924,150.008 33.727,118.141 75.061,149.42 				
					"/>
				<polygon opacity="0.47" fill="#582B20" enable-background="new    " points="63.314,59.678 137.34,31.822 63.057,59.502 				"/>
				<polygon opacity="0.47" fill="#582B20" enable-background="new    " points="59.518,57.445 133.588,29.586 59.26,57.271 				"/>
				<path opacity="0.31" fill="#582B20" enable-background="new    " d="M134.012,112.092c2.125-3.35,3.498-7.229,3.604-10.846
					c0.116-3.953-1.324-6.766-3.689-8.037c-1.725-3.635-5.657-4.885-10.311-2.711c-6.363,2.986-11.56,11.273-11.628,18.514
					c-0.038,3.941,1.433,6.752,3.773,8.025c0.031,0.062,0.062,0.123,0.094,0.186l-4.166,17.986l1.761,1.957l24.748-12.021
					L134.012,112.092z"/>
				
					<linearGradient id="SVGID_12_" gradientUnits="userSpaceOnUse" x1="183.6426" y1="-31.6079" x2="172.693" y2="-42.2802" gradientTransform="matrix(1 0 0 -1 -50 61)">
					<stop  offset="0.4785" style="stop-color:#FFFF00"/>
					<stop  offset="0.4954" style="stop-color:#FDF700"/>
					<stop  offset="0.5216" style="stop-color:#F6E100"/>
					<stop  offset="0.5539" style="stop-color:#ECBD00"/>
					<stop  offset="0.5908" style="stop-color:#DD8C00"/>
					<stop  offset="0.6074" style="stop-color:#D67300"/>
					<stop  offset="0.6727" style="stop-color:#DE8F00"/>
					<stop  offset="0.7577" style="stop-color:#E7AD00"/>
					<stop  offset="0.8416" style="stop-color:#EDC200"/>
					<stop  offset="0.9233" style="stop-color:#F1CF00"/>
					<stop  offset="1" style="stop-color:#F2D300"/>
				</linearGradient>
				<path fill="url(#SVGID_12_)" d="M136.797,95.373c-0.209,7.256-5.492,15.555-11.777,18.529
					c-6.254,2.975-11.237-0.49-11.158-7.732c0.078-7.242,5.298-15.531,11.681-18.518C131.953,84.66,137.004,88.113,136.797,95.373z"
					/>
				
					<linearGradient id="SVGID_13_" gradientUnits="userSpaceOnUse" x1="154.2988" y1="-140.5571" x2="185.4637" y2="-123.612" gradientTransform="matrix(1 -0.4178 0 -1 -50 50.5292)">
					<stop  offset="0" style="stop-color:#FFFF00"/>
					<stop  offset="0.1442" style="stop-color:#F4DA00"/>
					<stop  offset="0.3186" style="stop-color:#E9B500"/>
					<stop  offset="0.4933" style="stop-color:#E19800"/>
					<stop  offset="0.666" style="stop-color:#DB8400"/>
					<stop  offset="0.836" style="stop-color:#D77700"/>
					<stop  offset="1" style="stop-color:#D67300"/>
				</linearGradient>
				<path fill="url(#SVGID_13_)" d="M139.557,98.396c-0.225,7.258-5.516,15.557-11.791,18.531
					c-6.248,2.974-11.213-0.491-11.117-7.735c0.097-7.244,5.32-15.538,11.695-18.521C134.748,87.68,139.781,91.137,139.557,98.396z"
					/>
				
					<linearGradient id="SVGID_14_" gradientUnits="userSpaceOnUse" x1="162.3926" y1="-157.6167" x2="191.0894" y2="-142.0134" gradientTransform="matrix(1 -0.4472 0 -1 -50 51.1371)">
					<stop  offset="0" style="stop-color:#FFFF00"/>
					<stop  offset="0.1442" style="stop-color:#F4DA00"/>
					<stop  offset="0.3186" style="stop-color:#E9B500"/>
					<stop  offset="0.4933" style="stop-color:#E19800"/>
					<stop  offset="0.666" style="stop-color:#DB8400"/>
					<stop  offset="0.836" style="stop-color:#D77700"/>
					<stop  offset="1" style="stop-color:#D67300"/>
				</linearGradient>
				<polygon fill="url(#SVGID_14_)" points="140.105,122.299 115.285,134.33 119.615,115.35 135.5,107.918 				"/>
				<path fill="#231F20" d="M121.494,107.805c-0.551,4.359,3.547,4.998,3.547,4.998l-1.246,4.773l-1.936,8.318l12.608-6.093
					l-2.67-8.682l-0.312-0.949l2.074-3.071c1.726-2.709,1.853-5.757,1.922-8.333c0.052-1.818-0.871-4.391-2.823-4.404
					c-0.695-0.004-1.537,0.215-2.437,0.637C125.527,97.203,122.172,102.465,121.494,107.805z"/>
				<path opacity="0.31" fill="#582B20" enable-background="new    " d="M58.652,114.189c-0.385-0.457-1.018-0.551-1.412-0.205
					c-0.395,0.344-0.402,0.99-0.018,1.447c3.281,3.901,5.301,8.518,5.414,12.338c0.076,2.59-0.746,4.52-2.316,5.43
					c-1.812,1.057-4.527,0.699-7.455-0.977c-6.061-3.455-11.246-11.275-11.531-17.437c-0.107-2.308,0.504-4.062,1.77-5.08
					c1.143-0.918,2.748-1.166,4.654-0.744l-0.084-2.067c-2.354-0.461-4.445-0.08-5.939,1.119c-1.711,1.372-2.541,3.647-2.4,6.579
					c0.33,6.886,6.078,15.593,12.777,19.414c1.812,1.039,3.582,1.646,5.195,1.81c1.553,0.158,2.963-0.097,4.127-0.775
					c2.141-1.244,3.271-3.756,3.178-7.072C64.49,123.645,62.27,118.494,58.652,114.189z"/>
				
					<linearGradient id="SVGID_15_" gradientUnits="userSpaceOnUse" x1="160.1865" y1="-150.9492" x2="173.6014" y2="-143.6552" gradientTransform="matrix(1 -0.4472 0 -1 -50 51.1371)">
					<stop  offset="0" style="stop-color:#FFFF00"/>
					<stop  offset="0.1442" style="stop-color:#F4DA00"/>
					<stop  offset="0.3186" style="stop-color:#E9B500"/>
					<stop  offset="0.4933" style="stop-color:#E19800"/>
					<stop  offset="0.666" style="stop-color:#DB8400"/>
					<stop  offset="0.836" style="stop-color:#D77700"/>
					<stop  offset="1" style="stop-color:#D67300"/>
				</linearGradient>
				<polygon fill="url(#SVGID_15_)" points="113.523,132.371 115.285,134.33 119.615,115.35 117.826,113.951 				"/>
				
					<linearGradient id="SVGID_16_" gradientUnits="userSpaceOnUse" x1="50.3027" y1="40.311" x2="50.591" y2="30.6928" gradientTransform="matrix(1.1991 0.9327 -0.0379 -0.8635 -7.4339 94.312)">
					<stop  offset="0.4485" style="stop-color:#FFFF00"/>
					<stop  offset="0.4677" style="stop-color:#FDF700"/>
					<stop  offset="0.4975" style="stop-color:#F6E100"/>
					<stop  offset="0.5343" style="stop-color:#ECBD00"/>
					<stop  offset="0.5762" style="stop-color:#DD8C00"/>
					<stop  offset="0.5951" style="stop-color:#D67300"/>
					<stop  offset="0.6625" style="stop-color:#DE8F00"/>
					<stop  offset="0.7501" style="stop-color:#E7AD00"/>
					<stop  offset="0.8367" style="stop-color:#EDC200"/>
					<stop  offset="0.9209" style="stop-color:#F1CF00"/>
					<stop  offset="1" style="stop-color:#F2D300"/>
				</linearGradient>
				<path fill="url(#SVGID_16_)" d="M54.674,113.576c0.139,3.877,2.705,5.346,2.705,5.346l-8.461-6.393c0,0-2.752-1.273-2.898-4.728
					c-0.188-2.213,2.211-3.563,2.211-3.563l8.883,5.856C57.113,110.096,54.604,111.338,54.674,113.576z"/>
				
					<linearGradient id="SVGID_17_" gradientUnits="userSpaceOnUse" x1="53.9395" y1="40.4277" x2="54.2252" y2="30.8958" gradientTransform="matrix(1.1991 0.9327 -0.0379 -0.8635 -7.4339 94.312)">
					<stop  offset="0" style="stop-color:#FFFF00"/>
					<stop  offset="0.1442" style="stop-color:#F4DA00"/>
					<stop  offset="0.3186" style="stop-color:#E9B500"/>
					<stop  offset="0.4933" style="stop-color:#E19800"/>
					<stop  offset="0.666" style="stop-color:#DB8400"/>
					<stop  offset="0.836" style="stop-color:#D77700"/>
					<stop  offset="1" style="stop-color:#D67300"/>
				</linearGradient>
				<path fill="url(#SVGID_17_)" d="M54.674,113.576c0.139,3.877,2.705,5.346,2.705,5.346l-0.266-8.826
					C57.113,110.096,54.604,111.338,54.674,113.576z"/>
				
					<linearGradient id="SVGID_18_" gradientUnits="userSpaceOnUse" x1="103.1797" y1="-55.356" x2="96.3777" y2="-67.7232" gradientTransform="matrix(1 0 0 -1 -50 61)">
					<stop  offset="0" style="stop-color:#FFFF00"/>
					<stop  offset="0.1442" style="stop-color:#F4DA00"/>
					<stop  offset="0.3186" style="stop-color:#E9B500"/>
					<stop  offset="0.4933" style="stop-color:#E19800"/>
					<stop  offset="0.666" style="stop-color:#DB8400"/>
					<stop  offset="0.836" style="stop-color:#D77700"/>
					<stop  offset="1" style="stop-color:#D67300"/>
				</linearGradient>
				<path fill="url(#SVGID_18_)" d="M57.25,114.064c-0.385-0.457-1.018-0.551-1.414-0.205c-0.393,0.342-0.4,0.99-0.014,1.447
					c3.285,3.901,5.309,8.516,5.426,12.336c0.08,2.59-0.74,4.518-2.311,5.43c-1.811,1.057-4.527,0.699-7.455-0.979
					c-6.064-3.452-11.26-11.271-11.553-17.432c-0.109-2.308,0.5-4.062,1.764-5.078c1.143-0.92,2.748-1.168,4.654-0.746l-0.086-2.067
					c-2.354-0.461-4.445-0.078-5.939,1.119c-1.709,1.375-2.535,3.647-2.391,6.579c0.336,6.884,6.096,15.591,12.799,19.412
					c1.814,1.037,3.584,1.646,5.197,1.81c1.553,0.158,2.963-0.099,4.127-0.775c2.139-1.244,3.266-3.756,3.17-7.072
					C63.098,123.52,60.871,118.367,57.25,114.064z"/>
				<g>
					
						<linearGradient id="SVGID_19_" gradientUnits="userSpaceOnUse" x1="105.7295" y1="-69.5464" x2="104.5383" y2="-62.8759" gradientTransform="matrix(1 0 0 -1 -50 61)">
						<stop  offset="0.4785" style="stop-color:#FFFF00"/>
						<stop  offset="0.4954" style="stop-color:#FDF700"/>
						<stop  offset="0.5216" style="stop-color:#F6E100"/>
						<stop  offset="0.5539" style="stop-color:#ECBD00"/>
						<stop  offset="0.5908" style="stop-color:#DD8C00"/>
						<stop  offset="0.6074" style="stop-color:#D67300"/>
						<stop  offset="0.6727" style="stop-color:#DE8F00"/>
						<stop  offset="0.7577" style="stop-color:#E7AD00"/>
						<stop  offset="0.8416" style="stop-color:#EDC200"/>
						<stop  offset="0.9233" style="stop-color:#F1CF00"/>
						<stop  offset="1" style="stop-color:#F2D300"/>
					</linearGradient>
					<path fill="url(#SVGID_19_)" d="M57.25,114.064c-0.17-0.201-0.391-0.318-0.617-0.373c3.5,4.25,5.652,9.274,5.779,13.512
						c0.1,3.316-1.027,5.828-3.168,7.072c-1.164,0.68-2.574,0.934-4.129,0.774c-1.613-0.161-3.385-0.77-5.199-1.809
						c-0.711-0.406-1.408-0.88-2.094-1.39c0.939,0.767,1.91,1.457,2.908,2.027c1.814,1.037,3.584,1.646,5.197,1.809
						c1.553,0.158,2.963-0.098,4.127-0.774c2.139-1.244,3.266-3.756,3.17-7.072C63.098,123.52,60.871,118.367,57.25,114.064z"/>
					
						<linearGradient id="SVGID_20_" gradientUnits="userSpaceOnUse" x1="96.5161" y1="-71.1826" x2="95.3243" y2="-64.5083" gradientTransform="matrix(1 0 0 -1 -50 61)">
						<stop  offset="0.4785" style="stop-color:#FFFF00"/>
						<stop  offset="0.4954" style="stop-color:#FDF700"/>
						<stop  offset="0.5216" style="stop-color:#F6E100"/>
						<stop  offset="0.5539" style="stop-color:#ECBD00"/>
						<stop  offset="0.5908" style="stop-color:#DD8C00"/>
						<stop  offset="0.6074" style="stop-color:#D67300"/>
						<stop  offset="0.6727" style="stop-color:#DE8F00"/>
						<stop  offset="0.7577" style="stop-color:#E7AD00"/>
						<stop  offset="0.8416" style="stop-color:#EDC200"/>
						<stop  offset="0.9233" style="stop-color:#F1CF00"/>
						<stop  offset="1" style="stop-color:#F2D300"/>
					</linearGradient>
					<path fill="url(#SVGID_20_)" d="M41.693,109.584c1.143-0.92,2.748-1.168,4.654-0.746l-0.086-2.068
						c-0.275-0.053-0.545-0.094-0.812-0.123l0.066,1.558c-1.908-0.422-3.514-0.175-4.656,0.744
						c-1.264,1.018-1.873,2.772-1.762,5.079c0.266,5.513,4.467,12.339,9.693,16.189c-4.836-3.936-8.613-10.336-8.861-15.555
						C39.82,112.355,40.43,110.6,41.693,109.584z"/>
				</g>
			</g>
		</g>
	</g>
</g>
<g id="outline_x5F_white">
	<g>
		<g>
			<path fill="#FFFFFF" d="M138.445,25.984c2.766,0.002,5.731,0.771,8.803,2.367c0.34,0.174,0.682,0.359,1.027,0.557
				c14.41,8.393,25.016,32.283,23.852,53.344l-2.799,1.221l-2.443,34.419l1.76,1.461c-0.098,2.088-0.17,3.789-0.199,4.892
				c-0.104,3.752-0.512,6.241-2.825,7.412c-8.457,4.288-74.115,36.741-82.705,41.312c-1.666,0.891-2.816,1.047-3.421,1.047
				c-0.33,0-0.497-0.047-0.497-0.047s-2.025-0.496-5.016-3.387c-13.051-12.436-28.574-24.73-40.742-35.828
				c-2.504-2.25-2.463-2.938-2.844-7.236l-0.311-4.803l1.754-0.848l-1.598-30.85l-2.35-1.584C27,73.504,31.834,63.213,39.637,61.375
				c3.357-1.252,13.879-5.168,13.879-5.168c1.02,0.004,2.02,0.125,3.002,0.34c19.342-7.104,50.354-18.5,66.066-24.297
				c1.434-1.137,2.957-2.15,4.57-3.008c-0.082,0.014-0.174,0.021-0.256,0.037c0,0,0.24-0.086,0.619-0.225
				c1.828-0.936,3.764-1.676,5.823-2.131C134.938,26.303,136.646,25.984,138.445,25.984 M42.091,61.088c-0.004,0-0.009,0-0.013,0
				C42.083,61.088,42.087,61.088,42.091,61.088c0.042,0,0.084,0,0.126,0c0.138,0,0.277,0.002,0.418,0.007
				c0.011,0,0.022,0,0.033,0.001c-0.011,0-0.022-0.001-0.033-0.001c-0.115-0.005-0.232-0.017-0.344-0.019
				C42.223,61.076,42.159,61.086,42.091,61.088 M43.152,61.119c0.237,0.018,0.475,0.044,0.715,0.075h0.002
				C43.627,61.163,43.389,61.137,43.152,61.119c-0.008,0-0.015-0.001-0.023-0.001C43.137,61.118,43.144,61.118,43.152,61.119
				 M41.191,61.137c-0.002,0-0.005,0-0.007,0c-0.113,0.011-0.228,0.016-0.338,0.031c0.111-0.013,0.226-0.02,0.338-0.031
				C41.187,61.137,41.189,61.137,41.191,61.137 M138.454,13.984c-0.003,0-0.006,0-0.009,0c-2.951,0-5.821,0.479-8.549,1.423
				c-2.397,0.596-4.783,1.468-7.114,2.6c-1.134,0.414-2.169,0.982-3.089,1.673c-0.988,0.594-1.963,1.235-2.916,1.921
				c-14.516,5.352-40.583,14.935-61.624,22.662c-0.533-0.036-1.064-0.055-1.593-0.057c-0.015,0-0.031,0-0.046,0
				c-1.429,0-2.847,0.255-4.186,0.754c0,0-9.463,3.522-13.308,4.955c-7.23,2.002-13.08,7.454-16.533,15.442
				c-2.916,6.745-4.121,15.071-3.58,24.746c0.142,2.527,1.075,4.912,2.622,6.84l1.035,19.995c-1.076,1.959-1.608,4.222-1.458,6.552
				l0.311,4.803c0.006,0.095,0.014,0.188,0.022,0.284l0.045,0.512c0.475,5.418,1.233,9.637,6.697,14.561
				c5.314,4.847,11.072,9.763,17.168,14.967c7.899,6.744,16.067,13.717,23.32,20.626c4.489,4.329,8.321,5.827,10.304,6.342
				c1.103,0.288,2.286,0.435,3.518,0.435c2.963,0,6.016-0.828,9.075-2.463c5.418-2.883,35.457-17.805,57.388-28.699
				c12.34-6.131,22.087-10.973,25.091-12.496c9.022-4.561,9.292-14.161,9.394-17.776c0.024-0.922,0.088-2.442,0.191-4.667
				c0.104-2.199-0.4-4.352-1.417-6.241l1.646-23.191c1.908-2.025,3.09-4.689,3.248-7.567c0.668-12.072-1.855-25.203-7.107-36.974
				c-5.516-12.362-13.57-22.094-22.686-27.402c-0.03-0.018-0.062-0.035-0.092-0.052c-0.494-0.283-0.99-0.552-1.476-0.8
				C148.018,15.233,143.208,13.988,138.454,13.984L138.454,13.984z"/>
		</g>
	</g>
</g>
<g id="outline_x5F_black">
	<g>
		<path d="M138.445,25.984c2.766,0.002,5.731,0.771,8.803,2.367c0.34,0.174,0.682,0.359,1.027,0.557
			c14.41,8.393,25.016,32.283,23.852,53.344l-2.799,1.221l-2.443,34.419l1.76,1.461c-0.098,2.088-0.17,3.789-0.199,4.892
			c-0.104,3.752-0.512,6.241-2.825,7.412c-8.457,4.288-74.115,36.741-82.705,41.312c-1.666,0.891-2.816,1.047-3.421,1.047
			c-0.33,0-0.497-0.047-0.497-0.047s-2.025-0.496-5.016-3.387c-13.051-12.436-28.574-24.73-40.742-35.828
			c-2.504-2.25-2.463-2.938-2.844-7.236l-0.311-4.803l1.754-0.848l-1.598-30.85l-2.35-1.584C27,73.504,31.834,63.213,39.637,61.375
			c3.357-1.252,13.879-5.168,13.879-5.168c1.02,0.004,2.02,0.125,3.002,0.34c19.342-7.104,50.354-18.5,66.066-24.297
			c1.434-1.137,2.957-2.15,4.57-3.008c-0.082,0.014-0.174,0.021-0.256,0.037c0,0,0.24-0.086,0.619-0.225
			c1.828-0.936,3.764-1.676,5.823-2.131C134.938,26.303,136.646,25.984,138.445,25.984 M42.091,61.088c-0.004,0-0.009,0-0.013,0
			C42.083,61.088,42.087,61.088,42.091,61.088c0.042,0,0.083,0,0.125,0c0.139,0,0.277,0.002,0.418,0.007
			c0.011,0,0.022,0.001,0.033,0.001c-0.011,0-0.022-0.001-0.033-0.001c-0.115-0.005-0.232-0.016-0.344-0.018
			C42.223,61.076,42.159,61.086,42.091,61.088 M43.152,61.119c0.236,0.018,0.475,0.044,0.715,0.075h0.002
			C43.627,61.163,43.389,61.137,43.152,61.119c-0.008,0-0.015-0.001-0.023-0.001C43.137,61.118,43.144,61.118,43.152,61.119
			 M40.846,61.168c0.113-0.014,0.23-0.02,0.346-0.031C41.076,61.148,40.959,61.152,40.846,61.168 M138.449,19.984
			c-0.001,0-0.004,0-0.004,0c-2.369,0-4.666,0.397-6.834,1.181c-2.174,0.518-4.348,1.313-6.477,2.371l-0.259,0.094
			c-0.667,0.239-1.269,0.585-1.788,1.013c-1.172,0.688-2.322,1.455-3.441,2.295c-14.631,5.396-42.062,15.479-63.703,23.427
			c-0.808-0.102-1.612-0.155-2.406-0.158c-0.008,0-0.015,0-0.023,0c-0.714,0-1.423,0.127-2.093,0.377c0,0-9.912,3.689-13.566,5.051
			C26.983,58.477,20.878,71.499,21.9,89.769c0.102,1.82,1.025,3.491,2.503,4.547l1.261,24.341c-1.085,1.184-1.675,2.778-1.567,4.444
			l0.311,4.803c0.003,0.048,0.006,0.096,0.011,0.143l0.045,0.518c0.409,4.67,0.782,7.074,4.765,10.652
			c5.217,4.758,10.95,9.652,17.019,14.834c7.972,6.807,16.215,13.844,23.594,20.875c3.587,3.469,6.497,4.532,7.543,4.822l0,0
			c0.043,0.014,0.089,0.023,0.137,0.037c0.017,0.004,0.032,0.008,0.047,0.012c0.443,0.108,1.097,0.219,1.924,0.219
			c1.966,0,4.068-0.591,6.248-1.755c5.501-2.927,35.582-17.87,57.547-28.78c12.326-6.123,22.062-10.961,25.045-12.473
			c5.839-2.951,6.017-9.225,6.11-12.595c0.024-0.968,0.086-2.481,0.193-4.779c0.075-1.6-0.492-3.149-1.555-4.317l1.977-27.829
			c1.778-0.996,2.944-2.84,3.06-4.904c1.298-23.489-10.484-49.344-26.823-58.859c-0.016-0.009-0.029-0.018-0.046-0.027
			c-0.427-0.244-0.849-0.472-1.269-0.688C146.135,21.011,142.243,19.987,138.449,19.984L138.449,19.984z"/>
	</g>
</g>
</svg>
