<?xml version="1.0" encoding="utf-8"?>
<!-- Generator: Adobe Illustrator 15.0.0, SVG Export Plug-In . SVG Version: 6.00 Build 0)  -->
<!DOCTYPE svg PUBLIC "-//W3C//DTD SVG 1.1//EN" "http://www.w3.org/Graphics/SVG/1.1/DTD/svg11.dtd">
<svg version="1.1" xmlns="http://www.w3.org/2000/svg" xmlns:xlink="http://www.w3.org/1999/xlink" x="0px" y="0px" width="200px"
	 height="200px" viewBox="0 0 200 200" enable-background="new 0 0 200 200" xml:space="preserve">
<g id="icon">
	<g id="Layer_2">
	</g>
	<g>
		<g>
			<g>
				
					<linearGradient id="SVGID_1_" gradientUnits="userSpaceOnUse" x1="168.6074" y1="-48.6831" x2="168.6074" y2="-0.1751" gradientTransform="matrix(1 0 0 -1 -50.0166 60.8711)">
					<stop  offset="0" style="stop-color:#FFFF00"/>
					<stop  offset="0.1442" style="stop-color:#F4DA00"/>
					<stop  offset="0.3186" style="stop-color:#E9B500"/>
					<stop  offset="0.4933" style="stop-color:#E19800"/>
					<stop  offset="0.666" style="stop-color:#DB8400"/>
					<stop  offset="0.836" style="stop-color:#D77700"/>
					<stop  offset="1" style="stop-color:#D67300"/>
				</linearGradient>
				<path fill="url(#SVGID_1_)" d="M101.635,59.485c2.049-0.824,4.428-0.355,6.352,1.004l50.291,39.248l-25.858,12.922
					L78.904,68.604C78.904,68.604,94.494,62.364,101.635,59.485z"/>
				
					<linearGradient id="SVGID_2_" gradientUnits="userSpaceOnUse" x1="167.6309" y1="-16.8066" x2="149.5625" y2="-54.3554" gradientTransform="matrix(1 0 0 -1 -50.0498 60.8438)">
					<stop  offset="0" style="stop-color:#FFFF00"/>
					<stop  offset="0.1442" style="stop-color:#F4DA00"/>
					<stop  offset="0.3186" style="stop-color:#E9B500"/>
					<stop  offset="0.4933" style="stop-color:#E19800"/>
					<stop  offset="0.666" style="stop-color:#DB8400"/>
					<stop  offset="0.836" style="stop-color:#D77700"/>
					<stop  offset="1" style="stop-color:#D67300"/>
				</linearGradient>
				<path fill="url(#SVGID_2_)" d="M77.078,72.149c-1.158,4.305-3.002,11.139-4.303,15.963c-0.881,3.275-0.361,6.645,1.627,8.4
					c9.762,8.632,39.575,35,50.459,44.628c2.525,2.234,4.266,2.601,4.266,2.601l3.291-31.082L78.904,68.604
					C78.904,68.604,77.736,69.718,77.078,72.149z"/>
				
					<linearGradient id="SVGID_3_" gradientUnits="userSpaceOnUse" x1="185.7324" y1="-37.043" x2="199.554" y2="-77.1473" gradientTransform="matrix(1 0 0 -1 -49.9087 60.8887)">
					<stop  offset="0" style="stop-color:#FFFF00"/>
					<stop  offset="0.1442" style="stop-color:#F4DA00"/>
					<stop  offset="0.3186" style="stop-color:#E9B500"/>
					<stop  offset="0.4933" style="stop-color:#E19800"/>
					<stop  offset="0.666" style="stop-color:#DB8400"/>
					<stop  offset="0.836" style="stop-color:#D77700"/>
					<stop  offset="1" style="stop-color:#D67300"/>
				</linearGradient>
				<path fill="url(#SVGID_3_)" d="M160.578,104.579c1.301,4.578,3.389,11.938,4.748,16.729c0.785,2.771,0.191,5.241-1.684,6.17
					c-6.871,3.407-23.695,11.75-31.123,15.432c-2.238,1.111-3.394,0.832-3.394,0.832l3.291-31.082l25.858-12.922
					C158.277,99.737,159.877,102.105,160.578,104.579z"/>
				
					<linearGradient id="SVGID_4_" gradientUnits="userSpaceOnUse" x1="169.0195" y1="-180.9404" x2="169.0195" y2="-8.8038" gradientTransform="matrix(1 0 0 -1 -50 61)">
					<stop  offset="0.4424" style="stop-color:#FFFF00"/>
					<stop  offset="0.5565" style="stop-color:#F8E700;stop-opacity:0.7954"/>
					<stop  offset="0.7952" style="stop-color:#E6AB00;stop-opacity:0.3673"/>
					<stop  offset="1" style="stop-color:#D67300;stop-opacity:0"/>
				</linearGradient>
				<path fill="url(#SVGID_4_)" d="M163.643,125.13c-6.871,3.406-23.694,11.75-31.123,15.431c-2.237,1.11-3.393,0.834-3.393,0.834
					s-1.74-0.367-4.266-2.603c-10.885-9.629-40.697-35.994-50.459-44.629c-1.123-0.99-1.758-2.502-1.959-4.213
					c-0.287,2.643,0.346,5.137,1.959,6.562c9.762,8.633,39.575,35,50.459,44.629c2.525,2.234,4.266,2.601,4.266,2.601
					s1.154,0.278,3.393-0.832c7.429-3.683,24.252-12.023,31.123-15.433c1.644-0.812,2.301-2.807,1.912-5.149
					C165.328,123.595,164.695,124.607,163.643,125.13z"/>
			</g>
			
				<linearGradient id="SVGID_5_" gradientUnits="userSpaceOnUse" x1="175.4307" y1="-64.7158" x2="184.9314" y2="-66.433" gradientTransform="matrix(1 0 0 -1 -50 61)">
				<stop  offset="0" style="stop-color:#FFA800;stop-opacity:0"/>
				<stop  offset="0.5212" style="stop-color:#FFFF00;stop-opacity:0.62"/>
				<stop  offset="0.5384" style="stop-color:#FFFA00;stop-opacity:0.5978"/>
				<stop  offset="0.6562" style="stop-color:#FFDD00;stop-opacity:0.4452"/>
				<stop  offset="0.7733" style="stop-color:#FFC900;stop-opacity:0.2935"/>
				<stop  offset="0.8887" style="stop-color:#FFBC00;stop-opacity:0.1442"/>
				<stop  offset="1" style="stop-color:#FFB800;stop-opacity:0"/>
			</linearGradient>
			<path fill="url(#SVGID_5_)" d="M125.037,141.044c0,0,1.955,2.041,4.141,2.313c2.268,0.285,4.771-1.192,4.771-1.192l2.989-31.338
				l-4.52,1.832l-4.055-3.257L125.037,141.044z"/>
		</g>
		<g>
			<g>
				<g>
					
						<linearGradient id="SVGID_6_" gradientUnits="userSpaceOnUse" x1="96.5107" y1="-92.7676" x2="165.3365" y2="11.285" gradientTransform="matrix(1 0 0 -1 -50 61)">
						<stop  offset="0.4485" style="stop-color:#FFFF00"/>
						<stop  offset="0.459" style="stop-color:#FDFA00"/>
						<stop  offset="0.4718" style="stop-color:#F9EB00"/>
						<stop  offset="0.4857" style="stop-color:#F2D200"/>
						<stop  offset="0.5004" style="stop-color:#E8B000"/>
						<stop  offset="0.5157" style="stop-color:#DB8500"/>
						<stop  offset="0.5212" style="stop-color:#D67300"/>
						<stop  offset="1" style="stop-color:#F2D300"/>
					</linearGradient>
					<path fill="url(#SVGID_6_)" d="M63.611,77.597c2.049-0.826,4.428-0.357,6.354,1.002l50.287,39.25l-25.857,12.92L40.881,86.714
						C40.881,86.714,56.469,80.474,63.611,77.597z"/>
					
						<linearGradient id="SVGID_7_" gradientUnits="userSpaceOnUse" x1="149.0742" y1="-84.2017" x2="115.559" y2="-6.4761" gradientTransform="matrix(1 0 0 -1 -50 61)">
						<stop  offset="0" style="stop-color:#FFFF00;stop-opacity:0"/>
						<stop  offset="1" style="stop-color:#D67300"/>
					</linearGradient>
					<path fill="url(#SVGID_7_)" d="M63.611,77.597c2.049-0.826,4.428-0.357,6.354,1.002l50.287,39.25l-25.857,12.92L40.881,86.714
						C40.881,86.714,56.469,80.474,63.611,77.597z"/>
					
						<linearGradient id="SVGID_8_" gradientUnits="userSpaceOnUse" x1="129.6074" y1="-34.916" x2="111.539" y2="-72.465" gradientTransform="matrix(1 0 0 -1 -50.0498 60.8438)">
						<stop  offset="0" style="stop-color:#FFFF00"/>
						<stop  offset="0.1442" style="stop-color:#F4DA00"/>
						<stop  offset="0.3186" style="stop-color:#E9B500"/>
						<stop  offset="0.4933" style="stop-color:#E19800"/>
						<stop  offset="0.666" style="stop-color:#DB8400"/>
						<stop  offset="0.836" style="stop-color:#D77700"/>
						<stop  offset="1" style="stop-color:#D67300"/>
					</linearGradient>
					<path fill="url(#SVGID_8_)" d="M39.057,90.259c-1.162,4.305-3.006,11.14-4.307,15.964c-0.883,3.274-0.357,6.645,1.623,8.399
						c9.766,8.633,39.578,35,50.465,44.627c2.525,2.235,4.266,2.603,4.266,2.603l3.291-31.082L40.881,86.714
						C40.881,86.714,39.711,87.827,39.057,90.259z"/>
					
						<linearGradient id="SVGID_9_" gradientUnits="userSpaceOnUse" x1="47.1934" y1="-44.0054" x2="128.9329" y2="-67.0767" gradientTransform="matrix(1 0 0 -1 -50.0498 60.8438)">
						<stop  offset="0.4785" style="stop-color:#FFFF00"/>
						<stop  offset="0.4954" style="stop-color:#FDF700"/>
						<stop  offset="0.5216" style="stop-color:#F6E100"/>
						<stop  offset="0.5539" style="stop-color:#ECBD00"/>
						<stop  offset="0.5908" style="stop-color:#DD8C00"/>
						<stop  offset="0.6074" style="stop-color:#D67300"/>
						<stop  offset="0.6097" style="stop-color:#D67400"/>
						<stop  offset="0.6824" style="stop-color:#DF9200"/>
						<stop  offset="0.7542" style="stop-color:#E5A700"/>
						<stop  offset="0.824" style="stop-color:#E9B400"/>
						<stop  offset="0.8896" style="stop-color:#EAB800"/>
					</linearGradient>
					<path fill="url(#SVGID_9_)" d="M39.057,90.259c-1.162,4.305-3.006,11.14-4.307,15.964c-0.883,3.274-0.357,6.645,1.623,8.399
						c9.766,8.633,39.578,35,50.465,44.627c2.525,2.235,4.266,2.603,4.266,2.603l3.291-31.082L40.881,86.714
						C40.881,86.714,39.711,87.827,39.057,90.259z"/>
					
						<linearGradient id="SVGID_10_" gradientUnits="userSpaceOnUse" x1="147.71" y1="-55.1548" x2="161.5307" y2="-95.2568" gradientTransform="matrix(1 0 0 -1 -49.9087 60.8887)">
						<stop  offset="0" style="stop-color:#FFFF00"/>
						<stop  offset="0.1442" style="stop-color:#F4DA00"/>
						<stop  offset="0.3186" style="stop-color:#E9B500"/>
						<stop  offset="0.4933" style="stop-color:#E19800"/>
						<stop  offset="0.666" style="stop-color:#DB8400"/>
						<stop  offset="0.836" style="stop-color:#D77700"/>
						<stop  offset="1" style="stop-color:#D67300"/>
					</linearGradient>
					<path fill="url(#SVGID_10_)" d="M122.555,122.689c1.297,4.576,3.387,11.939,4.746,16.728c0.785,2.771,0.191,5.242-1.682,6.172
						c-6.871,3.406-23.697,11.748-31.123,15.431c-2.242,1.11-3.393,0.832-3.393,0.832l3.291-31.082l25.857-12.92
						C120.252,117.85,121.855,120.218,122.555,122.689z"/>
					
						<linearGradient id="SVGID_11_" gradientUnits="userSpaceOnUse" x1="115.2461" y1="-173.1304" x2="137.3615" y2="-20.3702" gradientTransform="matrix(1 0 0 -1 -50 61)">
						<stop  offset="0.4424" style="stop-color:#FFFF00"/>
						<stop  offset="0.5565" style="stop-color:#F8E700;stop-opacity:0.7954"/>
						<stop  offset="0.7952" style="stop-color:#E6AB00;stop-opacity:0.3673"/>
						<stop  offset="1" style="stop-color:#D67300;stop-opacity:0"/>
					</linearGradient>
					<path fill="url(#SVGID_11_)" d="M125.619,143.239c-6.871,3.405-23.697,11.75-31.123,15.432c-2.242,1.108-3.393,0.83-3.393,0.83
						s-1.74-0.365-4.266-2.603c-10.887-9.625-40.699-35.993-50.465-44.627c-1.115-0.989-1.754-2.5-1.953-4.211
						c-0.287,2.642,0.344,5.135,1.953,6.562c9.766,8.633,39.578,35,50.465,44.627c2.525,2.235,4.266,2.603,4.266,2.603
						s1.15,0.278,3.393-0.832c7.426-3.683,24.252-12.023,31.123-15.431c1.643-0.813,2.297-2.81,1.91-5.151
						C127.301,141.704,126.67,142.721,125.619,143.239z"/>
				</g>
				
					<linearGradient id="SVGID_12_" gradientUnits="userSpaceOnUse" x1="137.4043" y1="-82.8257" x2="146.9051" y2="-84.5428" gradientTransform="matrix(1 0 0 -1 -50 61)">
					<stop  offset="0" style="stop-color:#FFA800;stop-opacity:0"/>
					<stop  offset="0.5212" style="stop-color:#FFFF00;stop-opacity:0.62"/>
					<stop  offset="0.5384" style="stop-color:#FFFA00;stop-opacity:0.5978"/>
					<stop  offset="0.6562" style="stop-color:#FFDD00;stop-opacity:0.4452"/>
					<stop  offset="0.7733" style="stop-color:#FFC900;stop-opacity:0.2935"/>
					<stop  offset="0.8887" style="stop-color:#FFBC00;stop-opacity:0.1442"/>
					<stop  offset="1" style="stop-color:#FFB800;stop-opacity:0"/>
				</linearGradient>
				<path fill="url(#SVGID_12_)" d="M87.016,159.152c0,0,1.953,2.041,4.137,2.316c2.268,0.283,4.77-1.195,4.77-1.195l2.992-31.338
					l-4.52,1.832l-4.057-3.256L87.016,159.152z"/>
			</g>
			<g>
				<g>
					
						<linearGradient id="SVGID_13_" gradientUnits="userSpaceOnUse" x1="205.2227" y1="-78.2822" x2="186.0439" y2="-50.5938" gradientTransform="matrix(1 0 0 -1 -50 61)">
						<stop  offset="0.4424" style="stop-color:#FFFF00"/>
						<stop  offset="0.5565" style="stop-color:#F8E700;stop-opacity:0.7954"/>
						<stop  offset="0.7952" style="stop-color:#E6AB00;stop-opacity:0.3673"/>
						<stop  offset="1" style="stop-color:#D67300;stop-opacity:0"/>
					</linearGradient>
					<path fill="url(#SVGID_13_)" d="M133.9,110.82c-1.295,0.646-2.728,0.513-3.865-0.426c-9.102-7.489-49.973-41.139-49.973-41.139
						c-1.098,0.441-1.758,0.705-1.758,0.705s39.877,32.832,50.783,41.809c1.728,1.422,3.729,1.746,5.338,0.941
						c6.566-3.281,23.248-11.617,23.248-11.617l-1.682-1.312C155.992,99.782,139.77,107.889,133.9,110.82z"/>
					<path fill="#FFF200" d="M80.893,38.528c2.051-0.826,4.43-0.357,6.357,1.002l50.287,39.248l-25.861,12.92l-53.51-44.053
						C58.166,47.646,73.752,41.403,80.893,38.528z"/>
					
						<linearGradient id="SVGID_14_" gradientUnits="userSpaceOnUse" x1="146.8906" y1="4.1523" x2="128.823" y2="-33.3951" gradientTransform="matrix(1 0 0 -1 -50.0498 60.8438)">
						<stop  offset="0" style="stop-color:#FFFF00"/>
						<stop  offset="0.1442" style="stop-color:#F4DA00"/>
						<stop  offset="0.3186" style="stop-color:#E9B500"/>
						<stop  offset="0.4933" style="stop-color:#E19800"/>
						<stop  offset="0.666" style="stop-color:#DB8400"/>
						<stop  offset="0.836" style="stop-color:#D77700"/>
						<stop  offset="1" style="stop-color:#D67300"/>
					</linearGradient>
					<path fill="url(#SVGID_14_)" d="M56.34,51.19c-1.158,4.303-3.002,11.139-4.305,15.963c-0.881,3.273-0.359,6.645,1.627,8.398
						c9.762,8.635,39.572,35.002,50.461,44.631c2.525,2.232,4.264,2.601,4.264,2.601l3.289-31.084l-53.51-44.053
						C58.166,47.646,56.996,48.761,56.34,51.19z"/>
					
						<linearGradient id="SVGID_15_" gradientUnits="userSpaceOnUse" x1="56.3062" y1="-2.6309" x2="138.0445" y2="-25.7018" gradientTransform="matrix(1 0 0 -1 -50.0498 60.8438)">
						<stop  offset="0.4785" style="stop-color:#FFFF00"/>
						<stop  offset="0.4954" style="stop-color:#FDF700"/>
						<stop  offset="0.5216" style="stop-color:#F6E100"/>
						<stop  offset="0.5539" style="stop-color:#ECBD00"/>
						<stop  offset="0.5908" style="stop-color:#DD8C00"/>
						<stop  offset="0.6074" style="stop-color:#D67300"/>
						<stop  offset="0.6097" style="stop-color:#D67400"/>
						<stop  offset="0.6824" style="stop-color:#DF9200"/>
						<stop  offset="0.7542" style="stop-color:#E5A700"/>
						<stop  offset="0.824" style="stop-color:#E9B400"/>
						<stop  offset="0.8896" style="stop-color:#EAB800"/>
					</linearGradient>
					<path fill="url(#SVGID_15_)" d="M56.34,51.19c-1.158,4.303-3.002,11.139-4.305,15.963c-0.881,3.273-0.359,6.645,1.627,8.398
						c9.762,8.635,39.572,35.002,50.461,44.631c2.525,2.232,4.264,2.601,4.264,2.601l3.289-31.084l-53.51-44.053
						C58.166,47.646,56.996,48.761,56.34,51.19z"/>
					
						<linearGradient id="SVGID_16_" gradientUnits="userSpaceOnUse" x1="164.9912" y1="-16.0825" x2="178.813" y2="-56.1875" gradientTransform="matrix(1 0 0 -1 -49.9087 60.8887)">
						<stop  offset="0" style="stop-color:#FFFF00"/>
						<stop  offset="0.1442" style="stop-color:#F4DA00"/>
						<stop  offset="0.3186" style="stop-color:#E9B500"/>
						<stop  offset="0.4933" style="stop-color:#E19800"/>
						<stop  offset="0.666" style="stop-color:#DB8400"/>
						<stop  offset="0.836" style="stop-color:#D77700"/>
						<stop  offset="1" style="stop-color:#D67300"/>
					</linearGradient>
					<path fill="url(#SVGID_16_)" d="M139.838,83.62c1.301,4.576,3.389,11.941,4.746,16.727c0.789,2.771,0.195,5.242-1.68,6.172
						c-6.873,3.407-23.699,11.75-31.125,15.432c-2.24,1.111-3.393,0.832-3.393,0.832l3.288-31.084l25.861-12.92
						C137.537,78.778,139.139,81.147,139.838,83.62z"/>
					
						<linearGradient id="SVGID_17_" gradientUnits="userSpaceOnUse" x1="141.2021" y1="-147.9814" x2="150.7506" y2="17.5233" gradientTransform="matrix(1 0 0 -1 -50 61)">
						<stop  offset="0.4424" style="stop-color:#FFFF00"/>
						<stop  offset="0.5565" style="stop-color:#F8E700;stop-opacity:0.7954"/>
						<stop  offset="0.7952" style="stop-color:#E6AB00;stop-opacity:0.3673"/>
						<stop  offset="1" style="stop-color:#D67300;stop-opacity:0"/>
					</linearGradient>
					<path fill="url(#SVGID_17_)" d="M142.904,104.366c-6.873,3.405-23.699,11.75-31.125,15.432c-2.24,1.111-3.393,0.83-3.393,0.83
						s-1.738-0.364-4.265-2.601C93.233,108.4,63.423,82.034,53.661,73.399c-1.143-1.008-1.783-2.555-1.969-4.305
						c-0.262,2.602,0.375,5.051,1.969,6.457c9.762,8.635,39.572,35.002,50.461,44.631c2.524,2.232,4.265,2.601,4.265,2.601
						s1.151,0.278,3.393-0.832c7.426-3.683,24.252-12.023,31.125-15.433c1.611-0.799,2.268-2.737,1.922-5.028
						C144.611,102.794,143.975,103.835,142.904,104.366z"/>
					
						<linearGradient id="SVGID_18_" gradientUnits="userSpaceOnUse" x1="137.334" y1="-38.0659" x2="149.8809" y2="3.3052" gradientTransform="matrix(1 0 0 -1 -50 61)">
						<stop  offset="0.4424" style="stop-color:#FFFF00"/>
						<stop  offset="0.5565" style="stop-color:#F8E700;stop-opacity:0.7954"/>
						<stop  offset="0.7952" style="stop-color:#E6AB00;stop-opacity:0.3673"/>
						<stop  offset="1" style="stop-color:#D67300;stop-opacity:0"/>
					</linearGradient>
					<path fill="url(#SVGID_18_)" d="M113.764,89.679c-1.297,0.646-2.729,0.514-3.867-0.424
						c-9.102-7.494-49.971-41.139-49.971-41.139c-1.1,0.439-1.76,0.705-1.76,0.705s39.881,32.83,50.783,41.807
						c1.729,1.424,3.729,1.746,5.336,0.941c6.568-3.279,23.252-11.617,23.252-11.617l-1.682-1.312
						C135.855,78.64,119.631,86.745,113.764,89.679z"/>
					
						<linearGradient id="SVGID_19_" gradientUnits="userSpaceOnUse" x1="120.1846" y1="-77.4111" x2="132.7318" y2="-36.0392" gradientTransform="matrix(1 0 0 -1 -50 61)">
						<stop  offset="0.4424" style="stop-color:#FFFF00"/>
						<stop  offset="0.5565" style="stop-color:#F8E700;stop-opacity:0.7954"/>
						<stop  offset="0.7952" style="stop-color:#E6AB00;stop-opacity:0.3673"/>
						<stop  offset="1" style="stop-color:#D67300;stop-opacity:0"/>
					</linearGradient>
					<path fill="url(#SVGID_19_)" d="M96.613,129.025c-1.293,0.646-2.727,0.515-3.867-0.426c-9.1-7.492-49.971-41.139-49.971-41.139
						c-1.1,0.441-1.76,0.705-1.76,0.705s39.881,32.832,50.785,41.809c1.727,1.422,3.729,1.746,5.336,0.943
						c6.568-3.281,23.25-11.617,23.25-11.617l-1.683-1.312C118.705,117.989,102.482,126.095,96.613,129.025z"/>
				</g>
				
					<linearGradient id="SVGID_20_" gradientUnits="userSpaceOnUse" x1="154.6895" y1="-43.7578" x2="164.191" y2="-45.4751" gradientTransform="matrix(1 0 0 -1 -50 61)">
					<stop  offset="0" style="stop-color:#FFA800;stop-opacity:0"/>
					<stop  offset="0.5212" style="stop-color:#FFFF00;stop-opacity:0.62"/>
					<stop  offset="0.5384" style="stop-color:#FFFA00;stop-opacity:0.5978"/>
					<stop  offset="0.6562" style="stop-color:#FFDD00;stop-opacity:0.4452"/>
					<stop  offset="0.7733" style="stop-color:#FFC900;stop-opacity:0.2935"/>
					<stop  offset="0.8887" style="stop-color:#FFBC00;stop-opacity:0.1442"/>
					<stop  offset="1" style="stop-color:#FFB800;stop-opacity:0"/>
				</linearGradient>
				<path fill="url(#SVGID_20_)" d="M104.299,120.085c0,0,1.953,2.039,4.139,2.313c2.269,0.287,4.771-1.194,4.771-1.194
					l2.986-31.336l-4.521,1.83l-4.053-3.256L104.299,120.085z"/>
			</g>
		</g>
	</g>
</g>
<g id="outline_x5F_white">
	<g>
		<path fill="#FFFFFF" d="M83.046,38.119c1.448,0,2.926,0.51,4.204,1.412l50.287,39.248c0,0,1.602,2.369,2.301,4.842
			c0.195,0.68,0.406,1.436,0.629,2.221l17.811,13.896c0,0,1.601,2.369,2.302,4.842c1.301,4.578,3.389,11.939,4.748,16.729
			c0.784,2.771,0.19,5.242-1.685,6.17c-6.871,3.408-23.694,11.75-31.123,15.433c-1.488,0.739-2.498,0.862-3.008,0.862
			c-0.256,0-0.385-0.03-0.385-0.03s-0.621-0.142-1.641-0.707c-0.266,1.153-0.885,2.065-1.867,2.555
			c-6.871,3.406-23.697,11.748-31.123,15.431c-1.492,0.738-2.501,0.862-3.009,0.862c-0.255,0-0.384-0.03-0.384-0.03
			s-1.74-0.365-4.266-2.603c-10.887-9.627-40.699-35.994-50.465-44.627c-1.98-1.756-2.506-5.125-1.623-8.399
			c1.301-4.824,3.145-11.659,4.307-15.964c0.654-2.432,1.824-3.545,1.824-3.545s9.852-3.943,17.477-7.008
			c-1.844-1.627-3.438-3.041-4.695-4.154c-1.986-1.754-2.508-5.125-1.627-8.398c1.303-4.824,3.146-11.66,4.305-15.963
			c0.656-2.43,1.826-3.545,1.826-3.545s15.586-6.242,22.727-9.117C81.583,38.25,82.311,38.119,83.046,38.119 M83.046,26.119
			c-2.298,0-4.531,0.43-6.638,1.279c-7.132,2.872-22.704,9.108-22.704,9.108c-1.417,0.567-2.713,1.4-3.818,2.454
			c-1.082,1.032-3.749,3.984-5.131,9.102c-1.16,4.31-3.003,11.142-4.305,15.963c-0.934,3.471-1.07,6.932-0.474,10.125
			c-2.154,0.863-3.555,1.424-3.555,1.424c-1.415,0.566-2.709,1.397-3.813,2.448c-1.085,1.033-3.759,3.989-5.14,9.12L23.163,103.1
			c-2.127,7.892-0.116,15.748,5.249,20.504c6.468,5.717,21.682,19.172,34.398,30.418l16.078,14.219
			c4.17,3.691,7.779,4.923,9.63,5.33c0.94,0.207,1.938,0.312,2.969,0.312c2.706,0,5.511-0.71,8.338-2.111l31.124-15.431
			c0.506-0.251,0.994-0.528,1.465-0.832c1.792-0.323,3.613-0.942,5.441-1.851c7.422-3.68,24.248-12.021,31.119-15.43
			c7.139-3.533,10.316-11.648,7.896-20.19l-1.586-5.587l-3.165-11.15c-1.136-4.004-3.271-7.348-3.897-8.277
			c-0.705-1.044-1.57-1.971-2.563-2.746l-14.796-11.544c-1.178-3.274-2.844-5.872-3.385-6.674c-0.705-1.042-1.567-1.966-2.56-2.739
			L94.633,30.07c-0.152-0.119-0.309-0.235-0.467-0.347C90.821,27.365,86.977,26.119,83.046,26.119L83.046,26.119z"/>
	</g>
</g>
<g id="outline_x5F_black">
	<path d="M83.046,38.119c1.448,0,2.926,0.51,4.204,1.412l50.287,39.248c0,0,1.602,2.369,2.301,4.842
		c0.195,0.68,0.406,1.436,0.629,2.221l17.811,13.896c0,0,1.601,2.369,2.302,4.842c1.301,4.578,3.389,11.939,4.748,16.729
		c0.784,2.771,0.19,5.242-1.685,6.17c-6.871,3.408-23.694,11.75-31.123,15.433c-1.488,0.739-2.498,0.862-3.008,0.862
		c-0.256,0-0.385-0.03-0.385-0.03s-0.621-0.142-1.641-0.707c-0.266,1.153-0.885,2.065-1.867,2.555
		c-6.871,3.406-23.697,11.748-31.123,15.431c-1.492,0.738-2.501,0.862-3.009,0.862c-0.255,0-0.384-0.03-0.384-0.03
		s-1.74-0.365-4.266-2.603c-10.887-9.627-40.699-35.994-50.465-44.627c-1.98-1.756-2.506-5.125-1.623-8.399
		c1.301-4.824,3.145-11.659,4.307-15.964c0.654-2.432,1.824-3.545,1.824-3.545s9.852-3.943,17.477-7.008
		c-1.844-1.627-3.438-3.041-4.695-4.154c-1.986-1.754-2.508-5.125-1.627-8.398c1.303-4.824,3.146-11.66,4.305-15.963
		c0.656-2.43,1.826-3.545,1.826-3.545s15.586-6.242,22.727-9.117C81.583,38.25,82.311,38.119,83.046,38.119 M83.046,32.119
		c-1.526,0-3.005,0.284-4.396,0.844c-7.136,2.874-22.715,9.113-22.715,9.113c-0.709,0.284-1.356,0.7-1.909,1.227
		c-0.56,0.533-2.464,2.565-3.479,6.323c-1.159,4.306-3.002,11.14-4.305,15.963c-1.189,4.419-0.658,8.746,1.351,11.972
		c-4.905,1.967-8.942,3.583-8.942,3.583c-0.708,0.283-1.354,0.698-1.907,1.224c-0.561,0.533-2.469,2.567-3.482,6.333
		c-1.161,4.3-3.005,11.135-4.306,15.959c-1.531,5.679-0.214,11.217,3.436,14.451c6.45,5.703,21.621,19.119,34.324,30.354
		l16.146,14.279c3.269,2.894,5.886,3.729,6.932,3.962c0.521,0.117,1.089,0.176,1.692,0.176c1.773,0,3.682-0.5,5.673-1.486
		l31.124-15.431c0.673-0.335,1.292-0.741,1.853-1.213c1.597-0.103,3.292-0.596,5.052-1.469c7.424-3.681,24.25-12.022,31.121-15.431
		c4.469-2.213,6.396-7.511,4.789-13.182l-1.596-5.625l-3.152-11.107c-0.937-3.298-2.882-6.234-3.101-6.56
		c-0.353-0.522-0.785-0.985-1.282-1.373l-16.262-12.688c-0.034-0.12-0.068-0.239-0.102-0.355c-0.929-3.281-2.877-6.221-3.098-6.545
		c-0.352-0.521-0.783-0.983-1.279-1.37L90.941,34.8c-0.076-0.06-0.154-0.118-0.233-0.173C88.381,32.986,85.731,32.119,83.046,32.119
		L83.046,32.119z"/>
</g>
</svg>
