<?xml version="1.0" encoding="utf-8"?>
<!-- Generator: Adobe Illustrator 15.0.0, SVG Export Plug-In . SVG Version: 6.00 Build 0)  -->
<!DOCTYPE svg PUBLIC "-//W3C//DTD SVG 1.1//EN" "http://www.w3.org/Graphics/SVG/1.1/DTD/svg11.dtd">
<svg version="1.1" xmlns="http://www.w3.org/2000/svg" xmlns:xlink="http://www.w3.org/1999/xlink" x="0px" y="0px" width="200px"
	 height="200px" viewBox="0 0 200 200" enable-background="new 0 0 200 200" xml:space="preserve">
<g id="icon">
	<g id="Layer_2">
	</g>
	<g>
		
			<linearGradient id="SVGID_1_" gradientUnits="userSpaceOnUse" x1="469.2773" y1="-1047.3184" x2="579.8729" y2="-1047.3184" gradientTransform="matrix(0.7071 0.7071 0.7071 -0.7071 464.6259 -1004.0503)">
			<stop  offset="0" style="stop-color:#CF7900"/>
			<stop  offset="0.1273" style="stop-color:#FFC000"/>
			<stop  offset="0.2638" style="stop-color:#FFCF00"/>
			<stop  offset="0.4424" style="stop-color:#D27700"/>
			<stop  offset="0.6364" style="stop-color:#E88800"/>
			<stop  offset="0.7232" style="stop-color:#FDCA00"/>
			<stop  offset="0.8303" style="stop-color:#FFA700"/>
			<stop  offset="1" style="stop-color:#BD6A00"/>
		</linearGradient>
		<path fill="url(#SVGID_1_)" d="M126.379,73.172c24.041,24.04,22.555,66.196,22.555,66.196
			c-1.137,1.132-14.188,12.327-15.436,13.28c-18.785,14.315-50.234,8.705-72.76-13.821C38.207,116.289,32.592,84.845,46.907,66.06
			c0.957-1.246,10.671-12.45,11.802-13.579C58.709,52.481,102.348,49.142,126.379,73.172z"/>
		
			<linearGradient id="SVGID_2_" gradientUnits="userSpaceOnUse" x1="-1263.5312" y1="-1125.8486" x2="-1282.1752" y2="-1101.2385" gradientTransform="matrix(1 0 0 -1 956.3428 -1574.3672)">
			<stop  offset="0" style="stop-color:#FFDE00"/>
			<stop  offset="1" style="stop-color:#C77400"/>
		</linearGradient>
		<path fill="url(#SVGID_2_)" d="M138.029,61.528c24.509,24.509,29.392,59.356,10.904,77.84
			c-18.485,18.487-53.333,13.603-77.841-10.906c-24.506-24.505-29.391-59.353-10.907-77.837
			C78.674,32.138,113.523,37.021,138.029,61.528z"/>
		
			<linearGradient id="SVGID_3_" gradientUnits="userSpaceOnUse" x1="661.2002" y1="-1208.2407" x2="708.9207" y2="-1269.3828" gradientTransform="matrix(0.7071 0.7071 0.7071 -0.7071 464.6259 -1004.0503)">
			<stop  offset="0" style="stop-color:#FFDE00"/>
			<stop  offset="1" style="stop-color:#C77400"/>
		</linearGradient>
		<path fill="url(#SVGID_3_)" d="M133.211,66.348c20.98,20.98,25.532,50.443,10.164,65.812
			c-15.363,15.363-44.83,10.816-65.811-10.165C56.584,101.016,52.036,71.549,67.4,56.184
			C82.769,40.815,112.23,45.369,133.211,66.348z"/>
		
			<radialGradient id="SVGID_4_" cx="-809.272" cy="-1701.5566" r="75.9848" gradientTransform="matrix(1 0 0 -1 956.3428 -1574.3672)" gradientUnits="userSpaceOnUse">
			<stop  offset="0" style="stop-color:#FFA800"/>
			<stop  offset="1" style="stop-color:#944D00"/>
		</radialGradient>
		<path fill="url(#SVGID_4_)" d="M133.211,66.348C112.234,45.371,82.769,40.816,67.403,56.18c-0.374,0.373-0.722,0.761-1.073,1.148
			c15.655-14.045,44.202-9.23,64.667,11.234c20.47,20.47,25.285,49.016,11.229,64.667c0.393-0.35,0.777-0.699,1.151-1.073
			C158.743,116.791,154.186,87.324,133.211,66.348z"/>
		
			<linearGradient id="SVGID_5_" gradientUnits="userSpaceOnUse" x1="318.5117" y1="144.1533" x2="313.2137" y2="136.2072" gradientTransform="matrix(0.7071 0.7071 0.7071 -0.7071 -229.7531 -26.8286)">
			<stop  offset="0" style="stop-color:#FFDE00"/>
			<stop  offset="1" style="stop-color:#C77400"/>
		</linearGradient>
		<path fill="url(#SVGID_5_)" d="M126.1,128.97c-0.201,0.496-1.367,1.369-3.498,2.604c-0.069,0.015-0.729,0.305-1.986,0.861
			c-0.874,0.396-1.493,0.604-1.863,0.619c-1.309-2.728-2.988-6.197-5.054-10.428l-0.146-0.345
			c-3.666,0.116-7.494-0.804-11.482-2.746c-3.994-1.938-6.542-4.175-7.665-6.685c-0.893-2.018-1.224-3.393-0.989-4.109
			c0.4-1.294,2.186-2.795,5.361-4.479c0.492,0.396,0.939,1.016,1.354,1.879c0.298,0.588,0.654,1.412,1.063,2.502
			c0.427,1.182,0.695,1.924,0.832,2.22c1.828,4.124,4.85,5.849,9.072,5.192l-0.649-2.391c-0.687-1.55-2.532-5.87-5.567-13.012
			c-1.624-3.88-3.224-7.494-4.815-10.844c-4.333-0.919-7.425-1.812-9.256-2.662c-3.331-1.575-5.691-3.91-7.073-7.021
			c-1.96-4.396,0.246-8.676,6.586-12.853l-4.073-9.162c0.139-0.178,0.376-0.318,0.719-0.426c0.733-0.228,1.832-0.311,3.262-0.241
			l4.078-0.091c0.145,0.862,0.279,1.447,0.411,1.748c0.885,1.917,1.714,3.817,2.485,5.703c3.506,0.168,7.205,1.054,11.077,2.657
			c0.041,0.089,0.175,0.345,0.415,0.758c0.236,0.426,0.421,0.777,0.554,1.07c0.841,1.899,0.286,3.273-1.673,4.108
			c-0.116-0.032-1.223-0.436-3.297-1.213c-1.635-0.636-2.84-0.849-3.608-0.606c-0.206,0.067-0.383,0.172-0.537,0.327l1.989,4.838
			c0.043,0.155,0.303,0.9,0.789,2.239c0.352,1.106,0.73,2.064,1.133,2.889l0.116,0.264c11.202,3.034,18.433,8.2,21.69,15.525
			c1.602,3.593,2.069,7.444,1.422,11.551c-0.696,4.527-2.651,7.981-5.879,10.353C124.495,125.738,126.061,128.88,126.1,128.97z
			 M96.139,80.384l-2.488-5.603c-0.588,0.448-1.235,1.044-1.939,1.767c-0.504,1.021-0.632,1.821-0.385,2.395
			c0.237,0.532,0.977,1.091,2.218,1.693L96.139,80.384z M108.6,91.778c2.732,6.177,5.327,12.125,7.785,17.879
			c0.219,0.573,0.836,1.85,1.854,3.829c3.949-2.758,4.699-6.885,2.268-12.372C118.633,96.9,114.663,93.792,108.6,91.778z"/>
		<path fill="#FFF200" d="M115.701,111.137c0.229,0.567,0.838,1.842,1.861,3.825c1.647-1.157,2.73-2.555,3.277-4.177
			c-0.619,1.005-1.472,1.915-2.6,2.697c-1.021-1.981-1.635-3.25-1.85-3.818c-2.176-5.104-4.472-10.389-6.871-15.814
			c-0.52-0.202-1.035-0.405-1.595-0.594C110.659,99.417,113.258,105.391,115.701,111.137z"/>
		<path fill="#FFF200" d="M89.543,58.915l4.073-0.097c0.146,0.863,0.278,1.451,0.409,1.75c0.891,1.921,1.717,3.817,2.482,5.704
			c3.508,0.167,7.204,1.056,11.08,2.651c0.044,0.095,0.173,0.355,0.415,0.758c0.243,0.429,0.416,0.78,0.553,1.079
			c0.281,0.635,0.396,1.217,0.362,1.73c0.798-0.809,0.911-1.875,0.315-3.215c-0.125-0.294-0.311-0.648-0.549-1.069
			c-0.24-0.42-0.375-0.669-0.41-0.762c-3.879-1.599-7.572-2.489-11.081-2.65c-0.771-1.886-1.603-3.8-2.487-5.705
			c-0.128-0.306-0.261-0.89-0.409-1.758l-4.074,0.099c-1.432-0.062-2.53,0.012-3.27,0.239c-0.342,0.108-0.568,0.252-0.713,0.423
			l0.432,0.97C87.389,58.918,88.334,58.859,89.543,58.915z"/>
		<path fill="#FFF200" d="M89.642,68.742l-0.349-0.771c-3.11,2.219-5.064,4.464-5.847,6.74C84.589,72.7,86.644,70.71,89.642,68.742z
			"/>
		<path fill="#FFF200" d="M102.006,110.852c-0.133-0.302-0.404-1.045-0.829-2.225c-0.409-1.088-0.762-1.914-1.066-2.504
			c-0.409-0.855-0.853-1.477-1.348-1.867c-3.163,1.688-4.957,3.18-5.355,4.479c-0.029,0.109-0.029,0.259-0.041,0.381
			c0.832-1.025,2.41-2.151,4.723-3.383c0.487,0.395,0.928,1.016,1.334,1.862c0.301,0.587,0.659,1.419,1.075,2.503
			c0.421,1.188,0.698,1.938,0.823,2.227c1.836,4.127,4.859,5.854,9.08,5.189l-0.377-1.381
			C106.369,116.354,103.682,114.617,102.006,110.852z"/>
		<path fill="#FFF200" d="M125.843,97.642c-3.256-7.325-10.479-12.495-21.69-15.526l-0.119-0.258
			c-0.396-0.831-0.774-1.791-1.129-2.89c-0.488-1.34-0.75-2.083-0.781-2.245l-1.561-3.771c-0.208,0.013-0.409,0.033-0.577,0.087
			c-0.214,0.067-0.388,0.168-0.542,0.322l1.992,4.845c0.041,0.155,0.295,0.9,0.785,2.234c0.361,1.101,0.729,2.063,1.137,2.89
			l0.121,0.27c11.205,3.029,18.433,8.204,21.688,15.522c1.601,3.592,2.069,7.442,1.429,11.546c-0.229,1.479-0.611,2.839-1.107,4.079
			c0.859-1.618,1.453-3.47,1.779-5.56C127.907,105.081,127.445,101.238,125.843,97.642z"/>
		<path fill="#FFF200" d="M120.714,121.025c2.403,4.811,3.888,7.771,4.444,8.899c0.521-0.409,0.84-0.728,0.938-0.956
			c-0.035-0.083-1.496-3.017-4.373-8.767C121.404,120.484,121.074,120.764,120.714,121.025z"/>
		<path fill="#FFF200" d="M91.03,78.015c-0.504,1.038-0.623,1.84-0.379,2.408c0.232,0.528,0.974,1.091,2.214,1.69l2.595-0.252
			l-0.594-1.348l-1.319,0.121c-1.244-0.6-1.983-1.159-2.215-1.698c-0.137-0.313-0.154-0.699-0.061-1.148
			C91.184,77.875,91.109,77.938,91.03,78.015z"/>
		
			<linearGradient id="SVGID_6_" gradientUnits="userSpaceOnUse" x1="-880.9424" y1="-1613.5479" x2="-842.1011" y2="-1660.0394" gradientTransform="matrix(1 0 0 -1 956.3428 -1574.3672)">
			<stop  offset="0" style="stop-color:#964F00"/>
			<stop  offset="0.0606" style="stop-color:#FFA800"/>
			<stop  offset="0.1273" style="stop-color:#FFA800"/>
			<stop  offset="0.4424" style="stop-color:#944D00"/>
			<stop  offset="0.6364" style="stop-color:#9A5200"/>
			<stop  offset="0.6414" style="stop-color:#A95F00"/>
			<stop  offset="0.6523" style="stop-color:#C47500"/>
			<stop  offset="0.6649" style="stop-color:#DA8800"/>
			<stop  offset="0.6796" style="stop-color:#EB9700"/>
			<stop  offset="0.6977" style="stop-color:#F6A100"/>
			<stop  offset="0.7232" style="stop-color:#FDA600"/>
			<stop  offset="0.7939" style="stop-color:#FFA800"/>
			<stop  offset="0.8303" style="stop-color:#CF7F00"/>
			<stop  offset="1" style="stop-color:#9E5600"/>
		</linearGradient>
		<path fill="url(#SVGID_6_)" d="M105.468,74.764c0.851-0.366,1.419-0.833,1.739-1.396c-0.424-0.149-1.443-0.529-3.082-1.133
			c-1.631-0.641-2.838-0.847-3.607-0.613c-0.212,0.064-0.393,0.171-0.541,0.319l0.443,1.069c0.518,0.119,1.079,0.287,1.74,0.539
			C104.25,74.332,105.346,74.733,105.468,74.764z"/>
		
			<linearGradient id="SVGID_7_" gradientUnits="userSpaceOnUse" x1="-889.2505" y1="-1620.4731" x2="-850.3946" y2="-1666.9827" gradientTransform="matrix(1 0 0 -1 956.3428 -1574.3672)">
			<stop  offset="0" style="stop-color:#964F00"/>
			<stop  offset="0.0606" style="stop-color:#FFA800"/>
			<stop  offset="0.1273" style="stop-color:#FFA800"/>
			<stop  offset="0.4424" style="stop-color:#944D00"/>
			<stop  offset="0.6364" style="stop-color:#9A5200"/>
			<stop  offset="0.6414" style="stop-color:#A95F00"/>
			<stop  offset="0.6523" style="stop-color:#C47500"/>
			<stop  offset="0.6649" style="stop-color:#DA8800"/>
			<stop  offset="0.6796" style="stop-color:#EB9700"/>
			<stop  offset="0.6977" style="stop-color:#F6A100"/>
			<stop  offset="0.7232" style="stop-color:#FDA600"/>
			<stop  offset="0.7939" style="stop-color:#FFA800"/>
			<stop  offset="0.8303" style="stop-color:#CF7F00"/>
			<stop  offset="1" style="stop-color:#9E5600"/>
		</linearGradient>
		<path fill="url(#SVGID_7_)" d="M93.512,74.846c-0.551,0.419-1.16,0.98-1.815,1.634l1.867,4.197l2.441-0.229L93.512,74.846z"/>
		
			<linearGradient id="SVGID_8_" gradientUnits="userSpaceOnUse" x1="-888.4517" y1="-1619.8677" x2="-849.626" y2="-1666.3408" gradientTransform="matrix(1 0 0 -1 956.3428 -1574.3672)">
			<stop  offset="0" style="stop-color:#964F00"/>
			<stop  offset="0.0606" style="stop-color:#FFA800"/>
			<stop  offset="0.1273" style="stop-color:#FFA800"/>
			<stop  offset="0.4424" style="stop-color:#944D00"/>
			<stop  offset="0.6364" style="stop-color:#9A5200"/>
			<stop  offset="0.6414" style="stop-color:#A95F00"/>
			<stop  offset="0.6523" style="stop-color:#C47500"/>
			<stop  offset="0.6649" style="stop-color:#DA8800"/>
			<stop  offset="0.6796" style="stop-color:#EB9700"/>
			<stop  offset="0.6977" style="stop-color:#F6A100"/>
			<stop  offset="0.7232" style="stop-color:#FDA600"/>
			<stop  offset="0.7939" style="stop-color:#FFA800"/>
			<stop  offset="0.8303" style="stop-color:#CF7F00"/>
			<stop  offset="1" style="stop-color:#9E5600"/>
		</linearGradient>
		<path fill="url(#SVGID_8_)" d="M118.1,113.553c3.948-2.768,4.705-6.896,2.272-12.383c-1.876-4.217-5.843-7.328-11.912-9.33
			c0.383,0.852,0.745,1.693,1.121,2.531c4.335,1.974,7.292,4.665,8.821,8.111c2.005,4.507,1.848,8.091-0.451,10.764
			C118,113.355,118.047,113.441,118.1,113.553z"/>
		
			<linearGradient id="SVGID_9_" gradientUnits="userSpaceOnUse" x1="-903.0947" y1="-1632.0605" x2="-864.2486" y2="-1678.5582" gradientTransform="matrix(1 0 0 -1 956.3428 -1574.3672)">
			<stop  offset="0" style="stop-color:#964F00"/>
			<stop  offset="0.0606" style="stop-color:#FFA800"/>
			<stop  offset="0.1273" style="stop-color:#FFA800"/>
			<stop  offset="0.4424" style="stop-color:#944D00"/>
			<stop  offset="0.6364" style="stop-color:#9A5200"/>
			<stop  offset="0.6414" style="stop-color:#A95F00"/>
			<stop  offset="0.6523" style="stop-color:#C47500"/>
			<stop  offset="0.6649" style="stop-color:#DA8800"/>
			<stop  offset="0.6796" style="stop-color:#EB9700"/>
			<stop  offset="0.6977" style="stop-color:#F6A100"/>
			<stop  offset="0.7232" style="stop-color:#FDA600"/>
			<stop  offset="0.7939" style="stop-color:#FFA800"/>
			<stop  offset="0.8303" style="stop-color:#CF7F00"/>
			<stop  offset="1" style="stop-color:#9E5600"/>
		</linearGradient>
		<path fill="url(#SVGID_9_)" d="M122.452,131.629c-0.065,0.021-0.72,0.305-1.979,0.861c-0.875,0.404-1.49,0.607-1.865,0.623
			c-1.299-2.735-2.989-6.209-5.055-10.428l-0.145-0.347c-3.665,0.113-7.49-0.803-11.48-2.746c-3.998-1.94-6.552-4.168-7.66-6.688
			c-0.901-2.019-1.223-3.383-0.991-4.092c0.217-0.732,0.89-1.521,1.991-2.367c-2.296,1.355-3.618,2.586-3.954,3.685
			c-0.236,0.711,0.092,2.072,0.988,4.088c1.116,2.527,3.665,4.745,7.65,6.688c4.004,1.949,7.827,2.857,11.495,2.742l0.15,0.353
			c2.057,4.213,3.745,7.698,5.043,10.427c0.381-0.012,1.004-0.227,1.879-0.615c1.244-0.562,1.912-0.838,1.979-0.863
			c1.247-0.725,2.154-1.312,2.743-1.782C122.992,131.312,122.734,131.466,122.452,131.629z"/>
		
			<linearGradient id="SVGID_10_" gradientUnits="userSpaceOnUse" x1="-891.6704" y1="-1622.541" x2="-852.8413" y2="-1669.0181" gradientTransform="matrix(1 0 0 -1 956.3428 -1574.3672)">
			<stop  offset="0" style="stop-color:#964F00"/>
			<stop  offset="0.0606" style="stop-color:#FFA800"/>
			<stop  offset="0.1273" style="stop-color:#FFA800"/>
			<stop  offset="0.4424" style="stop-color:#944D00"/>
			<stop  offset="0.6364" style="stop-color:#9A5200"/>
			<stop  offset="0.6414" style="stop-color:#A95F00"/>
			<stop  offset="0.6523" style="stop-color:#C47500"/>
			<stop  offset="0.6649" style="stop-color:#DA8800"/>
			<stop  offset="0.6796" style="stop-color:#EB9700"/>
			<stop  offset="0.6977" style="stop-color:#F6A100"/>
			<stop  offset="0.7232" style="stop-color:#FDA600"/>
			<stop  offset="0.7939" style="stop-color:#FFA800"/>
			<stop  offset="0.8303" style="stop-color:#CF7F00"/>
			<stop  offset="1" style="stop-color:#9E5600"/>
		</linearGradient>
		<path fill="url(#SVGID_10_)" d="M102.777,102.036c3.029,7.126,4.882,11.46,5.565,13.004l0.322,1.155
			c0.724,0.057,1.469,0.035,2.289-0.084l-0.64-2.385c-0.69-1.547-2.535-5.875-5.576-13.007c-1.622-3.886-3.227-7.499-4.821-10.855
			c-4.333-0.915-7.418-1.81-9.25-2.655c-3.34-1.573-5.691-3.912-7.073-7.029c-1.952-4.395,0.246-8.668,6.583-12.851l-3.774-8.506
			c-0.623,0.041-1.142,0.115-1.545,0.236c-0.336,0.114-0.571,0.256-0.71,0.428l4.069,9.171c-6.343,4.176-8.546,8.452-6.595,12.834
			c1.385,3.126,3.746,5.463,7.076,7.031c1.838,0.849,4.92,1.737,9.257,2.663C99.554,94.534,101.162,98.147,102.777,102.036z"/>
	</g>
</g>
<g id="outline_x5F_white">
	<path fill="#FFFFFF" d="M89.125,39.791c16.107,0,34.105,7.586,48.51,21.99c24.369,24.37,29.223,59.025,10.844,77.408
		c-0.078,0.076-0.215,0.203-0.393,0.365c-0.799,0.775-1.633,1.506-2.49,2.195c-4.217,3.674-11.551,9.936-12.471,10.639
		c-6.902,5.264-15.521,7.818-24.781,7.818c-15.796,0-33.446-7.438-47.571-21.564C38.369,116.238,32.785,84.967,47.027,66.29
		c0.725-0.949,6.5-7.643,9.704-11.271c1.059-1.43,2.212-2.799,3.495-4.08C67.742,43.422,77.981,39.791,89.125,39.791 M89.125,27.791
		c-14.652,0-27.93,5.208-37.385,14.664c-1.524,1.521-2.945,3.16-4.33,4.991c-2.452,2.786-8.768,10.052-9.923,11.564
		c-18.086,23.717-11.722,61.598,14.799,88.12c15.938,15.938,36.37,25.08,56.057,25.08c12.156,0,23.242-3.555,32.06-10.278
		c1.479-1.13,9.644-8.142,12.912-10.988c1.078-0.877,2.062-1.745,3-2.649c0.24-0.224,0.428-0.396,0.541-0.51
		c0.037-0.035,0.072-0.07,0.108-0.107c11.615-11.616,16.589-28.17,14.007-46.606c-2.408-17.188-11.231-34.151-24.852-47.771
		C129.911,37.087,109.139,27.791,89.125,27.791L89.125,27.791z"/>
</g>
<g id="outline_x5F_black">
	<path d="M89.125,39.791c16.107,0,34.105,7.586,48.51,21.99c24.369,24.37,29.223,59.025,10.844,77.408
		c-0.078,0.076-0.215,0.203-0.393,0.365c-0.799,0.775-1.633,1.506-2.49,2.195c-4.217,3.674-11.551,9.936-12.471,10.639
		c-6.902,5.266-15.521,7.818-24.781,7.818c-15.796,0-33.446-7.438-47.571-21.564C38.369,116.238,32.785,84.967,47.027,66.29
		c0.725-0.949,6.5-7.643,9.704-11.271c1.059-1.43,2.212-2.799,3.495-4.08C67.742,43.422,77.981,39.791,89.125,39.791 M89.125,33.791
		c-13.239,0-24.699,4.463-33.143,12.906c-1.375,1.374-2.659,2.861-3.915,4.54c-2.866,3.251-8.891,10.21-9.81,11.414
		c-16.271,21.336-10.134,55.828,14.273,80.234c14.821,14.822,33.706,23.324,51.813,23.324c10.83,0,20.658-3.129,28.421-9.049
		c1.152-0.883,8.812-7.436,12.688-10.811c0.995-0.809,1.896-1.604,2.748-2.43c0.209-0.189,0.37-0.342,0.467-0.438
		c0.019-0.018,0.036-0.035,0.054-0.055c10.252-10.254,14.623-25.004,12.309-41.533c-2.229-15.902-10.449-31.656-23.15-44.358
		C126.785,42.447,107.559,33.791,89.125,33.791L89.125,33.791z"/>
</g>
</svg>
