<?xml version="1.0" encoding="utf-8"?>
<!-- Generator: Adobe Illustrator 15.0.0, SVG Export Plug-In . SVG Version: 6.00 Build 0)  -->
<!DOCTYPE svg PUBLIC "-//W3C//DTD SVG 1.1//EN" "http://www.w3.org/Graphics/SVG/1.1/DTD/svg11.dtd">
<svg version="1.1" id="Layer_1" xmlns="http://www.w3.org/2000/svg" xmlns:xlink="http://www.w3.org/1999/xlink" x="0px" y="0px"
	 width="200px" height="200px" viewBox="0 0 200 200" enable-background="new 0 0 200 200" xml:space="preserve">
<g id="icon">
	<g id="Layer_2">
	</g>
	<g>
		<path fill="#8D385D" d="M97.824,168.061c-3.144,0-6.308-0.463-9.403-1.377c-0.521-0.156-1.039-0.319-1.554-0.5l-1.047-0.363
			c-1.438,0.66-3.023,0.992-4.733,0.992c-5.986,0-12.177-3.965-17.975-8.248c-2.188-1.616-4.156-2.53-5.893-3.338
			c-2.72-1.264-5.515-2.562-7.037-6.014l-0.355,0.064c-1.604,0.283-3.162,0.424-4.675,0.424c-7.011,0-13.179-2.919-17.367-8.221
			c-5.097-6.451-6.621-15.463-4.294-25.391c0.043-0.3,0.088-0.58,0.131-0.829c-4.307-8.37-8.405-24.406-5.423-34.85
			c1.071-3.75,2.97-6.484,5.65-8.139c0.324-8.775,3.78-15.651,9.641-19.056c0.158-0.1,0.32-0.188,0.484-0.264
			c1.643-0.881,3.441-1.475,5.349-1.767c0.238-0.061,0.456-0.115,0.651-0.161c0.825-0.917,1.723-1.742,2.68-2.46
			c3.263-2.455,7.14-3.7,11.522-3.7c0.833,0,1.687,0.047,2.553,0.139c4.929-4.277,11.292-6.529,18.501-6.529
			c8.637,0,17.335,3.274,23.268,8.759c1.678,1.551,3.126,3.326,4.525,5.042c2.138,2.621,4.156,5.096,6.623,6.337
			c1.377,0.692,3.277,1.069,5.119,1.433c2.479,0.491,4.82,0.954,6.506,2.276c1.291,1.013,2.19,2.314,2.854,3.492l1.688,0.87
			c0.205,0.095,0.479,0.234,0.75,0.386l0.117,0.064c4.523,2.6,6.836,7.543,8.877,11.904c1.032,2.209,2.01,4.295,3.166,5.93
			c0.461,0.651,1.067,0.953,2.191,1.474c0.914,0.423,1.951,0.903,2.982,1.735c7.17,5.788,12.773,24.891,5.646,35.743
			c-0.046,0.069-0.092,0.14-0.14,0.205l0.729,3.569l-0.012,0.029c1.993,11.199-0.151,21.594-5.938,28.629
			c-4.145,5.037-9.836,7.812-16.031,7.812l0,0c-2.838,0-5.744-0.577-8.641-1.714c-0.414-0.146-0.859-0.335-1.326-0.56
			c-0.482-0.217-1.009-0.472-1.533-0.744C111.766,165.568,105.045,168.061,97.824,168.061z"/>
		<path fill="#8D385D" d="M153.029,150.723c-1.481,0-3.006-0.184-4.53-0.546l-2.247-0.534l-0.059-2.309
			c-0.055-2.176,0.307-3.941,0.625-5.5c0.199-0.977,0.39-1.898,0.459-2.844c0.229-3.104-0.312-6.338-0.791-9.191
			c-0.412-2.456-0.77-4.576-0.646-6.449c0.104-1.646,0.807-3.025,1.369-4.137c0.229-0.445,0.461-0.906,0.538-1.171
			c2.854-9.784,0.705-20.364-5.229-25.726c-0.425-0.382-1.039-0.731-1.752-1.137c-1.022-0.581-2.184-1.239-3.303-2.281
			c-2.428-2.257-3.885-5.567-5.294-8.77c-1.142-2.588-2.315-5.265-3.92-7.157c-0.209-0.246-0.692-0.634-1.122-0.976
			c-0.463-0.37-0.982-0.786-1.475-1.256l-2.535-2.205c-1.479-0.769-2.573-1.864-3.551-2.842c-1.057-1.061-1.971-1.978-3.24-2.396
			c-1.113-0.367-2.322-0.551-3.604-0.746c-2.461-0.375-5.25-0.801-7.699-2.696c-1.807-1.399-2.817-3.128-3.633-4.517
			c-0.67-1.142-1.198-2.043-1.988-2.596l-1.154-0.808l-0.08-0.965l-0.89-1.168c-3.773-2.987-7.396-5.76-12.934-6.271l-5.977-0.551
			l4.028-4.449c4.312-4.764,10.677-7.388,17.921-7.388c5.822,0,11.81,1.644,16.958,4.641l4.556-0.002
			c13.089,0,21.104,6.183,27.216,12.27c0.799,0.675,1.137,1.415,1.264,2.03c3.287,2.311,5.875,5.478,7.717,9.445l0.285,0.143
			l0.274,1.143c0.216,0.526,0.42,1.062,0.612,1.617l0.834,2.407c5.336,3.969,8.203,10.528,7.732,17.891
			c-0.029,0.466-0.072,0.94-0.129,1.423c7.479,2.557,12.155,11.325,12.877,19.219c0.141,1.543,0.092,3.131-0.15,4.838l0.734,3.383
			c2.45,9.14,1.299,19.373-2.884,25.502c-2.38,3.489-5.606,5.548-9.333,5.95c-0.074,0.008-0.146,0.016-0.223,0.021l-2.596,2.205
			C162.186,148.889,157.798,150.723,153.029,150.723z"/>
		
			<radialGradient id="SVGID_1_" cx="64.0571" cy="564.334" r="111.3717" gradientTransform="matrix(0.9635 0 0 1.1374 34.7427 -580.9431)" gradientUnits="userSpaceOnUse">
			<stop  offset="0" style="stop-color:#FFC2E1"/>
			<stop  offset="0.1711" style="stop-color:#FDBFDD"/>
			<stop  offset="0.324" style="stop-color:#F6B6D3"/>
			<stop  offset="0.4698" style="stop-color:#ECA7C0"/>
			<stop  offset="0.6106" style="stop-color:#DC92A7"/>
			<stop  offset="0.638" style="stop-color:#D98DA1"/>
			<stop  offset="0.6975" style="stop-color:#CE8195"/>
			<stop  offset="0.8049" style="stop-color:#B06177"/>
			<stop  offset="0.8282" style="stop-color:#A9596F"/>
			<stop  offset="1" style="stop-color:#DE8FA8"/>
		</radialGradient>
		<path fill="url(#SVGID_1_)" d="M101.309,49.839c4.854,10.443,8.301,8.605,15.09,10.292c4.31,1.07,6.283,4.889,9.724,6.333
			c1.772,1.609,4.062,3.104,7.041,7.521c1.646,2.44,2.112,5.655,3.688,8.708c2.086,4.043,6.051,4.838,9.051,7.916
			c4.179,4.283,7.19,11.991,6.371,21.771c-0.351,4.198-2.728,7.492-3.018,11.082c-0.179,2.218,1.049,4.491,1.342,7.125
			c0.648,5.836-0.263,11.157-1.342,16.625c7.076,1.492,13.712-0.603,16.096-5.938c-4.928-2.409-8.716-8.027-7.377-15.832
			c0.858-5.021,6.281-8.176,6.25-13.346c-0.834,0.469-1.793-0.06-2.896-0.113c3.005-2.123,5.655-4.668,8.045-7.52
			c-0.703,2.996-2.379,5.889-4.479,7.236c-0.449,8.555-6.528,9.082-5.58,18.49c0.695,6.877,4.918,10.629,10.06,9.896
			c9.824-1.399,12.228-15.489,9.228-26.114c-1.045,1.67-2.438,4.481-2.854,7.906c-1.702-4.943,2.011-8.979,2.347-14.249
			c0.733-11.527-6.473-22.623-17.1-20.979c-0.233,2.254,0.566,3.288,0.336,5.541c-2.137-6.584-4.248-13.193-9.727-15.832
			c4.301-0.326,7.436,4.153,8.719,8.708c1.35-0.519,2.703-1.03,4.693-0.791c3.104-15.552-15.986-26.546-23.806-16.229
			c0,0-1.296-1.764,2.011-3.958c-0.464-6.181-2.623-10.36-5.697-13.458c2.035-0.536,3.873,2.636,4.744,4.089
			c1.125,2.208,1.488,5.307,2.631,8.577c3.666-1.473,8.088-1.453,11.386,0.424c-0.81-3.501-2.495-7.064-5.304-9.193
			c-1.883-3.307-9.691-10.058-14.799-12.605l-0.754-0.448c-1.863-1.184-5.336-2.316-8.636-2.718
			c-2.339-0.286-3.047,0.243-5.448,0.027c1.971,2.819,4.756,4.562,4.443,7.889c1.117,0,2.234,0,3.352,0
			c-2.102,1.212-5.175,1.279-6.705,3.167c0.096-1.865,2.053-1.536,2.348-3.167c-6.979-11.883-28.742-18.14-40.154-6.129
			c5.828,1.826,10.787,3.239,15.344,7.712C100.339,48.864,100.811,49.481,101.309,49.839z"/>
		
			<radialGradient id="SVGID_2_" cx="211.4307" cy="639.416" r="124.5343" gradientTransform="matrix(1 0 0 1 -100 -591)" gradientUnits="userSpaceOnUse">
			<stop  offset="0" style="stop-color:#FFC2E1"/>
			<stop  offset="0.1711" style="stop-color:#FDBFDD"/>
			<stop  offset="0.324" style="stop-color:#F6B6D3"/>
			<stop  offset="0.4698" style="stop-color:#ECA7C0"/>
			<stop  offset="0.6106" style="stop-color:#DC92A7"/>
			<stop  offset="0.638" style="stop-color:#D98DA1"/>
			<stop  offset="0.6975" style="stop-color:#CE8195"/>
			<stop  offset="0.8049" style="stop-color:#B06177"/>
			<stop  offset="0.8282" style="stop-color:#A9596F"/>
			<stop  offset="1" style="stop-color:#DE8FA8"/>
		</radialGradient>
		<path fill="url(#SVGID_2_)" d="M115.727,123.064c-0.002-3.096,1.248-2.406,1.676-0.396c1.264,6.654,9.412,11.916,16.767,7.916
			c1.767-0.959,3.831-3.286,6.035-4.354c3.007-1.455,5.688-1.991,6.707-3.166c2.092-2.42,2.821-7.055,3.019-9.104
			c0.914-9.661-2.369-19.438-8.049-23.749c-2.396-1.818-4.65-2.007-6.369-5.146c-2.998-5.473-4.896-12.889-11.4-16.229
			c-0.877,0.934,0.548,2.498,0.336,3.958c-1.305-2.17-1.991-5.365-3.688-7.125c-2.584-2.679-6.729-2.048-11.397-3.958
			c-3.157-1.292-5.176-4.408-8.049-7.521c-6.309-6.835-12.707-11.933-20.453-13.062c-8.16-1.189-17.477,1.87-23.348,6.779
			l-0.123-0.05c-4.467-1.166-5.957,0.209-8.047,0.792c-3.147,0.903-5.629,2.591-7.551,4.941c0,0-1.073,0.34-1.502,0.601
			c-9.584,0.397-15.391,12.185-12.741,25.728c-0.896-1.187-1.173-3.102-1.341-5.146c-3.645,0.602-5.196,4.887-5.701,8.708
			c-1.611,12.232,3.311,27.871,8.385,34.436c-0.611,1.203-1.909-2.188-2.349-1.188c-4.521,20.154,7.162,32.754,24.477,29.688
			c0.712-3.065-2.091-3.644-3.353-4.752c-3.02-2.647-4.969-5.937-5.699-11.478c-0.115-0.688-0.053-1.313,0-1.979
			c-0.035-2.547-0.129-4.181,0.709-5.699c-2.121-0.657-3.543-2.696-4.734-4.592c3.644,1.899,7.666,3.354,13.412,2.771
			c-1.793,1.313-4.335,2.168-7.252,2.154c-1.5,8.125,0.313,17.998,7.588,19.219c-0.031,10.566,7.244,9.195,14.082,14.646
			c4.325,3.447,8.014,6.52,12.068,7.124c5.521,0.823,10.449-1.12,11.401-5.937c1.104,2.105-1.081,3.728-1.341,5.541
			c15.1,5.438,31.515-1.555,33.864-17.416c4.09,3.02,8.002,8.146,14.084,7.52c-4.343,2.955-10.318-1.93-13.076-4.75
			c-0.551,4.365-2.724,6.816-5.029,9.105c5.938,4.533,19.445,4.428,23.471-1.979l0.335-0.396c6.515-5.108,7.209-19.277,5.365-30.875
			c-4.882,0.721-8.87,6.236-13.711,8.32c1.301,2.029,2.646,3.555,2.646,7.115c-1.41-2.424-2.224-5.104-4.656-6.324
			c-6.676,1.988-13.154-2.299-14.532-9.172c-1.745,2.559-2.402,4.386-6.627,4.02C112.477,127.41,115.359,126.725,115.727,123.064z
			 M92.255,98.921c-5.354,2.729-10.743,9.267-9.387,17.812c1.129,7.109,8.602,10.687,15.088,6.729
			c-0.612,1.256-0.855,2.949-1.341,4.354c-0.194-0.696,0.405-2.325-0.336-2.375c-13.02,5.912-20.196-12.795-12.556-21.221
			c-2.953-1.765-4.375-2-4.625-7.75c-0.048-1.109,0.263-2.388,0-3.563c-1.26-5.632-6.188-11.515-10.938-10.874
			c-7.973,1.072-3.414,17.922-13.457,14.513c7.869,1.001,4.475-10.776,8.717-15.437c1.779-1.955,2.928-2.264,6.035-2.771
			c0-0.009,0-0.017,0-0.025c0.319-0.031,0.605-0.039,0.854-0.025c7.033,1.243,7.239,6.043,9.909,10.536
			c0.467-0.504,0.145-1.939,1.004-1.979c-1.354,7.188,0.21,13.833,4.875,15.188C87.632,100.54,90.162,98.435,92.255,98.921z
			 M58.411,58.345c4.322-3.02,8.191-3.866,13.502-0.188c2.936-8.187,13.725-7.767,17.325-2.378
			c-10.812-8.063-19.452,4.631-12.39,14.193c-0.784-0.138-1.5-0.313-2.236-0.993c-1.236-1.491-2.201-2.82-2.201-2.82
			c-0.621-1.377-1.183-3.006-1.085-5.234c-4.398-4.116-10.774-3.613-13.94,1.582c-2.293,3.76-1.254,9.883-4.023,13.062
			C55.261,67.537,55.26,60.548,58.411,58.345z M50.01,110.795c-6.096-0.771-12.192-7.975-12.071-14.645
			c0.106-5.853,3.439-8.543,6.037-12.271c-2.323-0.824-4.748-3.627-5.03-5.542c1.582,2.619,5.028,4.132,8.653,4.507
			c-9.011,6.312-7.362,20.135,0.25,24.25c6.499,3.516,13.459-0.725,19.961-2.451c0.234-1.572,0.057-4.564,1.311-4.932
			c-0.51,6.277,2.29,8.645,4.023,12.27c-2.55-0.812-3.646-2.812-4.92-5.137C61.757,106.281,56.724,111.645,50.01,110.795z
			 M87.228,138.898c-10.422,2.357-11.714-12.51-17.379-14.055c-7.893-2.15-11.66,8.41-5.422,13.264
			c0.347-1.321,1.188-4.121,2.012-3.562c-2.079,4.033-0.709,11.113,1.341,13.854c-2.686-1.562-4.486-5.433-3.688-9.896
			c-7.783-4.806-4.459-19.267,5.364-17.021c7.337,1.677,8.928,18.022,19.018,14.613c1.732,7.73,14.133,11.688,17.529,5.178
			C102.048,151.203,90.44,146.535,87.228,138.898z M111.368,94.171c-3.722-2.347-10.538,1.872-13.895-1.888
			c-1.626-1.824-3.267-5.39-2.172-8.584c0,0,0.405-1.056,0.672-1.979c0.952-3.498,4.626-6.062,7.347-6.153
			c-4.902,1.418-8.337,12.161-3.354,15.436c3.892,2.557,7.892-1.488,11.382-0.471c5.733,1.668,3.957,12.309,10.125,13.312
			c-3.58,12.621,7.797,13.205,13.026,10.116c-2.374,1.286-3.886,2.698-6.733,3.884c-1.233,0.736-2.875,0.76-5.67,0.074
			c-4.492-1.1-6.199-8.879-3.354-12.666C113.68,105.523,115.333,96.673,111.368,94.171z"/>
		
			<linearGradient id="SVGID_3_" gradientUnits="userSpaceOnUse" x1="193.6641" y1="700.0527" x2="182.2961" y2="719.2772" gradientTransform="matrix(1 0 0 1 -100 -591)">
			<stop  offset="0" style="stop-color:#FFC2E1"/>
			<stop  offset="0.3633" style="stop-color:#F3B1CD"/>
			<stop  offset="1" style="stop-color:#D98DA1"/>
		</linearGradient>
		<path fill="url(#SVGID_3_)" d="M82.031,122.136c-0.298-0.5-1.404-2.969-1.438-3.524c-0.885-1.848-1.009-6.061-1.138-8.161
			c-2.556,9.083,3.412,23.065,14.312,18.116c0.741,0.051,0.143,1.68,0.335,2.375c0.486-1.404,0.729-3.1,1.342-4.354
			C89.77,128.445,85.403,127.797,82.031,122.136z"/>
		
			<linearGradient id="SVGID_4_" gradientUnits="userSpaceOnUse" x1="188.5322" y1="754.3545" x2="189.0107" y2="754.3545" gradientTransform="matrix(1 0 0 1 -100 -591)">
			<stop  offset="0" style="stop-color:#FFC2E1"/>
			<stop  offset="0.3633" style="stop-color:#F3B1CD"/>
			<stop  offset="1" style="stop-color:#D98DA1"/>
		</linearGradient>
		<path fill="url(#SVGID_4_)" d="M88.727,162.898c-0.052,0.26-0.12,0.509-0.194,0.752c0.16,0.055,0.319,0.107,0.479,0.16
			C88.976,163.516,88.892,163.213,88.727,162.898z"/>
		
			<linearGradient id="SVGID_5_" gradientUnits="userSpaceOnUse" x1="201.043" y1="697.2744" x2="195.7933" y2="707.0237" gradientTransform="matrix(1 0 0 1 -100 -591)">
			<stop  offset="0" style="stop-color:#FFC2E1"/>
			<stop  offset="0.3633" style="stop-color:#F3B1CD"/>
			<stop  offset="1" style="stop-color:#D98DA1"/>
		</linearGradient>
		<path fill="url(#SVGID_5_)" d="M105.492,146.273c-3.396,6.51-17.054,2.199-18.786-5.534c-10.09,3.411-10.425-12.58-17.762-14.257
			c-2.82-0.646-4.551-0.354-5.677,1.526c-0.835,1.597-0.778,2.376-0.374,4.25c0.374,1.875,1.036-1.614,4.812-0.587
			c5.664,1.543,7.641,13.637,18.062,11.273C88.981,150.586,101.536,156.203,105.492,146.273z"/>
		
			<linearGradient id="SVGID_6_" gradientUnits="userSpaceOnUse" x1="166.8916" y1="717.6426" x2="163.9543" y2="722.3298" gradientTransform="matrix(1 0 0 1 -100 -591)">
			<stop  offset="0" style="stop-color:#FFC2E1"/>
			<stop  offset="0.3633" style="stop-color:#F3B1CD"/>
			<stop  offset="1" style="stop-color:#D98DA1"/>
		</linearGradient>
		<path fill="url(#SVGID_6_)" d="M63.394,140.354c0,0,0.231-1.635,0.188-1.468c-2.686-2.089-4.836-4.672-4.281-7.407
			c-0.574-1.078-1.496,1.906-1.281,3.938C58.581,140.604,62.608,142.479,63.394,140.354z"/>
		
			<linearGradient id="SVGID_7_" gradientUnits="userSpaceOnUse" x1="175.96" y1="680.7207" x2="161.9864" y2="707.8021" gradientTransform="matrix(1 0 0 1 -100 -591)">
			<stop  offset="0" style="stop-color:#FFC2E1"/>
			<stop  offset="0.3633" style="stop-color:#F3B1CD"/>
			<stop  offset="1" style="stop-color:#D98DA1"/>
		</linearGradient>
		<path fill="url(#SVGID_7_)" d="M63.587,100.719c4.75-0.641,5.182-15.021,12.676-1.781c0.799,1.41-0.029,2.876,0,3.562
			c0.192,4.422,5.436,2.527,5.027,1.511c-1.312-1.019-3.418-2.733-3.584-6.562c-0.048-1.108-0.528-5.053-0.562-5.188
			c-0.807-3.688-3.424-6.823-6.731-7.974c-0.249-0.015-2.062-0.26-2.062-0.25c-2.217,0.361-2.5,1.033-3.269,1.96
			c-2.18,3.791-1.99,5.189-3.773,8.576C60.128,96.324,55.614,101.791,63.587,100.719z"/>
		
			<linearGradient id="SVGID_8_" gradientUnits="userSpaceOnUse" x1="183.9102" y1="654.2617" x2="191.6602" y2="689.5117" gradientTransform="matrix(1 0 0 1 -100 -591)">
			<stop  offset="0" style="stop-color:#FFC2E1"/>
			<stop  offset="0.3633" style="stop-color:#F3B1CD"/>
			<stop  offset="1" style="stop-color:#D98DA1"/>
		</linearGradient>
		<path fill="url(#SVGID_8_)" d="M90.616,59.556c-2.652-3.97-8.473-8.483-13.641-2.349c-0.683,1.64-0.948,3.541-0.705,5.511
			C78.116,57.507,83.95,54.585,90.616,59.556z"/>
		
			<linearGradient id="SVGID_9_" gradientUnits="userSpaceOnUse" x1="120.8818" y1="672.4482" x2="127.0342" y2="672.4482" gradientTransform="matrix(1 0 0 1 -100 -591)">
			<stop  offset="0" style="stop-color:#FFC2E1"/>
			<stop  offset="0.3633" style="stop-color:#F3B1CD"/>
			<stop  offset="1" style="stop-color:#D98DA1"/>
		</linearGradient>
		<path fill="url(#SVGID_9_)" d="M24.769,80.697c0.168,2.044,1.369,3.037,2.265,4.225c-0.55-2.809-1.088-5.402-0.952-7.974
			c-0.104-0.647,0.184-1.5-0.499-1.5c-2.688,0.938-4.122,4.467-4.626,8.288c-0.151,1.152-0.021,2.509-0.062,3.712
			C21.578,84.062,21.583,81.224,24.769,80.697z"/>
		
			<linearGradient id="SVGID_10_" gradientUnits="userSpaceOnUse" x1="138.1309" y1="674.9473" x2="142.4961" y2="674.9473" gradientTransform="matrix(1 0 0 1 -100 -591)">
			<stop  offset="0" style="stop-color:#FFC2E1"/>
			<stop  offset="0.3633" style="stop-color:#F3B1CD"/>
			<stop  offset="1" style="stop-color:#D98DA1"/>
		</linearGradient>
		<path fill="url(#SVGID_10_)" d="M38.901,80.697c-1.475,0.751-0.622,5.283,0.814,6.501c0.267-0.354,2.506-3.04,2.781-3.392
			C40.97,83.053,39.699,82.016,38.901,80.697z"/>
		
			<linearGradient id="SVGID_11_" gradientUnits="userSpaceOnUse" x1="188.5527" y1="691.748" x2="196.8282" y2="722.3312" gradientTransform="matrix(1 0 0 1 -100 -591)">
			<stop  offset="0" style="stop-color:#FFC2E1"/>
			<stop  offset="0.3633" style="stop-color:#F3B1CD"/>
			<stop  offset="1" style="stop-color:#D98DA1"/>
		</linearGradient>
		<path fill="url(#SVGID_11_)" d="M84.649,113.188c1.377-5.205,8.407-5.985,12.244-7.941c-0.849-8.15-8.029-3.104-9.562-1.607
			c-0.375,0.495-0.849,1.143-0.849,1.143C85.21,107.206,84.474,110.04,84.649,113.188z"/>
		
			<linearGradient id="SVGID_12_" gradientUnits="userSpaceOnUse" x1="139.8828" y1="691.708" x2="143.5064" y2="702.454" gradientTransform="matrix(1 0 0 1 -100 -591)">
			<stop  offset="0" style="stop-color:#FFC2E1"/>
			<stop  offset="0.3633" style="stop-color:#F3B1CD"/>
			<stop  offset="1" style="stop-color:#D98DA1"/>
		</linearGradient>
		<path fill="url(#SVGID_12_)" d="M44.62,126.582c-1.539,6.491,9.898,2.741,7.219-4.259c-2.195,1-5.002,2.192-7.078,1.733
			C44.679,124.896,44.63,125.738,44.62,126.582z"/>
		
			<linearGradient id="SVGID_13_" gradientUnits="userSpaceOnUse" x1="221.2568" y1="730.8086" x2="221.8396" y2="732.2118" gradientTransform="matrix(1 0 0 1 -100 -591)">
			<stop  offset="0" style="stop-color:#FFC2E1"/>
			<stop  offset="0.3633" style="stop-color:#F3B1CD"/>
			<stop  offset="1" style="stop-color:#D98DA1"/>
		</linearGradient>
		<path fill="url(#SVGID_13_)" d="M133.111,154.948c-5.662,0.585-5.911-1.382-9.709-4.429c-0.452,1.277-1.073,2.359-1.786,3.334
			C121.199,155.116,128.771,157.902,133.111,154.948z"/>
		
			<linearGradient id="SVGID_14_" gradientUnits="userSpaceOnUse" x1="155.9561" y1="700.7236" x2="152.5809" y2="703.5988" gradientTransform="matrix(1 0 0 1 -100 -591)">
			<stop  offset="0" style="stop-color:#FFC2E1"/>
			<stop  offset="0.3633" style="stop-color:#F3B1CD"/>
			<stop  offset="1" style="stop-color:#D98DA1"/>
		</linearGradient>
		<path fill="url(#SVGID_14_)" d="M40.769,127.198c-0.016-0.979,0.327-3.402,0.398-4.154c-1.638-0.513-2.836-2.283-4.273-3.033
			C32.331,124.387,41.519,132.761,40.769,127.198z"/>
		
			<linearGradient id="SVGID_15_" gradientUnits="userSpaceOnUse" x1="141.0303" y1="696.4346" x2="131.2788" y2="707.8112" gradientTransform="matrix(1 0 0 1 -100 -591)">
			<stop  offset="0" style="stop-color:#FFC2E1"/>
			<stop  offset="0.3633" style="stop-color:#F3B1CD"/>
			<stop  offset="1" style="stop-color:#D98DA1"/>
		</linearGradient>
		<path fill="url(#SVGID_15_)" d="M27.979,124.256c1.125,0.121,2.102-1.933,1.396-3.148c-0.784-1.015-1.562-2.268-2.314-3.668
			c-0.27,1.653-0.432,3.254-0.479,4.791C26.582,123.573,26.582,124.198,27.979,124.256z"/>
		
			<linearGradient id="SVGID_16_" gradientUnits="userSpaceOnUse" x1="154.7812" y1="683.916" x2="153.2812" y2="719.919" gradientTransform="matrix(1 0 0 1 -100 -591)">
			<stop  offset="0" style="stop-color:#FFC2E1"/>
			<stop  offset="0.3633" style="stop-color:#F3B1CD"/>
			<stop  offset="1" style="stop-color:#D98DA1"/>
		</linearGradient>
		<path fill="url(#SVGID_16_)" d="M48.662,113.812c6.714,0.85,11.747-4.517,18.214-3.951c1.273,2.324,2.37,4.324,4.92,5.139
			c-1.443-3.018-5.221-8.1-5.334-7.339c-6.502,1.728-13.463,5.967-19.961,2.45c-2.223-1.2-4.969-2.75-6.726-5.662
			c-2.587-4.313-2.29-5.728-2.614-8.96c-0.334,1.088-0.545,2.292-0.57,3.678C36.47,105.836,42.566,113.041,48.662,113.812z"/>
		
			<linearGradient id="SVGID_17_" gradientUnits="userSpaceOnUse" x1="239.3584" y1="714.9062" x2="240.4835" y2="722.532" gradientTransform="matrix(1 0 0 1 -100 -591)">
			<stop  offset="0" style="stop-color:#FFC2E1"/>
			<stop  offset="0.3633" style="stop-color:#F3B1CD"/>
			<stop  offset="1" style="stop-color:#D98DA1"/>
		</linearGradient>
		<path fill="url(#SVGID_17_)" d="M144.05,126.996c-1.188,0.64-2.062,1.296-5.062,3.482c-1.249,0.912-2.26,1.428-3.346,2.1
			c-0.361,0.225-1.029,0.775-0.734,1.473c0.236,0.522,1.062,0.301,1.418,0.061c3.299-2.246,6.115-4.283,7.725-3.381
			c1.188,1.875,1.727,7.688,1.502,12.231c0.818-5.149,1.014-9.957,0.312-15.481C145.456,125.886,144.461,126.773,144.05,126.996z"/>
		
			<linearGradient id="SVGID_18_" gradientUnits="userSpaceOnUse" x1="146.1611" y1="669.3076" x2="148.8526" y2="693.6651" gradientTransform="matrix(1 0 0 1 -100 -591)">
			<stop  offset="0" style="stop-color:#FFC2E1"/>
			<stop  offset="0.3633" style="stop-color:#F3B1CD"/>
			<stop  offset="1" style="stop-color:#D98DA1"/>
		</linearGradient>
		<path fill="url(#SVGID_18_)" d="M52.769,83.731c-3.143-1.658-7.558,1.217-8.75,3.717c-0.459,0.659-0.834,1.793-1.425,2.933
			c-0.461,1.676-0.635,3.409-0.542,5.107C43.62,98.323,50.839,88.698,52.769,83.731z"/>
		
			<linearGradient id="SVGID_19_" gradientUnits="userSpaceOnUse" x1="189.2969" y1="672.4492" x2="179.2966" y2="692.6999" gradientTransform="matrix(1 0 0 1 -100 -591)">
			<stop  offset="0" style="stop-color:#FFC2E1"/>
			<stop  offset="0.3633" style="stop-color:#F3B1CD"/>
			<stop  offset="1" style="stop-color:#D98DA1"/>
		</linearGradient>
		<path fill="url(#SVGID_19_)" d="M140.055,89.82c-2.312-1.756-4.492-1.938-6.152-4.97c-2.896-5.286-4.729-12.448-11.01-15.674
			c-0.849,0.902,0.526,2.413,0.323,3.823c-1.261-2.096-1.924-5.182-3.562-6.881c-2.496-2.587-6.502-1.978-11.01-3.822
			c-3.052-1.248-4.998-4.258-7.773-7.264C94.78,48.43,88.6,43.507,81.118,42.416c-7.881-1.148-16.879,1.807-22.55,6.547
			l-0.118-0.048c-4.314-1.125-5.754,0.202-7.772,0.765c-3.039,0.872-5.436,2.502-7.291,4.772c0,0-1.038,0.329-1.452,0.58
			c-7.605,0.315-12.743,8.059-12.915,18.066c1.474-7.571,6.094-12.975,12.42-13.237c0.415-0.251,1.453-0.58,1.453-0.58
			c1.855-2.271,4.252-3.9,7.291-4.772c2.019-0.563,12.021-1.436,16.336-0.31l6.5-2.001c5.67-4.741-0.276-6.102,7.604-4.953
			c7.482,1.091,13.663,6.015,19.754,12.616c2.774,3.006,4.724,6.016,7.772,7.264c4.509,1.844,8.095,3.903,4.619,4.823
			c-10.392,2.751-5.512,6.653-4.25,8.749c0.203-1.41,5.652,4.152,6.5,3.25c6.282,3.227,9.441-7.785,12.338-2.499
			c1.66,3.031,9.891,11.444,12.203,13.201c0.938,0.712-7.558,0.018-11.375,8.419c-3.942,13.13,16.502-5.49,16.334,1.459
			c0.192-0.993,2.01-0.98,1.774-3.811C145.861,95.488,145.539,93.982,140.055,89.82z"/>
		
			<linearGradient id="SVGID_20_" gradientUnits="userSpaceOnUse" x1="220.8076" y1="700.043" x2="220.9619" y2="700.043" gradientTransform="matrix(1 0 0 1 -100 -591)">
			<stop  offset="0" style="stop-color:#FFC2E1"/>
			<stop  offset="0.3633" style="stop-color:#F3B1CD"/>
			<stop  offset="1" style="stop-color:#D98DA1"/>
		</linearGradient>
		<path fill="url(#SVGID_20_)" d="M120.809,108.803c0.008,0.165,0.024,0.322,0.043,0.481c0.037-0.147,0.067-0.288,0.11-0.438
			C120.904,108.836,120.861,108.812,120.809,108.803z"/>
		
			<linearGradient id="SVGID_21_" gradientUnits="userSpaceOnUse" x1="230.1543" y1="701.5029" x2="223.5426" y2="728.6106" gradientTransform="matrix(1 0 0 1 -100 -591)">
			<stop  offset="0" style="stop-color:#FFC2E1"/>
			<stop  offset="0.3633" style="stop-color:#F3B1CD"/>
			<stop  offset="1" style="stop-color:#D98DA1"/>
		</linearGradient>
		<path fill="url(#SVGID_21_)" d="M122.27,124.042c2.166,1.235,6.625,1.276,10.5-1.122c7.795-6.972,2.562-7.921,2.562-7.921
			c-3.493,2.062-9.438,5.699-14.523,4.252C118.579,118.404,118.688,122,122.27,124.042z"/>
		
			<linearGradient id="SVGID_22_" gradientUnits="userSpaceOnUse" x1="169.5771" y1="649.2812" x2="160.4037" y2="686.5087" gradientTransform="matrix(1 0 0 1 -100 -591)">
			<stop  offset="0" style="stop-color:#FFC2E1"/>
			<stop  offset="0.3633" style="stop-color:#F3B1CD"/>
			<stop  offset="1" style="stop-color:#D98DA1"/>
		</linearGradient>
		<path fill="url(#SVGID_22_)" d="M59.267,69.073c3.166-5.195,5.377-2.75,8.001-1.439c1.751,0.814,4.011,2.146,4.632,3.523
			c0,0,0.965,1.329,2.201,2.82c0.736,0.678,1.451,0.854,2.236,0.993c-1.674-2.267-2.457-4.708-2.547-7.008
			c-0.815-1.029-1.379-1.805-1.379-1.805c-0.403-0.894-1.395-1.278-1.584-2.479c-0.013,0.034-0.172-1.64-0.184-1.604
			c-4.508-4.207-8.605-3.439-11.938-0.188c-0.599,0.584-1.409,2.999-1.849,3.893c-0.765,3.088-0.777,6.684-2.214,9.17
			c-0.324,1.875,2,1.956,2.625,0.5C57.972,73.316,56.974,72.833,59.267,69.073z"/>
		
			<linearGradient id="SVGID_23_" gradientUnits="userSpaceOnUse" x1="227.374" y1="712.5439" x2="221.1244" y2="730.2927" gradientTransform="matrix(1 0 0 1 -100 -591)">
			<stop  offset="0" style="stop-color:#FFC2E1"/>
			<stop  offset="0.3633" style="stop-color:#F3B1CD"/>
			<stop  offset="1" style="stop-color:#D98DA1"/>
		</linearGradient>
		<path fill="url(#SVGID_23_)" d="M128.145,135.448c-4.27,0.288-10.42-1.565-11.254-7.778c-0.158-1.184-0.192-0.441-0.64-0.477
			c-0.17,0.078-0.336,0.148-0.5,0.219c-0.28,0.227-0.621,0.639-1.019,1.283c-2.228,2.926-11.215,1.753-5.219,4.912
			c2.754,1.716,14.483,7.143,21.159,5.152c2.435,1.221,3.246,3.9,4.657,6.324c-0.001-3.562-1.346-5.086-2.646-7.113
			C132.126,136.998,131.407,135.229,128.145,135.448z"/>
		
			<linearGradient id="SVGID_24_" gradientUnits="userSpaceOnUse" x1="205.3027" y1="684.71" x2="198.303" y2="726.2089" gradientTransform="matrix(1 0 0 1 -100 -591)">
			<stop  offset="0" style="stop-color:#FFC2E1"/>
			<stop  offset="0.3633" style="stop-color:#F3B1CD"/>
			<stop  offset="1" style="stop-color:#D98DA1"/>
		</linearGradient>
		<path fill="url(#SVGID_24_)" d="M95.444,97.948c3.355,3.761,7.228,2.774,10.949,5.12c3.719,2.348,5.707,4.379,9.717,5.135
			c-0.021-1.143-0.363-0.434,0-1.441c-0.529-0.686-0.963-1.492-1.334-2.376c-1.477-1.288-1.875-4.101-2.686-6.562
			c-0.721-1.152-1.648-2.058-3.004-2.452c-3.49-1.018-7.812,3.46-11.381,0.472c-4.959-4.154-3.993-7.639-3.993-11.806
			c-0.192,0.565-0.672,4.501-0.672,4.501C91.945,91.73,93.817,96.125,95.444,97.948z"/>
		
			<linearGradient id="SVGID_25_" gradientUnits="userSpaceOnUse" x1="202.4697" y1="671.7617" x2="214.8446" y2="705.6367" gradientTransform="matrix(1 0 0 1 -100 -591)">
			<stop  offset="0" style="stop-color:#FFC2E1"/>
			<stop  offset="0.3633" style="stop-color:#F3B1CD"/>
			<stop  offset="1" style="stop-color:#D98DA1"/>
		</linearGradient>
		<path fill="url(#SVGID_25_)" d="M105.096,77.693c-1.14-1.603-4.056-0.73-4.936,2.316c-0.323,1.366-0.418,2.753-0.241,4.027
			C100.866,81.032,102.814,78.353,105.096,77.693z"/>
		
			<linearGradient id="SVGID_26_" gradientUnits="userSpaceOnUse" x1="205.1621" y1="647.126" x2="204.6621" y2="657.8763" gradientTransform="matrix(1 0 0 1 -100 -591)">
			<stop  offset="0" style="stop-color:#FFC2E1"/>
			<stop  offset="0.3633" style="stop-color:#F3B1CD"/>
			<stop  offset="1" style="stop-color:#D98DA1"/>
		</linearGradient>
		<path fill="url(#SVGID_26_)" d="M88.644,39.573c0,0,4.525-6.005,14.512-4.375c9.986,1.63,19.738,11.375,19.738,11.375
			s-3.523,2.625-3.574,3.5s-4.301,1.125-7.676,0S98.269,37.198,88.644,39.573z"/>
		
			<linearGradient id="SVGID_27_" gradientUnits="userSpaceOnUse" x1="229.4814" y1="671.627" x2="228.7514" y2="687.3201" gradientTransform="matrix(1 0 0 1 -100 -591)">
			<stop  offset="0" style="stop-color:#FFC2E1"/>
			<stop  offset="0.3633" style="stop-color:#F3B1CD"/>
			<stop  offset="1" style="stop-color:#D98DA1"/>
		</linearGradient>
		<path fill="url(#SVGID_27_)" d="M140.562,62.718c0,0-1.92-11.02-10.42-12.52s-10.672,3.145-9.336,6.26s6.711,8.24,6.711,8.24
			s5.5,4,6,6.25s2.875,1.625,4.375,0S137.129,65.172,140.562,62.718z"/>
		
			<linearGradient id="SVGID_28_" gradientUnits="userSpaceOnUse" x1="254.4551" y1="666.2598" x2="239.4551" y2="687.2597" gradientTransform="matrix(1 0 0 1 -100 -591)">
			<stop  offset="0" style="stop-color:#FFC2E1"/>
			<stop  offset="0.3453" style="stop-color:#F3B1CD"/>
			<stop  offset="0.6598" style="stop-color:#E69FB7"/>
			<stop  offset="1" style="stop-color:#D98DA1"/>
		</linearGradient>
		<path fill="url(#SVGID_28_)" d="M155.02,72.411c0,0-3.601-7.061-8.705-5.712c-5.104,1.349-4.92,4.625-4.92,4.625
			s-0.83,2.024-3.045,2.875c0,0,5.295,2.375,8.795,4.625s6.125,9.819,7.75,11.272c1.625,1.453,6.625,5.603,3.25-2.147
			s-5.799-10.469-8.258-11.491c-2.601-1.081,1.633-1.428,1.633-1.428S158.52,74.748,155.02,72.411z"/>
		
			<linearGradient id="SVGID_29_" gradientUnits="userSpaceOnUse" x1="282.0186" y1="654.5986" x2="250.0174" y2="720.351" gradientTransform="matrix(1 0 0 1 -100 -591)">
			<stop  offset="0" style="stop-color:#FFC2E1"/>
			<stop  offset="0.3453" style="stop-color:#F3B1CD"/>
			<stop  offset="0.6598" style="stop-color:#E69FB7"/>
			<stop  offset="1" style="stop-color:#D98DA1"/>
		</linearGradient>
		<path fill="url(#SVGID_29_)" d="M162.895,90.073c0,0-0.375-2.875,3.125-2s7.537,6.075,5,11.75c-2.537,5.675-9.5,9.172-10,9.461
			s-1.125,2.914-1.125,2.914s3.25,0.602,2.25,2.801s-5.5,10.449-5.75,8.699s2.625-9.648,0.875-10.513
			c-1.75-0.863-1.5-5.604,0.125-6.233S164.77,98.073,162.895,90.073z"/>
		
			<linearGradient id="SVGID_30_" gradientUnits="userSpaceOnUse" x1="154.2949" y1="604.8242" x2="235.3004" y2="680.8293" gradientTransform="matrix(1 0 0 1 -100 -591)">
			<stop  offset="0" style="stop-color:#FFC2E1"/>
			<stop  offset="0.3453" style="stop-color:#F3B1CD"/>
			<stop  offset="0.6598" style="stop-color:#E69FB7"/>
			<stop  offset="1" style="stop-color:#D98DA1"/>
		</linearGradient>
		<path opacity="0.76" fill="url(#SVGID_30_)" enable-background="new    " d="M177.77,122.323c0,0,1.121,15.007-8,13.909
			c-9.121-1.1-5.5-13.784-2.5-17.534s6.25-11.5,6.5-8.25s-2.5,15.862-0.75,15.682C174.77,125.95,177.77,122.323,177.77,122.323z"/>
		
			<linearGradient id="SVGID_31_" gradientUnits="userSpaceOnUse" x1="281.9219" y1="654.9141" x2="279.6718" y2="661.6639" gradientTransform="matrix(1 0 0 1 -100 -591)">
			<stop  offset="0" style="stop-color:#FFC2E1"/>
			<stop  offset="0.3453" style="stop-color:#F3B1CD"/>
			<stop  offset="0.6598" style="stop-color:#E69FB7"/>
			<stop  offset="1" style="stop-color:#D98DA1"/>
		</linearGradient>
		<path opacity="0.76" fill="url(#SVGID_31_)" enable-background="new    " d="M156.062,129.043c0,0,1.457,11.188,4.707,12.172
			c3.25,0.983-7.584,7.885-7.834,1.747S152.898,130.377,156.062,129.043z"/>
		
			<radialGradient id="SVGID_32_" cx="64.0571" cy="564.334" r="111.3717" gradientTransform="matrix(0.9635 0 0 1.1374 34.7427 -580.9431)" gradientUnits="userSpaceOnUse">
			<stop  offset="0" style="stop-color:#FFC2E1"/>
			<stop  offset="0.1711" style="stop-color:#FDBFDD"/>
			<stop  offset="0.324" style="stop-color:#F6B6D3"/>
			<stop  offset="0.4698" style="stop-color:#ECA7C0"/>
			<stop  offset="0.6106" style="stop-color:#DC92A7"/>
			<stop  offset="0.638" style="stop-color:#D98DA1"/>
			<stop  offset="0.6975" style="stop-color:#CE8195"/>
			<stop  offset="0.8049" style="stop-color:#B06177"/>
			<stop  offset="0.8282" style="stop-color:#A9596F"/>
			<stop  offset="1" style="stop-color:#DE8FA8"/>
		</radialGradient>
		<path fill="url(#SVGID_32_)" d="M101.309,49.839c4.854,10.443,8.301,8.605,15.09,10.292c4.31,1.07,6.283,4.889,9.724,6.333
			c1.772,1.609,4.062,3.104,7.041,7.521c1.646,2.44,2.112,5.655,3.688,8.708c2.086,4.043,6.051,4.838,9.051,7.916
			c4.179,4.283,7.19,11.991,6.371,21.771c-0.351,4.198-2.728,7.492-3.018,11.082c-0.179,2.218,1.049,4.491,1.342,7.125
			c0.648,5.836-0.263,11.157-1.342,16.625c7.076,1.492,13.712-0.603,16.096-5.938c-4.928-2.409-8.716-8.027-7.377-15.832
			c0.858-5.021,6.281-8.176,6.25-13.346c-0.834,0.469-1.793-0.06-2.896-0.113c3.005-2.123,5.655-4.668,8.045-7.52
			c-0.703,2.996-2.379,5.889-4.479,7.236c-0.449,8.555-6.528,9.082-5.58,18.49c0.695,6.877,4.918,10.629,10.06,9.896
			c9.824-1.399,12.228-15.489,9.228-26.114c-1.045,1.67-2.438,4.481-2.854,7.906c-1.702-4.943,2.011-8.979,2.347-14.249
			c0.733-11.527-6.473-22.623-17.1-20.979c-0.233,2.254,0.566,3.288,0.336,5.541c-2.137-6.584-4.248-13.193-9.727-15.832
			c4.301-0.326,7.436,4.153,8.719,8.708c1.35-0.519,2.703-1.03,4.693-0.791c3.104-15.552-15.986-26.546-23.806-16.229
			c0,0-1.296-1.764,2.011-3.958c-0.464-6.181-2.623-10.36-5.697-13.458c2.035-0.536,3.873,2.636,4.744,4.089
			c1.125,2.208,1.488,5.307,2.631,8.577c3.666-1.473,8.088-1.453,11.386,0.424c-0.81-3.501-2.495-7.064-5.304-9.193
			c-1.883-3.307-9.691-10.058-14.799-12.605l-0.754-0.448c-1.863-1.184-5.336-2.316-8.636-2.718
			c-2.339-0.286-3.047,0.243-5.448,0.027c1.971,2.819,4.756,4.562,4.443,7.889c1.117,0,2.234,0,3.352,0
			c-2.102,1.212-5.175,1.279-6.705,3.167c0.096-1.865,2.053-1.536,2.348-3.167c-6.979-11.883-28.742-18.14-40.154-6.129
			c5.828,1.826,10.787,3.239,15.344,7.712C100.339,48.864,100.811,49.481,101.309,49.839z"/>
	</g>
</g>
<g id="outline_x5F_white">
	<g>
		<path fill="#FFFFFF" d="M189.854,109.479l-0.375-1.729c0.158-1.777,0.158-3.493,0.004-5.195
			c-0.816-8.953-5.277-18.385-12.739-23.74c-0.537-7.597-3.724-14.389-9.021-19.284c-0.005-0.016-0.011-0.033-0.017-0.049
			c-0.258-0.745-0.542-1.49-0.866-2.273c-0.037-0.09-0.074-0.179-0.113-0.268c-2.172-5.143-5.256-9.385-9.199-12.668
			c-0.623-1.009-1.394-1.942-2.297-2.767c-6.98-6.92-17.076-14.723-33.395-14.723c-0.154,0-0.311,0-0.464,0.002
			c-0.011,0-0.021,0-0.029,0h-1.788c-5.974-3.01-12.68-4.642-19.233-4.642c-8.302,0-15.823,2.637-21.603,7.484
			c-1.162-0.094-2.326-0.152-3.489-0.152c-7.908,0-15.309,2.239-21.362,6.392c-6.17,0.062-11.911,1.962-16.624,5.505
			c-0.038,0.028-0.076,0.057-0.113,0.086c-0.552,0.418-1.089,0.86-1.61,1.323c-1.958,0.492-3.833,1.207-5.603,2.136
			c-0.368,0.18-0.728,0.378-1.079,0.594C21.46,49.86,16.612,57.909,15.23,67.752c-2.24,2.311-4.369,5.582-5.685,10.19
			c-3.459,12.117,0.244,28.322,4.682,38.488c-2.175,11.732,0.096,22.529,6.498,30.631c5.845,7.397,14.749,11.643,24.428,11.643
			c0.29,0,0.582-0.004,0.874-0.014c2.566,2.453,5.421,3.778,7.404,4.699c1.545,0.717,2.879,1.338,4.333,2.412
			c7.037,5.2,14.732,10.012,23.324,10.012c1.604,0,3.175-0.178,4.689-0.525c0.031,0.009,0.062,0.02,0.094,0.025
			c3.922,1.16,7.944,1.748,11.954,1.748c7.312,0,14.272-1.987,20.075-5.619c3.406,1.146,6.849,1.728,10.257,1.728
			c8.937,0,17.099-3.938,22.983-11.096c0.619-0.755,1.195-1.546,1.752-2.353c0.045,0,0.092,0.004,0.137,0.004
			c6.951,0,13.52-2.668,19.014-7.72l0.6-0.509c5.191-1.287,9.736-4.529,13.015-9.331
			C191.281,133.917,192.916,121.127,189.854,109.479z M146.911,124.645c1.844,11.598,1.149,25.767-5.365,30.875l-0.335,0.396
			c-1.943,3.093-6.1,4.704-10.543,5.048c-0.82,0.12-1.654,0.203-2.512,0.203c-2.424,0-4.98-0.49-7.616-1.535l-0.006-0.001
			c-0.337-0.119-0.692-0.271-1.048-0.44c-0.616-0.276-1.235-0.584-1.86-0.922c0.017-0.024,0.031-0.05,0.047-0.076
			c-0.487-0.299-0.873-0.553-1.116-0.719c-6.539,7.41-17.928,9.828-28.658,5.963c0.003-0.021,0.01-0.043,0.014-0.065
			c-0.02-0.007-0.041-0.013-0.061-0.021c-0.025-0.058-0.042-0.119-0.053-0.182l-1.641-0.708c-2.142,1.394-5.128,1.847-8.319,1.371
			c-3.707-0.554-7.11-3.17-10.972-6.25c-0.698-0.495-1.362-0.979-1.972-1.431c-1.054-0.779-2.05-1.397-2.997-1.93
			c-1.716-0.904-3.363-1.597-4.817-2.385c-1.746-0.863-3.087-1.761-3.956-3.441c-0.446-0.727-0.8-1.576-1.045-2.588l-0.99,0.186
			c-0.019,0.137-0.038,0.275-0.073,0.425c-11.5,2.036-20.509-2.845-23.943-12.253c-1.842-4.824-2.23-10.803-0.633-17.518
			c0.146-1.061,0.326-1.862,0.326-1.862v-0.001c-1.333-2.389-2.637-5.559-3.729-9.079c-1.105-3.479-1.965-7.27-2.437-11.085
			c-0.025-0.198-0.047-0.396-0.07-0.594c-0.044-0.388-0.091-0.775-0.126-1.162c-0.066-0.697-0.113-1.387-0.148-2.072
			c-0.005-0.09-0.01-0.179-0.014-0.269c-0.035-0.762-0.053-1.515-0.047-2.255c0-0.091,0.005-0.181,0.006-0.272
			c0.007-0.469,0.023-0.931,0.048-1.388c0.047-1.059,0.121-2.107,0.255-3.126c0.44-3.331,1.676-7.012,4.4-8.301
			c0.273-0.2,0.559-0.385,0.859-0.552c0.429-0.348,0.792-0.447,1.063-0.448c-0.096-6.32,1.551-11.858,4.765-15.533
			c1.88-2.225,4.253-3.735,7-4.26c0.432-0.104,0.873-0.191,1.327-0.256c0.435-0.113,0.801-0.2,1.083-0.265
			c0.302-0.116,0.59-0.212,0.717-0.254c0.819-0.996,1.726-1.888,2.738-2.647l0.001-0.001c1.739-1.308,3.764-2.232,6.042-2.714
			c1.611-0.618,3.276-1.337,6.889-0.394l0.123,0.05c1.53-1.28,3.298-2.43,5.215-3.415c0.286-0.155,0.58-0.289,0.871-0.431
			c0.13-0.062,0.259-0.126,0.39-0.187c0.409-0.191,0.821-0.373,1.238-0.54c4.905-2.02,10.498-2.956,15.633-2.208
			c7.746,1.129,14.144,6.227,20.452,13.062c2.873,3.113,4.893,6.229,8.049,7.521c4.668,1.91,8.814,1.279,11.398,3.958
			c1.696,1.76,2.383,4.955,3.688,7.125c0.213-1.46-1.213-3.024-0.336-3.958c6.506,3.34,8.402,10.756,11.4,16.229
			c1.719,3.139,3.975,3.328,6.37,5.146c5.679,4.311,8.963,14.088,8.048,23.749c-0.195,2.051-0.926,6.686-3.018,9.104
			C145.893,124.236,143.521,125.145,146.911,124.645z M169.373,140.086c-0.654,0.094-1.294,0.112-1.913,0.062l-2.802,2.384
			c-2.811,4.394-8.916,6.048-15.402,4.68c1.079-5.468,1.99-10.789,1.342-16.625c-0.293-2.634-1.521-4.907-1.342-7.125
			c0.29-3.59,2.667-6.884,3.018-11.082c0.819-9.78-2.192-17.488-6.371-21.771c-3-3.078-6.965-3.873-9.051-7.916
			c-1.576-3.053-2.043-6.268-3.688-8.708c-2.979-4.417-5.269-5.912-7.041-7.521c-3.438-1.444-5.414-5.263-9.724-6.333
			c-6.789-1.687-10.235,0.151-15.09-10.292c-0.498-0.358-0.97-0.975-1.337-1.583c-4.557-4.473-9.516-5.886-15.344-7.712
			c8.45-8.894,22.571-7.766,32.168-1.76h4.549h0.002l0,0c0.006,0,0.01,0,0.016,0.001c0.158-0.002,0.316-0.003,0.476-0.003
			c0.435,0,0.849,0.021,1.271,0.036c1.192-0.062,2.039-0.262,3.688-0.061c3.301,0.402,6.771,1.534,8.637,2.718l0.754,0.448
			c5.105,2.547,12.916,9.298,14.799,12.605c2.252,1.709,3.772,4.343,4.709,7.126c0.01,0.025,0.021,0.048,0.033,0.073l0.004,0.002
			l0.002,0.012c0.227,0.542,0.439,1.096,0.641,1.67c-0.061-0.024-0.125-0.042-0.186-0.064c0.031,0.125,0.069,0.25,0.1,0.375h-0.001
			l0.735,2.627c5.457,3.366,9.567,10.061,7.998,17.928c-0.143-0.017-0.272-0.022-0.408-0.032l-0.219,2.228l0.006,0.007
			c0.973,0.108,1.901,0.356,2.791,0.71c7.104,2.497,11.485,11.331,10.906,20.439c-0.054,0.844-0.199,1.652-0.391,2.441l0.473,2.18
			l-0.001,0.006c0.155,0.572,0.291,1.15,0.416,1.73c0.003-0.006,0.007-0.012,0.011-0.017
			C181.6,124.596,179.197,138.686,169.373,140.086z"/>
	</g>
</g>
<g id="outline_x5F_black">
	<path d="M184.018,110.887l-0.607-2.802c0.212-1.733,0.242-3.375,0.098-4.981c-0.763-8.347-5.257-17.188-12.705-20.893
		c0.299-7.763-2.711-14.712-8.222-19.192l-0.543-1.567c-0.177-0.508-0.367-1.018-0.58-1.548l-0.544-2.283l-0.628-0.314
		c-1.87-3.691-4.356-6.731-7.435-9.081c-0.343-0.785-0.892-1.611-1.765-2.374c-6.382-6.343-14.729-12.759-28.272-13.054
		l-0.016-0.008h-0.468c-0.164-0.001-0.33-0.002-0.497-0.002c-0.145,0-0.29,0-0.436,0.002h-0.059h-3.271
		c-5.437-3.008-11.674-4.647-17.749-4.647c-7.78,0-14.679,2.749-19.545,7.748c-1.837-0.271-3.693-0.416-5.547-0.416
		c-7.477,0-14.148,2.216-19.474,6.438c-0.532-0.032-1.06-0.048-1.58-0.048c-4.975,0-9.583,1.488-13.326,4.302l-0.794,0.597
		l-0.048,0.07c-0.548,0.457-1.076,0.944-1.583,1.459c-2.055,0.36-4.001,1.024-5.796,1.977c-0.236,0.113-0.468,0.24-0.694,0.38
		c-6.401,3.743-10.307,10.917-11,20.015c-2.101,1.673-4.337,4.426-5.621,8.924c-3.085,10.805,0.818,27.048,5.185,36.125
		c-2.436,10.716-0.69,20.511,4.932,27.626c4.769,6.036,11.773,9.36,19.721,9.36c1.124,0,2.268-0.068,3.416-0.204
		c2.023,2.959,4.91,4.299,7.388,5.449c1.687,0.783,3.43,1.593,5.373,3.029c6.211,4.59,12.903,8.836,19.758,8.836
		c1.702,0,3.31-0.266,4.811-0.789c0.542,0.188,1.104,0.367,1.673,0.535c3.37,0.998,6.82,1.502,10.254,1.502
		c7.224,0,14.011-2.276,19.271-6.365c0.473,0.221,0.932,0.41,1.369,0.566c3.232,1.266,6.493,1.904,9.691,1.904
		c7.109,0,13.627-3.163,18.351-8.907c1.213-1.475,2.274-3.083,3.194-4.798c1.117,0.171,2.232,0.268,3.328,0.268
		c5.453,0,10.647-2.146,15.035-6.211l1.858-1.582c4.326-0.676,8.036-3.135,10.774-7.147
		C185.404,131.886,186.701,120.955,184.018,110.887z M141.546,155.52l-0.335,0.396c-1.909,3.038-5.954,4.645-10.311,5.025
		c-0.894,0.144-1.808,0.226-2.744,0.226c-2.424,0-4.98-0.49-7.616-1.535l-0.006-0.001c-0.337-0.119-0.692-0.271-1.048-0.439
		c-0.616-0.277-1.235-0.584-1.86-0.922c0.017-0.025,0.031-0.051,0.047-0.076c-0.487-0.299-0.873-0.555-1.116-0.721
		c-6.539,7.411-17.928,9.829-28.658,5.965c0.003-0.022,0.01-0.045,0.014-0.066c-0.02-0.008-0.041-0.014-0.061-0.02
		c-0.025-0.059-0.042-0.119-0.053-0.183l-1.641-0.708c-2.142,1.393-5.128,1.848-8.319,1.371c-3.707-0.553-7.11-3.17-10.972-6.25
		c-0.698-0.495-1.362-0.979-1.972-1.432c-1.054-0.778-2.05-1.396-2.997-1.93c-1.716-0.902-3.363-1.596-4.817-2.384
		c-1.746-0.862-3.087-1.761-3.956-3.44c-0.446-0.728-0.8-1.576-1.045-2.588l-0.99,0.185c-0.019,0.137-0.038,0.274-0.073,0.425
		c-11.5,2.036-20.509-2.845-23.943-12.253c-1.842-4.824-2.23-10.802-0.633-17.519c0.146-1.06,0.326-1.861,0.326-1.861v-0.001
		c-1.333-2.388-2.637-5.56-3.729-9.079c-1.105-3.479-1.965-7.27-2.437-11.085c-0.025-0.198-0.047-0.396-0.07-0.594
		c-0.044-0.388-0.091-0.775-0.126-1.162c-0.066-0.697-0.113-1.387-0.148-2.072c-0.005-0.09-0.01-0.179-0.014-0.269
		c-0.035-0.762-0.053-1.515-0.047-2.255c0-0.091,0.005-0.181,0.006-0.272c0.007-0.469,0.023-0.931,0.048-1.388
		c0.047-1.059,0.121-2.107,0.255-3.126c0.44-3.331,1.676-7.012,4.4-8.301c0.273-0.2,0.559-0.385,0.859-0.552
		c0.429-0.348,0.792-0.447,1.063-0.448c-0.096-6.32,1.551-11.858,4.765-15.533c1.88-2.225,4.253-3.735,7-4.26
		c0.432-0.104,0.873-0.191,1.327-0.256c0.435-0.113,0.801-0.2,1.083-0.265c0.302-0.116,0.59-0.212,0.717-0.254
		c0.819-0.996,1.726-1.888,2.738-2.647l0.001-0.001c1.739-1.308,3.764-2.232,6.042-2.714c1.611-0.618,3.276-1.337,6.889-0.394
		l0.123,0.05c1.499-1.253,3.224-2.383,5.094-3.355c1.173-0.645,2.394-1.177,3.645-1.612c4.651-1.739,9.827-2.509,14.609-1.812
		c7.746,1.129,14.144,6.227,20.453,13.062c2.873,3.113,4.892,6.229,8.049,7.521c4.668,1.91,8.813,1.279,11.397,3.958
		c1.696,1.76,2.384,4.955,3.688,7.125c0.212-1.46-1.213-3.024-0.336-3.958c6.505,3.34,8.402,10.756,11.4,16.229
		c1.719,3.139,3.975,3.328,6.369,5.146c5.68,4.311,8.963,14.088,8.049,23.749c-0.195,2.051-0.927,6.685-3.019,9.104
		c-0.703,0.812-2.208,1.322-4.058,2.037c0.02,0.371,0.053,0.748,0.09,1.127c1.277-0.785,2.586-1.381,3.969-1.584
		C148.755,136.242,148.061,150.411,141.546,155.52z M169.373,140.086c-0.654,0.094-1.294,0.112-1.913,0.062l-2.802,2.384
		c-2.107,3.294-6.065,5.042-10.65,5.136c-0.324,0.021-0.645,0.055-0.979,0.055c-0.307,0-0.617-0.01-0.932-0.027
		c0.008-0.025,0.014-0.053,0.021-0.077c-0.94-0.071-1.896-0.201-2.863-0.405c1.079-5.468,1.99-10.789,1.343-16.625
		c-0.293-2.634-1.521-4.906-1.343-7.125c0.29-3.59,2.667-6.884,3.019-11.082c0.818-9.779-2.193-17.488-6.371-21.771
		c-3-3.078-6.965-3.873-9.051-7.916c-1.576-3.053-2.043-6.268-3.689-8.708c-2.98-4.417-5.268-5.912-7.041-7.521
		c-3.439-1.444-5.414-5.263-9.723-6.333c-6.789-1.687-10.236,0.151-15.09-10.292c-0.498-0.358-0.971-0.975-1.338-1.583
		c-4.557-4.473-9.516-5.886-15.344-7.712c1.053-1.108,2.194-2.058,3.403-2.865c-0.024-0.009-0.047-0.019-0.071-0.027
		c2.003-1.353,4.235-2.273,6.582-2.835c0.175-0.044,0.35-0.084,0.525-0.124c0.172-0.037,0.343-0.076,0.517-0.109
		c7.152-1.465,15.098,0.374,21.212,4.2h4.549h0.001l0,0c0.006,0,0.01,0,0.016,0.001c0.16-0.002,0.318-0.003,0.477-0.003
		c0.434,0,0.85,0.021,1.271,0.036c1.191-0.062,2.037-0.262,3.687-0.061c3.3,0.402,6.772,1.534,8.636,2.718l0.754,0.448
		c5.106,2.547,12.916,9.298,14.799,12.605c2.254,1.709,3.773,4.343,4.709,7.126c0.011,0.025,0.022,0.048,0.033,0.073l0.004,0.002
		l0.002,0.012c0.228,0.542,0.44,1.096,0.642,1.67c-0.06-0.024-0.125-0.042-0.185-0.064c0.03,0.125,0.068,0.25,0.099,0.375h-0.001
		l0.734,2.627c5.457,3.366,9.568,10.061,7.998,17.928c-0.142-0.017-0.271-0.022-0.406-0.032l-0.221,2.228l0.006,0.007
		c0.974,0.108,1.902,0.356,2.791,0.71c7.105,2.497,11.486,11.331,10.908,20.439c-0.055,0.845-0.201,1.652-0.392,2.44l0.473,2.181
		l-0.001,0.006c0.155,0.572,0.291,1.15,0.416,1.729c0.004-0.004,0.008-0.01,0.01-0.016
		C181.6,124.596,179.197,138.686,169.373,140.086z"/>
</g>
</svg>
