<?xml version="1.0" encoding="utf-8"?>
<!-- Generator: Adobe Illustrator 15.0.0, SVG Export Plug-In . SVG Version: 6.00 Build 0)  -->
<!DOCTYPE svg PUBLIC "-//W3C//DTD SVG 1.1//EN" "http://www.w3.org/Graphics/SVG/1.1/DTD/svg11.dtd">
<svg version="1.1" id="Layer_1" xmlns="http://www.w3.org/2000/svg" xmlns:xlink="http://www.w3.org/1999/xlink" x="0px" y="0px"
	 width="200px" height="200px" viewBox="0 0 200 200" enable-background="new 0 0 200 200" xml:space="preserve">
<g id="icon">
	<g id="Layer_2">
	</g>
	<g>
		
			<radialGradient id="SVGID_1_" cx="199.999" cy="758.8418" r="51.3445" gradientTransform="matrix(1 0 0 1 -100 -591)" gradientUnits="userSpaceOnUse">
			<stop  offset="0.319" style="stop-color:#5D6638"/>
			<stop  offset="1" style="stop-color:#303B00"/>
		</radialGradient>
		<polygon fill="url(#SVGID_1_)" points="52.634,157.368 33.249,159.87 35.751,167.374 29.811,170.5 43.88,175.725 56.072,175.725 
			71.079,182.261 62.013,186.445 89.213,184.882 122.04,184.256 119.3,186.445 137.359,186.445 143.613,182.261 148.645,175.725 
			161.122,172.637 170.188,165.497 166.749,157.368 170.188,154.876 137.359,152.055 137.674,154.876 118.971,149.239 
			75.456,150.805 75.456,154.876 52.009,154.876 		"/>
		
			<radialGradient id="SVGID_2_" cx="205.9805" cy="948.2832" r="43.644" fx="208.7341" fy="977.844" gradientTransform="matrix(1 0 0 0.7822 -100 -573.7078)" gradientUnits="userSpaceOnUse">
			<stop  offset="0.638" style="stop-color:#303B00"/>
			<stop  offset="0.7335" style="stop-color:#2D3700"/>
			<stop  offset="0.8269" style="stop-color:#232B00"/>
			<stop  offset="0.9191" style="stop-color:#131800"/>
			<stop  offset="1" style="stop-color:#000000"/>
		</radialGradient>
		<polyline fill="url(#SVGID_2_)" points="88.606,155.579 66.825,159.271 62.419,162.695 42.602,162.695 66.825,167.954 
			48.747,171.525 66.825,174.925 88.606,177.859 86.086,182.261 118.971,180.305 132.516,177.37 139.21,180.305 139.21,174.925 
			151.741,168.77 143.062,167.954 161.122,162.695 143.062,158.782 119.3,155.579 92.114,154.876 		"/>
		
			<radialGradient id="SVGID_3_" cx="202.5059" cy="446.3047" r="31.54" gradientTransform="matrix(1 0 0 2.6404 -100 -989.8396)" gradientUnits="userSpaceOnUse">
			<stop  offset="0.2236" style="stop-color:#B8E360"/>
			<stop  offset="0.638" style="stop-color:#8DC73D"/>
			<stop  offset="0.7868" style="stop-color:#8BB730"/>
			<stop  offset="0.908" style="stop-color:#538D26"/>
			<stop  offset="1" style="stop-color:#3A623A"/>
		</radialGradient>
		<path fill="url(#SVGID_3_)" d="M79.943,115.167l3.059,28.909c0,0-6.675,28.679,0,30.515c6.676,1.836,31.432,1.148,36.993,0
			c5.563-1.146,13.137,2.802,9.825-12.364c-3.313-15.168-7.307-47.06-7.307-47.06H79.943z"/>
		
			<radialGradient id="SVGID_4_" cx="199.3086" cy="657.8086" r="56.972" fx="199.8205" fy="654.071" gradientTransform="matrix(1 0 0 1 -100 -591)" gradientUnits="userSpaceOnUse">
			<stop  offset="0.2236" style="stop-color:#B8E360"/>
			<stop  offset="0.638" style="stop-color:#8DC73D"/>
			<stop  offset="0.7868" style="stop-color:#8BB730"/>
			<stop  offset="0.908" style="stop-color:#538D26"/>
			<stop  offset="1" style="stop-color:#3A623A"/>
		</radialGradient>
		<path fill="url(#SVGID_4_)" d="M119.718,124.346c0,0,13.435-12.201,18.914-20.582c4.729-7.23,10.013-20.396,10.013-20.396V55.087
			l-21.974-6.118c0,0-2.425,9.347,0.278,13.372l8.621,4.15l-0.834,4.104l-6.118,3.963l-5.007-24.199l12.597-16.749l-5.332-17.734
			c0,0-12.146-4.458-13.651-1.019c-1.578,3.598-0.379,10.596-0.379,10.596l4.313,4.131l-10.063,16.604l-6.191-0.277L91.998,14.472
			H79.76l-7.511,7.83l7.789,9.83l3.894,0.142L89.4,48.691L68.818,28.386l-12.505,2.911l-6.596,7.362l4.855,8.277l9.633-1.328
			l9.896,11.148l-5.284,3.338L47.14,53.522l-4.538,12.834l5.825,7.022l4.432-4.653L65.2,72.333c0,0,6.422,38.771,9.203,41.551
			c2.782,2.78,15.274,10.462,15.274,10.462H119.718z"/>
		
			<radialGradient id="SVGID_5_" cx="194.5996" cy="763.8438" r="6.4289" gradientTransform="matrix(1 0 0 1 -100 -591)" gradientUnits="userSpaceOnUse">
			<stop  offset="0.319" style="stop-color:#5D6638"/>
			<stop  offset="1" style="stop-color:#303B00"/>
		</radialGradient>
		<polyline fill="url(#SVGID_5_)" points="91.089,178.314 87.338,172.637 95.623,167.374 101.014,171.438 101.861,177.064 
			90.151,178.314 		"/>
		
			<radialGradient id="SVGID_6_" cx="224.2295" cy="764.4414" r="6.5132" gradientTransform="matrix(1 0 0 1 -100 -591)" gradientUnits="userSpaceOnUse">
			<stop  offset="0.319" style="stop-color:#5D6638"/>
			<stop  offset="1" style="stop-color:#303B00"/>
		</radialGradient>
		<polygon fill="url(#SVGID_6_)" points="116.413,178.314 118.971,168.568 122.666,168.568 130.629,172.637 132.046,175.725 		"/>
		
			<linearGradient id="SVGID_7_" gradientUnits="userSpaceOnUse" x1="173.2002" y1="749.7549" x2="176.5332" y2="755.7549" gradientTransform="matrix(1 0 0 1 -100 -591)">
			<stop  offset="0.319" style="stop-color:#5D6638"/>
			<stop  offset="1" style="stop-color:#303B00"/>
		</linearGradient>
		<polygon fill="url(#SVGID_7_)" points="89.883,157.896 78.807,149.589 63.577,157.896 63.577,172.32 76.729,174.104 		"/>
		
			<radialGradient id="SVGID_8_" cx="171.7598" cy="755.4902" r="8.9271" gradientTransform="matrix(1 0 0 1 -100 -591)" gradientUnits="userSpaceOnUse">
			<stop  offset="0.319" style="stop-color:#5D6638"/>
			<stop  offset="1" style="stop-color:#303B00"/>
		</radialGradient>
		<polygon fill="url(#SVGID_8_)" points="79.943,159.896 75.456,154.876 63.577,157.896 63.577,172.32 76.729,174.104 		"/>
		<path opacity="0.2" enable-background="new    " d="M66.39,70.453c0,0-0.231-4.644,5.003-9.692
			c7.679-7.408,24.515-12.193,33.894-11.568c9.379,0.626,17.85,2.033,17.85,2.033l1.711-2.508c0,0-23.49-6.01-38.761,1.413
			C63.577,61.073,66.39,68.95,66.39,68.95"/>
		<polygon fill="#E0DBA6" points="81.085,18.241 74.831,23.869 78.896,29.19 87.338,20.742 87.338,16.365 		"/>
		<polygon fill="#E0DBA6" points="116.751,16.365 122.666,18.554 128.294,18.554 128.294,16.365 119.505,13.603 		"/>
		<polygon fill="#E0DBA6" points="53.884,45.128 60.762,39.813 58.573,32.822 50.925,39.972 		"/>
		<polygon fill="#E0DBA6" points="48.569,68.95 50.925,63.329 48.569,58.437 43.735,66.701 		"/>
		<polygon fill="#E0DBA6" points="128.294,49.009 134.736,57.565 139.861,57.565 138.081,51.719 		"/>
		<path opacity="0.46" enable-background="new    " d="M128.618,74.558c0,0-9.703,5.9-13.455,9.965s-9.877,8.754-9.877,8.754
			s6.438-11.568,7.688-13.758c1.25-2.188,14.793-9.065,14.793-9.065L128.618,74.558z"/>
		<polygon opacity="0.46" enable-background="new    " points="87.338,41.545 95.623,38.512 92.497,37.146 87.338,38.512 		"/>
		<polygon opacity="0.46" enable-background="new    " points="70.454,52.772 76.729,45.128 74.687,45.128 70.454,50.131 		"/>
		<polygon opacity="0.46" enable-background="new    " points="116.413,39.345 124.229,41.545 122.521,38.976 116.95,37.781 		"/>
		<polygon opacity="0.46" enable-background="new    " points="61.545,68.95 60.762,66.491 62.64,60.604 58.886,66.491 		"/>
		<polygon opacity="0.46" enable-background="new    " points="100.075,127.424 103.557,138.739 105.503,154.876 105.988,135.005 
			103.454,127.96 		"/>
		<polygon opacity="0.46" enable-background="new    " points="94.601,132.669 95.123,138.739 97.071,154.876 97.558,135.005 
			95.022,127.96 		"/>
		<polygon opacity="0.46" enable-background="new    " points="122.521,66.491 91.481,78.581 105.286,70.453 122.521,63.692 		"/>
	</g>
</g>
<g id="outline_x5F_white">
	<g>
		<g>
			<path fill="#FFFFFF" d="M120.465,13.554c4.087,0,10.411,2.321,10.411,2.321l5.332,17.734l-12.597,16.749l5.007,24.199
				l6.118-3.963l0.834-4.104l-8.621-4.15c-2.703-4.025-0.278-13.372-0.278-13.372l21.974,6.118v28.281
				c0,0-5.283,13.163-10.013,20.395c-3.692,5.646-10.987,13.021-15.36,17.237c0.97,7.312,2.746,20.183,4.588,30.918l9.814,2.958
				l-0.312-2.822l32.828,2.822l-3.438,2.492l3.438,8.129l-9.065,7.14l-12.479,3.089l-5.028,6.535l-6.255,4.186H119.3l2.74-2.188
				l-32.827,0.626l-27.2,1.563l9.066-4.187l-15.007-6.535H43.88L29.811,170.5l5.94-3.126l-2.502-7.504l19.385-2.502l-0.625-2.492
				h17.105l6.342-3.459v-0.612l1.205-0.044l2.146-1.172l1.392,1.044l1.496-0.054c0.681-3.797,1.308-6.503,1.308-6.503l-2.728-25.786
				c-2.533-1.715-4.852-3.39-5.871-4.406c-2.781-2.78-9.203-41.551-9.203-41.551l-12.342-3.607l-4.432,4.653l-5.825-7.022
				l4.538-12.834l21.679,6.572l5.284-3.338l-9.896-11.148l-9.633,1.328l-4.855-8.277l6.596-7.362l12.505-2.911L89.399,48.69
				l-5.468-16.417l-3.894-0.142l-7.789-9.83l7.511-7.83h12.238l12.905,31.438l6.189,0.277l10.064-16.604l-4.313-4.131
				c0,0-1.198-6.998,0.38-10.596C117.645,13.899,118.889,13.554,120.465,13.554 M120.465,1.554L120.465,1.554
				c-9.755,0-13.359,6.496-14.23,8.487c-0.604,1.373-1.024,2.835-1.312,4.314L103.1,9.914c-1.849-4.502-6.232-7.443-11.102-7.443
				H79.76c-3.27,0-6.396,1.334-8.66,3.693l-7.511,7.83c-1.101,1.147-1.933,2.464-2.49,3.867l-7.506,1.748
				c-2.401,0.559-4.572,1.844-6.217,3.68l-6.596,7.362c-3.421,3.819-4.032,9.38-1.548,13.842c-1.502,1.313-2.695,3.019-3.406,5.028
				l-4.538,12.834c-1.408,3.982-0.619,8.411,2.078,11.662l5.825,7.022c2.188,2.638,5.399,4.215,8.825,4.332
				c0.137,0.005,0.275,0.007,0.412,0.007c2.331,0,4.593-0.679,6.522-1.927c0.578,3.231,1.276,7.03,2.03,10.904
				c4.171,21.44,5.927,25,8.938,28.013c0.619,0.618,1.461,1.389,2.991,2.559l1.582,14.948c-1.374,0.625-2.607,1.501-3.644,2.566
				l-0.793,0.434H52.009c-3.231,0-6.305,1.302-8.546,3.576l-11.75,1.517c-3.557,0.459-6.723,2.485-8.629,5.524
				c-1.584,2.523-2.161,5.527-1.659,8.423c-2.464,2.407-3.818,5.808-3.589,9.356c0.305,4.725,3.359,8.828,7.798,10.477l14.069,5.225
				c1.336,0.498,2.751,0.752,4.177,0.752h6.2c0.059,0.543,0.155,1.088,0.291,1.631c1.342,5.367,6.163,9.092,11.636,9.092
				c0.23,0,0.462-0.008,0.695-0.021l26.971-1.552l22.979-0.438c1.926,1.28,4.224,2.01,6.646,2.01h18.062
				c2.377,0,4.699-0.705,6.676-2.026l6.254-4.187c1.083-0.726,2.041-1.623,2.836-2.653l2.473-3.213l8.407-2.081
				c1.654-0.409,3.202-1.166,4.541-2.223l9.065-7.14c4.25-3.347,5.736-9.122,3.629-14.104l-0.279-0.656
				c1.268-2.584,1.596-5.6,0.791-8.495c-1.341-4.83-5.541-8.317-10.536-8.748l-32.827-2.821c-0.096-0.009-0.19-0.017-0.287-0.021
				c-0.806-5.252-1.545-10.451-2.139-14.758c4.607-4.688,9.579-10.198,12.712-14.987c5.229-7.996,10.521-21.033,11.104-22.493
				c0.57-1.421,0.863-2.938,0.863-4.47v-28.28c0-5.388-3.591-10.115-8.781-11.56l-6.694-1.865l0.632-0.84
				c2.294-3.051,3-7.012,1.901-10.667l-5.332-17.734c-1.089-3.616-3.812-6.509-7.356-7.81
				C133.059,3.893,126.236,1.554,120.465,1.554L120.465,1.554L120.465,1.554z"/>
		</g>
	</g>
</g>
<g id="outline_x5F_black">
	<g>
		<path d="M174.126,159.402c1.733-1.506,2.468-3.889,1.845-6.133c-0.67-2.414-2.771-4.158-5.268-4.373l-32.828-2.821
			c-0.172-0.017-0.343-0.022-0.514-0.022c-1.371,0-2.699,0.471-3.764,1.327l-0.438-0.132c-1.394-8.516-2.692-17.764-3.543-24.061
			c4.909-4.859,10.688-11.023,14.034-16.144c4.996-7.642,10.334-20.884,10.561-21.443c0.285-0.711,0.434-1.47,0.434-2.235v-28.28
			c0-2.694-1.797-5.058-4.393-5.78l-15.167-4.223l5.917-7.868c1.146-1.526,1.501-3.506,0.951-5.334l-5.332-17.734
			c-0.544-1.808-1.906-3.254-3.68-3.905c-1.223-0.45-7.572-2.689-12.479-2.689c-5.734,0-7.936,3.067-8.736,4.896
			c-2.135,4.865-1.147,11.959-0.797,14.018c0.219,1.267,0.836,2.43,1.766,3.319l0.839,0.802l-5.029,8.296L97.55,12.194
			c-0.925-2.251-3.117-3.722-5.551-3.722H79.76c-1.635,0-3.198,0.667-4.33,1.847l-7.511,7.83c-1.234,1.287-1.791,2.999-1.647,4.67
			l-11.318,2.635c-1.2,0.279-2.286,0.922-3.108,1.84l-6.596,7.362c-1.741,1.943-2.027,4.789-0.707,7.039l3.454,5.888
			c-0.287-0.042-0.574-0.062-0.858-0.062c-2.479,0-4.788,1.548-5.655,4.001l-4.538,12.834c-0.704,1.991-0.31,4.205,1.039,5.831
			l5.825,7.022c1.094,1.319,2.7,2.107,4.413,2.166c0.069,0.002,0.137,0.003,0.206,0.003c1.639,0,3.21-0.671,4.344-1.862l1.911-2.007
			l5.231,1.529c0.652,3.775,1.741,9.932,2.955,16.172c4.257,21.881,5.8,23.424,7.292,24.915c0.605,0.605,1.704,1.594,4.437,3.532
			l2.334,22.073c-0.012,0.055-0.023,0.109-0.036,0.17c-0.33,0.108-0.653,0.25-0.965,0.422l-0.908,0.496
			c-1.788,0.129-3.352,1.035-4.363,2.38l-3.075,1.677H52.009c-1.848,0-3.594,0.852-4.73,2.311c-0.222,0.283-0.416,0.584-0.581,0.898
			l-14.217,1.835c-1.779,0.229-3.361,1.242-4.314,2.763c-0.953,1.52-1.177,3.385-0.609,5.086l0.89,2.67l-1.431,0.752
			c-2.095,1.104-3.346,3.334-3.194,5.697c0.153,2.361,1.68,4.413,3.899,5.237l14.069,5.226c0.668,0.248,1.376,0.375,2.089,0.375
			h10.942l2.437,1.062c-1.089,1.415-1.524,3.287-1.067,5.114c0.671,2.686,3.082,4.547,5.818,4.547c0.115,0,0.231-0.004,0.348-0.012
			l27.086-1.558l25.339-0.483c1.115,1.276,2.75,2.053,4.518,2.053h18.061c1.188,0,2.352-0.354,3.339-1.016l6.254-4.186
			c0.542-0.362,1.021-0.811,1.418-1.327l3.751-4.875l10.441-2.584c0.828-0.205,1.604-0.583,2.271-1.11l9.066-7.14
			c2.125-1.673,2.867-4.562,1.812-7.052L174.126,159.402z M170.189,165.496l-9.066,7.14l-12.479,3.089l-5.029,6.535l-6.254,4.186
			H119.3l2.74-2.188l-32.827,0.626l-27.2,1.563l9.066-4.187l-15.007-6.535H43.88L29.811,170.5l5.94-3.126l-2.502-7.504l19.385-2.502
			l-0.625-2.492h17.105l6.342-3.459v-0.612l1.205-0.044l2.146-1.172l1.392,1.044l1.496-0.054c0.681-3.797,1.308-6.503,1.308-6.503
			l-2.728-25.786c-2.533-1.715-4.852-3.39-5.871-4.406c-2.781-2.78-9.203-41.551-9.203-41.551l-9-2.63l2.685-6.122l-6.028-5.144
			l2.047,6.701l-2.047,3.588l0,0l-4.431,4.652l-5.825-7.022l4.538-12.834l21.679,6.572l5.284-3.338l-7.388-8.322l5.929-8.855
			l-3.127-4.924v3.908l-5.311,7.045l0.001,0.001l-9.633,1.328l-4.855-8.277l6.596-7.362l12.505-2.911L89.399,48.69l-5.468-16.417
			l-3.894-0.142l-7.789-9.83l7.511-7.83h12.238l12.905,31.438l6.189,0.277l10.064-16.604l-4.313-4.131c0,0-1.198-6.998,0.38-10.596
			c0.422-0.956,1.666-1.301,3.241-1.301c4.087,0,10.411,2.321,10.411,2.321l5.332,17.734L124.843,48.72l-4.521,4.052l2.199,12.004
			l4.67,2.886l1.427,6.895l6.118-3.963l0.834-4.104l-8.028-3.865l-1.337-1.898c-1.419-4.477,0.466-11.76,0.466-11.76l21.974,6.118
			v28.281c0,0-5.283,13.163-10.013,20.395c-3.692,5.646-10.987,13.021-15.36,17.237c0.97,7.312,2.746,20.184,4.588,30.918
			l9.814,2.958l-0.312-2.822l32.828,2.822l-3.438,2.492L170.189,165.496z M125.57,59.826v0.002l0,0V59.826z"/>
		<polygon points="83.932,32.273 84.726,34.655 86.245,34.655 92.497,29.19 92.497,23.869 90.309,27.151 		"/>
		<polygon points="132.046,32.31 130.629,31.06 121.159,29.583 119.505,32.31 126.604,32.31 		"/>
		<polygon points="135.57,66.491 134.736,70.595 141.425,66.491 		"/>
	</g>
</g>
</svg>
