<?xml version="1.0" encoding="utf-8"?>
<!-- Generator: Adobe Illustrator 15.0.0, SVG Export Plug-In . SVG Version: 6.00 Build 0)  -->
<!DOCTYPE svg PUBLIC "-//W3C//DTD SVG 1.1//EN" "http://www.w3.org/Graphics/SVG/1.1/DTD/svg11.dtd">
<svg version="1.1" xmlns="http://www.w3.org/2000/svg" xmlns:xlink="http://www.w3.org/1999/xlink" x="0px" y="0px" width="200px"
	 height="200px" viewBox="0 0 200 200" enable-background="new 0 0 200 200" xml:space="preserve">
<g id="icon">
	<g id="Layer_2">
	</g>
	
		<linearGradient id="SVGID_1_" gradientUnits="userSpaceOnUse" x1="141.8047" y1="-33.0005" x2="191.901" y2="-226.9449" gradientTransform="matrix(1 0 0 -1 -50 61)">
		<stop  offset="0.1758" style="stop-color:#96DC00"/>
		<stop  offset="1" style="stop-color:#366100"/>
	</linearGradient>
	<path fill="url(#SVGID_1_)" d="M111.162,186.639c-4.842,0-9.43-1.673-13.638-4.971c-4.931-3.861-7.676-9.757-7.165-15.383
		c0.405-4.461,2.898-8.205,6.84-10.273c1.97-1.031,4.238-1.576,6.562-1.576c5.031,0,9.885,2.539,12.077,6.317
		c1.772,3.056,1.72,6.537-0.149,9.806c-0.756,1.32-1.635,2.383-2.58,3.234c0.24-0.052,0.479-0.113,0.717-0.182
		c5.25-1.522,8.249-3.436,9.438-6.018c1.219-2.648,0.707-6.479-1.521-11.387c-3.233-7.121-5.227-10.736-6.328-12.516
		c-3.398,1.638-10.057,4.209-18.354,4.209c-4.637,0-9.193-0.812-13.542-2.41c-19.797-7.275-21.466-21.872-22.178-28.105
		c-1.268-11.132,4.434-24.21,18.457-42.244c-2.422-4.552-8.485-16.875-9.385-27.693c-1.14-13.728,3.896-23.114,8.411-29.758
		c1.948-2.866,4.799-4.445,8.028-4.445c4.056,0,8.488,2.438,12.481,6.866c5.566,6.172,11.044,17.314,9.723,30.074
		c-1.115,10.757-5.293,21.653-13.508,35.151l5.403,10.386c2.021-0.483,5.067-1.034,8.442-1.034c4.162,0,7.83,0.83,10.899,2.465
		c9.417,5.011,17.433,15.818,12.772,27.703c-2.808,7.158-6.715,11.414-9.174,13.558c2.133,4.058,6.313,12.073,7.062,14.008
		l0.15,0.388c6.209,15.729,2.437,23.09-1.824,26.496C123.188,184.171,117.092,186.639,111.162,186.639
		C111.163,186.639,111.163,186.639,111.162,186.639z M89.2,93.776c-2.896,3.829-6.554,8.851-7.539,10.93
		c-0.159,0.334-0.38,0.762-0.645,1.272c-4.592,8.857-8.416,20.088,2.877,28.377c4.252,3.121,9.011,4.705,14.146,4.705
		c5.717,0,10.682-1.966,13.455-3.342l-11.615-21.806c-2.145,1.228-5.128,3.653-5.583,7.813c-0.73,6.664,8.954,9.265,9.052,9.289
		c1.426,0.371,2.366,1.724,2.228,3.188c-0.14,1.467-1.326,2.616-2.796,2.712c0,0-0.262,0.018-0.732,0.018
		c-8.111,0-17.673-3.879-20.18-14.768c-2.448-10.618,4.624-18.696,10.24-22.626L89.2,93.776z M119.393,130.562
		c2.131-2.463,4.521-6.856,2.217-12.834c-2.1-5.455-7.504-6.6-11.668-6.6c-0.344,0-0.674,0.01-0.985,0.023L119.393,130.562z
		 M87.854,30.943c-2.303,2.351-6.916,12.847-4.967,24.263c0.899,5.269,2.346,9.239,3.547,11.865
		c2.436-3.525,5.393-8.195,6.221-10.967c1.731-5.791,1.444-13.338-0.697-18.355C89.927,32.99,88.457,31.426,87.854,30.943z"/>
</g>
<g id="outline_x5F_white">
	<g>
		<g>
			<path fill="#FFFFFF" d="M86.852,16.246c8.763,0.001,21.023,16.21,19.218,33.631c-1.241,11.989-6.663,23.578-13.969,35.337
				l7.311,14.053c0,0,4.54-1.577,9.98-1.577c3.096,0,6.481,0.511,9.489,2.113c8.295,4.414,15.363,13.824,11.392,23.959
				c-3.978,10.141-10.219,13.812-10.219,13.812s7.182,13.558,8.103,15.933c0.915,2.38,7.224,17.083-0.748,23.455
				c-3.938,3.146-9.745,6.679-16.247,6.679c-3.771,0-7.777-1.189-11.787-4.332c-7.396-5.795-8.486-16.597-0.782-20.64
				c1.624-0.851,3.407-1.231,5.169-1.231c6.604,0,12.902,5.373,9.323,11.633c-2.515,4.395-6.888,5.078-9.366,5.078
				c-1.121,0-1.855-0.141-1.855-0.141s3.662,3.037,8.941,3.037c1.207,0,2.502-0.158,3.854-0.551
				c9.069-2.631,16.181-7.5,9.813-21.525c-6.371-14.031-8.207-15.131-8.207-15.131s-8.022,5.064-19.207,5.064
				c-3.858,0-8.095-0.604-12.506-2.227c-17.2-6.32-19.369-18.07-20.233-25.631c-1.27-11.15,5.365-24.31,19.059-41.609
				c0,0-8.917-15.47-9.978-28.235c-1.026-12.353,3.166-20.853,7.903-27.824C82.773,17.216,84.708,16.246,86.852,16.246
				 M86.104,72.659c0,0,7.807-10.275,9.426-15.697c2.023-6.77,1.497-14.981-0.812-20.391c-2.45-5.739-4.885-8.801-6.969-8.8
				c-0.48,0-0.942,0.163-1.381,0.492c-3.143,2.361-8.671,14.364-6.438,27.448C81.85,66.956,86.104,72.659,86.104,72.659
				 M98.039,142.061c9.848,0,17.482-5.162,17.482-5.162l-14.313-26.871c0,0-8.955,2.795-9.894,11.375
				c-1.03,9.391,11.288,12.521,11.288,12.521s-0.199,0.013-0.556,0.013c-2.711,0-14.549-0.684-17.257-12.439
				c-3.066-13.303,11.232-20.85,11.232-20.85l-6.289-12.48c0,0-8.956,11.402-10.782,15.256c-1.831,3.854-12.929,21.537,3.167,33.354
				C87.523,140.743,93.063,142.061,98.039,142.061 M118.557,135.345c0,0,10.428-6.817,5.854-18.694
				c-2.678-6.95-9.503-8.521-14.469-8.521c-2.848,0-5.084,0.517-5.571,0.83L118.557,135.345 M86.853,4.246L86.853,4.246
				c-6.211,0-11.852,3.056-15.473,8.387c-5.348,7.869-11.31,19.023-9.937,35.561c0.784,9.427,4.722,19.406,7.803,25.975
				c-13.225,17.978-18.302,31.464-16.848,44.233c0.746,6.521,3.012,26.349,28.016,35.537c1.472,0.541,2.963,1.01,4.471,1.402
				c-1.943,2.95-3.149,6.393-3.489,10.129c-0.785,8.635,3.269,17.557,10.579,23.282c5.828,4.567,12.285,6.886,19.187,6.886
				c8.021,0,16.007-3.129,23.734-9.301c5.432-4.341,13.24-14.895,4.58-36.834l-0.119-0.305c-0.599-1.545-2.426-5.21-4.539-9.303
				c2.312-2.953,4.688-6.814,6.627-11.754c3.125-7.973,2.496-16.606-1.768-24.314c-3.312-5.988-8.695-11.18-15.158-14.619
				c-4.383-2.334-9.474-3.52-15.127-3.52c-1.191,0-2.345,0.053-3.443,0.142l-0.12-0.231c7.164-12.654,11.063-23.74,12.179-34.486
				c1.625-15.695-5.128-29.418-11.99-37.028C100.296,7.741,93.49,4.246,86.853,4.246L86.853,4.246L86.853,4.246z"/>
		</g>
	</g>
</g>
<g id="outline_x5F_black">
	<path d="M86.852,16.246c8.763,0.001,21.023,16.21,19.218,33.631c-1.241,11.989-6.663,23.578-13.969,35.337l7.311,14.053
		c0,0,4.54-1.577,9.98-1.577c3.096,0,6.481,0.511,9.489,2.113c8.295,4.414,15.363,13.824,11.392,23.959
		c-3.978,10.141-10.219,13.812-10.219,13.812s7.182,13.558,8.103,15.933c0.915,2.38,7.224,17.083-0.748,23.455
		c-3.938,3.146-9.745,6.679-16.247,6.679c-3.771,0-7.777-1.189-11.787-4.332c-7.396-5.795-8.486-16.597-0.782-20.64
		c1.624-0.851,3.407-1.231,5.169-1.231c6.604,0,12.902,5.373,9.323,11.633c-2.515,4.395-6.888,5.078-9.366,5.078
		c-1.121,0-1.855-0.141-1.855-0.141s3.662,3.037,8.941,3.037c1.207,0,2.502-0.158,3.854-0.551c9.069-2.631,16.181-7.5,9.813-21.525
		c-6.371-14.031-8.207-15.131-8.207-15.131s-8.022,5.064-19.207,5.064c-3.859,0-8.095-0.604-12.507-2.227
		c-17.2-6.32-19.369-18.07-20.233-25.631c-1.27-11.15,5.365-24.31,19.059-41.609c0,0-8.917-15.47-9.978-28.235
		c-1.026-12.353,3.166-20.853,7.903-27.824C82.773,17.216,84.708,16.246,86.852,16.246 M86.104,72.659
		c0,0,7.807-10.275,9.426-15.697c2.023-6.77,1.497-14.981-0.812-20.391c-2.45-5.739-4.885-8.801-6.969-8.8
		c-0.48,0-0.942,0.163-1.381,0.492c-3.143,2.361-8.671,14.364-6.438,27.448C81.85,66.956,86.104,72.659,86.104,72.659
		 M98.039,142.061c9.848,0,17.482-5.162,17.482-5.162l-14.313-26.871c0,0-8.955,2.795-9.894,11.375
		c-1.03,9.391,11.288,12.521,11.288,12.521s-0.199,0.013-0.556,0.013c-2.711,0-14.549-0.684-17.257-12.439
		c-3.066-13.303,11.232-20.85,11.232-20.85l-6.289-12.48c0,0-8.956,11.402-10.782,15.256c-1.831,3.854-12.929,21.537,3.167,33.354
		C87.523,140.743,93.063,142.061,98.039,142.061 M118.557,135.345c0,0,10.428-6.817,5.854-18.694
		c-2.678-6.95-9.503-8.521-14.469-8.521c-2.848,0-5.084,0.517-5.571,0.83L118.557,135.345 M86.853,10.246v6V10.246
		c-4.254,0-7.986,2.045-10.51,5.759c-4.792,7.052-10.137,17.028-8.919,31.692c0.845,10.161,5.964,21.474,8.831,27.127
		c-13.864,18.134-19.238,31.096-17.894,42.9c0.776,6.785,2.592,22.67,24.125,30.584c4.68,1.721,9.585,2.594,14.577,2.594
		c7.085,0,13.089-1.771,17.095-3.387c1.101,2.021,2.684,5.151,4.854,9.934c1.799,3.964,2.342,7.121,1.526,8.893
		c-0.13,0.283-0.31,0.561-0.538,0.83c0.387-2.722-0.135-5.459-1.562-7.923c-2.754-4.746-8.514-7.812-14.674-7.812
		c-2.808,0-5.558,0.662-7.954,1.916c-4.864,2.555-7.938,7.168-8.438,12.662c-0.603,6.629,2.58,13.531,8.303,18.017
		c4.748,3.721,9.959,5.608,15.487,5.608c6.627,0,13.354-2.688,19.99-7.99c5.052-4.036,9.625-12.508,2.744-29.941l-0.14-0.354
		c-0.698-1.803-3.804-7.83-6.149-12.313c2.601-2.653,5.812-6.864,8.252-13.087c5.328-13.594-3.604-25.83-14.158-31.446
		c-3.508-1.868-7.648-2.816-12.309-2.816c-2.543,0-4.896,0.282-6.832,0.63l-3.578-6.877c7.785-13.103,11.951-24.276,13.055-34.947
		c1.423-13.738-4.479-25.74-10.478-32.391C96.993,13.037,91.769,10.246,86.853,10.246L86.853,10.246z M87.169,60.442
		c-0.495-1.676-0.958-3.591-1.324-5.741c-1.256-7.357,0.479-14.203,2.21-18.236c0.347,0.678,0.73,1.491,1.145,2.462
		c1.595,3.738,2.307,10.543,0.582,16.317C89.412,56.482,88.418,58.373,87.169,60.442L87.169,60.442z M119.389,124.22l-5.109-9.499
		c2.242,0.717,3.76,2.082,4.531,4.086C119.607,120.876,119.689,122.686,119.389,124.22L119.389,124.22z M104.034,128.095
		c-0.607-0.179-7.176-2.21-6.756-6.038c0.162-1.477,0.817-2.656,1.633-3.578L104.034,128.095L104.034,128.095z"/>
</g>
</svg>
