<?xml version="1.0" encoding="utf-8"?>
<!-- Generator: Adobe Illustrator 15.0.0, SVG Export Plug-In . SVG Version: 6.00 Build 0)  -->
<!DOCTYPE svg PUBLIC "-//W3C//DTD SVG 1.1//EN" "http://www.w3.org/Graphics/SVG/1.1/DTD/svg11.dtd">
<svg version="1.1" xmlns="http://www.w3.org/2000/svg" xmlns:xlink="http://www.w3.org/1999/xlink" x="0px" y="0px" width="200px"
	 height="200px" viewBox="0 0 200 200" enable-background="new 0 0 200 200" xml:space="preserve">
<g id="icon">
	<g id="Layer_2">
	</g>
	<g>
		
			<radialGradient id="SVGID_1_" cx="155.5049" cy="-134.7324" r="92.4401" gradientTransform="matrix(1 0 0 -1.0696 -50 -21.336)" gradientUnits="userSpaceOnUse">
			<stop  offset="0" style="stop-color:#FFFFFF"/>
			<stop  offset="0.3995" style="stop-color:#FDFDFE"/>
			<stop  offset="0.6306" style="stop-color:#F4F7FB"/>
			<stop  offset="0.8182" style="stop-color:#E6EDF5"/>
			<stop  offset="0.9825" style="stop-color:#D3DFED"/>
			<stop  offset="1" style="stop-color:#D0DDEC"/>
		</radialGradient>
		<polygon fill="url(#SVGID_1_)" points="174.234,78.604 114.547,30.999 25.765,75.809 82.934,131.729 		"/>
		
			<linearGradient id="SVGID_2_" gradientUnits="userSpaceOnUse" x1="193.9727" y1="-95.9316" x2="177.2272" y2="-62.8356" gradientTransform="matrix(1 0 0 -1 -50 61)">
			<stop  offset="0.1472" style="stop-color:#B7CBE2"/>
			<stop  offset="1" style="stop-color:#6086A9"/>
		</linearGradient>
		<polygon fill="url(#SVGID_2_)" points="82.934,131.729 83.43,175.411 169.729,120.352 174.234,78.604 		"/>
		
			<linearGradient id="SVGID_3_" gradientUnits="userSpaceOnUse" x1="182.4072" y1="-24.3179" x2="184.8371" y2="-21.731" gradientTransform="matrix(1 0 0 -1 -50 61)">
			<stop  offset="0" style="stop-color:#8195AC"/>
			<stop  offset="1" style="stop-color:#244264"/>
		</linearGradient>
		<polygon fill="url(#SVGID_3_)" points="147.367,94.214 123.35,72.192 119.713,74.01 143.798,96.412 		"/>
		
			<linearGradient id="SVGID_4_" gradientUnits="userSpaceOnUse" x1="192.9678" y1="-54.5757" x2="195.8793" y2="-54.5757" gradientTransform="matrix(1 0 0 -1 -50 61)">
			<stop  offset="0" style="stop-color:#8195AC"/>
			<stop  offset="1" style="stop-color:#244264"/>
		</linearGradient>
		<polygon fill="url(#SVGID_4_)" points="147.367,94.214 147.367,134.626 143.729,136.938 143.798,96.412 		"/>
		
			<linearGradient id="SVGID_5_" gradientUnits="userSpaceOnUse" x1="78.2578" y1="-86.4844" x2="114.6195" y2="-56.2861" gradientTransform="matrix(1 0 0 -1 -50 61)">
			<stop  offset="0" style="stop-color:#FFFFFF"/>
			<stop  offset="0.4663" style="stop-color:#B7CBE2"/>
			<stop  offset="1" style="stop-color:#6086A9"/>
		</linearGradient>
		<polygon fill="url(#SVGID_5_)" points="83.43,175.411 29.624,116.508 25.765,75.809 82.934,131.729 		"/>
		
			<linearGradient id="SVGID_6_" gradientUnits="userSpaceOnUse" x1="147.8311" y1="-44.3462" x2="150.3012" y2="-41.7163" gradientTransform="matrix(1 0 0 -1 -50 61)">
			<stop  offset="0" style="stop-color:#8195AC"/>
			<stop  offset="1" style="stop-color:#244264"/>
		</linearGradient>
		<polygon fill="url(#SVGID_6_)" points="112.715,114.4 89.042,91.852 85.404,93.673 109.145,116.6 		"/>
		
			<linearGradient id="SVGID_7_" gradientUnits="userSpaceOnUse" x1="131.3535" y1="6.1162" x2="112.1236" y2="-17.2712" gradientTransform="matrix(1 0 0 -1 -50 61)">
			<stop  offset="0" style="stop-color:#354760"/>
			<stop  offset="1" style="stop-color:#000000"/>
		</linearGradient>
		<polygon fill="url(#SVGID_7_)" points="83.43,103.568 44.191,66.557 42.795,50.571 82.934,86.829 		"/>
		
			<linearGradient id="SVGID_8_" gradientUnits="userSpaceOnUse" x1="130.9482" y1="-32.5479" x2="107.9951" y2="42.9262" gradientTransform="matrix(1 0 0 -1 -50 61)">
			<stop  offset="0" style="stop-color:#354760"/>
			<stop  offset="1" style="stop-color:#000000"/>
		</linearGradient>
		<polygon fill="url(#SVGID_8_)" points="100.969,76.896 61.195,42.009 42.795,50.571 82.934,86.829 		"/>
		
			<linearGradient id="SVGID_9_" gradientUnits="userSpaceOnUse" x1="130.8613" y1="-32.2573" x2="109.0994" y2="39.2998" gradientTransform="matrix(1 0 0 -1 -50 61)">
			<stop  offset="0" style="stop-color:#88AECF"/>
			<stop  offset="1" style="stop-color:#000000"/>
		</linearGradient>
		<polygon fill="url(#SVGID_9_)" points="82.934,84.302 44.642,49.713 42.795,50.571 82.934,86.829 100.969,76.896 99.198,75.344 		
			"/>
		
			<linearGradient id="SVGID_10_" gradientUnits="userSpaceOnUse" x1="136.04" y1="-17.6836" x2="145.5374" y2="-35.4908" gradientTransform="matrix(1 0 0 -1 -50 61)">
			<stop  offset="0" style="stop-color:#354760"/>
			<stop  offset="1" style="stop-color:#000000"/>
		</linearGradient>
		<polygon fill="url(#SVGID_10_)" points="82.934,86.829 83.43,103.568 100.417,93.72 100.969,76.896 		"/>
		
			<linearGradient id="SVGID_11_" gradientUnits="userSpaceOnUse" x1="164.332" y1="22.269" x2="147.553" y2="1.8623" gradientTransform="matrix(1 0 0 -1 -50 61)">
			<stop  offset="0" style="stop-color:#474747"/>
			<stop  offset="1" style="stop-color:#000000"/>
		</linearGradient>
		<polygon fill="url(#SVGID_11_)" points="119.029,83.583 78.738,49.138 77.342,33.153 119.454,66.843 		"/>
		
			<linearGradient id="SVGID_12_" gradientUnits="userSpaceOnUse" x1="165.7207" y1="-12.8574" x2="143.6459" y2="59.7288" gradientTransform="matrix(1 0 0 -1 -50 61)">
			<stop  offset="0" style="stop-color:#354760"/>
			<stop  offset="1" style="stop-color:#000000"/>
		</linearGradient>
		<polygon fill="url(#SVGID_12_)" points="136.568,56.91 95.743,24.59 77.342,33.153 119.454,66.843 		"/>
		
			<linearGradient id="SVGID_13_" gradientUnits="userSpaceOnUse" x1="165.6338" y1="-12.5693" x2="144.7447" y2="56.1178" gradientTransform="matrix(1 0 0 -1 -50 61)">
			<stop  offset="0" style="stop-color:#88AECF"/>
			<stop  offset="1" style="stop-color:#000000"/>
		</linearGradient>
		<polygon fill="url(#SVGID_13_)" points="119.454,64.418 79.258,32.261 77.342,33.153 119.454,66.843 136.568,56.91 
			134.803,55.511 		"/>
		
			<linearGradient id="SVGID_14_" gradientUnits="userSpaceOnUse" x1="171.6396" y1="2.3018" x2="181.1371" y2="-15.5055" gradientTransform="matrix(1 0 0 -1 -50 61)">
			<stop  offset="0" style="stop-color:#354760"/>
			<stop  offset="1" style="stop-color:#000000"/>
		</linearGradient>
		<polygon fill="url(#SVGID_14_)" points="119.454,66.843 119.029,83.583 136.018,73.732 136.568,56.91 		"/>
		
			<linearGradient id="SVGID_15_" gradientUnits="userSpaceOnUse" x1="158.3164" y1="-75.7241" x2="161.2276" y2="-75.7241" gradientTransform="matrix(1 0 0 -1 -50 61)">
			<stop  offset="0" style="stop-color:#8195AC"/>
			<stop  offset="1" style="stop-color:#244264"/>
		</linearGradient>
		<polygon fill="url(#SVGID_15_)" points="112.715,114.4 112.715,156.75 109.077,159.048 109.145,116.6 		"/>
	</g>
</g>
<g id="outline_x5F_white">
	<g>
		<g>
			<path fill="#FFFFFF" d="M95.743,24.59l12.265,9.709l6.539-3.3l59.688,47.605l-4.506,41.748l-22.36,14.267v0.008l-3.55,2.257
				l-31.104,19.844v0.023l-3.568,2.254L83.43,175.411l-53.806-58.903l-3.858-40.699l18.421-9.298l-1.392-15.939l18.4-8.562
				l11.52,10.104l6.018-3.037l-1.391-15.922l1.916-0.893l0.001,0.001L95.743,24.59 M95.741,12.59c-1.718,0-3.445,0.369-5.062,1.121
				l-16.32,7.596c-0.057,0.025-0.113,0.051-0.169,0.077l-1.916,0.893c-3.532,1.646-5.979,4.862-6.707,8.557
				c-1.396-0.546-2.881-0.824-4.374-0.824c-1.716,0-3.443,0.368-5.061,1.12l-18.401,8.562c-4.576,2.13-7.331,6.895-6.892,11.924
				l0.685,7.844l-11.167,5.636c-4.41,2.226-7.005,6.927-6.539,11.845l3.858,40.7c0.246,2.594,1.329,5.037,3.086,6.961l53.806,58.902
				c2.345,2.566,5.588,3.907,8.865,3.907c2.224,0,4.462-0.615,6.449-1.884l25.692-16.393l3.547-2.24
				c0.211-0.133,0.417-0.271,0.617-0.416l30.531-19.479l3.535-2.247c0.116-0.074,0.231-0.15,0.346-0.229l22.029-14.057
				c3.071-1.959,5.086-5.207,5.478-8.828l4.506-41.748c0.44-4.083-1.237-8.108-4.448-10.669l-59.688-47.605
				c-2.17-1.73-4.816-2.619-7.484-2.619c-1.73,0-3.473,0.375-5.096,1.136l-6.258-4.954C101.031,13.471,98.397,12.59,95.741,12.59
				L95.741,12.59z"/>
		</g>
	</g>
</g>
<g id="outline_x5F_black">
	<g>
		<path d="M95.743,24.59l12.265,9.709l6.539-3.3l59.688,47.605l-4.506,41.748l-22.36,14.267v0.008l-3.55,2.257l-31.104,19.844v0.023
			l-3.568,2.254L83.43,175.411l-53.806-58.903l-3.858-40.699l18.421-9.298l-1.392-15.939l18.4-8.562l11.52,10.104l6.018-3.037
			l-1.391-15.922l1.916-0.893l0.001,0.001L95.743,24.59 M95.742,18.59c-0.859,0-1.723,0.184-2.53,0.56L76.84,26.77
			c-0.038,0.017-0.077,0.035-0.115,0.052l-1.916,0.893c-2.287,1.065-3.664,3.448-3.444,5.961l0.877,10.041l-7.09-6.218
			c-1.116-0.979-2.529-1.489-3.957-1.489c-0.858,0-1.722,0.184-2.53,0.56l-18.4,8.562c-2.288,1.065-3.666,3.448-3.446,5.962
			l1.038,11.892l-14.794,7.467c-2.205,1.113-3.503,3.464-3.27,5.923l3.858,40.699c0.123,1.297,0.665,2.519,1.543,3.479L79,179.458
			c1.172,1.283,2.793,1.953,4.433,1.953c1.111,0,2.23-0.308,3.225-0.94l25.717-16.408l3.545-2.238
			c0.146-0.094,0.287-0.19,0.423-0.295l30.704-19.588l3.541-2.252c0.082-0.053,0.162-0.105,0.241-0.162l22.128-14.116
			c1.535-0.979,2.542-2.604,2.738-4.415l4.506-41.747c0.22-2.042-0.619-4.054-2.225-5.335l-59.688-47.605
			C117.204,25.444,115.88,25,114.546,25c-0.921,0-1.847,0.212-2.702,0.644l-3.117,1.573l-9.26-7.33
			C98.388,19.031,97.07,18.59,95.742,18.59L95.742,18.59z"/>
	</g>
</g>
</svg>
