<?xml version="1.0" encoding="utf-8"?>
<!-- Generator: Adobe Illustrator 15.0.0, SVG Export Plug-In . SVG Version: 6.00 Build 0)  -->
<!DOCTYPE svg PUBLIC "-//W3C//DTD SVG 1.1//EN" "http://www.w3.org/Graphics/SVG/1.1/DTD/svg11.dtd">
<svg version="1.1" id="Layer_1" xmlns="http://www.w3.org/2000/svg" xmlns:xlink="http://www.w3.org/1999/xlink" x="0px" y="0px"
	 width="200px" height="200px" viewBox="0 0 200 200" enable-background="new 0 0 200 200" xml:space="preserve">
<g id="icon">
	<g id="Layer_2">
	</g>
	<g>
		
			<radialGradient id="SVGID_1_" cx="435.6631" cy="1700.4102" r="30.761" fx="435.8802" fy="1686.0618" gradientTransform="matrix(0.9123 -0.4094 0.5222 1.1637 -1212.993 -1661.3059)" gradientUnits="userSpaceOnUse">
			<stop  offset="0.4606" style="stop-color:#585858"/>
			<stop  offset="0.5567" style="stop-color:#555555"/>
			<stop  offset="0.6281" style="stop-color:#4C4C4C"/>
			<stop  offset="0.6916" style="stop-color:#3B3B3B"/>
			<stop  offset="0.7504" style="stop-color:#252525"/>
			<stop  offset="0.8055" style="stop-color:#080808"/>
			<stop  offset="0.8182" style="stop-color:#000000"/>
		</radialGradient>
		<path fill="url(#SVGID_1_)" d="M95.804,128.602c7.958,17.729,3.937,36.808-8.98,42.604s-29.838-3.879-37.797-21.608
			c-7.958-17.731-3.938-36.808,8.979-42.604C70.922,101.195,87.845,110.869,95.804,128.602z"/>
		
			<radialGradient id="SVGID_2_" cx="430.5781" cy="1696.8555" r="37.5735" fx="431.4899" fy="1699.0603" gradientTransform="matrix(0.9123 -0.4094 0.5222 1.1637 -1213.0536 -1661.4426)" gradientUnits="userSpaceOnUse">
			<stop  offset="0.2424" style="stop-color:#FFFFFF"/>
			<stop  offset="0.3006" style="stop-color:#F8F8F8"/>
			<stop  offset="0.3825" style="stop-color:#E6E6E6"/>
			<stop  offset="0.4784" style="stop-color:#C8C8C8"/>
			<stop  offset="0.5841" style="stop-color:#9E9E9E"/>
			<stop  offset="0.6788" style="stop-color:#737373"/>
			<stop  offset="0.7114" style="stop-color:#797979"/>
			<stop  offset="0.8445" style="stop-color:#8E8E8E"/>
			<stop  offset="0.9333" style="stop-color:#959595"/>
		</radialGradient>
		<path fill="url(#SVGID_2_)" d="M89.749,131.913c7.959,17.731,3.938,36.808-8.979,42.604c-12.916,5.795-29.839-3.879-37.798-21.61
			c-7.957-17.732-3.937-36.806,8.979-42.604C64.868,104.507,81.791,114.182,89.749,131.913z"/>
		
			<linearGradient id="SVGID_3_" gradientUnits="userSpaceOnUse" x1="213.3691" y1="944.8691" x2="209.4774" y2="946.1663" gradientTransform="matrix(0.9917 -0.1286 0.1286 0.9917 -296.8289 -788.7542)">
			<stop  offset="0" style="stop-color:#464443"/>
			<stop  offset="1" style="stop-color:#000000"/>
		</linearGradient>
		<path fill="url(#SVGID_3_)" d="M38.047,94.346c0,0,3.355,17.448,6.131,27.273c2.776,9.824,3.432,9.613,3.432,9.613
			s8.134-1.311,11.35,3.707l1.537-0.198c0,0-5.17-8.481-8.328-21.839c-2.899-12.262-2.97-20.002-2.97-20.002L38.047,94.346z"/>
		
			<linearGradient id="SVGID_4_" gradientUnits="userSpaceOnUse" x1="-8.7749" y1="661.1973" x2="7.8888" y2="665.8477" gradientTransform="matrix(1 0 0 1 -100 -591)">
			<stop  offset="0" style="stop-color:#464443"/>
			<stop  offset="1" style="stop-color:#000000"/>
		</linearGradient>
		<path fill="url(#SVGID_4_)" d="M36.51,94.545c0,0,1.115,13.268,3.892,23.092c2.775,9.824,5.969,16.613,5.969,16.613
			s1.698-1.615,4.361-1.665c3.135-0.058,8.229,2.354,8.229,2.354s-5.474-9.164-8.632-22.521
			c-2.899-12.262-2.667-19.319-2.667-19.319L36.51,94.545z"/>
		
			<radialGradient id="SVGID_5_" cx="229.7598" cy="1405.5625" r="75.3159" gradientTransform="matrix(1.0231 0.0166 0.0177 0.4473 -210.1955 -576.556)" gradientUnits="userSpaceOnUse">
			<stop  offset="0.1152" style="stop-color:#464443"/>
			<stop  offset="1" style="stop-color:#000000"/>
		</radialGradient>
		<path fill="url(#SVGID_5_)" d="M42.864,108.992c-5.427,0.143-10.442-3.594-11.912-9.362
			C20.684,59.328,43.406,34.521,80.567,26.447c29.598-6.431,57.34-2.181,67.021,24.36c2.904,7.963,2.34,11.907-3.395,14.246
			c-5.734,2.339-12.625-0.312-15.394-5.931c-8.416-17.072-19.284-32.73-40.497-26.311C62.834,40.522,47.139,64.147,55.4,94.829
			c1.839,6.829-5.287,13.144-11.256,14.05C43.714,108.943,43.287,108.982,42.864,108.992z"/>
		
			<linearGradient id="SVGID_6_" gradientUnits="userSpaceOnUse" x1="230.002" y1="684.5967" x2="220.3138" y2="644.6816" gradientTransform="matrix(1 0 0 1 -100 -591)">
			<stop  offset="0" style="stop-color:#464443"/>
			<stop  offset="1" style="stop-color:#000000"/>
		</linearGradient>
		<path fill="url(#SVGID_6_)" d="M112.716,29.742c17.188,0.922,26.402,7.54,33.478,22.296c2.705,5.64,3.733,10.677-2,13.016
			c-5.731,2.339-12.625-0.314-15.391-5.931c-8.416-17.072-19.285-32.73-40.498-26.311C88.305,32.812,97.274,28.91,112.716,29.742z"
			/>
		
			<linearGradient id="SVGID_7_" gradientUnits="userSpaceOnUse" x1="230.4062" y1="741.5605" x2="236.3475" y2="753.0189" gradientTransform="matrix(1.0181 -0.0501 0.1084 0.9769 -219.8574 -638.6169)">
			<stop  offset="0" style="stop-color:#464443"/>
			<stop  offset="1" style="stop-color:#000000"/>
		</linearGradient>
		<path fill="url(#SVGID_7_)" d="M145.2,64.582c2.401-1.272,3.975-2.295,4.391-5.302c0.232-2.313-0.641-5.018-1.954-8.031
			c-6.822-15.656-19.955-34.741-63.249-19.46C55.101,42.126,45.024,66.356,53.453,97.355c1.084,3.986-3.111,7.471-5.398,10.1
			c3.853-2.309,8.753-7.405,7.346-12.626c-8.261-30.682,8.102-54.607,32.904-62.017c38.364-11.461,50.94,4.916,57.411,19.083
			C148.148,57.221,149.861,62.074,145.2,64.582z"/>
		
			<linearGradient id="SVGID_8_" gradientUnits="userSpaceOnUse" x1="240.6318" y1="651.7188" x2="239.4692" y2="640.868" gradientTransform="matrix(1 0 0 1 -100 -591)">
			<stop  offset="0" style="stop-color:#464443"/>
			<stop  offset="1" style="stop-color:#000000"/>
		</linearGradient>
		<path fill="url(#SVGID_8_)" d="M132.24,44.974c-3.219,0.533-4.633,2.358-1.984,6.952c0,0,5.376,10.548,8.378,19.195
			c3.003,8.646,3.003,8.646,3.003,8.646l12.129,6.329c0,0-1.851-9.501-6.104-20.549c-4.256-11.048-6.604-15.459-6.604-15.459
			S136.762,44.224,132.24,44.974z"/>
		
			<linearGradient id="SVGID_9_" gradientUnits="userSpaceOnUse" x1="191.6973" y1="659.4697" x2="206.8113" y2="658.6947" gradientTransform="matrix(1 0 0 1 -100 -591)">
			<stop  offset="0" style="stop-color:#464443"/>
			<stop  offset="1" style="stop-color:#000000"/>
		</linearGradient>
		<path fill="url(#SVGID_9_)" d="M131.051,45.354c-3.218,0.534-4.633,2.359-1.984,6.954c0,0,5.724,10.433,8.379,19.193
			c2.685,8.85,2.837,10.145,2.837,10.145l12.295,4.831c0,0-1.851-9.5-6.104-20.548c-4.259-11.048-6.604-15.46-6.604-15.46
			S135.57,44.605,131.051,45.354z"/>
		
			<radialGradient id="SVGID_10_" cx="244.5547" cy="545.2969" r="24.6028" fx="244.7284" fy="533.8209" gradientTransform="matrix(1 0 0 1.3565 -100 -630.0796)" gradientUnits="userSpaceOnUse">
			<stop  offset="0.5091" style="stop-color:#FFFFFF"/>
			<stop  offset="0.6721" style="stop-color:#FDFDFD"/>
			<stop  offset="0.754" style="stop-color:#F5F5F5"/>
			<stop  offset="0.8179" style="stop-color:#E8E8E8"/>
			<stop  offset="0.8724" style="stop-color:#D5D5D5"/>
			<stop  offset="0.921" style="stop-color:#BDBDBD"/>
			<stop  offset="0.9646" style="stop-color:#9F9F9F"/>
			<stop  offset="1" style="stop-color:#818181"/>
		</radialGradient>
		<path fill="url(#SVGID_10_)" d="M169.637,100.939c-3.979-13.068-13.242-22.311-22.424-23.403
			c-4.488-0.563-7.931-1.126-12.625,0.226c-11.765,3.387-16.954,20.418-11.709,37.644c5.244,17.226,18.989,28.3,30.7,24.734
			c1.978-0.603,3.764-1.591,5.353-2.888c2.079-1.354,4.51-3.748,5.819-5.012C171.234,125.982,173.479,113.568,169.637,100.939z"/>
		
			<radialGradient id="SVGID_11_" cx="640.8076" cy="1418.3896" r="28.2367" fx="641.2277" fy="1418.436" gradientTransform="matrix(0.8928 -0.2718 0.3984 1.3089 -996.4824 -1572.46)" gradientUnits="userSpaceOnUse">
			<stop  offset="0.3091" style="stop-color:#000000"/>
			<stop  offset="0.6727" style="stop-color:#393939"/>
			<stop  offset="0.7409" style="stop-color:#363636"/>
			<stop  offset="0.7825" style="stop-color:#2E2E2E"/>
			<stop  offset="0.8171" style="stop-color:#202020"/>
			<stop  offset="0.8475" style="stop-color:#0B0B0B"/>
			<stop  offset="0.8606" style="stop-color:#000000"/>
		</radialGradient>
		<path fill="url(#SVGID_11_)" d="M161.921,103.443c5.244,17.226,0,34.08-11.709,37.646c-11.711,3.563-25.456-7.51-30.7-24.733
			c-5.244-17.227-0.003-34.08,11.709-37.646C142.93,75.146,156.675,86.219,161.921,103.443z"/>
		
			<ellipse transform="matrix(-0.9566 0.2913 -0.2913 -0.9566 305.2706 175.5942)" cx="139.563" cy="110.522" rx="12.615" ry="18.554"/>
		
			<radialGradient id="SVGID_12_" cx="245.4316" cy="895.1484" r="23.0564" gradientTransform="matrix(0.9202 -0.3913 0.3913 0.9202 -515.8224 -584.7344)" gradientUnits="userSpaceOnUse">
			<stop  offset="0.3091" style="stop-color:#000000"/>
			<stop  offset="0.3492" style="stop-color:#090909"/>
			<stop  offset="0.4717" style="stop-color:#1E1E1E"/>
			<stop  offset="0.6075" style="stop-color:#2D2D2D"/>
			<stop  offset="0.7658" style="stop-color:#363636"/>
			<stop  offset="1" style="stop-color:#393939"/>
		</radialGradient>
		<path fill="url(#SVGID_12_)" d="M70.168,140.134c4.585,10.781,2.558,21.974-4.526,24.988c-7.085,3.011-16.552-3.294-21.136-14.075
			c-4.587-10.785-2.56-21.976,4.525-24.986C56.118,123.045,65.581,129.348,70.168,140.134z"/>
		
			<radialGradient id="SVGID_13_" cx="274.8008" cy="904.7695" r="16.536" gradientTransform="matrix(0.9699 -0.2433 0.4128 1.6456 -584.3184 -1275.5159)" gradientUnits="userSpaceOnUse">
			<stop  offset="0.3091" style="stop-color:#000000"/>
			<stop  offset="0.3492" style="stop-color:#090909"/>
			<stop  offset="0.4717" style="stop-color:#1E1E1E"/>
			<stop  offset="0.6075" style="stop-color:#2D2D2D"/>
			<stop  offset="0.7658" style="stop-color:#363636"/>
			<stop  offset="1" style="stop-color:#393939"/>
		</radialGradient>
		<path fill="url(#SVGID_13_)" d="M66.954,141.73c4.302,10.111,2.752,20.465-3.462,23.108c-6.214,2.644-14.744-3.424-19.046-13.539
			c-4.304-10.12-2.752-20.469,3.46-23.11C54.122,125.549,62.649,131.609,66.954,141.73z"/>
		
			<linearGradient id="SVGID_14_" gradientUnits="userSpaceOnUse" x1="164.6562" y1="720.4531" x2="154.1555" y2="740.4545" gradientTransform="matrix(1 0 0 1 -100 -591)">
			<stop  offset="0.1758" style="stop-color:#A2F200"/>
			<stop  offset="1" style="stop-color:#3A9200"/>
		</linearGradient>
		<path fill="url(#SVGID_14_)" d="M62.396,143.668c2.56,6.018,1.638,12.18-2.06,13.752c-3.697,1.572-8.773-2.037-11.334-8.057
			c-2.561-6.022-1.638-12.18,2.059-13.754C54.761,134.039,59.835,137.646,62.396,143.668z"/>
		
			<linearGradient id="SVGID_15_" gradientUnits="userSpaceOnUse" x1="159.7402" y1="728.1895" x2="154.8651" y2="739.4398" gradientTransform="matrix(1 0 0 1 -100 -591)">
			<stop  offset="0.0303" style="stop-color:#D2FF00"/>
			<stop  offset="1" style="stop-color:#A2F200;stop-opacity:0"/>
		</linearGradient>
		<path fill="url(#SVGID_15_)" d="M61.197,144.178c2.103,4.94,1.345,9.998-1.69,11.29c-3.036,1.291-7.203-1.673-9.305-6.614
			c-2.102-4.942-1.344-9.998,1.69-11.291C54.929,136.271,59.095,139.232,61.197,144.178z"/>
	</g>
</g>
<g id="outline_x5F_white">
	<g>
		<g>
			<path fill="#FFFFFF" d="M103.27,23.801c20.254,0,37.188,7.456,44.318,27.007c0.227,0.621,0.424,1.209,0.607,1.782
				c0.988,2.478,1.593,4.727,1.396,6.69c-0.308,2.224-1.25,3.361-2.69,4.317c0.246,0.627,0.5,1.275,0.761,1.95
				c1.924,4.991,3.354,9.663,4.346,13.29c7.466,3.146,14.349,11.317,17.632,22.103c3.877,12.737,1.559,25.254-5.058,31.459
				c-0.931,0.873-5.483,4.846-6.931,5.811c-1.25,0.835-2.608,1.486-4.069,1.934c-0.669,0.203-1.347,0.354-2.022,0.465
				c-0.438,0.18-0.886,0.347-1.345,0.484c-1.479,0.451-2.993,0.667-4.519,0.667c-10.531,0-21.603-10.354-26.185-25.399
				c-5.243-17.228-0.002-34.081,11.709-37.646c0.671-0.205,1.349-0.354,2.031-0.464c0.437-0.18,0.88-0.346,1.337-0.484
				c1.479-0.45,2.989-0.666,4.512-0.666c-0.399-1.405-0.937-3.229-1.654-5.595c-0.649-2.148-1.486-4.397-2.377-6.568
				c-2.648-1.104-4.937-3.109-6.267-5.81c-7.096-14.395-15.933-27.782-31.245-27.782c-2.849,0-5.925,0.464-9.252,1.471
				c-2.359,0.714-4.634,1.566-6.813,2.546C60.62,44.821,47.922,67.057,55.4,94.829c1.161,4.312-1.251,8.415-4.688,11.085
				c0.256,1.422,0.555,2.941,0.905,4.554c0.112-0.053,0.221-0.112,0.335-0.165c0.602-0.27,1.215-0.494,1.832-0.697
				c1.279-1.041,2.686-1.924,4.221-2.611c2.54-1.141,5.233-1.684,7.984-1.682c11.239,0,23.421,9.045,29.814,23.289
				c7.957,17.729,3.937,36.808-8.98,42.604c-0.601,0.271-1.213,0.495-1.83,0.699c-1.279,1.04-2.686,1.924-4.223,2.612
				c-2.539,1.141-5.233,1.682-7.983,1.682c-11.24,0-23.42-9.045-29.814-23.291c-5.042-11.237-5.269-23.01-1.476-31.604
				c-0.367-1.166-0.735-2.392-1.096-3.669c-0.847-2.993-1.538-6.308-2.091-9.469c-3.489-1.392-6.316-4.449-7.358-8.538
				C20.684,59.328,43.406,34.521,80.567,26.447C88.362,24.753,96.027,23.801,103.27,23.801 M103.27,11.801
				c-7.836,0-16.333,0.982-25.25,2.92c-24.143,5.246-42.283,16.721-52.461,33.186c-9.343,15.114-11.499,34.024-6.234,54.687
				c1.314,5.158,4.232,9.69,8.206,12.967c0.419,1.92,0.861,3.707,1.324,5.345c0.003,0.009,0.005,0.019,0.008,0.026
				c-3.421,11.225-2.325,24.659,3.163,36.892c3.909,8.706,9.689,16.171,16.717,21.581c7.472,5.756,15.788,8.797,24.045,8.797
				c4.517,0,8.855-0.919,12.896-2.732c1.781-0.799,3.492-1.773,5.108-2.908c0.323-0.133,0.637-0.267,0.944-0.402
				c9.696-4.354,16.675-13.574,19.146-25.301c2.218-10.515,0.749-22.291-4.131-33.164C98.826,106.03,83.13,94.003,67.356,93.34
				c-0.1-0.545-0.223-1.089-0.369-1.631c-6.475-24.048,5.807-39.231,19.459-45.421c1.686-0.757,3.492-1.432,5.334-1.989
				c2.098-0.635,4.041-0.957,5.776-0.957c7.165,0,13.098,6.109,20.481,21.087c0.977,1.983,2.223,3.808,3.691,5.433
				c-14.127,8.33-20.138,28.842-13.699,49.99c6.08,19.965,21.568,33.906,37.664,33.906c2.729,0,5.424-0.398,8.013-1.188
				c0.373-0.113,0.749-0.238,1.136-0.377c0.768-0.162,1.518-0.354,2.238-0.575c2.559-0.779,4.992-1.935,7.234-3.433
				c2.565-1.713,8.041-6.631,8.474-7.035c10.221-9.588,13.489-26.743,8.327-43.707C177.6,85.9,170.706,76.298,162.131,70.698
				c-0.562-1.825-1.156-3.625-1.775-5.393c0.531-1.364,0.906-2.826,1.121-4.382c0.021-0.148,0.039-0.296,0.056-0.445
				c0.471-4.692-0.888-8.999-2.035-11.943c-0.212-0.648-0.421-1.253-0.636-1.841C150.654,24.193,130.911,11.801,103.27,11.801
				L103.27,11.801z"/>
		</g>
	</g>
</g>
<g id="outline_x5F_black">
	<g>
		<path d="M103.27,23.801c20.254,0,37.188,7.456,44.318,27.007c0.227,0.621,0.424,1.209,0.607,1.782
			c0.988,2.478,1.593,4.727,1.396,6.69c-0.308,2.224-1.25,3.361-2.69,4.317c0.246,0.627,0.5,1.275,0.761,1.95
			c1.924,4.991,3.354,9.663,4.346,13.29c7.466,3.146,14.349,11.317,17.632,22.103c3.594,11.806,1.864,23.418-3.673,29.996
			c-1.276,1.519-7.543,6.91-9.446,7.963c-0.929,0.513-1.906,0.93-2.938,1.242c-0.669,0.203-1.347,0.354-2.022,0.463
			c-0.438,0.182-0.886,0.349-1.345,0.486c-1.479,0.45-2.991,0.667-4.519,0.667c-10.531,0-21.603-10.354-26.185-25.401
			c-5.243-17.226-0.002-34.079,11.71-37.646c0.67-0.205,1.348-0.354,2.03-0.464c0.437-0.18,0.88-0.346,1.337-0.484
			c1.479-0.45,2.989-0.666,4.512-0.666c-0.399-1.405-0.937-3.229-1.654-5.595c-0.649-2.148-1.486-4.397-2.377-6.568
			c-2.648-1.104-4.937-3.109-6.267-5.81c-7.096-14.395-15.933-27.782-31.245-27.782c-2.849,0-5.925,0.464-9.252,1.471
			c-2.359,0.714-4.634,1.566-6.813,2.546C60.62,44.821,47.922,67.057,55.4,94.829c1.161,4.312-1.251,8.415-4.688,11.085
			c0.256,1.422,0.555,2.941,0.905,4.554c0.112-0.053,0.221-0.112,0.335-0.165c0.602-0.27,1.215-0.494,1.832-0.697
			c1.279-1.041,2.686-1.924,4.221-2.611c2.54-1.141,5.233-1.684,7.984-1.682c11.239,0,23.421,9.045,29.814,23.289
			c7.957,17.729,3.937,36.808-8.98,42.604c-0.601,0.271-1.213,0.495-1.83,0.699c-1.279,1.04-2.686,1.924-4.223,2.612
			c-2.539,1.141-5.233,1.682-7.983,1.682c-11.239,0-23.42-9.045-29.814-23.291c-5.042-11.237-5.269-23.01-1.476-31.604
			c-0.367-1.166-0.735-2.392-1.096-3.669c-0.847-2.993-1.538-6.308-2.091-9.469c-3.489-1.392-6.316-4.449-7.358-8.538
			C20.684,59.328,43.406,34.521,80.567,26.447C88.362,24.753,96.027,23.801,103.27,23.801 M103.27,17.801
			c-7.41,0-15.477,0.937-23.976,2.783C56.78,25.476,39.963,36.015,30.662,51.061c-8.588,13.892-10.446,30.732-5.523,50.05
			c1.166,4.576,3.988,8.496,7.801,10.992c0.524,2.646,1.089,5.049,1.688,7.166c0.164,0.582,0.336,1.176,0.515,1.773
			c-3.657,10.143-2.823,22.777,2.356,34.316c7.204,16.054,21.385,26.836,35.289,26.836c3.664,0,7.177-0.741,10.439-2.206
			c1.641-0.735,3.209-1.658,4.676-2.75c0.487-0.183,0.943-0.367,1.378-0.562c8.043-3.608,13.63-11.091,15.733-21.062
			c1.955-9.28,0.629-19.746-3.736-29.471c-7.201-16.05-21.382-26.833-35.285-26.833c-1.548,0-3.068,0.132-4.555,0.396
			c0.397-2.134,0.33-4.314-0.241-6.438c-6.141-22.803,2.8-43.389,22.774-52.446c1.938-0.87,3.987-1.636,6.073-2.268
			c2.662-0.806,5.19-1.214,7.515-1.214c9.814,0,17.308,7.079,25.863,24.435c1.521,3.09,3.925,5.672,6.897,7.462
			c0.438,1.147,0.82,2.228,1.145,3.234c-0.689,0.137-1.352,0.303-1.998,0.501c-7.613,2.32-13.365,8.591-16.188,17.657
			c-2.563,8.246-2.389,18.004,0.492,27.474c5.317,17.461,18.445,29.654,31.926,29.654c2.136,0,4.242-0.312,6.265-0.927
			c0.397-0.121,0.808-0.263,1.235-0.425c0.74-0.143,1.443-0.316,2.136-0.526c1.41-0.43,2.786-1.012,4.086-1.729
			c2.681-1.479,9.515-7.422,11.138-9.351c7.096-8.43,8.942-22.073,4.822-35.608c-3.357-11.033-10.096-19.991-18.326-24.561
			c-0.973-3.321-2.045-6.564-3.201-9.684c0.875-1.405,1.434-3.014,1.688-4.846c0.011-0.074,0.02-0.148,0.025-0.223
			c0.273-2.728-0.254-5.608-1.715-9.317c-0.209-0.645-0.412-1.239-0.621-1.811C145.839,28.503,128.564,17.801,103.27,17.801
			L103.27,17.801z"/>
	</g>
</g>
</svg>
