<?xml version="1.0" encoding="utf-8"?>
<!-- Generator: Adobe Illustrator 15.0.0, SVG Export Plug-In . SVG Version: 6.00 Build 0)  -->
<!DOCTYPE svg PUBLIC "-//W3C//DTD SVG 1.1//EN" "http://www.w3.org/Graphics/SVG/1.1/DTD/svg11.dtd">
<svg version="1.1" id="Layer_1" xmlns="http://www.w3.org/2000/svg" xmlns:xlink="http://www.w3.org/1999/xlink" x="0px" y="0px"
	 width="200px" height="200px" viewBox="0 0 200 200" enable-background="new 0 0 200 200" xml:space="preserve">
<g id="icon">
	<g id="Layer_2">
	</g>
	<g>
		
			<radialGradient id="SVGID_1_" cx="248.5723" cy="588.9561" r="56.5521" gradientTransform="matrix(1.0055 0.0704 -0.0931 0.988 -143.7466 -482.1986)" gradientUnits="userSpaceOnUse">
			<stop  offset="0.097" style="stop-color:#FF2E00"/>
			<stop  offset="0.2117" style="stop-color:#F92C00"/>
			<stop  offset="0.3658" style="stop-color:#E82700"/>
			<stop  offset="0.5423" style="stop-color:#CC1F00"/>
			<stop  offset="0.7354" style="stop-color:#A51300"/>
			<stop  offset="0.9398" style="stop-color:#730500"/>
			<stop  offset="1" style="stop-color:#630000"/>
		</radialGradient>
		<path fill="url(#SVGID_1_)" d="M36.049,61.1c0,0-2.363,11.91-3.009,21.384c-0.644,9.473,0.988,21.855,4.782,24.25
			c3.794,2.395,6.492,0.166,8.336-1.493c1.845-1.662,2.789-5.418,0.493-9.636c-3.697-6.795-3.072-16.895-1.897-21.448
			c1.174-4.555,1.02-5.542,1.02-5.542L36.049,61.1z"/>
		<path opacity="0.18" fill="#ED94B5" enable-background="new    " d="M47.143,102.943c-1.844,1.66-4.542,3.888-8.336,1.492
			c-3.794-2.396-5.426-14.778-4.782-24.25c0.457-6.72,1.78-14.662,2.51-18.714L36.049,61.1c0,0-2.363,11.91-3.009,21.384
			c-0.644,9.473,0.988,21.855,4.782,24.25c3.794,2.395,6.492,0.166,8.336-1.493c0.773-0.695,1.382-1.763,1.667-3.072
			C47.617,102.461,47.389,102.723,47.143,102.943z"/>
		
			<linearGradient id="SVGID_2_" gradientUnits="userSpaceOnUse" x1="251.5029" y1="511.4609" x2="232.6221" y2="549.7896" gradientTransform="matrix(1.0055 0.0704 -0.0931 0.988 -143.7466 -482.1986)">
			<stop  offset="0.097" style="stop-color:#FF2E00"/>
			<stop  offset="0.2117" style="stop-color:#F92C00"/>
			<stop  offset="0.3658" style="stop-color:#E82700"/>
			<stop  offset="0.5423" style="stop-color:#CC1F00"/>
			<stop  offset="0.7354" style="stop-color:#A51300"/>
			<stop  offset="0.9398" style="stop-color:#730500"/>
			<stop  offset="1" style="stop-color:#630000"/>
		</linearGradient>
		<path fill="url(#SVGID_2_)" d="M81.435,48.4c-1.18,10.095-20.362,28.591-30.026,30.146c0,0-15.683-13.341-18.241-17.765
			c-1.503-2.599-2.171-5.9-1.734-9.635c1.18-10.095,9.97-19.538,19.633-21.092c4.832-0.775,8.965,0.568,11.747,3.365
			C65.592,36.22,81.435,48.4,81.435,48.4z"/>
		<path opacity="0.18" fill="#ED94B5" enable-background="new    " d="M51.736,74.937c0,0-15.684-13.34-18.242-17.763
			c-1.179-2.039-1.832-4.517-1.854-7.289c-0.076,0.42-0.157,0.839-0.207,1.263c-0.437,3.734,0.231,7.036,1.734,9.635
			c2.559,4.424,18.241,17.765,18.241,17.765c9.664-1.556,28.847-20.052,30.026-30.146c0,0-0.192-0.148-0.524-0.404
			C76.891,58.366,60.448,73.536,51.736,74.937z"/>
		
			<linearGradient id="SVGID_3_" gradientUnits="userSpaceOnUse" x1="297.0625" y1="543.6348" x2="265.9566" y2="574.6304" gradientTransform="matrix(1.0055 0.0704 -0.0931 0.988 -143.7466 -482.1986)">
			<stop  offset="0.097" style="stop-color:#FFFFFF"/>
			<stop  offset="0.2258" style="stop-color:#F9F9FA"/>
			<stop  offset="0.3987" style="stop-color:#E8E8EA"/>
			<stop  offset="0.5967" style="stop-color:#CDCCD1"/>
			<stop  offset="0.8117" style="stop-color:#A6A5AE"/>
			<stop  offset="1" style="stop-color:#7F7D8A"/>
		</linearGradient>
		<path fill="url(#SVGID_3_)" d="M152.611,67.855c-1.021,10.792-60.108,80.379-70.336,83.23c0,0-27.282-64.702-29.767-70.13
			c-1.061-2.317-1.515-5.155-1.211-8.384c1.018-10.79,10.133-21.851,20.357-24.704c3.209-0.895,6.145-0.876,8.633-0.096
			C85.729,49.48,152.611,67.855,152.611,67.855z"/>
		
			<linearGradient id="SVGID_4_" gradientUnits="userSpaceOnUse" x1="202.4639" y1="668.3086" x2="170.6948" y2="699.9651" gradientTransform="matrix(1 0 0 1 -100 -591)">
			<stop  offset="0.097" style="stop-color:#FFFFFF"/>
			<stop  offset="1" style="stop-color:#FFFFFF;stop-opacity:0"/>
		</linearGradient>
		<path opacity="0.48" fill="url(#SVGID_4_)" enable-background="new    " d="M149.268,66.937
			c-10.694,19.75-50.019,68.695-58.92,71.18c0,0-36.01-59.276-38.494-64.706c-0.187-0.405-0.347-0.835-0.494-1.27
			c-0.017,0.144-0.048,0.287-0.062,0.432c-0.303,3.229,0.15,6.066,1.211,8.384c2.485,5.428,29.767,70.13,29.767,70.13
			c10.228-2.853,69.316-72.438,70.334-83.23C152.611,67.855,151.387,67.519,149.268,66.937z"/>
		<g>
			
				<linearGradient id="SVGID_5_" gradientUnits="userSpaceOnUse" x1="146.4209" y1="624.1562" x2="126.8583" y2="663.8691" gradientTransform="matrix(1 0 0 1 -100 -591)">
				<stop  offset="0.097" style="stop-color:#FF2E00"/>
				<stop  offset="0.2117" style="stop-color:#F92C00"/>
				<stop  offset="0.3658" style="stop-color:#E82700"/>
				<stop  offset="0.5423" style="stop-color:#CC1F00"/>
				<stop  offset="0.7354" style="stop-color:#A51300"/>
				<stop  offset="0.9398" style="stop-color:#730500"/>
				<stop  offset="1" style="stop-color:#630000"/>
			</linearGradient>
			<path fill="url(#SVGID_5_)" d="M47.415,31.028c0.045-0.018,0.088-0.033,0.134-0.051C47.503,30.995,47.46,31.011,47.415,31.028z"
				/>
			
				<linearGradient id="SVGID_6_" gradientUnits="userSpaceOnUse" x1="147.6543" y1="624.7158" x2="128.3847" y2="663.8336" gradientTransform="matrix(1 0 0 1 -100 -591)">
				<stop  offset="0.097" style="stop-color:#FF2E00"/>
				<stop  offset="0.2117" style="stop-color:#F92C00"/>
				<stop  offset="0.3658" style="stop-color:#E82700"/>
				<stop  offset="0.5423" style="stop-color:#CC1F00"/>
				<stop  offset="0.7354" style="stop-color:#A51300"/>
				<stop  offset="0.9398" style="stop-color:#730500"/>
				<stop  offset="1" style="stop-color:#630000"/>
			</linearGradient>
			<path fill="url(#SVGID_6_)" d="M49.062,30.503c0.135-0.037,0.271-0.073,0.405-0.107C49.332,30.43,49.196,30.466,49.062,30.503z"
				/>
			
				<linearGradient id="SVGID_7_" gradientUnits="userSpaceOnUse" x1="144.3125" y1="623.0977" x2="124.9274" y2="662.4498" gradientTransform="matrix(1 0 0 1 -100 -591)">
				<stop  offset="0.097" style="stop-color:#FF2E00"/>
				<stop  offset="0.2117" style="stop-color:#F92C00"/>
				<stop  offset="0.3658" style="stop-color:#E82700"/>
				<stop  offset="0.5423" style="stop-color:#CC1F00"/>
				<stop  offset="0.7354" style="stop-color:#A51300"/>
				<stop  offset="0.9398" style="stop-color:#730500"/>
				<stop  offset="1" style="stop-color:#630000"/>
			</linearGradient>
			<path fill="url(#SVGID_7_)" d="M43.771,32.786c0.188-0.111,0.375-0.222,0.565-0.327C44.146,32.564,43.959,32.675,43.771,32.786z"
				/>
			
				<linearGradient id="SVGID_8_" gradientUnits="userSpaceOnUse" x1="145.334" y1="623.6006" x2="125.9072" y2="663.0376" gradientTransform="matrix(1 0 0 1 -100 -591)">
				<stop  offset="0.097" style="stop-color:#FF2E00"/>
				<stop  offset="0.2117" style="stop-color:#F92C00"/>
				<stop  offset="0.3658" style="stop-color:#E82700"/>
				<stop  offset="0.5423" style="stop-color:#CC1F00"/>
				<stop  offset="0.7354" style="stop-color:#A51300"/>
				<stop  offset="0.9398" style="stop-color:#730500"/>
				<stop  offset="1" style="stop-color:#630000"/>
			</linearGradient>
			<path fill="url(#SVGID_8_)" d="M45.522,31.841c0.161-0.077,0.323-0.152,0.484-0.227C45.845,31.688,45.684,31.764,45.522,31.841z"
				/>
			
				<linearGradient id="SVGID_9_" gradientUnits="userSpaceOnUse" x1="141.9648" y1="621.9473" x2="122.6045" y2="661.2493" gradientTransform="matrix(1 0 0 1 -100 -591)">
				<stop  offset="0.097" style="stop-color:#FF2E00"/>
				<stop  offset="0.2117" style="stop-color:#F92C00"/>
				<stop  offset="0.3658" style="stop-color:#E82700"/>
				<stop  offset="0.5423" style="stop-color:#CC1F00"/>
				<stop  offset="0.7354" style="stop-color:#A51300"/>
				<stop  offset="0.9398" style="stop-color:#730500"/>
				<stop  offset="1" style="stop-color:#630000"/>
			</linearGradient>
			<path fill="url(#SVGID_9_)" d="M39.073,36.395c0.25-0.242,0.507-0.479,0.767-0.712C39.579,35.915,39.323,36.152,39.073,36.395z"
				/>
			
				<linearGradient id="SVGID_10_" gradientUnits="userSpaceOnUse" x1="141.4082" y1="621.667" x2="122.0233" y2="661.019" gradientTransform="matrix(1 0 0 1 -100 -591)">
				<stop  offset="0.097" style="stop-color:#FF2E00"/>
				<stop  offset="0.2117" style="stop-color:#F92C00"/>
				<stop  offset="0.3658" style="stop-color:#E82700"/>
				<stop  offset="0.5423" style="stop-color:#CC1F00"/>
				<stop  offset="0.7354" style="stop-color:#A51300"/>
				<stop  offset="0.9398" style="stop-color:#730500"/>
				<stop  offset="1" style="stop-color:#630000"/>
			</linearGradient>
			<path fill="url(#SVGID_10_)" d="M37.308,38.277c0.476-0.56,0.979-1.098,1.497-1.615C38.284,37.18,37.784,37.718,37.308,38.277z"
				/>
			
				<linearGradient id="SVGID_11_" gradientUnits="userSpaceOnUse" x1="143.4316" y1="622.6621" x2="124.0455" y2="662.0166" gradientTransform="matrix(1 0 0 1 -100 -591)">
				<stop  offset="0.097" style="stop-color:#FF2E00"/>
				<stop  offset="0.2117" style="stop-color:#F92C00"/>
				<stop  offset="0.3658" style="stop-color:#E82700"/>
				<stop  offset="0.5423" style="stop-color:#CC1F00"/>
				<stop  offset="0.7354" style="stop-color:#A51300"/>
				<stop  offset="0.9398" style="stop-color:#730500"/>
				<stop  offset="1" style="stop-color:#630000"/>
			</linearGradient>
			<path fill="url(#SVGID_11_)" d="M42.152,33.837c0.208-0.147,0.418-0.291,0.631-0.432C42.571,33.546,42.361,33.689,42.152,33.837z
				"/>
			
				<linearGradient id="SVGID_12_" gradientUnits="userSpaceOnUse" x1="142.627" y1="622.2686" x2="123.2559" y2="661.5922" gradientTransform="matrix(1 0 0 1 -100 -591)">
				<stop  offset="0.097" style="stop-color:#FF2E00"/>
				<stop  offset="0.2117" style="stop-color:#F92C00"/>
				<stop  offset="0.3658" style="stop-color:#E82700"/>
				<stop  offset="0.5423" style="stop-color:#CC1F00"/>
				<stop  offset="0.7354" style="stop-color:#A51300"/>
				<stop  offset="0.9398" style="stop-color:#730500"/>
				<stop  offset="1" style="stop-color:#630000"/>
			</linearGradient>
			<path fill="url(#SVGID_12_)" d="M40.318,35.269c0.364-0.311,0.737-0.61,1.116-0.898C41.053,34.658,40.682,34.958,40.318,35.269z"
				/>
			
				<linearGradient id="SVGID_13_" gradientUnits="userSpaceOnUse" x1="157.2881" y1="607.4482" x2="140.9754" y2="625.4863" gradientTransform="matrix(1 0 0 1 -100 -591)">
				<stop  offset="0.097" style="stop-color:#FFFFFF"/>
				<stop  offset="0.2258" style="stop-color:#F9F9FA"/>
				<stop  offset="0.3987" style="stop-color:#E8E8EA"/>
				<stop  offset="0.5967" style="stop-color:#CDCCD1"/>
				<stop  offset="0.8117" style="stop-color:#A6A5AE"/>
				<stop  offset="1" style="stop-color:#7F7D8A"/>
			</linearGradient>
			<path opacity="0.48" fill="url(#SVGID_13_)" enable-background="new    " d="M39.84,35.683c0.156-0.143,0.317-0.277,0.478-0.414
				C40.157,35.405,39.996,35.54,39.84,35.683z"/>
			
				<linearGradient id="SVGID_14_" gradientUnits="userSpaceOnUse" x1="157.5576" y1="607.6719" x2="141.2365" y2="625.7192" gradientTransform="matrix(1 0 0 1 -100 -591)">
				<stop  offset="0.097" style="stop-color:#FFFFFF"/>
				<stop  offset="0.2258" style="stop-color:#F9F9FA"/>
				<stop  offset="0.3987" style="stop-color:#E8E8EA"/>
				<stop  offset="0.5967" style="stop-color:#CDCCD1"/>
				<stop  offset="0.8117" style="stop-color:#A6A5AE"/>
				<stop  offset="1" style="stop-color:#7F7D8A"/>
			</linearGradient>
			<path opacity="0.48" fill="url(#SVGID_14_)" enable-background="new    " d="M41.434,34.37c0.237-0.182,0.476-0.36,0.719-0.533
				C41.909,34.01,41.671,34.188,41.434,34.37z"/>
			
				<linearGradient id="SVGID_15_" gradientUnits="userSpaceOnUse" x1="157.1191" y1="607.373" x2="140.8355" y2="625.379" gradientTransform="matrix(1 0 0 1 -100 -591)">
				<stop  offset="0.097" style="stop-color:#FFFFFF"/>
				<stop  offset="0.2258" style="stop-color:#F9F9FA"/>
				<stop  offset="0.3987" style="stop-color:#E8E8EA"/>
				<stop  offset="0.5967" style="stop-color:#CDCCD1"/>
				<stop  offset="0.8117" style="stop-color:#A6A5AE"/>
				<stop  offset="1" style="stop-color:#7F7D8A"/>
			</linearGradient>
			<path opacity="0.48" fill="url(#SVGID_15_)" enable-background="new    " d="M37.204,38.395c0.035-0.04,0.07-0.077,0.104-0.117
				C37.274,38.317,37.239,38.354,37.204,38.395z"/>
			
				<linearGradient id="SVGID_16_" gradientUnits="userSpaceOnUse" x1="157.3037" y1="607.2227" x2="140.884" y2="625.3792" gradientTransform="matrix(1 0 0 1 -100 -591)">
				<stop  offset="0.097" style="stop-color:#FFFFFF"/>
				<stop  offset="0.2258" style="stop-color:#F9F9FA"/>
				<stop  offset="0.3987" style="stop-color:#E8E8EA"/>
				<stop  offset="0.5967" style="stop-color:#CDCCD1"/>
				<stop  offset="0.8117" style="stop-color:#A6A5AE"/>
				<stop  offset="1" style="stop-color:#7F7D8A"/>
			</linearGradient>
			<path opacity="0.48" fill="url(#SVGID_16_)" enable-background="new    " d="M38.805,36.662c0.089-0.089,0.178-0.179,0.268-0.268
				C38.983,36.483,38.894,36.573,38.805,36.662z"/>
			
				<linearGradient id="SVGID_17_" gradientUnits="userSpaceOnUse" x1="159.4658" y1="609.3994" x2="143.1467" y2="627.4446" gradientTransform="matrix(1 0 0 1 -100 -591)">
				<stop  offset="0.097" style="stop-color:#FFFFFF"/>
				<stop  offset="0.2258" style="stop-color:#F9F9FA"/>
				<stop  offset="0.3987" style="stop-color:#E8E8EA"/>
				<stop  offset="0.5967" style="stop-color:#CDCCD1"/>
				<stop  offset="0.8117" style="stop-color:#A6A5AE"/>
				<stop  offset="1" style="stop-color:#7F7D8A"/>
			</linearGradient>
			<path opacity="0.48" fill="url(#SVGID_17_)" enable-background="new    " d="M47.549,30.978c0.499-0.181,1.005-0.336,1.512-0.475
				C48.554,30.642,48.048,30.797,47.549,30.978z"/>
			
				<linearGradient id="SVGID_18_" gradientUnits="userSpaceOnUse" x1="210.0723" y1="655.1504" x2="193.7432" y2="673.2066" gradientTransform="matrix(1 0 0 1 -100 -591)">
				<stop  offset="0.097" style="stop-color:#FFFFFF"/>
				<stop  offset="1" style="stop-color:#FFFFFF;stop-opacity:0"/>
			</linearGradient>
			<path opacity="0.48" fill="url(#SVGID_18_)" enable-background="new    " d="M152.611,67.855c0,0-63.473-17.438-71.774-19.917
				c-0.22-0.064-0.41-0.122-0.55-0.167c-2.488-0.78-5.424-0.799-8.633,0.096c-0.01,0.004-0.023,0.009-0.036,0.014
				c2.55,1.996,4.761,3.706,5.773,4.487c8.302,2.479,71.774,19.916,71.774,19.916c-0.329,3.486-6.722,13.109-15.563,24.633
				C144.188,83.479,152.241,71.78,152.611,67.855z"/>
			
				<linearGradient id="SVGID_19_" gradientUnits="userSpaceOnUse" x1="160.292" y1="610.1416" x2="143.971" y2="628.1889" gradientTransform="matrix(1 0 0 1 -100 -591)">
				<stop  offset="0.097" style="stop-color:#FFFFFF"/>
				<stop  offset="0.2258" style="stop-color:#F9F9FA"/>
				<stop  offset="0.3987" style="stop-color:#E8E8EA"/>
				<stop  offset="0.5967" style="stop-color:#CDCCD1"/>
				<stop  offset="0.8117" style="stop-color:#A6A5AE"/>
				<stop  offset="1" style="stop-color:#7F7D8A"/>
			</linearGradient>
			<path opacity="0.48" fill="url(#SVGID_19_)" enable-background="new    " d="M49.467,30.396c0.53-0.134,1.062-0.253,1.599-0.34
				C50.529,30.143,49.997,30.262,49.467,30.396z"/>
			
				<linearGradient id="SVGID_20_" gradientUnits="userSpaceOnUse" x1="157.8818" y1="607.9453" x2="141.5486" y2="626.0061" gradientTransform="matrix(1 0 0 1 -100 -591)">
				<stop  offset="0.097" style="stop-color:#FFFFFF"/>
				<stop  offset="0.2258" style="stop-color:#F9F9FA"/>
				<stop  offset="0.3987" style="stop-color:#E8E8EA"/>
				<stop  offset="0.5967" style="stop-color:#CDCCD1"/>
				<stop  offset="0.8117" style="stop-color:#A6A5AE"/>
				<stop  offset="1" style="stop-color:#7F7D8A"/>
			</linearGradient>
			<path opacity="0.48" fill="url(#SVGID_20_)" enable-background="new    " d="M42.783,33.405c0.326-0.215,0.655-0.422,0.987-0.619
				C43.438,32.983,43.109,33.19,42.783,33.405z"/>
			
				<linearGradient id="SVGID_21_" gradientUnits="userSpaceOnUse" x1="158.8867" y1="608.8574" x2="142.5564" y2="626.915" gradientTransform="matrix(1 0 0 1 -100 -591)">
				<stop  offset="0.097" style="stop-color:#FFFFFF"/>
				<stop  offset="0.2258" style="stop-color:#F9F9FA"/>
				<stop  offset="0.3987" style="stop-color:#E8E8EA"/>
				<stop  offset="0.5967" style="stop-color:#CDCCD1"/>
				<stop  offset="0.8117" style="stop-color:#A6A5AE"/>
				<stop  offset="1" style="stop-color:#7F7D8A"/>
			</linearGradient>
			<path opacity="0.48" fill="url(#SVGID_21_)" enable-background="new    " d="M46.007,31.614c0.465-0.211,0.934-0.411,1.408-0.586
				C46.941,31.203,46.472,31.403,46.007,31.614z"/>
			
				<linearGradient id="SVGID_22_" gradientUnits="userSpaceOnUse" x1="158.3057" y1="608.3594" x2="141.9917" y2="626.3989" gradientTransform="matrix(1 0 0 1 -100 -591)">
				<stop  offset="0.097" style="stop-color:#FFFFFF"/>
				<stop  offset="0.2258" style="stop-color:#F9F9FA"/>
				<stop  offset="0.3987" style="stop-color:#E8E8EA"/>
				<stop  offset="0.5967" style="stop-color:#CDCCD1"/>
				<stop  offset="0.8117" style="stop-color:#A6A5AE"/>
				<stop  offset="1" style="stop-color:#7F7D8A"/>
			</linearGradient>
			<path opacity="0.48" fill="url(#SVGID_22_)" enable-background="new    " d="M44.336,32.459c0.391-0.219,0.787-0.425,1.187-0.618
				C45.123,32.034,44.727,32.24,44.336,32.459z"/>
			
				<linearGradient id="SVGID_23_" gradientUnits="userSpaceOnUse" x1="160.2412" y1="630.9434" x2="140.8534" y2="670.3013" gradientTransform="matrix(1 0 0 1 -100 -591)">
				<stop  offset="0.097" style="stop-color:#FF2E00"/>
				<stop  offset="0.2117" style="stop-color:#F92C00"/>
				<stop  offset="0.3658" style="stop-color:#E82700"/>
				<stop  offset="0.5423" style="stop-color:#CC1F00"/>
				<stop  offset="0.7354" style="stop-color:#A51300"/>
				<stop  offset="0.9398" style="stop-color:#730500"/>
				<stop  offset="1" style="stop-color:#630000"/>
			</linearGradient>
			<path fill="url(#SVGID_23_)" d="M80.287,47.771c0.14,0.045,0.33,0.103,0.55,0.167c-2.896-2.233-15.566-12.042-18.024-14.518
				c-2.781-2.797-6.915-4.141-11.747-3.365c-0.537,0.087-1.069,0.206-1.599,0.34c-0.135,0.034-0.271,0.07-0.405,0.107
				c-0.507,0.139-1.014,0.294-1.512,0.475c-0.046,0.018-0.089,0.033-0.134,0.051c-0.474,0.175-0.943,0.375-1.408,0.586
				c-0.162,0.074-0.323,0.149-0.484,0.227c-0.4,0.193-0.796,0.399-1.187,0.618c-0.19,0.105-0.377,0.216-0.565,0.327
				c-0.332,0.197-0.662,0.404-0.987,0.619c-0.212,0.141-0.422,0.284-0.631,0.432c-0.243,0.173-0.481,0.352-0.719,0.533
				c-0.379,0.288-0.752,0.588-1.116,0.898c-0.161,0.137-0.322,0.271-0.478,0.414c-0.26,0.232-0.518,0.47-0.767,0.712
				c-0.09,0.089-0.179,0.179-0.268,0.268c-0.518,0.518-1.021,1.056-1.497,1.615c-0.034,0.04-0.069,0.077-0.104,0.117
				c-0.831,0.988-1.593,2.034-2.276,3.129c3.512-3.653,7.995-6.282,12.692-7.038c4.832-0.775,8.968,0.566,11.747,3.364
				c1.6,1.61,7.512,6.318,12.251,10.031c0.013-0.005,0.026-0.01,0.036-0.014C74.863,46.973,77.799,46.991,80.287,47.771z"/>
			
				<linearGradient id="SVGID_24_" gradientUnits="userSpaceOnUse" x1="84.9292" y1="22.1123" x2="130.8369" y2="22.1123" gradientTransform="matrix(1 0 0 -1 -50 61)">
				<stop  offset="0.097" style="stop-color:#FFFFFF"/>
				<stop  offset="1" style="stop-color:#FFFFFF;stop-opacity:0"/>
			</linearGradient>
			<path opacity="0.48" fill="url(#SVGID_24_)" enable-background="new    " d="M80.287,47.771c0.14,0.045,0.33,0.103,0.55,0.167
				c-2.896-2.233-15.566-12.042-18.024-14.518c-2.781-2.797-6.915-4.141-11.747-3.365c-0.537,0.087-1.069,0.206-1.599,0.34
				c-0.135,0.034-0.271,0.07-0.405,0.107c-0.507,0.139-1.014,0.294-1.512,0.475c-0.046,0.018-0.089,0.033-0.134,0.051
				c-0.474,0.175-0.943,0.375-1.408,0.586c-0.162,0.074-0.323,0.149-0.484,0.227c-0.4,0.193-0.796,0.399-1.187,0.618
				c-0.19,0.105-0.377,0.216-0.565,0.327c-0.332,0.197-0.662,0.404-0.987,0.619c-0.212,0.141-0.422,0.284-0.631,0.432
				c-0.243,0.173-0.481,0.352-0.719,0.533c-0.379,0.288-0.752,0.588-1.116,0.898c-0.161,0.137-0.322,0.271-0.478,0.414
				c-0.26,0.232-0.518,0.47-0.767,0.712c-0.09,0.089-0.179,0.179-0.268,0.268c-0.518,0.518-1.021,1.056-1.497,1.615
				c-0.034,0.04-0.069,0.077-0.104,0.117c-0.831,0.988-1.593,2.034-2.276,3.129c3.512-3.653,7.995-6.282,12.692-7.038
				c4.832-0.775,8.968,0.566,11.747,3.364c1.6,1.61,7.512,6.318,12.251,10.031c0.013-0.005,0.026-0.01,0.036-0.014
				C74.863,46.973,77.799,46.991,80.287,47.771z"/>
		</g>
		
			<radialGradient id="SVGID_25_" cx="326.1719" cy="535.6191" r="115.2699" gradientTransform="matrix(1.0055 0.0704 -0.0931 0.988 -143.7466 -482.1986)" gradientUnits="userSpaceOnUse">
			<stop  offset="0.097" style="stop-color:#FFFFFF"/>
			<stop  offset="0.2258" style="stop-color:#F9F9FA"/>
			<stop  offset="0.3987" style="stop-color:#E8E8EA"/>
			<stop  offset="0.5967" style="stop-color:#CDCCD1"/>
			<stop  offset="0.8117" style="stop-color:#A6A5AE"/>
			<stop  offset="1" style="stop-color:#7F7D8A"/>
		</radialGradient>
		<path fill="url(#SVGID_25_)" d="M173.262,104.501c-2.572,27.295-25.629,55.274-51.496,62.488
			c-25.865,7.215-44.748-9.063-42.175-36.36c2.573-27.3,25.63-55.276,51.494-62.49C156.95,60.921,175.836,77.202,173.262,104.501z"
			/>
		
			<radialGradient id="SVGID_26_" cx="325.6777" cy="648.8555" r="87.7458" gradientTransform="matrix(1.0055 0.0704 -0.0931 0.988 -143.7466 -482.1986)" gradientUnits="userSpaceOnUse">
			<stop  offset="0.097" style="stop-color:#FFFFFF"/>
			<stop  offset="0.2258" style="stop-color:#F9F9FA"/>
			<stop  offset="0.3987" style="stop-color:#E8E8EA"/>
			<stop  offset="0.5967" style="stop-color:#CDCCD1"/>
			<stop  offset="0.8117" style="stop-color:#A6A5AE"/>
			<stop  offset="1" style="stop-color:#7F7D8A"/>
		</radialGradient>
		<path fill="url(#SVGID_26_)" d="M170.611,105.238c-2.43,25.753-24.178,52.147-48.582,58.955
			c-24.402,6.808-42.217-8.553-39.789-34.305c2.428-25.755,24.178-52.147,48.583-58.957
			C155.227,64.128,173.039,79.485,170.611,105.238z"/>
		
			<radialGradient id="SVGID_27_" cx="-878.3208" cy="-21.1123" r="24.4314" gradientTransform="matrix(-0.59 -0.7914 0.6534 -0.4749 -387.9306 -598.6593)" gradientUnits="userSpaceOnUse">
			<stop  offset="0.097" style="stop-color:#FFFFFF"/>
			<stop  offset="0.2258" style="stop-color:#F9F9FA"/>
			<stop  offset="0.3987" style="stop-color:#E8E8EA"/>
			<stop  offset="0.5967" style="stop-color:#CDCCD1"/>
			<stop  offset="0.8117" style="stop-color:#A6A5AE"/>
			<stop  offset="1" style="stop-color:#7F7D8A"/>
		</radialGradient>
		<path fill="url(#SVGID_27_)" d="M102.965,122.9l22.016-28.614c0,0-13.09-12.391-13.479-12.164
			c-10.646,6.23-19.622,17.049-23.932,28.812l-0.389,1.793L102.965,122.9z"/>
		
			<radialGradient id="SVGID_28_" cx="307.0869" cy="562.4385" r="24.4973" gradientTransform="matrix(1.0055 0.0704 -0.0931 0.988 -143.7466 -482.1986)" gradientUnits="userSpaceOnUse">
			<stop  offset="0.097" style="stop-color:#FFFFFF"/>
			<stop  offset="0.2258" style="stop-color:#F9F9FA"/>
			<stop  offset="0.3987" style="stop-color:#E8E8EA"/>
			<stop  offset="0.5967" style="stop-color:#CDCCD1"/>
			<stop  offset="0.8117" style="stop-color:#A6A5AE"/>
			<stop  offset="1" style="stop-color:#7F7D8A"/>
		</radialGradient>
		<path fill="url(#SVGID_28_)" d="M128.959,104.589c-0.812,8.616-8.09,17.448-16.254,19.726
			c-8.166,2.278-14.127-2.858-13.314-11.479c0.812-8.617,8.089-17.45,16.255-19.727C123.811,90.834,129.771,95.972,128.959,104.589z
			"/>
		
			<radialGradient id="SVGID_29_" cx="240.0371" cy="553.7529" r="12.3295" gradientTransform="matrix(1.0055 0.0704 -0.0931 0.988 -143.7466 -482.1986)" gradientUnits="userSpaceOnUse">
			<stop  offset="0.097" style="stop-color:#FFFFFF"/>
			<stop  offset="0.2258" style="stop-color:#F9F9FA"/>
			<stop  offset="0.3987" style="stop-color:#E8E8EA"/>
			<stop  offset="0.5967" style="stop-color:#CDCCD1"/>
			<stop  offset="0.8117" style="stop-color:#A6A5AE"/>
			<stop  offset="1" style="stop-color:#7F7D8A"/>
		</radialGradient>
		<path fill="url(#SVGID_29_)" d="M45.562,73.314c0,0-1.072,1.239-0.868,3.131c0.204,1.893,0.358,2.278,0.358,2.278l-0.356,0.726
			c0,0-1.892,0.807-3.252,0.055c-1.363-0.753-0.47-3.132-0.053-5.542c0.42-2.412,0.715-3.519,0.715-3.519L45.562,73.314z"/>
	</g>
</g>
<g id="outline_x5F_white">
	<g>
		<g>
			<path fill="#FFFFFF" d="M53.72,29.838c3.688,0,6.836,1.313,9.093,3.583c2.458,2.476,15.127,12.284,18.024,14.518
				c7.343,2.192,57.86,16.091,69.416,19.27c15.339,3.345,24.888,17.38,23.009,37.293c-2.572,27.295-25.629,55.273-51.496,62.488
				c-4.146,1.156-8.113,1.709-11.842,1.709c-12.864,0-22.879-6.583-27.599-17.629c-0.016,0.006-0.033,0.014-0.05,0.017
				c0,0-27.282-64.702-29.767-70.13c-0.35-0.765-0.626-1.59-0.84-2.464c-0.084,0.017-0.175,0.04-0.26,0.055
				c0,0-2.622-2.231-5.896-5.171c-0.208,0.271-0.997,1.422-0.819,3.069c0.204,1.893,0.358,2.278,0.358,2.278l-0.356,0.726
				c0,0-0.31,0.127-0.759,0.234c-0.331,4.935,0.155,11.219,2.714,15.921c2.296,4.218,1.352,7.974-0.493,9.636
				c-1.264,1.138-2.929,2.542-5.073,2.542c-0.984,0-2.069-0.297-3.263-1.049c-3.794-2.396-5.426-14.777-4.782-24.25
				c0.458-6.711,1.776-14.643,2.506-18.698c-1.086-1.192-1.934-2.234-2.379-3.003c-1.503-2.599-2.171-5.9-1.734-9.635
				c1.18-10.095,9.97-19.538,19.633-21.092C51.977,29.91,52.863,29.838,53.72,29.838 M53.72,17.839
				c-1.499,0-3.031,0.124-4.555,0.368c-7.302,1.174-14.36,5.086-19.88,11.016c-5.436,5.839-8.906,13.131-9.771,20.532
				c-0.725,6.2,0.405,12.091,3.266,17.037c0.022,0.039,0.045,0.077,0.068,0.115c-0.692,4.36-1.443,9.822-1.78,14.76
				c-0.394,5.791-0.073,12.229,0.879,17.665c1.554,8.876,4.563,14.452,9.471,17.549c3.05,1.926,6.303,2.901,9.667,2.901
				c6.381,0,10.754-3.539,12.707-5.271c6.342,14.972,13.536,32.011,17.426,41.235c0.18,0.426,0.382,0.837,0.604,1.23
				c6.881,14.879,21.028,23.719,38.102,23.719c4.883,0,9.95-0.723,15.066-2.149c30.721-8.565,57.172-40.599,60.218-72.921
				c1.16-12.298-1.212-23.507-6.86-32.413c-5.712-9.005-14.649-15.264-25.197-17.655c-35.592-9.79-58.926-16.258-66.776-18.507
				c-7.475-5.788-13.793-10.86-15.064-12.103C66.755,20.368,60.504,17.839,53.72,17.839L53.72,17.839z"/>
		</g>
	</g>
</g>
<g id="outline_x5F_black">
	<g>
		<path d="M53.72,29.838c3.688,0,6.836,1.313,9.093,3.583c2.458,2.476,15.127,12.284,18.024,14.518
			c7.343,2.192,57.86,16.091,69.416,19.27c15.339,3.345,24.888,17.38,23.009,37.293c-2.572,27.295-25.629,55.273-51.496,62.488
			c-4.146,1.156-8.113,1.709-11.842,1.709c-12.864,0-22.879-6.583-27.599-17.629c-0.016,0.006-0.033,0.014-0.05,0.017
			c0,0-27.282-64.702-29.767-70.13c-0.35-0.765-0.626-1.59-0.84-2.464c-0.084,0.017-0.175,0.04-0.26,0.055
			c0,0-2.622-2.231-5.896-5.171c-0.208,0.271-0.997,1.422-0.819,3.069c0.204,1.893,0.358,2.278,0.358,2.278l-0.356,0.726
			c0,0-0.31,0.127-0.759,0.234c-0.331,4.935,0.155,11.219,2.714,15.921c2.296,4.218,1.352,7.974-0.493,9.636
			c-1.264,1.138-2.929,2.542-5.073,2.542c-0.984,0-2.069-0.297-3.263-1.049c-3.794-2.396-5.426-14.777-4.782-24.25
			c0.458-6.711,1.776-14.643,2.506-18.698c-1.086-1.192-1.934-2.234-2.379-3.003c-1.503-2.599-2.171-5.9-1.734-9.635
			c1.18-10.095,9.97-19.538,19.633-21.092C51.977,29.91,52.863,29.838,53.72,29.838 M53.72,23.838c-1.181,0-2.394,0.099-3.604,0.293
			c-12.326,1.982-23.149,13.542-24.642,26.32c-0.573,4.906,0.291,9.517,2.5,13.336c0.309,0.533,0.697,1.103,1.181,1.732
			c-0.756,4.486-1.715,10.906-2.101,16.556c-0.066,0.979-1.521,23.997,7.566,29.731c2.076,1.312,4.251,1.976,6.465,1.976
			c4.553,0,7.616-2.759,9.088-4.083c2.367-2.133,4.071-5.809,3.8-10.125c8.771,20.636,22.58,53.382,22.774,53.843
			c0.117,0.278,0.254,0.544,0.407,0.796c5.836,12.846,18.022,20.485,32.77,20.485c4.338,0,8.863-0.648,13.454-1.931
			c13.683-3.814,27.001-12.936,37.501-25.679c10.48-12.719,17-27.644,18.355-42.026c1.033-10.96-1.024-20.863-5.955-28.637
			c-4.948-7.803-12.409-13.003-21.584-15.045c-37.473-10.308-61.419-16.95-68.086-18.883C76.559,37.05,68.626,30.76,67.07,29.192
			C63.636,25.739,58.896,23.838,53.72,23.838L53.72,23.838z"/>
	</g>
</g>
</svg>
