<?xml version="1.0" encoding="utf-8"?>
<!-- Generator: Adobe Illustrator 15.0.0, SVG Export Plug-In . SVG Version: 6.00 Build 0)  -->
<!DOCTYPE svg PUBLIC "-//W3C//DTD SVG 1.1//EN" "http://www.w3.org/Graphics/SVG/1.1/DTD/svg11.dtd">
<svg version="1.1" xmlns="http://www.w3.org/2000/svg" xmlns:xlink="http://www.w3.org/1999/xlink" x="0px" y="0px" width="200px"
	 height="200px" viewBox="0 0 200 200" enable-background="new 0 0 200 200" xml:space="preserve">
<g id="icon">
	<g id="Layer_2">
	</g>
	<g>
		
			<radialGradient id="SVGID_1_" cx="148.1055" cy="-110.3838" r="22.7011" gradientTransform="matrix(1 0 0 -1 -50 61)" gradientUnits="userSpaceOnUse">
			<stop  offset="0.4601" style="stop-color:#494C4C"/>
			<stop  offset="0.5683" style="stop-color:#434646"/>
			<stop  offset="0.7138" style="stop-color:#333535"/>
			<stop  offset="0.8797" style="stop-color:#181919"/>
			<stop  offset="1" style="stop-color:#000000"/>
		</radialGradient>
		<ellipse fill="url(#SVGID_1_)" cx="97.735" cy="159.141" rx="40.648" ry="22.754"/>
		
			<radialGradient id="SVGID_2_" cx="148.4766" cy="-79.4106" r="41.3093" gradientTransform="matrix(1 0 0 -1.1346 -50 85.3658)" gradientUnits="userSpaceOnUse">
			<stop  offset="0" style="stop-color:#686565"/>
			<stop  offset="1" style="stop-color:#000000"/>
		</radialGradient>
		<ellipse fill="url(#SVGID_2_)" cx="97.735" cy="154.689" rx="40.648" ry="22.754"/>
		
			<radialGradient id="SVGID_3_" cx="148.4766" cy="-80.3486" r="41.2724" gradientTransform="matrix(1 0 0 -1.1346 -50 85.2388)" gradientUnits="userSpaceOnUse">
			<stop  offset="0" style="stop-color:#929090"/>
			<stop  offset="1" style="stop-color:#262525"/>
		</radialGradient>
		<path fill="url(#SVGID_3_)" d="M97.735,175.121c-21.754,0-39.517-9.566-40.596-21.592c-0.034,0.385-0.053,0.77-0.053,1.16
			c0,12.565,18.199,22.754,40.648,22.754c22.45,0,40.648-10.188,40.648-22.754c0-0.392-0.019-0.775-0.053-1.16
			C137.25,165.555,119.488,175.121,97.735,175.121z"/>
		
			<linearGradient id="SVGID_4_" gradientUnits="userSpaceOnUse" x1="142.6914" y1="-89.251" x2="153.7528" y2="-89.251" gradientTransform="matrix(1 0 0 -1 -50 61)">
			<stop  offset="0" style="stop-color:#AC8335"/>
			<stop  offset="0.1679" style="stop-color:#CFB551"/>
			<stop  offset="0.3653" style="stop-color:#EDCE81"/>
			<stop  offset="0.6724" style="stop-color:#EDCE86"/>
			<stop  offset="0.8641" style="stop-color:#D4B658"/>
			<stop  offset="1" style="stop-color:#AE8328"/>
		</linearGradient>
		<path fill="url(#SVGID_4_)" d="M106.779,152.379c0,2.797-4.049,5.064-9.044,5.064c-4.995,0-9.044-2.269-9.044-5.064
			c0-1.049,0-9.32,0-9.32h18.088C106.779,143.059,106.779,151.615,106.779,152.379z"/>
		<linearGradient id="SVGID_5_" gradientUnits="userSpaceOnUse" x1="97.8013" y1="148.4004" x2="97.6636" y2="137.3899">
			<stop  offset="0" style="stop-color:#F7D183"/>
			<stop  offset="0.135" style="stop-color:#EBCA62"/>
			<stop  offset="0.3256" style="stop-color:#DCB86F"/>
			<stop  offset="0.5493" style="stop-color:#BD9A3F"/>
			<stop  offset="0.7791" style="stop-color:#B67335"/>
			<stop  offset="1" style="stop-color:#795019"/>
		</linearGradient>
		<ellipse fill="url(#SVGID_5_)" cx="97.735" cy="143.059" rx="9.044" ry="5.062"/>
		
			<linearGradient id="SVGID_6_" gradientUnits="userSpaceOnUse" x1="144.0254" y1="-72.6045" x2="151.2587" y2="-72.6045" gradientTransform="matrix(1 0 0 -1 -50 61)">
			<stop  offset="0" style="stop-color:#AC8335"/>
			<stop  offset="0.1679" style="stop-color:#CFB551"/>
			<stop  offset="0.3653" style="stop-color:#EDCE81"/>
			<stop  offset="0.6724" style="stop-color:#EDCE86"/>
			<stop  offset="0.8641" style="stop-color:#D4B658"/>
			<stop  offset="1" style="stop-color:#AE8328"/>
		</linearGradient>
		<path fill="url(#SVGID_6_)" d="M104.693,142.543c0,2.15-3.115,3.895-6.958,3.895c-3.843,0-6.96-1.744-6.96-3.895
			c0-0.809,0-21.771,0-21.771h13.918C104.693,120.771,104.693,141.955,104.693,142.543z"/>
		
			<linearGradient id="SVGID_7_" gradientUnits="userSpaceOnUse" x1="99.6729" y1="-9.9956" x2="205.6954" y2="-9.9956" gradientTransform="matrix(1 0 0 -1 -50 61)">
			<stop  offset="0" style="stop-color:#3C3E45"/>
			<stop  offset="0.2498" style="stop-color:#43454B"/>
			<stop  offset="0.604" style="stop-color:#55575D"/>
			<stop  offset="1" style="stop-color:#727378"/>
		</linearGradient>
		<path fill="url(#SVGID_7_)" d="M149.041,90.266l-3.529-6.416l-7.014,6.499l-1.596-2.93l7.117-6.277l-1.797-3.269L135.27,84.5
			l-1.594-2.931l7.055-6.406l-1.664-3.024l-7.028,6.512l-1.597-2.93l7.136-6.291l-1.8-3.27l-6.969,6.645l-1.594-2.933l7.07-6.422
			l-1.875-3.41l-6.996,6.585l-1.594-2.932l7.098-6.361l-1.648-2.999l-6.969,6.417l-1.596-2.932l7.068-6.199l-1.627-2.96
			l-6.924,6.415l-1.595-2.929l7.024-6.198l-1.795-3.263l-6.862,6.54l-1.599-2.93l6.965-6.325l-1.873-3.405l-6.889,6.482
			l-1.598-2.929l6.992-6.267l-1.648-2.995l-6.861,6.317l-1.596-2.932l6.961-6.106l-3.627-6.593c-1.373-2.468-5.35-0.302-6.531,0.573
			L92.892,28.77l-2.117-4.008c-1.265-2.54-6.379-0.446-7.708,0.137L48.304,43.337c-1.333,0.581-1.383,3.115-0.118,5.653l3.399,6.747
			l8.615-2.924l1.521,2.982l-8.734,2.722l1.543,3.065l8.763-2.865l1.519,2.982l-8.883,2.657l1.757,3.485l8.794-2.808l1.519,2.979
			l-8.914,2.604l1.685,3.339l8.723-2.931l1.519,2.981l-8.845,2.722l1.526,3.029l8.749-2.968l1.521,2.982l-8.871,2.762l1.547,3.07
			l8.895-2.908l1.521,2.98l-9.021,2.697l1.76,3.487l8.928-2.851l1.521,2.984l-9.052,2.641l1.686,3.344l8.856-2.975l1.52,2.982
			l-8.979,2.764l1.56,3.096l8.908-2.848l1.521,2.983l-9.032,2.636l1.686,3.344l8.837-2.969l1.521,2.981l-8.961,2.758l3.309,6.564
			c1.178,2.436,3.747,2.504,5.258,2.135l37.336-9.297c0.773-0.191,2.746-1.654,4.336-3.367l0.23,0.435
			c1.336,2.334,3.578,0.35,4.684-0.8l12.492-12.338C149.062,94.921,150.379,92.603,149.041,90.266z"/>
		
			<linearGradient id="SVGID_8_" gradientUnits="userSpaceOnUse" x1="130.3438" y1="-63.6675" x2="127.7635" y2="-68.951" gradientTransform="matrix(1 0 0 -1 -50 61)">
			<stop  offset="0" style="stop-color:#F7D183"/>
			<stop  offset="0.135" style="stop-color:#EBCA62"/>
			<stop  offset="0.3256" style="stop-color:#DCB86F"/>
			<stop  offset="0.5493" style="stop-color:#BD9A3F"/>
			<stop  offset="0.7791" style="stop-color:#B67335"/>
			<stop  offset="1" style="stop-color:#795019"/>
		</linearGradient>
		<path fill="url(#SVGID_8_)" d="M71.871,128.264c-0.738-0.336-5.582-2.576-6.135-3.062c-1.822-1.611-2.657-4.011-2.657-6.951
			V75.003h6.354l-0.092,43.247c0,1.531-0.029,2.244,0.907,2.953c1.028,0.779,0.69,1.418,2.392,0.939l50.6-13.275
			c-2.205,4.688,8.719,1.668,3.707,3.076L75.82,125.631C74.539,125.99,71.871,128.264,71.871,128.264z"/>
		
			<linearGradient id="SVGID_9_" gradientUnits="userSpaceOnUse" x1="122.8936" y1="-22.2354" x2="177.1781" y2="1.1834" gradientTransform="matrix(1 0 0 -1 -50 61)">
			<stop  offset="0.135" style="stop-color:#1D1F27"/>
			<stop  offset="0.1802" style="stop-color:#24252D"/>
			<stop  offset="0.2442" style="stop-color:#36383F"/>
			<stop  offset="0.2883" style="stop-color:#47484F"/>
			<stop  offset="0.7301" style="stop-color:#595A60"/>
			<stop  offset="0.8589" style="stop-color:#292B33"/>
		</linearGradient>
		<path fill="url(#SVGID_9_)" d="M138.498,90.349l-30.607-56.106l-4.399-8.601L55.117,38.998l5.084,13.816l29.07,57.165
			c0,0,4.603,9.299,6.113,8.931l30.829-6.771C126.986,111.947,138.498,90.349,138.498,90.349z"/>
		
			<linearGradient id="SVGID_10_" gradientUnits="userSpaceOnUse" x1="153.2783" y1="-36.1758" x2="183.8264" y2="-58.8185" gradientTransform="matrix(1 0 0 -1 -50 61)">
			<stop  offset="0.0429" style="stop-color:#6D5021"/>
			<stop  offset="0.135" style="stop-color:#9D7335"/>
			<stop  offset="0.1656" style="stop-color:#B18547"/>
			<stop  offset="0.3374" style="stop-color:#907342"/>
			<stop  offset="0.5816" style="stop-color:#A77538"/>
			<stop  offset="0.6696" style="stop-color:#A47B38"/>
			<stop  offset="0.7825" style="stop-color:#C79762"/>
			<stop  offset="0.8344" style="stop-color:#C79553"/>
			<stop  offset="0.8896" style="stop-color:#887335"/>
		</linearGradient>
		<path fill="url(#SVGID_10_)" d="M149.15,94.068c0,0-11.217,13.786-12.082,14.727c-0.83,0.896-2.15,1.793-3.808,2.195
			l-41.653,10.641c-3.314,0.807-7.139-0.443-8.542-2.785c0,0,7.277-7.695,7.708-8.615c0.544-1.157,9.766-9.283,9.766-9.283
			c3.295-0.546,10.702-2.465,12.096,0L149.15,94.068z"/>
		<g>
			
				<linearGradient id="SVGID_11_" gradientUnits="userSpaceOnUse" x1="102.8076" y1="-10.9258" x2="118.2858" y2="-1.3156" gradientTransform="matrix(1 0 0 -1 -50 61)">
				<stop  offset="0" style="stop-color:#F7D183"/>
				<stop  offset="0.135" style="stop-color:#EBCA62"/>
				<stop  offset="0.3256" style="stop-color:#DCB86F"/>
				<stop  offset="0.5493" style="stop-color:#BD9A3F"/>
				<stop  offset="0.7791" style="stop-color:#B67335"/>
				<stop  offset="1" style="stop-color:#795019"/>
			</linearGradient>
			<path fill="url(#SVGID_11_)" d="M61.207,72.82c1.848-2.823,6.449-9.854,8.932-13.648c0.81-1.234,1.947-2.232,3.066-2.712
				l-1.733-3.109c-1.095,0.438-2.195,1.38-2.96,2.558c-2.396,3.689-7.021,10.812-8.975,13.82c-0.198,0.306-0.326,0.651-0.411,0.974
				l1.663,3.342C60.843,73.668,60.958,73.2,61.207,72.82z"/>
			
				<linearGradient id="SVGID_12_" gradientUnits="userSpaceOnUse" x1="99.814" y1="-4.6387" x2="115.0176" y2="4.8012" gradientTransform="matrix(1 0 0 -1 -50 61)">
				<stop  offset="0" style="stop-color:#F7D183"/>
				<stop  offset="0.135" style="stop-color:#EBCA62"/>
				<stop  offset="0.3256" style="stop-color:#DCB86F"/>
				<stop  offset="0.5493" style="stop-color:#BD9A3F"/>
				<stop  offset="0.7791" style="stop-color:#B67335"/>
				<stop  offset="1" style="stop-color:#795019"/>
			</linearGradient>
			<path fill="url(#SVGID_12_)" d="M57.914,66.856c1.849-2.823,6.448-9.854,8.932-13.648c0.803-1.226,1.929-2.217,3.039-2.702
				l-1.709-3.066c-0.909,0.5-1.784,1.316-2.422,2.301c-2.396,3.69-7.021,10.812-8.976,13.82c-0.294,0.453-0.435,0.989-0.505,1.403
				l1.319,2.654C57.662,67.358,57.761,67.089,57.914,66.856z"/>
			
				<linearGradient id="SVGID_13_" gradientUnits="userSpaceOnUse" x1="96.9868" y1="1.2178" x2="111.9615" y2="10.5153" gradientTransform="matrix(1 0 0 -1 -50 61)">
				<stop  offset="0" style="stop-color:#F7D183"/>
				<stop  offset="0.135" style="stop-color:#EBCA62"/>
				<stop  offset="0.3256" style="stop-color:#DCB86F"/>
				<stop  offset="0.5493" style="stop-color:#BD9A3F"/>
				<stop  offset="0.7791" style="stop-color:#B67335"/>
				<stop  offset="1" style="stop-color:#795019"/>
			</linearGradient>
			<path fill="url(#SVGID_13_)" d="M53.532,57.855c-0.173,0.267-0.288,0.562-0.373,0.846l1.583,3.184
				c0.057-0.371,0.172-0.825,0.414-1.198c1.848-2.821,6.448-9.852,8.931-13.646c0.676-1.032,1.579-1.894,2.509-2.433l-1.617-2.901
				c-0.927,0.497-1.821,1.328-2.471,2.328C60.11,47.725,55.485,54.848,53.532,57.855z"/>
			
				<linearGradient id="SVGID_14_" gradientUnits="userSpaceOnUse" x1="105.6973" y1="-16.875" x2="121.3936" y2="-7.1293" gradientTransform="matrix(1 0 0 -1 -50 61)">
				<stop  offset="0" style="stop-color:#F7D183"/>
				<stop  offset="0.135" style="stop-color:#EBCA62"/>
				<stop  offset="0.3256" style="stop-color:#DCB86F"/>
				<stop  offset="0.5493" style="stop-color:#BD9A3F"/>
				<stop  offset="0.7791" style="stop-color:#B67335"/>
				<stop  offset="1" style="stop-color:#795019"/>
			</linearGradient>
			<path fill="url(#SVGID_14_)" d="M64.037,78.617c1.847-2.823,6.447-9.854,8.93-13.647c0.891-1.358,2.176-2.435,3.396-2.845
				l-1.572-2.82c-1.104,0.433-2.215,1.381-2.986,2.568c-2.396,3.691-7.021,10.812-8.975,13.818c-0.301,0.464-0.441,1.016-0.51,1.434
				l1.311,2.637C63.691,79.4,63.804,78.971,64.037,78.617z"/>
			
				<linearGradient id="SVGID_15_" gradientUnits="userSpaceOnUse" x1="120.1953" y1="-47.1748" x2="137.1616" y2="-36.6407" gradientTransform="matrix(1 0 0 -1 -50 61)">
				<stop  offset="0" style="stop-color:#F7D183"/>
				<stop  offset="0.135" style="stop-color:#EBCA62"/>
				<stop  offset="0.3256" style="stop-color:#DCB86F"/>
				<stop  offset="0.5493" style="stop-color:#BD9A3F"/>
				<stop  offset="0.7791" style="stop-color:#B67335"/>
				<stop  offset="1" style="stop-color:#795019"/>
			</linearGradient>
			<path fill="url(#SVGID_15_)" d="M88.197,94.731c0.998-1.522,2.491-2.696,3.835-2.969c0.24-0.047,0.501-0.102,0.771-0.156
				l-1.809-3.243c-0.221,0.047-0.434,0.093-0.631,0.136c-1.285,0.276-2.67,1.354-3.579,2.754c-2.396,3.689-7.021,10.812-8.975,13.82
				c-0.546,0.84-0.571,1.971-0.572,2.049l1.564,3.146c0,0-0.034-1.125,0.466-1.89C81.114,105.555,85.714,98.524,88.197,94.731z"/>
			
				<linearGradient id="SVGID_16_" gradientUnits="userSpaceOnUse" x1="91.3486" y1="11.48" x2="106.4121" y2="20.8326" gradientTransform="matrix(1 0 0 -1 -50 61)">
				<stop  offset="0" style="stop-color:#F7D183"/>
				<stop  offset="0.135" style="stop-color:#EBCA62"/>
				<stop  offset="0.3256" style="stop-color:#DCB86F"/>
				<stop  offset="0.5493" style="stop-color:#BD9A3F"/>
				<stop  offset="0.7791" style="stop-color:#B67335"/>
				<stop  offset="1" style="stop-color:#795019"/>
			</linearGradient>
			<path fill="url(#SVGID_16_)" d="M51.91,54.982c1.848-2.821,6.447-9.853,8.931-13.647c0.688-1.048,1.611-1.923,2.56-2.46
				l-6.43-11.529c0,0-8.748,12.511-9.322,13.652c-1.368,2.727-0.733,5.298-0.116,6.39l4.09,8.226
				C51.69,55.396,51.782,55.177,51.91,54.982z"/>
			
				<linearGradient id="SVGID_17_" gradientUnits="userSpaceOnUse" x1="108.4814" y1="-22.6484" x2="124.404" y2="-12.7623" gradientTransform="matrix(1 0 0 -1 -50 61)">
				<stop  offset="0" style="stop-color:#F7D183"/>
				<stop  offset="0.135" style="stop-color:#EBCA62"/>
				<stop  offset="0.3256" style="stop-color:#DCB86F"/>
				<stop  offset="0.5493" style="stop-color:#BD9A3F"/>
				<stop  offset="0.7791" style="stop-color:#B67335"/>
				<stop  offset="1" style="stop-color:#795019"/>
			</linearGradient>
			<path fill="url(#SVGID_17_)" d="M66.819,84.552c1.847-2.823,6.448-9.854,8.931-13.646c0.996-1.522,2.49-2.693,3.836-2.967
				c0.004-0.002,0.012-0.003,0.018-0.003l-1.643-2.947c-1.212,0.354-2.478,1.372-3.328,2.682c-2.396,3.69-7.021,10.812-8.974,13.82
				c-0.281,0.432-0.423,0.943-0.497,1.35l1.299,2.611C66.529,85.15,66.638,84.83,66.819,84.552z"/>
			
				<linearGradient id="SVGID_18_" gradientUnits="userSpaceOnUse" x1="124.2393" y1="-55.8066" x2="141.6481" y2="-44.9977" gradientTransform="matrix(1 0 0 -1 -49.8989 61.0615)">
				<stop  offset="0" style="stop-color:#F7D183"/>
				<stop  offset="0.135" style="stop-color:#EBCA62"/>
				<stop  offset="0.3256" style="stop-color:#DCB86F"/>
				<stop  offset="0.5493" style="stop-color:#BD9A3F"/>
				<stop  offset="0.7791" style="stop-color:#B67335"/>
				<stop  offset="1" style="stop-color:#795019"/>
			</linearGradient>
			<path fill="url(#SVGID_18_)" d="M93.288,109.143c2.158-3.287,8.412-2.742,7.253-2.549l-6.143-12.123
				c-0.34,0.074-0.662,0.143-0.955,0.205c-1.285,0.276-2.67,1.353-3.579,2.753c-2.396,3.692-7.022,10.815-8.975,13.821
				c-0.564,0.869-0.572,2.064-0.572,2.064l-0.889-1.785l3.639,7.315c0.261,0.435,1.173,1.312,2.083,1.927
				C85.15,120.771,89.531,114.865,93.288,109.143z"/>
			
				<linearGradient id="SVGID_19_" gradientUnits="userSpaceOnUse" x1="117.3164" y1="-41.123" x2="134.0173" y2="-30.7537" gradientTransform="matrix(1 0 0 -1 -50 61)">
				<stop  offset="0" style="stop-color:#F7D183"/>
				<stop  offset="0.135" style="stop-color:#EBCA62"/>
				<stop  offset="0.3256" style="stop-color:#DCB86F"/>
				<stop  offset="0.5493" style="stop-color:#BD9A3F"/>
				<stop  offset="0.7791" style="stop-color:#B67335"/>
				<stop  offset="1" style="stop-color:#795019"/>
			</linearGradient>
			<path fill="url(#SVGID_19_)" d="M76.187,102.199c1.847-2.823,6.447-9.853,8.93-13.648c0.997-1.521,2.492-2.693,3.836-2.967
				c0.142-0.028,0.29-0.059,0.441-0.09l-1.576-2.829c-0.129,0.029-0.258,0.057-0.377,0.082c-1.285,0.275-2.67,1.354-3.58,2.753
				c-2.396,3.692-7.021,10.813-8.974,13.821c-0.458,0.705-0.548,1.613-0.567,1.934l1.4,2.815
				C75.718,103.986,75.708,102.932,76.187,102.199z"/>
			
				<linearGradient id="SVGID_20_" gradientUnits="userSpaceOnUse" x1="112.5527" y1="-32.2896" x2="129.268" y2="-21.9113" gradientTransform="matrix(1 0 0 -1 -50 61)">
				<stop  offset="0" style="stop-color:#F7D183"/>
				<stop  offset="0.135" style="stop-color:#EBCA62"/>
				<stop  offset="0.3256" style="stop-color:#DCB86F"/>
				<stop  offset="0.5493" style="stop-color:#BD9A3F"/>
				<stop  offset="0.7791" style="stop-color:#B67335"/>
				<stop  offset="1" style="stop-color:#795019"/>
			</linearGradient>
			<path fill="url(#SVGID_20_)" d="M73.265,96.449c1.848-2.823,6.447-9.854,8.931-13.646c0.997-1.523,2.491-2.695,3.835-2.969
				c0.06-0.012,0.125-0.025,0.186-0.037l-1.654-2.969c-1.244,0.322-2.561,1.363-3.437,2.712c-2.396,3.69-7.021,10.812-8.974,13.82
				c-0.565,0.869-0.573,2.062-0.573,2.062l-1.517-3.046c0,0-0.033-1.126,0.467-1.888c1.847-2.825,6.448-9.855,8.932-13.649
				c0.915-1.399,2.251-2.492,3.504-2.875l-1.76-3.157c-0.07,0.016-0.145,0.029-0.211,0.044c-1.284,0.275-2.668,1.354-3.578,2.754
				c-2.396,3.69-7.021,10.812-8.975,13.82c-0.229,0.352-0.363,0.754-0.445,1.111l4.805,9.662
				C72.808,97.883,72.868,97.056,73.265,96.449z"/>
		</g>
		
			<linearGradient id="SVGID_21_" gradientUnits="userSpaceOnUse" x1="130.5361" y1="-46.8618" x2="136.5816" y2="-50.418" gradientTransform="matrix(1 0 0 -1 -50 61)">
			<stop  offset="0" style="stop-color:#AC8335"/>
			<stop  offset="0.1679" style="stop-color:#CFB551"/>
			<stop  offset="0.3653" style="stop-color:#EDCE81"/>
			<stop  offset="0.6724" style="stop-color:#EDCE86"/>
			<stop  offset="0.8641" style="stop-color:#D4B658"/>
			<stop  offset="1" style="stop-color:#AE8328"/>
		</linearGradient>
		<path fill="url(#SVGID_21_)" d="M73.205,129.035c-3.173-1.445-4.59-4.357-4.59-8.188V77.6h3.896v43.248
			c0,1.531,0.495,2.715,1.432,3.426c1.028,0.779,2.532,0.943,4.234,0.466l50.599-13.273c-2.203,4.688-2.949,4.291-7.959,5.699
			l-39.461,11.063C80.076,128.588,76.582,130.572,73.205,129.035z"/>
		
			<radialGradient id="SVGID_22_" cx="1598.6016" cy="-12.2432" r="4.5217" gradientTransform="matrix(0.6819 0 0 -1 -1020.0519 61)" gradientUnits="userSpaceOnUse">
			<stop  offset="0" style="stop-color:#F7D183"/>
			<stop  offset="0.135" style="stop-color:#EBCA62"/>
			<stop  offset="0.3256" style="stop-color:#DCB86F"/>
			<stop  offset="0.5493" style="stop-color:#BD9A3F"/>
			<stop  offset="0.7791" style="stop-color:#B67335"/>
			<stop  offset="1" style="stop-color:#795019"/>
		</radialGradient>
		<ellipse fill="url(#SVGID_22_)" cx="67.995" cy="78.343" rx="5.705" ry="8.366"/>
		
			<radialGradient id="SVGID_23_" cx="1592.9287" cy="-17.3428" r="10.3887" gradientTransform="matrix(0.6819 0 0 -1 -1020.0519 61)" gradientUnits="userSpaceOnUse">
			<stop  offset="0" style="stop-color:#F7D183"/>
			<stop  offset="0.135" style="stop-color:#EBCA62"/>
			<stop  offset="0.3256" style="stop-color:#DCB86F"/>
			<stop  offset="0.5493" style="stop-color:#BD9A3F"/>
			<stop  offset="0.7791" style="stop-color:#B67335"/>
			<stop  offset="1" style="stop-color:#795019"/>
		</radialGradient>
		<ellipse fill="url(#SVGID_23_)" cx="66.166" cy="78.343" rx="5.705" ry="8.366"/>
		
			<radialGradient id="SVGID_24_" cx="1592.3926" cy="-17.3428" r="4.126" gradientTransform="matrix(0.6819 0 0 -1 -1020.0519 61)" gradientUnits="userSpaceOnUse">
			<stop  offset="0" style="stop-color:#F7D183"/>
			<stop  offset="0.135" style="stop-color:#EBCA62"/>
			<stop  offset="0.3256" style="stop-color:#DCB86F"/>
			<stop  offset="0.5493" style="stop-color:#BD9A3F"/>
			<stop  offset="0.7791" style="stop-color:#B67335"/>
			<stop  offset="1" style="stop-color:#795019"/>
		</radialGradient>
		<ellipse fill="url(#SVGID_24_)" cx="65.801" cy="78.343" rx="2.813" ry="4.127"/>
		
			<linearGradient id="SVGID_25_" gradientUnits="userSpaceOnUse" x1="131.2754" y1="-10.668" x2="179.3224" y2="13.7272" gradientTransform="matrix(1 0 0 -1 -50 61)">
			<stop  offset="0" style="stop-color:#B67728"/>
			<stop  offset="0.0613" style="stop-color:#DCC362"/>
			<stop  offset="0.1411" style="stop-color:#FFFFFF"/>
			<stop  offset="0.5153" style="stop-color:#FAD177"/>
			<stop  offset="0.8001" style="stop-color:#E4BB2D"/>
			<stop  offset="0.9161" style="stop-color:#CFA744"/>
			<stop  offset="0.9941" style="stop-color:#8D601E"/>
		</linearGradient>
		<path fill="url(#SVGID_25_)" d="M149.352,90.298l-3.531-6.407l-20.483,4.406l-1.575-2.924l20.569-4.188l-1.799-3.264
			l-20.438,4.531l-1.574-2.923l20.521-4.314l-1.664-3.021l-20.53,4.414l-1.576-2.924l20.614-4.195l-1.799-3.264l-20.481,4.541
			l-1.574-2.925l20.563-4.324l-1.875-3.404l-20.506,4.483l-1.573-2.923l20.588-4.265l-1.65-2.994l-20.326,4.339l-1.574-2.924
			l20.406-4.127l-1.631-2.956l-20.221,4.349l-1.574-2.924l20.305-4.133l-1.797-3.259l-20.174,4.472l-1.574-2.922l20.254-4.259
			l-1.875-3.403l-20.196,4.417l-1.574-2.923l20.278-4.201l-1.65-2.993L96.636,35.24l-1.574-2.923l20.095-4.064l-3.63-6.586
			c-1.393-2.467-5.194-4.029-8.489-3.482l-42.509,7.012c-3.294,0.544-4.835,2.984-3.441,5.453l4.823,9.378
			c0.855-0.856,1.844-1.475,2.768-1.662c5.438-1.106,19.154-3.896,19.154-3.896l1.479,2.685c0,0-13.863,2.976-19.223,4.125
			c-0.916,0.198-1.879,0.806-2.688,1.644l1.552,3.017c0.898-0.968,1.976-1.666,2.973-1.869c5.438-1.105,19.153-3.896,19.153-3.896
			l1.479,2.684c0,0-13.862,2.976-19.223,4.125c-0.992,0.214-2.043,0.908-2.889,1.858l1.538,2.99c0.839-0.821,1.802-1.41,2.7-1.594
			c5.438-1.105,19.152-3.895,19.152-3.895l1.479,2.683c0,0-13.861,2.977-19.223,4.127c-0.889,0.189-1.824,0.772-2.619,1.574
			l1.655,3.218c0.872-0.899,1.896-1.549,2.849-1.743c5.438-1.105,19.152-3.895,19.152-3.895l1.479,2.684
			c0,0-13.863,2.977-19.223,4.126c-0.945,0.203-1.943,0.843-2.768,1.723l1.441,2.802c0.85-0.847,1.831-1.456,2.746-1.642
			c5.438-1.105,19.152-3.896,19.152-3.896l1.479,2.683c0,0-13.862,2.978-19.223,4.127c-0.907,0.195-1.862,0.795-2.667,1.621
			l1.473,2.861c0.807-0.753,1.717-1.288,2.568-1.46c5.438-1.106,19.152-3.896,19.152-3.896l1.479,2.685
			c0,0-13.862,2.976-19.223,4.125c-0.84,0.181-1.722,0.709-2.486,1.442l1.787,3.476c0.902-0.982,1.994-1.692,3-1.896
			c5.438-1.105,19.153-3.895,19.153-3.895l1.479,2.683c0,0-13.864,2.976-19.223,4.126c-1.004,0.215-2.064,0.922-2.915,1.887
			l1.459,2.838c0.858-0.866,1.854-1.489,2.782-1.678c5.438-1.105,19.154-3.896,19.154-3.896l1.479,2.684
			c0,0-13.863,2.977-19.223,4.126c-0.922,0.197-1.892,0.812-2.703,1.658l1.457,2.832c0.853-0.852,1.838-1.466,2.758-1.653
			c5.438-1.105,19.153-3.896,19.153-3.896l1.479,2.684c0,0-13.862,2.977-19.221,4.126c-0.912,0.195-1.872,0.801-2.68,1.634
			l1.656,3.218c0.838-0.818,1.797-1.405,2.692-1.588c5.439-1.104,19.154-3.896,19.154-3.896l1.479,2.685
			c0,0-13.862,2.976-19.221,4.125c-0.888,0.19-1.82,0.771-2.614,1.568l3.765,7.317c1.402,2.342,5.227,3.59,8.542,2.787
			l42.756-10.357C149.205,95.191,150.756,92.641,149.352,90.298z"/>
	</g>
</g>
<g id="outline_x5F_white">
	<g>
		<path fill="#FFFFFF" d="M104.389,18.078c2.924,0,5.932,1.457,7.137,3.591l3.629,6.586l-0.565,0.114l-4.582,4.02l6.093-1.302
			l0.25-0.23l0.088,0.158l0.215-0.046l1.649,2.993l-0.555,0.113l-4.49,4.022l5.996-1.311l0.238-0.223l0.084,0.152l0.219-0.048
			l1.875,3.403l-0.539,0.114l-4.44,4.029l5.944-1.316l0.228-0.215l0.08,0.146l0.223-0.05l1.797,3.259l-0.535,0.11l-4.549,4.011
			l6.053-1.299l0.219-0.203l0.076,0.138l0.228-0.049l1.631,2.956l-0.524,0.106l-4.574,4.013l6.078-1.297l0.211-0.193l0.072,0.132
			l0.231-0.049l1.649,2.994l-0.51,0.106l-4.482,4.016l5.98-1.309l0.197-0.184l0.07,0.127l0.235-0.053l1.875,3.404l-0.497,0.105
			l-4.435,4.025l5.935-1.314l0.184-0.175l0.066,0.119l0.239-0.053l1.799,3.264l-0.489,0.101l-4.543,4.007l6.045-1.299l0.172-0.16
			l0.061,0.11l0.248-0.054l1.664,3.021l-0.477,0.1l-4.437,4.027l5.937-1.316l0.16-0.153l0.059,0.106l0.25-0.058l1.799,3.264
			l-0.471,0.097l-4.543,4.007l6.043-1.299l0.152-0.141l0.053,0.097l0.256-0.056l3.531,6.407c0.711,1.187,0.662,2.424,0.014,3.462
			c-0.312,0.951-0.883,1.763-1.41,2.307l-2.223,2.195c-3.375,4.138-8.113,9.933-8.664,10.533c-0.83,0.896-2.15,1.793-3.807,2.194
			l-4.857,1.242c-1.934,3.877-2.869,3.607-7.588,4.933l-16.123,4.52c0,1.863,0,6.289,0,10.593
			c19.131,1.848,33.688,11.176,33.688,22.414c0,0.752-0.069,1.493-0.196,2.227c0.127,0.732,0.196,1.475,0.196,2.225
			c0,12.568-18.198,22.754-40.648,22.754c-22.449,0-40.648-10.186-40.648-22.754c0-0.75,0.069-1.492,0.196-2.225
			c-0.127-0.732-0.196-1.475-0.196-2.227c0-11.238,14.558-20.566,33.688-22.414c0-2.338,0-4.709,0-6.688l-9.42,2.642
			c-0.931,0.262-3.033,1.383-5.411,1.383c-0.89,0-1.82-0.157-2.74-0.576c-0.488-0.221-0.92-0.49-1.326-0.779
			c-0.002,0.002-0.008,0.008-0.008,0.008c-0.738-0.336-5.582-2.576-6.135-3.062c-1.822-1.61-2.657-4.01-2.657-6.95V85.374
			c-1.573-1.488-2.618-4.078-2.618-7.03c0-1.698,0.347-3.277,0.939-4.596l-0.595,0.198c-0.005,0.032-0.013,0.067-0.017,0.098
			l-1.662-3.341l-0.042-0.083l0.075-0.021c0.084-0.291,0.199-0.597,0.377-0.871c0.518-0.798,1.227-1.888,2.028-3.124l-3.879,1.239
			l-1.757-3.485l0.544-0.161c0.077-0.218,0.175-0.437,0.305-0.637c0.562-0.865,1.349-2.077,2.235-3.443l-4.188,1.37
			c-0.035,0.137-0.064,0.272-0.083,0.397l-0.158-0.319l-0.053,0.019l-1.543-3.065l0.266-0.083c0.073-0.198,0.16-0.396,0.278-0.58
			c0.579-0.89,1.395-2.146,2.315-3.563l-4.262,1.446l-3.399-6.747c-0.249-0.497-0.445-0.995-0.591-1.479l-0.063-0.125
			c-0.617-1.092-1.252-3.663,0.116-6.39c0.573-1.14,9.292-13.608,9.321-13.65c0.595-1.057,1.833-1.863,3.557-2.148l42.509-7.012
			C103.479,18.113,103.934,18.078,104.389,18.078 M109.49,37.171l1.939-1.786l-2.619,0.542L109.49,37.171 M112.664,42.988
			l1.398-1.316l-1.9,0.4L112.664,42.988 M116.041,49.181l1.768-1.684l-2.418,0.49L116.041,49.181 M57.494,57.114l4.224-1.315
			l-1.471-2.891C59.301,54.353,58.35,55.806,57.494,57.114 M119.244,55.054l2.156-1.998l-2.924,0.591L119.244,55.054 M60.429,63.012
			l4.303-1.288l-1.514-2.974C62.267,60.204,61.304,61.675,60.429,63.012 M122.334,60.718l2.057-1.893l-2.774,0.575L122.334,60.718
			 M63.488,69.334l4.283-1.251c0.037-0.058,0.072-0.112,0.108-0.168l-1.456-2.863l-0.17,0.056
			C65.302,66.563,64.345,68.022,63.488,69.334 M125.508,66.537l1.516-1.425l-2.057,0.432L125.508,66.537 M128.887,72.73l1.879-1.789
			l-2.57,0.522L128.887,72.73 M132.09,78.603l2.102-1.947l-2.838,0.597L132.09,78.603 M73.65,79.406
			c0.013-0.022,0.027-0.042,0.041-0.064l-0.029-0.056C73.66,79.326,73.652,79.366,73.65,79.406 M135.295,84.477l1.936-1.845
			l-2.646,0.539L135.295,84.477 M72.853,86.935l4.08-1.219l-1.436-2.821C74.586,84.287,73.675,85.679,72.853,86.935 M75.218,93.463
			l4.285-1.251c0.137-0.21,0.273-0.422,0.412-0.633l-1.291-2.535l-0.65,0.207C77.011,90.724,76.058,92.18,75.218,93.463
			 M72.511,92.806c0.421-0.648,0.926-1.426,1.482-2.283l-1.482,0.474V92.806 M77.855,99.652l4.343-1.338
			c0.214-0.328,0.427-0.656,0.641-0.986l-1.171-2.299l-1.011,0.338C79.664,96.886,78.691,98.372,77.855,99.652 M76.562,96.745
			l-3.687,1.237l-0.054-0.107c-0.014,0.133-0.02,0.245-0.021,0.324l-0.289-0.581v23.229c0,0.465,0.051,0.896,0.141,1.291
			l10.748-2.82c-0.122-0.151-0.234-0.309-0.333-0.473l-3.639-7.316l0.889,1.785c0,0,0.003-0.196,0.04-0.483l-0.047-0.095l0.064-0.02
			c0.065-0.422,0.205-0.99,0.515-1.467c0.428-0.658,0.986-1.52,1.619-2.494l-3.595,1.209l-0.088-0.176
			c-0.029,0.279-0.024,0.477-0.024,0.477l-1.564-3.145c0.001-0.027,0.005-0.189,0.032-0.42l-0.041-0.08l0.055-0.016
			c0.061-0.424,0.199-1.029,0.526-1.533c0.405-0.625,0.929-1.43,1.521-2.342l-3.498,1.119l-0.094-0.187
			c-0.02,0.221-0.018,0.377-0.018,0.407l-1.4-2.815c0.006-0.082,0.015-0.198,0.033-0.342l-0.081-0.16l0.11-0.034
			c0.069-0.41,0.211-0.945,0.505-1.397C75.328,98.644,75.907,97.751,76.562,96.745 M81.168,105.473l4.284-1.25
			c0.167-0.258,0.334-0.514,0.5-0.77l-1.242-2.441l-0.788,0.252C82.958,102.738,82.003,104.195,81.168,105.473 M104.389,6.078
			c-1.117,0-2.234,0.091-3.318,0.271l-42.497,7.01c-4.974,0.823-9.174,3.509-11.653,7.42c-9.073,12.998-9.541,13.929-9.994,14.83
			c-3.102,6.183-2.343,12.362-0.44,16.508c0.279,0.764,0.604,1.516,0.971,2.248l3.412,6.772c0.239,0.473,0.504,0.924,0.795,1.352
			c0.17,0.484,0.372,0.96,0.605,1.424l1.543,3.065c0.238,0.472,0.503,0.923,0.793,1.351c0.17,0.486,0.373,0.964,0.608,1.43
			l1.757,3.485c0.237,0.47,0.5,0.917,0.789,1.342c0.173,0.494,0.379,0.978,0.618,1.451l0.022,0.044l0.142,0.285
			c-0.054,0.656-0.081,1.315-0.081,1.976c0,3.893,0.922,7.612,2.618,10.79v29.117c0,6.993,2.606,11.62,5.262,14.521
			c-7.133,5.932-11.254,13.522-11.254,21.92c0,0.735,0.034,1.479,0.102,2.227c-0.068,0.745-0.102,1.489-0.102,2.225
			c0,10.461,6.577,20.144,18.044,26.562c9.438,5.283,21.728,8.191,34.604,8.191c12.875,0,25.167-2.908,34.603-8.191
			c11.468-6.419,18.045-16.102,18.045-26.562c0-0.733-0.034-1.479-0.103-2.225c0.068-0.747,0.103-1.491,0.103-2.227
			c0-11.523-7.765-21.533-20.421-27.814c2.055-0.878,3.991-2.115,5.793-4.136l0.426-0.109c3.709-0.919,7.149-2.935,9.692-5.682
			c0.384-0.417,0.912-0.992,8.751-10.603l1.764-1.742c0.062-0.061,0.123-0.121,0.184-0.185c1.152-1.188,2.664-3.085,3.736-5.68
			c2.225-4.535,2.055-9.886-0.516-14.359l-3.462-6.282c-0.252-0.457-0.53-0.892-0.832-1.304c-0.188-0.478-0.407-0.946-0.658-1.401
			l-1.799-3.264c-0.253-0.458-0.532-0.895-0.835-1.308c-0.188-0.476-0.406-0.942-0.656-1.396l-1.664-3.021
			c-0.253-0.459-0.533-0.897-0.837-1.312c-0.188-0.476-0.405-0.942-0.655-1.396l-1.8-3.264c-0.253-0.458-0.53-0.893-0.834-1.306
			c-0.188-0.477-0.405-0.944-0.657-1.398l-1.875-3.404c-0.252-0.46-0.533-0.899-0.838-1.314c-0.188-0.475-0.406-0.94-0.654-1.394
			l-1.65-2.994c-0.253-0.458-0.532-0.894-0.835-1.307c-0.188-0.48-0.409-0.951-0.662-1.409l-1.631-2.956
			c-0.25-0.454-0.526-0.886-0.827-1.296c-0.188-0.48-0.408-0.952-0.661-1.41l-1.797-3.259c-0.253-0.458-0.532-0.895-0.836-1.309
			c-0.188-0.476-0.405-0.942-0.655-1.396l-1.875-3.403c-0.254-0.458-0.533-0.896-0.837-1.309c-0.188-0.478-0.407-0.946-0.657-1.402
			l-1.65-2.993c-0.253-0.458-0.533-0.895-0.836-1.309c-0.188-0.478-0.408-0.946-0.659-1.401l-3.629-6.586
			c-0.021-0.036-0.04-0.072-0.06-0.108C118.65,9.882,111.748,6.078,104.389,6.078L104.389,6.078z"/>
	</g>
</g>
<g id="outline_x5F_black">
	<g>
		<path d="M104.389,18.078c2.924,0,5.932,1.457,7.137,3.591l3.629,6.586l-0.565,0.114l-4.582,4.02l6.093-1.302l0.25-0.23
			l0.088,0.158l0.215-0.046l1.649,2.993l-0.555,0.113l-4.49,4.022l5.996-1.311l0.238-0.223l0.084,0.152l0.219-0.048l1.875,3.403
			l-0.539,0.114l-4.44,4.029l5.944-1.316l0.228-0.215l0.08,0.146l0.223-0.05l1.797,3.259l-0.535,0.11l-4.549,4.011l6.053-1.299
			l0.219-0.203l0.076,0.138l0.228-0.049l1.631,2.956l-0.524,0.106l-4.574,4.013l6.078-1.297l0.211-0.193l0.072,0.132l0.231-0.049
			l1.649,2.994l-0.51,0.106l-4.482,4.016l5.98-1.309l0.197-0.184l0.07,0.127l0.235-0.053l1.875,3.404l-0.497,0.105l-4.435,4.025
			l5.935-1.314l0.184-0.175l0.066,0.119l0.239-0.053l1.799,3.264l-0.489,0.101l-4.543,4.007l6.045-1.299l0.172-0.16l0.061,0.11
			l0.248-0.054l1.664,3.021l-0.477,0.1l-4.437,4.027l5.937-1.316l0.16-0.153l0.059,0.106l0.25-0.058l1.799,3.264l-0.471,0.097
			l-4.543,4.007l6.043-1.299l0.152-0.141l0.053,0.097l0.256-0.056l3.531,6.407c0.711,1.187,0.662,2.424,0.014,3.462
			c-0.312,0.951-0.883,1.763-1.41,2.307l-2.223,2.195c-3.375,4.138-8.113,9.933-8.664,10.533c-0.83,0.896-2.15,1.793-3.807,2.194
			l-4.857,1.242c-1.934,3.877-2.869,3.607-7.588,4.933l-16.123,4.52c0,1.863,0,6.289,0,10.593
			c19.131,1.848,33.688,11.176,33.688,22.414c0,0.752-0.069,1.493-0.196,2.227c0.127,0.732,0.196,1.475,0.196,2.225
			c0,12.568-18.198,22.754-40.648,22.754c-22.449,0-40.648-10.186-40.648-22.754c0-0.75,0.069-1.492,0.196-2.225
			c-0.127-0.732-0.196-1.475-0.196-2.227c0-11.238,14.558-20.566,33.688-22.414c0-2.338,0-4.709,0-6.688l-9.42,2.642
			c-0.931,0.262-3.033,1.383-5.411,1.383c-0.89,0-1.82-0.157-2.74-0.576c-0.488-0.221-0.92-0.49-1.326-0.779
			c-0.002,0.002-0.008,0.008-0.008,0.008c-0.738-0.336-5.582-2.576-6.135-3.062c-1.822-1.61-2.657-4.01-2.657-6.95V85.374
			c-1.573-1.488-2.618-4.078-2.618-7.03c0-1.698,0.347-3.277,0.939-4.596l-0.595,0.198c-0.005,0.032-0.013,0.067-0.017,0.098
			l-1.662-3.341l-0.042-0.083l0.075-0.021c0.084-0.291,0.199-0.597,0.377-0.871c0.518-0.798,1.227-1.888,2.028-3.124l-3.879,1.239
			l-1.757-3.485l0.544-0.161c0.077-0.218,0.175-0.437,0.305-0.637c0.562-0.865,1.349-2.077,2.235-3.443l-4.188,1.37
			c-0.035,0.137-0.064,0.272-0.083,0.397l-0.158-0.319l-0.053,0.019l-1.543-3.065l0.266-0.083c0.073-0.198,0.16-0.396,0.278-0.58
			c0.579-0.89,1.395-2.146,2.315-3.563l-4.262,1.446l-3.399-6.747c-0.249-0.497-0.445-0.995-0.591-1.479l-0.063-0.125
			c-0.617-1.092-1.252-3.663,0.116-6.39c0.573-1.14,9.292-13.608,9.321-13.65c0.595-1.057,1.833-1.863,3.557-2.148l42.509-7.012
			C103.479,18.113,103.934,18.078,104.389,18.078 M109.49,37.171l1.939-1.786l-2.619,0.542L109.49,37.171 M112.664,42.988
			l1.398-1.316l-1.9,0.4L112.664,42.988 M116.041,49.181l1.768-1.684l-2.418,0.49L116.041,49.181 M57.494,57.114l4.224-1.315
			l-1.471-2.891C59.301,54.353,58.35,55.806,57.494,57.114 M119.244,55.054l2.156-1.998l-2.924,0.591L119.244,55.054 M60.429,63.012
			l4.303-1.288l-1.514-2.974C62.267,60.204,61.304,61.675,60.429,63.012 M122.334,60.718l2.057-1.893l-2.774,0.575L122.334,60.718
			 M63.488,69.334l4.283-1.251c0.037-0.058,0.072-0.112,0.108-0.168l-1.456-2.863l-0.17,0.056
			C65.302,66.563,64.345,68.022,63.488,69.334 M125.508,66.537l1.516-1.425l-2.057,0.432L125.508,66.537 M128.887,72.73l1.879-1.789
			l-2.57,0.522L128.887,72.73 M132.09,78.603l2.102-1.947l-2.838,0.597L132.09,78.603 M73.65,79.406
			c0.013-0.022,0.027-0.042,0.041-0.064l-0.029-0.056C73.66,79.326,73.652,79.366,73.65,79.406 M135.295,84.477l1.936-1.845
			l-2.646,0.539L135.295,84.477 M72.853,86.935l4.08-1.219l-1.436-2.821C74.586,84.287,73.675,85.679,72.853,86.935 M75.218,93.463
			l4.285-1.251c0.137-0.21,0.273-0.422,0.412-0.633l-1.291-2.535l-0.65,0.207C77.011,90.724,76.058,92.18,75.218,93.463
			 M72.511,92.806c0.421-0.648,0.926-1.426,1.482-2.283l-1.482,0.474V92.806 M77.855,99.652l4.343-1.338
			c0.214-0.328,0.427-0.656,0.641-0.986l-1.171-2.299l-1.011,0.338C79.664,96.886,78.691,98.372,77.855,99.652 M76.562,96.745
			l-3.687,1.237l-0.054-0.107c-0.014,0.133-0.02,0.245-0.021,0.324l-0.289-0.581v23.229c0,0.465,0.051,0.896,0.141,1.291
			l10.748-2.82c-0.122-0.151-0.234-0.309-0.333-0.473l-3.639-7.316l0.889,1.785c0,0,0.003-0.196,0.04-0.483l-0.047-0.095l0.064-0.02
			c0.065-0.422,0.205-0.99,0.515-1.467c0.428-0.658,0.986-1.52,1.619-2.494l-3.595,1.209l-0.088-0.176
			c-0.029,0.279-0.024,0.477-0.024,0.477l-1.564-3.145c0.001-0.027,0.005-0.189,0.032-0.42l-0.041-0.08l0.055-0.016
			c0.061-0.424,0.199-1.029,0.526-1.533c0.405-0.625,0.929-1.43,1.521-2.342l-3.498,1.119l-0.094-0.187
			c-0.02,0.221-0.018,0.377-0.018,0.407l-1.4-2.815c0.006-0.082,0.015-0.198,0.033-0.342l-0.081-0.16l0.11-0.034
			c0.069-0.41,0.211-0.945,0.505-1.397C75.328,98.644,75.907,97.751,76.562,96.745 M81.168,105.473l4.284-1.25
			c0.167-0.258,0.334-0.514,0.5-0.77l-1.242-2.441l-0.788,0.252C82.958,102.738,82.003,104.195,81.168,105.473 M104.389,12.078
			L104.389,12.078c-0.789,0-1.576,0.064-2.336,0.19L59.55,19.279c-3.315,0.548-6.071,2.293-7.624,4.811
			c-8.908,12.761-9.383,13.706-9.638,14.213c-2.207,4.398-1.559,8.825-0.249,11.521c0.219,0.63,0.481,1.251,0.783,1.854l3.405,6.759
			c0.242,0.481,0.542,0.917,0.886,1.302c0.105,0.507,0.277,1.004,0.515,1.477l1.543,3.065c0.162,0.322,0.35,0.623,0.559,0.903
			c0.106,0.162,0.219,0.317,0.339,0.466c0.107,0.484,0.274,0.958,0.501,1.409l1.757,3.485c0.241,0.479,0.539,0.912,0.882,1.296
			c0.106,0.512,0.28,1.013,0.521,1.489l0.042,0.083l0.943,1.896c-0.169,0.992-0.256,2.01-0.256,3.035
			c0,3.422,0.933,6.626,2.618,9.153v30.753c0,6.038,2.546,9.558,4.683,11.446c0.462,0.406,1.116,0.98,5.425,3.012
			c-10.026,5.236-16.1,13.078-16.1,21.98c0,0.733,0.045,1.479,0.134,2.228c-0.089,0.747-0.134,1.492-0.134,2.226
			c0,8.346,5.318,15.92,14.975,21.325c8.558,4.79,19.806,7.429,31.673,7.429s23.115-2.639,31.673-7.429
			c9.656-5.405,14.975-12.979,14.975-21.325c0-0.73-0.045-1.477-0.135-2.226c0.09-0.749,0.135-1.495,0.135-2.228
			c0-13.322-13.597-24.265-33.689-27.668v-0.787l11.742-3.293c0.596-0.166,1.127-0.307,1.604-0.434
			c3.496-0.922,5.972-1.74,8.272-5.082l2.402-0.613c2.596-0.64,4.992-2.037,6.755-3.94c0.247-0.269,0.785-0.854,8.707-10.565
			l1.993-1.97c0.031-0.031,0.062-0.062,0.092-0.093c1.094-1.127,1.988-2.513,2.565-3.958c1.476-2.829,1.389-6.118-0.263-8.957
			l-3.49-6.333c-0.256-0.465-0.567-0.885-0.922-1.255c-0.125-0.5-0.314-0.989-0.568-1.45l-1.799-3.264
			c-0.258-0.466-0.568-0.887-0.924-1.257c-0.125-0.5-0.313-0.987-0.568-1.448l-1.664-3.021c-0.257-0.466-0.568-0.888-0.925-1.259
			c-0.124-0.5-0.313-0.986-0.567-1.447l-1.799-3.264c-0.257-0.466-0.568-0.886-0.924-1.257c-0.124-0.5-0.312-0.988-0.566-1.45
			l-1.875-3.404c-0.259-0.467-0.57-0.888-0.927-1.26c-0.124-0.499-0.313-0.985-0.567-1.446l-1.649-2.994
			c-0.257-0.466-0.569-0.887-0.925-1.257c-0.125-0.503-0.314-0.993-0.57-1.457l-1.631-2.956c-0.256-0.463-0.566-0.882-0.92-1.251
			c-0.124-0.502-0.314-0.992-0.57-1.455l-1.797-3.259c-0.257-0.466-0.568-0.887-0.925-1.258c-0.124-0.5-0.313-0.987-0.568-1.449
			l-1.875-3.403c-0.256-0.466-0.567-0.887-0.924-1.257c-0.124-0.501-0.313-0.989-0.569-1.451l-1.65-2.993
			c-0.256-0.467-0.568-0.888-0.926-1.259c-0.123-0.501-0.313-0.99-0.568-1.453l-3.629-6.586c-0.01-0.018-0.021-0.036-0.03-0.054
			C114.508,14.747,109.54,12.078,104.389,12.078L104.389,12.078z"/>
	</g>
</g>
</svg>
