<?xml version="1.0" encoding="utf-8"?>
<!-- Generator: Adobe Illustrator 15.0.0, SVG Export Plug-In . SVG Version: 6.00 Build 0)  -->
<!DOCTYPE svg PUBLIC "-//W3C//DTD SVG 1.1//EN" "http://www.w3.org/Graphics/SVG/1.1/DTD/svg11.dtd">
<svg version="1.1" xmlns="http://www.w3.org/2000/svg" xmlns:xlink="http://www.w3.org/1999/xlink" x="0px" y="0px" width="200px"
	 height="200px" viewBox="0 0 200 200" enable-background="new 0 0 200 200" xml:space="preserve">
<g id="icon">
	<g id="Layer_2">
	</g>
	<g>
		<path d="M55.215,98.631c-0.702,0.699-14.351,14.486-14.779,14.914c-11.194,11.195-10.098,30.441,2.448,42.988
			c12.543,12.545,31.794,13.643,42.988,2.449c0.428-0.431,14.212-14.078,14.915-14.781c11.229-11.227,10.126-30.531-2.457-43.113
			C85.747,88.504,66.442,87.404,55.215,98.631z"/>
		
			<linearGradient id="SVGID_1_" gradientUnits="userSpaceOnUse" x1="135.6455" y1="-40.4067" x2="168.6455" y2="-66.4067" gradientTransform="matrix(1 0 0 -1 -50 61)">
			<stop  offset="0" style="stop-color:#464443"/>
			<stop  offset="1" style="stop-color:#000000"/>
		</linearGradient>
		<path fill="url(#SVGID_1_)" d="M137.455,61.962c27.788,27.788,30.214,70.413,5.421,95.206s-67.42,22.371-95.208-5.418
			c-27.79-27.789-30.213-70.417-5.42-95.21C67.04,31.746,109.665,34.173,137.455,61.962z"/>
		
			<radialGradient id="SVGID_2_" cx="134.582" cy="18.0312" r="104.3616" gradientTransform="matrix(1 0 0 -1 -50 61)" gradientUnits="userSpaceOnUse">
			<stop  offset="0.1152" style="stop-color:#464443"/>
			<stop  offset="1" style="stop-color:#000000"/>
		</radialGradient>
		<path fill="url(#SVGID_2_)" d="M141.154,58.262c27.869,27.871,30.304,70.626,5.435,95.496
			c-24.866,24.867-67.622,22.434-95.492-5.436c-27.874-27.873-30.309-70.629-5.439-95.496
			C70.527,27.956,113.279,30.391,141.154,58.262z"/>
		<g>
			
				<radialGradient id="SVGID_3_" cx="85.2021" cy="-38.7549" r="2.769" gradientTransform="matrix(1 0 0 -1 -50 61)" gradientUnits="userSpaceOnUse">
				<stop  offset="0" style="stop-color:#FFFFFF"/>
				<stop  offset="0.1089" style="stop-color:#FDFDFD"/>
				<stop  offset="0.1481" style="stop-color:#F6F6F6"/>
				<stop  offset="0.176" style="stop-color:#EBEBEB"/>
				<stop  offset="0.1987" style="stop-color:#DADADA"/>
				<stop  offset="0.218" style="stop-color:#C4C4C4"/>
				<stop  offset="0.2348" style="stop-color:#A9A9A9"/>
				<stop  offset="0.2393" style="stop-color:#A1A1A1"/>
				<stop  offset="0.6293" style="stop-color:#6F6F6F"/>
				<stop  offset="0.8712" style="stop-color:#545454"/>
			</radialGradient>
			<path fill="url(#SVGID_3_)" d="M37.045,97.912c1.142,1.139,1.241,2.893,0.223,3.908c-1.018,1.019-2.771,0.921-3.91-0.221
				c-1.141-1.142-1.241-2.894-0.222-3.911C34.154,96.669,35.904,96.771,37.045,97.912z"/>
			
				<radialGradient id="SVGID_4_" cx="149.8438" cy="-103.3945" r="2.7698" gradientTransform="matrix(1 0 0 -1 -50 61)" gradientUnits="userSpaceOnUse">
				<stop  offset="0" style="stop-color:#FFFFFF"/>
				<stop  offset="0.1089" style="stop-color:#FDFDFD"/>
				<stop  offset="0.1481" style="stop-color:#F6F6F6"/>
				<stop  offset="0.176" style="stop-color:#EBEBEB"/>
				<stop  offset="0.1987" style="stop-color:#DADADA"/>
				<stop  offset="0.218" style="stop-color:#C4C4C4"/>
				<stop  offset="0.2348" style="stop-color:#A9A9A9"/>
				<stop  offset="0.2393" style="stop-color:#A1A1A1"/>
				<stop  offset="0.6293" style="stop-color:#6F6F6F"/>
				<stop  offset="0.8712" style="stop-color:#545454"/>
			</radialGradient>
			<path fill="url(#SVGID_4_)" d="M101.686,162.549c1.143,1.143,1.244,2.895,0.226,3.914c-1.019,1.018-2.771,0.918-3.913-0.225
				c-1.141-1.139-1.239-2.894-0.222-3.91C98.794,161.309,100.544,161.41,101.686,162.549z"/>
			
				<radialGradient id="SVGID_5_" cx="142.6523" cy="18.6963" r="2.7688" gradientTransform="matrix(1 0 0 -1 -50 61)" gradientUnits="userSpaceOnUse">
				<stop  offset="0" style="stop-color:#FFFFFF"/>
				<stop  offset="0.1089" style="stop-color:#FDFDFD"/>
				<stop  offset="0.1481" style="stop-color:#F6F6F6"/>
				<stop  offset="0.176" style="stop-color:#EBEBEB"/>
				<stop  offset="0.1987" style="stop-color:#DADADA"/>
				<stop  offset="0.218" style="stop-color:#C4C4C4"/>
				<stop  offset="0.2348" style="stop-color:#A9A9A9"/>
				<stop  offset="0.2393" style="stop-color:#A1A1A1"/>
				<stop  offset="0.6293" style="stop-color:#6F6F6F"/>
				<stop  offset="0.8712" style="stop-color:#545454"/>
			</radialGradient>
			<path fill="url(#SVGID_5_)" d="M94.495,40.459c1.142,1.141,1.242,2.892,0.223,3.911c-1.018,1.018-2.768,0.916-3.908-0.224
				c-1.141-1.142-1.242-2.891-0.224-3.908C91.604,39.219,93.354,39.32,94.495,40.459z"/>
			
				<radialGradient id="SVGID_6_" cx="207.293" cy="-45.9453" r="2.7705" gradientTransform="matrix(1 0 0 -1 -50 61)" gradientUnits="userSpaceOnUse">
				<stop  offset="0" style="stop-color:#FFFFFF"/>
				<stop  offset="0.1089" style="stop-color:#FDFDFD"/>
				<stop  offset="0.1481" style="stop-color:#F6F6F6"/>
				<stop  offset="0.176" style="stop-color:#EBEBEB"/>
				<stop  offset="0.1987" style="stop-color:#DADADA"/>
				<stop  offset="0.218" style="stop-color:#C4C4C4"/>
				<stop  offset="0.2348" style="stop-color:#A9A9A9"/>
				<stop  offset="0.2393" style="stop-color:#A1A1A1"/>
				<stop  offset="0.6293" style="stop-color:#6F6F6F"/>
				<stop  offset="0.8712" style="stop-color:#545454"/>
			</radialGradient>
			<path fill="url(#SVGID_6_)" d="M159.137,105.1c1.143,1.144,1.242,2.896,0.225,3.912c-1.021,1.021-2.77,0.918-3.912-0.225
				c-1.141-1.141-1.241-2.891-0.223-3.908C156.244,103.859,157.996,103.959,159.137,105.1z"/>
		</g>
		<g>
			
				<linearGradient id="SVGID_7_" gradientUnits="userSpaceOnUse" x1="-1412.7832" y1="-86.5669" x2="-1412.7832" y2="12.2744" gradientTransform="matrix(1.018 0.3828 -0.0785 -1.0118 1529.0127 564.4426)">
				<stop  offset="0" style="stop-color:#FFFFFF"/>
				<stop  offset="1" style="stop-color:#92A2B2"/>
			</linearGradient>
			<path fill="url(#SVGID_7_)" d="M102.275,51.725c29.773,6.26,51.384,34.945,48.947,64.507c0.076-0.5,0.155-0.996,0.211-1.506
				c3.315-30.098-18.543-59.657-48.822-66.031C72.329,42.33,45.097,61.56,41.783,91.655c-0.054,0.505-0.087,1.017-0.126,1.522
				C45.7,63.952,72.513,45.458,102.275,51.725z"/>
			
				<radialGradient id="SVGID_8_" cx="348.3252" cy="-1414.8174" r="92.9118" gradientTransform="matrix(-1.0059 -0.2134 -0.1082 0.9989 320.3687 1508.5161)" gradientUnits="userSpaceOnUse">
				<stop  offset="0.0675" style="stop-color:#FFFF9D"/>
				<stop  offset="0.1935" style="stop-color:#FAE688"/>
				<stop  offset="0.3919" style="stop-color:#F3C56B"/>
				<stop  offset="0.5" style="stop-color:#F0B860"/>
				<stop  offset="1" style="stop-color:#A78800"/>
			</radialGradient>
			<path fill="url(#SVGID_8_)" d="M41.348,91.57c3.269-30.182,30.547-49.431,60.935-42.979
				c30.392,6.446,52.371,36.143,49.105,66.316c-3.267,30.182-30.546,49.422-60.937,42.979
				C60.064,151.438,38.078,121.748,41.348,91.57z"/>
			
				<radialGradient id="SVGID_9_" cx="376.792" cy="-1280.7598" r="43.4073" fx="368.4034" fy="-1258.5145" gradientTransform="matrix(-1.0059 -0.2134 -0.1082 0.9989 320.3687 1508.5161)" gradientUnits="userSpaceOnUse">
				<stop  offset="0.0675" style="stop-color:#FFFF9D"/>
				<stop  offset="0.1935" style="stop-color:#FAE688"/>
				<stop  offset="0.3919" style="stop-color:#F3C56B"/>
				<stop  offset="0.5" style="stop-color:#F0B860"/>
				<stop  offset="1" style="stop-color:#A78800"/>
			</radialGradient>
			<path fill="url(#SVGID_9_)" d="M44.245,92.029l104.497,22.167c-3.102,28.662-29.01,46.929-57.867,40.812
				C62.017,148.885,41.141,120.691,44.245,92.029z"/>
			
				<radialGradient id="SVGID_10_" cx="361.0605" cy="-1392.2915" r="62.1001" gradientTransform="matrix(-1.0034 -0.2111 -0.1099 0.9973 320.7942 1508.738)" gradientUnits="userSpaceOnUse">
				<stop  offset="0" style="stop-color:#838CA3"/>
				<stop  offset="0.4615" style="stop-color:#5C6A85"/>
				<stop  offset="1" style="stop-color:#00000A"/>
			</radialGradient>
			<path fill="url(#SVGID_10_)" d="M68.948,98.749c1.546-14.059,14.266-23.045,28.41-20.071
				c14.149,2.979,24.358,16.789,22.808,30.846c-1.546,14.062-14.268,23.041-28.415,20.068
				C77.606,126.615,67.397,112.807,68.948,98.749z"/>
			
				<radialGradient id="SVGID_11_" cx="365.2012" cy="-1320.7949" r="48.6585" gradientTransform="matrix(-1.0059 -0.2134 -0.1082 0.9989 320.3687 1508.5161)" gradientUnits="userSpaceOnUse">
				<stop  offset="0.1104" style="stop-color:#D5D8E0"/>
				<stop  offset="0.159" style="stop-color:#CFD2DB"/>
				<stop  offset="0.2227" style="stop-color:#BFC3CC"/>
				<stop  offset="0.295" style="stop-color:#A3A9B3"/>
				<stop  offset="0.3735" style="stop-color:#7D8491"/>
				<stop  offset="0.4563" style="stop-color:#4D5666"/>
				<stop  offset="0.4615" style="stop-color:#4A5363"/>
				<stop  offset="0.4797" style="stop-color:#606978"/>
				<stop  offset="0.5111" style="stop-color:#7F8795"/>
				<stop  offset="0.5468" style="stop-color:#9BA2AE"/>
				<stop  offset="0.587" style="stop-color:#B1B7C3"/>
				<stop  offset="0.634" style="stop-color:#C2C8D3"/>
				<stop  offset="0.6921" style="stop-color:#CDD4DE"/>
				<stop  offset="0.7737" style="stop-color:#D4DAE4"/>
				<stop  offset="1" style="stop-color:#D6DCE6"/>
			</radialGradient>
			<path fill="url(#SVGID_11_)" d="M70.989,98.921c1.455-13.443,13.605-22.018,27.144-19.143
				c13.538,2.871,23.328,16.099,21.875,29.541c-1.455,13.449-13.605,22.016-27.146,19.145
				C79.327,125.592,69.534,112.367,70.989,98.921z"/>
			
				<linearGradient id="SVGID_12_" gradientUnits="userSpaceOnUse" x1="149.7227" y1="-28.3242" x2="148.7825" y2="-46.8925" gradientTransform="matrix(1.0134 -0.0173 -0.0246 -0.9864 -56.5468 57.5308)">
				<stop  offset="0" style="stop-color:#FFFFFF"/>
				<stop  offset="1" style="stop-color:#FFFFFF;stop-opacity:0"/>
			</linearGradient>
			<path fill="url(#SVGID_12_)" d="M97.464,87.881c10.476,2.035,18.44,10.371,19.662,19.708c0.146-0.637,0.263-1.284,0.34-1.948
				c1.312-11.093-7.513-22.008-19.713-24.378C85.551,78.893,74.6,85.966,73.286,97.059c-0.185,1.571-0.146,3.134,0.055,4.673
				C75.632,91.774,85.991,85.652,97.464,87.881z"/>
		</g>
		<path opacity="0.58" enable-background="new    " d="M174.852,62.081c0.479-9.93-8.3-19.258-12.929-20.604
			c-4.803-1.395-10.885-5.899-13.056-8.544c-1.893-2.075-3.52-3.009-5.482-2.645c-1.807,0.333-3.064,1.835-3.082,3.527l-0.001,0.001
			c-0.102,0.461-0.028,5.815,0.07,6.309l11.176,36.582c-3.323-1.16-7.2-1.507-11.188-0.769c-9.471,1.754-16.045,8.9-15.215,16.249
			c-0.025,0.218-0.062,0.43-0.076,0.655c-0.053,0.949,0.015,4.93,0.209,5.89c1.56,7.679,10.841,12.42,20.729,10.588
			c8.789-1.627,15.102-7.899,15.303-14.664c0.02-0.651,0.037-3.45-0.033-5.097c0.072-1.003,0.021-2.018-0.186-3.033
			c-0.102-0.497-0.236-0.981-0.4-1.453l-5.26-23.232c2.25-1.148,8.281-0.865,11.938,3.311c4.606,5.257,5.489,14.971,7.284,4.371
			c0.141-0.823,0.219-6.304,0.219-7.119C174.87,62.294,174.854,62.19,174.852,62.081z"/>
		<g>
			
				<linearGradient id="SVGID_13_" gradientUnits="userSpaceOnUse" x1="123.8242" y1="-197.3584" x2="170.2014" y2="-231.3251" gradientTransform="matrix(0.9817 -0.1903 -0.1903 -0.9817 -44.9812 -114.2552)">
				<stop  offset="0" style="stop-color:#70AB00"/>
				<stop  offset="1" style="stop-color:#284700"/>
			</linearGradient>
			<path fill="url(#SVGID_13_)" d="M159.962,42.066c-4.801-1.396-10.885-5.901-13.055-8.547c-1.896-2.075-3.521-3.008-5.482-2.645
				c-1.549,0.288-2.774-3.432-3.082-2.045c-0.103,0.461-0.03,5.815,0.069,6.309l13.119,42.945
				c-3.696-1.785-8.342-2.443-13.133-1.557c-8.651,1.602-14.906,4.684-15.291,11.329c-0.055,0.949,0.015,4.93,0.209,5.89
				c1.56,7.68,10.841,12.42,20.728,10.588c8.791-1.627,15.104-7.899,15.304-14.664c0.024-0.847,0.051-5.328-0.123-6.182
				c-0.102-0.497-0.332,2.645-0.494,2.174l-6.273-27.702c0.094,0.182,0.136,0.203,0.122,0.029c-0.17-2.177,8.224-3.082,12.829,2.176
				c4.605,5.257,5.488,14.971,7.285,4.371c0.14-0.823,0.218-6.304,0.218-7.119C172.911,48.711,164.499,43.383,159.962,42.066z"/>
			
				<linearGradient id="SVGID_14_" gradientUnits="userSpaceOnUse" x1="148.5117" y1="-203.6514" x2="178.9809" y2="-274.838" gradientTransform="matrix(0.9817 -0.1903 -0.1903 -0.9817 -44.9812 -114.2552)">
				<stop  offset="0.1758" style="stop-color:#96DC00"/>
				<stop  offset="1" style="stop-color:#366100"/>
			</linearGradient>
			<path fill="url(#SVGID_14_)" d="M159.963,36.49c-4.802-1.396-10.885-5.899-13.056-8.544c-1.894-2.075-3.521-3.009-5.482-2.645
				c-2.063,0.381-3.411,2.288-3.012,4.261l13.119,42.945c-3.696-1.782-8.343-2.442-13.134-1.556
				c-9.887,1.831-16.642,9.54-15.082,17.22c1.56,7.678,10.841,12.421,20.729,10.59c9.891-1.831,16.643-9.541,15.084-17.221
				c-0.102-0.497-0.236-0.981-0.398-1.453l-6.273-27.701c0.094,0.182,0.136,0.203,0.122,0.029
				c-0.169-2.178,8.224-3.081,12.829,2.175c4.605,5.257,5.488,14.971,7.285,4.371C174.486,48.361,164.882,37.919,159.963,36.49z"/>
		</g>
	</g>
</g>
<g id="outline_x5F_white">
	<path fill="#FFFFFF" d="M184.902,56.979c0.16-6.91-2.272-14.171-6.883-20.506c-2.008-2.759-7.459-9.404-14.711-11.51
		c-2.076-0.603-6.035-3.391-7.156-4.667c-0.131-0.161-0.239-0.285-0.381-0.439c-4.014-4.4-8.566-6.633-13.531-6.633
		c-0.998,0-2.01,0.094-3.004,0.278c-7.344,1.354-12.752,7.68-12.891,15.067c-0.082,1.328-0.093,2.875-0.055,4.329
		c-11.874-5.986-24.867-9.241-37.867-9.241c-19.712,0-37.913,7.346-51.252,20.686c-1.137,1.136-2.29,2.388-3.511,3.813
		c-11.162,11.208-18.073,25.692-19.99,41.897c-1.728,14.611,0.708,29.623,7.051,43.602c0.223,11.516,5.104,22.791,13.675,31.363
		c8.485,8.485,19.873,13.438,31.365,13.674c10.981,4.971,22.843,7.588,34.492,7.588c19.611,0,37.725-7.293,51.016-20.533
		c1.416-1.215,2.664-2.363,3.801-3.498c14.481-14.484,21.781-34.297,20.56-55.795c-0.427-7.501-1.898-14.888-4.302-22.001
		c0.032-1.06,0.001-2.119-0.111-3.17c4.299-0.055,9.657-2.473,11.979-9.123c0.504-1.441,0.912-3.174,1.326-5.62
		c0.383-2.252,0.388-8.845,0.388-9.124C184.909,57.268,184.907,57.123,184.902,56.979z M172.911,57.418
		c0,0.815-0.078,6.296-0.218,7.119c-0.008,0.043-0.015,0.077-0.021,0.12c-0.059,0.34-0.116,0.658-0.173,0.956
		c-0.02,0.104-0.039,0.202-0.06,0.302c-0.045,0.229-0.09,0.445-0.134,0.647c-0.021,0.093-0.041,0.187-0.061,0.274
		c-0.05,0.216-0.1,0.416-0.148,0.6c-0.012,0.045-0.024,0.097-0.036,0.14c-0.06,0.216-0.118,0.407-0.177,0.579
		c-0.019,0.053-0.037,0.097-0.055,0.146c-0.042,0.113-0.084,0.218-0.126,0.31c-0.021,0.047-0.043,0.092-0.064,0.134
		c-0.041,0.081-0.083,0.15-0.125,0.212c-0.019,0.027-0.037,0.06-0.056,0.084c-0.058,0.074-0.116,0.131-0.175,0.169
		c-0.018,0.012-0.035,0.015-0.054,0.023c-0.043,0.021-0.086,0.036-0.13,0.04c-0.011,0-0.021,0.009-0.031,0.009
		c-0.014,0-0.027-0.011-0.041-0.012c-0.043-0.005-0.086-0.018-0.129-0.038c-0.023-0.01-0.047-0.018-0.07-0.032
		c-0.062-0.038-0.124-0.088-0.188-0.152c-0.026-0.025-0.053-0.06-0.078-0.09c-0.043-0.049-0.087-0.101-0.131-0.161
		c-0.032-0.043-0.065-0.09-0.099-0.14c-0.04-0.059-0.081-0.124-0.122-0.19c-0.034-0.055-0.068-0.108-0.104-0.168
		c-0.064-0.112-0.132-0.232-0.2-0.36c-0.052-0.097-0.105-0.203-0.159-0.308c-0.023-0.046-0.047-0.092-0.071-0.139
		c-0.592-1.174-1.3-2.776-2.213-4.37c-0.012-0.021-0.024-0.042-0.036-0.063c-0.283-0.491-0.585-0.979-0.909-1.453
		c-0.021-0.029-0.041-0.058-0.062-0.087c-0.141-0.203-0.285-0.402-0.435-0.598c-0.027-0.037-0.056-0.074-0.084-0.11
		c-0.171-0.222-0.348-0.438-0.53-0.647c-0.286-0.327-0.591-0.624-0.904-0.904c-0.074-0.067-0.151-0.13-0.228-0.195
		c-0.261-0.222-0.528-0.429-0.803-0.621c-0.063-0.045-0.126-0.093-0.19-0.136c-0.342-0.229-0.691-0.439-1.047-0.625
		c-0.024-0.013-0.05-0.024-0.075-0.037c-0.327-0.169-0.659-0.318-0.992-0.453c-0.079-0.032-0.158-0.063-0.238-0.093
		c-0.318-0.122-0.637-0.23-0.955-0.323c-0.041-0.012-0.083-0.027-0.124-0.039c-0.359-0.101-0.717-0.183-1.07-0.25
		c-0.072-0.014-0.144-0.023-0.216-0.036c-0.274-0.047-0.544-0.084-0.811-0.112c-0.098-0.01-0.196-0.021-0.293-0.029
		c-0.276-0.022-0.546-0.035-0.81-0.038c-0.06-0.001-0.121-0.004-0.181-0.004c-0.276,0.001-0.542,0.016-0.799,0.037
		c-0.896,0.076-1.662,0.267-2.204,0.544l5.262,23.233c0.162,0.472,0.297,0.956,0.398,1.453c0.206,1.014,0.258,2.027,0.186,3.028
		c0.026,0.595,0.04,1.336,0.047,2.078c2.449,6.712,3.875,13.62,4.27,20.468c0.004-0.005,0.01-0.009,0.015-0.014
		c0.03,0.521,0.034,1.04,0.053,1.56c0.009,0.255,0.02,0.509,0.025,0.764c0.014,0.595,0.021,1.188,0.019,1.782
		c-0.001,0.304-0.009,0.605-0.014,0.909c-0.016,0.975-0.054,1.946-0.113,2.916c-0.021,0.36-0.04,0.721-0.067,1.08
		c-0.04,0.517-0.09,1.031-0.143,1.546c-0.041,0.413-0.089,0.825-0.139,1.237c-0.059,0.48-0.113,0.962-0.183,1.44
		c-0.112,0.779-0.239,1.555-0.38,2.327c-0.078,0.425-0.166,0.847-0.252,1.27c-0.102,0.498-0.208,0.994-0.322,1.489
		c-0.092,0.403-0.184,0.806-0.284,1.206c-0.201,0.806-0.415,1.606-0.649,2.401c-0.089,0.304-0.189,0.604-0.284,0.906
		c-0.184,0.592-0.375,1.182-0.578,1.768c-0.117,0.339-0.236,0.677-0.359,1.015c-0.249,0.681-0.511,1.356-0.784,2.027
		c-0.092,0.226-0.181,0.452-0.275,0.677c-0.327,0.773-0.674,1.538-1.033,2.297c-0.132,0.278-0.268,0.554-0.404,0.829
		c-0.315,0.64-0.643,1.272-0.982,1.9c-0.11,0.205-0.216,0.412-0.329,0.615c-0.443,0.798-0.908,1.585-1.391,2.363
		c-0.133,0.215-0.272,0.426-0.408,0.639c-0.397,0.622-0.807,1.236-1.229,1.845c-0.144,0.206-0.284,0.414-0.431,0.619
		c-0.545,0.764-1.108,1.518-1.695,2.259c-0.106,0.135-0.22,0.267-0.328,0.401c-0.506,0.627-1.026,1.244-1.562,1.853
		c-0.175,0.198-0.349,0.396-0.526,0.593c-0.65,0.72-1.314,1.431-2.007,2.124c-1.139,1.139-2.323,2.199-3.534,3.223
		c-0.062,0.062-0.115,0.127-0.179,0.188c-0.04,0.04-0.082,0.076-0.122,0.116c-0.621,0.617-1.254,1.216-1.896,1.799
		c-0.249,0.226-0.503,0.44-0.755,0.661c-0.446,0.392-0.896,0.779-1.353,1.155c-0.291,0.239-0.586,0.473-0.881,0.706
		c-0.434,0.342-0.87,0.678-1.312,1.006c-0.306,0.228-0.612,0.454-0.922,0.676c-0.456,0.325-0.918,0.639-1.382,0.949
		c-0.297,0.199-0.591,0.402-0.891,0.596c-0.58,0.372-1.167,0.729-1.758,1.079c-0.209,0.124-0.415,0.255-0.625,0.376
		c-0.739,0.426-1.488,0.833-2.244,1.225c-0.31,0.161-0.625,0.311-0.938,0.465c-0.496,0.246-0.993,0.49-1.496,0.722
		c-0.352,0.162-0.706,0.316-1.061,0.472c-0.477,0.208-0.956,0.41-1.438,0.606c-0.362,0.146-0.724,0.291-1.088,0.43
		c-0.499,0.191-1.001,0.372-1.504,0.549c-0.348,0.123-0.694,0.248-1.045,0.364c-0.603,0.2-1.21,0.385-1.819,0.565
		c-0.253,0.075-0.503,0.158-0.756,0.229c-0.842,0.237-1.689,0.455-2.541,0.657c-0.319,0.075-0.642,0.14-0.962,0.21
		c-0.563,0.124-1.128,0.245-1.696,0.354c-0.367,0.07-0.736,0.133-1.104,0.196c-0.532,0.092-1.066,0.179-1.602,0.257
		c-0.375,0.055-0.75,0.106-1.126,0.155c-0.551,0.07-1.104,0.131-1.657,0.188c-0.355,0.036-0.71,0.075-1.066,0.105
		c-0.649,0.055-1.301,0.096-1.953,0.132c-0.26,0.014-0.519,0.036-0.778,0.047c-0.897,0.038-1.797,0.058-2.698,0.06
		c-0.052,0.001-0.103,0.004-0.154,0.004c-0.713,0-1.429-0.014-2.144-0.036c-0.115-0.004-0.23-0.011-0.346-0.016
		c-0.653-0.024-1.307-0.057-1.961-0.101c-0.229-0.015-0.458-0.033-0.687-0.051c-0.555-0.042-1.11-0.091-1.665-0.146
		c-0.241-0.023-0.481-0.048-0.722-0.075c-0.594-0.065-1.187-0.141-1.78-0.222c-0.181-0.024-0.361-0.046-0.542-0.072
		c-0.78-0.113-1.561-0.237-2.34-0.378c-0.079-0.014-0.157-0.03-0.235-0.045c-0.69-0.126-1.38-0.264-2.069-0.41
		c-0.225-0.048-0.45-0.101-0.675-0.15c-0.554-0.124-1.106-0.254-1.659-0.392c-0.243-0.06-0.485-0.121-0.727-0.184
		c-0.575-0.149-1.148-0.307-1.721-0.471c-0.195-0.056-0.391-0.108-0.585-0.166c-0.772-0.228-1.542-0.466-2.311-0.72
		c-0.019-0.007-0.038-0.014-0.057-0.02c-0.735-0.244-1.469-0.503-2.2-0.771c-0.216-0.08-0.432-0.163-0.648-0.245
		c-0.543-0.205-1.085-0.416-1.625-0.635c-0.242-0.098-0.483-0.197-0.725-0.298c-0.54-0.225-1.078-0.458-1.615-0.696
		c-0.213-0.095-0.426-0.187-0.639-0.283c-0.74-0.338-1.477-0.684-2.21-1.047c-0.562,0.033-1.126,0.049-1.692,0.05
		c-0.019,0-0.038,0.002-0.057,0.002c-1.069,0-2.143-0.059-3.219-0.172c-0.145-0.015-0.29-0.038-0.435-0.055
		c-0.398-0.048-0.795-0.098-1.193-0.16c-0.191-0.03-0.381-0.068-0.572-0.103c-0.351-0.062-0.702-0.124-1.052-0.197
		c-0.213-0.045-0.425-0.098-0.638-0.147c-0.327-0.076-0.654-0.152-0.98-0.238c-0.225-0.061-0.45-0.126-0.674-0.191
		c-0.312-0.089-0.623-0.181-0.933-0.279c-0.232-0.074-0.463-0.154-0.694-0.233c-0.301-0.104-0.602-0.211-0.902-0.323
		c-0.234-0.088-0.467-0.181-0.7-0.274c-0.294-0.118-0.588-0.24-0.881-0.368c-0.233-0.102-0.466-0.205-0.698-0.312
		c-0.289-0.134-0.577-0.272-0.864-0.415c-0.23-0.114-0.461-0.23-0.69-0.351c-0.285-0.149-0.567-0.306-0.849-0.464
		c-0.226-0.126-0.451-0.253-0.675-0.385c-0.284-0.168-0.564-0.344-0.845-0.521c-0.216-0.136-0.433-0.27-0.646-0.411
		c-0.287-0.189-0.569-0.388-0.852-0.587c-0.202-0.143-0.406-0.281-0.606-0.429c-0.298-0.219-0.59-0.449-0.883-0.679
		c-0.178-0.14-0.359-0.274-0.535-0.419c-0.334-0.272-0.662-0.559-0.989-0.846c-0.129-0.113-0.261-0.22-0.388-0.336
		c-0.455-0.41-0.903-0.834-1.342-1.272c-2.518-2.519-4.562-5.31-6.15-8.249c-0.657-1.216-1.241-2.456-1.737-3.716
		c-1.74-4.415-2.492-9.043-2.229-13.52c-2.188-4.419-3.897-8.975-5.146-13.585c-4.737-17.479-2.694-35.75,6.385-50.482
		c0.147-0.238,0.285-0.481,0.436-0.717c0.742-1.165,1.538-2.301,2.369-3.417c0.158-0.211,0.307-0.428,0.468-0.638
		c0.315-0.412,0.648-0.814,0.977-1.219c0.196-0.242,0.383-0.489,0.584-0.729c0.479-0.572,0.977-1.135,1.482-1.691
		c0.06-0.065,0.115-0.134,0.174-0.199c0.368-0.403,0.754-0.794,1.136-1.188c0.207-0.213,0.405-0.432,0.616-0.643l0,0l0,0
		c0.058-0.058,0.12-0.111,0.178-0.168c1.027-1.213,2.09-2.404,3.232-3.545c0.081-0.081,0.167-0.154,0.249-0.235
		c0.669-0.661,1.347-1.307,2.041-1.929c0.283-0.254,0.577-0.491,0.864-0.738c0.506-0.436,1.01-0.873,1.528-1.288
		c0.333-0.267,0.674-0.518,1.012-0.776c0.487-0.373,0.972-0.747,1.468-1.103c0.359-0.257,0.726-0.501,1.09-0.75
		c0.489-0.333,0.978-0.666,1.475-0.982c0.377-0.241,0.76-0.47,1.142-0.702c0.497-0.301,0.995-0.598,1.499-0.883
		c0.392-0.221,0.787-0.434,1.183-0.646c0.507-0.271,1.017-0.536,1.531-0.792c0.402-0.2,0.806-0.395,1.213-0.585
		c0.521-0.244,1.045-0.479,1.573-0.708c0.408-0.177,0.817-0.351,1.229-0.519c0.537-0.218,1.078-0.425,1.622-0.628
		c0.411-0.153,0.822-0.307,1.237-0.451c0.558-0.194,1.12-0.374,1.683-0.551c0.408-0.128,0.814-0.26,1.225-0.38
		c0.586-0.171,1.177-0.325,1.769-0.479c0.396-0.103,0.789-0.212,1.187-0.307c0.635-0.151,1.276-0.283,1.917-0.415
		c0.359-0.074,0.716-0.157,1.078-0.225c0.781-0.146,1.568-0.269,2.356-0.386c0.225-0.033,0.448-0.077,0.674-0.108
		c1.015-0.14,2.036-0.254,3.06-0.346c0.273-0.024,0.55-0.035,0.824-0.056c0.752-0.057,1.504-0.111,2.26-0.143
		c0.391-0.016,0.784-0.017,1.176-0.026c0.535-0.013,1.069-0.036,1.605-0.036c0.115,0,0.231,0.006,0.346,0.007
		c0.33,0.002,0.66,0.013,0.99,0.02c0.668,0.014,1.336,0.033,2.006,0.066c0.381,0.019,0.762,0.043,1.143,0.068
		c0.624,0.042,1.249,0.093,1.874,0.151c0.398,0.037,0.795,0.074,1.193,0.118c0.627,0.07,1.255,0.154,1.883,0.241
		c0.382,0.053,0.765,0.099,1.147,0.158c0.934,0.146,1.867,0.308,2.8,0.492c0.498,0.098,0.994,0.215,1.492,0.324
		c0.471,0.104,0.942,0.203,1.413,0.316c0.572,0.137,1.143,0.289,1.713,0.44c0.381,0.101,0.762,0.203,1.141,0.311
		c0.617,0.174,1.233,0.358,1.848,0.55c0.302,0.094,0.604,0.192,0.904,0.291c0.68,0.221,1.357,0.447,2.033,0.689
		c0.117,0.042,0.232,0.087,0.349,0.13c3.376,1.228,6.699,2.716,9.943,4.458c0.049,0.026,0.098,0.052,0.146,0.079
		c6.545,3.533,12.76,8.091,18.366,13.697c2.399,2.4,4.597,4.917,6.618,7.516l-9.36-30.64c-0.1-0.494-0.172-5.848-0.069-6.309
		c0,0,0-0.001,0.001-0.001c0-0.042,0.011-0.083,0.013-0.124c0.018-0.378,0.089-0.748,0.223-1.093c0.445-1.152,1.491-2.06,2.846-2.31
		c0.264-0.049,0.521-0.07,0.772-0.073c0.015,0,0.029-0.004,0.043-0.004c0.203,0,0.402,0.015,0.601,0.044
		c0.01,0.001,0.02,0.005,0.029,0.007c0.205,0.032,0.407,0.082,0.609,0.145c0.065,0.021,0.13,0.05,0.195,0.074
		c0.146,0.053,0.291,0.111,0.437,0.181c0.074,0.036,0.149,0.078,0.225,0.119c0.136,0.073,0.272,0.153,0.408,0.241
		c0.076,0.049,0.153,0.1,0.229,0.154c0.138,0.097,0.276,0.202,0.415,0.313c0.073,0.058,0.146,0.115,0.22,0.177
		c0.151,0.128,0.304,0.269,0.457,0.413c0.062,0.059,0.123,0.112,0.186,0.173c0.216,0.212,0.434,0.437,0.656,0.68
		c2.171,2.645,8.254,7.149,13.056,8.544c0.289,0.084,0.594,0.199,0.912,0.343c0.093,0.042,0.194,0.104,0.289,0.152
		c0.23,0.114,0.459,0.225,0.7,0.368c0.1,0.059,0.206,0.136,0.307,0.2c0.245,0.153,0.489,0.304,0.741,0.484
		c0.093,0.066,0.189,0.148,0.282,0.218c0.267,0.199,0.534,0.397,0.806,0.622c0.072,0.061,0.146,0.133,0.22,0.196
		c0.294,0.251,0.59,0.507,0.886,0.788c0.059,0.056,0.118,0.121,0.177,0.179c0.311,0.3,0.62,0.608,0.928,0.938
		c0.053,0.056,0.103,0.12,0.155,0.176c0.312,0.342,0.624,0.692,0.929,1.062c0.046,0.056,0.09,0.118,0.136,0.174
		c0.308,0.38,0.613,0.769,0.909,1.176c0.035,0.05,0.068,0.104,0.104,0.153c0.301,0.421,0.597,0.851,0.879,1.297
		c0.035,0.055,0.066,0.115,0.101,0.17c0.278,0.446,0.55,0.901,0.805,1.37c0.032,0.06,0.06,0.123,0.091,0.182
		c0.251,0.471,0.492,0.948,0.715,1.437c0.029,0.065,0.052,0.133,0.081,0.198c0.216,0.489,0.423,0.983,0.605,1.488
		c0.028,0.08,0.049,0.163,0.077,0.243c0.173,0.495,0.336,0.993,0.472,1.5c0.024,0.093,0.039,0.188,0.062,0.281
		c0.126,0.499,0.242,1,0.328,1.508c0.019,0.108,0.023,0.219,0.04,0.328c0.075,0.496,0.142,0.994,0.175,1.497
		c0.008,0.122-0.001,0.245,0.005,0.367c0.021,0.47,0.039,0.939,0.02,1.413c0.004,0.139,0.013,0.273,0.013,0.413c0,0,0,0.001,0,0.002
		S172.911,57.417,172.911,57.418L172.911,57.418z"/>
</g>
<g id="outline_x5F_black">
	<path d="M178.902,56.997c0.391-12.675-10.086-24.183-17.266-26.269c-3.395-0.986-8.535-4.692-10.092-6.589
		c-0.066-0.08-0.135-0.159-0.204-0.236c-1.832-2.009-4.769-4.679-9.101-4.679c-0.633,0-1.274,0.06-1.91,0.178
		c-4.555,0.839-7.904,4.741-7.986,9.292c-0.162,2.385-0.002,6.707,0.189,7.643c0.037,0.187,0.085,0.372,0.141,0.554l2.595,8.493
		c-13.858-10.092-30.36-15.728-46.845-15.728c-18.109,0-34.804,6.722-47.009,18.928c-1.073,1.073-2.17,2.27-3.347,3.65
		c-0.033,0.032-0.065,0.064-0.098,0.097C27.746,62.556,21.392,75.855,19.63,90.758c-1.646,13.919,0.804,28.258,7.088,41.564
		C26.574,142.711,30.866,153,38.64,160.775c7.579,7.58,17.776,11.926,27.979,11.926c0.157,0,0.316-0.002,0.475-0.004
		c10.525,4.965,21.956,7.582,33.161,7.582c18.054,0,34.697-6.701,46.864-18.869c0.021-0.021,0.046-0.045,0.072-0.072
		c1.373-1.17,2.564-2.264,3.639-3.336c18.779-18.779,23.406-46.862,14.516-72.378c-0.006-0.322-0.013-0.638-0.022-0.929
		c0.081-1.46-0.024-2.919-0.312-4.343c-0.127-0.623-0.293-1.253-0.494-1.879l-3.102-13.692c0.876,1.219,1.646,2.822,2.286,4.152
		c1.288,2.681,3.053,6.352,7.366,6.352c1.1,0,4.812-0.368,6.465-5.102c0.388-1.11,0.72-2.542,1.076-4.644
		c0.27-1.592,0.302-8.058,0.302-8.122C178.911,57.275,178.907,57.136,178.902,56.997z M172.911,57.418
		c0,0.815-0.078,6.296-0.218,7.119c-0.008,0.043-0.015,0.077-0.021,0.12c-0.059,0.34-0.116,0.658-0.173,0.956
		c-0.02,0.104-0.039,0.202-0.06,0.302c-0.045,0.229-0.09,0.445-0.134,0.647c-0.021,0.093-0.041,0.187-0.061,0.274
		c-0.05,0.216-0.1,0.416-0.148,0.6c-0.012,0.045-0.024,0.097-0.036,0.14c-0.06,0.216-0.118,0.407-0.177,0.579
		c-0.019,0.053-0.037,0.097-0.055,0.146c-0.042,0.113-0.084,0.218-0.126,0.31c-0.021,0.047-0.043,0.092-0.064,0.134
		c-0.041,0.081-0.083,0.15-0.125,0.212c-0.019,0.027-0.037,0.06-0.056,0.084c-0.058,0.074-0.116,0.131-0.175,0.169
		c-0.018,0.012-0.035,0.015-0.054,0.023c-0.043,0.021-0.086,0.036-0.13,0.04c-0.011,0-0.021,0.009-0.031,0.009
		c-0.014,0-0.027-0.011-0.041-0.012c-0.043-0.005-0.086-0.018-0.129-0.038c-0.023-0.01-0.047-0.018-0.07-0.032
		c-0.062-0.038-0.124-0.088-0.188-0.152c-0.026-0.025-0.053-0.06-0.078-0.09c-0.043-0.049-0.087-0.101-0.131-0.161
		c-0.032-0.043-0.065-0.09-0.099-0.14c-0.04-0.059-0.081-0.124-0.122-0.19c-0.034-0.055-0.068-0.108-0.104-0.168
		c-0.064-0.112-0.132-0.232-0.2-0.36c-0.052-0.097-0.105-0.203-0.159-0.308c-0.023-0.046-0.047-0.092-0.071-0.139
		c-0.592-1.174-1.3-2.776-2.213-4.37c-0.012-0.021-0.024-0.042-0.036-0.063c-0.283-0.491-0.585-0.979-0.909-1.453
		c-0.021-0.029-0.041-0.058-0.062-0.087c-0.141-0.203-0.285-0.402-0.435-0.598c-0.027-0.037-0.056-0.074-0.084-0.11
		c-0.171-0.222-0.348-0.438-0.53-0.647c-0.286-0.327-0.591-0.624-0.904-0.904c-0.074-0.067-0.151-0.13-0.228-0.195
		c-0.261-0.222-0.528-0.429-0.803-0.621c-0.063-0.045-0.126-0.093-0.19-0.136c-0.342-0.229-0.691-0.439-1.047-0.625
		c-0.024-0.013-0.05-0.024-0.075-0.037c-0.327-0.169-0.659-0.318-0.992-0.453c-0.079-0.032-0.158-0.063-0.238-0.093
		c-0.318-0.122-0.637-0.23-0.955-0.323c-0.041-0.012-0.083-0.027-0.124-0.039c-0.359-0.101-0.717-0.183-1.07-0.25
		c-0.072-0.014-0.144-0.023-0.216-0.036c-0.274-0.047-0.544-0.084-0.811-0.112c-0.098-0.01-0.196-0.021-0.293-0.029
		c-0.276-0.022-0.546-0.035-0.81-0.038c-0.07-0.001-0.143-0.003-0.213-0.003c-0.249,0.002-0.49,0.013-0.723,0.031
		c-0.133,0.011-0.258,0.027-0.385,0.043c-0.119,0.015-0.236,0.03-0.35,0.048c-0.137,0.023-0.269,0.049-0.396,0.078
		c-0.086,0.019-0.168,0.041-0.249,0.062c-0.132,0.036-0.264,0.071-0.384,0.113c-0.044,0.015-0.081,0.034-0.123,0.05
		c-0.127,0.049-0.253,0.098-0.362,0.154l5.262,23.233c0.162,0.472,0.297,0.956,0.398,1.453c0.206,1.014,0.258,2.027,0.186,3.028
		c0.026,0.595,0.04,1.336,0.047,2.078c1.454,3.986,2.54,8.042,3.271,12.113c0.002-0.003,0.004-0.005,0.006-0.008
		c0.018,0.096,0.027,0.192,0.044,0.289c0.412,2.346,0.704,4.695,0.874,7.04c0.009,0.111,0.019,0.222,0.026,0.333
		c0.078,1.16,0.126,2.318,0.146,3.475c0.002,0.126,0.002,0.252,0.004,0.378c0.026,2.362-0.071,4.713-0.295,7.041
		c-0.01,0.104-0.018,0.208-0.028,0.312c-0.114,1.138-0.26,2.269-0.434,3.395c-0.021,0.128-0.042,0.255-0.062,0.384
		c-0.367,2.276-0.856,4.525-1.47,6.736c-0.036,0.128-0.069,0.256-0.106,0.384c-0.303,1.067-0.636,2.124-0.997,3.171
		c-0.052,0.149-0.105,0.297-0.158,0.445c-0.751,2.122-1.622,4.2-2.612,6.227c-0.075,0.154-0.149,0.31-0.226,0.463
		c-0.484,0.969-0.996,1.924-1.536,2.867c-0.095,0.165-0.192,0.328-0.288,0.492c-1.128,1.924-2.371,3.791-3.733,5.592
		c-0.121,0.161-0.241,0.323-0.364,0.483c-0.664,0.858-1.354,1.7-2.071,2.527c-0.138,0.158-0.28,0.314-0.42,0.473
		c-0.755,0.85-1.528,1.688-2.342,2.501c-1.139,1.139-2.323,2.199-3.534,3.223c-0.062,0.062-0.115,0.127-0.179,0.188
		c-0.04,0.04-0.082,0.076-0.122,0.116c-0.621,0.617-1.254,1.216-1.896,1.799c-0.249,0.226-0.503,0.44-0.755,0.661
		c-0.446,0.392-0.896,0.779-1.353,1.155c-0.291,0.239-0.586,0.473-0.881,0.706c-0.434,0.342-0.87,0.678-1.312,1.006
		c-0.306,0.228-0.612,0.454-0.922,0.676c-0.456,0.325-0.918,0.639-1.382,0.949c-0.297,0.199-0.591,0.402-0.891,0.596
		c-0.58,0.372-1.167,0.729-1.758,1.079c-0.209,0.124-0.415,0.255-0.625,0.376c-0.739,0.426-1.488,0.833-2.244,1.225
		c-0.31,0.161-0.625,0.311-0.938,0.465c-0.496,0.246-0.993,0.49-1.496,0.722c-0.352,0.162-0.706,0.316-1.061,0.472
		c-0.477,0.208-0.956,0.41-1.438,0.606c-0.362,0.146-0.724,0.291-1.088,0.43c-0.499,0.191-1.001,0.372-1.504,0.549
		c-0.348,0.123-0.694,0.248-1.045,0.364c-0.603,0.2-1.21,0.385-1.819,0.565c-0.253,0.075-0.503,0.158-0.756,0.229
		c-0.842,0.237-1.689,0.455-2.541,0.657c-0.319,0.075-0.642,0.14-0.962,0.21c-0.563,0.124-1.128,0.245-1.696,0.354
		c-0.367,0.07-0.736,0.133-1.104,0.196c-0.532,0.092-1.066,0.179-1.602,0.257c-0.375,0.055-0.75,0.106-1.126,0.155
		c-0.551,0.07-1.104,0.131-1.657,0.188c-0.355,0.036-0.71,0.075-1.066,0.105c-0.649,0.055-1.301,0.096-1.953,0.132
		c-0.26,0.014-0.519,0.036-0.778,0.047c-0.897,0.038-1.797,0.058-2.698,0.06c-0.052,0.001-0.103,0.004-0.154,0.004
		c-0.713,0-1.429-0.014-2.144-0.036c-0.115-0.004-0.23-0.011-0.346-0.016c-0.653-0.024-1.307-0.057-1.961-0.101
		c-0.229-0.015-0.458-0.033-0.687-0.051c-0.555-0.042-1.11-0.091-1.665-0.146c-0.241-0.023-0.481-0.048-0.722-0.075
		c-0.594-0.065-1.187-0.141-1.78-0.222c-0.181-0.024-0.361-0.046-0.542-0.072c-0.78-0.113-1.561-0.237-2.34-0.378
		c-0.079-0.014-0.157-0.03-0.235-0.045c-0.69-0.126-1.38-0.264-2.069-0.41c-0.225-0.048-0.45-0.101-0.675-0.15
		c-0.554-0.124-1.106-0.254-1.659-0.392c-0.243-0.06-0.485-0.121-0.727-0.184c-0.575-0.149-1.148-0.307-1.721-0.471
		c-0.195-0.056-0.391-0.108-0.585-0.166c-0.772-0.228-1.542-0.466-2.311-0.72c-0.019-0.007-0.038-0.014-0.057-0.02
		c-0.735-0.244-1.469-0.503-2.2-0.771c-0.216-0.08-0.432-0.163-0.648-0.245c-0.543-0.205-1.085-0.416-1.625-0.635
		c-0.242-0.098-0.483-0.197-0.725-0.298c-0.54-0.225-1.078-0.458-1.615-0.696c-0.213-0.095-0.426-0.187-0.639-0.283
		c-0.74-0.338-1.477-0.684-2.21-1.047c-0.562,0.033-1.126,0.049-1.692,0.05c-0.019,0-0.038,0.002-0.057,0.002
		c-1.069,0-2.145-0.059-3.221-0.172c-0.137-0.015-0.273-0.036-0.409-0.052c-0.407-0.049-0.813-0.1-1.22-0.163
		c-0.182-0.029-0.364-0.066-0.546-0.098c-0.36-0.063-0.72-0.128-1.08-0.204c-0.203-0.043-0.406-0.093-0.609-0.14
		c-0.338-0.078-0.676-0.158-1.013-0.247c-0.213-0.057-0.425-0.119-0.637-0.18c-0.326-0.094-0.651-0.189-0.976-0.293
		c-0.217-0.07-0.433-0.145-0.65-0.219c-0.318-0.109-0.635-0.222-0.951-0.341c-0.218-0.082-0.436-0.168-0.653-0.255
		c-0.312-0.125-0.623-0.255-0.932-0.39c-0.217-0.095-0.433-0.191-0.649-0.291c-0.307-0.142-0.613-0.289-0.917-0.44
		c-0.213-0.106-0.426-0.214-0.638-0.325c-0.304-0.159-0.605-0.325-0.906-0.494c-0.208-0.117-0.415-0.233-0.621-0.354
		c-0.304-0.18-0.604-0.367-0.904-0.557c-0.197-0.124-0.395-0.246-0.59-0.375c-0.307-0.203-0.61-0.416-0.913-0.63
		c-0.183-0.129-0.368-0.255-0.549-0.388c-0.318-0.233-0.63-0.479-0.942-0.725c-0.16-0.126-0.322-0.247-0.481-0.376
		c-0.352-0.287-0.697-0.587-1.041-0.89c-0.113-0.1-0.229-0.193-0.341-0.295c-0.456-0.412-0.905-0.836-1.345-1.276
		c-2.518-2.519-4.562-5.31-6.15-8.249c-0.657-1.216-1.241-2.456-1.737-3.716c-1.74-4.415-2.492-9.043-2.229-13.52
		c-2.188-4.419-3.897-8.975-5.146-13.585c-4.737-17.479-2.694-35.75,6.385-50.482c0.147-0.238,0.285-0.481,0.436-0.717
		c0.742-1.165,1.538-2.301,2.369-3.417c0.158-0.211,0.307-0.428,0.468-0.638c0.315-0.412,0.648-0.814,0.977-1.219
		c0.196-0.242,0.383-0.489,0.584-0.729c0.479-0.572,0.977-1.135,1.482-1.691c0.06-0.065,0.115-0.134,0.174-0.199
		c0.368-0.403,0.754-0.794,1.136-1.188c0.207-0.213,0.405-0.432,0.616-0.643l0,0l0,0c0.058-0.058,0.12-0.111,0.178-0.168
		c1.027-1.213,2.09-2.404,3.232-3.545c0.081-0.081,0.167-0.154,0.249-0.235c0.669-0.661,1.347-1.307,2.041-1.929
		c0.283-0.254,0.577-0.491,0.864-0.738c0.506-0.436,1.01-0.873,1.528-1.288c0.333-0.267,0.674-0.518,1.012-0.776
		c0.487-0.373,0.972-0.747,1.468-1.103c0.359-0.257,0.726-0.501,1.09-0.75c0.489-0.333,0.978-0.666,1.475-0.982
		c0.377-0.241,0.76-0.47,1.142-0.702c0.497-0.301,0.995-0.598,1.499-0.883c0.392-0.221,0.787-0.434,1.183-0.646
		c0.507-0.271,1.017-0.536,1.531-0.792c0.402-0.2,0.806-0.395,1.213-0.585c0.521-0.244,1.045-0.479,1.573-0.708
		c0.408-0.177,0.817-0.351,1.229-0.519c0.537-0.218,1.078-0.425,1.622-0.628c0.411-0.153,0.822-0.307,1.237-0.451
		c0.558-0.194,1.12-0.374,1.683-0.551c0.408-0.128,0.814-0.26,1.225-0.38c0.586-0.171,1.177-0.325,1.769-0.479
		c0.396-0.103,0.789-0.212,1.187-0.307c0.635-0.151,1.276-0.283,1.917-0.415c0.359-0.074,0.716-0.157,1.078-0.225
		c0.781-0.146,1.568-0.269,2.356-0.386c0.225-0.033,0.448-0.077,0.674-0.108c1.015-0.14,2.036-0.254,3.06-0.346
		c0.273-0.024,0.55-0.035,0.824-0.056c0.752-0.057,1.504-0.111,2.26-0.143c0.391-0.016,0.784-0.017,1.176-0.026
		c0.535-0.013,1.069-0.036,1.605-0.036c0.103,0,0.205,0.007,0.308,0.007c0.559,0.002,1.118,0.024,1.678,0.041
		c0.523,0.016,1.046,0.024,1.57,0.052c0.566,0.03,1.132,0.079,1.698,0.123c0.519,0.041,1.037,0.074,1.557,0.126
		c0.575,0.058,1.151,0.135,1.727,0.207c0.511,0.064,1.021,0.121,1.532,0.196c0.587,0.087,1.174,0.194,1.761,0.296
		c0.497,0.086,0.995,0.165,1.491,0.262c0.606,0.118,1.211,0.258,1.815,0.393c0.477,0.106,0.953,0.203,1.428,0.319
		c0.627,0.153,1.252,0.328,1.877,0.499c0.451,0.123,0.902,0.236,1.352,0.368c0.649,0.19,1.296,0.404,1.942,0.613
		c0.422,0.137,0.845,0.263,1.266,0.407c0.674,0.231,1.343,0.486,2.013,0.738c0.39,0.146,0.78,0.283,1.169,0.436
		c0.701,0.277,1.396,0.578,2.092,0.877c0.353,0.151,0.706,0.292,1.057,0.449c0.732,0.328,1.458,0.682,2.183,1.035
		c0.309,0.15,0.62,0.29,0.928,0.444c0.768,0.387,1.528,0.8,2.288,1.216c0.258,0.141,0.52,0.272,0.777,0.417
		c0.804,0.452,1.6,0.93,2.393,1.414c0.207,0.126,0.418,0.243,0.624,0.372c0.844,0.525,1.677,1.078,2.507,1.64
		c0.15,0.102,0.304,0.195,0.453,0.298c0.893,0.614,1.774,1.253,2.648,1.909c0.082,0.062,0.167,0.119,0.25,0.181
		c2.898,2.193,5.691,4.615,8.349,7.271c2.399,2.4,4.597,4.917,6.618,7.516l-9.36-30.64c-0.1-0.494-0.172-5.848-0.069-6.309
		c0,0,0-0.001,0.001-0.001c0-0.042,0.011-0.083,0.013-0.124c0.018-0.378,0.089-0.748,0.223-1.093c0.445-1.152,1.491-2.06,2.846-2.31
		c0.264-0.049,0.521-0.07,0.772-0.073c0.015,0,0.029-0.004,0.043-0.004c0.203,0,0.402,0.015,0.601,0.044
		c0.01,0.001,0.02,0.005,0.029,0.007c0.205,0.032,0.407,0.082,0.609,0.145c0.065,0.021,0.13,0.05,0.195,0.074
		c0.146,0.053,0.291,0.111,0.437,0.181c0.074,0.036,0.149,0.078,0.225,0.119c0.136,0.073,0.272,0.153,0.408,0.241
		c0.076,0.049,0.153,0.1,0.229,0.154c0.138,0.097,0.276,0.202,0.415,0.313c0.073,0.058,0.146,0.115,0.22,0.177
		c0.151,0.128,0.304,0.269,0.457,0.413c0.062,0.059,0.123,0.112,0.186,0.173c0.216,0.212,0.434,0.437,0.656,0.68
		c2.171,2.645,8.254,7.149,13.056,8.544c0.289,0.084,0.594,0.199,0.912,0.343c0.093,0.042,0.194,0.104,0.289,0.152
		c0.23,0.114,0.459,0.225,0.7,0.368c0.1,0.059,0.206,0.136,0.307,0.2c0.245,0.153,0.489,0.304,0.741,0.484
		c0.093,0.066,0.189,0.148,0.282,0.218c0.267,0.199,0.534,0.397,0.806,0.622c0.072,0.061,0.146,0.133,0.22,0.196
		c0.294,0.251,0.59,0.507,0.886,0.788c0.059,0.056,0.118,0.121,0.177,0.179c0.311,0.3,0.62,0.608,0.928,0.938
		c0.053,0.056,0.103,0.12,0.155,0.176c0.312,0.342,0.624,0.692,0.929,1.062c0.046,0.056,0.09,0.118,0.136,0.174
		c0.308,0.38,0.613,0.769,0.909,1.176c0.035,0.05,0.068,0.104,0.104,0.153c0.301,0.421,0.597,0.851,0.879,1.297
		c0.035,0.055,0.066,0.115,0.101,0.17c0.278,0.446,0.55,0.901,0.805,1.37c0.032,0.06,0.06,0.123,0.091,0.182
		c0.251,0.471,0.492,0.948,0.715,1.437c0.029,0.065,0.052,0.133,0.081,0.198c0.216,0.489,0.423,0.983,0.605,1.488
		c0.028,0.08,0.049,0.163,0.077,0.243c0.173,0.495,0.336,0.993,0.472,1.5c0.024,0.093,0.039,0.188,0.062,0.281
		c0.126,0.499,0.242,1,0.328,1.508c0.019,0.108,0.023,0.219,0.04,0.328c0.075,0.496,0.142,0.994,0.175,1.497
		c0.008,0.122-0.001,0.245,0.005,0.367c0.021,0.47,0.039,0.939,0.02,1.413c0.004,0.139,0.013,0.273,0.013,0.413c0,0,0,0.001,0,0.002
		S172.911,57.417,172.911,57.418L172.911,57.418z"/>
</g>
</svg>
