<?xml version="1.0" encoding="utf-8"?>
<!-- Generator: Adobe Illustrator 15.0.0, SVG Export Plug-In . SVG Version: 6.00 Build 0)  -->
<!DOCTYPE svg PUBLIC "-//W3C//DTD SVG 1.1//EN" "http://www.w3.org/Graphics/SVG/1.1/DTD/svg11.dtd">
<svg version="1.1" xmlns="http://www.w3.org/2000/svg" xmlns:xlink="http://www.w3.org/1999/xlink" x="0px" y="0px" width="200px"
	 height="200px" viewBox="0 0 200 200" enable-background="new 0 0 200 200" xml:space="preserve">
<g id="icon">
	<g id="Layer_2">
	</g>
	<g>
		
			<linearGradient id="SVGID_1_" gradientUnits="userSpaceOnUse" x1="171.9541" y1="34.9863" x2="84.5781" y2="-85.7592" gradientTransform="matrix(1 0 0 -1 -50 61)">
			<stop  offset="0" style="stop-color:#703800"/>
			<stop  offset="0.1902" style="stop-color:#A65200"/>
			<stop  offset="0.2943" style="stop-color:#A75402"/>
			<stop  offset="0.3506" style="stop-color:#AA590A"/>
			<stop  offset="0.3955" style="stop-color:#AE6218"/>
			<stop  offset="0.4344" style="stop-color:#B56F2B"/>
			<stop  offset="0.469" style="stop-color:#BE8044"/>
			<stop  offset="0.4847" style="stop-color:#C38952"/>
			<stop  offset="0.5767" style="stop-color:#BE8044"/>
			<stop  offset="0.5811" style="stop-color:#BC7D40"/>
			<stop  offset="0.6097" style="stop-color:#B46D28"/>
			<stop  offset="0.6425" style="stop-color:#AE6116"/>
			<stop  offset="0.6816" style="stop-color:#A95809"/>
			<stop  offset="0.7332" style="stop-color:#A75302"/>
			<stop  offset="0.8466" style="stop-color:#A65200"/>
			<stop  offset="0.8856" style="stop-color:#A15000"/>
			<stop  offset="0.9317" style="stop-color:#934900"/>
			<stop  offset="0.981" style="stop-color:#7B3D00"/>
			<stop  offset="1" style="stop-color:#703800"/>
		</linearGradient>
		<path fill="url(#SVGID_1_)" d="M133.893,84.766c1.762,10.188-5.166,22.628-15.479,27.785l-46.018,63.627
			c0,0-44.722-32.365-47.587-35.826c-1.957-2.362-2.877-6.05-2.382-10.789l4.408-54.391c1.22-11.551,10.576-24.297,20.898-28.47
			l56.881-22.128c5.16-2.086,8.279-1.795,12.24,0.228c3.961,2.023,49.563,29.337,49.563,29.337L133.893,84.766z"/>
		
			<linearGradient id="SVGID_2_" gradientUnits="userSpaceOnUse" x1="109.7393" y1="-257.7319" x2="224.9326" y2="-257.7319" gradientTransform="matrix(0.9662 -0.3906 -0.011 -1.0306 -42.6874 -88.1224)">
			<stop  offset="0" style="stop-color:#703800"/>
			<stop  offset="0.1902" style="stop-color:#A65200"/>
			<stop  offset="0.7521" style="stop-color:#A65200"/>
			<stop  offset="0.8466" style="stop-color:#A65200"/>
			<stop  offset="0.8856" style="stop-color:#A15000"/>
			<stop  offset="0.9317" style="stop-color:#934900"/>
			<stop  offset="0.981" style="stop-color:#7B3D00"/>
			<stop  offset="1" style="stop-color:#703800"/>
		</linearGradient>
		<path fill="url(#SVGID_2_)" d="M177.218,105.688c1.824,10.533-1.321,21.291-11.983,26.623l-81.572,42.506
			c-10.662,5.332-18.281-0.133-17.021-12.207l4.625-56.67c1.26-11.942,10.934-25.121,21.607-29.435l59.123-23.034
			c10.672-4.314,18.891,0.941,20.717,11.637L177.218,105.688z"/>
		
			<linearGradient id="SVGID_3_" gradientUnits="userSpaceOnUse" x1="160.9883" y1="-8.6426" x2="182.6499" y2="-125.1821" gradientTransform="matrix(1 0 0 -1 -50 61)">
			<stop  offset="0" style="stop-color:#FFEDC2"/>
			<stop  offset="1" style="stop-color:#C9904D"/>
		</linearGradient>
		<path fill="url(#SVGID_3_)" d="M162.55,126.943c8.285-4.144,10.111-12.238,8.765-20.188l-4.496-40.527l-0.01-0.056l-0.011-0.056
			c-0.853-4.987-4.396-8.085-9.25-8.085c-1.682,0-3.437,0.364-5.215,1.084L95.12,82.067c-8.656,3.499-16.84,14.7-17.887,24.474
			l-4.621,56.637l-0.002,0.027l-0.004,0.025c-0.32,3.069,0.125,5.609,1.193,6.793c0.322,0.358,0.908,0.836,2.264,0.836
			c0.955,0,2.584-0.245,4.912-1.41L162.55,126.943z"/>
		<path fill="#231F20" d="M163.82,94.61l-1.575-19.659c-0.604-4.99-2.062-8.025-8.562-8.025c-1.988,0-3.234,0.396-5.168,1.18
			L98.392,89.3c-7.014,2.88-12.693,10.566-13.523,18.318l-1.371,16.139l-0.035,0.401c-0.34,4.02-0.635,8.543,2.344,12.146
			c3.734,4.519,10.305,2.601,12.449,1.543l55.344-26.076l2.537-1.438C161.475,107.492,164.393,101.8,163.82,94.61z"/>
		
			<linearGradient id="SVGID_4_" gradientUnits="userSpaceOnUse" x1="169.4463" y1="-17.7231" x2="192.4464" y2="-99.7232" gradientTransform="matrix(1 0 0 -1 -50 61)">
			<stop  offset="0" style="stop-color:#FFEDC2"/>
			<stop  offset="1" style="stop-color:#C9904D"/>
		</linearGradient>
		<polygon fill="url(#SVGID_4_)" points="84.788,107.182 162.087,73.852 162.37,76.531 84.349,110.493 		"/>
		
			<linearGradient id="SVGID_5_" gradientUnits="userSpaceOnUse" x1="170.2334" y1="-17.5029" x2="193.2318" y2="-99.4973" gradientTransform="matrix(1 0 0 -1 -50 61)">
			<stop  offset="0" style="stop-color:#FFEDC2"/>
			<stop  offset="1" style="stop-color:#C9904D"/>
		</linearGradient>
		<polygon fill="url(#SVGID_5_)" points="83.694,100.255 160.995,66.926 161.277,69.605 83.255,103.566 		"/>
		
			<linearGradient id="SVGID_6_" gradientUnits="userSpaceOnUse" x1="167.7754" y1="-18.1934" x2="190.7755" y2="-100.1934" gradientTransform="matrix(1 0 0 -1 -50 61)">
			<stop  offset="0" style="stop-color:#FFEDC2"/>
			<stop  offset="1" style="stop-color:#C9904D"/>
		</linearGradient>
		<polygon fill="url(#SVGID_6_)" points="83.431,114.82 163.749,80.152 164.032,82.831 82.991,118.133 		"/>
		
			<linearGradient id="SVGID_7_" gradientUnits="userSpaceOnUse" x1="166.0088" y1="-18.6895" x2="189.0074" y2="-100.684" gradientTransform="matrix(1 0 0 -1 -50 61)">
			<stop  offset="0" style="stop-color:#FFEDC2"/>
			<stop  offset="1" style="stop-color:#C9904D"/>
		</linearGradient>
		<polygon fill="url(#SVGID_7_)" points="83.431,121.613 163.749,86.945 164.032,89.625 82.991,124.926 		"/>
		
			<linearGradient id="SVGID_8_" gradientUnits="userSpaceOnUse" x1="164.2744" y1="-21.9756" x2="187.2745" y2="-103.9756" gradientTransform="matrix(1 -0.0043 0 -1 -50 59.1243)">
			<stop  offset="0" style="stop-color:#FFEDC2"/>
			<stop  offset="1" style="stop-color:#C9904D"/>
		</linearGradient>
		<polygon fill="url(#SVGID_8_)" points="82.185,128.996 164.911,92.951 165.193,95.629 81.745,132.311 		"/>
		
			<linearGradient id="SVGID_9_" gradientUnits="userSpaceOnUse" x1="161.7139" y1="-36.2085" x2="184.7184" y2="-118.2244" gradientTransform="matrix(1.0008 -0.0215 0 -0.9992 -49.7037 47.5336)">
			<stop  offset="0" style="stop-color:#FFEDC2"/>
			<stop  offset="1" style="stop-color:#C9904D"/>
		</linearGradient>
		<polygon fill="url(#SVGID_9_)" points="82.181,136.984 164.973,99.545 165.255,102.216 81.741,140.305 		"/>
		
			<linearGradient id="SVGID_10_" gradientUnits="userSpaceOnUse" x1="86.6992" y1="5.6592" x2="107.1992" y2="-12.8408" gradientTransform="matrix(1 0 0 -1 -50 61)">
			<stop  offset="0" style="stop-color:#FFEDC2"/>
			<stop  offset="1" style="stop-color:#C9904D"/>
		</linearGradient>
		<polygon fill="url(#SVGID_10_)" points="98.265,140.719 152.779,115.331 151.234,128.877 98.315,155.709 		"/>
		<g>
			
				<linearGradient id="SVGID_11_" gradientUnits="userSpaceOnUse" x1="146.1289" y1="-82.7207" x2="172.0799" y2="-133.7576" gradientTransform="matrix(1 0 0 -1 -50 61)">
				<stop  offset="0" style="stop-color:#703800"/>
				<stop  offset="0.1902" style="stop-color:#A65200"/>
				<stop  offset="0.7521" style="stop-color:#A65200"/>
				<stop  offset="0.8466" style="stop-color:#A65200"/>
				<stop  offset="0.8856" style="stop-color:#A15000"/>
				<stop  offset="0.9317" style="stop-color:#934900"/>
				<stop  offset="0.981" style="stop-color:#7B3D00"/>
				<stop  offset="1" style="stop-color:#703800"/>
			</linearGradient>
			<path fill="url(#SVGID_11_)" d="M104.331,144.538c-0.218,4.164-3.258,8.757-6.795,10.257c-3.537,1.501-6.229-0.658-6.014-4.822
				c0.217-4.164,3.258-8.757,6.795-10.258C101.854,138.215,104.546,140.373,104.331,144.538z"/>
			
				<linearGradient id="SVGID_12_" gradientUnits="userSpaceOnUse" x1="149.6182" y1="-81.7256" x2="142.2122" y2="-99.8091" gradientTransform="matrix(1 0 0 -1 -50 61)">
				<stop  offset="0" style="stop-color:#FFFFFF"/>
				<stop  offset="1" style="stop-color:#000000"/>
			</linearGradient>
			<path fill="url(#SVGID_12_)" d="M104.266,142.59c-0.188,3.61-5.384,11.166-8.45,12.467c0,0-0.951-0.742-1.885-1.387
				c-1.047-0.725-1.654-2.148-1.555-4.059c0.186-3.611,2.822-7.592,5.889-8.894c1.447-0.614,2.73-0.522,3.665,0.125
				C102.975,141.57,104.266,142.59,104.266,142.59z"/>
			
				<linearGradient id="SVGID_13_" gradientUnits="userSpaceOnUse" x1="148.4531" y1="-84.7324" x2="170.9512" y2="-128.9786" gradientTransform="matrix(1 0 0 -1 -50 61)">
				<stop  offset="0" style="stop-color:#FFFFFF"/>
				<stop  offset="1" style="stop-color:#000000"/>
			</linearGradient>
			<path fill="url(#SVGID_13_)" d="M105.562,146.439c-0.187,3.61-2.822,7.593-5.892,8.894c-3.064,1.302-5.398-0.571-5.213-4.181
				c0.188-3.611,2.824-7.592,5.891-8.894C103.415,140.958,105.749,142.83,105.562,146.439z"/>
		</g>
		<g>
			
				<linearGradient id="SVGID_14_" gradientUnits="userSpaceOnUse" x1="200.4629" y1="-57.083" x2="225.9161" y2="-107.141" gradientTransform="matrix(1 0 0 -1 -50 61)">
				<stop  offset="0" style="stop-color:#703800"/>
				<stop  offset="0.1902" style="stop-color:#A65200"/>
				<stop  offset="0.7521" style="stop-color:#A65200"/>
				<stop  offset="0.8466" style="stop-color:#A65200"/>
				<stop  offset="0.8856" style="stop-color:#A15000"/>
				<stop  offset="0.9317" style="stop-color:#934900"/>
				<stop  offset="0.981" style="stop-color:#7B3D00"/>
				<stop  offset="1" style="stop-color:#703800"/>
			</linearGradient>
			<path fill="url(#SVGID_14_)" d="M158.505,118.885c-0.211,4.083-3.192,8.588-6.662,10.059c-3.469,1.473-6.108-0.646-5.897-4.729
				c0.213-4.083,3.195-8.587,6.664-10.059S158.718,114.8,158.505,118.885z"/>
			
				<linearGradient id="SVGID_15_" gradientUnits="userSpaceOnUse" x1="203.8828" y1="-56.1064" x2="196.6195" y2="-73.8416" gradientTransform="matrix(1 0 0 -1 -50 61)">
				<stop  offset="0" style="stop-color:#FFFFFF"/>
				<stop  offset="1" style="stop-color:#000000"/>
			</linearGradient>
			<path fill="url(#SVGID_15_)" d="M158.439,116.975c-0.184,3.539-5.276,10.95-8.285,12.227c0,0-0.934-0.729-1.848-1.36
				c-1.027-0.711-1.623-2.106-1.527-3.979c0.185-3.541,2.771-7.445,5.777-8.721c1.418-0.604,2.676-0.514,3.592,0.123
				C157.175,115.973,158.439,116.975,158.439,116.975z"/>
			
				<linearGradient id="SVGID_16_" gradientUnits="userSpaceOnUse" x1="202.7412" y1="-59.0547" x2="224.8086" y2="-102.4539" gradientTransform="matrix(1 0 0 -1 -50 61)">
				<stop  offset="0" style="stop-color:#FFFFFF"/>
				<stop  offset="1" style="stop-color:#000000"/>
			</linearGradient>
			<path fill="url(#SVGID_16_)" d="M159.714,120.75c-0.185,3.541-2.771,7.445-5.776,8.721c-3.006,1.276-5.295-0.56-5.113-4.101
				c0.184-3.54,2.77-7.445,5.777-8.722C157.607,115.373,159.896,117.209,159.714,120.75z"/>
		</g>
		
			<linearGradient id="SVGID_17_" gradientUnits="userSpaceOnUse" x1="112.2021" y1="-356.3506" x2="127.1485" y2="-369.8386" gradientTransform="matrix(1 -0.4813 0 -1 -50 -196.1459)">
			<stop  offset="0" style="stop-color:#703800"/>
			<stop  offset="0.1902" style="stop-color:#A65200"/>
			<stop  offset="0.7521" style="stop-color:#A65200"/>
			<stop  offset="0.8466" style="stop-color:#A65200"/>
			<stop  offset="0.8856" style="stop-color:#A15000"/>
			<stop  offset="0.9317" style="stop-color:#934900"/>
			<stop  offset="0.981" style="stop-color:#7B3D00"/>
			<stop  offset="1" style="stop-color:#703800"/>
		</linearGradient>
		<path fill="url(#SVGID_17_)" d="M140.896,126.721c0,0.797-0.646,1.752-1.441,2.135l-26.111,12.568
			c-0.795,0.385-1.441,0.049-1.441-0.747v-0.925c0-0.797,0.646-1.752,1.441-2.135l26.111-12.568
			c0.797-0.383,1.441-0.049,1.441,0.746V126.721z"/>
	</g>
</g>
<g id="outline_x5F_black_1_">
	<g>
		<g>
			<path fill="#FFFFFF" d="M110.82,23.141c2.062,0,3.93,0.586,6.033,1.661c3.604,1.84,41.683,24.618,48.515,28.708
				c0.237,0.131,0.471,0.273,0.7,0.42c0.226,0.135,0.351,0.209,0.351,0.209l-0.017,0.016c3.218,2.206,5.459,5.98,6.31,10.953
				l4.506,40.58c1.824,10.533-1.321,21.291-11.983,26.623l-81.572,42.506c-2.771,1.387-5.337,2.043-7.595,2.043
				c-2.868,0-5.24-1.061-6.903-3.026c-10.316-7.498-41.96-30.588-44.355-33.479c-1.957-2.363-2.877-6.051-2.382-10.789l4.408-54.392
				c1.22-11.551,10.576-24.297,20.898-28.47l56.881-22.128C107.032,23.597,109.002,23.141,110.82,23.141 M110.82,11.141
				c-3.385,0-6.764,0.724-10.626,2.276L43.382,35.519c-0.049,0.019-0.098,0.039-0.147,0.058
				c-14.463,5.847-26.644,22.327-28.334,38.335c-0.01,0.097-0.02,0.194-0.027,0.291l-4.398,54.265
				c-0.991,9.864,2.216,16.066,5.09,19.537c1.316,1.591,3.513,4.245,45.619,34.862c3.881,3.877,9.101,5.99,14.882,5.99
				c4.211,0,8.572-1.113,12.964-3.312c0.059-0.028,0.117-0.06,0.176-0.09l81.492-42.463c14.17-7.138,21.197-22.033,18.408-38.968
				l-4.469-40.243c-0.025-0.233-0.059-0.466-0.099-0.697c-1.313-7.69-5.038-14.126-10.528-18.24
				c-0.46-0.375-0.949-0.719-1.468-1.026l-0.188-0.113c-0.256-0.161-0.59-0.365-0.974-0.583
				c-13.636-8.163-45.34-27.105-49.069-29.01C118.339,12.086,114.688,11.141,110.82,11.141L110.82,11.141z"/>
		</g>
	</g>
</g>
<g id="outline_x5F_black">
	<g>
		<path d="M110.82,23.141c2.062,0,3.93,0.586,6.033,1.661c3.604,1.84,41.683,24.618,48.515,28.708c0.237,0.131,0.471,0.273,0.7,0.42
			c0.226,0.135,0.351,0.209,0.351,0.209l-0.017,0.016c3.218,2.206,5.459,5.98,6.31,10.953l4.506,40.58
			c1.824,10.533-1.321,21.291-11.983,26.623l-81.572,42.506c-2.771,1.387-5.337,2.043-7.595,2.043c-2.868,0-5.24-1.061-6.903-3.026
			c-10.316-7.498-41.96-30.588-44.355-33.479c-1.957-2.363-2.877-6.051-2.382-10.789l4.408-54.392
			c1.22-11.551,10.576-24.297,20.898-28.47l56.881-22.128C107.032,23.597,109.002,23.141,110.82,23.141 M110.82,17.141
			c-2.602,0-5.275,0.589-8.416,1.854L45.558,41.11c-0.024,0.01-0.049,0.019-0.073,0.029c-12.354,4.994-23.166,19.666-24.617,33.402
			c-0.005,0.048-0.01,0.097-0.014,0.145l-4.403,54.325c-0.634,6.206,0.657,11.449,3.736,15.167
			c0.834,1.008,3.048,3.682,44.94,34.139c2.78,2.936,6.633,4.541,10.939,4.541c3.271,0,6.729-0.899,10.279-2.676
			c0.029-0.016,0.059-0.031,0.088-0.046l81.531-42.483c11.978-6.014,17.647-18.264,15.197-32.803l-4.487-40.405
			c-0.013-0.117-0.029-0.233-0.049-0.349c-1.078-6.312-3.955-11.325-8.333-14.539c-0.252-0.213-0.522-0.407-0.812-0.579l-0.268-0.16
			c-0.218-0.137-0.516-0.321-0.848-0.508c-10.633-6.364-45.113-26.979-48.784-28.854C116.486,17.877,113.703,17.141,110.82,17.141
			L110.82,17.141z"/>
	</g>
</g>
</svg>
