<?xml version="1.0" encoding="utf-8"?>
<!-- Generator: Adobe Illustrator 15.0.0, SVG Export Plug-In . SVG Version: 6.00 Build 0)  -->
<!DOCTYPE svg PUBLIC "-//W3C//DTD SVG 1.1//EN" "http://www.w3.org/Graphics/SVG/1.1/DTD/svg11.dtd">
<svg version="1.1" id="Layer_1" xmlns="http://www.w3.org/2000/svg" xmlns:xlink="http://www.w3.org/1999/xlink" x="0px" y="0px"
	 width="200px" height="200px" viewBox="0 0 200 200" enable-background="new 0 0 200 200" xml:space="preserve">
<g id="icon">
	<g id="Layer_2">
	</g>
	<g>
		
			<radialGradient id="SVGID_1_" cx="200" cy="690.998" r="95.2412" gradientTransform="matrix(1 0 0 1 -100 -591)" gradientUnits="userSpaceOnUse">
			<stop  offset="0" style="stop-color:#FF7000;stop-opacity:0"/>
			<stop  offset="0.1129" style="stop-color:#FF7505;stop-opacity:0.1897"/>
			<stop  offset="0.2519" style="stop-color:#FF8413;stop-opacity:0.4233"/>
			<stop  offset="0.4047" style="stop-color:#FF9D2B;stop-opacity:0.6801"/>
			<stop  offset="0.5663" style="stop-color:#FFC04C;stop-opacity:0.9517"/>
			<stop  offset="0.5951" style="stop-color:#FFC753"/>
			<stop  offset="0.7358" style="stop-color:#FFBC31;stop-opacity:0.6526"/>
			<stop  offset="0.9078" style="stop-color:#FFB10E;stop-opacity:0.2276"/>
			<stop  offset="1" style="stop-color:#FFAD00;stop-opacity:0"/>
		</radialGradient>
		<circle fill="url(#SVGID_1_)" cx="100" cy="99.998" r="95.241"/>
		<path fill="#FFFFFF" d="M111.457,169.309c-2.389,0-4.382-0.049-5.357-0.076c-21.483-0.629-41.45-18.334-49.678-44.061
			l-20.89-65.316l27.389-10.054l15.576-0.776l20.721,64.773c0.319,0.999,3.228,9.459,11.478,14.499
			c11.466-8.022,6.162-25.1,6.104-25.278L95.909,37.695L123.3,27.642l15.574-0.778l20.72,64.781
			c10.25,32.048-1.607,65.53-26.435,74.64c-1.767,0.645-3.599,1.164-5.454,1.546C124.831,168.812,119.368,169.309,111.457,169.309z"
			/>
		<g>
			
				<radialGradient id="SVGID_2_" cx="8166.2617" cy="5655.3438" r="83.4575" gradientTransform="matrix(-0.4462 0.2708 -0.0696 -0.8706 4135.6543 2835.9822)" gradientUnits="userSpaceOnUse">
				<stop  offset="0" style="stop-color:#B30000"/>
				<stop  offset="1" style="stop-color:#920000"/>
			</radialGradient>
			<path fill="url(#SVGID_2_)" d="M49.7,94.303l17.885-10.349l9.58,29.958c4.166,13.027,22.033,22.099,31.991,18.441
				c9.955-3.653,14.669-17.225,10.501-30.25l-9.579-29.959l17.881-10.349l9.577,29.957c9.771,30.535,12.69,64.622-10.647,73.186
				c-4.295,1.576-16.289,1.426-20.701,1.295c-19.542-0.57-38.938-17.061-46.908-41.976L49.7,94.303z"/>
			
				<linearGradient id="SVGID_3_" gradientUnits="userSpaceOnUse" x1="5969.1855" y1="4927.251" x2="6021.9375" y2="4927.251" gradientTransform="matrix(-0.6808 0.2499 -0.2848 -0.8909 5548.0781 2964.6162)">
				<stop  offset="0" style="stop-color:#BDD0DD"/>
				<stop  offset="1" style="stop-color:#7997C2"/>
			</linearGradient>
			<polygon fill="url(#SVGID_3_)" points="62.515,93.663 76.343,52.137 63.526,52.775 39.266,61.681 49.7,94.303 			"/>
			<polygon fill="#FFFFFF" points="52.085,61.039 76.343,52.137 63.526,52.775 39.266,61.681 			"/>
			
				<linearGradient id="SVGID_4_" gradientUnits="userSpaceOnUse" x1="5880.499" y1="4927.2461" x2="5933.2539" y2="4927.2461" gradientTransform="matrix(-0.6808 0.2499 -0.2848 -0.8909 5548.0781 2964.6162)">
				<stop  offset="0" style="stop-color:#BDD0DD"/>
				<stop  offset="1" style="stop-color:#7997C2"/>
			</linearGradient>
			<polygon fill="url(#SVGID_4_)" points="110.078,72.145 122.893,71.506 136.721,29.975 123.904,30.615 99.643,39.521 			"/>
			<polygon fill="#FFFFFF" points="112.457,38.881 136.721,29.975 123.904,30.615 99.643,39.521 			"/>
		</g>
		
			<linearGradient id="SVGID_5_" gradientUnits="userSpaceOnUse" x1="4489.4854" y1="-350.4463" x2="4585.0781" y2="-350.4463" gradientTransform="matrix(1.0175 -0.4831 0.7146 0.7864 -4240.8296 2582.8552)">
			<stop  offset="0" style="stop-color:#FF0600"/>
			<stop  offset="1" style="stop-color:#DB0100"/>
		</linearGradient>
		<path fill="url(#SVGID_5_)" d="M62.515,93.663L86.78,84.76l9.58,29.953c4.166,13.032,15.656,20.661,25.613,17.003
			c9.954-3.653,14.67-17.225,10.502-30.254l-9.582-29.956l24.262-8.903l9.582,29.956c9.766,30.531-1.271,62.345-24.609,70.909
			c-8.716,3.198-17.936,2.71-26.568-0.752c-14.485-5.807-27.343-19.967-33.458-39.099L62.515,93.663z"/>
		<polygon fill="#FFFFFF" points="86.78,84.76 76.343,52.137 52.085,61.039 62.515,93.663 		"/>
		<polygon fill="#FFFFFF" points="122.893,71.506 147.154,62.603 136.721,29.975 112.457,38.881 		"/>
	</g>
</g>
<g id="outline_x5F_white">
	<g>
		<g>
			<path fill="#FFFFFF" d="M136.721,29.975l10.437,32.628l9.579,29.956c9.767,30.531-1.271,62.345-24.608,70.909
				c-1.728,0.63-3.468,1.113-5.226,1.466c-0.002,0.002-0.01,0.004-0.014,0.004c-3.07,1.127-10.074,1.371-15.432,1.371
				c-2.137,0-4.012-0.039-5.27-0.076c-19.544-0.569-38.939-17.06-46.91-41.975L49.7,94.303L39.266,61.681l24.261-8.905l12.816-0.639
				L86.78,84.76l9.58,29.953c0.826,2.584,4.59,11.965,14.419,17.076c12.871-7.335,10.882-23.428,8.878-29.686l-9.579-29.959
				L99.643,39.521l24.263-8.905L136.721,29.975 M136.725,17.975c-0.201,0-0.4,0.005-0.604,0.015l-12.814,0.641
				c-1.207,0.06-2.397,0.303-3.535,0.72l-24.263,8.905c-6.037,2.216-9.254,8.796-7.295,14.921L98.65,75.802l9.579,29.958
				c0.022,0.071,1.213,4.031,0.832,8.1c-0.854-1.541-1.231-2.688-1.27-2.799l-9.58-29.955L87.772,48.48
				c-1.597-4.989-6.232-8.343-11.425-8.343c-0.2,0-0.4,0.005-0.603,0.015L62.929,40.79c-1.208,0.061-2.401,0.303-3.537,0.72
				l-24.261,8.905c-6.037,2.216-9.254,8.796-7.295,14.921l10.435,32.623l9.579,29.954c9.389,29.354,32.692,49.575,57.987,50.313
				c1.248,0.037,3.241,0.082,5.62,0.082c10.898,0,15.773-0.892,18.598-1.776c2.104-0.458,4.182-1.06,6.188-1.792
				c14.749-5.411,26.086-17.682,31.939-34.555c5.5-15.848,5.493-34.061-0.016-51.284l-9.581-29.957l-10.437-32.628
				C146.555,21.329,141.917,17.975,136.725,17.975L136.725,17.975z"/>
		</g>
	</g>
</g>
<g id="outline_x5F_black">
	<path d="M136.721,29.975l10.437,32.628l9.579,29.956c9.767,30.531-1.271,62.345-24.608,70.909c-1.728,0.63-3.468,1.113-5.226,1.466
		c-0.002,0.002-0.01,0.004-0.014,0.004c-3.07,1.127-10.074,1.371-15.432,1.371c-2.137,0-4.012-0.039-5.27-0.076
		c-19.544-0.569-38.939-17.06-46.91-41.975L49.7,94.303L39.266,61.681l24.261-8.905l12.816-0.639L86.78,84.76l9.58,29.953
		c0.826,2.584,4.59,11.965,14.419,17.076c12.871-7.335,10.882-23.428,8.878-29.686l-9.579-29.959L99.643,39.521l24.263-8.905
		L136.721,29.975 M141.029,23.751l-4.609,0.23l-12.814,0.641l-0.91,0.046l-0.855,0.314l-24.263,8.905l-5.399,1.982l1.752,5.479
		l10.436,32.624l9.577,29.959c0.05,0.147,4.17,13.409-3.414,20.633c-6.006-4.496-8.191-10.869-8.451-11.681l-9.58-29.954
		l-10.44-32.621l-1.406-4.394l-4.607,0.229l-12.816,0.639l-0.912,0.045l-0.856,0.315L37.2,56.048l-5.399,1.982l1.752,5.479
		l10.435,32.622l9.579,29.954c4.195,13.117,11.408,24.456,20.86,32.789c9.403,8.292,20.622,13.035,31.587,13.354
		c1.211,0.037,3.141,0.08,5.445,0.08c11.475,0,15.514-1.06,17.062-1.584c1.928-0.408,3.83-0.951,5.664-1.621
		c13.018-4.776,23.073-15.744,28.33-30.888c5.073-14.627,5.053-31.489-0.062-47.487l-9.581-29.956l-10.437-32.628L141.029,23.751
		L141.029,23.751z"/>
</g>
</svg>
