<?xml version="1.0" encoding="utf-8"?>
<!-- Generator: Adobe Illustrator 15.0.0, SVG Export Plug-In . SVG Version: 6.00 Build 0)  -->
<!DOCTYPE svg PUBLIC "-//W3C//DTD SVG 1.1//EN" "http://www.w3.org/Graphics/SVG/1.1/DTD/svg11.dtd">
<svg version="1.1" xmlns="http://www.w3.org/2000/svg" xmlns:xlink="http://www.w3.org/1999/xlink" x="0px" y="0px" width="200px"
	 height="200px" viewBox="0 0 200 200" enable-background="new 0 0 200 200" xml:space="preserve">
<g id="icon">
	<g id="Layer_2">
	</g>
	<g>
		
			<linearGradient id="SVGID_1_" gradientUnits="userSpaceOnUse" x1="1249.2588" y1="303.8066" x2="1281.6997" y2="259.8019" gradientTransform="matrix(0.791 0.5919 0.467 -0.9148 -1036.1715 -398.1185)">
			<stop  offset="0" style="stop-color:#FFFFFF"/>
			<stop  offset="1" style="stop-color:#6E6E6E"/>
		</linearGradient>
		<path fill="url(#SVGID_1_)" d="M68.261,16.043c-9.516,23.204,28.229,38.976,40.033,55.809c4.279,6.103,4.485,13.914,4.45,21.042
			c-0.021,4.652,0.078,8.301,0.843,12.747c-4.909-5.991-0.661-17.723-4.022-26.646c-4.405-11.693-26.083-25.606-39.013-38.493
			c-0.63,5.432-0.499,12.443,3.501,16.213c3.778,3.559,11.534,8.729,15.743,12.16c7.391,6.023,11.612,9.521,14.409,14.943
			c3.71,7.194,2.904,18.913,6.145,22.605c-2.785-1.413-3.348-3.407-4.053-6.929c-1.084-5.423-1.148-12.53-6.881-18.894
			c-6.146-6.818-15.728-13.493-25.153-20.267c-0.008,4.948-1.452,11.402,1.971,15.727c2.036,2.572,5.821,4.678,8.947,6.975
			c4.99,3.665,10.771,6.596,14.135,10.948c3.884,5.027,3.359,6.505,4.686,11.558c0.867,3.143,1.451,4.895,1.451,4.895
			c3.169,7.098,19.459,9.543,15.395,3.687c-7.332-9.171-5.416-20.598-4.438-30.069c0.87-8.402,4.991-28.268-6.55-36.885
			C96.3,37.048,83.419,28.064,68.261,16.043z"/>
		<g>
			
				<radialGradient id="SVGID_2_" cx="185.7783" cy="-32.7671" r="90.9928" gradientTransform="matrix(1 0 0 -1 -49.8359 60.876)" gradientUnits="userSpaceOnUse">
				<stop  offset="0.4479" style="stop-color:#A65200"/>
				<stop  offset="0.6602" style="stop-color:#A45100"/>
				<stop  offset="0.7367" style="stop-color:#9D4E00"/>
				<stop  offset="0.7912" style="stop-color:#924800"/>
				<stop  offset="0.835" style="stop-color:#814000"/>
				<stop  offset="0.865" style="stop-color:#703800"/>
				<stop  offset="1" style="stop-color:#7F3F00"/>
			</radialGradient>
			<path fill="url(#SVGID_2_)" d="M57.379,64.164c0.615,18.988-0.99,7.817,2.891,24.77c1.783,7.79,1.614,8.982-0.225,17.315
				c-1.838,8.332-2.346,15.271-1.313,22.133c1.033,6.861,3.781,8.095,3.781,8.095s16.89,8.078,20.305,10.529
				c3.414,2.451,11.881,12.254,23.473,18.626c11.593,6.372,51.916,14.099,68.373-1.227c0,0,0.699-7.403-2.543-11.376
				c-7.854-9.617-30.611-24.564-34.98-27.415c0,0-2.013-4.357-4.818-7.042c-2.159-2.064-8.665-5.943-8.665-5.943
				s-1.134-3.184-2.177-4.906c-0.914-1.506-3.678-4.691-3.678-4.691c-1.544-3.48-2.527-7.165-2.566-10.917
				c-0.172-15.685,2.466-29.82,2.466-33.678C117.7,44.141,56.644,52.034,57.379,64.164z"/>
		</g>
		<g>
			<linearGradient id="SVGID_3_" gradientUnits="userSpaceOnUse" x1="87.5366" y1="68.5" x2="87.5366" y2="86.0082">
				<stop  offset="0" style="stop-color:#562100"/>
				<stop  offset="1" style="stop-color:#562100;stop-opacity:0"/>
			</linearGradient>
			<path fill="url(#SVGID_3_)" d="M116.514,71.163c0.603-6.157,1.188-10.91,1.188-12.728c0-14.295-61.057-6.402-60.321,5.729
				c0,0,0.186-2.827,0.576,4.218C71.511,75.666,103.163,80.185,116.514,71.163z"/>
		</g>
		
			<radialGradient id="SVGID_4_" cx="1073.6982" cy="-392.9932" r="64.2865" gradientTransform="matrix(0.6035 0.2142 0.2591 -0.7298 -420.1792 -443.9342)" gradientUnits="userSpaceOnUse">
			<stop  offset="0" style="stop-color:#A65200"/>
			<stop  offset="0.1717" style="stop-color:#9B4C00"/>
			<stop  offset="0.473" style="stop-color:#7E3D00"/>
			<stop  offset="0.8659" style="stop-color:#4F2500"/>
			<stop  offset="1" style="stop-color:#3D1C00"/>
		</radialGradient>
		<path opacity="0.44" fill="url(#SVGID_4_)" enable-background="new    " d="M123.775,112.801c0,0-5.557-0.768-14.104,4.209
			c-7.533,4.389-11.122,7.274-11.122,7.274s8.621-8.507,16.583-11.45C121.332,110.541,123.775,112.801,123.775,112.801z"/>
		
			<radialGradient id="SVGID_5_" cx="747.8477" cy="84.7266" r="36.7208" gradientTransform="matrix(0.9424 0.3345 0.3345 -0.9424 -616.665 -97.671)" gradientUnits="userSpaceOnUse">
			<stop  offset="0" style="stop-color:#A65200"/>
			<stop  offset="0.1717" style="stop-color:#9B4C00"/>
			<stop  offset="0.473" style="stop-color:#7E3D00"/>
			<stop  offset="0.8659" style="stop-color:#4F2500"/>
			<stop  offset="1" style="stop-color:#3D1C00"/>
		</radialGradient>
		<path opacity="0.44" fill="url(#SVGID_5_)" enable-background="new    " d="M117.802,103.03c0,0-7.165-1.816-16.456,2.575
			c-6.007,2.84-7.25,3.84-7.25,3.84s5.334-5.192,12.36-7.051C114.658,100.225,117.802,103.03,117.802,103.03z"/>
		
			<radialGradient id="SVGID_6_" cx="714.8154" cy="131.1416" r="42.6159" gradientTransform="matrix(0.9119 0.2735 0.3028 -1.0059 -555.3587 25.7908)" gradientUnits="userSpaceOnUse">
			<stop  offset="0" style="stop-color:#A65200"/>
			<stop  offset="0.1717" style="stop-color:#9B4C00"/>
			<stop  offset="0.473" style="stop-color:#7E3D00"/>
			<stop  offset="0.8659" style="stop-color:#4F2500"/>
			<stop  offset="1" style="stop-color:#3D1C00"/>
		</radialGradient>
		<path opacity="0.44" fill="url(#SVGID_6_)" enable-background="new    " d="M138.008,126.217c0,0-5.828-2.662-16.048,3.413
			c-6.278,3.734-9.663,6.332-9.663,6.332s5.232-6.507,15.286-10.278C135.411,122.747,138.008,126.217,138.008,126.217z"/>
		<g>
			
				<radialGradient id="SVGID_7_" cx="137.9521" cy="97.0381" r="34.7507" gradientTransform="matrix(1 0 0 -1.3704 -50 176.8132)" gradientUnits="userSpaceOnUse">
				<stop  offset="0.4479" style="stop-color:#C28B62"/>
				<stop  offset="0.6972" style="stop-color:#C18A60"/>
				<stop  offset="0.787" style="stop-color:#BC8459"/>
				<stop  offset="0.851" style="stop-color:#B47B4E"/>
				<stop  offset="0.9028" style="stop-color:#A86E3D"/>
				<stop  offset="0.9471" style="stop-color:#995D27"/>
				<stop  offset="0.9857" style="stop-color:#87480C"/>
				<stop  offset="1" style="stop-color:#7F3F00"/>
			</radialGradient>
			<path fill="url(#SVGID_7_)" d="M120.54,63.479c0.854-11.169,2.135-11.96,2.135-14.863c0-16.651-71.126-17.411-70.27-3.28
				c0,0,0.414,4.221,1.304,16.198C63.931,71.317,109.956,78.988,120.54,63.479z"/>
		</g>
		
			<radialGradient id="SVGID_8_" cx="152.292" cy="-445.6318" r="32.6614" gradientTransform="matrix(0.9984 0.0629 0.0151 -0.3048 -57.3414 -99.4561)" gradientUnits="userSpaceOnUse">
			<stop  offset="0.6933" style="stop-color:#562100"/>
			<stop  offset="1" style="stop-color:#562100;stop-opacity:0"/>
		</radialGradient>
		<path fill="url(#SVGID_8_)" d="M123.154,47.121c0,7.458-15.709,10.543-35.153,10.543c-19.446,0-35.152-6.413-35.152-13.872
			c0-6.139,15.122-9.096,34.568-9.096C106.861,34.697,123.154,42.2,123.154,47.121z"/>
		
			<radialGradient id="SVGID_9_" cx="138.334" cy="15.3252" r="24.8581" gradientTransform="matrix(1 0 0 -1 -50 61)" gradientUnits="userSpaceOnUse">
			<stop  offset="0.4479" style="stop-color:#924E00"/>
			<stop  offset="0.5836" style="stop-color:#8E4B00"/>
			<stop  offset="0.7234" style="stop-color:#814200"/>
			<stop  offset="0.8646" style="stop-color:#6D3200"/>
			<stop  offset="0.9816" style="stop-color:#562100"/>
		</radialGradient>
		<path fill="url(#SVGID_9_)" d="M115.958,46.845c0,5.268-12.492,7.446-27.957,7.446c-15.466,0-27.956-4.529-27.956-9.797
			c0-4.336,12.025-6.425,27.491-6.425C103.001,38.069,115.958,43.37,115.958,46.845z"/>
		
			<linearGradient id="SVGID_10_" gradientUnits="userSpaceOnUse" x1="137.4492" y1="4.0771" x2="138.0782" y2="16.866" gradientTransform="matrix(1 0 0 -1 -50 61)">
			<stop  offset="0" style="stop-color:#562100"/>
			<stop  offset="1" style="stop-color:#562100;stop-opacity:0"/>
		</linearGradient>
		<path fill="url(#SVGID_10_)" d="M115.958,46.845c0,5.268-12.492,7.446-27.957,7.446c-15.466,0-27.956-4.529-27.956-9.797
			c0-4.336,12.025-6.425,27.491-6.425C103.001,38.069,115.958,43.37,115.958,46.845z"/>
		<path fill="#050001" d="M23.594,38.069c-10.076,21.826,29.429,32.438,41.73,46.484c4.462,5.091,4.645,12.114,4.575,18.543
			c-0.043,4.193,0.051,7.477,0.83,11.409c-5.122-4.93-0.619-15.912-4.103-23.634c-4.568-10.12-27.236-20.592-40.735-30.973
			c-0.685,4.956-0.577,11.265,3.602,14.28c3.945,2.848,12.053,6.767,16.454,9.457c7.72,4.724,12.132,7.473,15.039,12.093
			c3.857,6.131,2.965,16.772,6.345,19.792c-2.915-1.009-3.494-2.752-4.219-5.859c-1.112-4.782-1.149-11.185-7.131-16.372
			c-6.415-5.56-16.435-10.662-26.284-15.867c-0.031,4.461-1.573,10.416,1.998,13.987c2.122,2.126,6.082,3.661,9.35,5.434
			c5.215,2.826,11.266,4.917,14.773,8.52c4.05,4.16,3.492,5.544,4.86,9.972c0.896,2.747,1.501,4.271,1.501,4.271
			c3.292,6.097,16.122,1.854,16.122,1.854c-7.646-7.564-5.587-18.051-4.521-26.682c0.949-7.658,5.354-25.958-6.709-32.623
			C52.899,54.324,39.435,47.458,23.594,38.069z"/>
		
			<linearGradient id="SVGID_11_" gradientUnits="userSpaceOnUse" x1="1327.583" y1="129.8613" x2="1360.001" y2="85.8879" gradientTransform="matrix(0.8268 0.458 0.4935 -0.8692 -1109.5665 -418.8106)">
			<stop  offset="0" style="stop-color:#FFFFFF"/>
			<stop  offset="1" style="stop-color:#6E6E6E"/>
		</linearGradient>
		<path fill="url(#SVGID_11_)" d="M25.521,36.145C15.445,57.971,54.95,68.582,67.251,82.629c4.462,5.092,4.645,12.114,4.576,18.543
			c-0.043,4.193,0.051,7.477,0.83,11.409c-5.122-4.931-0.619-15.913-4.104-23.634c-4.567-10.121-27.235-20.592-40.734-30.973
			c-0.685,4.957-0.578,11.265,3.602,14.281c3.945,2.848,12.053,6.767,16.454,9.457c7.72,4.724,12.131,7.474,15.039,12.093
			c3.857,6.132,2.964,16.772,6.345,19.792c-2.915-1.011-3.494-2.754-4.219-5.861c-1.112-4.782-1.15-11.186-7.132-16.372
			c-6.414-5.559-16.434-10.661-26.284-15.866c-0.031,4.46-1.572,10.416,1.999,13.987c2.122,2.126,6.081,3.662,9.35,5.434
			c5.215,2.826,11.266,4.917,14.773,8.519c4.049,4.162,3.492,5.545,4.86,9.973c0.896,2.747,1.501,4.271,1.501,4.271
			c1.917,3.549,8.5,5.065,12.835,5.09c1.982,0.011,1.781-4.865,1.179-5.724c-5.115-7.271-3.367-16.476-2.413-24.196
			c0.948-7.659,5.354-25.958-6.71-32.623C54.826,52.399,41.361,45.533,25.521,36.145z"/>
		
			<linearGradient id="SVGID_12_" gradientUnits="userSpaceOnUse" x1="129.4961" y1="-31.1924" x2="119.9388" y2="-57.6341" gradientTransform="matrix(1 0 0 -1 -50 61)">
			<stop  offset="0" style="stop-color:#FFFFFF"/>
			<stop  offset="1" style="stop-color:#6E6E6E"/>
		</linearGradient>
		<path fill="url(#SVGID_12_)" d="M79.007,119.354c-0.14,5.979-4.219,10.24-9.113,9.519c-4.889-0.722-8.74-6.153-8.6-12.133
			c0.142-5.979,4.221-10.239,9.112-9.519C75.298,107.941,79.147,113.374,79.007,119.354z"/>
		
			<linearGradient id="SVGID_13_" gradientUnits="userSpaceOnUse" x1="122.5166" y1="-51.2085" x2="115.3653" y2="-68.8482" gradientTransform="matrix(1 0 0 -1 -50 61)">
			<stop  offset="0" style="stop-color:#FFFFFF"/>
			<stop  offset="1" style="stop-color:#6E6E6E"/>
		</linearGradient>
		<path fill="url(#SVGID_13_)" d="M76.397,118.968c-0.099,4.218-2.977,7.224-6.428,6.716c-3.448-0.51-6.166-4.342-6.067-8.561
			c0.1-4.217,2.978-7.223,6.429-6.714C73.781,110.918,76.497,114.75,76.397,118.968z"/>
	</g>
</g>
<g id="outline_x5F_white">
	<path fill="#FFFFFF" d="M181.416,145.441c-7.402-9.065-24.229-20.949-35.146-28.185c-1.289-2.188-3.215-5.021-5.654-7.356
		c-1.82-1.739-4.811-3.803-7.326-5.42c-0.462-1.008-0.988-2.054-1.548-2.977c-0.894-1.474-2.333-3.309-3.552-4.777
		c-0.295-0.812-0.518-1.595-0.676-2.352c0.102-2.087,0.322-4.366,0.596-6.873c0.082-0.749,0.162-1.488,0.236-2.218
		c0.082-0.792,0.209-1.781,0.354-2.926c0.379-2.978,0.872-6.854,1.045-11.151c0.241-0.318,0.483-0.635,0.707-0.963
		c1.185-1.737,1.894-3.753,2.053-5.849c0.456-5.967,0.993-8.258,1.386-9.93c0.35-1.492,0.784-3.348,0.784-5.848
		c0-5.673-2.729-16.004-21.017-21.445c-4.316-1.284-9.311-2.256-14.677-2.898C91.599,18.856,83.949,13.167,75.717,6.64
		c-2.145-1.7-4.779-2.597-7.457-2.597c-1.013,0-2.031,0.128-3.032,0.39c-3.65,0.954-6.639,3.567-8.07,7.057
		c-1.714,4.178-2.968,9.662-2.111,15.99c-3.928,1.482-7.356,3.468-9.882,6.102c-4.366-2.433-8.855-4.99-13.525-7.758
		c-1.871-1.112-3.987-1.679-6.119-1.679c-1.196,0-2.398,0.179-3.564,0.542c-3.242,1.009-5.906,3.345-7.33,6.429
		c-2.471,5.353-5.092,15.127,1.227,25.82c-1.189,9.463,0.789,15.824,3.689,20.071c-0.018,0.23-0.035,0.468-0.053,0.71
		c-0.361,4.743-1.033,13.572,5.648,20.254c2.929,2.934,6.524,4.707,9.697,6.271c0.882,0.436,1.715,0.846,2.42,1.228
		c1.801,0.978,3.565,1.819,5.271,2.636c1.43,0.684,3.171,1.518,4.551,2.295c-1.076,7.172-1.144,13.579-0.212,19.767
		c0.871,5.782,2.777,9.716,4.812,12.377c-1.263,11.099,1.466,13.501,2.72,14.604c2.925,2.572,15.382,9.662,21.41,11.127
		c1.111,0.271,2.19,0.406,3.208,0.406c1.695,0,3.186-0.375,4.454-1.009c4.359,3.127,9.394,7.149,11.34,9.821
		c3.598,4.939,13.548,8.742,19.16,10.568c10.146,3.302,21.277,5.119,31.346,5.119c5.74,0,11.183-0.578,16.178-1.723
		c11.033-2.523,18.131-7.23,21.096-13.992c0.838-1.909,1.245-3.77,1.388-5.514c1.48-1.827,2.409-4.053,2.634-6.417
		C186.882,162.648,187.314,152.668,181.416,145.441z M180.637,164.971c-0.139,1.463-0.81,2.824-1.885,3.825
		c-0.246,0.229-0.51,0.444-0.766,0.666c0.366,4.352-1.356,10.533-12.109,14.479c-0.025,0.01-0.051,0.02-0.077,0.029
		c-0.275,0.1-0.558,0.198-0.845,0.295c-0.093,0.032-0.186,0.063-0.28,0.095c-0.264,0.087-0.532,0.173-0.806,0.258
		c-0.124,0.038-0.25,0.076-0.376,0.114c-0.266,0.079-0.532,0.158-0.808,0.235c-0.137,0.039-0.279,0.076-0.419,0.114
		c-0.278,0.075-0.558,0.151-0.846,0.225c-0.096,0.024-0.196,0.047-0.293,0.071c-0.322,0.079-0.642,0.16-0.976,0.236
		c-0.12,0.027-0.242,0.048-0.363,0.075c-0.574,0.127-1.15,0.247-1.729,0.356c-0.273,0.052-0.548,0.099-0.822,0.146
		c-0.46,0.081-0.921,0.156-1.384,0.227c-0.277,0.042-0.556,0.084-0.834,0.123c-0.537,0.073-1.075,0.139-1.615,0.199
		c-0.189,0.021-0.377,0.047-0.566,0.066c-0.702,0.073-1.406,0.133-2.111,0.184c-0.265,0.019-0.529,0.033-0.794,0.049
		c-0.479,0.029-0.959,0.055-1.439,0.075c-0.287,0.012-0.573,0.022-0.86,0.031c-0.504,0.015-1.008,0.023-1.513,0.028
		c-0.234,0.003-0.47,0.008-0.705,0.009c-0.033,0-0.067,0.001-0.101,0.001c-0.182,0-0.362-0.008-0.544-0.009
		c-0.648-0.005-1.296-0.013-1.943-0.032c-0.275-0.008-0.55-0.022-0.825-0.034c-0.581-0.022-1.162-0.048-1.74-0.083
		c-0.3-0.018-0.597-0.041-0.896-0.062c-0.555-0.039-1.108-0.08-1.66-0.129c-0.306-0.027-0.609-0.058-0.913-0.088
		c-0.545-0.054-1.088-0.11-1.629-0.174c-0.301-0.035-0.599-0.071-0.897-0.109c-0.544-0.068-1.085-0.141-1.624-0.218
		c-0.287-0.041-0.574-0.083-0.859-0.126c-0.554-0.085-1.104-0.173-1.65-0.266c-0.262-0.045-0.524-0.089-0.785-0.135
		c-0.575-0.102-1.145-0.209-1.712-0.319c-0.225-0.044-0.449-0.087-0.672-0.132c-0.623-0.126-1.239-0.257-1.851-0.393
		c-0.158-0.035-0.318-0.068-0.476-0.104c-0.722-0.164-1.435-0.333-2.139-0.508c-0.042-0.011-0.086-0.021-0.128-0.031
		c-11.586-2.897-20.551-7.302-22.712-10.269c-4.285-5.882-17.141-14.213-17.141-14.213s-0.112,1.618-1.53,2.449
		c-0.017,0.011-0.035,0.02-0.053,0.029c-0.135,0.075-0.281,0.143-0.439,0.201c-0.042,0.017-0.085,0.031-0.128,0.046
		c-0.146,0.048-0.305,0.086-0.472,0.118c-0.058,0.012-0.114,0.023-0.174,0.032c-0.183,0.027-0.38,0.041-0.586,0.046
		c-0.042,0.001-0.077,0.009-0.12,0.009c-0.011,0-0.024-0.002-0.036-0.002c-0.214-0.002-0.445-0.02-0.686-0.047
		c-0.044-0.005-0.083-0.004-0.128-0.01c-0.294-0.039-0.606-0.095-0.941-0.176c-4.096-0.996-12.519-5.552-16.729-8.276
		c-0.972-0.629-1.719-1.161-2.137-1.528c-0.103-0.091-0.197-0.204-0.281-0.337c-0.024-0.037-0.042-0.088-0.065-0.129
		c-0.057-0.103-0.115-0.205-0.163-0.327c-0.022-0.057-0.04-0.126-0.06-0.188c-0.042-0.12-0.084-0.239-0.119-0.374
		c-0.019-0.071-0.031-0.154-0.048-0.229c-0.03-0.139-0.062-0.274-0.085-0.424c-0.013-0.083-0.022-0.175-0.034-0.261
		c-0.021-0.155-0.043-0.309-0.059-0.474c-0.008-0.086-0.012-0.178-0.019-0.266c-0.013-0.176-0.027-0.351-0.035-0.535
		c-0.004-0.087-0.005-0.179-0.007-0.268c-0.006-0.193-0.012-0.386-0.014-0.585c0-0.085,0.001-0.173,0.002-0.259
		c0-0.211,0.001-0.421,0.007-0.637c0-0.01,0-0.02,0-0.029h0c0.06-2.346,0.375-4.936,0.632-6.713
		c-1.906-1.651-4.248-4.922-5.214-11.334c-1.114-7.412-0.686-14.912,1.388-24.318c0.333-1.506,0.6-2.723,0.808-3.766
		c-1.694-1.144-3.638-2.147-5.656-3.127c-0.653-0.317-1.316-0.634-1.978-0.951c-0.309-0.148-0.617-0.296-0.925-0.445
		c-0.089-0.043-0.177-0.085-0.266-0.128c-1.081-0.523-2.155-1.058-3.195-1.622c-3.269-1.772-7.228-3.308-9.35-5.434
		c-3.571-3.571-2.03-9.527-1.999-13.987c0,0,0,0,0.001,0c0,0,0-0.001,0-0.001c1.498,0.792,2.996,1.581,4.487,2.369
		c1.103,0.583,2.199,1.165,3.286,1.748c0.149,0.08,0.298,0.16,0.447,0.241c1.199,0.645,2.383,1.291,3.547,1.938
		c0.088,0.049,0.176,0.098,0.264,0.147c1.208,0.674,2.393,1.351,3.546,2.031c0.031,0.018,0.064,0.036,0.096,0.055
		c0,0,0,0.001,0,0.001c2.404,1.419,4.673,2.854,6.728,4.313c-0.181-0.976-0.352-2.013-0.51-3.106
		c-1.658-1.08-3.521-2.226-5.642-3.523c-2.858-1.747-7.274-4.011-11.104-6.165c-0.005-0.003-0.011-0.006-0.016-0.009
		c-0.33-0.185-0.654-0.369-0.973-0.553c-0.034-0.019-0.067-0.038-0.1-0.058c-0.299-0.172-0.594-0.343-0.881-0.513
		c-0.042-0.024-0.081-0.048-0.122-0.073c-0.278-0.165-0.552-0.328-0.817-0.49c-0.043-0.027-0.085-0.053-0.128-0.08
		c-0.261-0.16-0.518-0.32-0.764-0.476c-0.021-0.014-0.041-0.027-0.062-0.041c-0.539-0.345-1.042-0.681-1.486-1.001
		c-4.18-3.016-4.287-9.324-3.602-14.281c0,0,0,0,0.001,0c0,0,0-0.001,0-0.001c0.556,0.428,1.131,0.856,1.716,1.284
		c0.096,0.07,0.193,0.141,0.29,0.211c0.545,0.396,1.1,0.792,1.667,1.187c0.041,0.029,0.081,0.058,0.123,0.086
		c0.628,0.438,1.269,0.876,1.92,1.315c0.057,0.038,0.115,0.077,0.172,0.115c0.589,0.396,1.186,0.792,1.789,1.187
		c0.094,0.062,0.188,0.124,0.283,0.186c1.31,0.856,2.648,1.713,4.001,2.57c0.136,0.086,0.272,0.172,0.409,0.258
		c0.546,0.345,1.094,0.69,1.643,1.035c3.554,2.232,7.145,4.461,10.513,6.685c-0.074-0.958-0.143-1.899-0.205-2.816
		c-5.15-3.175-10.62-6.39-15.362-9.844c-0.015-0.011-0.03-0.022-0.045-0.033c-0.322-0.235-0.64-0.47-0.954-0.707
		c-0.042-0.032-0.084-0.064-0.127-0.096c-0.29-0.219-0.576-0.439-0.858-0.661c-0.052-0.04-0.103-0.08-0.154-0.12
		c-0.284-0.224-0.564-0.448-0.841-0.674c-0.039-0.031-0.078-0.063-0.117-0.095c-0.309-0.252-0.612-0.507-0.911-0.762
		c-0.004-0.004-0.009-0.008-0.014-0.011c-0.62-0.532-1.218-1.071-1.79-1.617c-0.023-0.022-0.045-0.044-0.068-0.066
		c-0.249-0.239-0.493-0.479-0.731-0.72c-0.062-0.062-0.122-0.125-0.183-0.188c-0.198-0.203-0.393-0.407-0.583-0.613
		c-0.073-0.078-0.144-0.156-0.215-0.235c-0.175-0.192-0.347-0.386-0.514-0.581c-0.074-0.084-0.146-0.169-0.218-0.255
		c-0.163-0.193-0.322-0.388-0.478-0.583c-0.067-0.083-0.134-0.167-0.2-0.251c-0.162-0.208-0.318-0.418-0.472-0.629
		c-0.052-0.071-0.105-0.141-0.156-0.212c-0.192-0.27-0.376-0.541-0.553-0.814c-0.008-0.012-0.017-0.023-0.024-0.036
		c-0.188-0.292-0.367-0.586-0.537-0.882c-0.029-0.05-0.054-0.101-0.083-0.151c-0.134-0.238-0.264-0.478-0.386-0.719
		c-0.047-0.093-0.09-0.187-0.136-0.28c-0.097-0.201-0.192-0.402-0.281-0.605c-0.047-0.108-0.091-0.216-0.136-0.325
		c-0.079-0.192-0.154-0.384-0.226-0.578c-0.042-0.114-0.083-0.229-0.122-0.345c-0.065-0.192-0.125-0.385-0.183-0.579
		c-0.035-0.116-0.069-0.231-0.101-0.348c-0.054-0.202-0.102-0.405-0.147-0.608c-0.024-0.109-0.051-0.218-0.073-0.328
		c-0.046-0.235-0.084-0.473-0.119-0.711c-0.012-0.079-0.027-0.157-0.037-0.236c-0.041-0.321-0.071-0.644-0.09-0.969
		c-0.003-0.051-0.001-0.102-0.004-0.153c-0.012-0.273-0.019-0.547-0.015-0.824c0.001-0.111,0.009-0.225,0.014-0.337
		c0.008-0.218,0.019-0.437,0.037-0.657c0.011-0.13,0.027-0.261,0.042-0.392c0.023-0.207,0.049-0.414,0.082-0.623
		c0.021-0.138,0.046-0.276,0.071-0.415c0.038-0.207,0.081-0.415,0.128-0.624c0.032-0.14,0.064-0.28,0.1-0.42
		c0.055-0.215,0.117-0.432,0.182-0.65c0.04-0.136,0.079-0.271,0.123-0.407c0.077-0.238,0.165-0.479,0.254-0.72
		c0.043-0.118,0.083-0.234,0.129-0.353c0.142-0.36,0.294-0.722,0.463-1.088c1.193,0.707,2.37,1.396,3.537,2.076
		c0.288,0.168,0.574,0.333,0.86,0.499c0.956,0.554,1.904,1.102,2.845,1.639c0.2,0.115,0.401,0.23,0.601,0.344
		c2.392,1.365,4.74,2.685,7.052,3.967c0,0,0,0.001,0,0.001c2.096,1.163,4.165,2.298,6.214,3.415
		c-0.128-1.482-0.193-2.15-0.194-2.166c-0.008-0.074-0.014-0.148-0.018-0.222c-0.123-2.016,0.297-5.022,2.994-7.888
		c3.903-4.147,11.395-6.275,18.689-7.355c-1.604-4.167-1.905-8.568-0.268-13.276c0.004-0.012,0.007-0.024,0.012-0.037
		c0.127-0.365,0.266-0.732,0.417-1.101c1.573,1.247,3.116,2.456,4.642,3.641c0.125,0.097,0.25,0.195,0.375,0.292
		c1.529,1.186,3.039,2.345,4.53,3.482c2.692,2.05,5.327,4.028,7.923,5.956c9.786,0.148,19.033,1.373,26.215,3.509
		c13.828,4.113,16.729,10.805,16.729,15.694c0,1.807-0.305,3.104-0.626,4.479c-0.412,1.758-1.035,4.414-1.525,10.842
		c-0.08,1.048-0.434,2.057-1.026,2.925c-0.8,1.173-1.759,2.273-2.862,3.291c-0.029,0.279-0.062,0.56-0.092,0.841
		c-0.688,6.321-1.398,12.856-1.309,21.056c0.026,2.437,0.605,5.049,1.724,7.776c1.036,1.224,2.778,3.348,3.651,4.788
		c0.723,1.19,1.408,2.724,1.912,3.956c2.328,1.447,6.088,3.891,7.946,5.666c2.421,2.315,4.28,5.367,5.291,7.232
		c8.995,5.922,27.619,18.717,35.009,27.768C181.337,154.832,180.792,163.325,180.637,164.971z"/>
</g>
<g id="outline_x5F_black">
	<path d="M176.768,149.236c-7.39-9.051-26.014-21.846-35.009-27.768c-1.011-1.865-2.87-4.917-5.291-7.232
		c-1.858-1.775-5.618-4.219-7.946-5.666c-0.504-1.232-1.189-2.766-1.912-3.956c-0.873-1.44-2.615-3.564-3.651-4.788
		c-1.118-2.727-1.697-5.339-1.724-7.776c-0.09-8.2,0.621-14.735,1.309-21.056c0.029-0.281,0.062-0.562,0.092-0.841
		c1.104-1.018,2.062-2.118,2.862-3.291c0.593-0.868,0.946-1.877,1.026-2.925c0.49-6.428,1.113-9.084,1.525-10.842
		c0.321-1.375,0.626-2.672,0.626-4.479c0-4.889-2.901-11.581-16.729-15.694c-4.411-1.312-9.613-2.273-15.227-2.863
		c-7.824-5.733-15.937-11.743-24.731-18.717c-1.071-0.85-2.388-1.299-3.727-1.299c-0.507,0-1.016,0.064-1.517,0.195
		c-1.825,0.477-3.319,1.784-4.035,3.529c-2.648,6.458-2.489,12.377-0.578,17.836c-5.165,1.254-9.888,3.199-12.72,6.208
		c-1.16,1.232-1.881,2.487-2.336,3.681c-5.909-3.24-12.024-6.673-18.493-10.507c-0.936-0.556-1.995-0.84-3.061-0.84
		c-0.598,0-1.198,0.089-1.781,0.271c-1.621,0.504-2.953,1.672-3.665,3.214c-2.514,5.444-3.947,13.462,2.167,22.134
		c-0.175,0.441-0.299,0.907-0.365,1.389c-1.283,9.292,0.963,14.738,3.764,17.909c-0.01,0.13-0.015,0.261-0.016,0.393
		c-0.006,0.777-0.077,1.719-0.152,2.716c-0.328,4.311-0.824,10.823,3.908,15.556c2.23,2.235,5.219,3.708,8.108,5.133
		c0.935,0.461,1.819,0.896,2.626,1.334c1.666,0.904,3.361,1.713,5,2.498c3.396,1.621,6.603,3.154,8.334,4.933
		c0.06,0.062,0.103,0.109,0.16,0.168c-1.558,8.103-1.81,14.835-0.811,21.483c0.966,6.412,3.308,9.683,5.214,11.334
		c-0.523,3.613-1.289,10.595,0.347,12.033c2.229,1.961,13.824,8.578,18.865,9.805c5.042,1.224,5.294-2.696,5.294-2.696
		s12.856,8.331,17.141,14.213c4.284,5.882,35.289,17.418,60.493,11.649c15.898-3.638,18.258-11.119,17.834-16.151
		c0.256-0.222,0.52-0.438,0.766-0.666c1.075-1.001,1.746-2.362,1.885-3.825C180.792,163.325,181.337,154.832,176.768,149.236z
		 M68.261,16.043c6.132,4.863,11.888,9.225,17.47,13.37c-0.663-0.01-1.321-0.03-1.989-0.03c-3.609,0-9.554,0.172-15.637,1.073
		C66.372,25.954,66.154,21.181,68.261,16.043z M174.663,164.404c-0.054,0.05-0.113,0.095-0.168,0.145
		c-0.428,0.391-0.869,0.769-1.328,1.129c-0.193,0.152-0.397,0.294-0.597,0.44c-0.337,0.25-0.676,0.497-1.028,0.732
		c-0.231,0.154-0.471,0.302-0.708,0.449c-0.338,0.211-0.679,0.417-1.028,0.615c-0.252,0.143-0.508,0.282-0.767,0.419
		c-0.355,0.188-0.718,0.369-1.085,0.545c-0.261,0.126-0.521,0.252-0.787,0.371c-0.393,0.176-0.794,0.341-1.197,0.504
		c-0.252,0.103-0.5,0.209-0.757,0.307c-0.506,0.191-1.022,0.369-1.543,0.543c-0.163,0.054-0.319,0.114-0.483,0.166
		c-0.675,0.216-1.363,0.414-2.061,0.6c-0.266,0.07-0.538,0.132-0.807,0.198c-0.45,0.111-0.901,0.222-1.359,0.321
		c-0.314,0.069-0.634,0.131-0.952,0.194c-0.423,0.084-0.847,0.166-1.274,0.241c-0.335,0.059-0.671,0.113-1.008,0.166
		c-0.423,0.066-0.848,0.128-1.275,0.186c-0.342,0.047-0.685,0.093-1.028,0.134c-0.438,0.053-0.88,0.098-1.321,0.142
		c-0.336,0.033-0.67,0.069-1.007,0.098c-0.496,0.042-0.996,0.074-1.496,0.106c-0.284,0.019-0.567,0.042-0.854,0.058
		c-0.758,0.04-1.519,0.068-2.281,0.088c-0.328,0.008-0.657,0.008-0.985,0.012c-0.453,0.006-0.905,0.013-1.358,0.012
		c-0.789-0.002-1.578-0.017-2.366-0.038c-0.129-0.004-0.258-0.004-0.387-0.008c-0.947-0.03-1.894-0.075-2.838-0.132
		c-0.051-0.004-0.102-0.009-0.153-0.012c-0.864-0.054-1.726-0.119-2.584-0.194c-0.246-0.021-0.491-0.048-0.737-0.071
		c-0.663-0.062-1.325-0.129-1.981-0.203c-0.292-0.033-0.581-0.069-0.871-0.104c-0.608-0.073-1.215-0.151-1.816-0.233
		c-0.301-0.042-0.601-0.085-0.899-0.129c-0.59-0.086-1.176-0.177-1.757-0.271c-0.288-0.047-0.576-0.093-0.862-0.142
		c-0.599-0.103-1.19-0.21-1.777-0.319c-0.252-0.048-0.507-0.093-0.756-0.142c-0.671-0.131-1.331-0.267-1.983-0.406
		c-0.15-0.032-0.305-0.062-0.455-0.096c-1.616-0.354-3.167-0.733-4.639-1.132c-0.192-0.052-0.376-0.105-0.566-0.158
		c-0.525-0.146-1.043-0.293-1.546-0.443c-0.231-0.068-0.454-0.139-0.681-0.209c-0.444-0.137-0.883-0.275-1.308-0.415
		c-0.23-0.076-0.457-0.152-0.682-0.229c-0.401-0.138-0.793-0.275-1.173-0.414c-0.215-0.078-0.43-0.157-0.637-0.235
		c-0.375-0.142-0.732-0.284-1.083-0.427c-0.186-0.075-0.375-0.15-0.554-0.227c-0.37-0.156-0.717-0.312-1.056-0.469
		c-0.132-0.061-0.274-0.122-0.402-0.183c-0.456-0.218-0.887-0.436-1.279-0.651c-3.622-1.991-6.94-4.317-9.893-6.649
		c-0.128-0.102-0.249-0.203-0.375-0.304c-0.458-0.365-0.914-0.73-1.353-1.094c-2.744-2.271-5.124-4.48-7.094-6.329
		c-2.058-1.931-3.668-3.468-4.758-4.25c-0.527-0.378-1.377-0.892-2.436-1.487c-0.012-0.008-0.023-0.014-0.036-0.021
		c-0.271-0.153-0.56-0.312-0.855-0.475c-6.053-3.32-16.977-8.546-16.977-8.546s-0.025-0.012-0.069-0.037c0,0-0.001,0-0.002-0.001
		c-0.089-0.051-0.259-0.161-0.477-0.352c-0.01-0.008-0.02-0.017-0.029-0.025c-0.111-0.099-0.234-0.216-0.367-0.36h0
		c-0.896-0.974-2.196-3.062-2.837-7.32c-0.453-3.01-0.592-6.043-0.47-9.193l0,0c0.039-0.998,0.105-2.009,0.198-3.035
		c0.002-0.017,0.003-0.034,0.004-0.052c0.089-0.974,0.205-1.965,0.342-2.971c0.012-0.084,0.021-0.166,0.033-0.251
		c0.132-0.945,0.291-1.912,0.465-2.892c0.023-0.132,0.042-0.26,0.066-0.392c0.2-1.092,0.423-2.205,0.675-3.347
		c0.005-0.022,0.009-0.041,0.014-0.063c-0.542-0.8-1.275-1.682-2.312-2.748c-0.392-0.402-0.82-0.784-1.271-1.151
		c-0.012-0.01-0.023-0.021-0.036-0.03c-3.583-2.908-8.851-4.835-13.466-7.338c-3.269-1.771-7.228-3.308-9.35-5.434
		c-3.571-3.571-2.03-9.527-1.999-13.987c8.039,4.248,16.188,8.428,22.401,12.842c0,0,0,0.001,0,0.002
		c0.643,0.457,1.259,0.917,1.858,1.379c0.1,0.077,0.2,0.154,0.299,0.231c0.598,0.468,1.177,0.938,1.725,1.413
		c1.538,1.334,2.679,2.749,3.55,4.195c0,0,0-0.001,0-0.001c0,0.001,0,0.001,0.001,0.002c-0.104-1.321-0.353-2.771-0.745-4.612
		c-0.025-0.027-0.053-0.052-0.078-0.079c-0.284-0.305-0.583-0.604-0.892-0.899c-0.103-0.099-0.207-0.198-0.312-0.295
		c-0.33-0.306-0.67-0.609-1.029-0.909c-0.084-0.07-0.174-0.14-0.26-0.21c-0.305-0.25-0.622-0.501-0.949-0.75
		c-0.129-0.099-0.259-0.199-0.393-0.298c-0.39-0.291-0.793-0.583-1.214-0.877c-0.149-0.104-0.308-0.211-0.461-0.317
		c-0.308-0.211-0.624-0.424-0.949-0.64c-0.204-0.136-0.409-0.272-0.62-0.41c-0.015-0.01-0.028-0.019-0.042-0.028c0,0,0,0,0,0.001
		c-1.659-1.081-3.519-2.227-5.641-3.525c-4.401-2.69-12.509-6.609-16.454-9.457c-4.18-3.016-4.286-9.324-3.602-14.281
		c6.981,5.369,16.412,10.762,24.524,16.118c0,0,0,0.001,0,0.001c0.452,0.298,0.896,0.596,1.339,0.895
		c0.117,0.079,0.237,0.157,0.354,0.236c0.285,0.193,0.562,0.386,0.843,0.579c0.294,0.202,0.591,0.404,0.88,0.606
		c0.266,0.186,0.523,0.371,0.784,0.556c0.293,0.208,0.587,0.416,0.874,0.624c0.456,0.331,0.906,0.661,1.344,0.991
		c-0.106-1.06-0.206-2.145-0.299-3.249c-0.298-0.202-0.619-0.404-0.922-0.605c0-0.005,0-0.01,0-0.015
		c-0.664-0.44-1.344-0.88-2.032-1.319c-0.126-0.081-0.254-0.162-0.381-0.243c-0.91-0.579-1.836-1.158-2.775-1.738
		c-0.072-0.045-0.141-0.089-0.213-0.134c0,0.001,0,0.001,0,0.002c-15.478-9.543-33.863-19.438-26.618-35.132
		c9.804,5.811,18.698,10.655,27.413,15.36c-0.357-4.414-0.529-6.169-0.529-6.169c-0.011-0.184,0.001-0.362,0.014-0.541
		c0.011-0.123,0.025-0.244,0.044-0.365c0.557-3.356,5.375-5.789,12.262-7.28c1.468-0.318,3.029-0.594,4.662-0.827
		c0.054-0.007,0.108-0.015,0.163-0.022c0.462-0.065,0.93-0.126,1.404-0.184c3.99-0.488,8.347-0.735,12.789-0.735
		c3.58,0,7.213,0.161,10.748,0.48c0.001,0,0.002,0.001,0.003,0.002c4.597,0.416,9.028,1.1,12.962,2.06
		c-0.001,0-0.001-0.001-0.002-0.001c8.876,2.165,15.222,5.72,15.222,10.693c0,2.903-1.28,3.694-2.135,14.863
		c-0.938,1.374-2.166,2.558-3.61,3.582c-0.764,7.349-1.805,15.012-1.695,25.052c0.041,3.752,1.023,7.437,2.567,10.917
		c0,0,2.765,3.187,3.677,4.692c1.045,1.723,2.178,4.905,2.178,4.905s6.506,3.879,8.664,5.942c2.808,2.686,4.818,7.043,4.818,7.043
		c4.37,2.851,27.129,17.798,34.981,27.414C175.363,157.001,174.663,164.404,174.663,164.404z"/>
</g>
</svg>
