<?xml version="1.0" encoding="utf-8"?>
<!-- Generator: Adobe Illustrator 15.0.0, SVG Export Plug-In . SVG Version: 6.00 Build 0)  -->
<!DOCTYPE svg PUBLIC "-//W3C//DTD SVG 1.1//EN" "http://www.w3.org/Graphics/SVG/1.1/DTD/svg11.dtd">
<svg version="1.1" xmlns="http://www.w3.org/2000/svg" xmlns:xlink="http://www.w3.org/1999/xlink" x="0px" y="0px" width="200px"
	 height="200px" viewBox="0 0 200 200" enable-background="new 0 0 200 200" xml:space="preserve">
<g id="icon">
	<g id="Layer_2">
	</g>
	<g>
		
			<radialGradient id="SVGID_1_" cx="143.3086" cy="-17.0063" r="89.0426" gradientTransform="matrix(1 0 0 -1 -50 61)" gradientUnits="userSpaceOnUse">
			<stop  offset="0.6316" style="stop-color:#FFFFFF"/>
			<stop  offset="0.7479" style="stop-color:#E8E9EC"/>
			<stop  offset="0.9903" style="stop-color:#AEAFBD"/>
			<stop  offset="1" style="stop-color:#ACADBB"/>
		</radialGradient>
		<path fill="url(#SVGID_1_)" d="M123.336,164.936c-6.557-0.023-35.674-0.33-38.355-0.736c-4.132-0.629-18.192-3.67-25.678-16.393
			c-1.518-2.58-3.065-5.086-4.562-7.511c-6.673-10.806-12.437-20.138-12.455-30.413c-0.013-7.757,2.826-18.963,9.087-25.235
			c2.472-2.476,5.329-3.962,8.346-4.358c0.006-10.137,0.046-42.493,0.312-48.875c0.202-4.856,0.703-10.29,4.115-13.318
			c3.359-2.984,7.402-4.627,11.383-4.627c2.979,0,5.843,0.887,8.513,2.634c2.553,1.668,3.492,5.763,3.998,45.117
			c0.018,1.355,0.035,2.719,0.054,4.053c2.312-2.304,6.104-3.612,10.546-3.612c4.497,0,8.42,1.292,10.495,3.457
			c1.813,1.891,2.721,3.701,3.151,6.004c0.946-1.506,2.229-2.671,3.821-3.436c1.588-0.762,3.598-1.148,5.973-1.148
			c2.921,0,5.968,0.595,7.763,1.516c0.97,0.498,1.765,1.106,2.419,1.805c0.19-6.878,0.325-14.008,0.42-18.935
			c0.16-8.537,0.213-10.778,0.319-11.466c0.624-4.007,1.478-9.491,7.604-10.877c1.383-0.311,2.627-0.566,3.912-0.566
			c2.967,0,5.36,1.337,8.002,4.471c2.029,2.41,3.305,8.683,2.926,31.468l-0.012,0.683c-0.199,12.357,0.838,32.269,1.596,46.809
			c0.383,7.361,0.686,13.179,0.687,15.504c0.002,9.828-0.227,15.379-5.157,24.445c-4.836,8.891-18.295,13.541-29.091,13.541
			C123.466,164.936,123.336,164.936,123.336,164.936z"/>
		
			<linearGradient id="SVGID_2_" gradientUnits="userSpaceOnUse" x1="158.9766" y1="-94.0308" x2="158.9766" y2="-119.4423" gradientTransform="matrix(1 0 0 -1 -50 61)">
			<stop  offset="0.1758" style="stop-color:#08A4FF"/>
			<stop  offset="1" style="stop-color:#367CBD"/>
		</linearGradient>
		<path fill="url(#SVGID_2_)" d="M80.786,186.531c-4.888,0-8.924-3.977-8.998-8.864l-0.114-7.556
			c-0.036-2.402,0.865-4.678,2.54-6.403c1.674-1.726,3.92-2.696,6.323-2.731l56.633-0.854c4.887,0,8.922,3.977,8.997,8.861
			l0.114,7.559c0.035,2.404-0.866,4.678-2.541,6.402c-1.674,1.726-3.922,2.695-6.325,2.73L80.786,186.531z"/>
	</g>
</g>
<g id="outline_x5F_white">
	<path fill="#FFFFFF" d="M166.016,110.977c-0.709-13.599-1.779-34.146-1.584-46.197l0.012-0.679
		c0.438-26.374-1.201-32.857-5.043-37.416c-1.6-1.898-6.465-7.672-14.883-7.672c-2.205,0-4.113,0.387-5.879,0.784
		c-12.115,2.741-13.871,14.025-14.531,18.273c-0.196,1.271-0.229,2.218-0.428,12.682c-0.035,1.876-0.078,4.219-0.133,6.819
		c-0.488-0.023-0.979-0.035-1.469-0.035c-2.286,0-4.418,0.257-6.373,0.766c-0.314-0.102-0.635-0.189-0.953-0.264
		c-5.372-4.834-12.975-5.378-16.113-5.378c-0.58,0-1.151,0.016-1.717,0.046c-0.102-6.521-0.248-13.418-0.509-19.299
		c-0.647-14.614-1.503-20.953-7.451-24.84c-4.094-2.68-8.741-4.099-13.433-4.099c-6.186,0-12.351,2.45-17.36,6.898
		c-6.555,5.817-6.93,14.831-7.131,19.673c-0.229,5.504-0.294,29.395-0.313,42.9c-2.032,1.121-3.95,2.575-5.72,4.348
		c-8.119,8.131-11.736,21.735-11.72,31.609c0.022,12.822,6.713,23.658,13.797,35.129c1.472,2.383,2.994,4.848,4.463,7.345
		c2.909,4.943,6.975,9.229,11.818,12.642c-0.48,1.682-0.716,3.442-0.688,5.239l0.114,7.554c0.147,9.774,8.221,17.729,17.997,17.729
		l0.272-0.002l56.494-0.854c4.804-0.071,9.298-2.011,12.646-5.462c3.349-3.449,5.153-7.998,5.081-12.807l-0.114-7.559
		c-0.029-1.903-0.366-3.733-0.95-5.453c2.506-2.2,4.646-4.759,6.247-7.701c5.953-10.947,6.254-18.057,6.252-28.748
		C166.713,124.506,166.461,119.541,166.016,110.977z M152.559,151.396c-2.276,4.186-6.474,7.418-11.396,9.682
		c2.914,1.461,4.951,4.453,5.004,7.906l0.114,7.559c0.035,2.404-0.866,4.678-2.541,6.402c-1.674,1.726-3.922,2.695-6.325,2.73
		l-56.629,0.855c-4.888,0-8.924-3.977-8.998-8.864l-0.114-7.556c-0.036-2.402,0.865-4.678,2.54-6.403
		c0.711-0.732,1.529-1.32,2.415-1.767c-5.72-2.202-12.75-6.357-17.325-14.135c-1.518-2.58-3.065-5.086-4.562-7.511
		c-6.673-10.806-12.437-20.138-12.455-30.413c-0.013-7.757,2.826-18.963,9.087-25.235c2.472-2.476,5.329-3.962,8.346-4.358
		c0.006-10.137,0.046-42.493,0.312-48.875c0.202-4.856,0.703-10.29,4.115-13.318c3.359-2.984,7.402-4.627,11.383-4.627
		c2.979,0,5.843,0.887,8.513,2.634c2.553,1.668,3.492,5.763,3.998,45.117c0.018,1.355,0.035,2.719,0.054,4.053
		c2.312-2.304,6.104-3.612,10.546-3.612c4.497,0,8.42,1.292,10.495,3.457c1.458,1.521,2.324,2.993,2.834,4.708l0.064-0.099
		c0,0-0.011,0.091-0.026,0.23c0.107,0.376,0.204,0.761,0.279,1.165c0.946-1.506,2.229-2.671,3.821-3.436
		c1.588-0.762,3.598-1.148,5.973-1.148c2.921,0,5.968,0.595,7.763,1.516c0.97,0.498,1.765,1.106,2.419,1.805
		c0.19-6.878,0.325-14.008,0.42-18.935c0.16-8.537,0.213-10.778,0.319-11.466c0.624-4.007,1.478-9.491,7.604-10.877
		c1.383-0.311,2.627-0.566,3.912-0.566c2.967,0,5.36,1.337,8.002,4.471c2.029,2.41,3.305,8.683,2.926,31.468l-0.012,0.683
		c-0.199,12.357,0.838,32.269,1.596,46.809c0.383,7.361,0.686,13.179,0.687,15.504C157.718,136.779,157.489,142.33,152.559,151.396z
		"/>
</g>
<g id="outline_x5F_black">
	<path d="M160.023,111.288c-0.754-14.496-1.787-34.35-1.59-46.604l0.012-0.681c0.398-24.023-0.969-30.29-3.633-33.451
		c-2.172-2.579-5.307-5.538-10.295-5.538c-1.592,0-3.066,0.302-4.563,0.638c-8.127,1.839-9.291,9.322-9.917,13.342
		c-0.133,0.86-0.173,2.191-0.355,11.874c-0.065,3.476-0.16,8.482-0.287,13.767c-2.397-0.795-5.207-1.096-7.313-1.096
		c-2.828,0-5.274,0.486-7.271,1.445c-0.481,0.231-0.941,0.49-1.381,0.777c-0.563-0.919-1.265-1.816-2.131-2.719
		c-2.628-2.742-7.359-4.379-12.658-4.38c-2.781,0-5.37,0.458-7.616,1.317c-0.107-8.283-0.247-18.276-0.603-26.297
		c-0.668-15.086-1.717-18.114-4.74-20.09c-3.164-2.073-6.581-3.124-10.154-3.124c-4.715,0-9.465,1.912-13.376,5.385
		c-4.29,3.808-4.892,9.964-5.12,15.436c-0.249,5.992-0.301,34.496-0.312,46.594c-2.697,0.833-5.228,2.398-7.47,4.644
		c-6.867,6.878-9.979,19.005-9.965,27.362c0.02,11.123,6.277,21.256,12.902,31.983c1.488,2.41,3.028,4.901,4.53,7.456
		c3.854,6.551,9.278,10.734,14.4,13.404c-1.619,2.127-2.485,4.713-2.443,7.427l0.114,7.555c0.098,6.517,5.479,11.818,11.997,11.818
		l0.18-0.003l56.496-0.854c3.203-0.047,6.198-1.34,8.432-3.641c2.232-2.301,3.437-5.332,3.387-8.537l-0.113-7.559
		c-0.042-2.76-1.039-5.296-2.661-7.31c3.643-2.28,6.724-5.19,8.688-8.802c5.269-9.688,5.523-15.842,5.521-25.88
		C160.714,124.544,160.425,118.984,160.023,111.288z M117.406,70.389c1.273-0.612,2.967-0.853,4.673-0.853
		c2.553,0,5.136,0.54,6.394,1.185c1.374,0.707,2.253,1.795,2.813,3.199c0.435,6.644,0.971,20.267-0.973,30.681
		c-1.167,6.26-3.921,7.856-12.247,7.146c-5.021-0.433-5.995-4.558-6.166-5.655c0.154-1.02,0.222-2.096,0.192-3.237
		c-0.152-5.912,0.212-13.069,0.663-19.198c0.514-1.709,0.617-4.013,0.621-4.981C113.391,74.776,114.703,71.687,117.406,70.389z
		 M89.88,67.753c1.833-2.159,5.333-3.093,8.758-3.093c3.44,0,6.805,0.942,8.329,2.533c1.777,1.852,2.432,3.519,2.614,6.685
		c-0.655,6.598-1.739,19.309-1.486,29.08c0.092,3.528-0.88,6.097-2.97,7.851c-3.706,3.111-10.081,2.836-12.934,2.257
		c-1.696-0.345-2.815-1.087-3.54-1.808c8.389-1.947,17.561-5.859,18.872-13.707c2.49-14.897-1.408-18.049-4.973-21.158
		c-1.294-1.13-7.319-0.228-14.198,0.622c-0.022-0.177-0.037-0.369-0.037-0.596C88.328,72.876,88.363,69.541,89.88,67.753z
		 M66.138,20.34c2.578-2.292,5.871-3.872,9.39-3.872c2.239,0,4.572,0.641,6.87,2.145c2.984,1.951,2.364,48.97,2.998,58.752
		c-2.665,0.3-5.373,0.55-7.914,0.637c-8.294,0.281-14.454-2.184-14.454-2.184l-0.309,7.43c0-1.03,0.004-44.345,0.31-51.708
		C63.215,27.082,63.662,22.538,66.138,20.34z M137.371,182.677l-56.493,0.854c-0.03,0-0.062,0.001-0.092,0.001
		c-3.273,0-5.948-2.626-5.998-5.909l-0.114-7.557c-0.051-3.312,2.596-6.041,5.908-6.09l56.494-0.853
		c0.031-0.001,0.062-0.001,0.094-0.001c3.271,0,5.947,2.625,5.997,5.906l0.114,7.559C143.331,179.9,140.686,182.628,137.371,182.677
		z M149.922,149.959c-1.769,3.253-4.958,5.889-8.809,7.852c-1.239-0.438-2.562-0.688-3.943-0.688l-0.186,0.002l-56.493,0.852
		c-1.359,0.021-2.676,0.278-3.918,0.729c-5.553-2.351-11.083-6.3-14.684-12.42c-8.039-13.664-16.583-24.758-16.603-36.407
		c-0.017-10.438,5.657-26.697,16.079-26.696c0.442,0,0.895,0.029,1.354,0.09v-0.001c9.952,2.202,13.396,1.609,28.602-2.326
		c4.945-1.28,11.881-2.086,11.166,12.106c-0.715,14.188-28.697,15.59-30.321,15.788c-1.625,0.196-3.88,8.306-3.88,8.306l2.809-1.885
		l-5.032,5.836l9.65-5.023c0,0,11.596,2.365,20.258,8.222c8.662,5.854,10.482,8.79,10.482,8.79l1.366,13.971l1.17-22.632
		c0,0-4.52-3.611-10.644-7.085c3.055-0.251,6.557-1.119,9.352-3.466c0.86-0.723,1.582-1.548,2.191-2.452
		c1.508,2.116,3.978,3.979,7.836,4.312c1.207,0.104,2.365,0.164,3.47,0.164c6.771,0,11.504-2.261,13.052-10.56
		c2.186-11.718,1.407-26.801,0.947-32.989c0.433-14.261,0.597-31.292,0.772-32.433c0.691-4.443,1.414-7.53,5.303-8.41
		c1.226-0.275,2.269-0.492,3.25-0.492c1.855,0,3.492,0.776,5.707,3.404c2.752,3.265,2.312,23.86,2.209,30.169
		c-0.305,18.882,2.279,55.753,2.281,62.362C154.717,136.867,154.432,141.666,149.922,149.959z"/>
</g>
</svg>
