<?xml version="1.0" encoding="utf-8"?>
<!-- Generator: Adobe Illustrator 15.0.0, SVG Export Plug-In . SVG Version: 6.00 Build 0)  -->
<!DOCTYPE svg PUBLIC "-//W3C//DTD SVG 1.1//EN" "http://www.w3.org/Graphics/SVG/1.1/DTD/svg11.dtd">
<svg version="1.1" xmlns="http://www.w3.org/2000/svg" xmlns:xlink="http://www.w3.org/1999/xlink" x="0px" y="0px" width="200px"
	 height="200px" viewBox="0 0 200 200" enable-background="new 0 0 200 200" xml:space="preserve">
<g id="icon">
	<g id="Layer_2">
	</g>
	<g>
		
			<radialGradient id="SVGID_1_" cx="205.7344" cy="4.5981" r="119.8288" gradientTransform="matrix(1 0 0 -1 -50 61)" gradientUnits="userSpaceOnUse">
			<stop  offset="0.6316" style="stop-color:#FFFFFF"/>
			<stop  offset="0.7479" style="stop-color:#E8E9EC"/>
			<stop  offset="0.9903" style="stop-color:#AEAFBD"/>
			<stop  offset="1" style="stop-color:#ACADBB"/>
		</radialGradient>
		<path fill="url(#SVGID_1_)" d="M109.662,168.361c-1.309,0-2.648-0.229-3.985-0.678c-4.688-1.574-4.942-5.601-5.112-8.265
			c-0.119-1.872-0.194-3.688-0.269-5.46c-0.646-15.549-1.073-25.82-28.743-38.418c-0.528-0.241-1.114-0.462-1.735-0.695
			c-1.849-0.697-3.944-1.486-5.354-3.207c-0.83-1.013-1.547-1.888-1.681-33.265c-0.132-30.921,0.468-31.965,0.863-32.655
			c1.308-2.271,4.368-3.122,8.55-4.076c0.436-0.099,0.849-0.194,1.226-0.285l3.076-0.754c7.334-1.806,14.919-3.672,23.2-4.655
			c6.401-0.758,13.519-0.822,20.26-0.822c1.237,0,2.91-0.048,4.847-0.104c2.555-0.074,5.449-0.157,8.301-0.157
			c7.062,0,10.98,0.515,13.105,1.721c3.029,1.72,5.717,7.108,4.641,11.477c-0.543,2.203-1.649,3.542-3.041,4.357
			c3.006,0.681,5.586,2.099,7.162,4.971c1.135,2.068,3.072,9.004,0.924,13.12c-0.75,1.441-1.795,2.365-3.004,2.958
			c1.264,0.373,2.406,0.949,3.397,1.837c2.386,2.14,3.899,6.234,3.769,10.189c-0.113,3.401-1.428,6.255-3.699,8.034
			c-0.436,0.341-0.908,0.623-1.412,0.856c1.554,0.509,2.941,1.344,3.984,2.709c2.569,3.364,1.854,11.71-1.277,14.884
			c-2.797,2.838-7.422,3.185-11.896,3.519l-0.521,0.039c-7.924,0.601-15.105,0.649-22.711,0.7c-2.568,0.018-5.187,0.035-7.862,0.076
			c5.217,5.844,11.722,15.668,10.745,30.354C124.713,157.184,118.956,168.361,109.662,168.361
			C109.661,168.361,109.662,168.361,109.662,168.361z"/>
		
			<linearGradient id="SVGID_2_" gradientUnits="userSpaceOnUse" x1="101.7715" y1="33.3848" x2="101.7715" y2="-34.9028" gradientTransform="matrix(1 0 0 -1 -50 61)">
			<stop  offset="0" style="stop-color:#FF0000"/>
			<stop  offset="0.1674" style="stop-color:#F60000"/>
			<stop  offset="0.4388" style="stop-color:#DE0000"/>
			<stop  offset="0.7785" style="stop-color:#B70000"/>
			<stop  offset="1" style="stop-color:#9A0000"/>
		</linearGradient>
		<path fill="url(#SVGID_2_)" d="M48.188,112.266c-4.792,0-8.69-3.898-8.69-8.69V49.99c0-4.792,3.898-8.69,8.69-8.69h7.167
			c4.792,0,8.691,3.898,8.691,8.69v53.584c0,4.792-3.899,8.691-8.691,8.691H48.188L48.188,112.266z"/>
	</g>
</g>
<g id="outline_x5F_white">
	<path fill="#FFFFFF" d="M167.342,93.577c1.032-2.354,1.617-4.98,1.711-7.784c0.172-5.119-1.314-10.19-4-14.05
		c2.104-7.135-0.387-15.393-2.188-18.679c-0.875-1.595-1.899-2.941-3.022-4.078c1.281-7.669-2.661-16.523-9.188-20.229
		c-3.717-2.107-8.473-2.891-17.549-2.891c-2.981,0-5.946,0.085-8.562,0.161c-1.788,0.051-3.479,0.1-4.586,0.1
		c-7.01,0-14.43,0.068-21.317,0.884c-8.836,1.048-16.694,2.982-24.294,4.854c-1.016,0.25-2.033,0.5-3.054,0.749
		c-0.339,0.083-0.709,0.167-1.099,0.255c-1.87,0.426-4.018,0.923-6.138,1.74c-2.57-1.463-5.536-2.309-8.701-2.309h-7.167
		c-9.754,0-17.69,7.936-17.69,17.69v53.584c0,9.755,7.936,17.691,17.69,17.691h7.167c1.909,0,3.745-0.312,5.468-0.875
		c2.098,1.462,4.224,2.274,5.821,2.877c0.454,0.172,0.925,0.349,1.179,0.465c10.989,5.002,17.735,9.836,20.624,14.776
		c2.258,3.86,2.545,8.304,2.857,15.824c0.075,1.808,0.152,3.675,0.277,5.651c0.146,2.289,0.409,4.963,1.693,7.787
		c1.284,2.821,3.98,6.576,9.536,8.442c2.264,0.761,4.568,1.146,6.853,1.146c14.924,0,23.735-15.142,24.729-30.1
		c0.58-8.736-1.029-16.081-3.537-22.109c4.85-0.082,9.846-0.246,15.064-0.643l0.512-0.038c5.26-0.394,12.463-0.933,17.633-6.174
		c3.871-3.925,5.045-9.237,5.351-13.004C169.68,102.01,169.479,97.521,167.342,93.577z M62.783,78.374
		c-0.102-23.845,0.231-29.918,0.571-31.767c0.443,1.04,0.692,2.182,0.692,3.383v53.584c0,1.161-0.233,2.269-0.648,3.282
		C63.08,102.722,62.853,94.664,62.783,78.374z M42.497,103.574V49.99c0-3.143,2.548-5.69,5.69-5.69h7.167
		c3.143,0,5.691,2.548,5.691,5.69v53.584c0,3.144-2.549,5.691-5.691,5.691h-7.167C45.044,109.266,42.497,106.717,42.497,103.574z
		 M155.518,109.871c-2.096,2.125-6.338,2.355-10.506,2.672c-12.85,0.975-24.123,0.479-37.346,0.936
		c4.107,4.064,16,14.185,14.75,32.988c-0.551,8.301-5.062,18.895-12.755,18.895c-0.961,0-1.972-0.166-3.03-0.521
		c-2.578-0.865-2.889-2.695-3.074-5.611c-1.164-18.424,1.859-31.565-30.762-46.418c-2.168-0.986-4.752-1.535-6.012-3.072
		c-1.252-1.528-1.238-61.301-0.535-62.526c0.883-1.534,5.262-2.301,7.883-2.939c8.459-2.06,16.699-4.251,25.92-5.345
		c6.143-0.728,13.037-0.801,19.906-0.801c2.947,0,8.178-0.261,13.148-0.261c5.006,0,9.748,0.265,11.623,1.33
		c1.861,1.057,3.967,5.074,3.209,8.15c-0.813,3.301-3.615,3.34-7.597,3.34c-0.097,0-0.194,0-0.292,0
		c-0.587,0-1.277-0.036-1.97-0.036c-1.504,0-3.015,0.168-3.474,1.238c-1.125,2.617,0.869,3.016,3.272,3.016
		c1.054,0,2.185-0.077,3.166-0.077c5.683,0,9.543,0.812,11.297,4.008c1.004,1.831,2.336,7.526,0.896,10.288
		c-1.223,2.349-4.021,2.404-7.678,2.404c-0.593,0-2.193-0.168-3.851-0.168c-1.944,0-3.967,0.231-4.521,1.237
		c-1.603,2.908,1.201,3.233,4.051,3.233c0.818,0,1.643-0.027,2.365-0.027c0.812,0,1.599-0.006,2.354-0.006
		c3.621,0,6.537,0.138,8.328,1.743c2.963,2.658,4.286,10.442,0.221,13.628c-1.68,1.315-4.807,1.336-8.125,1.336
		c-0.993,0-2.139-0.069-3.202-0.069c-1.555,0-2.934,0.147-3.408,0.87c-0.188,0.283-0.74,1.539-0.209,2.539
		c0.385,0.726,1.613,0.81,2.972,0.81c0.407,0,0.827-0.008,1.239-0.008c1.49,0,2.973-0.042,4.383-0.042
		c3.664,0,6.839,0.282,8.391,2.312C158.121,100.977,157.727,107.631,155.518,109.871z"/>
</g>
<g id="outline_x5F_black">
	<path d="M161.316,95.272c-0.364-0.479-0.76-0.908-1.174-1.294c1.787-2.227,2.806-5.119,2.914-8.386
		c0.162-4.866-1.707-9.78-4.762-12.521c-0.094-0.084-0.188-0.166-0.283-0.246c0.192-0.293,0.375-0.604,0.549-0.935
		c2.896-5.549,0.312-13.629-0.957-15.943c-1.211-2.208-2.865-3.73-4.697-4.782c0.348-0.702,0.639-1.494,0.857-2.386
		c1.447-5.873-2.039-12.516-6.072-14.805c-2.676-1.516-6.767-2.108-14.586-2.108c-2.896,0-5.813,0.084-8.39,0.158
		c-1.911,0.055-3.563,0.103-4.759,0.103c-6.83,0-14.049,0.065-20.612,0.842c-8.466,1.004-16.142,2.894-23.564,4.721
		c-1.021,0.251-2.044,0.502-3.068,0.752c-0.364,0.089-0.764,0.18-1.184,0.275c-2.756,0.629-5.76,1.328-8.027,2.906
		c-2.108-2.052-4.98-3.323-8.148-3.323h-7.167c-6.446,0-11.69,5.244-11.69,11.69v53.584c0,6.445,5.244,11.691,11.69,11.691h7.167
		c2.428,0,4.685-0.745,6.556-2.018c0.076,0.097,0.153,0.192,0.233,0.291c1.92,2.343,4.524,3.325,6.617,4.113
		c0.572,0.216,1.112,0.42,1.55,0.617c25.992,11.834,26.367,20.86,26.989,35.813c0.073,1.774,0.149,3.608,0.271,5.522
		c0.18,2.826,0.554,8.703,7.151,10.92c1.646,0.554,3.309,0.834,4.941,0.834c11.117,0,17.954-12.621,18.742-24.496
		c0.812-12.229-3.164-21.273-7.576-27.618c0.576-0.004,1.148-0.009,1.721-0.013c7.657-0.051,14.891-0.101,22.917-0.709l0.517-0.037
		c4.791-0.358,10.221-0.766,13.81-4.403C163.977,109.839,164.789,99.818,161.316,95.272z M55.354,109.266h-7.167
		c-3.143,0-5.69-2.549-5.69-5.691V49.99c0-3.143,2.548-5.69,5.69-5.69h7.167c3.143,0,5.691,2.548,5.691,5.69v53.584
		C61.045,106.718,58.496,109.266,55.354,109.266z M155.518,109.871c-2.096,2.125-6.338,2.355-10.506,2.672
		c-12.85,0.975-24.123,0.479-37.346,0.936c4.107,4.064,16,14.185,14.75,32.988c-0.551,8.301-5.062,18.895-12.755,18.895
		c-0.961,0-1.972-0.166-3.03-0.521c-2.578-0.865-2.889-2.695-3.074-5.611c-1.164-18.424,1.859-31.565-30.762-46.418
		c-2.168-0.986-4.752-1.535-6.012-3.072c-0.136-0.166-0.258-1.023-0.365-2.42c0.4-1.177,0.626-2.434,0.626-3.744V49.99
		c0-1.106-0.164-2.172-0.453-3.188c1.352-1.265,5.163-1.951,7.539-2.53c8.459-2.06,16.699-4.251,25.92-5.345
		c6.143-0.728,13.037-0.801,19.906-0.801c2.947,0,8.178-0.261,13.148-0.261c5.006,0,9.748,0.265,11.623,1.33
		c1.861,1.057,3.967,5.074,3.209,8.15c-0.813,3.301-3.615,3.34-7.597,3.34c-0.097,0-0.194,0-0.292,0
		c-0.587,0-1.277-0.036-1.97-0.036c-1.504,0-3.015,0.168-3.474,1.238c-1.125,2.617,0.869,3.016,3.272,3.016
		c1.054,0,2.185-0.077,3.166-0.077c5.683,0,9.543,0.812,11.297,4.008c1.004,1.831,2.336,7.526,0.896,10.288
		c-1.223,2.349-4.021,2.404-7.678,2.404c-0.593,0-2.193-0.168-3.851-0.168c-1.944,0-3.967,0.231-4.521,1.237
		c-1.603,2.908,1.201,3.233,4.051,3.233c0.818,0,1.643-0.027,2.365-0.027c0.812,0,1.6-0.006,2.354-0.006
		c3.622,0,6.537,0.138,8.328,1.743c2.963,2.658,4.286,10.442,0.221,13.628c-1.68,1.315-4.807,1.336-8.125,1.336
		c-0.993,0-2.139-0.069-3.202-0.069c-1.555,0-2.934,0.147-3.408,0.87c-0.188,0.283-0.74,1.539-0.209,2.539
		c0.385,0.726,1.613,0.81,2.973,0.81c0.406,0,0.826-0.008,1.238-0.008c1.49,0,2.973-0.042,4.384-0.042
		c3.663,0,6.839,0.282,8.39,2.312C158.121,100.977,157.727,107.631,155.518,109.871z"/>
</g>
</svg>
