<?xml version="1.0" encoding="utf-8"?>
<!-- Generator: Adobe Illustrator 15.0.0, SVG Export Plug-In . SVG Version: 6.00 Build 0)  -->
<!DOCTYPE svg PUBLIC "-//W3C//DTD SVG 1.1//EN" "http://www.w3.org/Graphics/SVG/1.1/DTD/svg11.dtd">
<svg version="1.1" xmlns="http://www.w3.org/2000/svg" xmlns:xlink="http://www.w3.org/1999/xlink" x="0px" y="0px" width="200px"
	 height="200px" viewBox="0 0 200 200" enable-background="new 0 0 200 200" xml:space="preserve">
<g id="icon">
	<g id="Layer_2">
	</g>
	<g>
		<path fill="#A65E1E" d="M160.141,85.519c5.631,4.502,6.896,12.646,2.822,18.187l-42.572,59.942
			c-1.328,1.81-5.209,4.086-7.137,4.871c-3.977,1.623-8.785,1.019-12.576-2.016l-61.87-49.451
			c-5.634-4.502-6.897-12.645-2.827-18.188l44.724-60.911c0.823-1.123,1.805-2.054,2.894-2.786
			c4.273-2.881,9.396-6.272,13.889-2.682L160.141,85.519z"/>
		
			<linearGradient id="SVGID_1_" gradientUnits="userSpaceOnUse" x1="270.8604" y1="409.3193" x2="314.1919" y2="257.6592" gradientTransform="matrix(0.9747 -0.1048 -0.1568 -1.0091 -110.5174 508.1382)">
			<stop  offset="0" style="stop-color:#FFE300"/>
			<stop  offset="1" style="stop-color:#F7941E"/>
		</linearGradient>
		<path fill="url(#SVGID_1_)" d="M164.204,82.947c5.632,4.501,6.896,12.646,2.823,18.187l-44.721,60.911
			c-4.07,5.543-11.937,6.389-17.565,1.889l-61.87-49.451c-5.632-4.502-6.895-12.646-2.826-18.188l44.723-60.912
			c4.071-5.543,11.936-6.389,17.567-1.886L164.204,82.947z"/>
		<g>
			<path d="M123.629,88.284c0,0-1.277,1.565-2.697,1.665c-2.099-5.461-5.543-12.007-12.115-11.949
				c7.281,17.104,13.691,35.295,23.426,49.354c-1.53,0.896-2.963,1.881-3.967,3.237c-7.16-7.978-12.893-17.729-18.834-27.222
				c-7.816,5.23-7.459,17.62-5.957,31.012c-2.319-0.021-2.885,1.498-5.643,1.096c-3.193-16.882-3.842-29.267,2.996-38.298
				c-0.976-4.692-3.504-7.452-4.246-12.438c-4.963,3.93-10.209,7.61-16.902,10.022c-1.552-1.795-2.107-3.887-2.107-3.887
				s7.263-4.588,9.549-7.039c5.67-6.085,4.697-16.764,15.455-16.658C110.586,67.261,122.127,75.973,123.629,88.284z"/>
			<path d="M101.07,60.01c0.391,3.569-2.076,6.635-5.516,6.852c-3.439,0.213-6.546-2.507-6.938-6.076
				c-0.391-3.566,2.078-6.634,5.518-6.849C97.573,53.723,100.68,56.441,101.07,60.01z"/>
		</g>
	</g>
</g>
<g id="outline_x5F_white">
	<g>
		<g>
			<path fill="#FFFFFF" d="M94.267,30.604c2.782,0,5.634,0.947,8.068,2.893l61.869,49.45c5.632,4.501,6.896,12.646,2.823,18.187
				l-44.721,60.911c-0.976,1.328-2.173,2.379-3.498,3.158c-1.733,1.391-4.156,2.746-5.556,3.316
				c-1.426,0.58-2.957,0.877-4.512,0.877c-2.781,0-5.634-0.946-8.064-2.894l-61.87-49.451c-5.634-4.502-6.897-12.645-2.827-18.188
				l44.724-60.911c0.823-1.123,1.805-2.054,2.894-2.786c1.223-0.824,2.516-1.686,3.844-2.418
				C89.444,31.331,91.829,30.604,94.267,30.604 M94.267,18.604c-4.734,0-9.269,1.36-13.158,3.94
				c-1.522,0.871-2.915,1.794-4.218,2.673c-2.26,1.52-4.236,3.42-5.864,5.642L26.308,91.763c-3.871,5.272-5.438,11.817-4.41,18.428
				c0.996,6.412,4.341,12.179,9.419,16.236l61.869,49.45c4.446,3.558,9.973,5.519,15.557,5.519c3.129,0,6.172-0.595,9.044-1.766
				c2.064-0.842,5.21-2.541,7.869-4.553c2.462-1.572,4.586-3.564,6.322-5.93l44.723-60.914c3.871-5.267,5.439-11.812,4.412-18.425
				c-0.995-6.412-4.34-12.179-9.416-16.236l-61.869-49.45C105.375,20.564,99.849,18.604,94.267,18.604L94.267,18.604z"/>
		</g>
	</g>
</g>
<g id="outline_x5F_black">
	<g>
		<path d="M94.267,30.604c2.782,0,5.634,0.947,8.068,2.893l61.869,49.45c5.632,4.501,6.896,12.646,2.823,18.187l-44.721,60.911
			c-0.976,1.328-2.173,2.379-3.498,3.158c-1.733,1.391-4.156,2.746-5.556,3.316c-1.426,0.58-2.957,0.877-4.512,0.877
			c-2.781,0-5.634-0.946-8.064-2.894l-61.87-49.451c-5.634-4.502-6.897-12.645-2.827-18.188l44.724-60.911
			c0.823-1.123,1.805-2.054,2.894-2.786c1.223-0.824,2.516-1.686,3.844-2.418C89.444,31.331,91.829,30.604,94.267,30.604
			 M94.267,24.604c-3.612,0-7.062,1.052-10.001,3.047c-1.411,0.795-2.709,1.657-4.021,2.542c-1.687,1.134-3.162,2.553-4.379,4.214
			L31.144,95.314c-5.944,8.095-4.187,19.95,3.918,26.426l61.87,49.449c3.389,2.713,7.583,4.207,11.811,4.207
			c2.349,0,4.629-0.444,6.778-1.321c1.692-0.69,4.461-2.194,6.709-3.931c1.92-1.192,3.57-2.722,4.914-4.549l44.721-60.912
			c5.945-8.092,4.191-19.945-3.914-26.424l-61.869-49.45C102.688,26.098,98.492,24.604,94.267,24.604L94.267,24.604z"/>
	</g>
</g>
</svg>
