<?xml version="1.0" encoding="utf-8"?>
<!-- Generator: Adobe Illustrator 15.0.0, SVG Export Plug-In . SVG Version: 6.00 Build 0)  -->
<!DOCTYPE svg PUBLIC "-//W3C//DTD SVG 1.1//EN" "http://www.w3.org/Graphics/SVG/1.1/DTD/svg11.dtd">
<svg version="1.1" xmlns="http://www.w3.org/2000/svg" xmlns:xlink="http://www.w3.org/1999/xlink" x="0px" y="0px" width="200px"
	 height="200px" viewBox="0 0 200 200" enable-background="new 0 0 200 200" xml:space="preserve">
<g id="icon">
	<g id="Layer_2">
	</g>
	<g>
		<path fill="#A65E1E" d="M168.643,141.484L57.778,170.421c-3.636,0.938-7.472-0.217-10.07-3.024
			c-2.596-2.809-3.557-6.847-2.516-10.592l32.929-118.86c1.04-3.745,3.916-6.629,7.552-7.566l0,0
			c3.634-0.938,8.5-2.023,11.096,0.785l76.905,92.163c2.596,2.81,3.555,6.847,2.52,10.592
			C175.152,137.663,172.273,140.548,168.643,141.484z"/>
		
			<linearGradient id="SVGID_1_" gradientUnits="userSpaceOnUse" x1="534.3574" y1="1066.9629" x2="541.5477" y2="899.7867" gradientTransform="matrix(0.9707 -0.2404 -0.2404 -0.9707 -177.9707 1203.478)">
			<stop  offset="0" style="stop-color:#FFE300"/>
			<stop  offset="1" style="stop-color:#F7941E"/>
		</linearGradient>
		<path fill="url(#SVGID_1_)" d="M173.104,140.688L62.241,169.623c-3.635,0.938-7.473-0.217-10.07-3.025
			c-2.596-2.808-3.555-6.848-2.516-10.593L82.583,37.146c1.04-3.745,3.916-6.629,7.551-7.565l0,0
			c3.635-0.938,7.474,0.216,10.068,3.023l77.935,89.925c2.594,2.81,3.555,6.847,2.518,10.592
			C179.616,136.864,176.736,139.75,173.104,140.688z"/>
		<g>
			<path d="M119.316,127.859c0.412,1.959,0.215,3.662-0.59,5.104c-0.551,0.991-1.705,2.243-3.465,3.762
				c-1.074,0.965-2.42,1.633-4.039,2c-1.683,0.383-2.812,0.278-3.386-0.309c-1.659-1.639-2.813-4.021-3.47-7.15
				c-0.709-3.365,0.637-6.336,4.037-8.912c1.635-1.273,3.096-2.057,4.385-2.35c1.285-0.294,2.297-0.072,3.041,0.656
				C117.458,122.163,118.624,124.562,119.316,127.859z M106.083,62.173c1.354,3.977,2.121,6.395,2.304,7.254
				c0.51,2.439,0.725,5.092,0.635,7.959c1.078,7.279,2.891,18.533,5.436,33.759l-7.42-0.254c-0.492-2.336-1.568-5.816-3.232-10.443
				c-1.666-4.625-2.752-8.158-3.267-10.6c-1.11-2.987-2.332-5.68-3.663-8.076c-1.057-1.885-1.643-3.117-1.766-3.703
				c-0.975-1.83-1.756-4.154-2.348-6.972c-0.621-2.954-0.725-5.253-0.309-6.897c0.758-0.678,1.961-1.202,3.609-1.577
				C98.901,61.975,102.241,61.825,106.083,62.173z"/>
		</g>
	</g>
</g>
<g id="outline_x5F_white">
	<g>
		<g>
			<path fill="#FFFFFF" d="M92.667,29.275c2.808,0,5.54,1.168,7.535,3.328l77.934,89.924c2.595,2.811,3.556,6.848,2.519,10.593
				c-1.037,3.744-3.916,6.63-7.551,7.565L62.241,169.623c-0.831,0.213-1.671,0.309-2.504,0.309c-0.021,0-0.042,0-0.062,0
				l-1.896,0.489c-0.835,0.215-1.68,0.32-2.519,0.32c-2.813,0-5.55-1.183-7.552-3.345c-2.596-2.81-3.557-6.848-2.516-10.592
				L78.121,37.944c1.04-3.745,3.916-6.629,7.552-7.566c1.685-0.436,3.635-0.896,5.502-0.992
				C91.672,29.312,92.17,29.275,92.667,29.275 M92.666,17.275c-0.884,0-1.774,0.054-2.655,0.16
				c-2.691,0.193-5.211,0.773-7.342,1.324c-7.754,2-13.93,8.121-16.11,15.974L33.628,153.602c-2.14,7.697-0.123,16.107,5.268,21.939
				c4.237,4.578,10.2,7.2,16.364,7.2c1.857,0,3.712-0.235,5.515-0.7l0.675-0.174c1.278-0.098,2.539-0.305,3.766-0.618
				c0.019-0.005,0.038-0.01,0.057-0.015l110.862-28.938c7.729-1.992,13.906-8.115,16.084-15.972
				c2.114-7.634,0.154-15.952-5.113-21.772l-77.834-89.809c-0.082-0.096-0.168-0.191-0.254-0.284
				C104.798,19.894,98.839,17.275,92.666,17.275L92.666,17.275z"/>
		</g>
	</g>
</g>
<g id="outline_x5F_black">
	<g>
		<path d="M92.667,29.275c2.809,0,5.54,1.168,7.535,3.328l77.934,89.924c2.595,2.811,3.556,6.848,2.519,10.593
			c-1.037,3.744-3.916,6.63-7.551,7.565L62.241,169.623c-0.831,0.213-1.671,0.309-2.504,0.309c-0.021,0-0.042,0-0.062,0
			l-1.896,0.489c-0.835,0.215-1.68,0.32-2.519,0.32c-2.813,0-5.55-1.183-7.552-3.345c-2.596-2.81-3.557-6.848-2.516-10.592
			L78.121,37.944c1.04-3.745,3.916-6.629,7.552-7.566c1.685-0.436,3.635-0.896,5.502-0.992
			C91.672,29.312,92.171,29.275,92.667,29.275 M92.667,23.275c-0.692,0-1.39,0.045-2.078,0.134
			c-2.257,0.146-4.416,0.642-6.418,1.159c-5.688,1.467-10.223,5.977-11.831,11.77L39.41,155.203
			c-1.588,5.715-0.098,11.949,3.892,16.266c3.102,3.352,7.459,5.272,11.958,5.272c1.352,0,2.704-0.173,4.017-0.511l1.228-0.316
			c1.098-0.051,2.179-0.211,3.223-0.479l110.892-28.943c5.676-1.463,10.21-5.975,11.817-11.77
			c1.574-5.686,0.108-11.877-3.821-16.188l-77.88-89.861c-0.041-0.048-0.084-0.095-0.127-0.142
			C101.521,25.191,97.17,23.275,92.667,23.275L92.667,23.275z"/>
	</g>
</g>
</svg>
