<?xml version="1.0" encoding="utf-8"?>
<!-- Generator: Adobe Illustrator 15.0.0, SVG Export Plug-In . SVG Version: 6.00 Build 0)  -->
<!DOCTYPE svg PUBLIC "-//W3C//DTD SVG 1.1//EN" "http://www.w3.org/Graphics/SVG/1.1/DTD/svg11.dtd">
<svg version="1.1" xmlns="http://www.w3.org/2000/svg" xmlns:xlink="http://www.w3.org/1999/xlink" x="0px" y="0px" width="200px"
	 height="200px" viewBox="0 0 200 200" enable-background="new 0 0 200 200" xml:space="preserve">
<g id="icon">
	<g id="Layer_2">
	</g>
	<g>
		
			<radialGradient id="SVGID_1_" cx="-344.1211" cy="97.1445" r="107.3098" gradientTransform="matrix(-4.371139e-08 -1 -1.0677 4.667108e-08 210.5999 -277.2358)" gradientUnits="userSpaceOnUse">
			<stop  offset="0.6316" style="stop-color:#FFFFFF"/>
			<stop  offset="0.7479" style="stop-color:#E8E9EC"/>
			<stop  offset="0.9903" style="stop-color:#AEAFBD"/>
			<stop  offset="1" style="stop-color:#ACADBB"/>
		</radialGradient>
		<path fill="url(#SVGID_1_)" d="M128.973,173.613c-2.211,0-4.38-0.383-6.676-0.789l-1.324-0.23
			c-2.214-0.377-3.529-0.871-5.054-1.443c-1.342-0.504-2.983-1.12-5.933-1.903c-1.729,0.51-5.617,1.394-11.812,1.394
			c-1.098,0-2.235-0.029-3.38-0.086c-11.196-0.552-16.404-1.574-25.175-6.533c-8.243-4.662-11.973-12.246-11.739-23.869
			c0.067-3.389,0.05-9.469,0.031-15.351c-0.036-11.948-0.027-17.331,0.209-18.731c0.691-4.09,3.938-17.984,16.679-25.198
			c9.039-5.118,24.183-18.011,29.549-30.654c2.494-5.879,3.23-14.408,3.719-20.052c0.531-6.159,0.774-8.97,4.024-9.026
			c0.197-0.003,0.394-0.005,0.589-0.005c7.764,0,13.151,3.08,17.473,9.985c3.488,5.577,8.355,25.391-10.06,47.309
			c8.902,0.082,21.908,0.337,25.464,1.127c1.863,0.166,10.852,1.37,15.922,9.4c3.739,5.922,3.217,14.375-1.304,21.038
			c-0.868,1.281-2.513,2.271-4.522,3.039c2.472,2.186,3.861,5.43,3.912,9.137c0.052,3.738-1.33,7.373-3.607,9.484
			c-2.289,2.125-4.764,3.613-7.396,4.449c1.105,0.692,2.062,1.707,2.75,3.203c1.67,3.629,1.646,6.43-0.08,9.664
			c-1.199,2.239-3.597,4.799-8.385,5.973c1.338,3.098,1.852,8.506-3,13.785C136.779,172.061,133.325,173.613,128.973,173.613
			L128.973,173.613z"/>
		
			<linearGradient id="SVGID_2_" gradientUnits="userSpaceOnUse" x1="99.2651" y1="-18.2495" x2="99.2651" y2="-85.6006" gradientTransform="matrix(1 0 0 -1 -50 61)">
			<stop  offset="0.1758" style="stop-color:#08A4FF"/>
			<stop  offset="1" style="stop-color:#367CBD"/>
		</linearGradient>
		<path fill="url(#SVGID_2_)" d="M46.025,162.727c-2.389-0.004-4.635-0.938-6.322-2.629c-1.688-1.692-2.615-3.942-2.61-6.332
			l-1.036-52.021c0.005-4.989,4.018-8.997,8.943-8.997l7.506,0.012c2.39,0.004,4.635,0.938,6.322,2.63
			c1.688,1.691,2.615,3.939,2.611,6.331l1.034,52.021c-0.005,4.987-4.018,8.998-8.944,8.998L46.025,162.727z"/>
	</g>
</g>
<g id="outline_x5F_white">
	<path fill="#FFFFFF" d="M167.623,115.045c6.497-9.576,7.086-21.993,1.465-30.894c-6.684-10.583-17.724-12.945-21.896-13.467
		c-1.516-0.317-4.248-0.649-10.711-0.9c3.406-6.913,5.41-14.089,5.881-21.182c0.562-8.454-1.149-16.774-4.579-22.255
		c-5.984-9.565-14.196-14.213-25.103-14.214c-0.248,0-0.496,0.002-0.746,0.007c-5.229,0.091-9.742,3.454-11.497,8.568
		c-0.343,1-0.595,2.088-0.793,3.422c-0.217,1.466-0.368,3.224-0.544,5.26c-0.412,4.768-1.102,12.749-3.037,17.313
		c-4.297,10.123-17.686,21.799-25.697,26.335c-4.94,2.797-9.251,6.744-12.712,11.474c-1.645-0.491-3.37-0.751-5.135-0.753
		l-7.49-0.011c-0.006,0-0.012,0-0.019,0H45c-9.882,0-17.932,8.04-17.944,17.922c0,0.086,0,0.17,0.002,0.254l1.035,51.988
		c0.033,4.734,1.888,9.182,5.236,12.539c3.386,3.396,7.891,5.27,12.687,5.275l7.486,0.012c3.007,0,5.835-0.75,8.324-2.059
		c1.058,0.773,2.175,1.502,3.363,2.174c10.427,5.896,17.137,7.097,29.162,7.689c1.292,0.062,2.578,0.096,3.823,0.096
		c4.393,0,7.889-0.391,10.512-0.865c6.781,3.881,13.049,4.888,14.282,5.054c0.539,0.073,1.077,0.108,1.612,0.108
		c1.938,0,3.83-0.471,5.521-1.346c6.375-0.275,11.877-2.887,16.369-7.773c3.629-3.948,5.5-8.26,6.092-12.396
		c2.846-1.662,4.86-4.405,5.617-7.562c0.354-0.529,0.682-1.074,0.983-1.64c2.425-4.545,2.991-9.12,1.704-13.897
		c0.41-0.346,0.814-0.703,1.214-1.072c4.144-3.844,6.567-9.902,6.481-16.203c-0.033-2.34-0.414-4.615-1.111-6.748
		C167.512,115.209,167.568,115.125,167.623,115.045z M157.693,108.307c-2.205,3.25-15.627,4.166-15.627,4.166
		c-0.139,0.504-0.086,1.233,0.047,1.92c1.471-0.074,2.314-0.162,2.314-0.162l0.381,1.977c0.838-0.047,1.777-0.137,3.051-0.316
		c3.478-0.492,5.781-0.633,5.781-0.633c4.229,3.711,3.471,11.232,0.275,14.195c-1.449,1.346-3.393,2.779-5.854,3.646l0.521,2.7
		c0,0-2.138,0.134-5.466,0.134c-2.567,0-5.846-0.08-9.398-0.355c0.182,0.088,0.367,0.209,0.524,0.383
		c1.188,1.316,5.233,1.584,6.599,1.611c3.865,0.078,6.5,0.285,7.741,2.984c1.461,3.178,1.103,4.936,0,7
		c-0.808,1.508-2.056,2.651-3.666,3.469l1.594,1.031c0,0-3.433,1.805-9.276,1.971c0.556,0.309,1.311,0.682,2.332,1.137
		c0,0,3.734,5.367-1.932,11.533c-2.792,3.037-5.619,3.916-8.662,3.916c-1.671,0-3.408-0.266-5.238-0.582l0.845,1.904
		c0,0-5.251-0.711-10.615-3.98c-0.791-0.482-1.496-0.91-2.137-1.314c-0.593-0.166-1.224-0.338-1.937-0.52
		c0,0-3.84,1.518-11.717,1.518c-1.011,0-2.089-0.025-3.232-0.082c-10.909-0.537-15.702-1.543-23.846-6.147
		c-4.347-2.459-7.122-5.761-8.669-10.004l0.046,2.336c-0.001,1.137-0.211,2.223-0.593,3.221c-1.007-1.527-1.821-3.206-2.443-5.05
		l0.038,1.888c-0.004,3.283-2.664,5.939-5.945,5.939c-0.003,0-0.006,0-0.009,0l-7.491-0.013c-3.285-0.004-5.944-2.672-5.937-5.955
		l-1.037-52.086c0.005-3.28,2.667-5.938,5.945-5.938c0.003,0,0.007,0,0.011,0l7.49,0.012c3.285,0.005,5.943,2.671,5.938,5.956
		l0.05,2.502c0.379-1.682,1.013-3.944,2.031-6.451c0.598,1.215,0.921,2.559,0.919,3.954l0.056,2.805
		c1.691-7.329,6.115-16.136,14.782-21.043c9.924-5.618,25.336-19.144,30.833-32.092c4.381-10.327,3.627-27.227,5.033-27.251
		c0.18-0.004,0.358-0.006,0.537-0.006c5.803,0,10.641,1.721,14.93,8.576c3.234,5.17,6.533,21.661-7.065,40.267l0.211-0.229
		l4.195,3.642l-4.83,5.046c8.596,0.088,22.55,0.344,24.961,1.092c0,0,9.073,0.446,13.86,8.029
		C161.93,95.286,161.624,102.514,157.693,108.307z"/>
</g>
<g id="outline_x5F_black">
	<path d="M162.659,111.677c5.179-7.633,5.725-17.408,1.356-24.324c-5.654-8.954-15.537-10.515-18.058-10.771
		c-3.308-0.632-11.24-0.943-19.845-1.085c6.438-9.168,8.949-17.509,9.855-23.522c1.543-10.225-0.679-18.299-3.271-22.446
		c-4.866-7.775-11.227-11.395-20.018-11.396c-0.213,0-0.427,0.002-0.642,0.006c-1.64,0.028-5.554,0.755-6.459,6.87
		c-0.19,1.285-0.335,2.959-0.502,4.897c-0.472,5.455-1.183,13.699-3.491,19.14c-4.56,10.742-18.222,23.528-28.265,29.214
		c-6.542,3.705-10.775,8.994-13.51,14.016c-2.081-1.621-4.62-2.512-7.301-2.516l-7.49-0.012h-0.004h-0.005H45
		c-6.578,0-11.936,5.352-11.944,11.93v0.062l0.001,0.064l1.036,52.03c0.014,3.164,1.25,6.138,3.485,8.379
		c2.253,2.261,5.252,3.509,8.444,3.513l7.488,0.012c3.398,0,6.461-1.428,8.64-3.704c1.696,1.757,3.686,3.292,5.993,4.597
		c9.229,5.219,14.968,6.35,26.504,6.92c1.194,0.059,2.381,0.088,3.528,0.088c5.641,0,9.579-0.721,11.805-1.287
		c2.318,0.644,3.67,1.15,4.887,1.607c1.599,0.6,3.107,1.168,5.604,1.592c0.442,0.076,0.879,0.152,1.309,0.229
		c2.322,0.41,4.725,0.834,7.195,0.834c5.182,0,9.459-1.915,13.082-5.856c4.504-4.901,5.164-9.985,4.469-13.858
		c3.922-1.642,6.119-4.209,7.351-6.508c2.169-4.064,2.218-7.867,0.162-12.339c-0.146-0.315-0.3-0.616-0.462-0.901
		c1.537-0.887,3.014-1.986,4.426-3.297c2.922-2.711,4.629-7.095,4.564-11.726c-0.041-3.008-0.814-5.782-2.229-8.112
		C161.3,113.331,162.062,112.557,162.659,111.677z M53.529,159.739c-0.003,0-0.006,0-0.009,0l-7.491-0.013
		c-3.285-0.004-5.944-2.672-5.937-5.955l-1.037-52.086c0.005-3.282,2.666-5.938,5.945-5.938c0.003,0,0.007,0,0.011,0l7.49,0.012
		c3.285,0.005,5.943,2.671,5.938,5.956l1.035,52.084C59.47,157.083,56.81,159.739,53.529,159.739z M98.173,167.636
		c-1.011,0-2.089-0.024-3.232-0.081c-10.909-0.537-15.702-1.544-23.846-6.148c-2.46-1.391-4.4-3.062-5.916-5.012
		c0.187-0.834,0.293-1.698,0.294-2.588v-0.062l-0.001-0.064l-1.034-52.031c-0.006-1.345-0.247-2.651-0.677-3.886
		c2.422-5.443,6.414-10.83,12.514-14.284c9.924-5.618,25.335-19.144,30.832-32.092c4.382-10.327,3.627-27.227,5.033-27.251
		c0.182-0.001,0.36-0.003,0.539-0.003c5.803,0,10.641,1.721,14.93,8.576c3.234,5.17,6.532,21.66-7.066,40.266l-9.637,10.414
		c0,0,0,19.406-11.311,34.175c-6.298,8.225-10.969,10.297-10.969,10.297l-4.742,2.809l9.763,0.932c0,0,5.843-4.296,11.145-10.41
		c-0.218,1.331-0.168,2.638,0.178,3.879c0.631,2.263,2.175,4.257,4.596,5.97c-2.653,1.299-5.176,3.764-6.01,8.104
		c-0.91,4.737,2.288,7.874,5.88,10.128c-0.805,0.415-1.602,0.953-2.31,1.663c-1.663,1.667-2.504,3.862-2.498,6.524
		c0.012,4.89,1.174,7.145,3.638,9.137C106.449,167.042,103.102,167.636,98.173,167.636z M112.044,109.694
		c0.261,0.518,0.581,1.01,0.977,1.465c0.205,0.236,0.426,0.459,0.656,0.67c-1.124,0.284-2.16,0.641-3.064,1.064
		C111.164,111.842,111.647,110.773,112.044,109.694z M137.634,166.695c-2.792,3.037-5.618,3.916-8.663,3.916
		c-1.336,0-2.721-0.176-4.156-0.406l0.034-0.251c-0.049-0.007-4.935-0.713-9.846-3.707l-0.359-0.219
		c-5.204-3.169-6.004-3.656-6.016-8.578c-0.011-4.704,4.346-5.404,5.789-5.508c4.905,2.353,8.875,2.802,13.061,3.256
		c1.282,0.14,2.608,0.284,4.011,0.487c1.761,0.255,3.401,0.36,4.908,0.36c1.281,0,2.466-0.076,3.547-0.2
		C140.725,157.471,142.106,161.828,137.634,166.695z M148.583,147.555c-0.665,1.243-1.637,2.232-2.855,3.002l-0.144-0.271
		c-0.052,0.026-5.239,2.645-13.521,1.441c-1.473-0.214-2.836-0.361-4.153-0.505c-4.133-0.448-7.702-0.836-12.202-3.088
		c-6.688-3.344-8.764-5.422-8.224-8.234c1.075-5.594,5.979-6.083,7.327-6.11c0.297,0.117,0.596,0.233,0.905,0.347
		c8.921,3.253,20.477,3.804,27.284,3.804c0.758,0,1.449-0.007,2.08-0.018c1.608,0.353,2.788,1.078,3.503,2.633
		C150.044,143.732,149.686,145.491,148.583,147.555z M153.915,129.452c-2.281,2.116-5.778,4.455-10.606,4.455
		c-0.101,0-0.201,0-0.302-0.002c-0.079-0.003-0.159-0.003-0.243-0.003c-0.208,0-0.444,0.012-0.676,0.021
		c-6.617-0.056-17.088-0.66-25.002-3.545c-4.722-1.722-7.579-3.929-8.263-6.381c-0.717-2.571,0.996-5.218,2.08-6.566
		c1.033-1.284,5.855-2.657,10.744-2.283c0.845,0.132,1.474,0.186,1.749,0.204c11.579,1.859,20.853,0.909,21.243,0.867v-0.003
		c0.882-0.045,1.86-0.134,3.22-0.325c3.477-0.492,5.781-0.634,5.781-0.634C157.869,118.968,157.111,126.489,153.915,129.452z
		 M157.691,108.307c-1.649,2.434-9.586,3.558-13.472,3.97l-0.004-0.034c-0.09,0.01-9.179,0.942-20.286-0.855
		c-0.581-0.094-1.172-0.158-1.765-0.21c-1.966-0.325-4.789-1.098-6.128-2.645c-0.567-0.655-0.796-1.378-0.722-2.275
		c0.328-3.957,0.786-6.542,5.843-9.665c5.848-3.61,14.901-2.804,17.633-2.456l3.922,1.126c0.818-1.794,0.896-5.705,0.896-5.705
		l-8.547-2.033l-0.021,2.301c-4.501-0.149-11.019,0.295-15.985,3.364c-1.389,0.858-2.506,1.713-3.428,2.573
		c1.272-6.399,1.98-11.706,1.98-11.706l2.51-2.621c8.596,0.087,22.551,0.344,24.961,1.092c0,0,9.072,0.446,13.861,8.029
		C161.928,95.286,161.623,102.514,157.691,108.307z"/>
</g>
</svg>
