<?xml version="1.0" encoding="utf-8"?>
<!-- Generator: Adobe Illustrator 15.0.0, SVG Export Plug-In . SVG Version: 6.00 Build 0)  -->
<!DOCTYPE svg PUBLIC "-//W3C//DTD SVG 1.1//EN" "http://www.w3.org/Graphics/SVG/1.1/DTD/svg11.dtd">
<svg version="1.1" xmlns="http://www.w3.org/2000/svg" xmlns:xlink="http://www.w3.org/1999/xlink" x="0px" y="0px" width="200px"
	 height="200px" viewBox="0 0 200 200" enable-background="new 0 0 200 200" xml:space="preserve">
<g id="icon">
	<g id="Layer_2">
	</g>
	<g>
		<g opacity="0.25">
			<g>
				<path fill="#FFFFFF" d="M93.803,30.18c2.879,0,7.114,1.846,8.101,3.539c1.591,2.729-0.795,6.559-2.593,10.754
					C87.574,71.836,81.384,94.528,81.994,95.274c0.555,0.677,1.551,0.808,2.011,0.808c0.076,0,0.137-0.003,0.179-0.009
					c1.298-0.16,8.297-16.524,9.158-18.417c1.167-2.573,2.28-4.986,3.968-5.79c0.749-0.357,1.562-0.515,2.399-0.515
					c3.732,0,7.93,3.144,8.891,5.841c0.857,2.408-4.765,14.357-6.42,18.009c-1.125,2.483-5.385,10.708-1.749,10.708
					c0.039,0,0.079,0,0.119-0.002c1.912-0.093,5.429-9.604,5.882-10.603c1.283-2.833,2.313-4.977,4.703-5.038
					c0.031-0.001,0.062-0.001,0.094-0.001c2.81,0,7.011,3.133,8.174,4.586c2.049,2.568,1.369,5.865-0.625,10.267
					c-1.135,2.498-5.568,10.448-1.86,10.621c0.022,0.002,0.044,0.002,0.065,0.002c1.492,0,2.203-2.343,2.848-3.763
					c1.289-2.844,2.214-4.957,4.578-4.957c0.302,0,0.627,0.035,0.979,0.107c2.834,0.576,5.444,3.727,5.672,5.566
					c0.455,3.701-5.733,15.016-7.812,19.596c-2.413,5.322-4.896,10.637-7.661,15.121c-4.152,6.73-6.934,10.775-12.921,15.328
					c-3.284,2.498-6.702,3.826-10.449,3.826c-1.666,0-3.397-0.262-5.21-0.801l4.771,2.162c2.621,1.188,3.783,4.276,2.593,6.897
					l-2.711,5.979c-0.872,1.924-2.766,3.061-4.749,3.061c-0.72,0-1.451-0.15-2.15-0.467l-44.694-20.267
					c-2.624-1.19-3.784-4.276-2.596-6.897l2.711-5.98c0.873-1.922,2.767-3.059,4.749-3.059c0.72,0,1.452,0.147,2.15,0.467
					l14.975,6.789c-2.986-1.424-5.181-2.5-5.646-2.801c-5.251-3.392-12.153-9.791-12.236-18.56
					c-0.183-19.78,2.158-35.659,13.839-41.633c-0.059-1.168-0.005-1.469,0.065-1.469c0.075,0,0.169,0.341,0.169,0.341l6.597-1.767
					c0,0-0.086,0.292-0.233,0.77c0.117-0.021,0.23-0.047,0.348-0.065c0,0,6.545-21.917,21.525-51.77
					c1.596-3.178,3.41-6.306,5.919-7.127C92.808,30.24,93.283,30.18,93.803,30.18 M93.803,18.18c-1.804,0-3.527,0.264-5.121,0.784
					c-7.56,2.475-11.181,9.686-12.92,13.15C65.675,52.213,59.309,68.779,56.067,77.987l-3.127-0.004l-3.575,3.744
					c-0.625,0.657-1.137,1.334-1.556,2.016c-13.959,10.58-15.808,30.726-15.634,49.46c0.022,2.281,0.321,4.539,0.882,6.75
					c-1.573,1.496-2.874,3.299-3.802,5.342l-2.712,5.984c-3.918,8.641-0.075,18.859,8.566,22.781l44.697,20.268
					c2.254,1.021,4.644,1.537,7.105,1.537c6.742,0,12.896-3.967,15.679-10.105l2.71-5.977c0.787-1.734,1.261-3.533,1.446-5.332
					c1.079-0.645,2.143-1.365,3.188-2.16c7.7-5.855,11.435-11.395,15.866-18.578c3.177-5.148,5.88-10.957,8.378-16.465
					c0.373-0.822,0.998-2.096,1.66-3.441c4.932-10.035,7.872-16.562,7.133-22.576c-0.709-5.737-4.933-11.241-10.371-14.115
					c-0.219-3.172-1.263-6.548-3.814-9.748c-1.145-1.428-4.23-4.433-8.337-6.601c0.493-2.908,0.294-5.253-0.546-7.604
					c-2.103-5.907-7.764-10.84-14.135-12.847c1.399-3.55,2.924-7.268,4.571-11.112c0.279-0.651,0.575-1.291,0.864-1.917
					c2.064-4.479,5.52-11.976,1.068-19.61C108.673,21.507,100.071,18.18,93.803,18.18L93.803,18.18z"/>
			</g>
			<g>
				<g>
					
						<radialGradient id="SVGID_1_" cx="132.2363" cy="-26.8525" r="79.6539" gradientTransform="matrix(1 0 0 -1 -50 61)" gradientUnits="userSpaceOnUse">
						<stop  offset="0.6316" style="stop-color:#FFFFFF"/>
						<stop  offset="0.7479" style="stop-color:#E8E9EC"/>
						<stop  offset="0.9903" style="stop-color:#AEAFBD"/>
						<stop  offset="1" style="stop-color:#ACADBB"/>
					</radialGradient>
					<path fill="url(#SVGID_1_)" d="M92.207,169.576c-3.115,0-6.287-0.752-9.697-2.297c-3.417-1.551-25.779-11.853-27.726-13.109
						c-4.056-2.619-13.503-9.914-13.609-21.051c-0.2-21.713,2.315-42.275,21.466-46.468c1.887-5.826,8.638-25.538,21.164-50.498
						c1.78-3.545,3.988-7.428,7.667-8.633c0.694-0.227,1.478-0.341,2.332-0.341c3.663,0,9.014,2.15,10.693,5.027
						c2.092,3.59,0.282,7.516-1.468,11.312c-0.32,0.698-0.649,1.411-0.961,2.136c-5.622,13.107-9.838,24.795-12.68,33.534
						c0.184-0.417,0.372-0.844,0.565-1.284c0.312-0.71,0.541-1.232,0.659-1.49c1.33-2.934,2.707-5.97,5.41-7.257
						c1.122-0.535,2.363-0.806,3.689-0.806c4.755,0,10.229,3.661,11.716,7.835c0.616,1.728,0.325,4.27-2.679,11.55
						c0.676-0.279,1.439-0.447,2.312-0.47l0.17-0.002c4.232,0,9.17,4.03,10.516,5.711c2.775,3.479,2.083,7.57,0.619,11.361
						c0.605-0.201,1.281-0.312,2.045-0.312c0.504,0,1.035,0.056,1.578,0.166c4.068,0.826,7.669,5.056,8.051,8.14
						c0.432,3.508-2.457,9.733-6.277,17.51c-0.711,1.445-1.34,2.724-1.779,3.693c-2.379,5.243-4.942,10.758-7.84,15.454
						c-4.164,6.748-7.16,11.201-13.658,16.144C100.551,168.121,96.535,169.576,92.207,169.576L92.207,169.576z"/>
					<path d="M93.803,30.18c2.879,0,7.114,1.846,8.101,3.539c1.591,2.729-0.795,6.559-2.593,10.754
						C87.574,71.836,81.384,94.528,81.994,95.274c0.556,0.677,1.551,0.808,2.011,0.808c0.076,0,0.137-0.003,0.179-0.009
						c1.298-0.16,8.297-16.524,9.158-18.417c1.167-2.573,2.28-4.986,3.968-5.79c0.749-0.357,1.562-0.515,2.399-0.515
						c3.732,0,7.93,3.144,8.891,5.841c0.857,2.408-4.765,14.357-6.42,18.009c-1.125,2.483-5.385,10.708-1.749,10.708
						c0.039,0,0.079,0,0.119-0.002c1.912-0.093,5.429-9.604,5.882-10.603c1.283-2.833,2.313-4.977,4.703-5.038
						c0.031-0.001,0.062-0.001,0.094-0.001c2.81,0,7.011,3.133,8.174,4.586c2.049,2.568,1.369,5.865-0.625,10.267
						c-1.135,2.498-5.568,10.448-1.86,10.621c0.022,0.002,0.044,0.002,0.065,0.002c1.492,0,2.203-2.343,2.848-3.763
						c1.29-2.844,2.214-4.957,4.578-4.957c0.302,0,0.627,0.035,0.979,0.107c2.834,0.576,5.444,3.727,5.672,5.566
						c0.455,3.701-5.733,15.016-7.812,19.596c-2.413,5.322-4.896,10.637-7.661,15.121c-4.152,6.73-6.934,10.775-12.921,15.328
						c-3.288,2.504-6.709,3.836-10.46,3.836c-2.634,0-5.432-0.658-8.458-2.029c-6.047-2.742-25.82-11.918-27.337-12.896
						c-5.251-3.391-12.153-9.791-12.236-18.559c-0.214-23.211,3.035-41.059,20.785-43.823c0,0,6.545-21.917,21.525-51.77
						c1.596-3.178,3.41-6.306,5.919-7.127C92.808,30.24,93.283,30.18,93.803,30.18 M93.803,24.18L93.803,24.18
						c-1.171,0-2.268,0.164-3.261,0.488c-5.18,1.696-7.938,7.188-9.419,10.139c-11.79,23.495-18.391,41.997-20.826,49.342
						c-8.471,2.384-14.536,8.15-18.057,17.185c-2.945,7.557-4.199,17.367-4.065,31.812c0.084,8.869,5.545,17.451,14.981,23.543
						c2.422,1.563,27.863,13.207,28.114,13.321c3.755,1.701,7.435,2.564,10.937,2.564c4.94,0,9.682-1.703,14.094-5.062
						c6.893-5.242,10.174-10.115,14.395-16.953c2.99-4.848,5.601-10.461,8.02-15.793c0.411-0.906,1.026-2.16,1.739-3.608
						c4.937-10.043,7.055-15.199,6.562-19.197c-0.58-4.696-5.455-9.702-10.432-10.714c-0.061-0.014-0.12-0.023-0.18-0.036
						c0.561-3.148,0.324-6.801-2.312-10.104c-1.294-1.616-5.925-5.702-10.864-6.647c1.604-4.609,1.785-7.144,1.021-9.284
						c-1.896-5.325-8.557-9.826-14.541-9.826c-0.816,0-1.611,0.078-2.38,0.233c2.15-5.786,4.653-12.121,7.495-18.746
						c0.3-0.701,0.617-1.389,0.929-2.063c1.877-4.072,4.212-9.14,1.334-14.078C104.607,26.445,97.779,24.18,93.803,24.18
						L93.803,24.18z"/>
				</g>
				<g>
					
						<linearGradient id="SVGID_2_" gradientUnits="userSpaceOnUse" x1="115.9219" y1="-74.9683" x2="115.9219" y2="-116.0269" gradientTransform="matrix(1 0 0 -1 -50 61)">
						<stop  offset="0.1758" style="stop-color:#08A4FF"/>
						<stop  offset="1" style="stop-color:#367CBD"/>
					</linearGradient>
					<path fill="url(#SVGID_2_)" d="M86.911,186.865c-1.173,0-2.313-0.246-3.387-0.734l-44.695-20.266
						c-4.125-1.871-5.958-6.748-4.089-10.871l2.711-5.979c1.329-2.931,4.266-4.82,7.481-4.82c1.174,0,2.314,0.246,3.39,0.734
						l44.695,20.266c4.124,1.873,5.957,6.748,4.086,10.871l-2.71,5.979C93.064,184.973,90.128,186.865,86.911,186.865z"/>
					<g>
						<path d="M44.932,147.195c0.72,0,1.452,0.147,2.15,0.467l44.696,20.266c2.621,1.189,3.783,4.277,2.593,6.898l-2.711,5.979
							c-0.872,1.924-2.766,3.062-4.749,3.062c-0.72,0-1.451-0.15-2.15-0.468l-44.694-20.266c-2.624-1.191-3.784-4.277-2.596-6.898
							l2.711-5.979C41.055,148.332,42.949,147.195,44.932,147.195 M44.932,141.195L44.932,141.195c-4.39,0-8.399,2.582-10.213,6.58
							l-2.712,5.979c-2.552,5.629-0.048,12.285,5.581,14.841l44.695,20.268c1.469,0.666,3.025,1.002,4.628,1.002
							c4.392,0,8.401-2.584,10.213-6.584l2.71-5.977c2.555-5.628,0.052-12.285-5.577-14.841L49.56,142.197
							C48.094,141.531,46.536,141.195,44.932,141.195L44.932,141.195z"/>
					</g>
				</g>
			</g>
		</g>
		
			<radialGradient id="SVGID_3_" cx="159.9414" cy="-33.1274" r="78.7461" gradientTransform="matrix(1 0 0 -1 -50 61)" gradientUnits="userSpaceOnUse">
			<stop  offset="0.6316" style="stop-color:#FFFFFF"/>
			<stop  offset="0.7479" style="stop-color:#E8E9EC"/>
			<stop  offset="0.9903" style="stop-color:#AEAFBD"/>
			<stop  offset="1" style="stop-color:#ACADBB"/>
		</radialGradient>
		<path fill="url(#SVGID_3_)" d="M113.073,173.508c-4.649,0-9.035-1.715-13.407-5.24c-2.923-2.356-22.001-17.938-23.56-19.633
			c-3.271-3.553-10.591-12.979-7.903-23.787c5.12-20.582,12.473-39.628,31.437-39.628c0.323,0,0.65,0.006,0.98,0.018
			c3.284-5.165,14.756-22.56,33.135-43.59c2.611-2.988,5.722-6.195,9.586-6.438c0.128-0.008,0.257-0.012,0.39-0.012
			c4.051,0,10.039,4.234,11.047,7.811c1.127,4-1.609,7.349-4.256,10.587c-0.484,0.594-0.981,1.202-1.463,1.824
			c-8.727,11.282-15.736,21.544-20.677,29.292c0.288-0.365,1.705-2.163,1.882-2.381c2.021-2.508,4.113-5.103,7.057-5.673
			c0.503-0.098,1.022-0.147,1.544-0.147c5.731,0,11.175,5.944,11.608,10.81c0.164,1.829-0.757,4.219-5.496,10.525
			c0.285-0.041,0.58-0.062,0.887-0.062c0.488,0,0.986,0.058,1.48,0.173c4.159,0.962,8.01,6.188,8.915,8.203
			c1.818,4.072,0.114,7.865-2.26,11.172c0.155-0.012,0.313-0.018,0.476-0.018c1.006,0,2.043,0.256,3.082,0.762
			c3.733,1.822,6.159,6.816,5.758,9.898c-0.461,3.504-4.816,8.809-10.463,15.379c-1.051,1.221-1.979,2.301-2.647,3.131
			c-3.613,4.479-7.476,9.174-11.461,13c-5.718,5.488-9.733,9.049-17.263,12.209C118.566,172.912,115.816,173.508,113.073,173.508
			L113.073,173.508z"/>
		
			<linearGradient id="SVGID_4_" gradientUnits="userSpaceOnUse" x1="134.0449" y1="-65.1548" x2="134.0449" y2="-115.524" gradientTransform="matrix(1 0 0 -1 -50 61)">
			<stop  offset="0.1758" style="stop-color:#08A4FF"/>
			<stop  offset="1" style="stop-color:#367CBD"/>
		</linearGradient>
		<path fill="url(#SVGID_4_)" d="M101.08,188.594c-1.866,0-3.696-0.645-5.152-1.818l-38.197-30.813
			c-3.524-2.848-4.078-8.026-1.236-11.549l4.121-5.108c1.567-1.941,3.897-3.056,6.394-3.056c1.868,0,3.699,0.646,5.155,1.822
			l38.196,30.812c3.521,2.844,4.076,8.023,1.234,11.547l-4.123,5.109C105.907,187.48,103.577,188.594,101.08,188.594z"/>
		
			<linearGradient id="SVGID_5_" gradientUnits="userSpaceOnUse" x1="133.7881" y1="18.3506" x2="108.4949" y2="-61.6467" gradientTransform="matrix(1 0 0 -1 -50 61)">
			<stop  offset="0.1758" style="stop-color:#96DC00"/>
			<stop  offset="1" style="stop-color:#366100"/>
		</linearGradient>
		<path fill="url(#SVGID_5_)" d="M69.236,48.937c-2.116,0.247-4.227,0.567-6.304,0.959l-3.55,0.669l-0.033-21.542l3.208,0.217
			c2.359,0.16,4.729,0.424,7.08,0.791l1.237-13.601l42.084,24.883L69.666,63.465L69.236,48.937z"/>
		<path opacity="0.25" enable-background="new    " d="M102.277,87.638c0,0-5.175,8.684-9.59,12.812
			c-4.418,4.128,0.181,0.581,1.783-9.13c0.945-5.735,0.978-3.624,0.978-3.624L102.277,87.638z"/>
	</g>
</g>
<g id="outline_x5F_white">
	<path fill="#FFFFFF" d="M165.73,112.881c0.584-3.125,0.418-6.652-1.252-10.391c-0.758-1.688-2.994-5.363-6.418-8.48
		c1.205-2.691,1.6-5.01,1.377-7.494c-0.529-5.931-4.629-12.328-10.467-15.982c2.242-3.086,4.648-6.304,7.206-9.612
		c0.433-0.558,0.878-1.102,1.314-1.636c3.12-3.82,8.346-10.214,5.946-18.722c-1.345-4.771-5.037-8.173-7.899-10.187
		c-2.711-1.906-6.96-4.18-11.806-4.181c-0.326,0-0.645,0.01-0.957,0.03c-7.93,0.498-13.242,6.576-15.795,9.497
		c-0.666,0.762-1.312,1.513-1.961,2.265l-12.17-7.195L79.539,11.098L63.2,1.438l-1.702,18.709l-11.164-0.755l0.02,12.859
		l0.022,14.714l0.022,14.451l10.146-1.913l0.546,18.458l16.899-8.647l34.218-17.509l2.344-1.199
		C106.194,61.081,100.072,69.77,96.32,75.36c-0.313-0.024-0.63-0.037-0.95-0.037c-0.005,0-0.01,0-0.015,0
		c-1.522,0-5.334,0.339-8.388,3.391c-16.148,6.754-22.977,25.788-27.498,43.96c-0.549,2.209-0.826,4.465-0.837,6.74
		c-1.902,1.061-3.608,2.488-5.019,4.236l-4.124,5.113c-5.955,7.377-4.797,18.233,2.585,24.196l38.202,30.817
		c3.055,2.462,6.891,3.814,10.804,3.814c5.232,0,10.115-2.334,13.398-6.406l4.121-5.104c1.195-1.481,2.104-3.104,2.733-4.801
		c1.209-0.354,2.419-0.783,3.627-1.291c8.929-3.746,13.927-8.173,20.015-14.017c4.368-4.192,8.439-9.137,12.234-13.844
		c0.564-0.699,1.489-1.775,2.467-2.912c7.289-8.482,11.771-14.064,12.561-20.072C172.986,123.413,170.275,117.025,165.73,112.881z
		 M72.524,58.633L72.14,45.636c-3.267,0.265-6.525,0.701-9.763,1.312l-0.022-14.715c3.35,0.227,6.682,0.668,9.974,1.319
		l1.102-12.124l33.312,19.696L72.524,58.633z M160.339,127.582c-0.485,3.695-9.312,13.1-12.471,17.014
		c-3.668,4.549-7.402,9.072-11.203,12.721c-5.705,5.476-9.41,8.695-16.347,11.605c-2.465,1.033-4.86,1.578-7.229,1.578
		c-2.914,0-5.786-0.824-8.688-2.572l4.076,3.289c2.239,1.807,2.59,5.088,0.783,7.328l-4.121,5.107
		c-1.031,1.277-2.537,1.938-4.06,1.938c-1.148,0-2.305-0.377-3.27-1.153l-38.195-30.812c-2.241-1.811-2.593-5.09-0.785-7.33
		l4.122-5.109c1.029-1.274,2.537-1.938,4.059-1.938c1.149,0,2.307,0.379,3.271,1.155l12.797,10.324
		c-2.535-2.127-4.389-3.719-4.765-4.127c-4.234-4.598-9.314-12.521-7.198-21.031c4.776-19.196,11.019-33.981,23.823-36.84
		c0.229-1.112,0.355-1.406,0.425-1.406c0.078,0,0.084,0.373,0.084,0.373l6.831-0.058c0,0-0.156,0.26-0.42,0.687
		c0.119,0.01,0.233,0.013,0.354,0.024c0,0,11.825-19.58,33.803-44.729c2.342-2.678,4.883-5.253,7.516-5.418
		c0.066-0.003,0.134-0.005,0.201-0.005c2.809,0,7.545,3.45,8.158,5.625c0.856,3.039-2.41,6.151-5.203,9.762
		c-18.215,23.553-29.892,43.971-29.485,44.846c0.428,0.926,1.618,1.283,1.92,1.322c0.008,0.001,0.017,0.001,0.024,0.001
		c1.401,0,12.154-13.931,13.453-15.538c1.772-2.2,3.455-4.257,5.293-4.613c0.322-0.062,0.647-0.092,0.974-0.092
		c4.147,0,8.331,4.839,8.62,8.077c0.229,2.546-8.207,12.708-10.725,15.828c-1.729,2.146-8.027,9.165-4.258,9.956
		c0.043,0.008,0.088,0.014,0.135,0.014c2.002,0,7.543-7.971,8.215-8.805c1.721-2.131,3.113-3.796,5.012-3.796
		c0.258,0,0.525,0.031,0.804,0.095c2.737,0.634,6.085,4.792,6.854,6.509c1.34,3-0.142,6.021-3.176,9.783
		c-1.724,2.135-8.008,8.723-4.461,9.818c0.139,0.041,0.273,0.062,0.407,0.062c1.304,0,2.454-1.856,3.354-2.975
		c1.707-2.115,3.008-3.765,4.826-3.765c0.536,0,1.118,0.144,1.77,0.459C158.84,122.038,160.579,125.743,160.339,127.582z"/>
</g>
<g id="outline_x5F_black">
	<g>
		<path d="M158.874,115.379c-0.056-0.025-0.11-0.053-0.167-0.078c1.331-2.908,2.018-6.502,0.294-10.361
			c-0.858-1.912-4.313-7.007-8.854-9.155c2.709-4.061,3.519-6.469,3.315-8.732c-0.532-5.963-6.815-13.132-13.979-13.525
			c3.529-5.062,7.541-10.571,11.949-16.273c0.465-0.601,0.945-1.187,1.414-1.761c2.838-3.474,6.37-7.796,4.819-13.299
			c-1.369-4.859-8.531-9.997-13.933-9.998c-0.197,0-0.389,0.006-0.578,0.018c-5.438,0.342-9.483,4.971-11.657,7.458
			c-17.298,19.794-28.321,36.054-32.518,42.555c-20.591,0.437-28.586,21.393-33.687,41.896c-0.75,3.014-0.84,6.158-0.326,9.327
			c-2.612,0.48-4.98,1.859-6.683,3.968l-4.123,5.113c-3.879,4.805-3.124,11.877,1.685,15.762l38.199,30.816
			c1.99,1.604,4.488,2.483,7.037,2.483c3.407,0,6.59-1.52,8.729-4.172l4.121-5.106c1.453-1.802,2.256-3.921,2.439-6.07
			c2.063-0.311,4.16-0.902,6.27-1.787c7.989-3.354,12.385-7.25,18.18-12.811c4.113-3.949,8.045-8.728,11.719-13.281
			c0.625-0.775,1.535-1.832,2.588-3.059c7.295-8.486,10.637-12.947,11.162-16.941C166.902,123.672,163.436,117.605,158.874,115.379z
			 M109.26,178.546l-4.121,5.106c-1.031,1.277-2.537,1.939-4.06,1.939c-1.148,0-2.305-0.377-3.27-1.154l-38.195-30.812
			c-2.241-1.812-2.593-5.09-0.785-7.33l4.122-5.108c1.03-1.275,2.538-1.939,4.059-1.939c1.149,0,2.306,0.379,3.271,1.156
			l38.195,30.813C110.716,173.025,111.066,176.307,109.26,178.546z M160.339,127.582c-0.485,3.695-9.312,13.1-12.471,17.014
			c-3.668,4.549-7.402,9.072-11.203,12.721c-5.705,5.476-9.41,8.695-16.347,11.605c-1.716,0.721-3.397,1.188-5.061,1.415
			c-0.697-1.425-1.697-2.729-3.011-3.789l-38.198-30.813c-0.872-0.703-1.846-1.259-2.876-1.672c-0.657-2.686-0.79-5.554-0.059-8.494
			c5.328-21.414,12.473-37.352,28.525-37.351c0.833,0,1.69,0.043,2.572,0.13c0,0,11.825-19.58,33.803-44.729
			c2.342-2.678,4.883-5.253,7.516-5.418c0.066-0.003,0.134-0.005,0.201-0.005c2.809,0,7.545,3.45,8.158,5.625
			c0.856,3.039-2.41,6.151-5.203,9.762c-18.215,23.553-29.892,43.971-29.485,44.846c0.428,0.926,1.618,1.283,1.92,1.322
			c0.008,0.001,0.017,0.001,0.024,0.001c1.401,0,12.154-13.931,13.453-15.538c1.772-2.2,3.455-4.257,5.293-4.613
			c0.322-0.062,0.647-0.092,0.974-0.092c4.147,0,8.331,4.839,8.62,8.077c0.229,2.546-8.207,12.708-10.725,15.828
			c-1.729,2.146-8.027,9.165-4.258,9.956c0.043,0.008,0.088,0.014,0.135,0.014c2.002,0,7.543-7.971,8.215-8.805
			c1.719-2.131,3.113-3.796,5.012-3.796c0.258,0,0.525,0.031,0.804,0.095c2.737,0.634,6.085,4.792,6.854,6.509
			c1.34,3-0.142,6.021-3.176,9.783c-1.724,2.135-8.008,8.723-4.461,9.818c0.139,0.041,0.273,0.062,0.407,0.062
			c1.304,0,2.454-1.856,3.354-2.975c1.707-2.115,3.008-3.765,4.826-3.765c0.536,0,1.118,0.144,1.77,0.459
			C158.84,122.038,160.579,125.743,160.339,127.582z"/>
		<path d="M56.376,46.958l0.011,7.226l7.1-1.339c0.943-0.178,1.894-0.34,2.848-0.488l0.191,6.455l0.281,9.487l8.449-4.324
			l34.219-17.509l9.697-4.962l-9.377-5.544l-33.31-19.697l-8.17-4.83l-0.859,9.451l-0.523,5.75
			c-1.391-0.164-2.784-0.293-4.174-0.387l-6.415-0.434l0.01,6.43L56.376,46.958z M72.329,33.552l1.102-12.124l33.312,19.696
			L72.524,58.633L72.14,45.636c-3.267,0.265-6.525,0.701-9.763,1.312l-0.022-14.715C65.705,32.46,69.037,32.901,72.329,33.552z"/>
	</g>
</g>
</svg>
