<?xml version="1.0" encoding="utf-8"?>
<!-- Generator: Adobe Illustrator 15.0.0, SVG Export Plug-In . SVG Version: 6.00 Build 0)  -->
<!DOCTYPE svg PUBLIC "-//W3C//DTD SVG 1.1//EN" "http://www.w3.org/Graphics/SVG/1.1/DTD/svg11.dtd">
<svg version="1.1" xmlns="http://www.w3.org/2000/svg" xmlns:xlink="http://www.w3.org/1999/xlink" x="0px" y="0px" width="200px"
	 height="200px" viewBox="0 0 200 200" enable-background="new 0 0 200 200" xml:space="preserve">
<g id="icon">
	<g id="Layer_2">
	</g>
	<g>
		<g>
			<defs>
				<filter id="Adobe_OpacityMaskFilter" filterUnits="userSpaceOnUse" x="44.666" y="29.4" width="125.764" height="125.765">
					<feColorMatrix  type="matrix" values="1 0 0 0 0  0 1 0 0 0  0 0 1 0 0  0 0 0 1 0"/>
				</filter>
			</defs>
			<mask maskUnits="userSpaceOnUse" x="44.666" y="29.4" width="125.764" height="125.765" id="SVGID_1_">
				<g filter="url(#Adobe_OpacityMaskFilter)">
					
						<linearGradient id="SVGID_2_" gradientUnits="userSpaceOnUse" x1="41.8901" y1="1519.6299" x2="41.8901" y2="1468.1619" gradientTransform="matrix(0.7071 0.7071 0.7071 -0.7071 -1016.1281 1156.7158)">
						<stop  offset="0" style="stop-color:#FFFFFF"/>
						<stop  offset="1" style="stop-color:#000000"/>
					</linearGradient>
					<path fill="url(#SVGID_2_)" d="M153.54,46.29c-22.521-22.52-59.031-22.519-81.551,0.001
						C59.421,58.859,53.854,75.786,55.331,92.208c1.283,14.292-2.275,18.998-5.769,22.49c-2.457,2.459-3.556,3.557-3.556,3.557
						c-3.802,3.804,0.759,14.531,10.186,23.959l0.711,0.711l0.713,0.714c9.428,9.428,20.156,13.987,23.959,10.186
						c0,0,1.098-1.1,3.556-3.557c3.493-3.494,8.198-7.052,22.491-5.767c16.421,1.476,33.349-4.092,45.916-16.66
						C176.059,105.32,176.061,68.809,153.54,46.29z"/>
				</g>
			</mask>
			
				<radialGradient id="SVGID_3_" cx="41.8901" cy="1554.502" r="63.2244" gradientTransform="matrix(0.7071 0.7071 0.7071 -0.7071 -1016.1281 1156.7158)" gradientUnits="userSpaceOnUse">
				<stop  offset="0.1958" style="stop-color:#FFFFB5"/>
				<stop  offset="0.2398" style="stop-color:#FFFDA6;stop-opacity:0.937"/>
				<stop  offset="0.3246" style="stop-color:#FFF77E;stop-opacity:0.8155"/>
				<stop  offset="0.4405" style="stop-color:#FFED3F;stop-opacity:0.6496"/>
				<stop  offset="0.545" style="stop-color:#FFE300;stop-opacity:0.5"/>
				<stop  offset="0.6531" style="stop-color:#FFD600;stop-opacity:0.4287"/>
				<stop  offset="0.8507" style="stop-color:#FFB500;stop-opacity:0.2984"/>
				<stop  offset="1" style="stop-color:#FF9800;stop-opacity:0.2"/>
			</radialGradient>
			<path mask="url(#SVGID_1_)" fill="url(#SVGID_3_)" d="M153.54,46.29c-22.521-22.52-59.031-22.519-81.551,0.001
				C59.421,58.859,53.854,75.786,55.331,92.208c1.283,14.292-2.275,18.998-5.769,22.49c-2.457,2.459-3.556,3.557-3.556,3.557
				c-3.802,3.804,0.759,14.531,10.186,23.959l0.711,0.711l0.713,0.714c9.428,9.428,20.156,13.987,23.959,10.186
				c0,0,1.098-1.1,3.556-3.557c3.493-3.494,8.198-7.052,22.491-5.767c16.421,1.476,33.349-4.092,45.916-16.66
				C176.059,105.32,176.061,68.809,153.54,46.29z"/>
			
				<radialGradient id="SVGID_4_" cx="41.8931" cy="1449.5654" r="24.4355" gradientTransform="matrix(0.7071 0.7071 0.4712 -0.4712 -651.6957 792.2828)" gradientUnits="userSpaceOnUse">
				<stop  offset="0.1958" style="stop-color:#FFAE72"/>
				<stop  offset="0.3604" style="stop-color:#F0A170"/>
				<stop  offset="0.6777" style="stop-color:#C8806C"/>
				<stop  offset="1" style="stop-color:#9A5966"/>
			</radialGradient>
			<path fill="url(#SVGID_4_)" d="M55.899,142.506l0.712,0.713l0.712,0.711c9.428,9.428,13.99,20.154,10.186,23.959
				c2.33-2.33,15.682-15.682,15.682-15.682c3.803-3.803-0.758-14.531-10.186-23.959l-0.712-0.711l-0.712-0.713
				c-9.428-9.428-20.154-13.988-23.958-10.184c0,0-13.352,13.352-15.682,15.682C35.745,128.518,46.471,133.078,55.899,142.506z"/>
			
				<radialGradient id="SVGID_5_" cx="41.8896" cy="1555.0205" r="62.8559" gradientTransform="matrix(0.7071 0.7071 0.7071 -0.7071 -1016.1281 1156.7158)" gradientUnits="userSpaceOnUse">
				<stop  offset="0.1958" style="stop-color:#FFFFB5"/>
				<stop  offset="0.2398" style="stop-color:#FFFDA6"/>
				<stop  offset="0.3246" style="stop-color:#FFF77E"/>
				<stop  offset="0.4405" style="stop-color:#FFED3F"/>
				<stop  offset="0.545" style="stop-color:#FFE300"/>
				<stop  offset="0.6531" style="stop-color:#FFD600"/>
				<stop  offset="0.8507" style="stop-color:#FFB500"/>
				<stop  offset="1" style="stop-color:#FF9800"/>
			</radialGradient>
			<path fill="url(#SVGID_5_)" d="M153.54,46.29c-22.521-22.52-59.031-22.519-81.551,0.001
				C59.421,58.859,53.854,75.786,55.331,92.208c1.283,14.292-2.275,18.998-5.769,22.49c-2.457,2.459-3.556,3.557-3.556,3.557
				c-1.558,1.56-1.71,4.279-0.7,7.599c3.301,5.727,7.384,11.125,12.28,16.021c5.17,5.168,10.9,9.428,16.984,12.817
				c3.047,0.814,5.539,0.595,7.004-0.868c0,0,1.098-1.101,3.556-3.558c3.493-3.494,8.198-7.051,22.491-5.766
				c16.421,1.475,33.348-4.092,45.916-16.66C176.059,105.32,176.061,68.809,153.54,46.29z"/>
			
				<radialGradient id="SVGID_6_" cx="41.7085" cy="1549.752" r="99.975" gradientTransform="matrix(0.7071 0.7071 0.7071 -0.7071 -1016.1281 1156.7158)" gradientUnits="userSpaceOnUse">
				<stop  offset="0" style="stop-color:#FFFFF8"/>
				<stop  offset="0.3865" style="stop-color:#FFFFB8;stop-opacity:0.6095"/>
				<stop  offset="1" style="stop-color:#FFFF97;stop-opacity:0"/>
			</radialGradient>
			<path fill="url(#SVGID_6_)" d="M153.54,46.29c-22.521-22.52-59.031-22.519-81.551,0.001
				C59.421,58.859,53.854,75.786,55.331,92.208c1.283,14.292-2.275,18.998-5.769,22.49c-2.457,2.459-3.556,3.557-3.556,3.557
				c-3.802,3.804,0.759,14.531,10.186,23.959l0.711,0.711l0.713,0.714c9.428,9.428,20.156,13.987,23.959,10.186
				c0,0,1.098-1.1,3.556-3.557c3.493-3.494,8.198-7.052,22.491-5.767c16.421,1.476,33.349-4.092,45.916-16.66
				C176.059,105.32,176.061,68.809,153.54,46.29z M106.038,139.857c-12.947-0.775-17.318,2.584-20.586,5.852
				c-2.301,2.301-3.327,3.328-3.327,3.328c-3.558,3.559-13.177-0.291-21.483-8.598l-0.627-0.627l-0.625-0.625
				c-8.307-8.308-12.155-17.927-8.597-21.484c0,0,1.026-1.027,3.327-3.326c3.268-3.268,6.628-7.637,5.852-20.585
				c-0.891-14.874,4.627-30.401,16.387-42.16c21.07-21.07,54.232-22.068,74.071-2.23c19.838,19.838,18.84,53-2.23,74.071
				C136.438,135.23,120.911,140.748,106.038,139.857z"/>
			
				<radialGradient id="SVGID_7_" cx="32.6885" cy="1421.3242" r="90.0435" gradientTransform="matrix(0.7854 0.7854 0.7849 -0.7849 -1032.0778 1180.302)" gradientUnits="userSpaceOnUse">
				<stop  offset="0.3069" style="stop-color:#FFFFF8"/>
				<stop  offset="0.3245" style="stop-color:#FFFFF3;stop-opacity:0.9745"/>
				<stop  offset="0.4492" style="stop-color:#FFFFD2;stop-opacity:0.7946"/>
				<stop  offset="0.5775" style="stop-color:#FFFFB8;stop-opacity:0.6095"/>
				<stop  offset="0.7095" style="stop-color:#FFFFA6;stop-opacity:0.4192"/>
				<stop  offset="0.8472" style="stop-color:#FFFF9B;stop-opacity:0.2205"/>
				<stop  offset="1" style="stop-color:#FFFF97;stop-opacity:0"/>
			</radialGradient>
			<path fill="url(#SVGID_7_)" d="M153.54,46.29c-22.521-22.52-59.031-22.519-81.551,0.001
				C59.421,58.859,53.854,75.786,55.331,92.208c1.283,14.292-2.275,18.998-5.769,22.49c-2.457,2.459-3.556,3.557-3.556,3.557
				c-3.802,3.804,0.759,14.531,10.186,23.959l0.711,0.711l0.713,0.714c9.428,9.428,20.156,13.987,23.959,10.186
				c0,0,1.098-1.1,3.556-3.557c3.493-3.494,8.198-7.052,22.491-5.767c16.421,1.476,33.349-4.092,45.916-16.66
				C176.059,105.32,176.061,68.809,153.54,46.29z M107.589,143.41c-13.982-1.262-18.584,2.217-21.998,5.633
				c-2.404,2.402-3.479,3.477-3.479,3.477c-3.718,3.72-14.213-0.746-23.438-9.973l-0.697-0.697l-0.695-0.695
				c-9.226-9.227-13.69-19.721-9.972-23.438c0,0,1.072-1.071,3.477-3.477c3.415-3.414,6.896-8.017,5.632-21.996
				c-1.448-16.062,3.988-32.618,16.279-44.908c22.019-22.02,57.731-22.006,79.768,0.028c22.036,22.034,22.048,57.749,0.028,79.768
				C140.204,139.42,123.646,144.857,107.589,143.41z"/>
			<g>
				
					<radialGradient id="SVGID_8_" cx="-5.4624" cy="1556.958" r="25.9382" gradientTransform="matrix(0.7071 0.7071 0.7071 -0.7071 -1016.1281 1156.7158)" gradientUnits="userSpaceOnUse">
					<stop  offset="0" style="stop-color:#FFFFFF;stop-opacity:0.6"/>
					<stop  offset="0.2136" style="stop-color:#FFFFF0;stop-opacity:0.5359"/>
					<stop  offset="0.623" style="stop-color:#FFFFC9;stop-opacity:0.4131"/>
					<stop  offset="1" style="stop-color:#FFFF9F;stop-opacity:0.3"/>
				</radialGradient>
				<path fill="url(#SVGID_8_)" d="M77.048,49.717c7.737-7.736,16.744-13.232,26.068-16.443
					c-10.603,1.898-20.756,6.934-28.95,15.129C64.028,58.54,58.702,71.671,58.205,84.951C60.461,72.456,66.794,59.971,77.048,49.717
					z"/>
				
					<radialGradient id="SVGID_9_" cx="89.2432" cy="1556.9561" r="25.9401" gradientTransform="matrix(0.7071 0.7071 0.7071 -0.7071 -1016.1281 1156.7158)" gradientUnits="userSpaceOnUse">
					<stop  offset="0" style="stop-color:#FFFFFF;stop-opacity:0.6"/>
					<stop  offset="0.2136" style="stop-color:#FFFFF0;stop-opacity:0.5359"/>
					<stop  offset="0.623" style="stop-color:#FFFFC9;stop-opacity:0.4131"/>
					<stop  offset="1" style="stop-color:#FFFF9F;stop-opacity:0.3"/>
				</radialGradient>
				<path fill="url(#SVGID_9_)" d="M151.427,125.662c8.195-8.193,13.229-18.348,15.13-28.951
					c-3.209,9.322-8.705,18.332-16.443,26.068c-10.256,10.256-22.74,16.59-35.236,18.846
					C128.156,141.127,141.288,135.801,151.427,125.662z"/>
				
					<radialGradient id="SVGID_10_" cx="65.1519" cy="1492.1797" r="4.0348" gradientTransform="matrix(0.7071 0.7071 0.7071 -0.7071 -1016.1281 1156.7158)" gradientUnits="userSpaceOnUse">
					<stop  offset="0" style="stop-color:#FFFFFF;stop-opacity:0.6"/>
					<stop  offset="0.2136" style="stop-color:#FFFFF0;stop-opacity:0.5359"/>
					<stop  offset="0.623" style="stop-color:#FFFFC9;stop-opacity:0.4131"/>
					<stop  offset="1" style="stop-color:#FFFF9F;stop-opacity:0.3"/>
				</radialGradient>
				<path fill="url(#SVGID_10_)" d="M81.765,149.932c-0.611,0.611-1.141,1.142-1.598,1.596c1.27-0.086,2.322-0.489,3.082-1.248
					c0,0,1.039-1.04,3.369-3.368c0.654-0.656,1.359-1.313,2.166-1.938C85.588,146.352,83.536,148.16,81.765,149.932z"/>
				
					<radialGradient id="SVGID_11_" cx="18.6294" cy="1492.1807" r="4.0357" gradientTransform="matrix(0.7071 0.7071 0.7071 -0.7071 -1016.1281 1156.7158)" gradientUnits="userSpaceOnUse">
					<stop  offset="0" style="stop-color:#FFFFFF;stop-opacity:0.6"/>
					<stop  offset="0.2136" style="stop-color:#FFFFF0;stop-opacity:0.5359"/>
					<stop  offset="0.623" style="stop-color:#FFFFC9;stop-opacity:0.4131"/>
					<stop  offset="1" style="stop-color:#FFFF9F;stop-opacity:0.3"/>
				</radialGradient>
				<path fill="url(#SVGID_11_)" d="M48.301,119.662c0.457-0.457,0.985-0.984,1.598-1.598c1.772-1.771,3.578-3.824,4.96-7.021
					c-0.625,0.808-1.283,1.513-1.939,2.168c-2.327,2.328-3.368,3.367-3.368,3.367C48.793,117.34,48.389,118.395,48.301,119.662z"/>
			</g>
			<defs>
				<filter id="Adobe_OpacityMaskFilter_1_" filterUnits="userSpaceOnUse" x="65.143" y="77.312" width="57.37" height="57.375">
					<feColorMatrix  type="matrix" values="1 0 0 0 0  0 1 0 0 0  0 0 1 0 0  0 0 0 1 0"/>
				</filter>
			</defs>
			<mask maskUnits="userSpaceOnUse" x="65.143" y="77.312" width="57.37" height="57.375" id="SVGID_12_">
				<g filter="url(#Adobe_OpacityMaskFilter_1_)">
					
						<radialGradient id="SVGID_13_" cx="41.9336" cy="1042.4082" r="22.6008" gradientTransform="matrix(0.7071 0.7071 1.1545 -1.1545 -1135.3694 1275.9547)" gradientUnits="userSpaceOnUse">
						<stop  offset="0" style="stop-color:#FFFF9A"/>
						<stop  offset="0.2963" style="stop-color:#B7B76E"/>
						<stop  offset="0.9838" style="stop-color:#040403"/>
						<stop  offset="1" style="stop-color:#000000"/>
					</radialGradient>
					<polygon fill="url(#SVGID_13_)" points="81.536,149.08 50.809,118.352 105.507,63.655 136.232,94.381 					"/>
				</g>
			</mask>
			<g mask="url(#SVGID_12_)">
				<g>
					
						<line fill="none" stroke="#FFFFE9" stroke-width="2" stroke-miterlimit="10" x1="65.968" y1="128.885" x2="99.843" y2="79.385"/>
					
						<line fill="none" stroke="#FFFFE9" stroke-width="2" stroke-miterlimit="10" x1="70.944" y1="133.861" x2="120.443" y2="99.989"/>
				</g>
				
					<ellipse transform="matrix(-0.7072 0.707 -0.707 -0.7072 226.5747 64.9341)" fill="#FFFFE9" cx="99.841" cy="79.386" rx="1.838" ry="2.286"/>
				
					<ellipse transform="matrix(-0.7068 0.7074 -0.7074 -0.7068 276.2965 85.4583)" fill="#FFFFE9" cx="120.438" cy="99.99" rx="1.839" ry="2.286"/>
				<path fill="none" stroke="#FFFFE9" stroke-width="2" stroke-miterlimit="10" d="M100.401,79.945c0,0,6.647-1.054,9.83,2.231
					c3.183,3.28,0.513,7.471-3.389,8.11c-2.861,0.471-6.758-1.64-3.525-5.426c2.902-3.398,11.914-1.45,13.449,4.95
					c1.519,6.315-3.123,6.977-5.1,7.088c-3.568,0.203-3.305-6.393,1.92-7.39c3.882-0.742,6.953,1.579,7.393,5.72
					c0.377,3.535-0.785,5.009-0.785,5.009"/>
			</g>
			
				<radialGradient id="SVGID_14_" cx="57.8633" cy="1452.6045" r="12.0675" gradientTransform="matrix(0.5955 0.5955 0.7071 -0.7071 -1021.3832 1151.4612)" gradientUnits="userSpaceOnUse">
				<stop  offset="0" style="stop-color:#555555"/>
				<stop  offset="1" style="stop-color:#000000"/>
			</radialGradient>
			<path fill="url(#SVGID_14_)" d="M43.457,156.496l-0.258-0.258l-0.256-0.256c-3.4-3.4-10.018-9.123-8.389-10.752
				c-0.998,0.998-1.533,8.36-1.533,8.36c-1.628,1.63-0.193,5.705,3.207,9.104l0.256,0.257l0.258,0.258
				c3.398,3.397,7.477,4.834,9.105,3.205c0,0,6.815-0.877,7.813-1.875C52.03,166.172,46.857,159.895,43.457,156.496z"/>
			
				<radialGradient id="SVGID_15_" cx="41.2993" cy="1456.7344" r="15.4817" gradientTransform="matrix(0.7071 0.7071 0.7071 -0.7071 -1016.1281 1156.7158)" gradientUnits="userSpaceOnUse">
				<stop  offset="0" style="stop-color:#FFFFFF"/>
				<stop  offset="1" style="stop-color:#555555"/>
			</radialGradient>
			<path fill="url(#SVGID_15_)" d="M47.41,153.043l-0.391-0.393l-0.391-0.39c-5.18-5.182-15.15-14.004-13.061-16.094
				c-1.281,1.281-1.146,11.545-1.146,11.545c-2.09,2.09,0.413,7.979,5.594,13.162l0.39,0.39l0.392,0.393
				c5.179,5.18,11.072,7.682,13.161,5.594c0,0,9.457-0.412,10.736-1.691C60.605,167.648,52.59,158.221,47.41,153.043z"/>
			
				<radialGradient id="SVGID_16_" cx="41.8901" cy="1471.1113" r="21.0628" gradientTransform="matrix(0.7071 0.7071 0.7071 -0.7071 -1016.1281 1156.7158)" gradientUnits="userSpaceOnUse">
				<stop  offset="0" style="stop-color:#FFFFFF"/>
				<stop  offset="1" style="stop-color:#898989"/>
			</radialGradient>
			<path fill="url(#SVGID_16_)" d="M58.825,142.428l-0.713-0.711l-0.711-0.713c-9.429-9.428-13.988-20.154-10.185-23.959
				c-2.33,2.33-15.682,15.682-15.682,15.682c-3.803,3.804,0.756,14.531,10.186,23.961l0.711,0.709l0.711,0.713
				c9.429,9.429,20.155,13.986,23.96,10.185c0,0,13.351-13.351,15.681-15.68C78.979,156.416,68.253,151.855,58.825,142.428z"/>
			
				<radialGradient id="SVGID_17_" cx="41.54" cy="1475.6084" r="18.2016" gradientTransform="matrix(0.7071 0.7071 0.7071 -0.7071 -1016.1281 1156.7158)" gradientUnits="userSpaceOnUse">
				<stop  offset="0.545" style="stop-color:#FFFFFF"/>
				<stop  offset="1" style="stop-color:#898989"/>
			</radialGradient>
			<path fill="url(#SVGID_17_)" d="M58.825,142.428l-0.713-0.711l-0.711-0.713c-9.429-9.428-13.988-20.154-10.185-23.959
				c-0.208,0.207-0.506,0.506-0.871,0.871c-3.803,3.803,0.757,14.531,10.186,23.959l0.71,0.711l0.713,0.713
				c9.428,9.428,20.156,13.988,23.959,10.184c0.364-0.364,0.663-0.662,0.87-0.868C78.979,156.416,68.253,151.855,58.825,142.428z"/>
			
				<radialGradient id="SVGID_18_" cx="56.9141" cy="1566.8037" r="27.4297" gradientTransform="matrix(0.7071 0.7071 0.7071 -0.7071 -1016.1281 1156.7158)" gradientUnits="userSpaceOnUse">
				<stop  offset="0" style="stop-color:#FFFFFF;stop-opacity:0.6"/>
				<stop  offset="0.2136" style="stop-color:#FFFFF0;stop-opacity:0.5359"/>
				<stop  offset="0.623" style="stop-color:#FFFFC9;stop-opacity:0.4131"/>
				<stop  offset="1" style="stop-color:#FFFF9F;stop-opacity:0.3"/>
			</radialGradient>
			<path opacity="0.4" fill="url(#SVGID_18_)" enable-background="new    " d="M156.311,92.231c0,0-4.787-22.465-26.502-34.281
				c-6.687-3.64-38.655,28.111-34.431,34.43c10.875,16.267,31.636,37.447,38.722,33.333
				C145.48,119.109,155.407,107.537,156.311,92.231z"/>
			
				<radialGradient id="SVGID_19_" cx="150.1279" cy="24.5732" r="51.9351" gradientTransform="matrix(1 0 0 -1 -50 61)" gradientUnits="userSpaceOnUse">
				<stop  offset="0" style="stop-color:#FFFFFF;stop-opacity:0.6"/>
				<stop  offset="0.2136" style="stop-color:#FFFFF0;stop-opacity:0.5359"/>
				<stop  offset="0.623" style="stop-color:#FFFFC9;stop-opacity:0.4131"/>
				<stop  offset="1" style="stop-color:#FFFF9F;stop-opacity:0.3"/>
			</radialGradient>
			<path fill="url(#SVGID_19_)" d="M105.673,41.924c0,0,10.938,2.487,13.675,7.707c1.03,1.971-13.925,3.979-33.068,25.609
				c-2.086,2.354-14.802-10.305-13.677-12.182C77.825,54.357,90.366,42.827,105.673,41.924z"/>
			
				<radialGradient id="SVGID_20_" cx="41.8901" cy="1125.1348" r="8.1309" gradientTransform="matrix(0.7071 0.7071 0.974 -0.974 -1057.5905 1198.1777)" gradientUnits="userSpaceOnUse">
				<stop  offset="0" style="stop-color:#FFFF29;stop-opacity:0.3"/>
				<stop  offset="0.3289" style="stop-color:#FFFF2B;stop-opacity:0.4645"/>
				<stop  offset="0.5024" style="stop-color:#FFFF33;stop-opacity:0.5512"/>
				<stop  offset="0.6395" style="stop-color:#FFFF41;stop-opacity:0.6198"/>
				<stop  offset="0.7576" style="stop-color:#FFFF54;stop-opacity:0.6788"/>
				<stop  offset="0.8636" style="stop-color:#FFFF6D;stop-opacity:0.7318"/>
				<stop  offset="0.9593" style="stop-color:#FFFF8B;stop-opacity:0.7797"/>
				<stop  offset="1" style="stop-color:#FFFF9A;stop-opacity:0.8"/>
			</radialGradient>
			<path opacity="0.4" fill="url(#SVGID_20_)" enable-background="new    " d="M75.176,124.654
				c-2.878-2.879-6.509-3.912-11.235,0.813c-0.172,0.173-8.889,8.894-10.809,10.826c1.215,1.646,2.602,3.271,4.156,4.824
				l0.711,0.711l0.712,0.711c1.555,1.556,3.179,2.942,4.827,4.158c1.742-1.734,10.674-10.664,10.822-10.812
				C79.086,131.162,78.054,127.531,75.176,124.654z"/>
			
				<radialGradient id="SVGID_21_" cx="42.2119" cy="1478.0449" r="19.3027" gradientTransform="matrix(0.7071 0.7071 0.7071 -0.7071 -1016.1281 1156.7158)" gradientUnits="userSpaceOnUse">
				<stop  offset="0" style="stop-color:#FFFFFF"/>
				<stop  offset="1" style="stop-color:#A4A4A4"/>
			</radialGradient>
			<path fill="url(#SVGID_21_)" d="M52.741,145.912c-9.081-9.08-12.378-18.113-12.604-20.494c-0.223-2.324,0.766-3.959,2.797-4.123
				c0,0-1.113,0.744-0.828,2.609c0.371,2.445,2.444,11.479,16.292,23.426c9.529,8.221,15.285,9.496,18.443,9.111
				c2.488-0.303,3.658-1.555,3.709-1.604c0.652-0.623,1.123-1.094,1.123-1.094c0.446,0.178,0.566,1.037,0.146,1.678
				c-0.162,0.246-1.57,2.521-5.223,3.027c-5.437,0.756-11.674-1.763-20.039-8.99C55.183,148.27,53.913,147.084,52.741,145.912z"/>
			
				<radialGradient id="SVGID_22_" cx="42.2119" cy="1472.9453" r="19.3033" gradientTransform="matrix(0.7071 0.7071 0.7071 -0.7071 -1016.1281 1156.7158)" gradientUnits="userSpaceOnUse">
				<stop  offset="0" style="stop-color:#FFFFFF"/>
				<stop  offset="1" style="stop-color:#A4A4A4"/>
			</radialGradient>
			<path fill="url(#SVGID_22_)" d="M49.135,149.518c-9.08-9.08-12.375-18.112-12.604-20.496c-0.223-2.321,0.768-3.957,2.799-4.123
				c0,0-1.115,0.746-0.83,2.611c0.371,2.445,2.445,11.479,16.294,23.424c9.527,8.224,15.283,9.498,18.441,9.113
				c2.488-0.303,3.659-1.555,3.709-1.604c0.652-0.623,1.123-1.092,1.123-1.092c0.447,0.174,0.567,1.035,0.146,1.678
				c-0.161,0.244-1.569,2.516-5.222,3.025c-5.438,0.758-11.673-1.765-20.037-8.99C51.577,151.875,50.307,150.689,49.135,149.518z"/>
			
				<radialGradient id="SVGID_23_" cx="42.2119" cy="1467.8906" r="19.3034" gradientTransform="matrix(0.7071 0.7071 0.7071 -0.7071 -1016.1281 1156.7158)" gradientUnits="userSpaceOnUse">
				<stop  offset="0" style="stop-color:#FFFFFF"/>
				<stop  offset="1" style="stop-color:#A4A4A4"/>
			</radialGradient>
			<path fill="url(#SVGID_23_)" d="M45.561,153.092c-9.08-9.08-12.375-18.113-12.603-20.496c-0.222-2.322,0.767-3.957,2.798-4.123
				c0,0-1.113,0.744-0.83,2.611c0.372,2.445,2.445,11.477,16.292,23.426c9.529,8.221,15.285,9.496,18.443,9.109
				c2.488-0.301,3.66-1.555,3.709-1.602c0.652-0.623,1.123-1.095,1.123-1.095c0.447,0.177,0.567,1.037,0.146,1.679
				c-0.161,0.246-1.569,2.518-5.222,3.026c-5.438,0.756-11.674-1.765-20.038-8.99C48.004,155.447,46.732,154.264,45.561,153.092z"/>
			
				<radialGradient id="SVGID_24_" cx="42.2114" cy="1463.1445" r="19.3032" gradientTransform="matrix(0.7071 0.7071 0.7071 -0.7071 -1016.1281 1156.7158)" gradientUnits="userSpaceOnUse">
				<stop  offset="0" style="stop-color:#FFFFFF"/>
				<stop  offset="1" style="stop-color:#A4A4A4"/>
			</radialGradient>
			<path fill="url(#SVGID_24_)" d="M42.204,156.447c-9.079-9.078-12.376-18.111-12.603-20.494c-0.223-2.322,0.766-3.959,2.797-4.123
				c0,0-1.113,0.744-0.828,2.609c0.371,2.444,2.445,11.479,16.293,23.426c9.526,8.223,15.284,9.496,18.442,9.111
				c2.486-0.304,3.658-1.556,3.709-1.604c0.652-0.621,1.123-1.093,1.123-1.093c0.447,0.177,0.566,1.037,0.145,1.679
				c-0.162,0.244-1.569,2.519-5.221,3.026c-5.438,0.757-11.674-1.764-20.04-8.991C44.646,158.805,43.377,157.621,42.204,156.447z"/>
		</g>
		
			<radialGradient id="SVGID_25_" cx="13.2788" cy="1481.4277" r="28.9082" gradientTransform="matrix(0.7071 0.7071 0.7071 -0.7071 -1016.1281 1156.7158)" gradientUnits="userSpaceOnUse">
			<stop  offset="0.1958" style="stop-color:#FFAE72"/>
			<stop  offset="0.3502" style="stop-color:#F0A770"/>
			<stop  offset="0.6481" style="stop-color:#C8946B"/>
			<stop  offset="1" style="stop-color:#927A64"/>
		</radialGradient>
		<path opacity="0.1" fill="url(#SVGID_25_)" enable-background="new    " d="M52.88,129.693c0,0-6.63-7.293,0.166-14.09
			c6.795-6.797,8.121-9.449,8.285-14.588c0.168-5.139,8.289-0.995,6.135,7.129c-2.154,8.121-7.127,9.444-10.773,13.094
			C53.044,124.885,51.056,126.873,52.88,129.693z"/>
		
			<radialGradient id="SVGID_26_" cx="-129.4199" cy="1481.4248" r="28.905" gradientTransform="matrix(-0.7071 -0.7071 0.7071 -0.7071 -1057.1455 1115.6984)" gradientUnits="userSpaceOnUse">
			<stop  offset="0.1958" style="stop-color:#FFAE72"/>
			<stop  offset="0.3502" style="stop-color:#F0A770"/>
			<stop  offset="0.6481" style="stop-color:#C8946B"/>
			<stop  offset="1" style="stop-color:#927A64"/>
		</radialGradient>
		<path opacity="0.1" fill="url(#SVGID_26_)" enable-background="new    " d="M70.78,147.596c0,0,7.295,6.629,14.09-0.168
			c6.797-6.795,9.449-8.121,14.586-8.287c5.14-0.166,0.996-8.287-7.127-6.133c-8.121,2.154-9.445,7.127-13.094,10.773
			C75.589,147.43,73.601,149.418,70.78,147.596z"/>
	</g>
</g>
<g id="outline_x5F_white">
	<g>
		<path fill="#FFFFFF" d="M112.766,29.4c14.756,0,29.517,5.631,40.774,16.889c22.521,22.52,22.519,59.031-0.002,81.55
			c-11.252,11.252-25.997,16.894-40.745,16.894c-1.725,0-3.451-0.078-5.171-0.232c-2.047-0.184-3.896-0.268-5.573-0.268
			c-10.041,0-13.925,3.039-16.918,6.033c-0.786,0.784-1.417,1.418-1.935,1.934c-0.002,0.002-0.004,0.006-0.006,0.008
			c0,0-0.948,0.949-2.377,2.377c0.507-0.488,0.859-0.84,0.859-0.84c0.446,0.178,0.566,1.037,0.146,1.678
			c-0.131,0.199-1.076,1.719-3.359,2.564c0.042,0.324-0.029,0.711-0.247,1.043c-0.13,0.195-1.067,1.699-3.323,2.549
			c0.036,0.318-0.037,0.699-0.251,1.023c-0.126,0.19-1.007,1.6-3.101,2.461c0.006,0.289-0.07,0.612-0.256,0.896
			c-0.16,0.242-1.539,2.459-5.092,3.004c-0.799,0.445-1.776,0.66-2.896,0.66c-2.302,0-5.198-0.904-8.349-2.565
			c-1.694,0.137-2.987,0.192-2.987,0.192c-0.499,0.5-1.215,0.733-2.087,0.733c-1.211,0-2.722-0.455-4.367-1.293
			c-0.416,0.269-0.938,0.396-1.531,0.396c-1.983,0-4.783-1.428-7.23-3.877l-0.258-0.258l-0.256-0.256
			c-3.24-3.242-4.689-7.092-3.408-8.855c-1.303-2.689-1.545-4.982-0.398-6.129c0,0-0.02-1.502,0.027-3.43
			c-0.879-1.75-1.508-3.41-1.877-4.926c-0.596-1.551-0.908-2.742-0.971-3.404c-0.223-2.322,0.766-3.959,2.797-4.123
			c0,0-0.203,0.146-0.414,0.447c0.246-0.246,0.585-0.586,1-1c0.211-1.601,1.154-2.672,2.771-2.805c0,0-0.203,0.146-0.414,0.446
			c0.389-0.392,0.797-0.797,1.217-1.217c0.211-1.601,1.154-2.673,2.771-2.806c0,0-0.205,0.146-0.414,0.447
			c0.415-0.416,0.832-0.832,1.248-1.248c0.21-1.6,1.152-2.672,2.77-2.803c0,0-0.203,0.145-0.412,0.445
			c1.359-1.361,2.582-2.582,3.485-3.486c0,0,0.12-0.119,0.339-0.338c0.281-0.281,0.508-0.508,0.699-0.699
			c0.58-0.58,1.402-1.402,2.518-2.52c3.493-3.492,7.052-8.197,5.769-22.49c-1.477-16.422,4.09-33.349,16.658-45.917
			C83.25,35.029,98.006,29.4,112.766,29.4 M112.766,17.4c-18.607,0-36.104,7.247-49.262,20.405
			C48.861,52.448,41.525,72.668,43.379,93.282c0.876,9.753-0.885,11.515-2.301,12.929l-2.519,2.521l-0.371,0.371l-0.327,0.328
			l-0.322,0.319l-1.07,1.069c-2.232,1.091-4.128,2.718-5.546,4.748c-1.394,0.972-2.604,2.181-3.587,3.582
			c-1.354,0.945-2.536,2.117-3.503,3.472c-0.986,0.709-1.888,1.543-2.683,2.492c-2.686,3.204-3.928,7.461-3.494,11.979
			c0.162,1.709,0.641,3.643,1.459,5.885c0.279,1.021,0.621,2.062,1.023,3.111c-0.573,2.338-0.689,5.217,0.228,8.615
			c-0.249,5.434,2.299,11.396,7.375,16.475l0.258,0.258l0.249,0.248c4.705,4.707,10.434,7.4,15.725,7.4c0.078,0,0.155,0,0.232-0.002
			c1.938,0.598,3.832,0.898,5.666,0.898c1.237,0,2.444-0.14,3.603-0.408c3.454,1.359,6.743,2.047,9.82,2.047
			c2.352,0,4.561-0.395,6.593-1.174c4.348-1.08,8.134-3.51,10.704-6.881c1.308-1.012,2.469-2.181,3.438-3.467
			c1.366-1.037,2.578-2.244,3.584-3.586c1.683-1.271,3.13-2.806,4.252-4.527c0.6-0.916,1.081-1.9,1.438-2.924l0.309-0.31
			c1.357-1.356,2.524-2.522,8.438-2.522c1.357,0,2.87,0.074,4.498,0.221c2.069,0.186,4.17,0.279,6.246,0.279
			c18.588,0,36.071-7.248,49.229-20.406s20.404-30.652,20.406-49.261c0-18.608-7.246-36.103-20.404-49.261
			C148.867,24.646,131.373,17.4,112.766,17.4L112.766,17.4z"/>
	</g>
</g>
<g id="outline_x5F_black">
	<path d="M112.766,29.4c14.756,0,29.517,5.631,40.774,16.889c22.521,22.52,22.519,59.031-0.002,81.55
		c-11.252,11.252-25.997,16.894-40.745,16.894c-1.727,0-3.451-0.078-5.171-0.232c-2.047-0.184-3.896-0.268-5.573-0.268
		c-10.041,0-13.925,3.039-16.918,6.033c-0.786,0.784-1.417,1.418-1.935,1.934c-0.002,0.002-0.004,0.006-0.006,0.008
		c0,0-0.948,0.949-2.377,2.377c0.507-0.488,0.859-0.84,0.859-0.84c0.446,0.178,0.566,1.037,0.146,1.678
		c-0.131,0.199-1.076,1.719-3.359,2.564c0.042,0.324-0.029,0.711-0.247,1.043c-0.13,0.195-1.067,1.699-3.323,2.549
		c0.036,0.318-0.037,0.699-0.251,1.023c-0.126,0.19-1.007,1.6-3.101,2.461c0.006,0.289-0.07,0.612-0.256,0.896
		c-0.16,0.242-1.539,2.459-5.092,3.004c-0.799,0.445-1.777,0.66-2.896,0.66c-2.302,0-5.198-0.904-8.349-2.565
		c-1.694,0.137-2.987,0.192-2.987,0.192c-0.499,0.5-1.216,0.733-2.087,0.733c-1.211,0-2.722-0.455-4.367-1.293
		c-0.416,0.269-0.938,0.396-1.531,0.396c-1.983,0-4.783-1.428-7.23-3.877l-0.258-0.258l-0.256-0.256
		c-3.24-3.242-4.689-7.092-3.408-8.855c-1.303-2.689-1.545-4.982-0.398-6.129c0,0-0.02-1.502,0.027-3.43
		c-0.879-1.75-1.508-3.41-1.877-4.926c-0.596-1.551-0.908-2.742-0.971-3.404c-0.223-2.322,0.766-3.959,2.797-4.123
		c0,0-0.203,0.146-0.414,0.447c0.246-0.246,0.585-0.586,1-1c0.211-1.601,1.154-2.672,2.771-2.805c0,0-0.203,0.146-0.414,0.446
		c0.389-0.392,0.797-0.797,1.217-1.217c0.211-1.601,1.154-2.673,2.771-2.806c0,0-0.205,0.146-0.414,0.447
		c0.415-0.416,0.832-0.832,1.248-1.248c0.21-1.6,1.152-2.672,2.77-2.803c0,0-0.203,0.145-0.412,0.445
		c1.359-1.361,2.582-2.582,3.485-3.486c0,0,0.12-0.119,0.339-0.338c0.281-0.281,0.508-0.508,0.699-0.699
		c0.58-0.58,1.402-1.402,2.518-2.52c3.493-3.492,7.052-8.197,5.769-22.49c-1.477-16.422,4.09-33.349,16.658-45.917
		C83.25,35.029,98.006,29.4,112.766,29.4 M112.766,23.4c-17.006,0-32.994,6.623-45.019,18.647
		C54.365,55.43,47.662,73.908,49.355,92.745c1.127,12.55-1.857,15.532-4.035,17.71l-2.518,2.52l-0.37,0.369l-0.329,0.33l-0.33,0.328
		l-1.302,1.303l-0.566,0.566c-2.011,0.746-3.622,2.166-4.63,4.061c-1.527,0.803-2.763,2.035-3.592,3.584
		c-1.479,0.781-2.683,1.965-3.508,3.449c-0.92,0.512-1.741,1.186-2.426,2.004c-1.646,1.965-2.4,4.648-2.121,7.557
		c0.117,1.236,0.524,2.798,1.211,4.638c0.372,1.422,0.903,2.903,1.586,4.422c-0.003,0.183-0.004,0.356-0.006,0.521
		c-0.771,1.824-1.154,4.459,0.031,7.998c-0.559,3.955,1.398,8.699,5.533,12.836l0.258,0.259l0.253,0.252
		c3.584,3.586,7.767,5.639,11.478,5.639c0.355,0,0.707-0.021,1.054-0.057c1.706,0.633,3.328,0.952,4.845,0.952
		c1.574,0,2.865-0.334,3.904-0.809c3.47,1.625,6.664,2.447,9.519,2.447c1.737,0,3.337-0.305,4.772-0.91
		c3.46-0.764,6.412-2.701,8.202-5.416c1.365-0.926,2.526-2.086,3.383-3.398c0.018-0.024,0.035-0.053,0.053-0.08
		c1.42-0.938,2.626-2.125,3.516-3.481c0.023-0.035,0.046-0.069,0.068-0.104c1.437-0.943,2.653-2.144,3.548-3.519
		c0.558-0.851,0.932-1.801,1.113-2.78l0.356-0.355l1.065-1.064c1.908-1.908,4.278-4.279,12.678-4.279
		c1.536,0,3.229,0.082,5.035,0.244c1.892,0.17,3.812,0.256,5.709,0.256c16.983,0,32.962-6.623,44.987-18.649
		c24.824-24.821,24.824-65.212,0.002-90.035C145.758,30.022,129.771,23.4,112.766,23.4L112.766,23.4z"/>
</g>
</svg>
