<?xml version="1.0" encoding="utf-8"?>
<!-- Generator: Adobe Illustrator 15.0.0, SVG Export Plug-In . SVG Version: 6.00 Build 0)  -->
<!DOCTYPE svg PUBLIC "-//W3C//DTD SVG 1.1//EN" "http://www.w3.org/Graphics/SVG/1.1/DTD/svg11.dtd">
<svg version="1.1" xmlns="http://www.w3.org/2000/svg" xmlns:xlink="http://www.w3.org/1999/xlink" x="0px" y="0px" width="200px"
	 height="200px" viewBox="0 0 200 200" enable-background="new 0 0 200 200" xml:space="preserve">
<g id="icon">
	<g id="Layer_2">
	</g>
	<g>
		
			<linearGradient id="SVGID_1_" gradientUnits="userSpaceOnUse" x1="41.7471" y1="-206.9473" x2="130.2307" y2="-271.7528" gradientTransform="matrix(0.9817 -0.1903 -0.1903 -0.9817 -44.9812 -114.2552)">
			<stop  offset="0" style="stop-color:#70AB00"/>
			<stop  offset="1" style="stop-color:#284700"/>
		</linearGradient>
		<path fill="url(#SVGID_1_)" d="M122.82,54.512c-9.162-2.661-20.769-11.258-24.909-16.304c-3.613-3.96-6.716-5.74-10.46-5.046
			c-2.955,0.547-5.295-6.55-5.881-3.904c-0.195,0.882-0.059,11.096,0.133,12.036l25.031,81.938
			c-7.052-3.404-15.917-4.662-25.056-2.971c-16.506,3.057-28.44,8.938-29.172,21.616c-0.105,1.812,0.025,9.405,0.396,11.237
			c2.975,14.65,20.682,23.695,39.547,20.203c16.771-3.104,28.814-15.071,29.197-27.979c0.047-1.614,0.096-10.164-0.236-11.793
			c-0.191-0.948-0.631,5.045-0.943,4.146L108.5,84.841c0.176,0.346,0.258,0.385,0.232,0.055c-0.326-4.155,15.688-5.881,24.477,4.148
			c8.787,10.03,10.473,28.565,13.898,8.342c0.266-1.57,0.416-12.024,0.416-13.583C147.525,67.192,131.477,57.027,122.82,54.512z"/>
		
			<linearGradient id="SVGID_2_" gradientUnits="userSpaceOnUse" x1="88.8486" y1="-218.9521" x2="146.9823" y2="-354.7726" gradientTransform="matrix(0.9817 -0.1903 -0.1903 -0.9817 -44.9812 -114.2552)">
			<stop  offset="0.1758" style="stop-color:#96DC00"/>
			<stop  offset="1" style="stop-color:#366100"/>
		</linearGradient>
		<path fill="url(#SVGID_2_)" d="M122.822,43.875c-9.164-2.661-20.771-11.257-24.911-16.303c-3.612-3.96-6.714-5.74-10.46-5.046
			c-3.939,0.729-6.512,4.368-5.747,8.131l25.032,81.938c-7.052-3.403-15.917-4.661-25.058-2.97
			c-18.863,3.492-31.75,18.201-28.775,32.854c2.975,14.65,20.684,23.697,39.547,20.205c18.87-3.494,31.753-18.203,28.78-32.854
			c-0.192-0.947-0.451-1.874-0.764-2.772L108.5,74.204c0.176,0.347,0.258,0.386,0.232,0.056c-0.324-4.155,15.688-5.881,24.477,4.149
			c8.787,10.029,10.473,28.563,13.898,8.34C150.531,66.522,132.205,46.603,122.822,43.875z"/>
	</g>
</g>
<g id="outline_x5F_white">
	<g>
		<path fill="#FFFFFF" d="M89.006,22.379c3.079,0,5.805,1.793,8.905,5.193c4.141,5.046,15.747,13.642,24.911,16.303
			c8.805,2.559,25.477,20.252,24.678,39.133c0.008,0.265,0.023,0.526,0.023,0.795c0,1.559-0.15,12.013-0.416,13.583
			c-1.115,6.583-2.045,9.06-3.099,9.06c-2.178,0-4.873-10.635-10.801-17.4c-4.781-5.455-11.692-7.431-16.955-7.431
			c-2.41,0-4.476,0.415-5.826,1.101l10.039,44.344c0.312,0.897,0.57,1.824,0.765,2.771c0.396,1.961,0.502,3.922,0.354,5.857
			c0.133,3.15,0.099,8.418,0.062,9.651c-0.383,12.908-12.427,24.875-29.197,27.979c-2.738,0.508-5.448,0.75-8.097,0.75
			c-15.595,0-28.907-8.43-31.45-20.953c-0.371-1.832-0.502-9.428-0.396-11.237c0.024-0.428,0.064-0.847,0.113-1.259
			c-1.578-14.018,10.994-27.648,29.059-30.993c2.729-0.505,5.432-0.747,8.069-0.747c4.71,0,9.211,0.771,13.271,2.188L81.704,41.294
			c-0.191-0.94-0.328-11.154-0.133-12.036v-0.001c0.035-3.228,2.435-6.093,5.881-6.73C87.982,22.428,88.499,22.379,89.006,22.379
			 M89.006,10.379c-1.237,0-2.497,0.117-3.742,0.348c-8.968,1.659-15.558,9.359-15.691,18.323
			c-0.301,4.636,0.008,12.848,0.372,14.636c0.076,0.375,0.171,0.747,0.282,1.113l15.945,52.195
			c-2.231,0.144-4.467,0.422-6.679,0.831c-11.218,2.077-21.334,7.442-28.485,15.108c-7.466,8.002-11.142,17.768-10.44,27.641
			c-0.017,0.208-0.03,0.414-0.042,0.619c-0.085,1.465-0.132,10.611,0.616,14.303c3.655,18.003,21.424,30.57,43.211,30.57
			c3.417,0,6.876-0.318,10.281-0.948c22.046-4.082,38.452-20.663,39.009-39.425c0.034-1.201,0.082-6.219-0.041-9.854
			c0.149-2.83-0.056-5.649-0.611-8.396c-0.25-1.225-0.568-2.438-0.951-3.623l-5.197-22.953c0.961,1.703,1.84,3.529,2.613,5.144
			c0.881,1.832,1.713,3.563,2.635,5.075c3.705,6.08,8.527,7.355,11.92,7.355c2.188,0,9.58-0.729,12.854-10.104
			c0.753-2.148,1.392-4.909,2.076-8.949c0.531-3.145,0.584-15.467,0.584-15.588c0-0.273-0.006-0.543-0.016-0.812
			c0.736-24.428-19.48-46.613-33.338-50.64c-6.799-1.975-16.379-9.22-18.982-12.393c-0.133-0.162-0.27-0.319-0.41-0.474
			C103.211,15.576,97.49,10.379,89.006,10.379L89.006,10.379z"/>
	</g>
</g>
<g id="outline_x5F_black">
	<path d="M89.006,22.379c3.079,0,5.805,1.793,8.905,5.193c4.141,5.046,15.747,13.642,24.911,16.303
		c8.805,2.559,25.477,20.252,24.678,39.133c0.008,0.265,0.023,0.526,0.023,0.795c0,1.559-0.15,12.013-0.416,13.583
		c-1.115,6.583-2.045,9.06-3.099,9.06c-2.178,0-4.873-10.635-10.801-17.4c-4.778-5.455-11.692-7.431-16.955-7.431
		c-2.41,0-4.476,0.415-5.826,1.101l10.039,44.344c0.312,0.897,0.57,1.824,0.765,2.771c0.396,1.961,0.502,3.922,0.354,5.857
		c0.133,3.15,0.099,8.418,0.062,9.651c-0.383,12.908-12.427,24.875-29.197,27.979c-2.738,0.508-5.448,0.75-8.097,0.75
		c-15.595,0-28.907-8.43-31.45-20.953c-0.371-1.832-0.502-9.428-0.396-11.237c0.024-0.428,0.064-0.847,0.113-1.259
		c-1.578-14.018,10.994-27.648,29.059-30.993c2.729-0.505,5.432-0.747,8.069-0.747c4.71,0,9.211,0.771,13.271,2.188L81.704,41.294
		c-0.191-0.94-0.328-11.154-0.133-12.036v-0.001c0.035-3.228,2.435-6.093,5.881-6.73C87.982,22.428,88.499,22.379,89.006,22.379
		 M89.006,16.379c-0.871,0-1.763,0.083-2.648,0.248c-6.154,1.139-10.679,6.381-10.785,12.482
		c-0.258,3.477-0.041,11.943,0.251,13.382c0.039,0.188,0.086,0.373,0.142,0.556l18.343,60.044c-1.502-0.141-3.023-0.212-4.561-0.212
		c-3.042,0-6.125,0.285-9.161,0.848c-9.964,1.846-18.91,6.568-25.19,13.301c-6.422,6.885-9.534,15.229-8.808,23.57
		c-0.031,0.321-0.054,0.633-0.072,0.938c-0.097,1.662-0.052,10.017,0.506,12.771c3.08,15.17,18.43,25.762,37.331,25.762
		c3.052,0,6.144-0.284,9.188-0.85c19.287-3.57,33.63-17.744,34.103-33.701c0.033-1.144,0.08-6.281-0.051-9.742
		c0.152-2.408-0.012-4.809-0.482-7.139c-0.223-1.083-0.512-2.16-0.86-3.213l-8.547-37.743c3.553,0.322,7.944,1.839,10.991,5.317
		c2.576,2.94,4.568,7.085,6.168,10.416c2.33,4.846,4.341,9.029,9.146,9.029c1.893,0,5.342-0.789,7.189-6.082
		c0.627-1.795,1.207-4.327,1.824-7.975c0.408-2.41,0.5-14.469,0.5-14.585c0-0.268-0.008-0.531-0.021-0.795
		c0.34-9.614-3.168-19.979-9.892-29.218c-5.76-7.917-13.086-13.924-19.116-15.677c-8.027-2.332-18.524-10.18-21.947-14.348
		c-0.065-0.081-0.135-0.16-0.205-0.237C99.308,20.2,95.048,16.379,89.006,16.379L89.006,16.379z"/>
</g>
</svg>
