<?xml version="1.0" encoding="utf-8"?>
<!-- Generator: Adobe Illustrator 15.0.0, SVG Export Plug-In . SVG Version: 6.00 Build 0)  -->
<!DOCTYPE svg PUBLIC "-//W3C//DTD SVG 1.1//EN" "http://www.w3.org/Graphics/SVG/1.1/DTD/svg11.dtd">
<svg version="1.1" xmlns="http://www.w3.org/2000/svg" xmlns:xlink="http://www.w3.org/1999/xlink" x="0px" y="0px" width="200px"
	 height="200px" viewBox="0 0 200 200" enable-background="new 0 0 200 200" xml:space="preserve">
<g id="outline_x5F_white">
	<g id="Layer_2">
	</g>
	<path fill="#FFFFFF" d="M89.004,29.473c3.078,0,5.804,1.793,8.904,5.193c4.143,5.046,15.748,13.642,24.91,16.303
		c9.385,2.729,27.709,22.647,24.287,42.874c-1.117,6.583-2.047,9.06-3.099,9.06c-2.179,0-4.874-10.634-10.802-17.398
		c-4.781-5.457-11.699-7.434-16.963-7.434c-4.413,0-7.662,1.39-7.516,3.285c0.014,0.153,0.002,0.228-0.031,0.228
		c-0.037,0-0.104-0.098-0.198-0.283l11.966,52.853c0.312,0.898,0.569,1.826,0.764,2.772c2.974,14.651-9.91,29.361-28.78,32.854
		c-2.738,0.507-5.449,0.75-8.098,0.75c-15.595,0-28.907-8.43-31.449-20.954c-2.975-14.652,9.911-29.361,28.775-32.854
		c2.733-0.506,5.441-0.748,8.085-0.748c6.195,0,12.028,1.332,16.973,3.719l-25.031-81.94c-0.764-3.763,1.809-7.402,5.748-8.131
		C87.979,29.522,88.496,29.473,89.004,29.473 M89.004,17.473c-1.237,0-2.496,0.117-3.741,0.348
		c-5.148,0.952-9.583,3.841-12.481,8.135c-2.836,4.2-3.844,9.236-2.841,14.182c0.077,0.377,0.172,0.751,0.284,1.119l19.159,62.716
		c-3.291,0.022-6.616,0.342-9.893,0.947c-13.751,2.546-25.649,9.95-32.646,20.314c-5.518,8.176-7.544,17.666-5.705,26.727
		c3.653,17.996,21.421,30.566,43.209,30.566c3.418,0,6.877-0.32,10.282-0.95c13.752-2.546,25.652-9.951,32.648-20.316
		c5.519-8.175,7.545-17.665,5.705-26.725c-0.248-1.222-0.566-2.433-0.95-3.62L123.359,92.6c0.289,0.248,0.563,0.519,0.82,0.812
		c2.036,2.323,3.832,6.059,5.272,9.061c0.881,1.832,1.713,3.562,2.634,5.074c3.705,6.08,8.527,7.355,11.921,7.355
		c2.188,0,9.579-0.729,12.854-10.104c0.75-2.148,1.391-4.909,2.074-8.95c2.021-11.936-1.263-24.983-9.242-36.742
		c-6.686-9.852-15.699-17.385-23.526-19.66c-6.798-1.974-16.379-9.221-18.983-12.395c-0.133-0.161-0.269-0.318-0.408-0.472
		C103.21,22.67,97.488,17.473,89.004,17.473L89.004,17.473z"/>
</g>
<g id="outline_x5F_black">
	<path d="M89.004,29.473c3.078,0,5.804,1.793,8.904,5.193c4.143,5.046,15.748,13.642,24.91,16.303
		c9.385,2.729,27.709,22.647,24.287,42.874c-1.115,6.583-2.047,9.06-3.099,9.06c-2.179,0-4.874-10.634-10.802-17.398
		c-4.78-5.457-11.699-7.434-16.963-7.434c-4.413,0-7.662,1.39-7.516,3.285c0.014,0.153,0.002,0.228-0.031,0.228
		c-0.037,0-0.104-0.098-0.198-0.283l11.966,52.853c0.312,0.898,0.569,1.826,0.764,2.772c2.974,14.651-9.91,29.361-28.78,32.854
		c-2.738,0.507-5.449,0.75-8.098,0.75c-15.595,0-28.907-8.43-31.449-20.954c-2.975-14.652,9.911-29.361,28.775-32.854
		c2.733-0.506,5.441-0.748,8.084-0.748c6.196,0,12.029,1.332,16.974,3.719l-25.031-81.94c-0.764-3.763,1.809-7.402,5.748-8.131
		C87.979,29.522,88.496,29.473,89.004,29.473 M89.004,23.473c-0.872,0-1.763,0.083-2.648,0.248c-3.555,0.657-6.61,2.644-8.602,5.593
		c-1.928,2.855-2.614,6.275-1.933,9.631c0.038,0.189,0.085,0.375,0.142,0.56l21.728,71.124c-2.587-0.436-5.244-0.656-7.93-0.656
		c-3.048,0-6.136,0.285-9.177,0.85c-12.18,2.254-22.664,8.732-28.766,17.771c-4.61,6.831-6.314,14.706-4.798,22.175
		c3.078,15.168,18.429,25.762,37.329,25.762c3.053,0,6.145-0.286,9.19-0.852c12.18-2.255,22.666-8.732,28.768-17.771
		c4.61-6.831,6.315-14.706,4.799-22.176c-0.221-1.082-0.51-2.158-0.859-3.211l-10.962-48.417c0.292-0.021,0.61-0.032,0.959-0.032
		c3.735,0,8.97,1.415,12.45,5.388c2.576,2.94,4.566,7.085,6.168,10.415c2.328,4.846,4.34,9.03,9.146,9.03
		c1.892,0,5.341-0.79,7.188-6.084c0.627-1.793,1.207-4.327,1.824-7.973c3.92-23.158-16.166-46.045-28.527-49.639
		c-8.027-2.331-18.525-10.18-21.947-14.348c-0.066-0.081-0.135-0.159-0.204-0.236C99.306,27.294,95.046,23.473,89.004,23.473
		L89.004,23.473z"/>
</g>
</svg>
