<?xml version="1.0" encoding="utf-8"?>
<!-- Generator: Adobe Illustrator 15.0.0, SVG Export Plug-In . SVG Version: 6.00 Build 0)  -->
<!DOCTYPE svg PUBLIC "-//W3C//DTD SVG 1.1//EN" "http://www.w3.org/Graphics/SVG/1.1/DTD/svg11.dtd">
<svg version="1.1" xmlns="http://www.w3.org/2000/svg" xmlns:xlink="http://www.w3.org/1999/xlink" x="0px" y="0px" width="200px"
	 height="200px" viewBox="0 0 200 200" enable-background="new 0 0 200 200" xml:space="preserve">
<g id="icon">
	<g id="Layer_2">
	</g>
	<g>
		<defs>
			<filter id="Adobe_OpacityMaskFilter" filterUnits="userSpaceOnUse" x="44.666" y="29.193" width="125.764" height="125.764">
				<feColorMatrix  type="matrix" values="1 0 0 0 0  0 1 0 0 0  0 0 1 0 0  0 0 0 1 0"/>
			</filter>
		</defs>
		<mask maskUnits="userSpaceOnUse" x="44.666" y="29.193" width="125.764" height="125.764" id="SVGID_1_">
			<g filter="url(#Adobe_OpacityMaskFilter)">
				
					<linearGradient id="SVGID_2_" gradientUnits="userSpaceOnUse" x1="41.7446" y1="1519.7764" x2="41.7446" y2="1468.3083" gradientTransform="matrix(0.7071 0.7071 0.7071 -0.7071 -1016.1281 1156.7158)">
					<stop  offset="0" style="stop-color:#FFFFFF"/>
					<stop  offset="1" style="stop-color:#000000"/>
				</linearGradient>
				<path fill="url(#SVGID_2_)" d="M153.54,46.083c-22.521-22.52-59.031-22.519-81.551,0.001
					C59.421,58.653,53.855,75.58,55.331,92.001c1.284,14.293-2.274,18.999-5.768,22.491c-2.457,2.457-3.556,3.557-3.556,3.557
					c-3.803,3.803,0.758,14.531,10.186,23.959l0.711,0.711l0.713,0.713c9.428,9.428,20.155,13.986,23.958,10.185
					c0,0,1.099-1.099,3.556-3.556c3.493-3.494,8.199-7.053,22.492-5.766c16.42,1.475,33.348-4.092,45.916-16.66
					C176.059,105.115,176.061,68.603,153.54,46.083z"/>
			</g>
		</mask>
		
			<radialGradient id="SVGID_3_" cx="41.7446" cy="1554.6475" r="63.2249" gradientTransform="matrix(0.7071 0.7071 0.7071 -0.7071 -1016.1281 1156.7158)" gradientUnits="userSpaceOnUse">
			<stop  offset="0.545" style="stop-color:#D2D2D2;stop-opacity:0.5"/>
			<stop  offset="0.7102" style="stop-color:#C6C6C6;stop-opacity:0.391"/>
			<stop  offset="1" style="stop-color:#A6A6A6;stop-opacity:0.2"/>
		</radialGradient>
		<path mask="url(#SVGID_1_)" fill="url(#SVGID_3_)" d="M153.54,46.083c-22.521-22.52-59.031-22.519-81.551,0.001
			C59.421,58.653,53.855,75.58,55.331,92.001c1.284,14.293-2.274,18.999-5.768,22.491c-2.457,2.457-3.556,3.557-3.556,3.557
			c-3.803,3.803,0.758,14.531,10.186,23.959l0.711,0.711l0.713,0.713c9.428,9.428,20.155,13.986,23.958,10.185
			c0,0,1.099-1.099,3.556-3.556c3.493-3.494,8.199-7.053,22.492-5.766c16.42,1.475,33.348-4.092,45.916-16.66
			C176.059,105.115,176.061,68.603,153.54,46.083z"/>
		
			<radialGradient id="SVGID_4_" cx="41.7471" cy="1449.7119" r="24.4359" gradientTransform="matrix(0.7071 0.7071 0.4712 -0.4712 -651.6606 792.2487)" gradientUnits="userSpaceOnUse">
			<stop  offset="0.1958" style="stop-color:#C0C0C0"/>
			<stop  offset="0.3921" style="stop-color:#B1B1B1"/>
			<stop  offset="0.7687" style="stop-color:#898989"/>
			<stop  offset="1" style="stop-color:#6E6E6E"/>
		</radialGradient>
		<path fill="url(#SVGID_4_)" d="M55.9,142.301l0.711,0.711l0.712,0.713c9.429,9.428,13.99,20.154,10.187,23.959
			c2.329-2.33,15.681-15.682,15.681-15.682c3.804-3.803-0.757-14.531-10.186-23.959l-0.712-0.713l-0.711-0.711
			c-9.429-9.428-20.155-13.988-23.959-10.186c0,0-13.352,13.354-15.682,15.682C35.746,128.312,46.472,132.873,55.9,142.301z"/>
		
			<radialGradient id="SVGID_5_" cx="41.7437" cy="1555.166" r="62.8561" gradientTransform="matrix(0.7071 0.7071 0.7071 -0.7071 -1016.1281 1156.7158)" gradientUnits="userSpaceOnUse">
			<stop  offset="0" style="stop-color:#130C0E;stop-opacity:0"/>
			<stop  offset="0.811" style="stop-color:#130C0E;stop-opacity:0.5555"/>
			<stop  offset="0.9509" style="stop-color:#130C0E;stop-opacity:0.6512"/>
		</radialGradient>
		<path opacity="0.44" fill="url(#SVGID_5_)" enable-background="new    " d="M153.54,46.083
			c-22.521-22.52-59.031-22.519-81.551,0.001C59.421,58.653,53.855,75.58,55.331,92.001c1.284,14.293-2.274,18.999-5.768,22.491
			c-2.457,2.457-3.556,3.557-3.556,3.557c-1.559,1.559-1.71,4.279-0.701,7.598c3.301,5.728,7.385,11.125,12.281,16.021
			c5.169,5.168,10.899,9.426,16.984,12.816c3.047,0.815,5.539,0.596,7.003-0.869c0,0,1.099-1.098,3.556-3.555
			c3.493-3.494,8.199-7.054,22.492-5.767c16.42,1.476,33.349-4.092,45.916-16.66C176.059,105.115,176.061,68.603,153.54,46.083z"/>
		
			<radialGradient id="SVGID_6_" cx="41.564" cy="1549.8965" r="99.975" gradientTransform="matrix(0.7071 0.7071 0.7071 -0.7071 -1016.1281 1156.7158)" gradientUnits="userSpaceOnUse">
			<stop  offset="0" style="stop-color:#FEFEFE"/>
			<stop  offset="0.3067" style="stop-color:#F7F7F7;stop-opacity:0.6055"/>
			<stop  offset="1" style="stop-color:#F4F4F4;stop-opacity:0"/>
		</radialGradient>
		<path fill="url(#SVGID_6_)" d="M153.54,46.083c-22.521-22.52-59.031-22.519-81.551,0.001
			C59.421,58.653,53.855,75.58,55.331,92.001c1.284,14.293-2.274,18.999-5.768,22.491c-2.457,2.457-3.556,3.557-3.556,3.557
			c-3.803,3.803,0.758,14.531,10.186,23.959l0.711,0.711l0.713,0.713c9.428,9.428,20.155,13.986,23.958,10.185
			c0,0,1.099-1.099,3.556-3.556c3.493-3.494,8.199-7.053,22.492-5.766c16.42,1.475,33.348-4.092,45.916-16.66
			C176.059,105.115,176.061,68.603,153.54,46.083z M106.039,139.652c-12.948-0.775-17.318,2.584-20.586,5.852
			c-2.301,2.299-3.328,3.328-3.328,3.328c-3.558,3.557-13.177-0.291-21.482-8.598l-0.627-0.627l-0.626-0.625
			c-8.307-8.308-12.155-17.926-8.597-21.484c0,0,1.027-1.027,3.327-3.328c3.268-3.268,6.628-7.637,5.853-20.584
			c-0.892-14.874,4.627-30.401,16.386-42.16c21.07-21.07,54.232-22.068,74.071-2.23c19.838,19.838,18.84,53-2.23,74.072
			C136.439,135.025,120.912,140.543,106.039,139.652z"/>
		
			<radialGradient id="SVGID_7_" cx="32.5576" cy="1421.4551" r="90.0435" gradientTransform="matrix(0.7854 0.7854 0.7849 -0.7849 -1032.0778 1180.302)" gradientUnits="userSpaceOnUse">
			<stop  offset="0.3069" style="stop-color:#FFFFF8"/>
			<stop  offset="0.3245" style="stop-color:#FFFFF3;stop-opacity:0.9745"/>
			<stop  offset="0.4492" style="stop-color:#FFFFD2;stop-opacity:0.7946"/>
			<stop  offset="0.5775" style="stop-color:#FFFFB8;stop-opacity:0.6095"/>
			<stop  offset="0.7095" style="stop-color:#FFFFA6;stop-opacity:0.4192"/>
			<stop  offset="0.8472" style="stop-color:#FFFF9B;stop-opacity:0.2205"/>
			<stop  offset="1" style="stop-color:#FFFF97;stop-opacity:0"/>
		</radialGradient>
		<path fill="url(#SVGID_7_)" d="M153.54,46.083c-22.521-22.52-59.031-22.519-81.551,0.001
			C59.421,58.653,53.855,75.58,55.331,92.001c1.284,14.293-2.274,18.999-5.768,22.491c-2.457,2.457-3.556,3.557-3.556,3.557
			c-3.803,3.803,0.758,14.531,10.186,23.959l0.711,0.711l0.713,0.713c9.428,9.428,20.155,13.986,23.958,10.185
			c0,0,1.099-1.099,3.556-3.556c3.493-3.494,8.199-7.053,22.492-5.766c16.42,1.475,33.348-4.092,45.916-16.66
			C176.059,105.115,176.061,68.603,153.54,46.083z M107.589,143.205c-13.981-1.262-18.584,2.217-21.998,5.631
			c-2.403,2.404-3.478,3.477-3.478,3.477c-3.719,3.722-14.213-0.746-23.438-9.971l-0.696-0.697l-0.696-0.694
			c-9.226-9.228-13.69-19.722-9.972-23.439c0,0,1.073-1.071,3.477-3.477c3.415-3.414,6.896-8.017,5.633-21.997
			C54.972,75.975,60.409,59.419,72.7,47.129c22.018-22.02,57.731-22.006,79.768,0.028c22.036,22.034,22.048,57.75,0.027,79.767
			C140.204,139.215,123.648,144.652,107.589,143.205z"/>
		<g>
			
				<radialGradient id="SVGID_8_" cx="-5.6079" cy="1557.1025" r="25.9396" gradientTransform="matrix(0.7071 0.7071 0.7071 -0.7071 -1016.1281 1156.7158)" gradientUnits="userSpaceOnUse">
				<stop  offset="0" style="stop-color:#FFFFFF;stop-opacity:0.6"/>
				<stop  offset="1" style="stop-color:#F4F4F4;stop-opacity:0.3"/>
			</radialGradient>
			<path fill="url(#SVGID_8_)" d="M77.049,49.511c7.736-7.736,16.744-13.232,26.068-16.443
				c-10.604,1.898-20.757,6.934-28.951,15.129C64.028,58.333,58.703,71.465,58.205,84.745C60.461,72.25,66.794,59.765,77.049,49.511
				z"/>
			
				<radialGradient id="SVGID_9_" cx="89.0981" cy="1557.1025" r="25.941" gradientTransform="matrix(0.7071 0.7071 0.7071 -0.7071 -1016.1281 1156.7158)" gradientUnits="userSpaceOnUse">
				<stop  offset="0" style="stop-color:#FFFFFF;stop-opacity:0.6"/>
				<stop  offset="1" style="stop-color:#F4F4F4;stop-opacity:0.3"/>
			</radialGradient>
			<path fill="url(#SVGID_9_)" d="M151.428,125.457c8.194-8.195,13.229-18.348,15.129-28.952
				c-3.209,9.323-8.705,18.331-16.443,26.069c-10.256,10.256-22.739,16.588-35.236,18.846
				C128.156,140.922,141.289,135.596,151.428,125.457z"/>
			
				<radialGradient id="SVGID_10_" cx="65.0073" cy="1492.3281" r="4.0352" gradientTransform="matrix(0.7071 0.7071 0.7071 -0.7071 -1016.1281 1156.7158)" gradientUnits="userSpaceOnUse">
				<stop  offset="0" style="stop-color:#FFFFFF;stop-opacity:0.6"/>
				<stop  offset="1" style="stop-color:#F4F4F4;stop-opacity:0.3"/>
			</radialGradient>
			<path fill="url(#SVGID_10_)" d="M81.765,149.727c-0.611,0.611-1.141,1.142-1.597,1.597c1.27-0.087,2.322-0.49,3.081-1.25
				c0,0,1.04-1.039,3.369-3.369c0.655-0.654,1.358-1.313,2.167-1.938C85.588,146.146,83.537,147.953,81.765,149.727z"/>
			
				<radialGradient id="SVGID_11_" cx="18.4839" cy="1492.3271" r="4.0353" gradientTransform="matrix(0.7071 0.7071 0.7071 -0.7071 -1016.1281 1156.7158)" gradientUnits="userSpaceOnUse">
				<stop  offset="0" style="stop-color:#FFFFFF;stop-opacity:0.6"/>
				<stop  offset="1" style="stop-color:#F4F4F4;stop-opacity:0.3"/>
			</radialGradient>
			<path fill="url(#SVGID_11_)" d="M48.302,119.455c0.456-0.455,0.985-0.984,1.597-1.596c1.772-1.771,3.578-3.824,4.961-7.021
				c-0.625,0.809-1.283,1.514-1.939,2.17c-2.328,2.328-3.368,3.367-3.368,3.367C48.793,117.135,48.39,118.189,48.302,119.455z"/>
		</g>
		<defs>
			<filter id="Adobe_OpacityMaskFilter_1_" filterUnits="userSpaceOnUse" x="65.144" y="77.105" width="57.375" height="57.376">
				<feColorMatrix  type="matrix" values="1 0 0 0 0  0 1 0 0 0  0 0 1 0 0  0 0 0 1 0"/>
			</filter>
		</defs>
		<mask maskUnits="userSpaceOnUse" x="65.144" y="77.105" width="57.375" height="57.376" id="SVGID_12_">
			<g filter="url(#Adobe_OpacityMaskFilter_1_)">
				
					<radialGradient id="SVGID_13_" cx="41.7891" cy="1042.498" r="22.5998" gradientTransform="matrix(0.7071 0.7071 1.1545 -1.1545 -1135.3694 1275.9547)" gradientUnits="userSpaceOnUse">
					<stop  offset="0" style="stop-color:#FFFF9A"/>
					<stop  offset="0.2963" style="stop-color:#B7B76E"/>
					<stop  offset="0.9838" style="stop-color:#040403"/>
					<stop  offset="1" style="stop-color:#000000"/>
				</radialGradient>
				<polygon fill="url(#SVGID_13_)" points="81.536,148.875 50.81,118.146 105.508,63.449 136.234,94.175 				"/>
			</g>
		</mask>
		<g mask="url(#SVGID_12_)">
			<g>
				<line fill="none" stroke="#231F20" stroke-width="2" stroke-miterlimit="10" x1="65.969" y1="128.68" x2="99.843" y2="79.179"/>
				
					<line fill="none" stroke="#231F20" stroke-width="2" stroke-miterlimit="10" x1="70.944" y1="133.656" x2="120.445" y2="99.783"/>
			</g>
			
				<ellipse transform="matrix(-0.7071 0.7071 -0.7071 -0.7071 226.4266 64.5704)" fill="#FFFFE9" cx="99.84" cy="79.18" rx="1.839" ry="2.286"/>
			
				<ellipse transform="matrix(-0.7071 0.7071 -0.7071 -0.7071 276.1616 85.1541)" fill="#FFFFE9" cx="120.445" cy="99.772" rx="1.839" ry="2.286"/>
			<path fill="none" stroke="#231F20" stroke-width="2" stroke-miterlimit="10" d="M100.402,79.739c0,0,6.646-1.054,9.829,2.23
				c3.184,3.28,0.513,7.471-3.388,8.11c-2.86,0.471-6.758-1.64-3.524-5.426c2.9-3.398,11.912-1.45,13.449,4.95
				c1.517,6.315-3.123,6.977-5.102,7.088c-3.566,0.203-3.305-6.393,1.92-7.39c3.882-0.742,6.954,1.579,7.393,5.72
				c0.377,3.535-0.783,5.009-0.783,5.009"/>
		</g>
		
			<radialGradient id="SVGID_14_" cx="57.6909" cy="1452.749" r="12.0678" gradientTransform="matrix(0.5955 0.5955 0.7071 -0.7071 -1021.3832 1151.4612)" gradientUnits="userSpaceOnUse">
			<stop  offset="0" style="stop-color:#555555"/>
			<stop  offset="1" style="stop-color:#000000"/>
		</radialGradient>
		<path fill="url(#SVGID_14_)" d="M43.457,156.291l-0.257-0.258l-0.257-0.256c-3.399-3.4-10.018-9.123-8.389-10.752
			c-0.998,0.998-1.533,8.361-1.533,8.361c-1.627,1.627-0.192,5.704,3.207,9.104l0.256,0.256l0.258,0.258
			c3.399,3.397,7.478,4.834,9.105,3.205c0,0,6.815-0.877,7.813-1.875C52.031,165.967,46.857,159.689,43.457,156.291z"/>
		
			<radialGradient id="SVGID_15_" cx="41.1548" cy="1456.8799" r="15.4817" gradientTransform="matrix(0.7071 0.7071 0.7071 -0.7071 -1016.1281 1156.7158)" gradientUnits="userSpaceOnUse">
			<stop  offset="0" style="stop-color:#FFFFFF"/>
			<stop  offset="1" style="stop-color:#555555"/>
		</radialGradient>
		<path fill="url(#SVGID_15_)" d="M47.411,152.838l-0.392-0.393l-0.39-0.389c-5.181-5.183-15.151-14.005-13.062-16.095
			c-1.28,1.279-1.146,11.545-1.146,11.545c-2.089,2.088,0.414,7.979,5.594,13.162l0.391,0.39l0.391,0.393
			c5.18,5.18,11.072,7.682,13.162,5.594c0,0,9.457-0.412,10.736-1.691C60.605,167.443,52.59,158.016,47.411,152.838z"/>
		
			<radialGradient id="SVGID_16_" cx="41.7446" cy="1471.2559" r="21.0622" gradientTransform="matrix(0.7071 0.7071 0.7071 -0.7071 -1016.1281 1156.7158)" gradientUnits="userSpaceOnUse">
			<stop  offset="0" style="stop-color:#FFFFFF"/>
			<stop  offset="1" style="stop-color:#898989"/>
		</radialGradient>
		<path fill="url(#SVGID_16_)" d="M58.825,142.223l-0.712-0.713l-0.711-0.711c-9.429-9.428-13.988-20.156-10.186-23.959
			c-2.33,2.33-15.682,15.682-15.682,15.682c-3.803,3.804,0.757,14.531,10.186,23.961l0.711,0.709l0.712,0.714
			c9.429,9.428,20.155,13.985,23.958,10.184c0,0,13.352-13.353,15.682-15.682C78.98,156.211,68.253,151.65,58.825,142.223z"/>
		
			<radialGradient id="SVGID_17_" cx="41.3936" cy="1475.7529" r="18.2021" gradientTransform="matrix(0.7071 0.7071 0.7071 -0.7071 -1016.1281 1156.7158)" gradientUnits="userSpaceOnUse">
			<stop  offset="0.545" style="stop-color:#FFFFFF"/>
			<stop  offset="1" style="stop-color:#898989"/>
		</radialGradient>
		<path fill="url(#SVGID_17_)" d="M58.825,142.223l-0.712-0.713l-0.711-0.711c-9.429-9.428-13.988-20.156-10.186-23.959
			c-0.207,0.207-0.506,0.506-0.87,0.871c-3.804,3.803,0.757,14.531,10.185,23.959l0.711,0.711l0.713,0.713
			c9.428,9.428,20.155,13.986,23.958,10.184c0.364-0.364,0.663-0.661,0.87-0.87C78.98,156.211,68.253,151.65,58.825,142.223z"/>
		
			<radialGradient id="SVGID_18_" cx="180.707" cy="10.4448" r="99.2997" gradientTransform="matrix(1 0 0 -1 -50 61)" gradientUnits="userSpaceOnUse">
			<stop  offset="0" style="stop-color:#FFFFFF;stop-opacity:0.6"/>
			<stop  offset="1" style="stop-color:#F4F4F4;stop-opacity:0.3"/>
		</radialGradient>
		<path fill="url(#SVGID_18_)" d="M156.311,92.025c0,0-4.787-22.465-26.502-34.281c-6.687-3.64-38.655,28.111-34.431,34.43
			c10.876,16.268,31.636,37.446,38.722,33.334C145.48,118.902,155.408,107.33,156.311,92.025z"/>
		
			<radialGradient id="SVGID_19_" cx="150.1299" cy="24.7803" r="51.9342" gradientTransform="matrix(1 0 0 -1 -50 61)" gradientUnits="userSpaceOnUse">
			<stop  offset="0" style="stop-color:#FFFFFF;stop-opacity:0.6"/>
			<stop  offset="1" style="stop-color:#F4F4F4;stop-opacity:0.3"/>
		</radialGradient>
		<path fill="url(#SVGID_19_)" d="M105.673,41.718c0,0,10.938,2.487,13.675,7.707c1.031,1.971-13.925,3.979-33.068,25.609
			C84.193,77.39,71.479,64.73,72.604,62.853C77.825,54.151,90.366,42.621,105.673,41.718z"/>
		
			<radialGradient id="SVGID_20_" cx="41.7456" cy="1125.2402" r="8.1309" gradientTransform="matrix(0.7071 0.7071 0.974 -0.974 -1057.5905 1198.1777)" gradientUnits="userSpaceOnUse">
			<stop  offset="0" style="stop-color:#E7E7E7;stop-opacity:0.3"/>
			<stop  offset="0.6182" style="stop-color:#EAEAEA;stop-opacity:0.6091"/>
			<stop  offset="0.9437" style="stop-color:#F2F2F2;stop-opacity:0.7719"/>
			<stop  offset="1" style="stop-color:#F4F4F4;stop-opacity:0.8"/>
		</radialGradient>
		<path opacity="0.4" fill="url(#SVGID_20_)" enable-background="new    " d="M75.176,124.447c-2.878-2.877-6.509-3.91-11.235,0.816
			c-0.171,0.17-8.888,8.893-10.809,10.825c1.216,1.646,2.603,3.269,4.156,4.822L58,141.623l0.711,0.713
			c1.555,1.555,3.179,2.943,4.827,4.156c1.743-1.732,10.675-10.662,10.822-10.809C79.086,130.957,78.054,127.326,75.176,124.447z"/>
		
			<radialGradient id="SVGID_21_" cx="42.0674" cy="1478.1895" r="19.3033" gradientTransform="matrix(0.7071 0.7071 0.7071 -0.7071 -1016.1281 1156.7158)" gradientUnits="userSpaceOnUse">
			<stop  offset="0" style="stop-color:#FFFFFF"/>
			<stop  offset="1" style="stop-color:#A4A4A4"/>
		</radialGradient>
		<path fill="url(#SVGID_21_)" d="M52.741,145.707c-9.08-9.08-12.377-18.113-12.604-20.496c-0.223-2.322,0.766-3.957,2.797-4.121
			c0,0-1.114,0.744-0.829,2.609c0.371,2.445,2.445,11.479,16.293,23.426c9.529,8.221,15.285,9.496,18.442,9.111
			c2.489-0.305,3.659-1.555,3.71-1.605c0.652-0.621,1.123-1.092,1.123-1.092c0.445,0.176,0.565,1.037,0.146,1.678
			c-0.161,0.246-1.57,2.52-5.222,3.027c-5.438,0.756-11.674-1.762-20.039-8.99C55.183,148.064,53.913,146.879,52.741,145.707z"/>
		
			<radialGradient id="SVGID_22_" cx="42.0664" cy="1473.0908" r="19.303" gradientTransform="matrix(0.7071 0.7071 0.7071 -0.7071 -1016.1281 1156.7158)" gradientUnits="userSpaceOnUse">
			<stop  offset="0" style="stop-color:#FFFFFF"/>
			<stop  offset="1" style="stop-color:#A4A4A4"/>
		</radialGradient>
		<path fill="url(#SVGID_22_)" d="M49.135,149.312c-9.08-9.08-12.375-18.113-12.603-20.496c-0.223-2.322,0.767-3.957,2.798-4.123
			c0,0-1.114,0.744-0.829,2.611c0.371,2.444,2.444,11.477,16.293,23.424c9.527,8.223,15.283,9.498,18.442,9.112
			c2.487-0.303,3.658-1.555,3.709-1.604c0.652-0.622,1.123-1.094,1.123-1.094c0.446,0.176,0.566,1.037,0.145,1.678
			c-0.161,0.246-1.568,2.519-5.221,3.027c-5.438,0.758-11.674-1.764-20.038-8.99C51.578,151.668,50.307,150.484,49.135,149.312z"/>
		
			<radialGradient id="SVGID_23_" cx="42.0674" cy="1468.0371" r="19.303" gradientTransform="matrix(0.7071 0.7071 0.7071 -0.7071 -1016.1281 1156.7158)" gradientUnits="userSpaceOnUse">
			<stop  offset="0" style="stop-color:#FFFFFF"/>
			<stop  offset="1" style="stop-color:#A4A4A4"/>
		</radialGradient>
		<path fill="url(#SVGID_23_)" d="M45.561,152.885c-9.079-9.078-12.375-18.113-12.602-20.494c-0.223-2.322,0.766-3.957,2.797-4.123
			c0,0-1.113,0.744-0.829,2.609c0.372,2.447,2.445,11.479,16.292,23.426c9.529,8.223,15.285,9.498,18.443,9.111
			c2.488-0.301,3.659-1.555,3.709-1.602c0.652-0.623,1.123-1.095,1.123-1.095c0.447,0.177,0.566,1.037,0.145,1.679
			c-0.16,0.246-1.568,2.518-5.221,3.026c-5.438,0.756-11.674-1.764-20.038-8.991C48.004,155.242,46.733,154.059,45.561,152.885z"/>
		
			<radialGradient id="SVGID_24_" cx="42.0664" cy="1463.29" r="19.303" gradientTransform="matrix(0.7071 0.7071 0.7071 -0.7071 -1016.1281 1156.7158)" gradientUnits="userSpaceOnUse">
			<stop  offset="0" style="stop-color:#FFFFFF"/>
			<stop  offset="1" style="stop-color:#A4A4A4"/>
		</radialGradient>
		<path fill="url(#SVGID_24_)" d="M42.205,156.242c-9.08-9.08-12.377-18.113-12.604-20.494c-0.223-2.322,0.767-3.959,2.797-4.123
			c0,0-1.113,0.744-0.828,2.609c0.371,2.445,2.445,11.479,16.293,23.426c9.527,8.223,15.284,9.496,18.442,9.111
			c2.487-0.304,3.659-1.556,3.709-1.604c0.652-0.621,1.123-1.092,1.123-1.092c0.447,0.176,0.566,1.036,0.145,1.678
			c-0.161,0.244-1.569,2.519-5.221,3.026c-5.438,0.757-11.673-1.764-20.038-8.991C44.646,158.6,43.377,157.416,42.205,156.242z"/>
		
			<radialGradient id="SVGID_25_" cx="13.1328" cy="1481.5742" r="28.9087" gradientTransform="matrix(0.7071 0.7071 0.7071 -0.7071 -1016.1281 1156.7158)" gradientUnits="userSpaceOnUse">
			<stop  offset="0.1958" style="stop-color:#C0C0C0"/>
			<stop  offset="0.4337" style="stop-color:#B1B1B1"/>
			<stop  offset="0.8904" style="stop-color:#898989"/>
			<stop  offset="1" style="stop-color:#7F7F7F"/>
		</radialGradient>
		<path opacity="0.1" fill="url(#SVGID_25_)" enable-background="new    " d="M52.88,129.488c0,0-6.63-7.295,0.166-14.09
			c6.796-6.797,8.121-9.449,8.286-14.588c0.167-5.14,8.289-0.995,6.135,7.129c-2.155,8.121-7.127,9.444-10.774,13.092
			C53.045,124.68,51.057,126.668,52.88,129.488z"/>
		
			<radialGradient id="SVGID_26_" cx="-129.2754" cy="1481.5742" r="28.9029" gradientTransform="matrix(-0.7071 -0.7071 0.7071 -0.7071 -1057.1455 1115.6984)" gradientUnits="userSpaceOnUse">
			<stop  offset="0.1958" style="stop-color:#C0C0C0"/>
			<stop  offset="0.4337" style="stop-color:#B1B1B1"/>
			<stop  offset="0.8904" style="stop-color:#898989"/>
			<stop  offset="1" style="stop-color:#7F7F7F"/>
		</radialGradient>
		<path opacity="0.1" fill="url(#SVGID_26_)" enable-background="new    " d="M70.781,147.389c0,0,7.294,6.629,14.09-0.166
			c6.796-6.797,9.448-8.121,14.586-8.287c5.139-0.166,0.995-8.289-7.128-6.133c-8.121,2.154-9.445,7.127-13.093,10.773
			C75.589,147.225,73.601,149.213,70.781,147.389z"/>
	</g>
</g>
<g id="outline_x5F_white">
	<g>
		<g>
			<path fill="#FFFFFF" d="M112.766,29.194c14.756,0,29.517,5.631,40.774,16.889c22.521,22.52,22.519,59.032-0.001,81.551
				c-11.252,11.252-25.997,16.892-40.745,16.892c-1.726,0-3.451-0.076-5.171-0.23c-2.047-0.186-3.895-0.27-5.573-0.27
				c-10.041,0-13.926,3.041-16.919,6.035c-0.785,0.785-1.417,1.416-1.934,1.934c-0.002,0.002-0.004,0.006-0.007,0.008
				c0,0-0.948,0.947-2.376,2.377c0.506-0.488,0.859-0.84,0.859-0.84c0.445,0.176,0.565,1.037,0.146,1.678
				c-0.131,0.199-1.076,1.719-3.358,2.564c0.041,0.322-0.03,0.711-0.248,1.041c-0.129,0.197-1.066,1.701-3.322,2.551
				c0.035,0.318-0.039,0.699-0.252,1.023c-0.125,0.19-1.007,1.6-3.101,2.461c0.006,0.289-0.069,0.613-0.256,0.896
				c-0.159,0.242-1.538,2.459-5.091,3.004c-0.799,0.445-1.777,0.658-2.896,0.658c-2.302,0-5.199-0.904-8.35-2.563
				c-1.693,0.137-2.986,0.192-2.986,0.192c-0.499,0.498-1.215,0.733-2.088,0.733c-1.21,0-2.721-0.454-4.366-1.293
				c-0.417,0.269-0.938,0.396-1.532,0.396c-1.982,0-4.783-1.428-7.23-3.875l-0.258-0.258l-0.256-0.256
				c-3.24-3.242-4.689-7.095-3.408-8.855c-1.302-2.69-1.544-4.983-0.398-6.129c0,0-0.02-1.504,0.028-3.43
				c-0.879-1.75-1.509-3.41-1.877-4.927c-0.597-1.551-0.909-2.741-0.972-3.403c-0.223-2.322,0.767-3.959,2.797-4.123
				c0,0-0.203,0.146-0.414,0.447c0.246-0.246,0.586-0.587,1-1c0.211-1.601,1.154-2.675,2.771-2.806c0,0-0.203,0.146-0.413,0.445
				c0.389-0.389,0.796-0.795,1.216-1.215c0.211-1.6,1.154-2.672,2.771-2.805c0,0-0.204,0.146-0.414,0.447
				c0.416-0.416,0.833-0.832,1.248-1.248c0.211-1.601,1.153-2.673,2.771-2.804c0,0-0.202,0.146-0.413,0.445
				c1.36-1.361,2.583-2.584,3.486-3.486c0,0,0.119-0.119,0.339-0.338c0.281-0.281,0.508-0.51,0.698-0.699
				c0.58-0.579,1.402-1.401,2.519-2.52c3.493-3.492,7.052-8.197,5.768-22.491c-1.476-16.422,4.09-33.349,16.658-45.917
				C83.25,34.823,98.006,29.194,112.766,29.194 M112.766,17.194c-18.607,0-36.104,7.247-49.262,20.405
				C48.862,52.241,41.527,72.461,43.379,93.076c0.877,9.754-0.885,11.514-2.3,12.93l-2.519,2.52l-0.371,0.371l-0.328,0.328
				l-0.323,0.322l-1.069,1.068c-2.232,1.092-4.127,2.719-5.545,4.748c-1.394,0.971-2.605,2.182-3.59,3.584
				c-1.352,0.945-2.533,2.117-3.5,3.469c-0.986,0.709-1.888,1.543-2.683,2.492c-2.687,3.207-3.928,7.463-3.495,11.982
				c0.162,1.709,0.641,3.641,1.46,5.885c0.278,1.02,0.62,2.059,1.023,3.108c-0.573,2.341-0.69,5.22,0.228,8.617
				c-0.249,5.433,2.299,11.396,7.375,16.474l0.258,0.26l0.248,0.248c4.706,4.705,10.434,7.397,15.725,7.397c0.078,0,0.156,0,0.233,0
				c1.938,0.599,3.832,0.897,5.665,0.897c1.237,0,2.444-0.139,3.603-0.409c3.454,1.36,6.744,2.047,9.821,2.047
				c2.351,0,4.559-0.394,6.591-1.172c4.352-1.08,8.137-3.509,10.705-6.882c1.308-1.01,2.469-2.178,3.437-3.465
				c1.368-1.037,2.58-2.246,3.587-3.59c1.682-1.271,3.128-2.805,4.25-4.527c0.6-0.913,1.081-1.897,1.438-2.924l0.313-0.312
				c1.353-1.353,2.52-2.521,8.434-2.521c1.357,0,2.87,0.074,4.498,0.222c2.069,0.187,4.17,0.278,6.246,0.278
				c18.587,0,36.071-7.246,49.229-20.405c13.158-13.158,20.404-30.652,20.404-49.26c0.002-18.608-7.244-36.103-20.402-49.261
				C148.867,24.44,131.373,17.194,112.766,17.194L112.766,17.194z"/>
		</g>
	</g>
</g>
<g id="outline_x5F_black">
	<g>
		<path d="M112.766,29.194c14.756,0,29.517,5.631,40.774,16.889c22.521,22.52,22.519,59.032-0.001,81.551
			c-11.252,11.252-25.997,16.892-40.745,16.892c-1.726,0-3.451-0.076-5.171-0.23c-2.047-0.186-3.895-0.27-5.573-0.27
			c-10.041,0-13.926,3.041-16.919,6.035c-0.785,0.785-1.417,1.416-1.934,1.934c-0.002,0.002-0.004,0.006-0.007,0.008
			c0,0-0.948,0.947-2.376,2.377c0.506-0.488,0.859-0.84,0.859-0.84c0.445,0.176,0.565,1.037,0.146,1.678
			c-0.131,0.199-1.076,1.719-3.358,2.564c0.041,0.322-0.03,0.711-0.248,1.041c-0.129,0.197-1.066,1.701-3.322,2.551
			c0.035,0.318-0.039,0.699-0.252,1.023c-0.125,0.19-1.007,1.6-3.101,2.461c0.006,0.289-0.069,0.613-0.256,0.896
			c-0.159,0.242-1.538,2.459-5.091,3.004c-0.799,0.445-1.777,0.658-2.896,0.658c-2.302,0-5.199-0.904-8.35-2.563
			c-1.693,0.137-2.986,0.192-2.986,0.192c-0.499,0.498-1.215,0.733-2.088,0.733c-1.21,0-2.721-0.454-4.366-1.293
			c-0.417,0.269-0.938,0.396-1.532,0.396c-1.982,0-4.783-1.428-7.23-3.875l-0.258-0.258l-0.256-0.256
			c-3.24-3.242-4.689-7.095-3.408-8.855c-1.302-2.69-1.544-4.983-0.398-6.129c0,0-0.02-1.504,0.028-3.43
			c-0.879-1.75-1.509-3.41-1.877-4.927c-0.597-1.551-0.909-2.741-0.972-3.403c-0.223-2.322,0.767-3.959,2.797-4.123
			c0,0-0.203,0.146-0.414,0.447c0.246-0.246,0.586-0.587,1-1c0.211-1.601,1.154-2.675,2.771-2.806c0,0-0.203,0.146-0.413,0.445
			c0.389-0.389,0.796-0.795,1.216-1.215c0.211-1.6,1.154-2.672,2.771-2.805c0,0-0.204,0.146-0.414,0.447
			c0.416-0.416,0.833-0.832,1.248-1.248c0.211-1.601,1.153-2.673,2.771-2.804c0,0-0.202,0.146-0.413,0.445
			c1.36-1.361,2.583-2.584,3.486-3.486c0,0,0.119-0.119,0.339-0.338c0.281-0.281,0.508-0.51,0.698-0.699
			c0.58-0.579,1.402-1.401,2.519-2.52c3.493-3.492,7.052-8.197,5.768-22.491c-1.476-16.422,4.09-33.349,16.658-45.917
			C83.25,34.823,98.006,29.194,112.766,29.194 M112.766,23.194c-17.006,0-32.994,6.623-45.019,18.647
			c-13.381,13.382-20.085,31.86-18.392,50.698c1.127,12.549-1.855,15.531-4.034,17.709l-2.519,2.521l-0.369,0.369l-0.33,0.329
			l-0.33,0.328l-1.312,1.312l-0.555,0.556c-2.012,0.746-3.623,2.168-4.63,4.062c-1.528,0.803-2.764,2.033-3.594,3.584
			c-1.478,0.779-2.681,1.963-3.506,3.449c-0.921,0.512-1.741,1.186-2.427,2.002c-1.646,1.965-2.399,4.648-2.121,7.557
			c0.117,1.238,0.525,2.798,1.212,4.64c0.372,1.422,0.903,2.901,1.585,4.42c-0.002,0.185-0.004,0.356-0.005,0.522
			c-0.772,1.822-1.154,4.459,0.031,7.996c-0.559,3.957,1.397,8.699,5.533,12.836l0.257,0.258l0.254,0.255
			c3.584,3.584,7.766,5.637,11.477,5.637c0.356,0,0.708-0.019,1.055-0.058c1.705,0.636,3.328,0.955,4.844,0.955
			c1.574,0,2.865-0.334,3.905-0.809c3.469,1.625,6.664,2.445,9.519,2.445c1.734,0,3.332-0.303,4.766-0.906
			c4.84-1.055,7.314-4.064,8.207-5.418c1.373-0.93,2.538-2.096,3.395-3.414c0.014-0.021,0.027-0.043,0.041-0.062
			c1.428-0.94,2.637-2.137,3.526-3.502c0.02-0.028,0.039-0.059,0.059-0.09c1.437-0.942,2.653-2.141,3.548-3.516
			c0.557-0.85,0.932-1.801,1.113-2.781l1.425-1.424c1.905-1.906,4.275-4.277,12.676-4.277c1.536,0,3.23,0.082,5.035,0.244
			c1.891,0.17,3.812,0.256,5.709,0.256c16.984,0,32.962-6.623,44.987-18.647c24.823-24.824,24.823-65.213,0.001-90.036
			C145.758,29.816,129.771,23.194,112.766,23.194L112.766,23.194z"/>
	</g>
</g>
</svg>
