<?xml version="1.0" encoding="utf-8"?>
<!-- Generator: Adobe Illustrator 15.0.0, SVG Export Plug-In . SVG Version: 6.00 Build 0)  -->
<!DOCTYPE svg PUBLIC "-//W3C//DTD SVG 1.1//EN" "http://www.w3.org/Graphics/SVG/1.1/DTD/svg11.dtd">
<svg version="1.1" id="Layer_1" xmlns="http://www.w3.org/2000/svg" xmlns:xlink="http://www.w3.org/1999/xlink" x="0px" y="0px"
	 width="200px" height="200px" viewBox="0 0 200 200" enable-background="new 0 0 200 200" xml:space="preserve">
<g id="icon">
	<g id="Layer_2">
	</g>
	<g>
		<path fill="#849AB2" d="M161.501,24.098L69.963,89.609l28.263,40.858l-4.473,9.275l14.365,5.518l-0.2-11.986l9.35-0.014
			l-0.256-11.986l9.405-0.014l-0.017-11.281l9.168-0.08l-0.021-13.332l9.166-0.08l-0.019-11.92l9.166-0.079l-0.018-11.92
			l8.691-0.079c0,0-0.014-8.277-0.018-12.272c2.817-0.005,9.746-0.014,9.746-0.014l-0.121-12.34l2.516-3.258L161.501,24.098z"/>
		
			<linearGradient id="SVGID_1_" gradientUnits="userSpaceOnUse" x1="244.6973" y1="696.3779" x2="195.3178" y2="706.4287" gradientTransform="matrix(1 -0.0014 0.0014 1 -93.2423 -614.9687)">
			<stop  offset="0" style="stop-color:#FFFFFF;stop-opacity:0"/>
			<stop  offset="0.319" style="stop-color:#CAF0FF;stop-opacity:0.3061"/>
			<stop  offset="0.4356" style="stop-color:#DBF5FF;stop-opacity:0.5258"/>
			<stop  offset="0.4785" style="stop-color:#F2FBFF;stop-opacity:0.825"/>
			<stop  offset="0.5231" style="stop-color:#FFFFFF"/>
			<stop  offset="0.589" style="stop-color:#E2F0FF;stop-opacity:0.5654"/>
			<stop  offset="0.7055" style="stop-color:#D2E8FF;stop-opacity:0.3348"/>
			<stop  offset="1" style="stop-color:#FFFFFF;stop-opacity:0"/>
		</linearGradient>
		<path fill="url(#SVGID_1_)" d="M161.501,24.098L69.963,89.609l28.263,40.858l-4.473,9.275l14.365,5.518l-0.2-11.986l9.35-0.014
			l-0.256-11.986l9.405-0.014l-0.017-11.281l9.168-0.08l-0.021-13.332l9.166-0.08l-0.019-11.92l9.166-0.079l-0.018-11.92
			l8.691-0.079c0,0-0.014-8.277-0.018-12.272c2.817-0.005,9.746-0.014,9.746-0.014l-0.121-12.34l2.516-3.258L161.501,24.098z"/>
		
			<linearGradient id="SVGID_2_" gradientUnits="userSpaceOnUse" x1="69.585" y1="710.6797" x2="100.8521" y2="725.8201" gradientTransform="matrix(1 -0.0014 0.0014 1 -93.2423 -614.9687)">
			<stop  offset="0" style="stop-color:#FAC28D"/>
			<stop  offset="1" style="stop-color:#7C5320"/>
		</linearGradient>
		<path fill="url(#SVGID_2_)" d="M72.787,92.894c-9.159,6.045-39.853,22.424-48.849,31.893c-1.563,1.648,1.123,1.639,2.362,4.135
			c2.905,1.068,6.635-2.154,11.281-0.721c5.03,1.551,10.661,11.811,14.832,17.605c5.25,7.295,12.004,14.209,11.312,21.139
			c-0.22,2.197-5.026,10.621-3.482,15.182c0.686,2.025,2.647,4.908,4.911,3.26c6.216-4.359,11.152-8.477,16.349-12.672
			C89.947,161,96.188,144.5,101.05,133.752C94.857,122.297,82.686,103.918,72.787,92.894z M71.992,153.682
			c-5.007-0.235-8.416-7.516-12.176-12.717c-2.909-4.029-8.723-10.211-8.614-15.545c0.102-4.943,6.321-8.988,10.315-9.928
			c7.796-1.83,10.667,6.523,15.068,12.715c3.572,5.025,9.551,10.141,8.705,15.617C84.625,148.125,76.037,153.873,71.992,153.682z"/>
		
			<linearGradient id="SVGID_3_" gradientUnits="userSpaceOnUse" x1="150.1523" y1="732.7871" x2="178.6642" y2="835.4299" gradientTransform="matrix(1 -0.0014 0.0014 1 -93.2423 -614.9687)">
			<stop  offset="0" style="stop-color:#FAC28D"/>
			<stop  offset="1" style="stop-color:#7C5320"/>
		</linearGradient>
		<path fill="url(#SVGID_3_)" d="M69.963,89.609c-9.159,6.044-29.125,18.719-38.742,27.555c-2.715,2.492-7.877,4.621-7.744,8.473
			c2.904,1.068,6.635-2.154,11.28-0.721c5.031,1.551,10.662,11.809,14.833,17.605c5.25,7.295,12.004,14.209,11.312,21.139
			c-0.391,3.912-3.736,22.207,1.43,18.439c6.216-4.357,11.152-8.479,16.349-12.674c8.443-11.713,14.685-28.213,19.546-38.961
			C92.032,119.01,79.861,100.631,69.963,89.609z M69.168,150.396c-5.007-0.236-8.416-7.52-12.176-12.717
			c-2.909-4.029-9.391-9.703-9.281-15.037c0.101-4.943,6.986-9.496,10.982-10.438c7.796-1.83,10.667,6.521,15.068,12.713
			c3.573,5.025,9.551,10.145,8.705,15.617C81.801,144.838,73.213,150.586,69.168,150.396z"/>
		
			<linearGradient id="SVGID_4_" gradientUnits="userSpaceOnUse" x1="82.1655" y1="698.9824" x2="111.9213" y2="713.3909" gradientTransform="matrix(1 -0.0014 0.0014 1 -93.2423 -614.9687)">
			<stop  offset="0" style="stop-color:#FAC28D"/>
			<stop  offset="1" style="stop-color:#7C5320"/>
		</linearGradient>
		<polygon fill="url(#SVGID_4_)" points="98.226,130.467 100.151,132.117 96.059,140.627 94.118,139.883 		"/>
	</g>
</g>
<g id="outline_x5F_white">
	<g>
		<g>
			<path fill="#FFFFFF" d="M161.501,24.098l15.036,20.976l-4.391,2.789l0.121,12.34c0,0-6.929,0.009-9.746,0.014
				c0.004,3.995,0.018,12.272,0.018,12.272l-8.691,0.079l0.019,11.92l-9.166,0.079l0.018,11.92l-9.165,0.08l0.02,13.332l-9.168,0.08
				l0.017,11.281l-9.405,0.014l0.256,11.986l-9.35,0.014l0.2,11.986l-10.361-3.979c-4.321,10.016-9.602,22.203-16.253,31.434
				c-5.196,4.195-10.133,8.312-16.349,12.672c-0.47,0.342-0.926,0.489-1.361,0.489c-1.662,0-3.006-2.144-3.55-3.749
				c-1.926-2.633,0.34-15.291,0.657-18.467c0.692-6.93-6.062-13.844-11.312-21.139c-2.305-3.203-5.057-7.768-7.906-11.475
				c-1.384-1.396-2.765-2.436-4.102-2.848c-0.873-0.271-1.713-0.374-2.522-0.374c-2.864,0-5.329,1.315-7.424,1.315
				c-0.463,0-0.908-0.063-1.335-0.223c-1.02-2.053-3.013-2.414-2.819-3.393c-0.032-3.781,5.051-5.896,7.739-8.365
				c8.609-7.91,25.505-18.891,35.523-25.445c2.261-1.603,4.313-3.038,6.036-4.229c0.019,0.021,0.038,0.043,0.056,0.062
				L161.501,24.098 M69.367,150.4c4.121,0,12.444-5.633,13.1-9.863c0.846-5.475-5.132-10.59-8.705-15.617
				c-1.731-2.434-3.226-5.201-4.876-7.553c-1.482-1.307-3.179-2.131-5.271-2.131c-0.658,0-1.355,0.082-2.097,0.256
				c-3.994,0.939-10.214,4.984-10.315,9.928c-0.108,5.334,5.705,11.516,8.614,15.545c1.65,2.281,3.232,4.963,4.911,7.275
				c1.355,1.25,2.813,2.08,4.44,2.156C69.233,150.398,69.299,150.4,69.367,150.4 M164.268,7.361l-9.75,6.979L70.164,74.71
				l-4.209,2.911c-1.849,1.279-3.907,2.721-5.966,4.179l-0.699,0.457c-10.792,7.058-27.102,17.724-36.188,26.071
				c-0.22,0.193-0.96,0.717-1.451,1.062c-3.222,2.273-9.816,6.932-10.156,15.407c-0.208,2.888,0.456,7.071,4.721,10.796l1.461,2.941
				l4.481,1.646c1.73,0.637,3.573,0.959,5.478,0.959c2.371,0,4.387-0.496,5.913-0.9c1.008,1.426,2.033,2.974,3.035,4.486
				c1.129,1.703,2.195,3.312,3.265,4.801c1.127,1.566,2.274,3.062,3.383,4.507c1.991,2.594,5.291,6.895,5.703,8.665
				c-0.054,0.447-0.159,1.214-0.261,1.958c-1.366,9.924-2.071,17.145,0.679,22.584c2.675,6.503,8.223,10.634,14.442,10.634
				c2.961,0,5.832-0.938,8.311-2.706c5.644-3.962,10.269-7.713,14.742-11.34c0.729-0.593,1.46-1.187,2.195-1.778l1.255-1.013
				l0.943-1.31c5.089-7.062,9.302-15.317,12.888-23.147l16.285,6.253l-0.293-17.579l9.406-0.014l-0.256-11.986l9.162-0.014
				l-0.017-11.368l9.167-0.08l-0.018-11.912l-0.002-1.42l9.166-0.08l-0.018-11.913v-0.005l9.165-0.079l-0.017-11.914v-0.012
				l8.693-0.079l-0.021-11.91V72.2l9.847-0.013l-0.117-12.102l-0.058-5.67l9.476-6.018l-7.396-10.315l-15.036-20.976L164.268,7.361
				L164.268,7.361z"/>
		</g>
	</g>
</g>
<g id="outline_x5F_black">
	<g>
		<path d="M66.746,91.719c1.173-0.767,2.257-1.477,3.217-2.11c0.958,1.066,1.94,2.218,2.933,3.409
			c9.425,10.529,20.863,27.64,27.254,39.103c0.493-1.075,1.043-2.282,1.657-3.641C95.614,117.025,82.68,98.513,72.78,87.49
			C71.058,88.681,69.006,90.116,66.746,91.719z"/>
		<path d="M181.994,44.925l-2.284-3.56l-13.161-20.507l-3.406-5.312l-5.134,3.673L73.621,79.613l-4.253,2.942
			c-1.86,1.286-3.933,2.739-6.001,4.204l-0.793,0.519c-10.628,6.95-26.689,17.455-35.412,25.468
			c-0.466,0.428-1.235,0.971-2.049,1.546c-2.973,2.099-7.424,5.241-7.624,10.806c-0.229,2.422,0.849,4.578,3.211,6.42
			c0.101,0.08,0.229,0.181,0.316,0.252l0.974,1.961l2.241,0.822c1.064,0.394,2.21,0.592,3.406,0.592
			c1.755,0,3.314-0.418,4.689-0.787c1.019-0.271,1.981-0.528,2.735-0.528c0.263,0,0.493,0.03,0.721,0.098
			c0.085,0.04,0.532,0.271,1.386,1.097c1.486,1.965,2.977,4.215,4.42,6.396c1.095,1.654,2.13,3.218,3.133,4.61
			c1.073,1.49,2.191,2.947,3.272,4.354c3.57,4.651,7.261,9.464,6.939,12.683c-0.048,0.479-0.171,1.377-0.314,2.412
			c-1.373,9.974-1.712,15.68,0.191,19.248c1.369,3.439,4.425,7.151,8.985,7.151c1.708,0,3.381-0.554,4.841-1.603
			c5.484-3.849,10.034-7.537,14.434-11.104c0.732-0.595,1.466-1.188,2.205-1.786l0.627-0.506l0.471-0.652
			c5.898-8.188,10.653-18.285,14.601-27.279l4.996,1.918l8.299,3.187l-0.147-8.889l-0.101-5.896l3.258-0.004l6.121-0.011
			l-0.131-6.12l-0.125-5.865l3.285-0.004l5.998-0.011l-0.008-5.999l-0.008-5.326l3.212-0.025l5.955-0.053l-0.009-5.957l-0.01-7.375
			l3.211-0.027l5.955-0.053l-0.01-5.958l-0.009-5.963l3.209-0.027l5.956-0.052l-0.008-5.957l-0.01-5.966l2.738-0.025l5.953-0.054
			l-0.009-5.955l-0.009-6.271l3.744-0.005l6.052-0.008l-0.06-6.051l-0.102-10.26l1.244-1.612L181.994,44.925z M172.146,47.863
			l0.121,12.34c0,0-6.929,0.009-9.746,0.014c0.004,3.995,0.018,12.272,0.018,12.272l-8.691,0.079l0.019,11.92l-9.166,0.079
			l0.018,11.92l-9.165,0.08l0.02,13.332l-9.168,0.08l0.017,11.281l-9.405,0.014l0.256,11.986l-9.35,0.014l0.2,11.986l-10.361-3.979
			c-4.321,10.016-9.602,22.203-16.253,31.434c-5.196,4.195-10.133,8.312-16.349,12.672c-0.47,0.342-0.926,0.489-1.361,0.489
			c-1.662,0-3.006-2.144-3.55-3.749c-1.926-2.633,0.34-15.291,0.657-18.467c0.692-6.93-6.062-13.844-11.312-21.139
			c-2.305-3.203-5.057-7.768-7.906-11.475c-1.384-1.396-2.765-2.436-4.102-2.848c-0.873-0.271-1.713-0.374-2.522-0.374
			c-2.864,0-5.329,1.315-7.424,1.315c-0.463,0-0.908-0.063-1.335-0.223c-1.02-2.053-3.013-2.414-2.819-3.393
			c-0.032-3.781,5.051-5.896,7.739-8.365c8.609-7.91,25.505-18.891,35.523-25.445c2.261-1.603,4.313-3.038,6.036-4.229
			c0.019,0.021,0.038,0.043,0.056,0.062l88.664-63.453l13.161,20.507L172.146,47.863z"/>
		<path d="M68.886,117.367c-1.482-1.307-3.179-2.131-5.271-2.131c-0.658,0-1.355,0.082-2.097,0.256
			c-3.994,0.939-10.214,4.984-10.315,9.928c-0.108,5.334,5.705,11.516,8.614,15.545c1.65,2.281,3.232,4.963,4.911,7.275
			c1.355,1.25,2.813,2.08,4.44,2.156c0.065,0.002,0.131,0.004,0.199,0.004c4.121,0,12.444-5.633,13.1-9.863
			c0.846-5.475-5.132-10.59-8.705-15.617C72.031,122.486,70.536,119.719,68.886,117.367z M69.497,144.374
			c-0.069-0.04-0.171-0.104-0.306-0.209c-0.631-0.899-1.267-1.875-1.933-2.896c-0.826-1.269-1.68-2.576-2.581-3.82
			c-0.611-0.848-1.301-1.731-2.031-2.668c-1.919-2.463-5.491-7.043-5.446-9.238c0.041-1.007,3.07-3.593,5.69-4.209
			c0.271-0.062,0.516-0.098,0.724-0.098c0.175,0,0.417,0,0.83,0.268c0.54,0.812,1.087,1.698,1.658,2.624
			c0.865,1.401,1.76,2.853,2.77,4.271c1.005,1.414,2.125,2.771,3.207,4.082c1.792,2.17,4.463,5.408,4.471,6.959
			C75.692,141.046,71.458,144.002,69.497,144.374z"/>
		<circle cx="158.074" cy="36.602" r="3.76"/>
	</g>
</g>
</svg>
