<?xml version="1.0" encoding="utf-8"?>
<!-- Generator: Adobe Illustrator 15.0.0, SVG Export Plug-In . SVG Version: 6.00 Build 0)  -->
<!DOCTYPE svg PUBLIC "-//W3C//DTD SVG 1.1//EN" "http://www.w3.org/Graphics/SVG/1.1/DTD/svg11.dtd">
<svg version="1.1" xmlns="http://www.w3.org/2000/svg" xmlns:xlink="http://www.w3.org/1999/xlink" x="0px" y="0px" width="200px"
	 height="200px" viewBox="0 0 200 200" enable-background="new 0 0 200 200" xml:space="preserve">
<g id="icon">
	<g id="Layer_2">
	</g>
	<g>
		
			<linearGradient id="SVGID_1_" gradientUnits="userSpaceOnUse" x1="-65.1533" y1="-105.0464" x2="-57.82" y2="-101.0462" gradientTransform="matrix(0.9945 -0.1044 -0.1044 -0.9945 125.8262 -42.8121)">
			<stop  offset="0.1166" style="stop-color:#B7BCC5"/>
			<stop  offset="0.3374" style="stop-color:#FFFFFF"/>
			<stop  offset="0.6242" style="stop-color:#EAECEE"/>
			<stop  offset="0.9202" style="stop-color:#9299A8"/>
		</linearGradient>
		<path fill="url(#SVGID_1_)" d="M53.972,25.285c-0.624,0.44-1.119,0.793-1.617,1.146c-2.359,1.673-4.718,3.348-7.077,5.021
			c-0.496,0.353-0.995,0.705-1.616,1.146l10.49,23.725l12.608,6.729c0,0,0,0,0.091,0.127l30.494,43.4l8.314-5.9L75.08,57.151
			l-2.058-14.216L53.972,25.285z"/>
		<g>
			
				<linearGradient id="SVGID_2_" gradientUnits="userSpaceOnUse" x1="1611.71" y1="3771.8076" x2="1611.71" y2="3741.0996" gradientTransform="matrix(-0.9859 -0.1676 -0.1676 0.9859 2277.6538 -3390.478)">
				<stop  offset="0.0056" style="stop-color:#FFFFFF"/>
				<stop  offset="1" style="stop-color:#A4A4A4"/>
			</linearGradient>
			<path fill="url(#SVGID_2_)" d="M45.267,32.731c-0.126,0.088-0.253,0.177-0.376,0.268l10.337,22.036L65.8,60.347
				c1.188-3.129,3.573-4.823,7.044-4.996L71.45,43.528L53.944,26.577l-0.255,0.177C50.675,28.896,47.906,30.857,45.267,32.731z"/>
		</g>
		<g>
			
				<linearGradient id="SVGID_3_" gradientUnits="userSpaceOnUse" x1="1604.7686" y1="3772.1299" x2="1604.7686" y2="3754.9375" gradientTransform="matrix(-0.9859 -0.1676 -0.1676 0.9859 2277.6538 -3390.478)">
				<stop  offset="0.0056" style="stop-color:#FFFFFF"/>
				<stop  offset="1" style="stop-color:#A4A4A4"/>
			</linearGradient>
			<path fill="url(#SVGID_3_)" d="M55.228,55.035L65.8,60.347c1.188-3.129,3.573-4.823,7.044-4.996L71.45,43.528L55.228,55.035z"/>
		</g>
		
			<linearGradient id="SVGID_4_" gradientUnits="userSpaceOnUse" x1="-8.7402" y1="-167.1538" x2="-35.9101" y2="-181.9888" gradientTransform="matrix(0.9945 -0.1044 -0.1044 -0.9945 125.8262 -42.8121)">
			<stop  offset="0" style="stop-color:#F7941E"/>
			<stop  offset="0.0473" style="stop-color:#F8A219"/>
			<stop  offset="0.1658" style="stop-color:#FBBE0E"/>
			<stop  offset="0.284" style="stop-color:#FDD306"/>
			<stop  offset="0.4011" style="stop-color:#FFDF02"/>
			<stop  offset="0.5153" style="stop-color:#FFE300"/>
			<stop  offset="0.6141" style="stop-color:#FEDE02"/>
			<stop  offset="0.7316" style="stop-color:#FDD007"/>
			<stop  offset="0.8586" style="stop-color:#FBB810"/>
			<stop  offset="0.9916" style="stop-color:#F7961D"/>
			<stop  offset="1" style="stop-color:#F7941E"/>
		</linearGradient>
		<path fill="url(#SVGID_4_)" d="M117.529,98.232c-0.389-0.286-0.653-0.66-1.041-0.94l-7.784-4.931
			c-0.478-0.406-1.203-0.642-1.877-0.532c-0.636-0.111-1.308-0.008-1.718,0.468l-15.395,10.922c-0.459,0.141-0.781,0.74-0.887,1.379
			c-0.324,0.6-0.344,1.359-0.24,2.032l2.203,8.894c0.139,0.457,0.281,0.918,0.543,1.289c0.178,0.25,0.266,0.373,0.439,0.621
			l37.211,54.396c0.97,1.368,2.344,2.257,4.041,2.544c1.49,0.256,4.125-0.498,7.705-2.292c1.914-0.986,3.742-2.096,5.603-3.417
			c1.862-1.321,3.638-2.767,5.2-4.244c2.877-2.787,4.336-4.94,4.709-6.515c0.292-1.695-0.094-3.29-1.064-4.659l-37.207-54.394
			C117.796,98.603,117.706,98.479,117.529,98.232z"/>
		<g>
			
				<linearGradient id="SVGID_5_" gradientUnits="userSpaceOnUse" x1="1496.916" y1="3864.9355" x2="1514.2441" y2="3864.9355" gradientTransform="matrix(-0.9859 -0.1676 -0.1676 0.9859 2277.6538 -3390.478)">
				<stop  offset="0" style="stop-color:#F7941E"/>
				<stop  offset="1" style="stop-color:#F7941E"/>
			</linearGradient>
			<path fill="url(#SVGID_5_)" d="M135.545,174.715c1.255-0.331,3.225-0.979,5.387-2.138c1.916-0.984,3.829-1.968,5.602-3.414
				c1.955-1.194,3.642-2.767,5.199-4.248c1.811-1.66,3.033-3.09,3.801-4.379c-0.766-0.022-1.896,0.22-3.441,0.938
				c-2.251,1.035-4.912,2.549-7.765,4.57c-2.858,2.027-5.04,3.95-6.763,5.732C136.255,173.085,135.646,174.073,135.545,174.715z"/>
		</g>
		
			<linearGradient id="SVGID_6_" gradientUnits="userSpaceOnUse" x1="-38.2559" y1="-180.9297" x2="-2.1543" y2="-180.9297" gradientTransform="matrix(0.9945 -0.1044 -0.1044 -0.9945 125.8262 -42.8121)">
			<stop  offset="0" style="stop-color:#F7941E"/>
			<stop  offset="1" style="stop-color:#F7941E"/>
		</linearGradient>
		<path fill="url(#SVGID_6_)" d="M104.324,116.341c0.14-0.907,0.417-1.686,0.847-2.371c-0.103,0.326-0.198,0.653-0.251,1.02
			c-0.277,1.812,0.073,3.53,1.083,4.956l27.672,40.949c1.013,1.429,2.519,2.328,4.316,2.657c1.801,0.339,3.288-0.008,4.792-1.071
			l0.46-0.328c0.745-0.528,1.327-1.114,1.745-1.793c-0.396,1.291-1.141,2.298-2.338,3.147l-0.461,0.326
			c-1.508,1.065-2.996,1.409-4.793,1.074c-1.799-0.337-3.305-1.234-4.317-2.664l-27.67-40.947
			C104.395,119.867,104.045,118.15,104.324,116.341z"/>
		
			<linearGradient id="SVGID_7_" gradientUnits="userSpaceOnUse" x1="-23.8833" y1="-170.4951" x2="6.7119" y2="-170.4951" gradientTransform="matrix(0.9945 -0.1044 -0.1044 -0.9945 125.8262 -42.8121)">
			<stop  offset="0" style="stop-color:#F7941E"/>
			<stop  offset="1" style="stop-color:#F7941E"/>
		</linearGradient>
		<path fill="url(#SVGID_7_)" d="M117.277,104.458c-0.1-1.556,0.339-2.588,1.341-3.298l0.11-0.077l0.779,1.101
			c-0.402,0.654-0.63,1.43-0.643,2.391c-0.014,1.641,0.533,3.24,1.554,4.682l28.083,41.527c1.023,1.441,2.355,2.486,3.906,3.014
			c0.287,0.098,0.557,0.148,0.826,0.195c-0.713,0.16-1.494,0.081-2.416-0.312c-1.433-0.609-2.705-1.695-3.729-3.137l-28.083-41.527
			C117.986,107.573,117.384,106.016,117.277,104.458z"/>
		<defs>
			<filter id="Adobe_OpacityMaskFilter" filterUnits="userSpaceOnUse" x="93.128" y="100.973" width="27.455" height="22.938">
				<feColorMatrix  type="matrix" values="1 0 0 0 0  0 1 0 0 0  0 0 1 0 0  0 0 0 1 0"/>
			</filter>
		</defs>
		<mask maskUnits="userSpaceOnUse" x="93.128" y="100.973" width="27.455" height="22.938" id="SVGID_8_">
			<g filter="url(#Adobe_OpacityMaskFilter)">
				
					<linearGradient id="SVGID_9_" gradientUnits="userSpaceOnUse" x1="1487.6123" y1="4002.7412" x2="1522.2393" y2="4002.7412" gradientTransform="matrix(-0.9859 -0.1676 -0.1676 0.9859 2277.6538 -3390.478)">
					<stop  offset="0.0506" style="stop-color:#FFFFFF"/>
					<stop  offset="0.1292" style="stop-color:#000000"/>
					<stop  offset="0.8989" style="stop-color:#000000"/>
					<stop  offset="1" style="stop-color:#FFFFFF"/>
				</linearGradient>
				<polygon fill="url(#SVGID_9_)" points="106.943,295.256 141.081,301.062 139.232,311.939 105.096,306.136 				"/>
			</g>
		</mask>
		
			<linearGradient id="SVGID_10_" gradientUnits="userSpaceOnUse" x1="-49.4727" y1="-152.8037" x2="-20.4141" y2="-152.8037" gradientTransform="matrix(0.9945 -0.1044 -0.1044 -0.9945 125.8262 -42.8121)">
			<stop  offset="0" style="stop-color:#F7941E"/>
			<stop  offset="1" style="stop-color:#F7941E"/>
		</linearGradient>
		<path mask="url(#SVGID_8_)" fill="url(#SVGID_10_)" d="M107.167,110.994l-0.465,0.329c-1.498,1.062-2.315,2.354-2.599,4.161
			c-0.28,1.808,0.065,3.521,1.194,4.863l0.413,0.584c-0.635-1.179-0.82-2.543-0.598-3.973c0.283-1.818,1.104-3.12,2.611-4.191
			l0.465-0.33c1.516-1.069,3.016-1.418,4.82-1.08c1.667,0.308,3.059,1.117,4.068,2.359l-0.814-1.146
			c-1.011-1.428-2.517-2.323-4.312-2.653C110.154,109.584,108.669,109.93,107.167,110.994z M119.096,101.134
			c-0.894,0.632-1.332,1.667-1.345,3.302c0.099,1.559,0.698,3.123,1.724,4.564l1.108,1.559c-0.921-1.381-1.476-2.852-1.567-4.326
			c0.014-1.65,0.457-2.693,1.355-3.33l0.21-0.149l-1.263-1.78L119.096,101.134z M93.237,119.479l-0.109,0.076l1.465,2.069
			l0.07-0.049c1.025-0.728,2.174-0.798,3.646-0.177c1.217,0.519,2.312,1.39,3.255,2.512l-1.043-1.467
			c-1.021-1.442-2.295-2.529-3.729-3.139C95.355,118.698,94.235,118.766,93.237,119.479z"/>
		
			<linearGradient id="SVGID_11_" gradientUnits="userSpaceOnUse" x1="-48.9883" y1="-184.7188" x2="-17.0952" y2="-184.7188" gradientTransform="matrix(0.9945 -0.1044 -0.1044 -0.9945 125.8262 -42.8121)">
			<stop  offset="0" style="stop-color:#F7941E"/>
			<stop  offset="1" style="stop-color:#F7941E"/>
		</linearGradient>
		<path fill="url(#SVGID_11_)" d="M97.216,118.689c-1.434-0.607-2.554-0.537-3.556,0.175l-0.109,0.079l0.78,1.103
			c0.754-0.167,1.557-0.125,2.467,0.185c1.553,0.527,2.883,1.57,3.907,3.015l28.078,41.524c1.025,1.442,1.572,3.047,1.556,4.682
			c-0.004,0.307-0.045,0.576-0.086,0.846c0.384-0.62,0.563-1.383,0.5-2.383c-0.101-1.557-0.703-3.115-1.728-4.561l-28.08-41.523
			C99.922,120.385,98.652,119.302,97.216,118.689z"/>
	</g>
</g>
<g id="outline_x5F_white">
	<g>
		<g>
			<path fill="#FFFFFF" d="M53.972,25.285l19.051,17.65l2.058,14.216l26.467,37.674l3.563-2.528
				c0.312-0.362,0.775-0.509,1.261-0.509c0.151,0,0.306,0.015,0.456,0.041c0.111-0.019,0.225-0.026,0.338-0.026
				c0.568,0,1.143,0.22,1.539,0.559l7.785,4.931c0.387,0.28,0.652,0.654,1.041,0.94c0.176,0.247,0.266,0.37,0.439,0.62
				l37.209,54.395c0.971,1.369,1.355,2.964,1.063,4.659c-0.373,1.573-1.832,3.728-4.709,6.515c-1.562,1.479-3.339,2.924-5.2,4.244
				c-1.859,1.322-3.688,2.432-5.602,3.417c-3.129,1.567-5.534,2.341-7.086,2.341c-0.225,0-0.432-0.017-0.619-0.049
				c-1.698-0.287-3.072-1.176-4.043-2.544l-34.358-50.229l-0.033,0.022l-1.465-2.069l0.066-0.048l-1.42-2.073
				c-0.174-0.248-0.262-0.371-0.439-0.621c-0.262-0.371-0.404-0.832-0.543-1.289l-2.203-8.894c-0.104-0.673-0.084-1.434,0.24-2.032
				c0.105-0.639,0.428-1.238,0.887-1.379l3.516-2.492L66.851,63.18c-0.091-0.127-0.091-0.127-0.091-0.127l-12.608-6.729
				l-10.49-23.725c0.621-0.44,1.12-0.792,1.616-1.146c2.359-1.673,4.718-3.348,7.077-5.021
				C52.853,26.079,53.348,25.726,53.972,25.285 M53.969,13.285c-2.41,0-4.831,0.724-6.916,2.196l-0.995,0.704l-0.63,0.446
				l-3.556,2.523l-3.538,2.51l-0.86,0.61l-0.758,0.537c-4.652,3.302-6.336,9.421-4.03,14.639l10.49,23.725
				c1.084,2.452,2.958,4.471,5.324,5.733l10.087,5.385l19.224,27.359c-0.15,0.38-0.284,0.769-0.402,1.167
				c-0.855,2.365-1.092,4.968-0.681,7.637c0.055,0.355,0.126,0.71,0.213,1.061l2.203,8.894c0.05,0.2,0.104,0.401,0.165,0.6
				c0.271,0.896,0.838,2.765,2.219,4.722c0.013,0.019,0.026,0.037,0.04,0.056c0.144,0.202,0.219,0.308,0.344,0.483l0.593,0.867
				c0.244,0.465,0.521,0.915,0.827,1.35l1.465,2.07c0.154,0.219,0.314,0.43,0.48,0.635l33.804,49.416
				c0.037,0.055,0.075,0.108,0.114,0.164c2.822,3.981,7.025,6.623,11.832,7.437c0.824,0.142,1.717,0.217,2.619,0.217
				c3.582,0,7.541-1.147,12.461-3.612c0.041-0.021,0.082-0.041,0.123-0.062c2.457-1.267,4.765-2.674,7.056-4.302
				c2.345-1.664,4.532-3.452,6.496-5.309c0.034-0.033,0.067-0.065,0.102-0.099c4.521-4.38,7.073-8.31,8.035-12.365
				c0.058-0.241,0.106-0.485,0.149-0.731c0.82-4.766-0.256-9.565-3.028-13.533L127.874,92.08c-0.019-0.025-0.035-0.051-0.052-0.076
				c-0.16-0.229-0.266-0.376-0.396-0.557l-0.118-0.168c-0.564-0.794-1.225-1.516-1.961-2.148c-0.369-0.366-0.988-0.951-1.816-1.553
				c-0.202-0.146-0.41-0.287-0.621-0.421l-7.378-4.673c-2.427-1.735-5.354-2.679-8.367-2.679c-0.048,0-0.095,0-0.144,0
				c-0.217-0.01-0.435-0.015-0.65-0.015c-0.238,0-0.475,0.006-0.71,0.018L86.546,52.597l-1.647-11.38
				c-0.394-2.718-1.706-5.218-3.721-7.084l-19.051-17.65C59.842,14.365,56.912,13.285,53.969,13.285L53.969,13.285z"/>
		</g>
	</g>
</g>
<g id="outline_x5F_black">
	<g>
		<path d="M53.972,25.285l19.051,17.65l2.058,14.216l26.467,37.674l3.563-2.528c0.312-0.362,0.775-0.509,1.261-0.509
			c0.151,0,0.306,0.015,0.456,0.041c0.111-0.019,0.225-0.026,0.338-0.026c0.568,0,1.143,0.22,1.539,0.559l7.785,4.931
			c0.387,0.28,0.652,0.654,1.041,0.94c0.176,0.247,0.266,0.37,0.439,0.62l37.209,54.395c0.971,1.369,1.355,2.964,1.063,4.659
			c-0.373,1.573-1.832,3.728-4.709,6.515c-1.562,1.479-3.339,2.924-5.2,4.244c-1.859,1.322-3.688,2.432-5.602,3.417
			c-3.129,1.567-5.534,2.341-7.086,2.341c-0.225,0-0.432-0.017-0.619-0.049c-1.698-0.287-3.072-1.176-4.043-2.544l-34.358-50.229
			l-0.033,0.022l-1.465-2.069l0.066-0.048l-1.42-2.073c-0.174-0.248-0.262-0.371-0.439-0.621c-0.262-0.371-0.404-0.832-0.543-1.289
			l-2.203-8.894c-0.104-0.673-0.084-1.434,0.24-2.032c0.105-0.639,0.428-1.238,0.887-1.379l3.516-2.492L66.851,63.18
			c-0.091-0.127-0.091-0.127-0.091-0.127l-12.608-6.729l-10.49-23.725c0.621-0.44,1.12-0.792,1.616-1.146
			c2.359-1.673,4.718-3.348,7.077-5.021C52.853,26.079,53.348,25.726,53.972,25.285 M54.483,17.58l-3.972,2.803l-0.974,0.69
			l-0.646,0.458l-3.444,2.444l-3.642,2.583l-0.876,0.622l-0.74,0.524l-3.998,2.836l1.982,4.483l10.49,23.725l0.837,1.893
			l1.826,0.974l11.349,6.059l22.274,31.701c-0.845,0.902-1.48,2.038-1.837,3.324c-0.562,1.464-0.719,3.117-0.454,4.843l0.042,0.269
			l0.064,0.264l2.203,8.892l0.038,0.151l0.045,0.148c0.047,0.154,0.101,0.334,0.166,0.53l-0.455,0.321l3.469,4.902l1.465,2.069
			l1.435,2.027l32.903,48.101l0.027,0.041l0.028,0.041c1.896,2.674,4.714,4.445,7.938,4.99c0.507,0.087,1.057,0.133,1.619,0.133
			c2.578,0,5.774-0.974,9.772-2.977l0.031-0.016l0.03-0.017c2.201-1.136,4.271-2.396,6.328-3.858
			c2.121-1.506,4.09-3.113,5.849-4.777l0.024-0.023l0.025-0.023c3.661-3.547,5.688-6.547,6.372-9.439l0.043-0.184l0.032-0.184
			c0.552-3.201-0.176-6.432-2.049-9.1l-37.187-54.36c-0.168-0.242-0.262-0.373-0.377-0.534l-0.126-0.177l-0.559-0.783l-0.594-0.438
			c-0.252-0.253-0.671-0.675-1.258-1.1l-0.15-0.11l-0.16-0.101l-7.549-4.781c-1.424-1.047-3.209-1.639-4.984-1.639
			c-0.082,0-0.164,0.001-0.246,0.003c-0.184-0.012-0.366-0.018-0.548-0.018c-1.177,0-2.312,0.254-3.329,0.728L80.813,54.875
			L78.96,42.077l-0.305-2.1l-1.556-1.442L58.05,20.884L54.483,17.58L54.483,17.58z"/>
	</g>
</g>
</svg>
