<?xml version="1.0" encoding="utf-8"?>
<!-- Generator: Adobe Illustrator 15.0.0, SVG Export Plug-In . SVG Version: 6.00 Build 0)  -->
<!DOCTYPE svg PUBLIC "-//W3C//DTD SVG 1.1//EN" "http://www.w3.org/Graphics/SVG/1.1/DTD/svg11.dtd">
<svg version="1.1" xmlns="http://www.w3.org/2000/svg" xmlns:xlink="http://www.w3.org/1999/xlink" x="0px" y="0px" width="200px"
	 height="200px" viewBox="0 0 200 200" enable-background="new 0 0 200 200" xml:space="preserve">
<g id="icon">
	<g id="Layer_2">
	</g>
	<g>
		<path fill="#534F50" d="M56.413,46.663l51.795-18.948l3.114,4.159l-0.588,2.096c0,0-2.569,3.877-2.569,7.668
			c0,3.789-9.158,9.029-9.158,9.029l-4.105-9.188c0,0-11.412,3.312-13.96,6.758c-1.493,2.018-1.157,5.354,2.927,6.009
			c4.084,0.655,5.032-3.579,5.032-3.579s2.21,0.517,1.896,2.85c-0.316,2.332-0.935,9.121-9.784,11.254
			C72.164,66.904,56.413,46.663,56.413,46.663z"/>
		
			<linearGradient id="SVGID_1_" gradientUnits="userSpaceOnUse" x1="147.5186" y1="-17.4062" x2="166.5961" y2="10.3429" gradientTransform="matrix(1 0 0 -1 -50 61)">
			<stop  offset="0" style="stop-color:#636D7C"/>
			<stop  offset="0.2782" style="stop-color:#404C6D;stop-opacity:0.7218"/>
			<stop  offset="0.7156" style="stop-color:#263F68;stop-opacity:0.2844"/>
			<stop  offset="1" style="stop-color:#233D68;stop-opacity:0"/>
		</linearGradient>
		<path fill="url(#SVGID_1_)" d="M164.695,57.35c-4.104-2.84-17.368-6.456-27.477-6.456c-5.886,0-28.201,0-45.811,0
			c-0.057-1.882-1.92-2.323-1.92-2.323s-0.29,1.28-1.228,2.323c-2.319,0-4.526,0-6.568,0c-1.351-1.334-1.194-3.357-0.163-4.753
			c2.549-3.444,13.96-6.757,13.96-6.757l4.106,9.187c0,0,9.158-5.239,9.158-9.03c0-3.789,2.567-7.666,2.567-7.666l-2.525-6.256
			L57.003,44.567c0,0,8.026,10.311,15.839,15.438l4.373,9.344c0,0,40.426,0,58.428,0s35.056-4.617,35.056-4.617
			S168.802,60.188,164.695,57.35z"/>
		
			<linearGradient id="SVGID_2_" gradientUnits="userSpaceOnUse" x1="135.3301" y1="20.9746" x2="166.4918" y2="4.7164" gradientTransform="matrix(1 0 0 -1 -50 61)">
			<stop  offset="0" style="stop-color:#FFFFFF"/>
			<stop  offset="0.41" style="stop-color:#C1CDDC"/>
			<stop  offset="0.8078" style="stop-color:#8A9DB3"/>
			<stop  offset="1" style="stop-color:#758392"/>
		</linearGradient>
		<path fill="url(#SVGID_2_)" d="M57.003,44.567l51.794-18.949l2.526,6.256c0,0-2.568,3.877-2.568,7.666
			c0,3.791-9.158,9.03-9.158,9.03l-4.106-9.187c0,0-11.411,3.312-13.96,6.757c-1.492,2.019-1.156,5.354,2.928,6.009
			c4.084,0.656,5.031-3.579,5.031-3.579s2.211,0.517,1.895,2.85c-0.314,2.333-0.934,9.121-9.783,11.254
			C72.753,64.807,57.003,44.567,57.003,44.567z"/>
		
			<linearGradient id="SVGID_3_" gradientUnits="userSpaceOnUse" x1="158.7148" y1="15.8779" x2="158.3936" y2="13.9486" gradientTransform="matrix(1 0 0 -1 -50.0186 61.0049)">
			<stop  offset="0" style="stop-color:#FF0000"/>
			<stop  offset="0.1346" style="stop-color:#F60000"/>
			<stop  offset="0.3529" style="stop-color:#DE0000"/>
			<stop  offset="0.6278" style="stop-color:#B70000"/>
			<stop  offset="0.9456" style="stop-color:#810000"/>
			<stop  offset="1" style="stop-color:#770000"/>
		</linearGradient>
		<path fill="url(#SVGID_3_)" d="M39.248,69.23c-5.242,4.737-8.283,9.05-6.721,14.88c0.769,2.87,3.533,7.818,5.977,10.023
			l85.012,76.717c7.408,6.687,19.754,6.375,27.574-0.693l3.98-3.598c7.818-7.067,8.152-18.22,0.744-24.904L70.8,64.939
			c-7.408-6.687-19.753-6.375-27.574,0.693L39.248,69.23z"/>
		
			<linearGradient id="SVGID_4_" gradientUnits="userSpaceOnUse" x1="182.7275" y1="24.1162" x2="136.0217" y2="-79.3547" gradientTransform="matrix(1 0 0 -1 -50 61)">
			<stop  offset="0" style="stop-color:#FF0000"/>
			<stop  offset="0.1674" style="stop-color:#F60000"/>
			<stop  offset="0.4388" style="stop-color:#DE0000"/>
			<stop  offset="0.7785" style="stop-color:#B70000"/>
			<stop  offset="1" style="stop-color:#9A0000"/>
		</linearGradient>
		<path fill="url(#SVGID_4_)" d="M37.973,65.774c-8,7.23-8.341,18.637-0.761,25.476l86.968,78.48
			c7.579,6.838,20.209,6.521,28.209-0.709l4.069-3.682c8-7.23,8.342-18.639,0.763-25.477l-86.968-78.48
			c-7.58-6.84-20.209-6.521-28.208,0.709L37.973,65.774z"/>
		
			<linearGradient id="SVGID_5_" gradientUnits="userSpaceOnUse" x1="177.8721" y1="-49.8188" x2="187.9781" y2="-49.503" gradientTransform="matrix(1 0 0 -1 -50 61)">
			<stop  offset="0.303" style="stop-color:#B3BDCD"/>
			<stop  offset="0.4788" style="stop-color:#FFFFFF"/>
			<stop  offset="1" style="stop-color:#626E7E"/>
		</linearGradient>
		<path fill="url(#SVGID_5_)" d="M37.973,61.993c-8,7.23-8.341,18.637-0.761,25.477l86.968,78.48
			c7.579,6.84,20.209,6.521,28.209-0.709l4.069-3.681c8-7.231,8.342-18.64,0.763-25.478l-86.968-78.48
			c-7.58-6.839-20.209-6.521-28.208,0.71L37.973,61.993z"/>
		<g>
			
				<linearGradient id="SVGID_6_" gradientUnits="userSpaceOnUse" x1="-1136.5742" y1="-651.2109" x2="-1147.3945" y2="-699.2661" gradientTransform="matrix(0.8895 -0.457 -0.457 -0.8895 791.5405 -938.115)">
				<stop  offset="0" style="stop-color:#D9E6F0"/>
				<stop  offset="0.2187" style="stop-color:#C0CAE1"/>
				<stop  offset="0.7444" style="stop-color:#8A9DAE"/>
				<stop  offset="1" style="stop-color:#758397"/>
			</linearGradient>
			<path fill="url(#SVGID_6_)" d="M119.596,158.109c0,0-10.697-2.471-15.574-1.739c-6.122,0.913-13.506,4.332-18.379,6.911
				c-9.482-0.227-21.244-0.557-31.476-0.799c-19.042-1.539-20.389-10.928-20.389-10.928s31.232,0.166,54.878,0.738
				c3.928,0.096,10.617-0.639,15.357-0.568c2.795,0.101,5.172,0.107,6.901,0.088c2.884,0.242,2.147-0.053,2.147-0.053
				L119.596,158.109z"/>
			
				<linearGradient id="SVGID_7_" gradientUnits="userSpaceOnUse" x1="-1144.2017" y1="-634.9819" x2="-1138.7084" y2="-633.0592" gradientTransform="matrix(0.8895 -0.457 -0.457 -0.8895 791.5405 -938.115)">
				<stop  offset="0" style="stop-color:#FFFFFF"/>
				<stop  offset="0.41" style="stop-color:#C1CAD9"/>
				<stop  offset="1" style="stop-color:#8A95AC"/>
			</linearGradient>
			<path fill="url(#SVGID_7_)" d="M85.427,156.829c0,0-22.702,0.069-32.931-0.172c-19.044-1.541-18.719-5.103-18.719-5.103
				s31.232,0.166,54.878,0.738L85.427,156.829z"/>
			
				<linearGradient id="SVGID_8_" gradientUnits="userSpaceOnUse" x1="-1122.5796" y1="-611.1631" x2="-1137.713" y2="-652.0375" gradientTransform="matrix(0.8895 -0.457 -0.457 -0.8895 791.5405 -938.115)">
				<stop  offset="0" style="stop-color:#D9E3ED"/>
				<stop  offset="0.1127" style="stop-color:#C1CDD7"/>
				<stop  offset="0.8523" style="stop-color:#344E5D"/>
				<stop  offset="1" style="stop-color:#1F2D3A"/>
			</linearGradient>
			<path fill="url(#SVGID_8_)" d="M103.87,155.493c-6.124,0.914-13.76,4.42-18.635,6.996c-9.482-0.224-21.244-0.554-31.475-0.796
				c-15.792-1.276-17.192-7.698-19.64-10.131c-0.223-0.006-0.344-0.008-0.344-0.008s1.347,9.389,20.389,10.928
				c10.231,0.242,21.993,0.572,31.476,0.799c4.873-2.579,12.258-5.998,18.38-6.911c4.875-0.729,15.572,1.739,15.572,1.739
				l-0.703-0.756C117.398,157.363,108.284,154.833,103.87,155.493z"/>
			
				<linearGradient id="SVGID_9_" gradientUnits="userSpaceOnUse" x1="-1138.6216" y1="-651.4663" x2="-1134.5593" y2="-644.6246" gradientTransform="matrix(0.8895 -0.457 -0.457 -0.8895 791.5405 -938.115)">
				<stop  offset="0" style="stop-color:#FFFFFF"/>
				<stop  offset="0.311" style="stop-color:#D7E3F5"/>
				<stop  offset="0.7745" style="stop-color:#A1B1CA"/>
				<stop  offset="1" style="stop-color:#8C9DB3"/>
			</linearGradient>
			<path fill="url(#SVGID_9_)" d="M103.741,154.764c-6.123,0.914-13.97,4.489-18.846,7.067c-9.48-0.224-21.242-0.554-31.473-0.795
				c-15.792-1.278-15.772-6.539-18.217-8.972c-0.224-0.006-0.627-0.381-0.627-0.381s0.207,8.602,19.25,10.142
				c10.23,0.241,21.993,0.571,31.476,0.797c4.873-2.578,12.469-6.069,18.592-6.981c4.875-0.729,15.312,1.842,15.312,1.842
				l-0.707-0.756C117.009,156.732,108.157,154.105,103.741,154.764z"/>
			
				<linearGradient id="SVGID_10_" gradientUnits="userSpaceOnUse" x1="-1128.1543" y1="-621.8447" x2="-1134.0201" y2="-640.664" gradientTransform="matrix(0.8895 -0.457 -0.457 -0.8895 791.5405 -938.115)">
				<stop  offset="0" style="stop-color:#FFFFFF"/>
				<stop  offset="0.1435" style="stop-color:#E0E0E0"/>
				<stop  offset="0.5623" style="stop-color:#898989"/>
				<stop  offset="0.8574" style="stop-color:#525252"/>
				<stop  offset="1" style="stop-color:#3D3D3D"/>
			</linearGradient>
			<path fill="url(#SVGID_10_)" d="M88.876,152.654c3.928,0.097,10.174-0.618,14.913-0.549c2.794,0.101,7.182,0.123,8.911,0.104
				l5.362,5.051l0.953,0.175l-5.852-5.608c-1.73,0.019-6.357-0.001-9.152-0.101c-4.74-0.07-11.43,0.662-15.357,0.567
				c-23.646-0.571-54.878-0.737-54.878-0.737s0.459,0.098,0.738,0.389C38.041,152.029,66.368,152.113,88.876,152.654z"/>
		</g>
		<g>
			
				<linearGradient id="SVGID_11_" gradientUnits="userSpaceOnUse" x1="-1715.8125" y1="-720.5107" x2="-1697.1036" y2="-716.0651" gradientTransform="matrix(0.8004 -0.5995 -0.5995 -0.8004 1021.2523 -1454.0505)">
				<stop  offset="0" style="stop-color:#D9E6F0"/>
				<stop  offset="0.2187" style="stop-color:#C0CAE1"/>
				<stop  offset="0.7444" style="stop-color:#8A9DAE"/>
				<stop  offset="1" style="stop-color:#758397"/>
			</linearGradient>
			<path fill="url(#SVGID_11_)" d="M110.98,172.948c0,0-9.332-4.052-10.822-7.331c-2.071-4.561-2.517-7.719-4.81-11.686
				c-9.332-4.504-19.498-9.32-29.563-14.18c-21.398-9.088-27.597-3.008-27.597-3.008s26.087,13.497,46.707,23.41
				c4.752,2.283,7.211,4.371,10.846,8.789c1.455,1.766,2.828,2.945,4.656,4.098c2.277,1.436,8.889,4.488,8.889,4.488l2.418,0.078
				l0.996-2.694L110.98,172.948z"/>
			
				<linearGradient id="SVGID_12_" gradientUnits="userSpaceOnUse" x1="-1728.0254" y1="-704.7764" x2="-1729.5219" y2="-725.5013" gradientTransform="matrix(0.8004 -0.5995 -0.5995 -0.8004 1021.2523 -1454.0505)">
				<stop  offset="0" style="stop-color:#FFFFFF"/>
				<stop  offset="0.41" style="stop-color:#C1CAD9"/>
				<stop  offset="1" style="stop-color:#8A95AC"/>
			</linearGradient>
			<path fill="url(#SVGID_12_)" d="M81.669,152.999c0,0-9.221-3.603-19.288-8.462c-21.399-9.085-24.192-7.792-24.192-7.792
				s29.045,14.937,44.525,21.886L81.669,152.999z"/>
			
				<linearGradient id="SVGID_13_" gradientUnits="userSpaceOnUse" x1="-1751.8882" y1="-725.5107" x2="-1700.441" y2="-716.5509" gradientTransform="matrix(0.8004 -0.5995 -0.5995 -0.8004 1021.2523 -1454.0505)">
				<stop  offset="0" style="stop-color:#D9E3ED"/>
				<stop  offset="0.1127" style="stop-color:#C1CDD7"/>
				<stop  offset="0.8523" style="stop-color:#344E5D"/>
				<stop  offset="1" style="stop-color:#1F2D3A"/>
			</linearGradient>
			<path fill="url(#SVGID_13_)" d="M64.934,140.204c10.067,4.86,20.233,9.678,29.562,14.18c2.293,3.968,2.738,7.125,4.812,11.687
				c1.354,2.981,9.771,6.963,11.399,7.545l0.273-0.666c0,0-9.332-4.051-10.822-7.331c-2.071-4.56-2.517-7.718-4.81-11.685
				c-9.332-4.504-19.498-9.322-29.563-14.181c-21.398-9.088-27.597-3.008-27.597-3.008s0.167,0.08,0.469,0.223
				C42.611,136.417,47.38,132.751,64.934,140.204z"/>
			
				<linearGradient id="SVGID_14_" gradientUnits="userSpaceOnUse" x1="-1716.0732" y1="-718.1943" x2="-1718.3094" y2="-719.1527" gradientTransform="matrix(0.8004 -0.5995 -0.5995 -0.8004 1021.2523 -1454.0505)">
				<stop  offset="0" style="stop-color:#FFFFFF"/>
				<stop  offset="0.311" style="stop-color:#D7E3F5"/>
				<stop  offset="0.7745" style="stop-color:#A1B1CA"/>
				<stop  offset="1" style="stop-color:#8C9DB3"/>
			</linearGradient>
			<path fill="url(#SVGID_14_)" d="M64.425,140.587c10.068,4.858,20.234,9.677,29.562,14.181c2.295,3.965,2.739,7.123,4.812,11.686
				c1.355,2.98,10.385,7.176,12.014,7.759l0.275-0.666c0,0-9.949-4.267-11.439-7.546c-2.072-4.562-2.517-7.719-4.81-11.688
				c-9.329-4.502-19.497-9.319-29.562-14.18c-21.4-9.087-26.333-3.438-26.333-3.438s0.164,0.08,0.468,0.227
				C43.365,136.368,46.872,133.132,64.425,140.587z"/>
			
				<linearGradient id="SVGID_15_" gradientUnits="userSpaceOnUse" x1="-1711.5083" y1="-699.2534" x2="-1711.9757" y2="-740.3835" gradientTransform="matrix(0.8004 -0.5995 -0.5995 -0.8004 1021.2523 -1454.0505)">
				<stop  offset="0" style="stop-color:#D9D9D9"/>
				<stop  offset="0.1127" style="stop-color:#C1C1C1"/>
				<stop  offset="0.5466" style="stop-color:#6A6A6A"/>
				<stop  offset="0.8523" style="stop-color:#343434"/>
				<stop  offset="1" style="stop-color:#1F1F1F"/>
			</linearGradient>
			<path fill="url(#SVGID_15_)" d="M89.937,154.605c0.568,0.759,0.273,1.938-0.656,2.636c-0.93,0.694-2.145,0.646-2.712-0.111
				c-0.569-0.757-0.272-1.937,0.657-2.633C88.155,153.8,89.368,153.852,89.937,154.605z"/>
			
				<linearGradient id="SVGID_16_" gradientUnits="userSpaceOnUse" x1="-1706.2715" y1="-709.2563" x2="-1711.7404" y2="-728.7095" gradientTransform="matrix(0.8004 -0.5995 -0.5995 -0.8004 1021.2523 -1454.0505)">
				<stop  offset="0" style="stop-color:#D9D9D9"/>
				<stop  offset="0.1127" style="stop-color:#C1C1C1"/>
				<stop  offset="0.5466" style="stop-color:#6A6A6A"/>
				<stop  offset="0.8523" style="stop-color:#343434"/>
				<stop  offset="1" style="stop-color:#1F1F1F"/>
			</linearGradient>
			<polygon fill="url(#SVGID_16_)" points="89.796,155.2 86.397,155.991 86.522,156.287 89.968,155.559 			"/>
			
				<linearGradient id="SVGID_17_" gradientUnits="userSpaceOnUse" x1="-1694.3203" y1="-700.4688" x2="-1729.4274" y2="-727.0777" gradientTransform="matrix(0.8004 -0.5995 -0.5995 -0.8004 1021.2523 -1454.0505)">
				<stop  offset="0" style="stop-color:#D9D9D9"/>
				<stop  offset="0.1127" style="stop-color:#C1C1C1"/>
				<stop  offset="0.5466" style="stop-color:#6A6A6A"/>
				<stop  offset="0.8523" style="stop-color:#343434"/>
				<stop  offset="1" style="stop-color:#1F1F1F"/>
			</linearGradient>
			<path fill="url(#SVGID_17_)" d="M109.348,176.943c0,0-5.955-2.811-8.231-4.245c-1.827-1.15-3.271-1.949-4.726-3.716
				c-3.636-4.418-5.568-6.467-10.32-8.752c-19.451-9.35-42.899-21.58-46.384-23.256c-0.683,0.104-1.497-0.229-1.497-0.229
				s26.087,13.497,46.707,23.41c4.752,2.284,7.211,4.37,10.846,8.788c1.455,1.767,2.828,2.945,4.656,4.099
				c2.277,1.435,8.889,4.488,8.889,4.488l2.443,0.079l0.971-2.695l-0.393-0.448l-0.927,2.488L109.348,176.943z"/>
		</g>
		
			<linearGradient id="SVGID_18_" gradientUnits="userSpaceOnUse" x1="182.6523" y1="34.7822" x2="135.9453" y2="-68.6912" gradientTransform="matrix(1 0 0 -1 -49.9224 60.9766)">
			<stop  offset="0" style="stop-color:#FF0000"/>
			<stop  offset="0.1674" style="stop-color:#F60000"/>
			<stop  offset="0.4388" style="stop-color:#DE0000"/>
			<stop  offset="0.7785" style="stop-color:#B70000"/>
			<stop  offset="1" style="stop-color:#9A0000"/>
		</linearGradient>
		<path fill="url(#SVGID_18_)" d="M37.973,55.087c-8,7.23-8.341,18.638-0.761,25.477l86.968,78.48
			c7.579,6.84,20.209,6.521,28.209-0.709l4.069-3.68c5.646-5.104,7.478-12.289,5.401-18.479c-0.865-2.58-3.682-8.404-5.911-10.416
			L70.253,50.696c-7.58-6.839-20.209-6.521-28.208,0.711L37.973,55.087z"/>
		
			<linearGradient id="SVGID_19_" gradientUnits="userSpaceOnUse" x1="181.3105" y1="35.2246" x2="114.7299" y2="-112.2764" gradientTransform="matrix(1 0 0 -1 -50 61)">
			<stop  offset="0" style="stop-color:#FF0000"/>
			<stop  offset="0.1674" style="stop-color:#F60000"/>
			<stop  offset="0.4388" style="stop-color:#DE0000"/>
			<stop  offset="0.7785" style="stop-color:#B70000"/>
			<stop  offset="1" style="stop-color:#9A0000"/>
		</linearGradient>
		<path fill="url(#SVGID_19_)" d="M40.337,53.515c-7.682,6.941-8.009,17.893-0.731,24.459l83.496,75.35
			c7.277,6.564,19.402,6.26,27.084-0.682l3.908-3.533c7.68-6.942,8.008-17.896,0.73-24.461l-83.496-75.35
			c-7.276-6.566-19.402-6.261-27.083,0.682L40.337,53.515z"/>
		
			<linearGradient id="SVGID_20_" gradientUnits="userSpaceOnUse" x1="119.1973" y1="-98.4614" x2="187.821" y2="41.3141" gradientTransform="matrix(1 0 0 -1 -50 61)">
			<stop  offset="0" style="stop-color:#FF0000"/>
			<stop  offset="0.1674" style="stop-color:#F60000"/>
			<stop  offset="0.4388" style="stop-color:#DE0000"/>
			<stop  offset="0.7785" style="stop-color:#B70000"/>
			<stop  offset="1" style="stop-color:#9A0000"/>
		</linearGradient>
		<path fill="url(#SVGID_20_)" d="M154.096,145.55l-3.908,3.533c-7.683,6.94-19.808,7.246-27.084,0.681L39.606,74.415
			c-3.029-2.732-4.721-6.228-5.133-9.874c-0.562,4.872,1.126,9.817,5.133,13.433l83.496,75.35c7.277,6.564,19.402,6.26,27.084-0.682
			l3.908-3.533c4.484-4.053,6.441-9.471,5.863-14.588C159.499,138.499,157.546,142.43,154.096,145.55z"/>
		<path fill="#534F50" d="M144.8,54.045c0,0.457-0.37,0.827-0.827,0.827h-16.347c-0.457,0-0.828-0.37-0.828-0.827l0,0
			c0-0.457,0.371-0.827,0.828-0.827h16.347C144.43,53.218,144.8,53.588,144.8,54.045L144.8,54.045z"/>
		<path fill="#534F50" d="M99.626,32.952c0.148,0.434-0.082,0.903-0.515,1.051l-15.466,5.293c-0.432,0.146-0.902-0.084-1.051-0.516
			l0,0c-0.148-0.432,0.082-0.902,0.516-1.051l15.465-5.292C99.008,32.29,99.479,32.521,99.626,32.952L99.626,32.952z"/>
		<path fill="#534F50" d="M66.083,64.751c0.371,3.184-2.262,5.914-5.881,6.1c-3.621,0.186-6.855-2.246-7.228-5.43
			c-0.372-3.185,2.261-5.915,5.881-6.102C62.476,59.136,65.711,61.566,66.083,64.751z"/>
		
			<linearGradient id="SVGID_21_" gradientUnits="userSpaceOnUse" x1="-258.5283" y1="-240.7573" x2="-255.7358" y2="-242.2142" gradientTransform="matrix(1.0593 -0.0542 -0.1096 -0.9385 307.1978 -174.8021)">
			<stop  offset="0" style="stop-color:#FFFFFF"/>
			<stop  offset="0.41" style="stop-color:#C1C1C1"/>
			<stop  offset="0.8078" style="stop-color:#8A8A8A"/>
			<stop  offset="1" style="stop-color:#757575"/>
		</linearGradient>
		<path fill="url(#SVGID_21_)" d="M63.829,64.866c0.244,2.09-1.482,3.881-3.858,4.003s-4.499-1.474-4.743-3.563
			c-0.244-2.089,1.483-3.882,3.859-4.004C61.462,61.181,63.586,62.776,63.829,64.866z"/>
	</g>
</g>
<g id="outline_x5F_white">
	<g>
		<g>
			<path fill="#FFFFFF" d="M108.797,25.618l2.526,6.256l-0.589,2.096c0,0-1.02,1.539-1.773,3.627
				c-0.126,0.637-0.206,1.291-0.206,1.943c0,0.57-0.226,1.174-0.577,1.787c-0.003,0.104-0.013,0.207-0.013,0.311
				c0,3.789-9.158,9.029-9.158,9.029l-4.105-9.188c0,0-11.412,3.312-13.96,6.758c-0.079,0.105-0.148,0.217-0.217,0.329
				c0.007,0.839,0.301,1.667,0.969,2.327c2.042,0,4.249,0,6.568,0C89.2,49.85,89.49,48.57,89.49,48.57s1.863,0.441,1.92,2.323
				c17.609,0,39.925,0,45.811,0c10.107,0,23.371,3.616,27.478,6.456c4.104,2.839,6.001,7.382,6.001,7.382
				s-17.055,4.617-35.057,4.617c-10.549,0-28.795,0-42.096,0l61.279,55.298c0.361,0.326,0.689,0.67,1.012,1.017l0.111,0.098
				c2.23,2.013,5.046,7.837,5.912,10.416c0.926,2.763,1.068,5.722,0.447,8.606c0.377,1.746,0.465,3.544,0.254,5.337
				c0.612,5.336-1.424,10.991-6.104,15.221l-4.069,3.681c-0.15,0.137-0.312,0.252-0.468,0.383l-0.832,0.753
				c-4.054,3.663-9.321,5.512-14.487,5.512c-4.804,0-9.519-1.597-13.086-4.817l-16.164-14.586c-0.412-0.02-0.814-0.029-1.201-0.029
				c-0.781,0-1.504,0.041-2.129,0.136c-2.138,0.317-4.431,0.946-6.715,1.733c0.885,2.316,1.545,4.637,2.853,7.514
				c1.491,3.279,10.821,7.331,10.821,7.331l1.328,1.518l0.393,0.448l-0.971,2.695l-0.025-0.002v0.002l-2.418-0.079
				c0,0-6.611-3.054-8.889-4.488c-1.828-1.151-3.201-2.332-4.656-4.099c-2.68-3.258-4.725-5.246-7.516-6.981
				c-0.916,0.451-1.786,0.896-2.584,1.319c-9.482-0.227-21.244-0.557-31.476-0.799c-17.267-1.396-19.983-9.246-20.34-10.696
				c-0.056-0.146-0.048-0.229-0.048-0.229s16.324,0.088,34.302,0.352c-15.712-7.826-29.891-15.162-29.891-15.162
				s2.029-1.991,7.778-1.991c4.295,0,10.667,1.112,19.819,4.999c8.818,4.256,17.712,8.48,26.056,12.49
				c3.232-0.135,7.156-0.453,10.488-0.512L38.503,94.134c-2.444-2.205-5.208-7.153-5.977-10.023
				c-0.011-0.039-0.015-0.074-0.025-0.113c-0.694-2.189-0.902-4.492-0.632-6.783c-0.202-1.762-0.116-3.554,0.262-5.322
				c-1.261-5.779,0.697-12.154,5.843-16.805l4.071-3.68c1.162-1.051,2.429-1.938,3.756-2.695c3.328-2.461,7.284-3.814,11.255-4.078
				c-0.033-0.042-0.053-0.066-0.053-0.066L108.797,25.618 M108.795,13.615c-1.37,0-2.762,0.236-4.121,0.733L54.011,32.884
				c-5.35,0.712-10.403,2.68-14.764,5.759c-1.916,1.144-3.68,2.441-5.252,3.864l-4.068,3.676
				c-7.533,6.808-11.15,16.272-9.956,25.734c-0.213,1.752-0.263,3.514-0.149,5.271c-0.237,3.396,0.133,6.75,1.105,9.996
				c0.004,0.017,0.009,0.033,0.013,0.049c1.243,4.623,5,11.727,9.524,15.81l22.511,20.314c-2.461-0.401-4.8-0.604-7.009-0.604
				c-9.615-0.001-14.521,3.795-16.183,5.427c-2.747,2.694-4.034,6.545-3.462,10.35c0.157,1.045,0.449,2.052,0.861,3
				c-2.968,1.953-5.029,5.197-5.36,8.979c-0.134,1.533,0.03,3.114,0.476,4.623c1.292,4.621,7.024,17.382,30.899,19.312
				c0.228,0.02,0.456,0.031,0.684,0.037c5.271,0.123,10.949,0.271,16.511,0.418c5.234,0.136,10.366,0.271,14.964,0.379
				c0.008,0,0.017,0,0.024,0c0.334,0.38,0.695,0.807,1.093,1.289c2.235,2.713,4.554,4.754,7.525,6.627
				c2.727,1.718,8.539,4.438,10.255,5.23c1.458,0.674,3.035,1.047,4.64,1.1l2.418,0.078c0.131,0.006,0.263,0.008,0.394,0.008
				c4.129,0,7.912-2.113,10.096-5.478c4.462,2.308,9.529,3.535,14.802,3.535c8.39,0,16.393-3.058,22.535-8.608l0.575-0.521
				c0.19-0.153,0.438-0.355,0.716-0.607l4.079-3.688c7.067-6.387,10.704-15.106,10.103-24.107c0.123-1.787,0.074-3.574-0.144-5.349
				c0.521-4.198,0.104-8.447-1.228-12.423c-0.881-2.62-4.381-10.92-8.985-15.266c-0.396-0.416-0.856-0.879-1.387-1.356
				l-38.11-34.392h10.887c19.375,0,37.433-4.828,38.19-5.034c3.336-0.903,6.12-3.2,7.642-6.303c1.521-3.104,1.629-6.711,0.297-9.9
				c-0.541-1.301-3.588-8.024-10.25-12.631c-6.728-4.654-22.437-8.586-34.301-8.586h-15.513c0.226-0.515,0.403-1.056,0.579-1.678
				l0.589-2.096c0.718-2.556,0.567-5.278-0.426-7.74l-2.526-6.256C118.042,16.464,113.555,13.615,108.795,13.615L108.795,13.615z"/>
		</g>
	</g>
</g>
<g id="outline_x5F_black">
	<g>
		<path d="M108.797,25.618l2.526,6.256l-0.589,2.096c0,0-1.02,1.539-1.773,3.627c-0.126,0.637-0.206,1.291-0.206,1.943
			c0,0.57-0.226,1.174-0.577,1.787c-0.003,0.104-0.013,0.207-0.013,0.311c0,3.789-9.158,9.029-9.158,9.029l-4.105-9.188
			c0,0-11.412,3.312-13.96,6.758c-0.079,0.105-0.148,0.217-0.217,0.329c0.007,0.839,0.301,1.667,0.969,2.327
			c2.042,0,4.249,0,6.568,0C89.2,49.85,89.49,48.57,89.49,48.57s1.863,0.441,1.92,2.323c17.609,0,39.925,0,45.811,0
			c10.107,0,23.371,3.616,27.478,6.456c4.104,2.839,6.001,7.382,6.001,7.382s-17.055,4.617-35.057,4.617
			c-10.549,0-28.795,0-42.096,0l61.279,55.298c0.361,0.326,0.689,0.67,1.012,1.017l0.111,0.098c2.23,2.013,5.046,7.837,5.912,10.416
			c0.926,2.763,1.068,5.722,0.447,8.606c0.377,1.746,0.465,3.544,0.254,5.337c0.612,5.336-1.424,10.991-6.104,15.221l-4.069,3.681
			c-0.15,0.137-0.312,0.252-0.468,0.383l-0.832,0.753c-4.054,3.663-9.321,5.512-14.487,5.512c-4.804,0-9.519-1.597-13.086-4.817
			l-16.164-14.586c-0.412-0.02-0.814-0.029-1.201-0.029c-0.781,0-1.504,0.041-2.129,0.136c-2.138,0.317-4.431,0.946-6.715,1.733
			c0.885,2.316,1.545,4.637,2.853,7.514c1.491,3.279,10.821,7.331,10.821,7.331l1.328,1.518l0.393,0.448l-0.971,2.695l-0.025-0.002
			v0.002l-2.418-0.079c0,0-6.611-3.054-8.889-4.488c-1.828-1.151-3.201-2.332-4.656-4.099c-2.68-3.258-4.725-5.246-7.516-6.981
			c-0.916,0.451-1.786,0.896-2.584,1.319c-9.482-0.227-21.244-0.557-31.476-0.799c-17.267-1.396-19.983-9.246-20.34-10.696
			c-0.056-0.146-0.048-0.229-0.048-0.229s16.324,0.088,34.302,0.352c-15.712-7.826-29.891-15.162-29.891-15.162
			s2.029-1.991,7.778-1.991c4.295,0,10.667,1.112,19.819,4.999c8.818,4.256,17.712,8.48,26.056,12.49
			c3.232-0.135,7.156-0.453,10.488-0.512L38.503,94.134c-2.444-2.205-5.208-7.153-5.977-10.023
			c-0.011-0.039-0.015-0.074-0.025-0.113c-0.694-2.189-0.902-4.492-0.632-6.783c-0.202-1.762-0.116-3.554,0.262-5.322
			c-1.261-5.779,0.697-12.154,5.843-16.805l4.071-3.68c1.162-1.051,2.429-1.938,3.756-2.695c3.328-2.461,7.284-3.814,11.255-4.078
			c-0.033-0.042-0.053-0.066-0.053-0.066L108.797,25.618 M108.796,19.617c-0.685,0-1.381,0.118-2.062,0.367L55.424,38.756
			c-4.696,0.52-9.127,2.207-12.902,4.921c-1.654,0.971-3.168,2.073-4.502,3.28l-4.069,3.678c-6.249,5.647-9.155,13.515-7.921,21.268
			c-0.273,1.758-0.337,3.534-0.19,5.298c-0.249,2.845,0.042,5.653,0.866,8.361c0.011,0.046,0.023,0.091,0.036,0.138
			c0.997,3.722,4.247,9.733,7.742,12.888l46.127,41.625c-4.048-1.938-8.141-3.896-12.218-5.863
			c-0.086-0.043-0.174-0.082-0.262-0.119c-8.556-3.635-16.013-5.478-22.165-5.478c-7.609,0-11.094,2.839-11.98,3.709
			c-1.373,1.349-2.017,3.271-1.73,5.175c0.286,1.902,1.467,3.553,3.176,4.438c0.061,0.031,2.69,1.391,6.895,3.543
			c-5.172-0.043-8.444-0.062-8.517-0.062c-0.011,0-0.022,0-0.033,0c-3.109,0-5.706,2.377-5.977,5.479
			c-0.07,0.8,0.021,1.632,0.263,2.433c0.926,3.415,5.367,13.36,25.619,14.998c0.113,0.009,0.228,0.017,0.342,0.019
			c5.272,0.125,10.952,0.272,16.516,0.418c5.232,0.137,10.363,0.271,14.959,0.379c0.048,0.002,0.095,0.003,0.143,0.003
			c0.665,0,1.323-0.11,1.948-0.325c1.065,0.957,2.161,2.15,3.518,3.8c1.831,2.224,3.652,3.825,6.091,5.362
			c2.482,1.562,8.408,4.322,9.572,4.859c0.729,0.336,1.518,0.522,2.318,0.549l2.418,0.08c0.064,0.002,0.131,0.002,0.196,0.002
			c2.53,0,4.813-1.586,5.671-3.967l0.971-2.694c0.277-0.771,0.391-1.576,0.346-2.368l0.805,0.727
			c4.547,4.104,10.621,6.362,17.105,6.362c6.898,0,13.474-2.508,18.512-7.062l0.718-0.648l0.004-0.003
			c0.194-0.154,0.388-0.312,0.574-0.479l4.073-3.685c5.793-5.233,8.725-12.366,8.109-19.663c0.154-1.787,0.094-3.577-0.184-5.345
			c0.558-3.55,0.266-7.158-0.859-10.515c-0.919-2.737-4.078-9.754-7.521-12.908c-0.353-0.372-0.737-0.767-1.182-1.168L109.15,75.349
			h26.49c18.586,0,35.896-4.629,36.625-4.826c1.666-0.452,3.06-1.6,3.818-3.152c0.762-1.551,0.814-3.355,0.148-4.95
			c-0.262-0.631-2.729-6.274-8.125-10.006c-5.689-3.936-20.414-7.521-30.89-7.521h-23.68c0.246-0.637,0.429-1.3,0.53-1.99
			c0.455-1.123,0.685-2.25,0.685-3.363c0-0.083,0.005-0.2,0.024-0.359c0.453-1.11,0.973-1.921,0.979-1.93
			c0.344-0.519,0.584-1.059,0.753-1.658l0.589-2.096c0.359-1.278,0.284-2.639-0.213-3.87l-2.525-6.256
			C113.419,21.042,111.175,19.617,108.796,19.617L108.796,19.617z M105.486,162.838c-0.043-0.097-0.084-0.191-0.125-0.288
			l1.603,1.447C106.296,163.548,105.777,163.146,105.486,162.838L105.486,162.838z"/>
	</g>
</g>
</svg>
