<?xml version="1.0" encoding="utf-8"?>
<!-- Generator: Adobe Illustrator 15.0.0, SVG Export Plug-In . SVG Version: 6.00 Build 0)  -->
<!DOCTYPE svg PUBLIC "-//W3C//DTD SVG 1.1//EN" "http://www.w3.org/Graphics/SVG/1.1/DTD/svg11.dtd">
<svg version="1.1" xmlns="http://www.w3.org/2000/svg" xmlns:xlink="http://www.w3.org/1999/xlink" x="0px" y="0px" width="200px"
	 height="200px" viewBox="0 0 200 200" enable-background="new 0 0 200 200" xml:space="preserve">
<g id="icon">
	<g id="Layer_2">
	</g>
	<g>
		<g>
			<g>
				
					<linearGradient id="SVGID_1_" gradientUnits="userSpaceOnUse" x1="-1511.9443" y1="413.9473" x2="-1515.3816" y2="467.6537" gradientTransform="matrix(-0.8662 -0.4996 0.4996 -0.8662 -1458.5042 -226.2918)">
					<stop  offset="0" style="stop-color:#AB7330"/>
					<stop  offset="0.1574" style="stop-color:#A66E30"/>
					<stop  offset="0.3431" style="stop-color:#986131"/>
					<stop  offset="0.543" style="stop-color:#804B32"/>
					<stop  offset="0.7517" style="stop-color:#5F2C34"/>
					<stop  offset="0.8182" style="stop-color:#532135"/>
					<stop  offset="1" style="stop-color:#7F3F00"/>
				</linearGradient>
				<path fill="url(#SVGID_1_)" d="M79.811,174.727c0,0-0.423-0.353-1.138-0.354c-0.428,0-1.977,2.417-2.566,2.685
					c-3.116,1.467-8.245,3.676-10.449,2.767c-0.536-0.222-1.331-0.487-2.237-0.802c-0.181-0.061,0.473-2.056,0.282-2.123
					c-0.396-0.14-1.629,1.654-2.037,1.504c-2.438-0.904-5.025-2.094-5.658-3.641c-1.091-2.574-3.767-7.688-3.053-10.684
					c0.687-3.012,0.708-9.874,2.581-13.953c1.88-4.077,7.08-14.174,8.395-20.706c1.213-6.588,4.869-18.364,6.45-22.687
					c1.575-4.323,0.972-8.438,11.417-10.775c8.239-1.531,11.194,3.43,14.741,4.519c3.576,1.104,8.574,2.358,12.113,5.045
					c3.516,2.676,9.496,7.967,10.341,10.912c0.796,2.92-2.13,5.082-2.446,6.474c-0.322,1.386,3.393,4.641-1.9,9.336
					c-5.215,4.739-9.967,10.694-18.793,18.979C87.272,159.65,85.891,170.52,79.811,174.727z"/>
				<g>
					<g>
						<path opacity="0.54" fill="#582B20" enable-background="new    " d="M86.534,138.613c-4.914,5.099-9.159,11.279-11.553,17.996
							c-1.275,3.136-2.931,6.18-4.74,9.135c-1.815,2.943-3.791,5.857-5.848,8.604c2.178-2.654,4.296-5.488,6.275-8.371
							c1.979-2.893,3.829-5.886,5.33-9.051c1.389-3.214,3.184-6.24,5.269-9.044c1.044-1.401,2.165-2.743,3.347-4.032
							c0.594-0.642,1.206-1.269,1.831-1.879l0.953-0.904l1.016-0.931L86.534,138.613z"/>
					</g>
					<g>
						<path fill="#582B20" d="M57.468,170.035c0,0,12.106-18.445,12.096-21.205c-0.051-2.785,3.076-11.582,5.342-13.35
							c2.304-1.746,2.177-4.539,2.177-4.539"/>
						<g>
							<path opacity="0.54" fill="#582B20" enable-background="new    " d="M75.952,130.932c0.005,0.231-0.035,0.644-0.106,0.959
								c-0.072,0.336-0.176,0.664-0.312,0.969c-0.272,0.613-0.668,1.144-1.166,1.562l-0.213,0.174
								c-0.112,0.09-0.212,0.182-0.305,0.271c-0.185,0.184-0.345,0.369-0.493,0.557c-0.293,0.37-0.541,0.746-0.77,1.127
								c-0.456,0.76-0.839,1.53-1.194,2.312c-0.707,1.561-1.3,3.152-1.814,4.781c-0.257,0.816-0.494,1.643-0.694,2.491
								c-0.194,0.863-0.393,1.693-0.404,2.757c0.006-0.021-0.026,0.178-0.088,0.361c-0.061,0.191-0.141,0.404-0.229,0.619
								c-0.177,0.432-0.384,0.874-0.603,1.314c-0.438,0.887-0.917,1.771-1.407,2.651c-0.983,1.761-2.017,3.507-3.062,5.245
								c-2.088,3.479-4.227,6.939-6.376,10.369c2.285-3.325,4.575-6.684,6.83-10.062c1.134-1.687,2.261-3.384,3.345-5.104
								c0.544-0.862,1.077-1.733,1.581-2.622c0.251-0.445,0.495-0.896,0.717-1.357c0.209-0.473,0.447-0.932,0.5-1.496
								c0.051-0.789,0.271-1.588,0.498-2.367c0.234-0.783,0.505-1.559,0.798-2.32c0.586-1.527,1.254-3.021,2.012-4.443
								c0.381-0.709,0.787-1.399,1.231-2.035c0.221-0.315,0.455-0.617,0.696-0.881c0.122-0.129,0.244-0.25,0.365-0.35
								c0.06-0.051,0.119-0.096,0.174-0.131l0.27-0.194c0.765-0.571,1.411-1.34,1.856-2.21c0.227-0.434,0.402-0.895,0.535-1.369
								c0.127-0.498,0.22-0.916,0.234-1.552L75.952,130.932z"/>
						</g>
					</g>
					<g>
						<path fill="#582B20" d="M89.401,130.051c0,0-5.42,7.035-6.16,10.045"/>
						<g>
							<path opacity="0.54" fill="#582B20" enable-background="new    " d="M84.348,140.364c0.21-0.729,0.668-1.597,1.136-2.402
								c0.475-0.819,0.999-1.631,1.544-2.432c1.09-1.599,2.27-3.179,3.481-4.69c-1.559,1.27-3.088,2.625-4.542,4.04
								c-0.723,0.712-1.43,1.443-2.104,2.224c-0.668,0.804-1.332,1.562-1.857,2.696L84.348,140.364z"/>
						</g>
					</g>
					<g>
						<path fill="#582B20" d="M77.306,169.884c0,0-5.684,6.571-6.852,9.334"/>
						<g>
							<path opacity="0.54" fill="#582B20" enable-background="new    " d="M71.333,179.354c0.304-0.655,0.832-1.451,1.358-2.196
								c0.535-0.759,1.111-1.513,1.702-2.261c1.183-1.488,2.442-2.974,3.716-4.395c-1.525,1.232-3.037,2.543-4.494,3.902
								c-0.724,0.687-1.438,1.389-2.135,2.132c-0.69,0.76-1.372,1.491-2.006,2.53L71.333,179.354z"/>
						</g>
					</g>
					<g>
						<path opacity="0.54" fill="#582B20" enable-background="new    " d="M82.374,163.673c0.582-0.073,1.025-0.214,1.547-0.466
							c0.503-0.246,1.014-0.641,1.379-1.129c0.372-0.486,0.571-1.03,0.65-1.512l0.026-0.172l0.009-0.041
							c0.007-0.035,0.023-0.088,0.043-0.146c0.04-0.116,0.1-0.252,0.166-0.394c0.582-1.17,1.495-2.422,2.402-3.602
							c1.858-2.373,3.955-4.643,6.225-6.714c0.571-0.517,1.156-1.017,1.756-1.493c0.594-0.486,1.216-0.896,1.918-1.451
							c1.341-1.062,2.509-2.242,3.56-3.479c2.098-2.49,3.733-5.138,5.028-8.035c-1.502,2.824-3.328,5.366-5.556,7.705
							c-1.11,1.157-2.323,2.248-3.667,3.192c-1.37,0.906-2.671,1.783-3.909,2.799c-2.452,2.018-4.715,4.229-6.778,6.617
							c-1.018,1.217-2.012,2.416-2.832,3.896c-0.099,0.191-0.196,0.393-0.284,0.616c-0.042,0.112-0.085,0.229-0.119,0.364
							l-0.07,0.312c-0.061,0.24-0.165,0.42-0.284,0.544c-0.121,0.125-0.265,0.218-0.464,0.293c-0.177,0.073-0.482,0.134-0.615,0.122
							L82.374,163.673z"/>
					</g>
					<g>
						<path fill="#582B20" d="M71.039,118.055c0,0-3.341,5.289-3.71,9.922c-0.442,4.594-3.98,10.239-4.094,11.651
							c-0.122,1.41-6.458,13.351-6.265,14.464"/>
						<g>
							<path opacity="0.54" fill="#582B20" enable-background="new    " d="M57.901,154.039c-0.027,0.061,0.109-0.402,0.241-0.716
								c0.134-0.347,0.289-0.705,0.446-1.062c0.318-0.719,0.654-1.438,0.998-2.159l2.107-4.322c0.707-1.45,1.423-2.877,2.096-4.418
								l0.249-0.606l0.122-0.34c0.041-0.14,0.078-0.222,0.133-0.521l0.006-0.037l0.002-0.021l0.002-0.009
								c0.053,0.016-0.503-0.187-0.245-0.099l0.172,0.022l0.08,0.019c-0.001,0.002,0,0,0,0l0.01-0.047l0.058-0.189
								c0.051-0.148,0.116-0.314,0.187-0.484c0.291-0.689,0.643-1.417,0.986-2.145c0.69-1.463,1.38-2.963,1.954-4.553
								c0.287-0.801,0.542-1.623,0.739-2.487c0.097-0.435,0.18-0.878,0.236-1.337l0.07-0.617c0.022-0.184,0.051-0.369,0.083-0.553
								c0.542-2.971,1.944-5.903,3.517-8.465c-0.882,1.192-1.712,2.551-2.418,3.926c-0.703,1.391-1.312,2.846-1.675,4.375
								c-0.095,0.396-0.153,0.74-0.226,1.188c-0.077,0.429-0.177,0.845-0.291,1.252c-0.231,0.813-0.521,1.589-0.837,2.345
								c-0.637,1.51-1.387,2.934-2.146,4.345c-0.378,0.707-0.764,1.407-1.117,2.139c-0.167,0.367-0.359,0.748-0.427,1.198
								c-0.093,0.31-0.281,0.704-0.448,1.05c-0.706,1.426-1.487,2.823-2.252,4.228l-2.289,4.236
								c-0.375,0.717-0.746,1.438-1.107,2.178c-0.181,0.375-0.358,0.75-0.531,1.152c-0.087,0.202-0.172,0.41-0.255,0.646
								c-0.042,0.123-0.083,0.24-0.125,0.412c-0.045,0.178-0.085,0.396-0.08,0.592L57.901,154.039z"/>
						</g>
					</g>
					<g>
						<path fill="#582B20" d="M76.646,123.762c0,0-3.088,4.562-3.728,8.273c-0.684,3.689-2.829,7.646-2.829,7.646"/>
						<g>
							<path opacity="0.54" fill="#582B20" enable-background="new    " d="M71.015,140.252c0.723-1.331,1.334-2.648,1.887-4.045
								c0.272-0.696,0.522-1.407,0.74-2.139c0.109-0.365,0.208-0.737,0.296-1.117l0.229-1.055c0.654-2.543,2.075-5.078,3.577-7.32
								c-0.932,0.979-1.837,2.095-2.647,3.24c-0.804,1.158-1.547,2.375-2.079,3.733c-0.911,2.772-2.379,5.259-3.964,7.494
								L71.015,140.252z"/>
						</g>
					</g>
					<g>
						<path fill="#582B20" d="M89.078,159.045c0,0-4.63,5.089-6.024,8.37c-1.436,3.256-4.322,6.789-4.322,6.789"/>
						<g>
							<path opacity="0.54" fill="#582B20" enable-background="new    " d="M79.484,174.677c1.042-1.271,1.963-2.53,2.837-3.866
								c0.43-0.666,0.841-1.345,1.215-2.049c0.186-0.351,0.366-0.707,0.531-1.072c0.139-0.312,0.287-0.594,0.458-0.9
								c1.408-2.43,3.44-4.846,5.471-7.071c-1.168,0.998-2.33,2.089-3.423,3.196c-1.088,1.12-2.141,2.275-3.045,3.541
								c-0.462,0.637-0.809,1.322-1.243,1.943c-0.425,0.635-0.885,1.246-1.361,1.849c-0.951,1.19-1.993,2.372-3.037,3.431
								L79.484,174.677z"/>
						</g>
					</g>
					<g>
						<path fill="#582B20" d="M54.519,163.564c0,0,3.287-4.711,4.239-6.883c0.95-2.174,3.429-5.969,3.429-5.969"/>
						<g>
							<path opacity="0.54" fill="#582B20" enable-background="new    " d="M61.414,150.079c-0.696,1.067-1.357,2.133-2.001,3.239
								c-0.32,0.553-0.635,1.113-0.938,1.697c-0.307,0.562-0.6,1.271-0.823,1.707c-1.097,2.057-2.508,4.145-3.856,6.137
								c1.591-1.789,3.23-3.598,4.69-5.611c1.337-2.137,2.944-4.003,4.562-5.825L61.414,150.079z"/>
						</g>
					</g>
				</g>
				<g opacity="0.33">
					<g>
						<path fill="#582B20" d="M87.758,127.305c0,0-4.296,11.271-10.793,18.848c-6.294,7.691-9.012,17.104-9.343,17.971"/>
						<g>
							<path opacity="0.54" fill="#582B20" enable-background="new    " d="M68.518,164.375l0.453-1.253l0.447-1.2
								c0.305-0.798,0.624-1.592,0.958-2.382c0.667-1.582,1.393-3.142,2.186-4.664c1.588-3.067,3.434-5.906,5.724-8.54
								c2.324-2.79,4.293-5.802,6.077-8.895c1.771-3.109,3.334-6.277,4.679-9.631c-1.542,3.271-3.287,6.345-5.216,9.338
								c-1.932,2.982-4.033,5.865-6.42,8.472c-4.832,5.112-8.299,11.661-10.782,18.221L68.518,164.375z"/>
						</g>
					</g>
					<g>
						<path fill="#582B20" d="M75.816,121.532c0,0-6.85,21.332-9.059,22.888c-2.168,1.576-6.893,9.51-7.069,12.416
							c-0.216,2.887-2.174,4.545-2.174,4.545"/>
						<g>
							<path opacity="0.54" fill="#582B20" enable-background="new    " d="M57.976,162.236c0.467-0.418,0.763-0.78,1.091-1.227
								c0.315-0.433,0.597-0.9,0.833-1.398c0.236-0.498,0.423-1.027,0.555-1.569c0.061-0.271,0.116-0.544,0.149-0.815
								c0.021-0.139,0.028-0.273,0.042-0.412c0.007-0.072,0.014-0.14,0.029-0.223c0.117-0.676,0.437-1.521,0.781-2.312
								c0.35-0.801,0.75-1.598,1.175-2.381c0.857-1.562,1.813-3.088,2.859-4.483c0.521-0.685,1.089-1.371,1.636-1.847
								c0.083-0.068,0.087-0.075,0.199-0.156l0.094-0.072l0.127-0.104c0.075-0.068,0.139-0.135,0.197-0.197
								c0.227-0.249,0.383-0.473,0.532-0.694c0.292-0.44,0.531-0.866,0.76-1.295c1.756-3.413,3.067-6.878,4.402-10.375
								c1.291-3.511,2.496-7.044,3.633-10.627c-1.331,3.505-2.72,6.958-4.184,10.384c-1.492,3.407-2.979,6.832-4.813,10.041
								c-0.235,0.396-0.478,0.786-0.747,1.151c-0.132,0.183-0.272,0.358-0.425,0.512c-0.143,0.151-0.333,0.24-0.521,0.394
								c-0.715,0.572-1.322,1.266-1.911,1.969c-1.156,1.424-2.197,2.952-3.152,4.561c-0.473,0.809-0.925,1.633-1.338,2.504
								c-0.404,0.881-0.801,1.754-1.034,2.865c-0.027,0.141-0.048,0.295-0.064,0.443c-0.015,0.096-0.024,0.191-0.043,0.286
								c-0.031,0.188-0.079,0.376-0.126,0.56c-0.107,0.367-0.249,0.717-0.422,1.051c-0.174,0.334-0.379,0.647-0.608,0.936
								c-0.114,0.145-0.233,0.281-0.355,0.408c-0.112,0.117-0.274,0.269-0.337,0.31L57.976,162.236z"/>
						</g>
					</g>
					<g>
						<path fill="#582B20" d="M61.191,170.984c0,0,3.411-8.137,5.446-10.441"/>
						<g>
							<path opacity="0.54" fill="#582B20" enable-background="new    " d="M65.984,159.852c-0.781,0.912-1.275,1.791-1.789,2.688
								c-0.5,0.893-0.959,1.79-1.402,2.691c-0.886,1.804-1.708,3.603-2.508,5.446c1.088-1.741,2.202-3.417,3.369-5.055
								c0.586-0.812,1.186-1.613,1.808-2.37c0.614-0.738,1.293-1.512,1.903-1.938L65.984,159.852z"/>
						</g>
					</g>
					<g>
						<path fill="#582B20" d="M91.358,140.963c0,0,3.505-7.77,5.915-9.857"/>
						<g>
							<path opacity="0.54" fill="#582B20" enable-background="new    " d="M96.381,130.277c-0.902,0.808-1.458,1.63-2.031,2.469
								c-0.556,0.836-1.056,1.683-1.537,2.538c-0.959,1.712-1.833,3.43-2.669,5.2c1.222-1.612,2.483-3.153,3.817-4.644
								c0.67-0.741,1.358-1.464,2.077-2.139c0.712-0.656,1.499-1.333,2.232-1.672L96.381,130.277z"/>
						</g>
					</g>
					<g>
						<path fill="#582B20" d="M68.811,179.48c0,0,5.902-6.109,7.971-12.14c1.903-6.122,6.849-14.821,8.816-15.93
							c1.993-1.093,5.629-7.083,5.629-7.083"/>
						<g>
							<path opacity="0.54" fill="#582B20" enable-background="new    " d="M90.208,143.822c-0.888,1.453-1.858,2.92-2.89,4.273
								c-0.516,0.674-1.06,1.342-1.616,1.879c-0.138,0.131-0.275,0.252-0.403,0.352c-0.063,0.048-0.124,0.092-0.174,0.122
								l-0.115,0.069c-0.088,0.051-0.162,0.103-0.233,0.152c-0.535,0.398-0.849,0.771-1.175,1.148
								c-1.224,1.506-2.129,3.039-3.021,4.604c-0.879,1.562-1.686,3.147-2.432,4.759c-0.749,1.608-1.443,3.235-2.036,4.903
								c-0.148,0.41-0.296,0.854-0.423,1.241c-0.124,0.373-0.264,0.744-0.417,1.113c-0.311,0.74-0.672,1.477-1.072,2.203
								c-1.619,2.887-3.772,5.701-6.036,8.191c2.375-2.395,4.674-5.131,6.492-8.023c0.45-0.728,0.868-1.472,1.234-2.232
								c0.372-0.754,0.644-1.546,0.989-2.355c0.672-1.605,1.445-3.172,2.273-4.713c0.826-1.542,1.712-3.055,2.663-4.527
								c0.954-1.463,1.963-2.928,3.122-4.172c0.287-0.299,0.604-0.598,0.876-0.764c0.056-0.027,0.422-0.217,0.612-0.361
								c0.219-0.151,0.418-0.311,0.606-0.471c0.748-0.646,1.37-1.328,1.979-2.02c1.21-1.391,2.298-2.809,3.357-4.299L90.208,143.822
								z"/>
						</g>
					</g>
					<g>
						<path fill="#582B20" d="M68.609,169.989c0,0,2.521-5.712,5.75-8.771c3.291-3.023,5.938-9.131,7.007-10.018
							c1.076-0.885,7.033-12.983,8.164-13.373"/>
						<g>
							<path opacity="0.54" fill="#582B20" enable-background="new    " d="M88.864,136.902c-0.172,0.087-0.328,0.225-0.45,0.351
								c-0.118,0.119-0.196,0.214-0.275,0.312c-0.154,0.192-0.282,0.375-0.404,0.556c-0.245,0.358-0.462,0.711-0.679,1.063
								c-0.426,0.704-0.826,1.407-1.222,2.111l-2.326,4.221c-0.773,1.393-1.545,2.81-2.354,4.116l-0.303,0.462l-0.141,0.199
								l-0.058,0.073c-0.003,0.003-0.027,0.032-0.013,0.017l0.015-0.017c0.012,0.008-0.015-0.024,0.029,0.015
								c0.038,0.034,0.083,0.071,0.11,0.107l0.138,0.201l0.07,0.102l0.035,0.053c0.102,0.129-0.721-0.923-0.382-0.473l-0.117,0.107
								c-0.07,0.065-0.126,0.125-0.178,0.185c-0.101,0.116-0.18,0.218-0.256,0.319c-0.146,0.199-0.269,0.387-0.386,0.569
								c-0.46,0.731-0.848,1.427-1.25,2.118c-0.796,1.383-1.597,2.73-2.481,3.992c-0.44,0.629-0.901,1.236-1.387,1.796
								c-0.242,0.28-0.49,0.547-0.745,0.797l-0.434,0.42c-0.159,0.157-0.312,0.316-0.461,0.479
								c-1.183,1.297-2.132,2.701-2.993,4.131c-0.859,1.441-1.614,2.871-2.318,4.41c0.779-1.516,1.608-2.907,2.533-4.297
								c0.927-1.373,1.942-2.709,3.142-3.896c0.291-0.287,0.645-0.592,0.921-0.826c0.288-0.25,0.567-0.521,0.84-0.799
								c0.546-0.562,1.064-1.167,1.56-1.79c0.997-1.252,1.904-2.585,2.795-3.927c0.448-0.668,0.888-1.347,1.359-1.992
								c0.241-0.319,0.472-0.642,0.77-0.858c0.354-0.344,0.561-0.656,0.813-0.992c0.951-1.328,1.819-2.686,2.7-4.036l2.635-4.036
								c0.444-0.665,0.893-1.325,1.351-1.964c0.23-0.316,0.462-0.632,0.697-0.921c0.116-0.144,0.235-0.28,0.342-0.393
								c0.051-0.053,0.11-0.107,0.134-0.123c0.017-0.014,0.016,0.004,0.021,0.006L88.864,136.902z"/>
						</g>
					</g>
					<g>
						<path fill="#582B20" d="M53.574,165.827c0,0,0.792-5.461,2.902-8.377c2.147-2.894,3.809-7.119,3.809-7.119"/>
						<g>
							<path opacity="0.54" fill="#582B20" enable-background="new    " d="M59.405,149.92c-0.504,1.248-1.104,2.528-1.74,3.725
								c-0.32,0.604-0.654,1.19-1.004,1.756c-0.175,0.283-0.354,0.56-0.536,0.828l-0.607,0.867c-0.88,1.366-1.425,2.832-1.873,4.285
								c-0.445,1.469-0.778,2.887-1.035,4.416c0.408-1.517,0.893-2.896,1.476-4.277c0.585-1.36,1.275-2.691,2.171-3.754
								c0.944-0.984,1.84-2.098,2.663-3.271c0.835-1.181,1.609-2.377,2.352-3.7L59.405,149.92z"/>
						</g>
					</g>
					<g>
						<path fill="#582B20" d="M86.183,155.406c0,0,3.083-5.936,5.915-8.438c2.868-2.479,5.211-6.313,5.211-6.313"/>
						<g>
							<path opacity="0.54" fill="#582B20" enable-background="new    " d="M96.241,140.137c-0.772,1.227-1.678,2.465-2.632,3.604
								c-0.482,0.571-0.981,1.125-1.505,1.646c-0.261,0.26-0.527,0.512-0.801,0.75c-0.321,0.28-0.644,0.6-0.928,0.904
								c-1.143,1.245-2.05,2.551-2.911,3.877c-0.857,1.331-1.637,2.661-2.387,4.059c0.923-1.328,1.877-2.57,2.896-3.797
								c1.023-1.214,2.102-2.398,3.323-3.428c0.603-0.516,1.301-0.918,1.942-1.43c0.648-0.495,1.267-1.023,1.87-1.569
								c1.206-1.104,2.323-2.241,3.396-3.517L96.241,140.137z"/>
						</g>
					</g>
					<g>
						<path fill="#582B20" d="M66.963,119.012c0,0-0.882,6.026-1.807,8.219c-0.924,2.188-1.944,6.783-1.944,6.783"/>
						<g>
							<path opacity="0.54" fill="#582B20" enable-background="new    " d="M64.23,134.354c0.302-1.22,0.631-2.455,0.987-3.653
								c0.178-0.603,0.364-1.197,0.564-1.771c0.194-0.598,0.42-1.037,0.688-1.77c0.854-2.607,1.298-5.145,1.75-7.778
								c-0.835,2.496-1.682,4.97-2.844,7.253c-1.338,2.152-2.333,4.572-3.303,6.998L64.23,134.354z"/>
						</g>
					</g>
				</g>
				<g>
					
						<linearGradient id="SVGID_2_" gradientUnits="userSpaceOnUse" x1="-223.5381" y1="2938.5996" x2="-232.6554" y2="2957.1191" gradientTransform="matrix(0.9494 -0.3139 0.3139 0.9494 -614.261 -2757.7314)">
						<stop  offset="0" style="stop-color:#7F3F00"/>
						<stop  offset="0.8182" style="stop-color:#3F2126"/>
					</linearGradient>
					<path fill="url(#SVGID_2_)" d="M81.797,95.957c8.239-1.531,11.194,3.43,14.741,4.519c3.576,1.104,8.575,2.358,12.112,5.045
						c3.517,2.676,9.496,7.967,10.342,10.912c0.796,2.92-2.129,5.082-2.446,6.474c-0.213,0.924,1.369,2.684,0.88,5.14
						c-0.049,0.008-0.094,0.014-0.145,0.02c-3.686,0.358-14.911,7.828-19.646,5.271c-4.726-2.554-6.409-4.309-12.26-4.35
						c-4.634,0.031-9.354-4.313-11.527-8.999c-1.77-3.679-2.656-7.39-4.103-11.437c0.24-0.713,0.457-1.33,0.634-1.818
						C71.956,102.408,71.352,98.294,81.797,95.957z"/>
					
						<linearGradient id="SVGID_3_" gradientUnits="userSpaceOnUse" x1="-614.2217" y1="2936.7305" x2="-596.8987" y2="2915.1938" gradientTransform="matrix(0.8934 -0.4493 0.4493 0.8934 -676.3064 -2783.1604)">
						<stop  offset="0" style="stop-color:#C49A6C"/>
						<stop  offset="0.8215" style="stop-color:#996835"/>
					</linearGradient>
					<path fill="url(#SVGID_3_)" d="M117.001,116.865c0,0-1.005,0.461-2.522,3.287c-1.074,1.979,2.436,6.514-0.455,6.791
						c-2.855,0.299-4.645,4.26-14.509,4.175c-4.468,0.038-8.124-4.187-11.803-3.604c-3.607,0.621-9.649-6.285-11.402-9.984
						c-1.831-3.743-1.621-7.641-2.193-10.473c-0.61-2.855,1.331-6.132,4.472-7.633c3.205-1.463,7.976-2.766,12.968,0.724
						c4.96,3.474,7.388,2.187,11.688,4.762C107.538,107.48,114.898,112.467,117.001,116.865z"/>
					<path opacity="0.48" fill="#D5B796" enable-background="new    " d="M113.387,115.951c0,0-0.826,0.395-2.057,2.783
						c-0.868,1.673,2.107,5.49-0.289,5.735c-2.37,0.261-3.799,3.616-12.067,3.536c-3.764,0.02-6.894-3.559-10.001-3.087
						c-3.059,0.498-8.217-5.341-9.702-8.446c-1.538-3.138-1.33-6.38-1.789-8.738c-0.484-2.375,1.199-5.084,3.865-6.317
						c2.713-1.208,6.728-2.287,10.87,0.614c4.121,2.891,6.147,1.811,9.717,3.947C105.499,108.114,111.613,112.264,113.387,115.951z"
						/>
					<path opacity="0.48" fill="#D5B796" enable-background="new    " d="M107.686,115.342c0,0-0.563,0.288-1.386,1.988
						c-0.579,1.193,1.538,3.89-0.116,4.08c-1.643,0.195-2.574,2.593-8.378,2.54c-2.662,0.002-4.922-2.548-7.131-2.23
						c-2.183,0.328-5.895-3.821-6.946-6.009c-1.077-2.201-0.889-4.454-1.185-6.097c-0.308-1.649,0.937-3.517,2.849-4.359
						c1.934-0.832,4.77-1.58,7.629,0.429c2.847,2.002,4.263,1.239,6.728,2.717C102.21,109.876,106.438,112.749,107.686,115.342z"/>
					<path opacity="0.48" fill="#D5B796" enable-background="new    " d="M100.641,114.664c0,0-0.253,0.138-0.611,0.943
						c-0.252,0.563,0.75,1.826-0.002,1.925c-0.749,0.099-1.143,1.235-3.835,1.212c-1.248-0.005-2.336-1.21-3.378-1.072
						c-1.035,0.141-2.81-1.816-3.304-2.836c-0.498-1.021-0.388-2.055-0.508-2.811c-0.124-0.754,0.49-1.602,1.401-1.979
						c0.917-0.376,2.244-0.718,3.542,0.197c1.296,0.915,1.95,0.56,3.071,1.229C98.133,112.146,100.058,113.458,100.641,114.664z"/>
					<g opacity="0.44">
						<path opacity="0.54" fill="#582B20" enable-background="new    " d="M78.521,101.672c-1.076,0.768-1.878,2.062-2.042,3.487
							c-0.194,1.413,0.024,2.772,0.165,3.989c0.071,0.609,0.133,1.19,0.149,1.738c0.006,0.271,0.004,0.537-0.016,0.789
							c-0.034,0.367-0.012,0.809,0.043,1.176c0.234,1.5,0.793,2.771,1.401,4.004c1.236,2.422,2.761,4.644,4.807,6.57
							c0.517,0.475,1.076,0.928,1.718,1.328c0.321,0.197,0.662,0.385,1.036,0.54c0.417,0.172,0.691,0.249,0.987,0.354l3.576,1.24
							c2.387,0.848,4.814,1.713,7.139,2.648l0.213,0.089l0.107,0.044l0.218,0.081c0.282,0.097,0.518,0.14,0.741,0.174
							c0.445,0.066,0.829,0.078,1.204,0.078c0.747-0.007,1.438-0.073,2.121-0.167c1.364-0.186,2.676-0.475,3.965-0.85
							c1.293-0.372,2.561-0.826,3.775-1.438c1.201-0.614,2.421-1.354,3.248-2.61c0.199-0.297,0.363-0.726,0.439-0.951l0.284-0.808
							c0.185-0.54,0.359-1.085,0.522-1.636c0.32-1.114,0.604-2.191,0.803-3.414c-0.258,1.209-0.6,2.268-0.979,3.361
							c-0.191,0.539-0.396,1.074-0.605,1.604l-0.326,0.791c-0.094,0.229-0.258,0.617-0.459,0.893
							c-0.828,1.158-2.033,1.832-3.23,2.387c-1.203,0.549-2.465,0.945-3.744,1.265c-1.273,0.316-2.568,0.552-3.891,0.681
							c-0.658,0.062-1.322,0.103-2.001,0.082c-0.341-0.015-0.684-0.037-1.04-0.104c-0.353-0.046-0.76-0.229-1.014-0.354
							c-2.347-1.051-4.75-2.013-7.133-2.967l-3.568-1.399c-1.214-0.38-2.199-1.117-3.081-1.996
							c-1.751-1.771-3.127-3.931-4.144-6.146c-0.501-1.107-0.926-2.283-1.022-3.322c-0.021-0.264-0.019-0.473,0.019-0.715
							c0.042-0.328,0.06-0.651,0.069-0.979c0.012-0.648-0.026-1.289-0.068-1.908c-0.092-1.232-0.186-2.4,0.022-3.339
							c0.194-0.942,0.704-1.606,1.488-2.106L78.521,101.672z"/>
					</g>
					<g opacity="0.26">
						<path opacity="0.54" fill="#582B20" enable-background="new    " d="M107.217,124.452c1.072-0.335,1.965-0.731,2.868-1.267
							c0.878-0.535,1.738-1.199,2.274-2.19c0.264-0.476,0.41-1.115,0.391-1.647c-0.002-0.455-0.02-0.94-0.109-1.469
							c-0.162-1.066-0.797-2.229-1.559-3.1c-1.547-1.773-3.297-3.074-5.023-4.412c-1.718-1.305-3.561-2.635-5.5-3.79
							c-1.94-1.164-3.969-2.21-6.079-3.058c-2.101-0.842-4.278-1.5-6.503-1.76c-1.112-0.121-2.204-0.142-3.332,0.073
							c-1.194,0.243-2.148,0.916-2.782,1.712c-0.642,0.807-1.036,1.719-1.31,2.65c-0.268,0.951-0.427,1.854-0.473,2.934
							c0.101-1.066,0.316-1.945,0.633-2.863c0.326-0.896,0.769-1.76,1.433-2.49c0.658-0.729,1.594-1.301,2.71-1.467
							c1.074-0.148,2.13-0.076,3.194,0.092c2.129,0.352,4.202,1.08,6.188,1.982c1.992,0.905,3.892,1.995,5.693,3.19
							c1.805,1.192,3.469,2.516,5.094,3.876c1.594,1.351,3.229,2.736,4.363,4.217c0.557,0.739,0.87,1.455,0.938,2.21
							c0.039,0.379,0.025,0.776,0.001,1.188c-0.021,0.359-0.117,0.599-0.288,0.879c-0.689,1.065-2.438,1.838-4.003,2.236
							L107.217,124.452z"/>
					</g>
					<g>
						<path opacity="0.54" fill="#582B20" enable-background="new    " d="M99.517,101.383c-3.434-0.775-6.811-1.467-10.186-2.042
							c-0.837-0.135-1.663-0.281-2.574-0.375c-0.885-0.084-1.766-0.107-2.625-0.053c-0.857,0.059-1.693,0.19-2.493,0.416
							c-0.398,0.113-0.788,0.248-1.166,0.415c-0.393,0.18-0.708,0.327-1.146,0.65c0.479-0.278,0.825-0.373,1.246-0.5
							c0.405-0.113,0.816-0.194,1.231-0.252c0.833-0.115,1.684-0.132,2.537-0.08c1.717,0.095,3.424,0.561,5.07,1.051
							c3.337,0.982,6.686,2.076,10.012,3.23L99.517,101.383z"/>
					</g>
					<g opacity="0.24">
						<path opacity="0.54" fill="#582B20" enable-background="new    " d="M96.495,122.436c0.708,0.105,1.706,0.433,2.699,0.699
							c0.511,0.137,1.041,0.273,1.66,0.36c0.312,0.04,0.653,0.071,1.07,0.04c0.403-0.033,1.006-0.17,1.43-0.629
							c0.195-0.238,0.311-0.454,0.367-0.75c0.014-0.065,0.025-0.156,0.029-0.203l0.003-0.082l0.006-0.146l0.002-0.002l-0.032-0.007
							l-0.006-0.001c-0.017-0.004,0.002,0,0.027,0.012c0.02,0.01,0.007-0.002,0.025-0.014c0.043-0.061,0.305-0.213,0.645-0.303
							c0.346-0.098,0.757-0.165,1.188-0.206c0.205-0.039,1.44-0.083,2.441-0.017l0.188-0.348l0.188-0.402
							c0.104-0.278,0.138-0.6,0.112-0.938c-0.021-0.643-0.445-1.549-0.65-1.874c-0.52-0.879-1.177-1.616-1.865-2.295
							c-1.4-1.354-2.92-2.464-4.525-3.515c-1.629-1.045-3.414-1.98-5.378-2.557c-0.975-0.283-1.991-0.469-3.008-0.486
							c-0.506-0.01-1.013,0.021-1.51,0.109c-0.248,0.042-0.495,0.102-0.739,0.178c-0.255,0.084-0.462,0.152-0.78,0.33
							c0.327-0.164,0.544-0.216,0.805-0.283c0.251-0.058,0.501-0.101,0.753-0.127c0.502-0.056,1.008-0.049,1.508-0.01
							c1.004,0.086,1.984,0.33,2.912,0.665c1.866,0.677,3.514,1.687,5.003,2.787c1.467,1.104,2.854,2.283,4.02,3.595
							c0.572,0.652,1.085,1.344,1.425,2.06c0.175,0.372,0.267,0.678,0.291,0.976c0.013,0.149,0.005,0.289-0.028,0.42
							c-0.018,0.064-0.041,0.129-0.076,0.183c-0.076,0.009-0.18-0.015-0.264-0.02c-0.656-0.083-1.822-0.104-2.871,0.107
							c-0.521,0.121-1.084,0.282-1.551,0.741c-0.226,0.228-0.398,0.556-0.434,0.908l-0.014,0.131
							c-0.002-0.059-0.008,0.029-0.011,0.037l-0.012,0.08c-0.005,0.014-0.013-0.006-0.015-0.008
							c-0.053-0.048,0.099,0.03,0.121,0.049c-0.004,0.01-0.076-0.078-0.125-0.146c-0.006-0.005-0.051-0.008-0.102-0.012
							c-0.117-0.01-0.298-0.037-0.492-0.082c-0.395-0.096-0.84-0.241-1.295-0.402c-0.938-0.318-1.809-0.729-3.089-1.01
							L96.495,122.436z"/>
					</g>
					<g opacity="0.44">
						<path opacity="0.54" fill="#582B20" enable-background="new    " d="M99.178,113.564c-1.122-1.078-2.261-2.182-3.962-3.064
							c-0.832-0.424-2.018-0.78-3.1-0.529c-1.062,0.25-1.692,0.893-2.127,1.478c-0.225,0.308-0.393,0.592-0.568,0.933
							c-0.196,0.391-0.333,0.883-0.303,1.438c0.024,0.558,0.24,1.139,0.537,1.604c0.298,0.468,0.655,0.839,1.01,1.151
							c0.72,0.619,1.455,1.042,2.187,1.408c0.748,0.365,1.439,0.653,2.264,0.922c-0.8-0.363-1.452-0.742-2.14-1.188
							c-0.671-0.445-1.326-0.943-1.894-1.566c-0.56-0.6-1.051-1.451-0.959-2.229c0.086-0.779,0.6-1.223,1.031-1.658
							c0.458-0.425,1.04-0.75,1.645-0.767c0.604-0.021,1.173,0.252,1.701,0.622c1.057,0.762,1.945,1.852,2.769,2.941L99.178,113.564
							z"/>
					</g>
				</g>
				
					<linearGradient id="SVGID_4_" gradientUnits="userSpaceOnUse" x1="-622.4336" y1="2950.5625" x2="-622.3506" y2="2953.5483" gradientTransform="matrix(0.8934 -0.4493 0.4493 0.8934 -676.3064 -2783.1604)">
					<stop  offset="0" style="stop-color:#C49A6C"/>
					<stop  offset="0.8215" style="stop-color:#996835"/>
				</linearGradient>
				<path fill="url(#SVGID_4_)" d="M96.806,130.255c0,0-0.989-0.062-2.437,2.547c-1.454,2.603-2.872,4.181-2.872,4.181
					s-2.043-0.123-0.197-3.441c1.834-3.322,1.625-4.912,1.625-4.912L96.806,130.255z"/>
				
					<linearGradient id="SVGID_5_" gradientUnits="userSpaceOnUse" x1="-624.249" y1="2947.1602" x2="-621.1181" y2="2955.3003" gradientTransform="matrix(0.8934 -0.4493 0.4493 0.8934 -676.3064 -2783.1604)">
					<stop  offset="0" style="stop-color:#7F3F00"/>
					<stop  offset="0.8182" style="stop-color:#3F2126"/>
				</linearGradient>
				<path fill="url(#SVGID_5_)" d="M96.411,130.98c0,0-0.594-0.787-2.042,1.82c-1.454,2.602-2.872,4.18-2.872,4.18
					s-0.07-0.711,1.801-4.015c1.861-3.309,2.643-2.84,2.643-2.84L96.411,130.98z"/>
			</g>
		</g>
		
			<radialGradient id="SVGID_6_" cx="-1520.9199" cy="263.9141" r="68.0263" gradientTransform="matrix(-0.8666 -0.4968 0.2135 -0.3679 -1278.6981 -544.0619)" gradientUnits="userSpaceOnUse">
			<stop  offset="0.1779" style="stop-color:#FF8600"/>
			<stop  offset="0.2246" style="stop-color:#FA8302"/>
			<stop  offset="0.2797" style="stop-color:#EC7B06"/>
			<stop  offset="0.339" style="stop-color:#D46D0D"/>
			<stop  offset="0.4013" style="stop-color:#B35917"/>
			<stop  offset="0.466" style="stop-color:#884025"/>
			<stop  offset="0.5318" style="stop-color:#552234"/>
			<stop  offset="0.5337" style="stop-color:#532135"/>
			<stop  offset="1" style="stop-color:#876709"/>
		</radialGradient>
		<polygon fill="url(#SVGID_6_)" points="76.75,91.105 69.522,93.479 72.459,98.77 66.65,101.205 68.522,106.2 68.459,110.468 
			69.239,114.672 68.327,118.132 66.443,122.553 67.04,126.953 73.255,127.816 72.581,133.55 75.845,136.23 80.342,137.1 
			83.651,139.391 86.332,143.139 90.463,144.249 95.348,142.046 98.678,146.695 103.385,146.439 107.771,144.079 107.314,138.514 
			110.796,136.748 113.289,133.943 118.165,133.982 121.607,132.37 122.04,127.025 125.82,125.814 127.898,122.337 131.775,120.152 
			130.943,115.523 133.574,112.161 135.751,108.118 130.691,104.578 131.443,100.555 130.329,96.826 128.404,93.425 125.232,90.852 
			121.251,82.229 118.784,78.888 115.292,74.824 110.861,74.514 106.607,75.315 102.686,73.174 99.686,74.832 95.949,75.886 
			91.707,73.33 88.986,78.143 84.731,77.306 80.538,77.814 76.967,79.877 72.394,81.652 78.045,84.213 77.663,87.894 		"/>
		
			<radialGradient id="SVGID_7_" cx="-1520.7158" cy="554.3037" r="46.8619" gradientTransform="matrix(-0.8666 -0.4968 0.7363 -1.2687 -1614.0188 33.7052)" gradientUnits="userSpaceOnUse">
			<stop  offset="0" style="stop-color:#FFC000"/>
			<stop  offset="0.6626" style="stop-color:#FF8600"/>
		</radialGradient>
		<path fill="url(#SVGID_7_)" d="M74.481,89.613c-0.094-4.309-2.564-3.647-1.671-8.148c0.78-3.93,1.343-2.746,3.156-6.912
			c1.582-3.64,2.778-7.113,6.083-10.418c1.254-0.696-1.406-0.609-0.838-1.883c0.957-3.443,7.631-3.699,9.496-6.041
			c1.881-2.363,1.564-5.966,0.446-10.023c2.131,0.759-0.585,1.838,2.026,2.414c-1.562-4.775,4.259-6.233,6.821-8.978
			c2.73-2.926,5.721-4.265,8.738-6.117c0.554,1.166,0.59,2.801,2.502,3.429c2.053-2.639,2.395-5.286,3.916-8.534
			c1.58-3.374,2.205-8.602,6.298-9.105c-0.726,5.392,2.462,17.143,5.002,21.249c0.614-1.215,0.138-6.032,2.487-5.474
			c4.377,2.183,6.791,3.093,7.678,6.958c0.934,4.066,0.249,5.948-1.479,9.708c2.705,0.337,5.303-2.106,6.061-3.997
			c7.081,4.441-2.277,7.98-3.643,11.366c-1.859,4.625,2.604,8.8,1.82,13.514c1.887,0.124,3.064-2.03,5.096-1.737
			c0.229,5.425,2.922,19.991,2.104,25.058c-0.67,4.159-4.969,8.085-8.2,12.349c-3.373,4.451-4.601,11.195-7.396,13.602
			c-3.498,3.008-10.162-0.098-14.205,1.129c-4.217,1.279-7.963,7.006-12.356,6.451c-4.235-0.531-7.577-5.281-11.587-7.42
			c-4.723-2.518-11.016-2.443-13.559-5.729c-2.697-3.483-4.443-8.514-6.077-13.234C71.586,98.419,74.565,93.507,74.481,89.613z"/>
		<g>
			
				<radialGradient id="SVGID_8_" cx="167.3223" cy="17.1953" r="8.5257" gradientTransform="matrix(1 0 0 -1 -50 61)" gradientUnits="userSpaceOnUse">
				<stop  offset="0" style="stop-color:#FFE600"/>
				<stop  offset="1" style="stop-color:#FFAE00"/>
			</radialGradient>
			<path fill="url(#SVGID_8_)" d="M117.895,55.238c-7.744-4.699-3.922-18.167,1.197-22.867c5.321,5.528-1.271,12.311-2.02,17.955
				C116.799,52.388,118.37,54.208,117.895,55.238z"/>
			
				<radialGradient id="SVGID_9_" cx="175.6875" cy="8.8213" r="9.1243" gradientTransform="matrix(1 0 0 -1 -50 61)" gradientUnits="userSpaceOnUse">
				<stop  offset="0" style="stop-color:#FFE600"/>
				<stop  offset="1" style="stop-color:#FFAE00"/>
			</radialGradient>
			<path fill="url(#SVGID_9_)" d="M126.725,45.081c0.154-0.219,0.149-0.624,0.586-0.521c0.803-0.802,0.985-2.318,1.28-3.702
				c9.272,8.963-3.627,15.796-7.299,22.642C116.604,57.146,122.045,48.686,126.725,45.081z"/>
			
				<radialGradient id="SVGID_10_" cx="156.7295" cy="-26.2944" r="33.8325" gradientTransform="matrix(1 0 0 -1 -50 61)" gradientUnits="userSpaceOnUse">
				<stop  offset="0" style="stop-color:#FFE600"/>
				<stop  offset="1" style="stop-color:#FFAE00"/>
			</radialGradient>
			<path fill="url(#SVGID_10_)" d="M79.334,75.392c-1.247,1.784-2.471,4.211-3.219,6.717c-0.643,2.154,2.986,1.396,2.47,3.894
				c-0.458,2.225-1.335,4.687-1.271,7.221c0.058,2.274,1.972,4.466,2.554,6.937c0.521,2.213,0.328,4.751,1.342,7.086
				c0.989,2.139,1.676,4.346,2.833,6.005c1.35,1.932,3.015,3.568,4.54,4.917c1.741,1.54,4.504,1.146,6.388,2.03
				c2.051,0.966,3.502,3.415,5.613,3.742c2.208,0.343,4.466-0.891,6.607-1.084c2.246-0.205,4.496,0.006,6.516-0.604
				c2.247-0.677,4.923-0.422,6.686-1.347c2.418-1.267,2.678-4.718,3.709-5.859c1.318-1.403,4.463-1.903,6.109-3.979
				c1.387-1.743,2.686-3.851,3.893-5.92c1.182-2.022,2.486-4.207,3.144-6.415c0.674-2.264-0.817-4.773-1.071-7.093
				c0.119-1.046,1.188,2.466,0.402,1.502c-0.862,2.541-4.541,1.533-7.612,0.769c-2.797-0.698-5.43-2.428-7.165-1.187
				c-0.053-2.001-0.527-7.014,0.738-8.112c0.345,0.199,0.257-0.423,0.346-0.602c2.555-1.06,5.92-0.447,7.898-1.652
				c2.258-1.377,1.552-6.017,0.953-9.134c-0.51-2.676-2.594-5.003-0.623-8.906c0.603-0.899,0.848,0.093,1.205-1.085
				c-2.443,0.234-4.18-1.551-5.92-1.034c-2.154,0.642-3.332,2.542-4.287,4.726c-1.051,2.406,1.336,6.384,0.08,8.695
				c-1.127,2.074-5.936,2.243-7.4,3.465c-0.055-3.285-3.457-6.313-2.676-9.386c0.521-2.051,4.936-2.672,5.574-4.573
				c0.775-2.313-0.28-4.891-1.888-6.796c-1.375-1.629-3.196-3.201-4.737-4.89c-0.14-0.335-1.727,0.183-2.213-0.015
				c0.021-0.783,0.502-1.871,0.983-2.838c-3.244,1.409-3.586,3.885-2.907,6.356c0.706,2.573,1.838,4.998,1.2,6.986
				c-0.604,1.889-3.604,2.822-5.424,4.921c-1.529,1.768,0.131,3.246,1.269,6.492c-0.188,0.424,0.139,0.91,0.623,1.155
				c-0.378,1.917-1.951,2.885-2.852,4.042c0.931-1.739-0.165-3.853-1.049-5.929c-0.857-2.016-3.178-2.184-3.147-3.98
				c0.051-2.946,3.438-4.919-1.012-7.625c-0.265,2.875-3.422,1.537-4.635,3.329c-0.43,0.038-0.34,0.636-0.514,0.968
				c-2.768,1.871-3.458,4.446-2.88,7.348c0.581,2.922,2.465,3.62,1.547,5.849c-1.25-3.025-6.53-1.855-6.513-5.354
				C81.731,76.094,80.932,73.104,79.334,75.392z"/>
			
				<radialGradient id="SVGID_11_" cx="153.2305" cy="8.1162" r="6.4329" gradientTransform="matrix(1 0 0 -1 -50 61)" gradientUnits="userSpaceOnUse">
				<stop  offset="0" style="stop-color:#FFE600"/>
				<stop  offset="1" style="stop-color:#FFAE00"/>
			</radialGradient>
			<path fill="url(#SVGID_11_)" d="M101.867,61.529c1.634-5.163-6.138-15.043,3.291-17.29
				C102.654,48.447,110.552,59.235,101.867,61.529z"/>
		</g>
		
			<radialGradient id="SVGID_12_" cx="158.332" cy="-36.2812" r="24.9736" gradientTransform="matrix(1 0 0 -1 -50 61)" gradientUnits="userSpaceOnUse">
			<stop  offset="0" style="stop-color:#FFFF9D"/>
			<stop  offset="1" style="stop-color:#FFE300"/>
		</radialGradient>
		<path fill="url(#SVGID_12_)" d="M85.148,106.805c0,0,1.375,10.411,13.82,12.631c12.445,2.219,15.212,0.129,21.107-4.446
			c5.896-4.577,9.924-6.306,10.728-9.431c0.805-3.127,4.293-9.103,4.293-9.103s-2.082,1.838-6.242,0.554
			c-4.162-1.285-7.513-3.828-9.233-1.765c-1.724,2.062-3.276,3.455-6.076,1.208c-2.802-2.248,0.132-8.381,4.394-11.641
			c4.26-3.261,5.936-5.912,5.936-5.912s-4.027,5.695-8.977,4.096c-4.949-1.6-4.778,6.801-4.778,6.801s2.726-7.559,0.046-13.388
			c-3.023-6.574-3.027,3.787-3.665,4.633c-2.574,3.424-8.014,6.129-10.043,1.637c-2.031-4.49,2.131,6.337-1.96,2.852
			c-4.092-3.485-9.849-8.425-9.849-8.425s-4.062,2.887-2.852,13.824C83.003,101.868,85.148,106.805,85.148,106.805z"/>
		
			<radialGradient id="SVGID_13_" cx="155.0117" cy="-41.0479" r="15.7333" gradientTransform="matrix(1 0 0 -1 -50 61)" gradientUnits="userSpaceOnUse">
			<stop  offset="0" style="stop-color:#FFFFD7"/>
			<stop  offset="0.2089" style="stop-color:#FFFFD4"/>
			<stop  offset="0.3515" style="stop-color:#FFFDCB"/>
			<stop  offset="0.4743" style="stop-color:#FFFBBC"/>
			<stop  offset="0.5858" style="stop-color:#FFF9A6"/>
			<stop  offset="0.6899" style="stop-color:#FFF58A"/>
			<stop  offset="0.7884" style="stop-color:#FFF168"/>
			<stop  offset="0.8824" style="stop-color:#FFEB3F"/>
			<stop  offset="0.9708" style="stop-color:#FFE511"/>
			<stop  offset="1" style="stop-color:#FFE300"/>
		</radialGradient>
		<path fill="url(#SVGID_13_)" d="M123.25,107.823c0,0-6.832,5.028-12.238,6.137c-5.41,1.106-16.062,2.62-20.155-6.615
			c-4.095-9.238-4.613-17.567-3.696-18.042c0,0,4.682,4.854,4.233,7.654c-0.444,2.799,3.994,6.873,5.504,6.139
			c1.189-0.58,0.132-1.762,0.518-2.265c0.605-0.794,2.083-1.416,2.083-1.416s-0.832,1.249,0.315,3.138
			c0.894,1.475,2.571,3.27,4.422,2.549c2.57-1,6.815,0.03,6.815,0.03l-2.797,2.316c3.905,0.042,5.399,1.95,9.036,0.629
			C121.159,106.668,123.25,107.823,123.25,107.823z"/>
		
			<radialGradient id="SVGID_14_" cx="153.1689" cy="-32.3809" r="4.187" gradientTransform="matrix(1 0 0 -1 -50 61)" gradientUnits="userSpaceOnUse">
			<stop  offset="0" style="stop-color:#FFFFD7"/>
			<stop  offset="0.2089" style="stop-color:#FFFFD4"/>
			<stop  offset="0.3515" style="stop-color:#FFFDCB"/>
			<stop  offset="0.4743" style="stop-color:#FFFBBC"/>
			<stop  offset="0.5858" style="stop-color:#FFF9A6"/>
			<stop  offset="0.6899" style="stop-color:#FFF58A"/>
			<stop  offset="0.7884" style="stop-color:#FFF168"/>
			<stop  offset="0.8824" style="stop-color:#FFEB3F"/>
			<stop  offset="0.9708" style="stop-color:#FFE511"/>
			<stop  offset="1" style="stop-color:#FFE300"/>
		</radialGradient>
		<path fill="url(#SVGID_14_)" d="M101.085,98.919c0,0,2.964,0.167,3.899-1.547c0.941-1.711-1.207-8.661,0.078-9.413
			c1.283-0.751-4.356,2.108-3.84,5.668C101.59,96.141,102.337,98.754,101.085,98.919z"/>
		
			<radialGradient id="SVGID_15_" cx="162.3193" cy="-0.9634" r="2.9784" gradientTransform="matrix(1 0 0 -1 -50 61)" gradientUnits="userSpaceOnUse">
			<stop  offset="0" style="stop-color:#FFFFD7"/>
			<stop  offset="0.2089" style="stop-color:#FFFFD4"/>
			<stop  offset="0.3515" style="stop-color:#FFFDCB"/>
			<stop  offset="0.4743" style="stop-color:#FFFBBC"/>
			<stop  offset="0.5858" style="stop-color:#FFF9A6"/>
			<stop  offset="0.6899" style="stop-color:#FFF58A"/>
			<stop  offset="0.7884" style="stop-color:#FFF168"/>
			<stop  offset="0.8824" style="stop-color:#FFEB3F"/>
			<stop  offset="0.9708" style="stop-color:#FFE511"/>
			<stop  offset="1" style="stop-color:#FFE300"/>
		</radialGradient>
		<path fill="url(#SVGID_15_)" d="M111.775,65.841c0,0,1.897-0.438,2.17-1.691c0.271-1.253-2.377-5.242-1.707-5.953
			c0.669-0.71-2.354,2.13-1.363,4.282C111.575,63.998,112.533,65.508,111.775,65.841z"/>
		
			<radialGradient id="SVGID_16_" cx="166.3193" cy="-38.3813" r="3.7194" gradientTransform="matrix(1 0 0 -1 -50 61)" gradientUnits="userSpaceOnUse">
			<stop  offset="0" style="stop-color:#FFFFD7"/>
			<stop  offset="0.2089" style="stop-color:#FFFFD4"/>
			<stop  offset="0.3515" style="stop-color:#FFFDCB"/>
			<stop  offset="0.4743" style="stop-color:#FFFBBC"/>
			<stop  offset="0.5858" style="stop-color:#FFF9A6"/>
			<stop  offset="0.6899" style="stop-color:#FFF58A"/>
			<stop  offset="0.7884" style="stop-color:#FFF168"/>
			<stop  offset="0.8824" style="stop-color:#FFEB3F"/>
			<stop  offset="0.9708" style="stop-color:#FFE511"/>
			<stop  offset="1" style="stop-color:#FFE300"/>
		</radialGradient>
		<path fill="url(#SVGID_16_)" d="M113.404,103.5c0,0,2.955-1.593,1.834-4.132c-1.49-3.382,3.996-4.365,3.996-4.365
			s-1.392,0.788-0.563,5.264C119.111,102.646,119.863,104.454,113.404,103.5z"/>
		
			<radialGradient id="SVGID_17_" cx="135.25" cy="-21.2109" r="3.0007" gradientTransform="matrix(1 0 0 -1 -50 61)" gradientUnits="userSpaceOnUse">
			<stop  offset="0" style="stop-color:#FFFFD7"/>
			<stop  offset="0.2089" style="stop-color:#FFFFD4"/>
			<stop  offset="0.3515" style="stop-color:#FFFDCB"/>
			<stop  offset="0.4743" style="stop-color:#FFFBBC"/>
			<stop  offset="0.5858" style="stop-color:#FFF9A6"/>
			<stop  offset="0.6899" style="stop-color:#FFF58A"/>
			<stop  offset="0.7884" style="stop-color:#FFF168"/>
			<stop  offset="0.8824" style="stop-color:#FFEB3F"/>
			<stop  offset="0.9708" style="stop-color:#FFE511"/>
			<stop  offset="1" style="stop-color:#FFE300"/>
		</radialGradient>
		<path fill="url(#SVGID_17_)" d="M86.782,85.746c0,0-4.778-2.104-3.729-4.347c1.047-2.246,2.158-2.723,2.158-2.723
			S89.292,84.36,86.782,85.746z"/>
		
			<radialGradient id="SVGID_18_" cx="177.8281" cy="-40.5469" r="2.8938" gradientTransform="matrix(1 0 0 -1 -50 61)" gradientUnits="userSpaceOnUse">
			<stop  offset="0" style="stop-color:#FFFFD7"/>
			<stop  offset="0.2089" style="stop-color:#FFFFD4"/>
			<stop  offset="0.3515" style="stop-color:#FFFDCB"/>
			<stop  offset="0.4743" style="stop-color:#FFFBBC"/>
			<stop  offset="0.5858" style="stop-color:#FFF9A6"/>
			<stop  offset="0.6899" style="stop-color:#FFF58A"/>
			<stop  offset="0.7884" style="stop-color:#FFF168"/>
			<stop  offset="0.8824" style="stop-color:#FFEB3F"/>
			<stop  offset="0.9708" style="stop-color:#FFE511"/>
			<stop  offset="1" style="stop-color:#FFE300"/>
		</radialGradient>
		<path fill="url(#SVGID_18_)" d="M125.885,105.148c0,0,4.545-1.39,3.807-7.203c0,0-2.364,1.397-2.979,2.774
			C126.104,102.102,125.885,105.148,125.885,105.148z"/>
		<polygon fill="#BDAC95" points="104.762,136.41 114.788,134.771 112.797,133.368 101.225,133.891 90.258,128.359 77.254,122.254 
			68.521,111.255 69.286,110.292 69.192,107.18 66.171,111.021 75.292,122.979 88.42,131.984 		"/>
		<polygon fill="#BDAC95" points="105.757,139.334 109.986,140.818 112.927,137.062 109.964,137.283 111.979,137.697 
			109.734,137.789 108.574,136.852 90.236,130.631 77.484,120.121 68.131,106.895 68.032,106.63 67.568,104.219 65.392,106.453 
			74.992,121.215 89.09,132.341 		"/>
		<path fill="#BDAC95" d="M101.609,137.26l-1.688-5.41l-0.35,0.036l1.779-1.686l6.133-0.773l-0.67,3.98l-4.826,3.892L101.609,137.26
			z M102.391,132.266l0.215,2.139l1.971-2.547l0.346-0.389L102.391,132.266z"/>
		<polygon fill="#BDAC95" points="101.006,156.539 102.4,154.327 102.529,154.787 105.137,145.203 103.193,131.572 102.088,133.922 
			102.574,133.121 102.186,133.965 102.348,143.906 		"/>
		<polygon fill="#BDAC95" points="95.423,143.93 97.938,143.993 102.828,133.331 100.908,131.545 		"/>
	</g>
</g>
<g id="outline_x5F_white">
	<g>
		<g>
			<path fill="#FFFFFF" d="M121.454,19.297c-0.726,5.392,2.462,17.143,5.002,21.249c0.582-1.149,0.187-5.519,2.129-5.519
				c0.11,0,0.229,0.015,0.358,0.045c4.377,2.183,6.791,3.093,7.678,6.958c0.934,4.066,0.249,5.948-1.479,9.708
				c0.17,0.021,0.342,0.031,0.51,0.031c2.517,0,4.841-2.257,5.551-4.028c7.081,4.441-2.277,7.98-3.643,11.366
				c-1.859,4.625,2.604,8.8,1.82,13.514c0.053,0.003,0.105,0.005,0.157,0.005c1.679,0,2.81-1.77,4.56-1.77
				c0.123,0,0.25,0.009,0.379,0.027c0.229,5.425,2.922,19.991,2.104,25.058c-0.67,4.159-4.969,8.086-8.2,12.349
				c-3.373,4.451-4.601,11.196-7.396,13.601c-0.989,0.853-2.237,1.203-3.604,1.312l-1.56,2.611l-3.781,1.211l-0.432,5.344
				l-3.443,1.613l-4.545-0.035l1.168,0.824l-2.614,0.427l-1.378,1.549l-1.412,0.716c-0.007,0.007-0.016,0.016-0.021,0.023
				l0.373,0.302l2.244-0.093l-2.016-0.413l2.963-0.222l-2.939,3.756l-2.557-0.896l0.342,4.158l-2.729,1.468l-2.513,9.24l-0.131-0.46
				l-1.395,2.212l1.062-10.028l-1.442,0.08c-1.457,1.459-3.034,2.999-4.774,4.631c-3.03,2.979-5.155,6.258-6.913,9.441
				c0.352-0.316,0.702-0.643,1.058-0.946c-0.475,0.521-0.949,1.052-1.417,1.591c-3.016,5.592-4.981,10.799-8.769,13.42
				c0,0-0.096-0.072-0.249-0.148c-0.027,0.031-0.051,0.064-0.077,0.099l-0.412-0.259c-0.123-0.023-0.252-0.046-0.4-0.047
				c-0.428,0-1.977,2.417-2.566,2.686c-1.298,0.611-2.946,1.35-4.586,1.938c-0.066,0.122-0.133,0.246-0.187,0.359l-0.593-0.092
				c-1.388,0.456-2.73,0.771-3.803,0.771c-0.489,0-0.922-0.065-1.279-0.213c-0.536-0.221-1.331-0.487-2.237-0.801
				c-0.181-0.062,0.473-2.057,0.282-2.123c-0.015-0.006-0.031-0.008-0.048-0.008c-0.421,0-1.5,1.52-1.936,1.52
				c-0.019,0-0.037-0.003-0.054-0.01c-2.438-0.903-5.025-2.092-5.658-3.641c-0.983-2.318-3.243-6.691-3.161-9.729
				c-0.077,0.257-0.164,0.5-0.235,0.766c0.097-0.584,0.218-1.143,0.34-1.702c0.002-0.005,0.002-0.012,0.003-0.018
				c0.687-3.011,0.708-9.874,2.581-13.953c1.493-3.235,5.07-10.26,7.143-16.288l-0.605-0.203c0.593-1.48,1.206-2.953,1.889-4.371
				c0.797-4.256,2.573-10.57,4.157-15.687l-1.948-2.556l1.199-1.524l-1.978-3.042l2.176-2.234l0.464,2.411l0.099,0.265l0.374,0.526
				l0.018-1.221l-1.872-4.995l5.809-2.436l-2.937-5.291l4.728-1.552c0.152-0.802,0.247-1.576,0.231-2.313
				c-0.091-4.188-2.419-3.693-1.729-7.798l-0.359-0.163l0.412-0.16c0.001-0.01,0.003-0.017,0.005-0.027
				c0.78-3.93,1.343-2.746,3.156-6.912c1.582-3.64,2.778-7.113,6.083-10.418c1.254-0.696-1.406-0.609-0.838-1.883
				c0.957-3.443,7.631-3.699,9.496-6.041c1.881-2.363,1.564-5.966,0.446-10.023c2.131,0.759-0.585,1.838,2.026,2.414
				c-1.562-4.775,4.259-6.233,6.821-8.978c2.73-2.926,5.721-4.265,8.738-6.117c0.554,1.166,0.59,2.801,2.502,3.429
				c2.053-2.639,2.395-5.286,3.916-8.534C116.736,25.028,117.361,19.8,121.454,19.297 M121.455,7.297
				c-0.487,0-0.977,0.029-1.465,0.09c-10.481,1.288-13.848,10.786-15.115,14.361c-0.052,0.146-0.105,0.299-0.161,0.453
				c-0.78,0.278-1.536,0.638-2.254,1.079c-0.578,0.354-1.155,0.687-1.729,1.018c-2.682,1.547-6.002,3.464-9.273,6.895
				c-0.232,0.171-0.664,0.46-0.993,0.681c-1.273,0.854-2.89,1.938-4.45,3.47c-1.093,0.518-2.116,1.205-3.029,2.054
				c-3.043,2.828-4.391,7.008-3.618,11.044c-3.451,1.596-7.779,4.439-9.554,10.049c-0.278,0.824-0.474,1.682-0.582,2.556
				c-1.701,2.67-2.783,5.225-3.727,7.452c-0.178,0.421-0.358,0.845-0.543,1.271c-0.326,0.748-0.438,0.916-0.686,1.284
				c-0.996,1.479-1.776,2.886-2.416,4.853c-0.89,1.631-1.407,3.478-1.46,5.414c-0.026,0.957,0.062,1.897,0.253,2.807
				c0.021,0.399,0.056,0.786,0.102,1.16c-1.023,1.095-1.844,2.385-2.403,3.814c-0.545,1.391-0.819,2.853-0.827,4.312
				c-1.82,2.136-2.85,4.865-2.874,7.693c-1.482,2.979-1.669,6.473-0.473,9.612c-0.041,1.615,0.244,3.237,0.855,4.763
				c-0.908,3.177-1.877,6.813-2.554,10.025c-0.585,1.305-1.099,2.559-1.542,3.662c-0.523,1.307-0.807,2.68-0.854,4.059
				c-1.349,3.297-3,6.744-4.195,9.242c-0.488,1.02-0.915,1.911-1.245,2.627c-2.071,4.512-2.617,9.564-3.056,13.627
				c-0.104,0.957-0.245,2.269-0.334,2.707c-0.013,0.061-0.026,0.119-0.039,0.18c-0.139,0.642-0.3,1.389-0.438,2.228
				c-0.379,2.288-0.083,4.538,0.747,6.541c0.759,3.091,2.01,5.871,2.957,7.976c0.176,0.392,0.338,0.75,0.472,1.062
				c2.769,6.609,9.612,9.146,12.544,10.234c0.365,0.137,0.736,0.254,1.11,0.354c0.308,0.139,0.608,0.258,0.897,0.358l0,0
				l0.446,0.153c0.412,0.142,0.977,0.336,1.162,0.408c1.764,0.73,3.738,1.109,5.829,1.109c1.641,0,3.385-0.233,5.286-0.712
				c2.061-0.152,4.029-0.837,5.722-1.953c1.021-0.425,2.1-0.904,3.254-1.447c1.253-0.587,2.274-1.319,3.12-2.073
				c0.805-0.326,1.583-0.744,2.32-1.252c5.477-3.789,8.315-9.395,10.82-14.339c0.332-0.655,0.671-1.325,1.015-1.987
				c0.841,0.182,1.689,0.271,2.531,0.271c3.813,0,7.487-1.824,9.774-5.037c1.562-1.478,2.736-3.383,3.33-5.567l1.238-4.549
				c1.433-1.166,2.562-2.636,3.322-4.283c0.268-0.281,0.523-0.578,0.768-0.89l2.133-2.724c0.576-0.17,1.14-0.385,1.687-0.641
				l3.443-1.613c3.315-1.555,5.708-4.518,6.563-8.008c0.682-0.539,1.303-1.15,1.855-1.826c1.335-0.642,2.568-1.447,3.695-2.416
				c3.586-3.086,5.317-7.178,6.847-10.789c0.737-1.745,1.575-3.725,2.284-4.658c0.656-0.868,1.445-1.807,2.281-2.801
				c3.198-3.805,7.179-8.538,8.201-14.888c0.743-4.606,0.039-10.885-1.121-19.938c-0.384-2.995-0.779-6.091-0.842-7.536
				c-0.152-3.63-1.92-6.867-4.633-8.974c2.252-2.688,4.364-6.48,3.939-11.477c-0.291-3.416-1.898-8.269-7.877-12.148
				c-2.453-7.946-8.562-10.959-12.687-12.994l-0.912-0.452c-0.217-0.108-0.437-0.209-0.659-0.304
				c-0.225-1.312-0.341-2.448-0.285-3.184c0.479-3.668-0.764-7.353-3.365-9.985C127.721,8.566,124.641,7.297,121.455,7.297
				L121.455,7.297z"/>
		</g>
	</g>
</g>
<g id="outline_x5F_black">
	<g>
		<path d="M121.454,19.297c-0.726,5.392,2.462,17.143,5.002,21.249c0.582-1.149,0.187-5.519,2.129-5.519
			c0.11,0,0.229,0.015,0.358,0.045c4.377,2.183,6.791,3.093,7.678,6.958c0.934,4.066,0.249,5.948-1.479,9.708
			c0.17,0.021,0.342,0.032,0.51,0.032c2.517,0,4.841-2.257,5.551-4.029c7.081,4.441-2.277,7.98-3.643,11.366
			c-1.859,4.625,2.604,8.8,1.82,13.514c0.053,0.003,0.105,0.005,0.157,0.005c1.679,0,2.81-1.77,4.56-1.77
			c0.123,0,0.25,0.009,0.379,0.027c0.229,5.425,2.922,19.991,2.104,25.058c-0.67,4.159-4.969,8.086-8.2,12.349
			c-3.373,4.451-4.601,11.196-7.396,13.601c-0.989,0.853-2.237,1.203-3.604,1.312l-1.56,2.611l-3.781,1.211l-0.432,5.344
			l-3.443,1.613l-4.545-0.035l1.168,0.824l-2.614,0.427l-1.378,1.549l-1.412,0.716c-0.007,0.007-0.016,0.016-0.021,0.023
			l0.373,0.302l2.244-0.093l-2.016-0.413l2.963-0.222l-2.939,3.756l-2.557-0.896l0.342,4.158l-2.729,1.468l-2.513,9.24l-0.131-0.46
			l-1.395,2.212l1.062-10.028l-1.442,0.08c-1.457,1.459-3.034,2.999-4.774,4.631c-3.03,2.979-5.155,6.258-6.913,9.441
			c0.352-0.316,0.702-0.643,1.058-0.946c-0.475,0.521-0.949,1.052-1.417,1.591c-3.016,5.592-4.981,10.799-8.769,13.42
			c0,0-0.096-0.072-0.249-0.148c-0.027,0.031-0.051,0.064-0.077,0.099l-0.412-0.259c-0.123-0.023-0.252-0.046-0.4-0.047
			c-0.428,0-1.977,2.417-2.566,2.686c-1.298,0.611-2.946,1.35-4.586,1.938c-0.066,0.122-0.133,0.246-0.187,0.359l-0.593-0.092
			c-1.388,0.456-2.73,0.771-3.803,0.771c-0.489,0-0.922-0.065-1.279-0.213c-0.536-0.221-1.331-0.487-2.237-0.801
			c-0.181-0.062,0.473-2.057,0.282-2.123c-0.015-0.006-0.031-0.008-0.048-0.008c-0.421,0-1.5,1.52-1.936,1.52
			c-0.019,0-0.037-0.003-0.054-0.01c-2.438-0.903-5.025-2.092-5.658-3.641c-0.983-2.318-3.243-6.691-3.161-9.729
			c-0.077,0.257-0.164,0.5-0.235,0.766c0.097-0.584,0.218-1.143,0.34-1.702c0.002-0.005,0.002-0.012,0.003-0.018
			c0.687-3.011,0.708-9.874,2.581-13.953c1.493-3.235,5.07-10.26,7.143-16.288l-0.605-0.203c0.593-1.48,1.206-2.953,1.889-4.371
			c0.797-4.256,2.573-10.57,4.157-15.687l-1.948-2.556l1.199-1.524l-1.978-3.042l2.176-2.234l0.464,2.411l0.099,0.265l0.374,0.526
			l0.018-1.221l-1.872-4.995l5.809-2.436l-2.937-5.291l4.728-1.552c0.152-0.802,0.247-1.576,0.231-2.313
			c-0.091-4.188-2.419-3.693-1.729-7.798l-0.359-0.163l0.412-0.16c0.001-0.01,0.003-0.017,0.005-0.027
			c0.78-3.93,1.343-2.746,3.156-6.912c1.582-3.64,2.778-7.113,6.083-10.418c1.254-0.696-1.406-0.609-0.838-1.883
			c0.957-3.443,7.631-3.699,9.496-6.041c1.881-2.363,1.564-5.966,0.446-10.023c2.131,0.759-0.585,1.838,2.026,2.414
			c-1.562-4.775,4.259-6.233,6.821-8.978c2.73-2.926,5.721-4.265,8.738-6.117c0.554,1.166,0.59,2.801,2.502,3.429
			c2.053-2.639,2.395-5.286,3.916-8.534C116.736,25.028,117.361,19.8,121.454,19.297 M121.454,13.297
			c-0.243,0-0.487,0.015-0.731,0.045c-6.799,0.835-9.006,7.064-10.191,10.411c-0.285,0.804-0.555,1.563-0.809,2.104
			c-0.27,0.577-0.506,1.129-0.719,1.656c-0.088-0.004-0.177-0.006-0.266-0.006c-1.098,0-2.187,0.301-3.139,0.887
			c-0.627,0.384-1.252,0.744-1.871,1.102c-2.522,1.456-5.382,3.105-8.116,6.035c-0.286,0.307-1.13,0.872-1.808,1.327
			c-1.106,0.742-2.833,1.899-4.285,3.557c-0.899,0.254-1.742,0.719-2.452,1.378c-1.639,1.523-2.294,3.832-1.7,5.99
			c0.722,2.622,0.729,3.9,0.664,4.44c-0.458,0.2-1.098,0.44-1.571,0.618c-2.988,1.122-7.473,2.806-8.943,7.507
			c-0.289,0.832-0.425,1.743-0.369,2.665c-1.948,2.699-3.084,5.381-4.121,7.828c-0.186,0.438-0.372,0.878-0.564,1.322
			c-0.545,1.252-0.869,1.733-1.211,2.242c-0.831,1.235-1.394,2.274-1.869,3.947c-0.602,0.914-0.956,1.994-0.987,3.135
			c-0.018,0.623,0.062,1.233,0.228,1.813c0.013,1.895,0.472,3.303,1.033,4.477l-0.006,0.002c-1.7,0.558-3.062,1.846-3.715,3.512
			c-0.576,1.469-0.546,3.096,0.063,4.533c-2.52,1.238-3.828,4.059-3.189,6.757c-1.684,1.989-1.896,4.862-0.484,7.087
			c-0.393,1.699-0.036,3.535,1.075,4.992l0.087,0.113c-1.045,3.525-2.459,8.568-3.271,12.606c-0.653,1.412-1.227,2.81-1.712,4.021
			c-0.373,0.931-0.503,1.929-0.393,2.903c-1.498,3.827-3.444,7.895-4.814,10.755c-0.474,0.99-0.888,1.855-1.209,2.551
			c-1.658,3.613-2.146,8.129-2.538,11.757c-0.144,1.333-0.292,2.711-0.444,3.376c-0.009,0.041-0.019,0.083-0.027,0.124
			c-0.131,0.603-0.27,1.247-0.386,1.95c-0.212,1.279-0.001,2.537,0.532,3.623c0.597,2.724,1.781,5.356,2.724,7.451
			c0.196,0.438,0.377,0.838,0.526,1.188c1.548,3.719,5.469,5.599,9.105,6.946c0.329,0.121,0.666,0.216,1.008,0.279
			c0.286,0.154,0.579,0.283,0.873,0.387l0,0h0.003c0.003,0.002,0.007,0.002,0.011,0.004l0.426,0.146
			c0.584,0.201,1.188,0.409,1.472,0.526c1.063,0.44,2.266,0.665,3.564,0.665c1.296,0,2.741-0.223,4.386-0.68
			c0.004,0,0.008,0,0.013,0c1.358,0,2.659-0.463,3.702-1.279c1.109-0.444,2.303-0.969,3.609-1.584
			c1.03-0.48,1.797-1.165,2.467-1.907c0.741-0.165,1.459-0.474,2.111-0.923c4.226-2.924,6.487-7.389,8.882-12.115
			c0.465-0.919,0.944-1.863,1.441-2.804c0.294-0.332,0.59-0.661,0.886-0.986c0.82-0.901,1.316-1.987,1.491-3.112
			c0.101-0.154,0.204-0.312,0.309-0.469c0.696,0.915,1.658,1.635,2.806,2.032c0.646,0.226,1.311,0.333,1.966,0.333
			c2.016,0,3.953-1.02,5.076-2.801l0.141-0.223c0.996-0.777,1.75-1.869,2.1-3.156l1.836-6.752l0.458-0.246
			c1.481-0.797,2.53-2.159,2.952-3.729c0.424-0.314,0.81-0.689,1.146-1.117l2.938-3.757c0.195-0.248,0.367-0.508,0.518-0.776
			c0.879,0,1.747-0.194,2.543-0.566l3.443-1.613c1.949-0.914,3.261-2.804,3.435-4.949l0.108-1.34
			c1.371-0.451,2.533-1.382,3.275-2.623l0.219-0.367c1.397-0.467,2.639-1.164,3.707-2.086c2.523-2.17,3.842-5.283,5.236-8.58
			c0.918-2.168,1.867-4.412,3.027-5.942c0.75-0.989,1.586-1.983,2.473-3.037c3.004-3.574,6.11-7.271,6.869-11.982
			c0.614-3.802-0.089-9.95-1.148-18.221c-0.418-3.263-0.812-6.345-0.885-8.044c-0.121-2.885-2.281-5.273-5.14-5.685
			c-0.408-0.059-0.823-0.089-1.233-0.089c-0.002,0-0.004,0-0.006,0c-0.059-0.164-0.115-0.324-0.172-0.48
			c-0.326-0.904-0.795-2.205-0.818-2.801c0.334-0.342,0.896-0.845,1.299-1.206c2.309-2.064,5.797-5.184,5.394-9.935
			c-0.261-3.075-2.079-5.691-5.401-7.776c-0.521-0.327-1.084-0.568-1.668-0.721c-0.071-0.404-0.156-0.82-0.256-1.25
			c-1.457-6.351-5.756-8.471-9.912-10.522l-0.937-0.463c-0.411-0.205-0.845-0.362-1.292-0.468c-0.578-0.137-1.165-0.207-1.743-0.207
			c-0.006,0-0.011,0-0.016,0c-0.867-3.479-1.423-7.043-1.169-8.931c0.248-1.843-0.373-3.696-1.68-5.018
			C124.587,13.932,123.047,13.297,121.454,13.297L121.454,13.297z"/>
	</g>
</g>
</svg>
