<?xml version="1.0" encoding="utf-8"?>
<!-- Generator: Adobe Illustrator 15.0.0, SVG Export Plug-In . SVG Version: 6.00 Build 0)  -->
<!DOCTYPE svg PUBLIC "-//W3C//DTD SVG 1.1//EN" "http://www.w3.org/Graphics/SVG/1.1/DTD/svg11.dtd">
<svg version="1.1" xmlns="http://www.w3.org/2000/svg" xmlns:xlink="http://www.w3.org/1999/xlink" x="0px" y="0px" width="200px"
	 height="200px" viewBox="0 0 200 200" enable-background="new 0 0 200 200" xml:space="preserve">
<g id="outline_x5F_white">
	<path fill="#FFFFFF" d="M96.565,29.92c10.578,0,21.205,2.178,30.426,6.53c31.391,14.816,28.268,29.031,32.573,44.667
		c0,0,1.961,0.979,3.705,6.668c1.965,6.399,1.058,11.259,1.058,11.259c0.813,1.763,3.06,3.088,3.743,4.908
		c7.568,20.097-10.2,64.498-62.488,66.055c-1.604,0.048-3.171,0.071-4.715,0.071c-61.712,0-76.921-37.504-70.34-60.075
		c1.753-6.013,4.033-6.825,5.115-7.28c0,0-1.573-5.202,0.859-13.264c1.733-5.746,4.004-7.7,4.004-7.7
		C37.338,47.182,66.774,29.92,96.565,29.92 M96.565,17.92c-21.973,0-41.743,7.855-54.242,21.55
		C32.75,49.96,27.944,63.285,28.288,78.234c-1.143,1.987-2.305,4.538-3.277,7.761c-1.374,4.556-1.831,8.56-1.863,11.79
		c-1.74,2.364-3.103,5.295-4.143,8.859c-4.467,15.322-1.018,32.627,9.229,46.287c9.974,13.297,30.67,29.146,72.631,29.146
		c1.662,0,3.369-0.026,5.072-0.076c37.567-1.119,56.586-21.292,64.578-33.218c10.603-15.82,14.049-35.077,8.783-49.062
		c-0.746-1.979-1.796-3.545-2.779-4.755c-0.084-2.904-0.521-6.601-1.779-10.705c-1.207-3.937-2.706-6.836-4.264-8.971
		c-0.324-1.438-0.615-2.917-0.916-4.448c-2.664-13.541-5.979-30.392-37.449-45.246C121.471,20.576,109.177,17.92,96.565,17.92
		L96.565,17.92z"/>
</g>
<g id="outline_x5F_black">
	<path d="M96.565,29.92c10.578,0,21.205,2.178,30.426,6.53c31.391,14.816,28.268,29.031,32.573,44.667c0,0,1.961,0.979,3.705,6.668
		c1.965,6.399,1.058,11.259,1.058,11.259c0.813,1.763,3.06,3.088,3.743,4.908c7.568,20.097-10.2,64.498-62.488,66.055
		c-1.604,0.048-3.171,0.071-4.715,0.071c-61.712,0-76.921-37.504-70.34-60.075c1.753-6.013,4.033-6.825,5.115-7.28
		c0,0-1.573-5.202,0.859-13.264c1.733-5.746,4.004-7.7,4.004-7.7C37.338,47.182,66.774,29.92,96.565,29.92 M96.565,23.92
		c-20.291,0-38.445,7.142-49.81,19.595c-8.865,9.715-13.128,22.23-12.402,36.319c-1.143,1.682-2.489,4.221-3.597,7.894
		c-1.524,5.053-1.732,9.255-1.56,12.193c-1.637,1.673-3.218,4.251-4.429,8.403c-3.942,13.52-0.851,28.85,8.269,41.008
		c9.152,12.202,28.35,26.747,67.832,26.747c1.604,0,3.25-0.024,4.894-0.074c34.883-1.038,52.424-19.593,59.772-30.56
		c9.558-14.262,12.758-31.379,8.153-43.606c-0.783-2.076-2.153-3.521-3.174-4.582c0.104-2.558-0.076-6.573-1.508-11.231
		c-1.22-3.981-2.681-6.507-4.072-8.107c-0.476-1.938-0.857-3.882-1.258-5.915c-1.316-6.692-2.679-13.613-7.513-20.7
		c-5.298-7.766-13.754-14.21-26.61-20.278C119.704,26.377,108.298,23.92,96.565,23.92L96.565,23.92z"/>
</g>
<g id="icon">
	<g id="Layer_2">
	</g>
	<g>
		
			<radialGradient id="SVGID_1_" cx="149.4248" cy="-38.9995" r="69.2376" gradientTransform="matrix(1 0 0 -1 -50 61)" gradientUnits="userSpaceOnUse">
			<stop  offset="0.0798" style="stop-color:#B8CFF0"/>
			<stop  offset="0.1595" style="stop-color:#8DA6C7"/>
			<stop  offset="0.7301" style="stop-color:#000000"/>
			<stop  offset="0.8098" style="stop-color:#08090B"/>
			<stop  offset="1" style="stop-color:#3F4A5D"/>
		</radialGradient>
		<path fill="url(#SVGID_1_)" d="M100.735,169.12c-35.872-0.002-53.313-13.216-61.628-24.302
			c-8.285-11.046-11.092-24.973-7.512-37.256c1.1-3.773,2.537-6.114,4.024-7.634c-0.156-2.669,0.033-6.488,1.418-11.078
			c1.006-3.337,2.229-5.644,3.268-7.172c-0.66-12.8,3.213-24.171,11.268-32.997c10.325-11.314,26.818-17.803,45.253-17.803
			c10.659,0,21.023,2.232,29.968,6.454c26.102,12.321,28.594,24.984,31.003,37.23c0.363,1.848,0.711,3.614,1.142,5.374
			c1.267,1.455,2.594,3.75,3.702,7.367c1.299,4.231,1.462,7.88,1.368,10.202c0.928,0.964,2.174,2.277,2.883,4.162
			c4.184,11.11,1.276,26.662-7.406,39.618c-6.679,9.964-22.614,26.821-54.305,27.765c-1.494,0.045-2.988,0.067-4.441,0.067
			C100.739,169.12,100.737,169.12,100.735,169.12z"/>
		<path fill="#4D2B18" d="M100.827,170.061c-37.181-0.002-55.117-13.322-63.615-24.495c-8.317-10.934-11.148-24.684-7.572-36.78
			c1.274-4.31,2.906-6.458,4.541-7.672c-0.292-2.452-0.365-6.691,1.275-12.048c1.2-3.924,2.67-6.275,3.678-7.546
			c-0.924-13.133,2.949-24.773,11.239-33.73C60.87,36.445,77.735,29.939,96.644,29.939c10.979,0,21.638,2.259,30.826,6.535
			c26.599,12.379,29.119,25.018,31.557,37.239c0.429,2.146,0.872,4.357,1.444,6.55c1.099,1.066,2.56,3.148,3.814,7.183
			c1.529,4.916,1.438,9.02,1.259,10.964c0.243,0.288,0.555,0.608,0.845,0.904c0.91,0.934,1.942,1.992,2.504,3.46
			c4.092,10.715,1.03,26.464-7.62,39.19c-6.834,10.055-23.167,27.065-55.777,28.023c-1.567,0.046-3.138,0.07-4.664,0.07
			C100.83,170.061,100.828,170.061,100.827,170.061z"/>
		<g>
			<path fill="#8B5E3C" d="M101.102,168.641c-65.743,0-71.452-41.17-71.47-49.895c-0.019-8.691,2.262-15.627,6.011-16.021
				c3.749-0.386,4.553,7.633,4.863,12.418c1.078,16.659,17.594,36.115,60.596,36.115c47.598,0,57.475-33.383,57.567-33.721
				c1.265-4.52,2.188-18.751,5.731-17.14c3.543,1.612,5.748,9.195,4.013,21.746C166.88,133.223,155.096,167.417,101.102,168.641z"/>
		</g>
		<g opacity="0.71">
			<path fill="#8B5E3C" d="M142.589,91.914c-3.478,0-4.269-1.303-4.596-5.809c-0.404-5.55-10.986-20.859-39.895-20.859
				c-29.102,0-37.984,18.958-38.047,19.121c0.054-0.14-1.968,7.547-1.968,7.547l-8.146-14.777
				c0.903-2.715,9.936-26.536,48.161-26.536c45.429,0,50.734,24.353,51.279,31.816c0.35,4.78-2.404,9.015-6.15,9.46
				C143.016,91.902,142.8,91.914,142.589,91.914z"/>
		</g>
		<g opacity="0.57">
			<path fill="#8B5E3C" d="M136.35,105.256c-3.479,0-2.416-0.479-2.744-4.984c-0.279-3.818-8.795-15.711-35.379-15.711
				c-25.779,0-32.064,14.73-32.121,14.871c0.062-0.155-1.21-0.193-1.21-0.193L54.12,94.543c0.834-2.505,9.157-24.479,44.105-24.479
				c15.156,0,26.932,2.941,34.998,8.741c9.603,6.904,11.621,15.97,11.971,20.759c0.351,4.779-3.834,2.909-7.58,3.354
				C137.4,102.943,136.561,105.256,136.35,105.256z"/>
		</g>
		<g>
			
				<radialGradient id="SVGID_2_" cx="-510.5693" cy="812.4912" r="6.7092" gradientTransform="matrix(-0.8723 -0.2965 -0.4492 1.8801 56.4102 -1605.0646)" gradientUnits="userSpaceOnUse">
				<stop  offset="0.3515" style="stop-color:#996D3A"/>
				<stop  offset="0.8788" style="stop-color:#7A4F22"/>
			</radialGradient>
			<path fill="url(#SVGID_2_)" d="M138.482,83.812c0,0-0.721-3.574,0.529-6.43c1.252-2.854,5.607-9.189,0.779-13.508
				c-4.682-4.187-5.352-4.076-5.352-4.076s2.385,2.384,0.975,8.053C133.88,74.021,135.389,78.84,138.482,83.812z"/>
			
				<radialGradient id="SVGID_3_" cx="-613.4883" cy="609.2979" r="6.709" gradientTransform="matrix(-0.702 -0.7242 -1.0103 1.4836 326.592 -1266.9984)" gradientUnits="userSpaceOnUse">
				<stop  offset="0.3515" style="stop-color:#996D3A"/>
				<stop  offset="0.8788" style="stop-color:#7A4F22"/>
			</radialGradient>
			<path fill="url(#SVGID_3_)" d="M140.073,91.174c0,0,0.481-3.639,2.534-5.597c2.054-1.957,8.054-5.479,5.021-11.933
				c-2.939-6.257-3.588-6.504-3.588-6.504s1.418,3.416-1.68,7.861C138.991,79.84,138.833,85.023,140.073,91.174z"/>
			
				<radialGradient id="SVGID_4_" cx="-402.6108" cy="884.6572" r="6.662" gradientTransform="matrix(-0.9074 0.0451 0.0559 1.9515 -284.4358 -1640.0835)" gradientUnits="userSpaceOnUse">
				<stop  offset="0.3515" style="stop-color:#996D3A"/>
				<stop  offset="0.8788" style="stop-color:#7A4F22"/>
			</radialGradient>
			<path fill="url(#SVGID_4_)" d="M134.559,76.854c0,0-1.605-3.122-1.148-6.296c0.455-3.177,2.32-9.18-2.734-13.106
				c-5.055-3.925-5.627-2.811-5.627-2.811s3.914,2.019,2.479,8.221C126.089,69.066,130.329,73.296,134.559,76.854z"/>
			
				<radialGradient id="SVGID_5_" cx="-279.0469" cy="930.9805" r="6.6768" gradientTransform="matrix(-0.8612 0.3535 0.513 1.8485 -595.8426 -1557.3491)" gradientUnits="userSpaceOnUse">
				<stop  offset="0.3515" style="stop-color:#996D3A"/>
				<stop  offset="0.8788" style="stop-color:#7A4F22"/>
			</radialGradient>
			<path fill="url(#SVGID_5_)" d="M128.188,71.805c0,0-2.276-2.438-2.588-5.632c-0.307-3.196,0.07-9.579-5.711-11.607
				c-5.777-2.026-5.777-2.026-5.777-2.026s3.947,1.854,4.027,8.28C118.221,67.248,123.288,69.845,128.188,71.805z"/>
			
				<radialGradient id="SVGID_6_" cx="-227.0171" cy="941.6748" r="6.6759" gradientTransform="matrix(-0.8314 0.4464 0.6507 1.7833 -689.5746 -1515.7395)" gradientUnits="userSpaceOnUse">
				<stop  offset="0.3515" style="stop-color:#996D3A"/>
				<stop  offset="0.8788" style="stop-color:#7A4F22"/>
			</radialGradient>
			<path fill="url(#SVGID_6_)" d="M118.547,68.396c0,0-2.454-2.178-3.003-5.322c-0.549-3.147-0.655-9.541-6.567-10.924
				c-5.91-1.381-5.91-1.381-5.91-1.381s4.072,1.411,4.639,7.798C108.271,64.955,113.518,66.983,118.547,68.396z"/>
			
				<radialGradient id="SVGID_7_" cx="-168.1548" cy="950.75" r="6.6752" gradientTransform="matrix(-0.7869 0.5523 0.8081 1.6863 -798.4296 -1449.9786)" gradientUnits="userSpaceOnUse">
				<stop  offset="0.3515" style="stop-color:#996D3A"/>
				<stop  offset="0.8788" style="stop-color:#7A4F22"/>
			</radialGradient>
			<path fill="url(#SVGID_7_)" d="M109.348,65.675c0,0-2.636-1.841-3.466-4.893c-0.83-3.055-1.512-9.393-7.518-9.991
				c-6.004-0.599-6.004-0.599-6.004-0.599s4.177,0.868,5.316,7.138C98.815,63.605,104.216,64.932,109.348,65.675z"/>
			
				<radialGradient id="SVGID_8_" cx="-107.0317" cy="956.3672" r="6.6768" gradientTransform="matrix(-0.7333 0.6512 0.9549 1.57 -899.2771 -1371.4961)" gradientUnits="userSpaceOnUse">
				<stop  offset="0.3515" style="stop-color:#996D3A"/>
				<stop  offset="0.8788" style="stop-color:#7A4F22"/>
			</radialGradient>
			<path fill="url(#SVGID_8_)" d="M100.017,64.614c0,0-2.787-1.486-3.887-4.409c-1.099-2.926-2.344-9.133-8.373-8.947
				c-6.027,0.187-6.027,0.187-6.027,0.187s4.232,0.319,5.929,6.399C89.353,63.929,94.845,64.543,100.017,64.614z"/>
			
				<radialGradient id="SVGID_9_" cx="-34.4512" cy="958.7598" r="6.6771" gradientTransform="matrix(-0.6553 0.7629 1.1212 1.4008 -1015.6201 -1254.7289)" gradientUnits="userSpaceOnUse">
				<stop  offset="0.3515" style="stop-color:#996D3A"/>
				<stop  offset="0.8788" style="stop-color:#7A4F22"/>
			</radialGradient>
			<path fill="url(#SVGID_9_)" d="M89.897,65.078c0,0-2.929-1.021-4.343-3.74c-1.414-2.721-3.337-8.666-9.297-7.511
				C70.3,54.983,70.3,54.983,70.3,54.983s4.235-0.366,6.591,5.381C79.245,66.116,84.761,65.841,89.897,65.078z"/>
			
				<radialGradient id="SVGID_10_" cx="63.0186" cy="946.6133" r="6.6762" gradientTransform="matrix(-0.5119 0.9186 1.3421 1.1299 -1164.877 -1062.0042)" gradientUnits="userSpaceOnUse">
				<stop  offset="0.3515" style="stop-color:#996D3A"/>
				<stop  offset="0.8788" style="stop-color:#7A4F22"/>
			</radialGradient>
			<path fill="url(#SVGID_10_)" d="M81.685,66.573c0,0-3.053-0.319-4.908-2.692c-1.857-2.378-4.77-7.853-10.422-5.272
				c-5.65,2.582-5.65,2.582-5.65,2.582s4.096-1.381,7.398,3.793C71.405,70.162,76.772,68.565,81.685,66.573z"/>
			
				<radialGradient id="SVGID_11_" cx="132.3506" cy="934.459" r="6.6767" gradientTransform="matrix(-0.4067 0.9915 1.4556 0.904 -1241.5587 -904.7657)" gradientUnits="userSpaceOnUse">
				<stop  offset="0.3515" style="stop-color:#996D3A"/>
				<stop  offset="0.8788" style="stop-color:#7A4F22"/>
			</radialGradient>
			<path fill="url(#SVGID_11_)" d="M73.226,71.008c0,0-3.065,0.174-5.168-1.88c-2.104-2.058-5.596-7.013-10.918-3.553
				c-5.322,3.461-5.322,3.461-5.322,3.461s3.912-2.022,7.758,2.572C63.421,76.207,68.57,73.767,73.226,71.008z"/>
			
				<radialGradient id="SVGID_12_" cx="223.8867" cy="906.4355" r="5.2779" gradientTransform="matrix(-0.2233 1.0717 1.5838 0.5091 -1324.8831 -625.8975)" gradientUnits="userSpaceOnUse">
				<stop  offset="0.3515" style="stop-color:#996D3A"/>
				<stop  offset="0.8788" style="stop-color:#7A4F22"/>
			</radialGradient>
			<path fill="url(#SVGID_12_)" d="M67.045,74.714c0,0-2.968,0.956-5.388-0.511c-1.871-1.135-4.86-3.747-8.246-2.685
				c-0.993,0.312-4.19,3.781,0.383,7.278C58.368,82.301,62.977,78.6,67.045,74.714z"/>
			
				<radialGradient id="SVGID_13_" cx="-174.1025" cy="362.9258" r="3.4157" gradientTransform="matrix(0.2195 -1.064 -1.5719 -0.4596 665.2763 63.5536)" gradientUnits="userSpaceOnUse">
				<stop  offset="0.3515" style="stop-color:#996D3A"/>
				<stop  offset="0.8788" style="stop-color:#7A4F22"/>
			</radialGradient>
			<path fill="url(#SVGID_13_)" d="M52.572,79.158c2.438,0.501,4.938,2.439,6.343,2.049c1.725-0.48,2.646-0.771,2.646-0.771
				s-1.434,3.326-2.639,4.192c-0.521,0.374-1.782,0.649-3.225,0.886C53.792,85.826,52.017,79.045,52.572,79.158z"/>
		</g>
		<g>
			
				<radialGradient id="SVGID_14_" cx="-566.0952" cy="771.7725" r="6.7098" gradientTransform="matrix(-0.8136 -0.3936 -0.5536 1.8224 107.8495 -1530.8728)" gradientUnits="userSpaceOnUse">
				<stop  offset="0.1879" style="stop-color:#885E30"/>
				<stop  offset="0.8788" style="stop-color:#683F2D"/>
			</radialGradient>
			<path fill="url(#SVGID_14_)" d="M142.113,108.482c0,0-0.45-3.642,0.933-6.344c1.384-2.703,5.966-8.523,1.64-13.369
				c-4.195-4.696-4.843-4.661-4.843-4.661s2.121,2.643,0.396,8.131C138.363,98.213,139.486,103.182,142.113,108.482z"/>
			
				<radialGradient id="SVGID_15_" cx="-471.5068" cy="860.3076" r="6.6612" gradientTransform="matrix(-0.8697 -0.0572 -0.0759 1.9503 -209.3822 -1612.8464)" gradientUnits="userSpaceOnUse">
				<stop  offset="0.1879" style="stop-color:#885E30"/>
				<stop  offset="0.8788" style="stop-color:#683F2D"/>
			</radialGradient>
			<path fill="url(#SVGID_15_)" d="M138.823,101.109c0,0-1.326-3.29-0.679-6.398c0.646-3.113,2.824-8.884-1.744-13.363
				c-4.567-4.478-5.188-3.434-5.188-3.434s3.604,2.453,1.824,8.467C131.251,92.4,135.021,97.09,138.823,101.109z"/>
			
				<radialGradient id="SVGID_16_" cx="-355.0317" cy="922.0693" r="6.6758" gradientTransform="matrix(-0.846 0.2553 0.3676 1.899 -511.62 -1572.5405)" gradientUnits="userSpaceOnUse">
				<stop  offset="0.1879" style="stop-color:#885E30"/>
				<stop  offset="0.8788" style="stop-color:#683F2D"/>
			</radialGradient>
			<path fill="url(#SVGID_16_)" d="M133.075,95.365c0,0-2.013-2.686-2.099-5.902c-0.08-3.219,0.701-9.533-4.686-12.203
				c-5.385-2.669-5.385-2.669-5.385-2.669s3.646,2.29,3.299,8.701C123.855,89.704,128.523,92.86,133.075,95.365z"/>
			
				<radialGradient id="SVGID_17_" cx="-304.2866" cy="938.9404" r="6.6756" gradientTransform="matrix(-0.8237 0.3511 0.5035 1.8497 -605.215 -1545.9314)" gradientUnits="userSpaceOnUse">
				<stop  offset="0.1879" style="stop-color:#885E30"/>
				<stop  offset="0.8788" style="stop-color:#683F2D"/>
			</radialGradient>
			<path fill="url(#SVGID_17_)" d="M124.093,90.884c0,0-2.2-2.444-2.518-5.64c-0.313-3.197,0.008-9.577-5.548-11.62
				c-5.555-2.042-5.555-2.042-5.555-2.042s3.795,1.865,3.914,8.29C114.503,86.301,119.38,88.91,124.093,90.884z"/>
			
				<radialGradient id="SVGID_18_" cx="-245.0854" cy="953.8711" r="6.6762" gradientTransform="matrix(-0.7882 0.4617 0.6602 1.7707 -713.9073 -1494.7629)" gradientUnits="userSpaceOnUse">
				<stop  offset="0.1879" style="stop-color:#885E30"/>
				<stop  offset="0.8788" style="stop-color:#683F2D"/>
			</radialGradient>
			<path fill="url(#SVGID_18_)" d="M115.484,87.139c0,0-2.396-2.131-2.985-5.264c-0.591-3.135-0.822-9.525-6.521-10.799
				c-5.694-1.271-5.694-1.271-5.694-1.271s3.932,1.335,4.604,7.708C105.562,83.892,110.634,85.82,115.484,87.139z"/>
			
				<radialGradient id="SVGID_19_" cx="-183.3101" cy="966.4873" r="6.6764" gradientTransform="matrix(-0.7436 0.5661 0.8081 1.6714 -817.6241 -1431.718)" gradientUnits="userSpaceOnUse">
				<stop  offset="0.1879" style="stop-color:#885E30"/>
				<stop  offset="0.8788" style="stop-color:#683F2D"/>
			</radialGradient>
			<path fill="url(#SVGID_19_)" d="M106.643,85.031c0,0-2.562-1.793-3.42-4.828c-0.855-3.039-1.636-9.361-7.406-9.855
				c-5.77-0.492-5.77-0.492-5.77-0.492s4.022,0.792,5.239,7.041C96.501,83.15,101.708,84.38,106.643,85.031z"/>
			
				<radialGradient id="SVGID_20_" cx="-109.1167" cy="976.0469" r="6.6758" gradientTransform="matrix(-0.6765 0.6861 0.9782 1.5214 -939.0496 -1329.6788)" gradientUnits="userSpaceOnUse">
				<stop  offset="0.1879" style="stop-color:#885E30"/>
				<stop  offset="0.8788" style="stop-color:#683F2D"/>
			</radialGradient>
			<path fill="url(#SVGID_20_)" d="M96.946,84.355c0,0-2.73-1.348-3.9-4.215c-1.171-2.869-2.613-9.008-8.383-8.527
				c-5.768,0.481-5.768,0.481-5.768,0.481s4.07,0.112,5.938,6.102C86.701,84.191,91.989,84.537,96.946,84.355z"/>
			
				<radialGradient id="SVGID_21_" cx="-5.4629" cy="975.0527" r="6.676" gradientTransform="matrix(-0.5498 0.8574 1.2071 1.2764 -1098.9037 -1157.0332)" gradientUnits="userSpaceOnUse">
				<stop  offset="0.1879" style="stop-color:#885E30"/>
				<stop  offset="0.8788" style="stop-color:#683F2D"/>
			</radialGradient>
			<path fill="url(#SVGID_21_)" d="M89.003,84.92c0,0-2.896-0.66-4.511-3.233c-1.616-2.579-4.036-8.358-9.606-6.424
				c-5.567,1.935-5.567,1.935-5.567,1.935s4.004-0.912,6.815,4.612C78.946,87.34,84.179,86.352,89.003,84.92z"/>
			
				<radialGradient id="SVGID_22_" cx="68.3789" cy="970.5674" r="6.6773" gradientTransform="matrix(-0.4542 0.9418 1.3306 1.0644 -1187.8015 -1009.8114)" gradientUnits="userSpaceOnUse">
				<stop  offset="0.1879" style="stop-color:#885E30"/>
				<stop  offset="0.8788" style="stop-color:#683F2D"/>
			</radialGradient>
			<path fill="url(#SVGID_22_)" d="M80.628,88.386c0,0-2.939-0.171-4.812-2.454c-1.871-2.286-4.879-7.615-10.193-4.768
				c-5.312,2.848-5.312,2.848-5.312,2.848s3.87-1.572,7.239,3.436C70.919,92.462,75.999,90.611,80.628,88.386z"/>
			
				<radialGradient id="SVGID_23_" cx="170.9248" cy="951.5469" r="5.2782" gradientTransform="matrix(-0.2843 1.0425 1.4792 0.6854 -1290.5132 -738.9229)" gradientUnits="userSpaceOnUse">
				<stop  offset="0.1879" style="stop-color:#885E30"/>
				<stop  offset="0.8788" style="stop-color:#683F2D"/>
			</radialGradient>
			<path fill="url(#SVGID_23_)" d="M74.479,91.383c0,0-2.898,0.617-5.113-1.115c-1.713-1.341-4.395-4.278-7.699-3.602
				c-0.969,0.199-4.252,3.294-0.116,7.293C65.688,97.963,70.335,94.795,74.479,91.383z"/>
			
				<radialGradient id="SVGID_24_" cx="-106.1919" cy="356.9453" r="3.4108" gradientTransform="matrix(0.2802 -1.0351 -1.471 -0.6348 618.8137 214.145)" gradientUnits="userSpaceOnUse">
				<stop  offset="0.1879" style="stop-color:#885E30"/>
				<stop  offset="0.8788" style="stop-color:#683F2D"/>
			</radialGradient>
			<path fill="url(#SVGID_24_)" d="M60.36,94.182c2.295,0.772,4.555,2.984,5.922,2.754c1.681-0.284,2.58-0.472,2.58-0.472
				s-1.59,3.153-2.799,3.88c-0.521,0.314-1.744,0.446-3.139,0.521C61.083,100.961,59.838,94.006,60.36,94.182z"/>
		</g>
		<g>
			
				<radialGradient id="SVGID_25_" cx="567.1875" cy="445.2236" r="6.9016" gradientTransform="matrix(0.7695 0.5636 0.8602 -1.6053 -776.7765 529.0903)" gradientUnits="userSpaceOnUse">
				<stop  offset="0.2699" style="stop-color:#CD9C5C"/>
				<stop  offset="1" style="stop-color:#7E5428"/>
			</radialGradient>
			<path fill="url(#SVGID_25_)" d="M42.545,124.012c0,0,1.741,0.303-0.505,3.033c-2.249,2.732-7.5,7.096-4.65,14.982
				s4.773,6.562,4.773,6.562s-3.504-4.414,1.43-9.314C48.53,134.374,44.773,130.878,42.545,124.012z"/>
			
				<radialGradient id="SVGID_26_" cx="504.7529" cy="331.9092" r="7.8321" gradientTransform="matrix(0.8573 0.3501 0.5342 -1.7885 -560.2249 559.8855)" gradientUnits="userSpaceOnUse">
				<stop  offset="0.2699" style="stop-color:#CD9C5C"/>
				<stop  offset="1" style="stop-color:#7E5428"/>
			</radialGradient>
			<path fill="url(#SVGID_26_)" d="M47.745,131.879c0,0,1.515,2.566-0.159,5.812s-7.306,10.313-1.693,15.813
				c5.444,5.334,7.626,4.642,7.626,4.642s-4.123-2.392-2.1-8.935C53.622,142.093,52.243,137.215,47.745,131.879z"/>
			
				<radialGradient id="SVGID_27_" cx="363.2939" cy="196.5469" r="8.2034" gradientTransform="matrix(0.9079 0.0218 0.0332 -1.8939 -277.899 512.2615)" gradientUnits="userSpaceOnUse">
				<stop  offset="0.2699" style="stop-color:#CD9C5C"/>
				<stop  offset="1" style="stop-color:#7E5428"/>
			</radialGradient>
			<path fill="url(#SVGID_27_)" d="M53.671,137.215c0,0,1.772,3.811,1.044,7.503c-0.729,3.696-3.32,10.591,2.588,15.649
				c5.907,5.058,7.903,2.854,7.903,2.854s-5.871-1.771-3.789-8.938C63.503,147.113,58.599,141.77,53.671,137.215z"/>
			
				<radialGradient id="SVGID_28_" cx="194.4189" cy="110.4727" r="8.0443" gradientTransform="matrix(0.8759 -0.2802 -0.4276 -1.8272 -54.5051 408.8569)" gradientUnits="userSpaceOnUse">
				<stop  offset="0.2699" style="stop-color:#CD9C5C"/>
				<stop  offset="1" style="stop-color:#7E5428"/>
			</radialGradient>
			<path fill="url(#SVGID_28_)" d="M61.604,143.941c0,0,2.624,3.064,2.822,6.849c0.196,3.785-0.614,11.258,6.279,14.147
				c6.891,2.889,6.891,2.092,6.891,2.092s-4.68-1.729-4.423-9.293C73.434,150.172,67.435,146.674,61.604,143.941z"/>
			
				<radialGradient id="SVGID_29_" cx="143.8203" cy="93.7461" r="8.0236" gradientTransform="matrix(0.8504 -0.3724 -0.5683 -1.7742 11.1648 375.5823)" gradientUnits="userSpaceOnUse">
				<stop  offset="0.2699" style="stop-color:#CD9C5C"/>
				<stop  offset="1" style="stop-color:#7E5428"/>
			</radialGradient>
			<path fill="url(#SVGID_29_)" d="M72.64,147.904c0,0,2.854,2.775,3.345,6.521c0.491,3.749,0.327,10.972,7.354,13.421
				c6.148,2.144,7.088,0.795,7.088,0.795s-4.856-0.668-5.19-8.229C84.905,152.85,78.659,150.005,72.64,147.904z"/>
			
				<radialGradient id="SVGID_30_" cx="78.478" cy="76.4268" r="8.0668" gradientTransform="matrix(0.8107 -0.4782 -0.7298 -1.6913 83.9558 324.7661)" gradientUnits="userSpaceOnUse">
				<stop  offset="0.2699" style="stop-color:#CD9C5C"/>
				<stop  offset="1" style="stop-color:#7E5428"/>
			</radialGradient>
			<path fill="url(#SVGID_30_)" d="M83.597,151.104c0,0,3.092,2.396,3.93,6.058c0.836,3.663,1.252,12.766,8.559,12.407
				c7.244-0.356,7.244-0.928,7.244-0.928s-5.016,0.77-6.049-6.703C96.248,154.461,89.774,152.43,83.597,151.104z"/>
			
				<radialGradient id="SVGID_31_" cx="12.9355" cy="68.9531" r="8.2267" gradientTransform="matrix(0.7618 -0.5777 -0.8817 -1.5894 155.0203 275.2497)" gradientUnits="userSpaceOnUse">
				<stop  offset="0.2699" style="stop-color:#CD9C5C"/>
				<stop  offset="1" style="stop-color:#7E5428"/>
			</radialGradient>
			<path fill="url(#SVGID_31_)" d="M94.964,152.407c0,0,3.297,1.991,4.467,5.524c1.17,3.536,2.344,11.801,9.654,11.254
				c7.315-0.545,7.849-1.479,7.849-1.479s-5.646,1.041-7.363-6.257C107.854,154.146,101.229,152.943,94.964,152.407z"/>
			
				<radialGradient id="SVGID_32_" cx="-74.103" cy="66.7178" r="8.1558" gradientTransform="matrix(0.689 -0.6915 -1.0553 -1.4374 237.2084 201.1334)" gradientUnits="userSpaceOnUse">
				<stop  offset="0.2699" style="stop-color:#CD9C5C"/>
				<stop  offset="1" style="stop-color:#7E5428"/>
			</radialGradient>
			<path fill="url(#SVGID_32_)" d="M106.193,152.152c0,0,3.494,1.459,5.058,4.777c1.563,3.323,3.701,11.622,10.854,9.646
				c7.793-2.152,7.293-2.406,7.293-2.406s-5.16,1.629-7.697-5.335C119.164,151.865,112.464,151.705,106.193,152.152z"/>
			
				<radialGradient id="SVGID_33_" cx="-207.0215" cy="92.9873" r="8.119" gradientTransform="matrix(0.553 -0.8526 -1.2882 -1.1908 361.1796 87.562)" gradientUnits="userSpaceOnUse">
				<stop  offset="0.2699" style="stop-color:#CD9C5C"/>
				<stop  offset="1" style="stop-color:#7E5428"/>
			</radialGradient>
			<path fill="url(#SVGID_33_)" d="M116.823,151.266c0,0,3.684,0.642,5.801,3.594c2.119,2.959,5.513,10.305,12.34,7.111
				c6.466-3.022,6.992-2.541,6.992-2.541s-5.041,1.264-8.758-5.106C129.482,147.943,122.889,149.352,116.823,151.266z"/>
			
				<radialGradient id="SVGID_34_" cx="-288.0962" cy="114.9277" r="7.7717" gradientTransform="matrix(0.4513 -0.9308 -1.4119 -0.9806 430.6367 -6.3958)" gradientUnits="userSpaceOnUse">
				<stop  offset="0.2699" style="stop-color:#CD9C5C"/>
				<stop  offset="1" style="stop-color:#7E5428"/>
			</radialGradient>
			<path fill="url(#SVGID_34_)" d="M128.468,148.855c0,0,3.726,0.063,6.158,2.662c2.437,2.604,4.774,8.178,11.418,4.574
				c6.646-3.603,6.974-4.988,6.974-4.988s-3.564,3.979-7.972-1.759C140.639,143.6,134.264,146.02,128.468,148.855z"/>
			
				<radialGradient id="SVGID_35_" cx="-421.0928" cy="169.4707" r="7.5257" gradientTransform="matrix(0.2718 -1.0218 -1.5579 -0.6072 525.2178 -183.8293)" gradientUnits="userSpaceOnUse">
				<stop  offset="0.2699" style="stop-color:#CD9C5C"/>
				<stop  offset="1" style="stop-color:#7E5428"/>
			</radialGradient>
			<path fill="url(#SVGID_35_)" d="M137.45,145.131c0,0,3.649-0.863,6.502,1.072c2.854,1.939,6.608,6.443,12.801,1.996
				c4.332-3.113,3.574-6.279,3.574-6.279s-1.238,4.083-6.589-0.43C148.389,136.971,142.6,140.919,137.45,145.131z"/>
			
				<radialGradient id="SVGID_36_" cx="714.0957" cy="582.3203" r="4.5789" gradientTransform="matrix(0.6952 0.6831 1.0424 -1.4502 -939.6897 462.8624)" gradientUnits="userSpaceOnUse">
				<stop  offset="0.2699" style="stop-color:#CD9C5C"/>
				<stop  offset="1" style="stop-color:#7E5428"/>
			</radialGradient>
			<path fill="url(#SVGID_36_)" d="M164.292,100.483c0,0,0.502,3.271-1.125,5.687c-1.912,2.842,1.726-0.719-1.985,5.355
				c-1.976,3.233-3.623,5.623,1.33,1.307C168.917,107.25,167.548,106.75,164.292,100.483z"/>
			
				<radialGradient id="SVGID_37_" cx="-464.5693" cy="181.666" r="4.976" gradientTransform="matrix(-0.2511 -1.012 -1.4128 0.5726 174.3857 -459.4413)" gradientUnits="userSpaceOnUse">
				<stop  offset="0.2699" style="stop-color:#CD9C5C"/>
				<stop  offset="1" style="stop-color:#7E5428"/>
			</radialGradient>
			<path fill="url(#SVGID_37_)" d="M30.251,114.919c0,0-0.081-4.212,5.972-3.771c6.051,0.438,4.507,1.453,4.171,3.252
				s2.45,2.881-0.072,3.203c-2.522,0.321-4.436-0.431-6.537,1.073c-2.102,1.507-4.396,4.746-4.333,1.892
				C29.515,117.713,30.251,114.919,30.251,114.919z"/>
			
				<radialGradient id="SVGID_38_" cx="-361.1323" cy="60.0898" r="4.1595" gradientTransform="matrix(-0.062 -0.8189 -1.4487 -0.1304 100.5891 -181.2336)" gradientUnits="userSpaceOnUse">
				<stop  offset="0.2699" style="stop-color:#CD9C5C"/>
				<stop  offset="1" style="stop-color:#7E5428"/>
			</radialGradient>
			<path fill="url(#SVGID_38_)" d="M32.595,105.461c0,0,0.554-2.541,5.316-0.347c4.761,2.194,3.38,2.306,2.849,3.274
				c-0.532,0.965,1.531,2.5-0.527,1.889c-2.058-0.613-3.474-1.672-5.371-1.445c-1.897,0.229-4.202,1.432-3.733-0.254
				C31.597,106.895,32.595,105.461,32.595,105.461z"/>
			
				<radialGradient id="SVGID_39_" cx="-549.3242" cy="322.1123" r="5.4071" gradientTransform="matrix(-0.7351 -0.5785 -0.8195 1.5842 -103.7412 -702.3511)" gradientUnits="userSpaceOnUse">
				<stop  offset="0.2699" style="stop-color:#CD9C5C"/>
				<stop  offset="1" style="stop-color:#7E5428"/>
			</radialGradient>
			<path fill="url(#SVGID_39_)" d="M31.539,131.121c0,0-1.722-4.268,0.637-7.145c2.358-2.883,7.251-2.963,8.529-4.892
				c1.279-1.928,0.552,2.508,0.552,2.508s1.587-0.17,1.014,1.673c-0.573,1.842-4.598,5.637-6.242,7.998
				C34.385,133.627,32.802,135.316,31.539,131.121z"/>
			
				<radialGradient id="SVGID_40_" cx="-46.1152" cy="1096.0156" r="6.1242" gradientTransform="matrix(-0.2677 1.0146 1.5483 0.5586 -1553.6763 -429.4038)" gradientUnits="userSpaceOnUse">
				<stop  offset="0.2699" style="stop-color:#CD9C5C"/>
				<stop  offset="1" style="stop-color:#7E5428"/>
			</radialGradient>
			<path fill="url(#SVGID_40_)" d="M164.079,136.75c0,0-1.078,4.561-4.601,4.814c-3.518,0.256-7.442-3.605-9.559-3.192
				c-2.117,0.413-3.25,0.676-3.25,0.676s1.922-3.788,3.43-4.7c1.51-0.912,7.848-0.859,10.502-1.303
				C163.259,132.602,165.48,132.611,164.079,136.75z"/>
			
				<radialGradient id="SVGID_41_" cx="35.5376" cy="558.2285" r="8.0659" gradientTransform="matrix(-0.5164 -0.797 -1.7849 0.5763 1175.8955 -175.6765)" gradientUnits="userSpaceOnUse">
				<stop  offset="0.2699" style="stop-color:#CD9C5C"/>
				<stop  offset="1" style="stop-color:#7E5428"/>
			</radialGradient>
			<path fill="url(#SVGID_41_)" d="M167.762,108.771c0,0-1.402,3.231-4.861,4.553c-3.457,1.318-6.398,4.189-6.951,11.225
				c-0.283,3.596-1.656,5.502-1.656,5.502s-0.34-4.314,6.943-6.377C168.518,121.611,168.486,114.72,167.762,108.771z"/>
			
				<radialGradient id="SVGID_42_" cx="-300.3169" cy="933.6904" r="5.6509" gradientTransform="matrix(-0.2064 -1.0339 -1.5778 0.4305 1572.8446 -585.3502)" gradientUnits="userSpaceOnUse">
				<stop  offset="0.2699" style="stop-color:#CD9C5C"/>
				<stop  offset="1" style="stop-color:#7E5428"/>
			</radialGradient>
			<path fill="url(#SVGID_42_)" d="M168.255,126.178c0,0,0.83,4.102-5.721,5.271c-6.552,1.169-8.724,1.101-8.681-0.748
				c0.039-1.851-1.467-2.904,1.172-3.888c2.642-0.979,6.802-1.352,8.783-3.379c1.979-2.025,3.859-5.803,4.297-2.994
				C168.546,123.25,168.255,126.178,168.255,126.178z"/>
		</g>
		<g>
			<path fill="#8B5E3C" d="M101.217,143.468c-22.981,0-39.259-5.421-51.279-16.03c-12.977-11.453-15.502-23.854-14.318-33.106
				c1.073-8.387,3.531-13.173,7.281-13.535c3.756-0.367,2.773,7.574,3.057,12.359c0.944,15.92,15.958,32.932,55.26,32.932
				c42.573,0,51.644-29.362,52.009-30.612c1.229-4.536,1.039-17.122,4.594-15.549c3.556,1.569,7.148,8.058,6.509,19.12
				C163.723,109.518,154.02,143.468,101.217,143.468z"/>
		</g>
		<g>
			
				<radialGradient id="SVGID_43_" cx="409.248" cy="339.4473" r="5.8553" gradientTransform="matrix(0.9333 0.4787 0.3862 -1.8137 -456.3998 538.1684)" gradientUnits="userSpaceOnUse">
				<stop  offset="0.2699" style="stop-color:#CD9C5C"/>
				<stop  offset="1" style="stop-color:#7E5428"/>
			</radialGradient>
			<path fill="url(#SVGID_43_)" d="M52.975,110.857c-1.273,2.834-4.774,7.576-0.207,14.539c4.565,6.959,4.565,6.959,4.565,6.959
				s-2.887-5.129,0.193-10.33c1.232-2.082,1.348-4.396,0.909-6.848C58.286,114.35,52.975,110.857,52.975,110.857z"/>
			
				<radialGradient id="SVGID_44_" cx="320.0254" cy="256.7324" r="6.1762" gradientTransform="matrix(0.958 0.2414 0.0074 -1.958 -244.986 548.6272)" gradientUnits="userSpaceOnUse">
				<stop  offset="0.2699" style="stop-color:#CD9C5C"/>
				<stop  offset="1" style="stop-color:#7E5428"/>
			</radialGradient>
			<path fill="url(#SVGID_44_)" d="M59.806,119.596c-0.634,3.237-3.768,10.543,2.618,14.926c6.192,4.246,6.895,4.072,6.895,4.072
				s-3.216-2.438-3.133-8.785c0.054-4.037-0.909-7.486-2.648-10.701C62.3,116.822,60.438,116.357,59.806,119.596z"/>
			
				<radialGradient id="SVGID_45_" cx="157.6709" cy="169.2432" r="7.1563" gradientTransform="matrix(0.912 -0.1111 -0.5233 -1.995 16.2206 482.7481)" gradientUnits="userSpaceOnUse">
				<stop  offset="0.2699" style="stop-color:#CD9C5C"/>
				<stop  offset="1" style="stop-color:#7E5428"/>
			</radialGradient>
			<path fill="url(#SVGID_45_)" d="M64.615,118.357c0,0,2.556,3.312,2.872,6.84c0.318,3.533-0.176,10.281,6.354,14.214
				c6.53,3.93,6.872,2.661,6.872,2.661s-4.797-1.922-4.822-8.857C75.867,126.277,70.149,121.948,64.615,118.357z"/>
			
				<radialGradient id="SVGID_46_" cx="-14.0288" cy="129.3916" r="7.1715" gradientTransform="matrix(0.7913 -0.4238 -0.9637 -1.8567 217.6135 364.9697)" gradientUnits="userSpaceOnUse">
				<stop  offset="0.2699" style="stop-color:#CD9C5C"/>
				<stop  offset="1" style="stop-color:#7E5428"/>
			</radialGradient>
			<path fill="url(#SVGID_46_)" d="M73.368,123.576c0,0,3.113,2.508,4.271,5.999c1.156,3.493,2.386,10.547,9.222,12.335
				c6.834,1.785,6.834,1.785,6.834,1.785s-4.786-1.737-6.527-8.803C85.429,127.823,79.224,125.355,73.368,123.576z"/>
			
				<radialGradient id="SVGID_47_" cx="-61.0947" cy="126.3809" r="7.1732" gradientTransform="matrix(0.7388 -0.5168 -1.0882 -1.78 275.6192 325.4948)" gradientUnits="userSpaceOnUse">
				<stop  offset="0.2699" style="stop-color:#CD9C5C"/>
				<stop  offset="1" style="stop-color:#7E5428"/>
			</radialGradient>
			<path fill="url(#SVGID_47_)" d="M84.139,125.822c0,0,3.24,2.205,4.646,5.623c1.41,3.422,3.17,10.449,9.984,11.519
				c6.813,1.065,6.813,1.065,6.813,1.065s-4.812-1.24-7.072-8.228C96.25,128.816,89.999,126.988,84.139,125.822z"/>
			
				<radialGradient id="SVGID_48_" cx="-121.4863" cy="129.2949" r="7.1723" gradientTransform="matrix(0.6682 -0.622 -1.225 -1.6695 343.3593 272.9128)" gradientUnits="userSpaceOnUse">
				<stop  offset="0.2699" style="stop-color:#CD9C5C"/>
				<stop  offset="1" style="stop-color:#7E5428"/>
			</radialGradient>
			<path fill="url(#SVGID_48_)" d="M94.64,127.363c0,0,3.355,1.822,5.045,5.119c1.693,3.298,4.064,10.221,10.781,10.418
				c6.714,0.197,6.714,0.197,6.714,0.197s-4.787-0.636-7.643-7.447C106.682,128.834,100.439,127.789,94.64,127.363z"/>
			
				<radialGradient id="SVGID_49_" cx="-180.6455" cy="137.6885" r="7.1736" gradientTransform="matrix(0.5902 -0.7195 -1.3466 -1.5398 406.423 213.283)" gradientUnits="userSpaceOnUse">
				<stop  offset="0.2699" style="stop-color:#CD9C5C"/>
				<stop  offset="1" style="stop-color:#7E5428"/>
			</radialGradient>
			<path fill="url(#SVGID_49_)" d="M105.012,127.092c0,0,3.432,1.42,5.383,4.553c1.953,3.138,4.907,9.871,11.448,9.203
				c6.537-0.67,6.537-0.67,6.537-0.67s-4.709-0.025-8.123-6.586C116.842,127.027,110.684,126.771,105.012,127.092z"/>
			
				<radialGradient id="SVGID_50_" cx="-255.0996" cy="156.6436" r="7.1723" gradientTransform="matrix(0.4841 -0.8283 -1.4751 -1.3546 478.928 129.0107)" gradientUnits="userSpaceOnUse">
				<stop  offset="0.2699" style="stop-color:#CD9C5C"/>
				<stop  offset="1" style="stop-color:#7E5428"/>
			</radialGradient>
			<path fill="url(#SVGID_50_)" d="M114.859,125.389c0,0,3.466,0.9,5.707,3.781c2.244,2.887,5.871,9.281,12.091,7.551
				c6.211-1.729,6.211-1.729,6.211-1.729s-4.535,0.729-8.584-5.415C126.234,123.427,120.277,124.152,114.859,125.389z"/>
			
				<radialGradient id="SVGID_51_" cx="-361.521" cy="209.5586" r="7.1731" gradientTransform="matrix(0.301 -0.9775 -1.6349 -1.0613 584.8661 -7.2162)" gradientUnits="userSpaceOnUse">
				<stop  offset="0.2699" style="stop-color:#CD9C5C"/>
				<stop  offset="1" style="stop-color:#7E5428"/>
			</radialGradient>
			<path fill="url(#SVGID_51_)" d="M124.014,123.174c0,0,3.418,0.117,6.053,2.586c2.639,2.473,7.229,8.273,12.744,4.998
				c5.51-3.273,5.51-3.273,5.51-3.273s-4.119,1.834-9.057-3.604C134.32,118.434,128.866,120.604,124.014,123.174z"/>
			
				<radialGradient id="SVGID_52_" cx="-424.4287" cy="246.7979" r="7.1739" gradientTransform="matrix(0.1766 -1.0446 -1.6967 -0.822 636.5087 -121.9763)" gradientUnits="userSpaceOnUse">
				<stop  offset="0.2699" style="stop-color:#CD9C5C"/>
				<stop  offset="1" style="stop-color:#7E5428"/>
			</radialGradient>
			<path fill="url(#SVGID_52_)" d="M133.663,119.413c0,0,3.305-0.427,6.129,1.673c2.828,2.104,7.916,7.287,12.842,3.07
				c4.927-4.219,4.927-4.219,4.927-4.219s-3.756,2.527-9.134-2.233C143.04,112.938,138.04,116.02,133.663,119.413z"/>
			
				<radialGradient id="SVGID_53_" cx="-517.937" cy="322.1455" r="7.1725" gradientTransform="matrix(-0.0292 -1.1137 -1.7325 -0.4082 691.9687 -333.7938)" gradientUnits="userSpaceOnUse">
				<stop  offset="0.2699" style="stop-color:#CD9C5C"/>
				<stop  offset="1" style="stop-color:#7E5428"/>
			</radialGradient>
			<path fill="url(#SVGID_53_)" d="M140.626,114.777c0,0,2.996-1.277,6.017,0.147c3.021,1.431,8.723,5.437,12.53-0.134
				c3.806-5.568,3.806-5.568,3.806-5.568s-3.027,3.541-8.924,0.043C148.157,105.764,144.07,110.188,140.626,114.777z"/>
			
				<radialGradient id="SVGID_54_" cx="-810.5176" cy="577.623" r="4.9363" gradientTransform="matrix(-0.5831 -1.0931 -1.7409 -0.0436 573.5838 -766.0898)" gradientUnits="userSpaceOnUse">
				<stop  offset="0.2699" style="stop-color:#CD9C5C"/>
				<stop  offset="1" style="stop-color:#7E5428"/>
			</radialGradient>
			<path fill="url(#SVGID_54_)" d="M37.729,100.865c0,0,1.426-4.191,4.821-3.408c1.171,0.271,2.821-0.065,4.406,1.066
				c0.195,0.139-1.774-3.012-2.493-5.213c-0.719-2.201-0.184-3.482-0.539-3.484C36.413,89.809,38.396,96.277,37.729,100.865z"/>
			
				<radialGradient id="SVGID_55_" cx="-532.4824" cy="286.1113" r="4.1796" gradientTransform="matrix(-0.5712 -1.0228 -1.3723 0.8296 130.5323 -679.0571)" gradientUnits="userSpaceOnUse">
				<stop  offset="0.2699" style="stop-color:#CD9C5C"/>
				<stop  offset="1" style="stop-color:#7E5428"/>
			</radialGradient>
			<path fill="url(#SVGID_55_)" d="M38.517,103.643c0,0-1.174-3.906,4.78-4.358c1.3-0.099,2.68-0.006,3.966,2.209
				c0.808,1.391,2.177,3.129,1.463,3.241c-2.142,0.343-4.595,0.627-5.822,1.9c-1.637,1.699-3.006,5.039-3.689,2.373
				C38.531,106.346,38.517,103.643,38.517,103.643z"/>
			
				<radialGradient id="SVGID_56_" cx="-586.7041" cy="372.0098" r="4.6087" gradientTransform="matrix(-0.8238 -0.7643 -0.8727 1.4696 -111.4638 -882.9563)" gradientUnits="userSpaceOnUse">
				<stop  offset="0.2699" style="stop-color:#CD9C5C"/>
				<stop  offset="1" style="stop-color:#7E5428"/>
			</radialGradient>
			<path fill="url(#SVGID_56_)" d="M44.305,117.447c0,0-2.836-3.955-1.306-7.18c1.533-3.228,5.594-2.902,6.327-5.017l2.917,3.974
				c-0.064,1.914-2.532,5.059-3.503,7.657C47.767,119.482,46.672,121.404,44.305,117.447z"/>
			
				<radialGradient id="SVGID_57_" cx="108.8154" cy="1059.9941" r="5.4195" gradientTransform="matrix(0.0311 1.1054 1.7084 0.3582 -1659.9985 -396.041)" gradientUnits="userSpaceOnUse">
				<stop  offset="0.2699" style="stop-color:#CD9C5C"/>
				<stop  offset="1" style="stop-color:#7E5428"/>
			</radialGradient>
			<path fill="url(#SVGID_57_)" d="M161.95,103.508c0,0,0.229,4.381-2.812,5.078c-3.035,0.696-7.506-2.381-9.266-1.722
				c-1.766,0.659-2.693,1.054-2.693,1.054s0.711-3.771,1.805-4.818c1.095-1.045,6.703-1.824,8.933-2.582
				C160.146,99.759,162.107,99.477,161.95,103.508z"/>
			
				<radialGradient id="SVGID_58_" cx="7.4458" cy="510.7412" r="7.1378" gradientTransform="matrix(-0.7493 -0.7612 -1.6111 0.8689 982.882 -351.9605)" gradientUnits="userSpaceOnUse">
				<stop  offset="0.2699" style="stop-color:#CD9C5C"/>
				<stop  offset="1" style="stop-color:#7E5428"/>
			</radialGradient>
			<path fill="url(#SVGID_58_)" d="M157.923,77.016c0,0-0.397,3.188-3.108,4.867c-2.707,1.676-5.428,5.001-4.088,11.614
				c0.684,3.379,0.842,5.062,0.842,5.062s-1.424-3.968,4.467-6.836C161.93,88.855,160.107,82.451,157.923,77.016z"/>
			
				<radialGradient id="SVGID_59_" cx="-176.5591" cy="918.126" r="4.9998" gradientTransform="matrix(-0.5097 -1.0559 -1.4473 0.6851 1396.1182 -720.5679)" gradientUnits="userSpaceOnUse">
				<stop  offset="0.2699" style="stop-color:#CD9C5C"/>
				<stop  offset="1" style="stop-color:#7E5428"/>
			</radialGradient>
			<path fill="url(#SVGID_59_)" d="M162.884,93.134c0,0,1.804,3.704-3.678,5.646c-5.478,1.94-7.412,2.163-7.856,0.438
				c-0.447-1.724-2.047-2.508,0.026-3.766c2.072-1.256,5.649-2.146,6.869-4.288c1.223-2.144,1.897-5.901,3.014-3.347
				C162.382,90.372,162.884,93.134,162.884,93.134z"/>
		</g>
		<g>
			<path fill="#8B5E3C" d="M99.372,122.143c-34.447,0-58.507-18.631-58.507-45.309c0-26.269,22.853-44.615,55.574-44.615
				c15.235,0,29.517,3.695,40.213,10.405c12.578,7.889,19.902,19.825,20.625,33.612c0.461,8.831-1.924,17.213-6.899,24.234
				C140.764,114.041,121.693,122.143,99.372,122.143z M96.439,47.478c-25.643,0-42.378,14.086-42.378,29.356
				c0,15.66,19.903,27.926,45.311,27.926c18.173,0,34.405-6.339,41.356-16.15c2.486-3.507,3.592-7.163,3.383-11.177
				C143.279,61.566,126.794,47.478,96.439,47.478z"/>
		</g>
		<g>
			
				<radialGradient id="SVGID_60_" cx="-29.9629" cy="167.7686" r="6.9349" gradientTransform="matrix(0.7237 -0.7 -0.9787 -1.648 283.6753 293.3612)" gradientUnits="userSpaceOnUse">
				<stop  offset="0.2699" style="stop-color:#CD9C5C"/>
				<stop  offset="1" style="stop-color:#7E5428"/>
			</radialGradient>
			<path fill="url(#SVGID_60_)" d="M89.862,32.916c0,0,2.918,1.591,4.105,4.79s2.577,10.004,8.838,9.708
				c6.26-0.296,6.26-0.296,6.26-0.296s-4.405-0.287-6.26-6.948C100.95,33.508,95.235,32.916,89.862,32.916z"/>
			
				<radialGradient id="SVGID_61_" cx="-86.4062" cy="165.8164" r="6.6764" gradientTransform="matrix(0.6849 -0.7609 -1.0638 -1.5595 322.4117 231.1945)" gradientUnits="userSpaceOnUse">
				<stop  offset="0.2699" style="stop-color:#CD9C5C"/>
				<stop  offset="1" style="stop-color:#7E5428"/>
			</radialGradient>
			<path fill="url(#SVGID_61_)" d="M78.962,34.27c0,0,2.885,1.286,4.188,4.259c1.304,2.975,2.987,9.396,8.985,8.59
				c5.998-0.806,5.998-0.806,5.998-0.806s-4.246,0.091-6.369-6.153C89.644,33.916,84.124,33.822,78.962,34.27z"/>
			
				<radialGradient id="SVGID_62_" cx="-152.1377" cy="166.6699" r="6.6761" gradientTransform="matrix(0.6336 -0.83 -1.1606 -1.4428 366.6063 154.4866)" gradientUnits="userSpaceOnUse">
				<stop  offset="0.2699" style="stop-color:#CD9C5C"/>
				<stop  offset="1" style="stop-color:#7E5428"/>
			</radialGradient>
			<path fill="url(#SVGID_62_)" d="M68.667,37.049c0,0,2.957,0.979,4.447,3.806c1.491,2.828,3.582,9.051,9.508,7.62
				c5.926-1.431,5.926-1.431,5.926-1.431s-4.225,0.535-6.742-5.465C79.29,35.577,73.782,36.062,68.667,37.049z"/>
			
				<radialGradient id="SVGID_63_" cx="496.4766" cy="491.3076" r="6.6762" gradientTransform="matrix(0.7695 0.6153 0.8602 -1.7521 -751.0831 642.6915)" gradientUnits="userSpaceOnUse">
				<stop  offset="0.2699" style="stop-color:#CD9C5C"/>
				<stop  offset="1" style="stop-color:#7E5428"/>
			</radialGradient>
			<path fill="url(#SVGID_63_)" d="M54.124,76.65c0,0-0.125,3.897-1.977,6.354s-6.177,6.377-3.83,13.469
				c2.347,7.087,2.347,7.087,2.347,7.087s-1.302-5.157,2.762-9.562C57.493,89.592,55.959,82.824,54.124,76.65z"/>
			
				<radialGradient id="SVGID_64_" cx="446.8818" cy="389.4541" r="6.7081" gradientTransform="matrix(0.8573 0.3822 0.5342 -1.9521 -532.3763 685.8792)" gradientUnits="userSpaceOnUse">
				<stop  offset="0.2699" style="stop-color:#CD9C5C"/>
				<stop  offset="1" style="stop-color:#7E5428"/>
			</radialGradient>
			<path fill="url(#SVGID_64_)" d="M57.539,85.82c0,0,0.555,3.835-0.823,6.754c-1.379,2.919-6.018,9.271-1.395,14.217
				c4.484,4.794,5.158,4.729,5.158,4.729s-2.272-2.707-0.606-8.588C61.688,96.53,60.401,91.32,57.539,85.82z"/>
			
				<radialGradient id="SVGID_65_" cx="326.8643" cy="267.6816" r="6.6621" gradientTransform="matrix(0.9079 0.0238 0.0332 -2.0673 -240.1027 647.2501)" gradientUnits="userSpaceOnUse">
				<stop  offset="0.2699" style="stop-color:#CD9C5C"/>
				<stop  offset="1" style="stop-color:#7E5428"/>
			</radialGradient>
			<path fill="url(#SVGID_65_)" d="M61.728,92.146c0,0,1.459,3.426,0.859,6.745c-0.602,3.322-2.734,9.521,2.132,14.068
				c4.865,4.546,5.489,3.414,5.489,3.414s-3.816-2.441-2.101-8.884C69.825,101.043,65.786,96.24,61.728,92.146z"/>
			
				<radialGradient id="SVGID_66_" cx="181.1807" cy="187.7148" r="6.6767" gradientTransform="matrix(0.8759 -0.3059 -0.4276 -1.9942 -4.3665 535.7047)" gradientUnits="userSpaceOnUse">
				<stop  offset="0.2699" style="stop-color:#CD9C5C"/>
				<stop  offset="1" style="stop-color:#7E5428"/>
			</radialGradient>
			<path fill="url(#SVGID_66_)" d="M68.261,98.191c0,0,2.162,2.758,2.325,6.157c0.161,3.403-0.506,10.12,5.171,12.719
				c5.676,2.598,5.676,2.598,5.676,2.598s-3.854-2.271-3.643-9.07C78.004,103.793,73.063,100.648,68.261,98.191z"/>
			
				<radialGradient id="SVGID_67_" cx="136.0293" cy="172.8955" r="6.6767" gradientTransform="matrix(0.8504 -0.4065 -0.5683 -1.9365 66.2561 498.9093)" gradientUnits="userSpaceOnUse">
				<stop  offset="0.2699" style="stop-color:#CD9C5C"/>
				<stop  offset="1" style="stop-color:#7E5428"/>
			</radialGradient>
			<path fill="url(#SVGID_67_)" d="M77.351,101.756c0,0,2.349,2.494,2.754,5.86c0.404,3.37,0.219,10.138,6.058,12.063
				C92,121.607,92,121.607,92,121.607s-4.001-1.813-4.275-8.609C87.452,106.2,82.308,103.645,77.351,101.756z"/>
			
				<radialGradient id="SVGID_68_" cx="78.1875" cy="155.8535" r="6.6762" gradientTransform="matrix(0.8107 -0.522 -0.7298 -1.846 143.6082 439.2737)" gradientUnits="userSpaceOnUse">
				<stop  offset="0.2699" style="stop-color:#CD9C5C"/>
				<stop  offset="1" style="stop-color:#7E5428"/>
			</radialGradient>
			<path fill="url(#SVGID_68_)" d="M86.374,104.631c0,0,2.547,2.154,3.236,5.445c0.688,3.293,1.08,10.047,7.049,11.152
				c5.967,1.104,5.967,1.104,5.967,1.104s-4.131-1.246-4.982-7.964C96.794,107.648,91.462,105.82,86.374,104.631z"/>
			
				<radialGradient id="SVGID_69_" cx="19.519" cy="148.8115" r="6.6759" gradientTransform="matrix(0.7618 -0.6306 -0.8817 -1.7349 219.4402 381.4335)" gradientUnits="userSpaceOnUse">
				<stop  offset="0.2699" style="stop-color:#CD9C5C"/>
				<stop  offset="1" style="stop-color:#7E5428"/>
			</radialGradient>
			<path fill="url(#SVGID_69_)" d="M95.737,105.803c0,0,2.715,1.79,3.678,4.967c0.963,3.181,1.924,9.838,7.951,10.117
				c6.024,0.275,6.024,0.275,6.024,0.275s-4.211-0.67-5.627-7.23C106.352,107.367,100.896,106.284,95.737,105.803z"/>
			
				<radialGradient id="SVGID_70_" cx="-57.9731" cy="145.0547" r="6.6764" gradientTransform="matrix(0.689 -0.7548 -1.0553 -1.5689 305.8354 293.2383)" gradientUnits="userSpaceOnUse">
				<stop  offset="0.2699" style="stop-color:#CD9C5C"/>
				<stop  offset="1" style="stop-color:#7E5428"/>
			</radialGradient>
			<path fill="url(#SVGID_70_)" d="M104.984,105.574c0,0,2.879,1.311,4.166,4.295c1.287,2.988,2.937,9.423,8.938,8.671
				s6.002-0.752,6.002-0.752s-4.245,0.054-6.335-6.208C115.669,105.314,110.148,105.172,104.984,105.574z"/>
			
				<radialGradient id="SVGID_71_" cx="-176.2769" cy="166.627" r="6.6768" gradientTransform="matrix(0.553 -0.9306 -1.2882 -1.2998 434.1738 159.1626)" gradientUnits="userSpaceOnUse">
				<stop  offset="0.2699" style="stop-color:#CD9C5C"/>
				<stop  offset="1" style="stop-color:#7E5428"/>
			</radialGradient>
			<path fill="url(#SVGID_71_)" d="M113.74,104.775c0,0,3.033,0.576,4.777,3.231c1.744,2.659,4.402,8.675,10.162,6.392
				s5.76-2.283,5.76-2.283s-4.151,1.137-7.213-4.592C124.167,101.79,118.734,103.057,113.74,104.775z"/>
			
				<radialGradient id="SVGID_72_" cx="-248.9614" cy="184.6963" r="6.6755" gradientTransform="matrix(0.4513 -1.016 -1.4119 -1.0703 504.8809 47.7693)" gradientUnits="userSpaceOnUse">
				<stop  offset="0.2699" style="stop-color:#CD9C5C"/>
				<stop  offset="1" style="stop-color:#7E5428"/>
			</radialGradient>
			<path fill="url(#SVGID_72_)" d="M123.331,102.609c0,0,3.065,0.059,5.071,2.395c2.007,2.341,5.267,7.854,10.736,4.615
				c5.471-3.239,5.471-3.239,5.471-3.239s-3.996,1.829-7.627-3.33C133.354,97.885,128.104,100.06,123.331,102.609z"/>
			
				<radialGradient id="SVGID_73_" cx="-367.2866" cy="232.3623" r="6.6772" gradientTransform="matrix(0.2718 -1.1152 -1.5579 -0.6629 600.8564 -158.1718)" gradientUnits="userSpaceOnUse">
				<stop  offset="0.2699" style="stop-color:#CD9C5C"/>
				<stop  offset="1" style="stop-color:#7E5428"/>
			</radialGradient>
			<path fill="url(#SVGID_73_)" d="M130.729,99.262c0,0,3.008-0.775,5.354,0.963c2.353,1.744,6.453,6.246,11.263,1.598
				c4.807-4.648,4.807-4.648,4.807-4.648s-3.603,2.872-8.008-1.185C139.736,91.926,134.968,95.475,130.729,99.262z"/>
			
				<radialGradient id="SVGID_74_" cx="-266.3574" cy="178.04" r="6.6764" gradientTransform="matrix(0.5215 -0.9487 -1.3264 -1.1875 442.6902 2.817)" gradientUnits="userSpaceOnUse">
				<stop  offset="0.2699" style="stop-color:#CD9C5C"/>
				<stop  offset="1" style="stop-color:#7E5428"/>
			</radialGradient>
			<path fill="url(#SVGID_74_)" d="M59.222,42.541c0,0,3.041,0.363,4.867,2.849c1.826,2.487,4.67,8.204,10.34,5.582
				c5.67-2.622,5.67-2.622,5.67-2.622s-4.104,1.391-7.34-4.019C69.522,38.92,64.146,40.523,59.222,42.541z"/>
			
				<radialGradient id="SVGID_75_" cx="-386.1123" cy="205.2441" r="6.6767" gradientTransform="matrix(0.3835 -1.0504 -1.4685 -0.8734 508.4651 -176.2474)" gradientUnits="userSpaceOnUse">
				<stop  offset="0.2699" style="stop-color:#CD9C5C"/>
				<stop  offset="1" style="stop-color:#7E5428"/>
			</radialGradient>
			<path fill="url(#SVGID_75_)" d="M50.49,50.421c0,0,3.046-0.321,5.183,1.719c2.139,2.042,5.722,7.037,10.945,3.191
				c5.225-3.846,5.225-3.846,5.225-3.846s-3.851,2.284-7.777-2.32C60.138,44.559,55.063,47.335,50.49,50.421z"/>
			
				<radialGradient id="SVGID_76_" cx="-490.5962" cy="340.9805" r="6.6758" gradientTransform="matrix(0.0049 -1.2247 -1.5295 -0.8893 576.4379 -242.0245)" gradientUnits="userSpaceOnUse">
				<stop  offset="0.2699" style="stop-color:#CD9C5C"/>
				<stop  offset="1" style="stop-color:#7E5428"/>
			</radialGradient>
			<path fill="url(#SVGID_76_)" d="M45.316,56.588c0,0,2.513-0.587,4.978,1.585c2.464,2.173,7.08,7.606,10.374,2.846
				c3.295-4.76,3.295-4.76,3.295-4.76s-2.599,2.881-7.389-2.083C51.784,49.211,48.288,52.742,45.316,56.588z"/>
			
				<radialGradient id="SVGID_77_" cx="-667.8008" cy="444.1631" r="6.6759" gradientTransform="matrix(-0.267 -1.1764 -1.6642 -0.3003 609.1292 -588.968)" gradientUnits="userSpaceOnUse">
				<stop  offset="0.2699" style="stop-color:#CD9C5C"/>
				<stop  offset="1" style="stop-color:#7E5428"/>
			</radialGradient>
			<path fill="url(#SVGID_77_)" d="M41.584,66.814c0,0,2.28-1.471,5.125-0.277c2.845,1.193,8.478,4.737,10.582-1.019
				s2.104-5.756,2.104-5.756s-1.854,3.702-7.548,0.672C46.151,57.402,43.582,62.052,41.584,66.814z"/>
			
				<radialGradient id="SVGID_78_" cx="25.4644" cy="170.249" r="6.9352" gradientTransform="matrix(0.7584 -0.6373 -0.891 -1.7269 240.8906 348.7174)" gradientUnits="userSpaceOnUse">
				<stop  offset="0.2699" style="stop-color:#CD9C5C"/>
				<stop  offset="1" style="stop-color:#7E5428"/>
			</radialGradient>
			<path fill="url(#SVGID_78_)" d="M100.854,32.893c0,0,2.828,1.834,3.848,5.126s2.054,10.2,8.314,10.434
				c6.262,0.233,6.262,0.233,6.262,0.233s-4.381-0.658-5.887-7.461C111.889,34.42,106.215,33.347,100.854,32.893z"/>
			
				<radialGradient id="SVGID_79_" cx="113.8867" cy="178.0518" r="6.9346" gradientTransform="matrix(0.8119 -0.519 -0.7256 -1.8488 156.5538 429.0919)" gradientUnits="userSpaceOnUse">
				<stop  offset="0.2699" style="stop-color:#CD9C5C"/>
				<stop  offset="1" style="stop-color:#7E5428"/>
			</radialGradient>
			<path fill="url(#SVGID_79_)" d="M112.73,34.089c0,0,2.641,2.246,3.348,5.668c0.708,3.422,1.1,10.437,7.294,11.61
				c6.198,1.172,6.198,1.172,6.198,1.172s-4.291-1.312-5.157-8.294C123.548,37.263,118.014,35.345,112.73,34.089z"/>
			
				<radialGradient id="SVGID_80_" cx="203.959" cy="197.4502" r="6.9342" gradientTransform="matrix(0.8561 -0.3863 -0.5402 -1.9494 62.5066 509.0125)" gradientUnits="userSpaceOnUse">
				<stop  offset="0.2699" style="stop-color:#CD9C5C"/>
				<stop  offset="1" style="stop-color:#7E5428"/>
			</radialGradient>
			<path fill="url(#SVGID_80_)" d="M124.073,37.523c0,0,2.401,2.647,2.771,6.155c0.371,3.508,0.076,10.53,6.109,12.675
				c6.035,2.145,6.035,2.145,6.035,2.145s-4.129-1.98-4.312-9.047C134.497,42.384,129.193,39.605,124.073,37.523z"/>
			
				<radialGradient id="SVGID_81_" cx="328.1885" cy="241.3369" r="6.766" gradientTransform="matrix(0.8982 -0.17 -0.2376 -2.0454 -97.6602 599.7989)" gradientUnits="userSpaceOnUse">
				<stop  offset="0.2699" style="stop-color:#CD9C5C"/>
				<stop  offset="1" style="stop-color:#7E5428"/>
			</radialGradient>
			<path fill="url(#SVGID_81_)" d="M134.809,41.404c0,0,1.912,3.108,1.754,6.554c-0.16,3.449-1.472,10.103,3.994,13.595
				c5.463,3.493,5.463,3.493,5.463,3.493s-3.662-2.882-2.802-9.691C144.077,48.545,139.404,44.619,134.809,41.404z"/>
			
				<radialGradient id="SVGID_82_" cx="535.3301" cy="393.8018" r="5.877" gradientTransform="matrix(0.8721 0.3228 0.4512 -1.9859 -498.2862 667.3299)" gradientUnits="userSpaceOnUse">
				<stop  offset="0.2699" style="stop-color:#CD9C5C"/>
				<stop  offset="1" style="stop-color:#7E5428"/>
			</radialGradient>
			<path fill="url(#SVGID_82_)" d="M144.827,48.686c0,0,0.979,1.669-0.218,4.54c-1.194,2.873-3.17,8.352-0.336,14.242
				c3.011,6.257,2.703,5.099,2.703,5.099s-2.25-4.298,0.576-9.697C150.382,57.473,147.773,53.736,144.827,48.686z"/>
			
				<radialGradient id="SVGID_83_" cx="636.5684" cy="590.9209" r="5.9271" gradientTransform="matrix(0.6952 0.7456 1.0424 -1.5829 -908.5852 525.1465)" gradientUnits="userSpaceOnUse">
				<stop  offset="0.2699" style="stop-color:#CD9C5C"/>
				<stop  offset="1" style="stop-color:#7E5428"/>
			</radialGradient>
			<path fill="url(#SVGID_83_)" d="M150.335,55.557c0,0,0.414,2.94-0.926,5.112c-1.578,2.555-4.918,4.777-4.193,11.627
				c0.769,7.277,0.298,5.581,0.298,5.581s0.454-3.934,4.534-7.813C155.323,65.046,153.018,61.191,150.335,55.557z"/>
			
				<radialGradient id="SVGID_84_" cx="-424.5352" cy="251.168" r="4.6548" gradientTransform="matrix(-0.2745 -1.1047 -1.5445 0.6251 317.6385 -554.0665)" gradientUnits="userSpaceOnUse">
				<stop  offset="0.2699" style="stop-color:#CD9C5C"/>
				<stop  offset="1" style="stop-color:#7E5428"/>
			</radialGradient>
			<path fill="url(#SVGID_84_)" d="M41.584,72.103c0,0-0.072-3.787,5.376-3.39c5.449,0.396,7.189,0.929,6.886,2.545
				c-0.303,1.617,0.756,2.873-1.514,3.162c-2.27,0.291-5.675-0.289-7.567,1.062c-1.892,1.353-3.957,4.266-3.901,1.699
				C40.921,74.615,41.584,72.103,41.584,72.103z"/>
			
				<radialGradient id="SVGID_85_" cx="-502.3379" cy="375.5723" r="5.0442" gradientTransform="matrix(-0.7657 -0.6228 -0.8708 1.7438 -10.2609 -887.0472)" gradientUnits="userSpaceOnUse">
				<stop  offset="0.2699" style="stop-color:#CD9C5C"/>
				<stop  offset="1" style="stop-color:#7E5428"/>
			</radialGradient>
			<path fill="url(#SVGID_85_)" d="M43.018,86.804c0,0-1.459-3.823,0.594-6.442c2.054-2.621,6.276-2.749,7.391-4.5
				c1.115-1.751,1.692-2.718,1.692-2.718s0.579,3.89,0.073,5.554c-0.507,1.667-4.444,6.039-5.877,8.186
				C45.458,89.029,44.082,90.568,43.018,86.804z"/>
			
				<radialGradient id="SVGID_86_" cx="-25.8638" cy="1040.2266" r="5.0452" gradientTransform="matrix(-0.2677 1.1074 1.5483 0.6096 -1471.8052 -514.3834)" gradientUnits="userSpaceOnUse">
				<stop  offset="0.2699" style="stop-color:#CD9C5C"/>
				<stop  offset="1" style="stop-color:#7E5428"/>
			</radialGradient>
			<path fill="url(#SVGID_86_)" d="M152.661,91.728c0,0-0.89,4.099-3.789,4.328c-2.896,0.229-6.129-3.241-7.873-2.87
				s-2.679,0.607-2.679,0.607s1.584-3.404,2.826-4.225c1.244-0.821,6.463-0.773,8.65-1.172
				C151.984,87.999,153.814,88.008,152.661,91.728z"/>
			
				<radialGradient id="SVGID_87_" cx="-16.3164" cy="548.3018" r="6.6436" gradientTransform="matrix(-0.5164 -0.87 -1.7849 0.6291 1120.4971 -284.5777)" gradientUnits="userSpaceOnUse">
				<stop  offset="0.2699" style="stop-color:#CD9C5C"/>
				<stop  offset="1" style="stop-color:#7E5428"/>
			</radialGradient>
			<path fill="url(#SVGID_87_)" d="M155.691,66.576c0,0-1.155,2.907-4.004,4.092c-2.848,1.186-6.117,3.898-6.574,10.223
				c-0.233,3.232-0.516,4.815-0.516,4.815s-0.279-3.879,5.719-5.733S156.29,71.924,155.691,66.576z"/>
			
				<radialGradient id="SVGID_88_" cx="-278.8022" cy="866.4375" r="4.6551" gradientTransform="matrix(-0.2064 -1.1285 -1.5778 0.4697 1460.1805 -638.5509)" gradientUnits="userSpaceOnUse">
				<stop  offset="0.2699" style="stop-color:#CD9C5C"/>
				<stop  offset="1" style="stop-color:#7E5428"/>
			</radialGradient>
			<path fill="url(#SVGID_88_)" d="M156.1,82.225c0,0,0.684,3.686-4.711,4.736c-5.396,1.05-7.185,0.989-7.148-0.672
				c0.031-1.663-1.207-2.611,0.967-3.494s5.6-1.215,7.232-3.037c1.631-1.822,3.178-5.218,3.539-2.691
				C156.339,79.592,156.1,82.225,156.1,82.225z"/>
		</g>
		<path fill="#8B5E3C" d="M65.595,167.611c-1.183,0-3.526,3.082-4.617,2.256c-1.003-0.76-0.969-4.422-1.529-5.613
			c-0.656-1.395-2.451-1.143-2.433-2.766c0.017-1.465,2.405-6.09,3.032-7.44c4.377-9.46,11.315-31.267,4.846-38.325
			c-1.574-1.717-3.373-3.481-5.279-5.353c-8.979-8.81-20.152-19.772-19.031-37.622c1.127-17.936,12.576-31.283,32.238-37.58
			c3.647-1.167,7.348,1.658,8.264,6.314c0.916,4.656-1.3,9.377-4.947,10.545c-7.848,2.513-21.137,8.728-21.977,22.109
			c-0.494,7.85,5.126,13.986,13.756,22.453c1.959,1.923,3.984,3.91,5.826,5.92c16.846,18.378-0.006,56.162-1.982,60.41
			c-0.318,0.685-0.139,6.131-0.566,6.658C69.911,171.158,67.338,167.611,65.595,167.611z"/>
		<g>
			
				<radialGradient id="SVGID_89_" cx="-86.4062" cy="165.8164" r="6.6764" gradientTransform="matrix(0.6849 -0.7609 -1.0638 -1.5595 322.4117 231.1945)" gradientUnits="userSpaceOnUse">
				<stop  offset="0.2699" style="stop-color:#CD9C5C"/>
				<stop  offset="1" style="stop-color:#7E5428"/>
			</radialGradient>
			<path fill="url(#SVGID_89_)" d="M78.962,34.27c0,0,2.885,1.286,4.188,4.259c1.304,2.975,2.987,9.396,8.985,8.59
				c5.998-0.806,5.998-0.806,5.998-0.806s-4.246,0.091-6.369-6.153C89.644,33.916,84.124,33.822,78.962,34.27z"/>
			
				<radialGradient id="SVGID_90_" cx="-152.1377" cy="166.6699" r="6.6761" gradientTransform="matrix(0.6336 -0.83 -1.1606 -1.4428 366.6063 154.4866)" gradientUnits="userSpaceOnUse">
				<stop  offset="0.2699" style="stop-color:#CD9C5C"/>
				<stop  offset="1" style="stop-color:#7E5428"/>
			</radialGradient>
			<path fill="url(#SVGID_90_)" d="M68.667,37.049c0,0,2.957,0.979,4.447,3.806c1.491,2.828,3.582,9.051,9.508,7.62
				c5.926-1.431,5.926-1.431,5.926-1.431s-4.225,0.535-6.742-5.465C79.29,35.577,73.782,36.062,68.667,37.049z"/>
			
				<radialGradient id="SVGID_91_" cx="496.4766" cy="491.3076" r="6.6762" gradientTransform="matrix(0.7695 0.6153 0.8602 -1.7521 -751.0831 642.6915)" gradientUnits="userSpaceOnUse">
				<stop  offset="0.2699" style="stop-color:#CD9C5C"/>
				<stop  offset="1" style="stop-color:#7E5428"/>
			</radialGradient>
			<path fill="url(#SVGID_91_)" d="M54.124,76.65c0,0-0.125,3.897-1.977,6.354s-6.177,6.377-3.83,13.469
				c2.347,7.087,2.347,7.087,2.347,7.087s-1.302-5.157,2.762-9.562C57.493,89.592,55.959,82.824,54.124,76.65z"/>
			
				<radialGradient id="SVGID_92_" cx="446.8818" cy="389.4541" r="6.7081" gradientTransform="matrix(0.8573 0.3822 0.5342 -1.9521 -532.3763 685.8792)" gradientUnits="userSpaceOnUse">
				<stop  offset="0.2699" style="stop-color:#CD9C5C"/>
				<stop  offset="1" style="stop-color:#7E5428"/>
			</radialGradient>
			<path fill="url(#SVGID_92_)" d="M57.539,85.82c0,0,0.555,3.835-0.823,6.754c-1.379,2.919-6.018,9.271-1.395,14.217
				c4.484,4.794,5.158,4.729,5.158,4.729s-2.272-2.707-0.606-8.588C61.688,96.53,60.401,91.32,57.539,85.82z"/>
			
				<radialGradient id="SVGID_93_" cx="376.1992" cy="315.8145" r="6.6616" gradientTransform="matrix(0.9196 0.1205 0.2466 -2.1088 -358.6104 721.8726)" gradientUnits="userSpaceOnUse">
				<stop  offset="0.2699" style="stop-color:#CD9C5C"/>
				<stop  offset="1" style="stop-color:#7E5428"/>
			</radialGradient>
			<path fill="url(#SVGID_93_)" d="M62.331,91.078c0,0,1.129,3.654,0.178,6.983c-0.951,3.332-3.758,9.438,0.717,14.601
				c4.475,5.161,5.226,4.072,5.226,4.072s-3.626-2.9-1.22-9.303C69.639,101.027,66.031,95.691,62.331,91.078z"/>
			
				<radialGradient id="SVGID_94_" cx="-266.3574" cy="178.04" r="6.6764" gradientTransform="matrix(0.5215 -0.9487 -1.3264 -1.1875 442.6902 2.817)" gradientUnits="userSpaceOnUse">
				<stop  offset="0.2699" style="stop-color:#CD9C5C"/>
				<stop  offset="1" style="stop-color:#7E5428"/>
			</radialGradient>
			<path fill="url(#SVGID_94_)" d="M59.222,42.541c0,0,3.041,0.363,4.867,2.849c1.826,2.487,4.67,8.204,10.34,5.582
				c5.67-2.622,5.67-2.622,5.67-2.622s-4.104,1.391-7.34-4.019C69.522,38.92,64.146,40.523,59.222,42.541z"/>
			
				<radialGradient id="SVGID_95_" cx="-386.1123" cy="205.2441" r="6.6767" gradientTransform="matrix(0.3835 -1.0504 -1.4685 -0.8734 508.4651 -176.2474)" gradientUnits="userSpaceOnUse">
				<stop  offset="0.2699" style="stop-color:#CD9C5C"/>
				<stop  offset="1" style="stop-color:#7E5428"/>
			</radialGradient>
			<path fill="url(#SVGID_95_)" d="M50.49,50.421c0,0,3.046-0.321,5.183,1.719c2.139,2.042,5.722,7.037,10.945,3.191
				c5.225-3.846,5.225-3.846,5.225-3.846s-3.851,2.284-7.777-2.32C60.138,44.559,55.063,47.335,50.49,50.421z"/>
			
				<radialGradient id="SVGID_96_" cx="-490.5962" cy="340.9805" r="6.6758" gradientTransform="matrix(0.0049 -1.2247 -1.5295 -0.8893 576.4379 -242.0245)" gradientUnits="userSpaceOnUse">
				<stop  offset="0.2699" style="stop-color:#CD9C5C"/>
				<stop  offset="1" style="stop-color:#7E5428"/>
			</radialGradient>
			<path fill="url(#SVGID_96_)" d="M45.316,56.588c0,0,2.513-0.587,4.978,1.585c2.464,2.173,7.08,7.606,10.374,2.846
				c3.295-4.76,3.295-4.76,3.295-4.76s-2.599,2.881-7.389-2.083C51.784,49.211,48.288,52.742,45.316,56.588z"/>
			
				<radialGradient id="SVGID_97_" cx="-667.8008" cy="444.1631" r="6.6759" gradientTransform="matrix(-0.267 -1.1764 -1.6642 -0.3003 609.1292 -588.968)" gradientUnits="userSpaceOnUse">
				<stop  offset="0.2699" style="stop-color:#CD9C5C"/>
				<stop  offset="1" style="stop-color:#7E5428"/>
			</radialGradient>
			<path fill="url(#SVGID_97_)" d="M41.584,66.814c0,0,2.28-1.471,5.125-0.277c2.845,1.193,8.478,4.737,10.582-1.019
				s2.104-5.756,2.104-5.756s-1.854,3.702-7.548,0.672C46.151,57.402,43.582,62.052,41.584,66.814z"/>
			
				<radialGradient id="SVGID_98_" cx="519.082" cy="322.8096" r="5.8771" gradientTransform="matrix(0.9453 0.2532 0.6236 -2.1497 -620.4833 671.9448)" gradientUnits="userSpaceOnUse">
				<stop  offset="0.2699" style="stop-color:#CD9C5C"/>
				<stop  offset="1" style="stop-color:#7E5428"/>
			</radialGradient>
			<path fill="url(#SVGID_98_)" d="M70.505,99.629c0,0,0.979,1.67-0.522,4.832c-1.503,3.164-4.032,9.169-1.263,15.121
				c2.941,6.324,2.674,5.127,2.674,5.127s-2.223-4.324,1.244-10.33C76.105,108.373,73.453,104.68,70.505,99.629z"/>
			
				<radialGradient id="SVGID_99_" cx="651.1611" cy="512.7275" r="5.9254" gradientTransform="matrix(0.759 0.7568 1.2887 -1.582 -1080.0864 435.9359)" gradientUnits="userSpaceOnUse">
				<stop  offset="0.2699" style="stop-color:#CD9C5C"/>
				<stop  offset="1" style="stop-color:#7E5428"/>
			</radialGradient>
			<path fill="url(#SVGID_99_)" d="M75.888,108.721c0,0,0.313,2.963-1.351,5.133c-1.958,2.556-5.93,4.758-5.478,11.654
				c0.479,7.329,0.031,5.617,0.031,5.617s0.744-3.951,5.658-7.814C81.104,118.316,78.663,114.415,75.888,108.721z"/>
			
				<radialGradient id="SVGID_100_" cx="-424.5352" cy="251.168" r="4.6548" gradientTransform="matrix(-0.2745 -1.1047 -1.5445 0.6251 317.6385 -554.0665)" gradientUnits="userSpaceOnUse">
				<stop  offset="0.2699" style="stop-color:#CD9C5C"/>
				<stop  offset="1" style="stop-color:#7E5428"/>
			</radialGradient>
			<path fill="url(#SVGID_100_)" d="M41.584,72.103c0,0-0.072-3.787,5.376-3.39c5.449,0.396,7.189,0.929,6.886,2.545
				c-0.303,1.617,0.756,2.873-1.514,3.162c-2.27,0.291-5.675-0.289-7.567,1.062c-1.892,1.353-3.957,4.266-3.901,1.699
				C40.921,74.615,41.584,72.103,41.584,72.103z"/>
			
				<radialGradient id="SVGID_101_" cx="-502.3379" cy="375.5723" r="5.0442" gradientTransform="matrix(-0.7657 -0.6228 -0.8708 1.7438 -10.2609 -887.0472)" gradientUnits="userSpaceOnUse">
				<stop  offset="0.2699" style="stop-color:#CD9C5C"/>
				<stop  offset="1" style="stop-color:#7E5428"/>
			</radialGradient>
			<path fill="url(#SVGID_101_)" d="M43.018,86.804c0,0-1.459-3.823,0.594-6.442c2.054-2.621,6.276-2.749,7.391-4.5
				c1.115-1.751,1.692-2.718,1.692-2.718s0.579,3.89,0.073,5.554c-0.507,1.667-4.444,6.039-5.877,8.186
				C45.458,89.029,44.082,90.568,43.018,86.804z"/>
			
				<radialGradient id="SVGID_102_" cx="54.4023" cy="488.5859" r="6.6444" gradientTransform="matrix(-0.5616 -0.8935 -2.0606 0.5452 1110.9626 -89.869)" gradientUnits="userSpaceOnUse">
				<stop  offset="0.2699" style="stop-color:#CD9C5C"/>
				<stop  offset="1" style="stop-color:#7E5428"/>
			</radialGradient>
			<path fill="url(#SVGID_102_)" d="M80.077,120.184c0,0-1.416,2.852-4.71,3.903c-3.293,1.052-7.12,3.61-7.849,9.908
				c-0.373,3.22-0.746,4.788-0.746,4.788s-0.191-3.889,6.722-5.463C80.41,131.748,80.585,125.555,80.077,120.184z"/>
			
				<radialGradient id="SVGID_103_" cx="-664.9922" cy="353.6025" r="6.4626" gradientTransform="matrix(-0.1013 -1.1607 -1.6355 0.1895 572.4061 -681.1497)" gradientUnits="userSpaceOnUse">
				<stop  offset="0.2699" style="stop-color:#CD9C5C"/>
				<stop  offset="1" style="stop-color:#7E5428"/>
			</radialGradient>
			<path fill="url(#SVGID_103_)" d="M54.569,162.868c0,0,2.326-0.204,5.025,0.188c2.699,0.396,7.873,2.422,10.818-4.297
				c2.943-6.717,2.943-6.717,2.943-6.717s-2.397,4.473-7.708,3.008C60.336,153.584,57.264,157.232,54.569,162.868z"/>
			
				<radialGradient id="SVGID_104_" cx="-696.2603" cy="409.835" r="6.6772" gradientTransform="matrix(-0.1994 -1.1398 -1.6096 0.415 587.1526 -814.2616)" gradientUnits="userSpaceOnUse">
				<stop  offset="0.2699" style="stop-color:#CD9C5C"/>
				<stop  offset="1" style="stop-color:#7E5428"/>
			</radialGradient>
			<path fill="url(#SVGID_104_)" d="M59.833,156.314c0,0,2.305-2.582,5.021-2.566c2.718,0.02,8.032,1.316,10.39-5.77
				c2.354-7.084,2.354-7.084,2.354-7.084s-2.002,4.776-7.406,4.059C64.783,144.23,62.032,150.339,59.833,156.314z"/>
			
				<radialGradient id="SVGID_105_" cx="-696.6626" cy="442.7891" r="6.6775" gradientTransform="matrix(-0.2274 -1.1312 -1.5986 0.4796 619.0246 -860.3986)" gradientUnits="userSpaceOnUse">
				<stop  offset="0.2699" style="stop-color:#CD9C5C"/>
				<stop  offset="1" style="stop-color:#7E5428"/>
			</radialGradient>
			<path fill="url(#SVGID_105_)" d="M63.313,147.182c0,0,2.24-2.674,4.955-2.768c2.717-0.091,8.062,0.992,10.242-6.186
				c2.177-7.177,2.177-7.177,2.177-7.177s-1.884,4.857-7.302,4.355C67.964,134.904,65.364,141.119,63.313,147.182z"/>
		</g>
		<path fill="#4D2B18" d="M71.489,167.131c0,0-0.115-1.477,2.99-10.717c3.105-9.239,6.666-23.561,6.66-32.838
			c-0.006-9.279-7.914-22.342-7.914-22.342s5.37,6.582,7.75,15.502c0.547,2.053,2.621,6.84,4.652,7.812
			c1.001,0.479-2.724,0.25-3.662,2.813c-1.643,4.488-2.1,10.304-0.236,14.214c1.546,3.245,1.642,7.571-0.195,8.075
			c-2.932,0.806-5.529,7.607-5.895,9.789c-0.852,5.099,1.957,7.59,1.957,7.59L71.489,167.131z"/>
		
			<linearGradient id="SVGID_106_" gradientUnits="userSpaceOnUse" x1="110.2109" y1="-66.7393" x2="117.7154" y2="-67.6773" gradientTransform="matrix(1 0 0 -1 -50 61)">
			<stop  offset="0.2242" style="stop-color:#683F2D;stop-opacity:0"/>
			<stop  offset="0.8182" style="stop-color:#4D2B18"/>
		</linearGradient>
		<path fill="url(#SVGID_106_)" d="M57.016,109.346c0,0,10.322,6.467,11.245,12.359c0.924,5.895-2.793,17.018-4.577,23.322
			c-1.784,6.304-3.854,9.156-5.204,11.287c-1.352,2.133-4.359,3.127-4.359,3.127l-5.976-3.905c0,0,8.083-16.11,8.33-25.485
			c0.248-9.373-6.09-16.455-9.504-21.123c-3.415-4.668-2.7-15.646-2.7-15.646S46.8,103.578,57.016,109.346z"/>
		
			<linearGradient id="SVGID_107_" gradientUnits="userSpaceOnUse" x1="137.8311" y1="-80.4634" x2="129.2375" y2="-78.7097" gradientTransform="matrix(1 0 0 -1 -50 61)">
			<stop  offset="0.2242" style="stop-color:#683F2D;stop-opacity:0"/>
			<stop  offset="0.8182" style="stop-color:#4D2B18"/>
		</linearGradient>
		<path fill="url(#SVGID_107_)" d="M79.161,111.486c0,0,5.906,9.166,8.76,14.875c2.854,5.711-0.584,16.535-4.389,23.291
			c-3.807,6.756,2.266,18.162,2.266,18.162s-11.838,0.555-11.906-2.047c-0.068-2.601,4.38-18.063,5.27-24.191
			C80.688,131.053,83.47,118.822,79.161,111.486z"/>
		<path d="M99.511,92.146c-14.529,0-21.5,5.344-25.619,6.045c3.879,3.934,11.09,5.37,25.619,5.37c14.531,0,20.205-1.873,23.82-5.708
			C118.684,97.152,114.042,92.146,99.511,92.146z"/>
	</g>
</g>
</svg>
