<?xml version="1.0" encoding="utf-8"?>
<!-- Generator: Adobe Illustrator 15.0.0, SVG Export Plug-In . SVG Version: 6.00 Build 0)  -->
<!DOCTYPE svg PUBLIC "-//W3C//DTD SVG 1.1//EN" "http://www.w3.org/Graphics/SVG/1.1/DTD/svg11.dtd">
<svg version="1.1" xmlns="http://www.w3.org/2000/svg" xmlns:xlink="http://www.w3.org/1999/xlink" x="0px" y="0px" width="200px"
	 height="200px" viewBox="0 0 200 200" enable-background="new 0 0 200 200" xml:space="preserve">
<g id="icon">
	<g id="Layer_2">
	</g>
	<g>
		
			<ellipse transform="matrix(-0.4744 -0.8803 0.8803 -0.4744 58.2289 129.3341)" fill="#474747" cx="67.724" cy="47.284" rx="2.846" ry="8.876"/>
		
			<linearGradient id="SVGID_1_" gradientUnits="userSpaceOnUse" x1="2216.4951" y1="936.8408" x2="2231.4106" y2="936.8408" gradientTransform="matrix(0.8712 -0.4909 -0.4909 -0.8712 -1390.9199 1987.0671)">
			<stop  offset="0" style="stop-color:#684014"/>
			<stop  offset="0.8221" style="stop-color:#C16703"/>
			<stop  offset="1" style="stop-color:#874E0F"/>
		</linearGradient>
		<path fill="url(#SVGID_1_)" d="M112.443,109.1c3.309,5.573,1.147,9.118-2.748,11.313l0,0c-3.896,2.196-8.049,2.206-11.356-3.368
			L56.488,42.562c0.85,1.209,2.342-1.933,6.239-4.129l0,0c3.896-2.193,7.677-1.957,6.827-3.166L112.443,109.1z"/>
		
			<linearGradient id="SVGID_2_" gradientUnits="userSpaceOnUse" x1="98.2871" y1="-90.4268" x2="91.5164" y2="-103.2554" gradientTransform="matrix(1 0 0 -1 -50 61)">
			<stop  offset="0" style="stop-color:#D16E00"/>
			<stop  offset="0.1896" style="stop-color:#B56205"/>
			<stop  offset="0.5959" style="stop-color:#6E4313"/>
			<stop  offset="1" style="stop-color:#222222"/>
		</linearGradient>
		<path fill="url(#SVGID_2_)" d="M112.443,109.1L69.555,35.268c0.85,1.209-2.932,0.973-6.827,3.166
			c-1.479,0.834-2.61,1.804-3.379,2.807c0.499-0.393,1.055-0.771,1.679-1.123c3.896-2.193,7.678-1.958,6.828-3.166l42.889,73.832
			c2.831,4.727,2.31,6.573,0.899,8.309C114.266,116.969,115.527,114.273,112.443,109.1z"/>
		
			<radialGradient id="SVGID_3_" cx="631.8545" cy="216.5908" r="63.0273" gradientTransform="matrix(0.9631 0.269 0.269 -0.9631 -541.7341 152.0428)" gradientUnits="userSpaceOnUse">
			<stop  offset="0" style="stop-color:#D8E4F3"/>
			<stop  offset="0.337" style="stop-color:#BEC5D4"/>
			<stop  offset="0.6777" style="stop-color:#8E9FB6"/>
			<stop  offset="1" style="stop-color:#5C6C7E"/>
		</radialGradient>
		<path fill="url(#SVGID_3_)" d="M127.516,95.127c0,0-15.899,2.824-30.324,8.188c-14.338,5.334-27.2,13.209-27.2,13.209
			c-3.381,1.944-5.132,5.367-3.149,8.897l18.985,33.782c13.185,23.488,55.874,23.125,55.874,23.125s28.31-26.045,15.127-49.531
			l-18.987-33.784C135.857,95.482,131.973,94.33,127.516,95.127z"/>
		
			<radialGradient id="SVGID_4_" cx="626.498" cy="173.0537" r="38.1721" gradientTransform="matrix(0.9631 0.269 0.269 -0.9631 -541.7341 152.0428)" gradientUnits="userSpaceOnUse">
			<stop  offset="0" style="stop-color:#FFFFFF"/>
			<stop  offset="1" style="stop-color:#8E9FB6"/>
		</radialGradient>
		<path fill="url(#SVGID_4_)" d="M142.521,179.395c0,0-42.691,0.363-55.876-23.123L67.66,122.488
			c-0.566-1.012-0.818-2.012-0.824-2.971c-1.024,1.737-1.175,3.801,0.006,5.902l18.985,33.782
			c13.185,23.487,55.874,23.125,55.874,23.125s13.976-12.856,17.715-28.652C154.797,168.098,142.521,179.395,142.521,179.395z"/>
		
			<linearGradient id="SVGID_5_" gradientUnits="userSpaceOnUse" x1="618.498" y1="218.7129" x2="606.3635" y2="206.5783" gradientTransform="matrix(0.9631 0.269 0.269 -0.9631 -541.7341 152.0428)">
			<stop  offset="0" style="stop-color:#C5D1E3"/>
			<stop  offset="1" style="stop-color:#5C6572"/>
		</linearGradient>
		<path fill="url(#SVGID_5_)" d="M97.918,90.881c-9.049,2.898-11.32,9.482-11.004,10.049l10.067,17.545
			c3.731,6.646,14.026,14.969,19.565,12.908s4.261-13.732,0.529-20.383L107.01,93.457C106.766,93.023,104.623,88.786,97.918,90.881z
			"/>
		
			<linearGradient id="SVGID_6_" gradientUnits="userSpaceOnUse" x1="618.498" y1="218.7129" x2="606.3635" y2="206.5783" gradientTransform="matrix(0.9631 0.269 0.269 -0.9631 -541.7341 152.0428)">
			<stop  offset="0.092" style="stop-color:#A8CEC9;stop-opacity:0"/>
			<stop  offset="0.1885" style="stop-color:#C4DEDA;stop-opacity:0.3455"/>
			<stop  offset="0.2883" style="stop-color:#E5F0EF;stop-opacity:0.7027"/>
			<stop  offset="0.4663" style="stop-color:#FFFFFF"/>
			<stop  offset="1" style="stop-color:#A8CEC9;stop-opacity:0"/>
		</linearGradient>
		<path opacity="0.48" fill="url(#SVGID_6_)" enable-background="new    " d="M97.918,90.881
			c-9.049,2.898-11.32,9.482-11.004,10.049l10.067,17.545c3.731,6.646,14.026,14.969,19.565,12.908s4.261-13.732,0.529-20.383
			L107.01,93.457C106.766,93.023,104.623,88.786,97.918,90.881z"/>
		
			<linearGradient id="SVGID_7_" gradientUnits="userSpaceOnUse" x1="164.0439" y1="-41.9702" x2="152.8168" y2="-53.1974" gradientTransform="matrix(1 0 0 -1 -50 61)">
			<stop  offset="0.092" style="stop-color:#A8CEC9;stop-opacity:0"/>
			<stop  offset="0.1885" style="stop-color:#C4DEDA;stop-opacity:0.3455"/>
			<stop  offset="0.2883" style="stop-color:#E5F0EF;stop-opacity:0.7027"/>
			<stop  offset="0.4663" style="stop-color:#FFFFFF"/>
			<stop  offset="1" style="stop-color:#A8CEC9;stop-opacity:0"/>
		</linearGradient>
		<path opacity="0.48" fill="url(#SVGID_7_)" enable-background="new    " d="M96.33,94.488c6.705-2.095,8.848,2.143,9.092,2.576
			l10.066,17.543c2.447,4.359,3.84,10.881,2.945,15.435c3.256-3.804,1.866-13.296-1.357-19.042L107.01,93.457
			c-0.244-0.434-2.387-4.671-9.092-2.576c-9.044,2.896-11.316,9.473-11.004,10.047C88.5,98.73,91.406,96.065,96.33,94.488z"/>
		
			<radialGradient id="SVGID_8_" cx="-25.3003" cy="20.8228" r="34.1849" fx="-25.396" fy="8.0822" gradientTransform="matrix(0.9964 0.1537 -0.0549 -0.6728 85.3377 42.7443)" gradientUnits="userSpaceOnUse">
			<stop  offset="0" style="stop-color:#CFDEF7"/>
			<stop  offset="0.3021" style="stop-color:#BFCFE1"/>
			<stop  offset="0.5848" style="stop-color:#929DA7"/>
			<stop  offset="0.7221" style="stop-color:#707C83"/>
			<stop  offset="1" style="stop-color:#959DB1"/>
		</radialGradient>
		<path fill="url(#SVGID_8_)" d="M49.896,14.619c-9.892,3.497-13.173,15.475-7.328,26.756c5.844,11.281,41.659-1.379,35.816-12.658
			C72.54,17.435,59.785,11.123,49.896,14.619z M49.838,34.753c-2.898-5.597-1.27-11.538,3.634-13.272
			c4.907-1.732,11.233,1.396,14.132,6.992C70.5,34.067,52.737,40.348,49.838,34.753z"/>
		<g opacity="0.48">
			
				<radialGradient id="SVGID_9_" cx="105.2803" cy="50.2393" r="15.5746" gradientTransform="matrix(1 0 0 -1 -50 61)" gradientUnits="userSpaceOnUse">
				<stop  offset="0.7117" style="stop-color:#FFFFFF"/>
				<stop  offset="1" style="stop-color:#A8CEC9;stop-opacity:0"/>
			</radialGradient>
			<path fill="url(#SVGID_9_)" d="M49.896,17.506c9.889-3.496,22.644,2.814,28.488,14.096c0.191,0.371,0.336,0.744,0.441,1.118
				c0.35-1.326,0.246-2.675-0.441-4.003c-5.845-11.282-18.6-17.594-28.488-14.098c-6.992,2.472-10.66,9.186-10.158,16.891
				C40.219,25.052,43.794,19.662,49.896,17.506z"/>
			
				<radialGradient id="SVGID_10_" cx="108.165" cy="25.2373" r="7.6787" gradientTransform="matrix(1 0 0 -1 -50 61)" gradientUnits="userSpaceOnUse">
				<stop  offset="0.5828" style="stop-color:#A8CEC9;stop-opacity:0"/>
				<stop  offset="0.6643" style="stop-color:#C4DEDA;stop-opacity:0.3455"/>
				<stop  offset="0.7485" style="stop-color:#E5F0EF;stop-opacity:0.7027"/>
				<stop  offset="0.8221" style="stop-color:#FFFFFF"/>
				<stop  offset="1" style="stop-color:#A8CEC9;stop-opacity:0"/>
			</radialGradient>
			<path fill="url(#SVGID_10_)" d="M49.838,38.348c2.899,5.595,20.662-0.686,17.766-6.28c-0.089-0.173-0.191-0.337-0.287-0.505
				c-2.871,4.419-15.114,7.752-17.479,3.19c-0.648-1.253-1.059-2.521-1.269-3.758C48.152,33.24,48.533,35.826,49.838,38.348z"/>
		</g>
		
			<linearGradient id="SVGID_11_" gradientUnits="userSpaceOnUse" x1="98.6758" y1="17.5176" x2="116.459" y2="17.5176" gradientTransform="matrix(1 0 0 -1 -50 61)">
			<stop  offset="0" style="stop-color:#FFFFFF"/>
			<stop  offset="1" style="stop-color:#8E9FB6"/>
		</linearGradient>
		<path fill="url(#SVGID_11_)" d="M66.068,45.297c3.678-2.071,7.279-2.57,9.729-1.714l-3.48-6.253
			c-1.442-2.561-5.881-2.838-10.452-0.262c-4.573,2.576-6.325,6.264-4.883,8.824l3.063,5.805
			C60.754,49.475,62.79,47.143,66.068,45.297z"/>
		<path opacity="0.38" fill="#2B001C" d="M66.068,45.297c3.678-2.071,7.279-2.57,9.729-1.714l2.72,4.864
			c-1.441-2.562-5.88-2.839-10.452-0.264c-4.572,2.577-6.324,6.265-4.883,8.825l-3.137-5.312
			C60.754,49.475,62.79,47.143,66.068,45.297z"/>
	</g>
</g>
<g id="outline_x5F_white">
	<g>
		<g>
			<path fill="#FFFFFF" d="M55.676,13.655c8.634,0,17.957,5.888,22.709,15.062c1.892,3.652-0.588,7.449-5.001,10.532l2.413,4.334
				c-0.488-0.171-1.033-0.272-1.604-0.333l27.34,47.065c3.892,0.083,5.283,2.798,5.479,3.142l3.258,5.679
				c9.545-2.64,17.248-4.009,17.248-4.009c0.892-0.159,1.76-0.241,2.594-0.241c3.341,0,6.146,1.303,7.73,4.126l18.987,33.784
				c13.183,23.486-15.127,49.531-15.127,49.531s-0.038,0-0.113,0c-2.424,0-42.972-0.343-55.761-23.125L66.843,125.42
				c-1.982-3.529-0.231-6.953,3.149-8.896c0,0,8.812-5.394,19.976-10.275l-3.053-5.318c-0.115-0.209,0.123-1.235,0.916-2.59
				L60.753,50.152c-0.304,0.516-0.544,1.033-0.708,1.545l-3.063-5.805c-0.074-0.133-0.135-0.27-0.192-0.406
				c-1.389,0.188-2.75,0.289-4.051,0.289c-4.667,0-8.559-1.289-10.17-4.4c-5.845-11.281-2.563-23.259,7.328-26.756
				C51.745,13.966,53.691,13.655,55.676,13.655 M54.883,36.936c6.08,0,14.818-4.411,12.72-8.463c-2.357-4.551-6.98-7.47-11.265-7.47
				c-0.984,0-1.951,0.154-2.867,0.478c-4.903,1.734-6.532,7.676-3.634,13.272C50.638,36.296,52.567,36.936,54.883,36.936
				 M55.677,1.655L55.677,1.655c-3.392,0-6.682,0.555-9.78,1.65c-7.475,2.643-13.206,8.183-16.138,15.599
				c-3.396,8.59-2.61,18.792,2.155,27.99c1.93,3.727,6.723,9.773,17.707,10.746c0.968,1.697,2.313,3.098,3.893,4.123L74.92,99.858
				c-0.006,0.088-0.012,0.175-0.016,0.262c-6.015,3.069-10.226,5.591-11.043,6.087c-9.266,5.423-12.484,16.178-7.481,25.089
				l18.987,33.785c7.027,12.521,20.28,21.229,39.387,25.887c13.126,3.197,24.656,3.359,26.835,3.359l0.224-0.001
				c2.963-0.033,5.834-1.162,8.016-3.168c0.863-0.795,8.613-8.071,14.786-18.811c9.325-16.227,10.252-31.935,2.681-45.426
				l-18.99-33.791c-3.656-6.511-10.287-10.247-18.191-10.247c-1.534,0-3.118,0.144-4.707,0.428
				c-0.221,0.039-3.957,0.708-9.434,1.989c-1.734-2.24-3.955-4.008-6.496-5.206l-21.708-37.37c-0.021-0.298-0.054-0.596-0.097-0.893
				c4.52-6.624,4.008-13.545,1.371-18.637C82.365,10.313,68.958,1.656,55.677,1.655L55.677,1.655z"/>
		</g>
	</g>
</g>
<g id="outline_x5F_black">
	<path d="M55.676,13.655c8.634,0,17.957,5.888,22.709,15.062c1.892,3.652-0.588,7.449-5.001,10.532l2.413,4.334
		c-0.488-0.171-1.033-0.272-1.604-0.333l27.34,47.065c3.892,0.083,5.283,2.798,5.479,3.142l3.258,5.679
		c9.545-2.64,17.248-4.009,17.248-4.009c0.892-0.159,1.76-0.241,2.594-0.241c3.342,0,6.146,1.302,7.73,4.126l18.987,33.784
		c13.183,23.486-15.127,49.531-15.127,49.531s-0.038,0-0.113,0c-2.424,0-42.972-0.343-55.761-23.125L66.843,125.42
		c-1.982-3.529-0.231-6.953,3.149-8.896c0,0,8.812-5.394,19.976-10.275l-3.053-5.318c-0.115-0.209,0.123-1.235,0.916-2.59
		L60.753,50.152c-0.304,0.516-0.544,1.033-0.708,1.545l-3.063-5.805c-0.074-0.133-0.135-0.27-0.192-0.406
		c-1.389,0.188-2.75,0.289-4.051,0.289c-4.667,0-8.559-1.289-10.17-4.4c-5.845-11.281-2.563-23.259,7.328-26.756
		C51.745,13.966,53.691,13.655,55.676,13.655 M54.883,36.936c6.08,0,14.818-4.411,12.72-8.463c-2.357-4.551-6.98-7.47-11.265-7.47
		c-0.984,0-1.951,0.154-2.867,0.478c-4.903,1.734-6.532,7.676-3.634,13.272C50.638,36.296,52.567,36.936,54.883,36.936
		 M55.676,7.655L55.676,7.655c-2.708,0-5.326,0.438-7.78,1.307c-5.814,2.055-10.274,6.37-12.559,12.148
		c-2.758,6.975-2.064,15.367,1.903,23.024c1.478,2.853,5.457,7.64,15.498,7.64c0.186,0,0.373-0.001,0.561-0.005l1.44,2.728
		c0.69,1.309,1.82,2.285,3.145,2.797L81.172,98.74c-0.461,1.777-0.35,3.381,0.337,4.797c-8.021,3.872-13.842,7.377-14.583,7.827
		c-6.495,3.778-8.731,10.913-5.316,16.993l18.986,33.785c14.286,25.45,56.253,26.186,60.991,26.186h0.164
		c1.483-0.016,2.919-0.579,4.013-1.585c1.299-1.194,31.625-29.572,16.297-56.884l-18.99-33.786
		c-2.563-4.567-7.288-7.188-12.961-7.188c-1.18,0-2.408,0.112-3.649,0.334c-0.269,0.047-5.778,1.035-13.278,2.938l-0.949-1.654
		c-1.502-2.708-3.959-4.665-6.898-5.59L81.751,44.318c0.153-1.236-0.079-2.516-0.712-3.654l-0.042-0.076
		c6.058-6.549,3.728-12.677,2.715-14.631C78.042,15.011,66.775,7.656,55.676,7.655L55.676,7.655z M54.713,30.934
		C54.29,29.671,54.352,28.627,54.6,28c0.224-0.568,0.567-0.755,0.873-0.863c0.251-0.089,0.543-0.134,0.867-0.134
		c1.324,0,3.118,0.788,4.543,2.28c-1.519,0.82-3.895,1.652-6,1.652C54.823,30.936,54.767,30.935,54.713,30.934L54.713,30.934z"/>
</g>
</svg>
