<?xml version="1.0" encoding="utf-8"?>
<!-- Generator: Adobe Illustrator 15.0.0, SVG Export Plug-In . SVG Version: 6.00 Build 0)  -->
<!DOCTYPE svg PUBLIC "-//W3C//DTD SVG 1.1//EN" "http://www.w3.org/Graphics/SVG/1.1/DTD/svg11.dtd">
<svg version="1.1" xmlns="http://www.w3.org/2000/svg" xmlns:xlink="http://www.w3.org/1999/xlink" x="0px" y="0px" width="200px"
	 height="200px" viewBox="0 0 200 200" enable-background="new 0 0 200 200" xml:space="preserve">
<g id="icon">
	<g id="Layer_2">
	</g>
	<g>
		
			<linearGradient id="SVGID_1_" gradientUnits="userSpaceOnUse" x1="-90.0366" y1="-171.502" x2="-107.5101" y2="-186.2573" gradientTransform="matrix(0.9866 -0.1632 -0.1632 -0.9866 216.769 -150.8432)">
			<stop  offset="0" style="stop-color:#E1F2FF"/>
			<stop  offset="1" style="stop-color:#7286A2"/>
		</linearGradient>
		<path fill="url(#SVGID_1_)" d="M113.143,166.27c0,0-20.804-43.713-30.712-60.498c-1.612-2.729-1.745-4.479-6.996-2.846
			c-3.921,1.213-8.033,1.502-12.149,1.25c-21.198-1.305-33.474-19.259-29.491-41.834c0.567-3.213,2.203-5.654,3.394-8.613
			c0.249-0.617,0.986-1.184,1.8-1.112c0.489,0.042,8.518,0.557,8.518,0.557c1.58,2.192-3.449,5.554-1.487,8.484
			c3.578,5.336,6.933,10.517,6.933,10.517c0.539,0.748,1.877,1.027,2.749,1.079c0.87,0.057,7.704,0.868,12.758,0.716
			c0.642-0.084,11.338-8.799,11.604-9.87c1.102-4.663,2.298-11.454,2.636-13.443c0.175-0.94,0.01-1.909-0.538-2.668
			c0,0-8.778-12.194-13.181-18.312c-1.145-1.584,0.066-2.812,0.872-3.221c1.327-0.671,3.108-1.09,5.023-1.27
			c1.247-0.117,2.554-0.133,3.828-0.052c3.254,0.199,9.903,0.662,9.903,0.662c15.626,4.901,23.652,20.751,20.275,39.862
			c-0.8,4.53-2.263,8.847-4.258,12.841c-2.666,4.826-1.348,5.869,0.727,8.231c12.688,14.477,43.19,49.637,43.19,49.637
			c6.278,8.729,3.92,22.104-5.272,29.865l-6.322,7.627c0,0-6.971,0.121-12.481-0.709C120.012,172.482,115.952,170.17,113.143,166.27
			z"/>
		<path fill="#CADCED" d="M121.604,166.816c0,0-20.804-43.713-30.713-60.498c-1.611-2.729-1.744-4.48-6.998-2.846
			c-3.92,1.215-8.032,1.504-12.147,1.252c-21.199-1.308-33.476-19.26-29.49-41.835c0.566-3.214,2.201-5.655,3.392-8.613
			c0.397-0.986,2.049-1.845,3.257-0.171c4.457,6.185,12.507,18.617,12.507,18.617c0.54,0.749,1.878,1.026,2.748,1.079
			c0.872,0.056,7.707,0.867,12.76,0.715c0.642-0.084,11.336-8.798,11.603-9.869c1.101-4.664,2.3-11.453,2.637-13.444
			c0.173-0.94,0.009-1.908-0.539-2.667c0,0-8.776-12.194-13.181-18.312c-1.143-1.583,0.067-2.812,0.873-3.221
			c2.19-1.112,5.619-1.525,8.852-1.323c21.195,1.302,34.168,17.946,30.18,40.524c-0.801,4.531-2.265,8.847-4.259,12.84
			c-2.666,4.827-1.349,5.871,0.726,8.232c12.688,14.476,43.191,49.638,43.191,49.638c6.279,8.727,3.919,22.102-5.273,29.865
			l-2.09,1.762C140.438,176.316,127.891,175.547,121.604,166.816z"/>
		<linearGradient id="SVGID_2_" gradientUnits="userSpaceOnUse" x1="171.9697" y1="152.5098" x2="107.4697" y2="124.5097">
			<stop  offset="0" style="stop-color:#FDFDFD"/>
			<stop  offset="0.5869" style="stop-color:#F7F6F6;stop-opacity:0.61"/>
			<stop  offset="1" style="stop-color:#FFFFFF;stop-opacity:0"/>
		</linearGradient>
		<path fill="url(#SVGID_2_)" d="M130.025,172.441c5.389,0.674,12.133-0.609,17.06-4.734l2.08-1.738
			c9.153-7.658,11.461-20.887,5.149-29.535c0,0-26.891-29.865-41.992-46.88l2.26-0.096c14.587,16.435,41.747,47.188,41.747,47.188
			c6.312,8.648,4.003,21.877-5.149,29.535l-2.08,1.74C143.282,172.789,136.109,174.238,130.025,172.441z"/>
		
			<linearGradient id="SVGID_3_" gradientUnits="userSpaceOnUse" x1="-3792.0361" y1="166.5811" x2="-3768.7524" y2="150.8607" gradientTransform="matrix(0.6006 0.6444 0.9278 -0.4661 2168.1384 2583.6384)">
			<stop  offset="0" style="stop-color:#FFFFFF;stop-opacity:0"/>
			<stop  offset="0.3214" style="stop-color:#FFFFFF;stop-opacity:0.54"/>
			<stop  offset="0.3491" style="stop-color:#FAFAFA"/>
			<stop  offset="0.3516" style="stop-color:#FFFFFF"/>
			<stop  offset="0.5246" style="stop-color:#FDFDFD"/>
			<stop  offset="0.5869" style="stop-color:#F7F6F6;stop-opacity:0.61"/>
			<stop  offset="1" style="stop-color:#FFFFFF;stop-opacity:0"/>
		</linearGradient>
		<path fill="url(#SVGID_3_)" d="M38.707,53.625l5.93-0.046c0,0-4.515,12.389-2.467,25.067c1.744,10.8,12.765,18.767,12.765,18.767
			s-0.03,5.132-5.99,1.926C43.223,96.263,37.75,87.23,35.594,79.722C31.429,65.23,38.707,53.625,38.707,53.625z"/>
		
			<linearGradient id="SVGID_4_" gradientUnits="userSpaceOnUse" x1="-4725.4473" y1="-2105.6431" x2="-4738.5278" y2="-2137.7988" gradientTransform="matrix(-0.3252 0.8658 -1.0727 -0.2193 -3738.4167 3671.4353)">
			<stop  offset="0" style="stop-color:#E1F2FF"/>
			<stop  offset="1" style="stop-color:#7286A2"/>
		</linearGradient>
		<polygon fill="url(#SVGID_4_)" points="82.45,48.416 68.883,28.976 76.727,29.915 77.791,30.762 90.955,49.795 		"/>
		
			<linearGradient id="SVGID_5_" gradientUnits="userSpaceOnUse" x1="-4693.2588" y1="-2114.1772" x2="-4705.8721" y2="-2145.1858" gradientTransform="matrix(-0.3252 0.8658 -1.0727 -0.2193 -3738.4167 3671.4353)">
			<stop  offset="0" style="stop-color:#E1F2FF"/>
			<stop  offset="1" style="stop-color:#7286A2"/>
		</linearGradient>
		<polygon fill="url(#SVGID_5_)" points="79.769,64.637 68.87,73.981 76.709,73.695 86.865,65.788 		"/>
		
			<linearGradient id="SVGID_6_" gradientUnits="userSpaceOnUse" x1="-3586.2471" y1="-105.0547" x2="-3574.4995" y2="-108.5897" gradientTransform="matrix(0.5867 0.7149 0.9449 -0.5531 2325.8955 2667.853)">
			<stop  offset="0" style="stop-color:#FFFFFF;stop-opacity:0"/>
			<stop  offset="0.362" style="stop-color:#FFFFFF;stop-opacity:0.54"/>
			<stop  offset="0.4479" style="stop-color:#FDFDFD"/>
			<stop  offset="0.5399" style="stop-color:#F7F6F6;stop-opacity:0.61"/>
			<stop  offset="1" style="stop-color:#FFFFFF;stop-opacity:0"/>
		</linearGradient>
		<path fill="url(#SVGID_6_)" d="M105.971,150.561l6.908-2.744c0,0,4.411,9.927,7.555,15.976
			c5.916,11.396,18.321,8.694,18.321,8.694s-6.038,1.486-11.666,0.412c-5.627-1.078-11.077-1.776-14.016-8.03
			C109.234,156.689,105.971,150.561,105.971,150.561z"/>
		<path fill="#CADCED" d="M143.391,158.182c8.225-8.713,3.688-15.385,3.098-16.156l-39.586-47.539
			c-1.148-1.492-3.344-1.832-4.896-0.762l-3.168,2.183c-1.555,1.078-1.889,3.155-0.739,4.652l31.243,56.346
			C129.904,157.641,135.723,165.406,143.391,158.182z"/>
		
			<linearGradient id="SVGID_7_" gradientUnits="userSpaceOnUse" x1="-4720.2925" y1="-2259.1099" x2="-4602.5303" y2="-2144.7778" gradientTransform="matrix(-0.3252 0.8658 -1.0727 -0.2193 -3738.4167 3671.4353)">
			<stop  offset="0" style="stop-color:#E1F2FF"/>
			<stop  offset="1" style="stop-color:#657486;stop-opacity:0.6"/>
		</linearGradient>
		<path fill="url(#SVGID_7_)" d="M147.329,141.789c0.511,0.66,3.211,4.637,1.067,10.352l0,0c-0.736,1.961-2.045,4.117-4.195,6.396
			l-0.508-0.295l0.484,0.318l0,0c-3.095,2.944-6.176,3.604-8.652,3.086l0,0c-3.787-0.799-6.057-3.941-6.43-4.396L97.83,100.869l0,0
			c-0.79-1.033-0.948-2.332-0.522-3.475l0,0c0.258-0.688,0.734-1.323,1.43-1.802l3.167-2.186l0,0
			c0.986-0.686,2.244-0.899,3.367-0.665l0,0c0.987,0.202,1.877,0.733,2.485,1.528L147.329,141.789L147.329,141.789z M98.536,97.643
			l-0.001,0.008l0,0c-0.323,0.86-0.203,1.883,0.42,2.689l31.268,56.381l0,0c0.289,0.405,2.563,3.319,5.676,3.934l0,0
			c1.985,0.387,4.36,0.012,7.293-2.709l0,0c2.062-2.185,3.291-4.223,3.979-6.057l0,0c2.005-5.318-0.542-9.021-0.928-9.521
			l-39.57-47.52l0,0c-0.48-0.62-1.117-0.983-1.771-1.115l0,0c-0.75-0.149-1.514-0.025-2.182,0.435l-3.17,2.184l0,0
			C99.077,96.676,98.73,97.127,98.536,97.643L98.536,97.643z"/>
		
			<linearGradient id="SVGID_8_" gradientUnits="userSpaceOnUse" x1="-4646.5078" y1="-2186.6387" x2="-4641.7993" y2="-2182.2073" gradientTransform="matrix(-0.3252 0.8658 -1.0727 -0.2193 -3738.4167 3671.4353)">
			<stop  offset="0" style="stop-color:#FFFFFF;stop-opacity:0"/>
			<stop  offset="0.3214" style="stop-color:#FFFFFF;stop-opacity:0.54"/>
			<stop  offset="0.3491" style="stop-color:#FAFAFA"/>
			<stop  offset="0.3516" style="stop-color:#FFFFFF"/>
			<stop  offset="0.5246" style="stop-color:#FDFDFD"/>
			<stop  offset="0.5869" style="stop-color:#F7F6F6;stop-opacity:0.61"/>
			<stop  offset="1" style="stop-color:#FFFFFF;stop-opacity:0"/>
		</linearGradient>
		<path fill="url(#SVGID_8_)" d="M145.609,141.971c0.511,0.658,3.209,4.639,1.07,10.353l0,0c-0.738,1.959-2.049,4.116-4.199,6.396
			l-0.504-0.297l0.48,0.32l0,0c-3.092,2.945-6.174,3.607-8.65,3.084l0,0c-3.787-0.797-6.057-3.943-6.428-4.393L96.11,101.052l0,0
			c-0.792-1.035-0.948-2.333-0.522-3.478l0,0c0.26-0.688,0.735-1.322,1.426-1.804l3.168-2.183l0,0
			c0.986-0.686,2.246-0.897,3.371-0.666l0,0c0.988,0.201,1.877,0.734,2.483,1.527L145.609,141.971L145.609,141.971z M96.817,97.827
			c0,0.002-0.003,0.007-0.003,0.007l0,0c-0.323,0.86-0.2,1.882,0.422,2.688l31.269,56.381l0,0c0.287,0.402,2.562,3.32,5.675,3.933
			l0,0c1.985,0.39,4.363,0.013,7.293-2.705l0,0c2.062-2.187,3.291-4.223,3.979-6.06l0,0c2.004-5.319-0.544-9.02-0.931-9.518
			L104.95,95.03l0,0c-0.478-0.622-1.115-0.98-1.771-1.115l0,0c-0.752-0.15-1.513-0.026-2.184,0.433l-3.166,2.183l0,0
			C97.359,96.857,97.011,97.307,96.817,97.827L96.817,97.827z"/>
		
			<linearGradient id="SVGID_9_" gradientUnits="userSpaceOnUse" x1="-167.8691" y1="-153.4619" x2="-168.9254" y2="-156.4387" gradientTransform="matrix(0.9866 -0.1632 -0.1632 -0.9866 216.769 -150.8432)">
			<stop  offset="0" style="stop-color:#FFFFFF;stop-opacity:0"/>
			<stop  offset="0.362" style="stop-color:#FFFFFF;stop-opacity:0.54"/>
			<stop  offset="0.4479" style="stop-color:#FDFDFD"/>
			<stop  offset="0.5399" style="stop-color:#F7F6F6;stop-opacity:0.61"/>
			<stop  offset="1" style="stop-color:#FFFFFF;stop-opacity:0"/>
		</linearGradient>
		<path fill="url(#SVGID_9_)" d="M73.814,25.315c0,0-4.605,0.437-4.601,2.702c0.002,2.265,1.867,4.581,1.867,4.581l7.887-0.17
			c0,0-2.775-2.268-1.987-3.663c0.788-1.393,6.629-3.13,6.629-3.13S76.231,25.284,73.814,25.315z"/>
	</g>
</g>
<g id="outline_x5F_white">
	<g>
		<g>
			<path fill="#FFFFFF" d="M77.108,25.083c0.532,0,1.065,0.017,1.593,0.05c2.147,0.13,5.762,0.376,7.978,0.528
				c0.161,0.007,0.322,0.009,0.482,0.019c0.301,0.018,0.597,0.052,0.896,0.077c0.34,0.022,0.547,0.038,0.547,0.038
				c0.011,0.002,0.021,0.007,0.033,0.011c20.313,1.971,32.597,18.352,28.703,40.399c-0.801,4.531-2.265,8.847-4.259,12.84
				c-2.666,4.827-1.349,5.871,0.726,8.232c12.688,14.476,43.191,49.638,43.191,49.638c6.279,8.728,3.919,22.103-5.273,29.865
				l-2.09,1.762c-3.877,3.274-8.346,5.026-12.691,5.313v0.002c0,0-0.012,0-0.024,0c-0.006,0-0.012,0-0.017,0
				c-0.414,0.025-0.827,0.039-1.238,0.039c-0.447,0-0.893-0.016-1.334-0.047c-2.534-0.039-6.475-0.188-9.868-0.701
				c-4.451-0.668-8.51-2.979-11.319-6.881c0,0-20.804-43.713-30.712-60.498c-0.366-0.621-0.657-1.188-0.949-1.68
				c-2.329,0.5-4.712,0.715-7.109,0.715c-0.874,0-1.751-0.029-2.627-0.082c-1.444-0.09-2.845-0.262-4.203-0.502
				c-0.554,0.023-1.108,0.033-1.665,0.033c-0.862,0-1.728-0.025-2.592-0.08c-21.198-1.305-33.474-19.259-29.491-41.834
				c0.567-3.213,2.203-5.654,3.394-8.613c0.234-0.582,0.903-1.119,1.661-1.118c0.046,0,0.093,0.002,0.139,0.006
				c0.448,0.039,7.223,0.474,8.354,0.546c0.055,0.001,0.107,0.004,0.162,0.01h0.002c0.472,0.06,0.965,0.33,1.398,0.932
				c4.457,6.185,12.507,18.617,12.507,18.617c0.54,0.749,1.878,1.026,2.748,1.079c0.231,0.015,0.896,0.084,1.828,0.174
				c0.407,0.008,0.812,0.012,1.211,0.012c0.429,0,0.851-0.005,1.261-0.018c0.642-0.084,11.338-8.799,11.604-9.87
				c1.102-4.663,2.298-11.454,2.636-13.443c0.175-0.94,0.01-1.909-0.538-2.668c0,0-8.778-12.194-13.181-18.312
				c-1.145-1.584,0.066-2.812,0.872-3.221c1.327-0.671,3.108-1.09,5.023-1.27C75.604,25.117,76.355,25.083,77.108,25.083
				 M77.108,13.083c-1.134,0-2.264,0.052-3.358,0.155c-3.55,0.333-6.685,1.177-9.317,2.509c-3.817,1.938-6.56,5.364-7.538,9.406
				c-0.955,3.946-0.097,8.156,2.356,11.551c3.025,4.204,8.136,11.303,11.02,15.31c-0.348,1.907-0.768,4.11-1.192,6.157
				c-0.549,0.481-1.177,1.018-1.828,1.566c-2.701-4.087-6.144-9.223-8.612-12.648c-2.318-3.222-5.683-5.281-9.48-5.802
				c-0.122-0.017-0.245-0.032-0.367-0.045c-0.273-0.029-0.551-0.051-0.83-0.064l-0.093-0.006c-6.349-0.409-7.644-0.497-7.898-0.516
				c-0.359-0.03-0.742-0.046-1.122-0.046c-5.569,0-10.71,3.469-12.791,8.633c-0.246,0.611-0.569,1.287-0.944,2.069
				c-1.1,2.298-2.468,5.158-3.136,8.941c-2.67,15.135,0.43,29.269,8.728,39.801c7.55,9.582,18.859,15.297,31.843,16.098
				c1.104,0.068,2.225,0.103,3.329,0.103c0.286,0,0.574-0.002,0.862-0.006c1.426,0.213,2.856,0.365,4.269,0.451
				c1.137,0.069,2.269,0.104,3.364,0.104c0.176,0,0.351-0.002,0.525-0.002c10.232,18.564,27.224,54.229,27.411,54.623
				c0.311,0.65,0.678,1.271,1.099,1.855c4.604,6.391,11.448,10.559,19.272,11.734c3.858,0.582,8.145,0.772,11.159,0.825
				c0.604,0.037,1.218,0.056,1.826,0.056c0.58,0,1.169-0.017,1.755-0.049c0.196-0.009,0.393-0.021,0.586-0.037
				c7.021-0.521,13.715-3.32,19.375-8.103l2.08-1.754c6.596-5.57,11.038-13.261,12.521-21.66c1.562-8.856-0.299-17.519-5.242-24.39
				c-0.213-0.295-0.438-0.579-0.676-0.854c-0.289-0.332-27.479-31.672-41.049-47.19c1.93-4.362,3.319-8.915,4.143-13.569
				c2.512-14.215-0.315-27.585-7.959-37.648c-7.184-9.458-18.17-15.391-30.971-16.74c-0.24-0.033-0.481-0.058-0.722-0.077
				c0,0-0.192-0.015-0.518-0.036l-0.131-0.012c-0.325-0.031-0.649-0.059-0.978-0.079c-0.185-0.011-0.382-0.019-0.58-0.026
				c-2.255-0.155-5.763-0.393-7.871-0.521C78.681,13.108,77.89,13.083,77.108,13.083L77.108,13.083z"/>
		</g>
	</g>
</g>
<g id="outline_x5F_black">
	<g>
		<path d="M77.108,25.083c0.532,0,1.065,0.017,1.593,0.05c2.147,0.13,5.762,0.376,7.978,0.528c0.161,0.007,0.322,0.009,0.482,0.019
			c0.301,0.018,0.597,0.052,0.896,0.077c0.34,0.022,0.547,0.038,0.547,0.038c0.011,0.002,0.021,0.007,0.033,0.011
			c20.313,1.971,32.597,18.352,28.703,40.399c-0.801,4.531-2.265,8.847-4.259,12.84c-2.666,4.827-1.349,5.871,0.726,8.232
			c12.688,14.476,43.191,49.638,43.191,49.638c6.279,8.728,3.919,22.103-5.273,29.865l-2.09,1.762
			c-3.877,3.274-8.346,5.026-12.691,5.313v0.002c0,0-0.012,0-0.024,0c-0.006,0-0.012,0-0.017,0
			c-0.414,0.025-0.827,0.039-1.238,0.039c-0.447,0-0.893-0.016-1.334-0.047c-2.534-0.039-6.475-0.188-9.868-0.701
			c-4.451-0.668-8.51-2.979-11.319-6.881c0,0-20.804-43.713-30.712-60.498c-0.366-0.621-0.657-1.188-0.949-1.68
			c-2.329,0.5-4.712,0.715-7.109,0.715c-0.874,0-1.75-0.029-2.627-0.082c-1.444-0.09-2.845-0.262-4.203-0.502
			c-0.554,0.023-1.108,0.033-1.665,0.033c-0.862,0-1.728-0.025-2.592-0.08c-21.198-1.305-33.474-19.259-29.491-41.834
			c0.567-3.213,2.203-5.654,3.394-8.613c0.234-0.582,0.903-1.118,1.661-1.118c0.046,0,0.092,0.002,0.139,0.006
			c0.448,0.039,7.223,0.474,8.354,0.546c0.055,0.001,0.107,0.004,0.162,0.01h0.002c0.472,0.06,0.965,0.33,1.398,0.932
			c4.457,6.185,12.507,18.617,12.507,18.617c0.54,0.749,1.878,1.026,2.748,1.079c0.231,0.015,0.896,0.084,1.828,0.174
			c0.408,0.008,0.812,0.012,1.212,0.012c0.429,0,0.85-0.005,1.26-0.018c0.642-0.084,11.338-8.799,11.604-9.87
			c1.102-4.663,2.298-11.454,2.636-13.443c0.175-0.94,0.01-1.909-0.538-2.668c0,0-8.778-12.194-13.181-18.312
			c-1.145-1.584,0.066-2.812,0.872-3.221c1.327-0.671,3.108-1.09,5.023-1.27C75.604,25.117,76.355,25.083,77.108,25.083
			 M77.108,19.083c-0.946,0-1.887,0.043-2.797,0.129c-2.799,0.263-5.211,0.898-7.17,1.889c-2.211,1.123-3.858,3.164-4.415,5.464
			c-0.551,2.272-0.058,4.624,1.388,6.625c3.666,5.095,10.381,14.422,12.509,17.378c-0.484,2.785-1.306,7.237-2.084,10.758
			c-1.758,1.677-5.843,5.055-7.941,6.657c-0.09-0.001-0.18-0.002-0.27-0.004l-0.583-0.057c-0.113-0.011-0.22-0.022-0.319-0.031
			c-2.328-3.57-8.064-12.312-11.655-17.295c-1.264-1.755-3.031-2.913-5.018-3.298l-0.187-0.047l-0.428-0.046
			c-0.172-0.018-0.339-0.03-0.509-0.037l-0.114-0.007c-6.752-0.434-7.866-0.512-8.031-0.525c-0.196-0.017-0.417-0.026-0.637-0.026
			c-3.146,0-6.05,1.959-7.226,4.875c-0.317,0.786-0.696,1.579-1.097,2.417c-0.991,2.071-2.114,4.418-2.64,7.395
			c-2.369,13.427,0.306,25.873,7.533,35.044c6.478,8.22,16.244,13.13,27.499,13.822c0.981,0.062,1.978,0.092,2.96,0.092
			c0.419,0,0.842-0.006,1.262-0.016c1.416,0.227,2.838,0.387,4.238,0.473c1.014,0.062,2.021,0.095,2.995,0.095
			c1.34,0,2.656-0.062,3.94-0.179c10.026,17.522,29.214,57.802,29.414,58.22l0.232,0.489l0.316,0.438
			c3.649,5.068,9.082,8.373,15.295,9.308c3.599,0.543,7.671,0.717,10.508,0.765c0.523,0.032,1.058,0.051,1.587,0.051
			c0.487,0,0.983-0.015,1.476-0.043h0.019l3.588-0.129l0.181-0.369c4.524-0.933,8.818-3.051,12.582-6.23l2.086-1.758
			c5.521-4.662,9.239-11.094,10.479-18.115c1.278-7.25-0.214-14.297-4.204-19.842l-0.159-0.221l-0.179-0.207
			c-0.307-0.353-30.66-35.338-43.211-49.661l-0.35-0.396c-0.029-0.033-0.061-0.066-0.091-0.102c0.109-0.233,0.257-0.524,0.453-0.881
			l0.062-0.108l0.056-0.111c2.301-4.608,3.916-9.479,4.799-14.477c2.217-12.549-0.208-24.26-6.828-32.975
			c-6.164-8.115-15.665-13.217-26.787-14.398l-0.135-0.03l-0.442-0.034c0,0-0.201-0.015-0.536-0.038l-0.226-0.021
			c-0.258-0.024-0.515-0.047-0.774-0.063c-0.149-0.009-0.305-0.015-0.461-0.02l-0.063-0.002c-2.236-0.154-5.801-0.396-7.932-0.525
			C78.427,19.104,77.764,19.083,77.108,19.083L77.108,19.083z"/>
	</g>
</g>
</svg>
