<?xml version="1.0" encoding="utf-8"?>
<!-- Generator: Adobe Illustrator 15.0.0, SVG Export Plug-In . SVG Version: 6.00 Build 0)  -->
<!DOCTYPE svg PUBLIC "-//W3C//DTD SVG 1.1//EN" "http://www.w3.org/Graphics/SVG/1.1/DTD/svg11.dtd">
<svg version="1.1" xmlns="http://www.w3.org/2000/svg" xmlns:xlink="http://www.w3.org/1999/xlink" x="0px" y="0px" width="200px"
	 height="200px" viewBox="0 0 200 200" enable-background="new 0 0 200 200" xml:space="preserve">
<g id="icon">
	<g id="Layer_2">
	</g>
	<g>
		<g>
			
				<linearGradient id="SVGID_1_" gradientUnits="userSpaceOnUse" x1="111.6562" y1="8.3066" x2="129.7849" y2="-6.0104" gradientTransform="matrix(1 0 0 -1 -50 61)">
				<stop  offset="0.097" style="stop-color:#FFFFFF"/>
				<stop  offset="0.2258" style="stop-color:#F9F9FA"/>
				<stop  offset="0.3987" style="stop-color:#E8E8EA"/>
				<stop  offset="0.5967" style="stop-color:#CDCCD1"/>
				<stop  offset="0.8117" style="stop-color:#A6A5AE"/>
				<stop  offset="1" style="stop-color:#7F7D8A"/>
			</linearGradient>
			<path fill="url(#SVGID_1_)" d="M75.169,96.599c-2.481-0.004-4.747-1.75-5.516-4.246l-9.324-30.632
				c-0.456-1.501-0.321-3.028,0.384-4.298c0.679-1.228,3.619-5.897,3.619-5.897l30.616-4.874c0.37-0.068,0.756-0.097,1.138-0.084
				c2.483,0.088,4.75,1.865,5.52,4.324l10.811,31.447c0,0-2.71,4.332-3.414,5.563c-0.137,0.238-0.291,0.459-0.456,0.666
				c-0.68,0.828-1.616,1.396-2.713,1.632l-29.525,6.268C75.937,96.554,75.553,96.599,75.169,96.599z"/>
		</g>
		<g>
			
				<linearGradient id="SVGID_2_" gradientUnits="userSpaceOnUse" x1="136.0381" y1="1.5806" x2="147.637" y2="-38.7516" gradientTransform="matrix(1 0 0 -1 -50 61)">
				<stop  offset="0.097" style="stop-color:#FFFFFF"/>
				<stop  offset="0.2258" style="stop-color:#F9F9FA"/>
				<stop  offset="0.3987" style="stop-color:#E8E8EA"/>
				<stop  offset="0.5967" style="stop-color:#CDCCD1"/>
				<stop  offset="0.8117" style="stop-color:#A6A5AE"/>
				<stop  offset="1" style="stop-color:#7F7D8A"/>
			</linearGradient>
			<path fill="url(#SVGID_2_)" d="M78.584,91.038c-2.48,0-4.749-1.749-5.516-4.248l-9.325-30.629
				c-0.454-1.5-0.321-3.029,0.382-4.302c0.683-1.224,1.805-2.052,3.17-2.331l29.526-5.79c0.371-0.067,0.754-0.098,1.136-0.084
				c2.483,0.087,4.754,1.868,5.518,4.323l9.326,30.234c0.454,1.434,0.317,2.896-0.386,4.127c-0.677,1.189-1.802,2.007-3.167,2.301
				l-29.523,6.27C79.351,90.993,78.969,91.038,78.584,91.038z"/>
		</g>
		<g opacity="0.57">
			<path fill="#FFFFFF" d="M97.771,44.85c0.048,0,0.098,0,0.145,0.003c1.98,0.07,3.798,1.505,4.417,3.484l9.325,30.236
				c0.354,1.111,0.253,2.236-0.282,3.173c-0.508,0.892-1.353,1.505-2.388,1.722l-29.532,6.273c-0.279,0.064-0.574,0.099-0.868,0.099
				c-1.962,0-3.758-1.399-4.371-3.401l-9.326-30.62c-0.359-1.192-0.261-2.392,0.286-3.377c0.505-0.916,1.346-1.535,2.351-1.735
				l29.516-5.789C97.28,44.87,97.524,44.85,97.771,44.85 M97.771,43.654c-0.32,0-0.64,0.028-0.949,0.084l-29.526,5.79
				c-1.365,0.279-2.487,1.107-3.17,2.331c-0.703,1.272-0.836,2.802-0.382,4.302l9.325,30.629c0.767,2.499,3.035,4.248,5.516,4.248
				c0.003,0,0.005,0,0.006,0c0.381,0,0.763-0.045,1.135-0.129l29.523-6.27c1.366-0.294,2.489-1.111,3.167-2.301
				c0.703-1.231,0.84-2.693,0.387-4.127l-9.326-30.234c-0.765-2.455-3.035-4.236-5.519-4.323
				C97.896,43.654,97.832,43.654,97.771,43.654L97.771,43.654z"/>
		</g>
		<path d="M91.011,64.126c0.211,0.989,0.402,3.332,0.575,7.031c0.022,0.337,0.326,2.564,0.91,6.682
			c0.384,2.766,0.347,4.358-0.109,4.778c-1.011,0.526-1.697,0.829-2.061,0.906c-0.532,0.113-0.96,0.048-1.285-0.194
			c-0.861-0.977-2.115-2.335-3.763-4.07c-0.186,0.459-0.438,1.404-0.757,2.837c-0.248,1.175-0.588,2.091-1.023,2.75
			c-0.613,0.188-1.255,0.086-1.924-0.308c-0.604-0.359-1.064-0.852-1.383-1.477c-0.148-0.29-0.601-1.451-1.355-3.485
			c-0.754-2.034-1.366-3.509-1.834-4.423c-0.393-0.795-0.89-1.995-1.49-3.603c-0.602-1.608-0.967-2.54-1.1-2.795
			c-0.031-0.053-0.21-0.37-0.539-0.953c-0.201-0.349-0.323-0.623-0.367-0.829c-0.054-0.252-0.012-0.471,0.124-0.655
			c0.296-0.396,0.743-0.656,1.34-0.783c0.309-0.065,0.522-0.042,0.645,0.069c0.788,0.679,1.946,2.798,3.474,6.354
			c0.169,0.384,0.441,0.886,0.818,1.509c0.4,0.646,0.87,1.57,1.408,2.772l0.818,1.917c-0.276-1.618-0.499-3.584-0.67-5.899
			c-0.199-2.63-0.232-4.642-0.1-6.035c0.084-0.34,0.336-0.554,0.755-0.644c0.401-0.085,0.736-0.024,1.005,0.182
			c0.465,0.398,0.811,0.852,1.035,1.359c0.196,0.465,0.368,1.044,0.515,1.733c0.117,0.551,0.254,1.41,0.409,2.576
			c0.155,1.165,0.289,2.011,0.4,2.533c0.147,0.69,0.348,1.312,0.602,1.861c0.557,1.198,1.228,1.968,2.012,2.308
			c0.187-0.04,0.301-0.303,0.344-0.791c0.002-0.36,0.008-0.718,0.021-1.07c-0.014-0.428-0.142-2.243-0.385-5.449
			c-0.177-2.391-0.222-4.317-0.133-5.78c0.041-0.817,0.077-1.332,0.11-1.543c0.077-0.553,0.216-0.93,0.418-1.129
			c0.175-0.095,0.341-0.161,0.5-0.194c0.597-0.128,1.103,0.117,1.517,0.73C90.743,63.28,90.918,63.688,91.011,64.126z"/>
		<g>
			
				<linearGradient id="SVGID_3_" gradientUnits="userSpaceOnUse" x1="175.041" y1="-28.2695" x2="193.1663" y2="-42.5839" gradientTransform="matrix(0.9984 -0.0065 -4.000000e-04 -1.0016 -49.3196 64.294)">
				<stop  offset="0.097" style="stop-color:#FFFFFF"/>
				<stop  offset="0.2258" style="stop-color:#F9F9FA"/>
				<stop  offset="0.3987" style="stop-color:#E8E8EA"/>
				<stop  offset="0.5967" style="stop-color:#CDCCD1"/>
				<stop  offset="0.8117" style="stop-color:#A6A5AE"/>
				<stop  offset="1" style="stop-color:#7F7D8A"/>
			</linearGradient>
			<path fill="url(#SVGID_3_)" d="M138.954,135.345c-2.479,0.015-4.74-1.723-5.507-4.217l-9.321-30.619
				c-0.457-1.5-0.323-3.032,0.381-4.308c0.679-1.234,3.614-5.915,3.614-5.915l30.566-5.08c0.369-0.072,0.754-0.103,1.135-0.091
				c2.479,0.072,4.744,1.836,5.511,4.292l10.808,31.429c0,0-2.709,4.344-3.41,5.578c-0.137,0.241-0.289,0.464-0.453,0.673
				c-0.682,0.832-1.616,1.407-2.709,1.649l-29.478,6.472C139.723,135.294,139.337,135.342,138.954,135.345z"/>
		</g>
		<g>
			
				<linearGradient id="SVGID_4_" gradientUnits="userSpaceOnUse" x1="199.4189" y1="-34.998" x2="211.0182" y2="-75.3315" gradientTransform="matrix(0.9984 -0.0065 -4.000000e-04 -1.0016 -49.3196 64.294)">
				<stop  offset="0.097" style="stop-color:#FFFFFF"/>
				<stop  offset="0.2258" style="stop-color:#F9F9FA"/>
				<stop  offset="0.3987" style="stop-color:#E8E8EA"/>
				<stop  offset="0.5967" style="stop-color:#CDCCD1"/>
				<stop  offset="0.8117" style="stop-color:#A6A5AE"/>
				<stop  offset="1" style="stop-color:#7F7D8A"/>
			</linearGradient>
			<path fill="url(#SVGID_4_)" d="M142.367,129.768c-2.479,0.019-4.744-1.721-5.51-4.22l-9.324-30.616
				c-0.452-1.498-0.32-3.033,0.381-4.311c0.682-1.231,1.801-2.066,3.165-2.356l29.479-5.99c0.369-0.067,0.752-0.103,1.135-0.091
				c2.478,0.072,4.744,1.841,5.51,4.294l9.32,30.223c0.455,1.432,0.318,2.898-0.383,4.136c-0.677,1.195-1.799,2.021-3.162,2.325
				l-29.473,6.469C143.132,129.718,142.751,129.766,142.367,129.768z"/>
		</g>
		<g opacity="0.57">
			<path fill="#FFFFFF" d="M161.506,83.382c0.049,0,0.098,0,0.145,0.003c1.979,0.058,3.791,1.481,4.412,3.464l9.319,30.219
				c0.354,1.111,0.254,2.238-0.278,3.181c-0.508,0.896-1.351,1.517-2.386,1.741l-29.483,6.474c-0.277,0.063-0.57,0.103-0.865,0.104
				c-1.958,0.014-3.754-1.377-4.365-3.377l-9.324-30.608c-0.359-1.191-0.262-2.394,0.284-3.383c0.504-0.921,1.343-1.548,2.347-1.756
				l29.467-5.988C161.016,83.407,161.259,83.382,161.506,83.382 M161.506,82.184c-0.32,0.004-0.641,0.033-0.947,0.091l-29.479,5.99
				c-1.364,0.29-2.483,1.125-3.165,2.356c-0.701,1.277-0.833,2.812-0.381,4.311l9.324,30.616c0.766,2.499,3.031,4.237,5.51,4.22
				c0.001,0,0.003,0,0.005,0c0.38-0.002,0.761-0.05,1.134-0.138l29.473-6.469c1.363-0.306,2.485-1.13,3.162-2.325
				c0.701-1.236,0.838-2.704,0.383-4.136l-9.32-30.223c-0.766-2.453-3.032-4.222-5.51-4.294
				C161.631,82.184,161.568,82.184,161.506,82.184L161.506,82.184z"/>
		</g>
		<path opacity="0.11" fill="#C2EBFF" d="M112.801,78.212l-9.326-30.234c-0.764-2.455-3.034-4.236-5.518-4.323
			c-0.061,0-0.125,0-0.187,0c-0.32,0-0.64,0.028-0.949,0.084l-29.526,5.79c-1.229,0.252-2.242,0.967-2.933,1.994l-0.03,0.003
			c0,0-2.94,4.67-3.619,5.897c-0.705,1.27-0.84,2.797-0.384,4.298l9.324,30.632c0.769,2.496,3.034,4.242,5.516,4.246
			c0.384,0,0.768-0.045,1.138-0.131l29.525-6.268c1.096-0.235,2.033-0.804,2.713-1.632c0.165-0.207,0.319-0.428,0.456-0.666
			c0.704-1.231,3.414-5.563,3.414-5.563C113.118,81.107,113.255,79.646,112.801,78.212z"/>
		<path d="M147.333,118.729c-1.642,1.179-3.296,2.16-4.963,2.943c-0.778-0.771-1.373-2.121-1.784-4.053
			c-0.068-0.326-0.167-0.83-0.292-1.51c-0.125-0.683-0.224-1.185-0.292-1.512c-0.152-0.718-0.312-1.328-0.479-1.83
			c-1.437-4.093-2.19-6.312-2.265-6.656c-0.383-1.801-0.577-2.734-0.582-2.803c-0.12-0.744-0.087-1.304,0.097-1.673
			c0.224-0.467,0.718-0.849,1.482-1.149c0.542-0.203,1.498-0.451,2.87-0.743c2.164-0.46,3.978,0.148,5.437,1.828
			c1.211,1.381,2.094,3.377,2.649,5.988c0.404,1.903,0.577,3.812,0.517,5.729c-0.156,1.738-0.457,3.027-0.903,3.865
			C148.529,117.693,148.032,118.219,147.333,118.729z M146.729,109.436c-0.181-0.85-0.553-1.799-1.117-2.848
			c-0.852-1.564-1.729-2.252-2.633-2.059c-0.447,0.096-0.935,0.379-1.457,0.852c-0.434,0.395-0.732,0.75-0.899,1.068
			c1.425,5.043,2.407,8.836,2.948,11.383c0.685,0.002,1.296-0.129,1.834-0.391C147.128,116.051,147.568,113.383,146.729,109.436z"/>
		<g>
			
				<linearGradient id="SVGID_5_" gradientUnits="userSpaceOnUse" x1="126.7686" y1="-38.8657" x2="144.8938" y2="-53.18" gradientTransform="matrix(0.9984 -0.0065 -4.000000e-04 -1.0016 -49.3196 64.294)">
				<stop  offset="0.097" style="stop-color:#FFFFFF"/>
				<stop  offset="0.2258" style="stop-color:#F9F9FA"/>
				<stop  offset="0.3987" style="stop-color:#E8E8EA"/>
				<stop  offset="0.5967" style="stop-color:#CDCCD1"/>
				<stop  offset="0.8117" style="stop-color:#A6A5AE"/>
				<stop  offset="1" style="stop-color:#7F7D8A"/>
			</linearGradient>
			<path fill="url(#SVGID_5_)" d="M90.763,146.271c-2.479,0.015-4.741-1.723-5.508-4.217l-9.321-30.619
				c-0.456-1.5-0.323-3.031,0.382-4.309c0.677-1.234,3.613-5.914,3.613-5.914l30.566-5.08c0.37-0.072,0.755-0.103,1.136-0.091
				c2.479,0.072,4.744,1.836,5.512,4.292l10.807,31.428c0,0-2.709,4.344-3.41,5.579c-0.137,0.241-0.29,0.463-0.453,0.673
				c-0.682,0.832-1.617,1.407-2.709,1.649L91.9,146.134C91.529,146.223,91.145,146.27,90.763,146.271z"/>
		</g>
		<g>
			
				<linearGradient id="SVGID_6_" gradientUnits="userSpaceOnUse" x1="151.1455" y1="-45.5938" x2="162.7449" y2="-85.9277" gradientTransform="matrix(0.9984 -0.0065 -4.000000e-04 -1.0016 -49.3196 64.294)">
				<stop  offset="0.097" style="stop-color:#FFFFFF"/>
				<stop  offset="0.2258" style="stop-color:#F9F9FA"/>
				<stop  offset="0.3987" style="stop-color:#E8E8EA"/>
				<stop  offset="0.5967" style="stop-color:#CDCCD1"/>
				<stop  offset="0.8117" style="stop-color:#A6A5AE"/>
				<stop  offset="1" style="stop-color:#7F7D8A"/>
			</linearGradient>
			<path fill="url(#SVGID_6_)" d="M94.175,140.693c-2.478,0.02-4.744-1.719-5.51-4.219l-9.324-30.615
				c-0.452-1.498-0.32-3.034,0.381-4.312c0.681-1.23,1.801-2.066,3.165-2.355l29.479-5.99c0.37-0.068,0.753-0.103,1.135-0.091
				c2.478,0.072,4.744,1.841,5.511,4.294l9.319,30.223c0.456,1.433,0.319,2.897-0.382,4.136c-0.678,1.194-1.799,2.021-3.163,2.325
				l-29.472,6.47C94.939,140.646,94.56,140.691,94.175,140.693z"/>
		</g>
		<g opacity="0.57">
			<path fill="#FFFFFF" d="M113.312,94.31c0.049,0,0.099,0,0.145,0.003c1.979,0.058,3.791,1.481,4.412,3.464l9.32,30.219
				c0.354,1.111,0.254,2.238-0.279,3.181c-0.508,0.896-1.35,1.517-2.385,1.741l-29.483,6.473c-0.278,0.064-0.571,0.104-0.866,0.104
				c-1.958,0.014-3.754-1.376-4.365-3.377l-9.324-30.607c-0.359-1.19-0.262-2.394,0.284-3.384c0.504-0.92,1.344-1.547,2.347-1.756
				l29.467-5.987C112.823,94.335,113.066,94.31,113.312,94.31 M113.312,93.111c-0.32,0.003-0.64,0.033-0.947,0.091l-29.479,5.99
				c-1.364,0.289-2.484,1.125-3.165,2.355c-0.701,1.277-0.833,2.812-0.381,4.312l9.324,30.615c0.766,2.5,3.032,4.237,5.51,4.219
				h0.005c0.38-0.002,0.761-0.049,1.134-0.137l29.472-6.469c1.363-0.306,2.486-1.131,3.163-2.326
				c0.702-1.236,0.838-2.703,0.382-4.135l-9.32-30.223c-0.766-2.453-3.031-4.222-5.51-4.294
				C113.438,93.111,113.376,93.111,113.312,93.111L113.312,93.111z"/>
		</g>
		<path opacity="0.11" fill="#C2EBFF" d="M176.521,116.7l-9.319-30.223c-0.767-2.453-3.032-4.222-5.511-4.294
			c-0.062,0-0.123,0-0.187,0c-0.321,0.004-0.642,0.033-0.948,0.091l-29.479,5.99c-1.229,0.262-2.238,0.983-2.928,2.017l-0.03,0.005
			c0,0-2.937,4.681-3.614,5.915c-0.703,1.275-0.838,2.808-0.381,4.308l9.32,30.619c0.768,2.494,3.029,4.229,5.508,4.217
			c0.383-0.003,0.768-0.051,1.137-0.137l29.479-6.472c1.092-0.242,2.027-0.817,2.707-1.649c0.164-0.209,0.317-0.432,0.455-0.673
			c0.701-1.234,3.41-5.578,3.41-5.578C176.842,119.6,176.979,118.132,176.521,116.7z"/>
		<g>
			
				<linearGradient id="SVGID_7_" gradientUnits="userSpaceOnUse" x1="78.0215" y1="-48.6094" x2="96.145" y2="-62.9222" gradientTransform="matrix(0.9984 -0.0065 -4.000000e-04 -1.0016 -49.3196 64.294)">
				<stop  offset="0.097" style="stop-color:#FFFFFF"/>
				<stop  offset="0.2258" style="stop-color:#F9F9FA"/>
				<stop  offset="0.3987" style="stop-color:#E8E8EA"/>
				<stop  offset="0.5967" style="stop-color:#CDCCD1"/>
				<stop  offset="0.8117" style="stop-color:#A6A5AE"/>
				<stop  offset="1" style="stop-color:#7F7D8A"/>
			</linearGradient>
			<path fill="url(#SVGID_7_)" d="M42.097,156.35c-2.479,0.014-4.742-1.724-5.51-4.22l-9.32-30.614
				c-0.457-1.502-0.321-3.033,0.381-4.312c0.678-1.233,3.614-5.914,3.614-5.914l30.568-5.082c0.369-0.071,0.754-0.104,1.136-0.09
				c2.479,0.069,4.742,1.837,5.51,4.293L79.28,141.84c0,0-2.707,4.342-3.409,5.579c-0.136,0.238-0.291,0.461-0.455,0.668
				c-0.679,0.834-1.615,1.408-2.707,1.651l-29.478,6.474C42.864,156.299,42.48,156.346,42.097,156.35z"/>
		</g>
		<g>
			
				<linearGradient id="SVGID_8_" gradientUnits="userSpaceOnUse" x1="102.3994" y1="-55.3345" x2="113.9984" y2="-95.667" gradientTransform="matrix(0.9984 -0.0065 -4.000000e-04 -1.0016 -49.3196 64.294)">
				<stop  offset="0.097" style="stop-color:#FFFFFF"/>
				<stop  offset="0.2258" style="stop-color:#F9F9FA"/>
				<stop  offset="0.3987" style="stop-color:#E8E8EA"/>
				<stop  offset="0.5967" style="stop-color:#CDCCD1"/>
				<stop  offset="0.8117" style="stop-color:#A6A5AE"/>
				<stop  offset="1" style="stop-color:#7F7D8A"/>
			</linearGradient>
			<path fill="url(#SVGID_8_)" d="M45.508,150.771c-2.478,0.015-4.743-1.721-5.509-4.224l-9.322-30.612
				c-0.456-1.502-0.322-3.033,0.381-4.312c0.679-1.231,1.798-2.067,3.162-2.356l29.477-5.99c0.372-0.069,0.755-0.101,1.136-0.09
				c2.479,0.068,4.745,1.84,5.511,4.293l9.321,30.222c0.456,1.435,0.319,2.899-0.384,4.138c-0.674,1.192-1.795,2.02-3.159,2.323
				l-29.475,6.471C46.272,150.721,45.89,150.77,45.508,150.771z"/>
		</g>
		<g opacity="0.57">
			<path fill="#FFFFFF" d="M64.646,104.386c0.047,0,0.097-0.002,0.144,0.005c1.979,0.057,3.794,1.479,4.411,3.461l9.322,30.219
				c0.356,1.111,0.255,2.24-0.28,3.183c-0.506,0.896-1.347,1.515-2.383,1.74l-29.483,6.474c-0.279,0.067-0.574,0.104-0.866,0.106
				c-1.961,0.011-3.752-1.378-4.365-3.38l-9.323-30.607c-0.361-1.189-0.264-2.395,0.284-3.385c0.503-0.919,1.342-1.547,2.346-1.754
				l29.466-5.988C64.156,104.411,64.399,104.387,64.646,104.386 M64.646,103.188c-0.319,0.002-0.639,0.031-0.949,0.09l-29.477,5.99
				c-1.364,0.289-2.483,1.125-3.162,2.356c-0.703,1.278-0.837,2.81-0.381,4.312l9.322,30.612c0.766,2.503,3.031,4.237,5.509,4.224
				c0,0,0.004,0,0.005,0c0.38-0.004,0.762-0.051,1.134-0.139l29.475-6.471c1.364-0.305,2.485-1.131,3.159-2.323
				c0.703-1.237,0.84-2.703,0.384-4.138l-9.321-30.221c-0.766-2.453-3.032-4.226-5.511-4.293
				C64.77,103.188,64.706,103.188,64.646,103.188L64.646,103.188z"/>
		</g>
		<path d="M57.443,142.029c-0.901,0.212-1.452,0.257-1.654,0.134c-0.067-0.044-0.421-0.535-1.059-1.472l-1.138-2.188
			c-0.424-0.797-0.931-1.33-1.52-1.602c-0.588-0.27-1.526-0.268-2.814,0.008c-1.156,0.246-1.843,0.461-2.058,0.643
			c-0.248,0.209-0.351,0.51-0.306,0.898c0.066,0.592,0.088,0.941,0.063,1.056c-0.035,0.202-0.03,0.728,0.014,1.576
			c0.034,0.803-0.015,1.472-0.144,2.006c-0.211,0.388-0.508,0.62-0.89,0.701c-0.401,0.086-0.842,0.009-1.321-0.229
			c-0.115-0.444-0.137-1.762-0.066-3.951c0.06-1.279,0.117-2.564,0.175-3.854c0.006-0.246-0.024-1.628-0.094-4.149
			c-0.048-1.783-0.007-3.24,0.124-4.371c0.186-1.601,0.342-2.627,0.47-3.084c0.302-1.146,0.804-1.883,1.505-2.207
			c1.521-0.324,2.98,0.307,4.381,1.89c1.064,1.198,1.921,2.681,2.57,4.442c0.188,0.517,0.339,1.045,0.454,1.586
			c0.044,0.205,0.097,0.492,0.161,0.858c0.062,0.365,0.114,0.644,0.154,0.829c0.148,0.7,0.377,1.383,0.685,2.049
			c0.172,0.44,0.427,1.064,0.764,1.87c0.356,0.853,0.644,1.513,0.861,1.982c0.095,0.126,0.187,0.258,0.273,0.395l1.27,2.804
			c0.074,0.529,0.059,0.869-0.046,1.02C58.153,141.814,57.882,141.938,57.443,142.029z M48.128,127.745
			c-0.678,0.896-1.11,2.875-1.297,5.938c0.127,0.598,0.27,0.879,0.429,0.846c0.027-0.006,0.101-0.029,0.219-0.069
			c0.118-0.039,0.225-0.069,0.317-0.089c0.526-0.094,1.077-0.211,1.652-0.352c0.196-0.041,0.425-0.062,0.689-0.061
			c0.264,0.003,0.424-0.003,0.479-0.016c0.121-0.024,0.189-0.094,0.205-0.204c-0.001-0.185-0.021-0.375-0.063-0.571
			c-0.077-0.363-0.245-0.811-0.504-1.34c-0.373-0.789-0.574-1.21-0.605-1.262C49.353,129.908,48.847,128.968,48.128,127.745z"/>
		<path d="M98.994,113.436c0.188,0.7-0.067,1.127-0.768,1.274c-0.373,0.079-0.705,0.058-0.994-0.067
			c-0.335-0.151-0.731-0.48-1.191-0.987c-0.512-0.574-0.887-0.938-1.124-1.093c-0.569,0.121-0.963,0.492-1.183,1.114
			c-0.251,0.697-0.288,1.462-0.112,2.291c0.052,0.243,0.125,0.472,0.219,0.685c0.115,0.26,0.717,0.73,1.809,1.416
			c1.246,0.77,2.025,1.313,2.338,1.638c1.396,1.43,2.287,3.049,2.673,4.858c0.396,1.856,0.103,3.479-0.88,4.869
			c-0.872,1.219-2.031,1.982-3.478,2.291c-1.166,0.248-2.274-0.033-3.324-0.844c-0.949-0.745-1.532-1.63-1.75-2.656
			c-0.024-0.11-0.089-0.347-0.194-0.703c-0.092-0.293-0.147-0.53-0.166-0.713c-0.036-0.265-0.019-0.502,0.053-0.713
			c0.111-0.306,0.353-0.498,0.726-0.578c0.299-0.063,0.554-0.035,0.765,0.086c0.723,0.559,1.238,1.282,1.545,2.174
			c0.176,0.597,0.356,1.195,0.544,1.799c0.231,0.449,0.706,0.597,1.425,0.443c0.98-0.209,1.596-0.982,1.847-2.324
			c0.193-1.017,0.169-2.094-0.073-3.23c-0.346-1.624-1.144-2.99-2.394-4.1c-0.387-0.348-1.483-1.084-3.294-2.211
			c-1.171-0.735-1.831-1.453-1.98-2.152c-0.256-1.203,0.113-2.379,1.108-3.527c0.915-1.062,1.987-1.725,3.219-1.986
			c1.446-0.309,2.779-0.323,3.999-0.047c0.162,0.259,0.296,0.635,0.401,1.129C98.716,111.373,98.794,111.995,98.994,113.436z"/>
		<path opacity="0.11" fill="#C2EBFF" d="M79.664,137.702l-9.321-30.222c-0.766-2.453-3.032-4.225-5.511-4.293
			c-0.062-0.002-0.126,0-0.187,0c-0.319,0.002-0.639,0.031-0.949,0.09l-29.477,5.99c-1.227,0.26-2.238,0.984-2.928,2.019
			l-0.03,0.004c0,0-2.937,4.681-3.614,5.914c-0.702,1.276-0.838,2.81-0.381,4.312l9.32,30.614c0.768,2.496,3.031,4.231,5.51,4.22
			c0.384-0.004,0.768-0.051,1.135-0.138l29.478-6.474c1.092-0.243,2.028-0.817,2.707-1.651c0.164-0.207,0.319-0.43,0.455-0.668
			c0.702-1.237,3.409-5.579,3.409-5.579C79.983,140.604,80.12,139.137,79.664,137.702z"/>
		<path opacity="0.11" fill="#C2EBFF" d="M128.33,127.628l-9.32-30.223c-0.766-2.453-3.031-4.222-5.51-4.294
			c-0.062,0-0.124,0-0.188,0c-0.32,0.003-0.64,0.033-0.947,0.091l-29.479,5.99c-1.228,0.262-2.238,0.983-2.928,2.017l-0.03,0.005
			c0,0-2.937,4.681-3.613,5.914c-0.705,1.276-0.838,2.81-0.382,4.31l9.321,30.617c0.767,2.495,3.028,4.231,5.508,4.217
			c0.382-0.002,0.767-0.049,1.137-0.137l29.477-6.471c1.092-0.242,2.026-0.816,2.709-1.648c0.163-0.211,0.315-0.433,0.453-0.674
			c0.7-1.234,3.41-5.578,3.41-5.578C128.65,130.525,128.786,129.061,128.33,127.628z"/>
	</g>
</g>
<g id="outline_x5F_white">
	<path fill="#FFFFFF" d="M187.977,113.131l-9.312-30.189c-2.315-7.421-8.992-12.53-16.627-12.753
		c-0.112-0.003-0.229-0.005-0.347-0.005h-0.187c-0.049,0-0.097,0-0.146,0.001c-1.021,0.012-2.033,0.112-3.014,0.295
		c-0.061,0.011-0.119,0.023-0.18,0.035l-29.479,5.99c-0.037,0.008-0.076,0.016-0.112,0.023c-1.279,0.273-2.501,0.704-3.659,1.253
		c-0.127-1.056-0.337-2.108-0.66-3.14l-9.314-30.201c-2.299-7.388-8.951-12.512-16.564-12.779c-0.14-0.004-0.28-0.007-0.42-0.007
		H97.77c-1.03,0-2.064,0.092-3.073,0.273c-0.062,0.011-0.124,0.023-0.186,0.035l-29.526,5.79c-0.033,0.007-0.067,0.014-0.102,0.021
		c-3.882,0.796-7.298,2.922-9.739,6.035c-0.351,0.416-0.674,0.858-0.967,1.324c-0.939,1.491-3.205,5.107-3.966,6.485
		c-2.286,4.116-2.774,8.951-1.364,13.593l8.268,27.161l-25.286,5.138c-0.029,0.006-0.059,0.012-0.087,0.019
		c-3.873,0.816-7.278,2.963-9.708,6.092c-0.34,0.407-0.653,0.839-0.938,1.294c-0.938,1.495-3.204,5.124-3.966,6.512
		c-2.273,4.137-2.751,8.96-1.345,13.583l9.321,30.617c2.308,7.505,9.278,12.724,16.96,12.724c0.029,0,0.087,0,0.117,0
		c1.242-0.01,2.48-0.154,3.686-0.43l29.412-6.459c3.243-0.726,6.182-2.372,8.449-4.692c2.176,0.966,4.551,1.501,7,1.501
		c0.027,0,0.086,0,0.113,0c1.244-0.01,2.48-0.153,3.688-0.429l29.417-6.458c3.498-0.775,6.542-2.563,8.889-5.171
		c1.922,0.728,3.974,1.134,6.085,1.134c0.029,0,0.088,0,0.116,0c1.233-0.011,2.469-0.154,3.677-0.429l29.424-6.459
		c3.772-0.84,7.019-2.833,9.424-5.772c0.051-0.062,0.102-0.125,0.15-0.188c0.543-0.69,1.032-1.42,1.454-2.165
		c0.354-0.622,1.912-3.156,3.151-5.145c0.09-0.144,0.177-0.287,0.26-0.436C188.898,122.656,189.407,117.695,187.977,113.131z
		 M60.713,57.422c0.679-1.228,3.619-5.897,3.619-5.897l0.03-0.003c0.69-1.027,1.704-1.742,2.933-1.994l29.526-5.79
		c0.31-0.056,0.629-0.084,0.949-0.084c0.062,0,0.126,0,0.187,0c2.483,0.087,4.754,1.868,5.518,4.323l9.326,30.234
		c0.097,0.307,0.155,0.613,0.196,0.919c0.018,0.126,0.027,0.251,0.036,0.377c0.01,0.157,0.01,0.313,0.005,0.469
		c-0.008,0.389-0.055,0.771-0.15,1.143c-0.001,0.003-0.001,0.007-0.002,0.01l0,0c-0.108,0.419-0.253,0.828-0.471,1.21
		c0,0-2.71,4.332-3.414,5.563c-0.137,0.238-0.291,0.459-0.456,0.666c-0.68,0.828-1.617,1.397-2.713,1.632l-29.525,6.268
		c-0.37,0.086-0.754,0.131-1.138,0.131c-2.482-0.004-4.747-1.75-5.516-4.246l-9.324-30.632c-0.228-0.75-0.309-1.508-0.244-2.236
		C60.15,58.757,60.36,58.057,60.713,57.422z M79.28,141.84c0,0-2.707,4.342-3.409,5.579c-0.136,0.238-0.291,0.461-0.455,0.668
		c-0.128,0.157-0.273,0.295-0.418,0.433c0,0.001,0,0.001,0,0.001c-0.001,0.001-0.003,0.002-0.004,0.003
		c-0.128,0.122-0.266,0.232-0.406,0.339c-0.056,0.042-0.111,0.084-0.169,0.124c-0.121,0.083-0.243,0.161-0.371,0.232
		c-0.111,0.063-0.227,0.118-0.344,0.173c-0.093,0.042-0.183,0.089-0.279,0.126c-0.23,0.09-0.468,0.167-0.716,0.223l-29.478,6.473
		c-0.367,0.087-0.751,0.135-1.135,0.137c-0.01,0-0.019,0-0.029,0c-0.181,0-0.358-0.028-0.537-0.047
		c-0.12-0.012-0.242-0.011-0.36-0.031c-0.234-0.04-0.461-0.107-0.688-0.178c-0.062-0.02-0.127-0.027-0.189-0.049
		c-0.261-0.092-0.514-0.208-0.759-0.337c-0.022-0.012-0.047-0.019-0.07-0.031c-1.009-0.548-1.853-1.409-2.416-2.468
		c-0.034-0.062-0.076-0.118-0.107-0.183c-0.019-0.039-0.031-0.083-0.049-0.123c-0.116-0.25-0.224-0.505-0.306-0.773l-9.32-30.614
		c-0.457-1.502-0.321-3.035,0.381-4.312c0.677-1.233,3.614-5.914,3.614-5.914l0.03-0.004c0.69-1.034,1.701-1.759,2.928-2.019
		l29.477-5.99c0.31-0.059,0.63-0.088,0.949-0.09c0.061,0,0.125-0.002,0.187,0c2.479,0.068,4.745,1.84,5.511,4.293l9.321,30.222
		C80.12,139.137,79.983,140.604,79.28,141.84z M127.948,131.764c0,0-2.71,4.344-3.41,5.578c-0.138,0.241-0.29,0.463-0.453,0.674
		c-0.246,0.301-0.536,0.554-0.843,0.783c-0.05,0.038-0.1,0.075-0.15,0.11c-0.127,0.087-0.255,0.169-0.39,0.243
		c-0.099,0.055-0.201,0.104-0.304,0.151c-0.105,0.05-0.209,0.102-0.319,0.144c-0.227,0.088-0.459,0.162-0.703,0.217l-29.477,6.471
		c-0.37,0.088-0.755,0.135-1.137,0.137c-0.011,0-0.021,0-0.031,0c-0.087,0-0.171-0.019-0.258-0.022c0,0,0-0.001,0-0.001
		c-2.364-0.117-4.482-1.797-5.219-4.193l-9.321-30.617c-0.456-1.5-0.323-3.033,0.382-4.31c0.676-1.233,3.613-5.914,3.613-5.914
		l0.03-0.005c0.69-1.034,1.7-1.755,2.928-2.017l29.479-5.99c0.308-0.058,0.627-0.088,0.947-0.091c0.063,0,0.125,0,0.188,0
		c2.479,0.072,4.744,1.841,5.51,4.294l9.32,30.223C128.786,129.061,128.65,130.525,127.948,131.764z M176.141,120.837
		c0,0-2.709,4.343-3.41,5.578c-0.138,0.241-0.291,0.464-0.455,0.673c-0.68,0.832-1.615,1.407-2.707,1.65l-29.479,6.471
		c-0.032,0.008-0.065,0.01-0.098,0.017c-0.169,0.035-0.339,0.065-0.511,0.085c-0.005,0-0.009,0.002-0.013,0.002v-0.001
		c-0.171,0.019-0.344,0.032-0.516,0.033c-2.479,0.013-4.74-1.723-5.508-4.217l-9.32-30.619c-0.457-1.5-0.322-3.033,0.381-4.308
		c0.678-1.234,3.614-5.915,3.614-5.915l0.03-0.005c0.25-0.375,0.555-0.691,0.884-0.977c0.051-0.045,0.103-0.089,0.155-0.132
		c0.136-0.108,0.275-0.209,0.423-0.301c0.104-0.066,0.215-0.124,0.325-0.181c0.119-0.062,0.234-0.126,0.358-0.177
		c0.232-0.096,0.474-0.175,0.727-0.232c0.02-0.004,0.036-0.013,0.056-0.018l29.479-5.99c0.307-0.058,0.627-0.087,0.948-0.091
		c0.063,0,0.125,0,0.187,0c2.479,0.072,4.744,1.841,5.511,4.294l9.319,30.223c0.402,1.262,0.318,2.542-0.182,3.677
		C176.272,120.53,176.224,120.689,176.141,120.837z"/>
</g>
<g id="outline_x5F_black">
	<path d="M182.248,114.909l-9.312-30.2c-1.547-4.958-5.994-8.375-11.068-8.523c-0.059-0.001-0.116-0.002-0.176-0.002h-0.187
		c-0.024,0-0.049,0-0.073,0c-0.674,0.008-1.34,0.073-1.979,0.193c-0.03,0.006-0.061,0.012-0.092,0.018l-29.478,5.99
		c-0.021,0.004-0.038,0.008-0.057,0.012c-2.505,0.534-4.706,1.941-6.267,3.991c-0.19,0.223-0.367,0.459-0.523,0.71
		c-0.259,0.412-1.055,1.684-1.867,3.004c-1.398-1.238-3.071-2.139-4.894-2.612c0.442-0.714,0.878-1.415,1.225-1.968
		c0.042-0.067,0.084-0.137,0.124-0.207c1.542-2.701,1.859-5.867,0.895-8.914l-9.312-30.191c-1.537-4.943-5.974-8.374-11.041-8.551
		c-0.07-0.004-0.14-0.005-0.21-0.005H97.77c-0.675,0-1.352,0.06-2.012,0.179c-0.03,0.005-0.062,0.011-0.092,0.018l-29.526,5.79
		c-0.018,0.003-0.034,0.006-0.051,0.01c-2.512,0.515-4.721,1.906-6.29,3.945c-0.199,0.229-0.382,0.473-0.545,0.732
		c-0.507,0.804-3.068,4.88-3.793,6.191c-1.495,2.692-1.808,5.873-0.874,8.945L63.913,94.1c0.347,1.125,0.856,2.168,1.484,3.118
		c-0.133-0.009-0.264-0.024-0.398-0.028c-0.062-0.002-0.146-0.002-0.229-0.002l-0.126,0.001c-0.702,0.002-1.39,0.067-2.06,0.194
		c-0.027,0.005-0.056,0.01-0.083,0.016l-29.476,5.99c-2.545,0.537-4.751,1.943-6.316,3.996c-0.193,0.225-0.371,0.463-0.529,0.717
		c-0.506,0.807-3.065,4.896-3.79,6.213c-1.488,2.707-1.794,5.886-0.863,8.947l9.321,30.615c1.536,4.995,6.148,8.473,11.22,8.473
		c0.009,0,0.046,0,0.055,0c0.832-0.008,1.644-0.103,2.434-0.285l29.44-6.465c2.44-0.545,4.533-1.832,6.073-3.726
		c0.017-0.021,0.033-0.04,0.049-0.062c0.365-0.459,0.689-0.938,0.966-1.424c0.199-0.35,0.634-1.071,1.144-1.903
		c2.184,2.348,5.245,3.786,8.501,3.786c0.013,0,0.057,0,0.068,0c0.817-0.008,1.629-0.103,2.421-0.285l29.441-6.463
		c2.425-0.537,4.517-1.817,6.064-3.707c0.031-0.039,0.064-0.08,0.096-0.121c0.359-0.461,0.664-0.918,0.936-1.396
		c0.213-0.375,0.711-1.196,1.281-2.127c2.126,1.981,4.925,3.173,7.887,3.173c0.01,0,0.047,0,0.055,0
		c0.824-0.007,1.635-0.103,2.429-0.283l29.446-6.465c2.431-0.541,4.521-1.822,6.065-3.712c0.026-0.03,0.052-0.062,0.076-0.094
		c0.356-0.456,0.679-0.935,0.954-1.419c0.464-0.816,2.259-3.723,3.281-5.361c0.045-0.07,0.088-0.145,0.129-0.218
		C182.889,121.096,183.204,117.941,182.248,114.909z M60.329,61.72c-0.456-1.501-0.321-3.028,0.384-4.298
		c0.679-1.228,3.619-5.897,3.619-5.897l0.03-0.003c0.69-1.027,1.704-1.742,2.933-1.994l29.526-5.79
		c0.31-0.056,0.629-0.084,0.949-0.084c0.062,0,0.126,0,0.187,0c2.483,0.087,4.754,1.868,5.518,4.323l9.326,30.234
		c0.454,1.434,0.317,2.896-0.386,4.127c0,0-2.509,4.01-3.323,5.406l-27.401,5.568c-0.02,0.004-0.038,0.008-0.057,0.012
		c-2.162,0.46-4.095,1.575-5.587,3.188c-0.289,0.051-0.582,0.086-0.877,0.086c-2.481-0.004-4.747-1.75-5.516-4.246L60.329,61.72z
		 M75.416,148.088c-0.679,0.834-1.615,1.408-2.707,1.652l-29.478,6.473c-0.367,0.087-0.751,0.135-1.135,0.137
		c-0.01,0-0.019,0-0.029,0c-2.467,0-4.716-1.731-5.48-4.219l-9.32-30.615c-0.457-1.502-0.321-3.033,0.381-4.311
		c0.678-1.232,3.614-5.914,3.614-5.914l0.03-0.004c0.689-1.033,1.701-1.76,2.928-2.018l29.477-5.99
		c0.311-0.059,0.63-0.09,0.949-0.09c0.04-0.002,0.082-0.002,0.124-0.002c0.021,0,0.042,0,0.062,0.002
		c2.479,0.067,4.745,1.84,5.511,4.293l9.321,30.221c0.228,0.718,0.308,1.442,0.243,2.143c-0.065,0.7-0.275,1.376-0.627,1.994
		c0,0-0.092,0.147-0.244,0.393l0,0c-0.68,1.094-2.591,4.176-3.165,5.188C75.735,147.658,75.58,147.881,75.416,148.088z
		 M124.085,138.016c-0.683,0.832-1.617,1.406-2.709,1.648l-29.477,6.471c-0.37,0.088-0.755,0.135-1.137,0.137
		c-0.011,0-0.021,0-0.031,0c-2.291,0-4.375-1.503-5.275-3.706c0.648-2.13,0.64-4.422-0.062-6.651l-8.949-29.016
		c0.854-1.492,3.484-5.685,3.484-5.685l0.03-0.005c0.172-0.259,0.365-0.497,0.576-0.714c0.633-0.651,1.432-1.106,2.353-1.303
		l29.479-5.99c0.309-0.058,0.627-0.088,0.947-0.091c0.063,0,0.125,0,0.188,0c1.906,0.056,3.679,1.12,4.747,2.721v0
		c0.16,0.239,0.306,0.49,0.433,0.75c0.128,0.265,0.241,0.538,0.33,0.823l9.32,30.223c0.456,1.433,0.32,2.897-0.382,4.136
		c0,0-0.144,0.23-0.367,0.591c-0.009,0.013-0.015,0.022-0.022,0.035l0,0c-0.774,1.246-2.484,4.007-3.021,4.952
		C124.4,137.583,124.248,137.805,124.085,138.016z M176.141,120.837c0,0-2.709,4.343-3.41,5.578
		c-0.138,0.241-0.291,0.464-0.455,0.673c-0.68,0.832-1.615,1.407-2.707,1.65l-29.479,6.471c-0.369,0.086-0.754,0.134-1.137,0.137
		c-0.01,0-0.02,0-0.029,0c-1.961,0-3.77-1.104-4.818-2.802c0.665-2.146,0.66-4.46-0.051-6.709l-9.281-30.1
		c0.967-1.654,3.347-5.448,3.347-5.448l0.03-0.005c0.688-1.033,1.699-1.755,2.928-2.017l29.479-5.99
		c0.309-0.058,0.627-0.087,0.948-0.091c0.063,0,0.126,0,0.187,0c2.479,0.072,4.744,1.841,5.511,4.294l9.319,30.223
		C176.977,118.133,176.841,119.6,176.141,120.837z"/>
</g>
</svg>
