<?xml version="1.0" encoding="utf-8"?>
<!-- Generator: Adobe Illustrator 15.0.0, SVG Export Plug-In . SVG Version: 6.00 Build 0)  -->
<!DOCTYPE svg PUBLIC "-//W3C//DTD SVG 1.1//EN" "http://www.w3.org/Graphics/SVG/1.1/DTD/svg11.dtd">
<svg version="1.1" xmlns="http://www.w3.org/2000/svg" xmlns:xlink="http://www.w3.org/1999/xlink" x="0px" y="0px" width="200px"
	 height="200px" viewBox="0 0 200 200" enable-background="new 0 0 200 200" xml:space="preserve">
<g id="icon">
	<g id="Layer_2">
	</g>
	<g>
		
			<linearGradient id="SVGID_1_" gradientUnits="userSpaceOnUse" x1="234.0059" y1="-299.085" x2="235.1465" y2="-403.3948" gradientTransform="matrix(0.9978 0.0668 0.0668 -0.9978 -85.0625 -276.8559)">
			<stop  offset="0" style="stop-color:#E1BC9E"/>
			<stop  offset="0.372" style="stop-color:#CEA083"/>
			<stop  offset="1" style="stop-color:#A9694D"/>
		</linearGradient>
		<polygon fill="url(#SVGID_1_)" points="134.288,64.347 110.909,93.656 96.325,60.072 97.432,56.404 106.335,45.213 
			160.348,18.364 		"/>
		
			<linearGradient id="SVGID_2_" gradientUnits="userSpaceOnUse" x1="190.4443" y1="-265.3921" x2="268.6287" y2="-343.5765" gradientTransform="matrix(0.9978 0.0668 0.0668 -0.9978 -85.0625 -276.8559)">
			<stop  offset="0" style="stop-color:#D19768"/>
			<stop  offset="0.4341" style="stop-color:#B57E5A"/>
			<stop  offset="1" style="stop-color:#8B5944"/>
		</linearGradient>
		<polygon fill="url(#SVGID_2_)" points="134.288,64.347 110.909,93.656 137.303,95.372 149.564,80.835 160.348,18.364 		"/>
		
			<linearGradient id="SVGID_3_" gradientUnits="userSpaceOnUse" x1="109.5713" y1="58.6841" x2="146.3039" y2="-79.0625" gradientTransform="matrix(1 0 0 -1 -50 61)">
			<stop  offset="0" style="stop-color:#D19768"/>
			<stop  offset="0.4341" style="stop-color:#B57E5A"/>
			<stop  offset="1" style="stop-color:#8B5944"/>
		</linearGradient>
		<polygon fill="url(#SVGID_3_)" points="134.288,64.347 112.63,59.41 115.146,52.604 111.96,48.651 108.568,46.792 97.224,56.509 
			39.653,145.779 43.457,149.066 42.321,153.721 55.425,163.213 		"/>
		
			<linearGradient id="SVGID_4_" gradientUnits="userSpaceOnUse" x1="159.9531" y1="-19.9473" x2="157.9684" y2="-27.0339" gradientTransform="matrix(1 0 0 -1 -50 61)">
			<stop  offset="0" style="stop-color:#D19768"/>
			<stop  offset="0.4341" style="stop-color:#B57E5A"/>
			<stop  offset="1" style="stop-color:#8B5944"/>
		</linearGradient>
		<polygon opacity="0.65" fill="url(#SVGID_4_)" enable-background="new    " points="134.288,64.347 112.63,59.41 115.146,52.604 
			111.96,48.651 108.568,46.792 97.131,56.444 105.104,64.347 104.318,74.35 124.368,76.782 		"/>
		
			<linearGradient id="SVGID_5_" gradientUnits="userSpaceOnUse" x1="107.1094" y1="-13.9678" x2="166.9952" y2="-73.8536" gradientTransform="matrix(1 0 0 -1 -50 61)">
			<stop  offset="0" style="stop-color:#D16E44"/>
			<stop  offset="0.1896" style="stop-color:#B5623F"/>
			<stop  offset="0.5959" style="stop-color:#6E4331"/>
			<stop  offset="1" style="stop-color:#222222"/>
		</linearGradient>
		<polygon fill="url(#SVGID_5_)" points="134.288,64.347 140.042,67.968 141.639,80.151 149.564,80.835 70.856,174.139 
			55.425,163.213 		"/>
		
			<linearGradient id="SVGID_6_" gradientUnits="userSpaceOnUse" x1="178.8438" y1="-25.4424" x2="190.5921" y2="-14.7095" gradientTransform="matrix(1 0 0 -1 -50 61)">
			<stop  offset="0" style="stop-color:#D19768"/>
			<stop  offset="0.4341" style="stop-color:#B57E5A"/>
			<stop  offset="1" style="stop-color:#8B5944"/>
		</linearGradient>
		<polygon opacity="0.65" fill="url(#SVGID_6_)" enable-background="new    " points="134.288,64.347 140.042,67.968 
			141.639,80.151 149.564,80.835 135.592,97.4 138.1,84.793 129.6,81.712 126.631,73.943 		"/>
		<polygon opacity="0.55" fill="#472B1E" enable-background="new    " points="117.561,61.006 89.784,103.053 118.854,61.915 		"/>
		<polygon opacity="0.55" fill="#472B1E" enable-background="new    " points="85.131,88.95 43.457,149.066 40.391,146.418 		"/>
		<polygon opacity="0.55" fill="#472B1E" enable-background="new    " points="83.708,106.736 57.976,148.062 66.673,128.391 		"/>
		<polygon opacity="0.55" fill="#472B1E" enable-background="new    " points="103.159,50.301 87.261,76.055 75.769,95.64 
			87.182,73.145 		"/>
		<polygon fill="#231919" points="61.263,166.464 77.528,150.932 64.163,168.104 		"/>
		<polyline fill="#472B1E" points="135.516,77.938 103.618,116.412 88.383,139.328 112.907,110.029 135.592,76.782 		"/>
		
			<linearGradient id="SVGID_7_" gradientUnits="userSpaceOnUse" x1="180.8721" y1="25.3979" x2="181.2068" y2="-5.2146" gradientTransform="matrix(1 0 0 -1 -50 61)">
			<stop  offset="0" style="stop-color:#E6C8AF"/>
			<stop  offset="0.3202" style="stop-color:#D5AD93"/>
			<stop  offset="1" style="stop-color:#A9694D"/>
		</linearGradient>
		<polygon fill="url(#SVGID_7_)" points="146.714,29.387 120.896,45.342 115.146,52.604 128.079,47.378 		"/>
		
			<linearGradient id="SVGID_8_" gradientUnits="userSpaceOnUse" x1="194.0029" y1="-4.332" x2="193.6373" y2="-16.408" gradientTransform="matrix(1 0 0 -1 -50 61)">
			<stop  offset="0" style="stop-color:#E6C8AF"/>
			<stop  offset="0.3202" style="stop-color:#D5AD93"/>
			<stop  offset="1" style="stop-color:#A9694D"/>
		</linearGradient>
		<polygon fill="url(#SVGID_8_)" points="150.63,29.387 141.928,38.09 139.027,46.792 144.626,39.867 		"/>
		
			<linearGradient id="SVGID_9_" gradientUnits="userSpaceOnUse" x1="88.8691" y1="18.7461" x2="172.4024" y2="1.6335" gradientTransform="matrix(1 0 0 -1 -50 61)">
			<stop  offset="0" style="stop-color:#D19768"/>
			<stop  offset="0.4341" style="stop-color:#B57E5A"/>
			<stop  offset="1" style="stop-color:#8B5944"/>
		</linearGradient>
		<polygon opacity="0.65" fill="url(#SVGID_9_)" enable-background="new    " points="150.63,55.935 148.6,69.568 142.798,72.759 
			143.958,64.347 		"/>
	</g>
</g>
<g id="outline_x5F_white">
	<path fill="#FFFFFF" d="M160.348,18.364l-10.783,62.471l-12.262,14.537l-66.446,78.767l-15.432-10.926l-13.104-9.492l1.136-4.654
		l-3.066-2.647h0.001l-0.738-0.64l57.561-89.253l-0.083-0.081l0.826-0.695l8.378-10.536L160.348,18.364 M160.348,6.364
		c-1.822,0-3.649,0.414-5.342,1.254l-54.013,26.849c-1.574,0.782-2.957,1.901-4.051,3.277l-7.633,9.599
		c-1.311,1.126-2.348,2.509-3.062,4.044l-56.679,87.888c-2.851,4.42-2.457,10.093,0.758,14.057
		c-0.127,3.929,1.686,7.738,4.954,10.105l13.104,9.492c0.035,0.025,0.071,0.051,0.106,0.076l15.432,10.926
		c2.099,1.484,4.521,2.205,6.927,2.205c3.427,0,6.817-1.463,9.179-4.263l66.447-78.767l12.262-14.537
		c1.375-1.63,2.291-3.596,2.652-5.696l10.783-62.471c0.77-4.455-1.031-8.964-4.656-11.665
		C165.404,7.168,162.884,6.364,160.348,6.364L160.348,6.364z"/>
</g>
<g id="outline_x5F_black">
	<path d="M160.348,18.364l-10.783,62.471l-12.262,14.537l-66.446,78.767l-15.432-10.926l-13.104-9.492l1.136-4.654l-3.066-2.647
		h0.001l-0.738-0.64l57.561-89.253l-0.083-0.081l0.826-0.695l8.378-10.536L160.348,18.364 M168.273,7.724l-10.598,5.267
		L103.664,39.84l-1.193,0.594l-0.832,1.044l-8.004,10.066l-0.367,0.309l-5.063,4.261l1.311,1.279l-54.904,85.134l-2.824,4.38
		l3.941,3.409l0.738,0.64l0.292,0.252l-0.266,1.089l-0.956,3.917l3.265,2.364l13.103,9.493l0.027,0.02l0.026,0.021l15.432,10.925
		l4.499,3.185l3.554-4.213l66.446-78.766l12.262-14.538l1.051-1.244l0.275-1.604l10.783-62.471L168.273,7.724L168.273,7.724z"/>
</g>
</svg>
