<?xml version="1.0" encoding="utf-8"?>
<!-- Generator: Adobe Illustrator 15.0.0, SVG Export Plug-In . SVG Version: 6.00 Build 0)  -->
<!DOCTYPE svg PUBLIC "-//W3C//DTD SVG 1.1//EN" "http://www.w3.org/Graphics/SVG/1.1/DTD/svg11.dtd">
<svg version="1.1" xmlns="http://www.w3.org/2000/svg" xmlns:xlink="http://www.w3.org/1999/xlink" x="0px" y="0px" width="200px"
	 height="200px" viewBox="0 0 200 200" enable-background="new 0 0 200 200" xml:space="preserve">
<g id="icon">
	<g id="Layer_2">
	</g>
	<g>
		
			<linearGradient id="SVGID_1_" gradientUnits="userSpaceOnUse" x1="131.9121" y1="-6.0078" x2="209.0253" y2="7.833" gradientTransform="matrix(0.9995 0.0326 0.0326 -0.9995 -119.9799 134.2607)">
			<stop  offset="0" style="stop-color:#D16E00"/>
			<stop  offset="0.1896" style="stop-color:#B56205"/>
			<stop  offset="0.5959" style="stop-color:#6E4313"/>
			<stop  offset="1" style="stop-color:#222222"/>
		</linearGradient>
		<path fill="url(#SVGID_1_)" d="M68.98,102.396l-35.535,57.408c0,0-2.547,8.185,2.96,12.008c5.574,3.875,11.384,0.707,11.384,0.707
			l40.102-49.961L68.98,102.396z"/>
		
			<linearGradient id="SVGID_2_" gradientUnits="userSpaceOnUse" x1="142.8672" y1="11.4663" x2="207.8852" y2="-7.9731" gradientTransform="matrix(0.9995 0.0326 0.0326 -0.9995 -119.9799 134.2607)">
			<stop  offset="0" style="stop-color:#D16E00"/>
			<stop  offset="0.1896" style="stop-color:#B56205"/>
			<stop  offset="0.5959" style="stop-color:#6E4313"/>
			<stop  offset="1" style="stop-color:#222222"/>
		</linearGradient>
		<path fill="url(#SVGID_2_)" d="M68.98,102.396l-35.535,57.408c0,0-2.547,8.185,2.96,12.008c5.574,3.875,11.384,0.707,11.384,0.707
			l40.102-49.961L68.98,102.396z"/>
		<g>
			
				<linearGradient id="SVGID_3_" gradientUnits="userSpaceOnUse" x1="161.4258" y1="12.3037" x2="197.4482" y2="-11.0623" gradientTransform="matrix(0.9995 0.0326 0.0326 -0.9995 -119.9799 134.2607)">
				<stop  offset="0" style="stop-color:#D16E00"/>
				<stop  offset="0.1896" style="stop-color:#B56205"/>
				<stop  offset="0.5959" style="stop-color:#6E4313"/>
				<stop  offset="1" style="stop-color:#222222"/>
			</linearGradient>
			<path fill="url(#SVGID_3_)" d="M71.971,105.566l-2.99-3.172l-35.535,57.408c0,0-0.705,2.291-0.562,5.012L71.971,105.566z"/>
		</g>
		<g>
			
				<linearGradient id="SVGID_4_" gradientUnits="userSpaceOnUse" x1="236.6787" y1="46.7949" x2="237.6906" y2="28.5809" gradientTransform="matrix(0.9995 0.0326 0.0326 -0.9995 -119.9799 134.2607)">
				<stop  offset="0" style="stop-color:#BBC5D9"/>
				<stop  offset="0.3034" style="stop-color:#9DB1CD"/>
				<stop  offset="0.9556" style="stop-color:#53657E"/>
				<stop  offset="1" style="stop-color:#526577"/>
			</linearGradient>
			<path fill="url(#SVGID_4_)" d="M67.506,26.869l13.873,30.567c0,0-6.986,7.902,5.205,21.827
				c7.742,8.843,23.369,65.395,23.369,65.395s25.924-7.225,31.348-8.191c1.399-0.25,2.713-1.072,3.797-2.747
				c3.781-5.846,16.006-25.382,20.053-31.36c5.295-7.825-1.147-19.414-5.58-23.962c-4.437-4.549-43.055-43.057-47.439-46.588
				c-3.826-3.078-7.094-4.047-9.681-3.674C100.089,28.471,68.629,24.874,67.506,26.869z"/>
			<g>
				
					<linearGradient id="SVGID_5_" gradientUnits="userSpaceOnUse" x1="259.6221" y1="185.7939" x2="196.9067" y2="107.7267" gradientTransform="matrix(0.9995 0.0326 0.0326 -0.9995 -119.9799 134.2607)">
					<stop  offset="0" style="stop-color:#DCDCDD"/>
					<stop  offset="0.1537" style="stop-color:#C0C0C1"/>
					<stop  offset="0.4862" style="stop-color:#797979"/>
					<stop  offset="0.9693" style="stop-color:#070707"/>
					<stop  offset="1" style="stop-color:#000000"/>
				</linearGradient>
				<path fill="url(#SVGID_5_)" d="M98.791,28.107c0.253-0.037,0.521-0.047,0.791-0.059c-6.43-0.416-21.477-1.902-28.443-1.777
					C81.183,26.657,97.118,28.348,98.791,28.107z"/>
				
					<linearGradient id="SVGID_6_" gradientUnits="userSpaceOnUse" x1="309.2998" y1="145.9111" x2="246.5727" y2="67.829" gradientTransform="matrix(0.9995 0.0326 0.0326 -0.9995 -119.9799 134.2607)">
					<stop  offset="0" style="stop-color:#F3F7FD"/>
					<stop  offset="1" style="stop-color:#DCE8FA;stop-opacity:0"/>
				</linearGradient>
				<path fill="url(#SVGID_6_)" d="M159.57,78.396c-4.438-4.549-43.055-43.057-47.44-46.588c-3.827-3.078-7.094-4.047-9.681-3.674
					c-0.211,0.03-0.67,0.028-1.312,0.001c2.19,0.315,4.725,1.453,7.559,3.738c4.492,3.614,44.023,43.034,48.57,47.693
					c4.537,4.655,11.133,16.518,5.707,24.529c-4.113,6.083-16.488,25.855-20.442,31.979c0.934-0.436,1.806-1.182,2.565-2.354
					c3.782-5.846,16.008-25.382,20.055-31.36C170.445,94.532,164.002,82.944,159.57,78.396z"/>
			</g>
			
				<linearGradient id="SVGID_7_" gradientUnits="userSpaceOnUse" x1="232.3711" y1="48.4185" x2="58.1692" y2="97.7047" gradientTransform="matrix(0.9995 0.0326 0.0326 -0.9995 -119.9799 134.2607)">
				<stop  offset="0" style="stop-color:#BAC5D9"/>
				<stop  offset="0.3034" style="stop-color:#9EB3C5"/>
				<stop  offset="0.9556" style="stop-color:#576574"/>
				<stop  offset="1" style="stop-color:#525D74"/>
			</linearGradient>
			<path fill="url(#SVGID_7_)" d="M61.48,30.734L44.348,58.391c0,0-7.572,8.57,5.646,23.67c8.396,9.59,46.127,54.807,46.127,54.807
				s11.598,13.09,17.324,4.235c4.094-6.332,17.352-27.518,21.738-34.002c5.74-8.483-1.244-21.049-6.051-25.979
				c-4.811-4.934-46.683-46.688-51.443-50.519C69.758,24.221,64.03,26.2,61.48,30.734z"/>
			
				<linearGradient id="SVGID_8_" gradientUnits="userSpaceOnUse" x1="140.8975" y1="-29.0156" x2="147.8975" y2="-76.0156" gradientTransform="matrix(1 0 0 -1 -50 61)">
				<stop  offset="0.092" style="stop-color:#A8CEC9;stop-opacity:0"/>
				<stop  offset="0.1885" style="stop-color:#C4DEDA;stop-opacity:0.3455"/>
				<stop  offset="0.2883" style="stop-color:#E5F0EF;stop-opacity:0.7027"/>
				<stop  offset="0.4663" style="stop-color:#FFFFFF"/>
				<stop  offset="1" style="stop-color:#A8CEC9;stop-opacity:0"/>
			</linearGradient>
			<path fill="url(#SVGID_8_)" d="M61.48,30.734L44.348,58.391c0,0-7.572,8.57,5.646,23.67c8.396,9.59,46.127,54.807,46.127,54.807
				s11.598,13.09,17.324,4.235c4.094-6.332,17.352-27.518,21.738-34.002c5.74-8.483-1.244-21.049-6.051-25.979
				c-4.811-4.934-46.683-46.688-51.443-50.519C69.758,24.221,64.03,26.2,61.48,30.734z"/>
			
				<linearGradient id="SVGID_9_" gradientUnits="userSpaceOnUse" x1="133.7383" y1="19.0444" x2="136.4128" y2="1.0873" gradientTransform="matrix(1 0 0 -1 -50 61)">
				<stop  offset="0.092" style="stop-color:#A8CEC9;stop-opacity:0"/>
				<stop  offset="0.1885" style="stop-color:#C4DEDA;stop-opacity:0.3455"/>
				<stop  offset="0.2883" style="stop-color:#E5F0EF;stop-opacity:0.7027"/>
				<stop  offset="0.4663" style="stop-color:#FFFFFF"/>
				<stop  offset="1" style="stop-color:#A8CEC9;stop-opacity:0"/>
			</linearGradient>
			<path opacity="0.48" fill="url(#SVGID_9_)" enable-background="new    " d="M61.48,30.734L44.348,58.391
				c0,0-7.572,8.57,5.646,23.67c8.396,9.59,46.127,54.807,46.127,54.807s11.598,13.09,17.324,4.235
				c4.094-6.332,17.352-27.518,21.738-34.002c5.74-8.483-1.244-21.049-6.051-25.979c-4.811-4.934-46.683-46.688-51.443-50.519
				C69.758,24.221,64.03,26.2,61.48,30.734z"/>
			
				<linearGradient id="SVGID_10_" gradientUnits="userSpaceOnUse" x1="184.7441" y1="153.1738" x2="197.4056" y2="71.8466" gradientTransform="matrix(0.9995 0.0326 0.0326 -0.9995 -119.9799 134.2607)">
				<stop  offset="0" style="stop-color:#F3F7FD"/>
				<stop  offset="1" style="stop-color:#DCE8FA;stop-opacity:0"/>
			</linearGradient>
			<path fill="url(#SVGID_10_)" d="M45.906,61l17.129-27.658c1.353-2.397,3.598-4.065,6.58-4.173
				c4.379-1.253,34.727,1.973,36.938,1.655c1.65-0.237,3.581,0.081,5.752,1.134c-0.055-0.046-0.128-0.111-0.175-0.15
				c-3.827-3.078-7.094-4.047-9.681-3.674c-2.212,0.316-30.014-2.825-34.391-1.573c-2.982,0.108-5.229,1.774-6.578,4.174
				L44.348,58.391c0,0-5.991,6.799,2.029,18.948C40.772,66.832,45.906,61,45.906,61z"/>
			
				<linearGradient id="SVGID_11_" gradientUnits="userSpaceOnUse" x1="263.9375" y1="82.3057" x2="192.762" y2="49.3489" gradientTransform="matrix(0.9995 0.0326 0.0326 -0.9995 -119.9799 134.2607)">
				<stop  offset="0" style="stop-color:#F3F7FD"/>
				<stop  offset="1" style="stop-color:#DCE8FA;stop-opacity:0"/>
			</linearGradient>
			<path fill="url(#SVGID_11_)" d="M129.134,81.122c-4.811-4.934-46.683-46.688-51.443-50.519
				c-4.928-3.965-9.003-4.698-11.996-3.604c2.366,0.29,5.118,1.495,8.21,3.984c4.759,3.832,46.631,45.583,51.441,50.517
				c4.812,4.93,11.795,17.496,6.053,25.982c-4.39,6.481-17.646,27.666-21.742,34.002c-0.826,1.276-1.772,2.086-2.795,2.555
				c2.412,0.459,4.781-0.157,6.584-2.936c4.095-6.334,17.353-27.519,21.738-34.002c2.873-4.242,2.562-9.504,0.928-14.323
				C134.48,87.962,131.536,83.587,129.134,81.122z"/>
			
				<linearGradient id="SVGID_12_" gradientUnits="userSpaceOnUse" x1="244.668" y1="45.5591" x2="283.8879" y2="52.5985" gradientTransform="matrix(0.9995 0.0326 0.0326 -0.9995 -119.9799 134.2607)">
				<stop  offset="0" style="stop-color:#F3F7FD"/>
				<stop  offset="1" style="stop-color:#DCE8FA;stop-opacity:0"/>
			</linearGradient>
			<path fill="url(#SVGID_12_)" d="M134.168,88.925c0,0,1.928,2.578,5.178,3.186c3.25,0.611,24.609,1.308,25.397,0.328
				c0.784-0.979,2.876,4.374-0.157,4.775c-3.031,0.404-23.218,2.261-24.49,2.723c-1.275,0.461-2.57,1.678-2.57,1.678
				S135.857,90.991,134.168,88.925z"/>
		</g>
		
			<linearGradient id="SVGID_13_" gradientUnits="userSpaceOnUse" x1="238.7227" y1="94.2666" x2="251.8556" y2="73.3303" gradientTransform="matrix(0.9995 0.0326 0.0326 -0.9995 -119.9799 134.2607)">
			<stop  offset="0" style="stop-color:#D16E00"/>
			<stop  offset="0.1896" style="stop-color:#B56205"/>
			<stop  offset="0.5959" style="stop-color:#6E4313"/>
			<stop  offset="1" style="stop-color:#222222"/>
		</linearGradient>
		<path fill="url(#SVGID_13_)" d="M111.244,46.002c0,0-2.949,5.682,1.4,11.023c4.735,5.8,8.067,7.988,14.928,8.102
			c2.729,0.047,6.221-0.945,7.09-1.996c0.968-1.172,4.283-5.94,4.312-6.782c0.049-1.599,0.725-8.505-11.607-15.952
			C121.521,36.869,117.425,37.735,111.244,46.002z"/>
		
			<linearGradient id="SVGID_14_" gradientUnits="userSpaceOnUse" x1="241.1533" y1="100.5996" x2="247.1192" y2="77.3046" gradientTransform="matrix(0.9995 0.0326 0.0326 -0.9995 -119.9799 134.2607)">
			<stop  offset="0" style="stop-color:#D16E00"/>
			<stop  offset="0.1896" style="stop-color:#B56205"/>
			<stop  offset="0.5959" style="stop-color:#6E4313"/>
			<stop  offset="1" style="stop-color:#222222"/>
		</linearGradient>
		<path fill="url(#SVGID_14_)" d="M114.428,46.267c0,0,0.979-0.609,5.622,4.016c5.304,5.285,3.673,6.533,9.44,6.083
			c2.725-0.213,1.074-1.303,1.943-2.353c0.969-1.177,6.84,3.137,6.868,2.294c0.054-1.597-0.675-9.284-11.252-14.903
			C122.945,39.224,114.693,38.123,114.428,46.267z"/>
	</g>
</g>
<g id="outline_x5F_white">
	<path fill="#FFFFFF" d="M72.005,26.263c8.508,0,26.356,1.893,29.946,1.893c0.223,0,0.391-0.007,0.498-0.022
		c0.346-0.05,0.703-0.076,1.074-0.076c2.396,0,5.291,1.083,8.605,3.75c0.989,0.798,3.723,3.381,7.407,6.943
		c0.687-0.208,1.37-0.309,2.062-0.309c1.815,0,3.68,0.695,5.77,1.956c12.332,7.446,11.656,14.353,11.607,15.952
		c-0.011,0.188-0.195,0.595-0.47,1.097c10.556,10.442,18.89,18.719,21.063,20.95c4.433,4.549,10.875,16.137,5.58,23.962
		c-4.047,5.979-16.271,25.516-20.053,31.36c-1.084,1.675-2.396,2.497-3.797,2.747c-5.424,0.969-31.348,8.191-31.348,8.191
		s-0.064-0.234-0.188-0.67c-0.06,0.013-0.111,0.022-0.168,0.037c-0.074,0.018-0.152,0.027-0.23,0.043
		c-0.191,0.037-0.391,0.065-0.588,0.082c-0.084,0.008-0.168,0.014-0.25,0.016c-0.094,0.004-0.188,0.006-0.281,0.006
		c-0.115,0-0.23-0.003-0.348-0.01c-0.065-0.004-0.127-0.002-0.197-0.012c-5.521-0.439-11.582-7.281-11.582-7.281
		s-3.498-4.292-10.057-12.131L47.789,172.52c0,0-2.236,1.22-5.265,1.22c-1.853,0-4.003-0.456-6.119-1.927
		c-5.507-3.823-2.96-12.008-2.96-12.008l34.764-56.271c-7.837-9.32-15.076-17.889-18.215-21.471
		c-13.219-15.101-5.646-23.67-5.646-23.67L61.48,30.734c1.148-2.044,2.946-3.558,5.295-4.031c0.093-0.021,0.185-0.032,0.279-0.046
		c0.293-0.047,0.594-0.08,0.9-0.095c0.055-0.002,0.111-0.018,0.164-0.019C68.867,26.345,70.233,26.263,72.005,26.263 M72.005,14.263
		L72.005,14.263c-2.351,0-4.12,0.119-5.627,0.387c-0.368,0.037-0.735,0.083-1.099,0.139c-0.192,0.027-0.541,0.079-0.97,0.17
		c-5.545,1.146-10.197,4.559-13.14,9.633l-16.658,26.89c-5.021,6.687-8.634,21.249,6.453,38.484
		c2.077,2.37,6.178,7.188,12.47,14.649l-30.198,48.882c-0.53,0.856-0.95,1.778-1.249,2.741c-2.569,8.257-1.224,19.322,7.574,25.431
		c3.828,2.661,8.312,4.069,12.962,4.069c5.649,0,9.855-2.055,11.009-2.684c1.396-0.762,2.627-1.793,3.621-3.033l29.074-36.295
		c0.383,0.469,0.583,0.713,0.591,0.723c0.104,0.128,0.21,0.253,0.319,0.376c2.135,2.409,9.73,10.229,19.089,11.237
		c1.205,0.395,2.463,0.595,3.728,0.595c1.079,0,2.161-0.146,3.219-0.44c9.812-2.732,26.695-7.306,30.235-7.938
		c4.785-0.855,8.963-3.713,11.765-8.045c1.382-2.137,3.798-5.95,6.593-10.366c4.822-7.615,10.823-17.095,13.321-20.783
		c9.296-13.74,0.688-31.252-6.922-39.063c-2.202-2.257-10.007-10.004-17.358-17.285c-1.088-8.66-6.977-16.416-17.236-22.611
		c-3.196-1.928-6.273-3.084-9.342-3.504c-2.81-2.669-3.883-3.604-4.565-4.155c-5.292-4.256-10.718-6.409-16.14-6.409
		c-0.002,0-0.002,0-0.004,0c-0.627,0-1.258,0.03-1.881,0.09c-1.375-0.053-5.105-0.355-8.154-0.602
		C86.429,14.974,77.647,14.263,72.005,14.263L72.005,14.263z"/>
</g>
<g id="outline_x5F_black">
	<path d="M72.005,26.263c8.508,0,26.356,1.893,29.946,1.893c0.223,0,0.391-0.007,0.498-0.022c0.346-0.05,0.703-0.076,1.074-0.076
		c2.396,0,5.291,1.083,8.605,3.75c0.989,0.798,3.723,3.381,7.407,6.943c0.687-0.208,1.37-0.309,2.062-0.309
		c1.815,0,3.68,0.695,5.77,1.956c12.332,7.446,11.656,14.353,11.607,15.952c-0.011,0.188-0.195,0.595-0.47,1.097
		c10.556,10.442,18.89,18.719,21.063,20.95c4.433,4.549,10.875,16.137,5.58,23.962c-4.047,5.979-16.271,25.516-20.053,31.36
		c-1.084,1.675-2.396,2.497-3.797,2.747c-5.424,0.969-31.348,8.191-31.348,8.191s-0.064-0.234-0.188-0.67
		c-0.06,0.013-0.111,0.022-0.168,0.037c-0.074,0.018-0.152,0.027-0.23,0.043c-0.191,0.037-0.391,0.065-0.588,0.082
		c-0.084,0.008-0.168,0.014-0.25,0.016c-0.094,0.004-0.188,0.006-0.282,0.006c-0.115,0-0.229-0.003-0.347-0.01
		c-0.065-0.004-0.127-0.002-0.197-0.012c-5.521-0.439-11.582-7.281-11.582-7.281s-3.498-4.292-10.057-12.131L47.789,172.52
		c0,0-2.236,1.22-5.265,1.22c-1.853,0-4.003-0.456-6.119-1.927c-5.507-3.823-2.96-12.008-2.96-12.008l34.764-56.271
		c-7.837-9.32-15.076-17.889-18.215-21.471c-13.219-15.101-5.646-23.67-5.646-23.67L61.48,30.734
		c1.148-2.044,2.946-3.558,5.295-4.031c0.093-0.021,0.185-0.032,0.279-0.046c0.293-0.047,0.594-0.08,0.9-0.095
		c0.055-0.002,0.111-0.018,0.164-0.019C68.867,26.345,70.233,26.263,72.005,26.263 M72.005,20.263L72.005,20.263
		c-2.136,0-3.623,0.103-4.8,0.337c-0.351,0.029-0.7,0.07-1.045,0.125c-0.221,0.032-0.419,0.065-0.617,0.107
		c-3.878,0.796-7.146,3.221-9.223,6.84L39.373,55.029c-1.979,2.738-8.54,14.252,6.107,30.985c2.394,2.731,7.426,8.654,15.343,18.059
		L28.341,156.65c-0.265,0.429-0.475,0.89-0.625,1.369c-1.432,4.602-1.933,13.722,5.267,18.721c2.821,1.961,6.121,2.998,9.541,2.998
		c4.339,0,7.54-1.625,8.137-1.951c0.698-0.38,1.313-0.896,1.811-1.518l33.686-42.052c3.447,4.152,5.288,6.409,5.313,6.44
		c0.052,0.062,0.104,0.126,0.159,0.188c1.274,1.439,7.993,8.627,15.509,9.277c0.154,0.016,0.291,0.023,0.405,0.027
		c0.763,0.334,1.584,0.506,2.41,0.506c0.539,0,1.081-0.073,1.608-0.221c7.136-1.987,26.574-7.312,30.791-8.064
		c2.215-0.396,5.36-1.652,7.78-5.396c1.367-2.111,3.774-5.914,6.562-10.316c4.845-7.65,10.873-17.172,13.423-20.938
		c7.301-10.79,0.04-25.056-6.251-31.513c-2.33-2.39-11.114-11.103-18.881-18.79c-0.111-7.628-4.991-14.405-14.52-20.158
		c-3.175-1.915-5.98-2.812-8.832-2.819c-3.875-3.716-5.111-4.798-5.74-5.305c-4.191-3.372-8.354-5.08-12.373-5.08
		c-0.547,0-1.094,0.033-1.631,0.097c-1.322-0.016-5.168-0.327-8.891-0.628C86.053,20.963,77.404,20.263,72.005,20.263L72.005,20.263
		z"/>
</g>
</svg>
