<?xml version="1.0" encoding="utf-8"?>
<!-- Generator: Adobe Illustrator 15.0.0, SVG Export Plug-In . SVG Version: 6.00 Build 0)  -->
<!DOCTYPE svg PUBLIC "-//W3C//DTD SVG 1.1//EN" "http://www.w3.org/Graphics/SVG/1.1/DTD/svg11.dtd">
<svg version="1.1" xmlns="http://www.w3.org/2000/svg" xmlns:xlink="http://www.w3.org/1999/xlink" x="0px" y="0px" width="200px"
	 height="200px" viewBox="0 0 200 200" enable-background="new 0 0 200 200" xml:space="preserve">
<g id="icon">
	<g id="Layer_2">
	</g>
	<g>
		
			<linearGradient id="SVGID_1_" gradientUnits="userSpaceOnUse" x1="18.3857" y1="-45.1855" x2="7.5929" y2="-33.2363" gradientTransform="matrix(0.9988 -0.0486 -0.0486 -0.9988 66.36 77.0295)">
			<stop  offset="0" style="stop-color:#684014"/>
			<stop  offset="0.6503" style="stop-color:#C16703"/>
			<stop  offset="1" style="stop-color:#D79F03"/>
		</linearGradient>
		<path fill="url(#SVGID_1_)" d="M134.521,70.3c-0.232,0.25-0.777,1.488-1.021,1.747c-7.363,7.765-21.087,19.348-35.708,36.823
			c-5.492,5.86-12.73,13.177-18.315,19.123c-5.564,5.928-10.164,10.801-15.303,16.284c-3.991,4.262-9.412,8.957-12.873,12.66
			l-18.408,19.968c-2.105,2.245-3.976,2.682-5.811,0.971l0,0c-1.833-1.712-1.712-3.524,0.375-5.817l18.615-19.047
			c4.904-5.373,11.495-14.406,17.354-20.846c4.143-4.557,8.162-9.966,12.499-14.717c4.912-5.383,8.778-11.366,13.594-16.661
			c6.856-7.539,13.885-14.917,19.687-21.294c6.485-7.131,11.062-14.135,14.877-18.331c3.592-3.949,7.159-4.572,7.159-4.572
			c2.085-2.292,5.506-2.213,7.641,0.173l0,0c2.135,2.39,3.062,6.229,0.959,8.476c0,0-1.302,0.59-3.414,3.122
			C135.91,68.982,135.202,69.574,134.521,70.3z"/>
		
			<linearGradient id="SVGID_2_" gradientUnits="userSpaceOnUse" x1="24.5356" y1="-8.1753" x2="9.9928" y2="5.6747" gradientTransform="matrix(0.9988 -0.0486 -0.0486 -0.9988 66.36 77.0295)">
			<stop  offset="0" style="stop-color:#684014"/>
			<stop  offset="0.6503" style="stop-color:#C16703"/>
			<stop  offset="1" style="stop-color:#D79F03"/>
		</linearGradient>
		<path fill="url(#SVGID_2_)" d="M135.284,69.843c-0.235,0.25-1.541,1.945-1.785,2.204c-7.362,7.765-21.087,19.348-35.708,36.823
			c-5.492,5.86-12.73,13.177-18.315,19.123c-5.564,5.928,32.711-42.901,34.844-40.514l5.543-8.449
			c2.137,2.388,0.783-7.009-1.318-4.762c0,0,19.994-8.438,17.882-5.906C135.91,68.982,135.964,69.117,135.284,69.843z"/>
		
			<linearGradient id="SVGID_3_" gradientUnits="userSpaceOnUse" x1="24.2905" y1="-52.7354" x2="0.2859" y2="-23.1911" gradientTransform="matrix(0.9988 -0.0486 -0.0486 -0.9988 66.36 77.0295)">
			<stop  offset="0.0061" style="stop-color:#C16703"/>
			<stop  offset="1" style="stop-color:#ED9F03"/>
		</linearGradient>
		<path fill="url(#SVGID_3_)" d="M27.702,174.542l18.617-19.048c4.904-5.37,11.496-14.404,17.355-20.844
			c4.142-4.557,8.162-9.967,12.497-14.719c4.912-5.383,8.779-11.365,13.595-16.66c6.856-7.539,13.886-14.915,19.687-21.294
			c6.484-7.13,11.062-14.135,14.878-18.33c3.592-3.949,7.159-4.571,7.159-4.571c2.085-2.293,5.505-2.215,7.64,0.172
			c0.854,0.956,1.513,2.146,1.862,3.373c0.207-1.991-0.676-4.252-2.11-5.857c-2.135-2.387-5.556-2.465-7.641-0.173
			c0,0-3.567,0.623-7.159,4.572c-3.814,4.196-8.391,11.2-14.877,18.331c-5.803,6.378-12.831,13.755-19.687,21.294
			c-4.816,5.294-8.683,11.278-13.594,16.661c-4.337,4.751-8.356,10.16-12.499,14.717c-5.859,6.439-12.45,15.473-17.354,20.845
			l-18.615,19.048c-1.606,1.764-2.009,2.65-1.318,4.41C26.314,175.307,26.788,175.547,27.702,174.542z"/>
		
			<linearGradient id="SVGID_4_" gradientUnits="userSpaceOnUse" x1="202.4541" y1="6.8555" x2="176.0102" y2="32.2668" gradientTransform="matrix(1 0 0 -1 -50 61)">
			<stop  offset="0" style="stop-color:#7E8697"/>
			<stop  offset="1" style="stop-color:#AEBCCD"/>
		</linearGradient>
		<path fill="url(#SVGID_4_)" d="M129.706,39.971c-3.478,5.411,6.489,3.82-2.215,14.774c-0.164,0.205-2.709,2.828-2.709,2.828
			l-8.942-15.998l-3.355,3.402l6.3,18.659c0,0-1.446,1.513-1.739,1.813c0,0-2.504,4.405,2.997,9.904
			c4.862,4.862,9.258,2.012,9.258,2.012c0.448-0.462,1.82-1.747,1.82-1.747l18.159,6.849l3.131-3.067l-15.527-9.438
			c0,0,3.396-3.333,3.537-3.441c10.508-8.085,9.143,1.503,14.415-2.108c11.53-17.449,17.698-43.333,17.698-43.333
			S146.83,27.961,129.706,39.971z"/>
		
			<linearGradient id="SVGID_5_" gradientUnits="userSpaceOnUse" x1="206.292" y1="-6.4873" x2="184.4252" y2="15.3794" gradientTransform="matrix(1 0 0 -1 -50 61)">
			<stop  offset="0" style="stop-color:#7E8697"/>
			<stop  offset="1" style="stop-color:#AEBCCD"/>
		</linearGradient>
		<path fill="url(#SVGID_5_)" d="M132.512,42.036c-2.802,4.36,5.151,3.157-1.861,11.982c-0.133,0.166-5.139,5.235-5.139,5.235
			l-9.544-15.986l-1.647,1.685l6.357,19.186c0,0-1.438,1.492-1.675,1.734c0,0-2.017,3.549,2.414,7.981
			c3.919,3.917,7.459,1.62,7.459,1.62c0.36-0.371,1.741-1.68,1.741-1.68l18.664,6.966l1.607-1.557l-15.629-9.966
			c0,0,5.691-5.641,5.805-5.728c8.468-6.515,7.445,1.132,11.693-1.777c9.29-14.059,9.18-29.836,9.18-29.836
			S146.311,32.359,132.512,42.036z"/>
		
			<linearGradient id="SVGID_6_" gradientUnits="userSpaceOnUse" x1="-1586.1558" y1="997.2168" x2="-1586.1558" y2="987.0781" gradientTransform="matrix(0.7071 -0.7071 -0.7071 -0.7071 1955.0498 -356.9403)">
			<stop  offset="0.092" style="stop-color:#A8CEC9;stop-opacity:0"/>
			<stop  offset="0.1885" style="stop-color:#C4DEDA;stop-opacity:0.3455"/>
			<stop  offset="0.2883" style="stop-color:#E5F0EF;stop-opacity:0.7027"/>
			<stop  offset="0.4663" style="stop-color:#FFFFFF"/>
			<stop  offset="1" style="stop-color:#A8CEC9;stop-opacity:0"/>
		</linearGradient>
		<path opacity="0.31" fill="url(#SVGID_6_)" enable-background="new    " d="M142.9,51.789c2.787,2.79,2.787,7.312,0,10.102
			l-12.162,12.16c-2.788,2.789-7.312,2.789-10.102,0l0,0c-2.789-2.79-2.789-7.312,0-10.102l12.159-12.16
			C135.588,49,140.109,48.999,142.9,51.789L142.9,51.789z"/>
		
			<linearGradient id="SVGID_7_" gradientUnits="userSpaceOnUse" x1="-760.2593" y1="-284.4458" x2="-760.2593" y2="-287.6064" gradientTransform="matrix(0.6973 -0.7168 -0.4445 -0.4324 558.005 -629.1751)">
			<stop  offset="0" style="stop-color:#AEBCCF"/>
			<stop  offset="0.5092" style="stop-color:#FFFFFF"/>
			<stop  offset="1" style="stop-color:#9AA9C5"/>
		</linearGradient>
		<path fill="url(#SVGID_7_)" d="M129.706,39.971c-3.681,5.725,14.636,10.167,7.461,17.542l0,0
			c7.097-7.295,12.006,10.777,17.667,6.9c11.529-17.449,17.698-43.333,17.698-43.333S146.83,27.961,129.706,39.971z"/>
		
			<linearGradient id="SVGID_8_" gradientUnits="userSpaceOnUse" x1="25.0107" y1="3077.4541" x2="16.5897" y2="3051.2551" gradientTransform="matrix(-0.8073 0.2011 -0.1787 0.8126 712.2559 -2452.623)">
			<stop  offset="0.092" style="stop-color:#A8CEC9;stop-opacity:0"/>
			<stop  offset="0.1885" style="stop-color:#C4DEDA;stop-opacity:0.3455"/>
			<stop  offset="0.2883" style="stop-color:#E5F0EF;stop-opacity:0.7027"/>
			<stop  offset="0.4663" style="stop-color:#FFFFFF"/>
			<stop  offset="1" style="stop-color:#A8CEC9;stop-opacity:0"/>
		</linearGradient>
		<path opacity="0.31" fill="url(#SVGID_8_)" enable-background="new    " d="M129.706,39.971
			c-3.681,5.725,14.636,10.167,7.461,17.542l0,0c7.097-7.295,12.006,10.777,17.667,6.9c11.529-17.449,17.698-43.333,17.698-43.333
			S146.83,27.961,129.706,39.971z"/>
		
			<linearGradient id="SVGID_9_" gradientUnits="userSpaceOnUse" x1="169.8633" y1="9.8267" x2="169.8633" y2="8.9046" gradientTransform="matrix(1 0 0 -1 -50 61)">
			<stop  offset="0" style="stop-color:#DBDDE2"/>
			<stop  offset="1" style="stop-color:#AEBCCD"/>
		</linearGradient>
		<polygon fill="url(#SVGID_9_)" points="125.407,59.179 115.968,43.268 114.32,44.953 115.171,45.808 116.038,44.838 
			124.826,59.76 		"/>
		
			<linearGradient id="SVGID_10_" gradientUnits="userSpaceOnUse" x1="192.6875" y1="-16.8247" x2="192.6875" y2="-17.4592" gradientTransform="matrix(1 0 0 -1 -50 61)">
			<stop  offset="0" style="stop-color:#AEBCCD"/>
			<stop  offset="1" style="stop-color:#DBDDE2"/>
		</linearGradient>
		<polygon fill="url(#SVGID_10_)" points="135.378,69.412 134.486,70.303 148.95,79.083 148.573,80.069 149.281,80.759 
			150.891,79.202 		"/>
		
			<linearGradient id="SVGID_11_" gradientUnits="userSpaceOnUse" x1="177.4111" y1="-1.3921" x2="174.0145" y2="1.8719" gradientTransform="matrix(1 0 0 -1 -50 61)">
			<stop  offset="0.092" style="stop-color:#A8CEC9;stop-opacity:0"/>
			<stop  offset="0.1885" style="stop-color:#C4DEDA;stop-opacity:0.3455"/>
			<stop  offset="0.2883" style="stop-color:#E5F0EF;stop-opacity:0.7027"/>
			<stop  offset="0.4663" style="stop-color:#FFFFFF"/>
			<stop  offset="1" style="stop-color:#A8CEC9;stop-opacity:0"/>
		</linearGradient>
		<path fill="url(#SVGID_11_)" d="M133.65,49.697c0,0,4.686,3.556,3.533,5.538c-1.154,1.982-18.004,18.003-18.004,18.003
			s-1.736-1.045-1.812-3.503c-0.077-2.458,0.845-4.293,0.845-4.293L133.65,49.697z"/>
	</g>
</g>
<g id="outline_x5F_white">
	<g>
		<g>
			<path fill="#FFFFFF" d="M172.532,21.08c0,0-6.169,25.885-17.698,43.333c-0.9,0.618-1.609,0.849-2.215,0.849
				c-1.818,0-2.723-2.085-5.213-2.085c-1.533,0-3.668,0.791-6.987,3.344c-0.142,0.108-3.537,3.441-3.537,3.441l15.527,9.438
				l-3.13,3.067l-18.16-6.849c0,0-1.372,1.285-1.82,1.747c0,0-0.699,0.445-1.839,0.683c-7.701,7.416-18.413,17.366-29.668,30.82
				c-5.492,5.86-12.73,13.177-18.315,19.123c-5.564,5.928-10.164,10.801-15.303,16.284c-3.991,4.262-9.412,8.957-12.873,12.66
				l-18.408,19.967c-1.238,1.322-2.396,2.017-3.512,2.017c-0.782,0-1.543-0.34-2.299-1.045c-1.833-1.712-1.712-3.524,0.375-5.817
				l18.615-19.048c4.904-5.372,11.495-14.405,17.354-20.845c4.143-4.557,8.162-9.966,12.499-14.717
				c4.912-5.383,8.778-11.366,13.594-16.661c6.856-7.539,13.885-14.917,19.687-21.294c2.882-3.167,5.384-6.309,7.612-9.191
				c-0.862-2.909,0.227-4.852,0.227-4.852c0.293-0.301,1.739-1.813,1.739-1.813l-6.3-18.659l3.355-3.402l8.941,15.998
				c0,0,2.546-2.623,2.71-2.828c8.704-10.954-1.263-9.363,2.215-14.774C146.83,27.961,172.532,21.08,172.532,21.08 M188.871,4.283
				L169.43,9.488c-1.129,0.302-27.703,7.51-46.339,20.466l-4.573-8.183l-11.222,11.378l-3.354,3.402l-5.189,5.262l2.363,7.002
				l4.422,13.098c-0.424,1.194-0.826,2.739-0.984,4.562c-1.295,1.6-2.707,3.276-4.223,4.942c-2.724,2.994-5.726,6.216-8.904,9.627
				c-3.517,3.774-7.154,7.677-10.784,11.669c-2.713,2.983-5.059,6.025-7.327,8.967c-2.114,2.741-4.111,5.331-6.253,7.68
				c-2.423,2.654-4.678,5.401-6.858,8.059c-1.969,2.398-3.83,4.666-5.655,6.674c-3.293,3.619-6.635,7.79-9.867,11.822
				c-2.707,3.379-5.267,6.572-7.342,8.861l-18.464,18.894l-0.15,0.154l-0.145,0.159c-7.56,8.312-5.137,17.574,0.313,22.664
				c3.791,3.533,7.795,4.272,10.489,4.272c3.112,0,7.766-1.008,12.267-5.81l0.034-0.035l0.034-0.037l18.379-19.936
				c1.429-1.526,3.404-3.4,5.495-5.385c2.479-2.353,5.043-4.783,7.341-7.236c2.917-3.114,5.662-6.031,8.509-9.059
				c2.163-2.299,4.384-4.661,6.785-7.219c2.686-2.859,5.852-6.135,8.914-9.303c3.223-3.334,6.554-6.781,9.41-9.828l0.23-0.246
				l0.216-0.26c9.612-11.49,18.782-20.285,26.162-27.355l11.888,4.483l7.165,2.702l5.47-5.36l3.129-3.067l11.025-10.806l-7.879-4.79
				l0.891-1.347c12.557-19,19.088-46.026,19.359-47.167L188.871,4.283L188.871,4.283z"/>
		</g>
	</g>
</g>
<g id="outline_x5F_black">
	<g>
		<path d="M172.532,21.08c0,0-6.169,25.885-17.698,43.333c-0.9,0.618-1.609,0.849-2.215,0.849c-1.818,0-2.723-2.085-5.213-2.085
			c-1.533,0-3.668,0.791-6.987,3.344c-0.142,0.108-3.537,3.441-3.537,3.441l15.527,9.438l-3.13,3.067l-18.16-6.849
			c0,0-1.372,1.285-1.82,1.747c0,0-0.699,0.445-1.839,0.683c-7.701,7.416-18.413,17.366-29.668,30.82
			c-5.492,5.86-12.73,13.177-18.315,19.123c-5.564,5.928-10.164,10.801-15.303,16.284c-3.991,4.262-9.412,8.957-12.873,12.66
			l-18.408,19.967c-1.238,1.322-2.396,2.017-3.512,2.017c-0.782,0-1.543-0.341-2.299-1.045c-1.833-1.712-1.712-3.524,0.375-5.817
			l18.615-19.048c4.904-5.372,11.495-14.405,17.354-20.845c4.143-4.557,8.162-9.966,12.499-14.717
			c4.912-5.383,8.778-11.366,13.594-16.661c6.856-7.539,13.885-14.917,19.687-21.294c2.882-3.167,5.384-6.309,7.612-9.191
			c-0.862-2.909,0.227-4.852,0.227-4.852c0.293-0.301,1.739-1.813,1.739-1.813l-6.3-18.659l3.355-3.402l8.941,15.998
			c0,0,2.546-2.623,2.71-2.828c8.704-10.954-1.263-9.363,2.215-14.774C146.83,27.961,172.532,21.08,172.532,21.08 M180.701,12.682
			l-9.721,2.603c-1.092,0.292-26.933,7.299-44.721,19.775l-0.965,0.677l-0.638,0.992c-1.247,1.941-1.701,3.709-1.722,5.249
			l-1.859-3.328l-3.898-6.975l-5.609,5.689l-3.355,3.402l-2.596,2.631l1.183,3.501l5.175,15.328l-0.164,0.292
			c-0.297,0.529-1.451,2.818-1.312,6.13c-1.684,2.132-3.602,4.469-5.73,6.808c-2.746,3.02-5.76,6.253-8.95,9.678
			c-3.506,3.762-7.13,7.652-10.737,11.618c-2.55,2.803-4.82,5.746-7.015,8.593c-2.192,2.843-4.262,5.528-6.573,8.062
			c-2.317,2.537-4.521,5.224-6.652,7.818c-2.019,2.461-3.926,4.785-5.854,6.904c-3.168,3.482-6.45,7.577-9.624,11.538
			c-2.797,3.491-5.442,6.791-7.656,9.226l-18.542,18.973l-0.075,0.076l-0.072,0.08c-5.181,5.694-3.254,11.23-0.031,14.24
			c2.359,2.198,4.779,2.659,6.394,2.659c2.801,0,5.456-1.315,7.889-3.912l18.441-20.003c1.527-1.635,3.578-3.579,5.748-5.639
			c2.417-2.293,4.915-4.663,7.092-6.987c2.917-3.112,5.66-6.028,8.506-9.054c2.165-2.303,4.389-4.666,6.792-7.227
			c2.716-2.893,5.897-6.184,8.973-9.365c3.207-3.317,6.523-6.75,9.346-9.762l0.115-0.123l0.107-0.131
			c9.858-11.783,19.189-20.725,26.688-27.91c0.509-0.488,1.007-0.965,1.495-1.434c0.846-0.317,1.462-0.653,1.811-0.865l14.774,5.572
			l3.582,1.352l2.733-2.68l3.131-3.067l5.514-5.403l-6.598-4.009l-5.808-3.531c0.826,0.303,1.794,0.519,2.901,0.519
			c1.906,0,3.74-0.621,5.605-1.899l0.967-0.663l0.647-0.979c11.978-18.125,18.269-44.152,18.528-45.251L180.701,12.682
			L180.701,12.682z"/>
	</g>
</g>
</svg>
