<?xml version="1.0" encoding="utf-8"?>
<!-- Generator: Adobe Illustrator 15.0.0, SVG Export Plug-In . SVG Version: 6.00 Build 0)  -->
<!DOCTYPE svg PUBLIC "-//W3C//DTD SVG 1.1//EN" "http://www.w3.org/Graphics/SVG/1.1/DTD/svg11.dtd">
<svg version="1.1" xmlns="http://www.w3.org/2000/svg" xmlns:xlink="http://www.w3.org/1999/xlink" x="0px" y="0px" width="200px"
	 height="200px" viewBox="0 0 200 200" enable-background="new 0 0 200 200" xml:space="preserve">
<g id="icon">
	<g id="Layer_2">
	</g>
	<g>
		<g>
			<path fill="#3F4223" d="M101.523,120.107c0,0,10.31-11.703,23.188-14.633c17.394-3.959,29.095-13.64,34.44-21.885
				c3.787-5.838,7.4-15.458,2.496-19.387c-6.237-4.998-13.748-0.175-19.106,9.868c-1.288,2.41-3.771,5.021-5.285,5.488
				c0,0-4.341-7.083,6.152-15.735c10.497-8.655,19.683-4.436,24.183-11.996c5.393-9.062-5.855-13.709-17.617-10.607
				c0,0,3.983-7.594-7.394-10.23c-3.08-0.713-8.138-0.388-8.138-0.388s-1.129-6.524-8.508-5.864c-6.903,0.617-9.17,1.812-9.17,1.812
				s-5.242-3.546-12.638-0.893c-7.395,2.651-11.531,3.737-18.044,12.997c-8.021,11.4-21.524,41.977-24.724,51.319
				C58.161,99.315,91.387,131.125,101.523,120.107z"/>
			
				<linearGradient id="SVGID_1_" gradientUnits="userSpaceOnUse" x1="-1434.3784" y1="2709.5889" x2="-1445.067" y2="2709.2061" gradientTransform="matrix(-0.579 -0.9007 -0.9573 0.1959 1899.7078 -1790.5388)">
				<stop  offset="0" style="stop-color:#8B8995"/>
				<stop  offset="0.4969" style="stop-color:#9E9CA6"/>
				<stop  offset="0.8405" style="stop-color:#8B8995"/>
			</linearGradient>
			<path fill="url(#SVGID_1_)" d="M139.491,30.901c3.133-0.644,7.211,1.226,9.104,4.176l0,0c1.897,2.95-0.869,4.615-4.004,5.253
				l-6.729,1.378c-3.135,0.641-5.448,0.017-7.344-2.931l0,0c-1.896-2.948-0.893-5.859,2.24-6.5L139.491,30.901z"/>
			
				<linearGradient id="SVGID_2_" gradientUnits="userSpaceOnUse" x1="-1841.1929" y1="2828.0361" x2="-1852.125" y2="2827.6448" gradientTransform="matrix(-0.5124 -0.6803 -0.9703 0.2312 1922.8696 -1881.2676)">
				<stop  offset="0" style="stop-color:#8B8995"/>
				<stop  offset="0.4969" style="stop-color:#9E9CA6"/>
				<stop  offset="0.8405" style="stop-color:#8B8995"/>
			</linearGradient>
			<path fill="url(#SVGID_2_)" d="M125.087,23.914c2.817-0.674,6.31,0.384,7.797,2.361l0,0c1.49,1.976,0.41,4.122-2.407,4.794
				l-6.054,1.442c-2.819,0.671-6.312-0.387-7.798-2.363l0,0c-1.488-1.974-0.412-4.122,2.408-4.792L125.087,23.914z"/>
			
				<linearGradient id="SVGID_3_" gradientUnits="userSpaceOnUse" x1="-2290.0098" y1="3019.8623" x2="-2298.1431" y2="3019.571" gradientTransform="matrix(-0.4877 -0.5386 -0.9723 0.2197 1924.9106 -1871.0964)">
				<stop  offset="0" style="stop-color:#8B8995"/>
				<stop  offset="0.4969" style="stop-color:#9E9CA6"/>
				<stop  offset="0.8405" style="stop-color:#8B8995"/>
			</linearGradient>
			<path fill="url(#SVGID_3_)" d="M107.662,24.957c2.1-0.475,4.658,0.083,5.711,1.246l0,0c1.055,1.166,0.205,2.493-1.895,2.968
				l-4.512,1.021c-2.104,0.474-4.66-0.085-5.714-1.249l0,0c-1.053-1.163-0.204-2.492,1.897-2.967L107.662,24.957z"/>
			
				<linearGradient id="SVGID_4_" gradientUnits="userSpaceOnUse" x1="-1411.7563" y1="2316.9346" x2="-1425.417" y2="2316.4453" gradientTransform="matrix(-0.3471 -0.9629 -0.951 0.2428 1868.8933 -1879.7437)">
				<stop  offset="0" style="stop-color:#8B8995"/>
				<stop  offset="0.4969" style="stop-color:#9E9CA6"/>
				<stop  offset="0.8405" style="stop-color:#8B8995"/>
			</linearGradient>
			<path fill="url(#SVGID_4_)" d="M155.68,41.436c3.42-0.875,10.647,0.289,11.896,3.751l0,0c1.25,3.463-0.511,6.977-3.931,7.847
				l-7.343,1.876c-3.42,0.871-7.202-1.227-8.45-4.689l0,0c-1.25-3.461-2.91-6.103,0.512-6.975L155.68,41.436z"/>
			
				<linearGradient id="SVGID_5_" gradientUnits="userSpaceOnUse" x1="-1370.4458" y1="2544.5781" x2="-1385.5886" y2="2544.0359" gradientTransform="matrix(-0.4801 -0.904 -0.907 0.3751 1790.729 -2147.3074)">
				<stop  offset="0" style="stop-color:#8B8995"/>
				<stop  offset="0.4969" style="stop-color:#9E9CA6"/>
				<stop  offset="0.8405" style="stop-color:#8B8995"/>
			</linearGradient>
			<path fill="url(#SVGID_5_)" d="M144.416,43.483c3.648-1.51,8.175,0.215,10.107,3.853l0,0c1.933,3.639,0.539,7.811-3.108,9.32
				l-7.84,3.244c-3.65,1.509-8.175-0.218-10.107-3.855l0,0c-1.931-3.636-0.538-7.81,3.11-9.318L144.416,43.483z"/>
			
				<linearGradient id="SVGID_6_" gradientUnits="userSpaceOnUse" x1="-1473.6357" y1="2575.4258" x2="-1488.4607" y2="2574.895" gradientTransform="matrix(-0.4565 -0.8313 -0.9087 0.3696 1791.4492 -2141.3162)">
				<stop  offset="0" style="stop-color:#8B8995"/>
				<stop  offset="0.4969" style="stop-color:#9E9CA6"/>
				<stop  offset="0.8405" style="stop-color:#8B8995"/>
			</linearGradient>
			<path fill="url(#SVGID_6_)" d="M126.419,33.619c3.656-1.489,9.278-0.457,11.112,2.889l0,0c1.838,3.346,1,5.942-2.656,7.428
				l-8.49,4.517c-3.658,1.486-8.109-0.02-9.947-3.364l0,0c-1.838-3.346-0.362-7.264,3.295-8.75L126.419,33.619z"/>
			
				<linearGradient id="SVGID_7_" gradientUnits="userSpaceOnUse" x1="-1753.0669" y1="2684.4541" x2="-1765.7218" y2="2684.001" gradientTransform="matrix(-0.4303 -0.6746 -0.901 0.3863 1774.4961 -2189.9268)">
				<stop  offset="0" style="stop-color:#8B8995"/>
				<stop  offset="0.4969" style="stop-color:#9E9CA6"/>
				<stop  offset="0.8405" style="stop-color:#8B8995"/>
			</linearGradient>
			<path fill="url(#SVGID_7_)" d="M113.307,27.664c3.094-1.33,6.805-0.524,8.282,1.793l0,0c1.479,2.317,0.916,3.706-2.178,5.032
				l-7.399,4.419c-3.096,1.328-6.804,0.524-8.281-1.792l0,0c-1.479-2.318-0.17-5.274,2.928-6.6L113.307,27.664z"/>
			
				<linearGradient id="SVGID_8_" gradientUnits="userSpaceOnUse" x1="-2769.7637" y1="2948.5996" x2="-2781.6379" y2="2948.1746" gradientTransform="matrix(-0.3527 -0.3937 -0.891 0.4063 1746.3083 -2259.1055)">
				<stop  offset="0" style="stop-color:#8B8995"/>
				<stop  offset="0.4969" style="stop-color:#9E9CA6"/>
				<stop  offset="0.8405" style="stop-color:#8B8995"/>
			</linearGradient>
			<path fill="url(#SVGID_8_)" d="M98.916,27.626c2.809-1.282,5.988-1.315,7.104-0.073l0,0c1.112,1.243-0.264,3.288-3.074,4.569
				l-6.036,2.754c-2.81,1.281-5.991,1.312-7.103,0.072l0,0c-1.113-1.242,0.262-3.288,3.072-4.569L98.916,27.626z"/>
			
				<linearGradient id="SVGID_9_" gradientUnits="userSpaceOnUse" x1="-1086.2344" y1="3027.1084" x2="-1103.8739" y2="3026.4768" gradientTransform="matrix(-0.7844 -0.6217 -0.7019 0.7777 1398.635 -2974.8071)">
				<stop  offset="0" style="stop-color:#8B8995"/>
				<stop  offset="0.4969" style="stop-color:#9E9CA6"/>
				<stop  offset="0.8405" style="stop-color:#8B8995"/>
			</linearGradient>
			<path fill="url(#SVGID_9_)" d="M128.456,50.243c2.995-3.316,8.136-3.858,11.481-1.204l0,0c3.349,2.652,4.225,9.203,1.23,12.522
				l-6.434,7.123c-2.993,3.321-8.728,2.15-12.074-0.503l0,0c-3.348-2.651-3.633-7.493-0.637-10.81L128.456,50.243z"/>
			
				<linearGradient id="SVGID_10_" gradientUnits="userSpaceOnUse" x1="-863.8174" y1="3204.3799" x2="-877.8492" y2="3203.8774" gradientTransform="matrix(-0.8095 -0.6179 -0.4478 0.793 888.4636 -3005.0117)">
				<stop  offset="0" style="stop-color:#8B8995"/>
				<stop  offset="0.4969" style="stop-color:#9E9CA6"/>
				<stop  offset="0.8405" style="stop-color:#8B8995"/>
			</linearGradient>
			<path fill="url(#SVGID_10_)" d="M154.715,65.815c1.672-2.957,4.736-3.372,7.756-1.067l0,0c3.021,2.305,4.11,6.57,2.438,9.527
				l-3.584,6.348c-1.671,2.96-5.472,3.49-8.49,1.185l0,0c-3.019-2.304-4.11-6.569-2.44-9.526L154.715,65.815z"/>
			
				<linearGradient id="SVGID_11_" gradientUnits="userSpaceOnUse" x1="-1156.8618" y1="2703.9902" x2="-1173.9135" y2="2703.3796" gradientTransform="matrix(-0.5847 -0.8419 -0.7355 0.7306 1456.8357 -2869.427)">
				<stop  offset="0" style="stop-color:#8B8995"/>
				<stop  offset="0.4969" style="stop-color:#9E9CA6"/>
				<stop  offset="0.8405" style="stop-color:#8B8995"/>
			</linearGradient>
			<path fill="url(#SVGID_11_)" d="M147.389,75.637c3.139-3.115,7.704-2.732,10.198,0.861l0,0c2.496,3.592,1.974,9.031-1.165,12.148
				L148.99,98c-3.139,3.122-7.014,0.074-9.508-3.517l0,0c-2.496-3.592-1.974-9.033,1.166-12.148L147.389,75.637z"/>
			
				<linearGradient id="SVGID_12_" gradientUnits="userSpaceOnUse" x1="-1001.668" y1="3074.832" x2="-1017.7281" y2="3074.2571" gradientTransform="matrix(-0.7837 -0.6211 -0.6211 0.7837 1235.3927 -2986.1343)">
				<stop  offset="0" style="stop-color:#8B8995"/>
				<stop  offset="0.4969" style="stop-color:#9E9CA6"/>
				<stop  offset="0.8405" style="stop-color:#8B8995"/>
			</linearGradient>
			<path fill="url(#SVGID_12_)" d="M112.831,41.345c2.649-3.344,7.509-3.906,10.854-1.255l0,0c3.346,2.651,3.904,7.511,1.256,10.855
				l-5.691,7.181c-2.65,3.343-7.512,3.906-10.854,1.255l0,0c-3.345-2.65-3.905-7.51-1.256-10.854L112.831,41.345z"/>
			
				<linearGradient id="SVGID_13_" gradientUnits="userSpaceOnUse" x1="-1095.4229" y1="3077.5361" x2="-1110.8719" y2="3076.9829" gradientTransform="matrix(-0.7145 -0.5663 -0.6211 0.7837 1226.29 -2993.7319)">
				<stop  offset="0" style="stop-color:#8B8995"/>
				<stop  offset="0.4969" style="stop-color:#9E9CA6"/>
				<stop  offset="0.8405" style="stop-color:#8B8995"/>
			</linearGradient>
			<path fill="url(#SVGID_13_)" d="M99.706,34.288c2.549-3.217,6.992-3.94,9.926-1.614l0,0c2.935,2.325,3.244,6.816,0.693,10.033
				l-5.476,6.909c-2.55,3.216-6.994,3.938-9.93,1.615l0,0c-2.932-2.325-3.241-6.817-0.691-10.033L99.706,34.288z"/>
			
				<linearGradient id="SVGID_14_" gradientUnits="userSpaceOnUse" x1="-1635.2734" y1="3341.6279" x2="-1650.7214" y2="3341.0747" gradientTransform="matrix(-0.4944 -0.3919 -0.5059 0.6383 967.8501 -2737.0356)">
				<stop  offset="0" style="stop-color:#8B8995"/>
				<stop  offset="0.4969" style="stop-color:#9E9CA6"/>
				<stop  offset="0.8405" style="stop-color:#8B8995"/>
			</linearGradient>
			<path fill="url(#SVGID_14_)" d="M87.669,33.45c2.075-2.62,5.406-3.44,7.436-1.83l0,0c2.029,1.608,1.99,5.035-0.086,7.656
				l-4.459,5.627c-2.076,2.62-5.405,3.44-7.435,1.832l0,0c-2.029-1.61-1.992-5.037,0.084-7.658L87.669,33.45z"/>
			
				<linearGradient id="SVGID_15_" gradientUnits="userSpaceOnUse" x1="-1525.8369" y1="2338.2148" x2="-1551.6827" y2="2316.6765" gradientTransform="matrix(-0.2942 -0.9557 -0.9557 0.2942 1833.0928 -2011.5298)">
				<stop  offset="0" style="stop-color:#95939E"/>
				<stop  offset="0.1043" style="stop-color:#CCCBD1"/>
				<stop  offset="0.4908" style="stop-color:#D6D5DA"/>
				<stop  offset="0.816" style="stop-color:#9E9CA6"/>
				<stop  offset="1" style="stop-color:#8B8995"/>
			</linearGradient>
			<path fill="url(#SVGID_15_)" d="M37.537,111.037c-0.586,0.363-2.161,0.52-2.779,0.883c-0.647,0.381-1.705,1.082-2.077,1.615
				c-13.314,19.018-2.14,62.721-2.14,62.721s69.875,1.818,67.846-21.309c-0.193-2.195-1.968-2.139-1.979-2.545
				c-0.715-25.988,3.036-23.56,4.188-26.744c5.346-14.779-10.498,0.898-27.979-13.947C55.487,97.168,57.732,88.773,57.732,88.773
				S56.979,99.032,37.537,111.037z"/>
			<path fill="#231F20" d="M33.098,170.807c0,0-8.517-42.797,2.585-59.276l1.432-0.312c-11.013,15.197-3.162,56.984-3.162,56.984
				S86,166.143,96.445,153.719c0.957-1.137-0.047,4.195,0.028,2.482C85.495,169.23,33.098,170.807,33.098,170.807z"/>
			
				<linearGradient id="SVGID_16_" gradientUnits="userSpaceOnUse" x1="-1484.4102" y1="2296.0059" x2="-1510.2561" y2="2274.4675" gradientTransform="matrix(-0.2942 -0.9557 -0.9557 0.2942 1832.9229 -2011.2563)">
				<stop  offset="0" style="stop-color:#95939E"/>
				<stop  offset="0.1043" style="stop-color:#CCCBD1"/>
				<stop  offset="0.4908" style="stop-color:#D6D5DA"/>
				<stop  offset="0.816" style="stop-color:#9E9CA6"/>
				<stop  offset="1" style="stop-color:#8B8995"/>
			</linearGradient>
			<path fill="url(#SVGID_16_)" d="M73.633,50.66c3.977-7.675,25.734,12.347,40.161,25.71c10.854,10.055,18.951,10.71,26.108,9.268
				c4.464-0.899,7.716,8.05,8.656,10.96c1.449,4.496-4.672,9.435-24.705,17.617c-15.324,6.26-21.783,13.355-23.43,15.545
				c-4.665,6.197-16.429,5.633-15.208-9.229c0,0-22.677-5.896-30.132-30.945C55.244,90.12,62.058,73.006,73.633,50.66z"/>
			
				<linearGradient id="SVGID_17_" gradientUnits="userSpaceOnUse" x1="-1465.1084" y1="2277.3408" x2="-1490.9539" y2="2255.803" gradientTransform="matrix(-0.2942 -0.9557 -0.9557 0.2942 1833.0635 -2011.4888)">
				<stop  offset="0" style="stop-color:#95939E"/>
				<stop  offset="0.1043" style="stop-color:#CCCBD1"/>
				<stop  offset="0.4908" style="stop-color:#D6D5DA"/>
				<stop  offset="0.816" style="stop-color:#9E9CA6"/>
				<stop  offset="1" style="stop-color:#8B8995"/>
			</linearGradient>
			<path fill="url(#SVGID_17_)" d="M78.906,41.128c4.708-7.176,49.739,14.891,55.963,30.703c1.719,4.365-8.373,17.665-10.817,20.308
				c-15.741,17.007-18.592-5.848-18.592-5.848c-14.651-6.479-27.872-20.816-32.493-32.217
				C71.973,51.619,76.112,45.384,78.906,41.128z"/>
		</g>
		
			<linearGradient id="SVGID_18_" gradientUnits="userSpaceOnUse" x1="111.1436" y1="-12.5352" x2="218.9805" y2="-12.5352" gradientTransform="matrix(1 0 0 -1 -50 61)">
			<stop  offset="0" style="stop-color:#FFFFFF"/>
			<stop  offset="1" style="stop-color:#231F0F"/>
		</linearGradient>
		<path fill="url(#SVGID_18_)" d="M101.523,120.107c0,0,10.31-11.703,23.188-14.633c17.394-3.959,29.095-13.64,34.44-21.885
			c3.787-5.838,7.4-15.458,2.496-19.387c-6.237-4.998-13.748-0.175-19.106,9.868c-1.288,2.41-3.771,5.021-5.285,5.488
			c0,0-4.341-7.083,6.152-15.735c10.497-8.655,19.683-4.436,24.183-11.996c5.393-9.062-5.855-13.709-17.617-10.607
			c0,0,3.983-7.594-7.394-10.23c-3.08-0.713-8.138-0.388-8.138-0.388s-1.129-6.524-8.508-5.864c-6.903,0.617-9.17,1.812-9.17,1.812
			s-5.242-3.546-12.638-0.893c-7.395,2.651-11.531,3.737-18.044,12.997c-8.021,11.4-21.524,41.977-24.724,51.319
			C58.161,99.315,91.387,131.125,101.523,120.107z"/>
		
			<linearGradient id="SVGID_19_" gradientUnits="userSpaceOnUse" x1="-1434.3784" y1="2709.5889" x2="-1445.067" y2="2709.2061" gradientTransform="matrix(-0.579 -0.9007 -0.9573 0.1959 1899.7078 -1790.5388)">
			<stop  offset="0" style="stop-color:#8B897C"/>
			<stop  offset="0.4969" style="stop-color:#9E9C90"/>
			<stop  offset="0.8405" style="stop-color:#8B8979"/>
		</linearGradient>
		<path fill="url(#SVGID_19_)" d="M139.491,30.901c3.133-0.644,7.211,1.226,9.104,4.176l0,0c1.897,2.95-0.869,4.615-4.004,5.253
			l-6.729,1.378c-3.135,0.641-5.448,0.017-7.344-2.931l0,0c-1.896-2.948-0.893-5.859,2.24-6.5L139.491,30.901z"/>
		
			<linearGradient id="SVGID_20_" gradientUnits="userSpaceOnUse" x1="197.668" y1="26.9473" x2="177.7174" y2="26.2329" gradientTransform="matrix(1 0 0 -1 -50 61)">
			<stop  offset="0" style="stop-color:#959379"/>
			<stop  offset="0.1043" style="stop-color:#CCCBB6"/>
			<stop  offset="0.4908" style="stop-color:#D6D5C0"/>
			<stop  offset="0.816" style="stop-color:#9E9C90"/>
			<stop  offset="1" style="stop-color:#8B897C"/>
		</linearGradient>
		<path fill="url(#SVGID_20_)" d="M132.762,33.584l6.729-1.375c3.133-0.644,7.211,1.225,9.104,4.176
			c0.262,0.406,0.428,0.786,0.522,1.146c0.211-0.691,0.088-1.505-0.522-2.453c-1.895-2.95-5.973-4.819-9.104-4.176l-6.729,1.375
			c-2.318,0.474-3.467,2.191-3.142,4.244C129.866,35.076,130.958,33.953,132.762,33.584z"/>
		
			<linearGradient id="SVGID_21_" gradientUnits="userSpaceOnUse" x1="-1841.1929" y1="2828.0361" x2="-1852.125" y2="2827.6448" gradientTransform="matrix(-0.5124 -0.6803 -0.9703 0.2312 1922.8696 -1881.2676)">
			<stop  offset="0" style="stop-color:#8B897C"/>
			<stop  offset="0.4969" style="stop-color:#9E9C90"/>
			<stop  offset="0.8405" style="stop-color:#8B8979"/>
		</linearGradient>
		<path fill="url(#SVGID_21_)" d="M125.087,23.914c2.817-0.674,6.31,0.384,7.797,2.361l0,0c1.49,1.976,0.41,4.122-2.407,4.794
			l-6.054,1.442c-2.819,0.671-6.312-0.387-7.798-2.363l0,0c-1.488-1.974-0.412-4.122,2.408-4.792L125.087,23.914z"/>
		
			<linearGradient id="SVGID_22_" gradientUnits="userSpaceOnUse" x1="182.1904" y1="34.8081" x2="164.2826" y2="34.1669" gradientTransform="matrix(1 0 0 -1 -50 61)">
			<stop  offset="0" style="stop-color:#959379"/>
			<stop  offset="0.1043" style="stop-color:#CCCBB6"/>
			<stop  offset="0.4908" style="stop-color:#D6D5C0"/>
			<stop  offset="0.816" style="stop-color:#9E9C90"/>
			<stop  offset="1" style="stop-color:#8B897C"/>
		</linearGradient>
		<path fill="url(#SVGID_22_)" d="M119.033,26.843l6.054-1.441c2.817-0.674,6.31,0.384,7.797,2.361
			c0.265,0.351,0.443,0.707,0.552,1.06c0.26-0.79,0.1-1.685-0.552-2.547c-1.487-1.977-4.979-3.035-7.797-2.361l-6.054,1.442
			c-2.32,0.551-3.456,2.103-2.959,3.734C116.408,28.068,117.443,27.221,119.033,26.843z"/>
		
			<linearGradient id="SVGID_23_" gradientUnits="userSpaceOnUse" x1="-2290.0098" y1="3019.8623" x2="-2298.1431" y2="3019.571" gradientTransform="matrix(-0.4877 -0.5386 -0.9723 0.2197 1924.9106 -1871.0964)">
			<stop  offset="0" style="stop-color:#8B897C"/>
			<stop  offset="0.4969" style="stop-color:#9E9C90"/>
			<stop  offset="0.8405" style="stop-color:#8B8979"/>
		</linearGradient>
		<path fill="url(#SVGID_23_)" d="M107.662,24.957c2.1-0.475,4.658,0.083,5.711,1.246l0,0c1.055,1.166,0.205,2.493-1.895,2.968
			l-4.512,1.021c-2.104,0.474-4.66-0.085-5.714-1.249l0,0c-1.053-1.163-0.204-2.492,1.897-2.967L107.662,24.957z"/>
		
			<linearGradient id="SVGID_24_" gradientUnits="userSpaceOnUse" x1="162.8252" y1="34.6226" x2="149.5671" y2="34.1479" gradientTransform="matrix(1 0 0 -1 -50 61)">
			<stop  offset="0" style="stop-color:#959379"/>
			<stop  offset="0.1043" style="stop-color:#CCCBB6"/>
			<stop  offset="0.4908" style="stop-color:#D6D5C0"/>
			<stop  offset="0.816" style="stop-color:#9E9C90"/>
			<stop  offset="1" style="stop-color:#8B897C"/>
		</linearGradient>
		<path fill="url(#SVGID_24_)" d="M103.15,27.166l4.512-1.019c2.1-0.475,4.658,0.083,5.711,1.247
			c0.126,0.139,0.221,0.28,0.293,0.422c0.259-0.507,0.193-1.075-0.293-1.612c-1.053-1.163-3.611-1.721-5.711-1.246l-4.512,1.019
			c-1.852,0.419-2.727,1.5-2.188,2.548C101.266,27.93,102.018,27.422,103.15,27.166z"/>
		
			<linearGradient id="SVGID_25_" gradientUnits="userSpaceOnUse" x1="-1411.7563" y1="2316.9346" x2="-1425.417" y2="2316.4453" gradientTransform="matrix(-0.3471 -0.9629 -0.951 0.2428 1868.8933 -1879.7437)">
			<stop  offset="0" style="stop-color:#8B897C"/>
			<stop  offset="0.4969" style="stop-color:#9E9C90"/>
			<stop  offset="0.8405" style="stop-color:#8B8979"/>
		</linearGradient>
		<path fill="url(#SVGID_25_)" d="M155.68,41.436c3.42-0.875,10.647,0.289,11.896,3.751l0,0c1.25,3.463-0.511,6.977-3.931,7.847
			l-7.343,1.876c-3.42,0.871-7.202-1.227-8.45-4.689l0,0c-1.25-3.461-2.91-6.103,0.512-6.975L155.68,41.436z"/>
		
			<linearGradient id="SVGID_26_" gradientUnits="userSpaceOnUse" x1="216.2783" y1="16.5356" x2="194.3441" y2="15.7502" gradientTransform="matrix(1 0 0 -1 -50 61)">
			<stop  offset="0" style="stop-color:#959379"/>
			<stop  offset="0.1043" style="stop-color:#CCCBB6"/>
			<stop  offset="0.4908" style="stop-color:#D6D5C0"/>
			<stop  offset="0.816" style="stop-color:#9E9C90"/>
			<stop  offset="1" style="stop-color:#8B897C"/>
		</linearGradient>
		<path fill="url(#SVGID_26_)" d="M148.361,44.4l7.316-1.81c3.42-0.875,10.648,0.289,11.896,3.751
			c0.201,0.558,0.316,1.118,0.367,1.668c0.086-0.907-0.022-1.866-0.367-2.822c-1.247-3.462-8.477-4.626-11.896-3.751l-7.316,1.811
			c-1.813,0.462-2.192,1.426-1.967,2.741C146.564,45.26,147.131,44.714,148.361,44.4z"/>
		
			<linearGradient id="SVGID_27_" gradientUnits="userSpaceOnUse" x1="-1371.335" y1="2544.0625" x2="-1386.4799" y2="2543.5203" gradientTransform="matrix(-0.4801 -0.904 -0.907 0.3751 1790.729 -2147.3074)">
			<stop  offset="0" style="stop-color:#8B8974"/>
			<stop  offset="1" style="stop-color:#4C4D38"/>
		</linearGradient>
		<path fill="url(#SVGID_27_)" d="M145.312,44.095c3.65-1.512,8.176,0.214,10.106,3.854l0,0c1.935,3.639,0.541,7.812-3.108,9.319
			l-7.84,3.244c-3.65,1.508-8.174-0.218-10.105-3.854l0,0c-1.934-3.637-0.541-7.811,3.109-9.319L145.312,44.095z"/>
		
			<linearGradient id="SVGID_28_" gradientUnits="userSpaceOnUse" x1="-1370.4458" y1="2544.5781" x2="-1385.5886" y2="2544.0359" gradientTransform="matrix(-0.4801 -0.904 -0.907 0.3751 1790.729 -2147.3074)">
			<stop  offset="0" style="stop-color:#8B897C"/>
			<stop  offset="0.4969" style="stop-color:#9E9C90"/>
			<stop  offset="0.8405" style="stop-color:#8B8979"/>
		</linearGradient>
		<path fill="url(#SVGID_28_)" d="M144.416,43.483c3.648-1.51,8.175,0.215,10.107,3.853l0,0c1.933,3.639,0.539,7.811-3.108,9.32
			l-7.84,3.244c-3.65,1.509-8.175-0.218-10.107-3.855l0,0c-1.931-3.636-0.538-7.81,3.11-9.318L144.416,43.483z"/>
		
			<linearGradient id="SVGID_29_" gradientUnits="userSpaceOnUse" x1="203.6074" y1="12.7368" x2="180.3663" y2="11.9046" gradientTransform="matrix(1 0 0 -1 -50 61)">
			<stop  offset="0" style="stop-color:#959379"/>
			<stop  offset="0.1043" style="stop-color:#CCCBB6"/>
			<stop  offset="0.4908" style="stop-color:#D6D5C0"/>
			<stop  offset="0.816" style="stop-color:#9E9C90"/>
			<stop  offset="1" style="stop-color:#8B897C"/>
		</linearGradient>
		<path fill="url(#SVGID_29_)" d="M136.814,47.956l7.84-3.243c3.648-1.511,8.175,0.215,10.107,3.853
			c0.258,0.486,0.451,0.982,0.594,1.479c-0.092-0.903-0.36-1.823-0.832-2.709c-1.934-3.638-6.459-5.363-10.107-3.853l-7.838,3.243
			c-3.162,1.307-4.626,4.616-3.704,7.842C132.59,51.763,134.057,49.096,136.814,47.956z"/>
		
			<linearGradient id="SVGID_30_" gradientUnits="userSpaceOnUse" x1="-1474.2275" y1="2574.7988" x2="-1489.0505" y2="2574.2681" gradientTransform="matrix(-0.4565 -0.8313 -0.9087 0.3696 1791.4492 -2141.3162)">
			<stop  offset="0" style="stop-color:#8B8974"/>
			<stop  offset="1" style="stop-color:#4C4D38"/>
		</linearGradient>
		<path fill="url(#SVGID_30_)" d="M127.259,33.878c3.656-1.489,9.277-0.457,11.113,2.889l0,0c1.838,3.347,1,5.943-2.657,7.43
			l-8.49,4.516c-3.656,1.487-8.109-0.02-9.947-3.364l0,0c-1.838-3.345-0.362-7.264,3.297-8.749L127.259,33.878z"/>
		
			<linearGradient id="SVGID_31_" gradientUnits="userSpaceOnUse" x1="-1473.6357" y1="2575.4258" x2="-1488.4607" y2="2574.895" gradientTransform="matrix(-0.4565 -0.8313 -0.9087 0.3696 1791.4492 -2141.3162)">
			<stop  offset="0" style="stop-color:#8B897C"/>
			<stop  offset="0.4969" style="stop-color:#9E9C90"/>
			<stop  offset="0.8405" style="stop-color:#8B8979"/>
		</linearGradient>
		<path fill="url(#SVGID_31_)" d="M126.419,33.619c3.656-1.489,9.278-0.457,11.112,2.889l0,0c1.838,3.346,1,5.942-2.656,7.428
			l-8.49,4.517c-3.658,1.486-8.109-0.02-9.947-3.364l0,0c-1.838-3.346-0.362-7.264,3.295-8.75L126.419,33.619z"/>
		
			<linearGradient id="SVGID_32_" gradientUnits="userSpaceOnUse" x1="186.6973" y1="23.6548" x2="163.401" y2="22.8207" gradientTransform="matrix(1 0 0 -1 -50 61)">
			<stop  offset="0" style="stop-color:#959379"/>
			<stop  offset="0.1043" style="stop-color:#CCCBB6"/>
			<stop  offset="0.4908" style="stop-color:#D6D5C0"/>
			<stop  offset="0.816" style="stop-color:#9E9C90"/>
			<stop  offset="1" style="stop-color:#8B897C"/>
		</linearGradient>
		<path fill="url(#SVGID_32_)" d="M119.732,37.629l6.687-2.721c3.656-1.489,9.278-0.457,11.112,2.889
			c0.482,0.878,0.775,1.704,0.888,2.472c0.172-1.107-0.122-2.368-0.888-3.761c-1.834-3.346-7.456-4.378-11.112-2.889l-6.687,2.721
			c-2.818,1.145-4.334,3.734-4.043,6.393C115.93,40.558,117.374,38.587,119.732,37.629z"/>
		
			<linearGradient id="SVGID_33_" gradientUnits="userSpaceOnUse" x1="-2771.1167" y1="2948.2461" x2="-2782.8333" y2="2947.8267" gradientTransform="matrix(-0.3527 -0.3937 -0.891 0.4063 1746.3083 -2259.1055)">
			<stop  offset="0" style="stop-color:#8B8974"/>
			<stop  offset="1" style="stop-color:#4C4D38"/>
		</linearGradient>
		<path fill="url(#SVGID_33_)" d="M99.954,27.903c2.81-1.282,5.36-1.229,6.474,0.014l0,0c1.113,1.241,1.502,2.571-1.309,3.853
			l-7.173,3.384c-2.812,1.281-5.992,1.312-7.104,0.072l0,0c-1.114-1.243,0.263-3.289,3.074-4.57L99.954,27.903z"/>
		
			<linearGradient id="SVGID_34_" gradientUnits="userSpaceOnUse" x1="-1754.627" y1="2684.0967" x2="-1767.2838" y2="2683.6436" gradientTransform="matrix(-0.4303 -0.6746 -0.901 0.3863 1774.4961 -2189.9268)">
			<stop  offset="0" style="stop-color:#8B8974"/>
			<stop  offset="1" style="stop-color:#4C4D38"/>
		</linearGradient>
		<path fill="url(#SVGID_34_)" d="M114.301,28.578c3.096-1.329,6.807-0.524,8.283,1.795l0,0c1.479,2.316,0.917,3.704-2.178,5.03
			l-7.397,4.42c-3.096,1.328-6.805,0.523-8.282-1.793l0,0c-1.48-2.318-0.168-5.273,2.928-6.599L114.301,28.578z"/>
		
			<linearGradient id="SVGID_35_" gradientUnits="userSpaceOnUse" x1="-1753.0669" y1="2684.4541" x2="-1765.7218" y2="2684.001" gradientTransform="matrix(-0.4303 -0.6746 -0.901 0.3863 1774.4961 -2189.9268)">
			<stop  offset="0" style="stop-color:#8B897C"/>
			<stop  offset="0.4969" style="stop-color:#9E9C90"/>
			<stop  offset="0.8405" style="stop-color:#8B8979"/>
		</linearGradient>
		<path fill="url(#SVGID_35_)" d="M113.307,27.664c3.094-1.33,6.805-0.524,8.282,1.793l0,0c1.479,2.317,0.916,3.706-2.178,5.032
			l-7.399,4.419c-3.096,1.328-6.804,0.524-8.281-1.792l0,0c-1.479-2.318-0.17-5.274,2.928-6.6L113.307,27.664z"/>
		
			<linearGradient id="SVGID_36_" gradientUnits="userSpaceOnUse" x1="170.918" y1="30.0171" x2="151.2159" y2="29.3117" gradientTransform="matrix(1 0 0 -1 -50 61)">
			<stop  offset="0" style="stop-color:#959379"/>
			<stop  offset="0.1043" style="stop-color:#CCCBB6"/>
			<stop  offset="0.4908" style="stop-color:#D6D5C0"/>
			<stop  offset="0.816" style="stop-color:#9E9C90"/>
			<stop  offset="1" style="stop-color:#8B897C"/>
		</linearGradient>
		<path fill="url(#SVGID_36_)" d="M106.657,31.857l6.647-2.853c3.096-1.33,6.805-0.525,8.283,1.793
			c0.327,0.513,0.549,0.979,0.671,1.411c0.265-0.771,0.026-1.657-0.671-2.752c-1.479-2.317-5.188-3.123-8.283-1.793l-6.647,2.853
			c-2.511,1.074-3.847,3.221-3.474,5.229C103.463,34.18,104.702,32.693,106.657,31.857z"/>
		
			<linearGradient id="SVGID_37_" gradientUnits="userSpaceOnUse" x1="-2769.7646" y1="2948.873" x2="-2781.4792" y2="2948.4536" gradientTransform="matrix(-0.3527 -0.3937 -0.891 0.4063 1746.3083 -2259.1055)">
			<stop  offset="0" style="stop-color:#8B897C"/>
			<stop  offset="0.4969" style="stop-color:#9E9C90"/>
			<stop  offset="0.8405" style="stop-color:#8B8979"/>
		</linearGradient>
		<path fill="url(#SVGID_37_)" d="M98.916,27.626c2.809-1.282,5.361-1.23,6.477,0.014l0,0c1.111,1.243,1.502,2.571-1.311,3.853
			l-7.174,3.384c-2.81,1.281-5.991,1.312-7.103,0.072l0,0c-1.113-1.242,0.262-3.288,3.072-4.569L98.916,27.626z"/>
		
			<linearGradient id="SVGID_38_" gradientUnits="userSpaceOnUse" x1="155.0146" y1="30.6631" x2="137.7539" y2="30.0451" gradientTransform="matrix(1 0 0 -1 -50 61)">
			<stop  offset="0" style="stop-color:#959379"/>
			<stop  offset="0.1043" style="stop-color:#CCCBB6"/>
			<stop  offset="0.4908" style="stop-color:#D6D5C0"/>
			<stop  offset="0.816" style="stop-color:#9E9C90"/>
			<stop  offset="1" style="stop-color:#8B897C"/>
		</linearGradient>
		<path fill="url(#SVGID_38_)" d="M93.019,31.312l6.038-2.753c2.81-1.282,5.362-1.229,6.476,0.015
			c0.289,0.322,0.525,0.651,0.675,0.982c0.117-0.648-0.258-1.293-0.815-1.916c-1.113-1.244-3.666-1.296-6.476-0.014l-6.038,2.753
			c-2.58,1.177-3.944,2.995-3.291,4.247C89.765,33.509,91.029,32.22,93.019,31.312z"/>
		
			<linearGradient id="SVGID_39_" gradientUnits="userSpaceOnUse" x1="-1087.9819" y1="3026.8018" x2="-1106.4021" y2="3026.1421" gradientTransform="matrix(-0.7844 -0.6217 -0.7019 0.7777 1398.635 -2974.8071)">
			<stop  offset="0" style="stop-color:#8B8974"/>
			<stop  offset="1" style="stop-color:#4C4D38"/>
		</linearGradient>
		<path fill="url(#SVGID_39_)" d="M129.994,51.058c2.994-3.318,8.136-3.859,11.482-1.206l0,0c3.349,2.653,6.631,7.541,3.637,10.861
			l-8.84,8.785c-2.994,3.32-8.727,2.15-12.074-0.504l0,0c-3.348-2.65-3.633-7.493-0.637-10.809L129.994,51.058z"/>
		
			<linearGradient id="SVGID_40_" gradientUnits="userSpaceOnUse" x1="-1086.291" y1="3027.1064" x2="-1104.712" y2="3026.447" gradientTransform="matrix(-0.7844 -0.6217 -0.7019 0.7777 1398.635 -2974.8071)">
			<stop  offset="0" style="stop-color:#8B897C"/>
			<stop  offset="0.4969" style="stop-color:#9E9C90"/>
			<stop  offset="0.8405" style="stop-color:#8B8979"/>
		</linearGradient>
		<path fill="url(#SVGID_40_)" d="M128.456,50.243c2.995-3.316,8.136-3.858,11.481-1.204l0,0c3.349,2.652,6.631,7.54,3.638,10.86
			l-8.839,8.785c-2.994,3.321-8.729,2.15-12.075-0.503l0,0c-3.349-2.651-3.634-7.493-0.638-10.81L128.456,50.243z"/>
		
			<linearGradient id="SVGID_41_" gradientUnits="userSpaceOnUse" x1="192.8203" y1="6.2217" x2="167.4057" y2="5.3117" gradientTransform="matrix(1 0 0 -1 -50 61)">
			<stop  offset="0" style="stop-color:#959379"/>
			<stop  offset="0.1043" style="stop-color:#CCCBB6"/>
			<stop  offset="0.4908" style="stop-color:#D6D5C0"/>
			<stop  offset="0.816" style="stop-color:#9E9C90"/>
			<stop  offset="1" style="stop-color:#8B897C"/>
		</linearGradient>
		<path fill="url(#SVGID_41_)" d="M122.023,58.781l6.433-7.127c2.995-3.317,8.136-3.859,11.481-1.205
			c2.215,1.755,4.392,4.488,4.75,7.101c0.437-2.992-2.131-6.435-4.75-8.51c-3.347-2.654-8.486-2.112-11.481,1.204l-6.433,7.128
			c-1.568,1.738-2.229,3.893-2.029,5.933C120.148,61.711,120.814,60.121,122.023,58.781z"/>
		
			<linearGradient id="SVGID_42_" gradientUnits="userSpaceOnUse" x1="-1636.959" y1="3340.8076" x2="-1652.5557" y2="3340.2493" gradientTransform="matrix(-0.4944 -0.3919 -0.5059 0.6383 967.8501 -2737.0356)">
			<stop  offset="0" style="stop-color:#8B8974"/>
			<stop  offset="1" style="stop-color:#4C4D38"/>
		</linearGradient>
		<path fill="url(#SVGID_42_)" d="M88.913,33.583c2.075-2.62,5.404-3.44,7.435-1.83l0,0c2.029,1.608,4.067,2.414,1.991,5.034
			l-6.536,8.249c-2.077,2.62-5.405,3.44-7.435,1.832l0,0c-2.03-1.609-1.993-5.037,0.084-7.657L88.913,33.583z"/>
		
			<linearGradient id="SVGID_43_" gradientUnits="userSpaceOnUse" x1="-863.8174" y1="3204.3799" x2="-877.8492" y2="3203.8774" gradientTransform="matrix(-0.8095 -0.6179 -0.4478 0.793 888.4636 -3005.0117)">
			<stop  offset="0" style="stop-color:#8B897C"/>
			<stop  offset="0.4969" style="stop-color:#9E9C90"/>
			<stop  offset="0.8405" style="stop-color:#8B8979"/>
		</linearGradient>
		<path fill="url(#SVGID_43_)" d="M154.715,65.815c1.672-2.957,4.736-3.372,7.756-1.067l0,0c3.021,2.305,4.11,6.57,2.438,9.527
			l-3.584,6.348c-1.671,2.96-5.472,3.49-8.49,1.185l0,0c-3.019-2.304-4.11-6.569-2.44-9.526L154.715,65.815z"/>
		
			<linearGradient id="SVGID_44_" gradientUnits="userSpaceOnUse" x1="213.6826" y1="-10.4678" x2="198.0761" y2="-11.0266" gradientTransform="matrix(1 0 0 -1 -50 61)">
			<stop  offset="0" style="stop-color:#959379"/>
			<stop  offset="0.1043" style="stop-color:#CCCBB6"/>
			<stop  offset="0.4908" style="stop-color:#D6D5C0"/>
			<stop  offset="0.816" style="stop-color:#9E9C90"/>
			<stop  offset="1" style="stop-color:#8B897C"/>
		</linearGradient>
		<path fill="url(#SVGID_44_)" d="M151.075,73.326l4.319-6.468c1.672-2.957,4.736-3.372,7.756-1.067
			c0.578,0.441,1.084,0.955,1.514,1.516c-0.538-0.972-1.275-1.857-2.193-2.558c-3.02-2.305-6.084-1.89-7.756,1.067l-4.32,6.466
			c-1.351,2.392-0.894,5.636,0.928,8.01C150.091,78.069,149.913,75.381,151.075,73.326z"/>
		
			<linearGradient id="SVGID_45_" gradientUnits="userSpaceOnUse" x1="-1156.2251" y1="2703.9414" x2="-1173.8546" y2="2703.3101" gradientTransform="matrix(-0.5847 -0.8419 -0.7355 0.7306 1456.8357 -2869.427)">
			<stop  offset="0" style="stop-color:#8B8974"/>
			<stop  offset="1" style="stop-color:#4C4D38"/>
		</linearGradient>
		<path fill="url(#SVGID_45_)" d="M148.523,72.952c3.141-3.114,6.119,1.155,8.615,4.748l0,0c2.493,3.593,3.168,6.877,0.029,9.994
			l-7.432,9.352c-3.139,3.121-7.012,0.074-9.508-3.518l0,0c-2.494-3.592-1.973-9.031,1.168-12.148L148.523,72.952z"/>
		
			<linearGradient id="SVGID_46_" gradientUnits="userSpaceOnUse" x1="-1156.3755" y1="2705.0762" x2="-1174.004" y2="2704.4451" gradientTransform="matrix(-0.5847 -0.8419 -0.7355 0.7306 1456.8357 -2869.427)">
			<stop  offset="0" style="stop-color:#8B897C"/>
			<stop  offset="0.4969" style="stop-color:#9E9C90"/>
			<stop  offset="0.8405" style="stop-color:#8B8979"/>
		</linearGradient>
		<path fill="url(#SVGID_46_)" d="M147.775,73.908c3.141-3.114,6.119,1.153,8.615,4.746l0,0c2.494,3.593,3.168,6.876,0.03,9.993
			L148.99,98c-3.139,3.122-7.014,0.074-9.508-3.517l0,0c-2.496-3.592-1.974-9.033,1.166-12.148L147.775,73.908z"/>
		
			<linearGradient id="SVGID_47_" gradientUnits="userSpaceOnUse" x1="206.8066" y1="-21.5684" x2="185.7907" y2="-22.3209" gradientTransform="matrix(1 0 0 -1 -50 61)">
			<stop  offset="0" style="stop-color:#959379"/>
			<stop  offset="0.1043" style="stop-color:#CCCBB6"/>
			<stop  offset="0.4908" style="stop-color:#D6D5C0"/>
			<stop  offset="0.816" style="stop-color:#9E9C90"/>
			<stop  offset="1" style="stop-color:#8B897C"/>
		</linearGradient>
		<path fill="url(#SVGID_47_)" d="M141.193,83.875l7.127-8.427c3.141-3.114,6.119,1.152,8.615,4.747
			c0.57,0.822,1.041,1.629,1.396,2.42c-0.314-1.281-0.997-2.6-1.941-3.962c-2.496-3.593-5.476-7.86-8.615-4.746l-7.127,8.427
			c-2.785,2.764-3.504,7.357-1.89,10.865C137.936,89.973,138.802,86.25,141.193,83.875z"/>
		
			<linearGradient id="SVGID_48_" gradientUnits="userSpaceOnUse" x1="-1002.4272" y1="3073.8164" x2="-1019.347" y2="3073.2107" gradientTransform="matrix(-0.7837 -0.6211 -0.6211 0.7837 1235.3927 -2986.1343)">
			<stop  offset="0" style="stop-color:#8B8974"/>
			<stop  offset="1" style="stop-color:#4C4D38"/>
		</linearGradient>
		<path fill="url(#SVGID_48_)" d="M114.007,40.983c2.651-3.344,7.511-3.906,10.854-1.255l0,0c3.344,2.651,6.687,5.155,4.037,8.5
			l-8.474,9.535c-2.651,3.343-7.51,3.906-10.854,1.254l0,0c-3.344-2.649-3.905-7.509-1.256-10.853L114.007,40.983z"/>
		
			<linearGradient id="SVGID_49_" gradientUnits="userSpaceOnUse" x1="-1001.7314" y1="3074.8281" x2="-1018.6494" y2="3074.2224" gradientTransform="matrix(-0.7837 -0.6211 -0.6211 0.7837 1235.3927 -2986.1343)">
			<stop  offset="0" style="stop-color:#8B897C"/>
			<stop  offset="0.4969" style="stop-color:#9E9C90"/>
			<stop  offset="0.8405" style="stop-color:#8B8979"/>
		</linearGradient>
		<path fill="url(#SVGID_49_)" d="M112.831,41.345c2.649-3.344,7.509-3.906,10.854-1.255l0,0c3.346,2.651,6.688,5.156,4.037,8.5
			l-8.474,9.535c-2.649,3.343-7.511,3.906-10.854,1.255l0,0c-3.344-2.65-3.904-7.51-1.254-10.854L112.831,41.345z"/>
		
			<linearGradient id="SVGID_50_" gradientUnits="userSpaceOnUse" x1="176.9521" y1="14.5889" x2="153.0924" y2="13.7346" gradientTransform="matrix(1 0 0 -1 -50 61)">
			<stop  offset="0" style="stop-color:#959379"/>
			<stop  offset="0.1043" style="stop-color:#CCCBB6"/>
			<stop  offset="0.4908" style="stop-color:#D6D5C0"/>
			<stop  offset="0.816" style="stop-color:#9E9C90"/>
			<stop  offset="1" style="stop-color:#8B897C"/>
		</linearGradient>
		<path fill="url(#SVGID_50_)" d="M107.377,49.658l5.691-7.182c2.649-3.344,7.51-3.906,10.854-1.256
			c2.04,1.616,4.07,3.179,4.75,4.911c-0.049-2.2-2.515-4.082-4.986-6.042c-3.346-2.65-8.203-2.089-10.854,1.255l-5.69,7.181
			c-1.609,2.031-2.027,4.618-1.365,6.933C105.514,53.459,106.025,51.362,107.377,49.658z"/>
		
			<linearGradient id="SVGID_51_" gradientUnits="userSpaceOnUse" x1="-1096.7139" y1="3077.0303" x2="-1112.3115" y2="3076.4717" gradientTransform="matrix(-0.7145 -0.5663 -0.6211 0.7837 1226.29 -2993.7319)">
			<stop  offset="0" style="stop-color:#8B8974"/>
			<stop  offset="1" style="stop-color:#4C4D38"/>
		</linearGradient>
		<path fill="url(#SVGID_51_)" d="M100.932,34.615c2.551-3.216,6.995-3.939,9.928-1.614l0,0c2.936,2.324,5.793,3.6,3.244,6.817
			l-8.025,10.125c-2.549,3.217-6.994,3.94-9.928,1.616l0,0c-2.933-2.325-3.241-6.817-0.692-10.034L100.932,34.615z"/>
		
			<linearGradient id="SVGID_52_" gradientUnits="userSpaceOnUse" x1="-1095.4336" y1="3077.5361" x2="-1111.0321" y2="3076.9775" gradientTransform="matrix(-0.7145 -0.5663 -0.6211 0.7837 1226.29 -2993.7319)">
			<stop  offset="0" style="stop-color:#8B897C"/>
			<stop  offset="0.4969" style="stop-color:#9E9C90"/>
			<stop  offset="0.8405" style="stop-color:#8B8979"/>
		</linearGradient>
		<path fill="url(#SVGID_52_)" d="M99.706,34.288c2.549-3.217,6.992-3.94,9.926-1.614l0,0c2.935,2.325,5.793,3.599,3.244,6.816
			l-8.026,10.126c-2.549,3.216-6.993,3.938-9.929,1.615l0,0c-2.932-2.325-3.241-6.817-0.691-10.033L99.706,34.288z"/>
		
			<linearGradient id="SVGID_53_" gradientUnits="userSpaceOnUse" x1="162.2998" y1="22.7905" x2="140.2602" y2="22.0014" gradientTransform="matrix(1 0 0 -1 -50 61)">
			<stop  offset="0" style="stop-color:#959379"/>
			<stop  offset="0.1043" style="stop-color:#CCCBB6"/>
			<stop  offset="0.4908" style="stop-color:#D6D5C0"/>
			<stop  offset="0.816" style="stop-color:#9E9C90"/>
			<stop  offset="1" style="stop-color:#8B897C"/>
		</linearGradient>
		<path fill="url(#SVGID_53_)" d="M94.168,42.183l5.477-6.91c2.548-3.218,6.994-3.94,9.927-1.615
			c1.992,1.579,3.943,2.674,4.197,4.221c0.59-2.116-1.748-3.313-4.138-5.206c-2.934-2.326-7.377-1.603-9.926,1.614l-5.477,6.91
			c-1.162,1.465-1.724,3.194-1.72,4.865C92.688,44.711,93.233,43.361,94.168,42.183z"/>
		
			<linearGradient id="SVGID_54_" gradientUnits="userSpaceOnUse" x1="-1635.2832" y1="3341.6289" x2="-1650.8809" y2="3341.0706" gradientTransform="matrix(-0.4944 -0.3919 -0.5059 0.6383 967.8501 -2737.0356)">
			<stop  offset="0" style="stop-color:#8B897C"/>
			<stop  offset="0.4969" style="stop-color:#9E9C90"/>
			<stop  offset="0.8405" style="stop-color:#8B8979"/>
		</linearGradient>
		<path fill="url(#SVGID_54_)" d="M87.669,33.45c2.075-2.62,5.406-3.44,7.436-1.83l0,0c2.029,1.608,4.068,2.414,1.99,5.035
			l-6.535,8.248c-2.076,2.62-5.405,3.44-7.435,1.832l0,0c-2.029-1.61-1.992-5.037,0.084-7.658L87.669,33.45z"/>
		
			<linearGradient id="SVGID_55_" gradientUnits="userSpaceOnUse" x1="146.8242" y1="23.6821" x2="129.9168" y2="23.0768" gradientTransform="matrix(1 0 0 -1 -50 61)">
			<stop  offset="0" style="stop-color:#959379"/>
			<stop  offset="0.1043" style="stop-color:#CCCBB6"/>
			<stop  offset="0.4908" style="stop-color:#D6D5C0"/>
			<stop  offset="0.816" style="stop-color:#9E9C90"/>
			<stop  offset="1" style="stop-color:#8B897C"/>
		</linearGradient>
		<path fill="url(#SVGID_55_)" d="M83.359,40.363l4.46-5.627c2.076-2.62,5.406-3.44,7.436-1.831c1.093,0.865,2.181,1.5,2.636,2.309
			c0.411-1.554-1.187-2.327-2.786-3.594c-2.029-1.61-5.36-0.79-7.436,1.83l-4.46,5.627c-1.363,1.721-1.829,3.78-1.427,5.455
			C81.808,43.156,82.332,41.661,83.359,40.363z"/>
		
			<linearGradient id="SVGID_56_" gradientUnits="userSpaceOnUse" x1="-1525.8369" y1="2338.2148" x2="-1551.6827" y2="2316.6765" gradientTransform="matrix(-0.2942 -0.9557 -0.9557 0.2942 1833.0928 -2011.5298)">
			<stop  offset="0" style="stop-color:#959381"/>
			<stop  offset="0.1043" style="stop-color:#CCCBB1"/>
			<stop  offset="0.4908" style="stop-color:#D6D5C7"/>
			<stop  offset="0.816" style="stop-color:#9E9C8D"/>
			<stop  offset="1" style="stop-color:#8B8981"/>
		</linearGradient>
		<path fill="url(#SVGID_56_)" d="M37.537,111.037c-0.586,0.363-2.161,0.52-2.779,0.883c-0.647,0.381-1.705,1.082-2.077,1.615
			c-13.314,19.018-2.14,62.721-2.14,62.721s69.875,1.818,67.846-21.309c-0.193-2.195-1.968-2.139-1.979-2.545
			c-0.715-25.988,3.036-23.56,4.188-26.744c5.346-14.779-10.498,0.898-27.979-13.947C55.487,97.168,57.732,88.773,57.732,88.773
			S56.979,99.032,37.537,111.037z"/>
		
			<linearGradient id="SVGID_57_" gradientUnits="userSpaceOnUse" x1="-1563.6743" y1="2326.4482" x2="-1500.3037" y2="2326.4482" gradientTransform="matrix(-0.2942 -0.9557 -0.9557 0.2942 1833.0635 -2011.4888)">
			<stop  offset="0" style="stop-color:#8B8977"/>
			<stop  offset="1" style="stop-color:#4E4D3D"/>
		</linearGradient>
		<path fill="url(#SVGID_57_)" d="M38.176,166.416c0,0-13.595-38.406-2.493-54.887l1.432-0.312
			c-11.013,15.197,1.916,52.597,1.916,52.597s46.97,2.328,57.415-10.097c0.957-1.137-0.047,4.195,0.028,2.482
			C85.495,169.23,38.176,166.416,38.176,166.416z"/>
		
			<linearGradient id="SVGID_58_" gradientUnits="userSpaceOnUse" x1="-1485.1045" y1="2297.085" x2="-1510.9506" y2="2275.5466" gradientTransform="matrix(-0.2942 -0.9557 -0.9557 0.2942 1832.9229 -2011.2563)">
			<stop  offset="0" style="stop-color:#8B8974"/>
			<stop  offset="1" style="stop-color:#4C4D38"/>
		</linearGradient>
		<path fill="url(#SVGID_58_)" d="M72.809,51.64c3.975-7.674,25.734,12.347,40.162,25.711c10.854,10.055,18.95,10.711,26.106,9.269
			c4.464-0.9,7.717,8.049,8.655,10.961c1.451,4.496-4.67,9.433-24.703,17.617c-15.325,6.26-21.784,13.354-23.432,15.543
			c-4.663,6.196-16.426,5.635-15.206-9.229c0,0-22.676-5.896-30.131-30.945C54.419,91.099,61.232,73.987,72.809,51.64z"/>
		
			<linearGradient id="SVGID_59_" gradientUnits="userSpaceOnUse" x1="-1484.4102" y1="2296.0059" x2="-1510.2561" y2="2274.4675" gradientTransform="matrix(-0.2942 -0.9557 -0.9557 0.2942 1832.9229 -2011.2563)">
			<stop  offset="0" style="stop-color:#959381"/>
			<stop  offset="0.1043" style="stop-color:#CCCBB1"/>
			<stop  offset="0.4908" style="stop-color:#D6D5C7"/>
			<stop  offset="0.816" style="stop-color:#9E9C8D"/>
			<stop  offset="1" style="stop-color:#8B8981"/>
		</linearGradient>
		<path fill="url(#SVGID_59_)" d="M73.633,50.66c3.977-7.675,25.734,12.347,40.161,25.71c10.854,10.055,18.951,10.71,26.108,9.268
			c4.464-0.899,7.716,8.05,8.656,10.96c1.449,4.496-4.672,9.435-24.705,17.617c-15.324,6.26-21.783,13.355-23.43,15.545
			c-4.665,6.197-16.429,5.633-15.208-9.229c0,0-22.677-5.896-30.132-30.945C55.244,90.12,62.058,73.006,73.633,50.66z"/>
		
			<linearGradient id="SVGID_60_" gradientUnits="userSpaceOnUse" x1="-1499.7583" y1="2315.4658" x2="-1517.1038" y2="2301.0112" gradientTransform="matrix(-0.2942 -0.9557 -0.9557 0.2942 1833.0635 -2011.4888)">
			<stop  offset="0" style="stop-color:#959381"/>
			<stop  offset="0.816" style="stop-color:#9E9C90"/>
			<stop  offset="1" style="stop-color:#8B897E"/>
		</linearGradient>
		<path fill="url(#SVGID_60_)" d="M86.444,118.502c0,0-22.4-5.84-30.628-30.292c-0.454,0.984-0.703,1.475-0.731,1.377
			c7.455,25.048,30.132,30.945,30.132,30.945c-1.204,14.663,10.225,15.401,15.01,9.467C94.697,134.129,85.33,132.092,86.444,118.502
			z"/>
		
			<linearGradient id="SVGID_61_" gradientUnits="userSpaceOnUse" x1="-1466.7822" y1="2277.3428" x2="-1492.6288" y2="2255.804" gradientTransform="matrix(-0.2942 -0.9557 -0.9557 0.2942 1833.0635 -2011.4888)">
			<stop  offset="0" style="stop-color:#8B8974"/>
			<stop  offset="1" style="stop-color:#4C4D38"/>
		</linearGradient>
		<path fill="url(#SVGID_61_)" d="M79.399,42.729c4.708-7.176,49.738,14.89,55.962,30.703c1.72,4.365-8.373,17.665-10.817,20.308
			c-15.739,17.008-18.591-5.849-18.591-5.849c-14.651-6.479-27.872-20.815-32.494-32.216C72.466,53.22,76.605,46.986,79.399,42.729z
			"/>
		
			<linearGradient id="SVGID_62_" gradientUnits="userSpaceOnUse" x1="-1465.1084" y1="2277.3408" x2="-1490.9539" y2="2255.803" gradientTransform="matrix(-0.2942 -0.9557 -0.9557 0.2942 1833.0635 -2011.4888)">
			<stop  offset="0" style="stop-color:#959381"/>
			<stop  offset="0.1043" style="stop-color:#CCCBB1"/>
			<stop  offset="0.4908" style="stop-color:#D6D5C7"/>
			<stop  offset="0.816" style="stop-color:#9E9C8D"/>
			<stop  offset="1" style="stop-color:#8B8981"/>
		</linearGradient>
		<path fill="url(#SVGID_62_)" d="M78.906,41.128c4.708-7.176,49.739,14.891,55.963,30.703c1.719,4.365-8.373,17.665-10.817,20.308
			c-15.741,17.007-18.592-5.848-18.592-5.848c-14.651-6.479-27.872-20.816-32.493-32.217C71.973,51.619,76.112,45.384,78.906,41.128
			z"/>
		
			<linearGradient id="SVGID_63_" gradientUnits="userSpaceOnUse" x1="-1470.1367" y1="2284.2402" x2="-1494.9343" y2="2263.5754" gradientTransform="matrix(-0.2942 -0.9557 -0.9557 0.2942 1833.0635 -2011.4888)">
			<stop  offset="0" style="stop-color:#959381"/>
			<stop  offset="0.816" style="stop-color:#9E9C90"/>
			<stop  offset="1" style="stop-color:#8B897E"/>
		</linearGradient>
		<path fill="url(#SVGID_63_)" d="M106.428,84.471c-14.653-6.479-27.874-20.816-32.495-32.217c-0.445-1.102,0.145-2.963,1.18-5.066
			c-1.59,2.814-2.719,5.475-2.146,6.886c4.621,11.4,17.842,25.737,32.493,32.217c0,0,2.194,17.573,13.351,10.427
			C108.938,100.902,106.428,84.471,106.428,84.471z"/>
		
			<radialGradient id="SVGID_64_" cx="-1529.2114" cy="2289.4688" r="3.0584" gradientTransform="matrix(-0.2942 -0.9557 -0.9557 0.2942 1833.0635 -2011.4888)" gradientUnits="userSpaceOnUse">
			<stop  offset="0" style="stop-color:#D6D5CA"/>
			<stop  offset="0.816" style="stop-color:#9E9C92"/>
			<stop  offset="1" style="stop-color:#514E44"/>
		</radialGradient>
		<path fill="url(#SVGID_64_)" d="M94.042,120.711c1.663-0.512,3.402,0.34,3.883,1.904c0.48,1.562-0.477,3.244-2.142,3.756
			c-1.663,0.512-3.401-0.34-3.883-1.902C91.42,122.906,92.378,121.225,94.042,120.711z"/>
		
			<radialGradient id="SVGID_65_" cx="-1387.4487" cy="2426.248" r="3.0574" gradientTransform="matrix(-0.3448 -1.0236 -0.8292 0.4384 1568.2346 -2313.5562)" gradientUnits="userSpaceOnUse">
			<stop  offset="0" style="stop-color:#D6D5CA"/>
			<stop  offset="0.816" style="stop-color:#9E9C92"/>
			<stop  offset="1" style="stop-color:#514E44"/>
		</radialGradient>
		<path fill="url(#SVGID_65_)" d="M33.762,167.271c1.442-0.763,3.068-0.025,3.633,1.647c0.563,1.676-0.148,3.649-1.593,4.414
			c-1.442,0.765-3.07,0.024-3.634-1.649C31.604,170.012,32.317,168.035,33.762,167.271z"/>
		
			<radialGradient id="SVGID_66_" cx="-1500.6021" cy="2257.8955" r="2.6934" gradientTransform="matrix(-0.2942 -0.9557 -0.9557 0.2942 1833.0635 -2011.4888)" gradientUnits="userSpaceOnUse">
			<stop  offset="0" style="stop-color:#D6D5CA"/>
			<stop  offset="0.816" style="stop-color:#9E9C92"/>
			<stop  offset="1" style="stop-color:#514E44"/>
		</radialGradient>
		<path fill="url(#SVGID_66_)" d="M115.902,84.417c1.465-0.451,2.996,0.301,3.421,1.678c0.423,1.376-0.421,2.857-1.888,3.309
			c-1.465,0.451-2.994-0.299-3.418-1.677C113.594,86.35,114.438,84.868,115.902,84.417z"/>
		
			<radialGradient id="SVGID_67_" cx="-1519.3711" cy="2237.7227" r="2.6937" gradientTransform="matrix(-0.2942 -0.9557 -0.9557 0.2942 1833.0635 -2011.4888)" gradientUnits="userSpaceOnUse">
			<stop  offset="0" style="stop-color:#D6D5CA"/>
			<stop  offset="0.816" style="stop-color:#9E9C92"/>
			<stop  offset="1" style="stop-color:#514E44"/>
		</radialGradient>
		<path fill="url(#SVGID_67_)" d="M140.704,96.419c1.465-0.45,2.996,0.299,3.42,1.677c0.424,1.375-0.42,2.857-1.886,3.31
			c-1.467,0.451-2.997-0.301-3.42-1.677C138.396,98.351,139.238,96.871,140.704,96.419z"/>
	</g>
</g>
<g id="outline_x5F_white_1_">
	<g>
		<g>
			<path fill="#FFFFFF" d="M126.876,23.71c2.372,0,4.824,0.991,6.008,2.564c0.505,0.667,0.691,1.353,0.64,1.997
				c0.726,1.242,0.922,2.331,0.922,2.331s1.148-0.074,2.686-0.074c1.48,0,3.32,0.068,4.838,0.337h0.004
				c0.209,0.038,0.414,0.08,0.61,0.125c0.226,0.052,0.437,0.11,0.651,0.167c0.007,0.001,0.014,0.003,0.02,0.005
				c10.535,2.776,6.723,10.058,6.723,10.058c2.467-0.65,4.907-0.96,7.18-0.96c8.564,0,14.699,4.405,10.438,11.567
				c-4.5,7.561-13.686,3.341-24.183,11.996c-10.493,8.652-6.152,15.735-6.152,15.735c1.515-0.468,3.997-3.078,5.285-5.488
				c3.901-7.313,8.946-11.859,13.808-11.859c1.814,0,3.604,0.633,5.299,1.991c0.014,0.009,0.021,0.023,0.035,0.032
				c0.262,0.16,0.523,0.314,0.785,0.513c3.021,2.305,4.111,6.57,2.439,9.527l-3.584,6.348c-0.332,0.591-0.77,1.056-1.248,1.45
				c-0.305,0.524-0.612,1.036-0.924,1.517c-0.069,0.108-0.152,0.218-0.225,0.324c-0.378,1.777-1.219,3.452-2.508,4.732L148.99,98
				c-0.081,0.083-0.166,0.143-0.249,0.216c-0.376,4.091-7.22,8.785-24.888,16c-15.324,6.261-21.783,13.354-23.43,15.545
				c-0.849,1.125-1.934,2.023-3.13,2.66c-0.722,3.447-1.181,9.322-0.888,19.981c0.012,0.406,1.786,0.351,1.979,2.546
				c1.754,19.983-50.185,21.342-64.331,21.342c-2.224,0-3.515-0.033-3.515-0.033s-11.175-43.703,2.14-62.721
				c0.372-0.533,1.43-1.234,2.077-1.615c0.209-0.123,0.528-0.221,0.879-0.312c0.016-0.025,0.031-0.055,0.046-0.078l1.431-0.312
				c0,0,0,0,0,0.003c0.165-0.058,0.315-0.115,0.424-0.185c11.766-7.265,16.681-13.886,18.733-17.986
				c-0.425-1.115,5.551-19.451,16.758-41.218c0.794-2.994,3.729-7.433,5.878-10.706c0.626-0.955,1.984-1.377,3.852-1.381
				c0.146-0.224,0.28-0.453,0.451-0.669l4.46-5.627c1.176-1.483,2.751-2.364,4.267-2.58c0.294-0.172,0.606-0.336,0.942-0.491
				l3.199-1.458c1.764-0.958,3.616-1.672,5.723-2.431c0.362-0.215,0.814-0.393,1.352-0.515l0.24-0.053
				c0.246-0.088,0.485-0.173,0.738-0.264c2.016-0.723,3.87-0.986,5.502-0.986c4.292,0,7.044,1.819,7.124,1.874
				c0.524-0.53,1.286-0.954,2.277-1.19l6.054-1.442C125.663,23.776,126.268,23.71,126.876,23.71 M37.114,111.219L37.114,111.219
				L37.114,111.219 M126.876,11.71L126.876,11.71c-1.563,0-3.104,0.179-4.581,0.532l-5.686,1.354
				c-1.986-0.537-4.336-0.925-6.979-0.925c-3.212,0-6.427,0.569-9.555,1.691l-0.094,0.033c-1.037,0.268-2.028,0.623-2.964,1.062
				c-1.921,0.703-4.075,1.548-6.263,2.699L87.9,19.46c-0.048,0.022-0.096,0.044-0.143,0.066c-3.682,1.073-6.99,3.313-9.492,6.468
				l-2.322,2.931c-3.785,1.448-5.957,3.922-7.072,5.622l-0.113,0.173c-2.943,4.483-5.513,8.567-6.877,12.553
				C55.76,59.261,51.55,69.427,49.076,75.907c-1.413,3.703-2.596,7.09-3.421,9.795c-0.354,1.163-0.676,2.273-0.922,3.357
				c-1.507,2.285-4.863,6.194-12.052,10.853c-0.631,0.163-1.245,0.376-1.835,0.636c-0.674,0.253-1.418,0.585-2.177,1.033
				c-3.859,2.264-5.342,4.389-5.83,5.088c-7.167,10.235-9.922,25.845-8.179,46.375c1.2,14.133,4.13,25.701,4.254,26.187
				c1.33,5.199,5.949,8.885,11.314,9.022c0.059,0.002,1.474,0.037,3.827,0.037c6.588,0,19.589-0.272,32.644-2.104
				c18.515-2.598,30.804-7.449,37.566-14.832c4.541-4.957,6.643-10.992,6.074-17.455c-0.119-1.362-0.547-3.819-2.018-6.307
				c-0.027-3.98,0.08-6.846,0.236-8.889c0.515-0.549,0.998-1.125,1.447-1.721c0.055-0.072,4.66-6.054,18.385-11.658
				c17.217-7.031,27.838-12.857,31.209-21.391l5.873-7.39c1.939-2.095,3.432-4.581,4.401-7.323c0.729-0.848,1.369-1.756,1.91-2.718
				l3.571-6.327c3.281-5.804,3.055-12.848-0.113-18.6c0.947-1.042,1.842-2.236,2.66-3.611c3.8-6.386,4.092-13.364,0.804-19.147
				c-3.485-6.131-10.347-9.873-19.046-10.473c-2.213-3.321-6.176-6.874-13.26-8.762c-0.041-0.011-0.082-0.022-0.123-0.033l0,0
				l-0.11-0.029c-0.288-0.077-0.576-0.151-0.879-0.221c-0.021-0.005-0.04-0.009-0.062-0.014c-0.357-0.081-0.731-0.158-1.115-0.227
				c-0.064-0.012-0.131-0.023-0.194-0.034c-0.524-0.09-1.075-0.167-1.651-0.233C138.838,14.422,132.969,11.71,126.876,11.71
				L126.876,11.71z"/>
		</g>
	</g>
</g>
<g id="outline_x5F_black">
	<g>
		<path d="M126.876,23.71c2.372,0,4.824,0.991,6.008,2.564c0.505,0.667,0.691,1.353,0.64,1.997c0.726,1.242,0.922,2.331,0.922,2.331
			s1.147-0.074,2.685-0.074c1.481,0,3.321,0.068,4.839,0.337h0.004c0.209,0.038,0.414,0.08,0.61,0.125
			c0.226,0.052,0.437,0.11,0.651,0.167c0.007,0.001,0.014,0.003,0.02,0.005c10.535,2.776,6.723,10.058,6.723,10.058
			c2.467-0.65,4.907-0.96,7.18-0.96c8.564,0,14.699,4.405,10.438,11.567c-4.5,7.561-13.686,3.341-24.183,11.996
			c-10.493,8.652-6.152,15.735-6.152,15.735c1.515-0.468,3.997-3.078,5.285-5.488c3.901-7.313,8.946-11.859,13.808-11.859
			c1.814,0,3.604,0.633,5.299,1.991c0.014,0.009,0.021,0.023,0.035,0.032c0.262,0.16,0.523,0.314,0.785,0.513
			c3.021,2.305,4.111,6.57,2.439,9.527l-3.584,6.348c-0.332,0.591-0.77,1.056-1.248,1.45c-0.305,0.524-0.612,1.036-0.924,1.517
			c-0.069,0.108-0.152,0.218-0.225,0.324c-0.378,1.777-1.219,3.452-2.508,4.732L148.99,98c-0.081,0.083-0.166,0.143-0.249,0.216
			c-0.376,4.091-7.22,8.785-24.888,16c-15.324,6.261-21.783,13.354-23.43,15.545c-0.849,1.125-1.934,2.023-3.13,2.66
			c-0.722,3.447-1.181,9.322-0.888,19.981c0.012,0.406,1.786,0.351,1.979,2.546c1.754,19.983-50.185,21.342-64.331,21.342
			c-2.224,0-3.515-0.033-3.515-0.033s-11.175-43.703,2.14-62.721c0.372-0.533,1.43-1.234,2.077-1.615
			c0.209-0.123,0.528-0.221,0.879-0.312c0.016-0.025,0.031-0.055,0.046-0.078l1.431-0.312c0,0,0,0,0,0.003
			c0.165-0.058,0.315-0.115,0.424-0.185c11.766-7.265,16.681-13.886,18.733-17.986c-0.425-1.115,5.551-19.451,16.758-41.218
			c0.794-2.994,3.729-7.433,5.878-10.706c0.626-0.955,1.984-1.377,3.852-1.381c0.146-0.224,0.28-0.453,0.451-0.669l4.46-5.627
			c1.176-1.483,2.751-2.364,4.267-2.58c0.294-0.172,0.606-0.336,0.942-0.491l3.199-1.458c1.764-0.958,3.616-1.672,5.723-2.431
			c0.362-0.215,0.814-0.393,1.352-0.515l0.24-0.053c0.246-0.088,0.485-0.173,0.738-0.264c2.016-0.723,3.87-0.986,5.502-0.986
			c4.292,0,7.044,1.819,7.124,1.874c0.524-0.53,1.286-0.954,2.277-1.19l6.054-1.442C125.663,23.776,126.268,23.71,126.876,23.71
			 M37.114,111.219L37.114,111.219L37.114,111.219 M126.876,17.71L126.876,17.71c-1.094,0-2.165,0.124-3.185,0.368l-6.049,1.44
			c-0.385,0.091-0.759,0.2-1.123,0.326c-1.77-0.624-4.111-1.172-6.889-1.172c-2.52,0-5.053,0.451-7.527,1.339l-0.244,0.087
			l-0.145,0.051c-0.854,0.203-1.639,0.485-2.359,0.844c-1.911,0.693-3.927,1.471-5.948,2.551l-3.02,1.376
			c-0.18,0.083-0.358,0.168-0.534,0.257c-2.639,0.678-5.099,2.291-6.887,4.546l-3.47,4.377c-2.999,0.701-4.682,2.323-5.609,3.738
			l-0.115,0.175c-2.311,3.52-5.152,7.848-6.339,11.579c-6.113,11.929-10.304,22.04-12.753,28.455
			c-2.691,7.053-3.859,10.907-4.267,13.228c-1.764,3.054-5.903,8.286-15.389,14.259l-0.615,0.133
			c-0.446,0.099-0.875,0.244-1.282,0.435c-0.453,0.159-0.932,0.364-1.415,0.649c-2.735,1.604-3.652,2.92-3.954,3.353
			c-6.344,9.061-8.742,23.34-7.121,42.434c1.158,13.643,3.969,24.742,4.088,25.207c0.665,2.6,2.975,4.441,5.657,4.512
			c0.056,0.002,1.395,0.035,3.67,0.035c19.441,0,53.84-1.947,65.787-14.988c3.374-3.684,4.938-8.137,4.521-12.877
			c-0.131-1.488-0.621-3.33-2.02-4.928c-0.095-5.816,0.059-10.369,0.459-13.594c0.9-0.752,1.715-1.604,2.413-2.531
			c0.565-0.754,5.925-7.482,20.905-13.602c18.27-7.459,26.189-12.642,28.143-18.763l6.666-8.389c1.647-1.73,2.863-3.864,3.562-6.242
			c0.098-0.156,0.196-0.318,0.299-0.487c0.705-0.707,1.287-1.476,1.765-2.326l3.578-6.337c2.98-5.273,1.537-12.374-3.238-16.602
			c2.178-1.204,4.209-2.965,5.854-5.728c3.646-6.131,2.031-10.847,0.743-13.113c-2.718-4.78-8.673-7.522-16.337-7.523
			c-0.393,0-0.785,0.007-1.18,0.022c-0.097-0.274-0.203-0.548-0.324-0.82c-1.729-3.918-5.365-6.638-10.812-8.086
			c-0.027-0.008-0.055-0.015-0.081-0.022l0,0l-0.127-0.033c-0.229-0.061-0.456-0.12-0.694-0.175
			c-0.308-0.069-0.598-0.129-0.895-0.183c-0.039-0.007-0.078-0.014-0.117-0.02c-1.186-0.205-2.57-0.334-4.133-0.387
			c-0.29-0.658-0.664-1.293-1.119-1.896C135.378,19.61,131.238,17.71,126.876,17.71L126.876,17.71z"/>
	</g>
</g>
</svg>
