<?xml version="1.0" encoding="utf-8"?>
<!-- Generator: Adobe Illustrator 15.0.0, SVG Export Plug-In . SVG Version: 6.00 Build 0)  -->
<!DOCTYPE svg PUBLIC "-//W3C//DTD SVG 1.1//EN" "http://www.w3.org/Graphics/SVG/1.1/DTD/svg11.dtd">
<svg version="1.1" xmlns="http://www.w3.org/2000/svg" xmlns:xlink="http://www.w3.org/1999/xlink" x="0px" y="0px" width="200px"
	 height="200px" viewBox="0 0 200 200" enable-background="new 0 0 200 200" xml:space="preserve">
<g id="icon">
	<g id="Layer_2">
	</g>
	<g>
		<g>
			
				<linearGradient id="SVGID_1_" gradientUnits="userSpaceOnUse" x1="586.8301" y1="-1392.0361" x2="584.7424" y2="-1397.7028" gradientTransform="matrix(0.9417 0.3366 0.3366 -0.9417 76.1337 -1450.2786)">
				<stop  offset="0" style="stop-color:#FFFFFF"/>
				<stop  offset="1" style="stop-color:#6E6E6E"/>
			</linearGradient>
			<circle fill="url(#SVGID_1_)" cx="157.759" cy="61.039" r="2.87"/>
			
				<linearGradient id="SVGID_2_" gradientUnits="userSpaceOnUse" x1="590.6367" y1="-1380.0811" x2="585.1711" y2="-1394.3591" gradientTransform="matrix(0.9417 0.3366 0.3366 -0.9417 76.1337 -1450.2786)">
				<stop  offset="0" style="stop-color:#FFFFFF"/>
				<stop  offset="1" style="stop-color:#6E6E6E"/>
			</linearGradient>
			<circle fill="url(#SVGID_2_)" cx="157.223" cy="60.49" r="2.871"/>
			
				<linearGradient id="SVGID_3_" gradientUnits="userSpaceOnUse" x1="258.541" y1="-355.6362" x2="257.42" y2="-357.7461" gradientTransform="matrix(0.9963 0.0856 0.0856 -0.9963 -69.2871 -317.3057)">
				<stop  offset="0" style="stop-color:#FFFFFF"/>
				<stop  offset="1" style="stop-color:#6E6E6E"/>
			</linearGradient>
			<path fill="url(#SVGID_3_)" d="M157.096,58.294l0.994,1.126c0,0,1.143,1.659,0.051,2.164s-1.875,0.063-1.875,0.063l-1.293-1.17
				L157.096,58.294z"/>
		</g>
		<g>
			
				<linearGradient id="SVGID_4_" gradientUnits="userSpaceOnUse" x1="203.7627" y1="767.252" x2="201.6752" y2="761.5854" gradientTransform="matrix(0.9833 -0.1821 -0.1821 -0.9833 88.7378 857.5961)">
				<stop  offset="0" style="stop-color:#FFFFFF"/>
				<stop  offset="1" style="stop-color:#6E6E6E"/>
			</linearGradient>
			<circle fill="url(#SVGID_4_)" cx="148.74" cy="69.792" r="2.872"/>
			
				<linearGradient id="SVGID_5_" gradientUnits="userSpaceOnUse" x1="207.5732" y1="779.2139" x2="202.105" y2="764.929" gradientTransform="matrix(0.9833 -0.1821 -0.1821 -0.9833 88.7378 857.5961)">
				<stop  offset="0" style="stop-color:#FFFFFF"/>
				<stop  offset="1" style="stop-color:#6E6E6E"/>
			</linearGradient>
			<circle fill="url(#SVGID_5_)" cx="147.999" cy="69.587" r="2.87"/>
			
				<linearGradient id="SVGID_6_" gradientUnits="userSpaceOnUse" x1="437.6562" y1="1830.0264" x2="436.5357" y2="1827.9175" gradientTransform="matrix(0.9044 -0.4266 -0.4266 -0.9044 532.7464 1909.8889)">
				<stop  offset="0" style="stop-color:#FFFFFF"/>
				<stop  offset="1" style="stop-color:#6E6E6E"/>
			</linearGradient>
			<path fill="url(#SVGID_6_)" d="M146.788,67.754l1.427,0.473c0,0,1.82,0.86,1.131,1.845c-0.689,0.985-1.592,0.998-1.592,0.998
				l-1.705-0.36L146.788,67.754z"/>
		</g>
		
			<linearGradient id="SVGID_7_" gradientUnits="userSpaceOnUse" x1="174.7266" y1="11.5459" x2="50.0635" y2="-169.185" gradientTransform="matrix(1 0 0 -1 -50 61)">
			<stop  offset="0" style="stop-color:#D19768"/>
			<stop  offset="0.4341" style="stop-color:#B57E5A"/>
			<stop  offset="1" style="stop-color:#8B5944"/>
		</linearGradient>
		<polygon fill="url(#SVGID_7_)" points="159.561,38.447 138.721,25.789 137.698,26.97 133.911,22.866 121.167,15.124 
			32.719,160.949 36.9,164.564 35.651,169.682 47.97,180.327 		"/>
		
			<linearGradient id="SVGID_8_" gradientUnits="userSpaceOnUse" x1="176.5293" y1="34.2881" x2="180.8533" y2="27.1307" gradientTransform="matrix(1 0 0 -1 -50 61)">
			<stop  offset="0" style="stop-color:#D19768"/>
			<stop  offset="0.4341" style="stop-color:#B57E5A"/>
			<stop  offset="1" style="stop-color:#8B5944"/>
		</linearGradient>
		<polygon fill="url(#SVGID_8_)" points="137.698,26.97 124.725,41.955 133.911,22.866 		"/>
		
			<linearGradient id="SVGID_9_" gradientUnits="userSpaceOnUse" x1="116.3623" y1="-10.9829" x2="170.0451" y2="-64.6657" gradientTransform="matrix(1 0 0 -1 -50 61)">
			<stop  offset="0" style="stop-color:#D16E44"/>
			<stop  offset="0.1896" style="stop-color:#B5623F"/>
			<stop  offset="0.5959" style="stop-color:#6E4331"/>
			<stop  offset="1" style="stop-color:#222222"/>
		</linearGradient>
		<polygon fill="url(#SVGID_9_)" points="159.561,38.447 165.949,48.771 54.69,184.876 47.97,180.327 		"/>
		<polygon opacity="0.55" fill="#472B1E" enable-background="new    " points="144.84,29.506 109.514,81.322 146.327,30.409 		"/>
		<polygon opacity="0.55" fill="#472B1E" enable-background="new    " points="104.396,65.814 36.9,164.564 33.53,161.652 		"/>
		<polygon opacity="0.55" fill="#472B1E" enable-background="new    " points="102.831,85.374 50.776,163.669 84.1,109.182 		"/>
		<polygon opacity="0.55" fill="#472B1E" enable-background="new    " points="122.162,26.131 106.854,49.137 93.781,72.094 
			108.791,49.094 		"/>
		
			<linearGradient id="SVGID_10_" gradientUnits="userSpaceOnUse" x1="230.582" y1="-331" x2="227.4767" y2="-336.8441" gradientTransform="matrix(0.9963 0.0856 0.0856 -0.9963 -69.2871 -317.3057)">
			<stop  offset="0" style="stop-color:#FFFFFF"/>
			<stop  offset="1" style="stop-color:#6E6E6E"/>
		</linearGradient>
		<path fill="url(#SVGID_10_)" d="M143.064,44.768l-18.496-18.436l-7.483-2.313l2.865,5.414l21.052,18.301
			C141.002,47.734,144.602,46.837,143.064,44.768z"/>
		<path fill="#231F20" d="M143.064,44.768c0,0,0.701,1.218,0.295,2.045c-0.793,1.878-2.486,2.407-2.486,2.407L118.87,31.128
			l-1.785-7.109l2.865,5.414l21.052,18.301C141.002,47.734,144.602,46.837,143.064,44.768z"/>
		
			<linearGradient id="SVGID_11_" gradientUnits="userSpaceOnUse" x1="135.7441" y1="361.4834" x2="132.4862" y2="355.3522" gradientTransform="matrix(0.9969 -0.0788 -0.0788 -0.9969 -3.0598 403.1805)">
			<stop  offset="0" style="stop-color:#FFFFFF"/>
			<stop  offset="1" style="stop-color:#6E6E6E"/>
		</linearGradient>
		<path fill="url(#SVGID_11_)" d="M116.534,43.107L95.342,27.499l-7.76-1.054l3.713,4.871l23.688,15.056
			C114.982,46.371,118.387,44.898,116.534,43.107z"/>
		<path fill="#231F20" d="M116.534,43.107c0,0,0.892,1.087,0.624,1.971c-0.475,1.982-2.057,2.779-2.057,2.779L90.508,33.163
			l-2.926-6.719l3.713,4.871l23.688,15.056C114.982,46.371,118.387,44.898,116.534,43.107z"/>
		
			<linearGradient id="SVGID_12_" gradientUnits="userSpaceOnUse" x1="263.5752" y1="1351.2471" x2="261.1867" y2="1346.752" gradientTransform="matrix(0.9496 -0.3135 -0.3135 -0.9496 287.3757 1421.5312)">
			<stop  offset="0" style="stop-color:#FFFFFF"/>
			<stop  offset="1" style="stop-color:#6E6E6E"/>
		</linearGradient>
		<path fill="url(#SVGID_12_)" d="M123.305,60.082l-12.449-5.527l-7.789,0.821l4.766,3.848l14.743,4.396
			C122.574,63.62,125.529,61.381,123.305,60.082z"/>
		<path fill="#231F20" d="M123.305,60.082c0,0,1.125,0.844,1.073,1.764c0.011,2.039-1.336,3.189-1.336,3.189l-15.537-3.829
			l-4.438-5.831l4.766,3.848l14.743,4.396C122.574,63.62,125.529,61.381,123.305,60.082z"/>
	</g>
</g>
<g id="outline_x5F_white">
	<g>
		<g>
			<path fill="#FFFFFF" d="M121.167,15.124l12.744,7.742l3.787,4.104l1.022-1.181l20.84,12.658l6.389,10.324l-7.479,9.15
				c0.434,0.211,0.803,0.511,1.071,0.884c0.933,0.744,1.345,2.015,0.919,3.2c-0.419,1.173-1.523,1.905-2.702,1.905
				c-0.321,0-0.647-0.054-0.968-0.168c-0.564-0.202-1.025-0.565-1.354-1.019c-0.185-0.146-0.352-0.308-0.49-0.491l-4.383,5.361
				c0.498,0.414,0.871,0.989,1,1.676c0.285,1.559-0.742,3.056-2.301,3.345c-0.176,0.032-0.351,0.048-0.521,0.048
				c-0.409,0-0.805-0.088-1.164-0.248c-0.271-0.04-0.529-0.111-0.771-0.223L54.69,184.876l-6.72-4.549l-12.319-10.646l1.249-5.117
				l-4.182-3.614L104.98,41.811l-14.474-8.648l-2.926-6.719l7.76,1.054l12.664,9.326L121.167,15.124 M121.167,3.124
				c-0.953,0-1.91,0.113-2.851,0.343c-3.094,0.757-5.76,2.711-7.41,5.434l-6.354,10.477l-2.094-1.542
				c-1.619-1.191-3.51-1.958-5.501-2.228l-7.76-1.054c-0.54-0.074-1.081-0.109-1.617-0.109c-3.728,0-7.283,1.739-9.569,4.761
				c-2.615,3.457-3.162,8.056-1.431,12.03l2.926,6.719c1,2.298,2.695,4.225,4.847,5.51l4.104,2.452l-65.998,108.81
				c-2.742,4.521-2.176,10.233,1.222,14.119c-0.261,3.73,1.236,7.42,4.125,9.915l12.319,10.646c0.356,0.308,0.73,0.595,1.12,0.858
				l6.72,4.549c2.054,1.391,4.396,2.062,6.719,2.062c3.492,0,6.938-1.52,9.298-4.406l88.525-108.293
				c4.765-1.248,8.451-4.732,10.123-9.092c4.173-1.454,7.593-4.732,9.132-9.043c0.752-2.095,1.004-4.278,0.801-6.4l2.679-3.276
				c3.241-3.966,3.608-9.553,0.913-13.909l-6.389-10.324c-0.996-1.609-2.357-2.959-3.976-3.942l-20.84-12.658
				c-0.826-0.502-1.691-0.893-2.579-1.177c-0.671-0.667-1.42-1.253-2.229-1.745L127.398,4.87
				C125.504,3.718,123.346,3.124,121.167,3.124L121.167,3.124z"/>
		</g>
	</g>
</g>
<g id="outline_x5F_black">
	<g>
		<path d="M121.167,15.124l12.744,7.742l3.787,4.104l1.022-1.181l20.84,12.658l6.389,10.324l-7.479,9.15
			c0.434,0.211,0.803,0.511,1.071,0.884c0.933,0.744,1.345,2.015,0.919,3.2c-0.419,1.173-1.523,1.905-2.702,1.905
			c-0.321,0-0.647-0.054-0.968-0.168c-0.564-0.202-1.025-0.565-1.354-1.019c-0.185-0.146-0.352-0.308-0.49-0.491l-4.383,5.361
			c0.498,0.414,0.871,0.989,1,1.676c0.285,1.559-0.742,3.056-2.301,3.345c-0.176,0.032-0.351,0.048-0.521,0.048
			c-0.409,0-0.805-0.088-1.164-0.248c-0.271-0.04-0.529-0.111-0.771-0.223L54.69,184.876l-6.72-4.549l-12.319-10.646l1.249-5.117
			l-4.182-3.614L104.98,41.811l-14.474-8.648l-2.926-6.719l7.76,1.054l12.664,9.326L121.167,15.124 M119.15,6.878l-3.113,5.134
			l-9.758,16.089L98.9,22.667l-1.233-0.908l-1.518-0.206l-7.76-1.054l-10.566-1.436l4.257,9.776l2.926,6.719l0.769,1.767
			l1.654,0.988l9.288,5.55L27.589,157.838l-2.629,4.334l3.835,3.316l1.407,1.217l-0.379,1.553l-0.87,3.562l2.775,2.399
			l12.319,10.646l0.268,0.229l0.292,0.198l6.72,4.549l4.54,3.072l3.469-4.243l89.941-110.028c0.361-0.022,0.722-0.066,1.076-0.132
			c4.226-0.784,7.201-4.462,7.256-8.605c0.051,0.001,0.1,0.001,0.148,0.001c3.738,0,7.096-2.366,8.354-5.886
			c0.707-1.973,0.673-4.078-0.006-5.965l4.488-5.49l2.709-3.314l-2.252-3.64l-6.389-10.324l-0.758-1.224l-1.229-0.747l-20.84-12.658
			l-4.086-2.482l-0.002-0.002l-0.722-0.438l-12.744-7.742L119.15,6.878L119.15,6.878z"/>
	</g>
</g>
</svg>
