<?xml version="1.0" encoding="utf-8"?>
<!-- Generator: Adobe Illustrator 15.0.0, SVG Export Plug-In . SVG Version: 6.00 Build 0)  -->
<!DOCTYPE svg PUBLIC "-//W3C//DTD SVG 1.1//EN" "http://www.w3.org/Graphics/SVG/1.1/DTD/svg11.dtd">
<svg version="1.1" xmlns="http://www.w3.org/2000/svg" xmlns:xlink="http://www.w3.org/1999/xlink" x="0px" y="0px" width="200px"
	 height="200px" viewBox="0 0 200 200" enable-background="new 0 0 200 200" xml:space="preserve">
<g id="icon">
	<g id="Layer_2">
	</g>
	<g>
		
			<radialGradient id="SVGID_1_" cx="-416.0625" cy="322.3662" r="21.4331" gradientTransform="matrix(-0.8609 -0.5087 -0.6703 1.1344 -75.4119 -429.4696)" gradientUnits="userSpaceOnUse">
			<stop  offset="0.1043" style="stop-color:#FFFFFF"/>
			<stop  offset="0.1963" style="stop-color:#EFEFE3"/>
			<stop  offset="0.3111" style="stop-color:#EBEBDE"/>
			<stop  offset="0.4301" style="stop-color:#DFDED4"/>
			<stop  offset="0.4908" style="stop-color:#D6D5CF"/>
			<stop  offset="0.816" style="stop-color:#9E9C88"/>
			<stop  offset="1" style="stop-color:#8B897C"/>
		</radialGradient>
		<path fill="url(#SVGID_1_)" d="M54.675,155.139c0,0-7.01-0.062-16.153-0.039c-4.391,0.012,9.559-10.939,14.83-14.61
			c11.914-8.298,18.245-11.423,18.245-11.423l13.418,5.744L54.675,155.139z"/>
		
			<radialGradient id="SVGID_2_" cx="136.4629" cy="-82.6025" r="48.8268" gradientTransform="matrix(1 0 0 -1 -50 61)" gradientUnits="userSpaceOnUse">
			<stop  offset="0.1043" style="stop-color:#FFFFFF"/>
			<stop  offset="0.1963" style="stop-color:#EFEFE3"/>
			<stop  offset="0.3111" style="stop-color:#EBEBDE"/>
			<stop  offset="0.4301" style="stop-color:#DFDED4"/>
			<stop  offset="0.4908" style="stop-color:#D6D5CF"/>
			<stop  offset="0.816" style="stop-color:#9E9C88"/>
			<stop  offset="1" style="stop-color:#8B897C"/>
		</radialGradient>
		<path fill="url(#SVGID_2_)" d="M82.48,131.913c0,0-6.743,3.44-14.859,10.459c-7.655,6.617-12.946,12.767-12.946,12.767
			s15.553,9.17,43.117,18.918c25.397,8.98,35.308,8.481,35.308,8.481s23.504-12.179,29.221-36.116c0,0-6.422-7.423-20.293-11.572
			C128.154,130.7,99.037,128.368,82.48,131.913z"/>
		
			<radialGradient id="SVGID_3_" cx="84.3506" cy="-9.2964" r="22.9626" gradientTransform="matrix(1 0 0 -1 -50 61)" gradientUnits="userSpaceOnUse">
			<stop  offset="0.1043" style="stop-color:#FFFFFF"/>
			<stop  offset="0.1963" style="stop-color:#EFEFF0"/>
			<stop  offset="0.3111" style="stop-color:#EBEBE8"/>
			<stop  offset="0.4301" style="stop-color:#DFDED4"/>
			<stop  offset="0.4908" style="stop-color:#D6D5CF"/>
			<stop  offset="0.816" style="stop-color:#9E9C88"/>
			<stop  offset="1" style="stop-color:#8B897C"/>
		</radialGradient>
		<path fill="url(#SVGID_3_)" d="M132.369,174.018c-1.85,0-11.004-0.461-31.282-8.373c-23.189-9.049-37.024-17.707-38.374-18.566
			c-10.572-0.102-15.06,0.188-16.98,0.312c-0.543,0.034-0.906,0.058-1.157,0.06l1.444-0.95c0.241,0-0.861,0.057-0.343,0.021
			c1.938-0.125,6.472-0.418,17.17-0.312l0.127,0.001l0.106,0.069c0.138,0.091,14.103,9.104,38.324,18.556
			c21.115,8.239,30.242,8.319,31.187,8.31c1.259-0.6,17.792-8.875,22.608-31.134l0.849,0.185
			c-5.077,23.475-22.996,31.697-23.178,31.779l-0.152,0.036C132.684,174.012,132.568,174.018,132.369,174.018z"/>
		
			<radialGradient id="SVGID_4_" cx="-628.1265" cy="-1223.6479" r="53.2701" gradientTransform="matrix(0.9437 -0.2392 -0.2325 -0.971 390.0867 -1279.5594)" gradientUnits="userSpaceOnUse">
			<stop  offset="0.1043" style="stop-color:#FFFFFF"/>
			<stop  offset="0.1963" style="stop-color:#EFEFE3"/>
			<stop  offset="0.3111" style="stop-color:#EBEBDE"/>
			<stop  offset="0.4301" style="stop-color:#DFDED4"/>
			<stop  offset="0.4908" style="stop-color:#D6D5CF"/>
			<stop  offset="0.816" style="stop-color:#9E9C88"/>
			<stop  offset="1" style="stop-color:#8B897C"/>
		</radialGradient>
		<path fill="url(#SVGID_4_)" d="M92.18,119.665c-0.048-4.608-1.947-11.408-4.063-19.218c-5.232-19.328,21.689-23.68,30.617-25.941
			c3.52-0.893,18.471-5.551,25.471-3.239c2.331,0.77,2.624,2.853,2.859,5.39c3.013-5.301,1.121-11.618,1.011-12.125
			c-0.076-0.343-0.326-1.4-0.408-1.743c-6.745-28.183-34.416-45.403-61.806-38.462c-27.39,6.942-44.125,35.414-37.378,63.596
			c1.539,6.439,5.19,20.896,10.31,27.847c0,0,20.273,19.948,25.979,19.453C89.102,134.844,92.311,132.154,92.18,119.665z"/>
		
			<radialGradient id="SVGID_5_" cx="118.0498" cy="33.5723" r="24.188" gradientTransform="matrix(0.9328 0 0 -1 -20.5155 61)" gradientUnits="userSpaceOnUse">
			<stop  offset="0.1043" style="stop-color:#FFFFFF"/>
			<stop  offset="0.1963" style="stop-color:#EFEFE3"/>
			<stop  offset="0.3111" style="stop-color:#EBEBDE"/>
			<stop  offset="0.4301" style="stop-color:#DFDED4"/>
			<stop  offset="0.4908" style="stop-color:#D6D5CF"/>
			<stop  offset="0.816" style="stop-color:#9E9C88"/>
			<stop  offset="1" style="stop-color:#8B897C"/>
		</radialGradient>
		<path fill="url(#SVGID_5_)" d="M90.446,24.241c15.509,0,29.31,10.89,35.258,26.184c-2.623-18.533-16.729-32.969-32.986-32.969
			c-11.048,0-20.421,6.671-25.533,16.76C73.212,28.01,81.333,24.241,90.446,24.241z"/>
		
			<ellipse transform="matrix(-0.2391 -0.971 0.971 -0.2391 47.0637 145.8908)" opacity="0.3" fill="#FFFFFF" enable-background="new    " cx="80.694" cy="54.505" rx="7.306" ry="9.192"/>
		<path opacity="0.29" fill="#231F14" enable-background="new    " d="M53.607,90.906c22.613-17.06,27.211-34.229,27.211-34.229
			c10.436-10.35,25.304-17.936,35.427-24.476c0,0,12.476,4.171,21.217,12.66c6.921,6.72,8.8,9.051,8.8,9.051
			c4.397,20.717,7.461,27.281,6.799,30.584c-1.133,5.65-23.812,20.962-62.083,16.237C56.627,96.498,46.176,96.514,53.607,90.906z"/>
		
			<radialGradient id="SVGID_6_" cx="-732.0352" cy="549.9482" r="60.5513" gradientTransform="matrix(0.7668 -0.6419 -0.6419 -0.7668 992.3853 16.4257)" gradientUnits="userSpaceOnUse">
			<stop  offset="0.1043" style="stop-color:#FFFFFF"/>
			<stop  offset="0.1963" style="stop-color:#EFEFE3"/>
			<stop  offset="0.3111" style="stop-color:#EBEBDE"/>
			<stop  offset="0.4301" style="stop-color:#DFDED4"/>
			<stop  offset="0.4908" style="stop-color:#D6D5CF"/>
			<stop  offset="0.816" style="stop-color:#9E9C88"/>
			<stop  offset="1" style="stop-color:#8B897C"/>
		</radialGradient>
		<path fill="url(#SVGID_6_)" d="M54.389,91.694c23.738-16.022,28.969-32.603,28.969-32.603
			c11.028-9.803,26.443-16.768,37.037-22.872c0,0,13.41,3.422,21.547,9.661c7.691,5.901,9.533,9.642,9.533,9.642
			c3.377,10.659,6.602,23.486,5.746,35.79c-0.39,5.614-25.554,16.452-64.729,10.888C57.324,97.208,46.587,96.959,54.389,91.694z"/>
		
			<linearGradient id="SVGID_7_" gradientUnits="userSpaceOnUse" x1="156.5049" y1="-46.4673" x2="154.7653" y2="-29.0715" gradientTransform="matrix(1 0 0 -1 -50 61)">
			<stop  offset="0" style="stop-color:#231F20"/>
			<stop  offset="0.0896" style="stop-color:#231F20;stop-opacity:0.9104"/>
			<stop  offset="0.4847" style="stop-color:#231F20;stop-opacity:0.2883"/>
			<stop  offset="1" style="stop-color:#231F20;stop-opacity:0"/>
		</linearGradient>
		<path fill="url(#SVGID_7_)" d="M54.389,91.694c23.738-16.022,28.969-32.603,28.969-32.603
			c11.028-9.803,26.443-16.768,37.037-22.872c0,0,13.41,3.422,21.547,9.661c7.691,5.901,9.533,9.642,9.533,9.642
			c3.377,10.659,6.602,23.486,5.746,35.79c-0.39,5.614-25.554,16.452-64.729,10.888C57.324,97.208,46.587,96.959,54.389,91.694z"/>
		
			<radialGradient id="SVGID_8_" cx="185.2422" cy="35.2817" r="41.2187" gradientTransform="matrix(1 0 0 -1 -50 61)" gradientUnits="userSpaceOnUse">
			<stop  offset="0.1043" style="stop-color:#FFFFFF"/>
			<stop  offset="0.1963" style="stop-color:#EFEFF0"/>
			<stop  offset="0.3111" style="stop-color:#EBEBE1"/>
			<stop  offset="0.4301" style="stop-color:#DFDED2"/>
			<stop  offset="0.4908" style="stop-color:#D6D5C7"/>
			<stop  offset="1" style="stop-color:#8B8981;stop-opacity:0"/>
		</radialGradient>
		<path fill="url(#SVGID_8_)" d="M54.389,91.694c23.738-16.022,28.969-32.603,28.969-32.603
			c11.028-9.803,26.443-16.768,37.037-22.872c0,0,10.5,7.884,13.043,41.41c0.733,9.668-1.771,30.135-40.946,24.571
			C57.324,97.208,46.587,96.959,54.389,91.694z"/>
		<path d="M92.164,89.831c0,0,7.614-2.653,14.386-4.401c7.544-1.946,14.328-3.008,14.328-3.008l1.589,6.155
			c0,0-6.988,1.113-14.615,3.081c-6.664,1.72-14.099,4.327-14.099,4.327L92.164,89.831z"/>
		<path d="M140.512,85.303c7.813,0.118,14.819,0.814,14.819,0.814l-0.169-5.627c0,0-6.799-0.691-14.525-0.807
			C139.861,79.669,139.646,85.292,140.512,85.303z"/>
		
			<radialGradient id="SVGID_9_" cx="7.2788" cy="-14.1709" r="55.5974" gradientTransform="matrix(0.9281 -0.0654 -0.0703 -0.9975 79.2165 86.7086)" gradientUnits="userSpaceOnUse">
			<stop  offset="0.1043" style="stop-color:#FFFFFF"/>
			<stop  offset="0.1963" style="stop-color:#EFEFE3"/>
			<stop  offset="0.3111" style="stop-color:#EBEBDE"/>
			<stop  offset="0.4301" style="stop-color:#DFDED4"/>
			<stop  offset="0.4908" style="stop-color:#D6D5CF"/>
			<stop  offset="0.816" style="stop-color:#9E9C88"/>
			<stop  offset="1" style="stop-color:#8B897C"/>
		</radialGradient>
		<path fill="url(#SVGID_9_)" d="M56.089,91.367c0,0,42.623,24.501,93.472-1.956l7.66,6.944
			c-1.972,19.875-11.109,44.814-15.27,51.299c-2.053,3.199-5.854,5.277-5.854,5.277c-13.787,1.391-43.449-9.121-65.8-28.229
			C47.105,104.875,47.585,93.534,56.089,91.367z"/>
		
			<radialGradient id="SVGID_10_" cx="46.7661" cy="-0.3232" r="50.7718" gradientTransform="matrix(0.9281 -0.0654 -0.0703 -0.9975 79.2047 86.568)" gradientUnits="userSpaceOnUse">
			<stop  offset="0" style="stop-color:#9E9C86"/>
			<stop  offset="1" style="stop-color:#646151"/>
		</radialGradient>
		<path fill="url(#SVGID_10_)" d="M148,121.789c2.71-16.393,1.562-32.377,1.562-32.377s3.334,0.481,6.229,0.481
			c2.692,0,4.965-0.481,4.965-0.481c4.709,22.211-14.646,51.758-18.805,58.244c-2.054,3.197-5.854,5.275-5.854,5.275
			S143.915,146.499,148,121.789z"/>
		
			<ellipse transform="matrix(-0.3698 -0.9291 0.9291 -0.3698 -15.3425 188.8505)" fill="#231F20" cx="56.377" cy="99.629" rx="5.413" ry="4.036"/>
		
			<radialGradient id="SVGID_11_" cx="106.3789" cy="-38.6274" r="3.4013" gradientTransform="matrix(1 0 0 -1 -50 61)" gradientUnits="userSpaceOnUse">
			<stop  offset="0.1043" style="stop-color:#FFFFFF"/>
			<stop  offset="0.1963" style="stop-color:#EFEFF0"/>
			<stop  offset="0.3111" style="stop-color:#EBEBE8"/>
			<stop  offset="0.4301" style="stop-color:#DFDED4"/>
			<stop  offset="0.4908" style="stop-color:#D6D5CF"/>
			<stop  offset="0.816" style="stop-color:#9E9C88"/>
			<stop  offset="1" style="stop-color:#8B897C"/>
		</radialGradient>
		<path fill="url(#SVGID_11_)" d="M59.05,98.564c0.788,1.977,0.23,4.057-1.244,4.645c-1.476,0.588-3.31-0.54-4.097-2.518
			c-0.787-1.979-0.231-4.059,1.244-4.646C56.429,95.459,58.263,96.586,59.05,98.564z"/>
		<g>
			<path fill="#231F20" d="M135.402,143.398l-5.166-0.873c4.791-17.889,4.361-36.196,4.355-36.379l5.217-0.141
				C139.828,106.785,140.389,124.784,135.402,143.398z"/>
		</g>
		<g>
			<path fill="#231F20" d="M120.889,140.488l-5.082-1.176c4.17-18.494,3.068-30.744,3.061-30.883l5.211-0.312
				C124.111,108.708,125.217,121.281,120.889,140.488z"/>
		</g>
		<g>
			<path fill="#231F20" d="M105.55,135.229l-4.948-1.785c2.926-12.457,2.678-23.881,2.678-24.006l5.22-0.006
				C108.499,109.973,108.613,122.188,105.55,135.229z"/>
		</g>
		<g>
			<path fill="#231F20" d="M92.382,129.52l-5.042-2.121c1.845-13.229,1.71-17.822,1.708-17.866l5.215-0.197
				C94.272,109.529,94.292,115.759,92.382,129.52z"/>
		</g>
		<g>
			<path fill="#231F20" d="M151.286,131.516l-1.673,3.295c4.916-14.748,4.566-30.846,4.562-30.98l2.608-0.08
				c0.015,0.462,0.252,9.46-2.226,20.586C154.559,124.335,153.339,127.7,151.286,131.516z"/>
		</g>
		
			<radialGradient id="SVGID_12_" cx="-1052.5332" cy="887.0391" r="2.3962" fx="-1052.542" fy="886.3446" gradientTransform="matrix(0.4917 -0.8467 -0.8648 -0.5022 1349.8828 -290.7955)" gradientUnits="userSpaceOnUse">
			<stop  offset="0.1043" style="stop-color:#FFFFFF"/>
			<stop  offset="0.1963" style="stop-color:#EFEFF0"/>
			<stop  offset="0.3111" style="stop-color:#EBEBE8"/>
			<stop  offset="0.4301" style="stop-color:#DFDED4"/>
			<stop  offset="0.4908" style="stop-color:#D6D5CF"/>
			<stop  offset="0.816" style="stop-color:#9E9C88"/>
			<stop  offset="1" style="stop-color:#8B897C"/>
		</radialGradient>
		<path fill="url(#SVGID_12_)" d="M66.385,153.208c1.058,0.614,1.429,1.952,0.826,2.989c-0.6,1.035-1.948,1.378-3.005,0.764
			c-1.059-0.613-1.429-1.954-0.829-2.988C63.981,152.936,65.327,152.593,66.385,153.208z"/>
		
			<radialGradient id="SVGID_13_" cx="-1240.6011" cy="1118.6455" r="2.3968" fx="-1240.61" fy="1117.9508" gradientTransform="matrix(0.3122 -0.8493 -0.9386 -0.345 1522.2029 -503.4565)" gradientUnits="userSpaceOnUse">
			<stop  offset="0.1043" style="stop-color:#FFFFFF"/>
			<stop  offset="0.1963" style="stop-color:#EFEFF0"/>
			<stop  offset="0.3111" style="stop-color:#EBEBE8"/>
			<stop  offset="0.4301" style="stop-color:#DFDED4"/>
			<stop  offset="0.4908" style="stop-color:#D6D5CF"/>
			<stop  offset="0.816" style="stop-color:#9E9C88"/>
			<stop  offset="1" style="stop-color:#8B897C"/>
		</radialGradient>
		<path fill="url(#SVGID_13_)" d="M85.707,162.521c1.149,0.422,1.771,1.607,1.389,2.646c-0.382,1.039-1.623,1.54-2.772,1.117
			c-1.148-0.422-1.771-1.605-1.39-2.646C83.317,162.6,84.559,162.102,85.707,162.521z"/>
		
			<radialGradient id="SVGID_14_" cx="-1132.478" cy="1133.2588" r="2.3954" fx="-1132.4868" fy="1132.5646" gradientTransform="matrix(0.3122 -0.8493 -0.8776 -0.3226 1437.7015 -534.3395)" gradientUnits="userSpaceOnUse">
			<stop  offset="0.1043" style="stop-color:#FFFFFF"/>
			<stop  offset="0.1963" style="stop-color:#EFEFF0"/>
			<stop  offset="0.3111" style="stop-color:#EBEBE8"/>
			<stop  offset="0.4301" style="stop-color:#DFDED4"/>
			<stop  offset="0.4908" style="stop-color:#D6D5CF"/>
			<stop  offset="0.816" style="stop-color:#9E9C88"/>
			<stop  offset="1" style="stop-color:#8B897C"/>
		</radialGradient>
		<path fill="url(#SVGID_14_)" d="M90.366,60.152c1.075,0.394,1.636,1.557,1.253,2.597c-0.381,1.039-1.562,1.562-2.636,1.167
			c-1.073-0.396-1.635-1.559-1.253-2.597C88.113,60.279,89.293,59.756,90.366,60.152z"/>
		
			<radialGradient id="SVGID_15_" cx="-1676.6021" cy="622.1035" r="2.3951" fx="-1676.6108" fy="621.4094" gradientTransform="matrix(0.3696 -0.4894 -0.7461 -0.5635 1230.0942 -415.6407)" gradientUnits="userSpaceOnUse">
			<stop  offset="0.1043" style="stop-color:#FFFFFF"/>
			<stop  offset="0.1963" style="stop-color:#EFEFF0"/>
			<stop  offset="0.3111" style="stop-color:#EBEBE8"/>
			<stop  offset="0.4301" style="stop-color:#DFDED4"/>
			<stop  offset="0.4908" style="stop-color:#D6D5CF"/>
			<stop  offset="0.816" style="stop-color:#9E9C88"/>
			<stop  offset="1" style="stop-color:#8B897C"/>
		</radialGradient>
		<path fill="url(#SVGID_15_)" d="M147.145,53.385c0.916,0.69,1.287,1.735,0.834,2.333c-0.451,0.599-1.56,0.526-2.473-0.164
			c-0.91-0.689-1.285-1.735-0.833-2.334C145.125,52.622,146.23,52.695,147.145,53.385z"/>
		
			<radialGradient id="SVGID_16_" cx="-1163.0791" cy="1090.7666" r="2.3951" fx="-1163.0879" fy="1090.0725" gradientTransform="matrix(0.3122 -0.8493 -0.7333 -0.2695 1234.1865 -609.6632)" gradientUnits="userSpaceOnUse">
			<stop  offset="0.1043" style="stop-color:#FFFFFF"/>
			<stop  offset="0.1963" style="stop-color:#EFEFF0"/>
			<stop  offset="0.3111" style="stop-color:#EBEBE8"/>
			<stop  offset="0.4301" style="stop-color:#DFDED4"/>
			<stop  offset="0.4908" style="stop-color:#D6D5CF"/>
			<stop  offset="0.816" style="stop-color:#9E9C88"/>
			<stop  offset="1" style="stop-color:#8B897C"/>
		</radialGradient>
		<path fill="url(#SVGID_16_)" d="M71.969,82.437c0.898,0.329,1.314,1.439,0.933,2.479c-0.382,1.04-1.419,1.615-2.316,1.286
			c-0.896-0.331-1.315-1.44-0.935-2.479C70.035,82.681,71.07,82.105,71.969,82.437z"/>
		
			<radialGradient id="SVGID_17_" cx="-1439.9136" cy="965.3633" r="1.9186" fx="-1439.9205" fy="964.8073" gradientTransform="matrix(0.4187 -0.7943 -1.1178 -0.0407 1731.0288 -952.6487)" gradientUnits="userSpaceOnUse">
			<stop  offset="0.1043" style="stop-color:#FFFFFF"/>
			<stop  offset="0.1963" style="stop-color:#EFEFF0"/>
			<stop  offset="0.3111" style="stop-color:#EBEBE8"/>
			<stop  offset="0.4301" style="stop-color:#DFDED4"/>
			<stop  offset="0.4908" style="stop-color:#D6D5CF"/>
			<stop  offset="0.816" style="stop-color:#9E9C88"/>
			<stop  offset="1" style="stop-color:#8B897C"/>
		</radialGradient>
		<path fill="url(#SVGID_17_)" d="M49.877,150.457c1.093,0.04,1.65,0.703,1.238,1.48c-0.41,0.778-1.631,1.377-2.725,1.336
			c-1.093-0.039-1.65-0.701-1.243-1.479C47.56,151.016,48.78,150.417,49.877,150.457z"/>
		
			<radialGradient id="SVGID_18_" cx="-1440.8745" cy="972.3223" r="1.3033" fx="-1440.8793" fy="971.9446" gradientTransform="matrix(0.4187 -0.7943 -1.1178 -0.0407 1731.0288 -952.6487)" gradientUnits="userSpaceOnUse">
			<stop  offset="0.1043" style="stop-color:#FFFFFF"/>
			<stop  offset="0.1963" style="stop-color:#EFEFF0"/>
			<stop  offset="0.3111" style="stop-color:#EBEBE8"/>
			<stop  offset="0.4301" style="stop-color:#DFDED4"/>
			<stop  offset="0.4908" style="stop-color:#D6D5CF"/>
			<stop  offset="0.816" style="stop-color:#9E9C88"/>
			<stop  offset="1" style="stop-color:#8B897C"/>
		</radialGradient>
		<path fill="url(#SVGID_18_)" d="M41.432,151.361c0.743,0.025,1.119,0.478,0.84,1.005c-0.278,0.528-1.108,0.937-1.85,0.909
			c-0.744-0.025-1.121-0.479-0.844-1.006C39.857,151.74,40.687,151.335,41.432,151.361z"/>
		
			<radialGradient id="SVGID_19_" cx="-1260.8306" cy="1291.874" r="2.3965" fx="-1260.8395" fy="1291.1794" gradientTransform="matrix(0.1995 -0.8826 -0.9754 -0.2205 1616.1923 -656.7269)" gradientUnits="userSpaceOnUse">
			<stop  offset="0.1043" style="stop-color:#FFFFFF"/>
			<stop  offset="0.1963" style="stop-color:#EFEFF0"/>
			<stop  offset="0.3111" style="stop-color:#EBEBE8"/>
			<stop  offset="0.4301" style="stop-color:#DFDED4"/>
			<stop  offset="0.4908" style="stop-color:#D6D5CF"/>
			<stop  offset="0.816" style="stop-color:#9E9C88"/>
			<stop  offset="1" style="stop-color:#8B897C"/>
		</radialGradient>
		<path fill="url(#SVGID_19_)" d="M105.111,169.406c1.193,0.27,1.964,1.365,1.72,2.443c-0.245,1.082-1.41,1.738-2.604,1.469
			c-1.192-0.271-1.965-1.365-1.722-2.444C102.752,169.793,103.917,169.139,105.111,169.406z"/>
		
			<radialGradient id="SVGID_20_" cx="-1254.0674" cy="1441.375" r="2.3956" fx="-1254.0762" fy="1440.6808" gradientTransform="matrix(0.0945 -0.8999 -0.9945 -0.1044 1683.4078 -800.7583)" gradientUnits="userSpaceOnUse">
			<stop  offset="0.1043" style="stop-color:#FFFFFF"/>
			<stop  offset="0.1963" style="stop-color:#EFEFF0"/>
			<stop  offset="0.3111" style="stop-color:#EBEBE8"/>
			<stop  offset="0.4301" style="stop-color:#DFDED4"/>
			<stop  offset="0.4908" style="stop-color:#D6D5CF"/>
			<stop  offset="0.816" style="stop-color:#9E9C88"/>
			<stop  offset="1" style="stop-color:#8B897C"/>
		</radialGradient>
		<path fill="url(#SVGID_20_)" d="M131.782,175.43c1.219,0.127,2.112,1.125,1.995,2.225c-0.114,1.102-1.195,1.894-2.414,1.764
			c-1.215-0.128-2.109-1.124-1.995-2.225C129.486,176.091,130.564,175.301,131.782,175.43z"/>
		
			<radialGradient id="SVGID_21_" cx="-580.5576" cy="2493.5127" r="1.8716" fx="-580.0757" fy="2493.2634" gradientTransform="matrix(-0.6045 -0.6733 -0.7441 0.6681 1651.2211 -1889.9148)" gradientUnits="userSpaceOnUse">
			<stop  offset="0.1043" style="stop-color:#FFFFFF"/>
			<stop  offset="0.1963" style="stop-color:#EFEFF0"/>
			<stop  offset="0.3111" style="stop-color:#EBEBE8"/>
			<stop  offset="0.4301" style="stop-color:#DFDED4"/>
			<stop  offset="0.4908" style="stop-color:#D6D5CF"/>
			<stop  offset="0.816" style="stop-color:#9E9C88"/>
			<stop  offset="1" style="stop-color:#8B897C"/>
		</radialGradient>
		<path fill="url(#SVGID_21_)" d="M145.609,165.674c0.828-0.746,2.048-0.74,2.721,0.008c0.674,0.75,0.547,1.961-0.282,2.705
			s-2.046,0.741-2.72-0.009C144.656,167.627,144.779,166.417,145.609,165.674z"/>
		
			<radialGradient id="SVGID_22_" cx="-182.9976" cy="2675.5566" r="1.5879" fx="-182.5888" fy="2675.3452" gradientTransform="matrix(-0.7625 -0.4871 -0.5383 0.8427 1456.2375 -2189.2307)" gradientUnits="userSpaceOnUse">
			<stop  offset="0.1043" style="stop-color:#FFFFFF"/>
			<stop  offset="0.1963" style="stop-color:#EFEFF0"/>
			<stop  offset="0.3111" style="stop-color:#EBEBE8"/>
			<stop  offset="0.4301" style="stop-color:#DFDED4"/>
			<stop  offset="0.4908" style="stop-color:#D6D5CF"/>
			<stop  offset="0.816" style="stop-color:#9E9C88"/>
			<stop  offset="1" style="stop-color:#8B897C"/>
		</radialGradient>
		<path fill="url(#SVGID_22_)" d="M154.318,153.857c0.508-0.795,1.506-1.066,2.226-0.606c0.724,0.46,0.894,1.479,0.386,2.274
			c-0.51,0.795-1.509,1.068-2.228,0.608C153.98,155.673,153.811,154.654,154.318,153.857z"/>
		
			<radialGradient id="SVGID_23_" cx="78.3955" cy="3380.8604" r="1.3377" fx="78.74" fy="3380.6824" gradientTransform="matrix(-0.8311 -0.3578 -0.2754 0.6395 1154.5486 -1988.3403)" gradientUnits="userSpaceOnUse">
			<stop  offset="0.1043" style="stop-color:#FFFFFF"/>
			<stop  offset="0.1963" style="stop-color:#EFEFF0"/>
			<stop  offset="0.3111" style="stop-color:#EBEBE8"/>
			<stop  offset="0.4301" style="stop-color:#DFDED4"/>
			<stop  offset="0.4908" style="stop-color:#D6D5CF"/>
			<stop  offset="0.816" style="stop-color:#9E9C88"/>
			<stop  offset="1" style="stop-color:#8B897C"/>
		</radialGradient>
		<path fill="url(#SVGID_23_)" d="M157.205,145.213c0.22-0.512,0.936-0.691,1.598-0.406c0.662,0.284,1.021,0.93,0.803,1.438
			c-0.221,0.51-0.938,0.693-1.599,0.406C157.346,146.366,156.984,145.723,157.205,145.213z"/>
	</g>
</g>
<g id="outline_x5F_white">
	<g>
		<g>
			<path fill="#FFFFFF" d="M92.718,17.456c7.055,0,13.702,2.721,19.185,7.313c10.754,3.124,20.32,9.814,27.072,19.088
				c1.037,0.638,2.037,1.312,2.967,2.023c7.691,5.901,9.533,9.642,9.533,9.642c3.242,10.236,6.334,22.471,5.818,34.323
				c1.984-0.122,3.464-0.434,3.464-0.434c3.149,14.853-4.459,32.974-11.092,45.297l-0.051,0.101
				c0.001-0.006,0.003-0.009,0.005-0.014c-0.438,0.809-0.869,1.598-1.293,2.354c9.515,4.121,13.994,9.271,13.994,9.271
				c-5.717,23.938-29.223,36.116-29.223,36.116s-0.099,0.005-0.303,0.005c-1.835,0-12.148-0.404-35.004-8.486
				c-27.564-9.748-43.117-18.918-43.117-18.918s-4.93-0.045-11.913-0.045c-1.344,0-2.765,0.002-4.241,0.006
				c-0.002,0-0.004,0-0.006,0c-4.371,0,9.567-10.941,14.836-14.611c11.914-8.297,18.245-11.422,18.245-11.422l5.024,2.15
				c-7.913-5.697-17.828-15.449-17.828-15.449c-1.487-2.021-2.846-4.681-4.07-7.586c-3.188-4.772-4.309-8.579-3.919-11.379
				c-1.005-3.486-1.791-6.663-2.321-8.882c-5.095-21.284,3.208-42.727,19.375-54.943C73.094,23.591,82.131,17.456,92.718,17.456
				 M71.533,30.441c3.608-2.256,7.541-4.082,11.748-5.388C78.987,26.036,75.025,27.889,71.533,30.441 M92.718,5.456
				c-13.75,0-26.299,7.229-34.028,19.468C39.502,40.61,30.933,66.154,36.812,90.715c0.645,2.697,1.278,5.167,1.92,7.492
				c0.072,4.896,1.871,10.146,5.373,15.658c1.597,3.643,3.246,6.601,5.024,9.016c0.377,0.514,0.794,0.994,1.248,1.439
				c0.116,0.115,0.94,0.923,2.248,2.162c-1.86,1.227-3.905,2.607-6.132,4.158c-2.666,1.856-7.025,5.157-10.753,8.346
				c-4.884,4.178-12.264,10.488-9.487,19.337c1.648,5.249,6.576,8.776,12.262,8.776c1.503-0.005,2.913-0.007,4.247-0.007
				c3.595,0,6.659,0.013,8.763,0.023c5.918,3.19,20.519,10.562,42.266,18.253c23.414,8.279,35.078,9.173,39.005,9.173
				c0.61,0,0.907-0.021,0.907-0.021c1.643-0.111,3.455-0.572,4.916-1.33c1.158-0.601,28.46-15.037,35.373-43.983
				c0.898-3.769-0.075-7.739-2.617-10.662c-0.623-0.716-2.93-3.222-7.107-6.177c8.153-17.487,10.922-32.747,8.229-45.448
				c-0.511-2.402-1.688-4.582-3.423-6.249c-0.896-11.015-3.807-21.347-6.16-28.775c-0.182-0.574-0.406-1.133-0.673-1.674
				c-0.927-1.881-4.046-6.998-12.996-13.865c-0.624-0.479-1.284-0.955-1.976-1.425c-7.646-9.722-18.037-17.062-29.664-20.953
				C110.156,8.395,101.604,5.456,92.718,5.456L92.718,5.456z"/>
		</g>
	</g>
</g>
<g id="outline_x5F_black">
	<g>
		<path d="M92.718,17.456c7.055,0,13.702,2.721,19.185,7.313c10.754,3.124,20.32,9.814,27.072,19.088
			c1.037,0.638,2.037,1.312,2.967,2.023c7.691,5.901,9.533,9.642,9.533,9.642c3.242,10.236,6.334,22.471,5.818,34.323
			c1.984-0.122,3.464-0.434,3.464-0.434c3.149,14.853-4.459,32.974-11.092,45.297l-0.051,0.101c0.001-0.006,0.003-0.009,0.005-0.014
			c-0.438,0.809-0.869,1.598-1.293,2.354c9.515,4.121,13.994,9.271,13.994,9.271c-5.717,23.938-29.223,36.116-29.223,36.116
			s-0.099,0.005-0.303,0.005c-1.835,0-12.148-0.404-35.004-8.486c-27.564-9.748-43.117-18.918-43.117-18.918
			s-4.931-0.045-11.916-0.045c-1.343,0-2.763,0.002-4.238,0.006c-0.002,0-0.004,0-0.006,0c-4.369,0,9.568-10.941,14.836-14.611
			c11.914-8.297,18.245-11.422,18.245-11.422l5.024,2.15c-7.913-5.697-17.828-15.449-17.828-15.449
			c-1.487-2.021-2.846-4.681-4.07-7.586c-3.188-4.772-4.309-8.579-3.919-11.379c-1.005-3.486-1.791-6.663-2.321-8.882
			c-5.095-21.284,3.208-42.727,19.375-54.943C73.094,23.591,82.131,17.456,92.718,17.456 M71.533,30.441
			c3.608-2.256,7.541-4.082,11.748-5.388C78.987,26.036,75.025,27.889,71.533,30.441 M92.718,11.456
			c-11.957,0-22.883,6.515-29.462,17.496C45.307,43.125,37.228,66.676,42.648,89.318c0.704,2.943,1.391,5.602,2.091,8.091
			c-0.138,4.056,1.431,8.628,4.676,13.621c1.477,3.431,2.966,6.146,4.546,8.294l0.284,0.385l0.341,0.335
			c0.238,0.233,3.545,3.479,7.861,7.321c-3.109,1.885-7.304,4.564-12.524,8.199c-2.461,1.715-6.729,4.942-10.283,7.982
			c-5.242,4.482-9.134,8.286-7.661,12.979c0.872,2.777,3.438,4.572,6.537,4.572c1.492-0.004,2.906-0.006,4.244-0.006
			c4.598,0,8.33,0.02,10.312,0.033c4.517,2.507,19.349,10.32,42.72,18.586c23.17,8.193,34.183,8.83,37.005,8.83
			c0.407,0,0.605-0.014,0.605-0.014l1.258-0.079l1.199-0.585c1.06-0.549,26.016-13.743,32.298-40.051l0.717-3.002l-2.024-2.328
			c-0.438-0.502-3.75-4.176-10.322-7.937c9.354-18.288,12.752-33.88,10.101-46.382l-1.243-5.866l-2.175,0.46
			c-0.675-11.005-3.642-21.562-6.015-29.051l-0.137-0.431l-0.199-0.406c-0.411-0.834-2.885-5.324-11.266-11.753
			c-0.76-0.581-1.586-1.163-2.469-1.737c-7.172-9.435-17.165-16.488-28.355-20.014C108.186,14.187,100.587,11.456,92.718,11.456
			L92.718,11.456z"/>
	</g>
</g>
</svg>
