<?xml version="1.0" encoding="utf-8"?>
<!-- Generator: Adobe Illustrator 15.0.0, SVG Export Plug-In . SVG Version: 6.00 Build 0)  -->
<!DOCTYPE svg PUBLIC "-//W3C//DTD SVG 1.1//EN" "http://www.w3.org/Graphics/SVG/1.1/DTD/svg11.dtd">
<svg version="1.1" xmlns="http://www.w3.org/2000/svg" xmlns:xlink="http://www.w3.org/1999/xlink" x="0px" y="0px" width="200px"
	 height="200px" viewBox="0 0 200 200" enable-background="new 0 0 200 200" xml:space="preserve">
<g id="icon">
	<g id="Layer_2">
	</g>
	<g>
		
			<radialGradient id="SVGID_1_" cx="105.3389" cy="-43.749" r="12.7188" fx="105.4185" fy="-45.0964" gradientTransform="matrix(1 0 0 -1 -50 61)" gradientUnits="userSpaceOnUse">
			<stop  offset="0" style="stop-color:#FFFF00"/>
			<stop  offset="0.3313" style="stop-color:#FFD400"/>
			<stop  offset="0.4016" style="stop-color:#FCD001"/>
			<stop  offset="0.4777" style="stop-color:#F2C303"/>
			<stop  offset="0.5565" style="stop-color:#E2AD06"/>
			<stop  offset="0.6371" style="stop-color:#CC8F0B"/>
			<stop  offset="0.7184" style="stop-color:#B06811"/>
			<stop  offset="0.7485" style="stop-color:#A45814"/>
			<stop  offset="0.9002" style="stop-color:#B57010"/>
			<stop  offset="1" style="stop-color:#BD7B0E"/>
		</radialGradient>
		<circle fill="url(#SVGID_1_)" cx="55.19" cy="106.543" r="9.785"/>
		
			<linearGradient id="SVGID_2_" gradientUnits="userSpaceOnUse" x1="709.2383" y1="-678.3457" x2="702.6207" y2="-684.735" gradientTransform="matrix(0.8045 -0.2042 0.1523 -0.8367 -383.1327 -295.4598)">
			<stop  offset="0" style="stop-color:#FFCA00"/>
			<stop  offset="0.2793" style="stop-color:#EBAE0B"/>
			<stop  offset="0.8792" style="stop-color:#B96725"/>
			<stop  offset="1" style="stop-color:#AE582B"/>
		</linearGradient>
		<path fill="url(#SVGID_2_)" d="M105.021,144.855c1.207,1.068,0.834,3.459-0.826,5.338l0,0c-1.666,1.879-3.991,2.537-5.199,1.469
			L58.15,115.141c-1.205-1.067-0.836-3.459,0.828-5.338l0,0c1.663-1.879,3.99-2.537,5.197-1.469L105.021,144.855z"/>
		<g>
			
				<linearGradient id="SVGID_3_" gradientUnits="userSpaceOnUse" x1="144.4414" y1="-20.0864" x2="203.7267" y2="-9.4455" gradientTransform="matrix(0.9995 0.0326 0.0326 -0.9995 -119.9799 134.2607)">
				<stop  offset="0" style="stop-color:#D16E00"/>
				<stop  offset="0.1896" style="stop-color:#B56205"/>
				<stop  offset="0.5959" style="stop-color:#6E4313"/>
				<stop  offset="1" style="stop-color:#222222"/>
			</linearGradient>
			<path fill="url(#SVGID_3_)" d="M67.793,126.623l-27.318,44.138c0,0-1.959,6.292,2.275,9.231c4.285,2.979,8.751,0.545,8.751,0.545
				l30.832-38.412L67.793,126.623z"/>
			
				<linearGradient id="SVGID_4_" gradientUnits="userSpaceOnUse" x1="152.8643" y1="-6.6514" x2="202.8494" y2="-21.5961" gradientTransform="matrix(0.9995 0.0326 0.0326 -0.9995 -119.9799 134.2607)">
				<stop  offset="0" style="stop-color:#906E81"/>
				<stop  offset="0.2884" style="stop-color:#745B69"/>
				<stop  offset="0.9081" style="stop-color:#2D2A2C"/>
				<stop  offset="1" style="stop-color:#222222"/>
			</linearGradient>
			<path fill="url(#SVGID_4_)" d="M67.793,126.623l-27.318,44.138c0,0-1.959,6.292,2.275,9.231c4.285,2.979,8.751,0.545,8.751,0.545
				l30.832-38.412L67.793,126.623z"/>
			<g>
				
					<linearGradient id="SVGID_5_" gradientUnits="userSpaceOnUse" x1="167.127" y1="-6.0059" x2="194.8336" y2="-23.978" gradientTransform="matrix(0.9995 0.0326 0.0326 -0.9995 -119.9799 134.2607)">
					<stop  offset="0" style="stop-color:#9F8292"/>
					<stop  offset="0.257" style="stop-color:#836D79"/>
					<stop  offset="0.8088" style="stop-color:#3C3639"/>
					<stop  offset="1" style="stop-color:#222222"/>
				</linearGradient>
				<path fill="url(#SVGID_5_)" d="M70.092,129.062l-2.299-2.439l-27.318,44.138c0,0-0.543,1.761-0.434,3.853L70.092,129.062z"/>
			</g>
		</g>
		
			<linearGradient id="SVGID_6_" gradientUnits="userSpaceOnUse" x1="99.5293" y1="-102.0586" x2="104.5793" y2="-106.4771" gradientTransform="matrix(1 0 0 -1 -50 61)">
			<stop  offset="0" style="stop-color:#484848"/>
			<stop  offset="0.2454" style="stop-color:#A6A6A7"/>
			<stop  offset="1" style="stop-color:#000000"/>
		</linearGradient>
		<path fill="url(#SVGID_6_)" d="M55.53,175.342c0,0-6.628,2.694-10.021-5.568c-2.148-5.229,1.381-9.135,1.381-9.135l4.859-7.608
			c0,0-6.037,9.733-0.385,15.186c5.651,5.451,9.198,0.854,9.198,0.854L55.53,175.342z"/>
		
			<linearGradient id="SVGID_7_" gradientUnits="userSpaceOnUse" x1="109.6992" y1="-90.4321" x2="114.7491" y2="-94.8505" gradientTransform="matrix(1 0 0 -1 -50 61)">
			<stop  offset="0" style="stop-color:#484848"/>
			<stop  offset="0.2454" style="stop-color:#A6A6A7"/>
			<stop  offset="1" style="stop-color:#000000"/>
		</linearGradient>
		<path fill="url(#SVGID_7_)" d="M64.906,163.053c0,0-7.178,2.795-10.852-5.77c-2.327-5.422,1.495-9.469,1.495-9.469l5.263-7.887
			c0,0-6.537,10.09-0.417,15.739c6.12,5.647,9.962,0.886,9.962,0.886L64.906,163.053z"/>
		
			<linearGradient id="SVGID_8_" gradientUnits="userSpaceOnUse" x1="121.3584" y1="-77.1069" x2="126.408" y2="-81.525" gradientTransform="matrix(1 0 0 -1 -50 61)">
			<stop  offset="0" style="stop-color:#484848"/>
			<stop  offset="0.2454" style="stop-color:#A6A6A7"/>
			<stop  offset="1" style="stop-color:#000000"/>
		</linearGradient>
		<path fill="url(#SVGID_8_)" d="M75.781,149.166c0,0-8.795,2.932-13.297-6.061c-2.85-5.695,1.832-9.945,1.832-9.945l5.775-10.287
			c0,0-7.337,12.602,0.163,18.535c7.499,5.934,12.206,0.93,12.206,0.93L75.781,149.166z"/>
		
			<linearGradient id="SVGID_9_" gradientUnits="userSpaceOnUse" x1="120.7881" y1="3.9985" x2="232.153" y2="-73.5108" gradientTransform="matrix(1 0 0 -1 -50 61)">
			<stop  offset="0" style="stop-color:#D2E6FF"/>
			<stop  offset="0.6457" style="stop-color:#EEF5F4"/>
			<stop  offset="1" style="stop-color:#FFFFFF"/>
		</linearGradient>
		<polygon fill="url(#SVGID_9_)" points="72.012,117.256 77.109,126.361 121.717,59 122.389,27.956 		"/>
		
			<linearGradient id="SVGID_10_" gradientUnits="userSpaceOnUse" x1="147.5332" y1="-12.7441" x2="146.3122" y2="-38.9817" gradientTransform="matrix(1 0 0 -1 -50 61)">
			<stop  offset="0.092" style="stop-color:#A8CEC9;stop-opacity:0"/>
			<stop  offset="0.1885" style="stop-color:#C4DEDA;stop-opacity:0.3455"/>
			<stop  offset="0.2883" style="stop-color:#E5F0EF;stop-opacity:0.7027"/>
			<stop  offset="0.4663" style="stop-color:#FFFFFF"/>
			<stop  offset="1" style="stop-color:#A8CEC9;stop-opacity:0"/>
		</linearGradient>
		<polygon fill="url(#SVGID_10_)" points="72.012,117.256 77.109,126.361 121.717,59 122.389,27.956 		"/>
		
			<linearGradient id="SVGID_11_" gradientUnits="userSpaceOnUse" x1="155.4434" y1="-21.6709" x2="107.8535" y2="13.5639" gradientTransform="matrix(1 0 0 -1 -50 61)">
			<stop  offset="0" style="stop-color:#6883A2"/>
			<stop  offset="1" style="stop-color:#FFFFFF"/>
		</linearGradient>
		<polygon fill="url(#SVGID_11_)" points="91.968,134.766 77.109,126.361 121.717,59 158.693,57.426 		"/>
		
			<linearGradient id="SVGID_12_" gradientUnits="userSpaceOnUse" x1="190.8486" y1="18.8301" x2="190.8486" y2="26.419" gradientTransform="matrix(1 0 0 -1 -50 61)">
			<stop  offset="0" style="stop-color:#B8CEE8"/>
			<stop  offset="0.3566" style="stop-color:#C4DEF2"/>
			<stop  offset="1" style="stop-color:#FFFFFF"/>
		</linearGradient>
		<polygon fill="url(#SVGID_12_)" points="159.979,18.527 122.389,27.956 121.717,59 158.693,57.426 		"/>
		<path d="M70.248,144.824c-0.061,2.305-1.657,3.65-3.566,3.01c-1.909-0.643-3.408-3.029-3.348-5.334s1.658-3.65,3.566-3.01
			C68.811,140.133,70.309,142.52,70.248,144.824z"/>
		<path d="M60.293,157.462c-0.057,2.116-1.522,3.353-3.275,2.763c-1.752-0.59-3.129-2.781-3.072-4.896
			c0.055-2.113,1.521-3.352,3.273-2.762C58.972,153.154,60.348,155.348,60.293,157.462z"/>
		<path d="M50.96,169.936c-0.051,1.908-1.374,3.023-2.954,2.492c-1.583-0.531-2.824-2.51-2.775-4.418
			c0.051-1.908,1.374-3.025,2.955-2.494C49.768,166.049,51.01,168.025,50.96,169.936z"/>
		
			<radialGradient id="SVGID_13_" cx="158.4814" cy="-91.6689" r="12.7185" fx="158.5611" fy="-93.0163" gradientTransform="matrix(1 0 0 -1 -50 61)" gradientUnits="userSpaceOnUse">
			<stop  offset="0" style="stop-color:#FFFF00"/>
			<stop  offset="0.3313" style="stop-color:#FFD400"/>
			<stop  offset="0.4016" style="stop-color:#FCD001"/>
			<stop  offset="0.4777" style="stop-color:#F2C303"/>
			<stop  offset="0.5565" style="stop-color:#E2AD06"/>
			<stop  offset="0.6371" style="stop-color:#CC8F0B"/>
			<stop  offset="0.7184" style="stop-color:#B06811"/>
			<stop  offset="0.7485" style="stop-color:#A45814"/>
			<stop  offset="0.9002" style="stop-color:#B57010"/>
			<stop  offset="1" style="stop-color:#BD7B0E"/>
		</radialGradient>
		<circle fill="url(#SVGID_13_)" cx="108.332" cy="154.463" r="9.785"/>
		
			<radialGradient id="SVGID_14_" cx="127.4746" cy="-61.145" r="21.735" gradientTransform="matrix(1 0 0 -1 -50 61)" gradientUnits="userSpaceOnUse">
			<stop  offset="0" style="stop-color:#FFFF00"/>
			<stop  offset="0.3313" style="stop-color:#FFD400"/>
			<stop  offset="0.4016" style="stop-color:#FCD001"/>
			<stop  offset="0.4777" style="stop-color:#F2C303"/>
			<stop  offset="0.5565" style="stop-color:#E2AD06"/>
			<stop  offset="0.6371" style="stop-color:#CC8F0B"/>
			<stop  offset="0.7184" style="stop-color:#B06811"/>
			<stop  offset="0.7485" style="stop-color:#A45814"/>
			<stop  offset="0.9002" style="stop-color:#B57010"/>
			<stop  offset="1" style="stop-color:#BD7B0E"/>
		</radialGradient>
		<path fill="url(#SVGID_14_)" d="M88.344,132.484c-0.154,6.858-5.217,11.646-11.305,10.69c-6.086-0.956-10.895-7.291-10.738-14.149
			c0.157-6.859,5.218-11.646,11.305-10.689C83.693,119.29,88.501,125.625,88.344,132.484z"/>
		
			<linearGradient id="SVGID_15_" gradientUnits="userSpaceOnUse" x1="177.1748" y1="87.6826" x2="201.2979" y2="87.6826" gradientTransform="matrix(0.9403 0.1475 0.0241 -1.0597 -104.522 196.1212)">
			<stop  offset="0" style="stop-color:#FFCA00"/>
			<stop  offset="0.2793" style="stop-color:#EBAE0B"/>
			<stop  offset="0.8792" style="stop-color:#B96725"/>
			<stop  offset="1" style="stop-color:#AE582B"/>
		</linearGradient>
		<path fill="url(#SVGID_15_)" d="M86.871,132.896c-0.16,7.059-5.368,11.983-11.631,11c-6.264-0.982-11.211-7.5-11.051-14.56
			c0.162-7.057,5.369-11.981,11.633-10.998C82.086,119.322,87.032,125.84,86.871,132.896z"/>
		
			<radialGradient id="SVGID_16_" cx="184.668" cy="491.4053" r="5.1063" fx="183.9769" fy="491.5007" gradientTransform="matrix(-0.1366 0.9906 0.9104 0.1256 -346.6299 -114.1297)" gradientUnits="userSpaceOnUse">
			<stop  offset="0" style="stop-color:#FFFF00"/>
			<stop  offset="0.3313" style="stop-color:#FFD400"/>
			<stop  offset="0.4016" style="stop-color:#FCD001"/>
			<stop  offset="0.4777" style="stop-color:#F2C303"/>
			<stop  offset="0.5565" style="stop-color:#E2AD06"/>
			<stop  offset="0.6371" style="stop-color:#CC8F0B"/>
			<stop  offset="0.7184" style="stop-color:#B06811"/>
			<stop  offset="0.7485" style="stop-color:#A45814"/>
			<stop  offset="0.9002" style="stop-color:#B57010"/>
			<stop  offset="1" style="stop-color:#BD7B0E"/>
		</radialGradient>
		<path fill="url(#SVGID_16_)" d="M79.709,131.773c-0.06,2.602-1.978,4.416-4.285,4.054c-2.309-0.362-4.132-2.765-4.072-5.365
			c0.059-2.601,1.979-4.414,4.286-4.052C77.945,126.771,79.769,129.174,79.709,131.773z"/>
	</g>
</g>
<g id="outline_x5F_white">
	<g>
		<path fill="#FFFFFF" d="M159.979,18.527l-1.285,38.898l-65.955,76.447l12.283,10.983c0.104,0.09,0.182,0.205,0.262,0.312
			c0.96-0.314,1.982-0.49,3.049-0.49c5.404,0,9.785,4.381,9.785,9.783c0,5.404-4.381,9.785-9.785,9.785s-9.784-4.381-9.784-9.785
			c0-0.982,0.148-1.932,0.42-2.828L85.77,139.832c-0.96,1.17-2.142,2.089-3.482,2.684l-1.489,1.521l-29.296,36.498
			c0,0-1.718,0.938-4.047,0.938c-1.424,0-3.078-0.352-4.704-1.481c-1.998-1.386-2.609-3.515-2.707-5.382l-0.002,0.002
			c0-0.014,0-0.026,0-0.043c-0.012-0.241-0.016-0.479-0.013-0.711c0.001-0.006,0.001-0.014,0.001-0.021
			c0.033-1.731,0.445-3.077,0.445-3.077l23.92-38.646c-0.15-0.908-0.227-1.837-0.205-2.777c0.061-2.67,0.848-5.032,2.137-6.888
			l-7.598-6.792c-1.099,0.426-2.289,0.67-3.539,0.67c-5.404,0-9.784-4.381-9.784-9.785c0-5.401,4.38-9.783,9.784-9.783
			c5.404,0,9.785,4.382,9.785,9.783c0,0.78-0.102,1.535-0.273,2.263l8.029,7.18l49.659-88.028L159.979,18.527 M81.61,143.025
			c0.29-0.195,0.507-0.373,0.65-0.5c-0.118,0.053-0.24,0.092-0.36,0.139L81.61,143.025 M159.977,6.527
			c-0.974,0-1.953,0.119-2.918,0.36l-37.59,9.429c-3.191,0.8-5.914,2.877-7.531,5.743L72.051,92.765
			c-3.999-4.883-10.073-8.005-16.862-8.005c-12.012,0-21.784,9.772-21.784,21.783c0,11.009,8.208,20.137,18.825,21.585
			c-0.018,0.299-0.03,0.599-0.037,0.897l-21.922,35.42c-0.542,0.875-0.968,1.814-1.27,2.8c-0.209,0.683-0.891,3.13-0.967,6.235
			c-0.002,0.076-0.004,0.151-0.005,0.229c-0.006,0.456,0.002,0.918,0.022,1.373c0.002,0.052,0.005,0.104,0.008,0.154l0,0
			c0.321,6.139,3.11,11.328,7.855,14.617c3.401,2.363,7.396,3.619,11.54,3.619c4.998,0,8.757-1.838,9.79-2.4
			c1.394-0.76,2.622-1.787,3.616-3.024l25.416-31.665l0.389,0.35c1.139,10.949,10.421,19.516,21.667,19.516
			c12.014,0,21.785-9.771,21.785-21.785c0-11.591-9.1-21.096-20.53-21.747l58.192-67.451c1.791-2.076,2.818-4.703,2.908-7.443
			l1.283-38.898c0.125-3.765-1.525-7.369-4.457-9.734C165.357,7.448,162.689,6.527,159.977,6.527L159.977,6.527z"/>
	</g>
</g>
<g id="outline_x5F_black">
	<path d="M159.979,18.527l-1.285,38.898l-65.955,76.447l12.283,10.983c0.104,0.09,0.182,0.205,0.262,0.312
		c0.96-0.314,1.982-0.49,3.049-0.49c5.404,0,9.785,4.381,9.785,9.783c0,5.404-4.381,9.785-9.785,9.785s-9.784-4.381-9.784-9.785
		c0-0.982,0.148-1.932,0.42-2.828L85.77,139.832c-0.96,1.17-2.142,2.089-3.482,2.684l-1.489,1.521l-29.296,36.498
		c0,0-1.718,0.938-4.047,0.938c-1.424,0-3.078-0.352-4.704-1.481c-1.998-1.386-2.609-3.515-2.707-5.382l-0.002,0.002
		c0-0.014,0-0.026,0-0.043c-0.012-0.241-0.016-0.479-0.013-0.711c0.001-0.006,0.001-0.014,0.001-0.021
		c0.033-1.731,0.445-3.077,0.445-3.077l23.92-38.646c-0.15-0.908-0.227-1.837-0.205-2.777c0.061-2.67,0.848-5.032,2.137-6.888
		l-7.598-6.792c-1.099,0.426-2.289,0.67-3.539,0.67c-5.404,0-9.784-4.381-9.784-9.785c0-5.401,4.38-9.783,9.784-9.783
		c5.404,0,9.785,4.382,9.785,9.783c0,0.78-0.102,1.535-0.273,2.263l8.029,7.18l49.659-88.028L159.979,18.527 M81.61,143.025
		c0.29-0.195,0.507-0.373,0.65-0.5c-0.118,0.053-0.24,0.092-0.36,0.139L81.61,143.025 M159.979,12.527
		c-0.487,0-0.979,0.059-1.461,0.18l-37.588,9.429c-1.597,0.4-2.957,1.438-3.767,2.872L71.169,106.54l-0.196-0.176
		c-0.096-8.621-7.14-15.604-15.784-15.604c-8.704,0-15.784,7.081-15.784,15.783c0,8.704,7.081,15.785,15.784,15.785
		c0.627,0,1.251-0.037,1.872-0.112l1.957,1.749c-0.506,1.661-0.786,3.421-0.827,5.237c-0.011,0.493-0.003,0.993,0.023,1.499
		l-22.841,36.9c-0.271,0.438-0.484,0.908-0.635,1.4c-0.109,0.354-0.65,2.234-0.706,4.648c-0.001,0.045-0.002,0.088-0.003,0.133
		c-0.004,0.344,0.001,0.693,0.018,1.053c0.001,0.029,0.003,0.059,0.004,0.088l0,0c0.222,4.241,2.097,7.792,5.281,9.999
		c2.398,1.666,5.209,2.55,8.122,2.55c3.671,0,6.407-1.39,6.918-1.668c0.696-0.38,1.311-0.895,1.808-1.513l29.111-36.269l0.297-0.304
		l6.967,6.229c-0.005,0.17-0.008,0.341-0.008,0.512c0,8.704,7.081,15.785,15.784,15.785c8.704,0,15.785-7.081,15.785-15.785
		c0-8.703-7.081-15.783-15.785-15.783c-0.39,0-0.778,0.016-1.167,0.045l-6.032-5.396l62.104-71.984
		c0.896-1.038,1.408-2.352,1.453-3.722l1.285-38.898c0.062-1.882-0.765-3.684-2.229-4.867
		C162.667,12.988,161.334,12.527,159.979,12.527L159.979,12.527z"/>
</g>
</svg>
