<?xml version="1.0" encoding="utf-8"?>
<!-- Generator: Adobe Illustrator 15.0.0, SVG Export Plug-In . SVG Version: 6.00 Build 0)  -->
<!DOCTYPE svg PUBLIC "-//W3C//DTD SVG 1.1//EN" "http://www.w3.org/Graphics/SVG/1.1/DTD/svg11.dtd">
<svg version="1.1" xmlns="http://www.w3.org/2000/svg" xmlns:xlink="http://www.w3.org/1999/xlink" x="0px" y="0px" width="200px"
	 height="200px" viewBox="0 0 200 200" enable-background="new 0 0 200 200" xml:space="preserve">
<g id="icon">
	<g id="Layer_2">
	</g>
	<g>
		<path d="M55.692,164.788c3.224,2.676,7.574,2.75,9.714,0.167l29.762-35.904c2.142-2.583,1.263-6.845-1.963-9.519l-2.833-2.351
			c-3.227-2.673-7.577-2.748-9.718-0.164l-29.762,35.903c-2.14,2.582-1.261,6.843,1.964,9.519L55.692,164.788z"/>
		<polygon fill="#CF7000" points="83.285,128.498 78.064,127.973 79.551,133.003 84.768,133.525 		"/>
		<polygon fill="#CF7000" points="78.73,133.993 73.51,133.465 74.995,138.497 80.214,139.021 		"/>
		<polygon fill="#CF7000" points="74.314,139.318 69.094,138.794 70.58,143.824 75.796,144.35 		"/>
		<polygon fill="#CF7000" points="69.758,144.812 64.54,144.288 66.026,149.318 71.243,149.846 		"/>
		<polygon fill="#CF7000" points="65.525,149.923 60.307,149.396 61.79,154.427 67.007,154.954 		"/>
		<polygon fill="#CF7000" points="60.971,155.417 55.751,154.893 57.235,159.922 62.454,160.445 		"/>
		<path d="M77.966,111.655c-2.515,3.569,0.783,10.817,7.367,16.192c6.583,5.373,13.96,6.84,16.476,3.271
			c2.515-3.566-0.785-10.817-7.369-16.19C87.857,109.553,80.478,108.087,77.966,111.655z"/>
		<path d="M79.087,110.464c-2.515,3.568,0.783,10.818,7.367,16.19c6.583,5.377,13.959,6.841,16.476,3.273
			c2.516-3.568-0.783-10.82-7.369-16.191C88.978,108.361,81.603,106.896,79.087,110.464z"/>
		<path fill="#404040" d="M87.616,125.255c-6.277-5.122-9.555-11.944-7.671-15.659c-0.321,0.247-0.618,0.529-0.858,0.868
			c-2.515,3.568,0.783,10.818,7.367,16.19c6.583,5.377,13.959,6.841,16.476,3.273c0.117-0.167,0.209-0.349,0.301-0.533
			C100.164,131.768,93.572,130.118,87.616,125.255z"/>
		<path fill="#D4EDFF" d="M113.284,102.879c17.108-20.666,47.155-49.964,33.098-71.282c-6.026,17.542-42.258,64.917-59.931,83.036
			l10.082,8.469C98.938,120.174,105.828,111.805,113.284,102.879z"/>
		<path fill="#B8C2E3" d="M111.695,101.562c2.406-2.905,3.293-7.314,5.869-10.444c2.545-3.093,6.781-4.908,9.304-8.15
			c2.487-3.196,3.26-7.818,5.538-11.089c2.207-3.17,5.931-4.989,7.777-8.169c1.948-3.356,1.996-8.07,3.351-11.364
			c1.487-3.622,4.213-5.812,4.737-9.265c0.529-3.499-1.158-8.259-1.891-11.485c-6.025,17.542-42.258,64.917-59.931,83.036
			l6.84,5.781c0.866-1.056,3.969-1.446,5.817-3.685c1.841-2.23,2.422-6.308,4.874-9.261
			C105.898,105.159,109.604,104.068,111.695,101.562z"/>
		
			<linearGradient id="SVGID_1_" gradientUnits="userSpaceOnUse" x1="-35.6885" y1="-28.5615" x2="-41.5768" y2="-52.6056" gradientTransform="matrix(0.9849 -0.1729 -0.1729 -0.9849 149.3592 31.6254)">
			<stop  offset="0.092" style="stop-color:#A8CEC9;stop-opacity:0"/>
			<stop  offset="0.1885" style="stop-color:#C4DEDA;stop-opacity:0.3455"/>
			<stop  offset="0.2883" style="stop-color:#E5F0EF;stop-opacity:0.7027"/>
			<stop  offset="0.4663" style="stop-color:#FFFFFF"/>
			<stop  offset="1" style="stop-color:#A8CEC9;stop-opacity:0"/>
		</linearGradient>
		<path fill="url(#SVGID_1_)" d="M113.284,102.879c17.108-20.666,47.155-49.964,33.098-71.282
			c-6.026,17.542-42.258,64.917-59.931,83.036l10.082,8.469C98.938,120.174,105.828,111.805,113.284,102.879z"/>
	</g>
</g>
<g id="outline_x5F_white">
	<path fill="#FFFFFF" d="M156.4,24.993L142.962,4.612l-7.93,23.087c-4.187,12.188-29.331,46.914-48.493,69.02
		c-1.005-0.134-1.994-0.202-2.961-0.202c-5.938,0-11.149,2.564-14.3,7.038c-3.741,5.308-3.89,12.196-0.965,18.949l-22.041,26.589
		c-4.246,5.124-3.011,13.183,2.751,17.964l2.841,2.354c2.667,2.214,5.94,3.436,9.211,3.436c3.549,0,6.812-1.479,8.95-4.062
		l21.505-25.943c2.337,0.68,4.656,1.038,6.902,1.038c5.938,0,11.151-2.562,14.302-7.033c3.295-4.674,3.858-10.644,1.826-16.736
		c2.76-3.332,5.414-6.521,7.932-9.533l0.018-0.021l0.018-0.021c2.125-2.565,4.478-5.294,6.969-8.185
		c8.859-10.276,18.902-21.926,25.425-34.02C163.895,51.691,164.393,37.11,156.4,24.993z M149.639,65.48
		c-6.211,11.519-16.027,22.905-24.688,32.95c-2.511,2.912-4.882,5.663-7.062,8.296c-3.216,3.846-6.649,7.979-10.244,12.326
		c2.758,5.357,2.879,10.514,0.188,14.333c-2.043,2.896-5.381,4.491-9.4,4.491c-2.75,0-5.764-0.776-8.783-2.174
		c0.001,0.001,0.002,0.001,0.003,0.002l-24.247,29.25c-0.043,0.053-0.093,0.097-0.138,0.147c-1.043,1.159-2.551,1.743-4.192,1.743
		c-1.792,0-3.736-0.688-5.384-2.057l-2.836-2.35c-3.225-2.676-4.104-6.936-1.964-9.518l20.579-24.826c0,0,0,0,0,0.001l3.987-4.811
		c-3.665-5.864-4.328-11.948-1.276-16.279c2.042-2.896,5.378-4.491,9.396-4.491c1.633,0,3.376,0.268,5.169,0.787
		c19.901-22.451,47.28-60.031,51.96-73.656l3.965-11.543l6.719,10.189C158.07,38.425,157.48,50.936,149.639,65.48z"/>
</g>
<g id="outline_x5F_black">
	<path d="M151.391,28.293l-6.719-10.189l-3.965,11.543c-4.68,13.625-32.059,51.205-51.96,73.656
		c-1.793-0.52-3.536-0.787-5.169-0.787c-4.018,0-7.354,1.596-9.396,4.491c-3.052,4.331-2.389,10.416,1.276,16.28l0-0.001
		l-24.566,29.635c-2.14,2.582-1.261,6.843,1.964,9.519l2.836,2.349c1.649,1.368,3.593,2.057,5.384,2.057
		c1.711,0,3.284-0.628,4.33-1.89l24.247-29.25c-0.001-0.001-0.002-0.001-0.003-0.002c3.019,1.397,6.033,2.174,8.783,2.174
		c4.019,0,7.357-1.595,9.4-4.491c2.691-3.819,2.57-8.976-0.188-14.333c3.595-4.347,7.028-8.48,10.244-12.326
		c2.18-2.634,4.551-5.385,7.062-8.296c8.661-10.045,18.478-21.431,24.688-32.95C157.48,50.936,158.07,38.425,151.391,28.293z
		 M76.595,124.968c-0.006-0.008-0.011-0.017-0.017-0.024C76.584,124.951,76.589,124.96,76.595,124.968z M62.325,162.403
		c-0.318,0.384-0.919,0.441-1.249,0.441c-0.93,0-1.961-0.414-2.833-1.138l-2.833-2.346c-1.686-1.398-1.978-3.237-1.438-3.888
		l23.917-28.854c1.364,1.624,2.957,3.2,4.772,4.682c1.114,0.91,2.262,1.72,3.421,2.454c-0.002-0.001-0.004-0.002-0.007-0.004
		L62.325,162.403z M87.815,134.776c0.022,0.012,0.044,0.024,0.066,0.036C87.859,134.801,87.837,134.788,87.815,134.776z
		 M113.284,102.879c-4.991,5.973-9.72,11.688-13.027,15.699c3.271,4.311,4.481,8.783,2.673,11.352
		c-0.931,1.317-2.525,1.948-4.498,1.948c-3.364,0-7.829-1.835-11.978-5.224c-6.584-5.372-9.882-12.622-7.367-16.19
		c0.929-1.317,2.52-1.948,4.49-1.948c1.997,0,4.383,0.647,6.86,1.881c18.631-20.397,50.342-62.49,55.945-78.799
		C160.439,52.915,130.395,82.214,113.284,102.879z"/>
</g>
</svg>
